<svg xmlns="http://www.w3.org/2000/svg" xml:space="preserve" width="406.75067" height="406.74933" viewBox="0 0 406.75065 406.74933"><defs><clipPath id="a" clipPathUnits="userSpaceOnUse"><path d="M0 600h800V0H0Z"/></clipPath></defs><g clip-path="url(#a)" transform="matrix(1.33333 0 0 -1.33333 -329.958 603.375)"><path d="M0 0c0-84.239 68.291-152.532 152.531-152.532 84.24 0 152.532 68.293 152.532 152.532 0 84.241-68.292 152.53-152.532 152.53C68.291 152.53 0 84.241 0 0" style="fill:#252f58;fill-opacity:1;fill-rule:nonzero;stroke:none" transform="translate(247.469 300.001)"/><path d="M0 0c10.843 16.129 17.171 35.547 17.171 56.442 0 55.949-45.355 101.303-101.303 101.303-55.949 0-101.304-45.354-101.304-101.303 0-20.895 6.329-40.313 17.171-56.442l-38.959-26.137c26.61-39.586 71.808-65.635 123.092-65.635 51.283 0 96.481 26.049 123.091 65.635z" style="fill:#fff;fill-opacity:1;fill-rule:nonzero;stroke:none" transform="translate(484.132 243.559)"/><path d="M0 0c-2.119.31-4.423.183-6.019-3.566l-.743-1.751 8.249-3.509c2.344-.996 3.317-1.225 4.346.588l.625-.266-3.654-8.594-.625.267c.374 1.833-.172 2.286-2.672 3.35L-13.148-8.1c-2.469 1.05-3.206 1.141-4.267-.4l-.624.266 6.258 14.718c.372.875.252 1.112.077 1.481l7.624-1.508.015-.486c-1.909-.148-5.818-.405-7.944-5.404-1.316-3.094-.378-3.493 1.153-4.143l2.219-.944 1.342 3.157c.704 1.656.835 2.744-1.259 3.634l.11.433L.124.463z" style="fill:#fff;fill-opacity:1;fill-rule:nonzero;stroke:none" transform="translate(289.375 353.492)"/><path d="M0 0c1.509 2.219 1.849 6.463-3.065 9.805-4.156 2.826-10.12 3.595-12.812-.364-.821-1.207-2.99-5.603 3.104-9.748C-8.169-3.438-2.31-3.396 0 0m1.829-1.9c-5.328-7.834-12.847-6.211-16.722-3.577-4.97 3.38-7.413 10.174-2.792 16.969 5.327 7.834 13.135 5.851 16.589 3.502 5.7-3.876 7.01-10.885 2.925-16.894" style="fill:#fff;fill-opacity:1;fill-rule:nonzero;stroke:none" transform="translate(304.726 365.322)"/><path d="M0 0c1.861-1.885 2.721-2.516 4.509-.846l.477-.484-7.275-7.18-.477.484c1.644 1.717 1.026 2.634-.811 4.496L-14.789 7.83c-.677-.765-1.741-1.91-2.354-3.851-.785-2.541-.026-4.034.4-4.901l-.386-.238-4.184 6.415c.264-.026.456-.026.698.115.24.143.554.405 1.013.859l9.838 9.709c1.063 1.048 1.113 1.24 1.092 1.792l6.432-4.197-.242-.382c-3.714 1.297-6 .617-8.729-1.792z" style="fill:#fff;fill-opacity:1;fill-rule:nonzero;stroke:none" transform="translate(319.013 385.697)"/><path d="m0 0 4.27-6.256c.804-1.178 1.325-1.521 3.149-.277 3.646 2.49 4.451 5.588 2.824 7.972C8.845 3.488 6.002 4.22 2.955 3.744c-.372-.541-.493-.665-1.478-1.873Zm-1.226 1.795c.717.818 1.555 1.76 2.545 3.382 1.24 2.038 1.441 3.491.675 4.614-1.168 1.711-3.496.121-4.366-.472C-5.009 7.52-4.71 6.9-4.001 5.863ZM.638-13.587l-.383.562c1.351 1.334 1.079 2.093-.414 4.281L-7.913 2.617c-1.494 2.188-2.084 2.691-3.837 1.946l-.383.561L-.491 13.07c1.262.862 4.46 3.043 6.337.295 1.321-1.935-.036-4.466-1.532-7.336 1.183.436 2.891 1.068 5.134.912 3.158-.228 4.657-2.002 5.212-2.816C17.685-.307 13.625-4.6 9.67-7.422Z" style="fill:#fff;fill-opacity:1;fill-rule:nonzero;stroke:none" transform="translate(326.663 401.318)"/><path d="M0 0c.467.203.841.365 1.411.503 2.511.612 3.864.313 4.976.058L-.288 7.544zm10.552-8.146-.271.623c.489.324 1.452 1.003.773 2.56-.325.746-1.334 2.382-4.067 3.043-3.05.709-5.395-.202-6.654-.714l.168-4.891C.52-8.332.6-9.112.925-9.859c.53-1.215 1.763-.9 2.32-.731l.271-.623-6.632-2.891-.271.624c1.3 1.011 1.405 2.131 1.314 5.315L-2.65 6.848c-.017.548-.158 1.634-.28 1.915-.054.124-.367.841-1.275.63l-.272.623 7.878 3.432.271-.622c-.221-.172-.759-.553-.393-1.394.136-.311 1.237-1.647 1.497-1.905L15.334-1.691c1.772-1.858 2.19-2.305 3.602-2.061l.272-.621z" style="fill:#fff;fill-opacity:1;fill-rule:nonzero;stroke:none" transform="translate(346.474 413.19)"/><path d="M0 0a1.245 1.245 0 0 1-.589.279C-.843.324-1.182.28-1.744.148l-14.48-3.401-.155.661c1.74.758 1.768 1.531 1.155 4.143l-3.145 13.389c-.613 2.612-.975 3.259-2.878 3.196l-.155.661 9.058 2.128.155-.661c-1.881-.756-1.844-1.655-1.254-4.167L-10.531 3.7c.38-1.62.481-2.05.846-2.417C-9.051.664-8.086.717-7.26.91-2.797 1.959-.84 5.802.239 9.822l.476-.097Z" style="fill:#fff;fill-opacity:1;fill-rule:nonzero;stroke:none" transform="translate(381.46 411.639)"/><path d="M0 0c2.682.088 6.313 2.313 6.117 8.254-.166 5.023-3.057 10.299-7.843 10.141-1.46-.047-6.292-.887-6.049-8.252C-7.592 4.575-4.107-.136 0 0m-.458-2.599C-9.93-2.91-13.049 4.124-13.203 8.809c-.197 6.007 3.854 11.986 12.069 12.255 9.471.312 12.469-7.168 12.607-11.343.226-6.891-4.667-12.08-11.931-12.32" style="fill:#fff;fill-opacity:1;fill-rule:nonzero;stroke:none" transform="translate(396.693 415.46)"/><path d="M0 0c.285.505.674 1.235.742 1.671.174 1.107-.841 1.437-1.3 1.578l.105.672 6.24-.977-.105-.67c-1.482-.25-1.713-.627-3.237-3.343l-7.716-13.092c-.704-1.196-.784-1.493-.836-1.828-.2-1.276.523-1.491.919-1.588l-.104-.672-7.684 1.201.106.672c.441-.035 1.104.033 1.241.905.063.404.037.682-.092 1.39l-2.934 15.752c-.51 2.898-.784 3.56-2.107 4.111l.105.671 9.159-1.432-.106-.67c-.892.002-1.568-.134-1.734-1.207-.027-.168-.08-.503.094-1.596l1.915-11.057c.263-1.623.249-2.583.222-3.644.336 1.049.35 1.148 1.255 2.759z" style="fill:#fff;fill-opacity:1;fill-rule:nonzero;stroke:none" transform="translate(426.594 429.747)"/><path d="M0 0c.939.647 1.628.771 2.238.563.996-.34 1.514-1.559 1.174-2.554-.418-1.222-1.933-1.35-2.524-1.4l-4.384-.332-.368 1.024zm-6.941-23.576c-.823-2.409-1.014-3.492 1.095-4.358l-.219-.642-9.255 3.162.219.643c2.058-.489 2.57.378 3.404 2.82l1.943 5.689-2.234 9.843c-.667 2.882-1.405 3.351-2.206 3.839l.218.642 9.738-3.326-.219-.642c-.473.09-1.555.28-1.863-.62-.186-.546-.145-.74.218-2.408l1.234-5.947 3.758 2.699c1.231.872 4.46 3.393 1.795 4.52l.219.642 6.557-2.24-.221-.642c-1.019.061-1.666-.149-4.354-2.137l-7.861-5.783z" style="fill:#fff;fill-opacity:1;fill-rule:nonzero;stroke:none" transform="translate(447.272 434.404)"/><path d="m0 0-7.602 5.245.386.559c.467-.28 1.195-.658 1.813.235.714 1.034 1.478 4.055 1.638 5.842.224 2.774-.142 5.173-.468 7.213l-2.912-.095-4.05-5.869c-1.447-2.096-1.867-3.002-.296-4.374l-.386-.56-7.686 5.305.386.559c1.721-.735 2.276-.291 3.818 1.945l7.811 11.318c1.543 2.236 1.76 2.91.464 4.259l.386.56 7.601-5.246-.384-.559c-1.768.847-2.418.264-3.903-1.889l-2.275-3.297 4.138.321c3.444.263 4.792.365 5.39 1.231.153.224.456.841-.389 1.589l.386.559 7.378-5.092-.386-.559c-1.16.471-2.555 1.021-7.524.696L.807 19.7C2.146 12.134.438 6.793-.216 4.11-.82 1.68-.321 1.088.386.559Z" style="fill:#fff;fill-opacity:1;fill-rule:nonzero;stroke:none" transform="translate(474.858 386.175)"/><path d="M0 0c.023.217.023.408-.072.648-.096.241-.312.505-.72.915l-10.509 10.524.481.479c1.559-1.081 2.232-.697 4.13 1.199l9.733 9.717c1.897 1.896 2.258 2.543 1.203 4.129l.481.481 6.574-6.584-.481-.481c-1.632 1.202-2.377.698-4.203-1.125l-9.011-8.998c-1.177-1.175-1.49-1.488-1.61-1.992-.193-.864.359-1.657.959-2.258C.194 3.41 4.492 3.768 8.479 4.965l.167-.457Z" style="fill:#fff;fill-opacity:1;fill-rule:nonzero;stroke:none" transform="translate(485.236 374.406)"/><path d="m0 0 5.569-8.041-.558-.387c-1.35 1.71-2.324 1.448-4.627.06l-8.108-4.997c-1.761-1.096-2.812-1.906-3.341-3.348-.664-1.905.236-3.802.953-4.835 1.045-1.508 2.906-2.944 4.73-2.714 1.701.228 3.007.968 4.69 2.298l6.839 5.276c2.128 1.638 2.764 2.451 1.533 4.408l.558.386 4.101-5.919-.559-.387c-1.392 1.473-2.185 1.008-4.22-.528l-7.762-5.913c-2.584-1.997-4.545-2.446-6.341-2.12-3.214.584-5.401 3.324-6.329 4.664-.562.811-2.713 4.155-2.505 6.778.208 2.623 1.417 4.039 3.951 5.629l8.89 5.538C-.393-2.833.378-2.216-.56-.387z" style="fill:#fff;fill-opacity:1;fill-rule:nonzero;stroke:none" transform="translate(505.804 386.269)"/><path d="M0 0c.67-.855 1.439-1.854 2.849-3.127 1.773-1.598 3.164-2.064 4.407-1.52 1.9.83.77 3.413.348 4.377-1.278 2.925-1.942 2.746-3.092 2.243Zm-1.992-.871-6.94-3.033c-1.306-.572-1.74-1.021-.856-3.043 1.768-4.045 4.664-5.412 7.309-4.255 2.27.993 3.518 3.651 3.616 6.733-.462.465-.562.608-1.565 1.799zm-13.469 1.896.623.272c1.059-1.575 1.857-1.449 4.283-.389l12.604 5.51c2.426 1.062 3.03 1.548 2.624 3.409l.621.273 5.647-12.914c.613-1.401 2.163-4.948-.886-6.282-2.148-.939-4.382.866-6.924 2.867.209-1.244.512-3.039-.057-5.214-.811-3.061-2.832-4.203-3.734-4.598-4.916-2.149-8.381 2.638-10.42 7.046z" style="fill:#fff;fill-opacity:1;fill-rule:nonzero;stroke:none" transform="translate(515.156 354.184)"/><path d="m0 0-.302.189C1.609 3.873.733 8.656-2.134 11.647c-1.673 1.747-4.356 3.361-6.35 1.449-1.497-1.434.038-3.969.77-5.42l2.872-5.619c2.668-5.217 1.884-9.078-.673-11.528-4.925-4.718-10.583-3.744-15.482 1.368-2.449 2.556-3.364 5.507-4.767 6.972-.448.467-.997.54-1.577.522l6.06 9.275.363-.191C-23.49 3.858-23.58-1.788-19.757-5.777c3.854-4.022 7.265-4.4 9.977-1.801 2.712 2.599 1.07 5.748-.307 8.494l-2.695 5.371c-1.582 3.148-2.461 6.312.407 9.06 3.646 3.495 8.61 1.434 11.328-1.402 2.3-2.4 2.656-4.332 4.419-6.17.507-.53.963-.631 1.636-.585Z" style="fill:#252f58;fill-opacity:1;fill-rule:nonzero;stroke:none" transform="translate(320.366 211.459)"/><path d="M0 0c-.053.456-.335.807-.641 1.123-.332.28-.722.551-1.078.796l-14.182 9.776.221.32c2.367-1.054 3.756.505 4.957 2.247L-.676 28.834c1.347 1.955 2.733 4.041.678 5.93l.221.319 8.53-5.881-.22-.319c-2.422 1.354-3.757-.504-5.128-2.496l-9.336-13.541c-.442-.641-1.398-2.027-1.647-2.694-.306-1.205.766-2.31 1.655-2.923 4.621-3.185 10.146-2.853 14.86-.124l.197-.398Z" style="fill:#252f58;fill-opacity:1;fill-rule:nonzero;stroke:none" transform="translate(328.399 179.832)"/><path d="M0 0c5.653-2.136 10.463 1.676 12.433 6.887 2.716 7.187.216 15.101-5.478 17.254-5.775 2.183-10.379-1.939-12.348-7.148C-7.667 10.976-6.745 2.551 0 0m-10.253 5.723c-1.744 3.566-1.924 7.972-.535 11.648 3.053 8.076 11.51 11.525 19.465 8.518 8.198-3.098 12.204-11.305 9.059-19.623C14.76-1.609 5.869-4.618-1.723-1.748c-3.675 1.39-6.786 3.903-8.53 7.471" style="fill:#252f58;fill-opacity:1;fill-rule:nonzero;stroke:none" transform="translate(352.32 171.228)"/><path d="M0 0c.862 1.767 2.329 4.593-.55 5.24l.046.385 7.63-.908-.046-.385C4.906 4.33 4.01 1.914 3.163.275l-9.705-18.713c-.9-1.718-1.364-3.054.368-3.478l-.046-.386-8.231.981.046.385c1.789.047 1.689 1.407 1.183 3.728l-4.341 19.776c-.363 1.697-.728 4.479-2.707 5.02l.046.385 9.388-1.118-.045-.386c-2.95-.301-2.012-3.022-1.599-5.028l3.748-18.921z" style="fill:#252f58;fill-opacity:1;fill-rule:nonzero;stroke:none" transform="translate(393.315 183.885)"/><path d="M0 0c.584.866 1.2 1.908 2.362 1.995 1.205.09 2.314-.822 2.404-2.027.109-1.464-1.389-2.27-2.47-2.87l-4.283-2.355-.757.852zm.092-10.47-3.145-10.627c3.183.284 6.542-.634 8.955-2.793zm-5.613-19.86c-.271-1.016-.538-2.075-.461-3.108.103-1.377 1.288-2.156 2.543-2.148l.028-.388-8.783-.657-.029.388c1.017.293 1.558.593 2.136 1.546.691 1.176 1.257 2.864 1.638 4.147l5.561 18.819c.241.839.524 1.683.458 2.544-.056.775-.695 1.204-1.437 1.278l-.029.388 9.558.715.029-.388c-.759-.273-1.197-.783-1.132-1.643.039-.517.304-1.189.512-1.65l8.949-20.631c.761-1.502 1.107-2.645 2.861-2.946l.029-.387-9.773-.733-.03.388c1.526.46 1.998 1.664 1.885 3.172-.293 3.917-5.588 8.717-12.529 8.326z" style="fill:#252f58;fill-opacity:1;fill-rule:nonzero;stroke:none" transform="translate(408.14 196.974)"/><path d="M0 0c-.476.079-.957-.115-1.398-.297L-6.311-2.09c-4.33-1.341-8.94-1.775-13.19-.017-4.452 1.828-7.554 5.568-8.96 10.104-1.109 3.587-.955 7.612 1.121 10.831 2.216 3.352 5.572 5.205 9.283 6.356 1.198.369 2.348.59 3.364.814 1.028.183 1.931.327 2.632.545.661.203 1.256.614 1.354 1.322l4.311-7.207-.292-.224c-2.638 3.115-6.951 3.766-10.704 2.605-2.721-.844-4.715-2.139-5.907-4.857-1.135-2.612-1.145-5.643-.303-8.364 2.223-7.174 9.081-12.1 16.627-9.763C-2.604 1.408-.439 4.926.146 9.309l.463-.038Z" style="fill:#252f58;fill-opacity:1;fill-rule:nonzero;stroke:none" transform="translate(452.121 170.184)"/><path d="M0 0c-1.212 2.043-2.506 4.137-5.102 3.098l-.199.334 8.91 5.289.2-.334c-2.245-1.633-1.114-3.623.121-5.702l2.687-4.53 1.672 4.458c.549 1.53 2.618 6.924 1.803 8.298-.397.668-.893.573-1.531.296l-.199.334 8.948 5.311.198-.334c-2.785-1.905-3.682-4.795-4.783-7.759l-1.418-3.954C17.268 3.473 22.186.77 26.981-2.911L28.699-4.2c1.373-1.044 3.076-2.644 4.916-1.852l.198-.335-8.167-4.847-.198.334c.712.574.924 1.402.441 2.218-1.169 1.969-5.074 4.571-7.053 5.705C15.993-1.4 12.985-.224 9.857.731L8.006-4.184l4.805-8.092c1.255-2.117 2.592-4.285 5.1-3.097l.198-.335-8.91-5.288-.198.334c2.155 1.781 1.069 3.697-.12 5.701z" style="fill:#252f58;fill-opacity:1;fill-rule:nonzero;stroke:none" transform="translate(450.135 194.596)"/><path d="M0 0c4.314 4.234 2.874 10.201-1.027 14.176-5.383 5.483-13.616 6.537-17.959 2.273-4.407-4.324-2.6-10.232 1.3-14.207C-13.179-2.348-5.145-5.049 0 0m-9.496-6.901c-3.971-.085-8.045 1.602-10.797 4.405-6.048 6.162-5.627 15.287.443 21.244 6.254 6.138 15.383 6.326 21.613-.019C7.659 12.72 6.656 3.389.864-2.297c-2.803-2.752-6.392-4.519-10.36-4.604" style="fill:#252f58;fill-opacity:1;fill-rule:nonzero;stroke:none" transform="translate(496.793 202.65)"/><path d="M0 0c-54.359 0-98.425-44.065-98.425-98.426 0-27.431 11.227-52.238 29.331-70.087-1.305 6.756-2.768 13.592-4.267 20.325C-83.003-134-88.64-116.871-88.64-98.425c0 1.526.038 3.042.115 4.548C-63.555-79.479-33.001-71.01.001-71.01c17.324 0 33.975-2.338 49.498-6.638h1.171l.063-.348c13.58-3.869 26.282-9.242 37.793-15.881.077-1.506.116-3.022.116-4.548 0-20.132-6.716-38.692-18.024-53.573.102-1.082.16-2.186.161-3.313v-.124a30.193 30.193 0 0 0-4.1-15.379c19.516 17.986 31.747 43.757 31.748 72.388C98.425-44.065 54.358 0 0 0" style="fill:#252f58;fill-opacity:1;fill-rule:nonzero;stroke:none" transform="translate(399.999 398.426)"/><path d="M0 0c47.428 0 86.158-37.25 88.525-84.092a154.729 154.729 0 0 0 7.594-4.681l.003.132c0 26.549-10.756 50.573-28.154 67.971C50.57-3.273 26.546 7.482-.001 7.482c-26.547 0-50.57-10.755-67.969-28.152-17.397-17.398-28.154-41.422-28.154-67.971l.002-.132a154.792 154.792 0 0 0 7.596 4.681C-86.159-37.25-47.43 0 0 0" style="fill:#fff;fill-opacity:1;fill-rule:nonzero;stroke:none" transform="translate(400 388.64)"/><path d="M0 0c-47.43 0-86.159-37.25-88.526-84.092C-63.556-69.694-33.002-61.225 0-61.225c33 0 63.555-8.469 88.525-22.867C86.158-37.25 47.428 0 0 0" style="fill:#252f58;fill-opacity:1;fill-rule:nonzero;stroke:none" transform="translate(400 388.64)"/><path d="M0 0c0-3.87.129-5.303 5.998-5.637v-1.004h-21.669v1.004c5.546.286 6.062 1.289 6.062 5.637v17.244c0 2.771-.323 4.586-4.193 4.586-.838 0-1.483-.096-2.192-.142l-.129.955L0 25.795Z" style="fill:#fff;fill-opacity:1;fill-rule:nonzero;stroke:none" transform="translate(364.262 338.822)"/><path d="M0 0c-2.708 0-5.417 1.672-5.417 4.396 0 2.148 1.806 4.537 5.611 4.537 3.805 0 5.482-2.436 5.482-4.25C5.676 2.245 3.354 0 0 0" style="fill:#fff;fill-opacity:1;fill-rule:nonzero;stroke:none" transform="translate(378.58 331.704)"/><path d="M0 0c-.955 2.914-2.748 5.828-9.913 5.828h-3.344V-6.783c0-3.582.299-4.968 3.942-5.302v-.956h-16.422v.956c3.224.525 3.583 1.481 3.583 5.302v19.347c0 3.774-.359 4.776-3.583 5.302v.956H2.389c1.672 0 1.97.285 2.447.716l2.807-10.7-.776-.287C5.314 10.939 2.21 15.86-7.346 15.86c-5.911 0-5.911-1.433-5.911-3.774V8.694h6.031c3.165 0 5.017.431 5.017 3.63l.775.096L.836.096z" style="fill:#fff;fill-opacity:1;fill-rule:nonzero;stroke:none" transform="translate(410.174 345.223)"/><path d="M0 0a1.976 1.976 0 0 1-.717.382c-.298.096-.656.143-1.373.143-.477 0-1.135-.047-1.492-.047C-7.883.144-8.42.144-10.33.144c-16.84 0-25.26 8.073-25.26 17.483 0 2.818.837 8.121 6.092 11.848 4.478 3.199 10.449 3.963 15.227 3.963 2.925 0 5.076-.287 7.524-.62.179 0 1.373-.191 2.03-.191 1.791 0 2.268.668 2.687 1.241l3.046-12.229-.778-.239c-1.672 2.627-5.373 8.455-13.852 8.455-7.406 0-12.362-4.824-12.362-11.416 0-1.815.598-7.929 6.152-11.56 2.926-1.91 6.806-3.153 10.808-3.153 8.897 0 11.942 5.35 12.838 6.878l.896-.286z" style="fill:#fff;fill-opacity:1;fill-rule:nonzero;stroke:none" transform="translate(453.885 331.322)"/><path d="M0 0c-16.324 5.301-48.66 10.385-48.62 16.953.03 4.961 13.241 8.481 20.696 8.478 21.202-.004 46.044-8.478 53.357-28.423h8.976c-2.971 12.756-5.574 25.512-7.928 38.267h-1.869c-1.966-1.404-4.623-2.63-6.909-2.613-14.116.11-29.001 7.109-49.369 7.231-24.753.148-45.603-8.575-45.876-26.18-.317-20.209 25.352-23.608 52.11-31.666 14.501-4.367 40.927-9.869 40.892-20.943-.045-13.446-22.6-17.303-35.905-17.456-23.405-.267-51.571 9.312-58.657 37.153l-10.368 1.242c3.617-15.789 7.398-32.825 9.683-48.617 3.407 2.162 6.534 3.746 10.222 3.74 9.84-.016 19.288-7.742 51.364-8.228 29.822-.451 63.923 9.238 63.829 34.408C45.537-12.418 18.952-6.154 0 0" style="fill:#252f58;fill-opacity:1;fill-rule:nonzero;stroke:none" transform="translate(419.396 279.746)"/><path d="m0 0 2.688-8.273h8.7L4.35-13.388l2.688-8.274L0-16.549l-7.039-5.113 2.689 8.274-7.038 5.115h8.7z" style="fill:#fff;fill-opacity:1;fill-rule:nonzero;stroke:none" transform="translate(283.156 267.008)"/><path d="m0 0 2.688-8.274h8.699L4.35-13.389l2.688-8.273L0-16.549l-7.039-5.113 2.689 8.273-7.038 5.115h8.7z" style="fill:#fff;fill-opacity:1;fill-rule:nonzero;stroke:none" transform="translate(276.182 326.219)"/><path d="m0 0 2.688-8.275h8.7L4.35-13.389l2.689-8.273L0-16.549l-7.038-5.113 2.688 8.273-7.038 5.114h8.7z" style="fill:#fff;fill-opacity:1;fill-rule:nonzero;stroke:none" transform="translate(276.042 296.613)"/><path d="m0 0-2.689-8.273h-8.7l7.038-5.115-2.688-8.274L0-16.549l7.038-5.113-2.689 8.274 7.038 5.115H2.688Z" style="fill:#fff;fill-opacity:1;fill-rule:nonzero;stroke:none" transform="translate(516.844 267.008)"/><path d="m0 0-2.689-8.274h-8.7l7.039-5.115-2.689-8.273L0-16.549l7.038-5.113-2.688 8.273 7.038 5.115h-8.7z" style="fill:#fff;fill-opacity:1;fill-rule:nonzero;stroke:none" transform="translate(523.818 326.219)"/><path d="m0 0-2.688-8.275h-8.7l7.038-5.114-2.689-8.273L0-16.549l7.038-5.113-2.688 8.273 7.037 5.114H2.688Z" style="fill:#fff;fill-opacity:1;fill-rule:nonzero;stroke:none" transform="translate(523.957 296.613)"/></g></svg>