<svg xmlns="http://www.w3.org/2000/svg" width="774.67975" height="1032.5116" style="clip-rule:evenodd;fill-rule:evenodd;image-rendering:optimizeQuality;shape-rendering:geometricPrecision;text-rendering:geometricPrecision" viewBox="0 0 774.67975 1032.5116"><path fill="none" d="M-25.437-25.46h823.962v1073.884H-25.437z" style="fill:#060528;fill-opacity:0"/><path d="m804.11 1092.028 73.405 69.17-103.271 81.114-128.342 59.73-42.39-133.956" class="e" style="fill:#c71a1a;fill-opacity:1;stroke-width:4.74149" transform="scale(.77468)"/><path d="m196.229 1092.028-73.406 69.17 103.271 81.114 128.342 59.73 42.39-133.956" class="e" style="fill:#2459ab;stroke-width:4.74149" transform="scale(.77468)"/><path d="m610.078 1191.96-212.391 4.235-38.861 112.07 281.638-5.647z" class="d" style="fill:#faa61a;stroke-width:4.74149" transform="scale(.77468)"/><path d="m651.206 1274.532-4.523-14.328-10.56-34.69-7.543-25.641a436.654 436.654 0 0 0 167.422-96.532l18.852 18.852 25.642 25.642 10.56 10.56a514.334 514.334 0 0 1-199.85 116.137M500.375 345.4a436.654 436.654 0 0 0-329.563 723.23l9.052 10.559-18.852 18.852-9.81-10.56a463.803 463.803 0 1 1 697.587 0l-9.051 10.56-18.848-18.857 9.052-10.56A436.654 436.654 0 0 0 500.375 345.4m0 951.736a516.59 516.59 0 0 1-116.139-12.802l4.524-14.329 10.56-34.688 7.543-25.642a441.172 441.172 0 0 0 186.274 0l7.544 25.642 10.56 34.688 4.523 14.33a516.59 516.59 0 0 1-115.385 12.801m-136.503-71.644-10.559 34.689-4.523 14.329a514.334 514.334 0 0 1-199.85-115.385l10.56-10.559 25.647-25.637 18.852-18.852a436.649 436.649 0 0 0 167.422 96.532zm501.508-102.563 9.052-10.56a500 500 0 1 0-748.872 0l9.052 10.56-10.56 10.56-25.642 25.641 24.889 24.888a549.776 549.776 0 0 0 214.931 124.436l35.443 9.805a555.049 555.049 0 0 0 252.641 0l35.443-9.805a549.776 549.776 0 0 0 214.932-124.436l24.888-24.888-25.642-25.642z" style="stroke-width:4.74149" transform="scale(.77468)"/><path d="m605.2 676.474 107.845 28.657v-66.38A131.975 131.975 0 0 0 581.07 506.79H419.68a131.975 131.975 0 0 0-131.976 131.975v39.216c0 56.562 31.674 111.615 104.825 131.221l187.763 49.786a30.165 30.165 0 0 1 24.889 30.165v49.018a24.134 24.134 0 0 1-24.135 24.134H419.68a24.134 24.134 0 0 1-24.134-24.134v-49.027L287.7 859.747v65.612a131.975 131.975 0 0 0 131.974 131.975H581.07A131.975 131.975 0 0 0 713.045 925.36v-38.463c0-56.56-31.673-111.614-104.825-131.22L419.684 705.89a30.165 30.165 0 0 1-24.888-30.166v-49.027a22.626 22.626 0 0 1 24.134-24.134h162.159a24.134 24.134 0 0 1 24.134 24.134z" class="f" style="fill:#fff;stroke-width:4.74149" transform="scale(.77468)"/><path d="M500.375 318.249A463.803 463.803 0 0 0 151.2 1087.48l9.052 10.56 18.852-18.852-9.051-10.56a436.654 436.654 0 1 1 659.883 0l-9.052 10.56 18.853 18.852 9.051-10.56A463.803 463.803 0 0 0 499.621 318.25" class="f" style="fill:#fff;stroke-width:4.74149" transform="scale(.77468)"/><path d="m537.33 116.138 60.33-44.494h-74.659L499.621 0l-23.38 71.644h-74.66l60.33 44.494-23.375 72.398 61.085-44.494 61.084 44.494zM777.904 191.556l73.905-11.313-66.38-34.689 12.801-74.66-53.512 53.542-66.38-34.69 33.19 67.122-54.29 53.54 74.659-12.067 33.92 67.875zM222.092 191.556l-73.906-11.313 66.38-34.689-12.834-74.664 54.3 53.546 66.38-34.69-33.19 67.122 53.536 53.54-74.664-12.067-33.935 67.875z" class="g" style="fill:#c7ab59;stroke-width:4.74149" transform="scale(.77468)"/></svg>