<svg xmlns="http://www.w3.org/2000/svg" width="64" height="64" fill="none" viewBox="0 0 64 64"><g clip-path="url(#a)"><path fill="#FEFEFE" d="M.03 32C.03 49.645 14.37 64 32 64s31.97-14.355 31.97-32S49.629 0 32 0C14.37 0 .03 14.355.03 32"/><path fill="#009847" fill-rule="evenodd" d="M28.313 40.324c4.469 7.376 1.07 7.062-3.733 6.928-1.107-.031-1.867-.026-2.204.657.226.139.46.27.69.4.604-1.033 1.497-.661 2.88-.719 4.746-.204 6.855-.688 2.367-7.266m13.073 7.726-.068-.004c-1.258-.08-4.007-.08-3.93-3.62.08-3.541.823-6.773.994-9.916.17-3.143-2.252-4.958-4.138-6.61 0 0-2.751-2.36-3.146-4.406-.406-2.117.426-6.091.255-6.571-.274-.758-.226-.597-.306-1.227-.052-.425.308-1.52.361-2.29q.294-.007.592-.007c10.247 0 18.584 8.343 18.584 18.601 0 6.833-3.7 12.816-9.198 16.05m-16.003 1.333c1.679.003 7.603.235 7.995.158.395-.079 1.177-.644.708-1.733-.47-1.083-2.54-4.166-2.752-5.507-.21-1.34-.354-2.577 1.101-2.44 1.456.139 1.65 2.206 1.73 3.54.08 1.339.55 4.407 1.73 5.117.793.477 2.407.525 3.593.506A18.45 18.45 0 0 1 32 50.604c-2.33 0-4.56-.432-6.617-1.22m4.611-35.493s-.938 2.285-4.005 3.23c-1.179.63-.33 1.265.156 1.337s1.74-.175 1.81.552c.067.724.314 1.651-1.259 4.013-1.573 2.359-3.014 2.345-3.223 3.383-.21 1.04-.178 2.754.08 3.068.254.317 1.101.473 1.257-.549.157-1.023.785-1.575 1.335-1.496.551.08 1.258.63 1.338 2.362.08 1.73.08 2.359-.787 3.54-.866 1.18-3.067 2.911-.943 6.531 2.122 3.62 3.067 4.171 2.829 5.35-.236 1.183-.943 1.26-2.278 1.26-1.337 0-3.697-.552-4.56.079-.29.21-.506.366-.638.513-4.657-3.383-7.69-8.875-7.69-15.063 0-4.97 1.932-9.64 5.444-13.154 3.073-3.076 7.035-4.944 11.305-5.358-.108.223-.171.402-.171.402m-12.169 3.92A19.94 19.94 0 0 0 11.951 32c0 11.066 8.994 20.068 20.05 20.068 11.054 0 20.046-9.002 20.046-20.068 0-11.064-8.992-20.066-20.047-20.066a19.9 19.9 0 0 0-14.175 5.876m-8.77 16.542a1.56 1.56 0 0 1-1.561 1.56 1.561 1.561 0 1 1 1.561-1.56m49.166 0a1.56 1.56 0 0 1-1.561 1.56 1.561 1.561 0 1 1 1.561-1.56M43.505 52.03l.014-.01 1.682 1.405-1.251.758zm-.159 5.073 1.078-.655-.272-1.304 1.804-1.095 1.018.855 1.101-.668-4.729-3.738-1.09.66zM37.17 59.02l1.193-.346-.676-2.342 2.197-.635.675 2.342 1.194-.343-1.566-5.43-1.194.345.602 2.084-2.196.633-.602-2.084-1.19.346zm-4.563-3.865h.017l.772 2.05-1.462.045zm-2.634 4.34 1.26-.039.405-1.27 2.11-.065.464 1.246 1.289-.038-2.278-5.586-1.272.038zM26 53.975l1.327.293c.542.12.785.415.667.95-.123.556-.467.724-1.008.604l-1.328-.293zm-2.218 4.311 1.212.266.474-2.157 1.212.268c.611.134.777.439.736 1.036-.036.455-.168.985-.098 1.364l1.212.268c-.147-.357.003-1.004.055-1.359.085-.563.041-1.18-.52-1.467l.006-.014c.664-.113 1.034-.542 1.176-1.192.183-.834-.291-1.661-1.28-1.88l-2.973-.652zm-2.716-6.29.866.426c.517.257.921.6.601 1.244-.317.645-.834.53-1.351.276l-.866-.429zm-3.187 3.648 1.111.55.9-1.816 1.169.58c1.26.624 2.146.065 2.552-.757.407-.825.315-1.868-.948-2.493l-2.28-1.13zm33.75-36.967c-1.32.69-1.311 2.11-.678 3.29.777 1.447 1.92 1.821 2.898 1.298 1.208-.65.813-1.977.703-2.418-.373-1.52-.458-1.8-.049-2.021.448-.24.837.107 1.037.481.3.559.38 1.103-.24 1.484l.608 1.137c1.23-.662 1.167-1.945.57-3.057-.517-.964-1.59-1.714-2.68-1.13-.998.538-.875 1.502-.66 2.406.21.896.543 1.745-.032 2.054-.544.292-1-.27-1.22-.68-.336-.629-.356-1.329.352-1.71zm-5.77-3.407.858.902 2.925-2.798.012.012-1.188 4.617.919.962 4.368-4.181-.859-.9-2.932 2.803-.012-.012 1.188-4.63-.911-.953zm-.679-5.823.015.01-.455 2.301-1.354-.786zm-4.844 2.455 1.166.678 1.085-.925 1.956 1.136-.282 1.393 1.193.695 1.083-6.367-1.179-.686zm-1.925-.705 1.256.436 1.982-5.715-1.256-.436zm-7.473-.952 1.236.125.424-4.224.014.002 1.054 4.37 1.02.104 1.897-4.119.017.002-.426 4.265 1.24.123.6-6.018-1.861-.187-1.744 4.006-.017-.002-.993-4.28-1.862-.186zm-5.422 1.11 4.491-.937-.229-1.093-3.189.664-.303-1.45 2.867-.6-.212-1.012-2.867.6-.262-1.268 3.122-.653-.228-1.095-4.424.923zm-5.672 2.71 1.179-.614-1.203-2.314 2.17-1.129 1.203 2.313 1.18-.613-2.79-5.366-1.178.614 1.07 2.06-2.17 1.129-1.07-2.06-1.179.614zm-6.191 1.594c-.741-.758-1.13-1.798-.28-2.635.852-.834 1.884-.424 2.625.333.705.72 1.095 1.76.243 2.596-.854.837-1.883.425-2.588-.294m-.95.93c1.22 1.246 2.985 1.474 4.32.165 1.337-1.311 1.145-3.08-.077-4.327-1.256-1.283-3.019-1.51-4.354-.201-1.337 1.31-1.145 3.08.11 4.363m-4.465 3.562.602-1.09c.226-.418.543-.746 1.048-.468.445.244.462.65.239 1.06l-.65 1.18zm3.753 3.582 1.41-2.568c.526-.959.57-2.124-.508-2.716-.66-.364-1.335-.311-1.876.233.03-.583-.19-1.043-.71-1.328-.986-.542-1.689-.039-2.242.97l-1.37 2.494zm-1.72-2.462.697-1.27c.275-.497.676-.722 1.217-.423.549.302.477.784.224 1.244l-.683 1.247zM2.61 32c0-16.22 13.184-29.418 29.39-29.418C48.204 2.582 61.388 15.78 61.388 32c0 16.223-13.184 29.418-29.389 29.418S2.611 48.223 2.611 32m-1.465 0c0 17.029 13.84 30.883 30.854 30.883S62.854 49.028 62.854 32 49.014 1.117 32 1.117 1.146 14.972 1.146 32" clip-rule="evenodd"/></g><defs><clipPath id="a"><path fill="#fff" d="M0 0h64v64H0z"/></clipPath></defs></svg>