<svg xmlns="http://www.w3.org/2000/svg" width="953.20831" height="972.22223" x="0px" y="0px" viewBox="0 0 953.20831 972.22223"><path fill="none" d="M-46.766-26.167h1057.879v1027.738H-46.766z" style="fill:#04042b;fill-opacity:0"/><path d="M80.232 219.448c25.686 10.669 58.96 10.669 84.646 0 10.16-4.222 19.336-9.556 28.353-15.906l51.88 51.118c-8.827 9.874-17.05 19.843-22.448 32.131-7.334 16.732-7.016 35.116-7.556 52.927-.667 21.083-5.461 41.276-17.844 58.674-11.398 16.066-27.844 27.527-44.482 37.624-9.938 6.064-20.224 11.589-30.226 17.526-10-5.937-20.288-11.461-30.226-17.526-16.637-10.097-33.084-21.558-44.482-37.624-12.382-17.398-17.177-37.592-17.844-58.674-.54-17.811-.222-36.195-7.556-52.927C17.05 274.503 8.827 264.534 0 254.66l51.88-51.118c9.017 6.35 18.192 11.684 28.352 15.906z" style="fill:#dda35a;stroke-width:.551217" transform="matrix(3.88889 0 0 3.88889 0 -791.552)"/><path d="M64.897 406.393c9.335 9.017 20.383 16.351 31.433 23.05 8.635 5.271 17.494 10.065 26.225 15.177 8.732-5.111 17.59-9.906 26.226-15.177 15.716-9.556 31.432-20.32 42.227-35.496 11.494-16.16 15.78-34.862 16.383-54.451.604-18.955.445-37.974 8.256-55.785 4.667-10.636 11.27-19.97 18.859-28.702l-2.794-2.762z" style="fill:#01619e;stroke-width:.551217" transform="matrix(3.88889 0 0 3.88889 0 -791.552)"/><path d="M41.783 367.944c2.604 9.144 6.54 17.906 12.319 26.003a82.71 82.71 0 0 0 5.461 6.89l166.688-153.988-25.844-25.464Z" style="fill:#fff;stroke-width:.551217" transform="matrix(3.88889 0 0 3.88889 0 -791.552)"/><path d="M77.311 226.56c-8.604-3.587-16.858-7.905-24.574-13.08l-42.133 41.53c7.589 8.73 14.192 18.065 18.86 28.701 7.81 17.811 7.652 36.83 8.255 55.785.19 6.763.825 13.398 2.063 19.844l155.164-143.352-2.572-2.508c-7.716 5.175-15.97 9.493-24.575 13.08-27.59 11.43-62.928 11.43-90.488 0z" style="fill:#db001b;stroke-width:.551217" transform="matrix(3.88889 0 0 3.88889 0 -791.552)"/><path d="m85.408 267.169 2.825-2.603.286.286.286.286c1.683 1.81 2.54 3.492 2.603 5.08.064 1.555-.698 3.08-2.254 4.54-.73.699-1.46 1.206-2.19 1.492a4.334 4.334 0 0 1-2.191.381c-1.048-.032-2.096-.445-3.175-1.174-1.112-.73-2.762-2.286-4.953-4.636-1.493-1.588-2.604-2.921-3.366-4-.761-1.048-1.206-1.937-1.365-2.667-.254-1.112-.222-2.096.095-3.016.318-.89.985-1.779 1.937-2.667 1.587-1.493 3.111-2.127 4.572-2 1.492.158 3.08 1.143 4.794 2.952l-2.794 2.635-.349-.38c-.794-.858-1.524-1.334-2.191-1.493-.635-.159-1.27 0-1.81.54-.698.635-.92 1.365-.635 2.159.286.826 1.651 2.508 4.064 5.112 2.604 2.793 4.318 4.381 5.144 4.762.794.381 1.555.254 2.254-.413.635-.603.857-1.238.698-1.968-.19-.698-.889-1.715-2.095-2.985z" style="fill:#dda35a;stroke-width:.551217" transform="matrix(3.88889 0 0 3.88889 0 -791.552)"/><path d="m125.222 117.619-9.446 8.813 6.221 6.682 8.928-8.352 4.204 4.492-8.927 8.41 11.577 12.384-5.241 4.953-26.381-28.281 14.803-13.709Z" style="fill:#dda35a" transform="scale(2.14362)"/><path d="m65.437 381.343 1.206-1.08c.762-.698 1.111-1.365 1.08-2 0-.667-.445-1.46-1.27-2.381-.858-.953-1.62-1.461-2.286-1.525-.667-.063-1.46.318-2.382 1.175l-.889.794zm-6.445-7.144.984-.89c.73-.666 1.112-1.27 1.112-1.872-.032-.572-.413-1.27-1.207-2.128-.667-.793-1.302-1.174-1.841-1.206-.54-.032-1.206.317-2 1.016l-.89.793zm5.587 11.97-14.223-15.812 4.731-4.255c1.365-1.238 2.635-1.81 3.873-1.778 1.239.032 2.445.7 3.62 2 .92 1.048 1.492 2.001 1.683 2.89.19.857.031 1.651-.508 2.35.826-.572 1.714-.73 2.699-.445.984.254 1.968.89 2.889 1.937 1.524 1.683 2.285 3.238 2.285 4.636 0 1.429-.73 2.825-2.222 4.159zM74.613 365.181l2.508-2.254-7.24-5.492zm1.492 10.16-10.7-19.018 3.968-3.587 17.844 12.605-3.175 2.857-4.382-3.27-3.366 3.048 2.795 4.667z" style="fill:#01619e;stroke-width:.551217" transform="matrix(3.88889 0 0 3.88889 0 -791.552)"/><path d="m168.422 268.416-18.201-19.93 5.01-4.55 25.863 28.685-5.472 4.896-25.632-13.306 18.259 19.987-5.011 4.493-25.862-28.685 5.529-4.953zM193.651 261.331l-5.357 4.781-25.805-28.685 5.357-4.781zM190.829 232.877l-4.263-17.741 5.933-5.357 3.514 18.374 22.809 9.793-5.875 5.299-15.84-7.2.921 4.838 7.834 8.698-5.184 4.723-25.863-28.627 5.243-4.723z" style="fill:#01619e" transform="scale(2.14362)"/><path d="M125.063 315.874c2.318 2.604 3.97 4.127 4.858 4.508.921.413 1.778.222 2.604-.507.794-.73 1.08-1.556.762-2.477-.286-.92-1.62-2.699-4-5.334-2.35-2.635-4-4.127-4.89-4.54-.92-.413-1.778-.222-2.54.508-.826.73-1.08 1.556-.762 2.508.286.92 1.587 2.73 3.968 5.334zm-2.984 2.73c-1.524-1.683-2.635-3.112-3.397-4.254-.73-1.143-1.175-2.096-1.302-2.921-.159-1.143-.095-2.127.254-3.016.381-.89 1.08-1.778 2.127-2.73 1.016-.921 2-1.525 2.89-1.779.92-.285 1.905-.253 3.047.032.794.222 1.715.762 2.763 1.62 1.047.857 2.349 2.127 3.842 3.81 1.492 1.65 2.635 3.047 3.365 4.19.761 1.143 1.174 2.128 1.333 2.953.19 1.143.095 2.16-.254 3.016-.38.89-1.08 1.81-2.096 2.73-1.048.953-2.032 1.556-2.952 1.81-.92.255-1.905.255-3.016-.063-.794-.19-1.715-.73-2.794-1.587-1.048-.858-2.35-2.16-3.81-3.81zM137.478 308.476l2.92-2.667.921 1.016c.89.985 1.588 1.524 2.16 1.683.571.127 1.143-.095 1.746-.604.603-.571.953-1.174.984-1.778.032-.603-.222-1.206-.762-1.81-.444-.476-.92-.793-1.428-.92-.54-.127-1.43-.127-2.667 0l-2.445.286c-2.127.285-3.62.285-4.509 0-.889-.255-1.715-.826-2.54-1.747-1.174-1.302-1.714-2.698-1.62-4.16.096-1.46.858-2.825 2.255-4.063 1.46-1.334 2.92-1.937 4.445-1.842 1.492.095 2.92.89 4.254 2.413.159.127.254.254.318.35.063.063.126.158.19.221l-2.794 2.508-.38-.412c-.763-.858-1.461-1.334-2.065-1.46-.635-.127-1.27.126-1.905.698-.476.413-.698.889-.73 1.429-.032.508.19 1.016.635 1.492.603.667 1.873.857 3.81.572h.032l2.604-.35c1.873-.285 3.302-.253 4.317.032 1.017.318 2 1.017 2.953 2.064 1.301 1.429 1.905 2.921 1.778 4.445-.127 1.524-.953 2.952-2.477 4.318-1.587 1.429-3.143 2.095-4.667 1.968-1.493-.127-3.017-1.016-4.54-2.699-.16-.19-.413-.476-.762-.92z" style="fill:#01619e;stroke-width:.551217" transform="matrix(3.88889 0 0 3.88889 0 -791.552)"/><path d="m254.246 152.064 17.626-15.897 4.262 4.78-6.163 5.53 21.6 23.961-5.357 4.781-21.6-23.962-6.105 5.53z" style="fill:#01619e" transform="scale(2.14362)"/><path d="m161.576 279.996 1.683-1.524c.858-.762 1.302-1.46 1.333-2.127.032-.635-.35-1.397-1.143-2.286-.73-.762-1.397-1.174-2.032-1.143-.667 0-1.46.445-2.413 1.301l-1.46 1.302zm5.366 11.684-14.225-15.812 5.271-4.73c1.588-1.461 3.048-2.16 4.318-2.16 1.302.032 2.604.762 3.906 2.223.92 1.047 1.46 2 1.62 2.952.158.92-.064 1.778-.731 2.54 1.746-.89 3.524-.381 5.397 1.555.064.096.127.16.191.223l1.968 2.031c.54.54 1.048.953 1.493 1.207.444.254.92.38 1.428.413l-3.492 3.143a8.597 8.597 0 0 1-1.048-.762c-.35-.317-.826-.826-1.429-1.46l-1.555-1.62-.381-.412c-.826-.921-1.587-1.366-2.286-1.366-.699 0-1.62.54-2.826 1.62l-1.016.92 6.255 6.954zM177.61 270.407l2.508-2.254-7.239-5.492zm1.492 10.16-10.7-19.018 3.969-3.556 17.812 12.574-3.144 2.857-4.381-3.27-3.397 3.047 2.825 4.668z" style="fill:#01619e;stroke-width:.551217" transform="matrix(3.88889 0 0 3.88889 0 -791.552)"/><path d="m352.915 103.219-16.762-26.323 5.645-5.126 19.814 34.156-7.027 6.279-32.313-22.868 5.76-5.126Z" style="fill:#01619e" transform="scale(2.14362)"/><path d="m202.756 246.913 2.508-2.254-7.24-5.493zm1.492 10.16-10.7-19.018 3.97-3.556 17.844 12.573-3.175 2.857-4.382-3.27-3.365 3.048 2.794 4.667z" style="fill:#01619e;stroke-width:.551217" transform="matrix(3.88889 0 0 3.88889 0 -791.552)"/><path d="m166.118 218.938-5.76 6.624 1.44 9.446 3.974-3.917z" style="fill:#01619e" transform="scale(2.14362)"/></svg>