<svg xmlns="http://www.w3.org/2000/svg" xml:space="preserve" width="528.75568" height="528.75732" viewBox="0 0 528.75565 528.75732"><defs><clipPath id="a" clipPathUnits="userSpaceOnUse"><path d="M0 600h800V0H0Z"/></clipPath></defs><g clip-path="url(#a)" transform="matrix(1.63794 0 0 -1.63794 -390.798 755.762)"><path d="M0 0c10.76 0 21.289-1.061 31.488-3.083a160.392 160.392 0 0 0 30.203-9.161 161.417 161.417 0 0 0 27.931-14.937 161.929 161.929 0 0 0 24.505-20.101 161.924 161.924 0 0 0 20.102-24.505 161.485 161.485 0 0 0 14.937-27.931c4-9.66 7.09-19.763 9.16-30.203a161.65 161.65 0 0 0 3.082-31.488 161.64 161.64 0 0 0-3.082-31.487 160.556 160.556 0 0 0-9.16-30.205 161.503 161.503 0 0 0-14.937-27.929 161.844 161.844 0 0 0-20.102-24.506 161.935 161.935 0 0 0-24.505-20.102 161.344 161.344 0 0 0-27.931-14.936 160.392 160.392 0 0 0-30.203-9.161A161.72 161.72 0 0 0 0-322.818c-10.759 0-21.289 1.06-31.488 3.083a160.392 160.392 0 0 0-30.203 9.161 161.38 161.38 0 0 0-27.931 14.936 161.935 161.935 0 0 0-24.505 20.102 161.677 161.677 0 0 0-35.047 52.422c-7.884 19.029-12.235 39.872-12.235 61.705 0 10.76 1.06 21.288 3.083 31.488a160.392 160.392 0 0 0 9.161 30.203 161.984 161.984 0 0 0 35.038 52.436 161.929 161.929 0 0 0 24.505 20.101 161.453 161.453 0 0 0 27.931 14.937 160.392 160.392 0 0 0 30.203 9.161A161.805 161.805 0 0 0 0 0" style="fill:#000;fill-opacity:1;fill-rule:nonzero;stroke:none" transform="translate(400 461.41)"/><path d="M0 0c21.299 0 41.632-4.245 60.195-11.936a157.723 157.723 0 0 0 51.141-34.19 157.72 157.72 0 0 0 34.189-51.141c7.692-18.563 11.936-38.895 11.936-60.195 0-21.299-4.244-41.631-11.936-60.195a157.72 157.72 0 0 0-34.189-51.141 157.723 157.723 0 0 0-51.141-34.19C41.632-310.679 21.299-314.924 0-314.924s-41.631 4.245-60.195 11.936a157.723 157.723 0 0 0-51.141 34.19c-28.497 28.496-46.125 67.862-46.125 111.336 0 21.3 4.245 41.632 11.935 60.195a157.74 157.74 0 0 0 34.19 51.141 157.723 157.723 0 0 0 51.141 34.19C-41.632-4.245-21.299 0 0 0" style="fill:#fff;fill-opacity:1;fill-rule:nonzero;stroke:none" transform="translate(400 457.462)"/><path d="M0 0c42.385 0 80.764-17.187 108.545-44.969 27.783-27.783 44.971-66.161 44.971-108.546 0-42.383-17.188-80.762-44.971-108.546C80.764-289.843 42.385-307.029 0-307.029c-42.384 0-80.763 17.186-108.545 44.968-27.783 27.784-44.969 66.163-44.969 108.546 0 42.385 17.186 80.763 44.969 108.546C-80.763-17.187-42.384 0 0 0" style="fill:#000;fill-opacity:1;fill-rule:nonzero;stroke:none" transform="translate(400 453.515)"/><path d="M0 0c81.281 0 147.199-65.916 147.199-147.198 0-81.281-65.918-147.199-147.199-147.199-81.282 0-147.198 65.918-147.198 147.199C-147.198-65.916-81.282 0 0 0" style="fill:#fff;fill-opacity:1;fill-rule:nonzero;stroke:none" transform="translate(400 447.198)"/><path d="M0 0c-.245-.82-.856-1.573-1.835-2.259l-1.546-1.082-3.255 4.649c.114.13.303.306.569.53.266.224.639.504 1.121.841.91.636 1.756.935 2.538.897.783-.039 1.444-.444 1.983-1.215C.103 1.607.245.82 0 0m10.476-4.817c-.431.36-.884.742-1.359 1.145A91.09 91.09 0 0 1 7.688-2.48c-.774.63-1.53 1.087-2.266 1.371a3.693 3.693 0 0 1-2.252.146l-.053.075c.284.399.522.846.713 1.341.19.495.308 1.022.354 1.578.045.556 0 1.123-.137 1.702a4.801 4.801 0 0 1-.767 1.672C2.201 6.946.833 7.749-.824 7.812c-.958.052-1.97-.138-3.036-.572-1.066-.434-2.242-1.102-3.531-2.004a48.693 48.693 0 0 1-2.866-2.157 26.475 26.475 0 0 1-2.099-1.882L-.673-15.488l3.89 2.723-4.663 6.66 1.16.811c.412.289.798.497 1.157.624a2.28 2.28 0 0 0 1.093.11c.37-.053.757-.194 1.161-.423.403-.229.853-.57 1.349-1.022.979-.888 1.803-1.59 2.473-2.106.67-.518 1.161-.855 1.474-1.01l4.019 2.814a6.123 6.123 0 0 0-.811.556c-.337.263-.722.574-1.153.934" style="fill:#000;fill-opacity:1;fill-rule:nonzero;stroke:none" transform="translate(322.813 408.202)"/><path d="m0 0 5.608-12.271 3.488 1.594-3.621 7.923L9.938-.713l3.244-7.094 3.459 1.581L13.398.868l3.906 1.785 3.438-7.522 3.488 1.594-5.426 11.871z" style="fill:#000;fill-opacity:1;fill-rule:nonzero;stroke:none" transform="translate(508.435 352.894)"/><path d="m0 0 3.169-3.31-4.175-2.127-.843 4.495c-.12.604-.275 1.265-.464 1.984a94.64 94.64 0 0 0-.506 1.997l.084.043c.419-.452.872-.962 1.36-1.527A80.13 80.13 0 0 1 0 0m-6.985 4.842 3.614-21.364 4.428 2.255-1.093 5.4L5.4-6.097l3.867-3.986 4.596 2.342L-1.409 7.683z" style="fill:#000;fill-opacity:1;fill-rule:nonzero;stroke:none" transform="translate(339.93 419.47)"/><path d="m0 0 5.737-5.541L.253-11.22l-5.737 5.541-3.321-3.439L6.068-23.48l3.321 3.438-6.201 5.988 5.484 5.679 6.201-5.988 3.321 3.438L3.321 3.438Z" style="fill:#000;fill-opacity:1;fill-rule:nonzero;stroke:none" transform="translate(300.975 400.912)"/><path d="m0 0-8.875-2.57a120.099 120.099 0 0 1-3.576-1.117 83.34 83.34 0 0 1-3.585-1.272l-.052.079a52.615 52.615 0 0 1 2.647 2.764c.824.926 1.66 1.88 2.509 2.86l5.907 6.943-2.873 4.396-13.59-16.999 3.062-4.686L2.787-4.265z" style="fill:#000;fill-opacity:1;fill-rule:nonzero;stroke:none" transform="translate(522.66 370.58)"/><path d="m0 0-4.401 2.439L-8.541.42l3.355-1.86Z" style="fill:#000;fill-opacity:1;fill-rule:nonzero;stroke:none" transform="translate(479.904 423.148)"/><path d="M0 0a13.254 13.254 0 0 0-1.045-1.946C-2.21-3.74-3.621-4.806-5.278-5.142c-1.657-.337-3.351.058-5.084 1.183-.961.624-1.707 1.314-2.239 2.072-.532.759-.868 1.546-1.008 2.363a6.032 6.032 0 0 0 .097 2.486 7.92 7.92 0 0 0 1.078 2.449c.48.739.964 1.344 1.452 1.815.489.469.95.851 1.384 1.144l-2.565 2.866c-.4-.24-.927-.685-1.581-1.336-.654-.65-1.323-1.503-2.008-2.558-.88-1.355-1.5-2.751-1.862-4.191-.363-1.44-.44-2.845-.234-4.217.207-1.372.715-2.683 1.524-3.934.81-1.251 1.952-2.355 3.427-3.313 1.235-.801 2.512-1.35 3.833-1.645a8.987 8.987 0 0 1 3.892-.033c1.274.272 2.514.848 3.72 1.727 1.205.88 2.304 2.085 3.298 3.615.696 1.073 1.223 2.062 1.579 2.968.357.906.564 1.591.621 2.053L.582 1.797C.491 1.281.297.683 0 0" style="fill:#000;fill-opacity:1;fill-rule:nonzero;stroke:none" transform="translate(296.707 369.652)"/><path d="m0 0-2.332 4.458-4.568.591 1.779-3.4Z" style="fill:#000;fill-opacity:1;fill-rule:nonzero;stroke:none" transform="translate(537.248 352.866)"/><path d="M0 0a89.995 89.995 0 0 1-.553-2l-1.043-4.461-4.061 2.337 3.305 3.159c.442.431.911.922 1.41 1.472.499.552.963 1.056 1.397 1.514l.082-.046A56.905 56.905 0 0 0 0 0m-.309 6.496-15.927-14.69 4.306-2.479L-8-6.81l5.287-3.043-1.228-5.416 4.47-2.572L5.117 3.374z" style="fill:#000;fill-opacity:1;fill-rule:nonzero;stroke:none" transform="translate(470.055 416.463)"/><path d="m0 0-3.532 1.412-2.827-7.066-4.386 1.755 3.026 7.563-3.561 1.424-4.802-12.001 19.198-7.681 1.775 4.439-7.718 3.088z" style="fill:#000;fill-opacity:1;fill-rule:nonzero;stroke:none" transform="translate(283.47 355.685)"/><path d="m0 0-5.762 1.326-6.199-5.624-.984-.906a15.895 15.895 0 0 1-.967-.974l-.061.014 2.051 8.908-4.628 1.066-4.639-20.149 4.628-1.065 1.514 6.577 2.236 1.72 3.084-9.871 5.426-1.249-4.509 13.22z" style="fill:#000;fill-opacity:1;fill-rule:nonzero;stroke:none" transform="translate(440.438 435.812)"/><path d="M0 0c-.817-.256-1.784-.17-2.899.259l-1.762.676 2.034 5.298c.17-.022.424-.081.758-.175.334-.096.775-.248 1.322-.459 1.038-.399 1.76-.933 2.164-1.603.406-.671.44-1.445.104-2.323C1.391.814.816.256 0 0m2.518-2.921a5.692 5.692 0 0 1 1.505.588c.487.273.932.628 1.334 1.065.405.437.723.96.957 1.571.674 1.757.575 3.34-.299 4.749-.492.824-1.216 1.556-2.171 2.197-.955.641-2.168 1.242-3.636 1.806a48.57 48.57 0 0 1-3.392 1.171 26.678 26.678 0 0 1-2.734.688l-7.299-19.017 4.434-1.702 2.913 7.589 1.321-.507c.469-.18.858-.383 1.164-.611.305-.227.539-.508.702-.845.163-.336.263-.736.298-1.198.035-.463.005-1.026-.092-1.69-.188-1.308-.309-2.384-.364-3.228-.054-.845-.058-1.44-.013-1.787l4.583-1.758c-.026.229-.024.556.006.984.029.426.072.919.129 1.478.058.559.12 1.148.191 1.767.068.619.132 1.236.187 1.85.09.994.047 1.877-.13 2.646A3.687 3.687 0 0 1 .974-3.167l.032.086c.49-.013.994.041 1.512.16" style="fill:#000;fill-opacity:1;fill-rule:nonzero;stroke:none" transform="translate(451.045 422.848)"/><path d="m0 0-3.662 3.073-13.291-15.839 10.119-8.491 2.523 3.009-6.457 5.418z" style="fill:#000;fill-opacity:1;fill-rule:nonzero;stroke:none" transform="translate(489.426 409.433)"/><path d="M0 0c-.176-.745-.498-1.483-.966-2.213a10.415 10.415 0 0 0-1.719-2.029c-.753-.692-1.519-1.24-2.299-1.645-.782-.405-1.551-.664-2.309-.777a4.59 4.59 0 0 0-2.158.173c-.682.227-1.3.642-1.854 1.244l-.021.023c-.539.586-.894 1.237-1.063 1.95a4.866 4.866 0 0 0-.012 2.188c.161.746.471 1.488.932 2.226a10.309 10.309 0 0 0 1.776 2.103 10.316 10.316 0 0 0 2.232 1.583c.781.404 1.555.659 2.318.765a5 5 0 0 0 2.204-.175c.704-.222 1.332-.633 1.886-1.235.554-.602.91-1.263 1.074-1.983A4.845 4.845 0 0 0 0 0m3.39-4.638A9.737 9.737 0 0 1 4.53-.961c.126 1.269-.031 2.549-.469 3.842-.438 1.291-1.21 2.539-2.318 3.743C.693 7.766-.465 8.617-1.73 9.177a9.73 9.73 0 0 1-3.874.859c-1.318.013-2.629-.245-3.934-.776-1.304-.53-2.528-1.322-3.673-2.373-1.084-.997-1.943-2.094-2.579-3.291-.636-1.198-1.013-2.434-1.131-3.71a9.149 9.149 0 0 1 .47-3.82c.431-1.269 1.18-2.483 2.244-3.64l.021-.024c1.051-1.141 2.186-2.013 3.406-2.615a9.028 9.028 0 0 1 3.795-.954c1.309-.034 2.631.22 3.965.764C-1.686-9.86-.393-9.015.856-7.865A12.274 12.274 0 0 1 3.39-4.638" style="fill:#000;fill-opacity:1;fill-rule:nonzero;stroke:none" transform="translate(504.154 387.472)"/><path d="M0 0a6.05 6.05 0 0 0 2.16 1.236c.822.272 1.707.4 2.65.383.881-.015 1.649-.105 2.307-.27A10.476 10.476 0 0 0 8.821.782l1.071 3.694c-.416.212-1.072.422-1.971.632-.898.21-1.976.326-3.234.348-1.613.028-3.127-.185-4.541-.642C-1.266 4.358-2.5 3.68-3.553 2.777-4.607 1.875-5.45.75-6.082-.599c-.631-1.35-.962-2.904-.993-4.662-.026-1.472.186-2.846.636-4.123a9 9 0 0 1 2.034-3.318c.906-.936 2.051-1.683 3.436-2.238 1.385-.556 2.99-.85 4.814-.882 1.278-.023 2.397.055 3.354.233.957.178 1.646.365 2.07.562l-.628 3.693c-.485-.196-1.097-.35-1.833-.459-.735-.11-1.47-.159-2.204-.145-2.138.037-3.788.668-4.953 1.896-1.163 1.227-1.727 2.873-1.69 4.938.019 1.145.21 2.145.571 2.998C-1.107-1.254-.618-.552 0 0" style="fill:#000;fill-opacity:1;fill-rule:nonzero;stroke:none" transform="translate(400.493 436.006)"/><path d="M0 0c-.096-.979-.371-1.836-.825-2.571-.454-.737-1.074-1.358-1.861-1.865-.787-.507-1.707-.902-2.76-1.184a24.568 24.568 0 0 0-.87-.217 5.12 5.12 0 0 0-.764-.126l-3.501 13.067c.191.094.455.208.788.339.334.132.754.266 1.26.402 2.026.542 3.758.434 5.199-.323 1.439-.757 2.44-2.183 3.001-4.277C-.015 2.06.096.979 0 0m2.377 8.989a8.402 8.402 0 0 1-3.338 2.314c-1.163.45-2.46.675-3.892.672-1.432-.002-3.13-.267-5.095-.793a54.27 54.27 0 0 1-3.314-1 25.597 25.597 0 0 1-2.795-1.114l5.248-19.587a33.97 33.97 0 0 1 2.198.367c.877.172 1.923.42 3.138.746 2.025.542 3.782 1.235 5.271 2.079 1.489.844 2.661 1.856 3.516 3.038.75 1.091 1.267 2.383 1.55 3.877.283 1.495.168 3.2-.345 5.116-.482 1.798-1.196 3.227-2.142 4.285" style="fill:#000;fill-opacity:1;fill-rule:nonzero;stroke:none" transform="translate(367.136 423.835)"/><path d="m0 0-.599 4.871 7.742.951-.464 3.776-7.741-.951-.523 4.262 8.21 1.009-.468 3.806-12.955-1.59 2.52-20.523L9.114-2.744l-.467 3.806z" style="fill:#000;fill-opacity:1;fill-rule:nonzero;stroke:none" transform="translate(381.716 423.268)"/><path d="M0 0c-.605 2.1-1.726 3.63-3.36 4.59-1.629.956-3.35 1.178-5.154.662-.948-.271-1.807-.762-2.585-1.477l-.404 3.798 7.674 2.19-1.099 3.814-10.758-3.069 1.105-11.666 3.439.461c.631 1.301 1.529 2.119 2.696 2.452.933.266 1.789.156 2.56-.331C-5.11.938-4.536.04-4.161-1.262c.402-1.392.406-2.522.017-3.384-.388-.857-1.01-1.409-1.86-1.651-.741-.212-1.475-.132-2.199.246-.722.373-1.278 1.002-1.656 1.886l-3.932-1.572c.751-1.716 1.9-2.921 3.44-3.623 1.539-.703 3.287-.773 5.248-.213 2.452.7 4.094 2.181 4.936 4.454C.45-3.458.503-1.748 0 0" style="fill:#000;fill-opacity:1;fill-rule:nonzero;stroke:none" transform="translate(442.938 172.575)"/><path d="M0 0c-.109-1.234-.469-2.148-1.083-2.737-.61-.589-1.324-.846-2.133-.776-.84.073-1.512.465-2.012 1.175-.5.706-.689 1.771-.564 3.183.124 1.396.468 2.379 1.04 2.946.566.567 1.244.817 2.022.749.819-.07 1.513-.505 2.072-1.309C-.099 2.433.121 1.356 0 0m-2.227 8.005c-2.048.178-3.799-.359-5.24-1.601-1.447-1.247-2.271-2.978-2.468-5.201-.189-2.131.288-3.914 1.425-5.353 1.137-1.434 2.573-2.231 4.304-2.381 1.588-.137 2.968.36 4.138 1.497C-.46-7.532-.996-9.15-1.681-9.893c-.679-.742-1.452-1.077-2.322-1.001-.692.06-1.227.307-1.612.741-.385.433-.592 1.068-.621 1.902l-4.121-.096c.142-1.836.702-3.255 1.682-4.258.979-1.005 2.326-1.579 4.047-1.727 2.391-.208 4.411.512 6.058 2.151 1.647 1.646 2.65 4.466 3.005 8.474.348 3.931-.12 6.816-1.395 8.657C1.757 6.793.005 7.813-2.227 8.005" style="fill:#000;fill-opacity:1;fill-rule:nonzero;stroke:none" transform="translate(390.785 172.836)"/><path d="M0 0c-1.525-.616-2.871-.946-4.028-.991l-1.066-3.708c2.207.089 4.253.621 6.143 1.595L-3.38-18.506l4.067-1.162L6.842 1.739l-3.3.945C2.708 1.515 1.526.622 0 0" style="fill:#000;fill-opacity:1;fill-rule:nonzero;stroke:none" transform="translate(364.832 181.995)"/><path d="M0 0c-.146-.86-.407-1.472-.778-1.829a2.095 2.095 0 0 0-1.324-.611 2.136 2.136 0 0 0-1.4.363c-.423.289-.807.901-1.152 1.848-.342.942-.631 2.705-.858 5.289-.228 2.584-.242 4.432-.051 5.549.147.861.408 1.472.778 1.835.371.358.812.562 1.319.606a2.11 2.11 0 0 0 1.405-.369c.424-.293.808-.911 1.155-1.853.341-.947.631-2.709.857-5.293C.179 2.95.191 1.106 0 0m1.426 14.699c-1.333 1.419-3.065 2.038-5.199 1.853-2.131-.186-3.723-1.084-4.78-2.689-1.279-1.945-1.738-4.993-1.373-9.141.371-4.225 1.285-7.106 2.742-8.638 1.455-1.537 3.254-2.207 5.389-2.022 2.136.186 3.729 1.079 4.785 2.684 1.278 1.951 1.737 5.008 1.37 9.172-.368 4.179-1.348 7.106-2.934 8.781" style="fill:#000;fill-opacity:1;fill-rule:nonzero;stroke:none" transform="translate(414.416 164.27)"/><path d="M0 0a7.413 7.413 0 1 0-.001-14.825A7.413 7.413 0 0 0 0 0" style="fill:#000;fill-opacity:1;fill-rule:nonzero;stroke:none" transform="translate(268.245 300.861)"/><path d="M0 0a7.412 7.412 0 1 0 0-14.824A7.412 7.412 0 0 0 0 0" style="fill:#000;fill-opacity:1;fill-rule:nonzero;stroke:none" transform="translate(531.752 300.838)"/><path d="M0 0c.004 7.787-2.181 14.292-5.141 19.516a43.244 43.244 0 0 1-5.119 7.173c.061 1.516.099 3.037.099 4.566 0 15.6-3.114 30.505-8.755 44.123a115.652 115.652 0 0 1-62.561 62.56c-13.619 5.642-28.522 8.755-44.123 8.755-15.6 0-30.504-3.113-44.122-8.755a115.678 115.678 0 0 1-37.501-25.06 115.655 115.655 0 0 1-25.059-37.5c-5.642-13.618-8.756-28.523-8.756-44.123 0-15.601 3.114-30.504 8.756-44.123a115.665 115.665 0 0 1 25.059-37.5 115.662 115.662 0 0 1 37.501-25.06c13.618-5.641 28.522-8.756 44.122-8.756 31.871 0 60.731 12.924 81.623 33.816a115.638 115.638 0 0 1 7.204 7.912c9.708 1.212 17.988 5.674 24.22 12.014C-4.612-22.367-.008-11.248 0 0" style="fill:#000;fill-opacity:1;fill-rule:nonzero;stroke:none" transform="translate(525.6 268.745)"/><path d="M0 0c-10.354-10.526-22.881-18.909-36.854-24.421v42.528l-20.587-6.249v-42.072a107.12 107.12 0 0 0-18.43-1.59c-6.283 0-12.439.544-18.423 1.589v41.453l-20.589 6.411v-42.073A106.585 106.585 0 0 0-151.735-.006v37.647c-1.751.78-3.203 1.613-4.298 2.495l-3.403 2.739 4.101 1.516c1.202.445 2.402.907 3.6 1.383v8.335c-4.366 1.489-8.636 2.672-12.454 3.726l-2.034.563-3.34.931V24.118c-8.116 15.025-12.724 32.222-12.724 50.493 0 18.272 4.608 35.469 12.724 50.494V61.603l2.923 1.409c2.684 1.293 5.653 2.299 8.952 2.971 1.571.321 3.217.565 4.943.726-4.055 4.29-6.699 8.126-8.316 11.635-2.214 4.805-2.547 9.007-1.916 12.906l-.004.001c.13.866.271 1.584.401 2.154.095.41.189.757.276 1.039l-2.904-.315-3.712-.403 1.086 3.583c1.138 3.757 3.373 7.402 6.689 10.982 1.842 1.987 4.018 3.957 6.525 5.918-.127-.01-.253-.021-.379-.033l-6.331.046 4.383 4.199c1.379 1.32 3.144 2.598 5.212 3.8v27.008c10.354 10.526 22.88 18.908 36.852 24.417v-24.47c.907-.227 1.805-.69 2.628-1.339.264.486.562.925.903 1.321.903 1.052 1.986 1.73 3.356 2.106-.059.956-.065 1.894.032 2.817.207 1.975.863 3.75 2.37 5.21.77.747 1.56 1.484 2.689 2.103 1.173.64 2.578 1.063 4.437 1.065a10.34 10.34 0 0 0 2.48-.289 7.196 7.196 0 0 0 1.694-.651v17.919a107.13 107.13 0 0 0 18.423 1.589c6.285 0 12.443-.545 18.43-1.59v-57.233l1.572-3.793-1.572.15v-.683c2.685-.621 5.121-1.418 7.306-2.387 3.806-1.687 6.893-3.888 9.297-6.556l1.68-1.864-1.893-1.654-2.676-2.338c.581-2.044.536-3.981-.105-5.827-.285-.817-.684-1.6-1.193-2.348a8.614 8.614 0 0 1 1.964.325c1.971.565 3.851 1.869 5.632 3.944l.575.671v73.8c13.973-5.511 26.5-13.894 36.854-24.421v-47.591c5.135-1.35 10.088-3.35 13.865-4.879 1.106-.447 2.106-.852 2.98-1.186l.704-.269.279-.396v30.191c6.817-12.622 11.143-26.78 12.356-41.816.685-1.71 1.031-3.656 1.029-5.844a40.547 40.547 0 0 0 3.161-2.405c-.112 30.275-12.429 57.677-32.29 77.538-19.953 19.953-47.516 32.295-77.955 32.295s-58.002-12.342-77.955-32.295c-19.953-19.953-32.295-47.515-32.295-77.955 0-30.439 12.342-58.002 32.295-77.955 19.953-19.952 47.516-32.295 77.955-32.295S-17.869-23.296 2.084-3.344A112.893 112.893 0 0 1 5.84.604 39.338 39.338 0 0 0 0 1.323Z" style="fill:#fff;fill-opacity:1;fill-rule:nonzero;stroke:none" transform="translate(475.871 225.389)"/><path d="M0 0c.465 7.028-2.691 11.202-9.471 12.521l-3.258 4.616c-5.614 2.146-16.755 7.327-25.849 7.405-6.289.053-12.99-3.661-24.147-11.852l-1.515 8.759c-4.222-4.917-9.121-6.239-14.638-4.286 4.114 2.906 5.417 6.347 3.556 10.548l3.951 3.452c-4.287 4.757-11.053 7.904-20.58 9.125L-99 46.148l10.576-1.002c-1.078 2.601-6.002 6.287-13.822 10.791l5.624 17.53c-1.247 2.044-6.911 3.348-8.722 1.104-2.003-2.481-2.168-2.498-5.635-2.473-2.096.015-2.569-1.658-3.172-2.92-.486-1.019-1.169-1.81-1.994-.934-1.436 1.525 1.186 5.559-4.721 6.179.204 3.174-.974 7.134-3.009 8.628-.686.503-1.961.824-3.284.822-2.773-.003-4.106-1.214-5.402-2.47-2.059-1.996-1.815-5.051-1.441-8.366-3.914-.131-5.173-1.901-6.027-6.72-.921 2.461-2.917 4.301-4.614 4.417-1.768.121-2.73.055-3.491.487-2.079 1.179-3.021 1.673-5.84 1.347-1.602-.184-2.75-1.791-4.548-3.782 4.006-4.938 6.434-10.475 7.552-16.509-13.728-1.427-27.227-6.268-32.953-11.754 2.752.269 5.315-.024 8.087-.15-10.123-6.591-16.268-13.106-18.325-19.896l5.165.561c1.235.077 1.365-.309 1.365-1.44 0-.966-.494-.843-.841-1.554-.111-.231-.442-1.223-.748-3.266-1.132-6.922 1.185-14.968 13.571-26.422-7.505.075-13.59-1.271-18.606-3.687 5.311-1.481 11.695-3.15 18.118-5.577 1.569-.593 8.115-3.378 8.077-5.525l1.395-.262c-5.394-2.919-10.916-5.286-16.509-7.355 3.387-2.726 10.969-5.069 21.413-6.738l-9.284-3.145c7.853-3.974 16.877-5.911 28.433-6.084l-7.618-3.781 44.445-13.841 49.791 15.114c6.203-11.023 19.904-20.55 34.918-20.55 23.596 0 39.629 19.946 39.64 40.317C18.576-13.404 4.154-2.491 0 0" style="fill:#fff;fill-opacity:1;fill-rule:nonzero;stroke:none" transform="translate(504.563 301.503)"/><path d="M0 0c-.636-1.91-2.238-4.267-3.849-6.86-1.76-2.836-3.558-3.349-6.704-4.397-6.932-2.311-13.145-4.892-19.35-6.594-5.086-1.393-14.295-4.094-17.457-4.242-.076-.278-.198-.568-.483-1.216L-83.85-10.378c2.088 1.028 5.713 2.829 6.065 3.498.505.964-6.608.701-8.088.825-9.305.779-14.032 1.482-20.889 4.267 11.793.689 19.297 2.187 20.534 4.867-16.564-.513-26.221.29-31.446 2.678 3.79.545 4.564 1.472 5.054 1.852 2.785 2.164 3.816 2.946 6.308 6.027.948 1.172 1.52 1.813 1.874 2.881.813 2.449-4.544 4.166-4.942 4.312-5.839 2.166-14.271 2.669-16.416 3.926 2.289 1.579 21.394 1.9 25.474 1.908-7.494 3.928-10.905 8.454-10.931 13.478l-3.593-6.853c-3.398 1.002-13.217 6.941-13.214 19.649.002 8.655 2.911 10.554 9.918 13.709 3.204 1.441 6.301 2.316 8.368 3.257 2.765 1.259 2.627 2.357-.656 2.319-6.869-.078-14.862-3.536-19.186-5.614 1.63 7.407 6.828 9.585 12.934 12.036 2.358.946 7.66 2.112 8.274 2.339 1.827.676-.024 1.063-1.575 1.227-3.563.375-4.654.229-10.93.009 4.835 4.588 16.54 7.332 35.116 8.235l-10.857 2.077 5.261 1.085a177.286 177.286 0 0 1-6.739 15.257c1.033 1.127 1.8 2.155 4.1 2.098 2.212-.057 2.732-.623 3.743-2.698.891 1.109 1.602 1.948 2.695 1.948 2.164 0 3.305-2.862 3.325-4.152.03-1.939-1.997-4.515-4.279-2.475.824-3.627 10.319-3.198 13.139-.339-3.037.356-5.14 1.106-5.105 4.766.024 2.446 2.1 4.602 4.9 3.51.105 1.775-.854 9.568 4.661 9.567 4.497 0 5.32-4.564 4.922-9.08 2.12 1.202 6.038-.005 5.879-3.633-.098-2.213-1.732-4.232-4.134-4.03 3.535-2.951 7.308-2.99 11.343.169-2.192-.032-2.992 1.926-2.84 3.795.137 1.703 1.064 3.331 2.447 3.318 1.853-.019 1.224-1.364 2.374-1.342 1.038.018 1.279 1.319 1.946 2.377.51.81 2.212 1.926 6.915-.422a461.71 461.71 0 0 1-6.559-17.753c5.387-1.426 9.03-3.669 11.23-6.589-6.898 2.544-10.78 1.639-12.876.534-1.908-1.004-3.079-4.715-.263-6.204 2.756.918 7.705 2.184 9.34 1.272 5.101-2.844-.561-5.961-4.231-9.191l6.383-4.38-.019 7.058c1.15.179 3.374.613 5.423.625 7.391.046 12.236-4.065 13.97-5.55-.443-.446-1.622-1.754-2.003-2.611-.562-1.265.127-2.345.221-3.973.173-3.023.599-3.21-3.048-6.765-.54 2.182-3.586 4.061-5.513 4.05-1.703-.008-2.578-.388-3.732-1.219-3.275-2.358-6.045-6.56-6.047-9.573-.002-3.307 1.94-4.906 5.69-7.048 4.063-2.323 8.743.918 10.183 3.892 3.116-3.136-1.635-15.046-5.541-13.178-1.707.818-4.403 2.063-7.658 2.041-2.172-.015-2.442-1.012-4.547-.957-3.543.094-6.576 2.209-7.056 6.049-3.278-3.744.076-9.021 3.126-11.399 3.996-3.114 9.252-4.294 14.5-5.874 3.434-1.034 6.748-2.379 10.227-3.879 1.386 2.291 1.606 2.645 3.275 4.886.861 1.156-1.558-.337-2.994-.618 1.76 1.409 3.781 2.87 5.746 4.308-2.553-.366-7.66-1.406-8.273-1.572-9.699-2.63-3.704 2.877.392 6.717 7.605 7.129 20.223 15.904 29.283 21.447 3.928 2.402 6.633 3.086 7.864 2.965 11.607-1.14 26.798-4.561 29.768-8.274 3.199-.806 5.113-1.11 7.302-3.576 2.33-2.626 1.287-6.322-.262-7.312-.746 1.954-1.122 2.846-1.76 3.715-.842 1.15-2.293 1.19-3.107 1.04-2.529-.464-2.734-.416-3.803-3.992 16.182-3.127 29.035-17.42 29.035-34.339 0-7.417-2.337-14.18-6.46-19.928-2.944-4.107-6.478-7.774-10.985-10.438-5.665-3.349-12.648-5.191-19.474-5.191-14.598 0-26.688 9.013-32.321 21.211C1.241-4.975.495-2.567 0 0" style="fill:#000;fill-opacity:1;fill-rule:nonzero;stroke:none" transform="translate(447.616 260.706)"/><path d="M0 0c-1.164.979-3.996 1.517-8.744 2.921C-16.469 5.206-27.6 8.2-33.047 8.29c-1.728.028-3.068-.262-3.976-.703-6.262-3.046-25.186-13.912-32.057-22.25l11.426-.316c-2.464-6.302-7.573-12.052-13.485-16.687-14.172 5.958-27.082 9.738-31.877 15.322-4.428 5.156-2.329 12.479 2.432 18.311-9.515-5.18-14.98 1.096-14.998 5.051-.015 3.498 5.55 14.667 12.686 15.77-6.36 2.346-7.206 6.825-6.912 10.734.304 4.034 1.464 8.6 8.953 13.124l-13.315-.623-.777-7.438-5.327 6.807-11.648-.636 9.494-6.855c-10.459 1.448-20.554 1.331-30.318-.209 12.161-.72 22.368-2.247 29.736-4.846-8.044-1.512-16.497-.909-28.615-4.216 13.721.676 23.231-1.424 33.069-6.063-17.793 1.909-32.861-2.936-46.067-12.399 20.489 7.355 42.165 7.35 46.409-.993-13.14-3.913-19.257-15.646-14.573-24.402 4.63 6.86 10.951 9.65 18.767 8.841-2.595-2.203-3.752-4.545-3.873-6.838-.391-7.491 12.14-11.973 18.927-14.286 6.73-2.293 21.428-3.5 24.829-7.08l-7.297-6.811c-1.587-1.485-4.058.769-7.642 3.558-2.098 1.631-5.815 3.482-7.789 4.717-3.802 2.376-22.149 8.531-49.421 6.011-1.578-4.083-3.631-7.74-6.159-10.972 23.731-3.116 30.846-5.794 21.008-9.048 11.075 1.996 20.425-.334 20.974-2.327.506-1.838-4.499-4.874-13.147-8.462a21.837 21.837 0 0 1 4.565-.807c2.121-.153 4.762.211 7.247-1.032 3.889-1.946 8.519-2.856 12.722-2.912 9.281-.123 24.726 4.404 33.744 8.912 4.803 2.401 7.758 1.57 10.104 8.393.996 2.893 3.861 8.882 5.064 12.56 1.848 5.648.178 4.013 3.911 10.808 2.319 4.221 3.648 6.012 5.526 8.031l-3.484 3.652c7.344 1.012 9.457 1.311 13.917 2.021 2.394.382 4.458 1.408 4.686 2.449.465 2.132 1.113 3.403 5.331 1.164 1.714-.909 7.49-.639 10.224-.673C-7.343-.986-8.498.094-3.994.068-2.965.063-1.608.056 0 0" style="fill:#fff;fill-opacity:1;fill-rule:nonzero;stroke:none" transform="translate(497.096 308.169)"/><path d="M0 0a28.285 28.285 0 0 1 5.883-8.644l9.428 2.392c1.002 4.685 2.797 8.936 5.528 12.677-1.318 1.587-2.451 3.156-3.345 4.721-.673 1.179-1.208 2.354-1.579 3.531-3.737-.45-7.371-1.316-10.924-2.506A70.648 70.648 0 0 1 2.335 6.54 63.439 63.439 0 0 1 0 0" style="fill:#fff;fill-opacity:1;fill-rule:nonzero;stroke:none" transform="translate(455.806 272.153)"/><path d="M0 0c-1.841-1.867-3.732-3.43-5.65-4.674-1.896-1.228-3.813-2.145-5.73-2.738-.997-1.172-2.684-2.729-4.815-4.501C-7.883-10.438-.332-5.865 4.733.39A15.75 15.75 0 0 0 0 0" style="fill:#fff;fill-opacity:1;fill-rule:nonzero;stroke:none" transform="translate(504.299 246.37)"/><path d="M0 0c-3.19 1.308-6.413 2.205-9.667 2.691l-5.431-6.197c1.625-5.114 2.478-9.417 2.556-12.907l9.715-4.125c2.623 2.199 4.844 4.817 6.455 7.615a34.576 34.576 0 0 1-1.283 6.945A36.15 36.15 0 0 1 0 0" style="fill:#fff;fill-opacity:1;fill-rule:nonzero;stroke:none" transform="translate(508.071 280.438)"/><path d="M0 0c1.875 1.217 3.734 2.766 5.549 4.635a71.075 71.075 0 0 1 1.319 10.406l-9.756 4.142c-2.219-2.235-6.124-4.638-10.96-6.763a48.838 48.838 0 0 0-.496-5.238 40.203 40.203 0 0 0-1.1-5.066C-12.561.295-8.992-1.268-5.096-2.465-3.393-1.919-1.688-1.094 0 0" style="fill:#fff;fill-opacity:1;fill-rule:nonzero;stroke:none" transform="translate(497.668 243.204)"/><path d="M0 0a17.964 17.964 0 0 0-.365-3.529 37.988 37.988 0 0 0 2.459-6.278 36.388 36.388 0 0 0 1.33-7.075c.725-.818 1.464-1.864 2.216-3.087.029.606.043 1.216.043 1.832A31.7 31.7 0 0 1 0 0" style="fill:#fff;fill-opacity:1;fill-rule:nonzero;stroke:none" transform="translate(510.05 284.768)"/><path d="m0 0-9.392-2.383c-.993-3.147-1.682-6.778-2.113-10.821.987-1.415 2.307-2.837 3.919-4.268 1.742-1.547 3.827-3.099 6.204-4.658a124.432 124.432 0 0 1 10.289 3.721c.469 1.617.82 3.25 1.072 4.906.257 1.697.413 3.407.486 5.143C6.238-6.158 2.808-3.326 0 0" style="fill:#fff;fill-opacity:1;fill-rule:nonzero;stroke:none" transform="translate(471.563 264.156)"/><path d="M0 0a72.787 72.787 0 0 0 3.061 6.404 29.328 29.328 0 0 0-.469 3.214C-2.209 4.325-5.219-2.91-5.734-11.656v-.015c1.077 1.825 2.162 3.419 3.254 4.667A65.248 65.248 0 0 0 0 0" style="fill:#fff;fill-opacity:1;fill-rule:nonzero;stroke:none" transform="translate(456.477 279.385)"/><path d="M0 0a47.427 47.427 0 0 0 5.412-1.044c1.173.456 2.317.772 3.432.961a33.296 33.296 0 0 1-12.758 2.52c-2.08 0-4.098-.164-6.042-.484C-8.545 1.467-7.334.95-6.355.396A45.5 45.5 0 0 0 0 0" style="fill:#fff;fill-opacity:1;fill-rule:nonzero;stroke:none" transform="translate(486.768 296.464)"/><path d="M0 0c4.955.211 9.328-.219 13.205-1.196l5.229 5.967c-1.471 3.342-3.311 6.555-5.388 9.683a45.272 45.272 0 0 1-4.909.933 43.807 43.807 0 0 1-5.579.381c-2.978-1.785-5.48-4.266-7.66-7.217.331-1.206.864-2.424 1.569-3.657C-2.623 3.297-1.42 1.669 0 0" style="fill:#fff;fill-opacity:1;fill-rule:nonzero;stroke:none" transform="translate(478.398 279.294)"/><path d="M0 0c-1.557 1.381-2.863 2.768-3.895 4.16-1.675.361-3.72 1.651-5.955 3.511C-6.029-.338.865-6.798 9.422-9.712A24.637 24.637 0 0 0 7.295-5.39C4.482-3.596 2.028-1.8 0 0" style="fill:#fff;fill-opacity:1;fill-rule:nonzero;stroke:none" transform="translate(462.785 245.338)"/><path d="M0 0c1.995 4.323 8.536 6.398 13.574 4.695 5.646-1.908 9.547 1.695 11.557 3.626-.403-4.291-1.25-6.71-4.769-7.91-4.621-1.577-10.672.732-14.5.732C3.149 1.143 1.866.562 0 0" style="fill:#000;fill-opacity:1;fill-rule:nonzero;stroke:none" transform="translate(413.437 311.45)"/></g></svg>