<svg xmlns="http://www.w3.org/2000/svg" width="972.22223" height="972.22223" x="0px" y="0px" viewBox="0 0 972.22223 972.22223"><path fill="none" d="M-56.354-26.167h1057.878V985.66H-56.354z" style="fill:#214b6d;fill-opacity:0"/><path d="M486.111 972.222c267.688 0 486.111-218.423 486.111-486.11C972.222 218.423 753.8 0 486.112 0 218.421 0 0 218.424 0 486.111 0 753.8 218.421 972.222 486.111 972.222Z"/><path d="M198.425 73.685c66.981 0 121.917 53.323 124.639 119.7-8.215-1.26-15.624-2.52-20.865-3.931-14.465-3.881-28.526-8.921-42.588-11.189-3.579-.554-6.502-.605-8.417.05-3.024-3.83-7.812-7.207-12.348-8.87-2.873-1.059-6.552-3.528-9.777-4.99-3.578-1.663-6.955-3.578-11.895-2.621-2.873-4.184-5.998-5.947-8.114-7.207 2.016-1.008 4.183-2.772 5.695-4.587-10.937-7.358-14.011-26.258-16.329-40.723-2.318 14.465-5.393 33.365-16.33 40.723 1.512 1.865 3.226 3.428 5.241 4.284-12.701 1.966-17.337 9.375-25.653 14.768-4.586 2.974-10.08 5.241-15.574 7.61-15.523 6.653-31.45 10.13-47.527 14.565-2.167.605-12.802 1.865-24.796 3.074 2.166-66.829 57.303-120.656 124.638-120.656Z" style="fill:#0b89c6" transform="matrix(2.44985 0 0 2.44985 0 0)"/><path d="M385.409 205.078c-3.579 99.994-86.184 180.482-186.984 180.482-100.8 0-183.406-80.489-186.984-180.482h55.742c3.528 69.3 61.135 124.74 131.242 124.74 70.106 0 127.713-55.44 131.241-124.74zM198.425 11.29c103.068 0 187.135 84.067 187.135 187.135 0 1.764-.051 3.579-.101 5.393-11.138-1.058-21.571-4.485-32.508-6.098-7.358-1.109-15.423-2.218-23.184-3.326-2.167-70.561-60.329-127.362-131.342-127.362-71.215 0-129.528 57.154-131.343 128.017-11.793 1.159-23.587 2.217-28.929 2.57-2.722.202-3.024.453-5.292 1.562-1.562.857-3.276 1.26-7.812 1.966-3.327.504-3.427.554-10.987 1.613-.403.252-1.613.756-2.671 1.26-.05-1.865-.101-3.729-.101-5.594C11.29 95.357 95.356 11.29 198.425 11.29Z" style="fill:#fff" transform="matrix(2.44985 0 0 2.44985 0 0)"/><path d="m160.514 282.257-12.965-6.791-21.732 40.87-23.705-12.594 24.817-46.55-13.704-7.283L80.01 312.26l90.504 48.032 8.396-15.804-40.129-21.238zM224.225 170.762c-17.409-13.83-39.264-9.63-55.315 6.913-21.36 22.103-16.544 52.229 4.446 72.479 20.99 20.373 51.364 24.077 72.601 2.1 17.287-17.904 17.164-42.106.495-60.255l-12.1 12.595c9.753 11.483 12.223 25.927 1.113 37.412-15.187 15.804-35.56 9.013-49.637-4.694-14.199-13.582-21.732-33.708-6.42-49.512 10.37-10.742 21.732-10.125 32.35-4.196zM311.273 154.34c9.508 23.583 31.115 27.164 52.97 18.891 19.014-7.408 34.695-23.215 26.422-44.697-3.704-9.878-13.83-18.274-27.904-17.161-5.556.37-28.768 3.086-30.373 3.209-7.533.742-13.582-1.232-16.176-7.903-3.704-9.63 5.061-16.297 12.842-19.261 11.482-4.444 21.485-2.962 27.039 9.013l16.791-6.421c-7.656-20.003-28.521-24.077-48.4-16.421-17.285 6.543-31.487 22.347-24.201 41.485 3.829 9.878 12.472 17.904 30.498 16.052 14.444-1.36 23.83-2.965 31.485-2.965 4.444 0 9.63 1.36 12.47 8.768 2.715 7.161 0 16.547-14.694 22.1-13.335 5.187-26.424 3.582-32.103-11.112zM438.697 134.585l-6.049-86.678-17.906 1.235 7.161 102.112 69.64-4.817-1.11-15.431zM569.825 51.119c-30.25-5.31-52.476 15.434-57.662 44.327-5.062 28.769 8.765 55.933 39.016 61.364 30.25 5.309 52.476-15.557 57.662-44.328 5.064-28.89-8.765-56.055-39.016-61.363zm-2.595 14.444c21.608 3.704 27.29 24.447 23.955 43.71-3.457 19.386-15.804 36.92-37.412 33.09-21.607-3.829-27.288-24.447-23.954-43.833 3.457-19.385 15.804-36.794 37.411-32.967zM717.744 109.89l-60.131 60.254-.245-.122 13.952-83.839-16.67-8.518-16.053 106.801 17.781 9.016 77.665-75.318zM777.258 179.775l.248.247-18.768 42.72-22.843-21.36zm-93.221 28.893 13.46 12.595 25.559-13.212 29.88 27.906-11.482 26.3 14.077 13.089 40.993-101.742-13.952-12.965zM835.538 265.96l-41.858 78.033 9.383 16.424 88.655-51.241-8.52-14.817-65.316 37.782-.125-.248 41.98-78.28-9.507-16.299-88.653 51.116 8.518 14.817 65.195-37.657zM138.781 734.785l68.405-53.588-10.99-14.074-80.627 63.093 43.093 55.068 12.1-9.508zM268.8 746.39l-64.453 79.515 13.952 11.237 64.453-79.517ZM364.613 803.558l-45.067-21.116-43.215 92.852 42.598 19.878c23.954 11.235 39.388 4.569 46.18-10.003 5.925-12.594 3.95-24.2-6.3-31.978l.126-.247c10.247.247 18.15-4.199 22.472-13.582 7.283-15.432-.125-28.026-16.794-35.804zM349.92 875.54c-4.444 9.386-12.595 12.1-22.472 7.409l-28.769-13.335L312.26 840.6l28.646 13.46c9.878 4.566 13.212 12.47 9.013 21.482zm13.952-40.745c-3.95 8.273-11.852 10.125-19.63 6.543l-26.547-12.472 11.852-25.56 26.547 12.348c8.89 4.201 12.1 9.758 7.778 19.14zM435.24 909.374l2.592-29.881 51.241 4.569 1.235-14.57-51.241-4.568 2.347-26.67 55.437 4.815 1.36-15.432-73.344-6.423-8.89 101.99 74.33 6.543 1.358-15.434zM549.822 834.428l28.276-7.038c9.013-2.222 17.903-1.73 21.113 10.865 2.594 10.495-2.097 17.408-13.087 20.125l-28.521 7.161zm3.951 89.515 17.287-4.321-10.126-40.869 25.56-6.42c16.051-3.953 21.732 3.086 26.299 21.36 1.234 4.816 2.592 10.25 6.296 13.951l18.643-4.691c-4.694-3.087-9.013-13.212-11.977-24.695-3.827-15.804-13.705-18.026-20.003-17.408v-.248c2.962-1.977 14.942-10.125 10.125-29.14-4.199-16.792-17.78-24.078-39.511-18.644l-47.414 11.852zM701.94 854.923l-16.299-25.189 43.216-28.029-7.901-12.347-43.34 28.151-14.57-22.472 46.797-30.373-8.523-12.965-61.733 40.129 55.685 85.813 62.723-40.746-8.518-12.965zM803.805 683.172c-18.768-11.977-40.006-5.434-54.328 12.717-18.89 24.077-10.987 53.588 12.1 71.614 22.967 18.029 53.463 18.523 72.354-5.679 15.311-19.508 12.717-43.587-5.804-59.761l-10.743 13.704c10.866 10.373 14.817 24.572 5.062 37.042-13.46 17.286-34.45 12.595-49.884.495-15.434-11.978-25.064-31.238-11.605-48.524 9.26-11.73 20.62-12.348 31.733-7.531z"/><path d="M143.337 310.262c-13.911-6.854-26.359-16.279-36.742-27.619v-77.565h36.742zM216.771 321.804a122.86 122.86 0 0 1-18.346 1.361c-6.2 0-12.348-.454-18.346-1.361V205.078h36.691v116.726zM290.253 282.643c-10.383 11.34-22.831 20.765-36.742 27.619V205.078h36.742z" style="fill:#fff" transform="matrix(2.44985 0 0 2.44985 0 0)"/><path d="M106.596 282.643c-19-20.664-31.147-47.729-32.709-77.565h32.709zM180.079 321.804c-13.003-1.916-25.352-5.897-36.742-11.542V205.078h36.742zM253.512 310.262c-11.39 5.645-23.738 9.626-36.741 11.542V205.078h36.741zM322.963 205.078c-1.563 29.836-13.709 56.901-32.709 77.565v-77.565z" style="fill:#0b89c6" transform="matrix(2.44985 0 0 2.44985 0 0)"/></svg>