<svg xmlns="http://www.w3.org/2000/svg" xml:space="preserve" width="728.32812" height="728.32483" viewBox="0 0 728.32812 728.32481"><path d="M569.426 434.661c0-150.844-122.28-273.121-273.123-273.121S23.18 283.817 23.18 434.661c0 150.841 122.28 273.123 273.123 273.123S569.426 585.502 569.426 434.66" style="fill:#17346b;fill-opacity:1;fill-rule:nonzero;stroke:none" transform="matrix(1.33333 0 0 -1.33333 -30.906 943.712)"/><path d="M559.379 434.661c0-145.293-117.781-263.074-263.076-263.074-145.291 0-263.074 117.781-263.074 263.074 0 145.292 117.783 263.075 263.074 263.075 145.295 0 263.076-117.783 263.076-263.075" style="fill:#f1c313;fill-opacity:1;fill-rule:nonzero;stroke:none" transform="matrix(1.33333 0 0 -1.33333 -30.906 943.712)"/><path d="M296.303 646.962c117.252 0 212.3-95.05 212.3-212.3 0-60.996-25.723-115.984-66.912-154.707l4.638-7.47c43.603 40.357 70.899 98.079 70.899 162.177 0 122.013-98.912 220.925-220.925 220.925S75.377 556.675 75.377 434.66v.001c0-64.098 27.298-121.82 70.9-162.176l4.639 7.469c-41.19 38.724-66.913 93.711-66.913 154.708v-.001c0 117.25 95.05 212.3 212.3 212.3z" style="fill:#17346b;fill-opacity:1;fill-rule:nonzero;stroke:none" transform="matrix(1.33333 0 0 -1.33333 -30.906 943.712)"/><path d="M276.737 425.788a126 126 0 0 0-10.805-14.6c-8.56 16.114-14.76 33.279-18.047 49.951 8.923 2.99 21.127 6.14 35.215 7.26 4.191.334 8.048.494 11.57.546-1.374-6.384-3.356-12.899-5.89-19.365 0 0 5.234-1.14 12.655-3.338s11.761-3.645 11.761-3.645c4.167 11.084 6.989 22.307 8.25 33.057.615 5.246.932 10.84.96 16.627 0 0-15.743 3.356-41.309 1.324-35.729-2.84-60.867-16.594-60.867-16.594q.288-3.658.706-7.247c3.15-27.113 13.463-56.108 29.035-81.647a203 203 0 0 1 10.648-15.75s2.064 1.226 5.407 3.92c12.834 10.113 24.291 23.169 33.433 38.16a171 171 0 0 1 2.762 4.699s-5.825 2.362-13.795 4.194c-7.97 1.83-11.69 2.448-11.69 2.448" style="fill:#17346b;fill-opacity:1;fill-rule:nonzero;stroke:none" transform="matrix(1.33333 0 0 -1.33333 -30.906 943.712)"/><path d="M194.315 491.727c.052-7.926.503-16.268 1.504-24.884 3.566-30.665 15.13-63.3 32.563-91.887a231 231 0 0 1 10.535-15.785s-6.22-3.092-13.43-5.917c-8.886-3.482-10.613-3.902-10.613-3.902-25.7 37.19-40.025 78.913-44.17 114.57-6.872 59.09 9.436 105.836 9.436 105.836s49.653 25.813 116.163 25.63c66.51.183 116.166-25.63 116.166-25.63s4.22-12.102 7.463-31.775c0 0-19.385 9.62-25.84 12.372-14.725 6.23-52.2 19.874-97.718 19.748h-.14c-43.075.118-78.717-11.98-94.988-18.604-1.724-7.008-3.876-17.374-5.32-30.047l.465.206c19.158 9.52 37.544 15.264 54.378 18.651 0 0-1.736-5.477-3.248-13.86-1.512-8.384-1.81-13.23-1.81-13.23-17.658-4.55-34.726-11.654-50.944-21.198z" style="fill:#17346b;fill-opacity:1;fill-rule:nonzero;stroke:none" transform="matrix(1.33333 0 0 -1.33333 -30.906 943.712)"/><path d="M274.88 321.568c26.972 15.06 50.355 38.018 67.757 66.55 15.57 25.538 25.854 54.534 29.034 81.646 3.926 33.46-2.155 62.874-2.155 62.874s-32.817 11.285-64.004 12.088c-7.902.203-16.96.148-26.93-.606 0 0-2.065-5.578-3.99-13.824-1.924-8.245-2.479-12.178-2.479-12.178 10.367 1.202 21.11 1.63 32.747 1.331 14.986-.386 30.805-3.676 41.874-6.513.537-5.542.967-12.335.967-19.846 0-6.397-.312-13.304-1.14-20.382-2.772-23.624-11.832-48.99-25.513-71.426-12.649-20.743-28.832-38.039-47.335-50.712-12.967-9.592-28.39-16.758-41.626-22.195l-.773-.299c17.63-20.43 39.213-38.61 64.989-52.426 78.602 42.14 118.221 124.81 125.6 188.273 1.717 14.773 1.988 28.773 1.424 41.466 0 0-4.857 3.608-12.414 8.005a869 869 0 0 1-14.237 8.096 249 249 0 0 0 1.62-28.186c0-8.394-.439-17.272-1.507-26.46-3.567-30.666-15.133-63.3-32.565-91.888-17.7-29.027-41.004-53.014-67.921-70.045a201 201 0 0 0-22.146 16.262zM188.606 273.126l28.628-15.516-4.064-7.24-19.895 10.632-5.464-9.762 17.813-9.702-3.578-6.847-17.81 9.703-7.65-13.921-8.732 4.886zM247.746 233.396c-1.898 4-5.202 7.166-8.812 8.39-7.174 2.434-14.529-1.408-17.042-8.844-2.559-7.56.924-15.154 8.097-17.585 3.662-1.244 8.506-.761 12.657 1.189l4.31-7.25c-7.461-4.288-14.152-3.734-20.217-1.746-12.426 4.077-18.482 16.245-14.262 28.326 4.16 11.901 16.77 17.747 29.314 13.632 5.892-1.933 11.127-6.448 13.866-11.77zM279.82 203.722l22.958 28.896-22.852-.086-.196 8.115 36.186.718.153-6.43-23.152-29.242 24.504.477.172-7.88-37.624-.743zM321.78 241.93l9.875 2.222 7.395-34.513 20.495 4.459 1.78-7.591-30.368-6.682zM370.686 254.574l6.785 3.586 31.779-13.246-12.455 23.5 8.506 4.679 20.185-38.072-6.79-3.747-31.79 13.213 12.427-23.445-8.464-4.546zM357.144 263.574l9.604 3.002-6.86-11.747-7.168-2.515zm-2.8-14.762 9.561 3.286L378 211.374l-9.564-3.29z" style="fill:#17346b;fill-opacity:1;fill-rule:nonzero;stroke:none" transform="matrix(1.33333 0 0 -1.33333 -30.906 943.712)"/></svg>