<svg xmlns="http://www.w3.org/2000/svg" xml:space="preserve" width="716.93292" height="561.93597" viewBox="0 0 716.93292 561.93596"><path d="M565.779 450.686c0 63.708-51.646 115.353-115.354 115.353-41.14 0-77.247-21.543-97.667-53.96-16.543 9.167-35.574 14.394-55.828 14.394-20.254 0-39.285-5.227-55.83-14.395-20.419 32.418-56.525 53.961-97.667 53.961-63.708 0-115.354-51.645-115.354-115.353 0-61.224 47.7-111.3 107.963-115.11v-79.108h22.029c12.594-.117 23.914-3.162 35.483-8.787 14.744-7.153 28.388-17.777 44.001-26.3 18.854-10.286 37.727-15.446 59.374-15.42h.175c21.573 0 40.396 5.161 59.198 15.42 15.615 8.523 29.259 19.147 44 26.3 11.573 5.625 22.89 8.67 35.534 8.787h21.982v79.107c60.262 3.813 107.96 53.888 107.96 115.111z" style="fill:#f6c416;fill-opacity:1;fill-rule:nonzero;stroke:none" transform="matrix(1.33333 0 0 -1.33333 -37.439 836.55)"/><path d="M435.788 267.643c-14.478-.11-27.657-3.705-40.38-9.916-16.128-7.89-29.886-18.64-44.445-26.528-17.564-9.524-34.132-14.037-54.034-14.063-19.903.026-36.47 4.539-54.033 14.063-14.56 7.888-28.32 18.639-44.446 26.528-12.722 6.21-25.903 9.805-40.333 9.916h-10.901v67.752c18.84.607 36.536 5.737 52.046 14.334 20.42-32.418 56.526-53.961 97.668-53.961s77.247 21.543 97.667 53.96c15.51-8.595 33.205-13.725 52.044-14.333v-67.752z" style="fill:#102d5d;fill-opacity:1;fill-rule:nonzero;stroke:none" transform="matrix(1.33333 0 0 -1.33333 -37.439 836.55)"/><path d="M450.425 554.863c-36.01 0-68.987-18.22-88.21-48.74l-5.631-8.94-9.243 5.12c-15.339 8.5-32.771 12.994-50.41 12.994-17.641 0-35.074-4.493-50.414-12.994l-9.241-5.122-5.632 8.94c-19.225 30.521-52.2 48.742-88.211 48.742-57.444 0-104.178-46.734-104.178-104.177 0-57.443 46.734-104.177 104.178-104.177 17.641 0 35.073 4.493 50.411 12.994l9.241 5.122 5.632-8.94c19.226-30.52 52.202-48.742 88.213-48.742 36.01 0 68.986 18.222 88.212 48.743l5.63 8.939 9.243-5.122c15.339-8.501 32.77-12.994 50.41-12.994 57.445 0 104.179 46.734 104.179 104.177 0 57.443-46.734 104.177-104.179 104.177z" style="fill:#b6242a;fill-opacity:1;fill-rule:nonzero;stroke:none" transform="matrix(1.33333 0 0 -1.33333 -37.439 836.55)"/><path d="m220.838 285.924 3.11-1.772c2.32-1.324 4.196-1.796 5.656-1.419 1.443.373 2.802 1.663 4.054 3.86 1.261 2.213 1.71 3.986 1.342 5.336-.37 1.348-1.756 2.702-4.156 4.071l-3.214 1.834-6.792-11.91M200.84 267.56l22.784 39.95 12.918-7.366c3.94-2.246 6.277-4.753 6.998-7.501.723-2.747-.057-6.126-2.35-10.146-2.245-3.94-4.838-6.346-7.779-7.226-2.944-.881-6.308-.239-10.1 1.921l-5.418 3.091-9.66-16.938zM252.673 270.008l2.972-1.138c2.322-.888 3.566-.827 4.822-.246 1.261.582 2.348 2.411 3.266 4.81.816 2.127.898 3.818.243 5.047-.656 1.235-1.743 1.806-4.339 2.798l-2.306.883-4.658-12.154m-17.23-21.832L251.9 291.12l12.709-4.869c4.33-1.658 6.244-3.19 7.473-5.676 1.228-2.481.971-5.617-.115-9.7-.764-2.875-2.204-4.785-3.84-5.998-1.639-1.217-3.726-1.58-5.825-1.106 3.413-2.452 4.06-6.86 2.142-12.335-.736-2.102-1.451-4.22-2.166-6.33-.552-1.64-.843-3.02-.881-4.128-.04-1.097-.067-2.01.368-2.979l-8.61 3.194c-.384.868-.426 2.03-.169 3.043.26 1.02.72 2.43 1.367 4.225l2.044 5.678c.904 2.51 1.185 4.955.486 6.285-.7 1.33-2.136 1.985-5.381 3.222l-1.105.422-7.227-18.856zM288.231 251.245h7.721l-3.886 20.813-3.835-20.813m-12.085-16.93 10.366 45.989h11.496l10.45-45.99h-9.226l-1.833 9.317-10.723.005-1.784-9.321h-8.746ZM367.305 274.19l6.878 3.513-12.929 16.767 6.051-20.28m-3.061-20.577-11.686 45.673 10.237 5.23 30.224-36.205-8.215-4.196-5.87 7.466-9.553-4.874 2.653-9.115zM324.728 238.703l-14.8 43.543 8.056 2.74 5.808-17.082 8.514 2.843-5.806 17.08 8.06 2.74 14.797-43.544-8.056-2.738-6.707 19.736-8.515-2.843 6.708-19.736zM266.45 385.916h7.391v60.6h-7.395v14.185h26.044l.047-35.842c12.714 2.812 19.82 15.656 18.698 35.911l24.083-.069v-14.184h-6.222c-1.98-11.829-8.068-22.15-16.78-29.81 10.064-8.09 15.218-18.454 16.975-30.79h6.308v-14.185h-25.671c.304 24.764-8.953 32.182-17.39 33.937v-33.938h-26.089v14.185zM93.012 440.066l6.667-3.19 26.158 54.662-6.67 3.193 6.122 12.796 28.746-13.756c21.925-10.494 19.155-30.438 13.2-42.828l-10.363-21.55c-9.206-19.153-26.513-22.97-41.254-15.9l-28.73 13.778 6.124 12.795m54.508 41.096-4.819 2.305-26.158-54.66 4.818-2.307c7.22-3.454 13.719.751 19.364 12.547l9.009 18.826c5.683 11.875 5.123 19.778-2.214 23.29M433.79 410.894l6.818 2.854-17.2 41.068c-5.61 13.401-.707 31.91 16.258 39.02 16.97 7.11 32.921-3.719 37.995-15.829l17.366-41.47 7.878 3.3 5.86-13.994-25.082-10.62-10.37 24.763-19.929-8.348 10.326-24.661L439.65 396.9l-5.858 13.994m33.116 44.391-6.83 16.307c-2.069 4.942-7.792 7.858-14.003 5.257-6.212-2.601-8.05-8.528-5.757-14.006l6.66-15.904zM188.738 464.975l7.127-1.958-12.538-45.666c-3.847-14.011-.025-29.142 17.714-34.017 17.74-4.874 29.72 6.935 33.193 19.584l12.655 46.089 8.236-2.262 4.018 14.63-26.237 7.316-17.102-62.285c-1.42-5.166-4.416-9.427-9.861-7.93-5.443 1.493-6.561 6.737-4.99 12.461l16.958 61.76-25.157 6.907zM364.292 390.556l7.146 1.891-15.496 58.583-7.151-1.89-3.63 13.713 32.016 8.7 3.63-13.714-6.792-2.027 15.498-58.583 16.38 4.333-3.71 14.029 16.007 4.234 7.339-27.742-57.61-15.24zM336.206 593.631c3.784 2.75 3.052 4.999-1.624 4.999h-26.758l-8.268 25.447c-1.445 4.448-3.81 4.448-5.256 0l-8.268-25.447h-26.756c-4.677 0-5.408-2.25-1.624-4.999l21.646-15.727-8.268-25.446c-1.446-4.449.468-5.84 4.252-3.09l21.646 15.726 21.647-15.726c3.784-2.749 5.697-1.359 4.252 3.09l-8.267 25.446z" style="fill:#f6c416;fill-opacity:1;fill-rule:nonzero;stroke:none" transform="matrix(1.33333 0 0 -1.33333 -37.439 836.55)"/></svg>