<svg xmlns="http://www.w3.org/2000/svg" xml:space="preserve" width="378.34976" height="631.97595" viewBox="0 0 378.34974 631.97595"><defs><clipPath id="a" clipPathUnits="userSpaceOnUse"><path d="M0 600h800V0H0Z"/></clipPath></defs><g clip-path="url(#a)" transform="matrix(1.80445 0 0 -1.80445 -532.604 857.323)"><path d="m0 0-11.209 32.337.223-29.534A321.396 321.396 0 0 1-2.669.667L0 0m119.294 32.337L108.085 0l2.668.667c2.758.667 5.516 1.379 8.319 2.136zM-50.351 145.804H.934c2.802 26.821 25.576 47.86 53.108 47.86 14.678 0 28.023-6.005 37.719-15.701 8.451-8.451 14.1-19.661 15.389-32.159h51.285L119.382 32.692 158.88 44.88c-.088-23.308-.088-46.526-.088-69.833-14.722-6.582-29.935-12.143-45.592-15.879-6.85-1.601-13.699-2.981-20.593-4.003L54.042-156.568 15.479-44.835c-6.895 1.022-13.745 2.402-20.594 4.003-15.657 3.736-30.869 9.297-45.592 15.879V16.991l-.089 27.889 39.498-12.188z" style="fill:#000;fill-opacity:1;fill-rule:nonzero;stroke:none" transform="translate(345.957 281.452)"/><path d="m0 0 32.561 94.297H0Z" style="fill:#1ca754;fill-opacity:1;fill-rule:nonzero;stroke:none" transform="translate(470.988 332.337)"/><path d="m0 0 16.991 49.193v96.121H-.178c.178-1.645.222-3.292.222-4.938 0-20.371-11.431-38.074-28.244-47.103V-4.716A240.637 240.637 0 0 1 0 0" style="fill:#fff;fill-opacity:1;fill-rule:nonzero;stroke:none" transform="translate(453.331 281.32)"/><path d="m0 0 12.721 36.784A241.552 241.552 0 0 0 0 35.228Z" style="fill:#fff;fill-opacity:1;fill-rule:nonzero;stroke:none" transform="translate(425.13 199.7)"/><path d="M0 0v97.678c-7.339-3.825-15.701-5.96-24.508-5.96a52.997 52.997 0 0 0-24.552 6.005V0a238.52 238.52 0 0 1 24.552-1.245C-16.323-1.245-8.14-.844 0 0" style="fill:#1ca754;fill-opacity:1;fill-rule:nonzero;stroke:none" transform="translate(424.508 276.559)"/><path d="m0 0 24.552-71.166L49.06-.133V36.83a250.318 250.318 0 0 0-24.508-1.201c-8.184 0-16.368.4-24.552 1.201Z" style="fill:#1ca754;fill-opacity:1;fill-rule:nonzero;stroke:none" transform="translate(375.448 198.008)"/><path d="m0 0 12.677-36.651v35.094C8.451-1.156 4.226-.623 0 0" style="fill:#fff;fill-opacity:1;fill-rule:nonzero;stroke:none" transform="translate(362.148 236.483)"/><path d="m0 0 16.991-49.193c9.252-2.136 18.681-3.693 28.156-4.716V44.08a53.858 53.858 0 0 0-12.543 9.34c-9.697 9.697-15.657 23.041-15.657 37.763 0 1.646.044 3.293.222 4.938H0Z" style="fill:#fff;fill-opacity:1;fill-rule:nonzero;stroke:none" transform="translate(329.678 330.513)"/><path d="m0 0 32.559-94.297V0Z" style="fill:#1ca754;fill-opacity:1;fill-rule:nonzero;stroke:none" transform="translate(296.452 426.634)"/><path d="M0 0c-12.232-5.782-24.996-10.364-37.984-13.967l.221 29z" style="fill:#fff;fill-opacity:1;fill-rule:nonzero;stroke:none" transform="translate(503.637 298.4)"/><path d="m0 0-.045-26.6-37.674 14.947z" style="fill:#fff;fill-opacity:1;fill-rule:nonzero;stroke:none" transform="translate(504.172 325.487)"/><path d="M0 0c-12.988 3.603-25.753 8.185-37.985 13.967L-.222 29Z" style="fill:#fff;fill-opacity:1;fill-rule:nonzero;stroke:none" transform="translate(334.348 284.433)"/><path d="m0 0 37.718-11.653L.044-26.6Z" style="fill:#fff;fill-opacity:1;fill-rule:nonzero;stroke:none" transform="translate(295.83 325.487)"/><path d="M0 0v34.293h27.266v-7.961H11.52V20.55h14.412v-7.962H11.52V0Z" style="fill:#fff;fill-opacity:1;fill-rule:nonzero;stroke:none" transform="translate(366.441 327.222)"/><path d="M0 0h10.186v12.631h14.366v6.539H10.186v7.205h15.745v6.583H0Z" style="fill:#000;fill-opacity:1;fill-rule:nonzero;stroke:none" transform="translate(367.109 327.89)"/><path d="M0 0v34.339h11.653V21.973l11.164 12.321.134.088h13.878L23.974 19.659 39.453.089H24.642L11.653 16.725V0Z" style="fill:#fff;fill-opacity:1;fill-rule:nonzero;stroke:none" transform="translate(399.58 327.133)"/><path d="M0 0h10.319v18.059L24.285.045h13.076L22.373 18.947l12.275 14.056H22.595l-12.276-13.61v13.521H0Z" style="fill:#000;fill-opacity:1;fill-rule:nonzero;stroke:none" transform="translate(400.247 327.845)"/><path d="M0 0c-19.481-4.625-39.275-6.938-59.024-6.938-19.749 0-39.543 2.313-59.024 6.938-15.48 3.692-30.558 9.163-45.103 15.658v41.054c15.123-7.206 31.003-12.454 47.237-16.457 18.549-4.537 37.719-6.806 56.89-6.806 19.17 0 38.341 2.269 56.889 6.806 16.236 4.003 32.114 9.251 47.238 16.457V15.658C30.558 9.163 15.479 3.692 0 0" style="fill:#fff;fill-opacity:1;fill-rule:nonzero;stroke:none" transform="translate(459.024 241.242)"/><path d="m0 0 5.292-1.734c-.311-.979-.399-1.735-.266-2.269.133-.489.534-.845 1.201-1.067.711-.223 1.335-.134 1.779.31.489.446.933 1.38 1.379 2.759l3.959 12.231 5.381-1.778-4.269-13.167c-.712-2.18-1.869-3.602-3.515-4.314-1.645-.757-3.691-.711-6.138.09C2.49-8.185.933-7.116.089-5.692-.756-4.27-.846-2.579-.223-.578c0 .045.045.134.089.267C-.044-.178 0-.088 0 0" style="fill:#000;fill-opacity:1;fill-rule:nonzero;stroke:none" transform="translate(319.67 264.639)"/><path d="m0 0 12.01 18.414 6.761-1.423 3.647-21.795-6.228 1.335-.533 4.225-7.873 1.691L5.56-1.201Zm15.123 4.893-.756 8.895L9.785 6.05Z" style="fill:#000;fill-opacity:1;fill-rule:nonzero;stroke:none" transform="translate(334.748 252.585)"/><path d="m0 0 2.491 20.371 7.65-.978c3.069-.356 5.294-1.068 6.672-2.09 1.334-1.069 1.913-2.447 1.691-4.271-.133-1.2-.624-2.135-1.423-2.802-.802-.667-1.958-1.068-3.47-1.246 1.645-.488 2.802-1.2 3.514-2.133.711-.89.978-2.047.8-3.426-.222-1.868-1.067-3.158-2.49-3.914-1.424-.801-3.47-.979-6.139-.667zm6.939 11.432 2.179-.268c1.246-.178 2.135-.089 2.758.223.578.311.934.845 1.023 1.645.133.757-.089 1.335-.667 1.824-.534.445-1.379.711-2.535.89l-2.18.267zM5.916 3.024l2.179-.266c1.38-.178 2.403-.089 3.025.222.667.311 1.068.89 1.156 1.78.09.844-.133 1.467-.712 1.956-.578.445-1.511.757-2.846.934l-2.179.267Z" style="fill:#000;fill-opacity:1;fill-rule:nonzero;stroke:none" transform="translate(359.924 247.292)"/><path d="m0 0 1.067 20.505 5.694-.312-.89-16.546 9.118-.444-.222-3.959Z" style="fill:#000;fill-opacity:1;fill-rule:nonzero;stroke:none" transform="translate(380.874 244.846)"/><path d="M0 0c.045-2.136.489-3.692 1.246-4.76.801-1.067 1.957-1.556 3.514-1.556 1.511.045 2.623.578 3.381 1.69.755 1.067 1.111 2.668 1.066 4.76-.044 2.134-.444 3.735-1.244 4.803-.757 1.023-1.914 1.557-3.426 1.512-1.557 0-2.668-.578-3.425-1.645C.355 3.691 0 2.091 0 0m-5.826-.134c-.045 3.336.845 5.96 2.624 7.828 1.778 1.913 4.359 2.847 7.649 2.936 3.293.045 5.916-.845 7.785-2.668 1.869-1.824 2.802-4.403 2.891-7.74.045-3.336-.845-5.96-2.623-7.827-1.824-1.915-4.359-2.892-7.696-2.937-3.292-.089-5.87.801-7.695 2.669C-4.804-6.05-5.737-3.47-5.826-.134" style="fill:#000;fill-opacity:1;fill-rule:nonzero;stroke:none" transform="translate(402.713 254.498)"/><path d="m0 0-2.49 20.373 8.051.978L13.789 7.65 12.01 22.151l4.804.578L19.35 2.357l-7.785-.933-8.452 14.144L4.938.579Z" style="fill:#000;fill-opacity:1;fill-rule:nonzero;stroke:none" transform="translate(421.75 244.89)"/><path d="m0 0-4.227 20.104 14.768 3.115.846-3.826-9.385-2.001.844-4.093 8.94 1.913.846-3.825-8.941-1.913.889-4.27 9.653 2.046.845-4.048Z" style="fill:#000;fill-opacity:1;fill-rule:nonzero;stroke:none" transform="translate(445.414 248.182)"/><path d="m0 0 .045-.178c.623-2.001.31-3.825-.934-5.47C-2.135-7.294-4.18-8.54-6.982-9.385c-3.069-.933-5.694-.801-7.918.356-2.18 1.2-3.737 3.336-4.715 6.449-1.023 3.426-.978 6.272.177 8.585 1.158 2.312 3.382 3.959 6.629 4.937 2.668.845 4.936.935 6.717.266 1.822-.666 3.069-2.001 3.779-4.092l-5.56-1.689c-.266.8-.799 1.334-1.557 1.6-.711.313-1.556.313-2.535 0-1.334-.399-2.135-1.244-2.49-2.58-.356-1.289-.223-3.024.445-5.159.623-2.001 1.422-3.425 2.403-4.225 1.021-.8 2.177-.979 3.556-.578.979.311 1.647.8 2.092 1.467.443.668.533 1.424.355 2.314z" style="fill:#000;fill-opacity:1;fill-rule:nonzero;stroke:none" transform="translate(480.24 264.46)"/><path d="m0 0 10.764 16.725L-.178 33.716l-18.815-.801-8.584-16.769L-18.771.045Z" style="fill:#fff;fill-opacity:1;fill-rule:nonzero;stroke:none" transform="translate(404.893 418.227)"/><path d="m0 0-10.721-16.68L.443-32.515l15.257.578 10.231 14.101L19.57.935Z" style="fill:#fff;fill-opacity:1;fill-rule:nonzero;stroke:none" transform="translate(416.191 434.64)"/><path d="m0 0-4.671-17.214c2.625-5.293 5.693-10.185 9.652-16.324l14.767 1.913 5.738 16.368-8.851 16.279z" style="fill:#fff;fill-opacity:1;fill-rule:nonzero;stroke:none" transform="translate(360.236 432.994)"/><path d="M0 0a61.955 61.955 0 0 1-3.292 3.559 52.444 52.444 0 0 1-26.51 14.367l6.85-8.852.09-.045L-3.558-.934z" style="fill:#fff;fill-opacity:1;fill-rule:nonzero;stroke:none" transform="translate(440.565 455.411)"/><path d="M0 0c.134 1.512.178 3.069.178 4.625 0 12.544-4.403 24.064-11.742 33.138l-3.915-.979-.578-18.058L-9.83-.134z" style="fill:#fff;fill-opacity:1;fill-rule:nonzero;stroke:none" transform="translate(452.574 417.07)"/><path d="M0 0a51.358 51.358 0 0 1 10.63 6.628L9.563 28.201l-15.435-.624-16.902-13.566.623-11.698Z" style="fill:#fff;fill-opacity:1;fill-rule:nonzero;stroke:none" transform="translate(422.24 373.836)"/><path d="M0 0c5.427-4.848 11.832-8.629 18.948-10.941l15.702 4.67-.668 11.565-18.77 13.076L.534 16.458Z" style="fill:#fff;fill-opacity:1;fill-rule:nonzero;stroke:none" transform="translate(364.86 382.376)"/><path d="M0 0c-5.516-8.317-8.674-18.281-8.674-28.912 0-1.778.09-3.558.267-5.292l7.517-.223 4.715 17.259z" style="fill:#fff;fill-opacity:1;fill-rule:nonzero;stroke:none" transform="translate(355.92 450.607)"/><path d="M0 0a53.152 53.152 0 0 1-21.662-18.281l20.105 8.806z" style="fill:#fff;fill-opacity:1;fill-rule:nonzero;stroke:none" transform="translate(378.116 469.69)"/><path d="M0 0a52.831 52.831 0 0 1-21.217-4.448l-1.601-9.873 8.807-8.363 18.414.801L16.77-9.874 9.83-.89C6.627-.311 3.336 0 0 0" style="fill:#fff;fill-opacity:1;fill-rule:nonzero;stroke:none" transform="translate(400 474.448)"/><path d="M0 0v4.981h3.559c1.512 0 2.624-.889 2.624-2.535C6.183.846 5.115 0 3.559 0Zm0 9.385v4.627h3.469c1.424 0 2.358-.846 2.358-2.314 0-1.512-.979-2.313-2.358-2.313zM-5.337-4.537H4.67c4.181 0 7.072 1.779 7.072 6.183-.044 3.736-1.779 4.848-4.67 5.649 2.625 1.022 4.181 1.912 4.181 5.337 0 3.87-2.669 5.827-6.628 5.827h-9.962z" style="fill:#000;fill-opacity:1;fill-rule:nonzero;stroke:none" transform="translate(354.142 299.822)"/><path d="M0 0c-.845-.134-1.779-.355-2.535-.89a2.43 2.43 0 0 1-.712-.8c-.356-.667-.356-1.869.534-2.136 1.112-.356 2.224.179 2.579 1.246C.133-1.824 0-.802 0 0m.534-8.318c-.089.489-.178.934-.267 1.423v.357a5.631 5.631 0 0 0-3.069-2.091c-2.002-.489-4.537-.134-6.094 1.334-1.824 1.734-2.09 4.893-.889 7.072C-8.007 3.069-3.336 3.736 0 3.87c0 .711-.044 1.467-.845 1.69-.534.177-1.156.177-1.645 0-.979-.357-1.246-1.068-1.335-2.002l-6.361.712c.712 3.113 2.402 5.026 5.605 5.782 2.091.489 4.804.489 6.894-.044 3.291-.89 4.314-3.336 4.314-6.761v-7.963c0-1.289.134-2.401.712-3.602z" style="fill:#fff;fill-opacity:1;fill-rule:nonzero;stroke:none" transform="translate(377.938 302.892)"/><path d="M0 0v-18.237h-6.271v1.556c-1.468-2.046-4.315-2.49-6.583-1.6-2.58 1.023-2.98 3.959-2.98 6.36V0h6.761v-11.164c0-.802 0-2.091 1.067-2.091 1.112 0 1.29 1.245 1.29 2.135V0Z" style="fill:#fff;fill-opacity:1;fill-rule:nonzero;stroke:none" transform="translate(402.624 312.81)"/><path d="M0 0c1.289 1.646 3.246 2.446 5.293 2.269 2.891-.178 4.58-2.491 4.58-5.605v-13.077H3.202v11.565c0 .845-.179 1.512-1.068 1.512-1.113 0-1.29-1.29-1.29-2.135v-10.942h-6.627v11.388c0 .888-.088 1.689-1.112 1.689-.845 0-1.068-.846-1.068-1.557v-11.52h-6.672V1.824h6.228V.268c.712.889 1.556 1.512 2.624 1.823C-3.559 2.714-1.246 1.957 0 0" style="fill:#fff;fill-opacity:1;fill-rule:nonzero;stroke:none" transform="translate(419.705 310.986)"/><path d="M0 0c1.779-.622 3.87-.355 5.648.045v4.182C4.137 3.87 2.491 3.87 2.491 5.916v7.295h2.98v3.781h-2.98v5.649l-4.715-.267-.401-5.382h-2.623v-3.781h2.4V5.427C-2.848 3.114-2.445.801 0 0" style="fill:#000;fill-opacity:1;fill-rule:nonzero;stroke:none" transform="translate(445.547 295.151)"/><path d="M0 0c0-1.112.178-2.535-.178-3.603-.489-1.423-2.002-2.135-3.469-1.69-1.29.399-1.513 2.046-.89 3.158.178.355.489.711.89.979C-2.58-.356-1.29-.134 0 0m.4-8.407h5.16c-.267.889-.311 1.912-.311 2.89v7.963c0 3.114-.846 5.293-3.826 6.093-2.002.535-4.581.49-6.583.045-2.491-.578-4.181-2.046-4.848-4.537l4.848-.533a2.69 2.69 0 0 0 1.735 1.912c.623.178 1.424.222 2.047 0C.089 4.981 0 3.603 0 2.401c-3.247-.088-8.14-.489-9.919-3.736-1.023-1.912-.801-4.714.801-6.27 1.378-1.291 3.647-1.603 5.426-1.158 1.958.534 2.713 1.868 3.647 3.47C.178-6.361.178-7.385.4-8.407" style="fill:#000;fill-opacity:1;fill-rule:nonzero;stroke:none" transform="translate(378.65 303.692)"/><path d="M0 0h-5.292v-10.453c0-1.29-.401-2.847-2.002-2.847-1.557 0-1.779 1.557-1.779 2.803V0h-5.338v-11.254c0-2.091.267-4.803 2.536-5.738 3.603-1.29 5.871.846 7.027 3.292v-3.158H0Z" style="fill:#000;fill-opacity:1;fill-rule:nonzero;stroke:none" transform="translate(401.912 312.144)"/><path d="M0 0c-1.156 2.224-2.891 3.469-5.516 2.712C-7.295 2.179-8.14.666-8.984-.891v3.337h-4.848v-16.858h5.248v10.808c0 1.113.488 2.224 1.779 2.224 1.467 0 1.823-1.067 1.823-2.356v-10.676H.223v10.23c0 1.289.445 2.802 2.001 2.802 1.29 0 1.78-.933 1.78-2.179v-10.853h5.292v12.365c0 2.758-1.423 4.759-3.913 4.938C2.98 3.069 1.334 1.912 0 0" style="fill:#000;fill-opacity:1;fill-rule:nonzero;stroke:none" transform="translate(419.615 309.697)"/><path d="M432.514 314.233h5.561v4.048h-5.561zM432.514 295.285h5.561v16.858h-5.561z" style="fill:#000;fill-opacity:1;fill-rule:nonzero;stroke:none"/></g></svg>