<svg xmlns="http://www.w3.org/2000/svg" width="299" height="480" x="0px" y="0px" viewBox="0 0 299 480"><path fill="none" d="M-25.753-15.028h655.29v1019.782h-655.29z" style="fill:#030529;fill-opacity:0"/><g transform="matrix(1.92582 0 0 1.92 -1.926 -1.92)"><linearGradient id="c" x1="119.8975" x2="136.83009" y1="418.53909" y2="418.53909" gradientUnits="userSpaceOnUse"><stop offset="0.0041" style="stop-color:#79adcf"/><stop offset="0.0564" style="stop-color:#73a7ca"/><stop offset="0.1312" style="stop-color:#6595ba"/><stop offset="0.2194" style="stop-color:#4f7ba1"/><stop offset="0.3179" style="stop-color:#315a82"/><stop offset="0.4237" style="stop-color:#003a63"/><stop offset="0.4339" style="stop-color:#003760"/><stop offset="0.9835" style="stop-color:#141515"/></linearGradient><linearGradient id="d" x1="124.3936" x2="132.084" y1="416.14551" y2="416.14551" gradientUnits="userSpaceOnUse"><stop offset="0.0041" style="stop-color:#79adcf"/><stop offset="0.0564" style="stop-color:#73a7ca"/><stop offset="0.1312" style="stop-color:#6595ba"/><stop offset="0.2194" style="stop-color:#4f7ba1"/><stop offset="0.3179" style="stop-color:#315a82"/><stop offset="0.4237" style="stop-color:#003a63"/><stop offset="0.4339" style="stop-color:#003760"/><stop offset="0.9835" style="stop-color:#141515"/></linearGradient><linearGradient id="e" x1="124.9395" x2="132.90331" y1="420.74219" y2="420.74219" gradientUnits="userSpaceOnUse"><stop offset="0.0041" style="stop-color:#79adcf"/><stop offset="0.2001" style="stop-color:#78abcd"/><stop offset="0.2861" style="stop-color:#73a4c4"/><stop offset="0.3506" style="stop-color:#6c98b5"/><stop offset="0.4043" style="stop-color:#6287a0"/><stop offset="0.4514" style="stop-color:#557387"/><stop offset="0.4938" style="stop-color:#465c6c"/><stop offset="0.5327" style="stop-color:#36444f"/><stop offset="0.5678" style="stop-color:#252c33"/><stop offset="0.5785" style="stop-color:#1e242a"/><stop offset="0.843" style="stop-color:#004f8a"/><stop offset="1" style="stop-color:#79adcf"/></linearGradient><linearGradient id="f" x1="166.3877" x2="166.3877" y1="413.67871" y2="425.34961" gradientUnits="userSpaceOnUse"><stop offset="0.0041" style="stop-color:#79adcf"/><stop offset="0.0564" style="stop-color:#73a7ca"/><stop offset="0.1312" style="stop-color:#6595ba"/><stop offset="0.2194" style="stop-color:#4f7ba1"/><stop offset="0.3179" style="stop-color:#315a82"/><stop offset="0.4237" style="stop-color:#003a63"/><stop offset="0.4339" style="stop-color:#003760"/><stop offset="0.9835" style="stop-color:#141515"/></linearGradient><linearGradient id="g" x1="165.64841" x2="171.606" y1="410.98831" y2="421.30701" gradientUnits="userSpaceOnUse"><stop offset="0.0041" style="stop-color:#79adcf"/><stop offset="0.0564" style="stop-color:#73a7ca"/><stop offset="0.1312" style="stop-color:#6595ba"/><stop offset="0.2194" style="stop-color:#4f7ba1"/><stop offset="0.3179" style="stop-color:#315a82"/><stop offset="0.4237" style="stop-color:#003a63"/><stop offset="0.4339" style="stop-color:#003760"/><stop offset="0.9835" style="stop-color:#141515"/></linearGradient><linearGradient id="j" x1="142.8311" x2="154.517" y1="412.69431" y2="424.38019" gradientUnits="userSpaceOnUse"><stop offset="0.0041" style="stop-color:#79adcf"/><stop offset="0.0564" style="stop-color:#73a7ca"/><stop offset="0.1312" style="stop-color:#6595ba"/><stop offset="0.2194" style="stop-color:#4f7ba1"/><stop offset="0.3179" style="stop-color:#315a82"/><stop offset="0.4237" style="stop-color:#003a63"/><stop offset="0.4339" style="stop-color:#003760"/><stop offset="0.9835" style="stop-color:#141515"/></linearGradient><linearGradient id="k" x1="140.3994" x2="156.9465" y1="415.52731" y2="421.54999" gradientUnits="userSpaceOnUse"><stop offset="0.0041" style="stop-color:#79adcf"/><stop offset="0.0564" style="stop-color:#73a7ca"/><stop offset="0.1312" style="stop-color:#6595ba"/><stop offset="0.2194" style="stop-color:#4f7ba1"/><stop offset="0.3179" style="stop-color:#315a82"/><stop offset="0.4237" style="stop-color:#003a63"/><stop offset="0.4339" style="stop-color:#003760"/><stop offset="0.9835" style="stop-color:#141515"/></linearGradient><linearGradient id="n" x1="235.1465" x2="232.81419" y1="174.55811" y2="180.966" gradientUnits="userSpaceOnUse"><stop offset="0.2562" style="stop-color:#79adcf"/><stop offset="0.573" style="stop-color:#78accf"/><stop offset="0.6872" style="stop-color:#72a6cb"/><stop offset="0.7685" style="stop-color:#689cc4"/><stop offset="0.8343" style="stop-color:#5a8fba"/><stop offset="0.8906" style="stop-color:#467eae"/><stop offset="0.9405" style="stop-color:#2c6a9f"/><stop offset="0.9845" style="stop-color:#00558e"/><stop offset="0.9959" style="stop-color:#004f8a"/></linearGradient><linearGradient id="S" x1="216.06149" x2="221.8555" y1="187.69141" y2="187.69141" gradientTransform="rotate(4.468 257.085 231.026)" gradientUnits="userSpaceOnUse"><stop offset="0.1405" style="stop-color:#003760"/><stop offset="0.6198" style="stop-color:#292725"/></linearGradient><g transform="matrix(.545 0 0 .545 1 1)"><linearGradient id="a" x1="0" x2="284.87701" y1="229.356" y2="229.356" gradientUnits="userSpaceOnUse"><stop offset="0" style="stop-color:#477d95"/><stop offset="0.0903" style="stop-color:#407790"/><stop offset="0.2233" style="stop-color:#2d6682"/><stop offset="0.3817" style="stop-color:#034d6d"/><stop offset="0.4831" style="stop-color:#003e60"/><stop offset="0.5614" style="stop-color:#014e6e"/><stop offset="0.663" style="stop-color:#27617e"/><stop offset="0.7681" style="stop-color:#39708b"/><stop offset="0.878" style="stop-color:#437a92"/><stop offset="1" style="stop-color:#477d95"/></linearGradient><path d="M284.876 229.356a142.438 229.356 0 0 1-142.438 229.356A142.438 229.356 0 0 1 0 229.356 142.438 229.356 0 0 1 142.438 0a142.438 229.356 0 0 1 142.438 229.356Z" style="fill:url(#a)"/><path d="M279.481 228.757a137.586 224.198 0 0 1-137.586 224.198A137.586 224.198 0 0 1 4.309 228.757 137.586 224.198 0 0 1 141.895 4.559a137.586 224.198 0 0 1 137.586 224.198Z" style="fill:#003b5e"/><radialGradient id="b" cx="141.84669" cy="229.61079" r="176.3736" gradientUnits="userSpaceOnUse"><stop offset="0" style="stop-color:#e9f5fb"/><stop offset="0.2782" style="stop-color:#e4f3f9"/><stop offset="0.6704" style="stop-color:#d3ebf5"/><stop offset="1" style="stop-color:#c0e3ef"/></radialGradient><path d="M275.169 229.611A133.322 210.809 0 0 1 141.847 440.42 133.322 210.809 0 0 1 8.525 229.611 133.322 210.809 0 0 1 141.847 18.802a133.322 210.809 0 0 1 133.322 210.809Z" style="fill:url(#b)"/></g><path d="m77.835 57.722 5.168-12.38-8.803 8.706c-1.629 1.61-40.013 40.081-49.878 94.048l-1.915 10.473 6.999-9.544c9.686-52.987 48.429-91.303 48.429-91.303Z" style="fill:#53b5e0" transform="matrix(.545 0 0 .545 1 1)"/><path d="M83.003 131.79V45.342l-5.168 12.38v74.068L83 136.146Z" style="fill:#a8d9ed" transform="matrix(.545 0 0 .545 1 1)"/><path d="m29.406 149.025-6.999 9.544 9.414-4.974c23.978-12.67 46.661-16.672 46.887-16.711l4.292-.738-5.165-4.355c0-.001-23.36 3.988-48.429 17.234z" style="fill:#b9dbeb" transform="matrix(.545 0 0 .545 1 1)"/><path d="M29.406 149.025c25.069-13.246 48.429-17.235 48.429-17.235V57.722s-38.743 38.316-48.429 91.303z" style="fill:#088ac5" transform="matrix(.545 0 0 .545 1 1)"/><path d="m166.9 128.632 5.176 5.168-.157-99.043-5.161 4.139c0 18.517.142 89.736.142 89.736z" style="fill:#a5cedf" transform="matrix(.545 0 0 .545 1 1)"/><path d="m166.758 38.896 5.161-4.139-4.04-.906c-21.716-4.826-44.752-1.473-51.294-.331l-4.279.747 5.168 4.344c8.973-1.567 30.054-3.988 49.284.285z" style="fill:#2e8bba" transform="matrix(.545 0 0 .545 1 1)"/><path d="M166.9 128.632s-8.614-8.721-25.874-8.721c-7.268 0-23.553 8.721-23.553 8.721l-5.168 5.168s9.824-2.18 29.083-2.18 30.688 2.18 30.688 2.18z" style="fill:#b9dbeb" transform="matrix(.545 0 0 .545 1 1)"/><path d="M117.474 128.632V38.61l-5.168-4.343V133.8Z" style="fill:#0987b4" transform="matrix(.545 0 0 .545 1 1)"/><path d="M117.474 38.61v90.021s5.99-2.18 24.098-2.18c18.229 0 25.329 2.18 25.329 2.18s-.143-71.219-.143-89.736c-19.23-4.272-40.311-1.851-49.284-.285z" style="fill:#00639d" transform="matrix(.545 0 0 .545 1 1)"/><path d="m206.29 57.532-5.169-12.38 8.803 8.705c1.629 1.611 40.014 40.081 49.878 94.048l1.915 10.473-6.998-9.543c-9.687-52.987-48.429-91.303-48.429-91.303Z" style="fill:#a9c8d9" transform="matrix(.545 0 0 .545 1 1)"/><path d="M201.121 131.6V45.152l5.169 12.38V131.6l-5.166 4.355z" style="fill:#267ca7" transform="matrix(.545 0 0 .545 1 1)"/><path d="m254.719 148.835 6.998 9.543-9.413-4.974c-23.979-12.67-46.661-16.671-46.888-16.71l-4.292-.739 5.166-4.355s23.359 3.988 48.429 17.235z" style="fill:#6ba2bf" transform="matrix(.545 0 0 .545 1 1)"/><path d="M254.719 148.835c-25.07-13.247-48.429-17.235-48.429-17.235V57.532s38.742 38.316 48.429 91.303z" style="fill:#004b80" transform="matrix(.545 0 0 .545 1 1)"/><path d="m167.66 237.299 5.177-5.169-.157 168.554-5.162-4.14c0-18.518.142-159.245.142-159.245z" style="fill:#a5cedf" transform="matrix(.545 0 0 .545 1 1)"/><path d="m167.518 396.544 5.162 4.14-4.041.905c-21.716 4.826-44.751 1.473-51.294.332l-4.279-.748 5.169-4.344c8.973 1.567 30.053 3.989 49.283-.285z" style="fill:#b9dbeb" transform="matrix(.545 0 0 .545 1 1)"/><path d="M167.66 237.299h-49.426l-5.169-5.169s13.063-2.773 29.373-2.773c16.15 0 30.398 2.773 30.398 2.773z" style="fill:#3a91bc" transform="matrix(.545 0 0 .545 1 1)"/><path d="M118.234 237.299v159.53l-5.169 4.344V232.129Z" style="fill:#0987b4" transform="matrix(.545 0 0 .545 1 1)"/><path d="M118.234 396.829v-159.53s10.195-2.18 25.094-2.18c14.897 0 24.332 2.18 24.332 2.18s-.143 140.728-.143 159.245c-19.229 4.274-40.309 1.852-49.283.285z" style="fill:#00639d" transform="matrix(.545 0 0 .545 1 1)"/><path d="m29.162 265.914-6.093-3.16.701 4.2c1.472 7.623 2.66 15.205 4.165 24.801 1.185 7.553 2.526 16.113 4.385 27.19l.094.559 5.321-1.468c-4.3-25.629-5.953-38.557-8.573-52.122z" style="fill:#3faddd" transform="matrix(.545 0 0 .545 1 1)"/><path d="m78.446 245.688 5.491-7.243-5.534 1.182c-.815.006-21.797 3.781-52.232 21.112l-3.101 2.015 6.093 3.16c30.908-20.084 49.283-20.226 49.283-20.226Z" style="fill:#52b2df" transform="matrix(.545 0 0 .545 1 1)"/><path d="m37.736 318.036-5.321 1.468.206.528c16.791 43.006 41.195 64.51 42.226 65.404l9.09 7.318-5.491-11.466c0 .001-24.218-21.015-40.71-63.252z" style="fill:#209ad2" transform="matrix(.545 0 0 .545 1 1)"/><path d="m83.937 238.444-5.491 7.244v135.601l5.491 11.466z" style="fill:#a8d9ed" transform="matrix(.545 0 0 .545 1 1)"/><path d="M37.736 318.036c16.491 42.237 40.709 63.253 40.709 63.253V245.688s-18.375.142-49.284 20.226c2.621 13.565 4.274 26.493 8.575 52.122z" style="fill:#0185c2" transform="matrix(.545 0 0 .545 1 1)"/><path d="m255.607 265.628 6.093-3.16-.701 4.202c-1.471 7.624-2.66 15.203-4.165 24.799-1.184 7.553-2.525 16.113-4.385 27.189l-.094.56-5.321-1.468c4.301-25.628 5.954-38.556 8.573-52.122z" style="fill:#a9c8d9" transform="matrix(.545 0 0 .545 1 1)"/><path d="m206.324 245.402-5.491-7.243 5.534 1.182c.815.007 21.797 3.783 52.232 21.113l3.101 2.014-6.093 3.16c-30.908-20.084-49.283-20.226-49.283-20.226z" style="fill:#006b99" transform="matrix(.545 0 0 .545 1 1)"/><path d="m247.034 317.751 5.321 1.468-.207.529c-16.79 43.005-41.194 64.509-42.226 65.402l-9.09 7.318 5.491-11.466c.001.001 24.22-21.014 40.711-63.251z" style="fill:#95c0ce" transform="matrix(.545 0 0 .545 1 1)"/><path d="m200.833 238.159 5.491 7.243v135.601l-5.491 11.466z" style="fill:#267ca7" transform="matrix(.545 0 0 .545 1 1)"/><path d="M247.034 317.751c-16.491 42.237-40.71 63.252-40.71 63.252V245.402s18.375.142 49.283 20.226c-2.619 13.566-4.272 26.494-8.573 52.123z" style="fill:#00497d" transform="matrix(.545 0 0 .545 1 1)"/><path d="M110.419 413.923a5.376 5.376 0 0 0 1.387-1.081l-.481-1.13c-.359.492-.838.896-1.435 1.212-.597.316-1.321.548-2.173.692l1.13.889c.574-.156 1.115-.339 1.572-.582z" style="fill:#a5cedf" transform="matrix(.545 0 0 .545 1 1)"/><path d="M114.081 412.842v11.378l1.132 1.13v-13.638z" style="fill:#111211" transform="matrix(.545 0 0 .545 1 1)"/><path d="m114.081 412.842 1.132-1.13h-3.889l.481 1.13h2.276z" style="fill:#477d95" transform="matrix(.545 0 0 .545 1 1)"/><path d="m108.847 414.505-1.13-.889v3.41l1.13-1.267v-1.254z" style="fill:#a5cedf" transform="matrix(.545 0 0 .545 1 1)"/><path d="m108.847 415.76-1.13 1.267v.008a9.024 9.024 0 0 0 1.288-.15 11.27 11.27 0 0 0 1.364-.349l1.067-1.439-2.589.663zM111.5 424.22l-1.131 1.13h4.844l-1.132-1.13H111.5z" style="fill:#111211" transform="matrix(.545 0 0 .545 1 1)"/><path d="m111.5 416.535-.063-1.439-1.067 1.439v8.814l1.131-1.13-.001-7.684z" style="fill:#a5cedf" transform="matrix(.545 0 0 .545 1 1)"/><path d="M110.42 413.923c-.458.241-.998.426-1.572.581v1.256l2.589-.666.063 1.439v7.685h2.582v-11.376h-2.276a5.387 5.387 0 0 1-1.386 1.081z" style="fill:#004e88" transform="matrix(.545 0 0 .545 1 1)"/><path d="M130.282 415.115c-.445-.227-1.126-.342-2.038-.342-.927 0-1.611.112-2.054.338-.444.225-.666.57-.666 1.037 0 .469.22.813.66 1.035.441.222 1.128.332 2.06.332.918 0 1.6-.112 2.043-.336.443-.225.666-.568.666-1.031 0-.46-.224-.805-.671-1.033z" style="fill:none" transform="matrix(.545 0 0 .545 1 1)"/><path d="m124.939 422.527.62-1.13h-5.483l1.56 1.13h3.303z" style="fill:#477d95" transform="matrix(.545 0 0 .545 1 1)"/><path d="M134.669 413.05c-1.441-1.143-3.751-1.713-6.929-1.713-2.604 0-4.563.403-5.875 1.208-1.312.805-1.968 2.006-1.968 3.604 0 1.489.628 2.622 1.883 3.396 1.255.772 3.086 1.158 5.493 1.158.801 0 1.547-.063 2.236-.193a8.836 8.836 0 0 0 1.943-.592l1.45-1.868-1.902.831a7.784 7.784 0 0 1-1.698.517c-.618.116-1.301.175-2.028.175-2.185 0-3.833-.334-4.9-.992-.917-.564-1.344-1.337-1.344-2.432 0-1.203.453-2.042 1.428-2.64 1.125-.691 2.902-1.04 5.283-1.04 2.902 0 4.997.493 6.227 1.467 1.166.926 1.733 2.422 1.733 4.575 0 2.115-.563 3.615-1.722 4.585-1.204 1.005-3.157 1.516-5.809 1.516-2.346 0-4.125-.318-5.288-.944-.563-.304-.966-.683-1.246-1.14l-1.56-1.13c.177 1.458.933 2.545 2.27 3.265 1.336.72 3.277 1.079 5.824 1.079 2.937 0 5.114-.592 6.533-1.778 1.418-1.188 2.127-3.004 2.127-5.452 0-2.499-.72-4.32-2.161-5.462z" style="fill:url(#c)" transform="matrix(.545 0 0 .545 1 1)"/><path d="M130.796 414.107c-.614-.313-1.448-.464-2.552-.464-1.116 0-1.956.15-2.564.458-.829.419-1.286 1.147-1.286 2.047 0 .904.456 1.63 1.284 2.046.604.304 1.444.452 2.566.452 1.108 0 1.943-.15 2.554-.458.829-.42 1.286-1.145 1.286-2.04 0-.892-.458-1.618-1.288-2.041zm-.509 3.073c-.443.224-1.125.336-2.043.336-.932 0-1.618-.11-2.06-.332-.44-.222-.66-.566-.66-1.035 0-.467.222-.813.666-1.037.442-.226 1.127-.338 2.054-.338.912 0 1.593.115 2.038.342.447.228.671.572.671 1.033 0 .462-.223.806-.666 1.031z" style="fill:url(#d)" transform="matrix(.545 0 0 .545 1 1)"/><path d="M125.875 423.147c.521.193 1.216.288 2.122.288 1.286 0 2.283-.257 3.047-.783.829-.569 1.342-1.428 1.524-2.552l.335-2.052-1.45 1.868c-.132.813-.481 1.414-1.049 1.803-.566.391-1.368.585-2.407.585-.763 0-1.338-.072-1.729-.217-.391-.146-.626-.375-.709-.69l-.62 1.13c.244.263.552.479.936.62z" style="fill:url(#e)" transform="matrix(.545 0 0 .545 1 1)"/><path d="M131.044 422.652c-.764.526-1.761.783-3.047.783-.906 0-1.602-.095-2.122-.288a2.389 2.389 0 0 1-.936-.62h-3.304c.28.457.683.836 1.246 1.14 1.163.626 2.942.944 5.288.944 2.651 0 4.604-.511 5.809-1.516 1.158-.97 1.722-2.47 1.722-4.585 0-2.153-.567-3.649-1.733-4.575-1.229-.974-3.324-1.467-6.227-1.467-2.381 0-4.158.349-5.283 1.04-.975.598-1.428 1.437-1.428 2.64 0 1.095.427 1.867 1.344 2.432 1.067.658 2.716.992 4.9.992.728 0 1.41-.059 2.028-.175a7.66 7.66 0 0 0 1.698-.517l1.903-.832-.335 2.052c-.181 1.125-.694 1.983-1.523 2.552zm-.246-4.464c-.61.308-1.445.458-2.554.458-1.122 0-1.962-.148-2.566-.452-.828-.416-1.284-1.142-1.284-2.046 0-.899.457-1.628 1.286-2.047.608-.308 1.448-.458 2.564-.458 1.104 0 1.938.151 2.552.464.83.423 1.288 1.148 1.288 2.041 0 .896-.457 1.621-1.286 2.04z" style="fill:#004e88" transform="matrix(.545 0 0 .545 1 1)"/><path d="M162.564 421.071c.885-.986 2.424-1.746 4.576-2.259l1.957-.426c1.818-.366 3.678-.945 3.678-2.471 0-.804-.448-1.477-1.231-1.848-.55-.262-1.272-.39-2.207-.39-1.257 0-2.191.205-2.86.623-.494.31-.833.757-1.036 1.282l.917 1.083c0-.638.239-1.107.72-1.407.479-.301 1.231-.451 2.26-.451.757 0 1.331.094 1.722.28.392.186.587.462.587.827 0 .536-.924.99-2.771 1.362a63.87 63.87 0 0 0-1.996.436c-2.39.568-4.108 1.436-5.155 2.603-1.047 1.166-1.62 2.844-1.722 5.033l1.252-1.13c.201-1.334.636-2.396 1.309-3.147z" style="fill:url(#f)" transform="matrix(.545 0 0 .545 1 1)"/><path d="M163.317 413.645c1.206-.769 3.088-1.159 5.595-1.159 2.601 0 4.546.335 5.785.995 1.048.557 1.515 1.281 1.515 2.351 0 .812-.226 1.413-.692 1.839-.381.35-1.218.85-3.03 1.248l-2.525.484c-3.368.599-4.351 1.199-4.831 1.657l-2.044 1.949 2.824-1.132c.523-.498 1.939-.952 4.248-1.362a76.283 76.283 0 0 0 2.564-.492c1.665-.365 2.851-.872 3.558-1.518.707-.647 1.061-1.537 1.061-2.674 0-1.482-.706-2.6-2.115-3.35-1.41-.751-3.516-1.126-6.316-1.126-2.738 0-4.806.444-6.203 1.336-1.397.89-2.134 2.231-2.21 4.023l1.337-1.131c.246-.816.721-1.455 1.479-1.938z" style="fill:url(#g)" transform="matrix(.545 0 0 .545 1 1)"/><path d="m161.836 415.584-1.337 1.131h5.858v-.048l-.917-1.083h-3.604z" style="fill:#111211" transform="matrix(.545 0 0 .545 1 1)"/><path d="M163.089 423.009h12.839l1.13-1.132h-11.145z" style="fill:#477d95" transform="matrix(.545 0 0 .545 1 1)"/><path d="M175.928 424.22h-.102l1.231 1.13v-3.473l-1.13 1.132.001 1.211z" style="fill:#111211" transform="matrix(.545 0 0 .545 1 1)"/><path d="m161.253 424.22-1.252 1.13h17.057l-1.231-1.13h-14.574z" style="fill:#111211" transform="matrix(.545 0 0 .545 1 1)"/><path d="m169.964 419.402 2.525-.484c1.813-.398 2.649-.898 3.03-1.248.467-.426.692-1.027.692-1.839 0-1.069-.467-1.794-1.515-2.351-1.239-.66-3.185-.995-5.785-.995-2.507 0-4.389.391-5.595 1.159-.759.483-1.233 1.122-1.481 1.939h3.604a2.569 2.569 0 0 1 1.036-1.282c.669-.418 1.604-.623 2.86-.623.935 0 1.657.128 2.207.39.783.371 1.231 1.044 1.231 1.848 0 1.525-1.859 2.104-3.678 2.471l-1.957.426c-2.152.513-3.691 1.272-4.576 2.259-.674.751-1.108 1.813-1.312 3.148h14.675v-1.211h-12.839l2.044-1.949c.483-.458 1.466-1.059 4.834-1.658z" style="fill:#004e88" transform="matrix(.545 0 0 .545 1 1)"/><g transform="matrix(.545 0 0 .545 1 1)"><radialGradient id="h" cx="142.0518" cy="229.6563" r="79.928299" gradientUnits="userSpaceOnUse"><stop offset="0" style="stop-color:#49422c"/><stop offset="0.2876" style="stop-color:#4c432b"/><stop offset="0.673" style="stop-color:#534727"/><stop offset="1" style="stop-color:#5b4d21"/></radialGradient><path d="M254.374 242.179c-72.459-28.175-152.062-28.263-224.65-.421.002-1.072-.016-2.552-.013-3.625 73.286-28.108 151.526-28.027 224.681.42a625.67 625.67 0 0 0-.018 3.626z" style="fill:url(#h)"/></g><g transform="matrix(.545 0 0 .545 1 1)"><radialGradient id="i" cx="142.0547" cy="227.11079" r="80.001404" gradientUnits="userSpaceOnUse"><stop offset="0" style="stop-color:#ceb135"/><stop offset="0.1253" style="stop-color:#cfb23c"/><stop offset="0.2939" style="stop-color:#d0b54d"/><stop offset="0.4869" style="stop-color:#d4bc67"/><stop offset="0.6983" style="stop-color:#d8c589"/><stop offset="0.9221" style="stop-color:#ded1b3"/><stop offset="1" style="stop-color:#e0d6c2"/></radialGradient><path d="M254.377 240.47c-72.458-28.175-152.083-28.263-224.67-.421.002-1.072.005-4.016.008-5.087 73.285-28.109 151.532-28.447 224.688 0-.004 1.071-.023 4.434-.026 5.508z" style="fill:url(#i)"/></g><path d="M148.675 414.863c-.998 0-1.794.33-2.388.99-.593.66-.89 1.552-.89 2.677 0 1.124.297 2.02.89 2.688.594.665 1.39.999 2.388.999 1.003 0 1.8-.332 2.39-.995.59-.663.886-1.56.886-2.691 0-1.125-.296-2.017-.886-2.677-.59-.66-1.387-.991-2.39-.991z" style="fill:none" transform="matrix(.545 0 0 .545 1 1)"/><path d="M155.018 413.229c-1.491-1.249-3.606-1.874-6.343-1.874-2.739 0-4.854.625-6.345 1.874-1.492 1.25-2.238 3.018-2.238 5.301 0 2.291.746 4.063 2.238 5.314 1.491 1.252 3.605 1.879 6.345 1.879 2.736 0 4.852-.627 6.343-1.879 1.492-1.252 2.238-3.023 2.238-5.314 0-2.283-.746-4.051-2.238-5.301zm-.727 9.751c-1.276 1.07-3.165 1.612-5.616 1.612-2.452 0-4.342-.542-5.618-1.612-1.234-1.038-1.834-2.492-1.834-4.45 0-1.95.599-3.4 1.833-4.434 1.276-1.069 3.166-1.611 5.619-1.611 2.451 0 4.342.542 5.617 1.611 1.234 1.033 1.833 2.483 1.833 4.434 0 1.958-.599 3.412-1.834 4.45z" style="fill:url(#j)" transform="matrix(.545 0 0 .545 1 1)"/><path d="m150.573 414.117-.561.988.561-.988a4.564 4.564 0 0 0-1.898-.386c-1.327 0-2.413.46-3.228 1.365-.783.872-1.18 2.025-1.18 3.434 0 1.404.396 2.561 1.175 3.438h.002c.813.916 1.9 1.379 3.23 1.379 1.335 0 2.424-.463 3.234-1.374.778-.873 1.171-2.033 1.171-3.442 0-1.406-.395-2.561-1.173-3.431a3.958 3.958 0 0 0-1.333-.983zm.491 7.105c-.59.663-1.387.995-2.39.995-.998 0-1.794-.334-2.388-.999-.593-.668-.89-1.563-.89-2.688 0-1.125.297-2.017.89-2.677.594-.66 1.39-.99 2.388-.99 1.003 0 1.8.33 2.39.99.59.66.886 1.552.886 2.677 0 1.132-.296 2.029-.886 2.692z" style="fill:url(#k)" transform="matrix(.545 0 0 .545 1 1)"/><path d="M154.292 414.097c-1.275-1.069-3.166-1.611-5.617-1.611-2.453 0-4.343.542-5.619 1.611-1.234 1.033-1.833 2.483-1.833 4.434 0 1.958.6 3.412 1.834 4.45 1.276 1.07 3.166 1.612 5.618 1.612 2.451 0 4.34-.542 5.616-1.612 1.235-1.038 1.834-2.492 1.834-4.45 0-1.951-.599-3.401-1.833-4.434zm-2.383 7.876c-.811.911-1.899 1.374-3.234 1.374-1.33 0-2.418-.463-3.23-1.379h-.002c-.779-.877-1.175-2.033-1.175-3.438 0-1.408.396-2.562 1.18-3.434.814-.905 1.9-1.365 3.228-1.365.703 0 1.336.132 1.898.386v-.001.001c.503.228.951.554 1.334.982.778.87 1.173 2.024 1.173 3.431-.001 1.409-.393 2.57-1.172 3.443z" style="fill:#004e88" transform="matrix(.545 0 0 .545 1 1)"/><g transform="matrix(.545 0 0 .545 1 1)"><radialGradient id="l" cx="142.0518" cy="159.1631" r="79.928299" gradientUnits="userSpaceOnUse"><stop offset="0" style="stop-color:#49422c"/><stop offset="0.2876" style="stop-color:#4c432b"/><stop offset="0.673" style="stop-color:#534727"/><stop offset="1" style="stop-color:#5b4d21"/></radialGradient><path d="M254.374 171.686c-72.459-28.175-152.062-28.263-224.65-.421.002-1.072-.016-2.552-.013-3.625 73.286-28.109 151.526-28.027 224.681.42a626.114 626.114 0 0 0-.018 3.626z" style="fill:url(#l)"/></g><g transform="matrix(.545 0 0 .545 1 1)"><radialGradient id="m" cx="142.0547" cy="156.7144" r="79.9935" gradientUnits="userSpaceOnUse"><stop offset="0" style="stop-color:#ceb135"/><stop offset="0.1253" style="stop-color:#cfb23c"/><stop offset="0.2939" style="stop-color:#d0b54d"/><stop offset="0.4869" style="stop-color:#d4bc67"/><stop offset="0.6983" style="stop-color:#d8c589"/><stop offset="0.9221" style="stop-color:#ded1b3"/><stop offset="1" style="stop-color:#e0d6c2"/></radialGradient><path d="M254.377 169.978c-72.458-28.176-152.083-28.263-224.67-.422.002-1.071.005-3.824.008-4.896 73.285-28.109 151.532-28.447 224.688 0-.004 1.072-.023 4.244-.026 5.318z" style="fill:url(#m)"/></g><path d="M252.481 191.276c-1.364-1.836-4.86-3.973-9.592-5.861a320.37 320.37 0 0 0-30.332-10.335 1.088 1.088 0 0 1-.654-.521l-.217-.392.122-.432c.079-.279.267-.515.52-.655.252-.141.552-.176.83-.096 10.43 2.985 20.89 6.049 30.539 10.406 9.488 4.283 9.394 8.706 8.784 7.886z" style="fill:url(#n)" transform="matrix(.545 0 0 .545 1 1)"/><g transform="matrix(.545 0 0 .545 1 1)"><path d="M51.281 194.203c5.799-1.844 11.721-3.504 17.627-4.999l1.404-2.375a307.95 307.95 0 0 0-19.618 5.525l-1.252 2.432z" style="fill:#80a7c6;stroke:#80a7c6;stroke-width:2.1802;stroke-linejoin:round"/><path d="m72.379 179.322-1.14-4.904a1.088 1.088 0 0 0-1.313-.814 323.244 323.244 0 0 0-37.094 11.185 1.086 1.086 0 0 0-.642 1.411l11.633 30.236c.214.556.833.834 1.393.628a289.085 289.085 0 0 1 10.322-3.58 1.086 1.086 0 0 0 .698-1.374l-3.864-11.828.813-.257a303.084 303.084 0 0 1 17.213-4.883 1.092 1.092 0 0 0 .79-1.322l-1.224-4.88a1.087 1.087 0 0 0-1.324-.792c-6.21 1.571-12.161 3.259-17.69 5.017l-.804.256-2.034-6.296.813-.258c7.146-2.27 14.764-4.368 22.644-6.236a1.091 1.091 0 0 0 .81-1.309z" style="fill:#004f8a"/><path d="m46.739 186.416 2.704 8.37 1.252-2.432-1.513-4.68z" style="fill:#003760;stroke:#003760;stroke-width:2.1802;stroke-linejoin:round"/><path d="M57.641 213.678a5833.339 5833.339 0 0 1-4.196-12.847l-2.45-1.257s3.324 10.178 4.206 12.874z" style="fill:#003760"/><path d="M50.288 198.744a1.09 1.09 0 0 0-.329 1.168l4.206 12.874c.089.276.286.504.545.635l2.441 1.23a1.09 1.09 0 0 0 1.526-1.313l-4.196-12.845a1.086 1.086 0 0 0-.538-.632l-2.45-1.258a1.093 1.093 0 0 0-1.205.141z" style="fill:#003760"/><path d="M53.444 200.831a299.19 299.19 0 0 1 19.033-5.361l-2.345-1.385a303.185 303.185 0 0 0-17.274 4.899l-1.863.589z" style="fill:#141515"/><linearGradient id="o" x1="49.9048" x2="73.566399" y1="197.45799" y2="197.45799" gradientUnits="userSpaceOnUse"><stop offset="0.1322" style="stop-color:#003760"/><stop offset="1" style="stop-color:#292725"/></linearGradient><path d="M69.864 193.028a304.284 304.284 0 0 0-17.337 4.917l-1.861.588a1.089 1.089 0 0 0-.757.948c-.038.441.194.86.587 1.061l2.45 1.258c.257.132.553.157.828.069a299.826 299.826 0 0 1 18.963-5.342 1.089 1.089 0 0 0 .294-1.996l-2.344-1.386a1.096 1.096 0 0 0-.823-.117Z" style="fill:url(#o)"/><linearGradient id="p" x1="69.727501" x2="71.255898" y1="185.8604" y2="196.1178" gradientUnits="userSpaceOnUse"><stop offset="0.0041" style="stop-color:#003760"/><stop offset="0.9421" style="stop-color:#292725"/></linearGradient><path d="m73.534 195.205-2.165-8.64a1.09 1.09 0 0 0-1.995-.291l-1.404 2.375a1.094 1.094 0 0 0-.119.82l1.224 4.882c.071.283.252.525.502.673l2.345 1.385a1.088 1.088 0 0 0 1.612-1.204z" style="fill:url(#p)"/><linearGradient id="q" x1="45.649399" x2="74.726601" y1="183.6221" y2="183.6221" gradientUnits="userSpaceOnUse"><stop offset="0.1322" style="stop-color:#003760"/><stop offset="1" style="stop-color:#292725"/></linearGradient><path d="m74.204 180.052-2.319-1.414a1.089 1.089 0 0 0-.819-.131c-7.932 1.881-15.603 3.994-22.799 6.28l-1.857.589a1.09 1.09 0 0 0-.17 2.008l2.444 1.259c.256.133.554.158.83.07a313.179 313.179 0 0 1 24.368-6.669c.432-.1.761-.451.832-.889a1.093 1.093 0 0 0-.51-1.103z" style="fill:url(#q)"/><linearGradient id="r" x1="49.735401" x2="51.431099" y1="173.8188" y2="179.3898" gradientUnits="userSpaceOnUse"><stop offset="0" style="stop-color:#b8d6e3"/><stop offset="0.4053" style="stop-color:#b7d5e2"/><stop offset="0.5513" style="stop-color:#b0cfdf"/><stop offset="0.6554" style="stop-color:#a4c3d7"/><stop offset="0.7395" style="stop-color:#94b3ce"/><stop offset="0.8116" style="stop-color:#7e9fc1"/><stop offset="0.8755" style="stop-color:#6388b1"/><stop offset="0.9332" style="stop-color:#3f6ea0"/><stop offset="0.9845" style="stop-color:#00558e"/><stop offset="0.9959" style="stop-color:#004f8a"/></linearGradient><path d="M72.504 171.673a1.09 1.09 0 0 0-1.129-.426 325.46 325.46 0 0 0-41.068 12.383 1.09 1.09 0 0 0-.073 2.011l2.519 1.16c.263.121.562.133.833.033a320.841 320.841 0 0 1 36.843-11.108c.282-.067.526-.244.679-.492l1.442-2.354c.228-.375.211-.85-.046-1.207z" style="fill:url(#r)"/><linearGradient id="s" x1="71.455597" x2="72.278801" y1="171.68649" y2="182.8717" gradientUnits="userSpaceOnUse"><stop offset="0.0041" style="stop-color:#003760"/><stop offset="0.6198" style="stop-color:#292725"/></linearGradient><path d="m74.698 180.735-2.017-8.671a1.091 1.091 0 0 0-1.991-.324l-1.442 2.355a1.091 1.091 0 0 0-.132.816l1.14 4.904c.067.285.245.531.495.683l2.319 1.414a1.088 1.088 0 0 0 1.628-1.177z" style="fill:url(#s)"/><linearGradient id="t" x1="29.5986" x2="45.929199" y1="201.58009" y2="201.58009" gradientUnits="userSpaceOnUse"><stop offset="0" style="stop-color:#79adcf"/><stop offset="0.4266" style="stop-color:#78accf"/><stop offset="0.5803" style="stop-color:#72a6cb"/><stop offset="0.6898" style="stop-color:#689cc4"/><stop offset="0.7784" style="stop-color:#5a8fba"/><stop offset="0.8542" style="stop-color:#467eae"/><stop offset="0.9213" style="stop-color:#2c6a9f"/><stop offset="0.9805" style="stop-color:#00558e"/><stop offset="0.9959" style="stop-color:#004f8a"/></linearGradient><path d="m45.855 215.647-11.628-30.224a1.098 1.098 0 0 0-.562-.602l-2.52-1.16a1.088 1.088 0 0 0-1.474 1.378L42.7 218.902a1.087 1.087 0 0 0 2.008.056l1.124-2.465c.121-.265.129-.573.023-.846z" style="fill:url(#t)"/><path d="M55.2 212.447a287.998 287.998 0 0 0-10.36 3.594l-1.124 2.465a286.632 286.632 0 0 1 13.925-4.829z" style="fill:#141515"/><linearGradient id="u" x1="42.6255" x2="58.730499" y1="215.47749" y2="215.47749" gradientUnits="userSpaceOnUse"><stop offset="0.0041" style="stop-color:#003760"/><stop offset="0.9421" style="stop-color:#292725"/></linearGradient><path d="M54.862 211.411a292.16 292.16 0 0 0-10.4 3.607c-.272.1-.494.306-.615.571l-1.124 2.465a1.092 1.092 0 0 0 1.376 1.473 285 285 0 0 1 13.873-4.81 1.09 1.09 0 0 0 .159-2.013l-2.441-1.231a1.096 1.096 0 0 0-.828-.062z" style="fill:url(#u)"/><path d="M131.307 198.116a294.753 294.753 0 0 0-16.885-18.831l-.604-.616.626-.593c3.402-3.221 7.276-6.669 11.844-10.54a1.088 1.088 0 0 0 .307-1.239 1.09 1.09 0 0 0-1.077-.681c-5.711.348-10.759.768-15.434 1.281a1.096 1.096 0 0 0-.67.332 292.772 292.772 0 0 0-12.408 13.848l-1.191 1.422-1.98-12.273a1.09 1.09 0 0 0-1.255-.901c-4.106.684-8.24 1.457-12.288 2.293a1.088 1.088 0 0 0-.844 1.299l6.855 31.619c.126.584.7.957 1.285.836a287.337 287.337 0 0 1 10.541-1.968 1.09 1.09 0 0 0 .897-1.251l-1.332-8.121.291-.304 5.809-5.906.612-.605.595.621a299.407 299.407 0 0 1 11.428 12.638c.231.27.58.412.936.376a282.24 282.24 0 0 1 13.156-.956 1.09 1.09 0 0 0 .786-1.78z" style="fill:#004e88"/><linearGradient id="v" x1="84.820297" x2="86.669899" y1="161.38721" y2="171.8765" gradientUnits="userSpaceOnUse"><stop offset="0" style="stop-color:#b8d6e3"/><stop offset="0.4053" style="stop-color:#b7d5e2"/><stop offset="0.5513" style="stop-color:#b0cfdf"/><stop offset="0.6554" style="stop-color:#a4c3d7"/><stop offset="0.7395" style="stop-color:#94b3ce"/><stop offset="0.8116" style="stop-color:#7e9fc1"/><stop offset="0.8755" style="stop-color:#6388b1"/><stop offset="0.9332" style="stop-color:#3f6ea0"/><stop offset="0.9845" style="stop-color:#00558e"/><stop offset="0.9959" style="stop-color:#004f8a"/></linearGradient><path d="M95.285 167.583a1.088 1.088 0 0 0-1.099-.502 324.623 324.623 0 0 0-16.212 3.025 1.089 1.089 0 0 0-.37 1.978l2.311 1.515c.241.158.536.214.818.155 4.02-.831 8.126-1.597 12.205-2.277a1.09 1.09 0 0 0 .708-.442l1.601-2.244c.254-.359.27-.835.038-1.208z" style="fill:url(#v)"/><linearGradient id="w" x1="77.110397" x2="88.457001" y1="188.87601" y2="188.87601" gradientUnits="userSpaceOnUse"><stop offset="0" style="stop-color:#79adcf"/><stop offset="0.4266" style="stop-color:#78accf"/><stop offset="0.5803" style="stop-color:#72a6cb"/><stop offset="0.6898" style="stop-color:#689cc4"/><stop offset="0.7784" style="stop-color:#5a8fba"/><stop offset="0.8542" style="stop-color:#467eae"/><stop offset="0.9213" style="stop-color:#2c6a9f"/><stop offset="0.9805" style="stop-color:#00558e"/><stop offset="0.9959" style="stop-color:#004f8a"/></linearGradient><path d="m88.432 204.073-6.855-31.618a1.089 1.089 0 0 0-.468-.681l-2.311-1.515a1.09 1.09 0 0 0-1.664 1.14l7.676 35.413a1.09 1.09 0 0 0 1.977.363l1.49-2.275c.161-.243.217-.541.155-.827z" style="fill:url(#w)"/><linearGradient id="x" x1="84.786598" x2="101.2612" y1="204.4541" y2="204.4541" gradientUnits="userSpaceOnUse"><stop offset="0.0041" style="stop-color:#003760"/><stop offset="0.9421" style="stop-color:#292725"/></linearGradient><path d="m100.803 203.021-2.223-1.582a1.094 1.094 0 0 0-.812-.187c-3.55.595-7.123 1.262-10.622 1.984a1.086 1.086 0 0 0-.691.47l-1.49 2.275a1.09 1.09 0 0 0 1.14 1.663 282.843 282.843 0 0 1 14.238-2.659 1.09 1.09 0 0 0 .46-1.964z" style="fill:url(#x)"/><linearGradient id="y" x1="95.439903" x2="101.2612" y1="198.791" y2="198.791" gradientUnits="userSpaceOnUse"><stop offset="0.0041" style="stop-color:#003760"/><stop offset="0.6198" style="stop-color:#292725"/></linearGradient><path d="m101.247 203.733-1.572-9.595a1.089 1.089 0 0 0-.753-.866l-2.069-.642a1.089 1.089 0 0 0-1.398 1.217l1.418 8.657c.047.287.207.543.444.712l2.223 1.581a1.089 1.089 0 0 0 1.707-1.064z" style="fill:url(#y)"/><path d="M104.854 184.662a1.09 1.09 0 0 0-1.193.228l-1.399 1.38-5.854 5.953-.666.696a1.095 1.095 0 0 0-.267 1.027c.094.365.372.656.732.768l2.069.642c.389.121.825.002 1.112-.289l5.767-5.864c.196-.2.32-.48.324-.761l.038-2.761a1.09 1.09 0 0 0-.663-1.019z" style="fill:#121312"/><path d="M118.085 199.06a301.148 301.148 0 0 0-11.511-12.73l-1.36-1.419a1.091 1.091 0 0 0-1.877.74l-.039 2.761a1.09 1.09 0 0 0 .304.769 296.462 296.462 0 0 1 12.011 13.308 1.091 1.091 0 0 0 1.843-.297l.812-2.014a1.093 1.093 0 0 0-.183-1.118z" style="fill:#003760"/><path d="M135.245 199.859a294.687 294.687 0 0 0-19.439-21.929 1.088 1.088 0 0 0-.758-.328l-2.763-.053a1.09 1.09 0 0 0-.799 1.852l1.378 1.408a292.666 292.666 0 0 1 16.76 18.692c.108.132.246.236.402.305l3.929 1.731c.46.202.998.064 1.305-.333a1.092 1.092 0 0 0-.015-1.345z" style="fill:#00437a"/><linearGradient id="z" x1="115.3545" x2="135.4834" y1="200.29491" y2="200.29491" gradientUnits="userSpaceOnUse"><stop offset="0.0041" style="stop-color:#003760"/><stop offset="0.9421" style="stop-color:#292725"/></linearGradient><path d="m134.834 199.542-3.931-1.732a1.1 1.1 0 0 0-.494-.091c-4.782.244-9.119.559-13.259.963a1.09 1.09 0 0 0-.904.677l-.813 2.014a1.092 1.092 0 0 0 1.121 1.493c5.928-.6 11.944-1.016 17.881-1.237a1.09 1.09 0 0 0 .399-2.087z" style="fill:url(#z)"/><linearGradient id="A" x1="119.9658" x2="120.4158" y1="160.70171" y2="167.1371" gradientUnits="userSpaceOnUse"><stop offset="0" style="stop-color:#b8d6e3"/><stop offset="0.4053" style="stop-color:#b7d5e2"/><stop offset="0.5513" style="stop-color:#b0cfdf"/><stop offset="0.6554" style="stop-color:#a4c3d7"/><stop offset="0.7395" style="stop-color:#94b3ce"/><stop offset="0.8116" style="stop-color:#7e9fc1"/><stop offset="0.8755" style="stop-color:#6388b1"/><stop offset="0.9332" style="stop-color:#3f6ea0"/><stop offset="0.9845" style="stop-color:#00558e"/><stop offset="0.9959" style="stop-color:#004f8a"/></linearGradient><path d="M132.353 164.19a1.088 1.088 0 0 0-1.111-.86 323.5 323.5 0 0 0-22.078 1.71 1.091 1.091 0 0 0-.856 1.565l.918 1.859a1.09 1.09 0 0 0 1.097.601c4.639-.51 9.652-.927 15.327-1.273.116-.007.231-.033.339-.076l5.705-2.285c.493-.197.771-.721.659-1.241z" style="fill:url(#A)"/><linearGradient id="B" x1="99.111801" x2="106.2399" y1="172.98289" y2="178.9641" gradientUnits="userSpaceOnUse"><stop offset="0" style="stop-color:#b8d6e3"/><stop offset="0.1216" style="stop-color:#b2d0e0"/><stop offset="0.2869" style="stop-color:#a1c0d6"/><stop offset="0.4773" style="stop-color:#85a5c5"/><stop offset="0.6863" style="stop-color:#5c83af"/><stop offset="0.9082" style="stop-color:#215d94"/><stop offset="0.9959" style="stop-color:#004f8a"/></linearGradient><path d="m111.18 167.5-.918-1.859a1.09 1.09 0 0 0-1.765-.272 294.37 294.37 0 0 0-12.977 14.465c-.1.12-.174.26-.216.411l-1.237 4.494a1.09 1.09 0 0 0 1.886.99l2.723-3.249a291.02 291.02 0 0 1 12.314-13.745c.318-.332.393-.825.19-1.235z" style="fill:url(#B)"/><linearGradient id="C" x1="92.051804" x2="95.3741" y1="175.7861" y2="176.7829" gradientUnits="userSpaceOnUse"><stop offset="0.0041" style="stop-color:#003760"/><stop offset="0.6198" style="stop-color:#292725"/></linearGradient><path d="m97.433 180.359-1.997-12.375a1.09 1.09 0 0 0-1.964-.46l-1.601 2.244a1.087 1.087 0 0 0-.189.807l2.36 14.627a1.09 1.09 0 0 0 2.128.116l1.238-4.494c.041-.152.05-.31.025-.465z" style="fill:url(#C)"/><linearGradient id="D" x1="111.1738" x2="132.3779" y1="171.55569" y2="171.55569" gradientUnits="userSpaceOnUse"><stop offset="0.0041" style="stop-color:#003760"/><stop offset="0.6198" style="stop-color:#292725"/></linearGradient><path d="M132.227 163.867a1.09 1.09 0 0 0-1.344-.459l-5.705 2.285c-.109.044-.21.104-.299.18-4.6 3.897-8.503 7.371-11.934 10.621l-1.431 1.354a1.09 1.09 0 0 0 .729 1.882l2.763.053c.285.005.562-.102.77-.299a288.983 288.983 0 0 1 16.199-14.218c.419-.341.526-.935.252-1.399z" style="fill:url(#D)"/><path d="m151.578 172.07 1.938.032 1.843-.6z" style="fill:#004b72"/><path d="m183.61 173.393 1.744.849 1.923.23z" style="fill:#00335b"/><path d="M199.974 169.507a1.09 1.09 0 0 0-.714-.441 319.751 319.751 0 0 0-20.387-2.621 1.09 1.09 0 0 0-1.097.636 512.03 512.03 0 0 0-8.588 20.089s-.514 1.277-1.01 2.516l-.604-2.644a533.18 533.18 0 0 0-5.266-20.994 1.09 1.09 0 0 0-1.008-.803 320.738 320.738 0 0 0-20.776-.143c-.289.008-.564.13-.765.341a1.097 1.097 0 0 0-.297.784l1.026 32.324a1.091 1.091 0 0 0 1.116 1.055c3.507-.086 6.625-.116 9.536-.089a1.091 1.091 0 0 0 1.1-1.072l.411-25.432 1.94-.292a496.514 496.514 0 0 1 7.703 26.356c.119.454.53.781.997.813l8.494.57c.465.031.914-.235 1.095-.666a506.31 506.31 0 0 1 11.317-25.09c.697.205 1.194.352 1.885.554l-3.052 25.263a1.09 1.09 0 0 0 .946 1.212c3.2.403 6.403.861 9.522 1.362a1.09 1.09 0 0 0 1.247-.894l5.412-31.876a1.07 1.07 0 0 0-.183-.818z" style="fill:#004e88"/><path d="m187.277 174.472-1.924-.23c-1.121 9.36-2.253 18.72-3.393 28.08l2.155-1.671c.402-3.314 3.162-26.179 3.162-26.179z" style="fill:#2d6085"/><linearGradient id="E" x1="192.58501" x2="202.41991" y1="186.37061" y2="186.37061" gradientUnits="userSpaceOnUse"><stop offset="0.0041" style="stop-color:#003760"/><stop offset="0.9421" style="stop-color:#292725"/></linearGradient><path d="M201.904 167.588a1.09 1.09 0 0 0-1.215.044l-2.243 1.627c-.23.167-.387.418-.434.7l-5.412 31.876c-.049.288.02.582.189.82l1.59 2.208a1.09 1.09 0 0 0 1.96-.452l6.064-35.716a1.082 1.082 0 0 0-.499-1.107z" style="fill:url(#E)"/><linearGradient id="F" x1="190.29201" x2="189.2019" y1="160.2412" y2="168.9622" gradientUnits="userSpaceOnUse"><stop offset="0" style="stop-color:#b8d6e3"/><stop offset="0.4053" style="stop-color:#b7d5e2"/><stop offset="0.5513" style="stop-color:#b0cfdf"/><stop offset="0.6554" style="stop-color:#a4c3d7"/><stop offset="0.7395" style="stop-color:#94b3ce"/><stop offset="0.8116" style="stop-color:#7e9fc1"/><stop offset="0.8755" style="stop-color:#6388b1"/><stop offset="0.9332" style="stop-color:#3f6ea0"/><stop offset="0.9845" style="stop-color:#00558e"/><stop offset="0.9959" style="stop-color:#004f8a"/></linearGradient><path d="M202.392 168.266a1.092 1.092 0 0 0-.882-.826 321.797 321.797 0 0 0-23.842-3.078 1.09 1.09 0 0 0-1.043 1.631l1.199 2.082c.177.306.49.508.841.541a317.672 317.672 0 0 1 20.249 2.603c.286.046.579-.022.813-.194l2.242-1.626c.356-.26.522-.706.423-1.133z" style="fill:url(#F)"/><linearGradient id="G" x1="150.65919" x2="150.65919" y1="157.3701" y2="165.7271" gradientUnits="userSpaceOnUse"><stop offset="0" style="stop-color:#b8d6e3"/><stop offset="0.4053" style="stop-color:#b7d5e2"/><stop offset="0.5513" style="stop-color:#b0cfdf"/><stop offset="0.6554" style="stop-color:#a4c3d7"/><stop offset="0.7395" style="stop-color:#94b3ce"/><stop offset="0.8116" style="stop-color:#7e9fc1"/><stop offset="0.8755" style="stop-color:#6388b1"/><stop offset="0.9332" style="stop-color:#3f6ea0"/><stop offset="0.9845" style="stop-color:#00558e"/><stop offset="0.9959" style="stop-color:#004f8a"/></linearGradient><path d="M163.757 163.993a1.091 1.091 0 0 0-.943-.638 322.075 322.075 0 0 0-24.294-.16 1.09 1.09 0 0 0-.717 1.879l1.999 1.906c.21.199.491.308.78.301 6.97-.175 13.911-.128 20.633.141.347.014.68-.138.896-.41l1.507-1.889c.254-.32.308-.757.139-1.13z" style="fill:url(#G)"/><path d="M141.643 166.157a1.084 1.084 0 0 0-.337-.755l-2-1.906a1.09 1.09 0 0 0-1.842.823l1.15 36.198a1.09 1.09 0 0 0 1.878.718l1.876-1.967a1.09 1.09 0 0 0 .301-.787z" style="fill:#5289b3"/><linearGradient id="H" x1="170.0117" x2="173.8885" y1="178.0264" y2="179.9649" gradientUnits="userSpaceOnUse"><stop offset="0" style="stop-color:#b8d6e3"/><stop offset="0.1216" style="stop-color:#b2d0e0"/><stop offset="0.2869" style="stop-color:#a1c0d6"/><stop offset="0.4773" style="stop-color:#85a5c5"/><stop offset="0.6863" style="stop-color:#5c83af"/><stop offset="0.9082" style="stop-color:#215d94"/><stop offset="0.9959" style="stop-color:#004f8a"/></linearGradient><path d="m179.714 166.985-1.199-2.083a1.092 1.092 0 0 0-1.937.092 514.853 514.853 0 0 0-9.014 21.027 1.109 1.109 0 0 0-.073.299l-.685 6.896a1.091 1.091 0 0 0 2.096.515l2.31-5.75a511.886 511.886 0 0 1 8.55-20.002 1.09 1.09 0 0 0-.048-.994z" style="fill:url(#H)"/><linearGradient id="I" x1="179.0518" x2="163.06351" y1="168.07179" y2="180.6683" gradientUnits="userSpaceOnUse"><stop offset="0" style="stop-color:#b8d6e3"/><stop offset="0.1734" style="stop-color:#b5d3e2"/><stop offset="0.3289" style="stop-color:#abc9db"/><stop offset="0.4775" style="stop-color:#99b8d1"/><stop offset="0.6219" style="stop-color:#7fa0c1"/><stop offset="0.7632" style="stop-color:#5e84af"/><stop offset="0.9003" style="stop-color:#326599"/><stop offset="0.9959" style="stop-color:#004f8a"/></linearGradient><path d="M169.228 185.625a534.638 534.638 0 0 0-5.412-21.47 1.092 1.092 0 0 0-1.903-.391l-1.507 1.889a1.09 1.09 0 0 0-.199.966 531.787 531.787 0 0 1 5.243 20.907l1.379 6.041a1.09 1.09 0 0 0 2.148-.135l.685-6.896c.003-.037.005-.073.005-.108-.002-.334-.189-.6-.439-.803z" style="fill:url(#I)"/><linearGradient id="J" x1="150.06149" x2="164.4404" y1="186.0562" y2="186.0562" gradientUnits="userSpaceOnUse"><stop offset="0.0041" style="stop-color:#141515"/><stop offset="0.2231" style="stop-color:#003760"/><stop offset="0.2901" style="stop-color:#17466f"/><stop offset="0.4275" style="stop-color:#3d6a90"/><stop offset="0.5614" style="stop-color:#5b8db0"/><stop offset="0.6886" style="stop-color:#74accc"/><stop offset="0.8074" style="stop-color:#87c2e1"/><stop offset="0.9145" style="stop-color:#93d1ee"/><stop offset="1" style="stop-color:#97d6f2"/></linearGradient><path d="M164.405 198.524a498.057 498.057 0 0 0-8.009-27.358 1.093 1.093 0 0 0-.542-.634c-.258-.131-1.481-.244-2.661-.087-1.181.156-2.695 1.006-2.705 1.608l-.427 26.355c-.005.291.107.571.311.779l1.908 1.953a1.09 1.09 0 0 0 1.87-.744l.349-21.571a490.179 490.179 0 0 1 6.287 22.102c.103.397.421.704.822.792.4.087.818-.058 1.078-.377l1.51-1.854c.22-.269.297-.628.209-.964z" style="fill:url(#J)"/><linearGradient id="K" x1="138.6133" x2="154.1494" y1="199.4492" y2="199.4492" gradientUnits="userSpaceOnUse"><stop offset="0.0041" style="stop-color:#003760"/><stop offset="0.9421" style="stop-color:#292725"/></linearGradient><path d="m153.84 199.617-1.908-1.953a1.088 1.088 0 0 0-.771-.329c-2.934-.026-6.075.002-9.607.089-.29.007-.563.128-.763.338l-1.876 1.967a1.088 1.088 0 0 0 .823 1.841c4.403-.139 8.88-.174 13.304-.103a1.091 1.091 0 0 0 .798-1.85z" style="fill:url(#K)"/><linearGradient id="L" x1="188.51559" x2="168.89391" y1="187.8203" y2="187.8203" gradientUnits="userSpaceOnUse"><stop offset="0.0041" style="stop-color:#79adcf"/><stop offset="0.0564" style="stop-color:#73a7ca"/><stop offset="0.1312" style="stop-color:#6595ba"/><stop offset="0.2194" style="stop-color:#4f7ba1"/><stop offset="0.3179" style="stop-color:#315a82"/><stop offset="0.4237" style="stop-color:#003a63"/><stop offset="0.4339" style="stop-color:#003760"/><stop offset="0.9835" style="stop-color:#141515"/></linearGradient><path d="M187.446 173.8c-.179-.228-.809-1.061-1.595-1.387-.787-.327-2.323-.145-2.597-.05a1.087 1.087 0 0 0-.624.553 507.288 507.288 0 0 0-11.759 26.035c-.135.321-.107.687.071.984l1.229 2.038a1.09 1.09 0 0 0 1.941-.145 497.88 497.88 0 0 1 8.434-19.135l-2.355 19.5a1.09 1.09 0 0 0 1.75.994l2.154-1.671a1.09 1.09 0 0 0 .414-.731l3.162-26.179a1.092 1.092 0 0 0-.225-.806z" style="fill:url(#L)"/><linearGradient id="M" x1="160.75" x2="174.1963" y1="200.10451" y2="200.10451" gradientUnits="userSpaceOnUse"><stop offset="0.0041" style="stop-color:#003760"/><stop offset="0.9421" style="stop-color:#292725"/></linearGradient><path d="m174.04 200.848-1.229-2.038c-.185-.306-.49-.5-.845-.524l-8.559-.574a1.058 1.058 0 0 0-.901.4l-1.512 1.854a1.09 1.09 0 0 0 .793 1.778c3.751.177 7.527.431 11.224.753.408.036.803-.161 1.021-.509.216-.349.22-.789.008-1.14z" style="fill:url(#M)"/><linearGradient id="N" x1="180.87109" x2="196.3555" y1="202.439" y2="202.439" gradientUnits="userSpaceOnUse"><stop offset="0.0041" style="stop-color:#003760"/><stop offset="0.9421" style="stop-color:#292725"/></linearGradient><path d="m196.15 203.589-1.591-2.208a1.09 1.09 0 0 0-.712-.439 288.376 288.376 0 0 0-9.596-1.372 1.092 1.092 0 0 0-.804.22l-2.154 1.67a1.088 1.088 0 0 0 .539 1.944c4.418.527 8.877 1.166 13.253 1.898a1.09 1.09 0 0 0 1.065-1.713z" style="fill:url(#N)"/><path d="M228.612 204.341c2.308.871 3.87 1.262 4.714 1.139.84-.124 1.474-.696 1.893-1.726.433-1.058.374-1.932-.184-2.617-.557-.686-1.983-1.483-4.288-2.354a302.097 302.097 0 0 0-10.287-3.664l-1.923 5.631a292.523 292.523 0 0 1 10.075 3.591zM232.942 191.423c2.156.81 3.615 1.185 4.389 1.095.771-.09 1.337-.579 1.694-1.469.363-.905.317-1.644-.142-2.218-.458-.571-1.834-1.309-4.134-2.171a314.607 314.607 0 0 0-10.183-3.616c-.546 1.607-1.091 3.216-1.639 4.824a311.397 311.397 0 0 1 10.015 3.555z" style="fill:none"/><path d="m213.813 172.051-1.331-2.412a1.09 1.09 0 0 0-2.004.233l-9.859 34.854a1.091 1.091 0 0 0 1.574 1.254l2.387-1.316c.255-.14.443-.377.522-.657l8.806-31.132a1.106 1.106 0 0 0-.095-.824z" style="fill:#749fc0"/><path d="M254.231 188.522c-2.078-2.797-6.876-5.125-10.534-6.585a322.373 322.373 0 0 0-30.539-10.406 1.087 1.087 0 0 0-.83.096c-.253.141-.44.377-.52.655l-8.805 31.133a1.09 1.09 0 0 0 .749 1.344 285.659 285.659 0 0 1 28.74 9.92c4.318 1.759 7.726 2.352 10.42 1.813 2.649-.531 4.677-2.228 6.024-5.045.537-1.122.837-2.17.917-3.205a6.829 6.829 0 0 0-.154-2.091c-.391-1.684-1.463-3.26-3.186-4.687l-1.751-1.45 2.271-.052c1.828-.042 3.396-.44 4.661-1.188 1.281-.755 2.234-1.831 2.912-3.288.487-1.042.76-1.997.832-2.919.116-1.451-.291-2.812-1.207-4.045zm-21.586 3.695a311.591 311.591 0 0 0-9.985-3.546l-.806-.271 2.182-6.43.801.269c3.396 1.14 6.83 2.36 10.212 3.627 3.64 1.364 4.285 2.17 4.497 2.436.323.403.627 1.019.56 1.881a3.984 3.984 0 0 1-.292 1.18c-.598 1.49-1.626 1.908-2.383 1.997-.919.107-2.395-.246-4.786-1.143zm-12.715 1.83.801.268a304.341 304.341 0 0 1 10.315 3.674c3.643 1.377 4.4 2.306 4.647 2.612.372.458.723 1.159.646 2.135a4.49 4.49 0 0 1-.335 1.338c-.67 1.641-1.759 2.125-2.556 2.244-.991.146-2.576-.219-5.135-1.184a300.45 300.45 0 0 0-10.048-3.581l-.809-.271c.492-1.433 1.988-5.815 2.474-7.235z" style="fill:#004f8a"/><linearGradient id="O" x1="228.55569" x2="225.28551" y1="195.6255" y2="180.7282" gradientTransform="rotate(4.468 257.085 231.026)" gradientUnits="userSpaceOnUse"><stop offset="0.0041" style="stop-color:#79adcf"/><stop offset="0.0739" style="stop-color:#75a8cb"/><stop offset="0.1552" style="stop-color:#6a9bbf"/><stop offset="0.2423" style="stop-color:#5886ac"/><stop offset="0.3334" style="stop-color:#416c93"/><stop offset="0.4266" style="stop-color:#244f77"/><stop offset="0.5083" style="stop-color:#003760"/><stop offset="0.7934" style="stop-color:#141515"/></linearGradient><path d="M241.246 186.938c-.608-.761-1.73-1.727-5.434-3.114a319.137 319.137 0 0 0-10.282-3.652l-1.831-.614a1.089 1.089 0 0 0-1.324 1.517l1.215 2.453c.128.259.355.457.63.55 3.395 1.14 6.81 2.353 10.148 3.603 2.989 1.12 3.577 1.723 3.664 1.832.079.098.289.361-.019 1.131-.293.731-.643.772-.81.792-.321.038-1.249-.048-3.879-1.033a319.04 319.04 0 0 0-10.049-3.569 1.086 1.086 0 0 0-.831.057l-2.46 1.217a1.092 1.092 0 0 0 .135 2.01l1.845.62a311.02 311.02 0 0 1 9.915 3.521h-.001c2.807 1.054 4.488 1.42 5.804 1.266.885-.104 3.063-.638 4.152-3.35 1.089-2.711-.048-4.564-.588-5.237z" style="fill:url(#O)"/><linearGradient id="P" x1="222.7617" x2="229.0594" y1="210.36279" y2="190.01579" gradientTransform="rotate(4.468 257.085 231.026)" gradientUnits="userSpaceOnUse"><stop offset="0.0041" style="stop-color:#79adcf"/><stop offset="0.0739" style="stop-color:#75a8cb"/><stop offset="0.1552" style="stop-color:#6a9bbf"/><stop offset="0.2423" style="stop-color:#5886ac"/><stop offset="0.3334" style="stop-color:#416c93"/><stop offset="0.4266" style="stop-color:#244f77"/><stop offset="0.5083" style="stop-color:#003760"/><stop offset="0.7934" style="stop-color:#141515"/></linearGradient><path d="M237.386 199.226c-.642-.788-1.854-1.871-5.57-3.276a305.94 305.94 0 0 0-10.392-3.702l-1.829-.613a1.09 1.09 0 0 0-1.323 1.517l1.211 2.449c.129.26.356.458.631.55a304.808 304.808 0 0 1 10.25 3.65c2.846 1.075 3.623 1.771 3.825 2.021.117.145.428.526.021 1.518-.393.964-.865 1.034-1.043 1.06-.352.051-1.361-.02-4.169-1.08a297.685 297.685 0 0 0-10.113-3.604 1.087 1.087 0 0 0-.83.056l-2.465 1.217a1.091 1.091 0 0 0 .136 2.011l1.847.62a295.811 295.811 0 0 1 9.973 3.553c3.004 1.132 4.808 1.509 6.223 1.302 1.112-.165 3.144-.848 4.255-3.577 1.199-2.933-.048-4.943-.638-5.672z" style="fill:url(#P)"/><linearGradient id="Q" x1="217.3555" x2="233.70621" y1="154.8101" y2="236.564" gradientTransform="rotate(4.468 257.085 231.026)" gradientUnits="userSpaceOnUse"><stop offset="0.0041" style="stop-color:#79adcf"/><stop offset="0.0191" style="stop-color:#6397c0"/><stop offset="0.0524" style="stop-color:#336ea2"/><stop offset="0.0774" style="stop-color:#005790"/><stop offset="0.0909" style="stop-color:#004f8a"/><stop offset="0.1175" style="stop-color:#195e96"/><stop offset="0.1719" style="stop-color:#477eae"/><stop offset="0.2206" style="stop-color:#6397c0"/><stop offset="0.2614" style="stop-color:#73a7cb"/><stop offset="0.2893" style="stop-color:#79adcf"/><stop offset="0.3879" style="stop-color:#78abcd"/><stop offset="0.4312" style="stop-color:#73a4c4"/><stop offset="0.4637" style="stop-color:#6c98b5"/><stop offset="0.4908" style="stop-color:#6287a0"/><stop offset="0.5145" style="stop-color:#557387"/><stop offset="0.5359" style="stop-color:#465c6c"/><stop offset="0.5554" style="stop-color:#36444f"/><stop offset="0.5731" style="stop-color:#252c33"/><stop offset="0.5785" style="stop-color:#1e242a"/><stop offset="0.843" style="stop-color:#004f8a"/><stop offset="1" style="stop-color:#79adcf"/></linearGradient><path d="M255.787 187.365c-1.888-2.537-5.713-4.969-11.37-7.229a325.169 325.169 0 0 0-32.596-11.02 1.09 1.09 0 0 0-1.249 1.577l1.331 2.412c.141.253.375.441.654.521a320.658 320.658 0 0 1 30.332 10.336c4.731 1.888 8.228 4.024 9.592 5.86.609.82.858 1.638.785 2.575-.051.657-.258 1.365-.633 2.167-.486 1.045-1.156 1.807-2.046 2.331-.939.556-2.151.854-3.602.887l-5.194.118a1.089 1.089 0 0 0-.671 1.929l4.004 3.313c1.346 1.114 2.172 2.293 2.452 3.5.107.461.143.94.104 1.427-.06.763-.292 1.559-.711 2.434-1.065 2.227-2.49 3.449-4.485 3.849-2.261.452-5.262-.102-9.17-1.694a288.063 288.063 0 0 0-28.962-9.997 1.085 1.085 0 0 0-.827.093l-2.387 1.315a1.09 1.09 0 0 0 .233 2.004 284.073 284.073 0 0 1 30.39 10.397c4.679 1.907 8.451 2.534 11.53 1.918 3.28-.657 5.768-2.713 7.393-6.11.634-1.322 1.001-2.625 1.101-3.897a8.744 8.744 0 0 0-.198-2.675c-.337-1.451-1.082-2.811-2.168-4.078 1.2-.237 2.302-.621 3.261-1.189 1.606-.947 2.847-2.338 3.685-4.136.585-1.25.921-2.455 1.012-3.611.149-1.917-.38-3.701-1.59-5.327z" style="fill:url(#Q)"/><linearGradient id="R" x1="212.83501" x2="218.8555" y1="200.4854" y2="200.4854" gradientTransform="rotate(4.468 257.085 231.026)" gradientUnits="userSpaceOnUse"><stop offset="0.0041" style="stop-color:#003760"/><stop offset="0.6198" style="stop-color:#292725"/></linearGradient><path d="m221.438 194.636-1.212-2.45a1.09 1.09 0 0 0-2.009.131l-3.176 9.298a1.092 1.092 0 0 0 1.515 1.33l2.464-1.217a1.09 1.09 0 0 0 .549-.625l1.923-5.633a1.093 1.093 0 0 0-.054-.834z" style="fill:url(#R)"/></g><path d="m225.393 182.527-1.215-2.452a1.09 1.09 0 0 0-2.009.133l-2.884 8.494a1.09 1.09 0 0 0 1.516 1.327l2.46-1.218c.258-.127.456-.352.548-.625l1.638-4.824a1.09 1.09 0 0 0-.054-.835z" style="fill:url(#S)" transform="matrix(.545 0 0 .545 1 1)"/></g></svg>