<svg xmlns="http://www.w3.org/2000/svg" xml:space="preserve" width="711.67969" height="912.89581" viewBox="0 0 711.67968 912.89579"><path d="M379.19 206.29c-33.886 42.595-69.391 109.382-96.504 214.538-21.263 82.464-30.915 166.375-34.11 199.014l-.194 1.05c-111.233-26.112-176.64-59.904-176.64-59.904s7.55-91.165 25.088-169.472c22.015-98.305 51.712-186.88 99.328-256.513 32.791-47.953 63.488-75.263 63.488-75.263s60.672 52.736 120.452 145.363z" style="fill:#23327e;fill-opacity:1;fill-rule:evenodd;stroke:none" transform="matrix(1.33333 0 0 -1.33333 -40.018 981.967)"/><path d="M379.19 206.29c-33.886 42.595-69.391 109.382-96.504 214.538-21.263 82.464-30.915 166.375-34.11 199.014l-.194 1.05c126.352 29.662 254.898 36.352 254.898 36.352s7.3-167.446-64.178-340.992c-16.788-40.762-37.695-78.133-59.004-111.15z" style="fill:#ee2523;fill-opacity:1;fill-rule:evenodd;stroke:none" transform="matrix(1.33333 0 0 -1.33333 -40.018 981.967)"/><path d="M231.23 51.804s-68.736 51.84-112.513 116.351C68.9 241.57 53.821 279.515 53.821 279.515l13.825 28.033s29.057-77.142 71.04-139.393c33.408-49.535 92.543-116.351 92.543-116.351zM167.486 166.62s-67.2 91.392-102.145 198.912C36.516 454.227 30.014 514.14 30.014 514.14l27.647 30.336S64.19 452.7 93.374 335.964c18.725-74.902 74.112-169.344 74.112-169.344zM308.798 78.684c90.24 59.904 165.504 179.328 202.368 291.07 36.56 110.823 52.607 226.946 52.607 226.946l-32.255 28.8s-2.64-130.576-50.304-272.64C422.078 176.603 308.798 78.683 308.798 78.683ZM410.941 730.844s-14.208-1.152-20.607-2.176c0 0-.897-9.984-2.304-31.488-1.408-21.504-2.049-27.009-2.049-27.009s16 2.049 19.968 2.305c0 0 1.28 12.288 2.305 29.568 1.024 17.28 2.687 28.8 2.687 28.8zM360.51 666.076c-9.625-1.655-25.345-3.84-25.345-3.84s.385 4.351 1.537 21.632c1.15 17.28 2.047 36.991 2.047 36.991s13.696 2.944 19.84 3.584c6.144.64 15.871.977 20.608-6.655 4.609-7.424 1.92-17.664-6.4-20.096 0 0 9.089-.384 9.984-10.368.897-9.984-5.886-18.432-22.271-21.248m-5.242 22.016a458.19 458.19 0 0 0-.519-8.065s4.354.256 6.913 2.048c2.56 1.793 1.92 5.248.383 6.272-1.535 1.025-6.777-.255-6.777-.255m5.753 15.487c2.805 1.604 2.048 4.609.384 5.633-1.664 1.023-5.12-.129-5.12-.129s-.11-2.718-.29-6.651c0 0 3.234.124 5.026 1.147zM310.957 715.945c10.564 1.982 19.857 3.635 19.857 3.635s-1.359-18.82-2.432-35.712c-1.025-16.128-7.809-21.76-14.337-25.728-6.527-3.968-17.919-5.76-25.087-.897-7.168 4.864-8.449 14.08-7.937 25.344.513 11.265 2.049 27.648 2.049 27.648 3.67.98 11.512 2.575 19.8 4.173 0 0-1.625-18.509-2.008-26.956-.384-8.448-.894-13.501 2.688-13.312 4.863.256 5.12 2.944 6.015 18.816.752 13.32 1.392 22.989 1.392 22.989zM454.963 698.85c-.635-7.94-1.277-15.87-1.781-20.743 0 0-3.96-3.677-14.336-3.2-11.136.512-19.712 8.832-22.145 20.865-4.778 23.645 9.729 35.2 20.353 38.271 12.414 3.59 20.48-1.023 20.48-1.023s-.641-9.036-1.48-20.097c0 0-5.817 3.713-12.088 2.817-6.272-.897-10.755-7.286-8.193-14.976 3.968-11.904 19.19-1.915 19.19-1.915zM483.328 700.915c-.118-1.923-.23-3.73-.322-5.271 0 0 2.305-.128 8.448.128 6.145.255 10.24.512 10.24.512-.896-9.728-1.92-16.257-1.92-16.257-9.984-.511-38.145-1.664-38.145-1.664 1.793 19.2 4.992 57.089 4.992 57.089 8.961.64 36.993 1.024 36.993 1.024s-.896-7.68-1.92-15.744c0 0-12.032 0-17.152-.256l-.303-4.858s9.135-.006 16.174.122c0 0-.256-6.144-.767-14.72 0 0-5.375.127-10.112 0-4.736-.128-6.206-.105-6.206-.105zM225.47 669.02c1.023 20.096 2.048 28.8 2.048 28.8s11.52 3.2 17.92 4.48c6.4 1.28 16.512 2.56 24.063-5.889 7.07-7.909 7.169-22.911 3.073-31.488-6.397-13.392-18.433-19.071-28.673-21.76-10.239-2.687-20.735-5.247-20.735-5.247s1.28 11.007 2.304 31.104m19.712 15.104s-.512-15.488-.768-22.912c0 0 7.643 1.752 10.24 7.935 2.687 6.4 1.408 16.896-9.472 14.977zM191.33 662.618c.144 3.595.264 7.297.347 11.01 0 0 5.702 1.903 7.297-1.152 1.536-2.945.383-6.016-2.688-7.809-3.073-1.792-4.955-2.05-4.955-2.05m6.447-31.612c6.636 1.942 13.55 3.903 19.628 5.503 0 0-1.623 4.243-3.968 9.216-3.2 6.784-5.376 10.496-5.376 10.496s4.096 2.048 6.912 6.015c5.013 7.065 4.629 19.348-.512 24.832-5.76 6.144-17.28 3.2-22.785 1.92-5.504-1.28-18.176-5.12-18.176-5.12s-2.56-48.512-3.584-61.311c0 0 8.482 2.672 19.353 5.93 0 0 .714 8.422 1.384 20.197 0 0 1.663-2.703 3.712-8.591 2.048-5.888 3.412-9.087 3.412-9.087zM143.422 622.043c-3.456-1.28-6.72-2.513-6.72-2.513-1.145-4.96-2.028-8.754-2.028-8.754-7.229-2.56-14.504-5.172-20.564-7.42 0 0 5.888 19.84 11.008 37.76 5.12 17.92 9.216 30.975 9.216 30.975s15.487 4.864 21.248 6.528c0 0 3.584-17.152 7.295-32.255 3.712-15.104 5.632-23.808 5.632-23.808s-8.425-2.883-19.398-6.71c0 0-.02 3.094-.471 7.85 0 0-1.763-.372-5.218-1.653m2.97 16.241c-2.113 10.627-2.458 15.12-2.458 15.12s-1.408-8.064-3.456-17.28zM73.406 618.076c.767 19.84 1.408 34.432 1.408 34.432s11.136 3.968 18.688 6.784c7.552 2.815 22.272 5.887 25.472-8.448 3.2-14.336-2.56-21.632-7.553-27.009-4.991-5.375-19.071-10.367-19.071-10.367-.512-11.136-1.152-19.84-1.152-19.84-4.48-2.048-18.945-8.832-18.945-8.832s.385 13.44 1.153 33.28m19.584 23.68s-.384-8.32-.384-10.624c0 0 4.992 1.536 6.912 4.608 1.92 3.072 2.56 9.343-6.528 6.015z" style="fill:#23327e;fill-opacity:1;fill-rule:evenodd;stroke:none" transform="matrix(1.33333 0 0 -1.33333 -40.018 981.967)"/><path d="M326.205 401.884c-1.27 1.651-2.687.895-2.687-.13 0-1.023 1.279-2.047 2.56-4.223 1.28-2.176 3.071-5.247 3.968-8.576.895-3.328 1.151-4.48 2.304-3.2 1.152 1.28.511 3.585-.64 6.528-1.152 2.945-4.225 7.937-5.505 9.6zM368.062 392.54c-2.87 1.012-5.888.255-6.657-.769-.767-1.023 0-2.175 1.536-2.688 1.537-.51 4.096-2.175 5.12-4.863 1.025-2.688 2.304-6.145 3.2-8.96.897-2.816 1.409-4.225 2.049-4.225.64 0 2.432.768 7.551 4.097 5.12 3.328 6.785 5.12 5.761 6.4-1.024 1.28-3.072 1.92-5.888 3.2-2.816 1.28-5.377 3.2-7.424 4.735-2.048 1.536-3.073 2.304-5.248 3.072z" style="fill:#fff;fill-opacity:1;fill-rule:evenodd;stroke:none" transform="matrix(1.33333 0 0 -1.33333 -40.018 981.967)"/><path d="M421.438 417.628c1.319 1.612 2.304 2.943 2.432 4.351.07.766-1.024 2.56-2.56 2.177-1.537-.385-2.176-1.792-4.096-3.2-1.92-1.41-3.456-7.297-4.863-10.496-1.409-3.2-3.585-4.608-7.938-4.736-4.351-.13-8.832 2.943-17.919 5.76-9.088 2.816-13.057 5.375-13.057 5.375-2.56-.383-4.351.257-10.751 2.304-6.4 2.048-12.416 3.712-15.233 4.865-2.815 1.151-2.485 2.55-2.304 4.096.256 2.175.384 2.943-.895 2.95-3.143.015-5.376-.006-5.376-.006-1.729-1.473-2.656-2.592-3.152-3.344-.497-.752-.442-2.21-.298-2.899.557-2.655 2.155-7.53 3.577-10.78 1.793-4.096 6.4-12.93 8.448-17.537 2.048-4.608 3.712-6.4 7.04-7.296 2.819-.759 3.969-1.28 5.376-3.712 1.408-2.432 2.943-6.912 5.889-11.647 2.942-4.736.512-4.098-5.12-4.354-5.632-.255-10.496-1.279-14.464-2.431-3.969-1.153-4.224-1.535-6.528.385-2.304 1.92-2.432 4.095-2.304 8.447.128 4.352.256 8.448-.513 13.567-.767 5.121-3.2 8.065-5.247 9.985-2.05 1.92-3.2 4.48-6.272 8.96s-5.632 8.064-7.681 10.113c-2.047 2.047-3.2 2.047-3.711 4.223-.513 2.176 0 3.712-2.049 6.272-2.048 2.56-2.943 3.328-4.48 2.816-1.535-.512-1.535-2.688-1.535-4.992s0-2.944 1.92-6.016c1.92-3.073 1.408-5.631 1.791-8.32.384-2.688 2.176-4.352 2.56-6.272.385-1.92 4.097-3.583 6.145-5.248 2.048-1.663 3.199-2.048 3.199-4.609 0-2.56.385-4.094 3.072-8.575 2.688-4.48.256-3.84-4.863-4.48-5.121-.64-12.288-2.304-15.743-2.816-3.457-.512-4.098-.128-5.89 1.536-1.79 1.663-1.536 2.431-1.919 15.233-.385 12.799-2.816 26.495-5.377 40.575-2.56 14.08-3.584 17.152-3.711 18.56-.129 1.408 2.943 5.12 6.912 9.344 1.93 2.054 6.542.432 15.871 1.024 8.064.512 16.512 2.688 24.449 4.224 7.935 1.536 11.2 2.148 12.416 1.28.895-.64-.128-2.176-.384-4.992s-.512-4.096 1.408-4.096 2.687.256 3.455 5.888c.77 5.632 0 11.776-.895 15.744-.897 3.968-1.025 7.168 1.408 9.856 2.431 2.688 3.585 4.992 13.055 4.992 0 0 .257-3.328-1.664-10.24-1.92-6.912-2.431-10.368-2.176-10.752.256-.384 1.282-2.048 2.304-2.048 1.025 0 2.177 1.408 2.177 1.408s-.769 3.072.128 9.216c.895 6.144 2.303 12.672 3.584 14.336 1.28 1.664 1.023 2.432 10.24 5.504 9.216 3.072 23.423 7.808 29.44 12.032 6.015 4.224 11.904 7.552 18.687 12.416 6.785 4.864 7.553 6.656 11.009 7.04 3.456.384 4.48.64 7.424-2.816s6.143-8.832 6.912-9.728c.767-.896 3.071-1.28 5.76-3.328 2.688-2.048 7.296-5.888 9.983-7.552 2.688-1.664 4.225-2.048 5.377-2.048 1.151 0 3.072-1.28 3.328-2.176.256-.896.128-7.68-2.944-20.224-3.073-12.544-6.912-25.984-7.808-32-.896-6.016-1.407-7.552-2.688-11.52-1.28-3.968-4.097-12.544-5.248-15.872-1.153-3.328-2.817-6.144-4.48-8.192-1.665-2.048-2.56-2.431-4.993-5.12-2.432-2.688-2.688-4.735-8.831-4.735-6.145 0-15.105-.13-17.664 0-2.56.127-3.456 1.535-1.152 4.351m-109.824 26.368c1.663.128 4.224.512 17.663 3.84 13.44 3.328 26.752 6.912 40.192 9.984 13.44 3.072 24.96 4.48 24.96 4.48 1.152.896 1.92 1.92 1.92 1.92s-6.656.768-21.503-1.664c-14.848-2.432-37.12-8.448-51.2-12.672-10.51-3.153-17.409-4.48-17.409-5.248 0-.768.667-3.49 1.153-3.328 1.92.64 2.56 2.56 4.224 2.688M299.07 446.3s-2.047-1.664-2.047-4.224c0-2.56.64-4.48 1.663-5.888 1.025-1.408.128.384.128.384s.64 3.968.256 9.728m.897-15.232c-.6.975-2.176-.512-1.408-1.664.767-1.152.767-2.944.767-2.944s1.664 2.944.64 4.608m25.217-.384c-1.725.432-2.56-1.024-2.56-3.968 0-2.945 1.151-5.12 2.688-7.424 1.536-2.304 3.585-6.015 5.12-8.448 1.536-2.433 1.536-5.12 1.536-5.12l1.151 1.92s-1.024 2.687-2.944 6.144c-1.92 3.456-4.35 6.4-4.224 11.136.13 4.736-.255 5.632-.767 5.76m55.807 43.264c1.665 2.816 3.456 4.352 6.145 6.4 2.687 2.048 4.736 2.432 6.144 3.328 1.409.896 3.712 2.688 4.48 3.968.768 1.28.128 2.304-1.792 2.432-1.92.128-3.968.896-4.864-.256-.896-1.152-.896-3.84-2.688-4.864-1.792-1.024-3.328-1.024-7.168-4.224-3.84-3.2-6.4-7.04-7.424-9.472-1.025-2.432-1.156-5.227-.512-5.12 1.536.256 6.016 4.992 7.68 7.808zM450.622 543.324c-1.613 1.343-2.305 1.28-3.84.128-1.537-1.153-2.048-1.409-.256-3.328 1.791-1.92 1.92-3.328 3.2-3.969 1.28-.64 1.152 1.152 1.92 2.432.767 1.28 2.048 2.177-1.024 4.737zM461.886 537.436c-2.286-.381-4.352-.769-5.12-.769-.768 0-1.025-1.023-1.28-3.327-.257-2.304.255-3.841 3.327-6.273 3.073-2.432 8.193-5.12 9.857-7.296 1.664-2.175 2.56-3.84 3.84-3.84 1.28 0 2.687-.512 4.351-2.047 1.664-1.536 3.968-2.432 5.505-.128 1.535 2.304 2.048 3.583-1.408 6.784-3.456 3.2-8.063 8.192-10.753 11.264-2.687 3.072-4.48 6.271-8.32 5.632zM435.006 563.931c-3.172-.422-5.12-2.944-5.375-4.736-.257-1.792.255-3.2 1.79-3.456 1.537-.256 3.97.128 6.657 2.305 2.688 2.176 2.944 3.968 1.536 4.863-1.408.897-2.688 1.28-4.608 1.024zM406.846 592.347c-3.201.111-3.584-1.408-3.456-4.095.129-2.689 1.793-2.561 4.351-4.353 2.56-1.792 7.04-5.503 10.624-10.24 3.585-4.736 5.76-8.703 6.656-9.471.897-.769 3.84-.896 3.968 1.28.128 2.176-.895 5.12-1.536 6.656-.639 1.536-1.28 4.224-2.814 6.783-1.537 2.56-1.664 4.48-1.921 6.144-.257 1.665-3.584 5.505-5.504 6.273-1.92.768-6.656.895-10.368 1.023zM311.998 501.084c-1.536-1.152-1.152-3.2-.513-7.424.64-4.224-.512-4.48-2.943-5.377-2.432-.896-3.713-.512-6.272.384-2.56.896-3.968-.127-6.016.64-2.047.768-2.048 2.176-2.433 4.48-.383 2.305-1.407 3.968-1.407 8.065 0 4.096 1.536 4.48 4.095 5.248 2.56.767 4.48.64 9.345-.384 4.864-1.025 8.576-2.432 8.576-2.432s-.896-2.048-2.432-3.2m-11.265 0c-1.018.092-1.152-.384-.383-1.792.768-1.409 1.536-2.048 1.92-.768.383 1.28-.128 2.432-1.537 2.56z" style="fill:#fff;fill-opacity:1;fill-rule:evenodd;stroke:none" transform="matrix(1.33333 0 0 -1.33333 -40.018 981.967)"/><path d="M295.87 516.956c-2.518.69-3.712-.513-3.84-1.792-.129-1.28.127-3.073 2.56-2.816 2.432.256 4.48.767 5.76-.384 1.28-1.152 2.047-1.793 4.352-1.793 2.304 0 8.32.257 9.984-.255 1.664-.513 2.432-2.816 2.688-4.097.255-1.28.768-1.663 3.456-1.663 2.688 0 6.912-.384 6.912-.384s.256-1.92.256-3.84-1.537-3.2-1.92-4.224c-.385-1.024-.513-2.56-.129-3.84.384-1.28.64-2.048 3.969-1.92 3.327.127 4.736.511 5.888 2.431 1.152 1.92 0 4.48-.641 6.657-.64 2.175-1.152 4.352.385 5.12 1.535.767 4.864 1.024 7.039-1.153 2.176-2.175 2.69-2.56 10.113-.896 7.423 1.665 20.609 6.913 28.16 10.497 7.552 3.583 17.792 8.96 23.809 11.647 6.015 2.688 11.263 3.969 15.614 7.168 4.354 3.2 9.473 7.04 21.12 14.848 11.649 7.809 22.145 17.409 25.857 22.912 3.713 5.505 6.272 10.24 6.912 13.952.64 3.713.512 11.905-.256 14.464-.769 2.56-5.888 9.345-8.832 11.777-2.944 2.432-8.96 3.84-14.72 4.48-5.76.64-16.64 1.023-25.727-1.152-9.09-2.177-17.41-5.633-21.889-7.553-4.48-1.92-4.735-2.56-4.48-7.04 0 0 2.688-.512 7.68-.128 4.991.385 14.08 3.2 18.304 4.608 4.225 1.409 15.36 5.633 23.296 5.377 7.935-.256 14.72-1.92 18.048-6.272 3.328-4.353 3.84-9.344 2.943-12.672-.895-3.329-3.71-8.833-11.136-16.769-7.424-7.936-17.663-19.071-33.535-28.8-15.872-9.727-33.152-18.431-42.24-20.864-9.089-2.431-21.632-6.4-30.848-8.703-9.217-2.305-16.257-4.224-17.537-4.48-1.28-.257-2.56-2.304-2.56-2.304s-.767 2.304-2.047 3.967c-1.28 1.664-6.784 2.689-9.216 0 0 0-15.615 3.712-23.552 5.889z" style="fill:#fff;fill-opacity:1;fill-rule:evenodd;stroke:none" transform="matrix(1.33333 0 0 -1.33333 -40.018 981.967)"/><path d="M320.957 519.003c-.895-4.736-2.047-3.327-5.375-3.327s-3.968.64-6.912 1.536-7.297 1.791-11.52 2.175c-4.225.384-3.457 2.689-3.457 12.289s-.64 14.975-2.175 21.632c-1.537 6.656-3.84 8.96-3.585 9.984.257 1.023 2.304 3.711 3.2 4.352.897.64 4.48.255 13.184-.64 8.705-.897 22.707-1.741 23.04-3.712 1.538-9.088-5.503-39.552-6.4-44.289m-19.712 8.064s1.152 1.537 1.025 8.577c-.128 7.04.256 10.496-1.025 10.368-1.28-.129-1.023-2.688-1.151-8.32-.128-5.632 1.151-10.625 1.151-10.625m-.256 23.68s2.69 1.665 2.946 4.865c.254 3.2-1.28 5.12-1.92 2.432-.642-2.689-1.026-7.296-1.026-7.296m8.96 1.28c-1.28.511-2.175-.513-2.175-2.689 0-2.175.255-3.968 2.047-3.456 1.793.513 3.328 1.536 3.713 2.56.384 1.024.255 2.048-3.585 3.584zM294.845 574.94c-2.778.893-3.84.384-2.047-1.152a13.946 13.946 0 0 1 8.575-3.329 206.47 206.47 0 0 0 12.161-.768c4.095-.384 7.935-.767 8.704.129.768.895-1.024 2.048-3.585 2.431-2.56.384-8.703.129-12.799.64-4.097.513-7.425.897-11.009 2.048zM300.35 586.075c-2.239-1.443-5.248-4.351-5.248-5.12 0-.768 1.793-1.92 3.84-2.943 2.047-1.025 4.096-.768 6.784-.512 2.687.255 4.992-.512 6.143-.768 1.152-.256 3.585-.128 7.553-.128s6.271 0 7.807 1.151c1.537 1.152.896 2.305 1.409 3.84.511 1.536-.385 2.817-1.409 4.352-1.024 1.536-.511 2.945-2.56 2.305-2.048-.64-4.224-2.56-5.632-3.328-1.408-.769-2.942-1.025-4.351-.769-1.409.257-1.537 1.792-3.584 2.689-2.05.895-6.785 1.792-10.752-.769zM331.325 592.731c-.642.949-2.43.896-1.92-1.28.513-2.176 2.177-4.223 2.817-7.04 0 0 1.79 4.352-.897 8.32zM334.013 577.371c-2.699.097-5.247-.512-5.631-4.608-.384-4.096-.64-6.4 2.048-7.935 2.687-1.536 4.224-1.408 7.04-1.152 2.816.255 4.223.895 4.351 4.48.13 3.584.64 6.143-.64 7.168-1.28 1.024-3.583 1.92-7.168 2.047z" style="fill:#fff;fill-opacity:1;fill-rule:evenodd;stroke:none" transform="matrix(1.33333 0 0 -1.33333 -40.018 981.967)"/><path d="M347.198 543.835s-.02-2.322.383-6.272c.64-6.272-.639-7.423-2.943-10.367-2.304-2.944-5.504-4.737-7.168-5.633-1.664-.896-2.689-1.792-3.457-4.48-.768-2.687-.639-2.56-2.047-3.327-1.407-.769-.769 2.815-.769 7.935 0 5.12 1.537 8.577 2.816 15.233 1.282 6.656 1.665 10.623 1.537 13.183-.128 2.56 1.547 3.357 3.84.768 3.968-4.48 4.992-4.864 5.888-4.608.896.257.768 2.048-.896 4.992-1.664 2.945-3.457 5.248-4.096 6.144-.64.897.256 1.153 1.28 2.049a10.137 10.137 0 0 1 3.072 4.991c.64 2.432 4.351 7.424-.512 12.16-4.864 4.737-5.76 5.76-7.424 11.136-1.664 5.377-3.328 6.657 1.024 7.808 4.351 1.153 17.536 2.56 30.208 0 12.671-2.56 23.168-5.12 26.24-7.04 3.071-1.92 4.096-3.967 7.807-5.503 3.713-1.536 3.84-2.305 4.096-3.456.257-1.152 2.817-2.048 6.656-6.528 3.841-4.48 8.577-9.856 12.162-14.849 3.584-4.991 4.863-6.016 1.407-8.064-3.456-2.047-17.025-9.216-27.52-14.208-10.496-4.992-15.873-7.295-20.352-9.087-4.48-1.792-5.376-3.2-5.504 2.432-.128 5.632 1.28 9.088 1.408 12.8.127 3.711.128 4.096-1.92 4.736-2.049.64-2.944.128-2.688-4.864.256-4.992.894-11.009-.512-14.849-1.41-3.84-2.56-4.864-6.017-6.144-3.456-1.28-6.784-.64-5.632 2.305 1.153 2.943 1.92 9.727 1.28 13.44-.64 3.711-2.048 7.68-4.223 10.24-2.177 2.56-3.201 2.048-5.377 6.144-1.639 3.085-2.432 3.328-3.584 2.303-1.152-1.024 0-2.432.768-3.711.77-1.28.383-3.073 1.665-4.736 1.279-1.664 1.792-3.2-.896-3.073zM302.653 618.972c-2.562.232-6.913-7.296-7.551-11.777-.64-4.48 0-6.911 1.407-11.52 1.408-4.608 1.152-5.76 3.072-4.991 1.92.768 6.656 1.663 6.656 1.663s-.128 6.784-.128 12.673c0 5.887-.64 13.696-3.456 13.952zM319.549 621.788c-1.497 1.498-4.991-4.097-7.04-8.449-2.047-4.352-4.608-11.136-3.072-16.383 1.536-5.248 4.352-8.192 4.352-8.192s3.073-.384 4.48-.128c1.409.255 2.304-.64 1.409 4.224-.897 4.864-.64 8.703.127 13.952.768 5.248 1.793 12.928-.256 14.976zM351.038 600.923s-7.68.257-12.416-.64c-4.736-.895-8.576-2.43-10.37-3.455-1.791-1.025-2.942-1.28-4.479-1.28-1.535 0-2.943.896-2.047 2.304a18.476 18.476 0 0 1 2.56 6.656c.51 2.944 3.712 5.503 8.575 5.503 4.865 0 15.744-2.688 20.993-3.455 0 0-1.409-2.816-2.816-5.633zM358.334 602.331s12.16-1.791 21.888-4.736c9.728-2.944 15.744-5.12 17.023-5.503 1.281-.384 3.457.896.64 3.968-2.815 3.071-6.015 5.887-7.04 7.04-1.024 1.151-2.176 1.536-4.35 1.792-2.177.255-2.561.768-3.714 2.175-1.15 1.409-1.535 1.409-6.783 2.176-5.248.768-9.856 1.536-12.16.257-2.304-1.28-4.097-2.177-5.504-7.169zM295.483 114.53c2.66-2.771 4.126-4.129 4.126-4.129-11.095-11.733-23.535-23.792-37.275-35.557 0 0-21.854 17.374-50.282 56.977l-.722 1.09c15.679-13.048 35.716-21.043 57.514-21.715 9.058-.279 17.818 1.099 26.093 3.822zM201.502 266.612c-14.604-16.404-23.52-38.16-23.52-62.363a93.85 93.85 0 0 1 2.867-23.133l-1 1.733c-14.226 25.585-28.687 56.16-41.932 92.186-44.865 122.042-56.598 280.96-56.598 280.96s17.815 9.217 50.838 18.304c0 0 11.47-144.648 49.153-254.976 6.294-18.43 12.895-35.546 19.62-51.383zM312.45 287.712c-12.147 6.248-26.144 9.775-41.41 9.852a92.987 92.987 0 0 1-20.727-2.22l-.585 1.404a801.1 801.1 0 0 0-21.955 61.872c-38.016 122.88-44.16 231.168-44.16 231.168 23.808 9.6 51.457 15.744 51.457 15.744s5.192-91.72 38.784-210.817c11.78-41.766 25.036-76.711 37.72-105.05zM349.63 217.145c.65-4.163.99-8.424.99-12.765 0-5.917-.629-11.692-1.822-17.258l.016 1.862c.216 13.704-2.434 22.405-3.494 25.318l.27.181c1.25.885 2.611 1.77 3.786 2.508zM307.026 252.587c.553 2.79 1.657 8.665 2.411 14.598l.086.413a178.787 178.787 0 0 0 7.473 2.681l.366.14c16.183-12.041 27.808-29.883 31.77-50.42l-.353-.212c-1.499-.925-3.504-2.207-5.244-3.469l-.294-.181c-4.752 2.056-13.06 5.024-16.438 6.217l-.159.426c-4.825 11.33-14.511 23.712-19.359 29.537l-.259.27zM232.801 211.972c-4.67 5.495-13.841 15.239-18.913 20.582l-.23.21c1.524 13.614 6.457 23.127 9.619 28.004l.306.155c12.367 7.234 28.383 7.687 35.44 7.481l.515-.036c3.055-3.32 10.29-11.241 14.503-16.361l-.156-.402-12.042-29.877-.31-.143c-4.36-1.456-17.052-5.695-28.325-9.498l-.407-.115zM301.822 137.543c-11.208.526-22.595 1.737-27.452 2.292l-.098.016c-2.495 7.457-7.025 19.279-9.546 25.77l-.045.112c.37.624 3.123 5.181 9.173 13.367 5.323 7.202 7.454 10.573 8.06 11.572l.34.022c13.73.224 25.05.819 32.448 1.309l.372.002c1.75-3.143 7.484-13.698 10-21.38l-.125-.264c-2.927-6.546-11.358-23.715-22.837-32.6l-.29-.218zM304.557 136.27c10.318 8.409 18.033 22.737 21.68 30.445l.1.219c1.725.826 11.727 5.755 20.183 13.036l.55.483c-6.585-21.624-21.854-39.499-41.728-49.546l-.073.333a208.326 208.326 0 0 1-.656 4.693l-.056.337z" style="fill:#fff;fill-opacity:1;fill-rule:evenodd;stroke:none" transform="matrix(1.33333 0 0 -1.33333 -40.018 981.967)"/><path d="M257.365 127.27a84.465 84.465 0 0 1 1.104-4.271l.12-.31c-15.066 1.789-28.897 7.665-40.348 16.486l.184.135c.538.39 1.046.779 1.492 1.13l.207-.193c5.453-4.054 17.456-11.064 37.085-12.959l.156-.018z" style="fill:#fff;fill-opacity:1;fill-rule:evenodd;stroke:none" transform="matrix(1.33333 0 0 -1.33333 -40.018 981.967)"/><path d="M259.19 129.812c-21.185 1.674-33.58 9.558-38.341 13.282l-.424.289c-5.23 7.159-7.358 16.993-7.987 20.545l.446.256c6.237 4.406 14.98 10.208 19.3 13.053l.31.225c2.718-.918 11.842-4.066 28.836-10.537l.056-.136c2.136-5.47 7.25-18.695 10.084-27.039l-.107-.1c-1.704-1.413-6.955-5.746-12.023-9.725l-.15-.113zM192.543 180.45a50.863 50.863 0 0 1-1.872-2.418l-.182-.239a81.926 81.926 0 0 0-4.409 26.587c0 6.803.83 13.414 2.394 19.74l.256-.202a151.79 151.79 0 0 0 5.025-4.247l-.161-.41c-2.177-6.62-5.79-21.556-1.248-38.239z" style="fill:#fff;fill-opacity:1;fill-rule:evenodd;stroke:none" transform="matrix(1.33333 0 0 -1.33333 -40.018 981.967)"/><path d="M196.135 177.874c-6.483 18.565-1.653 35.827.428 41.741l.157.56c5.674 7.358 11.516 10.141 14.608 11.16l.257-.26c5.29-5.57 15.66-16.577 19.988-21.823v-.345c-.082-5.616-.236-19.043-.018-28.896l-.362-.208c-4.19-2.756-13.617-9-20.171-13.643l-.582-.392c-2.752.942-8.28 3.543-13.668 10.28l-.636 1.826zM315.607 194.76c-7.475-.508-19.529-1.168-34.217-1.39l-.544.024c-5.291 9.78-13.195 21.877-16.36 26.644l-.288.344 11.993 29.753.238.539c3.348 1.024 14.435 3.805 28.107.757l.268-.341c4.767-5.696 15.3-19.012 19.872-30.588l.172-.413c-.891-4.62-3.286-14.398-8.988-24.863l-.253-.465zM225.086 264.728c-1.822.36-5.933 1.199-9.678 2.138l-.391.109c14.371 12.262 33.003 19.674 53.333 19.674 1.72 0 3.429-.052 5.124-.157l.177-6.238c-2.894-1.72-9.766-5.887-14.047-9.147l-.439-.01c-6.734.214-21.348-.156-33.808-6.186l-.271-.183zM276.286 281.004l-.077 4.852.001.421c14.166-1.348 27.297-6.304 38.459-13.935l-.35-.132a181.603 181.603 0 0 1-5.18-1.88l-.257.178c-3.307 2.154-15.687 9.503-32.052 10.464l-.544.032z" style="fill:#fff;fill-opacity:1;fill-rule:evenodd;stroke:none" transform="matrix(1.33333 0 0 -1.33333 -40.018 981.967)"/></svg>