<svg xmlns="http://www.w3.org/2000/svg" width="362.12" height="489.11" viewBox="0 0 95.811 129.41"><g fill-rule="evenodd" stroke-linejoin="round" stroke-miterlimit="2" clip-rule="evenodd"><path fill="#002fb9" d="M49.167.003 47.904 0C20.817 0 2.951 5.32 2.951 5.32L0 6.194v82.92c0 11.659 7.674 20.725 17.222 27.19 13.214 8.946 29.73 12.876 29.73 12.876l.96.228.96-.232s16.507-3.998 29.715-12.954c9.55-6.476 17.22-15.532 17.22-27.108V6.193l-2.951-.873S75.543.164 49.166.004z"/><path fill="#ffc007" d="M4.12 9.271s17.403-5.15 43.783-5.15 43.784 5.15 43.784 5.15v79.84c0 25.476-43.784 36.058-43.784 36.058S4.12 114.774 4.12 89.112zm42.068.008 1.716-.008c18.444 0 32.35 2.585 38.632 4.015v75.826c0 8.46-6.173 14.703-13.151 19.435-9.843 6.674-21.732 10.27-25.49 11.301-3.76-1.015-15.639-4.564-25.474-11.223-6.872-4.652-12.956-10.794-13.144-19.115l-.005-.398V13.286C15.358 11.9 28.597 9.432 46.19 9.278z"/><path fill="#fff" d="M44.04 33.546v66.898h7.727V33.546h19.316v-7.082h-46.36v7.082zM29.875 65.913h5.176l2.55-6.805h-7.726v-9.824l7.754.01 2.548-6.798H22.148v48.935h7.727zm35.03-3.855L75.917 91.43h-8.25L56.54 61.742l8.88-19.246h8.51z"/></g></svg>