<svg xmlns="http://www.w3.org/2000/svg" xml:space="preserve" width="262.978931946" height="380.258598132" x="0px" y="0px" baseProfile="tiny" viewBox="0 0 496.271 717.591"><path fill-rule="evenodd" d="M496.271 469.456c0 137.019-111.117 248.136-248.136 248.136S0 606.474 0 469.456V0h496.271v469.456z"/><path fill="#009140" fill-rule="evenodd" d="M331.814 5.843v691.072c33.239-12.242 63.063-31.564 87.64-56.141 43.861-43.862 70.997-104.437 70.997-171.316h-.022v-.003h.022V5.843H331.814zM163.545 696.574V5.843H5.843v463.619H5.82c.001 66.877 27.136 127.449 70.996 171.311 24.351 24.352 53.856 43.542 86.729 55.801z"/><path fill="#FFF" fill-rule="evenodd" d="M325.971 698.984V5.843H169.389v692.824c24.692 8.488 51.181 13.103 78.744 13.103v-.022h.01v.022c27.221 0 53.398-4.496 77.828-12.786z"/><path fill-rule="evenodd" d="M246.07 629.093c93.502 0 169.764-74.507 169.764-165.856 0-91.351-76.262-165.856-169.764-165.856-93.503 0-169.765 74.506-169.765 165.856 0 91.349 76.262 165.856 169.765 165.856z"/><path fill="#FFF" fill-rule="evenodd" d="M138.021 377.939c-3.953 21.422-2.639 39.745 3.943 54.971l36.183 9.973v6.031l-37.806-10.67c-15.468 13.141-27.992 27.753-38.502 43.373.747 19.678 8.197 41.006 23.194 63.783 17.175 6.857 36.904 8.608 56.593 10.438l20.411-22.266 3.943 3.479-19.483 22.035c5.607 14.302 14.865 28.605 28.529 42.908 9.872 11.076 39.344 10.378 65.871 1.855 12.971-9.624 25.147-25.997 36.879-46.156l-21.339-26.209 3.943-2.783 22.498 25.745c25.201-4.091 43.102-11.203 50.331-22.729 9.829-21.574 14.082-41.599 12.757-60.073-7.898-17.075-21.453-28.491-36.183-38.733l-30.849 13.452.232-6.727 27.833-11.133c3.763-22.743 2.422-39.74 1.159-56.825-12.282-11.592-24.904-20.811-37.807-28.065-19.792-5.41-39.584-.885-59.376 10.437-.231 9.201-.463 18.401-.696 27.601h-5.798v-27.368c-15.08-8.017-32.61-14.029-54.506-16.468-17.317 10.506-34.636 24.657-51.954 40.124zm65.13-70.583c-4.678 8.71-8.741 16.983-11.319 24.195-21.338 12.061-40.822 26.905-58.449 44.532-11.873 4.909-23.954 10.651-36.178 16.965 8.104-16.352 18.95-31.166 31.956-43.872 20.193-19.727 45.584-34.378 73.99-41.82zm192.852 87.888c-11.381-15.712-27.656-23.101-45.142-28.436-11.74-10.463-23.966-20.603-39.586-28.483-9.152-12.289-18.308-22.441-27.462-32.236 30.499 6.961 57.757 22.17 79.168 43.089 13.585 13.273 24.813 28.845 33.022 46.066zm-21.889 170.023c1.729-11.755 2.02-20.152 2.093-28.046 11.345-19.391 16.253-42 14.724-67.827 11.471-15.187 17.464-30.373 15.456-45.56a158.054 158.054 0 0 1 4.97 39.396h-.018V463.239h.018c-.002 38.7-13.968 74.223-37.243 102.028zM80.97 455.566c3.853 7.958 8.309 16.157 14.977 25.24 2.546 18.373 5.229 36.854 25.331 69.02l-1.403 17.615c-24.382-28.114-39.09-64.484-39.092-104.198h.017V463.234h-.018a161.2 161.2 0 0 1 .188-7.668zm120.381 163.065c7.334-1.769 14.395-3.812 20.551-6.757 19.985 6.43 41.442 4.028 63.907-4.416 8.28 2.229 16.481 4.652 26.027 3.719l-.052.168c-20.142 8.535-42.359 13.27-65.709 13.271v-.018h-.01v.018c-15.494 0-30.491-2.088-44.714-5.985z"/><path fill-rule="evenodd" d="M313.46 480.267c0 36.227-29.379 65.605-65.606 65.605-36.226 0-65.605-29.379-65.605-65.605v-93.332H313.46v93.332z"/><path fill="#007CC0" d="M249.784 390.082h-64.389V480.275h-.012c.001 17.232 6.999 32.846 18.307 44.155 11.311 11.311 26.926 18.309 44.161 18.309v-.012h.01v.012c.643 0 1.285-.012 1.923-.031V390.082z"/><path fill="#8B7C62" fill-rule="evenodd" d="M238.407 403.062c1.73 0 3.142-.808 3.142-1.796 0-.989-1.411-1.796-3.142-1.796s-3.142.807-3.142 1.796c0 .988 1.411 1.796 3.142 1.796z"/><path fill="#9F9C92" fill-rule="evenodd" d="m237.596 398.143 3.519.824.457 2.585c-1.914-1.458-3.854-1.534-5.827-.138l-.617-1.098 1.234-1.281 1.234-.892z"/><ellipse cx="238.681" cy="401.232" fill="#F4F4F3" fill-rule="evenodd" rx="0.88" ry="1.579"/><path d="M231.798 493.353c-2.52.718-4.103 1.824-4.703 3.334-.603 1.521-.243 3.516 1.126 6.006l.079.142-.01.161c-.153 2.487-.73 3.627-1.615 3.787-.863.154-1.85-.701-2.915-2.186l-.004-.007-3.011-4.321-.016-.023-.017-.031c-1.884-3.479-4.657-3.11-8.317 1.105l-.214.246-.317-.062c-2.097-.41-3.632-.362-4.602.146-.878.461-1.298 1.362-1.255 2.703l.057 1.768-1.064-1.415c-1.231-1.64-2.033-3.291-2.323-4.809v-.002c-.253-1.331-.12-2.566.453-3.618.571-1.05 1.569-1.895 3.038-2.439v-.001c.94-.348 2.083-.575 3.438-.653a20.554 20.554 0 0 0-3.173-.67 20.84 20.84 0 0 0-6.21.148l-.807.139.164-.803c1.257-6.142 3.705-8.39 6.913-8.145 1.093.083 2.269.475 3.507 1.111l.018-.093c.373-1.967 1.536-3.416 3.019-4.154a5.24 5.24 0 0 1 2.8-.53c.972.085 1.958.443 2.866 1.108 1.758 1.289 3.225 3.743 3.7 7.629a29.791 29.791 0 0 0 4.083-1.161 25.661 25.661 0 0 0 4.23-1.997c.146-.086 2.111.989 2.256.899l1.22 1.081.285.923-.263 1.163-.723.702-.877 1.273-.263 1.361-.553.185z"/><path fill="#DD0F22" d="M231.49 492.273c-2.868.817-4.698 2.145-5.436 4.002-.72 1.815-.368 4.08 1.105 6.815-.118 1.753-.357 2.529-.682 2.587h-.002c-.358.063-.995-.606-1.804-1.734h-.001l-2.992-4.294c-2.357-4.32-5.664-4.09-9.918.692-2.195-.392-3.87-.285-5.019.316-.87.455-1.434 1.165-1.693 2.132-.651-1.074-1.086-2.124-1.272-3.103-.206-1.08-.107-2.063.334-2.875.443-.813 1.244-1.478 2.443-1.922h.002c1.482-.55 3.548-.763 6.267-.515l3.249.295-2.965-1.361c-2.175-.999-4.354-1.624-6.536-1.906a21.784 21.784 0 0 0-5.721.028c1.144-4.849 3.089-6.647 5.556-6.459 2.752.211 6.22 2.723 10.001 6.241l1.909 1.777-1.012-2.404c-1.209-2.873-2.735-4.708-4.458-5.579a5.647 5.647 0 0 0-1.582-.523c.399-1.293 1.238-2.247 2.27-2.762a4.126 4.126 0 0 1 2.203-.416c.776.067 1.567.357 2.3.895 1.617 1.185 2.958 3.565 3.314 7.447l.057.618.605-.118a31.353 31.353 0 0 0 4.857-1.331 26.684 26.684 0 0 0 4.486-2.131c.127-.075 1.526.704 1.653.626l.786 1.422-1.469 2.525-.835 1.015z"/><path d="m249.594 398.425.123 141.564c-2.171-.42-3.422-1.301-4.172-2.431-.628-.947-.875-2.035-1.015-3.16a13.083 13.083 0 0 1-2.797-.528 11.752 11.752 0 0 1-2.727-1.245l-.48-.299.206-.521 1.994-5.036a7.233 7.233 0 0 1-2.872 1.199c-2.792.528-6.317-.337-10.576-2.595l-.04-.024c-2.751-1.697-4.857-2.373-6.317-2.024-1.342.32-2.179 1.622-2.506 3.901l-.224 1.556-.972-1.233c-1.787-2.27-2.819-4.678-3.073-6.961-.229-2.065.176-4.028 1.232-5.7 1.049-1.66 2.734-3.022 5.067-3.897 2.977-1.117 7.029-1.441 12.178-.569l.048.008.042.014 1.637.512c-.792-.85-1.114-1.703-1.086-2.563.059-1.82 1.707-3.484 3.751-5.106l.651-.518.371.744c.72 1.446 1.872 2.339 3.017 2.557a2.603 2.603 0 0 0 1.545-.158c.485-.213.926-.598 1.27-1.165.907-1.496 1.166-4.188.016-8.32a8.65 8.65 0 0 1-1.636-3.13 9.62 9.62 0 0 1-.313-1.694 68.064 68.064 0 0 0-4.065 5.021 66.399 66.399 0 0 0-4.979 7.934l-.881 1.645-.37-1.829c-.882-4.368-1.132-8.746.008-13.138l.051-.195.146-.134c1.73-1.58 1.802-2.704.214-3.367v.001c-1.791-.688-2.508-1.533-2.444-2.493.061-.888.853-1.734 2.101-2.552l.044-.026c3.093-1.698 5.454-3.579 6.909-5.683 1.163-1.681 1.751-3.521 1.671-5.538-1.123 1.078-2.25 2.053-3.381 2.835-1.512 1.047-3.039 1.758-4.583 1.942l-1.095.131.384-1.033c.276-.744.559-1.734.832-2.856.641-2.632 1.242-6.005 1.608-8.749l.101-.735c-1.545 3.988-3.284 7.207-5.127 9.673-1.953 2.612-4.034 4.396-6.14 5.374-2.162 1.004-4.342 1.162-6.434.502-1.034-.326-2.042-.854-3.012-1.578l-.56-.419.438-.543.013-.016c.503-.629 1.078-1.494 1.692-2.52a67.158 67.158 0 0 0 1.952-3.533c1.757-3.395 3.577-7.358 4.856-10.51-1.247 2.268-2.593 4.461-4.141 6.496-2.823 3.709-6.306 6.874-11.066 8.98l-.026.011c-5.753 2.265-10.016 2.048-13.022-.257-2.971-2.279-4.63-6.572-5.222-12.5l-.108-1.084 1.017.389c2.141.818 4.304 1.093 6.49.696 2.193-.396 4.432-1.47 6.719-3.341l.045-.042a88.994 88.994 0 0 0 2.51-2.454c.867-.88 1.721-1.775 2.536-2.655a148.218 148.218 0 0 0 4.603-5.2c-2.793 2.409-5.888 4.489-8.848 5.289-9.195 2.813-12.56.67-13.775-3.299-.673-2.195-.622-4.917-.571-7.637.008-.43.016-.858.021-1.276l.011-.853.824.207c5.616 1.416 9.465 1.032 12.397-.281 1.855-.83 3.371-2.047 4.747-3.419-5.993 2.596-10.301 3.024-13.33 1.814-3.62-1.447-5.362-5.136-5.931-10.225l-.086-.772.776.027c5.475.191 10.093.071 13.653-.434 1.732-.246 3.201-.579 4.382-1.008-4.644.432-8.168-.124-10.759-1.27-2.377-1.052-3.981-2.601-4.954-4.347-.975-1.751-1.309-3.692-1.15-5.527.187-2.163 1.061-4.192 2.379-5.603l.389-.416.473.311.264.173c4.731 3.1 9.464 6.201 14.098 6.334-6.034-3.254-10.156-6.766-12.137-10.563-2.257-4.328-1.77-8.969 1.78-13.957l.577-.81.538.836c1.896 2.947 3.976 5.833 6.47 8.572a48.068 48.068 0 0 0 7.974 7.035l.151-2.868.112-2.114 1.129 1.79c1.374 2.177 2.816 4.283 4.527 6.098 1.688 1.79 3.647 3.307 6.079 4.339l.046.021.052.032.011.008c.985.608 2.042 1.187 3.099 1.765 5.541 3.03 11.081 6.063 9.819 14.937l-.008.054-.013.044c-.988 3.293-2.5 4.651-4.328 4.839-1.727.178-3.642-.758-5.621-2.082-1.36-.549-2.363-.497-2.95-.124-.208.133-.362.31-.452.512a1.297 1.297 0 0 0-.088.706c.1.735.723 1.573 1.97 2.203l.037.021c1.044.613 2.13 1.048 3.215 1.48v.002c2.033.812 4.069 1.624 6.055 3.625a30.819 30.819 0 0 1 2.456-4.779c1.219-1.938 2.753-3.911 4.721-5.93 1.009-1.871 1.566-3.646 1.793-5.35.22-1.654.131-3.257-.158-4.822-.989-.946-1.571-1.889-1.74-2.828-2.19-.043-4.005-.202-5.444-.477-1.598-.306-2.772-.764-3.522-1.37l-.868-.702 1.028-.441c2.938-1.258 4.562-2.376 5.056-3.37-1.864-.339-4.015-.234-6.154-.133-5.955.285-11.828.566-12.571-7.875V404.314c.01-1.44.358-2.37.869-2.875a1.656 1.656 0 0 1 1.157-.494c.392-.007.797.118 1.18.356.819.511 1.596 1.587 1.954 2.983 1.001 1.562 2.339 2.551 3.958 3.054 1.178.365 2.513.481 3.981.379a15.226 15.226 0 0 1-2.104-1.419v-.003c-1.208-.991-1.995-2.054-2.355-3.184-.37-1.161-.29-2.368.241-3.619v-.003c.309-.729.772-1.47 1.385-2.221l.002-.003.009-.012.003-.003a8.016 8.016 0 0 1 1.463-1.577c1.243-1.016 2.799-1.649 4.669-1.903l-.002-.034.152.015c.209-.026.424-.049.64-.065l.577-.043.054.235c1.871.216 3.746.606 5.621 1.261 2.09.726 4.18 1.781 6.269 3.286zm-10.778 4.464c.351-.364.942-.662 1.828-.874.385-.667.582-1.264.499-1.751-.084-.487-.498-.926-1.363-1.297l-1.346-.311.049.218-.574.196c-1.931.66-2.449 1.192-2.199 1.646.371.674 1.641 1.423 3.106 2.173z"/><path fill="#F4C201" d="M248.809 399.516c-1.976-1.424-3.952-2.422-5.926-3.111a24.495 24.495 0 0 0-5.152-1.172l.127 1.911 2.293.528.065.016.045.019c1.37.576 2.043 1.373 2.208 2.331.156.908-.182 1.893-.828 2.926l-.153.245-.284.058c-1.11.227-1.494.478-1.44.741.157.77 1.757 2.007 3.356 3.244l.5.387.09.07.063.096.044.068c.833 1.277 1.705 2.615 1.961 4.121l.052.1.04.138-.019.139-.018.052c.096 1.097-.151 2.284-.984 3.599l-.046.073-.067.062c-.779.716-1.142 1.431-1.087 2.142.057.75.563 1.562 1.513 2.431l.167.151.042.215c.344 1.759.46 3.569.208 5.46-.252 1.89-.871 3.85-1.991 5.902l-.045.083-.066.067c-1.926 1.968-3.422 3.888-4.607 5.771a29.824 29.824 0 0 0-2.732 5.546l-.398 1.073-.742-.87c-2.011-2.359-4.143-3.213-6.274-4.064h-.002c-1.113-.444-2.227-.891-3.357-1.549-1.685-.852-2.542-2.091-2.696-3.226a2.616 2.616 0 0 1 .193-1.432c.196-.44.52-.819.957-1.098.933-.594 2.399-.723 4.245.039l.063.026.056.037c1.769 1.188 3.434 2.038 4.793 1.898 1.269-.13 2.36-1.206 3.16-3.841 1.101-7.912-4.018-10.714-9.136-13.514-1.055-.577-2.11-1.154-3.135-1.786-2.6-1.112-4.691-2.731-6.489-4.638-1.317-1.396-2.471-2.942-3.554-4.559l-.105 1.997-.008.153 2.22 3.834.415.717-.818.12c-2.136.313-3.185 1.056-3.518 1.876-.323.798.006 1.813 2.169 3.675l.584.502-.658.402c-2.766 1.689-2.951 2.736-2.643 3.706.328 1.032 1.232 2.129 3.061 3.01l.903.434-.843.543c-2.338 1.503-2.912 2.662-2.614 3.718.316 1.122 1.586 2.268 4.577 3.206l.679.214-.365.609c-.716 1.196-.699 2.147-.796 3.298-.069.835.047 1.597.385 2.197.325.578.869 1.022 1.664 1.252.776.226 1.322.577 2.6.346l.995-.18-.376.939-.003.007-.002.007c-.081.194-.268.487-.507.864-.678 1.063-1.38 2.514-1.234 3.841v.002c.135 1.223.818 2.209 5.316 1.714l1.486.132c-.617.913-.904 1.233-.836 2.364.025.416.221.782.555 1.073.376.329.923.574 1.604.712 1.516.306 3.23.356 5.607-.625l.913-.377c-.165 1.107-.133 1.382.308 2.446.222.536.589.963 1.059 1.236.477.277 1.069.401 1.736.328 1.742-.19 2.477-.769 3.847-1.773l-.717 1.812c-1.219 3.079-.599 4.815.057 6.651.537 1.506 1.096 3.071.849 5.39l.157.882c.52 2.92-.124 5.528-1.745 7.872-1.578 2.281-4.084 4.294-7.341 6.086-.89.585-1.449 1.1-1.477 1.501-.021.332.444.709 1.58 1.145l.016.008c2.858 1.18 2.974 3.006.346 5.475-.871 3.488-.821 6.99-.274 10.497a66.885 66.885 0 0 1 4.159-6.433 71.383 71.383 0 0 1 5.291-6.378l1.247-1.346-.083 1.83c-.046 1.028.031 2.034.304 2.999a7.363 7.363 0 0 0 1.466 2.745l.093.11.039.141c1.309 4.611.964 7.715-.125 9.513-.498.821-1.149 1.383-1.875 1.702a3.926 3.926 0 0 1-2.335.248c-1.326-.252-2.639-1.14-3.563-2.558-1.481 1.238-2.6 2.455-2.637 3.602-.042 1.274 1.286 2.643 5.008 4.17l-.456 1.264-6.805-2.126c-4.881-.821-8.683-.526-11.44.508-2.04.765-3.501 1.937-4.397 3.355-.888 1.407-1.228 3.073-1.033 4.836.182 1.641.829 3.367 1.926 5.061.572-1.948 1.638-3.108 3.201-3.482 1.814-.434 4.249.29 7.302 2.169 3.979 2.109 7.211 2.929 9.694 2.459 2.168-.41 3.795-1.851 4.877-4.318l.314-.793 1.259.478-.007.018.001.001-.025.063c-.082.221-.166.436-.255.645l-3.573 9.025c.591.324 1.229.604 1.929.82.901.278 1.905.458 3.037.509l.583.026.057.581c.111 1.143.288 2.249.862 3.114.472.712 1.245 1.299 2.533 1.669l-.394-138.97z"/><path fill="#D52522" stroke="#E2001A" stroke-miterlimit="22.9256" stroke-width="0.216" d="M242.419 417.26c.201-.703.646-1.378 1.333-2.027 1.576-2.56.219-4.665-1.043-6.6l-.409-.317c-1.797-1.391-3.594-2.78-3.852-4.04l-.002-.012c-.017-.027-.034-.056-.052-.082-1.745-.884-3.31-1.811-3.864-2.817-.639-1.16-.223-2.258 2.046-3.225l-.027-.408-.174-2.616c-1.576.228-2.879.76-3.905 1.599a6.733 6.733 0 0 0-1.227 1.322l-.018.024-.029.04c-.542.662-.944 1.3-1.205 1.912h-.001c-.401.947-.468 1.845-.198 2.689.279.876.923 1.727 1.927 2.551l.001-.001c1.078.882 2.556 1.724 4.433 2.521l.019.008c2.805 1.291 4.209 2.757 3.889 4.436-.262 1.372-1.781 2.773-4.765 4.207.507.198 1.126.367 1.859.507 1.369.262 3.099.416 5.187.458l.077-.129z"/><path fill="#D52522" stroke="#E2001A" stroke-miterlimit="22.9256" stroke-width="0.216" d="M234.762 408.627c-2.283.37-4.335.327-6.101-.222-1.902-.591-3.466-1.758-4.625-3.606l-.049-.077-.021-.09c-.274-1.141-.865-1.998-1.48-2.381-.202-.126-.398-.193-.569-.19a.559.559 0 0 0-.389.175c-.31.306-.522.957-.535 2.04.652 7.356 5.988 7.102 11.398 6.843 2.145-.104 4.302-.207 6.247.121-.339-.733-1.38-1.478-3.021-2.234a35.514 35.514 0 0 1-.855-.379z"/><path fill="#F4C201" d="M240.116 469.583c.49-2.584-.097-4.229-.658-5.801-.621-1.735-1.533-3.242-.849-5.836-.603.279-.866.293-1.417.354a4.092 4.092 0 0 1-1.776-.183c.432.638.387 2.853.024 5.572-.372 2.79-.983 6.219-1.634 8.892-.166.68-.333 1.311-.499 1.871.956-.292 1.919-.806 2.89-1.477 1.299-.899 2.607-2.08 3.919-3.392zm-5.429-11.811-.158-.053-.206.651c-1.813 5.74-3.985 10.149-6.322 13.276-1.815 2.43-3.721 4.074-5.623 4.958-1.846.856-3.699.995-5.465.438a8.463 8.463 0 0 1-2.054-.984c.428-.592.891-1.308 1.374-2.113a69.399 69.399 0 0 0 1.995-3.608c3.041-5.873 6.151-13.578 6.56-16.384.055.056.112.11.172.162.521.456 1.245.789 2.123.966.671.136 1.439.181 2.283.121a22.706 22.706 0 0 1-.591 3.9 18.698 18.698 0 0 1-1.643 4.31c3.333-1.638 4.209-6.319 4.406-8.565.447-.112.908-.249 1.377-.415a4.49 4.49 0 0 0 .328 1.618 3.632 3.632 0 0 0 1.444 1.722zm-10.67-5.664c-.001-.384.078-.79.243-1.211-2.088.143-3.011.052-3.987-.366-1.859 3.291-4.327 6.465-7.11 9.577-2.834 3.683-7.39 6.297-11.486 9.029 2.014-2.544 8.468-7.836 10.271-9.852a55.7 55.7 0 0 0 6.845-9.459c-.485-.449-.722-1.005-.789-1.615-.178-1.614.965-3.521 1.73-4.729-.935.069-1.733-.006-2.404-.2-.848.119-7.694 9.965-8.725 11.078a122.66 122.66 0 0 1-2.563 2.688 90 90 0 0 1-2.55 2.493l-.002.003-.045.042-.032.025c-2.485 2.041-4.94 3.214-7.367 3.652-2.091.379-4.149.213-6.179-.408.633 5.007 2.101 8.613 4.582 10.516 2.613 2.004 6.438 2.146 11.698.079 4.52-2.003 7.837-5.021 10.531-8.561 2.721-3.576 4.824-7.708 6.887-11.871l.452-.91zm-7.988-9.446a3.553 3.553 0 0 1-1.03-1.157c-.376-.67-.551-1.463-.549-2.313-1.938 1.91-3.635 3.39-5.844 4.914-3.057 2.089-6.008 3.85-8.82 4.668 1.716-1.668 5.737-3.915 7.613-5.209.939-.648 7.154-6.058 7.244-5.97a10.25 10.25 0 0 1 .912-2.425c-1.52-.52-2.709-1.091-3.563-1.713l-1.65 1.899c-2.128 2.451-4.32 4.843-7.512 6.271-3.042 1.361-6.938 1.816-12.449.557l-.009.439c-.049 2.612-.099 5.228.513 7.222.99 3.229 3.919 4.914 12.119 2.4l.023-.008c3.035-.82 6.283-3.145 9.154-5.745a52.898 52.898 0 0 0 1.646-1.558 65.849 65.849 0 0 0 1.535-1.566v-.003l.008-.009.659-.694zm-4.341-9.441-2.159 1.094c-7.265 3.683-12.16 4.499-15.331 3.231-2.904-1.161-4.404-4.164-4.996-8.354 5.21.157 9.631.022 13.091-.469 3.749-.532 6.422-1.498 7.814-2.976l.49-.521c.634.646 1.538 1.221 2.572 1.762-1.182.853-1.984 1.679-2.417 2.479l-.049-.107-.346.157c-1.578.722-3.432 1.765-5.083 2.329a191.924 191.924 0 0 1-6.758 2.192c2.569.102 8.016-1.169 11.857-3.252-.007.248.023.495.092.738.172.604.581 1.168 1.223 1.697zm-1.643-8.69a2.72 2.72 0 0 1-.281-.603c-.219-.689-.14-1.422.342-2.213-3.437.113-9.455-1.137-10.72-1.886 3.571.192 7.878.965 11.816.602.449-.414 1.004-.84 1.678-1.285-.878-.813-1.503-1.549-1.903-2.214l-1.229.244c-5.805 1.154-11.463-2.486-17.119-6.191-.912 1.164-1.513 2.718-1.656 4.371-.137 1.587.148 3.26.982 4.758.837 1.504 2.235 2.845 4.322 3.769 2.941 1.301 7.232 1.774 13.229.741l.539-.093zm.6-8.259-.728-.36c-6.924-3.427-11.568-7.102-13.63-11.056-1.885-3.614-1.588-7.514 1.126-11.729 1.783 2.708 3.741 5.36 6.052 7.898a49.48 49.48 0 0 0 9.133 7.87l1.954 3.374c-.648.124-1.232.273-1.745.456-2.811-1.524-5.942-3.237-8.093-5.559-1.629-1.482-4.332-4.972-6.387-5.852 1.633 2.204 3.226 4.875 5.5 6.944 2.104 1.915 4.633 3.545 7.427 5.3a2.336 2.336 0 0 0-.683.906c-.215.53-.2 1.127.074 1.808z"/><path fill="#FFF" d="M310.325 480.27h-.012V390.081h-60.529v152.625c16.47-.5 31.346-7.39 42.232-18.275 11.31-11.309 18.308-26.926 18.309-44.161z"/><path d="m249.375 537.072.016-81.275c3.305-6.903 6.99-13.229 11.026-19.019a124.733 124.733 0 0 1 3.173-4.349c-2.058-.396-3.878-1.084-5.405-2.017-1.949-1.188-3.428-2.775-4.335-4.663-.906-1.887-1.238-4.064-.893-6.433.302-2.067 1.118-4.282 2.518-6.575l.005-.008c1.206-1.916 2.967-3.936 6.071-5.715 3.056-1.749 7.422-3.269 13.871-4.222 6.646-.982 12.261-2.145 16.981-3.644 4.692-1.491 8.512-3.319 11.598-5.642l1.519-1.143-.463 1.843a59.332 59.332 0 0 0-1.721 11.519c-.229 4.364-.06 9.378.667 15.412.64 5.312.916 10.565-.445 15.348-1.376 4.835-4.407 9.15-10.379 12.492l-.001-.001c-7.935 5.213-13.336 5.208-17.426 2.509-3.855-2.545-6.429-7.47-8.872-12.633a104.282 104.282 0 0 0-2.766 4.22c-5.278 8.514-8.755 17.084-9.622 25.733 3.211-1.842 5.746-4.123 7.606-6.845 1.403-2.616 1.738-5.226 1.005-7.826l-.463-1.638 1.458.879.596.359v.001c3.355 2.019 6.71 4.038 6.622 8.644 3.707-.505 7.331-1.201 10.899-2.021 3.691-.85 7.309-1.83 10.893-2.867a7.03 7.03 0 0 1-.187-1.606h-.003V455.88h.003a6.963 6.963 0 0 1 2.05-4.941 6.969 6.969 0 0 1 4.932-2.045v-.003h.011v.003a6.971 6.971 0 0 1 4.94 2.05 6.96 6.96 0 0 1 2.044 4.933h.003v.01h-.003a6.97 6.97 0 0 1-2.049 4.941 6.97 6.97 0 0 1-4.933 2.044v.003h-.01v-.003a6.976 6.976 0 0 1-4.782-1.896l-11.087 3.811 11.51 3.047a6.972 6.972 0 0 1 6.068-3.533v-.003h.01v.003a6.973 6.973 0 0 1 4.941 2.05 6.964 6.964 0 0 1 2.044 4.933h.003v.01h-.003a6.97 6.97 0 0 1-2.049 4.941 6.97 6.97 0 0 1-4.933 2.044v.003h-.01v-.003a6.97 6.97 0 0 1-4.941-2.05 6.972 6.972 0 0 1-1.983-4.023l-10.41-3.091 9.748 9.063a6.963 6.963 0 0 1 1.592-.183v-.004h.011v.004c1.929 0 3.677.784 4.941 2.049a6.967 6.967 0 0 1 2.043 4.933h.004v.01h-.004a6.966 6.966 0 0 1-2.049 4.941 6.97 6.97 0 0 1-4.933 2.044v.003h-.01v-.003a6.97 6.97 0 0 1-4.941-2.05 6.965 6.965 0 0 1-2.044-4.932h-.003v-.011h.003a6.967 6.967 0 0 1 1.235-3.962l-9.013-9.422c-1.706-1.199-3.18-1.876-4.525-2.269a13.631 13.631 0 0 0-2.158-.437c.904 1.121 1.46 2.214 1.721 3.248.364 1.448.157 2.782-.479 3.939-.62 1.126-1.647 2.072-2.946 2.783-1.897 1.038-4.397 1.581-7.048 1.444l-1.964-.103 1.613-1.122c2.267-1.576 3.173-2.893 3.203-3.87.014-.449-.185-.832-.527-1.13-.4-.347-.993-.594-1.693-.718-1.977-.35-4.688.287-6.52 2.31l-.033.036c-3.024 2.867-4.867 5.674-5.672 8.533-.695 2.471-.618 5.002.134 7.668.296-.355.602-.704.922-1.046 3.237-3.46 7.571-5.994 12.04-6.967 4.516-.983 9.178-.383 13.016 2.441.465.343.927.727 1.379 1.149a20.355 20.355 0 0 1 1.495 1.549c3.224 3.731 4.437 8.068 3.555 12.85-.866 4.696-3.771 9.808-8.793 15.176a71.624 71.624 0 0 1-5.476 5.23l-.039.031a191.293 191.293 0 0 0-10.872 8.74c-3.553 3.068-7.244 6.552-10.666 9.876l-1.156-3.864z"/><path fill="#00923D" d="M250.287 539.233a242.952 242.952 0 0 1 10.028-9.186 192.128 192.128 0 0 1 10.928-8.786 70.27 70.27 0 0 0 5.36-5.116c4.839-5.173 7.63-10.056 8.45-14.502.804-4.36-.305-8.318-3.25-11.727a18.59 18.59 0 0 0-1.395-1.448 13.638 13.638 0 0 0-1.258-1.045c-3.498-2.574-7.775-3.115-11.937-2.209-4.207.916-8.291 3.304-11.344 6.566a21.816 21.816 0 0 0-1.615 1.944l-.754 1.025-.423-1.202c-1.185-3.369-1.416-6.552-.538-9.67.871-3.096 2.833-6.104 6.037-9.142 2.172-2.371 5.373-3.116 7.714-2.702.936.166 1.754.519 2.342 1.029.646.561 1.017 1.299.99 2.183-.032 1.06-.674 2.314-2.182 3.682 1.653-.144 3.169-.579 4.391-1.248 1.074-.587 1.916-1.354 2.41-2.251.476-.865.628-1.869.353-2.964-.301-1.197-1.105-2.514-2.541-3.904l-1.293-1.252 1.799.099c1.318.072 2.66.193 4.153.628s3.115 1.179 4.969 2.488l.043.031.055.057 8.966 9.373a7.023 7.023 0 0 1 1.854-1.302l-11.334-10.539-2.103-1.954 2.75.816 12.739 3.782a6.918 6.918 0 0 1 .341-1.71l-13.44-3.558-2.144-.568 2.097-.72 12.668-4.354a7.004 7.004 0 0 1-.631-1.109c-3.639 1.056-7.304 2.05-11.026 2.906-3.85.885-7.78 1.629-11.835 2.149l-.84.107.087-.842c.414-4.031-2.278-5.975-5.204-7.759.338 2.435-.146 4.865-1.451 7.29l-.01.018-.027.04c-2.198 3.234-5.27 5.877-9.212 7.924l-1.067.555.085-1.2c.662-9.302 4.288-18.485 9.93-27.585a112.669 112.669 0 0 1 5.183-7.61c1.647-2.429 7.036-8.754 16.152-18.14l2.682-2.216c-5.149 5.302-11.064 12.549-15.255 17.879a65.277 65.277 0 0 1 7.422-3.035c4.04-1.383 8.082-1.834 12.643-2.695l2.609-.326c-4.495.85-10.838 2.934-14.821 4.296-3.496 1.196-6.771 2.609-9.785 4.275-.715.952-1.409 1.904-2.083 2.856l.065-.03c2.454 5.222 4.984 10.282 8.712 12.742 3.651 2.41 8.581 2.341 15.986-2.534l.039-.026c5.615-3.142 8.458-7.176 9.741-11.686 1.299-4.563 1.025-9.655.403-14.821-.735-6.104-.905-11.194-.672-15.639a60.683 60.683 0 0 1 1.348-10.044c-2.926 1.934-6.405 3.504-10.532 4.814-4.809 1.528-10.489 2.705-17.192 3.696-6.26.926-10.472 2.385-13.396 4.06-2.872 1.646-4.494 3.502-5.601 5.259-1.298 2.13-2.055 4.17-2.33 6.059-.307 2.1-.02 4.017.772 5.664s2.097 3.041 3.823 4.095c1.556.948 3.456 1.622 5.636 1.961.275-.352.55-.699.828-1.046 3.115-6.06 5.069-14.116 5.007-20.159l.412 2.354c.05 4.777-.351 9.192-2.205 13.96a48.304 48.304 0 0 1 6.557-6.23l1.873-1.191c-3.326 3.256-7.498 8.253-10.503 11.997a52.581 52.581 0 0 1-1.084 1.987l-.331-.19a123.06 123.06 0 0 0-3.552 4.84c-4.14 5.939-7.903 12.438-11.258 19.541l.022 82.145z"/><path fill="#00923D" d="M295.635 479.561v.003h-.011v-.003a5.408 5.408 0 0 0-3.826 1.589 5.402 5.402 0 0 0-1.588 3.829h.003v.011h-.003c.001 1.492.609 2.846 1.589 3.826s2.335 1.588 3.829 1.588v-.003h.01v.003a5.403 5.403 0 0 0 3.827-1.589 5.407 5.407 0 0 0 1.588-3.829h-.003v-.01h.003a5.408 5.408 0 0 0-1.589-3.827 5.4 5.4 0 0 0-3.829-1.588zm4.279-29.099v.003h-.011v-.003a5.408 5.408 0 0 0-3.826 1.589 5.403 5.403 0 0 0-1.588 3.83h.003V455.89h-.003a5.4 5.4 0 0 0 1.589 3.827 5.403 5.403 0 0 0 3.829 1.588v-.003h.01v.003a5.403 5.403 0 0 0 3.827-1.589 5.407 5.407 0 0 0 1.588-3.829h-.004v-.01h.004a5.412 5.412 0 0 0-1.589-3.827 5.409 5.409 0 0 0-3.829-1.588zm1.711 15.406v.003h-.01v-.003a5.402 5.402 0 0 0-3.826 1.589 5.402 5.402 0 0 0-1.588 3.829h.003v.01h-.003a5.4 5.4 0 0 0 1.589 3.827 5.403 5.403 0 0 0 3.829 1.588v-.003h.01v.003a5.403 5.403 0 0 0 3.826-1.589 5.403 5.403 0 0 0 1.589-3.829h-.004v-.01h.004a5.408 5.408 0 0 0-1.59-3.827 5.403 5.403 0 0 0-3.829-1.588z"/><path fill-rule="evenodd" d="M249.049 388.304h1.621v156.377h-1.621z"/><path fill="#FFF" fill-rule="evenodd" d="M5.843 54.324h484.608v188.483H5.843z"/><path fill="#009140" fill-rule="evenodd" d="M163.545 54.324h168.27v121.657h-168.27z"/><path fill-rule="evenodd" d="M123.344 67.961h31.746v93.747h-31.746V91.345l-23.649 70.363H71.357l-24.076-69.67v69.671H15.535V67.961h50.708l19.389 57.101 19.815-57.101h17.897zm176.179 0v20.733h-55.681v17.183h47.768v17.41h-47.768v38.421h-38.004V67.961h93.685zm57.368 0h37.758v36.023l39.342-36.023h51.775l-44.993 34.299 47.48 59.448h-47.48l-26.001-38.195-20.123 16.053v22.143h-37.758V67.961z"/><path d="M16.808 229.956v-37.109h7.491v16.477l15.138-16.477h10.074L35.54 207.301l14.732 22.655h-9.694l-10.195-17.419-6.083 6.204v11.215h-7.492zm110.013 0h-8.156l-3.24-8.433H100.59l-3.059 8.433h-7.949l14.455-37.109h7.923l14.861 37.109zm-13.799-14.68-5.115-13.772-5.011 13.772h10.126zm56.997 14.68v-37.109h15.777c3.966 0 6.843.337 8.641 1.002 1.797.666 3.24 1.849 4.32 3.551 1.081 1.71 1.616 3.655 1.616 5.849 0 2.783-.821 5.089-2.454 6.904-1.633 1.806-4.086 2.955-7.344 3.421 1.625.951 2.963 1.987 4.018 3.119 1.054 1.132 2.472 3.137 4.26 6.022l4.536 7.241h-8.96l-5.417-8.079c-1.926-2.886-3.24-4.7-3.948-5.452-.708-.752-1.46-1.262-2.255-1.547-.795-.276-2.048-.415-3.776-.415h-1.512v15.492h-7.502v.001zm7.5-21.419h5.538c3.594 0 5.841-.146 6.739-.449.89-.303 1.59-.83 2.1-1.573.501-.743.76-1.667.76-2.782 0-1.253-.337-2.255-1.002-3.024-.665-.769-1.607-1.252-2.825-1.46-.605-.078-2.428-.122-5.469-.122h-5.841v9.41zm77.656 21.419-13.263-37.109h8.13l9.384 27.467 9.089-27.467h7.949l-13.289 37.109h-8zm65.128 0v-37.109h7.49v37.109h-7.49zm53.912 0v-37.109h7.292l15.189 24.779v-24.779h6.964v37.109h-7.525l-14.956-24.201v24.201h-6.964zm110.556 0h-8.156l-3.239-8.433h-14.835l-3.06 8.433h-7.948l14.455-37.109h7.923l14.86 37.109zm-13.797-14.68-5.115-13.772-5.011 13.772h10.126zm-9.418-24.555 3.491-7.569h7.975l-6.964 7.569h-4.502z"/></svg>