<svg xmlns="http://www.w3.org/2000/svg" xml:space="preserve" width="415.89066" height="415.89066" viewBox="0 0 415.89064 415.89066"><defs><clipPath id="a" clipPathUnits="userSpaceOnUse"><path d="M0 600h800V0H0Z"/></clipPath></defs><g clip-path="url(#a)" transform="matrix(1.33333 0 0 -1.33333 -325.388 607.946)"><path d="M0 0c85.899 0 155.959-70.06 155.959-155.959 0-85.9-70.06-155.959-155.959-155.959s-155.959 70.059-155.959 155.959C-155.959-70.06-85.899 0 0 0" style="fill:#07598f;fill-opacity:1;fill-rule:nonzero;stroke:none" transform="translate(400 455.96)"/><path d="M0 0c58.924 0 106.984-48.06 106.984-106.984 0-58.924-48.06-106.984-106.984-106.984-58.925 0-106.984 48.06-106.984 106.984C-106.984-48.06-58.925 0 0 0" style="fill:#fff;fill-opacity:1;fill-rule:nonzero;stroke:none" transform="translate(400 406.984)"/><path d="M0 0a97.663 97.663 0 0 1 21.717-10.943V173.31A97.574 97.574 0 0 1 0 162.368Z" style="fill:#07598f;fill-opacity:1;fill-rule:nonzero;stroke:none" transform="translate(345.705 218.816)"/><path d="M0 0v-122.611c13.573 16.785 21.718 38.122 21.718 61.305C21.718-38.124 13.573-16.784 0 0" style="fill:#07598f;fill-opacity:1;fill-rule:nonzero;stroke:none" transform="translate(476.015 361.306)"/><path d="M0 0a97.616 97.616 0 0 1 21.719 10.944v162.367A97.524 97.524 0 0 1 0 184.253Z" style="fill:#07598f;fill-opacity:1;fill-rule:nonzero;stroke:none" transform="translate(432.578 207.873)"/><path d="M0 0v-194.247a97.623 97.623 0 0 1 10.859-.609c3.669 0 7.292.21 10.859.609V0c-3.567.398-7.19.608-10.859.608C7.188.608 3.567.397 0 0" style="fill:#07598f;fill-opacity:1;fill-rule:nonzero;stroke:none" transform="translate(389.142 397.124)"/><path d="M0 0v122.612c-13.573-16.785-21.717-38.125-21.717-61.307C-21.717 38.122-13.573 16.783 0 0" style="fill:#07598f;fill-opacity:1;fill-rule:nonzero;stroke:none" transform="translate(323.985 238.695)"/><path d="m0 0 16.588-51.047-43.421 31.551-43.427-31.551L-53.672.002l-43.425 31.547h53.673l16.589 51.05 16.588-51.05h53.673z" style="fill:#fff;fill-opacity:1;fill-rule:nonzero;stroke:none" transform="translate(426.836 289.664)"/><path d="m0 0 12.785-39.348-33.471 24.321-33.474-24.321L-41.375.004l-33.472 24.317h41.373l12.787 39.351L-7.9 24.321h41.373z" style="fill:#000;fill-opacity:1;fill-rule:nonzero;stroke:none" transform="translate(420.688 291.943)"/><path d="m0 0 .662.15 2.332-9.549-.826-.188C.257-4.98-4.089-2.662-7.891-3.521c-2.81-.636-4.217-2.865-3.768-4.85.149-.66.427-1.119.704-1.577.645-.55 1.456-1.061 2.433-1.536.772-.346 2.613-.798 5.188-1.432 3.883-1.034 6.533-1.998 8.027-3.224 1.493-1.226 2.363-2.766 2.811-4.75 1.085-4.793-2.15-9.695-7.936-11.003-1.818-.412-3.215-.38-5.919.051-.736.181-1.397.031-1.728-.043-.826-.188-1.541-.87-1.94-2.177l-.661-.149-2.467 10.909.661.15c2.706-5.817 7.42-8.225 11.553-7.292 3.141.711 4.841 3.18 4.317 5.495-.3 1.322-1.425 2.457-3.174 3.278-.81.512-2.283.874-4.325 1.455-5.85 1.283-8.043 2.525-9.851 4.374-.757 1.045-1.35 2.128-1.686 3.615-1.01 4.463 1.932 9.124 7.057 10.283.826.188 1.855.246 2.719.267 1.397-.031 4.175-.792 4.837-.642C-.213-2.133.081-1.892 0 0" style="fill:#fff;fill-opacity:1;fill-rule:nonzero;stroke:none" transform="translate(375.325 445.165)"/><path d="m0 0 1.017.029.022-.847-15.584-.438-.024.847 1.016.028a6.34 6.34 0 0 1 2.023.396c.5.353.659.696.815 1.209.159.344.305 1.196.262 2.721L-11 23.426c-.087 3.049-.261 3.214-1.296 3.863a6.327 6.327 0 0 1-2.042.281l-1.017-.028-.024.848 15.586.438.023-.848-1.016-.029c-.848-.023-1.52-.212-2.019-.565-.504-.183-.664-.527-.987-1.045-.161-.343-.137-1.19-.094-2.715l.548-19.481c.086-3.05.26-3.214 1.295-3.864A6.353 6.353 0 0 1 0 0" style="fill:#fff;fill-opacity:1;fill-rule:nonzero;stroke:none" transform="translate(404.58 417.12)"/><path d="m0 0 .828-.18L-1.4-10.447l-.829.178C-2.828-4.242-6.32-.363-10.793.608c-4.307.935-7.862-1.067-9.957-5.122-1.129-2.009-1.963-4.255-2.467-6.575-1.187-5.464-.832-10.224 1.588-12.656 1.275-1.318 2.988-2.21 4.977-2.641 1.324-.288 2.886-.28 4.484-.107l1.295 5.963c.504 2.318.409 2.685-.477 3.397-.423.439-1.05.749-1.713.892l-.664.145.145.662L.496-18.49l-.144-.662c-2.19.301-2.959-.052-3.672-.937-.035-.165-.346-.792-.598-1.952l-1.295-5.962c-4.001-.865-8.156-.83-12.462.105-5.466 1.186-8.583 3.597-10.895 6.526-1.037 1.614-1.909 3.19-2.248 4.824-.563 2.203-.592 4.464-.053 6.948 1.905 8.778 10.17 14.094 19.443 12.081 1.491-.323 2.781-.777 3.904-1.194 1.086-.584 4.573-2.9 5.071-3.009C-1.626-1.901-.855-1.549 0 0" style="fill:#fff;fill-opacity:1;fill-rule:nonzero;stroke:none" transform="translate(444.43 440.733)"/><path d="m0 0-3.147-20.949L13.854-8.53 24.1-14.838l-.444-.722-.721.444c-.722.444-1.534.744-2.144.722-.376.034-.843-.077-1.255-.421-.32-.2-.765-.922-1.564-2.22L7.752-33.632c-1.599-2.597-1.544-2.829-1.032-3.941.343-.409.832-.91 1.552-1.354l.723-.445-.445-.721-13.131 8.086.443.721.866-.532a6.276 6.276 0 0 1 1.91-.778c.466.11.933.222 1.343.566.322.199.912.832 1.711 2.131l11.462 18.616-23.797-16.992-.432.266L-6.85.835l-10.928-17.751-1.422-2.309c-.422-1.332.054-2.819 2.363-4.241l-.445-.721-8.658 5.331.445.721.289-.178c1.154-.71 2.431-.9 3.363-.678.322.199.877.455 1.377.943l1.244 2.021L-9.448-.153c1.599 2.598 1.399 2.919 1.033 3.941-.344.411-.832.91-1.553 1.355l-.866.533.444.721z" style="fill:#fff;fill-opacity:1;fill-rule:nonzero;stroke:none" transform="translate(469.526 428.203)"/><path d="m0 0-2.906-10.702 16.033-4.478c2.331-.612 4.124-.774 5.346-.725.847-.012 1.632.349 2.318.848l.498-.686-12.475-9.068-.498.686c1.545 1.333 1.62 1.807 1.222 2.354-.398.549-1.644 1.11-3.738 1.684l-10.465 2.869-.325-1.283 4.783-6.581c1.794-2.467 2.13-2.642 3.251-2.455.512.161 1.296.523 2.119 1.121l.498-.686-12.064-8.768-.498.686.822.597a6.382 6.382 0 0 1 1.447 1.47c.074.474.15.947-.013 1.458-.062.374-.422 1.159-1.319 2.392l-11.459 15.766c-1.793 2.467-2.167 2.405-3.388 2.356-.374-.062-1.022-.324-1.708-.822l-.821-.597-.499.685 11.926 8.668.499-.685c-.823-.599-1.272-1.134-1.621-1.807a1.738 1.738 0 0 1-.087-1.321c.062-.373.56-1.059 1.457-2.292l5.48-7.54 3.493 13.642c.536 1.857.624 3.177.226 3.726-.399.548-.873.623-1.62.499-.237.037-1.022-.324-2.119-1.12l-.498.685L2.756 7.45l.498-.685C1.572 5.333 1.435 5.232 0 0" style="fill:#fff;fill-opacity:1;fill-rule:nonzero;stroke:none" transform="translate(325.611 420.588)"/><path d="m0 0 .421.531 7.808-5.974-.528-.665C3.324-3.717-1.516-4.637-3.938-7.692c-1.791-2.257-1.488-4.876.106-6.14.531-.42 1.035-.604 1.539-.787.847-.023 1.799.087 2.856.33.82.215 2.537 1.016 4.941 2.138 3.671 1.63 6.341 2.541 8.273 2.523 1.932-.019 3.576-.673 5.169-1.936 3.851-3.055 4.405-8.902.719-13.549-1.158-1.461-2.267-2.312-4.643-3.673-.686-.32-1.108-.851-1.317-1.116-.527-.664-.656-1.644-.147-2.912l-.422-.532-8.763 6.95.421.532c5.755-2.834 10.938-1.753 13.571 1.566 2.001 2.522 1.777 5.513-.082 6.987-1.063.843-2.651 1.02-4.529.563-.952-.11-2.325-.751-4.281-1.58-5.361-2.669-7.848-3.077-10.415-2.77-1.246.339-2.386.811-3.581 1.759-3.585 2.842-4.218 8.318-.953 12.435.527.664 1.291 1.355 1.951 1.914 1.108.851 3.749 2 4.17 2.532C1.172-1.794 1.25-1.423 0 0" style="fill:#fff;fill-opacity:1;fill-rule:nonzero;stroke:none" transform="translate(291.221 399.15)"/><path d="m0 0 5.65-6.761 4.977 9.901zm3.141-11.951L5.023-8.39-1.715-.328l-2.971-.937c-1.106-.262-1.865-.675-2.254-1.001-.652-.543-.955-1.238-.78-1.975-.042-.478.48-1.366 1.458-2.537l-.65-.543-6.303 7.542.65.543C-10.892-.709-9.59-.946-4.884.558l24.921 6.913.219-.26L8.508-16.522c-1.063-2.432-1.668-3.821-1.753-4.776.067-.607.241-1.345.893-2.126l-.65-.542-9.236 11.053.648.543.436-.521c.652-.779 1.325-1.321 1.912-1.494.347-.151.715-.064 1.105.262.13.109.283.456.412.564.13.11.412.566.866 1.608" style="fill:#fff;fill-opacity:1;fill-rule:nonzero;stroke:none" transform="translate(492.8 386.294)"/><path d="M0 0c2.033 0 3.727-1.694 3.727-3.729 0-2.033-1.694-3.558-3.727-3.558-2.035 0-3.561 1.525-3.561 3.558C-3.561-1.694-2.035 0 0 0" style="fill:#fff;fill-opacity:1;fill-rule:nonzero;stroke:none" transform="translate(528.482 324.218)"/><path d="M0 0c-2.034 0-3.729 1.695-3.729 3.728 0 2.034 1.695 3.559 3.729 3.559s3.559-1.525 3.559-3.559C3.559 1.695 2.034 0 0 0" style="fill:#fff;fill-opacity:1;fill-rule:nonzero;stroke:none" transform="translate(271.52 316.93)"/><path d="M0 0c-.904 2.558-2.917 4.182-5.925 4.558-2.632.328-5.837-.267-9.832-1.678-4.793-1.694-8.027-3.735-9.642-6.283-1.203-1.684-1.437-3.565-.703-5.642.509-1.437 1.223-2.442 2.202-3.176 2.66-1.935 6.947-1.858 13.179.344C-3.371-9.279-.684-6.712.18-4.07.584-2.669.452-1.278 0 0m1.165.772c3.481-8.835-.603-17.11-8.913-20.046-3.515-1.243-7.106-1.254-10.396-.079-4.635 1.416-7.748 4.631-9.499 9.584-1.807 5.113-1.405 9.569.991 13.471 1.925 3.197 4.725 5.445 8.401 6.744C-9.942 13.382-1.452 9.194 1.165.772" style="fill:#fff;fill-opacity:1;fill-rule:nonzero;stroke:none" transform="translate(289.309 260.712)"/><path d="m0 0 .583-.833-9.148-4.958-15.068 21.516.694.486.583-.833a6.37 6.37 0 0 1 1.444-1.472c.472-.084.944-.165 1.457-.011.375.054 1.167.402 2.416 1.277l15.964 11.179c2.498 1.751 2.443 2.124 2.415 3.346-.153.514-.306 1.028-.791 1.721l-.584.834.694.486L9.7 19.828l-.695-.486-.777 1.11c-.486.694-1.014 1.153-1.582 1.374a1.74 1.74 0 0 1-1.32.112c-.375-.057-1.069-.542-2.319-1.417L-12.4 9.729c-2.499-1.749-2.819-2.18-2.513-3.207.057-.375.542-1.069 1.416-2.318l1.362-1.943c1.847-2.638 3.846-3.722 6.665-3.609C-4.109-1.223-2.194-.709 0 0" style="fill:#fff;fill-opacity:1;fill-rule:nonzero;stroke:none" transform="translate(296.785 211.144)"/><path d="M0 0c-2.13 1.678-4.7 1.976-7.443.684-2.399-1.131-4.79-3.347-7.411-6.676-3.146-3.994-4.785-7.449-4.788-10.465-.117-2.064.69-3.78 2.422-5.143 1.199-.943 2.341-1.411 3.558-1.507 3.284-.213 6.866 2.144 10.954 7.337 4.822 6.125 5.72 9.733 5.037 12.427C1.921-1.943 1.066-.839 0 0m.573 1.275C8.24-4.328 9.21-13.506 3.76-20.431c-2.307-2.928-5.335-4.857-8.743-5.626-4.675-1.281-9.024-.228-13.152 3.021-4.261 3.354-6.304 7.335-6.366 11.914-.082 3.729 1.083 7.128 3.494 10.19 5.45 6.924 14.865 7.924 21.58 2.207" style="fill:#fff;fill-opacity:1;fill-rule:nonzero;stroke:none" transform="translate(326.76 208.443)"/><path d="m0 0 1.32-21.145L15.336-5.434l11.341-4.017-.282-.799-.799.283c-.799.283-1.654.406-2.247.257-.376-.046-.808-.253-1.138-.676-.273-.262-.556-1.061-1.065-2.499l-6.507-18.371c-1.019-2.875-.916-3.09-.183-4.07a6.292 6.292 0 0 1 1.803-.998l.799-.283-.284-.799-14.536 5.148.283.801.959-.34a6.307 6.307 0 0 1 2.03-.359c.432.205.865.412 1.194.836.273.261.716 1.004 1.225 2.441l7.3 20.608-19.701-21.61-.479.17L-6.872-.622l-6.961-19.649-.904-2.555c-.135-1.393.645-2.746 3.2-3.653l-.282-.798-9.585 3.396.283.799.319-.113c1.279-.453 2.566-.371 3.431.043.273.261.763.629 1.149 1.211l.792 2.236 6.225 17.572c1.018 2.875.755 3.149.183 4.071a6.362 6.362 0 0 1-1.804.998l-.958.339.283.798z" style="fill:#fff;fill-opacity:1;fill-rule:nonzero;stroke:none" transform="translate(353.685 193.33)"/><path d="M0 0c-2.711 0-4.915-1.355-6.27-4.067-1.186-2.372-1.695-5.593-1.695-9.829 0-5.084.848-8.813 2.712-11.186 1.186-1.693 2.88-2.541 5.084-2.541 1.525 0 2.711.338 3.729 1.016 2.711 1.865 4.066 5.931 4.066 12.541 0 7.795-1.525 11.185-3.728 12.878C2.712-.34 1.356 0 0 0m-.338 1.355c9.49.339 15.929-6.269 15.929-15.084 0-3.728-1.185-7.117-3.388-9.828C9.322-27.455 5.254-29.318 0-29.318c-5.422 0-9.49 1.863-12.371 5.422-2.373 2.882-3.559 6.271-3.559 10.167 0 8.815 6.779 15.423 15.592 15.084" style="fill:#fff;fill-opacity:1;fill-rule:nonzero;stroke:none" transform="translate(399.09 182.05)"/><path d="m0 0-.243.811 14.606 4.388.244-.81-.648-.196c-2.273-.681-2.613-1.315-2.693-2.224-.229-.422.114-1.559.601-3.182l4.145-13.797c1.56-5.191 2.455-5.808 4.58-6.408 1.121-.195 2.192-.227 3.652.211 3.084.928 4.756 3.023 5.16 5.799.146 1.281-.164 3.49-1.09 6.574L24.852 2.688c-.782 2.598-1.674 3.214-2.632 3.457-.747.13-1.607.048-2.743-.293l-.244.81 9.738 2.928.244-.813-.486-.145c-1.625-.487-2.565-1.479-2.661-2.923-.017-.536.227-1.348.569-2.483l3.218-10.713c1.999-6.654 2.147-8.909-.482-12.531-1.443-1.673-3.52-3.003-6.442-3.882-2.434-.733-4.48-.993-5.973-.733-4.269.662-6.349 2.869-7.763 7.576L5.05-3.262C4.075-.016 3.652.212 2.532.406 2.159.471 1.299.39 0 0" style="fill:#fff;fill-opacity:1;fill-rule:nonzero;stroke:none" transform="translate(417.93 183.144)"/><path d="m0 0 .704.471L6.46-8.115l-.705-.473C1.751-4.744-3.091-4.52-6.751-6.973c-3.098-2.076-4.592-5.933-3.832-9.504a19.923 19.923 0 0 1 2.932-6.808c2.923-4.364 6.552-7.647 10.172-7.871 1.927-.137 3.757.478 5.588 1.705 3.099 2.076 4.642 4.947 5.287 10.071l1.416-2.112c-.79-4.608-2.754-7.762-6.837-10.498-5.208-3.49-10.848-4.209-15.742-1.778a15.14 15.14 0 0 0-5.935 5.204c-3.208 4.785-3.553 11.084-.839 16.167 1.263 2.682 2.997 4.66 5.39 6.264 1.689 1.131 3.802 1.937 6.246 2.553 1.408.332 2.301.523 2.582.713C.522-2.303.708-1.361 0 0" style="fill:#fff;fill-opacity:1;fill-rule:nonzero;stroke:none" transform="translate(473.183 209.435)"/><path d="m0 0-5.668 4.021c-.013-2.07.031-3.763.509-5.141.397-.905.753-1.573 1.445-2.064.552-.392 1.302-.508 1.912-.527.572.219 1.003.536 1.298.951C-.014-2.07.2-1.183 0 0m1.242-.883c.424-3.21.117-5.694-1.06-7.353-1.372-1.934-3.736-2.336-5.67-.962-2.489 1.764-3.166 4.324-1.285 14.003l-1.659 1.177c-2.627 1.863-2.862 1.823-4.004 1.386-.334-.179-.865-.634-1.158-1.048-.59-.83-.842-1.48-.959-2.23.08-.471.258-.806.535-1.002.277-.196.651-.254 1.36-.134.709.121 1.36-.134 1.774-.427 1.243-.882 1.485-2.3.405-3.822-.979-1.381-2.83-1.937-4.074-1.057-1.658 1.178-2.375 3.973-1.537 6.911.467 1.539 1.212 2.88 2.094 4.125 2.256 3.178 5.287 3.935 7.201 3.41.65-.254 1.756-1.039 3.553-2.313l6.496-4.609c1.519-1.08 1.756-1.041 2.091-.861.235.041.333.177.432.316.196.276.254.651-.005 1.458l.808.259c.914-2.52.859-4.352-.219-5.872C4.988-1.463 3.236-1.883 1.242-.883" style="fill:#fff;fill-opacity:1;fill-rule:nonzero;stroke:none" transform="translate(515.906 218.361)"/><path d="M0 0c2.033 0 3.729-1.694 3.729-3.729 0-2.034-1.696-3.559-3.729-3.559-2.034 0-3.559 1.525-3.559 3.559C-3.559-1.694-2.034 0 0 0" style="fill:#fff;fill-opacity:1;fill-rule:nonzero;stroke:none" transform="translate(528.018 239.335)"/><path d="m0 0 .225.638L6.891-1.35l-.225-.64C2.211-2.396.473-3.762-.147-5.52-.598-6.797-.08-7.879.879-8.217c.479-.17.856-.121 1.231-.074 1.456.564 6.728 4.817 9.097 5.421a6.11 6.11 0 0 0 3.535-.167c2.076-.733 4.082-2.695 4.363-4.951a6.092 6.092 0 0 0-.166-3.535c-.337-.959-1.107-2.125-2.253-3.338-.329-.424-.442-.744-.442-.744-.168-.479-.017-1.071.51-1.616l-.227-.64-6.986 2.101.281.801c4.073-.178 6.733 1.762 7.407 3.68.451 1.278-.17 2.575-1.29 2.969-1.279.451-2.144.037-5.076-2.165-2.33-1.515-3.898-2.4-4.763-2.814-1.457-.565-2.905-.595-4.343-.087-2.876 1.013-4.966 4.265-3.615 8.101.337.959.891 2.021 1.869 2.755.272.264.546.526.6.686C.836-1.193.732-.978 0 0" style="fill:#fff;fill-opacity:1;fill-rule:nonzero;stroke:none" transform="translate(520.537 264.879)"/><path d="M0 0c2.033 0 3.729-1.695 3.729-3.729 0-2.033-1.696-3.558-3.729-3.558-2.033 0-3.559 1.525-3.559 3.558C-3.559-1.695-2.033 0 0 0" style="fill:#fff;fill-opacity:1;fill-rule:nonzero;stroke:none" transform="translate(540.977 278.629)"/></g></svg>