<svg xmlns="http://www.w3.org/2000/svg" xml:space="preserve" width="649.48828" height="896.77356" viewBox="0 0 649.48828 896.77353"><path d="m296.384 247.247 57.486 176.999h186.065L389.417 533.585l57.486 176.998-150.519-109.356-150.533 109.356 57.5-176.998-150.533-109.34h186.065z" style="fill:#ed192d;fill-opacity:1;fill-rule:nonzero;stroke:none" transform="matrix(1.33333 0 0 -1.33333 -70.424 1052.69)"/><path d="m238.033 789.518 9.657-29.72h31.247l-25.28-18.367 9.656-29.72-25.28 18.368-25.28-18.368 9.656 29.72-25.28 18.367h31.247zM354.755 789.518l-9.655-29.72h-31.248l25.28-18.367-9.656-29.72 25.279 18.368 25.282-18.368-9.658 29.72 25.282 18.367h-31.248z" style="fill:#c69f51;fill-opacity:1;fill-rule:nonzero;stroke:none" transform="matrix(1.33333 0 0 -1.33333 -70.424 1052.69)"/><path d="m394.363 211.809 5.739-12.793v-80.54h16.619v93.333zM200.024 118.477h-51.128v80.539l-5.774 12.793h22.491v-77.574h40.285zM72.49 129.35v18.384c11.112-11.817 21.723-15.25 30.432-15.25s15.116 3.939 15.216 11.11c.1 7.17-4.304 10.303-13.815 13.435-13.12 4.32-19.956 7.14-25.526 12.323-6.407 5.959-9.012 17.43-4.805 27.273 4.404 10.302 13.815 16.665 30.632 16.766 16.818.101 27.429-10.605 27.429-10.605v-17.88s-7.208 7.274-15.616 10.707c-8.41 3.435-18.72 2.828-22.824.1-4.105-2.726-6.131-9.009-2.103-13.735 4.305-5.05 12.313-6.466 21.723-9.797 9.41-3.335 17.465-8.181 20.722-16.465 4.605-11.717 1.401-24.444-8.81-32.02-10.21-7.577-35.237-12.323-52.655 5.655zM473.879 181.394l14.074-32.076h-28.056l13.982 32.076m-8.912 20.988-36.97-83.905h18.478l6.565 15.083h41.795l6.63-15.083h18.522l-41.301 93.332h-18.15zM257.606 181.394l14.074-32.076h-28.055l13.981 32.076m-8.912 20.988-36.97-83.905h18.478l6.566 15.083h41.794l6.632-15.083h18.519l-41.3 93.332h-18.15zM338.486 141.214l-29.132 70.595H290.92l38.491-93.332h18.138l38.505 93.332H367.6z" style="fill:#ed192d;fill-opacity:1;fill-rule:nonzero;stroke:none" transform="matrix(1.33333 0 0 -1.33333 -70.424 1052.69)"/></svg>