<svg xmlns="http://www.w3.org/2000/svg" width="187.08661pt" height="170.65625pt" version="1.2" viewBox="0 0 187.08661 170.65625"><path d="m185.906 98.668-1.261-1.086c-1.543-1.312-2.04-1.762-2.243-2.477-.386-1.351-.136-3.425.067-5.093.125-1.043.234-1.942.207-2.657-.055-1.386-.262-2.816-1.403-3.87-.867-.801-2.152-1.258-4.02-1.41l-.022-.083c-.305-1.25-.524-2.156-.524-3.379l.008-.836c.02-1.527.04-3.101-.512-4.48-.683-1.715-1.71-3.586-3.144-5.734-1.246-1.868-1.543-2.31-1.586-4.614l-.004-.71c-.004-1.473-.008-2.864-.93-3.805a3.9 3.9 0 0 0-1.613-1.012c.55-1.414 1.082-2.848 1.379-4.211.523-2.371.347-5.094.11-7.445-.161-1.582-.49-2.891-.778-4.043-.336-1.34-.621-2.5-.617-3.828l.02-2.836-.005-.032c-.12-2.511-1.48-3.906-2.578-5.023-1.133-1.16-1.664-1.774-1.375-3.043.621-2.73.195-5.856-1.039-7.594-.648-.906-1.344-1.16-1.813-1.215l-.062-.004h-.059c-2.738.012-5.34.586-7.855 1.145l-3.18.66c-.683.125-1.469.145-2.226.164l-1.043.035c-.043.004-4.184.243-5.364 1.02-1.476.969-3.242 1.516-5.242 1.629-4.785.27-10.414.222-12.984.148l-1.324-.011c-1.614-.008-3.282-.012-4.54-.477-1.105-.406-1.617-1.137-2.21-1.98-.547-.782-1.172-1.665-2.282-2.196-.89-.426-1.921-.472-2.914-.52l-1.086-.07c-1.175-.132-2.78-1.3-4.191-2.332-.832-.605-1.617-1.175-2.344-1.57-2.566-1.39-4.754-2.066-6.687-2.066-1.93 0-4.117.675-6.684 2.066-.726.395-1.512.965-2.344 1.57-1.414 1.032-3.015 2.2-4.195 2.332l-1.086.07c-.992.048-2.02.094-2.91.52-1.113.531-1.734 1.414-2.281 2.195-.598.844-1.11 1.575-2.211 1.98-1.262.466-2.93.47-4.543.478l-1.32.011c-2.57.074-8.204.121-12.985-.148-2.004-.113-3.766-.66-5.242-1.63-1.184-.776-5.324-1.015-5.363-1.019l-1.043-.035c-.762-.02-1.547-.039-2.23-.164l-3.18-.66c-2.516-.559-5.114-1.133-7.852-1.145h-.063l-.058.004c-.473.055-1.168.309-1.813 1.215-1.234 1.738-1.664 4.863-1.039 7.594.29 1.27-.246 1.883-1.379 3.043-1.093 1.117-2.457 2.512-2.578 5.023v.032l.016 2.836c.008 1.332-.281 2.488-.617 3.828-.29 1.152-.617 2.46-.778 4.043-.238 2.351-.41 5.074.11 7.445.3 1.363.832 2.797 1.383 4.21a3.85 3.85 0 0 0-1.614 1.013c-.922.941-.925 2.332-.93 3.804l-.007.711c-.04 2.305-.336 2.746-1.586 4.613-1.43 2.145-2.457 4.016-3.14 5.735-.552 1.379-.532 2.953-.512 4.48l.007.836c0 1.223-.222 2.125-.527 3.371l-.02.086c-1.863.153-3.152.61-4.023 1.414-1.14 1.055-1.348 2.485-1.402 3.871-.028.715.082 1.614.21 2.657.204 1.668.454 3.742.067 5.093-.203.715-.703 1.165-2.242 2.477l-1.266 1.086c-1.66 1.453-4.422 4.539-4.265 8.863.136 3.813 1.539 6.035 3.035 7.867l.828.954c.922 1.023 1.715 1.906 1.77 3.113l.003 2.441-.011 1.43c.015 2.883 1.476 4.176 3.023 5.547.992.879 2.023 1.789 2.906 3.289 1.211 2.05 1.824 3.543 2.317 4.738.558 1.348.996 2.41 1.96 3.313.356.336.876.632 1.477.976 1.13.645 2.531 1.45 3.11 2.637.21.441.277 1.496.34 2.516.1 1.66.218 3.539.956 5.062 2.102 4.352 12.04 7.902 14.008 8.57 1.778.602 3.446 1.657 4.66 2.426l.29.18c1.671 1.05 2.933 1.656 5.16.562 2.73-1.343 4.566-1.851 6.546-1.816 2.762.05 5.641 2.121 8.692 4.309l3.2 2.214c0 .004.093.063.093.063 1.762 1.137 2.87 1.308 7.601-1.406 2.008-1.153 8.688 1.195 11.914 4.187 1.954 1.805 3.426 4.332 4.723 6.563 1.668 2.859 2.98 5.117 4.934 5.117 1.953 0 3.27-2.258 4.933-5.117 1.301-2.23 2.774-4.758 4.723-6.563 3.227-2.992 9.91-5.34 11.918-4.187 4.727 2.714 5.84 2.543 7.602 1.406l.093-.059c0-.004 3.2-2.218 3.2-2.218 3.046-2.188 5.93-4.258 8.69-4.31 1.981-.034 3.813.474 6.548 1.817 2.226 1.094 3.488.489 5.16-.562l.289-.184c1.215-.765 2.883-1.82 4.66-2.422 1.969-.668 11.902-4.218 14.008-8.57.738-1.523.851-3.402.953-5.062.066-1.02.129-2.075.344-2.516.574-1.188 1.98-1.992 3.11-2.637.6-.344 1.116-.64 1.476-.976.96-.903 1.402-1.965 1.957-3.313.496-1.195 1.105-2.687 2.316-4.738.887-1.5 1.914-2.41 2.906-3.29 1.551-1.37 3.012-2.663 3.028-5.546l-.012-1.422.004-2.45c.05-1.206.848-2.089 1.77-3.112l.828-.954c1.496-1.832 2.898-4.058 3.035-7.867.152-4.324-2.61-7.41-4.27-8.863" style="fill:#211e1e;fill-opacity:1;fill-rule:evenodd;stroke:none" transform="translate(-3.095 -11.727)"/><path d="m184.531 100.246-1.246-1.07c-1.617-1.38-2.508-2.14-2.894-3.492-.504-1.762-.227-4.07 0-5.926.113-.914.214-1.774.195-2.32-.05-1.301-.258-1.977-.73-2.415-.45-.414-1.22-.683-2.32-.816-.032 1.027-.395 1.938-1.177 3.258l-.976 1.742c-1.262 2.32-2.45 4.516-5.692 7.043-.53.414-.554 1.215-.55 2.488.004 1.121.008 2.395-.551 3.61-.617 1.355-1.813 2.328-3.074 3.359-.91.738-1.844 1.504-2.532 2.402-.375.493-.629 1.723-.851 2.809-.324 1.55-.625 3.012-1.442 3.797-.918.879-2.379 2.422-3.789 3.914l-2.011 2.117c-1.739 1.8-2.754 2.758-5.04 3.098l-.078.011H43.5l-.074-.011c-2.29-.34-3.301-1.297-5.04-3.098l-2.015-2.121c-1.41-1.488-2.867-3.031-3.785-3.91-.816-.785-1.121-2.246-1.441-3.797-.227-1.086-.48-2.316-.856-2.809-.684-.898-1.621-1.664-2.527-2.402-1.262-1.031-2.457-2.004-3.078-3.36-.555-1.214-.551-2.488-.547-3.609.004-1.273-.02-2.074-.551-2.488-3.242-2.527-4.434-4.723-5.695-7.043l-.973-1.742c-.785-1.32-1.145-2.23-1.18-3.258-1.093.133-1.867.402-2.316.816-.477.438-.68 1.118-.73 2.415-.024.546.081 1.406.19 2.32.227 1.855.509 4.164.005 5.926-.39 1.351-1.282 2.113-2.899 3.488l-1.242 1.07c-1.383 1.211-3.68 3.754-3.555 7.215.121 3.352 1.387 5.176 2.567 6.621l.762.871c1.039 1.156 2.218 2.469 2.304 4.426l.008 2.566-.016 1.383c.012 1.946.93 2.762 2.32 3.992 1.012.895 2.27 2.008 3.321 3.793 1.285 2.18 1.96 3.813 2.453 5 .512 1.246.82 1.996 1.453 2.59.18.164.64.43 1.086.684 1.305.746 3.094 1.77 3.953 3.539.395.816.465 1.969.547 3.3.09 1.47.192 3.13.75 4.282 1.258 2.598 7.516 5.707 12.797 7.5 2.012.68 3.8 1.812 5.106 2.637l.285.18c1.562.98 1.941 1.034 3.125.452 3.015-1.48 5.191-2.07 7.504-2.027 3.414.063 6.699 2.418 9.875 4.7l3.113 2.156.094.062c.933.602 1.355.875 5.425-1.46 3.258-1.876 11.036 1.358 14.383 4.464 2.176 2.02 3.735 4.687 5.106 7.047 1.058 1.816 2.375 4.074 3.125 4.074.754 0 2.07-2.258 3.125-4.074 1.375-2.36 2.93-5.027 5.11-7.047 3.347-3.106 11.12-6.34 14.382-4.465 4.066 2.336 4.492 2.063 5.422 1.461l.097-.062 3.11-2.157c3.176-2.28 6.46-4.636 9.875-4.699 2.316-.043 4.488.547 7.508 2.027 1.183.582 1.562.528 3.125-.453l.285-.183c1.304-.825 3.094-1.953 5.105-2.633 5.282-1.793 11.54-4.902 12.797-7.5.559-1.152.66-2.813.75-4.281.082-1.332.152-2.485.547-3.301.855-1.77 2.645-2.793 3.953-3.54.445-.253.906-.519 1.086-.683.633-.594.941-1.344 1.453-2.59.488-1.187 1.164-2.82 2.45-5 1.05-1.785 2.312-2.898 3.324-3.793 1.39-1.23 2.308-2.046 2.32-3.992l-.016-1.375.008-2.574c.082-1.957 1.262-3.27 2.305-4.426l.762-.87c1.176-1.446 2.445-3.27 2.566-6.622.121-3.46-2.176-6.004-3.555-7.21" style="fill:#26973a;fill-opacity:1;fill-rule:evenodd;stroke:none" transform="translate(-3.095 -11.727)"/><path d="m175.223 82.574-.024-.086c-.328-1.343-.586-2.402-.586-3.875l.008-.86q.007-.415.008-.82c0-1.074-.054-2.07-.37-2.863-.626-1.574-1.587-3.324-2.938-5.343-1.434-2.145-1.887-2.957-1.938-5.743l-.008-.738c-.004-.992-.004-2.016-.332-2.348a1.76 1.76 0 0 0-.883-.52l-.101.267c-.828 2.18-1.52 4.347-2.14 6.367l-1.075 3.582c-.785 2.664-1.602 5.422-2.527 8.004-1.145 3.195-1.465 3.488-4.008 5.18 0 0-.496.331-.512.343L148.31 89.2H44.969l-9.504-6.09-.496-.328c-2.547-1.695-2.864-1.984-4.012-5.183-.926-2.582-1.738-5.34-2.527-8.004l-1.07-3.582c-.626-2.024-1.317-4.196-2.141-6.367l-.106-.266c-.34.086-.61.242-.883.52-.324.331-.328 1.355-.328 2.347l-.007.738c-.051 2.786-.508 3.598-1.938 5.743-1.352 2.02-2.312 3.765-2.941 5.343-.317.793-.368 1.785-.368 2.86q-.001.404.004.824l.008.86c0 1.472-.258 2.53-.582 3.866l-.023.094c-.149.598-.227 1.047-.227 1.453 0 .723.262 1.309.89 2.371l1.012 1.813c1.204 2.215 2.243 4.129 5.141 6.387 1.285 1.004 1.356 2.507 1.356 3.882v.54c0 .863.03 1.738.359 2.457.418.91 1.43 1.734 2.5 2.609 1 .816 2.031 1.66 2.871 2.758.66.87.941 2.222 1.238 3.648.207 1.004.492 2.38.836 2.711.957.914 2.434 2.477 3.86 3.984l2.004 2.106c1.609 1.672 2.214 2.227 3.777 2.473h105.933c1.56-.246 2.165-.801 3.778-2.473l1.996-2.102c1.43-1.507 2.91-3.07 3.863-3.988.348-.332.633-1.707.84-2.71.297-1.43.574-2.778 1.238-3.65.836-1.097 1.871-1.94 2.871-2.757 1.07-.875 2.079-1.7 2.496-2.61.333-.718.36-1.593.36-2.456v-.543c0-1.372.074-2.875 1.36-3.88 2.894-2.257 3.933-4.171 5.136-6.386l1.016-1.813c.628-1.062.89-1.648.89-2.37 0-.407-.082-.856-.226-1.454" style="fill:#26973a;fill-opacity:1;fill-rule:evenodd;stroke:none" transform="translate(-3.095 -11.727)"/><path d="m69.121 25.043 1.27-.016c1.71-.007 3.652-.011 5.257-.601 1.715-.633 2.536-1.801 3.2-2.742.476-.68.855-1.215 1.472-1.512.508-.242 1.32-.281 2.106-.317l1.222-.082c1.73-.195 3.57-1.535 5.192-2.718.773-.563 1.504-1.094 2.11-1.422 2.218-1.203 4.132-1.813 5.687-1.813 1.554 0 3.468.61 5.691 1.813.606.328 1.332.86 2.11 1.422 1.62 1.183 3.46 2.523 5.19 2.718l1.224.082c.785.036 1.593.075 2.101.317.621.297.996.832 1.477 1.512.66.941 1.48 2.109 3.199 2.742 1.605.59 3.543.594 5.258.601l1.27.016c2.6.07 8.308.117 13.16-.152 2.374-.133 4.484-.797 6.273-1.973l-.008.004c.422-.242 2.652-.59 4.332-.68l.984-.031c.84-.024 1.707-.047 2.555-.2l3.254-.675c2.48-.55 4.824-1.066 7.297-1.09.457.184 1.273 1.871 1.273 4.145 0 .66-.066 1.37-.238 2.105-.09.399-.129.766-.129 1.11 0 1.761 1.082 2.867 2.05 3.859.977 1 1.9 1.945 1.985 3.656l-.015 2.828c0 1.567.328 2.883.68 4.281.284 1.137.577 2.313.722 3.747.12 1.168.223 2.43.223 3.668 0 1.082-.079 2.144-.293 3.117-.317 1.441-.926 2.992-1.575 4.636l-.586 1.504c-.851 2.239-1.582 4.54-2.183 6.496l-1.078 3.606c-.782 2.633-1.586 5.36-2.493 7.887-.953 2.652-.953 2.652-3.199 4.144l-.5.336-8.953 5.734H45.582l-8.973-5.746c.016.012-.484-.324-.484-.324-2.246-1.492-2.246-1.492-3.2-4.144-.905-2.528-1.71-5.254-2.487-7.891l-1.083-3.602c-.632-2.058-1.335-4.27-2.18-6.496l-.585-1.504c-.649-1.644-1.262-3.195-1.578-4.636-.211-.973-.293-2.035-.293-3.117 0-1.239.105-2.5.222-3.668.145-1.434.442-2.61.727-3.747.348-1.394.68-2.714.68-4.28 0-.024-.016-2.735-.02-2.829.086-1.71 1.008-2.656 1.985-3.656.972-.992 2.05-2.098 2.05-3.86 0-.343-.039-.71-.129-1.109a9.5 9.5 0 0 1-.238-2.105c0-2.274.82-3.961 1.274-4.145 2.472.024 4.816.54 7.296 1.09l3.258.676c.844.152 1.711.175 2.555.199l.98.031c1.684.09 3.91.438 4.336.68l-.007-.004c1.789 1.176 3.898 1.84 6.273 1.973 4.852.27 10.555.222 13.16.152" style="fill:#26973a;fill-opacity:1;fill-rule:evenodd;stroke:none" transform="translate(-3.095 -11.727)"/><path d="M153.738 33.797H38.25v79.191c0 12.61 5.512 24.176 15.52 32.567 10.66 8.937 25.484 13.664 42.867 13.664 17.386 0 32.21-4.727 42.867-13.664 10.008-8.39 15.52-19.957 15.52-32.567V33.797z" style="fill:#211e1e;fill-opacity:1;fill-rule:evenodd;stroke:none" transform="translate(-3.095 -11.727)"/><path d="M152.457 36.363v76.625c0 11.836-5.187 22.703-14.602 30.602-10.19 8.543-24.445 13.058-41.218 13.058s-31.028-4.515-41.219-13.058c-9.414-7.899-14.598-18.766-14.598-30.602V36.363z" style="fill:#fff;fill-opacity:1;fill-rule:evenodd;stroke:none" transform="translate(-3.095 -11.727)"/><path d="M126.422 41.488v22.34h-3.516l-11.418-18.27v18.27h-2.847v-22.34h3.668l11.261 18.024V41.488zM133.887 60.977h13.183v2.851h-16.035v-22.34h16.035v2.852h-13.183v6.418h12.316v2.851h-12.316zM98.473 63.828H95.62v-9.133l-8.254-13.207h3.363l6.317 10.11 6.316-10.11h3.364L98.473 54.7zM57.52 60.988q2.629-.002 3.789-.93c.77-.617 1.156-1.25 1.156-2.632 0-1.34-.414-2.293-1.235-2.953q-1.231-.99-3.71-.989h-5.81v7.504zm-8.66 2.84.003-22.34h8.688c1.695 0 3.41.117 4.804.88.73.398 1.375.976 1.883 1.804q.8 1.307.801 3.02c0 2.222-1 4.257-2.445 4.828 1.129.457 1.98 1.207 2.531 2.203.492.879.746 1.949.762 3.175a6.16 6.16 0 0 1-2.492 5.016c-1.575 1.164-3.56 1.414-5.84 1.414zm8.37-13.176c1.668 0 2.852-.257 3.56-.765.706-.512 1.058-1.293 1.058-2.457 0-2.004-1.836-3.09-3.762-3.09H51.71v6.312zM69.684 63.828v-22.34h8.57c2.46 0 4.133.473 5.375 1.45 1.242.976 1.914 2.476 1.914 4.402 0 2.617-.8 4.933-2.578 5.55.62.239 1.031.528 1.297.852.5.606.57 1.93.695 2.735.086.543.106 1.433.266 2.668q.359 2.702.93 4.683H82.96c-.313-1.258-.57-3.082-.777-4.703-.223-1.754-.399-2.668-.555-3.105-.555-1.547-3.192-1.723-4.524-1.723h-4.57v9.531zm8.043-12.398c2.757 0 4.843-.766 4.843-3.77 0-2.972-2.351-3.32-4.843-3.32h-5.192v7.09zM54.074 110.707c0 23.469 19.094 42.563 42.563 42.563 23.468 0 42.562-19.094 42.562-42.563s-19.094-42.562-42.562-42.562c-23.469 0-42.563 19.093-42.563 42.562" style="fill:#211e1e;fill-opacity:1;fill-rule:evenodd;stroke:none" transform="translate(-3.095 -11.727)"/><path d="M103.809 73.809c.976-.29 1.82-.63 2.507-.996a21 21 0 0 0-4.464-1.84c.687.797 1.34 1.75 1.957 2.836M101.629 147.09a28 28 0 0 0-4.992-.442 28 28 0 0 0-4.992.442c1.601 2.637 3.324 4.086 4.992 4.086s3.39-1.45 4.992-4.086M91.645 74.324c1.496.278 3.18.442 4.992.442 1.816 0 3.496-.164 4.992-.442-1.602-2.636-3.324-4.086-4.992-4.086s-3.39 1.45-4.992 4.086M91.426 70.973c-1.54.43-3.031 1.05-4.469 1.84.691.367 1.535.707 2.508.996.617-1.086 1.27-2.04 1.96-2.836M101.852 150.441a20.7 20.7 0 0 0 4.464-1.84c-.687-.367-1.53-.706-2.507-.996-.618 1.086-1.27 2.04-1.957 2.836M91.426 150.441c-.692-.796-1.344-1.75-1.961-2.836-.973.29-1.817.63-2.508.997 1.438.793 2.93 1.41 4.469 1.84M83.434 72.594l-.075-.11C72.977 76.102 64.504 83.836 59.91 93.723h9.508c2.797-9.176 7.785-16.676 14.016-21.13M83.36 148.93q.04-.056.074-.11c-6.23-4.453-11.22-11.953-14.016-21.129H59.91c4.594 9.887 13.067 17.618 23.45 21.239" style="fill:#ee2621;fill-opacity:1;fill-rule:evenodd;stroke:none" transform="translate(-3.095 -11.727)"/><path d="M84.95 147.355c.956-.664 2.175-1.21 3.546-1.64-2.156-4.613-3.773-10.965-4.77-18.024H71.59c2.734 8.63 7.484 15.622 13.36 19.664M88.496 75.703c-1.371-.433-2.59-.98-3.547-1.644-5.875 4.043-10.625 11.035-13.36 19.664h12.138c.996-7.059 2.613-13.41 4.77-18.02M108.328 74.059c-.957.664-2.176 1.21-3.547 1.644 2.156 4.61 3.77 10.961 4.77 18.02h12.136c-2.738-8.63-7.488-15.621-13.359-19.664M104.781 145.715c1.371.43 2.59.976 3.547 1.64 5.871-4.042 10.621-11.035 13.36-19.664H109.55c-1 7.059-2.613 13.41-4.77 18.024M90.602 145.168a29.7 29.7 0 0 1 6.035-.613c2.023 0 4.11.207 6.035.613 1.992-4.082 3.715-10.078 4.789-17.477H85.816c1.07 7.399 2.797 13.395 4.786 17.477M102.672 76.246a29.7 29.7 0 0 1-6.035.613c-2.024 0-4.11-.207-6.035-.613-1.989 4.082-3.715 10.078-4.786 17.477h21.645c-1.074-7.399-2.797-13.395-4.79-17.477" style="fill:#ee2621;fill-opacity:1;fill-rule:evenodd;stroke:none" transform="translate(-3.095 -11.727)"/><path d="M109.914 72.484q-.034.059-.074.11c6.23 4.453 11.219 11.953 14.015 21.129h9.512c-4.594-9.887-13.07-17.618-23.453-21.239M109.84 148.82q.04.056.074.11c10.387-3.621 18.86-11.352 23.453-21.239h-9.512c-2.796 9.176-7.785 16.676-14.015 21.13" style="fill:#ee2621;fill-opacity:1;fill-rule:evenodd;stroke:none" transform="translate(-3.095 -11.727)"/><path d="M134.23 95.816a40 40 0 0 1 2.875 14.891c0 5.14-.984 10.145-2.875 14.89H59.047a40 40 0 0 1-2.879-14.89c0-5.144.984-10.144 2.879-14.89z" style="fill:#fff;fill-opacity:1;fill-rule:evenodd;stroke:none" transform="translate(-3.095 -11.727)"/><path d="M95.633 99.11h11.55v2.792h-.39c-.734 0-1.188.036-1.356.118q-.41.188-.585.523c-.122.23-.18.652-.18 1.277v5.735l5.945-5.7c.324-.312.774-1.093.84-1.199a.56.56 0 0 0 .098-.281.39.39 0 0 0-.192-.355c-.132-.086-.465-.118-.996-.118h-.953v-2.824h11.11v2.824h-.36c-.496 0-.84.028-1.031.075-.195.05-.43.164-.707.332-.278.168-1.133.53-1.563.925l-5.14 4.676 6.582 10.375c.527.832 1.02 1.262 1.293 1.41.363.203.879.309 1.566.309h.746l.008 2.805h-12.746l.008-2.805h.516c1.734 0 3.07.121 1.976-1.676l-4.261-6.992-2.739 2.348v4.507c0 1.446.664 1.813 2.512 1.813v2.805H95.633v-2.805c1.558 0 2.62-.555 2.62-2.547v-13.453c0-1.457-.94-2.402-2.62-2.102zM72.535 99.078h19.422l2.895 6.828-1.872 1.082c-1.503-1.41-3.32-3.476-5.296-4.453-1.352-.672-3.817-.96-5.157-.383a2.65 2.65 0 0 0-1.117.899l-.062 5.457h1.445c2.504 0 2.598-2.051 2.598-3.535h2.754l-.016 10.527H85.39c0-2.305-.54-3.61-3.032-3.543h-.949l.012 5.738c.004 1.825 1.207 2.309 1.953 2.309h.969v2.805H72.535v-2.805c1.797 0 2.75-.418 2.75-2.54v-13.37c0-2.223-1.125-2.192-2.75-2.192z" style="fill:#211e1e;fill-opacity:1;fill-rule:evenodd;stroke:none" transform="translate(-3.095 -11.727)"/></svg>