<svg xmlns="http://www.w3.org/2000/svg" xml:space="preserve" width="521.59778" height="521.59595" viewBox="0 0 521.59775 521.59595"><defs><clipPath id="a" clipPathUnits="userSpaceOnUse"><path d="M0 600h800V0H0Z"/></clipPath></defs><g clip-path="url(#a)" transform="matrix(1.79121 0 0 -1.79121 -455.686 798.162)"><path d="M0 0c80.191 0 145.601-65.409 145.601-145.597 0-80.197-65.41-145.6-145.601-145.6-80.195 0-145.597 65.403-145.597 145.6C-145.597-65.409-80.195 0 0 0" style="fill:#000;fill-opacity:1;fill-rule:nonzero;stroke:none" transform="translate(399.998 445.599)"/><path d="M0 0c-92.549 0-133.174 81.547-132.939 134.179.316 71.81 59.646 131.057 133.254 131.936 27.762.317 58.534-9.931 82.967-29.823l-14.625-17.667C50.481 232.227 31.139 242.454.393 242.426c-58.486-.048-109.661-45.73-110.484-108.454C-110.943 69.545-58.938 22.957.315 23.009c43.753.04 75.48 23.518 94.176 52.906h-9.604C63.655 49 37.704 31.188.836 31.188c-63.676 0-102.13 48.966-102.13 103.785 0 52.549 46.188 100.39 101.687 100.474 43.506.069 81.031-27.704 93.985-67.856l27.433.115v-7.93h-9.012v-36.841h-9.695v36.841h-7.055c1.922-7.532 2.763-15.75 2.763-23.993 0-6.297-.483-12.609-1.32-18.633h34.266C126.903 64.674 78.939 0 0 0" style="fill:#ffe500;fill-opacity:1;fill-rule:nonzero;stroke:none" transform="translate(400.119 166.842)"/><path d="M0 0c-5.891-1.094-11.625-1.615-17.339-1.58-10.894.086-21.701 2.23-33.342 6.361 18.703 10.484 26.555 15.951 43.382 30.987l28.671-.045C15.987 22.248 10.167 13.677 0 0" style="fill:#000;fill-opacity:1;fill-rule:nonzero;stroke:none" transform="translate(417.3 207.156)"/><path d="M0 0c-3.152.401-4.742.636-7.617.363-55.304 6.498-104.407-14.278-132.438-50.641 5.222 24.004 23.311 48.99 44.761 61.245 17.101 9.767 33.214 14.128 48.431 14.218 17.256.089 33.353-5.305 48.458-14.539L0 0" style="fill:#000;fill-opacity:1;fill-rule:nonzero;stroke:none" transform="translate(447.365 369.916)"/><path d="m0 0-4.307 13.24c3.315.116 5.305.241 8.375 1.031L0 0" style="fill:#000;fill-opacity:1;fill-rule:nonzero;stroke:none" transform="translate(447.762 304.644)"/><path d="M0 0h-3.348l-1.119-4.147c-3.899-2.986-11.322-3.108-14.069-2.231l-2.119 6.212-7.177.01c-8.573 10.206-2.59 29.301 12.801 29.584C.365 29.747 8.978 14.709 0 0" style="fill:#000;fill-opacity:1;fill-rule:nonzero;stroke:none" transform="translate(459.244 333.233)"/><path d="M0 0c8.09 9.887 13.437 19.225 19.658 33.34H47.72C32.573 15.161 20.696 7.451 0 0" style="fill:#000;fill-opacity:1;fill-rule:nonzero;stroke:none" transform="translate(427.468 209.584)"/><path d="M0 0c.147-2.088.215-4.115.205-6.13-.025-5.576-.637-11.106-1.703-17.706l-153.682.031v-41.266l62.798-.081c-14.277-12.401-22.688-17.666-40.232-27.156-20.379 11.253-34.365 25.517-42.341 42.261 4.986 15.401 11.876 23.928 19.775 35.858v-5.59h31.218v8.499h-20.65v36.839h-10.459v-28.39c-9.565-13.552-16.289-21.771-23.317-39.118-5.727 14.342-8.481 30.398-6.384 44.023 30.264 36.96 74.09 59.964 124.051 55.582-3.036-2.669-4.675-3.704-6.94-7.615-32.813-3.748-57.245-19.085-75.488-41.34l2.802-6.627c21.086 23.485 41.225 36.802 69.891 40.867-.272-5.741-.718-11.565 2.591-17.382h-.679v-45.338h11.089V7.976l9.208-27.755 9.655-.041 8.336 27.796v-27.755h10.036v45.338h-2.632c2.241 4.822 2.518 8.489 2.119 13.317l9.928-.083C-2.475 24.721-.951 13.395 0 0" style="fill:#000;fill-opacity:1;fill-rule:nonzero;stroke:none" transform="translate(490.943 307.756)"/><path d="M390.143 287.977h11.838v45.338h-11.838z" style="fill:#ffe500;fill-opacity:1;fill-rule:nonzero;stroke:none"/><path d="M0 0h-3.866v16.661l-1.918-1.834-2.584 2.318 5.5 5.618H0Z" style="fill:#000;fill-opacity:1;fill-rule:nonzero;stroke:none" transform="translate(499.995 252.095)"/><path d="M0 0c-1.115 1.906-2.915 3.143-5.784 3.143-4.826 0-7.735-2.511-7.896-7.93 0-5.112 3.513-8.054 7.097-8.054 1.635 0 3.236.593 4.579 1.794 0-4.157-1.847-6.051-4.138-6.103-1.502-.042-3.088.957-3.677 2.279l-3.063-.485c.956-3.075 2.703-4.82 6.853-4.9 4.79-.107 7.544 3.224 7.544 11.643C1.671-5.072 1.198-2.119 0 0m-6.182-9.256c-2.676.022-3.997 2.393-4.034 4.667-.042 2.232 1.165 4.291 4.114 4.291 2.908 0 4.033-2.059 4.033-4.374 0-2.271-1.442-4.602-4.113-4.584" style="fill:#000;fill-opacity:1;fill-rule:nonzero;stroke:none" transform="translate(485.087 271.635)"/><path d="M0 0c-1.735 0-3.422-.342-4.662-1.834-.152 3.965 1.998 6.102 4.149 6.148 1.321.039 2.714-.762 3.665-2.317l3.391.606C5.31 5.59 3.518 7.39-.625 7.383c-4.881-.026-7.66-3.552-7.548-11.643 0-3.832.522-7.217 2.202-9.379 1.149-1.515 3.069-2.265 5.458-2.265 5.385 0 7.652 4.148 7.536 7.812C7.023-3.031 3.633 0 0 0m-.587-12.604c-2.72 0-3.941 2.038-3.958 4.276-.019 2.309 1.277 4.748 4.032 4.701 2.714 0 4.117-2.317 4.117-4.582 0-2.277-1.403-4.395-4.191-4.395" style="fill:#000;fill-opacity:1;fill-rule:nonzero;stroke:none" transform="translate(513.627 267.68)"/><path d="m0 0-1.4 1.279-2.797-2.744C-6.368.324-9.328 1.052-12.092 1.086c-4.135.055-8.429-2.096-10.603-5.82-.915-1.58-1.235-3.633-1.235-6.104 0-3.346.831-6.058 2.503-8.055l-2.843-2.802 1.377-1.189 2.828 2.751c2.159-1.84 5.19-2.517 7.973-2.424 4.436.137 8.223 1.489 10.486 5.577.835 1.64 1.354 3.751 1.354 6.142 0 3.432-.955 6.104-2.582 8.014zm-18.835-10.838c0 2.869.724 4.865 2.077 6.104 1.362 1.232 2.916 1.826 4.666 1.826 1.874 0 3.434-.594 4.591-1.826l-10.405-10.534c-.604 1.164-.929 2.67-.929 4.43m12.367-4.7C-7.656-17.686-9.68-18.7-12.092-18.7c-1.95 0-3.498.565-4.779 1.804L-6.387-6.371c.636-1.115.954-2.673.954-4.467 0-1.912-.318-3.551-1.035-4.7" style="fill:#000;fill-opacity:1;fill-rule:nonzero;stroke:none" transform="translate(445.938 274.174)"/><path d="M0 0c-.633 1.552-1.758 2.865-3.232 3.83-1.435.955-3.428 1.428-5.694 1.428h-11.009v-22.643h10.878c2.397 0 4.39.554 5.825 1.719 1.558 1.23 2.599 2.745 3.35 4.58.592 1.789.911 3.827.911 5.945C1.029-3.234.638-1.521 0 0m-5.386-11.369c-.949-1.632-2.309-2.391-4.267-2.391h-5.181V1.354h5.181c4.611 0 5.372-3.235 5.589-7.098 0-2.198-.399-4.108-1.322-5.625" style="fill:#000;fill-opacity:1;fill-rule:nonzero;stroke:none" transform="translate(416.305 269.44)"/><path d="M0 0c-.64 1.6-1.479 2.867-2.632 3.832-1.035.908-2.271 1.717-3.708 2.064a13.003 13.003 0 0 1-4.386.762c-2.672-.084-4.99-.637-6.737-1.597-1.756-1.077-3.112-2.511-3.951-4.423-.831-1.794-1.234-3.913-1.234-6.382v-.797c.08-1.99.598-3.83 1.551-5.542.921-1.636 2.277-2.867 4.029-3.827 1.796-.801 3.87-1.281 6.262-1.281 1.759 0 3.303.285 4.745.644 1.473.554 2.709 1.315 3.748 2.346 1.039.961 1.874 2.24 2.39 3.75.635 1.437.963 3.067.963 4.985C1.04-3.348.6-1.556 0 0m-4.787-9.296c-.439-1.155-1.161-2.112-2.191-2.983-1.033-.756-2.273-1.115-3.828-1.115-2.392 0-4.1.816-5.229 2.47-1.161 1.72-1.554 3.746-1.554 6.215.126 1.719.521 3.153 1.159 4.309.714 1.038 1.557 1.917 2.51 2.386.926.484 1.962.678 2.997.678 2.789 0 4.583-.871 5.498-2.664.837-1.754 1.242-3.666 1.242-5.744 0-1.156-.203-2.397-.604-3.552" style="fill:#000;fill-opacity:1;fill-rule:nonzero;stroke:none" transform="translate(389.43 268.602)"/><path d="M0 0c-.646 1.051-1.557 1.832-2.791 2.238 1.752.637 2.824 2.469 2.709 5.059-.161 3.586-3.356 5.34-7.498 5.34h-12.157v-22.643h11.238c3.051 0 7.032.546 8.56 3.488.434.829.86 1.889.892 3.006C.997-2.191.638-1.035 0 0m-14.632 8.733h6.021c1.817 0 3.625-.294 3.625-2.511 0-1.781-1.789-2.476-3.308-2.476h-6.338zm6.655-15.114h-6.655V.12h6.737c2.069 0 3.786-1.051 3.75-3.274-.044-2.216-1.599-3.227-3.832-3.227" style="fill:#000;fill-opacity:1;fill-rule:nonzero;stroke:none" transform="translate(360.643 262.06)"/><path d="M0 0h-3.87v16.661l-1.912-1.834-2.591 2.318 5.497 5.618H0Z" style="fill:#000;fill-opacity:1;fill-rule:nonzero;stroke:none" transform="translate(466.47 252.095)"/><path d="m0 0-6.931-.038c-3.265 8.132-6.984 12.121-14.959 15.59l1.163 7.297C-12.634 16.111-5.899 9.767 0 0" style="fill:#000;fill-opacity:1;fill-rule:nonzero;stroke:none" transform="translate(476.466 352.93)"/></g></svg>