<svg xmlns="http://www.w3.org/2000/svg" xml:space="preserve" id="Layer_1" width="307" height="181.09077" x="0px" y="0px" version="1.1" viewBox="0 0 307 181.09077"><style>.st0{fill:#1b61a5}</style><path id="path10243" d="M88.2 180h-4.7l10.9-28.9h5.5l10.9 28.9H106l-2.8-7.5H90.9Zm13.6-11.6-4.6-12.6-4.7 12.6z" class="st0" style="fill:#1b61a5"/><path id="path10245" d="M119.5 151.1v17.8c0 2.6.2 3.7.7 4.7 2.2 3 6.4 3.6 9.4 1.4.5-.4 1-.9 1.4-1.4.6-1 .7-2.1.7-4.7v-17.8h4.5v18.6c.1 2-.3 4-1.3 5.8-2.8 5.2-9.2 7.1-14.4 4.3-3.7-2-5.9-5.9-5.6-10.1v-18.6z" class="st0" style="fill:#1b61a5"/><path id="path10247" d="M170.6 164.4v2.2c0 8.4-5.2 14-13.1 14-8.3 0-15.1-6.7-15.1-15s6.7-15.1 15-15.1c3.3 0 6.5 1.1 9 3.2.7.6 1.4 1.2 2 1.9l-3.1 3c-2.8-2.9-4.8-3.9-8-3.9-6 .2-10.6 5.2-10.5 11.1.2 5.7 4.8 10.3 10.5 10.5 2.6.1 5.2-1.1 6.8-3.1 1-1.4 1.6-3 1.7-4.6h-8.2v-4.2z" class="st0" style="fill:#1b61a5"/><path id="path10249" d="M182.1 155.2v8h9.9v4.2h-9.9v8.4h11.6v4.2h-16.1v-28.9h15.7v4.1z" class="st0" style="fill:#1b61a5"/><path id="path10251" d="M214.2 158.1c-1.7-2.6-2.9-3.4-4.9-3.4-2.3-.1-4.2 1.6-4.4 3.9v.1c0 1.6 1.2 2.8 3.7 3.7l2.7 1.1c4.8 1.8 7 4.3 7 8-.3 5.3-4.8 9.4-10.1 9.1-2.6-.1-5.1-1.4-6.8-3.4-1.1-1.5-1.8-3.1-2.1-4.9l4.4-1.2.2.7c.8 3.1 2.4 4.6 5 4.6 2.7.1 4.9-2 5-4.7v-.2c0-1.9-1.2-3-4.4-4.3l-2.6-1c-4.2-1.6-6.2-4.1-6.2-7.6 0-4.7 3.9-8.2 9-8.2 3.7 0 6.2 1.6 8.4 5.3z" class="st0" style="fill:#1b61a5"/><path id="path10253" d="M229.2 151.1v17.8c0 2.6.2 3.7.7 4.7 2.2 3 6.4 3.6 9.4 1.4.5-.4 1-.9 1.4-1.4.6-1 .7-2.1.7-4.7v-17.8h4.5v18.6c.1 2-.3 4-1.3 5.8-2.8 5.2-9.2 7.1-14.4 4.3-3.7-2-5.9-5.9-5.6-10.1v-18.6z" class="st0" style="fill:#1b61a5"/><path id="path10255" d="M253.3 151.1h4l15.8 21.2v-21.2h4.5V180h-4l-15.9-21.3V180h-4.4z" class="st0" style="fill:#1b61a5"/><path id="path10257" d="M291.3 151.1c9.6 0 15.7 5.5 15.7 14.4s-6 14.5-15.7 14.5h-6.4v-28.9zm-1.9 24.7h2c6.8 0 11-3.9 11-10.3s-4.2-10.2-11-10.2h-2z" class="st0" style="fill:#1b61a5"/><path id="path10259" d="M7 157.6v4.9h11.6v6.5H7v10.9H0v-28.8h19.4v6.5z" class="st0" style="fill:#1b61a5"/><path id="path10261" d="M50.1 179.9h-8.4l-7.4-11.4-1.6 1.7v9.7h-7v-28.8h7v9.5l9-9.5h9l-11.5 12.3z" class="st0" style="fill:#1b61a5"/><path id="path10263" d="M72.2 162.5v-11.4h7V180h-7v-11h-8.9v10.9h-7.1v-28.8h7.1v11.4z" class="st0" style="fill:#1b61a5"/><path id="path10265" d="M277.8 15.2c-10.5-5.9-30.5-11.7-47.9-13.6-8.8-1-17.6-1.6-26.5-1.6-2.8 0-5.2.1-7.3.2-8 .1-16 .9-23.9 2.3-6.7 1.7-5.8-.2-11.1 12.7-5.4 15-16.7 33.4-34 43.6-5.7 3.6-12.4 5.4-19.2 5.1-2.8 0-5.8-.2-9.2-.3-10.9-.2-12.3 8.5-12.3 8.5s-4.3 1.3-9.9 2.9c-5.6 1.6-5.1 6-5.1 6 2.5-.9 5.1-1.3 7.8-1.2 7.9.2 15.6 2.2 22.7 5.9 5.8 3.3 6.8 4.4 21.8 11.5 15.3 7.3 26.8 8.8 38.4 10.1 4.7.5 9.4.7 14.2.6 12.7-.2 41.3-.8 49.9.8 5.8 1.1 9-1.6 9-1.6-4.9-3.9-16-5.4-34.4-10.8-35.8-9.7-15-75.6 34.8-80.2 16.7-2.5 41.5-1 42.2-.9z" class="st0" style="fill:#1b61a5"/><path id="path10267" d="M90.9 59.8S75.3 49.1 63.4 46.1c8.4-.9 15.9 2.1 20.4 4.6 4.3 2.3 17.8 10.1 29 8.6 6.7-.9 13.1-3.4 18.7-7.1-23.1 6.2-29.3 2.5-43-4.8-5.7-3-28-14.8-44.5 4.6-2.2 2.7-3.8 5.9-4.6 9.3-1.7 7.2-1.8 20.8 13.2 38.2 0 0-1-33.5 38.3-39.7z" class="st0" style="fill:#1b61a5"/></svg>