<svg xmlns="http://www.w3.org/2000/svg" xml:space="preserve" id="Layer_1" width="346.72763" height="252" x="0px" y="0px" version="1.1" viewBox="0 0 346.8636 252.14824"><style>.st1{fill:#d62933}.st3{fill:#fff}.st4{fill:none;stroke:#d62933;stroke-dasharray:2}</style><g id="g49" transform="translate(-42.378 -14.13)scale(.80904)"><path id="path4" d="M59.4 21.8s61 84.5-2.4 301.2c16.6 6.4 36.3-3.2 36.3-3.2s31.1-12.8 42.5-12.8 19.7-3.2 37.3-2.1 47.7-9.6 60.1-18.1 53.9-27.7 71.5-24.5c40.4 5.4 72.5-12.7 94.3-31.9s52.9-39.5 66.4-40.5 11.4-19.2 11.4-19.2-25.9-25-82.8-33.2c-19.7-4.7-49.7-26.8-49.7-26.8s-36.3-31.3-85-27.8c-19.7 2.1-79.7-26.8-83.9-30-4.1-3.2-73.5-38.5-116-31.1z" style="fill:#fff;stroke:#da2128;stroke-width:2"/><g id="g8"><path id="path6" d="M402.3 174.9c-2.8.7-28.3 12.1-55.2 2.1-33.2-14.3-73.6-5.8-73.6-5.8L86.2 171c-2.3 41-10.4 91.4-28.2 152.3 16.6 6.4 36.3-3.2 36.3-3.2s31.1-12.8 42.5-12.8 19.7-3.2 37.3-2.1 47.7-9.6 60.1-18.1 53.9-27.7 71.5-24.5c40.4 5.4 72.5-12.7 94.3-31.9s52.9-39.5 66.4-40.5c10.1-.8 11.5-11.2 11.5-16.4-67.3-4.3-72.8.4-75.6 1.1" class="st1" style="fill:#d62933"/></g><path id="polygon10" d="M139.8 89.9h-21.4V74.2l20.8.1V56.4l-36.6.1-.1 72.5 15.2.1v-22.8h22.1z" style="fill:#d62933"/><path id="polygon12" d="M315.8 216.2h-21.4v-15.7h20.7v-17.8l-36.6.1-.1 72.5h15.2l.1-22.8 22.1.1z" class="st3" style="fill:#fff"/><path id="path14" d="M191.5 103.4c-36.6 0-66.4 30.1-67.3 67.7l134.5.2c-.8-37.6-30.5-67.8-67.2-67.9" class="st1" style="fill:#d62933"/><path id="path16" d="M124.2 171.1c0 .6-.1 1.1-.1 1.7 0 38.3 30.1 69.5 67.3 69.5s67.4-31 67.4-69.4c0-.6-.1-1.1-.1-1.7z" class="st3" style="fill:#fff"/><path id="path18" d="M140.7 168.9s-2.2 49.6 40.3 72.3" class="st4" style="fill:none;stroke:#d62933;stroke-dasharray:2"/><path id="path20" d="M168.2 170.6s-.1 56.8 22.1 72.3" class="st4" style="fill:none;stroke:#d62933;stroke-dasharray:2"/><path id="path22" d="M216.2 170.4s2.4 55.1-18.2 71.6" class="st4" style="fill:none;stroke:#d62933;stroke-dasharray:2"/><path id="path24" d="M241.5 170.4s-1.3 45.2-27.7 68.9" class="st4" style="fill:none;stroke:#d62933;stroke-dasharray:2"/><path id="path26" d="M203.9 122c0 3.5-6.3 6.4-14 6.4s-14-2.9-14-6.4 6.3-6.4 14-6.4c7.8-.1 14 2.8 14 6.4" class="st3" style="fill:#fff"/><path id="_x3C_outline-white-flag_x3E_" d="M84.5 173c1.2-30.3 1.4-47.1-2.4-83.2-4.7-44.3-24-68.7-24-68.7s20.7-2.3 47.7 4.1c27.1 6.4 60.9 22.2 76.8 31.7 14.6 8.7 57.2 25.1 68.8 25.7s26.9.3 37.3 2.3c11.8 2.3 30.3 8.6 41.9 16.4 7.2 4.8 27.4 17.9 32.2 21.4 4.8 3.4 23 14.2 31.8 15.3s31.2 5.5 39.4 8.8 18.6 6.8 26.9 12.2c8.4 5.5 17 11.9 17 11.9s0 4.6-.7 7.5c-.8 2.9-3.6 9.5-3.6 9.5s-14.2 4.4-19.1 6.4-18.7 10.6-18.7 10.6-22.8 15.3-27.2 18.5c-4.4 3.3-23.9 20-28.7 23s-14 8.1-22.4 10.9-20.9 7.1-28 7.3-28.1-1.7-35-1.1c-6.9.5-22 5.3-30.2 8.7s-45.9 24.7-52.1 26.4c-6.3 1.7-23 7.8-30.7 7.7s-10.9-.3-27.8.1-29.1 3.6-36.4 5.9c-7.3 2.2-23.6 10.3-31.9 11.8-9.6 1.8-15.6 2.2-21.1 1.4-3.2-.5-8.3-1.8-8.3-1.8s13-49.7 18.6-77.1 9.4-61.5 9.9-73.6z" style="fill:none;stroke:#fff;stroke-width:4;stroke-miterlimit:10"/></g></svg>