<svg xmlns="http://www.w3.org/2000/svg" width="160.23143pt" height="160.24217pt" version="1.2" viewBox="0 0 160.23144 160.24218"><ellipse cx="80.496925" cy="79.743828" rx="78.072807" ry="78.371162" style="fill:#fff;fill-opacity:1;stroke-width:150;stroke-miterlimit:4;stroke-dasharray:none"/><path d="M708.375 629.578h-.145l-5.93.258h-.144l-2.933.258c-.086 0-.172 0-.258.03l-6.102.978c-.058.03-.117.03-.172.03l-2.851.634c-.027 0-.059 0-.086.027l-2.965.719a.363.363 0 0 1-.172.058l-2.847.863c-.032.032-.086.032-.118.059l-2.847.977c-.059 0-.086.03-.145.058l-2.82 1.094c-.059.027-.113.059-.172.086l-2.707 1.207a.2.2 0 0 1-.113.058l-5.496 2.766-.176.082-2.531 1.442c-.086.058-.204.117-.29.203l-2.417 1.695-2.618 1.727c-.058.03-.113.085-.172.117l-3.078 2.36c-.058.026-.09.058-.144.112l-3.051 2.563a1.741 1.741 0 0 0-.23.203l-2.848 2.848c0 .027-.031.027-.059.058l-2.707 2.848a3.567 3.567 0 0 1-.172.172l-2.59 3.11c-.027 0-.027.027-.058.058l-2.473 3.078-.175.258-1.754 2.62-1.614 2.473c-.027.032-.027.059-.054.09l-1.582 2.559a.873.873 0 0 0-.145.289l-2.734 5.41c-.032.086-.059.172-.118.258l-2.214 5.441a.53.53 0 0 0-.059.2l-1.008 2.82c0 .058-.027.117-.027.176l-.89 2.96-.837 2.82c-.058.118-.058.204-.086.317l-.605 2.91c-.027.055-.027.114-.027.141l-.489 2.965c-.03.058-.03.117-.03.144l-.747 5.957c0 .086-.031.204-.031.317l-.113 3.078-.118 2.937a.621.621 0 0 0 0 .317l.118 2.933.113 3.11c0 .086.031.203.031.289l.746 5.957c0 .027 0 .086.031.144l.489 2.965c0 .028 0 .086.027.14l.605 2.907c.028.117.028.23.086.32l.836 2.82.89 2.962c0 .058.028.117.028.175l1.008 2.82c0 .087.031.141.059.2l1.093 2.707 1.121 2.82c.032.114.086.2.118.286l1.351 2.707c.031.027.031.027.031.058l1.352 2.59c.055.055.086.145.145.23l3.222 5.18c.027.055.055.113.113.145l1.7 2.472c.027.032.058.059.086.118l2.359 3.078a.816.816 0 0 0 .144.203l2.735 3.078c.027.027.027.059.058.059l2.704 2.992a.912.912 0 0 0 .171.144l2.82 2.703c.06.059.118.118.177.172l3.078 2.59c.054.031.086.059.144.09l3.106 2.36c.03.027.058.054.086.054l2.593 1.871c.055.031.082.059.141.086l2.445 1.586a.637.637 0 0 0 .176.113l2.59 1.496c.027 0 .059 0 .059.032l2.703 1.464c.086.059.172.086.23.118l5.469 2.472c.058.031.113.059.172.086l2.82 1.094c.059.031.086.058.145.058l2.847.98c.031.028.086.028.117.056l2.848.863c.059 0 .117.031.172.059l2.965.718c.027.031.058.031.086.031l5.87 1.235a.954.954 0 0 0 .29.058l3.05.375h.141l5.93.52h3.254v-3.629h-2.965l-5.93-.488-3.05-.375-5.813-1.238-2.965-.72-2.82-.863-2.848-1.007-2.82-1.094-5.469-2.473-2.703-1.468-2.594-1.497-2.445-1.582-2.59-1.87-3.105-2.36-3.082-2.59-2.82-2.676-2.735-2.996-2.703-3.078-2.36-3.078-1.699-2.477-3.222-5.152-1.356-2.59-1.351-2.703-1.122-2.82v-.031l-1.12-2.735-.981-2.82-.863-2.992-.864-2.82-.605-2.934-.488-2.965-.747-5.957-.144-3.078-.117-2.938.117-2.965.144-3.078.747-5.957.488-2.965.605-2.906.864-2.847.863-2.997.98-2.82 2.243-5.437 2.707-5.442 1.582-2.558 1.64-2.504 1.7-2.59 2.472-3.082 2.59-3.078 2.734-2.848 2.852-2.851 3.05-2.56 3.079-2.358 2.617-1.73.031-.028 2.445-1.7 2.563-1.464 5.465-2.735 2.707-1.238 2.82-1.094 2.848-1.008 2.82-.863 2.965-.719 2.852-.632 6.043-.98 2.933-.259 5.93-.23zm80.117 80.149v-3.137l-.113-3.05c0-.114 0-.231-.027-.317l-.747-5.957v-.145l-.492-2.933c-.027-.086-.058-.172-.058-.262l-.746-2.992-.75-2.88c-.032-.027-.032-.054-.032-.085l-.859-2.961c-.027-.059-.059-.117-.059-.176l-.976-2.82c-.031-.059-.063-.145-.086-.2l-1.098-2.706c-.027-.028-.027-.086-.054-.114l-2.477-5.469a.788.788 0 0 1-.113-.23l-1.496-2.703c0-.031-.032-.059-.032-.059l-1.464-2.59a.498.498 0 0 1-.118-.203l-1.64-2.504-1.727-2.562c-.058-.086-.113-.172-.172-.258l-2.476-3.078a.06.06 0 0 0-.059-.059l-2.59-3.109c-.054-.055-.113-.113-.14-.172l-2.739-2.848c-.023-.03-.054-.058-.113-.117l-2.965-2.847c-.027-.032-.086-.059-.113-.086l-2.937-2.59c-.086-.059-.168-.145-.258-.203l-3.196-2.332c-.027-.028-.054-.028-.054-.055l-2.504-1.727c-.031-.03-.059-.03-.059-.058l-2.59-1.727c-.09-.027-.144-.086-.23-.117l-2.563-1.469c-.027-.027-.086-.054-.113-.082l-2.617-1.355s-.031-.027-.063-.027l-2.73-1.383c-.027 0-.059-.028-.117-.059l-2.703-1.207c-.059-.027-.118-.058-.172-.086l-2.824-1.093c-.055-.028-.086-.06-.141-.06l-2.82-.976c-.059-.027-.118-.027-.145-.058l-2.82-.864a.5.5 0 0 1-.203-.058l-2.938-.719c-.055-.027-.086-.027-.14-.027l-2.965-.633c-.059 0-.086 0-.145-.031l-5.957-.977c-.086-.031-.2-.031-.285-.031l-2.938-.258h-.144l-2.992-.144-3.078-.114h-.145v3.625l3.078.118 2.992.113 2.938.258 5.93.98 2.96.633 2.965.719 2.82.863 2.848 1.008 2.824 1.094 2.704 1.238 2.734 1.351 2.617 1.383 2.563 1.465 2.59 1.727 2.503 1.73 3.196 2.36 2.933 2.558 2.993 2.852 2.707 2.847 2.59 3.078 2.476 3.082 1.727 2.59 1.582 2.473 1.496 2.59 1.468 2.707 2.477 5.469 1.121 2.703.98 2.82.864 2.965.746 2.848.75 2.964.484 2.938.723 5.957.14 3.05v5.985l-.14 3.023-.723 5.958-.484 2.933-.75 2.965-.746 2.852-.863 2.96-.981 2.82-1.121 2.735-1.238 2.852-1.239 2.703-2.964 5.21-1.582 2.532-1.727 2.445-2.477 3.11-2.617 3.11-2.68 2.933-2.96 2.707-2.965 2.59-3.223 2.359-2.476 1.871-2.56 1.582-5.21 2.965-5.438 2.473-2.824 1.093-2.847 1.008-2.82.863-2.966.72-5.957 1.237-2.906.375-5.957.489h-3.078v3.629h3.367l5.957-.52h.145l2.933-.375a.951.951 0 0 0 .29-.059l5.956-1.234c.055 0 .086 0 .141-.031l2.938-.719a.573.573 0 0 1 .203-.058l2.82-.864c.027-.027.086-.027.145-.054l2.82-.98c.055 0 .086-.028.14-.06l2.825-1.093c.054-.028.113-.055.172-.086l5.437-2.473a1 1 0 0 0 .29-.144l5.206-2.965c.059-.027.086-.059.113-.059l2.567-1.582c.086-.058.172-.144.258-.199l2.472-1.844 3.196-2.332c.09-.055.172-.144.257-.199l2.938-2.59c.027-.031.059-.031.086-.058l2.933-2.708c.086-.085.172-.14.235-.23l2.703-2.934a.214.214 0 0 1 .113-.113l2.59-3.11c.031-.03.059-.058.059-.085l2.476-3.082a.83.83 0 0 0 .145-.2l1.695-2.445c.059-.03.09-.09.117-.144l1.614-2.59c.027-.031.027-.086.054-.117l2.992-5.18c.032-.086.086-.203.145-.289l1.21-2.703.028-.059 1.266-2.847c0-.032 0-.059.027-.086l1.098-2.707c.023-.059.054-.114.086-.2l.976-2.82c0-.058.031-.117.059-.176l.86-2.96c0-.032 0-.06.03-.09l.75-2.907.746-2.964c0-.086.032-.172.06-.258l.491-2.934v-.144l.746-5.957c.028-.086.028-.204.028-.29l.113-3.05zm0 0" style="fill:#1e9745;fill-opacity:1;fill-rule:nonzero;stroke:none" transform="translate(-628.26 -629.578)"/><path d="m779.344 699.281.664 6.446 1.207-.145-.809-7.828-10.793 1.125.836 8.027 1.239-.144-.692-6.59 3.774-.402.628 5.843 1.125-.117-.605-5.844zM780.492 719.598l.29-1.438-10.677-1.957-.257 1.293 8.66 1.613-9.695 4.059-.262 1.437 10.68 1.957.226-1.292-8.66-1.586zM775.172 683.395l1.293 3.222 1.094-.43-3.137-7.859-1.121.461 1.32 3.281-8.945 3.625.515 1.297zM773.27 739.543l-2.934 5.754 1.062.547 3.598-6.992-9.64-4.98-3.684 7.167 1.094.574 3.05-5.898 3.368 1.726-2.676 5.239 1.008.515 2.707-5.234zM762.508 672.918l-1.988 2.879.921 1.265 2.301-3.425v-2.473l-.547.777-1.98-2.734 2.527-.809v-1.351l-7.914 2.273.895 1.239 3.34-1.008zm1.234.719 4.117-6.188-.949-1.32-3.168.918v1.351l2.535-.804-2.535 3.57zM746.621 654.96l2.477 1.872.488.43.488.75.031.922-.375.863-.546.863-.375.574-.317.633-.086.23 1.293.977v-.226l.117-.434.258-.547.406-.664v-4.746l-.085-.027-.922-.633-2.192-1.672 2.477-3.25.722.547v-1.383l-1.156-.89-6.558 8.632 1.062.832zm3.86 6.243.23-.398c.172-.235.312-.492.43-.75.086-.145.171-.317.226-.461l.117-.98-.23-.747-.172-.258.348.086 1.09.086 1.039-.347.804-.747c.172-.23.285-.43.403-.66.086-.23.171-.46.203-.722a2.86 2.86 0 0 0 .027-.832 2.85 2.85 0 0 0-.285-.809c-.117-.227-.29-.43-.465-.633a4.949 4.949 0 0 0-.719-.66l-3.047-2.332v1.383l2.157 1.64.804.805.258 1.035-.43 1.008-.718.66-1.121.262-.95-.375zM730.016 772.234l-.403.317-.664.777-.312 1.121.172 1.153c.085.257.226.488.375.718.14.203.343.403.546.578.23.2.516.372.801.489.086.027.149.058.235.086v-1.383l-.172-.086-.633-.805-.117-1.035.488-1.094c.113-.144.262-.289.434-.402v-1.297h-.118c-.203.027-.402.059-.601.027l-.926-.37-.457-.665-.09-.863.492-.863c.172-.145.344-.285.547-.403.172-.113.403-.199.606-.289l.547-.113v-1.035c-.258.027-.493.113-.75.172-.285.113-.606.258-.895.402a7.049 7.049 0 0 0-.773.574 2.665 2.665 0 0 0-.52.606c-.14.23-.258.488-.344.75-.058.23-.09.457-.09.687.032.262.06.52.145.75l.402.75.75.575.922.171zm.75 5.239c.199.058.402.086.601.086.348.03.692 0 1.008-.059a7.65 7.65 0 0 0 1.18-.285 5.57 5.57 0 0 0 1.727-1.008c.23-.172.433-.402.573-.633a3.02 3.02 0 0 0 .375-.836c.086-.289.145-.605.145-.922 0-.343-.059-.66-.172-.976l-.633-1.035a2.046 2.046 0 0 0-.578-.461c-.172-.145-.398-.23-.633-.29l-.976-.085-.348.058.32-.23.543-.692.207-.921-.144-.805c-.063-.203-.176-.402-.29-.606a7.826 7.826 0 0 0-.433-.488c-.203-.144-.402-.289-.601-.375a2.825 2.825 0 0 0-.664-.172 5.155 5.155 0 0 0-.918 0 .928.928 0 0 0-.29.059v1.035l.548-.086 1.003.317.547.746.059.836-.52.949-1.062.633c-.2.058-.375.117-.574.144v1.297a.639.639 0 0 1 .172-.145c.257-.171.515-.289.777-.402.289-.086.574-.176.86-.203.234-.059.491-.059.75-.027.202.027.405.086.605.172.203.086.402.23.578.375l.547.89.054 1.008-.488 1.035a3.004 3.004 0 0 1-.574.461c-.262.172-.52.29-.809.402a8.074 8.074 0 0 1-.773.204c-.235.027-.492.027-.723.027l-.976-.375zM731.855 641.926l6.016 2.328.434-1.149-7.34-2.824-3.887 10.16 7.543 2.848.434-1.148-6.22-2.36 1.384-3.543 5.496 2.074.402-1.066-5.5-2.098zM717.035 770.336l-1.008.113-.027.262-.402.95-.918.718-1.125.316h-.2l.083.836 2.562-.261.777 7.628 1.325-.144zM709.266 636.828l-1.754-.086-.606 10.852 1.266.058.488-8.75 2.969 8.95 1.117.058 3.945-8.547-.46 8.72 1.265.085.606-10.848-1.754-.086-4.059 8.864zM700.145 770.133c-.348 0-.665.031-.98.086a3.366 3.366 0 0 0-1.15.492c-.406.258-.75.601-1.007 1.035-.29.43-.461.922-.547 1.438-.059.46-.031.949.086 1.41.113.46.316.863.601 1.238.29.375.664.691 1.067.89.46.262.949.407 1.437.462h.493v-1.036c-.118 0-.231 0-.348-.027-.371-.031-.746-.172-1.094-.348a1.997 1.997 0 0 1-.687-.687 1.894 1.894 0 0 1-.348-.777 2.755 2.755 0 0 1 0-.981c.059-.316.172-.66.348-.95.14-.288.343-.519.601-.69.23-.2.52-.344.836-.403.2-.059.434-.086.692-.086zm-4.06 7.312-.026.285c0 .262.054.493.113.723.058.258.172.488.316.719.145.258.317.488.52.687.199.203.43.375.687.52.262.144.492.258.75.375a4.243 4.243 0 0 0 1.7.172v-1.153l-.75.086-1.008-.343-.805-.864-.23-.804v-.23zm4.06 3.48c.085 0 .199-.027.285-.027.347-.058.633-.171.922-.316.347-.176.664-.406.921-.664.258-.285.489-.602.66-.95.231-.429.407-.862.52-1.323.172-.547.29-1.063.344-1.61.058-.402.117-.808.117-1.21 0-.403 0-.778-.059-1.18a3.752 3.752 0 0 0-.343-1.352 3.154 3.154 0 0 0-.606-.98 3.213 3.213 0 0 0-.949-.72 4.712 4.712 0 0 0-1.352-.402c-.175-.027-.316-.027-.46-.058v1.066c.085 0 .199.028.285.028.347.058.691.171.98.347.29.145.547.371.746.633.176.258.317.516.406.832.055.316.086.637.055.953a3.1 3.1 0 0 1-.316 1.004c-.172.29-.403.52-.66.723-.258.172-.52.316-.805.37-.23.06-.461.087-.691.06v1.035h.171c.23-.028.43-.055.66-.114.231-.058.434-.144.665-.257.199-.09.375-.204.547-.317l.316-.23-.086.43c-.031.202-.086.402-.145.632-.058.23-.144.461-.23.664l-.574 1.094-.836.633-.488.054zM692.371 640.254l-.832-1.207-1.555.402-1.093 11.512 1.496-.402.258-3.454 1.726-.46v-1.153l-1.61.403.344-5.293 1.266 1.957zm2.332 5.785 1.93 2.906 1.523-.402-5.785-8.29v2.306l1.645 2.504-1.645.43v1.152zM687.797 767.2l-.95-.376-.144.23-.805.665-1.12.199-1.153-.258-.203-.086-.317.778 2.418.976-2.847 7.11 1.234.488zM668.629 649.117l-1.207.723 5.64 9.265 1.208-.718-1.985-3.254.664-2.418 6.414 2.562 1.5-.89-7.57-2.938 1.64-6.16-1.581.95-1.903 7.515zM656.805 659.422c-.176.086-.375.2-.547.344a4.581 4.581 0 0 0-.692.632l-3.543 3.946 4.782 4.258v-1.84l-3.024-2.676 2.418-2.707.606-.547zm.804 8.058 2.07-2.304.489-.457.75-.407.922.032.832.43.836.605.547.402.605.403.23.085 1.063-1.207-.23-.03-.403-.141-.547-.317-1.007-.722c-.23-.141-.461-.317-.72-.458a1.423 1.423 0 0 0-.46-.261l-.95-.2-.777.2-.257.144.113-.343.176-1.094-.29-1.067-.69-.863a2.41 2.41 0 0 0-.634-.43 2.55 2.55 0 0 0-.66-.289c-.289-.058-.578-.086-.863-.058a2.675 2.675 0 0 0-.809.203c-.027.027-.086.055-.14.086v1.41l.226-.203 1.067-.172.976.488.606.778.172 1.125-.457 1.003-.723.868-1.84 2.07-.027-.027v1.84l3.336 2.964.922-1.007zM708.89 651.48h-2.359l-2.242.141-2.246.23-2.273.262-2.247.489-2.128.375-2.274.632-2.129.633-2.129.746-2.129.895-2.132.863-2.012 1.008-2.016 1.121-1.984 1.152-1.903 1.121-1.87 1.38-2.387 1.87-2.246 1.872-2.274 2.16-2.129 2.129-1.87 2.359-1.9 2.39-1.238 1.899-1.265 1.871-1.121 2.016-1.125 1.984-1.004 2.016-.895 2.129-.75 2.011-.746 2.246-.75 2.16-.488 2.13-.52 2.246-.37 2.27-.376 2.245-.258 2.246-.117 2.274v4.52l.117 2.242.258 2.273.375 2.246.371 2.273.52 2.247.488 2.128.75 2.274.746 2.129.75 2.129.895 1.988 1.004 2.156 1.125 1.989 1.12 1.898 1.266 1.871 1.239 1.871 1.898 2.387 1.871 2.387 2.13 2.101 2.273 2.13 2.246 2.015 2.386 1.758 1.871 1.378 1.903 1.239 1.984 1.152 2.016 1.008 2.012.976 2.132.891 2.13.867 2.128.774 2.13.605 2.273.633 2.128.52 2.247.374 2.273.23 2.246.259 2.242.113 2.246.145h.114v-3.743c-2.848 0-5.641-.226-8.461-.66a58.901 58.901 0 0 1-8.285-1.984 55.805 55.805 0 0 1-7.86-3.281c-2.531-1.266-4.95-2.766-7.25-4.434a53.283 53.283 0 0 1-6.476-5.496 53.891 53.891 0 0 1-5.528-6.477 54.531 54.531 0 0 1-7.71-15.137 51.433 51.433 0 0 1-1.985-8.257 52.717 52.717 0 0 1-.664-8.492c0-2.848.203-5.7.664-8.489a51.107 51.107 0 0 1 1.984-8.289 54.532 54.532 0 0 1 7.711-15.136c1.672-2.274 3.512-4.461 5.528-6.45 2.015-2.011 4.171-3.882 6.476-5.55a54.774 54.774 0 0 1 7.25-4.434 51.804 51.804 0 0 1 7.86-3.254 52.175 52.175 0 0 1 8.285-1.984c2.82-.461 5.613-.692 8.46-.692zm57.848 57.817-.144-2.246-.114-2.274-.144-2.246-.375-2.246-.375-2.27-.488-2.245-.633-2.13-.637-2.16-.746-2.246-.746-2.011-1.008-2.13-.863-2.015-1.153-1.984-1.125-2.016-1.234-1.871-1.266-1.898-1.87-2.391-2.016-2.36-2.016-2.128-2.242-2.16-2.273-1.872-2.387-1.87-1.871-1.38-2.02-1.12-1.867-1.153-2.016-1.121-1.984-1.008-2.16-.863-2.13-.895-2.128-.746-2.133-.633-2.242-.632-2.273-.375-2.13-.489-2.245-.261-2.274-.23-2.246-.142h-2.273v3.508c2.851 0 5.671.23 8.492.692a52.221 52.221 0 0 1 8.289 1.984 53.117 53.117 0 0 1 7.855 3.254 54.774 54.774 0 0 1 7.25 4.434c2.305 1.668 4.461 3.539 6.477 5.55 2.016 1.989 3.855 4.176 5.523 6.45a54.638 54.638 0 0 1 4.461 7.28 54.532 54.532 0 0 1 3.254 7.856c.863 2.707 1.555 5.469 1.988 8.29.43 2.788.66 5.64.66 8.488 0 2.82-.23 5.671-.66 8.492-.433 2.789-1.125 5.554-1.988 8.258a54.531 54.531 0 0 1-3.254 7.855 54.637 54.637 0 0 1-9.984 13.758 56.238 56.238 0 0 1-6.477 5.496c-2.3 1.668-4.718 3.168-7.25 4.434a57.345 57.345 0 0 1-7.855 3.28 58.954 58.954 0 0 1-8.29 1.985c-2.82.434-5.64.66-8.491.66v3.743l2.273-.145 2.246-.113 2.274-.258 2.246-.23 2.129-.376 2.273-.52 2.242-.632 2.133-.605 2.129-.774 2.129-.867 2.16-.89 1.984-.977 2.016-1.008 1.867-1.152 2.02-1.239 1.87-1.379 2.388-1.757 2.273-2.016 2.242-2.129 2.016-2.101 2.015-2.387 1.871-2.387 1.266-1.87 1.234-1.872 1.125-1.898 1.153-1.989.863-2.156 1.008-1.988 1.492-4.258.637-2.274.633-2.128.488-2.247.375-2.273.375-2.246.144-2.274.114-2.242zM647.246 678.273l-3.566-.289-.692 1.465 4.258 4.235v-1.871l-2.644-2.504 2.644.285zm3.828 1.723 3.453.348.664-1.41-7.945-.66v1.32l2.649.289-1.438 3.078-1.21-1.149v1.872l3.913 3.914.664-1.383-2.504-2.445zM645.75 744.664l.637 1.266 9.668-4.95-.664-1.265-4.575 2.36-2.648-5.208 4.605-2.332-.664-1.265-9.668 4.921.664 1.266 4.114-2.102 2.648 5.207zM641.723 718.906l-4.145 2.45.29 1.581 3.855.66v-1.324l-2.649-.37 2.649-1.47zm3.078-.172 3.023-1.726-.289-1.524-5.812 3.422v1.528l2.015-1.094.602 3.308-2.617-.375v1.325l7.511 1.297-.257-1.528-3.457-.547zM636.688 703.48l-.231 1.758 10.762 1.41.172-1.265-8.692-1.125 9.125-2.301.145-1.121-8.23-4.578 8.69 1.125.141-1.27-10.734-1.379-.23 1.727 8.519 4.719zm0 0" style="fill:#1e9745;fill-opacity:1;fill-rule:nonzero;stroke:none" transform="translate(-628.26 -629.578)"/><path d="m678.617 723.313-.144.171-1.008-.777-.832.633-1.27-.89-1.695 1.062 1.812 3.597-.578.203-.226.95.515.918.348.32-3.828 3.223.574 2.214 1.582-.402.348 1.496 2.07-.547.547 1.18 1.785-.488v-6.246a8.185 8.185 0 0 1-.922-.29 11.581 11.581 0 0 1-1.382-.574l-.688-.605-.031-.371.402-.145.578.145 2.043.805zm0-18.192-3.77-3.453-2.503-.66-.375 1.12-1.324-.316-.516 1.122-1.324-.457-.407 1.003-1.496-.515-.832 1.094-1.21-.579-.778 1.008-1.867-.718-1.27 1.296 2.36 3.625h-.72c-.198 0-.401 0-.573.028-.29.027-.547.117-.805.23a.988.988 0 0 0-.348.348c-.086.172-.144.375-.086.574.06.29.172.606.348.863.14.203.317.403.543.547.176.145.406.23.637.29l1.094.198-2.938 2.793-.059 1.985 2.332.117.375 1.207 2.473-.66.664 1.234 1.957-.773.719 1.351 2.39-1.41.95.832 2.418-1.379 1.148.977 2.102-1.035.691-2.188v-6.648l-2.879 1.152c-.863.258-1.754.547-2.648.778-.43.144-.863.23-1.32.343-.637.145-1.27.23-1.93.317a28.34 28.34 0 0 1-2.188.175c-.574.028-1.18.028-1.785 0-.515 0-1.035-.058-1.554-.117a6.691 6.691 0 0 1-.833-.144 7.225 7.225 0 0 1-.835-.285l-.43-.348.086-.258.43-.058.89.144c.578.086 1.152.172 1.73.2.544.058 1.122.058 1.696.058a26.398 26.398 0 0 0 2.101-.172 22.9 22.9 0 0 0 2.418-.461c.575-.144 1.18-.316 1.727-.488a35.1 35.1 0 0 0 1.555-.547l3.77-1.527zm0-25.266-2.476.72c-.371.085-.72.23-1.036.433-.23.14-.43.312-.605.515l-.027.75.777.23.977-.116 2.39-.403zm0-2.992v2.13c-.488.085-.949.171-1.437.257l-2.621.547-1.094-.027-.317-.461.23-.633.575-.29 1.957-.777c.578-.203 1.18-.375 1.785-.515.317-.09.606-.149.922-.23m0-3.255-3.137.864-2.847.922-.863.632-.204.66.489.579h1.035l2.879-.578a91.68 91.68 0 0 1 2.648-.461zm21.555 72.32-1.008-.085-3.164-4.43-2.305-.547-.574 1.121-1.7-.46-.429 1.152-1.383-.489-.199 1.235-1.008-.777-.46.98-1.208-1.008-.375 1.094-1.125-1.008-.488 1.067-1.121-.922-1.297 1.64 1.41 3.196-.804.285-.172.953.547.863.488.285-2.445 2.274.43 1.785 1.726-.52.375 1.18 1.41-.805.691 1.325 1.496-1.094.692 1.152 1.496-1.094.777 1.036 1.153-.95.746.891 1.469-1.035.804.922 2.219-1.266 1.84-4.98c.375 0 .75 0 1.094.03h.402v-.894a7.11 7.11 0 0 0-1.383-.027c-.172.027-.344.027-.488.055-.344.058-.66.144-1.008.203l-3.137.922a66.67 66.67 0 0 0-1.093.258l-1.208.257c-.546.09-1.066.145-1.613.176-.488.055-.976.086-1.465.113-.492 0-1.007 0-1.496-.027-.492-.031-.953-.059-1.441-.117a3.408 3.408 0 0 1-.95-.23 4.6 4.6 0 0 1-.777-.317l-.343-.402.085-.375.317-.086.777.086c.371.09.778.144 1.153.203a13.63 13.63 0 0 0 1.523.086c.605 0 1.207 0 1.812-.059a13.688 13.688 0 0 0 1.582-.172c.29-.058.579-.113.836-.172.547-.144 1.094-.257 1.641-.402l2.043-.691 1.383-.489c.46-.117.89-.172 1.351-.203.575-.027 1.18-.027 1.754.059.059 0 .117 0 .145.027zm-21.555-9.753v-6.246c.172.058.375.086.547.144.777.172 1.555.317 2.332.375.719.086 1.465.114 2.188.086l4.257-.347 6.965-1.524c.43-.086.832-.172 1.266-.23.402-.059.777-.118 1.18-.145a11.082 11.082 0 0 1 1.726-.027c.375.054.75.113 1.094.199v1.008a5.921 5.921 0 0 0-1.035-.2 5.37 5.37 0 0 0-1.18-.03 14.79 14.79 0 0 0-1.93.23c-.863.172-1.726.347-2.59.578l-3.05 6.703-1.324.75-.72-.894-1.35 1.066-1.009-.98-1.007.722-.633-.953-1.582.809-.719-.98-2.36 1.007-.433-1.293Zm21.555-10.36a7.041 7.041 0 0 0-1.352-.03c-.547.058-1.093.116-1.64.202-.692.114-1.383.23-2.075.403l-2.27.515-4.116-5.726-2.016-.23-.402 1.066-1.153-.461-.488 1.12-1.18-.632-.949 1.18-1.527-.89-.805.921-.922-.664-.66.723v5.582l.027.027c.348.144.72.23 1.094.258 1.153.144 2.274.23 3.399.261.746 0 1.496 0 2.242-.03.664 0 1.324-.055 1.988-.114.488-.059.977-.145 1.465-.23a9.971 9.971 0 0 0 1.238-.258l5.496-1.47c.547-.112 1.094-.23 1.672-.315.403-.06.832-.118 1.293-.145a6.239 6.239 0 0 1 1.64.027zm0-14.562v11.512c-.574.14-1.207.23-1.813.257a10.251 10.251 0 0 1-2.3-.171 7.026 7.026 0 0 1-1.817-.692 6.234 6.234 0 0 1-1.61-1.238 7.078 7.078 0 0 1-1.237-1.785c-.344-.633-.547-1.293-.692-2.012a7.217 7.217 0 0 1-.058-2.074 6.086 6.086 0 0 1 .406-1.582c.172-.488.46-.95.777-1.383.172-.23.371-.488.574-.719.29-.316.575-.633.864-.949l.027 1.094c.031.316.086.605.203.89.086.204.2.375.344.547.23.23.52.403.836.52.43.144.922.199 1.41.199.52-.027 1.062-.113 1.555-.316.515-.2.949-.461 1.351-.805.434-.402.836-.805 1.18-1.293m0-33.645a1.53 1.53 0 0 1-.403.145l-1.527.719-.172-.98a4.793 4.793 0 0 0-.402-1.063 4.135 4.135 0 0 0-.606-.805 8.435 8.435 0 0 0-2.043-1.469 14.965 14.965 0 0 0-2.906-1.152c-.949-.23-1.898-.43-2.847-.547a25.01 25.01 0 0 0-2.907-.144c-.863.03-1.757.09-2.648.203a43.038 43.038 0 0 0-3.34.632l-1.754.461v2.618c.113-.028.23-.055.344-.055.289-.059.547-.086.836-.117.289 0 .574-.028.863 0 .692.03 1.383.086 2.07.144l-2.644.403c-.492.085-.98.171-1.469.261v2.13c.547-.09 1.094-.177 1.64-.231.606-.086 1.18-.117 1.786-.117.2 0 .402 0 .601.03.52.028 1.04.087 1.555.141-1.094.145-2.187.29-3.281.461-.317.032-.633.118-.95.203l-1.35.375v2.13l1.179-.173a14.98 14.98 0 0 1 2.531-.203c.578 0 1.152.059 1.727.172.203.031.433.086.632.145.434.117.836.261 1.27.402l-2.535.777c-.461.145-.89.344-1.266.633-.289.203-.488.461-.633.75l.059.52.547.199c.172.027.375.027.574.027.434 0 .895-.027 1.352-.027.347-.027.722 0 1.066.027a28.96 28.96 0 0 1 2.3.262 6.722 6.722 0 0 0-.804.402 3.988 3.988 0 0 0-.488.29l-.863.89-.23.746.257.23.922-.054c.289-.09.605-.117.922-.117.43-.028.89 0 1.324.058l1.754.258-2.102 2.246-.113.746.602.29 4.289-.403-1.696 1.496-.203.809.574.199 4.493-.922-1.325 2.043.055.375h.375l3.281-1.062-2.07 4-1.324.14-.723-.547-.402.059-.918.375-.52.66-.375 1.008c-.918.348-1.812.691-2.734 1.066-.23.086-.488.2-.719.317l-6.906 3.394c-.145.059-.29.145-.434.172a133.7 133.7 0 0 1-2.273.863l-.43-.402v1.813l1.7-.688 3.163-1.383 5.985-2.847c.55-.23 1.066-.461 1.613-.665.461-.199.922-.343 1.41-.488.258-.086.547-.144.836-.203.574-.113 1.149-.23 1.727-.344l-.23.606-.087.488c-.492.086-.98.172-1.468.285-.23.059-.461.117-.692.203a9.29 9.29 0 0 0-1.265.434c-.344.144-.692.285-1.036.457l-5.18 2.648-2.648 1.18-3.828 1.555v6.648l2.016-6.273 2.644-1.008 7.688-3.711a20.424 20.424 0 0 1 1.637-.719c.347-.117.664-.23 1.039-.32.113-.027.257-.027.402-.055.316-.058.66-.086.977-.117.117.23.261.434.433.637.113.14.258.285.402.37l.864.028.172-.14-.172-.52v-.316c.691.058 1.41.144 2.101.289.344.054.66.172.977.289.144.054.262.113.375.172v-1.27a7.008 7.008 0 0 0-1.324-.402c-.2-.059-.403-.086-.575-.145a60.78 60.78 0 0 1-1.18-.172l.231-.691.488-.688c.606 0 1.208.028 1.813.086.203 0 .375.028.547.055v-1.898l-.23-.461-1.122.086 1.352-2.934zm0 71.317v-.895h.027a8.305 8.305 0 0 1 1.7.348 7.818 7.818 0 0 1 1.581.687c.461.262.864.547 1.239.864.375.347.718.777 1.007 1.238.29.488.489 1.035.633 1.613.059.2.086.375.145.575v7.167l-.692-.46-.058-6.36a13.148 13.148 0 0 0-.403-1.183c-.113-.258-.23-.516-.343-.774a4.604 4.604 0 0 0-.836-1.152c-.403-.375-.832-.719-1.293-.95a7.455 7.455 0 0 0-1.094-.46c-.375-.118-.777-.172-1.152-.23-.145 0-.317 0-.461-.028m0-19.457c.027.031.086.031.117.031.574.2 1.121.457 1.64.805.575.343 1.09.746 1.551 1.207.434.433.836.922 1.18 1.441.262.43.492.89.664 1.38.086.23.145.46.2.663.116.461.202.918.288 1.379l.118 11.973c-.434-.317-.868-.66-1.297-.95-.23-.171-.461-.289-.692-.43a10.624 10.624 0 0 0-1.582-.636 14.386 14.386 0 0 0-1.984-.371l-.203-.031v.777c.605.086 1.18.203 1.758.402a9.284 9.284 0 0 1 1.722.723c.461.258.895.547 1.238.863.375.286.72.633 1.008 1.004l.606.809v-16.203c-.028 0-.028-.031-.028-.031-.117-.344-.289-.66-.46-.977a10.84 10.84 0 0 0-1.067-1.496 7.987 7.987 0 0 0-1.297-1.324 13.68 13.68 0 0 0-1.781-1.325 6.067 6.067 0 0 0-1.383-.605c-.113-.027-.2-.055-.316-.086zm0-26.043v-1.27c.203.059.375.118.547.203a9.624 9.624 0 0 1 1.785.98c.66.43 1.238.919 1.785 1.466a12.161 12.161 0 0 1 1.41 1.785c.316.434.574.89.805 1.351v23.11c-.23-.258-.434-.516-.66-.777-.262-.286-.52-.602-.809-.891a8.258 8.258 0 0 0-1.293-1.121 8.247 8.247 0 0 0-1.672-.863 7.307 7.307 0 0 0-1.695-.493h-.203v-1.09c.258 0 .52.055.777.086a6.845 6.845 0 0 1 1.84.633c.46.23.894.488 1.297.778.66.488 1.324 1.003 1.957 1.55l.402-11.71-1.785 2.562c-.371.488-.805.95-1.266 1.351-.43.375-.921.692-1.41.977-.515.29-1.062.52-1.64.664-.055.027-.114.027-.172.059v-11.512c.058-.059.117-.117.172-.203.433-.633.804-1.297 1.093-1.985.172-.406.29-.808.403-1.21a8.89 8.89 0 0 0 .261-1.208c.028-.203.055-.402.055-.632.031-.403.031-.805.059-1.239a28.365 28.365 0 0 0-1.582-1.093c-.145-.086-.29-.172-.461-.258m6.332-44.754a4.95 4.95 0 0 0-.778.316 4.764 4.764 0 0 0-.89.606 3.653 3.653 0 0 0-.52.633l-.488 1.125h-1.125l-1.148.312-.493.52.145.664.547.226.777-.113.633.23.605.864c.145.316.344.633.575.922.144.171.316.316.492.43l.805.23c-.06.347-.086.719-.118 1.094 0 .085 0 .171.032.257l.66 2.477c.086.258.086.52.03.777a7.851 7.851 0 0 1-.577 1.582L704 675.31a1.44 1.44 0 0 0-.145.37 26.172 26.172 0 0 0-.546 1.673c-.344-.032-.72-.032-1.063-.032-.203 0-.433 0-.637.032-.312 0-.632.054-.918.14-.175.031-.347.09-.52.117v17.383l.087-.172.488 1.41c.145.403.29.832.434 1.293.058.172.117.348.144.52.027.172.059.344.086.52.059.343.113.687.145 1.003l-.836-.285-.547-.98v1.898c.144.031.258.031.375.059a9.954 9.954 0 0 1 1.84.605c.777.375 1.527.778 2.218 1.266.457.348.918.719 1.38 1.125.171.172.347.312.519.457v-42.274h-.836l.031-.261.113-.258.172-.172.23-.144.262-.032h.028zm0 72.379v-23.11c.113.29.258.579.375.864.258.664.46 1.355.547 2.074.086.633.14 1.266.172 1.898.058.95.058 1.899.027 2.848l-.719 15.918c-.144-.176-.289-.348-.402-.492m0 19.457.23.375.114-13.844c0-.375-.028-.75-.028-1.125-.027-.226-.058-.457-.086-.66a11.979 11.979 0 0 0-.23-.95zm0 10.015v-7.167c0 .085.027.171.027.257.059.348.117.723.172 1.067l-.027 4.804 1.93 1.239 1.984-1.18-.028-5.383c.086-.457.172-.89.29-1.32a4.39 4.39 0 0 1 .199-.606 5.275 5.275 0 0 1 .836-1.468c.488-.606 1.035-1.094 1.636-1.555.633-.488 1.328-.89 2.075-1.238a5.49 5.49 0 0 1 1.671-.43c.2-.027.403-.059.63-.059v.922h-.313c-.149 0-.29.028-.434.028a3.631 3.631 0 0 0-1.066.347c-.52.23-1.008.516-1.469.864a7.198 7.198 0 0 0-1.32 1.12 7.55 7.55 0 0 0-.98 1.325c-.118.2-.231.402-.317.605-.2.43-.371.864-.547 1.266l-.113 6.102-2.707 1.984zm11.394-82.94c-.086 0-.14-.032-.199-.06-.375-.058-.719-.117-1.094-.144a5.536 5.536 0 0 0-.953 0c-.66.059-1.293.144-1.953.258a30.684 30.684 0 0 0-.578-2.875 4.498 4.498 0 0 0-.313-1.04l-1.355-3.48c-.2-.52-.348-1.066-.375-1.61a6.11 6.11 0 0 1 .059-1.784l.343-1.758c.118-.488.203-1.004.262-1.524.027-.433.027-.894 0-1.324a4.077 4.077 0 0 0-.375-1.554 3.916 3.916 0 0 0-.863-1.18 2.806 2.806 0 0 0-1.008-.633 5.043 5.043 0 0 0-1.324-.348c-.43-.027-.864-.027-1.266.059-.144.027-.289.059-.402.086v1.898l.23.032.23.113.173.203.144.23.027.23-.054.286-.692-.227h-.058v42.274c.258.289.515.547.777.836l1.379 1.7c.434-.52.836-1.036 1.27-1.556.226-.257.46-.492.687-.718a8.027 8.027 0 0 1 1.355-1.094c.72-.492 1.465-.95 2.247-1.356.632-.316 1.32-.632 1.984-.918.543-.23 1.121-.433 1.695-.578v-1.84l-.113.114-.316.578-1.555.488c0-.402.027-.805.086-1.21.027-.286.058-.548.113-.833.09-.402.203-.777.375-1.152.172-.403.406-.778.664-1.153.172-.199.316-.402.488-.605.086-.113.172-.2.258-.312zm0 48.116v.95a20.85 20.85 0 0 0-2.27.75c-.636.285-1.238.601-1.843.976-.547.375-1.094.777-1.586 1.238-.2.203-.398.434-.601.633-.407.434-.778.89-1.153 1.352l-.344-19.282c.028-.546.086-1.12.141-1.668.031-.289.063-.546.148-.835a7.96 7.96 0 0 1 .715-2.043c.375-.778.868-1.524 1.414-2.188a10.95 10.95 0 0 1 1.899-1.93 13.322 13.322 0 0 1 2.273-1.437c.375-.2.778-.375 1.207-.52v1.414c-.258.114-.488.258-.718.403-.692.402-1.352.832-1.985 1.324.028.547.086 1.094.145 1.668.027.43.086.863.172 1.266.14.89.43 1.726.836 2.53.43.75.921 1.47 1.55 2.075v10.016c-.14-.032-.258-.086-.402-.118a10.348 10.348 0 0 1-2.273-1.12 6.813 6.813 0 0 1-1.641-1.497c-.371-.52-.746-1.035-1.063-1.554-.492-.836-.921-1.668-1.355-2.504l.262 13.21c.375-.316.773-.605 1.18-.894.23-.2.488-.371.75-.547a10.096 10.096 0 0 1 1.84-.949 12.14 12.14 0 0 1 2.187-.66c.172-.031.343-.059.515-.059m-6.472 9.442c.402-.664.804-1.297 1.265-1.93.317-.461.692-.922 1.067-1.383a8.522 8.522 0 0 1 1.695-1.523c.605-.403 1.238-.75 1.93-.95a3.18 3.18 0 0 1 .515-.144v-1.121c-.375.086-.718.2-1.062.344-.692.343-1.383.718-2.016 1.152a17.367 17.367 0 0 0-1.926 1.61 22.47 22.47 0 0 0-1.554 1.726c-.262.316-.461.664-.637 1.039-.027.113-.086.2-.113.312-.059.32-.145.637-.2.954l.028 15.425c.23-.289.433-.605.633-.894.113-.145.23-.285.343-.43.235-.23.461-.433.692-.633.261-.23.547-.433.836-.636a15.53 15.53 0 0 1 1.93-1.09c.43-.203.863-.375 1.324-.492a7.527 7.527 0 0 1 1.18-.172c.167 0 .343 0 .542.027v-.602c-.344.028-.719.055-1.062.086-.203 0-.403.028-.633.086a7.86 7.86 0 0 0-1.613.43 7.241 7.241 0 0 0-1.496.723l-1.7 1.093zm6.472 13.265c.235 0 .461.028.72.028l2.62 5.586 1.64 1.062.75-1.008 1.583 1.266.687-1.004 1.903 1.148.547-1.12 1.667.921.72-1.094 1.527.805.515-1.152 1.7.75.43-1.438 1.038.344.403-2.102-2.59-2.187.515-.66-.226-.95-.375-.23 1.383-2.535-.493-1.41-1.55.547-.149-.977-1.094.633-.343-1.035-1.38.918-.402-1.004-1.613.547-.289-1.04-1.64.493-.29-.95-1.261.403-.407-1.094-2.187.317-3.824 4.546h-.235v.602c.32 0 .633.031.953.09l2.672.515 3.227.778c.605.144 1.207.289 1.812.375.375.086.72.113 1.094.172.258 0 .488.027.746.027h1.008c.402 0 .809-.027 1.207-.055.176 0 .375-.03.55-.086l1.47-.316.687.027.23.2-.085.519-.606.375c-.312.086-.633.203-.949.258-.375.086-.719.117-1.094.172-.43.03-.832.058-1.234.058-.403.032-.778 0-1.153 0-.257-.027-.492-.058-.718-.086l-1.383-.171-5.383-1.297a22.916 22.916 0 0 0-2.387-.371c-.23 0-.46-.032-.664-.032zm0-45.297v-1.414c.262-.086.52-.172.782-.257.601-.141 1.207-.258 1.84-.258.288 0 .574 0 .863.027.574.059 1.18.117 1.757.203l-.117-.664-.633-.832a1.449 1.449 0 0 0-.433-.176c-.258-.054-.52-.113-.774-.113-.578-.027-1.125 0-1.671.059a9.226 9.226 0 0 0-1.582.316s-.032 0-.032.027v-1.84l.375-.402.72-.348.862-.14-1.55-3.656c-.145.171-.29.316-.407.46v-16.519c.664.172 1.297.344 1.957.547.118-.317.258-.664.407-.98.054-.114.14-.258.199-.376a4.99 4.99 0 0 1 1.21-1.351 9.837 9.837 0 0 1 2.071-1.352c.863-.46 1.785-.804 2.703-1.093.95-.258 1.93-.461 2.91-.547a20.7 20.7 0 0 1 3.309-.086c1.207.058 2.418.23 3.625.46l3.48.747v2.129c-.054 0-.113-.028-.168-.028-.609-.086-1.18-.117-1.789-.117-.37 0-.746.059-1.12.117-.778.086-1.524.23-2.27.403l4.023.46c.461.06.895.145 1.324.231v2.156a37.19 37.19 0 0 0-1.867-.312c-.664-.086-1.351-.145-2.015-.117-.317 0-.606.03-.895.058-.687.086-1.379.2-2.043.317.809.086 1.613.172 2.39.257.403.032.805.086 1.212.145.601.113 1.207.23 1.785.375.484.113.976.258 1.433.371v2.219c-.714-.172-1.464-.348-2.21-.52a7.33 7.33 0 0 0-1.07-.172 13.754 13.754 0 0 0-1.552-.085c-1.066 0-2.101.058-3.168.144l2.45 1.094c.312.144.574.316.836.515.226.172.43.375.601.606l.145.46-.72.345-4.92.316 1.233 1.41c.235.29.407.578.547.895.063.172.09.402.063.601l-.262.29-.633.03-2.59-.46 1.497 2.156v.488l-.633.059-2.992-.778.976 2.043-.027.434-.575.059-2.16-1.04.23 1.903-.144.488-.718-.059-1.38-.921.141 1.039-.117.199-.602.058-1.87-.804 1.351 4c.348.027.664.086 1.008.172.144.027.261.058.375.117l1.437.574c.086.027.145.055.235.055.398.031.804.031 1.207 0 .289 0 .547.031.836.09.199.027.37.085.57.171l.637 1.036v1.035l8.75 4.176 1.554.66 1.664-1.121v3.164l-2.445-1.18-2.098-1.008-10.246-4.719.086.832-.23.868 9.586 4.46 4.37 1.954.977.52v6.85l-.687-.519-2.852-6.992-2.5-1.094-9.586-4.375-.574.403-.664.257-.312-.285.199-.32.058-.402-1.382-.114c-.52 0-1.067.028-1.582.114-.461.09-.922.23-1.356.402-.226.117-.43.203-.633.32m0 19.282a8.15 8.15 0 0 0 1.871.285 7.4 7.4 0 0 0 2.102-.227 7.25 7.25 0 0 0 3.023-1.672 7.89 7.89 0 0 0 1.266-1.496c.371-.574.691-1.18.918-1.812a8.011 8.011 0 0 0 .434-2.016 6.714 6.714 0 0 0-.118-2.012c-.113-.55-.285-1.066-.574-1.554-.172-.375-.46-.692-.773-.95l-.434-.261a7.437 7.437 0 0 0-.953-.403c0 .348-.023.72-.055 1.067a5.553 5.553 0 0 1-.144.719 3.1 3.1 0 0 1-.489.921c-.23.258-.492.461-.808.633a3.458 3.458 0 0 1-1.18.317c-.43.058-.89.027-1.324-.059-.516-.113-1.004-.316-1.496-.547-.43-.23-.832-.52-1.207-.863 0-.028-.027-.059-.059-.086zm21.871.343v5.239a.213.213 0 0 1-.14.058c-.434.145-.836.258-1.27.344-.457.117-.918.23-1.379.316-.289.059-.578.118-.89.172-.403.059-.809.117-1.211.145-.434.031-.832.031-1.266.031-.402 0-.805 0-1.21-.031-.516-.055-1.009-.086-1.524-.172a18.139 18.139 0 0 1-1.696-.258c-.433-.086-.894-.172-1.328-.289l-4.918-1.293a40.936 40.936 0 0 0-2.191-.46 6.495 6.495 0 0 0-1.063-.087 7.04 7.04 0 0 0-1.726.2h-.059v-.95c.492-.086.98-.144 1.469-.144.633-.028 1.238 0 1.871.086l2.649.492 4.777-5.555 2.242-.23.262 1.007 1.64-.433.227 1.297 1.355-.348.344.95 1.211-.403.543.805 1.27-.575.578.75zm-21.87 6.477a5.97 5.97 0 0 1 1.44-.258 8.133 8.133 0 0 1 1.872.027l2.558.489 3.309 6.187 1.7.836.605-.719 1.297 1.063.632-1.149 1.239 1.063.484-1.121 2.277 1.324.746-1.266 2.387 1.121.461-1.527.863.348v-6.563c-.254.114-.543.23-.832.317-.691.23-1.41.433-2.129.547-.691.117-1.382.171-2.074.171-.601-.027-1.207-.027-1.812-.085-.778-.028-1.555-.114-2.328-.2a9.559 9.559 0 0 1-1.325-.175 5.364 5.364 0 0 1-.695-.114l-4.602-1.035c-.66-.144-1.355-.262-2.015-.402-.434-.059-.89-.117-1.32-.176a8.14 8.14 0 0 0-2.047.031c-.23.028-.457.086-.692.145zm21.87-53.531c.836.117 1.641.289 2.45.52l3.308.948.953.23.66-.202.141-.66-.66-.95a8.837 8.837 0 0 0-1.352-.664 12.558 12.558 0 0 0-2.074-.601l-3.426-.75zm0 3.222v-2.156c.32.059.61.117.895.172.66.144 1.297.316 1.898.488.461.145.922.348 1.352.578.465.23.863.52 1.27.805l.488.719-.145.488-.43.09-.835-.117-3.051-.746c-.461-.118-.95-.23-1.442-.32m0 3.312.348.086 1.93.488.949.059.691-.317-.03-.777-.72-.606c-.343-.171-.718-.316-1.066-.46-.43-.172-.86-.317-1.32-.458a7.414 7.414 0 0 1-.782-.234zm0 33.5 1.383 1.035.836-.691 2.156 1.265 1.18-.976 2.707 1.265.809-1.18 2.414 1.239.691-1.067 2.13.72.636-1.122 1.926.633.89-1.899-3.105-3.167.746-.375.52-.458.054-1.21-.977-.547-.69-.028 1.612-2.273-.691-1.496-1.695.23-.235-.777-1.496.172-.226-1.035-1.41.14-.32-1.18-1.755.262.086-.894-1.726.289.14-1.469h-2.414l-4.176 2.852v3.164l3.887 1.843c.723.23 1.441.457 2.16.633.371.114.746.2 1.121.258a15.6 15.6 0 0 0 1.266.2c.605.058 1.238.09 1.871.116.547.028 1.121.059 1.668.028.32 0 .637-.028.98-.086l1.325-.145.601.145.086.289-.398.488c-.262.145-.489.29-.75.375-.285.113-.575.172-.864.23-.492.087-1.007.145-1.496.173-.578.027-1.12.027-1.699.027a21.612 21.612 0 0 1-2.332-.227c-.687-.09-1.379-.23-2.043-.406l-2.215-.66-3.168-1.555zm0 19.914 1.27.516.402-1.352 1.813.805.289-1.496 1.64.433.489-1.988-3.801-3.508.316-.402.235-.723-.262-1.008-.402-.172 1.382-2.59-.98-1.18-1.582.72-.75-.977-.059.027v5.239c.203-.059.375-.114.578-.172l.977-.23.262.085v.317l-.52.46c-.344.172-.687.376-1.062.52a.597.597 0 0 1-.235.113zm0 0" style="fill:#1e9745;fill-opacity:1;fill-rule:nonzero;stroke:none" transform="translate(-628.26 -629.578)"/></svg>