<svg xmlns="http://www.w3.org/2000/svg" width="83.608345mm" height="83.60833mm" viewBox="0 0 83.608345 83.60833"><path d="M174.802 181.38c0-23.085-18.72-41.805-41.804-41.805-23.093 0-41.804 18.72-41.804 41.804 0 23.093 18.711 41.804 41.804 41.804 23.084 0 41.804-18.71 41.804-41.804m-12.698 0c0 16.079-13.027 29.115-29.106 29.115-16.078 0-29.114-13.036-29.114-29.115 0-16.078 13.036-29.105 29.114-29.105s29.106 13.027 29.106 29.105" style="fill:#d91c23;fill-opacity:1;fill-rule:nonzero;stroke:none;stroke-width:2.33206" transform="translate(-91.194 -139.575)"/><path d="m132.998 213.108-28.814-49.611h57.628zm0 0" style="fill:#fff;fill-opacity:1;fill-rule:nonzero;stroke:none;stroke-width:2.33206" transform="translate(-91.194 -139.575)"/><path d="M159.863 164.563h-53.73l26.865 46.85zm-42.005 6.887h29.907l-14.958 25.534zm0 0" style="fill:#d91c23;fill-opacity:1;fill-rule:nonzero;stroke:none;stroke-width:2.33206" transform="translate(-91.194 -139.575)"/><path d="M106.425 185.387h53.146v-11.195h-53.146zm0 0" style="fill:#fff;fill-opacity:1;fill-rule:nonzero;stroke:none;stroke-width:2.33206" transform="translate(-91.194 -139.575)"/><path d="M107.254 184.604h51.479v-9.529h-51.479zm0 0" style="fill:#176ebf;fill-opacity:1;fill-rule:nonzero;stroke:none;stroke-width:2.33206" transform="translate(-91.194 -139.575)"/><path d="m120.983 179.621 2.04-2.578h-1.794l-1.995 2.469v-2.47h-1.658v5.503h1.658v-2.578l2.104 2.578h2.022zm8.982-.41h-2.278v-1.057h2.278v-1.111h-3.936v5.502h1.658v-2.222h2.278zm8.8-2.168h-1.658v2.615c0 .364-.055.665-.155.901-.11.237-.255.41-.447.52-.182.1-.4.154-.637.154-.264 0-.483-.053-.665-.164-.191-.109-.328-.282-.438-.519s-.154-.537-.154-.893v-2.614h-1.658v3.043c0 .61.145 1.102.446 1.484.292.383.665.647 1.102.811a4.1 4.1 0 0 0 1.367.237c.328 0 .665-.046.993-.128.337-.082.647-.228.938-.419.292-.19.52-.455.701-.783.174-.328.265-.738.265-1.203zm9.647 0h-1.503l-1.704 2.068-1.685-2.068h-1.503v5.502h1.612v-3.188l1.494 1.85h.128l1.503-1.85v3.188h1.658zM105.66 204.18l3.353.008-1.14-1.449-3.224-.04 1.977-1.566-1.039-1.33-4.409 3.48 1.039 1.339 2.068-1.631-.738 3.316 1.266 1.63zm7.17 3.335-1.449-1.185-5.484 2.77 1.34 1.102 1.083-.583 1.886 1.54-.365 1.175 1.34 1.093zm-3.58 1.594 1.94-1.057-.665 2.105zm12.215 3.407-1.384-.674-2.478 1.138-.629-2.65-1.384-.675-2.45 5.056 1.475.71 1.421-2.923.556 2.368.118.053 2.196-1.02-1.421 2.924 1.53.747zm4.665 5.867-2.46-.62.282-1.166 2.287.574.273-1.102-2.286-.574.236-.993 2.405.592.265-1.093-4.036-1.011-1.34 5.457 4.11 1.029zm7.096.564c-.173-.455-.319-.756-.428-.91a1.8 1.8 0 0 0-.428-.401c.154-.067.3-.147.428-.229.118-.082.246-.218.364-.4.119-.191.191-.429.2-.71.019-.247-.036-.502-.154-.784-.11-.273-.31-.52-.602-.729-.282-.2-.656-.319-1.12-.346l-2.879-.173-.31 5.602 1.695.1.118-2.186.192.02c.19.007.355.033.473.091.119.053.237.173.356.347.118.181.255.455.4.829l.383 1.02 1.813.109zm-1.84-2.214c-.155.073-.447.1-.857.082l-.364-.026.073-1.348.355.02c.383.026.656.09.82.21.164.108.246.3.228.555-.01.255-.1.428-.255.51m7.388-2.769-1.85.273-1.658 5.93 1.713-.255.3-1.202 2.415-.355.61 1.057 1.713-.256zm-1.24 3.726.529-2.15 1.102 1.904zm8.946-6.03-5.466 1.967.456 1.285 1.94-.693 1.421 4 1.586-.574-1.422-4 1.94-.701zm7.051 1.193-2.195 1.266-.61-1.039 2.05-1.175-.575-.974-2.04 1.175-.52-.884 2.141-1.239-.574-.975-3.607 2.087 2.833 4.846 3.671-2.114zm3.498-8.718-1.257 1.13 2.086 2.313-4.245-.364-1.111 1.002 3.762 4.172 1.239-1.12-2.095-2.323 4.263.373 1.12-1.01zm7.197-2.077-1.503 2.05-.966-.711 1.394-1.904-.902-.674-1.394 1.904-.829-.61 1.458-1.995-.902-.674-2.46 3.37 4.51 3.334 2.505-3.416zM117.876 146.79l-1.375.683 2.414 5.047 1.375-.683zm5.484.929-2.496.911.437 1.275 2.496-.91zm2.715-3.598-1.494.364 1.211 5.475 1.494-.356zm5.11 2.159-2.632.318.145 1.349 2.624-.328zm3.508-2.897-1.53-.007-.12 5.639h1.531zm6.777 2.131a2.1 2.1 0 0 0-.282-.765 2 2 0 0 0-.592-.62 2.6 2.6 0 0 0-.911-.336 2.4 2.4 0 0 0-.893.02 2.3 2.3 0 0 0-.765.337c-.219.164-.41.355-.547.573a1.9 1.9 0 0 0-.282.72c-.064.346-.037.674.073.975.109.31.291.556.537.756a1.8 1.8 0 0 0 1.22.393q-.585.613-1.675 1.267l1.284.683a7 7 0 0 0 1.34-.857 4.6 4.6 0 0 0 .992-1.074q.383-.591.492-1.221c.055-.282.055-.565.009-.847m-1.54.747a.7.7 0 0 1-.282.255.7.7 0 0 1-.455.053.82.82 0 0 1-.456-.265c-.118-.154-.155-.346-.11-.6a.9.9 0 0 1 .137-.338.7.7 0 0 1 .292-.264.66.66 0 0 1 .437-.053c.21.04.365.137.474.31.1.173.137.364.091.583a.8.8 0 0 1-.127.319m5.766 2.514a2 2 0 0 0-.4-.665c.145-.027.29-.082.445-.173a1.5 1.5 0 0 0 .42-.338 1.3 1.3 0 0 0 .264-.436c.072-.192.081-.429.036-.693a1.54 1.54 0 0 0-.392-.765q-.317-.369-.92-.574a2.8 2.8 0 0 0-.774-.155 6 6 0 0 0-.783.007l-.356 1.03c.2-.066.41-.091.62-.091q.325-.01.583.082a.68.68 0 0 1 .419.346.62.62 0 0 1-.137.738.7.7 0 0 1-.337.164c-.146.04-.3.02-.474-.047l-.2-.066-.3.857.163.066a.93.93 0 0 1 .437.255c.119.1.192.219.228.355a.65.65 0 0 1-.027.392.5.5 0 0 1-.182.273.76.76 0 0 1-.337.145.9.9 0 0 1-.446-.046 1.5 1.5 0 0 1-.592-.373 3 3 0 0 1-.438-.565l-.419 1.202c.182.183.42.355.72.538a3.8 3.8 0 0 0 .838.419c.191.066.392.1.61.11q.34.027.665-.074c.228-.066.428-.182.602-.337.182-.164.318-.383.419-.665.118-.364.136-.665.045-.92m6.049.793a2.2 2.2 0 0 0-.046-.83 1.8 1.8 0 0 0-.392-.765 2.3 2.3 0 0 0-.765-.592 2.3 2.3 0 0 0-.848-.255 2 2 0 0 0-.82.1 2.1 2.1 0 0 0-.692.383c-.2.173-.355.374-.483.601a1.96 1.96 0 0 0-.218.966c.018.328.118.62.291.874.173.265.401.465.693.62.136.066.246.109.346.127-.483.283-1.139.52-1.959.72l1.02 1.03a6.5 6.5 0 0 0 1.53-.41 4.8 4.8 0 0 0 1.249-.747c.364-.292.638-.63.838-1.012.128-.264.219-.537.255-.81m-1.685.255a.7.7 0 0 1-.346.154.7.7 0 0 1-.447-.082.8.8 0 0 1-.355-.392c-.073-.173-.046-.382.073-.61a.8.8 0 0 1 .218-.273.76.76 0 0 1 .365-.174c.137-.02.282 0 .437.082.182.092.3.237.346.437a.8.8 0 0 1-.073.583.9.9 0 0 1-.218.273" style="fill:#fff;fill-opacity:1;fill-rule:nonzero;stroke:none;stroke-width:2.33206" transform="translate(-91.194 -139.575)"/></svg>