<svg xmlns="http://www.w3.org/2000/svg" width="86.1875pt" height="93.519531pt" version="1.2" viewBox="0 0 86.187503 93.51953"><defs><clipPath id="a"><path d="M29.004.004h86.187v93.52H29.004Zm0 0"/></clipPath></defs><g clip-path="url(#a)" style="clip-rule:nonzero" transform="translate(-29.004 -.004)"><path d="m72.094 93.523-.239-.027c-1.293-.156-2.074-1.223-2.949-4.144H29.004V6.164a6.18 6.18 0 0 1 6.172-6.16h73.84a6.18 6.18 0 0 1 6.175 6.172v83.176H75.29c-.879 2.921-1.66 3.988-2.953 4.144z" style="fill:#fff;fill-opacity:1;fill-rule:nonzero;stroke:none"/></g><path d="m60.41 36.883-7.945-17.27s2.23-4.816 6.105-4.816h.946v-4.723h-.946s-3.484 0-6.05 2.45c-2.59 2.476-5.07 7.445-5.07 7.445l-1.376 2.476v-5.078c0-4.254.485-7.039.485-7.039h-7.29s.485 2.781.485 7.04v13.929c0 4.254-.484 7.039-.484 7.039h7.289s-.485-2.785-.485-7.04v-.16l2.59-4.663s2.45 4.824 4.918 11.863h7.785c-.234 0-.957-1.453-.957-1.453M69.676 25.707h2.004c3.11 0 5.035 1.617 5.035 4.211 0 2.637-1.375 4.605-3.227 4.605h-3.812zm.035-11.602h2.36c2.128 0 3.695 1.454 3.695 3.461 0 2.438-1.41 4.012-3.54 4.012h-2.515zm-6.664 24.23h12.398c.54-.046 1.032-.097 1.461-.16 1.504-.23 3.153-1.1 4.254-2.198 1.38-1.38 2.086-3.145 2.086-5.188 0-2.363-.906-4.254-2.601-5.633-1.06-.867-1.844-1.215-3.887-1.691v-.074c1.652-.434 2.277-.75 3.101-1.461 1.493-1.22 2.246-2.946 2.246-5.27 0-3.77-3.46-6.332-8.539-6.332h-10.52s.345 1.977.45 5.14v17.727c-.105 3.164-.45 5.14-.45 5.14" style="fill:#0a213f;fill-opacity:1;fill-rule:nonzero;stroke:none" transform="translate(-29.004 -.004)"/><path d="m83.707 36.883 7.941-17.27s-2.23-4.816-6.105-4.816h-.945v-4.723h.945s3.488 0 6.05 2.45c2.59 2.476 5.071 7.445 5.071 7.445l1.375 2.476v-5.078c0-4.254-.484-7.039-.484-7.039h7.293s-.485 2.781-.485 7.04v13.929c0 4.254.485 7.039.485 7.039h-7.293s.484-2.785.484-7.04v-.16l-2.586-4.667S93 31.297 90.535 38.336h-7.789c.238 0 .961-1.453.961-1.453M85.434 66.797c.187.379.425.734.726 1.05 1.965 2.067 5.633 1.77 8.195-.663 2.563-2.434 3.051-6.082 1.09-8.149-.8-.844-1.89-1.297-3.074-1.367-2.601 2.648-5.27 5.836-6.937 9.129M49.836 67.184c2.562 2.433 6.23 2.73 8.195.664q.45-.476.73-1.051c-1.667-3.293-4.34-6.48-6.94-9.129-1.184.07-2.27.523-3.075 1.367-1.96 2.067-1.473 5.715 1.09 8.149M48.707 45.938c2.512.996 14.594 6.601 22.68 20.425 0 0 .574.969.707.969.136 0 .71-.969.71-.969 8.087-13.824 20.173-19.43 22.68-20.425 1.97-.786.301-.934.301-.934-8.367-.824-12.074 1.383-12.074 1.383-4.707-2.266-11.617-2.114-11.617-2.114s-6.903-.152-11.614 2.114c0 0-3.707-2.207-12.074-1.383 0 0-1.664.148.301.934" style="fill:#0a213f;fill-opacity:1;fill-rule:nonzero;stroke:none" transform="translate(-29.004 -.004)"/><path d="M109.016 83.184h-4.145V60.762s.215-4.66-4.816-9.809c0 0-2.594 1.887-5.711 4.8a6 6 0 0 1 2.82 1.65c2.688 2.831 2.02 7.831-1.492 11.167s-8.54 3.743-11.227.91c-.035-.035-.062-.066-.093-.101l-.004.012s-.614.046-.993.476c-.382.43-.574 1.149-.703 1.688s-.277 1.129-.46 1.078c-.188-.051 3.742 1.187 6.777 3.16s7.875 5.992 9.96 6.941l.825.45H75.156c3.223-8.606 11.516-25.774 29.43-36.551 0 0 .02-.016.117-.074.098-.059.598-.395.36-.957-.235-.563-1.008-.672-1.602-.563 0 0-7.555 1.195-15.133 6.91-7.574 5.715-12.504 12.86-15.234 17.813 0 0-.473.828-1 1.37-.52-.542-.996-1.37-.996-1.37-2.73-4.953-7.657-12.098-15.235-17.813-7.574-5.715-15.129-6.91-15.129-6.91-.597-.11-1.37 0-1.605.563-.238.562.266.898.36.957.097.058.12.074.12.074 17.914 10.777 26.207 27.945 29.426 36.55H44.441l.82-.449c2.083-.949 6.93-4.968 9.962-6.941 3.035-1.973 6.968-3.211 6.78-3.16s-.331-.54-.46-1.078c-.129-.54-.324-1.258-.707-1.688s-.992-.476-.992-.476c0-.004-.004-.008-.004-.012l-.09.101c-2.687 2.832-7.719 2.426-11.23-.91s-4.18-8.336-1.493-11.168a6 6 0 0 1 2.82-1.648c-3.117-2.914-5.706-4.8-5.706-4.8-5.036 5.148-4.82 9.808-4.82 9.808v22.422h-4.145V6.176h73.84zm0-81.145h-73.84a4.14 4.14 0 0 0-4.14 4.137h-.005v81.152H70.43c.097.313.164.563.218.75.934 3.344 1.446 3.406 1.446 3.406s.52-.062 1.449-3.406c.055-.187.125-.437.219-.75h39.394V6.184a4.14 4.14 0 0 0-4.14-4.145" style="fill:#0a213f;fill-opacity:1;fill-rule:nonzero;stroke:none" transform="translate(-29.004 -.004)"/></svg>