<svg xmlns="http://www.w3.org/2000/svg" xml:space="preserve" width="300" height="160" style="enable-background:new 0 0 300 160"><path fill="#0468AF" d="M300 79.668C300 50.043 229.598.026 150.076 0h-.06C70.636.026.35 49.86.095 79.506H0c0 29.625 70.402 79.642 149.924 79.667h.06c79.379-.025 149.665-49.86 149.92-79.505H300z" class="st0"/><path fill="#FFF" fill-rule="evenodd" d="M292.703 79.162c0-22.438-49.032-58.949-105.89-71.114 4.613 4.33 9.962 12.18 12.615 16.27 42.012 12.432 79.178 38.21 80.22 54.358 0 16.099-36.988 42.556-82.041 55.449l6.632 10.692c50.399-14.656 88.29-45.25 88.464-65.655zm-285.948.474C6.43 57.296 55.212 20.856 112.6 8.412c-4.612 4.331-9.962 12.181-12.615 16.27-42.012 12.432-79.001 38.25-80.043 54.399 0 16.098 36.988 42.556 82.042 55.449 0 0-.076 8.319-.076 12.448C55.212 135.44 7.11 103.874 6.755 79.636z" class="st1" clip-rule="evenodd"/><path fill="#FFF" d="M39.871 87.657h-4.736V76.485h-3.722V72.63c2.512-.054 4.336-1.086 4.86-4.401h3.598v19.429zm8.785-10.197c-1.19 0-2.012-1.034-2.012-2.558 0-1.633.708-2.667 2.103-2.667 1.144 0 2.15 1.088 2.15 2.476 0 1.497-.618 2.694-2.241 2.749zm-6.362 5.545c.683 3.88 3.553 5.048 6.568 5.048 4.48 0 7.039-3.965 7.039-9.858 0-6.962-2.88-9.968-7.565-9.968-3.628 0-6.429 2.085-6.429 6.756 0 2.749 1.685 6.206 5.422 6.206 1.541 0 2.5-.327 3.779-1.389.023 2.5-.708 4.397-2.466 4.397-.936 0-1.667-.46-1.918-1.517l-4.43.325zm21.397-14.898-4.928 22.008H55.89l4.928-22.008h2.874zm8.1 10.683c1.189 0 2.013 1.034 2.013 2.558 0 1.633-.71 2.667-2.104 2.667-1.144 0-2.15-1.089-2.15-2.476 0-1.497.617-2.694 2.241-2.749zm6.362-5.514c-.683-3.881-3.552-5.049-6.568-5.049-4.48 0-7.039 3.965-7.039 9.856 0 6.962 2.879 9.97 7.565 9.97 3.628 0 6.429-2.087 6.429-6.76 0-2.748-1.685-6.201-5.423-6.201-1.54 0-2.5.326-3.778 1.387-.023-2.498.708-4.396 2.466-4.396.936 0 1.666.46 1.918 1.518l4.43-.325zm151.294 14.445h-4.736V76.55h-3.722v-3.856c2.511-.054 4.336-1.086 4.86-4.401h3.598V87.72zm8.785-10.197c-1.19 0-2.013-1.033-2.013-2.558 0-1.632.71-2.667 2.104-2.667 1.144 0 2.15 1.089 2.15 2.477 0 1.497-.618 2.694-2.241 2.748zm-6.362 5.545c.683 3.881 3.553 5.049 6.568 5.049 4.48 0 7.039-3.965 7.039-9.858 0-6.962-2.88-9.968-7.565-9.968-3.628 0-6.429 2.085-6.429 6.756 0 2.749 1.685 6.205 5.422 6.205 1.541 0 2.5-.326 3.779-1.388.023 2.5-.708 4.397-2.466 4.397-.936 0-1.667-.461-1.918-1.518l-4.43.325zm23.514 4.652h-4.737V76.55h-3.721v-3.856c2.511-.054 4.336-1.086 4.86-4.401h3.598V87.72zm10.136 0h-4.736V76.55h-3.721v-3.856c2.511-.054 4.336-1.086 4.86-4.401h3.598V87.72zm-72.786-8.556-16.068 31.603 23.395 35.634-14.068 3.626s-12.828-22.477-16.09-26.245l-5 9.748-.087 18.871h-14.492V78.968h14.492l.046 29.93 12.327-29.733h15.545zm-48.943-.182v14.33H121.87v13.966h19.432v12.145H121.87l-.06 30.986-14.088-2.267-.061-69.16z" class="st2"/><path fill="#FFF" d="M176.897 7.588c-8.577-1.177-13.374-1.481-13.374-1.481l-13.477 22.941-13.299-23.135s-4.797.304-13.375 1.481c0 0-30.977 22.758-35.916 71.574h15.788s7.087-42.23 26.399-54.332l20.403 30.179 20.581-29.986C189.94 36.931 197 78.97 197 78.97h15.667c-5.024-49.656-35.769-71.38-35.769-71.38z" class="st2"/></svg>