<svg xmlns="http://www.w3.org/2000/svg" width="1000.1562" height="589.83594" version="1.0" viewBox="-1.4482501 -1.4482501 81.862401 48.292465"><path d="m-.728 31.408 39.875-14.36L79.68 31.471 39 46.57Z" style="fill:#fff;fill-opacity:1;fill-rule:nonzero;stroke:none"/><path d="m-.728 31.408 39.875-14.36L79.68 31.471 39 46.57Z" style="fill:#fff;fill-opacity:1;fill-rule:nonzero;stroke:none"/><path d="m-.728 31.408 39.875-14.36L79.68 31.471 39 46.57Z" style="fill:none;stroke:#000;stroke-width:.50999999;stroke-linecap:butt;stroke-linejoin:miter;stroke-miterlimit:4;stroke-dasharray:none;stroke-opacity:1"/><path d="m3.791 31.628 35.283-13.05 35.993 12.946-35.993 13.37z" style="fill:#000;fill-opacity:1;fill-rule:nonzero;stroke:none"/><path d="M35.139 20.838v21.87l3.935 1.459 3.718-1.314V20.765l-3.718-1.385zM29.16 28.603v3.135s.911.254 1.459-.33c.546-.583.51-.764.51-1.421 0-.656-.51-1.384-1.97-1.384m.912-.985c-.036 0 2.296.073 2.296 2.259 0 2.187-1.093 2.589-1.093 2.589l1.093 3.863h-1.383l-.913-3.025c-.584-.838-.949.073-.949.073v2.99H27.74v-8.749ZM23.32 33.16a1.069 1.069 0 1 0 0-2.139 1.07 1.07 0 1 0 0 2.139" style="fill:#fff;fill-opacity:1;fill-rule:nonzero;stroke:none"/><path d="M38.527 32.174v2.88s-.108.33.73.255c.838-.073 1.24-.84 1.203-1.677-.038-.839-.474-1.604-1.676-1.568 0 0-.257-.036-.257.11m0-3.57v2.33s1.604.51 1.53-1.31c0 0-.18-1.422-1.53-1.02m-1.53-.876h2.405c.475 0 2.297.365 2.297 1.895 0 1.531-.948 2.078-.948 2.078 1.276.363 1.421 1.858 1.421 1.858-.036 2.298-1.82 2.734-3.717 2.77-1.895.038-1.749-.218-1.749-.218v-8.202c-.036-.218.29-.18.29-.18" style="fill:#000;fill-opacity:1;fill-rule:nonzero;stroke:none"/><path d="M45.564 27.58v8.787h1.42v-3.719c0 .036 2.187 3.719 2.187 3.719h1.676l-2.66-4.849 2.552-3.864h-1.35l-2.223 3.207v-3.28zM54.857 33.244a1.07 1.07 0 1 0 .001-2.139 1.07 1.07 0 0 0 0 2.14M14.521 34.34h-.987v-3.07h-.837v-.743c.325.036.485-.029.72-.208.223-.171.237-.303.265-.528h.84zM17.859 31.87a.684.684 0 0 0 .218-.476c0-.313-.112-.628-.226-.731a.761.761 0 0 0-.579-.199.846.846 0 0 0-.586.277.866.866 0 0 0-.182.537c0 .188.048.43.232.604a.81.81 0 0 0 1.123-.013m-1.207 1.405c-.036.18.113.507.677.507.31 0 .522-.2.622-.43.098-.244.21-.642.105-.885a1.09 1.09 0 0 1-.515.34 1.035 1.035 0 0 1-.332.057c-.113 0-.24-.006-.382-.024a1.4 1.4 0 0 1-1.037-.758 1.662 1.662 0 0 1-.168-.704c0-.328.063-.656.217-.906a1.61 1.61 0 0 1 1.377-.763c1.695 0 1.849 1.616 1.849 2.154 0 .707-.154 1.47-.389 1.862-.422.712-1.157.763-1.487.763-1.187 0-1.554-.923-1.504-1.213zM60.754 34.31h-.99v-3.07h-.834v-.742c.324.037.485-.028.717-.207.224-.17.24-.304.268-.528h.839zM62.092 29.768v.784h1.732l-2.187 3.774h1.13l2.552-4.558z" style="fill:#fff;fill-opacity:1;fill-rule:nonzero;stroke:none"/><path d="m27.926 4.415 2.04-5.863 2.038 5.865 6.206.128-4.946 3.75 1.796 5.943-5.096-3.547-5.097 3.544 1.8-5.942-4.947-3.75zM46.066 4.415l2.039-5.863 2.037 5.865 6.207.128-4.948 3.75 1.795 5.943-5.094-3.547-5.096 3.544 1.799-5.942-4.948-3.75z" style="fill:#8d6b36;fill-opacity:1;fill-rule:nonzero;stroke:none"/></svg>