<svg xmlns="http://www.w3.org/2000/svg" width="119.10609pt" height="129.70108pt" version="1.2" viewBox="0 0 119.10609 129.70108"><defs><clipPath id="a"><path d="M11.152 6.027h119.11V135.73H11.152Zm0 0"/></clipPath></defs><path d="M70.785 135.496c3.758 0 9.32-3.062 14.992-7.176 17.567-12.836 44.246-43.183 44.246-81.156 0-6.473-.757-13.047-2.464-19.824l-.649-2.707h-2.902c-.906 0-1.664 0-2.41.055-.602 0-1.16.05-1.707.05h-4.168c-.25 0-.453-.05-.649-.05h-4.012l.348-3.715v-1.399c0-.656-.05-1.715-.347-2.77-.301-.894-1.102-2.702-3.41-3.156-1.462-.304-3.716-.757-6.43-1.25-1.649-.304-3.5-.652-5.407-1.054-.21-.051-.414-.106-.609-.106-.254-.05-.453-.093-.652-.144-.797-.149-1.657-.305-2.453-.453C83.273 8.934 73.89 7.18 71.586 6.527l-.906-.254-.907.254c-2.304.653-11.687 2.407-20.52 4.114l-2.448.453c-.2.05-.399.094-.653.144-.199 0-.398.055-.601.106-1.914.402-3.766.75-5.418 1.054-2.715.493-4.965.946-6.43 1.25-2.305.454-3.101 2.262-3.406 3.157-.297 1.054-.348 2.113-.348 2.77v1.398l.348 3.715h-4.012c-.2 0-.398.05-.652.05H21.52c-.547 0-1.106-.05-1.704-.05-.761-.055-1.507-.055-2.41-.055H14.5l-.652 2.707a81.1 81.1 0 0 0-2.461 19.863c0 37.934 26.633 68.281 44.191 81.117 5.676 4.114 11.293 7.176 15.05 7.176zm0 0" style="fill:#fff;fill-opacity:1;fill-rule:nonzero;stroke:none" transform="translate(-11.152 -6.03)"/><g clip-path="url(#a)" style="clip-rule:nonzero" transform="translate(-11.152 -6.03)"><path d="M0 0c3.758 0 9.32 3.062 14.992 7.175C32.56 20.011 59.238 50.36 59.238 88.332c0 6.472-.758 13.046-2.465 19.824l-.648 2.707h-2.902c-.907 0-1.664 0-2.41-.055-.602 0-1.16-.05-1.708-.05h-4.168c-.25 0-.453.05-.648.05h-4.012l.348 3.715v1.398c0 .657-.05 1.715-.348 2.77-.3.894-1.101 2.703-3.41 3.156-1.46.305-3.715.758-6.43 1.25-1.648.305-3.5.653-5.406 1.055-.21.05-.414.105-.61.105-.253.051-.452.094-.652.145l-2.453.453c-8.828 1.707-18.21 3.46-20.515 4.113l-.907.254-.906-.254c-2.304-.652-11.687-2.406-20.52-4.113l-2.449-.453c-.199-.051-.398-.094-.652-.145-.2 0-.398-.054-.601-.105-1.914-.403-3.766-.75-5.418-1.055a256.964 256.964 0 0 1-6.43-1.25c-2.305-.453-3.102-2.262-3.406-3.156-.297-1.055-.348-2.113-.348-2.77v-1.398l.348-3.715H-44.5c-.2 0-.398-.05-.652-.05h-4.114c-.547 0-1.105.05-1.703.05-.762.055-1.508.055-2.41.055h-2.906l-.653-2.707a81.1 81.1 0 0 1-2.46-19.864c0-37.933 26.632-68.28 44.19-81.117C-9.53 3.062-3.913 0-.155 0zm0 0" style="fill:none;stroke:#000;stroke-width:.47;stroke-linecap:butt;stroke-linejoin:miter;stroke-miterlimit:4;stroke-opacity:1" transform="matrix(1 0 0 -1 70.785 135.496)"/></g><path d="M70.82 9.906c-4.261 1.149-29.242 5.77-36.312 7.168-2.317.504 1.05 11.09-1.36 11.09-6.976 0-5.925.148-15.699 0C2.95 85.855 59.434 131.797 70.82 131.902h.157V9.95c-.051-.043-.106-.043-.157-.043" style="fill:#bf142e;fill-opacity:1;fill-rule:nonzero;stroke:none" transform="translate(-11.152 -6.03)"/><path d="M123.965 28.078c-9.785.149-8.735 0-15.7 0-2.41 0 .95-10.586-1.41-11.09-6.964-1.398-31.546-5.914-36.164-7.125v121.953c11.688-.453 67.72-46.296 53.274-103.738" style="fill:#025191;fill-opacity:1;fill-rule:nonzero;stroke:none" transform="translate(-11.152 -6.03)"/><path d="m24.695 62.133 1.051-.254.254 1.105.453-.105-.254-1.106.906-.199.305 1.106.453-.098-.453-1.805-3.316.797.453 2.008.453-.105ZM37.637 88.668c-.2-.305-.051-.61.254-.809.347-.242.746-.242.945.051.16.305.105.656-.297.856-.398.25-.703.199-.902-.098m1.156.812c.61-.398.812-1.054.36-1.757-.454-.707-1.212-.707-1.61-.45-.508.301-.652.903-.297 1.45.149.25.242.359.402.453-.507.144-1.253-.055-1.664-.602l-.347.2c.758.96 2.156 1.304 3.156.706M39.941 92.133c-.199-.254-.054-.61.254-.813.344-.242.746-.242.946.055.21.25.156.598-.243.852-.398.25-.703.199-.957-.094m1.2.742c.609-.398.757-1.05.304-1.754-.504-.695-1.25-.652-1.652-.398-.453.355-.61.957-.2 1.504.15.199.243.355.403.398-.508.156-1.254 0-1.707-.492l-.305.195c.801.95 2.211 1.254 3.157.547M26.754 69.602c-.145-.399.203-.704.613-.852.547-.2.946-.105 1.051.293.148.36-.2.656-.61.812-.398.094-.894.149-1.054-.253m1.297.906c.504-.2 1.062-.707.812-1.453a1.174 1.174 0 0 0-.656-.61l1.402-.496-.203-.597L26 68.55l.254.597.25-.093c-.106.254-.2.496-.106.8.254.653 1 .852 1.653.653M30.406 70.16l-3.355 1.25.199.606 3.36-1.254zM42.656 94.195c-.199.145-.496.094-.695.04-.05-.243-.106-.598.148-.747.25-.199.504-.148.653.055.199.25.093.547-.106.652m-1.304 1.145c-.254.2-.602.2-.801-.106-.25-.293-.145-.597.097-.796.305-.254.606-.204.852-.098.05.242.156.75-.148 1m1.703-1.969c-.399-.547-.903-.797-1.356-.441-.347.242-.347.601-.308.894-.293-.144-.797-.293-1.196 0-.453.36-.453 1.012 0 1.61.453.601 1.102.851 1.598.507.41-.359.305-.957.25-1.265.254.16.762.254 1.012.054.453-.347.402-.855 0-1.359M35.078 86.953c-.2-.242.106-.691.852-1.148.707-.399 1.215-.45 1.36-.2.198.297-.106.696-.759 1.149-.797.453-1.304.504-1.453.2m1.813.37c.652-.36 1.254-1.16.8-1.906-.453-.758-1.457-.61-2.105-.2-.957.548-1.305 1.4-.906 2 .36.598 1.25.704 2.21.106M32.922 83.3c-.149-.292.16-.69.957-1.144.707-.36 1.2-.398 1.36-.105.144.304-.106.707-.813 1.05-.852.454-1.305.508-1.504.2m1.8.453c.704-.399 1.356-1.145.907-1.902-.402-.801-1.41-.653-2.106-.293-.957.543-1.359 1.347-1.011 1.941.36.656 1.261.762 2.21.254M34.332 79.398l-.758-.652-.25.242.555.504-2.66 1.36.304.597 3.051-1.554zM25.348 65.09c-.055-.203.054-.348.449-.453l1.16-.348.148.598.348-.051-.203-.652.707-.149-.297-.597-.555.144-.097-.344-.305.094.05.36-1.3.343c-.508.149-.707.453-.558.957a1.2 1.2 0 0 0 .304.551l.305-.148c-.05-.106-.156-.16-.156-.305M30.46 77.336l1.106-.504.305.547.293-.094-.293-.601.652-.305-.398-.547-.508.242-.148-.293-.305.149.148.3-1.253.602c-.454.2-.598.504-.399 1 .106.2.254.398.399.504l.253-.2c-.05-.105-.144-.148-.199-.253-.105-.2 0-.399.348-.547M30.715 75.434c.05.093.05.199.05.293l.497.054c.105-.148.105-.347.05-.508-.093-.148-.296-.199-.453-.253l-.199-.04.356-.16-.25-.597-2.211.957.254.601 1.105-.453c.492-.254.746-.098.8.106M25.852 66.645c-.055-.149.05-.305.253-.399.243-.05.493.055.649.305l.246.297c-.695.25-1.098.05-1.148-.203m1.507.757c.703-.199.703-.757.555-1.207-.105-.297-.254-.601-.61-.8l-.199.304c.157.094.36.254.41.547.04.2 0 .399-.21.504l-.348-.504c-.305-.453-.652-.703-1.105-.601-.45.148-.602.55-.493.906.043.199.243.398.438.496l.16.105c-.105.051-.25.094-.305.2l.2.652a1.29 1.29 0 0 1 .558-.305zM29.926 72.918c.094.293-.055.492-.41.598l-.348-.852c.305-.144.598-.105.758.254m-1.613.8c-.157-.347.054-.8.496-.956l.609 1.46c.695-.199 1.105-.757.852-1.46-.25-.657-.903-.95-1.61-.696-.746.293-1.05.996-.746 1.704.094.253.293.546.602.8l.25-.304a1.18 1.18 0 0 1-.453-.547M37.941 90.973c-.101-.149-.304-.2-.504-.106-.148.16-.199.36-.097.559.097.148.351.199.5.05.195-.101.195-.3.101-.503M33.734 84.848c-.203.105-.254.359-.148.558.094.149.348.2.496.094.2-.094.25-.293.156-.492-.105-.16-.36-.254-.504-.16" style="fill:#000;fill-opacity:1;fill-rule:nonzero;stroke:none" transform="translate(-11.152 -6.03)"/><path d="M91.813 108.984c4.3-3.722 8.652-8.96 13.304-16.02 4.64-7.034 5.91-12.655 5.91-16.702 0-4.45-1.535-6.985-1.797-7.387-.332-.723-1.066-1.164-1.625-1.328-.562-.16-1.07-.094-1.433.183-.29.22-.563.625-1.059 1.364-1.008 1.504-2.883 4.3-6.25 7.172-4.023 3.41-18.761 9.691-25.054 12.379l-3.141 1.367c-1.797.863-1.945 2.566-1.762 3.441.004.129.008.39.012.54-.094-.118-.258-.317-.34-.419-.437-.781-1.664-1.969-3.598-1.449 0 .004-3.261 1.02-3.261 1.02-6.489 2.078-21.649 6.933-26.985 7.027.383.531.766 1.062 1.157 1.582 6.246-.602 19.66-4.895 26.332-7.035l3.175-.992c1.165-.317 1.665.515 1.754.687l.04.078.058.074 3.434 4.168V98.7l.02.043v-6.648c.132-.219.343-.434.694-.602l3.059-1.328c6.902-2.941 21.262-9.066 25.477-12.64 3.543-3.02 5.5-5.942 6.55-7.508.227-.336.47-.696.614-.875.207.035.566.234.644.441l.035.094.055.086c.031.039 1.496 2.3 1.496 6.508 0 3.765-1.172 9.093-5.59 15.785v.004c-4.609 6.992-8.906 12.156-13.125 15.785l-.109.09-.07.12a12.993 12.993 0 0 0-1.723 6.458c0 1.402.234 2.957.832 4.629.445-.395.89-.801 1.344-1.215a12.04 12.04 0 0 1-.516-3.422c0-2.559.856-4.492 1.442-5.52M70.895 130.734c-.075-.394-.149-.808-.23-1.242-1.395-7.476-6.571-10.035-8.731-10.789l-.133-.043h-.145c-3.472.02-7.363-.402-11.758-1.27a108.43 108.43 0 0 0 2.325 2.098c3.382.555 6.46.828 9.28.824 1.946.704 6.321 2.977 7.536 9.48.047.247.086.478.129.716.578.156 1.086.238 1.512.25.066-.004.144-.02.215-.024" style="fill:#fff;fill-opacity:1;fill-rule:nonzero;stroke:none" transform="translate(-11.152 -6.03)"/><path d="M117.902 80.344c-13.246 30.547-40.476 50.215-47.203 50.265-6.773-.105-33.965-19.761-47.199-50.21-4.371-10.04-7.18-21.223-7.18-33.114 0-5.715.653-11.586 2.106-17.605 2.61.054 4.367.054 5.765.054 1.41 0 2.41 0 3.461-.054h5.328c2.352 0 2.301-2.957 2.301-3.715 0-.945-.093-2.156-.199-3.207-.102-1.156-.2-2.211-.2-3.106 0-.609.052-.957.098-1.156 2.461-.508 6.72-1.305 11.54-2.262 9.335-1.757 20.773-3.914 24.18-4.808 3.41.894 14.847 3.05 24.183 4.808 4.805.957 9.082 1.754 11.531 2.262.05.2.102.547.102 1.156 0 .895-.102 1.95-.2 3.106-.101 1.05-.199 2.262-.199 3.207 0 .758-.055 3.715 2.305 3.715h5.316c1.102.054 2.114.054 3.516.054 1.351 0 3.152 0 5.762-.054a73.65 73.65 0 0 1 2.117 17.562c0 11.88-2.809 23.074-7.23 33.102m7.574-52.422-.305-1.05h-1.05c-3.263.054-5.313.105-6.868.105-1.402 0-2.414 0-3.465-.051-1.25 0-2.61-.055-4.863-.055 0-.148-.047-.453-.047-.906 0-.797.101-1.852.2-2.953.1-1.11.194-2.305.194-3.36 0-.863 0-3.418-2-3.82-2.406-.492-6.882-1.355-11.89-2.305-9.785-1.851-21.57-4.113-24.336-4.87l-.348-.095-.347.094c-2.766.758-14.551 3.02-24.325 4.871-5.02.95-9.492 1.813-11.89 2.305-2.012.402-2.012 2.957-2.012 3.82 0 1.055.094 2.25.2 3.36.105 1.101.202 2.156.202 2.953 0 .453-.054.758-.054.906-2.254 0-3.61.055-4.809.055-1.105.05-2.062.05-3.46.05-1.56 0-3.622-.05-6.872-.105H16.27l-.297 1.05c-1.649 6.622-2.407 13.09-2.407 19.364 0 36.977 26.082 66.774 43.34 79.356 5.672 4.168 10.73 6.726 13.793 6.777 3.063-.05 8.125-2.61 13.797-6.777 17.309-12.582 43.39-42.434 43.39-79.399 0-6.27-.753-12.699-2.41-19.32" style="fill:#000;fill-opacity:1;fill-rule:nonzero;stroke:none" transform="translate(-11.152 -6.03)"/><path d="m71.77 41.148-2.555 1.489-.957 1.488-.211 4.254 2.766 1.809 1.914-.532Zm0 0" style="fill:#025191;fill-opacity:1;fill-rule:nonzero;stroke:none" transform="translate(-11.152 -6.03)"/><path d="M73.293 44.086c-.055 1.223-1.227 1.805-3.395 1.75.325-1.54 1.012-2.766 2.286-2.863.746 0 1.168.476 1.109 1.113m10.773-2.707h-2.382l.265-1.492c.156-.793.844-1.325 1.485-1.325.207 0 .472 0 .742.055.054.946.746 1.903 1.96 1.903 1.114 0 2.395-.79 2.395-2.594 0-.746-.691-1.914-2.074-1.914-.477 0-.957.156-1.32.476a6.937 6.937 0 0 0-2.13-.32c-2.128 0-4.566 1.281-5.105 4.086l-.21 1.125h-1.59l-.157.902c-.691-.855-2.015-1.226-3.453-1.226a7.15 7.15 0 0 0-2.762.59v.011l-.156.114v-.055c-2.11.96-4.035 3.035-4.144 6.613 0 1.492.902 4.356 3.879 4.356 2.222 0 4.351-.848 5.945-1.75l-.848-1.758c-1.011.476-1.8.902-2.875.902-2.066 0-1.902-1.906-1.855-2.387 3.238.102 6.804-1.277 6.804-3.66 0-.215 0-.426-.054-.636h.898l-1.703 9.02h3.988l1.696-9.02h2.18l-1.75 9.175c-.212 1.125-.645 1.973-.801 2.395-.266.426-.747.902-1.227.96l-.363 2.016c3.773 0 5.68-1.918 6.426-5.625l2.07-10.937zM114.86 44.719c-.215 4.035-1.594 5.68-2.438 5.68-.961 0-1.227-.844-1.227-2.07 0-3.184 1.594-4.99 2.606-4.99.422 0 1.113.368 1.058 1.38m1.758-8.598-1.168 6.473h-.058c-.477-.957-1.32-1.54-2.649-1.54-3.11 0-5.527 3.227-5.722 6.86.015.016.03.031.043.047l-.055.473c.012 2.183.86 3.726 2.148 4.14l.512.102c.062.004.133.008.203.008 1.856 0 3.086-.903 3.93-1.438l-.211 1.168h3.988l3.016-16.293zM58.906 50.402c-.902 0-1.226-.847-1.226-2.074 0-3.183 1.593-4.988 2.605-4.988.426 0 1.16.367 1.113 1.379-.21 4.035-1.648 5.683-2.492 5.683m4.254-14.28-1.226 6.472h-.055c-.422-.957-1.324-1.54-2.652-1.54-3.184 0-5.735 3.508-5.735 7.333 0 2.593 1.172 4.297 2.863 4.297 1.915 0 3.141-.903 3.989-1.438l-.215 1.168h3.934l3.074-16.293zM37.398 44.719c-.21 4.035-1.593 5.68-2.449 5.68-.949 0-1.27-.844-1.27-2.07 0-3.184 1.594-4.99 2.653-4.99.434 0 1.113.368 1.066 1.38m.747-3.34-.211 1.215c-.48-.957-1.325-1.54-2.649-1.54-3.242 0-5.793 3.508-5.793 7.333 0 2.593 1.223 4.297 2.918 4.297 1.86 0 3.086-.903 3.93-1.438l-.211 1.168h3.93l2.117-11.035zM51.043 41.055c-1.324 0-2.973.793-4.254 2.34l-.047-.055.426-1.973h-3.934l-2.07 11.047h3.988l.903-4.93c.308-1.55.945-3.668 2.492-3.668.27 0 .734.157.793 1.059 0 .21 0 .426-.059.582l-1.27 6.957H52l1.324-7.113c.156-.746.211-1.328.211-1.864-.11-1.59-.8-2.382-2.492-2.382M94.055 43.082c.847 0 1.172 1.27 1.058 2.762-.21 4.933-2.02 4.879-2.285 4.879-1 0-1.324-1.27-1.324-2.973 0-1.805.848-4.668 2.55-4.668m-1.593 9.602c4.566 0 6.852-3.34 6.852-6.426 0-2.172-1.336-5.203-5.215-5.203-3.707 0-6.735 3.03-6.735 6.484 0 2.172 1.59 5.145 5.098 5.145" style="fill:#fff;fill-opacity:1;fill-rule:nonzero;stroke:none" transform="translate(-11.152 -6.03)"/><path d="M25.984 40.734c0-.425.48-1.425 1.703-1.425.692 0 1.227.097 1.86.421l1.383-1.972c-.961-.52-1.707-1.113-3.664-1.113-3.032 0-5.47 1.703-5.47 4.355 0 1.168.481 1.973 1.536 3.508 1.117 1.484 1.918 2.441 1.918 3.453 0 .957-.86 1.96-2.074 1.96-1.012 0-1.703-.366-2.45-.792l-1.48 2.074c.848.844 2.817 1.48 4.567 1.48 3.128 0 5.625-1.75 5.625-4.777 0-1.113-.637-2.55-1.75-3.988-1.223-1.59-1.704-2.438-1.704-3.184M107.273 41.055c-1.437 0-2.226 1.75-2.492 2.226l-.27.426h-.156l.47-2.34h-3.977l-2.07 11.047h3.984l.906-4.723c.04-.21.086-.41.137-.593l.02-.094c.003 0 .003 0 .01-.004.509-1.687 1.52-2.07 2.325-2.07.633 0 .848.156 1.113.215l1.86-3.243c-.477-.476-1.012-.847-1.86-.847M101.48 62.508c-.421 0-.73-.156-1.054-.535.265-2.864 1.437-4.09 2.281-4.09.535 0 .8.379.8 1.383 0 1.324-.687 3.242-2.027 3.242m1.864-5.625c-.793 0-1.54.367-2.23 1.168l.75-3.985h-1.493l-.23 1.204a.163.163 0 0 1 .02-.036l-.583 3.086-.023.04-.934 4.949h1.54l.05-.422c.371.363.902.578 1.441.578 2.493 0 3.45-2.649 3.45-4.242 0-1.809-.957-2.34-1.758-2.34M107.809 62.352c-.59 0-1.016-.536-1.016-1.325 0-2.23 1.328-3.132 1.96-3.132.59 0 .747.046 1.173.468-.27 3.242-1.383 3.989-2.117 3.989m3.921-5.313h-1.539l-.101.422c-.266-.422-.899-.578-1.434-.578-1.918 0-3.453 2.226-3.453 4.242 0 1.383.692 2.34 1.805 2.34.957 0 1.703-.535 1.914-.746l.312-.367-.21.957h1.546l.989-5.344a.954.954 0 0 1 .035-.192zM91.828 62.563c-.96 0-1.383-.747-1.383-1.918 0-1 .368-2.86 1.805-2.86.805 0 1.113.746 1.113 1.649 0 2.707-1.054 3.129-1.535 3.129m.512-5.68c-1.594 0-3.555 1.215-3.555 3.875 0 1.437 1.113 2.707 2.707 2.707 2.23 0 3.508-1.961 3.508-3.988 0-1.215-.742-2.594-2.66-2.594" style="fill:#fff;fill-opacity:1;fill-rule:nonzero;stroke:none" transform="translate(-11.152 -6.03)"/><path d="M89.957 57.035h-1.383l.211-1c.113-.8.649-.957.903-.957.218 0 .437.055.59.11l.425-.856c-.324-.21-.797-.266-1.113-.266-.848 0-2.07.586-2.399 2.239l-.097.73h-.903l-.156.86h.903l-1.012 5.414h1.48l1.016-5.414H89.8zM97.086 62.293l-.172-.313v-.32l.059-.422.023-.043c.012-.054.02-.11.031-.172l.692-3.14h1.152c.152-.285.297-.567.438-.848h-1.434l.32-1.902-1.547.367-.308 1.535h-.746l-.156.848h.789l-.692 3.355c-.367 1.649.27 2.227 1.324 2.227.536 0 1.07-.156 1.606-.426l-.164-.8c-.211.113-.426.21-.75.21-.09 0-.2-.012-.297-.066-.004.008-.012.015-.016.023zM114.012 63.309h1.48l1.762-9.243h-1.54zM112.16 60.121a2.092 2.092 0 0 0-.031-.125l-.613 3.313H113l1.762-9.243h-1.54l-.773 4.18c.012.024.02.047.028.07zm0 0" style="fill:#fff;fill-opacity:1;fill-rule:nonzero;stroke:none" transform="translate(-11.152 -6.03)"/></svg>