<svg xmlns="http://www.w3.org/2000/svg" xml:space="preserve" width="343.929781674" height="290.757024627" version="1.0" viewBox="0 0 708.6687 599.10602"><path d="m53.895 111.714-.008-11.112c-.006-.82-.561-1.491-1.307-1.491h-.15c-3.942.373-12.572 1.118-18.165 1.118-.895 0-1.725-.373-1.544-1.415.092-.524.629-1.046 2.762-2.164L46 91.056c5.676-3.056 8.48-7.605 9.258-12.08 2.501-14.392-8.727-20.582-21.629-20.582-6.413 0-11.801.971-15.974 2.238-.635.223-1.447.596-1.562 1.267l-.04.225.008 11.11c.007.822.636 1.491 1.457 1.491h.148c3.11-.298 11.109-1.266 16.03-1.266 1.715 0 3.002.745 2.68 2.61-.105.595-.581 1.193-1.992 2.014L23.19 84.569c-5.478 3.207-7.912 8.204-8.652 12.454-2.41 13.87 7.34 18.27 19.793 18.27 6.414 0 14.798-1.044 18.112-2.088.709-.224 1.297-.597 1.413-1.268l.027-.15.012-.073M106.82 97.843l-.094-37.211c-.007-.82-.785-1.492-1.606-1.492H90.58c-.746 0-1.285.522-1.401 1.193l-.039.225-.013.074.018 14.914H78.108l-.018-14.914c-.006-.82-.71-1.492-1.531-1.492h-14.54c-.225 0-.46.074-.624.15-.487.224-.761.522-.852 1.043l-.039.225-.013.074.096 37.211c.027 15.288 9.644 17.45 20.083 17.45h6.116c8.576 0 17.802-2.46 19.668-13.2.22-1.267.393-2.684.367-4.25zm-20.1 2.386h-6.116c-1.863 0-2.37-.521-2.418-2.386l-.08-8.128h11.038l.078 8.128c.01.372-.043.671-.082.895-.193 1.118-.93 1.491-2.42 1.491M160.798 96.724l-.04-1.49c-.27-9.173-4.855-12.828-8.596-14.468l10.242-19.464c.113-.223.153-.447.18-.595.168-.97-.624-1.567-1.295-1.567h-15.66c-.82 0-1.098.746-1.453 1.492l-8.862 17.524h-2.834l-.011-17.524c-.007-.82-.71-1.492-1.531-1.492h-14.54c-.747 0-1.36.522-1.489 1.268l-.039.224.11 47.428c.015 4.624 1.251 5.666 5.236 6.338 2.546.374 11.18.895 16.325.895 13.573 0 22.333-4.921 23.99-14.467.221-1.267.319-2.685.267-4.102zm-22.672 3.878h-5.593l-.009-9.396h5.593c3.729 0 5.107 1.94 5.131 3.953l.038 1.49c.01.374-.042.672-.093.971-.326 1.864-1.861 2.982-5.067 2.982M257.532 111.714l-.007-11.112c-.007-.82-.562-1.491-1.308-1.491h-.149c-3.943.373-12.574 1.118-18.167 1.118-.895 0-1.725-.373-1.542-1.415.09-.524.628-1.046 2.76-2.164l10.52-5.594c5.675-3.056 8.479-7.605 9.256-12.08 2.503-14.392-8.729-20.582-21.628-20.582-6.412 0-11.801.971-15.974 2.238-.635.223-1.446.596-1.563 1.267l-.039.225.01 11.11c.006.822.634 1.491 1.454 1.491h.149c3.11-.298 11.108-1.266 16.03-1.266 1.714 0 3.002.745 2.678 2.61-.104.595-.58 1.193-1.99 2.014l-11.194 6.486c-5.48 3.207-7.914 8.204-8.652 12.454-2.411 13.87 7.339 18.27 19.791 18.27 6.413 0 14.799-1.044 18.11-2.088.713-.224 1.299-.597 1.414-1.268.015-.073.015-.073.027-.15l.014-.073M213.19 95.83l.016-.522c.566-16.555-13.47-19.463-23.91-19.463-1.49 0-2.324.074-4.499.148l-.016-15.361c-.007-.82-.71-1.492-1.53-1.492h-14.318c-.671 0-1.394.298-1.512.97l-.038.223.131 47.727c.018 4.624 1.253 5.666 5.238 6.338 3.774.597 11.18.895 16.325.895 10.068 0 21.64-3.953 23.767-16.182.181-1.044.363-2.088.346-3.282zm-23.797 4.772h-4.549l-.04-10.067h4.548c3.803 0 6.514 1.567 6.404 4.773l-.015.521c.022.3-.03.598-.082.895-.478 2.76-2.837 3.878-6.266 3.878M309.74 98.962l-.018-1.194c-.09-4.622-1.807-8.053-5.16-10.216 2.561-1.864 4.702-5.593 5.273-8.874.103-.595.135-1.193.147-1.715l-.005-.82c-.099-15.735-13.1-17.749-25.253-17.749-2.686 0-10.915.15-14.998.895-3.158.597-4.57 1.418-5.008 3.952-.118.671-.125 1.566-.144 2.537l.048 42.207c.014 4.623 1.312 5.741 5.296 6.413 3.701.597 12.3.895 14.984.895 13.348 0 22.953-3.356 24.614-12.901.18-1.044.24-2.237.223-3.43zm-21.848-17.6h-6.118l-.036-8.798h6.116c3.952 0 5.23 2.087 5.227 4.25l-.003.448c.022.297-.043.67-.096.969-.336 1.938-1.735 3.132-5.09 3.132zm-.007 19.763h-6.113l.034-8.352h6.115c3.878 0 4.949 1.565 4.97 3.58l.017 1.193c.036.222-.002.447-.04.67-.274 1.566-1.626 2.91-4.983 2.91M362.431 90.088l.01-6.486c.021-20.286-11.429-25.208-23.808-25.208-10.812 0-20.808 5.593-23.141 19.016-.336 1.94-.463 3.953-.48 6.192l-.007 6.486c.005 20.134 11.429 25.205 23.808 25.205 10.812 0 20.793-5.518 23.126-18.94.336-1.94.478-4.028.492-6.265zm-23.683 9.694c-4.176 0-5.96-2.61-5.92-9.694l.006-6.486c0-1.718.11-3.21.32-4.402.66-3.803 2.412-5.295 5.544-5.295 4.176 0 5.959 2.61 5.92 9.697l-.007 6.486c-.002 1.715-.11 3.206-.319 4.4-.66 3.802-2.412 5.294-5.544 5.294M532.174 90.088l.01-6.486c.018-20.286-11.432-25.299-23.022-25.299-10.123 0-18.748 4.676-20.932 18.1-.315 1.94-.435 4.96-.452 7.199l-.004 7.035c.004 20.134 10.699 25.114 22.288 25.114 10.124 0 19.376-4.695 21.56-18.116.316-1.94.537-5.31.552-7.547zm-22.08 11.251c-3.91 0-5.58-2.61-5.544-9.694l-.084-9.51c0-1.715.103-3.208.297-4.4.62-3.804 2.259-5.295 5.191-5.295 3.91 0 5.578 2.61 5.544 9.695l.082 9.51c0 1.715-.1 3.207-.298 4.4-.616 3.801-2.256 5.294-5.188 5.294M573.797 87.788c2.337-1.855 7.015-4.566 7.293-11.752.456-11.679-10.044-17.642-22.524-17.642-12.787 0-23.03 5.561-23.265 17.092-.135 6.616 3.902 10.083 7.015 12.543-3.024 1.867-6.72 6.77-6.458 13.225.417 10.254 11.414 14.477 22.888 14.408 12.93-.076 21.084-6.468 21.197-18.014.041-4.272-2.937-7.807-6.146-9.86zm-15.667 5.176c5.32.045 5.877 3.285 5.772 6.136-.118 3.124-2.614 4.744-5.772 4.744-3.533 0-5.892-2.292-5.621-6.142.134-1.9 1.922-4.77 5.62-4.738zm.372-11.253c-2.816.05-6.015-1.314-5.83-5.925.156-3.856 2.431-5.386 5.59-5.386 3.42 0 6.19 1.786 5.793 6.17-.329 3.642-2.777 5.091-5.553 5.14M415.752 96.724l-.038-1.49c-.272-9.173-4.856-12.828-8.6-14.468l10.244-19.464c.112-.223.153-.447.18-.595.168-.97-.624-1.567-1.296-1.567h-15.658c-.82 0-1.102.746-1.452 1.492l-8.863 17.524h-2.835l-.012-17.524c-.007-.82-.71-1.492-1.528-1.492H371.35c-.744 0-1.359.522-1.488 1.268-.012.074-.024.15-.039.224l.11 47.428c.017 4.624 1.253 5.666 5.237 6.338 2.547.374 11.18.895 16.325.895 13.575 0 22.332-4.921 23.99-14.467.221-1.267.32-2.685.267-4.102zm-22.673 3.878h-5.594l-.005-9.396h5.592c3.727 0 5.105 1.94 5.129 3.953l.038 1.49c.01.374-.04.672-.093.971-.324 1.864-1.86 2.982-5.067 2.982M464.314 111.34l.04-10.961c.022-.97-.362-1.343-1.108-1.343h-.224c-2.128.225-8.556.746-13.18.746-8.127 0-10.836-1.567-10.83-9.768l.01-6.488c.012-1.79.108-3.208.317-4.4.946-5.444 3.744-5.667 5.532-5.667.672 0 1.779.074 2.424.223l.055 13.422c.005.821.708 1.492 1.53 1.492h13.943c.747 0 1.284-.522 1.402-1.193l.05-.299-.057-24.98c-.003-1.269-.214-1.343-1.577-1.642-4.531-.968-10.824-2.088-17.835-2.088-8.352 0-20.498 3.804-23.116 18.868-.336 1.938-.562 4.1-.516 6.413l.016 6.34c.06 22.818 13.282 25.278 24.54 25.278 8.055 0 13.73-1.342 17.033-2.312 1.02-.297 1.407-.373 1.51-.968.038-.226.065-.374.04-.673M438.922 346.212c9.014 25.322 11.088 40.142 11.088 40.142s-6.298 4.947-18.315 10.616c3.903 37.245-3.633 55.293-3.633 55.293s-41.556 36.869-128.494 45.823c-76.07 7.834-123.57 39.502-123.57 39.502s-12.211-18.823-18.233-57.403c-11.812 4.373-19.904 12.149-19.904 12.149s-16.128-76.181 26.713-191.504c47.756-128.553 122.524-172.042 122.524-172.042.004 0 .319.225.912.677 6.568 4.262 48.672 32.719 97.634 92.033 51.931 62.91 69.542 111.224 69.542 111.224s-6.844 6.916-16.264 13.49" style="fill:#2747a3;fill-opacity:1;fill-rule:nonzero;stroke:none" transform="matrix(1.25 0 0 -1.25 -17.712 671.985)"/><path d="M382.414 223.973c-22.366-27.098-43.385-47.754-60.147-62.55 17.307 18.329 39.603 44.933 63.631 81.212 26.537 40.07 42.33 74.53 51.6 99.658 5.758-4.116 10.448-8.292 12.881-10.565-4.21-10.303-23.453-53.834-67.965-107.755" style="fill:#fff;fill-opacity:1;fill-rule:nonzero;stroke:none" transform="matrix(1.25 0 0 -1.25 -17.712 671.985)"/><path d="M422.746 448.805c-1.82 1.454-5.835 4.495-12.036 8.33-17.396 10.94-54.01 29.3-110.626 35.131-56.333 5.801-98.76 24.872-114.664 32.96a204.309 204.309 0 0 0-7.03 3.856c-1.195-2.462-2.676-5.79-4.266-9.957-2.708-6.922-6.152-17.542-8.86-31.891a222.904 222.904 0 0 1-.892-4.923c-5.419-32.05-7.484-85.877 13.448-160.303 21.233-75.494 50.714-122.643 71.708-148.902a256.487 256.487 0 0 1 9.59-11.312c11.223-12.554 20.13-19.886 24.545-23.206a110.91 110.91 0 0 1 2.875-2.153l.06.056.101-.065s59.489 48.949 104.967 146.817c17.94 38.609 26.99 70.798 31.219 96.211 2.234 12.195 3.252 22.488 3.595 30.843.895 21.837-2.494 34.634-3.734 38.508" style="fill:#fff;fill-opacity:1;fill-rule:nonzero;stroke:none" transform="matrix(1.25 0 0 -1.25 -17.712 671.985)"/><path d="M182.974 516.343c-3.148-7.98-7.577-21.775-10.322-41.342-4.264-30.389-5.22-81.281 14.433-151.162 4.062-14.443 8.59-28.387 13.556-41.75 10.316 36.777 45.26 63.921 86.658 63.921 45.02 0 82.404-32.097 88.786-73.78 2.4 4.752 4.771 9.643 7.106 14.666 24.934 53.662 31.901 94.114 33.355 118.596 1.203 20.234-1.06 33.168-2.205 38.174-3.756 2.856-12.778 9.19-27.012 16.006-17.739 8.494-47.446 19.5-88.234 23.7-55.958 5.765-98.254 24.058-116.121 32.971M316.006 180.067c-9.579-4.405-19.39-6.958-28.707-6.958a92.531 92.531 0 0 0-29.937 4.972c12.319-15.375 22.761-24.93 28.826-29.911 6.024 5.62 16.502 16.003 29.09 31.027l.728.87" style="fill:#2747a3;fill-opacity:1;fill-rule:nonzero;stroke:none" transform="matrix(1.25 0 0 -1.25 -17.712 671.985)"/><path d="m357.528 286.802-13.567-8.116c-2.818 2.155-9.31 6.31-14.146 9.28-6.657 4.083-12.83 7.292-15.516 8.902-.96 3.091-2.813 8.834-4.368 12.374-1.488 3.39-3.518 7.121-4.69 9.2 1.573 1.05 5.9 3.475 8.084 4.677 2.808 1.548 6.619 3.317 6.619 3.317s6.83-1.937 13.658-6.58c6.828-4.642 12.077-7.326 12.077-7.326s-.1.125-.29.353a79.064 79.064 0 0 1-22.303 16.75c-5.974 2.755-10.544 3.986-10.544 3.986s2.252-1.836 3.456-3.576c1.097-1.589-12.355-8.246-15.09-9.403-3.2.482-8.26 1.138-13.47 1.373-.664.029-1.327.043-1.98.043-5.287 0-10.116-.9-12.705-1.486-3.223 1.93-13.805 7.959-13.805 8.96 0 .912 3.154 4.233 4.968 5.2a78.098 78.098 0 0 1-8.071-2.92 79.069 79.069 0 0 1-26.202-18.082c1.686 1.577 5.468 3.06 8.853 5.234 4.218 2.708 12.822 6.238 14.63 6.238 1.807 0 3.96-.506 7.776-2.635 3.29-1.834 6.578-4.675 7.418-5.422-1.5-2.112-2.834-4.605-4.38-7.706-1.66-3.331-3.226-8.96-4.037-12.14-2.244-.921-8.575-3.63-15.41-7.211-6.647-3.483-13.194-8.852-14.69-10.553l-12.657 7.85s-6.328-8.654-8.526-19.157a77.321 77.321 0 0 1-.354-6.87c2.675-6.562 6.148-14.638 10.584-24.275l10.852 7.256c3.179-2.568 9.849-7.17 15.388-10.045 6.125-3.177 12.423-6.429 14.75-7.51.543-2.3.932-6.404 2.694-11.364 1.69-4.754 3.012-7.533 4.47-9.613-.866-.852-2.442-2.72-5.723-4.78-3.583-2.25-6.05-3.508-9.32-3.508-.943 0-1.958.106-3.083.323-2.628.506-8.175 2.775-12.862 5.773.67-1.132 4.054-5.168 9.492-8.689 8.695-5.629 10.224-6 15.055-7.761-.974 1.182-2.911 5.863-1.817 6.613 1.272.874 10.884 7.092 12.898 8.456 2.429-.69 6.907-1.592 13.987-1.711.399-.007.792-.01 1.179-.01 6.95 0 11.433 1.041 13.761 1.786 3.38-2.101 14.407-9.648 14.755-10.48.274-.663-2.474-3.418-4.879-5.081 5.463 1.658 7.049 2.179 11.933 4.905 3.874 2.677 6.317 4.766 7.505 6.239-3.922-1.978-7.503-2.167-7.503-2.167s-4.279.599-9.297 3.694c-4.013 2.473-6.595 5.329-7.995 6.62 1.53 2.08 2.782 4.521 4.04 8.037 1.394 3.9 2.985 9.202 3.825 12.076 2.59 1.22 8.547 4.095 16.255 8.235 7.853 4.217 12.408 7.775 14.187 9.287l12.725-8.51s9.24 9.283 9.64 25.15c.404 15.861-8.234 26.5-8.234 26.5zm-14.105-25.596c-.158-6.801-1.797-12.014-2.599-14.481-2.347-1.673-6.634-4.899-12.871-8.39-6.775-3.793-14.328-7.13-16.932-8.28l-23.573 13.432.382 37.102c3.144 1.78 6.82 3.73 12.45 6.717 6.598 3.504 11.264 5.357 12.282 5.804 3.033-1.546 10.507-5.508 15.273-8.57 4.927-3.164 12.706-8.696 14.873-10.218.394-2.776.862-6.876.715-13.116zm-59.846 20.014-.77-37.94-20.209-11.879c-1.699.79-8.145 3.252-16.308 7.394-8.872 4.505-12.864 8.923-15.615 11.047-.34 3.046-.807 6.25-.675 11.038.168 6.158 1.322 12.226 1.695 14.678 2.433 2.192 9.913 7.728 14.475 10.368 4.798 2.772 13.09 6.154 15.75 7.124 2.37-1.344 6.042-3.005 10.454-5.472 4.672-2.616 8.882-4.89 11.203-6.358" style="fill:#2747a3;fill-opacity:1;fill-rule:nonzero;stroke:none" transform="matrix(1.25 0 0 -1.25 -17.712 671.985)"/><path d="M248.153 355.046c-15.378-4.939-26.556-15.892-26.556-15.892l6.438 47.287-25.406-.02-.025 42.183 20.536.007.013-23.841 8.185.002-.021 23.849 22.641.01.017-23.84 8.597.01-.02 23.837 23.842.014.036-42.235-7.298-.012.031-26.875s-16.037.321-31.01-4.484M337.88 350.02c19.648-9.256 25.595-18.614 25.595-18.614l-4.305 55.035 24.336-.02.021 42.183-19.464.007-.014-23.841-8.187.002.027 23.849-22.644.01-.015-23.84-8.599.01.02 23.837-23.845.014-.036-42.235 7.301-.012-.043-26.96s13.478-1.708 29.851-9.424" style="fill:#fff;fill-opacity:1;fill-rule:nonzero;stroke:none" transform="matrix(1.25 0 0 -1.25 -17.712 671.985)"/></svg>