<svg xmlns="http://www.w3.org/2000/svg" xml:space="preserve" width="253.98511" height="67.8564" version="1.0"><path d="M200.04 123.19c-30.06-16.774-64.256-25.64-98.89-25.64-34.273 0-68.158 8.695-97.992 25.146L0 124.437l3.148 1.757c30.062 16.775 64.257 25.64 98.891 25.64 34.273 0 68.157-8.695 97.993-25.146l3.156-1.74-3.148-1.758" style="fill:#fff;fill-opacity:1;fill-rule:nonzero;stroke:none" transform="matrix(1.25 0 0 -1.25 0 189.793)"/><path d="M102.04 149.835c-35.545 0-68.936-9.216-97.917-25.388C32.898 108.581 65.97 99.55 101.151 99.55c35.543 0 68.934 9.217 97.914 25.388-28.773 15.866-61.845 24.898-97.026 24.898" style="fill:#fff200;fill-opacity:1;fill-rule:nonzero;stroke:none" transform="matrix(1.25 0 0 -1.25 0 189.793)"/><path d="M102.04 149.835c-35.545 0-68.936-9.216-97.917-25.388C32.898 108.581 65.97 99.55 101.151 99.55c35.543 0 68.934 9.217 97.914 25.388-28.773 15.866-61.845 24.898-97.026 24.898" style="fill:#e31a22;fill-opacity:1;fill-rule:nonzero;stroke:none" transform="matrix(1.25 0 0 -1.25 0 189.793)"/><path d="M193.034 124.983c-28.188-14.73-59.86-22.633-91.883-22.633-31.718 0-63.094 7.626-91.083 22.096l-.145-.042c28.256 14.82 59.992 22.632 92.116 22.632 31.685 0 63.027-7.61 90.995-22.053" style="fill:#fff;fill-opacity:1;fill-rule:nonzero;stroke:none" transform="matrix(1.25 0 0 -1.25 0 189.793)"/><path d="M49.399 127.174h.586c1.385 0 2.824.266 2.824 2.16 0 2.043-1.625 2.162-3.037 2.162h-.373v-4.322zm0-9.118h.666c1.545 0 4.156-.089 4.156 2.369 0 2.694-2.585 2.427-4.29 2.427H49.4v-4.796zm-5.222-4.44v22.32h7.46c3.57 0 5.968-1.539 5.968-5.802 0-2.012-.586-3.64-2.21-4.559v-.059c2.875-.414 4.101-2.575 4.101-5.684 0-4.676-3.597-6.216-7.272-6.216h-8.047M70.758 125.93h.505c1.705 0 3.623.356 3.623 2.783s-1.918 2.783-3.623 2.783h-.505v-5.565zm11.481-12.314h-6.5L70.81 122.2h-.052v-8.584h-5.222v22.32h7.806c3.969 0 6.98-2.101 6.98-6.868 0-3.078-1.546-5.743-4.396-6.305l6.313-9.147M95.744 129.04h-.053l-2.158-7.105h4.342l-2.13 7.104zm-3.65-11.546-1.386-3.878h-5.542l7.727 22.32h5.701l7.567-22.32h-5.568l-1.306 3.878h-7.193M111.108 135.936h5.222l9.564-13.647h.052v13.647h5.223v-22.32h-5.223l-9.563 13.677h-.053v-13.677h-5.222v22.32M137.904 135.936h5.221l9.564-13.647h.053v13.647h5.223v-22.32h-5.223l-9.563 13.677h-.054v-13.677h-5.221v22.32" style="fill:#e31a22;fill-opacity:1;fill-rule:nonzero;stroke:none" transform="matrix(1.25 0 0 -1.25 0 189.793)"/></svg>