<svg xmlns="http://www.w3.org/2000/svg" xml:space="preserve" width="424.66666" height="424.66666" viewBox="0 0 424.66664 424.66666"><defs><clipPath id="a" clipPathUnits="userSpaceOnUse"><path d="M0 600h800V0H0Z"/></clipPath></defs><g clip-path="url(#a)" transform="matrix(1.33333 0 0 -1.33333 -321 612.334)"><path d="M0 0c-87.951 0-159.25-71.299-159.25-159.25 0-87.952 71.299-159.25 159.25-159.25s159.25 71.298 159.25 159.25C159.25-71.299 87.951 0 0 0" style="fill:#f9b00c;fill-opacity:1;fill-rule:nonzero;stroke:none" transform="translate(400 459.25)"/><path d="M0 0c27.167 27.153 64.599 43.918 106.04 43.923 41.439-.005 78.871-16.77 106.039-43.923 19.201-19.212 33.197-43.561 39.756-70.827H140.976l45.646 47.359c2.744 2.801 8.428 4.731 14.971 4.731 5.504 0 10.4-1.366 13.45-3.469-3.417 7.107-11.418 12.113-20.704 12.113-6.704 0-12.62-2.722-16.744-6.848l-51.996-53.886h-15.657v20.884h-7.8v-20.884H86.481L34.486-16.941c-4.124 4.126-10.041 6.848-16.745 6.848-9.286 0-17.287-5.006-20.703-12.113 3.049 2.103 7.945 3.469 13.45 3.469 6.542 0 12.226-1.93 14.97-4.731l45.647-47.359H-39.757C-33.199-43.561-19.202-19.212 0 0" style="fill:red;fill-opacity:1;fill-rule:nonzero;stroke:none" transform="translate(293.96 406.04)"/><path d="M0 0c-27.168-27.152-64.6-43.918-106.04-43.922-41.439.004-78.873 16.77-106.039 43.922-19.202 19.213-33.198 43.561-39.757 70.826h97.402l-52.434-54.341c2.488-2.77 5.321-5.198 8.029-7.754l59.853 62.095h29.049V54.961c-5.369-.468-9.839-1.896-13.288-4.258-4.257-2.868-6.817-7.437-6.774-12.277-.043-4.838 2.517-9.408 6.774-12.277 3.405-2.332 7.804-3.753 13.084-4.239l4.102-11.726 4.105 11.726c5.279.487 9.678 1.907 13.08 4.239 4.258 2.869 6.818 7.44 6.774 12.279.044 4.836-2.516 9.408-6.774 12.275-3.447 2.361-7.914 3.789-13.283 4.258v15.865h29.046l59.853-62.095c2.707 2.556 5.541 4.984 8.029 7.754l-52.436 54.341h97.401C33.197 43.561 19.201 19.213 0 0" style="fill:#234480;fill-opacity:1;fill-rule:nonzero;stroke:none" transform="translate(506.04 193.96)"/><path d="M0 0c4-.436 6.956-1.531 8.858-2.855 2.478-1.768 3.353-3.606 3.398-5.852-.045-2.247-.92-4.084-3.398-5.854C6.956-15.885 4-16.979 0-17.416Z" style="fill:#234480;fill-opacity:1;fill-rule:nonzero;stroke:none" transform="translate(403.902 241.096)"/><path d="M0 0v-17.418c-4.003.436-6.96 1.531-8.863 2.855-2.476 1.77-3.352 3.607-3.397 5.852.045 2.248.921 4.086 3.397 5.854C-6.96-1.533-4.003-.437 0 0" style="fill:#234480;fill-opacity:1;fill-rule:nonzero;stroke:none" transform="translate(396.102 241.098)"/><path d="M0 0a150.943 150.943 0 0 1 2.238 25.927c0 8.845-.771 17.506-2.238 25.925h-295.448a151.12 151.12 0 0 1-2.238-25.925c.001-8.846.772-17.507 2.239-25.927z" style="fill:#fff;fill-opacity:1;fill-rule:nonzero;stroke:none" transform="translate(547.723 274.074)"/><path d="M0 0a59.5 59.5 0 0 0-.1 3.232c.006 11.891 3.616 20.759 5.481 24.55A70.49 70.49 0 0 1 .367 29.15c-1.616.381-3.471.76-5.507 1.09a32.93 32.93 0 0 1-.557-.936 46.529 46.529 0 0 1-2.68-5.518c-1.956-4.779-3.917-11.625-3.915-19.855.001-6.796 1.334-14.54 5.126-22.916 2.015.192 3.801.486 5.306.891 2.364.626 3.961 1.513 4.863 2.466C1.193-10.17.296-4.99.014-.216A1.942 1.942 0 0 0 0 0" style="fill:#f9b00c;fill-opacity:1;fill-rule:nonzero;stroke:none" transform="translate(402.197 397.725)"/><path d="M0 0h.002c.842.584 2 .373 2.583-.472.582-.843.37-2-.472-2.583-.222-.157-6.914-4.695-19.537-4.695h-.006c-2.635 0-5.525.199-8.662.671a1.857 1.857 0 1 0 .553 3.674 54.336 54.336 0 0 1 8.109-.628C-6.443-4.032-.545-.351-.029-.018zm-22.764 67.689c1.229.111 2.449.16 3.651.16 11.533-.017 21.538-4.479 21.664-4.521l.002-.002a1.858 1.858 0 0 0-1.505-3.397s-.124.055-.399.167a36.92 36.92 0 0 1-1.211.473c-1.057.394-2.59.925-4.456 1.453-3.734 1.061-8.812 2.113-14.095 2.111-1.102 0-2.21-.044-3.316-.145a1.857 1.857 0 0 0-.335 3.701M-10.49 1.947C-13.833 1.055-17.949.674-22.709.671c-5.413.001-11.656.505-18.458 1.41a1.857 1.857 0 1 0 .488 3.682 194 194 0 0 1 5.19-.619c-3.993 6.47-6.147 14.67-6.151 23.531.002 8.224 1.866 17.024 5.89 25.546-.308-.043-.612-.076-.92-.125a1.86 1.86 0 0 0-.58 3.671c3.635.574 7.182.804 10.542.805 11.948-.006 21.575-2.91 24.731-3.983 1.854 1.484 6.506 4.254 16.082 5.295a1.858 1.858 0 0 0 .405-3.694C4.07 55.03.504 51.878-.051 51.339a28.37 28.37 0 0 1-.809-1.531 45.53 45.53 0 0 1-2.076-4.99 53.958 53.958 0 0 1-2.093-7.832c5.168 1.537 16.508 4.448 28.5 4.457a1.857 1.857 0 0 0 0-3.715c-11.584.005-22.842-2.917-27.69-4.375a73.857 73.857 0 0 1-1.416-.439 54.452 54.452 0 0 1-.34-6.052c0-.622.014-1.256.038-1.894.296-.095.642-.204 1.048-.326a83.496 83.496 0 0 1 6.41-1.626c5.543-1.186 13.498-2.377 23.065-2.377a1.858 1.858 0 0 0 0-3.714c-14.508.001-25.409 2.644-30.235 4.068A56.938 56.938 0 0 1-2.996 8.969a43.2 43.2 0 0 1 1.285-.559 64.012 64.012 0 0 1 5.834-2.077c4.543-1.39 10.932-2.867 18.772-3.47a42.548 42.548 0 0 1 8.076 24.993c0 23.615-19.143 42.758-42.757 42.758-23.615 0-42.759-19.143-42.759-42.758 0-23.614 19.144-42.758 42.759-42.758 12.675 0 24.057 5.521 31.888 14.284C7.704.66-.83 3.956-4 5.348c-1.582-1.622-3.822-2.68-6.49-3.401" style="fill:#f9b00c;fill-opacity:1;fill-rule:nonzero;stroke:none" transform="translate(411.787 374.094)"/><path d="M0 0a73.395 73.395 0 0 1-7.986.451c-1.52 0-3.079-.055-4.663-.165-4.5-8.663-6.555-17.695-6.553-26.018-.004-9.451 2.652-17.954 7.225-23.964 2.846-.211 5.524-.325 7.989-.324.684 0 1.346.011 1.997.028-3.58 8.376-4.886 16.223-4.885 23.146C-6.865-13.984-2.445-4.354 0 0" style="fill:#f9b00c;fill-opacity:1;fill-rule:nonzero;stroke:none" transform="translate(393.065 428.501)"/><path d="M0 0c-3.689 2.553-8.623 2.999-12.496 3.886-1.932.421-3.574.946-4.566 1.636-.98.72-1.407 1.337-1.446 2.75.006 1.445.372 2.585 1.179 3.39.806.805 2.237 1.465 4.864 1.471 4.435-.058 8.819-3.012 9.447-9.822A1.487 1.487 0 0 1-1.537 1.95H.989a1.49 1.49 0 0 1 1.485 1.486v13.21a1.487 1.487 0 0 1-1.485 1.487h-2.235a1.49 1.49 0 0 1-1.355-.874l-.58-1.285c-2.487 1.894-5.632 2.963-9.672 2.94-4.43.01-7.73-1.412-9.845-3.596-2.118-2.18-3.009-5.001-3.007-7.617-.041-4.103 1.69-7.026 4.177-8.724 3.696-2.548 8.629-2.937 12.48-3.853 1.924-.436 3.545-.992 4.53-1.742.971-.766 1.46-1.523 1.495-3.158-.035-2.043-.79-3.067-2.033-3.893-1.253-.803-3.109-1.183-4.884-1.176-2.78.006-5.14 1.208-6.964 3.196-1.815 1.986-3.027 4.763-3.31 7.736a1.485 1.485 0 0 1-1.479 1.344h-2.525c-.393 0-.775-.158-1.052-.436a1.497 1.497 0 0 1-.435-1.051v-14.302c0-.392.159-.776.435-1.051a1.491 1.491 0 0 1 1.052-.436h2.525c.623 0 1.175.385 1.393.967l.622 1.679c2.674-2.224 5.882-3.427 9.477-3.427h.067c3.81.006 7.325.842 9.994 2.816 2.678 1.966 4.338 5.157 4.314 9.177C4.213-4.595 2.478-1.697 0 0" style="fill:#f9b00c;fill-opacity:1;fill-rule:nonzero;stroke:none" transform="translate(335.784 300.856)"/><path d="M0 0h-16.514c-.391 0-.774-.159-1.051-.437A1.496 1.496 0 0 1-18-1.487v-2.705c0-.397.154-.77.435-1.05a1.477 1.477 0 0 1 1.051-.436h3.643c.519-.024.493-.096.544-.134.056-.052.209-.396.204-1.084v-23.72c.003-.641-.146-.964-.21-1.031-.064-.054-.046-.114-.489-.137h-3.692c-.391 0-.774-.158-1.051-.435a1.494 1.494 0 0 1-.435-1.05v-2.705c0-.392.159-.773.435-1.05a1.5 1.5 0 0 1 1.051-.435H0c.396 0 .769.153 1.05.435.281.281.435.654.435 1.05v2.705c0 .397-.154.771-.435 1.05a1.47 1.47 0 0 1-1.05.435h-3.74c-.446.023-.427.083-.49.137-.064.065-.214.39-.21 1.031v23.72c-.005.688.148 1.032.204 1.084.05.038.026.11.544.134H0c.396 0 .769.155 1.05.436.281.28.435.654.435 1.05v2.705c0 .396-.154.77-.435 1.05A1.477 1.477 0 0 1 0 0" style="fill:#f9b00c;fill-opacity:1;fill-rule:nonzero;stroke:none" transform="translate(408.257 317.925)"/><path d="M0 0a1.494 1.494 0 0 1-1.052.436h-30.111c-.393 0-.775-.159-1.052-.436a1.495 1.495 0 0 1-.434-1.05v-2.705a1.5 1.5 0 0 1 .434-1.051 1.5 1.5 0 0 1 1.052-.436h3.594c.519-.023.492-.094.543-.133.055-.051.21-.396.204-1.084v-23.719c.005-.643-.146-.966-.21-1.033-.065-.054-.045-.114-.489-.136h-3.691c-.391 0-.777-.158-1.052-.435a1.495 1.495 0 0 1-.434-1.05v-2.705c0-.39.158-.773.434-1.05a1.501 1.501 0 0 1 1.052-.436h16.514c.396 0 .769.154 1.05.436.28.281.434.654.434 1.05v2.705c0 .397-.154.77-.434 1.05a1.475 1.475 0 0 1-1.05.435h-3.74c-.446.022-.426.082-.491.136-.063.067-.215.39-.211 1.033v9.75h1.722c.884.003 1.493-.081 1.819-.202.453-.207.528-.213.836-1.067.26-.842.406-2.394.473-4.679a1.484 1.484 0 0 1 1.484-1.438h2.528c.396 0 .769.152 1.049.434.281.281.437.654.437 1.05v16.853c0 .393-.161.774-.437 1.052a1.495 1.495 0 0 1-1.049.434h-2.528a1.487 1.487 0 0 1-1.484-1.433c-.067-2.741-.366-4.285-.699-4.708-.16-.221-.24-.293-.588-.424-.344-.118-.959-.2-1.841-.197h-1.72v9.513h7.5c2.741-.014 4.143-.489 5.02-1.584.93-1.112 1.572-3.518 1.555-7.802 0-.392.158-.775.435-1.051.276-.276.66-.434 1.051-.434h2.525c.397 0 .772.153 1.051.434.281.281.437.655.437 1.051V-1.05C.436-.659.276-.276 0 0" style="fill:#f9b00c;fill-opacity:1;fill-rule:nonzero;stroke:none" transform="translate(491.112 317.488)"/><path d="M0 0a5.449 5.449 0 1 0-10.898 0A5.449 5.449 0 0 0 0 0" style="fill:#f9b00c;fill-opacity:1;fill-rule:nonzero;stroke:none" transform="translate(439.504 300)"/><path d="M0 0a5.449 5.449 0 1 0-10.898 0A5.449 5.449 0 0 0 0 0" style="fill:#f9b00c;fill-opacity:1;fill-rule:nonzero;stroke:none" transform="translate(522.472 300)"/><path d="M0 0a5.449 5.449 0 1 1 10.898 0A5.449 5.449 0 0 1 0 0" style="fill:#f9b00c;fill-opacity:1;fill-rule:nonzero;stroke:none" transform="translate(360.495 300)"/><path d="M0 0a5.45 5.45 0 1 1 10.899.001A5.45 5.45 0 0 1 0 0" style="fill:#f9b00c;fill-opacity:1;fill-rule:nonzero;stroke:none" transform="translate(277.526 300)"/><path d="M0 0c-.264.396-.613.595-1.048.595-1.391 0-7.451-6.449-7.451-7.43 0-.89.59-1.611 1.32-1.611.754 0 4.219 2.83 4.219 2.83v-13.206c0-.774.151-1.359.456-1.756a1.45 1.45 0 0 1 1.209-.594c1.126 0 1.69.972 1.69 2.916V-1.64C.395-.943.263-.397 0 0" style="fill:#f9b00c;fill-opacity:1;fill-rule:nonzero;stroke:none" transform="translate(289.848 362.487)"/><path d="M0 0a6.89 6.89 0 0 1-.228 1.821A4.802 4.802 0 0 1-.87 3.265a3.207 3.207 0 0 1-.986.958 2.374 2.374 0 0 1-1.252.348c-.782 0-1.443-.394-1.986-1.183-.543-.788-.814-1.831-.814-3.127 0-1.286.271-2.312.814-3.076.543-.765 1.229-1.146 2.06-1.146.509 0 .997.156 1.461.471.465.314.843.771 1.135 1.371C-.146-1.519 0-.813 0 0m.284-4.441c-.543-.754-1.15-1.323-1.82-1.705a4.415 4.415 0 0 0-2.226-.573c-.774 0-1.495.176-2.165.53-.67.353-1.25.846-1.739 1.48a6.97 6.97 0 0 0-1.129 2.22A8.925 8.925 0 0 0-9.189.174c0 .996.147 1.942.443 2.837.297.895.72 1.671 1.271 2.329a5.866 5.866 0 0 0 1.968 1.538c.76.368 1.601.552 2.522.552 1.061 0 2.006-.227 2.837-.682.831-.455 1.529-1.115 2.097-1.981.567-.866 1.003-1.957 1.307-3.272.304-1.316.457-2.806.457-4.47 0-1.858-.16-3.495-.482-4.912-.32-1.418-.787-2.608-1.399-3.57-.613-.963-1.347-1.679-2.202-2.147-.856-.47-1.825-.705-2.911-.705-1.069 0-1.998.24-2.788.719-.789.479-1.389 1.074-1.801 1.785-.411.711-.617 1.395-.617 2.053 0 .407.128.769.383 1.088.255.32.58.479.974.479.362 0 .687-.118.975-.355.287-.237.506-.593.654-1.066.18-.581.481-1.048.9-1.401.419-.353.892-.53 1.418-.53.469 0 .913.141 1.332.421.42.281.778.677 1.074 1.19.592 1.035.945 2.864 1.061 5.485" style="fill:#f9b00c;fill-opacity:1;fill-rule:nonzero;stroke:none" transform="translate(311.089 355.652)"/><path d="M0 0c0 1.771-.091 3.219-.271 4.346-.181 1.128-.486 1.979-.914 2.554-.427.576-1.019.864-1.775.864-1.086 0-1.84-.643-2.264-1.93-.423-1.287-.634-3.271-.634-5.95 0-1.819.089-3.309.271-4.469.18-1.161.484-2.039.912-2.634.428-.595 1.007-.893 1.739-.893.757 0 1.349.31 1.777.929.428.619.727 1.504.9 2.656C-.086-3.376 0-1.867 0 0m3.38-.29c0-1.587-.082-2.951-.246-4.092-.165-1.142-.469-2.177-.914-3.106C1.661-8.629.937-9.51.05-10.129a5.064 5.064 0 0 0-2.961-.929c-1.25 0-2.37.416-3.36 1.248-.992.832-1.739 1.983-2.24 3.454a14.797 14.797 0 0 0-.562 2.663 26.047 26.047 0 0 0-.178 3.156c0 1.461.066 2.776.197 3.948.131 1.17.338 2.176.617 3.018.485 1.393 1.19 2.454 2.116 3.185.924.73 2.029 1.096 3.311 1.096.847 0 1.616-.162 2.307-.486a5.297 5.297 0 0 0 1.819-1.423c.522-.623.964-1.395 1.326-2.314.625-1.596.938-3.856.938-6.777" style="fill:#f9b00c;fill-opacity:1;fill-rule:nonzero;stroke:none" transform="translate(493.362 352.332)"/><path d="M0 0h8.215c.789 0 1.361-.146 1.715-.436.353-.29.53-.769.53-1.436 0-.406-.208-.944-.622-1.611-.416-.667-.889-1.406-1.42-2.213-.529-.808-1.076-1.812-1.641-3.011-.562-1.2-1.078-2.666-1.547-4.397a22.338 22.338 0 0 1-.419-1.901 53.014 53.014 0 0 1-.272-1.959 38.66 38.66 0 0 0-.26-1.843c-.172-.987-.416-1.672-.732-2.054-.318-.382-.739-.573-1.266-.573-.501 0-.904.206-1.209.617-.302.411-.455 1.018-.455 1.821 0 .619.111 1.461.332 2.525.223 1.064.584 2.339 1.086 3.824a40.06 40.06 0 0 0 1.881 4.571A38.047 38.047 0 0 0 6.599-3.41H0c-.691 0-1.207.147-1.549.442-.341.295-.512.757-.512 1.386 0 .667.182 1.098.543 1.291C-1.156-.097-.649 0 0 0" style="fill:#f9b00c;fill-opacity:1;fill-rule:nonzero;stroke:none" transform="translate(508.19 362.68)"/><path d="M0 0a7.765 7.765 0 1 1 0-15.531c1.937 0 3.702.713 5.062 1.885.015-.211.025-.427.025-.644 0-3.628-2.127-6.564-6.124-6.564h-8.788c-5.908 0-10.688 2.405-10.688 9.09 0 2.014 2.6 3.641 2.6 3.641h3.51c.567 0 1.101.221 1.503.624.401.401.623.935.623 1.501v3.872c0 .565-.222 1.102-.623 1.503A2.12 2.12 0 0 1-14.403 0h-34.032a2.15 2.15 0 0 1-1.503-.623 2.142 2.142 0 0 1-.624-1.503v-3.872c0-.559.228-1.106.624-1.501a2.142 2.142 0 0 1 1.503-.624h3.51s2.6-1.627 2.6-3.641c0-6.685-4.779-9.09-10.688-9.09h-6.314c-5.936 0-13.623 16.644-13.623 16.644s-7.688-16.644-13.622-16.644h-19.019c-5.909 0-10.688 2.405-10.688 9.09 0 2.014 2.6 3.641 2.6 3.641h10.609c.559 0 1.108.228 1.504.624.396.395.623.942.623 1.501v3.872a2.14 2.14 0 0 1-.623 1.503A2.152 2.152 0 0 1-103.07 0h-48.475a2.12 2.12 0 0 1-1.503-.623 2.114 2.114 0 0 1-.623-1.503v-3.872c0-.566.221-1.1.623-1.501a2.109 2.109 0 0 1 1.503-.624h10.61s2.601-1.627 2.601-3.641c0-6.685-4.781-9.09-10.688-9.09-.588 0-1.164-.24-1.58-.654a2.244 2.244 0 0 1-.653-1.576v-4.064c0-.588.238-1.161.653-1.575a2.25 2.25 0 0 1 1.58-.655H0c8.946 0 13.704 6.569 13.704 14.689C13.704-6.57 8.946 0 0 0" style="fill:#f9b00c;fill-opacity:1;fill-rule:nonzero;stroke:none" transform="translate(472.95 204.275)"/></g></svg>