<svg xmlns="http://www.w3.org/2000/svg" width="79.297699mm" height="88.106178mm" viewBox="0 0 79.297699 88.106179"><path d="m199.017 207.8.807.839-.67.96c-2.12 3.08-7.547 4.223-10.596 4.376-1.753.077-3.476-.26-4.772-1.037-.96.32-1.936.457-2.85.366l-.23.122c.746.488 1.432.976 2.027 1.479.991.793 2.287 2.058 2.18 3.567l-.044.503-.351.381c-.854.93-3.781 3.034-6.16 1.068l-.335-.275-.136-.396c-.289-.915-1.28-1.951-2.805-3.064-1.555 1.113-2.561 2.15-2.85 3.064l-.121.396-.335.275c-2.394 1.966-5.29-.138-6.175-1.068l-.35-.38-.045-.504c-.11-1.51 1.174-2.775 2.165-3.567.595-.504 1.296-.992 2.059-1.48l-.258-.12c-.9.088-1.86-.045-2.806-.352-1.31.763-3.018 1.098-4.756 1.022-3.064-.153-8.507-1.296-10.626-4.376l-.662-.96.823-.823c-2.775-1.143-6.067-3.186-7.058-5.915l-.397-1.113.762-.457c-2.302-1.708-4.817-4.254-5.107-6.998l-.136-1.174.838-.274c-1.86-2.058-3.628-4.894-3.4-7.531l.121-1.174.686-.089c-1.387-2.424-2.592-5.64-1.738-8.201l.368-1.113.64.033c-.823-2.516-1.25-5.61 0-7.882l.549-1.021.853.183c-.35-2.668-.2-5.977 1.525-8.065l.746-.9.915.38c.215-2.774 1.144-6.234 3.446-7.988l.945-.701.717.503c.87-2.622 2.515-5.686 5.076-6.921l1.083-.519.732.793c1.494-2.47 3.979-5.29 6.936-5.945l1.174-.245.564 1.021c.11.214.215.443.305.686 2.134-2.012 5.32-4.162 8.354-4.055l1.22.033.258 1.144c.11.456.136.944.136 1.417a40.204 40.204 0 0 1 2.835-.088c.93 0 1.876.033 2.806.088 0-.472.044-.96.136-1.417l.257-1.144 1.22-.033c3.05-.11 6.22 2.043 8.34 4.04l.319-.67.549-1.022 1.204.245c2.973.655 5.442 3.522 6.936 5.976l.778-.823 1.083.519c2.561 1.235 4.177 4.238 5.062 6.86l.64-.442.93.701c2.318 1.753 3.233 5.214 3.461 7.989l.915-.38.747.899c1.738 2.088 1.875 5.396 1.524 8.064l.884-.182.55 1.02c1.234 2.272.807 5.367 0 7.883l.64-.034.367 1.113c.854 2.562-.335 5.778-1.723 8.202l.672.089.12 1.174c.243 2.637-1.554 5.488-3.4 7.546l.794.259-.136 1.174c-.304 2.713-2.79 5.275-5.092 6.982l.793.473-.396 1.112c-.991 2.73-4.269 4.742-7.028 5.9" style="fill:#000;fill-opacity:1;fill-rule:nonzero;stroke:none;stroke-width:3.90279" transform="translate(-135.43 -133.13)"/><path d="m174.518 138.388-20.704 7.577-11.632 38.144 19.728 23.767 12.805 7.227 14.179-7.044 19.483-24.468-13.95-38.891zm0 0" style="fill:#c20c19;fill-opacity:1;fill-rule:nonzero;stroke:none;stroke-width:3.90279" transform="translate(-135.43 -133.13)"/><path d="m147.701 165.982 48.892-15.245 11.098 30.994-53.74 16.541-11.769-14.163zm0 0" style="fill:#fff;fill-opacity:1;fill-rule:nonzero;stroke:none;stroke-width:3.90279" transform="translate(-135.43 -133.13)"/><path d="m147.488 166.668 49.333-15.29-.731-2.043-47.825 14.833zM154.775 199.278l53.312-16.51-.746-2.059-54.06 16.77zM169.67 169.047l.214-7.135-15.062 4.68-.215 7.074 3.979-1.25-.594 21.237 7.089-2.165.64-21.222zM178.435 187.372l.84-28.372-7.105 2.21-.839 28.342zM195.54 182.066l.23-7.21-5.229 1.63.641-21.16-6.89 2.134-.855 28.357zM167.58 215.331c1.114-.93 2.638-1.875 4.163-2.728 3.049-1.708 8.949-4.437 10.077-5l.519-.26.533.23c.168.055.427.167.702.29.273.136.625.334.93.563.549.396 1.738 1.86-.077 2.897-1.54.884-6.418 3.262-8.492 4.62-2.089 1.356-3.582 2.698-3.979 3.933l-.11.305-.258.229c-2.18 1.784-4.91-.122-5.763-1.037l-.289-.304-.044-.396c-.089-1.341 1.066-2.5 2.073-3.339" style="fill:#000;fill-opacity:1;fill-rule:nonzero;stroke:none;stroke-width:3.90279" transform="translate(-135.43 -133.13)"/><path d="M166.666 218.502c.9.945 2.805 1.952 4.055.93 1.052-3.323 9.91-7.408 13.004-9.192 1.174-.67-.838-1.464-1.387-1.707-2.271 1.097-15.855 7.165-15.672 9.97" style="fill:#eec214;fill-opacity:1;fill-rule:nonzero;stroke:none;stroke-width:3.90279" transform="translate(-135.43 -133.13)"/><path d="M182.552 215.331c-1.113-.93-2.622-1.875-4.178-2.728-3.033-1.708-8.933-4.437-10.077-5l-.519-.26-.518.23c-.169.055-.412.167-.702.29a6.372 6.372 0 0 0-.93.563c-.534.396-1.738 1.86.066 2.897 1.54.884 6.419 3.262 8.507 4.62 2.104 1.356 3.598 2.698 3.994 3.932l.078.306.273.229c2.18 1.784 4.894-.122 5.778-1.037l.274-.304v-.396c.11-1.342-1.053-2.5-2.058-3.339" style="fill:#000;fill-opacity:1;fill-rule:nonzero;stroke:none;stroke-width:3.90279" transform="translate(-135.43 -133.13)"/><path d="M183.451 218.502c-.9.945-2.774 1.952-4.025.93-1.083-3.323-9.94-7.408-13.02-9.192-1.158-.67.824-1.464 1.388-1.707 2.287 1.097 15.84 7.165 15.657 9.97" style="fill:#eec214;fill-opacity:1;fill-rule:nonzero;stroke:none;stroke-width:3.90279" transform="translate(-135.43 -133.13)"/><path d="M202.248 152.262c-.93.717-2.47.868-3.506-.336-5.93-6.875-14.376-11.113-23.66-11.113-9.315 0-17.777 4.238-23.692 11.113-1.052 1.205-2.592 1.053-3.506.336-.915-.686-1.418-2.074-.368-3.278 6.754-7.851 16.557-12.852 27.564-12.852 10.961 0 20.764 5 27.533 12.852 1.037 1.204.549 2.592-.367 3.278" style="fill:#000;fill-opacity:1;fill-rule:nonzero;stroke:none;stroke-width:3.90279" transform="translate(-135.43 -133.13)"/><path d="M148.341 149.609c6.586-7.623 16.1-12.47 26.74-12.47 10.611 0 20.124 4.847 26.71 12.47 1.174 1.387-1.021 3.08-2.226 1.692-6.098-7.089-14.849-11.601-24.484-11.601-9.68 0-18.416 4.512-24.53 11.601-1.173 1.387-3.4-.304-2.21-1.692" style="fill:#eec214;fill-opacity:1;fill-rule:nonzero;stroke:none;stroke-width:3.90279" transform="translate(-135.43 -133.13)"/><path d="M189.23 139.12c1.844 2.226 2.484 5.092.853 6.937l-.044.044-1.22.884-.044.033c-2.317 1.021-5.122-.259-6.967-2.47-1.951-2.347-4.147-6.875-3.446-10.046l.215-.93.991-.012c3.735-.137 7.745 3.308 9.635 5.564" style="fill:#000;fill-opacity:1;fill-rule:nonzero;stroke:none;stroke-width:3.90279" transform="translate(-135.43 -133.13)"/><path d="M182.841 143.831c-1.875-2.271-3.811-6.434-3.201-9.086 3.049-.11 6.723 2.866 8.583 5.122 1.707 2.028 1.951 4.223.884 5.428-.472-.596-1.616-2.043-2.5-2.989-1.144-1.204-4.528-4.634-4.528-4.634s2.699 3.933 3.705 5.26c.731 1.036 1.951 2.424 2.454 3.018-1.51.656-3.704-.088-5.397-2.119" style="fill:#eec214;fill-opacity:1;fill-rule:nonzero;stroke:none;stroke-width:3.90279" transform="translate(-135.43 -133.13)"/><path d="M197.69 143.892c1.159 2.592.992 5.504-1.097 6.906l-.044.044-1.418.55-.067.01c-2.515.443-4.863-1.493-6.037-4.055-1.235-2.744-2.119-7.668-.533-10.565l.427-.838.976.213c3.628.794 6.586 5.092 7.775 7.73" style="fill:#000;fill-opacity:1;fill-rule:nonzero;stroke:none;stroke-width:3.90279" transform="translate(-135.43 -133.13)"/><path d="M190.22 146.88c-1.19-2.637-1.906-7.12-.579-9.559 2.958.656 5.687 4.406 6.876 7.044 1.068 2.378.701 4.558-.656 5.473-.289-.702-1.006-2.363-1.585-3.492-.763-1.448-3.095-5.58-3.095-5.58s1.524 4.452 2.119 5.977c.427 1.174 1.235 2.805 1.555 3.491-1.647.29-3.568-.976-4.635-3.354" style="fill:#eec214;fill-opacity:1;fill-rule:nonzero;stroke:none;stroke-width:3.90279" transform="translate(-135.43 -133.13)"/><path d="M185.311 147.795c2.775 1.005 5.885.747 7.287-1.235l.045-.055.548-1.357v-.044c.383-2.379-1.737-4.513-4.527-5.535-2.943-1.067-8.202-1.737-11.22-.152l-.87.457.258.884c.944 3.4 5.61 6.006 8.476 7.043" style="fill:#000;fill-opacity:1;fill-rule:nonzero;stroke:none;stroke-width:3.90279" transform="translate(-135.43 -133.13)"/><path d="M188.208 140.675c-2.836-1.02-7.623-1.54-10.169-.229.793 2.775 4.878 5.214 7.714 6.25 2.561.916 4.879.504 5.793-.807-.747-.259-2.53-.87-3.75-1.372-1.585-.67-6.052-2.729-6.052-2.729s4.771 1.28 6.433 1.784c1.266.382 3.034 1.068 3.766 1.341.242-1.54-1.159-3.308-3.735-4.238" style="fill:#eec214;fill-opacity:1;fill-rule:nonzero;stroke:none;stroke-width:3.90279" transform="translate(-135.43 -133.13)"/><path d="M204.2 151.042c.472 2.79-.443 5.58-2.82 6.464l-.045.012-1.54.229h-.044c-2.561-.153-4.36-2.546-4.833-5.306-.488-2.942-.088-7.927 2.195-10.382l.641-.701.884.427c3.308 1.585 5.061 6.433 5.549 9.254" style="fill:#000;fill-opacity:1;fill-rule:nonzero;stroke:none;stroke-width:3.90279" transform="translate(-135.43 -133.13)"/><path d="M196.196 152.246c-.488-2.82 0-7.348 1.875-9.39 2.714 1.295 4.406 5.549 4.879 8.384.442 2.546-.473 4.59-2.043 5.153-.11-.717-.35-2.515-.64-3.735-.368-1.585-1.57-6.129-1.57-6.129s.35 4.666.533 6.297c.12 1.235.457 3.003.594 3.75-1.662-.11-3.202-1.768-3.629-4.33" style="fill:#eec214;fill-opacity:1;fill-rule:nonzero;stroke:none;stroke-width:3.90279" transform="translate(-135.43 -133.13)"/><path d="M190.784 153.481c2.241 1.845 5.26 2.592 7.302 1.159l.067-.012 1.006-1.113.045-.033c1.22-2.119 0-4.832-2.257-6.677-2.378-1.936-7.074-4.254-10.488-3.75l-.976.137-.089.944c-.32 3.492 3.095 7.455 5.412 9.346" style="fill:#000;fill-opacity:1;fill-rule:nonzero;stroke:none;stroke-width:3.90279" transform="translate(-135.43 -133.13)"/><path d="M196.09 147.719c-2.287-1.876-6.602-3.918-9.468-3.476-.258 2.85 2.698 6.464 4.985 8.339 2.074 1.692 4.406 2.027 5.732 1.113-.594-.488-2.073-1.631-3.033-2.5a675.203 675.203 0 0 1-4.696-4.513s4.04 2.76 5.412 3.735c1.037.778 2.455 1.982 3.034 2.485.808-1.372.12-3.491-1.967-5.183" style="fill:#eec214;fill-opacity:1;fill-rule:nonzero;stroke:none;stroke-width:3.90279" transform="translate(-135.43 -133.13)"/><path d="M208.682 159c-.152 2.805-1.677 5.366-4.193 5.778h-.066l-1.54-.077-.044-.012c-2.47-.64-3.704-3.339-3.552-6.144.168-2.973 1.677-7.76 4.436-9.711l.778-.564.778.58c2.881 2.21 3.552 7.271 3.384 10.153" style="fill:#000;fill-opacity:1;fill-rule:nonzero;stroke:none;stroke-width:3.90279" transform="translate(-135.43 -133.13)"/><path d="M200.571 158.604c.169-2.866 1.617-7.196 3.934-8.827 2.363 1.814 3.08 6.311 2.911 9.162-.151 2.592-1.493 4.39-3.14 4.65.078-.747.215-2.53.2-3.78 0-1.632-.184-6.312-.184-6.312s-.702 4.634-.884 6.25c-.153 1.235-.215 3.05-.23 3.796-1.616-.427-2.744-2.363-2.607-4.94" style="fill:#eec214;fill-opacity:1;fill-rule:nonzero;stroke:none;stroke-width:3.90279" transform="translate(-135.43 -133.13)"/><path d="M211.182 167.934c-.807 2.713-2.896 4.878-5.457 4.741l-.045-.011-1.494-.396-.044-.012c-2.241-1.159-2.775-4.055-1.967-6.754.87-2.835 3.476-7.196 6.632-8.522l.915-.382.594.747c2.302 2.744 1.723 7.836.87 10.596" style="fill:#000;fill-opacity:1;fill-rule:nonzero;stroke:none;stroke-width:3.90279" transform="translate(-135.43 -133.13)"/><path d="M203.392 165.83c.839-2.744 3.278-6.647 5.915-7.76 1.875 2.256 1.51 6.784.67 9.528-.762 2.485-2.5 3.964-4.177 3.873.243-.702.808-2.424 1.098-3.644.383-1.6 1.326-6.19 1.326-6.19s-1.784 4.376-2.348 5.916c-.442 1.174-.915 2.912-1.127 3.643-1.464-.762-2.104-2.881-1.357-5.366" style="fill:#eec214;fill-opacity:1;fill-rule:nonzero;stroke:none;stroke-width:3.90279" transform="translate(-135.43 -133.13)"/><path d="M195.403 161.134c1.753 2.287 4.498 3.66 6.845 2.699l.045-.012 1.25-.854.045-.033c1.692-1.814 1.158-4.71-.58-6.967-1.86-2.409-5.9-5.656-9.33-5.885l-.991-.077-.32.884c-1.144 3.338 1.235 7.927 3.049 10.245" style="fill:#000;fill-opacity:1;fill-rule:nonzero;stroke:none;stroke-width:3.90279" transform="translate(-135.43 -133.13)"/><path d="M201.959 156.652c-1.784-2.302-5.52-5.198-8.4-5.397-.93 2.73 1.082 6.876 2.866 9.193 1.6 2.089 3.78 2.912 5.32 2.287-.488-.594-1.63-2.027-2.362-3.064-.93-1.387-3.492-5.397-3.492-5.397s3.263 3.537 4.36 4.802c.839.945 1.921 2.44 2.379 3.05 1.112-1.175.93-3.385-.67-5.474" style="fill:#eec214;fill-opacity:1;fill-rule:nonzero;stroke:none;stroke-width:3.90279" transform="translate(-135.43 -133.13)"/><path d="M211.93 176.715c-1.342 2.485-3.827 4.254-6.312 3.659h-.067l-1.402-.701c-1.982-1.54-1.921-4.452-.58-6.952 1.448-2.653 4.863-6.449 8.248-7.18l.96-.214.457.838c1.692 3.126.089 8.004-1.31 10.55" style="fill:#000;fill-opacity:1;fill-rule:nonzero;stroke:none;stroke-width:3.90279" transform="translate(-135.43 -133.13)"/><path d="M204.703 173.27c1.387-2.561 4.589-5.961 7.41-6.571 1.386 2.561.077 6.937-1.312 9.483-1.235 2.286-3.262 3.414-4.878 3.049.382-.67 1.296-2.226 1.83-3.385.685-1.494 2.545-5.824 2.545-5.824s-2.622 3.98-3.506 5.367c-.656 1.067-1.494 2.683-1.845 3.369-1.28-1.006-1.494-3.202-.242-5.488" style="fill:#eec214;fill-opacity:1;fill-rule:nonzero;stroke:none;stroke-width:3.90279" transform="translate(-135.43 -133.13)"/><path d="M198.666 170.007c1.296 2.516 3.765 4.3 6.25 3.75h.045l1.402-.64.045-.044c1.997-1.494 1.997-4.421.701-6.952-1.372-2.668-4.756-6.525-8.095-7.303l-.96-.244-.473.823c-1.753 3.095-.242 8.019 1.098 10.61" style="fill:#000;fill-opacity:1;fill-rule:nonzero;stroke:none;stroke-width:3.90279" transform="translate(-135.43 -133.13)"/><path d="M205.969 166.653c-1.342-2.576-4.483-6.037-7.288-6.692-1.418 2.53-.214 6.92 1.113 9.513 1.22 2.317 3.201 3.49 4.833 3.14-.367-.686-1.25-2.287-1.753-3.43-.67-1.51-2.455-5.87-2.455-5.87s2.546 4.01 3.4 5.443c.67 1.068 1.463 2.699 1.768 3.4 1.326-.991 1.57-3.186.383-5.504" style="fill:#eec214;fill-opacity:1;fill-rule:nonzero;stroke:none;stroke-width:3.90279" transform="translate(-135.43 -133.13)"/><path d="M210.938 185.268c-1.783 2.24-4.558 3.582-6.906 2.576l-.044-.033-1.235-.854-.044-.044c-1.677-1.845-1.082-4.696.717-6.937 1.906-2.393 5.976-5.55 9.437-5.717l.991-.066.289.884c1.097 3.338-1.388 7.897-3.232 10.184" style="fill:#000;fill-opacity:1;fill-rule:nonzero;stroke:none;stroke-width:3.90279" transform="translate(-135.43 -133.13)"/><path d="M204.474 180.679c1.815-2.287 5.61-5.092 8.492-5.244.884 2.728-1.204 6.845-3.034 9.116-1.646 2.074-3.857 2.851-5.366 2.21.488-.593 1.692-1.996 2.424-3.033.945-1.357 3.598-5.32 3.598-5.32s-3.339 3.475-4.452 4.71c-.868.945-1.982 2.409-2.454 3.019-1.068-1.205-.869-3.385.792-5.458" style="fill:#eec214;fill-opacity:1;fill-rule:nonzero;stroke:none;stroke-width:3.90279" transform="translate(-135.43 -133.13)"/><path d="M199.428 178.484c.549 2.728 2.44 5.076 5 5.152h.045l1.525-.274.044-.011c2.332-.96 3.14-3.796 2.592-6.54-.61-2.912-2.805-7.47-5.824-9.041l-.87-.457-.67.686c-2.531 2.561-2.44 7.668-1.845 10.489" style="fill:#000;fill-opacity:1;fill-rule:nonzero;stroke:none;stroke-width:3.90279" transform="translate(-135.43 -133.13)"/><path d="M207.386 177.035c-.579-2.82-2.653-6.906-5.183-8.232-2.073 2.104-2.12 6.647-1.54 9.452.518 2.53 2.119 4.147 3.796 4.177-.168-.731-.58-2.485-.747-3.705-.23-1.6-.762-6.265-.762-6.265s1.372 4.497 1.8 6.067c.319 1.205.654 2.988.777 3.72 1.524-.625 2.378-2.698 1.86-5.214" style="fill:#eec214;fill-opacity:1;fill-rule:nonzero;stroke:none;stroke-width:3.90279" transform="translate(-135.43 -133.13)"/><path d="M207.859 193.866c-2.241 1.83-5.275 2.592-7.318 1.159l-.044-.033-1.006-1.098-.044-.044c-1.22-2.104 0-4.818 2.256-6.662 2.378-1.937 7.074-4.254 10.504-3.75l.96.136.11.93c.32 3.507-3.109 7.471-5.411 9.362" style="fill:#000;fill-opacity:1;fill-rule:nonzero;stroke:none;stroke-width:3.90279" transform="translate(-135.43 -133.13)"/><path d="M202.538 188.103c2.302-1.875 6.617-3.918 9.467-3.475.258 2.85-2.698 6.463-4.985 8.339-2.058 1.677-4.39 2.027-5.732 1.097.61-.472 2.089-1.616 3.034-2.5 1.235-1.144 4.695-4.513 4.695-4.513s-4.024 2.775-5.396 3.75c-1.052.778-2.47 1.982-3.05 2.486-.793-1.388-.12-3.507 1.967-5.184" style="fill:#eec214;fill-opacity:1;fill-rule:nonzero;stroke:none;stroke-width:3.90279" transform="translate(-135.43 -133.13)"/><path d="M197.583 186.396c-.304 2.775.763 5.55 3.202 6.311l.044.012 1.555.153.045-.012c2.53-.274 4.192-2.76 4.497-5.55.352-2.942-.35-7.896-2.744-10.213l-.67-.686-.869.472c-3.232 1.738-4.71 6.647-5.046 9.513" style="fill:#000;fill-opacity:1;fill-rule:nonzero;stroke:none;stroke-width:3.90279" transform="translate(-135.43 -133.13)"/><path d="M205.663 187.189c.32-2.836-.396-7.349-2.393-9.3-2.637 1.433-4.1 5.778-4.421 8.629-.289 2.561.762 4.543 2.332 5.061.067-.746.215-2.546.443-3.78.273-1.617 1.235-6.19 1.235-6.19s-.11 4.665-.184 6.296c-.044 1.25-.304 3.019-.411 3.766 1.661-.168 3.11-1.921 3.4-4.482" style="fill:#eec214;fill-opacity:1;fill-rule:nonzero;stroke:none;stroke-width:3.90279" transform="translate(-135.43 -133.13)"/><path d="M203.331 201.595c-2.561 1.388-5.671 1.601-7.41-.168l-.044-.044-.762-1.265-.044-.033c-.762-2.303.976-4.742 3.552-6.13 2.744-1.493 7.806-2.926 11.083-1.813l.915.32-.11.914c-.383 3.491-4.543 6.785-7.211 8.218" style="fill:#000;fill-opacity:1;fill-rule:nonzero;stroke:none;stroke-width:3.90279" transform="translate(-135.43 -133.13)"/><path d="M199.29 194.979c2.623-1.433 7.273-2.637 10.002-1.723-.32 2.866-3.933 5.87-6.586 7.303-2.378 1.296-4.726 1.204-5.854.044.701-.35 2.393-1.22 3.49-1.89 1.449-.9 5.52-3.583 5.52-3.583s-4.498 1.982-6.053 2.714c-1.204.548-2.835 1.494-3.506 1.875-.488-1.494.61-3.46 2.988-4.742" style="fill:#eec214;fill-opacity:1;fill-rule:nonzero;stroke:none;stroke-width:3.90279" transform="translate(-135.43 -133.13)"/><path d="M193.422 194.14c-1.022 2.638-.702 5.565 1.463 6.86l.044.013 1.464.518h.044c2.531.306 4.772-1.722 5.793-4.375 1.084-2.79 1.708-7.745-.044-10.55l-.488-.823-.945.26c-3.582.975-6.296 5.411-7.333 8.094" style="fill:#000;fill-opacity:1;fill-rule:nonzero;stroke:none;stroke-width:3.90279" transform="translate(-135.43 -133.13)"/><path d="M201.029 196.763c1.036-2.683 1.509-7.211.077-9.56-2.942.779-5.458 4.666-6.51 7.364-.93 2.41-.442 4.574.96 5.428.258-.717.87-2.409 1.388-3.552.701-1.494 2.805-5.733 2.805-5.733s-1.296 4.513-1.799 6.053c-.383 1.22-1.067 2.881-1.372 3.582 1.677.214 3.506-1.158 4.451-3.582" style="fill:#eec214;fill-opacity:1;fill-rule:nonzero;stroke:none;stroke-width:3.90279" transform="translate(-135.43 -133.13)"/><path d="M196.836 208.456c-2.85.823-5.915.35-7.195-1.738v-.044l-.457-1.388v-.044c-.2-2.409 2.073-4.406 4.924-5.23 3.018-.868 8.324-1.188 11.22.58l.84.52-.336.869c-1.205 3.323-6.037 5.625-8.98 6.48" style="fill:#000;fill-opacity:1;fill-rule:nonzero;stroke:none;stroke-width:3.90279" transform="translate(-135.43 -133.13)"/><path d="M194.458 201.138c2.927-.823 7.745-1.021 10.169.457-.991 2.714-5.244 4.878-8.156 5.717-2.623.747-4.894.168-5.717-1.19.777-.197 2.622-.685 3.841-1.127 1.632-.565 6.236-2.302 6.236-2.302s-4.863.975-6.54 1.357c-1.297.29-3.11.838-3.858 1.097-.12-1.57 1.403-3.232 4.025-4.01" style="fill:#eec214;fill-opacity:1;fill-rule:nonzero;stroke:none;stroke-width:3.90279" transform="translate(-135.43 -133.13)"/><path d="M187.552 200.62c-1.707 2.317-2.195 5.198-.472 6.982l.044.044 1.28.824.045.011c2.363.93 5.092-.503 6.784-2.79 1.83-2.44 3.78-7.074 2.881-10.214l-.258-.9-.975.012c-3.72.044-7.562 3.674-9.315 6.022" style="fill:#000;fill-opacity:1;fill-rule:nonzero;stroke:none;stroke-width:3.90279" transform="translate(-135.43 -133.13)"/><path d="M194.199 204.995c1.738-2.348 3.43-6.586 2.698-9.223-3.064.055-6.57 3.201-8.308 5.55-1.586 2.103-1.708 4.298-.565 5.472.427-.625 1.48-2.119 2.317-3.095 1.084-1.28 4.285-4.863 4.285-4.863s-2.516 4.04-3.415 5.427a41.23 41.23 0 0 1-2.317 3.11c1.554.61 3.72-.258 5.305-2.378" style="fill:#eec214;fill-opacity:1;fill-rule:nonzero;stroke:none;stroke-width:3.90279" transform="translate(-135.43 -133.13)"/><path d="M188.619 213.792c-2.988.152-5.854-1.006-6.54-3.324v-.044l-.088-1.464v-.033c.442-2.378 3.17-3.811 6.128-3.948 3.171-.153 8.37.73 10.733 3.11l.686.686-.533.777c-2.043 2.958-7.333 4.086-10.383 4.239" style="fill:#000;fill-opacity:1;fill-rule:nonzero;stroke:none;stroke-width:3.90279" transform="translate(-135.43 -133.13)"/><path d="M188.193 206.169c3.033-.153 7.76.762 9.741 2.744-1.662 2.409-6.342 3.537-9.376 3.674-2.744.138-4.802-.915-5.244-2.439.793-.012 2.714-.077 4.025-.213 1.722-.183 6.631-.839 6.631-.839s-4.97-.153-6.708-.153c-1.31-.011-3.216.122-4.024.168.273-1.54 2.21-2.805 4.955-2.942" style="fill:#eec214;fill-opacity:1;fill-rule:nonzero;stroke:none;stroke-width:3.90279" transform="translate(-135.43 -133.13)"/><path d="M180.616 204.507c-2.424 1.601-3.934 4.178-2.974 6.403v.045l.884 1.189.045.033c1.89 1.631 4.97 1.174 7.41-.443 2.59-1.692 6.113-5.427 6.417-8.659l.078-.945-.915-.29c-3.522-1.143-8.446 1.022-10.962 2.668" style="fill:#000;fill-opacity:1;fill-rule:nonzero;stroke:none;stroke-width:3.90279" transform="translate(-135.43 -133.13)"/><path d="M185.265 210.773c2.516-1.662 5.641-5.107 5.9-7.805-2.881-.945-7.317.883-9.818 2.515-2.241 1.479-3.17 3.827-2.53 5.29.64-.457 1.95-1.585 3.308-2.485 2.134-1.418 5.793-3.186 5.793-3.186s-3.156 2.47-5.184 4.01c-1.28.975-2.637 2.088-3.292 2.484 1.235 1.068 3.598.64 5.823-.823" style="fill:#eec214;fill-opacity:1;fill-rule:nonzero;stroke:none;stroke-width:3.90279" transform="translate(-135.43 -133.13)"/><path d="M161.056 139.12c-1.845 2.226-2.485 5.092-.869 6.937l.044.044 1.235.884.045.033c2.302 1.021 5.122-.259 6.936-2.47 1.952-2.347 4.178-6.875 3.446-10.046l-.215-.93-.976-.012c-3.72-.137-7.76 3.308-9.635 5.564" style="fill:#000;fill-opacity:1;fill-rule:nonzero;stroke:none;stroke-width:3.90279" transform="translate(-135.43 -133.13)"/><path d="M167.459 143.831c1.875-2.271 3.78-6.434 3.186-9.086-3.05-.11-6.723 2.866-8.599 5.122-1.676 2.028-1.92 4.223-.868 5.428.472-.596 1.616-2.043 2.485-2.989 1.143-1.204 4.528-4.634 4.528-4.634s-2.698 3.933-3.674 5.26c-.762 1.036-1.967 2.424-2.485 3.018 1.51.656 3.735-.088 5.427-2.119" style="fill:#eec214;fill-opacity:1;fill-rule:nonzero;stroke:none;stroke-width:3.90279" transform="translate(-135.43 -133.13)"/><path d="M152.595 143.892c-1.159 2.592-.992 5.504 1.082 6.906l.044.044 1.433.55.044.01c2.5.443 4.864-1.493 6.038-4.055 1.235-2.744 2.119-7.668.548-10.565l-.441-.838-.96.213c-3.629.794-6.586 5.092-7.79 7.73" style="fill:#000;fill-opacity:1;fill-rule:nonzero;stroke:none;stroke-width:3.90279" transform="translate(-135.43 -133.13)"/><path d="M160.065 146.88c1.189-2.637 1.89-7.12.595-9.559-2.973.656-5.702 4.406-6.89 7.044-1.084 2.378-.702 4.558.654 5.473.289-.702.991-2.363 1.586-3.492.778-1.448 3.11-5.58 3.11-5.58s-1.555 4.452-2.12 5.977c-.456 1.174-1.234 2.805-1.57 3.491 1.632.29 3.568-.976 4.635-3.354" style="fill:#eec214;fill-opacity:1;fill-rule:nonzero;stroke:none;stroke-width:3.90279" transform="translate(-135.43 -133.13)"/><path d="M164.99 147.795c-2.79 1.005-5.901.747-7.319-1.235v-.055l-.564-1.357v-.044c-.367-2.379 1.753-4.513 4.544-5.535 2.942-1.067 8.216-1.737 11.235-.152l.869.457-.258.884c-.96 3.4-5.626 6.006-8.476 7.043" style="fill:#000;fill-opacity:1;fill-rule:nonzero;stroke:none;stroke-width:3.90279" transform="translate(-135.43 -133.13)"/><path d="M162.062 140.675c2.85-1.02 7.653-1.54 10.184-.229-.808 2.775-4.879 5.214-7.714 6.25-2.577.916-4.879.504-5.793-.807.746-.259 2.545-.87 3.765-1.372 1.555-.67 6.037-2.729 6.037-2.729s-4.771 1.28-6.418 1.784c-1.28.382-3.05 1.068-3.766 1.341-.258-1.54 1.159-3.308 3.705-4.238" style="fill:#eec214;fill-opacity:1;fill-rule:nonzero;stroke:none;stroke-width:3.90279" transform="translate(-135.43 -133.13)"/><path d="M146.085 151.042c-.473 2.79.457 5.58 2.82 6.464l.045.012 1.524.229h.066c2.547-.153 4.345-2.546 4.803-5.306.503-2.942.088-7.927-2.165-10.382l-.656-.701-.869.427c-3.338 1.585-5.091 6.433-5.564 9.254" style="fill:#000;fill-opacity:1;fill-rule:nonzero;stroke:none;stroke-width:3.90279" transform="translate(-135.43 -133.13)"/><path d="M154.089 152.246c.472-2.82.044-7.348-1.876-9.39-2.713 1.295-4.405 5.549-4.878 8.384-.427 2.546.488 4.59 2.027 5.153.111-.717.368-2.515.656-3.735.383-1.585 1.57-6.129 1.57-6.129s-.35 4.666-.518 6.297c-.12 1.235-.472 3.003-.625 3.75 1.677-.11 3.217-1.768 3.644-4.33" style="fill:#eec214;fill-opacity:1;fill-rule:nonzero;stroke:none;stroke-width:3.90279" transform="translate(-135.43 -133.13)"/><path d="M159.516 153.481c-2.256 1.845-5.26 2.592-7.333 1.159l-.044-.012-1.037-1.113v-.033c-1.204-2.119 0-4.832 2.241-6.677 2.409-1.936 7.09-4.254 10.52-3.75l.975.137.077.944c.336 3.492-3.094 7.455-5.396 9.346" style="fill:#000;fill-opacity:1;fill-rule:nonzero;stroke:none;stroke-width:3.90279" transform="translate(-135.43 -133.13)"/><path d="M154.18 147.719c2.287-1.876 6.616-3.918 9.467-3.476.274 2.85-2.668 6.464-4.97 8.339-2.058 1.692-4.39 2.027-5.747 1.113.625-.488 2.104-1.631 3.034-2.5a672.488 672.488 0 0 0 4.695-4.513s-4.01 2.76-5.381 3.735c-1.068.778-2.47 1.982-3.065 2.485-.777-1.372-.11-3.491 1.967-5.183" style="fill:#eec214;fill-opacity:1;fill-rule:nonzero;stroke:none;stroke-width:3.90279" transform="translate(-135.43 -133.13)"/><path d="M141.603 159c.153 2.805 1.661 5.366 4.207 5.778h.045l1.555-.077.044-.012c2.47-.64 3.69-3.339 3.521-6.144-.152-2.973-1.646-7.76-4.405-9.711l-.794-.564-.777.58c-2.897 2.21-3.538 7.271-3.385 10.153" style="fill:#000;fill-opacity:1;fill-rule:nonzero;stroke:none;stroke-width:3.90279" transform="translate(-135.43 -133.13)"/><path d="M149.713 158.604c-.168-2.866-1.616-7.196-3.918-8.827-2.378 1.814-3.08 6.311-2.927 9.162.136 2.592 1.494 4.39 3.156 4.65-.077-.747-.215-2.53-.215-3.78 0-1.632.184-6.312.184-6.312s.686 4.634.9 6.25c.135 1.235.183 3.05.199 3.796 1.616-.427 2.759-2.363 2.622-4.94" style="fill:#eec214;fill-opacity:1;fill-rule:nonzero;stroke:none;stroke-width:3.90279" transform="translate(-135.43 -133.13)"/><path d="M139.087 167.934c.839 2.713 2.912 4.878 5.473 4.741l.045-.011 1.494-.396.044-.012c2.226-1.159 2.79-4.056 1.967-6.754-.869-2.836-3.476-7.196-6.632-8.522l-.9-.382-.609.747c-2.287 2.744-1.723 7.836-.884 10.595" style="fill:#000;fill-opacity:1;fill-rule:nonzero;stroke:none;stroke-width:3.90279" transform="translate(-135.43 -133.13)"/><path d="M146.908 165.83c-.854-2.744-3.308-6.647-5.946-7.76-1.875 2.256-1.494 6.784-.64 9.528.747 2.485 2.5 3.964 4.162 3.873-.242-.702-.808-2.424-1.113-3.644-.367-1.6-1.31-6.19-1.31-6.19s1.768 4.376 2.362 5.916c.427 1.174.915 2.912 1.113 3.643 1.479-.762 2.119-2.881 1.372-5.366" style="fill:#eec214;fill-opacity:1;fill-rule:nonzero;stroke:none;stroke-width:3.90279" transform="translate(-135.43 -133.13)"/><path d="M154.897 161.134c-1.754 2.287-4.498 3.66-6.86 2.699l-.045-.012-1.235-.854-.044-.033c-1.693-1.814-1.159-4.711.594-6.967 1.86-2.41 5.87-5.656 9.33-5.885l.991-.077.304.884c1.144 3.338-1.25 7.927-3.034 10.245" style="fill:#000;fill-opacity:1;fill-rule:nonzero;stroke:none;stroke-width:3.90279" transform="translate(-135.43 -133.13)"/><path d="M148.326 156.652c1.784-2.302 5.504-5.198 8.385-5.397.96 2.73-1.052 6.876-2.836 9.193-1.616 2.089-3.796 2.912-5.336 2.287.488-.594 1.647-2.027 2.363-3.064.93-1.387 3.492-5.397 3.492-5.397s-3.248 3.537-4.346 4.802c-.852.945-1.95 2.44-2.393 3.05-1.098-1.175-.945-3.385.67-5.474" style="fill:#eec214;fill-opacity:1;fill-rule:nonzero;stroke:none;stroke-width:3.90279" transform="translate(-135.43 -133.13)"/><path d="M138.34 176.715c1.357 2.485 3.857 4.254 6.327 3.659h.044l1.388-.686.044-.012c1.967-1.54 1.936-4.451.58-6.951-1.433-2.653-4.879-6.45-8.248-7.18l-.96-.214-.443.838c-1.707 3.125-.11 8.004 1.28 10.55" style="fill:#000;fill-opacity:1;fill-rule:nonzero;stroke:none;stroke-width:3.90279" transform="translate(-135.43 -133.13)"/><path d="M145.582 173.27c-1.388-2.561-4.59-5.961-7.394-6.571-1.387 2.561-.089 6.937 1.28 9.483 1.25 2.286 3.263 3.414 4.879 3.049-.383-.67-1.28-2.226-1.799-3.385-.701-1.494-2.576-5.824-2.576-5.824s2.637 3.98 3.506 5.367c.686 1.067 1.51 2.683 1.845 3.369 1.28-1.006 1.494-3.202.257-5.488" style="fill:#eec214;fill-opacity:1;fill-rule:nonzero;stroke:none;stroke-width:3.90279" transform="translate(-135.43 -133.13)"/><path d="M151.634 170.007c-1.311 2.516-3.78 4.3-6.266 3.75h-.044l-1.387-.64-.045-.044c-1.997-1.494-2.027-4.421-.717-6.952 1.388-2.668 4.757-6.525 8.11-7.303l.961-.244.457.823c1.753 3.095.242 8.019-1.082 10.61" style="fill:#000;fill-opacity:1;fill-rule:nonzero;stroke:none;stroke-width:3.90279" transform="translate(-135.43 -133.13)"/><path d="M144.332 166.653c1.341-2.576 4.466-6.037 7.257-6.692 1.448 2.53.23 6.92-1.113 9.513-1.19 2.317-3.187 3.49-4.803 3.14.367-.686 1.235-2.287 1.754-3.43.655-1.51 2.454-5.87 2.454-5.87s-2.561 4.01-3.415 5.443c-.656 1.068-1.448 2.699-1.784 3.4-1.31-.991-1.555-3.186-.352-5.504" style="fill:#eec214;fill-opacity:1;fill-rule:nonzero;stroke:none;stroke-width:3.90279" transform="translate(-135.43 -133.13)"/><path d="M139.346 185.268c1.784 2.24 4.574 3.582 6.891 2.576l.067-.033 1.235-.854.044-.044c1.646-1.845 1.067-4.696-.731-6.937-1.891-2.393-5.976-5.55-9.422-5.717l-.991-.066-.305.884c-1.097 3.338 1.388 7.897 3.232 10.184" style="fill:#000;fill-opacity:1;fill-rule:nonzero;stroke:none;stroke-width:3.90279" transform="translate(-135.43 -133.13)"/><path d="M145.826 180.679c-1.845-2.287-5.61-5.092-8.492-5.244-.9 2.728 1.204 6.845 3.019 9.116 1.646 2.074 3.841 2.851 5.366 2.21-.503-.593-1.677-1.996-2.409-3.033-.96-1.357-3.598-5.32-3.598-5.32s3.308 3.475 4.452 4.71c.854.945 1.982 2.409 2.424 3.019 1.097-1.205.884-3.385-.762-5.458" style="fill:#eec214;fill-opacity:1;fill-rule:nonzero;stroke:none;stroke-width:3.90279" transform="translate(-135.43 -133.13)"/><path d="M150.857 178.484c-.564 2.728-2.44 5.076-5 5.152h-.045l-1.51-.274-.066-.011c-2.347-.96-3.155-3.796-2.576-6.54.594-2.912 2.79-7.47 5.809-9.041l.854-.457.686.686c2.545 2.561 2.439 7.668 1.844 10.489" style="fill:#000;fill-opacity:1;fill-rule:nonzero;stroke:none;stroke-width:3.90279" transform="translate(-135.43 -133.13)"/><path d="M142.914 177.035c.564-2.82 2.653-6.906 5.168-8.232 2.089 2.104 2.12 6.647 1.524 9.452-.519 2.53-2.118 4.147-3.78 4.177.168-.731.58-2.485.746-3.705.243-1.6.763-6.265.763-6.265s-1.372 4.497-1.8 6.067c-.334 1.205-.655 2.988-.792 3.72-1.525-.625-2.364-2.698-1.83-5.214" style="fill:#eec214;fill-opacity:1;fill-rule:nonzero;stroke:none;stroke-width:3.90279" transform="translate(-135.43 -133.13)"/><path d="M142.426 193.866c2.256 1.83 5.26 2.592 7.318 1.159l.044-.033 1.021-1.098v-.044c1.22-2.104 0-4.818-2.24-6.662-2.379-1.937-7.09-4.254-10.505-3.75l-.976.136-.088.93c-.32 3.507 3.11 7.471 5.412 9.362" style="fill:#000;fill-opacity:1;fill-rule:nonzero;stroke:none;stroke-width:3.90279" transform="translate(-135.43 -133.13)"/><path d="M147.747 188.103c-2.287-1.875-6.617-3.918-9.468-3.475-.273 2.85 2.683 6.463 4.97 8.339 2.089 1.677 4.406 2.027 5.748 1.097-.625-.472-2.074-1.616-3.034-2.5-1.235-1.144-4.68-4.513-4.68-4.513s4.01 2.775 5.381 3.75c1.052.778 2.47 1.982 3.05 2.486.807-1.388.11-3.507-1.967-5.184" style="fill:#eec214;fill-opacity:1;fill-rule:nonzero;stroke:none;stroke-width:3.90279" transform="translate(-135.43 -133.13)"/><path d="M152.686 186.396c.32 2.775-.747 5.55-3.171 6.311l-.066.012-1.525.153-.066-.012c-2.53-.274-4.193-2.76-4.513-5.55-.32-2.942.352-7.896 2.745-10.213l.7-.686.855.472c3.232 1.738 4.726 6.647 5.031 9.513" style="fill:#000;fill-opacity:1;fill-rule:nonzero;stroke:none;stroke-width:3.90279" transform="translate(-135.43 -133.13)"/><path d="M144.621 187.189c-.32-2.836.383-7.349 2.409-9.3 2.638 1.433 4.07 5.778 4.406 8.629.273 2.561-.747 4.543-2.333 5.061-.066-.746-.23-2.546-.427-3.78a716.187 716.187 0 0 0-1.235-6.19s.089 4.665.184 6.296c.044 1.25.289 3.019.396 3.766-1.662-.168-3.11-1.921-3.4-4.482" style="fill:#eec214;fill-opacity:1;fill-rule:nonzero;stroke:none;stroke-width:3.90279" transform="translate(-135.43 -133.13)"/><path d="M146.939 201.595c2.591 1.388 5.701 1.601 7.44-.168v-.044l.777-1.265v-.033c.762-2.303-.976-4.742-3.552-6.13-2.729-1.493-7.82-2.926-11.068-1.813l-.945.32.11.914c.397 3.491 4.574 6.785 7.212 8.218" style="fill:#000;fill-opacity:1;fill-rule:nonzero;stroke:none;stroke-width:3.90279" transform="translate(-135.43 -133.13)"/><path d="M151.009 194.979c-2.653-1.433-7.303-2.637-10.016-1.723.32 2.866 3.948 5.87 6.586 7.303 2.363 1.296 4.726 1.204 5.854.044a55.981 55.981 0 0 1-3.491-1.89c-1.448-.9-5.504-3.583-5.504-3.583s4.498 1.982 6.038 2.714c1.189.548 2.82 1.494 3.49 1.875.504-1.494-.609-3.46-2.957-4.742" style="fill:#eec214;fill-opacity:1;fill-rule:nonzero;stroke:none;stroke-width:3.90279" transform="translate(-135.43 -133.13)"/><path d="M156.878 194.14c1.021 2.638.686 5.565-1.463 6.86l-.044.013-1.449.518h-.044c-2.546.306-4.802-1.722-5.809-4.375-1.097-2.79-1.707-7.745 0-10.55l.504-.823.96.26c3.583.975 6.281 5.411 7.333 8.094" style="fill:#000;fill-opacity:1;fill-rule:nonzero;stroke:none;stroke-width:3.90279" transform="translate(-135.43 -133.13)"/><path d="M149.24 196.763c-1.036-2.683-1.493-7.211-.044-9.56 2.912.779 5.443 4.666 6.48 7.364.944 2.41.456 4.574-.96 5.428-.231-.717-.84-2.409-1.388-3.552-.686-1.494-2.775-5.733-2.775-5.733s1.281 4.513 1.769 6.053c.383 1.22 1.082 2.881 1.372 3.582-1.647.214-3.506-1.158-4.452-3.582" style="fill:#eec214;fill-opacity:1;fill-rule:nonzero;stroke:none;stroke-width:3.90279" transform="translate(-135.43 -133.13)"/><path d="M153.448 208.456c2.851.823 5.931.35 7.196-1.738v-.044l.457-1.388v-.044c.2-2.409-2.074-4.406-4.924-5.23-3.019-.868-8.324-1.188-11.221.58l-.823.52.32.869c1.204 3.323 6.052 5.625 8.98 6.48" style="fill:#000;fill-opacity:1;fill-rule:nonzero;stroke:none;stroke-width:3.90279" transform="translate(-135.43 -133.13)"/><path d="M155.811 201.138c-2.896-.823-7.73-1.021-10.138.457.991 2.714 5.245 4.878 8.141 5.717 2.622.747 4.894.168 5.717-1.19-.762-.197-2.607-.685-3.857-1.127-1.616-.565-6.22-2.302-6.22-2.302s4.848.975 6.54 1.357c1.296.29 3.095.838 3.873 1.097.12-1.57-1.433-3.232-4.056-4.01" style="fill:#eec214;fill-opacity:1;fill-rule:nonzero;stroke:none;stroke-width:3.90279" transform="translate(-135.43 -133.13)"/><path d="M162.748 200.62c1.692 2.317 2.18 5.198.457 6.982l-.045.044-1.265.824-.044.011c-2.363.93-5.092-.503-6.815-2.79-1.799-2.44-3.766-7.074-2.866-10.214l.242-.9.992.012c3.735.044 7.561 3.674 9.33 6.022" style="fill:#000;fill-opacity:1;fill-rule:nonzero;stroke:none;stroke-width:3.90279" transform="translate(-135.43 -133.13)"/><path d="M156.086 204.995c-1.738-2.348-3.43-6.586-2.683-9.223 3.049.055 6.54 3.201 8.308 5.55 1.555 2.103 1.692 4.298.564 5.472-.456-.625-1.509-2.119-2.332-3.095-1.067-1.28-4.269-4.863-4.269-4.863s2.486 4.04 3.385 5.427c.717 1.068 1.845 2.531 2.317 3.11-1.555.61-3.704-.258-5.29-2.378" style="fill:#eec214;fill-opacity:1;fill-rule:nonzero;stroke:none;stroke-width:3.90279" transform="translate(-135.43 -133.13)"/><path d="M161.666 213.792c2.988.152 5.854-1.006 6.525-3.324l.044-.044.077-1.464v-.033c-.411-2.378-3.14-3.811-6.128-3.948-3.14-.153-8.37.731-10.718 3.11l-.67.686.533.777c2.013 2.958 7.318 4.086 10.367 4.238" style="fill:#000;fill-opacity:1;fill-rule:nonzero;stroke:none;stroke-width:3.90279" transform="translate(-135.43 -133.13)"/><path d="M162.108 206.169c-3.05-.153-7.79.762-9.757 2.744 1.662 2.409 6.342 3.537 9.39 3.674 2.745.138 4.788-.915 5.245-2.439-.808-.012-2.713-.077-4.04-.213-1.707-.183-6.632-.839-6.632-.839s4.97-.153 6.693-.153c1.342-.011 3.248.122 4.025.168-.273-1.54-2.195-2.805-4.924-2.942" style="fill:#eec214;fill-opacity:1;fill-rule:nonzero;stroke:none;stroke-width:3.90279" transform="translate(-135.43 -133.13)"/><path d="M169.654 204.507c2.455 1.601 3.964 4.178 2.988 6.403v.045l-.884 1.189-.044.033c-1.89 1.631-4.97 1.174-7.41-.443-2.591-1.692-6.112-5.427-6.418-8.659l-.088-.945.93-.29c3.537-1.143 8.446 1.022 10.946 2.668" style="fill:#000;fill-opacity:1;fill-rule:nonzero;stroke:none;stroke-width:3.90279" transform="translate(-135.43 -133.13)"/><path d="M165.02 210.773c-2.5-1.662-5.626-5.107-5.885-7.805 2.881-.945 7.302.883 9.818 2.515 2.226 1.479 3.018 3.842 2.394 5.305-.657-.457-1.891-1.6-3.202-2.5-2.104-1.448-5.763-3.186-5.763-3.186s3.156 2.44 5.153 4.01c1.25.975 2.5 2.103 3.156 2.5-1.22 1.067-3.43.625-5.671-.839" style="fill:#eec214;fill-opacity:1;fill-rule:nonzero;stroke:none;stroke-width:3.90279" transform="translate(-135.43 -133.13)"/></svg>