<svg xmlns="http://www.w3.org/2000/svg" width="403" height="230.00002" x="0px" y="0px" viewBox="0 0 403 230.00002"><path fill="none" d="M-23.869-15.809h1447.738v835.196H-23.87z" style="fill:#02030b;fill-opacity:0"/><path d="M218.72 249.32c114.26 0 201.59-55.33 201.59-116.13S333.05 19.35 218.78 19.35 17.26 72.4 17.26 133.19c0 60.8 87.2 116.13 201.46 116.13z" class="st0" style="fill:#034ea2" transform="matrix(.99988 0 0 1.00013 -17.258 -19.353)"/><path d="M218.72 242.32c106.31 0 194.44-52.38 194.44-109.19 0-59.72-91.13-106.67-194.38-106.71-107.14-.04-193.75 48.02-194.45 106.77-.67 55.47 87.31 109.13 194.39 109.13z" class="st1" style="fill:#fff" transform="matrix(.99988 0 0 1.00013 -17.258 -19.353)"/><path d="M406.16 133.19a187.38 99.7 0 0 1-187.38 99.7 187.38 99.7 0 0 1-187.38-99.7 187.38 99.7 0 0 1 187.38-99.7 187.38 99.7 0 0 1 187.38 99.7Z" class="st0" style="fill:#034ea2" transform="matrix(.99988 0 0 1.00013 -17.258 -19.353)"/><path d="M362.32 133.19a143.54 62.93 0 0 1-143.54 62.93 143.54 62.93 0 0 1-143.54-62.93 143.54 62.93 0 0 1 143.54-62.93 143.54 62.93 0 0 1 143.54 62.93Z" class="st1" style="fill:#fff" transform="matrix(.99988 0 0 1.00013 -17.258 -19.353)"/><path d="M355.72 133.19a136.94 56.1 0 0 1-136.94 56.1 136.94 56.1 0 0 1-136.94-56.1 136.94 56.1 0 0 1 136.94-56.1 136.94 56.1 0 0 1 136.94 56.1Z" class="st0" style="fill:#034ea2" transform="matrix(.99988 0 0 1.00013 -17.258 -19.353)"/><path d="M353.37 133.19a134.59 54.21 0 0 1-134.59 54.21 134.59 54.21 0 0 1-134.59-54.21 134.59 54.21 0 0 1 134.59-54.21 134.59 54.21 0 0 1 134.59 54.21Z" class="st1" style="fill:#fff" transform="matrix(.99988 0 0 1.00013 -17.258 -19.353)"/><path d="M201.69 133.19a7.78 7.78 0 0 1-7.78 7.78 7.78 7.78 0 0 1-7.78-7.78 7.78 7.78 0 0 1 7.78-7.78 7.78 7.78 0 0 1 7.78 7.78z" class="st2" style="fill:#ed1c24" transform="matrix(.99988 0 0 1.00013 -17.258 -19.353)"/><path d="M251.69 133.26a7.78 7.78 0 0 1-7.78 7.78 7.78 7.78 0 0 1-7.78-7.78 7.78 7.78 0 0 1 7.78-7.78 7.78 7.78 0 0 1 7.78 7.78z" class="st2" style="fill:#ed1c24" transform="matrix(.987 -.1602 .1602 .9872 -35.452 21.444)"/><path d="M198.17 91.16c-2.35 2.62-10.72 21.37-12.7 26.34-6.16 17.28-12.1 34.37-17.27 51.98-1.3 2.65-2.98 6.9-6.11 6.71-3.36-.5-13.75-3.03-15.62-3.54-1.87-.51-2.13-1.78-2.13-1.78-3.5-7.94-4.14-11.84-7.55-20.52-4.83-12.49-12.83-26.17-23.51-38.88-.93-1.79-1.18-4.17.79-5.3 7.53-4.05 14.41-6.86 21.29-9.15 2.56-.83 4.39-.06 5.01 1.96 1.16 3.85 2.17 7.2 3.26 13.62 2.41 9.45 3.99 17.08 10.71 26.32 1.06 1.04 2.31.19 2.94-1.41 3.17-6.83 10.83-33.83 12.75-45.73.69-4.17 10.04-4.33 15.57-5.02 3.29-.39 8.18-.75 10-.86 3.06-.19 4.62 2.98 2.57 5.26zM205.16 85.35c5.33-.19 8.5-.2 13.62-.28 5.5.09 10 .19 14.31.39 5.56.24 2.25 8.23 1.57 11.86-6.24 22.18-4.7 47.48-1.67 70.61.74 4.33 2.66 12.92-1.34 13.1 0 0-8.13.21-12.88.23l-13.13-.28c-4.81-.18-1.82-10.56-1.19-14.04 3.81-22.88 6.56-44.75-.19-69.63-.73-4.12-4.49-11.77.9-11.96zM312.51 100.88c3.84 1.68 7.53 2.82 7.6 10.19-.26 6.79.05 18.38-1.95 20.75-2.33 2.3-7.32 2.01-11 1.37-2.25-1.25-3.11-2.42-3.86-3.85-2.88-5.81-6.45-14.75-14.34-15.15-2.56-.25-7.88-.7-9.04 3.46-1.12 3.16.18 5.71 2.51 7.7 3.95 3.95 9.7-2.34 12.9 2.79 1.18 5.75.81 13.68.5 18.43-.58 1.98.06 4.37-3.18 4.78-5.39-.3-12.1-5.56-16.13.39-1.59 7.51.39 14.8-.31 22.14-.05.52.12 2.14-2.43 2.62-2.01.62-10.57 1.72-15.88 2.42-1.94.23-3.26.31-4.54-.44-2.97-3.17-.9-8.13.66-17.3 4.5-29.38 1.63-46-2.71-67.74-.29-2.51-1.16-6.06 1.96-6.54 12.76 1.17 39.89 5.92 59.24 13.98z" class="st2" style="fill:#ed1c24" transform="matrix(.99988 0 0 1.00013 -17.258 -19.353)"/><path d="M232.28 91.82c-2.5 11.21-4 20.21-4.83 30.04-1.67 18.33 0 32.67 3.07 51.62.14 2.59-.99 3.8-2.6 4.14-5.75.32-11.5.45-18.63-.01-2.25-.07-2.31-2.34-2.54-3.96 2.88-13.95 6.04-38.95 4.61-52.53-1.23-9.75-2.39-20.31-5.44-29.43-.13-1.38-.62-2.78 2-2.88 3.62-.5 19.37-.5 22.25.02 2.82.51 2.11 2.99 2.11 2.99zM311.83 104.05c2.82 1.22 4.7 3.27 5.22 5.9-.01 6.62-.01 14.37-1.2 18.57-.97 1.86-2.06 1.68-4.31 1.8-1.6-.16-2.88-.25-4.4-1.73-2.98-5.77-7.14-14.88-14.96-17.28-4.37-.87-8.89-1.74-12.77 1.62-2.4 2.51-4.25 4.76-3.36 9.58 1.49 3.06 3.49 5.93 7.49 7.18 6.38 1.13 7.84-2.3 9.18 1.75.57 5.62 1.07 12.87-.67 15.19-2.38 2.11-5.9-.22-8.68-.63-3.19-.42-6.6-.15-8.6 2.48-4.98 7.96-.41 24.25-3.35 24.99l-.94.37c-5.44.89-7.05 1.09-13.4 1.7-1.46-.51-1.83-3.63-1.13-6.85 3.89-18.27 4.92-35.81 2.21-54.13-.75-6.75-1.38-11.75-2.75-18.5-.5-2.63-1.25-5.55 2.75-5.09l4.01.52c19.61 2.7 39.11 7.7 49.66 12.56zM192.41 92.07c-.8 1.49-3.46 8.63-6.11 14.15-7 18.35-12.81 37.14-18.62 55.84-.65 1.64-.9 2.76-1.68 4.64-1.49 2.25-2.41 6.32-6.85 5.47-3.88-.78-5.24-.85-10.24-2.3-2.15-1.28-2.88-2.8-3.65-5.25-1.92-4.78-2.98-7.92-5.07-14.1-4.08-9.49-11.91-25.15-20.41-35.57-1.8-2.77-5.75-5.5-1.43-7.49 5.43-3.01 10.38-4.32 16.38-6.79 1.92-.53 3.31.98 3.56 2.55 4.16 22.31 10.23 33.8 13.33 39.14.95 1.44 2.09 2.76 4.09 2.93 2.25-.43 3.89-3.72 4.58-6.1 2.49-5.84 11.5-35.33 13.06-44.97.57-3.16 5.44-3.17 7.19-3.38 2.63-.3 4.38-.51 6.63-.71 5.12-.45 6.61-.61 5.24 1.94z" class="st1" style="fill:#fff" transform="matrix(.99988 0 0 1.00013 -17.258 -19.353)"/><path d="M224.66 108.82c-1.25 11.75-2.75 28-1.5 38.63.88 9.75 1.21 20.1 1.88 21.13.38 2.25.5 3.5-1.25 3.88-4.17.92-6.5.92-10.63-.01 0 0-2.12.14-1.5-3.86.62-4 1.78-12.77 2.79-21.04 1.7-12.69.83-26.58-.67-38.71-.61-5.03-2.3-8.43-2-13.63.5-3.17 14.52-2.73 14.88 0 .75 5.73-1.39 7.82-2 13.61zM310.22 107.75c5.31 2.69 3.19 12.32 2.94 14.57-.03 1.85-.38 3.38-1.91 3.32l-1.29-.25c-2.92-4.95-6.33-12.55-12.91-15.9-5.48-3.31-12.39-4.3-18.85-1.61-4.41 2.94-7.4 7.93-6.92 13.75.95 6.64 5.68 11.32 12.23 12.77l4.03.54c2.38.38 2 6.13.31 6.32-2.19.18-4.17-.76-6.27-.94-6.17-.26-9.29 3.24-11.83 8.46-2.34 7.03-1.52 12.65-1.47 19.46-.99 1.82-4.66 1.95-7.38 2.02-1.11-.74-.94-1.91-.67-3.53 2.68-15.41 4.47-29.85 2.85-45.42-.6-8.03-2.65-15.01-3.05-23.13.46-1.06-.95-2.66 2.87-2.15 11.51 1.16 33.76 6.29 47.32 11.72zM185.53 96.57c-1.81 5.54-3.92 10.13-5.86 15.41-3.73 9.55-6.06 17.05-9.64 27.46-2.83 8.6-5.17 16.03-8.08 24.43-1.14 3.32-3.23 3.46-5.55 2.98-2.68-.58-5.62-.52-6.74-3.27-6.04-17.71-12.45-32.13-23.29-46.95-.74-1.53-4.31-4.35-2.73-6.6 1.77-1.2 5.08-2.77 8.9-3.83 1.5-.19 1.73 1.44 1.97 2.24 1.68 5.78 3.91 13.01 5.99 18.27 3.5 8.04 5.98 16.54 11.61 23.75 1.51 1.57 2.01 2.73 4.61 2.58 3.9-2.46 4.91-5.84 6.69-10.35 1.69-5.04 11.94-35.17 14.44-45.79 1.18-2.71 8.81-3.21 7.68-.33z" class="st2" style="fill:#ed1c24" transform="matrix(.99988 0 0 1.00013 -17.258 -19.353)"/><path d="M120.49 71.49c.44 1.27 1.86 3.5 6.06 2.16 2.28-.73 4.63-2.08 3.86-4.52-.57-1.8-2.46-1.72-5.08-1.52l-2.65.21c-4 .32-7.85.64-9.47-4.43-.82-2.56-.88-7.53 6.58-9.91 7.05-2.25 10.42 1.76 11.35 4.57l-4.62 1.47c-.46-.98-1.62-3.3-5.82-1.96-1.83.58-3.79 1.95-3.13 4.04.57 1.8 2.17 1.71 3.2 1.63l6.05-.41c3.39-.23 6.68.13 8 4.26 2.21 6.92-4.65 9.79-6.67 10.43-8.4 2.68-11.39-1.7-12.3-4.55zM159.69 68.72l-4.96.93-3.65-19.55-7.18 1.34-.78-4.2 19.32-3.61.78 4.2-7.18 1.34zM186.61 65.12l-5.02.5-2.38-24.05 5.02-.5zM208.96 63.81l-5.05.1-.47-24.16 17.19-.34.08 4.27-12.15.24.11 5.45 10.63-.21.08 4.27-10.63.21zM246.86 64.79l-5.04-.36 1.42-19.84-7.29-.52.31-4.26 19.6 1.41-.31 4.26-7.28-.52zM290.17 50.73l-12.63-2.24-.89 5 11.6 2.06-.75 4.21-11.6-2.06-1.1 6.16L288 66.2l-.75 4.21-18.06-3.21 4.23-23.8 17.5 3.11zM310.68 77.43l-4.81-1.52 5.98-18.96-6.96-2.19 1.28-4.08 18.74 5.91-1.28 4.08-6.96-2.19zM143.77 202.58c1.67-7.59 7.37-7.03 9.44-6.57 4.47.98 7.44 4.39 6.4 9.13-.88 4.01-3.93 5.48-6.54 6.52-3.57 1.49-5.41 2.19-6.17 3.16l10.12 2.23-.9 4.08-15.94-3.51c.76-2.69 1.59-5.51 7.46-8.08 4.88-2.13 6.82-2.94 7.4-5.57.34-1.54-.26-3.54-2.49-4.03-3.22-.71-3.91 1.93-4.31 3.63zM171.12 217.91v.03c.05 1.67 1 2.51 2.43 2.7 1.94.25 4.09-1.13 4.77-6.1l-.06-.08c-1.28 1.46-3.17 1.62-4.77 1.41-4.54-.6-6.72-4.38-6.2-8.35.76-5.81 4.55-8.06 9.19-7.45 8.21 1.08 7.18 9.94 6.74 13.28-1.2 9.18-5.93 11.58-10.2 11.02-4.04-.53-6.63-3.25-6.54-7.07zm3.86-5.64c1.64.21 3.59-.72 3.96-3.52.35-2.7-.59-4.53-3-4.84-1.2-.16-3.45.16-3.9 3.56-.46 3.58 1.18 4.57 2.94 4.8zM202.08 219.1l-9.37-.57.27-4.37 9.37.57zM228.64 206.8c-2.28 2.5-8.11 9.59-8.64 19.9l-4.85.02c.47-9.56 6.43-17.19 8.44-19.36l-11.88.05.08-4.17 16.83-.07zM246.48 218.4l-9.37.62-.29-4.37 9.37-.62zM255.44 205.01l.67-.09c4.5-.61 5.39-3.11 5.25-4.89l3.84-.52 3.21 23.68-4.67.63-2.21-16.31-5.64.76zM281.53 206.87l.72-.15c1.38-.29 3.89-.96 3.25-3.99-.18-.86-1.02-2.91-3.56-2.38-3.16.67-2.53 3.66-2.36 4.48l-4.28.9c-.92-4.38.89-8.03 6.16-9.13 3.13-.66 7.58.06 8.62 5 .5 2.37-.67 4.17-1.86 5.03l.01.07c.87.06 3.83.71 4.67 4.69.93 4.41-1.67 8.23-6.38 9.22-2.21.46-8.24 1.22-9.78-6.09l4.51-.95-.03.04c.26 1.25 1.19 4.01 4.28 3.36 1.84-.39 3.19-1.98 2.65-4.58-.67-3.19-3.79-2.67-5.94-2.22z" class="st1" style="fill:#fff" transform="matrix(.99988 0 0 1.00013 -17.258 -19.353)"/></svg>