<svg xmlns="http://www.w3.org/2000/svg" width="409.718016" height="244.070302" viewBox="0 0 1600 952"><path fill="#72121c" d="M1554.3 24.3H123.6c-9.8 410.3-80 822.1-94.4 903.4H1461L1250.3 474z"/><g fill="#dbc067"><path d="M1499.1 951.9H0l2.7-14.4c.9-4.6 87.3-468.2 96.9-925.6L99.9 0H1600l-321.9 476.2zM29.2 927.7H1461L1250.3 474l304-449.7H123.6c-9.8 410.3-79.9 822.1-94.4 903.4z"/><path d="m267.6 807.5 3.9-1.9h12.6l8.7 2.9L288 794h-25.3l-12.6 12.6v14.6l9.2 9.2 14.6 3.4 3.4 3.4v6.3l-1.9 3.9-3.9 1.9h-13.4l-9.9-3.4 5.3 16h26.7l12.6-12.6v-18l-9.2-9.2-14.6-3.4-3.4-3.4v-3.9zM352.3 794l-5.3 16 10.1-3.4h8.8l1 .9v45.7l-3 8.7h20.4l-2.9-8.7v-45.7l1-.9h8.7l10.2 3.4-5.3-16zM490.2 800.3l1.5-6.3h-26.2l1.5 6.3-14.6 53.9-3.9 7.8h18l-1-7.8 1.9-7.8 1-1h18.5l1 1 2 7.8-1 7.8h19.9l-3.9-7.8zm-6.8 33.5h-11.6l-1-1 6.3-26.2.5-2.9.5 2.9 6.3 26.2zM590 801.7l-9.7 35-.4 3.9-.5-3.9-9.7-35 .9-7.7h-19.9l3.9 7.7 18.5 60.2h12.6l18.4-60.2 3.9-7.7h-18.9zM695.6 800.3l1.5-6.3h-26.2l1.5 6.3-14.6 53.9-3.9 7.8h18l-1-7.8 2-7.8 1-1h18.5l1 1 1.9 7.8-1 7.8h19.9l-3.9-7.8zm-6.7 33.5h-11.7l-1-1 6.3-26.2.5-2.9.5 2.9 6.3 26.2zM806.3 801.7v26.2l.5 4.9-1.9-4.9-17-33.9h-19l2.5 7.7v52.5l-2 7.7h16.5l-1.9-7.7v-34l-.5-4.9 2 4.9 20.8 41.7h12.6v-60.2l2-7.7h-16.5zM934.3 825h-21.4l3.9 7.8v13.6l-2.9 2.9h-9.7l-3.9-1.9-2-3.9v-29.6l2.5-4.9 4.8-2.4h13.3l10 3.4-5.3-16h-27.2l-13.6 13.5v41.8l12.6 12.6h24.3l12.6-12.6-1-5.8v-12.6zM1011.8 849.3l-1.5-1.5v-16l1-.9h8.3l7.3 2.4v-16.5l-7.3 2.4h-8.3l-1-1v-11.6l1-1h17.5l8.7 2.9-4.8-14.5h-38.9l2 7.7v52.5l-2 7.7h39.9l5.3-16-10.2 3.4zM1134.3 832.8l10.7-10.7v-16.5l-11.7-11.7h-39.8l1.9 7.8v52.5l-1.9 7.8h18.4l-1.9-7.8v-17.5l1-1h7.3l1.9 1 8.2 25.2h18.4l-5.3-9.2zm-4.9-15-1.9 3.9-4.8 2.4H1111l-1-1v-16.5l1-1h11.7l4.8 2.4 1.9 3.9zM303.6 467l3.2 12.6 12.2-3v54.7h15.1V461h-10.5zM398.8 495.1c5.4-3.3 8.9-7.8 8.9-15.2v-.2c0-10.8-9.8-19.1-24.5-19.1s-24.5 8.5-24.5 19.1v.2c0 7.5 3.5 12 8.9 15.2-7.4 3.4-11.3 8.4-11.3 16.8v.2c0 12.2 11.5 20.1 26.9 20.1s26.9-7.6 26.9-20.5v-.2c-.1-8.2-4.3-12.7-11.3-16.4zm-25.7-13.8c0-4.3 3.7-8.1 10-8.1s10 3.9 10 8.2v.2c0 4.9-3.9 8.5-10 8.5s-10-3.7-10-8.6zm22 29.7c0 4.9-4.5 8.7-12.1 8.7s-12-3.9-12-8.7v-.2c0-5.4 5.1-8.6 12-8.6s12.1 3.2 12.1 8.6zM1014.4 460.3c-15.7 0-26.6 10.4-26.6 24.4v.2c0 14.2 9.8 22.5 24.9 22.5 5.1.2 10.2-1.5 14.2-4.8-.6 6-3.6 15.8-14.2 15.8-5.9 0-10.2-1.9-15.2-6l-8.1 11.7c6.3 5.5 14.5 8.5 22.9 8.3 19.8 0 30.5-15.4 30.5-38.1v-.2c0-13.8-3.3-21.3-8.3-26.3-5.3-5.2-10.8-7.5-20.1-7.5zm12.7 24c0 6-4.4 10.4-12 10.4s-12.2-4.3-12.2-10.5v-.2c0-6.2 4.3-10.6 11.9-10.6s12.3 4.5 12.3 10.7zM1114.6 494.4v-.2c0-13.8-3.3-21.3-8.3-26.3-5.3-5.3-10.8-7.6-20.1-7.6-15.8 0-26.6 10.4-26.6 24.4v.2c0 14.2 9.8 22.5 24.9 22.5 5.1.2 10.2-1.5 14.2-4.8-.6 6-3.6 15.8-14.2 15.8-5.9 0-10.2-1.9-15.2-6l-8.1 11.7c6.3 5.5 14.5 8.5 22.9 8.3 19.8.1 30.5-15.4 30.5-38zm-15.6-10c0 6-4.4 10.4-12 10.4s-12.2-4.3-12.2-10.5v-.2c0-6.2 4.3-10.6 11.9-10.6s12.3 4.5 12.3 10.7zM539.5 457.9c-2.1 1.3-4.2 2.6-6.2 4-6.8 4.6-13.2 9.7-18.5 16.1-1.5 1.8-2.9 3.8-4.1 5.8-1.2 2.1-2.1 4.3-2.6 6.6-.5 2.1-.5 4.3-.1 6.4.5 2.1 1.4 4.1 2.8 5.7.9 1.1 2 2.1 3.2 3s2.4 1.6 3.7 2.3c5.4 2.7 11.2 3.9 17.1 4.5 3 .3 6 .4 9 .5 4.9.1 9.8-.2 14.7-.8 4.4-.5 8.8-1 13.1-1.7 4-.7 8-1.5 12-2.4s7.9-2 11.8-3.1l7.8-2.4c7.8-2.6 15.4-5.5 22.9-8.9 9.8-4.4 19.1-9.7 27.9-15.8 6.2-4.3 11.8-9.4 16.5-15.3 1.8-2.2 3.2-4.7 4.4-7.3.4-.9.7-1.8 1-2.7.7-2.4.8-4.8.4-7.2-.8-4-3.2-6.9-6.5-9.2-1.6-1.1-3.4-2.1-5.3-2.9s-3.8-1.4-5.7-1.8c-2.5-.6-5-1.1-7.5-1.4s-5-.5-7.6-.7c-5.7-.2-11.3-.1-16.9.5-2.3.2-4.5.5-6.8.8s-4.5.7-6.8 1c-3.7.5-7.3 1.3-10.9 2.1s-7.2 1.8-10.8 2.8c-5.5 1.5-10.9 3.2-16.3 5.2-5.4 1.9-10.6 4-15.9 6.4-6.9 2.7-13.4 6.1-19.8 9.9zm93.4 12.3c-1.5 1.2-3 2.3-4.6 3.3-1 .7-2.1 1.4-3.2 2.1l-4.4 2.6c-1.8 1-3.6 2.1-5.5 3-2.2 1.1-4.4 2.2-6.9 3.4-9.4 4.3-19.1 7.7-29 10.4-7.8 2.1-15.8 3.6-23.9 4.4-2.5.2-4.9.4-7.2.5h-2.5c-1.1 0-2.2 0-3.4-.1-3.6-.1-7.3-.7-10.8-1.8-.8-.3-1.7-.6-2.5-1-.7-.3-1.4-.7-2-1.2-.8-.6-1.5-1.2-2.1-2-.3-.4-.6-.9-.8-1.3-.2-.5-.4-1-.5-1.5-.4-1.9-.1-3.8.8-5.5.8-1.2 1.7-2.3 2.8-3.3.4-.3.8-.5 1.3-.6.5 0 1 .1 1.4.4.8.6 1.1 1.7.7 2.7-.4.8-.8 1.7-1 2.7-.1.5-.1 1 .1 1.5.3.4.7.6 1.1.8.8.3 1.7.5 2.6.6 1.1.1 2.2.2 3.3.2 1.2 0 2.3 0 3.4-.1 2.1-.1 4.3-.3 7-.7 5-.7 9.8-1.7 14.6-2.7s9.5-2.2 14-3.4c9-2.4 18.5-5.2 28.3-8.4 2.3-.8 4.7-1.5 7-2.3l9.2-3.2c1.6-.5 3.3-1.1 4.9-1.7l5.3-1.9c.3-.1.6-.1.9-.2h.1c.5 0 1 .2 1.5.6.2.2.4.4.5.7s.2.5.3.8v.8c-.1.5-.4 1-.8 1.4zm-31-25.3c12.2-3.2 22.5-4.8 32.4-5.1h4.5s2.8.2 4.1.3c.7.1 1.3.2 2.1.3s1.5.3 2.3.5c1.6.4 3.1.9 4.6 1.6 1.2.6 2.4 1.4 3.4 2.3.4.4.7.8 1.1 1.2.3.5.6 1 .8 1.5s.4 1.1.5 1.6.1 1 .1 1.5-.1 1.1-.3 1.6c-.2.8-.5 1.5-.9 2.2-.4.8-.9 1.5-1.5 2.2-1 1.1-2.1 2.1-3.2 3-.4.3-.9.4-1.4.4-1.2-.1-2.1-1.1-2-2.3 0-.4.1-.7.3-1l.9-1.5c.3-.5.5-.9.7-1.4.4-.7.6-1.5.6-2.4 0-.2 0-.4-.1-.5 0-.1-.1-.2-.2-.2-.2-.2-.5-.3-.7-.5-.4-.2-.8-.3-1.2-.4-2.2-.4-4.4-.6-6.5-.5-1.1 0-2.2.1-3.4.2s-2.5.2-3.9.4c-10 1.5-20 3.6-29.8 6.3-2.2.6-4.5 1.2-6.8 1.9-7 2-14.5 4.3-22.7 7-2.5.8-4.9 1.7-7.2 2.5s-4.9 1.8-7.4 2.6c-4.1 1.4-8.1 2.9-12.2 4.6l-.5.2c-1.3.5-2.7-.1-3.2-1.4-.4-1-.1-2.2.8-2.9 1.5-1.2 3.1-2.4 4.7-3.5 2.3-1.6 4.5-3 6.8-4.2s4.5-2.6 6.9-3.8 4.5-2.3 7.2-3.6c9.9-4.3 20-8 30.3-10.7zM298 124.6l-18.9 68.2-1 7.6-.9-7.6-19-68.2 1.9-15.2h-38.9l7.6 15.2 36.1 117.5h24.6l36-117.5 7.6-15.2h-37zM406.7 109.4h-36l3.8 15.2V227l-3.8 15.1h36l-3.8-15.1V124.6zM452.5 242.1h36l-3.8-15.1v-37l1.9-3.8 12.3-12.3h2.9l17 51.2 1.9 17h39.8l-10.4-18-26.5-73 39.8-39.8-1.9-1.9h-35.1l-3.8 11.4-38.8 38.9.9-2.9v-32.2l3.8-15.2h-36l3.8 15.2V227zM601.8 242.1h36L634 227V124.6l3.8-15.2h-36l3.8 15.2V227zM687.9 227l-3.8 15.1h32.2l-3.8-15.1v-66.4l-1-9.5 3.8 9.5 40.8 81.5h24.6V124.6l3.8-15.2h-32.2l3.8 15.2v51.2l.9 9.4-3.8-9.4-33.1-66.4h-37l4.8 15.2zM900.6 242.1l24.6-24.6-1.9-11.4v-24.6l5.7-11.4h-41.7l7.6 15.1v26.6l-5.7 5.7h-18.9l-7.6-3.8-3.8-7.6v-57.8l4.7-9.5 9.5-4.7h26l19.5 6.6-10.4-31.3h-53.1L828.6 136v81.5l24.6 24.6zM1050.5 242.1h37l-4.7-18.9v-36.1l1.9-1.9h16.1l14.2 4.8v-32.2l-14.2 4.7h-16.1l-1.9-1.9v-26.5l1.9-1.9h34.1l17 5.7-9.5-28.5h-75.8l3.8 15.2V227zM1238.1 151.1l39.8-39.8-1.9-1.9h-35.1l-3.8 11.4-38.8 38.9.9-2.9v-32.2l3.8-15.2h-36l3.8 15.2V227l-3.8 15.1h36l-3.8-15.1v-37l1.9-3.8 12.3-12.3h2.9l17 51.2 1.9 17h39.9l-10.5-18z"/><path d="M937.3 652.5c-8.6-6.1-16.5-13-24.7-19.4-6.2-5-13-9.3-20.1-12.8-4.2-2-8.6-3.4-13.2-4.2-5.3-.9-10.6-.8-15.9.2-3.4.6-6.7 1.5-10.1 2.2-5.5 1.2-10.8 2.8-16.4 3.4-3.5.4-7.1.3-10.6-.4-5.3-1.1-10.1-3.6-14.1-7.3-3.5-3.2-6.6-6.8-9.1-10.8-4.5-6.8-12.2-26.1-34.1-34.3-1.8-.7-3.7-1.4-5.5-2.1-4.4-1.6-8.5-4-12.1-7-1.9-1.7-3.6-3.5-5.2-5.5-3-3.7-5.1-7.9-5.3-12.8-.1-2.7-.2-5.4-.2-8.2.2-17.3 9.4-34.4 18.8-44.8.7-.7.7-1.1-.1-1.8L745.8 475c30.1-8.9 48.7 2 59.5 10.7 26.2 22.9 48.6 45.7 60.3 58 .3.3.4.8 0 1.2-.3.3-.8.4-1.2 0-7.3-6-18-14.8-30.4-24.6-.4-.3-.9-.2-1.2.1-5.1 7-9.1 16.9-11.1 22.4-.2.4-.6.6-1.1.5-.3-.1-.6-.5-.5-.8.2-5.3 1.6-14.8 7.9-26.1.2-.3.1-.8-.2-1-6.3-5-13-10.2-19.7-15.3-.4-.3-.9-.2-1.2.1-3.4 5.2-6.4 10.6-9 16.2-.2.4-.6.6-1.1.5-.4-.1-.6-.5-.5-.9 1-6.7 3.2-13.2 6.4-19.1.2-.3.1-.8-.2-1-2.3-1.8-4.7-3.5-7-5.2-24.8 34.9.7 49.1 6 35.2 3.6-9.3 12.6-6 7.5 10.1-8.6 26.6 14.9 36.9 21.5 12.5 2.6-9.7 14.5-4.1 9.6 14.6-6.5 24.5 17.3 30.5 21.8 10.4 2.2-9.7 7.8-7.3 13.4 3.1 8.2 14.9 20.6 12.4 27.7 4.6l.3-.3.3-.3c7.2-7.8 8.5-20.3-7-27.2-10.8-4.8-13.7-10.2-4.2-13.2 19.7-6.2 11.7-29.4-12.2-20.8-18.2 6.5-24.8-4.9-15.4-8.3 23.8-8.7 11.6-31.2-14.3-20.4-15.6 6.5-19.7-2.2-10.7-6.6 12.9-6.3-2.2-28.4-32.5-5.4-.3.2-.8.2-1.1 0-8.7-6.6-21.5-13.5-39.6-13.4.1-25.3 12.5-39.3 21.9-47.4 27.4-21.6 53.8-39.4 68.1-48.7.4-.3.9-.2 1.2.2s.2.9-.2 1.2c-7.3 6.1-17.8 15-29.8 25.3-.3.3-.4.8-.1 1.2 5.9 6.3 14.9 12 20 15 .4.2.5.7.3 1.1-.2.3-.5.4-.9.4-5.1-1.2-14.2-4.2-24.2-12.5-.3-.2-.7-.2-1 0-6.1 5.3-12.4 10.9-18.7 16.6-.3.3-.3.8 0 1.1 4.4 4.3 9.2 8.3 14.3 11.8.4.3.5.8.2 1.1-.2.3-.6.4-.9.3-6.4-2.3-12.4-5.6-17.6-9.8-.3-.2-.7-.2-1 0l-6.4 5.9c29.7 30.8 48.4 8.3 35.7.5-8.5-5.3-3.6-13.5 11.3-5.5 24.6 13.3 39-7.8 16.2-18.9-9-4.4-1.3-15 16.1-6.7 22.9 10.9 33.2-11.4 14.2-19.5-9.1-3.9-5.8-9 5.5-12.7 16.1-5.3 16-17.9 9.6-26.4l-.2-.3-.2-.3c-6.3-8.5-18.4-12.1-28 1.8-6.7 9.8-12.5 11.6-13.7 1.7-2.5-20.5-26.7-16.9-22.7 8.2 3 19.1-9.3 23.5-11 13.6-4.2-24.9-28.5-17.1-22.6 10.3 3.5 16.5-5.8 19-8.4 9.3-3.8-13.8-28.4-3-11.3 31 .2.4.1.8-.2 1-10 9.1-21.6 24.2-21.5 50.2-4.8.5-9.5 1.3-14.1 2.6 9.1-28.9.3-48.3-8-60.4-.2-.3-.2-.8.1-1.1 24.2-29.3 2.7-45.3-4.1-32.7-4.8 8.8-13.3 4.4-6.1-10.9 11.8-25.2-10.1-38.4-19.8-15-3.8 9.3-14.9 2.2-7.7-15.7 9.5-23.5-13.3-32.5-20.3-13-3.4 9.3-8.6 6.3-13-4.7-6.2-15.8-18.8-14.9-26.9-8.1l-.3.2c-.1.1-.2.2-.3.2-8.1 6.8-11 19.1 3.5 27.9 10.1 6.1 12.3 11.8 2.5 13.6-20.3 3.7-15.3 27.7 9.5 22.2 18.9-4.2 24 7.9 14.2 10.2-24.7 5.6-15.4 29.5 11.6 22 16.3-4.5 19.3 4.6 9.8 7.9-14.1 4.8-.9 30.9 35 7.5-1.6-2.4-3.3-4.8-4.9-7.2-.2-.3-.6-.4-1-.3-6.1 3-12.7 4.9-19.4 5.6-.4 0-.8-.3-.9-.7 0-.4.2-.7.5-.8 5.7-2.3 11.3-5.1 16.5-8.3.4-.2.5-.7.3-1.1-4.9-6.9-9.8-13.8-14.5-20.3-.2-.3-.7-.4-1-.2-11.6 5.9-21.2 6.8-26.4 6.8-.4 0-.8-.3-.8-.8 0-.4.2-.7.6-.8 5.6-1.8 15.7-5.4 22.8-10.2.4-.3.5-.8.2-1.2-9.3-12.7-17.6-23.8-23.3-31.3-.3-.4-.2-.9.1-1.2s.8-.2 1.1.1c11.9 12.2 33.7 35.5 55.5 62.7 8.3 11.3 18.6 30.5 8 60.7l-14.2-12.5c-.3-.2-.7-.2-1 0l-.4.3c-6.6 6.2-12.7 12.9-18.4 19.9-1.5 1.8-2.9 3.6-4.2 5.5-.5.8-.9 1.7-1 2.6-.2 1.9-.3 3.9-.2 5.8.1 2.9.3 5.8.7 8.6.5 3.9 1.3 7.8 2.4 11.7.1.2.1.5.2.8-.2-.1-.4-.3-.5-.5-4.4-7.7-8.2-15.8-11.3-24.2-3-8.3-5.2-17-6.5-25.8-.2-1.1-.5-2.3-.7-3.4-.4.2-.6.6-.8 1-10.4 36.5-80 57.7-93.3 60.7-.2.1-.4.2-.5.4-.2.5-.4 1-.5 1.5l-2.4 9c-1.1 4.6-2.2 9.2-3.2 13.8-.7 3.4-1.3 6.7-1.9 10.1-.7 4.1-1.4 8.2-1.9 12.3-.4 3.7-.5 7.3-.8 11 0 .2-.1.5-.2 1-12.3-16.5-21.3-34.6-29.1-53.4-.1-.3-.4-.5-.8-.5-17.7 1.5-34.4-3.6-38-8.8-.3-.2-.7-.3-1-.4l-.2.2c.5 1.3 1.1 2.6 1.8 3.8 1.5 2.5 2.3 5.4 2.3 8.3 0 1.7.1 3.4.1 5.2-.1 3.8.9 7.5 2.7 10.7 1.8 3 3.7 5.9 5.7 8.8 2.2 3 4 6.2 5.4 9.6 1.8 4.7 3.1 9.6 4 14.5 1.6 8.7 5 16.9 9.8 24.3 2.1 3.1 4.4 6.2 6.4 9.3 3 4.6 5.8 9.2 7.4 14.5.6 2.1.9 4.2 1 6.3.2 3.6-.6 7.1-2.3 10.2-1.3 2.6-2.8 5-4.4 7.5-2.1 3.3-4.9 6.1-8.2 8.3-4.2 2.7-8.3 5.4-12.5 8.1-5.8 3.7-11.2 7.7-15.6 13-4.1 5-7.4 10.4-9 16.8-.7 2.5-1.1 5.1-1.2 7.8 0 .3 0 .7.1 1 .1.4.5.6.9.5.1 0 .2-.1.3-.2.5-.4 1-.9 1.6-1.3 6.9-5.4 14.9-9.3 23.3-11.7 3.9-1.1 8-1.5 12-1.2 3 .2 6 .6 9 1 7.4 1.1 14.9.4 21.9-2 4.5-1.6 8.9-3.6 13.2-5.5 6.6-2.9 14.1-2.9 20.8-.1 3.8 1.6 7.4 3.8 10.6 6.5 4.9 3.9 9.6 7.9 14.5 11.8 8.5 6.9 17.7 12.6 28 16.3 6.1 2.2 12.4 3.4 18.9 3.5 5 .1 10 .1 15 .2 2.2.1 4.5.3 6.7.8 7.2 1.4 19 4.5 25 8.6 3.5 2.3 6.7 5.2 9.2 8.5l.8 1.1c.3.3.7.4 1.1.1.1-.1.2-.2.3-.4.5-1.9.6-3.9.4-5.9-.4-4.3-1.4-8.4-2.9-12.4-2.8-7.4-6.8-14.2-11.8-20.2-2.8-3.4-5.9-6.5-9.3-9.3-4.7-3.6-9.6-6.8-14.8-9.5-9-4.9-17.7-10.3-26-16.3-5.6-4.2-31.8-25.8-30.8-50.4v-1.5c.3.3.5.3.5.5.7 1.6 1.7 3.2 2.9 4.5 4.5 4.7 8.1 10.4 13.2 14.7 1.1 1 2.2 2 3.4 2.8 3 2.2 5.8 4.7 9 6.6 9 5.4 18.5 9.8 28.4 13.3 4.2 1.5 8.4 3 12.4 4.8 8.3 3.7 15.4 9.2 22.2 15 2.3 2 4.6 4 7 5.9 8.2 6.5 17.5 11.5 27.4 14.9 5.4 1.7 10.9 3 16.6 3.7 2.4.3 4.8.5 7.1.7 2.9.2 5.8.6 8.7.6 5.3.1 10.7-.2 16-.9 4.1-.5 8.2-1.1 12.3-1.7 3-.4 5.9-1 8.9-1.4 3.6-.5 7.1-.8 10.7-1.1 4.3-.3 8.6-.6 12.9-.7 3.2 0 6.3.2 9.5.4 3.1.2 6.2.6 9.2 1.3 4.9 1 9.6 2.5 14.2 4.4 7.9 3.3 15.6 6.8 22.1 12.6 1.5 1.3 4.3 4 5.9 5.4.2.2.6.3.8 0 .1-.1.2-.3.2-.5-.5-5.4-4.5-20.5-17.6-30.9-7.7-5.7-16.3-10-25.4-12.6-4-1.2-8.1-2.3-12.2-3.5-8.2-2.2-16.1-5.2-23.6-9.1-3.8-2-7.5-4.3-10.9-6.9l-.9-.9c3.2-.1 103.7-.8 107.4-1 .4 0 .7-.4.7-.8 0-.2-.1-.4-.3-.5-.6-.7-1.6-1.6-2.7-2.4zm-171-9.5c-25.6-2.6-43.7-29.6-49.2-36.1-3.9-4.5-8.4-8.4-13.2-11.8-4.5-3.3-9.2-6.5-13.6-10-7.4-6-13.6-13.4-18.1-21.8-3.5-6.1-6.2-12.7-8-19.6-1.6-6.1-2.2-12.5-1.8-18.8.2-2.3.2-4.6.4-6.8.1-.8.2-1.7.4-2.5.1-.4.5-.7.9-.6.3.1.6.3.6.6.1.6.2 1.1.3 1.7 1.7 10.3 5.5 20.1 11.3 28.9 3.1 5 6.8 9.7 10.8 14 4.2 4.3 9 8 14.3 11 4.3 2.5 8.7 4.9 13 7.4 3.1 1.6 6 3.6 8.6 5.9 6 5.4 11.3 11.6 15.6 18.4 3.2 5.1 6.2 10.3 9.4 15.4 4 6.4 8.3 12.5 13.8 17.8 2.7 2.5 5.6 4.7 8.7 6.6l.7.5v.3c-1.6-.3-3.3-.3-4.9-.5z"/></g></svg>