<svg xmlns="http://www.w3.org/2000/svg" viewBox="0 0 152 200" width="152" height="200">
	<defs>
		<linearGradient id="grd1" gradientUnits="userSpaceOnUse"  x1="25.211" y1="13.168" x2="126.892" y2="13.168">
            <stop offset="0" stop-color="#a8996e"  />
			<stop offset="0.5" stop-color="#fce3c4"  />
			<stop offset="1" stop-color="#a8996e"  />
		</linearGradient>
		<linearGradient id="grd2" gradientUnits="userSpaceOnUse"  x1="76" y1="159.806" x2="76" y2="25.901">
			<stop offset="0" stop-color="#970608"  />
			<stop offset="1" stop-color="#db181e"  />
		</linearGradient>
	</defs>
	<style>
		tspan { white-space:pre }
		.shp0 { fill: #000000 } 
		.shp1 { fill: #a8996e } 
		.shp2 { fill: url(#grd1) } 
		.shp3 { fill: #b20d11 } 
		.shp4 { fill: url(#grd2) } 
		.shp5 { fill: #ffffff } 
	</style>
	<g >
		<path class="shp0" d="M69.33 0.08C68.08 0.11 66.45 0.17 65.71 0.2C64.97 0.23 63.66 0.29 62.79 0.33C61.93 0.37 60.29 0.47 59.14 0.53C58 0.6 56.3 0.72 55.36 0.79C54.43 0.86 52.91 0.99 51.99 1.07C51.07 1.15 49.53 1.3 48.57 1.4C47.61 1.5 45.92 1.68 44.82 1.81C43.72 1.93 41.61 2.2 40.13 2.4C38.65 2.59 36.54 2.89 35.44 3.06C34.34 3.23 32.28 3.56 30.88 3.79C29.47 4.03 27.22 4.43 25.88 4.68C24.54 4.93 23.06 5.22 22.59 5.31C22.11 5.41 21.02 5.64 20.15 5.82C19.29 6 17.65 6.36 16.5 6.61C15.36 6.87 13.29 7.35 11.91 7.69C10.53 8.02 8.62 8.5 7.66 8.76C6.69 9.01 5.28 9.38 4.51 9.59C3.75 9.8 2.43 10.17 1.6 10.41C0.76 10.65 0.06 10.87 0.04 10.9C0.02 10.93 0 22.66 0 36.95C0 52.52 0.02 63.89 0.05 65.31C0.08 66.61 0.12 68.25 0.15 68.95C0.18 69.65 0.24 70.81 0.28 71.54C0.32 72.27 0.4 73.49 0.46 74.26C0.51 75.03 0.61 76.21 0.66 76.88C0.72 77.55 0.82 78.63 0.89 79.27C0.96 79.92 1.08 81.04 1.17 81.77C1.25 82.49 1.41 83.76 1.52 84.59C1.63 85.41 1.81 86.7 1.93 87.44C2.04 88.18 2.24 89.39 2.36 90.13C2.49 90.87 2.72 92.17 2.87 93.01C3.02 93.85 3.3 95.24 3.47 96.11C3.65 96.98 3.96 98.42 4.16 99.31C4.36 100.21 4.68 101.58 4.87 102.37C5.06 103.15 5.41 104.52 5.65 105.42C5.88 106.31 6.26 107.7 6.49 108.49C6.72 109.29 7.12 110.67 7.38 111.55C7.65 112.43 8.1 113.85 8.38 114.7C8.66 115.55 9.16 117.05 9.51 118.03C9.85 119.01 10.45 120.66 10.84 121.69C11.23 122.73 11.75 124.09 12.01 124.72C12.26 125.35 12.66 126.35 12.9 126.93C13.15 127.52 13.58 128.54 13.87 129.2C14.15 129.85 14.6 130.85 14.85 131.41C15.11 131.97 15.63 133.08 16 133.88C16.37 134.67 17.2 136.36 17.84 137.61C18.48 138.87 19.36 140.57 19.8 141.38C20.24 142.19 20.92 143.41 21.31 144.1C21.7 144.79 22.29 145.82 22.63 146.39C22.97 146.96 23.62 148.05 24.08 148.8C24.55 149.56 25.24 150.67 25.63 151.27C26.01 151.87 26.67 152.88 27.09 153.51C27.51 154.14 28.24 155.21 28.71 155.9C29.19 156.59 29.97 157.7 30.46 158.37C30.95 159.04 31.76 160.14 32.27 160.81C32.77 161.48 33.65 162.62 34.22 163.35C34.8 164.08 35.7 165.2 36.22 165.84C36.75 166.49 37.64 167.55 38.2 168.21C38.75 168.87 39.66 169.91 40.2 170.52C40.75 171.14 41.8 172.29 42.54 173.09C43.28 173.89 44.68 175.35 45.66 176.34C46.63 177.33 48.01 178.71 48.72 179.39C49.43 180.08 50.59 181.17 51.28 181.81C51.98 182.45 53.19 183.54 53.97 184.23C54.75 184.92 55.96 185.96 56.66 186.55C57.35 187.14 58.52 188.1 59.24 188.69C59.97 189.28 61.18 190.24 61.93 190.82C62.68 191.41 64 192.4 64.85 193.03C65.7 193.66 67.09 194.67 67.94 195.28C68.79 195.88 70.12 196.81 70.9 197.34C71.69 197.87 72.92 198.68 73.64 199.15L74.96 200L77.01 200C79.04 198.73 80.07 198.06 80.61 197.69C81.16 197.33 82.2 196.62 82.92 196.12C83.65 195.61 84.76 194.82 85.4 194.36C86.05 193.9 87.12 193.11 87.79 192.61C88.46 192.1 89.45 191.35 89.99 190.93C90.54 190.51 91.44 189.8 92 189.35C92.55 188.9 93.58 188.07 94.28 187.49C94.97 186.92 96.06 186 96.69 185.45C97.32 184.91 98.25 184.09 98.77 183.63C99.28 183.17 100.34 182.2 101.12 181.48C101.9 180.76 103.3 179.43 104.22 178.53C105.15 177.62 106.4 176.37 107.01 175.74C107.62 175.11 108.49 174.2 108.93 173.73C109.38 173.25 110.19 172.37 110.73 171.77C111.28 171.17 112.04 170.31 112.43 169.86C112.82 169.42 113.5 168.64 113.93 168.13C114.36 167.63 115.14 166.7 115.65 166.07C116.17 165.44 116.99 164.43 117.48 163.81C117.96 163.19 118.66 162.3 119.03 161.83C119.39 161.35 120.05 160.47 120.5 159.87C120.94 159.27 121.67 158.26 122.12 157.63C122.57 157 123.22 156.07 123.57 155.57C123.92 155.07 124.74 153.84 125.39 152.85C126.05 151.86 126.87 150.58 127.22 150.03C127.57 149.47 128.15 148.52 128.51 147.91C128.88 147.31 129.43 146.37 129.75 145.83C130.08 145.28 130.58 144.41 130.87 143.9C131.16 143.38 131.73 142.35 132.14 141.61C132.54 140.87 133.29 139.45 133.8 138.45C134.31 137.46 134.98 136.13 135.28 135.5C135.59 134.87 136.09 133.82 136.4 133.16C136.7 132.51 137.32 131.13 137.78 130.11C138.23 129.09 138.86 127.61 139.19 126.83C139.51 126.05 139.96 124.94 140.19 124.36C140.42 123.79 140.81 122.78 141.06 122.13C141.31 121.47 141.71 120.39 141.95 119.74C142.18 119.08 142.62 117.84 142.91 116.99C143.2 116.14 143.66 114.74 143.94 113.89C144.21 113.03 144.61 111.76 144.82 111.06C145.03 110.36 145.33 109.33 145.49 108.77C145.64 108.21 145.93 107.18 146.12 106.49C146.31 105.79 146.66 104.45 146.9 103.51C147.14 102.57 147.53 100.94 147.77 99.87C148.01 98.81 148.28 97.56 148.38 97.1C148.48 96.64 148.65 95.82 148.76 95.27C148.87 94.72 149.07 93.66 149.21 92.9C149.35 92.15 149.59 90.78 149.74 89.85C149.89 88.93 150.09 87.72 150.17 87.16C150.25 86.6 150.42 85.36 150.55 84.41C150.68 83.46 150.86 81.98 150.96 81.13C151.06 80.28 151.2 78.87 151.29 78C151.37 77.13 151.5 75.67 151.57 74.75C151.64 73.82 151.73 72.45 151.77 71.69C151.81 70.94 151.88 69.81 151.91 69.18C151.95 68.33 151.97 60.52 151.99 39.45L152.01 10.86C149.19 10.05 147.87 9.68 147.26 9.52C146.65 9.35 145.36 9.01 144.39 8.76C143.43 8.5 141.52 8.02 140.14 7.69C138.76 7.35 136.69 6.87 135.55 6.61C134.4 6.36 133.04 6.06 132.51 5.95C131.98 5.83 130.88 5.61 130.07 5.44C129.26 5.27 127.45 4.92 126.04 4.66C124.63 4.39 122.39 3.99 121.05 3.77C119.71 3.55 117.7 3.22 116.59 3.05C115.47 2.89 113.45 2.6 112.1 2.42C110.75 2.24 109.06 2.02 108.35 1.94C107.64 1.85 106.32 1.7 105.43 1.61C104.54 1.51 102.98 1.35 101.96 1.25C100.94 1.15 98.97 0.98 97.57 0.87C96.18 0.76 94.09 0.61 92.93 0.54C91.78 0.47 90.12 0.37 89.26 0.33C88.39 0.29 87.13 0.23 86.44 0.2C85.76 0.18 83.96 0.12 82.44 0.08C80.74 0.03 78.13 0 75.65 0.01C73.43 0.01 70.59 0.04 69.33 0.08Z" />
		<path class="shp1" d="M69.13 0.09C69.21 0.1 69.37 0.1 69.48 0.09C69.6 0.08 69.53 0.07 69.33 0.07C69.14 0.07 69.05 0.08 69.13 0.09ZM82.52 0.09C82.6 0.1 82.76 0.1 82.87 0.09C82.98 0.08 82.91 0.07 82.72 0.07C82.52 0.07 82.43 0.08 82.52 0.09ZM70.22 7.66C70.09 7.67 69.64 7.72 69.21 7.76C68.77 7.8 68.32 7.86 68.19 7.89C68.07 7.92 67.9 7.98 67.82 8.02C67.75 8.06 67.66 8.14 67.62 8.2C67.57 8.29 67.55 9.42 67.54 13.22C67.53 18.11 67.53 18.13 67.63 18.27L67.74 18.41C69.76 18.35 69.79 18.35 69.9 18.23C70.02 18.11 70.02 18.11 70.02 16.28L70.02 14.45L71.16 14.45C72.65 17.26 73.13 18.13 73.19 18.19L73.29 18.32C75.67 18.24 75.72 18.23 75.74 18.13C75.75 18.07 75.28 17.16 74.65 16C74.05 14.88 73.58 13.96 73.6 13.95C73.62 13.94 73.78 13.85 73.96 13.75C74.13 13.64 74.38 13.45 74.51 13.33C74.64 13.2 74.84 12.96 74.95 12.79C75.06 12.62 75.19 12.33 75.25 12.13C75.35 11.83 75.37 11.66 75.37 11.04C75.37 10.59 75.34 10.19 75.3 10.02C75.26 9.87 75.15 9.57 75.06 9.37C74.94 9.12 74.79 8.91 74.57 8.68C74.35 8.46 74.12 8.3 73.82 8.15C73.58 8.03 73.22 7.89 73.01 7.84C72.8 7.78 72.41 7.72 72.13 7.69C71.86 7.65 71.37 7.63 71.04 7.64C70.72 7.64 70.35 7.66 70.22 7.66ZM77.42 7.87C77.33 7.96 77.27 8.09 77.25 8.24C77.23 8.37 77.22 10.64 77.23 13.29C77.24 17.83 77.25 18.11 77.33 18.2C77.41 18.27 77.54 18.29 78.35 18.3C79.11 18.31 79.29 18.3 79.38 18.24L79.5 18.16C79.52 13.24 79.54 12.18 79.57 12.17C79.6 12.16 79.85 12.54 80.11 13.01C80.38 13.48 81.14 14.8 81.8 15.95C82.46 17.09 83.04 18.07 83.09 18.13C83.14 18.18 83.24 18.25 83.31 18.29C83.41 18.34 83.74 18.37 84.3 18.4C84.99 18.42 85.19 18.42 85.32 18.36C85.42 18.32 85.53 18.22 85.56 18.15C85.62 18.03 85.63 17.13 85.63 13.03C85.63 9.92 85.61 8.03 85.58 7.99C85.56 7.94 85.42 7.89 85.29 7.87C85.16 7.86 84.71 7.84 84.29 7.83C83.73 7.83 83.51 7.85 83.47 7.89C83.42 7.94 83.4 8.72 83.39 11.06C83.38 13.48 83.36 14.17 83.31 14.17C83.28 14.17 82.48 12.82 81.54 11.16C80.59 9.51 79.78 8.1 79.72 8.02C79.67 7.94 79.56 7.84 79.49 7.8C79.38 7.75 79.11 7.73 78.46 7.73L77.56 7.73L77.42 7.87ZM63.79 7.98C63.4 8.01 63.3 8.03 63.24 8.11C63.18 8.2 63.17 8.75 63.17 11.67C63.17 14.57 63.16 15.19 63.09 15.49C63.05 15.68 62.97 15.93 62.91 16.05C62.84 16.16 62.7 16.32 62.59 16.41C62.45 16.52 62.26 16.59 61.98 16.66C61.7 16.72 61.46 16.74 61.2 16.72C60.99 16.71 60.72 16.66 60.61 16.61C60.5 16.56 60.36 16.48 60.29 16.41C60.23 16.35 60.14 16.23 60.09 16.15C60.05 16.07 59.98 15.87 59.94 15.72C59.88 15.49 59.86 14.71 59.84 11.88C59.82 8.88 59.81 8.3 59.74 8.24C59.68 8.17 59.55 8.17 58.67 8.23C57.87 8.28 57.65 8.32 57.55 8.39L57.42 8.48C57.39 14 57.41 15.35 57.44 15.67C57.47 15.93 57.53 16.29 57.58 16.45C57.62 16.62 57.73 16.93 57.83 17.13C57.94 17.36 58.12 17.62 58.3 17.82C58.48 18.01 58.73 18.2 58.95 18.32C59.14 18.42 59.48 18.56 59.7 18.63C60.07 18.73 60.21 18.74 61.14 18.74C61.81 18.74 62.29 18.72 62.49 18.68C62.66 18.64 62.96 18.55 63.17 18.49C63.38 18.42 63.68 18.29 63.85 18.2C64.01 18.11 64.23 17.95 64.35 17.86C64.47 17.76 64.66 17.57 64.78 17.43C64.9 17.28 65.08 17.01 65.17 16.81C65.27 16.61 65.4 16.27 65.45 16.05C65.51 15.82 65.58 15.35 65.61 15.01C65.63 14.66 65.65 12.98 65.65 11.29C65.66 8.91 65.64 8.19 65.59 8.09C65.53 7.96 65.52 7.96 64.9 7.96C64.55 7.95 64.05 7.96 63.79 7.98ZM89.54 8.06C89.36 8.09 89.05 8.2 88.86 8.3C88.65 8.4 88.42 8.57 88.27 8.72C88.14 8.86 87.97 9.09 87.9 9.23C87.83 9.37 87.73 9.64 87.68 9.82C87.59 10.12 87.59 10.38 87.59 13.17C87.59 15.87 87.59 16.24 87.67 16.58C87.72 16.79 87.84 17.11 87.93 17.29C88.02 17.48 88.21 17.74 88.34 17.88C88.48 18.02 88.76 18.22 88.95 18.32C89.15 18.42 89.49 18.55 89.71 18.61C89.94 18.67 90.39 18.74 90.73 18.77C91.06 18.8 91.9 18.82 92.58 18.81C93.66 18.8 93.84 18.78 93.96 18.71L94.1 18.62C94.1 17.13 94.09 17.08 93.99 16.97C93.88 16.86 93.82 16.85 92.71 16.79C92.06 16.75 91.31 16.71 91.03 16.69C90.75 16.67 90.46 16.62 90.37 16.58C90.29 16.54 90.18 16.42 90.12 16.3C90.03 16.12 90.02 15.98 90.01 15.14L89.99 14.19C90.64 14.23 91.3 14.27 91.87 14.29C92.44 14.32 93.1 14.36 93.34 14.38C93.74 14.41 93.78 14.4 93.88 14.3C93.99 14.2 94 14.15 94 13.45C94 12.76 93.99 12.71 93.88 12.59L93.77 12.46C90.9 12.3 90.05 12.26 90.03 12.26C90.01 12.26 90 11.88 90.01 11.41C90.02 10.72 90.04 10.52 90.11 10.39C90.16 10.29 90.27 10.19 90.39 10.14C90.55 10.07 90.69 10.06 91.29 10.09C91.68 10.11 92.42 10.15 92.94 10.19C93.86 10.25 93.89 10.25 94 10.15C94.1 10.05 94.1 9.99 94.1 9.28C94.1 8.62 94.09 8.51 94.01 8.43C93.96 8.39 93.75 8.31 93.54 8.27C93.33 8.22 92.91 8.15 92.6 8.11C92.3 8.07 91.56 8.02 90.96 8.01C90.17 7.99 89.78 8.01 89.54 8.06ZM96.01 8.56L95.88 8.69C95.87 17.86 95.88 18.86 95.94 18.91C95.97 18.94 96.32 18.99 96.76 19.02C97.18 19.05 97.65 19.09 97.8 19.1C98 19.12 98.1 19.11 98.15 19.06C98.2 19.01 98.21 18.38 98.21 15.93C98.21 14.25 98.22 12.86 98.24 12.84C98.27 12.83 98.32 12.86 98.36 12.91C98.41 12.96 98.72 13.53 99.07 14.19C99.41 14.85 99.74 15.44 99.81 15.51C99.92 15.63 99.99 15.65 100.63 15.7C101.01 15.73 101.38 15.74 101.45 15.72C101.52 15.71 101.6 15.65 101.64 15.59C101.68 15.53 102 14.99 102.36 14.37C102.71 13.76 103.03 13.25 103.06 13.24C103.11 13.23 103.12 13.86 103.12 16.29C103.12 19.16 103.13 19.36 103.21 19.46C103.29 19.56 103.4 19.58 104.24 19.66C104.76 19.71 105.24 19.75 105.3 19.75C105.37 19.74 105.45 19.71 105.47 19.68C105.49 19.64 105.51 17.38 105.51 14.66C105.51 10.6 105.5 9.69 105.44 9.55C105.4 9.46 105.33 9.34 105.27 9.3C105.21 9.23 105 9.18 104.57 9.13C104.24 9.09 103.82 9.06 103.64 9.06C103.37 9.05 103.31 9.07 103.17 9.19C103.09 9.27 102.51 10.24 101.89 11.34C101.25 12.48 100.73 13.35 100.69 13.35C100.64 13.35 100.14 12.43 99.46 11.11C98.83 9.88 98.24 8.81 98.17 8.73C98.06 8.63 97.95 8.58 97.73 8.55C97.56 8.52 97.13 8.49 96.78 8.47L96.14 8.43L96.01 8.56ZM51.33 8.65C51.14 8.67 50.79 8.74 50.55 8.8C50.31 8.86 49.96 8.98 49.76 9.07C49.57 9.16 49.29 9.32 49.15 9.41C49.01 9.51 48.78 9.7 48.63 9.84C48.48 9.98 48.28 10.2 48.19 10.33C48.1 10.45 47.94 10.71 47.85 10.91C47.75 11.11 47.62 11.42 47.56 11.6C47.51 11.78 47.42 12.13 47.38 12.39C47.32 12.73 47.3 13.23 47.3 14.39C47.3 15.58 47.32 16.06 47.38 16.43C47.43 16.7 47.54 17.11 47.63 17.34C47.72 17.58 47.87 17.9 47.97 18.06C48.07 18.21 48.29 18.46 48.45 18.62C48.62 18.77 48.92 18.98 49.13 19.08C49.34 19.19 49.65 19.31 49.81 19.35C49.98 19.39 50.32 19.44 50.57 19.46C50.83 19.48 51.27 19.47 51.56 19.44C51.86 19.41 52.28 19.33 52.5 19.28C52.72 19.22 53.14 19.06 53.44 18.91C53.81 18.72 54.07 18.55 54.32 18.31C54.51 18.13 54.76 17.84 54.88 17.68C54.99 17.51 55.15 17.21 55.24 17.01C55.33 16.82 55.45 16.48 55.51 16.25C55.57 16.03 55.64 15.65 55.67 15.41C55.7 15.17 55.72 14.46 55.72 13.84C55.72 13.21 55.69 12.44 55.66 12.13C55.63 11.82 55.55 11.38 55.49 11.15C55.42 10.92 55.29 10.59 55.21 10.41C55.12 10.24 54.95 9.97 54.84 9.83C54.72 9.68 54.49 9.45 54.33 9.32C54.16 9.2 53.94 9.05 53.84 9C53.75 8.95 53.51 8.86 53.31 8.81C53.12 8.75 52.76 8.68 52.53 8.65C52.29 8.62 52 8.6 51.89 8.6C51.78 8.61 51.53 8.63 51.33 8.65ZM41.68 9.65C41.58 9.66 41.18 9.71 40.79 9.77C40.4 9.83 39.77 9.94 39.39 10.02C39.02 10.11 38.62 10.23 38.51 10.29C38.4 10.35 38.26 10.48 38.19 10.58L38.07 10.76C38.07 18.46 38.09 20.18 38.13 20.28C38.16 20.39 38.24 20.48 38.34 20.53C38.43 20.58 38.68 20.62 38.89 20.64C39.1 20.65 39.62 20.64 40.05 20.6C40.49 20.57 41.11 20.51 41.45 20.47C41.78 20.44 42.26 20.36 42.51 20.3C42.76 20.25 43.17 20.13 43.42 20.04C43.68 19.95 43.97 19.83 44.08 19.77C44.2 19.72 44.42 19.58 44.59 19.46C44.76 19.34 45.01 19.12 45.14 18.97C45.28 18.82 45.46 18.54 45.55 18.36C45.65 18.18 45.76 17.87 45.81 17.68C45.87 17.4 45.89 17.17 45.87 16.66C45.86 16.14 45.83 15.93 45.74 15.72C45.69 15.56 45.53 15.31 45.39 15.16C45.25 15 45.03 14.82 44.91 14.75L44.68 14.62C45.26 14.08 45.38 13.92 45.54 13.61C45.64 13.38 45.76 13.07 45.78 12.92C45.81 12.77 45.83 12.46 45.83 12.23C45.83 12.01 45.8 11.67 45.76 11.47C45.71 11.27 45.63 11.01 45.57 10.89C45.5 10.77 45.35 10.55 45.22 10.41C45.08 10.25 44.87 10.1 44.64 9.99C44.45 9.9 44.15 9.78 43.98 9.74C43.77 9.68 43.41 9.65 42.77 9.64C42.26 9.63 41.77 9.63 41.68 9.65ZM109.94 9.79C109.75 9.83 109.45 9.91 109.28 9.97C109.12 10.03 108.87 10.16 108.73 10.25C108.59 10.34 108.34 10.56 108.18 10.73C108 10.92 107.82 11.19 107.69 11.46C107.58 11.69 107.43 12.06 107.37 12.28C107.27 12.66 107.26 12.84 107.24 14.45C107.23 15.88 107.24 16.29 107.31 16.71C107.35 16.99 107.45 17.4 107.53 17.62C107.6 17.85 107.77 18.21 107.89 18.43C108.02 18.65 108.24 18.97 108.4 19.14C108.55 19.31 108.81 19.54 108.98 19.66C109.15 19.78 109.43 19.95 109.61 20.04C109.8 20.13 110.1 20.26 110.3 20.33C110.49 20.39 110.86 20.49 111.11 20.53C111.36 20.57 111.84 20.61 112.17 20.61C112.62 20.61 112.89 20.58 113.16 20.51C113.37 20.45 113.68 20.34 113.85 20.26C114.05 20.17 114.28 19.99 114.56 19.71C114.83 19.44 115.01 19.2 115.11 19C115.19 18.83 115.3 18.58 115.34 18.44C115.39 18.3 115.47 17.96 115.52 17.68C115.59 17.24 115.6 16.92 115.58 15.51C115.56 14.1 115.54 13.79 115.46 13.4C115.4 13.15 115.29 12.76 115.2 12.54C115.11 12.31 114.95 11.98 114.83 11.8C114.71 11.62 114.54 11.37 114.44 11.25C114.34 11.13 114.09 10.9 113.9 10.75C113.7 10.59 113.34 10.37 113.09 10.25C112.84 10.13 112.45 9.98 112.23 9.92C112 9.86 111.63 9.79 111.39 9.77C111.15 9.74 110.81 9.72 110.63 9.72C110.45 9.72 110.14 9.75 109.94 9.79ZM117.31 10.84C117.27 10.92 117.26 11.78 117.28 14.54C117.3 17.93 117.31 18.16 117.41 18.59C117.47 18.84 117.57 19.21 117.65 19.4C117.72 19.6 117.83 19.84 117.89 19.94C117.95 20.04 118.09 20.24 118.21 20.39C118.32 20.53 118.57 20.78 118.77 20.94C118.96 21.1 119.33 21.33 119.58 21.45C119.83 21.57 120.25 21.72 120.52 21.79C120.78 21.86 121.23 21.95 121.52 22C121.8 22.04 122.22 22.08 122.44 22.08C122.66 22.08 123.02 22.04 123.24 22C123.46 21.95 123.78 21.85 123.95 21.77C124.12 21.68 124.39 21.51 124.53 21.37C124.68 21.23 124.87 20.99 124.96 20.82C125.05 20.66 125.16 20.41 125.2 20.27C125.25 20.13 125.32 19.82 125.36 19.58C125.42 19.24 125.43 18.41 125.43 15.63L125.43 12.11C125.24 11.96 124.87 11.87 124.2 11.76C123.39 11.63 123.19 11.61 123.12 11.66C123.05 11.72 123.05 12.1 123.05 14.93C123.05 16.69 123.03 18.36 123 18.64C122.96 19 122.91 19.23 122.82 19.42C122.72 19.62 122.64 19.72 122.45 19.82C122.24 19.95 122.17 19.96 121.78 19.96C121.54 19.96 121.22 19.91 121.05 19.87C120.88 19.82 120.63 19.72 120.5 19.64C120.34 19.56 120.19 19.41 120.08 19.25C119.99 19.11 119.87 18.86 119.82 18.69C119.74 18.42 119.73 18 119.71 14.77C119.68 11.22 119.68 11.14 119.58 11.07C119.52 11.03 119.08 10.94 118.59 10.87C118.1 10.79 117.63 10.73 117.54 10.73C117.43 10.73 117.36 10.77 117.31 10.84ZM31.1 11.12C31.02 11.13 30.78 11.16 30.57 11.19C30.36 11.22 30.03 11.29 29.84 11.34C29.64 11.39 29.31 11.5 29.1 11.59C28.89 11.67 28.57 11.84 28.39 11.96C28.21 12.08 27.94 12.28 27.79 12.41C27.64 12.53 27.4 12.8 27.25 13C27.1 13.19 26.9 13.51 26.81 13.71C26.71 13.9 26.57 14.25 26.5 14.47C26.43 14.69 26.34 15.05 26.31 15.26C26.26 15.54 26.24 16.1 26.24 17.32C26.25 18.83 26.26 19.05 26.35 19.51C26.42 19.84 26.54 20.17 26.69 20.47C26.85 20.8 27 21.02 27.21 21.23C27.37 21.39 27.64 21.6 27.81 21.7C27.98 21.79 28.3 21.92 28.52 21.98C28.82 22.06 29.07 22.08 29.51 22.08C29.83 22.08 30.3 22.04 30.55 22C30.8 21.96 31.27 21.85 31.59 21.76C31.91 21.68 32.29 21.55 32.45 21.47C32.61 21.4 32.75 21.28 32.79 21.21C32.83 21.13 32.85 20.84 32.85 20.41C32.85 20.04 32.83 19.68 32.81 19.62C32.79 19.56 32.74 19.49 32.7 19.47C32.66 19.45 32.29 19.52 31.89 19.61C31.49 19.71 30.9 19.82 30.6 19.87C30.11 19.95 30 19.95 29.74 19.89C29.51 19.84 29.38 19.77 29.24 19.64C29.13 19.54 29 19.37 28.94 19.27C28.89 19.16 28.81 18.93 28.77 18.76C28.72 18.51 28.7 18.08 28.7 16.86C28.7 15.48 28.71 15.24 28.79 14.9C28.84 14.69 28.94 14.42 28.99 14.31C29.05 14.19 29.18 14.01 29.27 13.9C29.36 13.8 29.55 13.65 29.69 13.57C29.82 13.5 30.1 13.39 30.29 13.35C30.49 13.31 31.1 13.23 31.66 13.18C32.43 13.1 32.69 13.06 32.75 13C32.81 12.94 32.83 12.75 32.85 12.24C32.85 11.87 32.85 11.5 32.83 11.41C32.81 11.31 32.76 11.22 32.69 11.18C32.62 11.14 32.31 11.11 31.92 11.11C31.55 11.1 31.19 11.11 31.1 11.12ZM126.74 12.4C126.7 12.49 126.69 12.79 126.7 13.29C126.72 13.95 126.74 14.05 126.83 14.14C126.91 14.22 127.19 14.29 128.11 14.46L129.29 14.67C129.29 22.01 129.3 22.97 129.35 23.07C129.38 23.14 129.47 23.22 129.54 23.24C129.61 23.27 130.04 23.36 130.5 23.45C130.96 23.54 131.4 23.61 131.47 23.61C131.54 23.61 131.62 23.57 131.66 23.52C131.71 23.44 131.72 22.54 131.72 19.29C131.72 15.39 131.72 15.16 131.81 15.16C131.86 15.16 132.38 15.26 132.96 15.38C133.6 15.51 134.07 15.59 134.13 15.57C134.22 15.53 134.23 15.48 134.24 14.66C134.25 13.88 134.24 13.77 134.17 13.69C134.11 13.63 133.81 13.55 133.29 13.44C132.86 13.35 131.3 13.04 129.82 12.76C128.34 12.49 127.06 12.26 126.97 12.26C126.83 12.26 126.79 12.29 126.74 12.4ZM23.8 12.47C23.5 12.49 22.93 12.56 22.54 12.62C22.15 12.68 21.6 12.78 21.32 12.84C21.04 12.91 20.63 13.03 20.41 13.12C20.18 13.21 19.89 13.36 19.75 13.45C19.61 13.54 19.4 13.69 19.3 13.79C19.19 13.88 19 14.1 18.87 14.27C18.75 14.44 18.61 14.7 18.55 14.85C18.49 15.01 18.41 15.26 18.36 15.41C18.3 15.65 18.28 16.29 18.27 19.79C18.25 23.69 18.25 23.89 18.34 23.97C18.43 24.06 18.47 24.06 19.42 23.87C20.16 23.73 20.45 23.65 20.53 23.58C20.64 23.47 20.64 23.47 20.64 21.35C20.64 20.18 20.65 19.22 20.67 19.21C20.69 19.19 21.46 19.05 22.38 18.88C23.3 18.71 24.14 18.54 24.25 18.52C24.35 18.49 24.47 18.41 24.51 18.35C24.57 18.26 24.59 18.07 24.59 17.48C24.59 16.89 24.57 16.72 24.51 16.66C24.47 16.62 24.42 16.58 24.4 16.58C24.38 16.58 23.75 16.69 22.99 16.83C22.24 16.97 21.41 17.13 21.15 17.19C20.71 17.29 20.68 17.29 20.65 17.2C20.63 17.16 20.63 16.76 20.64 16.33C20.66 15.75 20.69 15.5 20.75 15.39C20.79 15.3 20.9 15.17 20.98 15.09C21.07 15.02 21.23 14.93 21.33 14.91C21.44 14.88 22.18 14.74 22.99 14.59C24.19 14.38 24.48 14.31 24.58 14.22C24.69 14.12 24.69 14.08 24.69 13.35C24.69 12.93 24.67 12.56 24.65 12.53C24.63 12.5 24.56 12.46 24.49 12.45C24.42 12.43 24.11 12.44 23.8 12.47ZM135.65 14.02C135.63 14.04 135.61 16.37 135.61 19.2C135.62 24.06 135.63 24.34 135.71 24.42C135.77 24.48 136.17 24.59 136.76 24.72C137.29 24.83 137.75 24.92 137.79 24.92C137.82 24.92 137.88 24.89 137.93 24.85C138 24.78 138.01 24.52 138.01 22.69L138.01 20.6C138.18 20.64 138.95 20.81 139.82 21.01C140.69 21.2 141.42 21.36 141.43 21.36C141.44 21.36 141.45 22.32 141.45 23.49L141.45 25.61C141.65 25.79 141.96 25.89 142.6 26.03C143.1 26.15 143.55 26.25 143.61 26.25C143.67 26.25 143.74 26.22 143.78 26.18C143.82 26.13 143.84 24.96 143.84 21.03C143.84 16 143.84 15.94 143.74 15.83C143.66 15.75 143.5 15.69 143.14 15.61C142.87 15.55 142.42 15.45 142.14 15.38C141.79 15.3 141.6 15.28 141.54 15.31C141.46 15.36 141.45 15.51 141.45 17.29C141.45 18.81 141.44 19.23 141.39 19.23C141.36 19.22 140.59 19.06 139.68 18.85L138.03 18.48C137.99 14.86 137.97 14.54 137.91 14.47C137.86 14.43 137.42 14.31 136.9 14.19C136.4 14.08 135.91 13.99 135.84 13.99C135.76 13.99 135.67 14 135.65 14.02ZM13.16 14.53C13.07 14.54 12.85 14.58 12.66 14.63C12.47 14.67 12.17 14.76 11.98 14.83C11.79 14.9 11.52 15.04 11.38 15.13C11.24 15.22 11.04 15.4 10.93 15.52C10.82 15.64 10.65 15.9 10.56 16.1C10.43 16.39 10.2 17.35 9.33 21.22C8.74 23.85 8.26 26.05 8.26 26.12C8.26 26.19 8.29 26.26 8.33 26.27C8.36 26.28 8.86 26.18 9.43 26.05C10.01 25.92 10.51 25.78 10.56 25.74C10.61 25.7 10.67 25.59 10.7 25.51C10.72 25.42 10.85 24.84 10.98 24.21C11.11 23.58 11.22 23.06 11.22 23.05C11.23 23.05 11.87 22.9 12.65 22.72C13.43 22.54 14.07 22.4 14.08 22.4C14.08 22.4 14.2 22.92 14.35 23.55C14.49 24.18 14.63 24.73 14.67 24.76C14.72 24.82 14.91 24.79 15.81 24.61C16.41 24.49 16.93 24.37 16.97 24.34C17.01 24.31 17.05 24.22 17.05 24.14C17.05 24.05 16.58 22.09 16 19.79C15.28 16.9 14.91 15.49 14.8 15.27C14.72 15.1 14.58 14.89 14.48 14.81C14.39 14.74 14.21 14.64 14.09 14.6C13.97 14.57 13.74 14.53 13.59 14.52C13.43 14.51 13.24 14.52 13.16 14.53Z" />
		<path class="shp2" d="M69.13 0.09C69.21 0.1 69.37 0.1 69.48 0.09C69.6 0.08 69.53 0.07 69.33 0.07C69.14 0.07 69.05 0.08 69.13 0.09ZM82.52 0.09C82.6 0.1 82.76 0.1 82.87 0.09C82.98 0.08 82.91 0.07 82.72 0.07C82.52 0.07 82.43 0.08 82.52 0.09ZM70.22 7.66C70.09 7.67 69.64 7.72 69.21 7.76C68.77 7.8 68.32 7.86 68.19 7.89C68.07 7.92 67.9 7.98 67.82 8.02C67.75 8.06 67.66 8.14 67.62 8.2C67.57 8.29 67.55 9.42 67.54 13.22C67.53 18.11 67.53 18.13 67.63 18.27L67.74 18.41C69.76 18.35 69.79 18.35 69.9 18.23C70.02 18.11 70.02 18.11 70.02 16.28L70.02 14.45L71.16 14.45C72.65 17.26 73.13 18.13 73.19 18.19L73.29 18.32C75.67 18.24 75.72 18.23 75.74 18.13C75.75 18.07 75.28 17.16 74.65 16C74.05 14.88 73.58 13.96 73.6 13.95C73.62 13.94 73.78 13.85 73.96 13.75C74.13 13.64 74.38 13.45 74.51 13.33C74.64 13.2 74.84 12.96 74.95 12.79C75.06 12.62 75.19 12.33 75.25 12.13C75.35 11.83 75.37 11.66 75.37 11.04C75.37 10.59 75.34 10.19 75.3 10.02C75.26 9.87 75.15 9.57 75.06 9.37C74.94 9.12 74.79 8.91 74.57 8.68C74.35 8.46 74.12 8.3 73.82 8.15C73.58 8.03 73.22 7.89 73.01 7.84C72.8 7.78 72.41 7.72 72.13 7.69C71.86 7.65 71.37 7.63 71.04 7.64C70.72 7.64 70.35 7.66 70.22 7.66ZM77.42 7.87C77.33 7.96 77.27 8.09 77.25 8.24C77.23 8.37 77.22 10.64 77.23 13.29C77.24 17.83 77.25 18.11 77.33 18.2C77.41 18.27 77.54 18.29 78.35 18.3C79.11 18.31 79.29 18.3 79.38 18.24L79.5 18.16C79.52 13.24 79.54 12.18 79.57 12.17C79.6 12.16 79.85 12.54 80.11 13.01C80.38 13.48 81.14 14.8 81.8 15.95C82.46 17.09 83.04 18.07 83.09 18.13C83.14 18.18 83.24 18.25 83.31 18.29C83.41 18.34 83.74 18.37 84.3 18.4C84.99 18.42 85.19 18.42 85.32 18.36C85.42 18.32 85.53 18.22 85.56 18.15C85.62 18.03 85.63 17.13 85.63 13.03C85.63 9.92 85.61 8.03 85.58 7.99C85.56 7.94 85.42 7.89 85.29 7.87C85.16 7.86 84.71 7.84 84.29 7.83C83.73 7.83 83.51 7.85 83.47 7.89C83.42 7.94 83.4 8.72 83.39 11.06C83.38 13.48 83.36 14.17 83.31 14.17C83.28 14.17 82.48 12.82 81.54 11.16C80.59 9.51 79.78 8.1 79.72 8.02C79.67 7.94 79.56 7.84 79.49 7.8C79.38 7.75 79.11 7.73 78.46 7.73L77.56 7.73L77.42 7.87ZM63.79 7.98C63.4 8.01 63.3 8.03 63.24 8.11C63.18 8.2 63.17 8.75 63.17 11.67C63.17 14.57 63.16 15.19 63.09 15.49C63.05 15.68 62.97 15.93 62.91 16.05C62.84 16.16 62.7 16.32 62.59 16.41C62.45 16.52 62.26 16.59 61.98 16.66C61.7 16.72 61.46 16.74 61.2 16.72C60.99 16.71 60.72 16.66 60.61 16.61C60.5 16.56 60.36 16.48 60.29 16.41C60.23 16.35 60.14 16.23 60.09 16.15C60.05 16.07 59.98 15.87 59.94 15.72C59.88 15.49 59.86 14.71 59.84 11.88C59.82 8.88 59.81 8.3 59.74 8.24C59.68 8.17 59.55 8.17 58.67 8.23C57.87 8.28 57.65 8.32 57.55 8.39L57.42 8.48C57.39 14 57.41 15.35 57.44 15.67C57.47 15.93 57.53 16.29 57.58 16.45C57.62 16.62 57.73 16.93 57.83 17.13C57.94 17.36 58.12 17.62 58.3 17.82C58.48 18.01 58.73 18.2 58.95 18.32C59.14 18.42 59.48 18.56 59.7 18.63C60.07 18.73 60.21 18.74 61.14 18.74C61.81 18.74 62.29 18.72 62.49 18.68C62.66 18.64 62.96 18.55 63.17 18.49C63.38 18.42 63.68 18.29 63.85 18.2C64.01 18.11 64.23 17.95 64.35 17.86C64.47 17.76 64.66 17.57 64.78 17.43C64.9 17.28 65.08 17.01 65.17 16.81C65.27 16.61 65.4 16.27 65.45 16.05C65.51 15.82 65.58 15.35 65.61 15.01C65.63 14.66 65.65 12.98 65.65 11.29C65.66 8.91 65.64 8.19 65.59 8.09C65.53 7.96 65.52 7.96 64.9 7.96C64.55 7.95 64.05 7.96 63.79 7.98ZM89.54 8.06C89.36 8.09 89.05 8.2 88.86 8.3C88.65 8.4 88.42 8.57 88.27 8.72C88.14 8.86 87.97 9.09 87.9 9.23C87.83 9.37 87.73 9.64 87.68 9.82C87.59 10.12 87.59 10.38 87.59 13.17C87.59 15.87 87.59 16.24 87.67 16.58C87.72 16.79 87.84 17.11 87.93 17.29C88.02 17.48 88.21 17.74 88.34 17.88C88.48 18.02 88.76 18.22 88.95 18.32C89.15 18.42 89.49 18.55 89.71 18.61C89.94 18.67 90.39 18.74 90.73 18.77C91.06 18.8 91.9 18.82 92.58 18.81C93.66 18.8 93.84 18.78 93.96 18.71L94.1 18.62C94.1 17.13 94.09 17.08 93.99 16.97C93.88 16.86 93.82 16.85 92.71 16.79C92.06 16.75 91.31 16.71 91.03 16.69C90.75 16.67 90.46 16.62 90.37 16.58C90.29 16.54 90.18 16.42 90.12 16.3C90.03 16.12 90.02 15.98 90.01 15.14L89.99 14.19C90.64 14.23 91.3 14.27 91.87 14.29C92.44 14.32 93.1 14.36 93.34 14.38C93.74 14.41 93.78 14.4 93.88 14.3C93.99 14.2 94 14.15 94 13.45C94 12.76 93.99 12.71 93.88 12.59L93.77 12.46C90.9 12.3 90.05 12.26 90.03 12.26C90.01 12.26 90 11.88 90.01 11.41C90.02 10.72 90.04 10.52 90.11 10.39C90.16 10.29 90.27 10.19 90.39 10.14C90.55 10.07 90.69 10.06 91.29 10.09C91.68 10.11 92.42 10.15 92.94 10.19C93.86 10.25 93.89 10.25 94 10.15C94.1 10.05 94.1 9.99 94.1 9.28C94.1 8.62 94.09 8.51 94.01 8.43C93.96 8.39 93.75 8.31 93.54 8.27C93.33 8.22 92.91 8.15 92.6 8.11C92.3 8.07 91.56 8.02 90.96 8.01C90.17 7.99 89.78 8.01 89.54 8.06ZM96.01 8.56L95.88 8.69C95.87 17.86 95.88 18.86 95.94 18.91C95.97 18.94 96.32 18.99 96.76 19.02C97.18 19.05 97.65 19.09 97.8 19.1C98 19.12 98.1 19.11 98.15 19.06C98.2 19.01 98.21 18.38 98.21 15.93C98.21 14.25 98.22 12.86 98.24 12.84C98.27 12.83 98.32 12.86 98.36 12.91C98.41 12.96 98.72 13.53 99.07 14.19C99.41 14.85 99.74 15.44 99.81 15.51C99.92 15.63 99.99 15.65 100.63 15.7C101.01 15.73 101.38 15.74 101.45 15.72C101.52 15.71 101.6 15.65 101.64 15.59C101.68 15.53 102 14.99 102.36 14.37C102.71 13.76 103.03 13.25 103.06 13.24C103.11 13.23 103.12 13.86 103.12 16.29C103.12 19.16 103.13 19.36 103.21 19.46C103.29 19.56 103.4 19.58 104.24 19.66C104.76 19.71 105.24 19.75 105.3 19.75C105.37 19.74 105.45 19.71 105.47 19.68C105.49 19.64 105.51 17.38 105.51 14.66C105.51 10.6 105.5 9.69 105.44 9.55C105.4 9.46 105.33 9.34 105.27 9.3C105.21 9.23 105 9.18 104.57 9.13C104.24 9.09 103.82 9.06 103.64 9.06C103.37 9.05 103.31 9.07 103.17 9.19C103.09 9.27 102.51 10.24 101.89 11.34C101.25 12.48 100.73 13.35 100.69 13.35C100.64 13.35 100.14 12.43 99.46 11.11C98.83 9.88 98.24 8.81 98.17 8.73C98.06 8.63 97.95 8.58 97.73 8.55C97.56 8.52 97.13 8.49 96.78 8.47L96.14 8.43L96.01 8.56ZM51.33 8.65C51.14 8.67 50.79 8.74 50.55 8.8C50.31 8.86 49.96 8.98 49.76 9.07C49.57 9.16 49.29 9.32 49.15 9.41C49.01 9.51 48.78 9.7 48.63 9.84C48.48 9.98 48.28 10.2 48.19 10.33C48.1 10.45 47.94 10.71 47.85 10.91C47.75 11.11 47.62 11.42 47.56 11.6C47.51 11.78 47.42 12.13 47.38 12.39C47.32 12.73 47.3 13.23 47.3 14.39C47.3 15.58 47.32 16.06 47.38 16.43C47.43 16.7 47.54 17.11 47.63 17.34C47.72 17.58 47.87 17.9 47.97 18.06C48.07 18.21 48.29 18.46 48.45 18.62C48.62 18.77 48.92 18.98 49.13 19.08C49.34 19.19 49.65 19.31 49.81 19.35C49.98 19.39 50.32 19.44 50.57 19.46C50.83 19.48 51.27 19.47 51.56 19.44C51.86 19.41 52.28 19.33 52.5 19.28C52.72 19.22 53.14 19.06 53.44 18.91C53.81 18.72 54.07 18.55 54.32 18.31C54.51 18.13 54.76 17.84 54.88 17.68C54.99 17.51 55.15 17.21 55.24 17.01C55.33 16.82 55.45 16.48 55.51 16.25C55.57 16.03 55.64 15.65 55.67 15.41C55.7 15.17 55.72 14.46 55.72 13.84C55.72 13.21 55.69 12.44 55.66 12.13C55.63 11.82 55.55 11.38 55.49 11.15C55.42 10.92 55.29 10.59 55.21 10.41C55.12 10.24 54.95 9.97 54.84 9.83C54.72 9.68 54.49 9.45 54.33 9.32C54.16 9.2 53.94 9.05 53.84 9C53.75 8.95 53.51 8.86 53.31 8.81C53.12 8.75 52.76 8.68 52.53 8.65C52.29 8.62 52 8.6 51.89 8.6C51.78 8.61 51.53 8.63 51.33 8.65ZM41.68 9.65C41.58 9.66 41.18 9.71 40.79 9.77C40.4 9.83 39.77 9.94 39.39 10.02C39.02 10.11 38.62 10.23 38.51 10.29C38.4 10.35 38.26 10.48 38.19 10.58L38.07 10.76C38.07 18.46 38.09 20.18 38.13 20.28C38.16 20.39 38.24 20.48 38.34 20.53C38.43 20.58 38.68 20.62 38.89 20.64C39.1 20.65 39.62 20.64 40.05 20.6C40.49 20.57 41.11 20.51 41.45 20.47C41.78 20.44 42.26 20.36 42.51 20.3C42.76 20.25 43.17 20.13 43.42 20.04C43.68 19.95 43.97 19.83 44.08 19.77C44.2 19.72 44.42 19.58 44.59 19.46C44.76 19.34 45.01 19.12 45.14 18.97C45.28 18.82 45.46 18.54 45.55 18.36C45.65 18.18 45.76 17.87 45.81 17.68C45.87 17.4 45.89 17.17 45.87 16.66C45.86 16.14 45.83 15.93 45.74 15.72C45.69 15.56 45.53 15.31 45.39 15.16C45.25 15 45.03 14.82 44.91 14.75L44.68 14.62C45.26 14.08 45.38 13.92 45.54 13.61C45.64 13.38 45.76 13.07 45.78 12.92C45.81 12.77 45.83 12.46 45.83 12.23C45.83 12.01 45.8 11.67 45.76 11.47C45.71 11.27 45.63 11.01 45.57 10.89C45.5 10.77 45.35 10.55 45.22 10.41C45.08 10.25 44.87 10.1 44.64 9.99C44.45 9.9 44.15 9.78 43.98 9.74C43.77 9.68 43.41 9.65 42.77 9.64C42.26 9.63 41.77 9.63 41.68 9.65ZM109.94 9.79C109.75 9.83 109.45 9.91 109.28 9.97C109.12 10.03 108.87 10.16 108.73 10.25C108.59 10.34 108.34 10.56 108.18 10.73C108 10.92 107.82 11.19 107.69 11.46C107.58 11.69 107.43 12.06 107.37 12.28C107.27 12.66 107.26 12.84 107.24 14.45C107.23 15.88 107.24 16.29 107.31 16.71C107.35 16.99 107.45 17.4 107.53 17.62C107.6 17.85 107.77 18.21 107.89 18.43C108.02 18.65 108.24 18.97 108.4 19.14C108.55 19.31 108.81 19.54 108.98 19.66C109.15 19.78 109.43 19.95 109.61 20.04C109.8 20.13 110.1 20.26 110.3 20.33C110.49 20.39 110.86 20.49 111.11 20.53C111.36 20.57 111.84 20.61 112.17 20.61C112.62 20.61 112.89 20.58 113.16 20.51C113.37 20.45 113.68 20.34 113.85 20.26C114.05 20.17 114.28 19.99 114.56 19.71C114.83 19.44 115.01 19.2 115.11 19C115.19 18.83 115.3 18.58 115.34 18.44C115.39 18.3 115.47 17.96 115.52 17.68C115.59 17.24 115.6 16.92 115.58 15.51C115.56 14.1 115.54 13.79 115.46 13.4C115.4 13.15 115.29 12.76 115.2 12.54C115.11 12.31 114.95 11.98 114.83 11.8C114.71 11.62 114.54 11.37 114.44 11.25C114.34 11.13 114.09 10.9 113.9 10.75C113.7 10.59 113.34 10.37 113.09 10.25C112.84 10.13 112.45 9.98 112.23 9.92C112 9.86 111.63 9.79 111.39 9.77C111.15 9.74 110.81 9.72 110.63 9.72C110.45 9.72 110.14 9.75 109.94 9.79ZM117.31 10.84C117.27 10.92 117.26 11.78 117.28 14.54C117.3 17.93 117.31 18.16 117.41 18.59C117.47 18.84 117.57 19.21 117.65 19.4C117.72 19.6 117.83 19.84 117.89 19.94C117.95 20.04 118.09 20.24 118.21 20.39C118.32 20.53 118.57 20.78 118.77 20.94C118.96 21.1 119.33 21.33 119.58 21.45C119.83 21.57 120.25 21.72 120.52 21.79C120.78 21.86 121.23 21.95 121.52 22C121.8 22.04 122.22 22.08 122.44 22.08C122.66 22.08 123.02 22.04 123.24 22C123.46 21.95 123.78 21.85 123.95 21.77C124.12 21.68 124.39 21.51 124.53 21.37C124.68 21.23 124.87 20.99 124.96 20.82C125.05 20.66 125.16 20.41 125.2 20.27C125.25 20.13 125.32 19.82 125.36 19.58C125.42 19.24 125.43 18.41 125.43 15.63L125.43 12.11C125.24 11.96 124.87 11.87 124.2 11.76C123.39 11.63 123.19 11.61 123.12 11.66C123.05 11.72 123.05 12.1 123.05 14.93C123.05 16.69 123.03 18.36 123 18.64C122.96 19 122.91 19.23 122.82 19.42C122.72 19.62 122.64 19.72 122.45 19.82C122.24 19.95 122.17 19.96 121.78 19.96C121.54 19.96 121.22 19.91 121.05 19.87C120.88 19.82 120.63 19.72 120.5 19.64C120.34 19.56 120.19 19.41 120.08 19.25C119.99 19.11 119.87 18.86 119.82 18.69C119.74 18.42 119.73 18 119.71 14.77C119.68 11.22 119.68 11.14 119.58 11.07C119.52 11.03 119.08 10.94 118.59 10.87C118.1 10.79 117.63 10.73 117.54 10.73C117.43 10.73 117.36 10.77 117.31 10.84ZM31.1 11.12C31.02 11.13 30.78 11.16 30.57 11.19C30.36 11.22 30.03 11.29 29.84 11.34C29.64 11.39 29.31 11.5 29.1 11.59C28.89 11.67 28.57 11.84 28.39 11.96C28.21 12.08 27.94 12.28 27.79 12.41C27.64 12.53 27.4 12.8 27.25 13C27.1 13.19 26.9 13.51 26.81 13.71C26.71 13.9 26.57 14.25 26.5 14.47C26.43 14.69 26.34 15.05 26.31 15.26C26.26 15.54 26.24 16.1 26.24 17.32C26.25 18.83 26.26 19.05 26.35 19.51C26.42 19.84 26.54 20.17 26.69 20.47C26.85 20.8 27 21.02 27.21 21.23C27.37 21.39 27.64 21.6 27.81 21.7C27.98 21.79 28.3 21.92 28.52 21.98C28.82 22.06 29.07 22.08 29.51 22.08C29.83 22.08 30.3 22.04 30.55 22C30.8 21.96 31.27 21.85 31.59 21.76C31.91 21.68 32.29 21.55 32.45 21.47C32.61 21.4 32.75 21.28 32.79 21.21C32.83 21.13 32.85 20.84 32.85 20.41C32.85 20.04 32.83 19.68 32.81 19.62C32.79 19.56 32.74 19.49 32.7 19.47C32.66 19.45 32.29 19.52 31.89 19.61C31.49 19.71 30.9 19.82 30.6 19.87C30.11 19.95 30 19.95 29.74 19.89C29.51 19.84 29.38 19.77 29.24 19.64C29.13 19.54 29 19.37 28.94 19.27C28.89 19.16 28.81 18.93 28.77 18.76C28.72 18.51 28.7 18.08 28.7 16.86C28.7 15.48 28.71 15.24 28.79 14.9C28.84 14.69 28.94 14.42 28.99 14.31C29.05 14.19 29.18 14.01 29.27 13.9C29.36 13.8 29.55 13.65 29.69 13.57C29.82 13.5 30.1 13.39 30.29 13.35C30.49 13.31 31.1 13.23 31.66 13.18C32.43 13.1 32.69 13.06 32.75 13C32.81 12.94 32.83 12.75 32.85 12.24C32.85 11.87 32.85 11.5 32.83 11.41C32.81 11.31 32.76 11.22 32.69 11.18C32.62 11.14 32.31 11.11 31.92 11.11C31.55 11.1 31.19 11.11 31.1 11.12ZM126.74 12.4C126.7 12.49 126.69 12.79 126.7 13.29C126.72 13.95 126.74 14.05 126.83 14.14C126.91 14.22 127.19 14.29 128.11 14.46L129.29 14.67C129.29 22.01 129.3 22.97 129.35 23.07C129.38 23.14 129.47 23.22 129.54 23.24C129.61 23.27 130.04 23.36 130.5 23.45C130.96 23.54 131.4 23.61 131.47 23.61C131.54 23.61 131.62 23.57 131.66 23.52C131.71 23.44 131.72 22.54 131.72 19.29C131.72 15.39 131.72 15.16 131.81 15.16C131.86 15.16 132.38 15.26 132.96 15.38C133.6 15.51 134.07 15.59 134.13 15.57C134.22 15.53 134.23 15.48 134.24 14.66C134.25 13.88 134.24 13.77 134.17 13.69C134.11 13.63 133.81 13.55 133.29 13.44C132.86 13.35 131.3 13.04 129.82 12.76C128.34 12.49 127.06 12.26 126.97 12.26C126.83 12.26 126.79 12.29 126.74 12.4ZM23.8 12.47C23.5 12.49 22.93 12.56 22.54 12.62C22.15 12.68 21.6 12.78 21.32 12.84C21.04 12.91 20.63 13.03 20.41 13.12C20.18 13.21 19.89 13.36 19.75 13.45C19.61 13.54 19.4 13.69 19.3 13.79C19.19 13.88 19 14.1 18.87 14.27C18.75 14.44 18.61 14.7 18.55 14.85C18.49 15.01 18.41 15.26 18.36 15.41C18.3 15.65 18.28 16.29 18.27 19.79C18.25 23.69 18.25 23.89 18.34 23.97C18.43 24.06 18.47 24.06 19.42 23.87C20.16 23.73 20.45 23.65 20.53 23.58C20.64 23.47 20.64 23.47 20.64 21.35C20.64 20.18 20.65 19.22 20.67 19.21C20.69 19.19 21.46 19.05 22.38 18.88C23.3 18.71 24.14 18.54 24.25 18.52C24.35 18.49 24.47 18.41 24.51 18.35C24.57 18.26 24.59 18.07 24.59 17.48C24.59 16.89 24.57 16.72 24.51 16.66C24.47 16.62 24.42 16.58 24.4 16.58C24.38 16.58 23.75 16.69 22.99 16.83C22.24 16.97 21.41 17.13 21.15 17.19C20.71 17.29 20.68 17.29 20.65 17.2C20.63 17.16 20.63 16.76 20.64 16.33C20.66 15.75 20.69 15.5 20.75 15.39C20.79 15.3 20.9 15.17 20.98 15.09C21.07 15.02 21.23 14.93 21.33 14.91C21.44 14.88 22.18 14.74 22.99 14.59C24.19 14.38 24.48 14.31 24.58 14.22C24.69 14.12 24.69 14.08 24.69 13.35C24.69 12.93 24.67 12.56 24.65 12.53C24.63 12.5 24.56 12.46 24.49 12.45C24.42 12.43 24.11 12.44 23.8 12.47ZM135.65 14.02C135.63 14.04 135.61 16.37 135.61 19.2C135.62 24.06 135.63 24.34 135.71 24.42C135.77 24.48 136.17 24.59 136.76 24.72C137.29 24.83 137.75 24.92 137.79 24.92C137.82 24.92 137.88 24.89 137.93 24.85C138 24.78 138.01 24.52 138.01 22.69L138.01 20.6C138.18 20.64 138.95 20.81 139.82 21.01C140.69 21.2 141.42 21.36 141.43 21.36C141.44 21.36 141.45 22.32 141.45 23.49L141.45 25.61C141.65 25.79 141.96 25.89 142.6 26.03C143.1 26.15 143.55 26.25 143.61 26.25C143.67 26.25 143.74 26.22 143.78 26.18C143.82 26.13 143.84 24.96 143.84 21.03C143.84 16 143.84 15.94 143.74 15.83C143.66 15.75 143.5 15.69 143.14 15.61C142.87 15.55 142.42 15.45 142.14 15.38C141.79 15.3 141.6 15.28 141.54 15.31C141.46 15.36 141.45 15.51 141.45 17.29C141.45 18.81 141.44 19.23 141.39 19.23C141.36 19.22 140.59 19.06 139.68 18.85L138.03 18.48C137.99 14.86 137.97 14.54 137.91 14.47C137.86 14.43 137.42 14.31 136.9 14.19C136.4 14.08 135.91 13.99 135.84 13.99C135.76 13.99 135.67 14 135.65 14.02ZM13.16 14.53C13.07 14.54 12.85 14.58 12.66 14.63C12.47 14.67 12.17 14.76 11.98 14.83C11.79 14.9 11.52 15.04 11.38 15.13C11.24 15.22 11.04 15.4 10.93 15.52C10.82 15.64 10.65 15.9 10.56 16.1C10.43 16.39 10.2 17.35 9.33 21.22C8.74 23.85 8.26 26.05 8.26 26.12C8.26 26.19 8.29 26.26 8.33 26.27C8.36 26.28 8.86 26.18 9.43 26.05C10.01 25.92 10.51 25.78 10.56 25.74C10.61 25.7 10.67 25.59 10.7 25.51C10.72 25.42 10.85 24.84 10.98 24.21C11.11 23.58 11.22 23.06 11.22 23.05C11.23 23.05 11.87 22.9 12.65 22.72C13.43 22.54 14.07 22.4 14.08 22.4C14.08 22.4 14.2 22.92 14.35 23.55C14.49 24.18 14.63 24.73 14.67 24.76C14.72 24.82 14.91 24.79 15.81 24.61C16.41 24.49 16.93 24.37 16.97 24.34C17.01 24.31 17.05 24.22 17.05 24.14C17.05 24.05 16.58 22.09 16 19.79C15.28 16.9 14.91 15.49 14.8 15.27C14.72 15.1 14.58 14.89 14.48 14.81C14.39 14.74 14.21 14.64 14.09 14.6C13.97 14.57 13.74 14.53 13.59 14.52C13.43 14.51 13.24 14.52 13.16 14.53Z" />
		<path class="shp0" d="M41.3 15.83L40.48 15.95L40.46 18.59C41.42 18.49 41.88 18.43 42.11 18.38C42.33 18.34 42.63 18.25 42.77 18.18C42.91 18.12 43.11 17.98 43.21 17.87C43.33 17.75 43.43 17.58 43.48 17.42C43.52 17.28 43.55 17.08 43.55 16.98C43.55 16.87 43.52 16.67 43.49 16.52C43.46 16.37 43.37 16.19 43.3 16.1C43.23 16.02 43.08 15.91 42.97 15.86C42.85 15.8 42.63 15.75 42.44 15.74C42.26 15.73 41.74 15.77 41.3 15.83ZM12.55 16.71C12.5 16.76 12.47 16.81 12.47 16.83C12.47 16.85 12.28 17.79 12.04 18.92C11.81 20.05 11.62 20.99 11.63 20.99C11.63 20.99 12.09 20.89 12.65 20.77C13.21 20.64 13.67 20.54 13.68 20.53C13.68 20.53 13.49 19.65 13.24 18.59C12.9 17.08 12.78 16.66 12.72 16.64C12.67 16.63 12.6 16.66 12.55 16.71Z" />
		<path class="shp0" d="M41.73 11.62C41.68 11.63 41.45 11.67 41.19 11.7C40.94 11.73 40.68 11.77 40.6 11.78L40.46 11.8C40.46 13.96 40.47 14.24 40.52 14.24C40.56 14.24 40.95 14.2 41.4 14.14C41.84 14.09 42.36 14 42.55 13.94C42.82 13.86 42.95 13.78 43.14 13.59C43.35 13.39 43.4 13.31 43.45 13.05C43.49 12.87 43.5 12.62 43.48 12.46C43.46 12.31 43.41 12.11 43.36 12.03C43.31 11.94 43.16 11.82 43.02 11.75C42.81 11.65 42.67 11.63 42.28 11.62C42.02 11.61 41.77 11.61 41.73 11.62ZM110.55 11.98C110.44 12.02 110.27 12.14 110.17 12.24C110.07 12.35 109.94 12.56 109.88 12.72C109.82 12.87 109.75 13.18 109.72 13.4C109.67 13.68 109.66 14.27 109.68 15.23C109.7 16.35 109.72 16.72 109.79 16.96C109.83 17.13 109.92 17.37 109.98 17.5C110.04 17.62 110.2 17.84 110.33 17.97C110.53 18.16 110.65 18.23 110.95 18.32C111.19 18.4 111.45 18.44 111.72 18.44C112.05 18.44 112.17 18.41 112.37 18.31C112.51 18.24 112.68 18.1 112.77 17.98C112.85 17.87 112.96 17.62 113.03 17.42C113.13 17.08 113.14 16.98 113.14 15.41C113.14 13.99 113.12 13.71 113.05 13.4C113 13.21 112.89 12.93 112.82 12.8C112.74 12.66 112.58 12.46 112.45 12.34C112.32 12.22 112.1 12.09 111.94 12.04C111.78 11.98 111.48 11.93 111.21 11.92C110.89 11.91 110.69 11.92 110.55 11.98Z" />
		<path class="shp0" d="M70.23 9.75L70.02 9.77L70.02 12.54C71.25 12.48 71.74 12.44 71.89 12.41C72.05 12.37 72.26 12.3 72.36 12.25C72.47 12.2 72.61 12.09 72.68 12.02C72.75 11.94 72.84 11.76 72.88 11.62C72.93 11.48 72.96 11.23 72.96 11.06C72.96 10.9 72.93 10.67 72.91 10.57C72.88 10.46 72.77 10.28 72.67 10.17C72.55 10.04 72.37 9.92 72.2 9.86C71.97 9.77 71.79 9.75 71.18 9.74C70.78 9.73 70.35 9.74 70.23 9.75Z" />
		<path class="shp0" d="M50.97 10.89C50.72 10.96 50.59 11.05 50.38 11.25C50.19 11.44 50.08 11.61 50 11.83C49.93 11.99 49.85 12.26 49.82 12.41C49.78 12.59 49.76 13.23 49.77 14.22C49.77 15.47 49.78 15.8 49.85 16.09C49.9 16.27 49.98 16.52 50.04 16.62C50.09 16.72 50.22 16.89 50.33 16.99C50.43 17.09 50.6 17.2 50.7 17.23C50.8 17.26 50.98 17.3 51.11 17.32C51.24 17.34 51.49 17.32 51.71 17.27C51.92 17.23 52.21 17.13 52.34 17.05C52.48 16.97 52.65 16.84 52.72 16.76C52.79 16.68 52.89 16.5 52.96 16.38C53.02 16.25 53.11 15.98 53.16 15.77C53.23 15.44 53.24 15.14 53.22 13.73C53.21 12.12 53.2 12.07 53.08 11.75C53.01 11.57 52.89 11.33 52.8 11.22C52.72 11.12 52.55 10.98 52.42 10.92C52.25 10.84 52.09 10.81 51.74 10.8C51.4 10.79 51.2 10.81 50.97 10.89Z" />
		<path class="shp3" d="M73.06 25.92C72.35 25.93 70.69 25.96 69.38 25.99C68.07 26.02 65.97 26.09 64.72 26.15C63.46 26.2 61.81 26.28 61.04 26.32C60.28 26.37 59.09 26.43 58.41 26.48C57.72 26.52 56.67 26.59 56.07 26.63C55.48 26.67 54.27 26.76 53.39 26.83C52.51 26.9 51.07 27.03 50.19 27.11C49.32 27.2 47.83 27.35 46.9 27.44C45.96 27.54 44.7 27.68 44.08 27.75C43.47 27.82 42.25 27.97 41.37 28.08C40.49 28.19 39.03 28.38 38.13 28.51C37.22 28.64 35.85 28.83 35.08 28.94C34.32 29.06 33.05 29.25 32.27 29.38C31.49 29.5 30.24 29.71 29.48 29.84C28.73 29.96 27.01 30.27 25.65 30.52C24.3 30.77 22.45 31.13 21.55 31.31C20.64 31.5 19.32 31.77 18.61 31.92C17.9 32.08 16.56 32.37 15.64 32.58C14.72 32.79 13.29 33.12 12.47 33.32C11.65 33.52 10.43 33.82 9.76 33.98C9.09 34.15 8.46 34.31 8.35 34.34L8.16 34.38C8.16 64.56 8.18 67.5 8.24 68.95C8.28 69.9 8.35 71.25 8.39 71.95C8.43 72.65 8.52 73.8 8.57 74.52C8.63 75.23 8.74 76.51 8.82 77.37C8.91 78.22 9.05 79.52 9.13 80.26C9.21 81.01 9.38 82.39 9.51 83.34C9.64 84.29 9.87 85.87 10.02 86.85C10.17 87.83 10.44 89.46 10.62 90.46C10.8 91.47 11.08 92.97 11.25 93.79C11.42 94.62 11.75 96.2 11.99 97.3C12.23 98.41 12.69 100.34 13.01 101.6C13.32 102.86 13.7 104.31 13.84 104.83C13.98 105.35 14.24 106.25 14.41 106.84C14.57 107.43 14.81 108.25 14.94 108.67C15.06 109.09 15.42 110.21 15.72 111.16C16.02 112.12 16.55 113.68 16.88 114.65C17.21 115.61 17.61 116.75 17.76 117.17C17.91 117.59 18.24 118.46 18.48 119.1C18.72 119.74 19.16 120.85 19.45 121.57C19.75 122.28 20.17 123.3 20.39 123.83C20.62 124.36 21.01 125.3 21.28 125.92C21.54 126.53 22.12 127.81 22.55 128.76C22.99 129.72 23.96 131.74 24.72 133.27C25.48 134.79 26.42 136.61 26.8 137.31C27.18 138.01 27.83 139.19 28.25 139.93C28.67 140.67 29.28 141.72 29.6 142.27C29.92 142.81 30.53 143.82 30.94 144.51C31.36 145.19 32.06 146.3 32.49 146.97C32.92 147.64 33.62 148.71 34.04 149.34C34.46 149.97 35.2 151.06 35.69 151.75C36.17 152.45 36.92 153.5 37.33 154.07C37.75 154.64 38.48 155.63 38.96 156.26C39.43 156.89 40.25 157.95 40.78 158.61C41.32 159.28 41.76 159.81 41.77 159.81C41.78 159.8 41.76 159.7 41.73 159.59C41.7 159.48 41.66 158.63 41.63 157.71C41.6 156.78 41.54 155.36 41.5 154.55C41.45 153.74 41.38 152.36 41.32 151.48C41.26 150.59 41.17 149.31 41.12 148.63C41.06 147.94 40.97 146.91 40.91 146.34C40.86 145.76 40.75 144.79 40.68 144.18C40.61 143.56 40.5 142.64 40.43 142.14C40.36 141.64 40.22 140.75 40.12 140.16C40.02 139.57 39.86 138.71 39.77 138.25C39.67 137.79 39.5 137.08 39.38 136.67C39.27 136.27 39.07 135.64 38.93 135.27C38.79 134.91 38.44 134.16 38.16 133.6C37.87 133.04 37.45 132.25 37.22 131.84C36.98 131.44 36.51 130.62 36.16 130.04C35.81 129.45 35.18 128.42 34.77 127.75C34.35 127.08 33.4 125.59 32.66 124.44C31.92 123.29 30.78 121.55 30.12 120.57C29.47 119.6 28.53 118.21 28.05 117.5C27.56 116.78 26.54 115.32 25.79 114.24C25.03 113.17 24.31 112.08 24.18 111.83C24.04 111.57 23.88 111.2 23.81 111C23.74 110.8 23.63 110.44 23.58 110.21C23.53 109.98 23.46 109.57 23.43 109.3C23.4 109.02 23.37 108.59 23.37 108.33C23.37 108.07 23.41 107.62 23.45 107.32C23.49 107.03 23.56 106.62 23.6 106.41C23.65 106.2 23.76 105.84 23.84 105.62C23.92 105.4 24.08 105.03 24.2 104.81C24.32 104.58 24.54 104.23 24.7 104.03C24.86 103.83 25.14 103.56 25.31 103.43C25.49 103.3 25.74 103.13 25.88 103.05C26.02 102.97 26.39 102.8 26.69 102.68C27 102.56 27.53 102.38 27.86 102.3C28.19 102.21 28.74 102.09 29.08 102.03C29.41 101.98 29.96 101.9 30.29 101.86C30.63 101.82 31.1 101.77 31.35 101.76L31.79 101.73C31.79 101 31.83 100.58 31.87 100.33C31.91 100.08 32.01 99.72 32.08 99.54C32.14 99.36 32.27 99.1 32.36 98.96C32.45 98.82 32.63 98.62 32.75 98.51C32.88 98.41 33.08 98.27 33.2 98.22C33.31 98.16 33.67 98.06 33.98 97.99C34.3 97.93 34.83 97.84 35.17 97.79C35.52 97.75 36.16 97.71 36.61 97.71L37.42 97.71C37.42 97.44 37.45 97.19 37.49 96.99C37.54 96.78 37.62 96.47 37.68 96.29C37.74 96.11 37.86 95.81 37.95 95.63C38.04 95.44 38.22 95.17 38.35 95.02C38.48 94.86 38.68 94.67 38.8 94.59C38.92 94.52 39.14 94.4 39.29 94.35C39.49 94.27 39.79 94.23 40.31 94.19C40.71 94.17 41.85 94.15 42.83 94.16C43.81 94.17 44.62 94.18 44.62 94.18C44.62 94.18 44.69 92.79 44.77 91.1C44.85 89.41 44.92 88.02 44.93 88.01C44.94 88.01 48.15 88.1 52.07 88.2C55.99 88.31 59.48 88.4 59.83 88.4L60.46 88.4C60.93 87.8 61.39 87.3 61.78 86.91C62.17 86.51 62.73 86 63.02 85.76C63.31 85.53 63.79 85.18 64.07 84.99L64.59 84.64C63.78 83.63 63.34 83.06 63.09 82.71C62.84 82.36 62.45 81.8 62.23 81.46C62 81.12 61.63 80.52 61.39 80.11C61.15 79.71 60.78 79.05 60.58 78.66C60.37 78.27 60.04 77.61 59.84 77.19C59.64 76.77 59.37 76.17 59.24 75.86C59.11 75.56 58.9 75.03 58.78 74.69C58.65 74.36 58.41 73.68 58.25 73.19C58.08 72.7 57.86 71.97 57.75 71.57C57.64 71.16 57.46 70.44 57.35 69.96C57.24 69.49 57.08 68.69 56.99 68.18C56.91 67.68 56.79 66.91 56.74 66.48C56.68 66.05 56.61 65.33 56.57 64.88C56.53 64.38 56.51 63.26 56.51 62C56.51 60.43 56.53 59.73 56.6 59.03C56.65 58.52 56.74 57.71 56.81 57.22C56.88 56.73 57.03 55.87 57.14 55.32C57.25 54.76 57.41 54.02 57.5 53.69C57.58 53.35 57.74 52.77 57.85 52.39C57.96 52.01 58.18 51.33 58.33 50.86C58.49 50.4 58.73 49.75 58.86 49.42C59 49.08 59.26 48.46 59.45 48.04C59.63 47.62 59.94 46.97 60.13 46.59C60.32 46.21 60.68 45.55 60.93 45.12C61.18 44.68 61.57 44.03 61.8 43.67C62.03 43.3 62.42 42.73 62.66 42.4C62.9 42.06 63.29 41.53 63.52 41.23C63.76 40.92 64.19 40.38 64.49 40.03C64.78 39.68 65.47 38.94 66.01 38.38C66.56 37.83 67.31 37.1 67.69 36.78C68.06 36.45 68.65 35.96 69 35.68C69.35 35.4 69.99 34.92 70.42 34.62C70.86 34.32 71.49 33.89 71.84 33.68C72.19 33.46 72.82 33.09 73.24 32.86C73.66 32.62 74.34 32.27 74.76 32.07C75.18 31.86 75.8 31.58 76.15 31.43C76.5 31.29 77.15 31.03 77.6 30.86C78.04 30.7 78.83 30.44 79.35 30.29C79.86 30.14 80.56 29.95 80.89 29.86C81.23 29.78 81.8 29.65 82.16 29.58C82.52 29.51 83.22 29.4 83.71 29.33C84.19 29.26 84.99 29.16 85.48 29.11C86.1 29.05 86.85 29.02 87.97 29.02C88.9 29.02 89.84 29.05 90.22 29.09C90.58 29.12 91.19 29.2 91.57 29.25C91.94 29.31 92.55 29.41 92.91 29.47C93.27 29.54 93.93 29.68 94.38 29.78C94.83 29.88 95.52 30.06 95.93 30.17C96.33 30.28 97.04 30.49 97.5 30.63C97.96 30.77 98.76 31.04 99.27 31.22C99.79 31.4 100.47 31.65 100.78 31.77C101.09 31.89 101.37 31.99 101.4 31.99C101.43 31.99 101.45 31.13 101.45 29.51L101.45 27.03C99.35 26.86 98.15 26.76 97.42 26.7C96.7 26.65 95.24 26.55 94.18 26.48C93.12 26.41 91.55 26.32 90.7 26.27C89.85 26.23 88.62 26.17 87.97 26.15C87.31 26.12 86.01 26.07 85.08 26.04C84.14 26.01 82.05 25.97 80.44 25.94C78.82 25.91 76.79 25.9 75.92 25.9C75.06 25.91 73.77 25.92 73.06 25.92ZM112.96 34.38L112.96 40.44C113.77 41.4 114.22 41.97 114.49 42.32C114.75 42.67 115.17 43.24 115.4 43.59C115.64 43.94 116.02 44.52 116.24 44.89C116.46 45.25 116.82 45.87 117.03 46.26C117.24 46.65 117.52 47.19 117.65 47.46C117.78 47.72 118.04 48.28 118.22 48.7C118.4 49.12 118.68 49.82 118.84 50.25C119 50.69 119.24 51.37 119.36 51.78C119.49 52.19 119.69 52.85 119.8 53.26C119.91 53.66 120.08 54.35 120.18 54.78C120.27 55.21 120.41 55.88 120.48 56.26C120.55 56.63 120.66 57.27 120.71 57.68C120.77 58.09 120.85 58.73 120.89 59.1C120.93 59.48 121.01 60.31 121.05 60.94C121.12 61.84 121.13 62.52 121.11 64.19C121.09 65.76 121.05 66.58 120.98 67.4C120.92 68 120.83 68.82 120.77 69.23C120.71 69.63 120.62 70.23 120.56 70.55C120.51 70.87 120.39 71.45 120.31 71.85C120.22 72.24 120.06 72.91 119.95 73.35C119.84 73.78 119.63 74.5 119.49 74.95C119.35 75.4 119.07 76.22 118.86 76.78C118.65 77.34 118.34 78.1 118.17 78.46C118.01 78.82 117.66 79.54 117.39 80.06C117.12 80.58 116.77 81.23 116.6 81.51C116.43 81.79 116 82.45 115.64 82.99C115.29 83.52 114.71 84.31 114.36 84.74C114.02 85.17 113.56 85.72 113.35 85.96L112.96 86.39L112.96 122.94C121.47 132.48 123.95 135.25 123.98 135.25C124 135.25 124.01 111.6 124 82.69L123.99 30.14C121.16 29.65 119.45 29.36 118.36 29.17C117.27 28.99 115.62 28.73 114.7 28.59C113.77 28.45 113 28.33 112.99 28.33C112.97 28.33 112.96 31.06 112.96 34.38ZM135.21 73.34C135.21 95.94 135.23 114.41 135.24 114.39C135.25 114.38 135.45 113.83 135.67 113.17C135.9 112.52 136.36 111.1 136.69 110.02C137.02 108.94 137.5 107.33 137.75 106.43C138.01 105.54 138.43 103.98 138.7 102.98C138.96 101.97 139.35 100.42 139.56 99.54C139.77 98.66 140.11 97.16 140.31 96.21C140.52 95.26 140.82 93.76 140.99 92.88C141.16 92 141.41 90.61 141.55 89.8C141.69 88.99 141.92 87.61 142.06 86.72C142.2 85.84 142.39 84.53 142.49 83.8C142.59 83.07 142.74 81.89 142.82 81.18C142.91 80.47 143.05 79.25 143.13 78.48C143.21 77.71 143.33 76.4 143.4 75.56C143.47 74.72 143.56 73.51 143.61 72.86C143.65 72.22 143.72 71.04 143.76 70.24C143.83 69 143.84 66.4 143.84 51.6C143.84 42.15 143.82 34.4 143.8 34.38C143.78 34.36 142.47 34.02 140.9 33.63C139.32 33.23 137.39 32.77 136.61 32.59L135.2 32.27L135.21 73.34Z" />
		<path class="shp4" d="M73.06 25.92C72.35 25.93 70.69 25.96 69.38 25.99C68.07 26.02 65.97 26.09 64.72 26.15C63.46 26.2 61.81 26.28 61.04 26.32C60.28 26.37 59.09 26.43 58.41 26.48C57.72 26.52 56.67 26.59 56.07 26.63C55.48 26.67 54.27 26.76 53.39 26.83C52.51 26.9 51.07 27.03 50.19 27.11C49.32 27.2 47.83 27.35 46.9 27.44C45.96 27.54 44.7 27.68 44.08 27.75C43.47 27.82 42.25 27.97 41.37 28.08C40.49 28.19 39.03 28.38 38.13 28.51C37.22 28.64 35.85 28.83 35.08 28.94C34.32 29.06 33.05 29.25 32.27 29.38C31.49 29.5 30.24 29.71 29.48 29.84C28.73 29.96 27.01 30.27 25.65 30.52C24.3 30.77 22.45 31.13 21.55 31.31C20.64 31.5 19.32 31.77 18.61 31.92C17.9 32.08 16.56 32.37 15.64 32.58C14.72 32.79 13.29 33.12 12.47 33.32C11.65 33.52 10.43 33.82 9.76 33.98C9.09 34.15 8.46 34.31 8.35 34.34L8.16 34.38C8.16 64.56 8.18 67.5 8.24 68.95C8.28 69.9 8.35 71.25 8.39 71.95C8.43 72.65 8.52 73.8 8.57 74.52C8.63 75.23 8.74 76.51 8.82 77.37C8.91 78.22 9.05 79.52 9.13 80.26C9.21 81.01 9.38 82.39 9.51 83.34C9.64 84.29 9.87 85.87 10.02 86.85C10.17 87.83 10.44 89.46 10.62 90.46C10.8 91.47 11.08 92.97 11.25 93.79C11.42 94.62 11.75 96.2 11.99 97.3C12.23 98.41 12.69 100.34 13.01 101.6C13.32 102.86 13.7 104.31 13.84 104.83C13.98 105.35 14.24 106.25 14.41 106.84C14.57 107.43 14.81 108.25 14.94 108.67C15.06 109.09 15.42 110.21 15.72 111.16C16.02 112.12 16.55 113.68 16.88 114.65C17.21 115.61 17.61 116.75 17.76 117.17C17.91 117.59 18.24 118.46 18.48 119.1C18.72 119.74 19.16 120.85 19.45 121.57C19.75 122.28 20.17 123.3 20.39 123.83C20.62 124.36 21.01 125.3 21.28 125.92C21.54 126.53 22.12 127.81 22.55 128.76C22.99 129.72 23.96 131.74 24.72 133.27C25.48 134.79 26.42 136.61 26.8 137.31C27.18 138.01 27.83 139.19 28.25 139.93C28.67 140.67 29.28 141.72 29.6 142.27C29.92 142.81 30.53 143.82 30.94 144.51C31.36 145.19 32.06 146.3 32.49 146.97C32.92 147.64 33.62 148.71 34.04 149.34C34.46 149.97 35.2 151.06 35.69 151.75C36.17 152.45 36.92 153.5 37.33 154.07C37.75 154.64 38.48 155.63 38.96 156.26C39.43 156.89 40.25 157.95 40.78 158.61C41.32 159.28 41.76 159.81 41.77 159.81C41.78 159.8 41.76 159.7 41.73 159.59C41.7 159.48 41.66 158.63 41.63 157.71C41.6 156.78 41.54 155.36 41.5 154.55C41.45 153.74 41.38 152.36 41.32 151.48C41.26 150.59 41.17 149.31 41.12 148.63C41.06 147.94 40.97 146.91 40.91 146.34C40.86 145.76 40.75 144.79 40.68 144.18C40.61 143.56 40.5 142.64 40.43 142.14C40.36 141.64 40.22 140.75 40.12 140.16C40.02 139.57 39.86 138.71 39.77 138.25C39.67 137.79 39.5 137.08 39.38 136.67C39.27 136.27 39.07 135.64 38.93 135.27C38.79 134.91 38.44 134.16 38.16 133.6C37.87 133.04 37.45 132.25 37.22 131.84C36.98 131.44 36.51 130.62 36.16 130.04C35.81 129.45 35.18 128.42 34.77 127.75C34.35 127.08 33.4 125.59 32.66 124.44C31.92 123.29 30.78 121.55 30.12 120.57C29.47 119.6 28.53 118.21 28.05 117.5C27.56 116.78 26.54 115.32 25.79 114.24C25.03 113.17 24.31 112.08 24.18 111.83C24.04 111.57 23.88 111.2 23.81 111C23.74 110.8 23.63 110.44 23.58 110.21C23.53 109.98 23.46 109.57 23.43 109.3C23.4 109.02 23.37 108.59 23.37 108.33C23.37 108.07 23.41 107.62 23.45 107.32C23.49 107.03 23.56 106.62 23.6 106.41C23.65 106.2 23.76 105.84 23.84 105.62C23.92 105.4 24.08 105.03 24.2 104.81C24.32 104.58 24.54 104.23 24.7 104.03C24.86 103.83 25.14 103.56 25.31 103.43C25.49 103.3 25.74 103.13 25.88 103.05C26.02 102.97 26.39 102.8 26.69 102.68C27 102.56 27.53 102.38 27.86 102.3C28.19 102.21 28.74 102.09 29.08 102.03C29.41 101.98 29.96 101.9 30.29 101.86C30.63 101.82 31.1 101.77 31.35 101.76L31.79 101.73C31.79 101 31.83 100.58 31.87 100.33C31.91 100.08 32.01 99.72 32.08 99.54C32.14 99.36 32.27 99.1 32.36 98.96C32.45 98.82 32.63 98.62 32.75 98.51C32.88 98.41 33.08 98.27 33.2 98.22C33.31 98.16 33.67 98.06 33.98 97.99C34.3 97.93 34.83 97.84 35.17 97.79C35.52 97.75 36.16 97.71 36.61 97.71L37.42 97.71C37.42 97.44 37.45 97.19 37.49 96.99C37.54 96.78 37.62 96.47 37.68 96.29C37.74 96.11 37.86 95.81 37.95 95.63C38.04 95.44 38.22 95.17 38.35 95.02C38.48 94.86 38.68 94.67 38.8 94.59C38.92 94.52 39.14 94.4 39.29 94.35C39.49 94.27 39.79 94.23 40.31 94.19C40.71 94.17 41.85 94.15 42.83 94.16C43.81 94.17 44.62 94.18 44.62 94.18C44.62 94.18 44.69 92.79 44.77 91.1C44.85 89.41 44.92 88.02 44.93 88.01C44.94 88.01 48.15 88.1 52.07 88.2C55.99 88.31 59.48 88.4 59.83 88.4L60.46 88.4C60.93 87.8 61.39 87.3 61.78 86.91C62.17 86.51 62.73 86 63.02 85.76C63.31 85.53 63.79 85.18 64.07 84.99L64.59 84.64C63.78 83.63 63.34 83.06 63.09 82.71C62.84 82.36 62.45 81.8 62.23 81.46C62 81.12 61.63 80.52 61.39 80.11C61.15 79.71 60.78 79.05 60.58 78.66C60.37 78.27 60.04 77.61 59.84 77.19C59.64 76.77 59.37 76.17 59.24 75.86C59.11 75.56 58.9 75.03 58.78 74.69C58.65 74.36 58.41 73.68 58.25 73.19C58.08 72.7 57.86 71.97 57.75 71.57C57.64 71.16 57.46 70.44 57.35 69.96C57.24 69.49 57.08 68.69 56.99 68.18C56.91 67.68 56.79 66.91 56.74 66.48C56.68 66.05 56.61 65.33 56.57 64.88C56.53 64.38 56.51 63.26 56.51 62C56.51 60.43 56.53 59.73 56.6 59.03C56.65 58.52 56.74 57.71 56.81 57.22C56.88 56.73 57.03 55.87 57.14 55.32C57.25 54.76 57.41 54.02 57.5 53.69C57.58 53.35 57.74 52.77 57.85 52.39C57.96 52.01 58.18 51.33 58.33 50.86C58.49 50.4 58.73 49.75 58.86 49.42C59 49.08 59.26 48.46 59.45 48.04C59.63 47.62 59.94 46.97 60.13 46.59C60.32 46.21 60.68 45.55 60.93 45.12C61.18 44.68 61.57 44.03 61.8 43.67C62.03 43.3 62.42 42.73 62.66 42.4C62.9 42.06 63.29 41.53 63.52 41.23C63.76 40.92 64.19 40.38 64.49 40.03C64.78 39.68 65.47 38.94 66.01 38.38C66.56 37.83 67.31 37.1 67.69 36.78C68.06 36.45 68.65 35.96 69 35.68C69.35 35.4 69.99 34.92 70.42 34.62C70.86 34.32 71.49 33.89 71.84 33.68C72.19 33.46 72.82 33.09 73.24 32.86C73.66 32.62 74.34 32.27 74.76 32.07C75.18 31.86 75.8 31.58 76.15 31.43C76.5 31.29 77.15 31.03 77.6 30.86C78.04 30.7 78.83 30.44 79.35 30.29C79.86 30.14 80.56 29.95 80.89 29.86C81.23 29.78 81.8 29.65 82.16 29.58C82.52 29.51 83.22 29.4 83.71 29.33C84.19 29.26 84.99 29.16 85.48 29.11C86.1 29.05 86.85 29.02 87.97 29.02C88.9 29.02 89.84 29.05 90.22 29.09C90.58 29.12 91.19 29.2 91.57 29.25C91.94 29.31 92.55 29.41 92.91 29.47C93.27 29.54 93.93 29.68 94.38 29.78C94.83 29.88 95.52 30.06 95.93 30.17C96.33 30.28 97.04 30.49 97.5 30.63C97.96 30.77 98.76 31.04 99.27 31.22C99.79 31.4 100.47 31.65 100.78 31.77C101.09 31.89 101.37 31.99 101.4 31.99C101.43 31.99 101.45 31.13 101.45 29.51L101.45 27.03C99.35 26.86 98.15 26.76 97.42 26.7C96.7 26.65 95.24 26.55 94.18 26.48C93.12 26.41 91.55 26.32 90.7 26.27C89.85 26.23 88.62 26.17 87.97 26.15C87.31 26.12 86.01 26.07 85.08 26.04C84.14 26.01 82.05 25.97 80.44 25.94C78.82 25.91 76.79 25.9 75.92 25.9C75.06 25.91 73.77 25.92 73.06 25.92ZM112.96 34.38L112.96 40.44C113.77 41.4 114.22 41.97 114.49 42.32C114.75 42.67 115.17 43.24 115.4 43.59C115.64 43.94 116.02 44.52 116.24 44.89C116.46 45.25 116.82 45.87 117.03 46.26C117.24 46.65 117.52 47.19 117.65 47.46C117.78 47.72 118.04 48.28 118.22 48.7C118.4 49.12 118.68 49.82 118.84 50.25C119 50.69 119.24 51.37 119.36 51.78C119.49 52.19 119.69 52.85 119.8 53.26C119.91 53.66 120.08 54.35 120.18 54.78C120.27 55.21 120.41 55.88 120.48 56.26C120.55 56.63 120.66 57.27 120.71 57.68C120.77 58.09 120.85 58.73 120.89 59.1C120.93 59.48 121.01 60.31 121.05 60.94C121.12 61.84 121.13 62.52 121.11 64.19C121.09 65.76 121.05 66.58 120.98 67.4C120.92 68 120.83 68.82 120.77 69.23C120.71 69.63 120.62 70.23 120.56 70.55C120.51 70.87 120.39 71.45 120.31 71.85C120.22 72.24 120.06 72.91 119.95 73.35C119.84 73.78 119.63 74.5 119.49 74.95C119.35 75.4 119.07 76.22 118.86 76.78C118.65 77.34 118.34 78.1 118.17 78.46C118.01 78.82 117.66 79.54 117.39 80.06C117.12 80.58 116.77 81.23 116.6 81.51C116.43 81.79 116 82.45 115.64 82.99C115.29 83.52 114.71 84.31 114.36 84.74C114.02 85.17 113.56 85.72 113.35 85.96L112.96 86.39L112.96 122.94C121.47 132.48 123.95 135.25 123.98 135.25C124 135.25 124.01 111.6 124 82.69L123.99 30.14C121.16 29.65 119.45 29.36 118.36 29.17C117.27 28.99 115.62 28.73 114.7 28.59C113.77 28.45 113 28.33 112.99 28.33C112.97 28.33 112.96 31.06 112.96 34.38ZM135.21 73.34C135.21 95.94 135.23 114.41 135.24 114.39C135.25 114.38 135.45 113.83 135.67 113.17C135.9 112.52 136.36 111.1 136.69 110.02C137.02 108.94 137.5 107.33 137.75 106.43C138.01 105.54 138.43 103.98 138.7 102.98C138.96 101.97 139.35 100.42 139.56 99.54C139.77 98.66 140.11 97.16 140.31 96.21C140.52 95.26 140.82 93.76 140.99 92.88C141.16 92 141.41 90.61 141.55 89.8C141.69 88.99 141.92 87.61 142.06 86.72C142.2 85.84 142.39 84.53 142.49 83.8C142.59 83.07 142.74 81.89 142.82 81.18C142.91 80.47 143.05 79.25 143.13 78.48C143.21 77.71 143.33 76.4 143.4 75.56C143.47 74.72 143.56 73.51 143.61 72.86C143.65 72.22 143.72 71.04 143.76 70.24C143.83 69 143.84 66.4 143.84 51.6C143.84 42.15 143.82 34.4 143.8 34.38C143.78 34.36 142.47 34.02 140.9 33.63C139.32 33.23 137.39 32.77 136.61 32.59L135.2 32.27L135.21 73.34Z" />
		<path class="shp5" d="M76.35 35.67C75.98 35.85 75.32 36.18 74.88 36.41C74.45 36.65 73.8 37.02 73.44 37.25C73.08 37.47 72.55 37.82 72.27 38.01C71.99 38.21 71.48 38.59 71.13 38.85C70.78 39.12 70.19 39.6 69.81 39.92C69.44 40.25 68.79 40.86 68.36 41.28C67.94 41.7 67.39 42.28 67.13 42.57L66.67 43.11C66.71 43.66 66.86 46.2 67.03 49.11C67.19 52.02 67.34 54.64 67.36 54.93L67.39 55.47C65.79 57.57 64.41 59.39 63.3 60.86C62.18 62.33 60.97 63.93 60.61 64.41L59.95 65.28C60.05 66.15 60.15 66.82 60.23 67.32C60.32 67.82 60.46 68.58 60.56 69C60.65 69.42 60.83 70.13 60.96 70.57C61.09 71.02 61.31 71.75 61.47 72.2C61.62 72.65 61.87 73.33 62.02 73.7C62.18 74.08 62.44 74.7 62.61 75.08C62.78 75.45 63.07 76.05 63.26 76.4C63.44 76.75 63.71 77.23 63.85 77.48L64.11 77.92C64.66 78.07 65.65 78.36 66.67 78.65C67.69 78.95 68.88 79.29 69.31 79.42C69.74 79.54 71.26 79.98 72.68 80.39C74.1 80.8 75.38 81.18 75.52 81.22L75.77 81.29C77.25 83.55 78.81 85.91 80.19 88C81.56 90.08 82.73 91.8 82.78 91.82C82.83 91.84 83.17 91.91 83.53 91.99C83.89 92.06 84.53 92.18 84.95 92.25C85.37 92.31 86.13 92.42 86.65 92.47C87.16 92.53 88.1 92.59 88.73 92.6C89.42 92.62 90.25 92.61 90.86 92.58C91.4 92.55 92.15 92.49 92.53 92.44C92.9 92.4 93.54 92.31 93.95 92.24C94.35 92.17 94.89 92.07 95.14 92.02C95.39 91.96 95.61 91.9 95.62 91.87C95.64 91.85 96.94 89.78 98.53 87.28C100.12 84.78 101.57 82.49 101.76 82.2L102.1 81.66C103.11 81.38 103.99 81.13 104.7 80.93C105.41 80.73 106.5 80.42 107.13 80.24C107.76 80.06 109.46 79.58 110.91 79.17C112.36 78.75 113.61 78.4 113.69 78.39C113.77 78.37 113.88 78.3 113.94 78.23C113.99 78.16 114.33 77.51 114.69 76.78C115.05 76.05 115.48 75.1 115.65 74.67C115.82 74.24 116.07 73.55 116.21 73.14C116.35 72.74 116.56 72.04 116.69 71.59C116.81 71.14 116.98 70.47 117.06 70.09C117.15 69.71 117.27 69.07 117.34 68.67C117.41 68.26 117.5 67.64 117.54 67.29C117.59 66.94 117.64 66.48 117.66 66.25L117.69 65.84C115.97 63.64 114.86 62.21 114.1 61.24C113.35 60.28 112.15 58.74 111.44 57.83C110.74 56.92 110.14 56.16 110.11 56.13C110.09 56.1 110.13 53.52 110.23 49.8L110.4 43.51C110.22 43.28 109.91 42.93 109.6 42.58C109.29 42.24 108.65 41.6 108.19 41.18C107.73 40.75 107.06 40.15 106.7 39.85C106.34 39.55 105.79 39.11 105.48 38.88C105.18 38.65 104.53 38.2 104.04 37.88C103.55 37.56 102.77 37.08 102.31 36.82C101.85 36.56 101.12 36.18 100.69 35.98L99.91 35.6C96.53 36.88 95.13 37.4 94.63 37.59C94.13 37.78 92.92 38.23 91.95 38.6C90.97 38.97 90.09 39.3 89.99 39.34C89.9 39.38 89.55 39.51 89.23 39.62C88.76 39.8 88.63 39.83 88.52 39.79C88.45 39.76 87.88 39.54 87.26 39.29C86.63 39.05 85.68 38.68 85.15 38.48C84.62 38.28 83.67 37.91 83.05 37.67C82.42 37.42 81.77 37.17 81.6 37.11C81.44 37.04 80.58 36.71 79.7 36.37C78.82 36.03 77.88 35.66 77.6 35.55C77.32 35.44 77.08 35.35 77.06 35.35C77.05 35.36 76.73 35.5 76.35 35.67Z" />
		<path class="shp0" d="M88.65 50.28C88.57 50.34 87.63 51.04 86.57 51.83C85.51 52.63 83.79 53.92 82.74 54.7C81.7 55.48 79.99 56.76 78.94 57.54C77.89 58.33 76.94 59.04 76.83 59.12C76.7 59.22 76.61 59.33 76.61 59.38C76.61 59.44 77.72 62.85 79.08 66.97L81.55 74.46C89.14 74.5 92.58 74.53 94.1 74.55L96.86 74.58C98.23 70.06 98.88 67.9 99.2 66.86C99.51 65.83 100.12 63.8 100.56 62.36C100.99 60.92 101.35 59.67 101.35 59.59C101.35 59.45 101.22 59.34 99.69 58.2C98.78 57.52 96.57 55.88 94.78 54.55C93 53.22 90.94 51.69 90.21 51.14C89.48 50.6 88.86 50.15 88.84 50.15C88.82 50.16 88.73 50.21 88.65 50.28Z" />
		<path class="shp5" d="M63.98 85.05C63.69 85.25 63.23 85.59 62.97 85.8C62.71 86.01 62.17 86.51 61.78 86.91C61.39 87.3 60.93 87.8 60.76 88.01L60.46 88.4C59.48 88.4 55.99 88.31 52.07 88.2C48.15 88.1 44.94 88.01 44.93 88.01C44.92 88.02 44.85 89.41 44.77 91.1C44.69 92.79 44.62 94.18 44.62 94.18C44.62 94.18 43.81 94.17 42.83 94.16C41.85 94.15 40.71 94.17 40.31 94.19C39.79 94.23 39.49 94.27 39.29 94.35C39.14 94.4 38.92 94.52 38.8 94.59C38.68 94.67 38.48 94.86 38.35 95.02C38.22 95.17 38.04 95.44 37.95 95.63C37.86 95.81 37.74 96.11 37.68 96.29C37.62 96.47 37.54 96.78 37.49 96.99C37.45 97.19 37.42 97.44 37.42 97.53L37.42 97.71C36.16 97.71 35.52 97.75 35.17 97.79C34.83 97.84 34.3 97.93 33.98 97.99C33.67 98.06 33.31 98.16 33.2 98.22C33.08 98.27 32.88 98.41 32.75 98.51C32.63 98.62 32.45 98.82 32.36 98.96C32.27 99.1 32.14 99.36 32.08 99.54C32.01 99.72 31.91 100.08 31.87 100.33C31.83 100.58 31.79 101 31.79 101.26L31.79 101.73C31.1 101.77 30.63 101.82 30.29 101.86C29.96 101.9 29.41 101.98 29.08 102.03C28.74 102.09 28.19 102.21 27.86 102.3C27.53 102.38 27 102.56 26.69 102.68C26.39 102.8 26.02 102.97 25.88 103.05C25.74 103.13 25.49 103.3 25.31 103.43C25.14 103.56 24.86 103.83 24.7 104.03C24.54 104.23 24.32 104.58 24.2 104.81C24.08 105.03 23.92 105.4 23.84 105.62C23.76 105.84 23.65 106.2 23.6 106.41C23.56 106.62 23.49 107.03 23.45 107.32C23.41 107.62 23.37 108.07 23.37 108.33C23.37 108.59 23.4 109.02 23.43 109.3C23.46 109.57 23.53 109.98 23.58 110.21C23.63 110.44 23.74 110.8 23.81 111C23.88 111.2 24.04 111.57 24.18 111.83C24.31 112.08 25.03 113.17 25.79 114.24C26.54 115.32 27.56 116.78 28.05 117.5C28.53 118.21 29.47 119.6 30.12 120.57C30.78 121.55 31.92 123.29 32.66 124.44C33.4 125.59 34.35 127.08 34.77 127.75C35.18 128.42 35.81 129.45 36.16 130.04C36.51 130.62 36.98 131.44 37.22 131.84C37.45 132.25 37.87 133.04 38.16 133.6C38.44 134.16 38.79 134.91 38.93 135.27C39.07 135.64 39.27 136.27 39.38 136.67C39.5 137.08 39.67 137.79 39.77 138.25C39.86 138.71 40.02 139.57 40.12 140.16C40.22 140.75 40.36 141.64 40.43 142.14C40.5 142.64 40.61 143.56 40.68 144.18C40.75 144.79 40.86 145.76 40.91 146.34C40.97 146.91 41.06 147.94 41.12 148.63C41.17 149.31 41.26 150.59 41.32 151.48C41.38 152.36 41.45 153.74 41.5 154.55C41.54 155.36 41.6 156.77 41.62 157.68C41.65 158.59 41.71 159.46 41.74 159.61C41.79 159.87 41.88 159.99 42.66 160.94C43.13 161.51 43.94 162.47 44.46 163.07C44.98 163.67 45.74 164.55 46.16 165.03C46.58 165.51 47.33 166.34 47.83 166.89C48.33 167.43 49.43 168.6 50.27 169.48C51.11 170.36 52.55 171.82 53.47 172.71C54.39 173.61 55.58 174.75 56.13 175.26C56.67 175.76 57.56 176.57 58.1 177.06C58.65 177.55 59.59 178.39 60.21 178.92C60.82 179.45 61.87 180.34 62.54 180.9C63.21 181.46 64.22 182.3 64.8 182.76C65.37 183.22 66.38 184.02 67.05 184.54C67.72 185.05 68.84 185.9 69.54 186.42C70.23 186.94 71.35 187.76 72.02 188.24C72.69 188.71 73.86 189.54 74.63 190.07L76.03 191.03C77.48 190.04 78.53 189.31 79.3 188.76C80.06 188.22 81.2 187.4 81.83 186.93C82.46 186.47 83.4 185.76 83.93 185.36C84.46 184.95 85.43 184.19 86.09 183.68C86.74 183.16 87.75 182.35 88.33 181.87L89.39 181C89.16 180.77 83.4 174.09 76.43 166.02C69.47 157.95 63.74 151.31 63.7 151.27C63.64 151.21 63.74 151.1 64.45 150.49L65.28 149.78C67.83 149.85 68.94 149.87 69.38 149.87C69.83 149.86 70.47 149.82 70.8 149.77C71.14 149.73 71.65 149.63 71.94 149.56C72.24 149.5 72.66 149.38 72.88 149.31C73.11 149.23 73.5 149.09 73.77 148.98C74.03 148.88 74.5 148.67 74.81 148.51C75.12 148.36 75.5 148.15 75.67 148.03C75.84 147.92 76.09 147.72 76.23 147.6C76.37 147.47 76.61 147.2 76.77 146.99C76.93 146.79 77.15 146.45 77.26 146.24C77.38 146.03 77.54 145.65 77.62 145.4C77.71 145.14 77.83 144.71 77.89 144.43C77.98 144 78 143.77 77.99 142.93C77.99 142.08 77.97 141.86 77.86 141.35C77.79 141.03 77.68 140.62 77.6 140.44C77.53 140.26 77.4 139.98 77.31 139.83C77.21 139.68 76.98 139.39 76.79 139.19C76.59 138.99 76.24 138.7 76 138.54C75.76 138.39 75.38 138.17 75.14 138.06C74.9 137.94 74.48 137.77 74.2 137.67C73.92 137.57 73.48 137.44 73.21 137.37C72.95 137.3 72.47 137.2 72.15 137.15C71.83 137.1 71.23 137 70.82 136.93L70.08 136.8C66.48 132.78 65.4 131.56 65.35 131.5L65.25 131.38C67.04 129.84 67.57 129.41 67.59 129.44C67.61 129.46 68.47 130.43 69.51 131.59C70.55 132.75 71.46 133.76 71.53 133.84C71.65 133.96 71.74 133.99 72.32 134.08C72.69 134.14 73.22 134.24 73.52 134.31C73.81 134.38 74.2 134.48 74.39 134.54C74.58 134.59 74.73 134.63 74.73 134.61C74.73 134.6 74.27 134.04 73.7 133.38C73.13 132.72 71.86 131.24 70.89 130.11C69.91 128.98 69.12 128.04 69.14 128.02C69.16 128 69.68 127.55 70.3 127.01L71.41 126.04C71.61 126.27 79.27 135.15 88.57 145.93L105.48 165.52C105.68 165.29 105.94 164.98 106.2 164.69L106.66 164.17C104.45 161.6 96.85 152.8 88.35 142.96C79.85 133.11 72.86 125.01 72.82 124.96C72.76 124.88 72.87 124.78 73.91 123.88C74.54 123.33 75.08 122.9 75.09 122.93C75.11 122.95 82.6 131.63 91.74 142.22C100.88 152.81 108.43 161.54 108.52 161.64L108.68 161.8L109.81 160.45C83.92 130.47 76.41 121.75 76.41 121.73C76.41 121.71 76.58 121.55 76.79 121.36L77.18 121.03C77.82 121.17 78.23 121.24 78.51 121.28C78.79 121.32 79.28 121.37 79.59 121.4L80.17 121.44C101.95 146.67 109.04 154.88 109.99 155.97C110.93 157.07 111.72 157.96 111.74 157.96C111.77 157.96 112.02 157.65 112.32 157.27L112.85 156.59C108.8 151.9 101.98 144 95.09 136.01C88.19 128.03 82.54 121.47 82.53 121.44C82.52 121.41 82.84 121.35 83.25 121.3C83.65 121.25 84.25 121.15 84.57 121.08C84.89 121.01 85.32 120.91 85.53 120.85L85.91 120.76C86.2 121.05 92.66 128.53 100.46 137.56C108.26 146.6 114.66 154.01 114.68 154.03C114.7 154.06 114.93 153.77 115.2 153.4C115.47 153.03 115.7 152.69 115.72 152.64C115.74 152.59 112.47 148.77 105.47 140.66C99.82 134.12 93.51 126.82 91.46 124.44L87.73 120.12C88.25 119.81 88.53 119.62 88.7 119.48C88.87 119.35 89.14 119.09 89.31 118.91C89.48 118.74 89.69 118.48 89.78 118.35C89.87 118.22 89.96 118.11 89.99 118.12C90.01 118.13 96.22 125.3 103.79 134.05C111.35 142.81 117.55 149.98 117.57 149.99C117.59 149.99 117.82 149.66 118.09 149.25C118.5 148.63 118.57 148.49 118.52 148.42C118.49 148.38 115.16 144.53 111.13 139.85C107.1 135.18 100.87 127.96 97.28 123.8L90.77 116.25C90.87 115.86 90.94 115.53 90.99 115.26C91.06 114.87 91.08 114.5 91.08 113.37L91.08 111.96C91.33 112.25 97.89 119.85 105.83 129.04C113.77 138.23 120.28 145.76 120.3 145.76C120.32 145.77 120.55 145.43 120.81 145C121.2 144.34 121.26 144.22 121.21 144.15C121.17 144.11 117.62 139.99 113.31 134.99C109 130 101.89 121.76 97.5 116.68L89.53 107.45C89.54 103.92 89.55 102.9 89.58 102.9C89.6 102.9 97.05 111.51 106.15 122.04C115.24 132.56 122.74 141.24 122.81 141.33L122.93 141.48C123.73 140.06 123.97 139.64 123.97 139.62C123.98 139.61 121.41 136.6 118.26 132.93C115.11 129.27 106.78 119.59 99.76 111.42C92.73 103.25 86.96 96.54 86.93 96.5C86.9 96.46 86.56 96.4 86.06 96.34C85.62 96.29 84.9 96.19 84.47 96.11C84.03 96.04 83.35 95.92 82.95 95.83C82.54 95.74 81.87 95.58 81.45 95.47C81.03 95.36 80.36 95.16 79.95 95.03C79.55 94.9 78.89 94.68 78.48 94.53C78.08 94.38 77.41 94.11 76.99 93.93C76.57 93.75 75.87 93.43 75.44 93.21C75.01 93 74.41 92.68 74.1 92.51C73.79 92.34 73.29 92.05 72.98 91.86C72.68 91.67 72.13 91.33 71.77 91.09C71.4 90.85 70.83 90.46 70.5 90.21C70.16 89.96 69.61 89.53 69.26 89.25C68.91 88.97 68.41 88.54 68.14 88.31C67.88 88.07 67.21 87.43 66.65 86.88C66.1 86.33 65.42 85.62 65.15 85.29C64.87 84.96 64.61 84.69 64.58 84.69C64.54 84.69 64.28 84.85 63.98 85.05Z" />
		<path class="shp3" d="M101.15 94.18C101.05 94.22 100.53 94.41 99.98 94.59C99.44 94.77 98.49 95.07 97.88 95.25C97.26 95.43 96.45 95.66 96.08 95.75C95.7 95.85 95.12 95.98 94.78 96.06C94.45 96.13 93.9 96.23 93.57 96.29C93.23 96.35 92.64 96.42 92.25 96.47C91.86 96.51 91.25 96.54 90.89 96.54C90.54 96.54 90.25 96.56 90.26 96.59C90.27 96.61 92.54 99.27 95.31 102.5C98.09 105.73 100.59 108.6 100.87 108.89C101.15 109.18 101.39 109.41 101.41 109.41C101.43 109.41 101.45 105.97 101.45 101.75C101.45 95.66 101.44 94.1 101.39 94.1C101.35 94.1 101.25 94.14 101.15 94.18ZM135.12 114.81C135.09 114.91 135.06 114.99 135.07 114.99C135.07 115 135.1 115.01 135.14 115.01C135.2 115.01 135.22 114.95 135.22 114.83C135.22 114.73 135.21 114.65 135.2 114.65C135.18 114.65 135.15 114.72 135.12 114.81Z" />
		<path class="shp5" d="M81.05 142.42C81.07 142.75 81.06 143.34 81.03 143.76L80.97 144.51C81.93 145.63 82.42 146.21 82.69 146.52C82.96 146.82 84.07 148.11 85.15 149.36C86.24 150.62 87.71 152.33 88.42 153.15C89.13 153.98 90.6 155.68 91.68 156.93C92.76 158.18 94.53 160.23 95.61 161.48C96.68 162.73 97.87 164.1 98.23 164.52C98.59 164.94 99.03 165.44 99.2 165.64C99.36 165.83 99.81 166.35 100.18 166.79C100.56 167.22 101.14 167.9 101.48 168.29C101.81 168.68 102.12 169.02 102.15 169.04C102.19 169.06 102.43 168.84 102.82 168.43L103.42 167.78C103.09 167.42 102.37 166.58 101.6 165.69C100.83 164.8 99.38 163.11 98.38 161.95C97.38 160.79 95.67 158.81 94.58 157.55C93.5 156.29 91.58 154.07 90.32 152.62C89.07 151.16 87.15 148.94 86.06 147.69C84.98 146.43 83.43 144.63 82.62 143.69C81.82 142.76 81.12 141.95 81.08 141.91C81.02 141.85 81.02 141.91 81.05 142.42ZM79.55 148.31C79.4 148.55 79.16 148.89 79.03 149.05L78.79 149.34C79.01 149.59 79.95 150.69 81.02 151.93C82.09 153.18 83.33 154.62 83.78 155.14C84.23 155.65 85.04 156.59 85.57 157.21C86.11 157.83 86.98 158.85 87.52 159.47C88.06 160.1 88.77 160.93 89.11 161.32C89.45 161.71 90.49 162.91 91.41 163.99C92.34 165.06 93.43 166.33 93.84 166.81C94.25 167.28 94.83 167.96 95.14 168.31C95.45 168.67 96.32 169.69 97.09 170.58C97.86 171.47 98.55 172.28 98.64 172.37L98.79 172.54L100.06 171.27C98.64 169.64 97.84 168.71 97.37 168.16C96.9 167.61 96.3 166.92 96.05 166.63C95.8 166.34 95.13 165.56 94.56 164.9C93.99 164.25 92.97 163.06 92.28 162.26C91.59 161.47 90.81 160.55 90.53 160.23C90.25 159.9 89.21 158.7 88.22 157.55C87.23 156.41 85.83 154.78 85.1 153.94C84.38 153.1 82.91 151.4 81.84 150.15C80.77 148.91 79.88 147.88 79.86 147.88C79.84 147.87 79.7 148.07 79.55 148.31ZM75.9 151.37C75.69 151.47 75.33 151.64 75.1 151.73C74.87 151.83 74.68 151.92 74.68 151.93C74.68 151.95 75.62 153.05 76.77 154.37C77.91 155.7 79.11 157.09 79.42 157.45C79.73 157.82 80.82 159.08 81.84 160.25C82.85 161.43 84.11 162.89 84.64 163.51C85.17 164.12 86.26 165.38 87.05 166.3C87.85 167.23 89.46 169.09 90.63 170.45C91.8 171.8 92.84 173.01 92.93 173.12C93.03 173.24 93.6 173.89 94.19 174.58L95.27 175.84C95.56 175.6 95.86 175.33 96.12 175.09L96.59 174.64C94.29 171.96 92.66 170.08 91.49 168.72C90.32 167.36 88.79 165.59 88.09 164.78C87.4 163.96 86.32 162.72 85.71 162.01C85.1 161.29 83.64 159.6 82.46 158.24C81.29 156.88 79.68 155.02 78.89 154.09C78.1 153.17 77.21 152.14 76.92 151.81C76.63 151.47 76.36 151.19 76.33 151.18C76.3 151.18 76.11 151.26 75.9 151.37ZM70.98 152.82C70.96 152.83 70.57 152.87 70.09 152.9C69.62 152.94 69.23 152.97 69.22 152.98C69.21 152.99 69.86 153.76 70.66 154.69C71.46 155.62 73.07 157.48 74.23 158.83C75.39 160.17 77.59 162.72 79.12 164.5C80.65 166.27 82.95 168.93 84.21 170.4C85.48 171.87 86.88 173.49 87.33 174.01C87.78 174.53 88.94 175.87 89.91 177C90.87 178.12 91.68 179.04 91.7 179.04C91.73 179.04 91.97 178.84 92.24 178.6C92.52 178.35 92.81 178.1 92.9 178.03L93.05 177.9C92.19 176.91 91.6 176.23 91.18 175.74C90.76 175.25 90.24 174.65 90.04 174.42C89.83 174.18 88.73 172.9 87.59 171.57C86.44 170.24 84.92 168.48 84.21 167.65C83.5 166.82 81.53 164.54 79.83 162.56C78.13 160.59 76.16 158.3 75.44 157.48C74.73 156.65 73.53 155.26 72.78 154.39L71.41 152.8C71.09 152.8 70.99 152.81 70.98 152.82Z" />
		<path class="shp1" d="M106.62 176.13L106.29 176.48C106.82 175.96 106.98 175.81 106.98 175.8C106.98 175.79 106.97 175.79 106.96 175.79C106.96 175.79 106.8 175.94 106.62 176.13ZM46.21 176.96C46.72 177.46 47.14 177.87 47.15 177.87C47.17 177.87 46.77 177.46 46.28 176.96C45.78 176.45 45.36 176.04 45.34 176.04C45.32 176.04 45.71 176.45 46.21 176.96ZM104.72 178.04L104.21 178.56C105.02 177.77 105.25 177.54 105.25 177.53C105.25 177.52 105.25 177.52 105.24 177.52C105.23 177.52 105 177.75 104.72 178.04Z" />
	</g>
</svg>