<svg height="353.040623" viewBox="0 0 163.36 203.03" width="283.253523" xmlns="http://www.w3.org/2000/svg" xmlns:xlink="http://www.w3.org/1999/xlink"><path d=" M 51.87 160.77 C 51.87 160.77 29.15 149.37 18.08 131.89 C 18.14 146.91 17.4 165.65 17.4 165.65 L 52.18 172.49 L 51.87 160.77 Z" fill="#FFFFFF"></path><path d=" M 111.92 161.08 C 111.92 161.08 134.64 150.58 145.71 133.1 C 145.65 148.12 146.39 165.65 146.39 165.65 L 111.61 172.49 L 111.92 161.08 Z" fill="#FFFFFF"></path><rect x="51.72" y="155.41" width="60.45" height="27.59" transform="matrix(1,0,0,1,0,0)" fill="#FFFFFF"></rect><path d=" M 99.93 157.45 C 99.93 167.23 91.9 175.16 82 175.16 C 72.1 175.16 64.07 167.23 64.07 157.45 C 64.07 147.67 72.1 139.74 82 139.74 C 91.9 139.74 99.93 147.67 99.93 157.45 Z" fill="#FFFFFF"></path><path d=" M 9.73 166.7 L 9.73 140.83 L 8.18 140.25 L 8.18 136.75 L 9.73 136.06 L 9.73 133.62 L 8.18 133.04 L 8.18 128.87 L 13.26 124.06 L 13.26 122.92 C 13.26 122.92 13.43 121.92 14.73 121.92 C 16.03 121.92 16.23 121.92 16.23 121.92 C 16.23 121.92 17.4 122.09 17.4 122.92 C 17.4 123.75 17.4 123.98 17.4 123.98 L 22.6 128.89 L 22.55 133.06 L 21 133.61 L 21 136.04 L 22.58 136.72 L 22.58 140.57 L 22.58 164.21 L 9.73 166.7 Z" fill="#FFFFFF"></path><path d=" M 154.67 166.7 L 154.67 140.83 L 156.22 140.25 L 156.22 136.75 L 154.67 136.06 L 154.67 133.62 L 156.22 133.04 L 156.22 128.87 L 151.14 124.06 L 151.14 122.92 C 151.14 122.92 150.97 121.92 149.67 121.92 C 148.37 121.92 148.17 121.92 148.17 121.92 C 148.17 121.92 147 122.09 147 122.92 C 147 123.75 147 123.98 147 123.98 L 141.8 128.89 L 141.85 133.06 L 143.4 133.61 L 143.4 136.04 L 141.82 136.72 L 141.82 140.57 L 141.82 164.21 L 154.67 166.7 Z" fill="#FFFFFF"></path><path d=" M 80.42 203.03 C 67.85 203.03 59.82 198.72 51.35 194.18 C 46.87 191.78 42.23 189.29 36.79 187.46 C 21.39 182.29 11.24 188.63 10.82 188.9 L 8.77 185.74 C 9.25 185.43 20.78 178.11 38 183.89 C 43.75 185.82 48.53 188.38 53.15 190.86 C 61.89 195.55 70.13 199.97 83.7 199.16 C 96.39 198.4 105.12 194.08 113.55 189.91 C 117.15 188.13 120.55 186.45 124.15 185.1 C 124.38 185.01 124.66 184.9 124.98 184.78 C 129.49 183 143.24 177.57 155.11 186.61 L 152.82 189.61 C 142.65 181.86 130.82 186.53 126.37 188.28 C 126.03 188.41 125.74 188.53 125.49 188.62 C 122.07 189.91 118.75 191.55 115.24 193.28 C 106.88 197.42 97.39 202.11 83.94 202.91 C 82.71 202.99 81.55 203.03 80.42 203.03 Z" fill="#FFFFFF"></path><path d=" M 147.73 196.21 L 145.06 194.49 C 144.46 194.11 142.89 193.86 141.29 194.12 C 141.01 194.16 140.71 194.23 140.41 194.3 C 139.07 194.59 137.4 194.96 136.11 193.92 C 135.58 193.49 134.94 192.66 134.94 191.15 C 134.94 190 135.44 188.98 136.34 188.27 C 139.29 185.98 146.52 187.58 148.67 188.12 C 150.1 188.51 151.67 188.49 151.98 188.21 C 152.71 180.06 156.02 174.17 157.89 171.44 C 144.51 163.36 124.04 167.75 116.37 172.65 C 104.93 179.95 95.4 184.49 83.22 184.54 C 72.84 184.55 64.04 180.28 54.74 175.73 C 49.54 173.18 44.16 170.55 38.24 168.56 C 25.81 164.39 11.66 169.09 6.29 171.23 C 8.29 173.98 11.33 179.37 11.66 187.09 C 11.95 187.45 13.52 187.54 14.93 187.23 C 17.14 186.78 24.44 185.53 27.28 187.96 C 28.15 188.71 28.6 189.75 28.54 190.9 C 28.46 192.41 27.79 193.2 27.24 193.61 C 25.9 194.59 24.25 194.14 22.92 193.78 C 22.63 193.7 22.34 193.62 22.06 193.56 C 20.48 193.23 18.89 193.39 18.27 193.75 L 15.53 195.34 L 15.42 190.97 C 14.34 191.18 11.27 191.6 9.37 190.16 C 8.46 189.46 7.94 188.46 7.89 187.26 C 7.47 177.38 1.97 171.9 1.91 171.85 L 0 169.98 L 2.4 168.81 C 3.2 168.42 22.33 159.26 39.42 165 C 45.57 167.07 51.06 169.76 56.37 172.36 C 65.22 176.69 73.58 180.79 83.06 180.79 C 83.1 180.79 83.14 180.79 83.19 180.79 C 94.46 180.74 103.47 176.43 114.34 169.49 C 123.33 163.76 146.83 158.83 161.68 169.45 L 163.36 170.65 L 162.01 172.21 C 161.96 172.27 156.63 178.58 155.73 188.5 C 155.62 189.7 155.06 190.67 154.12 191.33 C 152.18 192.67 149.17 192.12 148.04 191.85 L 147.73 196.21 Z" fill="#FFFFFF"></path><path d=" M 27.06 187.97 C 27.06 187.97 25.18 186.09 24.4 184.7 C 22.85 181.96 10.77 187.37 10.77 187.37 L 14.06 188.08" fill="#FFFFFF"></path><path d=" M 135.9 188.69 C 135.9 188.69 137.82 186.85 138.63 185.49 C 140.25 182.79 152.19 188.48 152.19 188.48 L 148.88 189.11" fill="#FFFFFF"></path><path d=" M 9.37 188.08 C 9.37 188.08 9.11 180.65 7.44 177.35 C 5.77 174.05 5.11 170.73 5.11 170.73 C 5.11 170.73 15.24 165.63 21.84 165.51 C 28.44 165.39 44.87 168.24 49.99 171.06 C 55.11 173.88 68.91 181.45 76.06 183 C 83.22 184.54 95.04 182.71 102.44 179.66 C 109.83 176.62 114.78 171.38 117.78 170.05 C 120.78 168.72 130.44 165.23 136.94 164.64 C 143.44 164.05 151.27 166.72 155.68 167.55 C 160.09 168.38 159.44 170.05 159.44 170.05 L 154.13 186.93 C 154.13 186.93 145.65 184.05 139.96 183.88 C 134.27 183.71 124.59 187.99 121.6 189.1 C 118.6 190.21 105.42 195.71 101.18 197.38 C 96.94 199.05 82.61 202.88 74.44 201.05 C 66.27 199.22 50.41 191.16 46.26 189.11 C 42.11 187.05 27.1 182.11 25.11 183.05 C 23.12 183.99 9.37 188.08 9.37 188.08 Z" fill="#FFFFFF"></path><path d=" M 150.86 26.97 C 150.56 26.05 149 25.34 142.67 25.34 C 140.2 25.34 137.91 25.44 137.88 25.44 C 137.78 25.44 137.68 25.46 137.59 25.49 C 133.67 25.78 129.93 26.68 126.55 28.15 C 131.03 22.75 138.01 19.37 142.23 17.7 C 142.45 17.61 143.07 17.33 143.21 17.12 C 143.42 16.8 143.76 16.5 143.47 15.98 C 142.98 15.08 141.06 14.85 139.78 14.85 C 138.4 14.85 136.45 15.04 134 15.41 C 132.84 15.54 131.68 15.73 130.58 15.97 C 130.53 15.98 130.48 15.99 130.43 16.01 C 125.57 17.1 120.97 19.28 117.13 22.31 C 116.59 22.73 116.07 23.18 115.57 23.63 L 118.66 18.36 C 120.33 15.63 122.14 13.1 124.06 10.85 C 124.19 10.7 124.27 10.52 124.31 10.33 C 124.38 9.95 124.82 9.35 124.57 9.04 C 124.41 8.85 124.06 8.53 123.43 8.53 C 122.87 8.53 121.02 8.72 113.93 14.1 C 107.26 18.76 101.54 24.8 97.37 31.59 C 95.69 34.59 92.77 40.16 91.79 44.08 C 91.73 43.68 91.68 43.29 91.63 42.91 C 91.46 41.33 91.36 39.7 91.33 37.76 C 91.3 35.44 91.4 33.37 91.5 32.04 C 91.54 31.48 91.43 30.17 90.89 30.03 C 90.35 29.9 89.52 30.98 89.3 31.5 C 85.86 39.45 84.94 46.05 84.76 49.99 L 83.49 61.57 C 83.35 62.37 82.74 66.24 82.74 66.24 C 81.78 64.57 81.1 63.32 80.36 61.51 C 80.34 61.45 80.31 61.39 80.27 61.33 L 79.18 59.58 C 79.15 59.53 79.12 59.49 79.08 59.45 C 77.43 57.48 75.76 56.47 73.82 55.3 C 71.11 53.65 67.73 51.61 62.71 45.8 C 59.94 42.6 56.73 36.12 55.69 31.66 C 53.64 22.83 53.83 12.27 56.19 2.79 C 56.41 2.16 56.56 1 56.27 0.61 C 56.05 0.31 55.65 0.1 55.28 0.1 C 54.54 0.1 53.87 0.75 49.24 8.11 C 49.23 8.13 49.22 8.15 49.2 8.17 C 46.16 13.01 44.01 18.55 42.99 24.2 C 42.77 25.43 42.6 26.66 42.48 27.88 C 41.4 25.21 40.51 22.44 39.82 19.62 C 38.34 13.57 37.85 7.44 38.4 1.88 C 38.44 1.53 38.51 0.6 38.26 0.36 C 38.03 0.13 37.7 0 37.35 0 C 36.33 0 34.76 1.32 31.5 10.03 C 28.4 18.33 27.4 25.94 28.37 34.25 C 24.84 29.66 23.26 23.21 21.83 17.39 C 21.48 15.95 21.13 14.53 20.76 13.18 C 20.58 12.5 20.09 10.86 19.47 11.17 C 19.43 11.19 19.39 11.22 19.35 11.24 C 19.34 11.24 19.34 11.25 19.33 11.25 C 19.31 11.26 19.29 11.28 19.26 11.3 C 19.23 11.32 19.2 11.35 19.18 11.37 C 19.05 11.49 18.61 12.92 18.53 13.08 C 18.33 13.45 18.21 14 18.13 14.78 C 18.13 14.82 18.12 14.85 18.12 14.89 C 18.12 15.16 18.1 15.43 18.09 15.7 C 18.07 16 18.05 16.3 18.05 16.6 C 17.63 20.96 17.3 32.24 23.09 44.03 L 23.22 44.34 C 23.3 44.52 23.38 44.7 23.46 44.88 C 24.09 46.21 24.8 47.43 25.48 48.6 C 25.71 48.99 25.93 49.37 26.15 49.75 C 26.95 51.15 27.65 52.01 28.37 52.82 C 25.1 52.15 20.27 51.19 17.94 50.84 C 17.4 50.77 16.89 51.06 16.69 51.57 C 16.5 52.07 16.68 52.65 17.14 52.94 C 19.09 54.21 22.64 57.42 26.36 60.88 L 26.31 60.89 L 32.93 67.05 L 33.53 67.62 C 35.69 69.65 37.93 71.75 40.07 73.69 L 35.54 73.24 C 35.04 73.18 34.56 73.48 34.36 73.95 C 34.17 74.42 34.3 74.96 34.7 75.28 L 45.25 83.82 L 45.24 83.82 L 49.86 87.49 C 49.89 87.52 49.92 87.56 49.96 87.59 L 57.88 93.96 C 58.08 94.12 58.32 94.21 58.57 94.21 L 60.6 94.26 C 56.3 96.05 52.37 96.11 47.77 94.56 C 44.22 93.37 40.83 91.52 37.95 89.21 C 37.54 88.88 36.49 88.27 36.07 88.58 C 35.65 88.89 35.96 90.05 36.16 90.54 C 37.06 92.74 38.71 94.67 40.38 96.42 C 34.92 95.7 29.95 94.19 24.28 91.6 C 23.81 91.39 22.96 90.83 22.62 91.22 C 22.29 91.61 22.56 92.84 22.83 93.27 C 25.4 97.25 27.45 99.98 29.5 102.11 C 31.65 104.34 34.48 106.63 35.87 107.47 C 36.14 107.63 36.85 108.06 40.25 108.06 C 41.54 108.06 42.96 107.99 44.16 107.88 C 44.31 107.87 44.46 107.85 44.6 107.84 C 41.21 109.04 38.09 109.49 35.4 109.15 C 34.82 109.07 33.49 109.12 33.35 109.69 C 33.21 110.26 34.31 111.17 34.86 111.37 C 38.9 112.81 42.85 113.79 46.64 114.3 C 47.89 114.65 51.43 115.58 55.25 115.91 C 55.51 115.93 55.75 115.94 55.98 115.93 C 56.29 115.96 56.61 115.99 56.91 116.02 C 58.38 116.16 59.76 116.29 61.24 116.29 C 62.45 116.29 63.66 116.2 64.9 116.01 C 64.91 116.16 64.95 116.31 65.02 116.44 L 65.69 117.75 C 65.45 117.79 65.21 117.91 65.04 118.1 C 64.71 118.46 64.63 118.99 64.87 119.43 L 66.3 122.11 C 66.33 122.17 66.37 122.23 66.42 122.29 C 66.43 122.3 66.46 122.34 66.53 122.42 C 66.47 122.45 66.41 122.48 66.35 122.52 C 65.96 122.79 65.78 123.28 65.9 123.74 C 66.64 126.72 68.08 127.77 69.14 128.54 C 69.86 129.06 70.3 129.38 70.52 130.19 C 70.67 130.73 70.92 131.34 71.18 131.99 C 71.73 133.36 72.55 135.42 72.04 136.24 C 71.35 137.34 70.87 137.66 70.08 138.18 C 69.59 138.51 68.97 138.92 68.23 139.59 C 66.44 141.2 66.31 143.34 67.86 145.95 L 67.95 146.1 C 68.19 146.52 68.66 146.74 69.14 146.66 C 69.61 146.58 69.99 146.22 70.08 145.75 C 70.44 143.91 73.47 142.45 74.06 142.41 C 75.1 142.34 76.09 142.27 76.77 141.59 C 77.87 140.49 83.85 140.42 83.85 140.42 C 83.85 140.42 84.56 140.45 85.65 140.67 C 85.86 140.78 86.08 140.87 86.27 141 C 86.46 141.12 86.66 141.19 86.89 141.18 C 87.02 141.18 89.03 141.99 89.19 142.18 C 89.49 142.53 92.88 144.41 93.27 144.62 C 93.5 144.74 95.48 147.37 95.76 147.37 C 96.22 148.05 96.39 147.86 96.4 147.17 C 97.69 146.41 98.84 144.72 99.29 142.91 C 99.73 141.11 99.47 139.4 98.52 137.96 C 98.47 137.88 98.4 137.81 98.33 137.74 C 98.13 137.56 97.61 137.14 96.99 136.66 C 96.16 136 94.76 134.91 94.48 134.58 C 93.63 133.61 93.22 132.56 92.81 131.36 C 93.14 131.34 93.44 131.18 93.64 130.93 C 93.86 130.66 93.94 130.3 93.86 129.96 L 93.71 129.3 C 93.47 128.29 93.21 127.14 92.99 125.88 L 92.98 125.82 C 93.03 125.83 93.07 125.83 93.12 125.83 C 93.13 125.83 93.13 125.83 93.14 125.83 C 93.77 125.83 94.29 125.32 94.29 124.68 C 94.29 124.47 94.23 124.27 94.13 124.09 L 92.86 120.65 C 92.97 120.78 93.06 120.88 93.1 120.92 C 93.41 121.25 94.17 121.81 94.6 121.66 C 95.03 121.51 95.04 120.67 95.08 120.22 C 95.26 117.92 97.01 115.6 98.9 114.24 C 99.01 114.55 99.11 114.76 99.14 114.81 C 99.34 115.19 99.36 116.03 99.79 116.03 C 99.8 116.03 99.81 116.03 99.81 116.03 C 100.25 116.02 100.58 115.42 101.2 114.77 C 101.99 113.95 102.66 113.23 103.49 112.99 L 107.46 114.59 C 107.7 115.3 108.19 116.46 109.05 117.15 C 109.79 117.75 110.52 118.21 111.83 119.04 C 111.97 119.13 112.12 119.22 112.27 119.32 C 112.15 119.38 112.02 119.44 111.87 119.49 C 111.42 119.65 110.12 120.08 110.11 120.57 C 110.11 121.05 111.4 121.48 111.86 121.65 C 112.74 121.98 113.71 122.15 114.66 122.15 C 116.61 122.15 118.32 121.45 119.36 120.23 C 120.21 119.23 120.54 117.96 120.3 116.56 C 120.13 115.52 119.71 112.94 119.58 112.11 L 120.65 108.59 C 120.69 108.48 120.7 108.36 120.7 108.25 C 120.69 106.58 120.22 104.73 119.29 102.72 L 119.25 102.59 C 119.21 102.45 119.14 102.33 119.05 102.22 C 119 102.12 118.95 102.02 118.91 101.94 C 118.66 101.39 118.35 100.84 117.96 100.25 C 115.11 95.56 111.07 91.74 110.89 91.58 C 110.55 91.26 109.87 90.7 109.44 90.89 C 109.02 91.09 108.93 92.01 108.95 92.48 L 108.97 92.73 C 108.69 92.07 107.63 90.97 107.4 90.62 C 106.89 89.85 106.51 89.07 106.37 88.51 C 109.79 72.7 120.24 62.18 120.34 62.08 C 120.53 61.89 120.65 61.64 120.67 61.38 C 122.93 38.77 148.76 28.81 149.02 28.71 C 149.12 28.67 149.79 28.46 149.87 28.4 C 150.79 27.72 150.93 27.2 150.86 26.97 Z  M 92.19 125.49 C 92.22 125.51 92.26 125.52 92.29 125.54 L 91.79 125.62 L 92.19 125.49 Z" fill="#FFFFFF"></path><path d=" M 78.76 189.09 L 78.4 189.08 L 78.31 191.76 L 78.64 191.77 C 79.63 191.8 80.18 191.39 80.21 190.44 C 80.24 189.57 79.75 189.12 78.76 189.09 Z" fill="#0055A5"></path><path d=" M 86.88 192.65 L 88.71 192.4 L 87.39 189.38 L 86.88 192.65 Z" fill="#0055A5"></path><path d=" M 59.95 187.88 L 60.57 184.65 L 58.3 187.05 L 59.95 187.88 Z" fill="#0055A5"></path><path d=" M 27.17 171.6 L 26.58 171.56 L 26.42 174.24 L 27.03 174.28 C 27.99 174.34 28.54 173.88 28.59 172.99 C 28.63 172.15 28.12 171.65 27.17 171.6 Z" fill="#0055A5"></path><path d=" M 104.61 187.61 L 106.29 186.85 L 104.17 184.34 L 104.61 187.61 Z" fill="#0055A5"></path><path d=" M 115.36 171.07 C 104.03 178.3 94.81 182.61 83.21 182.66 C 67.53 182.72 55.38 172.33 38.84 166.77 C 22.29 161.21 3.24 170.49 3.24 170.49 C 3.24 170.49 9.32 176.43 9.78 187.16 C 9.78 187.16 20.83 179.96 37.38 185.51 C 53.93 191.07 62.5 202.15 83.8 200.87 C 102.34 199.76 112.89 191.17 124.8 186.69 C 128.5 185.3 142.12 178.97 153.91 187.91 C 154.99 177.45 160.6 170.95 160.6 170.95 C 146.5 160.89 123.69 165.76 115.36 171.07 Z  M 19.17 179.94 C 16.16 180.51 14 178.93 13.4 175.8 C 12.82 172.75 14.33 170.35 17.38 169.77 C 18.38 169.58 19.23 169.62 19.99 169.85 L 20.08 172.48 C 19.47 172.17 18.8 171.97 18.03 172.12 C 16.68 172.38 15.99 173.56 16.31 175.24 C 16.64 176.95 17.78 177.75 19.15 177.49 C 19.83 177.36 20.4 177 21.02 176.47 L 21.84 178.76 C 21.12 179.3 20.33 179.72 19.17 179.94 Z  M 28.41 179.63 L 26.76 176.32 L 26.31 176.29 L 26.12 179.39 L 23.18 179.21 L 23.78 169.22 L 27.6 169.45 C 30.18 169.6 31.59 170.84 31.46 172.98 C 31.38 174.33 30.71 175.25 29.55 175.76 L 31.56 179.34 L 28.41 179.63 Z  M 36.5 181.18 L 33.63 180.4 L 34.55 177.01 L 32.87 170.13 L 36.02 170.58 L 36.83 174.78 L 39.59 171.65 L 42.57 172.46 L 37.43 177.73 L 36.5 181.18 Z  M 45.53 177.85 C 47.32 179.44 47.88 180.54 47.23 182.05 C 46.3 184.22 44.36 184.37 42.5 183.57 C 41.15 182.99 40.18 182.25 39.32 181.34 L 40.67 179.29 C 41.52 180.29 42.51 181.12 43.42 181.51 C 43.95 181.74 44.38 181.7 44.55 181.3 C 44.72 180.91 44.57 180.63 43.51 179.65 C 41.92 178.18 41.33 177.2 42.02 175.59 C 42.83 173.7 44.71 173.39 46.53 174.16 C 47.86 174.73 48.58 175.3 49.3 176.12 L 47.95 178.16 C 47.21 177.23 46.38 176.56 45.69 176.26 C 45.15 176.03 44.8 176.1 44.66 176.42 C 44.51 176.78 44.64 177.06 45.53 177.85 Z  M 48.6 186.35 L 52.1 179.67 L 49.72 178.42 L 50.86 176.24 L 57.99 179.97 L 57.2 182.34 L 54.72 181.04 L 51.22 187.72 L 48.6 186.35 Z  M 62.14 192.98 L 59.25 192.05 L 59.53 190.2 L 56.72 188.79 L 55.52 190.07 L 52.96 188.78 L 60.56 181.35 L 63.53 182.84 L 62.14 192.98 Z  M 69.61 195.84 L 63.71 193.93 L 66.78 184.41 L 69.61 185.32 L 67.31 192.44 L 70 193.31 L 69.61 195.84 Z  M 78.73 193.94 L 78.27 193.92 L 78.17 196.92 L 75.21 196.82 L 75.55 186.82 L 79.01 186.94 C 81.59 187.03 83.13 188.2 83.05 190.5 C 82.97 192.86 81.25 194.02 78.73 193.94 Z  M 90.49 196.22 L 89.67 194.53 L 86.55 194.96 L 86.29 196.69 L 83.44 197.08 L 85.5 186.65 L 88.79 186.2 L 93.4 195.35 L 90.49 196.22 Z  M 95.47 195.07 L 92.51 185.51 L 95.35 184.63 L 97.56 191.78 L 100.26 190.94 L 101.39 193.23 L 95.47 195.07 Z  M 109.09 190.01 L 107.83 188.62 L 104.96 189.91 L 105.2 191.65 L 102.58 192.83 L 101.59 182.25 L 104.62 180.88 L 111.63 188.34 L 109.09 190.01 Z  M 116.67 186.35 C 113.92 187.69 111.42 186.73 110.02 183.86 C 108.66 181.07 109.49 178.36 112.28 177 C 113.19 176.56 114.03 176.38 114.82 176.39 L 115.59 178.9 C 114.92 178.76 114.22 178.74 113.52 179.09 C 112.28 179.69 111.92 181.01 112.67 182.55 C 113.43 184.12 114.74 184.59 116 183.98 C 116.63 183.68 117.08 183.18 117.54 182.5 L 118.93 184.5 C 118.38 185.23 117.73 185.84 116.67 186.35 Z  M 120.23 184.43 L 116.45 175.17 L 122.56 172.68 L 123.44 174.84 L 120.02 176.24 L 120.56 177.57 L 123.15 176.51 L 124.36 178.51 L 121.43 179.7 L 122.03 181.18 L 125.57 179.73 L 126.45 181.89 L 120.23 184.43 Z  M 133.09 179.93 L 130.21 180.53 L 128.16 170.74 L 134.35 169.44 L 134.85 171.82 L 131.54 172.51 L 131.87 174.09 L 134.25 173.59 L 135.14 175.88 L 132.36 176.46 L 133.09 179.93 Z  M 137.25 179.29 C 136.47 179.35 135.79 178.78 135.73 178 C 135.67 177.22 136.24 176.54 137.02 176.48 C 137.8 176.42 138.48 176.99 138.54 177.77 C 138.6 178.55 138.02 179.23 137.25 179.29 Z  M 146.58 172.74 C 146.09 172.26 145.51 171.88 144.73 171.8 C 143.36 171.65 142.36 172.58 142.17 174.28 C 141.98 176.01 142.84 177.11 144.23 177.26 C 144.92 177.34 145.57 177.16 146.32 176.83 L 146.44 179.26 C 145.59 179.58 144.71 179.74 143.54 179.62 C 140.5 179.29 138.89 177.15 139.23 173.98 C 139.56 170.9 141.7 169.04 144.79 169.37 C 145.8 169.48 146.6 169.77 147.27 170.21 L 146.58 172.74 Z  M 148.78 180.7 C 148 180.76 147.32 180.19 147.26 179.41 C 147.2 178.63 147.77 177.95 148.55 177.89 C 149.33 177.83 150.01 178.4 150.07 179.18 C 150.14 179.96 149.56 180.64 148.78 180.7 Z" fill="#0055A5"></path><path d=" M 146.77 194.28 L 145.66 193.57 C 144.75 192.98 142.84 192.76 141.12 193.04 C 140.82 193.09 140.5 193.16 140.18 193.23 C 138.95 193.5 137.69 193.78 136.8 193.07 C 136.3 192.67 136.04 192.02 136.04 191.16 C 136.04 190.34 136.38 189.65 137.02 189.15 C 139.69 187.07 147.52 188.98 148.4 189.2 C 149.17 189.41 151.57 189.85 152.6 189.14 C 152.89 188.94 153.04 188.66 153.08 188.26 C 153.9 179.26 157.97 173.13 159.46 171.15 C 145.88 162.09 124.25 166.57 115.76 171.75 C 106.09 177.65 95.6 183.41 83.21 183.46 C 83.16 183.46 83.12 183.46 83.07 183.46 C 72.99 183.46 64.35 179.23 55.22 174.76 C 49.98 172.2 44.57 169.55 38.59 167.54 C 24.6 162.85 8.57 169.05 4.54 170.79 C 6.23 172.8 10.19 178.41 10.56 187.16 C 10.58 187.56 10.72 187.85 10.99 188.06 C 11.99 188.82 14.4 188.5 15.16 188.32 C 16.07 188.13 23.98 186.6 26.55 188.81 C 27.17 189.34 27.47 190.05 27.43 190.86 C 27.39 191.72 27.1 192.35 26.58 192.73 C 25.66 193.4 24.41 193.06 23.2 192.73 C 22.89 192.65 22.58 192.56 22.28 192.5 C 20.57 192.14 18.65 192.27 17.72 192.81 L 16.58 193.47 L 16.49 189.66 C 16.14 189.72 15.8 189.78 15.49 189.84 C 15.13 189.92 11.8 190.63 10.04 189.29 C 9.39 188.79 9.03 188.08 8.99 187.21 C 8.55 176.9 2.74 171.12 2.68 171.06 L 1.89 170.29 L 2.89 169.8 C 3.68 169.42 22.41 160.45 39.08 166.04 C 45.16 168.08 50.62 170.76 55.9 173.34 C 64.87 177.73 73.34 181.88 83.07 181.88 L 83.2 181.88 C 94.02 181.84 103.37 177.46 114.95 170.4 C 123.9 164.95 146.95 160.26 161.04 170.33 L 161.74 170.83 L 161.18 171.48 C 161.13 171.54 155.57 178.09 154.63 188.39 C 154.55 189.25 154.16 189.95 153.49 190.41 C 151.67 191.66 148.37 190.8 148 190.69 C 147.7 190.61 147.37 190.54 147.03 190.46 L 146.77 194.28 Z  M 141.06 189.74 C 139.71 189.74 138.57 189.91 137.99 190.37 C 137.73 190.57 137.62 190.81 137.62 191.15 C 137.62 191.5 137.68 191.75 137.79 191.84 C 138.09 192.08 139.11 191.86 139.85 191.69 C 140.2 191.61 140.54 191.54 140.87 191.49 C 142.15 191.28 143.93 191.26 145.38 191.73 L 145.49 190.17 C 144.03 189.92 142.43 189.74 141.06 189.74 Z  M 20.29 190.72 C 21.13 190.72 21.94 190.82 22.61 190.96 C 22.94 191.03 23.28 191.12 23.62 191.21 C 24.36 191.41 25.36 191.68 25.68 191.46 C 25.79 191.38 25.87 191.13 25.89 190.78 C 25.91 190.45 25.8 190.2 25.55 189.99 C 24.41 189.01 20.99 189.07 18.06 189.43 L 18.1 190.99 C 18.78 190.8 19.54 190.72 20.29 190.72 Z" fill="#EE2E24"></path><path d=" M 80.44 201.92 C 68.12 201.92 60.21 197.68 51.87 193.21 C 47.35 190.79 42.67 188.28 37.14 186.42 C 21.18 181.06 10.32 187.91 10.21 187.98 L 9.36 186.67 C 9.82 186.37 20.92 179.33 37.63 184.94 C 43.29 186.84 48.03 189.38 52.61 191.84 C 61.49 196.6 69.88 201.1 83.76 200.27 C 96.67 199.5 105.5 195.13 114.03 190.91 C 117.6 189.14 120.98 187.47 124.53 186.14 C 124.77 186.05 125.05 185.94 125.37 185.81 C 130.21 183.9 143.05 178.83 154.42 187.49 L 153.47 188.73 C 142.8 180.6 130.55 185.44 125.94 187.26 C 125.61 187.39 125.32 187.5 125.07 187.6 C 121.59 188.91 118.25 190.56 114.72 192.31 C 106.45 196.4 97.08 201.04 83.85 201.83 C 82.68 201.89 81.54 201.92 80.44 201.92 Z" fill="#EE2E24"></path><path d=" M 25.83 190.23 C 22.09 187.17 20.63 184.2 20.57 184.07 L 21.98 183.39 C 21.99 183.42 23.36 186.19 26.82 189.02 L 25.83 190.23 Z" fill="#EE2E24"></path><path d=" M 137.79 190.55 L 136.87 189.29 C 140.9 186.36 141.38 183.24 141.38 183.21 L 142.93 183.43 C 142.91 183.58 142.35 187.24 137.79 190.55 Z" fill="#EE2E24"></path><path d=" M 91.19 47.25 C 90.95 46.09 90.69 44.66 90.5 43.05 C 90.65 44.37 90.87 45.76 91.19 47.25 Z" fill="#FFFFFF"></path><path d=" M 118.23 103.13 C 118.19 103 118.16 102.93 118.16 102.93 C 118.16 102.93 118.17 102.98 118.19 103.06 C 118.09 102.84 117.98 102.62 117.87 102.4 C 117.62 101.84 117.31 101.33 116.99 100.83 C 114.19 96.22 110.12 92.4 110.12 92.4 L 110.18 93.52 C 110.18 93.52 110.2 93.53 110.2 93.53 L 110.32 95.28 C 110.32 95.28 97.19 87.66 91.6 80.63 C 87.26 75.18 82.26 69.24 79.3 61.94 L 78.21 60.19 C 74.43 55.69 70.48 56.54 61.85 46.55 C 58.89 43.12 55.62 36.38 54.58 31.92 C 52.39 22.5 52.78 11.77 55.11 2.42 C 55.11 2.42 56.2 -0.77 50.23 8.72 L 50.23 8.72 C 47.24 13.47 45.14 18.88 44.14 24.4 C 43.63 27.22 43.4 30.06 43.49 32.86 C 41.46 28.82 39.84 24.42 38.72 19.88 C 37.25 13.9 36.68 7.69 37.28 1.75 C 37.28 1.75 36.23 0.72 32.6 10.42 C 28.97 20.12 28.4 28.4 30.06 37.67 C 23.39 32.02 21.88 21.66 19.66 13.47 C 19.66 13.47 19.66 13.47 19.66 13.47 C 19.66 13.47 19.66 13.47 19.66 13.47 C 19.66 13.47 19.65 13.47 19.65 13.48 C 19.65 13.48 19.65 13.48 19.65 13.48 C 19.63 13.5 19.6 13.53 19.57 13.6 C 19.49 13.76 19.37 14.12 19.3 14.88 C 19.3 15.47 19.23 16.06 19.23 16.65 C 18.83 20.75 18.45 31.9 24.17 43.56 C 24.29 43.83 24.41 44.11 24.53 44.38 C 25.34 46.09 26.3 47.64 27.18 49.18 C 28.63 51.73 29.75 52.36 31.38 54.61 C 31.21 54.59 21.39 52.52 17.8 51.99 C 19.97 53.41 23.95 57.03 28.48 61.27 C 28.48 61.27 42.02 62.36 52.66 70.22 C 52.66 70.22 43.45 65.72 32.4 64.95 C 33.05 65.56 33.7 66.18 34.35 66.79 C 37.5 69.75 40.67 72.71 43.48 75.19 L 43.44 75.19 L 35.45 74.4 L 46.93 83.69 L 48.99 83.76 C 48.99 83.76 52.85 83.63 56.67 84.49 C 60.74 85.41 62.91 86.73 62.91 86.73 C 60.63 85.96 56.85 85.84 54.57 85.99 C 52.94 86.1 51.88 86.55 50.7 86.71 L 51.37 87.25 L 58.62 93.08 L 65.07 93.25 C 59.62 96.64 54.27 97.98 47.42 95.68 C 43.78 94.46 40.25 92.55 37.25 90.13 C 38.46 93.11 41.28 95.66 43.47 97.92 C 36.25 97.36 30.43 95.69 23.83 92.67 C 26.35 96.59 28.36 99.25 30.36 101.34 C 32.36 103.42 35.12 105.68 36.5 106.51 C 37.38 107.04 41.41 107.01 44.08 106.76 C 44.58 106.71 45.04 106.66 45.42 106.59 C 46.03 106.49 46.8 106.32 47.61 106.14 C 50.35 105.51 53.66 104.58 53.48 104.7 C 52.29 105.48 50.99 106.24 49.62 106.94 C 48.81 107.36 47.98 107.75 47.13 108.12 C 43.29 109.77 39.11 110.79 35.29 110.31 C 39.56 111.83 44.02 112.95 48.54 113.37 C 50.1 113.52 50.66 113.5 52.01 112.87 C 54.03 111.94 55.69 111.17 57.3 110.4 C 58.11 110.01 58.92 109.61 59.74 109.2 C 60.87 108.63 62.03 108.02 63.32 107.3 C 62.57 108 61.82 108.66 61.05 109.31 C 60.62 109.67 60.18 110.04 59.73 110.4 C 58.17 111.68 56.5 113 54.6 114.67 C 59.7 115.03 62.65 115.87 69.43 113.75 C 69.43 113.75 68.04 114.79 66.1 115.92 L 68.11 119.86 L 65.93 118.88 L 67.36 121.56 C 67.36 121.56 68.38 122.82 69.83 123.88 L 70.32 125.46 C 69.2 125.13 67.76 123.93 67.05 123.45 C 68.18 128 70.89 127.11 71.67 129.87 C 72.2 131.73 74.17 135.07 73.05 136.84 C 71.74 138.93 70.88 138.78 69.04 140.44 C 66.9 142.36 68.55 144.76 68.99 145.53 C 69.43 143.28 71.11 141.82 72.05 141.54 C 73.54 141.1 75.33 141.44 75.99 140.78 C 78.35 138.43 83.42 137.83 86.92 140.03 C 85.3 137.41 84.46 137.49 81.23 136.55 C 86.94 136.93 87.31 138.17 90.11 141.43 C 90.34 139.58 88.8 137.22 87.49 136.1 C 87.08 135.75 82.55 135.11 78.14 134.73 C 76.59 134.6 75.97 132.6 75.74 131.53 C 76.01 131.68 77.26 132.34 78.47 132.32 C 78.16 130.77 77.73 129 77.48 127.94 C 77.91 128.14 78.36 128.41 79.34 128.45 L 78.7 125.84 C 78.4 123.76 77.72 122.25 79.72 119.07 C 80.82 119.85 81.31 120.18 81.81 120.74 C 81.81 120.74 82.22 122.73 82.68 123.79 C 82.77 123.99 84.73 125.67 84.8 125.87 L 81.42 124.89 C 81.42 124.89 82.55 127.46 84.78 128.94 C 86.1 129.41 87.28 129.94 87.67 130.45 C 88.07 130.99 88.74 132.43 88.42 133.2 C 88.17 133.83 86.37 131.16 82.58 134.34 C 85.16 134.38 88.26 135.09 88.93 135.88 C 89.8 136.9 90.41 137.83 91.04 138.21 C 93.79 139.86 93.98 140.72 93.76 143.96 C 95.46 142.65 94.98 139.23 94.73 138.4 C 96.98 141.1 96.49 144.77 95.8 146.21 C 97.49 145.27 99.54 141.54 97.6 138.59 C 97.08 138.11 94.22 135.98 93.66 135.34 C 92.23 133.71 91.87 131.86 91.16 129.99 C 91.66 130.01 92.28 130.22 92.78 130.21 C 92.53 129.1 92.17 127.66 91.9 126.07 C 91.87 125.93 91.85 125.78 91.83 125.64 C 91.82 125.58 91.81 125.52 91.8 125.46 C 91.76 125.22 91.73 124.99 91.7 124.74 C 91.69 124.68 91.69 124.62 91.68 124.57 C 91.65 124.33 91.62 124.08 91.6 123.83 C 92.53 124.42 93.17 124.68 93.17 124.68 L 91.58 120.37 C 91.58 120.37 91.58 120.37 91.58 120.36 C 91.61 120.03 91.65 119.71 91.7 119.38 C 91.7 119.36 91.71 119.34 91.71 119.32 C 91.76 119.02 91.82 118.73 91.89 118.44 C 91.9 118.39 91.91 118.34 91.92 118.3 C 91.99 118.03 92.07 117.77 92.15 117.5 C 92.17 117.44 92.19 117.37 92.21 117.31 C 92.32 116.99 92.45 116.68 92.59 116.37 C 91.87 117.91 93.98 120.14 93.98 120.14 C 94.25 116.73 97.3 113.54 99.86 112.39 C 99.72 113.34 100.21 114.29 100.21 114.29 C 100.97 112.68 102.51 112.04 103.62 111.79 L 105.69 112.62 L 107.89 113.5 L 108.46 113.73 C 108.46 113.73 108.86 115.48 109.83 116.26 C 110.77 117.02 111.74 117.57 114.07 119.07 C 113.9 119.65 113.37 120.19 112.32 120.57 C 115.64 121.81 119.82 120.32 119.22 116.76 C 119.01 115.5 118.46 112.03 118.46 112.03 L 118.46 112.02 L 119.24 109.46 L 119.47 108.7 L 119.5 108.62 L 119.61 108.27 C 119.56 106.59 119.03 104.84 118.23 103.13 Z  M 106.45 108.39 L 104.69 105.22 L 100.19 102.95 L 103.87 107.22 C 101.93 106.11 98.63 104.36 95.05 103.69 C 95.05 103.69 98.09 106.53 99.54 107.95 C 99.82 108.13 99.87 108.27 99.87 108.27 C 99.77 108.18 99.66 108.06 99.54 107.95 C 99.11 107.67 98.14 107.3 95.92 107.17 C 93.86 106.96 91.41 106.42 89.19 105.17 C 89.19 105.17 89.63 105.82 90.54 106.6 C 90.55 106.61 90.57 106.62 90.58 106.63 C 90.58 106.63 90.59 106.64 90.59 106.64 C 91.44 107.36 92.69 108.19 94.38 108.74 C 94.51 108.78 96.2 109.48 96.33 109.52 C 95.12 110 94.1 110.59 93.25 111.24 C 91.61 112.51 90.59 114.03 89.98 115.59 C 88.93 118.28 87.96 123.13 88.71 125.89 C 86.38 122.76 84.32 118.73 85.46 114.16 C 81.91 116.16 79.63 115.51 77.17 115.15 C 76.03 116.68 74.53 120.35 74.34 123.5 C 74.13 123.17 73.94 122.81 73.76 122.43 C 72.84 120.48 72.37 118.24 72.26 116.09 C 72.21 115.23 72.21 114.41 72.28 113.65 L 72.28 113.64 L 80.39 107.89 L 68.59 106.9 C 68.59 106.9 68.59 106.9 68.59 106.9 C 68.78 106.75 68.99 106.61 69.19 106.47 C 73.73 103.27 79.33 101.07 84.96 101.32 C 85.4 101.34 85.83 101.37 86.26 101.42 C 82.64 99.39 76.28 99.49 72.51 100.67 C 67.39 102.27 65.36 102.36 59.89 101.4 C 65.64 100.23 65.43 100.08 68.84 98.47 C 71.64 96.9 76.96 94.01 83.67 95.24 C 82.03 94.52 80.62 93.84 78.62 93.37 C 76.67 92.92 73.49 92.49 70.08 93.22 C 70.08 93.22 72.4 90.74 76.73 90.13 C 70.82 84.8 53.37 76.45 53.37 76.45 C 78.14 82.3 88.68 93.93 90.25 95.81 C 90.36 95.89 90.46 95.98 90.56 96.06 C 89.63 93.94 84.13 81.12 69.07 71.74 C 66.98 70.44 64.68 69.52 62.55 68.29 C 59.15 66.31 56.01 64.12 53.15 61.73 L 53.16 61.78 C 25.14 39.51 35.57 8.89 35.57 8.89 C 34.67 16 35.87 22.95 37.93 29.14 C 39.24 33.07 40.89 36.69 42.57 39.84 C 44.45 43.38 46.37 46.32 47.87 48.44 C 51.36 52.7 55.5 56.34 60.29 58.97 C 60.29 58.97 39.14 44.57 51.16 13.87 C 50.69 15.18 42.38 39.79 73.62 61.21 C 74.22 61.61 74.66 61.6 74.84 62.04 C 79 72.05 95.01 87.98 97.99 95.65 C 97.86 94.08 97.72 92.52 97.59 90.95 C 99.38 92.87 100.78 95.26 101.52 97.79 C 101.65 96.24 101.79 93.89 101.92 92.35 C 104.51 93.77 108.35 96.74 111.51 100.16 C 111.51 100.16 111.47 100.12 111.42 100.07 C 111.31 99.95 111.2 99.83 111.11 99.73 C 111.16 99.78 111.21 99.83 111.25 99.88 C 111.28 99.91 111.3 99.93 111.32 99.96 C 111.36 100 111.4 100.04 111.42 100.07 C 111.45 100.1 111.47 100.13 111.51 100.16 L 111.37 97.89 L 111.3 96.83 C 111.3 96.83 116.08 102.71 117.71 107.26 C 117.8 107.52 117.88 107.77 117.96 108.02 C 117.93 109.3 117.75 110.16 117.54 110.72 C 117.36 111.2 116.63 112 116.47 112.12 C 116.35 112.21 116.28 112.23 116.28 112.23 C 116.5 112.06 116.55 111.64 116.56 111.26 C 116.56 110.78 116.46 110.28 116.28 109.7 C 116.11 109.16 115.91 108.65 115.74 108.25 C 115.56 107.82 115.42 107.53 115.42 107.53 C 115.52 108.59 115.47 109.36 115.35 109.92 C 115.35 109.94 115.35 109.96 115.34 109.97 C 115.1 111.03 114.62 111.3 114.49 111.36 C 114.47 111.37 114.46 111.37 114.45 111.37 C 114.41 111.2 114.38 111.04 114.34 110.89 C 114.21 110.51 114.06 110.13 113.91 109.76 C 113.37 108.41 111.39 104.67 110.74 103.36 C 110.18 104.16 110.93 106.01 110.93 106.01 C 111.18 106.5 111.77 107.75 111.77 107.75 C 111.22 109 112.03 110.38 113.13 110.91 C 112.82 111.05 111.8 110.9 111.08 110.48 C 111.35 111.02 112.31 112.32 112.79 112.69 C 111.38 112.36 108.19 109.83 106.45 108.39 Z  M 113.62 117.8 L 112.24 116.68 L 111.25 115.88 L 111 115.12 L 110.94 114.92 L 110.6 113.88 L 110.59 113.85 C 111.7 114.5 112.58 115.69 113.15 116.63 C 113.27 116.83 113.89 118.02 113.89 118.02 L 113.62 117.8 Z  M 117.9 118.61 C 117.48 119.14 116.81 119.61 116.1 119.92 C 115.31 120.27 114.47 120.43 113.83 120.27 C 113.85 120.26 113.86 120.25 113.88 120.25 C 113.95 120.22 114.01 120.18 114.07 120.15 C 114.12 120.13 114.17 120.1 114.21 120.08 C 115.81 119.09 114.95 117.22 113.28 115.31 L 113.25 115.3 L 109.44 111.99 L 109.23 111.81 L 109.17 111.76 L 109.21 111.75 L 109.33 111.71 L 109.36 111.7 L 109.5 111.65 L 110.07 111.97 L 112.01 113.06 L 112.15 113.14 L 113.01 113.62 L 113.94 114.15 C 113.94 114.15 113.95 114.15 113.95 114.15 C 113.96 114.15 113.96 114.15 113.97 114.15 C 114.84 113.95 115.83 113.7 115.97 113.66 C 116.62 113.49 116.99 113.3 117.19 113.15 C 117.22 113.29 118.86 117.39 117.9 118.61 Z" fill="#0055A5"></path><path d=" M 137.93 26.59 L 138.12 26.61 C 132.78 26.93 127.5 28.48 123.1 31.27 C 126.72 24.21 134.73 19.43 141.81 16.63 C 141.81 16.63 142.69 15.27 134.13 16.55 C 133.02 16.67 131.92 16.86 130.82 17.1 C 130.8 17.1 130.79 17.1 130.77 17.11 L 130.79 17.11 C 126.09 18.15 121.62 20.24 117.85 23.21 C 115.72 24.89 113.81 26.85 112.2 29.06 C 104.99 38.65 102.55 47.04 102.55 47.04 C 102.55 47.04 101.51 34.66 117.33 18.33 C 119.07 15.42 121.03 12.64 123.19 10.11 C 123.19 10.11 123.55 8.26 114.6 15.06 C 108.12 19.59 102.47 25.53 98.39 32.17 C 96.92 34.79 93.79 40.68 92.88 44.58 C 92.89 44.69 92.9 44.81 92.9 44.93 C 92.9 44.93 93 47.27 93.43 50.37 C 93.95 54.12 95.49 59.31 95.49 59.31 C 94.44 57.17 92.57 52.46 91.95 50.29 C 91.65 49.23 91.4 48.23 91.2 47.26 C 91.07 46.66 90.97 46.09 90.87 45.52 C 90.82 45.22 90.77 44.9 90.72 44.58 C 90.64 44.07 90.57 43.56 90.51 43.07 C 90.31 41.25 90.23 39.54 90.21 37.82 C 90.18 35.54 90.27 33.49 90.38 32 C 86.27 41.43 85.88 48.69 85.87 51.59 C 85.66 53.44 85.56 54.83 85.48 55.99 C 86.55 59.02 88.44 63.06 91.83 68.18 C 91.83 68.18 88.78 66.48 85.19 60.21 C 85.05 61.59 84.79 63.17 84.24 65.62 C 88.31 72.53 92.39 77.84 96.07 81.9 L 96.07 73.65 C 97.39 74.97 98.3 76 98.93 76.79 C 99.52 74.11 100.34 70.9 101.49 67.48 C 108.66 46.15 117.16 39.65 117.16 39.65 C 109.34 51.87 102.16 76.58 102.46 88.12 C 103.97 89.41 105.33 90.45 106.45 91.24 C 105.84 90.33 105.33 89.29 105.2 88.48 C 108.68 71.99 119.54 61.24 119.54 61.24 C 121.9 37.62 148.63 27.61 148.63 27.61 C 150.81 26.02 137.93 26.59 137.93 26.59 Z" fill="#0055A5"></path><path d=" M 141.94 162.64 L 141.94 150.45 L 141.94 149.28 C 140.54 150.36 139.23 151.32 137.98 152.19 L 137.98 153.52 L 137.98 155.27 L 137.98 156.13 L 135.96 156.13 L 135.96 153.57 C 127.28 159.31 122.98 159.91 122.98 159.91 C 128.83 156.92 133.01 153.99 135.96 151.49 L 135.96 148.2 L 135.96 146.39 C 125.29 155.56 115.71 160.28 112.16 161.85 C 112.16 162.1 112.16 162.88 112.16 163.97 L 127.89 163.97 C 127.89 163.97 130.06 163.97 130.45 163.97 C 134.1 163.36 138.01 163.07 141.93 163.24" fill="#E4E4E4"></path><path d=" M 125.42 165.04 C 122.56 165.78 119.96 166.7 117.77 167.7 L 117.77 165.04 L 125.42 165.04 Z" fill="#B7B7B7"></path><path d=" M 102.44 176.24 C 101.73 176.56 100.45 177.12 99.92 177.34 L 99.93 174.63 L 99.93 169.06 L 102.44 169.06 L 102.44 174.63 L 102.44 176.24 Z" fill="#B7B7B7"></path><rect x="99.93" y="161.77" width="2.51" height="6.3" transform="matrix(1,0,0,1,0,0)" fill="#B7B7B7"></rect><path d=" M 111.15 171.04 L 111.15 169.07 L 108.91 169.07 L 108.91 171.04 L 108.91 172.86 C 109.65 172.43 110.4 171.98 111.16 171.53 L 111.15 171.04 Z" fill="#B7B7B7"></path><rect x="108.91" y="161.77" width="2.24" height="6.3" transform="matrix(1,0,0,1,0,0)" fill="#B7B7B7"></rect><path d=" M 105.17 173.27 L 105.17 169.07 L 103.44 169.07 L 103.44 173.27 L 103.44 175.79 C 104.02 175.51 104.59 175.22 105.17 174.92 L 105.17 173.27 Z" fill="#B7B7B7"></path><rect x="103.44" y="161.77" width="1.73" height="6.3" transform="matrix(1,0,0,1,0,0)" fill="#B7B7B7"></rect><rect x="106.16" y="161.77" width="1.73" height="6.3" transform="matrix(1,0,0,1,0,0)" fill="#B7B7B7"></rect><path d=" M 107.88 172.82 L 107.88 169.07 L 106.15 169.07 L 106.15 172.82 L 106.15 174.4 C 106.72 174.09 107.3 173.78 107.88 173.45 L 107.88 172.82 Z" fill="#B7B7B7"></path><rect x="99.93" y="156.41" width="11.24" height="4.35" transform="matrix(1,0,0,1,0,0)" fill="#B7B7B7"></rect><path d=" M 55.19 171.73 C 54.37 171.33 53.55 170.93 52.72 170.53 L 52.72 170.04 L 52.72 169.07 L 55.19 169.07 L 55.19 170.04 L 55.19 171.73 Z" fill="#B7B7B7"></path><rect x="52.72" y="161.77" width="2.51" height="6.3" transform="matrix(1,0,0,1,0,0)" fill="#B7B7B7"></rect><path d=" M 61.64 174.85 C 62.4 175.21 63.16 175.56 63.92 175.9 L 63.94 171.01 L 63.94 169.07 L 61.64 169.07 L 61.64 171.01 L 61.64 174.85 Z" fill="#B7B7B7"></path><rect x="61.69" y="161.77" width="2.25" height="6.3" transform="matrix(1,0,0,1,0,0)" fill="#B7B7B7"></rect><rect x="56.19" y="161.77" width="1.72" height="6.3" transform="matrix(1,0,0,1,0,0)" fill="#B7B7B7"></rect><rect x="58.95" y="161.77" width="1.7" height="6.3" transform="matrix(1,0,0,1,0,0)" fill="#B7B7B7"></rect><rect x="52.72" y="156.41" width="11.24" height="4.35" transform="matrix(1,0,0,1,0,0)" fill="#B7B7B7"></rect><path d=" M 58.92 173.55 C 59.44 173.8 60.1 174.15 60.65 174.42 L 60.65 173.15 L 60.65 169.07 L 58.92 169.07 L 58.92 173.15 L 58.92 173.55 Z" fill="#B7B7B7"></path><path d=" M 49.99 169.24 C 50.57 169.51 51.14 169.78 51.72 170.05 L 51.72 168.39 L 51.72 165.05 L 49.99 165.05 L 49.99 168.39 L 49.99 169.24 Z" fill="#B7B7B7"></path><path d=" M 56.19 172.21 C 56.29 172.26 56.38 172.3 56.48 172.35 C 56.96 172.59 57.44 172.82 57.92 173.05 L 57.92 171.74 L 57.92 169.07 L 56.2 169.07 L 56.2 171.74 L 56.19 172.21 Z" fill="#B7B7B7"></path><path d=" M 22.42 157.92 L 22.42 149.28 C 23.82 150.36 25.13 151.32 26.38 152.19 L 26.38 156.13 L 28.4 156.13 L 28.4 153.57 C 37.08 159.31 41.38 159.91 41.38 159.91 C 35.53 156.92 31.35 153.99 28.4 151.49 L 28.4 147.89 L 28.4 146.39 C 38.62 155.17 47.84 159.87 51.72 161.64 C 51.72 162.32 51.72 163.98 51.72 163.98 C 51.72 163.98 36.16 164.06 35.78 163.98 C 31.24 163.01 26.67 162.94 22.42 163.36" fill="#E4E4E4"></path><path d=" M 46.26 167.63 C 44.08 166.73 41.15 165.55 39.53 165 L 46.26 165 L 46.26 167.63 Z" fill="#B7B7B7"></path><path d=" M 47.26 167.48 L 47.26 165.05 L 48.99 165.05 L 48.99 167.48 L 48.99 168.78 C 48.82 168.7 48.17 168.42 47.26 168.04 L 47.26 167.48 Z" fill="#B7B7B7"></path><path d=" M 114.06 169.07 L 114.06 165.05 L 112.17 165.05 L 112.17 169.07 L 112.17 170.92 C 112.8 170.53 113.43 170.14 114.06 169.73 L 114.06 169.07 Z" fill="#B7B7B7"></path><path d=" M 116.79 167.7 L 116.79 165.05 L 115.06 165.05 L 115.06 167.7 L 115.08 169.1 C 115.61 168.79 116.18 168.48 116.79 168.18 L 116.79 167.7 L 116.79 167.7 Z" fill="#B7B7B7"></path><path d=" M 98.94 160.77 L 98.94 157.69 C 98.94 148.3 91.33 140.69 81.94 140.69 C 72.55 140.69 64.94 148.3 64.94 157.69 L 64.94 160.77 L 67.84 160.77 C 67.66 159.85 67.56 158.91 67.56 157.94 C 67.56 150.05 73.96 143.65 81.85 143.65 C 89.74 143.65 96.14 150.05 96.14 157.94 C 96.14 158.91 96.04 159.86 95.86 160.78 L 98.94 160.77 Z" fill="#B7B7B7"></path><path d=" M 26.38 148.39 L 26.38 144.57 L 22.42 140.57 L 22.42 144.1 L 22.42 145.05 C 22.96 145.89 24.16 147.53 26.38 149.66 L 26.38 148.39 Z" fill="#E4E4E4"></path><path d=" M 141.94 145.05 C 141.4 145.89 140.2 147.53 137.98 149.66 L 137.98 147.69 L 137.98 144.56 L 141.94 140.56 L 141.94 143.63 L 141.94 145.05 Z" fill="#E4E4E4"></path><path d=" M 79.09 174.27 C 78.63 174.27 78.32 174.57 78.32 175.09 C 78.32 175.59 78.57 175.86 79.09 175.86 C 79.41 175.86 79.69 175.76 79.97 175.55 L 79.97 175.52 C 79.96 174.72 79.61 174.27 79.09 174.27 Z" fill="#B7B7B7"></path><path d=" M 83.38 174.29 C 82.79 174.29 82.46 174.86 82.46 175.9 C 82.46 176.94 82.79 177.51 83.38 177.51 C 83.97 177.51 84.29 176.94 84.29 175.9 C 84.29 174.86 83.98 174.29 83.38 174.29 Z" fill="#B7B7B7"></path><path d=" M 18.55 138.71 C 19.14 138.82 19.71 138.96 20.25 139.13 L 20.25 146.76 C 19.71 146.59 19.14 146.45 18.55 146.34 L 18.55 138.71 Z" fill="#B7B7B7"></path><path d=" M 17.56 146.19 C 17.01 146.12 16.44 146.08 15.86 146.06 L 15.86 138.43 C 16.14 138.44 16.42 138.45 16.69 138.47 C 16.98 138.49 17.28 138.52 17.56 138.56 L 17.56 146.19 Z" fill="#B7B7B7"></path><path d=" M 13.16 146.19 C 13.71 146.12 14.28 146.08 14.87 146.06 L 14.87 138.43 C 14.29 138.45 13.72 138.49 13.16 138.56 L 13.16 146.19 Z" fill="#B7B7B7"></path><path d=" M 10.47 146.77 C 11.01 146.6 11.58 146.46 12.17 146.35 L 12.17 138.72 C 11.58 138.83 11.01 138.97 10.47 139.14 L 10.47 146.77 Z" fill="#B7B7B7"></path><path d=" M 8.93 132.51 C 9.3 132.34 9.68 132.19 10.09 132.05 L 10.09 132.97 L 8.93 132.51 Z" fill="#B7B7B7"></path><path d=" M 14.87 135.19 C 14.29 135.21 13.72 135.25 13.16 135.32 L 13.16 131.35 C 13.71 131.28 14.28 131.24 14.87 131.22 L 14.87 135.19 Z" fill="#B7B7B7"></path><path d=" M 17.56 131.34 C 17.01 131.27 16.44 131.23 15.86 131.21 L 15.86 135.18 C 16.44 135.2 17.01 135.24 17.56 135.31 L 17.56 131.34 Z" fill="#B7B7B7"></path><path d=" M 18.55 131.5 C 19.14 131.61 19.71 131.75 20.25 131.92 L 20.25 135.89 C 19.71 135.72 19.14 135.58 18.55 135.47 L 18.55 131.5 Z" fill="#B7B7B7"></path><path d=" M 12.17 135.47 C 11.58 135.58 11.01 135.72 10.47 135.89 L 10.47 131.92 C 11.01 131.75 11.58 131.61 12.17 131.5 L 12.17 135.47 Z" fill="#B7B7B7"></path><path d=" M 20.63 132.04 C 21.04 132.18 21.43 132.34 21.8 132.51 L 20.63 132.96 L 20.63 132.04 Z" fill="#B7B7B7"></path><path d=" M 8.93 139.72 C 9.3 139.55 9.68 139.4 10.09 139.26 L 10.09 140.18 L 8.93 139.72 Z" fill="#B7B7B7"></path><path d=" M 20.63 139.26 C 21.04 139.4 21.43 139.56 21.8 139.73 L 20.63 140.18 L 20.63 139.26 Z" fill="#B7B7B7"></path><path d=" M 21.81 129.93 C 20.04 129.11 17.8 128.62 15.37 128.62 C 12.94 128.62 10.71 129.11 8.94 129.92 L 8.94 131.58 C 10.71 130.76 12.94 130.28 15.37 130.28 C 17.81 130.28 20.05 130.77 21.82 131.59 L 21.81 129.93 Z" fill="#B7B7B7"></path><path d=" M 21.81 137.21 C 20.04 136.39 17.8 135.9 15.37 135.9 C 12.94 135.9 10.71 136.39 8.94 137.2 L 8.94 138.86 C 10.71 138.04 12.94 137.56 15.37 137.56 C 17.81 137.56 20.05 138.05 21.82 138.87 L 21.81 137.21 Z" fill="#B7B7B7"></path><path d=" M 21.81 129.2 C 20.04 128.38 17.8 127.89 15.37 127.89 C 12.94 127.89 10.71 128.38 8.94 129.19 L 14.04 124.32 C 14.47 124.29 14.92 124.27 15.37 124.27 C 15.82 124.27 16.26 124.29 16.69 124.32 L 21.81 129.2 Z" fill="#B7B7B7"></path><path d=" M 14.04 122.97 C 14.04 123.29 14.04 123.77 14.04 123.77 C 14.47 123.74 14.92 123.72 15.37 123.72 C 15.82 123.72 16.26 123.74 16.69 123.77 C 16.69 123.77 16.69 123.3 16.69 122.97 C 16.69 122.67 16.03 122.66 15.86 122.65 C 15.7 122.65 15.53 122.64 15.37 122.64 C 15.2 122.64 15.04 122.64 14.87 122.65 C 14.69 122.66 14.04 122.65 14.04 122.97 Z" fill="#B7B7B7"></path><path d=" M 20.25 155.04 C 19.71 154.87 19.14 154.73 18.55 154.62 L 18.55 147.19 C 19.14 147.3 19.71 147.44 20.25 147.61 L 20.25 155.04 Z" fill="#B7B7B7"></path><path d=" M 17.56 154.47 C 17.01 154.4 16.44 154.36 15.86 154.34 L 15.86 146.91 C 16.44 146.93 17.01 146.97 17.56 147.04 L 17.56 154.47 Z" fill="#B7B7B7"></path><path d=" M 14.87 154.34 C 14.29 154.36 13.72 154.4 13.16 154.47 L 13.16 147.04 C 13.71 146.97 14.28 146.93 14.87 146.91 L 14.87 154.34 Z" fill="#B7B7B7"></path><path d=" M 12.17 154.62 C 11.58 154.73 11.01 154.87 10.47 155.04 L 10.47 147.61 C 11.01 147.44 11.58 147.3 12.17 147.19 L 12.17 154.62 Z" fill="#B7B7B7"></path><path d=" M 152.19 138.71 C 152.78 138.82 153.35 138.96 153.89 139.13 L 153.89 146.76 C 153.35 146.59 152.78 146.45 152.19 146.34 L 152.19 138.71 Z" fill="#B7B7B7"></path><path d=" M 151.21 146.19 C 150.66 146.12 150.09 146.08 149.51 146.06 L 149.51 138.43 C 149.79 138.44 150.07 138.45 150.34 138.47 C 150.63 138.49 150.93 138.52 151.21 138.56 L 151.21 146.19 L 151.21 146.19 Z" fill="#B7B7B7"></path><path d=" M 146.81 146.19 C 147.36 146.12 147.93 146.08 148.52 146.06 L 148.52 138.43 C 147.94 138.45 147.37 138.49 146.81 138.56 L 146.81 146.19 Z" fill="#B7B7B7"></path><path d=" M 144.12 146.77 C 144.66 146.6 145.23 146.46 145.82 146.35 L 145.82 138.72 C 145.23 138.83 144.66 138.97 144.12 139.14 L 144.12 146.77 Z" fill="#B7B7B7"></path><path d=" M 142.58 132.51 C 142.95 132.34 143.33 132.19 143.74 132.05 L 143.74 132.97 L 142.58 132.51 Z" fill="#B7B7B7"></path><path d=" M 148.51 135.19 C 147.93 135.21 147.36 135.25 146.8 135.32 L 146.8 131.35 C 147.35 131.28 147.92 131.24 148.51 131.22 L 148.51 135.19 Z" fill="#B7B7B7"></path><path d=" M 151.21 131.34 C 150.66 131.27 150.09 131.23 149.51 131.21 L 149.51 135.18 C 150.09 135.2 150.66 135.24 151.21 135.31 L 151.21 131.34 Z" fill="#B7B7B7"></path><path d=" M 152.19 131.5 C 152.78 131.61 153.35 131.75 153.89 131.92 L 153.89 135.89 C 153.35 135.72 152.78 135.58 152.19 135.47 L 152.19 131.5 Z" fill="#B7B7B7"></path><path d=" M 145.82 135.47 C 145.23 135.58 144.66 135.72 144.12 135.89 L 144.12 131.92 C 144.66 131.75 145.23 131.61 145.82 131.5 L 145.82 135.47 Z" fill="#B7B7B7"></path><path d=" M 154.28 132.04 C 154.69 132.18 155.08 132.34 155.45 132.51 L 154.28 132.96 L 154.28 132.04 Z" fill="#B7B7B7"></path><path d=" M 142.58 139.72 C 142.95 139.55 143.33 139.4 143.74 139.26 L 143.74 140.18 L 142.58 139.72 Z" fill="#B7B7B7"></path><path d=" M 154.28 139.26 C 154.69 139.4 155.08 139.56 155.45 139.73 L 154.28 140.18 L 154.28 139.26 Z" fill="#B7B7B7"></path><path d=" M 155.45 129.93 C 153.68 129.11 151.44 128.62 149 128.62 C 146.57 128.62 144.34 129.11 142.57 129.92 L 142.57 131.58 C 144.34 130.76 146.57 130.28 149 130.28 C 151.44 130.28 153.68 130.77 155.45 131.59 L 155.45 129.93 Z" fill="#B7B7B7"></path><path d=" M 155.45 137.21 C 153.68 136.39 151.44 135.9 149 135.9 C 146.57 135.9 144.34 136.39 142.57 137.2 L 142.57 138.86 C 144.34 138.04 146.57 137.56 149 137.56 C 151.44 137.56 153.68 138.05 155.45 138.87 L 155.45 137.21 Z" fill="#B7B7B7"></path><path d=" M 155.45 129.2 C 153.68 128.38 151.44 127.89 149 127.89 C 146.57 127.89 144.34 128.38 142.57 129.19 L 147.68 124.32 C 148.11 124.29 148.56 124.27 149 124.27 C 149.45 124.27 149.89 124.29 150.33 124.32 L 155.45 129.2 Z" fill="#B7B7B7"></path><path d=" M 147.68 122.97 C 147.68 123.29 147.68 123.77 147.68 123.77 C 148.11 123.74 148.56 123.72 149 123.72 C 149.45 123.72 149.89 123.74 150.33 123.77 C 150.33 123.77 150.33 123.3 150.33 122.97 C 150.33 122.67 149.67 122.66 149.5 122.65 C 149.34 122.65 149.17 122.64 149.01 122.64 C 148.84 122.64 148.68 122.64 148.51 122.65 C 148.33 122.66 147.68 122.65 147.68 122.97 Z" fill="#B7B7B7"></path><path d=" M 153.9 155.04 C 153.36 154.87 152.79 154.73 152.2 154.62 L 152.2 147.19 C 152.79 147.3 153.36 147.44 153.9 147.61 L 153.9 155.04 Z" fill="#B7B7B7"></path><path d=" M 151.21 154.47 C 150.66 154.4 150.09 154.36 149.51 154.34 L 149.51 146.91 C 150.09 146.93 150.66 146.97 151.21 147.04 L 151.21 154.47 Z" fill="#B7B7B7"></path><path d=" M 148.51 154.34 C 147.93 154.36 147.36 154.4 146.8 154.47 L 146.8 147.04 C 147.35 146.97 147.92 146.93 148.51 146.91 L 148.51 154.34 Z" fill="#B7B7B7"></path><path d=" M 145.82 154.62 C 145.23 154.73 144.66 154.87 144.12 155.04 L 144.12 147.61 C 144.66 147.44 145.23 147.3 145.82 147.19 L 145.82 154.62 Z" fill="#B7B7B7"></path><path d=" M 153.9 165.47 C 153.33 165.27 152.76 165.08 152.18 164.91 C 152.18 164.46 152.2 161.24 152.2 161.24 L 152.2 155.52 C 152.2 155.52 153.36 155.77 153.9 155.94 L 153.9 161.23 L 153.9 165.47 Z  M 151.21 164.64 C 150.64 164.49 150.07 164.35 149.5 164.23 C 149.5 163.79 149.51 161.54 149.51 161.54 L 149.51 155.24 C 149.51 155.24 150.66 155.3 151.21 155.37 L 151.21 161.54 L 151.21 164.64 Z  M 148.53 161.54 L 148.51 155.24 C 147.93 155.26 146.8 155.37 146.8 155.37 L 146.8 161.54 C 146.8 161.54 146.78 163.16 146.78 163.73 C 147.37 163.82 147.95 163.92 148.53 164.03 M 145.82 161.87 L 145.82 155.53 C 145.23 155.64 144.12 155.95 144.12 155.95 L 144.12 162.54 C 144.12 162.54 144.13 162.67 144.13 163.43 C 144.69 163.48 145.26 163.54 145.82 163.61 M 20.25 160.85 L 20.25 155.95 C 19.71 155.78 18.55 155.53 18.55 155.53 L 18.55 160.86 L 18.54 163.8 C 18.54 163.8 19.67 163.62 20.24 163.53 L 20.25 160.85 Z  M 17.56 155.37 C 17.01 155.3 15.86 155.24 15.86 155.24 L 15.86 161.1 C 15.86 161.1 15.85 163.83 15.85 164.31 C 16.41 164.19 16.97 164.07 17.55 163.96 L 17.56 155.37 Z  M 14.88 164.54 C 14.29 164.68 13.71 164.82 13.14 164.97 C 13.14 164.56 13.15 161.11 13.15 161.11 L 13.15 155.38 C 13.15 155.38 14.27 155.27 14.86 155.25 L 14.88 161.11 L 14.88 164.54 Z  M 12.16 165.24 C 11.58 165.4 11.01 165.57 10.47 165.74 C 10.47 164.75 10.47 162 10.47 162 L 10.47 155.95 C 10.47 155.95 11.58 155.64 12.17 155.53 L 12.17 161.33 L 12.16 165.24 Z" fill="#B7B7B7"></path><path d=" M 95.6 161.79 C 93.92 167.81 88.39 172.22 81.84 172.22 C 75.28 172.22 69.76 167.8 68.08 161.78 L 64.94 161.77 L 64.94 173.51 L 64.93 176.34 C 70.83 178.9 76.74 180.78 83.16 180.78 C 83.2 180.78 83.25 180.78 83.29 180.78 C 88.89 180.76 93.93 179.68 98.92 177.75 L 98.95 161.75 L 95.6 161.79 Z" fill="#B7B7B7"></path><path d=" M 76.35 162.81 C 78.65 164.07 80.85 164.65 82.3 164.92 C 82.33 164.92 82.36 164.93 82.38 164.93 C 82.48 164.93 82.58 164.89 82.66 164.83 C 82.76 164.75 82.83 164.63 82.83 164.49 C 82.93 162.04 82.38 159.87 82.15 159.05 C 82.11 158.93 82.03 158.82 81.91 158.77 C 78.98 157.35 76.61 155.8 74.87 154.14 C 73.59 152.93 72.67 151.7 72.12 150.47 C 72.05 150.32 71.91 150.22 71.75 150.2 C 71.59 150.18 71.43 150.26 71.34 150.39 C 70.37 151.78 69.66 153.39 69.29 155.05 C 69.27 155.15 69.28 155.25 69.32 155.34 C 70.77 158.54 73.14 161.05 76.35 162.81 Z" fill="#EE2E24"></path><path d=" M 75.47 153.43 C 75.56 153.51 75.67 153.55 75.78 153.55 L 75.82 153.55 C 75.95 153.54 76.07 153.47 76.15 153.37 C 79.57 148.76 83.31 147.04 85.85 146.42 C 86.05 146.37 86.19 146.2 86.2 146 C 86.21 145.8 86.08 145.61 85.89 145.55 C 84.6 145.13 83.26 144.92 81.89 144.92 C 80.15 144.92 78.46 145.27 76.84 145.95 C 75.3 146.6 73.93 147.53 72.76 148.71 C 72.65 148.82 72.6 148.98 72.64 149.14 C 72.82 149.9 73.43 151.48 75.47 153.43 Z" fill="#EE2E24"></path><path d=" M 76.81 154.03 C 76.67 154.23 76.7 154.51 76.9 154.66 C 78.31 155.76 80.03 156.81 82.02 157.8 C 82.08 157.83 82.15 157.85 82.22 157.85 C 82.35 157.85 82.48 157.79 82.56 157.69 C 83.75 156.31 87.13 153.01 92.79 152.14 C 92.94 152.12 93.07 152.02 93.13 151.89 C 93.19 151.76 93.19 151.6 93.12 151.47 C 92.12 149.71 90.71 148.19 89.03 147.08 C 88.96 147.03 88.88 147.01 88.79 147 C 88.28 146.99 86.36 147.02 83.92 148.09 C 81.23 149.26 78.84 151.26 76.81 154.03 Z" fill="#EE2E24"></path><path d=" M 93.95 153.25 C 93.87 153.05 93.68 152.93 93.47 152.96 C 92.47 153.08 91.48 153.29 90.54 153.59 C 90.42 153.63 90.33 153.71 90.27 153.81 C 90.22 153.92 90.2 154.04 90.24 154.16 C 90.57 155.19 91.15 157.28 91.25 159.74 C 91.31 161.3 91.18 162.79 90.85 164.16 C 90.63 165.07 90.32 165.95 89.93 166.77 C 89.84 166.97 89.89 167.2 90.07 167.33 C 90.15 167.39 90.25 167.42 90.34 167.42 C 90.45 167.42 90.56 167.38 90.65 167.3 C 92.05 166.01 93.13 164.45 93.85 162.66 C 95.08 159.65 95.11 156.3 93.95 153.25 Z" fill="#EE2E24"></path><path d=" M 82.55 166.04 C 82.48 165.94 82.38 165.87 82.26 165.85 C 80.85 165.59 78.68 165.04 76.37 163.85 C 73.63 162.44 71.43 160.51 69.83 158.13 C 69.72 157.96 69.5 157.89 69.31 157.95 C 69.12 158.02 68.99 158.2 69 158.4 C 69.06 159.94 69.4 161.45 70.01 162.89 C 70.91 165.02 72.37 166.86 74.23 168.23 C 76.01 169.54 78.11 170.37 80.31 170.65 C 80.33 170.65 80.35 170.65 80.37 170.65 C 80.5 170.65 80.62 170.59 80.71 170.49 C 81.67 169.38 82.32 168 82.63 166.38 C 82.64 166.26 82.62 166.14 82.55 166.04 Z" fill="#EE2E24"></path><path d=" M 89.4 154.53 C 89.36 154.41 89.27 154.31 89.15 154.25 C 89.03 154.2 88.9 154.2 88.78 154.25 C 85.7 155.63 83.81 157.62 83.14 158.42 C 83.04 158.54 83.01 158.7 83.05 158.84 C 83.3 159.69 83.73 161.44 83.78 163.51 C 83.81 164.81 83.68 166.03 83.4 167.14 C 83.13 168.2 82.72 169.17 82.17 170.03 C 82.08 170.17 82.08 170.36 82.16 170.51 C 82.24 170.65 82.39 170.73 82.55 170.73 L 82.58 170.73 C 83.88 170.66 85.17 170.38 86.43 169.9 C 86.49 169.88 86.54 169.85 86.58 169.81 C 87.92 168.56 88.91 167.06 89.54 165.35 C 90.07 163.92 90.34 162.33 90.36 160.62 C 90.38 157.97 89.77 155.67 89.4 154.53 Z" fill="#EE2E24"></path><path d=" M 76.75 178.31 L 76.75 174.47 L 75.79 174.84 L 75.69 174.14 L 76.85 173.6 L 77.64 173.6 L 77.64 178.31 L 76.75 178.31 L 76.75 178.31 Z" fill="#FFFFFF"></path><path d=" M 78.66 174.76 C 78.66 174.01 79.31 173.51 80.25 173.51 C 81.21 173.51 81.8 174.02 81.8 174.7 C 81.8 175.19 81.49 175.56 81.03 175.83 C 81.62 176.12 81.95 176.44 81.95 177.07 C 81.95 177.83 81.29 178.4 80.22 178.4 C 79.09 178.4 78.49 177.8 78.49 177.09 C 78.49 176.56 78.85 176.14 79.4 175.84 C 78.96 175.61 78.66 175.29 78.66 174.76 Z  M 79.35 177.03 C 79.35 177.48 79.73 177.74 80.25 177.74 C 80.75 177.74 81.11 177.48 81.11 177.07 C 81.11 176.64 80.84 176.46 80.03 176.13 C 79.62 176.35 79.35 176.66 79.35 177.03 Z  M 80.98 174.75 C 80.98 174.39 80.7 174.16 80.23 174.16 C 79.75 174.16 79.49 174.42 79.49 174.75 C 79.49 175.1 79.74 175.29 80.41 175.56 C 80.77 175.34 80.98 175.08 80.98 174.75 Z" fill="#FFFFFF"></path><path d=" M 84.58 175.38 C 85.39 175.38 85.97 175.9 85.97 176.81 C 85.97 177.76 85.25 178.4 84.29 178.4 C 83.27 178.4 82.54 177.71 82.54 176.41 C 82.54 174.75 83.65 173.85 85.17 173.51 L 85.28 174.25 C 84.36 174.47 83.62 174.89 83.41 175.73 C 83.75 175.52 84.12 175.38 84.58 175.38 Z  M 84.3 177.71 C 84.79 177.71 85.12 177.39 85.12 176.86 C 85.12 176.35 84.86 176.07 84.3 176.07 C 83.96 176.07 83.65 176.19 83.36 176.41 C 83.37 177.24 83.75 177.71 84.3 177.71 Z" fill="#FFFFFF"></path><path d=" M 87.28 178.31 L 87.28 174.47 L 86.32 174.84 L 86.22 174.14 L 87.38 173.6 L 88.17 173.6 L 88.17 178.31 L 87.28 178.31 L 87.28 178.31 Z" fill="#FFFFFF"></path></svg>