<svg xmlns="http://www.w3.org/2000/svg" width="274.8063pt" height="505.90652pt" viewBox="0 0 274.80631 505.90653"><defs><clipPath id="a"><path d="M0 0h566.93v566.93H0Zm0 0"/></clipPath></defs><g style="fill:#c8102e;fill-opacity:1"><path d="M242.34 131.273v-3.277c4.898.23 9.2 1.223 13.242 2.45-3.574 1.16-10.23 3.972-13.242.827zm-27.781 112.61c-1.688-19.735 8.18-35.594 20.363-45.098.465-.101.66.102.726.363-5.53 11.192-12.152 20.926-11.125 38.145.926 18.477 10.297 33.11 21.094 42.645 3.676 3.21 8.64 5 11.192 9.136-20.696-6.386-40.098-20.457-42.25-45.191zm9.964-101.387c.829-2.152.926-5.098 1.59-7.547 3.676 0 7.383-.101 9.535 1.324-.066 5.66-6.753 4.7-11.125 6.223zm71.688 34.336c-3.578 3.113-8.184 5.828-9.637 10.73 4.633-.566 7.946-4.605 11.688-7.417 20.062-15.036 39.07-27.22 54.23-47.317 7.617-10.066 20.235-28.605 8.281-40.926h-.863v1.227c.3 13.476-5.89 24.105-12.379 33.508-14.172 20.562-33.676 34.402-51.32 50.195zm28.504 23.543c2.086 5.727-1.95 10.629-2.45 13.707 19.868-8.344 38.243-20.465 51.29-36.023 4.27-4.97 10.297-11.192 8.808-19.04-16.625 16.524-35.066 30.891-57.648 41.356zm-2.45 17.016c.298 2.816-.066 5.765-1.19 8.312-1.325 2.55-4.934 3.875-3.81 5.762 12.614-3.047 23.708-8.574 33.18-15.297 8.938-6.492 18.61-14.469 21.52-26.918h-.863c-13.805 11.887-29.73 21.555-48.836 28.14zm-6.226 17.847c.566 8.774-5.46 10.895-9.965 14.504 13.211-.762 24.305-5.629 33.145-11.222 8.773-5.465 18.078-11.989 21.918-22.352h-.828c-12.418 8.676-26.192 16.059-44.27 19.07zm29.832 7.086c0-.793-.36-1.125-.855-1.293-9.008 5.102-18.61 9.504-31.063 11.094 4.473 1.688 16.89 4.105 22.817 1.688 4.699-1.82 5.925-8.805 9.101-11.489zm-53.8 25.563h-1.329c.102.562 0 1.222.465 1.293 10.895 9.734 25.992 18.836 36.422 32.28 12.98 16.821 23.574 41.388 15.332 67.15 4.601-3.977 7.945-10.266 10.394-16.192 2.52-6.29 4.504-14.04 4.504-22.383.297-41.355-36.52-50.496-65.789-62.148zm-36.489 73.308c3.773 2.25 6.258 5.992 11.984 6.258-4.304-7.719-7.613-16.39-7.879-28.148-9.636-1.618-17.347-4.996-25.265-8.344-.727 12.285-3.508 22.453-7.445 31.457 6.816 0 10.757-4.832 14.5-6.523-4.305 15.695-13.047 32.714-21.555 46.753-2.152 3.575-6.027 11.922-9.867 13.274-7.45 2.52-15.368-6.781-23.64-1.223-.661.73 0 3.012-.864 3.64-6.852-2.644-15.66 3.876-9.5 9.208 2.847-2.883 6.988-6.524 12.812-5.035-4.703 1.425-9.238 11.027-.394 11.226.66-1.324.758-3.113 1.617-4.136 11.66-5.633 36.687-5.633 49.703-1.227 1.324.46.66 2.91 2.082 3.277 3.184-1.39 5.633-5.265 4.606-8.675-2.153-7.282-16.82-2.45-22.415-5.43.758-5.098 4.704-8.61 7.45-12.383 9.5-13.078 21.355-24.836 24.07-43.969zm120.652 148.032c4.141 0 7.485 3.347 7.485 7.453a7.475 7.475 0 0 1-7.485 7.484c-4.136 0-7.449-3.344-7.449-7.484a7.444 7.444 0 0 1 7.45-7.453zm-101.117 0c4.137 0 7.48 3.347 7.48 7.453a7.474 7.474 0 0 1-7.48 7.484c-4.074 0-7.449-3.344-7.449-7.484 0-4.106 3.375-7.453 7.45-7.453zm-55.793 0c4.14 0 7.485 3.347 7.485 7.453a7.475 7.475 0 0 1-7.485 7.484c-4.07 0-7.414-3.344-7.414-7.484 0-4.106 3.344-7.453 7.414-7.453zm-9.898-4.036c-2.781 3.145-6.39 5.66-10.297 7.153-5.067 1.785-11.125 2.582-16.785 2.187-.403-15.168-.235-30.398-.235-45.496.235-7.648-.132-16.258 6.457-21.457-.132-.629-.398-1.125-.796-1.656-8.079-.102-14.633.031-22.348-.168-.664.3-.86 1.094-1.156 1.66 1.816 1.555 3.34 3.574 3.773 5.992 1.125 4.403.992 9.567.992 14.336-.133 13.41.164 26.89-.398 40.363-.266 5.063-1.29 10.461-5.43 13.805.133.402.266.926.563 1.36 13.476 0 27.086.5 40.629.23 2.085-5.723 4.468-11.523 6.125-17.352-.301-.527-.665-.859-1.094-.957zm72.644-41.09c-2.785-3.148-6.39-5.628-10.297-7.156-5.03-1.851-11.128-2.578-16.824-2.215-.226 8.508-.262 17.051-.226 25.56l18.605-7.677-.465 20.23c-4.3-2.187-11.125-4.57-18.14-4.968 0 4.137.03 8.277.03 12.348.196 7.683-.097 16.289 6.458 21.457-.133.632-.399 1.156-.828 1.691-1.559.063-3.114.063-4.57.063l.035.066h-19.004c.129-.297.261-.594.36-.89-.134-.298-.231-.5-.36-.7.328-.297.625-.598.922-.89 1.824-5.532 2.586-11.395 2.586-17.817v-37.348c0-5.527-.532-10.593-1.856-15.43-.695-1.155-1.555-2.12-2.648-3.011.132-.465.265-.96.562-1.39h.629c-.066-.165-.098-.301-.195-.465h45.261c-.136 6.523.196 12.68 1.059 17.613-.367.5-.664.828-1.094.93zm26.192 21.985c0-19.172 11.386-30.926 28.738-30.926 8.18 0 15.824 2.254 21.922 6.656l.133-13.64c-7.121-1.723-13.516-2.586-19.14-2.586-12.415 0-22.849 3.312-31.06 9.77-9.468 7.484-14.699 18.476-14.699 31.16 0 12.41 5.067 23.039 14.438 30.125 7.082 5.43 15.66 8.214 25.394 8.214 7.88 0 16.918-1.855 26.653-5.664l.265-13.113c-8.082 6.16-16.094 9.14-24.633 9.14-16.918 0-28.011-11.257-28.011-29.136zm49.234-311.274c9.203-6.023 18.207-14.734 27.281-24.367 9.504-10.097 23.641-23.972 17.414-41.82-.59-.098-.59-.563-1.222-.465-8.739 24.106-22.282 42.98-38.14 59.238-2.056 2.051-5.333 4.04-5.333 7.414zm-32.781 28.247c1.988 3.87 1.426 10.164-.824 13.277 23.77-13.441 47.21-28.906 62.968-50.164 5.27-7.086 11.461-15.23 12.028-25.262h-.832c-20.364 24.863-44.598 45.692-73.34 62.149zm4.937 161.613h.66c.895 0 1.493-.035 1.688-.102.23-.066.398-.199.531-.363.13-.2.2-.398.2-.594a.942.942 0 0 0-.2-.597c-.097-.168-.3-.297-.531-.368-.23-.066-.793-.097-1.688-.097h-.66zm-1.59 4.465v-7.844h1.59c1.489 0 2.317 0 2.516.031.527.031.926.137 1.223.301.296.164.53.43.726.762.2.332.297.695.297 1.12 0 .563-.195 1.032-.559 1.427-.367.43-.894.664-1.554.761.23.102.43.196.558.301.137.098.301.297.532.594.066.066.23.398.562.96l.93 1.587h-1.953l-.664-1.29c-.43-.859-.793-1.39-1.094-1.624a1.957 1.957 0 0 0-1.09-.332h-.43v3.246zm3.34-9.895c-1.023 0-1.984.262-2.91.762-.926.492-1.656 1.223-2.187 2.184a5.735 5.735 0 0 0-.825 2.976c0 1.059.258 2.024.79 2.984a5.767 5.767 0 0 0 2.19 2.184 5.851 5.851 0 0 0 2.942.797 5.858 5.858 0 0 0 2.95-.797c.96-.531 1.687-1.258 2.183-2.184.531-.96.797-1.925.797-2.984 0-1.027-.266-2.02-.797-2.976-.527-.961-1.258-1.692-2.219-2.184-.925-.5-1.882-.762-2.914-.762zm0-1.46c1.258 0 2.489.331 3.645.96a6.997 6.997 0 0 1 2.75 2.719c.66 1.187.992 2.414.992 3.703 0 1.293-.332 2.516-.992 3.68-.66 1.156-1.559 2.082-2.719 2.746-1.156.625-2.383.957-3.676.957-1.289 0-2.515-.332-3.672-.957a7.038 7.038 0 0 1-2.718-2.746c-.66-1.164-.992-2.387-.992-3.68 0-1.289.332-2.516.992-3.703a7.006 7.006 0 0 1 2.754-2.719c1.156-.629 2.379-.96 3.636-.96zm-16.586 61.054c-1.62-.824-2.75-2.414-3.773-4.137-7.98-14.14-8.348-33.34-11.191-52.281 3.675 2.68 10.168 6.258 16.187 3.805-11.023-8.637-19.27-23.239-16.187-43.54-10.997-10.062-24.868-20.824-31.82-35.195-2.419-4.867-4.966-11.386-2.915-17.383 5.563 16.657 15.063 27.25 27.317 38.473 12.98 12.055 28.34 24.402 26.023 50.594 3.445-1.688 3.906-6.887 4.203-10.758 2.52-33.242-22.808-45.824-38.933-60.926-5.168-4.765-10.5-10.695-12.02-17.746 5.266 3.38 10.527 9.668 17.813 14.004 11.656 7.055 27.183 9.207 38.507 2.55 3.278-1.987 7.782-4.237 8.246-7.913-12.02.562-21.195-1.16-29.734-3.672-5.73-1.691-12.219-3.61-15.332-7.418 9.871-.93 18.047-3.512 20.695-11.691-6.39.203-15.132 1.425-19.468-1.586 11.656-2.086 23.308-4.008 26.023-15.036-8.437.333-16.984 4.836-25.66 2.122 11.027-4.172 25.629-4.836 27.781-17.817-8.578.465-18.379 7.653-27.781 5.828 11.293-5.527 28.445-7.511 28.277-23.175-6.816.761-14.832 8.046-22.05 7.019 30.855-18.738 61.652-42.848 82.011-74.598 8.844-13.578 25.102-40.363 9.11-56.289h-1.23c0 .563-.56.563-.36 1.227-2.086 22.05-10.332 42.383-20.364 58.012-9.668 15.328-21.425 28.703-34.734 39.828-13.61 11.293-29.73 20.297-43.078 31.457-7.48 6.09-11.254 12.48-14.899 22.316-3.574 9.57-7.617 18.442-14.5 22.746-2.253 1.422-5.765 3.942-9.14 2.086 2.816-3.21 5.992-4.336 7.848-6.59 3.742-4.535 5.925-12.515 8.343-20.363 2.285-7.348 5-14.203 8.676-20.195 13.012-21.754 40.856-37.184 58.371-57.184 8.809-10.098 18.742-22.582 19.867-38.11.93-12.448-4.136-17.612-13.21-19.866.562 4.238 3.613 7.98 2.812 14.867-1.29 13.742-12.379 28.875-20.195 38.508-8.707 10.629-19.239 19.867-29.832 28.972-9.934 8.61-22.153 18.012-28.641 30.364-3.012 5.726-5.629 15.128-7.48 21.917-.962 4.106-3.184 20.528-9.008 20.262-3.477-.097-5.067-7.844-5-13.344.398-27.945 26.554-40.261 35.593-58.738.864-1.687 1.887-5.164 2.051-7.414.965-9.57-4.039-12.98-8.242-17.055 12.05 1.625 27.742.762 26.922-11.586-1.988.66-3.215 2.915-5.832 3.81-17.45 5.624-47.184-21.095-59.961-5.5-1.621.76.828 3.347-.5 3.812-3.176 0-6.52-.133-9.137.328-.762-2.352-1.722-4.504-2.45-6.953-1.69.664-4.237.464-5.827 1.226 1.39 1.785 2.715 3.574 2.914 6.621-6.488 1.723-12.516 3.973-13.64 11.192 4.238-1.457 9.765-3.774 14.468-3.313 0 2.98-.566 5.563-1.687 7.45-1.125 1.327-5.731-.727-6.192 1.226-.3 3.113 3.672 1.988 4.137 4.14-1.227 2.547-2.649 4.801-4.5 6.587-6.028-7.25-13.414-.297-19.903 1.328-1.59.394-2.816-.168-4.136.824 5.097 8.844 14.699.133 22.312-.43-2.25 4.836-13.375 6.457-15.261 12.418-1.391 4.305.562 9.469 6.62 9.469-1.523-5.332 5.563-7.516 7.055-11.555.461-1.39-.465-3.312 0-4.504.758-2.12 3.313-1.789 4.504-3.343 1.524 11.421 19.996 10.761 20.36-1.258-2.715 1.125-3.672 3.144-6.188 2.914-3.246-.434-5.695-6.856-11.625-4.535 2.55-2.653 3.938-6.493 6.59-9.141 9.797-1.29 24.766-6.027 28.605 4.566.864 2.387.762 6.528-.464 9.57-2.813 7.055-11.75 13.446-18.141 18.512-19.602 15.758-45.031 32.844-47.285 64.235-2.055 28.406 12.98 44.797 30.23 55.094 16.489 9.832 34.934 14.238 56.785 17.847 3.743 8.114 4.965 21.985 1.227 31.094 4.504-.93 7.055-5.93 9.934-7.059 2.117 16.36 5.894 31.059 11.156 43.84 1.789 4.239 4.969 8.082 4.969 12.848-7.98 2.484-24.668-10.297-26.922 2.02-7.414-1.79-12.68 5.5-7.813 9.636 2.45-2.816 5.098-5.363 10.73-5-3.675 1.985-6.656 10.164.86 10.36.465-1.223 1.023-2.614 2.055-3.735 6.484-6.726 35.957-5.965 48.039-3.281 2.715.527 4.703 3.937 6.195 4.5 2.25-1.883 5.926-3.57 4.996-7.844-1.719-7.719-16.554-1.887-23.176-5.367" style="fill:#c8102e;fill-opacity:1;fill-rule:evenodd;stroke:none" transform="matrix(1.14255 0 0 1.14255 -186.467 -70.918)"/></g></svg>