<?xml version="1.0" encoding="utf-8"?>
<!-- Generator: Adobe Illustrator 24.0.1, SVG Export Plug-In . SVG Version: 6.00 Build 0)  -->
<svg version="1.1" id="katman_1" xmlns="http://www.w3.org/2000/svg" xmlns:xlink="http://www.w3.org/1999/xlink" x="0px" y="0px"
	 viewBox="0 0 600 450" style="enable-background:new 0 0 600 450;" xml:space="preserve">
<style type="text/css">
	.st0{fill:#34173A;}
	.st1{fill:#FFFFFF;}
</style>
<g>
	<path class="st0" d="M286.1,402.3c-17.9,0-34.6-4.3-49.7-12.7c-0.9-0.5-1.4-1.6-1.2-2.7c5-25,8.9-49.8,1.5-78.6
		c-21.8,32.1-40.2,45.2-41,45.7c-0.4,0.3-0.9,0.5-1.4,0.5c-0.2,0-0.4,0-0.5-0.1c-0.7-0.1-1.3-0.6-1.6-1.2
		c-14.6-24.8-14.7-71.9-10.9-91.7l-21.6,6.7c-0.2,0.1-0.5,0.1-0.7,0.1c-0.5,0-1-0.2-1.5-0.5c-0.6-0.5-1-1.2-1-2
		c0-18.4,12.2-52.7,28.9-74l-11.5-1.8c-0.8-0.1-1.5-0.6-1.8-1.3c-0.4-0.7-0.4-1.5,0-2.3c11.2-22.9,27.5-42.2,48.3-57.3
		c0.4-0.3,1-0.5,1.5-0.5c0.6,0,1.2,0.2,1.7,0.7c0.9,0.8,1.1,2.1,0.4,3.1c-2.9,4.7-4.8,13.9-2.2,23.1c0.8,3,2.4,6.6,5.1,9.8
		c-3.8-11.9-2.6-24.1,3.7-31.4c3.7-4.1,8.6-6.2,14.3-6.2c3.3,0,6.7,0.7,10,2c-3.3-3.9-8-7.3-14-7.7c-1.1-0.1-2.1-0.9-2.3-2
		c-0.2-1.1,0.3-2.2,1.3-2.7c21-10.9,45.3-16.7,70.4-16.7c3.2,0,6.3,0.2,9.2,0.4c1.6,0.1,3.1,0.2,4.6,0.3c0.3,0,0.5,0.1,0.8,0.2
		c5.8,2.2,13,8.3,18.5,14.1c-0.5-2.2-1.4-4.8-2.7-7.5c-0.4-0.9-0.3-1.9,0.3-2.7c0.5-0.6,1.2-0.9,2-0.9c0.2,0,0.4,0,0.6,0.1
		c25.1,6.1,39.1,16.1,46.4,23.5c0.4,0.4,0.7,1,0.7,1.5c0.9,9.9,3.7,16.3,7.5,25.1c0.5,1.2,1.1,2.5,1.7,3.8c0.5,1.1,0.1,2.4-0.9,3.1
		c-0.4,0.3-0.9,0.4-1.3,0.4c-0.7,0-1.4-0.3-1.9-0.8c-7.7-8.5-26.4-22.5-37.5-27.4c-0.6,3.6-2,9.4-4.6,12.8c-0.5,0.7-1.2,1-2,1
		c-0.5,0-1-0.2-1.5-0.5c-17.8-12.8-27.7-17.5-30-18.5c-16.3,1.7-30.2,7-41.6,15.8l4.6,3.9c0.7,0.6,1,1.5,0.8,2.4
		c-0.2,0.9-0.9,1.6-1.7,1.9c-8.6,2.6-15.4,8.6-18.9,12.3c2.3,0.4,5.3,0.8,8,1.1c1.3,0.2,2.3,1.4,2.2,2.7c0,0.5-0.9,12.9,15.5,21
		c5.3,2.6,11.6,2.9,17,2.9c2.6,0,5.2-0.1,8-0.2c2.9-0.1,5.8-0.2,8.9-0.2c4.5,0,10,0.2,15.7,1.4c-8.6-9.3-14.8-14.5-16.4-15.9
		c-1.5-0.3-5.4-0.9-8.3-0.9c-0.9,0-1.8,0-2.9,0.1c-1.2,0-2.6,0.1-4.1,0.1c-3.3,0-8.4-0.3-13.6-2.5c-4-1.5-8.3-4.1-11.9-6.4
		c-0.6-0.4-1-1.1-1.1-1.8c-0.1-0.7,0.2-1.5,0.7-2c0.4-0.4,10.4-10.8,25.3-12.9c0.1,0,0.2,0,0.3,0c0.2,0,0.4,0,0.6,0.1
		c0.5,0.1,12,3.2,22,10.2c5.9-5.1,11.9-5.5,13.6-5.5c0.2,0,0.4,0,0.4,0c1,0.1,1.9,0.7,2.2,1.6c0.3,0.9,0.1,2-0.6,2.7
		c0,0-5.4,5.3-4.3,11c8,7.2,16.3,16.4,19.4,19.9c4.9-2.2,11.8-3.4,19.2-3.4c3.4,0,7.2,0.3,10.7,0.9c-3.1-2.9-6.4-5.5-9.5-8
		c-1.7-1.4-3.3-2.7-4.8-3.9c-0.4-0.4-0.7-0.8-0.8-1.4c-0.5-2.1-7-11.2-9.1-13.8c-0.7-0.9-0.8-2.1-0.1-3c0.5-0.7,1.3-1.1,2.1-1.1
		c0.3,0,0.5,0,0.8,0.1c0.3,0.1,6.4,2.2,12.5,6.9c2.5-2.6,6.1-4.6,9.9-5.5c0.2,0,0.4-0.1,0.6-0.1c0.6,0,1.2,0.2,1.6,0.6
		c5.4,4.6,7.1,11.8,6.2,14.2c-0.1,0.2-0.2,0.5-0.4,0.7c-0.9,1.2-1.9,2.1-2.7,2.8l6.2,6.6l0.5-4.1c0.1-1,0.9-1.9,1.9-2.1
		c0.2-0.1,0.4-0.1,0.6-0.1c0.8,0,1.6,0.4,2,1.1c15.3,21.7,24.9,42.7,29.3,64.4c5.2,25.3,3.3,50.8-5.8,78c-0.3,0.8-1,1.5-1.9,1.7
		c-0.2,0-0.3,0.1-0.5,0.1c-0.7,0-1.4-0.3-1.9-0.8l-8.7-9.6c-4.8,35.9-23.9,65.7-55.3,86.5c-0.4,0.3-0.9,0.4-1.4,0.4
		c-0.3,0-0.6-0.1-0.9-0.2c-0.8-0.3-1.3-0.9-1.5-1.7l-4.4-16.5C334.4,394.7,309.8,402.3,286.1,402.3
		C286.2,402.3,286.1,402.3,286.1,402.3z M374.7,280.1c0.2,0,0.4,0,0.6,0.1c0.9,0.2,1.6,0.8,1.8,1.7c0.1,0.4,2.5,8,2.7,17.9
		c5.8-5.3,11.7-14.3,14-26.4c-0.4-1.6-2-7.5-6.8-13.3l-12.8,0.4c-3.4,2.7-18,14.4-29.5,17.1c2,3.7,5.3,9.9,7.7,14.4
		c6.6-1.8,16.2-6.7,20.4-11.1C373.3,280.4,374,280.1,374.7,280.1z M334.6,258c9.3,0,23.9-7.9,40-21.8v-17c-3-1.2-9.6-4-16.7-9.4
		c-15.2,2.6-33.1,16-38.4,20.2c2.3,4.3,8.4,15.7,14.8,28.1C334.4,258,334.5,258,334.6,258z M392,237.4c4.1,4.4,8,8.5,11.4,14.4
		c4.1-10.7,3.3-25.5-2.1-40.2c-4.5,3.6-8.3,6.2-10.1,7.4v17.6L392,237.4z M232.7,116.2c-0.3,0-0.6-0.1-0.9-0.2
		c-0.7-0.3-1.2-0.9-1.5-1.6c-3.5-11.5-9.6-27.4-18.2-37.4c-0.8-0.9-0.8-2.2-0.1-3.1c0.5-0.6,1.2-1,2-1c0.4,0,0.7,0.1,1.1,0.2
		c10.2,4.8,18.1,10.2,23,13.9c-0.4-2.1-0.8-4.6-1.2-7.3c-1.2-7.1-2.6-15.4-3.6-21.7c-0.2-1,0.3-2,1.1-2.5c0.4-0.3,0.9-0.4,1.3-0.4
		c0.5,0,1,0.1,1.4,0.4c3.6,2.5,9.3,6.4,15.2,10.5c7.2,5,14.5,10,19.2,13.3c3.6-10.8,11.4-33,11.8-34c0.3-0.9,1.1-1.5,2.1-1.7
		c0.1,0,0.2,0,0.3,0c0.9,0,1.7,0.4,2.1,1.2c0.6,1,13.8,22.1,19,30.7c4.3-4.6,12.9-14.1,19.4-21.4c3.7-4.1,6.9-7.7,8.6-9.6
		c0.5-0.5,1.2-0.8,1.8-0.8c0.3,0,0.5,0,0.8,0.1c0.9,0.3,1.6,1.2,1.7,2.2c0.6,6.9,1.1,15.6,1.5,22.5c0.2,2.6,0.3,5,0.5,7
		c7.2-8.7,14.3-15,19.2-18.9c0.5-0.4,1-0.5,1.6-0.5c0.6,0,1.1,0.2,1.6,0.6c0.9,0.7,1.2,2,0.7,3.1c-4.7,9.3-8,22.7-9.8,39.8
		c-0.1,0.7-0.5,1.4-1.1,1.8c-0.4,0.3-0.9,0.4-1.4,0.4c-0.2,0-0.5,0-0.7-0.1c-13.3-3.8-27.2-5.8-41.3-5.8c-26.8,0-53,6.9-76,20
		C233.6,116.1,233.1,116.2,232.7,116.2z"/>
	<path class="st1" d="M336.7,46.2c1.1,13.5,2.1,33.1,2.5,35.9c1.1-1.4,9.4-12.8,22.8-23.5c-5.9,11.7-8.7,27.6-10.1,40.7
		c-13.5-3.9-27.6-5.9-42-5.9c-27.9,0-54.4,7.3-77.2,20.3c-3.9-12.7-10.1-28.3-18.7-38.3c15.5,7.3,25.8,16.2,27.6,17.6
		c-0.7-4.1-3.9-23.5-5.9-35.4c8.9,6.2,30.4,21,37.2,25.8c2.7-8.7,12.8-37.2,12.8-37.2s17.8,28.6,20.6,33.4
		C310.2,75.9,331.2,52.2,336.7,46.2 M310.2,103.2c4.8,0,9.4,0.5,13.7,0.7c7.3,2.7,17.8,13,22.8,19.6c0,0,0.5-7.5-3.9-16.4
		c27,6.6,40,17.6,45.2,22.8c1.1,11.7,4.6,18.5,9.4,29.7c-8.7-9.6-30.6-25.6-41.4-29.2c0,0-1.1,10.1-4.6,14.8
		c-21-15.1-31.1-19-31.1-19c-23.3,2.3-37.7,11.4-45.9,18.3l6.9,5.9c-13.7,4.1-22.8,16.2-22.8,16.2c0,0.5,12.3,2.1,12.3,2.1
		s-1.4,14.4,16.9,23.5c5.4,2.6,11.5,3.2,18.1,3.2c5.4,0,11-0.4,16.9-0.4c7.7,0,15.7,0.7,23.5,3.8c-13.7-15.8-23.1-23.1-23.1-23.1
		s-5.5-1.1-9.4-1.1c-2,0-4.3,0.2-7,0.2c-3.8,0-8.2-0.4-12.6-2.3c-3.9-1.4-8.2-4.1-11.4-6.2c0,0,9.6-10.1,23.8-12.1
		c0,0,12.8,3.4,22.8,11c5.9-5.9,12.2-6.2,13.5-6.2c0.2,0,0.2,0,0.2,0s-6.9,6.6-4.8,14.2c10.1,8.9,21,21.7,21,21.7
		c4.9-2.8,12.5-4,19.9-4c9,0,17.6,1.9,20.3,5.1c-6.2-8.2-15.5-14.8-22.4-20.6c-0.7-3.2-8.7-13.7-9.6-14.8c0,0,7.3,2.5,13.7,8
		c1.8-2.7,5.5-5.5,10.1-6.6c4.8,4.1,5.9,10.3,5.5,11.4c-2.1,2.7-4.6,3.9-4.6,3.9L404,190l1.1-9.4c27.3,38.7,42.1,83.7,23.2,140.1
		L415.9,307c-3.4,36.8-21.7,68.3-54.8,90.2l-5.3-19.9c-17.6,12.6-43,22.5-69.6,22.5c-16.1,0-32.8-3.6-48.5-12.4
		c5.3-26.3,9.6-53,0-85c-23.1,35.4-43.4,49.6-43.4,49.6c-15.5-26.3-14.2-78.6-9.6-94.1l-25.8,8c0-17.6,12.8-54.8,31.1-75.8
		l-15.8-2.5c11-22.4,27.2-41.6,47.5-56.4c-6.2,10.1-6.2,33.4,11.4,42.3c-7.5-13-8.2-29.2-0.7-37.9c3.5-3.8,7.9-5.3,12.4-5.3
		c6,0,12.2,2.7,16.8,6.4c-2.5-7.3-10.1-16.4-20.6-17.1C261.6,108.9,285.5,103.2,310.2,103.2 M334.6,260.5c15,0,35.9-17.4,42.5-23.2
		v-19.9c0,0-8.9-2.7-18.5-10.3c-19.2,2.7-42.3,22.2-42.3,22.2s8,14.8,16.4,31.1C333.3,260.5,333.9,260.5,334.6,260.5 M403.5,257.5
		c7.6-13.3,5.8-33.2-1.1-49.9c-7.5,6.2-13.7,10.1-13.7,10.1v19.9C394.2,243.5,399.4,248.6,403.5,257.5 M351.2,294.9
		c6.9-1.4,18.5-6.9,23.5-12.3c0,0,3.2,10.3,2.5,22.4c6.7-4.4,16.1-14.9,19.1-31.6c0,0-1.4-8.2-8.2-15.8l-14.8,0.5
		c0,0-20.3,17.1-32.4,17.6C340.9,275.7,347.8,288.5,351.2,294.9 M336.7,41.2c-1.4,0-2.7,0.6-3.7,1.6c-1.7,1.9-4.9,5.5-8.7,9.6
		c-5.3,5.9-12.5,13.9-17.2,19c-5.9-9.6-16.7-26.9-17.2-27.9c-0.9-1.5-2.5-2.4-4.2-2.4c-0.2,0-0.4,0-0.5,0c-1.9,0.2-3.5,1.5-4.2,3.3
		c-0.3,1-6.9,19.4-10.7,30.9c-4.6-3.2-10.6-7.3-16.5-11.4c-5.9-4.1-11.6-8-15.2-10.6c-0.9-0.6-1.9-0.9-2.9-0.9
		c-0.9,0-1.9,0.3-2.7,0.8c-1.7,1.1-2.6,3.1-2.3,5.1c1.1,6.3,2.4,14.6,3.6,21.7c0.1,0.4,0.1,0.9,0.2,1.3c-4.8-3.3-11-7.1-18.5-10.6
		c-0.7-0.3-1.4-0.5-2.1-0.5c-1.5,0-3,0.7-4,2c-1.4,1.9-1.3,4.5,0.2,6.3c8.4,9.7,14.2,25.2,17.7,36.5c0.4,1.5,1.5,2.6,2.9,3.2
		c0.6,0.2,1.2,0.4,1.8,0.4c0.9,0,1.7-0.2,2.5-0.7c0.5-0.3,0.9-0.5,1.4-0.8c-0.5,1-0.7,2.2-0.5,3.4c0.5,2.2,2.3,3.8,4.6,4
		c1.3,0.1,2.5,0.3,3.6,0.7c-6.1,0.1-11.5,2.5-15.6,6.9c0,0-0.1,0.1-0.1,0.1c-2.7,3.1-4.5,7-5.5,11.3c0.4-4,1.5-7.5,2.9-9.8
		c1.2-2,0.9-4.7-0.9-6.3c-1-0.9-2.2-1.3-3.4-1.3c-1,0-2.1,0.3-2.9,1c-21.1,15.4-37.6,35-49,58.2c-0.7,1.4-0.7,3.1,0.1,4.5
		c0.7,1.4,2.1,2.4,3.7,2.6l7.4,1.2c-15.7,21.8-26.9,54.4-26.9,72.2c0,1.6,0.8,3.1,2,4c0.9,0.6,1.9,1,3,1c0.5,0,1-0.1,1.5-0.2
		l17.7-5.5c-1.4,9.8-1.9,23-1.1,36c0.9,15.8,3.9,37.8,13,53.4c0.7,1.2,1.9,2.1,3.2,2.3c0.4,0.1,0.7,0.1,1.1,0.1c1,0,2-0.3,2.9-0.9
		c0.8-0.5,17.8-12.6,38.4-41.7c5.5,25.8,2,48.1-2.8,72.1c-0.4,2.1,0.6,4.3,2.5,5.4c15.4,8.6,32.6,13,50.9,13c23,0,46.9-7,66.6-19.4
		l3.5,13.1c0.4,1.6,1.6,2.8,3.1,3.4c0.6,0.2,1.2,0.3,1.8,0.3c1,0,1.9-0.3,2.8-0.8c30.5-20.2,49.6-48.7,55.6-83l5.2,5.7
		c1,1.1,2.3,1.6,3.7,1.6c0.3,0,0.7,0,1-0.1c1.7-0.4,3.2-1.6,3.7-3.3c9.1-27.2,11.1-53.9,5.9-79.3c-4.5-22-14.2-43.3-29.7-65.3
		c-1-1.3-2.5-2.1-4.1-2.1c-0.4,0-0.8,0.1-1.2,0.2c-1.6,0.4-2.9,1.6-3.5,3.1l-0.9-1c0.4-0.4,0.8-0.9,1.2-1.4c0.3-0.4,0.6-0.9,0.8-1.4
		c0.8-2.3,0.2-6.7-2.1-10.9c0.3-0.1,0.6-0.3,0.8-0.4c2.1-1.3,2.9-3.9,1.9-6.2c-0.6-1.3-1.1-2.6-1.7-3.9c-3.9-8.9-6.5-14.8-7.3-24.3
		c-0.1-1.2-0.6-2.2-1.4-3.1c-6.8-6.8-19.1-15.8-40-22.1c0.1,0,0.3,0,0.4,0c1,0,2-0.3,2.8-0.8c1.2-0.8,2-2.1,2.2-3.6
		c1.8-16.8,5-29.9,9.6-39c1.1-2.1,0.5-4.7-1.3-6.1c-0.9-0.7-2-1.1-3.2-1.1c-1.1,0-2.2,0.4-3.1,1.1c-4.1,3.3-9.7,8.2-15.6,14.7
		c0-0.3,0-0.6-0.1-1c-0.4-7-1-15.6-1.6-22.6c-0.2-2-1.5-3.7-3.4-4.3C337.8,41.3,337.2,41.2,336.7,41.2L336.7,41.2z M337.8,107
		c-4-3.4-8.3-6.4-12.1-7.8c5.8,0.6,11.4,1.6,17.1,2.9c-1.5,0-2.9,0.7-3.9,1.9C338.2,104.9,337.8,105.9,337.8,107L337.8,107z
		 M282.3,144.7c10.4-7.3,22.8-11.8,37.2-13.4c3,1.4,12.6,6.2,29,17.9c0.9,0.6,1.9,0.9,2.9,0.9c1.5,0,3-0.7,4-2
		c2.2-2.9,3.6-7.1,4.4-10.7c8.6,4.5,20.5,13,28.4,20.1c-2.8,0.9-5.5,2.4-7.7,4.2c-5.8-4-11.3-5.9-11.5-6c-0.5-0.2-1.1-0.3-1.6-0.3
		c-1.6,0-3.2,0.8-4.1,2.1c-1.3,1.8-1.2,4.3,0.2,6c1.7,2.1,7.9,10.6,8.6,12.8c0.2,1,0.8,2,1.6,2.7c1.5,1.3,3.1,2.6,4.8,4
		c1.1,0.9,2.2,1.8,3.4,2.7c-1.2-0.1-2.2-0.1-3-0.1c-4.4,0-12,0.4-18.6,2.9c-3.6-4.1-10.7-11.8-17.7-18.2c-0.2-4.1,3.6-8,3.6-8
		c1.4-1.4,1.9-3.5,1.2-5.3c-0.7-1.9-2.4-3.2-4.4-3.3c0,0-0.2,0-0.5,0c-1.9,0-7.7,0.4-13.8,4.9c-9.9-6.5-20.7-9.4-21.2-9.5
		c-0.4-0.1-0.9-0.2-1.3-0.2c-0.2,0-0.5,0-0.7,0c-15.7,2.2-26.3,13.1-26.7,13.6c-1,1.1-1.5,2.5-1.3,4c0.2,1.5,1,2.8,2.2,3.6
		c3.7,2.4,8.1,5.1,12.3,6.7c5.6,2.4,10.9,2.6,14.5,2.6c1.5,0,2.9-0.1,4.2-0.1c1,0,2-0.1,2.8-0.1c2.2,0,5.3,0.5,7.2,0.8
		c1.6,1.4,5.4,4.7,10.7,10c-3.2-0.3-6.2-0.4-8.9-0.4c-3.1,0-6,0.1-8.9,0.2c-2.8,0.1-5.4,0.2-7.9,0.2c-5.1,0-11.1-0.3-15.9-2.7
		c-14.4-7.2-14.2-17.7-14.1-18.6c0.3-2.7-1.6-5.1-4.3-5.4c-0.9-0.1-1.9-0.3-2.9-0.4c3.5-3.1,8.4-6.4,14.2-8.2c1.8-0.5,3.1-2,3.5-3.8
		c0.4-1.8-0.3-3.6-1.6-4.8L282.3,144.7L282.3,144.7z M322.7,230.6c6.4-4.9,21.5-15.6,34.6-18.2c5.9,4.4,11.4,7,14.8,8.5V235
		c-14.7,12.5-27.7,19.8-36.3,20.4C330.4,245.1,325.4,235.6,322.7,230.6L322.7,230.6z M393.7,220.4c1.5-1,3.8-2.6,6.4-4.6
		c3.4,10.7,4.2,21.4,2.4,30.1c-2.8-3.9-5.8-7-8.7-10.2c0,0-0.1-0.1-0.1-0.1V220.4L393.7,220.4z M375.2,263l10.7-0.4
		c3.5,4.5,4.9,9,5.4,10.8c-1.7,8.6-5.3,15.4-9.3,20.4c-0.8-7.3-2.3-12.5-2.4-12.8c-0.5-1.7-1.9-3-3.7-3.4c-0.4-0.1-0.7-0.1-1.1-0.1
		c-1.4,0-2.7,0.6-3.7,1.6c-3.4,3.7-11.3,7.8-17.3,9.8c-1.7-3.2-3.7-6.8-5.3-9.9C359.1,275.5,371,266.4,375.2,263L375.2,263z"/>
</g>
</svg>
