<svg xmlns="http://www.w3.org/2000/svg" width="1000.295" height="1297.673" viewBox="0 0 264.66137 343.34265"><defs><clipPath id="a" clipPathUnits="userSpaceOnUse"><path d="M0 841.89h595.276V0H0Z"/></clipPath></defs><path d="m132.342 6.828-5.3 5.738c-.136.145-13.528 14.195-53.158 36.385-27.818 15.525-59.12 22.105-59.443 22.165l-4.731.987-.882 4.754c-5.525 29.671-5.603 59.566-.224 88.91l2.402 11.683.67 2.702c7.57 30.784 20.943 59.541 39.785 85.485 20.433 28.154 46.404 51.735 77.177 70.112l3.687 2.205 3.698-2.205c30.769-18.377 56.733-41.958 77.176-70.112 18.842-25.944 32.212-54.69 39.783-85.485l3.072-14.385c5.38-29.344 5.309-59.228-.22-88.91l-.898-4.754-4.725-.987c-.321-.06-31.598-6.625-59.43-22.16-39.659-22.214-53.022-36.233-53.139-36.363Z" style="fill-opacity:1;fill-rule:nonzero;stroke:#fff;stroke-width:9.25424;stroke-miterlimit:4;stroke-dasharray:none;stroke-opacity:1"/><g clip-path="url(#a)" style="stroke-width:1.00063;stroke-miterlimit:4;stroke-dasharray:none" transform="matrix(.91885 0 0 -.91885 -141.932 558.499)"><path d="m432.893 524.178-.976 5.173-5.144 1.074c-.349.065-34.388 7.21-64.677 24.117-43.162 24.176-57.705 39.433-57.832 39.574l-5.768 6.274-5.768-6.244c-.149-.158-14.723-15.449-57.853-39.598-30.274-16.897-64.34-24.058-64.692-24.123l-5.15-1.074-.959-5.173c-6.013-32.292-6.099-64.828-.245-96.763l2.615-12.715.728-2.941c8.24-33.502 22.793-64.799 43.299-93.034 22.238-30.64 50.504-56.303 83.994-76.303l4.011-2.4 4.026 2.4c33.486 20 61.743 45.663 83.991 76.303 20.506 28.235 35.057 59.52 43.297 93.034l3.343 15.656c5.855 31.935 5.777 64.459-.24 96.763" style="fill:#000;fill-opacity:1;fill-rule:nonzero;stroke:none;stroke-width:1.00063;stroke-miterlimit:4;stroke-dasharray:none"/><path d="M425.189 522.748s-35.266 7.268-66.912 24.96c-45.519 25.479-59.79 41.117-59.79 41.117s-14.29-15.638-59.79-41.117c-31.664-17.692-66.922-24.96-66.922-24.96-6.503-34.912-5.739-69.863 1.62-103.154h250.166c7.365 33.292 8.121 68.243 1.628 103.154" style="fill:#fbb900;fill-opacity:1;fill-rule:nonzero;stroke:none;stroke-width:1.00063;stroke-miterlimit:4;stroke-dasharray:none"/><path d="M298.491 249.157c66.234 39.547 109.843 101.447 125.072 170.435h-250.17c15.252-68.988 58.833-130.888 125.098-170.435" style="fill:#980a2b;fill-opacity:1;fill-rule:nonzero;stroke:none;stroke-width:1.00063;stroke-miterlimit:4;stroke-dasharray:none"/><path d="M269.249 310.989v3.943c0 .719 0 1.069-.449 1.069-.561 0-2.798-1.147-3.444-1.424-.149-.063-.305-.131-.423-.131-.091 0-.24.168-.24.35 0 .178.149.318.295.408.127.078 5.846 3.849 6.889 4.631.266.172.532.391.767.391.274 0 .36-.339.36-.636 0-.24-.183-3.207-.183-7.812v-5.56c0-2.889 0-5.44.123-6.774.086-.961.24-1.398 1.187-1.617.454-.08 1.729-.178 1.971-.178.118 0 .266-.088.266-.302 0-.208-.148-.266-.475-.266-2.266 0-4.167.088-4.978.088-.673 0-3.179-.088-5.095-.088-.321 0-.495.058-.495.266 0 .214.112.302.24.302.326 0 1.841.098 2.381.219.952.207 1.1.615 1.191 1.574.112 1.336.177 3.885.144 6.775z" style="fill:#010101;fill-opacity:1;fill-rule:nonzero;stroke:none;stroke-width:1.00063;stroke-miterlimit:4;stroke-dasharray:none"/><path d="M269.249 310.989v3.943c0 .719 0 1.069-.449 1.069-.561 0-2.798-1.147-3.444-1.424-.149-.063-.305-.131-.423-.131-.091 0-.24.168-.24.35 0 .178.149.318.295.408.127.078 5.846 3.849 6.889 4.631.266.172.532.391.767.391.274 0 .36-.339.36-.636 0-.24-.183-3.207-.183-7.812v-5.56c0-2.889 0-5.44.123-6.774.086-.961.24-1.398 1.187-1.617.454-.08 1.729-.178 1.971-.178.118 0 .266-.088.266-.308 0-.203-.148-.262-.475-.262-2.266 0-4.167.09-4.978.09-.673 0-3.179-.09-5.095-.09-.321 0-.495.059-.495.262 0 .219.112.308.24.308.326 0 1.841.098 2.381.219.952.207 1.1.615 1.191 1.574.112 1.336.177 3.885.144 6.775z" style="fill:none;stroke:#000;stroke-width:1.00063;stroke-linecap:butt;stroke-linejoin:miter;stroke-miterlimit:4;stroke-dasharray:none;stroke-opacity:1"/><path d="M295.831 312.054c0-8.417-7.296-13.711-10.981-15.463a1.016 1.016 0 0 0-.526-.12c-.13 0-.279.151-.279.307 0 .219.208.391.357.5 3.092 1.905 7.739 6.842 7.739 13.93 0 5.32-2.232 7.662-4.529 7.662-2.136 0-3.567-1.924-3.567-4.475 0-4.594 2.949-5.679 3.963-5.679 1.041 0 1.638.177 2.024.359.321.178.479.319.592.319.117 0 .235-.12.235-.261 0-.089-.089-.287-.149-.328-.86-.935-2.404-1.382-3.924-1.382-4.29 0-6.073 3.275-6.073 5.799 0 4.062 3.033 7.009 7.622 7.009 4.847-.001 7.496-3.615 7.496-8.177" style="fill:#010101;fill-opacity:1;fill-rule:nonzero;stroke:none;stroke-width:1.00063;stroke-miterlimit:4;stroke-dasharray:none"/><path d="M295.831 312.054c0-8.417-7.296-13.711-10.981-15.463a1.016 1.016 0 0 0-.526-.12c-.13 0-.279.151-.279.307 0 .219.208.391.357.5 3.092 1.905 7.739 6.842 7.739 13.93 0 5.32-2.232 7.662-4.529 7.662-2.136 0-3.567-1.924-3.567-4.475 0-4.594 2.949-5.679 3.963-5.679 1.041 0 1.638.177 2.024.359.321.178.479.319.592.319.117 0 .235-.12.235-.261 0-.089-.089-.287-.149-.328-.86-.935-2.404-1.382-3.924-1.382-4.29 0-6.073 3.275-6.073 5.799 0 4.062 3.033 7.004 7.622 7.004 4.847 0 7.496-3.61 7.496-8.172z" style="fill:none;stroke:#000;stroke-width:1.00063;stroke-linecap:butt;stroke-linejoin:miter;stroke-miterlimit:4;stroke-dasharray:none;stroke-opacity:1"/><path d="M298.903 297.169a.421.421 0 0 0-.412.418c0 .24.29.511.589.787 4.164 3.688 10.091 8.392 10.091 14.729 0 4.751-2.595 5.716-4.083 5.716-1.272 0-2.261-.246-3.158-1.086-.7-.699-1.248-2.101-1.248-2.879 0-.308-.086-.588-.379-.588-.157 0-.242.219-.274.588-.025.262-.174 2.76-.174 3.625 0 .272.032.391.362.61 1.153.6 2.762 1.138 5.383 1.138 5.24 0 7.463-2.89 7.463-6.4 0-5.836-6.39-10.92-10.236-14.018-.149-.099-.089-.199.06-.199h2.029c.508 0 4.016.022 5.121.168 2.055.25 3.026 1.268 3.391 2.68.082.361.172.48.359.48.197 0 .234-.271.234-.568 0-.485-.563-3.285-.86-4.293-.24-.807-.72-.906-2.593-.906h-11.665z" style="fill:#010101;fill-opacity:1;fill-rule:nonzero;stroke:none;stroke-width:1.00063;stroke-miterlimit:4;stroke-dasharray:none"/><path d="M298.903 297.169a.421.421 0 0 0-.412.418c0 .24.29.511.589.787 4.164 3.688 10.091 8.392 10.091 14.729 0 4.751-2.595 5.71-4.083 5.71-1.272 0-2.261-.24-3.158-1.08-.7-.705-1.248-2.103-1.248-2.879 0-.308-.086-.589-.379-.589-.157 0-.242.218-.274.589-.025.26-.174 2.758-.174 3.625 0 .27.032.391.362.61 1.153.599 2.762 1.137 5.383 1.137 5.24 0 7.463-2.889 7.463-6.399 0-5.836-6.39-10.92-10.236-14.019-.149-.1-.089-.198.06-.198h2.029c.508 0 4.016.02 5.121.161 2.055.257 3.026 1.273 3.391 2.687.082.359.172.48.359.48.197 0 .234-.277.234-.57 0-.484-.563-3.285-.86-4.291-.24-.808-.72-.908-2.593-.908z" style="fill:none;stroke:#000;stroke-width:1.00063;stroke-linecap:butt;stroke-linejoin:miter;stroke-miterlimit:4;stroke-dasharray:none;stroke-opacity:1"/><path d="M331.555 319.72c.563 0 .709-.1.709-.241 0-.187-.116-.427-.207-.546-2.468-3.546-7.114-15.485-7.563-19.329-.047-.517 0-.708 0-1.125 0-.589-2.398-1.816-3.745-1.816-.339 0-.417.088-.417.35 0 .318.057.767.208 1.236.829 2.889 4.642 11.754 8.746 18.69h-7.708c-.83 0-2.076-.056-2.791-.536-.547-.361-.928-1.324-.991-1.795-.026-.24-.114-.406-.292-.406-.208 0-.24.166-.24.475 0 1.09.448 4.615.448 4.923 0 .28.115.417.292.417.178 0 .866-.297 4.021-.297z" style="fill:#010101;fill-opacity:1;fill-rule:nonzero;stroke:none;stroke-width:1.00063;stroke-miterlimit:4;stroke-dasharray:none"/><path d="M331.555 319.72c.563 0 .709-.1.709-.241 0-.187-.116-.427-.207-.546-2.468-3.546-7.114-15.485-7.563-19.329-.047-.517 0-.708 0-1.125 0-.589-2.398-1.816-3.745-1.816-.339 0-.417.088-.417.35 0 .318.057.767.208 1.236.829 2.889 4.642 11.754 8.746 18.69h-7.708c-.83 0-2.076-.056-2.791-.536-.547-.361-.928-1.324-.991-1.795-.026-.24-.114-.406-.292-.406-.208 0-.24.166-.24.475 0 1.09.448 4.615.448 4.923 0 .28.115.417.292.417.178 0 .866-.297 4.021-.297z" style="fill:none;stroke:#000;stroke-width:1.00063;stroke-linecap:butt;stroke-linejoin:miter;stroke-miterlimit:4;stroke-dasharray:none;stroke-opacity:1"/><path d="M269.249 312.075v3.926c0 .726 0 1.086-.449 1.086-.561 0-2.788-1.158-3.444-1.436-.149-.062-.305-.13-.423-.13-.081 0-.24.152-.24.339 0 .178.159.328.295.418.127.073 5.846 3.848 6.889 4.625.255.189.532.408.767.408.274 0 .36-.339.36-.646 0-.229-.183-3.209-.183-7.813v-5.56c0-2.889 0-5.45.123-6.754.086-.979.24-1.418 1.187-1.637.454-.078 1.729-.168 1.971-.168.118 0 .266-.098.266-.328 0-.199-.148-.24-.475-.24-2.266 0-4.167.078-4.978.078-.673 0-3.179-.078-5.084-.078-.332 0-.506.041-.506.24 0 .229.112.328.24.328.326 0 1.841.09 2.381.199.952.219 1.1.626 1.191 1.606.112 1.304.177 3.863.144 6.752z" style="fill:#c9cacc;fill-opacity:1;fill-rule:nonzero;stroke:none;stroke-width:1.00063;stroke-miterlimit:4;stroke-dasharray:none"/><path d="M269.249 312.075v3.926c0 .726 0 1.086-.449 1.086-.561 0-2.788-1.163-3.444-1.436-.149-.062-.305-.13-.423-.13-.081 0-.24.152-.24.339 0 .178.159.328.295.418.127.073 5.846 3.848 6.889 4.625.255.189.532.408.767.408.274 0 .36-.339.36-.646 0-.229-.183-3.209-.183-7.813v-5.56c0-2.889 0-5.45.123-6.754.086-.985.24-1.418 1.187-1.637.454-.078 1.729-.168 1.971-.168.118 0 .266-.098.266-.328 0-.199-.148-.24-.475-.24-2.266 0-4.167.078-4.978.078-.673 0-3.179-.078-5.084-.078-.332 0-.506.041-.506.24 0 .229.112.328.24.328.326 0 1.841.09 2.381.199.952.219 1.1.621 1.191 1.606.112 1.304.177 3.863.144 6.752z" style="fill:#c8c3c2;fill-opacity:1"/><path d="M295.831 313.128c0-8.418-7.296-13.711-10.981-15.463a1.06 1.06 0 0 0-.537-.121c-.12 0-.269.168-.269.318 0 .209.208.381.357.502 3.092 1.903 7.739 6.832 7.739 13.918 0 5.32-2.232 7.678-4.519 7.678-2.146 0-3.578-1.93-3.578-4.49 0-4.596 2.949-5.69 3.963-5.69 1.041 0 1.638.188 2.024.36.321.197.479.339.592.339.117 0 .235-.13.235-.271 0-.08-.089-.262-.149-.33-.86-.934-2.404-1.366-3.924-1.366-4.29 0-6.073 3.259-6.073 5.789 0 4.057 3.033 7.004 7.622 7.004 4.849.001 7.498-3.613 7.498-8.177" style="fill:#c9cacc;fill-opacity:1;fill-rule:nonzero;stroke:none;stroke-width:1.00063;stroke-miterlimit:4;stroke-dasharray:none"/><path d="M295.831 313.128c0-8.418-7.296-13.711-10.981-15.463a1.06 1.06 0 0 0-.537-.121c-.12 0-.269.168-.269.318 0 .209.208.381.357.502 3.092 1.903 7.739 6.832 7.739 13.918 0 5.32-2.232 7.678-4.519 7.678-2.146 0-3.578-1.93-3.578-4.49 0-4.596 2.949-5.69 3.963-5.69 1.041 0 1.638.188 2.024.36.321.197.479.339.592.339.117 0 .235-.13.235-.271 0-.08-.089-.262-.149-.33-.86-.934-2.404-1.371-3.924-1.371-4.29 0-6.073 3.264-6.073 5.794 0 4.057 3.033 7.004 7.622 7.004 4.849.001 7.498-3.613 7.498-8.177z" style="fill:#c8c3c2;fill-opacity:1"/><path d="M298.903 298.243a.413.413 0 0 0-.412.428c0 .23.29.512.589.777 4.164 3.698 10.091 8.381 10.091 14.729 0 4.751-2.595 5.71-4.083 5.71-1.272 0-2.261-.241-3.158-1.07-.7-.703-1.248-2.111-1.248-2.889 0-.318-.086-.579-.379-.579-.157 0-.242.218-.274.579-.03.26-.174 2.759-.174 3.635 0 .27.032.391.362.6 1.153.6 2.762 1.137 5.383 1.137 5.24 0 7.463-2.891 7.463-6.41 0-5.815-6.39-10.901-10.236-14.008-.149-.1-.089-.208.06-.208h2.029c.508 0 4.016.042 5.121.182 2.055.246 3.026 1.272 3.391 2.67.082.375.181.486.359.486.208 0 .234-.277.234-.558 0-.496-.563-3.297-.86-4.303-.24-.808-.72-.908-2.593-.908z" style="fill:#c9cacc;fill-opacity:1;fill-rule:nonzero;stroke:none;stroke-width:1.00063;stroke-miterlimit:4;stroke-dasharray:none"/><path d="M298.903 298.243a.413.413 0 0 0-.412.428c0 .23.29.512.589.777 4.164 3.698 10.091 8.381 10.091 14.729 0 4.751-2.595 5.71-4.083 5.71-1.272 0-2.261-.241-3.158-1.07-.7-.703-1.248-2.111-1.248-2.889 0-.318-.086-.579-.379-.579-.157 0-.242.218-.274.579-.03.26-.174 2.759-.174 3.63 0 .275.032.396.362.605 1.153.6 2.762 1.137 5.383 1.137 5.24 0 7.463-2.891 7.463-6.415 0-5.81-6.39-10.896-10.236-14.003-.149-.1-.089-.208.06-.208h2.029c.508 0 4.016.042 5.121.182 2.055.246 3.026 1.272 3.391 2.67.082.375.181.486.359.486.208 0 .234-.277.234-.558 0-.496-.563-3.297-.86-4.303-.24-.808-.72-.908-2.593-.908z" style="fill:#c8c3c2;fill-opacity:1"/><path d="M331.555 320.794c.563 0 .709-.109.709-.239 0-.189-.116-.429-.207-.537-2.468-3.558-7.114-15.484-7.563-19.349-.047-.5 0-.709 0-1.115 0-.579-2.398-1.815-3.745-1.815-.339 0-.417.088-.417.36 0 .308.057.746.208 1.226.829 2.889 4.642 11.766 8.746 18.701h-7.708c-.83 0-2.076-.051-2.791-.537-.547-.359-.928-1.334-.991-1.814-.026-.24-.114-.387-.292-.387-.208 0-.24.147-.24.449 0 1.131.438 4.631.438 4.939 0 .297.125.428.302.428.178 0 .866-.308 4.021-.308h9.53z" style="fill:#c9cacc;fill-opacity:1;fill-rule:nonzero;stroke:none;stroke-width:1.00063;stroke-miterlimit:4;stroke-dasharray:none"/><path d="M331.555 320.794c.563 0 .709-.109.709-.239 0-.189-.116-.429-.207-.537-2.468-3.558-7.114-15.484-7.563-19.349-.047-.506 0-.709 0-1.115 0-.579-2.398-1.815-3.745-1.815-.339 0-.417.088-.417.36 0 .308.057.746.208 1.226.829 2.889 4.642 11.766 8.746 18.701h-7.708c-.83 0-2.076-.056-2.791-.537-.547-.359-.928-1.334-.991-1.814-.026-.24-.114-.387-.292-.387-.208 0-.24.147-.24.449 0 1.131.438 4.631.438 4.939 0 .297.125.428.302.428.178 0 .866-.308 4.021-.308h9.53z" style="fill:#c8c3c2;fill-opacity:1"/><path d="M216.554 368.264c0-.616.112-.845.501-.996 1.166-.417 2.847-.58 4.253-.58 2.227 0 2.947.241 3.956.961 1.671 1.219 3.301 3.801 3.301 8.375 0 7.932-5.244 10.221-8.556 10.221-1.39 0-2.399-.057-2.954-.219-.389-.109-.501-.328-.501-.777zm-6.589 4.412c0 8.489 0 10.054-.117 11.838-.112 1.893-.556 2.79-2.404 3.196-.454.111-1.4.162-2.18.162-.613 0-.949.109-.949.506 0 .381.388.5 1.228.5 2.959 0 6.482-.182 7.659-.182 1.896 0 6.141.182 7.877.182 3.518 0 7.257-.338 10.274-2.403 1.564-1.064 3.792-3.922 3.792-7.652 0-4.135-1.731-7.931-7.359-12.51 4.96-6.258 8.822-11.234 12.112-14.697 3.135-3.248 5.432-3.639 6.258-3.797a8.263 8.263 0 0 1 1.56-.172c.459 0 .673-.176.673-.437 0-.449-.378-.569-1.051-.569h-5.304c-3.134 0-4.529.27-5.992 1.059-2.396 1.293-4.519 3.916-7.643 8.207-2.242 3.088-4.811 6.885-5.536 7.713-.279.34-.621.397-1.004.397l-4.861.109c-.279 0-.443-.109-.443-.438v-.789c0-5.199 0-9.621.271-11.953.172-1.627.508-2.852 2.18-3.072.845-.119 2.073-.228 2.741-.228.449 0 .673-.177.673-.438 0-.407-.401-.569-1.111-.569-3.26 0-7.387.162-8.219.162-1.064 0-4.587-.162-6.813-.162-.733 0-1.124.162-1.124.569 0 .261.224.438.892.438.845 0 1.513.109 2.021.228 1.111.22 1.398 1.445 1.617 3.072.284 2.332.284 6.754.284 11.885v9.845zM283.873 366.688c0 12.527-7.21 20.287-16.358 20.287-6.446 0-13.757-3.568-13.757-17.486 0-11.609 6.425-20.836 17.142-20.836 3.927 0 12.973 1.893 12.973 18.035m-37.821 1.075c0 9.539 6.318 21.883 23.069 21.883 13.912 0 22.574-8.11 22.574-20.876 0-12.803-8.934-22.906-23.129-22.906-16.037 0-22.514 12.016-22.514 21.899M300.415 388.196c.162.949.498 1.444.946 1.444.45 0 .78-.25 1.511-1.716l15.249-31.062 15.197 31.452c.448.888.714 1.326 1.231 1.326.49 0 .829-.537.996-1.716l5.084-34.191c.512-3.51 1.064-5.132 2.738-5.644 1.621-.506 2.738-.563 3.468-.563.501 0 .897-.051.897-.38 0-.448-.677-.62-1.455-.62-1.403 0-9.111.115-11.343.282-1.284.109-1.618.281-1.618.615 0 .281.215.449.606.611.344.119.506.844.282 2.42l-3.349 24.281h-.224l-12.177-24.918c-1.283-2.613-1.563-3.119-2.065-3.119-.511 0-1.064 1.116-1.955 2.791-1.347 2.561-5.748 11.108-6.431 12.684-.501 1.173-3.855 7.76-5.805 11.953h-.223l-2.907-21.779c-.106-1.006-.166-1.743-.166-2.628 0-1.06.732-1.564 1.674-1.794 1.015-.219 1.789-.282 2.35-.282.448 0 .842-.115.842-.386 0-.502-.511-.616-1.346-.616-2.344 0-4.866.167-5.864.167-1.067 0-3.742-.167-5.536-.167-.556 0-1.004.114-1.004.616 0 .271.331.386.897.386.449 0 .837 0 1.677.171 1.559.339 2.008 2.519 2.29 4.413z" style="fill:#010101;fill-opacity:1;fill-rule:nonzero;stroke:none;stroke-width:1.00063;stroke-miterlimit:4;stroke-dasharray:none"/><path d="M373.042 363.684c.271 0 .329.151.271.329l-5.034 13.742c-.041.228-.103.506-.27.506-.177 0-.277-.276-.329-.506l-5.137-13.691c-.063-.229 0-.38.208-.38zm-11.39-2.8c-.297 0-.396-.1-.517-.438l-3.014-7.662c-.553-1.387-.834-2.738-.834-3.416 0-.996.5-1.726 2.227-1.726h.84c.667 0 .834-.11.834-.438 0-.449-.323-.558-.939-.558-1.783 0-4.183.162-5.924.162-.615 0-3.682-.162-6.593-.162-.729 0-1.063.109-1.063.558 0 .328.229.438.679.438.5 0 1.282.062 1.73.12 2.561.329 3.62 2.231 4.746 5.022l14.008 34.633c.678 1.623 1.012 2.223 1.575 2.223.5 0 .845-.491 1.398-1.774 1.34-3.072 10.278-25.418 13.851-33.914 2.123-5.022 3.75-5.799 4.923-6.082.84-.166 1.669-.228 2.347-.228.438 0 .72-.057.72-.438 0-.449-.5-.558-2.566-.558-2.014 0-6.091 0-10.557.109-1.011.052-1.677.052-1.677.449 0 .328.218.438.781.5.387.109.783.615.512 1.283l-4.476 11.5c-.125.297-.287.396-.563.396h-12.448z" style="fill:#010101;fill-opacity:1;fill-rule:nonzero;stroke:none;stroke-width:1.00063;stroke-miterlimit:4;stroke-dasharray:none"/><path d="M216.554 369.505c0-.627.112-.834.501-1.008 1.166-.379 2.847-.558 4.253-.558 2.227 0 2.947.22 3.956.939 1.671 1.24 3.301 3.822 3.301 8.396 0 7.922-5.244 10.221-8.556 10.221-1.39 0-2.399-.066-2.954-.219-.389-.109-.501-.338-.501-.787zm-6.589 4.412c0 8.49 0 10.055-.117 11.838-.112 1.904-.556 2.789-2.404 3.197-.454.099-1.4.172-2.18.172-.613 0-.949.099-.949.506 0 .369.388.49 1.228.49 2.959 0 6.482-.162 7.659-.162 1.896 0 6.141.162 7.877.162 3.518 0 7.257-.35 10.274-2.394 1.564-1.063 3.792-3.921 3.792-7.662 0-4.134-1.731-7.931-7.359-12.51 4.96-6.258 8.822-11.233 12.112-14.696 3.135-3.24 5.432-3.63 6.258-3.807a8.922 8.922 0 0 1 1.56-.152c.459 0 .673-.176.673-.447 0-.449-.378-.568-1.051-.568h-5.304c-3.134 0-4.529.281-5.992 1.058-2.396 1.305-4.519 3.918-7.643 8.209-2.242 3.077-4.811 6.883-5.536 7.713-.279.338-.621.396-1.004.396l-4.861.12c-.279 0-.443-.12-.443-.448v-.788c0-5.2 0-9.606.271-11.954.172-1.617.508-2.853 2.18-3.062.845-.119 2.073-.229 2.741-.229.449 0 .673-.176.673-.447 0-.408-.401-.568-1.111-.568-3.26 0-7.387.162-8.219.162-1.064 0-4.587-.162-6.813-.162-.733 0-1.124.162-1.124.568 0 .271.224.447.892.447.845 0 1.513.11 2.021.229 1.111.209 1.398 1.445 1.617 3.062.284 2.348.284 6.754.284 11.897v9.83zM283.873 367.939c0 12.517-7.21 20.288-16.358 20.288-6.446 0-13.757-3.588-13.757-17.498 0-11.609 6.425-20.824 17.142-20.824 3.927 0 12.973 1.904 12.973 18.034m-37.821 1.064c0 9.55 6.318 21.893 23.069 21.893 13.912 0 22.574-8.104 22.574-20.891 0-12.788-8.934-22.901-23.129-22.901-16.037 0-22.514 12.016-22.514 21.899M300.415 389.458c.162.949.498 1.445.946 1.445.45 0 .78-.287 1.511-1.732l15.249-31.057 15.197 31.443c.448.897.714 1.346 1.231 1.346.49 0 .84-.558.996-1.732l5.096-34.186c.5-3.514 1.052-5.142 2.727-5.658 1.622-.49 2.737-.547 3.468-.547.501 0 .896-.052.896-.381 0-.46-.677-.627-1.455-.627-1.402 0-9.11.111-11.341.277-1.284.12-1.618.282-1.618.61 0 .287.214.459.605.625.345.11.507.84.282 2.404l-3.348 24.309h-.225l-12.177-24.93c-1.283-2.628-1.564-3.129-2.064-3.129-.512 0-1.065 1.117-1.957 2.801-1.346 2.561-5.746 11.109-6.43 12.672-.501 1.18-3.854 7.772-5.805 11.949h-.224l-2.905-21.773c-.107-1.012-.167-1.742-.167-2.629 0-1.053.732-1.563 1.674-1.793 1.015-.219 1.789-.276 2.35-.276.448 0 .843-.109.843-.392 0-.506-.512-.614-1.347-.614-2.344 0-4.866.167-5.864.167-1.067 0-3.742-.167-5.536-.167-.556 0-1.004.108-1.004.614 0 .283.331.392.897.392.449 0 .837 0 1.677.167 1.559.339 2.008 2.519 2.29 4.417z" style="fill:#fbb900;fill-opacity:1;fill-rule:nonzero;stroke:none;stroke-width:1.00063;stroke-miterlimit:4;stroke-dasharray:none"/><path d="M373.042 364.926c.271 0 .329.167.271.329l-5.034 13.758c-.041.218-.103.49-.27.49-.177 0-.277-.272-.329-.49l-5.137-13.7c-.063-.219 0-.386.208-.386h10.291zm-11.39-2.79c-.297 0-.396-.12-.517-.438l-3.014-7.672c-.553-1.398-.834-2.732-.834-3.4 0-1.002.5-1.731 2.227-1.731h.84c.667 0 .834-.111.834-.449 0-.449-.323-.558-.939-.558-1.783 0-4.183.162-5.924.162-.615 0-3.682-.162-6.593-.162-.729 0-1.063.109-1.063.558 0 .338.229.449.679.449.5 0 1.282.051 1.73.12 2.561.318 3.62 2.222 4.746 5.011l14.008 34.635c.678 1.621 1.012 2.236 1.575 2.236.5 0 .845-.494 1.398-1.773 1.34-3.086 10.278-25.424 13.851-33.914 2.123-5.033 3.75-5.815 4.923-6.086.84-.178 1.669-.229 2.347-.229.438 0 .72-.068.72-.449 0-.449-.5-.558-2.566-.558-2.014 0-6.091 0-10.557.109-1.011.052-1.677.052-1.677.449 0 .338.218.449.781.5.387.098.783.616.512 1.293l-4.476 11.504c-.125.272-.287.392-.563.392h-12.448z" style="fill:#fbb900;fill-opacity:1;fill-rule:nonzero;stroke:none;stroke-width:1.00063;stroke-miterlimit:4;stroke-dasharray:none"/><path d="M171.406 419.592h254.155" style="fill:none;stroke:#000;stroke-width:1.00063;stroke-linecap:round;stroke-linejoin:miter;stroke-miterlimit:4;stroke-dasharray:none;stroke-opacity:1"/><path d="M199.955 487.503c-1.095-.677-1.507 1.228-1.507 1.228-.297.765-.331 1.555.107 1.871.829-.515 1.817-.503 2.109-.983.31-.529-.139-1.764-.709-2.116m201.786-46.07c-.688.876-1.471 1.815-2.273 2.788-3.588 4.357-11.588 15.092-11.588 15.092 0 34.867-6.237 41.365-12.663 46.841-5.664 4.822-14.696 7.289-24.392 8.784-2.634.416-5.528.593-8.86.593-3.223 0-6.492-.167-9.638-.342-2.602-.148-48.074-2.057-62.661.405-6.36 1.074-15.176-.164-20.42-.795-2.404-.277-15.531-2.375-17.075.107-.297.469-.276 1.502-.148 2.67.177 1.828.923 4.049-.501 6.042-1.966 2.737-4.112 5.682-5.293 5.682-.373 0-3.619-2.66-4.412-3.464-1.322-1.335-1.739-3.522-1.682-6.069.034-1.564-.068-1.259-.185-1.377-.198-.198-8.556-.198-10.676-.354-.005.427-.076 2.597-1.497 4.663-.918 1.323-1.682 5.747-1.682 5.747s-3.027-5.244-4.047-6.655c-1.14-1.543-2.313-3.15-3.001-4.999-.263-.705-.315-1.554-.375-2.376-.026-.594-.117-1.838-.357-2.034-1.606-1.172-2.498-2.782-2.66-4.809-.031-.586.133-1.376.305-2.294.117-.584.311-1.502.311-1.94a9.944 9.944 0 0 0-.482-.326c-1.429-.908-3.385-2.188-3.262-4.441.188-3.408.973-4.732 2.052-6.582.302-.521.613-1.041.954-1.682.48-.913.683-2.223.892-3.481.284-1.773-1.372-3.713-.24-4.829 1.484-1.45 5.32-1.531 6.981-1.531.448 0 2.193.047 2.61.047.647 0 1.15-.037 1.575-.123 3.2-.626 6.415-.876 9.507-1.138 4.266-.33 8.292-.656 12.347-1.848 7.476-2.198 14.85-5.276 22.529-9.372.417-.224.814-.422 1.182-.621 2.847-1.468 3.455-1.27 4.79-5.179 1.335-3.924-1.126-34.527-1.667-37.689-.86-5.11-2.487-8.198-5.142-9.168-3.551-1.282-5.009-4.059-6.415-6.754-.449-.875-.383-1.924-.928-2.799 0 0-1.161-1.272-.77-1.596.383-.333 3.99.532 3.99.532 1.228-.073-.097-.721 1.132-.721 3.038 0 6.707.022 10.441 2.164 1.564 0 .516-1.992 1.963-1.725 4.459.809 4.876 4.245 5.416 7.528.913 5.517.78 6.48 1.395 6.99.613.515 2.595-.326 3.124.275.404.449-.039 4.475.19 8.112.326 5.184 1.747 11.268 3.296 16.271l.081.261c.336 1.105.842 2.451 1.382 3.862 1.458 3.823 3.231 8.464 3.022 12.19 1.593-.271 1.854-.368 2.762-1.628.133-.197.381-.594.646-1.008 1.758-2.879 2.66-3.685 3.813-3.685.117 0 .245.011.347.042 1.896.49 2.918 2.099 3.99 4.214 1.069 2.065 2.164 4.214 3.948 4.607.068.013.144.034.245.034 1.447 0 3.99-1.293 5.437-3.536 3.2-4.957 5.927-1.492 6.183-1.085.37.572 2.934 4.807 3.563 5.789.773 1.182 1.252 1.293 1.43 1.293h.042c1.564-.239 8.355-8.395 10.774-7.845 2.348.262 4.956 9.202 6.395 9.202.068 0 .141-.01.219-.031.34-.285 1.147-1.502 1.695-2.313 1.805-2.746 2.201-4.571 3.625-4.571.459 0 1.252.393 1.727 1.585.131.325.677 1.667.756 1.815.089-.107 1.292-4.169 4.235-.566-.03.044-.052.107-.073.162a.399.399 0 0 0-.032-.075c.011.021.022.042.032.075-.011.02-.021.031-.032.058.011-.026.022-.038.032-.058.396.918 5.841-4.443 8.438-6.553 2.357-2.169 4.351-4.081 4.517-4.224 5.601-4.989 12.563-11.206 13.92-17.938.776-3.893.588-8.381-.506-12.647-.24-.892-.471-1.416-.689-1.555-.219-.164-.83-.187-1.596-.197-.349-.012-.73-.026-1.168-.068-1.918-.108-3.223-2.155-4.391-3.958-.521-.832-1.205-1.523-1.564-2.136-.355-.615.218-1.641.562-1.85.354-.218 3.807-1.029 4.84-1.029.303 0 .594.021.824.097.74-.275 1.627-.429 2.649-.429 3.025 0 6.774 1.261 7.844 3.344 1.816 3.551 3.046 7.408 4.245 11.15.125.417.266.85.407 1.267.25.822.627 1.739.991 2.702 1.309 3.429 3.536 7.093 2.545 10.467-.517 1.779-2.316 3.507-3.463 5.03-1.012 1.356-4.83 6.338-5.987 8.076 3.567-3.455 13.466-8.566 15.979-14.553.887-2.099-.031-10.889-.183-13.244a92.958 92.958 0 0 1-.168-3.393c-.108-3.6-1.157-4.245-4.771-4.613-3.129-.321-4.572-4.952-5.34-7.446-.042-.14-.083-.27-.125-.395l-.365-1.158 1.215-.209c.465-.072.986-.171 1.545-.281 2.258-.418 6.064-1.832 8.718-1.832 3.166 0 5.388.756 6.795 2.301 1.821 1.972 2.515 5.527 3.141 8.656.229 1.168 1.533 5.362 2.002 6.875 2.977 9.577 5.922 13.238.905 18.735" style="fill:#000;fill-opacity:1;fill-rule:nonzero;stroke:none;stroke-width:1.00063;stroke-miterlimit:4;stroke-dasharray:none"/><path d="M387.029 413.708c-.349-.656-1.57-.789-1.998-.937-.886-.376-1.711-.911-1.668-1.524 0-.239-.146-3.166 0-3.416.177-.328 1.366-.746 1.627-.338.188.26-.01 2.322.219 3.734.042.194.178 1.035.584 1.223.146.035 1.555.676 1.236 1.258M285.348 464.651c1.075.107 2.584.373 3.098.01.524-.383 1.259-1.718 1.223-2.537-.049-.811-2.714-5.098-2.889-5.296-.172-.199-.438-.814-.918-.178-.482.657-1.319 7.236-1.319 7.236s-.139.657.805.765" style="fill:#c8c3c2;fill-opacity:1;fill-rule:nonzero;stroke:none;stroke-width:1.00063;stroke-miterlimit:4;stroke-dasharray:none"/><path d="M400.6 439.243c-1.455 2.109-5.101 5.84-6.556 7.637-1.94 2.375-10.827 12.807-10.827 12.807s-2.555 15.771-3.651 19.348c-.687 2.295-2.617 18.911-15.478 27.936.694 1.163 9.021-5.375 12.037-10.462 5.465-9.233 7.796-33.342 7.796-33.342s3.468 36.823-16.017 44.615c-13.976 5.843-20.954 4.902-20.954 4.902s-9.679-5.81-3.839-16.853c1.118-2.154 13.853-21.677 14.666-23.21 7.244-13.581 30.27-29.393 34.463-33.693.219-.24 4.188-2.824 4.453-5.703.053-.534-5.38 3.119-5.309 2.441.741-6.81-.064-19.884-.167-21.372-.125-1.731-.219-1.981-1.272-2.368-1.043-.368-2.138.626-2.775-1.158-.709-1.982-.447-3.447 1.377-3.447 1.825 0 4.599-.966 6.363 5.744 1.763 6.778 5.602 18.825 6.759 23.258.276 1.05-.564 2.199-1.069 2.92M205.879 522.488s1.533-4.507 1.5-5.768c-.021-1.281-.415-1.376-.415-1.376l-4.54-1.982s.988 1.147 1.504 2.584c.53 1.451 1.982 5.175 1.951 6.542" style="fill:#c8c3c2;fill-opacity:1;fill-rule:nonzero;stroke:none;stroke-width:1.00063;stroke-miterlimit:4;stroke-dasharray:none"/><path d="M260.091 409.067c-.096-.066-.219-.078-.255-.021l-.29.393c-.031.056.011.163.112.243l.229.149c.096.07.224.08.258.025l.287-.394c.049-.055-.01-.156-.107-.242z" style="fill:#c9cacc;fill-opacity:1;fill-rule:nonzero;stroke:none;stroke-width:1.00063;stroke-miterlimit:4;stroke-dasharray:none"/><path d="M364.995 416.315s-.563.178-.876-.228c-.428-.582-.626-2.782-.626-2.782s.532-.667 1.502-.273c.97.364 2.941 1.842 2.316 2.322-.637.483-2.316.961-2.316.961M363.253 417.37s-.876.01-1.273-.428c-.425-.48-1.193-1.773-1.146-2.305.062-.519.824-1.386 1.21-.855.386.533 2.179 3.639 1.209 3.588M196.59 499.322c-1.024-1.606 1.922-3.012 2.665-2.146.561 2.188-1.666 2.98-2.665 2.146" style="fill:#c8c3c2;fill-opacity:1;fill-rule:nonzero;stroke:none;stroke-width:1.00063;stroke-miterlimit:4;stroke-dasharray:none"/><path d="M200.476 498.498c-.016.01-.021.021-.021.021s.005-.011.021-.021" style="fill:#c9cacc;fill-opacity:1;fill-rule:nonzero;stroke:none;stroke-width:1.00063;stroke-miterlimit:4;stroke-dasharray:none"/><path d="M220.31 496.485c-1.489 1.763-2.584 4.703-1.606 5.254.975.535 1.917-.208 2.514-.551.887-.489 1.335-.163 1.272 1.02-.044.92-.146 1.785-.248 2.619-.297 2.516-1.622 5.279-2.657 6.385-1.71 1.839-6.624 3.985-9.695 1.91-.886-.605-1.554-1.588-2.125-2.751-.208-.423.396-1.004.204-1.486-1.127-2.739-2.84-5.912-4.843-7.956-.086-.107 6.809-.679 16.553-7.833.866-.617-.78-4.097-1.345-3.933-.297.042.988 2.931.021 3.471-4.464 2.506-7.111 2.842-10.472 4.04-.806.281-3.15-1.197-3.747-.637-.839 1.095-3.397 2.338-3.658 2.462.096-.052.417-.295.529-1.367.318-2.761-4.824 0-.462-4.423 1.229-1.222 2.404-2.168 3.312-1.772 1.4.021.764-.177.907-.501l.743-1.763c.133-.331.3-.31.363.042l.341 1.859c.06.352.412.634.774.624 0 0 6.597-.149 7.933-.282 1.34-.145 1.418-.626 1.418-.626.065-.357.584-1.116-.532-2.013-.813-.648-2.761.709-4.321-.556-1.564-1.26-4.693-1.831-4.693-1.831-.371-.065-.764.132-.91.475l-.795 1.783c-.138.337-.276.327-.31-.046l-.196-2.33c-.034-.355-.141-.647-.229-.667-.102 0-.3.262-.454.587l-.06.112c-.154.336-.48.362-.709.107l-.401-.469c-.235-.285-.582-.243-.764.067l-.159.242c-.183.324-.482.324-.673 0l-.248-.385c-.185-.316-.443-.283-.55.051l-.089.253c-.107.343-.326.352-.464.038-.107-.24-.263-.291-.375-.144a26.638 26.638 0 0 0-.459-.459c-.198-.188-.646-.594-.667-.972-.016-.373.454-.582 2.73-1.051 2.279-.461 12.858 3.859 16.196 3.149 3.862-.8 5.351 2.366 5.614 6.477 0 .108-.034.332-.081.658-.68 1.094-1.658 2.211-2.427 3.119" style="fill:#c8c3c2;fill-opacity:1;fill-rule:nonzero;stroke:none;stroke-width:1.00063;stroke-miterlimit:4;stroke-dasharray:none"/><path d="M209.916 508.887s1.325 2.308 2.954 2.767c1.205.342 2.457-.347 4.318-1.599 1.875-1.244 2.853-3.191 4.686-2.681.634.178-1.411-2.121-3.205-1.463-.433.162-3.124 4.637-5.742 4.57 0 0-1.687-.324-3.011-1.594" style="fill:#000;fill-opacity:1;fill-rule:nonzero;stroke:none;stroke-width:1.00063;stroke-miterlimit:4;stroke-dasharray:none"/><path d="M215.183 506.279c-.396 0-.72.407-.72.907 0 .48.324.897.72.897.402 0 .918-.417.918-.928 0-.48-.517-.876-.918-.876m-.47 4.759c-2.196.623-3.471-.876-3.471-.876.571 1.467 3.187.54 4.323.071.631-.275 1.507-1.712 2.133-2.902-.707.701-1.671 1.452-2.506 1.533-1.661.148-1.815-2.051-1.815-2.051l-.84-1.047s.107-.266 1.385-.266c1.275 0 5.734.046 6.329.592.588.528-3.136 4.243-5.538 4.946" style="fill:#000;fill-opacity:1;fill-rule:nonzero;stroke:none;stroke-width:1.00063;stroke-miterlimit:4;stroke-dasharray:none"/><path d="M248.915 411.143s-1.692-3.4-1.731-3.755c-.037-.35.039-.579.237-.579.195 0 .8-.172 1.233.129.425.309 2.034 3.67 2.242 4.141.053.129-1.267.875-1.981.064" style="fill:#c9cacc;fill-opacity:1;fill-rule:nonzero;stroke:none;stroke-width:1.00063;stroke-miterlimit:4;stroke-dasharray:none"/><path d="M380.343 436.114c.855 3.011-1.956 3.337-2.936-.561-.323-1.345-4.219-15.492-4.632-19.195-.037-.184.105-.367.282-.148.052-1.281 6.916 18.558 7.286 19.904M254.354 513.007c-6.835-1.304-16.41-1.881-21.617-1.169-4.118.567-4.3 3.096-3.557 5.341-3.813-3.765-5.849-2.292-5.935-1.828-.144.597 1.411 0 2.42 1.003 1.02.989 1.619 4.551.819 6.27-.809 1.709.067 1.399.067 1.399s2.125-.213 3.056-2.755c.597 2.542-2.923 5.706-4.065 4.978-1.137-.723-3.439-2.61-3.119-5.372.412-3.415.162-5.102-.944-5.064-7.468.336-15.831 1.335-20.475-3.502 0 0 5.632 3.711 9.958 3.307 4.315-.396 13.173-1.272 13.708-11.659 0 0-.097-2.339.102-5.053.097-1.437-1.27-.517-1.254-1.153.052-2.879 2.099-2.44 1.932-4.923-.709-10.211-5.419-10.002-5.419-10.002s5.688-.795 8.506 8.746c-.011-5.473-.587-6.85-2.798-8.987 4.347-.272 7.76 3.833 7.862 4.455.644-1.039 1.877-4.396 5.126-5.768-1.604 2.648-1.212 5.855-.881 8.699.975-6.375 2.6-8.753 5.885-10.141-1.325 1.335-4.01 4.224-3.205 9.397.623-4.422 5.794-8.357 5.794-8.357s-1.646 2.66-2.083 7.342c2.217-4.763 4.597-5.157 4.597-5.157s-3.674 3.866-4.302 8.887c-.076.091 2.579-3.414 4.74-3.414-1.661 1.992-4.292 4.827-4.582 8.407 1.656-2.14 2.853-3.537 4.764-3.755-1.611 1.857-2.936 4.816-3.439 8.394 1.844-2.313 1.528-3.074 4.994-4.027-1.34 1.309-2.263 4.913-1.596 6.65.597-1.213 2.899-2.451 5.643-2.809-.886.566-2.31 3.982-2.104 5.34 1.246-.615 3.932-1.523 6.057-1.231-1.009.595-1.721 3.601-1.411 4.305.566-.363 4.621-.301 5.479 0-1.316.819-2.456 2.047-2.151 1.935.978-.347 2.579.49 4.662.821 2.217.352 2.605.373 3.995.352-1.349.653-9.878 1.422-15.229.098M323.221 470.376s-4.381.295-4.714-1.05c-.323-1.348 1.997-8.472 2.347-9.326.546-1.345 2.023 1.774 2.023 1.774.469.852 2.264 5.036 2.264 5.605.009.714.057 3.009-1.92 2.997" style="fill:#c8c3c2;fill-opacity:1;fill-rule:nonzero;stroke:none;stroke-width:1.00063;stroke-miterlimit:4;stroke-dasharray:none"/><path d="M344.27 461.825c-.282-.123-.553-.178-.762-.25.208-.076.417-.137.605-.146a.979.979 0 0 0 .157.396" style="fill:#c9cacc;fill-opacity:1;fill-rule:nonzero;stroke:none;stroke-width:1.00063;stroke-miterlimit:4;stroke-dasharray:none"/><path d="M306.1 469.7s-4.368.271-4.709-1.064c-.341-1.346 1.531-7.583 1.826-8.449.437-1.301 1.372.667 1.372.667.472.845 3.958 5.278 3.97 5.844-.002.693-.467 3.011-2.459 3.002" style="fill:#c8c3c2;fill-opacity:1;fill-rule:nonzero;stroke:none;stroke-width:1.00063;stroke-miterlimit:4;stroke-dasharray:none"/><path d="M336.755 512.861c-1.357-.076-12.773-1.357-20.387-1.377-6.07-.024-12.481.27-15.906.148-.269.036-.698 0-1.095-.055-5.095.218-21.408.482-21.408.482-1.218.245-17.763-4.039-20.162-22.441-1.479-11.338-.756-14.965 1.807-20.347 1.525-3.205 4.592-9.116 4.485-13.734-.042-1.935-3.476 8.088-3.424 6.952.498-11.648-1.528-37.878-2.686-43.449-1.382-6.639-2.717-3.279-4.271-6.051-.243-.438-3.638-6.607-3.562-6.686.073-.052 1.703.198 3.432.36 2.011.067 3.659 5.531 5.033 5.531.224 0-1.512-4.4-1.244-4.326 1.424.349 3.747.953 3.593-.188.516-.162.923.104 1.238.485.417.5 2.303 8.986 3.46 13.396.261.722 2.151.305 2.665.106 1.03 2.079-.613 9.01 2.354 18.64 2.944 9.463 6.04 17.672 4.652 20.11-.149.279-5.163-6.386-5.289-6.124-.313.762 16.353 28.757 13.122 43.256-.063.519-.292 1.105-.292 1.523-.01.112 1.927-.699 4.336-1.335 3.124-.962 5.87-1.468 6.809-5.08 1.126-6.968 4.357-16.843 10.926-17.439-2.986 2.733-6.803 16.624-6.329 22.332 1.843-9.312 7.515-22.804 12.197-22.194-.959 1.5-4.864 9.993-4.864 15.333 1.687-4.432 5.718-14.146 8.759-14.215 7.953-.162 9.978 3.46 15.855 4.785 13.168 2.976 16.621-2.078 18.632-3.119-1.605 1.554-7.102 11.15-10.753 18.637-2.911 5.93 2.003 11.851 10.337 15.531 1.649.73-9.418.628-12.02.553" style="fill:#c8c3c2;fill-opacity:1;fill-rule:nonzero;stroke:none;stroke-width:1.00063;stroke-miterlimit:4;stroke-dasharray:none"/><path d="M342.43 461.679s-.439.385-.809.447c-.12.021-.198.032-.271.032-.166 0-.25-.032-.25-.032l-.177-.085.052.183c.021.123.188.352.521.352.125 0 .256-.032.397-.086.516-.185.677-.704.677-.714l.099-.305zM338.648 462.397a.537.537 0 0 0 .532.353c.12 0 .25-.026.396-.071.083-.042.229-.127.229-.127l.104-.058-.354-.274-.041.021s-.142.05-.215.06c-.11.021-.203.031-.276.031-.171 0-.25-.031-.25-.031l-.177-.081z" style="fill:#000;fill-opacity:1;fill-rule:nonzero;stroke:none;stroke-width:1.00063;stroke-miterlimit:4;stroke-dasharray:none"/><path d="M339.545 462.596c.073-.032.208-.107.208-.107l-.208-.164s-.156.063-.229.072c-.407.076-.584-.021-.584-.021s.129.459.813.22" style="fill:#000;fill-opacity:1;fill-rule:nonzero;stroke:none;stroke-width:1.00063;stroke-miterlimit:4;stroke-dasharray:none"/><path d="M346.757 411.915c-4.667 0-5.273 7.582-5.377 8.939-1.126.081-2.347.854-3.181 1.512-.042.03-.125.086-.219.133.021-.561.047-1.143.057-1.687.047-.876.219-3.141.287-3.745l.016-.064c.099-.855.34-2.857-1.627-3.952a4.15 4.15 0 0 0-1.924-.48c-.596 0-1.126.123-1.48.199-.084.01-.159.031-.22.042l-.344.031c-.5.07-1.188.156-1.71.187h-.146c-.98 0-3.75-.177-4.193-.218-.104-.01-.198-.022-.301-.022-1.565 0-2.838 1.25-2.859 1.271-.788.774-.854 2.002-.157 2.985l.178.262.261.198c.157.102.646.438 1.345.54.573.367 1.482.896 2.853 1.66-1.205 2.345-6.514 10.473-1.883 13.036 1.705.931 4.344 1.87 6.821 2.451.021.161.064.316.105.459.05.188.103.819.03 1.325-.72-.394-1.45-.602-2.055-.602-.208 0-.395.021-.584.063-1.575.331-3.609 2.66-3.848 2.97-.355.48-1.69 2.921-2.932 5.238-3.369.158-3.682.25-3.912.322-.344.116-.731.24-2.92 2.068-.72.623-1.085 1.453-.97 2.274a2.11 2.11 0 0 0 1.137 1.585c.052.021.083.043.145.07.282.378.752.764 1.543.928l.22.055h.267c.537 0 .995-.188 1.381-.427.031.261.094.523.229.764.407.79 1.235 1.27 2.222 1.27.543 0 1.127-.144 1.795-.438l.093-.053.104-.064c.219-.133.25-.133.25-.133a15.867 15.867 0 0 0 1.711-.512c.562-.241.971-.552 2.029-2.377l1.674-1.687c.768 1.784 1.689 2.584 2.029 2.878.481.415 1.069.593 1.685.78.12.042.292.096.429.133.24.219.531.421.844.597.016.091.052.188.083.263-.25.351-.552.81-.799 1.197-.687 1.147-.599 2.177-.546 2.819l.009.208c.1 1.772 2.332 3.283 2.353 3.292.25.167.526.301.766.396.45.524 1.231 1.398 1.784 1.892.449.428 1.054.713 1.627.922.479.995 1.492 1.475 3.045 1.475.49 0 2.107-.118 2.639-.196 1.148-.188 1.924-.91 2.322-1.784.996-.336 1.626-1.233 1.746-2.44l.349-.381c.256-.25.803-.907.987-1.896.615-1.168.51-2.57.437-3.193-.031-1.898-.521-3.014-1.048-3.648-.067-.229-.12-.411-.198-.565 1.82-1.126 2.383-3.648 2.551-4.642.155-.582.865-3.056 1.229-4.663.511-2.297-.282-4.464-.365-4.704l-.105-.25-.156-.219a82.598 82.598 0 0 0-1.251-1.619c-.615-.728-1.278-1.051-1.846-1.176.193-.772.391-1.606.521-2.381 1.46-1.82 2.253-4.336 2.253-5.233 0-.582-.183-1.212-.364-1.666h.01c.156-.449.176-1.015.156-2.232.625-.688 1.157-1.661 1.72-2.756.063-.133.104-.229.136-.271 2.764-6.042-4.182-6.511-4.61-6.362-.897-.845-3.847-.951-4.333-.951" style="fill:#000;fill-opacity:1;fill-rule:nonzero;stroke:none;stroke-width:1.00063;stroke-miterlimit:4;stroke-dasharray:none"/><path d="M346.305 462.993c-.412.076-1.91.188-2.337.188-2.06 0-.986-1.043-.986-1.043s-1.643-.22-2.321-.843c-.688-.63-1.94-2.088-1.94-2.088s-.553-.198-.887-.417c-.333-.208-1.288-.938-1.43-1.739-.103-.534-.175-1.191.25-1.901.418-.712 1.138-1.656 1.138-1.656s.177-.336 0-.732c-.172-.408-.459-1.421-.459-1.421s-.996-.486-1.288-.821c-.297-.342-1.686-.545-2.039-.834-.334-.292-1.231-1.082-1.846-3.192-.721-.625-1.096-1.426-1.096-1.426l-3.686 3.71s-.485 1.492-1.163 1.742c-.24.085-1.867.625-2.253.79-1.366.514-1.607.117-1.335-.267.282-.379 1.116-.773 1.335-.886.198-.117.292-1.577-3.161-1.024-.156.042-1.095.596-1.669.842-1.491.479-1.23-.944-.928-1.208.323-.25 1.819-1.794 2.169-1.906.329-.108 4.538-.284 4.538-.284s2.894-5.455 3.296-5.984c.417-.545 2.023-2.078 2.67-2.211.657-.148 2.598.561 3.546 2.324l.386-7.124s-6.614-1.481-7.829-2.485c-2.487-1.97 1.915-9.479 3.396-11.471.47-.657.142-.801.142-.801s-4.637-2.547-4.689-2.756c-.438.123-.804-.144-.804-.144s-.218-.315-.072-.469c.156-.149.928-.733 1.533-.678.575.068 3.849.25 4.621.219.772-.034 1.731-.162 2.232-.219.49-.055 1.533-.459 2.388 0 .834.469.699 1.27.61 2.06-.099.795-.314 3.883-.314 3.883s-.077 3.578-.155 4.016c.902-.117 2.373-.459 2.644-.292.465.261.939-.529.939-.529s1.507-1.192 2.201-1.069c.673.128.803.183 1.142 1.192.255.362.476.271.476-.667 0-.962-.476-9.651 3.66-9.479 2.545.102 4.37 1.325 4.37 1.325s.709-.983 1.7-.637c2.618.945 1.189 3.308.959 3.67-.197.363-1.396 2.976-2.148 3.027.037 1.106-.146 2.762-.338 3.21.134.24.573 1.213.573 1.672 0 .459-.746 2.905-2.144 4.378-.313 2.296-1.461 5.757-1.461 5.757s1.524-.545 1.983-.602c.469-.066.846.154 1.146.515.319.372 1.185 1.535 1.185 1.535s.683 1.778.276 3.562c-.396 1.763-1.241 4.678-1.241 4.678s-.392 2.832-1.794 3.475c-1.396.637-1.68.584-1.68.584s-.448.598-.114.73c.339.113.866.515 1.012.7.162.177.401 1.171.401 1.171s.83.396.83 2.761c0 0 .266 1.639-.36 2.42 0 .699-.496 1.158-.496 1.158l-.898.962s.122 1.218-.427 1.356c-.563.133-.97.276-.97.276s-.021 1.273-.989 1.417" style="fill:#c8c3c2;fill-opacity:1;fill-rule:nonzero;stroke:none;stroke-width:1.00063;stroke-miterlimit:4;stroke-dasharray:none"/><path d="M338.852 458.654c.448.021.776-.72.796-.887.022-.144-.082-.144-.312-.098-.219.035-.417.515-.881.473-.459-.023-.471-.354-.631-.321-.178.022.569.812 1.028.833M342.346 459.864c.489-.167.634-.657.634-.657s-.459.386-.859.459c-.407.085-.584-.01-.584-.01s.136.458.809.208M347.023 456.087c-.063.155-.136.241-.25.241l-.084-.01-.05-.042c-.189-.25-.397-.355-.659-.355-.302 0-.552.189-.552.189s-.052-.668.677-.668c.554 0 .888.493.898.514l.052.057zM343.169 445.458c.208.23.776-.314.949-.176.161.146-1.205 1.711-.772 2.037.511.342 1.101-.876 1.372-.667.287.228.182.342.104.54a37.754 37.754 0 0 1-.636 1.168c-.032.052-.668 1.03-.25 1.239.427.148.877-.571.964-.694.032-.031.84-1.463 1.174-1.309.322.197-.605 2.339-.605 2.339-.057.198-.448.753-.255.907.198.156.401.112.954-.623.053-.065 1.533-2.757 1.721-2.66 0 0 .031.54-.198.955.291-.229.866-.404.834-.801-.009-.137-.052-1.293-.271-1.574-.647-.79-3.697-1.815-4.647-1.661-.087.095-.688.686-.438.98m6.045-11.745-.433 1.952-.203.699-3.546 6.634-.13.25c-.125.112-.224.25-.506.523-.083.069-.031.176.079.166 1.235-.154 3.394.438 3.905.636.145-.177 3.578-4.214 3.838-4.047.266.175-3.463 5.098-3.493 5.111 0 .03.353 2.033.27 2.273-.167.48-1.168 1.217-1.575 1.217l-.063-.015c-.073.143-.146.256-.162.287l-.056.096c-.272.48-.481.8-.627 1.033.688-.233 1.377-.451 1.429-.472l.375-.021.407.555-2.901.973c-.254.081-.541.634-.552 1.095-.021.321 2.003 2.311 1.617 2.427-.782.275-2.634-1.729-2.681-2.314-.042-.386.178-1.241.511-1.575-.115-.167-.203-.344-.203-.553-3.599-.24-4.887-1.531-5.043-2.198 0 0 2.879 1.132 3.896 1.301-.667-.634.391-1.846.391-1.846-.13.042-.469.27-.828.01-.674-.535.02-1.64.15-1.89-.271-.005-.469-.061-.562-.166-.355-.406.322-1.261.802-1.795.229-.25-.819-.185-3.849 2.078.093-2.201 3.729-3.515 4.892-3.525.032-.053 4.694-8.609 4.851-8.899M334.705 434.027l-.5-.305-.762-.47c.13-.309 3.12-7.561 6.155-9.843l.082.279c-4.057 5.489-4.975 10.339-4.975 10.339M345.896 430.304c-1.819-.262-3.102-6.269-3.102-6.269.438.566.459-.417.459-.417s1.465 5.111 2.727 5.634c1.29.528 3.198.298 3.198.298s-1.446 1.037-3.282.754M331.889 439.785c.209.132-.5 5.831-.5 5.831l-.261-.283-.448.283c-.241-.491 1-5.964 1.209-5.831M333.225 444.364l.437-4.653.803.45-.219 3.423s.406-.182.548-.064c.142.125-.642.824-.685 1.679-.03.624.679 1.439.554 1.509-.125.076-.365-.165-.365-.165.042.567.083 1.19.125 1.585.052.557.793 1.683.793 1.683-1.659-.587-1.961-2.472-1.961-2.472l-.105-1.473c0-.023-.145-.472-.145-.783 0-.323.208-.719.208-.719zM351.868 421.866s-.042-5.656-1.246-7.084h.667c.24.219.72 2.037.887 2.726.181.759.151 3.856.151 3.856zM331.242 429.625c-.215-1.191 4.688-5.747 4.688-5.747l1.345.625s-4.646 3.402-6.033 5.122" style="fill:#000;fill-opacity:1;fill-rule:nonzero;stroke:none;stroke-width:1.00063;stroke-miterlimit:4;stroke-dasharray:none"/><path d="M344.65 460.928c.068-.076.041-.48-.021-.774 0-.016-.141-.582.62-.968.501-.24.793-.657.985-.949.048-.066.09-.135.11-.177.136-.154.177-.292.073-.657a.884.884 0 0 0-.183-.336c-.068-.067-.151-.174-.099-.31l.011-.043c.042-.164.176-.566.542-.719.073-.056.261-.311.052-.932l-.063-.174c-.23-.667-.031-2.266.354-2.16.396.103.324 1.493.428 1.657.229.304.387 1.15.303 1.609-.021.164-.082.281-.188.336-.354.229-.469.415-.469.469 0 .015.052.091.094.144.082.091.167.219.24.375.125.302.041.74-.084 1.024-.114.25-.813 1.136-1.22 1.28-.354.102-.563.305-.563.502-.006.092.01.229.021.363.052.316.073.603-.057.78-1.184 1.64-2.92 1.441-2.92 1.441l-.757-.82c0 .001 1.347.679 2.791-.961M335.264 450.215c.218-.143 1.377-.305 3.457-1.63.313.525-1.877 1.743-2.899 2.079-.605 0-.647-.133-.668-.188-.021-.063-.021-.154.11-.261M328.984 418.09c-1.825 2.503-5.798 2.605-7.125 1.335a2.253 2.253 0 0 1-.197.177c-.558.436-2.164 1.398-2.941 1.836-1.215 1.283-1.727 1.596-1.987 1.73-1.002.603-2.916 1.281-4.548 1.672-.313 3.471-.579 4.282-.767 4.639.017.112.392 3.184.329 5.111 1.033-.188 2.398-.404 3.505-.404.615 0 1.104.067 1.513.216 1.063.279 2.82.887 3.541 2.052l.166.25.073.294c.067.25.537 2.527-.819 4.672-.928 1.458-3.525 4.194-4.98 5.581.067.801.108 1.607.108 1.62.059.654-.119 1.335-.886 2.125-.229.24-1.971 2.222-2.472 2.524-.47.279-1.241.493-1.867.493-.23 0-.433-.034-.648-.096-1.699-.374-1.537-2.986-1.468-3.206-.22.129-.45.241-.689.348-.589.646-1.445 1.02-2.296 1.197-.437.315-1.081.642-1.91.642-.058 0-.123 0-.187-.011-1.099-.065-1.127-.183-1.662-.61-.821-.175-1.564-.657-2.13-1.357-.469-.265-1.051-.748-1.504-1.544-.503-.403-1.043-1.071-1.481-2.242l-.164-.427c-.391-1.02-.827-2.167-.514-3.359.018-.016.023-.07.034-.102-.952-.261-2.292-.811-3.035-2.264a24.736 24.736 0 0 1-.959-2.287c-.412-.027-5.192-.613-5.09-2.869a2.386 2.386 0 0 1 1.02-1.863c-.449-.763-.48-1.567-.081-2.244.344-.597.819-1.024 1.354-1.233.18-.571.448-1.163.853-1.676a6.92 6.92 0 0 1 1.416-1.356 9.906 9.906 0 0 1-2.751-1.376c-1.325-.897-3.293-2.87-1.585-5.925.271-.469 1.111-1.398 5.304-5.515-.146-.172-3.445-6.235 1.948-6.485 1.229-2.07 5.432.905 5.575.986.315-.07 5.961-.091 4.459 4.255.391.062 2.338.603 2.441.613.631-.277 2.018-.842 2.843-.924.369-.03.974-.055 1.423-.055.574 0 1.971.024 2.644.157.177.031.375.086.594.123.589-.948 1.507-2.125 2.696-2.793 1.419-.813 4.668-2.264 5.752-2.748.214-.219 2.498-2.112 4-2.112 4.788 0 3.307 4.357 3.385 4.6.392 1.128 1.101 6.029-.233 7.835" style="fill:#000;fill-opacity:1;fill-rule:nonzero;stroke:none;stroke-width:1.00063;stroke-miterlimit:4;stroke-dasharray:none"/><path d="M312.232 441.11c-.192.24-2.048.72-2.81.8-.261.264-1.115.524-1.115.524s1.168.876 1.136 1.479c-.808 4.144-2.211 4.463-2.211 4.463s-.438.942-1.621 1.085c-.202.888-1.934 1.036-1.934 1.036s-.433.574-1.126.54c-.501-.037-.662-.241-.918-.55 0 0-1.037.167-1.731-1.026 0 0-.821-.174-1.325-1.371 0 0-.607-.152-1.158-1.589-.373-.98-.816-1.947-.631-2.68.203-.73.8-1.489.8-1.489s-.561-.459-1.179-.652c-.625-.185-2.136-.3-2.756-1.534-.625-1.228-1.397-3.587-1.397-3.587s-.375.219-.829.263c-.402.042-2.227-.034-2.634-.333-.224-.149-1.02-.25-.999-.553.049-.886 1.452-.573 1.452-.573l-.318-1.878s-.589-.573-.433-.845c.159-.274.433-.375.618-.315.24.042.621.493.621.493s0-1.833.816-2.868c.811-1.033 1.752-1.4 1.752-1.4s.613-.245 1.147 0c.545.208 1.554 1.015 1.64 1.325.076.305.342 1.346.342 1.346s.433 1.65.631 1.692c.185.034.383-.229.383-.229v-3.349s-1.325-2.492-1.325-3.139c-.699-.086-3.716.24-6.323-1.64-2.136-1.458-1.387-2.804-1.004-3.493.38-.698 6.905-6.98 7.098-7.209-.086-.219.112-.499-.193-.499h-.704s-.994.386-1.163 0c-.417-.948.634-.862.678-1.024.026-.176-.85.127-.978-.373-.177-.615.016-1.191.433-1.697.261-.348.938-.184 1.131-.253.209-.083.274-.404.79-.511 1.143-.449 3.669 1.606 4 1.554 1.228-.616 2.66.511 2.746 1.202.098.699-.01 1.041-.263 1.574-.25.518-1.041 1.361-1.041 1.361s.978.305 1.187.402c0 0 .138.102.468-.056.323-.164 1.769-.428 2.198-.406.431.013 2.043.793 2.293.656.256-.138 1.852-.805 2.446-.852.589-.066 2.869-.056 3.505.067.626.117 1.909.504 1.909.504s1.06-2.473 2.67-3.393c1.617-.908 5.94-2.803 5.94-2.803s1.737-1.794 2.884-1.794c1.137 0 1.429.976 1.429 1.205-.01.24-.042 1.476.187 2.111.23.668.439 2.629.491 3.547.068.918.386 3.476-2.077 3.849-.384.065-1.229.208-1.38.208-.361-.032-.184-.876-.297-.557-.142.392-.554.482-.721.423-.447-.203-.646-.587-.636-.796.031-.375.198-1.389.198-1.389s-2.001 1.598-2.55 2.047c-.547.449-2.926 1.815-2.926 1.815s-1.288 1.356-1.679 1.523c-.22.261-3.598 1.805-5.425 1.772-.03 1.389-.103 4.63-.896 6.208.01.435.5 4.984.208 6.183-.125.524.679.927 1.085.927.407 0 4.297-.886 5.351-.435 0 0 2.065.521 2.524 1.275 0 0 .417 1.697-.574 3.241-.991 1.555-4.453 5.101-5.351 5.831.114.897.198 2.512.198 2.512s0 .347-.229.566c-.25.25-1.825 2.058-2.044 2.243-.178.167-.897.407-1.19.321-.291-.091-.197-.714-.03-.876.177-.186.657-.582.657-.582l.25-.699s-.324-.167-.386-.321c-.052-.138-.052-.941.063-1.126.114-.163.501-.241.501-.241s-.353-.784-.699-.807c-.303.426-.798 1.716-1.227 1.293a.915.915 0 0 1-.192-.913c.095-.336.668-1.981.96-2.288.303-.291.521-.458.521-.458s2.182-3.39 2.291-4.015" style="fill:#c8c3c2;fill-opacity:1;fill-rule:nonzero;stroke:none;stroke-width:1.00063;stroke-miterlimit:4;stroke-dasharray:none"/><path d="M291.361 424.682c3.124.326 8.823-9.335 9.009-9.543.198-.209.55.239.55.239-.238.416-5.217 10.68-9.559 9.304M290.949 434.914c.556.086 1.463 1.147 1.314 1.202-.138.057-.605-.642-1.442-.642-.269 0-.592.065-.941.128l-.083.021c-.102-.186-.829-.303-.829-.303l.091-.448.714.173a2.467 2.467 0 0 1 1.176-.131M295.664 440.744c-.657-.077.096-8.95.096-8.95l.684.888c-.091.5-.178 3.095-.167 3.464.232-.15 3.254.486 3.927 1.623 0 0-2.115-.383-2.649-.267-.952.155-1.202.561-1.249.853.005.092-.358 2.41-.642 2.389" style="fill:#000;fill-opacity:1;fill-rule:nonzero;stroke:none;stroke-width:1.00063;stroke-miterlimit:4;stroke-dasharray:none"/><path d="m295.257 426.757-.597-.428c4.302-2.273 6.915-10.67 6.936-10.754l.021-.09 1.39-.482c0-.002-3.284 9.751-7.75 11.754M305.422 415.481c.187-.294 1.17.229 1.17.229v.098c0 .037-.108 4.076 3.142 7.172 0 0-3.548-.715-4.312-7.499M323.018 416.212l-.808.555s.381-1.815.36-2.61c-.015-.136-.052-.168-.109-.219-.031-.035-.042-.055-.072-.07-.298-.326-.09-1.597-.09-1.597s.349.726.721 1.138c.031.037.057.07.098.102.172.165.209.292.114 1.015a64.08 64.08 0 0 1-.214 1.686M310.184 440.828c-.157-.021-.45-2.146-.439-2.431 0-.042-.083-1.431-1.638-1.189-1.55.25-2.19.542-2.19.542.55-1.091 3.129-1.626 3.767-2.523.134-.188.239-1.182.259-1.304h.512v1.773l.511.154c-.23 3.708-.626 5.009-.782 4.978M299.669 442.455a23.91 23.91 0 0 1-2.35-.156l-1.56-.334.454-.344c.031.011 2.06.417 3.408.417.225 0 .404-.01.547-.052 1.166-.253 2.566-.753 2.587-.55.005.185-1.655.832-2.446.978-.149.02-.364.041-.64.041M309.755 441.871l.104.065.041.047.043.086-.052.117-.625.363-3.052.01c-.735-.021-3.048-.949-2.9-1.126.149-.165 1.829.545 2.986.688 1.214.157 3.35-.25 3.455-.25M307.355 447.598c.596.625-.552 1.335-.573 1.421 0 0 .798-1.048.152-.753-.551.876-2.718 1.512-2.793 1.596-.114.136.273.503 1.466-.394.077.154-.648.863-1.686.79-.021.143-.116.302-.214.362-.016.009-.031.009-.031.009-.042 0-.108 0-.086-.02.092-.103.245-.353.075-.373-.203-.022-.326.336-.368.393-.106.199-.604-.08-.315-.299.073-.074.209-.116.332-.206.148-.086.082-.142-.044-.086a1.906 1.906 0 0 1-.577.086c-.234 0-.448-.055-.651-.142-.091-.021-.174.023-.067.107.088.081.224.113.308.167.417.293-.276.775-.394.087-.08-.129-.162-.219-.224-.243-.315-.021.021.472.005.472 0 0-.037-.044-.055-.055-.099-.063-.228-.188-.256-.327-.082.012-1.286-.067-1.459-.724.893.657 1.362.613 1.305.362-.016-.107-1.084-.721-1.517-1.126-.336-.25-.843-.867-.939-.888-.172-.03-.198.315.031.774-.561-.554-.454-.992-.305-1.222-.282-.678-.224-1.533.146-2.211.318-.561 2.279-2.222 2.445-2.11.166.118-2.03 2.044-2.194 2.874-.347 1.982 2.323 3.722 3.187 3.824.043 0 .156-.25.646-.22.609.023.678.22.678.22.691.086 3.948-1.147 3.609-3.557-.12-.759-.419-1.666-.287-1.764.13-.077.266.327.595.984.359.69.369 1.545.055 2.192M315.868 436.812c-.417.459-3.891 4.642-3.911 4.651-.032.064-.115.199-.24.199-.069 0-.506-.023-.522-.125.731-1.221 2.39-3.162 3.563-4.11.526-.471.965-.748 1.11-.615M294.371 414.083c.177-.229.48-.678.48-.678s.427 1.051 1.171 1.469c.73.412 2.008.982 2.558 1.004-2.1.535-4.123-1.014-4.209-1.795M293.322 431.127c.394-.01.514.375.519.79l.078.077c.01.009.386.347.626 1.105.183-1.009.688-3.022.315-3.546l-.576-.605.602.344c.235.083.616.511.496 1.223-.063.382-.654 3.588-.654 3.588l-.029.133c-.031.417-.154.81-.389 1.116-.391.535-1.014.811-1.426.845 0 0 1.656-1.105 1.442-2.277-.198-1.115-.407-1.207-.407-1.217l-.229.264-.021-.657c-.036-.326-.143-.459-.357-.449-.636.011-1.106-.856-1.784-.657-.636.185-.973.713-1.374 1.02-.363.281.193.845.193.845s-.021.219-.185.334c-.172.115-.457-.597-.457-.597s-.383-.978.157-1.326c.949-.623.641-.612 1.666-.922 1.03-.317.95.589 1.794.569M338.271 461.783c-.698 0-1.589.438-1.809 1.667-.078.24-.692 1.671-1.215 2.91-3.004 7.022-2.765 4.453-2.481 5.57.5 2.013 3.257 2.255 5.302 2.255.476 0 .834-.023.966-.034a3.614 3.614 0 0 0 2.534-1.03c1.118-1.105 1.398-2.735 1.398-3.495 0-.083-1.502-4.617-2.263-5.983l-.031-.055c-1.106-1.784-2.065-1.805-2.389-1.805z" style="fill:#000;fill-opacity:1;fill-rule:nonzero;stroke:none;stroke-width:1.00063;stroke-miterlimit:4;stroke-dasharray:none"/><path d="M338.977 472.629s-4.375.283-4.725-1.052c-.329-1.347 2.78-6.447 3.728-7.866.679-1.008 1.377.667 1.377.667.47.832 2.055 4.685 2.065 5.255 0 .711-.469 3.008-2.445 2.996" style="fill:#c8c3c2;fill-opacity:1;fill-rule:nonzero;stroke:none;stroke-width:1.00063;stroke-miterlimit:4;stroke-dasharray:none"/><path d="M214.635 516.115s12.204-.764 14.344-14.542c.688 2.537-2.078 10.879-5.58 12.913-.396.229-1.906.972-.79 3.433-4.102.595-7.974-1.804-7.974-1.804M272.874 510.544s7.455 2.815 9.223-9.157c.806 4.378-.204 9.585-3.221 11.161-3.022 1.574-6.002-2.004-6.002-2.004M237.77 497.736s.743-2.516 1.533-3.012c.8-.479 2.868 2.616 2.868 2.616s-1.442-3.731-2.72-4.684c-1.024.78-1.426 1.732-1.681 5.08" style="fill:#000;fill-opacity:1;fill-rule:nonzero;stroke:none;stroke-width:1.00063;stroke-miterlimit:4;stroke-dasharray:none"/><path d="M240.795 494.919s1.197-2.492 1.987-2.985c.8-.476 2.644 2.475 2.644 2.475s-1.64-3.821-2.49-4.545c-.765.689-2.264 1.586-2.141 5.055M233.837 490.664s1.458-2.681 2.334-3.033c1.489-.6 1.596 3.327 1.596 3.327s.631-4.351-1.014-5.778c-1.377.791-2.099 1.324-2.916 5.484" style="fill:#000;fill-opacity:1;fill-rule:nonzero;stroke:none;stroke-width:1.00063;stroke-miterlimit:4;stroke-dasharray:none"/><path d="M237.545 492.25s.791-2.365 1.539-2.931c.741-.561 2.295 3.664 2.295 3.664s-.506-4.177-1.687-6.261c-.764.876-2.045 2.19-2.147 5.528" style="fill:#000;fill-opacity:1;fill-rule:nonzero;stroke:none;stroke-width:1.00063;stroke-miterlimit:4;stroke-dasharray:none"/><path d="M240.57 490.341c.011-.112 1.432-2.222 2.308-2.629.897-.382 1.473 3.242 1.473 3.242s.255-4.138-.816-5.34c-.62.438-2.665 1.486-2.965 4.727M241.379 500.354s1.395-3.173 2.323-3.665c.928-.474 2.318 2.932 2.318 2.932s-.712-3.711-2.373-4.87c-1.131.983-1.478 1.64-2.268 5.603" style="fill:#000;fill-opacity:1;fill-rule:nonzero;stroke:none;stroke-width:1.00063;stroke-miterlimit:4;stroke-dasharray:none"/><path d="M239.032 503.077s.876-2.366 1.667-2.784c.79-.421 2.167 2.784 2.167 2.784s-.816-4.092-2.081-5.341c-.856.689-1.252 1.826-1.753 5.341M243.856 503.911s.73-2.044 1.416-2.482c.673-.438 1.729 1.356 1.729 1.356s-.422-2.837-1.677-3.221c-.519.465-1.085 1.385-1.468 4.347M247.58 506.31s.407-1.927.988-2.334c.55-.413 1.585 1.351 1.585 1.351s-.133-2.146-1.646-3.098c-.554.667-1.222 1.487-.927 4.081M251.053 509.116s.407-1.917.973-2.329c.565-.404 1.596 1.356 1.596 1.356s-.193-2.616-1.601-2.91c.174-.245-1.234 1.554-.968 3.883M234.615 495.306s1.27-2.253 1.864-2.318c.587-.058 1.719 2.318 1.719 2.318s-.535-3.194-1.719-3.841c-.529.647-1.575 1.672-1.864 3.841" style="fill:#000;fill-opacity:1;fill-rule:nonzero;stroke:none;stroke-width:1.00063;stroke-miterlimit:4;stroke-dasharray:none"/><path d="M242.177 506.029s.535-1.896 1.121-2.264c.587-.387 1.507 1.453 1.507 1.453s-.3-2.715-1.325-3.479c-.651.589-1.436 1.565-1.303 4.29" style="fill:#000;fill-opacity:1;fill-rule:nonzero;stroke:none;stroke-width:1.00063;stroke-miterlimit:4;stroke-dasharray:none"/><path d="M296.9 476.312c-2.06.709-4.592 4.999-5.361 6.829-.769 1.849-2.159 7.265-1.319 9.244.443-1.958 1.63-6.146 2.527-8.031 1.345-2.824 3.042-6.508 4.153-8.042" style="fill:#c8c3c2;fill-opacity:1;fill-rule:nonzero;stroke:none;stroke-width:1.00063;stroke-miterlimit:4;stroke-dasharray:none"/><path d="M341.412 421.052c-.375.775-2.348 1.553-3.212 1.677-.792.118-.966.138-1.038-.667-.068-.657-.099-1.352.031-2.04.214-1.201.308-.849 1.382-.91.814-.062 1.544-.184 2.336-.127.762.045.923.066.923.775-.011.514.193 1.15-.423 1.335" style="fill:#000;fill-opacity:1;fill-rule:nonzero;stroke:none;stroke-width:1.00063;stroke-miterlimit:4;stroke-dasharray:none"/></g></svg>