<svg xmlns="http://www.w3.org/2000/svg" width="714.1653442382812px" height="1140.7174072265625px" style="shape-rendering:geometricPrecision;text-rendering:geometricPrecision;image-rendering:optimizeQuality;fill-rule:evenodd;clip-rule:evenodd" viewBox="0 0 714.1653442382812 1140.7174072265625"><path fill="none" d="M0 0h714.165v1140.717H0z" style="fill:#01062b;fill-opacity:0;pointer-events:none"/><path d="M187.36 150.603A95.582 154.407 0 0 1 91.779 305.01 95.582 154.407 0 0 1-3.804 150.603 95.582 154.407 0 0 1 91.778-3.804a95.582 154.407 0 0 1 95.583 154.407Z" style="fill:#f9f9f9" transform="translate(22.172 18.688) scale(3.65779)"/><g transform="translate(22.172 18.688) scale(3.65779)"><path fill="#fff" d="M18.976 241.415C35.67 277.002 61.836 300 91.165 300c50.212 0 91.166-67.383 91.166-150.002 0-32.539-6.355-62.714-17.127-87.34l-1.714-3.786C146.802 23.12 120.573 0 91.165 0 40.953 0 0 67.383 0 149.998c0 32.672 6.408 62.954 17.256 87.633z"/><linearGradient id="a" x1="100.6528" x2="100.6528" y1="68.887199" y2="299.79471" gradientUnits="userSpaceOnUse"><stop offset="0" style="stop-color:#565555"/><stop offset="1" style="stop-color:#171616"/></linearGradient><path fill="url(#a)" d="M165.204 62.658c10.771 24.627 17.127 54.801 17.127 87.34 0 82.619-40.954 150.002-91.166 150.002-29.329 0-55.495-22.998-72.189-58.585l19.11-23.364c14.79 11.309 33.237 18.043 53.206 18.043 48.439 0 87.946-39.587 87.946-88.126 0-26.239-11.549-49.857-29.809-66.025zM43.521 211.408 143.994 88.586c16.345 14.586 26.669 35.813 26.669 59.381 0 43.803-35.654 79.532-79.371 79.532-17.91.001-34.465-6-47.771-16.091z" style="fill:url(#a)"/><linearGradient id="b" x1="81.744598" x2="81.744598" y1="3.3397999" y2="237.21609" gradientUnits="userSpaceOnUse"><stop offset="0" style="stop-color:#378ecd"/><stop offset="1" style="stop-color:#416fa6"/></linearGradient><path fill="url(#b)" d="M91.165 0c29.408 0 55.637 23.12 72.325 58.872l-16.901 20.659c-15.124-12.301-34.376-19.688-55.297-19.688-48.439 0-87.946 39.587-87.946 88.125 0 27.191 12.402 51.573 31.827 67.763l-17.917 21.901C6.408 212.952 0 182.67 0 149.998 0 67.383 40.953 0 91.165 0Zm49.993 86.172L40.604 209.091c-17.507-14.61-28.684-36.6-28.684-61.123 0-43.806 35.655-79.533 79.371-79.533 18.863 0 36.222 6.656 49.867 17.737z" style="fill:url(#b)"/><path fill="#fff" d="m30.109 64.649-2.038-8.823.046-.03 7.028 5.581zm7.088-1.843 4.669 3.677 2.394-1.555-16.402-12.399-2.485 1.615 4.43 20.176 2.259-1.467-1.371-5.82zM43.048 46.193l7.166 15.444-2.37 1.098-7.166-15.443-5.936 2.752-.975-2.101 14.241-6.603.975 2.1ZM58.258 49.878l.673-9.031.053-.015 5.055 7.416zm7.316.345 3.367 4.898 2.747-.775-11.981-16.711-2.853.805-1.757 20.585 2.593-.73.418-5.966zM74.299 53.424 71.938 34.23l2.592-.316 2.078 16.895 9.73-1.189.283 2.299ZM95.047 44.337l3.86-8.194.053.006 2.067 8.735zm6.709 2.94 1.391 5.78 2.844.26-5.212-19.896-2.95-.271-9.002 18.595 2.681.245 2.524-5.422zM120.535 56.86l-4.952-17.775-.052-.016-4.468 14.97-2.426-.723 5.532-18.532 2.967.884 4.797 17.73.051.016 4.47-14.972 2.424.724-5.531 18.532ZM139.47 46.166 132.296 61.6l-2.369-1.103 7.174-15.432-5.937-2.761.978-2.1 14.239 6.623-.976 2.1ZM144.453 59.35l7.315-5.336.044.03-2.373 8.655zm4.478 5.798-1.548 5.737 2.371 1.592 4.961-19.955-2.46-1.653-16.815 11.997 2.236 1.502 4.814-3.545zM55.455 261.211l-3.018-.961 5.099-16.023-5.266-1.678.715-2.246c3.743.908 5.364 1.037 7.438-2.371l2.215.708zM75.33 255.499c-1.972-.241-4.709-1.153-4.16-5.663.384-3.141 2.449-5.058 5.188-4.726 3.375.414 4.461 2.919 4.134 5.594-.566 4.645-3.626 4.983-5.162 4.795zm-.758 2.587c2.172.266 4.635-.451 5.723-2.152l.059.075c-1.477 5.991-3.511 8.491-6.719 8.099-2.405-.294-3.63-1.936-3.508-4.328l-2.941-.357c-.276 2.271.705 6.461 6.219 7.135 8.086.986 9.829-9.687 10.135-12.192.465-3.812.594-10.984-6.893-11.898-4.946-.605-8.012 2.853-8.534 7.131-.571 4.678 2.116 7.957 6.459 8.487zM104.346 255.066c.366 5.913-.958 9.571-4.352 9.784-3.394.21-5.16-3.257-5.528-9.17-.366-5.913.957-9.571 4.352-9.781 3.392-.21 5.158 3.254 5.528 9.167zm3.157-.194c-.304-4.907-2.064-12.048-8.851-11.625-6.787.419-7.649 7.727-7.344 12.631.306 4.904 2.063 12.048 8.851 11.625 6.786-.419 7.648-7.726 7.344-12.631zM111.347 241.774l15.73-4.491.712 2.494c-1.589 3.01-4.952 11.814-3.694 22.449l-3.14.896c-1.01-6.471.797-15.81 3.713-22.14l-12.524 3.577zM155.565 97.686s-11.776 8.198-22.186 5.966c-15.825-3.395-26.841-10.285-33.192-12.601-6.354-2.314-20.31-6.052-30.085-.721-6.917 3.772-9.55 8.425-10.262 11.608-.56 2.501-2.093 5.366-4.823 7.782-3.25 2.878-6.455 7.67-8.304 12.755-1.851 5.085-3.07 9.026-10.804 16.508-4.838 4.682-7.257 7.021-5.907 9.456 1.509 2.72 3.808 4.154 3.453 5.745-.356 1.592-2.426 4.484-2.73 5.849-.306 1.364 1.746 4.902 1.746 4.902s-1.674.602-1.765 1.527c-.18 1.867 1.001 1.883 1.594 5.585.383 2.393-2.584 7.309-1.685 9.646 1 2.602 4.825 4.995 12.852 6.093 9.196 1.257 17.669 3.25 26.755 13.84C81.496 214.768 86.22 224.36 86.22 224.36s31.002 5.457 58.497-21.053a81.893 81.893 0 0 0 12.102-14.707l2.559-.011s4.687-1.293 4.802-1.491c19.226-33.103 5.219-74.615-8.615-89.412z"/><path fill="#2f2e2e" d="M156.944 114.453c-3.526 5.723-15.775 12.923-43.177-.727-30.541-15.213-43.734-6.752-46.155-5.262 2.823-3.851 14.525-14.132 42.04-2.321 20.732 8.899 32.8 15.854 47.292 8.31zM162.522 127.542c-5.814 10.738-25.202 12.042-44.217 2.817-7.177-3.481-12.976-6.089-18.248-7.472-15.439-4.048-23.681-.267-27.644 1.682 2.823-3.851 18.042-13.229 42.496-1.866 20.225 9.398 35.54 14.802 47.613 4.839z"/><path fill="#2f2e2e" d="M166.743 132.569c-4.014 18.229-28.922 20.29-48.87 13.468-12.334-4.219-25.162-15.102-42.295-9.267 3.42-3.254 14.611-8.342 39.064 3.021 20.226 9.397 46.431 6.952 52.101-7.222z"/><path fill="#2f2e2e" d="M166.989 146.912c-4.012 15.308-24.574 20.345-43.687 14.553-11.91-3.608-19.17-11.153-36.459-10.586 14.724-4.995 16.896-.231 36.434 6.147 8.281 2.704 38.714 4.06 43.712-10.114z"/><path fill="#2f2e2e" d="M167.86 162.8c-10.168 14.413-27.063 17.132-44.341 11.876-11.56-3.517-21.637-10.513-33.708-9.425 10.842-3.554 18.418-.031 28.805 3.174 3.23.997 6.913 1.994 11.399 2.796 8.619 1.539 27.412 1.98 37.845-8.421z"/><path fill="#2f2e2e" d="M107.535 176.279s10.667 13.46 27.178 14.701c16.512 1.241 30.424-12.299 30.424-12.299s-11.895 8.078-30.393 6.34c-18.498-1.738-27.209-8.742-27.209-8.742z"/></g></svg>