<svg xmlns="http://www.w3.org/2000/svg" width="602.7769775390625px" height="836.7863159179688px" x="0px" y="0px" style="enable-background:new 0 0 336 235.2" viewBox="0 0 602.7769775390625 836.7863159179688"><defs><radialGradient id="a" cx="4457.76" cy="3406.95" r="15183.85" fx="4457.76" fy="3406.95" gradientTransform="matrix(-1.01474 -.97581 .9758 -1.01475 5657 11214)" gradientUnits="userSpaceOnUse"><stop offset="0" style="stop-opacity:1;stop-color:#4788c6"/><stop offset="0.368627" style="stop-opacity:1;stop-color:#246fb3"/><stop offset="1" style="stop-opacity:1;stop-color:#121f31"/></radialGradient></defs><path fill="none" d="M0 0h602.777v836.786H0z" style="fill:#0d081b;fill-opacity:0;pointer-events:none"/><path d="M5176.15 8791.52c0-1.53-.51-1.84-2.05-2.15-3.28-.51-7.27-1.43-19.46-1.43-13.32 0-23.67 3.48-23.67 21v53.88c0 1.13.92 2.06 2.05 2.06h10.03c1.13 0 2.06-.93 2.06-2.06v-31.34h27.76c1.13 0 2.05-.92 2.05-2.05v-7.38c0-1.12-.92-2.05-2.05-2.05h-27.76v-11.06c0-6.87 2.05-8.81 8.09-8.81h20.9c1.13 0 2.05-.92 2.05-2.05v-6.56zm42.52 16.91c0-1.13-.92-2.05-2.05-2.05-4.1 0-9.63.92-14.65 4.92v-2.16c0-1.13-.92-2.05-2.05-2.05h-8.91c-1.13 0-2.05.92-2.05 2.05v53.58c0 1.13.92 2.16 2.05 2.16h9.42c1.13 0 2.05-1.03 2.05-2.16v-41.18c4.41-2.36 8.5-3.69 14.14-3.69 1.13 0 2.05-.92 2.05-2.05v-7.37zm55.93 23.97c0-15.26-8.5-26.02-24.38-26.02-15.68 0-24.59 9.94-24.59 26.02v7.58c0 20.18 14.65 25.72 24.79 25.72 9.33 0 13.12-.62 19.88-1.75 1.94-.3 2.15-1.02 2.15-2.66v-6.76c0-1.13-.71-1.54-1.84-1.54h-.31c-4.41.41-11.37 1.03-18.85 1.03-9.74 0-12.3-6.97-12.3-13.02v-.3h33.4c1.34 0 2.05-.82 2.05-2.56v-5.74zm-13.62-1.34h-21.72v-.4c0-8.2 4.51-12.6 10.96-12.6 6.45 0 10.76 4.5 10.76 12.6v.4zm72.43 1.34c0-15.26-8.5-26.02-24.38-26.02-15.68 0-24.59 9.94-24.59 26.02v7.58c0 20.18 14.65 25.72 24.79 25.72 9.32 0 13.12-.62 19.88-1.75 1.94-.3 2.15-1.02 2.15-2.66v-6.76c0-1.13-.72-1.54-1.85-1.54h-.3c-4.41.41-11.37 1.03-18.85 1.03-9.74 0-12.3-6.97-12.3-13.02v-.3h33.4c1.34 0 2.05-.82 2.05-2.56v-5.74zm-13.63-1.34h-21.71v-.4c0-8.2 4.5-12.6 10.96-12.6 6.45 0 10.75 4.5 10.75 12.6v.4zm106.86-11.77c0-20.39-11.58-31.35-32.17-31.35-7.27 0-17.11.71-20.18 1.23-1.74.3-2.66 1.12-2.66 3.17v68.95c0 2.05.92 2.87 2.66 3.18 3.07.51 12.91 1.23 20.18 1.23 20.59 0 32.17-10.97 32.17-31.35v-15.06zm-14.14 15.06c0 15.26-7.79 19.36-18.03 19.36-3.79 0-6.46-.21-8.61-.31v-53.17c2.15-.1 4.82-.31 8.61-.31 10.24 0 18.03 4.1 18.03 19.37v15.06zm73.66-2.46c0-14.65-8.5-25.51-24.49-25.51-15.98 0-24.48 10.86-24.48 25.51v8.3c0 14.65 8.5 25.51 24.48 25.51 15.99 0 24.49-10.86 24.49-25.51v-8.3zm-13.52 8.3c0 8.5-3.69 13.83-10.97 13.83-7.27 0-10.96-5.33-10.96-13.83v-8.3c0-8.5 3.69-13.83 10.96-13.83 7.28 0 10.97 5.33 10.97 13.83v8.3zm99.68-31.05c0-1.13-.92-2.05-2.05-2.05h-9.94c-1.12 0-1.74.92-1.85 1.85l-6.44 43.34c-.11.91-.31 1.43-.52 1.43-.31 0-.51-.52-.71-1.43l-8.5-34.43c-1.13-3.99-2.16-4.4-5.75-4.4h-7.17c-3.58 0-4.61.41-5.73 4.4l-8.51 34.43c-.2.91-.41 1.43-.71 1.43-.21 0-.41-.52-.52-1.43l-6.45-43.34c-.11-.93-.72-1.85-1.84-1.85h-9.94c-1.13 0-2.05.92-2.05 2.05v.31l9.32 47.13c1.44 6.04 2.77 8.6 9.12 8.6h2.76c5.64 0 8.4-2.66 9.74-7.99l8.09-31.34c.1-.31.2-.52.31-.52.1 0 .2.21.31.52l8.09 31.34c1.33 5.33 4.1 7.99 9.73 7.99h2.77c6.14 0 7.99-2.46 9.12-8.6l9.32-47.13v-.31zm56.65 20.19c0-13.11-2.97-22.95-17.73-22.95-6.75 0-10.65 1.13-16.59 4.92v-2.16c0-1.13-.92-2.05-2.05-2.05h-8.91c-1.13 0-2.05.92-2.05 2.05v53.58c0 1.13.92 2.16 2.05 2.16h9.42c1.13 0 2.05-1.03 2.05-2.16v-41.18c4.41-2.36 7.99-3.69 11.58-3.69 7.88 0 8.71 2.56 8.71 11.48v33.39c0 1.13.92 2.16 2.05 2.16h9.42c1.12 0 2.05-1.03 2.05-2.16v-33.39zm27.35-40.37c0-1.12-.81-2.04-1.94-2.04h-9.53c-1.13 0-2.05.92-2.05 2.04v73.76c0 1.13.92 2.16 2.05 2.16h9.53c1.13 0 1.94-1.03 1.94-2.16v-73.76zm61.06 42.93c0-14.65-8.5-25.51-24.49-25.51-15.98 0-24.48 10.86-24.48 25.51v8.3c0 14.65 8.5 25.51 24.48 25.51 15.99 0 24.49-10.86 24.49-25.51v-8.3zm-13.52 8.3c0 8.5-3.69 13.83-10.97 13.83-7.27 0-10.96-5.33-10.96-13.83v-8.3c0-8.5 3.69-13.83 10.96-13.83 7.28 0 10.97 5.33 10.97 13.83v8.3zm67.92-14.24c0-13.22-7.88-19.57-22.53-19.57-7.07 0-13.01.82-17.11 1.63-1.34.31-1.95 1.03-1.95 2.16v6.55c0 1.54.72 1.75 1.84 1.75h.52c3.38-.41 10.13-.83 16.7-.83 6.14 0 9.01 1.65 9.01 8.31v4.5h-6.45c-17.73 0-25.01 5.95-25.01 17.72v.42c0 13.83 9.23 17.11 17.73 17.11 4.92 0 9.63-1.65 14.45-4.51v1.63c0 1.13.92 2.06 2.04 2.06h8.71c1.13 0 2.05-.93 2.05-2.06v-36.87zm-13.52 26.12c-2.97 1.64-6.76 2.87-10.45 2.87-5.23 0-7.38-1.33-7.38-6.35v-.42c0-5.73 2.05-8.7 11.38-8.7h6.45v12.6zm72.63-63.11c0-1.12-.92-2.04-2.04-2.04h-9.43c-1.13 0-2.05.92-2.05 2.04v18.13c-3.79-.51-7.38-.71-9.84-.71-16.49 0-24.48 9.63-24.48 25.71v7.89c0 16.09 7.99 25.72 24.48 25.72 6.56 0 14.15-1.03 20.6-2.67 2.35-.71 2.76-1.23 2.76-2.77v-71.3zm-13.52 64.96c-1.94.4-6.15.71-9.84.71-8.81 0-10.96-6.25-10.96-14.65v-7.89c0-8.4 2.15-14.65 10.96-14.65 2.46 0 6.97.31 9.84.72v35.76zm110.54-63.42c0-1.13-.71-1.74-1.84-1.74h-10.86c-.92 0-1.64.81-1.95 1.74l-14.85 61.57c-.31 1.23-.51 1.64-1.64 1.64s-1.33-.41-1.64-1.64l-14.86-61.57c-.3-.93-1.02-1.74-1.94-1.74h-10.86c-1.13 0-1.85.61-1.85 1.74 0 .3.1.2.1.51l16.81 64.24c2.46 9.42 9.84 10.45 14.24 10.45s11.78-1.03 14.24-10.45l16.8-64.24c0-.31.1-.21.1-.51zm56.35 41.9c0-15.26-8.5-26.02-24.38-26.02-15.68 0-24.59 9.94-24.59 26.02v7.58c0 20.18 14.65 25.72 24.79 25.72 9.32 0 13.12-.62 19.88-1.75 1.94-.3 2.15-1.02 2.15-2.66v-6.76c0-1.13-.72-1.54-1.85-1.54h-.3c-4.41.41-11.37 1.03-18.85 1.03-9.74 0-12.3-6.97-12.3-13.02v-.3h33.4c1.34 0 2.05-.82 2.05-2.56v-5.74zm-13.63-1.34h-21.71v-.4c0-8.2 4.5-12.6 10.96-12.6 6.45 0 10.75 4.5 10.75 12.6v.4zm61.89 23.98c0-1.12-.72-1.54-1.85-1.54h-.31c-4.09.52-6.55.72-13.21.72-4.82 0-9.84-2.76-9.84-13.42v-9.53c0-10.65 5.02-13.42 9.84-13.42 6.66 0 9.12.21 13.21.72h.31c1.13 0 1.85-.41 1.85-1.54v-6.66c0-1.63-.41-2.25-2.16-2.66-2.35-.72-6.96-1.33-13.21-1.33-13.32 0-23.36 8.19-23.36 24.89v9.53c0 16.7 10.04 24.9 23.36 24.9 6.25 0 10.86-.62 13.21-1.34 1.75-.41 2.16-1.02 2.16-2.66v-6.66zm43.54 1.64c0-1.03-.72-1.53-2.15-1.53h-5.43c-3.69 0-4-.52-4-5.75v-32.16h9.22c1.13 0 2.05-.92 2.05-2.05v-6.05c0-1.13-.92-2.05-2.05-2.05h-9.22v-10.54c0-1.03-.51-1.54-1.64-1.54h-.41l-9.52 1.64c-1.13.3-2.06.92-2.06 2.04v8.4h-9.63c-1.12 0-2.04.92-2.04 2.05v4.62c0 1.12.92 1.73 2.04 2.04l9.63 1.44v32.16c0 13.63 4.72 16.3 16.29 16.3 2.36 0 4.51-.31 6.97-.72 1.33-.2 1.95-.82 1.95-1.85v-6.45zm56.44-24.79c0-14.65-8.5-25.51-24.48-25.51s-24.48 10.86-24.48 25.51v8.3c0 14.65 8.5 25.51 24.48 25.51s24.48-10.86 24.48-25.51v-8.3zm-13.52 8.3c0 8.5-3.68 13.83-10.96 13.83-7.27 0-10.96-5.33-10.96-13.83v-8.3c0-8.5 3.69-13.83 10.96-13.83 7.28 0 10.96 5.33 10.96 13.83v8.3zm54.82-31.76c0-1.13-.93-2.05-2.06-2.05-4.09 0-9.63.92-14.65 4.92v-2.16c0-1.13-.92-2.05-2.04-2.05h-8.92c-1.13 0-2.05.92-2.05 2.05v53.58c0 1.13.92 2.16 2.05 2.16h9.43c1.13 0 2.05-1.03 2.05-2.16v-41.18c4.4-2.36 8.5-3.69 14.13-3.69 1.13 0 2.06-.92 2.06-2.05v-7.37zm78.46 47.12c0-1.13-.92-2.05-2.04-2.05h-18.86c-6.04 0-7.99-1.94-7.99-8.81v-53.89c0-1.12-.92-2.04-2.04-2.04h-10.15c-1.12 0-2.04.92-2.04 2.04v53.89c0 17.52 10.34 21.01 23.66 21.01 5.53 0 14.44-.62 17.42-1.44 1.54-.31 2.04-.61 2.04-2.15v-6.56zm55.94-23.66c0-14.65-8.5-25.51-24.48-25.51s-24.49 10.86-24.49 25.51v8.3c0 14.65 8.51 25.51 24.49 25.51 15.98 0 24.48-10.86 24.48-25.51v-8.3zm-13.52 8.3c0 8.5-3.69 13.83-10.96 13.83-7.28 0-10.97-5.33-10.97-13.83v-8.3c0-8.5 3.69-13.83 10.97-13.83 7.27 0 10.96 5.33 10.96 13.83v8.3zm75.41-30.33c0-1.54-1.23-2.77-2.77-2.77h-23.98c-17.62 0-24.38 8.61-24.38 18.86v.71c0 5.23 1.03 8.82 4.2 11.99-2.77 1.95-4.1 5.12-4.1 8.29v.11c0 3.69 1.75 7.27 4.62 9.43-3.29 2.97-5.23 7.07-5.23 11.26v.93c0 10.76 8.71 17.01 25.41 17.01 17.52 0 25.1-5.54 25.1-16.09v-.72c0-10.96-9.02-13.11-22.95-16.39l-12.09-2.87c-2.36-.51-3.48-1.33-3.48-3.38 0-1.02.61-1.94 1.74-2.66 2.05.81 5.74 1.74 11.16 1.74 15.58 0 24.29-5.84 24.29-18.65v-.71c0-3.59-.93-5.85-2.56-8.2l3.38-1.34c1.23-.5 1.64-.71 1.64-2.25v-4.3zm-15.78 17.11c0 5.02-2.46 8.09-10.97 8.09-9.42 0-11.06-4.3-11.06-8.09v-.82c0-4.92 2.36-8.71 11.06-8.71 8.81 0 10.97 3.79 10.97 8.71v.82zm1.13 42.62c0 3.69-1.75 5.84-11.58 5.84-9.53 0-12.19-2.56-12.19-6.76v-.93c0-3.69 1.02-5.02 2.56-7.17l9.11 2.15c10.77 2.46 12.1 4 12.1 6.15v.72zm71.4-37.7c0-14.65-8.5-25.51-24.49-25.51-15.98 0-24.48 10.86-24.48 25.51v8.3c0 14.65 8.5 25.51 24.48 25.51 15.99 0 24.49-10.86 24.49-25.51v-8.3zm-13.52 8.3c0 8.5-3.69 13.83-10.97 13.83-7.27 0-10.96-5.33-10.96-13.83v-8.3c0-8.5 3.69-13.83 10.96-13.83 7.28 0 10.97 5.33 10.97 13.83v8.3z" class="fil0" style="fill:#b3b3b3;fill-rule:nonzero" transform="matrix(.14034 0 0 .14034 -401.877 -153.156)"/><path d="M6567.24 8514.7h131.81c67.14 0 121.84 54.7 121.84 121.84s-54.7 121.85-121.84 121.85h-264.22c-20.1 0-39.09-4.9-55.83-13.58-10.9 8.77-24.76 13.84-39.81 13.84h-86.65c-20.12 0-37.43-8.41-49.85-24.23-.56-.71-1.1-1.42-1.62-2.14-30.34 18.47-65.22 28.34-101.87 28.34-34.14 0-67.71-6.84-95.28-23.01-28.01 15.76-59.79 24.02-93.69 24.02-34.33 0-64.46-10.59-86.83-29.54-35.31 19.2-74.7 29.54-117.81 29.54-41.06 0-79.24-10.36-107.67-32.61-36.67 21.17-77.71 32.61-123.19 32.61-62.23 0-113.97-23.71-139.68-70.03-4.33 9.76-8.66 19.52-12.97 29.29-10.38 23.47-32.32 37.76-57.99 37.76h-91.49c-34.91 0-63.39-28.47-63.39-63.39v-138.75c-7.02 2.64-14.61 3.99-22.68 3.99-3.62 0-7.24-.08-10.86-.24-5.71 6.02-11.8 11.65-18.29 16.81-8.37 44.62-27.07 87-58.36 120.7-37.55 40.43-88.38 62.85-143.64 62.85-33.57 0-66.59-6.57-93.96-22.23-7.14 3.96-14.55 7.47-22.2 10.59-.14.59-.29 1.18-.43 1.77-21.02 85.04-82.94 133.87-169.86 133.87-66.77 0-130.65-38.72-130.65-112.23 0-14.15 2.33-26.97 6.54-38.59-9.6-7.2-18.08-15.67-25.3-25.28-36.43 33.65-83.23 52.1-133.32 52.1-34.15 0-67.72-6.84-95.28-23.01-28.02 15.76-59.79 24.02-93.69 24.02-37.84 0-70.58-12.87-93.45-35.61-32.77 26.96-73.64 41.15-118.89 41.15-22.25 0-44.5-4-63.84-12.42-6.93 2.54-14.42 3.9-22.24 3.9h-86.64c-20.19 0-37.56-8.48-49.98-24.39-12.42-15.92-16.42-34.83-11.51-54.41 10.36-41.35 21.05-82.62 31.57-123.94-10.07-2.37-19.61-5.67-28.42-9.93l-191.38 339.69c-.02.04-.04.07-.06.1-16.48 29.59-46.97 47.54-80.85 47.62-33.87.08-64.45-17.74-81.07-47.25l-194.77-345.72c-8.08-14.34-14.87-44.22-14.87-61v-160.58c0-22.36 4.54-44.32 13.54-64.8 8.6-19.6 20.73-37.25 36.15-52.11 14.79-14.26 32.02-25.58 50.89-33.7 20.57-8.86 42.57-13.21 64.95-13.21h248.41c21.93 0 43.52 4.16 63.75 12.66 19.03 8 36.35 19.38 51.22 33.7 14.91 14.37 26.89 31.33 35.56 50.13 9.13 19.82 14.01 41.19 14.72 62.99.03 1.01.05 2.02.05 3.03v1.83c7.29-5.58 14.85-10.75 22.58-15.5 54.35-33.4 121.59-50.12 185.11-50.12 62.25 0 132.42 19.43 168.06 69.29 9.52-18.61 27.46-31.16 49.17-33.6 29.61-3.32 59.22-6.7 88.83-10.07 21.38-2.44 40.87 5.13 55 21.36 14.12 16.24 18.93 36.59 13.57 57.43-4.16 16.12-8.31 32.25-12.45 48.38 33.5-20.55 72.47-31.3 114.95-31.3 53.1 0 93.22 20.89 116.69 56.5 36.91-34.4 84.04-54.48 137.54-54.48 13.16 0 26.44 1.5 39.03 4.64a64.945 64.945 0 0 1 16.55-2.12h86.65c20.24 0 37.66 8.53 50.07 24.52 1.05 1.35 2.04 2.72 2.97 4.11 34.03-21.79 74.03-33.17 117.69-33.17 19.63 0 37.71 2.89 53.91 8.46 18.22-33.45 48.94-60.68 81.39-80.34 51.6-31.26 115.75-49.61 176.22-49.61 9.39 0 18.7.54 28.06 1.15 33.03 2.15 58.71 29.11 59.26 62.21l.03 1.9c3.21-7.8 6.42-15.6 9.62-23.4 9.97-24.3 32.39-39.33 58.65-39.33h42.18c22.12 0 41.14 10.33 53.18 28.88 12.04 18.56 13.72 40.13 4.71 60.33-6.16 13.82-12.33 27.63-18.51 41.43 22.6-7.71 46.96-11.68 72.64-11.68 42.47 0 80.54 13 104.23 39.68 35.7-26.02 78.7-39.68 126.06-39.68 23.89 0 46.82 4.16 66.6 12.7.07-.04.15-.08.22-.12 2.58-10.02 5.17-20.03 7.76-30.05 6.7-25.97 27.65-44.16 54.3-47.16 29.61-3.32 59.22-6.7 88.82-10.07 21.38-2.43 40.87 5.14 55 21.37 14.12 16.23 18.93 36.58 13.57 57.41-1.37 5.31-2.73 10.61-4.09 15.91 2.1 1.88 4.12 3.92 6.02 6.12 31.42-17.16 67.24-26.11 105.98-26.11 39.72 0 72.17 11.68 95.82 32.47 11.44-17.22 30.79-27.93 52.68-27.93h86.64c9.36 0 18.12 1.83 26.05 5.37 12.11-3.43 24.94-5.37 38.94-5.37 57.7 0 105 42.83 105 101.25 0 12.05-2.04 23.34-5.78 33.68z" class="fil1" style="fill:#4154ff" transform="matrix(.14034 0 0 .14034 -401.877 -153.156)"/><path d="m3383.32 8584.01 48.64-112.93-103.36 1.25 54.72 111.68zm23.73 270.85-.03.05c-5.32 9.55-14.69 15.07-25.62 15.09-10.94.03-20.33-5.45-25.7-14.98l-194.77-345.71c-2.41-4.29-6.71-24.57-6.71-29.89v-160.58c0-13.6 2.71-26.86 8.18-39.31 5.29-12.04 12.64-22.83 22.11-31.96 9.31-8.97 20.11-16.01 31.97-21.12 12.65-5.45 26.11-8.03 39.88-8.03h248.41c13.5 0 26.72 2.46 39.18 7.7 11.84 4.98 22.55 11.99 31.8 20.91 9.24 8.9 16.6 19.36 21.97 31.01 5.6 12.14 8.5 25.17 8.94 38.52.01.34.02.63.02.97v50.4c0 9.69-1.91 19.24-5.81 28.12a72.742 72.742 0 0 1-7.89 13.72c3.07 4.17 5.68 8.68 7.82 13.47 3.96 8.87 5.88 18.4 5.88 28.12v28.06c0 7.74-1.47 23.71-4.95 29.89l-194.68 345.55z" class="fil2" style="fill:#fff" transform="matrix(.14034 0 0 .14034 -401.877 -153.156)"/><path d="M3302.82 8494.91h-116.26l-2.92-176.07c-.16-9.65 1.9-18.84 5.7-27.47 3.79-8.65 8.94-16.21 15.59-22.62 6.64-6.41 14.39-11.5 23.18-15.28 8.79-3.78 18.2-5.63 28.26-5.63h46.45v247.07z" class="fil3" style="fill:#fc0;fill-rule:nonzero" transform="matrix(.14034 0 0 .14034 -401.877 -153.156)"/><path d="M3302.82 8325.17v53.71-131.04ZM3577.26 8367.92c0 5.72-1.11 11.2-3.33 16.29-2.29 5.17-5.3 9.57-9.18 13.35-3.87 3.78-8.38 6.8-13.53 8.96-5.22 2.16-10.68 3.23-16.54 3.23 5.86 0 11.32 1.17 16.54 3.33 5.15 2.16 9.66 5.17 13.53 8.95 3.88 3.71 6.89 8.1 9.18 13.2 2.22 5.01 3.47 10.43 3.33 16.13l-1.16 43.51h-116.26c.93-2.47 1.75-18.46 2.52-23.37l1.16-7.41c.5-3.2-.61-6.27-1.83-9.11-1.23-2.86-3.02-5.3-5.13-7.33-2.16-2.06-4.66-3.75-7.6-4.94-2.99-1.2-6.1-1.77-9.34-1.77h-136.8v-62.06h136.8c3.24 0 6.35-.57 9.34-1.77 2.94-1.18 5.44-2.88 7.6-4.94 2.11-2.02 3.9-4.46 5.13-7.33 1.22-2.84 1.83-5.86 1.83-9.11v-7.25c0-3.17-.61-6.19-1.83-9.03-1.23-2.87-3-5.41-5.13-7.49-2.14-2.08-4.66-3.83-7.6-5.02-2.99-1.2-6.1-1.77-9.34-1.77h-136.8v-77.33h201.95c9.89 0 19.15 1.77 27.78 5.4 8.62 3.62 16.22 8.64 22.79 14.97s11.79 13.74 15.67 22.15c3.87 8.41 5.93 17.52 6.25 27.17v50.39z" class="fil4" style="fill:red;fill-rule:nonzero" transform="matrix(.14034 0 0 .14034 -401.877 -153.156)"/><path d="m3381.4 8840.45-.07.13-194.76-345.71h116.25l81.5 153.88Z" class="fil5" style="fill:#093;fill-rule:nonzero" transform="matrix(.14034 0 0 .14034 -401.877 -153.156)"/><path d="M3459.84 8494.87h116.26l-194.38 345.02-.32.56 2.92-191.7.89-1.81Z" class="fil6" style="fill:#0f5fff;fill-rule:nonzero" transform="matrix(.14034 0 0 .14034 -401.877 -153.156)"/><path d="M4534.73 8765.33c0-20.16 28.22-33.32 59-42.85-1.42 4.89-2.43 9.77-3.7 14.57-7.86 29.78-22.23 44.92-35.06 44.92-13.11 0-20.24-9.58-20.24-16.64zm93.2-293.43c19.1 0 23.94 13.1 24.52 18.65-10.26 39.82-19.34 79.96-30.5 119.47-7.37 26.07-31.92 39.32-48.17 39.32-10.83 0-30.21-.5-30.21-39.32 0-23.64 8.27-58.22 22.8-86.81 14.53-28.57 35.91-51.31 61.56-51.31zm-317.8 180.01c-22.79 0-30.49-7.56-30.49-40.83 0-24.7 9.41-60.15 23.94-89.38 14.53-29.24 34.49-52.32 55.86-52.32 15.68 0 21.67 8.06 23.09 29.23-10.83 4.03-18.81 13.11-18.81 27.22 0 10.09 3.7 18.71 16.24 21.18-9.68 59.53-40.18 104.9-69.83 104.9zm2006.26-208.75c-5.7 22.49-11.4 44.97-17.1 67.4-16.82 5.85-33.92 9.78-47.89 9.78-1.71 0-4.27 0-6.56-1.06 0-52.93-25.36-80.66-76.95-80.66-62.13 0-103.46 30.3-129.11 67.76-25.65 37.45-35.91 82.21-35.91 111.2 0 1.41 0 2.72.28 4.08-11.11 16.54-27.93 27.68-45.89 27.68-16.81 0-24.8-4.54-24.8-18.6 0-4.54.85-9.56 2.57-16.18 6.54-25.14 12.83-50.41 19.1-75.62 6.27-25.2 12.83-50.41 19.38-75.61h35.91c1.43-6.71 3.14-13.41 4.85-20.17h-35.91c6.55-26.51 13.39-53.08 20.23-79.64-29.64 3.37-59.29 6.75-88.93 10.08-5.98 23.18-11.97 46.37-17.95 69.56h-19.96c-1.7 6.76-3.42 13.46-4.84 20.17h19.95c-6.27 23.64-12.25 47.28-18.24 70.87-5.99 23.59-11.97 47.24-17.95 70.83-29.93 28.73-59 50.86-106.32 50.86-29.07 0-43.32-8.07-43.32-42.29 0-27.98 9.98-65.03 24.23-95.08 14.25-30.03 33.63-53.18 52.72-53.18 11.4 0 16.82 8.12 16.82 20.67 0 8.62-2.56 18.65-7.12 29.79 7.12 3.99 14.25 6.05 20.8 6.05 17.68 0 31.92-12.09 31.92-36.85 0-23.19-13.11-46.38-66.69-46.38-59.28 0-99.19 28.39-124.27 64.22-25.08 35.85-36.19 79.25-37.34 109.39-27.64 25.11-55.29 43.66-98.9 43.66-28.78 0-43.32-8.07-43.32-42.29 0-6.1.57-13.16 1.14-20.21 72.4-3.48 138.52-48.4 138.52-106.32 0-25.26-12.83-48.45-66.12-48.45-61.86 0-102.62 30.4-127.69 68.01-25.08 37.6-34.78 82.47-34.78 111.45 0 56.97 37.34 80.16 93.77 80.16 61.57 0 105.75-27.63 138.81-61.46 7.41 43.41 42.18 61.46 92.06 61.46 62.42 0 107.45-28.49 140.23-63.07v2.57c0 42.35 28.5 60.5 64.41 60.5 24.8 0 65.56-6.46 98.9-46.43 13.12 32.31 47.04 45.42 90.07 45.42 37.06 0 70.69-14.62 96.05-40.89 25.37-26.26 42.76-64.22 47.6-110.84 17.96-2.43 35.06-6.36 50.45-11.55-6.84 26.92-13.97 53.84-20.52 80.71-6.56 26.86-13.68 53.73-20.24 80.6h86.65c7.98-31.91 15.96-63.87 23.94-95.78 7.98-31.9 15.96-63.87 24.23-95.82 15.1-11.6 25.93-19.16 43.89-19.16s1.14 33.27 35.06 33.27c29.36 0 43.32-19.16 43.32-36.75 0-19.21-14.54-37.86-41.61-37.86-28.79 0-51.88 16.13-72.97 31.26 2.57-10.39 5.13-20.82 7.98-31.26h-86.64zm-193.25 208.75c-22.8 0-30.5-7.56-30.5-40.83 0-24.7 9.42-60.14 23.95-89.38 14.53-29.23 34.48-52.32 55.86-52.32 15.68 0 21.66 8.06 23.09 29.23-10.83 4.03-18.81 13.11-18.81 27.22 0 10.09 3.7 18.71 16.24 21.18-9.69 59.53-40.18 104.9-69.83 104.9zm-560.06-165.9c0 41.89-40.76 80.66-87.22 83.18 11.98-49.91 41.61-103.85 72.11-103.85 11.69 0 15.11 8.12 15.11 20.67zm-683.76 165.9c-22.8 0-30.49-7.56-30.49-40.83 0-24.7 8.83-60.14 22.79-89.38 13.97-29.24 33.92-52.32 55.3-52.32 15.11 0 21.66 7.56 22.8 28.73-10.26 4.08-16.82 12.6-16.82 26.21 0 12.66 4.85 19.71 14.54 22.69-9.12 59.53-38.48 104.9-68.12 104.9zm378.22-333.76c-7.69-.51-15.67-1.02-23.94-1.02-50.45 0-103.18 16.09-143.37 40.43-40.18 24.35-67.83 57.12-67.83 90.64 0 15.13 3.7 26.11 11.4 33.78-7.98 10.13-19.95 22.18-35.34 24.75-3.71-44.92-28.79-68.11-76.39-68.11-62.13 0-103.18 30.3-128.26 67.76-25.08 37.45-34.77 82.21-34.77 111.2 0 2.07 0 4.04.29 6-15.96 30.45-36.77 44.16-67.55 53.48 9.69-38.96 19.96-77.93 29.64-116.9 9.69-38.96 19.95-77.98 29.93-117h-86.65c-2.28 8.77-4.56 17.5-6.84 26.22v-3.03c0-14.62-14.25-25.71-48.74-25.71-55.29 0-95.48 30.45-120.85 69.22-17.38 6.25-35.34 10.48-49.88 10.48-1.7 0-4.27 0-6.55-1.06 0-52.93-25.36-80.66-76.95-80.66-62.14 0-103.47 30.3-129.12 67.76-25.65 37.45-35.91 82.21-35.91 111.2 0 1.41 0 2.72.28 4.08-11.11 16.54-27.93 27.68-45.88 27.68-16.82 0-24.8-4.54-24.8-18.6 0-4.54.85-9.56 2.56-16.18 11.69-45.3 22.81-90.74 34.21-136.11 11.4-45.37 23.08-90.74 34.77-136.11-29.64 3.38-59.29 6.76-88.93 10.09-10.83 42.14-21.95 84.23-32.49 126.32-10.54 42.09-21.51 84.15-31.92 126.28-2.98 12.06-4.85 23.14-4.85 32.71 0 42.35 28.51 60.5 64.42 60.5 24.79 0 65.55-6.46 98.9-46.43 13.11 32.31 47.03 45.42 90.06 45.42 37.06 0 70.69-14.63 96.05-40.89 25.37-26.26 42.76-64.22 47.6-110.84 15.4-2.07 30.22-5.3 43.9-9.43-12.83 27.67-19.1 56.86-19.1 81.05 0 59.94 39.05 81.12 80.09 81.12 31.07 0 54.72-12.1 72.11-27.73-2.57 8.92-4.85 17.84-7.12 26.72-45.32 11.64-98.05 32.82-98.05 75.16 0 32.71 30.5 48.84 67.26 48.84 39.62 0 90.49-13.57 108.31-85.69 2.98-12.06 5.98-24.2 9.12-36.3 25.94-5.94 55.87-16.98 79.52-45.57 13.97 30.96 47.32 43.56 89.5 43.56 37.91 0 71.83-15.28 97.19-42.6 25.37-27.31 42.18-66.79 45.89-115.18 23.08-10.54 39.04-29.85 50.45-47.89 9.97 3.88 22.51 5.54 37.62 5.54-.57-4.53-8.27-8.52-8.27-34.28 0-55.45 28.79-94.77 94.34-111.91v344.35h91.49c27.66-62.56 55.87-125.21 83.52-187.77 27.64-62.55 55.86-125.22 83.79-187.83h-42.18c-21.09 51.41-42.48 102.84-63.28 154.25-20.8 51.42-42.17 102.84-62.99 154.26-1.14-51.67-1.99-103.34-2.84-155.01-.86-51.67-1.72-103.34-2.57-155.01zm-1463.57 56.45c-13.68 53.49-27.65 106.92-41.05 160.36-13.39 53.43-27.36 106.87-40.75 160.3h86.64c7.99-32.16 16.53-64.33 24.51-96.48 7.98-32.16 16.53-64.37 24.8-96.59 10.83-1.06 23.09-1.51 27.65-1.51 43.89 0 57.29 28.74 57.29 63.97 0 38.31-15.68 90.74-59.57 90.74-13.97 0-25.37-5.04-40.19-18.15-5.41 11.6-7.98 21.17-7.98 29.24 0 30.75 33.63 37.3 59.57 37.3 50.16 0 83.22-24.2 103.46-54.44 20.23-30.25 28.22-66.54 28.22-90.74 0-37.81-19.67-72.59-70.97-81.16 39.05-18.65 60.13-50.41 60.13-80.15 0-41.34-39.61-80.16-127.97-80.16-57 0-111.73 16.04-151.91 40.74-40.19 24.69-66.41 58.07-66.41 92.86 0 33.77 24.51 46.37 64.13 46.37-.57-4.53-8.27-8.52-8.27-34.28 0-83.17 80.09-122.49 150.49-122.49 57.01 0 79.24 25.71 79.24 54.44 0 37.81-38.48 81.66-86.65 81.66h-3.42c9.41-37.3 18.81-74.6 28.22-111.91-29.93 3.38-59.57 6.76-89.21 10.08z" class="fil7" style="fill:#fff;fill-rule:nonzero" transform="matrix(.14034 0 0 .14034 -401.877 -153.156)"/><path d="M6430.26 8671.72c-1.17.92-2.63 1.55-4.38 1.88-1.76.34-3.8.5-6.14.5-5.43 0-8.89-.96-10.39-2.88-.93-1.08-1.38-2.8-1.38-5.14 0-2.92.5-5.65 1.5-8.2 1-2.55 2.42-4.4 4.26-5.58 2.17-1.33 5.6-2 10.27-2 5.09 0 8.35.84 9.77 2.51 1.17 1.16 1.75 3 1.75 5.51 0 2.59-.43 5.13-1.31 7.64-.88 2.51-2.19 4.42-3.95 5.76zm70.9-53.49c-2.67 0-5.09.26-7.26.76s-4.01 1.33-5.51 2.5c-1.42 1.08-2.7 2.59-3.83 4.51a36.993 36.993 0 0 0-2.88 6.26c-.79 2.26-1.4 4.56-1.81 6.89-.42 2.34-.63 4.47-.63 6.39 0 3.34.84 5.85 2.51 7.52 1.83 1.84 5.22 2.75 10.14 2.75 3.26 0 6.56-.24 9.9-.75 3.34-.5 6.22-1 8.64-1.5l-4.13 16.78c-2.92.93-6.26 1.72-10.02 2.38-3.76.67-8.02 1.01-12.78 1.01-5.01 0-9.29-.48-12.84-1.44-3.55-.97-6.57-2.57-9.08-4.83-2.09-1.92-3.7-4.36-4.82-7.32-1.13-2.97-1.69-6.46-1.69-10.47 0-3.83.35-7.82 1.06-11.96.71-4.13 1.82-8.14 3.32-12.02 1.5-3.88 3.38-7.48 5.64-10.78 2.25-3.29 4.92-6.03 8.02-8.2 3.17-2.17 6.7-3.74 10.58-4.7s8.2-1.44 12.96-1.44c5.6 0 10.23.27 13.9.82 3.68.54 6.81 1.11 9.4 1.69l-2.75 16.66c-2.34-.42-4.76-.78-7.27-1.07-2.5-.29-5.42-.44-8.77-.44zm96.83 7.52c0 3.76-.38 7.66-1.13 11.71-.75 4.05-1.88 7.96-3.38 11.72-1.5 3.76-3.34 7.2-5.51 10.33s-4.68 5.7-7.52 7.7c-3.51 2.43-7.43 4.11-11.77 5.08-4.34.96-9.4 1.44-15.16 1.44-6.68 0-12.03-.76-16.04-2.26-4-1.5-7.09-3.47-9.26-5.88-1.67-1.93-2.97-4.32-3.88-7.21-.93-2.88-1.38-6.32-1.38-10.33 0-3.43.31-7.04.94-10.84.62-3.8 1.62-7.51 3-11.15 1.38-3.63 3.11-7.03 5.2-10.2 2.09-3.18 4.59-5.89 7.52-8.15 3.25-2.42 7.1-4.25 11.52-5.51 4.43-1.25 9.73-1.88 15.91-1.88 7.18.09 12.76.92 16.72 2.51 3.97 1.58 6.91 3.46 8.83 5.64 1.51 1.75 2.78 4.03 3.82 6.82 1.05 2.8 1.57 6.28 1.57 10.46zm-31.82 27.56c1.17-1.01 2.28-2.51 3.32-4.51s1.97-4.22 2.76-6.64c.79-2.42 1.42-4.91 1.88-7.45.45-2.55.69-4.91.69-7.08 0-1.67-.13-3.01-.38-4.01s-.67-1.84-1.26-2.5c-1.5-1.92-4.3-2.89-8.38-2.89-2.51 0-4.56.28-6.14.82-1.59.54-2.97 1.27-4.14 2.19-1.25 1-2.42 2.51-3.5 4.51a36.92 36.92 0 0 0-2.76 6.58c-.75 2.38-1.34 4.82-1.76 7.32-.41 2.51-.62 4.81-.62 6.9 0 3.08.5 5.26 1.5 6.51.84 1 1.97 1.77 3.39 2.31 1.41.55 3.29.82 5.63.82 4.35 0 7.6-.96 9.77-2.88zm80.8 19.16 8.64-40.21c.67-3.17 1.01-5.63 1.01-7.38 0-1.34-.25-2.47-.76-3.39-.67-.75-1.52-1.27-2.56-1.57-1.05-.29-2.16-.43-3.32-.43-2.26 0-4.41.31-6.46.94-2.04.62-3.9 1.27-5.57 1.94l-10.65 50.1h-23.92l14.91-70.27h18.78l1.76 12.78h.87l8.39-10.15c1.76-.83 3.97-1.61 6.64-2.32 2.68-.7 5.89-1.06 9.65-1.06 4.76 0 8.65 1.02 11.65 3.07 3.01 2.04 4.84 5.53 5.51 10.46h1l8.9-10.15c1.75-.83 3.94-1.61 6.57-2.32 2.63-.7 5.83-1.06 9.59-1.06 3.51 0 6.53.44 9.08 1.32 2.54.87 4.53 2.23 5.95 4.07.92 1.25 1.6 2.67 2.07 4.26.46 1.58.68 3.46.68 5.63 0 1.67-.14 3.72-.44 6.14-.29 2.42-.76 5.22-1.43 8.39l-8.9 41.21h-23.92l8.51-40.21c.76-3 1.13-5.46 1.13-7.38 0-1.34-.25-2.47-.75-3.39-.67-.75-1.54-1.27-2.63-1.57a13.05 13.05 0 0 0-3.38-.43c-2.01 0-4.08.31-6.2.94-2.13.62-4.12 1.27-5.95 1.94l-10.4 50.1h-24.05zm-212.14-94.38h264.22c32.15 0 58.45 26.3 58.45 58.45v.01c0 32.15-26.3 58.45-58.45 58.45h-264.22c-32.15 0-58.45-26.3-58.45-58.45v-.01c0-32.15 26.3-58.45 58.45-58.45z" class="fil2" style="fill:#fff" transform="matrix(.14034 0 0 .14034 -401.877 -153.156)"/><path d="M3087.11 9295.23h-49.42L2985 9115.27h39.16l40.57 139.22 43.36-139.22h40.57l46.62 139.22 40.1-139.22h39.16l-53.15 179.96h-49.42l-43.83-127.53-41.03 127.53zm304.92 0h-49.41l-52.69-179.96h39.16l40.57 139.22 43.36-139.22h40.56l46.63 139.22 40.1-139.22h39.16l-53.16 179.96h-49.41l-43.84-127.53-41.03 127.53zm304.93 0h-49.42l-52.69-179.96h39.17l40.56 139.22 43.36-139.22h40.57l46.63 139.22 40.1-139.22h39.16l-53.16 179.96h-49.42l-43.83-127.53-41.03 127.53zm188.37 0v-35.78h40.56v35.78h-40.56zm82.53 0v-249.04h39.63v84.66c11.19-12.04 29.06-18.06 53.62-18.06h24.71c18.65 0 34.19 4.96 46.62 14.88 12.44 9.92 18.65 21.84 18.65 35.78v75.1c0 16.53-7.22 30.53-21.67 41.98-14.46 11.46-32.25 17.18-53.39 17.18h-23.31c-22.38 0-37.77-4.36-46.17-13.1v10.62h-38.69zm88.12-155.16c-13.05 0-24.02 3.78-32.87 11.33-8.85 7.56-13.6 16.18-14.22 25.86v66.96c0 7.79 3.89 14.17 11.66 19.13 7.76 4.96 17.25 7.44 28.44 7.44h19.58c13.37 0 23.7-3.72 31.01-11.16 7.3-7.44 10.95-16.35 10.95-26.75v-59.51c0-9.45-3.18-17.36-9.55-23.74-6.38-6.37-15.31-9.56-26.82-9.56h-18.18zM4194 9295.23v-249.04h41.03v249.04H4194zm161.78-182.44h31.24c21.76 0 40.17 5.9 55.25 17.71 15.08 11.81 22.62 26.1 22.62 42.87v63.77c0 16.76-7.54 31.05-22.62 42.86-15.08 11.81-33.49 17.71-55.25 17.71h-31.24c-21.76 0-40.17-5.9-55.25-17.71-15.08-11.81-22.61-26.1-22.61-42.86v-63.77c0-16.77 7.53-31.06 22.61-42.87 15.08-11.81 33.49-17.71 55.25-17.71zm5.6 158h20.05c13.05 0 23.47-3.6 31.23-10.81 7.77-7.2 11.66-15.99 11.66-26.39v-56.33c0-10.39-3.89-19.18-11.66-26.39-7.76-7.2-18.18-10.8-31.23-10.8h-20.05c-13.06 0-23.47 3.6-31.24 10.8-7.77 7.21-11.66 16-11.66 26.39v56.33c0 10.4 3.89 19.19 11.66 26.39 7.77 7.21 18.18 10.81 31.24 10.81zm337.09-129.3h-23.77c-1.87 0-4.67.23-8.4.7 4.98 7.56 7.46 15.47 7.46 23.74v18.77c0 14.65-6.52 27.17-19.58 37.56-13.05 10.39-29.68 15.59-49.89 15.59h-35.43c-8.39 0-15.7-.83-21.91-2.49-1.25 3.08-1.87 7.33-1.87 12.76v2.48c0 11.34 8.85 17 26.57 17h59.69c18.64 0 34.03 4.43 46.15 13.29 12.13 8.85 18.19 19.77 18.19 32.77v5.67c0 14.88-6.61 26.68-19.81 35.42-13.21 8.74-33.19 13.11-59.92 13.11h-59.22c-21.76 0-38.54-4.43-50.35-13.28-11.81-8.86-17.72-18.6-17.72-29.24v-11.33c0-8.74 2.72-16.35 8.16-22.85 5.44-6.49 12.83-11.28 22.14-14.35-6.21-6.85-9.31-13.93-9.31-21.25v-6.03c0-12.98 2.79-22.32 8.39-27.98-12.13-9.92-18.19-22.09-18.19-36.49v-19.13c0-14.65 6.61-27.16 19.82-37.56 13.21-10.38 29.92-15.58 50.12-15.58h35.9c13.37 0 25.49 2.83 36.37 8.5 8.4-3.78 17.41-5.67 27.04-5.67h29.37v25.87zm-121.69-3.9c-11.49 0-20.67 2.95-27.5 8.85-6.85 5.91-10.26 13.35-10.26 22.32v13.11c0 9.45 3.57 17 10.73 22.67 7.14 5.67 16.15 8.51 27.03 8.51h19.59c11.81 0 21.06-2.9 27.74-8.68 6.68-5.79 10.02-13.29 10.02-22.5v-13.11c0-8.97-3.42-16.41-10.25-22.32-6.84-5.9-16.01-8.85-27.51-8.85h-19.59zm-14.92 204.05h49.89c29.22 0 43.83-7.91 43.83-23.73v-2.83c0-5.67-3.03-10.52-9.09-14.53-6.07-4.02-13.6-6.02-22.61-6.02h-68.08c-18.34.7-27.51 7.79-27.51 21.25v3.9c0 5.66 2.8 10.74 8.4 15.23 5.59 4.49 13.98 6.73 25.17 6.73zm229.86-228.85h31.25c21.75 0 40.17 5.9 55.24 17.71 15.08 11.81 22.62 26.1 22.62 42.87v63.77c0 16.76-7.54 31.05-22.62 42.86-15.07 11.81-33.49 17.71-55.24 17.71h-31.25c-21.76 0-40.17-5.9-55.25-17.71-15.07-11.81-22.61-26.1-22.61-42.86v-63.77c0-16.77 7.54-31.06 22.61-42.87 15.08-11.81 33.49-17.71 55.25-17.71zm5.61 158h20.04c13.06 0 23.47-3.6 31.24-10.81 7.77-7.2 11.65-15.99 11.65-26.39v-56.33c0-10.39-3.88-19.18-11.65-26.39-7.77-7.2-18.18-10.8-31.24-10.8h-20.04c-13.06 0-23.47 3.6-31.25 10.8-7.77 7.21-11.66 16-11.66 26.39v56.33c0 10.4 3.89 19.19 11.66 26.39 7.78 7.21 18.19 10.81 31.25 10.81zm244.78 24.44h-58.29l-68.07-179.96h41.03l56.42 149.5 56.42-149.5h41.03l-68.54 179.96zm225.67-69.08h39.16v10.28c0 17.47-7.3 32.06-21.91 43.75-14.61 11.69-32.95 17.53-55.01 17.53h-27.52c-21.76 0-40.02-5.78-54.78-17.36-14.77-11.57-22.15-25.98-22.15-43.21v-64.48c0-16.53 7.77-30.65 23.31-42.33 15.54-11.7 34.35-17.54 56.42-17.54h24.72c21.75 0 40.01 5.79 54.78 17.35 14.76 11.58 22.14 25.75 22.14 42.52v27.63h-142.67v35.07c0 10.16 3.96 18.9 11.89 26.22 7.92 7.32 18.57 10.98 31.94 10.98h17.72c13.05 0 23.31-3.66 30.77-10.98 7.46-7.32 11.19-16.3 11.19-26.92v-8.51zm-103.51-52.07v2.83h103.98v-2.83c0-10.16-3.66-18.66-10.97-25.51-7.3-6.85-17.63-10.27-31-10.27h-19.58c-13.36 0-23.78 3.42-31.24 10.27-7.46 6.85-11.19 15.35-11.19 25.51zm320.31 48.88h40.1v14.18c0 16.76-7.46 31.05-22.37 42.86-14.93 11.81-33.27 17.71-55.02 17.71h-29.38c-21.76 0-40.18-5.9-55.25-17.71-15.08-11.81-22.61-26.1-22.61-42.86v-63.77c0-16.77 7.53-31.06 22.61-42.87 15.07-11.81 33.49-17.71 55.25-17.71h29.38c21.75 0 40.09 5.9 55.02 17.71 14.91 11.81 22.37 26.1 22.37 42.87v14.52h-40.1v-10.63c0-10.39-3.72-19.18-11.18-26.39-7.46-7.2-17.72-10.8-30.78-10.8h-20.04c-13.06 0-23.32 3.6-30.78 10.8-7.46 7.21-11.19 16-11.19 26.39v56.33c0 10.4 3.88 19.19 11.66 26.39 7.77 7.21 18.18 10.81 31.24 10.81h19.11c13.06 0 23.32-3.6 30.78-10.81 7.46-7.2 11.18-15.99 11.18-26.39v-10.63zm59.22-80.77v-26.92h29.38v-30.82h40.1v30.82h106.77v26.92h-106.77v103.45c0 7.32 2.72 13.4 8.15 18.24 5.45 4.84 12.83 7.26 22.15 7.26h8.86c11.19 0 19.35-2.47 24.48-7.43 5.13-4.96 7.69-11.23 7.69-18.78v-12.4h37.77v17.71c0 12.99-5.98 24.15-17.95 33.48-11.97 9.33-26.66 13.99-44.06 13.99h-26.11c-17.41 0-31.94-4.54-43.6-13.64-11.65-9.09-17.48-19.89-17.48-32.41v-109.47h-29.38zm279.75-29.4h31.25c21.76 0 40.17 5.9 55.25 17.71 15.07 11.81 22.61 26.1 22.61 42.87v63.77c0 16.76-7.54 31.05-22.61 42.86-15.08 11.81-33.49 17.71-55.25 17.71h-31.25c-21.75 0-40.17-5.9-55.24-17.71-15.08-11.81-22.62-26.1-22.62-42.86v-63.77c0-16.77 7.54-31.06 22.62-42.87 15.07-11.81 33.49-17.71 55.24-17.71zm5.6 158h20.05c13.05 0 23.47-3.6 31.24-10.81 7.77-7.2 11.66-15.99 11.66-26.39v-56.33c0-10.39-3.89-19.18-11.66-26.39-7.77-7.2-18.19-10.8-31.24-10.8h-20.05c-13.06 0-23.47 3.6-31.24 10.8-7.77 7.21-11.65 16-11.65 26.39v56.33c0 10.4 3.88 19.19 11.65 26.39 7.77 7.21 18.18 10.81 31.24 10.81zm146.4 24.44v-179.96h39.17v24.09c5.29-8.03 13.44-14.06 24.48-18.07 11.03-4.01 22.14-6.02 33.34-6.02h19.11v27.99H6073c-16.79 0-30.22 4.31-40.33 12.93-10.1 8.61-15.46 19.18-16.09 31.7v107.34h-41.03zm129.62 0v-35.78h40.57v35.78h-40.57zm214.95-72.27h40.1v14.18c0 16.76-7.46 31.05-22.38 42.86-14.92 11.81-33.26 17.71-55.02 17.71h-29.38c-21.75 0-40.17-5.9-55.25-17.71-15.07-11.81-22.61-26.1-22.61-42.86v-63.77c0-16.77 7.54-31.06 22.61-42.87 15.08-11.81 33.5-17.71 55.25-17.71h29.38c21.76 0 40.1 5.9 55.02 17.71 14.92 11.81 22.38 26.1 22.38 42.87v14.52h-40.1v-10.63c0-10.39-3.73-19.18-11.19-26.39-7.46-7.2-17.72-10.8-30.77-10.8h-20.05c-13.06 0-23.31 3.6-30.77 10.8-7.46 7.21-11.2 16-11.2 26.39v56.33c0 10.4 3.89 19.19 11.66 26.39 7.77 7.21 18.18 10.81 31.24 10.81h19.12c13.05 0 23.31-3.6 30.77-10.81 7.46-7.2 11.19-15.99 11.19-26.39v-10.63zm152-110.17h31.24c21.76 0 40.17 5.9 55.25 17.71 15.08 11.81 22.62 26.1 22.62 42.87v63.77c0 16.76-7.54 31.05-22.62 42.86-15.08 11.81-33.49 17.71-55.25 17.71h-31.24c-21.76 0-40.18-5.9-55.25-17.71-15.08-11.81-22.61-26.1-22.61-42.86v-63.77c0-16.77 7.53-31.06 22.61-42.87 15.07-11.81 33.49-17.71 55.25-17.71zm5.6 158h20.05c13.05 0 23.46-3.6 31.23-10.81 7.77-7.2 11.66-15.99 11.66-26.39v-56.33c0-10.39-3.89-19.18-11.66-26.39-7.77-7.2-18.18-10.8-31.23-10.8h-20.05c-13.06 0-23.47 3.6-31.25 10.8-7.77 7.21-11.65 16-11.65 26.39v56.33c0 10.4 3.88 19.19 11.65 26.39 7.78 7.21 18.19 10.81 31.25 10.81zm375.33-129.3h-11.19c-12.74 0-23.47 3.59-32.18 10.8-8.7 7.2-13.36 15.65-13.98 25.33v117.61h-40.56V9171.6c0-8.5-2.88-15.65-8.63-21.44-5.75-5.78-13.91-8.67-24.48-8.67h-11.19c-12.43 0-23.08 3.48-31.93 10.45-8.87 6.96-13.76 15.05-14.69 24.26v119.03h-40.1v-179.96h39.63v19.84c5.9-7.56 13.99-13.17 24.24-16.83 10.26-3.66 20.52-5.49 30.77-5.49h16.79c22.69 0 39.8 7.44 51.29 22.32 14.92-14.88 35.9-22.32 62.94-22.32h17.26c16.78 0 30.92 4.66 42.43 13.99 11.5 9.33 17.25 20.49 17.25 33.48v134.97h-40.56V9171.6c0-8.5-2.88-15.65-8.64-21.44-5.75-5.78-13.9-8.67-24.47-8.67zm-189.3 2.48v-8.86 11.33-2.47z" class="fil0" style="fill:#b3b3b3;fill-rule:nonzero" transform="matrix(.14034 0 0 .14034 -401.877 -153.156)"/><path d="M6938.22 1633.93c241.17 955.69 170.21 1921.04-96.59 2862.95-285.61 1008.28-860.51 1812.49-1736.32 2391.17l-105.28 69.56-105.3-69.54c-876-578.48-1450.75-1382.92-1736.36-2391.19-266.8-941.91-337.76-1907.26-96.59-2862.95l23.23-92.02 88.21-35.02c137.54-54.62 278.24-101.17 420.29-142.55 154.11-44.88 310.04-83.54 467.15-116.41 160.34-33.55 322.01-61.11 484.65-80.87 150.78-18.31 302.73-30.21 454.69-30.21 151.96 0 303.9 11.89 454.68 30.21 162.63 19.75 324.29 47.32 484.62 80.86 157.12 32.87 313.06 71.53 467.18 116.42 142.05 41.38 282.75 87.93 420.3 142.55l88.21 35.02 23.23 92.02z" class="fil8" style="fill:url(#a)" transform="matrix(.14034 0 0 .14034 -401.877 -153.156)"/><path d="M6807.38 1666.95c235.32 932.57 165.07 1872.94-95.59 2793.15-276.86 977.42-831.58 1754.22-1680.87 2315.36l-30.91 20.43-30.92-20.42C4119.63 6214.52 3565.06 5437.5 3288.21 4460.1c-260.66-920.21-330.91-1860.58-95.59-2793.15l6.33-25.1 24.06-9.55c133.39-52.96 270.48-98.27 408.24-138.4 150.69-43.9 303.42-81.75 457.04-113.89 156.47-32.73 314.58-59.71 473.29-78.99 145.02-17.62 292.26-29.23 438.42-29.23 146.15 0 293.38 11.61 438.41 29.22 158.69 19.28 316.8 46.26 473.26 78.99 153.64 32.14 306.37 70 457.07 113.9 137.76 40.13 274.86 85.44 408.25 138.4l24.05 9.55 6.34 25.1zM3336.89 4446.31c274.96 963.37 816.69 1734.09 1660.08 2286.93l3.03 2 3.03-2c843.39-552.84 1385.12-1323.56 1660.08-2286.93 263.41-937.27 323.7-1861.44 95.2-2766.98-491.04-194.95-1230.93-356.94-1758.31-356.94-527.38.01-1267.25 161.98-1758.31 356.94-228.51 905.54-168.21 1829.71 95.2 2766.98z" class="fil2" style="fill:#fff" transform="matrix(.14034 0 0 .14034 -401.877 -153.156)"/><path d="m5712.93 2710.18 41.65-169.58h-925.3v160.66s83.31-13.39 83.31 84.79v467.12h156.2v-547.45l644.14 4.46zm197.85 203.81-47.6 163.64h-731.91v-163.64h779.51zm-1056.21 161.4v-161.4h-474.55v154.71s78.84-14.88 77.36 89.26c-1.49 104.13 0 1106.79 0 1106.79l166.61 62.48v-1249.6l230.58-2.24zm-171.81 406.13v-163.64s595.04-92.23 1276.37 136.86l-53.55 130.91s-676.87-197.85-1222.82-104.13zm-285.63 84.79 2.98-172.56s-406.12 157.69-388.27 531.08c17.85 373.39 229.09 593.56 836.04 638.19l5.95-145.79s-544.47 2.98-666.45-336.2c-96.7-367.44 160.66-484.96 209.75-514.72zm520.67-46.12h154.71v336.21h532.57l-41.65 154.71h-490.92v725.96h-163.64V4084s10.42-65.45-80.33-63.97v-165.12h90.75l-1.49-334.72zm214.22 1042.82s416.53-5.94 821.16-142.81l-56.53-130.91s-357.03 108.6-763.15 120.5l-1.48 153.22zm-669.43-7.43 160.66 43.14v199.34H5843.1l56.53 148.76h-1514.4v-147.27s83.31 14.87 78.85-80.34c-4.47-95.2-1.49-163.63-1.49-163.63zm447.77 452.23H5074v636.71h-163.64v-636.71z" class="fil2" style="fill:#fff" transform="matrix(.14034 0 0 .14034 -401.877 -153.156)"/><path d="M3288.48 2537.83c1143.44-346.24 2289.49-338.86 3434.03-.05l25.88 7.66-15.32 51.76-25.88-7.66c-1134.43-335.82-2269.72-343.23-3403.07-.05l-25.83 7.82-15.64-51.66 25.83-7.82z" class="fil2" style="fill:#fff" transform="matrix(.14034 0 0 .14034 -401.877 -153.156)"/><path d="M3646.29 2269.74c-51.99 7.98-104 16.53-155.99 25.77-49.65 8.82-84.53 6.01-104.66-8.12-20.13-14.13-29.86-43.68-29.86-88.45v-335.4c96.62-22.52 193.57-45.17 290.51-65.19v82.09c-68.43 13.12-136.53 28.07-204.63 43.28v108.06c47.64-10.01 95.27-20.08 143.24-29.68-2.01 27.65-4.02 55.18-6.03 82.7-45.96 8.86-91.59 18.05-137.21 27.25v64.04c0 18.12 4.11 29.69 12.08 35.16 7.8 5.35 21.81 6.31 42.6 2.43 49.99-9.31 99.97-17.98 149.95-26.1v82.16zm410.61-346.56c-13.42 32.53-26.84 64.99-39.92 97.31-13.08 32.32-26.07 64.82-39.58 97.17-10.98 26.28-25.84 40.3-42.94 42.6-17.12 2.3-31.35-8.61-42.94-32.73-13.57-28.22-27.16-56.33-40.59-84.39-13.41-28-26.84-56.06-40.26-83.92V2245.13c-28.85 3.78-57.7 8.11-86.21 12.58v-475.18c28.18-5.61 56.69-11.36 85.2-16.23 20.47 42.67 41.63 85.39 62.07 128.41 20.48 43.13 41.59 86.35 62.39 129.77 20.47-49.64 41.2-99.5 61.73-149.31 20.4-49.52 41.6-99.2 62.39-148.97 28.18-3.85 56.36-7.78 84.88-11.7v490.73c-28.85 3.04-57.7 6.15-86.22 9.26v-291.31zm455.56-203.88c25.5 26.85 37.91 68.16 37.91 123.82 0 55.65-12.4 98.67-37.91 129.09-25.48 30.37-61.42 46.74-107.68 50.38-28.55 2.24-56.7 5.2-84.87 7.77v158.51c-28.85 2.5-57.71 4.93-86.22 7.3v-493.23c57.03-6.09 113.99-12.83 171.09-18.33 46.23-4.44 82.19 7.85 107.68 34.69zm-48.31 129.9c0-55.04-21.16-81.41-63.73-77.56-26.87 2.43-53.68 5.55-80.51 8.32v163.44c26.83-2.57 53.66-5.2 80.51-7.64 20.79-1.89 36.65-9.06 47.63-22.52 10.82-13.25 16.1-34.69 16.1-64.04zm482.74 35.57v38.07c0 42.06-4.03 78.51-10.74 109.14-6.71 30.64-17.37 55.64-31.2 74.79-27.77 38.46-72.79 58.03-134.18 60.32-61.73 2.31-106.32-15.1-133.85-52-13.73-18.41-24.5-42.67-31.2-72.96-6.71-30.36-10.06-66.88-10.06-109.48v-36.59c0-38.81 3.68-72.96 10.39-102.37 6.71-29.35 17.49-54.07 31.54-73.78 27.88-39.12 72.13-60.17 132.84-62.89 60.39-2.69 105.06 15.85 133.52 54.1 14.15 19.02 24.83 43.14 31.87 72.02 7.05 28.94 11.07 62.82 11.07 101.63zm-86.22 37.06v-26.1c0-45.11-5.14-81.04-15.09-107.66-11.52-30.79-36.23-45.27-74.48-43.61-38.24 1.65-63.2 18.26-74.8 49.63-9.53 25.77-14.43 61.81-14.43 108.26v26.04c0 60.45 7.69 100.8 22.48 121.51 6.02 8.44 14.46 15.96 25.83 21.91 11.1 5.82 24.82 8.53 40.92 7.91 15.77-.6 29.25-4.09 40.59-10.68 11.13-6.46 19.67-14.49 25.84-23.46 6.24-9.09 10.92-20.87 14.42-35.44 5.56-23.16 8.72-52.54 8.72-88.31zm434.09 239.78c-43.94-1.55-87.89-1.99-131.5-2.43-49.65-.5-85.51-11.94-107.68-33.95-22.11-21.94-33.22-57.41-33.22-106.77v-362.52c28.52-.13 57.37.41 86.22.95V2019c0 19.75 3.98 33.52 11.74 40.98 8 7.69 22.14 11.59 42.94 11.83 43.61.51 87.56 1.02 131.5 2.64v87.16zm154.99 5.48c-28.86-1.01-57.7-2.09-86.22-3.11v-499.25c28.52 1.35 57.36 2.77 86.22 4.19v498.17zm537.41-358.46c-52-7.03-104-14.04-155.66-19.54-18.11-1.93-30.76.64-37.9 7.64-7.29 7.13-11.07 20.22-11.07 39.56v68.3c54 5.34 108.01 10.95 162.02 17.92-2.34 27.92-4.36 55.92-6.37 83.91-52-6.35-103.99-11.42-155.65-16.36v199.41c-28.85-2.43-57.7-4.86-86.22-7.16v-393.02c0-36.45 7.27-61.65 21.47-75.26 14.31-13.71 38.91-18.57 73.47-14.74 65.07 7.2 130.49 15.62 195.91 24.88v84.46zm154.31 328.17c6.47 7.83 9.39 23.06 9.39 45.51s-2.92 36.95-9.39 43.21c-6.61 6.39-20.12 7.97-40.93 5.27-20.45-2.65-34.31-7.49-40.92-15.55-6.48-7.9-9.73-23.26-9.73-45.92 0-22.65 3.26-37.15 9.73-43.34 6.61-6.32 20.48-8.23 40.92-5.41 20.82 2.86 34.32 8.23 40.93 16.23zm327.08-42.2c26.5 4.6 53 9.81 79.84 15.22 0 29.48-3.67 54.91-10.74 76.27-7.02 21.24-17.62 38.36-31.53 51.8-28.02 27.07-67.77 36.96-119.09 28.81-56.36-8.95-98.66-33.32-126.8-72.9-28.22-39.67-42.27-95.48-42.27-167.23v-40.16c0-56.53 7.03-101.44 21.47-134.43 14.41-32.94 36.24-53.98 65.41-63.03 22.49-6.97 49.99-7.3 82.19-.81 47.3 9.53 85.7 30.84 115.06 64.17 29.68 33.68 44.62 76.48 44.62 127.67-27.17-5.88-54.01-11.42-80.85-16.43-4.36-26.57-12.48-47.62-24.15-63.09-11.48-15.22-29.86-25.48-54.68-30.29-28.85-5.6-50.38-.12-64.41 16.77-9.79 11.78-15.66 34.22-17.44 67.21-.57 10.49-1.01 24.82-1.01 43.01v41.32c0 51.05 6.24 87.04 19.79 107.92 13.62 20.98 34.89 33.6 63.41 38.34 28.85 4.8 48.77-.25 59.71-15.35 10.86-14.99 18.11-39.96 21.47-74.79zm232.14 136.73c6.34 7.81 9.73 22.45 9.73 43.82 0 21.3-3.36 34.76-9.73 40.44-6.37 5.68-20.12 6.46-40.59 2.7-20.79-3.81-34.47-9.67-40.93-17.71-6.62-8.25-10.06-22.99-10.06-44.57 0-21.57 3.47-34.95 10.06-40.37 6.49-5.33 20.14-6.21 40.93-2.16 20.47 3.99 34.18 9.97 40.59 17.85zM4561.06 6211.49h-65.98v-283.32l-42.21-15.52v-47.06h57.25c21.35 0 35.17 3.88 41.48 11.64 6.3 7.76 9.46 23.13 9.46 46.09v288.17zm347.4-245.48v138.26c0 36.55-9.46 64.04-28.38 82.48-18.92 18.43-45.85 27.65-80.78 27.65s-60.88-8.9-77.86-26.68c-16.98-17.79-25.47-41.56-25.47-71.32h61.61c0 5.5.73 10.92 2.18 16.25 1.46 5.34 5.26 10.68 11.41 16.01 6.14 5.34 14.39 8.01 24.74 8.01 17.14 0 29.67-4.77 37.59-14.31 7.93-9.55 11.89-21.92 11.89-37.12v-50.93l-52.88 30.07c-73.74 0-110.61-38.97-110.61-116.91 0-39.14 9.22-66.79 27.65-82.96 18.44-16.17 46.98-24.26 85.63-24.26s67.19 7.85 85.62 23.53c18.44 15.69 27.66 43.1 27.66 82.23zm-111.58-44.63c-32.67 0-49 15.85-49 47.54 0 17.79 3.48 31.62 10.43 41.48 6.95 9.86 19.32 14.8 37.11 14.8l51.91-30.57c0-26.52-3.72-45.36-11.16-56.51-7.44-11.16-20.54-16.74-39.29-16.74zm415.31 290.11h-165.43c-14.23 0-26.36-2.91-36.38-8.74-10.03-5.82-15.04-15.52-15.04-29.1 0-11.32 4.04-22.32 12.13-32.99 2.91-3.56 7.76-9.06 14.55-16.5l51.91-57.73c14.88-14.87 26.68-28.38 35.42-40.51 8.73-12.12 15.2-21.26 19.4-27.41 4.2-6.14 7.44-11.48 9.7-16 5.5-11 8.25-20.38 8.25-28.14 0-7.76-2.99-15.45-8.98-23.05-5.98-7.6-16.81-11.4-32.5-11.4-15.68 0-26.52 4.53-32.5 13.59-5.99 9.05-8.98 21.83-8.98 38.32h-63.55c0-16.49 1.29-30.64 3.88-42.45 2.59-11.8 7.6-23.04 15.04-33.71 14.56-21.67 44.63-32.51 90.24-32.51 33.95 0 60.15 6.96 78.59 20.86 18.43 13.91 27.65 33.8 27.65 59.67 0 15.85-3.64 32.27-10.92 49.25-7.27 16.97-14.95 30.64-23.04 40.99-8.09 10.35-17.63 21.83-28.62 34.44-11 12.62-17.47 20.22-19.41 22.8l-54.82 63.56h133.41v56.76zm329.45-182.41v19.89c0 23.93-.81 43.98-2.42 60.15-1.62 16.18-4.86 31.38-9.71 45.61-4.85 14.23-11.64 25.47-20.37 33.71-8.73 8.25-20.14 14.64-34.2 19.17-14.07 4.52-31.13 6.79-51.19 6.79-20.05 0-37.11-2.35-51.18-7.04-14.07-4.69-25.47-11.07-34.2-19.16-8.73-8.09-15.52-19.32-20.37-33.72-4.85-14.39-8.09-29.67-9.71-45.84-1.61-16.17-2.42-36.39-2.42-60.64v-18.44c0-49.8 3.88-86.51 11.64-110.12 4.85-14.23 11.64-25.23 20.38-32.99 18.43-15.53 47.05-23.29 85.86-23.29 45.28 0 76.25 12.29 92.91 36.87 16.65 24.58 24.98 67.6 24.98 129.05zm-65.01 34.93v-53.85c-.32-32.02-3.88-54.5-10.67-67.44-6.79-12.93-20.86-19.4-42.21-19.4-21.34 0-35.41 6.39-42.2 19.16-6.79 12.78-10.35 34.69-10.68 65.74v55.79c.33 34.6 3.73 58.29 10.19 71.07 6.47 12.77 20.86 19.16 43.18 19.16s36.55-6.14 42.69-18.43c6.15-12.29 9.38-36.23 9.7-71.8z" class="fil7" style="fill:#fff;fill-rule:nonzero" transform="matrix(.14034 0 0 .14034 -401.877 -153.156)"/></svg>