<svg xmlns="http://www.w3.org/2000/svg" width="439.3855mm" height="448.93735mm" viewBox="0 0 439.3855 448.93735"><defs><clipPath id="a" clipPathUnits="userSpaceOnUse"><path d="M373.493 166.667h244.68v250h-244.68Z" style="clip-rule:evenodd"/></clipPath></defs><g clip-path="url(#a)" transform="matrix(1.79575 0 0 1.79575 -670.7 -299.292)"><path d="M84.247 49.463c1.771-1.646 1.8-4.673 1.878-5.207.074-.502-.051-2.213.618-5.728C87.822 34.288 92 34.549 92 34.549v14.935zm.296-11.25c-.399 3.216-.625 5.606-.75 6.757 0 0-.351 4.258-3.408 4.398-.491.023-1.617.1-1.617.1h-1.925s-.384-.055-.552.114L56.938 77.94l-2.292-39.914L71.21 14.371l1.451 3.218s.104.415.493.596c.389.182 10.733 4.694 10.733 4.694s1.53.596 1.53 2.101v3.897H92v3.542h-.46c-1.961 0-6.478 1.607-6.997 5.794zm.304-9.94c-.493-.311-4.9-3.293-4.9-3.293l-5.315 3.293s-.157.101-.157.269c0 .167.147.233.147.233s.195.102 2.556.102h8.232c-.015-.048-.114-.32-.563-.604zm4.395-22.579c.782 0 1.261-.313 1.799-.802l.959.969c-.704.753-1.487 1.223-2.807 1.223-2.015 0-3.512-1.556-3.512-3.523v-.019c0-1.947 1.468-3.542 3.57-3.542 1.291 0 2.064.431 2.7 1.057l-.959 1.105c-.528-.479-1.066-.773-1.75-.773-1.155 0-1.986.959-1.986 2.133v.02c0 1.174.812 2.152 1.986 2.152zm-7.433-2.749h3.267v1.37h-3.267v2.651h-1.506V.118h5.213v1.369h-3.707zm-6.23 2.485h-2.895l-.626 1.536h-1.535L73.457.069h1.389l2.934 6.897h-1.575l-.626-1.536zm-1.447-3.551-.91 2.221h1.819zm-8.529.733v4.354h-1.486V.118h1.389l3.208 4.216V.118h1.487v6.848h-1.282zm-5.74 4.472c-2.113 0-3.629-1.576-3.629-3.523v-.019C56.234 1.595 57.77 0 59.883 0c2.112 0 3.628 1.575 3.628 3.522v.02c0 1.947-1.535 3.542-3.648 3.542zm2.074-3.542c0-1.174-.861-2.153-2.074-2.153-1.213 0-2.054.959-2.054 2.133v.02c0 1.174.861 2.152 2.074 2.152 1.212 0 2.054-.959 2.054-2.133zm-7.58 3.424L52.89 4.775h-1.184v2.191H50.2V.118h3.13c.871 0 1.545.244 1.995.694.382.382.587.92.587 1.566v.019c0 1.106-.596 1.8-1.467 2.123l1.673 2.446zm.029-4.51c0-.646-.45-.979-1.183-.979h-1.497v1.967h1.526c.734 0 1.154-.391 1.154-.969zM44.381.118h5.165v1.34h-3.668v1.389h3.227v1.341h-3.227v1.438h3.716v1.34h-5.213Zm-4.42 6.897L37.193.118h1.662l1.79 4.823 1.79-4.823h1.624l-2.768 6.897Zm-7.472.049a4.218 4.218 0 0 1-2.905-1.096l.89-1.066c.616.509 1.262.831 2.044.831.617 0 .988-.244.988-.645v-.02c0-.381-.234-.577-1.379-.871-1.379-.352-2.269-.733-2.269-2.093v-.02c0-1.242.998-2.064 2.396-2.064.998 0 1.849.313 2.543.87l-.782 1.135c-.606-.42-1.203-.675-1.78-.675s-.881.264-.881.597v.02c0 .45.294.597 1.477.9 1.389.362 2.172.861 2.172 2.054v.02c0 1.36-1.037 2.123-2.514 2.123zm-4.234-.098-.626-1.536h-2.896l-.626 1.536h-6.269V.118h1.507v5.478h3.413v.932L25.506.069h1.389l2.934 6.897h-1.574Zm-2.074-5.087-.91 2.221h1.82zM12.518.118h1.507v5.478h3.413v1.37h-4.92zm-5.819 0h5.165v1.34H8.196v1.389h3.227v1.341H8.196v1.438h3.717v1.34H6.699Zm1.414 22.761s10.344-4.512 10.733-4.694c.389-.181.493-.596.493-.596l1.451-3.218 16.564 23.655-2.292 39.914-19.353-28.358c-.168-.169-.553-.114-.553-.114h-1.924s-1.126-.077-1.617-.1c-3.057-.14-3.408-4.398-3.408-4.398-.125-1.151-.351-3.541-.75-6.757-.519-4.187-5.035-5.794-6.997-5.794H0v-3.542h6.583V24.98c0-1.505 1.53-2.101 1.53-2.101zm6.709 5.998c2.361 0 2.556-.102 2.556-.102s.148-.066.148-.233c0-.168-.158-.269-.158-.269l-5.314-3.293s-4.408 2.982-4.9 3.293c-.45.284-.549.556-.564.604h8.232ZM4.284 4.217H1.506v2.749H0V.118h1.506v2.71h2.778V.118H5.79v6.848H4.284Zm.973 34.311c.669 3.515.544 5.226.618 5.728.079.534.107 3.561 1.878 5.207L0 49.484V34.549s4.178-.261 5.257 3.979zm47.492 32.387H39.237l.178-3.505H52.56zm-.364-6.955H39.6l.178-3.51h12.428ZM40.303 50.035l.382-7.348 5.314 7.236 5.301-7.236.382 7.348zm11.72 6.959H39.948l.195-3.5h11.712zm-6.031 17.377h6.925l.448 8.798L45.992 94 38.62 83.169l.448-8.798h6.924z" style="fill:#ffd100;fill-opacity:1;fill-rule:nonzero;stroke:none" transform="matrix(2.65957 0 0 2.65957 373.493 166.667)"/></g></svg>