<?xml version="1.0" encoding="UTF-8" standalone="no"?>
<svg
   width="50"
   height="64"
   xml:space="preserve"
   version="1.1"
   id="svg8"
   sodipodi:docname="Serie_A_symbol_stroke.svg"
   inkscape:version="1.4 (86a8ad7, 2024-10-11)"
   xmlns:inkscape="http://www.inkscape.org/namespaces/inkscape"
   xmlns:sodipodi="http://sodipodi.sourceforge.net/DTD/sodipodi-0.dtd"
   xmlns="http://www.w3.org/2000/svg"
   xmlns:svg="http://www.w3.org/2000/svg"><sodipodi:namedview
   id="namedview8"
   pagecolor="#ffffff"
   bordercolor="#000000"
   borderopacity="0.25"
   inkscape:showpageshadow="2"
   inkscape:pageopacity="0.0"
   inkscape:pagecheckerboard="0"
   inkscape:deskcolor="#d1d1d1"
   showgrid="false"
   inkscape:zoom="12.078125"
   inkscape:cx="23.968952"
   inkscape:cy="31.917206"
   inkscape:window-width="1920"
   inkscape:window-height="991"
   inkscape:window-x="-9"
   inkscape:window-y="-9"
   inkscape:window-maximized="1"
   inkscape:current-layer="svg8" />
 <defs
   id="defs8"><linearGradient
   id="swatch11"
   inkscape:swatch="solid"><stop
     style="stop-color:#ffffff;stop-opacity:1;"
     offset="0"
     id="stop11" /></linearGradient>
  <clipPath
   clipPathUnits="userSpaceOnUse"
   id="a">
   <path
   id="svg_3"
   d="M 0,2160 H 3840 V 0 H 0 Z" />
  </clipPath>
  <linearGradient
   spreadMethod="pad"
   y2="55.977097"
   y1="9.1337004"
   x2="19.587267"
   x1="33.95615"
   id="svg_1"
   gradientTransform="scale(1.0893063,0.91801543)"
   gradientUnits="userSpaceOnUse">
   <stop
   stop-color="#31ecff"
   offset="0"
   id="stop1" />
   <stop
   stop-color="#0373ff"
   offset="0.561"
   id="stop2" />
   <stop
   stop-color="#0373ff"
   offset="0.803"
   id="stop3" />
   <stop
   stop-color="#0373ff"
   offset="1"
   id="stop4" />
  </linearGradient>
  <linearGradient
   spreadMethod="pad"
   y2="56.727444"
   y1="56.727444"
   x2="29.640961"
   x1="13.769038"
   id="svg_2"
   gradientTransform="scale(1.1057163,0.90439111)"
   gradientUnits="userSpaceOnUse">
   <stop
   stop-color="#31ecff"
   offset="0"
   id="stop5" />
   <stop
   stop-color="#0373ff"
   offset="0.567"
   id="stop6" />
   <stop
   stop-color="#0373ff"
   offset="0.812"
   id="stop7" />
   <stop
   stop-color="#0373ff"
   offset="1"
   id="stop8" />
  </linearGradient>
 <clipPath
   clipPathUnits="userSpaceOnUse"
   id="a-0">
   <path
   id="svg_3-9"
   d="M 0,2160 H 3840 V 0 H 0 Z" />
  </clipPath><linearGradient
   spreadMethod="pad"
   y2="56.727444"
   y1="56.727444"
   x2="29.640961"
   x1="13.769038"
   id="svg_2-4"
   gradientTransform="scale(1.1057163,0.90439111)"
   gradientUnits="userSpaceOnUse">
   <stop
   stop-color="#31ecff"
   offset="0"
   id="stop5-8" />
   <stop
   stop-color="#0373ff"
   offset="0.567"
   id="stop6-8" />
   <stop
   stop-color="#0373ff"
   offset="0.812"
   id="stop7-2" />
   <stop
   stop-color="#0373ff"
   offset="1"
   id="stop8-4" />
  </linearGradient><linearGradient
   spreadMethod="pad"
   y2="55.977097"
   y1="9.1337004"
   x2="19.587267"
   x1="33.95615"
   id="svg_1-5"
   gradientTransform="scale(1.0893063,0.91801543)"
   gradientUnits="userSpaceOnUse">
   <stop
   stop-color="#31ecff"
   offset="0"
   id="stop1-5" />
   <stop
   stop-color="#0373ff"
   offset="0.561"
   id="stop2-1" />
   <stop
   stop-color="#0373ff"
   offset="0.803"
   id="stop3-7" />
   <stop
   stop-color="#0373ff"
   offset="1"
   id="stop4-1" />
  </linearGradient></defs>
 <g
   id="g8"
   transform="matrix(0.99998893,0,0,1.0000002,0.9935291,0.08278927)">
  <title
   id="title8">Layer 1</title>
  
  <g
   stroke-width="2"
   id="svg_21">
   
   
   <g
   id="g9"><g
     id="g11"
     style="display:inline"><path
       id="svg_20-2"
       style="display:inline;fill:url(#svg_1-5);stroke:#ffffff;stroke-width:4;stroke-linecap:butt;stroke-linejoin:round;stroke-miterlimit:1.6;stroke-dasharray:none;stroke-opacity:1;paint-order:normal"
       d="M 17.74433,5.94792 1.34939,44.12695 h 13.87752 l 8.77388,-23.16982 3.7885,10.00449 h -4.78261 l -3.26244,8.61517 h 11.30749 l 1.72294,4.55015 H 46.65219 L 30.25725,5.94791 H 17.74433 Z m -2.51967,38.17859 8.77613,14.35457 8.77388,-14.35457 H 15.22465 Z M 23.995818,58.480649 46.647224,44.126531 H 32.769703 Z m 0,0 L 1.3444123,44.126531 H 15.221934 Z m -8.773929,-14.354163 8.773884,-23.169368 3.788498,10.004494 h -4.783057 l -3.261993,8.61472 h 11.307493 l 1.722944,4.550154 z"
       transform="translate(0.00745881,0.04562169)" /><g
       id="svg_5"
       display="inline"
       transform="matrix(0.44962,0,0,-0.44962,-1596.91,937.635)"
       clip-path="url(#a)">
    <path
   id="svg_15"
   fill-rule="nonzero"
   fill="#1a1659"
   d="m 3585.5431,1987.2526 19.514,51.531 8.426,-22.251 h -10.638 l -7.255,-19.16 h 25.149 l 3.832,-10.12 z" />
    <path
   id="svg_16"
   fill-rule="nonzero"
   fill="#1a1659"
   d="m 3605.0572,1955.3275 50.379,31.925 h -30.865 z m 0,0 -50.379,31.925 h 30.865 z" />
   </g><g
       id="svg_17"
       display="inline">
    <path
   id="svg_18"
   fill="url(#svg_2)"
   d="m 15.22466,44.12651 8.77613,14.35457 8.77388,-14.35457 H 15.22465 Z"
   style="fill:url(#svg_2)" />
   </g><g
       id="svg_19"
       display="inline">
    <path
   id="svg_20"
   fill="url(#svg_1)"
   d="M 17.74433,5.94792 1.34939,44.12695 h 13.87752 l 8.77388,-23.16982 3.7885,10.00449 h -4.78261 l -3.26244,8.61517 h 11.30749 l 1.72294,4.55015 H 46.65219 L 30.25725,5.94791 H 17.74433 Z"
   style="fill:url(#svg_1)" />
   </g></g><g
     id="g11-1"
     transform="translate(0.00745881,0.04562169)"><g
       id="svg_5-5"
       display="inline"
       transform="matrix(0.44962,0,0,-0.44962,-1596.91,937.635)"
       clip-path="url(#a-0)">
    
    
   </g><g
       id="svg_17-6"
       display="inline">
    
   </g><g
       id="svg_19-4"
       display="inline">
    
   </g></g></g>
  </g>
 </g>
</svg>
