<svg xmlns="http://www.w3.org/2000/svg" width="78.913353" height="86.481003"><path d="m53.384.794.713-.828c1.175 1.693 2.569 4.449 4.341 5.488 1.614.948 4.788 1.896 11.548 1.913l1.056.003 4.157 5.547c-2.541 4.38-4.919 10.072-4.919 15.273 0 1.375.24 3.265.95 5.658l4.336 1.207-.978 1.988 3.198 1.441-1.62 2.163 3.038 2.301-3.075 2.324c1.166 3.069 2.659 7.876 2.659 11.812 0 13.75-11.163 18.675-32.413 22.272l1.504 5.217-5.66-2.443-3.961 4.317-1.73-4.42-6.718 2.023 1.806-4.953C11.365 75.52.707 70.518.707 57.084c0-3.936 1.493-8.743 2.658-11.812L.291 42.948l3.038-2.3-1.618-2.164 3.197-1.441-.98-1.988 4.337-1.207c.71-2.393.95-4.283.95-5.658 0-5.2-2.381-10.893-4.917-15.273L8.455 7.37l1.054-.003c3.646-.009 10.737-.108 13.15-3.33.975-1.304 1.81-2.732 2.74-4.071 4.05 4.711 7.437 7.87 14.062 7.966l.56-.016c5.967-.063 9.538-2.672 13.363-7.122" style="fill:#a7a5a6;fill-opacity:1;fill-rule:nonzero;stroke:none" transform="translate(-.29 .034)"/><path d="M40.045 10.251c5.683-.06 10.303-2.464 13.872-6.612 1.553 2.243 2.286 6.03 16.063 6.063l2.698 3.6S68.17 21.07 68.17 28.428c0 1.836.367 4.304 1.391 7.371l2.998.836-.817 1.663 2.787 1.259-1.3 1.74 2.492 1.885-2.142 1.62c1.163 2.76 3.098 8.312 3.098 12.518 0 12.253-9.804 16.887-32.98 20.587l.923 3.209-2.942-1.27-2.688 2.927-1.205-3.078-4.557 1.373 1.232-3.378C12.243 74.022 2.817 69.336 2.817 57.32c0-4.206 1.937-9.758 3.099-12.518l-2.141-1.62 2.49-1.885-1.301-1.74 2.79-1.259-.815-1.663 2.994-.836c1.026-3.067 1.39-5.535 1.39-7.37 0-7.36-4.507-15.127-4.507-15.127l2.697-3.6c13.778-.033 14.51-3.82 16.064-6.063 3.569 4.148 8.189 6.552 13.872 6.629l.596-.017" style="fill:#231f20;fill-opacity:1;fill-rule:nonzero;stroke:none" transform="translate(-.29 .034)"/><path d="m42.25 68.796 2.546-1.164-.082-6.477L42.3 59.79l-5.508 3.423.182 2.386 5.274 3.198M31.892 60.653l.206-6.444-1.361-.762a11.492 11.492 0 0 0-2.666 8.122l2.746.324 1.075-1.24M36.636 52.88l-2.84 1.111-.201 6.197 2.274 1.623 5.358-3.332-.21-3.199-4.38-2.4M31.967 69.5l.667-2.576-2.177-3.387-2.147-.25c.53 2.45 1.839 4.61 3.657 6.213M51.303 60.842c0-.43-.023-.848-.068-1.263l-2.513-.305-2.321 1.758.083 6.585 1.903.885a11.495 11.495 0 0 0 2.916-7.66M45.79 51.002a11.618 11.618 0 0 0-6.116-1.725c-.31 0-.62.012-.925.036l-.749 2.4 4.292 2.35h2.973l.525-3.061M50.913 57.864a11.566 11.566 0 0 0-3.605-5.748l-.448 2.628 1.904 2.853 2.15.267M41.37 72.285l.104-1.993-5.439-3.3-1.763.342-.834 3.268a11.61 11.61 0 0 0 6.236 1.806c.578 0 1.144-.043 1.696-.123M21.98 20.274a.705.705 0 0 0 .708-.702.706.706 0 0 0-.709-.703.705.705 0 0 0-.706.703c0 .389.317.702.706.702M20.435 15.771a.707.707 0 0 0-.708.705c0 .368.287.67.65.7.114-.386.386-.704.74-.88a.705.705 0 0 0-.682-.525M34.019 20.547c0 .389.315.702.705.702a.703.703 0 1 0 0-1.405.704.704 0 0 0-.705.703M18.967 30.726h4.435c-.033-1.554-.387-5.218-2.292-5.218-1.851 0-2.112 3.189-2.143 5.218M34.37 17.306a.704.704 0 1 0 0 1.407.704.704 0 1 0 0-1.407M19.116 17.639a.705.705 0 0 0-1.412 0 .705.705 0 0 0 1.412 0M23.403 31.145h-4.44c-.002.294 0 .55 0 .751 0 .97.038 1.568.073 1.923h4.367v-2.674M17.35 20.178c0 .389.315.702.705.702a.703.703 0 1 0 0-1.407.706.706 0 0 0-.706.705M20.143 21.64c.39 0 .708-.314.708-.703a.706.706 0 0 0-.708-.703.704.704 0 1 0 0 1.407M19.419 19.69a1.44 1.44 0 0 1 1.112-.142 1.42 1.42 0 0 1 .306-.862 1.437 1.437 0 0 1-.481-.776 1.448 1.448 0 0 1-.506-.121 1.445 1.445 0 0 1-.962 1.21c.24.17.428.41.53.69M21.766 18.284c.39 0 .708-.315.708-.704a.704.704 0 0 0-.708-.702.704.704 0 0 0-.708.702c0 .389.315.704.708.704M32.93 18.158c-.157.07-.326.11-.507.121a1.435 1.435 0 0 1-.48.776c.187.238.3.538.306.862a1.447 1.447 0 0 1 1.111.143c.104-.282.291-.522.532-.692a1.44 1.44 0 0 1-.963-1.21M29.467 33.82h4.781l.019-1.888c0-.205.002-.477 0-.787h-4.738l-.062 2.674M26.392 22.583c-1.8 0-2.275 3.351-2.327 4.78l-.03 1.083a14.9 14.9 0 0 1 .211 2.279h4.448c.006-.384.036-.818.094-1.272-.1-2.067-.578-6.87-2.396-6.87M28.685 31.145h-4.438v2.674h4.376l.062-2.674" style="fill:#fff;fill-opacity:1;fill-rule:nonzero;stroke:none" transform="translate(-.29 .034)"/><path d="M26.105 9.215c-3.246 3.55-9.757 3.994-14.48 4.165 0 0 3.495 8.118 3.495 14.594 0 2.047-.291 3.984-.763 5.847h3.835a21.651 21.651 0 0 1-.07-1.925c0-2.101-.11-7.228 2.988-7.228.116 0 .228.009.336.024l-.244-.53-2.156-.37.056-.795 2.026-.147-.165-.726a1.448 1.448 0 0 1-2.182-.7c-.213.122-.46.194-.726.194a1.44 1.44 0 0 1-.476-2.8 1.437 1.437 0 0 1 .832-2.618c.208 0 .406.044.585.122a1.446 1.446 0 0 1 1.439-1.29c.688 0 1.262.475 1.41 1.113.764.04 1.368.669 1.368 1.437 0 .333-.113.64-.306.885.319.262.521.661.521 1.104 0 .675-.467 1.242-1.096 1.398l.973 1.231.595-1.423.782.111-.228 2.215c.448-.615 1.07-1.359 1.938-1.359.847 0 1.468.836 1.925 1.646l-.217-2.133.781-.111.597 1.425.972-1.233a1.442 1.442 0 0 1-1.097-1.397c0-.444.202-.843.52-1.107a1.42 1.42 0 0 1-.306-.883c0-.768.604-1.397 1.368-1.437a1.444 1.444 0 0 1 1.41-1.112c.748 0 1.363.564 1.44 1.289.178-.078.376-.122.585-.122.8 0 1.448.645 1.448 1.44 0 .486-.244.918-.615 1.178.564.196.97.73.97 1.36A1.448 1.448 0 0 1 34 21.794a1.454 1.454 0 0 1-2.185.7l-.163.725 2.026.147.055.796-2.155.37-.226.49a2.66 2.66 0 0 1 .842-.132c2.996 0 2.916 5.001 2.916 7.044l-.008 1.887h2.336v-20.02c-4.239-.374-8.044-1.669-11.333-4.586" style="fill:#fff;fill-opacity:1;fill-rule:nonzero;stroke:none" transform="translate(-.29 .034)"/><path d="M34.26 30.726c-.04-1.969-.315-4.996-2.066-4.996-2.113 0-2.622 3.346-2.656 4.996h4.721M31.93 21.306c0 .389.317.704.704.704.394 0 .71-.315.71-.704a.705.705 0 0 0-.71-.703.705.705 0 0 0-.704.703M32.341 16.137a.708.708 0 0 0-.682.524c.356.177.63.495.743.88a.702.702 0 0 0-.06-1.404M30.093 19.941a.706.706 0 0 0 1.413 0 .703.703 0 0 0-.705-.703.704.704 0 0 0-.708.703M31.014 17.247a.705.705 0 0 0-.709.702c0 .231.113.437.287.566l.207-.015c.178 0 .35.031.508.091a.705.705 0 0 0 .414-.642.705.705 0 0 0-.707-.702" style="fill:#fff;fill-opacity:1;fill-rule:nonzero;stroke:none" transform="translate(-.29 .034)"/><path d="M65.787 33.968c-.494-1.907-.8-3.893-.8-5.996 0-6.474 3.496-14.592 3.496-14.592-2.1-.076-4.55-.207-6.91-.64v21.228h4.214M73.548 57.179c0-3.276-.887-6.312-2.088-9.296h-7.545v21.621c5.609-2.332 9.633-5.87 9.633-12.325M66.558 36.485H13.55c-1.069 3.075-2.52 5.979-3.825 8.881h60.657c-1.304-2.902-2.755-5.806-3.824-8.881M8.644 47.89c-1.2 2.983-2.084 6.017-2.084 9.289 0 6.02 3.499 9.5 8.518 11.835V47.89H8.644M56.142 33.968V10.904a8.953 8.953 0 0 1-2.139-1.689 17.978 17.978 0 0 1-2.03 1.551v23.202h4.17M46.741 33.968V13.101c-1.336.36-2.727.585-4.166.707v20.16h4.166M25.674 47.882v24.472c2.828.662 5.718 1.26 8.483 1.932l.498-2.122c-4.369-1.92-7.42-6.266-7.42-11.322 0-6.836 5.57-12.375 12.439-12.375 6.871 0 12.443 5.54 12.443 12.375 0 5.407-3.491 10.003-8.352 11.686l.647 2.145c2.844-.736 5.864-1.37 8.848-2.049V47.882H25.674" style="fill:#33b65b;fill-opacity:1;fill-rule:nonzero;stroke:none" transform="translate(-.29 .034)"/><path d="M20.732 38.1h-1.31v3.855h-.491c-.255 0-.966 0-.966-.943 0-1.047.654-2.273.943-2.912h-1.414c-.464.92-.869 1.889-.869 2.931 0 1.15.52 2.045 1.984 2.045h2.123V38.1zm.753 3.855h1.102v1.122h-1.102v-1.122zm4.381-3.855h-1.408c-1.095 0-1.346.707-1.346 1.152 0 .492.306.846.611 1.193l.889.999c.092.097.213.207.213.346 0 .197-.354.165-.483.165h-1.19l.308 1.121h1.525c1.098 0 1.345-.707 1.345-1.15 0-.494-.305-.847-.615-1.189l-.913-1.003c-.092-.1-.217-.209-.217-.35 0-.193.358-.162.486-.162h1.101l-.306-1.122zm.881 3.855h1.101v1.122h-1.101v-1.122zm6.525-3.855h-1.408c-1.098 0-1.347.707-1.347 1.152 0 .492.305.846.611 1.193l.888.999c.092.097.215.207.215.346 0 .197-.355.165-.485.165H30.56l.304 1.121h1.525c1.097 0 1.348-.707 1.348-1.15 0-.494-.306-.847-.62-1.189l-.911-1.003c-.092-.1-.213-.209-.213-.35 0-.193.353-.162.482-.162h1.102l-.305-1.122zm4.748 1.48h-1.31v.797h-1.303c.165-.426.403-1.155 1.805-1.155h1.029l-.306-1.122h-.643c-.942 0-1.757.116-2.454.818-.626.62-.902 1.521-.902 2.386 0 .876.296 1.748.779 2.472l1.065-.7c-.288-.476-.495-1.019-.502-1.577h1.432v1.577h1.31v-3.497zm3.33-1.48h-1.41c-1.094 0-1.346.707-1.346 1.152 0 .492.306.846.614 1.193l.888.999c.092.097.214.207.214.346 0 .197-.355.165-.484.165h-1.188l.305 1.121h1.527c1.094 0 1.347-.707 1.347-1.15 0-.494-.308-.847-.62-1.189l-.912-1.003c-.094-.1-.214-.209-.214-.35 0-.193.355-.162.484-.162h1.101L41.35 38.1zm3.428 0H43.37c-1.097 0-1.35.707-1.35 1.152 0 .492.308.846.614 1.193l.888.999c.091.097.215.207.215.346 0 .197-.356.165-.484.165h-1.188l.305 1.121h1.527c1.094 0 1.345-.707 1.345-1.15 0-.494-.305-.847-.618-1.189l-.911-1.003c-.094-.1-.216-.209-.216-.35 0-.193.355-.162.483-.162h1.103l-.305-1.122zm4.78 0h-1.31v3.855h-.492c-.256 0-.966 0-.966-.943 0-1.047.656-2.273.944-2.912H46.32c-.466.92-.87 1.889-.87 2.931 0 1.15.52 2.045 1.984 2.045h2.124V38.1zm2.832 5.087c1.543 0 2.28-1.896 2.28-3.218 0-1.077-.522-1.978-2.28-1.978-1.756 0-2.276.901-2.276 1.978 0 1.322.735 3.218 2.276 3.218zm0-1.176c-.494 0-.912-1.079-.912-1.98 0-.663.27-.876.912-.876.644 0 .913.213.913.876 0 .901-.416 1.98-.913 1.98zm4.187-3.91H55.27v4.975h2.724l.305-1.12h-1.72V38.1zm4.015 5.086c1.543 0 2.278-1.896 2.278-3.218 0-1.077-.52-1.978-2.278-1.978-1.757 0-2.277.901-2.277 1.978 0 1.322.733 3.218 2.277 3.218zm0-1.176c-.496 0-.91-1.079-.91-1.98 0-.663.268-.876.91-.876.643 0 .913.213.913.876 0 .901-.416 1.98-.913 1.98" style="fill:#fff;fill-opacity:1;fill-rule:nonzero;stroke:none" transform="translate(-.29 .034)"/></svg>