<svg xmlns="http://www.w3.org/2000/svg" viewBox="0 0 840 840"><path fill="#011ea0" d="M751.7 560.1c-18.1 42.9-44.1 81.4-77.1 114.4s-71.5 59-114.4 77.1C515.7 770.5 468.6 780 420 780s-95.7-9.5-140.1-28.3c-42.9-18.1-81.4-44.1-114.4-77.1s-59-71.5-77.1-114.4C69.5 515.7 60 468.6 60 420s9.5-95.7 28.3-140.1c18.1-42.9 44.1-81.4 77.1-114.4s71.5-59 114.4-77.1C324.3 69.5 371.4 60 420 60s95.7 9.5 140.1 28.3c42.9 18.1 81.4 44.1 114.4 77.1s59 71.5 77.1 114.4C770.5 324.3 780 371.4 780 420s-9.5 95.7-28.3 140.1z"/><path d="M806.9 256.5c-21.2-50-51.4-94.9-90-133.5-38.5-38.5-83.4-68.8-133.5-90C531.7 11.1 476.6 0 420 0S308.3 11.1 256.5 33.1c-50 21.2-94.9 51.4-133.5 90s-68.8 83.4-90 133.5C11.1 308.3 0 363.4 0 420s11.1 111.7 33.1 163.5c21.2 50 51.4 94.9 90 133.5 38.5 38.5 83.4 68.8 133.5 90 51.7 21.9 106.8 33 163.4 33s111.7-11.1 163.5-33.1c50-21.2 94.9-51.4 133.5-90s68.8-83.4 90-133.5c21.9-51.7 33-106.8 33-163.4s-11.1-111.7-33.1-163.5zm-55.2 303.6c-18.1 42.9-44.1 81.4-77.1 114.4s-71.5 59-114.4 77.1C515.7 770.5 468.6 780 420 780s-95.7-9.5-140.1-28.3c-42.9-18.1-81.4-44.1-114.4-77.1s-59-71.5-77.1-114.4C69.5 515.7 60 468.6 60 420s9.5-95.7 28.3-140.1c18.1-42.9 44.1-81.4 77.1-114.4s71.5-59 114.4-77.1C324.3 69.5 371.4 60 420 60s95.7 9.5 140.1 28.3c42.9 18.1 81.4 44.1 114.4 77.1s59 71.5 77.1 114.4C770.5 324.3 780 371.4 780 420s-9.5 95.7-28.3 140.1z"/><path fill="#fff" d="m645.2 221.8-28.4 60.8C644 321.6 660 368.9 660 420c0 42.8-11.2 82.9-30.8 117.7l7.8 89.5c51.4-53.8 83-126.8 83-207.1 0-76.1-28.2-145.4-74.8-198.3zM450.4 658.1V181.9c25.2 3.2 49.2 10.3 71.3 20.7l25.4-54.4C508.5 130.1 465.4 120 420 120s-88.5 10.1-127.1 28.2l25.4 54.4c22.4-10.5 46.7-17.6 72.2-20.8v476.4c-23.8-2.9-46.6-9.4-67.7-18.7l-5.5 62.5c32 11.6 66.6 18 102.7 18 36.2 0 71-6.4 103.1-18.2l-5.5-62.5c-20.9 9.4-43.5 15.8-67.2 18.8zM194.8 221.8C148.2 274.7 120 344 120 420c0 80.5 31.7 153.6 83.3 207.4l7.8-89.3C191.3 503.3 180 463 180 420c0-51.1 16-98.4 43.2-137.3l-28.4-60.9z"/><path fill="#fff" d="m595.2 494.8-16.7-191.3-.8-9 17.8-38.2 26.9-57.7c-15.1-13.8-31.5-26-49.2-36.5l-25.5 54.7-27.7 59.5-39.4 84.6v142l46.4-99.5 8.5 96.7 10.8 124.1 5.7 65.3c20.4-10 39.5-22.3 57-36.5l-6.7-76.9-7.1-81.3zM360.6 364.2l-43.4-93.1L292 217l-25.5-54.7c-17.6 10.5-34.1 22.8-49.1 36.6l26.9 57.8 18 38.5-.1 1.7-16.6 189.6-7.8 89.6-6.7 76.9c17.5 14.2 36.6 26.5 57 36.5l5.7-65.4 11.6-132.5 7.7-87.7 47.7 102.3v-142h-.2z"/></svg>