<svg xmlns="http://www.w3.org/2000/svg" viewBox="0 0 566 566"><circle cx="283" cy="283" r="283" fill="#003E81"/><path fill="#FFF" d="M74.694 283C74.698 167.955 167.955 74.698 283 74.694c115.044.004 208.302 93.261 208.305 208.306-.003 115.044-93.261 208.302-208.305 208.305C167.955 491.302 74.698 398.044 74.694 283z"/><path fill="#199FD6" d="M141.658 141.658C105.477 177.842 83.113 227.788 83.111 283c.002 55.211 22.366 105.156 58.547 141.342 36.185 36.18 86.13 58.544 141.342 58.546 55.211-.002 105.156-22.366 141.342-58.546 36.18-36.186 58.544-86.131 58.546-141.342-.002-55.211-22.366-105.156-58.546-141.342C388.156 105.477 338.211 83.113 283 83.111c-55.212.002-105.157 22.366-141.342 58.547z"/><path fill="#FFF" d="M165.896 386.941c20.515-2.394 30.088-4.787 30.088-27.353V197.522c-19.147-23.592-24.617-24.618-29.063-24.618v-8.548h72.143l118.644 145.996h.684V206.753c0-20.515-4.103-31.797-31.798-33.849v-8.548h73.511v8.548c-24.618 3.077-26.669 10.941-26.669 27.353v201.386h-9.574l-152.15-185.316h-.684v136.764c0 24.618 7.181 31.114 32.482 33.85v8.548h-77.614v-8.548z"/></svg>