<svg xmlns="http://www.w3.org/2000/svg" width="831.4132690429688px" height="797.6943359375px" x="0px" y="0px" style="enable-background:new 0 0 1400 980" viewBox="0 0 831.4132690429688 797.6943359375"><defs><clipPath id="a" clipPathUnits="userSpaceOnUse"><path d="M213.307 31.147h61.021V90.06h-61.021z"/></clipPath></defs><path fill="none" d="M0 0h831.413v797.694H0z" style="fill:#050618;fill-opacity:0;pointer-events:none"/><g style="fill:#f0f"><path d="m234.31 42.693 1.458-.802s1.695-.522 1.738-.53c.043-.008 1.472-.497 1.472-.497l2.328-.436 2.756-.163 2.02.129 2.293.47 1.686.403 2.362.975 2.363 1.37 1.814 1.31 1.635 1.488 1.763 2.003 2.011 3.398.719 1.814.796 3.013.342 1.849.094 2.456-.214 2.456-.402 1.969-.428 1.463-1.018 2.397-.762 1.54-1.558 2.191-1.386 1.712-2.285 1.96-2.294 1.566-2.73 1.173-2.73.796-2.465.462-3.021.06-2.662-.266-2.422-.607-2.448-.967-2.405-1.319-2.405-1.882-1.284-1.139-1.266-1.506-1.122-1.583-1.027-1.815-.804-1.643-.625-2.054-.522-2.174-.231-2.131.12-2.765.171-1.514.505-2.354.762-2.14.975-1.942 1.61-2.67 2.558-2.68 2.012-1.651z" style="fill:#b2b3b5;fill-opacity:1;stroke:none;stroke-width:.38342541px;stroke-linecap:butt;stroke-linejoin:miter;stroke-opacity:1" transform="matrix(13.27882 0 0 -13.27882 -2822.997 1202.893)"/><path d="m235.297 59.169 7.819 10.288.583.226.092.04.22-.122 6.347-6.77 2.364-5.23.039-.25.288-3.392-1.627-1.457-.315-.086-.611.122-14-.116-1.934 2.122.311 3.058z" style="opacity:.95999995;fill:#312c28;fill-opacity:1;stroke:none;stroke-width:.38342541px;stroke-linecap:butt;stroke-linejoin:miter;stroke-opacity:1" transform="matrix(13.27882 0 0 -13.27882 -2822.997 1202.893)"/><g clip-path="url(#a)" style="fill:#f0f" transform="matrix(13.27882 0 0 -13.27882 -2822.997 1202.893)"><g style="fill:#fff"><path d="M0 0c.073.461.203.563.762.474L3.447.046c1.39-.221 1.858.703 1.975 1.44.159 1.004-.292 1.754-1.386 1.928l-2.737.436c-.551.088-.649.233-.581.665l-.126.019-.227-1.428.127-.02c.076.483.211.569.762.481l2.707-.431c.892-.141 1.339-.738 1.221-1.482-.093-.581-.501-1.087-1.461-.935l-2.848.454c-.543.087-.652.218-.579.679l-.125.021L-.127.02Z" style="fill:#fff;fill-opacity:1;fill-rule:nonzero;stroke:none" transform="translate(225.319 61.178)"/></g><g style="fill:#fff"><path d="M0 0c.405.817 1.319.973 2.441.417C3.545-.13 3.961-.909 3.565-1.708a1.31 1.31 0 0 0-.342-.447L-.148-.485C-.116-.279-.08-.16 0 0m-.075-1.194 2.686-1.33c.448-.223.479-.346.275-.759l.098-.05.757 1.531c.519 1.046.215 2.27-.999 2.872-1.017.504-2.265.399-2.938-.959L-.939-1.39l.098-.048c.196.411.317.467.766.244" style="fill:#fff;fill-opacity:1;fill-rule:nonzero;stroke:none" transform="translate(227.987 68.03)"/></g><g style="fill:#fff"><path d="m0 0 2.369-1.833c.377-.29.409-.437.132-.784l.087-.066 1.029 1.329-.087.067c-.247-.32-.37-.395-.791-.069L.369.477c-.391.303-.395.444-.127.779l-.086.068-1.029-1.33.087-.067C-.523.267-.391.303 0 0" style="fill:#fff;fill-opacity:1;fill-rule:nonzero;stroke:none" transform="translate(230.14 70.713)"/></g><g style="fill:#fff"><path d="m0 0 .294-.07L2.38-2.542c.231-.275.237-.43-.063-.691l.07-.084 1.034.873-.069.084c-.364-.325-.512-.349-.847.048L.708-.183l.01.008L4.91-1.281l.068.058-2.504 2.967c-.215.254-.205.422.05.638l-.071.083-.966-.815.071-.083c.349.303.494.299.809-.074L3.96-.395l-.01-.008L.218.578l-.726-.613.07-.082C-.291.006-.192.048 0 0" style="fill:#fff;fill-opacity:1;fill-rule:nonzero;stroke:none" transform="translate(231.357 72.824)"/></g><g style="fill:#fff"><path d="m0 0 1.296-2.702c.219-.457.163-.576-.25-.768l.047-.098 2.603 1.249-.171 1.127-.112-.017C3.5-1.88 3.36-2.21 2.879-2.441l-.567-.271c-.237-.114-.303-.082-.436.196l-.677 1.411.729.35c.336.162.521.086.723-.351l.099.049L2.089.32 1.99.271c.22-.442.168-.645-.271-.856l-.626-.3L.352.66l.799.383c.451.217.661.239.999-.303l.104.05-.468.828L-.801.377l.048-.098C-.319.502-.2.417 0 0" style="fill:#fff;fill-opacity:1;fill-rule:nonzero;stroke:none" transform="translate(235.465 75.431)"/></g><g style="fill:#fff"><path d="M0 0c.364-.223 1.082-.44 1.369-.615.278-.171.406-.345.468-.601.095-.399-.109-.758-.489-.85-.48-.115-1.097.14-1.337.947l-.118-.029.343-1.429.118.028c-.01.156.048.243.173.273.187.045.491-.12.921-.017.662.159 1.052.787.895 1.443-.078.325-.301.62-.595.801C1.307.221.598.395.242.613c-.24.147-.376.332-.431.556-.076.319.128.625.483.71.388.093 1.046-.092 1.283-.913l.106.025-.334 1.392-.106-.025c-.005-.147-.068-.241-.174-.266-.131-.032-.426.122-.894.01-.611-.148-.931-.686-.78-1.316C-.519.43-.309.19 0 0" style="fill:#fff;fill-opacity:1;fill-rule:nonzero;stroke:none" transform="translate(239.29 75.72)"/></g><g style="fill:#fff"><path d="m0 0 .078-2.996c.012-.507-.087-.593-.543-.598l.002-.109 2.887.074.306 1.099-.11.029c-.195-.646-.459-.89-.992-.905L1-3.422c-.263-.007-.309.05-.318.358l-.04 1.565.808.021c.372.01.512-.134.517-.616l.109.003-.039 1.527-.11-.003c.02-.494-.111-.657-.598-.67l-.693-.017L.592.458l.885.023c.5.014.701-.052.788-.685l.116.003-.089.947L-.576.672l.003-.109C-.086.588-.012.462 0 0" style="fill:#fff;fill-opacity:1;fill-rule:nonzero;stroke:none" transform="translate(242.28 77.539)"/></g><g style="fill:#fff"><path d="M0 0c.718-.228 1.373-.01 1.952.643l-.096.095C1.315.182.848.006.281.188-.58.462-.922 1.274-.44 2.789.075 4.404.778 5.12 1.667 4.837c.683-.217.992-.908.788-1.769l.129-.041.429 1.643-.122.039c-.099-.214-.168-.279-.261-.25-.18.058-.371.451-.952.636-1.184.377-2.424-.485-2.917-2.036C-1.747 1.465-1.005.32 0 0" style="fill:#fff;fill-opacity:1;fill-rule:nonzero;stroke:none" transform="translate(248.071 73.071)"/></g><g style="fill:#fff"><path d="m0 0 .01-.007-.426-1.579-.805.517zm-2.99-1.755-.059-.093.999-.641.059.091c-.274.169-.311.3-.221.44.025.038.07.085.132.145l.668.577.928-.597-.2-.763c-.048-.169-.064-.218-.103-.278-.098-.15-.221-.155-.448-.009l-.059-.092 1.257-.808.06.092c-.259.167-.32.227-.16.82L.881.944.795 1l-2.978-2.556c-.378-.329-.542-.369-.807-.199" style="fill:#fff;fill-opacity:1;fill-rule:nonzero;stroke:none" transform="translate(252.567 74.583)"/></g><g style="fill:#fff"><path d="m0 0-.081-.073 1.93-2.122 1.065.545-.045.097c-.752-.346-.991-.312-1.458.2l-.306.338c-.181.199-.172.275.041.47l2.288 2.081c.379.345.509.316.816-.03l.081.073L3.156 2.87l-.08-.073c.311-.332.327-.474-.048-.815L.811-.034C.465-.349.332-.374 0 0" style="fill:#fff;fill-opacity:1;fill-rule:nonzero;stroke:none" transform="translate(252.696 70.767)"/></g><g style="fill:#fff"><path d="M0 0c.314-.56.849-.805 1.591-.735l-.007.116C.925-.652.532-.488.284-.046-.093.626.167 1.33 1.347 1.993c1.26.706 2.115.745 2.504.051.299-.532.089-1.143-.537-1.561l.057-.101 1.221.775-.053.095c-.186-.075-.267-.076-.308-.003-.078.14.031.496-.223.949-.518.924-1.792 1.107-3.001.428C-.236 1.929-.44.784 0 0" style="fill:#fff;fill-opacity:1;fill-rule:nonzero;stroke:none" transform="translate(255.484 66.82)"/></g><g style="fill:#fff"><path d="m0 0-2.83-.984c-.45-.156-.591-.103-.73.317l-.103-.035.553-1.589.102.036c-.133.382-.128.526.375.701L.198-.57c.467.162.588.089.723-.32l.103.036L.472.735.369.699C.51.292.467.162 0 0" style="fill:#fff;fill-opacity:1;fill-rule:nonzero;stroke:none" transform="translate(259.813 66.41)"/></g><g style="fill:#fff"><path d="M0 0c.103-.704-.462-1.092-1.892-1.301-1.243-.182-2.067-.089-2.184.705-.102.705.464 1.092 1.892 1.301C-.851.9-.108.743 0 0m-2.288 1.416c-1.193-.175-2.17-.94-2.009-2.045.169-1.155 1.38-1.549 2.51-1.383C-.676-1.85.392-1.13.222.033c-.17 1.161-1.399 1.545-2.51 1.383" style="fill:#fff;fill-opacity:1;fill-rule:nonzero;stroke:none" transform="translate(261.223 63.095)"/></g><g style="fill:#a0834a;fill-opacity:1"><path d="M0 0c.713.472.848.619.848.619s-.807.525-2.813-.054c0 0-1.211-.309-2.517-1.426-1.305-1.118-3.364-2.612-5.087-3.177 0 0 1.561-.35 4.186.741C-2.759-2.207-.714-.47 0 0" style="fill:#a0834a;fill-opacity:1;fill-rule:nonzero;stroke:none" transform="translate(265.015 44.24)"/></g><g style="fill:#a0834a;fill-opacity:1"><path d="M0 0c-3.069.504-6.874-2.234-6.874-2.234C-1.889-2.522 0 0 0 0" style="fill:#a0834a;fill-opacity:1;fill-rule:nonzero;stroke:none" transform="translate(252.346 39.97)"/></g><g style="fill:#a0834a;fill-opacity:1"><path d="M0 0s-2.606-.041-5.138-4.571c0 0 3.419.723 5.138 4.571" style="fill:#a0834a;fill-opacity:1;fill-rule:nonzero;stroke:none" transform="translate(259.32 44.686)"/></g><g style="fill:#a0834a;fill-opacity:1"><path d="M0 0a52.671 52.671 0 0 1 6.183 1.364s-.822 1.089-3.311.893C.383 2.06-.973 1.275-1.829 1.026-2.685.775-4.452.473-5.005.463c0 0 1.597-.999 5.005-.463" style="fill:#a0834a;fill-opacity:1;fill-rule:nonzero;stroke:none" transform="translate(252.542 36.705)"/></g><g style="fill:#a0834a;fill-opacity:1"><path d="M0 0c1.999-3.022 5.905-3.673 5.905-3.673C3.72-.093 0 0 0 0" style="fill:#a0834a;fill-opacity:1;fill-rule:nonzero;stroke:none" transform="translate(255.948 79.56)"/></g><g style="fill:#a0834a;fill-opacity:1"><path d="M0 0s-1.903-2.693-.969-6.297c0 0 2.154 2.299.969 6.297" style="fill:#a0834a;fill-opacity:1;fill-rule:nonzero;stroke:none" transform="translate(268.13 78.663)"/></g><g style="fill:#a0834a;fill-opacity:1"><path d="M0 0s-.465-3.348 2.301-6.603c0 0 .071 4.279-2.301 6.603" style="fill:#a0834a;fill-opacity:1;fill-rule:nonzero;stroke:none" transform="translate(264.063 82.397)"/></g><g style="fill:#a0834a;fill-opacity:1"><path d="M0 0c.324-1.711.706-4.633.647-5.195 0 0 1.58 1.831.982 6.356-.39 2.943-.468 4.022-.42 4.298 0 0-.946-.228-1.365-2.682 0 0-.168-1.065.156-2.777" style="fill:#a0834a;fill-opacity:1;fill-rule:nonzero;stroke:none" transform="translate(267.831 67.422)"/></g><g style="fill:#a0834a;fill-opacity:1"><path d="M0 0s2.876 1.988 3.139 6.487C3.139 6.487.645 5.143 0 0" style="fill:#a0834a;fill-opacity:1;fill-rule:nonzero;stroke:none" transform="translate(261.058 45.122)"/></g><g style="fill:#a0834a;fill-opacity:1"><path d="M0 0s-1.29-.453-2.04-1.744c-.75-1.29-1.082-3.399-1.343-4.69-.262-1.291-.872-3.069-.872-3.069s2.023 1.813 2.738 3.958C-.802-3.401-.174-.436 0 0" style="fill:#a0834a;fill-opacity:1;fill-rule:nonzero;stroke:none" transform="translate(271.032 62.995)"/></g><g style="fill:#a0834a;fill-opacity:1"><path d="M0 0s-2.633-.906-3.627-6.015c0 0 3.296 2.806 3.627 6.015" style="fill:#a0834a;fill-opacity:1;fill-rule:nonzero;stroke:none" transform="translate(273.7 63.1)"/></g><g style="fill:#a0834a;fill-opacity:1"><path d="M0 0c-1.065 4.333-4.309 5.674-4.309 5.674C-4.178 2.777 0 0 0 0" style="fill:#a0834a;fill-opacity:1;fill-rule:nonzero;stroke:none" transform="translate(266.49 68.596)"/></g><g style="fill:#a0834a;fill-opacity:1"><path d="M0 0s1.413 3.172.06 7.302c0 0-1.042-1.101-.91-3.794C-.718.814 0 0 0 0" style="fill:#a0834a;fill-opacity:1;fill-rule:nonzero;stroke:none" transform="translate(270.477 67.937)"/></g><g style="fill:#a0834a;fill-opacity:1"><path d="M0 0c3.591 4.178 2.227 5.878 2.227 5.878C-.203 3.435 0 0 0 0" style="fill:#a0834a;fill-opacity:1;fill-rule:nonzero;stroke:none" transform="translate(270.166 63.998)"/></g><g style="fill:#a0834a;fill-opacity:1"><path d="M0 0s.511.86-.233 3.511c-.744 2.65-2.045 4.441-2.627 5.161a3.28 3.28 0 0 0-.674 1.512s-1.092-2.535.698-5.116C-1.046 2.488-.279 1.302 0 0" style="fill:#a0834a;fill-opacity:1;fill-rule:nonzero;stroke:none" transform="translate(266.41 70.144)"/></g><g style="fill:#a0834a;fill-opacity:1"><path d="M0 0s.89.872 1.727 2.285c.836 1.412 1.551 2.371 1.778 2.528 0 0-1.15.418-3.243-1.483-2.093-1.9-1.587-3.574-4.412-6.225 0 0 1.709.192 4.15 2.895" style="fill:#a0834a;fill-opacity:1;fill-rule:nonzero;stroke:none" transform="translate(266.76 48.819)"/></g><g style="fill:#a0834a;fill-opacity:1"><path d="M0 0c.097.348.166.554.286.831.353.191.668.242.966.159.636-.178.799-1.092.427-2.424C1.42-2.358.975-2.802.438-2.652-.258-2.457-.417-1.491 0 0m.227-2.947c1.204-.336 2.189.814 2.52 1.998.297 1.063-.137 2.042-1.012 2.286A1.608 1.608 0 0 1 .453 1.16l-.014.025c.8 1.598 2.112 2.496 3.327 2.243l.051.179C2.147 4.191-.16 2.993-.88.417-1.352-1.273-.906-2.63.227-2.947" style="fill:#a0834a;fill-opacity:1;fill-rule:nonzero;stroke:none" transform="translate(249.713 84.968)"/></g><g style="fill:#a0834a;fill-opacity:1"><path d="M0 0s2.127 3.173.82 6.574c0 0-2.041-2.145-.82-6.574" style="fill:#a0834a;fill-opacity:1;fill-rule:nonzero;stroke:none" transform="translate(265.626 52.655)"/></g><g style="fill:#a0834a;fill-opacity:1"><path d="M0 0s-1.093-2.465 1.558-6.464c0 0 .628 3.86-1.558 6.464" style="fill:#a0834a;fill-opacity:1;fill-rule:nonzero;stroke:none" transform="translate(260.157 85.791)"/></g><g style="fill:#a0834a;fill-opacity:1"><path d="M0 0c-.658.055-.99.921-.876 2.299.08.957.434 1.477.989 1.431.72-.061 1.048-.978.919-2.522C1.002.838.985.633.919.337.608.084.308-.026 0 0m.379-2.29C1.393-1.432 1.894-.261 1.996.963c.145 1.748-.558 2.998-1.731 3.096-1.224.101-1.993-1.171-2.098-2.436-.091-1.1.519-1.979 1.424-2.055.453-.037.868.104 1.225.415l.02-.022C.35-1.769-.768-2.888-2.01-2.868l-.015-.185c.972-.143 1.746.207 2.404.763" style="fill:#a0834a;fill-opacity:1;fill-rule:nonzero;stroke:none" transform="translate(245.917 85.996)"/></g><g style="fill:#a0834a;fill-opacity:1"><path d="M0 0c-1.066-2.538 1.653-6.5 1.653-6.5C2.43-2.777 0 0 0 0" style="fill:#a0834a;fill-opacity:1;fill-rule:nonzero;stroke:none" transform="translate(265.844 67.518)"/></g><g style="fill:#a0834a;fill-opacity:1"><path d="M0 0s-.21 2.348-2.255 4.046c-2.046 1.697-4.278 3.557-4.72 4.022 0 0-.535-1.326 1.419-3.302C-3.604 2.79-1.303 1.651 0 0" style="fill:#a0834a;fill-opacity:1;fill-rule:nonzero;stroke:none" transform="translate(261.319 77.491)"/></g><g style="fill:#a0834a;fill-opacity:1"><path d="M0 0s-.86 3.673-4.65 5.557c0 0 .512-3 4.65-5.557" style="fill:#a0834a;fill-opacity:1;fill-rule:nonzero;stroke:none" transform="translate(259.413 82.257)"/></g><g style="fill:#a0834a;fill-opacity:1"><path d="M0 0s2.678-1.565 6.949-.09c0 0-2.603 1.741-6.949.09" style="fill:#a0834a;fill-opacity:1;fill-rule:nonzero;stroke:none" transform="translate(257.962 39.59)"/></g><g style="fill:#a0834a;fill-opacity:1"><path d="M0 0c.324 1.712.156 2.777.156 2.777-.419 2.454-1.365 2.682-1.365 2.682.048-.276-.03-1.355-.419-4.298-.599-4.525.981-6.356.981-6.356C-.706-4.633-.324-1.711 0 0" style="fill:#a0834a;fill-opacity:1;fill-rule:nonzero;stroke:none" transform="translate(219.803 67.422)"/></g><g style="fill:#a0834a;fill-opacity:1"><path d="M0 0c2.423-2.813 6.904-3.163 6.904-3.163C3.593.364 0 0 0 0" style="fill:#a0834a;fill-opacity:1;fill-rule:nonzero;stroke:none" transform="translate(219.228 44.065)"/></g><g style="fill:#a0834a;fill-opacity:1"><path d="M0 0c1.953-1.904 7.703-1.051 7.703-1.051C2.36 1.209 0 0 0 0" style="fill:#a0834a;fill-opacity:1;fill-rule:nonzero;stroke:none" transform="translate(226.22 37.087)"/></g><g style="fill:#a0834a;fill-opacity:1"><path d="M0 0c-4.346 1.651-6.95-.09-6.95-.09C-2.677-1.565 0 0 0 0" style="fill:#a0834a;fill-opacity:1;fill-rule:nonzero;stroke:none" transform="translate(229.673 39.59)"/></g><g style="fill:#a0834a;fill-opacity:1"><path d="M0 0c-1.936 4.569-4.953 4.935-4.953 4.935C-4.255 2.284 0 0 0 0" style="fill:#a0834a;fill-opacity:1;fill-rule:nonzero;stroke:none" transform="translate(220.09 48.417)"/></g><g style="fill:#a0834a;fill-opacity:1"><path d="M0 0s-1.364-1.7 2.227-5.878c0 0 .203 3.435-2.227 5.878" style="fill:#a0834a;fill-opacity:1;fill-rule:nonzero;stroke:none" transform="translate(215.242 69.876)"/></g><g style="fill:#a0834a;fill-opacity:1"><path d="M0 0s3.479-.946 6.61 1.696c0 0-3.666.623-6.61-1.696" style="fill:#a0834a;fill-opacity:1;fill-rule:nonzero;stroke:none" transform="translate(231.39 34.127)"/></g><g style="fill:#a0834a;fill-opacity:1"><path d="M0 0c.132 2.693-.91 3.795-.91 3.795-1.353-4.13.06-7.303.06-7.303S-.132-2.693 0 0" style="fill:#a0834a;fill-opacity:1;fill-rule:nonzero;stroke:none" transform="translate(218.008 71.444)"/></g><g style="fill:#a0834a;fill-opacity:1"><path d="M0 0c1.762-3.278 5.44-3.958 5.44-3.958C3.034-.157 0 0 0 0" style="fill:#a0834a;fill-opacity:1;fill-rule:nonzero;stroke:none" transform="translate(213.307 58.67)"/></g><g style="fill:#a0834a;fill-opacity:1"><path d="M0 0c-.995 5.109-3.627 6.016-3.627 6.016C-3.296 2.808 0 0 0 0" style="fill:#a0834a;fill-opacity:1;fill-rule:nonzero;stroke:none" transform="translate(217.562 57.084)"/></g><g style="fill:#a0834a;fill-opacity:1"><path d="M0 0c-2.65 2.755-6.364 2.284-6.364 2.284C-4.115-.279 0 0 0 0" style="fill:#a0834a;fill-opacity:1;fill-rule:nonzero;stroke:none" transform="translate(222.793 45.854)"/></g><g style="fill:#a0834a;fill-opacity:1"><path d="M0 0s4.255 2.284 4.953 4.935c0 0-3.018-.366-4.953-4.935" style="fill:#a0834a;fill-opacity:1;fill-rule:nonzero;stroke:none" transform="translate(267.544 48.417)"/></g><g style="fill:#a0834a;fill-opacity:1"><path d="M0 0s4.115-.279 6.365 2.284c0 0-3.715.471-6.365-2.284" style="fill:#a0834a;fill-opacity:1;fill-rule:nonzero;stroke:none" transform="translate(264.841 45.854)"/></g><g style="fill:#a0834a;fill-opacity:1"><path d="M0 0s3.679.68 5.441 3.958c0 0-3.035-.156-5.441-3.958" style="fill:#a0834a;fill-opacity:1;fill-rule:nonzero;stroke:none" transform="translate(268.887 54.712)"/></g><g style="fill:#a0834a;fill-opacity:1"><path d="M0 0s4.481.35 6.904 3.163c0 0-3.592.363-6.904-3.163" style="fill:#a0834a;fill-opacity:1;fill-rule:nonzero;stroke:none" transform="translate(261.502 40.902)"/></g><g style="fill:#a0834a;fill-opacity:1"><path d="m0 0 .001.004A.008.008 0 0 1-.003.002l-.004.002L-.006 0c-3.517-1.966-3.836-5.675-3.836-5.675 2.774.956 3.771 5.344 3.839 5.66.068-.316 1.065-4.704 3.838-5.66 0 0-.319 3.709-3.835 5.675" style="fill:#a0834a;fill-opacity:1;fill-rule:nonzero;stroke:none" transform="translate(243.82 36.822)"/></g><g style="fill:#a0834a;fill-opacity:1"><path d="M0 0c-1.064.941-4.15 4.045-8.3 4.133 0 0 1.377-.611 3.034-2.11C-3.61.523-1.203-1.849 1.849-.802c0 0-.785-.139-1.849.802" style="fill:#a0834a;fill-opacity:1;fill-rule:nonzero;stroke:none" transform="translate(252.2 32.968)"/></g><g style="fill:#a0834a;fill-opacity:1"><path d="M0 0c-4.15-.087-7.236-3.191-8.3-4.133-1.063-.941-1.848-.802-1.848-.802C-7.097-5.982-4.691-3.61-3.034-2.11-1.377-.61 0 0 0 0" style="fill:#a0834a;fill-opacity:1;fill-rule:nonzero;stroke:none" transform="translate(243.735 37.1)"/></g><g style="fill:#a0834a;fill-opacity:1"><path d="M0 0s5.75-.853 7.703 1.051C7.703 1.051 5.345 2.26 0 0" style="fill:#a0834a;fill-opacity:1;fill-rule:nonzero;stroke:none" transform="translate(253.712 36.035)"/></g><g style="fill:#a0834a;fill-opacity:1"><path d="M0 0c3.131-2.642 6.61-1.696 6.61-1.696C3.667.625 0 0 0 0" style="fill:#a0834a;fill-opacity:1;fill-rule:nonzero;stroke:none" transform="translate(249.633 35.822)"/></g><g style="fill:#a0834a;fill-opacity:1"><path d="M0 0s-3.805 2.738-6.874 2.234c0 0 1.889-2.522 6.874-2.234" style="fill:#a0834a;fill-opacity:1;fill-rule:nonzero;stroke:none" transform="translate(242.163 37.736)"/></g><g style="fill:#a0834a;fill-opacity:1"><path d="M0 0c-1.185-3.998.969-6.297.969-6.297C1.903-2.693 0 0 0 0" style="fill:#a0834a;fill-opacity:1;fill-rule:nonzero;stroke:none" transform="translate(219.504 78.663)"/></g><g style="fill:#a0834a;fill-opacity:1"><path d="M0 0c.714-.47 2.759-2.207 5.383-3.297 2.624-1.091 4.186-.741 4.186-.741-1.723.565-3.782 2.059-5.087 3.177C3.176.256 1.965.565 1.965.565-.041 1.144-.848.619-.848.619S-.714.472 0 0" style="fill:#a0834a;fill-opacity:1;fill-rule:nonzero;stroke:none" transform="translate(222.62 44.24)"/></g><g style="fill:#a0834a;fill-opacity:1"><path d="M0 0s2.775-.829 6.183-1.364c3.407-.536 5.004.463 5.004.463-.554.009-2.319.312-3.175.562C7.154-.089 5.798.696 3.309.893.821 1.089 0 0 0 0" style="fill:#a0834a;fill-opacity:1;fill-rule:nonzero;stroke:none" transform="translate(228.91 38.07)"/></g><g style="fill:#a0834a;fill-opacity:1"><path d="M0 0c-.646 5.143-3.139 6.487-3.139 6.487C-2.878 1.988 0 0 0 0" style="fill:#a0834a;fill-opacity:1;fill-rule:nonzero;stroke:none" transform="translate(226.577 45.122)"/></g><g style="fill:#a0834a;fill-opacity:1"><path d="M0 0s2.717 3.962 1.652 6.5C1.652 6.5-.779 3.723 0 0" style="fill:#a0834a;fill-opacity:1;fill-rule:nonzero;stroke:none" transform="translate(220.138 61.017)"/></g><g style="fill:#a0834a;fill-opacity:1"><path d="M0 0c.226-.157.941-1.116 1.778-2.529.838-1.412 1.727-2.284 1.727-2.284 2.441-2.703 4.15-2.895 4.15-2.895C4.83-5.057 5.336-3.383 3.243-1.482 1.151.418 0 0 0 0" style="fill:#a0834a;fill-opacity:1;fill-rule:nonzero;stroke:none" transform="translate(217.37 53.631)"/></g><g style="fill:#a0834a;fill-opacity:1"><path d="M0 0c1.221 4.429-.82 6.574-.82 6.574C-2.127 3.173 0 0 0 0" style="fill:#a0834a;fill-opacity:1;fill-rule:nonzero;stroke:none" transform="translate(222.008 52.655)"/></g><g style="fill:#a0834a;fill-opacity:1"><path d="M0 0c.575.061 1.027-.391 1.101-1.099.067-.636-.136-1.177-.638-1.635-.938.629-1.251 1.136-1.299 1.598C-.9-.53-.554-.058 0 0m1.731-5.424c.067-.637-.304-1.153-.879-1.214-.708-.074-1.215.496-1.316 1.461-.076.719.089 1.235.523 1.643 1.226-.795 1.603-1.223 1.672-1.89M-.191-3.331c-.746-.702-1.071-1.369-.996-2.078.103-.986.952-1.654 1.969-1.547 1.006.104 1.704.977 1.597 1.994-.083.791-.537 1.356-1.636 2.039.838.712 1.136 1.241 1.071 1.857C1.744-.398 1.12.398.033.284-.984.177-1.613-.564-1.511-1.529c.07-.668.458-1.198 1.32-1.802" style="fill:#a0834a;fill-opacity:1;fill-rule:nonzero;stroke:none" transform="translate(240.668 89.706)"/></g><g style="fill:#a0834a;fill-opacity:1"><path d="M0 0c-.749 1.29-2.04 1.744-2.04 1.744.175-.436.802-3.401 1.517-5.546C.192-5.946 2.214-7.76 2.214-7.76s-.61 1.779-.872 3.069C1.081-3.4.749-1.29 0 0" style="fill:#a0834a;fill-opacity:1;fill-rule:nonzero;stroke:none" transform="translate(218.643 61.251)"/></g><g style="fill:#a0834a;fill-opacity:1"><path d="M0 0c1.719-3.848 5.138-4.571 5.138-4.571C2.606-.041 0 0 0 0" style="fill:#a0834a;fill-opacity:1;fill-rule:nonzero;stroke:none" transform="translate(228.315 44.686)"/></g><g style="fill:#a0834a;fill-opacity:1"><path d="M0 0s-3.72-.093-5.905-3.673c0 0 3.906.651 5.905 3.673" style="fill:#a0834a;fill-opacity:1;fill-rule:nonzero;stroke:none" transform="translate(231.686 79.56)"/></g><g style="fill:#a0834a;fill-opacity:1"><path d="M0 0c-2.186-2.604-1.557-6.464-1.557-6.464C1.093-2.465 0 0 0 0" style="fill:#a0834a;fill-opacity:1;fill-rule:nonzero;stroke:none" transform="translate(227.478 85.791)"/></g><g style="fill:#a0834a;fill-opacity:1"><path d="M0 0s4.178 2.777 4.309 5.674c0 0-3.243-1.341-4.309-5.674" style="fill:#a0834a;fill-opacity:1;fill-rule:nonzero;stroke:none" transform="translate(221.144 68.596)"/></g><g style="fill:#a0834a;fill-opacity:1"><path d="M0 0c1.79 2.581.698 5.115.698 5.115s-.093-.79-.675-1.511c-.581-.721-1.883-2.511-2.627-5.162-.744-2.651-.232-3.511-.232-3.511C-2.557-3.766-1.79-2.581 0 0" style="fill:#a0834a;fill-opacity:1;fill-rule:nonzero;stroke:none" transform="translate(224.06 75.213)"/></g><g style="fill:#a0834a;fill-opacity:1"><path d="M0 0c-2.372-2.324-2.301-6.603-2.301-6.603C.464-3.348 0 0 0 0" style="fill:#a0834a;fill-opacity:1;fill-rule:nonzero;stroke:none" transform="translate(223.572 82.397)"/></g><g style="fill:#a0834a;fill-opacity:1"><path d="M0 0c-3.789-1.883-4.65-5.557-4.65-5.557C-.511-2.999 0 0 0 0" style="fill:#a0834a;fill-opacity:1;fill-rule:nonzero;stroke:none" transform="translate(232.872 87.814)"/></g><g style="fill:#a0834a;fill-opacity:1"><path d="M0 0c.227.069.373-.091.517-.566l1.356-4.463c.146-.484.053-.783-.437-.942l.051-.168 2.172.659-.051.169c-.494-.151-.75.02-.913.553L.9 1.158l-.169-.051L-.415-.126l.114-.127c.068.096.192.22.301.253" style="fill:#a0834a;fill-opacity:1;fill-rule:nonzero;stroke:none" transform="translate(234.75 87.855)"/></g><g style="fill:#a0834a;fill-opacity:1"><path d="M0 0c1.953 1.976 1.418 3.301 1.418 3.301C.977 2.837-1.255.977-3.301-.721c-2.047-1.697-2.255-4.045-2.255-4.045C-4.255-3.116-1.953-1.975 0 0" style="fill:#a0834a;fill-opacity:1;fill-rule:nonzero;stroke:none" transform="translate(231.872 82.257)"/></g><g style="fill:#f0f"><path d="M0 0c11 0 19.958-8.958 19.958-19.97 0-4.595-1.561-8.834-4.18-12.213L8.942-22.9c.069.677.05 1.078.05 1.078v11.05H.01l8.929-12.12a.871.871 0 0 0-.005-.048l-.019-.178-.003-.019-.029-.222a12.065 12.065 0 0 0-.142-.817l-.004-.017c-.019-.093-.04-.189-.062-.285l-.005-.02a10.462 10.462 0 0 0-.072-.295l-.007-.025a8 8 0 0 0-.081-.301l-.016-.061c-.028-.091-.054-.183-.082-.278l-.025-.075-.087-.274-.029-.08c-.031-.092-.062-.184-.097-.278l-.047-.126c-.031-.08-.06-.16-.092-.241a3.72 3.72 0 0 0-.068-.162 9.555 9.555 0 0 0-.086-.214l-.078-.175c-.03-.069-.059-.138-.091-.207-.042-.091-.087-.183-.131-.275l-.055-.114c-.064-.13-.132-.261-.202-.393L.012-18.148l-.003.003-7.297-9.927-.003.002c-.067.124-.13.248-.191.371l-.057.116c-.041.084-.082.168-.12.251l-.062.136-.102.227-.059.139-.091.219-.054.138a9.894 9.894 0 0 0-.13.346c-.03.081-.058.161-.085.24l-.033.097c-.036.11-.072.219-.104.326l-.021.071c-.026.083-.05.166-.073.246l-.033.123a8.59 8.59 0 0 0-.083.318l-.04.164-.031.134-.033.152-.027.131c-.011.048-.019.094-.028.142a3.493 3.493 0 0 0-.024.127c-.009.045-.016.089-.023.131-.02.121-.04.238-.056.349l.001-.001c-.025.172-.045.334-.061.481l-6.852-9.31a19.865 19.865 0 0 0-4.198 12.236C-19.961-8.958-11.003 0 0 0m0-39.941a19.865 19.865 0 0 0-12.674 4.555l5.38 7.311a15.05 15.05 0 0 1 1.411-2.161C-3.175-33.69.012-34.969.012-34.969s3.199 1.279 5.902 4.733a15.104 15.104 0 0 1 1.41 2.158l5.368-7.291A19.857 19.857 0 0 0 0-39.941m-20.392 19.972c0-11.261 9.151-20.421 20.404-20.421 11.26 0 20.416 9.16 20.416 20.421C20.428-8.707 11.272.449.012.449c-11.253 0-20.404-9.156-20.404-20.418" style="fill:#fff;fill-opacity:1;fill-rule:nonzero;stroke:none" transform="translate(243.783 80.494)"/></g><g style="fill:#fff"><path d="M0 0v-11.051s-.019-.397.049-1.069L8.967 0H6.529Z" style="fill:#fff;fill-opacity:1;fill-rule:nonzero;stroke:none" transform="translate(234.824 69.722)"/></g></g></g></svg>