<svg xmlns="http://www.w3.org/2000/svg" xml:space="preserve" width="227.41216" height="273.44281" viewBox="0 0 227.41216 273.44281"><path d="M128.852 246.572c50.016-37.159 73.76-104.042 73.76-104.042 26.875-69.991 23.55-125.465 23.55-125.465-57.358 8.239-96.97-4.713-97.31-4.824-.35.115-39.965 13.063-97.313 4.824 0 0-3.33 55.474 23.548 125.465 0 0 23.742 66.883 73.765 104.042" style="fill:#c99d66;fill-opacity:1;fill-rule:evenodd;stroke:none;stroke-width:.133333" transform="matrix(1.1669 0 0 1.1669 -36.65 -14.285)"/><path d="M128.852 15.723c6.639 2.001 42.783 11.725 93.975 5.101.009.625.017 1.3.017 2.081 0 15.756-2.032 62.687-23.453 118.47-.26.727-23.372 64.543-70.539 100.946-47.172-36.403-70.286-100.22-70.519-100.87C36.89 85.6 34.857 38.653 34.857 22.9c0-.781.007-1.45.014-2.076 51.135 6.613 87.323-3.103 93.981-5.101" style="fill:#002355;fill-opacity:1;fill-rule:evenodd;stroke:none;stroke-width:.133333" transform="matrix(1.1669 0 0 1.1669 -36.65 -14.285)"/><path d="M107.784 25.75v1.111h2.257v9.699s-.314 4.8 5.281 4.78c0 0 3.41.187 5.185-1.764 0 0-.142 1.813 1.155 1.764 0 0 2.013-.187 5.04-1.439l-.29-1.158s-1.07.481-1.826.369c0 0-.629.01-.623-1.16 0 0 0-10.161.288-13.316l-3.79 1.02v11.323s.107 2.548-3.891 2.553c0 0-3.08.039-3.074-3.435V24.636s-2.013.79-5.712 1.113M132.03 39.623c0 .873-.731 1.577-1.633 1.577-.9 0-1.635-.704-1.635-1.577 0-.87.735-1.578 1.635-1.578.902 0 1.634.708 1.634 1.578M149.65 39.623c0 .873-.733 1.577-1.635 1.577-.899 0-1.63-.704-1.63-1.577 0-.87.731-1.578 1.63-1.578.902 0 1.636.708 1.636 1.578M135.84 37.528l-1.683 2.479s1.452 1.445 4.904 1.398c0 0 6.207.36 6.576-5.186 0 0 .482-3.051-3.964-4.691 0 0-3.03-1.037-3.497-2.57 0 0-.595-2.72 2.363-2.72 0 0 2.033.043 2.02 1.171v1.411l1.072-.147.606-3.457s-8.257-2.639-9.268 3.604c-.062.59-.692 3.25 4.107 4.873 0 0 3.576 1.239 3.11 3.667-.198.979-.198 2.437-2.907 2.497 0 0-1.731.21-3.439-2.329M73.754 45.473s-4.793 1.387-9.147 1.926l.248 1.322 2.987.06s.55.032.56 1.142c0 0 .433 13.717-.033 22.556h16.236l.375-3.608s-3.545 1.714-11.103 1.624c0 0-.469-19.572-.123-25.022M97.577 70.539s-.112-5.566-.143-11.358c1.235.023 5.833.128 8.402.398 0 0 .048-1.758.189-2.615 0 0-6.223.579-8.599.452-.01-3.712.023-7.285.146-9.328 1.225.035 5.688.17 7.05.443 0 0 .805.124.748.904l.094 2.658h1.355s.7-5.097.838-6.042l-13.02.09s-1.583.315-2.33.451l-3.829.796c-.025.003-.048.003-.071.005v.01l-.01.002h.01l.244 1.315 2.989.059s.551.03.56 1.142c0 0 .34 12.456.015 22.558l16.703-.003.375-3.61s-4.156 1.76-11.716 1.673M181.148 70.539s-.112-5.566-.147-11.358c1.236.023 5.835.128 8.407.398 0 0 .044-1.758.184-2.615 0 0-6.219.579-8.596.452-.01-3.712.024-7.285.148-9.328 1.223.035 5.684.17 7.05.443 0 0 .805.124.746.904l.095 2.658h1.349s.703-5.097.843-6.042l-13.018.09s-1.589.315-2.336.451l-3.828.796c-.024.003-.048.003-.07.005l.003.01-.012.002h.012l.244 1.315 2.985.059s.553.03.564 1.142c0 0 .337 12.456.013 22.558l16.703-.003.375-3.61s-4.155 1.76-11.714 1.673M135.003 52.427l1.654-.222.831-5.492s-2.395-1.204-7.924-1.16c0 0-13.881-.285-13.986 14.954 0 0-.76 12.74 12.747 12.613 0 0 5.832-.032 8.664-2.412v-2.663s-2.75 3.006-7.647 3.006c0 0-6.728.442-8.358-9.903 0 0-1.546-13.361 8.668-13.55 0 0 3.004-.035 4.736 1.283 0 0 .528.327.564 1.23l.05 2.316M164.003 52.427l1.652-.222.833-5.492s-2.396-1.204-7.928-1.16c0 0-13.876-.285-13.981 14.954 0 0-.762 12.74 12.745 12.613 0 0 5.833-.032 8.664-2.412v-2.663s-2.75 3.006-7.645 3.006c0 0-6.73.442-8.36-9.903 0 0-1.543-13.361 8.668-13.55 0 0 3.001-.035 4.737 1.283 0 0 .53.327.561 1.23l.054 2.316M112.075 80.865v.994s1.305-.303 2.641-1.111v9.139s.033.993-.68 1.028h-1.41v.629h5.726l.006-.633s-1.98.172-1.964-1.024V79.276h-.396s-1.933 1.05-3.923 1.59M123.988 79.276s-3.857-.121-3.857 4.267c0 0-.217 3.938 3.857 3.488 0 0 1.244-.151 2.053-1.324 0 0-.061 4.569-5.194 5.533 0 0-.182.89.854.676 0 0 6.21-1.188 6.21-7.35 0 0 .539-5.293-3.923-5.29zm0 6.527c-1.237 0-2.238-1.28-2.238-2.863 0-1.577 1.001-2.855 2.238-2.855s2.24 1.278 2.24 2.855c0 1.583-1.003 2.863-2.24 2.863M136.713 85.444s.223-6.201-3.889-6.201c-4.116 0-3.885 6.201-3.885 6.201s-.347 6.457 3.885 6.457c4.23 0 3.89-6.457 3.89-6.457zm-2.246 4.59s-.392.969-1.615.966c-1.225.003-1.617-.965-1.617-.965-1.06-2.403-.566-7.062-.566-7.062.298-2.93 2.183-2.841 2.183-2.841s1.881-.09 2.179 2.841c0 0 .493 4.659-.564 7.062M142.967 84.813s2.11-1.06 2.11-2.924c0 0 .247-2.568-3.453-2.556 0 0-3.473-.078-3.515 3.336 0 0-.249 1.864 1.902 2.739 0 0-2.43.903-2.304 3.337 0 0 .06 3.184 3.546 3.156 0 0 4.351.126 4.231-4.028 0 0 .11-2.373-2.517-3.06zm-3.3-2.954c.114-1.803 1.934-1.759 1.934-1.759 1.962-.02 2.03 1.85 2.03 1.85.209 1.465-1.471 2.48-1.471 2.48-.383-.17-.928-.406-.928-.406-1.73-.665-1.565-2.165-1.565-2.165zm1.788 9.17c-2.379-.022-2.35-2.496-2.35-2.496-.044-1.645 1.754-2.75 1.754-2.75a10.163 10.163 0 0 1 2.088 1.097c1.058.617 1.036 1.632 1.036 1.632.013 2.659-2.528 2.517-2.528 2.517M175.507 123.548c-.559-.093-.327-.407-.327-.407 1.472-.077 1.448-.813 1.448-.813.21-1.193-.932-1.668-.932-1.668-1.845-.553-3.455 1.31-3.455 1.31-.233.269-.677.111-.677.111l-.259.811c-.558-.047-1.072.703-1.072.703-.846.189-1.257-.183-1.257-.183-.607-.54-1.59-.587-1.59-.587-.602-.27-.138-.362-.138-.362 1.683-.087 1.633-1.127 1.633-1.127 0-2.053-1.773-1.895-1.773-1.895.75-.402.784-.992.784-.992-.152-.62.535-.892.805-.63.348.338.875.486.875.486 1.024.359 1.13-.258 1.13-.258 0-.363.14-.634.14-.634.186-.045 1.211-.045 1.211-.045 1.168-.044.984-1.128.984-1.263 0-1.796-1.216-1.488-1.216-1.488-.232-.09-.094-.269-.094-.269.934-.18.422-.632.422-.632-.328-.453 0-.633 0-.633 1.772-.722 1.726-1.262 1.726-1.262.176-.768-1.372-1.614-1.542-1.714-.617-.362-1.728.136-1.728.136.238-.363.098-.812.098-.812-.14-1.522-1.96-1.624-1.96-1.624-2.976 0-4.995 3.788-4.995 3.788-.373.586-.373.756-.653.857-.663.243-.28.992-.28.992.293.552-.463.86-.463.86-.467.223-.519.628-.519.628a.877.877 0 0 0-.23-.45c-.42-.271-.232-.677-.232-.677.514-.586.328-.993.328-.993 0-1.759-2.523-3.02-2.523-3.02 0 .405-.515 1.039-.515 1.039-.617.584-.882 2.885-.882 2.885-.283.224-.283-.047-.283-.047-.115-1.126-.327-1.262-.327-1.262-1.468-1.738-3.31-1.082-3.31-1.082-.68 1.355.558 3.519.558 3.519.14.27.327.585.327.585 0 1.083.837 1.083.837 1.083.55.079.378.36.378.36-.142.316.138.585.138.585.419.362.419.814.419.814.21.629.653.134.653.134.283-.358.702.092.702.092.605.674 1.212-.092 1.212-.092-.094.18.23.542.23.542-.918.056-1.77 1.037-1.77 1.037-.327.587-1.446 1.352-1.446 1.352v1.173l-.186.046v-.632l-.56-.675v-1.4c-.9.044-1.167-.272-1.167-.272-.464-.495-.793-.495-.793-.495-1.026 0-.795.767-.795.767.14.359.14.585.14.585-.653.182-.327.631-.327.631.468.476 0 .41 0 .41-.734.078-.933.449-.933.449-.199.326.84.812.84.812.42.314.144.63.144.63-.423.767.65 1.576.65 1.576-.934-.085-1.353.274-1.353.274-.325-3.202-2.145-3.38-2.145-3.38-.095.586-.421.81-.421.81-.7.586-.98 2.75-.98 2.75-1.504-1.951-2.844-1.578-2.844-1.578-1.018.283-.47 2.615-.47 2.615l.186.048-.043.495.14.134.093.768c.514.227.836.676.836.676.05.768.236.72.236.72l.092.632c.235.183.884.043.884.043 1.546.995 1.354 2.123 1.354 2.123-.463.585-1.115 2.75-1.115 2.75-.376-.135-.843.227-.843.227-.138-.495.188-.766.188-.766.279-.769-.468-1.084-.468-1.084-.418-.225-.092-.452-.092-.452.28-.27.092-1.445.092-1.445-1.217.046-1.397-.629-1.397-.629-.376-.45-1.076-.226-1.076-.226-.617.306-.325.81-.325.81.468.567-.187.766-.187.766-.608.138-.23.589-.23.589.333.19.04.497.04.497-.651.135-.978.723-.978.723.092.901.887 1.037.887 1.037.09.18-.047.45-.047.45-.93 1.712.84 2.207.84 2.207l-.047.317c-2.145-.364-1.865 1.264-1.865 1.264-.699-.136-1.866 1.083-1.866 1.083.28-1.626.328-1.852.328-1.852.22.013.184-.359.184-.359.095-.631-.698-.948-.698-.948l-.092-1.668-1.107-.09c-.558-.84-1.43-.66-1.43-.66-.871.059-.439.78-.439.78.595.453 0 .603 0 .603-.62.058-.435.66-.435.66.063.3.063.54.063.54-.497 0-.808.483-.808.483-.185.3.25.48.25.48-.065.18.495.42.495.42.676.255.128.662.128.662-.374.121-.688-.18-.688-.18l-.932-.78-.185-.424-.265.235-.248.242c-.808.18-1.102-.115-1.102-.115-.23-1.528.559-2.643.559-2.643.216-.403.059-.485.059-.485-.432-.177.296-2.03.296-2.03.565-.9.934-.042.934-.042.514.813 1.12.452 1.12.452.606-.362.184-.77.184-.77-.512-.585 0-.766 0-.766.61-.269.375-.587.375-.587-.41-.418.047-.495.047-.495.502-.069.374.359.374.359-.293.375.046.678.046.678-.14.271-.015.557-.015.557.808-.122 1.181.3 1.181.3.624 1.025 1.679.422 1.679.422.61-.399 0-.722 0-.722-.247-.3.095-.424.095-.424.7-.357.328-.765.328-.765-.328-.405.186-.496.186-.496.827.046.746-.494.746-.494 0-.635-.51-.635-.51-.635-.728-.167-.513-.631-.513-.631.23-.448.183-.671.183-.671 0-.905-1.119-1.263-1.119-1.263-.328-.182-.185-.364-.185-.364.7-.313.137-.632.137-.632-.372-.406.187-.542.187-.542.621-.166.516-.541.516-.541 0-.45-1.308-.767-1.308-.767.325-1.08-.748-1.576-.748-1.576.233.09.604-.317.604-.317.188.721.89 0 .89 0 .422-.493.792-.676.792-.676.935-.316.514.228.514.228-.455.348-.463 1.399-.463 1.399-.421 1.214.417 1.169.417 1.169v1.264c.046.135.84.045.84.045.234.765 1.256.497 1.256.497.655-.137.143-.589.143-.589-.325-.27 0-.45 0-.45.748.224.23-.812.23-.812.587.01.609-.36.609-.36.188-.495-.61-.902-.61-.902.048-.406.846-.134.846-.134.162.472.838.629.838.629.374-.041.652-.63.652-.63.876.158 1.075-.451 1.075-.451.19-.632-.653-.584-.653-.584.09-.272-.19-.68-.19-.68.05-.27.655.045.655.045.328.635 1.17.183 1.17.183.138.494.98.766.98.766.51.136.605-.405.605-.405.045-.544.512-.272.512-.272 1.961.608 1.772-1.624 1.772-1.624 0-2.075-4.384-1.535-4.384-1.535 1.117-1.49 2.846-1.713 2.846-1.713.335.61.56.317.56.317.188-.453.372-.093.372-.093.187.724.932.633.932.633.516-.056.422-.674.422-.674.256.345.796.222.796.222 1.022-.133.742-1.757.742-1.757.28-.59-.14-.676-.14-.676-.464.047-.698-.09-.698-.09-.596-.518-2.238-.314-2.238-.314-.796-.05-.748.49-.748.49-.328 0-1.073-.04-1.073-.04-.327 0-.42.178-.42.178.464.228.325.677.325.677-.278.047-.486.532-.626.518-.47-.044-1.379 1.014-1.379 1.014-.14.092-.233-.222-.233-.222.56-.407 1.074-1.131 1.074-1.131.547-.957-1.12-1.484-1.12-1.484-1.4-.228-3.233 2.388-3.233 2.388-.608.777-.501 1.532-.501 1.532-.515.181-.884.947-.884.947l.088.27c-.51 0-1.024.18-1.024.18 1.26-.988.468-.945.468-.945-.328-.179 0-.361 0-.361 1.117-.462 1.224-1.026 1.224-1.026.278-2.03-1.832-3.8-1.832-3.8.28-.452.888-.045.888-.045.468.541.792.136.792.136.142-.27.742-.047.742-.047 1.298 1.199 1.591.543 1.591.543l.23-.767c1.845.483 1.962-.405 1.962-.405.375-1.31-1.025-1.939-1.025-1.939.326.088.842 0 .842 0 .742-.134.931.134.931.134.7.586 1.68.586 1.68.586.419 0 .373-.854.373-.854 2.286.313 2.331-.676 2.331-.676.408-1.84-2.659-2.302-2.659-2.302-1.702-.292-3.126 0-3.126 0-.85.179-1.679-.046-1.679-.046-.048-.538-.513-1.038-.513-1.038-.304-.405-1.215-.133-1.215-.133 1.123-1.353 1.823-1.085 1.823-1.085.35.329-.143.633-.143.633 0 .856.933 1.037.933 1.037.794.09 1.075-.226 1.075-.226.421-.315.7-.091.7-.091.464.407.933.09.933.09.651-.27.886-.046.886-.046.838.723 1.45.41 1.45.41.614-.227.416-.994.416-.994 2.052 0 1.68-.133 1.68-.133.091-.23.33-.23.33-.23.23.499.978.272.978.272.232.63.978.722.978.722.538.17.422-.407.422-.407 0-.315.232-.224.232-.224.338.215.884.224.884.224.786.103.655-1.127.655-1.127.045-1.802-2.799-1.846-2.799-1.846.606-.182.886-.408.886-.408.621.146.608-.27.608-.27.058-.462-.28-.677-.28-.677.941-.587.79-.855.79-.855-.184-1.221-1.162-1.174-1.162-1.174-.888-.067-1.728.496-1.728.496.092-.451-.747-.406-.747-.406.235-.09.235-.586.235-.586.057-.778-.794-.86-.794-.86-2.38-.27-1.916 2.664-1.916 2.664.235 1.125.094 1.714.094 1.714-.234-.047-1.074.09-1.074.09-.28-.09-.09-.317-.09-.317.233-.225.557-.45.557-.45.607-.362.328-.768.328-.768-.42-1.174-1.35-1.263-1.35-1.263-2.009-.144-3.314 2.616-3.314 2.616-.327-.044-.42.272-.42.272-.05.45.18.63.18.63-.413.135-.508.677-.508.677-1.773-.272-3.079 1.444-3.079 1.444-.096-.768.967-1.646.967-1.646.373-.634-.224-.834-.224-.834-.63-.136-.373-.587-.373-.587.328-.407.328-.81.328-.81.14-1.355-2.144-.951-2.144-.951-2.356.554-2.287 4.782-2.287 4.782-.653.046-.747-.449-.747-.449-.048-1.221-1.029-1.444-1.029-1.444-.464 0-.464-.407-.464-.407.837.044.933-.496.933-.496.091-.902.979-.948.979-.948.516.182.793-.358.793-.358.294-.508.047-.68.047-.68-.559-.63-.233-.764 0-.855.923-.361.863-.81.863-.81-.071-1.715-1.936-2.12-1.936-2.12-2.124-.384-3.59 3.02-3.59 3.02-.245.845-.422.814-.422.814a1.07 1.07 0 0 0-.514.537c-.606-.945-3.22.86-3.22.86-.094-.496.559-1.264.559-1.264.513-1.037-.28-.946-.28-.946-.462-.047-.697-.316-.697-.316 0-.633-.095-1.533-.095-1.533-.141-.586-1.537-.586-1.537-.586-2.897.27-1.73 4.33-1.73 4.33a1.242 1.242 0 0 1-.372-.227c-.327-1.488-1.587-1.806-1.587-1.806-1.237-.348-1.681.902-1.681.902-.56 2.302 2.286 4.917 2.286 4.917.05.63.655.721.655.721.655 0 .467.496.467.496-.374.363-.841 1.807-.841 1.807-.139-.453-1.073-.227-1.073-.227-.326-1.533-1.26-1.76-1.26-1.76-1.422-.472-1.96.86-1.96.86-.559 1.891 1.867 4.51 1.867 4.51-.884.043-2.145 1.214-2.145 1.214-.887.36-.7.95-.7.95-.373-.09-.419.27-.419.27-.515-1.49-2.707-1.309-2.707-1.309-.886.09-.981-.181-.981-.181-.699-.542-2.193-.587-2.193-.587.234-.315.748-.81.748-.81 1.071.091 1.163-.137 1.163-.137.935.182.747-.405.747-.405-.232-1.173.048-1.036.048-1.036.186.225.653.181.653.181.605.044.514-.497.514-.497-.036-.44.466-.36.466-.36h1.308c1.68-.036 1.353-2.616 1.353-2.616.012-.755-2.38-1.127-2.38-1.127 1.551-.688 1.526-1.256 1.586-1.534.372-1.759-1.074-2.075-1.074-2.075-1.234-.293-3.266.54-3.266.54-.372-1.261-1.352-1.44-1.352-1.44-.667.008-1.215.719-1.215.719-.416-.719-1.118-.719-1.118-.719-.795 0-.84 1.08-.84 1.08-1.307-.044-1.167.767-1.167.767-.2.372-.654.136-.654.136-.618-.304-.885-.136-.885-.136-.633.393-.187 1.128-.187 1.128.138.225.046.81.046.81-.561-.045-1.212.903-1.212.903l-.093-.767c-1.354-.316-1.354-1.669-1.402-1.804-.156-.456-.561-.044-.561-.044-.464.451-.932.088-.932.088-.583-.28-1.071.18-1.071.18-.62.746 0 1.04 0 1.04.466.224.232.54.232.54-.515.36-.048.675-.048.675.959.656.282.63.282.63-.142-.043-.466.105-.466.543-.423.948-1.213.452-1.213.452a6.661 6.661 0 0 0-1.309-.54c-1.492-.133-1.585 1.668-1.585 1.668 0 1.836 5.364 3.067 5.364 3.067-1.257.63-.186 1.125-.186 1.125.442.286.231.77.231.77-.325 0-.696.45-.696.45-.14.135-.328.135-.513.09-.914-.22-1.073 0-1.073 0-.28.168-.421 0-.421 0a1.687 1.687 0 0 0-1.027-.678c-.746.046-1.073 1.446-1.073 1.446l-.842-.047c.306-.833-1.33-1.577-1.33-1.577.19-1.036-.253-1.083-.253-1.083.081-.339-.142-.63-.142-.63-.372-.365-.652-.138-.652-.138s.091.148-.14.181c-.328.044-.42-.136-.42-.136-1.119-.969-1.727-.585-1.727-.585-1.015.517-.374.947-.374.947.467.45.187.856.187.856-.513.405.095.904.095.904.407.381 0 .676 0 .676-.735.258-.702.585-.702.585-.07.655 1.075.992 1.075.992.372.181.465.361.465.361-.325.902.518 1.714.56 1.894.14.585-.977.181-1.165.317-.382.273-.77.09-1.121.133-.091.722-.982 1.172-.982 1.172-.698.044-1.351.498-1.351.498-.888.09-.515.588-.515.588.515.404.14.722.14.722-.862.855-.371 1.624-.371 1.624.63.684 1.26-.14 1.26-.14.28-.358.793-.224.793-.224-.012.224.42.182.42.182.373-.047.56-.406.56-.406.934-.18.794.224.794.224-1.169.318-1.308.858-1.308.858 0 1.036-1.213 1.441-1.213 1.441-.7.271-.188.903-.188.903.375.318.094.767.094.767-.561 1.017.374 1.488.374 1.488.467.137.7-.449.7-.449.14-.316.42-.226.42-.226.608.272.7-.09.7-.224 0-.647.607-.319.607-.319.017.026.046.068.09.137.19.27.564.27.564.27.556 0 .514-.947.514-.947-.095-.767.417-.722.417-.722.817-.17.933-.724.933-.724.237-.449.56.136.56.136.375.903 1.261.721 1.261.721.724-.086.654-.54.654-.675v-.768c.931-.404.559-.81.559-.81-.279-.493.372-.589.372-.589.539-.008.654-.357.654-.357.188-.765-.512-.947-.512-.947-.42-.224-.187-.45-.187-.45 1.165.09 3.174 1.441 3.174 1.441-.562.093-.98.587-.98.587-1.681-.09-1.822.676-1.822.676-.046.766.887.721.887.721-.186.631.234.723.234.723.896.089.372.587.372.587-.606.45-.092.72-.092.72l.7.225-.98-.133v.223c0 .226-.328.95-.328.95-.699.857-1.072 1.484-1.072 1.624 0 1 .747.72.747.72.164-.296.701-.136.701-.136-.423.09-.515.585-.515.585-2.053.135-2.053 1.354-2.099 1.489-.547 1.58-1.775 1.22-1.775 1.22-.138-.407.047-1.173.047-1.173-1.165-.497-1.305-2.393-1.305-2.393-.981-.09-1.773-.99-1.773-.99-.361-.397-.886-.451-.886-.451-.7-.092-.469.451-.469.451.28.271.235.63.235.63-.467.135-.091.632-.091.632.136.09.044.402.044.402-.327-.043-.606 0-.606 0-.441.25.093.634.093.634.548.419.932.947.932.947-.327 1.218 1.028 1.898 1.028 1.898-.49.155-1.166-.09-1.166-.09-.28-.09-.28-.137-.514-.181-.552-.11-1.54.72-1.54.72-1.166-.134-1.728.046-1.728.046 0 .627-.978 1.127-.978 1.127-1.725.54-1.447 1.667-1.447 1.667.42.136.796-.092.796-.092.045-.136.51 0 .51 0 .093.726.702.364.702.364.09-.136.278 0 .278 0-.14.633.232.9.232.9.42.27 1.401-.813 1.401-.813.513-.36.794-.087.794-.087.233.495 1.26-.048 1.26-.048.14.589-.091.904-.091.904-.469.226-.656.858-.656.858-.513.405-.093.813-.093.813.466.405.233 1.032.233 1.032-.233 1.987.747 1.987.747 1.987.559-.046.515-.942.515-.942.932.31.792-.456.792-.456-.047-.452.42-.178.42-.178-.013.45.513.402.513.402.559-.043.325-1.981.325-1.981 1.39-.529.955-3.384.955-3.384-.046-.27.156-.147.156-.147.464 1.623 2.2 1.452 2.2 1.452.237.68.843.948.843.948.28.497.746.095.746.095.512-.318 1.308-.095 1.308-.095.885.587 1.26 0 1.26 0 .64.047.606-.314.606-.314.14-.634-.702-.677-.702-.677-.245-.046-.187-.27-.187-.27.598-.69-.14-.676-.14-.676-.653-.036-.325-.407-.325-.407.608-.315.513-.678.513-.678 0-.54-1.354-.403-1.354-.403-.603.191-.651-.226-.651-.226-.188-1.441-2.943-1.441-2.943-1.441 1.447-.317 1.775-1.309 1.775-1.309.782.078 1.074-.497 1.074-.497 1.121-1.715 2.148-1.489 2.148-1.489-.05.721.558.765.558.765.699.09 1.306-1.124 1.306-1.124l-.047 1.08c-.329.044-.7.857-.7.857-.608.317-.094.678-.094.678.14.134.189.588.189.588-.13 2.137.652 1.936.652 1.936.49-.01.374-.312.374-.312 0-.453.232-.453.232-.453.933.27.656-.316.656-.316 0-.224.277-.27.277-.27-.046.27.841.316.841.316.327-.09.234-1.671.234-1.671 1.492-.675 1.026-1.76 1.026-1.76.374-.584 1.68-.673 1.68-.673.662-.057.652.404.652.404.23.587 1.166.36 1.166.36 0 .316.889.861.889.861 0 .177.23.403.23.403.466-.091.656-.403.656-.403.326-.23 1.119-.093 1.119-.093.561.066.7-.272.7-.272.7-.945.094-.856.094-.856-.653-.103-.606-.539-.606-.539-.035-.386-.047-.497-.047-.497-.326-.497.185-.364.185-.364.096-.176.42.049.42.049 1.213.045.933.133.933.133 0 .182.374.049.374.049-.047-.318.372-.407.372-.407 2.616.811 6.953.583 6.953.583.21-.29 1.307-.134 1.307-.134l.326.134c.513 0 .7.271.7.271.422.451.795.677.795.677 1.634.36 1.772 3.34 1.772 3.34-.556.45-.093 1.082-.047 1.307.005.015.005.022.007.03l.04.103c.152.393.837.228.837.228.794.27 1.358 1.576 1.358 1.576.089.227.089.677.089.677-.139-.27-.7-.811-.7-.811a2.245 2.245 0 0 1-.554-.453c-.33-.133-.795.271-.795.271h-.56c-.095-.317-.933-.134-.933-.134l-.28.18c-.212-.383.046-1.126.046-1.126.326-.904-.233-.992-.233-.992-.141-.135-.375-.406-.375-.406v-1.49l-1.026-.044c-.935-1.22-1.914-.678-1.914-.678-.476.475.046.905.046.905.14.089-.046.495-.046.495-.697.271-.28.676-.28.676.186.091-.045.407-.045.407-.983.041-.936.627-.936.627.024.455.981.948.981.948v.135h-1.867c-.046-.9-.231-1.756-.231-1.756-.69-.9-.794-1.625-.794-1.625-.05-.677-.793-.677-.793-.677-.34-.008-.325-.404-.325-.404-.048-.544-.468-.768-.468-.768-.095-.496-.327-.496-.327-.496-.222-.045-.422.179-.422.179l-.605-.09c-.046-.27-.42-.224-.42-.224-.804-.316-1.075.271-1.075.271-.187.674.516 1.037.516 1.037.325.091 0 .45 0 .45-.374.406.325.815.325.815.093.18 0 .449 0 .449l-.279.184c-.793-.094-.793.223-.793.223-.186-.044-.423.182-.423.182-.079.235-.463.045-.463.045-.092-.361-.746-.227-.746-.227-.024-.181-.42-.181-.42-.181-.887.055-.609.858-.609.858-1.26.086-1.164.9-1.164.9-.023.665 1.071.584 1.071.584.14.093-.046.451-.046.451-.375.272-.606.633-.606.633.047-.27 0-.948 0-.948-.188.048-.746-.087-.746-.087-1.96-.317-2.8 0-2.8 0-1.214.087-1.308.222-1.308.222h-.465c-.887-.043-1.495.948-1.495.948-.372-.092-.979.272-.979.272-.14-.046-.793.088-.793.088-.188.135.139.589.139.589.14.132.045.451.045.451-.359-.033-.51.631-.51.631-.142.914.577.935.577.935.962.169.962-.08.962-.08.187-.404.84-.178.84-.178.305.314.887-.045.887-.045.068-.282.651-.046.651-.046-.138.046-.184.27-.184.27-.233 0-.619.1-.619.1-.092.318-.735.306-.735.306-.468.315-.468 1.443-.468 1.443-.885.449-1.165 2.166-1.165 2.166.093.359.605.225.605.225.095-.316.56-.273.56-.273.046.36.513.36.513.36.048-.177.42-.36.42-.36v.632c.048.384.33.45.33.45.42.05.9-.993.9-.993.374-.6.685-.6.685-.6.746.482.312 1.384.312 1.384-.312 1.305.985 1.467.985 1.467.44.02.437-.362.437-.362.062-.612.56-.543.56-.543h.497c.322 0 .32-.562.32-.562-.007-.273.435 0 .435 0 0 .183.582.34.582.34.525.221.476-.4.476-.4v-.904c0-.239.336-.27.336-.27l.125 1.202c1.046.26 1.406.757 1.406.757.834 1.364 1.827.827 1.827.827.23-.349-.15-1.25-.15-1.25.414.293.56-.18.56-.18-.124-.363-.25-.64-.25-.64-.064-.36.186-.18.186-.18.184.124.87 0 .87 0-.124-.18.067-.505.067-.505l.248.12c.186.54 1.618 1.266 1.618 1.266.766.321.935.66.935.66.434.709 1.137.909 1.137.909.496.178.729.773.729.773.148.911 1.232 1.134 1.232 1.134l.009.31c-.31-.062-.558.357-.558.357-.468.192-.561.425-.561.425-.323.219-.082.645-.082.645.747.644.27 1.037.27 1.037-.497.183.124.905.124.905.505.744.994.36.994.36.064-.482.498-.84.498-.84.062.179.747.119.747.119.061-.663.62-.663.62-.663 0 .241.625.362.625.362l.311-.18c0 .361.871.842.871.842.623.78.124 1.804.124 1.804-.622 1.14-.559 1.807-.559 1.807.064 1.737-.249 1.737-.249 1.737-.164.615.497 2.107.497 2.107.145 1.35-.311 1.625-.311 1.625-.559.479-.06 1.324-.06 1.324 0 .782-.063 1.26-.063 1.26-.063.342.064.724.064.724-.563 1.021-.25 2.162-.25 2.162.098.792.123 1.506.123 1.506-.312.36-.123 1.023-.123 1.023.158.262.25.717.25.717-.25.663-.064 1.809-.064 1.809a229.772 229.772 0 0 1-3.86-.664c-.56-.107-1.181-.42-1.181-.42-2.313-.38-3.97-1.622-4.23-1.806-1.173-.826-2.737-1.864-2.737-1.864-1.076-.765-3.101-.738-3.101-.738.432-1.777-.24-2.87-.24-2.87-.133-.215-.374-.183-.374-.183-.56.064-.7.904-.7.904-.04.474-.253.783-.253.783-.31.45-.518 1.113-.518 1.113-.187-.061-1.595-.032-1.595-.032a2.473 2.473 0 0 0-.407-.705c-.044-.646-.28-.856-.28-.856-.277-.138-.744-.631-.744-.631-.374-.273-.605.044-.605.044-.593 1.17.23 2.436.23 2.436-.84.046-1.304.72-1.304.72-.188.36-.656.768-.656.768l-.046.452c-.186.222-1.027.719-1.027.719-.557.23-.513.946-.513.946-.124.738-1.026 1.083-1.026 1.083-1.96.904-1.96 1.533-1.96 1.533 0 .906.373.859.373.859a.638.638 0 0 0 .284.405v.314l.276.093c.14.226.978.124.978.124l.237-.124c0 .178.325.178.325.178.218 0 .32.003.535-.07.092-.225.726-.108.726-.108.158.408.992.29.992.29.14-.182.502-.158.502-.158l.232.14c.233 0 .653-.094.653-.094.372-.27 1.215-.673 1.215-.673.37.046.79 0 .79 0 .093-.229.56-.27.56-.27.89-.018 1.209.19 1.209.19a3.674 3.674 0 0 1 1.19 1.305c.667 1.277 2.05 2.236 2.05 2.236.51.332.706.716.706.716.61.922.929.877 1.012 1.047.686 1.39.92 1.076 1.213 1.515a2.212 2.212 0 0 0 1.394 1.062v.36l.138.271c-.371.36-.746.945-.746.945-.931-.044-2.005.77-2.005.77-.478.316-1.353.226-1.353.226-1.821.09-2.894 1.845-2.894 1.845-.995 1.527-.98 2.529-.98 2.529-.642.435-.606.99-.606.99-.98.814-.607 1.762-.607 1.762.183.279.186.762.186.762-.091 1.354.421 1.49.421 1.49l.14.68c.078 1.036 1 .627 1.058.836.053.188.342.106.342.106.473-.025.374-.358.374-.358.279-.18.138-.45.138-.45-.047-.23.049-.453.049-.453.282-.3.045-.719.045-.719.232-.194.232-.543.232-.543.095-.722-.232-.95-.232-.95.14-.086.092-.495.092-.495.329-.178.14-.854.14-.854-.14-.364.046-.724.046-.724.28-.225.188-.674.188-.674.665-1.096 1.585-1.336 1.585-1.336.521-.173.76-.608.76-.608 1.448.046 2.181-.315 2.181-.315.678-.237 1.166-.314 1.166-.314.887-.088 1.728-.857 1.728-.857.607-.497.747-.18.747-.18.56 2.436 1.212 3.068 1.212 3.068a1.17 1.17 0 0 1-.051.712c-.234.589-.004 1.497-.004 1.497.466.185.944.858.944.858.079.557.057 2.407.057 2.407l.26.153c-.173.217-.134.957-.134.957.005.827-1.41.587-1.41.587-1.68-.092-1.388 1.083-1.388 1.083-.935.177-.748 1.616-.748 1.616l2.77-.02c1.067.133 1.057-.113 1.057-.113.659.122.768-.302.768-.302l.26-.732c.324-.223.61-.487.61-.487-.094-.449-.074-1.23-.074-1.23.373-.046.7-.541.7-.541-.047-.363.161-.402.161-.402.11-.159.047-.634.047-.634 0-1.036-.355-1.37-.355-1.37-.892-.785-.344-1.83-.344-1.83.173-.301.152-.62.152-.62-.026-.51-.2-.644-.2-.644.091-1.213-.139-1.49-.139-1.49-.187-.132-.234-.626-.234-.626v-1.266c-.89-1.041.366-1.801.366-1.801.312-.211.707-.406.707-.406h1.774v1.188l-.022.23c-.152.053-.166.428-.166.428-.008.66.181.619.181.619v.77c-.42.178-.132 1.814-.132 1.814 0 .315.008.557.008.557-.261 1.153.108 1.197.108 1.197l.023 1.002.079-.007v.407l-.123.23c.11.805-.197 1.044-.197 1.044-.485.472-.272 1.554-.272 1.554l.167.102v.542l-.15.03c0 1.217-.718 2.27-.718 2.27-.467.36-.747 1.267-.747 1.267-.56.089-.886.63-.886.63-.372.361-.746.406-.746.406-.51 1.08-2.098 1.261-2.098 1.261-2.102.361-3.315.497-3.315.497-.56.676-2.24.541-2.24.541-.045.135-.51.497-.51.497-1.403 0-2.286.811-2.286.811-.61.091-2.662.135-2.662.135-1.213.09-1.868.857-1.868.857l-.138.047c-1.168-1.31-2.051-1.085-2.051-1.085l-.05-.63c-.419-.09-.511-.812-.511-.812h-.282c-.155.691.466 1.942.466 1.942 0 .45.89.313.89.313.37.136.42.63.42.63-1.03.047-1.17.496-1.17.496-3 .572-3.361 1.714-3.361 1.714 0 .587.472.408.472.408.169-.84 2.61-1.535 2.61-1.535.516.046.701-.182.701-.182 1.71-.026 2.145-.765 2.145-.765l.98.046c.092-.226.607-.587.607-.587.592.15 1.587.089 1.587.089-2.134 1.053-2.102 1.94-2.102 1.94-1.181.601-.791 1.537-.791 1.537-.047.403-.14.54-.14.54-.25.54-1.276 1.066-1.276 1.066-.187-.048-.468.18-.468.18-.932-.043-1.104.692-1.104.692-.466.09-.325.752-.325.752h.574c.048-.585 1.246-1.114 1.246-1.114a3.903 3.903 0 0 0 1.446-.496c.14-.406.42-.811.42-.811.325-.317.325-.857.325-.857.093-.767.608-1.128.608-1.128.792-.541 2.802-2.254 2.802-2.254.558-.136.931-.406.931-.406.28.045 1.541-.046 1.541-.046.093-.18.746-.541.746-.541 2.005 0 2.19-.361 2.19-.361.608-.18 1.542-.045 1.542-.045-.279.225-2.1.857-2.1.857-1.075.362-2.006.767-2.006.767-1.93.239-1.82 1.216-1.82 1.216-.84.363-.607 1.58-.607 1.58-.56.225-.56.992-.56.992-.42.093-1.072.452-1.072.452-2.006.148-1.821 1.891-1.821 1.891-.42.228-.793.861-.793.861-.467.178-.326.99-.326.99-.186.045-.25.542-.25.542h.438l.138-.36c.157-1.205 1.12-1.533 1.12-1.533.185-.23.388-.42.388-.42.233-1.326 1.243-1.34 1.243-1.34.222.15.064.493.188.586.346.247 0 1.174 0 1.174-.419.043-.278.9-.278.9-.233 0-.096.54-.096.54.329.045.42-.406.42-.406.374-.088.234-.808.234-.808.236-.093.278-.455.278-.455.332-.18.189-1.849.189-1.849 1.587-.54 1.354-1.532 1.354-1.532 1.12-1.985 1.817-1.894 1.817-1.894.608-.045.702-.136.702-.136 0-.361.327-.361.327-.361h.187c-.187.633.372.543.372.543l-.094.222c-.512.363-.186.723-.186.723v.182c-.978.632-.7 1.217-.7 1.217-.326.091-.608.674-.608.674-.371.093-.232.497-.232.497l.187.095.235-.181c.14.044.418-.138.418-.138.139-.583.794-.992.794-.992l.092-.54c.327-.045.609-.542.609-.542l.092-1.85h1.213c.142-.36 2.009-.854 2.009-.854.84-.091.98-.5.98-.5.045-.63.372-.493.372-.493 1.026-.18.932-.722.932-.722l.184.047c0 .944-.277 1.305-.277 1.305-.557.179-.839.903-.839.903-.655.27-.371 1.353-.371 1.353-1.73-.091-2.056 1.172-2.056 1.172-.326.09.047.679.047.679v1.034c-.234.09-.653.539-.653.539-1.541 0-1.356.994-1.356.994l-1.49 1.265c-.423.222-.327.765-.327.765h.28c-.141-.362.651-.585.651-.585.514.042.886-.768.886-.768.374-.178.748-.633.748-.633 0-.179.235-.358.235-.358.56.043.933-.226.933-.226.139-.81.56-.81.56-.81.264.012.278-.318.278-.318l.096-1.26c.326-1.176 1.4-.635 1.4-.635 0 .18.092.271.092.271v.364c-.233 0-.28.448-.28.448-.03.51.188.497.188.497l-.097 1.579c-.465.586.33 1.303.33 1.303.09.183.048.997.048.997-.329.044-.329.947-.329.947-.185 0-.372.18-.372.18-.98-.048-.935.676-.935.676-.56.15-.746.946-.746.946-.157.095-.078.754-.078.754l-.17.12-.031.632c.356-.049.482.01.482.01.125-.024.076-.834.076-.834.312.115.467-.861.467-.861.437-.072.561-.404.561-.404.374.041.515-.136.515-.136.09-.272.37-.047.37-.047-.046.633.33.9.33.9l.042 1.31.187.133.097.546h.231c.277-.767-.093-.996-.093-.996l.049-.27c.278-.492-.049-.762-.049-.762 0-1.041-.094-1.268-.094-1.268-.233-.764.28-1.442.28-1.442.327-.543.141-.992.141-.992l-.19-.139c.049-.179.049-.445.049-.445-.56-.589-.42-1.174-.42-1.174.283-.137.234-1.847.234-1.847.234-.18.234-2.574.234-2.574.109.36.558.407.558.407.233 0 .28.36.28.36-.094.751.327.725.327.725.516.059.419-.23.419-.23l-.186-.132c-.046-.228-.14-.318-.14-.318l-.048-.723c-.931-.853-.42-1.125-.42-1.125.188.044.375-.451.375-.451-.046-.453.187-.587.187-.587.466-.451.607-.81.607-.81-.093-.406.092-.544.092-.544.283.092.468-.494.468-.494l.093.676c-.046.27.186.492.186.492v.726c.186 0 .186.54.186.54-.372.182-.186.724-.186.724l.186.089-.044 1.441c-.328.181-.188 1.04-.188 1.04l.232.135s.143.343-.067.473c-.33.202-.305.788-.305.788l.14.317c-.186.044-.186.45-.186.45-.281.339-.164 1.781-.164 1.781-.42.318-.351.878-.351.878l.14.274c-.654.947.047 1.442.047 1.442l-.047.812.234-.18.187-.046v-1.037c-.374-.09-.233-.633-.233-.633.465 0 .277-.632.277-.632h-.184v-.133c.793-.768.512-1.716.512-1.716l.236.137c.372.047.794.679.794.679.046.223.372.223.372.223.422.043.374.677.374.677l.326.046.094-.269-.232-.049.047-.763-.422-.137c-.417-.948-1.308-1.263-1.308-1.263l.046-1.444c.234 0 .325-.585.325-.585.074-.473.05-2.257.05-2.257.608-.18.421-1.351.421-1.351-.047-.811.279-.858.279-.858.562-.195.61-1.037.61-1.037.434-.633.556 0 .556 0 .093.676.37.634.37.634.145 0 .376.107.284.651-.13.758.376.904.376.904.183.924-.143 1.736-.143 1.736-.608.359-.47 1.125-.47 1.125l.237.136v1.353h.183v.135c0 .271-.09.902-.09.902-.19.043-.232.497-.232.497-.188.27.139.54.139.54l.092.815c-.092.672.234 1.035.234 1.035.233.498.186 1.219.186 1.219-.467.403-.42 1.576-.42 1.576-.188.044-.467.498-.467.498v1.665h.515l.043-1.577c.281-.042.281-.22.281-.22.095-.41.56-.186.56-.186l.517.364c0 .495.838.676.838.676l.137.495h.33v-.633l-.282-.136c-.56-1.214-1.68-1.442-1.68-1.442l.046-.677c.28.046.28-.36.28-.36.188-.517 0-1.126 0-1.126-.233-.136-.14-.452-.14-.452.094-.36.89-.047.89-.047l.277.181.187.272c.328-.044.422.362.422.362.327.36.932.315.932.315 0 .27.28.407.28.407.14.765.655.765.655.765 0 .18.559.494.559.494l.09.183h.377l-.048-.271c-.514-.046-.558-.586-.558-.586-.466-.091-.608-.54-.608-.54.048-1.039-1.072-1.129-1.072-1.129-.607-.179-.793-.586-.793-.586.138-.494-1.354-.95-1.354-.95-.842-.449-.562-1.037-.562-1.037.28-.043.233-.493.233-.493.233-.27.233-.631.233-.631.096-.495-.325-.678-.325-.678.092-.132-.048-.9-.048-.9.42 0 .233-.544.233-.544.47-.132.328-.539.328-.539-.047-.406.143-.406.143-.406.37-1.128.042-2.572.042-2.572-.185-.36-.092-.677-.092-.677.278 0 .233-.314.233-.314-.045-.632.327-.54.327-.54-.048.225.328.404.328.404l.137.316c.048.498.19.678.19.678.28.089.28.542.28.542l.187.177.092 1.173c.188.047.282.676.282.676l-.048.993.28.046-.045.225c-.142-.046-.235.179-.235.179-.374.135-.28.59-.28.59-.142 0-.324.403-.324.403l-.049 1.76.327.045.092-1.129c.048-1.173 1.027-1.216 1.027-1.216l-.046 1.487h.234c.093.227 0 .858 0 .858-.092.223-.047.72-.047.72l.187.091.093 1.04c.186.45 1.072.537 1.072.537l.186.451c.654.272 1.118 1.04 1.118 1.04 0 .903.374.944.374.944-.094.227.186.722.186.722l.422-.085c-.282-.274-.186-1.041-.186-1.041 0-.273-.141-.588-.141-.588-.605-.313-.933-1.443-.933-1.443h-.464l-.092-.268c.464.133 1.257.087 1.257.087.095.23 1.12.274 1.12.274 0 .313.89.269.89.269.604 0 .792.452.792.452l.141 1.756.28.044.14-1.62c.607-.045 1.117.449 1.117.449.047.182.394.275.394.275.308-.02.448-.093.448-.093-.42-.856-1.959-1.174-1.959-1.174-.935-1.082-3.784-1.442-3.784-1.442-.187-.223-1.557-.247-1.557-.247.185-.496-.027-1.288-.027-1.288-.652-.629-.512-3.153-.512-3.153-.747-.592-.701-2.347-.701-2.347-.558-.655-.888-1.668-.888-1.668-.14-.676-.091-.994-.091-.994h.186c0 .225.14.407.235.589.25.484 1.026 1.35 1.026 1.35.138.77.324 1.624.324 1.624.514.137.982.768.982.768.232.902 2.052.946 2.052.946l.139.18-.277.045v1.896l.184.178c.048.858.373.768.373.768v.405l.7.046c-.093-.408-.607-.77-.607-.77l-.093-.627c-.233-.091-.187-.544-.187-.544l.187-.043v-.856c0-.498.375-.318.375-.318.325.227.186.454.186.454l.934.136c.933 1.398 2.286.944 2.286.944l.046.27c-.187.585.186 1.039.186 1.039-.048.27.33.495.33.495s-.143-.18.137.089c.279.275.232 1.129.232 1.129h.584c-.187.427.77.36.77.36.607 0 .84.95.84.95.094.225.513.02.513.02-.139-1.171-1.494-1.556-1.494-1.556-.978-.029-.836-.585-.836-.585.046-.587-.238-1.128-.238-1.128-.371-.271-.324-.767-.324-.767.652-.135 1.772.138 1.772.138 0 .314.421.675.421.675.327 0 .42.357.42.357.468.997 1.867.862 1.867.862.076.614.84.583.84.583.529.075.745.496.745.496.748-.045.703.497.703.497 0 .227.372.135.372.135 0-.992-1.918-1.805-1.918-1.805.282 0 .471-.135.471-.135.095-.315.42 0 .42 0 .232.272 1.26.049 1.26.049.092-.275.607-.095.607-.095.09.18.418.046.418.046-.094-.856-1.306-.633-1.306-.633-.184.185-.747.049-.747.049-1.213-.723-1.865.226-1.865.226-.282.087-.56-.137-.56-.137-.094-.587-.936-.856-.936-.856-.371-1.623-2.332-1.4-2.332-1.4-2.47-.044-2.796-.854-2.796-.854.421-.138 1.398.088 1.398.088.22.15.374 0 .374 0 .188-.226 1.162-.088 1.162-.088.235.179 1.403.179 1.403.179.093.134.79.268.79.268.237.453.89.184.89.184.047-.272.419-.184.419-.184.61.048.374-.495.374-.495-.233 0-.656.182-.656.182-.836.136-.512-.722-.512-.722.232-.181.19-.63.19-.63-.375-.05-.42.495-.42.495-.187-.046-.47.27-.47.27-.09.315-.325.225-.325.225-.327-.584-2.428-.36-2.428-.36-.745-.224-2.985-.089-2.985-.089-.839-1.218-2.1-.95-2.1-.95-1.524-.349-1.538-1.396-1.538-1.396.046-.723-.888-1.488-.888-1.488-.465-.723.42-.405.42-.405.375.044.699.494.699.494h1.072c.19.498.795.587.795.587l1.354.089c2.052 1.357 2.894.812 2.894.812.185-.227.652-.134.652-.134.188.405 1.025.315 1.025.315.279.406 1.075.45 1.075.45 1.041-.36 1.026 0 1.026 0 .126.327.606.364.606.364.933.133 1.212-.45 1.212-.45 2.706 1.62 3.594 1.121 3.594 1.121.219-.057.14-.358.14-.358-2.522-.18-3.594-1.486-3.594-1.486l-3.311-.049c-.704-1.08-2.939-.763-2.939-.763-.42.043-.838-.182-.838-.182-.747-.18-1.542-1.037-1.542-1.037l-1.354-.091c-.187-.226-1.215-.812-1.215-.812l-.092-.497c-.047-.494-1.96-.945-1.96-.945-.792-.362-.837-.407-.837-.407-.374-.763-1.216-1.532-1.216-1.532l-.14-1.217c-.419-.767-.673-1.377-.673-1.377-.372-.541-.183-1.576-.183-1.576-.374-.272-.31-.927-.31-.927.187.048.232-.361.232-.361.09-.865.189-1.714.189-1.714-.272-.108-.096-.495-.096-.495.107-.31.05-.496.05-.496.372-.362 0-.81 0-.81-.33-.364-.097-.768-.097-.768.24-1.022.045-1.936.045-1.936-.174-.5.003-.862.003-.862.19-.36.14-.45.14-.45-.14-.45 0-.903 0-.903 0-.177-.045-.494-.045-.494.185-.136.698-.047.698-.047.142.226 1.403.137 1.403.137l.419.227c2.986.073 3.664 3.198 3.664 3.198.326 1.129.861 1.398.861 1.398-.093.779.233.815.233.815.7.362.655.632.655.632.232.582-.05 2.697-.05 2.838.006.59-.56.676-.56.676-.698.09-1.305.182-1.305.182-1.82.09-1.586 1.127-1.586 1.127-.654.134-.562 1.638-.562 1.638 1.015.03 3.366 0 3.366 0 .246-.261.276-.51.276-.51.725.06.701-.63.701-.63 0-.588 1.119-1.13 1.119-1.13.877-.255.84-.677.84-.677.034-.636.404-.81.404-.81.402-.381.238-1.317.238-1.317-.51-.049-.36-.533-.36-.533.135-.45 0-.854 0-.854-.562-.632-.282-1.447-.282-1.447.19-.354.11-1.3.11-1.3.947-.12 1.566-.728 1.566-.728.218.824.424 1.126.424 1.126 1.818 2.92 5.226 3.066 5.226 3.066.51.245 1.106.184 1.106.184.688.672 1.858.476 1.858.476.2.653.475.464.604.753.047.602.546 1.278.546 1.278-.047 1.825-.29 1.866-.29 1.866-.42.07-.697.259-.697.259-1.704.01-1.605 1.099-1.605 1.099 0 .79.816.63.816.63-.116.634.974.533.974.533.027.664 1.136.153 1.136.153.38-.217.664-.228.664-.228 1.562-.351 1.012-1.396 1.012-1.396.576.022.5-1.3.5-1.3l-.184-.02c-.142-.49-.189-1.506-.189-1.506a7.998 7.998 0 0 0-.321-.572c.092-1.356-.58-1.478-.58-1.478.045-.902-.094-1.216-.094-1.216-.217-.926-1.852-.864-1.852-.864-.418-.815-1.538-1.083-1.538-1.083-.406-.136-.375-.634-.375-.634.035-.36-.512-.99-.512-.99-1.273-1.65-.61-3.12-.61-3.12 1.091-2.016.946-2.848.946-2.848 0-1.445-.663-2.511-.663-2.511-.234-.404.094-.45.094-.45.732.207 1.024 1.081 1.024 1.081.236.722.75.994.75.994l.14.586c.372-.089.467.378.467.378.05 1.803 1.167 2.146 1.167 2.146l.14.466c.138-.047.514.168.514.168.16 1.4 2.1 2.028 2.1 2.028.208 1.228 1.022 1.445 1.022 1.445 1.262.721 1.101 1.407 1.185 2.043.059.445.544.568.544.568 0 .407.653.636.653.636.324.344.324.676.324.676.98.042.562-1.084.562-1.084-.046-.405.202-.301.202-.301 0-.766-.39-1.05-.39-1.05-.31-.453.42-.273.42-.273.064-1.174-.839-1.622-.839-1.622-.279-.379-.187-1.081-.187-1.081-.038-2.791-2.844-4.33-2.844-4.33-1.03-.453-1.03-.767-1.03-.767-.554-.916-1.21-1.13-1.21-1.13-.476-.104-.562-.404-.562-.404-.443-2.02-1.814-2.501-1.814-2.501-1.105-.44-2.618-.52-2.618-.52-2.876-3.655-8.166-3.563-8.166-3.563-6.066.179-9.517-.318-9.517-.318-.183-.386-.186-.947-.186-.947-.026-.266-.05-.54-.05-.54l.058-.556-.044-.63c-.143-.087-.049-.934-.049-.934.219-.347-.014-.623-.014-.623-.117-.3.03-.479.03-.479.23-.133.086-.914.086-.914-.232-.305-.16-.653-.16-.653.142-.09.048-.442.048-.442.2-.24.271-.587.271-.587.187-.363.082-2.162.082-2.162v-.183c-.27-.166-.17-1.225-.17-1.225.335-1.495.098-3.6.098-3.6l-.144-.045c.144-1.399.033-1.723.033-1.723-.304-.145-.218-.595-.218-.595.146-.507.048-.932.048-.932-.163-1.722.516-2.523.516-2.523 2.238-1.13 3.73-4.374 3.73-4.374-.036 2.197.698 1.94.698 1.94.585.01.748-.904.748-.904.701.404.654-.273.654-.273.094-.358.28-.358.28-.358.174.562.791.497.791.497.516-.047.281-.408.281-.408-.16-1.44.186-1.486.186-1.486.702-.36.702-.632.702-.632 0-.451.187-.495.187-.495.138.27.606.45.606.45.419.407.792 1.58.792 1.58 1.214-.136 1.636.27 1.636.27.602.449 1.304.54 1.304.54 1.635.057.748-.721.748-.721-.376-.182-.376-.361-.376-.361-.09-.405.376-.585.376-.585-.561-.226-.561-.544-.561-.544.023-.562.655-.404.655-.404-.048-.408.325-.408.325-.408.513.541 1.073.541 1.073.541.374.047.607-.268.607-.268.464-.543.557 0 .557 0 1.656 1.736 3.643.944 3.643.944.979-1.666-.14-2.84-.14-2.84-.655-.815-.935-1.393-.935-1.393-.138-.5-.23-.545-.23-.545-1.076-.405-1.17-.813-1.17-.813-.049-.587-.558-.903-.558-.903.06-.224-.234-.316-.234-.316-.469-.033-.513.182-.513.182-.19 0-.47-.09-.47-.09.749-.405.654-.676.654-.676.33.361.98.499.98.499.748.04.748-.499.748-.499l.699.048-.094.132c1.074 0 .888.181.888.181.502.439.56-.09.56-.09 0-.722.608-.995.608-.995.792-.318.744-.855.744-.855.751.224 1.824-.227 1.824-.227 1.628-.314.928-1.263.928-1.263.05-1.126-1.49-1.802-1.49-1.802-.935-.677-1.166-.813-1.166-.813.326-.178.604.093.604.093.19.497.935.36.935.36.747.271 1.073-.317 1.073-.317.142.454.514.544.514.544.141.089.09.45.09.45-.56.087-.324.406-.324.406-.094 1.667 2.426 2.523 2.426 2.523.42.27 1.026-.272 1.026-.272.374 1.945 2.336 2.078 2.336 2.078 1.107-.364.418-3.703.418-3.703.56-.131.933.23.933.23.277.856 1.26.99 1.26.99 1.913.316 2.332-.316 2.332-.316.27-1.8-2.285-3.202-2.285-3.202-1.202-.572-1.634-1.081-1.634-1.081 2.426-.451 2.146-2.708 2.146-2.708-.655-.857-2.146-.222-2.146-.222-.513.404-.978.495-.978.495-1.45.135-1.354.767-1.354.767-1.354 1.127-1.96.133-1.96.133-.444-.55-.98-.586-.98-.586-1.076-.088-.746 1.263-.746 1.263-2.147-1.668-3.455-1.217-3.455-1.217-.512.226-1.165 0-1.165 0-.78-.022-.422-.405-.422-.405.844-.813 2.428-1.444 2.428-1.444-.14.678 1.82.049 1.82.049.464.81 1.864.945 1.864.945 2.008.45 3.598-1.128 3.598-1.128-.75-.257-.936-.766-.936-.766-.468-1.082-2.147-1.85-2.147-1.85-.419-.362.42-.181.42-.181.187.497.981.226.981.226.046-.226.512-.135.512-.135.982 1.083 1.587.72 1.587.72-.277.68.887.902.887.902.14 1.445.885 1.536.885 1.536.513.303.561-.27.561-.27.048-.25.28-.092.28-.092.746 1.352 1.54 1.08 1.54 1.08 1.982-.583 1.028-2.66 1.028-2.66-.093-.133.091-.223.091-.223.468.182.42-.228.42-.228-.036-.743.89-.359.89-.359 1.162.495 1.257.946 1.257.946-.095.362.512.588.512.588.842.272.701.813.701.813.093.765.233.946.233.946.372.357.7-.046.7-.046.28-.36.56-.045.56-.045.048.496 1.074.946 1.074.946.7.226 1.12-.946 1.12-.946.666-1.261-.23-2.12-.23-2.12-.19-.271.088-.271.088-.271 1.03.723 1.123.68 1.123.68.605.18.325-.231.325-.231-.21-.695.467-.583.467-.583 1.82.766 1.727-.904 1.727-.904.536-2.266-2.708-2.523-2.708-2.523zm-64.278 16.17s-.362.236-.603-.09c0 0 .26-.015.315-.093.048-.072.19-.351.312-.325 0 0 .072.418-.024.508" style="fill:#c99d66;fill-opacity:1;fill-rule:evenodd;stroke:none;stroke-width:.133333" transform="matrix(1.1669 0 0 1.1669 -36.65 -14.285)"/><path d="M114.28 139.094s.793-.09 1.026-1.306c0 0 .562-.046.652-.454 0 0 .362.127.42-.133 0 0 .178-.36.56.089 0 0 .748.691 1.867-.137 0 0 .281-.088.329.048 0 0-.564.315-.564.587 0 0-.884 0-1.072.356 0 0-.793 0-.746.41 0 0-.187.269.187.45 0 0 .095.179-.047.316 0 0-.315.046-.28.364 0 0-.351.234-.187.766 0 0 .234.53.747.448 0 0 .43-.055.514-.36 0 0 .327-.314.467-.045 0 0 .184.272.464.137 0 0 .517-.043.563-.406 0 0 .42-.048.465.226 0 0-.045.225.141.406l-.186.27s-.655.226-.328.902c0 0 .28.721 1.307.044 0 0 .374-.226.652.043 0 0 .794.18 1.027-.313 0 0 .609-.134.794.36 0 0 .934.678 1.353-.677 0 0 .28-.473 1.166-.36 0 0 1.774.316 1.914-2.39l-1.213-.044s.046-.767.467-.767c0 0 .186-.046.093-.227 0 0 .14.315.56.361 0 0 .234 0 .28.406 0 0-.046.677.606.766 0 0 .327.136.233.408 0 0-.42.225-.185.812 0 0-.373.225 1.215.448 0 0 .558-.133.836.454 0 0 .28 1.127 2.475.99 0 0 .047.767-.468 1.124 0 0-1.167.365-.888 1.76 0 0 .236.366.984-.135 0 0 .325.09.279.272 0 0 .465.136.793-.089 0 0 .233.361.14.723 0 0-.095.404.14.812 0 0 .15 1.42-.98 1.758 0 0-2.008.54-2.706 2.66l-.142-.361h-.232s-.093-.225.232-.541c0 0 .747-.812.7-2.074 0 0 .281-.315.281-.632 0 0 .372-.36.14-.9 0 0 .047-.363-.281-.452 0 0-.188-.541.047-.675 0 0 .186-.41.095-.906 0 0 .277-.494.14-.63 0 0-.282-.225-.562-.134 0 0-.604-.677-.604-1.036 0 0-.06-.636-.795-.636 0 0-.664.038-.56.675 0 0 .228.59-.094.86 0 0-.42-.134-.42.723 0 0 .187.583-.092.633 0 0-1.167-.365-.885.856 0 0-.049.136-.33.225 0 0-.932-.047-2.004 1.037 0 0-.188.316-.608.044 0 0-2.007-2.029-3.032-2.48-1.027-.451-1.214-.102-1.914-.631 0 0-.421-.678-1.54-.811 0 0-1.447-.05-1.166-.994l.232-.045s.326-.857-.327-1.264c0 0-.536-.355-.793-.719 0 0-.889-.812-1.352-1.265M107.468 128.556s1.057-.059 1.305-.297c0 0-.03.902.53 1.197 0 0-1.276-.025-1.586.514 0 0 .124-.993-.25-.993v-.42M109.458 108.864s.996-.301 1.243-.78c0 0 .127-.21.28-.18 0 0 .22.357-.092.54 0 0-.155.241-.125.361 0 0-.467.452-1.306.059M127.44 112.652s.59.03.93-.15c0 0 3.422-1.32 4.731-.151 0 0 .248.301.092.901 0 0 .467-.241.872-.241 0 0 .526-.028.654-.39 0 0-.222-.809.992-1.05 0 0-.123-1.055 1.028-1.086l.06-.146s-.464-1.023-1.088-.964c0 0-.715-.028-.715-.66 0 0-.153-.542-.872-1.352 0 0-.93-.815-.868-1.656l-.032-1.412-.157.06s-.09-.12-.184.15c0 0-.125.451.032.542l.122.026s.466.634-.593.966c0 0-.37.12-.652.058 0 0-.687.062-.744.634 0 0 .124.448-1.032.601 0 0-.435 0-.367.417 0 0-.067.246.337.364 0 0 .376.03.28.45 0 0 .096.332-.494.632 0 0-.376.421-.812.45 0 0-.618.271-.463.812 0 0 .06.302-.19.482 0 0-.897.54-.866 1.713M124.03 121.959s.937 1.35 2.615.269l.235.09s-.608.54-.701 1.985l-.142-.044s-.09-1.036-1.116-.992c0 0-1.54-.226-.89-1.308M123.75 123.356s.561.903 1.682.765c0 0 .28 1.13.98 2.076 0 0 .233 1.711.372 2.57 0 0-.836-.449-1.071-.404 0 0 .416-1.308-.095-1.49 0 0 .14-1.126-.559-1.082 0 0-.514-.135-.748-1.13 0 0-.05-.234-1.072 0 0 0 .606-.718.512-1.305M110.643 139.325l.009-.123s.328.046.353-.079c0 0 .104-.158.174-.147 0 0 .095-.144.177-.136 0 0 .266.759-.714.485M136.99 127.44s-.247-.092-.309.06l-.033 1.411.185.06s-.06-1.11.158-1.079v-.452M134.784 124.643s-.095.841.341.992c0 0 .932.211.776.992l-.246-.091s-.966-.84-1.275-.69c0 0-.223-.54.059-.54 0 0-.156-.663.345-.663M138.176 115.683s-.61 1.265.553 1.173c0 0 .05.157 0 .36 0 0-.252-.136-.277.63 0 0 .047.545-.139.655 0 0-.116.18-.116.54 0 0-.445.112-.278.632 0 0 0 .318.301.362 0 0 .07.294-.023.426 0 0-.256-.02-.256.387 0 0 .111 1.195-.724 1.17 0 0-.162 0-.21-.133 0 0-.095-.225-.258-.205 0 0-.178-1.201.143-2.321 0 0 .58-1.894.768-2.322 0 0 .187-.181.259-.496 0 0-.144-.7.257-.858M144.147 119.313s0-.338.352-.384c0 0-.051-.225.301-.225 0 0 .184.07.045.316 0 0 .139.156.259.113 0 0 .067.427-.21.474 0 0 .046.384-.26.337 0 0-.162-.023-.135-.201 0 0-.306-.07-.212-.228 0 0-.235.022-.14-.202M160.756 117.336s-.03-.421.436-.45c0 0 .156-.48-.093-.662 0 0-.184-.63.622-.63 0 0 .436-.45.778-.09 0 0 .157.179.122.33 0 0 .314.09.248.511 0 0 .406.21 1.342.06 0 0 .029.543-.403.451 0 0-.624-.241-1.063.212 0 0-.089.359-.65.359l-1.339-.091M161.037 119.773s.247.42.623.42c.37 0 .061.031.061.031s.188-.03.28-.21c0 0 .372-.24.498.117 0 0 .124.482.904.545 0 0-.314.06-.376.208 0 0-.31-.03-.248.363 0 0-.219.12-.406-.03 0 0-.465-.3-.901-.242 0 0-.155-.27-.373-.21 0 0-.278-.664-.062-.992M134.364 141.285s.241.295.807.182c0 0-.187.508-.56.508 0 0-.34-.42-.247-.69M145.048 141.69s.5-.6 1.244-.481l.061.48h-1.305M144.94 138.37s.368-.456.653-.32v.405l-.653-.085M151.564 136.607l.468.047.139.092v.177h-.372l-.235-.316M149.248 134.142s.716-.056.684.753c0 0 .25.302.652.484 0 0 .283.509-.247.78 0 0 0-.54-.185-.575 0 0-.22-.086-.25-.205l-.031-.123s-.248-.178-.744.21c0 0-.283.541-.97.389 0 0 .034-.299.22-.357 0 0 .811-.483.838-.693l.033-.663M149.53 133.032s1.303.21 1.43-.273c0 0 .308-.69-.47-.66 0 0-.713-.329-.96.933M148.812 128.763s.621 0 .777.687c0 0 .034.361.375.423 0 0-.093.482-.5.694 0 0-.061.238-.185.299 0 0-.031.21-.186.3l-.093-.09v-.541s-.25-.18-.279-.452c0 0 .184-.238.308-.272 0 0 .098-.628-.093-.657 0 0-.279-.243-.124-.391M151.019 129.154l2.582-2.165s-.713-.12-.621-.692c.093-.572-.03-.09-.03-.09s-.34-.062-.34-.152c0 0-.406.122-.531-.122 0 0 .434.3.185.785 0 0 .22.543-.84.601 0 0-.121-.031-.061.303 0 0 .342.659-.218.839 0 0-.405.241-.126.693M161.668 134.175h.21s.127.406-.025.64l-.126.033c0-.033-.059-.673-.059-.673M99.071 119.2s.686.603.497 1.444c0 0 2.488.183 4.791 2.765l.123-.238s-1.109-.623-1.048-1.044c.062-.42.303-.642.8-.52 0 0 .595-.099.064-.466 0 0-.5-.537.184-.724 0 0 .329-.134 0-.632 0 0-.447-.5 0-.81 0 0 .696-.391 1.17.045 0 0 1.023.948 2.146.993 0 0 .277.404.14 1.262 0 0 .42-.36.84-.134 0 0 .184-1.04.79-.992 0 0 .792-.136.84.72 0 0-.186 1.446.98 1.488 0 0 .419-.042.514.091 0 0 .2-.819.607-.768 0 0 .946-.065.933.993 0 0 .024.394-.233.498 0 0-.329.585.328.945 0 0 .093.136.093.404 0 0-1.354.408-1.54 1.04 0 0 .705-.082 1.167.18 0 0 .157.127.374.152.073.01.149.006.232-.015.326-.092.652-.589 1.071-.498 0 0 .4.07.374.766 0 0-.018.317.326.18 0 0 .376-.27.657 0 0 0 .278.273.23.542 0 0 .42.136.467 0 0 0 .374-.406.654.136 0 0 .28.542 0 .768 0 0 2.133.658 5.133.632 0 0-.13-.525-.13-.794 0 0-1.154-.015-1.175-.561 0 0-.093-.587.608-.587 0 0 .264-.214-.142-.359 0 0-.445-.338.142-.453l.041-.225-.369-.496s-2.613.36-2.102-2.928c0 0-.7-.497-.838-.725 0 0-1.485 1.422-2.697 1.376 0 0-1.838.244-1.97-2.55 0 0-.048-1.081 1.49-1.757l-.043-.45s-2.947 1.033-3.308.57c0 0-1.492-1.937.647-2.87 0 0 .654.042.793-.271 0 0-.185-.946.608-.904 0 0 .604-.179.7.273 0 0 .485.364.665-.215 0 0 .253-.093.874-.058 0 0-.136-.331-.7-.27 0 0-2.473.27-3.778-.992l-2.01-.133s-.047.404.188.45c0 0 .792-.135.888.631 0 0 .22.631-.797.991 0 0-.326.316.142.54 0 0 .422.408-.185.724 0 0-.283.496.139.812 0 0 .654.27-.234.948 0 0-.552.313-.88.088 0 0-.532-.095-.565-.403 0 0-.467-.136-.561.088 0 0-.586.104-.586-.074 0 0-.308-1.023-.159-1.46 0 0-.048-.406-.513-.54 0 0-.421.134-.372-1.624l-.05-.902-.183.046s.184.406-.702.36c0 0-.514.948-1.028.768 0 0 .235.99-.184.9 0 0 .092.497-.282.36 0 0-.14.497.141.633 0 0-.048.404.325.496 0 0 .048.405-.373.36 0 0-.513-.044-.7.18 0 0-.225.275-.747.136 0 0-.699.405-.699 1.172 0 0-.325.045-1.12.181 0 0-.493-.288-.84.044-.187.182-.513.586-1.073.27" style="fill:#002355;fill-opacity:1;fill-rule:evenodd;stroke:none;stroke-width:.133333" transform="matrix(1.1669 0 0 1.1669 -36.65 -14.285)"/><path d="M123.706 116.764s.934-1.307 1.169-1.26c0 0 .607.404.885.36 0 0 .096.587.653.767 0 0 .14.765.61 1.038 0 0-.374.944.187 1.216 0 0 .604.18.793.09 0 0 .516 1.33 2.004 1.218 0 0 .953.008 1.351-.408 0 0 .675-.988-.511-1.848 0 0-1.306-1.038-1.306-1.396 0 0-.278-.317-.839-.317 0 0-.281-.496-.513-.496 0 0-.278-.541.648-.27 0 0 .518-.091.75.36 0 0 .645.573 1.026-.225 0 0 .092-.857.983-.677 0 0 1.26.18 1.491-.767 0 0 .281.091.189.406 0 0-1.123.706-.889 1.353 0 0 .56 1.488 2.24 1.308 0 0 .932-.179 1.26-.721 0 0 .186.585-.047.993 0 0-.516 1.183 0 3.381l-.325-.133s-.932-.275-1.03-1.625c0 0-.556-.136-.604.134 0 0-.794.18-.885-.225 0 0-.98-.407-1.31.452 0 0-.118.499.33.63 0 0 .14.271-.097.36 0 0-.463.363.14.725 0 0 .27.422-.091.493 0 0-.655.092-.329.815 0 0 .469.269.841.406 0 0 .28.403.189.675 0 0-.701.043-.75.315 0 0-1.446-.135-1.54.27 0 0-.252.899-.882.811 0 0-.472.09-.423.316h-.513s-.277.182.141.589c0 0 .093.584-.094.676 0 0-.093.045-.047.269 0 0-.322 0-.14.679 0 0 .233.72.842.541 0 0 .37-.09.464-.406 0 0 .095.045.233.091 0 0 .372.18.14.36 0 0-.603.316-.837.766l-.378.133s-.183.27.47.859c0 0-.416 1.17.326 1.621 0 0 .279.361.51.361 0 0 .711.052.75-.858 0 0 .326.272.56.092 0 0 .372-.182.467-.542 0 0 .42-.088.512.18 0 0 .563.27.748.226l-.047 2.257s-.233.178-.233.545c0 0-.285.364-.512 1.168 0 0-.283 1.014-.89 1.08 0 0-.745.362-2.099-2.433 0 0-3.358-6.223-2.095-11.5 0 0 .458-1.078-.189-2.213-.645-1.126-1.706-2.126-2.43-2.93l-1.027-.135M121.15 139.799l.292.043.02-.103.292-.08-.022-.143-.29-.018-.04.16s-.252.06-.252.141M145.917 118.661s-.117-.338.724-.249l-.092.157-.164.023-.164.181-.304-.112M141.72 120.676v.15h.247l.062-.12-.309-.03M163.93 120.373s.186-.452.59-.418c0 0 .156.298-.032.269 0 0-.248.237-.557.15M124.702 114.456l.092.51s-1.151.577-1.306 1.414c0 0-.157-.21-.28-.15l.03-.242h.218s-.219-.84.095-1.021c0 0 .43-.298.743-.268l.188-.212.22-.031M123.71 138.047s.374.586 1 .665c0 0-.458.324-1.583.28l-.165-.1s.604-.403.748-.845" style="fill:#002355;fill-opacity:1;fill-rule:evenodd;stroke:none;stroke-width:.133333" transform="matrix(1.1669 0 0 1.1669 -36.65 -14.285)"/><path d="m108.18 86.245-61.603-.012c.373 1.739.77 3.507 1.178 5.291l60.426.015v-5.294M149.37 86.245l61.635-.012a421.13 421.13 0 0 1-1.178 5.291l-60.456.015v-5.294" style="fill:#ed1c24;fill-opacity:1;fill-rule:evenodd;stroke:none;stroke-width:.133333" transform="matrix(1.1669 0 0 1.1669 -36.65 -14.285)"/><path d="m108.18 79.276-63.014-.01c.333 1.737.687 3.5 1.063 5.29l61.952.013v-5.293M149.37 79.276l63.047-.01c-.332 1.738-.69 3.5-1.064 5.29l-61.982.013v-5.293" style="fill:#fff200;fill-opacity:1;fill-rule:evenodd;stroke:none;stroke-width:.133333" transform="matrix(1.1669 0 0 1.1669 -36.65 -14.285)"/></svg>