<svg xmlns="http://www.w3.org/2000/svg" width="776.2247314453125px" height="768.3619995117188px" x="0px" y="0px" style="enable-background:new 0 0 336 235.2" viewBox="0 0 776.2247314453125 768.3619995117188"><path fill="none" d="M0 0h776.225v768.362H0z" style="fill:#280605;fill-opacity:0;pointer-events:none"/><path d="M163 206.8c-14.9-5.3-28.7-13-40.9-23-18.3-15.3-32.2-35.2-40.1-57.7-6.2-17.9-9.3-36.8-9.2-55.8.1-10.4.9-20.7 2.5-31 4.3-1.3 8.7-2.4 13.1-3.4 10.7-2.3 21.5-3.9 32.3-4.9 15.2-1.4 29.9-1.9 42.3-1.9 12.4 0 27.2.5 42.3 1.9 10.9 1 21.7 2.6 32.3 4.8 4.4 1 8.8 2.1 13.1 3.3 1.6 10.3 2.5 20.7 2.5 31.1.2 19-2.9 37.9-9.2 55.9-7.9 22.5-21.8 42.5-40.1 57.8-12.2 9.9-26 17.7-40.9 22.9z" class="st0" style="fill:#c2992b" transform="matrix(4.21632 0 0 4.21632 -299.955 -115.565)"/><path d="M163 202.5c32.1-11.9 55.3-33.2 69.6-60.2 14.9-28.4 19.8-63.3 14.5-99.8-13.1-3.7-27.7-5.9-42.1-7.3-15-1.4-29.6-1.8-42-1.8-12.4 0-27 .4-41.9 1.8-14.4 1.2-29.1 3.5-42.1 7.2-5.3 36.6-.4 71.4 14.5 99.8 14.2 27.1 37.5 48.4 69.5 60.3z" class="st1" style="fill:#681912" transform="matrix(4.21632 0 0 4.21632 -299.955 -115.565)"/><path d="m218.7 62.5-1.7 3.9-1.6-3.8-4.1 1.5 1.6-4-3.9-1.7 3.9-1.6-1.6-4.1 4 1.6 1.7-4 1.7 4 4-1.6-1.6 3.9 4 1.8-4 1.7 1.6 4ZM121.7 147.2l-2.4-4.2 8.9-4.8h7.1l-5.6 21.5h-6.9l3.9-15.2ZM135 146.3c0 3.9 3.2 5.7 6.6 5.7 1.5 0 3-.4 4.4-1.1-.6 3.3-3.2 4.4-6 4.5-2.2 0-4.3-.4-6.4-1.2l-1.1 4.5c2.4.9 5 1.4 7.5 1.4 5.4 0 9.2-2.3 11.5-6.1 1.4-2.5 2.2-5.3 2.2-8.2.1-5.8-3.5-7.9-9.1-7.9-5.1-.1-9.6 3.1-9.6 8.4zm8.6 1.8c-1.3 0-2.4-1-2.5-2.3v-.2c-.1-2 1.4-3.7 3.4-3.8h.1c1.6 0 2.5.7 2.5 2.5 0 2-1.5 3.6-3.5 3.8zM169.8 146.3c0 3.9 3.2 5.7 6.6 5.7 1.5 0 3-.4 4.4-1.1-.6 3.3-3.2 4.4-6 4.5-2.2 0-4.3-.4-6.4-1.2l-1.2 4.5c2.4.9 5 1.4 7.6 1.4 5.4 0 9.2-2.3 11.4-6.1 1.4-2.5 2.1-5.3 2.2-8.2.1-5.8-3.4-7.9-9-7.9-5.1-.1-9.5 3.1-9.6 8.4zm8.6 1.8c-1.4 0-2.5-1.1-2.5-2.4-.1-2 1.5-3.7 3.5-3.8h.1c1.5 0 2.5.7 2.5 2.5-.1 1.9-1.6 3.5-3.6 3.7zM161.5 144.5l-3.9 15.2h7l5.5-21.5h-7l-8.9 4.8 2.4 4.2Z" class="st2" style="fill:#fff" transform="matrix(4.21632 0 0 4.21632 -299.955 -115.565)"/><path d="M143.3 125.1v-2.6h54.6l14.5 43-2.7.2c-2-6.7-4-12.9-7.9-18.8-6.2-9.6-15.5-16.1-27.6-19.4-10.2-2.8-20.4-2.4-30.9-2.4zM91.8 55.7h68.4c-1.5 2.4-3.6 4.3-6.2 5.4h-13.2l-1.7 2.1H98.9c.8 1 1.6 1.9 2.4 2.9h52.6l19.2 21c3.1-8 8.7-2 11.9 1.9.8-6.6 4.1-8.6 8.3-8.7 6.2-.1 12.5 5 15.9 8.3 2.3-5 7.5-10.3 9.7-12.2-6.1.5-26.8.5-22.7-11.5-7.2 1.5-8.9-5.4-8.6-7.3-5 4.2-11.6 1.8-11.5-8.1-5.6 4.4-10.6 1.8-13.5-2.2l-.4 3.4h-12.1l-1.7 2.1H88.5c1.1.9 2.2 1.9 3.3 2.9zm91.3 8.6c1.6.1 2.9 1.5 2.8 3.1-.1 1.5-1.3 2.7-2.8 2.8-1.6 0-2.9-1.2-2.9-2.8v-.1c-.1-1.6 1.2-2.9 2.8-2.9 0-.1.1-.1.1-.1z" class="st2" style="fill:#fff" transform="matrix(4.21632 0 0 4.21632 -299.955 -115.565)"/><path d="M109.3 77.7h40.4l15.1 8.7c.4-.8 2.7-1 5.1.3L153.7 69c-.2 1.3-.6 2.6-1.3 3.8h-17l-1.8 2.1h-26c.6 1 1.1 1.9 1.7 2.8z" class="st2" style="fill:#fff" transform="matrix(4.21632 0 0 4.21632 -299.955 -115.565)"/><path d="M114.6 88.1h48.7l-15.6-9c-.1 1.9-.3 3.6-.7 4.2h-15.8l-1.8 2.1h-16.1c.5.8.9 1.7 1.3 2.7zM118.4 99h54.2c-4.2-2.9-7.1-5.8-8.3-8.7h-22c-.1 1.8-.2 3.2-.7 3.8h-13.5l-1.7 2.1h-8.9c.4.9.7 1.8.9 2.8zM120.2 109.4h71.7c-4.4-2.4-8.7-5.2-12.8-8.3h-38.6c.1 1.1 0 2.2-.3 3.3H127l-1.7 2.1h-5.4c.1.9.2 2 .3 2.9zM120.2 120.3h80.1c-3-2.7-5.8-5.6-8.3-8.7h-48.9c.5 1.2.6 2.4.5 3.7h-13.1l-1.7 2.1h-8.6z" class="st2" style="fill:#fff" transform="matrix(4.21632 0 0 4.21632 -299.955 -115.565)"/><path d="M-9.798-11.1h200v200h-200v-200Z" class="st3" style="fill:none" transform="matrix(4.21632 0 0 4.21632 6.984 7.13)"/></svg>