<svg xmlns="http://www.w3.org/2000/svg" xmlns:xlink="http://www.w3.org/1999/xlink" xml:space="preserve" width="316.227766017" height="316.227766017" x="0px" y="0px" viewBox="0 0 500 500"><path fill="#231F20" d="M500 250.001C500 388.07 388.07 500 250 500S0 388.07 0 250.001C0 111.93 111.93 0 250 0s250 111.93 250 250.001"/><path fill="#A29061" d="M250.002 494.412c-65.226 0-126.547-25.4-172.67-71.521C31.21 376.77 5.809 315.447 5.809 250.223c0-65.226 25.401-126.547 71.522-172.669 46.123-46.12 107.445-71.521 172.67-71.521 65.227 0 126.549 25.4 172.67 71.521 46.119 46.121 71.521 107.442 71.521 172.668 0 65.225-25.402 126.547-71.521 172.668-46.12 46.122-107.442 71.522-172.669 71.522m0-482.378c-131.339 0-238.192 106.852-238.192 238.189 0 131.338 106.853 238.189 238.192 238.189 131.338 0 238.189-106.852 238.189-238.189 0-131.338-106.851-238.189-238.189-238.189"/><defs><path id="a" d="M86.181 250c0 90.475 73.345 163.82 163.819 163.82 90.477 0 163.821-73.346 163.821-163.82 0-90.474-73.344-163.819-163.821-163.819-90.475 0-163.819 73.345-163.819 163.819"/></defs><clipPath id="b"><use xlink:href="#a" overflow="visible"/></clipPath><path fill="#80000B" d="M211.302 84.421h76.743v331.146h-76.743zM82.532 116.887h64.11v266.214h-64.11zM352.707 116.887h64.109v266.214h-64.109z" clip-path="url(#b)"/><path fill="#231F20" d="m298.283 158.104 15.92-31.946h-128.66l15.925 31.954-68.695 203.718 62.352 40.881 12.978-37.023h84.245l11.945 36.752 63.189-40.729-69.199-203.607zm-65.562 134.953 17.237-51.761 17.77 51.761h-35.007z"/><path fill="#A29061" d="m291.824 157.664 12.783-25.573H195.149l12.774 25.572-69.788 206.963 24.073 22.494 12.496 5.889 15.129 6.742 14.033-40.037h92.821l13.51 41.568 25.508-13.654 26.768-22.096-70.649-207.868zm-67.385 141.373 25.433-76.393 26.222 76.398-51.655-.005z"/><path fill="#817244" d="M224.439 299.037 182.1 329.416 250 131.955l67.9 197.461-41.806-30.373-26.222-76.398zM164.186 381.512l17.914-52.094h135.8l17.496 50.877-26.937 15.641-11.773-36.221h-92.819l-12.64 36.062z"/><path fill="#A29061" d="M250.004 415.836c-91.443 0-165.837-74.395-165.837-165.836 0-91.439 74.395-165.83 165.837-165.83 91.439 0 165.83 74.391 165.83 165.83 0 91.441-74.391 165.836-165.83 165.836m0-324.923C162.28 90.913 90.91 162.28 90.91 250c0 87.723 71.37 159.092 159.094 159.092 87.721 0 159.086-71.369 159.086-159.092 0-87.72-71.365-159.087-159.086-159.087"/><path fill="#817244" d="M250.002 409.848c-88.142 0-159.851-71.707-159.851-159.848 0-88.14 71.708-159.847 159.851-159.847 88.141 0 159.848 71.707 159.848 159.847 0 88.141-71.707 159.848-159.848 159.848m0-313.725c-84.85 0-153.881 69.029-153.881 153.877 0 84.85 69.031 153.879 153.881 153.879S403.881 334.85 403.881 250c0-84.848-69.029-153.877-153.879-153.877"/><path fill="#A39161" d="M257.361 30.621c.455-1.445.904-2.882 1.355-4.32a177.072 177.072 0 0 0-17.365-.055c.442 1.44.886 2.88 1.328 4.328a6155.635 6155.635 0 0 0-12.338 40.844c3.431-.367 6.868-.638 10.312-.804.636-2.265 1.267-4.526 1.903-6.788 4.894-.182 9.792-.169 14.687.048.629 2.262 1.26 4.531 1.889 6.799 3.443.187 6.879.482 10.307.87a6275.398 6275.398 0 0 0-12.078-40.922m-7.362 6.849c1.566 5.679 3.13 11.378 4.697 17.1a180.107 180.107 0 0 0-9.527-.032 7054.403 7054.403 0 0 1 4.83-17.068M364.656 111.459a179.105 179.105 0 0 1 7.793 6.801l6.197-3.373c3.561 3.361 6.98 6.87 10.25 10.516-1.182 2.027-2.363 4.059-3.547 6.088a182.836 182.836 0 0 1 6.596 7.964 6369.008 6369.008 0 0 0 20.75-37.276c1.346-.689 2.695-1.375 4.037-2.06a180.25 180.25 0 0 0-10.168-10.593 6522.101 6522.101 0 0 0-41.908 21.933m22.448-1.218c5.199-2.855 10.381-5.695 15.547-8.521-2.949 5.1-5.918 10.212-8.896 15.343a177.578 177.578 0 0 0-6.651-6.822M351.799 50.293c-1.588 2.629-3.174 5.258-4.76 7.887a240.94 240.94 0 0 1 9.678 5.29c-6.049 10.032-12.102 20.058-18.152 30.086a233.637 233.637 0 0 1 8.184 4.937 70573.574 70573.574 0 0 0 18.15-30.085 250.748 250.748 0 0 1 8.039 5.291c2.361-2.093 4.717-4.186 7.072-6.276a244.082 244.082 0 0 0-28.211-17.13M320.135 37.083c-2.477 8.344-4.945 16.69-7.42 25.03a1906.576 1906.576 0 0 0-5.338-28.848 178.234 178.234 0 0 0-10.301-2.349c.023 1.493.045 2.98.07 4.472-3.787 12.769-7.57 25.538-11.359 38.311 3.125.638 6.232 1.362 9.318 2.167 2.471-8.342 4.947-16.691 7.422-25.033a1934.967 1934.967 0 0 1 5.328 28.877 176.55 176.55 0 0 1 8.641 3.221l12.605-42.518a173.82 173.82 0 0 0-8.966-3.33M94.286 89.53a177.363 177.363 0 0 0-10.169 10.589c1.341.686 2.687 1.372 4.032 2.057a6430.78 6430.78 0 0 0 20.755 37.28 180.497 180.497 0 0 1 6.597-7.964c-1.186-2.035-2.37-4.063-3.552-6.088a178.772 178.772 0 0 1 10.25-10.517c2.068 1.123 4.132 2.246 6.203 3.373a177.533 177.533 0 0 1 7.792-6.799A6327.345 6327.345 0 0 0 94.286 89.53m12.809 27.534c-2.983-5.131-5.947-10.247-8.901-15.343 5.17 2.821 10.352 5.666 15.552 8.521a176.817 176.817 0 0 0-6.651 6.822M149.05 50.293l4.759 7.887a241.629 241.629 0 0 0-9.678 5.29c6.05 10.032 12.102 20.058 18.152 30.086a233.595 233.595 0 0 0-8.183 4.937 82722.985 82722.985 0 0 1-18.151-30.085 250.705 250.705 0 0 0-8.038 5.291c-2.362-2.093-4.718-4.186-7.073-6.276a244.18 244.18 0 0 1 28.212-17.13M193.953 69.776c-3.219-11.26-6.443-22.52-9.662-33.779a200.757 200.757 0 0 0-9.058 3.059l12.197 42.633a203.02 203.02 0 0 1 24.711-7.256c.073-3.158.149-6.309.223-9.456a201.106 201.106 0 0 0-18.411 4.799M181.311 415.576a307.264 307.264 0 0 1-8.7-3.943c-6.097 13.471-12.197 26.932-18.294 40.4a312.334 312.334 0 0 0 8.701 3.936l18.293-40.393M225.303 427.646l-2.078 8.975a187.618 187.618 0 0 1-10.873-1.885c-2.643 11.408-5.29 22.816-7.934 34.227a187.794 187.794 0 0 1-9.314-2.158c2.644-11.408 5.288-22.818 7.935-34.229a180.574 180.574 0 0 1-10.593-3.092c.689-2.988 1.385-5.98 2.079-8.973a182.478 182.478 0 0 0 30.778 7.135M249.551 455.66c4.988.029 9.98-.145 14.957-.523-.061-3.072-.125-6.143-.186-9.213-4.977.385-9.965.559-14.957.527l-.156-7.801c6.343.035 12.687-.256 19.003-.883l-2.994-8.951c-8.564.715-17.169.82-25.753.32.299 14.779.598 29.555.894 44.336 8.587.5 17.188.395 25.756-.32.877-3.146 1.748-6.301 2.623-9.463-6.318.623-12.664.92-19.007.877-.06-2.966-.121-5.937-.18-8.906M317.064 428.723c-1.689-6.055-7.848-9.131-13.861-7.289a187.525 187.525 0 0 1-20.309 5.018c.834 1.328 1.666 2.65 2.502 3.971 3.588 12.828 7.172 25.656 10.764 38.484a187.4 187.4 0 0 0 18.986-4.764c6.012-1.844 9.418-8.611 7.725-14.654-1.93-6.921-3.867-13.843-5.807-20.766m-3.228 23.896c.326 1.16-.342 2.4-1.498 2.75a180.51 180.51 0 0 1-9.328 2.586c-2.33-8.32-4.652-16.641-6.98-24.963a190.615 190.615 0 0 0 9.326-2.59c1.156-.35 2.352.293 2.674 1.453 1.939 6.92 3.87 13.846 5.806 20.764M148.458 397.57c-5.196 6.982-10.392 13.961-15.588 20.947a2022.741 2022.741 0 0 1 4.911-28.904 188.04 188.04 0 0 1-7.041-5.951 96263.565 96263.565 0 0 0-26.473 35.578 185.049 185.049 0 0 0 7.312 6.164 51833.53 51833.53 0 0 1 15.587-20.947 1992.776 1992.776 0 0 0-4.897 28.883 185.025 185.025 0 0 0 7.724 5.043l26.468-35.58a184.73 184.73 0 0 1-8.003-5.233M112.486 364.604c-8.887 6.887-17.775 13.771-26.661 20.656-.952.736-2.356.588-3.119-.348a167.909 167.909 0 0 1-4.616-5.91c-.722-.967-.521-2.355.431-3.092 8.886-6.887 17.775-13.771 26.662-20.658a173.555 173.555 0 0 1-6.13-9.023c-.915 1.273-1.832 2.547-2.742 3.818-7.729 5.986-15.463 11.979-23.198 17.969-4.963 3.848-6.265 11.311-2.508 16.354a167.908 167.908 0 0 0 5.036 6.447c3.985 4.871 11.569 5.443 16.528 1.602 8.89-6.889 17.776-13.773 26.666-20.658a172.76 172.76 0 0 1-6.349-7.157M364.525 400.152a190.602 190.602 0 0 0 14.584-12.223c-2.596-1.77-5.189-3.541-7.791-5.324a191.12 191.12 0 0 1-21.383 16.646c1.275.896 2.553 1.793 3.828 2.686l24.781 31.354a196.318 196.318 0 0 0 7.768-5.572c-3.744-4.742-7.49-9.48-11.238-14.221a190.547 190.547 0 0 0 11.574-9.488l-5.711-7.227a190.512 190.512 0 0 1-11.574 9.49c-1.611-2.041-3.226-4.082-4.838-6.121M410.988 352.014c-5.01-3.797-11.881-2.598-15.594 2.471a241.27 241.27 0 0 1-4.938 6.518c-3.877 4.951-3.17 11.887 1.84 15.686 6.139 4.648 12.283 9.301 18.422 13.955 5.004 3.793 12.445 3.021 16.318-1.926a258.472 258.472 0 0 0 4.938-6.516c3.715-5.072 2.438-12.441-2.561-16.23l-2.877-2.176a245.089 245.089 0 0 1-5.434 7.861c.955.725 1.914 1.449 2.875 2.176.957.727 1.17 2.111.449 3.082a246.954 246.954 0 0 1-4.523 5.973 2.23 2.23 0 0 1-3.088.396c-6.141-4.652-12.281-9.307-18.422-13.957a2.133 2.133 0 0 1-.387-3.031 248.118 248.118 0 0 0 4.525-5.971 2.131 2.131 0 0 1 3.02-.451c.662.5 1.326 1.008 1.99 1.508a248.742 248.742 0 0 0 5.436-7.859c-.661-.507-1.325-1.005-1.989-1.509M416.795 141.534c21.029 32.293 32.127 69.725 32.127 108.469 0 31.05-6.955 60.8-20.672 88.417l5.449 2.713c14.139-28.471 21.307-59.133 21.307-91.13 0-41.055-12.094-80.684-34.973-114.602l-3.238 6.133zM83.088 141.534C62.057 173.827 50.96 211.259 50.96 250.003c0 31.05 6.955 60.8 20.671 88.417l-5.448 2.713C52.045 312.662 44.877 282 44.877 250.003c0-41.055 12.092-80.684 34.972-114.602l3.239 6.133z"/></svg>