<svg xmlns="http://www.w3.org/2000/svg" width="300px" height="300px" viewBox="0 0 300 300"><path d="M150 300c82.844 0 150-67.156 150-150S232.844 0 150 0 0 67.156 0 150s67.156 150 150 150Zm0 0" style="stroke:none;fill-rule:nonzero;fill:#003da6;fill-opacity:1"/><path d="M150 227.223c42.648 0 77.223-34.575 77.223-77.223 0-42.648-34.575-77.223-77.223-77.223-42.648 0-77.223 34.575-77.223 77.223 0 42.648 34.575 77.223 77.223 77.223Zm0 0" style="stroke:none;fill-rule:nonzero;fill:#000;fill-opacity:1"/><path d="M290.973 150C290.973 72.152 227.859 9.027 150 9.027 72.14 9.027 9.027 72.152 9.027 150c0 13.82 2 27.168 5.707 39.777l-4.304 1.489C28.223 251.527 83.973 295.5 150 295.5c66.027 0 121.777-43.973 139.57-104.234l-4.304-1.489a141.011 141.011 0 0 0 5.707-39.793Zm-275.555 0c0-74.332 60.25-134.582 134.582-134.582S284.582 75.668 284.582 150a134.75 134.75 0 0 1-5.36 37.707l-129.238-44.566-129.207 44.554A134.606 134.606 0 0 1 15.418 150Zm0 0" style="stroke:none;fill-rule:nonzero;fill:#000;fill-opacity:1"/><path d="M150 0C67.152 0 0 67.152 0 150s67.152 150 150 150 150-67.152 150-150S232.848 0 150 0Zm0 290.973C72.14 290.973 9.027 227.859 9.027 150 9.027 72.14 72.141 9.027 150 9.027c77.86 0 140.973 63.114 140.973 140.973 0 77.86-63.114 140.973-140.973 140.973Zm0 0" style="stroke:none;fill-rule:nonzero;fill:#c1c5c8;fill-opacity:1"/><path d="m74.14 177.582-12.347 4.266v69.82c15.473 13.43 34.039 23.387 54.484 28.664v-57c-19.472-8.973-34.761-25.457-42.136-45.75ZM238.18 181.832l-12.332-4.25c-7.375 20.293-22.668 36.777-42.141 45.75v56.988c20.445-5.277 39.016-15.238 54.488-28.668v-69.82Zm0 0" style="stroke:none;fill-rule:nonzero;fill:#003da6;fill-opacity:1"/><path d="M150 230.695c-12.043 0-23.457-2.64-33.723-7.363v57A135.009 135.009 0 0 0 150 284.598c11.64 0 22.945-1.489 33.723-4.266v-56.984c-10.266 4.722-21.68 7.359-33.723 7.359ZM23.18 195.152c7.847 22.055 21.293 41.457 38.625 56.5v-69.82ZM276.82 195.168l-38.64-13.32v69.82c17.336-15.043 30.777-34.445 38.64-56.5Zm0 0" style="stroke:none;fill-rule:nonzero;fill:#000;fill-opacity:1"/><path d="M119.695 251.402c.528-.054 1.262-.168 1.735-.027l1.738.5c.555.168.664.332.539.793l-4.098 14.164c-.136.461-.332.543-.875.39l-2.875-.831c-.554-.157-.664-.336-.539-.793l2.973-10.293-3.266-.93c-.554-.168-.668-.332-.543-.793l.309-1.066c.066-.266.152-.434.555-.532 0 0 3.82-.527 4.347-.582ZM132.125 259.5c.305-3.11 3.168-5.445 6.984-5.055 5.641.57 6.739 4.278 6.293 8.723-.457 4.566-2.82 8.277-8.293 7.723-2.218-.223-3.914-1.157-5.375-2.739-.343-.375-.218-.527.168-.859L133.5 266c.39-.305.598-.375.957.027.863.957 1.766 1.528 3.32 1.68 1.805.184 3.25-1.277 3.5-3.75-.554.57-1.57 1.309-4.234 1.043-2.973-.293-5.223-2.223-4.902-5.516Zm4.043.152c-.125 1.32.941 2.457 2.387 2.598 1.625.168 2.722-.766 2.863-2.082.137-1.39-.766-2.461-2.39-2.625-1.571-.152-2.723.707-2.86 2.098ZM153.75 260.875c-.293-3.11 2.07-5.945 5.89-6.305 5.653-.527 7.43 2.903 7.844 7.36.434 4.57-1.18 8.668-6.652 9.18-2.223.21-4.066-.376-5.805-1.653-.402-.305-.32-.473 0-.875l1.32-1.566c.321-.375.512-.489.946-.157 1.027.782 2.027 1.168 3.566 1.016 1.809-.168 2.946-1.875 2.723-4.36-.441.665-1.289 1.583-3.957 1.833-2.973.277-5.555-1.18-5.86-4.473Zm4-.625c.125 1.32 1.39 2.234 2.848 2.098 1.625-.153 2.527-1.266 2.402-2.582-.125-1.391-1.223-2.266-2.848-2.114-1.57.153-2.527 1.223-2.402 2.614ZM178.57 261.14c-.515.137-.695.055-.82-.417l-.473-1.668c-.125-.457-.027-.637.489-.778l2.011-.554c1.696-.473 2.153-1.43 1.93-2.25-.316-1.141-1.18-1.614-2.875-1.141-1.5.418-1.941 1.086-2.61 2.25-.25.434-.5.434-.929.195l-1.711-.972c-.43-.262-.582-.387-.305-.82 1.168-1.817 2.332-3.094 4.68-3.75 2.75-.778 6.64-.415 7.543 2.82.43 1.554-.223 2.96-1.125 3.89v.028c1.375.234 2.86.722 3.402 2.652.903 3.234-1.68 5.543-5.359 6.57-2.348.653-4.336.262-6.266-.68-.457-.222-.402-.406-.168-.863l.961-1.695c.25-.43.473-.539.903-.316 1.234.582 2.207.875 3.695.457 2.18-.614 2.555-1.57 2.234-2.707-.222-.82-1.195-1.375-2.886-.907l-2.348.657ZM48.457 121.68c-.305-.512-.164-.762.32-1.082l2.168-1.403c.5-.32.707-.39 1.012.125 1.25 2.196 1.684 5.332 1.086 8.125-1.223 5.68-6.527 9.457-11.738 8.332-5.207-1.125-8.5-6.734-7.29-12.418.594-2.789 2.278-5.484 4.317-6.968.488-.348.64-.196.973.304l1.402 2.164c.309.489.336.766-.152 1.114-1.5 1-2.457 2.402-2.848 4.18-.762 3.57 1.711 6.25 4.613 6.874 2.86.614 6.25-.793 7.028-4.375.386-1.793.082-3.445-.875-4.984ZM59.902 105.07c.5.262.555.5.266 1.04l-1.5 2.847c-.293.543-.516.625-1.016.375l-15.332-8.039c-.5-.266-.554-.5-.265-1.043l6.222-11.86c.293-.542.516-.624 1.016-.374l2 1.039c.5.265.555.5.262 1.043l-4.36 8.304 3.348 1.75 4.223-8.043c.289-.539.511-.625 1.011-.359l2 1.043c.5.262.555.484.266 1.039l-4.223 8.043ZM92.457 67.777c0 .555 0 .903-.223 1.055l-.304.223c-.223.152-.54.054-1.07-.125l-9.68-3.012 3.652 6.914c.277.527.277.695-.223 1.059L82 75.766c-.5.359-.832.359-1.07-.125l-8.528-16.223c-.082-.168-.097-.238.07-.348l.196-.14c.098-.07.191-.082.43 0l15.207 4.75.363-15.93c0-.234.055-.332.152-.402l.196-.141c.164-.125.218-.098.359.043L102 60.527c.36.403.277.696-.223 1.055l-2.609 1.875c-.5.363-.684.32-1.07-.125l-5.32-5.848-.294 10.309ZM115.82 35.875c5.57-1.668 11.43 1.168 12.957 6.277 1.528 5.114-1.804 10.707-7.375 12.375-5.57 1.668-11.43-1.168-12.957-6.277-1.527-5.11 1.805-10.707 7.375-12.375Zm4.5 15.027c3.61-1.082 4.637-4.554 3.805-7.347-.848-2.848-3.598-5.137-7.223-4.055-3.5 1.043-4.652 4.5-3.804 7.348.832 2.804 3.707 5.097 7.222 4.054ZM189.625 37.707c.598.168.723.363.57.918l-.652 2.348c-.152.543-.363.652-.961.484l-5.598-1.555-3.777 13.641c-.152.539-.36.652-.957.484l-3.098-.859c-.597-.168-.722-.363-.57-.902l3.777-13.641-5.593-1.555c-.598-.168-.723-.363-.57-.918l.652-2.347c.152-.54.359-.653.957-.485l15.82 4.375ZM145.598 49.43c0 .57-.18.722-.793.722h-3.207c-.625 0-.793-.168-.793-.722V31.277c0-.18.054-.234.265-.234h.29c.21 0 .347.082.558.234l12.5 10.266v-9.434c0-.566.18-.718.789-.718h3.211c.625 0 .789.164.789.718v18.157c0 .18-.055.234-.262.234h-.293c-.207 0-.347-.082-.554-.234l-12.5-10.407ZM208.527 59.277l.696 8.543c.043.805-.528.778-1.07.457l-2.555-1.527c-.528-.32-.723-.68-.793-1.32l-.664-8.305-1.418-.848-3.489 5.82c-.289.485-.527.528-1.054.208l-2.762-1.653c-.527-.32-.598-.543-.309-1.027L204 44.765c.293-.488.527-.53 1.055-.21l6.304 3.765c2.891 1.723 5.793 4.957 3.559 8.696-1.543 2.582-4.027 2.902-6.402 2.261Zm-1.207-4.472c1.778 1.054 2.903 1.015 3.61-.18.722-1.195.222-2.207-1.555-3.266l-2.734-1.636-2.07 3.445 2.734 1.637ZM217.707 76.18c-.43-.446-.43-.68-.027-1.07l12.515-11.97c.403-.39.637-.374 1.07.067l9.25 9.668c.43.445.43.68.028 1.07l-1.625 1.555c-.402.39-.64.375-1.07-.07l-6.489-6.778-2.734 2.614 6.223 6.5c.43.441.43.68.027 1.066l-1.625 1.559c-.402.386-.64.375-1.07-.07l-6.223-6.5-2.805 2.679 6.489 6.777c.43.446.43.68.027 1.07l-1.625 1.555c-.402.391-.64.375-1.07-.07l-9.25-9.664Zm22.168-9.946a2.052 2.052 0 0 1-1.168-.593L237 63.848c-.36-.391-.277-.641.598-.614l5.222.114c.57-.016.723.375.598.972l-.402 1.903c-.125.484-.266.609-.918.511l-2.207-.484ZM244.266 113.043c-.211.348-.668.277-.875-.113l-1.75-3.348c-.25-.473-.184-.691.164-1.25l1.722-2.664-3.847-7.348-3.164-.113c-.657-.027-.875-.11-1.125-.582l-1.75-3.348c-.211-.386.011-.777.402-.777l20.441.957c.543.059.82 0 .946.238l.043.082c.125.239-.07.43-.348.918l-10.875 17.332Zm5.332-15.402-6.293-.098 2.82 5.387 3.5-5.223-.027-.055ZM252.695 134.945c.125.61 0 .805-.543.93l-2.207.457c-.554.113-.75-.027-.875-.625l-2.515-11.887c-.125-.613 0-.804.543-.93l16.945-3.57c.555-.113.75.028.875.625l.664 3.137c.125.613 0 .809-.539.934L251 126.973l1.68 7.957Zm0 0" style="stroke:none;fill-rule:nonzero;fill:#fff;fill-opacity:1"/><path d="M183.723 204.125A123.009 123.009 0 0 0 192.875 190c12.445-22.39 19.152-49.305 19.418-77.832.027-3.723-.086-8.086-.32-12.336-5.614-1.734-15.707-4.555-28.266-6.664l.016 110.984Zm0 12.64a110.299 110.299 0 0 1-3.805 4.028l-.027.027a105.435 105.435 0 0 1-7.946 7.223c-.043.027-.086.066-.125.098a97.089 97.089 0 0 1-6.238 4.652c-.012 0-.027.027-.055.027-.668.457-1.332.887-2 1.32-.082.055-.152.094-.234.153-.668.414-1.32.832-1.988 1.234a.508.508 0 0 0-.098.07 74.49 74.49 0 0 1-4.348 2.419c-.054.027-.125.054-.18.093-.636.336-1.288.657-1.945.961-.125.055-.234.11-.359.164a52.11 52.11 0 0 1-1.918.875c-.082.043-.152.07-.234.114-.739.32-1.473.625-2.207.93-.266-.11-.532-.223-.793-.333-.391-.168-.793-.32-1.18-.488-.348-.152-.711-.305-1.059-.473-.332-.152-.652-.289-.984-.457-.36-.168-.723-.347-1.082-.511a53.29 53.29 0 0 1-.945-.473c-.364-.184-.739-.363-1.098-.559a17.732 17.732 0 0 1-.89-.484c-.68-.375-1.376-.75-2.055-1.14-.278-.153-.54-.305-.82-.47-.387-.222-.762-.46-1.137-.695-.266-.168-.543-.336-.805-.5-.39-.238-.766-.488-1.14-.738a26.476 26.476 0 0 1-.778-.512c-.39-.265-.777-.515-1.168-.777-.191-.14-.402-.277-.598-.418a77.61 77.61 0 0 1-2.414-1.75c-.168-.125-.336-.25-.515-.375a76.93 76.93 0 0 1-1.196-.93c-.218-.168-.441-.347-.652-.515-.387-.32-.777-.637-1.164-.957-.211-.168-.418-.348-.625-.528-.402-.336-.809-.68-1.211-1.027-.125-.098-.234-.211-.36-.32a119.955 119.955 0 0 1-2.695-2.446 3.237 3.237 0 0 1-.234-.222c-.402-.387-.82-.778-1.223-1.18-.168-.168-.347-.332-.515-.5-.387-.39-.79-.793-1.18-1.18-.168-.168-.32-.336-.484-.5a94.759 94.759 0 0 1-1.211-1.277c-.055-.059-.098-.113-.153-.168-.457-.5-.918-.984-1.375-1.5-.668-.75-1.332-1.516-1.984-2.277-.152-.18-.309-.364-.461-.555a121.626 121.626 0 0 1-3.832-4.809c-.152-.191-.293-.386-.445-.593a117.12 117.12 0 0 1-3.61-5.114c-.14-.207-.293-.43-.43-.636a107.618 107.618 0 0 1-1.722-2.668c-.57-.903-1.125-1.82-1.668-2.739a9.988 9.988 0 0 1-.402-.691 218.59 218.59 0 0 1-1.614-2.809c-13.093-23.554-20.152-51.804-20.43-81.664-.027-3.238.055-6.804.212-10.32.125-2.75.289-5.484.5-8.027 0 0 .027 0 .082-.028.027 0 .054-.027.097-.043.028 0 .07-.027.11-.043a.81.81 0 0 0 .152-.054.81.81 0 0 0 .152-.055c.043-.016.086-.027.125-.043.07-.027.141-.055.223-.066.043 0 .07-.032.113-.043.125-.043.25-.082.387-.141.043 0 .07-.027.113-.039.11-.043.235-.086.375-.125.04-.016.098-.027.137-.043.348-.11.738-.25 1.168-.39l.14-.04c.192-.054.387-.125.594-.195.043 0 .07-.027.114-.043.25-.082.511-.164.777-.25h.016l.804-.25c.04-.012.098-.027.153-.039.277-.086.554-.168.847-.266h.04c.32-.097.656-.195.988-.293a.17.17 0 0 0 .082-.027c.304-.098.625-.18.96-.277.04 0 .094-.028.137-.04.707-.21 1.473-.417 2.266-.64.039 0 .098-.027.137-.043.363-.098.722-.191 1.097-.305.043 0 .082-.027.141-.043.832-.218 1.691-.457 2.598-.68.054-.011.109-.027.18-.038.429-.114.859-.223 1.304-.336.027 0 .043 0 .07-.012.485-.125.973-.238 1.473-.363h.027c.473-.11.946-.223 1.43-.348.07-.012.125-.027.195-.039a263.36 263.36 0 0 1 3.125-.711c.055 0 .11-.027.164-.039.489-.113.989-.211 1.473-.32l.195-.043c1.098-.235 2.207-.457 3.364-.696a1.56 1.56 0 0 0 .261-.054c.528-.098 1.055-.207 1.598-.305.043 0 .098-.016.14-.027.594-.114 1.208-.223 1.817-.332h.07c.57-.098 1.141-.196 1.707-.309.098-.012.211-.039.309-.055.598-.097 1.207-.207 1.805-.304 0 0 .07 0 .097-.016 1.11-.18 2.235-.348 3.387-.512a4.11 4.11 0 0 1 .434-.054c1.125-.168 2.261-.32 3.414-.473.086 0 .168-.027.25-.027 1.195-.157 2.418-.293 3.64-.434l.414-.039c1.211-.125 2.446-.25 3.684-.363.055 0 .125 0 .18-.012 1.277-.113 2.554-.211 3.859-.309.125 0 .266-.011.402-.027a205.74 205.74 0 0 1 3.918-.223H140c1.332-.066 2.695-.109 4.043-.136h.36c1.374-.028 2.75-.055 4.14-.055h2.832c1.402 0 2.793.012 4.168.055h.289c2.777.07 5.5.195 8.195.375h.207c2.723.18 5.391.43 7.989.707h.07c3.957.43 7.762.96 11.387 1.543.613.097 1.222.207 1.836.304.093.016.191.028.289.055a56.3 56.3 0 0 1 1.722.309h.07c.61.109 1.235.218 1.833.332.043 0 .086.011.125.027.543.098 1.086.207 1.613.305.082.015.164.027.262.054 1.152.223 2.277.461 3.363.696.066 0 .125.027.191.043.5.109.989.207 1.473.32.059 0 .113.027.184.039 1.066.238 2.109.473 3.109.711.07.012.125.027.195.039.485.113.957.223 1.414.348h.043c.5.125 1 .25 1.489.363h.039c.445.11.89.223 1.32.332.055.016.125.027.18.043.902.234 1.777.457 2.613.691.039 0 .082.032.125.032.375.093.75.207 1.11.304.054 0 .097.028.152.04.793.222 1.543.433 2.25.64l.152.043c.336.098.652.191.961.277.012 0 .039 0 .055.012.347.098.68.195 1 .293h.043c.289.082.582.18.859.266l.14.039c.278.086.555.168.817.25.277.086.527.168.777.25.043 0 .086.027.125.043.196.07.391.125.57.18.055.015.114.027.153.054.434.14.82.266 1.168.39.043.012.098.028.14.044.126.039.25.082.36.125.043 0 .082.027.125.039.14.043.266.097.39.14.04.012.083.028.11.04.082.03.152.058.223.085.043.012.082.028.125.04.054.015.097.042.136.058.07.027.141.055.196.066.027 0 .054.016.07.032.125.039.195.066.195.066.29 3.598.512 7.613.637 11.527.07 2.348.098 4.657.07 6.82-.25 27.376-6.207 53.391-17.277 75.68a157.563 157.563 0 0 1-3.14 5.989c-.528.945-1.055 1.875-1.594 2.793-.141.234-.282.457-.407.691a98.294 98.294 0 0 1-1.664 2.738c-.57.903-1.14 1.778-1.722 2.653-.141.222-.293.43-.43.652a114.341 114.341 0 0 1-3.613 5.098c-.153.207-.305.402-.457.609a118.723 118.723 0 0 1-3.82 4.793c-.153.195-.321.375-.473.57-.653.762-1.305 1.528-1.985 2.278Zm-67.43-12.64V93.152h-.027c-12.532 2.114-22.625 4.918-28.239 6.668-.234 4.25-.347 8.61-.32 12.332.266 28.528 6.973 55.446 19.418 77.832a124.602 124.602 0 0 0 9.152 14.141Zm0 0" style="stroke:none;fill-rule:nonzero;fill:#000;fill-opacity:1"/><path d="M88.027 99.82c-.234 4.25-.347 8.61-.32 12.332.266 28.528 6.973 55.446 19.418 77.832a124.602 124.602 0 0 0 9.152 14.141V93.152c-12.543 2.114-22.636 4.918-28.25 6.668ZM192.875 190c12.445-22.39 19.152-49.305 19.418-77.832.027-3.723-.086-8.086-.32-12.336-5.614-1.734-15.707-4.555-28.266-6.664v110.973a121.698 121.698 0 0 0 9.168-14.125Zm0 0" style="stroke:none;fill-rule:nonzero;fill:#003da6;fill-opacity:1"/><path d="M210.516 145.793c-13.782-2.223-26.864 9.941-36.641 33.125-5.32 12.625-7.36 20.777-9.207 30.93-3.336.027-8.5 0-8.5 0s.957-6.739 3.207-16.32c2.234-9.571 11.25-33.555 14.5-44.973a43.809 43.809 0 0 0 1.07-4.664c4-23.266-13.086-38.82-24.945-46.641-11.875 7.82-28.973 23.375-24.957 46.64a41.54 41.54 0 0 0 1.055 4.665c3.25 11.43 12.261 35.402 14.511 44.972 2.239 9.582 3.211 16.32 3.211 16.32s-5.18.028-8.5 0c-1.863-10.152-3.902-18.292-9.222-30.929-9.766-23.184-22.848-35.336-36.641-33.125-1.277.207-2.527.539-3.734.984 2.918 14.57 7.597 28.364 13.945 40.918.039 0 .066-.015.11-.015 6.831-1.082 13.515.738 18.25 5.086 7.331 6.734 7.363 17.066 7.363 17.066h-11.668c3.511 4.434 7.261 8.5 11.195 12.152h16.973c-.559 3.266-2.918 6.239-6.282 8.586 4.641 3.18 9.461 5.832 14.391 7.887 4.93-2.039 9.75-4.691 14.375-7.875-3.36-2.348-5.734-5.332-6.293-8.598h17a107.513 107.513 0 0 0 11.195-12.152H174.57s.028-10.332 7.375-17.066c4.735-4.348 11.387-6.168 18.235-5.086.054 0 .097.015.152.027 6.348-12.555 11.043-26.348 13.961-40.914a19.74 19.74 0 0 0-3.777-1Zm0 0" style="stroke:none;fill-rule:nonzero;fill:#fff;fill-opacity:1"/><path d="M125.027 143.875a42.283 42.283 0 0 0 1.055 4.668c3.25 11.43 12.266 35.402 14.516 44.973 2.234 9.582 3.207 16.316 3.207 16.316h6.18V97.234c-11.876 7.82-28.97 23.375-24.958 46.641Zm0 0" style="stroke:none;fill-rule:nonzero;fill:#c1c5c8;fill-opacity:1"/><path d="m279.945 185.195-49.695-17.14a82.26 82.26 0 0 0 2-18.055c0-13.793-3.402-26.805-9.402-38.223.027-5.527-.239-12.234-.723-18.097L222 92.082l-1.5-.555c-.152-.054-7.305-2.68-18.707-5.43-14.14-11.472-32.152-18.347-51.777-18.347s-37.657 6.875-51.793 18.348c-11.391 2.75-18.555 5.375-18.707 5.43l-1.5.554-.125 1.598c-.489 5.863-.75 12.57-.723 18.097A81.965 81.965 0 0 0 67.75 150c0 6.207.707 12.234 2 18.043L20.055 185.18c.445 1.64.918 3.25 1.418 4.863L71 172.957c7.555 26.016 27.61 46.711 53.223 55.152 7.734 6.696 16.109 11.907 24.847 15.391l.93.375.93-.375c8.738-3.484 17.113-8.707 24.847-15.39 25.614-8.442 45.668-29.137 53.223-55.137l49.527 17.082c.5-1.61.973-3.235 1.418-4.86ZM150 72.777c14 0 27.43 3.707 39.18 10.641-10.973-2.027-24.012-3.652-37.762-3.652h-2.82c-13.75 0-26.793 1.609-37.778 3.652 11.75-6.945 25.18-10.64 39.18-10.64ZM95.39 204.61C80.806 190.027 72.767 170.641 72.767 150c0-9.32 1.652-18.39 4.789-26.875 1.695 26.25 8.652 50.957 20.347 72 4.875 8.766 10.5 16.68 16.707 23.555a77.557 77.557 0 0 1-19.218-14.07Zm-2.695-32.957Zm1.61 4.196a132.36 132.36 0 0 0 1.64 3.93 169.003 169.003 0 0 1-1.64-3.93Zm1.64 3.945Zm39.903 50.957c.5.348 1 .68 1.5 1.016-.32-.211-.653-.418-.973-.641-.18-.125-.348-.25-.527-.375ZM150 238.473v-16.555l-8.11.082c-.558 3.266-2.933 6.234-6.28 8.598a92.4 92.4 0 0 1-8.844-6.903c-9.32-8.222-17.657-18.722-24.473-31a158.621 158.621 0 0 1-2.64-4.972c.042 0 .081-.016.124-.028 6.832-1.086 13.516.735 18.25 5.082 5.457 5.016 6.875 12.016 7.239 15.278-2.293-28.762-20.434-40.75-32.598-36.473-6.625-18.027-10.195-37.902-10.461-58.598v-.75c-.027-2.75.027-5.832.152-8.968.098-2.532.239-5.07.418-7.516 1.516-.516 4.125-1.36 7.614-2.36 2.832-.808 6.25-1.722 10.136-2.64 12.391-2.93 29.57-5.93 48.082-5.93h2.82c18.516 0 35.696 3 48.087 5.93 3.886.918 7.304 1.832 10.136 2.64 3.489 1 6.098 1.844 7.614 2.36.18 2.445.316 5 .414 7.527.125 3.141.18 6.223.152 8.973v.766c-.262 20.691-3.848 40.566-10.457 58.582-12.168-4.25-30.293 7.734-32.57 36.484.363-3.262 1.777-10.262 7.238-15.277 4.734-4.348 11.402-6.164 18.25-5.082a.29.29 0 0 1 .098.011 129.123 129.123 0 0 1-2.641 4.989c-6.82 12.277-15.152 22.777-24.473 31a90.527 90.527 0 0 1-9.609 7.43c-4.402 2.956-8.961 5.417-13.625 7.363Zm-12.64-6.707c.57.375 1.14.734 1.722 1.082-.566-.364-1.152-.723-1.723-1.082Zm1.78 1.125c.555.332 1.11.664 1.653 1a41.228 41.228 0 0 1-1.652-1Zm1.79 1.082Zm1.804 1.027 1.489.793c-.5-.266-.989-.516-1.489-.793Zm1.82.957c.473.238.946.473 1.403.711-.473-.238-.941-.461-1.402-.711Zm1.821.902a37.7 37.7 0 0 0 1.39.641c-.46-.207-.933-.418-1.39-.64Zm60.93-65.218a134.051 134.051 0 0 1-1.512 3.941 199.828 199.828 0 0 0 1.512-3.941Zm-1.61 4.191a154.94 154.94 0 0 1-5.347 11.863 147.247 147.247 0 0 0 5.347-11.863Zm-1.097 28.777a77.361 77.361 0 0 1-19.223 14.07c6.207-6.874 11.832-14.788 16.707-23.554 11.695-21.043 18.652-45.75 20.348-71.984a77.307 77.307 0 0 1 4.793 26.875c0 20.625-8.028 40.011-22.625 54.609Zm0 0" style="stroke:none;fill-rule:nonzero;fill:#c1c5c8;fill-opacity:1"/></svg>