<svg xmlns="http://www.w3.org/2000/svg" xml:space="preserve" x="0px" y="0px" viewBox="0 0 694 694"><circle cx="347.472" cy="346.748" r="347"/><circle cx="347.472" cy="346.748" r="194.3" fill="#0085CA"/><path fill="#FFF" d="M347.472 672.948c-179.9 0-326.2-146.3-326.2-326.2s146.3-326.2 326.2-326.2 326.2 146.3 326.2 326.2-146.3 326.2-326.2 326.2zm319.2-326.2c0-176-143.2-319.2-319.2-319.2s-319.2 143.2-319.2 319.2 143.2 319.2 319.2 319.2 319.2-143.2 319.2-319.2z"/><path fill="#FFF" d="M347.472 568.848c-122.5 0-222.1-99.6-222.1-222.1s99.6-222.1 222.1-222.1 222.1 99.6 222.1 222.1-99.6 222.1-222.1 222.1zm215.1-222.1c0-118.6-96.5-215.1-215.1-215.1s-215.1 96.5-215.1 215.1 96.5 215.1 215.1 215.1 215.1-96.5 215.1-215.1z"/><path fill="#FFF" d="m436.672 445.148-4.2 11.9c-.5 1.5-1.6 2.7-3.1 3.3-7.3 3-32.2 11.6-79.4 11.6-47.8 0-76.6-9.4-84.7-12.5-1.5-.6-2.7-1.8-3.2-3.3l-4-11.7c-.3-.9.2-2 1.1-2.3.3-.1.7-.1 1.1 0 28.4 7.7 57.8 11.5 87.2 11.4 29.3.1 58.6-3.5 87-10.7 1-.3 1.9.3 2.2 1.3.1.2.1.6 0 1zm-89.2-5.6c47.2 0 83.4-10.1 93.2-13.1 1.7-.5 3-1.8 3.6-3.5l49.2-142.6c-.4-1.4-1.4-2.5-2.7-3.1-2.4-1.2-5.2-.3-6.6 2-10.9 18.5-21.9 24.2-25.5 26l-.1.1c-2.3 1.2-3.5 3.8-2.9 6.3V311.948c.2.9.5 2.2.7 3.8.2 1.4.3 3.2.5 5.2.3 4.2.2 8.4-.4 12.5-10.3 6.4-24.2 12.5-35.2 8.5-8.7-3.2-15.4-16.9-17.8-45.5 2.8-5.4 6.5-10.3 11-14.5l.1-.1c1.9-1.8 2.4-4.5 1.2-6.8 0 0 0-.1-.1-.1l-.1-.1c-.4-.8-1-2-1.7-3.5-.5-1.3-1.1-3-1.8-4.9-1.9-6-3.5-14.9-2.6-27.5.3-2.6-1.4-5.1-4-5.8-2.7-.6-5.4.9-6.1 3.6-5.8 20.8-14.9 29.2-17.9 32l-.1.1c-1.9 1.7-2.4 4.5-1.2 6.8l.1.1.1.1c.4.8 1 2 1.7 3.5.5 1.3 1.1 3 1.8 4.9 1 3.4 1.8 6.9 2.2 10.4-14.6 27.2-25.3 36.7-38.6 36.8-13.3-.1-24-9.6-38.6-36.8.4-3.5 1.2-7 2.2-10.4.6-1.9 1.3-3.5 1.8-4.9.7-1.5 1.3-2.7 1.7-3.5l.1-.1.1-.1c1.2-2.3.7-5.1-1.2-6.8l-.1-.1c-3-2.8-12.1-11.2-17.9-32-.7-2.6-3.4-4.2-6.1-3.6-2.6.7-4.2 3.1-4 5.8.9 12.5-.7 21.5-2.6 27.5-.6 1.9-1.3 3.5-1.8 4.9-.7 1.5-1.3 2.7-1.7 3.5l-.1.1c0 .1 0 .1-.1.1-1.2 2.3-.7 5.1 1.2 6.8l.1.1c4.5 4.1 8.2 9 11 14.5-2.4 28.6-9.1 42.4-17.8 45.5-11 4-24.9-2.2-35.2-8.5-.6-4.1-.8-8.4-.4-12.5.1-2 .3-3.7.5-5.2.2-1.6.5-2.9.7-3.8V311.648c.5-2.5-.7-5.1-2.9-6.3l-.1-.1c-3.6-1.9-14.6-7.6-25.5-26-1.3-2.3-4.2-3.2-6.6-2-1.3.6-2.3 1.8-2.7 3.1l48.9 141.7c.6 1.6 1.8 2.9 3.5 3.4 9.7 3.2 46.5 14.1 93.6 14.1zm-69.9-49c6.6 0 11.9 5.3 11.9 11.9s-5.3 11.9-11.9 11.9-11.9-5.3-11.9-11.9c0-6.6 5.3-11.9 11.9-11.9zm139.8 0c6.6 0 11.9 5.4 11.8 11.9 0 6.6-5.4 11.9-11.9 11.8s-11.9-5.4-11.8-11.9c0-6.5 5.3-11.8 11.9-11.8zm-93.2 5.6c6.6 0 11.9 5.3 11.9 11.9s-5.3 11.9-11.9 11.9-11.9-5.3-11.9-11.9c0-6.6 5.3-12 11.9-11.9 0-.1 0-.1 0 0zm46.6 0c6.6 0 11.9 5.3 11.9 11.9s-5.3 11.9-11.9 11.9-11.9-5.3-11.9-11.9c0-6.6 5.3-12 11.9-11.9 0-.1 0-.1 0 0zM154.472 179.148c.4 5.5-1.7 12.2-6.6 17.8-7.2 8.4-19.5 8.4-28.9.3-9.7-8.3-11.1-20.8-3.8-29.4 3.6-4.2 8.4-7.2 13.6-8.8l.1-.2-8.2-7.1c-3.9 2.4-7.5 5.5-10.5 9-12 14-12.8 33.2 2 45.9 12.7 10.9 30 10.4 41.6-3.1 4.3-4.8 7.3-10.7 8.7-17l-7.9-7.6-.1.2zM199.872 134.948l-16.6-19.8c-4.7-5.6-7-9.5-9-14.7l-11.9 9.9c4.7 2.9 8.2 5.9 12.9 11.5l5.3 6.4-18.2 15.2-5.3-6.3c-4.7-5.6-7.1-9.5-9-14.7l-11.9 9.9c4.7 2.9 8.2 5.9 12.9 11.5l16.3 19.4c4.7 5.6 7 9.5 9 14.7l11.5-10.3c-4.7-2.9-8.2-5.9-12.9-11.5l-5-6 18.2-15.2 5.1 6.1c4.7 5.6 7 9.5 9 14.7l12.5-9.2c-4.8-3-8.3-6-12.9-11.6zM307.072 82.748c6.2-4.7 9.1-10.6 7.8-17.6-1.7-9.2-10.8-15.6-26.2-12.8l-14.4 2.6c2.7 4.8 4.2 9.2 5.5 16.3l4.5 24.9c1.3 7.1 1.4 11.8.5 17.2l15.4-3.6c-2.7-4.8-4.2-9.2-5.5-16.3l-1.7-9.3c6.5 6.8 12.4 12.5 17.7 17 3.8 3.2 7.1 5.1 9.3 5.5l9.9-1v-.3c-9.5-8.4-16.2-14.7-22.8-22.6zm-14.2.4-4.4-24.3c7.6-1.4 14.5 2.1 15.9 9.4 1 5.6-2.7 11.1-11.5 14.9zM355.272 98.148l1.4-34.4c.3-7.2 1.2-11.8 3.2-16.9l-15.7-.6c1.6 5.3 2.1 9.9 1.9 17.2l-1 25c-.3 7.2-1.2 11.8-3.2 17l30.7 1.1 5.8-12.7-.1-.1c-5.2 2.1-15.6 4.1-23 4.4zM431.572 57.748c-17.1-5-34.2 4.4-38.9 20.7-4.4 14.9 3 32.4 21.6 37.8 17.3 5 34.4-3.5 39.5-20.9s-5.5-32.7-22.2-37.6zm10.1 37c-3.1 10.7-12.7 17.3-23.1 14.2-12.6-3.6-17.6-17.4-13.9-29.8 3.4-11.8 13.5-16.8 22.7-14.1 11.8 3.4 18 17 14.3 29.7zM507.372 105.848l10.1-7.7-40.4-23.1-9.3 8.9.1.2c6.6.2 13.1 2.1 18.8 5.4l-16.7 29.3c-3.6 6.3-6.4 10-10.7 13.6l13.7 7.8c1-5.4 2.7-9.8 6.2-16.1l16.7-29.3c5.7 3.5 9.1 6.8 11.5 11zM554.772 145.248l11.5-5.4-34.7-31-10.9 6.8v.2c6.4 1.6 12.3 4.8 17.2 9.3l-22.4 25c-4.8 5.4-8.4 8.4-13.3 11l11.7 10.5c2.1-5.1 4.7-9 9.5-14.4l22.5-25c4.8 4.4 7.4 8.4 8.9 13zM263.772 106.448l-25.3-23.5c-3.9-3.4-7.5-7.2-10.9-11.2l-8.4 3.8c.8 5.2 1.1 10.4 1 15.7v35c0 7.4-.5 11.7-1.7 15.9l.1.2 14.5-8.3c-.4-.6-.7-1.1-1-1.7-.9-2.1-1.4-4.8-1.6-8.9l23.9-10.9c3.2 3.1 4.8 5 5.7 7.1.3.6.5 1.2.6 1.9l15.6-5.8-.1-.2c-4.4-2.4-8.7-5.4-12.4-9.1zm-15.9-.5-17.4 7.9-.4-24.9 17.8 17zM577.072 152.848c-3.1 4.6-6.3 7.9-12.1 12.3l-19.9 15.1c-5.8 4.4-9.9 6.6-15.2 8.3l24.1 32.7 13-3.4v-.2c-6.8-3.9-13-9.6-19.7-18.8l-3.3-4.5 14.6-11 3.3 4.4c3.8 5.3 6.7 10.6 7.5 14.1l11.8-1.4-16.4-21.7 14.3-10.8 3.4 4.4c4 5.2 6.6 11.4 7.5 17.9l12.1-2.7-25-34.7zM125.672 497.348l11.2-7.7c2.5 3.6 4.4 7.8 4.7 10.6l8.2-1-13.9-20.2c-2.4 3.3-5.5 6.1-8.9 8.4l-14.8 10.2c-3.3 2.5-7 4.3-11 5.4l6.3 9.2c2.4-3.3 5.5-6.1 9-8.4l4.9-3.4c2.6 3.8 4 6.8 4.2 9.5l8.1-1.1-8-11.5zM169.172 520.248c-8.8-9-22.7-9.2-31.3-.8-7.9 7.7-9.4 21.1.1 30.9 8.9 9.2 22.5 9.8 31.7.9s8.1-22.2-.5-31zm-6.6 26.3c-5.7 5.5-13.9 6.2-19.2.7-6.5-6.6-4.8-16.9 1.8-23.3 6.2-6.1 14.2-5.7 18.9-.8 6.1 6.3 5.2 16.9-1.5 23.4zM209.272 553.648c-10.5-7-24.1-4.3-30.8 5.6-6.1 9.2-4.9 22.5 6.5 30.2 10.6 7.1 24 5 31.2-5.7s3.3-23.3-6.9-30.1zm-1.1 27.1c-4.4 6.5-12.3 9-18.6 4.7-7.7-5.2-8.1-15.5-3-23.1 4.9-7.2 12.7-8.5 18.4-4.7 7.1 4.8 8.4 15.3 3.2 23.1zM234.772 569.748l-5.9 7v.1c4.7-.3 9.4.5 13.7 2.4l-9.7 22.5c-1.5 3.8-3.7 7.4-6.5 10.4l10.3 4.5c.3-4.1 1.4-8.1 3.2-11.9l9.7-22.5c3.5 1.4 6.6 3.7 8.9 6.8l6.6-6.2-30.3-13.1zM369.772 631.848l-2-24.3c-.5-4.1-.2-8.2.8-12.2l-11.1.9c1.7 3.8 2.6 7.8 2.8 11.9l1.5 17.9c.5 4.1.2 8.2-.8 12.2l21.6-1.8 3.1-9.8-.1-.1c-3.4 2.1-10.6 4.4-15.8 5.3zM409.072 626.048l-5.4-23.8c-1-4-1.4-8.1-.9-12.2l-10.9 2.5c2.2 3.5 3.7 7.4 4.4 11.4l4 17.5c1 4 1.4 8.1.9 12.2l21.2-4.8 1.7-10.2-.1-.1c-3.1 2.6-9.8 5.9-14.9 7.5zM486.772 591.548c-1.8 4.4-5.2 7.9-9.5 9.9-7.2 3.5-15.3.2-19.2-7.8-4-8.2-1.4-16.7 6-20.3 3.6-1.7 7.6-2.4 11.6-2l.1-.1-3.4-6.9c-3.3.5-6.5 1.5-9.5 3.1-12 5.9-18 18.3-11.9 30.7 5.2 10.7 16.8 15.1 28.4 9.4 4.3-2 7.9-5 10.7-8.8l-3.1-7.2h-.2zM521.872 568.648c-1.9 3.5-6.8 9.2-10.9 12.6l-14.1-19.9c-2.5-3.3-4.4-7-5.5-10.9l-9.1 6.4c3.3 2.4 6.2 5.4 8.5 8.8l10.4 14.7c2.5 3.3 4.4 7 5.5 10.9l17.7-12.5-2.3-10-.2-.1zM540.972 523.248c-3-2.8-5.4-6.2-7.1-9.9l-8 7.8c3.7 1.9 7 4.4 9.7 7.4l10.4 10.7c3.5 3.5 3.5 9.1.1 12.6-.1.1-.2.2-.3.2-3.4 3.3-8 3.3-12.8-1.7l-9.7-10c-3-2.8-5.4-6.2-7.1-9.9l-8 7.8c3.7 1.9 7 4.4 9.7 7.4l9.6 9.9c7.6 7.9 14.9 8.8 20.8 3 2.7-2.7 4.6-6.5 5.6-11.8 1 1 1.9 2.1 2.7 3.3l6.8-6.6c-3.7-1.9-7-4.4-9.7-7.4l-12.7-12.8zM288.472 589.248l-14.2-3.9c.3 4.1-.2 8.2-1.4 12.2l-4.7 17.4c-.9 4-2.6 7.8-4.9 11.2l14.3 3.9c8.2 2.2 16.4-.6 18.2-7.5 1.2-4.4-.4-8.1-4.4-12.2 3.8-1.2 6.6-3.6 7.5-6.9 1.6-6.1-2.4-12-10.4-14.2zm-.3 31.3c-1.1 4-5.6 6.4-11.6 4.8l-3.1-.9 4.3-15.7c8.8 2.5 11.6 7.4 10.4 11.8zm3.1-18.8c-.9 3.4-6 5-12.6 3.2l3.5-13 3.1.9c4.4 1.1 7.1 5.1 6 8.9zM584.672 496.748c-3.7-2.8-7.6-2.6-13-.4.3-4-.9-7.5-3.7-9.5-5-3.8-12-2.2-17 4.4l-8.8 11.8c3.9 1.3 7.6 3.2 10.8 5.8l14.4 10.8c3.4 2.4 6.3 5.3 8.6 8.7l8.9-11.8c5.1-6.9 5.5-15.5-.2-19.8zm-33.4 1.2 2-2.6c2.6-3.5 7.3-4.5 10.5-2.2 2.8 2.1 2.4 7.4-1.7 12.9l-10.8-8.1zm28.9 17.7-2 2.6-13-9.8c5.5-7.4 11.2-8.1 14.8-5.4 3.3 2.5 3.9 7.6.2 12.6zM334.772 606.348c-1.3-3.5-2.3-7-3-10.7l-6.6-.5c-1.3 3.5-3 6.9-4.9 10.1l-11.8 21c-1.7 3.4-4 6.5-6.6 9.3v.2l11.5.9v-1.4c.1-1.8.9-3.9 2.6-7l.2-.4 18.1 1.4.1.3c1.2 3.7 1.6 5.7 1.5 7.5 0 .5-.1.9-.3 1.4l11.7.9v-.2c-2.2-3-3.8-6.4-4.9-10l-7.6-22.8zm-15.4 15.4 7.8-14.7h.3l4.9 15.6-13-.9z"/><path fill="#0085CA" d="M603.472 260.648c2.7-.9 5.7.7 6.5 3.4.9 2.7-.6 5.6-3.3 6.5h-.1c-1.3.4-2.7.3-4-.3-1.3-.6-2.2-1.7-2.6-3.1-.7-2.7.8-5.6 3.5-6.5zM602.472 285.248l11.8 9.1c2.5 1.9 3.8 2.4 5.5 2 1.9-.4 2.9-2 2.4-4.3-.4-2-1.9-3.3-3.8-2.9-.6.1-1.1.4-1.6.7l-2.4-6.3c.9-.6 1.9-1 2.9-1.2 2.2-.4 4.5.2 6.3 1.7 2.1 1.8 3.5 4.3 3.9 7 1.3 6.4-1.1 10.8-5.7 11.7-3.3.7-6-.4-9.9-3.3l-6.3-4.7 2.2 10.9-5.4 1.1-4.1-20.6 4.2-.9zM619.472 343.448c-3.8.4-7.5-.8-10.4-3.3-5.4-5.4-5.9-14-1.1-19.9 2.4-2.7 5.8-4.1 10-4.4s7.7.9 10.4 3.3c5.4 5.4 5.8 14 1 19.9-2.5 2.8-6.1 4.3-9.9 4.4zm-9-13.4c0 1.9.9 3.7 2.5 4.9 1.8 1.2 4 1.8 6.1 1.6 2.2 0 4.3-.8 6-2.2 1.4-1.3 2.1-3.2 1.9-5.1 0-1.9-.9-3.7-2.5-4.9-1.8-1.2-3.9-1.8-6.1-1.6-2.2 0-4.3.8-5.9 2.2-1.4 1.3-2.1 3.2-2 5.1zM609.472 355.348l9 11.9c1.9 2.5 3 3.3 4.7 3.4 1.9.1 3.3-1.2 3.5-3.5.2-2-1-3.7-2.9-3.8-.6 0-1.2.1-1.7.3l-.6-6.8c1-.3 2-.4 3.1-.4 2.3.2 4.3 1.4 5.6 3.2 1.6 2.3 2.2 5.1 1.9 7.8-.5 6.5-3.9 10.1-8.5 9.8-3.4-.2-5.7-2-8.7-5.8l-4.8-6.3-.8 11.1-5.5-.4 1.5-20.9 4.2.4zM606.172 389.148l7.4 13c1.5 2.7 2.6 3.6 4.2 4 1.8.4 3.4-.7 3.9-3 .4-2-.5-3.8-2.3-4.2-.6-.1-1.2-.1-1.8 0l.2-6.8c1-.2 2.1-.2 3.1 0 2.2.5 4.1 2 5.2 4 1.2 2.5 1.6 5.3.9 8-1.3 6.4-5.2 9.5-9.7 8.6-3.3-.7-5.4-2.7-7.8-6.8l-4-6.9-2.2 10.9-5.4-1.1 4.1-20.6 4.2.9zM606.272 424.248c2.7.9 4.3 3.8 3.4 6.6-.8 2.7-3.7 4.3-6.4 3.4h-.1c-2.7-.9-4.2-3.8-3.4-6.6.4-1.3 1.3-2.4 2.6-3 1.1-.7 2.6-.9 3.9-.4zM102.572 428.548l-26.1 7.1-1.8-6.5 17-12.9-21.2-2.5-1.8-6.5 26.1-7.1 1.6 5.9-14.3 3.9 4.3.2 11.6 1.5 1.5 5.5-9.2 7.2-3.6 2.3 14.3-3.9 1.6 5.8zM93.472 390.548l-26.7 4.3-1-6.2 26.7-4.3 1 6.2zM90.972 374.648l-27 1.7-.4-6.2 14.7-10.8c.6-.5 1.3-.9 2-1.3l-17.4 1.1-.4-6.1 27-1.7.4 6.2-14.8 10.8c-.7.5-1.3.9-2.1 1.3l17.6-1.1.4 6.1zM67.972 342.748l-5.5-.3 1.2-22.2 5.5.3-.4 8 21.5 1.1-.3 6.2-21.5-1.2-.5 8.1zM91.572 314.248l-26.7-4.4 3.2-19.5 5.4.9-2.2 13.3 4.8.8 2-12.2 5.3.9-2 12.2 5.8 1 2.2-13.5 5.4.9-3.2 19.6zM96.572 286.648l-26-7.5 2.4-8.4c1.2-4.3 3.4-7.5 6.3-9.6s6.6-2.4 10.8-1.2c4.2 1.2 7.1 3.5 8.5 6.8s1.6 7.1.3 11.5l-2.3 8.4zm-2.9-10.5c1.4-4.9-.5-8.7-5.3-10.1s-8.4.8-9.9 5.7l-.8 2.9 15.2 4.4.8-2.9z"/></svg>