<svg xmlns="http://www.w3.org/2000/svg" width="1058.4957" height="1058.4957" style="clip-rule:evenodd;fill-rule:evenodd;image-rendering:optimizeQuality;shape-rendering:geometricPrecision;text-rendering:geometricPrecision" viewBox="0 0 1058.4957 1058.4957"><path fill="none" d="M-24.416-22.889h1117.137V1083.02H-24.416z" style="fill:#061314;fill-opacity:0"/><path d="M237 0C106.1 0 0 106.1 0 237s106.1 237 237 237 237-106.1 237-237S367.9 0 237 0Z" class="st0" style="fill:#1e1c50" transform="scale(2.23311)"/><path d="M237 18c58.5 0 113.5 22.8 154.9 64.1C433.3 123.5 456 178.5 456 237s-22.8 113.5-64.1 154.9C350.5 433.3 295.5 456 237 456s-113.5-22.8-154.8-64.1C40.8 350.5 18 295.5 18 237S40.8 123.5 82.2 82.1C123.5 40.8 178.5 18 237 18" class="st1" style="fill:#fff" transform="scale(2.23311)"/><path d="m386.5 106-37.1 27.5-8.4-8.4L368.6 88C332.3 55.8 286 38.2 237.1 38.2c-48.7 0-94.7 17.4-130.9 49.2l28 37.7-8.5 8.4-37.7-28C55.8 141.9 38.3 188.1 38.3 237c0 48.9 17.6 95.1 49.7 131.5l37.7-28 8.4 8.4-28 37.7c36.2 31.8 82.2 49.2 130.9 49.2 49 0 95.2-17.6 131.5-49.8l-27.6-37.2 8.4-8.4 37.1 27.5c31.9-36.3 49.3-82.3 49.3-131 .1-48.6-17.3-94.6-49.2-130.9zM237 376.5c-76.9 0-139.5-62.6-139.5-139.5S160.1 97.5 237 97.5 376.5 160.1 376.5 237 314 376.5 237 376.5z" class="st2" style="fill:#7dcdef" transform="scale(2.23311)"/><path d="M296.5 211.3V188L286 177.5h-98L177.5 188v98l10.5 10.5h98l10.5-10.5v-23.3h36.7v34.6l-35.8 35.9H176.7l-35.8-35.9v-41.7L122.3 237l18.6-18.6v-41.7l35.8-35.9h120.7l35.8 35.9v34.6z" class="st3" style="fill:#ed1e24" transform="scale(2.23311)"/><path d="m254.2 237 26.4 25.2-35-10.3-8.6 35.4-8.6-35.4-35 10.3 26.4-25.2-26.4-25.2 35 10.3 8.6-35.4 8.6 35.4 35-10.3z" class="st3" style="fill:#ed1e24" transform="scale(2.23311)"/></svg>