<svg xmlns="http://www.w3.org/2000/svg" xml:space="preserve" width="200.83434" height="300"><defs><clipPath id="a"><path d="M0 792h612V0H0v792z"/></clipPath></defs><g clip-path="url(#a)" transform="matrix(1.51514 0 0 -1.51514 -363.972 750.752)"><path d="M337.767 454.128 306.5 478.709l-31.267-24.581 31.267 21.227 31.267-21.227zM289.687 337.352l16.813-20.184 16.813 20.184-16.813-15.67-16.813 15.67zM322.206 389.89l-15.707 16.173-15.707-16.173-2.864 2.528-13.944-14.387a135.566 135.566 0 0 1 2.028-3.279l13.213 15.617 2.67-2.704 14.604 17.294 14.605-17.294 2.67 2.704 13.211-15.618a128.484 128.484 0 0 1 2.03 3.279l-13.946 14.388-2.863-2.528z" style="fill:#fff;fill-opacity:1;fill-rule:nonzero;stroke:none"/><path d="m306.5 380.292 4.091-2.974-1.565-4.809h-5.054l-1.563 4.809 4.091 2.974zm0-11.012c5.425 0 9.864 4.192 10.276 9.512l-.621.348.47 2.355a10.323 10.323 0 0 1-6.034 7.578l-4.091-2.97-4.091 2.97a10.318 10.318 0 0 1-6.034-7.581l.467-2.352-.619-.347c.412-5.321 4.849-9.513 10.277-9.513M277.41 436.399c0 .532.436 1.094.967 1.25l1.762.518c.532.154.966-.155.966-.686v-13.524c0-.533-.434-1.096-.966-1.251l-1.762-.516c-.531-.156-.967.152-.967.684v13.525zm.295-16.89 3.106.91c1.662.486 3.022 2.245 3.022 3.906v14.384c0 1.663-1.36 2.624-3.022 2.136l-3.106-.908c-1.663-.487-3.022-2.246-3.022-3.908v-14.383c0-1.663 1.359-2.624 3.022-2.137M298.205 425.993a.887.887 0 0 0-.967.895v13.525c0 .531.436.999.967 1.04l1.762.134a.886.886 0 0 0 .967-.893v-13.525c0-.532-.435-1.001-.967-1.041l-1.762-.135zm5.456.953v14.384c0 1.662-1.359 2.919-3.021 2.792l-3.107-.236c-1.662-.126-3.021-1.589-3.021-3.251v-14.383c0-1.662 1.359-2.919 3.021-2.793l3.107.236c1.662.126 3.021 1.589 3.021 3.251M346.298 418.783c0-.532-.436-.781-.967-.554l-1.763.752c-.532.229-.967.85-.967 1.38v13.526c0 .531.435.781.967.554l1.763-.753c.531-.227.967-.848.967-1.38v-13.525zm-.297 17.102-3.105 1.326c-1.662.712-3.022-.069-3.022-1.73v-14.384c0-1.661 1.36-3.602 3.022-4.312l3.105-1.327c1.662-.71 3.021.069 3.021 1.73v14.385c0 1.661-1.359 3.603-3.021 4.312M272.267 435.145c0 1.661-1.359 2.433-3.021 1.713l-2.25-.974c-1.662-.718-3.021-2.668-3.021-4.329v-14.384c0-1.662 1.359-2.433 3.021-1.713l2.25.974c1.662.719 3.021 2.667 3.021 4.327v1.373l.409.438v.281l-3.545-1.535v-.279l.409-.083v-.946c0-.529-.434-1.154-.965-1.384l-.907-.393c-.532-.23-.966.018-.966.55v13.526c0 .53.434 1.153.966 1.384l.907.392c.531.23.965-.017.965-.547v-1.76l-.409-.437v-.28l3.545 1.533v.282l-.409.084v2.187zM292.504 425.756l-.278-.05-.262-.456-2.989-.542v17.402l.408.334v.282l-3.545-.643v-.28l.41-.188v-19.343l-.41-.334v-.282l6.666 1.208v2.892zM334.175 422.311l-2.73.731v15.459l2.73-.73c.531-.143.967-.693.967-1.227v-13.523c0-.534-.436-.853-.967-.71m3.693-.452v14.385c0 1.66-1.359 3.383-3.021 3.831l-6.535 1.752v-.282l.408-.37v-19.344l-.408-.15v-.281l6.535-1.752c1.662-.445 3.021.55 3.021 2.211M311.642 435.176a.925.925 0 0 0-.967-.928l-1.873.074v7.361l1.873-.074a1.02 1.02 0 0 0 .967-1.007v-5.426zm3.545-11.411-.606.41-2.25 7.689a2.887 2.887 0 0 1 2.037 2.775v6.284c0 1.662-1.359 3.076-3.021 3.142l-5.68.228v-.281l.409-.277v-19.344l-.409-.245v-.28l3.545-.034v.281l-.41.277v7.45l.853-.035 2.366-8.091 3.166-.23v.281zM320.329 432.759v7.005c0 .532.436.897.967.813l.906-.142c.531-.085.965-.59.965-1.121v-7.004l-2.838.449zm2.43-9.969v-.28l3.547-.671v.281l-.41.326v16.864c0 1.662-1.36 3.237-3.022 3.501l-2.25.357c-1.662.263-3.021-.881-3.021-2.543v-16.864l-.411-.195v-.282l3.545-.454v.281l-.408.325v6.841l2.838-.452v-6.839l-.408-.196zM312.327 416.843v.143h-2.422v-.143c.182 0 .33-.095.33-.21v-5.472c0-.115-.148-.21-.33-.21v-.141h2.422v.141c-.183 0-.33.095-.33.21v5.472c0 .115.147.21.33.21M317.616 415.601h1.502c.942 0 1.703-.459 1.703-1.704 0-1.243-.761-1.703-1.703-1.703h-1.502v3.407zm-2.092-4.649v-.142h3.971c1.705 0 3.088 1.038 3.088 3.087 0 2.05-1.383 3.088-3.088 3.088h-3.971v-.142c.184 0 .33-.095.33-.21v-5.471c0-.117-.146-.21-.33-.21M302.876 415.601h1.95a.645.645 0 0 0 0-1.288h-1.95v1.288zm2.326-2.675a2.03 2.03 0 0 1 0 4.059h-4.417v-.142c.182 0 .329-.095.329-.21v-5.471c0-.117-.147-.21-.329-.21v-.142h2.421v.142c-.183 0-.33.093-.33.21v1.764h2.326zM285.85 414.313h-2.264v1.288h2.264a.644.644 0 1 0 0-1.288m2.405.644a2.028 2.028 0 0 1-2.029 2.028h-4.731v-.143c.182 0 .329-.093.329-.21v-5.47c0-.117-.147-.21-.329-.21v-.142h2.42v.142c-.182 0-.329.093-.329.21v1.763h1.184l1.246-1.763c.081-.117.001-.21-.181-.21v-.142h2.42v.142c-.181 0-.395.093-.477.21l-1.26 1.784a2.032 2.032 0 0 1 1.737 2.011M293.287 413.088l1.131 2.966 1.132-2.966h-2.263zm2.749-2.137v-.141h2.138v.156c-.132.033-.245.107-.279.195l-2.086 5.472c-.045.115.066.21.249.21v.142h-3.279v-.142c.182 0 .294-.095.25-.21l-2.088-5.472c-.032-.088-.146-.162-.276-.195v-.156h2.138v.141c-.183 0-.294.095-.25.21l.394 1.033h2.944l.393-1.033c.045-.115-.067-.21-.248-.21M325.583 413.228l-.867-2.09.142-.035s.11.151.233.151c.361 0 .904-.504 3.166-.504 1.551 0 3.248.404 3.248 2.089 0 2.618-4.731 1.463-4.731 2.391 0 .425.741.611 1.223.611 1.66 0 2.602-.419 2.453-.736l.141-.068.808 1.64-.127.049s-.093-.182-.318-.182c-.223 0-1.531.499-2.957.499-1.533 0-2.986-.693-2.986-1.813 0-2.619 4.732-1.334 4.732-2.391 0-.49-.498-.702-1.486-.702-2.258 0-2.686.717-2.553 1.03l-.121.061z" style="fill:#fff;fill-opacity:1;fill-rule:nonzero;stroke:none"/><path d="M306.5 303.506c-35.813 36.137-61.637 91.415-62.317 134.366l62.317 52.535c4.541-3.829 59.649-50.286 62.315-52.535-.679-42.951-26.502-98.229-62.315-134.366m0 191.995-66.276-55.873c0-46.293 28.922-105.999 66.276-142.129 37.351 36.13 66.276 95.836 66.276 142.129L306.5 495.501z" style="fill:#d3d5d7;fill-opacity:1;fill-rule:nonzero;stroke:none"/><path d="M306.5 330.318c-15.303 15.372-43.479 48.981-49.894 91.271a116.858 116.858 0 0 0-1.218 12.408l51.112 33.5 51.11-33.5c-.183-4.212-.603-8.35-1.218-12.41-6.416-42.288-34.592-75.899-49.892-91.269m0 140.035-54.194-35.472c2.226-50.908 36.382-91.461 54.194-109.295 17.81 17.834 51.968 58.387 54.194 109.295L306.5 470.353z" style="fill:#d3d5d7;fill-opacity:1;fill-rule:nonzero;stroke:none"/><path d="M302.996 354.994c-.62 0-1.121-.338-1.121-.753 0-.418.501-.756 1.121-.756.618 0 1.119.338 1.119.756 0 .415-.501.753-1.119.753" style="fill:#d3d5d7;fill-opacity:1;fill-rule:nonzero;stroke:none"/><path d="M302.707 351.563c1.676 0 1.75 1.416 1.75 1.416s-.876-.526-1.912-.526c-1.122 0-1.982.745-1.982 1.788 0 1.211 1.236 1.788 2.433 1.788 1.9 0 2.825-1.001 2.825-2.717 0-1.772-1.534-2.718-3.114-2.718-1.186 0-1.753.315-1.862.315-.135 0-.233-.111-.233-.111l-.124.05.805 1.366.103-.05c-.05-.265.225-.601 1.311-.601m-13.481 38.807-13.213-15.618c9.298-14.518 20.139-25.247 30.487-32.757v17.887c-8.625 0-15.618 6.991-15.618 15.615 0 8.626 6.993 15.618 15.618 15.618v13.844l-14.605-17.294-2.669 2.705z" style="fill:#d3d5d7;fill-opacity:1;fill-rule:nonzero;stroke:none"/><path d="m306.5 317.168-16.813 20.184 16.813-15.67 16.812 15.67-16.812-20.184zm0 153.185 54.194-35.471c-2.226-50.909-36.384-91.462-54.194-109.296-17.812 17.834-51.968 58.387-54.194 109.296l54.194 35.471zm0 8.356 31.267-24.581-31.267 21.227-31.267-21.227 31.267 24.581zm0 2.86-58.529-45.005c2.39-50.72 38.35-102.691 58.529-122.837 20.177 20.146 56.136 72.117 58.528 122.837L306.5 481.569z" style="fill:#9cc2ea;fill-opacity:1;fill-rule:nonzero;stroke:none"/><path d="M310.003 351.627c.619 0 1.121.338 1.121.755 0 .416-.502.753-1.121.753-.617 0-1.119-.337-1.119-.753 0-.417.502-.755 1.119-.755" style="fill:#9cc2ea;fill-opacity:1;fill-rule:nonzero;stroke:none"/><path d="M310.292 355.06c-1.676 0-1.75-1.417-1.75-1.417s.875.527 1.91.527c1.123 0 1.983-.747 1.983-1.788 0-1.211-1.237-1.788-2.432-1.788-1.9 0-2.826 1.001-2.826 2.718 0 1.769 1.535 2.717 3.115 2.717 1.184 0 1.754-.317 1.861-.317.135 0 .233.113.233.113l.123-.053-.803-1.363-.103.05c.05.263-.225.601-1.311.601m11.824 20.438c0-8.625-6.992-15.616-15.616-15.616v-17.886c10.347 7.509 21.188 18.237 30.485 32.755l-13.211 15.62-2.669-2.706-14.605 17.294v-13.844c8.624 0 15.616-6.992 15.616-15.617" style="fill:#9cc2ea;fill-opacity:1;fill-rule:nonzero;stroke:none"/><path d="m296.222 378.793-1.97-1.104a12.195 12.195 0 0 0 1.604 6.412l.518-2.609a10.317 10.317 0 0 0 6.035 7.581l.184.569c1.227.412 2.54.638 3.906.638 1.367 0 2.681-.226 3.906-.638l.186-.569a10.32 10.32 0 0 0 6.033-7.578l.518 2.606a12.205 12.205 0 0 0 1.605-6.412l-1.971 1.103c-.412-5.32-4.851-9.512-10.277-9.512-5.426 0-9.865 4.192-10.277 9.513m23.822-1.697c0 7.48-6.065 13.545-13.545 13.545-7.48 0-13.544-6.065-13.544-13.545 0-7.483 6.064-13.547 13.544-13.547s13.545 6.064 13.545 13.547" style="fill:#9cc2ea;fill-opacity:1;fill-rule:nonzero;stroke:none"/><path d="M306.5 390.641c7.479 0 13.544-6.065 13.544-13.545 0-7.483-6.065-13.547-13.544-13.547-7.48 0-13.544 6.064-13.544 13.547 0 7.48 6.064 13.545 13.544 13.545m0-30.759c8.625 0 15.616 6.991 15.616 15.614 0 8.627-6.991 15.619-15.616 15.619s-15.618-6.992-15.618-15.619c0-8.623 6.993-15.614 15.618-15.614" style="fill:#424a52;fill-opacity:1;fill-rule:nonzero;stroke:none"/><path d="M339.015 378.03a128.484 128.484 0 0 0-2.03-3.279c-9.297-14.518-20.138-25.246-30.485-32.756-10.348 7.51-21.189 18.239-30.487 32.757a132.515 132.515 0 0 0-2.03 3.279c-7.207 11.997-13.344 26.414-17.377 43.558 6.415-42.29 34.592-75.899 49.894-91.271 15.3 15.37 43.476 48.981 49.892 91.269-4.032-17.144-10.17-31.56-17.377-43.557" style="fill:#424a52;fill-opacity:1;fill-rule:nonzero;stroke:none"/><path d="m247.97 436.564 58.529 45.005 58.529-45.005c-2.392-50.72-38.351-102.691-58.529-122.837-20.177 20.146-56.137 72.117-58.529 122.837m58.529 53.844-62.317-52.535c.682-42.952 26.504-98.23 62.317-134.367 35.814 36.137 61.637 91.415 62.316 134.367-2.666 2.249-57.773 48.706-62.316 52.535" style="fill:#960a2c;fill-opacity:1;fill-rule:nonzero;stroke:none"/><path d="M285.85 415.601h-2.264v-1.288h2.264a.644.644 0 1 1 0 1.288M345.331 433.688l-1.764.753c-.531.226-.965-.024-.965-.553v-13.527c0-.529.434-1.152.965-1.38l1.764-.752c.531-.228.967.021.967.555v13.525c0 .53-.436 1.151-.967 1.379M280.138 438.166l-1.762-.517c-.531-.156-.967-.718-.967-1.25v-13.526c0-.53.436-.839.967-.683l1.762.515c.532.156.968.72.968 1.251v13.525c0 .532-.436.84-.968.685M334.175 437.771l-2.73.73v-15.459l2.73-.731c.531-.143.967.176.967.71v13.523c0 .534-.436 1.084-.967 1.227M304.826 415.601h-1.949v-1.288h1.949a.643.643 0 1 1 0 1.288" style="fill:#960a2c;fill-opacity:1;fill-rule:nonzero;stroke:none"/><path d="M349.022 417.188c0-1.661-1.359-2.439-3.02-1.73l-3.106 1.328c-1.663.71-3.022 2.651-3.022 4.312v14.383c0 1.662 1.359 2.441 3.022 1.729l3.106-1.325c1.661-.71 3.02-2.651 3.02-4.311v-14.386zm-11.154 4.671c0-1.66-1.359-2.656-3.021-2.211l-6.535 1.752v.281l.408.15v19.344l-.408.37v.282l6.535-1.752c1.662-.448 3.021-2.171 3.021-3.831v-14.385zm-9.611-11.109c-2.262 0-2.805.504-3.166.504-.123 0-.233-.151-.233-.151l-.142.035.868 2.09.12-.061c-.133-.313.295-1.03 2.553-1.03.988 0 1.486.212 1.486.702 0 1.057-4.732-.228-4.732 2.391 0 1.12 1.453 1.813 2.986 1.813 1.426 0 2.734-.499 2.957-.499.225 0 .318.182.318.182l.127-.049-.808-1.64-.141.068c.149.317-.793.736-2.453.736-.482 0-1.223-.186-1.223-.611 0-.928 4.731.227 4.731-2.391 0-1.685-1.697-2.089-3.248-2.089m-7.928 19.526v-6.84l.408-.326v-.279l-3.545.454v.28l.411.196v16.864c0 1.663 1.359 2.806 3.021 2.542l2.25-.356c1.662-.265 3.022-1.839 3.022-3.501v-16.865l.41-.324v-.283l-3.547.672v.281l.409.194v6.841l-2.839.45zm-.834-19.466h-3.971v.142c.185 0 .33.093.33.21v5.47c0 .117-.145.21-.33.21v.143h3.971c1.705 0 3.089-1.039 3.089-3.088 0-2.049-1.384-3.087-3.089-3.087m-4.308 12.673-3.166.23-2.366 8.092-.853.034v-7.449l.41-.277v-.28l-3.545.034v.279l.409.245v19.343l-.409.278v.28l5.68-.228c1.662-.064 3.021-1.48 3.021-3.142v-6.283a2.886 2.886 0 0 0-2.037-2.775l2.25-7.69.606-.409v-.282zm-2.86-6.641c-.183 0-.33-.093-.33-.21v-5.47c0-.117.147-.21.33-.21v-.142h-2.422v.142c.182 0 .33.093.33.21v5.47c0 .117-.148.21-.33.21v.143h2.422v-.143zm-7.125-3.917h-2.326v-1.763c0-.117.147-.21.33-.21v-.142h-2.421v.142c.182 0 .329.093.329.21v5.47c0 .117-.147.21-.329.21v.143h4.417a2.031 2.031 0 0 0 0-4.06m-7.669 10.534c-1.662-.126-3.021 1.13-3.021 2.792v14.384c0 1.661 1.359 3.125 3.021 3.251l3.107.237c1.661.127 3.021-1.13 3.021-2.792v-14.385c0-1.661-1.36-3.125-3.021-3.251l-3.107-.236zm.64-12.649h-2.137v.142c.18 0 .293.093.248.21l-.393 1.032h-2.945l-.393-1.032c-.045-.117.067-.21.25-.21v-.142h-2.138v.155c.13.035.244.109.276.197l2.087 5.47c.044.117-.067.21-.25.21v.143h3.28v-.143c-.183 0-.294-.093-.248-.21l2.086-5.47c.033-.088.146-.162.277-.197v-.155zm-10.396.352c.082-.117.296-.21.478-.21v-.142h-2.42v.142c.183 0 .263.093.182.21l-1.246 1.763h-1.185v-1.763c0-.117.146-.21.33-.21v-.142h-2.421v.142c.183 0 .328.093.328.21v5.47c0 .117-.145.21-.328.21v.143h4.732a2.027 2.027 0 0 0 2.028-2.028 2.032 2.032 0 0 0-1.736-2.011l1.258-1.784zm-10.072 8.348c-1.663-.488-3.021.473-3.021 2.136v14.383c0 1.662 1.358 3.422 3.021 3.908l3.107.909c1.662.487 3.021-.474 3.021-2.137v-14.383c0-1.662-1.359-3.421-3.021-3.908l-3.107-.908zm8.133 2.428.41.333v19.345l-.41.187v.28l3.545.643v-.282l-.408-.334v-17.402l2.989.542.262.457.278.048v-2.891l-6.666-1.208v.282zm-13.162 10.654-3.545-1.533v.28l.41.437v1.76c0 .53-.436.777-.966.548l-.907-.393c-.531-.231-.966-.854-.966-1.384v-13.526c0-.532.435-.78.966-.55l.907.394c.53.229.966.854.966 1.383v.946l-.41.083v.279l3.545 1.535v-.281l-.408-.438v-1.372c0-1.661-1.36-3.609-3.022-4.328l-2.249-.974c-1.663-.72-3.021.052-3.021 1.713v14.384c0 1.661 1.358 3.611 3.021 4.33l2.249.973c1.662.72 3.022-.052 3.022-1.713v-2.187l.408-.083v-.283zm33.824 34.905-51.112-33.5c.183-4.21.604-8.348 1.218-12.409 4.033-17.143 10.17-31.56 17.377-43.557l13.946 14.387 2.863-2.528 15.708 16.173 15.706-16.173 2.863 2.528 13.946-14.388c7.207 11.997 13.345 26.413 17.377 43.556.615 4.061 1.035 8.2 1.218 12.411l-51.11 33.5z" style="fill:#960a2c;fill-opacity:1;fill-rule:nonzero;stroke:none"/><path d="M293.287 413.088h2.263l-1.132 2.966-1.131-2.966zM310.675 441.608l-1.873.075v-7.361l1.873-.073a.923.923 0 0 1 .967.926v5.427c0 .532-.434.984-.967 1.006M299.966 441.587l-1.762-.134a1.066 1.066 0 0 1-.967-1.04v-13.525c0-.532.436-.935.967-.895l1.762.135c.533.04.968.509.968 1.041v13.525a.886.886 0 0 1-.968.893M319.118 415.601h-1.502v-3.407h1.502c.942 0 1.703.46 1.703 1.703 0 1.245-.761 1.704-1.703 1.704M323.167 439.313c0 .532-.434 1.037-.965 1.122l-.906.143c-.531.084-.967-.283-.967-.814v-7.006l2.838-.448v7.003zM310.591 377.318l-4.091 2.974-4.091-2.974 1.562-4.809h5.055l1.565 4.809zM310.591 389.073l-.187.569a12.255 12.255 0 0 1-7.811 0l-.184-.569 4.091-2.97 4.091 2.97zM295.856 384.101a12.205 12.205 0 0 1-1.604-6.412l1.97 1.104.62.347-.467 2.352-.519 2.609zM316.624 381.495l-.469-2.355.621-.348 1.971-1.103a12.199 12.199 0 0 1-1.605 6.411l-.518-2.605zM302.996 353.485c-.62 0-1.121.338-1.121.756 0 .415.501.753 1.121.753.618 0 1.119-.338 1.119-.753 0-.418-.501-.756-1.119-.756m0 2.544c-1.196 0-2.433-.577-2.433-1.788 0-1.043.861-1.788 1.982-1.788 1.036 0 1.912.526 1.912.526s-.073-1.416-1.75-1.416c-1.086 0-1.361.336-1.311.601l-.103.051-.804-1.367.124-.05s.097.111.232.111c.109 0 .676-.315 1.862-.315 1.58 0 3.115.946 3.115 2.718 0 1.716-.926 2.717-2.826 2.717M310.003 353.135c.619 0 1.121-.337 1.121-.753 0-.417-.502-.755-1.121-.755-.617 0-1.119.338-1.119.755 0 .416.502.753 1.119.753m1.703 1.274.803 1.363-.123.053s-.098-.113-.233-.113c-.107 0-.677.317-1.861.317-1.58 0-3.115-.949-3.115-2.717 0-1.717.926-2.718 2.826-2.718 1.195 0 2.432.577 2.432 1.788 0 1.041-.86 1.788-1.983 1.788-1.035 0-1.91-.527-1.91-.527s.074 1.417 1.75 1.417c1.086 0 1.361-.338 1.311-.601l.103-.05zM320.069 307.822h1.43v-4.316h.52v4.316h1.503v.518h-3.453v-.518zM326.286 304.406l-1.24 3.934h-.832v-4.834h.519v4.106l1.295-4.106h.52l1.293 4.106v-4.106h.519v4.834h-.834l-1.24-3.934z" style="fill:#960a2c;fill-opacity:1;fill-rule:nonzero;stroke:none"/></g></svg>