<svg xmlns="http://www.w3.org/2000/svg" width="236" height="250.45296" viewBox="0 0 236 250.45296"><path d="M234.886 47.76a34.962 34.962 0 0 1-7.376 20.68 59.572 59.572 0 0 1 2.111 15.796c-.032 16.478-7.741 25.214-9.693 28.178a49.539 49.539 0 0 1-4.593 29.606c-5.16 10.156-12.189 17.155-23.242 22.732 0 0-8.365 20.864-19.288 35.837-23.38 32.052-50.35 47.419-55.052 48.96-5.113-1.62-31.274-16.767-54.752-48.959-10.923-14.975-19.289-35.835-19.289-35.835-11.053-5.58-18.081-12.58-23.242-22.73a49.542 49.542 0 0 1-4.592-29.606c-1.951-2.966-9.66-11.703-9.693-28.181a59.558 59.558 0 0 1 2.111-15.796A34.963 34.963 0 0 1 .92 47.763a45.197 45.197 0 0 1 4.967-22.49 26.258 26.258 0 0 1 1.862-2.926 36.785 36.785 0 0 0 3.185 8.019 26.988 26.988 0 0 0 5.888 7.314 29.008 29.008 0 0 0 10.533 6.206l-.035-34.378c15.767-3.476 47.628-8.41 90.471-8.41 42.849 0 74.41 4.934 90.69 8.41l-.035 34.378a29.007 29.007 0 0 0 10.533-6.206 26.971 26.971 0 0 0 5.889-7.314 36.785 36.785 0 0 0 3.184-8.019 26.244 26.244 0 0 1 1.862 2.927 45.197 45.197 0 0 1 4.967 22.49" style="fill:#231f20"/><path d="M228.572 30.71c-1.535 3.905-4.922 7.577-8.289 10.496-4.025 3.493-10.978 6.67-15.156 7.357V11.968c-5.313-1.107-36.226-7.638-87.274-7.638-51.046 0-81.857 6.532-87.163 7.637v36.596c-4.19-.687-11.139-3.864-15.165-7.357-3.365-2.919-6.747-6.591-8.286-10.497a40.591 40.591 0 0 0-2.707 16.279c.286 9.332 3.406 14.625 7.71 20.876 0 0-3.101 6.646-2.41 19.685.586 11.044 6.972 20.025 9.904 24.11-3.337 19.502 5.665 32.731 11.207 39.095a51.808 51.808 0 0 0 15.936 11.86c2.913 7.662 10.424 24.562 20.588 37.721 12.32 15.953 30.152 34.667 50.25 45.12 20.102-10.453 38.305-29.167 50.626-45.12 10.163-13.16 17.674-30.058 20.588-37.721a51.807 51.807 0 0 0 15.936-11.86c5.542-6.364 14.543-19.593 11.207-39.095 2.932-4.085 9.319-13.066 9.904-24.11.691-13.039-2.41-19.685-2.41-19.685 4.304-6.251 7.424-11.543 7.71-20.876a40.618 40.618 0 0 0-2.707-16.279" style="fill:#fff"/><g style="fill:#231f20"><path d="M51.245 16.202a16.278 16.278 0 0 0-3.037.186c-2.455.3-8.271 1.249-8.271 1.249l.018 34.668s3.517-.456 4.77-.633c1.327-.188 5.425-.682 6.352-.876a5.949 5.949 0 0 0 3.242-1.62 6.11 6.11 0 0 0 1.825-4.676l-.018-21.256a11.06 11.06 0 0 0-.764-4.527 4.824 4.824 0 0 0-2.366-2.18 5.312 5.312 0 0 0-1.75-.335Zm-2.553 3.446a1.363 1.363 0 0 1 1.304.336c.286.305.333.895.336 1.937l.018 23.976a1.815 1.815 0 0 1-.447 1.453 2.575 2.575 0 0 1-1.36.503l-2.794.373-.019-28.167 2.962-.41ZM59.807 45.878a1.986 1.986 0 0 0-1.397.764 2.06 2.06 0 0 0-.484 1.528 2.083 2.083 0 0 0 .707 1.453 1.925 1.925 0 0 0 1.49.521 1.947 1.947 0 0 0 1.398-.745 2.167 2.167 0 0 0-.242-2.999 1.898 1.898 0 0 0-1.472-.522ZM72.855 13.485c-1.021.07-4.262.278-6.24 2.31a6.846 6.846 0 0 0-1.728 5.158v22.188a5.81 5.81 0 0 0 2.124 4.657c.629.494 2.021 1.595 5.775 1.248a9.918 9.918 0 0 0 5.887-2.16 5.354 5.354 0 0 0 1.77-4.267v-8.215l-5.72 2.403.019 5.905c0 1.796-.659 2.591-2.03 2.758-.9.108-2.106-.014-2.106-2.255V19.202a2.042 2.042 0 0 1 1.882-2.291 1.78 1.78 0 0 1 2.18 1.993l.018 6.874 5.7-2.422-.018-3.39a7.754 7.754 0 0 0-.801-4.173c-1.282-1.964-4.335-2.475-6.725-2.31ZM84.323 43.81a1.92 1.92 0 0 0-1.378.745 2.115 2.115 0 0 0-.503 1.547 2.061 2.061 0 0 0 .726 1.434 1.946 1.946 0 0 0 2.869-.223 2.144 2.144 0 0 0-.223-3 1.928 1.928 0 0 0-1.49-.503ZM106.165 12.05l-5.869.15v29.396c0 2.07-1.183 2.423-2.366 2.44-1.457.022-2.29-.608-2.29-2.198v-29.49l-5.795.28V41.54c0 3.019 1.224 3.913 1.807 4.433 1.105.984 3.604 1.651 6.204 1.547 3.071-.124 4.785-.769 6.278-1.882a5.423 5.423 0 0 0 2.03-4.546V12.05ZM117.118 11.92l-5.384.018v34.856h5.757V22.706l5.607 11.084v13.004l5.664.093V12.032l-5.813-.056-.019 12.854-5.812-12.91zM134.854 12.181v34.855l5.775.317V12.386l-5.775-.205zM144.54 12.59l-1.732 3.484 6.26.354v31.297s5.877.414 5.756.41V16.782l5.775.39-.037-3.557s-5.837-.417-8.197-.56c-3.26-.195-7.824-.465-7.824-.465ZM163.375 13.82v34.949s4.4.44 6.054.615c1.85.196 6.8.726 6.8.726l-.037-3.95-7.08-.819.02-12.593 3.781.391L175 29.134l-5.887-.634V18.03l6.166.652.038-3.65s-3.96-.402-5.72-.597c-1.444-.16-6.222-.615-6.222-.615ZM179.62 15.59v35.004s3.604.456 4.787.652c1.174.197 5.551.79 6.464.801a4.362 4.362 0 0 0 3.018-.745c1.163-.733 1.826-2.14 1.826-4.154l-.019-21.405a20.713 20.713 0 0 0-.317-4.9 4.676 4.676 0 0 0-2.317-2.834c-1.012-.616-2.814-.936-5.304-1.341-2.46-.387-8.164-1.081-8.164-1.081Zm5.793 4.189 2.887.41c.863.119 1.122.336 1.342.82a4.791 4.791 0 0 1 .242 1.9v23.92c0 .675-.115 1.004-.336 1.173a1.944 1.944 0 0 1-1.453.13l-2.682-.372V19.779Z"/></g><g style="fill:#231f20"><path d="M9.471 40.941c-1.408 8.201 1.479 15.91 5.887 22.356 7.016 10.257 16.896 15.215 21.256 17.623 6.576 3.63 9.018 5.136 11.98 7.358 10.348 7.772 7.73 17.345 7.73 17.345-3.395-7.736-11.116-13.073-22.43-18.705-15.6-7.764-17.735-14.978-17.735-14.978a41.437 41.437 0 0 0 .26 21.666c4.568 15.58 17.647 21.348 27.646 26.975a67.919 67.919 0 0 1 11.16 7.396c9.316 8.157 7.618 13.99 7.618 13.99-3.359-6.705-13.444-11.092-22.26-15.537-12.03-6.076-15.891-11.608-15.891-11.608-1.762 10.462 1.46 20.188 5.663 26.975a44 44 0 0 0 24.05 18.48h126.963a44.001 44.001 0 0 0 24.051-18.48c4.202-6.788 7.426-16.514 5.663-26.975 0 0-3.86 5.53-15.89 11.606-8.819 4.453-18.902 8.837-22.262 15.537 0 0-1.716-5.834 7.6-13.99a68.237 68.237 0 0 1 11.178-7.397c9.998-5.627 23.06-11.396 27.628-26.975a41.398 41.398 0 0 0 .279-21.666s-2.135 7.214-17.735 14.978c-11.313 5.631-19.036 10.967-22.43 18.704 0 0-2.618-9.573 7.73-17.345 2.96-2.223 5.403-3.728 11.98-7.358 4.359-2.407 14.241-7.366 21.256-17.624 4.408-6.445 7.295-14.154 5.887-22.355 0 0-1.415 3.086-6.763 6.39-6.476 4-13.541 6.03-23.472 8.718-9.389 2.541-25.433 5.677-34.912 10.99-4.395 2.464-7.014 5.8-7.098 9.632-.225 10.203 8.96 19.763 8.96 32.937 0 8.276-6.375 13.823-17.418 13.823-8.222 0-12.284-2.12-14.288-3.857a10.81 10.81 0 0 1-3.41-7.805 7.512 7.512 0 0 1 7.75-7.955c2.445 0 5.599 1.347 6.186 3.987 1.006-.3 4.88-3.109 4.88-8.98 0-3.933-2.603-8.308-9.852-8.308a20.597 20.597 0 0 0-5.608.727c.2-4.723-4.253-7.042-9.035-7.042-4.971 0-8.453 1.571-18.387.54a32.253 32.253 0 0 1-6.762-1.415 15.561 15.561 0 0 1 1.863 3.073 10.424 10.424 0 0 1 .745 5.403c-.315 3.21-2.532 5.312-5.757 6.632 1.368.684 7.359 2.548 7.359 10.954a14.212 14.212 0 0 1-4.75 10.115 14.81 14.81 0 0 1-10.247 3.837c-9.24 0-13.525-5.453-13.525-13.73 0-13.174 9.115-22.807 8.96-32.936-.057-3.832-2.789-7.24-7.078-9.63-9.49-5.29-25.544-8.45-34.93-10.992-9.931-2.689-16.996-4.718-23.473-8.718-5.348-3.304-6.762-6.39-6.762-6.39Zm92.756 46.406c3.386 1.693 9.89 1.685 14.122.988 3.38-.575 7.264-1.166 9.52.633 2.93 2.335 2.104 6.334 2.104 6.334l.56-.205a19.207 19.207 0 0 1 7.265-1.248c4.29.004 6.998 1.343 7.544 4.564a7.101 7.101 0 0 1-1.08 4.713s-1.521-2.962-6.576-2.962c-6.838 0-12.082 4.553-11.886 12.165a14.255 14.255 0 0 0 3.465 8.607c-.099-.057-.093.317-.093.317-2.48-1.322-6.341-2.58-8.402-1.472-2.605 1.401-2.45 5.91-1.975 8.439l-.503.205c-.692-1.868-1.604-5.706-6.967-7.657-2.28-.828-5.796-.642-8.98-.056a18.053 18.053 0 0 0 5.198-11.904c0-6.68-3.367-9.006-5.142-10.32a7.767 7.767 0 0 0 3.242-5.086 9.776 9.776 0 0 0-1.412-6.049Z"/><path d="M115.38 93.83a28.296 28.296 0 0 0 3.13 3.633c1.563 1.172 4.142.117 6.259-.782 1.018-.483 3.036-1.286 3.036-1.286a8.726 8.726 0 0 0-2.347-1.08 16.292 16.292 0 0 0-5.645-.485c-1.923.07-4.433 0-4.433 0ZM97.179 180.27a13.646 13.646 0 0 1 1.322 5.663 22.123 22.123 0 0 1-1.043 7.47h40.78a22.025 22.025 0 0 1-1.062-7.47 13.626 13.626 0 0 1 1.378-5.663H97.18ZM86.24 213.3c7.506 8.502 22.818 21.518 31.447 26.082 9.49-5.024 24.487-19.026 32.228-26.081Z"/></g><path d="M160.25 167.27c9.594-3.092 21.012-7.008 21.012-7.008H54.413s11.726 4.124 21.392 7.05c8.305 2.517 18.319 6.094 21.394 12.964h41.393c3.366-6.87 13.397-10.34 21.654-13.001m-67.224 36.084a91.02 91.02 0 0 1-6.725 9.957h63.592c-1.364-1.955-4.254-5.675-6.858-9.948a43.386 43.386 0 0 1-4.788-9.958H97.46a54.38 54.38 0 0 1-4.441 9.952m56.82-60.328h-6.982l5.648 4.103-2.157 6.641 5.648-4.104 5.65 4.104-2.16-6.64 5.65-4.104h-6.983l-2.157-6.637-2.158 6.637Zm-34.415 0h-6.982l5.649 4.103-2.158 6.641 5.648-4.104 5.647 4.104-2.156-6.64 5.645-4.104h-6.978l-2.158-6.637-2.157 6.637Zm-32.716-6.637 2.158 6.637h6.981l-5.65 4.103 2.159 6.641-5.648-4.104-5.649 4.104 2.158-6.64-5.648-4.104h6.982l2.157-6.637Z" style="fill:#ef3e42"/><g style="fill:#231f20"><path d="M117.67 54.075a589.947 589.947 0 0 0-59.317 3.13s11.011 2.579 19.282 6.986c4.879 2.598 8.172 6.703 8.476 11.103.441 6.39-2.626 13.266-4.47 17.549-2.996 6.949-4.577 12.572-4.546 16.84a11.465 11.465 0 0 0 1.77 6.241c1.314 1.818 3.304 3.67 7.768 3.67 7.48 0 10.34-6.678 10.34-10.656a8.584 8.584 0 0 0-3.503-7.06 19.677 19.677 0 0 0-6.297-3.428s8.626-2.77 8.626-7.788c0-4.112-2.513-8.818-5.738-12.239l.205-.205a29.332 29.332 0 0 0 6.818 2.198 71.633 71.633 0 0 0 12.165.988c6.618 0 9.634-.783 14.53-.783 5.103 0 9.624 2.42 10.731 7.042a25.46 25.46 0 0 1 5.403-.13c6.067.61 10.213 4.881 10.32 10.433a14.55 14.55 0 0 1-10.936 14.735 4.33 4.33 0 0 0 .168-2.198 3.592 3.592 0 0 0-3.39-3.074c-2.84 0-4.268 2.333-4.174 4.658.206 5.085 5.924 7.266 11.663 7.582.87.047 1.492.078 2.31.056 5.33-.141 8.67-1.477 10.6-3.856a10.547 10.547 0 0 0 1.9-6.185c.03-4.269-1.55-9.891-4.546-16.841-1.84-4.284-4.912-11.16-4.473-17.55.305-4.4 3.624-8.467 8.48-11.103 8.126-4.406 19.286-6.986 19.286-6.986-17.589-1.76-38.182-3.129-59.452-3.129ZM182.09 165.702c-7.803 3.002-14.73 5.169-21.349 7.266-8.171 2.59-19.079 5.983-19.672 12.593-.748 8.339 10.323 20.503 13.115 23.287a143.544 143.544 0 0 0 16.431-21.088 145.401 145.401 0 0 0 11.476-22.057ZM53.754 165.74a141.121 141.121 0 0 0 28 43.24c3.146-3.252 13.021-14.99 13.021-23.362 0-6.45-11.49-9.965-19.672-12.519-6.373-1.993-13.545-4.368-21.349-7.363Z"/></g></svg>