<svg xmlns="http://www.w3.org/2000/svg" width="310.742154211" height="321.81021675" viewBox="0 0 363.75718 376.71354"><path d="M324.135 26.677c10.534 29.869 33.499 110.822 32.266 182.664-39.257 65.17-106.348 122.54-174.517 159.129C113.716 331.882 46.62 274.512 7.362 209.34 6.13 137.498 29.088 56.546 39.622 26.677c90.407-25.586 194.843-25.586 284.513 0Z" style="fill:#fff;fill-rule:evenodd"/><path d="M324.135 26.677c10.534 29.869 33.499 110.822 32.266 182.664-39.257 65.17-106.348 122.54-174.517 159.129C113.716 331.882 46.62 274.512 7.362 209.34 6.13 137.498 29.088 56.546 39.622 26.677c90.407-25.586 194.843-25.586 284.513 0ZM34.023 20.654c97.82-27.541 193.56-27.533 295.703-.008 11.817 31.931 35.636 117.518 33.946 190.733-41.825 72.561-122.28 134.691-181.793 165.335C122.365 346.07 41.91 283.94.085 211.379c-1.69-73.215 22.121-158.794 33.938-190.725Z" style="fill:#0b1f41;fill-rule:evenodd"/><g style="fill:#0b1f41"><path d="m107.4 180.166-7.105-20.955-8.586 4.918v46.686l8.498-4.867v-22.956l6.829 19.043 8.747-5.01V150.34l-8.383 4.801v25.025zM302.339 43.485v46.683l9.455-5.415V38.07l-9.455 5.415zM136.69 137.212c-6.906 3.956-11.537 11.541-11.515 16.175v26.117c0 4.76 4.57 9.419 11.747 5.981 11.48-5.498 11.23-11.365 11.208-16v-6.504l-9.406 5.387v6.574l-4.136 2.368v-28.84l4.136-2.369v9.144l9.406-5.346v-9.58c-.023-4.634-4.637-7.004-11.44-3.107ZM51.822 185.825c-6.905 3.955-11.537 11.54-11.514 16.175v26.116c0 4.76 4.57 9.42 11.747 5.982 11.48-5.498 11.23-11.366 11.207-16v-6.505l-9.406 5.388v6.574l-4.135 2.368v-28.84l4.135-2.369v9.144l9.407-5.347v-9.58c-.023-4.634-4.637-7.003-11.44-3.106ZM156.944 173.474l9.456-5.415v-46.683l-9.456 5.415v46.683zM72.076 222.06l9.456-5.415v-46.684l-9.456 5.416v46.683zM270.925 70.412l6.477-3.709v37.76l9.456-5.415V61.287l6.477-3.709v-8.935l-22.41 12.835v8.934zM192.268 131.59l-7.105-20.955-8.586 4.918v46.668l8.498-4.867v-22.938l6.828 19.027 8.748-5.01v-46.67l-8.383 4.802v25.025zM226.336 112.048l-7.105-20.956-8.586 4.918v46.668l8.498-4.867v-22.938l6.828 19.028 8.748-5.01v-46.67l-8.383 4.802v25.025zM249.565 73.812l-6.095 50.043 9.256-5.302.66-8.297 5.403-3.21.92 7.508 9.096-5.21-7.172-42.56Zm3.972 27.969 2.538-18.132 1.745 15.491Z"/></g><path d="M280.55 32.357 23.83 179.388c3.66-53.77 18.103-109.635 27.955-139.794 78.969-20.855 159.967-20.128 228.766-7.237ZM82.607 62.039v10.414h6.32v8.469h-6.32v20.556l-10.53 6.064V53.913h20.715v8.126Zm41.134 18.212v11.671c0 4.635-4.979 9.556-12.589 9.556-7.724 0-12.931-4.92-12.931-9.556V62.611c0-4.635 5.207-9.555 12.931-9.555 7.61 0 12.589 4.92 12.589 9.555v3.773l-10.414 5.964-.003-11.69-4.46 2.555v30.684l4.46-2.555.003-5.127Z" style="fill:#263b80;fill-rule:evenodd"/><path d="M57.79 251.02 327.35 96.637c7.42 33.18 13.565 71.938 13.431 108.218-39.834 64.098-101.239 112.448-158.897 145.749-57.174-33.301-92.47-63.762-124.094-99.582Zm187.282-40.959a19.414 19.414 0 0 0 7.138-3.666 17.39 17.39 0 0 1-2.055 9.01 24.527 24.527 0 0 0-5.083-5.344Zm-53.546 4.268 8.19-4.688a16.322 16.322 0 0 1-6.92-3.863l21.912-12.603-2.547-3.513h33.77l2.09 3.541s5.596 1.311 8.79 4.469l-5.182.805 2.56 2.89c-1.938 2.405-6.996 5.571-11.822 6.55a49.564 49.564 0 0 0-7.27-4.07l8.105-4.64s-4.695-2.906-15.639-5.97a67.284 67.284 0 0 1 8.437 6.25l-7.045 4.035s12.39 5.681 19.184 17.888l-8.205.184s-9.504 17.582-24.594 27.543v-9.976s-9.872-1.06-15.487-5.377l5.502-3.283a23.288 23.288 0 0 1-11.933-6.867l7.209-4.087s-4.345-.576-9.105-5.218Zm46.611-22.258a9.933 9.933 0 0 0 7.984 3.516l-2.221-3.29Zm-83.5 84.877.813 7.173c-4.847 3.203-17.508 10.437-27.613 5.495-7.58-3.708-9.247-14.4-3.56-23.463 6.603-10.523 17.24-10.738 23.108-6.875a17.963 17.963 0 0 1-8.448 11.445l1.561-6.244c-3.577-1.806-8.21-.176-10.856 4.164-3.56 5.837-2.54 12.561 2.274 14.99 7.974 4.026 22.721-6.685 22.721-6.685Zm127.493-29.382s5.109-.013 5.49 4.458a5.838 5.838 0 0 0-4.47-.382 28.867 28.867 0 0 1-12.993 1.443l-10.846 11.6a44.907 44.907 0 0 0 .796 5.265 79.588 79.588 0 0 1-18.448-9.662l3.85 6.867s-2.95 7.545-18.806 17.665l-.637-6.814s-15.85-9.943-25.47-7.98c-9.086 16.576-25.2 14.496-25.2 14.496l-4.458 15.929s15.03 2.037 12.052 14.107l-4.122-2.458a4.9 4.9 0 0 1-2.362 4.691l-3.347-4.623c1.276 3.823-4.952 5.383-4.952 5.383s-.309-4.156-1.58-5.813l-4.83-5.97-4.54-37.636 5.713 2.406a67.935 67.935 0 0 0 18.965-25.777s19.452 9.872 33.304 8.324c2.913-.414 18.124-11.045 26.962-28.077l6.96-.155a51.059 51.059 0 0 1 6.935 17.793l-4.972-.932a40.983 40.983 0 0 1 2.823 8.212l12.872-7.467c7.68-4.509 18.66-5.37 20.278-.803 0 0-3.593-.283-4.46 1.356 0 0 4.888-.358 5.364 3.727 0 0-4.139-1.184-5.871.827Zm-69.7 60.416-3.118-2.29a4.012 4.012 0 0 1-1.362 3.973 14.759 14.759 0 0 0-3.032-3.496c.093 2.325-3.313 4.25-3.313 4.25a8.118 8.118 0 0 0-2.064-3.876l-4.297-4.104-11.83-15.847c12.888-.742 19.687-13.4 19.687-13.4 16.796 15.971-4.06 19.595-4.06 19.595l1.287 5.684s14.126-1.06 12.102 9.51Zm40.721-84.243c2.293 3.089 5.155 10.122 6.763 17.726l6.155-9.642 2.045 4.677c4.046-7.394 7.87-14.265 9.888-17.877a6.741 6.741 0 0 0 2.726.716v2.669a5.451 5.451 0 0 0-.437 2.143 6.721 6.721 0 0 0 2.447 2.239 6.725 6.725 0 0 0 2.445-2.239 5.424 5.424 0 0 0-.448-2.143v-2.669c.783-.125 1.64-.387 2.582-.64 1.254-3.107.7-7.698.7-7.698a9.472 9.472 0 0 0 1.793-3.183 8.563 8.563 0 0 0-5.084-2.237v-.264l5.764-3.51v-3.853l-3.635 2.212-.029-47.721-4.137-4.408-4.134 4.159.03 47.991-3.98-2.422v4.042l5.875 3.26-.022.323a8.327 8.327 0 0 0-5.065 1.265 8.321 8.321 0 0 0 1.282 3.614Zm-80.334 9.962-16.951 9.564c3.76 2.618 15.373.82 23.798-3.762 0 0 18.35 9.98 32.063 10.06-.004-.002-.04-7.573-.043-7.573-25.319-6.017-32.731-23.847-37.567-36.417l-50.581 28.914c6.533 5.302 25.92-4.368 41.283-12.744a63.03 63.03 0 0 0 1.18 2.242l-26.777 15.348c6.666 5.16 20.195-2.223 31.884-7.592a44.03 44.03 0 0 0 1.71 1.96Zm71.148-53.892a8.512 8.512 0 0 0-3.1-2.832 8.515 8.515 0 0 0-3.095 2.839 11.678 11.678 0 0 0 .566 3.226l-3.544.002a18.136 18.136 0 0 0 .775-4.818 13.868 13.868 0 0 0-5.058-4.617 13.872 13.872 0 0 0-5.047 4.628 18.163 18.163 0 0 0 .788 4.819l-3.535.001a11.641 11.641 0 0 0 .559-3.225 8.502 8.502 0 0 0-3.1-2.83 8.505 8.505 0 0 0-3.095 2.836 11.655 11.655 0 0 0 .567 3.226h-.001l.004 3.958 25.762-.03-.005-3.956a11.643 11.643 0 0 0 .559-3.227Z" style="fill:#f05323;fill-rule:evenodd"/></svg>