<svg xmlns="http://www.w3.org/2000/svg" xml:space="preserve" width="249.99998" height="250.614"><path d="M577.512 663.677s-98.452 40.53-281.012 40.53-281.003-40.53-281.003-40.53C-7.799 371.987 134.64 209.299 296.5 135.792c161.862 73.507 304.254 236.194 281.012 527.885z" style="fill:#e81f3e;fill-opacity:1;fill-rule:nonzero;stroke:none" transform="matrix(.4409 0 0 -.4409 -5.726 310.485)"/><path d="M296.5 697.57c159.501 0 255.139-31.491 274.688-38.6 1.44-19.322 2.189-38.268 2.189-56.798 0-107.807-24.336-202.044-72.615-280.787C453.71 244.645 383.107 183.087 296.5 143.14c-86.616 39.952-157.225 101.51-204.277 178.245-48.27 78.721-72.602 172.924-72.602 280.684 0 18.562.752 37.544 2.198 56.901 19.546 7.108 115.178 38.6 274.681 38.6z" style="fill:#fff;fill-opacity:1;fill-rule:nonzero;stroke:none" transform="matrix(.4409 0 0 -.4409 -5.726 310.485)"/><path d="M414.025 367.342s-5.798-.864-8.92-9.312l-16.841.287s-6.01 8.395-17.576 8.475c0 0-10.81-5.956-9.865-14.456 0 0 2.754 4.697 9.235 4.75 4.275-1.574 6.191-6.296 6.191-6.296s-2.361-10.363-15.059-14.456c0 0-15.32 8.842-27.072 9.366-11.753.55-28.175-14.113-43.601-1.101-15.426 13.037-13.956 33.131-7.477 46.72 0 0-36.518-25.524-6.428-60.442 0 0-50.368-33.578-72.194-110.035 27.677-20.515 58.422-38.93 92.08-56.088 28.201 14.376 54.356 29.592 78.36 46.224-30.404 21.406-48.743 59.445-23.32 109.17l6.792-3.174 32.032 2.493 5.037 8.105 11.726.71s10.965 11.49 12.435 19.91c0 0-11.096 7.267-5.535 19.15zM561.68 649.957S462.32 688.1 296.498 688.1 31.33 649.957 31.33 649.957c-1.574-59.812 1.889-112.49 10.152-159.238 73.638 24.66 91.188-34.418 151-36.622l66.608-.63c11.097 11.255 27.073 17.105 27.073 17.105l57.005-.42c11.858-5.928 23.873-15.058 23.873-15.058s18.049-.236 39.273 1.495c41.264 3.332 57.58 46.906 145.03 33.238 8.395 46.985 11.91 99.95 10.337 160.13z" style="fill:#2a4076;fill-opacity:1;fill-rule:nonzero;stroke:none" transform="matrix(.4409 0 0 -.4409 -5.726 310.485)"/><path d="m70.443 526.476 18.416 3.567v50.133l16.16 3.095v17.76l-16.16-3.148v22.744l16.16 3.358v18.26l-34.576-7.923V526.476zM139.201 648.593c-19.517-3.175-20.855-6.375-21.013-25.237v-68.732c.158-17.681 1.443-19.649 21.013-17.708 19.78 2.414 22.613 4.486 22.772 22.089v21.617l-18.416-1.705v-20.961c0-2.912-1.837-3.83-3.437-4.12-1.496-.051-3.49.185-3.49 3.622v67.997c0 2.728 1.522 4.066 3.227 4.275 1.942.289 3.7-.865 3.7-3.541v-13.431l18.416 1.915v13.903c-.159 19.728-2.939 22.561-22.772 20.017zM238.521 657.853l-25.236-1.836V543.659l25.814 1.495c16.054.918 18.626 3.2 18.888 18.888v70.463c-.315 21.512-3.41 23.977-19.466 23.348m1.05-92.867c-.052-2.518-.342-3.436-2.807-3.593l-5.063-.447v75.894l5.063.446c1.731.026 2.728-.813 2.807-4.827v-67.473zM281.597 659.112l-11.044-113.276 17.025.21 1.417 19.727 10.073.131 1.575-19.49 17.025-.158-11.147 113.223-24.924-.367m8.316-76.13 4.197 44.493 4.04-44.388-8.237-.105zM349.778 658.063l-18.441.787V545.915l31.19-1.023v16.316l-12.749.394v96.461zM394.508 559.32v95.49l-18.444 1.574V544.026l30.826-2.44-.028 16.554-12.354 1.18zM430.133 650.639l-11.046-109.971 17.027-1.6 1.389 20.147 9.969-.892 1.391-20.54 17.025-1.89-11.149 111.571-24.606 3.175m8.314-74.189 4.068 42.866 4.012-43.574-8.08.708zM522.54 603.996v10.86c-.158 17.97-3.253 22.247-22.876 26.103-19.715 3.305-20.842.708-21.026-18.232v-15.19c.157-9.444 1.916-14.743 7.962-20.095l13.327-10.677c2.57-2.256 4.144-4.8 4.197-8.21v-17.603c0-2.65-2.151-3.017-3.726-2.912-1.521.314-3.357 1.626-3.357 4.092l.052 15.74-18.455 2.23V554.1c.184-17.682 2.23-20.331 21.76-23.322 19.833-2.571 21.984-1.627 22.142 16.474v22.483c-.158 7.266-2.414 13.3-8.08 18.232l-14.009 11.306c-2.308 2.1-3.306 3.936-3.358 7.74v12.696c0 2.65 1.784 3.306 3.305 3.148 1.575-.367 3.726-2.518 3.726-5.325v-10.834l18.416-2.702zM329.368 256.729h-29.04l-1.496 25.027-17.393-25.027H252.53l19.02-16.632-14.849-25.92 27.73 16.056 18.836-15.793-1.864 25.867 27.965 16.422z" style="fill:#fff;fill-opacity:1;fill-rule:nonzero;stroke:none" transform="matrix(.4409 0 0 -.4409 -5.726 310.485)"/><path d="m423.914 422.486-29.959-6.715c-5.194-3.57-14.139-11.255-9.101-17.604l29.171-30.825c-5.561-11.883 5.535-19.15 5.535-19.15-1.47-8.42-12.435-19.91-12.435-19.91l-11.726-.71-5.037-8.105-32.032-2.493-6.793 3.174c-25.422-49.725-7.083-87.764 23.32-109.17 92.448 64.062 153.192 148.311 176.487 278.85-85.324-4.775-86.033-57.452-127.43-67.342zM180.913 414.59c-69.388 8.762-72.483 75.054-139.432 76.13 12.068-68.286 34.367-123.928 66.057-170.65 37.277 45.436 77.283 75.474 101.55 91.344-10.179 1.05-20.043 2.126-28.175 3.176zM360.639 445.886c-6.139 9.418-21.144 10.73-18.626 17.97-6.873-3.463-5.929-9.575-1.626-13.431 5.326-4.801-4.04-8.736-5.954-3.122-2.362-2.728-2.362-7.215 2.805-11.648 5.142-4.46 16.423-4.538 20.752-16.973-.657 8.578 10.442 15.215 2.649 27.204z" style="fill:#e81f3e;fill-opacity:1;fill-rule:nonzero;stroke:none" transform="matrix(.4409 0 0 -.4409 -5.726 310.485)"/><path d="M418.484 441.374c-15.844-1.548-37.408-2.597-37.408-2.597 3.778-4.512 5.195-9.654 5.195-9.654s-17.185-13.484-1.417-30.956c-5.038 6.349 3.907 14.034 9.101 17.604l29.96 6.715c41.396 9.89 42.105 62.567 127.429 67.341-90.965 4.25-94.323-44.65-132.86-48.453zM276.849 446.647c3.803-11.15-3.07-14.796-3.07-14.796l-82.53 4.355c-75.422 6.952-73.06 66.187-149.768 54.513 66.949-1.075 70.044-67.367 139.432-76.13 8.132-1.049 17.996-2.125 28.175-3.175 6.19-.629 12.513-1.259 18.626-1.861-15.426-11.595-20.908-28.045-20.908-28.045 48.164 9.287 65.872 23.453 71.38 29.329 16.213 15.794 2.729 34.55-1.337 35.81zM316.804 425.004s-10.179-5.666-16.423-17.707c0 0 30.037 2.57 52.545-9.629-10.126 19.047-19.91 23.008-36.122 27.336zM461.152 239.1h5.3v-16.055h1.94V239.1h5.615v1.941h-12.855V239.1zM488.895 241.041l-4.63-14.638-4.618 14.638h-3.095v-17.996h1.941v15.268l4.827-15.268h1.902l4.827 15.268v-15.268h1.941v17.996h-3.095z" style="fill:#2a4076;fill-opacity:1;fill-rule:nonzero;stroke:none" transform="matrix(.4409 0 0 -.4409 -5.726 310.485)"/><path d="M279.71 513.752h-15.504c-8.42 0-12.696-.734-12.696-6.48v-2.045c0-4.198 1.862-6.506 12.355-6.506h10.153c4.276 0 6.322.603 8.106 1.783v-2.78c0-1.837-1.574-2.808-5.325-2.808h-25.552v-5.036h25.604c11.648 0 15.556 2.072 15.556 9.155v6.532c0 6.06-4.197 8.185-12.697 8.185m-3.174-10.205h-9.497c-4.38 0-5.509.604-5.509 2.571 0 1.994 1.18 2.597 5.325 2.597h9.917c4.171 0 5.352-.603 5.352-2.597 0-1.967-1.128-2.57-5.588-2.57zM329.397 504.912h-10.153c-4.274 0-6.321-.604-8.104-1.758v2.755c0 1.836 1.574 2.806 5.298 2.806h24.37v5.037h-24.422c-11.622 0-15.558-2.072-15.558-9.155v-6.506c0-6.086 4.25-8.211 12.725-8.211h15.477c8.448 0 12.723.76 12.723 6.506v2.02c0 4.223-1.861 6.506-12.356 6.506m-3.017-9.995h-9.889c-4.173 0-5.351.63-5.351 2.623 0 1.967 1.154 2.544 5.534 2.544h9.523c4.407 0 5.534-.577 5.534-2.544 0-1.994-1.18-2.623-5.351-2.623z" style="fill:#cccbcc;fill-opacity:1;fill-rule:nonzero;stroke:none" transform="matrix(.4409 0 0 -.4409 -5.726 310.485)"/></svg>