<svg xmlns="http://www.w3.org/2000/svg" width="800.3595" height="979.9942" x="0px" y="0px" viewBox="0 0 800.3595 979.9942"><path fill="none" d="M-22.005-19.965h846.02V998.298h-846.02z" style="fill:#582615;fill-opacity:0"/><path fill="#101820" d="M798.545 243.609 402.145.567a3.692 3.692 0 0 0-3.931 0L1.814 243.61C.757 244.214 0 245.424 0 246.785V733.02c0 1.361.605 2.571 1.815 3.176L398.214 979.39c.605.303 1.21.605 1.966.605s1.36-.151 1.966-.605l396.399-243.042c1.058-.756 1.814-1.815 1.814-3.176V246.785c0-1.21-.756-2.42-1.814-3.176" class="st1"/><path fill="#ff6b00" d="M400.18 954.586 21.627 722.433v-464.91L400.18 25.37l378.552 232.153v464.76ZM35.995 713.813l364.185 223.38 364.184-223.38v-447.67L400.18 42.915 35.995 266.295Z" class="st2"/><g fill="#ff6b00"><path d="m555.503 195.061-9.982-10.133-21.93 21.779v32.97h14.368v-27.072zM511.34 239.677v-32.97l-21.778-21.779-10.133 10.133 17.695 17.544v27.072ZM283.574 251.927h-78.342L177.706 224.1l-9.981 9.982 31.911 32.063h83.938zM550.058 472.586v14.216h34.634l56.715-56.563v-122.05l-56.413-56.262H348.91v14.217h230.186l47.943 47.943v110.102l-48.245 48.397zM199.636 472.586l-31.911 31.609 9.981 10.435 27.98-27.828h279.188v-14.216ZM199.636 278.394h14.217v181.941h-14.217ZM240.47 292.61h43.104v-14.216h-57.32v181.941h258.62V446.12H240.47Z" class="st2"/><path d="M348.91 278.394v14.217h219.297l32.365 32.365v88.173l-32.819 32.97h-17.695v14.216h23.593l41.138-41.288v-99.97l-40.684-40.683zM278.13 543.82l10.133 9.981 21.778-21.778v-32.97h-14.217v27.071zM322.291 499.053v32.97l21.93 21.778 9.982-9.982-17.544-17.695v-27.071Z" class="st2"/><path d="M322.291 239.677v123.562h189.05v-58.378h-14.217v44.162H336.66V212.605l17.544-17.544-9.982-10.133-21.93 21.779zM511.34 532.023V375.49H322.292v58.378h14.368v-44.162h160.465v136.418L479.43 543.82l10.133 9.982zM523.591 389.858v142.014l21.779 21.778 10.133-10.133-17.695-17.544V395.756l26.467-26.316-26.316-26.315V304.86h-14.368v44.162l20.418 20.417zM310.041 349.325V206.707l-21.778-21.779-10.134 10.133 17.695 17.544v130.822l-26.013 26.013 26.013 25.862v38.566h14.217v-44.464l-19.964-19.964z" class="st2"/></g><path fill="#ff6b00" d="m409.708 832.536 24.5-49.607-58.832 64.126h35.24l-24.35 49.606 58.68-64.125Z" class="st2"/><g fill="#fff"><path d="M148.668 642.881v42.347h17.242v-97.095h-17.242v38.566h-35.087v-38.566H96.34v97.095h17.24v-42.347zM205.383 588.133l-16.334 16.334v64.428l16.334 16.333h39.323l16.333-16.333v-64.428l-16.333-16.334zm8.318 81.064-7.41-7.41v-50.061l7.41-7.41h22.686l7.411 7.41v50.06l-7.41 7.411zM300.362 685.228h37.507l16.334-16.333v-80.762h-16.334v73.653l-7.41 7.411h-21.78l-7.41-7.41v-73.654h-17.241v80.762zM428.764 588.133H391.71l-16.334 16.334v23.744l16.334 16.334h29.34l7.412 7.41v9.831l-7.411 7.411h-24.047l-12.402-11.948-12.1 12.1 16.184 15.88h40.683l16.334-16.334v-24.199l-16.334-16.334h-29.34l-7.411-7.41v-9.377l7.41-7.26h20.57l11.04 10.738 12.099-12.099zM455.382 588.133v16.182h27.223v80.913h17.242v-80.913h27.374v-16.182zM555.503 588.133l-16.334 16.334v64.428l16.334 16.333h39.17l16.335-16.333v-64.428l-16.334-16.334zm8.167 81.064-7.411-7.41v-50.061l7.41-7.41h22.687l7.41 7.41v50.06l-7.41 7.411zM651.389 620.65l33.272 64.578h19.359v-97.095h-16.334v66.091l-33.273-66.091H634.45v97.095h16.334v-66.091zM221.717 709.275l7.713 7.714v33.424l-7.713 7.713h-32.365v-48.85Zm-5.596 12.25-2.117-2.116H202.66v28.433h11.343l2.117-2.118zM259.527 727.122l1.059 5.444h.302l1.21-5.444 7.26-17.847h12.25l-14.822 32.82v16.03h-14.67v-16.03l-14.67-32.82h15.124zM311.705 757.975l-8.772-24.804-1.21-5.898h-.605v30.702h-11.343v-48.7h17.392l8.772 24.804 1.21 5.898h.605v-30.702h11.343v48.7zM366.453 748.749h-11.948l-2.268 9.226h-12.704l13.46-48.7h15.729l14.519 48.7h-14.67zm-10.133-9.83h8.62l-2.873-11.495-.907-6.05h-.756l-1.059 6.05zM411.976 709.275l6.957 25.56 1.362 6.2h.453l1.21-6.2 6.957-25.56h17.695v48.7h-13.309v-29.34h-.605l-1.21 6.351-6.957 22.989h-10.133l-7.26-22.989-1.21-6.352h-.604v29.34h-11.343v-48.699ZM460.373 716.535l7.713-7.713h24.804l7.713 7.713v34.029l-7.713 7.713h-24.804l-7.713-7.713zm24.803 2.571H475.8l-2.117 2.117v24.955l2.117 2.117h9.377l2.118-2.117v-24.955zM529.64 709.275h32.971v10.587H542.95v11.192h17.241v9.982H542.95v16.939h-13.31zM572.895 750.715v-34.029l7.713-7.713h24.35l7.108 7.26-9.528 8.166-5.142-5.293h-9.074l-2.118 2.117v24.955l2.118 2.117h9.377l6.05-5.747 8.922 8.62-7.41 7.26h-24.804z" class="st3"/></g></svg>