<svg xmlns="http://www.w3.org/2000/svg" xml:space="preserve" x="0px" y="0px" viewBox="0 0 185.02 252.12"><path fill="#C6A566" d="m92.413 251.215-8.4-7.528c-8.428-7.545-18.298-9.115-29.728-10.935-1.69-.262-3.462-.547-5.305-.86-21.425-3.615-28.66-7.4-36.77-14.515-7.582-6.655-11.277-19.095-11.3-38.03L.935 1.09h182.938l.057 178.265c-.072 13.09-1.427 29.242-11.385 38.045-7.225 6.387-13.3 10.55-36.697 14.497-1.525.26-3.028.5-4.503.738l-.765.122c-11.447 1.818-21.332 3.383-29.76 10.93l-8.407 7.528z"/><path fill="#17191D" d="m84.848 242.757 7.565 6.773 7.567-6.775c8.703-7.795 18.755-9.388 30.395-11.235l.703-.115c1.54-.245 3.035-.485 4.557-.745 23.07-3.89 29.02-7.96 36.08-14.2 9.693-8.568 10.898-25.283 10.963-37.11l-.055-177.008H2.19l-.025 177.005c.02 18.555 3.578 30.685 10.875 37.09 6.923 6.075 13.18 10.348 36.15 14.223 1.84.315 3.605.597 5.283.86 11.635 1.85 21.675 3.445 30.375 11.237"/><path fill="#C6A566" d="M87.623 239.655c-9.615-8.61-20.73-10.378-32.498-12.248-1.67-.26-3.42-.542-5.237-.852-39.28-6.625-43.533-19.345-43.565-47.215L6.348 6.502h172.11l.055 172.853c-.055 10.57-.838 26.28-9.555 33.987-6.795 6.008-12.525 9.59-34.013 13.215-1.54.263-3.042.505-4.522.74l-.703.113c-11.78 1.867-22.895 3.63-32.512 12.245l-4.79 4.29-4.795-4.29"/><path fill="#17191D" d="M171.28 13.685H13.528l-.023 165.65c.028 22.772-.007 33.8 37.588 40.142 1.785.305 3.502.578 5.157.838 12.29 1.952 24.978 3.975 36.163 13.99 11.19-10.02 23.885-12.038 36.167-13.985 1.68-.27 3.39-.54 5.165-.843 37.6-6.342 37.465-17.37 37.585-40.12l-.05-165.672"/><path fill="#C6A566" d="M76.995 34.665c-.04 0-.077.027-.102.087L71.12 46.817h3.105l.435-1.01h4.463l.455 1.01h3.277l-5.752-12.065c-.025-.06-.068-.087-.108-.087zm7.008.03c-.038.015-.053.06-.053.112V46.82h2.983v-5.913l7.442 6.118c.193.157.245.105.245-.035V34.962h-2.985v5.943l-7.442-6.133c-.095-.077-.153-.092-.19-.077zm-31.495.13c-3.415 0-6.363 2.492-6.363 6.065s2.948 6.085 6.363 6.085c3.417 0 6.362-2.51 6.362-6.085s-2.945-6.065-6.362-6.065zm11.402 0c-2.11 0-4.042 1.2-4.042 3.535 0 1.952 1.217 3 2.945 3.575l1.392.47c.785.262 1.168.505 1.168 1.01 0 .662-.558.942-1.5.942-1.185 0-1.895-.575-2.47-1.29l-2.305 1.723c.732.975 2.25 2.197 4.917 2.197 3.138 0 4.498-1.567 4.498-3.745 0-1.672-.803-2.81-3.175-3.595l-1.568-.522c-.575-.193-.835-.418-.835-.87 0-.47.38-.82 1.148-.82.94 0 1.465.35 1.952.855l1.813-1.9c-.7-.815-1.848-1.563-3.938-1.565zm38.495 0c-3.417 0-6.307 2.492-6.307 6.065s2.897 6.085 6.382 6.085c2.633 0 4.058-.735 5.155-1.64v-4.953h-5.175v2.443h2.353v1.01c-.505.245-1.15.47-2.3.47-2.093 0-3.175-1.55-3.175-3.413 0-1.865 1.062-3.31 2.997-3.31 1.185 0 2.02.503 2.613 1.27l2.217-1.915c-1.03-1.327-2.67-2.11-4.76-2.112zm40.523 0c-2.11 0-4.043 1.2-4.043 3.535 0 1.952 1.218 3 2.945 3.575l1.393.47c.785.262 1.172.505 1.172 1.01 0 .662-.557.942-1.5.942-1.185 0-1.9-.575-2.475-1.29l-2.3 1.723c.733.975 2.248 2.197 4.913 2.197 3.137 0 4.497-1.567 4.497-3.745 0-1.672-.8-2.81-3.17-3.595l-1.575-.522c-.575-.193-.835-.418-.835-.87 0-.47.385-.82 1.153-.82.94 0 1.46.35 1.947.855l1.818-1.9c-.698-.818-1.85-1.568-3.94-1.568v.003zm-105.615.137v11.855h8.207v-2.67h-5.035v-9.185h-3.172zm71.91 0v11.855h8.555v-2.67h-5.385v-1.235h4.287v-2.53h-4.287v-2.755h5.142v-2.665h-8.312zm10.087 0v11.855h8.213v-2.67h-5.04v-9.185h-3.173zm9.673 0v11.855h8.56v-2.67h-5.385v-1.235h4.287v-2.53h-4.287v-2.755h5.142v-2.665h-8.317zM52.508 37.58c1.987 0 3.12 1.445 3.12 3.31s-1.133 3.33-3.12 3.33c-1.988 0-3.12-1.465-3.12-3.33s1.132-3.31 3.12-3.31zm24.35 3.1 1.215 2.755H75.67l1.188-2.755zM67.38 60.45v16.522c14.653 13.088 39 36.685 53.945 50.088v.88L72.298 84.717V95.22h.005c14.915 11.295 33.902 26.542 49.022 37.992v.84l-44.012-32.927v9.857c14.64 8.805 29.892 19.035 44.012 27.47v.953l-39.017-23.36v7.935c17.225 8.687 31.595 16.545 48.617 25.097v20.845h16.715V61.06c-18.615 1.915-32.717 11.227-42.27 24.032a63.058 63.058 0 0 0-4.267 6.225l12.065 13.375c4.002-8.017 9.925-14.33 17.76-18.882v45.07L67.38 60.45zm-30.18.065V169.87h53.018c-2.275-5.49-3.953-13.498-4.655-17.198h-31.65V72.815L37.2 60.515zm53.073 73.862c-.005 6.998.642 13.315 1.397 18.278.7 3.697 2.375 11.72 4.653 17.217h16.762s-4.487-12.48-5.84-27.367c-.227-.108-.457-.215-.682-.323-5.178-2.447-10.488-4.96-16.29-7.805zm-1.7 51.163c-.033 0-.068.027-.088.077l-4.755 9.943h2.558l.357-.835h3.683l.37.835h2.7l-4.74-9.943c-.023-.05-.053-.077-.085-.077zm-38.72.137c-2.818 0-5.245 2.055-5.245 5s2.427 5.015 5.245 5.015c2.815 0 5.245-2.07 5.245-5.015s-2.428-5-5.245-5zm11.235 0c-2.815 0-5.245 2.055-5.245 5s2.427 5.015 5.245 5.015c2.815 0 5.245-2.07 5.245-5.015s-2.428-5-5.245-5zm55.385 0c-2.615 0-4.948 2.055-4.948 5s2.343 5.01 5.088 5.01c1.982 0 3.335-.7 4.297-2.325l-2.012-1.295c-.418.775-1.035 1.353-2.3 1.353-1.495 0-2.398-1.205-2.398-2.745 0-1.538.873-2.73 2.31-2.73 1.235 0 1.843.587 2.218 1.162l1.967-1.337c-.817-1.205-2.11-2.095-4.222-2.093zm-79.18.11v9.77h2.617v-3.105h3.545v-2.197H39.91v-2.27h4.023v-2.198h-6.64zm29.237 0v2.198h2.588v7.572h2.612v-7.572h2.588v-2.198H66.53zm8.965 0v9.77h4.165c2.428 0 3.883-1.062 3.883-2.93 0-1.495-.905-2.257-1.968-2.557.633-.3 1.118-.803 1.118-1.895 0-1.495-1.263-2.388-3.203-2.388h-3.995zm18.81 0v9.77h6.763v-2.197h-4.15v-7.573h-2.613zm7.968 0v9.77h6.767v-2.197h-4.15v-7.573h-2.617zm19.645 0v9.77h6.767v-2.197h-4.155v-7.573h-2.612zm7.515 0v5.99c0 2.63 1.795 3.925 4.237 3.925 2.443 0 4.238-1.297 4.238-3.925v-5.99h-2.618v5.963c0 1.105-.515 1.737-1.62 1.737s-1.625-.632-1.625-1.737v-5.963h-2.612zm10.067 0v9.77h4.165c2.43 0 3.883-1.062 3.883-2.93 0-1.495-.905-2.257-1.968-2.557.633-.3 1.118-.803 1.118-1.895 0-1.495-1.263-2.388-3.203-2.388H139.5zm-61.475 2.073h1.295c.575 0 .8.33.8.79s-.255.747-.83.747h-1.265v-1.537zm64.005 0h1.295c.575 0 .805.33.805.79s-.26.747-.835.747h-1.265v-1.537zm-92.177.087c1.637 0 2.572 1.193 2.572 2.73 0 1.538-.935 2.745-2.572 2.745-1.638 0-2.573-1.207-2.573-2.745 0-1.54.935-2.73 2.573-2.73zm11.235 0c1.637 0 2.567 1.193 2.567 2.73 0 1.538-.93 2.745-2.567 2.745-1.638 0-2.573-1.207-2.573-2.745 0-1.54.935-2.73 2.573-2.73zm27.367 2.553 1.005 2.27h-1.982l.977-2.27zm-10.43.792h1.578c.992 0 1.322.42 1.322 1.095s-.317 1.103-1.322 1.103h-1.578v-2.198zm64.005 0h1.583c.992 0 1.317.42 1.317 1.095s-.312 1.103-1.317 1.103h-1.583v-2.198z"/></svg>