<svg xmlns="http://www.w3.org/2000/svg" xml:space="preserve" width="236.01303" height="300"><defs><clipPath id="a"><path d="M0 792h612V0H0v792z"/></clipPath></defs><g clip-path="url(#a)" transform="matrix(.88013 0 0 -.88013 -151.312 498.53)"><path d="M305.898 225.57c-82.104 42.974-133.168 159.863-133.977 256.879 27.955 6.527 83.568 17.898 133.977 83.981 50.558-66.083 106.117-77.454 134.181-83.981-.91-97.016-51.973-213.905-134.181-256.879" style="fill:#ffd900;fill-opacity:1;fill-rule:nonzero;stroke:none"/><path d="M189.414 469.506c1.967-42.367 14-88.421 33.672-128.112 21.335-43.278 50.603-76.692 82.812-95.656 32.303 18.964 61.626 52.378 82.962 95.656 19.67 39.691 31.648 85.745 33.828 128.112-27.863 6.83-73.613 21.538-116.79 71.14-43.075-49.602-88.833-64.31-116.484-71.14" style="fill:#3365b1;fill-opacity:1;fill-rule:nonzero;stroke:none"/><path d="M197.808 463.696c2.673-40.096 13.954-82.004 32.098-118.663 19.572-39.526 46.467-71.028 75.992-89.533 29.627 18.505 56.524 50.007 76.085 89.533 18.156 36.659 29.425 78.567 32.11 118.663-28.874 7.483-69.365 23-108.195 65.322-38.726-42.322-79.328-57.839-108.09-65.322" style="fill:#00245d;fill-opacity:1;fill-rule:nonzero;stroke:none"/><path d="m302.158 547.972 3.74 4.347v14.111c-50.409-66.083-106.022-77.454-133.977-83.981l9.303-6.82 3.235.707c29.27 7.125 78.668 23.605 117.699 71.636M439.979 482.449l-9.607-6.82-.202-3.337c-.102-43.783-15.121-95.453-35.143-135.844-21.638-43.591-53.288-78.374-86.554-97.934l-2.575-1.471V225.57c82.208 42.974 133.271 159.863 134.181 256.879h-.1" style="fill:#f5bf0b;fill-opacity:1;fill-rule:nonzero;stroke:none"/><path d="M392.656 280.521h-2.279v1.674h6.627v-1.674h-2.483v-6.82h-1.865v6.82zM405.195 277.038v3.392h-.101c-.304-1.067-.608-2.28-.911-3.291l-1.067-3.337h-1.461l-.91 3.337c-.303 1.011-.606 2.224-.91 3.291 0-1.067 0-2.38-.102-3.392l-.202-3.337h-1.773l.607 8.494h2.481l.956-2.832c.303-1.01.404-2.123.708-2.978.203.855.606 2.069.808 2.978l.865 2.832h2.574l.607-8.494h-1.968l-.201 3.337" style="fill:#fcce19;fill-opacity:1;fill-rule:nonzero;stroke:#000;stroke-opacity:1"/><path d="M293.766 359.649h-43.682c-2.887 0-5.461 1.011-7.64 3.088-2.169 2.069-3.236 4.652-3.236 7.685v64.907h16.281v-60.568h38.277v-15.112" style="fill:#c7bfcd;fill-opacity:1;fill-rule:nonzero;stroke:none"/><path d="M242.242 433.463v-61.275c0-1.875.608-3.439 2.179-4.909 1.314-1.416 2.978-2.17 4.955-2.17h39.839v7.686h-38.277v60.668h-8.696" style="fill:#fff;fill-opacity:1;fill-rule:nonzero;stroke:none"/><path d="M301.146 359.649h16.583l6.417 16.436h25.031l-5.359 13.898h-14.111l10.065 25.684 21.639-56.018h17.291s-25.682 63.142-26.594 65.725c-2.077 5.606-5.312 9.955-12.336 9.955h-.202c-6.875 0-9.863-4.349-11.83-9.955l-26.594-65.725" style="fill:#c7bfcd;fill-opacity:1;fill-rule:nonzero;stroke:none"/><path d="M305.696 365.109h8.394c1.314 3.539 6.415 16.583 6.415 16.583h23.919c-1.269 2.978-1.875 4.652-2.583 6.416h-18.752l15.921 40.602 18.66-47.726c0-.203 3.843-11.021 5.708-15.875h9.101c-3.64 8.696-22.346 55.613-24.313 60.366-1.977 5.001-4.348 7.583-8.09 7.583h-.304c-5.617 0-7.684-2.582-9.661-7.381 0 0-21.638-53.59-24.415-60.568" style="fill:#fff;fill-opacity:1;fill-rule:nonzero;stroke:none"/><path d="M386.433 333.01c-24.212 4.696-51.616 7.17-80.635 7.17-30.233 0-58.702-2.832-83.879-7.98-10.765-2.077-20.169-4.154-26.796-6.222 6.121-9.809 13.145-20.931 19.166-30.132 5.965 1.572 12.281 2.932 18.808 4.247 21.739 4.346 46.613 6.719 72.701 6.719 25.279 0 48.783-2.169 69.973-6.315 7.684-1.416 15.01-2.786 21.785-4.449 6.168 9.459 13.145 20.324 19.266 29.727-7.279 2.068-17.75 4.854-30.389 7.235" style="fill:#fcce19;fill-opacity:1;fill-rule:nonzero;stroke:none"/><path d="M292.552 322.337c-.405.451-.506 1.371-.506 2.529v9.504l-5.313-.303v-9.661c0-2.069.304-3.384 1.976-4.744 1.866-1.571 4.045-1.571 6.821-1.471l5.717.257v3.586l-5.413-.304c-1.719-.202-2.676.102-3.282.607M356.76 331.484l-6.223.607s-2.776-3.282-3.641-4.248c-.707 1.168-3.483 4.854-3.483 4.854l-6.324.662s6.628-8.291 7.031-8.696c-.403-.551-7.381-7.583-7.381-7.583l6.416-.607s3.237 3.594 3.944 4.651c.763-1.166 3.742-5.257 3.742-5.257l6.526-.561s-6.83 8.402-7.234 9.007c.404.452 6.627 7.171 6.627 7.171M264.893 322.788c.606 1.011 1.976 4.247 2.785 5.663.754-1.416 2.067-4.138 2.729-5.259l-5.514-.404zm.302 9.706-8.695-16.785 5.617.46s.808 1.82 1.112 2.482l8.897.7c.102-.497 1.058-2.271 1.058-2.271l5.92.404-8.697 15.526-5.212-.516zM228.243 319.755c0-2.776 1.158-4.742 3.236-5.911 2.068-1.011 3.99-.81 6.416-.505l9.909 1.157v9.817l-8.898-1.121v-3.234c2.482.109 2.886.109 3.944.256v-2.528c-.956-.202-4.955-.606-4.955-.606-2.426-.404-3.842.101-3.842 3.639 0 4.147 1.875 4.956 3.842 5.259l9.909 1.37v3.382l-9.909-1.213c-6.416-.864-9.652-4.045-9.652-9.762M316.563 324.406c.605 1.066 1.975 4.045 2.785 5.414.754-1.461 2.169-4.45 2.73-5.507l-5.515.093zm.303 9.762-8.697-15.977 5.617-.1s.91 1.976 1.111 2.427l8.799-.101c.302-.662 1.158-2.63 1.158-2.63l5.92-.303-8.696 16.583-5.212.101zM379.41 328.359s-3.639-3.953-4.551-4.854c-.708 1.26-4.347 6.214-4.347 6.214l-6.122.707s7.786-9.908 7.988-10.212v-7.078l5.156-.707v7.031c.304.202 8.191 7.979 8.191 7.979l-6.315.92z" style="fill:#14162e;fill-opacity:1;fill-rule:nonzero;stroke:none"/><path d="M405.801 322.438c-5.258-8.236-12.391-18.301-12.391-18.301-6.518 1.259-13.596 2.583-20.931 3.741-20.067 3.291-42.671 5.258-66.681 5.258-24.975 0-48.535-2.078-69.365-5.662-6.223-1.159-12.236-2.327-17.898-3.64l-4.246-7.988c4.55 1.167 11.573 2.831 13.954 3.235.202 0 5.304-7.887 5.506-7.685.102.303 3.695 3.742 5.764 5.708 2.381 2.079 6.627 5.259 6.728 5.259 18.551 2.482 38.525 4.449 59.557 4.449 25.077 0 48.783-2.169 69.973-6.315 10.359-1.82 17.943-3.484 21.987-4.449 6.324 9.459 12.39 19.661 19.064 29.727l-11.021-3.337" style="fill:#f5bf0b;fill-opacity:1;fill-rule:nonzero;stroke:none"/><path d="M305.494 514.962c0-13.705-5.311-26.851-15.019-36.558-9.652-9.652-22.347-15.111-36.246-15.111-.303 0-.404-.304-.404-.607 0-.359.101-.561.404-.561 13.899-.102 26.594-5.46 36.246-15.314 9.708-9.707 15.019-22.651 15.019-36.356 0-.101.202-.202.202-.404.202-.102.406-.102.506 0h.202c.102.202.305.303.305.404 0 13.908 5.201 26.852 14.808 36.557 9.864 9.653 22.603 15.011 36.355 15.113.304 0 .506.304.506.662 0 .304-.202.506-.506.506-13.752.1-26.491 5.459-36.355 15.313-9.607 9.707-15.011 22.651-15.011 36.356 0 .304-.102.506-.404.506-.304 0-.608-.202-.608-.506" style="fill:#3365b1;fill-opacity:1;fill-rule:nonzero;stroke:none"/><path d="m305.898 497.368.204-.203c1.461-18.356 15.773-32.861 33.974-34.479.102 0 .304 0 .304-.257 0 0-.202-.102-.304-.102-2.684-.202-5.414-.708-7.988-1.618-14.258-4.596-24.727-17.089-25.986-32.605 0 0 0-.157-.204-.157-.1 0-.1.157-.1.157-1.213 15.516-11.683 28.009-25.886 32.605-2.683.91-5.157 1.416-8.089 1.618l-.101.102c0 .257 0 .257.101.257a37.316 37.316 0 0 1 33.975 34.479l.1.203" style="fill:#fcce19;fill-opacity:1;fill-rule:nonzero;stroke:none"/><path d="m305.898 497.368-.1-.203a37.316 37.316 0 0 0-33.975-34.479c-.101 0-.101 0-.101-.257h34.176v34.939M305.898 427.947c.204 0 .204.157.204.157 1.259 15.516 11.728 28.009 25.986 32.605 2.574.91 5.304 1.416 7.988 1.618.102 0 .304.102.304.102h-34.482v-34.482" style="fill:#eaa91c;fill-opacity:1;fill-rule:nonzero;stroke:none"/><path d="M328.797 462.686c-12.437.101-22.695 10.111-22.695 22.447h-.304c0-6.021-2.279-11.729-6.426-15.829-4.246-4.247-9.955-6.618-15.921-6.875h-.202c0-.102.202-.102.202-.102 12.281-.202 22.347-10.359 22.347-22.649 0-.202.1-.202.1-.202.204 0 .204 0 .204.202 0 12.437 10.258 22.649 22.695 22.649l.101.102c0 .257-.101.257-.101.257" style="fill:#fff;fill-opacity:1;fill-rule:nonzero;stroke:none"/></g></svg>