<svg xmlns="http://www.w3.org/2000/svg" width="34.954704mm" height="54.660801mm" viewBox="0 0 123.85525 193.68"><path d="m0 0-1.8-8.632c-.532-2.527-1.195-5.656-1.93-9.13l-.433-.202c.829 9.301.806 16.711-.843 20.259-1.369 2.943-3.505 5.668-6.205 7.841-3.791 3.052-6.233 3.424-6.233 3.424l.049-37.68-42.402-19.727c-5.779-2.704-5.788-9.509-5.788-9.509v-64.869l49.544-23.159 49.54 23.159V-.441L8.447-12.097c-.956 2.39-2.157 4.634-3.583 6.639a36.949 36.949 0 0 1-1.745 2.369C2.099-1.799 0 0 0 0" style="fill:#e4e5e6;fill-opacity:1;fill-rule:nonzero;stroke:none" transform="matrix(1.25 0 0 -1.25 81.981 16.95)"/><path d="m0 0 2.278-6.586L4.556-.001l6.841-1.32-4.564 5.264 4.564 5.265-6.841-1.32-2.278 6.586L0 7.888l-6.84 1.32 4.563-5.265-4.563-5.264L0 0Z" style="fill:#e4e5e6;fill-opacity:1;fill-rule:nonzero;stroke:none" transform="matrix(1.25 0 0 -1.25 25.35 36.26)"/><path d="M0 0c-5.779-2.703-5.788-9.508-5.788-9.508v-31.501s.009 6.805 5.788 9.51l93.296 43.405v31.5L0 0Z" style="fill:#8cd2f4;fill-opacity:1;fill-rule:nonzero;stroke:none" transform="matrix(1.25 0 0 -1.25 7.235 111.17)"/><path d="M0 0c2.883 3.423 3.487 6.622 3.487 6.622s-24.648-8.028-32.76-10.695c2.031.894 3.504 1.401 4.392 1.783C-21.575-.869-.125 6.345 2.276 10.847c2.34 4.386 2.258 8.002 2.258 8.002S-19.51 4.942-28.141-.075c2.018 1.454 3.512 2.352 4.395 2.974 3.264 2.308 24.91 15.104 26.481 20.551 1.528 5.31.606 9.222.606 9.222S-19.508 12.065-27.761 4.589c1.711 1.865 3.022 3.091 3.793 3.926C-20.954 11.775-.384 30.684.064 36.966c.435 6.124-1.471 10.162-1.471 10.162S-22.047 18.671-29.02 9.012c1.464 2.486 2.633 4.161 3.288 5.265 2.525 4.24 20.512 29.542 19.546 36.473-.939 6.757-3.945 10.703-3.945 10.703s-15.637-35.197-21.093-47.547c1.052 3.177 1.969 5.341 2.442 6.729 1.76 5.191 15.466 36.845 12.816 44.154-1.128 3.111-2.326 5.074-3.814 7.306-1.489 2.232-2.809 3.533-2.809 3.533-.73-3.436-6.157-29.085-9.709-45.943l-2.079-11.888c-.749-4.298-.043-7.164.293-8.197l.266-.759c3.953-11.72.907-17.4-.602-19.309l-.062-.077c-.303-.377-1.017-1.259-2.178-1.917-.918-.478-1.873-.72-2.84-.72-.577 0-1.151.087-1.708.256-5.213 1.723-3.32 7.592-3.302 7.651-.435-2.444.186-4.036.782-4.939.894-1.357 2.379-2.166 3.974-2.166 2.65 0 4.102 1.799 4.579 2.393l.061.074c1.436 1.817 4.342 7.298.308 18.896l.002.002c-.109.325-1.299 4.075-.57 8.262l2.794 16.091c2.017 12.821 6.211 39.5 2.89 46.648-1.534 3.301-3.71 5.602-5.785 7.302-2.074 1.7-3.939 2.534-3.939 2.534l.084-63.574c.007-3.396.117-6.195.277-8.492 0 0 .12-1.61.298-3.281.178-1.67.96-5.12 1.416-6.683l.547-1.834c2.066-7.231 1.108-11.809-.554-13.911-.399-.493-1.062-1.366-2.372-1.366-1.468 0-3.035 1.745-1.157 6.124 1.878 4.378 2.815 8.996-1.171 12.955-.378.387-.779.759-1.227 1.095-2.834 2.129-4.453 3.056-6.185 4.004-.908.496-5.871-.521-5.871-.521l-11.89 5.318-.022-.216S-50.177 7.15-47.074 4.551c2.855-2.391 1.358-6.172-1.389-8.33-3.138-2.464-12.416-7.678-12.416-7.678v-.551c0-6.205.916-8.759 5.14-13.938 8.143-9.982 11.824-14.001 11.824-24.412.463-.321 2.103-1.034 2.103-1.034v17.604c0 7.988 2.081 13.352 11.773 13.352l-6.774 6.343c.986-.731 1.613-1.302 2.052-1.631 1.702-1.271 11.706-10.109 14.715-10.007 2.937.098 4.75 1.205 4.75 1.205s-15.652 9.02-20.015 11.517c1.447-.64 2.403-1.176 3.009-1.454 2.144-.988 15.077-8.28 18.328-7.475 3.166.787 4.892 2.414 4.892 2.414s-19.298 6.253-24.497 7.919c1.783-.37 2.985-.743 3.728-.91 2.558-.578 18.3-5.516 21.643-3.889 3.261 1.585 4.763 3.753 4.763 3.753s-22.006 2.253-28.508 2.913c1.572-.021 3.096-.115 3.817-.124 2.913-.04 21.163-1.767 24.422.772C-.536-6.613.593-3.912.593-3.912s-23.869-2.527-31.157-3.319c1.954.408 3.346.577 4.201.749C-23.189-5.851-2.956-3.513 0 0" style="fill:#231f20;fill-opacity:1;fill-rule:nonzero;stroke:none" transform="matrix(1.25 0 0 -1.25 111.171 115.712)"/><path d="M0 0s-.996-.266-1.754.188c-.759.457-.991 1.462-.991 1.462s.997.265 1.753-.191C-.232 1.004 0 0 0 0" style="fill:#e31b23;fill-opacity:1;fill-rule:nonzero;stroke:none" transform="matrix(1.25 0 0 -1.25 51.232 102.907)"/><path d="M0 0s.552.24.552 1.057v1.191L-5.509-.591v-10.232l1.844.87v3.739l2.105.996c.147.099.482.394.482 1.029v1.046l-2.587-1.223v2.641L0 0Z" style="fill:#231f20;fill-opacity:1;fill-rule:nonzero;stroke:none" transform="matrix(1.25 0 0 -1.25 106.695 155.96)"/><path d="M0 0c.23.109.415.026.415-.204v-.797h.002a.421.421 0 0 1 .574-.393l1.198.564L2.188.467A1.584 1.584 0 0 1 .01 1.91L-3.416.316a2.197 2.197 0 0 1-1.215-1.959v-6.599c0-.792.641-1.425 1.434-1.413.213.003.415.051.596.138L.986-7.836a2.194 2.194 0 0 1 1.203 1.953v1.872L.804-4.642a.753.753 0 0 1-.38-.661v-.477c0-.229-.184-.488-.414-.596l-2.382-1.148c-.233-.11-.416-.028-.416.203v5.527c0 .23.183.485.416.593L0 0Z" style="fill:#231f20;fill-opacity:1;fill-rule:nonzero;stroke:none" transform="matrix(1.25 0 0 -1.25 114.434 152.248)"/><path d="m0 0-3.499 5.286-1.862-.871V-5.822s.77.37 1.319.622c.105.062.528.343.528 1.061V1.99L.072-3.277l1.792.838V7.792L.583 7.193C.453 7.111.017 6.927.017 6.15L0 0Z" style="fill:#231f20;fill-opacity:1;fill-rule:nonzero;stroke:none" transform="matrix(1.25 0 0 -1.25 84.656 172.428)"/><path d="M0 0v5.135L-1.805.15l-1.569-.735-2.098 3.411-.003-5.447c0-.607-.303-.949-.618-1.1l-1.161-.55V5.962l1.672.782 2.718-4.788 2.567 7.258 2.078.972V-.042L.788-.507C.436-.664 0-.385 0 0" style="fill:#231f20;fill-opacity:1;fill-rule:nonzero;stroke:none" transform="matrix(1.25 0 0 -1.25 73.773 180.559)"/><path d="M0 0v-8.039c0-.77.624-1.389 1.396-1.383.208.002.406.051.585.134h.001l3.851 1.791-.003.002a2.175 2.175 0 0 1 1.284 1.981h.003l.011 8.846s-.894-.415-1.289-.6c-.486-.228-.563-.763-.563-1.075v-7.095c0-.23-.183-.486-.414-.592L2.256-7.243c-.229-.108-.414-.024-.414.206v6.98a.578.578 0 0 1-.811.538L0 0Z" style="fill:#231f20;fill-opacity:1;fill-rule:nonzero;stroke:none" transform="matrix(1.25 0 0 -1.25 88.943 161.777)"/></svg>