<svg xmlns="http://www.w3.org/2000/svg" xmlns:xlink="http://www.w3.org/1999/xlink" id="Layer_1" width="1000" height="1431.5961" version="1.1" viewBox="0 0 1000 1431.5961"><style>.st2{clip-path:url(#SVGID_2_);fill:#1f1646}</style><defs id="defs13"><path id="SVGID_1_" d="M11.3.6h61.4v87.9H11.3Z"/></defs><clipPath id="SVGID_2_"><use xlink:href="#SVGID_1_" id="use15" width="100%" height="100%" x="0" y="0" overflow="visible" style="overflow:visible"/></clipPath><path id="path18" d="M30.5.6 11.3 16.5v56l19.2 16h23.1l19.1-16v-56L53.6.6Z" clip-path="url(#SVGID_2_)" style="fill:#ece83a" transform="matrix(16.28665 0 0 16.28665 -184.04 -9.772)"/><path id="path20" d="m52.8 2.7 17.8 14.8v54L52.8 86.4H31.2L13.4 71.5v-54L31.2 2.7Zm.4-1.1H30.8L12.4 17v55l18.5 15.4h22.3L71.6 72V17l-.4-.3z" class="st2" clip-path="url(#SVGID_2_)" style="fill:#1f1646" transform="matrix(16.28665 0 0 16.28665 -184.04 -9.772)"/><path id="path22" d="M37.8 54.9V37.8l8 17.1h4.7l-17-36v36zM46.2 9v17l-8-17h-4.7l17 35.9V9Zm-20.1 5.7h3.2v34.4h-3.2zm-6.3 5.8h2.1v22.9h-2.1zm34.9-5.8h3.2v34.4h-3.2zm7.4 5.8h2.1v22.9h-2.1ZM41.4 76 39 73.6v-1.7h.9v1.7h1.4v-2.2l-.7-.8h-2.3l-.7.8v3l2.3 2.3v2H39v-2h-1.4v2.6l.7.8h2.3l.8-.8zm1.3-4.6v7.9l.8.8h2.2l.7-.8v-2.6H45v2h-.8v-6.8h.8v1.7h1.4v-2.2l-.7-.8h-2.2zm-6.1-6.9-2.4-2.4v-1.7h.9v1.7h1.4v-2.3l-.7-.7h-2.2l-.8.7v3l2.3 2.3v2.1h-.8v-2.1h-1.5v2.7l.8.7h2.3l.7-.7zm-13.4-5.4 1.7 5.1v-5.1h1.5v9.4h-1.3l-1.8-5.1v5.1h-1.4v-9.4zm16.2 0V63h.9v-3.9h1.4v9.4h-1.4v-4.2h-.9v4.2h-1.5v-9.4zm4.9 0 .8 7.4.9-7.4h1.4l-1.3 9.4h-1.9l-1.3-9.4zm4.3 0H50v9.4h-1.4zm4.2 0v8h1.3v1.4h-2.7v-9.4zm3.8 0v8H58v1.4h-2.8v-9.4zm5.5 1.4h-1.6V63H62v1.3h-1.5v2.8h1.6v1.4H59v-9.4h3.1zm-31.6 8h1.4l-1.3-9.4h-1.9l-1.3 9.4h1.4l.2-1.6h1.4zm-1.4-2.9.5-4.5.5 4.5z" class="st2" clip-path="url(#SVGID_2_)" style="fill:#1f1646" transform="matrix(16.28665 0 0 16.28665 -184.04 -9.772)"/></svg>