<svg xmlns="http://www.w3.org/2000/svg" width="200" height="200"><path d="M500 422.362c0 193.3-156.7 350-350 350s-350-156.7-350-350 156.7-350 350-350 350 156.7 350 350z" style="fill:#28295c;fill-opacity:1;fill-rule:evenodd;stroke:none" transform="matrix(.28429 0 0 .28429 57.357 -20.072)"/><path d="M208 177.653c-180.365 0-326.721 146.356-326.721 326.72 0 180.365 146.356 326.693 326.72 326.693 180.365 0 326.721-146.328 326.721-326.693 0-180.364-146.356-326.72-326.72-326.72zm0 11.997c173.879 0 314.694 140.844 314.694 314.723 0 173.88-140.815 314.695-314.694 314.695-173.88 0-314.695-140.815-314.695-314.695C-106.695 330.494 34.12 189.65 208 189.65z" style="font-size:medium;font-style:normal;font-variant:normal;font-weight:400;font-stretch:normal;text-indent:0;text-decoration:none;letter-spacing:normal;word-spacing:normal;text-transform:none;direction:ltr;writing-mode:lr-tb;text-anchor:start;baseline-shift:baseline;color:#000;fill:#fff;fill-opacity:1;stroke:none;stroke-width:13.09604073;visibility:visible;display:inline;overflow:visible;enable-background:accumulate;font-family:Sans" transform="matrix(.1994 0 0 .1994 58.525 -.57)"/><path d="M208 26.271c-263.986 0-478.108 214.123-478.108 478.108 0 263.986 214.122 478.065 478.108 478.065 263.985 0 478.107-214.08 478.107-478.065 0-263.986-214.122-478.108-478.107-478.108zm0 10.178c258.473 0 467.887 209.457 467.887 467.93S466.473 972.267 208 972.267c-258.474 0-467.888-209.415-467.888-467.888 0-258.473 209.414-467.93 467.888-467.93z" style="font-size:medium;font-style:normal;font-variant:normal;font-weight:400;font-stretch:normal;text-indent:0;text-decoration:none;letter-spacing:normal;word-spacing:normal;text-transform:none;direction:ltr;writing-mode:lr-tb;text-anchor:start;baseline-shift:baseline;color:#000;fill:#e76b31;fill-opacity:1;stroke:none;stroke-width:7.54760838;visibility:visible;display:inline;overflow:visible;enable-background:accumulate;font-family:Sans" transform="matrix(.1994 0 0 .1994 58.525 -.57)"/><path d="M208 56.938c-246.534 0-447.469 200.903-447.469 447.437 0 246.534 200.935 447.406 447.469 447.406S655.469 750.91 655.469 504.375 454.534 56.937 208 56.937zm0 98.53c193.458 0 348.5 155.449 348.5 348.907 0 193.458-155.042 348.031-348.5 348.031s-348.5-154.573-348.5-348.031S14.542 155.469 208 155.469zm-396.563 323.626L-163 497.719l-9.906 30.625h-31.938l-10-30.75 26.281-18.5zm793.532 0 25.562 18.625-9.875 30.625H588.72l-10-30.75 26.25-18.5z" style="font-size:medium;font-style:normal;font-variant:normal;font-weight:400;font-stretch:normal;text-indent:0;text-decoration:none;letter-spacing:normal;word-spacing:normal;text-transform:none;direction:ltr;writing-mode:lr-tb;text-anchor:start;baseline-shift:baseline;color:#000;fill:#78a5db;fill-opacity:1;stroke:none;stroke-width:.1;visibility:visible;display:inline;overflow:visible;enable-background:accumulate;font-family:Sans" transform="matrix(.1994 0 0 .1994 58.525 -.57)"/><path d="M37.196 297.362H15v-29h77v29H79L206.481 420.07l84.001-81.033c8.73 4.19 17.322 9.62 25.885 15.31l-94.891 90.408v46.754L193 463.355v-16.993zM334 297.362h-14v-30h77v30h-22l-27.143 26.518c-8.214-6.987-16.428-11.264-24.643-16.25z" style="fill:#fff;stroke:none" transform="matrix(.1994 0 0 .1994 58.525 -.57)"/><path d="m102.5 310.309 22.679 21.25s34.494-19.286 83.214-19.286c85.98 0 154.5 56.403 182.678 131.34h30.536v-86.34h-28.571v24.91c-34.937-53.765-102.656-98.75-184.465-98.75-62.68 0-106.071 26.876-106.071 26.876z" style="fill:#fff;stroke:none" transform="matrix(.1994 0 0 .1994 58.525 -.57)"/><path d="M140 591.362v27H69v-27h21.4v-155H70v-27h55l176 167v-140h-21v-27h71v27h-22v182h-23.286L119 441.877v149.485z" style="fill:#fff;stroke:none" transform="matrix(.1994 0 0 .1994 58.525 -.57)"/><path d="M184.48 697.357v28.978C72.085 715.775-13.974 618.463-13.974 505.8c0-74.408 33.483-130.31 79.42-170.938l21.276 20.551c-43.809 36.245-71.812 89.822-71.812 150.52 0 97.454 74.687 179.693 169.568 191.424zM229.494 726.399v-29.042c75.97-8.247 142.925-62.861 163.203-134.982h30.241C400.882 648.542 323.675 716.7 229.494 726.4z" style="fill:#fff;stroke:none" transform="matrix(.1994 0 0 .1994 58.525 -.57)"/><path d="M244 781.362h-73v-29h21v-231l29.476 27v204H244z" style="fill:#fff;stroke:none" transform="matrix(.1994 0 0 .1994 58.525 -.57)"/><path d="M-39.733 228.617-78.44 190.77l-8.219 8.405 23.832 23.303-41.564-5.168-7.678 7.852 38.707 37.847 8.217-8.403-24.606-24.06 42.936 5.314zM1.64 196.231l-6.525-8.345-23.15 18.103-7.003-8.955 20.102-15.72-6.526-8.346-20.103 15.72-6.764-8.65 22.844-17.865-6.528-8.347-32.164 25.153 33.349 42.644zM51.823 107.83l-11.068 5.705 6.826 37.72-27.657-27.157-9.073 4.676 6.07 38.283-26.76-27.448-11.343 5.846 41.407 39.997 9.212-4.747-5.365-37.082 27.086 25.888 9.212-4.748zM139.438 85.174l-13.206 2.967-8.06 24.086-17.368-18.37-13.58 3.052 27.487 27.43 4.68 20.826 11.62-2.612-4.731-21.05zM196.179 88.065l-.11-.108c-2.765-2.703-5.85-4.729-9.256-6.077-3.406-1.347-6.895-1.983-10.467-1.906-3.571.077-7.108.855-10.61 2.335s-6.713 3.712-9.633 6.698c-2.919 2.985-5.088 6.254-6.506 9.807-1.418 3.552-2.107 7.133-2.067 10.742.04 3.608.764 7.11 2.17 10.503 1.405 3.393 3.49 6.441 6.254 9.144l.11.109c2.765 2.702 5.85 4.728 9.256 6.075 3.406 1.348 6.894 1.983 10.466 1.906 3.572-.077 7.108-.854 10.61-2.334 3.501-1.478 6.712-3.711 9.633-6.698 2.92-2.986 5.088-6.255 6.506-9.807 1.419-3.553 2.108-7.133 2.067-10.742-.04-3.609-.763-7.11-2.168-10.503-1.405-3.392-3.49-6.44-6.255-9.144zm-8.594 9.011c1.658 1.622 2.936 3.43 3.834 5.425.898 1.995 1.404 4.04 1.518 6.135.115 2.096-.218 4.169-.997 6.22-.78 2.05-1.998 3.922-3.655 5.618-1.694 1.732-3.558 2.993-5.59 3.78a16.48 16.48 0 0 1-6.25 1.137c-2.133-.03-4.216-.48-6.25-1.35-2.032-.87-3.878-2.117-5.538-3.74l-.11-.107c-1.659-1.622-2.937-3.431-3.835-5.427-.897-1.995-1.403-4.04-1.518-6.135-.115-2.095.209-4.159.97-6.191.762-2.032 1.99-3.915 3.684-5.647 1.657-1.696 3.512-2.947 5.563-3.754 2.05-.806 4.143-1.194 6.276-1.164 2.133.03 4.216.482 6.25 1.353 2.033.87 3.878 2.117 5.536 3.739zM262.29 137.07l-11.948-20.146c3.53-1.063 6.451-2.902 8.765-5.516 2.313-2.614 3.611-6.108 3.894-10.483l.01-.153c.363-5.608-1.142-10.097-4.515-13.467-3.373-3.37-8.275-5.263-14.706-5.68l-24.693-1.597-3.495 54.023 11.884.768 1.118-17.286 9.338.604 10.458 18.035zm-11.368-36.307c-.15 2.316-1.054 4.118-2.714 5.406-1.659 1.288-3.954 1.838-6.885 1.648l-12.04-.779 1.004-15.513 11.806.763c2.933.19 5.18.982 6.744 2.375 1.563 1.393 2.261 3.376 2.095 5.947zM317.097 149.685l-15.738-35.424 26.498-17.641-14.043-3.12-26.572 18.338 5.132-23.101-11.625-2.583L269.007 139l11.626 2.582 3.59-16.154 7.523-4.985 11.384 26.138zM390.947 171.408l-3.775-10.09c-2.732.92-5.306 1.46-7.723 1.618-2.417.157-5.036-.397-7.857-1.665-2.116-.95-3.87-2.233-5.265-3.849-1.394-1.615-2.397-3.409-3.01-5.38-.612-1.97-.849-4.054-.71-6.252.14-2.198.686-4.355 1.637-6.472l.063-.14c.95-2.117 2.196-3.946 3.736-5.487 1.54-1.54 3.262-2.731 5.166-3.572a14.926 14.926 0 0 1 6.04-1.27c2.122-.008 4.218.453 6.287 1.383 2.493 1.12 4.517 2.623 6.072 4.508 1.555 1.885 2.906 4.132 4.053 6.74l10.494-4.867a31.91 31.91 0 0 0-2.273-4.751 24.659 24.659 0 0 0-3.226-4.333c-1.256-1.356-2.752-2.65-4.487-3.881-1.736-1.232-3.756-2.365-6.061-3.401-3.81-1.711-7.59-2.604-11.344-2.68-3.753-.075-7.281.544-10.584 1.858-3.304 1.314-6.282 3.226-8.936 5.736-2.653 2.51-4.772 5.529-6.356 9.055l-.064.142c-1.584 3.526-2.44 7.127-2.564 10.801-.126 3.675.428 7.16 1.661 10.455 1.233 3.294 3.106 6.297 5.618 9.008 2.512 2.712 5.578 4.88 9.2 6.507 2.399 1.078 4.653 1.85 6.76 2.317 2.108.467 4.147.677 6.118.63a25.694 25.694 0 0 0 5.731-.775c1.85-.47 3.716-1.1 5.599-1.893zM404.076 191.021l28.127-46.255-10.175-6.187-28.127 46.255zM473.547 187.617l6.598-8.78-35.86-26.946-6.597 8.779 13.17 9.896-25.925 34.5 9.52 7.153 25.925-34.499zM525.509 222.542l-9.59-9.553-24.65 6.118 6.187-24.512-9.861-9.824-8.404 37.913-15.065 15.122 8.437 8.405 15.228-15.286z" style="font-size:40px;font-style:normal;font-variant:normal;font-weight:700;font-stretch:normal;letter-spacing:0;word-spacing:0;fill:#28295c;fill-opacity:1;stroke:none;font-family:Gotham" transform="matrix(.1994 0 0 .1994 58.525 -.57)"/><path d="m-47.824 774.11-24.15-26.79-36.187 34.828 3.46 3.894 15.767-15.175 18.366 20.444 3.723-3.584-18.366-20.443 12.924-12.438 20.69 22.895zM81.676 858.865l16.679 6.197 1.7-4.954-37.451-13.95-1.7 4.954 15.854 5.843-14.608 42.55 4.917 1.91zM134.327 868.107l-22.24-5.124-10.251 49.168 23.07 5.332c2.442.564 4.712.859 6.842.751 2.131-.107 4.03-.555 5.697-1.346a11.087 11.087 0 0 0 4.18-3.425c1.12-1.493 1.898-3.293 2.338-5.4.351-1.685.408-3.248.17-4.687-.238-1.44-.686-2.734-1.343-3.884a13.768 13.768 0 0 0-2.533-3.184 20.458 20.458 0 0 0-3.397-2.587 14.143 14.143 0 0 0 2.92-.932c.962-.424 1.883-1.02 2.76-1.784.877-.766 1.645-1.706 2.304-2.823.659-1.116 1.16-2.493 1.501-4.132.39-1.874.404-3.657.038-5.35a11.362 11.362 0 0 0-2.136-4.598c-1.06-1.374-2.424-2.577-4.092-3.611-1.668-1.034-3.611-1.829-5.828-2.384zm-5.401 21.707-16.42-3.667 3.53-16.927 16.804 3.763c3.197.8 5.497 2.14 6.9 4.019 1.403 1.879 1.846 4.058 1.329 6.539-.606 2.904-2.024 4.865-4.256 5.882-2.232 1.018-4.842 1.071-7.887.391zm-2.853 22.712-18.208-4.115 3.617-17.347 17.314 3.891c3.945.887 6.732 2.461 8.428 4.437 1.697 1.977 2.263 4.323 1.696 7.04-.586 2.81-2.02 4.74-4.304 5.795-2.283 1.053-5.112 1.075-8.543.3zM188.638 873.91l-4.866-.361-25.619 50.082 5.325.394 7.245-13.111 27.3 1.438 4.935 13.665 5.59.414zm7.52 33.2-23.222-1.137 12.978-25.653zM280.656 919.234l33.334-6.165-1.082-5.125-28.198 5.293-9.29-44.017-5.135.872zM457.724 779.8l-4.04 3.284 19.057 22.993c3.51 4.235 4.373 7.354 4.373 11.516 0 4.248-2.896 7.744-6.126 10.526-3.445 2.968-5.927 4.434-11.117 4.434-3.906 0-8.42-2.896-12.025-6.987l-18.736-22.807-4.04 3.285 18.974 23.076a26.746 26.746 0 0 0 7.287 6.178c2.519 1.464 5.356 2.666 8.406 2.666 5.745 0 9.427-1.501 14.361-5.415 4.643-3.521 8.786-9.278 8.786-15.493.055-6.037-3.331-11.602-6.721-15.504zM227.924 924.69l33.869-1.452-.355-5.225-28.662 1.304-3.053-44.884-5.207.147zM414.309 872.275l29.085-17.414-2.803-4.425-24.577 14.804-24.07-38.006-4.508 2.61z" style="font-size:40px;font-style:normal;font-variant:normal;font-weight:400;font-stretch:normal;letter-spacing:0;word-spacing:0;fill:#28295c;fill-opacity:1;stroke:#28295c;stroke-width:3.99599242;stroke-opacity:1;font-family:Gotham" transform="matrix(.1994 0 0 .1994 58.525 -.57)"/><path d="M-13.428 817.026c0 12.23-9.914 22.144-22.143 22.144-12.23 0-22.144-9.914-22.144-22.144 0-12.23 9.914-22.143 22.144-22.143 12.23 0 22.143 9.914 22.143 22.143z" style="fill:none;stroke:#28295c;stroke-width:9.01495934;stroke-linecap:square;stroke-linejoin:round;stroke-miterlimit:4;stroke-opacity:1;stroke-dasharray:none;stroke-dashoffset:0" transform="matrix(.21213 0 0 .21213 59.025 -11.015)"/><path d="M-13.428 817.026c0 12.23-9.914 22.144-22.143 22.144-12.23 0-22.144-9.914-22.144-22.144 0-12.23 9.914-22.143 22.144-22.143 12.23 0 22.143 9.914 22.143 22.143z" style="fill:none;stroke:#28295c;stroke-width:9.01495934;stroke-linecap:square;stroke-linejoin:round;stroke-miterlimit:4;stroke-opacity:1;stroke-dasharray:none;stroke-dashoffset:0" transform="matrix(.21213 0 0 .21213 70.298 -3.64)"/><path d="m484.18 752.322-15.615 16.643 37.337 33.594 16.213-17.257c1.716-1.826 3.113-3.64 4.092-5.535.98-1.896 1.547-3.763 1.703-5.601a11.087 11.087 0 0 0-.858-5.335c-.728-1.719-1.891-3.298-3.49-4.737-1.281-1.152-2.603-1.987-3.967-2.505-1.363-.518-2.707-.783-4.032-.793a13.768 13.768 0 0 0-4.026.587 20.458 20.458 0 0 0-3.945 1.635c.324-.949.545-1.946.663-2.992s.067-2.14-.153-3.283c-.22-1.143-.647-2.28-1.28-3.412-.633-1.13-1.572-2.256-2.817-3.376-1.422-1.28-2.957-2.188-4.604-2.724a11.362 11.362 0 0 0-5.05-.467c-1.72.225-3.445.798-5.178 1.72-1.733.922-3.397 2.201-4.992 3.838zm16.045 15.587-11.43 12.346-12.853-11.565 11.705-12.63c2.3-2.36 4.615-3.674 6.944-3.942 2.33-.267 4.437.446 6.32 2.141 2.205 1.984 3.186 4.197 2.944 6.637-.243 2.441-1.511 4.724-3.63 7.013zm18.194 13.891-12.716 13.667-13.173-11.852 12.073-13.007c2.75-2.963 5.513-4.58 8.074-5.052 2.562-.473 4.875.22 6.937 2.075 2.134 1.92 3.081 4.131 2.843 6.635-.238 2.504-1.642 4.96-4.038 7.534z" style="font-size:40px;font-style:normal;font-variant:normal;font-weight:400;font-stretch:normal;letter-spacing:0;word-spacing:0;fill:#28295c;fill-opacity:1;stroke:#28295c;stroke-width:3.99599242;stroke-opacity:1;font-family:Gotham" transform="matrix(.1994 0 0 .1994 58.525 -.57)"/><path d="M388.075 871.36c-3.331 7.752-7.917 13.587-18.333 13.587a18.673 18.673 0 0 1-18.75-18.75 18.673 18.673 0 0 1 18.75-18.75c2.9 0 5.638.646 8.08 1.803l3.088-9.108a28.117 28.117 0 0 0-11.168-2.303c-15.604 0-28.358 12.754-28.358 28.358 0 15.604 12.754 28.358 28.358 28.358 12.824 0 23.723-8.614 27.2-20.345" style="font-size:medium;font-style:normal;font-variant:normal;font-weight:400;font-stretch:normal;text-indent:0;text-decoration:none;letter-spacing:normal;word-spacing:normal;text-transform:none;direction:ltr;writing-mode:lr-tb;text-anchor:start;baseline-shift:baseline;color:#000;fill:#28295c;fill-opacity:1;stroke:none;stroke-width:9.02400017;visibility:visible;display:inline;overflow:visible;enable-background:accumulate;font-family:Sans" transform="matrix(.1994 0 0 .1994 58.525 -.57)"/></svg>