<svg xmlns="http://www.w3.org/2000/svg" xml:space="preserve" id="Layer_1" width="316" height="316" x="0px" y="0px" style="enable-background:new 0 0 200 200" version="1.1" viewBox="0 0 200 200"><style>.st1{fill:#071b2c}.st3{fill:#3e8ede}</style><linearGradient id="SVGID_1_" x1="-2197.6228" x2="-2196.385" y1="-640.0295" y2="-640.0295" gradientTransform="scale(219.3003) rotate(45 -1871.397 2332.754)" gradientUnits="userSpaceOnUse"><stop offset="0" style="stop-color:#bda267"/><stop offset="7.390000e-02" style="stop-color:#bda267"/><stop offset="0.1379" style="stop-color:#cbb580"/><stop offset="0.2729" style="stop-color:#f0e4be"/><stop offset="0.2746" style="stop-color:#f0e5bf"/><stop offset="0.3925" style="stop-color:#cdb782"/><stop offset="0.4557" style="stop-color:#bda267"/><stop offset="0.6613" style="stop-color:#f0e5bf"/><stop offset="0.853" style="stop-color:#cdb782"/><stop offset="0.9557" style="stop-color:#bda267"/><stop offset="1" style="stop-color:#bda267"/></linearGradient><path d="M200 100.4v-.9C199.8 44.6 155 0 100 0 44.9 0 0 44.9 0 100s44.9 100 100 100c55 0 99.8-44.6 100-99.6z" style="fill:url(#SVGID_1_)"/><path d="M100 3.9C47 3.9 3.9 47 3.9 100S47 196.1 100 196.1s96.1-43.1 96.1-96.1S153 3.9 100 3.9" class="st1"/><linearGradient id="SVGID_2_" x1="-2197.6228" x2="-2196.385" y1="-640.0295" y2="-640.0295" gradientTransform="scale(219.3003) rotate(45 -1871.397 2332.754)" gradientUnits="userSpaceOnUse"><stop offset="0" style="stop-color:#bda267"/><stop offset="7.390000e-02" style="stop-color:#bda267"/><stop offset="0.1379" style="stop-color:#cbb580"/><stop offset="0.2729" style="stop-color:#f0e4be"/><stop offset="0.2746" style="stop-color:#f0e5bf"/><stop offset="0.3925" style="stop-color:#cdb782"/><stop offset="0.4557" style="stop-color:#bda267"/><stop offset="0.6613" style="stop-color:#f0e5bf"/><stop offset="0.853" style="stop-color:#cdb782"/><stop offset="0.9557" style="stop-color:#bda267"/><stop offset="1" style="stop-color:#bda267"/></linearGradient><path d="M165.8 100c0-36.3-29.5-65.8-65.8-65.8S34.2 63.7 34.2 100s29.5 65.8 65.8 65.8 65.8-29.5 65.8-65.8z" style="fill:url(#SVGID_2_)"/><path d="M100 165.9c7.7 0 15.1-1.4 22-3.8v-20c-8.3 1.4-15.8 5.2-22.1 10.6-6.3-5.4-13.7-9.1-21.9-10.6v20c6.9 2.4 14.3 3.8 22 3.8" class="st3"/><path d="M156.2 95.4c-1.4-.5-2.7-.9-2.7-.9-16.7-5-34.7-7.6-53.6-7.6-18.6 0-37.1 2.6-53.6 7.6 0 0-1.2.4-2.6.9l3.1 2.8c2.6-.8 5.3-1.5 8-2.2 5 29 22 53.3 45.3 66.1 23.2-12.8 40.3-37.1 45.3-66.1 2.6.7 5.2 1.3 7.7 2.1l3.1-2.7" class="st1"/><path d="M100 83.6c16.1 0 31.6 1.9 46.3 5.5.4-3.4.5-6.9.5-10.4 0-7.8-.9-15.3-2.5-22.5-4.6 1.6-9.5 2.5-14.6 2.5-11.2 0-21.5-4.2-29.7-11.3-8.2 7.1-18.5 11.3-29.7 11.3-5.1 0-10-.9-14.6-2.5-1.6 7.2-2.5 14.7-2.5 22.5 0 3.5.2 7 .5 10.4 14.7-3.6 30.5-5.5 46.3-5.5" class="st1"/><path d="M100.1 34.2c-7.7 0-15.1 1.4-22 3.8v20c8.3-1.4 15.8-5.2 22.1-10.6 6.3 5.4 13.7 9.1 21.9 10.6V38c-6.9-2.5-14.3-3.8-22-3.8" class="st3"/><linearGradient id="SVGID_3_" x1="-2197.6228" x2="-2196.385" y1="-639.9883" y2="-639.9883" gradientTransform="scale(219.3003) rotate(45 -1871.606 2332.668)" gradientUnits="userSpaceOnUse"><stop offset="0" style="stop-color:#bda267"/><stop offset="7.390000e-02" style="stop-color:#bda267"/><stop offset="0.1379" style="stop-color:#cbb580"/><stop offset="0.2729" style="stop-color:#f0e4be"/><stop offset="0.2746" style="stop-color:#f0e5bf"/><stop offset="0.3925" style="stop-color:#cdb782"/><stop offset="0.4557" style="stop-color:#bda267"/><stop offset="0.6613" style="stop-color:#f0e5bf"/><stop offset="0.853" style="stop-color:#cdb782"/><stop offset="0.9557" style="stop-color:#bda267"/><stop offset="1" style="stop-color:#bda267"/></linearGradient><path d="M22.7 89.3c.2 0 .3.1.5.1.1 0 .2.1.3.1l.2.2c.2.2.4.4.5.7.1.3 0 .7 0 1.2l1.5.3 1.7-8.1-1.5-.3c-.1.5-.3.9-.4 1.2-.1.2-.3.4-.5.5-.1.1-.2.1-.3.1h-.4c-.1 0-.3 0-.5-.1-.2 0-.5-.1-.8-.2l-6.9-1.4c-.4-.1-.7-.2-.9-.3-.2-.1-.3-.2-.4-.4-.2-.3-.2-.8-.1-1.4.1-.8.4-1.2.9-1.3.6-.2 1.5-.2 2.9.1 1 .2 1.7.5 2 .8s.4.8.3 1.4c-.1.3-.2.7-.4 1.1l1.5.9c.7-.7 1.1-1.6 1.4-2.8.3-1.6.1-2.8-.5-3.7-.7-.9-1.9-1.5-3.7-1.9-.8-.2-1.5-.3-2.2-.3-.8 0-1.5.1-2.1.4-1 .5-1.6 1.5-1.9 3 0 .2-.1.4-.1.7s-.1.6-.1.9l-.3 1.5c-.1.5-.2 1-.3 1.7l-1 4.8 1.5.3c.1-.5.2-.8.4-1 .1-.2.3-.4.5-.5.1 0 .2-.1.3-.1h.4c.2 0 .3 0 .5.1.2 0 .5.1.8.2l6.8 1.4s.2 0 .4.1z" style="fill:url(#SVGID_3_)"/><linearGradient id="SVGID_4_" x1="-2197.6228" x2="-2196.385" y1="-640.0079" y2="-640.0079" gradientTransform="scale(219.3003) rotate(45 -1871.507 2332.709)" gradientUnits="userSpaceOnUse"><stop offset="0" style="stop-color:#bda267"/><stop offset="7.390000e-02" style="stop-color:#bda267"/><stop offset="0.1379" style="stop-color:#cbb580"/><stop offset="0.2729" style="stop-color:#f0e4be"/><stop offset="0.2746" style="stop-color:#f0e5bf"/><stop offset="0.3925" style="stop-color:#cdb782"/><stop offset="0.4557" style="stop-color:#bda267"/><stop offset="0.6613" style="stop-color:#f0e5bf"/><stop offset="0.853" style="stop-color:#cdb782"/><stop offset="0.9557" style="stop-color:#bda267"/><stop offset="1" style="stop-color:#bda267"/></linearGradient><path d="M28 69.8c.2.1.3.2.4.2.1.1.2.1.2.2l.2.2c.2.3.3.5.3.8s-.1.7-.4 1.1l1.3.7 2.8-5.4-6.1-3.1 2-4 6.1 3.1 2.8-5.4-1.3-.7c-.3.4-.5.7-.7.9-.2.2-.4.3-.6.3h-.3c-.1 0-.2 0-.3-.1-.1 0-.3-.1-.5-.2s-.4-.2-.7-.4l-6.1-3c-.3-.1-.5-.3-.6-.3-.2-.1-.3-.2-.4-.2-.1-.1-.2-.1-.3-.2 0-.1-.1-.1-.2-.2-.2-.3-.3-.5-.3-.8s.2-.7.4-1.2l-1.3-.7-2.9 5.5 5 2.5-2.1 4-5-2.6-2.8 5.4 1.3.7c.3-.4.5-.7.6-.9.2-.2.4-.3.6-.3h.3c.1 0 .2 0 .4.1.1 0 .3.1.5.2s.4.2.7.4l6.1 3.2c.5 0 .7.1.9.2z" style="fill:url(#SVGID_4_)"/><linearGradient id="SVGID_5_" x1="-2197.6228" x2="-2196.385" y1="-640.0244" y2="-640.0244" gradientTransform="scale(219.3003) rotate(45 -1871.423 2332.744)" gradientUnits="userSpaceOnUse"><stop offset="0" style="stop-color:#bda267"/><stop offset="7.390000e-02" style="stop-color:#bda267"/><stop offset="0.1379" style="stop-color:#cbb580"/><stop offset="0.2729" style="stop-color:#f0e4be"/><stop offset="0.2746" style="stop-color:#f0e5bf"/><stop offset="0.3925" style="stop-color:#cdb782"/><stop offset="0.4557" style="stop-color:#bda267"/><stop offset="0.6613" style="stop-color:#f0e5bf"/><stop offset="0.853" style="stop-color:#cdb782"/><stop offset="0.9557" style="stop-color:#bda267"/><stop offset="1" style="stop-color:#bda267"/></linearGradient><path d="M39.8 50.6c.1.1.3.2.3.3s.2.2.2.2c0 .1.1.2.1.3.1.3.2.6.1.8-.1.3-.3.6-.6 1l1.1 1 5.3-6.1-1.1-1c-.3.3-.6.6-.8.7-.2.2-.4.3-.7.2h-.3c-.1 0-.2-.1-.3-.2-.1-.1-.3-.2-.4-.3-.2-.1-.4-.3-.6-.5l-5.2-4.5-.5-.5c-.1-.1-.3-.2-.3-.3l-.2-.2c0-.1-.1-.2-.1-.3-.1-.3-.2-.6-.1-.8.1-.3.3-.6.6-1l-1.2-1-5.3 6.1 1.1 1c.3-.3.6-.6.8-.7.2-.1.4-.2.7-.2.1 0 .2 0 .3.1.1 0 .2.1.3.1.1.1.3.2.4.3.2.1.4.3.6.5l5.2 4.5c.3.2.4.4.6.5z" style="fill:url(#SVGID_5_)"/><linearGradient id="SVGID_6_" x1="-2197.6228" x2="-2196.385" y1="-640.0387" y2="-640.0387" gradientTransform="scale(219.3003) rotate(45 -1871.35 2332.774)" gradientUnits="userSpaceOnUse"><stop offset="0" style="stop-color:#bda267"/><stop offset="7.390000e-02" style="stop-color:#bda267"/><stop offset="0.1379" style="stop-color:#cbb580"/><stop offset="0.2729" style="stop-color:#f0e4be"/><stop offset="0.2746" style="stop-color:#f0e5bf"/><stop offset="0.3925" style="stop-color:#cdb782"/><stop offset="0.4557" style="stop-color:#bda267"/><stop offset="0.6613" style="stop-color:#f0e5bf"/><stop offset="0.853" style="stop-color:#cdb782"/><stop offset="0.9557" style="stop-color:#bda267"/><stop offset="1" style="stop-color:#bda267"/></linearGradient><path d="m57.3 32.8-1.5 1.1c.3.5.5.9.7 1.2s.1.6.1 1c0 .1 0 .2-.1.3s-.1.2-.2.3l-.4.4c-.2.2-.4.3-.6.5l-.3.2c-.2.2-.4.3-.5.4s-.3.2-.4.2c-.1 0-.2.1-.3.1h-.5c-.1 0-.1-.1-.2-.1s-.2-.2-.3-.3c-.1-.1-.2-.3-.4-.5L48.3 32c-.2-.2-.3-.4-.4-.6-.1-.1-.2-.3-.3-.4-.1-.1-.1-.2-.1-.3 0-.1 0-.2-.1-.3-.1-.3 0-.6.1-.8s.4-.5.8-.9l-.9-1.2-6.4 5 .9 1.2c.4-.3.7-.4.9-.5.2-.1.5-.1.7 0 .1 0 .2.1.3.1s.2.1.3.2l.4.4c.1.2.3.4.5.7l4.2 5.5c.2.2.3.4.4.6.1.2.2.3.3.4.1.1.1.2.1.3 0 .1 0 .2.1.3.1.3 0 .6-.1.8-.1.2-.4.5-.8.9l.9 1.2 10.2-7.7-3-4.1z" style="fill:url(#SVGID_6_)"/><linearGradient id="SVGID_7_" x1="-2197.6228" x2="-2196.385" y1="-640.0549" y2="-640.0549" gradientTransform="scale(219.3003) rotate(45 -1871.268 2332.808)" gradientUnits="userSpaceOnUse"><stop offset="0" style="stop-color:#bda267"/><stop offset="7.390000e-02" style="stop-color:#bda267"/><stop offset="0.1379" style="stop-color:#cbb580"/><stop offset="0.2729" style="stop-color:#f0e4be"/><stop offset="0.2746" style="stop-color:#f0e5bf"/><stop offset="0.3925" style="stop-color:#cdb782"/><stop offset="0.4557" style="stop-color:#bda267"/><stop offset="0.6613" style="stop-color:#f0e5bf"/><stop offset="0.853" style="stop-color:#cdb782"/><stop offset="0.9557" style="stop-color:#bda267"/><stop offset="1" style="stop-color:#bda267"/></linearGradient><path d="m71.3 29.6.6 1.4 7.1-2.9-.6-1.4c-.3.1-.6.1-.8.1s-.5-.1-.7-.2c-.2-.1-.5-.3-.7-.5-.3-.2-.6-.6-.9-1l-6.5-7.3-.4-.4-.3-.3c-.1-.1-.2-.2-.3-.4-.1-.1-.2-.3-.3-.4l-3.2 1.3c0 .2.1.4.1.8 0 .3.1.8.1 1.3l.5 9.7v1.3c0 .3-.1.6-.1.8l-.3.6c-.2.2-.3.3-.6.5l.6 1.4 5.7-2.4-.6-1.4c-.6.2-1 .2-1.2.2-.2 0-.4-.2-.6-.5-.1-.1-.1-.3-.2-.5 0-.2-.1-.5-.1-.7v-.4l3.6-1.5.3.3c.5.6.7 1 .8 1.1.1.3.1.5-.1.7-.1.2-.4.5-.9.7zm-4-3.7-.1-2.6-.1-1.9.2.2.2.2.3.4c.1.1.2.3.3.4l.3.3.2.2c0 .1.1.1.2.2l1.2 1.5-2.7 1.1z" style="fill:url(#SVGID_7_)"/><linearGradient id="SVGID_8_" x1="-2197.623" x2="-2196.3853" y1="-640.0721" y2="-640.0721" gradientTransform="scale(219.3095) rotate(45 -1871.176 2332.846)" gradientUnits="userSpaceOnUse"><stop offset="0" style="stop-color:#bda267"/><stop offset="7.390000e-02" style="stop-color:#bda267"/><stop offset="0.1379" style="stop-color:#cbb580"/><stop offset="0.2729" style="stop-color:#f0e4be"/><stop offset="0.2746" style="stop-color:#f0e5bf"/><stop offset="0.3925" style="stop-color:#cdb782"/><stop offset="0.4557" style="stop-color:#bda267"/><stop offset="0.6613" style="stop-color:#f0e5bf"/><stop offset="0.853" style="stop-color:#cdb782"/><stop offset="0.9557" style="stop-color:#bda267"/><stop offset="1" style="stop-color:#bda267"/></linearGradient><path d="M92.2 26c.2 0 .4 0 .6-.1 2.1-.2 3.6-1 4.4-2.4.9-1.4 1.2-3.3.9-5.7-.1-1.1-.3-2.1-.6-3-.3-.9-.7-1.7-1.1-2.3-.5-.7-1.2-1.2-2-1.5-.5-.2-1.2-.3-1.9-.3-.4 0-.8 0-1.2.1-.2 0-.4.1-.8.1s-.7.1-1 .2c-.4.1-.9.1-1.5.2s-1.4.2-2.3.3l-4.3.4.2 1.5h1.1c.2.1.4.2.6.4.1.1.1.2.2.3.1.1.1.2.1.3s.1.3.1.5.1.5.1.8l.8 6.9c0 .3.1.5.1.7v.8c0 .1-.1.2-.1.3-.1.3-.3.5-.5.6-.2.1-.6.3-1.2.3l.2 1.5 5.3-.6c.5-.1.9-.1 1.4-.2s1-.1 1.5-.1h.9zm-2.1-2.1h-.3c-.2 0-.4-.1-.6-.3-.1-.1-.2-.1-.2-.2-.1-.1-.1-.1-.1-.2s-.1-.2-.1-.4c0-.1-.1-.4-.1-.6l-.8-7.1c0-.3-.1-.6 0-.8 0-.2.1-.4.2-.5.1-.1.3-.2.6-.3.2-.1.6-.1 1-.2.7-.1 1.2-.1 1.7.1.5.1.8.4 1.2.7.3.4.6.9.8 1.5.2.6.3 1.5.5 2.4.1 1 .2 1.9.1 2.6 0 .7-.2 1.3-.4 1.7-.2.5-.5.8-1 1-.4.2-1 .4-1.6.5-.5 0-.7.1-.9.1z" style="fill:url(#SVGID_8_)"/><linearGradient id="SVGID_9_" x1="-2197.6228" x2="-2196.385" y1="-640.0872" y2="-640.0872" gradientTransform="scale(219.3003) rotate(45 -1871.103 2332.876)" gradientUnits="userSpaceOnUse"><stop offset="0" style="stop-color:#bda267"/><stop offset="7.390000e-02" style="stop-color:#bda267"/><stop offset="0.1379" style="stop-color:#cbb580"/><stop offset="0.2729" style="stop-color:#f0e4be"/><stop offset="0.2746" style="stop-color:#f0e5bf"/><stop offset="0.3925" style="stop-color:#cdb782"/><stop offset="0.4557" style="stop-color:#bda267"/><stop offset="0.6613" style="stop-color:#f0e5bf"/><stop offset="0.853" style="stop-color:#cdb782"/><stop offset="0.9557" style="stop-color:#bda267"/><stop offset="1" style="stop-color:#bda267"/></linearGradient><path d="m118.2 22.5-1.8-.3c-.1.5-.3 1-.4 1.3s-.3.5-.5.7-.5.2-.8.3c-.3 0-.7 0-1.2-.1l-.6-.1c-.4-.1-.8-.1-1-.2-.3-.1-.4-.1-.5-.3-.1-.1-.2-.3-.2-.5s0-.5.1-.8l.4-2.7 3 .5c.4.1.8.1.9.2.2 0 .4.1.6.1l.4-2.6h-.7c-.2 0-.5 0-.8-.1l-3.2-.5.4-2.5c0-.3.1-.5.2-.7.1-.2.2-.3.3-.4.1-.1.3-.1.5-.1s.5 0 .9.1l.3.1c.5.1.9.2 1.2.3.3.1.5.3.7.5.2.2.3.5.3.8s.1.7.1 1.2l1.8.3.7-4.9c-.3 0-.5.1-.6.1h-.6c-.2 0-.4 0-.7-.1-.3 0-.6-.1-.9-.1l-9.7-1.4-.2 1.5c.5.1.8.2 1 .3.2.1.4.3.5.5 0 .1.1.2.1.3 0 .1.1.2.1.4v.5c0 .2-.1.5-.1.8l-1 6.8c-.1.3-.1.5-.1.7 0 .2-.1.3-.1.5 0 .1-.1.2-.1.3 0 .1-.1.1-.2.2-.2.3-.4.4-.7.5-.3.1-.7.1-1.2 0l-.2 1.5 12.9 1.9.7-4.8z" style="fill:url(#SVGID_9_)"/><linearGradient id="SVGID_10_" x1="-2197.6228" x2="-2196.385" y1="-640.0952" y2="-640.0952" gradientTransform="scale(219.3003) rotate(45 -1871.064 2332.893)" gradientUnits="userSpaceOnUse"><stop offset="0" style="stop-color:#bda267"/><stop offset="7.390000e-02" style="stop-color:#bda267"/><stop offset="0.1379" style="stop-color:#cbb580"/><stop offset="0.2729" style="stop-color:#f0e4be"/><stop offset="0.2746" style="stop-color:#f0e5bf"/><stop offset="0.3925" style="stop-color:#cdb782"/><stop offset="0.4557" style="stop-color:#bda267"/><stop offset="0.6613" style="stop-color:#f0e5bf"/><stop offset="0.853" style="stop-color:#cdb782"/><stop offset="0.9557" style="stop-color:#bda267"/><stop offset="1" style="stop-color:#bda267"/></linearGradient><path d="m136.4 29.2-1.7-.7c-.3.5-.5.9-.7 1.2-.2.3-.5.5-.8.5-.1 0-.2.1-.3.1h-.4c-.1 0-.3-.1-.5-.1-.2-.1-.4-.2-.7-.3l-.3-.1c-.3-.1-.4-.2-.6-.3s-.3-.1-.4-.2c-.1-.1-.2-.1-.2-.2-.1 0-.1-.1-.1-.2s-.1-.1-.1-.2v-.2c0-.1.1-.2.1-.4.1-.1.1-.3.2-.6l2.7-6.5c.1-.3.2-.5.3-.7.1-.2.1-.3.2-.4.1-.1.1-.2.2-.3l.2-.2c.2-.2.5-.3.8-.3.3 0 .7.1 1.2.3l.5-1.4-7.5-3.1-.6 1.4c.4.2.7.4.9.5.2.2.3.4.4.6v.7c0 .1-.1.3-.2.5s-.2.5-.3.8l-2.6 6.4c-.1.3-.2.5-.3.7s-.2.3-.2.4c-.1.1-.1.2-.2.3-.1 0-.1.1-.2.2-.2.2-.5.3-.8.3-.3 0-.7-.1-1.2-.3l-.6 1.4 11.8 4.9 2-4.5z" style="fill:url(#SVGID_10_)"/><linearGradient id="SVGID_11_" x1="-2197.6228" x2="-2196.385" y1="-640.1005" y2="-640.1005" gradientTransform="scale(219.3003) rotate(45 -1871.037 2332.904)" gradientUnits="userSpaceOnUse"><stop offset="0" style="stop-color:#bda267"/><stop offset="7.390000e-02" style="stop-color:#bda267"/><stop offset="0.1379" style="stop-color:#cbb580"/><stop offset="0.2729" style="stop-color:#f0e4be"/><stop offset="0.2746" style="stop-color:#f0e5bf"/><stop offset="0.3925" style="stop-color:#cdb782"/><stop offset="0.4557" style="stop-color:#bda267"/><stop offset="0.6613" style="stop-color:#f0e5bf"/><stop offset="0.853" style="stop-color:#cdb782"/><stop offset="0.9557" style="stop-color:#bda267"/><stop offset="1" style="stop-color:#bda267"/></linearGradient><path d="M152.8 39.2c1.1-.2 2.2-1.1 3.3-2.5 1.1-1.5 1.7-2.8 1.6-3.9-.1-1.1-.7-2.1-1.9-3-.1-.1-.4-.3-.6-.4-.2-.2-.5-.3-.7-.5-.4-.3-.9-.6-1.3-.9-.4-.3-.9-.6-1.4-1l-3.9-3-.9 1.2c.4.3.6.6.8.8.1.2.2.4.2.7v.3c0 .1-.1.2-.1.3s-.2.3-.3.5-.3.4-.5.7L143 34c-.2.2-.3.4-.4.6-.1.1-.2.3-.3.4l-.2.2c-.1 0-.1.1-.2.1-.3.1-.5.2-.8.1-.3-.1-.6-.2-1.1-.5l-.9 1.2 6.6 4.9.9-1.2c-.4-.3-.7-.6-.9-.8-.1-.2-.2-.5-.2-.7V38c0-.1.1-.2.1-.3s.2-.3.3-.4c.1-.2.3-.4.5-.7l.6-.8c.5.8 1.6 1.8 2.4 2.4 1.1.9 2.3 1.3 3.4 1zm-5-4.8 2.7-3.6c.3-.3.4-.6.6-.7.1-.1.3-.2.5-.2.4 0 .8.2 1.3.6.6.5.9.9.8 1.4-.1.6-.5 1.5-1.3 2.6-.6.8-1.1 1.3-1.6 1.5-.4.2-.9.1-1.4-.3 0-.2-1-.8-1.6-1.3z" style="fill:url(#SVGID_11_)"/><linearGradient id="SVGID_12_" x1="-2197.6228" x2="-2196.385" y1="-640.1008" y2="-640.1008" gradientTransform="scale(219.3003) rotate(45 -1871.035 2332.904)" gradientUnits="userSpaceOnUse"><stop offset="0" style="stop-color:#bda267"/><stop offset="7.390000e-02" style="stop-color:#bda267"/><stop offset="0.1379" style="stop-color:#cbb580"/><stop offset="0.2729" style="stop-color:#f0e4be"/><stop offset="0.2746" style="stop-color:#f0e5bf"/><stop offset="0.3925" style="stop-color:#cdb782"/><stop offset="0.4557" style="stop-color:#bda267"/><stop offset="0.6613" style="stop-color:#f0e5bf"/><stop offset="0.853" style="stop-color:#cdb782"/><stop offset="0.9557" style="stop-color:#bda267"/><stop offset="1" style="stop-color:#bda267"/></linearGradient><path d="M164.8 59.3c-.1-.2-.1-.5 0-.7 0-.1.1-.2.1-.3 0-.1.1-.2.2-.3.1-.1.2-.2.4-.3.2-.1.4-.3.6-.5l5.5-4.2c.2-.2.4-.3.6-.4.2-.1.3-.2.4-.3.1-.1.2-.1.3-.1.1 0 .2 0 .3-.1.3-.1.6 0 .8.1.2.1.5.4.9.8l1.2-.9-3.7-4.8-4.5 3.4-2.7-3.5 4.5-3.4L166 39l-1.2.9c.3.4.4.7.5.9.1.2.1.5 0 .7 0 .1-.1.2-.1.3s-.1.2-.2.3c-.1.1-.2.2-.4.3-.2.1-.4.3-.6.5l-5.5 4.2c-.2.2-.4.3-.6.4-.1.1-.3.2-.4.3-.1.1-.2.1-.3.1-.1 0-.2 0-.3.1-.3.1-.6 0-.8-.1-.2-.1-.5-.4-.9-.8l-1.2.9 3.7 4.8 5.4-4.2 2.7 3.5-5.4 4.2 3.7 4.9 1.2-.9c-.2-.4-.4-.7-.5-1z" style="fill:url(#SVGID_12_)"/><linearGradient id="SVGID_13_" x1="-2197.6228" x2="-2196.385" y1="-640.0966" y2="-640.0966" gradientTransform="scale(219.3003) rotate(45 -1871.056 2332.896)" gradientUnits="userSpaceOnUse"><stop offset="0" style="stop-color:#bda267"/><stop offset="7.390000e-02" style="stop-color:#bda267"/><stop offset="0.1379" style="stop-color:#cbb580"/><stop offset="0.2729" style="stop-color:#f0e4be"/><stop offset="0.2746" style="stop-color:#f0e5bf"/><stop offset="0.3925" style="stop-color:#cdb782"/><stop offset="0.4557" style="stop-color:#bda267"/><stop offset="0.6613" style="stop-color:#f0e5bf"/><stop offset="0.853" style="stop-color:#cdb782"/><stop offset="0.9557" style="stop-color:#bda267"/><stop offset="1" style="stop-color:#bda267"/></linearGradient><path d="M179.6 66.8c.2-.1.3-.1.4-.2s.2-.1.3-.1h.3c.3 0 .6.1.8.3.2.2.4.5.7 1l1.4-.6-3.3-7.4-1.4.6c.2.5.3.8.3 1 0 .2 0 .5-.1.7-.1.1-.1.2-.2.3-.1.1-.1.2-.3.2-.1.1-.3.2-.5.3s-.4.2-.8.3l-6.3 2.8c-.3.1-.5.2-.7.3s-.3.1-.4.2c-.1.1-.2.1-.3.1h-.3c-.3 0-.6-.1-.8-.3-.2-.2-.4-.5-.7-1l-1.4.6 3.3 7.4 1.4-.6c-.2-.4-.3-.8-.3-1 0-.2 0-.5.1-.7.1-.1.1-.2.2-.3.1-.1.1-.1.3-.2.1-.1.3-.2.4-.3s.4-.2.8-.3l6.3-2.8c.4-.2.6-.3.8-.3z" style="fill:url(#SVGID_13_)"/><linearGradient id="SVGID_14_" x1="-2197.6228" x2="-2196.385" y1="-640.0881" y2="-640.0881" gradientTransform="scale(219.3003) rotate(45 -1871.1 2332.878)" gradientUnits="userSpaceOnUse"><stop offset="0" style="stop-color:#bda267"/><stop offset="7.390000e-02" style="stop-color:#bda267"/><stop offset="0.1379" style="stop-color:#cbb580"/><stop offset="0.2729" style="stop-color:#f0e4be"/><stop offset="0.2746" style="stop-color:#f0e5bf"/><stop offset="0.3925" style="stop-color:#cdb782"/><stop offset="0.4557" style="stop-color:#bda267"/><stop offset="0.6613" style="stop-color:#f0e5bf"/><stop offset="0.853" style="stop-color:#cdb782"/><stop offset="0.9557" style="stop-color:#bda267"/><stop offset="1" style="stop-color:#bda267"/></linearGradient><path d="M187 84.2c.1-.1.3-.1.4-.2.1-.1.3-.1.4-.2.1-.1.3-.1.4-.2l-.7-3.4h-.8c-.3 0-.8-.1-1.3-.2l-9.6-1.4c-.5-.1-.9-.2-1.2-.2s-.6-.2-.8-.3c-.2-.1-.4-.3-.5-.4-.1-.2-.3-.4-.4-.7l-1.5.3 1.2 6.1 1.5-.3c-.1-.6-.1-1 0-1.2.1-.2.3-.4.6-.4.2 0 .4-.1.6-.1s.5 0 .7.1l.4.1.8 3.8-.4.2c-.6.3-1.1.5-1.3.6-.3.1-.5 0-.7-.2-.2-.2-.3-.5-.5-1.1l-1.5.3 1.5 7.5 1.5-.3c0-.3 0-.6.1-.8s.2-.4.3-.7c.1-.2.4-.4.7-.6.3-.2.6-.5 1.1-.7l8.4-5c.3-.2.5-.3.6-.4zm-3.9-1.9c-.1 0-.2.1-.3.1l-.4.2c-.1.1-.3.2-.5.3l-.4.2c-.1.1-.1.1-.2.1s-.1.1-.2.1l-1.7.9-.6-2.7 2.6.4 1.9.3c0 .1-.1.1-.2.1z" style="fill:url(#SVGID_14_)"/><linearGradient id="SVGID_15_" x1="-2197.6228" x2="-2196.385" y1="-639.9724" y2="-639.9724" gradientTransform="scale(219.3003) rotate(45 -1871.687 2332.635)" gradientUnits="userSpaceOnUse"><stop offset="0" style="stop-color:#bda267"/><stop offset="7.390000e-02" style="stop-color:#bda267"/><stop offset="0.1379" style="stop-color:#cbb580"/><stop offset="0.2729" style="stop-color:#f0e4be"/><stop offset="0.2746" style="stop-color:#f0e5bf"/><stop offset="0.3925" style="stop-color:#cdb782"/><stop offset="0.4557" style="stop-color:#bda267"/><stop offset="0.6613" style="stop-color:#f0e5bf"/><stop offset="0.853" style="stop-color:#cdb782"/><stop offset="0.9557" style="stop-color:#bda267"/><stop offset="1" style="stop-color:#bda267"/></linearGradient><path d="m20.4 110.7 4.5-2-4.8-1-.6-4.9-2.4 4.3-4.9-1 3.4 3.7-2.5 4.3 4.5-2.1 3.4 3.7z" style="fill:url(#SVGID_15_)"/><linearGradient id="SVGID_16_" x1="-2197.6228" x2="-2196.385" y1="-639.9635" y2="-639.9635" gradientTransform="scale(219.3003) rotate(45 -1871.731 2332.616)" gradientUnits="userSpaceOnUse"><stop offset="0" style="stop-color:#bda267"/><stop offset="7.390000e-02" style="stop-color:#bda267"/><stop offset="0.1379" style="stop-color:#cbb580"/><stop offset="0.2729" style="stop-color:#f0e4be"/><stop offset="0.2746" style="stop-color:#f0e5bf"/><stop offset="0.3925" style="stop-color:#cdb782"/><stop offset="0.4557" style="stop-color:#bda267"/><stop offset="0.6613" style="stop-color:#f0e5bf"/><stop offset="0.853" style="stop-color:#cdb782"/><stop offset="0.9557" style="stop-color:#bda267"/><stop offset="1" style="stop-color:#bda267"/></linearGradient><path d="m22.9 131.5 4.2 2.7-1.8-4.6 3.9-3.1-5 .2-1.7-4.6-1.4 4.7-4.9.3 4.2 2.7-1.4 4.8z" style="fill:url(#SVGID_16_)"/><linearGradient id="SVGID_17_" x1="-2197.6228" x2="-2196.385" y1="-639.9586" y2="-639.9586" gradientTransform="scale(219.3003) rotate(45 -1871.756 2332.606)" gradientUnits="userSpaceOnUse"><stop offset="0" style="stop-color:#bda267"/><stop offset="7.390000e-02" style="stop-color:#bda267"/><stop offset="0.1379" style="stop-color:#cbb580"/><stop offset="0.2729" style="stop-color:#f0e4be"/><stop offset="0.2746" style="stop-color:#f0e5bf"/><stop offset="0.3925" style="stop-color:#cdb782"/><stop offset="0.4557" style="stop-color:#bda267"/><stop offset="0.6613" style="stop-color:#f0e5bf"/><stop offset="0.853" style="stop-color:#cdb782"/><stop offset="0.9557" style="stop-color:#bda267"/><stop offset="1" style="stop-color:#bda267"/></linearGradient><path d="m32.7 149.1 4.7 1.7-2.9-4.1 3.1-4-4.8 1.4-2.8-4-.1 4.9-4.8 1.4 4.7 1.7-.1 5z" style="fill:url(#SVGID_17_)"/><linearGradient id="SVGID_18_" x1="-2197.6228" x2="-2196.385" y1="-639.9577" y2="-639.9577" gradientTransform="scale(219.3003) rotate(45 -1871.76 2332.604)" gradientUnits="userSpaceOnUse"><stop offset="0" style="stop-color:#bda267"/><stop offset="7.390000e-02" style="stop-color:#bda267"/><stop offset="0.1379" style="stop-color:#cbb580"/><stop offset="0.2729" style="stop-color:#f0e4be"/><stop offset="0.2746" style="stop-color:#f0e5bf"/><stop offset="0.3925" style="stop-color:#cdb782"/><stop offset="0.4557" style="stop-color:#bda267"/><stop offset="0.6613" style="stop-color:#f0e5bf"/><stop offset="0.853" style="stop-color:#cdb782"/><stop offset="0.9557" style="stop-color:#bda267"/><stop offset="1" style="stop-color:#bda267"/></linearGradient><path d="m51.4 164.3-3.8-3.3 2-4.5-4.3 2.5-3.7-3.3 1.1 4.9-4.3 2.5 5 .5 1.1 4.8 1.9-4.5z" style="fill:url(#SVGID_18_)"/><linearGradient id="SVGID_19_" x1="-2197.6228" x2="-2196.385" y1="-639.9604" y2="-639.9604" gradientTransform="scale(219.3003) rotate(45 -1871.748 2332.61)" gradientUnits="userSpaceOnUse"><stop offset="0" style="stop-color:#bda267"/><stop offset="7.390000e-02" style="stop-color:#bda267"/><stop offset="0.1379" style="stop-color:#cbb580"/><stop offset="0.2729" style="stop-color:#f0e4be"/><stop offset="0.2746" style="stop-color:#f0e5bf"/><stop offset="0.3925" style="stop-color:#cdb782"/><stop offset="0.4557" style="stop-color:#bda267"/><stop offset="0.6613" style="stop-color:#f0e5bf"/><stop offset="0.853" style="stop-color:#cdb782"/><stop offset="0.9557" style="stop-color:#bda267"/><stop offset="1" style="stop-color:#bda267"/></linearGradient><path d="m63.3 174.9 4.9-.8-4.4-2.3.8-4.9-3.5 3.5-4.4-2.3 2.2 4.5-3.5 3.5 4.9-.8 2.2 4.5z" style="fill:url(#SVGID_19_)"/><linearGradient id="SVGID_20_" x1="-2197.6228" x2="-2196.385" y1="-639.967" y2="-639.967" gradientTransform="scale(219.3003) rotate(45 -1871.714 2332.623)" gradientUnits="userSpaceOnUse"><stop offset="0" style="stop-color:#bda267"/><stop offset="7.390000e-02" style="stop-color:#bda267"/><stop offset="0.1379" style="stop-color:#cbb580"/><stop offset="0.2729" style="stop-color:#f0e4be"/><stop offset="0.2746" style="stop-color:#f0e5bf"/><stop offset="0.3925" style="stop-color:#cdb782"/><stop offset="0.4557" style="stop-color:#bda267"/><stop offset="0.6613" style="stop-color:#f0e5bf"/><stop offset="0.853" style="stop-color:#cdb782"/><stop offset="0.9557" style="stop-color:#bda267"/><stop offset="1" style="stop-color:#bda267"/></linearGradient><path d="m82.3 181.5 4.6-1.9-4.8-1.2-.4-4.9-2.6 4.2-4.8-1.1 3.2 3.7-2.6 4.3 4.6-1.9 3.2 3.7z" style="fill:url(#SVGID_20_)"/><linearGradient id="SVGID_21_" x1="-2197.6228" x2="-2196.385" y1="-639.978" y2="-639.978" gradientTransform="scale(219.3003) rotate(45 -1871.658 2332.646)" gradientUnits="userSpaceOnUse"><stop offset="0" style="stop-color:#bda267"/><stop offset="7.390000e-02" style="stop-color:#bda267"/><stop offset="0.1379" style="stop-color:#cbb580"/><stop offset="0.2729" style="stop-color:#f0e4be"/><stop offset="0.2746" style="stop-color:#f0e5bf"/><stop offset="0.3925" style="stop-color:#cdb782"/><stop offset="0.4557" style="stop-color:#bda267"/><stop offset="0.6613" style="stop-color:#f0e5bf"/><stop offset="0.853" style="stop-color:#cdb782"/><stop offset="0.9557" style="stop-color:#bda267"/><stop offset="1" style="stop-color:#bda267"/></linearGradient><path d="m99.9 185.2 4.1 2.9-1.6-4.7 4-3h-5l-1.5-4.6-1.5 4.7h-5l4 2.9-1.5 4.7z" style="fill:url(#SVGID_21_)"/><linearGradient id="SVGID_22_" x1="-2197.6228" x2="-2196.385" y1="-639.9922" y2="-639.9922" gradientTransform="scale(219.3003) rotate(45 -1871.586 2332.676)" gradientUnits="userSpaceOnUse"><stop offset="0" style="stop-color:#bda267"/><stop offset="7.390000e-02" style="stop-color:#bda267"/><stop offset="0.1379" style="stop-color:#cbb580"/><stop offset="0.2729" style="stop-color:#f0e4be"/><stop offset="0.2746" style="stop-color:#f0e5bf"/><stop offset="0.3925" style="stop-color:#cdb782"/><stop offset="0.4557" style="stop-color:#bda267"/><stop offset="0.6613" style="stop-color:#f0e5bf"/><stop offset="0.853" style="stop-color:#cdb782"/><stop offset="0.9557" style="stop-color:#bda267"/><stop offset="1" style="stop-color:#bda267"/></linearGradient><path d="m120.4 182.7 4.6 1.9-2.7-4.2 3.2-3.9-4.8 1.3-2.7-4.2-.3 4.9-4.8 1.2 4.6 1.9-.3 4.9z" style="fill:url(#SVGID_22_)"/><linearGradient id="SVGID_23_" x1="-2197.6228" x2="-2196.385" y1="-640.0084" y2="-640.0084" gradientTransform="scale(219.3003) rotate(45 -1871.503 2332.71)" gradientUnits="userSpaceOnUse"><stop offset="0" style="stop-color:#bda267"/><stop offset="7.390000e-02" style="stop-color:#bda267"/><stop offset="0.1379" style="stop-color:#cbb580"/><stop offset="0.2729" style="stop-color:#f0e4be"/><stop offset="0.2746" style="stop-color:#f0e5bf"/><stop offset="0.3925" style="stop-color:#cdb782"/><stop offset="0.4557" style="stop-color:#bda267"/><stop offset="0.6613" style="stop-color:#f0e5bf"/><stop offset="0.853" style="stop-color:#cdb782"/><stop offset="0.9557" style="stop-color:#bda267"/><stop offset="1" style="stop-color:#bda267"/></linearGradient><path d="m144.5 176.1-3.6-3.5 2.2-4.4-4.4 2.3-3.5-3.4.8 4.8-4.4 2.4 5 .7.8 4.9 2.2-4.5z" style="fill:url(#SVGID_23_)"/><linearGradient id="SVGID_24_" x1="-2197.6228" x2="-2196.385" y1="-640.0252" y2="-640.0252" gradientTransform="scale(219.3003) rotate(45 -1871.418 2332.746)" gradientUnits="userSpaceOnUse"><stop offset="0" style="stop-color:#bda267"/><stop offset="7.390000e-02" style="stop-color:#bda267"/><stop offset="0.1379" style="stop-color:#cbb580"/><stop offset="0.2729" style="stop-color:#f0e4be"/><stop offset="0.2746" style="stop-color:#f0e5bf"/><stop offset="0.3925" style="stop-color:#cdb782"/><stop offset="0.4557" style="stop-color:#bda267"/><stop offset="0.6613" style="stop-color:#f0e5bf"/><stop offset="0.853" style="stop-color:#cdb782"/><stop offset="0.9557" style="stop-color:#bda267"/><stop offset="1" style="stop-color:#bda267"/></linearGradient><path d="m156.5 163.7 5-.6-4.3-2.4 1-4.9-3.7 3.3-4.3-2.4 2 4.5-3.7 3.3 5-.5 2 4.5z" style="fill:url(#SVGID_24_)"/><linearGradient id="SVGID_25_" x1="-2197.6228" x2="-2196.385" y1="-640.0422" y2="-640.0422" gradientTransform="scale(219.3003) rotate(45 -1871.332 2332.781)" gradientUnits="userSpaceOnUse"><stop offset="0" style="stop-color:#bda267"/><stop offset="7.390000e-02" style="stop-color:#bda267"/><stop offset="0.1379" style="stop-color:#cbb580"/><stop offset="0.2729" style="stop-color:#f0e4be"/><stop offset="0.2746" style="stop-color:#f0e5bf"/><stop offset="0.3925" style="stop-color:#cdb782"/><stop offset="0.4557" style="stop-color:#bda267"/><stop offset="0.6613" style="stop-color:#f0e5bf"/><stop offset="0.853" style="stop-color:#cdb782"/><stop offset="0.9557" style="stop-color:#bda267"/><stop offset="1" style="stop-color:#bda267"/></linearGradient><path d="m170.1 148.2 4.7-1.7-4.8-1.4-.1-4.9-2.8 4.1-4.8-1.4 3.1 3.9-2.8 4.2 4.6-1.7 3.1 3.9z" style="fill:url(#SVGID_25_)"/><linearGradient id="SVGID_26_" x1="-2197.6228" x2="-2196.385" y1="-640.0589" y2="-640.0589" gradientTransform="scale(219.3003) rotate(45 -1871.247 2332.817)" gradientUnits="userSpaceOnUse"><stop offset="0" style="stop-color:#bda267"/><stop offset="7.390000e-02" style="stop-color:#bda267"/><stop offset="0.1379" style="stop-color:#cbb580"/><stop offset="0.2729" style="stop-color:#f0e4be"/><stop offset="0.2746" style="stop-color:#f0e5bf"/><stop offset="0.3925" style="stop-color:#cdb782"/><stop offset="0.4557" style="stop-color:#bda267"/><stop offset="0.6613" style="stop-color:#f0e5bf"/><stop offset="0.853" style="stop-color:#cdb782"/><stop offset="0.9557" style="stop-color:#bda267"/><stop offset="1" style="stop-color:#bda267"/></linearGradient><path d="m179.6 129.9 4.1-2.7-4.9-.2-1.4-4.8-1.7 4.7-4.9-.2 3.8 3.1-1.7 4.6 4.2-2.8 3.9 3.1z" style="fill:url(#SVGID_26_)"/><linearGradient id="SVGID_27_" x1="-2197.6228" x2="-2196.385" y1="-640.0743" y2="-640.0743" gradientTransform="scale(219.3003) rotate(45 -1871.17 2332.849)" gradientUnits="userSpaceOnUse"><stop offset="0" style="stop-color:#bda267"/><stop offset="7.390000e-02" style="stop-color:#bda267"/><stop offset="0.1379" style="stop-color:#cbb580"/><stop offset="0.2729" style="stop-color:#f0e4be"/><stop offset="0.2746" style="stop-color:#f0e5bf"/><stop offset="0.3925" style="stop-color:#cdb782"/><stop offset="0.4557" style="stop-color:#bda267"/><stop offset="0.6613" style="stop-color:#f0e5bf"/><stop offset="0.853" style="stop-color:#cdb782"/><stop offset="0.9557" style="stop-color:#bda267"/><stop offset="1" style="stop-color:#bda267"/></linearGradient><path d="m182.4 112.2 4.5 2-2.5-4.3 3.4-3.7-4.9 1.1-2.5-4.4-.5 5-4.9 1 4.6 2-.6 5z" style="fill:url(#SVGID_27_)"/><linearGradient id="SVGID_28_" x1="-2197.6228" x2="-2196.385" y1="-640.0287" y2="-640.0287" gradientTransform="scale(219.3003) rotate(45 -1871.4 2332.753)" gradientUnits="userSpaceOnUse"><stop offset="0" style="stop-color:#bda267"/><stop offset="7.390000e-02" style="stop-color:#bda267"/><stop offset="0.1379" style="stop-color:#cbb580"/><stop offset="0.2729" style="stop-color:#f0e4be"/><stop offset="0.2746" style="stop-color:#f0e5bf"/><stop offset="0.3925" style="stop-color:#cdb782"/><stop offset="0.4557" style="stop-color:#bda267"/><stop offset="0.6613" style="stop-color:#f0e5bf"/><stop offset="0.853" style="stop-color:#cdb782"/><stop offset="0.9557" style="stop-color:#bda267"/><stop offset="1" style="stop-color:#bda267"/></linearGradient><path d="M75.1 79.1V62.7l-3 .4v15.7l-2.8.4V63.5l-3 .4v16.4c0 .9.6 1.5 1.5 1.5h.3l5.2-.8c1.1-.1 1.8-.9 1.8-1.9z" style="fill:url(#SVGID_28_)"/><linearGradient id="SVGID_29_" x1="-2197.6228" x2="-2196.385" y1="-640.0394" y2="-640.0394" gradientTransform="scale(219.3003) rotate(45 -1871.347 2332.775)" gradientUnits="userSpaceOnUse"><stop offset="0" style="stop-color:#bda267"/><stop offset="7.390000e-02" style="stop-color:#bda267"/><stop offset="0.1379" style="stop-color:#cbb580"/><stop offset="0.2729" style="stop-color:#f0e4be"/><stop offset="0.2746" style="stop-color:#f0e5bf"/><stop offset="0.3925" style="stop-color:#cdb782"/><stop offset="0.4557" style="stop-color:#bda267"/><stop offset="0.6613" style="stop-color:#f0e5bf"/><stop offset="0.853" style="stop-color:#cdb782"/><stop offset="0.9557" style="stop-color:#bda267"/><stop offset="1" style="stop-color:#bda267"/></linearGradient><path d="M91 79.5V61.3l-2.8.2v8.8L84 61.8l-1.7.1V80l2.9-.1v-8.6l4.1 8.3z" style="fill:url(#SVGID_29_)"/><linearGradient id="SVGID_30_" x1="-2197.6228" x2="-2196.385" y1="-640.0479" y2="-640.0479" gradientTransform="scale(219.3003) rotate(45 -1871.304 2332.793)" gradientUnits="userSpaceOnUse"><stop offset="0" style="stop-color:#bda267"/><stop offset="7.390000e-02" style="stop-color:#bda267"/><stop offset="0.1379" style="stop-color:#cbb580"/><stop offset="0.2729" style="stop-color:#f0e4be"/><stop offset="0.2746" style="stop-color:#f0e5bf"/><stop offset="0.3925" style="stop-color:#cdb782"/><stop offset="0.4557" style="stop-color:#bda267"/><stop offset="0.6613" style="stop-color:#f0e5bf"/><stop offset="0.853" style="stop-color:#cdb782"/><stop offset="0.9557" style="stop-color:#bda267"/><stop offset="1" style="stop-color:#bda267"/></linearGradient><path d="M101.4 61.2h-3v18.1h3z" style="fill:url(#SVGID_30_)"/><linearGradient id="SVGID_31_" x1="-2197.6228" x2="-2196.385" y1="-640.056" y2="-640.056" gradientTransform="scale(219.3003) rotate(45 -1871.262 2332.81)" gradientUnits="userSpaceOnUse"><stop offset="0" style="stop-color:#bda267"/><stop offset="7.390000e-02" style="stop-color:#bda267"/><stop offset="0.1379" style="stop-color:#cbb580"/><stop offset="0.2729" style="stop-color:#f0e4be"/><stop offset="0.2746" style="stop-color:#f0e5bf"/><stop offset="0.3925" style="stop-color:#cdb782"/><stop offset="0.4557" style="stop-color:#bda267"/><stop offset="0.6613" style="stop-color:#f0e5bf"/><stop offset="0.853" style="stop-color:#cdb782"/><stop offset="0.9557" style="stop-color:#bda267"/><stop offset="1" style="stop-color:#bda267"/></linearGradient><path d="M116.3 79.8c.8 0 1.7-.6 1.7-1.6V63.5c0-1.1-1-1.7-1.8-1.8l-5.6-.3c-.8 0-1.7.6-1.7 1.6v14.8c0 1.1 1 1.7 1.8 1.8l5.6.2zm-1.2-2.5-3.1-.2V63.8l3.1.2v13.3z" style="fill:url(#SVGID_31_)"/><linearGradient id="SVGID_32_" x1="-2197.6228" x2="-2196.385" y1="-640.0651" y2="-640.0651" gradientTransform="scale(219.3003) rotate(45 -1871.216 2332.83)" gradientUnits="userSpaceOnUse"><stop offset="0" style="stop-color:#bda267"/><stop offset="7.390000e-02" style="stop-color:#bda267"/><stop offset="0.1379" style="stop-color:#cbb580"/><stop offset="0.2729" style="stop-color:#f0e4be"/><stop offset="0.2746" style="stop-color:#f0e5bf"/><stop offset="0.3925" style="stop-color:#cdb782"/><stop offset="0.4557" style="stop-color:#bda267"/><stop offset="0.6613" style="stop-color:#f0e5bf"/><stop offset="0.853" style="stop-color:#cdb782"/><stop offset="0.9557" style="stop-color:#bda267"/><stop offset="1" style="stop-color:#bda267"/></linearGradient><path d="M131.1 63.3v8.8l-4.1-9.4-1.7-.2v18.2l2.8.3v-8.4l4.1 9 1.7.2V63.7z" style="fill:url(#SVGID_32_)"/><linearGradient id="SVGID_33_" x1="-2197.6228" x2="-2196.385" y1="-640.0131" y2="-640.0131" gradientTransform="scale(219.3003) rotate(45 -1871.48 2332.72)" gradientUnits="userSpaceOnUse"><stop offset="0" style="stop-color:#bda267"/><stop offset="7.390000e-02" style="stop-color:#bda267"/><stop offset="0.1379" style="stop-color:#cbb580"/><stop offset="0.2729" style="stop-color:#f0e4be"/><stop offset="0.2746" style="stop-color:#f0e5bf"/><stop offset="0.3925" style="stop-color:#cdb782"/><stop offset="0.4557" style="stop-color:#bda267"/><stop offset="0.6613" style="stop-color:#f0e5bf"/><stop offset="0.853" style="stop-color:#cdb782"/><stop offset="0.9557" style="stop-color:#bda267"/><stop offset="1" style="stop-color:#bda267"/></linearGradient><path d="M72.6 105.7c2.5-.3 7-2.3 9.7-3.9-.3-.1-.5-.3-.8-.5-3.9 1.5-8.1 1.8-11.2 1.4.3.1.7.3 1.1.4 1.2.3 2.6.6 4.4.3l.7-.1-.6.5c-.5.5-1.9 1.4-3.3 1.9z" style="fill:url(#SVGID_33_)"/><linearGradient id="SVGID_34_" x1="-2197.6228" x2="-2196.385" y1="-640.0087" y2="-640.0087" gradientTransform="scale(219.3003) rotate(45 -1871.502 2332.71)" gradientUnits="userSpaceOnUse"><stop offset="0" style="stop-color:#bda267"/><stop offset="7.390000e-02" style="stop-color:#bda267"/><stop offset="0.1379" style="stop-color:#cbb580"/><stop offset="0.2729" style="stop-color:#f0e4be"/><stop offset="0.2746" style="stop-color:#f0e5bf"/><stop offset="0.3925" style="stop-color:#cdb782"/><stop offset="0.4557" style="stop-color:#bda267"/><stop offset="0.6613" style="stop-color:#f0e5bf"/><stop offset="0.853" style="stop-color:#cdb782"/><stop offset="0.9557" style="stop-color:#bda267"/><stop offset="1" style="stop-color:#bda267"/></linearGradient><path d="M118 132.2c0-1.1-.3-2.3-1-3.4-2.6 4.4-10 7.5-18.2 7.5s-15.6-3.1-18.1-7.5c-.7 1.1-1 2.3-1 3.4 0 1.9.8 3.8 2.5 5.4 3.4 3.4 9.8 5.5 16.6 5.5 10.6 0 19.2-4.9 19.2-10.9z" style="fill:url(#SVGID_34_)"/><linearGradient id="SVGID_35_" x1="-2197.6228" x2="-2196.385" y1="-640.0275" y2="-640.0275" gradientTransform="scale(219.3003) rotate(45 -1871.407 2332.75)" gradientUnits="userSpaceOnUse"><stop offset="0" style="stop-color:#bda267"/><stop offset="7.390000e-02" style="stop-color:#bda267"/><stop offset="0.1379" style="stop-color:#cbb580"/><stop offset="0.2729" style="stop-color:#f0e4be"/><stop offset="0.2746" style="stop-color:#f0e5bf"/><stop offset="0.3925" style="stop-color:#cdb782"/><stop offset="0.4557" style="stop-color:#bda267"/><stop offset="0.6613" style="stop-color:#f0e5bf"/><stop offset="0.853" style="stop-color:#cdb782"/><stop offset="0.9557" style="stop-color:#bda267"/><stop offset="1" style="stop-color:#bda267"/></linearGradient><path d="M119.2 125.1c.6 1 1.2 2.4 1.6 4 .3 0 .8.1 1.5.1 1.8 0 4.5-.4 7.2-1.9-2 0-6-.3-10.3-2.2z" style="fill:url(#SVGID_35_)"/><linearGradient id="SVGID_36_" x1="-2197.6228" x2="-2196.385" y1="-640.0201" y2="-640.0201" gradientTransform="scale(219.3003) rotate(45 -1871.444 2332.735)" gradientUnits="userSpaceOnUse"><stop offset="0" style="stop-color:#bda267"/><stop offset="7.390000e-02" style="stop-color:#bda267"/><stop offset="0.1379" style="stop-color:#cbb580"/><stop offset="0.2729" style="stop-color:#f0e4be"/><stop offset="0.2746" style="stop-color:#f0e5bf"/><stop offset="0.3925" style="stop-color:#cdb782"/><stop offset="0.4557" style="stop-color:#bda267"/><stop offset="0.6613" style="stop-color:#f0e5bf"/><stop offset="0.853" style="stop-color:#cdb782"/><stop offset="0.9557" style="stop-color:#bda267"/><stop offset="1" style="stop-color:#bda267"/></linearGradient><path d="M116.3 123.2c0-3.4-3.3-6-8.4-7.4-1.2.5-2.6.9-4.1 1.4-1.4.4-3 1-4.7 1.6-3.8 1.4-4.6 2.6-4.7 3.2-.1.4.1.7.2.8 1.5-.8 3.6-1.5 5.9-1.7.7-.1 1.3-.1 2-.1 3.6 0 5.9 1 5.9 2.6 0 .4-.2.9-.6 1.3-1.2 1.2-4.3 2-7.8 2-3 0-5.8-.9-7.3-2.4-.8-.8-1.2-1.7-1.2-2.6 0-3.3 4.8-4.9 7.9-6 .4-.1.8-.3 1.1-.4 2.8-1 6.1-2.2 6.1-2.2 5.4-1.7 8.2-6.4 7.5-10.8-.8-5.3-6-9-12.6-9-.6 0-1.3 0-1.9.1 0 0-.6.1-1.3.1-.8 0-1.3-.1-1.8-.3-1-.5-1.9-.6-1.9-.6-7.7 1.7-12.2 5-13 5.6.3.7 1.5 3.1 5.3 2.6 1.4-.2 2.6-.2 3.6-.3 2.3-.1 3.5-.1 5.3-2.1 1.2-1.4 2.8-1.5 3.2-1.5h.1c5 0 9.4 2.8 9.5 6.2 0 1.5-.7 3-2.1 4.1-1.1.9-2.8 1.5-4.2 2.1 0 0-3.5 1.2-6.3 2.3-.2 0-13.6 4.3-13.6 12.4 0 1.6.7 3.2 2.1 4.5 3 3 8.7 4.8 14.9 4.6 9.3-.4 16.9-4.9 16.9-10.1zM91.4 96.7c-.3.2-1.1.2-2 .2-1.2 0-2.4-.1-2.4-.1s2.8-1.4 5.4-2.1c0 0-.4 1.6-1 2z" style="fill:url(#SVGID_36_)"/></svg>