<svg xmlns="http://www.w3.org/2000/svg" width="309" height="322.272" viewBox="0 0 41.512 43.295"><g style="fill:#cb9700"><path d="M35.766 37.1h-.331v-.239h.94v.24h-.332v.801h-.277ZM36.923 37.902l-.196-.62v.62h-.243v-1.04h.347l.21.665.21-.666h.346v1.041h-.264v-.62l-.196.62Z"/></g><path d="M41.512 20.759a20.7 20.7 0 0 0-6.588-15.167 11.499 11.499 0 0 0-.867-2.391l-.511-.96-1.032.345c-.369.123-.742.238-1.116.35a20.763 20.763 0 0 0-21.317.017 17.705 17.705 0 0 1-1.064-.348l-1.116-.427-.509 1.078a13.154 13.154 0 0 0-.852 2.378 20.76 20.76 0 0 0 10.139 35.479c-.049.47-.079.801-.084.956a6.268 6.268 0 0 0 .794.526 7.235 7.235 0 0 0 3.328.7h.108a6.087 6.087 0 0 0 4.121-1.227 13.592 13.592 0 0 0-.102-.958 20.762 20.762 0 0 0 16.668-20.351" style="fill:#0d421d"/><path d="M28.387 3.692h.004c.32-.067.638-.138.956-.212l.101-.023.19-.044-.005-.003c.938-.228 1.867-.49 2.781-.792l-3.663.37a19.519 19.519 0 0 0-16.001.003l-3.699-.373a26.028 26.028 0 0 0 2.8.805l.003.001c.019.005.038.01.057.013l.3.07.097.021.297.065.083.018.393.081h.001l.037.008a18.734 18.734 0 0 1 15.259-.006l.009-.002m-10.84 12.841L4.346 29.703a18.618 18.618 0 0 1-1.502-3.607l12.87-12.763q-.714.122-1.348.265L2.614 25.251a18.713 18.713 0 0 1 2.87-15.255c.208-.292.422-.58.645-.86v-.02c-.004-.413.01-.84.046-1.279a13.172 13.172 0 0 1 1.196-4.534A13.833 13.833 0 0 0 5.344 8.84a19.487 19.487 0 0 0 10.582 30.798 16.97 16.97 0 0 0 .699 2.02c.048-.526.15-1.434.288-2.609a19.43 19.43 0 0 1-.543-.123c-.044-.01-.088-.02-.131-.032a18.3 18.3 0 0 1-.524-.137 18.683 18.683 0 0 1-7.863-4.484l9.736-9.82.016-1.098-10.292 10.38a18.71 18.71 0 0 1-2.262-2.85l12.575-12.547a43.04 43.04 0 0 0-.078-1.804m18.609-7.708a13.882 13.882 0 0 0-2.137-5.696l.038.071a13.127 13.127 0 0 1 1.25 4.62c.018.194.033.395.043.6l.002.034c.01.213.016.431.016.653v.01c.225.282.441.572.65.866a18.705 18.705 0 0 1 2.872 15.298L26.976 13.555q-.634-.138-1.345-.254l13.028 12.822a18.548 18.548 0 0 1-1.461 3.52L24.068 16.51c-.036.55-.065 1.156-.08 1.805l12.51 12.511a18.74 18.74 0 0 1-2.179 2.781l-10.311-10.31.016 1.093 9.76 9.76a18.648 18.648 0 0 1-7.993 4.605c-.174.05-.348.094-.523.138l-.131.031c-.178.043-.358.085-.539.122l.003.037c.02.243.041.481.062.71l.008.053c.106.75.186 1.346.232 1.744a17.241 17.241 0 0 0 .671-1.952A19.483 19.483 0 0 0 36.156 8.825" style="fill:#cb9700"/><path d="M23.488 41.211c-.691-5.736-.827-18.38-.827-21.958a42.128 42.128 0 0 1 .484-6.303 29.566 29.566 0 0 0-4.741-.004 42.599 42.599 0 0 1 .483 6.307c0 3.578-.136 16.222-.827 21.958v.003s.657.683 2.708.683h.013c2.05 0 2.708-.683 2.708-.683l-.001-.002h.001Zm9.421-37.437a39.218 39.218 0 0 1-24.406 0 13.215 13.215 0 0 0-.006 10.636s4.072-2.792 12.246-2.792c8.175 0 12.166 2.79 12.166 2.79a12.756 12.756 0 0 0 0-10.634" style="fill:#fff"/></svg>