<svg xmlns="http://www.w3.org/2000/svg" width="67.801544mm" height="92.311111mm" viewBox="0 0 240.24169 327.08661"><g transform="matrix(.47481 0 0 .47481 1.417 3.544)"><path d="M0-.001v257.146c0 288.602 249.987 416.802 249.987 416.802S500 545.746 500 257.144V-.001H0" style="fill:#f1cb00"/><path d="M9.454 9.457v247.688c0 258.52 207.791 386.964 240.532 405.645 32.769-18.681 240.559-147.125 240.559-405.645V9.457H9.454m462.171 247.687c0 233.48-171.948 353.313-221.638 383.322-49.684-30.008-221.626-149.841-221.626-383.322V28.37h443.264v228.773z" style="fill:#b30838"/><path d="M38.815 37.818v219.326c0 221.448 158.377 338.473 212.171 372.16 53.806-33.687 212.191-150.711 212.191-372.16V37.818H38.815" style="fill:#013a81"/><path d="M305.638 468.864a55.46 55.46 0 0 0-10.106-31.156l-22.48.279-6.681-21.473a55.648 55.648 0 0 0-16.383-2.453c-5.698 0-11.198.859-16.359 2.453l-6.7 21.473-22.475-.28a55.522 55.522 0 0 0-10.104 31.157l18.34 12.979-7.223 21.287c6.639 8.83 15.836 15.619 26.496 19.268l18.026-13.435 18.04 13.435c10.647-3.65 19.836-10.438 26.488-19.268l-7.201-21.287 18.322-12.98" style="fill:#fff"/><path d="M352.932 169.436c25.715 24.153 43.58 56.608 49.357 93.106-4.666-37.808-21.917-71.67-47.377-97.317l-1.98 4.21M187.35 441.526c-62.506-22.597-107.219-82.642-107.219-153.183 0-52.167 24.463-98.553 62.455-128.352l-5.147-11.06c-40.888 30.523-67.39 79.385-67.39 134.473 0 74.91 49.025 138.299 116.598 159.68.214-.522.46-1.045.703-1.558M299.303 287.026c-11.122-9.983-23.383-15.823-36.791-17.546 0 0 60.009-4.584 60.009-39.447 0-16.765-20.982-39.444-86.301-39.444h-76.756s10.213 5.705 10.213 10.573v74.347c9.5 4.66 22.46 8.946 35.359 14.173v-14.418H226.1c11.185-.026 17.578 2.524 23.396 7.412l61.227 57.002c8.573 7.33 25.566 16.262 40.364 16.262 18.99 0 26.584-6.35 26.584-6.35s-12.262-.764-21.565-8.742l-56.803-53.822m-68.754-21.024h-25.511v-65.77h25.511c32.105 0 53.521 11 53.521 32.885 0 17.762-22.242 32.885-53.521 32.885z" style="fill:#f1cb00"/><path d="M169.678 314.85v24.735c0 5.682-9.148 10.509-9.148 10.509h54.171s-9.664-4.828-9.664-10.51v-8.383c-8.354-5.935-21.661-10.81-35.359-16.35M132.095 111.175c4.034 9.57 5.77 12.914 5.77 12.914l-3.268 11.935 12.661 5.569 7.854 16.92s36.926-16.67 94.876-16.67c57.942 0 94.89 16.67 94.89 16.67l7.853-16.92 12.654-5.57-3.255-11.934s1.71-3.344 5.752-12.914c4.04-9.574 23.661-19.896 23.661-19.896-16.569-17.043-30.289 17.042-47.805.488-6.022 9.013 6.625 19.876 6.625 19.876s-3.778 9.46-14.81 11.313c-13.306 2.245-27.196 1.41-29.873-23.085 0 0-9.027 24.759-29.86 19.347-13.57-3.533-18.996-14.358-20.909-19.828 13.503-1.643 23.791-9.888 23.791-19.802h-19.666c-.761-10.134-9.047-18.462-9.047-18.462s-8.288 8.328-9.047 18.462h-19.655c0 9.914 10.281 18.159 23.791 19.802-1.912 5.47-7.338 16.295-20.915 19.828-20.848 5.412-29.865-19.347-29.865-19.347-2.672 24.495-16.562 25.33-29.868 23.085-11.014-1.853-14.812-11.313-14.812-11.313s12.656-10.863 6.621-19.876c-17.497 16.554-31.238-17.532-47.813-.488-.001 0 19.641 10.322 23.669 19.896" style="fill:#f1cb00"/><path d="M344.048 180.092c.449-.95.693-1.912.693-2.896 0-13.285-42.441-24.047-94.754-24.047-52.308 0-94.74 10.762-94.74 24.047 0 .984.229 1.947.67 2.896 20.177-10.674 54.75-17.726 94.07-17.726 39.319 0 73.907 7.052 94.061 17.726M205.146 455.148l18.106-14.212-16.358-.22a51.71 51.71 0 0 0-8.801 27.137l13.347 9.446-6.294-22.151M264.255 419.77a52.144 52.144 0 0 0-28.509 0l-4.885 15.624 19.125-12.822 19.124 12.822-4.855-15.624M276.732 440.936l18.108 14.212-6.301 22.15 13.353-9.445a51.778 51.778 0 0 0-8.788-27.136l-16.372.219M214.355 486.244l-5.248 15.497a51.96 51.96 0 0 0 23.058 16.784l13.128-9.794-23.029-.853-7.909-21.634M277.695 507.879l-23.003.853 13.129 9.794a52.066 52.066 0 0 0 23.071-16.784l-5.262-15.497-7.935 21.634" style="fill:#f1cb00"/><path d="M420.899 286.903c0 72.877-42.916 135.668-104.724 164.36.943 3.439 1.654 6.965 2.062 10.593 65.645-27.97 111.694-93.291 111.694-169.413 0-57.325-26.124-108.52-67.064-142.253l-2.745 1.2c37.292 33.156 60.777 81.57 60.777 135.513M181.519 464.366c.162-2.074.407-4.122.745-6.146-42.603-14.621-78.03-44.812-99.527-83.833 20.406 41.125 55.711 73.474 98.782 89.979M255.656 239.79v16.372c14.337-5.106 22.583-14.303 22.583-23.044 0-1.18-.115-2.3-.242-3.371H247.18c0-.001 8.476 2.143 8.476 10.044M255.656 296.378v75.377c0 7.895-8.476 10.059-8.476 10.059h100.138c40.147 0 26.354-23.553 26.354-23.553s-7.839 13.704-31.604 13.704h-56.586V324.15l-29.826-27.772M225.436 260.935s10.335-5.12 10.335-14.505c0-9.102-11.366-14.044-24.901-16.508v11.407c9.406 4.295 13.969 11.285 14.566 19.606M121.752 358.22c0 13.435 25.594 25.572 61.624 25.572 45.214 0 64.06-23.444 64.06-45.6 0-47.48-98.367-46.51-98.367-77.757 0-8.146 6.189-14.812 14.763-18.97v-11.216c-20.224 4.72-39.565 16.452-39.565 37.122 0 44 95.316 42.55 95.316 77.176 0 17.824-12.442 29.974-36.207 29.974-26.95 0-49.798-14.023-44.144-35 .001 0-17.48 4.077-17.48 18.699M194.823 474.946s-1.754 11.542 6.635 22.01l2.074-6.386s-7.527-6.825-8.709-15.624M237.914 523.806s10.433 5.23 22.985.49l-5.453-3.946s-8.798 5.05-17.532 3.456M299.832 480.167s2.074 9.956-2.136 17.753c0 0 8.198-8.314 7.575-21.712l-5.439 3.959M273.247 419.16l2.075 6.395s10.112 1.09 16.222 7.508c0-.001-5.358-10.364-18.297-13.902M227.974 418.875s-11.521 1.896-18.894 13.099h6.728c-.001 0 4.175-9.275 12.166-13.1M265.271 453.65l5.726-12.845-10.432 9.416h-21.139l-10.435-9.416 5.723 12.846-6.536 20.087-12.188 7.03 13.984-1.483 17.109 12.438 2.904 13.74 2.91-13.74 17.11-12.438 13.982 1.484-12.179-7.031-6.539-20.087m-19.875 8.606-11.659 15.536 6.824-21.87h21.863l-17.028 6.334z" style="fill:#b30838"/><path d="M284.07 233.118c0-21.884-21.417-32.884-53.521-32.884h-25.511v65.769h25.511c31.279-.001 53.521-15.124 53.521-32.885m-58.634 27.817c-.596-8.322-5.159-15.312-14.566-19.606v-11.406c13.536 2.463 24.901 7.406 24.901 16.508 0 9.386-10.335 14.504-10.335 14.504zm30.22-4.774V239.79c0-7.901-8.476-10.044-8.476-10.044h30.817c.127 1.07.242 2.192.242 3.37 0 8.742-8.246 17.939-22.583 23.045zM388.096 580.296h6.577v19.833h2.38v-19.833h6.919v-2.363h-15.876v2.363M416.652 595.993l-5.696-18.06h-3.811v22.196h2.367v-18.854l5.947 18.854h2.38l5.963-18.854v18.854h2.365v-22.196h-3.816l-5.699 18.06" style="fill:#013a81"/></g></svg>