<svg xmlns="http://www.w3.org/2000/svg" xml:space="preserve" width="137.17" height="153.67" viewBox="0 0 137.1684 153.6725"><path fill="#999" d="M127.765 16.935a.29.29 0 0 0-.053-.05C110.382 6.876 90.132 1.169 68.71 1.165v-.001h-.04l-.003.001c-21.412.004-41.574 5.55-58.899 15.551a.406.406 0 0 0-.088.107C2.565 34.296-3.326 63.038 5.716 88.416c7.943 22.299 21.266 37.03 36.253 48.017 14.986 10.985 26.133 16.177 26.256 16.236l.464.167.463-.167c.122-.059 11.27-5.251 26.255-16.236 14.987-10.987 28.31-25.718 36.253-48.017 9.05-25.398 3.225-54.013-3.895-71.481"/><path fill="#fff" d="M67.378 148.998c-.894-.394-22.103-9.854-39.775-29.24C11.1 101.656-5.092 71.3 11.469 29.488l.359-.905.81-.54c.947-.628 23.552-15.383 55.99-15.383 32.44 0 55.042 14.755 55.988 15.384l.81.539.36.905c16.562 41.812.368 72.168-16.133 90.27-17.673 19.386-38.883 28.846-39.775 29.24l-1.25.548"/><path fill="#002f65" d="M122.952 30.735a.44.44 0 0 0-.138-.17C121.19 29.518 99.3 15.763 68.639 15.763c-30.763 0-52.697 13.845-54.192 14.812a.402.402 0 0 0-.12.15C-16.483 108.72 68.64 146.154 68.64 146.154s85.112-37.43 54.313-115.419"/><path fill="#fff" d="M72.467 5.128c-.288-.008-.468.138-.463.383.01.366.02.733.027 1.102.007.195.078.308.33.377 1.287.382 2.577.789 3.87 1.217.01.203.021.404.033.607-.967-.063-1.936-.114-2.908-.152l-.024-.71c-.42-.017-.843-.032-1.266-.044.008.355.018.71.028 1.066.005.246.202.41.498.42 1.504.045 3.003.122 4.494.23.295.022.472-.12.457-.367l-.074-1.193c-.013-.19-.103-.32-.34-.398a138.966 138.966 0 0 0-3.852-1.237c-.006-.174-.01-.346-.017-.521.954.04 1.906.092 2.853.158.013.2.022.404.034.605.413.03.826.058 1.24.092l-.06-.963c-.015-.237-.199-.402-.479-.424a108.193 108.193 0 0 0-4.38-.248zm-9.422.075c-.435.022-.869.05-1.303.08-.892 1.47-1.803 2.95-2.732 4.443v.012c.434-.039.866-.076 1.3-.11l.471-.79c.992-.074 1.982-.133 2.975-.178l.404.736c.44-.019.88-.033 1.317-.047v-.012a321.166 321.166 0 0 1-2.432-4.134zm-.688.923c.327.6.658 1.199.991 1.801a99.5 99.5 0 0 0-2.106.127c.375-.645.748-1.286 1.115-1.928zm-9.648.028a102.72 102.72 0 0 0-4.318.658c-.284.051-.486.244-.516.494l-.133 1.131c-.024.199.03.302.272.318 1.213.127 2.431.273 3.652.442l-.059.619c-.95.136-1.902.287-2.857.452l.08-.726c-.414.072-.828.145-1.244.221-.04.363-.086.727-.127 1.089-.03.253.138.379.43.326 1.476-.27 2.948-.503 4.416-.705.29-.04.49-.222.511-.471l.106-1.211c.016-.192-.053-.306-.279-.336-1.218-.18-2.43-.334-3.639-.47l.06-.534c.936-.157 1.873-.302 2.81-.432l-.06.615c.41-.057.816-.111 1.223-.164.026-.327.06-.654.086-.98.021-.243-.139-.372-.414-.336zm36.137.687c-.159.03-.237.153-.215.344.137 1.189.275 2.374.41 3.553.03.25.215.44.5.492 1.558.285 3.126.607 4.7.97.288.067.454-.051.42-.306-.055-.42-.113-.841-.169-1.261-.412-.096-.826-.19-1.24-.28l.11.846a102.549 102.549 0 0 0-3.145-.642c-.109-.916-.22-1.832-.328-2.753 1.035.188 2.072.392 3.115.615.034.27.071.538.103.807.412.089.823.18 1.237.275-.054-.41-.105-.817-.16-1.226-.035-.259-.24-.465-.526-.527a103.68 103.68 0 0 0-4.629-.905.518.518 0 0 0-.183-.002zM41.721 8.113c-.398.091-.796.185-1.194.283l-.49 3.008c-.88-.751-1.739-1.49-2.582-2.213-.399.11-.797.224-1.197.34l-.928 4.655c.425-.13.85-.258 1.272-.381l.603-3.192c.85.756 1.717 1.527 2.604 2.31.41-.104.82-.208 1.226-.306l.686-4.504zM99.87 9.267c.293 1.509.593 3.035.893 4.579.41.123.83.25 1.24.38-.31-1.551-.62-3.086-.93-4.603-.4-.123-.8-.242-1.203-.356zm6.473 1.96c.06.286.11.57.18.859.65.22 1.33.457 2.01.707.3 1.27.59 2.565.9 3.889l1.26.539c-.33-1.36-.66-2.691-.98-3.994.73.275 1.48.563 2.24.87-.08-.322-.17-.64-.25-.958a98.96 98.96 0 0 0-5.36-1.911zm-77.647.726-1.248.47a1953.774 1953.774 0 0 1-3.73 5.917l-.002.015c.432-.188.866-.37 1.297-.548.221-.36.44-.714.656-1.07.978-.395 1.95-.774 2.92-1.134.071.238.145.477.22.715.371-.137.745-.27 1.116-.404l.004-.014a180.925 180.925 0 0 1-1.233-3.947zm-.859 1.225c.171.57.348 1.146.53 1.722-.684.257-1.37.522-2.057.793l1.527-2.515zm88.136 1.744c0 .012 0 .024.01.037 1.04 1.357 2.21 2.997 3.32 4.463.17.57.32 1.24.49 1.812.42.224.84.452 1.27.686-.18-.586-.42-1.494-.59-2.078.52-.656 1.05-1.323 1.56-1.998 0-.015-.01-.03-.01-.043-.47-.24-1.18-.617-1.18-.617s-.6.78-1.08 1.298c-.52-.632-1.29-1.75-2.07-2.793-.41-.183-1.32-.592-1.72-.767zm-94.726.019c.003-.012-.2.082-.197.07-.47.206-1.559.663-1.559.663l-2.879 3.088s.4-1.325.59-1.965c-.396.19-.797.385-1.2.586l-1.786 5.543c.461-.254.92-.503 1.375-.744.24-.802.472-1.582.697-2.34.634.314 1.282.64 1.944.976.571-.282.891-.425 1.45-.691l.007-.041c-.837-.424-1.378-.706-2.168-1.092 1.112-1.24 2.724-2.96 3.726-4.053zm47.07 5.379a94.009 94.009 0 0 0-7.669.332c-.112 2.827-.22 5.675-.329 8.444a88.705 88.705 0 0 1 2.688-.174c.057-2.251.115-4.646.174-6.934a96.154 96.154 0 0 1 6.105-.136l.018 2.503c-1.95-.013-3.9.012-5.838.112.455.31 4.857 3.214 6.621 4.363 1.106.019 2.214.056 3.32.11a1.83 1.83 0 0 1-.002-.075c-1.598-1.04-2.953-2.05-4.496-3.017.784.002 1.282.01 2.067.03.61.017 1.004-.266.994-.74-.028-1.293-.053-2.654-.08-3.96-.01-.494-.409-.82-1-.832a100.42 100.42 0 0 0-2.573-.026zm5.735.15.082 1.532c1.552.082 3.104.209 4.658.369.168 2.308.335 4.773.5 7.02.886.093 1.773.198 2.658.316-.187-2.251-.375-4.718-.57-7.031 1.554.202 3.106.45 4.652.728-.056-.557-.09-.992-.146-1.554a94.677 94.677 0 0 0-11.834-1.38zm-17.79.569c-3.392.416-6.747.959-10.077 1.727-.597.138-.998.544-1.067 1.043l-.96 7.039c-.067.482.262.7.884.56a104.153 104.153 0 0 1 10.512-1.834c.622-.075 1.038-.422 1.076-.902.18-2.27.358-4.622.541-6.936.04-.495-.315-.771-.91-.697zm31.927 1.152c.311 2.832.634 5.772.947 8.602.902.179 1.803.368 2.701.568-.363-2.84-.736-5.792-1.1-8.634a96.02 96.02 0 0 0-2.548-.536zm-33.72.592c-.164 1.783-.35 3.776-.513 5.53-2.356.33-4.689.729-7.017 1.22l.687-5.576c2.164-.453 4.542-.853 6.842-1.174zm39.487.723c.451 2.907.908 5.9 1.344 8.713.895.217 1.781.467 2.666.709-.319-1.927-.659-4.064-.984-6.035 2.518 2.578 5.131 5.493 7.691 8.183.84.293 1.61.598 2.5.943-.56-2.8-1.18-5.932-1.76-8.833-.82-.32-1.64-.631-2.46-.928.36 1.942.79 4.112 1.15 6.01-2.53-2.668-5.074-5.515-7.567-8.07-.842-.236-1.727-.476-2.58-.692zm-52.133.322a1.218 1.218 0 0 0-.38.053c-3.259.925-6.462 1.963-9.624 3.24-.625 2.944-1.294 6.063-1.918 9.008.857-.348 1.72-.68 2.586-1.004l1.448-7.34a95.5 95.5 0 0 1 5.697-1.896c-.145.903-.326 1.987-.47 2.89a98.89 98.89 0 0 0-5.38 1.799c.584.28 1.175.566 1.778.856a96.41 96.41 0 0 1 4.96-1.551c.602-.173 1.024-.588 1.094-1.084.204-1.42.437-2.945.64-4.363.053-.373-.104-.592-.43-.608zm-13.795 4.82a1.3 1.3 0 0 0-.357.108c-2.865 1.266-5.635 2.59-8.385 4.142-.54.305-.979.84-1.13 1.364-.228.785-.515 1.713-.743 2.5-.12.415-.057.576.38.437a77.412 77.412 0 0 1 6.87-1.674c-.1.422-.255 1.102-.357 1.522-1.937.896-3.895 1.95-5.782 2.972.138-.5.27-.932.407-1.431-.813.44-1.643.946-2.446 1.41-.217.755-.409 1.455-.627 2.209-.15.522.12.644.69.32 2.906-1.641 5.935-3.255 8.963-4.593.597-.263 1.056-.75 1.17-1.256.188-.82.382-1.747.568-2.57.091-.39-.02-.57-.46-.493a78.68 78.68 0 0 0-6.909 1.522c.101-.37.31-1.033.412-1.403 1.75-.963 3.551-1.845 5.473-2.726-.103.42-.202.84-.305 1.26.818-.376 1.641-.743 2.47-1.098l.452-2.002c.085-.37-.05-.553-.354-.52zm81.245.069c-.32-.023-.47.193-.38.578.57 2.415 1.15 5.116 1.72 7.52.11.51.56.912 1.15 1.173a99.474 99.474 0 0 1 8.7 4.358c.72.4 1.07.404.86-.356-.38-1.437-.88-3.306-1.11-4.138-2.21-1.247-3.03-1.697-5.63-3.002l1.36 1.919c1.18.603 1.39.717 2.33 1.233.22.705.46 1.605.61 2.156-2.15-1.214-3.67-1.946-5.84-2.986-.57-2.223-1.03-4.18-1.49-6.05 2.22 1.026 3.66 1.748 5.65 2.806.11.447.25.998.25.998l2.32 1.306s-.33-1.175-.53-1.855c-.16-.575-.48-1.023-1.04-1.328-2.92-1.574-4.96-2.621-8.56-4.23a1.095 1.095 0 0 0-.37-.102zM87.023 41.242c-2.74.073-5.309.89-7.685 2.434-2.528 1.65-3.86 4.139-3.86 7.193 0 3.324 1.894 7.457 5.635 12.293a2790.19 2790.19 0 0 1 4.92 6.096l4.74 5.879c.004.008.031.038.036.045l.056.068c.22.274.44.542.653.809l.105.154c3.611 5.206 5.445 10.11 5.445 14.58 0 .377-.016.754-.04 1.127l-.024.293c-.023.27-.05.539-.082.806l-.008.059c-.015.12-.032.235-.05.358-.024.172-.055.346-.085.517a17.874 17.874 0 0 1-.523 2.02c-.059.173.16.283.32.39.278.185 2.353 1.405 4.476 2.112.18.058.24.058.29-.057.44-1.034.79-2.041 1.06-3.063.01-.031.01-.056.02-.087.6-2.204.9-4.476.9-6.756 0-3.883-.83-7.637-2.48-11.155-.84-1.812-2.036-3.802-3.555-5.916a46.37 46.37 0 0 0-.703-.96c-.064-.082-.127-.17-.193-.254l-.184-.24c-.242-.315-.493-.64-.752-.954a19.371 19.371 0 0 0-.406-.515c-.19-.22-.375-.441-.559-.665l-.394-.47a64.16 64.16 0 0 1-.703-.832l-.996-1.188a751.128 751.128 0 0 1-4.24-5.084c-3.964-5.036-6.04-8.81-6.167-11.213-.077-1.388.392-2.464 1.442-3.291 1.123-.887 2.256-1.25 3.91-1.25 1.016 0 2.17.566 2.935 1.434.734.912 1.09 1.74 1.09 2.523v.116c.005.79.017 2.43-1.748 3.722a.217.217 0 0 0-.082.23.226.226 0 0 0 .186.167c.848.107 1.73.16 2.625.16 3.296 0 4.988-1.404 5.031-4.174.031-1.355-.43-3.341-2.83-5.111-1.84-1.356-4.207-2.228-6.34-2.334-.399-.02-.794-.026-1.186-.016zm13.93 23.37c-1.22 0-2.022.089-2.04.09-.043.004-1.072.055-2.65.36-.75.133-1.322.269-2.038.457-.264.082-.079.354.056.516.232.276 1.652 2.019 1.881 2.248.198.196.231.36.61.315.397-.118.786-.22 1.152-.291a16.234 16.234 0 0 1 1.836-.198c.127-.001.238-.005.332-.007 1.99-.057 3.42.252 3.44.255 4.14.695 4.53 4.136 4.54 4.27l.01.107c.02.788.09 2.426-1.65 3.764a.236.236 0 0 0-.08.238c.02.085.1.149.19.157a19.539 19.539 0 0 0 2.62.097c1.64-.04 2.88-.422 3.71-1.135.84-.723 1.25-1.792 1.21-3.156 0-.054-.01-4.985-7.12-7.25-2.17-.692-4.47-.836-6.01-.836zm-17.166 7.402a16.275 16.275 0 0 0-1.703 2.894c-.07.15-.142.305-.207.457-.037.08-.072.157-.104.235l-.013.04c-.95 2.32-1.396 4.968-1.322 7.872 0 .082.336 8.222 6.294 13.78a24.216 24.216 0 0 0 5.266 3.746c.364.18.721.36 1.08.52 1.48.68 3.034 1.19 4.621 1.53.473.11.91.18 1.297.24 1.016.16 2.016.24 2.976.24.84 0 1.32-.06 1.32-.07 7.35-.26 10.61-3.37 11.38-5.164a.23.23 0 0 0-.06-.26c-.08-.061-.18-.068-.26-.01-2.25 1.514-4.91 2.284-7.94 2.284-1.8 0-3.64-.27-5.47-.807-.43-.124-.78-.244-1.116-.373a14.952 14.952 0 0 1-1.574-.691 18.042 18.042 0 0 1-2.783-1.745 21.87 21.87 0 0 1-.973-.8c-3.724-3.283-5.2-7.24-5.215-7.286-1.016-2.528-1.636-4.688-1.605-7.656.016-1.122.16-2.25.422-3.355.002-.003 0-.008.002-.01.018-.076.066-.363.066-.363.038-.155-.035-.266-.129-.371-.232-.252-3.506-4.25-3.71-4.455-.175-.174-.299-.485-.54-.422zm8.117 32.514c-.093.02-.17.09-.277.24-.357.48-.74.96-1.135 1.44-3.785 4.45-8.645 8.25-14.455 11.29-.1.05-.142.16-.109.27.031.09.115.15.21.15h.034c6.532-1.05 12.238-3.77 16.975-8.1.021-.02.04-.04.078-.07l.062-.07c.648-.6 1.231-1.17 1.762-1.74.34-.32.826-.92 1.492-1.75.074-.1.003-.19-.088-.21-2.235-.41-3.829-1.2-4.168-1.35-.177-.08-.287-.12-.38-.1z"/><path fill="#91b0d5" d="M40.121 38.496C30.4 41.11 21.277 45.026 12.992 50.03c-1.21 5.018-1.838 9.357-1.896 13.723 10.947-7.358 23.676-12.715 37.52-15.453a439.88 439.88 0 0 0-8.495-9.805zm14.24 16.725c-15.96 2.516-30.536 8.57-42.668 17.218.357 2.484.867 5.105 1.536 7.967.21.895.446 1.785.695 2.674C27.39 73.45 44.156 67.079 62.59 65.41a949.324 949.324 0 0 0-8.229-10.19zm14.27 17.984c-19.796.925-37.84 7.366-52.016 17.533a73.399 73.399 0 0 0 4.367 8.672c13.115-8.81 29.583-14.461 47.65-15.502V73.205zm0 19.305c-16.24 1.17-31.098 6.13-43.145 13.768a98.473 98.473 0 0 0 6.024 7.45c10.635-5.88 23.327-9.77 37.121-10.9V92.51zm0 19.368c-11.25 1.1-21.699 4.05-30.764 8.41 2.644 2.5 5.318 4.79 7.94 6.87 6.976-2.64 14.666-4.49 22.824-5.37v-9.91zm0 19.44a94.098 94.098 0 0 0-13.426 2.64c6.098 4.02 11.085 6.6 13.426 7.75v-10.39z"/></svg>