<svg xmlns="http://www.w3.org/2000/svg" width="200" height="187" viewBox="0 0 200 187"><style>.shp0{fill:#fff}.shp1{fill:#b81137}.shp2{fill:#455560}.shp3{fill:#b0b7bb}</style><path d="m94.47 4-5.49 3.99c-6.79.01-7.59.02-7.59.09 0 .04.32 1.04.71 2.21.4 1.18.71 2.14.69 2.14-.02 0-.86-.6-1.87-1.34-1.02-.74-1.87-1.34-1.89-1.34-.03 0-.16.33-.29.73-.13.4-.65 2.02-1.17 3.59l-.93 2.86c-.9.66-3.37 2.44-6.06 4.4l-4.9 3.55c2.39 7.67 3.06 9.91 3.04 9.93-.02.02-1.31.15-2.85.3-1.55.14-4.29.43-6.09.63-1.81.2-4.21.48-5.35.62-1.13.14-3.03.38-4.21.54-1.19.15-3.11.42-4.28.59-1.17.17-2.84.42-3.72.56-.87.14-1.79.28-2.03.33l-.43.08c-.03 36.05-.05 46.51-.07 46.51-.01 0-.68.13-1.48.28-.8.16-2.49.5-3.76.76-1.27.26-3.17.67-4.22.91-1.05.24-2.62.61-3.5.83-.87.22-2.26.58-3.09.81-.82.23-1.71.48-1.97.56-.38.12-.46.16-.44.26.01.07.58 2.17 1.26 4.68.69 2.51 1.26 4.59 1.27 4.63.01.03-.91.24-2.2.49-1.23.23-2.99.58-3.91.76-.93.18-2.17.43-2.75.56-.59.12-1.11.23-1.17.25-.11.03-.11.23-.11 3.18v3.16c-1.04 1.09-2.64 2.78-4.22 4.47-1.58 1.68-4.01 4.27-5.4 5.75-1.39 1.48-2.87 3.05-3.28 3.49-.72.76-.75.8-.63.89.07.05 1 .71 2.06 1.46 1.07.75 4.08 2.88 6.69 4.73l4.75 3.37c.02 6.88.04 7.7.1 7.7.05 0 .38-.05.74-.12.36-.07 1.64-.3 2.84-.51 1.2-.2 3.28-.55 4.62-.78 1.34-.22 3.51-.57 4.81-.78 1.31-.2 3.4-.53 4.66-.72 1.25-.19 3.65-.54 5.32-.78 1.67-.23 3.07-.42 3.09-.41.03.02.07.31.1.64.03.34.11 1.01.17 1.5.07.48.21 1.32.32 1.87a40.82 40.82 0 0 0 .96 3.87c.12.42.41 1.25.63 1.85.23.6.6 1.51.82 2.03.23.51.63 1.37.9 1.9.26.54.78 1.49 1.15 2.13.36.63 1.05 1.73 1.52 2.43.47.71 1.11 1.62 1.42 2.03.31.42.84 1.09 1.17 1.5.34.42.96 1.15 1.38 1.63.42.48 1.16 1.28 1.63 1.79.48.5 1.31 1.33 1.84 1.84.53.52 1.33 1.27 1.78 1.68a86.875 86.875 0 0 0 4.41 3.69c.49.39 1.26.96 1.71 1.29.45.33 1.37.98 2.06 1.46.69.47 1.85 1.25 2.59 1.73.74.48 1.98 1.26 2.75 1.72.77.46 2.19 1.28 3.16 1.82.96.54 2.34 1.3 3.06 1.68.72.38 2 1.03 2.84 1.44.84.41 1.99.96 2.56 1.23.57.26 1.59.73 2.28 1.04.69.31 2.01.88 2.94 1.27.92.38 2.43 1 3.34 1.36.91.36 2.33.9 3.15 1.2.83.3 2.54.89 3.81 1.31 1.27.43 2.64.87 3.03.99l.72.21c1.74-.52 2.85-.87 3.59-1.11.74-.25 1.92-.65 2.62-.9.71-.25 1.85-.67 2.53-.92.69-.26 1.9-.73 2.69-1.05.79-.31 2.04-.83 2.78-1.14.74-.31 1.96-.84 2.72-1.17.75-.34 1.95-.89 2.65-1.22.7-.33 2.03-.98 2.94-1.44.91-.45 2.19-1.1 2.84-1.45.65-.34 1.75-.94 2.43-1.33.69-.38 1.8-1.02 2.47-1.42.67-.4 1.75-1.06 2.41-1.47.65-.41 1.67-1.08 2.28-1.48.6-.4 1.58-1.08 2.18-1.5a89.899 89.899 0 0 0 3.44-2.55c.32-.26 1.17-.95 1.87-1.54.7-.58 1.63-1.38 2.06-1.78.43-.39 1.26-1.17 1.84-1.74.59-.56 1.53-1.52 2.09-2.12.56-.61 1.26-1.39 1.56-1.73.3-.35.83-.98 1.17-1.41.34-.43.88-1.12 1.19-1.53.31-.41.88-1.21 1.26-1.78.37-.57.99-1.54 1.36-2.16.37-.62.94-1.66 1.28-2.31.33-.65.78-1.61 1.01-2.12.22-.52.59-1.43.82-2.03.22-.6.51-1.43.63-1.85a42.547 42.547 0 0 0 .91-3.56c.1-.51.26-1.41.34-2 .08-.58.17-1.34.2-1.68.03-.33.07-.62.1-.64.02-.01 1.42.18 3.09.41 1.67.24 4.07.59 5.32.78 1.26.19 3.35.52 4.66.72 1.3.21 3.47.56 4.81.78 1.34.23 3.42.58 4.62.78 1.2.21 2.49.44 2.87.51.38.07.71.12.74.12.02 0 .04-1.73.04-3.84v-3.84c.95-.66 2.58-1.82 4.25-3s4.44-3.14 6.15-4.36c1.72-1.22 3.15-2.24 3.19-2.27.04-.03-.08-.2-.31-.44-.21-.22-1.22-1.3-2.25-2.4-1.03-1.09-2.33-2.48-2.89-3.07-.56-.6-1.47-1.57-2.03-2.16-.56-.59-1.86-1.98-2.89-3.08-1.03-1.09-2.18-2.31-2.55-2.7l-.67-.7c0-6.11 0-6.31-.11-6.34-.06-.01-1.06-.22-2.23-.46-1.17-.24-3.4-.69-4.96-.98-1.57-.3-2.85-.55-2.86-.56 0 0 .26-.96.58-2.13.33-1.16.92-3.29 1.31-4.71.4-1.43.7-2.61.67-2.64a9.52 9.52 0 0 0-.67-.23c-.35-.1-1.36-.39-2.25-.62-.89-.24-2.38-.62-3.31-.85-.93-.22-2.25-.53-2.94-.69-.68-.16-2.12-.47-3.18-.7-1.07-.22-2.87-.58-4.02-.8-1.14-.23-2.09-.41-2.1-.41-.02 0-.04-10.46-.05-23.25l-.02-23.26c-1.3-.22-2.13-.36-2.68-.45-.55-.08-1.94-.29-3.09-.46-1.15-.17-3.15-.45-4.44-.62-1.29-.17-3.49-.45-4.9-.62-1.41-.18-3.73-.45-5.15-.6-1.43-.16-3.97-.43-5.66-.59-2.51-.24-3.06-.31-3.04-.39.01-.05.7-2.28 1.53-4.96l1.52-4.87c-4.6-3.33-7.08-5.12-8.47-6.13l-2.53-1.83c-.6-1.82-1.13-3.44-1.56-4.77-.43-1.33-.8-2.42-.83-2.42-.03 0-.87.6-1.87 1.34-1.01.74-1.84 1.34-1.86 1.33-.01-.01.22-.78.53-1.7.3-.93.62-1.9.71-2.16.08-.26.14-.49.12-.52-.01-.02-1.71-.04-3.78-.04l-3.77-.01c-3.43-2.49-5.15-3.74-6.02-4.37-.88-.64-2.36-1.71-3.3-2.39A69.29 69.29 0 0 0 99.98 0c-.01 0-2.5 1.8-5.51 4Z" class="shp0"/><path d="M99.16 4.24c-.42.3-2.66 1.93-4.98 3.62l-4.24 3.07c-3.95 0-4.43.02-4.43.08 0 .04.66 2.1 1.48 4.58.81 2.47 1.49 4.52 1.51 4.56.02.03 0 .04-.04.03-.04-.02-1.81-1.29-3.94-2.82-2.12-1.54-3.88-2.8-3.91-2.81-.02-.01-.36.95-.73 2.13-.38 1.19-.71 2.17-.74 2.19-.02.02-2.28 1.64-5.01 3.61l-4.95 3.58c1.31 4.23 2.11 6.8 2.62 8.44.52 1.64.92 2.99.9 3.01-.01.01-1.43.14-3.15.28-1.72.15-4.39.39-5.93.54-1.55.16-3.97.41-5.38.57-1.4.15-3.68.42-5.05.59-1.38.17-3.63.47-5 .65-1.38.19-3.15.45-3.94.57-.79.12-1.47.23-1.51.25-.06.02-.08.65-.08 2.87 0 2.48.01 2.84.09 2.84.06 0 .85-.11 1.77-.25s2.65-.39 3.86-.56c1.2-.17 3.42-.46 4.93-.65a434.47 434.47 0 0 1 7.78-.91c.98-.1 2.66-.27 3.74-.37 1.09-.11 2.98-.27 4.22-.38l3.84-.31c.88-.07 2.69-.2 4.03-.28 1.34-.09 3.46-.22 4.72-.28 1.25-.07 3.39-.18 4.74-.23l2.47-.11c4.31 3.14 6.8 4.96 8.32 6.07 1.52 1.11 2.8 2 2.85 1.99.04-.01 2.58-1.83 5.63-4.04l5.56-4.02c3.83.17 5.95.27 7.18.34 1.24.06 3.15.17 4.25.24 1.1.07 2.93.2 4.06.29 1.14.08 3.06.24 4.28.34 1.22.1 3.26.29 4.53.41 1.27.12 3.56.36 5.09.53 1.53.16 4.14.47 5.81.68 1.66.21 3.94.51 5.06.66 1.11.16 2.85.41 3.85.56 1.01.16 1.87.28 1.93.28.08 0 .09-.35.07-2.86l-.01-2.85c-1.65-.27-3.43-.53-5.03-.75-1.6-.22-3.92-.53-5.15-.69-1.24-.15-3.5-.42-5.03-.59-1.53-.17-4.06-.44-5.62-.59-1.57-.16-4.26-.4-6-.54-1.73-.15-3.16-.27-3.17-.27-.01-.01.44-1.5 1.01-3.32.56-1.82 1.35-4.37 1.75-5.66.4-1.29.74-2.38.76-2.42.01-.05-1.96-1.51-4.98-3.68-2.75-1.99-5.03-3.65-5.05-3.71-.03-.05-.35-1.02-.72-2.15-.36-1.14-.67-2.07-.67-2.07-.01-.01-1.77 1.26-3.9 2.82-2.14 1.56-3.91 2.83-3.93 2.83-.01-.01.63-2.07 1.44-4.58.81-2.51 1.47-4.58 1.47-4.61 0-.03-1-.05-2.23-.05h-2.24C102.28 5.32 100 3.69 99.97 3.69c-.04 0-.4.25-.81.55Z" class="shp1"/><path d="M96.56 13.16c-1.87 1.36-3.44 2.51-3.49 2.56-.09.08.06.56 1.25 4.18l1.34 4.09h8.68c2.43-7.47 2.65-8.23 2.58-8.29-.04-.04-1.62-1.18-3.5-2.54s-3.43-2.48-3.44-2.48c0 0-1.54 1.12-3.42 2.48ZM79.34 25.68c-1.91 1.4-3.48 2.59-3.47 2.63 0 .05.63 2.03 1.4 4.4.76 2.37 1.39 4.32 1.4 4.33 0 .01 1.9-.09 4.22-.21 2.31-.13 4.22-.23 4.22-.24.01 0 .62-1.86 1.36-4.13.74-2.27 1.35-4.15 1.35-4.19-.01-.03-1.58-1.2-3.5-2.6l-3.5-2.53-3.48 2.54Zm34.35-.01c-1.89 1.4-3.44 2.57-3.44 2.6-.01.04.58 1.92 1.31 4.19.72 2.27 1.32 4.13 1.33 4.13 0 .01 1.91.11 4.22.24 2.32.12 4.22.22 4.23.21 0-.01.64-1.99 1.42-4.39 1.36-4.19 1.42-4.38 1.31-4.48-.07-.06-1.56-1.15-3.33-2.43-1.77-1.28-3.31-2.39-3.41-2.47l-.19-.14-3.45 2.54Zm-18.06 4.54c0 .02-.59 1.85-1.32 4.08-.72 2.22-1.3 4.07-1.29 4.1.02.04 1.59 1.19 3.49 2.55 1.9 1.37 3.49 2.48 3.52 2.46.04-.01 1.58-1.11 3.44-2.44 1.85-1.33 3.41-2.45 3.45-2.49.07-.06-.16-.83-1.25-4.19l-1.33-4.1c-6.75 0-8.71.01-8.71.03Z" class="shp0"/><path d="M85.51 45.33c-.98.05-2.86.14-4.19.22-1.32.07-3.62.21-5.12.31-1.49.11-3.45.25-4.34.31-.89.07-2.45.2-3.47.29-1.01.08-2.85.25-4.09.37-1.23.12-2.92.29-3.74.38-.83.08-2.25.24-3.16.34-.91.1-2.99.35-4.62.56-1.63.2-4.25.55-5.81.78-1.56.22-3.16.46-3.56.52l-.72.1c-.03 32.98-.02 34.96.06 34.96.06 0 .77-.11 1.58-.25.82-.13 2.13-.34 2.92-.47.79-.12 1.5-.23 1.58-.25l.14-.03c0-22.13.01-28.55.03-28.55.02 0 .87-.11 1.89-.25 1.02-.13 2.77-.36 3.89-.5 1.11-.13 3.34-.39 4.93-.56 1.6-.17 4.23-.44 5.84-.59a334.292 334.292 0 0 1 8.65-.75 353.29 353.29 0 0 1 7.97-.5c1.03-.06 2.8-.14 3.93-.19 1.14-.05 3.31-.12 4.84-.16 1.53-.04 3.3-.09 3.93-.11l1.15-.05c-7.97-5.85-8.18-5.99-8.45-6-.15-.01-1.08.03-2.06.07Zm26.61-.01c-.05.05-1 .75-2.1 1.55-1.09.8-2.44 1.78-2.99 2.18-.55.39-1.46 1.06-2.02 1.47-.56.41-1.01.75-1 .76.01 0 1.35.04 2.99.08 1.63.03 4.06.1 5.4.15 1.34.06 3.54.16 4.9.22 1.36.07 2.92.16 3.47.19.55.04 2.02.14 3.28.22a506.098 506.098 0 0 1 9.9.81c1.27.13 3.76.38 5.53.57 1.76.19 4.56.51 6.21.71 1.65.21 3.51.44 4.14.53.63.09 1.17.16 1.2.16.04 0 .06 4.8.06 14.29V83.5c1.53.23 2.89.45 4.02.63 1.12.19 2.08.34 2.14.34.08 0 .09-1.97.07-17.47l-.01-17.48c-1.74-.27-3.02-.46-3.97-.6-.94-.13-2.35-.33-3.12-.43a510.34 510.34 0 0 0-8.43-1.03c-1.09-.12-3.08-.34-4.44-.47-1.36-.14-3.13-.31-3.93-.38-.81-.07-1.6-.14-1.75-.15-.16-.02-1.52-.13-3.03-.25-1.51-.12-3.17-.25-3.69-.28-.51-.04-1.59-.11-2.4-.16-.81-.05-1.96-.12-2.56-.16-.6-.03-1.91-.1-2.91-.15-.99-.05-2.23-.11-2.75-.13-.51-.02-1.2-.05-1.53-.07-.47-.03-.61-.02-.68.06Z" class="shp1"/><path d="M95.82 54.58c-.74.01-2.43.05-3.75.09-1.33.04-3.52.11-4.87.16-1.36.05-3.3.13-4.31.18-1.02.06-2.54.14-3.38.19-.84.05-2.72.18-4.18.28-1.46.11-3.95.3-5.53.44s-4.14.38-5.68.53c-1.55.15-3.92.4-5.28.56-1.36.16-3.26.38-4.22.5s-1.85.23-1.98.25l-.24.03c0 16.76.03 21.63.05 21.65.03.01 1.26-1.69 2.73-3.79 1.48-2.1 2.72-3.85 2.76-3.89.04-.06.85-.17 2.34-.34 1.25-.14 2.82-.31 3.49-.38.67-.07 1.95-.2 2.84-.28.9-.09 2.65-.24 3.91-.34 1.25-.1 3.23-.26 4.4-.35 1.17-.08 3.12-.21 4.34-.28 1.22-.07 3.09-.17 4.16-.22 1.06-.05 3.02-.13 4.34-.19 1.32-.05 2.47-.09 2.54-.09h.14V80h19.12V69.29c.26 0 1.41.04 2.71.09 1.31.06 3.25.14 4.31.19 1.07.05 2.95.15 4.19.22 1.23.07 3.37.21 4.75.31 1.37.11 3.34.26 4.37.35 1.03.08 2.76.24 3.84.34 1.08.11 3.13.32 4.56.47 1.42.16 2.84.31 3.15.35l.56.07c4.07 5.8 5.31 7.56 5.39 7.66l.14.16V57.79c-.36-.05-1.25-.16-2.21-.28-.97-.12-2.84-.34-4.16-.49-1.32-.16-3.68-.41-5.24-.57-1.57-.15-4.14-.39-5.72-.53s-4.28-.35-6-.47c-1.71-.12-3.86-.26-4.77-.31-.92-.05-2.24-.12-2.94-.16-.7-.03-2-.09-2.87-.12-.88-.04-2.92-.11-4.53-.16-1.62-.05-4.96-.1-7.43-.11-2.48-.02-5.11-.02-5.84-.01Z" class="shp2"/><path d="M66.9 73.58c-.47.04-1.89.18-3.16.3-1.27.12-2.38.24-2.48.27-.12.03-.95 1.06-3.41 4.26-1.79 2.32-3.23 4.24-3.21 4.27.03.03.97-.06 2.11-.2 1.13-.14 2.56-.31 3.18-.38a380.717 380.717 0 0 1 6.83-.67l1.32-.11v-7.84c-.26.01-.72.05-1.18.1Zm65.08 3.8v3.91c.22.04.79.1 1.41.15.61.06 2.13.2 3.37.32 1.24.12 3.1.31 4.15.43 1.05.12 2.47.29 3.16.38.68.08 1.27.13 1.29.11.02-.03-1.39-1.92-3.14-4.21-1.76-2.28-3.23-4.19-3.28-4.24-.07-.08-.81-.17-3.17-.39-1.69-.16-3.23-.31-3.43-.33l-.35-.04-.01 3.91Z" class="shp3"/><path d="M93.63 82.95c-.43.01-1.99.05-3.47.08-1.47.04-3.71.11-4.96.16-1.26.05-3.14.14-4.19.19-1.05.05-2.99.16-4.31.25-1.32.09-2.99.2-3.71.25-.73.05-2.17.17-3.22.25-1.05.09-2.95.26-4.22.38-1.27.12-3.19.31-4.28.43-1.08.12-2.79.32-3.81.44-1.01.12-2.79.35-3.96.5-1.17.16-3.08.43-4.25.6-1.17.17-3.61.56-5.43.87-1.82.3-4.27.74-5.44.96-1.17.22-2.87.56-3.78.75-.91.18-2.42.51-3.37.72-.94.22-2.34.54-3.09.73-.76.19-1.8.45-2.31.59-.52.14-.95.26-.95.27-.01 0 .8 3.01 1.8 6.69l1.81 6.69c-2.77 12.49-3.58 16.18-3.6 16.26-.02.08 0 .14.05.14.04 0 .33-.08.64-.16.31-.09 1.46-.39 2.56-.66s2.52-.6 3.15-.75c.64-.14 1.9-.41 2.81-.6.91-.18 2.76-.55 4.09-.8 1.34-.25 3.86-.7 5.6-.99 1.73-.3 3.91-.65 4.84-.79.92-.13 3.05-.43 4.71-.65 1.67-.23 3.89-.51 4.94-.63 1.04-.12 2.84-.32 3.99-.44 1.15-.12 3.01-.3 4.13-.4 1.11-.11 2.71-.25 3.56-.31.84-.07 2.48-.2 3.65-.29 1.17-.08 2.83-.2 3.69-.25.85-.05 2.4-.13 3.43-.19 1.03-.05 2.89-.13 4.12-.18 1.24-.05 3.36-.13 4.72-.17 1.59-.06 5.27-.08 10.4-.08 5.05 0 8.84.03 10.43.08 1.37.04 3.19.1 4.03.14.84.03 2.43.1 3.53.15 1.1.06 2.97.15 4.15.22 1.19.07 3.11.2 4.28.28 1.17.09 2.81.22 3.65.28.85.07 2.45.21 3.56.32 1.12.1 2.98.28 4.13.4s2.95.32 3.99.44c1.05.12 3.27.4 4.94.63 1.66.22 3.79.52 4.71.65.93.14 3.11.49 4.84.79 1.74.29 3.9.67 4.81.84.91.17 2.52.48 3.56.69 1.05.21 2.67.54 3.6.75.92.2 2.44.55 3.37.78.93.22 2.1.52 2.61.66.5.15.94.25.96.22.03-.03-.07-.58-.22-1.22-.14-.64-.97-4.32-1.83-8.17l-1.56-6.99c1.94-7.07 2.77-10.08 3.09-11.25l.58-2.12c-.39-.13-1.45-.4-2.6-.69-1.15-.29-2.78-.68-3.62-.87-.84-.19-2.35-.52-3.34-.72-1-.21-2.77-.56-3.94-.78-1.17-.23-3.63-.66-5.47-.97-1.83-.31-4.29-.7-5.46-.87-1.17-.17-3.08-.44-4.25-.6-1.17-.15-2.71-.35-3.43-.44-.72-.08-2.17-.25-3.22-.37-1.05-.12-2.47-.28-3.15-.34-.69-.07-2.17-.22-3.28-.32-1.12-.1-2.72-.24-3.56-.31-.85-.07-2.55-.2-3.78-.28-1.24-.09-3.18-.21-4.31-.28-1.14-.07-2.96-.17-4.06-.22-1.1-.05-2.79-.12-3.75-.16-.96-.04-2.68-.09-3.81-.13-1.13-.04-5.14-.07-8.9-.08-3.76-.01-7.19-.01-7.62 0Z" class="shp1"/><path d="M94 89.63c-.19.04-.55.19-.81.32s-.63.39-.83.58c-.2.19-.48.51-.61.72-.14.21-.32.6-.42.88l-.17.5v8.87c.27.77.45 1.17.59 1.37.13.21.41.53.61.72.2.19.56.45.8.57.24.13.62.29.84.35.38.1.77.11 5.09.11 4.36 0 4.72-.01 5.09-.11.23-.07.61-.22.85-.35.28-.14.6-.38.87-.66.28-.28.53-.6.67-.88.13-.24.27-.6.33-.81.08-.32.09-.98.09-4.75 0-3.64-.01-4.43-.09-4.72-.05-.18-.19-.55-.32-.81-.16-.33-.36-.6-.67-.91-.32-.31-.58-.51-.91-.67a5.73 5.73 0 0 0-.85-.32c-.32-.08-1.06-.1-5.09-.09-3.74 0-4.78.02-5.06.09Zm15.79.1c.01.03.27.32.58.65l.56.59v12.59c-.9.89-1.14 1.16-1.12 1.18.01.01 1.07.05 2.34.09 1.27.04 2.49.07 2.72.07h.4l-1.27-1.28c-.01-7.38.01-9.54.04-9.55.02-.02 1.96 2.46 4.31 5.51 2.34 3.05 4.29 5.59 4.34 5.64.06.09.43.13 2.36.24 1.25.07 2.41.14 2.57.16.17.02.3.01.3-.01 0-.03-.25-.33-.56-.66l-.56-.61V91.78c.92-.89 1.18-1.16 1.17-1.16-.01-.01-1.2-.09-2.64-.18-1.44-.09-2.67-.16-2.72-.15-.05.02.13.24.49.62l.57.59c0 7.43-.02 9.6-.04 9.62-.03.02-2-2.51-4.38-5.62l-4.32-5.66c-.36.01-1.33-.02-2.38-.06-1.04-.03-2.1-.07-2.34-.08-.24-.01-.43.01-.42.03Zm-33.31.65c-3.4.22-6.19.41-6.2.43 0 .02.24.27.55.55l.56.52v12.68c-.87.94-1.09 1.22-1.04 1.22.04 0 1.24-.09 2.67-.2 1.42-.11 2.6-.21 2.62-.22.02-.02-.23-.27-.55-.57l-.58-.54.01-3.35c.6-.04 2.62-.16 4.88-.28 3.72-.2 4.13-.21 4.33-.12.12.05.27.18.34.29.12.19.13.32.13 1.58v1.38c-1.2 1.19-1.26 1.28-1.13 1.28.09 0 1.26-.06 2.6-.13 1.33-.06 2.53-.12 2.65-.12h.22l-1.28-1.19c0-2.49-.02-2.85-.1-3.12-.06-.19-.17-.46-.25-.6-.08-.13-.29-.39-.47-.56-.19-.18-.46-.37-.6-.44-.15-.07-.27-.14-.27-.15 0-.02.13-.12.3-.23.16-.11.41-.32.54-.48.14-.16.34-.44.45-.62.12-.18.25-.5.3-.7.08-.3.1-.74.1-2.03 0-1.28-.03-1.75-.1-2.07-.05-.22-.19-.57-.3-.78-.11-.2-.39-.57-.63-.82-.24-.24-.58-.51-.75-.6-.17-.09-.51-.22-.75-.29-.36-.11-.58-.13-1.25-.12-.45 0-3.6.18-7 .4Zm54.19 2.49c0 1.59.02 2.04.08 2.03.04 0 .32-.22.62-.5l.55-.49 5.09.53.03 10.81c-1.12 1.04-1.15 1.08-1 1.11.09.02 1.22.15 2.53.29 1.31.14 2.45.27 2.54.29.1.01.18 0 .18-.04 0-.03-.26-.34-.57-.69l-.56-.62c0-10.52.01-10.81.11-10.78.06.01 1.21.13 2.55.26l2.43.23c.44.45.73.76.92.98l.36.41c0-3.22-.02-4.16-.04-4.16-.03 0-2.57-.27-5.64-.59-3.08-.33-6.5-.69-7.62-.81-1.12-.12-2.15-.24-2.29-.26l-.26-.03-.01 2.03Zm-71.02-1.06c-2.32.25-4.43.51-4.68.57-.26.06-.66.2-.88.32-.22.11-.54.31-.71.44-.17.13-.47.42-.66.65-.19.22-.45.61-.58.87-.12.26-.28.65-.34.87-.1.38-.11.74-.11 4.72 0 4.01 0 4.34.11 4.68.06.21.22.57.34.81.16.29.36.55.61.77.2.19.54.42.75.52.2.1.5.21.65.24.16.04.46.07.68.07.21 0 2.35-.21 4.74-.47 2.4-.26 4.53-.51 4.73-.56a5.117 5.117 0 0 0 1.6-.83c.16-.13.43-.4.61-.61.18-.2.42-.57.54-.81.12-.24.28-.66.35-.94.12-.47.12-.7.12-4.68 0-3.56-.02-4.25-.1-4.6-.05-.22-.19-.59-.31-.81-.12-.23-.36-.55-.57-.75-.2-.2-.54-.44-.75-.55-.22-.11-.57-.24-.78-.29-.22-.05-.56-.09-.77-.09-.21.01-2.27.21-4.59.46Z" class="shp0"/><path d="M127.73 98.21V104l.82.81-.01-11.09 1.29-1.18c-.63-.05-1.11-.08-1.46-.09l-.65-.03.01 5.79Z" class="shp3"/><path d="M94.69 92.58c-.12.06-.27.2-.33.33-.1.2-.11.5-.09 4.22.01 3.97.02 4.02.15 4.19.07.1.19.21.28.25.11.06 1.15.08 4.39.08 3.25 0 4.29-.02 4.41-.08.08-.04.21-.17.29-.29l.15-.22c-.01-7.88-.01-8-.13-8.2a.892.892 0 0 0-.34-.3c-.19-.08-.82-.09-4.39-.09-3.85 0-4.19.01-4.39.11Zm-15.46.52c-2.23.13-4.21.24-4.39.24h-.32V98c.46-.03 2.39-.13 4.59-.25 2.2-.12 4.12-.23 4.28-.25.15-.02.34-.08.42-.13.07-.05.19-.18.26-.29.12-.19.13-.32.13-1.92 0-1.61-.01-1.74-.13-1.93a.867.867 0 0 0-.34-.29c-.12-.05-.27-.09-.33-.09-.06.01-1.94.12-4.17.25Z" class="shp1"/><path d="M108.03 97.17c0 3.94-.01 4.37-.11 4.76-.07.25-.24.7-.39 1a6 6 0 0 1-.58.91c-.16.19-.46.49-.66.66-.2.17-.55.41-.78.54-.23.13-.67.31-.98.4l-.56.18c-7.86 0-9.46.02-9.45.06.01.04.26.19.55.33.29.15.67.3.84.33.2.04 1.86.06 4.75.05l4.43-.02c.63-.23.98-.38 1.19-.48.2-.11.54-.32.74-.48.21-.16.53-.47.71-.69.18-.23.44-.64.58-.91.14-.28.3-.67.35-.88.1-.33.11-.81.13-4.4l.02-4.03c-.24-.78-.4-1.15-.5-1.33-.11-.18-.21-.33-.24-.33-.02 0-.04 1.95-.04 4.33ZM88.25 94.5c.01.89-.02 1.81-.06 2.03-.03.22-.14.6-.23.84s-.29.62-.43.83l-.27.39c.26.35.38.44.42.44.04 0 .25-.16.46-.36.28-.27.45-.49.64-.89l.26-.52c.03-2.52.02-2.68-.1-3.07-.07-.24-.2-.57-.29-.72-.09-.16-.22-.35-.28-.44-.12-.15-.12-.13-.12 1.47Z" class="shp3"/><path d="m41.01 94.58-7.87 1.41c.02 3.18.04 4.1.06 4.1.02 0 .29-.31.61-.68l.57-.69c1.12-.2 2.28-.4 3.3-.58l1.86-.33v10.78c-.94 1.1-1.11 1.35-1.06 1.36.05.02 1.24-.18 2.65-.43 1.41-.24 2.58-.47 2.61-.49.03-.02-.2-.25-.51-.52l-.57-.48V97.25c1.19-.22 2.34-.43 3.33-.61l1.8-.33c.91.75 1.19.97 1.21.97.02 0 .03-.93.03-2.06 0-1.61-.02-2.06-.08-2.06-.04.01-3.61.64-7.94 1.42Z" class="shp0"/><path d="M95.82 93.45c-.06.02-.16.09-.25.17-.08.07-.18.21-.23.3-.07.14-.09.76-.09 3.45v3.28h.81c.01-5.66.01-5.78.13-5.98.07-.11.22-.24.34-.3.19-.07.7-.09 3.31-.09h3.1v-.87c-5.45 0-7.07.02-7.12.04Z" class="shp3"/><path d="M151.72 93.47c-.16.03-.44.11-.63.18-.19.07-.48.23-.66.36-.18.13-.43.37-.55.52-.13.16-.31.42-.39.58-.08.16-.19.46-.24.65-.08.31-.09 1.02-.09 4.58 0 3.51.01 4.28.09 4.61a4.963 4.963 0 0 0 .75 1.61c.14.2.44.54.66.75.22.21.57.47.78.6.2.12.53.28.71.36.26.11 1.57.36 4.85.92 2.77.48 4.66.77 4.93.77.24 0 .6-.04.8-.09.19-.05.49-.16.65-.23.17-.08.48-.32.71-.55.24-.24.48-.55.58-.75.09-.19.2-.51.26-.72.08-.32.09-1 .09-4.56 0-3.45-.02-4.26-.09-4.62-.05-.24-.2-.67-.34-.94-.13-.28-.37-.68-.53-.89a4.93 4.93 0 0 0-.71-.74c-.23-.19-.6-.44-.83-.56-.22-.11-.63-.27-.9-.34-.28-.07-2.43-.45-4.8-.84-2.36-.4-4.41-.72-4.56-.72-.14.01-.39.03-.54.06Z" class="shp0"/><path d="M79.23 94.13c-1.89.11-3.5.21-3.57.21h-.14v2.63c.21-.05.4-.06.54-.06h.27v-1.82c.7-.05 2.1-.13 3.56-.22 1.46-.08 2.8-.17 2.98-.18l.33-.03v-.75c-.41.01-2.08.11-3.97.22ZM68.5 98.45l-.02 4.42c-.26.85-.43 1.29-.55 1.52-.12.23-.31.56-.44.73-.12.17-.4.49-.61.71-.21.22-.56.51-.77.65-.2.15-.52.34-.71.43-.19.09-.54.22-.78.29-.24.07-.65.16-.91.2-.26.03-2.2.25-4.31.47-2.11.22-3.96.42-4.11.44-.14.01-.26.06-.26.09 0 .04.13.13.29.21a3.35 3.35 0 0 0 1.47.35c.23 0 2.12-.19 4.19-.44 2.07-.24 3.95-.48 4.18-.53.23-.05.59-.16.78-.24.2-.08.47-.21.61-.29.14-.08.41-.26.6-.41.18-.14.5-.43.69-.63.19-.2.46-.52.58-.71.13-.18.32-.51.42-.73.1-.21.24-.59.32-.84.13-.44.13-.55.16-4.3.02-3.28.01-3.91-.08-4.31-.05-.26-.2-.68-.33-.93s-.27-.48-.31-.51c-.06-.05-.08.84-.1 4.36Z" class="shp3"/><path d="M59.65 94.75c-1.91.21-3.66.41-3.89.43-.34.03-.46.07-.62.22-.13.11-.23.28-.28.46-.06.22-.08 1.24-.08 4.06 0 2.11.02 3.86.06 3.98.03.12.13.27.22.33.08.06.25.11.36.11.11 0 2.01-.2 4.23-.44 2.22-.24 4.11-.47 4.21-.51.1-.05.26-.17.36-.28l.18-.21v-8.18c-.37-.36-.41-.38-.83-.37-.25 0-2.01.18-3.92.4Z" class="shp1"/><path d="M147.53 96.16v1.68c.56.62.74.81.77.81.02 0 .05-.92.05-2.04v-2.05c-.46-.07-.65-.09-.71-.09-.1 0-.11.12-.11 1.69Zm-97.22-1.43-.31.06.03 3.4c.56.45.74.57.77.54.02-.02.05-.95.04-2.06 0-1.88 0-2.01-.11-2.01-.06.01-.25.04-.42.07Zm82.17 1.19c0 .53.02.97.04 1 .03.02.31-.19.62-.47l.56-.52c1.6.17 2.12.22 2.2.22.13.01.14-.02.14-.4 0-.37-.01-.41-.14-.43-.08-.02-.82-.1-1.64-.19s-1.56-.16-1.64-.16c-.14 0-.14.01-.14.95Zm-72.7-.19c-2.34.26-3.35.4-3.5.48-.11.05-.27.19-.34.29-.13.18-.13.25-.15 3.53l-.02 3.34c.47-.07.64-.09.68-.09.06 0 .08-.64.09-2.93l.02-2.92c.25-.33.42-.48.53-.53.15-.07 1.07-.19 3.06-.4 1.56-.16 2.95-.31 3.08-.33l.23-.05v-.78c-.31.02-1.88.19-3.68.39Zm81.32 4.88v4.64l.87.87v-9.34c.32.05 1.08.14 1.91.22.82.09 1.56.16 1.64.14.12-.01.1-.06-.25-.44l-.39-.41c-2.71-.25-3.56-.32-3.64-.32h-.14v4.64Z" class="shp3"/><path d="m152.5 96.62-.21.21c-.01 7.29.01 8.04.08 8.18.04.1.18.26.31.38.12.11.25.2.29.2.03 0 1.87.31 4.07.69 2.21.37 4.13.68 4.27.69.18 0 .29-.04.42-.16a.81.81 0 0 0 .2-.36c.02-.11.03-1.97.02-4.12-.02-3.8-.02-3.92-.14-4.09-.07-.09-.2-.22-.29-.28-.12-.1-1.08-.28-4.27-.84-2.27-.39-4.22-.71-4.34-.71-.15 0-.26.05-.41.21Z" class="shp1"/><path d="M115.05 100.14v3.17l.75.75.01-6.12c-.54-.75-.71-.97-.73-.97-.01 0-.03 1.42-.03 3.17Zm-69.61-2.4-1.75.33-.03 9.36c.58.46.76.58.78.55.02-.03.03-2.12.03-4.66 0-2.53.02-4.6.03-4.6.02 0 .83-.14 1.8-.32.97-.17 1.78-.31 1.81-.31.03 0-.14-.15-.36-.34-.22-.19-.44-.34-.48-.34-.05.01-.87.16-1.83.33Zm108.17-.06c-.07.05-.18.15-.23.23-.08.13-.1.57-.1 3.45v3.29l.78.1c.06-5.72.07-5.84.19-5.97.07-.08.17-.16.23-.19.07-.04 1.15.12 3.23.47 1.72.29 3.16.53 3.19.53.03 0 .06-.18.06-.4 0-.23-.01-.41-.01-.41-.01 0-1.57-.27-3.45-.59-1.89-.33-3.51-.6-3.6-.6-.08.01-.21.04-.29.09ZM36.73 99.3l-1.78.31c.03 1.97.04 2.01.14 1.88.06-.08.33-.41.61-.73l.5-.59 2.34-.42c0-.61-.01-.78-.02-.78-.01.01-.81.15-1.79.33Zm129.35-.27-.02 4.31c-.01 3.78-.03 4.33-.12 4.67-.06.22-.17.54-.25.72-.08.18-.26.48-.4.67-.13.19-.4.48-.59.64-.18.16-.53.4-.77.52s-.62.26-.84.32c-.26.06-.65.1-1.04.1-.51-.01-1.42-.15-5.02-.78-2.43-.43-4.43-.77-4.47-.75-.03.02.04.11.16.21a5.388 5.388 0 0 0 1.32.77c.3.11 1.55.35 4.31.82 2.14.37 4.13.68 4.42.7.41.02.66 0 1.08-.11.3-.07.67-.19.81-.26.15-.07.43-.24.63-.38.19-.13.49-.4.65-.6.16-.19.39-.58.52-.86.13-.27.27-.65.32-.84.07-.27.08-1.16.08-4.28v-3.93c-.26-.78-.44-1.16-.56-1.35-.12-.19-.21-.33-.22-.31Zm-77.81 3.05-.01 1.07c.54.51.73.67.76.67.02.01.05-.29.05-.67 0-.48-.03-.79-.11-1.04-.07-.2-.2-.49-.31-.64-.1-.16-.23-.32-.28-.37-.07-.07-.09.07-.1.98Zm-9.29-.39c-1.89.11-3.44.21-3.45.21-.01 0-.01.43-.01.96v.95l.81.72v-1.91c5.2-.27 6.75-.35 6.79-.34.05 0 .08-.12.08-.41v-.4c-.61.01-2.33.1-4.22.22Z" class="shp3"/><path d="M23.45 101.85c-.51.1-2.14.42-3.62.72-1.48.29-2.82.56-2.98.59l-.3.06-.01 5.09c-3.89 4.12-6.59 7-8.51 9.05-1.93 2.05-3.5 3.75-3.5 3.78 0 .04.32.29.72.57.39.29 1.08.78 1.53 1.09.44.32 2.13 1.51 3.74 2.66 1.62 1.14 3.46 2.45 4.1 2.9l1.54 1.1.4.28c-.01 5.05.01 5.65.07 5.65.04 0 .47-.07.95-.16.48-.08 1.96-.33 3.28-.55 1.32-.23 3.03-.51 3.8-.63.76-.12 2-.32 2.74-.44.75-.12 2.32-.36 3.49-.53 1.16-.17 2.57-.38 3.12-.47.55-.08 1.55-.23 2.23-.32.73-.11 1.21-.2 1.2-.24-.02-.03-2.06-.87-4.54-1.86-2.48-.98-6.19-2.46-8.25-3.28-2.06-.81-3.75-1.51-3.77-1.55-.01-.03 1.01-4.67 2.28-10.3l2.31-10.25c-.78-2.98-.84-3.15-.95-3.15-.07 0-.55.09-1.07.19Zm151.54 1.38-.42 1.58c2.53 11.43 3.56 16.05 3.91 17.65.35 1.6.64 2.91.64 2.92-.01.01-3.74 1.5-8.29 3.32-4.55 1.82-8.28 3.33-8.29 3.36-.01.03 1.87.33 4.18.67 2.31.34 5.85.88 7.86 1.2 2.01.32 4.8.78 6.2 1.02 1.4.24 2.57.44 2.61.44.04 0 .06-.98.06-2.82v-2.83c8.15-5.78 10.88-7.7 11.32-8.01l.79-.55-12.11-12.93v-5.03c-.56-.11-.96-.19-1.25-.25-.29-.07-1.91-.39-3.59-.72-1.69-.33-3.09-.6-3.13-.6-.04 0-.26.71-.49 1.58Z" class="shp1"/><path d="m87.38 105.79-1.79.06c-.63.65-.81.84-.81.85.01.01 1.14-.03 2.51-.08 1.37-.05 2.62-.11 2.76-.13l.27-.03c-.72-.66-.85-.74-.99-.74-.09.01-.97.04-1.95.07Zm24.52.48-.38.38c.49.01 1.72.05 3.06.09 1.34.05 2.45.08 2.45.08.01-.01-.17-.2-.4-.43l-.42-.42-3.94-.08-.37.38Zm-37.23.24-1.81.15-.87.88c.58-.05 1.79-.15 3.06-.24s2.35-.17 2.4-.19c.07-.02-.02-.14-.31-.4-.24-.23-.46-.37-.53-.36-.07 0-.94.07-1.94.16Zm49.3-.13c.01.01.15.21.31.43l.3.41s1.05.06 2.34.15c1.29.09 2.47.16 2.62.16h.29l-.82-.8c-3.92-.28-5.05-.36-5.04-.35Zm14.08 1.6c-.21.18-.36.34-.34.37.03.02 1.26.16 2.73.32 1.48.16 2.7.28 2.7.28.01-.01-.16-.21-.37-.44l-.39-.43c-2.95-.33-3.84-.43-3.88-.43-.04 0-.25.15-.45.33Zm-94.71 2.14c-.84.15-1.73.3-1.98.34l-.45.07c-.58.71-.71.91-.67.92.04.02 1.28-.2 2.75-.47l2.68-.49c-.27-.22-.46-.36-.58-.46l-.23-.17-1.52.26Z" class="shp3"/><path d="M92.13 115.77c-.91.02-1.66.05-1.67.05-.01.01-.02 10.44-.03 23.18l-.02 23.16c-4.76 3.92-6.19 5.11-6.24 5.16-.09.08 0 .14.82.55.51.26 1.59.77 2.39 1.15.81.38 2.02.93 2.69 1.22.67.29 1.72.74 2.34 1 .62.26 1.69.68 2.37.95.69.27 1.83.7 2.53.96.71.25 1.59.58 1.97.71l.69.25c1.74-.6 2.78-.98 3.43-1.22.66-.24 1.65-.62 2.22-.84.57-.22 1.54-.62 2.16-.88.61-.25 1.6-.68 2.18-.93.59-.26 1.7-.77 2.47-1.13.77-.36 1.88-.89 2.45-1.17.67-.34 1.03-.55.99-.59-.03-.03-1.46-1.23-3.18-2.66l-3.13-2.59c0-45.11-.01-46.27-.11-46.3-.06-.02-3.61-.05-7.89-.06-4.28 0-8.52.01-9.43.03Z" class="shp2"/><path d="M65.65 117.31c-1.19.12-3.11.31-4.28.44-1.17.12-3.57.4-5.34.62-1.77.22-3.31.42-3.42.43l-.21.04c0 5.97.01 6 .16 6.76.09.42.31 1.19.48 1.7.17.52.51 1.36.75 1.88a24.887 24.887 0 0 0 1.66 2.99c.22.35.58.87.78 1.16.21.29.68.91 1.04 1.37.36.47.97 1.2 1.35 1.63.37.43 1.03 1.16 1.46 1.61.44.46 1.36 1.38 2.07 2.04.7.67 1.7 1.57 2.22 2.01.51.45 1.21 1.04 1.56 1.31.34.28.94.75 1.32 1.05.39.3.74.53.77.51.04-.02.06-4.72.06-13.9v-13.87c-.22.01-1.25.1-2.43.22Zm66.34 13.7-.01 13.94c.99-.74 1.56-1.19 1.91-1.46.34-.28 1.1-.91 1.68-1.42.59-.5 1.54-1.36 2.13-1.91.58-.55 1.45-1.41 1.93-1.9.48-.5 1.23-1.31 1.66-1.81.44-.49 1.1-1.3 1.47-1.78.38-.48.93-1.22 1.22-1.65.3-.43.76-1.15 1.03-1.6.26-.44.7-1.26.97-1.81s.62-1.35.78-1.78c.16-.43.35-1.03.43-1.34.08-.31.21-.86.28-1.22.12-.6.13-.88.13-3.55v-2.88c-.37-.05-1.23-.16-2.16-.28a285.985 285.985 0 0 0-7.4-.88c-1.15-.12-2.85-.28-3.78-.37-.93-.09-1.82-.18-1.98-.2l-.29-.04v13.94Z" class="shp3"/><path d="m46.22 119.81-3.15.53-.43.07c.02 9.02.05 12.23.08 12.95.03.72.11 1.75.16 2.28.06.53.18 1.45.28 2.03.1.59.31 1.59.47 2.22a35.827 35.827 0 0 0 1.17 3.75c.13.36.4 1.02.59 1.47.19.44.63 1.37.98 2.06.34.69.9 1.7 1.23 2.25.33.55.73 1.21.9 1.47.17.25.53.79.81 1.18a41.164 41.164 0 0 0 2.38 3.13c.42.5 1.15 1.34 1.63 1.87.49.54 1.41 1.49 2.06 2.13.65.63 1.6 1.53 2.12 2 .51.46 1.23 1.1 1.59 1.4.36.31 1.2 1 1.87 1.54.67.53 1.8 1.39 2.5 1.91s1.83 1.31 2.5 1.77c.67.45 1.89 1.25 2.72 1.78.82.52 1.87 1.17 2.34 1.45.46.28 1.33.78 1.93 1.13.61.34 1.79.99 2.63 1.45.84.46 2.6 1.36 3.9 2 1.31.65 3.04 1.47 3.84 1.84.81.37 2.16.97 3 1.33.84.36 2.22.94 3.06 1.28.84.34 2.05.82 2.69 1.06.63.24 1.59.59 2.12.78.53.19 2.05.71 3.37 1.15l2.41.79c.68-.19 1.79-.56 2.9-.93 1.12-.38 2.69-.93 3.5-1.22.81-.29 2.13-.79 2.94-1.11.8-.32 1.98-.8 2.62-1.06.64-.27 1.68-.71 2.31-.99.64-.27 1.83-.81 2.66-1.19.82-.37 2.53-1.2 3.81-1.82 1.27-.63 2.94-1.48 3.71-1.91.78-.42 2-1.11 2.72-1.52.72-.41 1.62-.93 2-1.15.38-.23 1.36-.84 2.18-1.36.83-.53 2.05-1.33 2.72-1.78.67-.46 1.8-1.25 2.5-1.77s1.83-1.38 2.5-1.91c.67-.54 1.57-1.27 2-1.64.43-.36 1.11-.96 1.53-1.34.41-.37 1.31-1.23 1.99-1.9.68-.67 1.61-1.63 2.06-2.13.46-.49 1.22-1.36 1.69-1.93.48-.57 1.16-1.43 1.52-1.91.36-.48 1.03-1.43 1.48-2.12.46-.69 1.02-1.57 1.25-1.97.24-.4.74-1.34 1.12-2.09.38-.76.89-1.84 1.12-2.41.24-.57.62-1.61.85-2.31a33 33 0 0 0 .71-2.41c.16-.61.36-1.51.44-1.99.09-.49.22-1.32.29-1.85.06-.53.15-1.56.18-2.28.04-.72.07-4.04.07-7.39 0-3.34-.01-6.07-.03-6.07-.02 0-1.38-.23-3.03-.5-1.65-.28-3.04-.5-3.09-.5-.09 0-.1.74-.1 6.32 0 3.48-.03 6.91-.06 7.61-.04.7-.11 1.63-.16 2.06-.05.43-.19 1.28-.32 1.88-.12.6-.3 1.39-.39 1.75-.1.36-.3 1-.44 1.43-.14.43-.39 1.11-.55 1.5-.15.4-.49 1.17-.74 1.72-.26.55-.65 1.34-.88 1.75a41.031 41.031 0 0 1-1.84 2.98c-.25.36-.8 1.11-1.22 1.65-.41.55-1.13 1.43-1.58 1.96-.46.53-1.56 1.7-2.46 2.6-.9.9-2 1.95-2.44 2.34-.45.4-1.21 1.04-1.69 1.44-.48.4-1.37 1.1-1.97 1.56-.6.47-1.53 1.16-2.06 1.54-.53.38-1.56 1.08-2.28 1.56-.72.48-1.76 1.16-2.31 1.5-.55.34-1.55.95-2.22 1.35-.67.39-1.69.98-2.28 1.31-.58.32-1.51.83-2.06 1.12-.55.3-1.66.87-2.46 1.27-.81.4-1.98.97-2.6 1.26-.61.3-1.58.74-2.15 1-.57.26-1.62.72-2.34 1.03-.72.31-1.82.78-2.44 1.03-.62.26-1.87.75-2.78 1.1-.91.34-1.96.74-2.34.87-.38.14-1.45.51-2.37.83l-1.69.58c-1.94-.67-3.03-1.06-3.69-1.29-.65-.24-1.91-.71-2.81-1.06-.89-.34-2.3-.9-3.12-1.24-.82-.35-2.08-.88-2.78-1.19-.7-.31-1.79-.79-2.4-1.08-.62-.28-1.97-.92-3-1.43a109.847 109.847 0 0 1-5.62-2.96c-.55-.31-1.48-.84-2.07-1.19-.58-.34-1.62-.97-2.31-1.4-.68-.43-1.67-1.07-2.18-1.41-.52-.34-1.47-1.01-2.13-1.47-.65-.47-1.6-1.17-2.12-1.57-.52-.39-1.25-.97-1.62-1.28-.38-.3-.97-.8-1.32-1.09-.34-.29-1.11-.99-1.71-1.55-.6-.55-1.41-1.32-1.79-1.71-.38-.39-1.01-1.06-1.41-1.49-.39-.43-.95-1.08-1.25-1.44-.3-.36-.79-.97-1.08-1.34-.3-.38-.87-1.17-1.27-1.75-.4-.59-.99-1.52-1.31-2.07a33.503 33.503 0 0 1-2.06-4.15c-.18-.43-.44-1.16-.6-1.62-.15-.47-.36-1.16-.47-1.54-.1-.37-.25-1.03-.34-1.46-.09-.43-.22-1.19-.29-1.69-.07-.5-.14-.99-.16-1.09-.03-.11-.06-3.61-.08-7.79l-.05-7.59-2.71.45Z" class="shp1"/><path d="M37.29 121.41c-1.32.26-3.08.63-3.9.8-.83.18-2.26.5-3.19.72-.93.22-2.34.55-3.14.74-.8.19-1.45.37-1.45.4 0 .02 3.17 1.3 7.04 2.84 3.87 1.54 7.05 2.79 7.06 2.78.01-.01.01-1.98 0-4.39l-.02-4.38-2.4.49Zm122.97 3.9c.01 2.42.04 4.4.06 4.4.03 0 3.19-1.26 7.03-2.78 3.84-1.53 6.98-2.81 6.98-2.85 0-.03-.06-.07-.14-.09-.08-.02-.77-.19-1.55-.38-.77-.19-1.99-.49-2.71-.66-.73-.17-2.02-.46-2.88-.65-.86-.18-2.46-.52-3.56-.74-1.1-.22-2.28-.46-2.62-.53l-.62-.12.01 4.4Z" class="shp2"/><path d="M73.45 124.02c0 .04.17.2.38.38l.37.31v7.15c-.54.44-.73.6-.77.65-.06.06.3.08 1.93.07h2l-.78-.72v-2.59h6.56v-2h-6.56v-1.31h7.62c.68.39.89.5.9.5.02 0 .03-.56.03-1.25v-1.25c-9.69 0-11.68.02-11.68.06Zm44.23.03c-.23.05-.52.13-.66.17-.14.05-.38.17-.53.26-.15.09-.44.31-.62.49-.19.18-.42.47-.52.64-.09.18-.19.5-.23.72-.04.23-.07 1.13-.07 2 .01 1.01.03 1.73.08 1.97.04.21.18.54.3.74.12.2.36.49.53.65.17.15.51.37.75.49.24.11.63.25.87.3.37.08 1.14.1 4.64.1h4.2v-2c-6.43 0-8.18-.02-8.31-.06-.12-.03-.3-.15-.4-.25l-.19-.2c-.03-3.22-.02-3.42.08-3.61.06-.14.2-.27.36-.35.24-.12.39-.12 3.9-.14l3.66-.01c.6.39.8.5.84.5.04 0 .06-.46.06-1.25v-1.25c-7.37.01-8.43.03-8.74.09Z" class="shp1"/><path d="M146.95 134.97c-.25.39-.77 1.11-1.14 1.61-.37.5-.97 1.27-1.33 1.72-.37.44-.89 1.06-1.16 1.37-.27.31-.97 1.08-1.56 1.71-.59.63-1.57 1.63-2.19 2.22-.62.58-1.55 1.43-2.06 1.88-.52.46-1.42 1.22-2 1.7-.58.47-1.62 1.28-2.3 1.79l-1.23.92c-.01 7.06.01 7.76.08 7.71.04-.04.44-.36.89-.72.44-.36 1.11-.9 1.47-1.21.36-.31 1.05-.92 1.53-1.35.48-.44 1.42-1.35 2.09-2.04.67-.68 1.43-1.48 1.69-1.77.26-.29.73-.84 1.04-1.22a46.465 46.465 0 0 0 2.34-3.15c.26-.4.67-1.07.92-1.5.25-.43.69-1.25.97-1.81.29-.57.67-1.43.86-1.91.19-.48.47-1.24.61-1.69.14-.44.34-1.13.45-1.53.1-.39.25-1.12.34-1.62.08-.5.17-1.11.19-1.36.02-.25.02-.45 0-.45-.01 0-.24.31-.5.7Zm-94.39-.31c.02.18.11.76.2 1.29.08.54.26 1.39.39 1.91.14.52.35 1.25.48 1.62.12.38.38 1.06.56 1.5.18.45.6 1.36.93 2.03.34.67.78 1.5.99 1.85.21.34.6.96.88 1.37.27.41.83 1.19 1.23 1.72s.99 1.28 1.3 1.66c.32.37 1.03 1.18 1.59 1.78.56.6 1.44 1.48 1.95 1.97.51.48 1.2 1.11 1.52 1.41.33.29.95.82 1.38 1.19.43.36 1.05.87 1.37 1.13.33.26.63.48.67.48.07 0 .08-.81.08-3.84v-3.84c-1.28-.94-2.03-1.51-2.5-1.87-.46-.36-1.25-.99-1.74-1.41a59.497 59.497 0 0 1-3.28-2.91c-.38-.36-1.22-1.2-1.87-1.87-.65-.67-1.68-1.8-2.28-2.5-.61-.71-1.47-1.78-1.92-2.38-.45-.6-1.04-1.43-1.33-1.85-.28-.43-.53-.77-.57-.77-.04 0-.05.12-.03.33Z" class="shp2"/><path d="m70.78 155.74-.01 3.93c2.3 1.51 3.5 2.29 4.15 2.7.65.4 1.85 1.12 2.66 1.59.8.47 1.97 1.13 2.59 1.47.9.5 1.14.61 1.22.55.05-.04 1.47-1.21 3.14-2.61 1.67-1.4 3.04-2.57 3.04-2.6 0-.02-.41-.22-.92-.44s-1.65-.74-2.55-1.15c-.89-.41-2.52-1.2-3.62-1.76s-2.52-1.31-3.15-1.66c-.64-.35-1.5-.84-1.91-1.08-.41-.24-1.21-.72-1.78-1.06-.57-.35-1.34-.83-1.72-1.08-.37-.24-.78-.5-.91-.58l-.22-.15-.01 3.93Zm57.26-3.19c-.6.4-1.76 1.12-2.59 1.61-.82.5-2.11 1.24-2.87 1.66-.76.42-2.26 1.2-3.34 1.75-1.08.54-2.57 1.27-3.31 1.61-.74.34-1.83.83-2.42 1.08-.6.26-1.08.49-1.08.51 0 .03 1.41 1.23 3.13 2.66 1.72 1.43 3.15 2.6 3.19 2.59.03-.01.62-.33 1.32-.71.69-.38 1.84-1.03 2.54-1.45.71-.41 1.84-1.1 2.53-1.52.69-.43 1.89-1.21 2.67-1.73l1.42-.94c.01-6.16-.01-7.79-.04-7.8-.03-.01-.55.29-1.15.68Z" class="shp3"/></svg>