<svg xmlns="http://www.w3.org/2000/svg" width="264.19794" height="300" viewBox="0 0 264.19794 300"><path d="M0 0c.02.041.016.061.041.106.114.242.192.533.192.834 0 .232-.048.472-.162.702-.06.121-.162.208-.251.306.096.275.239.695.239.695.034.133.05.267.05.398 0 .489-.232.945-.645 1.23a1.603 1.603 0 0 1-1.832-.026c-.426-.274-.723-.771-1.004-1.266-.18.192-.367.317-.75.221-.481-.118-.42-.21-.812-.778-1.392-2.027-3.239-5.219-5.368-5.328-.458.055-.599.188-1.154 1.057-4.598 7.328-10.251 11.668-17.735 16.998-.436.372-1.385 1.85-2.304 3.278-1.588 2.47-3.388 5.269-5.208 6.551-1.391 1.005-2.877 1.54-4.311 2.056-1.736.627-3.379 1.217-4.855 2.626-.588.577-1.12 1.352-1.733 2.248-1.25 1.825-2.847 4.054-5.885 6.022.075.442.171 1.04.171 1.771 0 .898-.249 2.306-.653 3.054-.308.57-.789.901-1.243 1.01-.83.201-2.162-.103-3.059-.506 1.772 5.233 5.922 8.69 8.084 10.477 1.2.992 1.884 1.559 1.884 2.326 0 .124-.015.252-.052.389-.313 1.412-1.88 1.486-2.55 1.517l-.13.006c-.915.023-3.837-.077-5.954-1.69a6.024 6.024 0 0 1-1.674-.739c-.025.089-.021.182-.062.269-.255.552-.926 1.093-2.044.951-2.094-.32-3.273-.864-4.072-1.302l-.209-.128c-.733-.438-1.915-1.195-2.795-2.957-.839-.621-1.775-1.571-2.132-2.999-.903-.619-1.645-1.665-1.698-3.017-.558-.659-.898-1.356-1.055-2.087a6.383 6.383 0 0 1-3.214 1.526l-.091.015-.091.002c-.394.007-1.215.023-1.837-.604l-.159-.16-.093-.204a1.446 1.446 0 0 1-.133-.602c0-.503.27-.893.377-1.051l.069-.105c.016-.038.22-1.022.22-1.022l.131-1.08c.329-1.779 1.092-2.707 2.065-3.534-.209-.628-.327-1.207-.327-1.712 0-.86.228-1.564.429-2.182l.089-.283c.011-.099.02-.204.02-.331 0-1.221-.472-3.602-.839-5.009l-.144-.467c-.276-.858-.771-2.403-.771-4.104 0-.614.064-1.248.226-1.878.321-1.074 1.148-2.358 2.299-2.91.043-.019.648-.26.648-.26.579-.219.754-.286 1.001-.682.212-.332.301-1.395.301-2.505 0-.821-.047-1.668-.131-2.261l-.011-.082-.001-.091c0-.597.378-1.146.943-1.369.487-.194 1.224-.166 1.826.486.393.4.731.845 1.03 1.319.079-.117.096-.275.207-.372l.052-.046.057-.039c.207-.145.454-.198.701-.219a59.065 59.065 0 0 0-2.871-1.806C-77.77 9.546-82.424 6.99-83.298 3.858c-11.154-5.43-18.349-16.822-18.349-29.246 0-17.944 14.597-32.544 32.538-32.544 17.953 0 32.559 14.6 32.559 32.544 0 4.251-.867 8.371-2.418 12.203l.42.198.216-.236c.409-.489 1.218-1.08 1.873-1.098a5.259 5.259 0 0 1 1.065.066l.076.021.362-.63c.644-.986 1.684-.96 2.242-.945.347.009.596.015.902-.118.317-.146.435-.588.588-1.586l.126-.729c.182-.789.643-1.162.892-1.362l.009-.009c.05-.248.205-1.048.205-1.048.116-.865.249-1.844 1.159-2.232-.021.009.025.009.086.008.146-.725.178-1.604 1.022-2.111.194-.117.441-.14.689-.161.009-.039.023-.082.023-.082.219-1.112 1.102-1.393 1.435-1.5l.016-.005.552-.904c.353-.638.684-1.241 1.127-1.604l.201-.166.25-.072c.13-.037.258-.052.384-.054 1.072-1.367 4.012-5.754 4.012-9.826 0-.194-.007-.387-.02-.579-.192-2.772-1.326-4.187-2.076-5.123-.86-1.073-.897-2.327-.897-2.82v-.068c.105-1.197.733-1.593 1.189-1.881.486-.259 1.854-.834 3.775-.033 1.585.661 1.923 1.85 2.144 2.636.103.357.171.582.285.694.733.712 1.588 1.741 1.697 3.417.012.137.016.277.016.422 0 1.415-.453 3.194-.889 4.777-.18.673-.422 2.258-.472 3.703.62-.857 1.14-1.717 1.448-2.245l.155-.263c.411-.695 1.583-2.687 1.583-4.628a4.21 4.21 0 0 0-.045-.635c-.215-1.306-.625-2.059-1.102-2.929-.495-.905-1.056-1.929-1.364-3.583a3.885 3.885 0 0 1-.057-.661c0-.904.34-1.691.974-2.229.89-.755 2.224-.901 3.659-.401 1.777.64 2.997 2.657 3.383 5.394l.463.333c.463.52.586 1.108.586 1.599 0 .418-.089.766-.135.945-.949 3.818-1.115 5.684-1.115 7.185 0 .404.011.783.025 1.165l-.062 3.261c-.111.998-.584 1.762-1.003 2.182l-.703.804c-.515.527-1.154 1.18-1.293 1.757-.18.751-.251 1.685-.251 2.73 0 1.822.212 3.983.42 6.097.223 2.272.44 4.471.44 6.417 0 .84-.06 1.614-.155 2.345C-3.141-9.75-.739-4.299.078-2.439l.139.313c.15.4.212.74.212 1.029C.429-.569.221-.228 0 0m-64.229 18.67c.073.564.139.95.205 1.376.121-.058.287-.077.44-.108.16-.894.707-1.365 1.088-1.618l.263-1.037c.013-.031.048-.071.064-.103-.349-.28-.735-.606-1.225-1.041l-.728-.648a71.185 71.185 0 0 0-1.745-1.519c.81 1.336 1.451 3.266 1.638 4.698" style="fill:#fff;fill-opacity:1;fill-rule:nonzero;stroke:none" transform="matrix(2.58825 0 0 -2.58825 263.088 150.058)"/><path d="M0 0c.014-.011.025-.036.037-.049l.137-.156L0 0Z" style="fill:#fff;fill-opacity:1;fill-rule:nonzero;stroke:none" transform="matrix(2.58825 0 0 -2.58825 245.156 226.893)"/><path d="M0 0c0 17.286 14.019 31.3 31.29 31.3 17.291 0 31.311-14.014 31.311-31.3 0-17.287-14.02-31.296-31.311-31.296C14.019-31.296 0-17.287 0 0" style="fill:#ed1c24;fill-opacity:1;fill-rule:nonzero;stroke:none" transform="matrix(2.58825 0 0 -2.58825 3.23 215.767)"/><path d="M0 0c0 15.2 12.334 27.524 27.536 27.524C42.731 27.524 55.063 15.2 55.063 0c0-15.198-12.332-27.514-27.527-27.514C12.334-27.514 0-15.198 0 0" style="fill:#fff;fill-opacity:1;fill-rule:nonzero;stroke:none" transform="matrix(2.58825 0 0 -2.58825 13.04 215.767)"/><path d="M0 0c0 14.078 11.418 25.493 25.494 25.493 14.068 0 25.485-11.415 25.485-25.493 0-14.079-11.417-25.488-25.485-25.488C11.418-25.488 0-14.079 0 0" style="fill:#ed1c24;fill-opacity:1;fill-rule:nonzero;stroke:none" transform="matrix(2.58825 0 0 -2.58825 18.327 215.761)"/><path d="M0 0c-.527.543-.999 1.28-.999 1.28-5.644 8.176-15.09 13.562-25.793 13.562l-.056-.07c-.415-.084-.844-.343-1.436-.678-.951-.5-1.955-.533-2.937-.583-.788.05-.241 1.029-.722.866-.555-.153-1.781-.575-2.311-.909-.05-1.212-3.716-2.475-5.691-1.521.233 2.901 5.048 5.417 11.942 6.456 4.298 2.562 4.904 3.231 7.733 5.737 1.271 1.128 1.855 1.591 2.265 1.675.183.078.055.19-.093.197-.388.164-.568.431-.712.739-.226.476-.075 1.041-.397 1.34-.376.26-.842.448-.89 1.074-.022.319-.045.825-.504.861-.641-.02-.871-.157-.944 1.159-.032.575-.012 1.503-.31 1.527-.431.042-.856-1.4-1.319-4.945-.337-2.579-1.871-5.496-2.402-5.127-.511.445-.08 3.107-.863 4.292-.121.214.252-2.92-2.111-5.333-.325-.352-.605-.145-.603.035.09.652.406 4.441-.349 5.6-.593.953-1.234 1.003-2.167 1.408-.771.369-1.407 1.348-1.631 2.095-.624 2.422.477 4.997.689 5.822.207.798 1.055 4.398.843 5.899-.344 1.143-.87 2.181-.113 3.949.113.185.204.32.054.476-1.129.867-1.884 1.553-2.203 3.271-.187 1.011-.032 1.461-.419 2.337-.134.35-.439.548-.334.779.24.24.6.24.927.235 1.871-.312 2.994-1.36 3.701-2.502.243.482.44.774.781 1.109-.076 1.158.46 2.035 1.229 2.789-.13 1.437.849 2.314 1.541 2.629.108 1.227.843 2.13 2.01 2.947.793 1.817 1.963 2.404 2.65 2.826.73.401 1.77.874 3.624 1.159.799.1.97-.397.598-.738-1.204-.973-4.01-3.97-5.153-7.293.363.645 1.236 1.742 2.324 2.257.614 1.601 2.106 2.425 3.007 2.869.527.964 1.688 2.175 3.374 2.534 1.893 1.623 4.984 1.581 5.363 1.572.625-.033 1.412-.026 1.539-.599.219-.823-9.181-5.662-10.623-15.418-.052-.435 2.306 2.225 4.772 1.823a.596.596 0 0 0 .311-.304c1.147-2.479.057-4.758.335-4.927 4.877-2.867 5.938-6.493 8.036-8.546 2.954-2.818 6.415-2.711 9.309-4.798 2.754-1.943 5.904-8.478 7.508-9.827 6.93-4.937 12.771-9.265 17.404-16.651.614-.962 1-1.539 2.188-1.646 2.582.066 4.71 3.123 6.435 5.906.096.146.217.188.322.106.205-.159.091-.572.305-.596.566-.078 1.043 1.606 1.618 1.977.228.163.57.023.495-.267-.171-.643-.573-1.393-.6-1.882 0-.121.105-.093.166-.016a.399.399 0 0 0 .372.148c.242-.052.219-.365.148-.515-.212-.397-.394-.803-.422-1.266-.011-.395.304-.111.493-.222.265-.121.212-.438.068-.818-.72-1.595-2.931-7.437-8.184-6.679-.673.118-1.018.606-.815-.146 1.344-4.526-1.302-14.353-.18-19.032.322-1.338 1.841-2.42 2.309-3.119.276-.264.591-.82.661-1.442.354-3.992-.661-4.369 1.184-11.808.155-.609.137-1.056-.18-1.414-.329-.378-.575-.214-.675-.566-.242-2.398-1.23-4.294-2.639-4.804-1.949-.677-3.221.242-2.939 1.884.55 2.97 1.978 3.538 2.473 6.558.374 2.56-1.175 5.19-1.699 6.084-.488.819-1.727 3.052-3.262 4.471-.203.249-.37.189-.441-.024-.584-1.847.03-5.635.292-6.613.432-1.57.927-3.504.833-4.783-.082-1.256-.723-2.025-1.318-2.603-.913-.883-.331-2.361-2.044-3.075-1.255-.524-2.181-.298-2.605-.076-.395.248-.584.359-.628.842-.002.575.06 1.4.623 2.103.915 1.144 2.133 2.764 2.345 5.813.399 5.524-4.514 11.816-4.824 11.887-.318.07-.206-.207-.454-.136-.489.402-1.07 1.889-1.59 2.444-.281.389-.986.22-1.098.775-.059.428-.234.859-.581 1.04-.226.133-.39-.095-.596.016-.602.47-.625 2.162-.823 2.27-.214.092-.413-.081-.568 0-.438.187-.331 1.603-.682 2.607-.164.527-.7.509-.849 1.145-.235 1.147-.203 2.642-1.437 3.209-1.263.55-2.073-.205-2.673.705-.32.393-.265 1.038-1.086 1.124-.433.215-.607.748-.999.628-.212-.061-.037-.473-.472-.749-.589-.04-1.177 1.548-1.994 1.477-.269-.102-.374-.41-.68-.429-.351-.015-.381 1.777-1.528 2.208-.205.078-.358-.301-.534-.05 0 0-.47.358-1.015.933" style="fill:#231f20;fill-opacity:1;fill-rule:nonzero;stroke:none" transform="matrix(2.58825 0 0 -2.58825 153.62 173.184)"/><path d="M0 0c-.527.543-.999 1.28-.999 1.28-5.644 8.176-15.09 13.562-25.793 13.562l-.056-.07c-.415-.084-.844-.343-1.436-.678-.951-.5-1.955-.533-2.937-.583-.788.05-.241 1.029-.722.866-.555-.153-1.781-.575-2.311-.909-.05-1.212-3.716-2.475-5.691-1.521.233 2.901 5.048 5.417 11.942 6.456 4.298 2.562 4.904 3.231 7.733 5.737 1.271 1.128 1.855 1.591 2.265 1.675.183.078.055.19-.093.197-.388.164-.568.431-.712.739-.226.476-.075 1.041-.397 1.34-.376.26-.842.448-.89 1.074-.022.319-.045.825-.504.861-.641-.02-.871-.157-.944 1.159-.032.575-.012 1.503-.31 1.527-.431.042-.856-1.4-1.319-4.945-.337-2.579-1.871-5.496-2.402-5.127-.511.445-.08 3.107-.863 4.292-.121.214.252-2.92-2.111-5.333-.325-.352-.605-.145-.603.035.09.652.406 4.441-.349 5.6-.593.953-1.234 1.003-2.167 1.408-.771.369-1.407 1.348-1.631 2.095-.624 2.422.477 4.997.689 5.822.207.798 1.055 4.398.843 5.899-.344 1.143-.87 2.181-.113 3.949.113.185.204.32.054.476-1.129.867-1.884 1.553-2.203 3.271-.187 1.011-.032 1.461-.419 2.337-.134.35-.439.548-.334.779.24.24.6.24.927.235 1.871-.312 2.994-1.36 3.701-2.502.243.482.44.774.781 1.109-.076 1.158.46 2.035 1.229 2.789-.13 1.437.849 2.314 1.541 2.629.108 1.227.843 2.13 2.01 2.947.793 1.817 1.963 2.404 2.65 2.826.73.401 1.77.874 3.624 1.159.799.1.97-.397.598-.738-1.204-.973-4.01-3.97-5.153-7.293.363.645 1.236 1.742 2.324 2.257.614 1.601 2.106 2.425 3.007 2.869.527.964 1.688 2.175 3.374 2.534 1.893 1.623 4.984 1.581 5.363 1.572.625-.033 1.412-.026 1.539-.599.219-.823-9.181-5.662-10.623-15.418-.052-.435 2.306 2.225 4.772 1.823a.596.596 0 0 0 .311-.304c1.147-2.479.057-4.758.335-4.927 4.877-2.867 5.938-6.493 8.036-8.546 2.954-2.818 6.415-2.711 9.309-4.798 2.754-1.943 5.904-8.478 7.508-9.827 6.93-4.937 12.771-9.265 17.404-16.651.614-.962 1-1.539 2.188-1.646 2.582.066 4.71 3.123 6.435 5.906.096.146.217.188.322.106.205-.159.091-.572.305-.596.566-.078 1.043 1.606 1.618 1.977.228.163.57.023.495-.267-.171-.643-.573-1.393-.6-1.882 0-.121.105-.093.166-.016a.399.399 0 0 0 .372.148c.242-.052.219-.365.148-.515-.212-.397-.394-.803-.422-1.266-.011-.395.304-.111.493-.222.265-.121.212-.438.068-.818-.72-1.595-2.931-7.437-8.184-6.679-.673.118-1.018.606-.815-.146 1.344-4.526-1.302-14.353-.18-19.032.322-1.338 1.841-2.42 2.309-3.119.276-.264.591-.82.661-1.442.354-3.992-.661-4.369 1.184-11.808.155-.609.137-1.056-.18-1.414-.329-.378-.575-.214-.675-.566-.242-2.398-1.23-4.294-2.639-4.804-1.949-.677-3.221.242-2.939 1.884.55 2.97 1.978 3.538 2.473 6.558.374 2.56-1.175 5.19-1.699 6.084-.488.819-1.727 3.052-3.262 4.471-.203.249-.37.189-.441-.024-.584-1.847.03-5.635.292-6.613.432-1.57.927-3.504.833-4.783-.082-1.256-.723-2.025-1.318-2.603-.913-.883-.331-2.361-2.044-3.075-1.255-.524-2.181-.298-2.605-.076-.395.248-.584.359-.628.842-.002.575.06 1.4.623 2.103.915 1.144 2.133 2.764 2.345 5.813.399 5.524-4.514 11.816-4.824 11.887-.318.07-.206-.207-.454-.136-.489.402-1.07 1.889-1.59 2.444-.281.389-.986.22-1.098.775-.059.428-.234.859-.581 1.04-.226.133-.39-.095-.596.016-.602.47-.625 2.162-.823 2.27-.214.092-.413-.081-.568 0-.438.187-.331 1.603-.682 2.607-.164.527-.7.509-.849 1.145-.235 1.147-.203 2.642-1.437 3.209-1.263.55-2.073-.205-2.673.705-.32.393-.265 1.038-1.086 1.124-.433.215-.607.748-.999.628-.212-.061-.037-.473-.472-.749-.589-.04-1.177 1.548-1.994 1.477-.269-.102-.374-.41-.68-.429-.351-.015-.381 1.777-1.528 2.208-.205.078-.358-.301-.534-.05 0 0-.47.358-1.015.933Z" style="fill:none;stroke:#231f20;stroke-width:.148;stroke-linecap:butt;stroke-linejoin:miter;stroke-miterlimit:4;stroke-dasharray:none;stroke-opacity:1" transform="matrix(2.58825 0 0 -2.58825 153.62 173.184)"/><path d="M0 0c.493.617 1.487.9 1.444 1.097-.087.18-.456.018-.732 0-.117-.018-.274.01-.256.147.466 1.63 2.058 1.922 2.541 2.439.056.1 0 .1-.125.17-.252.01-.655-.265-.655-.025.188 1.624 2.168 2.405 2.54 2.534.095.084.009.197-.114.217-.169-.02-.306-.123-.329.084.192.805 1.266 1.451 1.96 1.795.707.29 2.105.72 2.105.506 0-.086-1.097-.619-1.46-1.16-.301-.446-.575-.738-.597-1.442-1.125-.552-1.679-1.795-1.755-2.981-.796-.41-1.407-1.854-1.145-2.448-.917-.892-1.369-2.178-1.319-3.47C.116-5.136.705-6.126 2.895-6.931c.324-.104.632-.123.694.033.077.155-.19.25-.288.474-1.191 2.654.311 3.983 2.407 4.876.164.079.041.266-.205.26-.566.006-1.075-.14-1.145.043-.306.866 1.945 2.662 3.054 3.003.47.139.271.377.077.343-.296.027-.755-.145-.903.242.283.978 2.982 2.275 3.378 2.508.244.154.347.432-.846.188-.112-.016-.235-.016-.182.147.225.705 2.751 1.692 4.035 2.137.203.095.26.411-.345.292-.219-.033-.62-.179-.698-.017.078.955 2.868 1.691 3.865 1.908.225.076.267.205.07.299-.317.096-.818-.154-.627.179.751.475 2.737.482 3.426.37.192-.034.238-.078.256-.119-.215-.499-3.554-1.477-3.967-3.485-1.001-.414-1.98-1.367-2.094-2.183-.527-.284-1.581-1.151-1.642-2.345C10.64 1.793 9.132.454 9.634-1.17c-.806-.755-1.428-1.527-1.396-3.648.011-.73-.938-1.916-1.916-2.191-.276-.11-.167-.334.031-.386 1.64-.484 3.164.406 3.76.971 1.893 1.802 3.155 2.454 4.005 2.56.155.041.155-.071.181-.158.12-.472.415-1.621.004-3.234-.538-2.019-2.083-2.955-2.52-3.506-.078-.078.216-.936.059-1.375-.178-.556.023-.902.228-.986.559-.207.956 1.881 1.291 1.828.269-.015.224-.471.545-.635.171-.06.42-.008.45.182.041.583.257 2.009.399 2.162.102.128.42-.517.438-.909.023-1.625-.89-3.005-.354-4.123.119-.241.388-.222.575-.044.49.526.826 2.432 1.916 2.672 1.469.326 2.922-3.701 1.887-4.776-.502-.427-1.134-.05-1.757-.396-.67-.392-.613-1.886-1.072-2.506-.271-.274-.595-.319-1.225-.369-1.332-.103-.926-3.908-.721-4.586.133-.403.415-.326.603-.189.191.162.337.946.376 1.677.055.23.458.323.748.607.313.243.148.509.338.746.271.303.538.036.759.374.575.477.167 1.226.63 1.542.682.448 1.289.225 1.891.885.369.411.417 1.28.935 1.427 2.758.067 5.502-3.111 5.972-4.055 1.364-2.823-.819-7.085.673-7.901 1.877-1.091 1.471-3.21 1.266-3.743-.406-1.082-3.41-2.458-3.798-4.962-.194-2.407 1.061-1.909 1.15-1.609.095.303.18.696.328.996.119.267.486.15.529-.109.071-.225.587-.868 1.351.548.481.901 1.777 2.062 2.749 2.731.955.677 1.184 2.799 1.35 3.282.125.418.477.418.529.867.037.463-.835 1.999-.317 3.1.242.367.823.627 1.259.121.456-.527-.283-2.254.543-2.293.705-.02.783.807 1.392.753.622-.12-.498-2.396.116-2.747.376-.154.849.026 1.04-.351.173-.628-.951-1.771.018-1.771 10.272.181 14.025-7.9 13.365-9.376-.308-.56-1.546.275-1.724-.292-.938-3.162 1.181-5.557 1.795-5.97.18-.103.504.043.479.439-.102.902-.602 1.384-.502 2.276.174 1.571 3.682.602 3.86-.594.068-.448.093-.815.488-1.193.5-.472 1.697.061 1.814-.985.152-2.03-2.38-2.147-4.131-3.403-.835-.643-.646-1.091.061-1.321.842-.225 2.19.016 2.87-.981.967-1.384-.304-4.276-.377-5.495-.07-1.238 2.145-4.852 2.19-6.699.16-.92-.474-1.417-1.257-.66-.755.789-1.544 2.007-2.13 2.921-.171.287-.618.307-.609-.285-.009-1.599 7.559-11.448 7.751-13.062.173-.851-.299-1.57-.098-2.396.066-.242.376-.104.401-.297.041-.547-.515-1.376.276-1.772.393-1.083 0-1.534.206-2.431.102-.893.524-2.13.62-3.032-.212-2.542-1.186-3.532-1.962-3.909-.668-.334-.944.266-.882.785.175 1.537 1.879 4.264 1.199 7.337-1.747 7.904-10.205 13.513-11.617 16.517-.454 1.134-2.076 1.261-2.17 2.592-.162.43-.588.301-.951.695-.305.345-.294 1.383-.623 2.142-.095.239-.392.119-.611.348-1.202 1.583-.944 9.311-2.016 10.367-.792.441-1.406-.786-2.391-.89-.753-.077-1.998 1.794-2.455 1.321-.369-.37-.209-1.321-.18-1.469.039-.13.226-.791-.029-.791-.231-.009-.562.465-1.515.852-.636.231-1.239 0-1.533.191-.65.701.023 2.178-1.07 2.599-.306.119-.36.9-.518 1.211-.15.223-.463.206-.604.378-.297.447-.504.996-.636 1.624-.112.431-1.109-.105-1.187.575-.095.455-.629.599-1.042.669-.504.061-.292 1.167-.73 1.35-.187.085-.256-.129-.452-.029-.201.251-.164.491-.42.671-.216.147-.428-.101-.586.077-.636.774-.13 2.073-.461 2.456-.219.24-.595-.026-.926.26-.324.246-.376.652-.57.711-.566.01-.764.113-.994.395-1.031 1.442-.915 3.101-1.269 3.692-.23.388-.577.629-.837-.101-.518-1.255-.463-5.934-1.964-6.571-1.156-.567-2.188 1.426-2.758 1.779-.255.136-.301-.285-.483-.302-.527.207-.409.833-.835 1.081-.413.182-.238-.402-.475-.351-.41.378-.41 1.39-.775 1.571-.295.113-.468-.232-.637-.086-.593.516-.178 1.666-.894 2.029-.31.101-.265-.423-.584-.275-.306.112-.253 1.743-1.207 1.587-.141-.016-.095.207-.194.292-.282.036-.479-.357-.773-.103a4.706 4.706 0 0 1-.969.99c-.402.341-.997-.089-1.492.281-1.743.765-5.737-2.284-7.536-4.071-.656.613-1.541-.033-2.287-.109-.268-.062-1.108-.027-.45.881 1.634 1.729 2.827 1.644 5.902 3.842 2.249 1.648 4.266 3.254 4.991 3.727.598.308 1.549.567 2.348-.484 1.124-1.467 3.636-3.931 4.705-4.414 2.199-.952 2.309.733 2.578 1.317.235.59.381.101.367-.459-.004-.366.133-.88.431-.932.603-.07.61.385.696.677.687 2.705 3.349 5.958 4.401 5.29.768-.491 1.224-.491 1.407.437.201 1.195-.721 2.292-.97 3.549-.257 1.459-.098 3.374-.654 3.639-.324.139-.771-.178-1.022-.531-.335-.447-.335-.92-.449-1.461-.055-.299-1.269-.628-1.406-2.199-.011-.283-.472.284-.8 0-.676-.514-.555-3.065-.771-3.211-.253-.025-.557.258-.66-.111.055-.412-.173-1.408-.371-1.486-.167-.05-.343.153-.578.016-.581-.488-.346-1.165-.907-1.811-.343-.422-.578-.127-.616.243-.082.63-.587 1.577-1.029 2.026-1.296 1.337-.495 3.571-2.327 4.499-.55.274-.582.541-.643 1.036-.021.543-.333.919-.616.991-.504.146-.591.42-.611.773.045.952-.664.994-1.043 1.074-.894.085-.924.256-.643 2.49.082.539.087 1.16-.087 1.666-.467.689-1.492.248-1.35 1.373.107.739 1.43 1.7 1.996 2.31.342.385.561 1.382-.621 1.141-2.682-.714-4.822-5.468-5.326-6.379-1.941-3.556-3.628-4.974-5.206-5.521-.738-.259-3.294-.498-3.816 2.007-.27 1.316.054 2.552.652 4.612 2.591 9.008-.303 7.292 1.113 10.292.913 1.019 2.208.88 3.522 1.039.291.038.187.417.117.529-.053.104-.359.233-.762.308-.402.068-1.264.834-1.339 1.658-.076.903.506 1.462.892 1.855.549.543.945.602.954.721-.033.481-1.046-.194-1.135 0C-1.031-1.17-.411-.484 0 0" style="fill:#fff;fill-opacity:1;fill-rule:nonzero;stroke:none" transform="matrix(2.58825 0 0 -2.58825 82.061 32.478)"/><path d="M0 0c-.034-.326-.034-.832.402-1.882-.436-.06-.701-.445-1.083-.233C-1.873-1.462-2.542-.248-2.929.98c-.25.705-.226 1.543-.619 2.179C-1.487 3.021.024.242 0 0" style="fill:#fff;fill-opacity:1;fill-rule:nonzero;stroke:none" transform="matrix(2.58825 0 0 -2.58825 74.817 44.617)"/><path d="M0 0c.11.033.148-.042.148-.087-.086-1.469-1.644-4.406-3.672-4.929-.119-.025-.194-.009-.235.102-.185 1.022.458 2.758 2.107 3.393C-.835-1.204-.449-.661 0 0" style="fill:#231f20;fill-opacity:1;fill-rule:nonzero;stroke:none" transform="matrix(2.58825 0 0 -2.58825 117.894 45.461)"/><path d="M0 0c.096-.377.025-.404-.297-.189C-1.357.92-2.261.635-2.904.299-3.216.17-3.312.18-3.221.463-2.245 1.957-.465 1.219 0 0" style="fill:#231f20;fill-opacity:1;fill-rule:nonzero;stroke:none" transform="matrix(2.58825 0 0 -2.58825 100.223 60.399)"/><path d="M0 0c.535-.766.302-1.96-.161-2.854-.367-.685-.969-1.786-1.204-2.267-.098-.288-.308-.308-.484-.229-.175.034.649 1.408.884 3.019.095.661-.081 1.626.4 2.347C-.398.255-.152.178 0 0" style="fill:#231f20;fill-opacity:1;fill-rule:nonzero;stroke:none" transform="matrix(2.58825 0 0 -2.58825 85.967 60.93)"/><path d="M0 0c.388-.895-.561-1.333-1.115-1.443-.388-.069-.68.041-1.009.256-.182.13-.084.224-.228.292-.296.018-.226-.171-.546-.247-.221-.027-.239.076-.091.299.361.6.557 1.023 1.15 1.263C-1.284.643-.477.875 0 0" style="fill:#231f20;fill-opacity:1;fill-rule:nonzero;stroke:none" transform="matrix(2.58825 0 0 -2.58825 97.578 62.798)"/><path d="M0 0c.461-1.796.121-2.491-.292-2.92-.153-.139-1.119-.311-1.245.926.482.583.779 1.468 1.068 2.097.203.402.33.43.469-.103" style="fill:#231f20;fill-opacity:1;fill-rule:nonzero;stroke:none" transform="matrix(2.58825 0 0 -2.58825 89.53 72.534)"/><path d="M0 0c-.209-1.127-.671-1.699-1.471-1.88-.933-.112-1.331.92-1.212.913.909-.166 1.869.351 2.441 1.088C-.105.317.034.181 0 0" style="fill:#231f20;fill-opacity:1;fill-rule:nonzero;stroke:none" transform="matrix(2.58825 0 0 -2.58825 80.266 85.384)"/><path d="M0 0c.516-.164.73-.693.55-.996-.212-.489-.65-.823-.659-1.294-.01-.396-.08-.637-.395-.739-.58-.062-.917 1.143-1.437.307-.283-.429-.867-.136-.942.103-.103.371-.326.748-.698.764C-4.79-1.819-5.089.072-4.895.584-3.965 2.776-1.672.577 0 0" style="fill:#231f20;fill-opacity:1;fill-rule:nonzero;stroke:none" transform="matrix(2.58825 0 0 -2.58825 198.792 130.55)"/><path d="M0 0c-.636-.475-1.065-1.074-1.417-1.728-.761-.12-1.994-.635-2.875-1.031-.325-.17-1.564-.265-2.681-.395-.171.017-.212.121-.212.258C-7.274-2.046-2.017.1 0 .308.184.308.294.221 0 0" style="fill:#fff;fill-opacity:1;fill-rule:nonzero;stroke:none" transform="matrix(2.58825 0 0 -2.58825 75.726 129.612)"/><path d="M0 0c.164-.429-.29-.969-.762-1.493-.465-.542-2.473-1.958-4.147-1.881-.463.069-.965.577-.807 1.193.162.525 1.777.662 3.018 1.091.905.309 1.334.499 2.05 1.049C-.196.3-.093.096 0 0" style="fill:#fff;fill-opacity:1;fill-rule:nonzero;stroke:none" transform="matrix(2.58825 0 0 -2.58825 255.317 157.757)"/><path d="M0 0c.303-.01.26.094.525 0C.76-.01.753-1.023.721-1.546c-.057-.326-.135-.877.21-1.126.308-.265-.406-1.237.109-1.708.285-.394-.319-1.43.144-2.001.226 0 .397-.067.515-.254-.196-1.198.34-3.087.151-3.635-.525-.824-.919-.741-1.366-2.098-.676-1.312-2.58-.494-2.206.566C-.376-9.524.119-6.988.189-5.882.413-3.008-1.102 1.564-1.268 2.2c-.037.575.086.919.54.403C-.059 1.555-.301.06 0 0" style="fill:#fff;fill-opacity:1;fill-rule:nonzero;stroke:none" transform="matrix(2.58825 0 0 -2.58825 218.352 238.905)"/><path d="m0 0-.062-.276-1.764 2.628-.742-9.18h-.238l-.723 9.18-1.768-2.628s-3.023 13.912-3.24 14.917L-11.778-.276s-1.461 2.174-1.768 2.628l-3.107-39.021-.001-.047a25.277 25.277 0 0 1 13.953-4.181h.036c4.989 0 9.814 1.448 13.954 4.184v.053L8.194 2.352C7.886 1.896 6.426-.276 6.426-.276L3.177 14.642C2.961 13.639 0 0 0 0" style="fill:#fff;fill-opacity:1;fill-rule:nonzero;stroke:none" transform="matrix(2.58825 0 0 -2.58825 91.267 175.646)"/><path d="m0 0-3.125 39.365-1.8-2.679-3.308 15.182-3.296-15.182-1.798 2.679-.771-9.524-.749 9.524-1.801-2.679-3.299 15.182-3.299-15.182-1.801 2.679L-28.184 0v-.123a25.42 25.42 0 0 1 14.073-4.234h.036A25.37 25.37 0 0 1 0-.123V0Z" style="fill:#231f20;fill-opacity:1;fill-rule:nonzero;stroke:none" transform="matrix(2.58825 0 0 -2.58825 120.8 270.53)"/><path d="m0 0-4.017 13.896L-53.602-.049l3.068-14.152L0 0Z" style="fill:#fff;fill-opacity:1;fill-rule:nonzero;stroke:none" transform="matrix(2.58825 0 0 -2.58825 153.148 212.15)"/><path d="m0 0 6.502 2.019-1.146-12.241L.813-11.49l.776 8.319-1.953-.676L0 0Z" style="fill:#ed1c24;fill-opacity:1;fill-rule:nonzero;stroke:none" transform="matrix(2.58825 0 0 -2.58825 38.557 210.143)"/><path d="M0 0c-.116-1.269-1.462-2.35-2.676-2.72-1.236-.322-2.428.033-2.308 1.314.121 1.33 1.468 2.448 2.689 2.767C-1.084 1.709.116 1.313 0 0" style="fill:#ed1c24;fill-opacity:1;fill-rule:nonzero;stroke:none" transform="matrix(2.58825 0 0 -2.58825 69.934 227.085)"/><path d="m0 0 8.426 2.386-.313-3.533-3.839-1.051-.11-1.289 3.368.936-.308-3.152-3.36-.953-.408-4.283-4.616-1.301L0 0Z" style="fill:#ed1c24;fill-opacity:1;fill-rule:nonzero;stroke:none" transform="matrix(2.58825 0 0 -2.58825 77.683 198.654)"/><path d="M0 0c-.673.452-1.547.748-2.585.463C-3.958.075-5.18-1.282-5.31-2.619c-.124-1.334.969-2.045 2.335-1.658 1.057.291 1.933.96 2.733 1.874L-.81-7.019c-.759-.548-2.479-1.168-3.296-1.398-3.6-1.008-6.157.911-5.828 4.388.33 3.573 3.501 7.241 7.203 8.289 1.029.291 2.076.42 3.023.342L0 0Z" style="fill:#ed1c24;fill-opacity:1;fill-rule:nonzero;stroke:none" transform="matrix(2.58825 0 0 -2.58825 127.583 197.16)"/><path d="M0 0c-.047-.487-.391-.958-.768-1.1-.359-.086-.618.24-.581.73.023.5.366.97.737 1.045C-.234.825.04.487 0 0m1.956.566c-.034-.498-.374-.969-.75-1.096C.83-.652.583-.309.617.163c.049.489.365.962.745 1.078.368.127.644-.194.594-.675m1.289-5.153C3.031-7.179 1.383-9.179-.489-9.69c-1.873-.528-3.266.631-3.046 3.219.209 2.529 1.872 4.594 3.74 5.121 1.853.524 3.244-.711 3.04-3.237M-1.3-5.89c-.081-.935.35-1.425 1.013-1.257.669.19 1.201.963 1.282 1.863.07.887-.312 1.479-1.013 1.272C-.714-4.207-1.22-5.052-1.3-5.89" style="fill:#fff;fill-opacity:1;fill-rule:nonzero;stroke:none" transform="matrix(2.58825 0 0 -2.58825 76.201 239.327)"/><path d="m0 0 2.222.6-.453-5.468 1.861.52-.215-2.6-4.09-1.115L0 0Z" style="fill:#fff;fill-opacity:1;fill-rule:nonzero;stroke:none" transform="matrix(2.58825 0 0 -2.58825 87.487 240.148)"/><path d="m0 0 2.14.568 1.624-3.919h.05c-.02.675-.064 1.335-.009 2.035l.214 2.413 2.124.588-.673-8.056-2.13-.586-1.595 3.684-.087-.016c.028-.543.05-1.037 0-1.588l-.216-2.63-2.108-.573L0 0Z" style="fill:#fff;fill-opacity:1;fill-rule:nonzero;stroke:none" transform="matrix(2.58825 0 0 -2.58825 99.568 236.77)"/><path d="m0 0 2.158.602-.354-3.52.052.015c.087.345.242.673.391 1.006L3.533.99l2.429.67-2.246-4.455 1.781-3.566-2.575-.721-.869 2.165c-.103.265-.267.511-.273.821l-.061-.015-.241-3.373-2.158-.587L0 0Z" style="fill:#fff;fill-opacity:1;fill-rule:nonzero;stroke:none" transform="matrix(2.58825 0 0 -2.58825 53.007 249.757)"/></svg>