<svg xmlns="http://www.w3.org/2000/svg" width="1363.4pt" height="496.87pt" version="1.2" viewBox="0 0 1363.4 496.87"><defs><clipPath id="a"><path d="M0 0h596v539H0z"/></clipPath><clipPath id="b"><path d="M0 0h596v539H0z"/></clipPath><clipPath id="c"><path d="M0 0h183v38H0z"/></clipPath><clipPath id="d"><path d="M0 0h73v27H0z"/></clipPath><clipPath id="e"><path d="M0 0h304v120H0z"/></clipPath></defs><g stroke-width=".38689"><path fill="#fff" d="M1281.554 150.693s-1.39-5.05-6.624-5.05H718.91c-22.673-22.434-48.347-34.11-48.401-34.147h347.558s5.215 0 3.825-5.032L993.767 5.033S992.377 0 987.143 0H4.053S-1.162 0 .228 5.033l28.124 101.431s1.41 5.032 6.624 5.032h47.926s5.233 0 6.624 5.051l91.036 328.257s1.39 5.032 6.624 5.032h238.562s5.234 0 6.076.732c.86.732 54.273 46.297 137.059 46.297 83.643 0 134.843-45.563 135.668-46.297 0 0 .805-.732 6.038-.732h648.683s5.233 0 3.824-5.032z"/><path fill="#fddc02" d="M475.98 441.498c64.101 37.421 140.702 27.54 187.583-.018l26.15.018c-73.453 53.78-172.175 47.706-239.55 0z"/><path fill="#fddc02" d="M450.16 441.498C390.616 399.336 355.573 324.641 384.139 230h-55.17l54.986 202.55H196.813L102.17 91.654H44.018L23.231 17.178h958.303l20.44 77.166H292.319l17.804 65.895h119.84c96.562-91.274 231.207-55.977 283.36 2.854h555.117l75.426 268.447H702.24a192.324 192.324 0 0 1-12.516 9.955h-26.15c6.368-3.751 12.17-7.814 17.33-12.132-4.045-14.621-7.924-29.425-11.968-44.375-25.912 24.027-77.368 51.273-150.16 18.995-63.791-32.609-107.14-128.093-22.91-205.422 31.73-26.553 77.55-36.305 113.142-25.545-4.227-16.304-7.923-32.609-12.15-48.913-84.065-10.76-163.372 28.747-197.554 111.605-21.684 53.635-13.395 140.882 63.607 197.352 4.3 3.038 8.655 5.856 13.083 8.436zm70.98-67.194-1.481 7.648c.512-2.58.988-5.105 1.482-7.648m-59.472-89.007c9.699 16.304 27.32 27.741 54.457 33.451 1.062-3.696 2.123-7.228 3.166-10.924-23.44-4.703-39.817-13.944-47.576-28.236-3.35 1.848-6.698 3.861-10.046 5.71m156.49-89.245c13.047-26.24 31.896-40.861 53.579-49.59-1.41-3.532-3.001-7.063-4.593-10.43-24.484 9.588-45.29 26.222-59.562 55.462zm96.4-15.133c-49.7 22.361-77.02 49.241-91.641 105.383 3.696 1.007 7.393 2.196 10.924 3.203 1.226-3.861 2.635-7.906 3.88-11.767 34.366 26.057 49.517 62.692 56.744 96.49 4.044-.677 7.228-1.519 11.272-2.031-10.393-48.236-31.546-83.698-64.485-105.712 7.392-19.836 18.134-34.968 32.06-47.083 44.943 34.129 66.975 81.028 69.792 138.687 3.88 0 7.76.165 11.62.165-4.044-65.382-29.424-113.124-72.591-146.245 11.986-8.728 23.788-15.627 36.47-20.677-1.043-.494-1.94-.494-3.001-.842 2.305-3.184 4.593-6.222 6.715-9.406-1.244-.329-2.47-.677-3.531-.677-1.226 0-2.635.165-4.227.513M275.213 417.762h24.155c-1.592-5.544-3.184-11.437-4.758-17.31-7.063 4.025-14.291 7.063-22.215 7.721zm451.315-239.878c56.56 71.11 55.152 172.301-8.82 238.873h605.853l-67.137-238.873zM150.786 31.988H43.28l12.517 44.886h58.171l94.807 340.896h50.394c-1.062-3.532-2.123-7.393-3.184-11.09-35.775-11.089-42.288-49.936-20.257-72.115zm117.898 303.909c-16.743 0-30.303 12.955-30.303 28.747 0 15.975 13.56 28.912 30.303 28.912 16.56 0 30.138-12.937 30.138-28.912 0-15.792-13.578-28.747-30.138-28.747m-61.503-303.91 82.657 294.346c22.544 12.444 32.06 36.14 17.255 61.687 2.654 10.082 5.472 20.019 8.29 29.755h48.455l-54.806-202.716h81.41c7.411-15.297 15.865-28.581 25.747-39.856H297.94l-25.746-95.812H982.03l-12.7-47.393zm369.354 188.26c-4.227-.165-7.923-.33-10.924-.165-3.166 0-6.35 0-9.699-.677-1.39-.842-2.287-2.855-2.287-5.874 0-.512-.695-1.171-1.41-.677-2.817 2.196-2.817 5.38-1.756 7.228 1.226 2.013 3.349 3.367 5.82 4.044.694.165 1.408.33 2.103.33 1.245 0 2.654 0 5.289.164 2.287 0 4.593 0 6.697-.165 2.599-.165 4.85-.165 6.753-.329l-.348-2.525a16.122 16.122 0 0 1-.238-1.354M271.85 321.275l-80.715-289.28h-24.483l82.472 293.493c6.515-2.69 13.926-4.373 22.727-4.209"/><g fill="#211e1e"><path d="M598.263 202.103c1.41-.494 2.818-1.171 4.227-1.848.165-.165 1.061-.33 3.88-.33v-.841c0-.842-.366-1.007-.879-1.171-.53 0-1.244-.183-1.94-.183-1.592 0-3 .183-3.531.841-.879 1.007-1.757 1.848-2.47 2.69.183.348.53.677.713.842m-16.56 5.544c-1.245-2.342-2.47-4.538-4.063-6.386-.713-.842-2.653-.842-3.165 0-.897 1.007-1.245 3.02-1.593 5.05a.99.99 0 0 0 0 1.007c.348.165.531.512.879.677.347.33.714.165 1.061 0 .696-.677.878-1.683.696-2.854l1.06-.513c.348.33.532 1.171.714 2.013v.842c-.183.512.348.841 1.062.841 1.043-.164 2.104-.494 3.349-.677m-4.063 19.836-.476-3.348c0-.787-.183-1.647-.365-2.526l-.22-1.518c-.695-.842-1.757-1.684-2.288-2.526-5.288-1.006-10.045-2.177-15.151-3.348-.878-.184-1.409-.513-1.94-1.025-2.122-2.013-3.531-4.19-4.574-6.386-.897-2.343.347-3.697 3.165-4.19 3.697-.513 7.576-1.007 11.456-1.355 1.06-.165 1.756-.494 2.287-1.006 5.453-5.215 13.047-6.222 20.97-5.545 2.47.165 7.045 1.171 9.699.33 8.27-.495 10.576 3.037 9.332 8.582-.348 1.17-.183 2.525 0 3.86 2.47 6.552 4.044 13.12 2.123 20.001-2.47 5.728-4.941 11.602-2.818 15.481 2.635 5.874 4.227 11.748 2.452 17.128-1.757 7.905-6.167 17.146-4.044 24.21 1.94 4.72 5.47 19.176 7.923 26.221 1.409 4.886 4.062 8.417 6.88 11.95 2.288 3.348 3.88 6.55 4.941 9.734-1.427 0-2.653.183-4.062.183 2.635 14.95 4.41 36.305 8.454 39.836-.348 1.006-.53 2.177-.879 3.184 0 1.006-1.94 1.519-2.635 2.69-5.123 11.437-12.516 17.987-26.971 21.849v-.495c-1.574-4.007-4.172-9.478-6.624-14.163 4.904-3.02 9.46-6.203 12.443-9.369-21.153-18.5-21.849-24.374-25.563-44.046 0-.841-.348-1.17-.879-1.17-.695 0-1.409.164-2.104.164 1.757 6.386 3.349 12.773 5.105 18.994-13.211 9.57-20.97 17.311-23.788 38.153-1.062 3.88-3.697 4.703-6.698 4.044-4.757-1.683-9.167-2.525-12.864-2.36-6.88-.842-13.578-3.697-20.257-7.74 1.043-5.216 1.94-10.248 2.983-15.463 1.94.677 4.062 1.519 5.471 1.354 1.94.33 2.635.659 3.514 1.5.713.513 1.244 1.19 3.349 1.025 1.06 0 5.288 2.342 6.697 1.171-3.861-28.581 4.227-39.341 24.85-53.286.714-.348 1.061-.164 1.94.33.878.841 1.591 1.683 2.47 2.525 1.757.677 1.94-.513.878-1.52-7.228-4.025-10.21-11.418-11.62-20-.183-.33.165-1.006-1.427-.33-30.486 10.248-36.121 6.222-56.215-10.594l5.16-8.381c1.3-2.05 2.618-4.099 3.972-6.167 6.789 3.843 10.284 7.85 12.553 11.858.695 1.006 1.244.842 1.94.348 9.332-5.38 18.847-10.266 28.382-14.969-.183-.677-.366-1.354-.366-1.848-2.104 1.171-4.227 2.36-6.35 3.367-23.934-13.944-37.493-12.279-45.252-44.118.183.054.439.018.677-.11 4.227-2.232 8.143-4.209 12.48-6.423l.567-.293c2.982 3.697 4.922 9.241 6.331 15.463-.347.512.366 1.354.714 1.519 10.924 2.854 21.666 5.709 32.425 8.234-3.001 4.886-5.105 9.076-6.002 11.766-.695 3.532-1.41 6.551-1.41 7.74h1.94c3.184-17.328 7.412-23.532 24.85-31.272 0-1.17-.183-2.525-.183-3.696a18.622 18.622 0 0 1-7.393 0c-1.226-.33-2.47-.677-4.41-.677-4.227-1.336-2.818-5.197-.695-4.868 3.513-.512 5.984 0 7.923.677.879.495 3.697.66 7.229.66"/><path d="M461.688 285.305c3.348-1.849 6.697-3.861 10.045-5.71 7.76 14.292 24.137 23.532 47.577 28.236-1.043 3.696-2.104 7.228-3.166 10.924-27.136-5.71-44.759-17.146-54.457-33.451M618.165 196.055l-10.576-4.556c14.273-29.241 35.08-45.876 59.561-55.463 1.593 3.367 3.185 6.899 4.594 10.43-21.685 8.729-40.531 23.35-53.579 49.59M714.575 180.934c1.592-.347 3-.512 4.227-.512 1.06 0 2.287.348 3.531.677-2.122 3.203-4.41 6.222-6.715 9.406 1.061.347 1.958.347 3 .842-12.68 5.05-24.483 11.93-36.47 20.677 43.168 33.12 68.547 80.862 72.592 146.245-3.861 0-7.74-.165-11.62-.165-2.818-57.66-24.85-104.559-69.792-138.687-13.925 12.114-24.667 27.248-32.06 47.083 32.936 22.013 54.092 57.476 64.485 105.73-4.044.494-7.228 1.335-11.272 2.012-7.228-33.78-22.38-70.433-56.744-96.49-1.226 3.862-2.654 7.906-3.88 11.767-3.531-1.006-7.228-2.178-10.924-3.202 14.62-56.14 41.942-83.041 91.64-105.384"/></g><path fill="#fff" d="m763.012 192.359 47.943 176.674c4.227 16.634 12.499 29.59 34.878 29.425h42.84c11.985 0 19.378-4.539 14.62-21.684-16.56-61.356-33.304-122.895-49.882-184.416h-25.362l49.518 179.859c1.409 4.208 0 6.057-3.185 6.221h-13.907c-2.818-.164-4.593-1.5-5.288-4.355-16.56-60.513-33.304-121.028-49.882-181.725zm149.43 0h-42.984l56.744 206.099h25.912l-33.139-120.535 64.137 120.535h42.472l-56.378-206.1h-23.624l31.366 113.143zm277.751 0h-43.167l56.91 206.099h25.728l-33.12-120.535 64.32 120.535h42.288l-56.215-206.1h-23.605l31.365 113.143zm-205.13 0 57.112 206.099h32.59l-57.093-206.1zm57.988 22.69c10.211 51.11 27.486 106.59 43.002 157.352 5.819 18.665 17.09 27.064 28.362 26.056 1.226 0 2.653 0 3.88.165 14.455 0 28.545 0 42.636-.165 12.864.33 20.806-4.721 21.867-16.816v-5.874c-.183-2.526-.713-5.216-1.244-8.07l-43.88-159.877c-2.983-9.918-10.046-13.943-19.379-14.95a59.204 59.204 0 0 0-7.759-.512c-14.09-.165-29.258-.165-46.168 0-13.559.347-20.787 6.404-21.318 17.823zm-316.496-37.147h529.889l67.138 238.873H717.728c63.974-66.572 65.382-167.763 8.82-238.873m391.737 73.964c11.108 40.512 22.032 80.534 33.304 121.212.53 3.02-.878 4.538-4.41 4.867h-11.09c-6.532-.329-10.411-8.399-12.882-16.651-1.573-6.04-3.165-12.26-4.922-18.318-11.803-42.526-24.85-86.06-33.304-126.903-.366-3.038.348-4.539 3.697-4.539 5.288 0 10.741-.183 15.865-.183 1.409 0 2.818.183 2.982 1.684 3.715 13.12 7.229 25.893 10.76 38.83"/><g fill="#eb1923"><path d="m150.815 32.004 84.944 302.565c-22.032 22.196-15.518 61.01 20.257 72.116 1.061 3.696 2.122 7.557 3.184 11.089h-50.394L113.999 76.878H55.828L43.31 31.992z"/><path d="M268.714 335.913c16.56 0 30.137 12.937 30.137 28.729 0 15.975-13.577 28.912-30.137 28.912-16.744 0-30.303-12.937-30.303-28.912 0-15.792 13.56-28.729 30.303-28.729"/><path d="M207.224 32.004H969.4l12.7 47.393H272.263l25.747 95.812h118.247c-9.881 11.272-18.335 24.557-25.728 39.856H309.1l54.805 202.716H315.45c-2.818-9.754-5.636-19.671-8.29-29.755 14.804-25.545 5.289-49.26-17.274-61.687z"/><path d="M608.99 173.025c-35.592-10.76-81.41-1.006-113.143 25.545-84.23 77.332-40.88 172.813 22.91 205.422 72.793 32.26 124.249 5.032 150.143-18.994 4.062 14.95 7.941 29.755 11.985 44.374-45.8 38.318-143.096 56.817-217.975 3.696-77.02-56.47-85.29-143.72-63.625-197.352 34.183-82.858 113.489-122.365 197.554-111.605 4.227 16.305 7.923 32.609 12.15 48.913"/><path d="m577.301 224.15-.476-2.525c.165.879.348 1.739.476 2.526M576.577 220.248c.055.457.146.915.22 1.354l.366 2.525c-1.903.165-4.154.165-6.752.33-2.105.164-4.41.164-6.698.164-2.635-.165-4.044-.165-5.288-.165-.695 0-1.41-.165-2.104-.329-2.47-.677-4.593-2.031-5.82-4.044-1.06-1.848-1.06-5.05 1.757-7.228.714-.512 1.41.165 1.41.677 0 3.02.878 5.032 2.287 5.874 3.348.677 6.532.677 9.698.677 3.001-.164 6.698 0 10.925.165M502.603 228.777c4.374-2.196 8.766-4.3 13.176-6.55-4.356 2.232-8.271 4.19-12.498 6.459-.239.11-.495.146-.678.091"/><path d="M516.147 220.765c.165.512.165.841.165 1.17-4.575 2.361-9.15 4.539-13.742 6.716-1.574-.823-3.33-1.83-4.575-2.671-.878-.842 0-1.848 1.061-1.354 1.226.347 2.47.677 3.88 1.006h.695c-.878-1.5-2.983-3.184-4.758-4.703l.531-1.006c1.41.677 3.001 1.354 4.575 2.013l-2.635-4.026c.183-.183.53-.348.878-.677 1.94 2.013 3.88 4.044 6.002 5.38-.53-2.69-1.427-5.215-2.47-7.74l1.043-.495c1.427 2.526 3 4.868 4.94 7.064-.878-1.848-2.104-4.044-3.696-6.057-.714-1.519 1.226-1.684 1.757-1.354 2.47 1.683 4.227 4.044 6.35 6.734M511.572 274.061c-1.226 2.141-2.543 4.19-3.842 6.24z"/><path d="M507.721 280.29a390.603 390.603 0 0 0-5.16 8.381zm3.953-6.166a648.989 648.989 0 0 0-3.953 6.166zm.054-.073-4.007 6.24-5.16 8.38c-.696-.512-1.226-1.006-1.922-1.518-.366-.33-2.653-1.5-3.879-2.343-.366-.512-.183-1.006.53-1.19 1.227-.163 2.453-.163 3.697-.328-1.409-.677-2.818-1.5-4.227-2.178 0-.33 0-.842.165-1.19 1.592 0 3.184-.164 4.758-.164-1.226-1.007-2.983-1.848-3.88-2.855-.695-1.17.53-1.683 1.062-1.336 1.774.165 3.531.494 5.105.33l-3.33-3.202c.164-.33.512-.66.695-.842 1.592.512 3.348 1.19 4.94 1.848-.713-1.006-1.427-2.178-2.122-3.184.183-.33.347-.33.695-.677 3.367 1.848 5.654 3.202 6.88 4.209M600.9 399.47c-1.373-2.634-2.672-5.397-3.971-8.215l-2.233-5.014c2.36 4.446 4.74 9.479 6.203 13.23M596.919 391.251c-.897-1.958-1.793-3.934-2.727-5.91l.495.897z"/><path d="M594.205 385.177c2.287 5.014 4.392 9.845 6.66 14.694-1.72.934-3.311 1.61-4.72 2.288.878-1.519 1.756-3.038 2.47-4.538-1.757 1.17-3.532 2.507-5.288 3.86 1.226-1.848 2.287-3.696 3.348-5.544-2.122.33-4.41.842-6.514 1.336 1.757-1.665 3.513-3.184 5.27-4.868-1.921.678-3.696 1.5-5.453 2.178 1.061-1.683 2.287-3.184 3.349-4.703-1.757 0-3.697.165-5.289.33 1.94-1.666 4.063-3.35 6.167-5.033M519.662 381.972l-4.593.348 4.063-3.202-6.533-1.684 6.697-2.507-5.288-3.037 6.002-.842-5.105-4.19 6.862.494-4.227-2.178 5.105 1.336zM763.012 192.359H805.3c16.579 60.696 33.322 121.212 49.882 181.725.696 2.854 2.47 4.19 5.289 4.355h13.907c3.184-.164 4.593-2.013 3.184-6.222L828.044 192.36h25.362c16.58 61.52 33.322 123.06 49.882 184.415 4.758 17.146-2.635 21.684-14.62 21.684h-42.84c-22.379.165-30.649-12.79-34.877-29.424zM912.46 192.359 976.944 305.5 945.58 192.36h23.623l56.378 206.099h-42.454l-64.155-120.535 33.139 120.535h-25.912l-56.744-206.1zM1190.185 192.359 1254.69 305.5l-31.365-113.142h23.605l56.215 206.099h-42.288l-64.32-120.535 33.12 120.535h-25.728l-56.91-206.1zM985.063 192.359h32.609l57.093 206.099h-32.59zM1118.305 251.859c-3.532-12.938-7.045-25.71-10.76-38.83-.164-1.5-1.574-1.684-2.983-1.684-5.105 0-10.576.183-15.865.183-3.349 0-4.044 1.5-3.696 4.539 8.454 40.843 21.5 84.375 33.304 126.903 1.756 6.057 3.348 12.279 4.922 18.317 2.47 8.253 6.35 16.323 12.882 16.652h11.09c3.531-.329 4.94-1.848 4.41-4.867-11.273-40.678-22.197-80.697-33.304-121.212m-75.246-36.817v-4.867c.512-11.419 7.74-17.476 21.318-17.823 16.926-.165 32.079-.165 46.168 0 2.653 0 5.288.183 7.759.512 9.332 1.007 16.377 5.05 19.378 14.95l43.88 159.859c.531 2.873 1.062 5.563 1.245 8.07v5.892c-1.061 12.095-8.985 17.146-21.867 16.816-14.09.165-28.2.165-42.637.165-1.245-.165-2.635-.165-3.88-.165-11.272 1.007-22.562-7.392-28.362-26.056-15.517-50.76-32.792-106.244-43.001-157.351"/></g><path fill="#fff" d="M598.263 202.103c-.183-.165-.53-.494-.714-.842.714-.841 1.592-1.683 2.47-2.69.531-.658 1.94-.841 3.533-.841.695 0 1.408.183 1.94.183.512.164.877.33.877 1.171v.842c-2.818 0-3.714.165-3.879.33-1.409.676-2.818 1.353-4.227 1.847M581.67 207.66c-1.227.183-2.288.513-3.35.677-.695 0-1.225-.329-1.042-.841v-.842c-.184-.842-.366-1.684-.714-2.013l-1.061.512c.183 1.171 0 2.178-.696 2.855-.347.165-.713.33-1.061 0-.348-.165-.53-.512-.878-.677a.99.99 0 0 1 0-1.007c.347-2.012.695-4.044 1.592-5.05.512-.842 2.452-.842 3.165 0 1.592 1.848 2.818 4.044 4.044 6.386"/></g></svg>