<svg xmlns="http://www.w3.org/2000/svg" viewBox="0 0 960.19 960.2"><ellipse cx="480.09" cy="480.1" class="cls-1" rx="480.09" ry="480.1" style="fill:#ffe500"/><circle cx="480.09" cy="480.1" r="457.02" class="cls-2" style="fill:#1d1d1b"/><circle cx="480.09" cy="480.1" r="431.64" class="cls-1" style="fill:#ffe500"/><path d="M573.36 870.39c-31.88 0-55.08-24.12-55.08-51.68 0-4-.29-5.81-.1-8.7h30.07c8.71 0 7.31 11.8 7.31 11.8 0 9.08 9.82 13.2 17.22 13.4 9 .25 16.34-8 16.34-17.12l-.13-17.6c-5.75 3.12-17.16 3.06-17.16 3.06-27.24-.75-53.83-24.25-53.83-53.31v-12.95c0-29.06 24.79-51.94 53.85-51.94H573c29.06 0 51.63 23.54 51.63 52.61v79.39c.03 29.91-21.15 52.73-51.27 53.04Z" class="cls-3" style="fill:#1d1d1b;fill-rule:evenodd" transform="translate(-22.64 -22.51)"/><path d="M572.17 722.9h.51a16.45 16.45 0 0 1 16.45 16.44v10.43a16.44 16.44 0 0 1-16.45 16.44h-.51a16.44 16.44 0 0 1-16.45-16.44v-10.43a16.45 16.45 0 0 1 16.45-16.44Z" class="cls-4" style="fill:#ffe500;fill-rule:evenodd" transform="translate(-22.64 -22.51)"/><path d="M244 614.91V530.7h49.08c40.61 0 55.11 73.76 2.32 84.2Zm0-148.32v-80.38h55.46c36 0 43.35 69.32 2.16 80.37Zm-66.15-147v358.4l112.91.12c91.08 0 137.34-110.52 74-178.65a.81.81 0 0 1-.19-.53c0-.33.45-.68.45-.68 52.63-59.45 30.59-163.88-67.3-178.64ZM710.41 614.91V530.7h48.75c40.61 0 55.11 73.76 2.32 84.2Zm0-148.32v-80.38h55.13c36 0 43.35 69.32 2.16 80.37Zm-66.48-147v358.4l112.91.12c91.09 0 137.34-110.52 74-178.65a.81.81 0 0 1-.19-.53c0-.33.45-.68.45-.68 52.63-59.45 30.59-163.88-67.3-178.64ZM432 685.6h1.19a52.62 52.62 0 0 1 52.62 52.63v79.47a52.62 52.62 0 0 1-52.62 52.63H432a52.63 52.63 0 0 1-52.63-52.63v-79.47A52.63 52.63 0 0 1 432 685.6Z" class="cls-3" style="fill:#1d1d1b;fill-rule:evenodd" transform="translate(-22.64 -22.51)"/><path d="M409.68 700.84h.53a16.44 16.44 0 0 1 16.44 16.44v78.9a16.45 16.45 0 0 1-16.45 16.45h-.53a16.45 16.45 0 0 1-16.45-16.45v-78.89a16.45 16.45 0 0 1 16.46-16.45Z" class="cls-1" style="fill:#ffe500"/><path d="m337.02 118.02 117.43 363.34h50.81l116.03-363.34h-71.06l-70.5 242.51-70.02-242.51h-72.69z" class="cls-3" style="fill:#1d1d1b;fill-rule:evenodd"/></svg>