<svg xmlns="http://www.w3.org/2000/svg" width="754.01105" height="980" x="0px" y="0px" viewBox="0 0 754.01105 980"><path fill="none" d="M-15.88-12.73h785.772V995.913H-15.881z" style="fill:#072d0e;fill-opacity:0"/><path d="M86.76 83.43c0 24.83-20.2 45.03-45.03 45.03-22.35 0-40.54-18.19-40.54-40.54V16.54h85.57ZM0 15.35v72.58c0 23.05 18.68 41.73 41.73 41.73 25.53 0 46.22-20.7 46.22-46.22V15.35Z" class="st0" style="fill:#fd0" transform="matrix(8.57318 0 0 8.57318 0 -131.598)"/><path d="M43.98 126.02c22.48-1.17 40.41-19.83 40.41-42.6v-32.5H43.98ZM3.57 18.92v28.44h80.81V18.92Z" class="st1" style="fill:#fff" transform="matrix(8.57318 0 0 8.57318 0 -131.598)"/><path d="M3.57 47.36V18.92h80.81v28.44ZM2.38 17.73v30.82h83.19V17.73Z" class="st0" style="fill:#fd0" transform="matrix(8.57318 0 0 8.57318 0 -131.598)"/><path d="M85.57 48.55H2.38V17.73h83.19zm0 34.88c0 24.18-19.67 43.84-43.84 43.84-21.7 0-39.35-17.65-39.35-39.35V49.74h83.19zM1.19 16.54V87.93c0 22.35 18.19 40.54 40.54 40.54 24.83 0 45.03-20.2 45.03-45.03v-66.9z" class="st2" style="fill:#cd1719" transform="matrix(8.57318 0 0 8.57318 0 -131.598)"/><path d="M84.38 83.43c0 22.77-17.93 41.42-40.41 42.6-.74.04-1.49.06-2.25.06-21.04 0-38.16-17.12-38.16-38.16v-37h80.82Zm.79-33.69H2.38v38.19c0 21.7 17.65 39.35 39.35 39.35 24.18 0 43.84-19.67 43.84-43.84v-33.7z" class="st0" style="fill:#fd0" transform="matrix(8.57318 0 0 8.57318 0 -131.598)"/><path d="M3.57 50.93v37c0 21.04 17.12 38.16 38.16 38.16.75 0 1.5-.02 2.25-.06v-75.1zM33.03 38.84s3.77.81 13.16.32c0 0 4.31-.04 4.31-3.38v-3.09h-5.34v1.4s.04 1.01-.72 1.01h-7.81s-1.56-.15-1.77-1.61v-5.18s.11-1.15 1.51-1.24c0 0 2.25-.32 7.17-.05 0 0 1.69-.11 1.67 1.89h5.03l-.03-2.98s-.25-2.89-3.81-3.11c0 0-8.3-.32-11.97.05 0 0-4.75.11-4.64 3.72v8.79c0 .01-.16 3.02 3.24 3.46zM16.73 29.94l-.08-2.86 12.22-.02v-4.02H11.69v16.53h5.11l-.07-5.68H28.3v-3.95zM59.43 32.54l2.87-5.82h.79l2.8 5.82zm7.35-9.77h-7.96L49.63 40.6v3.43h4.19l3.88-7.86 10.19-.01 3.78 7.87h6.47zM11.69 44.03v-3.8h12.72v3.8z" class="st2" style="fill:#cd1719" transform="matrix(8.57318 0 0 8.57318 0 -131.598)"/><path d="M24.41 44.03v-3.8h12.72v3.8z" class="st3" style="fill:#006139" transform="matrix(8.57318 0 0 8.57318 0 -131.598)"/><path d="M37.13 44.03v-3.8h12.72v3.8z" class="st1" style="fill:#fff" transform="matrix(8.57318 0 0 8.57318 0 -131.598)"/><path d="M49.85 40.23H37.13v3.8h12.72zm-.42.42v2.96H37.55v-2.96h11.88" class="st2" style="fill:#cd1719" transform="matrix(8.57318 0 0 8.57318 0 -131.598)"/><path d="m31.03 119.13 1.06-.3v-3.8l-1.06-.32v-.48h3.36v.48l-1.05.31v3.81l1.05.3v.49h-3.36zM40.58 118.31c-.3.11-.86.3-1.33.3-.84 0-1.3-.88-1.33-1.92-.03-1.1.44-1.81 1.23-1.84.83-.04 1.53.9 1.56 2.04.02.64-.07 1.13-.13 1.42zm-1.29-4.26c-1.58 0-2.57 1.22-2.57 2.68 0 1.79 1.07 2.67 2.45 2.67.38 0 .84-.15 1.12-.26-.52 1.18-1.51 2.05-2.99 2.63l.33.7c2.86-.81 4.37-3.14 4.33-5.33-.03-1.68-.92-3.09-2.67-3.09z" class="st1" style="fill:#fff" transform="matrix(8.57318 0 0 8.57318 0 -131.598)"/><path d="M48.29 118.88c-1.11 0-1.82-.88-1.82-1.99 0-1.1.71-1.97 1.82-1.97s1.84.88 1.84 1.97c0 1.12-.73 1.99-1.84 1.99zm0-4.89c-1.67 0-3.03 1.3-3.03 2.9 0 1.62 1.36 2.92 3.03 2.92 1.67 0 3.04-1.3 3.04-2.92 0-1.6-1.37-2.9-3.04-2.9zM53.88 122.12h-1.03c.36-1.77 1.34-4.36 2.9-6.89h-3.59v-1h4.95v.78c-1.09 1.61-2.72 4.92-3.23 7.11z" class="st2" style="fill:#cd1719" transform="matrix(8.57318 0 0 8.57318 0 -131.598)"/><path d="m59.65 93.03-4.86-4.37c-2.21.36-4.46.66-6.75.8L48 86.05c4.06-.36 6.01-1.46 7.78-3.13 2.13-2.04 3.13-4.66 3.13-8.44 0-6.41-3.77-12.45-7-15.65-3.03-3.06-6.21-3.93-7.84-4.29h-.18c-1.62.36-4.81 1.24-7.84 4.29-3.22 3.2-6.99 9.24-6.99 15.65 0 3.78.99 6.41 3.12 8.44 1.78 1.67 3.72 2.77 7.79 3.13l-.06 3.42c-2.29-.15-4.53-.44-6.75-.8l-4.86 4.37 1.98 2.18c-.18.43-.28.94-.28 1.45 0 1.53 1.22 2.77 2.74 2.77.45 0 1.3-.15 1.84-.8.16-.22.28-.44.36-.73 1.25 2.62 2 6.77 2.33 12.88l.02.44h13.39l.03-.44c.32-6.11 1.08-10.26 2.33-12.88.07.29.19.51.35.73.55.65 1.39.8 1.85.8 1.51 0 2.74-1.24 2.74-2.77 0-.51-.1-1.02-.29-1.46l1.96-2.18" class="st4" style="fill:#1d1d1b" transform="matrix(8.57318 0 0 8.57318 0 -131.598)"/><path d="m44.78 85.17 2.93-1.75-3.73-2.18-3.73 2.18 2.93 1.75h1.6M49.42 61.73l3.73 2.26 1.07-.65c-.74-1.16-1.52-2.18-2.32-3.06l-2.48 1.45M34.82 81.24l-1.79 1.09c1.03.87 2.15 1.6 3.83 2.11l1.7-1.02-3.74-2.18M38.07 84.74c.94.22 2.02.29 3.32.36l-1.99-1.16-1.33.8M46.58 85.1c1.3-.07 2.39-.15 3.32-.36l-1.33-.8-1.99 1.16M55.57 81.68c.76-.87 1.32-1.75 1.7-2.91L54 80.73l1.57.95M57.69 72.07c-.2-1.31-.55-2.55-1-3.79l-2.7 1.6 3.7 2.19M57.76 73.09h-.04L54 75.27l3.62 2.18c.18-.87.27-1.89.27-2.98 0-.44-.04-.95-.08-1.38h-.05M49.42 83.42l1.69 1.02c1.68-.51 2.8-1.24 3.83-2.11l-1.79-1.09-3.73 2.18M30.71 78.77c.38 1.16.93 2.04 1.69 2.91l1.57-.95-3.26-1.96M47.16 56.64c-1.28-.58-2.4-.95-3.17-1.09-.78.15-1.9.51-3.18 1.09l3.18 1.89 3.17-1.89M43.14 59.04l-3.22-1.89c-1 .58-2.08 1.38-3.14 2.4-.03 0-.06.07-.08.07l2.71 1.6 3.73-2.18M48.57 61.22l2.72-1.6c-.03 0-.06-.07-.09-.07-1.06-1.02-2.13-1.82-3.14-2.4l-3.22 1.89 3.73 2.18M38.56 61.73l-2.47-1.46c-.8.87-1.59 1.89-2.32 3.06l1.06.65 3.73-2.25M30.24 73.09h-.09c-.04.44-.07.95-.07 1.38 0 1.09.09 2.11.26 2.98l3.62-2.18-3.72-2.18M31.27 68.28c-.45 1.24-.79 2.47-.99 3.79l3.69-2.18-2.7-1.61M33.3 64.06c-.23.36-.47.8-.68 1.16l1.35-.8-.67-.36M34.82 69.38l3.73-2.18-3.73-2.26-2.89 1.75c-.12.22-.23.51-.34.8l3.23 1.89M40.25 72.58l3.74 2.26 3.72-2.26-3.72-2.18-3.74 2.18M34.82 75.78l-3.72 2.26 3.72 2.18 3.74-2.18-3.74-2.26M35.67 80.73l3.73 2.19 3.74-2.19-3.74-2.18-3.73 2.18M38.56 72.58l-3.74-2.18-3.72 2.18 3.72 2.26 3.74-2.26M43.14 64.43l-3.74-2.19-3.73 2.19 3.73 2.25 3.74-2.25M43.14 69.89 39.4 67.7l-3.73 2.19 3.73 2.18 3.74-2.18M43.99 75.78l-3.74 2.26 3.74 2.18 3.72-2.18-3.72-2.26M44.83 80.73l3.74 2.19 3.72-2.19-3.72-2.18-3.74 2.18M44.83 69.89l3.74 2.18 3.72-2.18-3.72-2.19-3.74 2.19M53.14 74.84l3.73-2.26-3.73-2.18-3.72 2.18 3.72 2.26M49.42 78.04l3.72 2.18 3.73-2.18-3.73-2.26-3.72 2.26M44.83 64.43l3.74 2.25 3.72-2.25-3.72-2.19-3.74 2.19M47.71 61.73l-3.72-2.18-3.74 2.18 3.74 2.26 3.72-2.26M55.35 65.23c-.22-.36-.44-.8-.68-1.16l-.67.36 1.35.8M53.14 64.94l-3.73 2.26 3.73 2.18 3.23-1.89c-.1-.29-.22-.58-.33-.8l-2.9-1.75M35.67 75.27l3.73 2.26 3.74-2.26-3.74-2.18-3.73 2.18M43.99 64.94l-3.74 2.25 3.74 2.19 3.72-2.19-3.72-2.25M52.29 75.27l-3.72-2.18-3.74 2.18 3.74 2.26 3.72-2.26" class="st3" style="fill:#006139" transform="matrix(8.57318 0 0 8.57318 0 -131.598)"/><path d="M35.65 92.6h4.22l.04-2.26c-2.19-.15-4.35-.36-6.47-.8-1.59 1.46-2.98 2.77-3.89 3.57l1.21 1.31c.9-1.17 2.59-1.82 4.89-1.82M54.53 89.54c-2.12.36-4.27.66-6.46.8l.04 2.26h4.21c2.3 0 4 .66 4.91 1.82l1.2-1.31c-.92-.8-2.32-2.11-3.9-3.57M43.99 92.67h-3.25l.1-6.55c.94.07 1.98.07 3.14.07 1.16 0 2.21 0 3.14-.07l.1 6.55h-3.23" class="st0" style="fill:#fd0" transform="matrix(8.57318 0 0 8.57318 0 -131.598)"/><path d="M34.59 93.47c-2.38.29-3.72 1.46-3.72 3.2 0 1.02.84 1.89 1.87 1.89.3 0 .85-.07 1.17-.44.28-.36.34-.95.18-1.67l.78-.36c1.59 2.26 2.56 5.9 3.05 11.72l2.55-6.26c-1.76-3.86-3.75-7.06-5.88-8.08M40.93 100.46l2.87-6.92-7.6-.07c1.54 1.24 3.08 3.49 4.73 6.99M51.77 93.47l-7.59.07 2.87 6.92c1.64-3.5 3.18-5.75 4.72-6.99M41.42 101.55c.82 1.89 1.67 4 2.57 6.48.9-2.47 1.74-4.59 2.56-6.48-1.21-2.91-2.29-5.53-2.56-6.19-.29.66-1.36 3.28-2.57 6.19M40.97 102.64c-1.08 2.62-2.19 5.31-2.9 7.06.01.22.02.44.04.66h5.78l-.31-.87c-.8-2.26-1.67-4.66-2.61-6.85M53.38 93.47c-2.13 1.02-4.12 4.22-5.89 8.08l2.55 6.26c.49-5.82 1.46-9.46 3.05-11.72l.78.36c-.16.73-.09 1.31.19 1.67.32.36.87.44 1.17.44 1.03 0 1.87-.87 1.87-1.89 0-1.74-1.34-2.91-3.72-3.2M44.39 109.48l-.31.87h5.78c.01-.22.03-.44.04-.66-.71-1.75-1.83-4.44-2.9-7.06-.94 2.2-1.81 4.6-2.61 6.85" class="st0" style="fill:#fd0" transform="matrix(8.57318 0 0 8.57318 0 -131.598)"/></svg>