<svg xmlns="http://www.w3.org/2000/svg" viewBox="0 0 566.93 566.93"><defs><style>.cls-1{fill:none}.cls-2{fill:#0066b2}.cls-3{fill:#fff}.cls-4{fill:#dc052d}.cls-5{clip-path:url(#clip-path)}</style><clipPath id="clip-path"><path class="cls-1" d="M136.03 136.03H430.9V430.9H136.03z"></path></clipPath></defs><title stroke="none" fill="#ffffff" stroke-width="1px">FC Bayern München</title><g id="Ringe" stroke="none" fill="#ffffff" stroke-width="1px"><path class="cls-2" d="M283.46 0C126.91 0 0 126.91 0 283.46s126.91 283.47 283.46 283.47S566.93 440 566.93 283.46 440 0 283.46 0z" stroke="none" fill="#0066b2" stroke-width="1px"></path><path class="cls-3" d="M283.46 14.17c-148.72 0-269.29 120.57-269.29 269.29s120.57 269.3 269.29 269.3 269.3-120.57 269.3-269.3S432.19 14.17 283.46 14.17z" stroke="none" fill="#ffffff" stroke-width="1px"></path><path class="cls-4" d="M283.46 26.93c-141.68 0-256.53 114.86-256.53 256.53S141.79 540 283.46 540 540 425.15 540 283.46 425.15 26.93 283.46 26.93zm0 416.69a160.16 160.16 0 1 1 160.16-160.16 160.15 160.15 0 0 1-160.16 160.16z" stroke="none" fill="#dc052d" stroke-width="1px"></path></g><path class="cls-5 cls-2" d="M142.65 327a146.77 146.77 0 0 0 32.5 56.43V317l-37.56-54.87a146.84 146.84 0 0 0 5.06 64.87m75.82 52.65v-76.07l-43-62.81v-57.61a147.82 147.82 0 0 0-20.54 28.21l20.2 29.51V317l43 62.8v35.76A148 148 0 0 0 251 427.23zm43.33-89.52l43 62.8v76.11l-43-62.81v-76.06l-43-62.81v-76.11l43 62.8zm43.33-13.41l-43-62.81v-76.07l43 62.81v76.11l43 62.81v76.11l-43-62.81zm-65.24-134.07A146.81 146.81 0 0 0 183 175.59l35.51 51.87v76.11l43 62.8v62.86A147.7 147.7 0 0 0 384 391.34l-35.51-51.87v-76.12l-43-62.81v-62.86a146.81 146.81 0 0 0-65.58 5m151.9 183.4v-76.14l-43-62.81v-35.75a147.86 147.86 0 0 0-32.88-11.68l32.54 47.54v76.11l43 62.81v57.61a147.83 147.83 0 0 0 20.53-28.2zm32.49-86.17a146.84 146.84 0 0 0-32.49-56.43v66.49l37.55 54.86a146.8 146.8 0 0 0-5.06-64.92" id="Rapport" stroke="none" fill="#0066b2" stroke-width="1px"></path><path class="cls-3" d="M112 336.45l7.28 15.5-11.84 22.38c-1.78 3.33-3.32 6.05-3.32 6.05l.16.29s3.13.19 6.89.51l25.22 2.27 9 14.55-54.5 31.84-8.71-14L105 402.56c5.32-3.08 9.33-5.25 9.33-5.25l-.16-.29s-2.75-.2-8.5-1.05l-23.21-3.45-.16-.29 9.7-21.35c2.42-5.28 3.75-7.7 3.75-7.7l-.16-.29s-4 2.18-9.49 5L62.54 379.7l-7-14.92zm41.72 68.79l12.56 11.16-25.22 30c-4.14 5-3.93 10.22 2.33 15.15s11.4 3.91 15.28-1.28l23.26-31.55 13.79 9.59-23.88 32.34c-10.95 14.84-25.13 11.91-37.39 2.26S116 450.16 127.88 436zm25.13 20.42l-15.5 10.83-.26-.21 6.91-17.6zm26.58 18.12l16.4 6 9.27 31.66c2 6.85 2.82 10.47 2.82 10.47l.48.14s1.07-4.71 2.64-10.47l6.73-25.19 16 3.79-16.3 61-17-4.08-10.53-33.1c-2-6.43-2.9-10.5-2.9-10.5l-.48-.14s-1.41 5-3.19 10.31l-8.6 25.67-15.45-5.7zm122.79 54.61c.35 15-9 25.24-26.91 26.45C284.58 526 268.92 518.38 268 494c-.93-24.73 12.76-34 28.82-35.07 17.39-1.18 27.45 8.54 29.18 21.74l-16.9 1.14c-1.55-5.72-4.61-9.09-12.06-8.58-7 .47-11.85 6.88-11.32 19.57.57 13.27 6.07 18.39 13.86 17.87s11.19-4.25 11.56-11.1zm3.78-43.61l15.67-6 8.86 21.22 19.56-8.92-10.25-20.69 14.85-7.86 28 56.58-14.87 7.89-11.08-22.5-20.47 9.33L372 507l-15.67 6L332 454.85zm58.61-29.62l30.21-28.95 9.72 9.54-18.94 18.15 7.23 8 18.34-17.57 9.49 9.3-18.95 18.17 7.86 8.8 21.34-20.45 9.72 9.54-33.8 32.39zm37.75-37.9l8.64-15.15 32.78-3.78c7.09-.82 10.8-1 10.8-1l.22-.45s-4.43-1.88-9.8-4.38l-23.69-10.89 6.44-15.15L511 362.83l-6.89 16-34.41 4.82c-6.68.94-10.84 1.09-10.84 1.09l-.22.45s4.64 2.22 9.62 4.89l23.84 12.82-8.23 14.26zM67.44 178.35l12.66 5L70 211.38l11.82 3.91 9.46-26.23 12.35 4.9-9.18 25.45 22.11 7.18-4.75 16.11L51.33 223zm77.32-41.66c10.91 9.89 12.79 23.44 1.89 37.24-10 12.63-25.34 18.69-45.21 3.94-19.61-14.54-17-31.74-6.62-44.9 11-13.94 25.05-15.11 36-7.35l-10.5 13.29c-5.12-2.88-9.93-2.56-14.72 3.5s-3.73 13.56 6.9 21.53c10.17 7.61 18.11 7.33 22.54 1.73 4.73-6 3.81-10.85-.82-15.56zm41.48-71.44c11.15-5.15 22.07-6.27 26.88 5.13 3.95 9.33 1.44 13.41-3.43 17.5l.17.38c5.2-1.21 12.17-1 16.61 9.42 5.33 12.53-2.84 19.78-14 24.94l-23.58 10.9-28.27-56.43zm9.47 22.87c4.37-2 5.62-4.06 3.86-8.27-1.7-4.06-4.58-4.37-8.8-2.42l-9.42 4.35 5.32 10.53zm10.66 23.06c4.82-2.23 6.14-4.12 4.1-8.94-1.9-4.51-5.24-4.62-10.07-2.39l-8.14 3.76L198 115zm94.68-4.46h-17.91L278 95.37l-21.67 1.86-3.13 12-17.65 3.1 17.49-66 19.52-1.68zm-27.93-23.51l-5.39-12.28c-1.86-4.17-3.26-7.88-3.26-7.88h-.33s-.75 3.9-1.87 8.33l-3.21 13zM317 88.2l-14.66-44.8 18.92 3.6L327 66c1.08 3.63 2 7.49 2 7.49l.32.07s2.46-3.12 4.95-6l13.09-14.91 18.71 4.57-31.88 34.71-4.88 20.94-16.55-3.59zm61.67-25.52l39.72 21.81-6.92 11.73L387 82.76l-4.9 9.62 22.63 12.42-6.76 11.44-21.9-12-5.38 10.49 23.86 13.1-6.92 11.73-37.54-20.61zm61.69 38.89l19.27 20.62c9.86 10.55 12.22 20.73.48 31-7.5 6.56-13 8.37-19.57 5.8l-10.08 25.44-11.9-14.55 9.22-20.77-5.5-5.88L407.45 158l-12.18-11.57zm-8.67 32.3l6.52 7c3.63 3.88 6.68 4 10.73.42s3.93-6.85.3-10.74l-6.86-7.34zm24.58 108.71l-5.76-16.48 18.63-27.22c4-5.78 6.32-8.82 6.32-8.82l-.19-.46s-4.32 2.15-9.78 4.59l-23.75 10.75-7.22-14.8 57.5-26 7.6 15.72L480.7 209c-3.63 5.55-6.28 8.9-6.28 8.9l.19.46s4.72-2 10-4.06l25.31-9.6 5.38 15.56z" id="Schrift" stroke="none" fill="#ffffff" stroke-width="1px"></path></svg>