<svg xmlns="http://www.w3.org/2000/svg" width="417.907" height="633.187"><path fill="#00a768" d="M208.677 0 0 315.364l208.677 317.823 209.235-317.823L208.677 0"/><path fill="#fff" d="M208.688 18.177 11.979 315.432l196.709 299.577 197.203-299.577L208.688 18.177"/><path fill="#00a768" d="M208.688 39.848 28.031 315.432l180.657 275.577 180.661-275.577L208.688 39.848"/><path fill="#fff" d="M95.98 273.125c0-15.068 1.76-35.204 11.166-54.042 6.406-12.838 18.52-25.64 37.291-24.646 6.823.36 27.574 5.235 27.73 28.552.052 10.88-6.438 30.787-35.542 30.787 0 0-3.615 29.104-3.615 44.276 0 13.49.271 74.04 22.397 121.655l52.916-118.686L258.74 420s21.312-52.932 21.312-98.415c0-44.83-12.364-75.057-22.708-91.063-14.781-22.896-33.803-30.849-42.595-30.229 0 0-9.53 9.41-24.093 8.375-17.73-1.266-28.583-13.943-28.812-30.511-.219-13.765 8.99-29.12 22.959-38.14 13.134-8.485 36.5-7.677 51.53-2.953 24.219 7.609 44.97 34.244 55.698 53.614 10.146 18.307 20.772 55 20.844 102.907.084 39.853-14.282 100.477-32.552 146.592-17.875 45.093-28.406 63.541-28.406 63.541l-43.594-88.906-43.146 88.99s-41.385-88.276-52.354-128.641c-10.98-40.368-16.844-87.707-16.844-102.035"/></svg>