<?xml version="1.0" encoding="utf-8"?>
<!-- Generator: Adobe Illustrator 24.0.1, SVG Export Plug-In . SVG Version: 6.00 Build 0)  -->
<svg version="1.1" id="레이어_1" xmlns="http://www.w3.org/2000/svg" xmlns:xlink="http://www.w3.org/1999/xlink" x="0px"
	 y="0px" viewBox="0 0 24 24" style="enable-background:new 0 0 24 24;" xml:space="preserve">
<style type="text/css">
	.st0{fill:#FFFFFF;}
</style>
<path class="st0" d="M11,21c-2-0.3-3.7-1.1-5-2.6S4,15,4,13c0-1.1,0.2-2.2,0.7-3.2s1.1-1.9,1.8-2.6l1.4,1.4c-0.6,0.6-1.1,1.2-1.4,2
	C6.2,11.3,6,12.1,6,13c0,1.5,0.5,2.8,1.4,3.9S9.5,18.7,11,19V21z M13,21v-2c1.4-0.3,2.6-1,3.6-2.1c0.9-1.1,1.4-2.4,1.4-3.9
	c0-1.7-0.6-3.1-1.8-4.3S13.7,7,12,7h-0.1L13,8.1l-1.4,1.4L8.1,6l3.5-3.5L13,3.9L11.9,5H12c2.2,0,4.1,0.8,5.7,2.3
	C19.2,8.9,20,10.8,20,13c0,2-0.7,3.8-2,5.3C16.7,19.8,15,20.7,13,21z"/>
</svg>
