<?xml version="1.0" encoding="utf-8"?>
<!-- Generator: Adobe Illustrator 24.0.1, SVG Export Plug-In . SVG Version: 6.00 Build 0)  -->
<svg version="1.1" id="레이어_1" xmlns="http://www.w3.org/2000/svg" xmlns:xlink="http://www.w3.org/1999/xlink" x="0px"
	 y="0px" viewBox="0 0 24 24" style="enable-background:new 0 0 24 24;" xml:space="preserve">
<style type="text/css">
	.st0{fill:#FFFFFF;}
</style>
<path class="st0" d="M11,19h2v-4.2l1.6,1.6L16,15l-4-4l-4,4l1.4,1.4l1.6-1.6V19z M6,22c-0.5,0-1-0.2-1.4-0.6S4,20.5,4,20V4
	c0-0.5,0.2-1,0.6-1.4S5.5,2,6,2h8l6,6v12c0,0.5-0.2,1-0.6,1.4S18.6,22,18,22H6z M13,9h5l-5-5V9z"/>
</svg>
