<?xml version="1.0" encoding="utf-8"?>
<!-- Generator: Adobe Illustrator 24.0.1, SVG Export Plug-In . SVG Version: 6.00 Build 0)  -->
<svg version="1.1" id="레이어_1" xmlns="http://www.w3.org/2000/svg" xmlns:xlink="http://www.w3.org/1999/xlink" x="0px"
	 y="0px" viewBox="0 0 24 24" style="enable-background:new 0 0 24 24;" xml:space="preserve">
<style type="text/css">
	.st0{fill:#FFFFFF;}
</style>
<path class="st0" d="M21,7v12c0,0.5-0.2,1-0.6,1.4S19.6,21,19,21H5c-0.5,0-1-0.2-1.4-0.6S3,19.5,3,19V5c0-0.5,0.2-1,0.6-1.4
	S4.5,3,5,3h12L21,7z M12,18c0.8,0,1.5-0.3,2.1-0.9S15,15.8,15,15c0-0.8-0.3-1.5-0.9-2.1C13.5,12.3,12.8,12,12,12s-1.5,0.3-2.1,0.9
	C9.3,13.5,9,14.2,9,15c0,0.8,0.3,1.5,0.9,2.1C10.5,17.7,11.2,18,12,18z M6,10h9V6H6V10z"/>
</svg>
