<?xml version="1.0" encoding="utf-8"?>
<!-- Generator: Adobe Illustrator 24.0.1, SVG Export Plug-In . SVG Version: 6.00 Build 0)  -->
<svg version="1.1" id="레이어_1" xmlns="http://www.w3.org/2000/svg" xmlns:xlink="http://www.w3.org/1999/xlink" x="0px"
	 y="0px" viewBox="0 0 24 24" style="enable-background:new 0 0 24 24;" xml:space="preserve">
<style type="text/css">
	.st0{fill:#FFFFFF;}
</style>
<path class="st0" d="M9.4,16.5l2.6-2.6l2.6,2.6l1.4-1.4l-2.6-2.6L16,9.9l-1.4-1.4L12,11.1L9.4,8.5L8,9.9l2.6,2.6L8,15.1L9.4,16.5z
	 M7,21c-0.5,0-1-0.2-1.4-0.6S5,19.5,5,19V6H4V4h5V3h6v1h5v2h-1v13c0,0.5-0.2,1-0.6,1.4S17.6,21,17,21H7z"/>
</svg>
