<svg xmlns="http://www.w3.org/2000/svg" width="366.92" height="396.4"><path fill="#040606" fill-rule="evenodd" d="M361.053 83.719 297.632 4.805H69.289L5.867 83.72c11.52 3.724 39.437 37.13 25.669 64.364-19.589 38.744-25.27 56.684-22.654 75.501 3.782 27.11 42.709 60.772 52.86 69.701 2.351 2.066 8.336 6.842 19.349 15.532 35.022 27.651 102.369 82.771 102.369 82.771.373-.305 67.348-55.12 102.37-82.77 11.013-8.691 16.998-13.467 19.349-15.533 10.152-8.929 49.078-42.59 52.86-69.701 2.617-18.817-3.066-36.757-22.654-75.501-13.769-27.234 14.148-60.64 25.668-64.364"/><path fill="#1a181a" d="M29.016 221.535c.227 2.34 2.14 7.522 5.64 13.152 3.453 5.673 8.276 11.917 13.454 17.696 10.434 11.756 21.979 21.821 27.042 26.265.623.554 2.65 2.23 5.715 4.681a2029.78 2029.78 0 0 0 12.81 10.159c25.82 20.388 68.536 55.15 89.78 72.488 20.975-17.115 63.77-51.95 89.792-72.496 5.479-4.317 9.712-7.672 12.803-10.15 3.063-2.451 5.09-4.128 5.715-4.682 5.062-4.444 16.605-14.51 27.081-26.313 5.139-5.731 9.961-11.975 13.412-17.648 3.5-5.63 5.415-10.812 5.639-13.152l.005-.042.015-.098c.261-1.879.39-3.622.405-5.422a14.231 14.231 0 0 1-.003-.457c-.013-5.13-1.042-11.204-4.269-20.383-3.223-9.17-8.653-21.196-16.801-37.27-4.188-8.279-5.944-17.035-5.935-25.278.003 0 .004-.018.005-.053h-.002l.002-.203c0-.056 0-.12.002-.193.228-17.188 7.118-31.908 15.113-43.143a84.118 84.118 0 0 1 6.165-7.597l-44.708-55.657H79.021L34.317 81.396a85.08 85.08 0 0 1 6.188 7.628c8.032 11.29 14.97 26.148 15.096 43.508l-.231 5.244c-.597 6.668-2.39 13.53-5.714 20.104-8.139 16.057-13.57 28.08-16.792 37.25-3.241 9.215-4.265 15.305-4.27 20.443v.144c.003 1.891.132 3.71.406 5.678l-.008-.056.024.196"/><path fill="#fff" d="M287.893 25.739H79.021L34.317 81.396a84.821 84.821 0 0 1 6.188 7.628c8.034 11.29 14.97 26.148 15.096 43.508l-.232 5.244c-.596 6.668-2.39 13.53-5.713 20.105-8.138 16.056-13.568 28.078-16.792 37.25-3.241 9.214-4.265 15.304-4.27 20.442v.144c.003 1.891.132 3.71.405 5.678l-.007-.056.024.196c.227 2.34 2.14 7.522 5.64 13.152 3.453 5.673 8.276 11.917 13.454 17.696 10.434 11.756 21.978 21.821 27.043 26.265a93.88 93.88 0 0 0 2.348 1.96L307.707 50.404l-19.814-24.665"/><path fill="#ed1a2f" fill-rule="evenodd" d="M80.867 283.33c3.09 2.478 7.323 5.833 12.81 10.158 25.82 20.388 68.536 55.15 89.78 72.488 20.975-17.115 63.77-51.95 89.792-72.496 5.479-4.317 9.712-7.672 12.803-10.15 3.063-2.451 5.09-4.128 5.715-4.682 5.062-4.444 16.605-14.51 27.081-26.313 5.139-5.731 9.961-11.975 13.412-17.648 3.5-5.63 5.415-10.812 5.639-13.152l.005-.042.015-.098c.261-1.879.39-3.622.405-5.422a14.231 14.231 0 0 1-.003-.457c-.013-5.13-1.042-11.204-4.269-20.383-3.223-9.17-8.653-21.196-16.801-37.27-4.188-8.279-5.944-17.035-5.935-25.278.003 0 .004-.018.005-.053h-.002l.002-.203c0-.056 0-.12.002-.193.228-17.188 7.118-31.908 15.113-43.143a84.118 84.118 0 0 1 6.165-7.597l-24.896-30.992L77.501 280.608c.91.745 2.032 1.656 3.366 2.721"/><path fill="#fff" d="M353.83 223.616c-1.553 11.865-11.725 26.824-23.01 39.433-11.259 12.676-23.373 23.203-28.445 27.665-2.156 1.894-8.19 6.718-19.179 15.382-30.987 24.465-86.33 69.661-99.195 80.178l-.541.445c-.327-.27-.681-.558-1.063-.868-14.622-11.956-68.472-55.91-98.673-79.755-10.99-8.664-17.022-13.488-19.179-15.382-5.072-4.462-17.187-14.989-28.444-27.665-11.286-12.609-21.46-27.568-23.01-39.433a56.654 56.654 0 0 1-.559-7.897c-.039-14.907 6.174-32.272 22.796-65.095 2.954-5.855 4.212-12.024 4.21-18.055-.03-12.774-5.429-24.896-12.087-34.185-3.35-4.648-7.032-8.59-10.701-11.565-1.595-1.271-3.17-2.38-4.754-3.282L71.323 9.68h224.274l59.327 73.858c-1.585.902-3.159 2.011-4.755 3.282-3.669 2.974-7.35 6.917-10.7 11.565-6.658 9.29-12.057 21.41-12.086 34.185-.003 6.031 1.254 12.2 4.209 18.055 16.623 32.823 22.835 50.188 22.795 65.095 0 2.653-.188 5.249-.558 7.897zm-17.943-92.193c-.1-10.732 5.078-22.004 11.284-30.29l-.007-.005s8.255-11.685 19.756-17.3l-1.71-2.208L299.671-.005H67.247L1.711 81.62 0 83.828c11.501 5.615 19.756 17.3 19.756 17.3l-.008.005c6.206 8.286 11.385 19.558 11.284 30.29-.002 4.873-.988 9.645-3.295 14.216-16.674 33.029-23.67 51.468-23.71 68.933 0 3.057.223 6.063.642 9.076 2.233 15.244 13.413 30.67 25.073 43.901 11.689 13.165 24.112 23.935 29.189 28.403 2.55 2.234 8.484 6.964 19.523 15.675C113.503 339.298 183.46 396.4 183.46 396.4c.044-.033 69.957-57.102 105.005-84.773 11.039-8.71 16.975-13.44 19.524-15.675 5.076-4.468 17.5-15.238 29.188-28.403 11.66-13.232 22.84-28.657 25.074-43.901.418-3.013.641-6.019.641-9.076-.039-17.465-7.035-35.904-23.71-68.933-2.306-4.571-3.293-9.343-3.295-14.216"/><path fill="#040606" d="M344.203 75.028 103.534 315.695l-55.789-55.79L288.412 19.24l55.79 55.788"/><path fill="#fff" d="M60.313 264.395c1.431-1.198 2.905-2.346 4.22-3.654 1.316-1.314 2.46-2.792 3.66-4.216l16.046 16.08c3.107 3.109 7.64 7.844 11.047 10.322 3.242 2.293 5.415 3.634 9.282 3.72 3.372.018 6.103-1.233 8.418-3.54 4.89-4.884 5.593-9.428 2.521-16.196-1.538-3.43-7.982-9.875-10.749-12.648L87.632 237.11a18.151 18.151 0 0 0 2.276-1.922 19.303 19.303 0 0 0 1.934-2.273l20.11 20.148c6.284 6.604 12.212 12.438 10.817 21.97-.634 5.035-3.467 9.452-6.931 12.918-6.362 6.346-15.39 11.063-24.684 5.646-2.782-1.633-5.53-3.851-7.786-6.106l-23.055-23.097m93.671-16.007c-1.43 1.196-2.91 2.338-4.232 3.646-1.31 1.32-2.457 2.802-3.65 4.23l-34.747-34.806c-3.735 3.735-6.649 7.432-8.982 10.552-.688-.898-1.319-1.85-2.17-2.702-.784-.79-1.737-1.422-2.638-2.107l27.062-27.019c.688.891 1.32 1.844 2.107 2.639.851.848 1.802 1.481 2.698 2.167-3.497 2.71-6.995 5.405-10.198 8.606l34.75 34.794m1.759-42.892c6.086-4.942 5.994-10.502.17-16.328-.786-.788-1.689-1.588-3.082-2.563-5.534-3.861-9.02.527-12.223 3.724zm-26.074-10.352 11.198-11.175c2.468-2.464 6.185-6.408 9.644-7.37 4.688-1.294 8.804-.315 12.642 3.531 5.539 5.544 5.731 12.356 1.978 18.378 8.314 2.54 16.768 4.494 25.178 6.609l5.55 1.461c-1.692 1.456-3.435 2.864-5.066 4.492-1.578 1.579-2.988 3.314-4.448 5.003l-18.117-5.64c-2.313-.74-6.38-1.876-9.685-2.87l-.368.367 18.138 18.162c-1.43 1.194-2.908 2.336-4.226 3.656-1.312 1.305-2.459 2.789-3.655 4.216l-38.763-38.82m52.286-52.199c.685.895 1.373 1.904 2.164 2.697.789.79 1.797 1.478 2.694 2.168-3.66 2.75-7.688 5.864-12.934 11.324l12.15 12.172 5.467-5.458c2.363-2.36 4.288-4.739 5.956-6.963.683.895 1.379 1.91 2.161 2.695.791.79 1.79 1.482 2.698 2.17-2.235 1.66-4.61 3.588-6.978 5.942l-5.466 5.457 14.36 14.376c5.296-5.413 8.589-9.259 11.352-12.912.681.899 1.37 1.908 2.153 2.695.8.793 1.8 1.484 2.7 2.172l-20.028 19.986-38.473-38.533 20.024-19.988m67.042-2.531 3.706 6.023c-1.41 4.905-4.458 9.308-7.976 12.823-11.246 11.224-27.219 12.25-38.8.65-14.751-14.765-12.015-30.942-.563-42.38 3.472-3.46 8.637-6.694 13.495-7.928 1.445 2.395 3.06 4.636 4.608 7.032l-.739.732c-4.993-1.113-10.508.096-13.923 3.507-8.716 8.704-3.257 21.219 5.055 29.54 9.659 9.672 20.856 12.059 28.952 3.979 3.252-3.251 5.227-8.838 5.167-13.636l1.018-.342m-25.321-39.128c1.423-1.193 2.913-2.34 4.221-3.654 1.319-1.311 2.456-2.788 3.656-4.212l15.314 15.334c2.792-2.562 5.64-5.07 8.321-7.745 2.676-2.673 5.188-5.52 7.761-8.307l-15.31-15.338c1.414-1.194 2.905-2.339 4.222-3.652 1.311-1.311 2.452-2.79 3.647-4.218l38.764 38.819c-1.428 1.197-2.904 2.343-4.22 3.655-1.315 1.312-2.464 2.79-3.66 4.221l-18.93-18.965c-2.789 2.568-5.642 5.074-8.32 7.749-2.686 2.673-5.187 5.52-7.755 8.307l18.932 18.96c-1.436 1.196-2.915 2.337-4.23 3.648-1.305 1.314-2.457 2.794-3.648 4.221l-38.765-38.823m93.823-16.16c-1.427 1.192-2.904 2.336-4.222 3.648-1.318 1.311-2.456 2.798-3.658 4.218l-34.746-34.8c-3.736 3.724-6.653 7.432-8.992 10.552-.686-.898-1.313-1.843-2.162-2.694-.786-.794-1.743-1.428-2.627-2.114l27.057-27.019c.679.899 1.316 1.845 2.106 2.639.852.852 1.796 1.481 2.692 2.166-3.504 2.706-6.999 5.404-10.195 8.603l34.747 34.801"/><path fill="#ed1a2f" d="M118.4 134.012c-3.08-.244-6.16-.615-9.24-.615-3.074 0-6.154.371-9.233.615V49.547h46.916c-.251 1.726-.615 3.569-.615 5.297 0 1.724.364 3.57.615 5.295-7.512-.863-15.516-1.724-28.444-1.724v26.469h13.052c4.8 0 9.725-.492 14.896-1.104-.247 1.721-.616 3.57-.616 5.292 0 1.723.369 3.57.616 5.293-5.171-.49-10.096-1.109-15.02-1.109h-12.928v40.756"/><path fill="#fff" d="m276.307 270.75-2.487 9.728c-6.784 3.498-14.813 4.86-22.388 4.86-24.188 0-42.503-14.924-42.503-38.102 0-29.51 20.348-42.96 44.995-42.96 7.459 0 16.508 1.923 23.063 5.54-1.019 3.844-1.699 7.685-2.602 11.641h-1.584c-4.182-6.102-11.418-10.397-18.768-10.397-18.765 0-26.338 17.976-26.338 34.593 0 19.333 9.497 32.902 26.904 32.902 7.012 0 15.15-3.622 20.238-8.48l1.47.676"/></svg>