<svg xmlns="http://www.w3.org/2000/svg" width="80.331505mm" height="87.3125mm" viewBox="0 0 303.61514 330"><path d="m137.118 599.286-9.236-13.336c-2.003-2.894-8.45-8.852-29.083-16.232-13.904-4.972-28.901-8.678-37.861-10.893-2.025-.5-3.77-.931-5.224-1.303-15.464-3.973-30.978-13.317-42.571-25.644-14.998-15.947-22.925-36.02-22.925-58.055 0-18.5 4.56-33.793 8.972-48.579 3.549-11.903 6.901-23.146 6.901-34.189 0-30.705-13.842-49.59-13.984-49.774l-6.772-8.803 7.476-8.192 50.425-55 7.157 3.257c28.526 12.99 66.4 14.392 81.36 14.392 1.884 0 5.362.046 5.362.046s3.506-.046 5.365-.046c14.96 0 52.834-1.401 81.36-14.392l7.157-3.257 57.953 63.21-6.845 8.813c-.563.774-13.963 19.542-13.963 49.746 0 11.043 3.353 22.286 6.902 34.19 4.415 14.785 8.975 30.078 8.975 48.578 0 22.034-7.93 42.108-22.928 58.055-11.59 12.327-27.107 21.671-42.569 25.644-1.453.372-3.199.802-5.18 1.294-9.006 2.224-24.004 5.93-37.905 10.902-20.636 7.38-27.079 13.338-29.082 16.232zm0 0" style="fill:#f36617;fill-opacity:1;fill-rule:nonzero;stroke:none;stroke-width:.7866" transform="translate(14.665 -269.286)"/><path d="M246.975 391.055c0 14.137 3.957 27.405 7.786 40.24 4.16 13.943 8.09 27.11 8.09 42.528 0 16.543-5.94 31.602-17.179 43.552-8.788 9.347-20.906 16.69-32.413 19.643l-5.003 1.25c-9.356 2.312-25.026 6.183-39.947 11.52-13.882 4.966-24.084 10.076-31.19 15.674-7.11-5.602-17.312-10.711-31.191-15.674-14.9-5.328-30.54-9.196-39.886-11.504l-5.086-1.269a57.057 57.057 0 0 1-2.682-.774l194.109-180.829c-3.033 9.658-5.408 21.678-5.408 35.643M48.485 538.131c3.668 1.687 7.408 3.048 11.138 4.003 0 0 5.19 1.297 5.153 1.285 9.245 2.289 24.725 6.114 39.37 11.35 15.658 5.602 26.477 11.461 32.972 17.812 6.493-6.35 17.312-12.21 32.973-17.809 14.669-5.248 30.173-9.08 39.431-11.366l4.284-1.069c.291-.074.562-.12.823-.16-.003 0-.055-.034-.055-.034 12.625-3.241 25.365-10.947 34.954-21.142 12.177-12.949 18.614-29.264 18.614-47.178 0-16.19-4.037-29.719-8.308-44.04-3.721-12.47-7.565-25.365-7.565-38.728 0-31.043 12.159-51.833 16-57.628-.008-.006-.016-.015-.025-.024zM11.858 481.658a66.6 66.6 0 0 1-.473-7.835c0-15.412 3.927-28.585 8.087-42.525 3.829-12.841 7.787-26.112 7.787-40.243 0-27.79-9.369-47.826-14.697-56.989 7.795-8.505 24.965-27.232 36.067-39.339 31.055 11.99 67.942 13.376 83.124 13.376l5.267.046.372-.003 5.088-.043c12.051 0 37.775-.88 63.404-7.236zM227.003 288.42c-30.877 12.93-69.172 14.392-84.486 14.392l-5.488.047-5.276-.047c-15.347 0-53.645-1.462-84.522-14.392-3.27 3.564-41.063 44.79-41.275 45.02 3.902 5.998 16.011 27.08 16.011 57.616 0 13.357-3.674 25.681-7.564 38.728-4.274 14.324-8.309 27.853-8.309 44.04 0 6.302.799 12.407 2.363 18.236l218.549-203.637-.003-.003" style="fill:#fff;fill-opacity:1;fill-rule:nonzero;stroke:none;stroke-width:.7866" transform="translate(14.665 -269.286)"/><path d="M249.528 521c-9.59 10.196-22.329 17.905-34.954 21.147l.055.03c-.261.04-.532.086-.823.16l-4.284 1.07c-9.258 2.286-24.762 6.117-39.431 11.365-15.661 5.599-26.48 11.458-32.973 17.806-6.495-6.348-17.314-12.207-32.972-17.809-14.645-5.236-30.125-9.061-39.37-11.347l-5.153-1.288c-3.73-.955-7.47-2.313-11.139-4.006l219.763-204.725c.007.009.012.018.021.024-3.843 5.795-16.002 26.585-16.002 57.628 0 13.366 3.847 26.259 7.568 38.728 4.27 14.321 8.308 27.85 8.308 44.04 0 17.917-6.437 34.23-18.614 47.178M14.403 429.783c3.89-13.047 7.564-25.371 7.564-38.728 0-30.536-12.109-51.618-16.011-57.615.212-.23 38.006-41.457 41.275-45.02 30.877 12.929 69.175 14.391 84.522 14.391l5.273.047 5.49-.047c15.315 0 53.61-1.462 84.487-14.392l.003.003L8.457 492.06c-1.564-5.829-2.366-11.934-2.366-18.236 0-16.187 4.038-29.716 8.312-44.04m245.803-38.728c0-32.238 13.9-52.244 15.486-54.42l.07-.098 2.812-3.62-2.268-2.467-47.266-51.553-2.609 1.168c-29.906 13.366-68.67 14.81-83.95 14.81l-5.452.046-5.242-.046c-15.31 0-54.082-1.444-83.982-14.813l-2.611-1.165-46.508 50.73c-.01.009-2.999 3.287-2.999 3.287l2.765 3.595c.126.175 15.579 21.303 15.579 54.546 0 12.198-3.515 23.985-7.236 36.46-4.443 14.893-8.64 28.963-8.64 46.308 0 19.975 7.183 38.169 20.77 52.616 10.592 11.262 24.714 19.788 38.75 23.39l5.174 1.293c9.123 2.255 24.357 6.02 38.623 11.123 16.771 5.998 27.697 12.263 32.472 18.623l3.174 4.228 3.174-4.228c4.772-6.36 15.695-12.625 32.472-18.623 14.288-5.113 29.553-8.883 38.67-11.135l5.088-1.27c14.07-3.613 28.198-12.14 38.789-23.404 13.587-14.444 20.768-32.638 20.768-52.613 0-17.348-4.197-31.418-8.64-46.31-3.555-11.923-7.233-24.253-7.233-36.458" style="fill:#211e1e;fill-opacity:1;fill-rule:nonzero;stroke:none;stroke-width:.7866" transform="translate(14.665 -269.286)"/><path d="m17.43 500.35 15.058-14.037 4.151 4.456-9.626 8.969 5.908 6.342 9.062-8.44 4.148 4.455-9.058 8.437 10.901 11.704-5.435 5.067zM55.355 482.006c-3.657-3.927-6.032-4.889-8.484-2.603-2.756 2.569-.832 5.924 6.272 13.547 7.598 8.155 10.103 8.573 12.44 6.391 1.964-1.828 2.45-4.184-2.967-9.998l5.438-5.064c5.414 5.814 8.659 12.171 1.524 18.817-8.155 7.599-14.592 2.735-22.221-5.457-7.633-8.191-12.03-14.957-3.875-22.553 7.777-7.245 13.652-2.071 17.312 1.856zM69.637 451.706l22.38 16.38.115-.104-14.571-23.66 5.626-5.241 18.921 32.723-6.984 6.505-31.304-21.186zM116.123 452.26c3.208-2.99 1.167-6.238-5.583-13.487-6.717-7.208-9.848-9.51-13.056-6.52-3.21 2.99-1.137 6.275 5.58 13.486 6.754 7.248 9.851 9.51 13.059 6.52m-22.37-24.006c8.156-7.6 14.59-2.735 22.222 5.457 7.633 8.191 12.03 14.954 3.875 22.553-8.155 7.595-14.589 2.731-22.221-5.46-7.633-8.192-12.03-14.955-3.875-22.55M132.196 443.77l-25.11-26.954 5.436-5.064 20.961 22.498 9.627-8.966 4.148 4.453zM140.074 386.083l4.151 4.456-9.626 8.966 5.908 6.342 9.059-8.44 4.15 4.455-9.06 8.44 6.753 7.249 10.005-9.32 4.148 4.455-15.44 14.384-25.11-26.954zM149.897 376.933l23.767 12.34.074-.07-17.198-18.461 4.984-4.643 25.11 26.956-6.188 5.768-24.231-12.687-.074.07 17.582 18.876-4.981 4.642-25.113-26.953zM192.829 379.81l2.415-2.25c3.776-3.518 2.313-6.6-4.508-13.922-5.697-6.115-9.107-8.791-13.261-4.923l-2.302 2.145zm-26.822-17.887 8.911-8.3c7.55-7.035 13.729-3.127 21.112 4.8 8.899 9.55 10.868 15.75 3.66 22.47l-8.57 7.983zM208.201 353.993l5.285-4.926-13.891-9.691-.077.07zm-16.368-16.132 6.72-6.259 32.247 20.304-5.662 5.276-6.558-4.538-7.171 6.683 4.065 6.858-5.663 5.276zM208.143 322.67l8.078-7.525 21.576 15.437.077-.07-13.84-22.65 8.042-7.49 25.11 26.953-4.981 4.643-20.05-21.518-.073.07 15.25 25.986-4.226 3.936-24.842-17.05-.077.07 20.05 21.519-4.985 4.642zM206.892 441.788l10.002.894c.826 3.58 4.329 15.895 15.922 29.85l-25.924 6.084zM179.097 475.433c17.16-15.658 22.486-27.503 25.1-37.763v47.04zm0 0" style="fill:#fff;fill-opacity:1;fill-rule:nonzero;stroke:none;stroke-width:.7866" transform="translate(14.665 -269.286)"/><path d="M211.996 464.593h-2.034l2.378-6.28h-3.211v-1.623h5.239l-.012 1.693zM218.012 464.593h-2.028l2.378-6.28h-3.223v-1.623h5.251l-.012 1.693zm0 0" style="fill:#211e1e;fill-opacity:1;fill-rule:nonzero;stroke:none;stroke-width:.7866" transform="translate(14.665 -269.286)"/><path d="M206.892 490.237v-8.852l30.865-7.242-1.469-1.687c-14.23-16.344-16.927-31.11-16.952-31.258l-.175-1.024-12.269-1.093v-12.687c3.432 1.204 11.378 4.277 18.44 9.165l1.532-2.215c-9.62-6.662-20.476-9.97-20.934-10.11l-1.398-.417-.307 1.426c-.338 1.564-.627 3.097-.937 4.725-2.292 12.07-4.886 25.752-27.648 45.949l-1.68 1.493 30.237 11.083v2.76c-9.107.288-17.717 2.952-17.717 7.998 0 10.705 8.675 19.379 19.377 19.379 10.705 0 19.379-8.674 19.379-19.38 0-5.161-9.015-7.831-18.344-8.013m0-48.45 10.002.892c.826 3.582 4.329 15.898 15.922 29.854l-25.924 6.083zm-27.795 33.646c17.16-15.658 22.486-27.503 25.1-37.763v47.04zm0 0" style="fill:#211e1e;fill-opacity:1;fill-rule:nonzero;stroke:none;stroke-width:.7866" transform="translate(14.665 -269.286)"/><path d="M68.3 374.426c-14.285 0-25.906-11.621-25.906-25.906 0-6.92 2.695-13.424 7.587-18.319 4.895-4.892 11.4-7.59 18.319-7.59 14.285 0 25.906 11.624 25.906 25.91 0 14.284-11.621 25.905-25.906 25.905" style="fill:#fff;fill-opacity:1;fill-rule:nonzero;stroke:none;stroke-width:.7866" transform="translate(14.665 -269.286)"/><path d="M68.3 374.426c-14.285 0-25.906-11.621-25.906-25.906 0-6.92 2.695-13.424 7.587-18.319 4.895-4.892 11.4-7.59 18.319-7.59 14.285 0 25.906 11.624 25.906 25.91 0 14.284-11.621 25.905-25.906 25.905m-5.672-2.953a23.84 23.84 0 0 0 9.252.418l3.5-3.626-4.576-4.031H60.628l-2.71 3.21zm14.721-2.16-1.672 1.668a23.682 23.682 0 0 0 11.25-7.915l-.658-.193zm-26.615-4.993a24.049 24.049 0 0 0 6.206 4.922l-.77-.66zm9.952-2.071h9.962l4.695-7.66-5.28-8.235-9.048-.298-4.834 8.293zm26.265-1.294 1.238.338a23.534 23.534 0 0 0 3.752-12.773c0-1.041-.068-2.092-.206-3.125l-1.647.154-3.831 8.975zm-42.292-12.527v.092c0 4.185 1.1 8.256 3.19 11.855l-1.045-6.345zm32.386 4.843h7.546l3.635-8.447-4.96-8.22-8.258.157-3.3 8.36zm-28.64-.643 6.237.424 4.618-8.118-2.66-8.164h-6.552l-4.553 8.075zm2.086-19.637-.07 1.77 6.685-.095 8.201-4.935.553-3.948-1.435-.584a23.673 23.673 0 0 0-13.934 7.792m16.906-3.19 7.396 4.812 7.973-.144v-3.924l-3.45-2.937a23.28 23.28 0 0 0-8.241-2.566l-3.153.848zm0 0" style="fill:#211e1e;fill-opacity:1;fill-rule:nonzero;stroke:none;stroke-width:.7866" transform="translate(14.665 -269.286)"/></svg>