<svg xmlns="http://www.w3.org/2000/svg" width="388" height="480" x="0px" y="0px" viewBox="0 0 388 480"><path fill="none" d="M-13.865-14.24h811.232V988.038H-13.865z" style="fill:#060526;fill-opacity:0"/><path d="M363.274 54.926v181.24c0 66.07 54.618 119.75 121.76 119.75 67.14 0 121.75-53.68 121.75-119.66l-.06.061c.01-.22.06-.41.06-.65V54.927l-243.51.001z" style="fill:#fff" transform="matrix(1.59336 0 0 1.59474 -578.827 -87.593)"/><path d="M491.95 161.494h34.87l-.01 11.66h-34.86v43.96c-2.19.381-4.44.59-6.72.59-2.43 0-4.8-.239-7.12-.67v-43.88h-34.464l.019-11.66h34.445v-34.692H370.7l.002 100h41.794v-34.88l11.662.03v34.85h43.962c.38 2.19.59 4.431.59 6.72 0 2.43-.23 4.801-.66 7.11h-43.892v34.47l-11.662-.01v-34.46h-41.7c2.262 57.83 49.088 104.431 107.729 107.671v-42.512h-34.877l.02-11.67h34.858v-43.959c2.18-.39 4.43-.6 6.72-.6 2.42 0 4.79.24 7.1.67v43.89h34.47l-.01 11.67h-34.46v42.46c58.39-3.63 104.88-50.28 106.93-108.03h-41.3v34.88l-11.66-.01v-34.87h-43.97c-.38-2.19-.59-4.42-.59-6.72 0-2.41.24-4.79.67-7.1h43.89v-34.48l11.66.03v34.451h41.38V126.8h-107.41v34.692z" style="fill:#6ac2ee" transform="matrix(1.59336 0 0 1.59474 -578.827 -87.593)"/><g style="fill:#1e59ae"><path d="M237.82 327.923c-8.938-8.355-19.964-14.192-32.155-16.474v69.993h54.925c-.05-19.424-7.331-36.996-19.105-49.836a61.44 61.493 0 0 1-3.666-3.683m-32.154 72.144v67.714c19.264-1.196 37.73-5.326 54.907-11.944v-55.77zm-77.595 0v55.993c17.382 6.634 36.072 10.715 55.575 11.8v-67.795H128.07Zm19.103-68.411c-11.743 12.82-19.024 30.394-19.073 49.786h55.545v-70.089c-12.429 2.153-23.678 8.054-32.76 16.536-1.179 1.325-2.422 2.553-3.712 3.767"/><path d="M150.885 327.923c8.142-8.867 13.83-19.76 16.061-31.768H97.01v54.971c19.61-.046 37.336-7.478 50.179-19.454 1.274-1.23 2.517-2.458 3.696-3.75m-72.453-31.767H11.988a175.323 175.474 0 0 0 11.055 54.955h55.389zm.005-77.663H11.834v55.624h66.603zm67.015 17.925c-12.683-11.068-29.707-17.861-48.438-17.893V274.1h70.044c-1.992-11.4-7.123-21.832-14.516-30.507a68.811 68.87 0 0 1-7.09-7.176"/><path d="M152.542 243.625c8.62 7.529 19.041 12.791 30.45 14.895v-69.977h-54.924c.05 18.45 6.629 35.26 17.384 47.874a70.71 70.771 0 0 0 7.09 7.208m30.45-128.983H128.1v55.306h54.891v-55.306Zm77.598 0h-55.578v55.306h55.578zm-55.562 144.005c11.649-2.055 22.275-7.35 31.054-15.022a68.02 68.02 0 0 1 7.059-7.16c10.773-12.645 17.368-29.454 17.431-47.92h-55.544Z"/><path d="M236.082 243.625c-7.234 8.484-12.3 18.676-14.372 29.839h69.933v-54.987c-18.77.064-35.817 6.874-48.502 17.987a67.989 68.047 0 0 0-7.059 7.16m74.155 29.84h65.95v-54.94h-65.95zm0 77.662h54.718c6.547-17.43 10.389-36.12 11.088-55.624h-65.806zM221.6 295.502c2.15 12.28 7.903 23.412 16.22 32.42a66.26 66.26 0 0 0 3.666 3.699c12.827 11.994 30.575 19.425 50.175 19.49V295.5z"/></g><path d="M370.7 126.814h228.662v-64.45H370.7l-.004 64.45z" style="fill:#ef2c30" transform="matrix(1.59336 0 0 1.59474 -578.827 -87.593)"/><path d="M43.811 54.912h1.931c2.813 0 3.482-2.212 3.482-4.724 0-2.888-.75-5.088-3.607-5.088h-1.806zm-7.05-16.324h10.913c7.431 0 8.856 6.724 8.856 11.387 0 6.713-2.562 11.437-9.613 11.437h-3.106V76.05h-7.05zm21.645 0h17.338v7.137H65.456v7.5h9.656v7.137h-9.656v8.55h10.75v7.138h-17.8zM91.945 51.6c0-5.45-.507-7.862-2.857-7.862-2.812 0-3.062 3.35-3.062 13.162 0 11.125.294 14.012 3.231 14.012 2.607 0 2.9-3.724 2.938-9.55h6.8v1.313c0 8.075-1.8 14.113-10.538 14.113-9.025 0-9.737-8.45-9.737-19.726 0-9.6.418-19.2 10.412-19.2 6.213 0 9.613 3.35 9.613 12.163V51.6Zm15.595 17.95 10.16-23.825h-9.36v-7.137h17.46v6.2l-10.29 24.124h10.29v7.138h-18.26zm20.12-30.962h7.05l2.6 24.074h.08l3.12-24.074h6.54l3.359 24.074h.08l2.521-24.074h6.8l-5.2 37.462h-7.81l-3.11-24.038h-.08l-2.85 24.038h-7.82zm44.41 32.324c2.86 0 3.27-3.312 3.27-13.587 0-10.287-.409-13.587-3.27-13.587-2.76 0-3.189 3.3-3.189 13.587-.001 10.275.429 13.587 3.189 13.587m.051 5.876c-9.291 0-10.551-7.563-10.551-19.463 0-11.913 1.26-19.475 10.551-19.475 9.989 0 10.539 9.088 10.539 19.475 0 10.387-.55 19.463-10.539 19.463m14.209-38.2h7.061v30.324h10.199v7.138h-17.26zm19.44 0h7.05v30.324h10.21v7.138h-17.26zm19.44 0h17.33v7.137h-10.28v7.5h9.659v7.137h-9.659v8.55h10.75v7.138h-17.8z" style="fill:#fff" transform="matrix(1.59336 0 0 1.59474 -28.4 -28.405)"/></svg>