<?xml version="1.0" encoding="UTF-8" standalone="no"?>
<!-- Generator: Adobe Illustrator 13.0.0, SVG Export Plug-In . SVG Version: 6.00 Build 14948)  -->

<svg
   xmlns:dc="http://purl.org/dc/elements/1.1/"
   xmlns:cc="http://creativecommons.org/ns#"
   xmlns:rdf="http://www.w3.org/1999/02/22-rdf-syntax-ns#"
   xmlns:svg="http://www.w3.org/2000/svg"
   xmlns="http://www.w3.org/2000/svg"
   xmlns:sodipodi="http://sodipodi.sourceforge.net/DTD/sodipodi-0.dtd"
   xmlns:inkscape="http://www.inkscape.org/namespaces/inkscape"
   version="1.1"
   id="Layer_1"
   x="0px"
   y="0px"
   width="214.02367"
   height="252"
   viewBox="0 0 214.02367 252"
   enable-background="new 0 0 255.118 300.853"
   xml:space="preserve"
   sodipodi:docname="Emblem_of_FC_Seoul.svg"
   inkscape:version="0.92.4 (5da689c313, 2019-01-14)"><metadata
   id="metadata143"><rdf:RDF><cc:Work
       rdf:about=""><dc:format>image/svg+xml</dc:format><dc:type
         rdf:resource="http://purl.org/dc/dcmitype/StillImage" /><dc:title></dc:title></cc:Work></rdf:RDF></metadata><defs
   id="defs141" /><sodipodi:namedview
   pagecolor="#ffffff"
   bordercolor="#666666"
   borderopacity="1"
   objecttolerance="10"
   gridtolerance="10"
   guidetolerance="10"
   inkscape:pageopacity="0"
   inkscape:pageshadow="2"
   inkscape:window-width="1366"
   inkscape:window-height="705"
   id="namedview139"
   showgrid="false"
   fit-margin-top="1"
   fit-margin-right="1"
   fit-margin-bottom="1"
   fit-margin-left="1"
   inkscape:zoom="1.1093604"
   inkscape:cx="20.329326"
   inkscape:cy="150.0635"
   inkscape:window-x="-8"
   inkscape:window-y="-8"
   inkscape:window-maximized="1"
   inkscape:current-layer="Layer_1" />

<g
   id="g229"
   transform="matrix(0.83096784,0,0,0.83096784,1.0279774,1.000831)"><g
     id="g136">
	<g
   id="g86">
		<path
   style="fill:#a28848;fill-opacity:1;stroke:none;stroke-opacity:1"
   id="path2"
   d="m 0,256.961 v 3.266 1.134 h 20.358 v 0.074 c 26.382,10.925 33.018,28.923 35.804,39.418 h 142.402 c 2.789,-10.495 9.424,-28.493 35.807,-39.418 v -0.074 h 20.309 v -1.134 -3.266 z"
   inkscape:connector-curvature="0" />
		<rect
   style="fill:#b6181a;fill-opacity:1;stroke:none;stroke-opacity:1"
   id="rect4"
   height="28.198"
   width="27.381001"
   y="261.36099"
   x="113.715" />
		<rect
   id="rect6"
   height="28.198"
   width="27.382999"
   y="261.36099"
   x="86.332001" />
		<path
   style="fill:#b6181a;fill-opacity:1;stroke:none;stroke-opacity:1"
   id="path8"
   d="m 58.949,261.361 v 17.479 c 2.232,3.584 4.018,7.199 5.383,10.719 h 22 v -28.198 z"
   inkscape:connector-curvature="0" />
		<path
   id="path10"
   d="m 43.033,261.361 c 6.875,5.255 12.079,11.314 15.916,17.479 v -17.479 z"
   inkscape:connector-curvature="0" />
		<path
   id="path12"
   d="m 195.862,278.84 c 3.842,-6.165 9.043,-12.225 15.916,-17.479 h -15.916 z"
   inkscape:connector-curvature="0" />
		<rect
   id="rect14"
   height="28.198"
   width="27.382999"
   y="261.36099"
   x="141.09599" />
		<path
   style="fill:#b6181a;fill-opacity:1;stroke:none;stroke-opacity:1"
   id="path16"
   d="m 168.479,261.361 v 28.198 h 22.002 c 1.365,-3.52 3.15,-7.135 5.381,-10.719 v -17.479 z"
   inkscape:connector-curvature="0" />
		<path
   id="path18"
   d="m 255.118,217.545 c -0.15,0.02 -0.293,0.037 -0.438,0.055 -0.68,0.085 -1.314,0.164 -1.941,0.236 l 0.006,9.998 c 0.648,0 1.293,-0.011 1.936,-0.014 0.146,0 0.291,-0.001 0.438,-0.003 -0.001,-3.234 -0.001,-6.571 -0.001,-10.272 z"
   inkscape:connector-curvature="0" />
		<path
   id="path20"
   d="m 240.307,166.483 c 0,-16.675 0,-32.854 0,-47.331 0.002,-4.556 0.359,-6.724 1.096,-11.291 -0.797,0.603 -1.58,1.186 -2.363,1.765 l -0.016,0.114 c -0.74,4.464 -1.074,6.507 -1.086,10.909 0,0 0,97.528 0,98.065 0.85,-0.023 1.631,-0.063 2.369,-0.091 0,-13.427 0,-35.67 0,-52.14 z"
   inkscape:connector-curvature="0" />
		<path
   id="path22"
   d="m 51.167,130.554 c -0.822,-0.455 -1.613,-0.889 -2.373,-1.314 v 30.26 c 0.793,0.211 1.571,0.422 2.373,0.626 0,-11.702 0,-21.861 0,-29.572 z"
   inkscape:connector-curvature="0" />
		<path
   id="path24"
   d="m 47.4,172.407 c -5.804,-6.185 -17.683,-11.186 -21.391,-18.349 -0.479,-0.947 -0.843,-2.877 -0.852,-8.226 0,-4.913 0,-9.475 0,-14.024 0,-1.857 0.124,-2.979 0.249,-3.328 0.272,-1.666 0.91,-2.386 1.762,-2.535 -0.18,-0.221 -0.389,-0.451 -0.63,-0.68 -0.265,-0.119 -0.533,-0.23 -0.81,-0.312 -0.691,-0.212 -1.227,-0.188 -1.641,0.069 -0.521,0.322 -0.878,1.062 -1.062,2.191 v 0.024 l -0.007,0.02 c -0.12,0.329 -0.223,1.486 -0.229,3.326 v 14.299 c 0.006,5.862 0.44,7.494 0.822,8.257 2.156,4.26 7.242,7.818 12.144,11.257 3.509,2.463 6.818,4.778 9.21,7.373 5.02,5.997 4.966,13.27 4.927,19.686 v 1.486 18.908 c 0,5.591 0.003,10.865 -3.74,14.408 -1.791,1.52 -4.443,2.321 -7.596,2.753 4.232,-0.312 7.854,-1.076 10.058,-2.931 3.76,-3.539 3.647,-8.856 3.638,-14.614 0,-3.829 0,-14.296 0,-18.298 0.017,-6.788 0.487,-14.47 -4.852,-20.76 z"
   inkscape:connector-curvature="0" />
		<path
   id="path26"
   d="m 22.728,216.16 c -0.115,-0.955 -0.121,-3.104 -0.121,-4.942 0,-7.277 0,-21.463 0,-29.509 -0.788,-0.141 -1.581,-0.277 -2.366,-0.412 v 29.767 c 0,1.676 0,3.969 0.11,4.957 0.256,2.413 1.288,3.342 2.751,3.987 0.39,0.139 0.831,0.236 1.308,0.289 0.262,-0.062 0.512,-0.133 0.744,-0.217 -1.324,-0.695 -2.194,-1.725 -2.426,-3.92 z"
   inkscape:connector-curvature="0" />
		<path
   id="path28"
   d="m 79.955,165.934 c -0.135,-0.097 -0.295,-0.19 -0.475,-0.281 -0.688,-0.069 -1.344,-0.069 -1.844,0.02 -1.457,0.515 -1.652,1.966 -1.652,3.442 0,0.283 0.008,0.57 0.012,0.848 l 0.016,0.707 c 0,0 0,10.287 0,12.805 0.789,0.079 1.582,0.155 2.371,0.233 0,-4.38 0,-8.537 0,-12.671 -0.012,-1.801 -0.342,-4.23 1.572,-5.103 z"
   inkscape:connector-curvature="0" />
		<path
   id="path30"
   d="m 78.383,213.96 c 0,-5.213 0,-17.109 0,-22.539 -0.783,-0.056 -1.574,-0.114 -2.371,-0.173 0,2.118 0,22.639 0,22.639 l -0.016,2.128 c -0.004,0.585 -0.004,1.13 -0.004,1.618 0,4.319 0.338,5.066 3.736,5.2 0.08,-0.033 0.152,-0.066 0.223,-0.108 -1.873,-0.776 -1.58,-2.93 -1.568,-8.765 z"
   inkscape:connector-curvature="0" />
		<path
   id="path32"
   d="m 103.164,224.445 c 1.088,-1.695 1.09,-3.957 1.09,-11.927 0,-2.749 0,-12.109 0,-14.906 -0.791,-0.022 -1.574,-0.046 -2.369,-0.063 v 14.928 c 0,7.928 0,10.324 -1.129,12.091 l -0.072,0.128 c -0.621,1.05 -1.652,2.802 -5.176,3.926 -0.6,0.17 -1.389,0.318 -2.346,0.444 1.943,-0.143 3.736,-0.359 4.906,-0.692 3.567,-1.141 4.481,-2.888 5.096,-3.929 z"
   inkscape:connector-curvature="0" />
		<path
   id="path34"
   d="m 101.885,177.259 v 15.99 c 0.795,0.031 1.578,0.058 2.369,0.087 0,-5.513 0,-10.744 0,-15.915 0.01,-5.526 0.492,-9.258 -2.906,-12.266 -2.117,-1.772 -4.443,-2.64 -9.143,-3.641 3.135,0.846 4.975,1.72 6.682,3.188 3.107,2.8 3.068,6.137 3.016,10.759 z"
   inkscape:connector-curvature="0" />
		<path
   id="path36"
   d="m 155.043,218.14 c 0,-12.833 0,-33.392 0,-45.714 0,-3.868 -0.197,-7.589 -5.945,-9.088 -0.941,-0.214 -2.393,-0.312 -4.531,-0.327 0.811,0.057 1.463,0.148 1.961,0.264 6.135,1.646 6.141,5.736 6.146,9.34 v 45.547 c 0,3.782 -0.012,8.054 -6.129,10.376 -0.643,0.212 -1.518,0.401 -2.639,0.557 2.512,-0.187 4.16,-0.457 5.191,-0.811 5.775,-2.188 5.946,-6.043 5.946,-10.144 z"
   inkscape:connector-curvature="0" />
		<path
   id="path38"
   d="m 130.391,172.706 c 0.01,-1.684 0.348,-2.67 1.037,-3.251 -0.201,-0.171 -0.432,-0.306 -0.689,-0.403 -1.848,0.203 -2.699,0.993 -2.719,3.66 v 46.557 c 0.014,2.755 0.887,3.583 2.695,3.783 0.266,-0.114 0.512,-0.259 0.713,-0.446 -0.689,-0.591 -1.027,-1.624 -1.037,-3.337 0,-13.16 -0.008,-34.177 0,-46.563 z"
   inkscape:connector-curvature="0" />
		<path
   id="path40"
   d="m 183.36,218.091 c 0,-14.353 0,-37.051 0,-51.406 0.004,-3.765 0.123,-6.537 0.729,-8.933 -0.785,0.179 -1.578,0.357 -2.363,0.523 l -0.012,0.07 c -0.59,2.323 -0.719,4.971 -0.719,8.753 v 51.047 c 0.016,2.906 0.916,3.802 2.682,4.003 0.301,-0.127 0.559,-0.287 0.775,-0.491 -0.692,-0.623 -1.078,-1.701 -1.092,-3.566 z"
   inkscape:connector-curvature="0" />
		<path
   id="path42"
   d="m 208.75,161.093 c 0.01,-4.346 0.125,-7.606 0.609,-10.449 -0.789,0.261 -1.582,0.522 -2.367,0.777 l -0.004,0.053 c -0.5,2.846 -0.604,6.147 -0.604,10.238 v 55.732 c 0,3.34 0.479,7.878 1.799,10.595 l 0.053,0.114 c 0.775,-0.005 1.551,-0.008 2.338,-0.008 -1.324,-2.773 -1.811,-7.42 -1.824,-10.778 0,-15.397 0,-39.709 0,-56.274 z"
   inkscape:connector-curvature="0" />
		<path
   style="fill:#a28848;fill-opacity:1;stroke:none;stroke-opacity:1"
   id="path44"
   d="m 112.643,157.604 6.422,0.137 c -0.186,-0.543 -0.258,-1.003 -0.258,-1.41 v -8.216 c 2.004,0.045 5.078,0.134 5.814,0.203 v -1.617 c -0.736,0.042 -3.811,-0.007 -5.814,-0.049 v -4.827 c 2.475,0.051 5.371,0.131 6.465,0.254 v -1.588 l -12.629,-0.27 c 0.262,0.507 0.373,1.076 0.373,1.576 v 14.41 c 0,0.386 -0.112,0.908 -0.373,1.397 z"
   inkscape:connector-curvature="0" />
		<path
   style="fill:#a28848;fill-opacity:1;stroke:none;stroke-opacity:1"
   id="path46"
   d="m 128.807,155.757 c 0,1.984 2.039,2.251 5.902,2.19 l 1.566,-0.027 c 3.465,-0.054 4.729,-0.179 5.721,-0.752 0.979,-0.54 0.914,-1.421 0.914,-2.323 v -4.223 l -5.135,0.082 v 3.484 c 0,1.206 0.104,1.862 -0.734,2.135 -0.439,0.17 -1.492,0.146 -1.82,0.028 -0.73,-0.21 -0.623,-1.032 -0.623,-2.057 v -10.638 c 0,-0.726 -0.107,-1.566 0.771,-1.884 0.541,-0.19 1.232,-0.179 1.596,-0.064 1.133,0.323 0.984,2.769 0.984,3.805 v 1.628 l 4.961,-0.08 v -6.711 l -3.506,-0.146 c -1.455,-0.055 -7.676,-0.258 -9.463,0.637 -1.203,0.622 -1.135,2.166 -1.135,2.407 v 12.509 z"
   inkscape:connector-curvature="0" />
		<path
   style="fill:#b6181a;fill-opacity:1;stroke:none;stroke-opacity:1"
   id="path48"
   d="m 234.485,167.929 c 0,-16.125 0,-31.643 0,-45.33 0.006,-4.298 0.357,-6.342 1.086,-10.617 -7.318,5.244 -14.305,9.756 -21.586,13.922 0.857,2.303 1.209,3.725 1.209,7.239 0,11.267 0,24.67 0,38.893 0,14.306 0,34.919 0,47.175 -0.004,3.887 -0.352,5.663 -1.209,8.882 11.971,-0.042 23.398,-0.098 35.295,-0.161 0,-3.133 0,-6.367 0,-9.936 -5.174,0.638 -8.164,0.872 -14.795,1.111 0,-13.221 0,-35.159 0,-51.178 z"
   inkscape:connector-curvature="0" />
		<path
   style="fill:#b6181a;fill-opacity:1;stroke:none;stroke-opacity:1"
   id="path50"
   d="m 27.23,126.028 c 2.418,3.28 2.433,7.238 2.433,10.992 0,5.454 0,10.945 0,16.819 5.313,1.759 10.395,3.3 15.675,4.774 0,-12.133 0,-22.762 0,-31.023 -13.214,-7.635 -28.16,-18.138 -32.326,-21.149 -4.103,-2.966 -7.432,-4.252 -9.586,-3.124 -1.664,0.662 -2.764,3.025 -3.131,6.678 -0.334,3.684 -0.28,7.531 -0.28,9.227 0,5.701 0,9.926 0,15.836 -0.007,10.303 -0.134,15.488 1.55,20.214 1.783,4.705 5.178,8.601 12.664,15.108 0.781,0.696 1.531,1.349 2.301,2.016 6.322,5.075 10.26,7.342 11.551,14.771 0.23,1.414 0.364,4.485 0.366,7.72 0,2.997 0,12.492 0,15.328 0,4.643 0,7.46 -2.31,9.366 -0.255,0.194 -0.598,0.356 -0.984,0.498 -0.232,0.084 -0.482,0.155 -0.744,0.217 -1.471,0.345 -3.338,0.327 -4.586,-0.142 -1.604,-0.72 -2.666,-1.74 -2.926,-4.255 -0.117,-0.979 -0.123,-3.167 -0.123,-5.052 0,-7.438 0,-21.825 0,-30.12 -5.684,-1.019 -11.111,-2.063 -16.759,-3.232 0,17.023 0,38.678 0,50.578 5.571,0.513 16.956,1.114 21.506,1.127 8.53,0.011 17.263,0.255 21.263,-3.167 3.764,-3.591 3.649,-8.99 3.644,-14.864 0,-3.899 0,-14.446 0,-18.545 0.015,-6.938 0.477,-14.825 -4.861,-21.341 -5.802,-6.42 -17.678,-11.671 -21.387,-19.134 -0.48,-0.99 -0.842,-2.994 -0.85,-8.568 0,-5.127 0,-9.904 0,-14.683 0,-1.95 0.122,-3.14 0.246,-3.509 0.393,-2.559 1.563,-3.008 3.035,-2.557 1.544,0.508 2.97,1.484 3.927,2.432 0.241,0.229 0.45,0.459 0.63,0.68 0.019,0.026 0.048,0.059 0.062,0.084 z"
   inkscape:connector-curvature="0" />
		<path
   style="fill:#b6181a;fill-opacity:1;stroke:none;stroke-opacity:1"
   id="path52"
   d="m 97.346,224.417 c 1.08,-1.705 1.08,-3.971 1.08,-12.004 0,-2.771 0,-12.146 0,-14.971 -5.68,-0.196 -11.107,-0.429 -16.77,-0.735 0,3.684 0.008,13.843 0.008,17.359 0.008,5.783 0.23,7.644 -1.713,8.659 -0.07,0.042 -0.143,0.075 -0.223,0.108 -0.037,0.021 -0.082,0.046 -0.127,0.063 -0.373,0.099 -1.572,0.195 -2.313,0.189 -5.313,-0.1 -4.75,-1.172 -4.734,-9.3 0,-5.373 0,-17.445 0,-23.073 8.777,0.708 17.152,1.229 25.871,1.607 0,-5.569 0,-10.864 0,-16.103 0.018,-5.599 0.498,-9.372 -2.912,-12.506 -2.996,-2.625 -6.447,-3.419 -16.525,-5.494 -1.311,-0.27 -2.578,-0.534 -3.881,-0.824 -6.807,-1.49 -12.127,-2.31 -13.855,-2.106 -1.852,0.442 -2.785,1.093 -3.767,2.167 -1.709,2.27 -1.701,4.711 -1.701,11.692 0,12.729 0,32.344 0,44.363 -0.008,5.158 -0.121,7.212 0.482,9.18 0.387,1.161 2.047,4.402 4.986,5.403 3.596,1.044 9.549,1.242 13.969,1.248 0.625,0.009 1.209,0.009 1.828,0.009 1.604,0 11.482,0.064 15.188,-0.98 3.574,-1.143 4.492,-2.91 5.109,-3.951 z M 74.377,164.036 c 1.303,-0.233 3.76,0.154 5.104,0.813 0.18,0.094 0.34,0.182 0.475,0.281 0,0.002 0,0.002 0.012,0.006 1.705,1.415 1.689,2.4 1.689,5.375 0,4.42 0,8.835 0,13.503 -1.107,-0.101 -2.193,-0.203 -3.273,-0.307 -0.789,-0.078 -1.582,-0.154 -2.371,-0.233 -1.145,-0.115 -2.291,-0.234 -3.457,-0.359 0,-4.763 0,-9.26 0,-13.761 -0.017,-1.918 -0.386,-4.561 1.821,-5.318 z"
   inkscape:connector-curvature="0" />
		<path
   style="fill:#b6181a;fill-opacity:1;stroke:none;stroke-opacity:1"
   id="path54"
   d="m 149.215,218.2 c 0,-12.759 0,-33.201 0,-45.366 -0.004,-3.824 -0.195,-7.474 -5.947,-9.086 -1.99,-0.497 -6.344,-0.511 -14.705,-0.497 -7.049,0.024 -14.153,-0.106 -16.651,1.174 -4.637,2.57 -4.139,6.792 -4.129,8.595 0,12.166 0,32.49 0,45.083 -0.01,2.099 -0.498,6.445 4.129,9.496 2.531,1.444 9.641,1.75 16.651,1.754 8.418,-0.004 12.732,-0.392 14.705,-1.063 5.77,-2.183 5.943,-6.022 5.947,-10.09 z m -16.763,1.068 c -0.02,1.729 -0.367,2.746 -1.023,3.337 -0.201,0.188 -0.447,0.332 -0.713,0.446 -0.582,0.235 -1.303,0.311 -2.152,0.315 -2.709,-0.018 -3.98,-0.746 -4.01,-4.099 0,-13.162 0,-34.18 0,-46.573 0.033,-3.298 1.309,-3.925 4.01,-3.943 0.861,0.008 1.582,0.076 2.176,0.299 0.258,0.098 0.488,0.232 0.689,0.403 0.662,0.558 1.01,1.534 1.023,3.226 0,12.479 0,33.504 0,46.589 z"
   inkscape:connector-curvature="0" />
		<path
   style="fill:#b6181a;fill-opacity:1;stroke:none;stroke-opacity:1"
   id="path56"
   d="m 202.92,217.548 c 0,-15.13 0,-39.043 0,-55.047 0.008,-4.193 0.127,-7.337 0.615,-10.057 -6.309,1.947 -12.328,3.588 -18.592,5.05 0.357,2.097 0.605,4.877 0.605,7.805 0,14.848 0,38.08 0,52.732 -0.016,1.863 -0.385,2.976 -1.098,3.628 -0.217,0.204 -0.475,0.364 -0.775,0.491 -0.578,0.242 -1.295,0.336 -2.139,0.348 -2.473,0.017 -3.979,-0.618 -4.004,-4.284 0,-14.175 0,-36.604 0,-50.586 0.008,-3.659 0.121,-6.351 0.725,-8.665 -6.387,1.318 -12.484,2.334 -18.826,3.153 0.369,1.872 0.594,4.356 0.6,6.983 0,13.34 0,35.467 0,49.417 0.012,3.238 0.223,5.87 4.369,8.742 4.693,2.832 18.061,3.314 22.252,-1.232 0.215,0.686 0.436,1.336 0.662,2 0.02,0.063 0.045,0.128 0.059,0.188 0.486,0 0.963,0 1.436,0 5.373,-0.014 10.553,-0.031 15.936,-0.048 -1.33,-2.736 -1.803,-7.316 -1.825,-10.618 z"
   inkscape:connector-curvature="0" />
		<path
   style="fill:#a28848;fill-opacity:1;stroke:none;stroke-opacity:1"
   id="path58"
   d="m 56.053,132.585 v 2.51 c 15.546,5.684 32.425,9.391 50.298,11.046 v -2.323 c -17.902,-1.686 -34.787,-5.46 -50.298,-11.233 z"
   inkscape:connector-curvature="0" />
		<path
   style="fill:#a28848;fill-opacity:1;stroke:none;stroke-opacity:1"
   id="path60"
   d="m 209.334,130.798 v -2.576 c -17.898,8.114 -38.396,13.423 -60.383,15.545 v 2.33 c 21.921,-2.086 42.407,-7.321 60.383,-15.299 z"
   inkscape:connector-curvature="0" />
		<path
   style="fill:#a28848;fill-opacity:1;stroke:none;stroke-opacity:1"
   id="path62"
   d="m 23.382,237.615 h -1.635 c -0.623,1.269 -1.189,1.34 -2.215,1.483 v 1.219 h 1.324 v 7.875 c 0,0.539 -0.058,0.841 -0.22,1.281 h 2.878 c -0.133,-0.405 -0.133,-0.742 -0.133,-1.281 v -10.577 z"
   inkscape:connector-curvature="0" />
		<path
   style="fill:#a28848;fill-opacity:1;stroke:none;stroke-opacity:1"
   id="path64"
   d="m 51.391,237.847 c -0.431,-0.49 -1.857,-0.455 -2.358,-0.455 h -0.848 c -0.438,0 -2.029,-0.08 -2.417,0.471 -0.259,0.39 -0.297,1.008 -0.297,1.931 v 3.105 c 0,0.47 0.049,1.021 0.494,1.311 0.74,0.523 2.531,0.343 3.242,0.082 v 2.535 c 0,0.698 0.02,1.491 -0.34,1.673 -0.264,0.13 -0.494,0.083 -0.602,0.021 -0.342,-0.185 -0.309,-0.868 -0.309,-1.857 v -1.252 H 45.47 v 1.867 c 0,0.947 -0.035,1.543 0.297,1.888 0.419,0.438 1.525,0.475 2.087,0.475 h 0.77 c 0.582,0 2.043,0.109 2.582,-0.426 0.504,-0.505 0.441,-1.433 0.441,-1.89 v -7.664 c 0,-0.954 0.048,-1.475 -0.256,-1.815 z m -2.234,4.594 c 0,0.586 -0.192,0.831 -0.44,0.892 -0.345,0.08 -0.681,-0.028 -0.761,-0.584 -0.02,-0.094 -0.02,-0.81 -0.02,-1.053 v -1.933 c 0,-0.761 0.068,-1.106 0.359,-1.223 0.131,-0.062 0.389,-0.106 0.588,0.021 0.273,0.182 0.273,0.456 0.273,1.232 v 2.648 z"
   inkscape:connector-curvature="0" />
		<path
   style="fill:#a28848;fill-opacity:1;stroke:none;stroke-opacity:1"
   id="path66"
   d="m 78.258,244.423 c 0,-0.936 -0.148,-1.151 -1.059,-1.51 0.928,-0.248 1.01,-0.568 1.01,-1.38 v -1.723 c 0,-0.471 0.066,-1.46 -0.357,-1.935 -0.568,-0.584 -2.213,-0.502 -2.6,-0.502 h -0.375 c -0.645,0 -1.904,-0.063 -2.449,0.473 -0.428,0.417 -0.375,1.281 -0.375,1.884 v 1.687 c 0,0.873 0.049,1.319 0.99,1.54 -1.043,0.411 -0.975,0.767 -0.975,1.693 v 2.521 c 0,0.694 -0.068,1.718 0.602,2.141 0.768,0.438 4.154,0.457 4.93,0.034 0.76,-0.424 0.658,-1.318 0.658,-2.113 z m -2.879,4.062 c -0.127,0.064 -0.447,0.064 -0.57,0 -0.307,-0.195 -0.281,-0.442 -0.281,-0.879 v -3.234 c 0,-0.257 -0.037,-0.518 0.242,-0.711 0.127,-0.094 0.43,-0.15 0.629,-0.045 0.322,0.142 0.322,0.401 0.322,0.73 v 3.228 c 0,0.328 0.023,0.734 -0.342,0.911 z m 0,-6.029 c -0.127,0.07 -0.447,0.07 -0.57,0 -0.307,-0.173 -0.281,-0.437 -0.281,-0.878 v -2.223 c 0,-0.257 -0.037,-0.516 0.242,-0.711 0.127,-0.104 0.43,-0.147 0.629,-0.051 0.322,0.149 0.322,0.409 0.322,0.731 v 2.224 c 0,0.343 0.023,0.743 -0.342,0.908 z"
   inkscape:connector-curvature="0" />
		<path
   style="fill:#a28848;fill-opacity:1;stroke:none;stroke-opacity:1"
   id="path68"
   d="m 104.852,241.386 v -1.394 c 0,-0.769 0.064,-1.465 -0.318,-1.917 -0.559,-0.666 -1.879,-0.554 -3.068,-0.554 -0.277,0 -2.779,0.093 -2.779,0.093 v 4.147 h 2.236 v -1.84 c 0,-0.503 -0.045,-0.841 0.426,-1.083 0.18,-0.097 0.498,-0.066 0.617,0 0.289,0.194 0.355,0.45 0.355,0.742 v 1.431 c 0,0.779 0.031,1.248 -0.162,1.443 -0.225,0.244 -0.764,0.21 -1.219,0.21 v 1.092 c 0.588,0 0.906,0.02 1.055,0.13 0.357,0.31 0.326,0.831 0.326,1.508 v 1.37 c 0,0.841 0.031,1.51 -0.289,1.685 -0.227,0.115 -0.426,0.071 -0.525,0 -0.393,-0.224 -0.34,-0.891 -0.34,-1.786 v -1.767 h -2.492 v 2.549 c 0,0.766 -0.049,1.506 0.258,1.879 0.316,0.361 1.012,0.394 1.863,0.394 h 1.725 c 1.037,0 1.523,0.032 1.914,-0.323 0.465,-0.473 0.418,-1.704 0.418,-2.116 v -2.546 c 0,-0.976 -0.141,-1.269 -1.051,-1.593 0.229,-0.031 0.471,-0.131 0.643,-0.308 0.393,-0.391 0.407,-0.76 0.407,-1.446 z"
   inkscape:connector-curvature="0" />
		<path
   style="fill:#a28848;fill-opacity:1;stroke:none;stroke-opacity:1"
   id="path70"
   d="m 151.321,247.347 2.059,-2.45 c 1.668,-1.998 1.762,-1.998 1.762,-3.817 v -0.996 c 0,-0.567 0.021,-1.576 -0.428,-2.008 -0.568,-0.586 -1.855,-0.538 -3.164,-0.502 -0.645,0.014 -1.984,0.157 -2.67,0.273 v 4.207 h 2.285 v -1.093 c 0,-0.821 -0.047,-1.737 0.361,-2.043 0.166,-0.113 0.41,-0.146 0.582,-0.079 0.309,0.101 0.389,0.304 0.457,0.545 0.119,0.479 0.068,2.133 -0.01,2.635 -0.15,0.928 -0.619,1.469 -1.611,2.617 l -2.293,2.723 v 2.114 h 6.65 v -2.206 c -0.666,0.08 -0.945,0.08 -1.809,0.08 z"
   inkscape:connector-curvature="0" />
		<path
   style="fill:#a28848;fill-opacity:1;stroke:none;stroke-opacity:1"
   id="path72"
   d="m 178.54,237.49 c -1.625,0 -2.176,0.048 -2.504,0.291 -0.629,0.472 -0.584,1.159 -0.584,1.881 v 7.883 c 0,0.713 -0.045,1.407 0.584,1.884 0.328,0.224 0.879,0.29 2.504,0.29 1.805,0 2.365,-0.066 2.729,-0.503 0.342,-0.394 0.373,-0.694 0.373,-1.671 v -7.883 c 0,-0.971 -0.031,-1.279 -0.373,-1.684 -0.364,-0.44 -0.925,-0.488 -2.729,-0.488 z m 0.613,10.28 c 0,0.548 -0.088,0.813 -0.6,0.813 -0.531,0 -0.65,-0.265 -0.65,-0.813 v -8.314 c 0,-0.572 0.119,-0.812 0.65,-0.812 0.512,0 0.6,0.239 0.6,0.812 z"
   inkscape:connector-curvature="0" />
		<path
   style="fill:#a28848;fill-opacity:1;stroke:none;stroke-opacity:1"
   id="path74"
   d="m 205.137,237.49 c -1.629,0 -2.18,0.048 -2.5,0.291 -0.643,0.472 -0.58,1.159 -0.58,1.881 v 7.883 c 0,0.713 -0.063,1.407 0.58,1.884 0.32,0.224 0.871,0.29 2.5,0.29 1.801,0 2.371,-0.066 2.721,-0.503 0.348,-0.394 0.379,-0.694 0.379,-1.671 v -7.883 c 0,-0.971 -0.031,-1.279 -0.379,-1.684 -0.35,-0.44 -0.92,-0.488 -2.721,-0.488 z m 0.612,10.28 c 0,0.548 -0.096,0.813 -0.6,0.813 -0.531,0 -0.652,-0.265 -0.652,-0.813 v -8.314 c 0,-0.572 0.121,-0.812 0.652,-0.812 0.504,0 0.6,0.239 0.6,0.812 z"
   inkscape:connector-curvature="0" />
		<path
   style="fill:#a28848;fill-opacity:1;stroke:none;stroke-opacity:1"
   id="path76"
   d="m 234.274,244.504 v -5.878 c 0,-0.409 0.018,-0.666 0.111,-1.012 h -2.775 l -3.443,6.89 v 1.887 h 3.572 v 2.059 c 0,0.372 -0.045,0.697 -0.174,1.023 h 2.754 c -0.096,-0.37 -0.08,-0.663 -0.08,-0.974 v -2.108 h 1.203 v -1.887 z m -2.57,0 h -2.258 l 2.258,-4.384 z"
   inkscape:connector-curvature="0" />
		<polygon
   style="fill:#a28848;fill-opacity:1;stroke:none;stroke-opacity:1"
   id="polygon78"
   points="121.573,241.879 125.34,244.182 123.754,248.594 127.282,245.593 130.801,248.594 129.227,244.182 132.991,241.879 128.479,241.902 127.282,237.733 126.083,241.902 " />
		<g
   id="g84">
			<g
   id="g82">
				<path
   style="fill:#a28848;fill-opacity:1;stroke:none;stroke-opacity:1"
   id="path80"
   d="M 234.372,90.112 V 57.487 C 207.989,46.563 201.354,28.564 198.565,18.069 h -43.18 c -0.289,-0.797 -0.473,-1.618 -0.51,-2.479 -0.061,-1.296 0.209,-5.014 3.309,-6.929 -4.191,0.723 -5.941,3.479 -6.609,6.34 -0.135,0.579 -0.23,1.166 -0.289,1.738 -0.078,0.754 -0.098,1.489 -0.082,2.167 0.131,6.269 3.938,11.731 4.939,13.518 -3.99,-3.807 -6.572,-8.995 -6.736,-14.224 -0.516,-0.457 -1.002,-0.91 -1.461,-1.361 -0.629,-0.621 -1.205,-1.233 -1.729,-1.839 -5.186,-5.989 -5.322,-11.23 -3.303,-15.001 -0.018,0.018 -0.035,0.042 -0.047,0.06 -1.701,1.642 -2.795,3.882 -3.381,6.057 -0.35,1.312 -0.516,2.602 -0.516,3.722 0,15.81 19.109,20.253 19.109,35.028 6.389,0.047 7.695,4.781 7.645,6.399 -0.059,1.828 -0.926,4.286 -3.547,5.619 4.852,0 6.689,3.222 6.689,5.726 0,2.688 -2.127,4.7 -4.723,4.7 -3.783,0 -5.113,-3.295 -4.434,-4.813 -0.213,1.262 1.113,3.616 3.395,3.515 2.967,-0.133 3.623,-2.536 3.566,-3.636 -0.213,-4.129 -3.496,-4.952 -6.016,-4.853 -2.383,0.093 -4.928,-0.227 -5.775,-2.359 1.516,1.766 3.877,1.574 5.24,1.296 1.205,-0.243 3.604,-1.938 3.248,-5.048 -0.482,-4.197 -4.744,-5.388 -6.949,-5.02 0,-16.831 -22.697,-21.421 -22.697,-31.167 0,-2.516 2.355,-4.912 2.902,-5.459 -4.91,2.485 -5.615,6.136 -5.615,8.459 0,13.885 15.873,18.25 15.873,27.826 0,3.943 -2.371,5.182 -3.574,5.758 0.422,-0.581 0.596,-1.753 0.582,-2.683 -0.035,-2.767 -2.053,-4.889 -4.617,-5.171 -2.742,-0.301 -6.592,2.069 -6.17,7.679 0.143,1.994 1.318,5.798 4.561,8.101 -0.631,0.886 -1.025,1.997 -1.025,3.222 0,0.48 0.078,0.936 0.184,1.376 -1.412,-1.36 -2.863,-2.202 -3.914,-2.694 1.477,-1.049 2.615,-2.722 2.615,-2.722 -2.029,-1.585 -4.666,-4.532 -4.666,-9.094 0,-5.867 4.336,-8.361 7.656,-8.133 3.084,0.21 5.656,2.419 6.029,5.33 0.793,-4.935 -4.82,-9.033 -9.047,-13.832 -4.639,-5.271 -7.793,-12.667 -4.156,-19.354 -1.322,1.19 -3.443,4.366 -4,6.264 -0.561,-1.897 -2.682,-5.073 -3.998,-6.264 3.637,6.688 0.482,14.084 -4.16,19.354 -4.223,4.799 -9.834,8.897 -9.043,13.832 0.369,-2.91 2.939,-5.12 6.029,-5.33 3.317,-0.228 7.657,2.266 7.657,8.133 0,4.562 -2.637,7.509 -4.666,9.094 0,0 1.141,1.673 2.613,2.722 -1.051,0.493 -2.502,1.334 -3.918,2.694 0.108,-0.44 0.186,-0.896 0.186,-1.376 0,-1.225 -0.393,-2.336 -1.026,-3.222 3.247,-2.303 4.418,-6.106 4.565,-8.101 0.418,-5.61 -3.428,-7.98 -6.174,-7.679 -2.559,0.283 -4.58,2.405 -4.617,5.171 -0.012,0.929 0.162,2.102 0.584,2.683 -1.207,-0.576 -3.572,-1.815 -3.572,-5.758 0,-9.576 15.87,-13.94 15.87,-27.826 0,-2.323 -0.703,-5.974 -5.613,-8.459 0.543,0.547 2.904,2.943 2.904,5.459 0,9.746 -22.69,14.336 -22.69,31.167 -2.211,-0.368 -6.471,0.822 -6.953,5.02 -0.359,3.11 2.043,4.805 3.244,5.048 1.367,0.277 3.727,0.469 5.242,-1.296 -0.848,2.133 -3.393,2.453 -5.775,2.359 -2.518,-0.099 -5.805,0.724 -6.016,4.853 -0.059,1.101 0.6,3.503 3.566,3.636 2.283,0.101 3.605,-2.253 3.396,-3.515 0.676,1.519 -0.654,4.813 -4.436,4.813 -2.596,0 -4.721,-2.012 -4.721,-4.7 0,-2.504 1.836,-5.726 6.688,-5.726 -2.621,-1.333 -3.486,-3.791 -3.545,-5.619 -0.055,-1.618 1.254,-6.352 7.643,-6.399 0,-14.775 19.107,-19.218 19.107,-35.028 0,-1.12 -0.17,-2.41 -0.52,-3.722 -0.58,-2.157 -1.66,-4.375 -3.33,-6.011 -0.035,-0.034 -0.061,-0.074 -0.098,-0.105 2.023,3.769 1.875,9.013 -3.313,15.001 -0.74,0.856 -1.59,1.73 -2.549,2.616 -0.211,0.196 -0.406,0.388 -0.629,0.584 -0.156,5.229 -2.744,10.417 -6.734,14.224 1.004,-1.787 4.811,-7.249 4.945,-13.518 0.02,-1.052 -0.041,-2.241 -0.273,-3.433 -0.029,-0.158 -0.064,-0.314 -0.1,-0.473 -0.668,-2.86 -2.42,-5.615 -6.604,-6.34 3.098,1.915 3.363,5.633 3.303,6.929 -0.035,0.86 -0.221,1.681 -0.508,2.479 H 56.16 C 53.373,28.565 46.738,46.563 20.356,57.487 V 90.09 C 12.356,83.091 5.541,75.422 0,67.24 v 7.751 c 5.049,6.624 10.927,12.881 17.601,18.689 1.452,1.263 2.937,2.512 4.464,3.731 2.604,2.083 5.293,4.077 8.055,5.984 0,0.001 10e-4,0.001 10e-4,0.001 0.022,0.015 0.045,0.03 0.066,0.045 2.135,1.471 4.311,2.886 6.532,4.251 0.614,0.379 1.231,0.753 1.852,1.123 0.114,0.065 0.224,0.137 0.337,0.202 1.086,0.644 2.203,1.245 3.305,1.862 20.327,11.355 43.794,18.429 68.651,20.604 4.689,3.386 10.45,5.383 16.678,5.383 6.242,0 12.016,-2.008 16.709,-5.41 24.029,-2.146 46.748,-8.863 66.572,-19.608 7.766,-4.209 15.1,-9.021 21.873,-14.438 1.48,-1.184 2.918,-2.396 4.332,-3.62 6.689,-5.809 12.59,-12.07 17.652,-18.704 v -7.738 c -5.529,8.151 -12.326,15.79 -20.308,22.764 z M 78.771,75.504 c -3.229,-2.076 -8.031,-7.687 0.076,-21.833 -4.908,11.428 -1.793,16.585 1.754,19.098 -1.121,1.426 -1.83,2.735 -1.83,2.735 z M 127.227,36.11 c -0.924,0 -2.871,0.376 -3.969,0.851 1.344,-1.889 3.25,-5.348 3.969,-7.729 0.719,2.382 2.631,5.841 3.969,7.729 -1.094,-0.475 -3.043,-0.851 -3.969,-0.851 z m 48.65,39.394 c 0,0 -0.707,-1.309 -1.828,-2.734 3.547,-2.513 6.66,-7.67 1.754,-19.098 8.104,14.145 3.303,19.756 0.074,21.832 z"
   inkscape:connector-curvature="0" />
			</g>
		</g>
	</g>
	<path
   id="path88"
   d="m 105.447,126.386 c -4.02,-4.918 -6.434,-11.202 -6.434,-18.051 0,-0.428 0.012,-0.854 0.031,-1.277 -1.844,0.031 -7.076,-0.146 -11.016,-5.082 7.277,1.417 11.836,-4.276 12.189,-6.277 -1.385,1.533 -4.578,4.479 -10.055,4.479 -1.154,0 -2.475,-0.193 -3.832,-0.598 v 23.453 c 6.24,1.453 12.623,2.575 19.117,3.353 z"
   inkscape:connector-curvature="0" />
	<path
   style="fill:#b6181a;fill-opacity:1;stroke:none;stroke-opacity:1"
   id="path90"
   d="M 86.332,123.032 V 99.579 C 81.375,98.099 75.908,93.758 76.256,85.369 68.008,83.053 64.287,76.434 63.928,70.433 c -0.549,-9.202 5.09,-12.909 9.746,-22.769 2.361,-4.991 0.482,-12.386 -0.504,-13.107 6.326,2.386 7.273,9.179 7.025,12.18 2.316,-4.5 6.102,-10.177 6.111,-17.396 H 64.332 c -1.365,3.518 -3.15,7.137 -5.383,10.718 v 74.044 c 8.713,3.724 17.881,6.712 27.383,8.929 z"
   inkscape:connector-curvature="0" />
	<path
   id="path92"
   d="M 58.949,114.104 V 40.06 C 53.214,49.274 44.435,58.251 31.568,64.667 v 34.23 c 8.442,5.952 17.628,11.04 27.381,15.207 z"
   inkscape:connector-curvature="0" />
	<path
   id="path94"
   d="M 223.245,98.855 V 64.667 C 210.382,58.25 201.602,49.273 195.862,40.06 v 74.02 c 9.758,-4.173 18.941,-9.267 27.383,-15.225 z"
   inkscape:connector-curvature="0" />
	<path
   id="path96"
   d="m 154.471,95.699 c 0.354,2.001 4.912,7.694 12.189,6.277 -3.689,4.623 -8.514,5.072 -10.623,5.083 0.018,0.422 0.029,0.848 0.029,1.275 0,6.828 -2.398,13.097 -6.398,18.008 6.387,-0.779 12.67,-1.891 18.811,-3.326 V 99.543 c -1.4,0.43 -2.766,0.634 -3.953,0.634 -5.477,0 -8.67,-2.946 -10.055,-4.478 z"
   inkscape:connector-curvature="0" />
	<path
   style="fill:#b6181a;fill-opacity:1;stroke:none;stroke-opacity:1"
   id="path98"
   d="M 195.862,114.08 V 40.06 c -2.23,-3.582 -4.016,-7.201 -5.381,-10.718 h -22.002 v 1.962 c 0.605,6.296 3.914,11.351 6.016,15.434 -0.248,-3.001 0.703,-9.794 7.027,-12.18 -0.986,0.721 -2.865,8.116 -0.508,13.107 4.662,9.86 10.301,13.567 9.748,22.769 -0.359,6.001 -4.076,12.62 -12.328,14.936 0.344,8.322 -5.029,12.658 -9.955,14.174 v 23.474 c 9.504,-2.219 18.672,-5.211 27.383,-8.938 z"
   inkscape:connector-curvature="0" />
	<path
   id="path100"
   d="m 151.717,111.276 c -0.377,3.182 -1.379,6.22 -2.973,9.041 0.105,0.271 0.523,1.512 0.721,3.453 3.105,-4.365 4.797,-9.473 4.91,-14.858 -1.167,1.286 -2.195,2.056 -2.658,2.364 z"
   inkscape:connector-curvature="0"
   style="fill:#ffffff" />
	<path
   id="path102"
   d="m 109.277,102.987 c -2.238,2.194 -3.334,4.518 -4.387,6.765 0,0 -0.479,0.994 -0.527,1.104 0.344,3.263 1.354,6.35 2.926,9.102 l 1.273,0.691 c 2.154,1.185 4.391,2.402 7.41,2.862 0.15,-0.208 4.676,-6.454 4.803,-6.629 -1.832,-3.657 -3.036,-7.381 -3.676,-11.38 -0.208,-0.064 -7.583,-2.437 -7.822,-2.515 z"
   inkscape:connector-curvature="0"
   style="fill:#ffffff" />
	<path
   id="path104"
   d="m 111.992,94.22 c -0.754,-0.191 -1.424,-0.441 -2.014,-0.725 -0.051,0.288 -0.094,0.552 -0.094,0.553 -0.305,1.728 -0.598,3.392 -0.598,5.209 0,0.884 0.082,1.813 0.254,2.793 0.244,0.077 7.594,2.43 7.803,2.499 2.965,-2.943 6.17,-5.279 9.776,-7.142 0,-0.189 0.004,-6.02 0.006,-7.671 -1.953,0.225 -4.471,3.384 -8.549,4.585 -2.52,1.572 -2.09,4.72 -0.866,5.897 -4.486,0.054 -6.172,-4.01 -5.742,-5.937 0.009,-0.023 0.018,-0.04 0.024,-0.061 z"
   inkscape:connector-curvature="0"
   style="fill:#ffffff" />
	<path
   id="path106"
   d="m 136.1,94.32 c -3.705,-1.089 -6.119,-3.8 -7.994,-4.455 0,1.825 0,7.356 0,7.542 3.662,1.875 6.887,4.217 9.836,7.161 0.207,-0.066 7.412,-2.39 7.652,-2.469 0.189,-1.034 0.277,-2.006 0.277,-2.935 0,-1.765 -0.271,-3.386 -0.555,-5.071 0,0 -0.082,-0.475 -0.148,-0.834 -0.693,0.377 -1.514,0.718 -2.475,0.961 0.006,0.021 0.02,0.038 0.025,0.061 0.424,1.927 -1.332,5.991 -5.75,5.937 1.226,-1.178 1.654,-4.326 -0.868,-5.898 z"
   inkscape:connector-curvature="0"
   style="fill:#ffffff" />
	<path
   id="path108"
   d="m 121.698,116.514 c 3.963,0.623 7.834,0.614 11.822,-0.03 1.799,-3.478 3.014,-7.162 3.717,-11.252 -2.893,-2.864 -6.041,-5.144 -9.619,-6.965 -3.561,1.815 -6.693,4.097 -9.57,6.965 0.638,4.013 1.835,7.707 3.65,11.282 z"
   inkscape:connector-curvature="0" />
	<path
   id="path110"
   d="m 103.611,110.144 c 0.148,-0.311 0.387,-0.821 0.387,-0.821 1.156,-2.435 2.25,-4.736 4.592,-7.03 -0.191,-1.073 -0.275,-2.082 -0.275,-3.04 0,-1.93 0.311,-3.673 0.609,-5.375 0,0 0.096,-0.551 0.152,-0.872 -0.027,-0.017 -0.061,-0.034 -0.086,-0.05 -0.742,0.021 -2.137,0.13 -3.818,0.592 -2.725,4.131 -4.252,8.928 -4.459,13.741 1.156,1.497 2.248,2.38 2.898,2.855 z"
   inkscape:connector-curvature="0" />
	<path
   id="path112"
   d="m 127.579,132.653 c -1.664,0 -3.287,-0.169 -4.826,-0.482 -0.229,0.184 -1.297,0.975 -3.102,1.773 2.58,0.791 5.232,1.231 7.928,1.231 2.713,0 5.361,-0.444 7.918,-1.248 -1.807,-0.778 -2.869,-1.571 -3.088,-1.757 -1.551,0.314 -3.172,0.483 -4.83,0.483 z"
   inkscape:connector-curvature="0"
   style="fill:#ffffff" />
	<path
   id="path114"
   d="m 148.583,125.099 c -0.043,-1.96 -0.418,-3.389 -0.633,-4.075 -0.285,0.148 -0.898,0.48 -0.898,0.48 l 0.002,-0.001 c -2.24,1.227 -4.566,2.49 -7.785,2.955 -1.4,2.87 -3.227,4.629 -5.178,6.505 0,0 -0.48,0.465 -0.715,0.696 1.074,0.743 2.322,1.383 3.525,1.84 4.58,-1.689 8.635,-4.635 11.682,-8.4 z"
   inkscape:connector-curvature="0" />
	<path
   id="path116"
   d="m 138.385,124.036 c -0.164,-0.223 -0.568,-0.775 -0.568,-0.775 0,0 -4.063,-5.613 -4.197,-5.795 -4.084,0.649 -8.037,0.652 -12.066,0.009 -0.127,0.178 -4.645,6.396 -4.793,6.6 0.623,1.279 1.385,2.423 2.463,3.675 0,0 2.494,2.518 2.494,2.521 0,0 0.818,0.792 0.93,0.893 1.646,0.346 3.307,0.523 4.932,0.523 1.617,0 3.277,-0.174 4.824,-0.467 l 1,-0.971 c 1.774,-1.683 3.612,-3.428 4.981,-6.213 z"
   inkscape:connector-curvature="0"
   style="fill:#ffffff" />
	<path
   id="path118"
   d="m 146.588,120.649 c 0,0 1.172,-0.632 1.201,-0.62 1.623,-2.786 2.623,-5.825 3.004,-8.918 0,0 -0.596,-1.271 -0.598,-1.273 -0.615,-1.335 -1.318,-2.849 -2.285,-4.277 -0.588,-0.913 -1.27,-1.735 -2.061,-2.523 -0.248,0.082 -7.457,2.401 -7.668,2.466 -0.701,4.104 -1.938,7.832 -3.768,11.381 0.354,0.492 4.648,6.427 4.773,6.594 3.006,-0.455 5.244,-1.658 7.402,-2.83 z"
   inkscape:connector-curvature="0"
   style="fill:#ffffff" />
	<path
   id="path120"
   d="m 150.141,93.729 c -1.904,-0.6 -3.41,-0.694 -3.967,-0.706 0,0 -0.035,0 -0.051,0 0.061,0.34 0.16,0.921 0.16,0.921 0.287,1.733 0.568,3.404 0.568,5.227 0,0.997 -0.094,2.047 -0.303,3.171 0.189,0.226 1.779,2.077 1.779,2.079 1.137,1.585 1.891,3.14 2.756,5.009 0,0 0.256,0.541 0.385,0.817 0.516,-0.362 1.689,-1.262 2.922,-2.786 -0.155,-4.937 -1.661,-9.716 -4.249,-13.732 z"
   inkscape:connector-curvature="0" />
	<path
   id="path122"
   d="m 105.684,123.795 c 0.102,-0.741 0.27,-1.95 0.27,-1.956 0,0 0.406,-1.391 0.453,-1.541 -1.607,-2.807 -2.605,-5.857 -2.975,-9.071 -0.316,-0.2 -1.4,-0.97 -2.652,-2.371 0.057,2.917 0.533,5.763 1.498,8.456 0.822,2.306 1.99,4.474 3.406,6.483 z"
   inkscape:connector-curvature="0"
   style="fill:#ffffff" />
	<path
   id="path124"
   d="m 121.76,131.673 c -0.264,-0.246 -0.721,-0.678 -0.721,-0.68 l -0.373,-0.367 -2.613,-2.77 c -0.924,-1.126 -1.622,-2.203 -2.186,-3.373 -3.232,-0.497 -5.545,-1.757 -7.777,-2.979 0,0 -0.6,-0.321 -0.885,-0.476 -0.115,0.428 -0.352,1.318 -0.352,1.318 0,0 -0.283,2.61 -0.338,2.615 3.068,3.873 7.104,6.811 11.668,8.508 1.853,-0.648 3.071,-1.433 3.577,-1.796 z"
   inkscape:connector-curvature="0" />
	<path
   id="path126"
   d="m 113.381,63.83 c 0.623,0 1.125,-0.494 1.125,-1.102 0,-0.612 -0.502,-1.107 -1.125,-1.107 -0.625,0 -1.129,0.495 -1.129,1.107 0,0.608 0.504,1.102 1.129,1.102 z"
   inkscape:connector-curvature="0"
   style="fill:#ffffff" />
	<path
   id="path128"
   d="m 110.992,68.434 c 1.107,-0.025 2.641,-0.331 4.018,-1.438 -0.512,0.188 -1.057,0.302 -1.633,0.302 -2.574,0 -4.66,-2.046 -4.66,-4.57 0,-0.438 0.082,-0.852 0.199,-1.25 -1.182,-0.159 -2.572,-0.74 -3.629,-1.622 -0.195,0.438 -0.441,1.673 -0.428,2.683 0.049,4.202 3.879,5.943 6.133,5.895 z"
   inkscape:connector-curvature="0"
   style="fill:#ffffff" />
	<path
   id="path130"
   d="m 141.303,63.83 c 0.625,0 1.125,-0.494 1.125,-1.102 0,-0.612 -0.5,-1.107 -1.125,-1.107 -0.621,0 -1.123,0.495 -1.123,1.107 0,0.608 0.502,1.102 1.123,1.102 z"
   inkscape:connector-curvature="0"
   style="fill:#ffffff" />
	<path
   id="path132"
   d="m 143.686,68.434 c 2.256,0.049 6.084,-1.692 6.135,-5.895 0.014,-1.01 -0.23,-2.245 -0.428,-2.683 -1.088,0.931 -2.447,1.463 -3.629,1.622 0.119,0.398 0.199,0.812 0.199,1.25 0,2.523 -2.084,4.57 -4.66,4.57 -0.574,0 -1.121,-0.115 -1.633,-0.302 1.373,1.107 2.909,1.412 4.016,1.438 z"
   inkscape:connector-curvature="0"
   style="fill:#ffffff" />
	<path
   id="path134"
   d="m 92.588,88.315 c 3.404,0.25 6.439,-2.362 5.123,-6.09 0.455,3.756 -2.713,4.567 -4.262,4.567 -1.316,0 -4.535,-1.168 -4.535,-5.318 0,-4.149 4.539,-7.25 8.541,-6.97 6.441,0.452 9.988,6.404 9.291,11.986 0.418,0.765 3.119,5.483 8.52,5.483 6.352,0 7.706,-5.016 12.081,-5.016 4.371,0 5.727,5.016 12.076,5.016 5.4,0 8.1,-4.718 8.52,-5.483 -0.697,-5.582 2.852,-11.535 9.291,-11.986 4.004,-0.28 8.541,2.82 8.541,6.97 0,4.15 -3.217,5.318 -4.535,5.318 -1.547,0 -4.715,-0.812 -4.262,-4.567 -1.314,3.729 1.721,6.341 5.125,6.09 2.756,-0.203 6.107,-2.842 6.107,-6.93 0,-4.084 -3.879,-10.452 -12.648,-9.658 0,0 1.85,-3.471 -0.014,-8.147 0.824,8.574 -6.746,13.89 -14.236,10.15 0.113,0.856 0.186,1.758 0.186,2.729 0,1.914 -0.744,5.526 -4.49,5.526 -1.143,0 -2.434,-0.574 -3.307,-1.276 -0.096,-1.698 0.838,-5.737 4.469,-4.25 -0.494,-0.998 -1.541,-1.424 -2.625,-1.424 -1.178,0 -2.453,1.133 -3.082,3.042 -0.832,2.548 -2.777,4.418 -5.115,4.418 -2.34,0 -4.285,-1.871 -5.119,-4.418 -0.629,-1.909 -1.904,-3.042 -3.082,-3.042 -1.084,0 -2.131,0.426 -2.625,1.424 3.633,-1.487 4.565,2.552 4.469,4.25 -0.873,0.702 -2.166,1.276 -3.307,1.276 -3.746,0 -4.488,-3.613 -4.488,-5.526 0,-0.972 0.07,-1.874 0.184,-2.729 -7.488,3.74 -15.061,-1.576 -14.234,-10.15 -1.861,4.677 -0.014,8.147 -0.014,8.147 -8.771,-0.794 -12.65,5.574 -12.65,9.658 -0.003,4.088 3.35,6.727 6.106,6.93 z"
   inkscape:connector-curvature="0"
   style="fill:#ffffff" />
</g><path
     inkscape:connector-curvature="0"
     id="path158"
     d="M 54.571616,295.22646 C 49.940269,281.78345 40.349581,271.20101 26.253059,263.97952 l -5.930277,-3.03801 H 10.144557 -0.03366849 v -1.9122 -1.91221 H 127.12771 254.2891 v 1.91221 1.9122 h -9.95971 -9.95971 l -6.28085,3.28459 c -14.11718,7.38262 -23.24274,17.50949 -28.04918,31.12694 l -1.6902,4.78859 -70.98659,0.16152 -70.986592,0.16151 z M 192.99732,284.57491 c 3.32106,-6.63526 8.38526,-13.38262 14.02191,-18.68228 2.51022,-2.36015 4.56404,-4.43967 4.56404,-4.62115 0,-0.18149 -37.86158,-0.32997 -84.13686,-0.32997 -46.275265,0 -84.13685,0.12847 -84.13685,0.28549 0,0.15702 2.536363,2.8102 5.636362,5.89595 6.094966,6.06696 9.450615,10.65119 13.088457,17.88042 l 2.325419,4.62116 h 63.055062 63.05505 z"
     style="fill:#a28848;fill-opacity:1;stroke:none;stroke-width:0.63740039;stroke-opacity:1" /></g></svg>