<?xml version="1.0" encoding="utf-8"?>
<!-- Generator: Adobe Illustrator 13.0.0, SVG Export Plug-In . SVG Version: 6.00 Build 14948)  -->
<!DOCTYPE svg PUBLIC "-//W3C//DTD SVG 1.1//EN" "http://www.w3.org/Graphics/SVG/1.1/DTD/svg11.dtd">
<svg version="1.1" id="Layer_1" xmlns="http://www.w3.org/2000/svg" xmlns:xlink="http://www.w3.org/1999/xlink" x="0px" y="0px"
	 width="312.024691834" height="320.487456977" viewBox="0 0 418.736 430.093" enable-background="new 0 0 418.736 430.093"
	 xml:space="preserve">
<g>
	<path fill="#FABF00" d="M390.476,101.903l-13.917,0.887l-1.294,0.071c-23.047,1.039-44.065-13.249-51.109-34.742
		c-1.245-3.789-1.825-7.578-1.74-11.277c0.047-1.905,0.277-3.821,0.688-5.689l1.779-7.992l-7.587-5.931
		C299.485,23.358,262.024,0.095,211.331,0c-50.742,0.095-88.208,23.358-106.018,37.229c-0.004,0-7.643,5.979-7.643,5.979l1.83,7.944
		c0.415,1.869,0.651,3.784,0.698,5.689c0.081,3.699-0.504,7.488-1.746,11.277C91.41,89.618,70.387,103.9,47.34,102.861
		l-15.121-0.896v17.419c0,17.003,1.75,77.043,24.51,135.442c26.581,68.179,71.925,123.139,134.796,163.346
		c4.374,2.793,8.827,5.52,13.234,8.09l6.543,3.832l6.553-3.832c4.402-2.57,8.856-5.297,13.235-8.09
		c62.861-40.207,108.215-95.167,134.791-163.346c22.764-58.399,24.538-118.439,24.538-135.442L390.476,101.903z"/>
</g>
<path fill="#DC5310" d="M211.302,12.984c-46.225,0.081-80.492,20.853-98.02,34.492c38.646,71.119,82.422,246.972,85.229,359.744
	c4.19,2.684,8.451,5.298,12.791,7.832c4.346-2.534,8.606-5.148,12.796-7.832c2.807-112.772,46.585-288.625,85.229-359.744
	C291.805,33.836,257.534,13.065,211.302,12.984z"/>
<path fill="#00615A" d="M377.44,115.741c-0.528,0.033-1.053,0.071-1.586,0.09c-28.935,1.307-55.294-17.004-64.031-43.665
	c-1.732-5.292-2.501-10.544-2.387-15.62c0.065-2.841,0.41-5.576,0.999-8.204c-0.358-0.289-0.736-0.576-1.108-0.865
	c-38.645,71.119-82.423,246.972-85.229,359.744c60.46-38.659,104.087-91.448,129.691-157.112
	c21.107-54.153,23.651-111.004,23.651-130.724c0-0.643-0.005-1.256-0.015-1.841C377.436,116.911,377.44,116.311,377.44,115.741
	L377.44,115.741z"/>
<path fill="#00615A" d="M112.173,48.341c0.586,2.628,0.936,5.363,1.002,8.204c0.117,5.076-0.652,10.328-2.383,15.62
	c-8.738,26.661-35.098,44.972-64.038,43.665c-0.527-0.019-1.056-0.057-1.579-0.09l0,0c0,0.57,0.005,1.17,0.005,1.802
	c0,0.585-0.005,1.198-0.005,1.841c0,19.72,2.538,76.571,23.65,130.724c25.595,65.664,69.227,118.453,129.686,157.112
	c-2.807-112.772-46.583-288.625-85.229-359.744C112.909,47.765,112.532,48.053,112.173,48.341z"/>
<g>
	<g>
		<path fill="#002928" d="M191.831,291.952v-9.025h12.526v-13.409l7.002,3.858v24.757l8.864,9.134h28.025l8.859-9.134v-53.521
			l-8.539-8.517h-28.681l-8.487,8.479l-7.284-8.492h-47.033l9.479,12.86c0,0.906,0,58.324,0,58.324h35.002L191.831,291.952z"/>
		<path fill="#002928" d="M285.521,234.558c0,0,3.845-28.3,6.704-49.45c0,19.094,0,41.528,0,41.528l9.577,11.634l30.172,7.771
			c0,0,13.238-7.831,13.295-7.86c0,2.006,0,11.683,0,11.683l62.098,28.185l11.37-147.081h-81.272l2.347,5.128
			c-2.638-2.208-5.728-4.808-5.728-4.808h-31.248l-3.773,3.274c0.099-0.722,0.476-3.454,0.476-3.454H192.482l-11.483,7.614v-7.893
			l-59.267-0.114c0,0,4.558,14.811,4.689,15.258c0,0.34,0,28.601,0,49.086c-3.51-22.49-10.017-64.093-10.017-64.093H79.483
			c0,0,5.331,15.073,5.585,15.78c-0.081,0.581-5.43,37.914-8.883,62.064c0-7.104,0-15.47,0-23.778L76.482,185
			c0,0-0.108-0.052-0.296-0.137c0-20.656,0-40.966,0-40.966l-10.2-12.932h-50.11L0,145.422l15.956,121.61l19.01,8.563l36.171-20.953
			l0,0l58.158-18.531l51.704-7.535v-7.194l11.837,8.224h28.407l12.701-8.818c0,0,0-46.17,0-46.887
			c2.637,24.156,6.052,55.45,6.052,55.45L285.521,234.558z"/>
	</g>
	<g>
		<polygon fill="#EFEFF0" points="251.849,278.864 251.849,293.375 246.022,299.391 222.451,299.391 216.614,293.375 
			216.614,244.173 222.063,238.728 246.395,238.728 251.849,244.173 251.849,266.772 240.369,260.266 240.369,248.635 
			228.141,248.635 228.141,289.111 240.337,289.111 240.337,272.542 		"/>
		<polygon fill="#EFEFF0" points="201.659,238.713 167.374,238.713 171.818,244.857 171.818,299.349 188.783,299.349 
			183.315,290.792 183.315,275.288 199.107,275.288 199.107,265.323 183.315,265.323 183.315,248.641 195.987,248.641 
			195.987,256.374 207.504,262.79 207.504,245.739 		"/>
	</g>
	<g>
		<g>
			<path fill="#EFEFF0" d="M110.466,134.882h-0.581H89.174c0,0,2.854,8.072,2.972,8.396c-0.057,0.355-13.984,97.624-13.984,97.624
				l22.528-6.793c0,0-4.085-6.842-4.297-7.195c0.023-0.406,0.589-9.644,0.646-10.602c0.887-0.18,10.313-2.137,11.478-2.378
				c0.223,1.307,2.841,17.269,2.841,17.269l17.513-5.591c0,0-4.939-5.878-5.18-6.162
				C123.634,219.054,110.466,134.882,110.466,134.882z M106.385,201.305c-1.006,0.165-6.771,1.114-8.11,1.321
				c0.155-1.501,3.147-30.271,4.114-39.711C103.366,172.3,106.267,200.202,106.385,201.305z"/>
			<path fill="#EFEFF0" d="M161.477,142.024c0,0.194,0,26.246,0,33.403c-2.156-7.224-12.163-40.796-12.163-40.796h-0.496h-17.807
				c0,0,2.266,7.351,2.327,7.558c0,0.212,0,83.032,0,83.032l16.088-2.317c0,0-3.52-7.364-3.652-7.647c0-0.293,0-36.904,0-44.188
				c2.251,7.157,15.965,50.741,15.965,50.741l12.347-1.812v-85.253h-14.895C159.192,134.745,161.406,141.827,161.477,142.024z"/>
			<path fill="#EFEFF0" d="M273.862,134.882c0,0,2.16,6.935,2.236,7.213c-0.019,0.245-2.533,24.868-3.444,33.841
				c-1.047-9.469-4.524-40.956-4.524-40.956h-8.545c0,0-3.906,31.261-5.029,40.239c-0.914-8.998-4.104-40.338-4.104-40.338h-16.988
				c0,0,4.095,6.798,4.25,7.058c0.034,0.311,8.573,78.577,8.573,78.577l11.507,1.339c0,0,4.241-26.585,5.312-33.308
				c1.025,6.779,5.177,34.45,5.177,34.45l11.347,1.213l12.04-89.329h-0.772H273.862z"/>
			<path fill="#EFEFF0" d="M410.555,134.882h-23.858c0,0,3.406,12.817,3.473,13.03c-0.014,0.217-2.533,44.849-2.996,52.987
				c-1.849-8.248-14.79-66.018-14.79-66.018H348.1c0,0,3.948,8.638,4.08,8.917c0,0.32,0,99.015,0,99.015l17.392,8.029l-2.152-11.29
				c0,0,0.015-48.788,0.015-58.997c2.298,10.45,16.852,76.704,16.852,76.704l16.942,7.757l10.063-130.135H410.555z"/>
			<path fill="#EFEFF0" d="M305.288,135.25l-6.151,5.449v80.78l6.638,8.059l25.122,6.473l8.089-4.789v-89.745l-7.475-6.227H305.288z
				 M313.588,148.554c1.132,0,8.897,0,10.021,0c0,1.358,0,69.655,0,71.273c-1.297-0.239-9.077-1.642-10.006-1.796
				C313.603,216.875,313.588,149.922,313.588,148.554z"/>
			<path fill="#EFEFF0" d="M201.697,207.108c0-1.354,0-58.036,0-59.384h10.639v14.342l14.696,8.067v-30.067l-7.512-4.912h-24.938
				l-7.54,4.912v74.455l8.001,5.567h23.981l8.007-5.567v-39.929l-25.104-0.019l5.614,12.498c0,0,4.223,0,4.788,0v20.036H201.697z"/>
		</g>
		<path fill="#EFEFF0" d="M69.263,182.636v-39.268l-6.684-8.486H18.607L7.299,145.176L22.33,259.695l12.229,5.506l30.874-17.881
			l3.831-10.716v-49.17l-34.095,3.181l9.577,16.149l7.572-1.07v30.557c-2.972,1.255-12.598,5.313-13.956,5.884
			c-0.131-1.948-5.907-88.758-6.001-90.272c1.359,0,18.75,0,20.019,0c0,1.33,0,20.019,0,20.019L69.263,182.636z"/>
	</g>
</g>
<g>
	<path fill="#FABF00" d="M153.399,329.898h-5.143v-1.784c0-1.133-0.048-1.84-0.146-2.123c-0.099-0.287-0.325-0.434-0.685-0.434
		c-0.311,0-0.524,0.127-0.637,0.363c-0.108,0.246-0.165,0.873-0.165,1.883v9.469c0,0.882,0.057,1.472,0.165,1.75
		c0.113,0.279,0.335,0.42,0.665,0.42c0.369,0,0.614-0.16,0.742-0.477c0.131-0.316,0.198-0.934,0.198-1.854v-2.345h-0.996v-2.987
		h6.002v10.588h-3.241l-0.477-1.412c-0.349,0.615-0.798,1.072-1.321,1.379c-0.529,0.302-1.151,0.447-1.878,0.447
		c-0.858,0-1.666-0.203-2.415-0.617c-0.75-0.424-1.321-0.944-1.708-1.557c-0.391-0.623-0.632-1.274-0.736-1.949
		c-0.095-0.679-0.142-1.697-0.142-3.053v-5.869c0-1.881,0.104-3.254,0.302-4.113c0.208-0.85,0.788-1.629,1.75-2.346
		c0.968-0.707,2.209-1.065,3.733-1.065c1.504,0,2.75,0.311,3.75,0.93c0.99,0.617,1.632,1.354,1.93,2.198
		c0.302,0.858,0.453,2.09,0.453,3.703V329.898z"/>
	<path fill="#FABF00" d="M162.986,326.293c0.226,0.203,0.335,0.609,0.335,1.236v1.085c0,0.878-0.113,1.388-0.35,1.542
		c-0.227,0.161-0.627,0.236-1.203,0.236V326C162.359,326,162.765,326.1,162.986,326.293z M156.626,342.368h5.143v-8.903
		c0.707,0,1.141,0.128,1.307,0.382c0.16,0.256,0.246,0.906,0.246,1.968v6.554h4.755v-5.201c0-1.594-0.047-2.564-0.127-2.919
		c-0.084-0.358-0.306-0.741-0.656-1.165c-0.354-0.424-1.028-0.765-2.042-1.015c1.118-0.108,1.868-0.42,2.254-0.947
		c0.379-0.529,0.571-1.573,0.571-3.097c0-1.688-0.264-2.92-0.812-3.679c-0.542-0.769-1.235-1.251-2.095-1.439
		c-0.854-0.188-2.491-0.278-4.91-0.278h-3.634V342.368z"/>
	<path fill="#FABF00" d="M171.317,322.627h8.55v3.953h-3.402v3.737h3.181v3.755h-3.181v4.346h3.761v3.949h-8.908V322.627z"/>
	<path fill="#FABF00" d="M187.345,335.323c0.146-1.745,0.472-4.51,0.977-8.307c0.269,3.302,0.523,6.07,0.77,8.307H187.345z
		 M184.386,322.627l-2.608,19.74h5.308l0.284-3.538h1.881l0.284,3.538h5.228l-2.949-19.74H184.386z"/>
	<path fill="#FABF00" d="M205.834,322.627v3.953h-3.038v15.787h-5.151v-15.787h-3.039v-3.953H205.834z"/>
	<path fill="#FABF00" d="M225.56,322.627v13.201c0,1.49-0.047,2.543-0.146,3.146c-0.094,0.604-0.381,1.227-0.867,1.868
		c-0.481,0.637-1.114,1.118-1.897,1.448c-0.782,0.33-1.712,0.49-2.773,0.49c-1.184,0-2.223-0.188-3.128-0.58
		c-0.9-0.396-1.575-0.9-2.024-1.523c-0.443-0.627-0.712-1.287-0.788-1.987c-0.084-0.692-0.131-2.155-0.131-4.382v-11.682h5.142
		v14.806c0,0.858,0.052,1.414,0.146,1.646c0.09,0.24,0.284,0.363,0.563,0.363c0.324,0,0.533-0.137,0.623-0.396
		c0.095-0.266,0.142-0.893,0.142-1.874v-14.545H225.56z"/>
	<path fill="#FABF00" d="M240.271,322.627v19.74h-4.511l-2.685-8.97v8.97h-4.279v-19.74h4.313l2.872,8.893v-8.893H240.271z"/>
	<path fill="#FABF00" d="M248.701,322.627v19.74h-5.143v-19.74H248.701z"/>
	<path fill="#FABF00" d="M258.581,336.772c0,1.165-0.053,1.896-0.146,2.203c-0.095,0.312-0.316,0.467-0.655,0.467
		c-0.335,0-0.548-0.137-0.647-0.4c-0.084-0.27-0.132-0.977-0.132-2.123v-9.215c0-1.015,0.071-1.627,0.212-1.83
		c0.137-0.213,0.336-0.316,0.601-0.316c0.311,0,0.519,0.127,0.617,0.387c0.099,0.255,0.151,0.84,0.151,1.76V336.772z
		 M263.724,330.813c0-2.033-0.047-3.459-0.151-4.264c-0.099-0.822-0.396-1.567-0.916-2.262c-0.508-0.693-1.183-1.207-2.022-1.557
		s-1.793-0.519-2.841-0.519c-1.118,0-2.085,0.188-2.925,0.552s-1.5,0.888-1.986,1.57c-0.496,0.689-0.793,1.439-0.882,2.261
		c-0.09,0.826-0.146,2.236-0.146,4.218v3.373c0,2.033,0.057,3.454,0.155,4.275c0.09,0.811,0.4,1.564,0.905,2.25
		c0.515,0.693,1.193,1.213,2.034,1.557c0.835,0.345,1.789,0.514,2.845,0.514c1.108,0,2.081-0.184,2.925-0.546
		c0.831-0.364,1.5-0.889,1.991-1.571c0.486-0.68,0.773-1.436,0.873-2.261c0.095-0.825,0.142-2.23,0.142-4.218V330.813z"/>
	<path fill="#FABF00" d="M278.358,322.627v19.74h-4.506l-2.685-8.97v8.97h-4.283v-19.74h4.317l2.867,8.893v-8.893H278.358z"/>
	<path fill="#FABF00" d="M193.271,368.278v3.374h-10.809v-2.817c3.203-5.256,5.1-8.506,5.704-9.756
		c0.603-1.242,0.91-2.218,0.91-2.921c0-0.537-0.1-0.929-0.273-1.198c-0.188-0.264-0.463-0.401-0.835-0.401
		c-0.377,0-0.656,0.147-0.844,0.443c-0.18,0.292-0.269,0.878-0.269,1.746v1.883h-4.392v-0.728c0-1.099,0.047-1.977,0.16-2.618
		c0.119-0.637,0.397-1.264,0.845-1.882c0.447-0.613,1.023-1.086,1.741-1.406c0.712-0.316,1.57-0.473,2.566-0.473
		c1.953,0,3.43,0.482,4.43,1.455c1.01,0.971,1.51,2.201,1.51,3.688c0,1.132-0.283,2.325-0.844,3.591
		c-0.567,1.255-2.224,3.929-4.979,8.02H193.271z"/>
	<path fill="#FABF00" d="M203.149,366.715c0,0.969-0.056,1.592-0.174,1.869c-0.113,0.27-0.354,0.41-0.718,0.41
		c-0.368,0-0.608-0.117-0.712-0.354c-0.108-0.23-0.169-0.924-0.169-2.07v-9.635c0-1.023,0.066-1.67,0.18-1.948
		c0.122-0.288,0.358-0.43,0.727-0.43s0.612,0.138,0.711,0.401c0.104,0.27,0.156,0.92,0.156,1.977V366.715z M207.849,355.313
		c-0.15-0.68-0.438-1.292-0.858-1.839c-0.429-0.543-1.065-1.006-1.92-1.388c-0.855-0.378-1.822-0.563-2.892-0.563
		c-1.331,0-2.458,0.275-3.388,0.817c-0.929,0.542-1.551,1.269-1.863,2.175c-0.316,0.896-0.467,2.251-0.467,4.071v6.897
		c0,1.393,0.093,2.406,0.288,3.043c0.199,0.637,0.528,1.246,0.991,1.831c0.458,0.575,1.08,1,1.864,1.271
		c0.773,0.277,1.754,0.408,2.938,0.408c0.892,0,1.698-0.127,2.416-0.386c0.727-0.265,1.35-0.689,1.86-1.283
		c0.513-0.595,0.844-1.231,1.009-1.915c0.161-0.686,0.246-1.779,0.246-3.275v-6.591
		C208.071,357.087,207.996,355.998,207.849,355.313z"/>
	<path fill="#FABF00" d="M217.779,366.715c0,0.969-0.056,1.592-0.169,1.869c-0.113,0.27-0.354,0.41-0.722,0.41
		s-0.6-0.117-0.712-0.354c-0.109-0.23-0.166-0.924-0.166-2.07v-9.635c0-1.023,0.062-1.67,0.175-1.948
		c0.118-0.288,0.362-0.43,0.728-0.43c0.377,0,0.617,0.138,0.721,0.401c0.09,0.27,0.146,0.92,0.146,1.977V366.715z M222.475,355.313
		c-0.146-0.68-0.439-1.292-0.859-1.839c-0.419-0.543-1.056-1.006-1.915-1.388c-0.849-0.378-1.812-0.563-2.892-0.563
		c-1.331,0-2.459,0.275-3.393,0.817c-0.925,0.542-1.547,1.269-1.859,2.175c-0.316,0.896-0.467,2.251-0.467,4.071v6.897
		c0,1.393,0.095,2.406,0.293,3.043c0.188,0.637,0.519,1.246,0.985,1.831c0.463,0.575,1.086,1,1.864,1.271
		c0.778,0.277,1.76,0.408,2.943,0.408c0.887,0,1.698-0.127,2.411-0.386c0.731-0.265,1.345-0.689,1.863-1.283
		c0.51-0.595,0.845-1.231,1.01-1.915c0.16-0.686,0.246-1.779,0.246-3.275v-6.591C222.706,357.087,222.62,355.998,222.475,355.313z"
		/>
	<path fill="#FABF00" d="M235.095,360.465c0.727,0.297,1.283,0.731,1.675,1.312c0.396,0.585,0.585,1.967,0.585,4.156
		c0,1.585-0.15,2.77-0.462,3.524c-0.307,0.756-0.911,1.369-1.798,1.858c-0.891,0.478-2.09,0.722-3.595,0.722
		c-1.464,0-2.623-0.23-3.472-0.693c-0.854-0.466-1.469-1.079-1.841-1.84c-0.367-0.764-0.552-2.033-0.552-3.821
		c0-1.192,0.099-2.227,0.272-3.104c0.19-0.883,0.771-1.59,1.741-2.113c-0.608-0.287-1.057-0.755-1.367-1.397
		c-0.297-0.637-0.453-1.452-0.453-2.438c0-1.703,0.467-2.981,1.411-3.831c0.942-0.849,2.34-1.274,4.212-1.274
		c2.156,0,3.653,0.454,4.479,1.355c0.825,0.905,1.235,2.188,1.235,3.877c0,1.063-0.132,1.831-0.405,2.303
		C236.491,359.537,235.94,360.003,235.095,360.465z M232.321,356.214c0-0.669-0.053-1.113-0.17-1.33
		c-0.114-0.214-0.34-0.326-0.666-0.326c-0.32,0-0.537,0.118-0.646,0.35c-0.113,0.24-0.169,0.67-0.169,1.307v1.501
		c0,0.594,0.061,1.004,0.192,1.235c0.123,0.227,0.345,0.341,0.647,0.341c0.319,0,0.537-0.109,0.65-0.336
		c0.113-0.222,0.161-0.685,0.161-1.383V356.214z M232.435,364.433c0-0.755-0.071-1.265-0.231-1.505
		c-0.151-0.25-0.397-0.373-0.727-0.373c-0.326,0-0.558,0.119-0.703,0.354c-0.146,0.241-0.213,0.745-0.213,1.524v2.553
		c0,0.854,0.081,1.401,0.236,1.646c0.16,0.246,0.41,0.363,0.751,0.363c0.354,0,0.594-0.121,0.707-0.372
		c0.123-0.241,0.18-0.803,0.18-1.675V364.433z"/>
</g>
<path fill="#FABF00" d="M252.33,32.837l-4.666-6.176l-12.196,0.072l-11.629-1.613h-7.422l-5.724,0.792l-4.878,0.929l-8.836,6.199
	l-0.189-2.302l3.676-4.034l-7.879-0.043l-4.667,6.176l3.412,6.832l-3.242,11.248l3.869,16.107l10.535,8.473l3.68,4.79l6.459-16.335
	l4.491,17.499h7.54l-1.987,5.492h-5.773l-9.205-3.968l4.892,5.883l5.016,1.5h5.04l5.009-1.5l10.105-13.361l10.819-8.473l3.59-16.107
	l-3.256-11.248L252.33,32.837z M206.538,58.588l-0.539-2.271l5.412,1.19l0.551,4.647L206.538,58.588z M233.255,58.611l-5.42,3.572
	l0.551-4.652l5.407-1.188L233.255,58.611z"/>
<path fill="#FABF00" d="M149.237,103.573l19.537,8.577l-5.265,7.582l85.913,0.005l-8.567-4.944l3.345-3.624l11.456,8.559h6.681
	l-9.72-6.53l4.478-2.468l9.049,9.006h5.558l-8.336-13.885L240.69,93.775L202.145,98.7L182.07,86.895l0.575-1.142l19.372,7.147
	l0.646-0.646l-18.796-18.602l-6.718-15.858l8.483-13.414l-26.345-3.43l-26.708,9.771C137.527,63.588,145.044,89.485,149.237,103.573
	z"/>
</svg>
