<?xml version="1.0" encoding="utf-8"?>
<!-- Generator: Adobe Illustrator 16.0.0, SVG Export Plug-In . SVG Version: 6.00 Build 0)  -->
<!DOCTYPE svg PUBLIC "-//W3C//DTD SVG 1.1//EN" "http://www.w3.org/Graphics/SVG/1.1/DTD/svg11.dtd">
<svg version="1.1" id="Layer_1" xmlns="http://www.w3.org/2000/svg" xmlns:xlink="http://www.w3.org/1999/xlink" x="0px" y="0px"
	 width="158px" height="141.583px" viewBox="0 0 158 141.583" enable-background="new 0 0 158 141.583" xml:space="preserve">
<g>
	<g>
		<path fill="#FFC627" d="M145.707,70.397l-1.58-0.329c-0.047-0.01-0.615-0.127-1.607-0.324l2.067-7.513l-3.815-1.111
			c-0.063-0.02-1.809-0.517-5.018-1.236c0.082-2.594,0.124-5.282,0.124-8.085V14.063l-3.003-0.242
			c-11.749-0.949-22.959-3.823-33.318-8.543c-6.203-2.827-13.113-4.262-20.561-4.265c-7.426,0-14.342,1.436-20.551,4.265
			c-10.361,4.72-21.57,7.594-33.319,8.543l-3.002,0.242v37.735c0,2.801,0.041,5.487,0.122,8.081
			c-3.223,0.722-4.977,1.221-5.039,1.24l-3.813,1.111l2.063,7.518c-0.97,0.192-1.517,0.305-1.539,0.311l-1.624,0.338L1.048,87.353
			l12.107,14.498l2.32-0.431c0.056-0.01,5.581-1.027,13.816-2.219c1.308,3.098,2.804,5.988,4.507,8.715
			c8.223,13.178,21.353,22.969,43.903,32.742L79,141.219l1.299-0.561c22.553-9.773,35.682-19.564,43.903-32.742
			c1.702-2.727,3.198-5.617,4.507-8.715c8.271,1.194,13.76,2.209,13.818,2.219l2.318,0.431l12.106-14.498L145.707,70.397z
			 M143.564,98.292l-0.442-0.08c-0.062-0.012-6.146-1.135-15.05-2.401l-1.45-0.206c-7.166,19.057-21.597,30.779-47.622,42.059
			c-26.024-11.277-40.454-23.002-47.62-42.059l-1.451,0.206c-8.904,1.267-14.988,2.39-15.049,2.401l-0.442,0.08L5.115,87.127
			l9.159-13.808l0.31-0.063c0.02-0.004,1.883-0.389,4.955-0.971l-2.145-7.819l0.727-0.211c0.076-0.023,2.704-0.772,7.498-1.766
			c-0.149-3.404-0.229-6.951-0.229-10.691V17.077c14.118-1.141,25.683-4.852,34.409-8.827c6.113-2.785,12.665-3.973,19.217-3.97
			C85.559,4.282,92.1,5.469,98.202,8.25c8.728,3.976,20.29,7.687,34.409,8.827v34.722c0,3.743-0.08,7.29-0.23,10.695
			c4.781,0.992,7.4,1.738,7.477,1.762l0.729,0.211l-2.148,7.813c3.088,0.586,4.961,0.973,4.98,0.977l0.311,0.063l9.158,13.808
			L143.564,98.292z"/>
		<g>
			<path fill="#EB0029" d="M71.681,127.045c2.301,1.162,4.734,2.316,7.319,3.479c2.498-1.121,4.854-2.237,7.085-3.358V116.67H71.681
				V127.045z"/>
			<path fill="#EB0029" d="M100.493,118.642c6.183-4.423,10.836-9.108,14.405-14.394V88.842c-4.271-0.537-9.09-1.033-14.405-1.418
				V118.642z"/>
			<path fill="#EB0029" d="M42.874,103.913c3.557,5.355,8.205,10.098,14.405,14.564V87.445c-5.272,0.388-10.09,0.886-14.405,1.433
				V103.913z"/>
			<path fill="#EB0029" d="M71.681,86.743v18.498h14.404V86.736c-2.303-0.054-4.669-0.083-7.096-0.083
				C76.49,86.653,74.054,86.686,71.681,86.743z"/>
			<path fill="#EB0029" d="M127.359,85.56c0.078,0.017,0.158,0.028,0.234,0.042c0.371,0.066,0.733,0.135,1.088,0.201
				c0.104,0.02,0.211,0.039,0.313,0.059c0.171,0.032,0.33,0.064,0.496,0.098c0.264,0.049,0.53,0.101,0.784,0.149
				c0.101,0.021,0.195,0.038,0.295,0.06c0.322,0.063,0.64,0.127,0.949,0.188c0.114,0.024,0.23,0.048,0.345,0.069
				c0.771,0.16,1.491,0.313,2.157,0.459c0.088,0.02,0.177,0.039,0.265,0.057c0.264,0.061,0.519,0.116,0.764,0.171
				c0.065,0.017,0.134,0.03,0.197,0.046c0.297,0.067,0.578,0.133,0.849,0.194c0.061,0.017,0.116,0.028,0.178,0.042
				c0.207,0.049,0.404,0.096,0.597,0.143c0.075,0.019,0.149,0.037,0.226,0.055c0.185,0.046,0.359,0.089,0.526,0.129
				c0.089,0.021,0.172,0.044,0.256,0.064c0.132,0.032,0.259,0.064,0.377,0.094c0.109,0.029,0.209,0.055,0.31,0.08
				c0.017,0.004,0.035,0.008,0.051,0.014l-2.732-12.201l0.104-0.373l2.715-9.865c-1.053-0.279-3.219-0.823-6.387-1.485
				c-0.67-0.14-1.396-0.286-2.154-0.435c-0.686-0.136-1.405-0.271-2.16-0.412c-3.104-0.574-6.807-1.182-11.039-1.753
				c-4.216-0.568-8.966-1.1-14.195-1.524c-4.967-0.401-10.363-0.707-16.15-0.853c-0.508-0.013-1.01-0.027-1.524-0.038
				c-1.989-0.04-4.022-0.063-6.099-0.063c-2.066,0-4.088,0.021-6.067,0.062c-0.514,0.011-1.017,0.025-1.524,0.038
				c-5.804,0.146-11.215,0.451-16.19,0.854c-5.231,0.425-9.98,0.956-14.196,1.524c-4.221,0.57-7.91,1.177-11.009,1.748
				c-0.755,0.14-1.473,0.277-2.158,0.41c-0.76,0.15-1.484,0.296-2.155,0.436c-3.183,0.664-5.356,1.212-6.408,1.491L21.058,72
				l1.035,3.771l-2.728,12.203c0.008-0.003,0.017-0.006,0.026-0.008c0.599-0.152,1.416-0.355,2.422-0.592
				c0.036-0.008,0.071-0.016,0.106-0.023c0.136-0.032,0.274-0.063,0.417-0.098c1.619-0.371,3.692-0.813,6.178-1.289
				c0.678-0.129,1.394-0.26,2.133-0.395c0.69-0.124,1.404-0.249,2.147-0.375c0.112-0.02,0.219-0.037,0.333-0.057
				c10.6-1.784,26.364-3.656,45.865-3.656c19.928,0,35.82,1.95,45.889,3.646c0.11,0.019,0.223,0.037,0.335,0.056
				c0.169,0.028,0.341,0.058,0.502,0.085c0.503,0.087,0.989,0.173,1.468,0.258C127.241,85.538,127.301,85.547,127.359,85.56z"/>
			<path fill="#EB0029" d="M20.537,75.809l-0.563-2.042c-2.42,0.457-4.108,0.797-4.77,0.933L7.028,87.022l8.015,9.598
				c1.392-0.25,6.761-1.17,13.117-2.105l-10.68-5.063L20.537,75.809z"/>
			<path fill="#EB0029" d="M20.468,89.282l10.389,4.83c-0.744-2.13-1.405-4.349-1.983-6.667
				C26.677,87.863,23.511,88.508,20.468,89.282z"/>
			<path fill="#EB0029" d="M142.798,74.698c-0.661-0.135-2.35-0.475-4.771-0.932l-0.563,2.042l3.058,13.644l-10.68,5.063
				c6.356,0.936,11.725,1.855,13.118,2.105l8.013-9.598L142.798,74.698z"/>
			<path fill="#EB0029" d="M129.129,87.445c-0.578,2.318-1.238,4.537-1.984,6.667l10.391-4.83
				C134.491,88.508,131.323,87.863,129.129,87.445z"/>
		</g>
		<g>
			<path fill="#003A70" d="M98.202,8.25C92.1,5.469,85.559,4.282,79.016,4.28c-6.552-0.003-13.104,1.185-19.217,3.97
				c-8.727,3.976-20.291,7.687-34.409,8.827v34.722c0,3.74,0.08,7.287,0.229,10.691c0.679-0.141,1.388-0.284,2.153-0.434
				c-0.137-3.242-0.206-6.652-0.206-10.258V19.067c11.652-1.154,22.79-4.122,33.135-8.835c5.498-2.506,11.652-3.775,18.295-3.775
				c6.66,0.002,12.813,1.271,18.303,3.775c10.348,4.713,21.483,7.681,33.137,8.835v32.731c0,3.607-0.069,7.019-0.207,10.262
				c0.768,0.149,1.476,0.294,2.152,0.434c0.15-3.405,0.23-6.952,0.23-10.695V17.077C118.492,15.937,106.93,12.226,98.202,8.25z"/>
			<path fill="#003A70" d="M79.007,48.979c-3.357,0-6.085,2.724-6.085,6.081v2.438c1.981-0.04,3.999-0.063,6.067-0.063
				c2.078,0,4.107,0.023,6.099,0.064V55.06C85.088,51.702,82.367,48.979,79.007,48.979z"/>
			<path fill="#003A70" d="M33.267,87.137c1.676,6.453,3.983,11.916,6.997,16.746c7.152,11.461,18.764,20.171,38.736,29.023
				c19.975-8.854,31.585-17.563,38.736-29.023c3.015-4.832,5.322-10.293,6.998-16.748l0.098-0.469
				c-10.002-1.691-25.924-3.647-45.843-3.647c-19.499,0-35.297,1.879-45.819,3.655L33.267,87.137z M100.493,87.424
				c5.315,0.385,10.136,0.881,14.405,1.418v15.406c-3.569,5.285-8.224,9.971-14.405,14.394V87.424z M71.681,86.743
				c2.373-0.058,4.81-0.09,7.309-0.09c2.427,0,4.793,0.029,7.096,0.083v18.505H71.681V86.743z M71.681,116.668h14.404v10.496
				c-2.229,1.121-4.587,2.238-7.085,3.359c-2.585-1.162-5.019-2.316-7.319-3.479V116.668z M42.874,88.877
				c4.315-0.547,9.133-1.045,14.405-1.433v31.032c-6.2-4.469-10.849-9.209-14.405-14.564V88.877z"/>
			<g>
				<path fill="#003A70" d="M128.066,61.653c0.108-2.711,0.17-3.548,0.186-6.518c-2.12-0.503-6.345-0.979-8.709-1.415l-0.006,6.537
					C122.73,60.72,125.58,61.196,128.066,61.653z"/>
				<path fill="#003A70" d="M29.935,61.648c2.49-0.456,5.341-0.934,8.54-1.396l-0.006-6.534c-2.363,0.438-6.598,0.913-8.72,1.417
					C29.764,58.104,29.824,58.938,29.935,61.648z"/>
				<path fill="#003A70" d="M128.256,21.022c-11.176-1.306-21.887-4.266-31.859-8.81c-5.205-2.373-11.06-3.576-17.399-3.579
					c-6.328,0-12.181,1.205-17.392,3.579c-9.975,4.544-20.684,7.504-31.861,8.81v32.503c2.127-0.506,6.36-0.98,8.724-1.418
					l-0.002-2.402c0,0,1.286-0.835,4.633-1.757v1.93c0.773-0.213,1.656-0.433,2.659-0.646v-1.93
					c1.825-0.387,4.043-0.758,6.719-1.062v1.93c0.842-0.097,1.726-0.182,2.659-0.263v-1.93c0.145-0.013,0.294-0.023,0.44-0.036
					c1.646-0.133,3.437-0.237,5.377-0.308c0.932-0.034,1.895-0.06,2.896-0.075v1.928c0.821-0.01,1.659-0.022,2.528-0.022h0.132
					v-1.928H79h0.011h12.495v1.928h0.133c0.871,0,1.702,0.013,2.523,0.022V45.56c1.002,0.016,1.96,0.041,2.889,0.075
					c1.941,0.07,3.73,0.175,5.379,0.308c0.148,0.013,0.301,0.023,0.447,0.036v1.93c0.932,0.081,1.82,0.166,2.66,0.263v-1.93
					c2.673,0.304,4.896,0.675,6.715,1.062v1.93c1.006,0.213,1.891,0.433,2.661,0.646v-1.93c3.347,0.922,4.634,1.757,4.634,1.757
					l-0.002,2.404c2.363,0.437,6.589,0.911,8.711,1.416V21.022L128.256,21.022z M85.659,43.197H71.935
					c-4.119,0-5.912-0.578-5.912-0.578c2.542-0.348,3.591-2.168,3.591-2.168c1.123,0.209,5.292,0.268,9.187,0.268
					c3.891,0,8.059-0.059,9.182-0.268c0,0,1.049,1.82,3.594,2.168C91.574,42.619,89.779,43.197,85.659,43.197z M58.482,38.102
					c-1.21,0-2.307-0.05-3.301-0.131c-2.859-0.232-4.829-0.731-5.974-1.107c0.14,0.002,0.272,0.002,0.408,0.002
					c1.801,0,3.511-0.083,4.898-0.18c1.929-0.131,3.234-0.291,3.255-0.295c-0.021,0.007,3.961,0.354,6.876,0.354h28.722
					c2.913,0,6.896-0.347,6.933-0.352c-0.01,0.003,1.274,0.16,3.189,0.293c1.386,0.097,3.103,0.18,4.906,0.18
					c0.133,0,0.271,0,0.408-0.002c-1.146,0.376-3.119,0.876-5.984,1.109c-0.988,0.079-2.084,0.129-3.291,0.129H58.482z
					 M54.896,26.793c-0.635-0.071-1.17-0.143-1.624-0.211c2.172-0.113,4.226-0.38,6.128-0.799c0.73-0.161,1.383-0.334,1.966-0.507
					c1.136-0.337,2-0.674,2.584-0.935c0.627-0.28,1.018-0.501,1.178-0.596c0.498,0.038,1.014,0.064,1.525,0.094
					c2.49,0.139,5.125,0.167,7.65,0.167l4.674-0.009l4.727,0.009c2.526,0,5.159-0.028,7.646-0.166
					c0.517-0.029,1.037-0.057,1.537-0.095c0.161,0.095,0.547,0.315,1.176,0.596c0.582,0.26,1.442,0.597,2.578,0.932
					c0.584,0.174,1.239,0.348,1.978,0.51c1.899,0.419,3.952,0.686,6.126,0.799c-0.458,0.068-0.989,0.14-1.623,0.211
					c-1.76,0.196-3.87,0.353-6.268,0.459c-0.072,0.003-0.158,0.006-0.246,0.009c-0.918,0.033-2.689,0.059-5.308,0.076
					c-3,0.021-7.101,0.031-12.292,0.031c-5.199,0-9.302-0.01-12.304-0.031c-2.62-0.018-4.392-0.043-5.306-0.076
					c-0.083-0.003-0.168-0.006-0.237-0.009C58.764,27.146,56.653,26.989,54.896,26.793z M109.965,40.691l0.866,0.648l-0.401,0.845
					v3.004c-1.021-0.118-1.631-0.154-1.631-0.154l0.031-3.239l-0.652-0.489h-1.199h-1.5l-0.514,0.559v1.631h-5.304h-5.729
					l1.338-1.218h4.896h3.318v-0.739l1.721-1.632h2.859l3.847-2.513l-0.737-0.978v-1.152c-0.304,0.011-0.597,0.018-0.89,0.021
					c-2.413,0.039-4.409-0.101-5.96-0.289c-1.86-0.227-3.081-0.521-3.59-0.661v-1.126l1.656-1.548l1.461,0.297l2.881-2.482
					l2.854-2.458l-1.307-1.812l-0.266-0.368c-4.976,0.173-8.963-0.769-11.351-1.542c-1.569-0.511-2.456-0.947-2.456-0.947
					l0.115-0.705c-0.184-0.004-0.577,0.024-0.908-0.105c-0.334-0.13-1.045-0.295-1.329,0.013c-0.287,0.31-0.201,0.597-0.201,0.597
					c-0.163,0.014-0.336,0.026-0.517,0.038c-2.602,0.169-6.96,0.169-12.357,0.169l-0.004,0.011L79,22.354
					c-5.403,0-9.766,0-12.365-0.171c-0.177-0.011-0.348-0.023-0.508-0.036c0,0,0.085-0.287-0.199-0.597
					c-0.285-0.308-1-0.143-1.334-0.013c-0.328,0.13-0.72,0.102-0.906,0.105l0.114,0.705c0,0-0.888,0.438-2.463,0.948
					c-2.388,0.774-6.372,1.714-11.344,1.541l-0.268,0.375l-1.303,1.805l2.842,2.449l2.892,2.491l1.464-0.297l1.653,1.548v1.126
					c-0.506,0.14-1.73,0.436-3.597,0.663c-1.551,0.187-3.55,0.326-5.961,0.287c-0.288-0.004-0.58-0.011-0.882-0.021v1.152
					l-0.738,0.978l3.851,2.513h2.858l1.721,1.632v0.739h3.31h4.917l1.34,1.218h-5.751h-5.299v-1.631l-0.511-0.559h-1.51h-1.188
					l-0.65,0.489l0.024,3.239c0,0-0.611,0.047-1.63,0.179v-3.04l-0.393-0.832l0.861-0.646l-4.19-2.979l1.35-1.784v-2.249
					l1.691,0.059c0.289,0.011,0.569,0.016,0.848,0.021c0.269,0.004,0.53,0.006,0.788,0.006c1.731,0,3.392-0.095,4.937-0.283
					c0.014-0.001,0.031-0.002,0.048-0.006l-7.229-6.227l2.859-3.968l0.907,0.031c0.384,0.014,0.762,0.02,1.132,0.02
					c4.181,0,7.536-0.804,9.616-1.479c0.469-0.151,0.87-0.295,1.2-0.421L61.8,20.171l2.229-0.063
					c0.203-0.078,0.747-0.259,1.37-0.259c0.715,0,1.34,0.25,1.761,0.701c0.043,0.048,0.084,0.096,0.123,0.144
					C69.869,20.83,73.907,20.83,79,20.83c5.105,0,9.143,0,11.73-0.135c0.037-0.049,0.08-0.097,0.121-0.144
					c0.42-0.452,1.045-0.702,1.76-0.702c0.606,0,1.15,0.176,1.392,0.265c0.043,0.003,0.365,0.006,0.365,0.006l1.853,0.053
					l-0.211,1.263c0.328,0.125,0.729,0.269,1.19,0.419c2.077,0.676,5.438,1.479,9.62,1.479c0.371,0,0.75-0.006,1.135-0.02
					l0.906-0.031l2.855,3.968l-7.225,6.227c0.015,0.002,0.027,0.005,0.043,0.006c1.545,0.188,3.21,0.283,4.945,0.283
					c0.254,0,0.512-0.002,0.773-0.006c0.284-0.004,0.566-0.01,0.857-0.021l1.688-0.059v2.251l1.345,1.783L109.965,40.691z"/>
			</g>
			<path fill="#003A70" d="M39.99,50.636l0.008,9.287h0.836c8.283-1.117,18.604-2.09,30.563-2.391V55.06
				c0-4.193,3.413-7.604,7.609-7.604c4.195,0,7.605,3.411,7.605,7.604v2.475c11.947,0.301,22.257,1.272,30.533,2.389l0.867,0.101
				l0.01-9.387c-0.369-0.167-0.893-0.383-1.586-0.623v1.866l-1.93-0.532c-0.809-0.224-1.674-0.433-2.572-0.623l-1.207-0.258v-1.915
				c-1.148-0.218-2.375-0.414-3.666-0.587v1.915l-1.697-0.195c-0.826-0.094-1.701-0.178-2.62-0.259l-1.394-0.119V47.39
				c-1.389-0.099-2.85-0.177-4.355-0.23c-0.43-0.017-0.863-0.03-1.309-0.043v1.916L93.9,49.011c-0.735-0.01-1.483-0.02-2.264-0.02
				H89.98v-1.928H68.033v1.928h-1.656c-0.781,0-1.535,0.01-2.274,0.02l-1.779,0.022v-1.916c-0.446,0.014-0.884,0.026-1.317,0.043
				c-1.488,0.053-2.947,0.131-4.347,0.23v1.918l-1.394,0.119c-0.918,0.081-1.788,0.165-2.617,0.259l-1.697,0.194v-1.914
				c-1.289,0.173-2.516,0.369-3.669,0.587v1.915l-1.208,0.258c-0.888,0.188-1.754,0.396-2.57,0.623l-1.929,0.531v-1.866
				C40.879,50.254,40.357,50.47,39.99,50.636z"/>
			<path fill="#003A70" d="M126.027,90.581c-0.492,1.629-1.027,3.197-1.61,4.709c-1.358,3.527-2.963,6.75-4.833,9.748
				C112.093,117.04,99.93,126.116,79,135.286c-20.928-9.17-33.093-18.246-40.583-30.248c-1.869-2.998-3.474-6.221-4.833-9.748
				c-0.582-1.512-1.118-3.08-1.611-4.709c-0.346-1.145-0.669-2.32-0.972-3.527c-0.497,0.088-1.226,0.221-2.128,0.393
				c0.578,2.318,1.239,4.537,1.983,6.667c0.175,0.498,0.34,1.003,0.523,1.491c7.166,19.057,21.596,30.779,47.62,42.059
				c26.026-11.277,40.456-23.002,47.622-42.059c0.184-0.488,0.35-0.993,0.521-1.491c0.746-2.13,1.406-4.349,1.984-6.667
				c-0.902-0.172-1.633-0.305-2.129-0.393C126.698,88.26,126.374,89.435,126.027,90.581z"/>
		</g>
		<g>
			<path fill="#FFFFFF" d="M47.187,41.341l0.393,0.832v3.04c1.019-0.132,1.63-0.179,1.63-0.179l-0.024-3.239l0.65-0.489h1.188h1.51
				l0.511,0.559v1.631h5.299h5.751l-1.34-1.218h-4.917h-3.31v-0.739l-1.721-1.632h-2.858l-3.851-2.513l0.738-0.978v-1.152
				c0.302,0.011,0.594,0.018,0.882,0.021c2.411,0.039,4.41-0.101,5.961-0.287c1.866-0.228,3.091-0.523,3.597-0.663v-1.126
				l-1.653-1.548l-1.464,0.297l-2.892-2.491l-2.842-2.449l1.303-1.805l0.268-0.375c4.972,0.173,8.956-0.767,11.344-1.541
				c1.575-0.51,2.463-0.948,2.463-0.948l-0.114-0.705c0.187-0.004,0.578,0.024,0.906-0.105c0.334-0.13,1.049-0.295,1.334,0.013
				c0.284,0.31,0.199,0.597,0.199,0.597c0.16,0.013,0.331,0.025,0.508,0.036c2.6,0.171,6.962,0.171,12.365,0.171l0.007,0.011
				l0.004-0.011c5.397,0,9.757,0,12.357-0.169c0.181-0.012,0.354-0.024,0.518-0.038c0,0-0.087-0.287,0.2-0.597
				c0.284-0.308,0.995-0.143,1.329-0.013c0.331,0.13,0.727,0.102,0.909,0.105l-0.116,0.705c0,0,0.887,0.437,2.456,0.947
				c2.388,0.773,6.375,1.715,11.351,1.542l0.267,0.368l1.306,1.812l-2.854,2.458l-2.881,2.482l-1.461-0.297l-1.656,1.548v1.126
				c0.509,0.14,1.729,0.435,3.59,0.661c1.551,0.188,3.547,0.328,5.96,0.289c0.293-0.004,0.586-0.011,0.89-0.021v1.152l0.737,0.978
				l-3.847,2.513h-2.859l-1.721,1.632v0.739h-3.318H95.27l-1.338,1.218h5.729h5.304v-1.631l0.514-0.559h1.5h1.199l0.652,0.489
				l-0.031,3.239c0,0,0.609,0.036,1.631,0.154v-3.004l0.401-0.845l-0.866-0.648l4.182-2.975l-1.344-1.783v-2.251l-1.689,0.059
				c-0.29,0.011-0.572,0.017-0.856,0.021c-0.263,0.004-0.521,0.006-0.774,0.006c-1.734,0-3.399-0.095-4.944-0.283
				c-0.017-0.001-0.028-0.004-0.043-0.006l7.226-6.227l-2.857-3.968l-0.905,0.031c-0.386,0.014-0.765,0.02-1.134,0.02
				c-4.184,0-7.543-0.804-9.621-1.479c-0.463-0.15-0.862-0.294-1.189-0.419l0.209-1.263l-1.852-0.053c0,0-0.322-0.003-0.365-0.006
				c-0.24-0.089-0.783-0.265-1.393-0.265c-0.715,0-1.338,0.25-1.758,0.702c-0.043,0.047-0.086,0.095-0.123,0.144
				c-2.588,0.135-6.625,0.135-11.729,0.135c-5.093,0-9.131,0-11.717-0.136c-0.039-0.048-0.08-0.096-0.123-0.144
				c-0.421-0.451-1.046-0.701-1.761-0.701c-0.623,0-1.167,0.181-1.37,0.259l-2.229,0.063l0.204,1.263
				c-0.33,0.126-0.731,0.27-1.2,0.421c-2.08,0.675-5.436,1.479-9.616,1.479c-0.37,0-0.748-0.006-1.132-0.02l-0.907-0.031
				l-2.859,3.968l7.229,6.227c-0.017,0.004-0.034,0.005-0.048,0.006c-1.545,0.188-3.205,0.283-4.937,0.283
				c-0.258,0-0.52-0.002-0.788-0.006c-0.278-0.005-0.559-0.01-0.848-0.021l-1.691-0.059v2.249l-1.35,1.784l4.19,2.979L47.187,41.341
				z"/>
			<path fill="#FFFFFF" d="M66.703,27.337c3.002,0.021,7.104,0.031,12.304,0.031c5.191,0,9.292-0.01,12.292-0.031
				c2.617-0.018,4.389-0.043,5.307-0.076c0.088-0.003,0.174-0.006,0.248-0.009c2.396-0.106,4.506-0.263,6.267-0.459
				c0.634-0.071,1.165-0.143,1.623-0.211c-2.173-0.113-4.228-0.38-6.126-0.799c-0.737-0.162-1.395-0.336-1.977-0.51
				c-1.137-0.335-1.996-0.672-2.578-0.932c-0.631-0.28-1.016-0.501-1.178-0.596c-0.498,0.038-1.021,0.065-1.537,0.095
				c-2.484,0.138-5.117,0.166-7.645,0.166l-4.727-0.009l-4.674,0.009c-2.525,0-5.16-0.028-7.65-0.167
				c-0.512-0.029-1.027-0.056-1.525-0.094c-0.16,0.095-0.551,0.315-1.178,0.596c-0.584,0.261-1.448,0.598-2.584,0.935
				c-0.583,0.173-1.235,0.346-1.966,0.507c-1.902,0.419-3.956,0.686-6.128,0.799c0.454,0.068,0.989,0.14,1.624,0.211
				c1.758,0.196,3.868,0.353,6.265,0.459c0.069,0.003,0.154,0.006,0.237,0.009C62.312,27.294,64.083,27.319,66.703,27.337z"/>
			<path fill="#FFFFFF" d="M102.82,37.973c2.865-0.233,4.837-0.733,5.984-1.109c-0.14,0.002-0.277,0.002-0.408,0.002
				c-1.806,0-3.521-0.083-4.908-0.18c-1.914-0.133-3.198-0.29-3.188-0.293c-0.038,0.005-4.021,0.352-6.933,0.352H64.646
				c-2.915,0-6.896-0.347-6.876-0.354c-0.021,0.004-1.326,0.164-3.255,0.295c-1.388,0.097-3.098,0.18-4.898,0.18
				c-0.136,0-0.269,0-0.408-0.002c1.145,0.376,3.114,0.875,5.974,1.107c0.994,0.081,2.091,0.131,3.301,0.131h41.045
				C100.736,38.102,101.831,38.052,102.82,37.973z"/>
			<path fill="#FFFFFF" d="M87.98,40.451c-1.123,0.209-5.291,0.268-9.182,0.268c-3.895,0-8.063-0.059-9.187-0.268
				c0,0-1.049,1.82-3.591,2.168c0,0,1.793,0.578,5.912,0.578h13.725c4.119,0,5.915-0.578,5.915-0.578
				C89.029,42.271,87.98,40.451,87.98,40.451z"/>
			<path fill="#FFFFFF" d="M143.727,73.32l-0.31-0.063c-0.021-0.004-1.894-0.391-4.981-0.977l2.149-7.813l-0.728-0.211
				c-0.076-0.023-2.695-0.77-7.478-1.762c-0.678-0.14-1.386-0.284-2.153-0.434c0.139-3.243,0.207-6.654,0.207-10.262V19.067
				c-11.651-1.154-22.789-4.122-33.136-8.835c-5.489-2.504-11.644-3.773-18.303-3.775c-6.643,0-12.797,1.27-18.295,3.775
				c-10.345,4.713-21.482,7.681-33.135,8.835v32.731c0,3.605,0.069,7.016,0.206,10.258c-0.766,0.149-1.475,0.293-2.153,0.434
				c-4.794,0.993-7.422,1.742-7.498,1.766l-0.727,0.211l2.145,7.819c-3.072,0.582-4.936,0.967-4.955,0.971l-0.31,0.063L5.115,87.127
				l9.322,11.164l0.442-0.08c0.061-0.012,6.145-1.135,15.049-2.401l1.451-0.206c-0.184-0.488-0.349-0.993-0.523-1.491l-10.389-4.831
				c3.043-0.771,6.209-1.418,8.405-1.836c0.902-0.172,1.631-0.305,2.128-0.393c0.303,1.207,0.626,2.384,0.972,3.527
				c0.493,1.629,1.029,3.197,1.611,4.709c1.359,3.527,2.964,6.75,4.833,9.748c7.49,12.002,19.655,21.078,40.583,30.248
				c20.931-9.17,33.093-18.246,40.584-30.248c1.87-2.998,3.476-6.221,4.833-9.748c0.583-1.512,1.118-3.08,1.611-4.709
				c0.346-1.146,0.67-2.32,0.972-3.527c0.496,0.088,1.228,0.221,2.129,0.393c2.194,0.418,5.362,1.063,8.405,1.836l-10.391,4.832
				c-0.174,0.497-0.34,1.002-0.521,1.49l1.449,0.206c8.906,1.267,14.99,2.39,15.051,2.401l0.441,0.08l9.32-11.164L143.727,73.32z
				 M29.743,21.022c11.178-1.306,21.887-4.266,31.861-8.81c5.211-2.374,11.063-3.579,17.392-3.579
				c6.341,0.003,12.193,1.206,17.4,3.579c9.973,4.544,20.684,7.504,31.858,8.81v32.503c-2.122-0.505-6.348-0.979-8.711-1.416
				l0.002-2.404c0,0-1.287-0.835-4.634-1.757v1.93c-0.771-0.213-1.655-0.433-2.661-0.646v-1.93
				c-1.819-0.387-4.042-0.758-6.715-1.062v1.93c-0.841-0.097-1.729-0.182-2.66-0.263v-1.93c-0.147-0.013-0.299-0.023-0.446-0.036
				c-1.648-0.133-3.438-0.237-5.38-0.308c-0.929-0.034-1.887-0.06-2.889-0.075v1.928c-0.821-0.01-1.652-0.022-2.522-0.022h-0.134
				v-1.928H79.011H79H66.509v1.928h-0.132c-0.869,0-1.707,0.013-2.528,0.022V45.56c-1.002,0.016-1.965,0.041-2.896,0.075
				c-1.94,0.07-3.731,0.175-5.377,0.308c-0.146,0.013-0.296,0.023-0.44,0.036v1.93c-0.934,0.081-1.817,0.166-2.659,0.263v-1.93
				c-2.676,0.304-4.894,0.675-6.719,1.062v1.93c-1.003,0.213-1.886,0.433-2.659,0.646v-1.93c-3.347,0.922-4.633,1.757-4.633,1.757
				l0.002,2.402c-2.363,0.438-6.597,0.912-8.724,1.418L29.743,21.022L29.743,21.022z M119.543,53.721
				c2.364,0.437,6.589,0.912,8.709,1.415c-0.016,2.97-0.076,3.807-0.186,6.518c-2.486-0.457-5.336-0.934-8.529-1.396L119.543,53.721
				z M79.007,47.455c-4.196,0-7.609,3.411-7.609,7.604v2.473c-11.96,0.301-22.28,1.273-30.563,2.391h-0.836l-0.008-9.287
				c0.367-0.166,0.889-0.382,1.585-0.623v1.866l1.929-0.531c0.816-0.227,1.683-0.436,2.57-0.623l1.208-0.258v-1.915
				c1.153-0.218,2.38-0.414,3.669-0.587v1.914l1.697-0.194c0.829-0.094,1.699-0.178,2.617-0.259l1.394-0.119v-1.918
				c1.399-0.1,2.858-0.178,4.347-0.23c0.434-0.017,0.871-0.029,1.317-0.043v1.916l1.779-0.022c0.739-0.01,1.493-0.02,2.274-0.02
				h1.656v-1.928H89.98v1.928h1.658c0.778,0,1.526,0.01,2.264,0.02l1.785,0.022v-1.916c0.443,0.013,0.879,0.026,1.308,0.043
				c1.507,0.054,2.968,0.132,4.356,0.23v1.918l1.393,0.119c0.919,0.081,1.794,0.165,2.619,0.259l1.697,0.195v-1.915
				c1.293,0.173,2.519,0.369,3.668,0.587v1.915l1.207,0.258c0.897,0.19,1.764,0.399,2.571,0.623l1.929,0.532v-1.866
				c0.694,0.24,1.219,0.456,1.586,0.623l-0.008,9.387l-0.867-0.101c-8.277-1.116-18.588-2.088-30.535-2.389V55.06
				C86.611,50.866,83.202,47.455,79.007,47.455z M85.088,55.06v2.439c-1.99-0.041-4.021-0.064-6.099-0.064
				c-2.068,0-4.086,0.023-6.067,0.063V55.06c0-3.357,2.728-6.081,6.085-6.081C82.367,48.979,85.088,51.702,85.088,55.06z
				 M38.475,60.253c-3.199,0.462-6.05,0.939-8.54,1.396c-0.11-2.71-0.171-3.544-0.186-6.513c2.122-0.504,6.356-0.979,8.72-1.417
				L38.475,60.253z M28.16,94.514c-6.356,0.936-11.726,1.855-13.117,2.105l-8.015-9.598l8.176-12.324
				c0.661-0.135,2.35-0.475,4.77-0.932l0.563,2.042L17.48,89.452L28.16,94.514z M124.734,87.135
				c-1.676,6.455-3.983,11.916-6.998,16.748c-7.151,11.461-18.764,20.171-38.736,29.023c-19.973-8.854-31.584-17.563-38.736-29.023
				c-3.014-4.83-5.321-10.293-6.997-16.746l-0.097-0.463c10.522-1.776,26.32-3.655,45.819-3.655c19.919,0,35.841,1.956,45.843,3.647
				L124.734,87.135z M137.096,87.59c-0.074-0.018-0.148-0.035-0.226-0.053c-0.192-0.047-0.39-0.095-0.597-0.144
				c-0.062-0.015-0.117-0.026-0.178-0.042c-0.271-0.063-0.552-0.127-0.849-0.195c-0.063-0.015-0.132-0.029-0.197-0.045
				c-0.245-0.055-0.5-0.111-0.764-0.171c-0.089-0.019-0.177-0.037-0.265-0.058c-0.666-0.145-1.387-0.299-2.158-0.457
				c-0.112-0.022-0.229-0.047-0.344-0.07c-0.311-0.063-0.627-0.126-0.949-0.189c-0.101-0.021-0.194-0.039-0.295-0.059
				c-0.254-0.05-0.521-0.102-0.784-0.15c-0.166-0.031-0.325-0.063-0.496-0.097c-0.103-0.021-0.209-0.038-0.313-0.06
				c-0.354-0.065-0.717-0.133-1.088-0.2c-0.076-0.015-0.156-0.026-0.234-0.042c-0.06-0.012-0.118-0.021-0.178-0.033
				c-0.479-0.085-0.966-0.171-1.468-0.258c-0.161-0.027-0.333-0.057-0.502-0.085c-0.112-0.019-0.226-0.037-0.335-0.056
				c-10.068-1.695-25.961-3.646-45.889-3.646c-19.501,0-35.266,1.872-45.865,3.656c-0.114,0.02-0.221,0.037-0.333,0.057
				c-0.743,0.126-1.457,0.251-2.147,0.375c-0.739,0.135-1.455,0.266-2.133,0.395c-2.485,0.476-4.559,0.918-6.178,1.289
				c-0.143,0.035-0.281,0.064-0.417,0.098c-0.035,0.009-0.07,0.018-0.106,0.023c-1.006,0.235-1.823,0.438-2.422,0.592
				c-0.01,0.002-0.019,0.005-0.026,0.008l2.728-12.203l-1.035-3.771l-1.773-6.466c1.052-0.279,3.226-0.827,6.408-1.491
				c0.671-0.14,1.396-0.285,2.155-0.436c0.686-0.133,1.403-0.271,2.158-0.41c3.099-0.571,6.788-1.178,11.009-1.748
				c4.216-0.568,8.965-1.1,14.196-1.524c4.976-0.402,10.387-0.707,16.19-0.854c0.508-0.013,1.011-0.027,1.524-0.038
				c1.979-0.04,4.001-0.063,6.067-0.063c2.077,0,4.11,0.022,6.099,0.063c0.515,0.011,1.017,0.025,1.524,0.038
				c5.787,0.146,11.185,0.451,16.15,0.853c5.229,0.425,9.979,0.956,14.195,1.524c4.232,0.571,7.936,1.179,11.039,1.753
				c0.755,0.141,1.475,0.276,2.16,0.412c0.759,0.148,1.484,0.295,2.154,0.435c3.168,0.662,5.334,1.206,6.387,1.485l-2.715,9.865
				l-0.104,0.373l2.732,12.201c-0.016-0.006-0.034-0.01-0.051-0.014c-0.101-0.025-0.199-0.051-0.31-0.08
				c-0.118-0.028-0.245-0.062-0.377-0.094c-0.084-0.021-0.167-0.043-0.256-0.064C137.455,87.68,137.279,87.637,137.096,87.59z
				 M142.96,96.62c-1.394-0.25-6.762-1.17-13.118-2.105l10.68-5.063l-3.058-13.644l0.563-2.042c2.421,0.457,4.109,0.797,4.771,0.932
				l8.175,12.324L142.96,96.62z"/>
		</g>
		<g>
			<path fill="#FFFFFF" d="M76.85,108.015h-1.553c-1.341,0-2.285,0.618-2.411,1.565l-0.372,2.744
				c-0.126,0.948,0.651,1.566,1.989,1.566h1.555c1.337,0,2.283-0.618,2.411-1.566l0.371-2.744
				C78.968,108.633,78.187,108.015,76.85,108.015 M77.232,109.92l-0.281,2.066c-0.062,0.439-0.279,1.061-1.477,1.061h-0.161
				c-1.195,0-1.25-0.621-1.19-1.061l0.279-2.066c0.06-0.442,0.277-1.062,1.477-1.062h0.162
				C77.237,108.859,77.292,109.478,77.232,109.92"/>
			<path fill="#FFFFFF" d="M83.702,108.015h-1.556c-1.34,0-2.283,0.618-2.414,1.565l-0.369,2.744
				c-0.128,0.948,0.65,1.566,1.986,1.566h1.558c1.336,0,2.282-0.618,2.411-1.566l0.369-2.744
				C85.816,108.633,85.039,108.015,83.702,108.015 M84.086,109.92l-0.284,2.066c-0.063,0.439-0.28,1.061-1.479,1.061h-0.158
				c-1.197,0-1.25-0.621-1.192-1.061l0.28-2.066c0.06-0.442,0.281-1.062,1.479-1.062h0.156
				C84.087,108.859,84.143,109.478,84.086,109.92"/>
			<path fill="#FFFFFF" d="M70.004,108.015h-1.557c-1.342,0-2.284,0.618-2.413,1.567h1.6c0.141-0.365,0.487-0.723,1.396-0.723h0.157
				c1.201,0,1.406,0.703,1.148,1.063c-0.62,0.949-4.486,1.07-4.771,3.127l-0.116,0.846h5.612l0.464-0.846h-4.391
				c0,0,0.057-0.575,1.807-1.201c1.579-0.563,2.831-0.7,3.05-2.266C72.119,108.633,71.337,108.015,70.004,108.015"/>
			<path fill="#FFFFFF" d="M90.553,108.015h-1.559c-1.34,0-2.286,0.618-2.412,1.567h1.604c0.138-0.365,0.487-0.723,1.394-0.723
				h0.159c1.199,0,1.406,0.703,1.146,1.063c-0.13,0.203-0.413,0.369-0.776,0.521h-2.225l-0.466,0.846h2.517
				c0.262,0.012,0.803,0.078,0.746,0.502l-0.027,0.195c-0.062,0.439-0.28,1.059-1.478,1.059h-2.711l-0.466,0.847h3.761
				c1.337,0,2.284-0.618,2.408-1.567l0.063-0.468c0.071-0.394-0.078-0.729-0.399-0.972c0.369-0.286,0.622-0.68,0.707-1.303
				C92.666,108.633,91.891,108.015,90.553,108.015"/>
		</g>
		<g>
			<path fill="#FFFFFF" d="M116.973,75.021c0.401-1.56,0.604-2.34,1.01-3.9c0.218-0.829,0.771-1.969,2.938-1.667
				c1.96,0.271,2.938,0.415,4.896,0.72c0.434-0.595,0.651-0.893,1.09-1.486c-2.727-0.432-4.09-0.632-6.822-1.002
				c-2.434-0.33-4.301,0.657-4.749,2.444c-0.522,2.076-0.782,3.113-1.293,5.189c-0.442,1.791,0.783,3.137,3.127,3.439
				c2.39,0.314,3.583,0.48,5.966,0.844c0.422-0.6,0.633-0.896,1.055-1.495c-2.146-0.329-3.223-0.485-5.375-0.778
				C116.703,77.043,116.757,75.854,116.973,75.021"/>
			<path fill="#FFFFFF" d="M102.341,77.204c1.101,0.09,1.649,0.135,2.749,0.232c0.48-2.24,0.725-3.359,1.215-5.596
				c2.481,0.227,3.723,0.353,6.201,0.629c0.402-0.611,0.605-0.918,1.014-1.529c-2.742-0.316-4.112-0.458-6.86-0.711
				c0.209-0.948,0.313-1.421,0.524-2.37c2.937,0.274,4.403,0.428,7.334,0.772c0.412-0.611,0.619-0.917,1.034-1.526
				c-4.546-0.547-6.823-0.776-11.381-1.153c0,0,0.456,0.337,0.099,2.02C103.482,71.663,103.098,73.508,102.341,77.204"/>
			<path fill="#FFFFFF" d="M80.646,64.929c-1.142-0.005-1.711-0.007-2.852-0.003c-2.451,0.011-4.16,1.244-4.358,3.077
				c-0.231,2.127-0.343,3.192-0.563,5.32c-0.189,1.834,1.208,2.995,3.566,2.977c1.098-0.01,1.646-0.012,2.746-0.012
				c2.357,0,4.041-1.17,4.294-2.994c0.297-2.119,0.445-3.178,0.754-5.296C84.496,66.173,83.098,64.941,80.646,64.929 M80.783,72.61
				c-0.113,0.852-0.51,2.037-2.635,2.043c-0.11,0-0.167,0-0.279,0c-2.125,0.01-2.234-1.178-2.136-2.029
				c0.181-1.603,0.272-2.402,0.46-4.003c0.1-0.854,0.492-2.059,2.674-2.061h0.288c2.183,0.002,2.271,1.205,2.158,2.057
				C81.098,70.213,80.991,71.013,80.783,72.61"/>
			<path fill="#FFFFFF" d="M37.15,70.6c-0.707-0.518-0.302-1.109,0.69-1.244c2.201-0.301,3.304-0.441,5.51-0.701
				c0.259-0.69,0.389-1.033,0.649-1.724c-3.21,0.37-4.813,0.576-8.016,1.03c-2.309,0.327-4.261,2.09-1.436,4.096
				c2.237,1.586,3.344,2.389,5.525,4.013c0.689,0.522,0.288,1.108-0.678,1.239c-2.388,0.322-3.582,0.495-5.966,0.865
				c-0.224,0.697-0.335,1.045-0.555,1.744c3.319-0.527,4.983-0.767,8.314-1.195c2.226-0.287,4.204-1.98,1.464-4.063
				C40.482,73.015,39.381,72.204,37.15,70.6"/>
			<path fill="#FFFFFF" d="M68.793,65.095c0,0,0.491,0.281,0.33,1.993l0,0c-0.215,2.279-0.32,3.419-0.523,5.698
				c-0.039,0.438-0.159,0.758-0.159,0.758c-0.267,0.766-0.821,1.326-1.418,1.351c-0.596,0.024-1.06-0.497-1.2-1.247
				c0,0-0.065-0.303-0.032-0.732c0.009-0.108,0.013-0.162,0.022-0.271h-0.001c0.239-2.984,0.363-4.477,0.62-7.46
				c-1.351,0.057-2.027,0.088-3.38,0.159c0,0,0.497,0.271,0.368,1.986c-0.172,2.287-0.257,3.432-0.418,5.717
				c-0.033,0.436-0.145,0.75-0.145,0.75c-0.254,0.771-0.796,1.34-1.393,1.377c-0.596,0.035-1.069-0.477-1.224-1.225
				c0,0-0.072-0.31-0.046-0.748c0.189-3.092,0.289-4.637,0.496-7.727c-1.35,0.081-2.026,0.124-3.376,0.22
				c0,0,0.501,0.264,0.405,1.981c-0.146,2.55-0.213,3.823-0.344,6.372c-0.069,1.334,0.684,2.271,1.992,2.631
				c0.5,0.14,1.075,0.195,1.725,0.156c0.213-0.014,0.32-0.02,0.534-0.031c0.648-0.041,1.238-0.166,1.758-0.364
				c0.283-0.106,0.543-0.237,0.782-0.388c0.219,0.125,0.463,0.232,0.733,0.312c0.495,0.147,1.069,0.216,1.719,0.188
				c0.215-0.01,0.32-0.014,0.533-0.022c0.65-0.024,1.241-0.142,1.766-0.329c1.375-0.496,2.275-1.508,2.406-2.838
				c0.327-3.344,0.499-5.015,0.849-8.358C70.822,65.031,70.146,65.049,68.793,65.095"/>
			<path fill="#FFFFFF" d="M52.871,66.041c0,0,0.504,0.255,0.433,1.974c-0.098,2.287-0.143,3.431-0.227,5.718
				c-0.033,0.857-0.319,2.074-2.437,2.277c-0.111,0.012-0.166,0.017-0.277,0.027c-2.118,0.205-2.338-0.965-2.319-1.822
				c0.063-3.096,0.1-4.645,0.182-7.74c-1.349,0.137-2.021,0.208-3.368,0.358c0,0,0.512,0.243,0.484,1.964
				c-0.04,2.552-0.057,3.829-0.083,6.379c-0.019,1.845,1.481,2.871,3.832,2.633c0.188-0.02,0.28-0.029,0.469-0.047
				c0.718-0.072,1.079-0.108,1.798-0.176c0.188-0.019,0.281-0.025,0.469-0.043c2.353-0.217,3.919-1.539,4.003-3.381
				c0.154-3.356,0.238-5.036,0.415-8.393C54.894,65.871,54.219,65.926,52.871,66.041"/>
			<path fill="#FFFFFF" d="M93.784,65.281c0,0,0.466,0.32,0.165,2.014c-0.426,2.407-0.637,3.611-1.053,6.02
				c-1.358-3.294-2.061-4.938-3.5-8.214c-1.461-0.05-2.191-0.069-3.651-0.103c0,0,0.476,0.308,0.22,2.01
				c-0.563,3.731-0.836,5.598-1.367,9.333c1.102,0.021,1.653,0.035,2.754,0.066c0.489-3.215,0.738-4.82,1.25-8.032
				c1.433,3.273,2.127,4.913,3.479,8.204c1.205,0.053,1.809,0.082,3.013,0.148c0.808-4.51,1.222-6.762,2.071-11.265
				C95.813,65.382,95.137,65.347,93.784,65.281"/>
		</g>
	</g>
</g>
</svg>
