<svg xmlns="http://www.w3.org/2000/svg" width="251.741" height="252"><path d="M297.416 215.81c-56.506 0-107.644 23.22-144.698 60.555-37.197 37.48-60.205 89.192-60.205 145.925 0 56.53 22.863 107.395 59.845 144.158 37.097 36.877 88.411 59.572 145.12 59.572 56.701 0 107.974-22.681 145.035-59.542 36.956-36.756 59.79-87.62 59.79-144.157 0-56.736-23.007-108.458-60.204-145.947-37.05-37.34-88.18-60.565-144.683-60.565zM149.11 272.776c37.98-38.27 90.394-62.07 148.305-62.07 57.908 0 110.314 23.806 148.29 62.08 38.121 38.42 61.699 91.413 61.699 149.534 0 57.94-23.412 110.078-61.305 147.765-37.991 37.785-90.533 61.037-148.622 61.037-58.096 0-110.68-23.266-148.707-61.067-37.919-37.694-61.36-89.833-61.36-147.766 0-58.118 23.579-111.101 61.7-149.513z" style="fill:#1b1918;fill-rule:evenodd" transform="translate(-3.868 -57.488) scale(.4359)"/><path d="m464.57 634.226-32.387-36.857 9.909-8.461c2.875-2.455 5.09-4.082 6.627-4.898 1.548-.82 3.043-1.307 4.396-1.48 1.654-.212 3.503.216 5.027 1.052 1.514.83 3.023 2.382 4.463 4.073 1.766 2.075 3.287 3.494 3.6 5.514.321 2.07.102 4.42-1.106 6.642 4.897-2.232 7.06-.732 10.914 3.427 2.445 2.64 8.41 10.967 11.482 11l-8.241 7.198c-1.28.152-2.413-.666-3.205-1.408-2.138-2.003-3.96-4.168-5.791-6.075-2.093-2.18-4.098-5.167-5.324-5.524-1.217-.355-2.598-.099-4.263 1.318l-1.606 1.367 13.84 15.692zm-10.778-29.428c.133-.113.31-.25.53-.41a8.7 8.7 0 0 0 .488-.373c1.612-1.373 2.672-2.652 2.653-3.93-.018-1.263-1.09-2.611-2.509-4.28-1.31-1.539-2.176-2.339-3.4-2.411-1.222-.073-2.391.72-4.004 2.092a8.732 8.732 0 0 0-.446.42 9.028 9.028 0 0 1-.49.46zm-39.679 33.812-6.451-10.676c-1.369-2.266-1.978-4.808-2.026-6.516-.067-2.432.464-4.6 1.63-6.55 1.165-1.948 3.093-3.943 5.493-5.473 2.417-1.54 5.167-2.616 7.4-2.834 2.235-.219 4.598.225 6.78 1.3 1.566.773 3.492 2.134 4.95 4.342l7.002 10.608c3.112 4.713 5.546 8.218 6.64 10.64 1.094 2.422 1.7 4.672 1.74 6.417.058 2.405-.718 4.635-1.874 6.585-1.153 1.946-3.173 3.618-5.574 5.15-2.4 1.53-4.733 2.408-6.992 2.643-2.265.226-4.484-.2-6.651-1.266-1.526-.767-3.374-2.027-4.884-4.171zm17.683-5.927-4.704-6.96-4.836-7.57c-1.308-2.049-3.418-2.28-4.777-1.413-1.326.845-1.623 2.976-.54 4.634l4.782 7.324 4.821 7.546 4.196 6.386c1.469 2.235 3.361 2.478 4.721 1.612 1.344-.857 1.852-2.174 1.307-3.544-.52-1.308-2.065-3.716-4.97-8.015zM386.61 677.04l-18.58-45.3 10.171-4.202c3.431-1.418 5.825-2.494 7.597-2.867 1.762-.372 3.962-.56 5.401-.292 1.896.355 4.002 1.28 5.603 2.89 1.594 1.6 2.91 4.213 4.042 6.886 1.868 4.41 2.732 8.818 1.544 12.019-1.187 3.2-4.318 5.08-9.195 7.144l-3.33 1.41 7.313 17.646zm-.192-30.449a20.1 20.1 0 0 0 .508-.147c.197-.06.451-.156.791-.3 1.88-.796 3.37-1.398 3.804-2.703.434-1.304-.254-3.365-1.148-5.479-.74-1.747-2.172-3.705-3.445-3.79-1.485-.098-2.218.337-4.293 1.216l-.814.345zm-47.389 25.268 10.943-2.294c.31 2.681.826 5.018 1.867 6.394.729.963 2.656 1.417 3.937.993 1.024-.338 2.268-1.123 2.608-2.082.342-.966.298-2.095-.268-3.368-1-2.247-3.093-3.35-6.758-5.22-4.54-2.314-7.666-3.777-9.203-4.69-1.16-.689-3.057-1.841-4.024-2.968-.993-1.156-1.769-2.822-2.302-4.433-1.296-3.92-1.36-7.586.007-10.517 1.369-2.931 5.283-5.621 8.973-6.842 4.021-1.33 7.979-1.564 10.906-.223 5.32 2.436 6.898 5.616 7.674 10.142.055.32.502 2.341.562 2.52l-10.543 2.677-.419-1.76c-.49-2.067-.67-3.702-1.974-4.517-1.032-.646-1.893-1.051-2.973-.694-.913.302-1.904.907-2.228 1.794-.325.894-.514 1.905-.129 3.069 1.018 3.077 6.935 4.915 9.956 6.245 3.91 1.721 6.51 3.115 8.053 4.318 2.115 1.65 3.57 3.464 4.662 6.05.793 1.878 2.301 6.76.16 11.01-1.54 3.055-3.982 5.582-7.932 7.285-4.079 1.758-11.146 1.784-14.03.163-2.887-1.622-5.041-3.842-6.559-8.428-.01-.033-.76-3.786-.966-4.624zm-40.802 20.405 4.88-49.5 15.011-1.366 13.422 47.76-11.793 1.47-1.825-8.87-8.132.677-.265 8.866zm11.81-18.132 6.249-.5-4.106-22.94-.902.056z" style="fill:#231f20;fill-rule:evenodd" transform="translate(-3.868 -57.488) scale(.4359)"/><path d="M299.965 136.446c7.217 13.708 16.361 31.153 25.54 48.663 66.616 127.09 136.274 259.982 216.939 380.73l1.049 1.57-4.079 4.966-1.96-2.416c-31.952-39.399-68.951-71.928-111.115-94.026-38.54-20.198-81.422-30.28-128.743-30.362-45.517-.08-89.52 8.823-130.568 30.398-39.437 20.727-76.165 51.849-108.912 94.123l-2.667 3.442-3.229-7.668.78-1.139c76.273-111.475 141.31-235.661 205.917-359.026 12.388-23.655 24.765-47.288 36.364-69.221l.573-1.085 3.234-.616zM321 187.46c-7.34-14.001-14.623-27.896-23.373-44.526-11.893 22.513-23.042 43.801-34.206 65.118-60.32 115.181-121.017 231.075-190.863 336.712 28.364-31.768 59.3-56.061 92.097-73.3 41.795-21.966 86.597-31.056 132.94-30.976 48.189.083 91.854 10.375 131.095 30.94 34.836 18.258 66.167 43.484 94.065 73.742C448.46 430.624 383.396 306.5 321 187.46Z" style="fill:#1b1918;fill-rule:evenodd" transform="translate(-3.868 -57.488) scale(.4359)"/><path d="m172.953 660.372 28.908-40.477 13.693 6.3-12.175 48.093-10.955-4.606 2.84-8.599-7.388-3.467-4.65 7.555zm19.276-9.83 5.667 2.682 7.877-21.933-.81-.4zm-85.465-38.538 39.517-30.207 11.24 10.042-25.757 42.4-9.12-7.62 5.238-7.385-6.043-5.483-6.663 5.856zm21.313-3.737 4.63 4.226 13.968-18.653-.657-.621zm141.773 81.959 1.64-19.128-6.705-30.531 11.97 1.168 1.347 15.749 1.17.052 3.514-15.302 11.907.803-11.827 27.945-1.609 20.034zm-54.52-10.439 11.246-48.085 12.13 2.914 1.662 28.878.837.207L247 636.7l10.94 2.638-11.058 47.552-12.02-2.987-1.698-30.47-.718-.17-6.15 28.489zm-52.807-24.433-19.792-12.861 26.735-40.903 9.35 6.082-21.455 33.081 10.332 6.436zm101.026-73.244h7.5v-31.5l-6.286-.009c-2.001 2.527-3.136 3.37-6.248 3.381l.002 4.547 5.032-.014zm20.794-32.07c-4.133.068-8.796 2.707-8.796 6.186v10.233c0 2.626 2.02 6.106 4.524 6.109l3.195.004c1.645.002 2.517-1.076 3.032-1.504l-.003 3.991c-.001 1.224-.531 2.088-1.797 2.112-1.36.026-2.019-.727-2.02-2.666l-6.602-.172c-.015 6.11 3.253 8.266 8.343 8.172 4.959-.093 8.745-2.647 8.752-6.923l.03-19.563c.005-3.41-4.499-6.048-8.658-5.98zm.034 5.604c-.875 0-1.907.69-1.907 1.5l.003 8.203c0 1.16.98 1.826 1.81 1.813.898-.015 1.782-.742 1.782-1.641v-8.203c0-.774-.865-1.674-1.688-1.672zm16.046-4.834h7.64c.039 5.194-2.959 11.625-7.42 18.653l-.004 1.063 4.57-.005-.014-4.706c1.851-2.694 3.431-5.692 4.2-8.887h2.906l.01 13.614 2.21.001.006 5.707-2.252-.008-.012 5.824-6.963-.008-.008-5.668-9.412.004-.007-6.797c2.18-5.755 4.036-11.949 4.55-18.787zm24.497-.832c-5.868-.014-8.349 2.606-8.4 8.194-.03 3.294.285 5.968 3 7.05-3.235 1.752-3.28 3.833-3.262 8.137.03 6.71 3.21 9.54 9.038 9.487 6.134-.055 8.838-3.428 8.85-9.937.007-3.557-.296-6.743-3.75-7.763 3.131-1.06 3.537-3.79 3.525-7.125-.02-5.411-2.73-8.028-9-8.043zm.235 5.511c-1.293-.017-1.883 1.498-1.903 3.319-.026 2.44.502 3.917 1.969 3.938 1.464.02 2.069-1.349 2.062-3.882-.005-1.988-.74-3.357-2.128-3.375zm.066 12.47c-1.656.014-1.981 2.9-1.988 4.556-.007 1.75.2 4.892 1.95 4.875 1.743-.017 1.924-2.888 1.931-4.632.006-1.616-.278-4.815-1.893-4.8z" style="fill:#231f20;fill-rule:evenodd" transform="translate(-3.868 -57.488) scale(.4359)"/><path d="M297.308 465.757c-21.54 0-41.04 8.73-55.154 22.846a78.33 78.33 0 0 0-11.41 14.475c1.438.639 2.781 1.257 4.109 1.867 3.33 1.53 6.561 3.014 10.203 4.37.347.128.603.16.778.124.043-.009.07-.02.078-.03a.215.215 0 0 0 .037-.113.676.676 0 0 0-.082-.379c-.373-.72-.857-1.48-1.396-2.235a35.206 35.206 0 0 0-2.071-2.6c-.912-1.048-1.228-2.134-1.1-3.095a2.963 2.963 0 0 1 .896-1.77 3.48 3.48 0 0 1 1.645-.872c1.222-.286 2.854-.04 4.495 1.023l13.763 8.925c.806.523 1.657.711 2.411.649.505-.042.954-.195 1.298-.43.279-.19.483-.435.573-.71.083-.252.076-.557-.05-.903l-1.247-3.431c-1.153-3.175-.845-5.147.759-6.116 1.337-.808 3.44-.502 6.222.702 3.086 1.335 5.894 2.96 8.711 4.591 1.016.588 2.037 1.18 2.55 1.469l-1.662 2.95c-1.209-.683-1.898-1.082-2.589-1.482-2.759-1.597-5.508-3.189-8.352-4.42-1.74-.752-2.822-1.083-3.126-.9-.036.022.175.67.676 2.05l1.247 3.431c.405 1.114.4 2.177.09 3.122-.33 1.002-1 1.843-1.89 2.45-.823.565-1.838.925-2.93 1.015-1.443.12-3.046-.226-4.538-1.194l-13.763-8.924c-.69-.448-1.285-.616-1.708-.584.046.06.107.134.183.22.752.865 1.54 1.842 2.271 2.867a22.389 22.389 0 0 1 1.648 2.648c.382.737.523 1.54.441 2.292a3.602 3.602 0 0 1-.834 1.96 3.475 3.475 0 0 1-1.965 1.146c-.763.158-1.657.099-2.651-.271-3.764-1.4-7.047-2.909-10.43-4.463a358.966 358.966 0 0 0-4.416-2.005c-6.193 11.183-9.72 24.047-9.72 37.735 0 18.267 6.28 35.067 16.798 48.36l.02-.062c1.34.44 3.03 1.014 4.711 1.583 3.164 1.071 6.328 2.144 9.35 3.06.909.275 1.614.28 2.067.111a.736.736 0 0 0 .129-.06 5.582 5.582 0 0 0-.653-1.212 12.156 12.156 0 0 0-1.034-1.244c-.856-.927-1.347-2.003-1.42-2.976-.05-.702.103-1.366.475-1.936.378-.578.951-1.012 1.729-1.238.951-.276 2.256-.204 3.907.413 2.903 1.085 5.462 2.842 8.007 4.59l.003-.004c1.188.816 2.375 1.631 3.6 2.371.86.518 1.715.883 2.559 1.112a8.49 8.49 0 0 0 2.573.299c.97-.039 2.035-.193 2.797-.613.509-.28.87-.745.863-1.498-.007-.611-.28-1.349-.553-2.088-.26-.704-.522-1.41-.664-2.215-.135-.76-.13-1.434 0-2.02.202-.912.683-1.578 1.397-2.01.633-.385 1.384-.534 2.218-.462.83.07 1.785.365 2.81.862 2.747 1.331 5.364 2.815 7.983 4.3 2.211 1.255 4.426 2.511 6.724 3.672 1.335.674 2.64.944 3.765.933 1.173-.01 2.085-.303 2.54-.73.203-.19.305-.448.32-.735.024-.446-.125-.963-.414-1.48-.507-.907-.87-2.066-.898-3.103-.02-.733.115-1.438.456-2.033.415-.723 1.069-1.245 2.018-1.442.673-.14 1.48-.094 2.435.205 3 .94 6.89 2.85 10.876 4.808 2.397 1.177 4.83 2.372 7.15 3.386a8.639 8.639 0 0 0 2.21.66 8.033 8.033 0 0 0 2.47-.03c.788-.125 1.477-.351 1.934-.668.188-.131.306-.25.313-.34a1.105 1.105 0 0 0-.218-.742c-.253-.357-.686-.693-1.272-.999-.902-.471-1.773-1.184-2.206-1.903-.334-.555-.477-1.156-.357-1.779.134-.689.54-1.264 1.295-1.655.705-.365 1.86-.56 3.621-.446 2.84.185 5.39.702 7.923 1.45 2.464.726 4.92 1.679 7.633 2.757l-1.25 3.15c-2.605-1.037-4.966-1.952-7.34-2.653-2.16-.636-4.325-1.089-6.7-1.28a6.05 6.05 0 0 1 1.417 1.391c.632.889.93 1.886.843 2.975-.096 1.203-.758 2.158-1.776 2.864-.882.612-2.06 1.025-3.328 1.227-1.272.202-2.417.203-3.494.043-1.075-.16-2.08-.478-3.074-.913-2.298-1.005-4.809-2.238-7.282-3.452-3.845-1.888-7.597-3.731-10.397-4.609a3.184 3.184 0 0 0-.512-.124v.059c.014.487.205 1.069.473 1.549.595 1.064.897 2.214.84 3.3-.06 1.147-.5 2.206-1.384 3.034-1.032.968-2.785 1.628-4.838 1.647-1.62.014-3.47-.359-5.32-1.292-2.347-1.185-4.61-2.47-6.87-3.752-2.558-1.45-5.113-2.9-7.785-4.194-.646-.313-1.195-.494-1.612-.53l-.045-.005c0 .134.018.308.056.525.09.507.298 1.069.505 1.63.37.999.738 1.997.752 3.217v.006c.026 2.255-1.069 3.654-2.617 4.508-1.297.716-2.894.969-4.298 1.025a11.875 11.875 0 0 1-3.596-.406 13.447 13.447 0 0 1-3.422-1.484c-1.26-.76-2.51-1.618-3.76-2.478v-.006c-2.368-1.626-4.747-3.26-7.28-4.207-.648-.242-1.125-.353-1.455-.365.087.187.236.402.445.628.462.5.902 1.015 1.312 1.602a8.93 8.93 0 0 1 1.062 1.993c.278.743.297 1.479.091 2.158a3.238 3.238 0 0 1-.864 1.401c-.364.35-.822.635-1.359.837-1.089.407-2.559.462-4.232-.045-3.068-.93-5.96-1.903-8.837-2.877.586.625 1.18 1.242 1.786 1.847 14.115 14.115 33.615 22.846 55.155 22.846s41.04-8.73 55.154-22.846c14.115-14.115 22.845-33.615 22.845-55.154 0-6.752-.858-13.304-2.471-19.553l-1.945 2.702a101.182 101.182 0 0 0-9.571-6.083 106.999 106.999 0 0 0-9.881-4.878c-.814-.352-1.484-.486-1.98-.445-.184.014-.305.045-.36.086h.01c-.02.14.021.347.129.62.12.305.268.62.41.927l-.005.003c.251.539.495 1.063.684 1.67.22.706.278 1.364.2 1.97a3.587 3.587 0 0 1-1.03 2.117c-.5.504-1.147.872-1.896 1.105-.986.306-2.185.377-3.458.213-2.832-.364-5.599-1.316-8.347-2.26-1.165-.4-2.326-.8-3.48-1.15l-.25-.074c.113.11.223.224.33.342h.008c.303.332.584.702.825 1.083.495.782.72 1.524.716 2.216-.008 1.157-.567 2.024-1.544 2.624-.686.421-1.597.684-2.653.799-2.34.254-5.665-.209-8.706-1.252-3.296-1.131-6.527-2.648-9.745-4.158-1.724-.809-3.443-1.616-5.26-2.394-.904-.275-1.573-.347-2.01-.264.047.16.149.363.307.603.348.53.665 1.12.892 1.75.214.583.347 1.203.362 1.847.02.965-.151 1.785-.479 2.474-.454.956-1.172 1.63-2.07 2.067-.782.38-1.692.561-2.668.583-1.98.044-4.31-.596-6.277-1.531-2.23-1.06-4.418-2.303-6.607-3.546-2.324-1.32-4.652-2.643-6.966-3.704-1.191-.546-2.088-.828-2.69-.851l-.04-.004c-.015.408.11 1.007.373 1.795l.007.027c.335 1 .678 2.024.754 3.18.076 1.147-.06 2.226-.458 3.15a4.45 4.45 0 0 1-1.597 1.96h-.006c-.697.475-1.553.771-2.583.84-1.46.096-3.33-.275-5.67-1.283-3.203-1.377-6.28-3.1-9.322-4.805-1.668-.935-3.327-1.864-4.886-2.673-.87-.451-1.51-.6-1.908-.542.093.195.309.449.668.744.545.45 1.002.974 1.375 1.548.386.594.686 1.244.905 1.918.682 2.092.316 3.54-1.2 4.385-1.064.593-2.7.623-4.978.119l-.14-.033-16.95-5.326 1.01-3.242 16.924 5.317c1.369.297 2.19.366 2.486.202.149-.083-.272-.044-.379-.373v-.007a4.693 4.693 0 0 0-.522-1.113 3.406 3.406 0 0 0-.684-.777c-1.313-1.081-1.925-2.34-1.956-3.46a3.07 3.07 0 0 1 .564-1.895 3.237 3.237 0 0 1 1.586-1.171c1.172-.414 2.836-.305 4.754.69 1.726.896 3.355 1.808 4.993 2.726 2.958 1.656 5.95 3.333 9.001 4.646 1.82.782 3.164 1.078 4.116 1.015.396-.026.69-.114.891-.25l-.002-.003c.168-.114.296-.286.388-.5.177-.412.234-.963.192-1.595-.048-.724-.317-1.53-.58-2.317l-.007-.027c-.433-1.29-.608-2.38-.528-3.26.088-.978.467-1.74 1.132-2.283.626-.51 1.426-.748 2.398-.712 1.051.04 2.379.424 3.977 1.157 2.477 1.136 4.856 2.487 7.233 3.837 2.122 1.206 4.244 2.41 6.381 3.427 1.552.737 3.328 1.244 4.762 1.212.494-.011.927-.09 1.258-.25a.981.981 0 0 0 .478-.46c.11-.233.168-.55.159-.96a2.427 2.427 0 0 0-.16-.758v-.006a5.058 5.058 0 0 0-.536-1.038c-.577-.877-.872-1.744-.898-2.532-.026-.818.22-1.546.724-2.139.465-.545 1.117-.928 1.942-1.106.987-.214 2.285-.13 3.846.357l.072.022.087.038c1.764.753 3.608 1.619 5.455 2.485 3.09 1.45 6.194 2.907 9.414 4.012 2.6.892 5.365 1.297 7.244 1.092.462-.05.836-.132 1.093-.248l-.124-.208a4.417 4.417 0 0 0-.466-.605l.004-.003a3.629 3.629 0 0 0-.51-.461c-1.417-1.052-2.284-1.982-2.64-2.738-.384-.82-.351-1.573.08-2.242.37-.575.968-.932 1.776-1.06.989-.154 2.592.06 4.696.697 1.19.359 2.394.773 3.6 1.188 2.612.898 5.242 1.802 7.67 2.114.797.103 1.503.072 2.036-.094.22-.068.388-.154.488-.254.04-.04.065-.09.073-.15.017-.133-.008-.313-.08-.548-.126-.406-.317-.815-.513-1.235h-.007a20.462 20.462 0 0 1-.49-1.113c-.329-.83-.429-1.62-.328-2.333a3.314 3.314 0 0 1 1.194-2.15c.594-.487 1.359-.788 2.252-.86 1.015-.084 2.24.128 3.587.71a110.444 110.444 0 0 1 10.2 5.037 104.619 104.619 0 0 1 9.831 6.253c-3.54-13.646-10.681-25.841-20.35-35.51-14.114-14.114-33.614-22.844-55.154-22.844zm21.73 44.186-.676-.914c-1.166-1.57-2.01-2.706-3.226-4.7-.677-1.11-.884-2.177-.746-3.073a3.112 3.112 0 0 1 .872-1.744 3.137 3.137 0 0 1 1.716-.877c.895-.153 1.954.037 3.023.675.969.577 1.811 1.094 2.647 1.607 5.402 3.314 10.532 6.461 16.367 6.216.374-.015.867-.108 1.26-.312a1.01 1.01 0 0 0 .218-.14 1.3 1.3 0 0 0-.145-.37c-.49-.943-1.38-1.767-2.26-2.582-.336-.311-.67-.62-.865-.811h-.007c-1.009-.987-1.582-2.013-1.791-2.96-.177-.801-.1-1.554.192-2.21a3.278 3.278 0 0 1 1.526-1.593c.745-.385 1.684-.548 2.744-.415 2.74.344 6.038 1.438 9.396 2.823 3.294 1.36 6.629 2.989 9.536 4.454l-1.528 3.03c-2.867-1.445-6.139-3.045-9.297-4.348-3.094-1.277-6.097-2.28-8.52-2.584-.347-.044-.601-.024-.755.045l.014.067c.072.327.345.754.862 1.26l-.003.002c.344.337.57.547.795.755 1.11 1.028 2.233 2.068 2.977 3.499.335.645.495 1.257.52 1.832a3.21 3.21 0 0 1-.632 2.086c-.374.51-.868.894-1.41 1.176-.864.449-1.911.651-2.695.684-6.862.289-12.417-3.12-18.266-6.708a258.937 258.937 0 0 0-2.62-1.594 1.916 1.916 0 0 0-.489-.219 2.2 2.2 0 0 0 .26.561c1.145 1.878 1.947 2.958 3.053 4.448l.69.927zm19.675-10.813c.003-.007.005-.01 0 0zm-110 41.003a11.655 11.655 0 0 0 4.532 1.482c1.55.166 3.062-.007 4.382-.496h.007c.086-.032.148-.058.183-.079v-.006c.063-.035.087-.032.09-.04a.665.665 0 0 0-.047-.148l-.02-.052a26.46 26.46 0 0 1-.576-.615l-.003.003c-.311-.34-.595-.65-.984-.973-1.112-.925-1.749-1.82-1.97-2.581-.205-.7-.126-1.343.21-1.903.322-.54.83-.909 1.501-1.085.8-.21 1.951-.122 3.325.35 1.527.526 3.029 1.061 4.532 1.597 5 1.785 10.03 3.579 14.834 4.603.724.155 1.326.152 1.779.036.187-.048.327-.11.416-.179-.158-.605-.318-1.02-.527-1.37-.216-.364-.546-.749-1.02-1.264-1.021-1.113-1.51-2.238-1.582-3.234a3.284 3.284 0 0 1 .527-2.075v-.007c.384-.582.95-1.022 1.654-1.285.94-.348 2.137-.365 3.439.075 3.436 1.16 6.629 2.706 9.781 4.233 3.182 1.541 6.323 3.063 9.468 4.065.98.313 2.214.506 3.276.454.49-.024.91-.1 1.181-.243l-.034-.13c-.29-.958-.986-1.813-1.697-2.686-.384-.47-.771-.946-1.12-1.442-.637-.909-.932-1.806-.937-2.619a3.018 3.018 0 0 1 .735-2.039c.444-.513 1.056-.878 1.802-1.059.958-.232 2.185-.154 3.556.337l.002-.006c3.984 1.427 7.813 3.315 11.63 5.197 1.894.933 3.787 1.866 5.595 2.695a7.603 7.603 0 0 0 2.395.648 9.51 9.51 0 0 0 2.738-.137c.843-.16 1.294-.303 1.368-.437l-.362-.565a24.086 24.086 0 0 0-.792-.9c-.68-.75-1.36-1.498-1.946-2.538l.005-.003c-.64-1.14-.874-2.154-.794-2.988.073-.762.382-1.387.88-1.857.476-.448 1.091-.715 1.802-.787.898-.091 1.991.156 3.122.781a335.796 335.796 0 0 1 6.816 3.905c3.49 2.037 6.95 4.057 10.447 5.84.908.462 1.794.82 2.645 1.036.8.205 1.561.287 2.268.216.233-.024.459-.059.671-.107.477-.107.862-.266 1.076-.48.107-.108.162-.275.139-.513a1.932 1.932 0 0 0-.037-.216 16.619 16.619 0 0 0-.638-2.16 17.042 17.042 0 0 0-.983-2.153c-.416-.771-.575-1.5-.528-2.168a3.049 3.049 0 0 1 1.101-2.166c.529-.45 1.21-.752 1.973-.896 1.088-.204 2.414-.09 3.684.381 3.925 1.458 7.843 2.939 11.667 4.605 3.887 1.693 7.688 3.575 11.319 5.81l-1.78 2.896c-3.52-2.165-7.172-3.976-10.895-5.597-3.786-1.65-7.638-3.106-11.494-4.538-.679-.252-1.353-.32-1.877-.222a1.536 1.536 0 0 0-.28.077c.02.055.053.125.1.21a20.52 20.52 0 0 1 1.169 2.579 19.8 19.8 0 0 1 .77 2.598c.049.213.083.423.103.628.137 1.357-.298 2.423-1.108 3.236-.702.705-1.663 1.156-2.736 1.398a9.08 9.08 0 0 1-1.084.173c-1.132.113-2.281 0-3.438-.295-1.105-.282-2.225-.73-3.349-1.303-3.6-1.835-7.094-3.875-10.618-5.932-2.325-1.357-4.662-2.721-6.75-3.878a3.74 3.74 0 0 0-.672-.3c.06.15.146.325.26.528h.008c.398.707.946 1.31 1.494 1.914.316.348.634.698.971 1.117l.048.06.052.08c1.011 1.56 1.212 2.92.547 4.129-.593 1.077-1.818 1.778-3.72 2.137-1.221.23-2.466.305-3.707.176a10.973 10.973 0 0 1-3.459-.94c-1.97-.903-3.827-1.818-5.686-2.735-3.704-1.825-7.417-3.656-11.273-5.037v-.006c-.649-.233-1.163-.305-1.519-.25.05.126.143.289.282.487.312.444.644.852.973 1.256.932 1.143 1.844 2.264 2.322 3.842a3.91 3.91 0 0 1 .163 1.581c-.133 1.186-.794 2.006-1.784 2.532-.728.387-1.644.583-2.623.632-1.452.072-3.13-.19-4.458-.614-3.426-1.093-6.652-2.655-9.92-4.238-3.069-1.486-6.178-2.992-9.382-4.074-.512-.172-.904-.203-1.151-.124.035.275.25.658.688 1.136.6.654 1.042 1.182 1.431 1.835.39.656.666 1.351.91 2.308h.008c.132.518.14 1.03.036 1.523a3.293 3.293 0 0 1-1.086 1.81v.007c-.481.418-1.1.739-1.83.925-.92.235-2.052.26-3.32-.01-5.03-1.073-10.163-2.903-15.266-4.723h-.007c-1.064-.379-2.127-.758-3.176-1.126l.203.22v.007c.176.192.363.396.662.69l.175.172.11.193c.137.239.252.483.344.732.317.855.329 1.687.06 2.446-.276.773-.82 1.411-1.605 1.861l-.003-.005a4.66 4.66 0 0 1-.692.328c-1.8.669-3.842.906-5.923.684a15.064 15.064 0 0 1-5.862-1.908zm32.204-.058c0 .008-.002.011 0 0 .002-.006.002-.004 0 0zm-.004.012-.003.006h.005zm.215-6.118c-.002.003-.002.003 0 0zm25.982 5.483c-.001.042-.004.084 0 .04zm-9.417-20.083c-.032.026-.013.014.017-.005-.004-.002-.01-.001-.017.005zm71.402-3.78c-.007.006.003 0 .01-.003zm-78.909 97.217c-.44-.66-.884-1.43-1.33-2.206a50.078 50.078 0 0 0-.918-1.548l-.003.002c-.573-.914-.825-1.805-.817-2.6a3.23 3.23 0 0 1 .687-2.009 3.268 3.268 0 0 1 1.765-1.13c.772-.202 1.686-.174 2.657.146 1.336.44 2.925 1.218 4.724 2.098 3.392 1.659 7.591 3.713 12.039 4.285l.646.084c1.72.229 3.3.438 4.129.053a6.163 6.163 0 0 0-.449-.518c-.54-.572-1.192-1.061-1.886-1.58-.621-.466-1.272-.955-1.963-1.574-.932-.836-1.466-1.623-1.676-2.339-.254-.863-.111-1.623.352-2.275.375-.525.932-.902 1.622-1.136 1.049-.355 2.573-.401 4.212-.144 2.972.467 6.079 1.532 9.135 2.881 2.977 1.315 5.96 2.928 8.728 4.52 1.07.614 2.06 1.005 2.856 1.112.35.047.614.038.767-.036.02-.01.041-.052.064-.132.067-.24.07-.6-.005-1.092v-.006c-.066-.427-.324-.876-.599-1.355-.397-.691-.819-1.425-1.086-2.457-.237-.911-.354-1.777-.3-2.527.06-.826.32-1.552.828-2.127.551-.624 1.31-.99 2.316-1.024.613-.02 1.318.09 2.122.357 1.87.618 3.874 1.485 5.886 2.468 1.908.93 3.926 2.027 5.871 3.126l-1.661 2.95a106.842 106.842 0 0 0-5.698-3.02c-1.89-.923-3.753-1.73-5.46-2.296a3.708 3.708 0 0 0-.815-.192c-.027.378.048.875.193 1.435.155.6.457 1.126.74 1.62.447.775.864 1.503 1.023 2.53.153.98.113 1.821-.086 2.528-.306 1.086-.953 1.831-1.857 2.27-.772.376-1.69.479-2.695.343-1.224-.165-2.642-.705-4.091-1.538-2.638-1.517-5.499-3.062-8.41-4.347-2.833-1.251-5.663-2.23-8.284-2.642-.718-.113-1.367-.153-1.883-.116l.15.137c.576.517 1.17.963 1.737 1.387.825.618 1.602 1.2 2.325 1.966.77.814 1.346 1.69 1.478 2.633.176 1.265-.313 2.369-1.841 3.181-1.755.932-3.894.649-6.227.339l-.64-.084c-5.002-.646-9.478-2.836-13.095-4.605-1.646-.806-3.101-1.517-4.299-1.912-.273-.09-.49-.123-.65-.108.027.169.12.391.292.665v.007c.372.593.68 1.128.986 1.66.364.63.725 1.257 1.225 2.006zm23.705-2.617c.015.08.024.13.012.047zm-55.345-125.194c15.039-15.038 35.814-24.34 58.762-24.34 22.947 0 43.723 9.302 58.761 24.34 15.039 15.038 24.34 35.814 24.34 58.762 0 22.947-9.301 43.723-24.34 58.761-15.038 15.039-35.814 24.34-58.761 24.34-22.948 0-43.723-9.301-58.762-24.34-15.038-15.038-24.34-35.814-24.34-58.761 0-22.948 9.302-43.723 24.34-58.762z" style="fill:#231f20;fill-rule:evenodd" transform="translate(-3.868 -57.488) scale(.4359)"/><path d="M297.42 324.208c9.251 10.242 15.45 21.658 19.5 33.9l22.8-.3c5.865 20.008 6.78 39.843 4.818 57.675l-70.218-44.775c4.546-18.654 11.754-34.646 23.1-46.5zm-46.875 59.139 69.6 44.588c-4.423 17.713-10.693 33.969-22.723 45.677-7.627-7.315-14.573-17.357-19.8-34.275l-20.85 2.4c-6.3-17.736-8.728-37.055-6.227-58.39z" style="fill:#fff200;fill-rule:evenodd" transform="translate(-3.868 -57.488) scale(.4359)"/><path d="M297.422 284.535c34.765 22.77 56.415 67.51 56.38 113.77-.025 31.474-12.092 82.678-56.38 111.68-36.056-23.005-56.934-70.472-56.786-113.777-.557-49.22 23.742-91.248 56.786-111.673z" style="fill:none" transform="translate(-3.868 -57.488) scale(.4359)"/><path d="M274.32 370.708c4.546-18.654 11.754-34.646 23.1-46.5 9.251 10.242 15.45 21.658 19.5 33.9l22.8-.3c5.865 20.008 6.78 39.843 4.818 57.675zm23.102-86.173c-33.044 20.425-57.343 62.453-56.786 111.673-.148 43.305 20.73 90.772 56.785 113.776 44.29-29 56.356-80.205 56.38-111.678.036-46.261-21.614-91-56.379-113.771zm-46.877 98.812 69.6 44.588c-4.423 17.713-10.693 33.969-22.723 45.677-7.627-7.315-14.573-17.357-19.8-34.275l-20.85 2.4c-6.3-17.736-8.728-37.055-6.227-58.39z" style="fill:#231f20;fill-rule:evenodd" transform="translate(-3.868 -57.488) scale(.4359)"/><path d="M237.263 540.178zm20.74 3.334c-5.029-1.073-10.162-2.903-15.265-4.723l-3.183-1.126c.79.857 1.112.979 1.494 2.013.634 1.715.032 3.404-1.545 4.307l-.003-.005c-1.681.965-4.553 1.232-6.615 1.012a15.064 15.064 0 0 1-5.862-1.908l1.688-2.95a11.655 11.655 0 0 0 4.533 1.483c1.55.166 3.062-.007 4.382-.496l.19-.079v-.006l.022-.24-.58-.612c-1.173-1.28-2.522-2.074-2.954-3.555-.401-1.378.34-2.627 1.712-2.987.8-.21 1.951-.122 3.325.35 6.345 2.182 13.09 4.862 19.366 6.2.72.154 1.763.195 2.195-.143-.327-1.254-.643-1.65-1.546-2.634-1.022-1.113-1.512-2.238-1.583-3.234-.196-2.748 2.52-4.338 5.62-3.292 6.775 2.286 12.987 6.302 19.249 8.299 1.036.33 3.435.745 4.457.21-.637-2.42-3.771-4.095-3.788-6.877-.018-2.866 3.017-3.863 6.093-2.761l.002-.006c5.962 2.136 11.53 5.283 17.224 7.892 1.635.748 3.384.841 5.134.51.843-.158 1.294-.302 1.368-.436-1.027-1.605-2.035-2.116-3.1-4.003l.005-.003c-2.378-4.224.933-7.108 5.01-4.85 5.941 3.29 11.407 6.76 17.263 9.744 1.75.892 3.714 1.566 5.584 1.145.918-.206 1.348-.453 1.178-1.209l-1.621-4.312c-1.976-3.663 1.741-6.516 6.23-4.85 7.926 2.943 15.756 5.966 22.986 10.415l-1.78 2.896c-7.05-4.338-14.69-7.277-22.39-10.135l-2.157-.145 1.27 2.789c.797 2.142 1.589 4.632-.235 6.462-1.775 1.782-4.944 1.867-7.258 1.276-1.105-.282-2.225-.73-3.349-1.303-5.809-2.961-11.744-6.695-17.369-9.81a3.74 3.74 0 0 0-.671-.3c.06.15.146.325.26.528h.008c.722 1.28 2.047 2.371 2.565 3.17 2.075 3.204.56 5.563-3.172 6.267-2.43.458-4.876.286-7.167-.764-5.662-2.595-11.17-5.699-16.959-7.772v-.006c-.649-.233-1.163-.305-1.519-.25.486 1.234 4.077 4.183 3.74 7.166-.44 3.897-6.08 3.439-8.865 2.55-6.65-2.12-12.692-6.081-19.302-8.311-.512-.173-.904-.203-1.151-.125.149 1.15 2.118 1.718 3.03 5.28h.007c.317 1.244-.076 2.482-1.05 3.332v.007c-1.309 1.138-3.285 1.313-5.15.915zm16.956-16.789zm54.933-3.37zm19.21-7.77c0 .001-.002.002-.002.005.001-.001.003-.001.002-.004zm-94.86 14.071c-.996.556-2.995.67-5.117.086l-16.95-5.325 1.01-3.242 16.923 5.316c1.37.298 2.191.367 2.487.202l-.379-.38-1.206-1.89c-4.309-3.547-.978-8.91 4.947-5.835 4.673 2.424 9.235 5.324 13.995 7.371 1.768.76 4.05 1.411 5.005.763.556-.378.628-1.357.58-2.095-.125-1.9-2.504-5.833.017-7.887 1.657-1.35 4.212-.547 6.375.445 4.682 2.146 9.041 5.09 13.614 7.263 1.616.768 4.548 1.678 6.02.962.533-.26.65-.775.636-1.419-.03-1.423-1.529-2.341-1.593-4.335-.053-1.659 1.03-2.891 2.666-3.245.849-.184 2.715-.135 4.005.417 4.885 2.09 9.82 4.764 14.868 6.497 2.482.852 6.665 1.598 8.338.844l-.587-.817c-.85-.927-4.604-3.061-3.07-5.44 1.579-2.448 7.207-.16 10.073.824 1.703.586 8.81 3.16 10.193 1.767.298-.3-.366-1.604-.52-1.933h-.006c-.537-1.152-.997-2.181-.819-3.446.25-1.77 1.67-2.865 3.446-3.011 1.015-.084 2.24.129 3.588.71 7.035 3.04 13.7 6.751 20.03 11.29-5.724-22.064-20.743-40.11-40.426-50.031-8.419 13.448-19.803 25.977-34.964 35.904-13.982-8.92-25.682-21.52-34.758-36.13a78.236 78.236 0 0 0-31.92 29.224c2.176.967 14.679 6.9 15.17 6.33.461-.535-3.044-4.787-3.514-5.327-3.255-3.74 1.017-7.903 5.937-4.713l13.763 8.925c2.128 1.38 4.888.411 4.232-1.394l-1.247-3.431c-1.153-3.175-.845-5.147.759-6.116 1.336-.808 3.44-.502 6.222.702 4.016 1.737 7.709 4.055 11.26 6.06l-1.66 2.95c-3.792-2.14-7.208-4.286-10.942-5.901-1.74-.753-2.822-1.084-3.126-.901l1.923 5.481c1.777 4.891-4.249 8.648-9.268 5.394l-13.763-8.925c-.69-.448-1.285-.616-1.708-.584l2.454 3.087c1.073 1.504 2.28 3.19 2.09 4.94-.279 2.547-2.748 3.84-5.451 2.835-5.346-1.988-9.814-4.237-14.846-6.467-15.241 27.52-12.348 61.543 7.078 86.094l.02-.062 14.06 4.643c.893.27 1.78.307 2.197.051-.834-2.19-2.922-2.932-3.106-5.432-.11-1.483.717-2.743 2.203-3.174 3.396-.984 9.163 3.113 11.913 5.004l.003-.005c2.732 1.876 5.308 3.918 8.733 3.782 1.433-.057 3.678-.32 3.66-2.111-.016-1.539-1.756-3.888-1.217-6.323.39-1.763 1.875-2.622 3.615-2.472.83.07 1.784.365 2.81.862 5.083 2.463 9.689 5.438 14.707 7.972 1.96.99 5.035 1.394 6.305.204 1.133-1.063-.92-2.738-.992-5.32-.077-2.782 2.052-4.164 4.91-3.269 4.7 1.474 12.683 5.857 18.024 8.194 1.53.67 2.971.903 4.681.63.737-.117 2.214-.59 2.247-1.008.12-1.506-2.543-1.73-3.696-3.644-.75-1.247-.442-2.718.938-3.434 2.43-1.26 9.026.26 11.544 1.003 2.463.727 4.92 1.68 7.633 2.758l-1.25 3.15c-4.777-1.9-8.993-3.526-14.04-3.934 3.528 2.536 3.282 7.483-2.844 8.458-2.398.382-4.434.064-6.569-.87-3.841-1.68-15.826-7.873-18.19-8.185.022 1.564 1.443 2.431 1.313 4.908-.253 4.827-6.753 5.807-11.542 3.389-4.997-2.524-9.63-5.51-14.655-7.946l-1.657-.534c-.006 1.385 1.3 3.199 1.313 5.378.032 5.491-6.642 6.178-10.512 5.127-2.624-.712-4.907-2.399-7.182-3.962v-.006c-1.92-1.32-6.583-4.496-8.734-4.572.372.803 5.072 4.87 2.045 7.782-1.326 1.276-3.507 1.423-5.59.791-3.069-.93-5.96-1.902-8.837-2.876 30.12 32.16 80.902 33.04 112.095 1.847 19.257-19.257 27.387-47.536 20.374-74.707l-1.945 2.702c-6.092-4.376-12.633-8.016-19.452-10.962-.776-.335-1.992-.613-2.335-.358l.005.001.54 1.546-.007.003c.881 1.887 1.594 4.007-.146 5.758-1.308 1.316-3.428 1.565-5.353 1.317-4.09-.526-8.097-2.297-12.078-3.483l.331.341h.007c2.76 3.02 1.804 6.237-2.655 6.722-5.924.644-12.956-2.832-18.452-5.41-1.723-.808-3.443-1.616-5.259-2.394-.905-.275-1.573-.346-2.011-.263.198.661 1.513 2.002 1.561 4.2.073 3.263-2.081 5.054-5.216 5.124-4.298.095-9.082-2.919-12.884-5.078-2.325-1.32-7.29-4.308-9.697-4.56-.057 1.628 2.119 4.799.677 8.153a4.45 4.45 0 0 1-1.597 1.961c-.177.055-.898.726-2.59.838-1.46.097-3.33-.274-5.67-1.282-4.954-2.13-9.518-5.045-14.208-7.478-.87-.451-1.51-.6-1.908-.542.366.772 2.001 1.3 2.948 4.21.682 2.092.316 3.54-1.2 4.385zm9.307 52.456v-23.595l-5.032.014-.002-4.547c3.112-.01 4.247-.854 6.248-3.381l6.286.008v31.5zm11.998-25.884c0-3.479 4.663-6.118 8.796-6.186 4.16-.069 8.664 2.57 8.658 5.98l-.03 19.562c-.007 4.276-3.793 6.83-8.752 6.923-5.09.094-8.358-2.062-8.343-8.172l6.602.172c.002 1.94.66 2.692 2.02 2.666 1.266-.024 1.796-.887 1.797-2.112l.003-3.991c-.515.428-1.386 1.506-3.032 1.504l-3.195-.004c-2.503-.003-4.524-3.483-4.524-6.109zm64.045-55.736zm-20.555 9.453-3.901-5.614c-2.387-3.914 1.098-7.266 4.865-5.02 6.088 3.63 12.217 8.108 19.014 7.824l1.478-.453c-.146-1.044-3.274-3.761-3.276-3.762-1.01-.987-1.583-2.013-1.792-2.96-.588-2.667 1.574-4.58 4.462-4.218 5.639.707 13.704 4.642 18.932 7.278l-1.527 3.03c-4.828-2.435-12.676-6.29-17.817-6.933-.348-.044-.602-.024-.755.045l.872 1.33c1.63 1.594 4.187 3.586 4.292 6.085.11 2.62-2.508 3.853-4.737 3.947-7.877.33-14.293-4.371-20.886-8.302a1.916 1.916 0 0 0-.488-.22c.232.901 3.209 4.869 4.002 5.937zm-51.1 99.109zm2.249 3.754-2.251-3.752c-2.255-3.595.484-6.847 4.291-5.593 1.336.44 2.926 1.218 4.725 2.098 4.072 1.992 7.506 3.69 12.684 4.37 1.72.228 3.301.437 4.13.052-1.423-1.92-5.247-3.537-5.975-6.011-.472-1.605.464-2.9 1.974-3.41 3.437-1.164 9.92 1.223 13.347 2.736 2.978 1.315 5.96 2.928 8.729 4.52.94.54 2.912 1.419 3.623 1.076l.058-1.23c-.07-.926-2.216-3.138-1.984-6.339.204-2.826 2.54-3.697 5.266-2.795 3.842 1.272 8.092 3.523 11.756 5.595l-1.66 2.95c-3.292-1.86-7.602-4.138-11.16-5.316a3.708 3.708 0 0 0-.814-.193c-.148 2.084 1.643 3.564 1.957 5.586.523 3.374-1.312 5.59-4.638 5.14-1.225-.165-2.643-.705-4.092-1.538-4.844-2.784-11.232-6.131-16.694-6.989-.718-.112-1.366-.152-1.883-.116 1.876 1.717 5.33 3.547 5.69 6.124.176 1.264-.313 2.369-1.84 3.18-1.934 1.028-4.418.574-6.867.255-5.003-.646-9.479-2.836-13.095-4.604-1.258-.616-4.174-2.093-4.95-2.02l2.503 4.337zm25.686-43.21c2.182-5.754 4.037-11.948 4.55-18.786h7.641c.039 5.194-2.959 11.625-7.42 18.653l-.004 1.063 4.57-.005-.014-4.706c1.851-2.694 3.431-5.692 4.2-8.887h2.906l.01 13.614 2.21.001.006 5.707-2.252-.008-.012 5.824-6.963-.008-.008-5.668-9.412.004zm20.648-11.424c.051-5.588 2.532-8.208 8.4-8.194 6.271.015 8.981 2.632 9.001 8.043.012 3.334-.394 6.065-3.525 7.125 3.454 1.02 3.756 4.207 3.75 7.763-.012 6.509-2.716 9.883-8.85 9.938-5.828.052-9.009-2.778-9.038-9.488-.019-4.304.027-6.385 3.262-8.137-2.715-1.082-3.03-3.755-3-7.05z" style="fill:#fff;fill-rule:evenodd" transform="translate(-3.868 -57.488) scale(.4359)"/><path d="m282.47 557.143.003 8.204c0 1.16.98 1.826 1.81 1.813.898-.015 1.782-.742 1.782-1.641v-8.203c0-.774-.865-1.674-1.688-1.672-.875 0-1.907.69-1.907 1.5zm40.782 1.665c-.026 2.44.502 3.917 1.969 3.938 1.464.02 2.069-1.349 2.062-3.882-.005-1.988-.74-3.357-2.128-3.375-1.293-.017-1.883 1.498-1.903 3.319zm1.968 9.15c-1.655.015-1.98 2.9-1.987 4.557-.007 1.75.2 4.892 1.95 4.875 1.743-.017 1.924-2.888 1.931-4.632.006-1.616-.278-4.815-1.893-4.8z" style="fill:#fff;fill-rule:evenodd" transform="translate(-3.868 -57.488) scale(.4359)"/><path d="M297.958 139.281c-77.454 0-147.826 31.832-198.857 83.02-51.114 51.27-82.83 121.963-82.83 199.542 0 77.457 31.596 147.6 82.547 198.401 51.033 50.88 121.486 82.365 199.062 82.365 77.55 0 147.862-31.434 198.77-82.257 50.859-50.774 82.355-120.91 82.355-198.392 0-77.632-31.598-148.397-82.612-199.704-50.864-51.157-121.035-82.975-198.435-82.975ZM95.493 218.713c51.962-52.121 123.612-84.534 202.465-84.534 78.803 0 150.25 32.399 202.042 84.489 51.937 52.236 84.107 124.272 84.107 203.292 0 78.88-32.075 150.292-83.87 202-51.833 51.745-123.414 83.751-202.357 83.751-78.968 0-150.69-32.055-202.65-83.86C43.345 572.12 11.169 500.7 11.169 421.843c0-78.97 32.289-150.933 84.325-203.13z" style="fill:#231f20;fill-rule:evenodd" transform="translate(-3.868 -57.488) scale(.4359)"/><path d="M103.101 487.38c52.531-85.317 100.348-175.81 147.69-266.166-37.779 8.916-71.537 28.413-98.071 55.15-37.198 37.48-60.205 89.192-60.205 145.925 0 22.803 3.72 44.685 10.586 65.09zm241.402-266.055c46.473 88.456 94.758 178.871 147.482 265.326 6.696-20.187 10.319-41.809 10.319-64.33 0-56.737-23.006-108.459-60.204-145.948-26.423-26.63-60.009-46.08-97.597-55.048zm81.836 254.608c-25.375-13.298-52.632-22.212-81.799-26.773-2.537 6.884-5.679 13.791-9.522 20.519a83.041 83.041 0 0 1 21.052 15.316c32.453 32.454 32.453 85.07 0 117.523-12.391 12.39-27.72 20.05-43.745 22.98 50.775-3.583 96.391-25.406 130.189-59.02a203.055 203.055 0 0 0 38.752-53.768c-17.224-14.236-35.529-26.61-54.927-36.777zM238.546 602.518c-32.453-32.453-32.453-85.07 0-117.523a83.022 83.022 0 0 1 21.497-15.541 145.533 145.533 0 0 1-9.637-20.505c-28.777 4.33-56.702 12.999-83.378 27.02-18.542 9.745-36.486 21.789-53.698 36.208a203.152 203.152 0 0 0 39.03 54.27c33.706 33.506 79.148 55.305 129.71 59.01-15.945-2.959-31.19-10.605-43.524-22.939z" style="fill:#f58220;fill-rule:evenodd" transform="translate(-3.868 -57.488) scale(.4359)"/><path d="M87.412 422.29c0-58.119 23.58-111.102 61.7-149.514 28.193-28.407 64.34-48.842 104.784-57.488l5.021-9.587c11.857-22.64 23.703-45.26 34.867-66.389-75.807 1.12-144.57 32.722-194.683 82.989-51.114 51.27-82.83 121.963-82.83 199.542 0 51.347 13.884 99.48 38.088 140.894 15.53-22.768 30.596-46.062 45.289-69.767-7.921-22.038-12.236-45.826-12.236-70.68Zm358.295-149.504c38.121 38.42 61.7 91.414 61.7 149.535 0 24.59-4.218 48.136-11.97 69.976 14.74 24.03 29.827 47.744 45.32 71.013 24.308-41.507 38.248-89.803 38.248-141.35 0-77.632-31.598-148.397-82.612-199.704-50.094-50.383-118.914-82.007-194.924-82.953a37393.492 37393.492 0 0 1 24.035 45.806 52124.609 52124.609 0 0 0 15.879 30.276c40.26 8.702 76.239 29.095 104.325 57.4zM148.772 570.055a208.383 208.383 0 0 1-39.44-54.474c-17.797 15.394-34.79 33.37-50.832 54.015a282.808 282.808 0 0 0 40.318 50.648c51.033 50.88 121.486 82.365 199.062 82.365 77.55 0 147.862-31.434 198.77-82.257a282.169 282.169 0 0 0 40.4-50.892c-15.992-19.663-33.244-37.605-51.771-53.383a208.258 208.258 0 0 1-39.178 54.008c-37.99 37.786-90.533 61.037-148.622 61.037-58.095 0-110.679-23.265-148.707-61.067zm-42.008 41.95 39.517-30.207 11.24 10.04-25.757 42.4-9.12-7.618 5.238-7.386-6.043-5.483-6.663 5.856zm341.955-27.995c1.548-.82 3.043-1.307 4.396-1.48 1.654-.212 3.503.216 5.027 1.052 1.514.83 3.023 2.382 4.463 4.073 1.766 2.075 3.287 3.494 3.6 5.514.321 2.07.102 4.42-1.106 6.642 4.897-2.232 7.06-.732 10.914 3.427 2.445 2.64 8.41 10.967 11.482 11l-8.24 7.198c-1.28.152-2.414-.666-3.206-1.408-2.138-2.003-3.96-4.168-5.79-6.075-2.094-2.18-4.099-5.167-5.325-5.524-1.217-.355-2.598-.099-4.263 1.319l-1.606 1.366 13.84 15.692-8.336 7.42-32.386-36.857 9.909-8.461c2.874-2.455 5.089-4.082 6.627-4.898zm-305.988 58.483 26.735-40.903 9.35 6.082-21.455 33.081 10.332 6.436-5.17 8.165zm30.222 17.88 28.908-40.478 13.693 6.3-12.175 48.093-10.955-4.606 2.84-8.598-7.388-3.467-4.65 7.553zm42.377 19.414 11.246-48.085 12.13 2.914 1.662 28.878.836.207L247 636.7l10.94 2.638-11.058 47.552-12.02-2.987-1.698-30.47-.718-.17-6.15 28.489zm54.52 10.438 1.64-19.127-6.706-30.531 11.97 1.168 1.348 15.749 1.17.052 3.514-15.303 11.907.804-11.827 27.945-1.609 20.034zm28.377 2.039 4.88-49.5 15.011-1.366 13.422 47.76-11.793 1.47-1.825-8.87-8.132.677-.265 8.867zm40.802-20.405 10.943-2.294c.31 2.681.826 5.018 1.867 6.394.729.963 2.656 1.417 3.937.993 1.024-.338 2.268-1.123 2.608-2.082.342-.966.298-2.095-.268-3.368-1-2.247-3.093-3.35-6.758-5.22-4.54-2.314-7.666-3.777-9.203-4.69-1.16-.689-3.057-1.841-4.024-2.968-.994-1.156-1.769-2.822-2.302-4.433-1.297-3.92-1.36-7.586.007-10.516 1.37-2.932 5.283-5.622 8.973-6.843 4.021-1.33 7.979-1.564 10.906-.223 5.32 2.436 6.897 5.616 7.674 10.142.055.32.502 2.342.562 2.52l-10.543 2.677-.419-1.76c-.491-2.067-.67-3.702-1.974-4.517-1.032-.646-1.893-1.051-2.973-.694-.913.302-1.905.906-2.228 1.794-.325.894-.514 1.905-.129 3.068 1.018 3.078 6.935 4.916 9.956 6.246 3.91 1.721 6.51 3.115 8.053 4.319 2.115 1.648 3.57 3.463 4.662 6.048.792 1.88 2.301 6.762.16 11.01-1.54 3.056-3.982 5.583-7.932 7.286-4.079 1.758-11.146 1.785-14.03.163-2.887-1.622-5.042-3.842-6.559-8.428-.01-.033-.76-3.786-.966-4.624zm47.581 5.18-18.58-45.298 10.171-4.203c3.431-1.417 5.825-2.494 7.596-2.867 1.763-.372 3.963-.56 5.402-.292 1.896.355 4.002 1.28 5.603 2.89 1.594 1.6 2.91 4.213 4.042 6.886 1.868 4.41 2.732 8.818 1.544 12.019-1.187 3.2-4.318 5.079-9.195 7.144l-3.33 1.41 7.313 17.646zm27.503-38.43-6.451-10.675c-1.369-2.266-1.978-4.808-2.026-6.516-.067-2.432.464-4.6 1.63-6.55 1.165-1.948 3.093-3.943 5.493-5.473 2.417-1.54 5.167-2.616 7.401-2.834 2.234-.219 4.597.225 6.779 1.301 1.566.772 3.492 2.133 4.95 4.341l7.002 10.607c3.112 4.714 5.546 8.219 6.64 10.64 1.094 2.422 1.7 4.673 1.74 6.418.058 2.405-.719 4.635-1.874 6.585-1.153 1.946-3.173 3.618-5.574 5.149-2.4 1.53-4.733 2.41-6.992 2.644-2.265.226-4.484-.2-6.651-1.266-1.526-.767-3.374-2.027-4.884-4.171z" style="fill:#fff;fill-rule:evenodd" transform="translate(-3.868 -57.488) scale(.4359)"/><path d="m146.019 593.219-17.942 15.047 4.63 4.228 13.968-18.654zm58.944 37.671-12.734 19.652 5.667 2.682 7.877-21.933zm106.315 19.859-1.241 23.383 6.25-.5-4.107-22.94zm70.542-15.016 4.598 10.858.508-.147c.197-.06.451-.156.79-.3 1.88-.796 3.371-1.398 3.805-2.703.434-1.304-.254-3.365-1.148-5.479-.74-1.747-2.172-3.705-3.445-3.79-1.485-.098-2.218.337-4.293 1.216zm44.723.511 4.195 6.386c1.469 2.235 3.361 2.478 4.721 1.612 1.344-.857 1.852-2.174 1.307-3.544-.52-1.308-2.065-3.717-4.97-8.015l-4.704-6.96-4.835-7.57c-1.309-2.049-3.418-2.28-4.778-1.413-1.326.845-1.623 2.976-.54 4.634l4.782 7.324zm20.071-39.879 7.178 8.433c.133-.113.31-.25.53-.41.222-.16.384-.285.488-.374 1.612-1.372 2.672-2.651 2.654-3.929-.019-1.263-1.09-2.611-2.51-4.279-1.31-1.54-2.176-2.34-3.4-2.412-1.222-.073-2.391.72-4.004 2.092a8.425 8.425 0 0 0-.446.42 9.188 9.188 0 0 1-.49.46z" style="fill:#fff;fill-rule:evenodd" transform="translate(-3.868 -57.488) scale(.4359)"/><path d="M240.636 396.208c-.557-49.22 23.742-91.248 56.786-111.673 34.765 22.77 56.415 67.51 56.38 113.77-.01 12.958-2.061 29.258-7.561 45.977 29.383 4.692 56.857 13.734 82.45 27.147 34.835 18.257 66.166 43.484 94.064 73.741C448.46 430.624 383.396 306.5 321 187.46c-7.34-14.001-14.623-27.896-23.373-44.526-11.893 22.513-23.042 43.801-34.206 65.118-60.32 115.181-121.017 231.075-190.863 336.712 28.364-31.768 59.3-56.061 92.097-73.3 26.885-14.13 55.014-22.932 83.997-27.392-5.302-15.575-8.07-31.999-8.016-47.864z" style="fill:#42a13f;fill-rule:evenodd" transform="translate(-3.868 -57.488) scale(.4359)"/></svg>