<svg xmlns="http://www.w3.org/2000/svg" viewBox="0 0 663.4 740.6"><path fill="#231f20" d="M331.7 740.6c-12.7-5.7-24.5-12.5-36.1-20.3C240.5 683.5 156.8 605.6 92.5 487 54.8 417.4 23.8 334 9.1 236.4 3.5 200.1.9 163.6 0 126.7c63-1 124.3-11.4 183.3-34 56.1-21.5 104.3-52 148.4-92.7 44.1 40.7 92.3 71.2 148.4 92.7 59.1 22.6 120.3 33.1 183.3 34-1 36.9-3.5 73.4-9.1 109.7-14.7 97.6-45.7 181-83.4 250.6-64.3 118.6-148 196.5-203.1 233.3-11.6 7.8-23.4 14.6-36.1 20.3z"/><linearGradient id="a" x1="197.95599" x2="888.45398" y1="112.214" y2="802.71301" gradientTransform="translate(-168.3 -129.7)" gradientUnits="userSpaceOnUse"><stop offset="0" stop-color="#cf1e29"/><stop offset="1" stop-color="#7c242a"/></linearGradient><path fill="url(#a)" d="M331.7 732.3c78-34.8 314.7-236.3 323.9-598.1-68.2-1.1-210.3-19.1-323.9-123.9C218.1 115.2 76 133.1 7.8 134.2 17 496 253.7 697.4 331.7 732.3Z"/><path fill="#231f20" d="M128.4 306.9c25.3-42.6 8.2-74.9-6.1-101.9-7.2-13.6-13.1-24.1-13.1-38.9-6.9 7.1-11.7 13.5-16.1 22.7-5.7 11.8-8.8 24.2-9.8 36.7-1.4 19.3 2.6 39.1 11.3 57.4 3.5 7.8 8.3 15.2 13.2 23.1.8 1.2 1.5 2.3 2.2 3.5 10.5 25.2 21.9 50.1 34.4 74-8.4-5.6-16.3-9.1-23.8-12.4-7.8-3.5-15-6.8-21.5-12-5.7-4.6-9.5-9.4-13.5-15.2-1.8 7.5-1.6 14.8-.3 23.7 3 19.9 12.1 35.8 25.3 48.3 18.4 17.8 44.6 28.7 73.1 35 7.5 11.8 15.4 23.5 23.4 35-14.6-8.4-27.6-11.8-40.6-15.2-7.6-1.9-15.2-3.9-23-6.9-7.8-3.1-14.4-7.4-21.5-11.7 1 11.6 2.3 21.5 7.8 32.3 5.6 10.8 13.9 20.7 24 29.1 18 14.8 41.8 25.2 66.4 27.8 5.3.5 9.1.5 12.2.5 7.1 0 10.2 0 19.6 7.6 15.8 12.9 32.9 24 51 33.5-10.9 3.7-21.8 6.9-32.7 9.8-14.2 3.7-28.4 6.5-42.9 8.8l-10.5 22.3c19.5-2 38.4-4.8 57.4-9.4 19.3-4.6 38.7-10.6 57.2-18.4 18.5 7.8 37.8 13.7 57.2 18.4 19.1 4.6 38 7.4 57.4 9.4l-10.5-22.3c-14.4-2.3-28.7-5.2-42.9-8.8-10.9-2.9-21.8-6.1-32.7-9.8 18.1-9.5 35.3-20.6 51-33.5 9.4-7.6 12.5-7.6 19.6-7.6 3.1 0 6.9 0 12.2-.5 24.6-2.6 48.5-12.9 66.4-27.8 10.1-8.4 18.4-18.4 24-29.1 5.4-10.8 6.8-20.7 7.8-32.3-7.1 4.4-13.7 8.6-21.5 11.7-7.8 3-15.4 5-23 6.9-12.9 3.4-26 6.8-40.6 15.2 8-11.4 15.9-23.1 23.4-35 28.4-6.3 54.7-17.1 73.1-35 13.2-12.5 22.3-28.4 25.3-48.3 1.4-8.8 1.5-16.2-.3-23.7-3.9 5.9-7.8 10.6-13.5 15.2-6.5 5.2-13.7 8.4-21.5 12-7.5 3.3-15.4 6.8-23.8 12.4 12.5-24 24-48.9 34.4-74 .7-1.2 1.4-2.3 2.2-3.5 4.9-7.9 9.7-15.4 13.2-23.1 8.7-18.4 12.7-38.1 11.3-57.4-1-12.5-4.1-24.9-9.8-36.7-4.4-9.3-9.1-15.7-16.1-22.7 0 14.8-5.9 25.3-13.1 38.9-14.3 27.1-31.4 59.3-6.1 101.9-12.5 29.9-27.5 58.4-43.8 86.2.4-12-1.9-22.7-3.9-33.3-2.2-10.9-4.4-21.5-3.3-32.7.8-8.4 3.3-15.2 6.8-22.6-8.4 1.9-12.7 4.2-19.6 9.5-23.3 17.4-29.7 42.3-28.9 66.3.8 25.9 10.2 50.9 16.1 64.4-10.3 15.8-19.7 32.1-30.9 47.2 0-4.5-.3-8.7-.8-12.8-1.4-9.3-4.5-18.1-7.6-27-3.8-10.8-7.6-21.2-7.8-33.5 0-8.3 2-15.8 4.2-23.7-15.5 5.7-28.7 12.5-37.7 27.5-8.4 13.9-9.7 29.3-9 40.6 1 14.3 8 27.2 15.7 40.8 4.9 9 10.1 18.4 13.5 28.3-19.7 16.2-42.5 29.3-66.3 39.6-23.8-10.3-46.5-23.4-66.3-39.6 3.4-9.9 8.6-19.3 13.5-28.3 7.6-13.6 14.7-26.5 15.7-40.8.7-11.3-.5-26.7-9-40.6-9-15-22.2-21.8-37.7-27.5 2.2 7.9 4.2 15.4 4.2 23.7-.1 12.3-3.9 22.7-7.8 33.5-3.1 8.8-6.3 17.7-7.6 27-.5 4.1-.8 8.3-.8 12.8-11.2-15.1-20.6-31.4-30.9-47.2 5.9-13.5 15.2-38.5 16.1-64.4.8-24-5.6-48.9-28.9-66.3-6.9-5.3-11.2-7.6-19.6-9.5 3.5 7.3 6 14.2 6.8 22.6 1.1 11.2-1.1 21.8-3.3 32.7-2 10.6-4.4 21.4-3.9 33.3-15.9-27.8-30.9-56.2-43.4-86.2z"/><path fill="#53994b" d="M539.3 306.7c-16.3 39.1-33.1 69-54.9 105.1 11.3-39.7-14.2-65.9-.1-101.5-61.8 32.8-32.8 109.3-21.6 134.9-15 22.6-23.7 39.6-40.6 59.6 3.9-18.5 0-32.8-4.8-46.4-6.1-17.4-13.6-33.9-7.3-57.2-34.2 13.2-38.5 43.4-37.3 61.7 1.5 23.5 21.6 44.4 29.7 70.6-20 17-44.5 31-70.6 42.3-26.1-11.3-50.6-25.3-70.6-42.3 8-26.3 28.2-47.1 29.7-70.6 1.2-18.2-3.1-48.5-37.3-61.7 6.3 23.3-1.2 39.7-7.3 57.2-4.8 13.6-8.7 27.9-4.8 46.4-16.9-20-25.6-37-40.6-59.6 11.2-25.6 40.2-102.1-21.6-134.9 14 35.7-11.4 61.8-.1 101.5-21.8-36.1-38.5-66-54.9-105.1 36.6-59.6-13.7-99.1-18.4-131.9-23.1 32.3-24.2 71.7-7.8 106.6 4.1 8.7 9.7 17.3 15.4 26.5 12.2 29.7 27.6 62.3 43.1 90.2-27.6-25.9-50.5-22.5-68.6-44.6.7 56.1 45.7 83 98.1 94.2 12.8 20.3 24 36.2 37.2 54.4-37.8-31.9-64.4-22.6-96.8-42.7 3.1 39.1 47.4 73.4 94 78.1 18.2 1.9 19.5-2.7 33.9 9.1 17.6 14.3 37.3 26.5 58.3 36.9-27.5 10.2-56.1 17.3-82.6 21.5l-6.7 14.6c36.2-3.8 73.6-13.1 108.3-27.5 34.7 14.4 72.1 23.7 108.3 27.5l-6.7-14.6c-26.5-4.2-55.1-11.3-82.6-21.5 21-10.3 40.7-22.6 58.3-36.9 14.4-11.8 15.7-7.2 33.9-9.1 46.7-4.8 90.9-39.1 94-78.1-32.4 20.1-58.9 10.9-96.8 42.7 13.2-18.2 24.4-34.2 37.2-54.4 52.4-11.2 97.5-38.1 98.1-94.2-18.1 22.2-41 18.8-68.6 44.6 15.5-27.9 30.9-60.6 43.1-90.2 5.7-9.3 11.3-17.8 15.4-26.5 16.5-34.8 15.4-74.3-7.8-106.6-4.5 32.8-54.9 72.3-18.2 131.9z"/><path fill="#fff" d="M276.7 172.5v-9.1h-37.1v9.1h13v33.3h11.2v-33.3zm-49.8-9.1h-11.8l-17.4 42.5H209l3.1-8.2h16.5l2.7 8.2h11.3zm-11.4 25.8 5.3-13.7 4.8 13.7zm293.8 1.8c-.3-.7-.7-1.2-1.1-1.8-.4-.7-.7-1.1-1.1-1.6-.4-.4-.8-.8-1.4-1.2-.3-.1-.4-.3-.7-.4.8-.5 1.8-1.1 2.4-1.6 1.8-1.4 3-3.1 3.5-5.2.4-1 .5-2.2.5-3.3 0-2.2-.4-3.9-1.1-5.6-1.4-3.5-4.4-5.3-7.9-6.1-2-.5-4.2-.8-6.8-.8h-15.3v42.5h10.5v-17h1c1 0 1.8 0 2.4.3.5.1 1 .3 1.4.5.7.4 1.2.8 1.8 1.6.4.5.8 1.4 1.2 2.3l5.6 12.2h11.4zm-9-13.2c-.4 1.1-1.4 1.8-2.4 2-.5.1-1.2.3-2 .3h-4.8v-8.2h4.8c.7 0 1.4 0 1.9.3 1.1.3 2 1 2.6 2 .1.4.3 1.1.3 1.8-.1.7-.2 1.2-.4 1.8zm-317 1.9h-16.7v-16.3h-10.5v42.4h10.5v-16.6h16.7v16.6H194v-42.4h-10.7ZM372 163.4c-2.3 0-4.4.3-6.1.8-1.8.5-3.4 1.5-4.9 2.6-2.9 2.2-4.2 5-4.2 8.6 0 1.8.3 3.3.8 4.6.5 1.4 1.4 2.6 2.4 3.7 1.1 1.1 2.6 2.2 4.6 3.3 1.9 1 4.2 2 7.1 3 1.2.4 3.3 1.1 4.2 2 .3.3.4.4.5.7.1.4.3 1 .3 1.4 0 .5-.1 1-.3 1.4-.3.4-.5.8-1.1 1.1-1.2.7-2.7.8-4.1.8-1.5 0-11.6-.4-14.6-.5v9.1h14.7c1.8 0 3.5-.1 5-.5.5 0 1.1-.1 1.6-.3 1.9-.5 3.7-1.4 5-2.5 2.9-2.3 4.2-5.3 4.2-9.1 0-1.2-.1-2.3-.3-3.3-.3-1-.5-1.9-1.1-2.9-.4-.8-1-1.6-1.6-2.3-.7-.8-1.5-1.4-2.3-1.9-.8-.5-1.9-1.1-3.3-1.8-.8-.3-1.5-.7-2.3-1-2.2-.8-4.5-1.6-6.5-2.7-.7-.3-1.2-.7-1.6-1-.8-.7-1.2-1.4-1.2-2.2 0-.4.1-.8.4-1.2.5-.8 1.6-1.2 2.6-1.4.7-.1 1.5-.3 2.4-.3h3.9c3.4.1 7.1.3 10.9.7v-9h-10.9c-1.2.1-2.7.1-4.2.1zm-68.9 0h-11.8l-17.4 42.5h11.3l3.1-8.2h16.5l2.7 8.2h11.3zm-11.4 25.8 5.3-13.7 4.8 13.7zm124.5-25c-1.9-.5-4.1-.8-6.5-.8h-15.4v42.5h10.6v-16.3h4.7c2.3-.1 4.2-.4 6-.8 3.8-1 6.9-3 8.6-6.7.7-1.6 1-3.5 1-5.9 0-2-.3-3.9-1-5.6-1.3-3.6-4.3-5.5-8-6.4zm-2.2 13.7c-.4 1.2-1.4 1.8-2.4 2-.5.1-1.2.3-1.9.3h-4.8V172h4.8c.7 0 1.4.1 1.9.3 1.1.3 2 1 2.4 2 .3.5.3 1.1.3 1.8s0 1.4-.3 1.8zm50-11.8c-3.7-2.5-7.9-3.4-12.2-3.4-4.4 0-8.6 1-12.3 3.4-2.3 1.5-4.4 3.7-6 6-2.4 3.8-3.5 8.2-3.5 12.5 0 4.5 1.1 8.8 3.5 12.5 1.6 2.3 3.7 4.5 6 6 3.7 2.5 7.9 3.4 12.3 3.4s8.6-1 12.2-3.4c2.3-1.5 4.5-3.7 6-6 2.4-3.7 3.5-8 3.5-12.5 0-4.4-1.1-8.7-3.5-12.5-1.5-2.4-3.6-4.4-6-6zm-4.5 27.5c-2 2.3-4.6 3.4-7.8 3.4-3.1 0-5.7-1.1-7.8-3.4-2.2-2.6-3.1-5.7-3.1-9s1-6.4 3.1-8.8v-.1c2-2.3 4.6-3.4 7.8-3.4 3.1 0 5.7 1.1 7.8 3.4v.1c2 2.3 3.1 5.3 3.1 8.8 0 3.2-.9 6.4-3.1 9zm-126.2-17-8.3-13.2h-12.6l15.8 23.2v19.2h10.3v-19.2l15.9-23.2H342Zm-39.7 448.7h-6.1c-1.4 1.9-5.6 4.6-7.8 5.2v5l5.9.1v17h-5.9v5.6h19.9v-5.6h-6zm53.8 10.1c2.3-3.5 4.5-6.8 7.5-10.1h-10.1c-3.5 4.2-6.3 8.2-8.4 11.6-2 3.4-3 7.2-3 10.3 0 3.4 1.1 6.1 3.3 8.3 2.3 2.2 5 3.3 8.6 3.3h.3c3.4 0 6.3-1.2 8.6-3.7 2.3-2.3 3.5-5.3 3.5-8.8 0-3-1-5.4-2.9-7.5-2-2.1-4.5-3.2-7.4-3.4zm.6 14c-.7.7-1.5 1.1-2.6 1.1s-1.9-.4-2.7-1.1c-.8-.8-1.1-1.8-1.1-2.9 0-1.1.3-2 1.1-2.7.8-.8 1.6-1.2 2.7-1.2 1 0 1.9.4 2.6 1.2.8.7 1.2 1.6 1.2 2.7.1 1.1-.3 2.1-1.2 2.9zm15.3-24.1v8.4H375l-11.5 24.5h9.3l13.1-28.5v-4.4zm-46.3-.7h-.1c-3.5.1-6.4 1.4-8.7 3.7-2.3 2.4-3.5 5.3-3.5 9 0 3 1 5.4 2.9 7.5 1.9 1.9 4.4 3 7.4 3.3-2.3 3.5-4.9 7.1-7.9 10.2h10.4c3.9-4.5 5.9-7.6 8.4-11.7 2.2-3.7 3-7.2 3-10.2 0-3.4-1.1-6.3-3.3-8.4-2.3-2.3-5.1-3.4-8.6-3.4zm2.5 15.1c-.7.8-1.6 1.1-2.6 1.2h-.2c-1 0-1.9-.4-2.6-1.2-.8-.8-1.1-1.8-1.1-2.9 0-1.1.3-2 1.1-2.7.7-.8 1.6-1.2 2.6-1.2h.1c1 0 1.9.4 2.6 1.2.8.7 1.1 1.6 1.1 2.7 0 1.2-.2 2.1-1 2.9z"/></svg>