<svg xmlns="http://www.w3.org/2000/svg" xml:space="preserve" width="873.24438" height="998.0498" viewBox="0 0 873.24438 998.0498"><path d="M502.475 268.71c66.533 93.728 66.979 199.341 67.445 299.478v106.647h-88.375v27.907c.332 19.933-2.326 29.237-27.309 36.478-48.503 14.059-102.095 22.438-158.629 22.438h-.002c-56.533 0-110.126-8.38-158.628-22.438-24.983-7.24-27.642-16.545-27.31-36.478v-27.907H21.294V568.187c.466-100.136.913-205.749 67.445-299.477 72.826-102.594 206.87-134.089 206.87-134.089s134.04 31.495 206.867 134.09z" style="fill:#111840;fill-opacity:1;fill-rule:nonzero;stroke:none" transform="matrix(1.5917 0 0 -1.5917 -33.892 1212.325)"/><path d="M355.759 655.077c0-33.216-26.93-60.144-60.15-60.144s-60.146 26.928-60.146 60.144c0 33.22 26.926 60.15 60.146 60.15s60.15-26.93 60.15-60.15M295.607 553.25c34.776 0 61.695 3.285 99.203 9.348 18.889 3.053 32.803 6.028 47.002 10.194 10.602 3.11 11.16 4.2 11.16 15.08v111.215c0 9.884-1.411 11.13-10.258 13.746-12.028 3.557-25.409 6.704-40.72 9.763-34.841 6.96-70.636 10.49-106.387 10.49h-.002c-35.75 0-71.545-3.53-106.387-10.49-15.31-3.06-28.69-6.206-40.72-9.763-8.846-2.616-10.258-3.862-10.258-13.746V587.873c0-10.88.56-11.97 11.16-15.08 14.2-4.166 28.114-7.141 47.003-10.194 37.508-6.063 64.427-9.348 99.202-9.348z" style="fill:#fee813;fill-opacity:1;fill-rule:nonzero;stroke:none" transform="matrix(1.5917 0 0 -1.5917 -33.892 1212.325)"/><path d="M476.23 669.52h88.374l-.001-101.512c-.466-100.258-.95-203.928-66.462-296.22-67.272-94.77-189.457-128.326-202.532-131.685-13.075 3.358-135.267 36.916-202.536 131.684-65.515 92.295-65.997 195.968-66.463 296.227V669.52h88.373l-.028 36.383c0 16.107 2.777 22.206 23.502 28.213 50.886 14.75 103.76 22.228 157.148 22.228h.002c53.39 0 106.263-7.479 157.15-22.228 20.724-6.007 23.501-12.106 23.501-28.213l-.028-36.383M125.68 658.887h-88.44v-90.823c.46-98.607.933-200.57 64.501-290.123 61.835-87.11 172.421-120.958 193.867-126.838h-.005c21.446 5.88 132.032 39.728 193.867 126.838 63.568 89.553 64.042 191.516 64.5 290.123l.001 90.823h-88.326l-.048.811v41.384c0 7.095-.112 12.181-2.77 15.725-2.75 3.668-7.35 5.382-13.03 7.096-14.9 4.496-30.07 8.026-45.33 11.074-35.706 7.133-72.157 10.734-108.86 10.734h-.003c-36.703 0-73.154-3.601-108.86-10.734-15.26-3.048-30.43-6.578-45.33-11.074-5.68-1.714-10.28-3.428-13.03-7.096-2.659-3.544-2.77-8.63-2.77-15.725v-41.384l.066-.81z" style="fill:#fee813;fill-opacity:1;fill-rule:nonzero;stroke:none" transform="matrix(1.5917 0 0 -1.5917 -33.892 1212.325)"/><path d="M86.658 329.457V645.58l.013.683H49.866v-78.141c.377-80.9.764-164.104 36.81-239.685zM504.959 329.322c35.628 75.346 36.013 158.218 36.388 238.8v78.141H505.3l-.744-.02V328.46l.404.862zM222.032 194.016v89.176l-.024.603c-14.15 10.262-28.43 22.69-40.564 37.334l-.609.687V219.404l-.04-.662c-18.29 12.704-36.362 27.9-52.362 45.92l-.579.59v159.971l-.009 1.14c-6.981 27.265-7.207 46.17-7.212 47.746l-.057 16.004h6.7l.579.062v62.047l-.063.756c-11.086 5.917-12.837 14.293-12.837 27.079v65.106l.056 1.1h10.134l.47-.02v-61.366c0-7.095.112-12.181 2.77-15.726 2.75-3.667 8.494-5.783 14.175-7.497 11.622-3.507 23.305-6.395 38.29-9.177l-.015-.755V490.84l.016-.727h40.448l.733-.02v54.986l.019.863c17.573-2.422 34.241-4.129 52.324-4.883l.636.033v-50.168l.029-.811h40.614l.554.062v49.835l-.052 1.022c18.11.73 34.779 2.413 52.321 4.816l.705.061v-54.985l-.038-.811h40.034l1.2-.02v62.405l.96.161c14.52 2.727 25.948 5.565 37.317 8.995 5.68 1.714 11.424 3.83 14.174 7.497 2.658 3.545 2.77 8.631 2.77 15.726V646.3l.718-.036h9.096l.846-.04v-66.166c0-12.667-1.717-21.007-12.532-26.914l-.368-.203v-62.128l.03-.7h7.25l-.057-16.003c-.006-1.578-.232-20.528-7.239-47.85l.016-.786V265.336l-.437-.517c-15.704-17.716-33.412-32.707-51.369-45.287l-1.175-.793V321.15l-.041.666c-.188-.23-.378-.46-.567-.688-12.146-14.658-26.442-27.096-40.605-37.363l.017-.988v-88.817l-.272-.142c-20.03-10.38-38.501-17.845-52.65-22.891l-.052.551v81.564l-.467-.218c-8.415-3.835-13.907-5.87-14.666-6.147l-5.47-1.999-5.472 1.999c-.77.28-6.41 2.37-15.032 6.315l-.09-.614V170.87l-.299.147c-14.081 5.03-32.397 12.444-52.254 22.724l-.426.274M368.257 262.9c-12.477 0-22.591-11.18-22.591-24.974 0-13.793 10.114-24.973 22.591-24.973s22.593 11.18 22.593 24.973-10.116 24.974-22.593 24.974m10.432-24.974c0-7.862-4.67-14.235-10.432-14.235-5.762 0-10.431 6.373-10.431 14.235 0 7.863 4.67 14.236 10.431 14.236 5.762 0 10.432-6.373 10.432-14.236m-76.214-1.578v-7.225h5.206v-36.657h12.624v47.952h-6.976s-3.989-4.006-10.854-4.07m-94.023 21.816v-7.226h5.206v-36.656h12.625v47.952h-6.977s-3.988-4.006-10.854-4.07m52.383-60.494 7.199-5.758s7.017 5.514 13.842 11.739c7.531 6.866 13.623 13.29 12.073 24.142-1.55 10.853-10.41 16.39-19.105 16.722-10.176.39-18.439-6.755-18.439-17.33 0-11.13 7.638-16.74 17.285-17.298 0 0-6.653-6.569-12.855-12.217m21.041 28.517c0-4.19-3.445-7.586-7.696-7.586-4.25 0-7.697 3.397-7.697 7.586 0 4.19 3.447 7.586 7.697 7.586 4.251 0 7.696-3.396 7.696-7.586z" style="fill:#fee813;fill-opacity:1;fill-rule:nonzero;stroke:none" transform="matrix(1.5917 0 0 -1.5917 -33.892 1212.325)"/><path d="M351.315 655.077c0-30.761-24.941-55.7-55.706-55.7-30.766 0-55.701 24.939-55.701 55.7 0 30.766 24.935 55.705 55.7 55.705 30.766 0 55.707-24.94 55.707-55.705z" style="fill:#fee813;fill-opacity:1;fill-rule:nonzero;stroke:none" transform="matrix(1.5917 0 0 -1.5917 -33.892 1212.325)"/><path d="m202.385 569.673-1.467 7.23-11.995 2.003-3.61-6.382-6.46 1.08 16.72 28.078 6.417-1.073 7.021-32.043-6.626 1.107m-2.548 12.627-2.29 11.85-5.932-10.477zM225.767 596.862l5.907-.738 9.762-21.705.084-.01 2.519 20.17 5.654-.706-3.773-30.213-6.119.764-9.607 21.213-.084.011-2.461-19.707-5.655.707 3.773 30.214zM264.179 592.571l6.12-.255-.565-13.51 13.013 12.99 8.242-.344-11.924-11.377 11.291-19.072-7.945.332-7.774 14.625-5.227-4.888-.383-9.178-6.119.255zM324.94 562.013l-2.926 6.772-12.152-.514-2.215-6.99-6.543-.277 10.566 30.923 6.5.276 13.483-29.906-6.714-.284m-5.097 11.83-4.685 11.123-3.643-11.476zM341.701 593.89l12.828 1.608c4.514.566 6.05.287 7.016.108 3.666-.87 5.535-4.15 5.905-7.103.412-3.291-.868-6.41-3.67-8.003-.996-.597-2.092-1.077-3.258-1.352l.01-.084c2.712-1.117 4.032-2.066 7.677-6.539l4.411-5.446-7.299-.915-5.214 6.032c-4.352 4.983-4.807 5.527-8.899 5.013l-1.223-.152 1.58-12.617-6.076-.762-3.788 30.212m7.68-12.023 4.515.566c1.856.232 4.43.555 5.437 1.066 2.02.982 1.989 2.95 1.877 3.836-.153 1.225-.722 2.352-1.947 2.884-1.224.533-1.984.438-6.077-.075l-4.768-.598.963-7.679zM406.085 572.562l-3.74 6.358-11.994-2.01-1.336-7.21-6.459-1.083 6.667 31.991 6.418 1.076 17.07-28.012-6.626-1.11m-6.52 11.11-6.022 10.46-2.198-11.839zM314.809 610.935a47.743 47.743 0 0 0-5.696-2.062l-.437-.13v42.146c0 2.492-2.74 3.993-4.402 3.993h-3.862l-.042-.665v-47.052l-.378-.015a48.938 48.938 0 0 0-5.934-.172l-.332.02v96.14l.332.044a48.763 48.763 0 0 0 5.98-.176l.332-.034v-41.446h3.988c3.488 0 4.318 2.824 4.318 7.309v32.56l.298-.068a47.76 47.76 0 0 0 6.407-2.356l-.06-.401v-29.32c0-8.804-4.486-10.964-4.486-10.964s4.486-2.906 4.486-8.72V611.15l-.512-.216zM341.028 669.832h-6.271l-.356-.043a41.352 41.352 0 0 1-3.901 7.711l-.228.347v-18.854l.457.041h8.181v-6.645h-8.638v-19.725l.023-.321a41.364 41.364 0 0 1 3.49 6.5l.1.257h7.143l-.117-.32c-3.28-9.109-9.227-16.944-16.9-22.56l-.384-.25v78.24l.385-.273c8.114-5.941 14.3-14.362 17.438-24.147l-.422.042zM283.962 608.373a47.722 47.722 0 0 0-6.054 1.94l-.296.132V673.9l.017.469-10.848-24.952-10.114 19.928-.207-.549a41.289 41.289 0 0 1-2.332-13.72 41.242 41.242 0 0 1 7.39-23.606l-5.52-3.732a47.909 47.909 0 0 0-8.515 27.339 47.903 47.903 0 0 0 9.152 28.24l.239.307 9.442-18.61 15.782 36.297.314.063c.607.173 1.218.334 1.835.483l.01-.297v-93.233l-.295.046zM403.707 455.56H385.53v18.355l-.024.25H404.136V455.56h-.43m49.023 0v18.605H434.099l.025-.25V455.56h18.605m-48.575-6.313h-18.605l-.02-.352V318.304c4.17 4.11 8.186 8.443 11.962 13 36.31 43.823 49.55 89.907 54.375 117.512l.088.431h-18.98l-.074-.346c-3.658-19.087-11.582-46.842-28.738-75.861l-.027 1.104v74.668l.019.435zM306.79 266.276v207.87l.835.019h57.31l-.003-.408V455.54l-.713.02h-37.98l-.844-.02V296.676l.589.319c12.312 7.102 26.153 16.293 38.918 27.52l.03-.762v-23.257l-.275-.2c-21.893-16.672-44.33-27.934-57.464-33.815l-.403-.206zM284.424 455.597H265.82v18.605h18.605v-18.605m-39.536 18.605h-18.605v-18.605h18.605v18.605M227.253 299.77c21.726-16.423 43.885-27.526 56.865-33.333l.306-.161v182.97H265.82V296.676l-.308.157c-6.386 3.675-13.194 7.916-20.053 12.713l-.57.365v139.336h-18.605V300.553zM205.684 456.204v17.961h-69.105s.259-74.205 57.145-142.861a175.065 175.065 0 0 1 11.448-12.492l.512-.569V439.76l.084.85h-30.982V423h12.378l-.085-.769V372.98l-.376.652c-19.019 32.382-26.564 63.129-29.556 81.928h48.622l-.085.644z" style="fill:#111840;fill-opacity:1;fill-rule:nonzero;stroke:none" transform="matrix(1.5917 0 0 -1.5917 -33.892 1212.325)"/></svg>