<svg xmlns="http://www.w3.org/2000/svg" xml:space="preserve" width="176.77089" height="254" viewBox="0 0 176.77089 254"><path d="M.65 129.74.006 562.91s-3.36 178 166.65 205.576C393.376 806.164 444.708 657.37 444.708 657.37s24.627-58.396 23.037-107.06c2.384-54.341 1.235-393.145 1.235-393.145s-40.38 40.863-114.344 18.457c-55.219-21.685-68.943-33.373-99.059-46.984C171.071 87.297 96.735 81.527.651 129.74" style="fill:#a41d34;fill-opacity:1;stroke:none;stroke-width:.13333333;stroke-opacity:1" transform="matrix(.36818 0 0 .36818 2 -33.192)"/><path d="M468.403 347.547c-33.88 23.9-79.494 33.134-132.518 33.134-8.29 0-16.054-.516-23.292-1.381 15.002 8.63 23.206 18.899 28.322 37.277-10.586-4.83-20.998-7.422-27.967-7.422-15.175-.086-29.468 10.27-28.852 25.973.441 10.096 8.032 19.07 19.323 23.644 25.676 10.27 51.878 17.948 75.7 32.36 47.378 28.904 56.993 64.543 56.993 94.4 0 38.83-17.823 86.199-58.228 120.717-32.467 27.696-79.495 47.114-143.636 47.114-69.876 0-123.87-27.096-160.13-66.356C39.003 648.95 20.65 599.42 20.65 552.22c0-66.353 33.085-122.701 82.493-158.856 36.261-26.49 86.02-42.365 128.548-41.936-25.676-12.166-52.937-23.556-95.727-23.556-47.29 0-96.522 18.984-135.872 65.32V278.428c33.616-19.759 83.378-33.824 131.723-33.824 65.201 0 99.432 24.68 130.577 49.445 31.322 24.676 59.643 49.442 113.02 49.442 33.612 0 65.992-14.238 92.99-32.272zM250.13 382.84c-63.083 13.2-127.93 71.961-127.93 138.319 0 74.124 69.522 118.73 127.399 118.73 46.055 0 91.848-19.673 91.933-71.097 0-40.128-28.321-55.14-62.73-67.824-30.262-11.22-52.23-39.521-52.495-72.05-.085-17.433 7.94-35.466 23.823-46.078" style="fill:#14c0f1;fill-opacity:1;stroke:none;stroke-width:.13333333;stroke-opacity:1" transform="matrix(.36818 0 0 .36818 2 -33.192)"/><path d="M248.815 700.308c-1.262 0-2.284 2.285-2.284 5.099 0 2.818 1.022 5.102 2.284 5.102 1.261 0 2.284-2.284 2.284-5.102 0-2.814-1.023-5.1-2.284-5.1m-2.58-21 12.433.144-7.304 12.733c11.568-2.292 19.399 26.152-1.58 27.174-14.647-.069-14.37-17.155-11.445-23.334l7.896-16.716M204.067 679.639l-.206 38.198-10.344-.16.024-29.612-4.321-.05-.007-8.339 14.853-.038" style="fill:#fff;fill-opacity:1;fill-rule:evenodd;stroke:none;stroke-width:.13333333" transform="matrix(.36818 0 0 .36818 2 -33.192)"/><path d="m264.099 679.658-.155 9.145 11.796-.228-13.267 29.009 12.088.319 14.936-38.347-25.398.102M221.908 687.139c1.261 0 2.284 2.285 2.284 5.102s-1.023 5.1-2.284 5.1-2.285-2.283-2.285-5.1c0-2.817 1.024-5.102 2.285-5.102m-.281 17.856-7.956 12.63 11.528.1 9.17-18.624c6.894-25.17-30.797-27.933-24.281-1.149 1.31 4.817 4.596 7.232 11.539 7.043" style="fill:#fff;fill-opacity:1;fill-rule:evenodd;stroke:none;stroke-width:.13333333" transform="matrix(.36818 0 0 .36818 2 -33.192)"/><path d="M194.583 217.612c-2.519-5.907-3.858-11.552-4.072-18.25 6.844-8.569 14.117-14.909 21.392-19.52 14.044-8.787 28.161-10.946 39.468-9.722.506 3.457.473 6.003.328 9.103a49.319 49.319 0 0 1-1.226 8.856c-9.217-.576-19.589.433-30.178 5.906-8.642 4.394-17.355 11.74-25.712 23.627" style="fill:#fff;fill-opacity:1;fill-rule:nonzero;stroke:none;stroke-width:.13333333" transform="matrix(.36818 0 0 .36818 2 -33.192)"/><path d="M262.219 245.773c-6.266 2.736-12.463 3.53-19.667 3.53-19.517 0-36.661-10.876-45.59-26.867 4.393-6.625 7.491-10.512 12.027-14.545 5.115 10.946 14.622 22.398 29.746 30.394 6.485 3.456 14.769 5.615 23.484 7.488" style="fill:#fff;fill-opacity:1;fill-rule:nonzero;stroke:none;stroke-width:.13333333" transform="matrix(.36818 0 0 .36818 2 -33.192)"/><path d="M282.228 229.121c-3.959 5.259-6.905 9.016-12.452 12.476-10.8-1.658-19.95-4.754-27.44-8.79-14.621-7.704-23.623-18.868-28.163-29.384 2.739-2.09 5.476-3.818 8.284-5.26 2.735-1.438 3.59-1.884 6.331-2.75 4.175 8.284 10.227 16.784 20.167 23.263 8.137 5.261 18.868 9.148 33.273 10.445" style="fill:#fff;fill-opacity:1;fill-rule:nonzero;stroke:none;stroke-width:.13333333" transform="matrix(.36818 0 0 .36818 2 -33.192)"/><path d="M274.62 155.684c12.604 9.579 20.08 24.473 20.08 41.472a51.76 51.76 0 0 1-7.492 26.864c-7.923-.503-12.896-1.257-18.727-3.132 6.987-9.936 12.102-23.91 11.454-40.981-.219-7.42-2.576-15.724-5.315-24.223" style="fill:#fff;fill-opacity:1;fill-rule:nonzero;stroke:none;stroke-width:.13333333" transform="matrix(.36818 0 0 .36818 2 -33.192)"/><path d="M250.524 145.521c6.63.795 11.188 2.728 16.876 5.751 3.963 10.23 5.837 19.667 6.121 28.236.65 16.567-4.536 29.893-11.306 39.11-3.242-1.297-6.122-2.807-8.714-4.535-2.665-1.659-2.682-2.775-4.768-4.722 5.112-7.777 8.778-17.885 9.427-29.77.43-9.722-1.513-20.959-7.636-34.07" style="fill:#fff;fill-opacity:1;fill-rule:nonzero;stroke:none;stroke-width:.13333333" transform="matrix(.36818 0 0 .36818 2 -33.192)"/><path d="M242.553 145.008h.864c3.53 7.059 5.526 12.559 6.82 18.537-12.028-1.078-26.649 1.442-41.197 10.516-6.268 3.963-12.463 9.151-18.51 15.776 3.167-25.785 25.446-44.829 52.023-44.829" style="fill:#fff;fill-opacity:1;fill-rule:nonzero;stroke:none;stroke-width:.13333333" transform="matrix(.36818 0 0 .36818 2 -33.192)"/><path d="M206.097 772.645c-34.378-2.88-67.255-9.959-89.157-19.196-50.995-21.507-89.4-66.903-106.08-125.394-9.656-33.857-9.9-37.315-9.9-140.23v-94.733l12.308-12.411c22.18-22.368 52.017-39.652 81.333-47.117 12.726-3.24 18.59-3.718 44.211-3.605 26.265.117 31.275.597 45.186 4.329 8.606 2.309 21.899 6.787 29.54 9.952l13.894 5.755-9.847 1.104c-58.4 6.552-106.703 28.98-142.016 65.944-27.825 29.125-44.98 61.94-52.637 100.692-3.057 15.473-2.603 56.97.79 72.208 9.268 41.608 28.807 77.162 57.568 104.75 30.69 29.44 64.521 46.747 108.456 55.484 20.532 4.083 71.036 4.105 91.842.04 45.472-8.885 78.98-25.567 106.368-52.954 20.664-20.664 36.485-47.804 44.113-75.673 5.34-19.507 5.233-52.654-.221-69.31-4.842-14.786-16.822-33.194-28.45-43.717-18.26-16.523-38.201-27.163-81.45-43.46-25.943-9.776-33.133-14.763-35.94-24.93-3.543-12.83 4.19-25.088 18.323-29.045 8.297-2.323 17.5-1.259 29.362 3.394 4.287 1.682 7.795 2.727 7.795 2.323 0-.405-1.598-5.007-3.552-10.228-2.46-6.579-6.134-12.014-11.963-17.704l-8.411-8.21 13.726.583c16.468.7 52.236-2.25 69.28-5.716 19.105-3.884 41.43-11.816 54.96-19.526l12.325-7.023-.034 95.434c-.04 111.579-1.194 134.995-8.021 162.72-12.76 51.811-26.981 78.706-56.713 107.25-34.231 32.863-76.99 51.398-132.985 57.646-13.716 1.531-48.824 1.846-64.003.574z" style="fill:#a41d34;fill-opacity:1;stroke:none;stroke-width:1.6411016;stroke-opacity:1" transform="matrix(.36818 0 0 .36818 2 -33.192)"/><path d="M22.428 576.464c-1.076-7.026-1.478-33.738-.642-42.65 6.234-66.475 47.58-125.78 109.694-157.344 28.918-14.695 60.272-23.034 93.098-24.76l7.515-.396-4.904-2.28c-31.167-14.488-54.526-20.303-84.975-21.156-30.676-.86-56.855 4.826-83.298 18.09-18.284 9.17-31.37 18.841-47.979 35.452L.346 392.014l.147-56.875.148-56.875 6.963-3.695c38.15-20.248 91.984-31.88 135.916-29.366 39.799 2.277 67.946 12.108 100.276 35.024 3.535 2.506 12.282 9.168 19.438 14.805 26.726 21.053 36.507 27.75 50.725 34.727 17.08 8.383 31.868 12.274 51.706 13.606 21.537 1.446 42.467-2.284 65.16-11.612 11.014-4.527 24.702-11.732 33.233-17.492 1.817-1.227 3.45-2.231 3.626-2.231.177 0 .322 8.028.321 17.841v17.842l-5.077 3.187c-25.715 16.145-56.787 25.214-97.62 28.49-10.13.813-36.475 1.002-46.127.331l-6.963-.484 4.642 3.022c6.083 3.96 13.206 11.275 16.694 17.144 2.423 4.078 7.184 15.72 6.648 16.255-.107.108-2.214-.589-4.682-1.547-8.975-3.485-15.17-4.828-22.432-4.863-5.521-.026-7.342.2-10.554 1.31-7.669 2.65-13.375 7.471-16.583 14.012-1.41 2.874-1.576 3.857-1.58 9.314-.003 5.774.103 6.32 1.982 10.154 2.27 4.632 6.809 9.4 11.738 12.33 1.753 1.04 12.534 5.421 23.96 9.734 24.806 9.363 35.193 13.682 45.288 18.832 32.832 16.749 54.167 39.105 63.207 66.231 2.61 7.833 4.303 16.337 4.77 23.955l.375 6.13h-94.462l-.01-12.039c-.011-13.155-.41-15.731-3.784-24.483-2.503-6.489-6.822-12.837-12.667-18.618-8.729-8.634-20.617-15.496-40.042-23.115-18.235-7.152-25.56-11.594-35.48-21.52-9.99-9.996-16.916-21.952-20.419-35.248-1.683-6.39-1.802-7.507-1.811-16.993-.008-8.686.174-10.825 1.266-14.796 2.922-10.631 10.147-22.102 17.77-28.21 2.081-1.668 3.686-3.131 3.567-3.251-.393-.392-7.745 1.514-15.292 3.965-53.114 17.25-97.66 61.748-109.134 109.017-2.609 10.746-3.208 17.032-2.813 29.51.597 18.884 4.948 34.58 13.915 50.193l3.21 5.588H23.16Z" style="fill:#14c0f1;fill-opacity:1;stroke:none;stroke-width:.58021706;stroke-opacity:1" transform="matrix(.36818 0 0 .36818 2 -33.192)"/></svg>