<svg xmlns="http://www.w3.org/2000/svg" xml:space="preserve" width="449.703px" height="568.273px" x="0px" y="0px" version="1.0" viewBox="0 0 449.703 568.273"><path fill="#FFF" fill-rule="evenodd" stroke="#000" stroke-miterlimit="2.6131" stroke-width="7.0145" d="M31.905 287.434c0 69.223-27.773 151.591-27.773 151.591 89.489 67.471 91.693 125.742 91.693 125.742h258.056s2.203-58.271 91.69-125.742c0 0-27.771-82.368-27.771-151.591v-6.592c0-69.224 27.771-151.592 27.771-151.592-89.487-67.472-91.69-125.742-91.69-125.742H95.825S93.62 61.778 4.132 129.25c0 0 27.773 82.368 27.773 151.592v6.592z" clip-rule="evenodd"/><path fill="#E2001A" fill-rule="evenodd" stroke="#000" stroke-miterlimit="2.6131" stroke-width="7.0145" d="M53.063 297.072c0 58.271-24.245 134.941-24.245 134.941 76.128 66.806 84.639 111.724 84.639 111.724h222.79s12.035-48.425 84.639-111.724c0 0-24.246-76.67-24.246-134.941v-25.869c0-58.271 24.246-134.943 24.246-134.943-77.892-66.804-84.639-111.724-84.639-111.724h-222.79S103.184 77.342 28.818 136.26c0 0 24.245 76.671 24.245 134.943v25.869z" clip-rule="evenodd"/><path fill-rule="evenodd" d="M374.207 196.064v-49.071H268.85v.218h-.223v108.438h-35.265V105.153h-49.371v150.496h-35.267V147.211H99.351v265.944h49.373V304.719h35.267v150.495h49.371V304.719h35.265v108.436h49.374V304.719h35.045v-49.07h-35.045v-59.585h56.206z" clip-rule="evenodd"/><path fill="#FFF" fill-rule="evenodd" d="M367.152 189.055v-35.051h-91.251v.218h-.219V262.66h-49.373V112.164h-35.266V262.66H141.67V154.222h-35.266v251.923h35.266V297.708h49.373v150.498h35.266V297.708h49.373v108.437h35.264V297.708h35.048V262.66h-35.048v-73.605h56.206z" clip-rule="evenodd"/></svg>