<svg xmlns="http://www.w3.org/2000/svg" xml:space="preserve" width="565.031px" height="621.547px" x="0px" y="0px" viewBox="0 0 565.031 621.547"><g fill-rule="evenodd" clip-rule="evenodd"><path fill="#FFF" d="M108.858 81.351v448.764l452.399-81.318V.035L108.858 81.351z"/><path fill="#004B95" d="m0 207.615.405 31.55c79.056 2.592 108.459 15.551 108.459 15.551v-30.699C53.987 208.021 0 207.615 0 207.615zM.405 311.065c79.056 2.591 108.459 15.552 108.459 15.552v-30.699C53.987 279.92 0 279.517 0 279.517l.405 31.548zM.405 382.572c79.056 2.59 108.459 15.551 108.459 15.551v-30.699C53.987 351.426 0 351.021 0 351.021l.405 31.551z"/><path fill="#004B95" d="m268.695 52.621-81.122 14.582c13.366 38.029 86.134 32.728 86.134 32.728 1.742 4.778 3.443 15.147 3.443 32.4 0 31.104-21.142 37.584-21.142 37.584-12.959-3.889-17.739-15.552-17.739-15.552 14.661-12.514 12.96-25.92 12.96-25.92-63.949-6.48-78.837-58.51-78.837-58.51l-63.535 11.419-.026 142.671c2.917 1.296 18.954 7.209 41.432 7.209 39.325 0 77.517-26.325 122.148-43.618 50.867-19.603 106.271-25.92 106.271-25.92C364.427 92.56 268.695 52.622 268.695 52.621z"/><path fill="#004B95" d="M302.337 46.575C408.609 98.82 418.009 189.354 418.009 189.354c-98.051 4.78-158.963 29.363-188.771 47.912-29.808 18.549-56.173 25.515-79.947 25.515-23.773 0-40.427-8.064-40.427-8.064v41.202s11.469 6.593 37.835 6.593 55.728-13.811 67.392-19.44 56.173-26.325 56.173-26.325v32.805s-9.518 2.592-34.587 15.998c-25.069 13.406-58.32 28.183-85.09 28.183-26.771 0-41.723-7.115-41.723-7.115l-.006 40.713c3.787 1.914 16.725 6.461 39.583 6.461 38.88 0 83.794-28.066 83.794-28.066v31.953c-29.362 18.996-58.765 27.453-82.943 27.453-24.179 0-40.427-7.008-40.427-7.008l-.006 131.99 225.32-40.5c-6.482-60.91-44.919-148.221-44.919-148.221l22.478-.852c36.286 68.244 53.478 143.494 53.478 143.494l41.398-7.439c-1.295-10.814-19.303-53.559-19.303-53.559l22.031-.848c5.185 6.924 22.03 49.953 22.03 49.953l37.01-6.65c-27.216-95.904-70.703-96.885-70.703-96.885l.001-8.182 41.469-3.482c44.471 60.02 61.29 102.785 61.29 102.785l60.875-10.93L561.321 0 302.337 46.575zm91.291 157.278c3.644-.526 9.84-1.822 12.433.771 2.592 2.592 15.836 22.315 25.15 47.182 9.315 24.867 15.512 45.359 15.794 47.183.286 1.822 1.298 4.617-1.82 4.374-3.119-.244-18.145 0-19.685 0-1.54 0-2.591-.729-3.36-4.374-.77-3.646-7.048-31.104-11.423-45.887-4.373-14.783-16.604-42.201-18.144-44.306-1.538-2.107-2.592-4.417 1.055-4.943zm-60.144 24.098c-.081-1.782.81-3.888 3.646-4.658 2.835-.769 25.148-4.373 27.741-4.13 2.594.243 5.185-.809 5.185 2.835v5.427c0 1.58 1.012 1.822 2.31 1.822 1.296 0 3.158.77 2.874 3.362-.283 2.592-1.823 5.71-3.117 7.006-1.296 1.295-2.918 1.822-6.521.526-3.603-1.297-21.505-6.439-25.636-6.724-4.132-.282-6.199-.039-6.482-5.466zm59.902 118.219c-6.481.646-13.609 1.621-17.173 6.805l-18.792-.324s14.255-36.611 36.287-36.611c20.412-.002 32.724 0 35.314 0 2.593-.002 5.51 0 9.074 4.859 3.564 4.861 11.017 18.469 11.34 23.652.002-.002-49.572.972-56.05 1.619zM148.891 604.832l.001 9.553-39.846 7.162-.01-52.106 13.053-2.347.008 42.554 26.794-4.816zM163.389 611.777l-.005-24.336-20.616-24.066 15.765-2.834 11.375 14.348 11.425-18.446 15.709-2.824-20.606 31.494.005 24.317-13.052 2.347zM257.943 542.672l.011 52.107-10.962 1.971-28.777-28.211.007 33.381-13.053 2.348-.01-52.106 11.997-2.156 27.741 26.865-.007-31.851 13.053-2.348zM321.767 534.691l.003 11.381c-6.683-1.982-13.215-2.4-19.598-1.254-6.156 1.107-10.9 3.508-14.228 7.203-3.326 3.695-4.988 7.939-4.988 12.734 0 4.594 1.662 8.018 4.992 10.266 3.327 2.246 7.706 2.885 13.136 1.908 2.879-.518 5.766-1.656 8.668-3.418l-.002-6.064-7.557 1.357-.002-9.551 20.611-3.707.003 21.316c-2.071 2.438-5.223 4.691-9.454 6.756-4.23 2.066-8.416 3.475-12.562 4.219-9.11 1.637-16.593.471-22.447-3.504-5.855-3.977-8.781-9.842-8.783-17.604-.002-7.932 2.926-14.926 8.785-20.98 5.86-6.057 13.447-9.922 22.767-11.596 7.699-1.383 14.584-1.204 20.656.538zM336.361 528.576l22.491-4.045c5.361-.961 9.575-.424 12.643 1.615 3.068 2.041 4.6 4.828 4.602 8.365 0 4.533-2.38 8.436-7.142 11.707 3.592.299 6.348 1.467 8.271 3.506 1.921 2.039 2.883 4.645 2.883 7.824.003 4.52-1.553 8.475-4.66 11.863-3.106 3.389-7.68 5.627-13.72 6.711l-25.355 4.559-.013-52.105zm13.056 7.207.003 11.178 6.715-1.205c2.065-.371 3.678-1.197 4.833-2.477 1.154-1.279 1.732-2.729 1.732-4.35 0-1.594-.578-2.813-1.734-3.652-1.155-.84-2.769-1.072-4.834-.701l-6.715 1.207zm.005 20.733.002 12.268 7.267-1.307c3.436-.617 5.908-1.539 7.416-2.764 1.509-1.223 2.263-3.014 2.263-5.369 0-1.809-.719-3.111-2.151-3.906-1.437-.795-3.353-.98-5.748-.547l-9.049 1.625zM403.352 568.643l-.005-24.334-20.616-24.067 15.766-2.834 11.374 14.348 11.426-18.445 15.708-2.825-20.604 31.493.005 24.318-13.054 2.346zM462.799 505.852l22.49-4.043c5.361-.965 9.574-.426 12.642 1.611 3.068 2.043 4.601 4.83 4.603 8.367 0 4.533-2.381 8.436-7.143 11.709 3.593.297 6.348 1.463 8.271 3.504 1.922 2.039 2.883 4.645 2.883 7.822.003 4.52-1.552 8.475-4.66 11.865-3.105 3.389-7.68 5.625-13.72 6.709l-25.355 4.559-.011-52.103zm13.054 7.207.004 11.18 6.714-1.207c2.066-.373 3.678-1.197 4.833-2.477 1.156-1.279 1.733-2.73 1.733-4.35 0-1.596-.578-2.813-1.735-3.654-1.154-.838-2.767-1.072-4.834-.701l-6.715 1.209zm.005 20.732.001 12.266 7.268-1.305c3.435-.617 5.907-1.539 7.416-2.764 1.508-1.225 2.262-3.016 2.262-5.371 0-1.807-.719-3.109-2.151-3.904-1.434-.795-3.352-.98-5.748-.547l-9.048 1.625zM558.951 488.566l-16.993 27.514 23.073 23.5-16.444 2.957-20.545-20.75.006 24.442-13.053 2.345-.012-52.105 13.052-2.346.006 23.447 16.565-26.427 14.345-2.577z"/></g></svg>