<svg xmlns="http://www.w3.org/2000/svg" width="83.608307mm" height="83.599098mm" viewBox="0 0 83.608307 83.599098"><path d="M110.016 190.443c.076.36-.353-1.412-.208-1.869.146-.457.748-1.12.748-1.12l-6.734-8.209c-.872 2.755-4.367 11.184-4.367 11.184l.747 6.575 10.679-5.108s-.837-1.135-.865-1.453" style="fill:#112654;fill-opacity:1;fill-rule:nonzero;stroke:none;stroke-width:1.77171" transform="translate(-71.807 -124.724)"/><path d="m113.608 124.724-5.004 5.004 1.599 1.599 3.405-3.413c.955.948 4.915 4.914 7.13 7.121a19.375 19.375 0 0 0-1.649-.444c-4.27-.906-3.646.133-3.646.133l5.543 4.485-7.046 3.309 3.979.955-13.807 14.165s0 .424-.49 1.406c-.277.436-.34.457-.943 1.163 0 0 .603 1.085.631 1.915.035 1.426-.2 2.126-.2 2.126s.517.595 1.023 1.059c.124.035 4.41-2.105 4.41-2.105l-1.068 1.428-1.632 2.4 3.849-.207 1.495-2.492 4.007-1.528 2.725-.763s2.125-3.003 2.125-2.982c1.142 1.813 1.178 8.407.423 10.664-.276.823 11.807-3.715 16.195-9.432 1.433-1.868 2.76-4.168 3.597-5.725.173.173.348.34.514.506-1.052 3.454-3.905 7.863-6.224 9.58-4.803 3.543-10.871 6.351-13.986 7.064-2.048.47 6.146.062 13.787-1.827 8.844-2.194 11.523-5.398 11.523-5.398s.317-1.992.366-2.995c.02-.312.043-.623.057-.893 3.128 3.128 5.432 5.43 5.93 5.922-.145.138-.58.583-1.259 1.262-2.837-.36-4.41-1.428-4.41-1.428s-3.32 2.734-10.684 4.817c-7.357 2.083-16.028 2.533-16.028 2.533l8.637 16.563c-.277.277-.554.56-.83.83-3.724-6.879-8.847-17.225-9.11-17.149-4.097 1.17-6.74-2.798-6.74-2.735-2.256-1.032-3.391-2.151-6.063-3.348l-.042-.058c-1.737-.754-3.424-1.541-5.162-2.35.015-.006.006-.021.014-.031l-.076-.035c-1.017.637-2.085 1.279-6.016 3.784-.034.05-1.396.825-1.396.887-.138.083-1.614.79-1.614.79l-2.172 1.001-.88 1.191-1.043 1.4-.914 1.416 8.02 7.283 2.735-4.015s.865-2.09 2.782-2.214c.803-.05 2.214 1.183 2.214 1.183-.146-.505.07-2.042.02-2.52 0-.11 1.038.499 3.385 3.343a58.483 58.483 0 0 1 2.686 2.998l1.204 1.383 1.674 2.305 5.211 5.813 10.174.781-12.943 12.943c-1.322-1.301-9.107-8.915-9.107-8.915l-2.068 1.004 11.19 11.087 41.8-41.802-9.044-9.044c-.056-.9-.181-2.775-.32-3.854-.18-1.467-.56-2.845-.56-2.845l-.436-1.544-.96-2.774-.839-1.918-1.19-2.222-.914-1.523s-1.315-2.042-2.284-3.156c-.97-1.114-2.816-2.99-2.816-2.99l-3.563 4.189-1.06-.955 3.302-4.36s-3.121-2.354-3.509-2.603c-2.152-1.37-7.412-2.43-7.412-2.43l.124 3.268-.124 3.156zm4.54 22.465 1.177 1.204s-.886.905-1.544 1.189c-.796.173-1.136.21-1.232.202-.298-.025-.935-.186-.935-.186zm-12.36 10.423s.443 1.106.429 1.134l.075.49c.131.527-.457.852-.83 1.37-.146.146-.359.28-.566.245-.139-.104-.097-.478.041-.747.132-.672-.008-.872-.015-1.495.062-.229.153-.326.36-.444z" style="fill:#112654;fill-opacity:1;fill-rule:nonzero;stroke:none;stroke-width:1.77171" transform="translate(-71.807 -124.724)"/><path d="m97.753 189.301.014-.015s-21.282-21.267-22.77-22.762c1.01-1.004 3.094-3.087 3.094-3.087l-1.599-1.599-4.685 4.686 26.257 26.257zM80.438 153.382l-.291.29 2.222 5.157-2.674-.56c.125-.27.16-.561.112-.872a1.419 1.419 0 0 0-.402-.79c-.727-.726-1.556-.622-2.497.312-.152.152-.346.352-.581.615-.235.256-.369.41-.41.444l3.682 3.703.686-.68-1.537-1.541c.187-.173.332-.305.428-.402l2.513.547.706-.706.742-.734-.493-1.005 1.266-1.258 1.018.477.734-.719zm.98 1.282 1.794.913-.885.885zm-3.285 2.434c.208-.062.402 0 .581.174.222.228.303.436.255.643-.048.201-.214.442-.49.72-.063.062-.16.145-.291.256l-1.018-1.017c.07-.09.139-.167.208-.236.297-.298.547-.47.755-.54zM86.68 154.649l-2.277-2.29 4.117.546.277-.27-3.73-3.75-.637.636 2.215 2.221-3.959-.484-.325.318 3.682 3.703zM88.527 146.33c-.63 0-1.212.27-1.752.802-.131.138-.455.472-.96 1.012l3.68 3.696.818-.818c1.28-1.273 1.26-2.574-.063-3.903-.519-.526-1.093-.789-1.723-.789zm-.072.895c.38.016.765.217 1.16.608.429.436.663.865.719 1.287.048.429-.091.809-.423 1.134-.125.125-.24.235-.359.332l-2.507-2.52a5.65 5.65 0 0 1 .286-.316c.37-.364.744-.538 1.124-.525zM95.157 146.213l-.588-.589-1.675 1.668-1.1-1.1 1.19-1.19-.56-.561-1.19 1.183-.852-.851 1.682-1.675-.588-.588-2.333 2.325 3.675 3.703zM94.395 140.07c-.415.052-.858.312-1.329.779-.152.152-.346.359-.581.615-.235.263-.373.41-.407.444l3.682 3.703.678-.68-1.537-1.541.436-.402 2.505.547.763-.755-2.756-.581c.124-.27.16-.56.111-.872a1.38 1.38 0 0 0-.402-.79c-.36-.363-.748-.518-1.163-.466zm.195.955c.097.03.191.091.278.185.221.221.31.428.254.636-.048.2-.213.443-.483.713-.07.07-.167.151-.298.262l-1.01-1.017c.062-.09.132-.167.208-.236.29-.29.538-.47.752-.54a.53.53 0 0 1 .299-.003zM96.486 140.212c.18.07.367.104.554.097.187-.005.498-.076.92-.221.422-.139.74-.194.941-.173a.823.823 0 0 1 .499.228c.263.27.207.596-.18.976-.25.25-.595.409-1.038.485l.346.83a2.31 2.31 0 0 0 1.204-.657c.401-.395.623-.81.664-1.239a1.263 1.263 0 0 0-.38-1.086 1.772 1.772 0 0 0-.533-.374 1.498 1.498 0 0 0-.602-.104c-.215.005-.505.07-.872.2-.692.236-1.15.25-1.357.041a.568.568 0 0 1-.187-.436c0-.166.083-.318.236-.47.256-.257.574-.416.969-.478l-.367-.768c-.36.04-.755.27-1.184.699-.325.325-.498.685-.526 1.08-.02.4.111.74.402 1.024.152.159.318.27.491.346M103.788 137.63l-1.69-1.695 1.302-1.294-.56-.56-1.302 1.294-.851-.859 1.779-1.764-.582-.589-2.436 2.423 3.675 3.702zM104.134 133.624c.588.588 1.19.906 1.813.962.63.055 1.197-.174 1.716-.692.52-.513.775-1.052.755-1.606l-.831-.229c.048.45-.104.845-.45 1.198a1.272 1.272 0 0 1-1.086.38c-.416-.05-.817-.27-1.205-.664-.394-.395-.622-.817-.678-1.273-.055-.457.07-.838.38-1.15.326-.325.638-.484.935-.484l-.27-.81c-.429.077-.858.326-1.287.748-.498.498-.727 1.086-.678 1.772.048.685.346 1.3.886 1.847" style="fill:#112654;fill-opacity:1;fill-rule:nonzero;stroke:none;stroke-width:1.77171" transform="translate(-71.807 -124.724)"/></svg>