<svg xmlns="http://www.w3.org/2000/svg" width="68.344475mm" height="68.145828mm" viewBox="0 0 68.344475 68.145828"><defs><clipPath id="a" clipPathUnits="userSpaceOnUse"><path d="M0 0h595.276v841.89H0Z"/></clipPath><clipPath id="b" clipPathUnits="userSpaceOnUse"><path d="M0 0h595.276v841.89H0Z"/></clipPath><clipPath id="c" clipPathUnits="userSpaceOnUse"><path d="M0 0h595.276v841.89H0Z"/></clipPath><clipPath id="d" clipPathUnits="userSpaceOnUse"><path d="M0 0h595.276v841.89H0Z"/></clipPath><clipPath id="e" clipPathUnits="userSpaceOnUse"><path d="M0 0h595.276v841.89H0Z"/></clipPath><clipPath id="f" clipPathUnits="userSpaceOnUse"><path d="M0 0h595.276v841.89H0Z"/></clipPath><clipPath id="g" clipPathUnits="userSpaceOnUse"><path d="M0 0h595.276v841.89H0Z"/></clipPath><clipPath id="h" clipPathUnits="userSpaceOnUse"><path d="M0 0h595.276v841.89H0Z"/></clipPath><clipPath id="i" clipPathUnits="userSpaceOnUse"><path d="M0 0h595.276v841.89H0Z"/></clipPath><clipPath id="j" clipPathUnits="userSpaceOnUse"><path d="M0 0h595.276v841.89H0Z"/></clipPath><clipPath id="k" clipPathUnits="userSpaceOnUse"><path d="M0 0h595.276v841.89H0Z"/></clipPath><clipPath id="l" clipPathUnits="userSpaceOnUse"><path d="M0 0h595.276v841.89H0Z"/></clipPath></defs><path d="M0 0c4.403-9.57 3.036-21.865-3.386-30.029-7.347-9.771-20.291-14.076-32.385-10.38-10.591 2.932-19.339 13.078-20.806 23.872-1.775 12.161 4.064 24.155 14.588 30.206 7.585 4.539 18.96 5.224 27.023 1.394C-8.614 12.091-2.564 6.799 0 0" style="fill:#0995d4;fill-opacity:1;fill-rule:nonzero;stroke:none" transform="matrix(1.11591 0 0 -1.11591 64.487 20.587)"/><path d="M0 0h-1.778l.07 8.167H0Z" style="fill:#fff;fill-opacity:1;fill-rule:nonzero;stroke:none" transform="matrix(1.11591 0 0 -1.11591 35.092 12.011)"/><g clip-path="url(#a)" transform="matrix(1.11591 0 0 -1.11591 -267.165 215.224)"><path d="m0 0-.615-1.093C-1.912-.685-3.008.375-4.372.749c-.411-.511-.749-1.13-.786-1.711l2.938-1.635c.137-.375-.411-.652-.514-1.023h-.442c-.922.511-1.778 1.227-2.801 1.467-.685-.922-1.026-1.982-1.778-2.874-.411.378-1.605.414-1.264 1.133l3.861 6.762C-3.383 2.083-1.708 1.023 0 0" style="fill:#fff;fill-opacity:1;fill-rule:nonzero;stroke:none" transform="translate(287.395 184.602)"/><path d="M0 0c-.171-.374-.752-.648-1.194-.886-.444.338-1.297.545-1.912.238-.481-.308-.959-.649-1.196-1.197 0-.442.237-.886.682-1.023 1.741.24 3.693 1.812 5.362.377.548-.685.855-1.541.618-2.426C1.778-6.458.073-7.786-1.638-7.822c-.889.1-1.778.307-2.29 1.193.478.381.889.819 1.468.889.414-.408.925-.718 1.504-.508.652.17 1.23.749 1.675 1.331.24.478-.034.989-.512 1.227-2.086 0-4.409-2.013-5.913.31-.478.956-.03 2.047.448 2.871 1.093.99 2.56 1.91 4.131 1.395C-.716.685-.341.378 0 0" style="fill:#fff;fill-opacity:1;fill-rule:nonzero;stroke:none" transform="translate(258.697 185.625)"/><path d="M0 0c.067-.649-.311-1.297-.956-1.331-.481-.067-.959.274-1.093.716 0 .548.167 1.233.785 1.331C-.615.819-.241.514 0 0" style="fill:#fff;fill-opacity:1;fill-rule:nonzero;stroke:none" transform="translate(265.396 185.795)"/><path d="M0 0c.104-.545-.171-1.057-.615-1.264-.512-.204-1.127-.033-1.401.445-.237.581.104 1.264.685 1.468C-.819.789-.137.514 0 0" style="fill:#fff;fill-opacity:1;fill-rule:nonzero;stroke:none" transform="translate(276.257 185.795)"/><path d="M0 0c2.731-5.432 2.29-12.642-.992-17.697-3.451-5.807-10.183-9.019-17.32-8.267-6.528.856-13.12 5.566-15.069 12.091-2.22 6.325-.579 14.043 4.305 18.519 4.613 4.574 11.891 6.73 18.519 4.44C-6.014 7.615-2.189 4.238 0 0" style="fill:#fff;fill-opacity:1;fill-rule:nonzero;stroke:none" transform="translate(286.372 170.355)"/><path d="M0 0c-.104-1.604-1.504-3.142-.682-4.646.171-.071.271-.204.375-.308C1.127-3.039 3.109-.718 5.98-1.571c.509-.241 1.194-.615 1.398-1.23.274-1.501-1.638-1.916-1.398-3.42-.07-.681 1.161-2.216-.444-2.113l-1.571-.514c.136 1.504.136 3.282 1.638 4.031.408.341 1.16.375 1.263.956 0 .618-.682.822-1.126.959-3.21 1.057-6.321-5.809-8.167-.514-1.738.615-.989-1.706-2.286-1.913-2.634-.478-3.554 2.561-6.084 2.528-.752 0-1.605-.238-1.909-.889.271-1.127 1.875-1.06 2.286-2.083.308-.926.615-1.882.615-2.938-.685.033-1.537.444-2.289.645.103.789.545 2.056.07 2.972-.515.652-1.507 1.264-1.13 2.36.448.889 1.367 1.199 2.223 1.333 2.353.101 4.168-1.638 5.328-3.553.548.341.686.993.786 1.538-.441.103 0 .682-.344.889l-.749 2.46 2.871 3.587C-1.946 2.497-1.023 1.163 0 0" style="fill:#0995d4;fill-opacity:1;fill-rule:nonzero;stroke:none" transform="translate(273.08 176.127)"/><path d="M0 0c-.137-.033-.036-.171-.07-.274l-2.427 2.801C-3.386 1.775-4.065.719-4.954-.207c-.174.174 0 .378.07.515l2.287 2.801z" style="fill:#fff;fill-opacity:1;fill-rule:nonzero;stroke:none" transform="translate(272.706 175.957)"/></g><path d="m0 0-.067-3.516h.168V0Z" style="fill:#fff;fill-opacity:1;fill-rule:nonzero;stroke:none" transform="matrix(1.11591 0 0 -1.11591 34.252 16.89)"/><g clip-path="url(#b)" transform="matrix(1.11591 0 0 -1.11591 -267.165 215.224)"><path d="M0 0c.1-.441-.137-.716-.274-1.023h-1.401v2.938Z" style="fill:#fff;fill-opacity:1;fill-rule:nonzero;stroke:none" transform="translate(272.399 175.239)"/><path d="M0 0c-.752.034-1.949-.274-1.678.953L-.07 2.868Z" style="fill:#fff;fill-opacity:1;fill-rule:nonzero;stroke:none" transform="translate(269.598 174.215)"/><path d="M0 0c-1.845 1.133-3.623 3.316-6.117 2.36l-.752-.612c-.204.271.17.475.14.752.919.99 2.183.886 3.413.682C-1.812 2.6-.785 1.37 0 0" style="fill:#fff;fill-opacity:1;fill-rule:nonzero;stroke:none" transform="translate(267.104 171.033)"/><path d="M0 0v-.341c-.514.612-1.434.779-2.357.716C-4.132.1-5.329-1.267-6.799-2.193c.922 1.852 2.56 3.182 4.576 3.387C-1.33 1.157-.445.819 0 0" style="fill:#fff;fill-opacity:1;fill-rule:nonzero;stroke:none" transform="translate(280.084 173.226)"/><path d="M0 0v-.207h-3.52v.274C-2.357.067-1.126.131 0 0" style="fill:#fff;fill-opacity:1;fill-rule:nonzero;stroke:none" transform="translate(271.954 173.533)"/><path d="M0 0c-.101-.713-.579-1.504-1.331-1.672h-.167C-.646-1.331-1.401.377 0 0" style="fill:#fff;fill-opacity:1;fill-rule:nonzero;stroke:none" transform="translate(269.32 172.641)"/><path d="m0 0 .441-.579C-.14-.542-.719-.034-.889.514l-.171.579C.033 1.541-.411.411 0 0" style="fill:#fff;fill-opacity:1;fill-rule:nonzero;stroke:none" transform="translate(272.058 171.548)"/><path d="m0 0-1.093.375-.308 1.333C-.649 1.504-.137.719 0 0" style="fill:#fff;fill-opacity:1;fill-rule:nonzero;stroke:none" transform="translate(262.661 169.398)"/><path d="M0 0c-.411-.752 0-1.806-1.264-1.708h-.137C-1.264-.99-.752-.204 0 0" style="fill:#fff;fill-opacity:1;fill-rule:nonzero;stroke:none" transform="translate(279.061 171.107)"/><path d="M0 0c.067.819 1.023.274 1.535.444.036-.17-.034-.34.173-.444.134.104.031.274.064.444C2.287.274 3.343.819 3.313 0c.304 0 .03.341.237.444h1.164c.033-.17-.034-.34.17-.444.204.578 1.026.408 1.605.444-.92-1.744-.579-4.031-.649-6.12.171-.128.445-.064.649-.1.067-.204-.171-.679.237-.649h.204c.14.174.07.445.07.649h1.572v-.649c.173-.134.444-.03.651-.067.137.204.067.475.067.716.308.07.752-.104.886.17-.134.14-.338.037-.508.07.612.786 1.571 1.297 2.424 1.915.892-.551 1.744-1.23 2.597-1.845 0-.31-.341-.036-.445-.21-.341-1.394.856-3.724-1.023-4.129-.274-.277-.103-.715-.173-1.062 1.059-.956 1.23-2.525 2.152-3.688.378.107.682.378 1.093.378-.1-.889-1.026-1.164-1.604-1.611-1.264-.238-2.187 1.267-3.487.722-.545-.582-1.263-.99-2.049-.789-.752.381-1.434 1.096-2.357.789-.785-.408-1.571-1.23-2.527-.789-.652.341-1.331.856-2.119.652-.889-.241-1.605-1.264-2.664-.652-.685.481-1.468 1.127-2.357.652-.615-.509-1.334-.89-2.153-.652-.716.241-1.334 1.3-2.223.789-.816-.408-1.809-1.334-2.801-.582-.475.512-1.16.752-1.297 1.471l1.163-.378a27.011 27.011 0 0 1 1.705 3.487c.719-.171.341.682.448 1.026-2.324.511-.786 3.002-1.334 4.436h-.24c.651.786 1.677 1.367 2.46 1.985.925-.581 1.778-1.199 2.493-1.915l-.374-.14c.207-.128.515-.064.752-.1v-.579c.171-.137.445-.033.649-.07.137.174.07.445.07.649h1.571c.067-.204-.207-.679.204-.649h.241c.134.174.03.445.067.649h.581l.067 4.135c-.445.615-.305 1.434-.648 2.085C-.989.274-.07.819 0 0" style="fill:#0995d4;fill-opacity:1;fill-rule:nonzero;stroke:none" transform="translate(267.685 169.262)"/><path d="M0 0c.374 0 1.023-.104.886.511.411.204.445-.31.512-.511.341.1 1.196-.274 1.026.438h.444c.137-.338-.24-.645-.204-1.02l-6.494-.07c0 .378-.305.652-.238 1.09.652.04.652-.816 1.471-.508.137.137.067.344.067.508.377.104.615-.1.615-.438 1.059-.515.545.953 1.604.511C-.207.338-.311.03 0 0" style="fill:#fff;fill-opacity:1;fill-rule:nonzero;stroke:none" transform="translate(270.794 168.887)"/><path d="M0 0c.137-.344-.033-.825.137-1.197-.511.305-1.127.372-1.708.545l.24 1.09C-.886.304-.447.134 0 0" style="fill:#fff;fill-opacity:1;fill-rule:nonzero;stroke:none" transform="translate(262.832 168.887)"/><path d="M0 0v-.274l-1.641-.442.17 1.094C-.856.545.03 1.13 0 0" style="fill:#fff;fill-opacity:1;fill-rule:nonzero;stroke:none" transform="translate(279.061 168.51)"/><path d="M0 0c-.067-.375-.171-.618-.514-.789-.613 0-1.161-.064-1.435.445V0Z" style="fill:#ec2b34;fill-opacity:1;fill-rule:nonzero;stroke:none" transform="translate(271.169 167.69)"/><path d="M0 0c.033-.411-.378-.514-.615-.719l-.889-.064V0Z" style="fill:#ec2b34;fill-opacity:1;fill-rule:nonzero;stroke:none" transform="translate(268.812 167.62)"/><path d="M0 0c-.682-.064-1.127.067-1.571.445v.274H0Z" style="fill:#ec2b34;fill-opacity:1;fill-rule:nonzero;stroke:none" transform="translate(273.08 166.901)"/><path d="M0 0c.99-.305 2.083.274 3.106.067-.408-.749-1.364-1.501-1.778-2.18.548-.825 1.266-1.581 1.711-2.464l-2.905.549c-.545-.826-.615-1.846-1.16-2.665-.411.819-.685 1.839-1.197 2.729l-2.731-.375 1.705 2.156C-3.69-1.297-4.65-.545-4.787.378c1.026 0 2.668-1.295 3.182.237.235.615.375 1.264.716 1.848C-.378 1.778-.411.789 0 0" style="fill:#fff;fill-opacity:1;fill-rule:nonzero;stroke:none" transform="translate(246.88 164.374)"/><path d="M0 0c.372-.481 0-1.985 1.16-1.398l2.22.268c-.408-.919-1.23-1.297-1.775-2.18.374-.789 1.13-1.544 1.708-2.296-.822-.03-1.812.311-2.801.277C.034-6.184-.274-7.07-.685-7.96h-.137c-.375.853-.411 1.846-.956 2.631l-2.868-.444c.441.855 1.193 1.4 1.671 2.15-.341.992-1.33 1.51-1.671 2.493l2.731-.341 1.16 2.634C-.24 1.09-.344.374 0 0" style="fill:#fff;fill-opacity:1;fill-rule:nonzero;stroke:none" transform="translate(294.776 165.571)"/><path d="M0 0c-.207-.137-.548-.04-.819-.067v1.568h.749Z" style="fill:#ec2b34;fill-opacity:1;fill-rule:nonzero;stroke:none" transform="translate(268.197 164.889)"/><path d="M0 0c-.238-.137-.545-.04-.819-.067l-.067 1.568H0Z" style="fill:#ec2b34;fill-opacity:1;fill-rule:nonzero;stroke:none" transform="translate(270.654 164.889)"/></g><path d="M272.262 164.822h.819v1.569h-.819z" style="fill:#ec2b34;fill-opacity:1;fill-rule:nonzero;stroke:none" transform="matrix(1.11591 0 0 -1.11591 -267.165 215.224)"/><path d="m0 0 1.334 1.029L2.804 0Z" style="fill:#fff;fill-opacity:1;fill-rule:nonzero;stroke:none" transform="matrix(1.11591 0 0 -1.11591 22.088 32.103)"/><g clip-path="url(#c)" transform="matrix(1.11591 0 0 -1.11591 -267.165 215.224)"><path d="M0 0h-2.801c.511.311 1.123 1.233 1.708.889z" style="fill:#fff;fill-opacity:1;fill-rule:nonzero;stroke:none" transform="translate(281.248 164.1)"/><path d="M0 0c.137-.201.07-.478.104-.719-.375-.1-.993-.03-.752-.682h-.582c-.033.241.103.822-.378.612h-.237l.101.789Z" style="fill:#ec2b34;fill-opacity:1;fill-rule:nonzero;stroke:none" transform="translate(271.065 164.374)"/><path d="M0 0c.137-.201.036-.545.07-.789h-.375c-.137-.204-.036-.441-.07-.679h-.511c-.067.238.137.889-.375.679h-.24l.103.789Z" style="fill:#ec2b34;fill-opacity:1;fill-rule:nonzero;stroke:none" transform="translate(273.011 164.374)"/><path d="M0 0c.104-.207.033-.478.067-.722h-.512c-.137-.204-.067-.441-.103-.679h-.579c.442.889-.855.551-.307 1.401Z" style="fill:#ec2b34;fill-opacity:1;fill-rule:nonzero;stroke:none" transform="translate(268.812 164.307)"/><path d="M0 0c.14-.542-.685-.576-.512-1.194v-.514h-.953L-1.401 0Z" style="fill:#ec2b34;fill-opacity:1;fill-rule:nonzero;stroke:none" transform="translate(260.235 163.586)"/><path d="M0 0h-.956c.207.789-.344 1.23-.512 1.772H0Z" style="fill:#ec2b34;fill-opacity:1;fill-rule:nonzero;stroke:none" transform="translate(262.217 161.814)"/><path d="M0 0h-1.026c-.104.475.274 1.23-.444 1.401v.371H0Z" style="fill:#ec2b34;fill-opacity:1;fill-rule:nonzero;stroke:none" transform="translate(281.625 161.814)"/><path d="M0 0c-.481-.304-.786-.956-.649-1.672h-.822V0Z" style="fill:#ec2b34;fill-opacity:1;fill-rule:nonzero;stroke:none" transform="translate(279.71 163.485)"/><path d="M0 0c.344-.137.786-.034 1.197-.064.137.164.036.442.07.679h.715V0l1.264-.064c.137.164.034.442.07.679h.886V0c.344-.137.786-.034 1.197-.064.137.164.033.442.07.679h.956V0l1.261-.064c.136.164.036.442.069.679h.819V0c.308-.137.716-.034 1.094-.064.137.164.036.442.07.679h.889V0c.304-.137.749-.034 1.093-.064v-.204H-2.049v.204h1.163l.064.679H0Z" style="fill:#fff;fill-opacity:1;fill-rule:nonzero;stroke:none" transform="translate(265.325 162.53)"/><path d="M0 0c-.615-.137-1.979-1.608-1.915 0Z" style="fill:#ec2b34;fill-opacity:1;fill-rule:nonzero;stroke:none" transform="translate(268.88 161.814)"/><path d="M0 0c-.171-1.675-1.434 0-2.153 0Z" style="fill:#ec2b34;fill-opacity:1;fill-rule:nonzero;stroke:none" transform="translate(273.526 161.814)"/><path d="M0 0c.137-.171.036-.448.07-.685-.749-.448-.378.481-.889.685Z" style="fill:#ec2b34;fill-opacity:1;fill-rule:nonzero;stroke:none" transform="translate(275.505 161.814)"/><path d="M0 0c.137-.171.064-.448.1-.685L-.959-.752V0Z" style="fill:#ec2b34;fill-opacity:1;fill-rule:nonzero;stroke:none" transform="translate(277.045 161.814)"/></g><path d="M263.276 161.061h1.091v.685h-1.091z" style="fill:#ec2b34;fill-opacity:1;fill-rule:nonzero;stroke:none" transform="matrix(1.11591 0 0 -1.11591 -267.165 215.224)"/><g clip-path="url(#d)" transform="matrix(1.11591 0 0 -1.11591 -267.165 215.224)"><path d="M0 0c-.374-.274-.137-.962-.819-.685V0Z" style="fill:#ec2b34;fill-opacity:1;fill-rule:nonzero;stroke:none" transform="translate(265.633 161.747)"/><path d="M0 0c1.093-1.574.411-3.864.615-5.776l-.548-.375C-.344-3.901 1.23-.514-1.541.408c-1.023.478-2.286.17-3.105-.579-1.334-1.507-.482-4.101-.719-5.913l-.515.551c.207 2.217-.749 5.256 1.678 6.316C-2.838 1.571-.992 1.057 0 0" style="fill:#fff;fill-opacity:1;fill-rule:nonzero;stroke:none" transform="translate(272.843 160.346)"/></g><path d="M0 0v-.749l1.534.064V0Z" style="fill:#ec2b34;fill-opacity:1;fill-rule:nonzero;stroke:none" transform="matrix(1.11591 0 0 -1.11591 21.599 35.154)"/><g clip-path="url(#e)" transform="matrix(1.11591 0 0 -1.11591 -267.165 215.224)"><path d="M0 0h-1.468c.067.241-.103.648.134.749H0Z" style="fill:#ec2b34;fill-opacity:1;fill-rule:nonzero;stroke:none" transform="translate(262.217 160.617)"/></g><path d="M278.239 160.617h1.331v.749h-1.331z" style="fill:#ec2b34;fill-opacity:1;fill-rule:nonzero;stroke:none" transform="matrix(1.11591 0 0 -1.11591 -267.165 215.224)"/><path d="m0 0 .07-.749h1.47V0Z" style="fill:#ec2b34;fill-opacity:1;fill-rule:nonzero;stroke:none" transform="matrix(1.11591 0 0 -1.11591 45.384 35.154)"/><g clip-path="url(#f)" transform="matrix(1.11591 0 0 -1.11591 -267.165 215.224)"><path d="M0 0v-.445h-2.36v.752C-1.571.204-.548.542 0 0" style="fill:#ec2b34;fill-opacity:1;fill-rule:nonzero;stroke:none" transform="translate(265.84 160.242)"/><path d="M0 0c-.307-.307-.173-.892-.822-.752C-1.13-.036-.24-.307 0 0" style="fill:#ec2b34;fill-opacity:1;fill-rule:nonzero;stroke:none" transform="translate(267.104 160.55)"/><path d="M0 0c-.581-.207-.548.512-.822.752C-.511.548.305.612 0 0" style="fill:#ec2b34;fill-opacity:1;fill-rule:nonzero;stroke:none" transform="translate(274.107 159.798)"/><path d="M0 0h-2.357c-.14.137-.036.341-.07.548C-1.745.919-.822.685 0 .752Z" style="fill:#ec2b34;fill-opacity:1;fill-rule:nonzero;stroke:none" transform="translate(276.909 159.798)"/><path d="M0 0c.103-.14.308-.036.445-.07.274.719.1 1.638.136 2.463.205.064.342-.103.442-.24V0c.137-.14.341-.036.515-.07l.103 1.848c.545-.411.134-1.266.341-1.848h.238v-.375c-.171.104-.271-.106-.308-.207v-.441h-.374c-.037.207.17.715-.274.579C.99-.378.923-.682.956-.855v-.238H.581c-.036.207.171.715-.273.579C.034-.378-.033-.682 0-.855v-.238h-.374c-.037.207.167.715-.275.579-.274.136-.343-.168-.31-.341v-.238h-.375c-.033.207.174.715-.271.579-.307.136-.344-.168-.307-.341v-.238h-.445c-.033.207.067.441-.07.579h-.167v.444h.167c.241.618-.274 1.611.515 1.915V0c.137-.14.341-.036.511-.07l.067 2.36.311.167.064-2.353c.107-.244.344-.14.514-.174l.071 2.6H0Z" style="fill:#fff;fill-opacity:1;fill-rule:nonzero;stroke:none" transform="translate(270.417 157.952)"/><path d="M0 0c-.445-.344-.749-1.096-1.468-.822l-.889.682C-1.708.134-.786-.037 0 0" style="fill:#ec2b34;fill-opacity:1;fill-rule:nonzero;stroke:none" transform="translate(261.772 160.175)"/><path d="M0 0c-.478-1.026-1.949-.926-2.494 0Z" style="fill:#ec2b34;fill-opacity:1;fill-rule:nonzero;stroke:none" transform="translate(281.04 160.175)"/><path d="M0 0c-.07-.14-.238-.033-.378-.067l.308.374C.07.271 0 .103 0 0" style="fill:#ec2b34;fill-opacity:1;fill-rule:nonzero;stroke:none" transform="translate(263.106 159.798)"/></g><path d="M277.283 159.731h.204v.234h-.204zM273.97 158.394h1.535v.893h-1.535z" style="fill:#ec2b34;fill-opacity:1;fill-rule:nonzero;stroke:none" transform="matrix(1.11591 0 0 -1.11591 -267.165 215.224)"/><g clip-path="url(#g)" transform="matrix(1.11591 0 0 -1.11591 -267.165 215.224)"><path d="M0 0v-.685h-2.357v.892C-1.571.14-.649.414 0 0" style="fill:#ec2b34;fill-opacity:1;fill-rule:nonzero;stroke:none" transform="translate(278.376 159.08)"/></g><path d="m0 0-.07-.825h2.36V0Z" style="fill:#ec2b34;fill-opacity:1;fill-rule:nonzero;stroke:none" transform="matrix(1.11591 0 0 -1.11591 25.371 37.55)"/><g clip-path="url(#h)" transform="matrix(1.11591 0 0 -1.11591 -267.165 215.224)"><path d="M0 0c-.137-.21-.067-.551-.104-.825h-1.537V0Z" style="fill:#ec2b34;fill-opacity:1;fill-rule:nonzero;stroke:none" transform="translate(266.522 159.22)"/><path d="M0 0c0-.137.031-.307-.137-.307h-.241c.137.1.241.27.378.307" style="fill:#ec2b34;fill-opacity:1;fill-rule:nonzero;stroke:none" transform="translate(261.638 158.638)"/></g><path d="M0 0h.238l-.17.137Z" style="fill:#ec2b34;fill-opacity:1;fill-rule:nonzero;stroke:none" transform="matrix(1.11591 0 0 -1.11591 43.899 38.351)"/><path d="m0 0-.067-.886 2.357.1V0Z" style="fill:#ec2b34;fill-opacity:1;fill-rule:nonzero;stroke:none" transform="matrix(1.11591 0 0 -1.11591 27.008 39.041)"/><path d="M266.419 157.097h.104v.786h-.104zM273.97 157.097h.204v.786h-.204zM274.615 157.097h2.223v.786h-2.223z" style="fill:#ec2b34;fill-opacity:1;fill-rule:nonzero;stroke:none" transform="matrix(1.11591 0 0 -1.11591 -267.165 215.224)"/><path d="M0 0v-.886l3.038.1V0Z" style="fill:#ec2b34;fill-opacity:1;fill-rule:nonzero;stroke:none" transform="matrix(1.11591 0 0 -1.11591 42.336 39.041)"/><path d="M260.1 156.997h2.936v.815H260.1Z" style="fill:#ec2b34;fill-opacity:1;fill-rule:nonzero;stroke:none" transform="matrix(1.11591 0 0 -1.11591 -267.165 215.224)"/><g clip-path="url(#i)" transform="matrix(1.11591 0 0 -1.11591 -267.165 215.224)"><path d="M0 0c-.579-.171-1.294.034-1.708.445l.1 2.935C-.956 2.36-.545 1.13 0 0" style="fill:#ec2b34;fill-opacity:1;fill-rule:nonzero;stroke:none" transform="translate(282.441 154.433)"/><path d="M0 0h-.378c.104 1.264.993 2.323 1.504 3.483C.749 2.323 2.049-.1 0 0" style="fill:#ec2b34;fill-opacity:1;fill-rule:nonzero;stroke:none" transform="translate(258.46 154.262)"/></g><path d="M274.037 155.769h1.467v.779h-1.467zM276.019 155.769h2.29v.779h-2.29z" style="fill:#ec2b34;fill-opacity:1;fill-rule:nonzero;stroke:none" transform="matrix(1.11591 0 0 -1.11591 -267.165 215.224)"/><path d="m0 0-.065-.713h1.468V0Z" style="fill:#ec2b34;fill-opacity:1;fill-rule:nonzero;stroke:none" transform="matrix(1.11591 0 0 -1.11591 23.156 40.604)"/><path d="M262.08 155.769h2.36v.713h-2.36z" style="fill:#ec2b34;fill-opacity:1;fill-rule:nonzero;stroke:none" transform="matrix(1.11591 0 0 -1.11591 -267.165 215.224)"/><path d="M0 0v-.713l1.468.064V0Z" style="fill:#ec2b34;fill-opacity:1;fill-rule:nonzero;stroke:none" transform="matrix(1.11591 0 0 -1.11591 28.497 40.604)"/><path d="M278.753 155.769h1.638v.713h-1.638z" style="fill:#ec2b34;fill-opacity:1;fill-rule:nonzero;stroke:none" transform="matrix(1.11591 0 0 -1.11591 -267.165 215.224)"/><g clip-path="url(#j)" transform="matrix(1.11591 0 0 -1.11591 -267.165 215.224)"><path d="M0 0c.14-.274.07-.652.07-.993-.615.171-1.23.682-1.912.893.579.133 1.23.066 1.842.1" style="fill:#ec2b34;fill-opacity:1;fill-rule:nonzero;stroke:none" transform="translate(263.036 155.255)"/><path d="M0 0c-.852.134-1.571-.515-2.357-.789V.1C-1.571.067-.716.134 0 0" style="fill:#ec2b34;fill-opacity:1;fill-rule:nonzero;stroke:none" transform="translate(265.974 155.154)"/></g><path d="M0 0v.137l-.068.24z" style="fill:#ec2b34;fill-opacity:1;fill-rule:nonzero;stroke:none" transform="matrix(1.11591 0 0 -1.11591 38.636 42.395)"/><g clip-path="url(#k)" transform="matrix(1.11591 0 0 -1.11591 -267.165 215.224)"><path d="M0 0c-.886-.033-1.367 1.093-2.357.581v.241H0Z" style="fill:#ec2b34;fill-opacity:1;fill-rule:nonzero;stroke:none" transform="translate(276.838 154.433)"/><path d="M0 0c-.786-.274-1.504-.685-2.153-1.06V0Z" style="fill:#ec2b34;fill-opacity:1;fill-rule:nonzero;stroke:none" transform="translate(279.436 155.255)"/><path d="M0 0h-.307v.1C-.204.067-.07.134 0 0" style="fill:#ec2b34;fill-opacity:1;fill-rule:nonzero;stroke:none" transform="translate(280.392 155.154)"/></g><path d="m0 0 .069-.14L.21 0Z" style="fill:#ec2b34;fill-opacity:1;fill-rule:nonzero;stroke:none" transform="matrix(1.11591 0 0 -1.11591 23.156 42.085)"/><g clip-path="url(#l)" transform="matrix(1.11591 0 0 -1.11591 -267.165 215.224)"><path d="M0 0c.1-.104-.207-.688-.378-.956-1.196-.207-2.015 1.16-3.245.819-.719-.551-1.538-1.267-2.528-.752-.618.444-1.3.889-2.119.648-.719-.34-1.334-1.196-2.22-.855-.855.31-1.675 1.196-2.734.651-.819-.17-1.568-1.23-2.494-.511-.615.441-1.264.989-2.083.648-.682-.38-1.4-.956-2.289-.715-.856.134-1.401 1.397-2.427.715-.749-.273-1.501-1.059-2.357-.648L-25.316.07c.479-.445 1.569-.311 2.15.134 1.742 1.671 2.905-1.608 4.644-.067 1.54 1.467 2.874-1.197 4.412-.207.645.414 1.4.755 2.22.515.785-.278 1.571-1.231 2.423-.582.652.481 1.434.922 2.29.648C-6.321.344-5.536-.786-4.647 0c.612.478 1.435 1.023 2.287.578C-1.745.167-.889-.475 0 0" style="fill:#0995d4;fill-opacity:1;fill-rule:nonzero;stroke:none" transform="translate(282.752 152.658)"/><path d="M0 0c.682.372 1.401.956 2.253.716.889-.14 1.471-1.197 2.46-.82.719.512 1.538.987 2.494.68.685-.271 1.227-1.021 2.083-.68.548.545 1.23.82 1.982.887 1.06 0 1.845-1.365 2.938-.649.478.582 1.13.682 1.779.822.852-.037 1.364-.892 2.219-.892-.24-.238-.067-1.09-.682-.685-.752.277-1.47 1.096-2.36.621-.578-.551-1.297-1.026-2.116-.822-.752.478-1.641 1.127-2.597.648-.615-.478-1.264-1.093-2.116-.718-.789.411-1.641 1.059-2.601.581-.645-.341-1.397-.922-2.149-.581-.649.478-1.401 1.026-2.29.788-.749-.41-1.538-1.163-2.494-.648-.682.371-1.33 1.193-2.219.648l-1.471-.718-.442.718c1.23.202 2.561 1.913 3.825.545C-1.197-.037-.545-.21 0 0" style="fill:#0995d4;fill-opacity:1;fill-rule:nonzero;stroke:none" transform="translate(263.721 150.678)"/><path d="m0 0-.274-.581c-.652.237-1.334.788-2.086.374-.441-.511-1.09-.852-1.672-.819-1.026.036-1.711 1.16-2.804.752-.715-.341-1.193-1.2-2.15-.953-.959.646-2.152 1.157-3.246.442-1.437-1.642-2.53 1.163-4.064.411-.82-.171-1.471-1.163-2.427-.585-.615.207-1.197 1.233-1.983.752l-1.056-.511-.341.648c.682.344 1.364 1.063 2.287.682.852-.167 1.266-1.227 2.29-.819.782.414 1.674 1.06 2.63.585.716-.411 1.708-1.337 2.528-.448.578.448 1.4.682 2.119.378.578-.308 1.126-.889 1.845-.682.819.545 1.638 1.16 2.661.883.752-.338 1.571-1.158 2.427-.579C-2.46.923-.856.953 0 0" style="fill:#0995d4;fill-opacity:1;fill-rule:nonzero;stroke:none" transform="translate(281.248 149.104)"/><path d="M0 0c-.953-2.153-.819-5.195 0-7.381l-1.468-.716c-1.163 1.913-.922 4.885-.204 7.001l-.173.137-3.313-1.468c-.344.174-.548.648-.649 1.026l.375.372 4.716 2.155C-.304 1.023-.238.377 0 0" style="fill:#fff;fill-opacity:1;fill-rule:nonzero;stroke:none" transform="translate(282.578 144.528)"/><path d="M0 0c-1.501-2.049-2.354-4.372-3.757-6.492-.512-.03-.856.344-1.264.515v.511l2.423 4.373c-.237.786-2.527.718-1.333 1.912.889-.338 2.052-.578 2.838.137C-.719.722.17.682 0 0" style="fill:#fff;fill-opacity:1;fill-rule:nonzero;stroke:none" transform="translate(261.124 144.013)"/><path d="M0 0c.819-1.675.444-3.928-.512-5.426-.514-.725-1.129-1.337-1.982-1.504-1.403-.207-2.905.475-3.553 1.635-.171.307-.344.682-.137 1.023.752 0 1.708-.134 1.845-1.023.478-.308 1.197-.542 1.742-.204.581.304.855.886 1.059 1.465-.993-.238-2.46-.269-3.246.584-.548.545-.852.99-.992 1.708-.171 1.228.478 2.25 1.437 2.869.819.377 2.049.548 2.938.137C-.889.856-.308.645 0 0" style="fill:#fff;fill-opacity:1;fill-rule:nonzero;stroke:none" transform="translate(268.06 141.793)"/><path d="M0 0c.341-2.631.886-5.158.99-7.889-.545.033-.923-.378-1.501-.204l-.204.411a31.61 31.61 0 0 0-.448 4.811c-.649.545-1.331-.101-2.083 0-.17.204-.237.584-.204.956.682.307 1.605.511 1.913 1.263C-1.571.104-.581 0 0 0" style="fill:#fff;fill-opacity:1;fill-rule:nonzero;stroke:none" transform="translate(274.31 142.545)"/><path d="M0 0c.204-.649 0-1.261-.378-1.775-.444-.411-1.196-.478-1.741-.207-.515.378-.993.992-.685 1.678.036.508.581.989 1.026 1.123C-.993.99-.238.618 0 0" style="fill:#0995d4;fill-opacity:1;fill-rule:nonzero;stroke:none" transform="translate(266.796 141.075)"/></g></svg>