<svg xmlns="http://www.w3.org/2000/svg" xml:space="preserve" width="399.672" height="399.40665" viewBox="0 0 399.67198 399.40665"><defs><clipPath id="a" clipPathUnits="userSpaceOnUse"><path d="M0 600h800V0H0Z"/></clipPath></defs><g clip-path="url(#a)" transform="matrix(1.33333 0 0 -1.33333 -333.498 599.704)"><path d="M0 0h-298.652v-25.931h9.558v-16.761h13.603v-17.247h7.529v-98.089l10.202-11.03v-72.405h31.021v-17.924h17.693v-17.385h27.114v-22.783h66.311v22.783h27.115v17.385h17.693v17.924h31.02v72.405c.557.6 10.204 11.03 10.204 11.03v98.089h7.528v17.247h13.604v16.761h9.559V0Z" style="fill:#000;fill-opacity:1;fill-rule:nonzero;stroke:none" transform="translate(548.775 449.778)"/><path d="M373.46 156.84h53.079v16.497H373.46ZM346.346 179.619h107.31v10.492h-107.31zM328.653 197.004H471.35v11.23H328.653Z" style="fill:#fff;fill-opacity:1;fill-rule:nonzero;stroke:none"/><path d="M0 0v12.697h-286.519V0h41.888v-6.271h-32.331v-10.491h37.846v-6.755h-24.242v-10.491h24.242v-6.802h-16.713v-95.679l10.202-11.031v-68.383h204.736v68.383l10.201 11.031v95.679h-16.713v6.802h24.242v10.491h-24.242v6.755h37.845v10.491h-32.331V0Z" style="fill:#fff;fill-opacity:1;fill-rule:nonzero;stroke:none" transform="translate(543.26 430.464)"/><path d="M496.119 430.464H304.406V221.548h191.713z" style="fill:#e32213;fill-opacity:1;fill-rule:nonzero;stroke:none"/><path d="m0 0 5.93 14.765h18.584c10.224 0 13.724-.091 14.507-14.765Zm24.361 60.663h18.696c-1.408-18.189-8.047-18.248-19.921-18.248h-6.102l7.327 18.248m52.682 29.779H-.042l-24.24-60.359-17.048 60.359h-34.473l34.268-121.324H77.043v47.915s-9.78 10.548-15.055 16.24a91479.51 91479.51 0 0 0 15.055 16.241z" style="fill:#fff;fill-opacity:1;fill-rule:nonzero;stroke:none" transform="translate(396.74 293.606)"/><path d="M0 0c4.662 11.609 10.146 25.265 10.725 26.703h25.893C35.663.325 25.844 0 12.356 0Zm-17.034-42.414 9.326 23.22h21.442c15.065 0 18.471-3.781 18.856-23.22zm79.068 90.442H-7.963l-27.796-69.215-19.55 69.215h-25.685l31.879-112.869H62.034v42.029S49.203-8.971 45.447-4.914c3.756 4.058 16.587 17.898 16.587 17.898z" style="fill:#000;fill-opacity:1;fill-rule:nonzero;stroke:none" transform="translate(407.52 331.793)"/><path d="M0 0h-54.951l-5.759-14.338h81.987V22.06L3.217 41.545l18.06 19.485v29.412h-63.22l-31.199-77.684-21.942 77.684h-17.28l29.595-104.78h17.28l36.764 91.544H4.137c0-32.491-11.719-34.792-28.495-34.792h-13.56l-4.461-11.105h19.399C-3.446 31.309 0 24.035 0 0" style="fill:#fff;fill-opacity:1;fill-rule:nonzero;stroke:none" transform="translate(444.234 285.334)"/></g></svg>