<svg xmlns="http://www.w3.org/2000/svg" width="200" height="200" viewBox="0 0 52.917 52.917"><defs><linearGradient id="a" x2="1" gradientTransform="matrix(116.62 81.661 81.661 -116.62 -.827 516.29)" gradientUnits="userSpaceOnUse"><stop offset="0" stop-color="#aa8600"/><stop offset=".15" stop-color="#f3c460"/><stop offset=".36" stop-color="#ffd66c"/><stop offset=".55" stop-color="#aa8600"/><stop offset=".7" stop-color="#f8cf62"/><stop offset=".85" stop-color="#ffd66c"/><stop offset="1" stop-color="#f3c460"/></linearGradient></defs><path fill="url(#a)" d="m101.88 554.55 8.071-.908 1.338 2.759-5.127.577 1.11 9.861-3.958.445zm-11.91 12.147-5.118-.656 1.63-12.709 3.95.507-.505 3.933.567.072 2.513-3.675 4.381.561-3.386 4.21c1.367.908 2.093 2.329 1.862 4.131-.291 2.266-2.047 3.7-4.781 3.7q-.533 0-1.113-.074m-.8-3.017.841.108c1.254.161 1.866-.39 1.994-1.385.129-1.014-.324-1.7-1.578-1.862l-.841-.108zm26.083-11.107 4.415-1.689c4.189-1.601 7.534-.172 8.919 3.45 1.384 3.623-.156 6.918-4.344 8.519l-4.416 1.687zm5.555.953-.809.31 2.516 6.581.809-.308c1.86-.711 2.317-2.277 1.526-4.347-.612-1.602-1.571-2.482-2.826-2.481q-.569-.001-1.216.245m-50.278 8.137c-3.598-1.541-5.154-5.034-3.558-8.76s5.198-5.007 8.796-3.467c3.597 1.542 5.153 5.035 3.558 8.76-1.152 2.689-3.35 4.106-5.837 4.106-.958 0-1.959-.21-2.959-.639m.12-7.184c-.881 2.054-.489 3.691 1.087 4.366 1.56.669 3.031-.171 3.911-2.224.873-2.038.473-3.698-1.087-4.367a2.65 2.65 0 0 0-1.044-.226c-1.162 0-2.191.873-2.867 2.451m-15.526-1.918 3.573-6.162-5.864 4.178-2.199-1.906 3.298-6.4-5.602 4.404-2.919-2.528 10.578-7.793 2.853 2.471-2.988 5.936 5.436-3.814 2.827 2.449-6.205 11.58zm85.525-6.047c-2.739-2.915-2.322-6.871.529-9.551 1.06-.995 2.118-1.538 3.302-1.795l2.17 2.308c-1.072.2-2.138.608-2.996 1.414-1.501 1.411-1.572 3.308-.031 4.947 1.565 1.666 3.415 1.638 4.765.369.72-.675 1.049-1.388 1.325-2.409l2.664 1.369c-.255 1.119-.995 2.456-2.093 3.488-1.347 1.266-3.097 1.986-4.863 1.986-1.689 0-3.392-.658-4.772-2.126m-37.094-18.401a33.6 33.6 0 0 0 8.693-2.334v9.263c15.044-4.852 26.419-17.875 28.896-33.839L132 502.651a33.8 33.8 0 0 0 .942-8.95l17.268-2.735q.13 1.822.13 3.677c0 26.775-20.58 48.744-46.785 50.949zm-55.477-33.47q0-1.855.13-3.677l17.267 2.735q-.012.47-.013.942c0 2.759.331 5.441.956 8.008l-9.144-1.448c2.477 15.964 13.852 28.987 28.896 33.839v-9.263a33.5 33.5 0 0 0 8.693 2.334v17.479c-26.205-2.205-46.785-24.174-46.785-50.949m102.93 38.784c-2.881-1.795-2.982-4.45-1.241-7.242 1.786-2.866 4.195-3.915 7.076-2.121l6.937 4.324-2.079 3.336-6.953-4.331c-.896-.559-1.729-.467-2.287.43-.532.852-.258 1.656.639 2.215l6.952 4.332-2.107 3.381zm-117.38-7.516-2.499-5.406 11.63-5.377 2.303 4.982c1.352 2.923.745 5.283-1.251 6.205-1.383.64-2.675.322-3.853-.946.133 1.484-.516 2.471-1.648 2.994a3.1 3.1 0 0 1-1.3.301c-1.331 0-2.556-.967-3.382-2.753m1.592-2.91.472 1.021c.356.77.953 1.029 1.629.717.66-.306.865-.935.509-1.705l-.473-1.022zm4.354-2.013.472 1.022c.422.911 1.101 1.226 1.855.877.754-.348 1.003-1.092.581-2.004l-.473-1.022zm115.47-4.231 1.151-3.813 3.597 1.085.315-1.044c.952-3.15 3.157-4.764 5.876-3.943 2.603.785 3.747 3.41 2.796 6.561l-1.466 4.857zm7.605-2.661-.22.729 3.266.986.22-.73c.391-1.293-.101-2.002-1.079-2.297a2.2 2.2 0 0 0-.647-.105c-.691 0-1.239.418-1.54 1.417m-134.8-5.75 8.076-1.367c1.042-.177 1.604-.798 1.429-1.841-.169-.99-.907-1.409-1.949-1.233l-8.076 1.366-.665-3.926 8.06-1.365c3.347-.566 5.182 1.354 5.731 4.599.563 3.33-.544 5.712-3.891 6.279l-8.059 1.364zm8.831-18.522-9.895-.729.292-3.971 12.78.941-.597 8.099-2.959.806zm121.84-4.081 2.902-1.293.316 3.936 1.759-1.462c1.367-1.152 2.679-2.127 4.112-2.242 2.641-.211 4.059 1.655 4.259 4.141.131 1.64-.288 3.342-.93 4.644l-3.211.258c.629-1.25 1.158-2.456 1.073-3.509-.071-.898-.583-1.43-1.446-1.36-.795.063-1.542.714-2.342 1.352l-5.698 4.541-.069.005zm-41.831-29.786-17.473 8.903-17.471-8.903c-11.5 5.202-20.267 15.38-23.555 27.788l-8.624-1.366c4.127-16.762 16.521-30.272 32.61-35.958l17.04 8.683 17.042-8.683c16.089 5.686 28.483 19.196 32.61 35.958l-8.625 1.366c-3.288-12.408-12.055-22.586-23.554-27.788M36.97 480.048c.842-.692 1.579-1.564 1.941-2.685.634-1.96-.22-3.654-2.362-4.347-2.175-.702-3.781.216-4.351 1.979-.303.938-.247 1.721.004 2.748l-2.995.088c-.317-1.103-.314-2.63.149-4.064 1.112-3.443 4.584-5.797 8.505-4.531 3.806 1.231 5.351 4.896 4.148 8.619-.447 1.384-1.112 2.37-2.024 3.168zm118.99-3.647c-.991-2.991.005-5.601 2.569-6.45 2.417-.801 4.813.321 5.764 4.018l1.413-.467-1.306-3.945 2.424-1.879 2.684 8.103-7.117 2.357c-.237-2.037-.873-5.056-2.664-4.462-.855.283-1.075 1.159-.705 2.276.31.937 1.031 1.848 1.736 2.545l-2.413 1.857c-.995-.966-1.901-2.49-2.385-3.953m-37.588-14.479.29-1.357-.974.989-.629-.338.755-1.919.475.255-.502 1.199.969-.947.468.252-.257 1.331.711-1.086.503.271-1.187 1.685zm-3.135-1.688.221-.412.531.286.749-1.39.524.282-.749 1.389.531.287-.222.412zm-6.653-25.414-4.081-11.2h3.433l.437 1.505h3.938l.456-1.505h3.52l-4.079 11.2zm1.758-2.878 1.393-4.665h-2.741zm-12.636 2.878v-11.2h3.486v4.045h2.51l.891 2.448h-3.401v2.267h4.225l.889 2.44zm-5.884-11.2h3.486v11.2h-3.486zm-9.667 11.2v-11.2h3.485v4.045h2.51l.891 2.448H85.64v2.267h4.225l.89 2.44z" transform="matrix(.35278 0 0 -.35278 -8.565 201.24)"/></svg>