<svg xmlns="http://www.w3.org/2000/svg" width="287" height="419" fill="none" viewBox="0 0 287 419"><path fill="#FF6900" d="M64.867 151.797V87.245L96.711 55.43l-5.636-19.158-43.752 43.712v79.073l47.862 47.818 6.535-18.259zM220.885 151.797V87.245L189.041 55.43l5.636-19.158 43.752 43.712v79.073l-47.862 47.818-6.535-18.259z"/><path fill="#fff" d="M112.904 189.781h60.314l-16.43-51.678 32.826-121.654-23.853-15.22-25.945 149.704-33.072-134.004-4.881 16.091 27.19 106.831zM110.065 198.557l-5.851 18.093h77.546l-5.752-18.093z"/><path fill="#fff" d="m155.968 0-41.175 11.565 23.892 101.175zM267.025 315.324h-11.716l-19.572 48.192h12.474l12.956-33.871 6.377 17.321h-11.485l5.73 9.914h9.547l2.787 6.636h12.474zM235.855 328.75c-1.295-7.829-7.371-13.427-18.376-13.427H198.32v48.193h11.027v-38.279h6.98c1.189 0 3.092.169 4.188.631 8.002 3.368 5.115 14.639-7.141 15.01l4.917 8.843c13.024-1.719 19.328-10.301 17.564-20.971M131.866 328.75c-1.143-7.853-7.371-13.427-18.376-13.427H94.332v48.193h11.027v-38.279h6.98c1.189 0 3.092.169 4.188.631 8.002 3.368 5.114 14.639-7.141 15.01l11.548 22.638h12.405l-9.121-18.281c5.348-3.762 8.877-8.044 7.648-16.485M72.256 344.268c0 6.476-3.31 10.472-9.379 10.472s-9.38-3.996-9.38-10.472v-28.944H42.465v29.565c0 13.434 9.309 19.771 20.412 19.771s20.413-6.337 20.413-19.771v-29.565H72.257zM11.325 344.17h13.059l5.73-9.914h-18.79v-9.019h16.6l5.729-9.913H.299v48.192h28.176l5.73-9.914h-22.88z"/><path fill="#fff" fill-rule="evenodd" d="M163.902 314.18c-14.221 0-23.401 9.585-23.401 25.241 0 15.653 9.18 25.239 23.401 25.239s23.402-9.586 23.402-25.239c0-15.656-9.182-25.241-23.402-25.241m0 40.55c-6.904 0-12.356-4.966-12.356-15.309 0-10.345 5.452-15.31 12.356-15.31s12.357 4.965 12.357 15.31c0 10.343-5.453 15.309-12.357 15.309" clip-rule="evenodd"/><path fill="#fff" d="m276.794 382.414 2.357-6.172h1.448v7.722h-1.36v-4.631l-1.773 4.631h-1.343l-1.772-4.631v4.631h-1.36v-7.722h1.447zM268.377 377.461h-2.379v-1.219h6.1v1.219h-2.38v6.503h-1.341zM110.047 376.241l-16.96 41.757h10.809l11.226-29.349 5.526 15.009h-9.951l4.964 8.59h8.272l2.416 5.75h10.808l-16.959-41.757zM213.395 401.326c0 5.612-2.869 9.076-8.127 9.076s-8.127-3.464-8.127-9.076v-25.085h-9.56v25.623c0 11.643 8.066 17.135 17.687 17.135s17.687-5.492 17.687-17.135v-25.623h-9.56zM240.734 409.408v-8.172h11.315l4.965-8.591h-16.28v-7.814h14.382l4.964-8.59h-28.9v41.757h24.414l4.965-8.59zM70.104 401.235h11.315l4.966-8.59H70.104v-7.814h14.382l4.965-8.59h-28.9v41.757h24.413l4.965-8.59H70.104zM34.63 376.241h-9.553v41.757h24.618l4.964-8.59H34.631zM162.15 403.15h8.682v3.021c-2.115 2.351-5.489 4.154-9.648 4.154-7.295 0-12.784-4.28-12.784-13.134 0-8.855 5.965-13.135 11.692-13.135 5.181 0 8.527 2.461 9.942 7.035l9.298-2.517c-2.17-7.89-8.318-13.191-19.114-13.191-11.58 0-21.466 8.309-21.466 21.808s9.76 21.808 21.578 21.808c9.172 0 14.843-3.61 19.492-9.274v-14.101h-22.013zM173.263 258.354l-9.464-2.45c-1.938-.502-2.587-.32-3.15 1.852l-.425 1.638 10.953 2.835-1.479 5.7-10.951-2.835-2.56 9.908-3.613-.935c-.711-.184-1.259-.574-1.585-1.129-.327-.554-.402-1.222-.217-1.933l3.973-15.32c1.297-5.001 4.949-6.996 10.283-5.615l9.73 2.518zM117.304 250.653l15.791-3.201 1.188 5.847-12.137 2.461.842 4.148 11.106-2.252 1.175 5.781-11.106 2.252.338 1.663c.448 2.205 1.086 2.422 3.051 2.024l9.601-1.947 1.188 5.847-9.869 2.001q-1.359.274-2.559.276c-1.571.002-2.933-.349-4.069-1.049-1.719-1.059-2.85-2.874-3.362-5.393l-3.147-15.491c-.147-.72-.036-1.385.321-1.922.356-.537.927-.898 1.648-1.045M199.003 266.001c1.515 1.166 1.299 2.499 1.003 3.402l-7.46 25.65-5.146-4.705 1.083-3.736-4.662-3.48 3.754-2.687 2.174 1.632 2.469-8.319-14.328 9.257-5.874-3.321 22.476-14.53c.865-.561 2.052-1.056 3.551.098z"/><path fill="#fff" d="M142.876 241.229c-24.006 0-46.995 8.423-64.73 23.718a91 91 0 0 0-5.293 4.948l-3.34-4.121a96 96 0 0 1 5.183-4.818c18.694-16.122 42.908-24.999 68.18-24.999s49.486 8.877 68.179 24.999a96 96 0 0 1 5.186 4.818l-3.341 4.121a91 91 0 0 0-5.293-4.948c-17.735-15.295-40.724-23.718-64.731-23.718M185.003 304.265c-9.265-11.519-25.026-19.439-42.127-19.439-17.1 0-32.861 7.92-42.127 19.439l-3.236-3.992c10.203-12.187 26.928-20.427 45.363-20.427 18.436 0 35.16 8.24 45.363 20.427z"/><path fill="#fff" d="M95.887 283.752c1.246.147 2.655-.333 3.868-1.318 1.218-.989 1.979-2.27 2.089-3.516.146-1.581-.29-2.651-1.865-4.581l-9.037-11.111 4.875-3.958 9.844 12.099c2.086 2.57 2.944 5.183 2.622 7.988-.35 3.096-1.85 5.686-4.583 7.916-2.453 1.983-4.984 2.943-7.71 2.919q-.488-.004-.986-.051c-2.813-.258-5.198-1.629-7.291-4.193l-9.846-12.101 4.876-3.959 9.04 11.105c1.57 1.936 2.528 2.581 4.104 2.761"/></svg>