<svg xmlns="http://www.w3.org/2000/svg" xml:space="preserve" x="0px" y="0px" viewBox="0 0 700 700"><circle cx="350.397" cy="349.651" r="327.5" fill="#87B7E8"/><ellipse cx="353.41" cy="348.63" fill="#660434" rx="312.476" ry="312.812"/><path fill="#87B7E8" d="M307.83 180.596c-3.197 5.277-4.05 10.166-2.543 14.523 2.102 6.071 8.11 9.288 10.307 10.285-7.593 3.053-12.783 8.033-15.43 14.817-5.148 13.187.738 29.872 3.424 36.268-7.736-10.327-10.957-20.307-9.576-29.708 1.966-13.366 12.779-20.881 12.888-20.954l.598-.406-.693-.217c-2.301-.717-4.557-1.077-6.753-1.077-3.291 0-6.456.804-9.46 2.409-10.254 5.476-15.983 18.968-17.84 24.06.21-11.789 5.026-20.545 14.329-26.053 7.358-4.357 14.927-4.931 15.004-4.938l.685-.045-.444-.528c-4.211-4.994-10.191-6.879-17.291-5.452-3.844.773-7.068 2.336-8.583 3.158 4.956-10.065 23.726-5.756 23.919-5.711l.567.133-.147-.563c-1.993-7.676-10.338-9.064-13.451-9.313 5.876-2.99 14.01 1.619 14.098 1.668l.591.343-.066-.678c-.203-2.004 3.099-5.592 4.519-6.935 14.951.378 20.124 3.427 21.831 5.924.72 1.053.808 1.99.766 2.563-6.306-5.907-20.386-3.833-20.998-3.738l-.161.024-.09.141zM364.768 197.273c-.185.171-1.081.577-4.924-1.392l-.199-.101-4.298 3.403c-1.367-.608-9.688-4.413-11.772-8.117h13.542c.346.797 1.829 3.193 7.712 5.399.068.235.134.626-.061.808z"/><path fill="#87B7E8" d="M553.174 264.039a219.902 219.902 0 0 0-20.267-37.335 222.425 222.425 0 0 0-26.923-32.628 222.358 222.358 0 0 0-32.63-26.92 219.886 219.886 0 0 0-37.338-20.266c-27.07-11.449-55.874-17.255-85.619-17.255-29.745 0-58.549 5.805-85.619 17.255a219.816 219.816 0 0 0-37.338 20.266 222.369 222.369 0 0 0-32.63 26.92 222.425 222.425 0 0 0-26.923 32.628 219.794 219.794 0 0 0-20.267 37.335c-11.45 27.067-17.256 55.869-17.256 85.612s5.806 58.544 17.256 85.612a219.864 219.864 0 0 0 20.267 37.335 222.425 222.425 0 0 0 26.923 32.628 222.421 222.421 0 0 0 32.63 26.92 219.886 219.886 0 0 0 37.338 20.266c27.07 11.449 55.874 17.255 85.619 17.255 29.745 0 58.549-5.805 85.619-17.255a219.816 219.816 0 0 0 37.338-20.266 222.369 222.369 0 0 0 32.63-26.92 222.425 222.425 0 0 0 26.923-32.628 219.794 219.794 0 0 0 20.267-37.335c11.45-27.067 17.256-55.869 17.256-85.612s-5.805-58.545-17.256-85.612zM442.57 218.973c-1.651-4.718-1.759-8.445-.322-11.061 1.081-1.965 2.707-2.675 3.315-2.882.539-4.046 1.931-6.774 4.141-8.106 2.655-1.602 5.47-.567 5.589-.521l.731.276-.696.36c-2.669 1.385-2.794 6.669-2.791 7.798.469.227.881.49 1.242.78.143.115.28.234.409.36 1.679 1.637 2.011 3.952 1.973 5.686 0 .084-.003.164-.007.245 0 .08-.007.157-.011.231a12.798 12.798 0 0 1-.045.553l-.011.091a60.688 60.688 0 0 0-.308 4.277c-.007.21-.01.416-.014.612v.038c-.004.15-.004.294-.007.434v.007c0 .112-.003.22-.003.325a64.792 64.792 0 0 0 0 1.654c0 .08.003.157.003.231.004.101.004.203.007.301.01.388.024.717.042.993.01.14.017.266.028.378.028.343.063.577.094.738.511-1.112 1.371-5.008 1.99-8.599.423-2.759 1.542-4.798 3.329-6.05 2.375-1.661 5.155-1.406 5.928-1.294 2.917-3.326 5.743-4.885 8.404-4.637 3.298.311 5.057 3.284 5.131 3.41l.441.762-.843-.252c-3.655-1.084-6.599 3.095-7.219 4.057.301.427.542.857.731 1.29.06.14.115.28.164.423l.084.248a6.883 6.883 0 0 1 .262 2.707 8.207 8.207 0 0 1-.164 1.025c-.028.115-.052.231-.084.343a3.62 3.62 0 0 1-.094.339 7.54 7.54 0 0 1-.224.671 8.668 8.668 0 0 1-.245.608 15.034 15.034 0 0 1-.486 1.004c-.052.101-.112.206-.168.308-.059.101-.115.203-.175.304a18.849 18.849 0 0 1-.938 1.427c-.105.147-.21.287-.315.427-.063.084-.126.168-.192.248a23.914 23.914 0 0 1-1.553 1.794l-.01.01a12.29 12.29 0 0 0-2.543 3.941c-.091.231-.161.427-.217.594-.017.056-.035.105-.049.154l-.031.112c-.112.416-.094.584-.077.647h.01a.262.262 0 0 0 .07-.01.333.333 0 0 0 .073-.021c.192-.063.479-.234.818-.479.115-.08.238-.175.364-.276h.004a8.78 8.78 0 0 0 2.091-2.395c.084-.143.171-.287.262-.423a7.57 7.57 0 0 1 .294-.437c.098-.14.196-.276.301-.406 0-.007.003-.01.01-.017.101-.129.203-.259.308-.378a6.813 6.813 0 0 1 .343-.384 9.68 9.68 0 0 1 .318-.322c.112-.108.231-.213.346-.315.004-.007.01-.01.014-.014a8.901 8.901 0 0 1 .703-.538c.01-.01.024-.018.035-.025.108-.073.22-.143.332-.213.014-.007.024-.014.035-.021a7.994 7.994 0 0 1 .766-.398 9.22 9.22 0 0 1 .409-.168c.136-.052.276-.101.416-.143 2.84-.874 5.438.227 6.215.612 2.158-1.962 4.344-2.745 6.509-2.333 4.491.857 7.205 6.533 7.317 6.774l.416.885-.881-.42c-2.553-1.213-4.711-1.476-6.421-.78-1.472.601-2.221 1.783-2.497 2.326.427.248.71.594.846 1.028.329 1.053-.364 2.263-.511 2.5a1.573 1.573 0 0 1-.262.416l-.066.08c-.01.014-.025.028-.035.042l-.098.108a8.32 8.32 0 0 1-.497.49l-.227.206a21.678 21.678 0 0 1-.651.549c-1.71 1.399-4.274 3.165-6.299 4.508a159.584 159.584 0 0 1-1 .657c-.01.007-.024.014-.035.025-1.518.997-2.882 2.207-4.008 3.623a.036.036 0 0 1-.014.018c-.073.098-.15.196-.224.294l-.231.315c-.602.836-1.032 1.612-1.294 2.319a2.742 2.742 0 0 0-.077.22 3.863 3.863 0 0 0-.157.601c-.01.049-.021.098-.025.143a3.412 3.412 0 0 0-.045.542c0 .318.049.615.147.892.077.217.185.416.311.594.028.046.063.087.094.129.004.003.007.007.007.01.035.042.07.08.105.119a2.318 2.318 0 0 0 .206.209c.024.021.049.045.073.063a3.283 3.283 0 0 0 .479.353c.094.059.185.112.283.164.094.053.189.098.287.143.944.437 1.997.58 3.036.507l.045-.003c.21-.014.413-.028.612-.035.063-.003.122-.003.182-.007l.273-.01c4.34-.091 6.544 1.238 7.656 2.511.112.126.213.252.301.374.066.094.129.185.189.276.073.119.143.238.203.35.206.392.318.731.374.951 3.693.409 8.04-2.448 8.086-2.476l.511-.343.031.615c.136 2.738-.605 4.952-2.207 6.581-2.675 2.721-6.883 2.945-7.999 2.955-.392 1.241-1.14 2.179-2.221 2.794-2.812 1.595-6.897.455-7.068.406l-.08-.035c-8.39-4.857-13.395-4.319-13.888-4.249-17.399 8.173-16.315 39.216-16.305 39.527l.018.364h-.367c-6.449 0-9.929-6.655-10.922-8.91-7.862 15.471-16.308 17.797-16.668 17.887l-.409.105-.028-.42c-.822-12.243-7.663-21.51-13.255-27.127-6.078-6.102-12.041-9.341-12.101-9.372l-.595-.322.605-.301c11.307-5.655 38.149-16.863 38.419-16.975 8.897-3.864 13.846-11.163 14.71-21.689.65-7.883-1.375-14.72-1.396-14.789zm-28.238-43.994 4.158-12.943 4.347 12.943h13.619l-10.887 8.131 4.564 13.593-11.531-8.389-11.248 8.396 4.316-13.439-11.391-8.292h14.053zm94.366 149.087c-.08-.018-7.936-1.749-10.468-.325-.014.612-.185 2.42-1.577 3.934-1.259 1.367-3.155 2.109-5.634 2.203-5.225.129-10.898.535-12.143 1.014.665.297 3.141.895 12.059 1.769.427 0 6.795.157 8.401 6.151.829.304 4.13 1.693 5.596 4.98 1.084 2.434.895 5.312-.57 8.557l-.381.843-.273-.885c-.017-.063-1.976-6.274-6.012-6.274h-.007c-.738.839-5.096 5.389-10.268 2-.098-.077-7.208-5.714-13.143-4.679-.252.052-.507.199-.514.273 0 .031.01.657 3.529 2 .262.122 5.991 2.826 6.823 6.655.297 1.367-.063 2.7-1.07 3.966.577.927 2.613 4.525 1.654 7.854-.542 1.885-1.948 3.34-4.179 4.315l-.542.238.052-.587c.007-.077.63-7.368-2.536-7.91-.535.269-2.906 1.322-5.673.381-2.567-.874-4.662-3.182-6.229-6.858-.014-.028-2.179-4.294-10.156-5.718-7.425-1.325-21.505-.392-46.431 11.579l-.22.108-.175-.171c-.045-.045-4.595-4.616-.444-12.215-3.976-.374-29.168-2.528-43.025 1.584l-.171.052-.143-.108c-.15-.119-3.62-2.885.133-9.316-2.784-.587-16.494-4.137-26.591-18.517.28 2.917 2.731 11.334 20.634 20.098l.238.115-.049.262c-.014.077-1.312 7.512 1.913 12.114 1.92-.888 13.829-5.868 31.983-2.284l.682.136-.518.469c-.154.14-14.965 13.492-33.578 23.518 4.064-1.22 10.863-3.06 18.379-4.242 11.125-1.749 26.136-2.371 34.477 4.602.105.073 12.654 8.865 19.152.997l.343-.413.241.479c.08.164 1.99 4.067.28 7.875-1.168 2.598-3.725 4.483-7.61 5.602.479.874 2.277 3.102 7.939 2.64l.353-.028.024.35c.01.154.238 3.728-2.427 5.97-2.116 1.783-5.403 2.179-9.779 1.178.203 2.203.5 11.226-6.519 22.08-.21.612-2.878 8.694.678 14.163 1.962 3.021 5.484 4.735 10.461 5.095.063.007 4.12.528 8.932-1.637 4.442-2 10.464-6.763 13.927-18.115.01-.038 1.168-3.605 5.841-3.245.43-.822 2.088-3.623 5.211-4.648 2.291-.752 4.83-.371 7.547 1.14l.469.259-.427.325c-.112.084-10.559 8.134-11.87 15.709 2.133-3.196 8.191-11.544 13.28-11.628h.077c1.539 0 2.854.755 3.914 2.242 1.098-.381 5.33-1.654 8.747.119 1.986 1.035 3.319 2.91 3.959 5.581l.308 1.273-.902-.951c-.073-.08-1.871-1.916-4.651-.899-.504.595-3.739 4.046-9.915 2.462-.983.64-7.4 4.931-9.558 9.481 2.56-2.409 8.981-7.861 14.059-7.26 1.843.217 3.329 1.213 4.417 2.958 1.14-.234 5.767-.983 9.334 1.497 2.301 1.605 3.669 4.224 4.06 7.791l.08.738-.619-.409c-.042-.028-4.298-2.784-7.526-2.035-1.102.255-1.969.902-2.578 1.923l-.038.063-.059.042c-.042.031-4.333 3.007-9.055-.815-1.235.668-7.687 4.231-11.209 7.127 1.612-.014 5.365-.437 9.859-3.55l.052-.035.059-.017c.178-.045 4.417-1.133 7.645.783 1.511.895 2.543 2.305 3.067 4.193.86-.017 3.357.098 5.351 1.983 1.885 1.784 2.756 4.606 2.592 8.396l-.039.811-.563-.584c-.06-.063-5.886-6.025-10.58-3.665-.385.57-2.728 3.847-7.383 6.333-4.613 2.465-12.447 4.553-23.576.511-.108-.025-13.496-3.588-16.882.458-1.098 1.315-1 3.361.29 6.088l.028.084c.007.038.168.923-.623 1.602-1.486 1.269-5.155.864-10.912-1.206-.15-.042-17.368-4.892-28.546.346l-.042.014c-.332.108-8.156 2.525-11.356-2.647l-.241-.388.437-.133c.052-.014 4.938-1.507 5.428-4.525-2.55.147-15.402.451-16.745-8.18l-.045-.294.28-.091c.122-.042 12.15-4.13 15.923-14.534 2.48-6.844.906-14.876-4.679-23.881-.003 0-2.448-3.126-7.467-5.249-4.638-1.962-12.486-3.441-23.548.633l-.157.056-.143-.084c-.168-.101-4.183-2.539-7.285-7.281-2.749-4.203-5.208-11.026-1.805-20.031-1.619 1.413-4.693 4.686-5.431 9.708-.867 5.896 1.647 12.404 7.467 19.339.049.049 6.596 6.865 10.933 16.527 4.011 8.942 6.904 22.217-2.081 34.705-.199.472-2.368 5.851-.78 9.701.63 1.525 1.784 2.63 3.427 3.284l.458.182-.322.374c-.171.196-4.246 4.819-9.013 4.046-3.106-.504-5.725-3.175-7.799-7.945-.962 1.063-3.42 4.469-1.43 9.795l.14.374-.388.091c-.147.031-3.592.794-6.481-1.343-2.095-1.553-3.322-4.203-3.651-7.882-2.109.353-12.744 2.448-15.696 9.25-1.742 4.018-.525 8.991 3.62 14.789.021.017 3.861 4.434 9.709 7.505 7.792 4.085 15.266 3.966 22.215-.353.465-.402 6.355-5.375 10.296-4.718a3.446 3.446 0 0 1 2.315 1.444c.958-.745 3.952-2.808 7.327-2.298 2.357.36 4.382 1.906 6.015 4.602l.108.178-.108.182c-.049.08-1.252 1.972-5.987.378-4.463 2.203-9.174 4.749-10.44 5.756.927-.14 3.567-.853 11.006-3.605l.059-.018c.343-.059 8.254-1.406 9.551 3.707 1.119.287 6.11 1.728 7.978 5.267.895 1.696.927 3.612.091 5.697l-.199.5-.374-.385c-.028-.024-2.7-2.724-4.973-2.735h-.014c-.658 0-1.2.224-1.658.685l-.234.234-.248-.224c-.087-.077-8.824-7.666-22.243 1.07.227.164 1.598.692 8.876-1.927l.056-.014c.098-.018 9.726-1.63 11.779 6.295 1.014.22 5.096 1.301 7.17 4.777 1.444 2.427 1.574 5.462.374 9.026l-.28.836-.367-.801c-.112-.241-2.833-5.924-10.8-5.365-.357.063-2.399.143-8.019-4.392-1.287.077-10.461.591-15.378-.692.007.154.059.357.213.577.633.916 3.116 2.392 12.59 2.056l.06-.003.059.021c.206.063 5.082 1.654 6.446 4.829.479 1.109.469 2.273-.024 3.466 1.472.797 7.442 4.627 3.882 12.803l-.259.591-.353-.539c-.056-.084-5.515-8.309-10.489-7.802-.675.406-5.778 3.298-13.797 3.361-7.761.073-19.809-2.672-33.089-16.041l-.049-.066c-.07-.115-7.047-11.565-13.888-11.488-2.62.028-4.935 1.766-6.883 5.172l-.301.528-.304-.528c-.056-.094-5.442-9.509-6.701-16.978-.301-.678-4.69-10.348-14.734-20.391-.07-.059-8.978-7.907-7.659-18.562l.077-.629.493.402c.024.021 2.287 1.839 6.194 1.955-.85-.696-2.14-1.997-3.204-4.12-1.56-3.123-2.889-8.704-.336-17.545l.168-.574.42.427c.08.084 8.289 8.327 17.973 7.151 6.141-.748 11.587-5.074 16.182-12.859.038-.084 5.068-11.04-8.002-26.2-.052-.066-4.491-5.595-6.201-13.635-2.868 2.742-18.589 16.898-37.492 16.901-.546 0-1.095-.014-1.647-.038-11.93-.525-22.785-6.69-32.263-18.325-.066-.094-4.61-6.97-5.879-16.517-1.172-8.82.283-21.801 13.871-33.523l.042-.031c.185-.119 18.557-11.859 20.026-28.865.832-9.631-3.851-19.143-13.916-28.277-1.563.755-11.115 4.994-22.18 1.325-10.009-3.322-18.347-11.97-24.779-25.707l-.42-.892.888.43c1.353.657 4.711 2.189 6.502 2.675-2.473-3.245-11.783-17.031-7.89-36.181l.157-.766.465.626c.063.084 6.369 8.375 20.554 13.453.238.091 5.298 2.049 8.624 5.448-.294-2.123-.602-6.574 1.322-9.592l.234-.371.311.311c.101.105 10.461 10.677 17.893 21.115.049.063 5.704 7.487 3.141 19.867 1.189.811 7.369 5.253 12.335 12.733 5.078 7.641 9.898 20.112 4.032 36.118-.024.094-3.613 11.652-20.638 23.542-.357.353-5.379 5.438-8.236 12.67-3.935 9.956-2.116 19.038 5.407 26.997.063.073 4.753 5.655 12.986 8.176 7.586 2.326 19.834 2.448 35.096-10.152l10.023-10.904c-.441-1.511-2.081-10.624 14.577-29.764.42-.699 8.981-15.226 7.439-26.354l-.038-.283.266-.094c.126-.045 12.66-4.637 17.567-16.282 2.966-7.04 2.595-15.195-1.102-24.266.577 6.106 1.123 22.329-8.114 30.201-6.267 5.34-15.805 5.921-28.346 1.724l-.703-.234.63-.395c.056-.035 5.627-3.591 8.625-12.324 2.623-7.645 3.721-20.85-5.173-41.038.769 3.28 1.798 8.375 2.319 13.943.825 8.809.5 20.636-5.722 26.962-4.7 4.777-12.076 5.819-21.925 3.091l-.633-.178.5-.427c.091-.077 9.02-7.949 2.578-26.403-.049-.126-5.054-13.422-.748-25.952-2.081 1.423-7.289 4.588-12.521 4.588-.727 0-1.455-.063-2.175-.199-3.004-.563-5.431-2.361-7.208-5.34l-.238-.395.448-.119c.031-.01 3.015-.832 5.575-4.113 2.371-3.042 4.854-8.883 3.218-19.426-.007-.073-.762-6.407.839-13.908 1.423-6.679 5.05-15.632 14.189-21.066-3.113-.227-10.863-1.752-12.409-11.215l-.098-.601.57.22c.098.035 10.121 3.605 20.655-12.366.101-.14 9.181-12.324 24.454-6.77-1.011-2.133-3.256-7.9-.143-11.712l.29-.357.266.378c.045.063 4.718 6.55 12.118 4.389l.049-.01c.811-.108 19.945-2.57 28.584 5.06 2.658 2.347 4.029 5.424 4.078 9.152 2.637-.045 18.05-.045 22.834 6.214 1.374 1.804 1.742 3.969 1.084 6.438 3.49.238 25.282 2.112 28.336 11.949l.143.469-11.727-.392c-.35-.126-3.081-1.133-3.928-2.647a1.371 1.371 0 0 0-.119.699c.066.773.766 2.046 3.732 3.717.843.087 7.701.895 9.866 4.329.748 1.186.853 2.546.311 4.039-.066.518-.794 4.651-6.799 6.522-.143 1.423-1.158 8.522-7.166 9.19l-.486.053.105-.476c.018-.07 1.483-6.756-1.084-8.494-.738.06-4.323.136-7.617-3.445-1.602.476-12.059 3.766-14.217 9.456-.738 1.948-.416 4.008.962 6.116l.021.035c.042.084 4.319 8.463 10.195 10.362 1.976.64 3.931.472 5.816-.497.388-.332 4.868-4.252 5.113-9.19l.021-.42.409.098c.042.01 1.081.266 1.899 1.588.808 1.301 1.518 3.871.43 8.781.986-.01 3.186.157 4.354 1.818 1.21 1.724.906 4.487-.913 8.218-.175.297-4.053 6.746-9.607 9.883l-.539.301.017-.615c0-.021.024-2.35-1.85-4.28-1.696-1.745-4.372-2.647-7.96-2.682-.658.08-13.192 1.493-21.579-5.267-4.179-3.368-6.669-8.194-7.418-14.352-.71 2.105-1.305 7.54 4.984 17.657l.434.696-.801-.171c-.294-.059-7.194-1.591-11.265-8.225-3.113-5.074-3.679-11.677-1.682-19.64-1.119.755-3.623 3.77-3.956 15.569l-.028 1.053-.605-.86c-.07-.101-6.953-10.03-4.704-19.874 1.109-4.854 4.218-8.893 9.251-12.023-2.343.287-7.04 1.385-10.251 5.595-4.291 5.63-4.596 14.737-.909 27.071.014.045 1.186 3.994 7.051 8.641 5.428 4.305 16.091 10.096 36.065 13.257.122.021 11.657 2.098 23.408 8.949 6.907 4.029 12.545 8.893 16.749 14.464 5.264 6.97 8.285 15.062 8.981 24.049l.056.685-.588-.364c-.273-.168-26.496-16.314-45.865-18.678 7.659 3.598 36.939 17.51 46.221 24.147.595.252 8.799 3.668 19.099 5.389 9.768 1.633 23.474 2.032 33.333-5.326l9.457-14.362c.091-.101 2.186-2.483 4.508-2.294 1.018.08 1.91.64 2.654 1.661.825-1.018 3.253-3.612 6.425-3.696 2.249-.063 4.375 1.161 6.33 3.63l.301.381-.458.164c-1.679.605-6.082 2.486-7.1 4.158.374.402 1.137 1.388 1.095 2.731-.042 1.35-.874 2.647-2.473 3.864-3.333 2.581-6.834 5.578-7.516 6.585.671-.154 2.724-1.007 9.002-4.665.14-.105 4.109-2.896 7.362-2.088 1.189.297 2.126 1.035 2.791 2.2.902-.385 3.609-1.318 6.572-.178 2.819 1.084 5.022 3.721 6.551 7.833l.224.605-.627-.13z"/><path fill="#FFCD00" d="m465.838 81.954-.273.346c-5.313 6.728-10.429 18.699-14.21 28.97-3.728 10.124-6.159 18.597-6.208 18.769l-.115.399-13.927-6.651.185-.325c3.448-6.067 6.32-11.589 8.698-16.548h.004c9.705-20.192 11.356-31.054 11.377-31.187l.066-.465 14.403 6.692zM346.347 111.141l-13.154-.619-13.164-17.332-15.067-19.839c.451 3.361 1.721 12.628 3.123 21.469 1.207 7.627 2.511 14.936 3.473 17.87l.126.388-13.259 2.168.073-.476c.01-.077.703-5.095-.518-18.139-.745-7.956-2.203-18.898-4.959-33.53l-.066-.35 16.277-2.714 24.583 31.949h.003l1.934 2.514c-.004-.629-.014-1.528-.025-2.626-.105-8.785-.528-30.536-2.189-33.677l-.273-.511h12.475l.381 33.824.226 19.631zM214.741 150.594c.43-2.364-.727-5.97-.864-6.393l-7.061-10.774-13.444-20.507c-12.528 7.816-11.604 11.152-11.594 11.184l.665 2.014-1.27-1.679-6.746-8.952.248-.217c12.916-11.086 38.205-24.903 38.457-25.043l.311-.168 5.82 10.855-.738-.154c-5.4-1.144-12.93 4.609-14.35 5.746l12.93 20.654 6.432 10.274c1.378 2.689 5.008 4.62 5.047 4.637l.542.287-14.525 9.012.14-.776z"/><path fill="#660434" d="M496.653 327.675c1.392-1.514 1.563-3.322 1.577-3.934 2.532-1.423 10.387.308 10.468.325l.629.14-.224-.605c-1.528-4.113-3.732-6.749-6.551-7.833-2.962-1.14-5.669-.206-6.572.178-.665-1.165-1.602-1.902-2.791-2.2-3.253-.808-7.222 1.983-7.362 2.088-6.278 3.658-8.331 4.511-9.002 4.665.682-1.007 4.183-4.004 7.516-6.585 1.598-1.217 2.431-2.514 2.473-3.864.042-1.343-.72-2.329-1.095-2.731 1.018-1.672 5.421-3.553 7.1-4.158l.458-.164-.301-.381c-1.955-2.469-4.081-3.693-6.33-3.63-3.172.084-5.599 2.679-6.425 3.696-.745-1.021-1.637-1.581-2.654-1.661-2.322-.189-4.417 2.193-4.508 2.294l-9.457 14.362c-9.859 7.358-23.565 6.959-33.333 5.326-10.3-1.721-18.505-5.137-19.099-5.389-9.282-6.637-38.562-20.549-46.221-24.147 19.368 2.364 45.592 18.51 45.865 18.678l.588.364-.056-.685c-.696-8.987-3.718-17.08-8.981-24.049-4.204-5.571-9.842-10.435-16.749-14.464-11.751-6.851-23.285-8.928-23.408-8.949-19.974-3.161-30.637-8.952-36.065-13.257-5.865-4.648-7.037-8.596-7.051-8.641-3.686-12.334-3.382-21.441.909-27.071 3.211-4.21 7.908-5.309 10.251-5.595-5.033 3.13-8.142 7.169-9.251 12.023-2.249 9.844 4.634 19.772 4.704 19.874l.605.86.028-1.053c.332-11.799 2.836-14.814 3.956-15.569-1.997 7.963-1.43 14.565 1.682 19.64 4.071 6.634 10.971 8.166 11.265 8.225l.801.171-.434-.696c-6.288-10.117-5.694-15.551-4.984-17.657.748 6.158 3.239 10.984 7.418 14.352 8.387 6.76 20.921 5.347 21.579 5.267 3.588.035 6.264.937 7.96 2.682 1.875 1.93 1.85 4.259 1.85 4.28l-.017.615.539-.301c5.554-3.137 9.432-9.586 9.607-9.883 1.819-3.731 2.123-6.494.913-8.218-1.168-1.661-3.368-1.829-4.354-1.818 1.088-4.91.378-7.48-.43-8.781-.818-1.322-1.857-1.577-1.899-1.588l-.409-.098-.021.42c-.245 4.938-4.725 8.858-5.113 9.19-1.885.969-3.84 1.137-5.816.497-5.876-1.899-10.153-10.278-10.195-10.362l-.021-.035c-1.378-2.109-1.7-4.169-.962-6.116 2.158-5.69 12.615-8.98 14.217-9.456 3.295 3.581 6.879 3.504 7.617 3.445 2.567 1.738 1.102 8.424 1.084 8.494l-.105.476.486-.053c6.009-.668 7.023-7.767 7.166-9.19 6.005-1.871 6.732-6.004 6.799-6.522.542-1.493.437-2.854-.311-4.039-2.165-3.434-9.023-4.242-9.866-4.329-2.966-1.672-3.665-2.945-3.732-3.717a1.37 1.37 0 0 1 .119-.699c.846 1.514 3.578 2.521 3.928 2.647l11.727.392-.143-.469c-3.053-9.837-24.845-11.712-28.336-11.949.658-2.469.29-4.634-1.084-6.438-4.784-6.26-20.197-6.26-22.834-6.214-.049-3.728-1.42-6.805-4.078-9.152-8.638-7.631-27.773-5.169-28.584-5.06l-.049.01c-7.4 2.161-12.073-4.326-12.118-4.389l-.266-.378-.29.357c-3.113 3.812-.867 9.578.143 11.712-15.273-5.553-24.352 6.63-24.454 6.77-10.534 15.971-20.558 12.401-20.655 12.366l-.57-.22.098.601c1.546 9.463 9.296 10.988 12.409 11.215-9.139 5.434-12.765 14.387-14.189 21.066-1.602 7.501-.846 13.834-.839 13.908 1.637 10.544-.846 16.384-3.218 19.426-2.56 3.28-5.543 4.102-5.575 4.113l-.448.119.238.395c1.777 2.979 4.204 4.777 7.208 5.34.72.136 1.448.199 2.175.199 5.232 0 10.44-3.165 12.521-4.588-4.305 12.53.699 25.826.748 25.952 6.442 18.454-2.487 26.326-2.578 26.403l-.5.427.633.178c9.849 2.728 17.225 1.686 21.925-3.091 6.222-6.326 6.547-18.153 5.722-26.962-.521-5.567-1.549-10.663-2.319-13.943 8.894 20.189 7.796 33.393 5.173 41.038-2.997 8.732-8.569 12.289-8.625 12.324l-.63.395.703.234c12.542 4.196 22.079 3.616 28.346-1.724 9.237-7.872 8.691-24.095 8.114-30.201 3.697 9.071 4.067 17.227 1.102 24.266-4.907 11.645-17.441 16.237-17.567 16.282l-.266.094.038.283c1.542 11.128-7.019 25.654-7.439 26.354-16.658 19.139-15.018 28.253-14.577 29.764l-10.023 10.904c-15.262 12.6-27.51 12.478-35.096 10.152-8.233-2.521-12.923-8.103-12.986-8.176-7.523-7.959-9.341-17.041-5.407-26.997 2.857-7.232 7.88-12.317 8.236-12.67 17.025-11.89 20.613-23.448 20.638-23.542 5.865-16.006 1.046-28.477-4.032-36.118-4.966-7.48-11.146-11.921-12.335-12.733 2.564-12.38-3.092-19.804-3.141-19.867-7.432-10.439-17.791-21.01-17.893-21.115l-.311-.311-.234.371c-1.924 3.018-1.616 7.47-1.322 9.592-3.326-3.399-8.387-5.357-8.624-5.448-14.185-5.078-20.491-13.369-20.554-13.453l-.465-.626-.157.766c-3.893 19.15 5.417 32.935 7.89 36.181-1.791-.486-5.148-2.018-6.502-2.675l-.888-.43.42.892c6.432 13.736 14.769 22.385 24.779 25.707 11.066 3.668 20.617-.57 22.18-1.325 10.065 9.134 14.748 18.646 13.916 28.277-1.469 17.006-19.841 28.746-20.026 28.865l-.042.031c-13.587 11.722-15.042 24.703-13.871 33.523 1.27 9.547 5.813 16.422 5.879 16.517 9.478 11.635 20.334 17.8 32.263 18.325.553.024 1.102.038 1.647.038 18.903-.003 34.624-14.16 37.492-16.901 1.71 8.04 6.148 13.569 6.201 13.635 13.07 15.16 8.04 26.116 8.002 26.2-4.596 7.784-10.041 12.11-16.182 12.859-9.684 1.175-17.893-7.068-17.973-7.151l-.42-.427-.168.574c-2.553 8.841-1.224 14.422.336 17.545 1.063 2.123 2.354 3.424 3.204 4.12-3.907-.115-6.169-1.934-6.194-1.955l-.493-.402-.077.629c-1.319 10.656 7.589 18.503 7.659 18.562 10.044 10.044 14.434 19.713 14.734 20.391 1.259 7.47 6.645 16.884 6.701 16.978l.304.528.301-.528c1.948-3.406 4.263-5.144 6.883-5.172 6.841-.077 13.818 11.372 13.888 11.488l.049.066c13.28 13.369 25.328 16.114 33.089 16.041 8.019-.063 13.122-2.955 13.797-3.361 4.973-.507 10.433 7.718 10.489 7.802l.353.539.259-.591c3.56-8.176-2.41-12.005-3.882-12.803.493-1.193.504-2.357.024-3.466-1.364-3.175-6.239-4.766-6.446-4.829l-.059-.021-.06.003c-9.474.336-11.957-1.14-12.59-2.056a1.098 1.098 0 0 1-.213-.577c4.917 1.283 14.091.769 15.378.692 5.62 4.536 7.663 4.455 8.019 4.392 7.967-.56 10.688 5.123 10.8 5.365l.367.801.28-.836c1.2-3.563 1.07-6.599-.374-9.026-2.074-3.476-6.155-4.557-7.17-4.777-2.053-7.924-11.681-6.312-11.779-6.295l-.056.014c-7.278 2.619-8.649 2.091-8.876 1.927 13.419-8.736 22.156-1.147 22.243-1.07l.248.224.234-.234c.458-.462 1-.685 1.658-.685h.014c2.273.01 4.945 2.71 4.973 2.735l.374.385.199-.5c.836-2.084.804-4.001-.091-5.697-1.868-3.539-6.858-4.98-7.978-5.267-1.297-5.113-9.209-3.766-9.551-3.707l-.059.018c-7.439 2.752-10.079 3.466-11.006 3.605 1.266-1.007 5.977-3.553 10.44-5.756 4.735 1.595 5.939-.297 5.987-.378l.108-.182-.108-.178c-1.633-2.696-3.658-4.242-6.015-4.602-3.375-.511-6.369 1.553-7.327 2.298a3.446 3.446 0 0 0-2.315-1.444c-3.942-.657-9.831 4.315-10.296 4.718-6.949 4.319-14.423 4.438-22.215.353-5.848-3.07-9.688-7.487-9.709-7.505-4.144-5.798-5.361-10.771-3.62-14.789 2.952-6.802 13.587-8.897 15.696-9.25.329 3.679 1.556 6.33 3.651 7.882 2.889 2.137 6.334 1.374 6.481 1.343l.388-.091-.14-.374c-1.99-5.326.469-8.732 1.43-9.795 2.074 4.77 4.693 7.442 7.799 7.945 4.767.773 8.841-3.85 9.013-4.046l.322-.374-.458-.182c-1.644-.654-2.798-1.759-3.427-3.284-1.588-3.85.581-9.229.78-9.701 8.985-12.488 6.092-25.763 2.081-34.705-4.337-9.662-10.884-16.478-10.933-16.527-5.82-6.935-8.334-13.443-7.467-19.339.738-5.022 3.812-8.295 5.431-9.708-3.403 9.005-.944 15.828 1.805 20.031 3.102 4.742 7.117 7.179 7.285 7.281l.143.084.157-.056c11.062-4.074 18.91-2.595 23.548-.633 5.019 2.123 7.463 5.249 7.467 5.249 5.585 9.005 7.159 17.038 4.679 23.881-3.774 10.404-15.801 14.492-15.923 14.534l-.28.091.045.294c1.343 8.631 14.196 8.327 16.745 8.18-.49 3.018-5.375 4.511-5.428 4.525l-.437.133.241.388c3.2 5.172 11.024 2.756 11.356 2.647l.042-.014c11.178-5.239 28.395-.388 28.546-.346 5.757 2.07 9.425 2.476 10.912 1.206.79-.678.63-1.563.623-1.602l-.028-.084c-1.291-2.728-1.388-4.773-.29-6.088 3.385-4.046 16.773-.483 16.882-.458 11.129 4.043 18.963 1.955 23.576-.511 4.655-2.486 6.998-5.763 7.383-6.333 4.693-2.361 10.52 3.602 10.58 3.665l.563.584.039-.811c.164-3.791-.706-6.613-2.592-8.396-1.993-1.885-4.491-2-5.351-1.983-.525-1.888-1.556-3.298-3.067-4.193-3.228-1.916-7.467-.829-7.645-.783l-.059.017-.052.035c-4.494 3.112-8.247 3.536-9.859 3.55 3.522-2.896 9.975-6.459 11.209-7.127 4.721 3.822 9.013.846 9.055.815l.059-.042.038-.063c.609-1.021 1.476-1.668 2.578-1.923 3.228-.748 7.484 2.007 7.526 2.035l.619.409-.08-.738c-.392-3.567-1.759-6.186-4.06-7.791-3.567-2.479-8.194-1.731-9.334-1.497-1.088-1.745-2.574-2.742-4.417-2.958-5.078-.602-11.499 4.85-14.059 7.26 2.158-4.55 8.576-8.841 9.558-9.481 6.176 1.584 9.411-1.867 9.915-2.462 2.78-1.018 4.578.818 4.651.899l.902.951-.308-1.273c-.64-2.672-1.973-4.546-3.959-5.581-3.417-1.773-7.649-.5-8.747-.119-1.06-1.486-2.375-2.242-3.914-2.242h-.077c-5.089.084-11.146 8.431-13.28 11.628 1.312-7.575 11.758-15.625 11.87-15.709l.427-.325-.469-.259c-2.717-1.511-5.257-1.892-7.547-1.14-3.123 1.025-4.781 3.826-5.211 4.648-4.673-.36-5.83 3.207-5.841 3.245-3.462 11.351-9.485 16.114-13.927 18.115-4.812 2.165-8.869 1.644-8.932 1.637-4.977-.36-8.499-2.074-10.461-5.095-3.557-5.469-.888-13.551-.678-14.163 7.019-10.855 6.722-19.877 6.519-22.08 4.375 1 7.663.605 9.779-1.178 2.665-2.242 2.438-5.816 2.427-5.97l-.024-.35-.353.028c-5.662.462-7.46-1.766-7.939-2.64 3.886-1.119 6.442-3.004 7.61-5.602 1.71-3.808-.199-7.711-.28-7.875l-.241-.479-.343.413c-6.498 7.868-19.047-.923-19.152-.997-8.341-6.973-23.352-6.351-34.477-4.602-7.516 1.182-14.315 3.021-18.379 4.242 18.613-10.026 33.424-23.378 33.578-23.518l.518-.469-.682-.136c-18.155-3.585-30.063 1.395-31.983 2.284-3.225-4.602-1.927-12.037-1.913-12.114l.049-.262-.238-.115c-17.903-8.764-20.355-17.181-20.634-20.098 10.097 14.38 23.807 17.929 26.591 18.517-3.753 6.431-.283 9.197-.133 9.316l.143.108.171-.052c13.857-4.113 39.048-1.958 43.025-1.584-4.151 7.599.399 12.17.444 12.215l.175.171.22-.108c24.926-11.97 39.006-12.904 46.431-11.579 7.977 1.423 10.142 5.69 10.156 5.718 1.567 3.675 3.662 5.983 6.229 6.858 2.766.941 5.138-.112 5.673-.381 3.165.542 2.543 7.833 2.536 7.91l-.052.587.542-.238c2.231-.976 3.637-2.43 4.179-4.315.958-3.329-1.077-6.928-1.654-7.854 1.007-1.266 1.367-2.598 1.07-3.966-.832-3.829-6.561-6.533-6.823-6.655-3.518-1.343-3.529-1.969-3.529-2 .007-.073.262-.22.514-.273 5.935-1.035 13.045 4.602 13.143 4.679 5.173 3.389 9.53-1.161 10.268-2h.007c4.036 0 5.995 6.211 6.012 6.274l.273.885.381-.843c1.465-3.245 1.654-6.123.57-8.557-1.465-3.287-4.767-4.676-5.596-4.98-1.605-5.994-7.974-6.151-8.401-6.151-8.918-.874-11.394-1.472-12.059-1.769 1.245-.479 6.918-.885 12.143-1.014 2.478-.104 4.373-.845 5.632-2.213zM357.115 191.066c.346.797 1.829 3.193 7.712 5.399.07.234.136.626-.059.808-.185.171-1.081.577-4.924-1.392l-.199-.101-4.298 3.403c-1.367-.608-9.688-4.413-11.772-8.117h13.54zm-63.103 35.715c1.966-13.366 12.779-20.881 12.888-20.954l.598-.406-.693-.217c-2.301-.717-4.557-1.077-6.753-1.077-3.291 0-6.456.804-9.46 2.409-10.254 5.476-15.983 18.968-17.84 24.06.21-11.789 5.026-20.545 14.329-26.053 7.358-4.357 14.927-4.931 15.004-4.938l.685-.045-.444-.528c-4.211-4.994-10.191-6.879-17.291-5.452-3.844.773-7.068 2.336-8.583 3.158 4.956-10.065 23.726-5.756 23.919-5.711l.567.133-.147-.563c-1.993-7.676-10.338-9.064-13.451-9.313 5.876-2.99 14.01 1.619 14.098 1.668l.591.343-.066-.678c-.203-2.004 3.099-5.592 4.519-6.935 14.951.378 20.124 3.427 21.831 5.924.72 1.053.808 1.99.766 2.563-6.306-5.907-20.386-3.833-20.998-3.738l-.161.024-.087.14c-3.197 5.277-4.05 10.166-2.543 14.523 2.102 6.071 8.11 9.288 10.307 10.285-7.593 3.053-12.783 8.033-15.43 14.817-5.148 13.187.738 29.872 3.424 36.268-7.739-10.326-10.96-20.306-9.579-29.707zM425.569 183.11l4.564 13.593-11.53-8.389-11.248 8.396 4.316-13.439-11.391-8.292h14.052l4.159-12.942 4.347 12.942h13.619z"/><path fill="#660434" d="M485.749 228.471c.427.248.71.594.846 1.028.329 1.053-.364 2.263-.511 2.5a1.573 1.573 0 0 1-.262.416l-.066.08c-.01.014-.025.028-.035.042l-.098.108a8.32 8.32 0 0 1-.497.49l-.227.206a21.678 21.678 0 0 1-.651.549c-1.71 1.399-4.274 3.165-6.299 4.508a159.584 159.584 0 0 1-1 .657c-.01.007-.024.014-.035.025-1.518.997-2.882 2.207-4.008 3.623a.036.036 0 0 1-.014.018c-.077.098-.154.196-.224.294-.084.105-.161.21-.231.315-.602.836-1.032 1.612-1.294 2.319a2.742 2.742 0 0 0-.077.22c-.028.077-.049.154-.07.227a3.863 3.863 0 0 0-.087.374c-.01.049-.021.098-.025.143a3.412 3.412 0 0 0-.045.542c0 .318.049.615.147.892.077.217.185.416.311.594.028.046.063.087.094.129.004.003.007.007.007.01.035.042.07.08.105.119a2.318 2.318 0 0 0 .206.209c.024.021.049.045.073.063.066.063.136.115.206.168.087.066.178.129.273.185.091.059.185.115.283.164.094.053.189.098.287.143.944.437 1.997.58 3.036.507l.045-.003c.21-.014.413-.025.612-.035.063-.003.122-.003.182-.007l.273-.01c4.34-.091 6.544 1.238 7.656 2.511a5.545 5.545 0 0 1 .49.65c.073.119.143.238.203.35.206.392.318.731.374.951 3.693.409 8.04-2.448 8.086-2.476l.511-.343.031.615c.136 2.738-.605 4.952-2.207 6.581-2.675 2.721-6.883 2.945-7.999 2.955-.392 1.241-1.14 2.179-2.221 2.794-2.812 1.595-6.897.455-7.068.406l-.08-.035c-8.39-4.857-13.395-4.319-13.888-4.249-17.399 8.173-16.315 39.216-16.305 39.527l.018.364h-.367c-6.449 0-9.929-6.655-10.922-8.91-7.862 15.471-16.308 17.797-16.668 17.887l-.409.105-.028-.42c-.822-12.243-7.663-21.51-13.255-27.127-6.078-6.102-12.041-9.341-12.101-9.372l-.595-.322.605-.301c11.307-5.655 38.149-16.863 38.419-16.975 8.897-3.864 13.846-11.163 14.71-21.689.647-7.886-1.378-14.723-1.399-14.793-1.651-4.718-1.759-8.445-.322-11.061 1.081-1.965 2.707-2.675 3.315-2.882.539-4.046 1.931-6.774 4.141-8.106 2.655-1.602 5.47-.567 5.589-.521l.731.276-.696.36c-2.669 1.385-2.794 6.669-2.791 7.798.469.227.881.49 1.242.78.143.115.28.238.409.36 1.679 1.637 2.011 3.952 1.973 5.686 0 .084-.003.164-.007.245 0 .08-.007.157-.011.231a12.798 12.798 0 0 1-.045.553l-.011.091a60.688 60.688 0 0 0-.308 4.277c-.007.21-.01.416-.014.612v.038c-.004.15-.004.294-.007.434v.007c0 .112-.003.22-.003.325a64.792 64.792 0 0 0 0 1.654c0 .08.003.157.003.231.004.101.004.203.007.301.01.388.024.717.042.993.01.14.017.266.028.378.028.343.063.577.094.738.511-1.112 1.371-5.008 1.99-8.599.423-2.759 1.542-4.798 3.329-6.05 2.375-1.661 5.155-1.406 5.928-1.294 2.917-3.326 5.743-4.885 8.404-4.637 3.298.311 5.057 3.284 5.131 3.41l.441.762-.843-.252c-3.655-1.084-6.599 3.095-7.219 4.057.301.427.542.857.731 1.29.06.14.115.28.164.423l.084.248a6.883 6.883 0 0 1 .262 2.707 8.207 8.207 0 0 1-.164 1.025c-.028.115-.052.231-.084.343a10.146 10.146 0 0 1-.318 1.01c-.077.206-.157.409-.245.608a15.034 15.034 0 0 1-.486 1.004c-.052.101-.112.206-.168.308-.059.101-.115.203-.175.304a18.849 18.849 0 0 1-.938 1.427c-.105.147-.21.287-.315.427-.063.084-.126.168-.192.248a23.914 23.914 0 0 1-1.553 1.794l-.01.01a12.29 12.29 0 0 0-2.543 3.941c-.091.231-.161.427-.217.594-.017.056-.035.105-.049.154l-.031.112c-.112.416-.094.584-.077.647h.01a.262.262 0 0 0 .07-.01.333.333 0 0 0 .073-.021c.192-.063.479-.234.818-.479.115-.08.238-.175.364-.276h.004a8.78 8.78 0 0 0 2.091-2.395c.084-.143.171-.287.262-.423a7.57 7.57 0 0 1 .294-.437c.098-.14.196-.276.301-.406 0-.007.003-.01.01-.017.101-.129.203-.259.308-.378a6.813 6.813 0 0 1 .343-.384 9.68 9.68 0 0 1 .318-.322c.112-.108.231-.213.346-.315.004-.007.01-.01.014-.014a8.901 8.901 0 0 1 .703-.538c.01-.01.024-.018.035-.025.108-.073.22-.143.332-.213.014-.007.024-.014.035-.021a7.994 7.994 0 0 1 .766-.398 9.22 9.22 0 0 1 .409-.168c.136-.052.276-.101.416-.143 2.84-.874 5.438.227 6.215.612 2.158-1.962 4.344-2.745 6.509-2.333 4.491.857 7.205 6.533 7.317 6.774l.416.885-.881-.42c-2.553-1.213-4.711-1.476-6.421-.78-1.47.606-2.218 1.787-2.494 2.33z"/><path fill="#FFCD00" d="m147.787 184.866-33.624-8.533-6.837 8.949 18.7 28.854 6.435 9.925.031.042c3.7 4.162 4.907 11.068 4.917 11.138l.154.888 8.848-13.789-.476-.119c-4.711-1.15-9.051-8.358-9.789-9.634l11.671-15.87c5.243-.112 11.545 5.686 11.608 5.746l.273.252 10.111-12.261-22.022-5.588zm-16.934 20.447c-6.474-9.995-9.03-13.796-10.076-15.254l17.134 4.504-7.058 10.75zM190.787 169.038c-2.263 4.924-7.337 11.222-18.679 13.271l-.178.035-8.373-8.372.878.024c.031 0 .678.014 1.724-.049.07-.004.143-.007.217-.014a32.145 32.145 0 0 0 4.354-.601c.122-.025.248-.053.371-.08.248-.056.497-.112.748-.178.126-.032.255-.063.381-.098a23.298 23.298 0 0 0 3.158-1.07 5.44 5.44 0 0 0 .343-.147 18.577 18.577 0 0 0 1.588-.787c.224-.126.444-.255.665-.392.262-.157.518-.325.769-.504a6.84 6.84 0 0 0 .318-.227c.241-.175.476-.36.706-.553a12.864 12.864 0 0 0 2.417-2.636c.077-.105.147-.21.217-.318l.077-.129c.056-.087.112-.175.161-.262.021-.035.042-.07.059-.105.028-.045.056-.091.08-.136.017-.028.031-.059.045-.087.962-1.784.997-3.955-.042-5.658.003 0 .003.003.007.007 0-.003-.003-.01-.01-.014 0-.007-.007-.014-.01-.018a1.617 1.617 0 0 0-.073-.112.266.266 0 0 0-.024-.038c-.003-.004-.003-.007-.003-.007v-.004c-.042-.059-.084-.119-.126-.175l-.011-.018a.092.092 0 0 1-.017-.025c-.017-.024-.038-.049-.056-.073a2.286 2.286 0 0 0-.091-.115l-.157-.189c-.056-.059-.112-.122-.171-.178a4.817 4.817 0 0 0-.577-.511c-.14-.108-.29-.21-.448-.304-1.577-.955-3.69-1.154-6.316-.594l-.003.003a19.05 19.05 0 0 0-1.979.535c-.178.052-.36.112-.542.178-.045.014-.087.031-.133.045-.206.073-.416.147-.626.231a27.485 27.485 0 0 0-4.197 2.035c-.101.059-.21.122-.325.185l-.22.122c-.136.073-.28.15-.434.227-.357.182-.752.367-1.189.546a13.466 13.466 0 0 1-1.336.493c-.119.038-.241.077-.364.112-.21.063-.423.122-.644.175a.497.497 0 0 1-.063.018l-.171.042a5.307 5.307 0 0 1-.269.059c-.115.028-.231.049-.346.073-.29.056-.591.105-.899.14-.136.021-.276.035-.413.049-.007 0-.014.004-.021.004a7.971 7.971 0 0 1-.416.031c-.969.066-1.993.031-3.05-.15-3.837-.661-7.187-3.102-9.957-7.256-.154-.203-4.134-5.476-2.392-12.6 1.682-6.893 8.065-12.96 18.966-18.031l.245-.112 7.628 9.176-.672.052-.063.007a.685.685 0 0 0-.08.007c-.007 0-.017 0-.028.004a30.433 30.433 0 0 0-.898.101c-.192.024-.409.052-.643.087a37.578 37.578 0 0 0-2.186.371c-.07.01-.143.025-.217.042-.147.028-.294.059-.444.091l-.441.094c-.157.035-.318.073-.479.112-.311.07-.63.15-.955.238-.29.077-.588.157-.885.245-.031.01-.059.021-.091.028-.164.049-.329.098-.493.15a23.538 23.538 0 0 0-1.199.409c-.094.031-.185.066-.276.101a19.73 19.73 0 0 0-.965.392 18.165 18.165 0 0 0-1.389.668c-.08.042-.157.087-.234.129-2.847 1.654-4.431 4.91-3.732 8.096.017.084.038.171.059.255s.045.164.07.248c.021.063.038.129.059.192.021.066.042.129.066.192.021.066.045.129.073.192.024.063.049.126.077.189a5.68 5.68 0 0 0 .171.36c.063.126.129.248.206.367.035.059.073.115.112.175.035.052.07.105.108.154.063.087.129.171.199.255.031.038.063.073.098.112a3.886 3.886 0 0 0 .385.381c.07.063.143.122.217.182 2.609 2.028 7.428 1.371 14.332-1.958.329-.147 7.894-3.448 14.182-.105.493.262.962.556 1.409.885 3.046 2.235 5.057 6.015 5.977 11.261l.004.042c.013.205.244 4.975-2.205 10.308zM286.503 99.188c-.483-6.319-3.501-12.869-8.995-19.524-.126-.154-3.106-3.798-8.485-6.305-4.97-2.312-12.982-4.011-22.932 1.032l-.007.004c-.122.066-12.482 6.781-15.287 18.891a22.165 22.165 0 0 0-.56 5.637c.003.273.017.549.038.825.004.108.014.217.021.325.003.07.01.143.018.217.01.094.017.189.028.283.011.129.024.259.042.388.007.08.018.161.031.241.038.343.091.685.15 1.028.017.105.035.21.056.315.028.175.063.35.101.525.049.252.105.504.164.752.024.098.045.192.073.29.049.21.105.423.164.636.038.14.077.276.119.416.031.115.063.227.101.343.052.178.108.357.168.532.098.304.199.605.311.902.052.147.108.297.168.448.056.15.115.301.175.451a22.8 22.8 0 0 0 .381.92c.336.776.71 1.553 1.123 2.329a31.787 31.787 0 0 0 .874 1.58c.094.164.192.329.294.493a43.843 43.843 0 0 0 1.759 2.689l.336.472c.01.024.035.066.073.126.014.021.028.042.042.066.021.035.045.07.07.108a.276.276 0 0 0 .028.045c1.126 1.776 6.533 9.536 15.896 11.208 1.217.217 2.448.325 3.7.325 6.89 0 14.259-3.298 21.96-9.834.066-.052 6.785-5.553 7.75-15.03.143-1.369.161-2.754.052-4.149zm-16.525 14.443c-.087.084-.175.171-.266.255-.161.154-.322.301-.483.441a17.957 17.957 0 0 1-.979.808 8.844 8.844 0 0 1-.497.364 13.353 13.353 0 0 1-.98.64c-.021.014-.042.024-.063.038-.157.091-.315.182-.476.266-.157.087-.315.168-.472.245a10.646 10.646 0 0 1-1.018.444c-.042.021-.087.035-.133.052-.154.056-.308.112-.462.161a8.099 8.099 0 0 1-.49.15.335.335 0 0 1-.073.021c-.157.042-.311.084-.469.119-.024.007-.045.014-.07.018a9.085 9.085 0 0 1-.507.101 8.175 8.175 0 0 1-.49.077 9.248 9.248 0 0 1-.605.07c-.332.028-.664.042-.99.042-.171 0-.346-.004-.514-.014-.038 0-.07 0-.101-.004a8.341 8.341 0 0 1-.423-.028 8.563 8.563 0 0 1-.521-.056 3.61 3.61 0 0 1-.287-.042c-.126-.018-.252-.035-.374-.059-.14-.024-.276-.053-.413-.08-.077-.017-.154-.031-.231-.052a7.425 7.425 0 0 1-.276-.066l-.252-.063-.371-.105a16.07 16.07 0 0 1-2.207-.846 19.822 19.822 0 0 1-3.784-2.326c-.052-.042-.105-.08-.154-.122a10.426 10.426 0 0 1-2.077-2.256c-.031-.042-.056-.08-.084-.122-5.113-7.666-6.932-14.383-5.417-19.975 1.717-6.34 7.268-8.938 7.323-8.966l.049-.025c.122-.084.248-.161.371-.238a5.91 5.91 0 0 1 .227-.136 11.074 11.074 0 0 1 1.168-.608 11.39 11.39 0 0 1 1.242-.482c.14-.049.283-.091.423-.129.119-.035.241-.066.36-.094a10.13 10.13 0 0 1 .896-.189c.276-.049.549-.084.818-.108a9.74 9.74 0 0 1 .329-.028l.073-.003c.133-.007.266-.014.399-.018.133-.003.262-.007.392-.007 3.683.017 7.163 1.762 9.53 4.613.42.514.815 1.028 1.186 1.532.122.161.241.325.357.486.29.399.567.794.825 1.189a35.585 35.585 0 0 1 2.518 4.35 32.456 32.456 0 0 1 .713 1.574c.087.206.171.413.248.615.08.199.157.395.227.591l.01.031c.07.192.14.385.203.574.07.196.133.392.192.584.126.385.238.766.336 1.137.105.385.196.762.276 1.13l.105.5c.042.203.077.406.112.601.024.143.045.28.07.42.035.231.066.458.091.678.017.143.035.283.049.423.028.28.052.556.07.822.01.185.021.364.024.542a14.286 14.286 0 0 1-4.203 10.543zM438.377 71.634l-.5.374c-.056.042-4.826 3.847-20.232 28.029a821.488 821.488 0 0 0-10.87 17.587l-.14.231-11.073-3.357-.031-.22-2.798-19.454-4.998-34.754h.406c1.43 0 14.602 1.598 15.161 1.668l.339.042-.035.339c-.017.164-1.437 15.331.766 34.827.189 1.703.409 3.438.661 5.2.616-.829 1.745-2.375 3.176-4.378 5.96-8.358 17.099-24.724 17.441-30.704l.028-.483 12.699 5.053zM498.514 144.174l-9.947 10.862-.248-.154-30.567-19.255.238-.304c3.9-4.987 7.624-10.575 10.978-16.076 8.974-14.709 15.322-28.781 15.409-28.973l.15-.339 13.682 7.221-.448.329c-3.711 2.745-12.671 16.975-18.739 27.036a607.426 607.426 0 0 0-5.9 9.981c14.203 11.554 24.268 9.879 24.366 9.858l1.026-.186zM520.372 152.721a622.414 622.414 0 0 0-8.614 9.631c11.699 14.083 21.897 14.383 21.998 14.387l1.042.014-11.863 8.732-26.475-25.008.294-.252c5.103-4.406 10.139-9.519 14.724-14.569 11.237-12.376 19.764-24.35 19.882-24.518l.217-.304 12.024 9.729-.504.238c-4.017 1.902-14.873 13.31-22.725 21.92zM586.224 177.819l-.266.154c-1.931 1.112-12.16 3.777-28.804 7.505-1.025.231-2.042.455-3.05.678-12.202 2.7-22.652 4.829-23.219 4.864h-.706l9.237 11.97.245-.518c1.759-3.724 9.569-5.427 10.961-5.704l11.475 15.677c.024 2.43-5.893 7.739-8.208 9.606l-.238.189 8.334 13.971.203-.829c.689-2.815 6.292-11.827 12.542-21.311 8.495-12.897 18.19-26.665 18.358-26.906l.15-.21-7.014-9.136zm-18.07 26.508-.717 1.067-7.754-11.187.797-.203 17.592-4.452-9.918 14.775zM312.812 597.351l-3.256 23.59-1.093 7.922-7.394-1.279 1.045-7.997 1.676-12.856-5.192-.23v-4.935l.372.062c.292.051 7.125 1.156 8.144-4.743l.055-.319 5.643.785zM341.123 614.665c2.954-3.29 4.238-6.219 3.822-8.705-.338-2.025-1.774-3.72-4.272-5.041a13.22 13.22 0 0 0-14.513 1.404c-2.068 1.671-3.076 3.498-2.994 5.429.125 2.877 2.626 5.089 3.616 5.859-4.154 3.089-4.843 7.564-4.853 8.809 0 .049.003.094.003.132.226 5.984 4.556 8.365 8.48 9.294 1.132.267 2.278.402 3.414.402 2.579 0 5.117-.686 7.368-2.018 2.515-1.491 3.931-3.411 4.208-5.71.017-.146.03-.288.037-.433.243-4.26-3.343-8.385-4.316-9.422zm-7.589 11.95c-2.657 0-4.811-2.005-4.811-4.478s2.154-4.478 4.811-4.478 4.811 2.005 4.811 4.478-2.154 4.478-4.811 4.478zm.814-14.22c-2.208 0-3.997-1.64-3.997-3.664 0-2.023 1.789-3.664 3.997-3.664s3.997 1.64 3.997 3.664-1.79 3.664-3.997 3.664zM375 600l-21 1 .203 5.681 15.208-.578L358 631l6.779.241 10.575-24.56zM409.101 618.093 408 612l-6 1-2.225-17h-5.773l-11.769 19.765.444 6.324L397 620l.998 7.529 6.329-.962L403 619l6.101-.907zm-20.374-3.164 5.329-8.992 1.61 8.604-6.939.388z"/></svg>