<?xml version="1.0" encoding="UTF-8"?>
<svg width="295" height="339" fill="none" version="1.1" viewBox="0 0 295 339" xmlns="http://www.w3.org/2000/svg">
 <path transform="matrix(3.5736 0 0 3.5736 -30.607 -8.9669)" d="m49.204 96.906c-10.718-1.989-20.774-7.5139-28.287-15.47-7.6243-8.1215-11.934-18.122-11.989-28.066v-50.497h81.989v50.497c-0.1105 10-4.3647 19.945-11.989 28.066-7.5138 7.9558-17.514 13.481-28.287 15.47l-0.7182 0.1105z" clip-path="url(#clipPath574)" fill="#5f0041"/>
 <g fill="#fff">
  <path transform="matrix(3.5736 0 0 3.5736 -30.607 -8.9669)" d="m11.47 5.4143v47.956c0.1105 9.337 4.1437 18.674 11.326 26.354 7.127 7.5691 16.685 12.818 26.906 14.751l0.2209 0.0552 0.221-0.0552c10.221-1.9337 19.779-7.1271 26.906-14.751 7.1823-7.6796 11.216-17.017 11.326-26.409v-47.901zm74.365 47.901c-0.1658 17.845-15.967 34.751-35.912 38.619-20-3.8121-35.746-20.773-35.912-38.564v-45.414h71.878v45.359z" clip-path="url(#clipPath568)"/>
  <path transform="matrix(3.5736 0 0 3.5736 -30.607 -8.9669)" d="m27.436 69.171c0.2763-0.0553 0.442-0.1105 0.5525-0.3868 0.1105-0.2762 0.1105-0.7735-0.6077-1.0497l-1.547-0.6077-1.105 2.8176 1.6023 0.6078c0.4972 0.221 1.1049 0.1105 1.3259-0.442 0.1658-0.4973 0-0.7735-0.221-0.9392zm-0.6077 0.4419c-0.1105 0.221-0.2762 0.221-0.442 0.1105l-0.4972-0.221 0.221-0.4972 0.5524 0.221c0.1658 0.1105 0.221 0.221 0.1658 0.3867zm0.2762-1.0497c-0.0552 0.1658-0.221 0.1658-0.3867 0.1105l-0.442-0.1657 0.1658-0.442 0.4419 0.1657c0.221 0.1105 0.2763 0.221 0.221 0.3315z" clip-path="url(#clipPath562)"/>
  <path transform="matrix(3.5736 0 0 3.5736 -30.607 -8.9669)" d="m29.536 68.564-0.8287-0.3867-0.7735 1.6574c-0.3315 0.7735-0.1105 1.326 0.7183 1.7127 0.8287 0.3868 1.4364 0.221 1.7679-0.5525l0.7735-1.6574-0.8287-0.3868-0.7183 1.4918c-0.1105 0.2762-0.2762 0.6077-0.7182 0.4419-0.3867-0.1657-0.221-0.5524-0.1105-0.8287z" clip-path="url(#clipPath556)"/>
  <path transform="matrix(3.5736 0 0 3.5736 -30.607 -8.9669)" d="m30.862 72.652 0.5524-0.9393 0.442 0.221c0.3315 0.1658 0.1658 0.442 0.0553 0.7183-0.0553 0.1657-0.1105 0.2762-0.1658 0.4419l0.8288 0.442c0-0.1657 0.1657-0.4972 0.221-0.6077 0.1657-0.3315 0.1657-0.663 0-0.884 0.3315 0.0553 0.6077-0.1657 0.7734-0.442 0.2763-0.4972 0.0553-0.9944-0.4419-1.2154l-1.547-0.884-1.4917 2.5967zm1.1602-1.989 0.3867 0.221c0.3315 0.1657 0.3315 0.3315 0.221 0.4972-0.1105 0.221-0.3315 0.1658-0.4972 0.0553l-0.442-0.221z" clip-path="url(#clipPath550)"/>
  <path transform="matrix(3.5736 0 0 3.5736 -30.607 -8.9669)" d="m33.293 74.199 1.0497-1.2707-0.3315 1.8232 0.7183 0.6077 1.8784-2.3756-0.6629-0.5525-1.0498 1.2707 0.3315-1.8232-0.7182-0.6077-1.9337 2.3756z" clip-path="url(#clipPath544)"/>
  <path transform="matrix(3.5736 0 0 3.5736 -30.607 -8.9669)" d="m36.773 76.961 0.4973-0.6078-1.0497-0.7735 1.3812-1.8232-0.7735-0.5525-1.8232 2.3757z" clip-path="url(#clipPath538)"/>
  <path transform="matrix(3.5736 0 0 3.5736 -30.607 -8.9669)" d="m39.149 78.619 0.442-0.663-1.3812-0.884 0.221-0.3315 1.2155 0.7735 0.3867-0.5525-1.1602-0.8287 0.1657-0.2762 1.326 0.8287 0.2762-0.3315v1.8232l-0.5524 0.9392 0.7734 0.4973 0.5525-0.9945 1.8785-1.1602-0.884-0.4973-0.9945 0.7183 0.1105-1.2155-0.7182-0.3867-2.0995-1.3813-1.6574 2.4862z" clip-path="url(#clipPath532)"/>
  <path transform="matrix(3.5736 0 0 3.5736 -30.607 -8.9669)" d="m44.011 80.994 0.3867-1.105 1.1602 0.3868 0.221-0.663-1.1602-0.3868 0.1657-0.3867 1.326 0.4972 0.221-0.7182-2.1547-0.7735-1.0497 2.8177z" clip-path="url(#clipPath526)"/>
  <path transform="matrix(3.5736 0 0 3.5736 -30.607 -8.9669)" d="m45.945 80.055c-0.1657 0.884 0.2763 1.6575 1.2155 1.8233 0.884 0.1657 1.6022-0.3315 1.8232-1.2708 0.1657-0.8839-0.2763-1.6574-1.2155-1.8232-0.9392-0.1657-1.6574 0.3868-1.8232 1.2707zm0.884 0.221c0.1105-0.6629 0.4972-0.7182 0.7735-0.7182 0.221 0.0553 0.5525 0.2763 0.442 0.9392-0.1105 0.663-0.4973 0.7183-0.7735 0.7183-0.221-0.0553-0.5525-0.2763-0.442-0.9393z" clip-path="url(#clipPath520)"/>
  <path transform="matrix(3.5736 0 0 3.5736 -30.607 -8.9669)" d="m50.586 82.32c0.9393 0 1.547-0.6077 1.547-1.547 0-0.9392-0.6077-1.6022-1.4917-1.6022-0.9392 0-1.547 0.6078-1.547 1.547-0.0552 0.884 0.5525 1.547 1.4917 1.6022zm0.0553-2.4309c0.221 0 0.6077 0.1657 0.6077 0.8287s-0.3867 0.8287-0.6077 0.8287-0.6077-0.1657-0.6077-0.8287 0.3315-0.8287 0.6077-0.8287z" clip-path="url(#clipPath514)"/>
  <path transform="matrix(3.5736 0 0 3.5736 -30.607 -8.9669)" d="m52.961 79.834 0.3868 2.2652 0.8839-0.1657-0.3315-2.21 0.8288-0.1657-0.1105-0.7735-2.5967 0.442 0.1105 0.7735z" clip-path="url(#clipPath508)"/>
  <path transform="matrix(3.5736 0 0 3.5736 -30.607 -8.9669)" d="m57.326 81.05c0.4972-0.1658 0.884-0.663 0.663-1.2155-0.1658-0.442-0.442-0.5525-0.7735-0.5525 0.1658-0.1657 0.2763-0.3867 0.1658-0.663-0.1105-0.2762-0.3868-0.6629-1.1603-0.3867l-1.5469 0.5525 0.9944 2.8177zm-0.221-0.9945c0.0553 0.221-0.0552 0.3315-0.221 0.3867l-0.4972 0.1658-0.1658-0.5525 0.5525-0.221c0.1105 0 0.2763 0.0552 0.3315 0.221zm-0.8287-1.105c0.1657-0.0552 0.3315-0.0552 0.3867 0.1105 0.0553 0.1658-0.0552 0.2763-0.221 0.3315l-0.442 0.1658-0.1657-0.442z" clip-path="url(#clipPath502)"/>
  <path transform="matrix(3.5736 0 0 3.5736 -30.607 -8.9669)" d="m59.149 80.276-0.0552-0.442 0.8287-0.442 0.3315 0.3315 0.8287-0.442-2.3757-2.1546-0.8287 0.4419 0.442 3.2045zm-0.3867-2.0994 0.663 0.7182-0.4973 0.2763z" clip-path="url(#clipPath496)"/>
  <path transform="matrix(3.5736 0 0 3.5736 -30.607 -8.9669)" d="m63.072 77.845-0.3867-0.6077-1.1603 0.7183-1.2154-1.8785-0.7735 0.4972 1.6574 2.5415z" clip-path="url(#clipPath490)"/>
  <path transform="matrix(3.5736 0 0 3.5736 -30.607 -8.9669)" d="m65.116 76.354-0.442-0.663-1.0497 0.8288-1.3813-1.8233-0.7182 0.5525 1.8232 2.431z" clip-path="url(#clipPath484)"/>
  <path transform="matrix(3.5736 0 0 3.5736 -30.607 -8.9669)" d="m67.381 74.641c0.663-0.5525 0.663-1.3812 0.2763-1.8232l-0.7183 0.5525c0.1105 0.2763 0.1658 0.4973-0.0552 0.7182-0.3315 0.2763-0.7183 0-0.9393-0.2762-0.2762-0.3315-0.3867-0.7182-0.0552-0.9945 0.2762-0.221 0.5525-0.0552 0.663 0.0553l0.7182-0.5525c-0.5525-0.5525-1.1602-0.6077-1.8232-0.1105-0.7182 0.5525-0.8287 1.4365-0.221 2.2099 0.5525 0.6078 1.4365 0.8288 2.1547 0.221z" clip-path="url(#clipPath478)"/>
  <path transform="matrix(3.5736 0 0 3.5736 -30.607 -8.9669)" d="m70.365 72.21-0.4973-0.6078-1.0497 0.8288-1.326-1.8232-0.7734 0.5525 1.8232 2.4309z" clip-path="url(#clipPath472)"/>
  <path transform="matrix(3.5736 0 0 3.5736 -30.607 -8.9669)" d="m71.635 71.492c0.7735-0.4972 0.9945-1.0497 0.5525-1.7679l-0.9392-1.6022-0.7735 0.4972 0.8287 1.4365c0.1658 0.2762 0.3315 0.6077 0 0.8287-0.3867 0.221-0.6077-0.1105-0.7182-0.3867l-0.8287-1.4365-0.7735 0.4972 0.9392 1.6023c0.3315 0.6629 0.9393 0.7734 1.7127 0.3314z" clip-path="url(#clipPath466)"/>
  <path transform="matrix(3.5736 0 0 3.5736 -30.607 -8.9669)" d="m74.508 70.11c0.4972-0.1658 0.8839-0.663 0.6629-1.2155-0.1657-0.442-0.4419-0.5525-0.7734-0.5525 0.1657-0.1657 0.2762-0.3867 0.1657-0.663-0.1105-0.2762-0.442-0.663-1.1602-0.3867l-1.547 0.5525 0.9945 2.8176zm-0.221-0.9945c0.0552 0.221-0.0553 0.3315-0.221 0.3867l-0.4973 0.1658-0.1657-0.5525 0.5525-0.221c0.1657 0 0.2762 0.0552 0.3315 0.221zm-0.8288-1.105c0.1658-0.0552 0.3315-0.0552 0.3868 0.1105 0.0552 0.1658-0.0553 0.2763-0.221 0.3315l-0.442 0.1658-0.1658-0.442z" clip-path="url(#clipPath460)"/>
  <path transform="matrix(3.5736 0 0 3.5736 -30.607 -8.9669)" d="m79.094 63.425-0.1657-0.1657h-0.0553c1.6575-2.873 1.1602-5.5802 1.1602-5.7459-0.0552-0.221-0.1657-0.7182-0.663-1.1602-0.6077-0.5525-1.6022-0.7735-2.9281-0.6078-1.4365 0.1658-2.4862 0.663-2.873 1.4365l-0.0552 0.0553c-0.1105 0.2209-0.2763 0.6629-0.221 1.2707 0.0552 0.442 0.221 0.9944 0.3315 1.4364-0.8287 0.1105-1.6022 0.221-2.3205 0.4973-0.7182 0.2762-1.1049 0.6077-1.2154 1.0497-0.0553 0.1105-0.0553 0.2762 0 0.3867 0 0-0.1658 2.3757 0.1105 4.5857-3.4807 1.5469-5.4696 3.4254-5.4696 3.4254-7.6244 7.0718-13.702 7.2928-14.42 7.2928h-0.0553c-0.0552 0-6.4088 0.1105-14.42-7.2928 0 0-1.9337-1.6575-5.2486-3.1492 0.3315-2.3204 0.1658-5.1381 0.1105-5.3039-0.1105-0.4419-0.4972-0.8287-1.2155-1.0497-0.7182-0.2762-1.4917-0.3867-2.3204-0.4972 0.1657-0.442 0.2762-0.9945 0.3315-1.4365 0.0552-0.6077-0.0553-0.9945-0.221-1.2707 0-0.0552-0.0553-0.0552-0.0553-0.1105-0.4419-0.7735-1.4364-1.326-2.8729-1.4365-1.326-0.1105-2.3204 0.0553-2.9282 0.6078-0.4972 0.442-0.6077 0.9392-0.6629 1.1602 0 0.1105-0.4973 2.6519 1.3812 5.5801 0 0-0.0553 0-0.1105 0.0553 0 0-0.0553 0.0552-0.1105 0.0552-0.1105 0.0553-0.1658 0.1105-0.221 0.221-0.1658 0.1658-0.3868 0.4972-0.5525 0.884-0.3867 0.884-0.6077 2.7624 1.105 6.6851l0.0552 0.1105 0.1105 0.0552c0.0553 0 4.8066 1.326 9.8895 5.3039 3.5912 2.8177 7.9006 5.8563 12.486 7.1823l0.3867 0.1105c0.6078 0.1657 1.2708 0.3315 1.9337 0.3867l0.442 0.0553c0.0553 0 0.1658 0 0.2763 0.0552h0.221c0.7182 0.0553 1.4364 0.1105 2.1547 0.1105 0.3867 0 0.7182 0 1.1049-0.0552 0.9393-0.0553 1.9337-0.1658 2.9282-0.3868 0.7183-0.1657 1.2155-0.2762 1.4365-0.3867 4.1989-1.2155 8.6188-3.8122 12.431-7.1823 5.0276-4.4752 9.779-5.2486 9.8343-5.2486h0.1657l0.0553-0.1658c1.3812-3.7016 1.5469-5.5801 1.3812-6.5193 0.0552-0.2763-0.2763-0.663-0.442-0.884zm-5.0276-6.0773c0.3867-0.6078 1.2154-0.9945 2.4309-1.105 0.221 0 0.442-0.0553 0.663-0.0553 0.8287 0 1.4365 0.1658 1.8232 0.5525 0.3867 0.3315 0.442 0.7182 0.4972 0.8287v0.221 0.0553c-0.1657 0.9945-0.9392 1.4365-2.2652 1.6574l-0.3867-1.7679-0.2762 0.0552c-1.989 0.5525-2.431 0.221-2.5415 0.1105-0.1657-0.1657 0.0553-0.5524 0.0553-0.5524zm-0.0553 1.2154c0.4973 0.221 1.326 0.1658 2.431-0.1105l0.2762 1.2155c-0.442 0.0552-0.9392 0.1105-1.4917 0.1657h-0.0553c-0.1105 0-0.2209 0-0.3314 0.0553-0.1105 0-0.2763 0-0.3868 0.0552h-0.221c0-0.0552-0.0552-0.1657-0.1105-0.2762-0.0552-0.1658-0.1105-0.3867-0.1657-0.6077-0.0553-0.1658-0.1105-0.3868-0.1105-0.5525 0.0552 0 0.1105 0.0552 0.1657 0.0552zm-3.3701 3.0939c0.0552-0.2762 0.3867-0.4972 0.8839-0.7182 0.7183-0.2762 1.4918-0.3867 2.3205-0.4972 0.1105 0 0.1657 0 0.2762-0.0553 0.3315-0.0552 0.6078-0.0552 0.9392-0.1105h0.0553 0.1105 0.221c0.1105 0 0.221 0 0.3315-0.0552 0.5525-0.0553 1.105-0.1105 1.6022-0.221 0.442-0.0553 0.8287-0.1658 1.2155-0.3315 0.2762-0.1105 0.4972-0.221 0.7182-0.3867 0.1105-0.1105 0.2762-0.221 0.3867-0.3315v0.3315c-0.0552 0.9944-0.3315 2.3204-1.1049 3.6464-0.1658-0.1105-0.3868-0.1658-0.663-0.221-0.7735-0.221-2.1547-0.2763-3.4807-0.3315-0.9392-0.0553-1.9337-0.0553-2.6519-0.1658-0.663-0.1105-0.884-0.221-0.9392-0.2762-0.221-0.0553-0.221-0.1658-0.221-0.2763zm-0.0553 0.9393v-0.1105c0.3867 0.1657 1.0497 0.2762 1.8785 0.3315 0.3867 0 0.7734 0.0552 1.2154 0.0552h0.5525c1.2707 0.0553 2.5967 0.1105 3.3702 0.2763 0.221 0.0552 0.3867 0.1105 0.5525 0.1657 0.1105 0.0553 0.1657 0.0553 0.221 0.1105 0.2762 0.1657 0.2762 0.2762 0.2762 0.2762 0 0.1105-0.1105 0.2763-0.442 0.442-0.1657 0.1105-0.3867 0.1658-0.663 0.2763-0.442 0.1657-1.0497 0.2762-1.8784 0.3867-1.8785 0.2763-3.5359 0.8287-4.9724 1.3812-0.1105-1.3259-0.1105-2.7624-0.1105-3.5911zm-43.536-4.1437c0 0.1658-0.0553 0.3315-0.1105 0.5525s-0.1105 0.3867-0.1657 0.6077c-0.0553 0.1105-0.0553 0.1658-0.1105 0.2763h-0.221c-0.1105 0-0.2763 0-0.3868-0.0553-0.1105 0-0.221 0-0.3315-0.0552h-0.0552c-0.5525-0.0553-1.0497-0.1105-1.4917-0.1658l0.2762-1.2154c1.1602 0.2762 1.9337 0.3315 2.431 0.1105 0.1104 0 0.1657 0 0.1657-0.0553zm-5.1934-1.7679c0.4973-0.442 1.3812-0.6078 2.5415-0.4973 1.2154 0.1105 2.0994 0.4973 2.4309 1.105 0.0552 0.0552 0.1657 0.442 0.0553 0.6077-0.1105 0.1105-0.5525 0.442-2.5415-0.1105l-0.2762-0.0552-0.3868 1.7679c-1.3259-0.2209-2.1547-0.6629-2.2652-1.6574v-0.0553-0.221c0-0.1105 0.0553-0.5524 0.442-0.8839zm-0.442 2.6519c0-0.1105-0.0552-0.221-0.0552-0.3315 0.1105 0.1105 0.221 0.221 0.3315 0.2763 0.221 0.1657 0.442 0.2762 0.7182 0.3867 0.3315 0.1657 0.7735 0.2762 1.1602 0.3315 0.4973 0.1105 1.0498 0.1657 1.6022 0.221 0.1105 0 0.221 0 0.3315 0.0552h0.221 0.1105 0.0553c0.3315 0 0.6077 0.0553 0.9392 0.1105 0.1105 0 0.1657 0 0.2762 0.0553 0.8288 0.1105 1.6023 0.221 2.3205 0.4972 0.4972 0.221 0.8287 0.442 0.884 0.7182 0.0552 0.1105 0 0.221-0.0553 0.3315-0.0552 0.0553-0.3315 0.1658-0.9392 0.2763-0.7182 0.1105-1.7127 0.1105-2.6519 0.1657-1.326 0.0553-2.7072 0.1105-3.4807 0.3315-0.1658 0.0553-0.2763 0.1105-0.442 0.1658-0.8287-1.3813-1.2155-2.652-1.326-3.5912zm0.8288 4.4751v-0.1105c0.0552-0.0552 0.1657-0.1657 0.2762-0.221 0.0553-0.0552 0.1658-0.0552 0.221-0.1105 0.0553-0.0552 0.1657-0.0552 0.2762-0.1104 0.0553 0 0.1658-0.0553 0.2763-0.0553 0.7182-0.221 2.0442-0.2762 3.3702-0.2762 0.2762 0 0.5524 0 0.8287-0.0553 0.442 0 0.8287-0.0552 1.1602-0.0552 0.7182-0.0553 1.326-0.1658 1.6575-0.3315v0.1105c0 0.8839 0.0552 2.4862-0.1658 3.9779-1.4917-0.663-3.2044-1.2707-5.1934-1.6575-0.5524-0.1105-0.9944-0.221-1.3259-0.3315-0.1105-0.0552-0.221-0.0552-0.3315-0.1105-1.0497-0.3867-1.0497-0.6077-1.0497-0.663zm55.58 6.8509c-0.884 0.1657-5.2486 1.2154-9.9448 5.3591-3.7569 3.3149-8.1215 5.8563-12.265 7.0718-0.221 0.0553-0.7182 0.221-1.3812 0.3315-0.9392 0.221-1.8784 0.3315-2.8177 0.3867-1.0497 0.0553-2.1547 0.0553-3.2044-0.1105h-0.221c-0.0552 0-0.1657 0-0.221-0.0552l-0.442-0.0553c-0.4972-0.0552-0.9944-0.1657-1.4917-0.3315l-0.3315-0.1104c-4.6408-1.2708-9.0055-4.3647-12.652-7.1824-4.6961-3.6464-9.1713-5.0828-9.9448-5.3591-1.6574-3.9779-1.3259-5.6353-0.9944-6.2431 0-0.0552 0.0552-0.0552 0.0552-0.1105 0.1105 0.1105 0.221 0.221 0.442 0.3315 0.1105 0.0553 0.2763 0.1658 0.442 0.221 0.442 0.1658 1.1602 0.3868 2.0994 0.6077 1.2155 0.2763 2.3205 0.6078 3.315 0.9393 0.3867 0.1657 0.7734 0.2762 1.1602 0.442 0.3315 0.1105 0.663 0.2762 0.9945 0.442 3.3149 1.4917 5.1933 3.0939 5.1933 3.0939 8.1216 7.5138 14.475 7.4585 14.751 7.4585h0.0553c0.7182 0 6.9613-0.221 14.751-7.4033 0 0 1.8785-1.8232 5.1934-3.3149 0.0553-0.0552 0.1658-0.0552 0.2763-0.1105 0.2762-0.1105 0.5524-0.221 0.8839-0.3315 1.2708-0.4972 2.7072-0.884 4.3647-1.1602 1.1049-0.1657 1.8784-0.3867 2.3757-0.6077 0.1657-0.0553 0.3315-0.1658 0.442-0.221 0.221-0.1105 0.3314-0.221 0.4419-0.3315 0 0.0552 0.0553 0.1105 0.0553 0.1657 0.0552 0.663 0 2.431-1.3812 6.1879z" clip-path="url(#clipPath454)"/>
  <path transform="matrix(3.5736 0 0 3.5736 -30.607 -8.9669)" d="m49.867 64.309c0.3315-0.6078-0.221-1.1603-0.221-1.0498 0.0552 0.1658-0.2763 0.221-0.2763 0.221-0.3315 0.0553-1.0497-0.1657-1.0497-0.1657-2.4309-0.442-1.6575 2.5967-1.4917 3.2597 0.1105 0.3867-0.1658 1.2707-1.547 1.1602-1.0497-0.1105-1.1049 0.442-1.1049 0.442 0.4972-0.3868 0.8287-0.1105 0.8287-0.1105-0.5525 0.0552-0.7182 0.663-0.7182 0.663 0.5524-0.4973 1.0497-0.1658 1.0497-0.1658-0.442 0.1105-0.442 0.7182-0.442 0.7182 0.3315-0.4419 0.663-0.2209 0.663-0.2209s0.663 0.2762 0.8287-0.442c0.0553-0.221 0.442 0.1105 0.442 0.1105-0.0553-0.2763 0.0552-0.5525 0.1105-0.663 0.0552-0.1105 0.4972 0.3315 0.4972 0.3315 0.221-0.221 0.1105-0.4973 0.1105-0.5525 0-0.1105-0.1657-0.4973-0.0552-0.7182 0.3315-0.442 0.7735 0.3314 0.7735 0.3314 0.1105-0.6077-0.4973-1.7679-0.5525-1.8232-0.2763-0.3315-0.3868-1.1049 0.8287-0.1657 0.442 0.3867 0.9945 0.1657 0.9945 0.1657-0.1658-0.6077 0.3315-1.3259 0.3315-1.3259z" clip-path="url(#clipPath448)"/>
  <path transform="matrix(3.5736 0 0 3.5736 -30.607 -8.9669)" d="m48.32 57.569s0.221 0.2762 0 0.6629c0 0 0.663 0.1658 0.9945-0.1657 0 0-0.1658 0.442 0.1105 0.9392 0 0 0.4972-0.2762 0.6077-0.6077 0 0 0.221 0.0552 0.3868 0.442 0.1657 0.3867 0.3315 0.442 0.3315 0.442s0-0.5525 0.3867-0.663c0 0 0.442 0.5525 1.0497 0.3315 0 0-0.9945-0.5525 0-0.7735 0 0-0.7182-0.221-0.663-0.5525 0 0-0.3867 0.6077-1.2154 0.442 0 0 0.221-0.2762 0.1105-0.6077 0 0-0.663 0.3867-1.2155 0.1105 0 0 0-0.6078 0.3867-0.8288 0 0-0.8839-0.1105-1.1602 0.1658 0 0-0.1657-0.3868 0.1105-0.7183 0 0-0.8287 0.2763-1.0497 1.6023-0.0553 0.0552 0.5525 0.1105 0.8287-0.221z" clip-path="url(#clipPath442)"/>
  <path transform="matrix(3.5736 0 0 3.5736 -30.607 -8.9669)" d="m42.851 60.884s-0.7735 0.6077-0.1658 1.2707c0 0 0.0553-0.8288 0.5525-0.6078 0 0-0.8287 0.6078 0 1.105 0 0-0.0552-0.8287 0.6078-0.663 0.3867 0.1105 0.6629-0.3867 0.6629-0.3867s0.442-0.2763 0.7183 0.1105c0.2762 0.442 0.663 0.4972 0.7182 0.5525 0 0-0.2762-0.3868 0-0.5525 0 0 0.442 0.442 0.7735 0.442 0 0-0.3868-0.442 0-0.4973 0 0 0.221 0 0.2762 0.221 0.0553 0.2763 0.7183 0.3868 0.7735 0.3868 0 0-0.3867-0.3315-0.1657-0.663v-0.0553c0.221-0.3315 0.4419-0.221 0.4419-0.221 0.8288-0.2209 0.7735-1.1049 0.7735-1.3259 0.0553 0 0.1105 0.0552 0.1105 0.1105 0.1105 0.2762 0.1658 0.9392-0.7735 1.4917 0 0 0.0553 0.7735 1.326 1.326 0 0-0.1657-0.9945 0.6077 0.4419 0 0 0.2763 0.5525-0.0552 1.105-0.2762 0.5525-0.6077 1.4917 0.442 2.0995 1.0497 0.6629 1.7127 1.3812 1.2155 3.2596 0 0-0.3315 0.663-0.9945 0.4973-0.663-0.1658-0.9392-0.442-1.4917 0.2762 0 0 0.663-0.3315 1.0497 0.1105 0 0-0.7735-0.221-1.0497 0.7735 0 0 0.7734-0.442 1.1049-0.1105 0 0-0.4419 0.1105-0.4419 0.663 0 0 0.4419-0.3315 0.7734-0.1658 0.5525 0.221 0.663-0.1105 0.8288-0.3867 0.1657-0.2763 0.5525 0.1105 1.1049 0 0 0-0.7734-0.6077-0.3315-0.884 0.2763-0.1657 0.7735 0.1658 0.9945-0.1105 0 0-0.9945-0.3867-0.4972-1.0497 0.221-0.2763 0.6077 0.0552 0.8287-0.1105 0 0-0.663-0.221-0.5525-0.8287 0.0553-0.3868 0.221-0.3315 0.3315-0.2763 0.1105 0.0553 0.3868 0.1105 0.5525 0 0 0-0.2762-0.0552-0.3315-0.3867-0.0552-0.3315 0-0.7735-0.3867-1.0497-0.221-0.1658-0.3868-0.1658-0.3868-0.7183 0-0.663 0.2763-0.7182 0.442-0.7735 0.1658 0 0.5525-0.0552 0.7735-0.2209 0 0 1.4365-0.884 0.663-2.7072s-1.1602-1.9337-1.0497-3.3702 0.4419-2.0994 0.7734-2.5967c0.221-0.3867 0.7183-0.663 1.0498-0.7182 0 0 0.8287-0.1658 0.7182 0.8287 0 0 0 0.2763-0.4972 0.663-0.4973 0.442-0.663 0.884-0.663 0.884s0.5525-0.3868 0.663-0.2763 0.0552 0.2763-0.1658 0.5525c-0.221 0.221-0.4972 0.7735-0.442 1.2155 0 0 0.1658-0.2763 0.3868-0.2763 0 0-0.1105 0.884 0.442 1.2155 0 0-0.1658-0.9945 0.2209-1.5469 0.2763-0.3868 0.9393-1.6575 0.5525-2.5415 0 0 0-1.1602-0.7182-1.2707 0 0 0.1105 0.221 0.0552 0.1657-0.0552-0.0552-2.2651-0.2209-2.7071 3.2597 0 0.1658-0.1105 0.663-0.1105 0.663s-0.0553 0.884-0.6078 0.221c0 0-0.0552 0.7182 0.663 1.1602 0.7182 0.4972-0.663 0.442-0.9392-0.0552 0 0 0 0.5524 0.7182 0.8839 0.7183 0.2763 0.6078 0.663-0.5525 0.3868 0 0 0.3315 0.4972 1.2708 0.4972 0.9392 0 0.9944 1.4365 0.6629 1.768-0.4972 0.442-0.7734 0.3867-0.9944 0.3315-0.2763-0.0553-0.3868 0-0.3868 0s-0.5525-0.5525-0.663-1.0498c-0.0552-0.3867-0.8287-1.0497-0.8287-1.0497s-0.442-0.5525-0.2762-1.6574c0.1657-1.105 0.221-1.4365 0.1657-1.6022 0 0-0.2762-0.0553-0.3867-0.221 0 0-0.1658 0.4419-0.1658 0.7182 0 0-0.5525-0.1105-0.7735-0.5525-0.1657-0.442-0.3314-0.3315-0.3314-0.3315s-0.3315 0.442-0.7183 0.5525c0 0-0.1657-0.0552-0.1657-0.4972v-0.2763-0.1657s-0.6078 0.1657-0.9945 0c0 0 0.1105-0.2763 0-0.442 0 0-0.2762 0.1657-0.8287 0.0552 0 0-0.1105-0.4972 0.3867-1.2707 0 0 0.0553-0.221-0.221-0.7182-0.2762-0.442-0.7182-1.4365-0.3315-2.0995 0.2763-0.442 0.1658-1.0497-0.221-1.2707-0.3315-0.221-0.5525-0.221-1.0497-0.0552 0 0 0.663-0.0553 0.663 0.4972 0 0-0.7182-0.7182-1.326 0 0 0 0.8288-0.1105 0.663 0.5525 0 0-0.6077-0.8287-1.2155 0.1657 0 0 0.8288-0.1105 0.8288 0.6078-0.0553 0.4972 0.6077 0.663 0.6077 0.663s0.1657 1.4364-0.663 1.3812c0 0 0.4973 0.3315 0.7182 0.2762 0 0 0.0553 0.5525-0.4419 0.6077 0 0 0.2762 0.2763 0.6629 0.2763 0 0 0.0553 0.1657-0.1657 0.2762-0.2762 0.1658-0.2762 0.6078-0.2762 0.663 0 0 0.2762-0.221 0.7182 0s0.9945 0.0553 1.105 0c0 0 0.1105-0.0552 0.221-0.0552-0.0553 0.0552-0.1105 0.1657-0.221 0.3315-0.1658 0.221-0.3868 0.4972-0.6078 0.7734-0.6077 0.6078-1.6574 1.2155-3.2044 0.4973-0.3867-0.1658-1.0497-0.221-1.326 0.0552-0.2762 0.2763-0.3867 0.6078-0.1105 0.9945 0.1105 0.3315 0.1105-0.2762 0.6078-0.1657z" clip-path="url(#clipPath436)"/>
  <path transform="matrix(3.5736 0 0 3.5736 -30.607 -8.9669)" d="m50.088 56.63c-0.4972 0.221-0.4419 0.7182-0.4419 0.7182 0.7734-0.0552 0.9392-0.3867 0.9392-0.3867 0.442 0.1105 0.1657 0.7182 0.1105 0.7735h0.1105c0.1657 0 0.4972-0.1658 0.8287-0.6078 0 0.1105 0.1105 0.8288 1.2155 0.7735 0 0-0.7183-0.3315-0.5525-0.7735v-0.0552c0.442 0.442 1.0497-0.1105 1.0497-0.1105-0.6077 0-0.663-0.3315-0.663-0.4972 0.7183 0.4419 1.105-0.2763 0.9945-0.3868 0 0-1.2707 0.4973-0.221-1.7679 0.1105-0.2763 0.4972-0.7183 0.1105-1.105-0.3867-0.3868-0.5525-1.0497-0.1105-1.3812 0 0-0.4972-0.221-1.1602 0.221-0.3315 0.221-0.6077 0.1105-0.6077 0.1105s-0.5525-0.2763-1.0498-0.0553c-0.3867 0.1658-0.4972 0.3868-0.5525 0.4972-0.2762-0.1104-0.7734 0.221-0.8287 0.221-0.0552 0 0 0.221-0.0552 0.3315-0.0553 0.1105-0.1105 0.4973 0.3867 0.4973 0.4972-0.0553 0.8287-0.1658 0.8287-0.1658s0.1105 0.1105 0.1658 0.3868c0.0552 0.3315 0.221 0.8287-0.442 0.8839l0.1657 0.1658c0.1658 0.1105 0.7183 0.1105 0.7735-0.221 0.1105-0.2762 0.2763-0.3315 0.2763-0.3315s0.2762 0.7735-0.8288 0.884c-1.1049 0.1105-1.7679 0.4972-1.9889 1.326 1.3259-0.3315 1.5469 0.0552 1.5469 0.0552zm1.0498-3.8122c-0.221 0.1658-0.442 0.1105-0.7183-0.1657 0.2763-0.3315 0.663-0.442 1.2155-0.0553 0 0-0.2762 0.0553-0.4972 0.221z" clip-path="url(#clipPath430)"/>
  <path transform="matrix(3.5736 0 0 3.5736 -30.607 -8.9669)" d="m39.315 45.249-1.7679-2.9835-1.8232 3.0387 1.8232 3.4254z" clip-path="url(#clipPath424)"/>
  <path transform="matrix(3.5736 0 0 3.5736 -30.607 -8.9669)" d="m64.95 45.249-1.8232-2.9835-1.8232 3.0387 1.8785 3.4254z" clip-path="url(#clipPath418)"/>
  <path transform="matrix(3.5736 0 0 3.5736 -30.607 -8.9669)" d="m49.978 75.028h0.221c10.387-2.0442 18.619-11.381 18.729-21.271v-24.475h-8.7845c0.5525-0.221 0.9945-0.7735 0.9945-1.4365 0-0.8287-0.663-1.5469-1.547-1.5469h-2.1547c-0.884-0.1105-1.0497-0.9945-1.0497-0.9945-1.0497 1.105-2.0995-0.6077-2.0995-0.6077l-1.8232 0.6077-0.442-0.8287c0.221-0.442 0.4973-0.884 0.7735-1.105 0.4973-0.442 0.663-0.4972 0.663-0.4972-0.221-0.4973-0.3315-0.9393-0.3315-1.105 0.0553-0.0553 0.442-0.221 0.8287-0.3868 0.1658-0.0552 0.3315-0.1105 0.4973-0.1657h0.2762l-0.221-0.221c0.0553 0 0.1658 0.1105 0.221 0.1105 0.1105 0.0552 0.221 0.1105 0.3315 0.1105s0.2763 0 0.221-0.1105c0.0553 0 0.1658 0.0552 0.221 0.0552h0.221c0.0552-0.0552 0.1105-0.0552 0.1657-0.1104 0.0553-0.0553 0.1105-0.0553 0.1658-0.1105 0-0.0553 0.0552-0.0553 0.0552-0.1105 0-0.0553 0-0.1105-0.0552-0.1105-0.1105-0.1105-0.221-0.1105-0.3315-0.1658l-0.3867-0.1105c-0.1105-0.0552-0.1658-0.0552-0.2763-0.1105-0.2762-0.1105 0 0 0.1105 0h0.2763c0.1105 0 0.1657-0.0552 0.2762-0.0552l0.2762-0.1105s-0.2762 0.1105-0.8839-0.3315c-0.221-0.1658-0.3315-0.3868-0.4973-0.5525-0.3315-0.3867-0.663-0.7735-1.0497-1.105s-0.7735-0.663-1.2155-0.884c-0.3867-0.2209-0.8287-0.3867-1.3259-0.3867h-0.0553c0-0.0552-0.1105-0.9392 0.3868-2.0442 0.2762-0.6077 0.3314-1.2155 0.0552-1.7127-0.221-0.3867-0.5525-0.6077-0.9392-0.7182-0.0553 0-0.7183-0.1105-1.4917 0.442-0.221 0.1105-0.442 0.221-0.663 0.3314 0.663-0.7734 2.0994-1.5469 2.3757-1.6022v-0.0552c-0.0553 0-0.9945 0.0552-1.6022 0.442 0.1105-0.221 0.221-0.6078 0.1105-1.2155v-0.0552h-0.0553s-1.4365 0.3315-1.4365 2.3204c0 0 0 0.2762-0.1104 0.6077-0.1658 0.1105-0.221 0.221-0.221 0.221 0.0552-0.0552 0.1105-0.0552 0.1657-0.0552-0.0552 0.1105-0.1105 0.2762-0.221 0.3867-0.3315 0.442-0.6077 1.2155-0.6077 1.8785v0.0552l0.0552-0.0552s0.5525-0.3868 0.663-0.884c0.0553-0.221 0.221-0.3867 0.2762-0.4972 0.0553 0.221 0.1105 0.7182 0.1105 0.8287v0.0552h0.0553c0.1105-0.1105 0.5525-0.7182 0.1105-1.5469-0.0553-0.1105-0.0553-0.2763-0.0553-0.442 0.7183-0.1658 1.2155 0.1105 1.4365 0.221 0.1105 0.1105 0.221 0.221 0.2762 0.3867 0.1105 0.3315 0.0553 0.7183-0.1657 1.105-0.1657 0.3867-0.3867 0.663-0.5525 0.9392-0.442 0.7183-0.7735 1.2155-0.663 2.3205 0.1658 1.2707 0.9945 1.8784 1.4917 2.0994 0.2763 0.2763 0.442 0.7182 0.5525 0.9392 0.1658 0.3315 0 0.2763 0 0.2763-0.9392 0.0552-1.2707-0.442-1.9337-0.7183-0.1657-0.0552-0.3315-0.1104-0.4972-0.1104-0.3867-0.1658-0.9392-0.1658-1.4365 0-0.9392 0.2762-1.5469 1.0497-1.3259 1.7127 0.0552 0.221 0.221 0.4419 0.4972 0.5524 0.221 0.1105 0.4972 0.1658 0.8287 0.1658 0.221 0 0.4973-0.0553 0.7735-0.1105 0.7735-0.2762 1.326-0.8287 1.3812-1.3812 0.3315 0.1105 1.2707 0.8287 1.989 1.105 0.7735 0.3314 1.0497-0.5525 1.0497-0.5525 0.221 0.3867-0.3315 1.6574-0.663 2.3757l-0.3315 0.221-0.1657-0.8288-0.7735 1.0497c-0.2762-0.1105-1.105-1.1049-1.105-1.1049-0.1105 1.0497-0.442 1.3259-0.5525 1.3812l-1.8232-1.2155c0 0.8287-0.8287 1.326-1.2707 1.326l-1.2155-0.6077c0.1105 0.8839-0.6077 1.0497-0.8287 1.0497h-2.0994c-0.8288 0-1.547 0.663-1.547 1.5469 0 0.663 0.3867 1.2155 0.9945 1.4365h-9.0055v24.475c0.1105 10 8.3425 19.337 18.729 21.381zm8.3426-48.066h0.0552c0.9945-0.221 1.6575 0.1105 1.6575 0.1105 0.3315 0.1657 0.442 0.3867 0.3867 0.6077-0.0552 0.442-0.663 0.9392-0.7182 0.663-0.1105-0.6078-0.7735-0.884-0.7735-0.884s-0.884-0.442-0.6077-0.4972zm1.4917 6.5193c0-0.0553 0.0552-0.1658 0.0552-0.221-0.3314-0.6077-0.6077-1.105-0.7182-1.2707-0.0552-0.0553-0.0552-0.0553-0.1105-0.1105-0.1657-0.221-0.2762-0.3315-0.1657-0.3868 0.0552-0.0552 0.1657 0 0.2762 0 0 0 0.3867 0.221 0.8287 0.9945 0.0553 0.0553 0.0553 0.1105 0.1105 0.221 0.2763-0.6077 0.6078-0.9945 0.9945-0.9945 0.3868 0 0.7182 0.3868 0.9945 0.9945 0.0552-0.1105 0.1105-0.221 0.1657-0.2762 0.442-0.7735 0.8288-0.9945 0.8288-0.9945 0.0552-0.0553 0.1657-0.1105 0.2762 0 0.0553 0.1105 0 0.1657-0.1657 0.3867l-0.1105 0.1105c-0.1658 0.1658-0.442 0.663-0.7735 1.326 0.0552 0.0552 0.0552 0.0552 0.1105 0.1657 1.7679-0.3314 3.1492-0.2762 3.2596 0.1658 0.1105 0.3315-0.8839 0.8287-1.7679 1.326 0.884 0.4972 1.8784 0.9944 1.7679 1.3259-0.1657 0.4973-1.4364 0.5525-3.2044 0.221l-0.0552 0.3868v0.1105l0.1105 0.1657s0.4972 0.884 0.8287 1.2155c0.1105 0.1105 0.0553 0.1657 0.0553 0.1657 0 0.0553-0.0553 0.0553-0.1105 0.0553-0.0553 0-0.1658-0.0553-0.3315-0.1105-0.1105-0.0553-0.3315-0.3868-0.663-0.9393-0.0553 0.1105-0.0553 0.2763-0.1105 0.3868-0.2763 0.7182-0.6077 1.105-1.0497 1.105s-0.884-0.5525-1.105-1.4365c-0.2763 0.4972-0.4973 0.8287-0.6077 0.884-0.1658 0.1105-0.2763 0.1105-0.3315 0.1105-0.0553 0-0.0553 0-0.1105-0.0553 0 0-0.0553-0.1105 0.0552-0.1657 0.3315-0.3868 0.8287-1.2155 0.8287-1.2707 0 0 0.0553-0.0553 0.0553-0.1658 0 0-0.0553-0.3867-0.0553-0.4972-1.7127 0.3315-3.0386 0.2762-3.1491-0.221-0.1105-0.3315 0.7735-0.884 1.7127-1.3812-0.2763-0.1105-0.4973-0.2763-0.7183-0.3868-0.6077-0.3315-1.0497-0.663-0.9944-0.884-0.0553-0.3315 1.2707-0.3867 3.0939-0.0552zm-10.11-20.497s0.221-0.3315 0.8287 0c0 0-0.221 0.4419-0.8287 0zm0.3315 4.4751c0 2.0442 1.8784 2.7624 1.9337 2.8177-0.0553-0.0553-0.1105-0.1658-0.1105-0.221 0.221 0.1105 0.442 0.221 0.663 0.2762 0.1105 0.0553 0.221 0.0553 0.3315 0.1105h0.0552c-0.0552-0.0552-0.1105-0.1657-0.1105-0.221 0.1658 0.1105 0.3315 0.1658 0.4973 0.1658 0.0552 0 0.1657 0 0.221-0.0553l0.1104-0.0552c0.0553 0 0.1105-0.0553 0.1658-0.0553 0 0.0553-0.0553 0.1105-0.0553 0.1658l-0.1105 0.1105c-0.1104 0.0552-0.2209 0.1105-0.3314 0.1105-0.0553 0-0.1105 0-0.1658-0.0553-0.0552 0.0553-0.1657 0.0553-0.2762 0.0553s-0.2763 0-0.3868-0.0553c-0.1105-0.0552-0.1657-0.0552-0.2762-0.1105-0.5525 0.0553-2.7072-0.7182-2.1547-2.9834zm0.884 8.895c1.6574-0.6077 3.7016 0.2763 3.7016 0.2763 0.663 0.2762 1.0497 0.5524 1.3812 0.8287 0.1105 0.1105 0.1658 0.1657 0.221 0.221 0.221 0.221 0.6078 0.5525 0.9393 0.6077 0.2762 0.0553-0.221 0.6078-0.9945 0.221-0.0553-0.0552-0.1658-0.1105-0.2763-0.221-0.7734-0.6077-1.4364-0.6077-1.4364-0.6077-0.7183-0.0553-0.5525 0.3867-0.5525 0.3867 0.3867 0.7735-0.6077 0.5525-1.105 0-0.7735-0.8287-1.4917-1.1049-1.9337-1.3259-0.4972-0.1658-0.1657-0.3315 0.0553-0.3868zm0.2762 11.602c0.0553 0.0553 0.221 0.3868-0.0552 1.0498 0 0-0.884 0.4972-2.1547 0.0552 0-0.0552 0-0.9392-0.0553-1.105-0.0552-0.1657-0.5525-0.4972-0.5525-0.4972 0-0.0553-0.4972-3.0939-0.1105-4.3094 0 0 0-0.9945 0.3315-1.105 0.221-0.0552 0.1658 1.0498 0.1658 1.0498v1.2707c-0.442 0.3315-0.1105 0.3867-0.1105 0.3867 1.3812-0.221 2.0994-0.2762 2.4309-0.221h0.1105c0.221 0.0553 0.221 0.1658 0.221 0.1658s0.0553 0.2762-0.9392 0.4419c0 0-0.5525 0.1105-0.663 0.3315s-0.1658 0.9393 0.1105 1.3813c0 0 0.1657-0.0553 0.1105-0.2763-0.0553-0.221 0-0.7735 0.1657-0.884 0.1658-0.1657 1.6022-0.3315 1.6022-0.7182 0 0-0.1657-0.663 0.1658-1.3812 0.2762-0.4972 0.6077 0.1657 0.5525 1.0497 0 0-0.0553 1.3812-0.0553 1.6575 0 0.2762-0.1657 1.1602-1.1049 1.3259 0 0-0.3315 0.1105-0.3868 0.2763-0.0552 0 0.1658 0 0.221 0.0552zm-1.4917-4.3094c0 0.2763 0 0.442-0.0553 0.5525-0.2209 0-0.3867 0.0553-0.5524 0.0553-0.1105-0.4973-0.1105-1.105-0.1105-1.105l0.0552-1.0497c0-0.0553 0-0.663 0.3315-0.663 0.2762 0 0.2762 0.7182 0.2762 0.7182s0 0.7735 0.0553 1.4917zm1.2707-0.9392c0-0.4972 0-1.1602 0.3315-1.1602 0.221 0 0.221 0.442 0.221 0.7182v1.1602c-0.1105 0.1658-0.1657 0.663-0.1657 0.7735-0.1105-0.0552-0.221-0.0552-0.3868-0.0552-0.0552-0.1105 0-0.9393 0-1.4365zm-0.7182-1.6574h0.0552c0.442 0.1104 0.3868 2.7071 0.2763 3.0386-0.1658 0-0.3315 0-0.4973 0.0553-0.0552-0.1105-0.0552-0.221-0.0552-0.3868 0-0.2762 0-1.9889 0.0552-2.3757-0.0552-0.2762 0.1105-0.3314 0.1658-0.3314zm-5.3039-4.4752c1.4917-0.5525 3.3149 0.2763 3.3149 0.2763 1.4917 0.6629 1.7127 1.3812 1.7127 1.3812s0.221 0.7735-0.6077 0.1657c-0.663-0.4972-1.1602-0.3867-1.1602-0.3867-0.4973 0-0.6077 1.2154-1.6575 0.1657-0.7182-0.7182-1.3812-0.9944-1.7679-1.2154-0.3868-0.221-0.0553-0.2763 0.1657-0.3868zm-4.1989 0.4973c0.663-0.442 1.4917-0.1658 1.8232 0.3314 0.7183 1.0498 1.6575 1.2155 1.2155 1.2708-0.2762 0.0552-1.105-0.221-1.4917-0.5525-0.4973-0.442-1.2707-0.1105-0.7182 0.3315 0.0552 0.0552-0.0553 0.1105-0.1658 0.1105-1.0497 0-1.3812-0.9945-0.663-1.4917zm-5.6906 6.6298c0.1658-0.4973 1.4917-0.5525 3.3149-0.1658 0-0.0552 0.0553-0.1657 0.0553-0.221-0.3315-0.6077-0.6078-1.1049-0.7183-1.2707l-0.1105-0.1105c-0.1657-0.221-0.2762-0.3315-0.1657-0.3867 0.0553-0.0553 0.1658 0 0.2762 0 0 0 0.3868 0.221 0.8288 0.9945 0.0552 0.0552 0.0552 0.1105 0.1105 0.221 0.2762-0.6078 0.6077-0.9945 0.9945-0.9945 0.3867 0 0.7182 0.3867 0.9944 0.9945 0.0553-0.1105 0.1105-0.221 0.1658-0.2763 0.442-0.7735 0.8287-0.9945 0.8287-0.9945 0.0552-0.0552 0.1657-0.1105 0.2762 0 0.0553 0.1105 0 0.1658-0.1657 0.3868-0.0553 0.0552-0.0553 0.0552-0.1105 0.1105-0.1657 0.1657-0.442 0.663-0.7735 1.3259 0.0553 0.0553 0.0553 0.0553 0.1105 0.1658 1.768-0.3315 3.1492-0.2763 3.2597 0.1657 0.1105 0.3315-0.884 0.8288-1.768 1.326 0.884 0.4972 1.8785 0.9945 1.768 1.326-0.1658 0.4972-1.4365 0.5525-3.2044 0.221l-0.0553 0.3867v0.1105l0.1105 0.1658s0.4973 0.8839 0.8287 1.2154c0.1105 0.1105 0.0553 0.1658 0.0553 0.1658 0 0.0552-0.0553 0.0552-0.1105 0.0552-0.0553 0-0.1658-0.0552-0.3315-0.1105-0.1105-0.0552-0.3315-0.3867-0.663-0.9392-0.0552 0.1105-0.0552 0.2762-0.1105 0.3867-0.2762 0.7183-0.6077 1.105-1.0497 1.105s-0.884-0.5525-1.105-1.4365c-0.2762 0.4973-0.4972 0.8288-0.6077 0.884-0.1658 0.1105-0.2763 0.1105-0.3315 0.1105s-0.0553 0-0.1105-0.0552c0 0-0.0552-0.1105 0.0552-0.1658 0.3315-0.3867 0.8288-1.2155 0.8288-1.2707 0 0 0.0552-0.0552 0.0552-0.1657 0 0-0.0552-0.3868-0.0552-0.4973-1.7127 0.3315-3.0387 0.2763-3.1492-0.221-0.1105-0.3315 0.7735-0.884 1.7127-1.3812-0.2762-0.1105-0.4972-0.2762-0.7182-0.3867-0.8287-0.221-1.326-0.5525-1.2155-0.7735zm-2.0994 23.315c-0.0553-0.1657-0.0553-0.3867-0.1105-0.5525 0-0.1105 0-0.1657-0.0553-0.2762-0.0552-0.221-0.0552-0.442-0.1105-0.663v-0.1658c0-0.221-0.0552-0.4972-0.0552-0.7182v-0.0552c0-0.2763 0-0.5525-0.0553-0.8288v-13.149h35.028v14.088c0 0.221-0.0552 0.4419-0.0552 0.6629 0 0.1105 0 0.1658-0.0552 0.2763 0 0.1657-0.0553 0.3315-0.0553 0.442 0 0.1657-0.0552 0.3315-0.1105 0.5525 0 0.1105-0.0552 0.1657-0.0552 0.2762-0.0553 0.2763-0.1105 0.6077-0.221 0.884h-0.9393v-2.7072h-2.4861v-2.2099h-2.3757v-2.5967h-2.1547v-2.3205h-2.3205v-1.9889h-2.4309l-0.0553-2.5967h-2.4309l-1.4917-1.989-1.2707 1.989h-2.7072v2.4309h-2.8729v2.3205h-2.4862v2.2099h-2.431v2.4862h-2.4862v2.1547h-1.7679v2.2652h-1.2155c-0.1105-0.0553-0.1105-0.1105-0.1657-0.221zm3.4806 7.6796c-0.0552-0.0553-0.0552-0.1105-0.1105-0.1658-0.1105-0.1657-0.221-0.3315-0.3315-0.442 0 0 0-0.0552-0.0552-0.0552-0.3315-0.4973-0.663-1.0497-0.9392-1.547 0-0.0552-0.0553-0.0552-0.0553-0.1105-0.2762-0.5525-0.5525-1.105-0.8287-1.7127h2.2652v-2.4309h2.3204v-2.4862h2.652v-2.4862h2.4309v-2.4309h2.5967v-2.4862h2.4862v-2.3205h2.7624v2.431h2.2099v2.4309h2.3757v2.4309h2.431v2.3757h2.3757v2.5415h3.0386v2.8177h1.9337c-0.1105 0.1657-0.1657 0.3867-0.2762 0.5524v0.0553c-0.2762 0.5525-0.5525 1.105-0.884 1.6022 0 0 0 0.0552-0.0552 0.0552-0.1105 0.1658-0.221 0.3315-0.3315 0.4973-0.3315 0.4972-0.7183 1.0497-1.0497 1.4917-0.0553 0.0552-0.0553 0.0552-0.1105 0.1105l-1.105 1.326c-0.0553 0.0552-0.0553 0.1105-0.1105 0.1105-0.1105 0.1105-0.221 0.2762-0.3315 0.3867-0.0553 0.0552-0.1105 0.1105-0.1657 0.1657-0.3868 0.3868-0.7735 0.7183-1.1603 1.105-0.1105 0.0553-0.1657 0.1658-0.2762 0.221-0.1105 0.1105-0.221 0.1658-0.3315 0.2763-0.1105 0.0552-0.221 0.1657-0.2762 0.221-0.1658 0.1104-0.2763 0.2209-0.442 0.3314-0.1658 0.1105-0.2763 0.221-0.442 0.3315-0.1105 0.0553-0.221 0.1658-0.2763 0.221-0.1105 0.1105-0.2762 0.1658-0.3867 0.2763-0.1105 0.0552-0.221 0.1105-0.2763 0.1657-0.1657 0.1105-0.3867 0.221-0.5524 0.3315-0.1105 0.0553-0.1658 0.1105-0.2763 0.1658-0.1657 0.1105-0.3315 0.2209-0.5525 0.2762-0.1105 0.0552-0.1657 0.1105-0.2762 0.1657-0.1658 0.1105-0.3315 0.1658-0.4973 0.2763-0.0552 0.0552-0.1657 0.0552-0.2209 0.1105-0.221 0.1105-0.4973 0.221-0.7183 0.3315-0.0552 0.0552-0.1105 0.0552-0.1657 0.0552-0.1658 0.0553-0.3868 0.1658-0.5525 0.221-0.0553 0.0553-0.1658 0.0553-0.221 0.1105-0.221 0.0553-0.3867 0.1658-0.6077 0.221-0.0553 0-0.1105 0.0553-0.1658 0.0553-0.2762 0.1105-0.4972 0.1657-0.7735 0.2762-0.0552 0-0.1657 0.0552-0.221 0.0552-0.221 0.0553-0.3867 0.1105-0.6077 0.1658-0.0552 0-0.1657 0.0552-0.221 0.0552-0.2762 0.0553-0.5525 0.1105-0.8287 0.1658-0.2763-0.0553-0.5525-0.1105-0.8287-0.1658-0.0553 0-0.1658-0.0552-0.221-0.0552-0.221-0.0553-0.3868-0.1105-0.6078-0.1658-0.0552 0-0.1657-0.0552-0.221-0.0552-0.2762-0.0553-0.4972-0.1657-0.7734-0.2762-0.0553 0-0.0553 0-0.1105-0.0553-0.221-0.0552-0.442-0.1657-0.663-0.2762-0.0553-0.0553-0.1658-0.0553-0.221-0.1105-0.1658-0.0553-0.3868-0.1658-0.5525-0.221-0.0553-0.0553-0.1658-0.0553-0.221-0.1105-0.221-0.1105-0.4972-0.221-0.7182-0.3315-0.0553-0.0553-0.1105-0.0553-0.1658-0.1105-0.1657-0.1105-0.3867-0.1658-0.5525-0.2763-0.1105-0.0552-0.1657-0.1105-0.2762-0.1657-0.1658-0.1105-0.3315-0.1658-0.442-0.2762-0.1105-0.0553-0.1657-0.1105-0.2762-0.1658-0.221-0.1105-0.442-0.2762-0.663-0.3867-0.1105-0.0553-0.1658-0.1105-0.2763-0.1658-0.1105-0.1105-0.2762-0.1657-0.3867-0.2762-0.31464-0.26425-0.63778-0.45055-0.9392-0.7182-1.5913-1.4666-3.5512-2.9324-4.6962-4.5304z" clip-path="url(#clipPath412)"/>
  <path transform="matrix(3.5736 0 0 3.5736 -30.607 -8.9669)" d="m40.475 36.74c0-0.1105 0.0553-0.2763 0.0553-0.2763-0.3315-0.0552-0.6078-0.1657-0.9392-0.221-0.3315 0.1105-0.663 0.1658-0.9945 0.221 0 0 0 0.1658 0.0552 0.2763 0.1105 0.0552 0.8288 0.2762 1.8232 0z" clip-path="url(#clipPath406)"/>
  <path transform="matrix(3.5736 0 0 3.5736 -30.607 -8.9669)" d="m40.254 33.204c0-0.0553 0-0.1105-0.0553-0.1105-0.1657-0.5525-0.4419-0.7735-0.6629-0.7735s-0.4973 0.221-0.663 0.7735c0 0.0552-0.0553 0.1105-0.0553 0.1657 0.6078-0.2762 1.105-0.1657 1.4365-0.0552z" clip-path="url(#clipPath400)"/>
  <path transform="matrix(3.5736 0 0 3.5736 -30.607 -8.9669)" d="m38.652 37.017c0.0552 0.3315 0.0552 0.3315 0.1657 0.4972 0.1105 0.0553 0.663 0.221 1.4917 0 0.0553-0.1105 0.1105-0.3315 0.1105-0.4972-0.3315 0.1105-0.663 0.1105-0.9392 0.1105-0.3867 0-0.663-0.0552-0.8287-0.1105z" clip-path="url(#clipPath394)"/>
  <path transform="matrix(3.5736 0 0 3.5736 -30.607 -8.9669)" d="m60.365 37.845c0.0553 0.1657 0.1658 0.3315 0.221 0.3867 0.3868 0.1105 0.442 0.1105 0.884 0 0.1105-0.1105 0.1105-0.221 0.221-0.442-0.2763 0.0553-0.442 0.0553-0.663 0.0553-0.2762 0.0552-0.5525 0.0552-0.663 0z" clip-path="url(#clipPath388)"/>
  <path transform="matrix(3.5736 0 0 3.5736 -30.607 -8.9669)" d="m38.928 37.845c0.0553 0.1657 0.1658 0.3315 0.221 0.3867 0.3868 0.1105 0.442 0.1105 0.884 0 0.1105-0.1105 0.1105-0.221 0.221-0.442-0.2763 0.0553-0.442 0.0553-0.663 0.0553-0.2762 0.0552-0.5525 0.0552-0.663 0z" clip-path="url(#clipPath382)"/>
  <path transform="matrix(3.5736 0 0 3.5736 -30.607 -8.9669)" d="m61.912 36.74c0-0.1105 0.0552-0.2763 0.0552-0.2763-0.3315-0.0552-0.6077-0.1657-0.9392-0.221-0.3315 0.1105-0.663 0.1658-0.9945 0.221 0 0 0 0.1658 0.0553 0.2763 0.1104 0.0552 0.8287 0.2762 1.8232 0z" clip-path="url(#clipPath376)"/>
  <path transform="matrix(3.5736 0 0 3.5736 -30.607 -8.9669)" d="m60.088 37.017c0.0552 0.3315 0.0552 0.3315 0.1657 0.4972 0.1105 0.0553 0.663 0.221 1.4917 0 0.0553-0.1105 0.1105-0.3315 0.1105-0.4972-0.3315 0.1105-0.6629 0.1105-0.9392 0.1105-0.3315 0-0.6077-0.0552-0.8287-0.1105z" clip-path="url(#clipPath370)"/>
  <path transform="matrix(3.5736 0 0 3.5736 -30.607 -8.9669)" d="m61.691 33.204c0-0.0553 0-0.1105-0.0552-0.1105-0.1658-0.5525-0.442-0.7735-0.663-0.7735s-0.4973 0.221-0.663 0.7735c0 0.0552-0.0552 0.1105-0.0552 0.1657 0.6077-0.2762 1.1602-0.1657 1.4364-0.0552z" clip-path="url(#clipPath364)"/>
 </g>
 <defs>
  <clipPath id="clipPath364">
   <rect x="6" width="87.845" height="100" fill="#fff"/>
  </clipPath>
  <clipPath id="clipPath370">
   <rect x="6" width="87.845" height="100" fill="#fff"/>
  </clipPath>
  <clipPath id="clipPath376">
   <rect x="6" width="87.845" height="100" fill="#fff"/>
  </clipPath>
  <clipPath id="clipPath382">
   <rect x="6" width="87.845" height="100" fill="#fff"/>
  </clipPath>
  <clipPath id="clipPath388">
   <rect x="6" width="87.845" height="100" fill="#fff"/>
  </clipPath>
  <clipPath id="clipPath394">
   <rect x="6" width="87.845" height="100" fill="#fff"/>
  </clipPath>
  <clipPath id="clipPath400">
   <rect x="6" width="87.845" height="100" fill="#fff"/>
  </clipPath>
  <clipPath id="clipPath406">
   <rect x="6" width="87.845" height="100" fill="#fff"/>
  </clipPath>
  <clipPath id="clipPath412">
   <rect x="6" width="87.845" height="100" fill="#fff"/>
  </clipPath>
  <clipPath id="clipPath418">
   <rect x="6" width="87.845" height="100" fill="#fff"/>
  </clipPath>
  <clipPath id="clipPath424">
   <rect x="6" width="87.845" height="100" fill="#fff"/>
  </clipPath>
  <clipPath id="clipPath430">
   <rect x="6" width="87.845" height="100" fill="#fff"/>
  </clipPath>
  <clipPath id="clipPath436">
   <rect x="6" width="87.845" height="100" fill="#fff"/>
  </clipPath>
  <clipPath id="clipPath442">
   <rect x="6" width="87.845" height="100" fill="#fff"/>
  </clipPath>
  <clipPath id="clipPath448">
   <rect x="6" width="87.845" height="100" fill="#fff"/>
  </clipPath>
  <clipPath id="clipPath454">
   <rect x="6" width="87.845" height="100" fill="#fff"/>
  </clipPath>
  <clipPath id="clipPath460">
   <rect x="6" width="87.845" height="100" fill="#fff"/>
  </clipPath>
  <clipPath id="clipPath466">
   <rect x="6" width="87.845" height="100" fill="#fff"/>
  </clipPath>
  <clipPath id="clipPath472">
   <rect x="6" width="87.845" height="100" fill="#fff"/>
  </clipPath>
  <clipPath id="clipPath478">
   <rect x="6" width="87.845" height="100" fill="#fff"/>
  </clipPath>
  <clipPath id="clipPath484">
   <rect x="6" width="87.845" height="100" fill="#fff"/>
  </clipPath>
  <clipPath id="clipPath490">
   <rect x="6" width="87.845" height="100" fill="#fff"/>
  </clipPath>
  <clipPath id="clipPath496">
   <rect x="6" width="87.845" height="100" fill="#fff"/>
  </clipPath>
  <clipPath id="clipPath502">
   <rect x="6" width="87.845" height="100" fill="#fff"/>
  </clipPath>
  <clipPath id="clipPath508">
   <rect x="6" width="87.845" height="100" fill="#fff"/>
  </clipPath>
  <clipPath id="clipPath514">
   <rect x="6" width="87.845" height="100" fill="#fff"/>
  </clipPath>
  <clipPath id="clipPath520">
   <rect x="6" width="87.845" height="100" fill="#fff"/>
  </clipPath>
  <clipPath id="clipPath526">
   <rect x="6" width="87.845" height="100" fill="#fff"/>
  </clipPath>
  <clipPath id="clipPath532">
   <rect x="6" width="87.845" height="100" fill="#fff"/>
  </clipPath>
  <clipPath id="clipPath538">
   <rect x="6" width="87.845" height="100" fill="#fff"/>
  </clipPath>
  <clipPath id="clipPath544">
   <rect x="6" width="87.845" height="100" fill="#fff"/>
  </clipPath>
  <clipPath id="clipPath550">
   <rect x="6" width="87.845" height="100" fill="#fff"/>
  </clipPath>
  <clipPath id="clipPath556">
   <rect x="6" width="87.845" height="100" fill="#fff"/>
  </clipPath>
  <clipPath id="clipPath562">
   <rect x="6" width="87.845" height="100" fill="#fff"/>
  </clipPath>
  <clipPath id="clipPath568">
   <rect x="6" width="87.845" height="100" fill="#fff"/>
  </clipPath>
  <clipPath id="clipPath574">
   <rect x="6" width="87.845" height="100" fill="#fff"/>
  </clipPath>
 </defs>
</svg>
