<svg height="319.765539" viewBox="0 0 400 409.0625" width="312.729134" xmlns="http://www.w3.org/2000/svg"><g fill-rule="evenodd"><path d="m103.733 3.047-1.077 1.172 1.247-1.094c.685-.602 1.307-1.129 1.38-1.172.074-.043-.003-.078-.17-.078-.166 0-.788.527-1.38 1.172m190.984-1.094c.073.043.695.57 1.38 1.172l1.247 1.094-1.077-1.172c-.592-.645-1.214-1.172-1.38-1.172-.167 0-.244.035-.17.078m-193.947 3.75-1.551 1.641 1.64-1.551c.903-.853 1.641-1.591 1.641-1.641 0-.233-.29.027-1.73 1.551m198.136-.078c.847.859 1.61 1.563 1.696 1.563.085 0-.537-.704-1.383-1.563-.847-.859-1.61-1.562-1.696-1.562-.085 0 .537.703 1.383 1.562m-102.986 1.336c-10.215 6.698-21.497 10.605-34.943 12.103-17.972 2.001-37.478-2.384-52.241-11.744-2.337-1.482-3.376-1.979-3.754-1.794-.287.14-13.753 12.342-29.925 27.115l-29.403 26.859 3.997 3.922c9.234 9.061 17.338 20.057 21.033 28.539 5.316 12.199 3.322 27.905-7.387 58.195-4.654 13.165-6.883 21.38-8.434 31.094-5.522 34.574-1.035 62.047 13.731 84.076 27.166 40.528 64.593 65.077 109.056 71.531l4.369.634 8.99 8.987 8.991 8.987 8.991-8.987 8.99-8.987 4.369-.634c44.777-6.5 81.954-31.101 109.769-72.638 18.942-28.288 20.426-69.308 4.169-115.26-9.277-26.224-11.833-42.834-8.271-53.744 2.827-8.657 11.305-20.785 21.795-31.177l4.576-4.534-29.877-27.223-29.878-27.223-3.332 2.185c-25.082 16.441-61.964 16.277-87.408-.389-4.507-2.952-3.282-2.969-7.973.107m-98.42 1.633c-.759.773-1.31 1.406-1.224 1.406s.777-.633 1.537-1.406c.759-.774 1.309-1.406 1.223-1.406s-.777.632-1.536 1.406m204.844.156c.846.859 1.609 1.563 1.695 1.563s-.536-.704-1.383-1.563c-.846-.859-1.609-1.562-1.695-1.562s.536.703 1.383 1.562m-208.452 3.203-1.236 1.328 1.328-1.235c.731-.679 1.329-1.277 1.329-1.328 0-.237-.273 0-1.421 1.235m108.269.039c24.54 16.167 62.683 16.917 88.695 1.744 1.896-1.106 3.386-1.788 3.608-1.651.428.263 48.702 44.161 50.782 46.178l1.339 1.299-3.499 3.735c-8.729 9.315-15.835 19.607-19.012 27.534-5.076 12.664-3.233 29.757 6.092 56.513 5.961 17.101 7.254 21.492 9.015 30.625 6.371 33.037 2.339 62.578-11.367 83.281-26.781 40.453-63.867 64.792-107.619 70.63l-4.371.583-5.49 5.412c-3.02 2.976-6.58 6.461-7.912 7.744l-2.422 2.334-7.734-7.703c-6.514-6.486-7.907-7.73-8.828-7.875-.602-.096-2.782-.401-4.844-.679-35.259-4.749-68.535-23.48-92.94-52.315-18.463-21.814-25.717-38.334-27.516-62.662-1.299-17.587 1.729-40.424 7.647-57.656 11.161-32.502 12.74-39.1 12.787-53.438.044-13.559-6.707-26.696-21.776-42.371l-3.467-3.606 1.382-1.344c1.171-1.138 48.579-44.219 50.53-45.919.663-.576.701-.566 3.106.88 26.15 15.716 67.046 14.89 90.403-1.827 1.368-.979.992-1.04 3.411.554m103.933.196c.846.859 1.609 1.562 1.695 1.562s-.536-.703-1.383-1.562c-.846-.86-1.609-1.563-1.695-1.563s.536.703 1.383 1.563m-215.781 2.968c-.76.774-1.31 1.407-1.224 1.407s.777-.633 1.536-1.407c.759-.773 1.31-1.406 1.224-1.406s-.777.633-1.536 1.406m219.218.157c.847.859 1.61 1.562 1.696 1.562.085 0-.537-.703-1.383-1.562-.847-.86-1.61-1.563-1.696-1.563-.085 0 .537.703 1.383 1.563m3.268 2.89c1.295 1.38 1.576 1.628 1.576 1.393 0-.05-.668-.718-1.484-1.484l-1.485-1.393zm-225.941.156-1.077 1.172 1.172-1.077c.645-.592 1.172-1.119 1.172-1.172 0-.238-.264-.013-1.267 1.077m-3.591 3.282-1.236 1.328 1.328-1.236c.731-.679 1.329-1.277 1.329-1.328 0-.236-.273 0-1.421 1.236m233.282 0c.767.816 1.435 1.484 1.485 1.484.234 0-.014-.281-1.393-1.576l-1.485-1.393zm3.295 3.047c.671.687 1.291 1.25 1.377 1.25s-.393-.563-1.065-1.25c-.671-.688-1.291-1.25-1.377-1.25s.393.562 1.065 1.25m-243.457 3.203-.918 1.015 1.015-.918c.947-.855 1.16-1.113.918-1.113-.054 0-.511.457-1.015 1.016m247.051.078c.583.601 1.13 1.094 1.216 1.094s-.321-.493-.904-1.094c-.583-.602-1.13-1.094-1.216-1.094s.32.492.904 1.094m3.437 3.125c.583.601 1.13 1.094 1.216 1.094s-.32-.493-.903-1.094c-.584-.602-1.131-1.094-1.217-1.094s.321.492.904 1.094m2.5 2.129c0 .054.457.511 1.016 1.015l1.015.918-.918-1.015c-.855-.947-1.113-1.16-1.113-.918m-132.072 1.643c-1.062 1.126-1.127 1.338-1.187 3.884-.061 2.598-30.844 67.326-32.507 68.353-6.234 3.85-7.292 10.497-1.968 12.372.515.182.547 1.759.547 27.169v26.977l-1.012.299c-1.649.488-1.791 1.148-1.796 8.356-.005 6.997.204 8.177 1.61 9.083.401.259 14.369 5.344 31.041 11.301 46.063 16.458 41.094 14.334 41.094 17.567v2.337l2.631-.11c4.663-.195 4.811-.568 4.935-12.454.099-9.383-.042-10.413-1.571-11.526l-.839-.611v-10.885c0-5.986.035-23.766.078-39.511l.079-28.626 1.409-.891c4.001-2.529 3.313-6.47-1.756-10.051-1.27-.897-2.549-1.811-2.842-2.031-1.165-.874-31.927-66.2-31.853-67.642.193-3.715-3.723-5.874-6.093-3.36m135.822 1.794c0 .054.457.511 1.016 1.016l1.015.918-.918-1.016c-.855-.947-1.113-1.159-1.113-.918m-225.863 9.885c-2.213 1.603-3.938 4.617-4.329 7.565l-.209 1.573 1.264-.645c2.338-1.193 4.61-4.755 4.969-7.791.225-1.898.054-1.969-1.695-.702m28.139.789c.323 3.125 3.734 7.979 5.608 7.979 1.852 0-1.175-6.798-3.909-8.778-1.743-1.262-1.904-1.187-1.699.799m127.522-.78c-2.838 2.086-5.783 8.759-3.868 8.759 1.848 0 5.224-4.885 5.548-8.026.2-1.931.042-2-1.68-.733m28.12.693c.358 3.031 2.473 6.36 4.903 7.723l1.34.75-.191-1.61c-.353-2.979-2.02-5.873-4.362-7.569-1.743-1.263-1.915-1.191-1.69.706m-191.705.644c-.969 2.149-1.063 7.158-.173 9.14l.562 1.25.742-1.225c1.126-1.856 1.598-5.036 1.128-7.589-.676-3.668-1.164-4.008-2.259-1.576m43.871-.507c-.935 2.094-.767 6.694.331 9.022l.884 1.875.671-1.25c1.309-2.439.739-9.128-.893-10.482-.373-.31-.546-.165-.993.835m112.315-.481c-1.522 2.323-1.821 7.276-.604 9.982l.629 1.396.875-1.869c1.768-3.775.957-12.343-.9-9.509m43.505.206c-1.179 3.064-.952 7.549.502 9.948l.742 1.224.563-1.25c.899-1.997.802-7.335-.17-9.297-.844-1.704-1.173-1.83-1.637-.625m-95.75 6.904c-.089.089-1.074.272-2.187.406-4.586.552-4.147 1.831.629 1.831h2.851l.526 1.104c.648 1.357.661 1.709.065 1.709-.848 0-2.975.999-2.975 1.397 0 .387 1.944.79 3.806.79.806 0 1.011.218 1.826 1.943 1.175 2.484 1.134 2.518-3.534 2.901-4.499.369-5.669 1.189-2.195 1.539 7.299.736 8.212 1.023 9.103 2.856.821 1.69.991 1.606-3.642 1.794-5.503.224-5.531 1.21-.049 1.73 5.007.475 5.581.743 6.772 3.162 1.276 2.596 1.391 2.513-3.452 2.513-6.114 0-7.466 1.501-1.828 2.028 6.325.592 8.357 1.575 9.696 4.692 1.235 2.875 1.478 2.614-2.128 2.281-4.599-.425-13.657-.468-14.059-.066-.708.704.641 1.108 5.206 1.557 5.123.505 10.858 1.447 12.711 2.089 1.09.378 1.319.668 2.47 3.14 1.525 3.277 1.598 3.175-1.839 2.585-6.981-1.199-11.677-1.339-11.677-.35 0 .641.111.675 4.063 1.243 6.447.928 12.247 2.557 12.804 3.598.409.764.52.757-2.804.171-14.992-2.643-33.767-2.592-46.954.128-1.504.31-2.734.49-2.734.399s5.437-11.778 12.082-25.971 12.566-26.86 13.158-28.149l1.077-2.344 1.687 3.566c.928 1.961 1.614 3.638 1.525 3.728m-107.659.535c-.912 2.762.189 8.765 1.889 10.304 1.422 1.287 1.681-5.708.327-8.814-1.092-2.503-1.739-2.938-2.216-1.49m51.941-.335c-1.802 2.29-2.614 7.608-1.552 10.162l.454 1.094.961-1.504c2.145-3.359 2.273-12.468.137-9.752m103.75.394c-.845 2.819-.125 7.484 1.509 9.778l.715 1.005.474-.898c1.149-2.179.282-8.214-1.459-10.163l-.865-.969zm51.674 0c-1.629 2.462-2.232 6.629-1.374 9.495.985 3.287 3.745-3.899 3.076-8.009-.448-2.754-.711-2.984-1.702-1.486m-198.514 1.667c-2.941 1.456-6.309 6.674-3.924 6.08 2.745-.685 5.713-3.447 6.475-6.026.275-.931-.735-.953-2.551-.054m32.719-.258c.018 2.282 6.202 7.571 7.425 6.349.359-.36-1.336-3.373-2.476-4.403-2.034-1.838-4.956-2.987-4.949-1.946m122.781.386c-2.119 1.104-5.3 5.248-4.581 5.967.89.89 5.109-1.939 6.495-4.355 1.488-2.596.91-3.083-1.914-1.612m33.016-.074c.838 2.717 4.699 6.151 6.935 6.169 1.037.008-.412-2.942-2.3-4.683-2.24-2.064-5.096-2.98-4.635-1.486m-201.343 4.844c.319 3.394 2.502 7.39 4.675 8.552 2.211 1.183-.429-7.083-2.951-9.242-1.746-1.495-1.922-1.425-1.724.69m59.185-.557c-2.326 2.143-4.121 6.829-3.369 8.791.283.738.316.722 1.998-.998 3.525-3.603 4.821-10.974 1.371-7.793m96.511-.922c-.854 1.383 1.46 7.245 3.637 9.212 1.596 1.442 1.994 1.162 1.699-1.195-.439-3.518-4.42-9.499-5.336-8.017m59.226.809c-2.501 2.26-5.04 10.376-2.885 9.222 2.173-1.162 4.356-5.158 4.675-8.552.202-2.152-.046-2.245-1.79-.67m49.362.982-2.022 2.11 2.11-2.022c1.959-1.879 2.252-2.197 2.022-2.197-.048 0-.997.949-2.11 2.109m-313.74-1.711c0 .048 1.089 1.138 2.421 2.422l2.422 2.336-2.336-2.422c-2.169-2.249-2.507-2.564-2.507-2.336m58.301 4.925c-2.088 2.233-3.991 7.49-2.71 7.49 1.545 0 4.592-4.602 4.928-7.441.253-2.133-.258-2.144-2.218-.049m41.159.106c.271 2.622 2.075 5.747 3.958 6.856 2.541 1.496.64-4.867-2.228-7.458-1.668-1.507-1.938-1.413-1.73.602m114.927-.559c-2.358 2.13-4.571 8.732-2.568 7.66 2.046-1.095 4.43-5.105 4.43-7.452.001-1.618-.268-1.648-1.862-.208m40.718.502c.346 2.929 3.775 7.976 4.932 7.261 1.071-.662-.908-5.666-3.006-7.6-1.87-1.723-2.165-1.671-1.926.339m53.323 1.737-2.022 2.11 2.109-2.022c1.959-1.879 2.252-2.197 2.022-2.197-.048 0-.997.949-2.109 2.109m-299.678 2.051c0 .054.457.511 1.015 1.016l1.016.918-.918-1.016c-.856-.947-1.113-1.159-1.113-.918m40.625.606c0 3.112 5.693 10.269 7.072 8.89.464-.464-1.186-4.502-2.596-6.355-1.314-1.725-4.476-3.517-4.476-2.535m59.446.268c-2.622 1.302-6.402 7.489-5.269 8.623 1.287 1.286 6.968-5.785 6.702-8.341l-.098-.945zm96.494.373c.007 2.4 2.811 6.419 5.418 7.766 1.487.768 1.555.702 1.145-1.127-.924-4.122-6.573-9.836-6.563-6.639m59.455-.568c-2.244.975-4.69 4.301-5.348 7.272-.353 1.593-.186 1.75 1.165 1.096 2.415-1.17 4.954-4.718 5.481-7.66.232-1.298.156-1.34-1.298-.708m39.741 1.489-.918 1.016 1.016-.918c.947-.856 1.159-1.113.918-1.113-.054 0-.511.457-1.016 1.015m-246.082 2.125c-1.136 2.123-.655 6.768 1.001 9.668l.96 1.682.49-.917c1.17-2.193.339-8.081-1.471-10.421l-.583-.755zm41.752.52c-2.242 3.404-2.294 12.283-.057 9.812 1.467-1.621 2.347-6.067 1.76-8.894-.463-2.231-.74-2.38-1.703-.918m113.836-.342c-.959 2.313-.195 7.997 1.337 9.945.885 1.125 1.094 1.015 1.531-.806.954-3.978-1.614-12.163-2.868-9.139m41.816.502c-1.64 2.867-2.179 7.688-1.089 9.746l.482.91.883-1.506c1.565-2.671 2.121-6.295 1.377-8.975-.46-1.656-.786-1.69-1.653-.175m-207.083 3.476c0 1.401 3.07 4.262 5.609 5.227 4.014 1.524 4.6.437 1.446-2.683-2.433-2.405-7.055-4.072-7.055-2.544m58.956.062c-2.396.879-5.831 4.172-5.831 5.59 0 .809 4.108-.333 6.082-1.691 1.286-.885 3.293-3.402 3.293-4.131 0-.397-2.225-.251-3.544.232m96.669-.277c0 .712 1.785 3.028 3.042 3.947 2.165 1.582 6.333 2.785 6.333 1.828 0-.523-1.632-2.713-2.762-3.707-1.754-1.543-6.613-3.062-6.613-2.068m58.437.596c-3.477 1.612-6.34 5.448-4.066 5.448 2.899 0 8.129-3.75 8.129-5.829 0-.697-2.177-.493-4.063.381m-200.888 7.265c.186 3.285 2.989 8.183 4.684 8.183 1.469 0-.596-6.722-2.765-9.003-1.779-1.87-2.064-1.748-1.919.82m34.542-1.204c-3.045 2.674-5.046 10.865-2.15 8.803 1.972-1.404 3.809-5.346 3.809-8.177 0-1.803-.223-1.886-1.659-.626m121.105 1.249c.296 4.136 4.422 10.107 5.105 7.387.471-1.877-1.601-6.952-3.53-8.646-1.566-1.375-1.753-1.226-1.575 1.259m34.349-.97c-2.305 2.304-4.426 9.108-2.84 9.108 1.947 0 5.444-7.071 4.771-9.646-.243-.929-.55-.844-1.931.538m-199.215.279c-.573.927 2.98 4.483 5.554 5.558 1.185.495 3.616.625 3.616.193 0-2.418-8.094-7.493-9.17-5.751m51.481.209c-4.09 1.28-7.865 6.06-4.533 5.74 3.095-.298 7.534-3.747 7.534-5.855 0-.436-1.414-.382-3.001.115m104.251.157c0 1.827 4.717 5.312 7.559 5.585 1.825.175 1.929-.191.584-2.048-2.056-2.838-8.143-5.482-8.143-3.537m51.873-.308c-2.373.722-4.756 2.464-5.795 4.237-.994 1.696-.986 1.721.495 1.721 2.382 0 5.601-1.937 7.18-4.322 1.236-1.866.625-2.398-1.88-1.636m-203.654 7.222c-1.99.614-1.669 1.338 1.237 2.789 3.968 1.984 9.847.83 6.56-1.287-2.444-1.574-5.597-2.181-7.797-1.502m11.781.212c0 2.12 5.237 6.324 7.891 6.333 2.14.008-.836-4.248-4.154-5.941-1.893-.965-3.737-1.159-3.737-.392m20.938-.246c-3.036.926-6.563 4.307-6.563 6.29 0 1.935 6.743-1.998 8.148-4.752.95-1.862.597-2.205-1.585-1.538m8.96.139c-1.584.443-4.081 2.003-4.059 2.537.083 2.063 7.565 1.135 9.753-1.21l.749-.802-.905-.364c-1.387-.557-3.865-.629-5.538-.161m114.477-.206c-.258.097-.806.301-1.217.454l-.749.277.749.802c2.19 2.347 9.655 3.286 9.655 1.215 0-1.533-6.255-3.569-8.438-2.748m11.25.06c0 2.299 5.124 6.577 7.891 6.586.938.004 1.012-.179.555-1.38-1.027-2.701-8.446-7.274-8.446-5.206m20.935.006c-4.031 1.227-8.708 6.954-5.305 6.498 2.372-.319 4.757-1.914 6.598-4.415 1.515-2.058 1.057-2.797-1.293-2.083m8.823.274c-1.567.502-3.82 1.99-3.82 2.523 0 1.935 8.185.817 9.996-1.365 1.194-1.439-2.9-2.207-6.176-1.158m-188.591 4.462c-5.096 1.201-5.145 3.55-.073 3.549 2.985 0 6.406-1.418 6.406-2.655 0-.829-4.133-1.412-6.333-.894m25.552-.148c-2.869.715-2.954 1.427-.332 2.768 2.915 1.491 9.64.998 8.306-.609-1.15-1.386-5.908-2.674-7.974-2.159m129.782.227c-1.715.483-4.104 1.974-3.842 2.397 1.304 2.111 10.466.759 10.466-1.544 0-.911-4.406-1.478-6.624-.853m25.374-.069c-2.367.717-2.017 1.873.906 3.002 3.091 1.192 8.711.311 7.381-1.158-1.366-1.51-5.991-2.539-8.287-1.844m-174.203 3.242c-1.023.42-2.272 1.176-2.775 1.679l-.914.914.743.405c2.045 1.112 7.006.041 8.884-1.919.663-.693.97-.828 1.284-.567.326.271.135.54-.912 1.283-1.635 1.16-3.517 2.923-4.347 4.073l-.624.865.84 1.435.841 1.435 1.244-2.301c1.314-2.43 3.587-5.581 4.025-5.581.454 0 2.386 2.756 3.625 5.169 1.397 2.722 1.396 2.721 2.404 1.03l.775-1.3-1.299-1.54c-.714-.847-2.106-2.147-3.092-2.888-1.394-1.049-1.702-1.423-1.386-1.685.305-.254.622-.112 1.277.572 1.873 1.955 6.838 3.032 8.874 1.924l.732-.398-.732-.786c-2.164-2.32-6.627-3.239-9.573-1.972l-1.628.7-1.543-.663c-2.078-.894-4.362-.855-6.723.116m155.983-.24c-.826.275-2.087 1.019-2.801 1.653l-1.299 1.152.77.418c2.071 1.127 7.019.069 8.91-1.904.655-.684.972-.826 1.277-.572.316.262.001.642-1.417 1.708-3.591 2.699-4.453 4.176-3.439 5.894.867 1.469.879 1.463 2.238-1.155 1.334-2.57 3.207-5.233 3.679-5.233.446 0 3.083 3.703 4.238 5.951l.967 1.883.83-1.255c1.211-1.83.449-3.123-3.615-6.131-1.394-1.031-1.699-1.398-1.381-1.661.307-.255.621-.115 1.278.571 1.887 1.969 6.839 3.031 8.903 1.909l.761-.414-1.103-1.011c-2.387-2.188-6.462-2.92-9.346-1.679l-1.542.663-1.543-.663c-1.843-.793-4.221-.839-6.365-.124m-56.155 7.441c10.312 1.211 19.632 3.781 21.321 5.88 1.865 2.317.143 3.755-3.054 2.551-15.138-5.703-41.504-6.433-59.829-1.658-6.419 1.673-7.279 1.763-7.932.83-.759-1.084-.617-1.997.452-2.897 2.335-1.965 14.784-4.184 29.823-5.316 3.246-.244 15.166.134 19.219.61m3.518 8.729c6.362.675 11.486 1.589 13.604 2.428l1.784.707.095 1.64c.076 1.321-.001 1.641-.395 1.641-.27 0-3.758-.417-7.751-.925-3.994-.509-9.477-1.05-12.185-1.204-4.15-.234-5.027-.371-5.58-.872-.926-.838-14.619-.917-15.447-.089-.453.453-.47 1.091-.168 6.227.186 3.148.338 6.452.338 7.343v1.621l-2.11.212c-2.629.265-13.111 1.723-14.062 1.957-.537.131-1.103 1.358-.625 1.354.043-.001 2.117-.204 4.609-.453s6.324-.551 8.516-.67l3.984-.218v1.08c0 2.171.069 2.192 7.188 2.192 7.118 0 7.187-.021 7.187-2.191v-1.079l2.891.215c8.89.66 19.02 2.708 22.812 4.611 1.119.562 1.172.66 1.172 2.145 0 1.856.465 1.803-5.469.614-5.397-1.082-11.512-1.546-12.613-.956-1.087.582-.316 1.2 1.776 1.424 6.2.665 10.341 1.699 14.04 3.505l2.266 1.106v1.722 1.723l-1.016-.175c-.558-.096-3.493-.603-6.522-1.127-10.895-1.882-12.781-2.046-23.399-2.04-14 .008-20.811.662-20.558 1.976.088.452 1.384.506 12.749.533 17.868.043 28.62 1.378 36.949 4.587l1.797.692v2.111c0 1.481-.117 2.111-.391 2.11-.214-.001-2.15-.346-4.3-.767-9.021-1.767-23.406-2.739-24.315-1.644-.668.805.311 1.057 4.944 1.274 7.483.351 17.281 2.069 21.772 3.819l2.242.873.115 2.051c.148 2.621.374 2.502-3.817 2.023-6.463-.737-10.625-.549-10.625.482 0 .459.57.592 3.919.917 3.946.383 7.432 1.126 9.597 2.046l1.172.498v2.808c0 1.545-.062 2.809-.137 2.809s-1.587-.369-3.359-.819c-4.029-1.023-17.392-1.499-18.508-.659-1.419 1.067-.489 1.368 4.865 1.574 5.545.214 10.637 1.002 14.629 2.263l2.51.793v2.642c0 1.454-.106 2.641-.235 2.639s-1.57-.287-3.203-.633c-4.348-.92-10.541-1.197-10.814-.483-.354.92.309 1.166 4.768 1.772 4.089.556 5.552.831 8.312 1.562l1.172.31v4.072c0 3.73-.046 4.058-.547 3.911-.301-.089-2.586-.742-5.078-1.451-14.509-4.131-39.62-12.468-49.844-16.548-5.768-2.301-8.635-4.331-9.177-6.497-.162-.647-.372-12.891-.472-27.493l-.179-26.327.72-.471c1.705-1.118 8.297-2.339 15.983-2.96 2.234-.181 4.695-.383 5.469-.449 3.41-.293 22.604.125 26.955.586m-12.763 6.159c.039.055-.106 3.124-.321 6.819s-.401 7.176-.413 7.734l-.021 1.016h-3.916c-2.856 0-3.951-.106-4.045-.391-.072-.214-.314-3.725-.539-7.801l-.409-7.41 2.502-.124c2.533-.125 7.034-.026 7.162.157m13.151.902c4.663.676 11.687 2.146 13.75 2.878 1.212.429 1.253.49 1.343 2.015l.093 1.572-3.64-.74c-7.347-1.493-12.952-1.688-12.952-.451 0 .492.341.61 2.266.783 5.959.534 10.22 1.549 12.89 3.071l1.25.713.093 2.282c.083 2.071.04 2.268-.469 2.121-3.559-1.026-14.057-2.579-20.657-3.055l-5.217-.376.28-5.929.28-5.93 3.158.206c1.736.113 5.126.491 7.532.84m-45.318 57.954c4.712 1.706 4.225.842 4.225 7.487 0 3.163-.106 5.816-.235 5.894s-1.851-.443-3.828-1.157l-3.594-1.299-.085-6.012c-.048-3.429.037-6.012.197-6.012.156 0 1.649.494 3.32 1.099m12.271 4.43 3.204 1.109v6.037 6.037l-3.489-1.244c-1.919-.685-3.607-1.318-3.75-1.406-.592-.366-.31-12.086.285-11.854.301.116 1.989.711 3.75 1.321m11.026 3.795 3.584 1.199.085 5.988c.099 7.013.544 6.521-4.304 4.76l-3.281-1.192-.085-5.977c-.047-3.288.028-5.977.167-5.977.138 0 1.864.539 3.834 1.199m11.715 3.846 3.275.998v6.197c0 4.759-.091 6.193-.391 6.179-.214-.011-1.867-.555-3.671-1.211l-3.282-1.192-.085-6.169c-.075-5.451-.028-6.148.397-5.985.265.102 1.956.634 3.757 1.183m11.4 3.497 3.281 1.031.085 6.063c.107 7.629.469 7.054-3.584 5.71-4.559-1.512-4.157-.759-4.157-7.791 0-7.07-.468-6.534 4.375-5.013m11.946 3.58 2.585.846.085 6.641c.098 7.763.562 7.179-4.303 5.412l-3.282-1.192-.085-6.046c-.112-7.932-.52-7.469 5-5.661m119.081 4.284c.002.859.063 1.174.135.699s.07-1.179-.005-1.563c-.074-.384-.132.004-.13.864m8.348 7.812c.43.246.922.447 1.094.447s-.039-.201-.469-.447c-.43-.245-.922-.446-1.094-.446s.039.201.469.446m-314.062.75c-4.6 1.847-35.344 16.162-36.25 16.879-3.381 2.673-3.645 7.587-.72 13.421 1.721 3.435 1.359 3.444 9.582-.235 3.883-1.737 7.193-3.158 7.356-3.158.465 0 2.442 3.351 3.365 5.702.651 1.661.947 2.09 1.33 1.931.271-.112.739-.275 1.04-.362.917-.264-.573-4.455-2.594-7.294-.847-1.189-1.758-.621 7.851-4.897 9.444-4.202 8.934-3.699 7.61-7.496-1.697-4.871-.877-10.318 1.799-11.95 1.826-1.114 2.909-1.147 5.334-.164.842.341.787-2.195-.058-2.647-.942-.504-4.092-.353-5.645.27m306.328-.288c-.568.242-.703.548-.703 1.593 0 1.108.078 1.262.546 1.072 1.724-.699 2.382-.831 3.289-.659 4.27.807 5.957 6.323 3.862 12.626-1.324 3.983-1.869 3.435 7.581 7.632 9.575 4.254 8.71 3.717 7.877 4.888-1.938 2.721-3.5 7.06-2.632 7.308.314.09.792.256 1.063.368.383.159.679-.27 1.33-1.931.911-2.321 2.898-5.702 3.352-5.702.155 0 3.463 1.411 7.35 3.136 3.947 1.751 7.302 3.062 7.597 2.968 1.673-.531 4.239-7.224 4.017-10.479-.295-4.328-1.469-5.442-9.688-9.197-3.307-1.512-11.427-5.222-18.044-8.247-12.736-5.821-14.456-6.371-16.797-5.376m34.453 16.108c7.197 3.279 7.843 3.942 7.579 7.784-.143 2.085-1.472 6.189-2.136 6.6-.149.091-7.207-2.886-15.686-6.616l-15.416-6.782.743-2.528c.748-2.547.89-7.843.248-9.312-.154-.352 3.208 1.041 9.874 4.093 5.558 2.544 12.216 5.587 14.794 6.761m-345.178-10.087c-.658 2.294-.083 7.962 1.071 10.554.251.562-30.595 14.334-31.045 13.861-1.717-1.806-2.741-8.213-1.601-10.021.904-1.435.795-1.378 16.659-8.696 16.035-7.398 15.325-7.127 14.916-5.698m59.543 8.049c.82 2.773.947 5.686.94 21.562-.004 11.01-.13 17.571-.369 19.214-.199 1.372-.335 2.523-.301 2.557s6.198.106 13.697.161l13.635.099.969-3.465c1.364-4.874 1.163-5.71-.981-4.075-2.683 2.047-4.421 2.538-8.986 2.539-7.498.002-7.922-.52-8.075-9.967l-.106-6.53 6.85.163 6.851.163.697-2.659c.831-3.17.825-3.179-2.155-2.862-1.289.136-4.581.257-7.315.268l-4.972.019.209-6.461c.114-3.553.264-6.516.332-6.585.068-.068 1.804-.129 3.858-.137 4.735-.016 6.762.521 8.7 2.307.763.704 1.463 1.205 1.554 1.114.167-.167 1.869-6.139 2.062-7.234.1-.569-.354-.59-13.564-.625-12.014-.031-13.651.021-13.53.434m122.822 3.972c-.859.451-2.681 1.28-4.048 1.843l-2.485 1.023.089 2.815.089 2.815-1.966.094-1.966.094-.363 1.256c-.199.692-.466 1.729-.593 2.306l-.23 1.049 2.377-.223c1.308-.123 2.4-.176 2.428-.118.027.058.133 4.886.234 10.73l.184 10.625.832 1.775c1.887 4.024 6.592 5.264 13.419 3.537l2.064-.522.575-2.308c.683-2.743.577-2.918-1.35-2.227-6.348 2.275-7.624.075-7.498-12.931l.083-8.574 4.233.081 4.232.081.645-2.449.645-2.448-4.997.144-4.996.144.188-1.995c.778-8.251.843-8.015-1.825-6.617m-52.343 7.806c-16.406 2.746-16.928 28.924-.646 32.313 3.545.738 12.412-.359 13.647-1.688.659-.709 1.728-5.528 1.227-5.528-.081 0-1.03.457-2.11 1.015-7.235 3.744-15.839-1.425-15.865-9.531l-.003-1.172h9.024c10.679 0 9.894.309 9.855-3.878-.074-8.02-6.563-12.965-15.129-11.531m33.763.277c-1.766.766-2.99 1.866-5.073 4.561l-1.972 2.55-.089-3.536-.088-3.535-2.85.202c-1.568.111-3.508.203-4.311.203h-1.462l.479 2.109c.529 2.336.733 22.664.267 26.702l-.241 2.093 5.007-.003c2.754-.001 5.007-.1 5.007-.218s-.208-1.199-.463-2.402c-.541-2.554-.668-15.269-.169-17.006 1.111-3.876 4.987-5.754 7.282-3.529 1.335 1.293 1.693 1.264 2.08-.168.174-.645.735-2.649 1.247-4.453.853-3.011.888-3.314.417-3.672-.7-.533-3.746-.472-5.068.102m43.268-.034c-15.152 3.31-17.162 26.961-2.672 31.437 10.475 3.235 20.59-2.142 22.67-12.052 2.791-13.29-6.532-22.326-19.998-19.385m38.872.259c-1.964.828-3.122 1.584-5.513 3.6l-1.64 1.383v-2.674-2.674l-4.61.179c-5.485.212-4.86-.173-4.234 2.614.58 2.576.796 20.193.318 25.816l-.244 2.868h5.01c2.755 0 5.009-.095 5.009-.212 0-.116-.217-1.337-.482-2.712-.64-3.317-.793-16.276-.215-18.179 1.493-4.914 9.04-6.398 11.479-2.257.676 1.147.95 16.365.384 21.276l-.241 2.089 5.163-.003c2.839-.002 5.163-.029 5.163-.059s-.222-1.039-.493-2.242c-.357-1.587-.557-4.972-.729-12.343-.297-12.704-.738-14.187-4.856-16.337-2.008-1.048-6.928-1.119-9.269-.133m-154.852-.172-4.104.097 1.373 2.09c1.724 2.625 3.113 6.193 6.478 16.642 2.432 7.555 2.868 9.023 3.454 11.628l.191.847 3.787-.083 3.787-.084.564-2.222c.311-1.223 2.21-6.066 4.22-10.764 4.846-11.323 5.743-13.233 7.464-15.893 1.772-2.739 2.082-2.508-3.046-2.276l-4.282.193v1.215c0 2.475-1.063 6.196-3.897 13.648l-2.908 7.646-.796-2.631c-2.313-7.643-4.279-14.817-4.586-16.727-.616-3.839-.452-3.568-2.116-3.491-.813.037-3.325.112-5.583.165m-101.208 10.023c-11.515 4.426-22.044 8.464-23.396 8.974-3.119 1.175-3.077.75-.652 6.575 30.589 73.486 98.341 122.791 177.955 129.502l3.906.33 4.062 4.016c5.316 5.256 8.28 8.003 8.636 8.003.159 0 3.083-2.705 6.498-6.01l6.21-6.01 5.578-.486c67.981-5.925 128.782-44.496 163.536-103.744 4.944-8.429 15.032-29.803 14.59-30.913-.074-.186-3.701-1.702-8.06-3.369s-14.915-5.71-23.457-8.984c-15.064-5.774-16.22-6.16-17.238-5.77-.826.317-3.032 3.528-3.642 5.301l-.585 1.702.97-.502c1.004-.519 3.996-3.454 3.996-3.92 0-.493 4.334.738 5.281 1.5.169.136-1.9 5.112-3.922 9.431-1.361 2.906-1.756 3.507-2.212 3.357-.304-.101-2.03-.723-3.835-1.384l-3.281-1.2-.517.969c-.677 1.267-.797 1.168 3.086 2.532 1.852.651 3.485 1.288 3.629 1.415.519.46-7.07 13.255-11.707 19.737-29.098 40.667-72.763 65.465-122.347 69.482-2.435.197-2.595.258-3.736 1.426l-1.191 1.221h1.255c22.133 0 54.379-9.836 77.153-23.533 30.877-18.571 59.054-51.478 69.555-81.233.228-.644.51-1.171.628-1.171.256 0 36.948 14.085 37.134 14.255.261.238-3.262 8.275-6.696 15.276-32.701 66.665-98.251 110.826-172.12 115.957l-3.062.213-5.763 5.617-5.763 5.618-5.806-5.62-5.805-5.62-3.026-.21c-73.53-5.103-139.153-49.167-171.759-115.33-2.586-5.248-6.304-13.563-6.847-15.313-.181-.584 36.668-15.301 37.103-14.818.065.072.845 1.869 1.735 3.994 19.495 46.566 61.003 82.862 110.068 96.248 10.739 2.93 27.799 5.661 35.409 5.669l1.235.001-1.191-1.221c-1.141-1.168-1.301-1.229-3.736-1.426-55.904-4.529-104.566-35.843-132.077-84.992-1.23-2.198-2.12-4.098-1.977-4.222.144-.124 1.386-.624 2.761-1.112 4.773-1.692 4.613-1.587 4.059-2.658-.605-1.17-.562-1.173-4.668.322-1.881.686-3.472 1.247-3.536 1.247-.393 0-5.788-12.416-5.557-12.79.196-.317 4.07-1.901 4.627-1.891.213.003.782.565 1.265 1.248.884 1.249 3.552 3.326 3.867 3.011.604-.604-2.615-6.109-3.85-6.583-1.051-.403-2.59.13-22.77 7.886m223.902-6.348c5.591 2.923 6.572 19.018 1.433 23.53-2.164 1.9-5.316 2.049-7.646.362-5.828-4.222-4.932-22.895 1.163-24.234.46-.101.976-.236 1.148-.3.545-.203 3.086.215 3.902.642m-79.392-.013c3.009 1.556 3.764 6.055 1.177 7.011-.378.14-2.64.349-5.028.465l-4.341.211.206-1.752c.593-5.048 4.331-7.826 7.986-5.935m-115.76 17.422c-1.547.526-2.864 1-2.927 1.054-.395.337 6.752 12.065 10.957 17.981 24.52 34.497 60.841 58.104 101.814 66.176 6.755 1.33 19.208 2.992 19.672 2.625.587-.466-7.096-7.274-8.407-7.45-42.551-5.715-79.082-27.581-106.304-63.63-3.549-4.699-8.876-12.598-10.45-15.493-.676-1.245-1.3-2.254-1.386-2.241-.086.012-1.422.452-2.969.978m279.232.943c-.59 1.077-2.575 4.208-4.411 6.958-26.88 40.266-65.268 65.51-109.563 72.046l-4.32.638-3.516 3.497c-3.974 3.953-3.934 3.889-2.344 3.742 54.781-5.05 101.696-34.905 128.731-81.917 2.987-5.193 3.009-4.746-.296-5.839-1.417-.469-2.717-.904-2.891-.967-.174-.064-.799.766-1.39 1.842m-301.622 15.103c-8.632 5.251-8.525 5.145-7.243 7.174 1.15 1.821 1.074 1.837 6.345-1.404 2.489-1.53 4.569-2.738 4.623-2.684.055.055-1.032 2.93-2.415 6.391-2.803 7.017-2.778 6.893-1.797 8.626 1.044 1.843 1.046 1.842 9.725-3.452l8.02-4.892-.907-1.608c-1.235-2.192-1.436-2.161-6.617 1.015-2.492 1.528-4.573 2.739-4.625 2.692-.051-.047 1.105-3.078 2.57-6.736l2.664-6.649-.813-1.494c-1.169-2.148-.885-2.238-9.53 3.021m319.072-3.398c-1.016 1.645-1.033 1.607 3.324 7.88 2.177 3.136 3.91 5.742 3.851 5.792-.059.049-3.13-.234-6.825-.631-8.722-.935-7.972-.975-8.929.472-1.198 1.809-1.236 1.77 7.031 7.36 8.699 5.882 8.035 5.613 9.183 3.714 1.144-1.895 1.235-1.772-3.509-4.786-2.257-1.433-4.039-2.671-3.96-2.749.141-.142 9.058.743 10.426 1.034.754.161 2.258-1.128 2.258-1.936 0-.23-1.421-2.398-3.158-4.818-1.737-2.419-3.108-4.446-3.047-4.503s2.054 1.015 4.429 2.383c4.804 2.767 4.607 2.756 6.023.339 1.028-1.754 1.883-1.063-8.005-6.471-8.808-4.817-8.155-4.596-9.092-3.08m-168.124 15.841c-4.928 1.761-5.921 6.985-1.986 10.449 1.392 1.225 1.416 1.275.764 1.624-7.305 3.909-4.865 12.912 3.373 12.447 8.033-.454 10.099-8.767 3.252-13.09l-.726-.459 1.415-.996c5.963-4.204.911-12.478-6.092-9.975m-12.933 1.003c-1.718.405-3.506.74-3.972.745-.714.007-.905.203-1.222 1.26-.436 1.456-.278 1.752.664 1.248.374-.2 1.546-.388 2.605-.416l1.925-.053v10.079 10.078h2.143c1.934 0 2.117-.054 1.875-.547-.147-.301-.289-5.605-.315-11.787-.027-6.182-.167-11.263-.313-11.292-.146-.028-1.671.28-3.39.685m44.966-.362c-4.354 1.895-5.028 7.002-1.362 10.308l1.358 1.225-.762.494c-6.799 4.408-4.884 12.33 2.988 12.361 7.855.03 10.797-7.956 4.6-12.492-1.58-1.156-1.587-1.035.132-2.3 5.946-4.376-.023-12.613-6.954-9.596m-19.678 1.037c-.106.473-.307 1.315-.448 1.872-.324 1.28-.031 1.459 1.294.786 1.064-.539 10.273-1.05 10.273-.57 0 .112-2.602 4.643-5.782 10.067-6.762 11.537-6.526 10.79-3.363 10.671l2.419-.092.24-1.671c.287-2.006 1.682-5.595 3.418-8.797 1.945-3.586 5.206-8.957 6.044-9.952.602-.716.713-1.116.564-2.032l-.185-1.141h-7.14-7.141zm-7.942.464c2.331 1.456 1.934 4.908-.805 7l-.96.733-1.445-.917c-3.094-1.962-3.323-5.783-.424-7.076 1.023-.456 2.676-.338 3.634.26m-136.062.34c-.898.719-.9.728-.342 1.58.68 1.039 1.159.543-5.284 5.476l-4.968 3.804-.739-.695-.74-.695-.855.639c-1.19.888-1.133 1.077 1.332 4.352 2.266 3.012 2.669 3.269 3.836 2.452.808-.566.889-1.282.227-2.014-.427-.471.017-.884 5.026-4.663l5.495-4.147.753.709c.688.646.826.669 1.574.269 1.352-.723 1.238-1.111-1.327-4.51-2.711-3.593-2.701-3.586-3.988-2.557m168.569.119c2.334 1.609 2.327 4.351-.016 6.468-1.486 1.342-1.543 1.348-3.109.312-2.042-1.351-2.807-3.118-2.178-5.024.66-2 3.557-2.959 5.303-1.756m116.724 2.973c-1.497 1.749-1.601 1.58 3.57 5.791 6.037 4.915 6.837 6.221 5.316 8.681-2.105 3.407-3.862 2.975-10.806-2.662l-4.657-3.78-1.328 1.489c-1.761 1.976-1.926 1.665 3.036 5.737 8.238 6.762 11.715 7.355 15.8 2.695 4.893-5.581 3.874-8.752-5.224-16.256-4.189-3.454-4.199-3.457-5.707-1.695m-150.031 8.498c4.316 3.069 3.14 8.361-1.858 8.361-4.679 0-5.978-5.595-1.973-8.496 1.63-1.181 1.999-1.168 3.831.135m32.64.435c3.58 2.488 3.731 6.214.323 7.952-5.441 2.774-8.994-4.332-4.062-8.125 1.639-1.261 1.681-1.259 3.739.173m-164.347 5.268c-3.693 3.38-6.82 6.322-6.951 6.54-.297.495 7.435 8.879 8.189 8.879.286 0 .99-.486 1.564-1.079l1.045-1.078-1.886-2.125c-1.037-1.168-2.183-2.393-2.546-2.72-1.002-.904-.946-.98 4.056-5.498 2.568-2.321 5.117-4.677 5.665-5.237l.995-1.017-1.378-1.405c-1.821-1.855-1.148-2.22-8.753 4.74m267.202 2.44-1.051 1.084 1.195 3.525c.657 1.939 1.731 5.037 2.387 6.885.655 1.848 1.12 3.36 1.034 3.36s-3.248-1.202-7.027-2.67l-6.871-2.669-1.25 1.029c-1.67 1.374-1.844 1.054 4.882 8.955 6.42 7.54 6.33 7.477 8.09 5.675l1.213-1.242-.603-.709c-.331-.39-1.92-2.151-3.531-3.914s-2.789-3.205-2.618-3.205c.172 0 2.654.927 5.517 2.061 5.046 1.998 5.229 2.045 5.993 1.544 1.264-.828 1.23-1.186-.587-6.191-.951-2.617-1.83-5.039-1.954-5.383s1.448 1.027 3.493 3.047c4.271 4.217 3.811 4.01 5.603 2.512 1.881-1.572 2.193-1.083-5.302-8.319-7.316-7.062-7.105-6.931-8.613-5.375m-244.071 11.472c-3.113 1.607-3.52 4.174-1.386 8.739 2.801 5.992-.265 8.034-4.064 2.706-1.483-2.079-1.384-2.048-3.167-1.003-1.741 1.021-1.735 1.472.045 3.557 7.188 8.421 16.527 4.022 11.852-5.583-1.479-3.039-1.644-3.734-1.031-4.347 1.056-1.056 3.08.006 4.662 2.447 1.187 1.832 1.019 1.796 2.879.617l1.476-.936-.51-.988c-2.284-4.416-7.448-6.917-10.756-5.209m222.992 6.277c-3.569 2.615-3.547 2.581-2.549 3.823.752.936.755.937 1.69.389l.937-.548 3.978 5.364c3.292 4.439 3.916 5.45 3.619 5.861-.696.962-.732 1.29-.226 2.062.844 1.289 1.562.963 6.359-2.888l1.332-1.069-.669-.94c-.647-.908-.917-.963-2.18-.439-.377.156-1.494-1.121-4.599-5.259l-4.101-5.465.848-.623c.831-.609.838-.641.325-1.502-.814-1.366-1.434-1.205-4.764 1.234m-211.587 10.741c-8.804 6.509-8.556 6.217-6.398 7.559 1.978 1.23 1.81 1.241 3.606-.243.822-.679 1.646-1.145 1.831-1.036 2.082 1.232 5.492 3.56 5.489 3.748-.002.133-.208 1.007-.457 1.943-.521 1.959-.476 2.052 1.684 3.438 1.729 1.11 1.772 1.119 2.032.44.474-1.235 4.24-19.24 4.079-19.501-.362-.586-2.934-2.171-3.485-2.148-.312.013-4.084 2.623-8.381 5.8m197.5-1.419c-3.781 2.247-6.927 4.137-6.991 4.201-.166.166 1.505 2.957 1.77 2.955.122 0 .643-.253 1.159-.561.515-.308 1.597-.941 2.402-1.407l1.466-.847 3.936 6.553c4.613 7.678 4.094 7.19 6.257 5.896 2.11-1.262 2.419-.186-2.311-8.066l-4.029-6.714 2.174-1.289c2.934-1.74 2.879-1.654 2.128-3.352-.813-1.838.031-2.117-7.961 2.631m-190.156 1.007c0 .055-.198.793-.441 1.641-.242.847-.669 2.351-.947 3.342l-.507 1.802-1.889-1.283c-1.039-.705-1.799-1.375-1.689-1.489 1.211-1.247 5.473-4.372 5.473-4.013m9.37 1.786c-.796 1.56-.805 1.546 2.044 3.119 1.285.709 2.336 1.345 2.336 1.414 0 .068-1.134 2.259-2.52 4.868-1.385 2.609-3 5.699-3.587 6.866l-1.069 2.121 1.673.957c.92.526 1.817.957 1.993.957s1.894-2.988 3.819-6.641c1.924-3.652 3.609-6.756 3.743-6.898s1.386.316 2.78 1.018l2.536 1.275.941-1.299c1.233-1.702 1.477-1.49-6.434-5.568-7.632-3.933-7.398-3.87-8.255-2.189m164.693 5.732c-4.78 2.024-5.625 2.477-5.625 3.012 0 .715 7.681 16.983 8.081 17.117.34.113 3.347-1.34 3.591-1.735.085-.137-.397-1.424-1.071-2.859-1.508-3.207-1.536-2.901.353-3.785 8.819-4.131 3.64-15.548-5.329-11.75m-145.465 3.202c-.594 1.422-.631 1.27.444 1.826l.918.475-2.545 6.254-2.544 6.255-.981-.184c-.873-.164-1.024-.08-1.377.773-.602 1.453-.346 1.691 3.317 3.101 3.988 1.535 4.094 1.547 4.49.504.477-1.253.368-1.69-.502-2.021-.443-.168-.76-.43-.703-.58 3.248-8.599 5.088-12.466 5.803-12.194 1.146.435 1.303.367 1.865-.813.655-1.372.732-1.309-3.738-3.076-4.383-1.733-3.872-1.696-4.447-.32m150.004.625c1.547 1.669 1.308 3.673-.575 4.821-1.772 1.08-2.027.813-4.218-4.43-.499-1.193 3.729-1.538 4.793-.391m-22.062 2.733c-6.353 1.713-8.441 7.621-5.116 14.474 2.302 4.744 6.487 6.558 11.091 4.809 10.618-4.034 4.978-22.236-5.975-19.283m-113.102 2.111c-3.874 1.545-4.184 6.9-.563 9.733 3.583 2.803 4.287 4.004 3.063 5.229-.929.928-2.192.767-4.877-.623-2.657-1.374-2.743-1.362-3.924.548l-.683 1.106.757.623c8.836 7.27 19.35-.804 10.801-8.294-3.376-2.958-3.667-3.542-2.233-4.481.997-.654 1.965-.425 4.34 1.025l1.838 1.122 1.041-1.216c1.341-1.567 1.323-1.807-.218-2.923-2.653-1.922-7.001-2.783-9.342-1.849m117.091 2.273c3.064 2.577 4.046 9.316 1.577 10.817-3.256 1.98-5.911.055-7.277-5.277-1.202-4.693 2.468-8.26 5.7-5.54m-31.078 2.825c-4.417.809-4.257.723-3.904 2.095.236.915.413 1.062 1.378 1.144l1.108.094 1.005 6.156c.553 3.386 1.071 6.389 1.152 6.675.107.379-.119.578-.838.736-.988.217-1.212 1.853-.37 2.696.293.293 7.598-.884 8.01-1.291.749-.738-.115-2.504-1.225-2.504-.594 0-1.08-.035-1.081-.078s-.494-2.89-1.094-6.328c-1.313-7.512-1.3-6.912-.154-7.141 1.256-.251 1.271-3.204.015-2.986-.094.017-1.896.346-4.002.732m-60.392.915c-.274.677-2.191 16.231-2.187 17.738.003.883.811 1.211 2.99 1.211 1.257 0 1.191.203 1.878-5.782.296-2.578.629-4.862.739-5.076.115-.224 1.589 2.033 3.469 5.312 3.967 6.917 4.134 7.108 6.235 7.108.991 0 1.636-.147 1.719-.391.299-.887 2.396-18.416 2.223-18.588-.309-.309-3.763-.695-4.01-.448-.126.126-.555 2.755-.953 5.843-.692 5.371-.745 5.581-1.219 4.834-.272-.43-1.938-3.289-3.701-6.355-1.763-3.065-3.361-5.621-3.552-5.678-1.628-.493-3.375-.362-3.631.272m43.113.937c-3.489.941-5.137 2.876-4.927 5.784.218 3.012 1.078 3.794 6.608 6.013 3.2 1.283 3.847 2.798 1.675 3.921-.926.479-1.435.481-5.832.029-.688-.071-.822.103-1.221 1.575-.558 2.063-.475 2.143 2.619 2.52 10.479 1.275 14.575-8.491 5-11.92-4.299-1.54-5.164-2.451-3.563-3.749.76-.616.999-.623 5.578-.147 1.06.11 2.268-2.778 1.421-3.398-1.216-.889-5.147-1.225-7.358-.628m-19.438.69c-.129.131-.234.762-.234 1.403 0 1.205.358 1.544 1.637 1.544.635 0 .644.09.444 4.453-.112 2.449-.204 5.543-.205 6.875l-.001 2.422h-.937c-.903 0-.938.052-.938 1.406v1.406h4.237 4.236l-.096-1.328c-.086-1.189-.186-1.339-.955-1.427l-.859-.099v-6.854-6.854h1.093c1.088 0 1.094-.008 1.094-1.407v-1.406h-2.769c-1.523 0-3.386-.084-4.141-.186-.754-.102-1.477-.079-1.606.052m-5.234 34.978c.934.945 1.768 1.719 1.854 1.719s-.608-.774-1.541-1.719c-.934-.946-1.768-1.719-1.854-1.719s.607.773 1.541 1.719m22.181 1.328-2.962 3.047 3.047-2.963c1.675-1.629 3.047-3 3.047-3.047 0-.226-.38.133-3.132 2.963" fill="#fff"/><path d="m199.543 1.231c-.472.764-9.061 6.141-12.45 7.795-24.31 11.862-53.165 10.415-76.926-3.857-2.744-1.648-5.135-2.934-5.313-2.858-.177.076-5.456 4.809-11.729 10.518-16.193 14.735-23.336 21.21-25.312 22.948-.946.831-3.055 2.735-4.688 4.232s-6.273 5.714-10.312 9.371c-4.04 3.657-8.129 7.389-9.088 8.293l-1.743 1.645 5.819 5.888c15.204 15.384 23.137 28.855 23.136 39.287-.001 11.561-2.049 20.786-9.687 43.632-5.885 17.6-7.226 22.548-9.037 33.35-1.252 7.467-2.213 18.445-2.213 25.275v3.167l-2.119-.152-2.119-.152-6.709 3.045c-3.69 1.674-9.311 4.206-12.49 5.626-7.621 3.403-14.34 6.426-16.974 7.637-6.488 2.982-8.125 9.089-4.47 16.675 2.649 5.498 3.786 5.469 15.75-.391 1.424-.697 2.638-1.268 2.698-1.267.159 0 1.602 3.02 2.317 4.85l.613 1.57-11.295 4.339c-15.476 5.944-14.413 5.358-13.5 7.433.248.564.829 2.011 1.29 3.214 27.899 72.809 100.631 126.444 179.47 132.349l4.181.313 6.444 6.56c3.544 3.609 6.637 6.561 6.872 6.56s3.328-2.947 6.875-6.547l6.447-6.546 5.782-.492c67.865-5.772 128.827-44.309 163.781-103.537 5.395-9.14 11.116-20.986 15.036-31.133 1.185-3.069 2.582-2.164-12.056-7.805-7.014-2.703-12.074-4.818-12.074-5.046 0-.557 1.669-4.589 2.233-5.394l.472-.674 2.319 1.119c12.29 5.926 13.159 5.987 15.702 1.096 4.448-8.552 2.621-14.294-5.726-17.997-1.461-.648-3.219-1.436-3.906-1.751-.688-.315-3.36-1.511-5.938-2.657s-9.173-4.124-14.656-6.618l-9.969-4.534-2.109.151-2.109.151-.197-5.19c-.793-20.898-2.958-31.925-10.96-55.816-11.061-33.022-12.444-45.319-6.481-57.609 4.168-8.591 11.193-17.841 20.41-26.875l5.212-5.108-5.508-5.011c-3.029-2.756-6.844-6.23-8.476-7.719-1.633-1.49-4.375-3.966-6.094-5.504-3.287-2.94-8.664-7.817-29.784-27.017-7.09-6.446-13.008-11.76-13.151-11.809s-2.143 1.059-4.444 2.463c-27.881 17.011-62.203 16.337-87.721-1.725-3.159-2.236-3.064-2.185-3.326-1.761m4.35 5.623c25.444 16.666 62.326 16.83 87.408.389l3.332-2.185 29.878 27.223 29.877 27.223-4.576 4.534c-10.49 10.392-18.968 22.52-21.795 31.177-3.562 10.91-1.006 27.52 8.271 53.744 16.257 45.952 14.773 86.972-4.169 115.26-27.815 41.537-64.992 66.138-109.769 72.638l-4.369.634-8.99 8.987-8.991 8.987-8.991-8.987-8.99-8.987-4.369-.634c-44.463-6.454-81.89-31.003-109.056-71.531-14.766-22.029-19.253-49.502-13.731-84.076 1.551-9.714 3.78-17.929 8.434-31.094 10.709-30.29 12.703-45.996 7.387-58.195-3.695-8.482-11.799-19.478-21.033-28.539l-3.997-3.922 29.403-26.859c16.172-14.773 29.638-26.975 29.925-27.115.378-.185 1.417.312 3.754 1.794 14.763 9.36 34.269 13.745 52.241 11.744 13.446-1.498 24.728-5.405 34.943-12.103 4.691-3.076 3.466-3.059 7.973-.107m-5.143 4.584c-23.357 16.717-64.253 17.543-90.403 1.827-2.405-1.446-2.443-1.456-3.106-.88-1.951 1.7-49.359 44.781-50.53 45.919l-1.382 1.344 3.467 3.606c15.069 15.675 21.82 28.812 21.776 42.371-.047 14.338-1.626 20.936-12.787 53.438-5.918 17.232-8.946 40.069-7.647 57.656 1.799 24.328 9.053 40.848 27.516 62.662 24.405 28.835 57.681 47.566 92.94 52.315 2.062.278 4.242.583 4.844.679.921.145 2.314 1.389 8.828 7.875l7.734 7.703 2.422-2.334c1.332-1.283 4.892-4.768 7.912-7.744l5.49-5.412 4.371-.583c43.752-5.838 80.838-30.177 107.619-70.63 13.706-20.703 17.738-50.244 11.367-83.281-1.761-9.133-3.054-13.524-9.015-30.625-9.325-26.756-11.168-43.849-6.092-56.513 3.177-7.927 10.283-18.219 19.012-27.534l3.499-3.735-1.339-1.299c-2.08-2.017-50.354-45.915-50.782-46.178-.222-.137-1.712.545-3.608 1.651-26.012 15.173-64.155 14.423-88.695-1.744-2.419-1.594-2.043-1.533-3.411-.554m2.719 22.924c1.308.798 2.013 2.211 1.927 3.864-.074 1.442 30.688 66.768 31.853 67.642.293.22 1.572 1.134 2.842 2.031 5.069 3.581 5.757 7.522 1.756 10.051l-1.409.891-.079 28.626c-.043 15.745-.078 33.525-.078 39.511v10.885l.839.611c1.529 1.113 1.67 2.143 1.571 11.526-.124 11.886-.272 12.259-4.935 12.454l-2.631.11v-2.337c0-3.233 4.969-1.109-41.094-17.567-16.672-5.957-30.64-11.042-31.041-11.301-1.406-.906-1.615-2.086-1.61-9.083.005-7.208.147-7.868 1.796-8.356l1.012-.299v-26.977c0-25.41-.032-26.987-.547-27.169-5.324-1.875-4.266-8.522 1.968-12.372 1.663-1.027 32.446-65.755 32.507-68.353.06-2.546.125-2.758 1.187-3.884 1.237-1.312 2.575-1.474 4.166-.504m-92.512 12.885c-.359 3.036-2.631 6.598-4.969 7.791l-1.264.645.209-1.573c.391-2.948 2.116-5.962 4.329-7.565 1.749-1.267 1.92-1.196 1.695.702m28.143-.712c2.734 1.98 5.761 8.778 3.909 8.778-1.874 0-5.285-4.854-5.608-7.979-.205-1.986-.044-2.061 1.699-.799m127.503.752c-.324 3.141-3.7 8.026-5.548 8.026-1.915 0 1.03-6.673 3.868-8.759 1.722-1.267 1.88-1.198 1.68.733m28.13-.746c2.342 1.696 4.009 4.59 4.362 7.569l.191 1.61-1.34-.75c-2.43-1.363-4.545-4.692-4.903-7.723-.225-1.897-.053-1.969 1.69-.706m-191.824.281c1.288 2.407 1.058 7.764-.44 10.234l-.742 1.225-.562-1.25c-1.496-3.329.179-13.134 1.744-10.209m44.309 1.562c.846 2.192.778 6.968-.123 8.647l-.671 1.25-.884-1.875c-.779-1.652-.883-2.228-.878-4.843.011-5.112 1.227-6.624 2.556-3.179m112.01.2c.568 2.098.199 5.687-.804 7.828l-.875 1.869-.629-1.396c-1.217-2.706-.918-7.659.604-9.982.612-.933 1.138-.414 1.704 1.681m43.438-.85c.972 1.962 1.069 7.3.17 9.297l-.563 1.25-.742-1.224c-1.454-2.399-1.681-6.884-.502-9.948.464-1.205.793-1.079 1.637.625m-101.676 1.329c-.592 1.289-6.513 13.956-13.158 28.149s-12.082 25.88-12.082 25.971 1.23-.089 2.734-.399c13.187-2.72 31.962-2.771 46.954-.128 3.324.586 3.213.593 2.804-.171-.557-1.041-6.357-2.67-12.804-3.598-3.952-.568-4.063-.602-4.063-1.243 0-.989 4.696-.849 11.677.35 3.437.59 3.364.692 1.839-2.585-1.151-2.472-1.38-2.762-2.47-3.14-1.853-.642-7.588-1.584-12.711-2.089-4.565-.449-5.914-.853-5.206-1.557.402-.402 9.46-.359 14.059.066 3.606.333 3.363.594 2.128-2.281-1.339-3.117-3.371-4.1-9.696-4.692-5.638-.527-4.286-2.028 1.828-2.028 4.843 0 4.728.083 3.452-2.513-1.191-2.419-1.765-2.687-6.772-3.162-5.482-.52-5.454-1.506.049-1.73 4.633-.188 4.463-.104 3.642-1.794-.891-1.833-1.804-2.12-9.103-2.856-3.474-.35-2.304-1.17 2.195-1.539 4.668-.383 4.709-.417 3.534-2.901-.815-1.725-1.02-1.943-1.826-1.943-1.862 0-3.806-.403-3.806-.79 0-.398 2.127-1.397 2.975-1.397.596 0 .583-.352-.065-1.709l-.526-1.104h-2.851c-4.776 0-5.215-1.279-.629-1.831 2.64-.318 2.596-.046.662-4.134l-1.687-3.566zm-101.154 6.975c1.354 3.106 1.095 10.101-.327 8.814-1.128-1.021-1.985-3.617-2.131-6.456-.261-5.072.821-6.11 2.458-2.358m51.165.879c.169 2.928-.308 5.061-1.577 7.048l-.961 1.504-.454-1.094c-1.062-2.554-.25-7.872 1.552-10.162.902-1.147 1.255-.483 1.44 2.704m104.955.185c.679 2.265.706 6.15.053 7.39l-.474.898-.715-1.005c-1.634-2.294-2.354-6.959-1.509-9.778l.374-1.247.865.969c.476.533 1.109 1.781 1.406 2.773m50.731-1.009c.669 4.11-2.091 11.296-3.076 8.009-.858-2.866-.255-7.033 1.374-9.495.991-1.498 1.254-1.268 1.702 1.486m-197.665.235c-.762 2.579-3.73 5.341-6.475 6.026-2.385.594.983-4.624 3.924-6.08 1.816-.899 2.826-.877 2.551.054m32.692-.064c2.404 1.226 5.687 5.314 4.901 6.101-.847.846-5.17-2.032-6.479-4.315-1.475-2.572-1.005-3.104 1.578-1.786m123.096-.248c-.018 2.329-6.174 7.599-7.42 6.353-.298-.298 1.007-2.784 2.138-4.072 1.626-1.852 5.29-3.434 5.282-2.281m32.337.054c2.127.888 5.166 4.454 5.166 6.06 0 1.593-5.503-1.947-6.711-4.317-1.148-2.255-.751-2.703 1.545-1.743m-201.779 4.412c2.522 2.159 5.162 10.425 2.951 9.242-2.173-1.162-4.356-5.158-4.675-8.552-.198-2.115-.022-2.185 1.724-.69m59.29 1.331c-.575 3.837-4.461 9.514-5.198 7.593-.752-1.962 1.043-6.648 3.369-8.791 1.706-1.573 2.197-1.252 1.829 1.198m96.452-1.266c2.234 2.015 4.534 8.122 3.462 9.193-1.047 1.047-4.8-4.699-5.209-7.976-.339-2.709-.095-2.878 1.747-1.217m59.246.625c-.319 3.394-2.502 7.39-4.675 8.552-2.155 1.154.384-6.962 2.885-9.222 1.744-1.575 1.992-1.482 1.79.67m-205.649 3.575c-.336 2.839-3.383 7.441-4.928 7.441-1.281 0 .622-5.257 2.71-7.49 1.96-2.095 2.471-2.084 2.218.049m40.671-.545c2.868 2.591 4.769 8.954 2.228 7.458-1.883-1.109-3.687-4.234-3.958-6.856-.208-2.015.062-2.109 1.73-.602m115.059.251c0 2.347-2.384 6.357-4.43 7.452-2.003 1.072.21-5.53 2.568-7.66 1.594-1.44 1.863-1.41 1.862.208m40.782-.045c2.098 1.934 4.077 6.938 3.006 7.6-1.157.715-4.586-4.332-4.932-7.261-.239-2.01.056-2.062 1.926-.339m-205.088 5.503c2.193 1.483 5.386 7.239 4.504 8.12-.992.992-5.731-3.938-6.601-6.868-.813-2.74-.436-2.965 2.097-1.252m57.636 2.415c-1.189 2.597-5.271 6.462-6.027 5.706-1.133-1.134 2.647-7.321 5.269-8.623l1.335-.663.098.945c.056.534-.238 1.681-.675 2.635m99.212-1.377c1.932 1.932 3.989 6.374 3.281 7.083-.737.737-4.803-3.038-5.958-5.532-1.793-3.872-.433-4.661 2.677-1.551m57.277-1.027c-.527 2.942-3.066 6.49-5.481 7.66-1.351.654-1.518.497-1.165-1.096.658-2.971 3.104-6.297 5.348-7.272 1.454-.632 1.53-.59 1.298.708m-205.4 5.391c.853 2.168.969 6.529.212 7.948l-.49.917-.96-1.682c-1.656-2.9-2.137-7.545-1.001-9.668l.397-.743.583.755c.321.414.887 1.527 1.259 2.473m41.216-1.047c.587 2.827-.293 7.273-1.76 8.894-2.237 2.471-2.185-6.408.057-9.812.963-1.462 1.24-1.313 1.703.918m114.376.678c1.099 2.936 1.086 8.806-.019 8.806-1.187 0-2.604-4.003-2.6-7.344.005-4.669 1.175-5.322 2.619-1.462m41.226-1.261c.744 2.68.188 6.304-1.377 8.975l-.883 1.506-.482-.91c-1.09-2.058-.551-6.879 1.089-9.746.867-1.515 1.193-1.481 1.653.175m-205.143 3.422c1.721.601 5.222 3.762 5.542 5.004.609 2.364-6.028-.413-8.219-3.438-1.593-2.199-.674-2.736 2.677-1.566m58.907-.291c0 .729-2.007 3.246-3.293 4.131-1.974 1.358-6.082 2.5-6.082 1.691 0-1.418 3.435-4.711 5.831-5.59 1.319-.483 3.544-.629 3.544-.232m96.941.382c2.29.878 5.559 4.023 5.559 5.348 0 .957-4.168-.246-6.333-1.828-1.257-.919-3.042-3.235-3.042-3.947 0-.431 2.229-.181 3.816.427m58.684-.212c0 1.401-3.071 4.262-5.61 5.227-3.844 1.46-4.485.105-1.369-2.896 2.137-2.059 6.979-3.676 6.979-2.331m-203.032 6.826c2.169 2.281 4.234 9.003 2.765 9.003-1.695 0-4.498-4.898-4.684-8.183-.145-2.568.14-2.69 1.919-.82m34.282.242c0 2.831-1.837 6.773-3.809 8.177-2.896 2.062-.895-6.129 2.15-8.803 1.436-1.26 1.659-1.177 1.659.626m121.021-.636c1.929 1.694 4.001 6.769 3.53 8.646-.683 2.72-4.809-3.251-5.105-7.387-.178-2.485.009-2.634 1.575-1.259m34.705-.249c.512 1.96-1.056 6.188-3.079 8.299-1.829 1.909-2.118 1.796-1.974-.769.221-3.899 4.381-10.1 5.053-7.53m-196.897 1.557c2.188 1.111 4.921 3.893 4.921 5.011 0 .432-2.431.302-3.616-.193-2.574-1.075-6.127-4.631-5.554-5.558.282-.458 2.727-.032 4.249.74m50.233-.646c0 2.108-4.439 5.557-7.534 5.855-1.852.178-1.959-.182-.609-2.046 1.867-2.577 8.143-5.512 8.143-3.809m104.129.098c2.621.789 6.184 3.924 6.184 5.442 0 1.589-5.254-.501-7.536-2.998-2.397-2.623-1.947-3.437 1.352-2.444m51.626-.156c.553.895-3.058 4.47-5.577 5.522-1.103.461-3.615.636-3.615.251 0-2.575 8.046-7.628 9.192-5.773m-200.572 7.594c4.297 1.875 4.091 3.386-.46 3.386-2.889 0-7.116-2.035-6.453-3.106.586-.949 4.974-1.126 6.913-.28m9.804.254c3.318 1.693 6.294 5.949 4.154 5.941-2.654-.009-7.891-4.213-7.891-6.333 0-.767 1.844-.573 3.737.392m19.388-.606c0 .769-1.304 2.777-2.512 3.868-2.089 1.887-6.238 3.477-6.238 2.39 0-1.376 2.511-4.381 4.517-5.406 2.156-1.101 4.233-1.519 4.233-.852m12.311.268.905.364-.749.802c-1.79 1.918-6.97 3.029-8.994 1.928-3.102-1.685 5.153-4.575 8.838-3.094m113.238-.171c1.756.455 4.139 1.924 4.139 2.552 0 2.071-7.465 1.132-9.655-1.215l-.749-.802.749-.277c.411-.153.959-.357 1.217-.454.84-.316 2.643-.234 4.299.196m10.974.652c2.187 1.109 4.727 4.069 4.727 5.509 0 1.935-6.743-1.998-8.148-4.752-1.09-2.137.153-2.413 3.421-.757m19.102-.495c0 2.051-4.541 5.814-7.495 6.211-3.403.456 1.274-5.271 5.305-6.498 1.431-.435 2.19-.336 2.19.287m11.629-.253c2.161.6 1.887 1.305-1.085 2.79-2.075 1.038-5.338 1.312-6.936.584-2.934-1.336 4.34-4.396 8.021-3.374m-188.873 4.843c1.877.557 1.949.748.689 1.808-1.958 1.648-6.553 2.198-8.701 1.043-2.914-1.567 4.023-4.036 8.012-2.851m26.821.622c3.228 1.578 2.272 2.76-2.255 2.789-3.676.024-7.503-2.323-5.227-3.206 2.292-.889 5.133-.73 7.482.417m129.609-.436c1.039.473 1.023.664-.138 1.641-2.256 1.898-8.451 2.229-9.514.508-1.009-1.632 6.915-3.396 9.652-2.149m25.804.296c2.412 1.038 2.818 1.669 1.522 2.366-2.25 1.21-7.325.498-8.975-1.259-1.744-1.855 3.799-2.679 7.453-1.107m-173.72 2.513 1.543.663 1.628-.7c2.946-1.267 7.409-.348 9.573 1.972l.732.786-.732.398c-2.036 1.108-7.001.031-8.874-1.924-.655-.684-.972-.826-1.277-.572-.316.262-.008.636 1.386 1.685.986.741 2.378 2.041 3.092 2.888l1.299 1.54-.775 1.3c-1.008 1.691-1.007 1.692-2.404-1.03-1.239-2.413-3.171-5.169-3.625-5.169-.438 0-2.711 3.151-4.025 5.581l-1.244 2.301-.841-1.435-.84-1.435.624-.865c.83-1.15 2.712-2.913 4.347-4.073 1.047-.743 1.238-1.012.912-1.283-.314-.261-.621-.126-1.284.567-1.878 1.96-6.839 3.031-8.884 1.919l-.743-.405.914-.914c2.228-2.228 6.58-3.05 9.498-1.795m155.625 0 1.543.663 1.542-.663c2.884-1.241 6.959-.509 9.346 1.679l1.103 1.011-.761.414c-2.064 1.122-7.016.06-8.903-1.909-.657-.686-.971-.826-1.278-.571-.318.263-.013.63 1.381 1.661 4.064 3.008 4.826 4.301 3.615 6.131l-.83 1.255-.967-1.883c-1.155-2.248-3.792-5.951-4.238-5.951-.472 0-2.345 2.663-3.679 5.233-1.359 2.618-1.371 2.624-2.238 1.155-1.014-1.718-.152-3.195 3.439-5.894 1.418-1.066 1.733-1.446 1.417-1.708-.305-.254-.622-.112-1.277.572-1.891 1.973-6.839 3.031-8.91 1.904l-.77-.418 1.299-1.152c2.415-2.144 6.25-2.783 9.166-1.529m-81.739 6.707c-15.039 1.132-27.488 3.351-29.823 5.316-1.069.9-1.211 1.813-.452 2.897.653.933 1.513.843 7.932-.83 18.325-4.775 44.691-4.045 59.829 1.658 3.197 1.204 4.919-.234 3.054-2.551-3.037-3.774-26.572-7.541-40.54-6.49m-4.218 8.753c-.774.066-3.235.268-5.469.449-7.686.621-14.278 1.842-15.983 2.96l-.72.471.179 26.327c.1 14.602.31 26.846.472 27.493.542 2.166 3.409 4.196 9.177 6.497 10.224 4.08 35.335 12.417 49.844 16.548 2.492.709 4.777 1.362 5.078 1.451.501.147.547-.181.547-3.911v-4.072l-1.172-.31c-2.76-.731-4.223-1.006-8.312-1.562-4.459-.606-5.122-.852-4.768-1.772.273-.714 6.466-.437 10.814.483 1.633.346 3.074.631 3.203.633s.235-1.185.235-2.639v-2.642l-2.51-.793c-3.992-1.261-9.084-2.049-14.629-2.263-5.354-.206-6.284-.507-4.865-1.574 1.116-.84 14.479-.364 18.508.659 1.772.45 3.284.819 3.359.819s.137-1.264.137-2.809v-2.808l-1.172-.498c-2.165-.92-5.651-1.663-9.597-2.046-3.349-.325-3.919-.458-3.919-.917 0-1.031 4.162-1.219 10.625-.482 4.191.479 3.965.598 3.817-2.023l-.115-2.051-2.242-.873c-4.491-1.75-14.289-3.468-21.772-3.819-4.633-.217-5.612-.469-4.944-1.274.909-1.095 15.294-.123 24.315 1.644 2.15.421 4.086.766 4.3.767.274.001.391-.629.391-2.11v-2.111l-1.797-.692c-8.329-3.209-19.081-4.544-36.949-4.587-11.365-.027-12.661-.081-12.749-.533-.253-1.314 6.558-1.968 20.558-1.976 10.618-.006 12.504.158 23.399 2.04 3.029.524 5.964 1.031 6.522 1.127l1.016.175v-1.723-1.722l-2.266-1.106c-3.699-1.806-7.84-2.84-14.04-3.505-2.092-.224-2.863-.842-1.776-1.424 1.101-.59 7.216-.126 12.613.956 5.934 1.189 5.469 1.242 5.469-.614 0-1.485-.053-1.583-1.172-2.145-3.792-1.903-13.922-3.951-22.812-4.611l-2.891-.215v1.079c0 2.17-.069 2.191-7.187 2.191-7.119 0-7.188-.021-7.188-2.192v-1.08l-3.984.218c-2.192.119-6.024.421-8.516.67s-4.566.452-4.609.453c-.478.004.088-1.223.625-1.354.951-.234 11.433-1.692 14.062-1.957l2.11-.212v-1.621c0-.891-.152-4.195-.338-7.343-.302-5.136-.285-5.774.168-6.227.828-.828 14.521-.749 15.447.089.553.501 1.43.638 5.58.872 2.708.154 8.191.695 12.185 1.204 3.993.508 7.481.925 7.751.925.394 0 .471-.32.395-1.641l-.095-1.64-1.784-.707c-5.301-2.099-29.911-3.928-40.559-3.014m7.03 6.588-2.502.124.409 7.41c.225 4.076.467 7.587.539 7.801.094.285 1.189.391 4.045.391h3.916l.021-1.016c.012-.558.198-4.039.413-7.734s.36-6.764.321-6.819c-.128-.183-4.629-.282-7.162-.157m9.343 5.943-.28 5.929 5.217.376c6.6.476 17.098 2.029 20.657 3.055.509.147.552-.05.469-2.121l-.093-2.282-1.25-.713c-2.67-1.522-6.931-2.537-12.89-3.071-1.925-.173-2.266-.291-2.266-.783 0-1.237 5.605-1.042 12.952.451l3.64.74-.093-1.572c-.09-1.525-.131-1.586-1.343-2.015-3.714-1.317-15.184-3.321-21.282-3.718l-3.158-.206zm-37.865 57.983.085 6.012 3.594 1.299c1.977.714 3.699 1.235 3.828 1.157.598-.363.259-11.633-.359-11.964-.771-.412-6.582-2.516-6.951-2.516-.16 0-.245 2.583-.197 6.012m11.492 3.936c0 3.273.117 6.025.261 6.114.143.088 1.831.721 3.75 1.406l3.489 1.244v-6.037-6.037l-3.204-1.109c-1.761-.61-3.449-1.205-3.75-1.321-.509-.198-.546.198-.546 5.74m11.321 4.154.085 5.977 3.281 1.192c4.848 1.761 4.403 2.253 4.304-4.76l-.085-5.988-3.584-1.199c-1.97-.66-3.696-1.199-3.834-1.199-.139 0-.214 2.689-.167 5.977m11.562 3.87.085 6.169 3.282 1.192c1.804.656 3.457 1.2 3.671 1.211.3.014.391-1.42.391-6.179v-6.197l-3.275-.998c-1.801-.549-3.492-1.081-3.757-1.183-.425-.163-.472.534-.397 5.985m11.179 3.708c0 7.032-.402 6.279 4.157 7.791 4.053 1.344 3.691 1.919 3.584-5.71l-.085-6.063-3.281-1.031c-4.843-1.521-4.375-2.057-4.375 5.013m11.403-2.252c-.092.238-.129 3.154-.082 6.48l.085 6.046 3.282 1.192c4.865 1.767 4.401 2.351 4.303-5.412l-.085-6.641-2.585-.846c-3.569-1.169-4.711-1.359-4.918-.819m-176.07 13.395c.845.452.9 2.988.058 2.647-2.425-.983-3.508-.95-5.334.164-2.676 1.632-3.496 7.079-1.799 11.95 1.324 3.797 1.834 3.294-7.61 7.496-9.609 4.276-8.698 3.708-7.851 4.897 2.021 2.839 3.511 7.03 2.594 7.294-.301.087-.769.25-1.04.362-.383.159-.679-.27-1.33-1.931-.923-2.351-2.9-5.702-3.365-5.702-.163 0-3.473 1.421-7.356 3.158-8.223 3.679-7.861 3.67-9.582.235-2.925-5.834-2.661-10.748.72-13.421.906-.717 31.65-15.032 36.25-16.879 1.553-.623 4.703-.774 5.645-.27m317.48 5.358c6.617 3.025 14.737 6.735 18.044 8.247 8.219 3.755 9.393 4.869 9.688 9.197.222 3.255-2.344 9.948-4.017 10.479-.295.094-3.65-1.217-7.597-2.968-3.887-1.725-7.195-3.136-7.35-3.136-.454 0-2.441 3.381-3.352 5.702-.651 1.661-.947 2.09-1.33 1.931-.271-.112-.749-.278-1.063-.368-.868-.248.694-4.587 2.632-7.308.833-1.171 1.698-.634-7.877-4.888-9.45-4.197-8.905-3.649-7.581-7.632 2.095-6.303.408-11.819-3.862-12.626-.907-.172-1.565-.04-3.289.659-.468.19-.546.036-.546-1.072 0-3.522 2.879-2.9 17.5 3.783m-7.012-.122c.642 1.469.5 6.765-.248 9.312l-.743 2.528 15.416 6.782c8.479 3.73 15.537 6.707 15.686 6.616.664-.411 1.993-4.515 2.136-6.6.264-3.842-.382-4.505-7.579-7.784-2.578-1.174-9.236-4.217-14.794-6.761-6.666-3.052-10.028-4.445-9.874-4.093m-335.426 6.465c-15.864 7.318-15.755 7.261-16.659 8.696-1.14 1.808-.116 8.215 1.601 10.021.45.473 31.296-13.299 31.045-13.861-1.154-2.592-1.729-8.26-1.071-10.554.409-1.429 1.119-1.7-14.916 5.698m101.553 2.542c-.193 1.095-1.895 7.067-2.062 7.234-.091.091-.791-.41-1.554-1.114-1.938-1.786-3.965-2.323-8.7-2.307-2.054.008-3.79.069-3.858.137-.068.069-.218 3.032-.332 6.585l-.209 6.461 4.972-.019c2.734-.011 6.026-.132 7.315-.268 2.98-.317 2.986-.308 2.155 2.862l-.697 2.659-6.851-.163-6.85-.163.106 6.53c.153 9.447.577 9.969 8.075 9.967 4.565-.001 6.303-.492 8.986-2.539 2.144-1.635 2.345-.799.981 4.075l-.969 3.465-13.635-.099c-7.499-.055-13.663-.127-13.697-.161s.102-1.185.301-2.557c.239-1.643.365-8.204.369-19.214.007-15.876-.12-18.789-.94-21.562-.121-.413 1.516-.465 13.53-.434 13.21.035 13.664.056 13.564.625m97.944 5.668c-.112 1.504-.287 3.632-.391 4.73l-.188 1.995 4.996-.144 4.997-.144-.645 2.448-.645 2.449-4.232-.081-4.233-.081-.083 8.574c-.126 13.006 1.15 15.206 7.498 12.931 1.927-.691 2.033-.516 1.35 2.227l-.575 2.308-2.064.522c-6.827 1.727-11.532.487-13.419-3.537l-.832-1.775-.184-10.625c-.101-5.844-.207-10.672-.234-10.73-.028-.058-1.12-.005-2.428.118l-2.377.223.23-1.049c.127-.577.394-1.614.593-2.306l.363-1.256 1.966-.094 1.966-.094-.089-2.815-.089-2.815 2.485-1.023c1.367-.563 3.189-1.392 4.048-1.843 2.433-1.275 2.449-1.262 2.216 1.887m-48.758 6.043c5.831 1.068 9.271 5.274 9.328 11.407.039 4.187.824 3.878-9.855 3.878h-9.024l.003 1.172c.026 8.106 8.63 13.275 15.865 9.531 2.647-1.37 2.703-1.298 1.743 2.245-.657 2.422-.751 2.51-3.549 3.307-12.945 3.688-22.812-2.937-22.812-15.317 0-11.027 7.992-18.112 18.301-16.223m33.03.051c.471.358.436.661-.417 3.672-.512 1.804-1.073 3.808-1.247 4.453-.387 1.432-.745 1.461-2.08.168-2.295-2.225-6.171-.347-7.282 3.529-.499 1.737-.372 14.452.169 17.006.255 1.203.463 2.284.463 2.402s-2.253.217-5.007.218l-5.007.003.241-2.093c.466-4.038.262-24.366-.267-26.702l-.479-2.109h1.462c.803 0 2.743-.092 4.311-.203l2.85-.202.088 3.535.089 3.536 1.972-2.55c3.402-4.401 7.818-6.431 10.141-4.663m47.676.084c8.341 1.967 12.55 9.713 10.522 19.369-3.423 16.306-28.13 17.824-31.871 1.959-3.256-13.811 7.53-24.586 21.349-21.328m38.665.376c4.118 2.15 4.559 3.633 4.856 16.337.172 7.371.372 10.756.729 12.343.271 1.203.493 2.212.493 2.242s-2.324.057-5.163.059l-5.163.003.241-2.089c.566-4.911.292-20.129-.384-21.276-2.439-4.141-9.986-2.657-11.479 2.257-.578 1.903-.425 14.862.215 18.179.265 1.375.482 2.596.482 2.712 0 .117-2.254.212-5.009.212h-5.01l.244-2.868c.478-5.623.262-23.24-.318-25.816-.626-2.787-1.251-2.402 4.234-2.614l4.61-.179v2.674 2.674l1.64-1.383c5.104-4.304 10.676-5.61 14.782-3.467m-156.913.165c.08.386.301 1.672.491 2.856.307 1.91 2.273 9.084 4.586 16.727l.796 2.631 2.908-7.646c2.834-7.452 3.897-11.173 3.897-13.648v-1.215l4.282-.193c5.128-.232 4.818-.463 3.046 2.276-1.721 2.66-2.618 4.57-7.464 15.893-2.01 4.698-3.909 9.541-4.22 10.764l-.564 2.222-3.787.084-3.787.083-.191-.847c-.586-2.605-1.022-4.073-3.454-11.628-3.365-10.449-4.754-14.017-6.478-16.642l-1.373-2.09 4.104-.097c2.258-.053 4.77-.128 5.583-.165 1.308-.061 1.495.012 1.625.635m-85.646 1.667c1.235.474 4.454 5.979 3.85 6.583-.315.315-2.983-1.762-3.867-3.011-.483-.683-1.052-1.245-1.265-1.248-.557-.01-4.431 1.574-4.627 1.891-.231.374 5.164 12.79 5.557 12.79.064 0 1.655-.561 3.536-1.247 4.106-1.495 4.063-1.492 4.668-.322.554 1.071.714.966-4.059 2.658-1.375.488-2.617.988-2.761 1.112-.143.124.747 2.024 1.977 4.222 27.511 49.149 76.173 80.463 132.077 84.992 2.435.197 2.595.258 3.736 1.426l1.191 1.221-1.235-.001c-7.61-.008-24.67-2.739-35.409-5.669-49.065-13.386-90.573-49.682-110.068-96.248-.89-2.125-1.67-3.922-1.735-3.994-.435-.483-37.284 14.234-37.103 14.818.543 1.75 4.261 10.065 6.847 15.313 32.606 66.163 98.229 110.227 171.759 115.33l3.026.21 5.805 5.62 5.806 5.62 5.763-5.618 5.763-5.617 3.062-.213c73.869-5.131 139.419-49.292 172.12-115.957 3.434-7.001 6.957-15.038 6.696-15.276-.186-.17-36.878-14.255-37.134-14.255-.118 0-.4.527-.628 1.171-10.501 29.755-38.678 62.662-69.555 81.233-22.774 13.697-55.02 23.533-77.153 23.533h-1.255l1.191-1.221c1.141-1.168 1.301-1.229 3.736-1.426 49.584-4.017 93.249-28.815 122.347-69.482 4.637-6.482 12.226-19.277 11.707-19.737-.144-.127-1.777-.764-3.629-1.415-3.883-1.364-3.763-1.265-3.086-2.532l.517-.969 3.281 1.2c1.805.661 3.531 1.283 3.835 1.384.456.15.851-.451 2.212-3.357 2.022-4.319 4.091-9.295 3.922-9.431-.947-.762-5.281-1.993-5.281-1.5 0 .466-2.992 3.401-3.996 3.92l-.97.502.585-1.702c.61-1.773 2.816-4.984 3.642-5.301 1.018-.39 2.174-.004 17.238 5.77 8.542 3.274 19.098 7.317 23.457 8.984s7.986 3.183 8.06 3.369c.442 1.11-9.646 22.484-14.59 30.913-34.754 59.248-95.555 97.819-163.536 103.744l-5.578.486-6.21 6.01c-3.415 3.305-6.339 6.01-6.498 6.01-.356 0-3.32-2.747-8.636-8.003l-4.062-4.016-3.906-.33c-79.614-6.711-147.366-56.016-177.955-129.502-2.425-5.825-2.467-5.4.652-6.575 1.352-.51 11.881-4.548 23.396-8.974 20.18-7.756 21.719-8.289 22.77-7.886m197.23.896c-.172.064-.688.199-1.148.3-6.095 1.339-6.991 20.012-1.163 24.234 6.897 4.995 12.8-4.405 10.457-16.652-1.024-5.351-4.892-9.093-8.146-7.882m-80.312.752c-1.896 1.171-2.818 2.865-3.164 5.812l-.206 1.752 4.341-.211c6.067-.295 6.98-.814 6.545-3.713-.51-3.402-4.653-5.408-7.516-3.64m-106.583 18.562c1.574 2.895 6.901 10.794 10.45 15.493 27.222 36.049 63.753 57.915 106.304 63.63 1.311.176 8.994 6.984 8.407 7.45-.464.367-12.917-1.295-19.672-2.625-40.973-8.072-77.294-31.679-101.814-66.176-4.205-5.916-11.352-17.644-10.957-17.981.115-.099 5.603-1.99 5.896-2.032.086-.013.71.996 1.386 2.241m279.158-1.195c3.305 1.093 3.283.646.296 5.839-27.035 47.012-73.95 76.867-128.731 81.917-1.59.147-1.63.211 2.344-3.742l3.516-3.497 4.32-.638c44.295-6.536 82.683-31.78 109.563-72.046 1.836-2.75 3.821-5.881 4.411-6.958.591-1.076 1.216-1.906 1.39-1.842.174.063 1.474.498 2.891.967m-296.373 12.957.813 1.494-2.664 6.649c-1.465 3.658-2.621 6.689-2.57 6.736.052.047 2.133-1.164 4.625-2.692 5.181-3.176 5.382-3.207 6.617-1.015l.907 1.608-8.02 4.892c-8.679 5.294-8.681 5.295-9.725 3.452-.981-1.733-1.006-1.609 1.797-8.626 1.383-3.461 2.47-6.336 2.415-6.391-.054-.054-2.134 1.154-4.623 2.684-5.271 3.241-5.195 3.225-6.345 1.404-1.282-2.029-1.389-1.923 7.243-7.174 8.645-5.259 8.361-5.169 9.53-3.021m318.634 2.703c9.888 5.408 9.033 4.717 8.005 6.471-1.416 2.417-1.219 2.428-6.023-.339-2.375-1.368-4.368-2.44-4.429-2.383s1.31 2.084 3.047 4.503c1.737 2.42 3.158 4.588 3.158 4.818 0 .808-1.504 2.097-2.258 1.936-1.368-.291-10.285-1.176-10.426-1.034-.079.078 1.703 1.316 3.96 2.749 4.744 3.014 4.653 2.891 3.509 4.786-1.148 1.899-.484 2.168-9.183-3.714-8.267-5.59-8.229-5.551-7.031-7.36.957-1.447.207-1.407 8.929-.472 3.695.397 6.766.68 6.825.631.059-.05-1.674-2.656-3.851-5.792-4.357-6.273-4.34-6.235-3.324-7.88.937-1.516.284-1.737 9.092 3.08m-171.533 13.189c3.97 2.011 4.179 6.889.409 9.547l-1.415.996.726.459c6.847 4.323 4.781 12.636-3.252 13.09-8.238.465-10.678-8.538-3.373-12.447.652-.349.628-.399-.764-1.624-5.966-5.251.474-13.666 7.669-10.021m-14.913 11.182c.026 6.182.168 11.486.315 11.787.242.493.059.547-1.875.547h-2.143v-10.078-10.079l-1.925.053c-1.059.028-2.231.216-2.605.416-.942.504-1.1.208-.664-1.248.317-1.057.508-1.253 1.222-1.26.466-.005 2.254-.34 3.972-.745 1.719-.405 3.244-.713 3.39-.685.146.029.286 5.11.313 11.292m47.625-10.754c3.837 1.858 4.147 6.765.592 9.381-1.719 1.265-1.712 1.144-.132 2.3 6.197 4.536 3.255 12.522-4.6 12.492-7.872-.031-9.787-7.953-2.988-12.361l.762-.494-1.358-1.225c-5.883-5.304.47-13.605 7.724-10.093m-11.381 1.104c.149.916.038 1.316-.564 2.032-.838.995-4.099 6.366-6.044 9.952-1.736 3.202-3.131 6.791-3.418 8.797l-.24 1.671-2.419.092c-3.163.119-3.399.866 3.363-10.671 3.18-5.424 5.782-9.955 5.782-10.067 0-.48-9.209.031-10.273.57-1.325.673-1.618.494-1.294-.786.141-.557.342-1.399.448-1.872l.193-.859h7.141 7.14zm-26.235-.078c-2.899 1.293-2.67 5.114.424 7.076l1.445.917.96-.733c4.233-3.233 1.851-9.347-2.829-7.26m-128.44 3.157c2.565 3.399 2.679 3.787 1.327 4.51-.748.4-.886.377-1.574-.269l-.753-.709-5.495 4.147c-5.009 3.779-5.453 4.192-5.026 4.663.662.732.581 1.448-.227 2.014-1.167.817-1.57.56-3.836-2.452-2.465-3.275-2.522-3.464-1.332-4.352l.855-.639.74.695.739.695 4.968-3.804c6.443-4.933 5.964-4.437 5.284-5.476-.558-.852-.556-.861.342-1.58 1.287-1.029 1.277-1.036 3.988 2.557m160.62-2.369c-2.411 1.47-1.991 4.84.836 6.711 1.566 1.036 1.623 1.03 3.109-.312 3.809-3.442.366-9.027-3.945-6.399m126.392 4.599c9.098 7.504 10.117 10.675 5.224 16.256-4.085 4.66-7.562 4.067-15.8-2.695-4.962-4.072-4.797-3.761-3.036-5.737l1.328-1.489 4.657 3.78c6.944 5.637 8.701 6.069 10.806 2.662 1.521-2.46.721-3.766-5.316-8.681-5.171-4.211-5.067-4.042-3.57-5.791 1.508-1.762 1.518-1.759 5.707 1.695m-159.569 6.668c-4.005 2.901-2.706 8.496 1.973 8.496 4.998 0 6.174-5.292 1.858-8.361-1.832-1.303-2.201-1.316-3.831-.135m32.732.397c-4.932 3.793-1.379 10.899 4.062 8.125 3.408-1.738 3.257-5.464-.323-7.952-2.058-1.432-2.1-1.434-3.739-.173m-151.855.701 1.378 1.405-.995 1.017c-.548.56-3.097 2.916-5.665 5.237-5.002 4.518-5.058 4.594-4.056 5.498.363.327 1.509 1.552 2.546 2.72l1.886 2.125-1.045 1.078c-.574.593-1.278 1.079-1.564 1.079-.754 0-8.486-8.384-8.189-8.879.412-.687 13.649-12.684 13.995-12.684.182 0 .951.632 1.709 1.404m267.062 12.555c7.495 7.236 7.183 6.747 5.302 8.319-1.792 1.498-1.332 1.705-5.603-2.512-2.045-2.02-3.617-3.391-3.493-3.047s1.003 2.766 1.954 5.383c1.817 5.005 1.851 5.363.587 6.191-.764.501-.947.454-5.993-1.544-2.863-1.134-5.345-2.061-5.517-2.061-.171 0 1.007 1.442 2.618 3.205s3.2 3.524 3.531 3.914l.603.709-1.213 1.242c-1.76 1.802-1.67 1.865-8.09-5.675-6.726-7.901-6.552-7.581-4.882-8.955l1.25-1.029 6.871 2.669c3.779 1.468 6.941 2.67 7.027 2.67s-.379-1.512-1.034-3.36c-.656-1.848-1.73-4.946-2.387-6.885l-1.195-3.525 1.051-1.084c1.508-1.556 1.297-1.687 8.613 5.375m-246.644 6.462c1.529.896 3.972 3.406 4.716 4.844l.51.988-1.476.936c-1.86 1.179-1.692 1.215-2.879-.617-1.582-2.441-3.606-3.503-4.662-2.447-.613.613-.448 1.308 1.031 4.347 4.675 9.605-4.664 14.004-11.852 5.583-1.78-2.085-1.786-2.536-.045-3.557 1.783-1.045 1.684-1.076 3.167 1.003 3.799 5.328 6.865 3.286 4.064-2.706-1.635-3.497-1.78-4.865-.718-6.764 1.477-2.64 5.148-3.366 8.144-1.61m221.716 4.678c.513.861.506.893-.325 1.502l-.848.623 4.101 5.465c3.105 4.138 4.222 5.415 4.599 5.259 1.263-.524 1.533-.469 2.18.439l.669.94-1.332 1.069c-4.797 3.851-5.515 4.177-6.359 2.888-.506-.772-.47-1.1.226-2.062.297-.411-.327-1.422-3.619-5.861l-3.978-5.364-.937.548c-.935.548-.938.547-1.69-.389-.998-1.242-1.02-1.208 2.549-3.823 3.33-2.439 3.95-2.6 4.764-1.234m-206.032 7.093c.752.517 1.448 1.071 1.547 1.23.161.261-3.605 18.266-4.079 19.501-.26.679-.303.67-2.032-.44-2.16-1.386-2.205-1.479-1.684-3.438.249-.936.455-1.81.457-1.943.003-.188-3.407-2.516-5.489-3.748-.185-.109-1.009.357-1.831 1.036-1.796 1.484-1.628 1.473-3.606.243-2.158-1.342-2.406-1.05 6.398-7.559 8.557-6.326 8.358-6.232 10.319-4.882m195.142.832c.751 1.698.806 1.612-2.128 3.352l-2.174 1.289 4.029 6.714c4.73 7.88 4.421 6.804 2.311 8.066-2.163 1.294-1.644 1.782-6.257-5.896l-3.936-6.553-1.466.847c-.805.466-1.887 1.099-2.402 1.407-.516.308-1.037.561-1.159.561-.265.002-1.936-2.789-1.77-2.955.275-.276 13.887-8.286 14.086-8.289.121-.003.511.653.866 1.457m-200.988 5.513c-1.321 1.062-2.492 2.025-2.602 2.138-.11.114.65.784 1.689 1.489l1.889 1.283.507-1.802c.278-.991.705-2.495.947-3.342.243-.848.441-1.586.441-1.641 0-.323-.733.155-2.871 1.875m20.496 2.1c7.911 4.078 7.667 3.866 6.434 5.568l-.941 1.299-2.536-1.275c-1.394-.702-2.646-1.16-2.78-1.018s-1.819 3.246-3.743 6.898c-1.925 3.653-3.643 6.641-3.819 6.641s-1.073-.431-1.993-.957l-1.673-.957 1.069-2.121c.587-1.167 2.202-4.257 3.587-6.866 1.386-2.609 2.52-4.8 2.52-4.868 0-.069-1.051-.705-2.336-1.414-2.849-1.573-2.84-1.559-2.044-3.119.857-1.681.623-1.744 8.255 2.189m163.57 3.734c4.29 3.108 3.348 9.146-1.803 11.559-1.889.884-1.861.578-.353 3.785.674 1.435 1.156 2.722 1.071 2.859-.244.395-3.251 1.848-3.591 1.735-.4-.134-8.081-16.402-8.081-17.117 0-.535.845-.988 5.625-3.012 2.624-1.111 5.438-1.036 7.132.191m-148.15 3.331c4.47 1.767 4.393 1.704 3.738 3.076-.562 1.18-.719 1.248-1.865.813-.715-.272-2.555 3.595-5.803 12.194-.057.15.26.412.703.58.87.331.979.768.502 2.021-.396 1.043-.502 1.031-4.49-.504-3.663-1.41-3.919-1.648-3.317-3.101.353-.853.504-.937 1.377-.773l.981.184 2.544-6.255 2.545-6.254-.918-.475c-1.075-.556-1.038-.404-.444-1.826.575-1.376.064-1.413 4.447.32m141.545-.013c-.483.262-.835.581-.781.709 2.191 5.243 2.446 5.51 4.218 4.43 3.696-2.254.382-7.209-3.437-5.139m-13.617 2.941c6.98 1.939 9.736 13.749 4.195 17.976-6.211 4.737-13.688.986-15.174-7.612-1.131-6.541 4.752-12.094 10.979-10.364m-111.174 2.505c3.965 1.483 4.785 2.635 3.199 4.488l-1.041 1.216-1.838-1.122c-2.375-1.45-3.343-1.679-4.34-1.025-1.434.939-1.143 1.523 2.233 4.481 8.549 7.49-1.965 15.564-10.801 8.294l-.757-.623.683-1.106c1.181-1.91 1.267-1.922 3.924-.548 2.685 1.39 3.948 1.551 4.877.623 1.224-1.225.52-2.426-3.063-5.229-6.234-4.877-.773-12.329 6.924-9.449m105.976 2.278c-3.104 3.103.482 12.197 4.464 11.322 3.675-.807 4.394-4.427 1.88-9.461-1.543-3.091-4.305-3.9-6.344-1.861m-21.775 2.15c.807.806.459 2.436-.562 2.64-1.146.229-1.159-.371.154 7.141.6 3.438 1.093 6.285 1.094 6.328s.487.078 1.081.078c1.11 0 1.974 1.766 1.225 2.504-.412.407-7.717 1.584-8.01 1.291-.842-.843-.618-2.479.37-2.696.719-.158.945-.357.838-.736-.081-.286-.599-3.289-1.152-6.675l-1.005-6.156-1.108-.094c-.965-.082-1.142-.229-1.378-1.144-.365-1.419-.543-1.355 7.906-2.827.095-.016.341.139.547.346m-61.31 1.029c.191.057 1.789 2.613 3.552 5.678 1.763 3.066 3.429 5.925 3.701 6.355.474.747.527.537 1.219-4.834.398-3.088.827-5.717.953-5.843.247-.247 3.701.139 4.01.448.173.172-1.924 17.701-2.223 18.588-.083.244-.728.391-1.719.391-2.101 0-2.268-.191-6.235-7.108-1.88-3.279-3.354-5.536-3.469-5.312-.11.214-.443 2.498-.739 5.076-.738 6.424-.611 6.242-3.888 5.586-1.226-.245-1.225.224-.023-9.961 1.207-10.219 1.185-10.177 4.861-9.064m44.373 1.124c2.906.506 3.11.731 2.394 2.638-.499 1.331-.691 1.541-1.348 1.473-4.579-.476-4.818-.469-5.578.147-1.601 1.298-.736 2.209 3.563 3.749 7.377 2.642 6.836 10.705-.803 11.948-1.802.293-6.48-.118-6.98-.613-.632-.625.541-3.597 1.385-3.51 4.397.452 4.906.45 5.832-.029 2.172-1.123 1.525-2.638-1.675-3.921-5.53-2.219-6.39-3.001-6.608-6.013-.312-4.31 3.993-6.883 9.818-5.869m-18.582.909h2.769v1.406c0 1.399-.006 1.407-1.094 1.407h-1.093v6.854 6.854l.859.099c.769.088.869.238.955 1.427l.096 1.328h-4.236-4.237v-1.406c0-1.354.035-1.406.938-1.406h.937l.001-2.422c.001-1.332.093-4.426.205-6.875.2-4.363.191-4.453-.444-4.453-1.279 0-1.637-.339-1.637-1.544 0-1.519.201-1.678 1.84-1.455.755.102 2.618.186 4.141.186" fill="#00009e"/></g></svg>