<svg xmlns="http://www.w3.org/2000/svg" width="304.77017" height="392.72699" viewBox="0 0 396.20123 510.54509"><path d="m0 0 .537.775-.779.532C-3.101 3.254-6.12 5.363-8.867 7.866c-4.344 3.906-7.876 8.44-10.498 13.472-1.758 3.364-3.046 6.912-4.319 10.556l-.46 1.316-1.045-.924c-3.768-3.338-8.039-7.12-13.676-8.404-3.803-.873-7.922-.629-13.149.782-5.561 1.503-10.713 2.233-15.753 2.233-5.035 0-10.205-.73-15.808-2.233-5.228-1.411-9.343-1.656-13.151-.781-5.635 1.283-9.905 5.065-13.674 8.403l-1.044.925-.461-1.317c-1.268-3.636-2.553-7.178-4.318-10.557-2.622-5.03-6.154-9.564-10.503-13.476-2.744-2.5-5.763-4.609-8.621-6.554l-.779-.532.536-.775c1.664-2.403 3.142-4.584 4.379-6.955 4.954-9.496 6.09-18.239 3.575-27.515-.612-2.239-1.382-4.632-2.572-8-1.778-5.034-3.085-10.679-3.783-16.327-1.238-10.121-1.575-29.157 10.082-42.934 7.056-8.314 16.395-13.086 25.427-17.699 7.501-3.841 14.201-7.442 20.237-12.627 3.836-3.255 7.076-6.882 9.739-10.002l.712-.834.712.834c2.666 3.122 5.908 6.753 9.743 10.006 6.034 5.182 12.734 8.782 20.232 12.623 9.033 4.614 18.373 9.386 25.428 17.7C-.024-87.957-.36-68.919-1.597-58.796c-.697 5.638-2.006 11.284-3.783 16.327-1.171 3.309-1.965 5.777-2.572 7.997-2.512 9.285-1.377 18.029 3.574 27.517C-3.147-4.598-1.667-2.411 0 0" style="fill:#fff;fill-opacity:1;fill-rule:nonzero;stroke:none" transform="matrix(2.89911 0 0 -2.89911 394.644 96.282)"/><path d="M0 0c-5.384 6.285-11.34 11.427-18.438 15.69-12.065 7.252-26.085 11.846-35.469 22.899-5.757 6.79-8.724 15.647-9.669 24.877-1.098 10.899.616 22.327 3.89 31.577 2.043 5.847 3.604 10.747 4.044 15.779.636 7.692-1.692 15.274-5.209 22.02-1.032 1.978-2.198 3.824-3.45 5.648 5.186 3.516 9.78 7.493 13.624 12.46 3.737 4.813 6.308 10 8.33 15.713 8.659-7.604 16.283-9.296 27.316-6.33 11.119 3.011 18.942 3.011 30.063 0 11.031-2.966 18.656-1.274 27.314 6.33 2.022-5.713 4.594-10.9 8.33-15.713 3.844-4.967 8.438-8.944 13.623-12.46-1.252-1.824-2.416-3.67-3.449-5.648-3.516-6.746-5.867-14.328-5.208-22.02.44-5.032 2-9.932 4.044-15.779 3.273-9.25 4.987-20.678 3.867-31.577-.923-9.23-3.89-18.087-9.648-24.877-9.383-11.053-23.404-15.647-35.468-22.899C11.34 11.427 5.383 6.285 0 0" style="fill:#000;fill-opacity:1;fill-rule:nonzero;stroke:none" transform="matrix(2.89911 0 0 -2.89911 198.102 497.7)"/><path d="M0 0c6.966 3.89 14.416 7.142 21.096 11.472v133.831c-6.68-5.583-13.383-7.319-21.096-6.352V90.604c-.791 1.276-1.473 2.704-2.109 4.331-3.978-3.187-6.878-4.088-11.846-2.879-4.835 1.186-8.35 1.186-13.186 0-4.965-1.209-7.866-.308-11.844 2.879-.637-1.627-1.318-3.055-2.11-4.331v48.347c-7.714-.967-14.416.792-21.095 6.352V11.472C-55.511 7.142-48.061 3.89-41.095 0v40.896c3.759-2.659 8.284-4.197 12.35-6.417 3.188-1.735 5.714-3.845 8.198-6.46 2.484 2.615 5.01 4.725 8.197 6.46 4.065 2.22 8.591 3.758 12.35 6.417z" style="fill:#fff;fill-opacity:1;fill-rule:nonzero;stroke:none" transform="matrix(2.89911 0 0 -2.89911 257.67 443.484)"/><g style="fill:#e61c27;fill-opacity:1"><path d="M0 0c2.153 2.131 4.592 3.912 7.273 5.361 4.968 2.704 10.944 4.44 14.877 8.659 2.287 2.44 3.451 5.626 3.824 8.966.44 4.043-.262 8.285-1.581 11.691-1.869 4.857-2.681 8.527-.572 13.515a20.95 20.95 0 0 0 1.912 3.516c-3.495 2.352-6.373 5.45-8.13 9.295-3.604-2.504-7.297-2.679-11.472-1.669-4.506 1.099-7.757 1.099-12.262 0-4.176-1.01-7.868-.813-11.472 1.669-1.758-3.845-4.637-6.943-8.131-9.295a21.021 21.021 0 0 0 1.912-3.516c2.109-4.988 1.297-8.658-.572-13.515-1.318-3.406-2.021-7.648-1.582-11.691.373-3.34 1.539-6.526 3.824-8.966 3.934-4.219 9.911-5.955 14.878-8.659A31.748 31.748 0 0 0 0 0" style="fill:#e10101;fill-opacity:1;fill-rule:nonzero;stroke:none" transform="matrix(2.89911 0 0 -2.89911 198.102 354.1)"/></g><path d="m0 0 1.625 5.076h5.34L2.636 8.197l1.67 5.076L0 10.13l-4.308 3.143 1.67-5.076-4.329-3.121h5.341z" style="fill:#fff;fill-opacity:1;fill-rule:nonzero;stroke:none" transform="matrix(2.89911 0 0 -2.89911 198.102 238.02)"/><path d="M0 0c3.867-3.187 6.329-7.955 6.329-13.273 0-9.516-7.868-17.273-17.471-17.273-9.604 0-17.47 7.757-17.47 17.273 0 5.318 2.461 10.086 6.328 13.273a13.396 13.396 0 0 1-2.396-7.67c0-7.427 6.089-13.515 13.538-13.515 7.45 0 13.538 6.088 13.538 13.515C2.396-4.812 1.516-2.176 0 0" style="fill:#fff;fill-opacity:1;fill-rule:nonzero;stroke:none" transform="matrix(2.89911 0 0 -2.89911 230.403 231.523)"/><path d="M0 0c-1.625 0-2.944-3.581-2.944-7.976S-1.625-15.954 0-15.954c1.604 0 2.923 3.583 2.923 7.978S1.604 0 0 0m0 2.022c4.593 0 8.35-4.483 8.35-9.998 0-5.516-3.757-9.999-8.35-9.999-4.615 0-8.373 4.483-8.373 9.999 0 5.515 3.758 9.998 8.373 9.998" style="fill:#fff;fill-opacity:1;fill-rule:nonzero;stroke:none" transform="matrix(2.89911 0 0 -2.89911 224.412 368.5)"/><g style="fill:#000;fill-opacity:1"><path d="M0 0c2.57-.044 3.78-3.231 1.714-4.527 0-1.363 2.088-1.737 3.473-1.1 1.449.748 2.021 2.439 1.757 3.956-.505 2.967-2.724 2.967-5.142 3.098V3.01c2.307.044 4.439 0 4.9 2.835.374 2.264-.944 4.285-3.273 4.219-.925-.043-1.738-.418-1.781-1.209C3.692 7.625 2.66 4.262.11 4.218c-2.198 0-3.099 2.22-2.571 3.956.768 2.505 3.911 3.89 6.373 3.868 2.813.044 6.987-1.472 7.559-4.571.374-2.021-1.12-4.044-3.625-5.142 2.46-.769 4.175-2.989 3.823-5.208C11.098-6.109 6.878-8.044 4.022-8 1.517-8.021-1.67-6.593-2.461-4-2.989-2.198-2.22 0 0 0" style="fill:#000;fill-opacity:1;fill-rule:nonzero;stroke:none" transform="matrix(2.89911 0 0 -2.89911 272.131 397.484)"/></g><path d="M0 0c.417.659.351 2-.044 2.768-.462.902-1.429 1.429-2.901 1.363-3.034-.154-3.516-3.582-1.582-5.428C-3.121-2.659-.703-3.318.878-3.274c4.528 0 8.22 4.482 8.22 9.999 0 5.514-3.692 9.998-8.22 9.998-1.823.044-3.758-.527-5.142-1.802-2.396-2.242-2.813-6.57.089-8.635 2.109-1.495 5.405-1.65 7.844-.111.088-3.889-1.187-7.384-2.791-7.428C.131-1.253-.023-.769 0 0m.878 14.701c3.056 0 3.121-7.405 0-7.405-3.231 0-2.966 7.405 0 7.405" style="fill:#fff;fill-opacity:1;fill-rule:nonzero;stroke:none" transform="matrix(2.89911 0 0 -2.89911 165.547 411.12)"/><g style="fill:#000;fill-opacity:1"><path d="M0 0h-9.098l-.132 1.098 2.33 1.847V13.91h-3.297v2.022c1.802.681 3.56 1.252 5.582 3.231h2.439V2.945l2.33-1.847z" style="fill:#000;fill-opacity:1;fill-rule:nonzero;stroke:none" transform="matrix(2.89911 0 0 -2.89911 130.314 419.4)"/></g><g style="fill:#000;fill-opacity:1"><path d="M0 0c2.087-.33 4.284.109 4.877 2.438.507 1.869.374 5.166-.219 7.033-.461 1.429-1.384 2.461-3.207 2.461l-2.177-.022V.989C-.681.285-.44.044 0 0m-.726 24.107v-9.669h1.869c2.527 0 2.945 2.681 2.922 5.252-.022 1.89.264 3.934-1.231 4.835-.482.286-1.428.417-2.198.461-.769.044-1.362-.044-1.362-.879m-.878-26.041c-2.857.528-6.11-.242-6.682-.483.287.813.748.989 1.342 1.45.395.33.483.79.57 2.462v22.853c0 .989-.636 1.869-1.34 2.506H2.704c2.218 0 3.559-.286 5.119-2.11 2.198-2.593 2.813-6.505.659-9.427-.792-1.099-2.065-1.869-3.691-2.154 1.867-.198 3.516-1.362 4.745-2.9 3.276-4.021 1.825-10.57-3.185-12.306-2.374-.836-5.517-.133-7.955.109" style="fill:#000;fill-opacity:1;fill-rule:nonzero;stroke:none" transform="matrix(2.89911 0 0 -2.89911 103.493 142.456)"/></g><path d="M0 0h13.69c-.724-.638-1.34-1.429-1.34-2.418V-26.371c.066-1.56.087-2.11.418-2.417-.55.131-1.099.131-1.714-.132-3.956-1.187-8.615-2.395-12.658-.901-1.671.638-3.34 1.691-4.352 3.253-1.78 2.812-1.121 7.493 2.967 7.163 1.539-.133 2.966-1.077 2.966-2.702.088-1.869-1.384-2.924-3.273-2.704-.023 0-.045-.198-.066-.198.24-1.999 2.132-2.878 4.021-3.23 2.682-.506 5.56.132 5.56 2.395v23.909c-1.253.243-3.054.331-4.154 0-1.45-.44-2.175-.922-3.295-.614C-.593-1.781-.176-1.078 0 0" style="fill:#fff;fill-opacity:1;fill-rule:nonzero;stroke:none" transform="matrix(2.89911 0 0 -2.89911 182.238 64.857)"/><g style="fill:#000;fill-opacity:1"><path d="m0 0 4.724 8.153c.88 1.516.527 2.329-.769 3.583h7.253c-1.627-.968-2.573-1.715-3.539-3.297L2.153-.593c3.911.418 5.978-2.308 6.922-7.318.593-3.143.637-7.339 3.473-9.449H9.119C2-17.756 6.988-2.527 0-2.527v-11.009c.066-1.672.153-2.132.57-2.462.594-.461 1.099-.637 1.385-1.449-2.241.46-6.879.592-9.208-.089.286.813.616 1.252 1.232 1.714.395.307.482.614.571 2.286V9.317c0 .99-.638 1.781-1.363 2.419H1.34C.614 11.098 0 10.307 0 9.317Z" style="fill:#000;fill-opacity:1;fill-rule:nonzero;stroke:none" transform="matrix(2.89911 0 0 -2.89911 280.352 98.88)"/></g></svg>