<svg xmlns="http://www.w3.org/2000/svg" width="297.88pt" height="297.88pt" viewBox="0 0 297.88 297.88"><defs><clipPath id="a"><path d="M0 0h297.879v297.879H0Zm0 0"/></clipPath></defs><g clip-path="url(#a)"><path d="M297.875 148.941c0 82.258-66.68 148.938-148.938 148.938C66.68 297.879 0 231.199 0 148.94 0 66.687 66.68.004 148.938.004c82.257 0 148.937 66.683 148.937 148.937" style="stroke:none;fill-rule:nonzero;fill:#000;fill-opacity:1"/></g><path d="M49.04 148.941c0-55.171 44.726-99.898 99.898-99.898 55.175 0 99.902 44.727 99.902 99.898 0 55.176-44.727 99.899-99.903 99.899-55.171 0-99.898-44.723-99.898-99.899" style="stroke:none;fill-rule:nonzero;fill:#fff;fill-opacity:1"/><path d="M52.809 148.941c0-53.082 43.035-96.117 96.117-96.117 53.082 0 96.113 43.035 96.113 96.117 0 53.086-43.031 96.118-96.113 96.118s-96.117-43.032-96.117-96.118" style="stroke:none;fill-rule:nonzero;fill:#ed2d23;fill-opacity:1"/><path d="m117.344 282.906 3.953-18.086-5.102-1.117.743-3.398.468.097c3.403.746 5.785-.097 6.91-2.808l3.832.84-5.597 25.609M139.77 273.613c2.105.153 3.015-1.195 3.27-4.742.175-2.992-.075-5.2-2.552-5.379-2.586-.183-3.039 2.012-3.25 4.965-.25 3.547.461 5.008 2.532 5.156m-2.938 6.285c-.14 1.961.402 3.188 2.176 3.313 2.808.2 3.453-2.574 3.726-6.414l.09-1.258-.074-.004c-.98 1.266-2.781 2.027-5.07 1.863-4.657-.332-6.145-3.925-5.809-8.617.43-5.984 3.29-9.156 9.125-8.742 7.313.524 7.82 6.422 7.363 12.813-.527 7.425-1.175 14.43-9.82 13.816-3.766-.27-7.09-2.102-6.805-7.129M166.758 285.617l-16.102 1.153c-.332-4.657 1.324-8.004 4.946-11.864l2-2.148c2.175-2.274 2.496-3.485 2.304-6.18-.152-2.176-1.152-3.183-2.816-3.062-2.66.187-2.75 2.53-2.59 5.304l-5.098.368-.07-1c-.348-4.836 2.008-7.75 7.586-8.153 5.242-.375 8.016 2.063 8.336 6.57.242 3.399-.668 5.692-3.469 8.602l-2.758 2.945c-1.453 1.512-2.238 3.016-2.425 4.036l9.863-.708M177.945 280.438c2.532-.555 2.348-2.786 1.715-5.684-.758-3.469-1.855-4.672-3.883-4.227-2.058.45-2.554 2-1.797 5.47.676 2.921 1.543 4.968 3.965 4.44m-1.117-16.734c-.426-1.957-1.297-2.976-3.031-2.598-2.75.598-2.582 3.442-1.762 7.207l.278 1.262.074-.012c.574-1.53 2.086-2.769 4.328-3.257 4.558-1 7 2.03 8.004 6.629 1.281 5.855-.567 9.71-6.285 10.96-7.16 1.563-9.317-3.953-10.684-10.21-1.578-7.235-2.945-14.18 5.52-16.028 3.69-.804 7.394.012 8.55 4.957M44.57 239.754l-9.527-12.125 3.586-2.816 6.086 7.75 5.105-4.008-5.73-7.293 3.586-2.817 5.73 7.29 9.418-7.403 3.438 4.379M44.523 210.133l-2.636-4.727-9.535 8.371.039.067Zm-14.66 9.012-3.351-6.004 20.539-19.817 2.824 5.063-4.477 3.957 3.579 6.41 5.714-1.727 2.825 5.059M16.223 188.484l4.277-1.574 2.086 5.653 21.605-7.965 1.926 5.218-21.605 7.965 2.086 5.66-4.278 1.575M41.832 176.695l-26.879 6.22-1.254-5.423 26.88-6.219ZM12.133 170.3l-.504-5.538 10.508-.953-.586-6.465-10.508.949-.5-5.54 27.48-2.483.5 5.542-12.199 1.102.582 6.465 12.2-1.102.503 5.54M12.34 127.867l10.887 1.903.011-.079-9.675-8.828 1.035-5.937 10.359 9.418 16.965-5.512L40.848 125l-12.13 3.648 2.731 2.555 8.067 1.41-.953 5.48-27.18-4.745" style="stroke:none;fill-rule:nonzero;fill:#fff;fill-opacity:1"/><path d="m34.512 109.492 1.875-5.07-12.555-1.805-.027.07Zm-16.383-5.277 2.387-6.45 28.41 2.727-2.012 5.434-5.914-.828-2.547 6.882 5.027 3.223-2.011 5.438M38.953 87.11l1.188-1.993c1.37-2.289 1.148-4.176-1.407-5.703-2.187-1.309-3.976-.8-5.265 1.356l-1.348 2.253ZM25.75 85.7l5.273-8.825c2.34-3.914 5.825-5.07 9.872-2.652 3.148 1.882 4.52 4.414 3.476 7.437l.066.04c2.376-2.993 4.461-2.419 9.512.507 2.508 1.453 3.88 2.094 4.88 1.477l.198.12-3.093 5.173c-.942.066-1.899-.368-2.844-.891l-4.625-2.582c-1.895-1.043-3.52-.89-4.668 1.031l-1.527 2.559 10.015 5.984-2.855 4.777" style="stroke:none;fill-rule:nonzero;fill:#fff;fill-opacity:1"/><path d="m56.273 71.121 3.575-4.058-11.075-6.192-.05.059Zm-13.394-10.8 4.539-5.165 25.543 12.735-3.828 4.351-5.223-2.894-4.847 5.511 3.539 4.813-3.829 4.351M71.277 44.656c-1.27-1.61-3.597-3.07-5.359-1.683-2.125 1.672-1.254 4.527 3.004 9.93 4.11 5.222 7.18 8.117 9.7 6.132 1.03-.812 1.816-3.25-.024-5.586l-1.746-2.219-2.883 2.274-2.535-3.219 7.074-5.57 9.203 11.687-3.219 2.535-1.578-2.003-.059.046c.305 2.512-.609 4.415-2.64 6.016-5.371 4.23-9.594 1.063-15.496-6.437-5.739-7.286-6.98-12.36-1.395-16.754 4.793-3.782 8.676-2.852 12.14 1.55M82.328 20.453l3.824-2.023 2.133 4.03-3.824 2.024Zm-.836 7.832 9.004 17.008c1.285 2.426 2.824 3.926 5.11 2.715 2.289-1.211 1.914-3.328.628-5.754L87.227 25.25l4.918-2.605 9.007 17.007c3.29 6.215.368 9.86-3.629 11.977-3.996 2.113-8.492 2.789-11.945-3.734L76.574 30.89Zm-5.035-4.719 3.82-2.027 2.137 4.031-3.824 2.024ZM99.387 19.344l7.957-2.254 9.105 17.66.074-.02-1.484-19.824 7.918-2.246 7.527 26.543-4.91 1.39-6.008-21.187-.074.024 1.29 22.527-4.165 1.18-10.73-19.852-.075.024 6.008 21.187-4.906 1.39M137.5 23.3l2.316-.148c2.66-.172 4.09-1.425 3.899-4.394-.164-2.543-1.594-3.73-4.102-3.57l-2.62.171Zm-6.324-11.675 10.258-.656c4.55-.293 7.48 1.918 7.78 6.625.235 3.664-1.07 6.222-4.151 7.082l.003.074c3.813.262 4.524 2.305 4.973 8.121.227 2.89.477 4.387 1.55 4.86l.016.23-6.015.387c-.586-.739-.77-1.774-.88-2.848l-.491-5.273c-.215-2.157-1.266-3.403-3.5-3.258l-2.973.187.75 11.645-5.555.355M167.188 5.383l4.296.504-.53 4.531-4.302-.508Zm-6.598-.778 4.297.504-.535 4.528-4.297-.504Zm1.46 6.747-2.253 19.109c-.32 2.727.09 4.836 2.66 5.14 2.57.301 3.465-1.656 3.785-4.378l2.254-19.11 5.527.649-2.253 19.11c-.825 6.987-5.301 8.323-9.793 7.796-4.489-.531-8.57-2.527-7.707-9.86l2.253-19.109M186.504 15.914l-3.223 10.574.074.024 9.95-8.524 5.765 1.754-10.617 9.13 3.39 17.51-5.988-1.823-2.132-12.485-2.871 2.399-2.387 7.836-5.324-1.625 8.043-26.391M208.742 45.75l-.426.691c-1.367 2.196-1.62 3.996.871 5.547 1.442.899 3.391.836 4.618-1.133 1.328-2.132.734-3.593-1.707-6.613-3.305-4.058-4.157-7-1.73-10.906 2.835-4.559 7.077-5.152 11.538-2.379 4.2 2.613 6.125 6.316 3.332 10.813l-.41.656-4.527-2.817c1.367-2.199 1.41-3.949-.395-5.07-2.133-1.328-3.527-.328-4.383 1.05-.898 1.442-1.023 2.595.446 4.692l2.664 3.84c2.582 3.746 2.379 6.121.601 8.977-3.082 4.953-7.488 5.308-12.605 2.125-5.348-3.328-5.895-7.13-3.2-11.461l.59-.95M230.648 53.402l1.844 1.649c1.645 1.465 3.645 1.484 5.52-.621 1.8-2.02 2.02-3.895-.055-5.742l-1.73-1.543Zm4.149-13.02 7.27 6.481c4.21 3.754 2.902 8.125.152 11.211-3.809 4.27-8.153 3.864-12.078.367l-2.22-1.98-7.327 8.219-4.153-3.703M238.707 78.45c2.031 2.581 4.582 1.26 10.41-3.325 5.801-4.563 7.715-6.754 5.688-9.336-2.032-2.582-4.614-1.238-10.414 3.324-5.832 4.586-7.715 6.754-5.684 9.336m19.316-15.191c5.16 6.558 1.125 11.058-5.464 16.242-6.59 5.184-11.91 8.04-17.07 1.48-5.165-6.558-1.13-11.058 5.46-16.242 6.59-5.183 11.914-8.043 17.074-1.48M259.176 87.555l1.074 2.05c1.238 2.364 2.965 3.157 5.602 1.774 2.257-1.184 2.757-2.973 1.59-5.2l-1.22-2.324Zm8.086-10.532 4.777 9.102c2.117 4.04 1.29 7.613-2.887 9.805-3.25 1.707-6.12 1.554-8.156-.91l-.07.035c1.316 3.586-.262 5.066-5.395 7.847-2.547 1.38-3.808 2.22-3.804 3.395l-.204.105-2.8-5.336c.433-.84 1.3-1.425 2.242-1.96l4.617-2.598c1.879-1.074 2.594-2.54 1.555-4.524l-1.387-2.636-10.332 5.422-2.586-4.926M283.27 116.355l-10.797 2.372.015.074 12.305 4.496 1.293 5.887-13.156-4.782-13.606 11.535-1.344-6.113 9.84-7.98-3.5-1.328-8 1.761-1.191-5.437 26.941-5.922M286.871 140.258l-19.226.746c-2.743.105-4.762.84-4.66 3.43.097 2.586 2.167 3.16 4.913 3.054l19.227-.746.215 5.563-19.227.746c-7.027.273-9.047-3.942-9.222-8.461-.176-4.516 1.164-8.86 8.539-9.149l19.226-.746M259.523 155.945l27.372 3.446-.696 5.52-22.847-2.876-1.23 9.778-4.524-.57M289.11 185.395l-1.247 4.144-4.367-1.312 1.246-4.145Zm-1.915 6.363-1.246 4.144-4.367-1.308 1.246-4.145Zm-4.984-6.098-18.43-5.539c-2.625-.789-4.777-.75-5.523 1.73-.742 2.481 1.027 3.696 3.656 4.485l18.426 5.543-1.602 5.324-18.425-5.535c-6.739-2.023-7.278-6.668-5.973-10.996 1.297-4.332 3.976-8.004 11.043-5.879l18.43 5.539M263.371 203.828l-.723 1.414c-1.39 2.715-1.097 4.43 1.204 5.61 2.34 1.199 3.78.507 5.03-1.938l.919-1.785Zm-10.832-5.547-.988 1.922c-1.215 2.375-1.184 4.434 1.668 5.895 2.855 1.46 4.508.27 5.62-1.899l1.095-2.129Zm23.445 5.762-4.25 8.285c-2.078 4.063-5.09 6.207-9.8 3.793-2.649-1.355-4.024-3.668-3.461-6.465l-.07-.035c-1.77 2.524-4.731 3.223-7.997 1.547-3.851-1.973-6.219-5.574-3.258-11.352l4.282-8.355M267.172 232.555l-2.633 3.433-3.621-2.777 2.637-3.43Zm-4.043 5.273-2.637 3.434-3.613-2.774 2.629-3.433Zm-2.504-7.469-15.27-11.707c-2.18-1.672-4.203-2.394-5.78-.34-1.575 2.055-.348 3.825 1.827 5.493l15.274 11.707-3.387 4.414-15.27-11.707c-5.582-4.278-4.445-8.813-1.695-12.399 2.75-3.586 6.559-6.074 12.414-1.586l15.274 11.707M104.973 203.027c-3.965 0-7.196-3.226-7.196-7.191 0-3.969 3.23-7.195 7.196-7.195a7.202 7.202 0 0 1 7.195 7.195c0 3.965-3.227 7.191-7.195 7.191m-22.164-7.386c-3.97 0-7.196-3.23-7.196-7.192a7.202 7.202 0 0 1 7.196-7.195c3.964 0 7.191 3.226 7.191 7.195 0 3.961-3.227 7.192-7.191 7.192m16.27-30.66a7.202 7.202 0 0 1 7.194 7.195c0 3.965-3.226 7.191-7.195 7.191-3.965 0-7.195-3.226-7.195-7.191 0-3.969 3.23-7.196 7.195-7.196m5.895 18.829c-4.297 0-8.07 2.277-10.196 5.683.032-.347.055-.691.055-1.043 0-2.054-.52-3.988-1.43-5.68 1.692.91 3.625 1.43 5.676 1.43 6.633 0 12.027-5.394 12.027-12.023 0-6.633-5.394-12.028-12.027-12.028-6.629 0-12.023 5.395-12.023 12.028 0 2.05.52 3.98 1.43 5.676a11.947 11.947 0 0 0-5.676-1.43c-6.633 0-12.028 5.394-12.028 12.027 0 6.625 5.395 12.024 12.028 12.024 4.296 0 8.066-2.278 10.195-5.684-.031.348-.055.691-.055 1.047 0 6.629 5.395 12.023 12.024 12.023 6.632 0 12.027-5.394 12.027-12.023 0-6.633-5.395-12.027-12.027-12.027M207.363 195.469c0-1.922.746-3.73 2.106-5.086a7.152 7.152 0 0 1 5.086-2.11c1.922 0 3.73.75 5.09 2.11a7.134 7.134 0 0 1 2.105 5.086c0 3.965-3.227 7.195-7.195 7.195-3.965 0-7.192-3.23-7.192-7.195m-1.308-8.504a11.94 11.94 0 0 0-3.524 8.504c0 6.629 5.395 12.023 12.024 12.023 6.632 0 12.027-5.394 12.027-12.023 0-3.215-1.254-6.23-3.523-8.504a11.936 11.936 0 0 0-8.504-3.52c-3.211 0-6.23 1.246-8.5 3.52m-21.668 19.914c0-3.965 3.226-7.191 7.191-7.191 3.969 0 7.195 3.226 7.195 7.19a7.202 7.202 0 0 1-7.195 7.196c-3.965 0-7.191-3.226-7.191-7.195m-4.832 0c0 6.633 5.394 12.027 12.023 12.027 6.633 0 12.027-5.394 12.027-12.027 0-6.629-5.394-12.024-12.027-12.024-6.629 0-12.023 5.395-12.023 12.024m8.687-27.348c0-3.965 3.23-7.195 7.196-7.195a7.15 7.15 0 0 1 5.09 2.105 7.15 7.15 0 0 1 2.105 5.09c0 3.965-3.227 7.196-7.196 7.196-3.964 0-7.195-3.23-7.195-7.196m-4.828 0c0 6.63 5.395 12.024 12.024 12.024 6.632 0 12.027-5.395 12.027-12.024 0-3.21-1.254-6.234-3.524-8.504a11.949 11.949 0 0 0-8.504-3.523c-6.628 0-12.023 5.398-12.023 12.027" style="stroke:none;fill-rule:nonzero;fill:#fff;fill-opacity:1"/><path d="M149.89 202.64c-.64.419-1.312.438-2.011.141-2.465-6.949-8.566-25.715-10.266-45.469 2.922-1.949 7.336-5.257 7.336-5.257 18.02-4.637 25.196-17.446 24.117-36.383-11.843 7.789-21.843 18.601-27.742 34.144 0 0-1.793 2.996-4.054 2.22-.067-1.56-.11-3.118-.11-4.673 0-14.937 4.485-32.758 4.485-32.758s-8.11 7.153-8.11 38.2c0 .586.008 1.168.016 1.75 0 .007 0 .004-.004.011-.438 4.696-3 1.547-3 1.547-8.945-23.77-16.793-33.894-35.852-42.039 5.227 19.203 16.118 33.926 32.758 43.957 2.067.809 4.961 3.196 6.606 6.516 1.175 13.816 4.109 26.355 6.261 34.144-10.07-9.816-18.976-17.203-26.418-18.355 19.2 14.871 31.184 33.035 33.399 55.484l5.437-2.347s-.636-2.668-.636-7.684c-1.598-22.297 24.753-29.129 30.945-34.25-11.27 0-20.719 2.637-28.363 9.711 8.972-45.793 31.355-56.563 39.671-68.29-24.128 13.49-40.746 34.02-44.464 69.68m81.808-43.218c-5.691-12.117-17.137-19.152-35.637-19.848 0 0 .856 9.496 12.805 15.043 11.95 5.547 22.832 4.805 22.832 4.805m3.63-35.32s-5.868-1.493-9.927-1.493c-14.828 0-24.859 12.91-24.859 12.91 14.336 1.215 26.422-1.746 34.785-11.417m-14.832-20.91s-5.332 1.492-11.629 7.788c-6.297 6.293-7.469 14.829-7.469 14.829 10.75-3.61 17.422-10.903 19.098-22.618m-17.39-10.671s-18.032 11.203-18.032 32.117c0 4.054 1.707 9.066 1.707 9.066 11.094-4.05 16.324-17.816 16.324-41.183m-45.242-2.993c-6.508 9.176-8.218 21.66-8.218 21.66 13.234-6.277 21.609-17.464 24.433-34.144 0 0-9.71 3.309-16.215 12.484m-16.218 20.38s12.91-17.177 12.91-32.434c0-7.364-1.496-11.739-1.496-11.739-6.028 3.04-11.414 8.536-11.414 44.172m-3.735-5.011s1.281-3.95 1.281-8.75c0-19.528-11.953-31.477-11.953-31.477 0 22.086 1.067 30.621 10.672 40.227m-36.492-25.93s10.777 4.8 20.7 12.695c9.921 7.899 11.948 21.344 11.948 21.344s-12.16-1.176-20.058-11.418c-7.895-10.242-12.59-22.621-12.59-22.621" style="stroke:none;fill-rule:nonzero;fill:#fff;fill-opacity:1"/></svg>