<svg xmlns="http://www.w3.org/2000/svg" width="525.08716" height="619.02789" viewBox="0 0 525.08715 619.02789"><path d="M422.642 154.572h20.447v25.027l21.45-25.027h27.217l-24.18 24.888 25.29 41.358h-25.181l-13.971-27.202-10.625 11.072v16.13h-20.447zM390.158 168.02l.052-13.165h19.129l-.283 13.257zm19.181 52.704-19.129.094v-47.829l19.188.015zM319.672 154.572h30.425c5.983 0 10.84.817 14.526 2.436 3.685 1.635 6.739 3.963 9.16 7.001 2.405 3.053 4.148 6.585 5.227 10.625 1.095 4.04 1.635 8.311 1.635 12.83 0 7.077-.802 12.567-2.421 16.468-1.604 3.902-3.84 7.17-6.708 9.808-2.868 2.637-5.937 4.394-9.222 5.273-4.487 1.203-8.558 1.805-12.197 1.805h-30.425zm20.448 14.989v36.176h5.027c4.287 0 7.34-.478 9.16-1.42 1.804-.955 3.222-2.605 4.256-4.964 1.033-2.375 1.542-6.2 1.542-11.504 0-7.016-1.141-11.812-3.44-14.403-2.297-2.59-6.106-3.885-11.426-3.885zM242.509 154.572h19.106l24.842 36.577v-36.577h19.337v66.246h-19.337l-24.704-36.377v36.377H242.51zM175.507 154.572h54.773v14.156h-34.233v10.547h31.735v13.508h-31.735v13.046h35.251v14.989h-55.79zM108.598 154.572h34.048c7.417 0 12.969 1.758 16.67 5.289 3.685 3.531 5.536 8.558 5.536 15.081 0 6.692-2.02 11.935-6.045 15.698-4.025 3.778-10.178 5.66-18.443 5.66h-11.226v24.518h-20.54zm20.54 28.312h5.043c3.978 0 6.769-.694 8.373-2.067 1.603-1.372 2.405-3.13 2.405-5.273 0-2.082-.694-3.84-2.097-5.29-1.388-1.45-4.01-2.174-7.864-2.174h-5.86z" style="fill:#ca0500;fill-rule:evenodd" transform="translate(-35.094 -111.431)"/><path d="m110.16 496.539 6.811 7.202c-2.971 2.308-3.886 5.37-3.98 7.47-.094 2.1 1.499 4.723 3.14 6.737 1.734 2.13 3.217 2.719 5.039 2.99 1.822.27 2.71.056 3.971-1.028.813-.7 1.211-1.507 1.414-2.454.201-.937.38-1.82-.125-3.312-.345-1.019-1.074-3.278-2.6-6.654-1.965-4.342-2.74-7.877-2.56-10.469.251-3.64 1.879-6.627 4.6-8.966a12.093 12.093 0 0 1 6.07-2.808c2.299-.36 4.567.01 6.819 1.109s4.85 2.871 6.915 5.395c5.32 6.504 6.25 10.693 6.037 14.409-.212 3.723-2.892 7.18-5.989 10.024l-6.138-7.585c1.54-1.806 2.378-2.435 2.805-3.97.534-1.92-1.371-5.796-3.045-7.544-1.708-1.784-2.204-2.615-3.913-2.981-1.102-.237-2.1.02-2.994.788-.813.7-1.233 1.626-1.277 2.778-.056 1.474.447 3.216 2.28 7.125 1.832 3.906 2.528 6.77 3.087 9.08.546 2.252.716 5.18-.048 7.32-.765 2.143-2.77 4.355-4.931 6.214-1.963 1.687-4.372 2.599-6.943 3.023-2.57.425-5.337-.043-7.729-1.24-2.396-1.199-5.057-3.156-7.317-6.169-3.44-4.586-6.454-8.8-6.072-14.144.323-4.537 2.653-9.103 6.674-12.34z" style="fill:#cb0503;fill-rule:evenodd" transform="translate(-35.094 -111.431)"/><path d="m125.653 542.403 34.896-29.53 9.966 11.585c4.063 4.723 6.137 7.409 6.978 9.162 2.12 4.416.524 10.386-4.824 14.955-5.156 4.405-11.36 4.437-15.905 1.84-2.157-1.233-4.596-3.48-7.695-6.926l-4.298-4.777-12.743 11.012zm34.886-17.08-9.425 8.162 3.734 4.23c2.096 2.374 2.878 3.114 4.123 3.836 1.245.721 2.375 1.251 3.65 1.172 1.268-.078 2.41-.542 3.432-1.42 1.254-1.077 2.1-2.563 2.209-4.079.11-1.524-.433-2.809-1.311-4.25-.642-1.055-1.032-1.387-3.435-4.185zM170.786 555.813c7.765-8.274 19.088-12.17 30.436-3.34 11.152 8.677 12.518 20.681 3.76 32.027-9.014 11.677-20.918 14.371-31.872 5.495-12.963-10.504-13.131-22.667-2.324-34.182zm6.61 7.448c-5.767 6.961-8.026 14.102-.468 19.748 6.98 5.215 14.758 2.812 19.741-3.989 4.802-6.554 8.477-13.584.436-19.768-7.194-5.534-14.317-2.501-19.71 4.009zM199.243 607.349l21.603-39.808 17.897 9.5c4.794 2.543 8.33 4.764 9.681 6.972 2.01 3.282 2.107 8.017.047 12.362-2.64 5.57-10.637 8.565-16.441 6.05 2.909 4.327 3.319 10.125 3.649 15.14l.61 9.277-10.728-5.193-.753-11.046c-.298-4.378-.904-6.895-1.138-8.215-.228-1.282-.865-2.73-1.673-3.53-1.867-1.849-3.941-2.807-5.114-3.45l-9.092 16.97zm21.068-18.666 5.862 3.594c4.194 2.57 5.781 2.726 7.037 2.99 2.586.545 4.723-.48 5.985-2.789 1.559-2.851.528-5.455-1.963-7.303-.678-.504-1.57-.742-5.178-2.79l-6.226-3.537zM285.008 636.37l.152-45.398 9.958.06.066 19.879 18.316-19.804 13.176-.012-17.742 17.871 18.59 27.372-12.658.542-12.586-21.525-7.226 7.241.2 13.728z" style="fill:#ca0500;fill-rule:evenodd" transform="translate(-35.094 -111.431)"/><path d="m323.147 590.146 9.772-2.94 7.117 23.756c2.277 7.602 4.544 12.991 13.2 9.89 7.327-2.626 6.104-7.884 3.824-14.605l-8.091-23.859 9.854-2.777 8.694 28.904c1.803 5.995 2.867 15.266-11.351 20.002-16.371 5.453-21.284-2.22-23.744-9.799zM390.694 561.13l7.788-6.594 16.002 18.946c5.12 6.063 9.349 10.1 16.05 3.804 5.671-5.33 2.452-9.664-2.32-14.918l-16.935-18.65 7.928-6.478 19.501 23.038c4.045 4.778 8.719 12.855-2.43 22.87-12.838 11.53-20.403 6.453-25.682.484zM450.645 501.463l5.705-8.46 20.544 13.89c6.574 4.445 11.74 7.183 16.48-.696 4.012-6.67-.263-9.966-6.281-13.728l-21.363-13.353 5.872-8.387 25.023 16.88c5.19 3.5 11.88 10.005 3.868 22.67-9.225 14.582-17.885 11.75-24.586 7.438zM384.867 616.908l-23.082-39.037 8.647-5.127 19.13 32.444 19.644-11.712 4.198 6.907zM422.808 533.645l11.635-12.762c2.716-2.98 4.725-5.194 6.243-6.488 4.699-4.002 11.29-4.186 15.663-.176 3.343 3.066 4.561 6.14 3.432 10.756 4.428-3.415 9.26-2.676 13.342.574 3.498 2.783 5.613 7.208 5.299 10.92-.185 2.18-1.463 4.554-3.015 6.816-.967 1.409-3.695 4.423-7.98 9.36l-9.352 10.777zm12.697-2.08 7.984 6.707 2.683-3.194c2.563-3.05 4.117-4.989 4.662-5.796 1.67-2.471 2.227-5.496-.299-7.617-2.432-2.043-5.003-1.312-7.13.743-.735.71-2.655 2.913-5.749 6.597zm13.688 11.607 9.266 7.547 4.514-5.166c2.427-2.778 3.848-4.662 4.356-5.533 1.572-2.69 1.301-5.071-1.225-7.202-2.178-1.837-4.244-1.402-6.631-.177-1.299.667-3.13 2.633-6.263 6.093zM266.322 677.161l-5.975-.006.112-21.581c-2.015 2.03-4.008 4.474-6.296 3.787l-.008-5.066c1.696-.76 3.266-1.808 4.657-3.427 1.475-1.717 2.057-2.777 2.691-4.598h4.679l.14 30.89zm8.703-7.915 5.155-.154c.224 1.283.928 3 2.718 2.985 2.688-.023 3.633-5.291 3.814-8.085-.956 1.842-2.869 2.768-5 2.758-4.574-.023-7.17-5.17-7.17-9.992 0-5.54 3.16-10.432 8.045-10.488 7.03-.08 9.45 8.36 9.355 15.095-.096 6.933-1.22 16.312-9.925 16.312-4.852 0-6.964-5.16-6.992-8.431zm11.084-11.847c0-2.427-.993-5.563-3.396-5.544-2.702.02-2.804 2.66-2.804 4.968 0 2.446.38 5.37 3.062 5.323 2.577-.045 3.138-2.399 3.138-4.747zm10.547 11.19 5.534-.552c.228 2.132 1.13 4.134 3.48 4.134 2.095 0 3.109-2.598 3.109-5.165 0-2.7-.73-5.37-3.464-5.416-1.557-.026-2.368.394-3.299 2.167l-4.5-.787 2.512-16.183h13.294l.024 6.092h-8.95l-.774 4.57c1.056-.742 1.96-1.042 3.212-1.06 4.847-.07 7.412 5.66 7.412 10.338 0 5.666-3.287 10.787-8.897 10.95-5.27.154-8.032-3.926-8.693-9.088zm30.395-22.319c7.668-.006 8.213 9.493 8.386 15.711.187 6.753-1.004 15.733-8.361 15.696-7.396-.037-8.44-9.778-8.44-16.035 0-6.195 1.162-15.366 8.415-15.372zm.102 5.468c-3.235-.023-2.952 7.74-2.952 10.126 0 2.394-.383 10.337 3.07 10.346 2.776.008 2.786-7.732 2.74-10.229-.043-2.402.143-10.223-2.858-10.243zM198.872 402.928c3.53 1 7.405 1.498 11.252 1.529 5.654.045 11.194-.923 15.436-2.805 6.846-3.037 13.024-5.619 18.847-7.511 5.923-1.926 11.459-3.125 16.91-3.346 3.338-.135 6.411.88 8.713 2.864 2.219 1.914 3.68 4.681 3.937 8.14.106 1.431.149 2.943.123 4.5a45.238 45.238 0 0 1-.275 4.375l-.21 1.832-1.772.549a49.846 49.846 0 0 0-4.953 1.809c-1.576.68-3.063 1.449-4.28 2.304h-.012l-.667.467c-2.316 1.619-4.316 3.017-5.81 5.097a7.301 7.301 0 0 0-1.348 3.87 7.191 7.191 0 0 0 .957 3.955c.455.796 1.072 1.8 1.659 2.753 1.052 1.71 2.011 3.27 2.84 5.108a72.888 72.888 0 0 1 5.017-3.885c2.788-1.971 5.78-3.785 8.829-5.267l.826-.402.912.169c2.957.548 5.442.87 7.779.929 2.287.058 4.495-.135 6.954-.612 3.928-.76 8.092-1.644 12.293-2.724 4.22-1.086 8.631-2.407 13.14-4.067 1.354-.498 2.47-1.171 3.357-1.94.95-.824 1.645-1.76 2.092-2.703l.066-.133 5.531-10.313.034-.055c2.031-3.569 4.544-6.478 7.659-8.477 3.186-2.046 6.938-3.114 11.363-2.936l56.126 2.26c-5.509-2.534-11.053-4.978-16.55-7.146-8.784-3.465-17.434-6.222-25.587-7.5-4.008-.627-8.16-.997-12.137-.837-3.828.155-7.486.81-10.666 2.22-4.678 2.076-9.283 3.696-14.01 4.774a58.564 58.564 0 0 1-14.643 1.47c-6.252-.157-11.792-.74-17.577-2.1-5.787-1.362-11.803-3.493-19.005-6.744-5.862-2.648-12.621-3.966-19.73-3.863-7 .102-14.34 1.583-21.509 4.53-6.415 2.636-12.596 5.937-18.41 9.71a123.708 123.708 0 0 0-13.501 10.152zm11.208 7.176c-6.208-.05-12.534-1.197-17.761-3.546l-3.888-1.748 3.113-2.903a129.658 129.658 0 0 1 17.75-13.87c6.1-3.958 12.593-7.425 19.34-10.198 7.833-3.22 15.885-4.838 23.591-4.95 7.945-.115 15.523 1.369 22.123 4.35 6.855 3.095 12.542 5.113 17.963 6.389 5.424 1.276 10.599 1.821 16.426 1.968a53.07 53.07 0 0 0 13.27-1.337c4.302-.982 8.573-2.491 12.97-4.442 3.858-1.712 8.213-2.503 12.725-2.685 4.363-.176 8.88.224 13.222.904 8.661 1.357 17.69 4.223 26.784 7.81 9.014 3.554 18.11 7.82 26.975 12.02l2.425 1.15-2.207 5.415-69.051-2.782c-3.189-.128-5.855.618-8.086 2.05-2.288 1.469-4.185 3.686-5.767 6.45l-5.504 10.264c-.764 1.585-1.918 3.136-3.469 4.48-1.387 1.202-3.088 2.239-5.105 2.98-4.59 1.69-9.206 3.068-13.694 4.222-4.505 1.159-8.73 2.059-12.626 2.814-2.83.548-5.418.77-8.15.7-2.42-.062-4.902-.353-7.732-.849-2.467 1.257-4.91 2.765-7.226 4.401a65.738 65.738 0 0 0-7.564 6.229l-3.464 3.336-1.23-4.654c-.84-3.175-2.148-5.302-3.682-7.794-.5-.815-1.024-1.665-1.747-2.931a12.78 12.78 0 0 1-1.688-7.034c.129-2.51.997-4.91 2.412-6.88 2.048-2.853 4.417-4.509 7.16-6.426l.66-.462-.004-.005c1.58-1.111 3.41-2.066 5.3-2.88a50.77 50.77 0 0 1 3.71-1.418c.048-.686.077-1.364.088-2.032.022-1.29-.02-2.64-.122-4.013-.138-1.858-.875-3.304-1.989-4.264-1.205-1.04-2.896-1.568-4.792-1.491-4.867.197-9.914 1.302-15.383 3.08-5.57 1.81-11.6 4.333-18.315 7.313-4.943 2.192-11.316 3.32-17.762 3.27z" style="fill:#ca0500;fill-rule:evenodd" transform="translate(-35.094 -111.431)"/><path d="m113.128 111.436 379.709.569 66.52 73.027-3.912 5.572c-7.795 11.098-13.883 23.394-17.991 37.104-4.155 13.864-6.304 29.15-6.168 46.071.147 18.458 2.4 37.676 5.84 56.685 3.452 19.074 8.13 38.022 13.091 55.822 4.823 17.301 7.348 28.977 8.65 39.388 1.295 10.343 1.369 19.5 1.294 31.77-.24 39.471-17.536 79.434-52.868 119.627-33.799 38.449-84.276 77.287-152.312 116.288l-1.178.675c-16.628 9.529-34.566 19.81-50.133 32.37l-5.027 4.055-5.238-3.756c-18.567-13.313-38.864-25.373-59.628-37.71a3165.318 3165.318 0 0 1-16.527-9.875c-48.382-29.106-93.607-61.452-126.838-98.824-33.903-38.127-55.385-81.438-55.318-131.791.028-21.177 4.294-36.177 9.994-56.223 2.255-7.928 4.739-16.661 7.114-26.242 9.307-37.541 14.251-74.042 11.884-105.967-2.009-27.098-9.306-50.785-23.756-68.754l-4.77-5.933 74.055-73.953 3.513.005zm82.702 244.932V255.357h28.5v101.011Zm-1.25-101.011h-3.522l-32.062 31.292c15.597 16.687 16.527 33.378 16.876 50.062.774 37.044-16.08 62.377-15.916 91.782.184 33.023 16.131 58.365 36.045 77.644 27.89 28.893 70.078 51.286 105.638 74.489 29.865-20.004 70.6-40.822 100.92-69.633 21.34-20.278 40.912-46.154 40.781-84.938-.07-20.555-15.997-55-15.925-92.717.036-18.85 3.322-34.484 16.91-46.83l-28.97-31.151h-6.49v101.011h-28.5V255.357h-35.279v101.011h-28.5V255.357Zm86.443 0v101.011h-28.5V255.357Zm-97.85 104.982h236.788c2.622 30.075 13.507 45.243 13.034 69.693.004 7.8-2.204 17.335-4.814 27.057H175.236c-2.734-9.297-5.042-19.343-4.87-29.015 0-22.641 11.307-42.376 12.807-67.735zm133.413 100.313h28.217v85.92l-28.217 17.009zm-65.055 0h29.35v99.527l-29.35-19.276zm129.118 60.976v-60.976h28.217v36.314c-9.007 9.171-18.397 17.429-28.217 24.662zm-184.677-60.976h28.217l.08 60.609c-10.475-6.33-19.992-14.523-28.217-25.229 0-11.82-.08-23.559-.08-35.38zM79.593 245.474h436.615c1.15-7.9 2.815-15.432 4.969-22.616 3.958-13.21 9.549-25.271 16.578-36.33l-52.462-57.593-368.653-.552-58.516 58.435c11.49 16.615 18.334 36.523 21.47 58.656zm435.468 9.883H281.023zm-320.482 0H80.737c.106 1.167.204 2.34.29 3.518 2.505 33.78-2.638 72.05-12.349 111.216-2.626 10.592-5.048 19.108-7.246 26.84-5.36 18.85-9.372 32.954-9.396 51.572-.061 45.64 19.77 85.302 51.065 120.497 31.966 35.949 75.826 67.277 122.853 95.568 3.71 2.232 10.102 6.03 16.46 9.809 19.287 11.46 38.178 22.685 55.694 34.843 15.344-11.645 31.846-21.104 47.257-29.935l1.178-.676c66.375-38.048 115.415-75.705 147.994-112.766 32.541-37.019 48.47-73.24 48.683-108.466.069-11.356-.002-19.852-1.228-29.644-1.216-9.724-3.586-20.67-8.118-36.93-5.054-18.13-9.84-37.55-13.424-57.35-3.595-19.866-5.95-40.034-6.106-59.541-.05-6.393.192-12.575.717-18.555z" style="fill:#cb0503;fill-rule:evenodd" transform="translate(-35.094 -111.431)"/><path d="m191.058 255.357-32.062 31.292c15.597 16.687 16.527 33.378 16.876 50.062.774 37.044-16.08 62.377-15.916 91.782.184 33.023 16.131 58.365 36.045 77.644 27.89 28.893 70.078 51.286 105.638 74.489 29.865-20.004 70.6-40.822 100.92-69.633 21.34-20.278 40.912-46.154 40.781-84.938-.07-20.555-15.997-55-15.925-92.717.036-18.85 3.322-34.484 16.91-46.83l-28.97-31.151" style="fill:none" transform="translate(-35.094 -111.431)"/><path d="M183.173 360.339h236.788c2.622 30.075 13.507 45.243 13.034 69.693.004 7.8-2.204 17.335-4.814 27.057H175.236c-2.734-9.297-5.042-19.343-4.87-29.015 0-22.641 11.307-42.376 12.807-67.735z" style="fill:none" transform="translate(-35.094 -111.431)"/><path d="M261.54 396.442c-4.867.197-9.915 1.302-15.384 3.08-5.57 1.81-11.599 4.333-18.315 7.313-4.942 2.192-11.316 3.32-17.761 3.27-6.208-.05-12.534-1.198-17.761-3.547l-3.888-1.748 3.113-2.903a129.658 129.658 0 0 1 17.75-13.87c6.1-3.958 12.593-7.425 19.34-10.198 7.833-3.22 15.885-4.838 23.591-4.95 7.945-.116 15.523 1.369 22.123 4.35 6.855 3.095 12.542 5.113 17.963 6.389 5.424 1.276 10.599 1.821 16.426 1.968a53.07 53.07 0 0 0 13.27-1.337c4.302-.982 8.573-2.491 12.97-4.442 3.858-1.712 8.213-2.503 12.725-2.685 4.363-.176 8.88.224 13.222.904 8.661 1.357 17.69 4.223 26.784 7.81 9.014 3.554 18.11 7.82 26.975 12.02l2.425 1.15-2.207 5.414-69.051-2.78c-3.189-.13-5.855.617-8.086 2.049-2.288 1.468-4.185 3.686-5.767 6.45l-5.504 10.264c-.764 1.585-1.918 3.135-3.469 4.48-1.387 1.202-3.088 2.239-5.105 2.98-4.59 1.69-9.206 3.068-13.694 4.222-4.505 1.159-8.73 2.059-12.626 2.814-2.83.548-5.418.77-8.15.7-2.42-.062-4.902-.353-7.732-.849-2.467 1.257-4.91 2.765-7.226 4.401a65.738 65.738 0 0 0-7.564 6.229l-3.464 3.336-1.23-4.654c-.84-3.175-2.148-5.302-3.682-7.795-.5-.814-1.024-1.664-1.747-2.93a12.78 12.78 0 0 1-1.688-7.034c.129-2.51.997-4.91 2.412-6.88 2.048-2.853 4.417-4.509 7.16-6.426l.66-.462-.004-.005c1.58-1.111 3.41-2.066 5.3-2.88a50.77 50.77 0 0 1 3.71-1.418c.048-.686.077-1.364.088-2.032.022-1.29-.02-2.64-.122-4.013-.138-1.858-.875-3.304-1.989-4.264-1.205-1.04-2.896-1.568-4.792-1.491zm158.421-36.103H183.173c-1.5 25.36-12.807 45.094-12.807 67.735-.172 9.672 2.135 19.718 4.87 29.015h252.945c2.61-9.722 4.818-19.257 4.814-27.057.473-24.45-10.412-39.618-13.034-69.693z" style="fill:#fff;fill-rule:evenodd" transform="translate(-35.094 -111.431)"/><path d="M274.09 406.299a45.238 45.238 0 0 1-.275 4.375l-.21 1.832-1.772.549a49.846 49.846 0 0 0-4.953 1.809c-1.576.68-3.063 1.449-4.28 2.304h-.012l-.667.467c-2.316 1.619-4.316 3.017-5.81 5.097a7.301 7.301 0 0 0-1.348 3.87 7.191 7.191 0 0 0 .957 3.955c.455.796 1.072 1.8 1.659 2.753 1.052 1.71 2.011 3.27 2.84 5.108a72.888 72.888 0 0 1 5.017-3.885c2.788-1.971 5.78-3.785 8.829-5.267l.826-.402.912.169c2.957.548 5.442.87 7.779.929 2.287.058 4.495-.135 6.954-.612 3.928-.76 8.092-1.644 12.293-2.724 4.22-1.086 8.631-2.407 13.14-4.067 1.354-.498 2.47-1.171 3.357-1.94.95-.824 1.645-1.76 2.092-2.703l.066-.133 5.531-10.313.034-.055c2.031-3.569 4.544-6.478 7.659-8.477 3.186-2.046 6.938-3.114 11.363-2.936l56.126 2.26c-5.509-2.534-11.053-4.978-16.55-7.146-8.784-3.465-17.434-6.222-25.587-7.5-4.008-.627-8.16-.997-12.137-.837-3.828.155-7.486.81-10.666 2.22-4.678 2.076-9.283 3.696-14.01 4.774a58.564 58.564 0 0 1-14.643 1.47c-6.252-.157-11.792-.74-17.577-2.1-5.787-1.362-11.803-3.493-19.005-6.744-5.862-2.648-12.621-3.966-19.73-3.863-7 .102-14.34 1.583-21.509 4.53-6.415 2.636-12.596 5.937-18.41 9.71a123.708 123.708 0 0 0-13.501 10.152c3.53 1 7.405 1.498 11.252 1.529 5.653.045 11.194-.923 15.436-2.805 6.846-3.037 13.024-5.619 18.847-7.511 5.923-1.926 11.459-3.125 16.91-3.346 3.338-.135 6.411.88 8.713 2.864 2.219 1.914 3.68 4.681 3.937 8.14.106 1.431.149 2.943.123 4.5z" style="fill:#fff;fill-rule:evenodd" transform="translate(-35.094 -111.431)"/><path d="M195.83 356.368h28.5V252.305h-28.5zM252.523 356.368h28.5V252.305h-28.5zM316.586 356.368h28.5V252.305h-28.5zM380.366 356.368h28.5V252.305h-28.5zM380.65 521.628c9.819-7.233 19.209-15.491 28.216-24.662v-36.314h-28.217zM316.586 563.58l28.217-17.007v-85.921h-28.217zM251.531 540.903l29.35 19.276v-99.527h-29.35zM196.052 496.032c8.225 10.706 17.741 18.898 28.217 25.229l-.08-60.61h-28.217c0 11.822.08 23.56.08 35.381z" style="fill:none" transform="translate(-35.094 -111.431)"/><path d="M195.83 356.368h28.5V255.357h-28.5zM252.523 255.357v101.011h28.5V255.357ZM316.586 255.357v101.011h28.5V255.357ZM380.366 255.357v101.011h28.5V255.357ZM224.189 460.652h-28.217c0 11.821.08 23.56.08 35.38 8.225 10.706 17.742 18.898 28.217 25.229zM251.531 460.652v80.251l29.35 19.276v-99.527zM316.586 460.652V563.58l28.217-17.008v-85.921zM380.65 460.652v60.976c9.819-7.233 19.209-15.491 28.216-24.662v-36.314zM79.593 245.474h436.615c1.15-7.9 2.815-15.432 4.969-22.616 3.958-13.21 9.549-25.271 16.578-36.33l-52.462-57.593-368.653-.552-58.516 58.435c11.49 16.615 18.334 36.523 21.47 58.656zm79.214-54.834c-4.025 3.778-10.178 5.66-18.443 5.66h-11.226v24.518h-20.54v-66.246h34.048c7.417 0 12.969 1.758 16.67 5.289 3.685 3.531 5.536 8.558 5.536 15.081 0 6.693-2.02 11.935-6.045 15.698zm16.7 30.178v-66.246h54.773v14.156h-34.233v10.547h31.735v13.508h-31.735v13.046h35.251v14.989zm67.002 0v-66.246h19.106l24.842 36.577v-36.577h19.337v66.246h-19.337l-24.704-36.377v36.377zm77.163 0v-66.246h30.425c5.983 0 10.84.817 14.526 2.436 3.685 1.635 6.739 3.963 9.16 7.001 2.405 3.053 4.148 6.585 5.227 10.625 1.095 4.04 1.635 8.311 1.635 12.83 0 7.077-.802 12.567-2.421 16.468-1.604 3.902-3.84 7.17-6.708 9.808-2.868 2.637-5.937 4.395-9.222 5.274-4.487 1.202-8.558 1.804-12.197 1.804zm70.486-52.799.052-13.164h19.129l-.283 13.257zm32.484 52.799v-66.246h20.447v25.027l21.45-25.027h27.217l-24.18 24.888 25.29 41.358h-25.181l-13.971-27.202-10.625 11.072v16.13zm-32.432 0v-47.829l19.188.015-.059 47.72z" style="fill:#fff;fill-rule:evenodd" transform="translate(-35.094 -111.431)"/><path d="M134.18 182.884c3.979 0 6.77-.694 8.374-2.067 1.603-1.372 2.405-3.13 2.405-5.273 0-2.082-.694-3.84-2.097-5.29-1.388-1.45-4.01-2.174-7.864-2.174h-5.86v14.804zM340.12 169.56v36.177h5.027c4.287 0 7.34-.478 9.16-1.42 1.804-.955 3.222-2.605 4.256-4.964 1.033-2.375 1.542-6.2 1.542-11.504 0-7.016-1.141-11.812-3.44-14.403-2.297-2.59-6.106-3.885-11.426-3.885zM159.956 428.493c-.164-29.405 16.69-54.738 15.916-91.782-.349-16.684-1.279-33.375-16.876-50.062l32.062-31.292H80.737c.106 1.167.204 2.34.29 3.518 2.506 33.78-2.638 72.05-12.349 111.216-2.626 10.592-5.048 19.108-7.246 26.84-5.36 18.85-9.371 32.954-9.396 51.571-.061 45.641 19.77 85.303 51.065 120.498 31.966 35.949 75.826 67.277 122.853 95.568 3.71 2.232 10.102 6.03 16.46 9.809 19.287 11.46 38.178 22.685 55.694 34.843 15.344-11.645 31.846-21.104 47.257-29.935l1.178-.676c66.375-38.048 115.415-75.705 147.994-112.766 32.541-37.019 48.47-73.24 48.683-108.466.069-11.356-.002-19.852-1.228-29.644-1.216-9.724-3.586-20.67-8.118-36.93-5.054-18.13-9.84-37.55-13.424-57.35-3.595-19.866-5.95-40.034-6.106-59.541-.05-6.393.192-12.575.717-18.555h-99.706l28.97 31.15c-13.588 12.347-16.873 27.98-16.91 46.832-.072 37.716 15.856 72.161 15.925 92.716.131 38.783-19.44 64.66-40.78 84.938-30.32 28.81-71.056 49.629-100.921 69.633-35.56-23.203-77.748-45.596-105.638-74.49-19.914-19.278-35.861-44.62-36.045-77.643zm60.89 139.048 17.897 9.5c4.794 2.543 8.33 4.764 9.681 6.972 2.01 3.282 2.106 8.017.047 12.362-2.64 5.57-10.637 8.565-16.441 6.049 2.909 4.328 3.319 10.126 3.649 15.141l.61 9.277-10.728-5.193-.753-11.047c-.297-4.377-.904-6.894-1.139-8.214-.227-1.282-.864-2.73-1.673-3.53-1.867-1.849-3.94-2.807-5.113-3.45l-9.092 16.97-8.548-5.03zm-88.906-82.294c2.299-.36 4.567.01 6.819 1.108 2.252 1.1 4.85 2.872 6.915 5.396 5.32 6.504 6.25 10.693 6.037 14.409-.213 3.723-2.892 7.18-5.989 10.024l-6.138-7.585c1.54-1.806 2.378-2.435 2.805-3.97.534-1.92-1.371-5.796-3.045-7.544-1.708-1.784-2.204-2.614-3.913-2.982-1.102-.236-2.1.02-2.994.789-.813.7-1.233 1.626-1.277 2.778-.056 1.474.447 3.216 2.28 7.125 1.832 3.906 2.528 6.77 3.087 9.08.546 2.252.716 5.18-.048 7.32-.765 2.143-2.769 4.355-4.931 6.214-1.963 1.687-4.372 2.599-6.943 3.023-2.57.425-5.337-.043-7.729-1.24-2.395-1.199-5.057-3.157-7.317-6.169-3.44-4.586-6.454-8.8-6.072-14.144.323-4.537 2.653-9.103 6.674-12.34l6.81 7.201c-2.971 2.309-3.886 5.371-3.98 7.471-.094 2.1 1.499 4.723 3.14 6.737 1.734 2.13 3.217 2.719 5.039 2.99 1.822.27 2.71.055 3.971-1.028.813-.699 1.211-1.507 1.414-2.454.201-.937.38-1.82-.125-3.311-.345-1.02-1.074-3.279-2.6-6.655-1.965-4.342-2.74-7.878-2.56-10.469.251-3.64 1.879-6.627 4.6-8.966a12.093 12.093 0 0 1 6.07-2.808zm-6.287 57.156 34.896-29.53 9.966 11.585c4.063 4.723 6.137 7.409 6.978 9.162 2.12 4.416.524 10.386-4.824 14.955-5.156 4.405-11.36 4.437-15.905 1.84-2.157-1.233-4.596-3.48-7.695-6.926l-4.298-4.777-12.743 11.011zm45.133 13.41c7.765-8.274 19.088-12.17 30.436-3.34 11.152 8.677 12.518 20.681 3.76 32.027-9.014 11.677-20.918 14.371-31.872 5.495-12.963-10.504-13.131-22.667-2.324-34.182zm83.368 98.482c1.697-.76 3.267-1.808 4.657-3.426 1.476-1.717 2.058-2.777 2.692-4.599h4.679l.14 30.891-5.974-.006.11-21.581c-2.014 2.03-4.006 4.474-6.295 3.787l-.008-5.067zm20.87 14.95 5.156-.153c.224 1.283.928 3 2.718 2.985 2.688-.023 3.633-5.291 3.814-8.085-.956 1.842-2.869 2.768-5 2.757-4.574-.023-7.17-5.168-7.17-9.991 0-5.54 3.16-10.432 8.045-10.488 7.03-.08 9.45 8.36 9.355 15.095-.096 6.933-1.22 16.312-9.925 16.312-4.852 0-6.964-5.16-6.992-8.431zm21.632-.656 5.534-.552c.228 2.132 1.13 4.134 3.48 4.134 2.095 0 3.109-2.599 3.109-5.165 0-2.7-.73-5.37-3.464-5.416-1.557-.026-2.368.394-3.299 2.167l-4.5-.788 2.512-16.183h13.294l.024 6.093h-8.95l-.774 4.57c1.056-.742 1.96-1.042 3.212-1.06 4.847-.07 7.412 5.66 7.412 10.338 0 5.666-3.287 10.787-8.897 10.95-5.27.154-8.032-3.926-8.693-9.088zm-11.648-32.219.152-45.399 9.958.061.066 19.879 18.316-19.804 9.956-.009-.309-.951 9.772-2.941 7.117 23.756c2.277 7.602 4.544 12.991 13.2 9.89 7.327-2.626 6.104-7.884 3.824-14.605l-8.091-23.858 9.854-2.778 8.694 28.905c1.803 5.994 2.867 15.265-11.351 20.002-16.371 5.453-21.284-2.22-23.744-9.8l-8.173-25.178-15.315 15.426 18.59 27.372-12.658.542-12.586-21.525-7.226 7.242.2 13.728-10.246.045zm42.044 9.9c7.667-.006 8.212 9.493 8.385 15.711.187 6.753-1.004 15.733-8.361 15.696-7.396-.037-8.44-9.778-8.44-16.035 0-6.195 1.162-15.366 8.416-15.372zm101.163-83.902-16.936-18.65 7.928-6.478 19.501 23.038c4.045 4.778 8.719 12.855-2.43 22.87-12.838 11.53-20.403 6.453-25.682.484l-19.902-22.501 7.788-6.595 16.002 18.946c5.12 6.063 9.349 10.101 16.05 3.803 5.671-5.329 2.452-9.663-2.32-14.917zm22.43-60.905 5.705-8.46 20.544 13.89c6.575 4.445 11.74 7.184 16.48-.696 4.012-6.67-.263-9.967-6.281-13.728l-21.364-13.353 5.873-8.387 25.023 16.88c5.19 3.5 11.88 10.005 3.868 22.67-9.225 14.583-17.885 11.75-24.586 7.438zm-65.778 115.445-23.082-39.037 8.647-5.127 19.13 32.444 19.645-11.712 4.197 6.906zm37.94-83.263 11.636-12.762c2.716-2.98 4.725-5.194 6.244-6.488 4.698-4.002 11.29-4.186 15.662-.176 3.343 3.066 4.561 6.14 3.432 10.756 4.428-3.415 9.26-2.676 13.343.574 3.497 2.782 5.612 7.208 5.298 10.921-.185 2.18-1.463 4.553-3.015 6.815-.967 1.409-3.695 4.423-7.98 9.36l-9.352 10.777z" style="fill:#fff;fill-rule:evenodd" transform="translate(-35.094 -111.431)"/><path d="m160.539 525.323-9.425 8.162 3.734 4.23c2.096 2.374 2.878 3.114 4.123 3.836 1.245.721 2.375 1.251 3.65 1.172 1.268-.079 2.41-.542 3.432-1.42 1.254-1.077 2.099-2.563 2.208-4.079.11-1.524-.432-2.809-1.31-4.251-.642-1.054-1.032-1.386-3.435-4.184zM177.396 563.26c-5.767 6.962-8.026 14.103-.468 19.749 6.98 5.215 14.758 2.812 19.741-3.989 4.802-6.554 8.477-13.584.436-19.768-7.194-5.534-14.317-2.501-19.71 4.009zM225.828 578.848l-5.517 9.835 5.862 3.594c4.194 2.57 5.781 2.726 7.037 2.99 2.586.545 4.723-.48 5.985-2.789 1.559-2.852.528-5.455-1.963-7.303-.678-.503-1.57-.742-5.178-2.79zM435.505 531.565l7.983 6.707 2.684-3.194c2.563-3.05 4.117-4.989 4.662-5.796 1.67-2.471 2.227-5.496-.299-7.617-2.432-2.043-5.002-1.312-7.13.743-.735.71-2.654 2.913-5.749 6.597zM459.473 532.641c-1.299.666-3.13 2.632-6.263 6.093l-4.017 4.438 9.266 7.547 4.514-5.166c2.427-2.778 3.848-4.662 4.356-5.533 1.572-2.69 1.301-5.071-1.225-7.202-2.178-1.837-4.244-1.402-6.631-.177zM286.11 657.399c0-2.427-.994-5.563-3.397-5.544-2.702.02-2.804 2.66-2.804 4.968 0 2.446.38 5.37 3.062 5.323 2.577-.045 3.138-2.399 3.138-4.747zM324.201 661.864c0 2.394-.383 10.337 3.07 10.346 2.776.008 2.786-7.732 2.74-10.229-.043-2.402.143-10.223-2.858-10.243-3.235-.023-2.952 7.74-2.952 10.126z" style="fill:#fff;fill-rule:evenodd" transform="translate(-35.094 -111.431)"/><path d="m456.748 487.986-6.4-4.227-4.228 6.4 6.4 4.228zM453.404 479.227l6.467 4.124 4.124-6.468-6.468-4.123zM411.526 540.5l-5.207-5.632-5.632 5.207 5.207 5.632zM401.534 549.514l-5.045-5.778-5.778 5.044 5.044 5.778z" style="fill:#cb0503;fill-rule:evenodd" transform="translate(-35.094 -111.431)"/></svg>