<svg xmlns="http://www.w3.org/2000/svg" xml:space="preserve" width="352.08533" height="437.99295" viewBox="0 0 352.08533 437.99296"><defs><clipPath id="a" clipPathUnits="userSpaceOnUse"><path d="M0 335.646h270.969V0H0Z"/></clipPath></defs><g clip-path="url(#a)" transform="matrix(1.33333 0 0 -1.33333 -5.793 442.603)"><path d="M0 0v-127.948c0-19.563 7.402-92.526 42.826-124.248 35.423-31.723 83.536-63.975 83.536-63.975s53.401 30.137 78.779 59.745c25.378 29.609 47.584 34.895 47.584 190.866V0Z" style="fill:#fff;fill-opacity:1;fill-rule:nonzero;stroke:none" transform="translate(10.015 326.282)"/><path d="M0 0v-127.948c0-19.563 7.402-92.526 42.826-124.248 35.423-31.723 83.536-63.975 83.536-63.975s53.401 30.137 78.779 59.745c25.378 29.609 47.584 34.895 47.584 190.866V0Z" style="fill:none;stroke:#e32314;stroke-width:1;stroke-linecap:butt;stroke-linejoin:miter;stroke-miterlimit:10;stroke-dasharray:none;stroke-opacity:1" transform="translate(10.015 326.282)"/><path d="M0 0c.439.246 1.064.705 2.108 1.601 3.718 3.186 7.851 5.659 12.03 8.165 2.416 1.486 2.689 3.765.697 6.435-2.12 2.826-3 5.8-4.564 8.885 6.221 3.686 6.578 6.124 10.179 11.886 5.986-3.83 6.871-6.031 7.816-12.88-2.954-4.431-4.154-8.578-5.378-13.662-1.308-5.397-5.306-6.671-9.968-7.149-.286-.03-.515-.054-.67-.094-1.675-.502-.352-2.387-2.012-3.362-1.643-.965-2.48.303-4.695-1.046C3.727-2.327 2.08-2.768-.133-2.325c-2.2.439-4.222.733-6.498.809v.55c0 3.055 3.715 1.195 5.336 1.617.123.033.248.052.372.052A.933.933 0 0 0 0 0m4.102 7.231C1.91 5.04 1.169 4.413-2.058 3.274c-.609-.215-.932.699-.323.914C.71 5.279 1.325 5.826 3.417 7.917c.456.457 1.142-.229.685-.686m3.287 9.951c.854-1.367-1.067-7.259 2.349-3.63 1.366-.384 1.281.213 3.629-1.067-1.067 4.27-3.629.854-5.978 4.697M-7.216 54.759c-1.068 1.922-1.495-6.064-2.477-3.075.298 1.709.854 2.434.556 4.27-.258 1.623 4.056 1.922 4.355-3.544-2.477-.854-2.007.983-2.434 2.349m-3.972 4.484c-.641-2.221-.299-10.12-1.793-5.85-3.759-1.068-1.239 3.116-1.922 4.996 1.537.383 2.177.469 3.715.854m-24 17.422c-1.281 1.152-1.068 1.579.299 2.135l-2.221 1.707c-1.281-1.068-1.281-2.049-4.826-.341-.085-.213-.298-.342-.427-.513 6.705-1.921 3.673-5.038.342-4.056-1.708.512-5.338-3.118 2.648-2.776.384-.683.513-1.451 1.196-1.835.726-.428 2.648-.214 4.142 0 6.961 1.067 3.801 5.337-.215 2.69-3.074-2.05-4.354-2.05-3.5.512-2.349-1.709-1.666.47-1.41.769.769.853 2.392 2.006 3.972 1.708m1.793 3.842c4.698-1.28 9.523-1.622 9.523-1.921 0-1.068 1.721-2.262.727-2.776-.519-.268-.915.021-1.495.086-3.835.432-6.229 1.694-8.755 4.611m-30.747-17.422-3.844-.854-3.288-2.22-1.836-3.33 4.27 2.562 1.709 1.708zm50.819-14.518-.854-2.562 2.989-.427zM22.762 7.275l1.281 3.416 5.125 1.708zm-9.907-5.679 5.851-.427 3.417 2.135-4.698-1.068Zm-46.036 94.711c.811-1.837 1.794-2.477 2.136-4.825.426-2.647 1.494-4.057 2.049-5.85.128-.47 1.495-3.63-1.195-.94-2.734 2.733-3.802 4.997-5.338 8.285-.47-.641-.428-1.452-.812-2.136-.085-.214-.343-2.733-.683-.085-.897 7.173-2.947 9.693-6.15 8.199 1.452-2.179 2.391-3.459 3.843-5.637 0 1.152-.469 3.117-.085 3.074.769-.085 1.018-.828 1.239-1.58.149-.511-.128-1.067.042-1.366.854-1.409.257-3.673-1.025-8.241-.256-.94-1.025-1.922.556-2.69 1.708-.854 2.348 1.835 3.203 3.415.341.641 1.458.28 2.135-.213 1.183-.863-.384-2.306-.555-3.715l7.9-.555c-.983 7.472-2.562 12.81-7.26 14.86m-15.46-4.697H-48v-.769h-.641zm18.022-21.777c-.854-1.751-.64-3.117-2.348-4.612-.983-.855-1.283-2.008-1.794-3.417-.47-1.323-2.007-1.409-3.544 1.068-6.705.982-2.222 2.135-5.851 2.904 0 0-1.709.683 1.153.427 2.178-.171 3.369-.602 5.466-.214 3.035.562 4.271 2.434 6.918 3.844m-15.16-3.63c-1.452-.513-2.007-.214-3.715-1.282 1.708-.981 3.758-2.519 4.099-2.647.256-.086.684.342.726.641.171.812-1.623 2.349-1.11 3.288m-15.588-3.63c3.545-.469 6.193 0 11.232-1.622 1.367-.086.811 2.391.086 1.836-.727-.556-2.136-.983-2.434.213-.684 2.861-6.151-.17-8.884-.427m-13.537-10.248c-1.068-.256-1.708-.513-2.776-.769.982 1.069 1.538 1.794 2.434 2.903 1.708.855 1.751-1.195.342-2.134m59.788 38.003c-1.624 3.203 6.405 3.502 3.501 3.929-1.922-.47-4.27-.512-4.911-1.28-.299-.385.24-1.01-.085-1.495-.337-.502-1.039-.165-1.41-.641-.707-.906 1.88-.299 2.905-.513m6.704-4.482c.214 2.006-.598 3.799-2.435 4.355-1.195 1.707-3.842.214-2.134-1.495.641-.641 1.708-1.707 1.152-3.203 1.196-.427 1.623-1.28.769-2.775.94-.982 1.068-1.495-.213-2.647 1.366-.854 2.007-1.281.854-3.844-.555-1.323.683-1.409 1.068-2.263.128 1.879 2.776 2.691.426 5.125.342 1.921.855 4.056.513 6.747m-9.908-10.591c2.221.214 6.064.342 5.851.769-2.135.598-5.765 2.434-6.192 1.367-.341-.855.341-1.24.341-2.136m5.424-4.568c-1.922 1.109-3.075 1.878-4.997 2.989 1.708-.172 3.026.224 4.698-.555 1.256-.587 3.681-1.171 2.776-2.221-.633-.735.213-1.709-2.477-.213m-4.271-1.282c-1.024 1.495-1.75 2.435-2.775 3.928.086.513-.086 1.282.426 1.41.342.085-3.629.426-3.501 0 .171-.683 1.163-.545 1.58-1.196.259-.403.769-1.068.427-1.153-1.794-.554 1.836-.213 3.843-2.989m10.165 9.181c0 1.153-.042.939-.983 1.921-.342.385.469.641.854.641 1.495.085 2.349-.982 4.612-.128 0-1.367.854-2.648 2.35-3.629-2.776-1.282-4.571 2.604-6.833 1.195m-1.495-7.921c0 .177.21.321.47.321.259 0 .469-.144.469-.321 0-.177-.21-.32-.469-.32-.26 0-.47.143-.47.32M7.304 88.919c1.494 3.545-2.904 4.399-3.631 7.26-.34-2.136-2.903-2.136-5.551-1.922-2.221.171-2.392.427-3.843.641.981-1.196.512-4.398 2.647-3.203-1.708 2.989 5.68 1.623 3.844-1.579.426-2.264 2.775 3.842 4.056 1.921.044-1.026-.436-1.974.342-2.691.626-.574 1.367-.299 2.136-.427m-14.395 5.17c.832-2.957 1.822-3.794 2.024-7.234.038-.644-.93-.702-.968-.057-.186 3.162-1.202 4.23-1.989 7.029-.176.622.758.885.933.262m14.906-5.896c-.297.171-1.152-.811-1.579-1.494-.47-.683.133-.706.47-.939.606-.42 2.092.042 1.708.811-.299.512-.47 1.537-.599 1.622m-3.031-5.892c-.342 1.537 2.177 1.922 1.538 2.477-1.111-.129-1.794-.727-2.819-.384-.044-1.836-.556-2.947-2.093-3.844 3.545-.128 3.63.086 3.374 1.751m-23.659-14.946c1.495-.854-2.135-2.348 0-5.337 1.281-1.836 1.708-5.637 2.776-9.181.641 9.608 1.281 16.44-6.833 17.721-.213-2.561.214-4.27 4.057-3.203m-.854-22.417c1.409.128-.085 2.988-2.434 3.202-1.067.854-1.836 3.544-4.911 2.69-3.417 1.708-4.228 1.068-3.971 1.58.213.427 7.9 0 10.675-3.416 1.709.299 3.417-1.281 4.485.855 0-2.35.64-4.271-1.709-3.844.214-2.135-.214-1.921-3.416-1.921-2.348.64.769.554 1.281.854m-10.334-1.281-1.623.854-.299-1.367 1.281-.213zm25.865 18.096 2.349-6.619c.217-.609-.697-.933-.913-.323l-2.349 6.618c-.215.609.698.933.913.324m1.124-27.79c-5.21 7.26-.086 11.914 4.612 7.644 1.409-.513 0 2.775 0 4.483l3.118-7.045c-4.57.342-5.936-2.093-7.73-5.082m3.844 23.7 6.32-14.306s3.075 2.862 2.648.428c-1.111-1.068-1.879-1.837-2.99-2.904l-8.114 19.557c4.271-2.135 16.655-5.764 20.285-19.002-1.537.256-5.082-1.195-4.142.726 1.58 3.117.598 6.961 0 5.679-1.068-2.263-1.281-1.921-3.631-.555-.512 5.765-1.408 5.978-2.262 2.049C6.62 54.118 4.4 56.509.77 57.663m7.687-20.839-.854 2.05c2.263.299 3.757.513 5.979 2.647 2.263-3.074-3.204-2.946-5.125-4.697m19.003 7.473c2.563.427 4.485-.427 7.261-2.776 3.416-1.28 3.843-2.988 3.843-6.832-1.238-.043-4.484 4.698-3.417 0 .299-1.623.556-3.928-.726-2.434-.725 2.008-1.708 5.124-1.921 1.068-4.014 3.844-5.979 7.046-10.377 10.034 2.391-.854 8.936-1.74 5.337.94M10.165 19.744c-1.708 2.349-2.562 3.416-2.99 6.405-2.562-.853-9.822 6.619-2.989-4.911 1.068-.213-.427 4.698 1.281 4.271 1.708-2.221 1.494-7.047 4.698-5.765M2.292 7.957C.546 6.831-1.224 5.762-2.961 4.619c-6.394 1.399-6.845-.827-9.446-5.161-3.894.865-4.375.193-7.944.075-3.335-.109-6.087-.19-9.421-.716-.558 2.416.665 2.917 2.813 3.089 1.59.128 3.323-.031 4.866.428C-16.94 5.331-11.426 7.34-9.019 8.113c1.699.567 3.507 1.214 3.761 3.167.058.458.071.946.123 1.472.26 2.714.613 4.787 2.004 7.077 2.022 3.235 3.599 1.856 5.22-.306.554-.736 1.175-1.64 1.914-2.645 3.49-4.711 2.46-6.231-1.711-8.921m-8.194 90.384c-.424.471-.386.966-.297 1.548.029.2.005.358-.004.412-.114.138-.213.71-.363.826-.261 1.786-.446 2.016.037 2.949l.346.634c-1.074.624-1.604.993-1.472 1.984.129 1.024 1.005 1.234 2.011 1.666.261.108.477.173.644.222l-.109.36c-.37 2.551.337 4.516 3.136 3.121 2.727-1.308 8.301-4.393 10.506-5.843 1.096-1.242 1.158-1.756-.435-2.72-1.369-.737-1.331-2.556-2.068-3.746-.114-.185-.236-.365-.33-.562 5.918-6.725 7.991-10.027 2.078-18.997-1.933-2.953-2.409-4.557-2.936-5.461-.612-1.051-1.366-1.332-3.017-1.486.819-3.438.904-6.488-1.979-10.09a2.85 2.85 0 0 1-.295-.423c.353-.281 1.186-.401 1.623-.648.439-.243 1.673-.435 2.157-.58 7.475-2.248 13.038-7.626 16.67-14.531 7.234 1.194 10.671-.083 18.375-3.872 5.54-2.442 4.156-5.114 3.744-9.535-.17-1.802.054-4.591-2.077-5.391-.95-.35-1.591-3.402-1.768-4.187-.557-2.477-1.082-5.666-1.938-8.877-1.391-5.26-3.038-6.994-6.355-10.664-.763-.845-1.519-1.762-2.253-2.941-3.035-4.856-6.667-6.209-11.811-7.381 1.527-.912 2.097-2.264 2.853-3.775h-72.983c-.206 3.136-2.001 6.248-.392 9.168 2.451 4.451 9.112 2.597 12.938 2.213 1.839-.179 2.668-1.171 3.936 1 1.02 1.774 3.927 3.059 7.161 4.247 3.289 1.209 7.208 2.4 10.614 3.89 3.944 1.69 5.749.275 6.065 6.554.414 7.667 1.746 10.447 2.881 16.706-5.201.151-9.7 2.011-13.135 3.501l-2.646-3.023-5.014 1.253-.082 1.53c-3.847.628-8.437 3.891-8.038 5.552.773 2.83 1.802 1.78 3.353 1.707.968-.045 1.852-1.478 1.811-.332-.011.313-.064.624-.075.937-3.363.799-4.157 2.037-6.421 4.177-.762.713-3.37 2.478-4.497 2.154-.183-.051-.328-.144-.518-.207-.601-.2-1.343-.147-2.811.511-4.111 1.797-10.709 3.789-14.75 2.458-1.21-.41-9.414-3.663-9.651-5.41-.06-.873 1.227-2.852.075-3.332-1.111-.444-1.916-.186-2.75-1.309-.952-1.257.14-3.997-2.05-4.401-1.978-.395-7.086.311-7.957 2.768.92 5.657 3.251 5.395 4.312 8.845 1.51 4.897 2.593 4.339 4.754 7.941 2.775 4.567 4.626 7.361 8.073 9.659 2.087 1.375 4.744 1.174 7.495.673 2.639-.481 5.564-1.291 8.548-1.499.966 1.461 1.295 2.492 2.771 3.768 1.679 1.483 2.466 4.467 2.727 5.678.27 1.117.231 1.5.181 1.594-.495.102-3.188-1.594-2.791 1.206-.766-.466-1.688-.766-2.333.152-.635.859-.769.729-1.673 1.09-1.8.71-2.916 2.909-1.467 6.304 1.1 2.539 2.129 4.549 2.59 6.029.991 3.191-1.859 1.668-2.105 3.585-.139 1.09 1.356 1.664 2.088 2.089.311.203 1.092.709 1.33 1.091-1.19.972-1.422.955-1.723 2.953l-.07.473c.874.292 1.426.552 2.375.367.74-.145 1.854-.552 3.961-1.332 1.922-.699 5.083.739 7.535.37 5.911-.892 9.359-3.266 13.161-7.797 3.165-3.771 3.548-7.023 5.14-11.448 1.028-2.927-.178-5.081 3.912-4.345 1.285.231 2.57.697 3.159.991.295.144.521.513-.201 1.56-.641.929-1.806 1.95-3.018 2.596-2.498 1.328-5.354 1.966-5.803 5.286-.422 2.85 3.025 4.673 5.87 5.497 2.242.65 5.715.784 7.639 1.673 1.271.62 2.461.715 3.826.627" style="fill:#1d1d1b;fill-opacity:1;fill-rule:evenodd;stroke:none" transform="translate(147.464 125.956)"/><path d="M0 0v25.177h-2.871v4.976h8.653V0Z" style="fill:#ff0019;fill-opacity:1;fill-rule:evenodd;stroke:none" transform="translate(104.985 72.711)"/><path d="M0 0c-1.487 0-2.23-1.569-2.23-4.709 0-3.153.743-4.729 2.23-4.729 1.5 0 2.25 1.576 2.251 4.729C2.251-1.569 1.5 0 0 0m1.817-12.991C.537-14.01-.744-14.52-2.024-14.52c-1.887 0-3.367.792-4.441 2.376-1.074 1.596-1.611 3.793-1.611 6.588 0 3.511.716 6.202 2.149 8.076C-4.496 4.392-2.431 5.328.268 5.328c2.547 0 4.53-.93 5.948-2.788C7.634.694 8.343-1.887 8.343-5.205c0-3.4-1.225-7.737-3.676-13.011l-.269-.578-2.912-6.424h-5.843l4.667 9.44c.013.026.04.089.082.185.413.867.888 1.735 1.425 2.602" style="fill:#ff0019;fill-opacity:1;fill-rule:evenodd;stroke:none" transform="translate(125.741 97.929)"/><path d="M0 0c1.542 0 2.313 1.549 2.313 4.646 0 3.154-.715 4.729-2.147 4.73-1.557 0-2.334-1.693-2.334-5.081C-2.168 1.432-1.445 0 0 0m-1.61 12.97c1.335.964 2.588 1.445 3.757 1.445 1.887 0 3.367-.765 4.441-2.292 1.074-1.527 1.611-3.655 1.611-6.382 0-3.498-.722-6.217-2.168-8.157C4.598-4.358 2.603-5.329.042-5.329c-2.686 0-4.75.902-6.196 2.706-1.432 1.817-2.148 4.405-2.148 7.766 0 3.29 1.301 7.62 3.903 12.99l.33.681 3.098 6.423h5.783L0 15.758c-.565-1.102-1.102-2.031-1.61-2.788" style="fill:#ff0019;fill-opacity:1;fill-rule:evenodd;stroke:none" transform="translate(144.659 77.627)"/><path d="m0 0 .764 5.452C2.278 4.558 3.731 4.11 5.122 4.11c3.125 0 4.688 1.618 4.689 4.853 0 3.719-2.438 5.577-7.312 5.577-.138 0-.544-.021-1.219-.062-.069 0-.172-.007-.309-.021l2.085 14.891h11.752v-5.122H7.249l-.765-5.494h.207c2.836 0 5.054-.819 6.65-2.458 1.597-1.625 2.395-3.876 2.396-6.753 0-3.291-.888-5.9-2.664-7.827C11.31-.221 8.901-1.177 5.845-1.177 3.628-1.177 1.679-.785 0 0" style="fill:#ff0019;fill-opacity:1;fill-rule:evenodd;stroke:none" transform="translate(155.047 73.517)"/><path d="M0 0v5.006C1.211 3.949 2.395 3.42 3.552 3.42c1.751 0 2.627.798 2.627 2.396 0 .913-.634 1.905-1.9 2.974-.231.198-.495.43-.793.694-1.454 1.31-2.467 2.499-3.04 3.569-.551 1.034-.826 2.225-.826 3.569 0 2.082.584 3.761 1.751 5.039 1.179 1.288 2.715 1.933 4.609 1.933 1.3 0 2.656-.396 4.065-1.19v-4.262c-1.487.715-2.561 1.073-3.221 1.074-.695 0-1.262-.221-1.702-.661-.441-.43-.662-.998-.662-1.702 0-.65.166-1.228.497-1.736.374-.572 1.145-1.359 2.313-2.362 1.563-1.344 2.605-2.501 3.122-3.469.463-.86.694-1.967.694-3.322 0-2.192-.622-3.927-1.867-5.204C7.986-.507 6.3-1.14 4.164-1.14 2.533-1.14 1.146-.76 0 0" style="fill:red;fill-opacity:1;fill-rule:evenodd;stroke:none" transform="translate(43.687 265.107)"/><path d="M0 0h3.205c-.672 3.415-1.201 7.126-1.586 11.136A525.12 525.12 0 0 0 0 0m-6.427-7.98L-.81 16.143h5.039L9.583-7.98H4.775l-.81 4.23H-.876l-.743-4.23z" style="fill:red;fill-opacity:1;fill-rule:evenodd;stroke:none" transform="translate(64.35 272.245)"/><path d="m0 0 2.363 24.123h6.195l1.256-9.203a109.1 109.1 0 0 0 .777-7.766c.385 4.131.666 6.719.843 7.766l1.551 9.203h6.131L21.148 0h-4.874l-.512 11.203a91.88 91.88 0 0 0-.05 1.189c-.143 2.996-.214 5.397-.214 7.204L12.358 0H8.873L5.915 19.728c0-1.63-.1-3.976-.298-7.039l-.099-1.553L4.775 0Z" style="fill:red;fill-opacity:1;fill-rule:evenodd;stroke:none" transform="translate(77.032 264.264)"/><path d="M0 0v5.006C1.211 3.949 2.395 3.42 3.552 3.42c1.752 0 2.628.798 2.628 2.396 0 .913-.635 1.905-1.901 2.974-.231.198-.496.43-.793.694-1.454 1.31-2.467 2.499-3.04 3.569-.551 1.034-.826 2.225-.826 3.569 0 2.082.584 3.761 1.751 5.039 1.178 1.288 2.715 1.933 4.61 1.933 1.3 0 2.654-.396 4.065-1.19v-4.262c-1.488.715-2.562 1.073-3.223 1.074-.694 0-1.261-.221-1.701-.661-.441-.43-.661-.998-.661-1.702 0-.65.165-1.228.496-1.736.374-.572 1.145-1.359 2.313-2.362 1.563-1.344 2.604-2.501 3.123-3.469.462-.86.693-1.967.693-3.322 0-2.192-.623-3.927-1.867-5.204C7.985-.507 6.3-1.14 4.164-1.14 2.533-1.14 1.145-.76 0 0" style="fill:red;fill-opacity:1;fill-rule:evenodd;stroke:none" transform="translate(102.585 265.107)"/><path d="M0 0v-15.151c0-2.974-.237-4.93-.711-5.866-1.145-2.269-3.415-3.403-6.807-3.403-3.415 0-5.689 1.134-6.824 3.403-.485.969-.727 2.925-.727 5.866V0h4.808v-15.531c0-1.906.199-3.173.595-3.801.364-.572 1.08-.859 2.148-.859 1.08 0 1.807.298 2.181.892.375.607.561 1.862.562 3.768V0Z" style="fill:red;fill-opacity:1;fill-rule:evenodd;stroke:none" transform="translate(133.773 288.387)"/><path d="M0 0v24.123h4.874l4.874-12.987c.219-.573.715-2.231 1.487-4.973-.496 3.337-.744 6.234-.744 8.691v9.269h4.461V0h-4.461L5.204 13.499c-.1.253-.33 1.074-.694 2.461l-.413 1.554c.22-1.872.33-4.329.331-7.368V0Z" style="fill:red;fill-opacity:1;fill-rule:evenodd;stroke:none" transform="translate(139.962 264.264)"/><path d="M0 0v5.006C1.212 3.949 2.396 3.42 3.553 3.42c1.751 0 2.627.798 2.627 2.396 0 .913-.634 1.905-1.899 2.974-.233.198-.497.43-.794.694-1.454 1.31-2.467 2.499-3.04 3.569-.551 1.034-.826 2.225-.826 3.569 0 2.082.583 3.761 1.751 5.039 1.179 1.288 2.715 1.933 4.609 1.933 1.3 0 2.655-.396 4.065-1.19v-4.262c-1.487.715-2.561 1.073-3.222 1.074-.694 0-1.261-.221-1.701-.661-.441-.43-.662-.998-.662-1.702 0-.65.166-1.228.496-1.736.375-.572 1.146-1.359 2.314-2.362 1.563-1.344 2.604-2.501 3.122-3.469.462-.86.694-1.967.694-3.322 0-2.192-.623-3.927-1.867-5.204-1.234-1.267-2.919-1.9-5.055-1.9C2.534-1.14 1.146-.76 0 0" style="fill:red;fill-opacity:1;fill-rule:evenodd;stroke:none" transform="translate(160.508 265.107)"/><path d="M0 0c.032 0 .115-.005.247-.017.144-.01.232-.017.265-.017 2.092 0 3.138 1.14 3.138 3.421 0 2.235-1.046 3.353-3.138 3.354a6.43 6.43 0 0 1-.265-.016A3.632 3.632 0 0 0 0 6.708Zm-4.66-13.665v24.123H.346c5.232 0 7.847-2.335 7.848-7.005 0-2.258-.622-4.015-1.867-5.271-1.245-1.245-2.99-1.867-5.237-1.867-.452 0-.81.011-1.073.033L0-13.665Z" style="fill:red;fill-opacity:1;fill-rule:evenodd;stroke:none" transform="translate(181.436 277.929)"/><path d="M0 0c2.456 0 3.684 2.583 3.685 7.749 0 5.188-1.229 7.782-3.685 7.782-2.445 0-3.668-2.594-3.668-7.782C-3.668 2.583-2.445 0 0 0m8.492 7.418c0-3.667-.772-6.586-2.313-8.756C4.647-3.508 2.588-4.593 0-4.593c-2.666 0-4.742 1.085-6.229 3.255-1.487 2.181-2.23 5.209-2.23 9.087 0 3.866.748 6.895 2.247 9.087 1.509 2.203 3.579 3.305 6.212 3.305 2.644 0 4.72-1.129 6.229-3.387 1.508-2.247 2.262-5.359 2.263-9.336" style="fill:red;fill-opacity:1;fill-rule:evenodd;stroke:none" transform="translate(202.363 268.56)"/><path d="M0 0c.033 0 .121-.005.265-.017.154-.01.247-.017.28-.017 2.103 0 3.155 1.151 3.156 3.454 0 2.214-1.019 3.321-3.056 3.321a4.83 4.83 0 0 1-.628-.033Zm-4.659-13.665v24.123H.347c2.754 0 4.747-.54 5.981-1.619C7.572 7.76 8.194 6.036 8.195 3.668c0-3.383-1.272-5.491-3.817-6.329l4.627-11.004H3.933L0-3.685v-9.98z" style="fill:red;fill-opacity:1;fill-rule:evenodd;stroke:none" transform="translate(221.026 277.929)"/><path d="M0 0v-127.948c0-19.563 7.402-92.526 42.826-124.248 35.424-31.723 83.536-63.975 83.536-63.975s53.401 30.137 78.779 59.745c25.378 29.609 47.584 34.895 47.584 190.866V0Z" style="fill:none;stroke:#ff0019;stroke-width:11.339;stroke-linecap:butt;stroke-linejoin:miter;stroke-miterlimit:3.864;stroke-dasharray:none;stroke-opacity:1" transform="translate(10.015 326.282)"/><path d="M0 0h208.312" style="fill:none;stroke:#ff0019;stroke-width:11.339;stroke-linecap:butt;stroke-linejoin:miter;stroke-miterlimit:3.864;stroke-dasharray:none;stroke-opacity:1" transform="translate(32.22 251.734)"/><path d="M0 0v-110.751c0-16.124 6.101-76.265 35.3-102.413 29.199-26.148 68.856-52.732 68.856-52.732s44.016 24.841 64.934 49.246c20.919 24.404 39.222 28.763 39.222 157.323V0Zm0 0v-110.751c0-16.124 6.101-76.265 35.3-102.413 29.199-26.148 68.856-52.732 68.856-52.732s44.016 24.841 64.934 49.246c20.919 24.404 39.222 28.763 39.222 157.323V0Z" style="fill:none;stroke:#ff0019;stroke-width:11.339;stroke-linecap:butt;stroke-linejoin:miter;stroke-miterlimit:3.864;stroke-dasharray:none;stroke-opacity:1" transform="translate(32.22 303.789)"/></g></svg>