<svg xmlns="http://www.w3.org/2000/svg" xmlns:xlink="http://www.w3.org/1999/xlink" width="648.9235229492188px" height="1116.8485107421875px" style="shape-rendering:geometricPrecision;text-rendering:geometricPrecision;image-rendering:optimizeQuality;fill-rule:evenodd;clip-rule:evenodd" viewBox="0 0 648.9235229492188 1116.8485107421875"><path fill="none" d="M0 0h648.924v1116.849H0z" style="fill:#000134;fill-opacity:0;pointer-events:none"/><g transform="matrix(9.14794 0 0 9.14794 9.294 6.365)"><linearGradient id="a"><stop offset="0" stop-color="#d02d26"/><stop offset=".35" stop-color="#cd2d25"/><stop offset=".57" stop-color="#c52b23"/><stop offset=".76" stop-color="#b6291f"/><stop offset=".92" stop-color="#a2251a"/><stop offset="1" stop-color="#952317"/></linearGradient><linearGradient xlink:href="#a" id="b" x1="16.525" x2="16.525" y1="75.06" y2="26.55" gradientTransform="matrix(1 0 0 -1 0 122)" gradientUnits="userSpaceOnUse"/><linearGradient xlink:href="#a" id="c" x1="34.47" x2="34.47" y1="62.52" y2="14.01" gradientTransform="matrix(1 0 0 -1 0 122)" gradientUnits="userSpaceOnUse"/><linearGradient xlink:href="#a" id="d" x1="52.455" x2="52.455" y1="75.06" y2="26.55" gradientTransform="matrix(1 0 0 -1 0 122)" gradientUnits="userSpaceOnUse"/><path fill="#d2aa3a" d="M15.8 30.4c.1.1.2.1.4.1.1 0 .3-.1.3-.2.2-.2.2-.4 0-.6-.1-.1-1.9-1.9-3.6-3.8-2-2.2-2.9-4.1-2.5-5.3.3-.9 1-1.7 2-1.9-.4-.7-.7-1.4-.9-2.2-.6-.1-1.3-.1-1.9 0-.9.1-1.8.4-2.6.8-1 .6-1.7 1.5-2 2.6-1.2 4.8 7.2 8.8 10.8 10.5zm8.9-.9c.1.1.3.1.4.1s.3 0 .4-.1c.2-.1.2-.4.1-.6-2.9-3.4-8.1-10.2-6.2-14.4 1.6-2.9 6-1.6 7.1-1.3.6.1 1 .3 1.3-.2.1-.2-.2-.6-.2-.6-3-3-5.8-3.7-7.6-3.7h-.4c-2.5 0-4.8 1.4-6 3.6-2.2 4.1 1.6 8.3 4.1 11.1 2 2.2 4.4 4.3 7 6.1z"/><path fill="#be2e26" d="m16.6 24-.1-.1c-.2-.3-.5-.5-.7-.8-.5.8-.3 2 .4 3.4.6 1.1 1.3 2.1 2 3.1 0 0 1.5-.2 4.1-.3-2.1-1.7-4-3.4-5.7-5.3zm10.2 4.5s.3.3.3.4c1.7-.1 3.5-.1 5.4-.1-1.2-3.5-2-7.2-2.2-10.9-3.1.3-6.2 1.1-9.1 2.2 1.5 3 3.4 5.8 5.6 8.4z"/><path fill="#d2aa3a" d="M33.7 6.1c-1.4.4-2.3 1.8-1.9 3.2.3 1.2 1.4 2.1 2.7 2 1.5 0 2.7-1.2 2.7-2.6 0-1.2-.8-2.3-2-2.6V3.8h2.4V2.3h-2.4V0h-1.5v2.3h-2.4v1.4h2.4zm33.2 33.3c-.4-.2-10.2-3.7-32.4-3.7s-32 3.5-32.4 3.7S0 50 0 60.3 2.1 84 9.3 94.6s22.5 23.9 25.2 25.4c2.7-1.5 17.9-14.8 25.2-25.4s9.4-24 9.4-34.3-1.9-20.6-2.2-20.9zm-14.4-9.7c-.1.2-.1.4 0 .6.1.1.2.2.3.2s.3 0 .4-.1c3.5-1.8 12-5.7 10.8-10.4-.3-1.1-1-2-2-2.6-.8-.5-1.7-.7-2.6-.8-.6-.1-1.3-.1-1.9 0-.2.8-.5 1.5-.9 2.2 1 .2 1.7 1 2 1.9.4 1.2-.6 3.1-2.5 5.3-1.8 1.9-3.6 3.6-3.6 3.7zm-10-16.6c1-.3 5.5-1.6 7.1 1.3 1.9 4.2-3.3 11-6.2 14.4-.2.2-.1.4 0 .6.1.1.2.1.3.1s.3 0 .4-.1c2.6-1.8 4.9-3.8 7-6.1 2.5-2.8 6.3-7.1 4-11.1-1.2-2.2-3.5-3.6-6-3.6H49c-1.8 0-4.5.7-7.5 3.7 0 0-.4.4-.2.6.2.5.7.4 1.2.2z"/><path fill="#be2e26" d="m53.2 23-.7.8-.2.2c-1.7 1.9-3.6 3.6-5.7 5.1 2.6.2 4.1.3 4.1.3.7-1 1.4-2 2-3.1.8-1.3 1-2.4.5-3.3zm-11.4 5.9c.1-.1.3-.3.3-.4 2.2-2.6 4.1-5.5 5.5-8.5-2.9-1.1-6-1.9-9.1-2.2-.2 3.7-.9 7.4-2.2 10.9 2.1.1 3.8.1 5.5.2z"/><path fill="#d2aa3a" d="M34.5 12.1c-1.4 0-2.5 2.2-2.4 6.8 0 2.8 1.3 8.7 2.1 10.1.1.2.2.3.3.3s.2-.1.3-.3c.8-1.5 2.1-7.3 2.1-10.1.1-4.5-1.1-6.8-2.4-6.8zm0 18.7c-8.7 0-15.4.7-15.4.7v2.8s6.7-.7 15.4-.7 15.4.7 15.4.7v-2.8c0-.1-6.7-.7-15.4-.7z"/><path fill="#fff" d="M63.5 42.1c-.3-.2-9.4-2.7-29-2.7S5.8 42 5.4 42.1 3.8 52.6 3.8 61.7s1.8 21.4 8.3 30.7 19.8 21.2 22.3 22.7c2.6-1.5 16-13.5 22.3-22.7S65 70.8 65 61.7s-1.2-19.3-1.5-19.6z"/><path fill="#d2aa3a" d="M55.4 90.2c-6 8.6-18.7 20.3-20.9 21.6-2.2-1.2-14.9-13-20.9-21.6S5.8 70.3 5.8 61.9 7 44.1 7.3 43.8s8.8-2.3 27.2-2.3 26.9 2.2 27.2 2.3 1.4 9.7 1.4 18.1-1.7 19.7-7.7 28.3z"/><path fill="#fff" d="M61.2 58.2H7.8c0 1.2-.1 2.5-.1 3.7 0 5 .7 17.7 7.4 27.3 5.4 7.8 16 17.7 19.4 20.4 3.4-2.7 13.9-12.5 19.4-20.4 6.7-9.5 7.4-22.3 7.4-27.3-.1-1.2-.1-2.5-.1-3.7z"/><path fill="url(#b)" d="M11.4 80.4c1 3 2.5 5.8 4.2 8.4 1.9 2.6 3.9 5 6 7.3V59.8H11.4z"/><path fill="url(#c)" d="M28.6 59.8v43.5c2.5 2.4 4.6 4.3 5.9 5.4 1.3-1.1 3.5-3 5.9-5.4V59.8z"/><path fill="#be2e26" d="M61.2 58.2c-.1-4.3-.5-8.6-1.1-12.9-2.6-.6-10.7-2-25.6-2s-23 1.5-25.6 2c-.4 2.1-.9 7.4-1.1 12.9z"/><path fill="url(#d)" d="M47.3 96.1c2.1-2.3 4.1-4.8 6-7.3 1.8-2.6 3.2-5.4 4.2-8.4V59.8H47.3z"/><g fill="#fff"><path d="M15.1 50.3c0-.3.2-.6.5-.6h.1c.2 0 .4.1.6.2l.3-1c-.3-.2-.7-.3-1.1-.3-.9 0-1.7.8-1.7 1.7v.2c0 .8.5 1.5 1.2 1.9.4.2.7.4.7.9 0 .4-.3.7-.7.7h-.1c-.2 0-.4 0-.6-.1l-.4 1c.3.2.7.3 1.1.3 1 0 1.8-.7 1.8-1.7v-.3c.3-1.7-1.7-1.8-1.7-2.9m2.6 4.8h1.8l.2-5.5v.1l1.1 5.4h1l1-5.5.4 5.5h1.7c-.1-.2-.2-.5-.3-.8 0-.5-.6-6.5-.7-7.3l-2 .1-.6 4.8-.7-4.7-2 .2c-.1 1.1-.5 6.5-.6 6.9 0 .3-.1.5-.3.8m13.3 0h1.7V51l-.1-.8 1.9 4.9h1.4v-7.5c0-.3.1-.6.2-.8h-1.7v3.8c0 .4 0 .8.1 1.2l-1.8-5.1h-1.5v7.6c0 .3 0 .5-.2.8M41.9 51c0 2.1 1.2 4.1 3.5 4.1.4 0 .7-.1 1.1-.2l-.3-1.4c-.2.1-.4.1-.6.1-1.3 0-1.9-1.5-1.9-2.6s.6-2.5 1.9-2.5c.2 0 .4 0 .6.1l.4-1.3-.9-.3h-.3c-2.2 0-3.5 2-3.5 4m13.7-1.1.3-1.2h-3v6.4h1.3v-2.7h1v-1.2h-1v-1.3zm3.1 4.1c-1.1 0-1.7-1-1.7-2.1s.6-2.1 1.5-2.1h.5l.3-1c-.3-.1-.6-.2-.9-.2-1.6.2-2.8 1.7-2.6 3.4.1 1.6 1.1 3.2 2.9 3.2.3 0 .6-.1.8-.2l-.3-1h-.5m-30.9-.3c-1 0-1.1-2.1-1.1-2.7s.1-2.7 1.1-2.7 1.1 2 1.1 2.7-.1 2.7-1.1 2.7m0-6.9c-1.4 0-2.7 1.1-2.7 4.2s1.3 4.2 2.7 4.2 2.7-1.1 2.7-4.1-1.4-4.3-2.7-4.3M39.1 50l.2-1 .2 1 .4 2.2h-1zm-.9 5 .3-1.6H40l.3 1.6H42c-.2-.2-.3-.5-.4-.8-.1-.4-1.4-6.6-1.7-7.5h-1.6L36.6 55z"/><path d="M49.2 53.8c-1 0-1.1-1.9-1.1-2.5s.1-2.5 1.1-2.5 1.1 1.8 1.1 2.5 0 2.5-1.1 2.5m0-6.5c-1.4 0-2.7 1.1-2.7 3.9s1.3 3.9 2.7 3.9S52 54 52 51.2s-1.3-3.9-2.8-3.9M11 52.8l.3-1.7.1-.8.1.8.3 1.7zm1.1-4h-1.3L9.4 55h1.2l.2-1.2h1.3l.2 1.2h1.4c-.1-.1-.2-.3-.2-.5 0-.3-1.3-5.7-1.4-5.7"/></g></g></svg>