<svg xmlns="http://www.w3.org/2000/svg" width="980" height="980" x="0px" y="0px" viewBox="0 0 980 980"><path fill="none" d="M-19.048-9.548h1026.053v1005.46H-19.048z" style="fill:#010314;fill-opacity:0"/><path d="M456.6 218.8c0 90.4-73.3 163.7-163.7 163.7-90.4 0-163.7-73.3-163.7-163.7 0-90.4 73.3-163.7 163.7-163.7 90.4 0 163.7 73.3 163.7 163.7" class="st0" style="fill:#fff" transform="translate(-386.732 -164.93) scale(2.99328)"/><path d="m289.3 99-.8-14.3c-1.9 0-3.9.1-5.9.2.4 4.8.6 9.5.7 14.3-2.5.1-5.3.3-8 .4l-1.8-34.5c2.5-.3 5.2-.4 7.9-.5.3 4.4.6 8.8.8 13.2 2-.1 3.7-.3 5.7-.3-.1-4.3-.3-8.8-.5-13.2 2.6-.3 5.3-.1 8-.3l1.9 34.6zM257.3 68.6c2.2-.7 4.3-1.3 6.8-1.9 3 11 6 22 8.8 33.1l.1.4-8.2 2.2c-4.4-7.1-9.1-14.7-13.2-21.7l.4 1.5 5.9 22c-2.4.7-4.6 1.3-6.8 1.9-3-11.1-6.1-22.3-8.9-33.6l8.4-2.3c4.5 6.4 8.8 13.1 12.5 19.9zM338.4 71.4c-.9 8-2.4 16.1-3.6 24 3.8-7 7.6-14.4 11.2-21.6 2.5.8 5.3 1.8 7.7 2.5l-.3.6-17.3 29.8-.3.2-8.9-2.9v-.3l3.6-34.9c2.8.9 5.4 1.7 7.9 2.6M314.4 72.7c-1.8 4.8-3.1 9.9-4.4 14.5l4.4.8c-.1-5 .1-10.3 0-15.3m5.9-6.1c.9 11.8 1.5 23.6 2.4 35.4-2.9-.3-5.5-.7-8.3-1.2 0-2.4.1-4 0-6.6-2.1-.2-4.1-.6-6.3-1-.5 1.1-.6 2.1-1.1 3.3l-1.1 3.1c-2.6-.1-5.3-.9-8-1.2l.8-2.2 12-30.9zM215.9 84.9l16.8-8.5c1.1 1.9 1.9 3.7 2.9 5.5l-9.5 5c1 2.1 2 4.3 3.3 6.3l9.1-4.5c1 1.7 2.1 3.7 3 5.6-2.9 1.5-6.3 3.1-9.3 4.7l3.8 7.4c3.4-1.3 6.6-3.3 10-4.8 1.1 1.9 1.9 3.7 2.9 5.5l-17.4 8.8-.3-.6zM366.6 84.1c-1.6 7.5-3.4 15.1-5.5 22.4 3.6-6.4 7.5-12.9 11.4-19.3 2.2 1.3 4.1 2.4 6.1 3.6l-17.6 30-.4-.2c-2.3-1.5-4.8-2.8-7-4.3 1.9-8.3 3.9-16.4 6.1-24.3-4.3 6.8-8 13.9-12.3 20.6l-6-3.8 17.5-29.6 7.7 4.3zM214.9 111.5c-2.1-1.3-4.1.6-5.6 1.9l5.8 7.1 2.4-2.3c.8-.9.8-2.2.4-3.4-.7-1.3-1.9-2.3-3-3.3m-9.7-10.9c-1.9-.8-3.5.9-4.8 2l4.9 6 2.3-2c.5-.6.9-1.5.6-2.4-.6-1.4-1.6-2.7-3-3.6m9-1.7c.8 1.8 1.1 4.1 0 5.9.5.1 1.1-.4 1.8-.4 3.1-.4 5.3 1.8 7.3 3.9 1.7 2.6 3.5 5.9 2.3 9.4-2.6 5.6-8.4 8.7-13.1 12.6l-1.9-2.1-20.1-24.9c3.6-3.3 7.5-6.1 11.3-9.1 1.8-1.1 4.1-1.6 6.3-1 2.5.7 4.8 3.3 6.1 5.7M191.6 126.5c1.4 3.7 2.9 7.3 4.3 10.9 2.4 1.4 3.6-.7 3.5-2.1-.7-3.9-5-6.2-7.8-8.8m-10.4-5.1c-.4.8-.8 1.5-.4 2.4 2 3.5 5.8 5.9 8.8 8.6-1.3-3.9-3-7.6-4.5-11.4-1-.9-3-.9-3.9.4m4.5-9.1c6.5 2.1 11.3 8.3 16.6 12.8 3.2 3 6 7 4.1 11.6-1.5 3.4-4.4 6.8-7.8 8.5l.9 2.5-3.4 1.4-.1-.5c-1.4 2.1-2.7 4.5-4.1 6.8l-12.9-2.2-.1.1 2.5 3.8c2.3 1.4 4.5 2.8 6.9 4.1-1.5 2.4-2.8 4.7-4.1 7l-.4-.2-29-17-.4-.3c1.3-2.4 2.6-4.6 4-6.9 4.4 2.5 8.8 5 13.1 7.5v-.4c-3.5-4.1-6.6-8.6-9.8-13 1.1-2.4 2.7-4.8 4.1-7.1l9.5 14 .5.4 19.9 2.9c-.4-.7-.5-2.2-1.5-2.4-6.8-2-11.8-8.8-17.4-13.4-3.3-2.8-4.8-6.9-3.4-10.9 1.4-3.5 4.8-7.2 8.3-8.7-.3-.8-.6-1.6-1-2.5l3.4-1.3zM175.1 171.5l7.2 2.5c-.8 2.4-1.9 5-2.6 7.4-2.5-.7-5-1.5-7.4-2.4zM156.6 177.2c-.2 2.4-.9 5-1.4 7.4-2-.2-4.4-1.5-6.1 0-.9.8-1.1 2-1 3.1.2.8.9 1.4 1.6 1.6l18.3 3.8c.9 0 1.8.3 2.4-.5.9-1 1.1-2.5.5-3.8-1.5-1.9-4.2-1.8-6.5-2.4.5-2.6.9-4.9 1.4-7.4 4.4.5 9.4 1.5 11.5 6.1 1.2 4.3.2 9-2 12.5-2.4 3.4-6.8 4-10.5 3.1l-17.1-3.8c-2.4-.6-4.8-2.8-5.6-5.1-1.1-5.1-.1-10.6 3.8-14.1 2.8-2 7.4-1.5 10.7-.5M174.6 206.3l-.8 8.2c-2.7-.3-5.3-.6-7.8-.8.3-2.7.5-5.5.7-8.2z" class="st1" style="fill:#3c6caa" transform="translate(-386.732 -164.93) scale(2.99328)"/><path d="M145.6 217.4c2 .3 4.3.3 6.5.3.1-3.3.1-6.9.2-10.3l6.4.1v10.2l14.9.4-.1 8.1h-.8l-33.8-.6c0-6.6 0-13.2.1-19.6l6.6.3z" class="st1" style="fill:#3c6caa" transform="translate(-386.732 -164.93) scale(2.99328)"/><path d="M174.5 236.6c2.1 12.4 5.8 24.1 11.4 35l-.5.5-10.5 5.4c-6.3-11.8-10.3-24.5-12.4-38-.1-.5-.3-1.4.5-1.3 3.8-.4 7.6-1.2 11.5-1.6M152.9 240.6c2.1 14.6 7 28.1 13 41-3.5 2-7.1 3.8-10.9 5.5-7.1-14.1-12-29.3-14.5-45.3 4-.9 8-1.5 12.1-1.9zM226.5 318.1c7.9 5.3 16.1 9.5 24.9 12.8-.1.1 0 .2.1.2h.1l-2.1 12.4c-3-.6-5.9-1.9-8.8-3.1-24-9.5-47.5-30.6-60.9-53.5 3.1-2.4 7-4.3 10.5-6.5 8.9 14 21.9 28.5 36.2 37.7" class="st2" style="fill:#c13f3f" transform="translate(-386.732 -164.93) scale(2.99328)"/><path d="M171.6 291.6c16.9 29 46.3 51.9 76.5 61.5.2 4.3-.4 8.6-.1 13-34.3-10.3-68.2-35.1-86.9-68.3 3.5-1.9 6.9-4.3 10.5-6.2" class="st2" style="fill:#c13f3f" transform="translate(-386.732 -164.93) scale(2.99328)"/><path d="M292.4 184.1c-5.8.6-1.5 7.4-5.4 9.8-1.5 1-4.8.8-4.4 3.4 1.6-.3 3.1-1.3 4.6-2 6.3-1.6 12.6-2.3 19.4-2.9l.7-.4c-.1-.3-.3-.5-.5-.8-4-4-8.9-6.4-14.4-7.1m128.3-51.2c12.6 18.9 20.8 39.6 24.3 62.4-16.9-5.1-34.4-9-52.4-11.5l-.1.1c18.8 6 36.6 14.1 53.9 23.8 1.4 19.9-.9 39.3-6.5 56.8-15.4-7.6-30.8-15.4-47-21.1 3.3 2.6 7 4.9 10.6 7.4 11.1 7.5 21.9 15.9 32.6 24.5-7.1 18.1-17.6 34.9-31.9 49.9-15.6-12.8-30.9-28.6-43.9-44.2 4.1 9.5 10.4 18.4 16.1 27.3 6.1 8.6 12.1 17.1 19.1 25.3-15.8 14.3-33.6 24.3-52.5 30.9-9.9-14.4-16.5-30.3-22.9-46.2.4 6.5 1.9 12.9 3 19.3 2.4 10.4 5 20.5 8.1 30.4-19.8 5.4-44.1 6.5-64.8 2.5-1.8-11.8-2.7-24-1.9-36.4.3-6.1 1.1-12.3 1.5-18.1 1.1-4.4 1.1-9.1 1.1-13.6-.1-.9-.4-1.8-1.3-2.3-2.4-.2-4 1.4-5.9 2.1-5.9 2.8-11 7.6-17.4 9.4-2.4.6-5 .1-6.8-1.5-3.5-3.8-4.6-8.5-6.3-13-2-7.8-5-15.5-4.1-24 .5-1 1.1-2.1 2.3-2.8 3.8-1 7 1.5 10.1 3.3 6.3 3.8 11.8 9.4 19 10.8 1.2.2 2.4-.3 3.4-.9 2.3-3.5 2.6-8.8 1.3-12.6-1.4-2.6-3.9-5.3-7.1-4.9-5.5.4-10.1 2.6-15.6 2.9-3.8.1-7.5.3-11-.7-3.1-1.1-6.6-1.9-9-4.6-3.6-5.6-4.4-12.5-4.9-19.4.1-1.9.3-3.9 1-5.5 4.1-2.9 9.3-4.9 12.1-9.4.9-2.3.9-5.6.2-8-1.5 1.6-2.5 3.6-4.5 4.6-2.6 1.6-5.9 2.6-9 1.9-3.5-2.9-2.1-8-1.9-12.1.5-2 1.1-4.3 3-5.6 14.1-10.5 30-16.9 45.8-23.5 6.9-2.8 13.8-5.5 21-7.5 1.3-1.1 1.3-3 2-4.4 1.6-3.4 5.3-5 8.1-7 6.8-4 13.9-7.3 21.1-9.9l.9-.6c1.5-5.4 4.1-10.5 8.6-14.6 7.3-5.6 15.1-9.5 23.8-11.6 16.8-3.6 36-3.4 53.4-1.6 7.4.6 14.6 1.6 21.3 3.5" class="st1" style="fill:#3c6caa" transform="translate(-386.732 -164.93) scale(2.99328)"/></svg>