<svg xmlns="http://www.w3.org/2000/svg" width="675.87567" height="972.22229" x="0px" y="0px" viewBox="0 0 675.87567 972.22229"><path fill="none" d="M-74.043-24.575h833.51v1034.103h-833.51z" style="fill:#180034;fill-opacity:0"/><path d="M49.7 652.677V328.27c0-21.189 1.183-49.43 10.408-79.993 10.383-34.393 29.393-66.176 56.505-94.467 68.057-71.015 168.785-88.556 173.04-89.268l4.137-.692 4.137.692c4.255.712 104.98 18.253 173.037 89.268 27.112 28.29 46.123 60.074 56.505 94.467 9.227 30.563 10.41 58.804 10.41 79.993v324.407zM293.784 745.994c-3.558 1.48-4.699 5.091-3.38 7.893 1.371 2.902 5 2.926 6.616 1.358 2.588-2.51 2.113-6.472-.98-9.453-4.064-3.918-8.277-5.436-12.832-5.468h-21.94l-4.904-13.197 15.23-10.673.254-.171-7.358-23.896 11.787-8.45 17.503 14.219 17.518-14.219 11.784 8.466-7.258 23.569-.092.305 15.485 10.851-4.885 13.196h-18.831l-.115-.144a20.231 20.231 0 0 0-2.015-2.398c-3.307-3.366-6.36-5.619-9.402-7.103l-.34-.15H319c-5.223-3.66-10.498-7.36-14.412-10.1l-.316-.226 7.373-23.93-17.847 14.484-.317-.242-17.546-14.243c2.763 8.972 5.525 17.943 7.37 23.93l-.198.144-14.528 10.182h13.588c8.24-.033 14.101 1.567 21.415 9.012 7.314 7.443 6.01 18.806-1.175 23.9-7.183 5.094-17.5 2.613-21.027-5.746-2.339-5.543-1.402-11.49 2.044-15.817l.3.025c3.815.134 7.085 1.433 10.162 4.05l-.102.042z" style="fill:#e42223;fill-opacity:1;fill-rule:nonzero;stroke:none" transform="matrix(1.38448 0 0 -1.38448 -68.808 1060.621)"/><path d="M134.71 171.152C79.687 228.568 74.765 286.346 74.765 328.27v299.342h438.048V328.27c0-41.924-4.924-99.702-59.946-157.118-63.083-65.825-159.077-81.888-159.077-81.888s-95.997 16.063-159.08 81.888z" style="fill:#fee813;fill-opacity:1;fill-rule:nonzero;stroke:none" transform="matrix(1.38448 0 0 -1.38448 -68.808 1060.621)"/><path d="m178.203 186.822 16.455 6.663 12.931-35.262h45.45l9.795-26.644h61.911l9.794 26.644h45.451l12.93 35.262 16.455-6.663 20.373 39.183 10.58-5.877c28.603 39.965 31.737 78.363 31.737 119.503v150.063s-53.677 1.959-90.9-13.321c0 0-36.047 23.9-87.375 23.51h-.002c-51.329.39-87.376-23.51-87.376-23.51-37.221 15.28-90.9 13.321-90.9 13.321V339.631c0-41.14 3.135-79.538 31.738-119.503l10.862 5.314 20.09-38.62zM149.992 524.272v-16.163h-34.48v84.575h105.794v-23.509h-71.241l-.073-1.02V548.8h62.433v-23.509H150.09l-.1-1.02zM342.768 520.647h-82.599c-14.05 0-25.545 11.496-25.545 25.545v20.947c0 14.05 11.495 25.545 25.545 25.545h82.599v-23.509H271.52c-3.054 0-5.552-2.5-5.552-5.553V549.71c0-3.054 2.498-5.553 5.552-5.553h71.247zM440.72 544.612l1.332-1.436v49.508h30.013v-84.575h-37.093l-41.754 43.01-1.633 1.591v-44.6h-31.06v84.574h33.502z" style="fill:#e42223;fill-opacity:1;fill-rule:nonzero;stroke:none" transform="matrix(1.38448 0 0 -1.38448 -68.808 1060.621)"/><path d="m334.54 354.126-27.82 37.225 61.907 30.821c10.972-7.053 19.852-18.416 19.852-18.416l-41.27-21.68 38.525-49.106 56.162 27.297c-1.89 7.263-4.504 14.288-7.512 20.916l-41.203-20.526-11.102 16.325 42.436 22.721c-11.742 19.23-24.15 32.004-24.15 32.004 9.272 3.134 26.774 7.835 26.774 7.835 5.747-5.745 19.459-26.12 19.459-26.12v50.413c-19.59.783-56.814-7.444-88.145-20.018-19.405-7.79-33.318-15.246-33.318-15.246l19.593 36.831c-9.407 3.527-25.078 7.053-25.078 7.053l-25.862-48.977-25.86 48.977s-15.673-3.526-25.077-7.053l19.592-36.831s-13.912 7.457-33.318 15.246c-31.332 12.574-68.554 20.801-88.144 20.018v-50.412s13.712 20.374 19.459 26.12c0 0 17.5-4.702 26.775-7.836 0 0-12.41-12.773-24.152-32.004l42.436-22.72-11.102-16.326-41.2 20.526c-3.01-6.628-5.626-13.653-7.514-20.916l56.16-27.297 38.527 49.106-41.27 21.68s8.881 11.363 19.85 18.416l61.907-30.821-27.818-37.225 40.75-20.371zM259.859 219.007l-14.73 41.628h32.129z" style="fill:#fee813;fill-opacity:1;fill-rule:nonzero;stroke:none" transform="matrix(1.38448 0 0 -1.38448 -68.808 1060.621)"/><path d="m225.22 316.904 15.197 20.334 40.44-20.334v-32.127h-44.274zM219.811 186.111h23.376l-24.418 69.013-39.459-19.308 9.602-18.43 16.98 7.835zM147.772 274.59c2.743-11.492 9.364-21.808 9.364-21.808L210.4 278.76l-12.406 35.083-56.753 22.13s-.39-16.713.784-33.697h36.83l4.312-12.797zM267.672 196.922l13.97-39.484h24.293l13.971 39.484-26.116-20.677zM327.719 219.007l14.73 41.628H310.32zM362.358 316.904l-15.196 20.334-40.441-20.334v-32.127h44.275zM367.768 186.111H344.39l24.419 69.013 39.458-19.308-9.602-18.43-16.98 7.835zM439.806 274.59c-2.743-11.492-9.364-21.808-9.364-21.808l-53.264 25.978 12.406 35.083 56.753 22.13s.39-16.713-.783-33.697h-36.831l-4.31-12.797z" style="fill:#fee813;fill-opacity:1;fill-rule:nonzero;stroke:none" transform="matrix(1.38448 0 0 -1.38448 -68.808 1060.621)"/></svg>