<svg xmlns="http://www.w3.org/2000/svg" xml:space="preserve" width="514.107px" height="514.109px" x="0px" y="0px" version="1.0" viewBox="0 0 514.107 514.109"><path fill="#008A57" fill-rule="evenodd" d="M514.107 257.054c0 141.968-115.087 257.055-257.052 257.055C115.087 514.109 0 399.022 0 257.054 0 115.087 115.087 0 257.055 0c141.966 0 257.052 115.087 257.052 257.054z" clip-rule="evenodd"/><path fill="#FFF" fill-rule="evenodd" d="M509.115 257.054c0 139.211-112.852 252.063-252.06 252.063-139.211 0-252.062-112.852-252.062-252.063S117.844 4.992 257.055 4.992c139.209 0 252.06 112.85 252.06 252.062z" clip-rule="evenodd"/><path fill="#008A57" fill-rule="evenodd" d="M17.347 257.054c0 132.177 107.534 239.708 239.708 239.708s239.706-107.531 239.706-239.708c0-132.174-107.531-239.708-239.706-239.708S17.347 124.879 17.347 257.054z" clip-rule="evenodd"/><path fill="#FFF" fill-rule="evenodd" d="M89.259 257.054c0 92.524 75.272 167.796 167.796 167.796 92.521 0 167.796-75.272 167.796-167.796 0-92.522-75.275-167.795-167.796-167.795-92.524 0-167.796 75.272-167.796 167.795zM169.494 444.218c-2.559-1.189-3.746-4.436-2.531-7.052 1.109-2.394 4.438-3.747 6.94-2.587 2.675 1.242 3.888 4.433 2.672 7.052-1.241 2.672-4.465 3.803-7.081 2.587zM138.438 397.027l8.687 6.914-16.508 44.103-7.951-6.331 11.81-30.846-.099-.079-27.512 18.348-7.951-6.328 39.524-25.781zM93.27 415.991l-6.707-7.21 32.791-30.492 6.705 7.21-32.789 30.492zM76.975 398.328l-11.687-17.537c-4.727-7.099-5.631-13.433 1.31-18.056 3.656-2.435 7.428-2.314 11.152-.123-1.72-5.408.246-10.034 4.893-13.131 7.567-5.039 15.081-.779 19.567 5.956l12.034 18.059-37.269 24.832zm25.438-28.785-5.84-8.769c-2.158-3.234-5.077-5.358-8.94-2.783-3.812 2.537-3.727 5.947-1.396 9.442l5.946 8.927 10.23-6.817zm-15.814 10.539-5.528-8.3c-1.915-2.868-4.645-4.14-7.775-2.054-3.551 2.364-2.471 5.566-.524 8.49l5.109 7.67 8.718-5.806zM41.692 335.48c-4.714-13.034 2.249-24.217 14.752-28.74 12.152-4.392 24.658-.24 29.37 12.794 4.712 13.037-2.25 24.223-14.401 28.614-12.504 4.523-25.01.372-29.721-12.668zm36.337-13.134c-3.006-8.314-11.216-8.883-18.234-6.346-7.374 2.666-13.323 8.35-10.317 16.67 3.006 8.314 11.215 8.886 18.59 6.22 7.017-2.54 12.966-8.221 9.961-16.544zM32.347 299.952l-2.505-24.026c-.832-7.986 4.195-13.62 10.935-14.323 5.243-.545 9.396 1.166 11.903 5.889l.126-.012c.749-4.937 5.285-6.797 9.746-7.576 2.788-.48 8.036-.963 10.352-2.971l1.02 9.797c-2.684 1.477-7.003 1.802-10.509 2.672-4.607 1.172-6.48 3.196-5.966 8.127l1.022 9.797 17.41-1.813 1.021 9.797-44.555 4.642zm19.135-11.901-1.121-10.731c-.453-4.368-2.572-6.545-7.065-6.079-4.307.451-5.93 3.018-5.477 7.386l1.118 10.734 12.545-1.31zM72.349 220.044c3.954 4.017 5.027 8.719 4.449 13.009-1.853 13.74-13.203 20.439-26.01 18.712-13.182-1.778-22.349-11.243-20.498-24.984 1.226-9.078 7.978-16.903 18.193-16.601l-1.258 9.325c-5.063.457-8.105 3.782-8.726 8.382-1.184 8.767 5.836 13.069 13.605 14.118 7.399.998 15.303-1.292 16.487-10.059.855-6.341-2.07-10.471-8.15-11.861l-1.324 9.823-7.273-.98 2.514-18.653 24 3.237-.839 6.217-5.17.315zM45.075 173.445l13.557-28.423 7.473 3.566-9.316 19.534 9.341 4.454 8.076-16.928 6.908 3.296-8.078 16.93 16.702 7.965-4.239 8.89-40.424-19.284zM76.931 117.212c8.575-10.89 21.75-10.893 32.194-2.665 10.151 7.994 13.235 20.801 4.66 31.692-8.575 10.888-21.751 10.89-31.9 2.896-10.446-8.226-13.531-21.034-4.954-31.923zm30.35 23.904c5.471-6.946 1.616-14.215-4.247-18.833-6.16-4.85-14.13-6.895-19.6.053-5.473 6.948-1.616 14.215 4.542 19.065 5.863 4.618 13.835 6.662 19.305-.285z" clip-rule="evenodd"/><path fill="#FFF" fill-rule="evenodd" d="m102.199 90.401 15.265-11.832c9.17-7.107 20.517-6.697 29.621 5.049 7.951 10.26 8.615 21.965-2.191 30.338l-15.265 11.833-27.43-35.388zm30.139 22.815 6.939-5.379c4.512-3.495 6.672-9.614.602-17.443-5.531-7.138-11.544-9.778-19.276-3.782l-5.552 4.302 17.287 22.302zM164.691 83.424c2.509 5.407 7.698 5.558 12.48 3.338 3.127-1.455 7.485-4.583 5.556-8.739-2.033-4.381-8.467-2.294-15.182-1.113-6.773 1.208-13.944 1.702-17.484-5.924-3.858-8.307 2.143-15.939 9.486-19.349 8.479-3.936 17.993-3.855 22.354 5.534l-8.651 4.015c-2.558-4.761-6.609-4.4-10.876-2.42-2.846 1.321-5.591 4.049-4.006 7.463 1.455 3.13 3.574 2.631 14.974.517 3.303-.633 13.282-2.982 17.562 6.237 3.461 7.456.189 15.754-10.852 20.88-8.993 4.173-19.475 3.645-24.012-6.423l8.651-4.016zM190.022 40.493l19.708-4.406c10.893-2.433 16.66 3.538 18.249 10.638 1.588 7.097-1.09 14.958-11.982 17.392l-10.1 2.259 3.504 15.667-9.608 2.147-9.771-43.697zm14.208 18.416 7.465-1.671c4.469-.998 8.227-2.867 6.981-8.435-1.244-5.571-5.442-5.659-9.91-4.663l-7.466 1.671 2.93 13.098zM259.157 30.334c13.863.193 21.873 10.657 21.686 23.955-.182 12.923-8.479 23.158-22.343 22.963-13.863-.193-21.872-10.655-21.69-23.578.184-13.299 8.484-23.535 22.347-23.34zm-.54 38.638c8.843.125 12.277-7.356 12.379-14.821.111-7.841-3.111-15.415-11.955-15.536-8.845-.125-12.274 7.356-12.385 15.196-.102 7.465 3.116 15.038 11.961 15.161zM295.784 34.134l23.361 6.119c7.767 2.033 11.268 8.722 9.554 15.275-1.336 5.098-4.4 8.379-9.706 9.066l-.029.12c4.354 2.439 4.497 7.339 3.656 11.788-.533 2.779-1.928 7.86-.864 10.731l-9.527-2.496c-.439-3.031.779-7.188 1.201-10.772.521-4.726-.712-7.189-5.505-8.443l-9.527-2.496-4.436 16.931-9.527-2.496 11.349-43.327zm4.395 22.094 10.436 2.736c4.245 1.109 7.031-.105 8.174-4.475 1.096-4.188-.732-6.612-4.978-7.723l-10.438-2.735-3.194 12.197zM350.971 61.333l-11.948-6.122 3.774-7.368 32.666 16.73-3.776 7.371-11.951-6.12-16.643 32.496-8.769-4.491 16.647-32.496zM371.862 98.829c-3.738 4.644-1.573 9.363 2.534 12.667 2.687 2.164 7.421 4.685 10.292 1.118 3.029-3.765-1.69-8.609-5.722-14.106-4.081-5.537-7.699-11.75-2.429-18.3 5.742-7.137 15.24-5.13 21.545-.057 7.283 5.858 11.426 14.424 4.937 22.49l-7.433-5.978c3.141-4.4 1.022-7.875-2.643-10.824-2.446-1.967-6.108-3.221-8.467-.289-2.162 2.689-.773 4.368 6.167 13.657 2.03 2.681 8.552 10.583 2.183 18.504-5.15 6.403-14.042 7.143-23.525-.486-7.723-6.214-11.889-15.847-4.869-24.371l7.43 5.975zM434.543 117.82l17.865 25.925-6.814 4.696-12.279-17.815-8.522 5.871 10.641 15.442-6.302 4.342-10.641-15.442-15.234 10.5-5.587-8.11 36.873-25.409zM467.394 173.484c5.15 12.872-1.43 24.287-13.778 29.228-11.997 4.8-24.636 1.074-29.786-11.798-5.15-12.87 1.43-24.287 13.427-29.087 12.345-4.941 24.986-1.214 30.137 11.657zm-35.877 14.354c3.284 8.212 11.508 8.503 18.442 5.729 7.28-2.914 13.031-8.795 9.747-17.007-3.287-8.213-11.511-8.502-18.791-5.59-6.932 2.774-12.686 8.656-9.398 16.868zM477.92 208.721l3.29 23.925c1.093 7.954-3.744 13.748-10.456 14.669-5.221.721-9.425-.854-12.088-5.489l-.126.015c-.586 4.956-5.057 6.965-9.489 7.891-2.769.571-7.998 1.226-10.245 3.309l-1.342-9.756c2.634-1.567 6.94-2.032 10.412-3.018 4.567-1.323 6.369-3.407 5.695-8.316l-1.342-9.756-17.338 2.385-1.342-9.757 44.371-6.102zm-18.732 12.517 1.471 10.688c.601 4.352 2.786 6.456 7.263 5.84 4.286-.589 5.824-3.208 5.229-7.559l-1.471-10.689-12.492 1.72zM483.088 261.037l-2.76 33.375-8.25-.683 1.948-23.561-9.562-.791-1.787 21.624-7.626-.626 1.787-21.627-10.94-.906-1.986 24.062-8.25-.68 2.801-33.876 44.625 3.689zM477.621 308.96l-2.971 9.326-34.303 8.689-.038.12 28.629 9.123-2.801 8.786-42.677-13.599 2.994-9.384 34.225-8.648.038-.121-28.571-9.102 2.801-8.786 42.674 13.596zM459.586 357.652l-4.521 8.748-39.773-20.564 4.521-8.745 39.773 20.561zM448.383 379.226l-5.886 7.814-35.238-3.15-.073.103 23.988 18.07-5.546 7.365-35.76-26.941 5.924-7.861 35.147 3.159.074-.1-23.939-18.038 5.549-7.362 35.76 26.941zM363.917 411.192c-.141-5.628 2.291-9.797 5.646-12.527 10.746-8.757 23.602-5.886 31.767 4.131 8.396 10.307 8.613 23.481-2.133 32.238-7.099 5.783-17.373 6.873-24.618-.328l7.292-5.944c4.008 3.126 8.499 2.783 12.097-.146 6.855-5.587 4.679-13.521-.272-19.6-4.717-5.786-12.047-9.521-18.902-3.935-4.96 4.04-5.648 9.053-2.165 14.224l7.685-6.261 4.635 5.689-14.587 11.886-15.296-18.768 4.863-3.964 3.988 3.305zM340.576 445.012c-2.569 1.166-5.807-.05-7.002-2.675-1.087-2.399.05-5.81 2.563-6.952 2.684-1.219 5.895-.059 7.09 2.566 1.219 2.684-.023 5.869-2.651 7.061zM205.044 476.799l-8.565-2.754 8.81-27.384-10.617-3.416 2.076-6.457c5.933 2.042 12.085 1.758 15.064-4.406l6.816 2.194-13.584 42.223zM238.411 437.55c10.92 1.515 13.642 9.568 13.049 13.837-.601 4.33-3.349 7.529-7.698 8.464l.016-.129-.009.062-.007.067c5.042 1.916 7.499 6.349 6.731 11.871-1.28 9.226-10.201 12.656-18.359 11.525-8.473-1.178-16.103-6.583-14.788-16.061.778-5.587 4.462-9.105 9.782-9.645l.018-.129c-4.103-1.784-5.81-5.604-5.209-9.935 1.096-7.902 9.321-10.92 16.474-9.927zm-5.346 38.983c4.269.592 7.948-1.966 8.559-6.36.583-4.204-2.416-7.5-6.557-8.074-4.33-.604-8.121 1.368-8.748 5.886-.628 4.516 2.478 7.956 6.746 8.548zm2.769-20.406c3.642.504 6.869-1.096 7.392-4.86.313-2.262-.223-6.234-5.747-7.002-3.577-.495-7.02 1.263-7.56 5.156-.53 3.829 2.338 6.208 5.915 6.706zM265.825 472.917c.762 2.936 3.202 5.314 6.302 5.115 6.51-.428 7.661-9.073 7.591-14.021l-.135-.114c-2.238 3.636-5.367 5.3-9.665 5.581-3.794.246-7.766-1.271-10.477-3.888-2.515-2.563-3.829-6.161-4.058-9.639-.59-9.041 5.202-16.591 14.435-17.191 13.397-.879 17.766 10.585 18.495 21.771.706 10.811-3.29 23.449-15.873 24.272-7.649.498-13.63-3.618-15.149-11.326l8.534-.56zm12.407-19.028c-.27-4.107-3.193-8.045-7.679-7.752-4.301.281-6.495 4.55-6.237 8.534.272 4.169 2.695 8.203 7.31 7.901 4.802-.31 6.891-4.321 6.606-8.683zM312.246 443.331c-1.345-2.716-4.219-4.544-7.21-3.715-6.287 1.746-5.648 10.438-4.573 15.27l.155.088c1.45-4.017 4.172-6.284 8.326-7.436 3.659-1.017 7.857-.34 11.045 1.67 2.985 1.995 5.007 5.25 5.938 8.607 2.423 8.728-1.708 17.3-10.62 19.772-12.938 3.589-19.55-6.738-22.55-17.54-2.895-10.438-1.556-23.628 10.588-26.997 7.389-2.048 14.083.762 17.142 8.001l-8.241 2.28zm-8.262 21.161c1.102 3.967 4.764 7.225 9.1 6.023 4.148-1.154 5.429-5.78 4.362-9.627-1.116-4.028-4.313-7.479-8.769-6.243-4.637 1.283-5.862 5.637-4.693 9.847z" clip-rule="evenodd"/><path fill="#008A57" fill-rule="evenodd" d="M342.255 128.391a153.796 153.796 0 0 0-37.274-18.082v59.351l37.274 64.562V128.391zM304.98 403.8a153.742 153.742 0 0 0 37.274-18.082v-44.927H304.98V403.8zM411.425 257.054c0-41.984-16.854-80.101-44.145-107.958v128.473l27.911 48.34c10.38-20.742 16.234-44.124 16.234-68.855zM367.28 365.011a155.641 155.641 0 0 0 19.386-24.22H367.28v24.22zM279.952 104.383a154.763 154.763 0 0 0-13.462-1.389l13.462 23.317v-21.928zM234.158 104.383v21.432l13.165-22.803a154.93 154.93 0 0 0-13.165 1.371zM234.158 409.727c7.472 1.113 15.117 1.699 22.897 1.699s15.423-.586 22.897-1.699v-68.936h-45.794v68.936zM171.855 385.718a153.778 153.778 0 0 0 37.274 18.082v-63.009h-37.274v44.927zM209.13 110.309a153.814 153.814 0 0 0-37.274 18.082v105.333l37.274-64.562v-58.853zM146.83 149.096c-27.292 27.857-44.147 65.974-44.147 107.958 0 24.623 5.804 47.914 16.106 68.585l28.042-48.568V149.096h-.001zM146.83 365.014v-24.223h-19.387a155.449 155.449 0 0 0 19.387 24.223zM256.912 104.509c1.806 3.129 129.385 224.101 131.193 227.229H125.719l131.193-227.229z" clip-rule="evenodd"/><path fill="#FFF" fill-rule="evenodd" d="M131.253 328.545H382.57L256.912 110.899 131.253 328.545z" clip-rule="evenodd"/><path fill="#008A57" fill-rule="evenodd" d="m256.912 120.485 58.677 101.632 58.682 101.635H139.554l58.679-101.635 58.679-101.632z" clip-rule="evenodd"/><path fill="#FFF" fill-rule="evenodd" d="M286.166 205.96c1.863 4.847 1.863 11.183 0 16.028-2.238 4.472-4.846 7.458-8.2 11.556-6.709 5.963-17.146 10.063-19.011 19.381-.372 1.491 1.117 2.237 2.236 2.982l3.356-1.118c10.436-8.574 19.755-20.874 32.798-23.483 4.849 0 8.947 1.49 12.305 4.472 3.352 5.219 6.709 12.302 3.352 18.637-1.488 4.847-8.572 8.199-4.846 14.164 2.613 5.593 4.477 12.674 1.494 19.011l-5.593 6.709c-7.081 4.846-16.772 2.61-23.484-.372l-12.299-13.418c-4.099-5.593-5.59-12.674-11.928-16.775-6.335-1.491-9.691 5.59-13.047 9.316-5.216 10.066-12.299 24.231-25.345 25.351-5.591 1.119-11.93.372-16.402-2.61-3.727-3.354-4.472-8.2-4.846-13.046.746-4.846 4.846-8.944 2.982-14.165-4.472-6.709-8.947-14.164-5.219-22.737 1.119-5.218 7.083-7.827 11.183-10.063 16.774-4.847 26.465 12.674 38.394 20.5 2.237 0 4.844 1.119 6.337-1.49.746-1.119.371-2.982-.372-4.102-9.693-8.572-21.246-16.772-28.702-27.955-3.727-6.709-1.863-16.4 3.353-22.365 3.728-3.354 8.575-4.472 13.047-4.472 6.709-.746 11.556 7.455 18.264 3.353 5.219-4.099 12.302-5.591 19.011-3.727 4.845 2.238 8.572 5.592 11.182 10.438z" clip-rule="evenodd"/><path fill="#FFF" fill-rule="evenodd" d="M259.222 286.1c-1.119 4.102-4.1 8.575-8.202 10.063-1.862 0-3.353.375-4.472-.744-.372-2.238 3.356-4.471 3.727-7.084 2.984-5.962 2.61-13.046 4.474-19.755 1.491-1.119 3.727-.744 4.102 1.491 1.116 4.846 1.862 11.183.371 16.029z" clip-rule="evenodd"/><path fill="#008A57" fill-rule="evenodd" d="M258.649 208.874h6.646L254.9 239.459h-6.092L238.5 208.874h6.858l6.56 23.172h.086l6.645-23.172zM216.548 282.057h-6.39v-30.584h21.768v5.409h-15.378v6.9h13.462v5.411h-13.462v12.864zM287.578 282.057h-6.39v-30.584h21.768v5.409h-15.378v6.9h13.459v5.411h-13.459v12.864z" clip-rule="evenodd"/></svg>