<svg xmlns="http://www.w3.org/2000/svg" xml:space="preserve" width="712.48761" height="744.54034" viewBox="0 0 712.48761 744.54032"><defs><linearGradient id="b" x1="138.14355" x2="412.75656" y1="565.0293" y2="290.41507" gradientUnits="userSpaceOnUse" spreadMethod="pad"><stop offset="0" style="stop-opacity:1;stop-color:#265fb2"/><stop offset="0.67306937" style="stop-opacity:1;stop-color:#265fb2"/><stop offset="0.90448" style="stop-opacity:1;stop-color:#1c3c7e"/><stop offset="1" style="stop-opacity:1;stop-color:#1c3c7e"/></linearGradient><linearGradient id="c" x1="35.1665" x2="550.21191" y1="259.06348" y2="259.06348" gradientUnits="userSpaceOnUse" spreadMethod="pad"><stop offset="0" style="stop-opacity:1;stop-color:#347bc5"/><stop offset="0.67306937" style="stop-opacity:1;stop-color:#347bc5"/><stop offset="0.90448" style="stop-opacity:1;stop-color:#235ab0"/><stop offset="1" style="stop-opacity:1;stop-color:#235ab0"/></linearGradient><linearGradient id="d" x1="204.29395" x2="254.90445" y1="426.29688" y2="375.68613" gradientUnits="userSpaceOnUse" spreadMethod="pad"><stop offset="0" style="stop-opacity:1;stop-color:#c7142a"/><stop offset="0.07154662" style="stop-opacity:1;stop-color:#c7142a"/><stop offset="1" style="stop-opacity:1;stop-color:#810f13"/></linearGradient><clipPath id="a" clipPathUnits="userSpaceOnUse"><path d="M.5-.5h595.446v841.89H.5Z"/></clipPath></defs><g clip-path="url(#a)" transform="matrix(1.33333 0 0 -1.33333 -34.008 862.733)"><path d="M232.42 616.15c13.474 18.715 35.45 30.9 60.27 30.9 24.73 0 46.638-12.098 60.125-30.699l.13-.167c118.537-27.324 206.927-133.522 206.927-260.36 0-147.556-119.627-267.18-267.183-267.18-147.555 0-267.183 119.624-267.183 267.18 0 126.724 88.23 232.844 206.608 260.287l.305.039m188.844-152.053V315.231c0-50.667-28.13-94.736-69.246-116.712l1.551.54c62.726 24.44 107.29 85.497 107.29 156.765 0 41.134-14.846 78.867-39.46 108.12l-.135.153m-257.124.035c-24.709-29.28-39.618-67.086-39.618-108.308 0-72.03 45.521-133.627 109.307-157.537l-1.443.76c-40.584 22.15-68.27 65.92-68.27 116.183v148.666l.024.236m38.541 33.673h180.03l-.21.144a167.42 167.42 0 0 1-41.133 18.862l-.093-.084c-13.02-11.284-30.004-18.112-48.585-18.112-18.617 0-35.634 6.856-48.663 18.18l-.104-.011a167.448 167.448 0 0 1-41.042-18.834l-.2-.145z" style="fill:#e2e2e4;fill-opacity:1;fill-rule:nonzero;stroke:none"/><path d="M463.207 394.416c-6.836 30.213-21.515 57.482-41.78 79.547l-.164.145v23.697h-26.704l-.074.055a174.414 174.414 0 0 1-47.672 24.2l.122.12c12.388 13.261 19.972 31.071 19.972 50.652 0 11.237-2.498 21.89-6.968 31.437l-.034.182c89.144-24.124 159.261-95.032 182.258-184.628l-.134-.03c-12.625-2.663-42.82-9.98-78.673-25.29l-.149-.087M35.362 358.584c27.402-6.281 67.286-14.857 83.026-18.226l.173-.027c-.451 5.104-.68 10.272-.68 15.493 0 45.56 17.52 87.107 46.177 118.254l.058.08v23.647h26.678l.11.064a174.419 174.419 0 0 0 47.663 24.19l-.065.058c-12.423 13.27-20.03 31.104-20.03 50.715 0 11.256 2.507 21.927 6.991 31.485l.067.149C116.856 575.084 36.445 476.177 35.182 358.635l.18-.051z" style="fill:url(#b);fill-opacity:1;fill-rule:nonzero;stroke:none"/><path d="M463.207 394.416a174.795 174.795 0 0 0 4.292-38.592c0-96.387-78.42-174.806-174.81-174.806-91.17 0-166.263 70.156-174.128 159.313l-.173.027c-15.74 3.369-55.624 11.945-83.026 18.226l-.18.05c-.01-.936-.016-1.873-.016-2.81 0-141.997 115.524-257.52 257.523-257.52 142 0 257.523 115.523 257.523 257.52 0 22.085-2.794 43.53-8.049 64l-.134-.032c-12.625-2.662-42.82-9.978-78.673-25.289l-.149-.087z" style="fill:url(#c);fill-opacity:1;fill-rule:nonzero;stroke:none"/><path d="M296.916 491.165V190.377l.103-.001c65.335 2.335 117.603 57.342 117.603 124.854v175.934H297.073Z" style="fill:#61ba2d;fill-opacity:1;fill-rule:nonzero;stroke:none"/><path d="M288.463 491.165V190.358l-.106.018c-65.332 2.337-117.6 57.343-117.6 124.854v175.934h117.706z" style="fill:#d1293a;fill-opacity:1;fill-rule:nonzero;stroke:none"/><path d="M384.863 284.636c3.546.002 7.047.012 6.867 1.51-.226 1.887-4.753 2.265-4.753 2.265s.452 3.094.98 9.962c0 0 1.514.005 8.453.302 8.83.377 10.792 2.263 10.866 3.924.058 1.282-4.452 1.132-8.074 1.132-1.302 0-3.115.01-4.905.023 0 0-.15 6.015-1.887 6.015-1.66 0-1.66-5.989-1.66-5.989l-2.773.027c.08 2.551.131 5.361.131 8.377 0 3.471-2.113 6.113-3.245 6.037-1.133.076-3.246-2.566-3.246-6.037 0-3.016.052-5.826.132-8.377l-2.773-.027s0 5.989-1.66 5.989c-1.737 0-1.886-6.015-1.886-6.015a696.746 696.746 0 0 0-4.907-.023c-3.622 0-8.132.15-8.074-1.132.074-1.66 2.037-3.547 10.866-3.924 6.94-.297 8.454-.302 8.454-.302.528-6.868.98-9.962.98-9.962s-4.527-.378-4.754-2.265c-.18-1.498 3.321-1.508 6.868-1.51zM384.863 355.488c3.546.001 7.047.012 6.867 1.511-.226 1.887-4.753 2.264-4.753 2.264s.452 3.094.98 9.962c0 0 1.514.006 8.453.302 8.83.377 10.792 2.264 10.866 3.924.058 1.282-4.452 1.132-8.074 1.132-1.302 0-3.115.01-4.905.023 0 0-.15 6.015-1.887 6.015-1.66 0-1.66-5.987-1.66-5.987l-2.773.025c.08 2.553.131 5.36.131 8.377 0 3.47-2.113 6.113-3.245 6.038-1.133.075-3.246-2.567-3.246-6.038 0-3.017.052-5.824.132-8.377l-2.773-.025s0 5.987-1.66 5.987c-1.737 0-1.886-6.015-1.886-6.015a770.036 770.036 0 0 0-4.907-.023c-3.622 0-8.132.15-8.074-1.132.074-1.66 2.037-3.547 10.866-3.924 6.94-.297 8.454-.302 8.454-.302.528-6.868.98-9.962.98-9.962s-4.527-.377-4.754-2.264c-.18-1.499 3.321-1.51 6.868-1.51zM384.863 426.343c3.546 0 7.047.011 6.867 1.51-.226 1.887-4.753 2.264-4.753 2.264s.452 3.094.98 9.962c0 0 1.514.005 8.453.302 8.83.377 10.792 2.264 10.866 3.925.058 1.281-4.452 1.132-8.074 1.132-1.302 0-3.115.009-4.905.022 0 0-.15 6.015-1.887 6.015-1.66 0-1.66-5.988-1.66-5.988-1.62.014-2.773.026-2.773.026.08 2.552.131 5.36.131 8.377 0 3.471-2.113 6.112-3.245 6.037-1.133.075-3.246-2.566-3.246-6.037 0-3.016.052-5.825.132-8.377 0 0-1.153-.012-2.773-.026 0 0 0 5.988-1.66 5.988-1.737 0-1.886-6.016-1.886-6.016a759.775 759.775 0 0 0-4.907-.022c-3.622 0-8.132.15-8.074-1.131.074-1.661 2.037-3.548 10.866-3.925 6.94-.297 8.454-.302 8.454-.302.528-6.868.98-9.962.98-9.962s-4.527-.377-4.754-2.264c-.18-1.499 3.321-1.51 6.868-1.51zM358.241 572.832c0-36.203-29.35-65.551-65.552-65.551-36.201 0-65.551 29.348-65.551 65.551s29.35 65.552 65.551 65.552c36.202 0 65.552-29.349 65.552-65.552zM338.074 124.45l-9.781-1.721 2.003-11.39 10.793 1.9-2.003 11.388zM403.362 147.695l-8.848-4.51 5.25-10.302 9.762 4.977-5.25 10.301zM492.352 230.572l-5.45-8.302 9.664-6.345 6.015 9.16-9.666 6.346zM523.32 306.772l-2.25-9.674 11.263-2.619 2.483 10.674-11.263 2.62zM538.618 373.334l-10.528-.355.366-10.95 11.558.386-.37 10.953-1.026-.034zM355.769 390.915c3.546.002 7.048.012 6.868 1.51-.227 1.887-4.755 2.265-4.755 2.265s.452 3.094.981 9.961c0 0 1.514.006 8.452.303 8.83.377 10.792 2.264 10.868 3.924.058 1.282-4.453 1.133-8.076 1.133-1.3 0-3.115.01-4.905.021 0 0-.15 6.016-1.887 6.016-1.66 0-1.66-5.988-1.66-5.988l-2.772.025c.08 2.553.13 5.361.13 8.377 0 3.472-2.113 6.113-3.244 6.039-1.132.074-3.246-2.567-3.246-6.04 0-3.015.051-5.823.131-8.376l-2.772-.025s0 5.988-1.66 5.988c-1.738 0-1.887-6.016-1.887-6.016-1.79-.011-3.606-.021-4.905-.021-3.623 0-8.134.15-8.076-1.133.076-1.66 2.038-3.547 10.868-3.924 6.938-.297 8.452-.303 8.452-.303.53-6.867.981-9.96.981-9.96s-4.528-.378-4.755-2.265c-.18-1.5 3.322-1.509 6.869-1.511zM355.769 320.063c3.546.001 7.048.012 6.868 1.511-.227 1.887-4.755 2.264-4.755 2.264s.452 3.094.981 9.962c0 0 1.514.005 8.452.3 8.83.379 10.792 2.265 10.868 3.926.058 1.282-4.453 1.132-8.076 1.132-1.3 0-3.115.01-4.905.022 0 0-.15 6.015-1.887 6.015-1.66 0-1.66-5.988-1.66-5.988l-2.772.026c.08 2.552.13 5.36.13 8.377 0 3.471-2.113 6.113-3.244 6.038-1.132.075-3.246-2.567-3.246-6.038 0-3.016.051-5.825.131-8.377l-2.772-.026s0 5.988-1.66 5.988c-1.738 0-1.887-6.015-1.887-6.015-1.79-.012-3.606-.022-4.905-.022-3.623 0-8.134.15-8.076-1.132.076-1.66 2.038-3.547 10.868-3.925 6.938-.296 8.452-.301 8.452-.301.53-6.868.981-9.962.981-9.962s-4.528-.377-4.755-2.264c-.18-1.499 3.322-1.51 6.869-1.51zM355.769 249.21c3.546.002 7.048.013 6.868 1.512-.227 1.886-4.755 2.263-4.755 2.263s.452 3.095.981 9.962c0 0 1.514.005 8.452.303 8.83.377 10.792 2.264 10.868 3.924.058 1.281-4.453 1.132-8.076 1.132-1.3 0-3.115.01-4.905.022 0 0-.15 6.016-1.887 6.016-1.66 0-1.66-5.989-1.66-5.989-1.62.014-2.772.026-2.772.026.08 2.552.13 5.36.13 8.377 0 3.473-2.113 6.113-3.244 6.038-1.132.075-3.246-2.565-3.246-6.038 0-3.017.051-5.825.131-8.377 0 0-1.152-.012-2.772-.025 0 0 0 5.988-1.66 5.988-1.738 0-1.887-6.016-1.887-6.016-1.79-.013-3.606-.022-4.905-.022-3.623 0-8.134.15-8.076-1.132.076-1.66 2.038-3.547 10.868-3.924 6.938-.298 8.452-.303 8.452-.303.53-6.867.981-9.962.981-9.962s-4.528-.377-4.755-2.263c-.18-1.5 3.322-1.51 6.869-1.511zM326.674 284.636c3.547.002 7.049.012 6.868 1.51-.227 1.887-4.755 2.265-4.755 2.265s.452 3.094.982 9.962c0 0 1.513.005 8.452.302 8.83.377 10.792 2.263 10.867 3.924.058 1.282-4.452 1.132-8.075 1.132-1.3 0-3.116.01-4.906.023 0 0-.149 6.015-1.886 6.015-1.66 0-1.66-5.989-1.66-5.989l-2.773.027c.08 2.551.13 5.361.13 8.377 0 3.471-2.112 6.113-3.244 6.037-1.132.076-3.245-2.566-3.245-6.037 0-3.016.05-5.826.13-8.377l-2.772-.027s0 5.989-1.66 5.989c-1.737 0-1.887-6.015-1.887-6.015-1.79-.014-3.605-.023-4.905-.023-3.623 0-8.134.15-8.075-1.132.075-1.66 2.038-3.547 10.867-3.924 6.938-.297 8.452-.302 8.452-.302.53-6.868.982-9.962.982-9.962s-4.529-.378-4.755-2.265c-.181-1.498 3.32-1.508 6.868-1.51zM326.674 355.488c3.547.001 7.049.012 6.868 1.511-.227 1.887-4.755 2.264-4.755 2.264s.452 3.094.982 9.962c0 0 1.513.006 8.452.302 8.83.377 10.792 2.264 10.867 3.924.058 1.282-4.452 1.132-8.075 1.132-1.3 0-3.116.01-4.906.023 0 0-.149 6.015-1.886 6.015-1.66 0-1.66-5.987-1.66-5.987l-2.773.025c.08 2.553.13 5.36.13 8.377 0 3.47-2.112 6.113-3.244 6.038-1.132.075-3.245-2.567-3.245-6.038 0-3.017.05-5.824.13-8.377l-2.772-.025s0 5.987-1.66 5.987c-1.737 0-1.887-6.015-1.887-6.015-1.79-.012-3.605-.023-4.905-.023-3.623 0-8.134.15-8.075-1.132.075-1.66 2.038-3.547 10.867-3.924 6.938-.297 8.452-.302 8.452-.302.53-6.868.982-9.962.982-9.962s-4.529-.377-4.755-2.264c-.181-1.499 3.32-1.51 6.868-1.51zM326.674 213.784c3.547.002 7.049.012 6.868 1.51-.227 1.888-4.755 2.266-4.755 2.266s.452 3.093.982 9.96c0 0 1.513.006 8.452.302 8.83.378 10.792 2.265 10.867 3.925.058 1.281-4.452 1.132-8.075 1.132-1.3 0-3.116.01-4.906.022 0 0-.149 6.015-1.886 6.015-1.66 0-1.66-5.987-1.66-5.987l-2.773.025c.08 2.553.13 5.361.13 8.378 0 3.47-2.112 6.112-3.244 6.037-1.132.075-3.245-2.566-3.245-6.037 0-3.017.05-5.825.13-8.378l-2.772-.025s0 5.987-1.66 5.987c-1.737 0-1.887-6.015-1.887-6.015-1.79-.012-3.605-.022-4.905-.022-3.623 0-8.134.15-8.075-1.132.075-1.66 2.038-3.547 10.867-3.925 6.938-.297 8.452-.301 8.452-.301.53-6.868.982-9.961.982-9.961s-4.529-.378-4.755-2.265c-.181-1.5 3.32-1.509 6.868-1.51zM326.674 426.343c3.547 0 7.049.011 6.868 1.51-.227 1.887-4.755 2.264-4.755 2.264s.452 3.094.982 9.962c0 0 1.513.005 8.452.302 8.83.377 10.792 2.264 10.867 3.925.058 1.281-4.452 1.132-8.075 1.132-1.3 0-3.116.009-4.906.022 0 0-.149 6.015-1.886 6.015-1.66 0-1.66-5.988-1.66-5.988-1.62.014-2.773.026-2.773.026.08 2.552.13 5.36.13 8.377 0 3.471-2.112 6.112-3.244 6.037-1.132.075-3.245-2.566-3.245-6.037 0-3.016.05-5.825.13-8.377 0 0-1.152-.012-2.772-.026 0 0 0 5.988-1.66 5.988-1.737 0-1.887-6.016-1.887-6.016-1.79-.012-3.605-.022-4.905-.022-3.623 0-8.134.15-8.075-1.131.075-1.661 2.038-3.548 10.867-3.925 6.938-.297 8.452-.302 8.452-.302.53-6.868.982-9.962.982-9.962s-4.529-.377-4.755-2.264c-.181-1.499 3.32-1.51 6.868-1.51z" style="fill:#fff;fill-opacity:1;fill-rule:nonzero;stroke:none"/><path d="M229.604 348.98c18.936 13.083 29.402 33.409 29.402 46.69 0 13.284-7.045 19.522-7.045 19.522 3.622 8.453 1.811 19.723 1.811 19.723-4.024-6.44-7.647-8.05-7.647-8.05-1.41 10.264-6.44 17.509-6.44 17.509s-1.189-6.05-3.824-10.264c-3.019-4.83-6.257-6.642-6.257-6.642s-3.238 1.812-6.257 6.642c-2.635 4.215-3.825 10.264-3.825 10.264s-5.03-7.245-6.44-17.509c0 0-3.622 1.61-7.647 8.05 0 0-1.811-11.27 1.81-19.723 0 0-7.043-6.238-7.043-19.521 0-13.282 10.466-33.608 29.402-46.69z" style="fill:#e2e2e4;fill-opacity:1;fill-rule:nonzero;stroke:none"/><path d="M252.723 379.419c-4.404-9.562-12.226-19.882-23.12-27.764a74.093 74.093 0 0 0-17.125 17.4l-.042.064 40.336 10.404-.05-.104m1.467 28.928c-1.66 3.44-3.497 5.144-3.637 5.271l-1.127 1.02.594 1.386c1.67 3.898 2.09 8.526 2.09 12.186 0 .33-.018.604-.024.917-2.707-3.024-4.795-4.056-5.103-4.193l-2.568-1.142-.383 2.786c-.69 5.03-2.307 9.29-3.704 12.251-.65-1.89-1.526-4.002-2.674-5.84-3.268-5.228-6.865-7.28-7.018-7.365l-1.031-.578-1.032.578c-.152.085-3.75 2.137-7.017 7.366-1.15 1.837-2.023 3.95-2.674 5.84-1.397-2.961-3.014-7.222-3.705-12.252l-.382-2.786-2.57 1.142c-.307.137-2.396 1.169-5.1 4.193-.006-.313-.024-.586-.024-.917 0-3.66.419-8.288 2.088-12.186l.586-1.394-1.118-1.012c-.26-.234-6.34-5.879-6.34-17.947 0-.236.003-.476.01-.717l.013-.07 51.889 13.386-.039.077m-47.016-30.371c.34-.688.696-1.378 1.068-2.07l.042-.064 47.561 12.268.022.051c.217.862.4 1.707.548 2.531l.018.065-49.28-12.713.021-.068m-2.923 7.113 52.517 13.549-.006.052c-.071.8-.169 1.566-.289 2.3l.002.066-52.942-13.656.023-.045c.197-.721.417-1.453.66-2.193l.035-.073z" style="fill:url(#d);fill-opacity:1;fill-rule:nonzero;stroke:none"/><path d="M251.338 490.95v-59.337l-.004-.129c-2.94-3.611-5.208-4.619-5.208-4.619-1.41 10.264-6.44 17.509-6.44 17.509s-1.19-6.05-3.824-10.264c-3.02-4.83-6.258-6.642-6.258-6.642s-3.238 1.812-6.257 6.642c-2.635 4.215-3.824 10.264-3.824 10.264s-5.031-7.245-6.44-17.509c0 0-2.272 1.01-5.216 4.629l.002.175v59.495h43.47v-.214zM288.32 371.52h-36.982V197.667c-16.413 6.062-31.19 15.63-43.474 27.82l.005.155v145.88h-37.112v43.47h36.094l.177-.008c-1.189-1.184-6.826-7.43-6.826-19.312 0-13.283 10.466-33.609 29.402-46.69 18.936 13.081 29.402 33.407 29.402 46.69 0 11.88-5.637 18.127-6.826 19.312l.234.008h36.05v-43.469l-.145-.002z" style="fill:#feea13;fill-opacity:1;fill-rule:nonzero;stroke:none"/><path d="m202.34 394.884 51.888 13.386.029-.064c.882-1.857 1.706-4.209 2.191-7.078l.026-.072-52.943-13.657v.036c-.708 2.619-1.11 5.09-1.197 7.33l.006.119zM204.25 385.089l52.517 13.549.005-.08c.078-.917.12-1.88.12-2.887 0-1.503-.15-3.121-.45-4.825l-.01-.09-49.281-12.712-.04.053a55.443 55.443 0 0 0-2.853 6.927l-.009.065z" style="fill:#fff;fill-opacity:1;fill-rule:nonzero;stroke:none"/><path d="M333.028 561.402c.51-4.741 1.41-15.539.713-27.789l.01-.105c1.28-.069 6.203-.283 11.412.182l.128.02c-8.966-12.035-21.965-20.889-36.995-24.56l.012.101c.252 3.217.205 6.337.176 7.395v.126c-15.38 2.278-24.77 6.69-28.238 8.574l-.076.047c-1.789-.44-10.746-2.404-24.624-1.538l-.057.037c-.305-1.14-.68-2.671-.958-4.246l-.003-.117a60.57 60.57 0 0 0-.55.4l.005.084a53.6 53.6 0 0 0 .987 4.274l-.058.058c-1.912 2.116-9.709 10.917-14.855 19.178-.592.95-1.528 2.725-1.831 3.541l-.078.068c-1.506.824-4.34 2.556-7.81 5.546l-.064.064a57.8 57.8 0 0 0-.347 1.115l.062-.071c3.565-3.177 6.523-5.047 8.17-5.97l.064-.013c.565 1.932 2.793 7.534 11.342 18.295l.032.051c-3.625 14.943-2.287 26.934-1.103 32.946l-.003.13a567.614 567.614 0 0 1-11.573 7.91l-.076.036a65.89 65.89 0 0 0 21.788 21.68l.208.066a63.305 63.305 0 0 0 16.137 4.149l.087.018c1.512 1.008 4.792 2.941 10.153 4.852l.092.037c.877.098 1.76.179 2.648.242l-.311-.095c-6.375-2.034-10.247-4.232-12.025-5.39l.002-.067c-.167-1.74-.703-7.934-.563-14.623l.068-.034c6.44-2.098 17.963-6.23 27.797-11.763l.05.02c2.113.537 13.892 3.484 25.287 5.49l-.007.061c-.205 5.614-.893 11.062-1.283 13.807l-.02.115c-1.229 1.19-7.251 6.593-19.145 10.81l-.737.255a65.243 65.243 0 0 0 24.018-10.835l-.096-.03a34.765 34.765 0 0 0-3.41-.41l.03-.112c.401-2.888 1.067-8.303 1.255-13.843l.038-.105c1.769-2.045 10.9-12.817 17.242-24.527l.035-.057c2.293-.585 6.344-1.752 11.198-3.736l.058-.013c.038-.238.075-.476.11-.714l-.09.042c-4.652 1.92-8.583 3.091-10.967 3.718l-.037-.091c-.581-1.64-5.44-14.962-13.442-24.569l.018-.117m-28.754 12.488c.45 13.392-1.18 28.38-1.558 31.64l.009.133c-9.885 5.58-21.527 9.737-27.933 11.818l-.115.031c-2.056-.76-12.058-4.93-25.548-18.356l-.027-.094c-1.171-5.898-2.53-17.791 1.054-32.655l.087-.053c2.197-1.177 14.898-7.913 26.32-12.495l.068.027c15.307 8.936 24.83 17.358 27.583 19.92l.06.084m28.138-12.473c-1.579.457-7.523 2.255-15.083 5.518-7.99 3.45-12.212 5.754-12.959 6.17l-.11-.078c-3.17-2.91-12.49-10.973-27.088-19.523l-.08-.02c.118-1.643 1.12-15.03 3.325-27.538l.064-.041c3.403-1.857 12.918-6.359 28.63-8.614l.075.034c12.312 5.281 22.024 14.105 23.91 15.885l.021.08c.732 12.312-.17 23.203-.682 27.995l-.023.132z" style="fill:#231f20;fill-opacity:1;fill-rule:nonzero;stroke:none"/><path d="m208.283 375.842 47.561 12.268-.014-.091c-.686-2.676-1.698-5.515-3.027-8.425l-.03-.07-40.338-10.405-.038.052a69.318 69.318 0 0 0-4.089 6.61l-.025.06zM379.58 227.582a125.02 125.02 0 0 1 8.506 9.832l-.006.075c.019 1.238.028 2.52.028 3.843 0 3.47-2.113 6.112-3.245 6.037-1.133.075-3.246-2.566-3.246-6.037 0-3.017.052-5.825.132-8.378l-2.774-.025s0 5.987-1.659 5.987c-1.737 0-1.886-6.015-1.886-6.015a763.408 763.408 0 0 0-4.907-.022c-3.622 0-8.133.15-8.074-1.132.074-1.66 2.037-3.547 10.866-3.925 2.907-.125 4.86-.197 6.15-.24h.114zM296.916 320.05v33.396l.034.024c.228.129.442.19.63.178 1.132.075 3.245-2.567 3.245-6.038 0-3.016-.052-5.825-.132-8.377l2.773-.026s0 5.988 1.66 5.988c1.737 0 1.887-6.015 1.887-6.015 1.79-.012 3.605-.022 4.906-.022 3.622 0 8.133.15 8.074-1.132-.074-1.66-2.037-3.548-10.867-3.925-6.938-.296-8.452-.301-8.452-.301-.528-6.868-.982-9.962-.982-9.962s4.529-.377 4.755-2.264c.181-1.499-3.321-1.51-6.868-1.51h-.525l-.138-.013zM352.543 206.36a121.736 121.736 0 0 1 5.554 3.416l-.034.044c-.708 1.346-1.657 2.166-2.294 2.123-1.068.07-3.01-2.274-3.225-5.453l-.001-.13zM352.71 491.097a8.621 8.621 0 0 1-.187-1.781c0-3.017.051-5.825.131-8.377 0 0-1.152-.012-2.772-.026 0 0 0 5.988-1.66 5.988-1.738 0-1.887-6.015-1.887-6.015-1.79-.013-3.606-.023-4.905-.023-3.623 0-8.134.15-8.076-1.132.076-1.66 2.038-3.547 10.868-3.924 6.938-.297 8.452-.302 8.452-.302.53-6.868.981-9.962.981-9.962s-4.528-.377-4.755-2.264c-.18-1.498 3.322-1.509 6.869-1.51 3.546.001 7.048.012 6.868 1.51-.227 1.887-4.755 2.264-4.755 2.264s.452 3.094.981 9.962c0 0 1.514.005 8.452.302 8.83.377 10.792 2.264 10.868 3.924.058 1.282-4.453 1.132-8.076 1.132-1.3 0-3.115.01-4.905.023 0 0-.15 6.015-1.887 6.015-1.66 0-1.66-5.988-1.66-5.988-1.62.014-2.772.026-2.772.026.08 2.552.13 5.36.13 8.377 0 .618-.067 1.21-.184 1.766l-.023.082h-6.075l-.021-.067zM414.432 390.915h-.475c-3.547.002-7.048.012-6.868 1.51.226 1.887 4.755 2.265 4.755 2.265s-.453 3.094-.982 9.961c0 0-1.512.006-8.452.303-8.829.377-10.792 2.264-10.867 3.924-.059 1.282 4.452 1.133 8.075 1.133 1.3 0 3.115.01 4.905.021 0 0 .15 6.016 1.887 6.016 1.66 0 1.66-5.988 1.66-5.988l2.773.025c-.08 2.553-.131 5.361-.131 8.377 0 3.472 2.113 6.113 3.245 6.039.167.01.357-.038.559-.14l.106-.05v-33.396h-.19zM414.622 320.071v33.395l-.061.02c-.218.117-.423.173-.604.162-1.132.075-3.245-2.567-3.245-6.038 0-3.016.05-5.825.13-8.377l-2.772-.026s0 5.988-1.66 5.988c-1.736 0-1.887-6.015-1.887-6.015-1.79-.012-3.605-.022-4.905-.022-3.623 0-8.134.15-8.075-1.132.075-1.66 2.038-3.548 10.867-3.925 6.94-.296 8.452-.301 8.452-.301.529-6.868.982-9.962.982-9.962s-4.529-.377-4.755-2.264c-.18-1.499 3.321-1.51 6.868-1.51h.502l.163.007zM403.578 263.204a126.36 126.36 0 0 1 3.924 9.86l-.026.061c-.243.715-.584 1.219-1.066 1.219-1.736 0-1.887-6.016-1.887-6.016-1.79-.013-3.605-.022-4.905-.022-3.623 0-8.134.149-8.075-1.132.075-1.66 2.038-3.547 10.867-3.924l1.036-.045h.132zM414.483 461.769h-.526c-3.547.001-7.048.012-6.868 1.51.226 1.887 4.755 2.264 4.755 2.264s-.453 3.094-.982 9.962c0 0-1.512.005-8.452.302-8.829.377-10.792 2.264-10.867 3.924-.059 1.282 4.452 1.132 8.075 1.132 1.3 0 3.115.01 4.905.023 0 0 .15 6.015 1.887 6.015 1.66 0 1.66-5.988 1.66-5.988 1.62.014 2.773.026 2.773.026-.08 2.552-.131 5.36-.131 8.377 0 .65.075 1.272.203 1.853l.002-.005h3.705v-29.401l-.139.006zM296.916 390.897v33.395l.028.027c.23.13.447.194.635.182 1.133.074 3.246-2.567 3.246-6.039 0-3.016-.052-5.824-.132-8.377l2.773-.025s0 5.988 1.66 5.988c1.737 0 1.887-6.016 1.887-6.016 1.79-.011 3.605-.021 4.906-.021 3.622 0 8.133.15 8.074-1.133-.074-1.66-2.037-3.547-10.867-3.924-6.939-.297-8.452-.303-8.452-.303-.529-6.867-.982-9.96-.982-9.96s4.529-.378 4.755-2.265c.18-1.5-3.321-1.509-6.868-1.51h-.544l-.119-.019zM296.916 249.205v33.414l.042.003c.225.125.437.186.621.174 1.133.075 3.246-2.565 3.246-6.038 0-3.017-.052-5.825-.132-8.377 0 0 1.153-.012 2.773-.025 0 0 0 5.988 1.66 5.988 1.737 0 1.887-6.016 1.887-6.016 1.79-.013 3.605-.022 4.906-.022 3.622 0 8.133.15 8.074-1.132-.074-1.66-2.037-3.547-10.867-3.924-6.938-.298-8.452-.303-8.452-.303-.528-6.867-.982-9.962-.982-9.962s4.529-.377 4.755-2.263c.18-1.5-3.321-1.51-6.868-1.511h-.544l-.119-.006zM300.544 190.554c-1.17-.076-2.346-.136-3.525-.178h-.103v21.377l.055.024c.22.12.427.178.608.166 1.133.077 3.246-2.565 3.246-6.038 0-3.015-.052-5.825-.132-8.376 0 0 1.153-.012 2.773-.026 0 0 0 5.988 1.66 5.988 1.737 0 1.887-6.015 1.887-6.015 1.79-.013 3.605-.023 4.906-.023 3.622 0 8.133.15 8.074-1.132-.074-1.66-2.037-3.547-10.867-3.924-6.938-.297-8.452-.301-8.452-.301-.04-.506-.077-.99-.115-1.454l-.015-.088zM296.916 461.763v29.402l.157-.001h3.547l.016-.059c.119-.562.19-1.162.19-1.79 0-3.016-.053-5.824-.133-8.376 0 0 1.153-.012 2.773-.026 0 0 0 5.988 1.66 5.988 1.737 0 1.887-6.015 1.887-6.015 1.79-.013 3.605-.023 4.906-.023 3.622 0 8.133.15 8.074-1.132-.074-1.66-2.037-3.547-10.867-3.924-6.939-.297-8.452-.302-8.452-.302-.529-6.868-.982-9.962-.982-9.962s4.529-.377 4.755-2.264c.18-1.498-3.321-1.509-6.868-1.51h-.582l-.081-.007zM121.841 282.132l-8.62-4.622 4.566-8.513-45.891-24.611 5.394-10.058s44.151 23.679 45.89 24.61c.779-1.449 4.637-8.644 4.637-8.644l9.525 5.107-14.595 27.216zM145.759 242.914 91.63 210.981l7.21-8.645 11.374 6.867 4.92-5.898-8.87-9.865 7.51-9 41.686 48.19-8.95 10.727-.751-.443m-10.515-17.948-12.827-13.753-3.082 3.692 15.909 10.06zM280.209 168.337c-2.807-2.879-4.25-6.897-4.293-11.941l-.254-31.519c0-5.606 1.269-9.963 3.772-12.955 2.592-3.097 6.455-4.688 11.482-4.729 4.91-.04 8.781 1.498 11.507 4.572 2.688 3.036 4.073 7.381 4.119 12.918l.06 7.38-11.713.094-.076-9.314c-.015-1.863-.366-3.25-1.044-4.123-.617-.8-1.534-1.183-2.802-1.171-1.27.01-2.18.408-2.787 1.217-.66.882-.988 2.276-.973 4.14l.277 33.983c.016 1.856.365 3.233 1.037 4.092.618.786 1.538 1.164 2.81 1.152 1.27-.01 2.182-.403 2.788-1.198.66-.87.986-2.252.97-4.108l-.062-7.705 11.713-.096.058 6.867c.04 5.057-1.296 9.14-3.974 12.132-2.704 3.023-6.417 4.573-11.038 4.61-4.864.04-8.76-1.406-11.577-4.298zM427.362 231.36c-2.95-3.17-4.322-6.97-4.079-11.294.243-4.31 2.051-8.062 5.374-11.154a18.978 18.978 0 0 1 8.013-4.455c3.009-.824 7.923-1.12 15.02-.9l1.276.058c6.85.33 11.387-.493 13.483-2.444 1.097-1.02 1.656-2.12 1.71-3.364.056-1.238-.392-2.349-1.366-3.396-1.1-1.18-2.321-1.65-3.738-1.434-1.565.236-3.479 1.29-5.69 3.133l-.867.722-6.33-9.222.702-.6c4.164-3.556 8.434-5.367 12.692-5.383 4.304-.017 8.189 1.804 11.543 5.41 3.043 3.272 4.474 7.067 4.251 11.282-.222 4.2-2.07 7.945-5.494 11.13-2.52 2.345-5.325 3.972-8.339 4.836-3.008.86-7.484 1.118-13.68.791l-.73-.02c-7.798-.353-12.933.585-15.294 2.78-1.068.995-1.641 2.017-1.75 3.125-.105 1.059.243 2 1.06 2.88.886.952 1.793 1.316 2.86 1.15 1.207-.193 2.81-1.103 4.762-2.706l.86-.705 6.47 9.296-.756.599c-3.802 3.017-7.716 4.547-11.634 4.547-3.976 0-7.452-1.568-10.329-4.662zM464.537 288.658l-5.186-12.028 53.666-34.354 4.457 10.338-11.262 7.048c.515 1.192 2.522 5.852 3.04 7.055l12.809-3.463 4.642 10.764-61.821 15.441-.345-.8m16.31-13.78 18.063-5.236c-.52-1.205-1.384-3.206-1.904-4.416-1.408.84-10.596 6.329-16.158 9.653zM481.565 354.879c-3.076-2.485-4.8-6.484-5.12-11.889l-.852-14.41 62.772-3.714.876 14.83c.32 5.387-.915 9.49-3.669 12.192-2.713 2.667-7.193 4.204-13.316 4.565l-27.197 1.61c-5.906.35-10.446-.721-13.494-3.184m5.707-14.432c.137 2.296.727 3.94 1.755 4.887 1.018.937 2.649 1.346 4.846 1.217l29.302-1.735c1.948-.115 3.346-.53 4.157-1.236.67-.583 1-1.424 1-2.56 0-.124-.006-.25-.013-.382l-.22-3.733-40.892 2.42.065 1.122zM109.292 322.72l-59.553-16.716 8.366-29.804 10.696 3.003-5.282 18.817c1.657.464 13.951 3.916 15.606 4.38.484-1.72 4.143-14.756 4.143-14.756l10.405 2.921-4.14 14.757 13.426 3.769 5.281-18.819 10.407 2.922-8.367 29.804zM168.682 217.348l-37.515-49.18 9.073-6.919 16.57 21.72 12.185-9.296 6.555 8.594-12.184 9.296 8.457 11.087 15.54-11.854 6.554 8.594-24.612 18.774zM92.689 365.552l-31.147-.918c-5.706-.168-10.112-1.486-13.098-3.912-3.097-2.518-4.588-6.06-4.429-10.527l.02-.579c.131-3.918.267-7.971 4.434-11.748 2.7-2.447 6.7-3.535 12.968-3.528l17.098.504-.495 16.77-9.746-.285.166-5.668-8.561-.252c-1.883-.056-3.298.244-4.206.888-.827.587-1.246 1.488-1.284 2.754-.038 1.27.329 2.194 1.12 2.829.868.694 2.263 1.077 4.146 1.133l33.942.999c1.848.054 3.23-.242 4.106-.882.804-.587 1.215-1.491 1.252-2.765.038-1.27-.318-2.197-1.088-2.833-.84-.69-2.2-1.07-4.046-1.123l-7.426-.219.326-11.105 6.59.194c5.348.158 9.447 1.524 12.183 4.06 2.776 2.574 4.112 6.266 3.974 10.975-.144 4.858-1.732 8.694-4.725 11.4-2.979 2.695-7.041 3.986-12.074 3.838zM204.168 192.422l-25.888-56.177 28.116-12.956 4.65 10.089-17.75 8.18 6.783 14.722c1.624-.75 13.92-6.415 13.92-6.415l4.522 9.818-13.919 6.412 5.837 12.67 17.75-8.181 4.524 9.815-28.115 12.955zM370.503 187.99l-28.082-10.35 21.744-59.002 10.707 3.946-9.446 25.636 14.382 5.299-3.737 10.14s-12.704-4.68-14.382-5.3l-4.823 13.086 18.34 6.76-3.74 10.14z" style="fill:#fff;fill-opacity:1;fill-rule:nonzero;stroke:none"/><path d="M341.43 582.38c-2.265-2.414-7.849-8.452-10.113-10.867-2.264-2.415-9.51-5.132-13.508-3.47-6.904 2.87-10.91 5.068-12.34 5.839.052 1.59.089 3.195.089 4.81 0 11.533-1.205 23.119-1.597 26.575 3.237.81 13.867 3.405 24.176 5.236 1.554-1.81 7.094-8.41 12.347-16.471 3.13-4.802 3.21-9.236.946-11.652z" style="fill:#475753;fill-opacity:1;fill-rule:nonzero;stroke:none"/><path d="M325.43 600.946c.151-6.34-2.717-9.81-5.433-12.377-2.718-2.566-6.642-5.585-10.114-8.754-3.47-3.17-4.074-.906-3.783 3.622-.244 9.422-1.119 18.092-1.483 21.37 2.757.685 9.568 2.336 17.146 3.865 2.672.482 3.516-1.387 3.667-7.726z" style="fill:#7c8589;fill-opacity:1;fill-rule:nonzero;stroke:none"/><path d="M272.854 630.228s-.101-5.937.2-11.471c0 0-12.375-5.534-24.048-17.71 0 0-5.234 3.623-8.352 5.836 0 0 13.082 18.817 32.2 23.345z" style="fill:#3b4845;fill-opacity:1;fill-rule:nonzero;stroke:none"/><path d="M275.37 552.747s0-6.44.905-14.893c0 0-9.156 2.918-13.684 6.742-4.529 3.823-10.064 6.842-12.78 9.156-2.718 2.315-3.322 4.026-1.912 6.541 1.409 2.516 2.717 4.227 2.717 4.227s9.156-5.434 24.754-11.773z" style="fill:#242e2f;fill-opacity:1;fill-rule:nonzero;stroke:none"/><path d="M274.766 552.344v-5.936s-3.119 2.717-5.334 4.427c-2.213 1.71-5.534 4.226-7.445 5.131-1.913.906-5.234 3.422-6.14 4.227-.905.805-2.817 2.214-2.817 2.214s10.365-5.736 21.736-10.063z" style="fill:#4c5759;fill-opacity:1;fill-rule:nonzero;stroke:none"/><path d="M272.235 619.21s-13.282-5.434-22.943-16.754c0 0-2.716 1.357-.603 3.32 2.113 1.962 11.169 10.565 16.603 13.433 5.434 2.869 6.943 0 6.943 0z" style="fill:#485956;fill-opacity:1;fill-rule:nonzero;stroke:none"/><path d="M286.209 638.067a65.148 65.148 0 0 1-27.392-9.103l-.188-.113.208.066a63.305 63.305 0 0 0 16.138 4.149l.086.018c1.512 1.008 4.793 2.94 10.153 4.852l.093.037" style="fill:#dddeda;fill-opacity:1;fill-rule:nonzero;stroke:none"/><path d="m287.955 638.215-.311-.095c-6.375-2.034-10.248-4.232-12.025-5.39l.002-.067c-.167-1.74-.703-7.934-.564-14.623l.069-.034c6.44-2.098 17.962-6.23 27.796-11.763l.05.02c2.113.537 13.893 3.484 25.287 5.49l-.007.061c-.205 5.614-.892 11.061-1.282 13.807l-.02.115c-1.229 1.19-7.251 6.593-19.145 10.81l-.737.255-.277.062a65.756 65.756 0 0 1-14.102 1.52c-1.519 0-3.025-.051-4.516-.153l-.219-.015z" style="fill:#d6deda;fill-opacity:1;fill-rule:nonzero;stroke:none"/><path d="M304.274 573.89c.45 13.392-1.18 28.38-1.558 31.64l.009.133c-9.885 5.58-21.527 9.737-27.933 11.817l-.115.032c-2.056-.76-12.058-4.93-25.548-18.356l-.027-.094c-1.171-5.898-2.53-17.792 1.054-32.655l.087-.053c2.197-1.177 14.898-7.913 26.32-12.495l.069.027c15.307 8.936 24.83 17.358 27.582 19.92l.06.084z" style="fill:#c9cfd3;fill-opacity:1;fill-rule:nonzero;stroke:none"/><path d="M274.866 615.889s-8.755-4.529-15.245-9.962c-6.49-5.434-8.15-9.962-7.849-13.282.302-3.321 6.34-13.283 11.32-16.15 4.982-2.869 11.02-9.057 14.793-9.36 3.773-.301 10.263 0 15.094 1.963 4.83 1.962 9.961 5.283 9.961 5.283s0 9.207-.604 17.81c-.604 8.604-1.206 12.68-1.206 12.68s-15.547 7.848-26.264 11.018z" style="fill:#e2e7e1;fill-opacity:1;fill-rule:nonzero;stroke:none"/><path d="M275.017 615.285s-11.018-6.188-14.943-9.962c-3.925-3.773-5.584-8.452-4.226-9.962 1.359-1.509 4.377-6.188 4.83-9.66.452-3.472 7.849-5.283 10.415-8.452 2.565-3.17 5.735-4.528 10.716-3.32 4.981 1.207 10.113-1.36 11.471 1.66 1.359 3.018 5.887 3.32 7.245 1.962 1.359-1.359 2.264 2.867 1.66 10.566-.603 7.697-1.66 16.3-1.66 16.3s-14.792 7.547-25.508 10.868z" style="fill:#fff;fill-opacity:1;fill-rule:nonzero;stroke:none"/><path d="M284.073 616.794s12.226-5.131 19.018-9.207c0 0 17.207 4.528 23.546 5.283 0 0-1.358 3.32-3.32 4.528-1.963 1.207-.754 5.132-4.075 6.49-3.321 1.36-8.755-.452-11.32 1.36-2.567 1.81-11.473 4.074-14.491 2.112-3.018-1.963-17.056-7.396-9.358-10.566z" style="fill:#e7ebe5;fill-opacity:1;fill-rule:nonzero;stroke:none"/><path d="M303.242 608.19s-8.603 4.68-12.679 6.793c-4.075 2.113-4.226 4.83-.905 5.283 3.32.453 8.904 1.962 10.717 2.566 1.81.604 4.528-3.773 9.66-2.415 5.131 1.358 7.244.604 9.055-1.962 1.812-2.566 4.981-5.132-.603-6.49-5.585-1.359-15.245-3.774-15.245-3.774z" style="fill:#fff;fill-opacity:1;fill-rule:nonzero;stroke:none"/><path d="M345.334 533.767c8.108 10.91 12.907 24.427 12.907 39.065 0 3.23-.233 6.406-.686 9.51l-.008.077-.091.042c-4.651 1.92-8.583 3.091-10.967 3.718l-.037-.091c-.581-1.64-5.44-14.962-13.442-24.569l.018-.117c.51-4.741 1.41-15.539.713-27.789l.01-.105c1.28-.069 6.203-.283 11.412.182l.128.02.043.057z" style="fill:#d8dfdf;fill-opacity:1;fill-rule:nonzero;stroke:none"/><path d="M357.425 583.207c-2.783 17.504-12.498 32.7-26.24 42.688l-.099.071-.096-.03a34.765 34.765 0 0 0-3.41-.41l.03-.112c.402-2.888 1.067-8.303 1.255-13.843l.038-.105c1.769-2.045 10.9-12.817 17.243-24.527l.035-.057c2.293-.585 6.343-1.752 11.197-3.736l.059-.013-.012.074z" style="fill:#eaebe5;fill-opacity:1;fill-rule:nonzero;stroke:none"/><path d="M332.412 561.417c-1.579.457-7.523 2.255-15.083 5.518-7.99 3.45-12.212 5.753-12.959 6.17l-.11-.079c-3.17-2.908-12.49-10.972-27.088-19.523l-.08-.02c.118-1.642 1.12-15.028 3.325-27.537l.064-.042c3.403-1.857 12.918-6.358 28.63-8.613l.076.034c12.311 5.281 22.023 14.105 23.91 15.885l.02.08c.732 12.312-.17 23.202-.682 27.995l-.023.132z" style="fill:#e0e1df;fill-opacity:1;fill-rule:nonzero;stroke:none"/><path d="M305.355 567.035c-3.208-.356-9.157-5.635-15.596-10.264-6.44-4.628-9.056-5.232-9.056-5.232s.402-9.861 1.408-16.804c1.007-6.944 1.207-9.76 1.207-9.76s13.886-6.038 23.546-6.44c0 0 15.699 6.137 25.056 15.999 0 0 .904 15.394-.201 23.143 0 0-5.936 2.415-14.29 5.836-8.35 3.422-10.262 3.723-12.074 3.522z" style="fill:#aab3bc;fill-opacity:1;fill-rule:nonzero;stroke:none"/><path d="M306.161 566.733c-1.614-.178-6.843-3.521-12.277-7.446-5.433-3.924-9.66-7.446-10.967-7.95-1.309-.502-1.309-1.91-1.108-4.427.202-2.515.202-6.742 4.73-5.936 4.528.804 10.465-.202 13.584 1.408 3.12 1.61 4.427-2.113 10.063.302 5.634 2.415 12.26-3.019 16.689-.705 4.428 2.315 4.844 3.12 4.743 8.453-.1 5.334-.202 6.843-.202 6.843s-4.728 2.113-13.18 5.434c-8.454 3.32-11.17 4.125-12.075 4.024z" style="fill:#c9cfd3;fill-opacity:1;fill-rule:nonzero;stroke:none"/><path d="M356.977 581.828s-4.63 1.71-6.44 2.515c-1.812.805-3.021-4.025-5.233-9.156-2.214-5.132-5.433-10.165-7.748-13.183-2.315-3.019-2.918-6.238-3.019-14.59-.101-8.352-.201-11.07-.201-11.07s6.74-.503 9.056-.301c2.314.202 6.44 4.226 9.358 11.169 2.918 6.944 7.145 21.635 4.227 34.616z" style="fill:#a2aeb7;fill-opacity:1;fill-rule:nonzero;stroke:none"/><path d="M351.643 582.833c-1.525.82-2.114.302-5.434-7.546-3.32-7.849-5.433-10.667-7.748-13.584-2.315-2.919-3.12-4.428-3.422-9.46-.302-5.031.792-7.546 2.3-5.835 1.51 1.71 3.638-1.007 5.047 3.723.488 1.639 2.919 2.315 3.32 5.735.402 3.421 3.498 3.826 3.623 7.145.2 5.332 3.12 5.534 2.817 9.358-.302 3.823 1.61 5.03 1.208 7.446-.403 2.414-.405 2.314-1.711 3.018z" style="fill:#cbd2d2;fill-opacity:1;fill-rule:nonzero;stroke:none"/><path d="M332.726 613.826c-1.326 2.648-2.012 8.151-3.019 9.56-1.007 1.408-1.51 1.71-1.51 1.71s2.314.201 2.818.301c.503.102 6.239-3.823 12.678-11.873 6.44-8.05 12.276-20.326 13.383-29.986 0 0-3.42 1.812-4.427 2.315-1.006.502-3.623 5.03-4.73 6.942-1.106 1.913-3.118 3.623-3.42 5.736-.302 2.113-1.712 1.41-2.818 4.025-1.107 2.616-4.428 3.019-4.83 5.333-.403 2.315-2.817 3.32-4.125 5.937z" style="fill:#c9ccc6;fill-opacity:1;fill-rule:nonzero;stroke:none"/><path d="M333.027 621.07c-1.636.91-1.709-.704-.905-3.924.804-3.22 1.509-4.327 3.019-5.735 1.51-1.409 2.112-2.415 2.313-3.22.202-.805 1.61-2.416 2.616-2.818 1.006-.402 1.007-1.308 1.712-2.213.703-.906.702-1.812 2.314-2.617 1.61-.805.905-3.019 1.408-3.622.504-.604 2.013-1.81 3.321-4.327 1.308-2.515 2.113-4.628 3.32-5.132 1.209-.503.908 0 .504 3.321-.403 3.32-.905 5.232-2.919 6.741-2.012 1.51-.501 3.925-3.119 6.743-2.616 2.817-2.717 3.823-5.836 7.245-3.119 3.421-4.125 7.546-7.748 9.559z" style="fill:#daddde;fill-opacity:1;fill-rule:nonzero;stroke:none"/><path d="m229.927 553.857.062-.071c3.565-3.177 6.523-5.047 8.17-5.97l.064-.013c.565 1.932 2.793 7.534 11.342 18.295l.032.051c-3.625 14.943-2.287 26.934-1.103 32.946l-.003.13a567.614 567.614 0 0 1-11.573 7.91l-.076.036-.06-.098c-6.117-9.966-9.644-21.691-9.644-34.24 0-6.555.961-12.884 2.75-18.855l.039-.12z" style="fill:#dbe0e1;fill-opacity:1;fill-rule:nonzero;stroke:none"/><path d="m253.978 519.928.006.085a53.6 53.6 0 0 0 .986 4.274l-.058.058c-1.912 2.116-9.709 10.917-14.855 19.178-.592.95-1.528 2.725-1.831 3.541l-.078.068c-1.506.824-4.34 2.556-7.81 5.546l-.063.064.062-.197c4.272-13.136 12.579-24.452 23.46-32.483l.18-.134zM308.296 509.15l.012.101c.252 3.217.205 6.337.176 7.395v.126c-15.38 2.278-24.77 6.69-28.238 8.574l-.076.047c-1.789-.44-10.746-2.404-24.624-1.538l-.057.037c-.305-1.14-.68-2.671-.958-4.246l-.003-.117.101-.073c10.731-7.665 23.869-12.175 38.06-12.175 5.32 0 10.495.634 15.448 1.83l.159.04z" style="fill:#d0d6d1;fill-opacity:1;fill-rule:nonzero;stroke:none"/><path d="M228.176 582.934c1.568 13.087 8.553 23.546 8.553 23.546s1.208-2.214 2.416-4.126c1.207-1.91 7.446-5.131 7.446-5.131s-.805-4.126-.504-14.088c.303-9.962.705-15.496.705-15.496s-8.353-12.377-9.76-17.106c0 0-3.925 1.61-7.044 4.83 0 0-4.126 8.251-1.812 27.571z" style="fill:#8f9d99;fill-opacity:1;fill-rule:nonzero;stroke:none"/><path d="M238.037 603.06s1.911-3.22 7.749-6.34c0 0-.604-17.61.503-28.477 0 0-4.73-6.641-6.139-9.66-1.408-3.019-3.723 4.93-3.52 8.855.2 3.924-2.717 7.647-2.215 10.767.503 3.12-1.006 6.34-.201 9.861.805 3.522-.905 4.528.805 7.647 1.71 3.12 3.018 7.346 3.018 7.346z" style="fill:#c7ced1;fill-opacity:1;fill-rule:nonzero;stroke:none"/><path d="M308.173 513.402c0-1.914-.303-3.924-.303-3.924s-13.482-4.328-30.59-.1c-15.19 3.752-22.338 10.263-22.338 10.263s.403 2.214.906 3.522c0 0 16.302-1.207 22.44-1.006 6.138.2 9.76-3.422 12.98-4.026 3.22-.604 4.528-2.213 8.855-2.213 4.326 0 8.05-.705 8.05-2.516z" style="fill:#889591;fill-opacity:1;fill-rule:nonzero;stroke:none"/><path d="M256.15 522.258s-1.51-1.31.201-2.014c1.711-.703 8.253-2.515 11.371-4.226 3.12-1.71 6.842-3.018 11.874-3.119 5.031-.1 12.779-.704 16.1-.905 3.32-.202-.504 2.012 3.824 2.012 4.326 0 6.036.202 1.709.705-4.327.502-8.752 1.71-12.074 3.32-3.32 1.61-6.54 2.716-10.465 2.817-3.924.101-7.145.504-12.377.705-5.232.2-9.459.805-10.164.705z" style="fill:#959c9c;fill-opacity:1;fill-rule:nonzero;stroke:none"/><path d="M254.338 524.043s-4.83 4.151-10.112 11.32c-5.284 7.17-7.547 11.699-7.547 11.699s-3.02 1.509-5.887 4.527c0 0 2.944-9.207 9.132-17.282s13.735-13.886 13.735-13.886.076.68.68 3.622z" style="fill:#869893;fill-opacity:1;fill-rule:nonzero;stroke:none"/><path d="M236.301 546.684s-1.66.905-2.49 1.434c-.83.528 1.358-3.472 4.226-8 2.868-4.528 9.811-13.056 12.603-15.32 2.793-2.264 3.02-1.283 1.283.528-1.736 1.812-5.584 6.49-9.358 11.396-3.773 4.905-6.264 9.962-6.264 9.962z" style="fill:#959a9b;fill-opacity:1;fill-rule:nonzero;stroke:none"/></g></svg>