<svg xmlns="http://www.w3.org/2000/svg" xml:space="preserve" width="510.2298" height="682.6673" viewBox="0 0 510.22979 682.6673"><path d="M964.668 984.449C511.711 1623.92 190.566 2348.94 72.769 3125.85 9.664 3536.74-14.175 3964.46 8.262 4379.56H1051.62c28.04 196.33 126.21 373.02 267.84 504.84 337.97 314.14 851.23 314.14 1187.8 0 141.64-131.82 239.8-307.11 267.85-504.84h1043.35c22.44-415.1-1.4-841.42-64.5-1253.71-117.81-776.91-438.94-1500.52-891.91-2141.401C2584.39 593.199 2282.88 301.5 1914.06 0c-370.22 304.309-670.32 593.191-949.392 984.449" style="fill:#fff;fill-opacity:1;fill-rule:nonzero;stroke:none" transform="matrix(.13333 0 0 -.13333 0 682.667)"/><path d="M1874.8 120.602c-322.54 252.429-607.22 563.75-851.24 907.328-450.146 633.86-762.876 1340.65-879.267 2109.14-56.098 373.03-74.328 753.06-70.121 1107.86 0 30.85 30.851 61.7 61.703 61.7h981.645c23.84 410.89 381.45 741.85 795.14 741.85 413.7 0 771.3-330.96 795.13-741.85h981.65c30.85 0 61.71-30.85 61.71-61.7 4.2-356.2-14.02-736.24-70.11-1107.86-116.4-768.49-429.13-1475.28-879.28-2109.14-242.61-343.578-528.69-654.899-851.23-907.328-18.23-15.43-57.5-15.43-75.73 0" style="fill:#100f0d;fill-opacity:1;fill-rule:nonzero;stroke:none" transform="matrix(.13333 0 0 -.13333 0 682.667)"/><path d="M1239.53 4244.93c0-30.85-30.85-63.11-61.7-63.11H197.578c-1.402-332.35 18.235-682.95 70.117-1026.52 114.996-748.86 419.309-1437.41 856.845-2055.85 227.18-319.751 490.82-611.43 788.12-849.829 295.9 238.399 560.94 530.078 788.12 849.829 438.94 618.44 743.25 1306.99 856.85 2055.85 51.88 343.57 71.51 695.57 70.11 1026.52h-980.25c-30.85 0-61.7 30.86-61.7 63.11 0 364.61-293.09 678.74-673.13 678.74s-673.13-315.53-673.13-678.74" style="fill:#f6b10c;fill-opacity:1;fill-rule:nonzero;stroke:none" transform="matrix(.13333 0 0 -.13333 0 682.667)"/><path d="M1815.9 4055.61H325.195c2.801-269.25 19.633-539.9 56.094-806.35h876.471l558.14 511.86v294.49M3444.03 3249.26c36.47 266.45 53.29 537.1 56.1 806.35H2009.42v-294.49l558.14-511.86h876.47" style="fill:#100f0d;fill-opacity:1;fill-rule:nonzero;stroke:none" transform="matrix(.13333 0 0 -.13333 0 682.667)"/><path d="M3272.95 2500.4c58.9 179.5 106.57 366.01 140.23 553.93h-919.95l-579.17 532.89-579.17-532.89H414.945c33.653-187.92 81.336-374.43 140.235-553.93h2717.77M1912.66 412.289c259.44 221.582 488.02 482.41 684.35 760.081 249.62 351.99 457.17 732.03 607.22 1134.5H619.688c151.457-401.07 357.601-781.11 607.222-1134.5 197.73-279.069 427.72-538.499 685.75-760.081" style="fill:#100f0d;fill-opacity:1;fill-rule:nonzero;stroke:none" transform="matrix(.13333 0 0 -.13333 0 682.667)"/><path d="M1778.03 4016.35H364.457c1.406-120.6 7.012-241.21 15.43-363.21 8.414-124.81 21.035-246.82 36.461-366.02h827.392l534.29 490.83v238.4M3410.37 3287.12c15.43 120.6 28.06 242.61 36.47 366.02 8.41 122 12.62 242.61 15.43 363.21H2048.69v-238.4l534.3-490.83h827.38" style="fill:#fff;fill-opacity:1;fill-rule:nonzero;stroke:none" transform="matrix(.13333 0 0 -.13333 0 682.667)"/><path d="M3244.9 2539.67c26.64 79.93 49.08 162.67 70.12 246.81 19.63 77.13 36.45 152.86 51.88 229.99h-889.09l-565.15 518.87-565.15-518.87H458.418c15.426-77.13 32.258-152.86 51.887-229.99 21.035-84.14 44.875-165.48 70.121-246.81H3244.9" style="fill:#2753a5;fill-opacity:1;fill-rule:nonzero;stroke:none" transform="matrix(.13333 0 0 -.13333 0 682.667)"/><path d="M779.555 3542.35v371.62H594.449v-377.23c0-29.45 18.227-54.69 56.094-81.34 56.094-35.06 145.844-51.88 269.246-51.88 210.361 0 312.731 47.68 312.731 145.84v368.82H1044.6v-368.82c0-54.69-43.47-85.54-124.803-85.54-93.961 0-140.242 26.64-140.242 78.53M3278.55 3665.75c0-208.95-256.63-248.21-410.88-248.21h-273.46v504.85h252.42c286.08 0 431.92-85.55 431.92-256.64zm-180.9 4.21c0 110.79-64.51 171.09-187.91 183.71l-133.23 4.21v-381.44l141.63 8.41c109.39 19.64 179.51 57.5 179.51 185.11" style="fill:#e21d25;fill-opacity:1;fill-rule:nonzero;stroke:none" transform="matrix(.13333 0 0 -.13333 0 682.667)"/><path d="M1912.66 4800.26c304.31 0 551.13-249.62 551.13-552.53H1361.53c0 304.31 248.22 552.53 551.13 552.53" style="fill:#100f0d;fill-opacity:1;fill-rule:nonzero;stroke:none" transform="matrix(.13333 0 0 -.13333 0 682.667)"/><path d="M1912.66 4289.81c95.36 0 172.49 78.53 172.49 173.89 0 95.35-78.53 173.89-172.49 173.89-95.36 0-172.49-78.54-172.49-173.89 0-96.76 77.13-173.89 172.49-173.89" style="fill:#f6b10c;fill-opacity:1;fill-rule:nonzero;stroke:none" transform="matrix(.13333 0 0 -.13333 0 682.667)"/><path d="M1912.66 4762.4c269.25 0 492.22-210.36 510.46-475.4h-392.66c56.09 37.87 93.95 102.38 93.95 176.7 0 116.39-95.36 211.75-211.75 211.75s-211.76-95.36-211.76-211.75c0-72.93 37.87-137.43 93.96-176.7H1402.2c18.24 265.04 241.21 475.4 510.46 475.4M2668.53 2963.18h89.75v-359.01h-89.75v359.01M1062.83 2598.56v360.41h89.75v-316.93h179.51v-43.48h-269.26M1978.57 2646.24h162.67v-47.68h-252.42v360.41h252.42v-47.68h-162.67v-102.37h145.84v-51.89h-145.84v-110.79M1684.08 2860.8l-93.96-120.6h-16.83l-91.15 116.4v-258.04h-89.75v360.41h89.75l100.97-129.02 100.97 129.02h89.75v-360.41h-89.75v262.24M2399.28 2754.23h-30.85v-154.26h-85.55v360.4h85.55c44.87 0 112.19-5.61 151.45-35.05 23.84-19.64 37.86-54.7 29.45-84.15-8.41-32.25-39.27-53.29-72.92-64.51 67.31-18.23 106.58-113.59 120.6-175.29h-93.96c-21.04 40.67-54.69 141.64-103.77 152.86zm54.69 102.37c0 51.88-44.88 54.69-85.54 54.69v-110.78c40.66 0 85.54-1.41 85.54 56.09M2831.2 2595.76l137.43 364.61h98.17l133.22-364.61h-89.75l-25.24 81.34h-133.22l-29.46-81.34zm183.71 273.46-51.88-145.84h102.37l-50.49 145.84M994.117 2595.76l-137.433 364.61H758.52l-133.223-364.61h89.754l25.242 81.34h133.223l29.449-81.34zM810.41 2869.22l51.887-145.84H759.922l50.488 145.84" style="fill:#fff;fill-opacity:1;fill-rule:nonzero;stroke:none" transform="matrix(.13333 0 0 -.13333 0 682.667)"/><path d="M2266.06 1853.91c-61.71 5.61-117.81-7.01-171.09-32.25-57.5-26.64-112.2-71.53-158.47-126.21-22.44-26.64-35.06-42.07-72.92-36.47-35.06 5.62-70.12 12.63-99.57 23.85-36.46 12.62-36.46 53.28-16.83 79.93 99.57 145.84 224.38 203.34 394.06 211.76 49.08-32.26 91.15-72.93 124.82-120.61zm-187.92-652.1c100.97 178.11 138.83 344.98 63.1 523.09-14.02 33.65-21.03 72.92 25.24 85.54 21.04 5.61 44.88 8.42 67.32 8.42 49.08 2.8 68.71-21.04 84.14-60.31 18.23-49.08 28.05-100.96 28.05-155.66 0-179.5-110.78-335.16-267.85-401.08zm-277.67-16.82c57.5 56.09 93.96 120.6 112.19 189.31 18.23 64.52 25.24 131.83 15.43 196.34-7.02 46.27-5.61 60.3 25.24 98.17 21.04 26.64 49.08 47.67 75.72 67.3 29.46 25.25 63.11 1.41 74.33-28.05 75.73-186.5 21.03-351.98-88.35-525.87-32.26-8.42-67.31-11.23-102.37-11.23-37.86-1.39-75.73 4.21-112.19 14.03zm-321.14 409.49c2.81-150.06 82.74-280.47 200.54-356.2 46.28-29.45 98.16-37.86 138.83 16.83 15.43 19.63 28.05 40.67 37.87 63.1 21.03 44.88-15.43 60.3-49.08 65.92-168.29 29.44-266.45 96.76-328.16 210.35zm61.71 232.79c25.24-56.09 64.5-99.57 114.99-133.23 51.89-33.65 114.99-56.09 185.11-68.71 44.88-8.42 46.28-11.22 53.29-65.91 4.21-28.05 1.4-54.7-1.4-84.14 0-43.48-40.67-64.51-71.52-56.09-183.71 35.06-279.07 117.79-333.77 255.22 5.61 56.1 25.25 106.58 53.3 152.86zm371.62 210.35c-119.2 0-228.58-49.08-307.12-127.61-23.84-23.84-35.06-67.32-16.82-98.17 11.22-18.23 25.24-36.46 40.67-51.88 32.25-32.26 65.9-7.01 86.94 22.43 93.96 137.43 211.76 203.35 363.21 221.57-50.49 21.04-107.98 33.66-166.88 33.66" style="fill:#b75e1e;fill-opacity:1;fill-rule:nonzero;stroke:none" transform="matrix(.13333 0 0 -.13333 0 682.667)"/><path d="M1348.91 2267.61H973.082v-624.05c88.348-154.26 183.708-304.31 286.078-448.76 29.45-40.66 58.9-81.33 89.75-122v1194.81M2476.41 1071.4c30.85 40.67 60.3 81.33 89.75 122.01 103.77 145.84 199.13 294.49 286.08 448.75v624.05h-375.83V1071.4M2100.58 2034.82v232.79h-375.83v-232.79c57.49 25.24 122 39.26 187.91 39.26s130.42-14.02 187.92-39.26M1912.66 462.781c64.51 56.09 126.21 114.989 187.92 176.688v534.301c-57.5-25.24-122.01-39.26-187.92-39.26-65.91 0-130.42 14.02-187.91 39.26V639.469c61.7-61.699 123.4-120.598 187.91-176.688" style="fill:#e21d25;fill-opacity:1;fill-rule:nonzero;stroke:none" transform="matrix(.13333 0 0 -.13333 0 682.667)"/><path d="M973.082 2267.61H677.184c68.714-178.1 150.054-352 241.207-521.67 18.23-35.06 36.464-68.73 56.093-102.38v624.05h-1.402M1724.75 2267.61h-375.84V1071.4c74.33-98.17 152.86-193.521 235.6-284.681 44.88-50.481 92.56-99.559 140.24-148.649v534.3c-165.48 72.92-281.88 239.81-281.88 430.52 0 192.13 116.4 357.61 281.88 430.53v234.19M2852.24 1643.56c18.23 35.06 37.86 68.71 56.09 102.38 91.15 169.67 171.09 343.57 241.21 521.67h-295.9l-1.4-624.05M2100.58 639.469c47.67 47.691 95.36 98.16 140.23 148.652 82.75 91.16 161.27 186.52 235.6 284.679v1196.21h-375.83v-232.79c165.48-72.92 281.87-238.4 281.87-430.52 0-192.13-116.39-357.61-281.87-430.53V639.469" style="fill:#fff;fill-opacity:1;fill-rule:nonzero;stroke:none" transform="matrix(.13333 0 0 -.13333 0 682.667)"/></svg>