<svg xmlns="http://www.w3.org/2000/svg" width="283.377893" height="352.885678" viewBox="0 0 53.000001 66"><clipPath id="a"><path d="M59.222 173.648a6.945 6.945 0 0 1-5.922-3.493 1.331 1.331 0 0 1-.142-.647c0-.513.285-.956.732-1.172a30.592 30.592 0 0 1 12.767-2.772c4.466 0 8.69.954 12.536 2.668l-.025.002c.436.208.764.663.764 1.193 0 .245-.105.552-.222.748a7.008 7.008 0 0 1-6.046 3.474c-.318 0-.863.01-.863.01z"/></clipPath><clipPath id="b"><path d="m70.647 169.297 17 22.47-20.923 28.326-20.923-28.374 16.988-22.451s2.095-.274 3.872-.274c1.479 0 3.986.303 3.986.303"/></clipPath><path fill="#ffe667" fill-rule="evenodd" d="M26.439.61c.88 0 1.61.73 1.61 1.63 0 .266-.063.517-.176.74l.1-.004a1.63 1.63 0 0 1 0 3.261c-.334 0-.628-.107-.897-.278.01 1.857 1.495 3.352 3.339 3.352a3.34 3.34 0 0 0 3.246-2.555 1.795 1.795 0 0 1-.87.042 1.63 1.63 0 0 1 .735-3.177l.055.013a1.63 1.63 0 1 1 2.833.657l.097.02a1.63 1.63 0 1 1-1.462 2.796l-.016.053c-.415 1.796.7 3.61 2.502 4.004 1.565.342 2.565-.105 3.09-.63a1.661 1.661 0 0 1-.768-.356 1.63 1.63 0 1 1 2.096-2.498l.419.387c.57-1 .654-1.166.945-1.608.494-.753 1.249-.539 2.05-.028l1.25.862-2.347 2.441c.068.151.084.313.084.482 0 .794-.643 1.437-1.437 1.437-.23 0-.444-.01-.637-.108a5.88 5.88 0 0 1-5.102 1.215 5.883 5.883 0 0 1-3.62-2.533l.054-.069a5.894 5.894 0 0 1-4.287.642 5.714 5.714 0 0 1-2.886-1.64 5.721 5.721 0 0 1-2.887 1.64c-1.517.35-3.017.16-4.265-.563l-.02.04c-.803 1.237-2.017 2.125-3.568 2.483a5.88 5.88 0 0 1-5.102-1.215c-.193.097-.406.108-.637.108a1.436 1.436 0 0 1-1.436-1.437c0-.169.015-.33.083-.482L6.26 7.294 7.51 6.43c.8-.51 1.556-.725 2.05.028.29.442.374.608.945 1.608l.419-.387a1.63 1.63 0 1 1 1.328 2.853c.526.526 1.526.973 3.09.631 1.802-.394 2.917-2.208 2.502-4.004l-.016-.053a1.63 1.63 0 1 1-1.462-2.797l.097-.019a1.63 1.63 0 0 1 .884-2.636 1.63 1.63 0 0 1 1.95 1.98l.054-.014a1.63 1.63 0 1 1 .734 3.177 1.795 1.795 0 0 1-.87-.042 3.34 3.34 0 0 0 3.248 2.555c1.843 0 3.327-1.495 3.338-3.352a1.643 1.643 0 0 1-.896.278 1.63 1.63 0 1 1 0-3.26l.099.002A1.627 1.627 0 0 1 26.439.61z" clip-rule="evenodd"/><path fill="none" stroke="#005187" stroke-miterlimit="3.864" stroke-width=".153" d="M26.439.61c.88 0 1.61.73 1.61 1.63 0 .266-.063.517-.176.74l.1-.004a1.63 1.63 0 0 1 0 3.261c-.334 0-.628-.107-.897-.278.01 1.857 1.495 3.352 3.339 3.352a3.34 3.34 0 0 0 3.246-2.555 1.795 1.795 0 0 1-.87.042 1.63 1.63 0 0 1 .735-3.177l.055.013a1.63 1.63 0 1 1 2.833.657l.097.02a1.63 1.63 0 1 1-1.462 2.796l-.016.053c-.415 1.796.7 3.61 2.502 4.004 1.565.342 2.565-.105 3.09-.63a1.661 1.661 0 0 1-.768-.356 1.63 1.63 0 1 1 2.096-2.498l.419.387c.57-1 .654-1.166.945-1.608.494-.753 1.249-.539 2.05-.028l1.25.862-2.347 2.441c.068.151.084.313.084.482 0 .794-.643 1.437-1.437 1.437-.23 0-.444-.01-.637-.108a5.88 5.88 0 0 1-5.102 1.215 5.883 5.883 0 0 1-3.62-2.533l.054-.069a5.894 5.894 0 0 1-4.287.642 5.714 5.714 0 0 1-2.886-1.64 5.721 5.721 0 0 1-2.887 1.64c-1.517.35-3.017.16-4.265-.563l-.02.04c-.803 1.237-2.017 2.125-3.568 2.483a5.88 5.88 0 0 1-5.102-1.215c-.193.097-.406.108-.637.108a1.436 1.436 0 0 1-1.436-1.437c0-.169.015-.33.083-.482L6.26 7.294 7.51 6.43c.8-.51 1.556-.725 2.05.028.29.442.374.608.945 1.608l.419-.387a1.63 1.63 0 1 1 1.328 2.853c.526.526 1.526.973 3.09.631 1.802-.394 2.917-2.208 2.502-4.004l-.016-.053a1.63 1.63 0 1 1-1.462-2.797l.097-.019a1.63 1.63 0 0 1 .884-2.636 1.63 1.63 0 0 1 1.95 1.98l.054-.014a1.63 1.63 0 1 1 .734 3.177 1.795 1.795 0 0 1-.87-.042 3.34 3.34 0 0 0 3.248 2.555c1.843 0 3.327-1.495 3.338-3.352a1.643 1.643 0 0 1-.896.278 1.63 1.63 0 1 1 0-3.26l.099.002A1.627 1.627 0 0 1 26.439.61z"/><circle cx="26.477838" cy="37.40509" r="26.094" fill="#fff"/><circle cx="26.477838" cy="37.40509" r="26.094" fill="none" stroke="#005187" stroke-miterlimit="3.864" stroke-width=".153"/><path fill="#005187" d="M1.348 37.542c0-13.84 11.219-25.06 25.06-25.06s25.06 11.22 25.06 25.06c0 13.841-11.22 25.061-25.06 25.061s-25.06-11.22-25.06-25.06"/><path fill="#fff" d="m30.486 14.197 5.597 7.312 5.999.024v4.237H39.35l8.712 11.66L29.24 62.91l-5.607.014L4.797 37.38l8.858-11.655h-3.027v-4.249l6.196-.012 5.538-7.297s2.165-.283 4.003-.283c1.529 0 4.12.313 4.12.313"/><path fill="#ffe667" d="M18.966 19.294a6.945 6.945 0 0 1-5.922-3.493 1.331 1.331 0 0 1-.142-.647c0-.513.285-.956.732-1.172A30.592 30.592 0 0 1 26.4 11.21c4.466 0 8.69.954 12.536 2.668l-.025.002c.436.208.764.663.764 1.193 0 .245-.105.552-.222.748a7.008 7.008 0 0 1-6.046 3.474c-.318 0-.863.01-.863.01z"/><g transform="translate(-40.256 -154.354)"><circle cx="66.511002" cy="194.39999" r="25.632999" clip-path="url(#a)"/><circle cx="66.511002" cy="194.39999" r="25.632999" fill="none" stroke="#000" stroke-miterlimit="3.864" stroke-width=".296" clip-path="url(#a)"/><path fill="#ffe667" d="M52.776 168.505c.19.173-1.178 1.628.302 2.774 2.153 1.667 2.183-2.417 13.719-2.417 7.907 0 11.016 2.619 11.016 2.619l-1.324.334-1.194.096.287-.86-.382-.525-.525.621-.335.048-.286-.895-.382.799-.909.435 1.428 2c2.863-.155 6.119-2.824 6.119-4.076 0-2.181-7.231-4.174-13.663-4.174-6.097 0-14.061 3.047-13.871 3.221z" clip-path="url(#a)"/><path fill="none" stroke="#000" stroke-miterlimit="3.864" stroke-width=".083" d="M52.776 168.505c.19.173-1.178 1.628.302 2.774 2.153 1.667 2.183-2.417 13.719-2.417 7.907 0 11.016 2.619 11.016 2.619l-1.324.334-1.194.096.287-.86-.382-.525-.525.621-.335.048-.286-.895-.382.799-.909.435 1.428 2c2.863-.155 6.119-2.824 6.119-4.076 0-2.181-7.231-4.174-13.663-4.174-6.097 0-14.061 3.047-13.871 3.221z" clip-path="url(#a)"/></g><path fill="none" stroke="#000" stroke-miterlimit="3.864" stroke-width=".153" d="M18.966 19.294a6.945 6.945 0 0 1-5.922-3.493 1.331 1.331 0 0 1-.142-.647c0-.513.285-.956.732-1.172A30.592 30.592 0 0 1 26.4 11.21c4.466 0 8.69.954 12.536 2.668l-.025.002c.436.208.764.663.764 1.193 0 .245-.105.552-.222.748a7.008 7.008 0 0 1-6.046 3.474c-.318 0-.863.01-.863.01z"/><path fill="#ffe667" d="m30.39 14.943 17 22.47L26.469 65.74 5.545 37.365l16.988-22.45s2.095-.275 3.872-.275c1.479 0 3.986.303 3.986.303"/><path fill="#e70005" d="M54.892 181.628v20.373l-4.706-5.866v-8.531z" clip-path="url(#b)" transform="translate(-40.256 -154.354)"/><path fill="none" stroke="#e70005" stroke-miterlimit="3.864" stroke-width=".296" d="M54.892 181.628v20.373l-4.706-5.866v-8.531z" clip-path="url(#b)" transform="translate(-40.256 -154.354)"/><path fill="#e70005" d="M59.419 175.709v33.11l4.71 6.018-.002-45.363z" clip-path="url(#b)" transform="translate(-40.256 -154.354)"/><path fill="none" stroke="#e70005" stroke-miterlimit="3.864" stroke-width=".296" d="M59.419 175.709v33.11l4.71 6.018-.002-45.363z" clip-path="url(#b)" transform="translate(-40.256 -154.354)"/><path fill="#e70005" d="M78.532 181.694v20.148l4.626-5.767v-8.434z" clip-path="url(#b)" transform="translate(-40.256 -154.354)"/><path fill="none" stroke="#e70005" stroke-miterlimit="3.864" stroke-width=".296" d="M78.532 181.694v20.148l4.626-5.767v-8.434z" clip-path="url(#b)" transform="translate(-40.256 -154.354)"/><path fill="#e70005" d="M74.028 175.737v32.977l-4.674 6.172-.084-45.546z" clip-path="url(#b)" transform="translate(-40.256 -154.354)"/><path fill="none" stroke="#e70005" stroke-miterlimit="3.864" stroke-width=".296" d="M74.028 175.737v32.977l-4.674 6.172-.084-45.546z" clip-path="url(#b)" transform="translate(-40.256 -154.354)"/><path fill="none" stroke="#005187" stroke-miterlimit="3.864" stroke-width=".153" d="m30.39 14.943 17 22.47L26.469 65.74 5.545 37.365l16.988-22.45s2.095-.275 3.872-.275c1.479 0 3.986.303 3.986.303z"/><g fill="#e70005"><path d="M25.463 4.334a1.01 1.01 0 1 1 2.02 0 1.01 1.01 0 0 1-2.02 0M17.215 5.38a1.01 1.01 0 1 1 2.019 0 1.01 1.01 0 0 1-2.02 0M33.785 5.38a1.01 1.01 0 1 1 2.018 0 1.01 1.01 0 0 1-2.018 0M42.205 10.583a1.01 1.01 0 1 1 2.018 0 1.01 1.01 0 0 1-2.018 0M8.624 10.583a1.01 1.01 0 1 1 2.018 0 1.01 1.01 0 0 1-2.018 0M26.4 11.822l-2.382.92 2.386 1.086 2.395-1.06z"/></g><path fill="#005187" d="m15.769 13.88-1.895 1.713 2.616.16 1.857-1.85zM36.98 13.88l1.895 1.713-2.617.16-1.856-1.85z"/><path d="M18.738 31.582c-.797-.496-1.46-.689-2.345-.689-3.253 0-5.62 2.837-5.62 6.722 0 3.663 2.41 6.556 5.465 6.556.907 0 1.593-.193 2.5-.689v-3.746c-.575.551-1.151.826-1.792.826-1.483 0-2.478-1.239-2.478-3.058 0-1.708 1.04-2.975 2.433-2.975.642 0 1.15.221 1.837.8zM42.163 33.852V31.06h-7.471v13.08h3.384v-5.386h3.715V35.96h-3.715v-2.108z"/><path d="m10.99 21.838-.001 3.544 7.03-.009 8.335 28.901 8.05-28.9h7.293v-3.536H31.78l-5.34 19.51-5.38-19.51z"/><path fill="#ffe667" d="m17.526 16.42.717 1.125-.051.973.768-.05 2.1-3.06z"/><path fill="none" stroke="#000" stroke-miterlimit="3.864" stroke-width=".141" d="m17.526 16.42.717 1.125-.051.973.768-.05 2.1-3.06z"/></svg>