<svg enable-background="new 0 0 56.75 57.083" height="316.227766" viewBox="0 0 56.75 57.083" width="316.227766" xmlns="http://www.w3.org/2000/svg" xmlns:xlink="http://www.w3.org/1999/xlink"><clipPath id="a"><path d="m.725-6.294h70.865v66.614h-70.865z"/></clipPath><path clip-path="url(#a)" d="m54.971 28.66c0 14.612-11.848 26.459-26.459 26.459-14.613 0-26.459-11.847-26.459-26.459 0-14.613 11.846-26.46 26.459-26.46 14.611 0 26.459 11.847 26.459 26.46" fill="#fff"/><path clip-path="url(#a)" d="m23.503 48.367-.656-.159-.77 3.222.018.005 2.085.498.141-.591-1.445-.344zm12.416-.758.663 1.847-1.858-1.421-.563.203 1.112 3.117.638-.228-.662-1.853 1.856 1.427.011-.005.555-.199-1.114-3.116zm-17.714 2.379.652.267.403-.463 1.052.432-.04.609.013.006.642.263.134-3.525-.484-.197zm2.158-.363-.708-.29.783-.886zm13.028-.331c-.07-.177-.189-.326-.363-.442-.139-.1-.288-.165-.442-.2-.081-.019-.162-.027-.25-.027-.082 0-.166.008-.254.024-.181.031-.337.09-.473.176-.134.086-.253.198-.349.338-.117.167-.177.347-.181.54v.035c0 .187.028.449.089.782.061.355.127.619.196.796.068.177.188.327.354.446.139.098.29.164.446.2.08.016.163.025.249.025.082 0 .168-.008.254-.023.182-.033.338-.091.473-.176.132-.085.25-.2.346-.338.121-.173.186-.357.189-.546-.001-.009 0-.016 0-.027 0-.184-.033-.447-.091-.785-.063-.357-.127-.622-.193-.798m-.392 1.55c0 .063-.006.115-.02.16-.011.044-.028.087-.055.126-.077.129-.197.206-.361.237-.039.005-.075.009-.111.009-.042 0-.082-.004-.122-.013-.074-.017-.138-.047-.189-.092-.04-.029-.07-.062-.094-.098-.026-.035-.05-.086-.073-.147-.022-.063-.046-.141-.067-.236s-.047-.224-.074-.387c-.028-.164-.051-.294-.064-.393-.012-.094-.017-.169-.017-.231v-.013c.002-.064.008-.12.019-.164.012-.042.029-.084.053-.118.035-.063.084-.113.147-.155s.134-.068.217-.085c.04-.005.077-.01.114-.01.115.002.217.037.305.108.039.029.072.064.1.102.025.037.049.084.07.142.025.059.048.137.07.236.021.098.046.228.074.387.028.158.049.287.062.39.013.092.018.169.018.23v.015zm-3.826-1.864.158 3.307.019-.001.656-.033-.159-3.305zm-2.105-.041-1.327-.108-.264 3.302 1.386.109c.042.004.082.005.121.005h.002c.248 0 .462-.066.634-.199.201-.153.313-.383.336-.682.003-.035.004-.064.004-.095 0-.156-.033-.288-.103-.399-.072-.115-.164-.207-.271-.275.097-.044.186-.117.271-.219.098-.115.152-.256.164-.424.002-.035.003-.068.003-.102 0-.238-.071-.441-.219-.603-.168-.182-.414-.286-.737-.31m.218 2.342c-.01.113-.052.2-.127.268-.065.056-.15.086-.262.086-.016 0-.032 0-.051-.001l-.648-.053.062-.765.648.051c.135.01.231.054.295.13.057.068.085.148.085.245 0 .011-.001.026-.002.039m.061-1.353c-.008.108-.049.191-.124.252-.065.05-.147.077-.254.077-.018 0-.035-.001-.053-.002l-.606-.049.056-.716.607.047c.13.012.226.052.291.122.057.063.085.137.085.231 0 .012 0 .025-.002.038m1.165-47.392c-14.428 0-26.124 11.696-26.124 26.123s11.696 26.125 26.124 26.125c14.427 0 26.123-11.698 26.123-26.125 0-14.428-11.697-26.123-26.123-26.123m0 51.242c-13.874 0-25.119-11.246-25.119-25.12 0-13.872 11.245-25.119 25.119-25.119s25.119 11.247 25.119 25.119c0 13.874-11.245 25.12-25.119 25.12m5.615-44.599c.143.049.271.074.383.077.035.001.066 0 .099-.003.131-.014.264-.047.399-.094l.005-.003.132.326.764.255-.353-.847c.138-.083.256-.192.359-.325.103-.139.192-.309.271-.512l.007-.017-.564-.186-.007.016c-.079.215-.184.368-.308.46l-.304-.737c.037-.01.081-.023.128-.039.054-.017.096-.031.127-.041.127-.041.232-.096.316-.164.086-.067.146-.159.185-.273.026-.081.041-.163.042-.24.002-.125-.025-.245-.09-.36-.101-.187-.276-.319-.518-.399-.121-.039-.234-.061-.343-.062-.119-.004-.233.016-.338.062-.192.084-.328.235-.397.45-.025.075-.037.15-.04.223-.001.053.003.105.015.157.023.113.063.233.115.358-.193.052-.361.127-.504.221-.148.099-.251.24-.313.419-.039.123-.061.238-.063.347-.003.157.03.3.102.433.122.222.354.389.693.498m.594-2.445c.022-.07.061-.119.118-.147.029-.017.063-.024.102-.023.029 0 .061.006.094.017.074.025.124.064.152.123.018.035.026.071.025.108 0 .025-.005.052-.014.078-.016.046-.043.081-.087.112-.043.031-.098.056-.162.073-.02.009-.043.016-.076.024-.024.008-.045.012-.065.016-.043-.099-.071-.175-.087-.23-.009-.032-.012-.061-.012-.087.001-.023.005-.045.012-.064m-.742 1.349c.032-.096.083-.17.153-.219.068-.049.164-.092.286-.128l.368.884c-.086.036-.165.053-.24.058h-.046c-.064-.002-.132-.014-.203-.037-.129-.042-.224-.115-.284-.22-.039-.067-.058-.136-.055-.21.001-.041.008-.084.021-.128m-5.457-1.642 1.259 1.922h.593v-3.234h-.669v1.916l-1.259-1.916h-.593v3.234h.669zm16.39 10.195 1.186 1.803.496-.325-.828-1.259.619-.407.704 1.072.495-.325-.704-1.072.597-.392.827 1.258.495-.326-1.194-1.818-2.702 1.775zm-3.546-4.782c-.078.139-.117.295-.117.463 0 .026.001.055.005.085.013.167.056.322.13.462.072.14.179.27.317.386.139.12.279.203.431.253.118.038.244.059.376.059.034 0 .065-.001.099-.004.207-.014.385-.079.529-.193.144-.116.329-.305.557-.572.231-.269.391-.485.481-.643.073-.134.112-.282.112-.444 0-.034-.003-.07-.007-.106-.014-.167-.058-.322-.13-.461-.07-.141-.177-.27-.313-.387-.14-.118-.282-.202-.432-.252-.122-.042-.249-.061-.384-.061-.032 0-.062.001-.095.005-.199.012-.373.079-.521.194-.146.115-.333.307-.562.574-.227.267-.386.481-.476.642m.525.543c0-.039.004-.077.015-.111.012-.041.032-.089.065-.147.031-.054.077-.12.135-.195.061-.077.142-.175.246-.298.105-.122.191-.221.256-.29.067-.071.124-.125.176-.164.048-.04.092-.069.134-.087s.082-.03.125-.035c.02-.004.043-.006.064-.006.046 0 .094.008.144.023.07.024.137.062.2.115.126.109.19.235.192.38v.022c0 .04-.005.078-.015.115-.012.042-.032.091-.063.145-.029.054-.075.119-.135.196-.061.078-.142.178-.245.299-.101.116-.186.214-.254.285-.069.074-.126.129-.174.167-.049.038-.095.065-.135.085-.04.018-.083.029-.131.036-.023.003-.049.004-.071.004-.117 0-.229-.043-.335-.134-.064-.055-.111-.115-.146-.181-.031-.068-.048-.134-.048-.201zm-2.464-2.436.905.559-.7 1.139.014.01.554.341 1.694-2.753-.568-.35-.686 1.112-.907-.558.688-1.113-.57-.351-1.695 2.752.57.353zm4.488 5.458.013-.006 3.132-1.316-.46-.524-1.956.872 1.109-1.831-.459-.521-1.708 2.95zm-19.311-7.574c.06.177.169.327.328.453.132.103.276.173.43.215.099.027.202.04.314.04.059 0 .121-.005.184-.011.183-.023.339-.072.478-.149.137-.077.257-.182.361-.314.127-.162.199-.337.213-.522.002-.042.005-.086.005-.136 0-.17-.019-.39-.05-.661-.045-.351-.096-.612-.151-.788-.059-.177-.17-.326-.335-.451-.133-.103-.277-.174-.427-.216-.1-.026-.204-.04-.313-.04-.061 0-.123.005-.186.013-.183.022-.34.071-.479.149-.137.077-.259.181-.363.314-.124.155-.192.329-.207.516-.005.046-.006.096-.006.151 0 .17.017.386.051.652.042.348.094.608.153.785m.464-1.492c.005-.064.013-.116.027-.158s.034-.081.059-.116c.036-.056.089-.104.153-.14.064-.038.139-.062.222-.072.026-.002.054-.005.082-.005.128 0 .235.039.326.119.037.032.067.066.09.104.025.038.047.085.066.144.018.058.037.135.052.232.018.098.037.225.057.382.019.155.031.282.039.382.006.062.008.119.008.167 0 .027 0 .052-.002.074-.005.062-.014.112-.027.156-.014.042-.035.082-.063.12-.083.121-.204.192-.369.212-.027.003-.056.005-.08.005-.054 0-.104-.007-.152-.02-.072-.021-.132-.054-.183-.1-.037-.03-.065-.063-.087-.099-.021-.036-.043-.085-.063-.147-.021-.061-.039-.139-.055-.234-.017-.093-.034-.221-.055-.38-.021-.162-.033-.29-.041-.387-.005-.061-.008-.115-.008-.164.001-.027.002-.053.004-.075m-11.784 8.941-.94-.862.287-.315 1.368.394.008-.009.515-.561-1.515-.401c.044-.111.066-.226.066-.346 0-.054-.005-.108-.014-.163-.03-.184-.127-.351-.287-.496-.1-.092-.213-.163-.333-.208-.104-.041-.215-.06-.328-.06-.017 0-.032 0-.05.001-.129.007-.26.043-.39.106-.127.064-.245.158-.357.278l-.869.951 2.388 2.184zm-1.351-1.239-.599-.547.392-.427c.089-.097.188-.149.298-.161.012 0 .025-.001.036-.001.096 0 .181.035.263.111.09.082.134.175.134.286s-.044.215-.134.313zm-.277 3.292c.135-.207.203-.41.203-.614 0-.046-.003-.09-.01-.136-.038-.246-.181-.449-.427-.611-.149-.096-.29-.145-.428-.145-.016 0-.028 0-.042.002-.135.01-.257.046-.365.107.001-.014.001-.028.001-.043 0-.091-.022-.192-.062-.295-.051-.136-.146-.25-.287-.341-.166-.111-.336-.165-.507-.165-.064 0-.133.009-.2.026-.238.061-.442.228-.617.494l-.721 1.106 2.711 1.769zm-1.682-.972-.329.504-.587-.382.328-.506c.071-.109.153-.173.244-.195.026-.008.051-.011.077-.011.063 0 .128.02.19.062.091.059.143.134.157.226.004.016.006.034.006.052.001.077-.028.16-.086.25m.17.832.354-.54c.071-.112.155-.176.251-.196h.001c.023-.004.048-.008.073-.008.07 0 .141.023.209.068.093.059.147.137.17.235.006.022.008.047.008.069 0 .076-.026.157-.083.241l-.352.541zm4.956-3.77.494-.423-2.103-2.458-.509.434 2.104 2.46zm7.035-6.827.703 2.546.644-.175-.702-2.547.818-.226-.16-.57-2.277.627.156.571zm-6.703 4.465c.192.292.356.504.487.635.134.131.298.218.495.259.082.016.164.024.243.024.242 0 .475-.074.693-.219.308-.204.494-.479.558-.82.014-.063.02-.126.02-.188 0-.095-.015-.19-.044-.282-.047-.154-.138-.328-.269-.528l-.265-.394-1.035.688.31.464.478-.318.054.079c.046.068.078.14.103.215.014.05.022.1.022.148 0 .022-.003.045-.006.066-.025.157-.108.281-.253.377-.1.066-.199.098-.296.098-.04 0-.08-.004-.12-.014-.046-.012-.086-.029-.123-.051-.034-.021-.076-.057-.121-.105-.047-.048-.098-.109-.153-.185-.059-.078-.131-.184-.22-.319-.091-.133-.16-.245-.211-.327s-.086-.153-.11-.212c-.024-.057-.04-.108-.046-.153-.004-.02-.005-.043-.005-.063 0-.022.002-.044.005-.066.021-.146.098-.263.235-.355.098-.064.188-.099.274-.108.019-.004.043-.004.068-.004.074 0 .164.01.268.032l.016.002.131-.625-.017-.003c-.122-.024-.235-.037-.341-.037-.074 0-.147.006-.213.019-.159.031-.332.108-.516.23-.293.194-.473.458-.541.789-.016.069-.022.14-.022.208 0 .12.022.235.068.346.071.172.201.405.399.697m4.297-.698-.55-1.221.969-.436.553 1.221.017-.007.592-.268-1.331-2.949-.611.275.54 1.191-.97.438-.539-1.192-.609.275 1.332 2.95zm19.561 19.918c.268 0 .483-.31.483-.31s-.216-.308-.483-.308-.482.308-.482.308.215.31.482.31m12.622-4.692c-.321-.172-.814-.4-1.521-.697-.728-.304-2.232-.784-3.791-1.2-2.174-7.956-9.446-13.803-18.088-13.803-9.681 0-17.646 7.336-18.646 16.75-.954.142-1.865.253-2.656.336-1.566.163-2.653.221-2.655.222-.059.003-.104.048-.112.105-.001.005-.001.011-.001.02-.004.086.057.445.65.747.592.308 1.713.587 3.885.589.245 0 .506-.007.779-.013 0 10.358 8.396 18.755 18.756 18.755 10.357 0 18.755-8.397 18.755-18.755 0-1.177-.115-2.329-.321-3.446 1.928.426 4.354.977 5.136.979.083-.002.149-.005.206-.024.051-.011.126-.054.129-.142-.031-.17-.188-.237-.505-.423m.169.41c-1.225.002-6.856-1.459-7.656-1.462-1.25.008-4.063 1.552-5.524 2.501-.425.278-.858.529-1.281.75.107.006.217.015.321.029.889.106 1.677.45 2.314.917.821.612 1.67 1.362 2.18 1.462.024.002.052.004.081.008h.002c.726.068 2.803.582 2.738 1.811 0 0-1.446-.437-3.18-.14-.683.146-1.679.238-3.187.718-1.428.45-5.153 1.862-8.065 1.863-2.216-.002-6.693-1.277-9.277-1.496-.154-.013-.307-.021-.46-.021-1.967-.002-3.656 1.032-4.501 1.043-.762 0-2.098-.13-3.406-1.1-.995-.744-1.73-1.831-1.74-2.636-.002-.269.094-.519.304-.684.148-.113.356-.136.63-.139 1.014.001 3.021.441 5.402.44 1.416 0 2.957-.154 4.486-.647.355-.114 1.423-.363 2.111-.536.182.124.374.258.588.406.021.015.043.022.065.022.039 0 .075-.019.099-.05.038-.055.023-.128-.028-.166-1.324-.922-1.953-1.434-4.168-1.428-1.411 0-3.475.196-6.817.597-2.169.259-3.844.36-5.135.36-2.152.001-3.242-.281-3.775-.561-.329-.173-.45-.336-.493-.434.774-.048 4.641-.319 8.057-1.075 3.877-.862 9.948-3.288 12.776-3.283 1.054-.007 2.881 1.08 4.691 2.299 1.822 1.215 3.64 2.554 4.8 3.04.06.024.129-.003.153-.063.026-.06-.003-.129-.063-.155-.664-.278-1.587-.87-2.611-1.561 1.405-.665 6.279-3.591 9.768-3.589 1.659-.003 6.567 1.394 8.043 2.016.703.296 1.195.521 1.507.69.155.083.268.151.334.203.021.015.038.031.049.043-.031.005-.075.008-.132.008" fill="#005daa"/><path clip-path="url(#a)" d="m42.076 31.889c1.733-.297 3.18.14 3.18.14.068-1.281-2.188-1.785-2.821-1.819 0 0 .327.68-1.436.814 0 0-.823-.019-1.16.283 0 0 1.622-.124 2.192.51z" fill="#fdb913"/></svg>