<svg xmlns="http://www.w3.org/2000/svg" viewBox="0 0 94 200" width="94" height="200">
	<style>
		tspan { white-space:pre }
		.shp0 { fill: #dd0000 } 
	</style>
	<path fill-rule="evenodd" class="shp0" d="M31.69 0.06C31.72 0.06 31.85 0.35 31.97 0.7C32.09 1.05 32.8 3.11 34.9 9.2L39.65 9.23C42.76 9.25 44.39 9.28 44.38 9.32C44.37 9.36 42.65 10.63 36.74 14.94L38.25 19.74C39.08 22.38 39.74 24.56 39.71 24.58C39.69 24.61 37.88 23.38 35.69 21.85C33.51 20.33 31.7 19.08 31.67 19.08C31.64 19.08 29.84 20.33 27.66 21.85C25.48 23.38 23.68 24.61 23.66 24.58C23.63 24.56 24.28 22.4 25.1 19.78C25.92 17.17 26.59 15 26.59 14.97C26.59 14.93 24.87 13.66 22.77 12.13C20.67 10.6 18.96 9.33 18.98 9.29C19 9.25 20.65 9.23 28.45 9.23L28.54 8.96C28.59 8.82 29.28 6.81 30.09 4.49C30.89 2.17 31.57 0.23 31.59 0.17C31.62 0.11 31.66 0.06 31.69 0.06ZM61.83 0.06C61.87 0.06 62.5 1.81 63.24 3.94C63.97 6.08 64.68 8.14 65.08 9.23L69.79 9.23C72.86 9.23 74.5 9.25 74.52 9.29C74.54 9.33 72.83 10.61 70.73 12.15C68.63 13.68 66.91 14.96 66.91 14.98C66.91 15.01 67.58 17.17 68.4 19.78C69.23 22.4 69.88 24.56 69.85 24.58C69.82 24.6 68.01 23.38 65.82 21.85C63.64 20.33 61.82 19.08 61.79 19.09C61.75 19.09 59.95 20.33 57.78 21.86C55.61 23.38 53.81 24.6 53.78 24.58C53.76 24.56 54.41 22.38 55.23 19.74C56.06 17.1 56.71 14.92 56.68 14.9C56.65 14.87 54.93 13.62 52.86 12.1C50.78 10.59 49.1 9.33 49.11 9.29C49.13 9.25 50.77 9.23 58.56 9.23L60.13 4.69C61 2.2 61.72 0.13 61.74 0.11C61.75 0.08 61.79 0.06 61.83 0.06ZM46.35 33.62C46.88 33.62 47.6 33.64 47.96 33.68C48.32 33.71 48.88 33.79 49.21 33.84C49.53 33.89 50.12 34.02 50.51 34.11C50.9 34.21 51.56 34.41 51.97 34.55C52.38 34.69 53.19 35.04 53.77 35.33C54.35 35.61 55.18 36.08 55.6 36.37C56.03 36.65 56.59 37.06 56.85 37.26C57.1 37.46 57.67 37.98 58.11 38.41C58.55 38.84 59.15 39.49 59.44 39.85C59.73 40.21 60.15 40.79 60.79 41.75L61.29 41.65C61.56 41.59 62.06 41.51 62.39 41.48C62.73 41.44 63.35 41.41 63.79 41.41C64.23 41.41 64.88 41.45 65.23 41.5C65.59 41.55 66.12 41.64 66.42 41.71C66.71 41.78 67.25 41.94 67.63 42.07C68 42.19 68.59 42.42 68.93 42.57C69.27 42.73 69.8 43 70.11 43.18C70.42 43.37 70.91 43.69 71.2 43.91C71.49 44.12 72.01 44.58 72.35 44.93C72.7 45.27 73.16 45.8 73.37 46.09C73.58 46.38 73.91 46.88 74.09 47.21C74.27 47.54 74.54 48.08 74.67 48.43C74.81 48.77 74.99 49.3 75.08 49.61C75.17 49.92 75.3 50.51 75.38 50.92C75.49 51.56 75.51 51.9 75.51 53.26C75.52 54.48 75.49 55.01 75.41 55.53C75.35 55.91 75.23 56.52 75.15 56.88C75.07 57.24 75.02 57.55 75.04 57.57C75.06 57.59 75.31 57.68 75.58 57.78C75.85 57.87 76.37 58.1 76.73 58.28C77.09 58.46 77.63 58.78 77.94 58.98C78.25 59.18 78.71 59.52 78.96 59.73C79.22 59.94 79.74 60.42 80.12 60.81C80.49 61.2 80.98 61.76 81.2 62.05C81.42 62.34 81.73 62.79 81.89 63.05C82.05 63.31 82.3 63.76 82.44 64.05C82.59 64.34 82.8 64.82 82.92 65.12C83.03 65.42 83.2 65.96 83.29 66.31C83.42 66.82 83.46 67.15 83.48 67.95C83.5 68.69 83.49 69.05 83.42 69.38C83.37 69.62 83.33 69.82 83.34 69.82C83.34 69.83 83.61 69.97 83.94 70.13C84.26 70.29 84.69 70.54 84.9 70.68C85.1 70.81 85.48 71.1 85.74 71.32C85.99 71.54 86.37 71.91 86.58 72.15C86.78 72.4 87.1 72.84 87.29 73.14C87.48 73.44 87.74 73.94 87.87 74.24C88 74.55 88.19 75.11 88.28 75.49C88.38 75.87 88.49 76.47 88.53 76.83C88.58 77.25 88.6 77.93 88.58 78.73C88.56 79.42 88.5 80.25 88.45 80.57C88.4 80.9 88.33 81.28 88.27 81.67L88.76 82.03C89.03 82.24 89.5 82.62 89.81 82.89C90.11 83.15 90.52 83.53 90.71 83.73C90.91 83.93 91.21 84.28 91.4 84.5C91.59 84.73 91.92 85.17 92.14 85.5C92.35 85.83 92.68 86.39 92.86 86.75C93.04 87.11 93.28 87.7 93.41 88.06C93.53 88.42 93.7 89.05 93.79 89.46C93.91 90.05 93.95 90.46 93.98 91.43C94 92.18 93.99 92.88 93.94 93.26C93.91 93.61 93.81 94.21 93.73 94.61C93.65 95 93.46 95.69 93.31 96.13C93.16 96.58 92.87 97.29 92.66 97.72C92.45 98.15 92.08 98.8 91.84 99.16C91.61 99.52 91.2 100.07 90.94 100.37C90.69 100.68 90.2 101.2 89.86 101.53C89.52 101.86 88.94 102.36 88.56 102.64C88.19 102.92 87.57 103.32 87.2 103.54C86.82 103.75 86.16 104.07 85.74 104.25C85.31 104.43 84.6 104.68 84.15 104.8C83.71 104.92 82.97 105.08 82.51 105.15C81.9 105.23 81.34 105.27 80.47 105.27C79.75 105.27 78.99 105.23 78.55 105.17C78.14 105.12 77.51 105.01 77.13 104.93C76.56 104.8 76.44 104.79 76.39 104.86C76.35 104.91 76.14 105.21 75.92 105.53C75.7 105.85 75.18 106.45 74.77 106.88C74.36 107.31 73.79 107.84 73.5 108.08C73.21 108.31 72.69 108.69 72.35 108.92C72.01 109.15 71.29 109.55 70.76 109.81C70.23 110.08 69.52 110.4 69.18 110.52C68.84 110.65 68.28 110.83 67.94 110.93C67.6 111.04 67.02 111.18 66.66 111.25C66.3 111.32 65.79 111.41 65.51 111.46C65.2 111.51 64.42 111.53 63.43 111.53C62.04 111.53 61.77 111.52 61.23 111.4C60.89 111.32 60.28 111.16 59.89 111.03C59.5 110.91 58.86 110.67 58.46 110.5C58.07 110.33 57.57 110.09 56.97 109.76L56.97 127.85L57.17 127.73C57.28 127.66 57.82 127.36 58.37 127.06C58.92 126.76 60.08 126.16 60.95 125.72C61.82 125.28 62.9 124.76 63.34 124.55C63.78 124.35 64.52 124.02 64.99 123.82C65.45 123.63 66.22 123.31 66.69 123.12C67.17 122.93 68.05 122.61 68.65 122.41C69.25 122.21 70.21 121.9 70.8 121.74C71.38 121.57 72.34 121.33 72.94 121.21C73.54 121.08 74.45 120.92 74.96 120.86C75.57 120.77 76.45 120.72 77.54 120.69C78.63 120.67 79.45 120.68 79.99 120.73C80.43 120.77 81.18 120.88 81.64 120.96C82.1 121.04 82.84 121.21 83.28 121.34C83.73 121.46 84.43 121.69 84.84 121.84C85.25 122 85.88 122.27 86.23 122.46C86.59 122.64 87.11 122.94 87.38 123.12C87.66 123.3 88.11 123.67 88.91 124.45L88.91 128.66C88.91 130.97 88.89 132.89 88.86 132.91C88.83 132.94 88.62 132.77 88.38 132.54C88.14 132.31 87.73 131.97 87.48 131.8C87.22 131.62 86.74 131.33 86.42 131.16C86.1 130.99 85.54 130.72 85.18 130.57C84.82 130.42 84.16 130.18 83.72 130.03C83.27 129.89 82.57 129.69 82.16 129.59C81.75 129.49 81.01 129.34 80.52 129.25C80.02 129.17 79.25 129.07 78.81 129.03C78.31 128.98 77.45 128.97 76.57 128.99C75.7 129 74.89 129.06 74.49 129.12C74.13 129.18 73.46 129.31 73 129.41C72.54 129.51 71.69 129.73 71.11 129.9C70.52 130.07 69.63 130.36 69.12 130.54C68.61 130.73 67.82 131.04 67.38 131.23C66.93 131.42 66.19 131.75 65.73 131.98C65.27 132.2 64.25 132.74 63.46 133.18C62.68 133.62 61.43 134.27 60.7 134.64C59.96 135 58.86 135.52 58.25 135.78C57.63 136.04 56.72 136.41 56.23 136.6C55.73 136.78 54.93 137.07 54.46 137.23C53.98 137.39 53.14 137.64 52.59 137.8C52.04 137.95 51.21 138.16 49.86 138.43L49.84 118.34C49.83 107.29 49.84 98.22 49.86 98.18C49.88 98.13 50.14 98.33 50.53 98.7C50.88 99.03 51.47 99.5 51.85 99.76C52.22 100.01 52.82 100.36 53.18 100.55C53.54 100.73 54.13 101 54.49 101.14C54.85 101.28 55.46 101.49 55.85 101.61C56.25 101.73 56.92 101.9 57.34 101.99C57.77 102.07 58.5 102.19 58.96 102.24C59.42 102.3 60.29 102.34 60.89 102.34C61.48 102.34 62.34 102.3 62.78 102.24C63.22 102.19 63.85 102.09 64.18 102.03C64.5 101.96 65.02 101.83 65.33 101.75C65.64 101.66 66.12 101.5 66.42 101.39C66.71 101.29 67.21 101.08 67.53 100.92C67.86 100.77 68.36 100.5 68.65 100.33C68.94 100.16 69.43 99.82 69.74 99.59C70.05 99.36 70.54 98.92 70.84 98.62C71.14 98.32 71.55 97.84 71.76 97.57C71.96 97.29 72.27 96.79 72.44 96.45C72.61 96.1 72.8 95.64 72.87 95.42C72.94 95.19 73.03 94.89 73.06 94.75C73.1 94.6 73.15 94.49 73.18 94.5C73.21 94.5 73.41 94.74 73.63 95.01C73.85 95.29 74.27 95.7 74.56 95.94C74.88 96.2 75.34 96.49 75.77 96.7C76.14 96.88 76.66 97.09 76.91 97.16C77.17 97.23 77.65 97.32 77.97 97.35C78.39 97.4 78.75 97.4 79.18 97.35C79.52 97.32 80.01 97.23 80.27 97.16C80.53 97.09 80.96 96.92 81.23 96.8C81.51 96.67 81.91 96.44 82.13 96.29C82.36 96.14 82.74 95.82 82.99 95.58C83.24 95.33 83.59 94.93 83.77 94.67C83.94 94.41 84.19 93.98 84.32 93.7C84.44 93.43 84.61 92.96 84.69 92.67C84.82 92.21 84.83 92 84.83 91.05C84.83 90.05 84.82 89.92 84.66 89.4C84.57 89.09 84.39 88.63 84.27 88.37C84.15 88.11 83.91 87.71 83.75 87.46C83.58 87.22 83.27 86.85 83.05 86.63C82.84 86.41 82.49 86.1 82.29 85.95C82.08 85.8 81.68 85.55 81.39 85.41C81.1 85.26 80.68 85.09 80.46 85.01C80.23 84.94 79.95 84.87 79.83 84.84C79.72 84.82 79.55 84.77 79.34 84.69L79.55 84.39C79.66 84.23 79.87 83.87 80.01 83.6C80.14 83.32 80.31 82.92 80.38 82.69C80.45 82.47 80.55 82.12 80.59 81.91C80.63 81.71 80.67 81.19 80.66 80.76C80.66 80.13 80.63 79.86 80.49 79.36C80.4 79.01 80.22 78.52 80.09 78.27C79.96 78.01 79.77 77.67 79.67 77.52C79.56 77.36 79.33 77.07 79.14 76.87C78.96 76.66 78.6 76.34 78.34 76.15C78.09 75.96 77.67 75.7 77.41 75.57C77.16 75.45 76.78 75.29 76.57 75.22C76.37 75.15 75.98 75.05 75.72 75C75.45 74.94 75.05 74.9 74.82 74.9C74.59 74.9 74.38 74.88 74.35 74.85C74.33 74.83 74.36 74.73 74.42 74.65C74.49 74.56 74.64 74.3 74.75 74.06C74.87 73.82 75.03 73.44 75.1 73.23C75.18 73.02 75.27 72.71 75.3 72.56C75.33 72.41 75.39 72.03 75.42 71.73C75.45 71.4 75.45 70.94 75.42 70.56C75.39 70.22 75.3 69.7 75.21 69.41C75.13 69.12 74.97 68.68 74.86 68.44C74.76 68.2 74.51 67.77 74.32 67.48C74.13 67.17 73.73 66.69 73.38 66.35C73.05 66.02 72.52 65.58 72.19 65.36C71.87 65.15 71.38 64.86 71.11 64.73C70.83 64.6 70.39 64.42 70.11 64.33C69.84 64.23 69.37 64.11 69.07 64.04C68.77 63.98 68.2 63.89 67.8 63.86C67.4 63.82 66.91 63.81 66.73 63.84C66.54 63.86 66.34 63.86 66.28 63.84C66.18 63.8 66.22 63.73 66.51 63.35C66.69 63.1 66.99 62.63 67.16 62.3C67.33 61.98 67.56 61.41 67.68 61.05C67.8 60.69 67.94 60.17 68 59.9C68.05 59.63 68.12 59.09 68.15 58.72C68.17 58.34 68.17 57.72 68.15 57.34C68.13 56.97 68.06 56.42 68 56.13C67.94 55.84 67.81 55.34 67.71 55.04C67.61 54.73 67.41 54.22 67.26 53.91C67.11 53.6 66.81 53.09 66.6 52.76C66.35 52.39 65.94 51.91 65.52 51.48C65.13 51.09 64.6 50.64 64.3 50.44C64.01 50.25 63.58 49.99 63.34 49.87C63.1 49.75 62.67 49.57 62.38 49.47C62.09 49.37 61.61 49.23 61.32 49.17C60.9 49.07 60.53 49.05 59.58 49.05C58.65 49.05 58.25 49.08 57.84 49.16C57.55 49.22 57.06 49.36 56.75 49.46C56.45 49.57 56.04 49.73 55.85 49.83C55.67 49.93 55.49 50.02 55.46 50.02C55.44 50.02 55.39 49.83 55.35 49.59C55.32 49.36 55.19 48.89 55.08 48.55C54.97 48.21 54.78 47.74 54.67 47.52C54.56 47.3 54.32 46.88 54.12 46.59C53.93 46.29 53.49 45.77 53.15 45.43C52.81 45.08 52.35 44.67 52.13 44.51C51.9 44.36 51.5 44.1 51.22 43.95C50.95 43.79 50.46 43.56 50.14 43.44C49.81 43.31 49.24 43.13 48.86 43.04C48.25 42.9 48.05 42.88 46.91 42.88C45.9 42.88 45.52 42.9 45.11 42.99C44.81 43.05 44.33 43.18 44.02 43.28C43.71 43.38 43.19 43.6 42.87 43.76C42.54 43.93 42.07 44.2 41.81 44.37C41.56 44.54 41.02 45.01 40.62 45.4C40.14 45.88 39.78 46.31 39.54 46.68C39.34 46.99 39.07 47.46 38.95 47.74C38.82 48.01 38.64 48.49 38.55 48.8C38.46 49.11 38.37 49.47 38.35 49.6C38.32 49.73 38.28 49.83 38.26 49.83C38.23 49.83 37.99 49.74 37.73 49.64C37.46 49.53 36.97 49.37 36.62 49.29C36.15 49.17 35.77 49.12 35.01 49.1C34.23 49.07 33.87 49.09 33.36 49.17C33 49.23 32.43 49.37 32.09 49.48C31.75 49.6 31.26 49.79 31 49.92C30.75 50.05 30.31 50.3 30.04 50.48C29.77 50.67 29.36 50.97 29.14 51.17C28.92 51.36 28.57 51.71 28.37 51.94C28.17 52.17 27.84 52.61 27.63 52.92C27.43 53.22 27.16 53.7 27.03 53.98C26.9 54.25 26.7 54.75 26.6 55.08C26.49 55.42 26.36 55.95 26.3 56.27C26.24 56.63 26.2 57.18 26.2 57.75C26.2 58.31 26.24 58.87 26.3 59.21C26.35 59.52 26.47 60.03 26.56 60.34C26.65 60.65 26.85 61.16 27 61.49C27.16 61.82 27.37 62.22 27.48 62.39C27.58 62.57 27.85 62.93 28.06 63.21C28.27 63.48 28.43 63.72 28.41 63.75C28.38 63.77 28.11 63.78 27.8 63.76C27.49 63.74 26.91 63.75 26.5 63.8C26.09 63.84 25.44 63.95 25.07 64.04C24.69 64.14 24.12 64.33 23.8 64.46C23.47 64.6 23.01 64.83 22.77 64.96C22.53 65.1 22.11 65.39 21.84 65.59C21.56 65.8 21.15 66.16 20.93 66.39C20.7 66.63 20.36 67.03 20.18 67.29C20 67.55 19.73 68 19.59 68.29C19.45 68.58 19.26 69.06 19.18 69.35C19.09 69.64 18.99 70.17 18.95 70.53C18.89 71.02 18.89 71.35 18.94 71.81C18.98 72.15 19.07 72.66 19.14 72.93C19.21 73.21 19.4 73.71 19.56 74.06C19.73 74.4 20.01 74.88 20.18 75.12C20.36 75.36 20.5 75.57 20.5 75.6C20.5 75.63 20.3 75.63 20.05 75.6C19.8 75.57 19.25 75.56 18.82 75.56C18.31 75.57 17.83 75.62 17.4 75.71C17.04 75.78 16.53 75.93 16.28 76.02C16.02 76.12 15.63 76.31 15.41 76.44C15.18 76.57 14.76 76.91 14.44 77.24C14.02 77.66 13.83 77.91 13.65 78.27C13.52 78.52 13.36 78.96 13.29 79.23C13.21 79.56 13.17 79.94 13.17 80.34C13.17 80.67 13.21 81.14 13.26 81.37C13.31 81.6 13.39 81.93 13.45 82.1C13.51 82.27 13.67 82.67 13.82 82.97C13.97 83.28 14.25 83.77 14.45 84.05C14.65 84.33 15.02 84.78 15.27 85.06C15.55 85.37 15.69 85.57 15.64 85.59C15.6 85.61 15.31 85.7 15 85.78C14.7 85.87 14.17 86.08 13.82 86.25C13.48 86.41 12.98 86.71 12.71 86.92C12.43 87.12 11.98 87.53 11.71 87.82C11.44 88.12 11.08 88.58 10.92 88.85C10.76 89.12 10.54 89.53 10.45 89.77C10.35 90.01 10.22 90.41 10.15 90.65C10.06 90.98 10.04 91.3 10.04 92.05C10.04 92.78 10.06 93.11 10.15 93.42C10.21 93.64 10.39 94.11 10.56 94.45C10.72 94.79 11.01 95.27 11.2 95.51C11.4 95.75 11.7 96.07 11.88 96.23C12.06 96.38 12.45 96.66 12.74 96.84C13.03 97.02 13.49 97.25 13.76 97.34C14.03 97.44 14.48 97.57 14.76 97.63C15.06 97.7 15.55 97.74 16.03 97.74C16.46 97.75 17.02 97.71 17.27 97.67C17.53 97.62 17.99 97.5 18.3 97.4C18.6 97.3 19.11 97.09 19.42 96.92C19.72 96.76 20.14 96.5 20.35 96.35C20.55 96.2 20.9 95.9 21.12 95.68C21.35 95.47 21.54 95.29 21.56 95.29C21.58 95.29 21.68 95.53 21.79 95.84C21.9 96.14 22.15 96.65 22.34 96.98C22.53 97.3 22.85 97.76 23.04 98C23.23 98.24 23.55 98.6 23.73 98.79C23.92 98.98 24.26 99.28 24.48 99.47C24.7 99.65 25.18 100 25.53 100.24C25.89 100.47 26.55 100.85 26.99 101.06C27.44 101.28 28.22 101.6 28.73 101.77C29.25 101.94 29.99 102.15 30.38 102.24C30.77 102.33 31.43 102.44 31.84 102.49C32.25 102.55 33.02 102.61 33.55 102.63C34.1 102.65 34.89 102.64 35.38 102.6C35.86 102.56 36.6 102.47 37.03 102.39C37.46 102.32 38.13 102.18 38.52 102.08C38.91 101.98 39.54 101.78 39.92 101.64C40.29 101.5 40.91 101.24 41.28 101.06C41.66 100.87 42.22 100.57 42.53 100.37C42.83 100.18 43.31 99.84 43.58 99.63C43.86 99.41 44.35 98.95 44.69 98.61C45.02 98.26 45.31 97.99 45.32 98.02C45.34 98.05 45.36 107.12 45.35 138.32L45.12 138.29C44.99 138.26 44.51 138.16 44.05 138.06C43.59 137.96 42.79 137.75 42.28 137.6C41.77 137.45 40.84 137.16 40.23 136.95C39.61 136.74 38.61 136.36 37.99 136.11C37.38 135.86 36.51 135.49 36.07 135.3C35.62 135.1 34.7 134.65 34.02 134.3C33.33 133.95 32.28 133.39 31.69 133.05C31.09 132.71 30.09 132.19 29.48 131.89C28.86 131.6 27.87 131.16 27.27 130.92C26.68 130.68 25.71 130.33 25.13 130.14C24.55 129.95 23.57 129.66 22.96 129.51C22.34 129.36 21.5 129.17 21.09 129.1C20.68 129.03 20.04 128.94 19.66 128.9C19.24 128.85 18.56 128.84 17.86 128.86C17.25 128.88 16.41 128.94 16 129C15.59 129.05 14.94 129.15 14.57 129.22C14.19 129.29 13.55 129.43 13.14 129.54C12.73 129.64 12.09 129.83 11.71 129.95C11.34 130.07 10.75 130.28 10.41 130.41C10.06 130.55 9.46 130.82 9.07 131.02C8.68 131.21 8.08 131.55 7.74 131.78C7.39 132.01 6.95 132.35 6.74 132.54C6.54 132.74 6.35 132.87 6.32 132.85C6.29 132.82 6.27 130.9 6.27 124.35L6.66 124C6.88 123.81 7.35 123.46 7.7 123.22C8.06 122.98 8.72 122.6 9.16 122.39C9.61 122.17 10.34 121.86 10.78 121.7C11.22 121.54 12.01 121.3 12.52 121.17C13.03 121.04 13.81 120.87 14.26 120.79C15 120.66 15.25 120.64 17.12 120.64C18.43 120.64 19.4 120.67 19.82 120.72C20.18 120.77 20.79 120.86 21.19 120.92C21.58 120.99 22.28 121.13 22.74 121.24C23.2 121.34 24.02 121.55 24.57 121.71C25.12 121.87 26.01 122.15 26.56 122.34C27.11 122.53 28.09 122.89 28.73 123.15C29.38 123.41 30.39 123.83 30.97 124.08C31.55 124.34 32.87 124.97 33.89 125.48C34.92 125.98 36.29 126.7 36.95 127.06C37.61 127.42 38.16 127.72 38.18 127.72C38.19 127.72 38.21 123.67 38.21 109.7L37.54 110.11C37.17 110.33 36.62 110.64 36.31 110.79C36.01 110.94 35.49 111.16 35.16 111.29C34.84 111.41 34.27 111.59 33.89 111.69C33.52 111.79 32.96 111.92 32.65 111.98C32.34 112.03 31.6 112.09 31 112.11C30.32 112.13 29.67 112.12 29.26 112.07C28.9 112.03 28.32 111.94 27.96 111.87C27.6 111.8 26.96 111.63 26.53 111.49C26.1 111.35 25.47 111.12 25.13 110.96C24.79 110.81 24.16 110.48 23.73 110.22C23.31 109.97 22.65 109.51 22.27 109.2C21.9 108.9 21.31 108.36 20.96 108.01C20.62 107.65 20.11 107.05 19.83 106.67C19.55 106.3 19.19 105.75 19.03 105.46C18.86 105.18 18.72 104.93 18.7 104.92C18.68 104.91 18.4 104.99 18.08 105.11C17.75 105.22 17.2 105.39 16.84 105.48C16.48 105.57 15.86 105.69 15.47 105.75C14.99 105.82 14.38 105.85 13.61 105.86C12.97 105.86 12.19 105.82 11.87 105.78C11.54 105.73 10.95 105.63 10.56 105.54C10.17 105.45 9.53 105.27 9.13 105.14C8.74 105 8.03 104.7 7.55 104.46C7.07 104.23 6.46 103.89 6.18 103.71C5.91 103.53 5.46 103.21 5.19 103C4.91 102.79 4.41 102.35 4.08 102.03C3.74 101.7 3.25 101.17 2.99 100.84C2.73 100.52 2.36 100.01 2.17 99.72C1.98 99.43 1.68 98.92 1.51 98.6C1.33 98.27 1.07 97.68 0.91 97.29C0.75 96.89 0.56 96.3 0.47 95.98C0.38 95.65 0.25 95.08 0.18 94.7C0.09 94.22 0.04 93.65 0.02 92.8C0 92.06 0.01 91.33 0.05 90.96C0.09 90.61 0.18 90.04 0.26 89.68C0.33 89.32 0.51 88.65 0.66 88.18C0.81 87.72 1.11 86.98 1.33 86.53C1.55 86.08 1.92 85.42 2.16 85.06C2.39 84.7 2.76 84.2 2.97 83.94C3.17 83.68 3.67 83.15 4.08 82.75C4.48 82.35 5.1 81.82 6.06 81.1L5.95 80.64C5.89 80.38 5.81 79.89 5.77 79.54C5.73 79.19 5.72 78.64 5.74 78.27C5.76 77.91 5.82 77.37 5.88 77.08C5.93 76.79 6.06 76.3 6.16 75.99C6.26 75.68 6.48 75.15 6.65 74.81C6.83 74.46 7.15 73.92 7.38 73.59C7.61 73.27 8.06 72.73 8.39 72.4C8.71 72.07 9.26 71.59 9.6 71.34C9.94 71.08 10.47 70.74 10.77 70.56C11.07 70.39 11.31 70.25 11.31 70.25C11.31 70.25 11.23 70.01 11.13 69.72C11.03 69.43 10.89 68.94 10.82 68.63C10.75 68.32 10.66 67.76 10.62 67.38C10.58 66.98 10.56 66.43 10.59 66.04C10.61 65.68 10.67 65.18 10.72 64.92C10.77 64.66 10.88 64.23 10.97 63.95C11.06 63.68 11.23 63.24 11.35 62.99C11.47 62.73 11.75 62.24 11.98 61.9C12.22 61.53 12.63 61.03 12.98 60.68C13.31 60.34 13.83 59.91 14.17 59.69C14.49 59.47 14.97 59.19 15.22 59.06C15.48 58.93 15.88 58.75 16.12 58.66C16.36 58.57 16.88 58.42 17.27 58.32C17.66 58.22 18.18 58.11 18.41 58.08C18.75 58.04 18.82 58.01 18.79 57.94C18.76 57.88 18.65 57.52 18.53 57.13C18.42 56.73 18.27 56.07 18.2 55.66C18.14 55.25 18.07 54.59 18.05 54.19C18.02 53.8 18.04 53.13 18.08 52.7C18.11 52.27 18.21 51.57 18.3 51.15C18.38 50.73 18.55 50.09 18.68 49.72C18.8 49.35 19.04 48.74 19.22 48.36C19.4 47.99 19.7 47.44 19.88 47.15C20.06 46.86 20.36 46.41 20.56 46.15C20.75 45.9 21.14 45.44 21.43 45.13C21.72 44.82 22.21 44.37 22.52 44.12C22.83 43.87 23.33 43.51 23.64 43.31C23.95 43.11 24.56 42.77 25.01 42.56C25.45 42.34 26.14 42.07 26.53 41.94C26.92 41.82 27.52 41.66 27.86 41.59C28.33 41.49 28.81 41.45 29.79 41.43C30.69 41.41 31.28 41.43 32.3 41.57L32.71 40.97C32.93 40.65 33.3 40.14 33.53 39.85C33.76 39.56 34.31 38.95 34.76 38.51C35.2 38.06 35.81 37.5 36.1 37.27C36.39 37.04 36.96 36.62 37.37 36.35C37.78 36.07 38.55 35.63 39.08 35.37C39.61 35.1 40.32 34.78 40.66 34.66C41 34.53 41.62 34.33 42.03 34.22C42.44 34.1 43.11 33.94 43.52 33.87C43.93 33.8 44.52 33.71 44.83 33.68C45.13 33.66 45.82 33.63 46.35 33.62ZM18.02 132.07C18.51 132.08 19.3 132.14 19.76 132.19C20.22 132.24 20.89 132.34 21.25 132.41C21.61 132.47 22.24 132.62 22.65 132.72C23.06 132.82 23.7 133.01 24.07 133.13C24.45 133.25 25.15 133.5 25.63 133.69C26.11 133.88 26.97 134.26 27.55 134.55C28.13 134.84 28.92 135.25 29.29 135.47C29.67 135.69 30.38 136.12 30.88 136.43C31.37 136.74 32.16 137.2 32.62 137.47C33.08 137.73 34.03 138.22 34.73 138.56C35.43 138.91 36.46 139.37 37.03 139.59C37.59 139.81 38.46 140.13 38.95 140.28C39.45 140.44 40.29 140.68 40.82 140.82C41.35 140.95 42.09 141.12 42.46 141.18C42.84 141.25 43.44 141.35 43.8 141.4C44.16 141.45 44.84 141.53 45.32 141.57C45.86 141.61 46.86 141.63 47.96 141.61C49.05 141.59 50.06 141.54 50.57 141.47C51.03 141.42 51.79 141.3 52.25 141.22C52.71 141.13 53.54 140.95 54.08 140.82C54.63 140.68 55.52 140.43 56.07 140.25C56.62 140.07 57.55 139.73 58.15 139.49C58.75 139.25 59.77 138.8 60.42 138.48C61.07 138.17 61.95 137.71 62.38 137.47C62.8 137.23 63.78 136.64 64.55 136.17C65.32 135.7 66.4 135.08 66.94 134.79C67.49 134.51 68.34 134.1 68.84 133.89C69.33 133.68 70.19 133.36 70.73 133.18C71.28 132.99 72.08 132.76 72.5 132.65C72.93 132.55 73.62 132.41 74.03 132.34C74.44 132.27 75.02 132.18 75.33 132.15C75.64 132.12 76.32 132.07 76.85 132.05C77.41 132.03 78.2 132.04 78.75 132.08C79.26 132.12 80.03 132.21 80.46 132.28C80.88 132.35 81.51 132.47 81.85 132.56C82.2 132.65 82.71 132.79 83 132.88C83.29 132.97 83.82 133.16 84.18 133.3C84.54 133.45 85.1 133.7 85.43 133.86C85.75 134.02 86.25 134.3 86.54 134.48C86.84 134.65 87.28 134.95 87.54 135.14C87.79 135.34 88.19 135.67 88.85 136.3L88.84 144.9L88.46 144.52C88.24 144.31 87.83 143.94 87.54 143.69C87.25 143.44 86.68 143.01 86.27 142.73C85.85 142.46 85.1 142.03 84.59 141.78C84.08 141.53 83.33 141.22 82.94 141.08C82.55 140.94 81.86 140.75 81.42 140.64C80.97 140.53 80.3 140.4 79.93 140.35C79.55 140.29 78.74 140.22 78.13 140.19C77.51 140.15 76.67 140.14 76.26 140.16C75.85 140.18 75.15 140.24 74.71 140.3C74.26 140.35 73.54 140.46 73.09 140.54C72.65 140.63 71.92 140.79 71.48 140.91C71.03 141.03 70.31 141.25 69.86 141.4C69.42 141.55 68.79 141.78 68.47 141.91C68.14 142.04 67.48 142.33 67.01 142.56C66.53 142.79 65.56 143.31 64.86 143.72C64.16 144.12 63.06 144.73 62.41 145.06C61.76 145.4 60.84 145.85 60.36 146.06C59.88 146.27 59.04 146.62 58.49 146.84C57.95 147.05 57.07 147.37 56.54 147.54C56.01 147.71 55.2 147.95 54.73 148.07C54.27 148.2 53.49 148.38 53 148.48C52.5 148.58 51.7 148.72 51.22 148.79C50.75 148.86 49.98 148.95 49.52 148.99C49.05 149.03 48.01 149.07 47.19 149.07C46.37 149.07 45.35 149.03 44.92 148.99C44.49 148.95 43.78 148.87 43.33 148.8C42.89 148.73 42.12 148.6 41.63 148.49C41.13 148.39 40.33 148.19 39.86 148.06C39.38 147.92 38.57 147.66 38.05 147.49C37.54 147.31 36.65 146.96 36.07 146.71C35.48 146.46 34.39 145.95 33.64 145.57C32.89 145.19 31.67 144.55 30.94 144.16C30.21 143.76 29.17 143.24 28.64 142.99C28.11 142.75 27.24 142.37 26.72 142.16C26.19 141.94 25.23 141.6 24.6 141.39C23.97 141.18 22.99 140.9 22.43 140.76C21.86 140.62 21.05 140.45 20.63 140.38C20.2 140.31 19.49 140.23 19.04 140.19C18.46 140.14 17.88 140.14 16.96 140.19C16.26 140.22 15.39 140.3 15.04 140.35C14.68 140.41 14.06 140.52 13.67 140.61C13.28 140.7 12.62 140.88 12.21 141.02C11.8 141.16 11.21 141.38 10.9 141.52C10.6 141.65 10.12 141.88 9.85 142.03C9.57 142.18 9.06 142.5 8.7 142.74C8.34 142.97 7.86 143.32 7.64 143.49C7.42 143.67 7.04 144.01 6.8 144.25C6.56 144.49 6.35 144.66 6.32 144.64C6.29 144.61 6.27 142.68 6.27 136.11L6.75 135.7C7.02 135.47 7.39 135.18 7.58 135.04C7.77 134.9 8.11 134.68 8.34 134.53C8.57 134.39 9.09 134.1 9.49 133.9C9.89 133.7 10.51 133.41 10.87 133.27C11.23 133.13 11.86 132.92 12.27 132.8C12.68 132.68 13.35 132.51 13.76 132.43C14.17 132.35 14.74 132.25 15.04 132.21C15.33 132.17 15.91 132.11 16.34 132.09C16.77 132.06 17.52 132.05 18.02 132.07ZM77.01 143.28C78.1 143.3 78.71 143.34 79.31 143.43C79.75 143.5 80.37 143.61 80.67 143.67C80.98 143.74 81.54 143.89 81.92 144C82.29 144.11 82.92 144.32 83.31 144.48C83.71 144.63 84.38 144.94 84.82 145.16C85.26 145.38 85.87 145.72 86.19 145.91C86.5 146.11 87.03 146.47 87.35 146.72C87.68 146.97 88.15 147.35 88.84 147.99L88.85 157.5L87.8 156.47C87.23 155.9 86.51 155.23 86.2 154.97C85.9 154.71 85.42 154.33 85.15 154.12C84.87 153.91 84.37 153.56 84.03 153.34C83.69 153.11 83.11 152.77 82.75 152.58C82.4 152.39 81.79 152.11 81.42 151.96C81.04 151.8 80.47 151.61 80.15 151.52C79.82 151.43 79.32 151.31 79.03 151.26C78.74 151.2 77.99 151.14 77.35 151.12C76.66 151.1 75.87 151.12 75.36 151.17C74.9 151.21 74.12 151.31 73.62 151.39C73.13 151.48 72.37 151.63 71.94 151.73C71.52 151.84 70.85 152.02 70.45 152.14C70.06 152.27 69.33 152.52 68.84 152.71C68.34 152.9 67.55 153.24 67.07 153.47C66.59 153.7 65.61 154.23 64.89 154.64C64.18 155.06 63.13 155.64 62.56 155.93C62 156.22 61.16 156.64 60.7 156.85C60.24 157.06 59.5 157.38 59.05 157.56C58.61 157.74 57.92 158 57.53 158.14C57.14 158.28 56.49 158.5 56.1 158.62C55.71 158.75 55.02 158.94 54.58 159.06C54.14 159.17 53.35 159.35 52.84 159.46C52.33 159.56 51.49 159.7 50.98 159.77C50.46 159.84 49.57 159.93 48.99 159.97C48.34 160.01 47.39 160.03 46.53 160C45.77 159.98 44.76 159.92 44.3 159.87C43.84 159.82 43.07 159.71 42.59 159.62C42.11 159.54 41.41 159.4 41.04 159.31C40.66 159.22 39.93 159.02 39.42 158.87C38.91 158.72 38.03 158.42 37.46 158.21C36.9 158 36.07 157.67 35.63 157.47C35.19 157.27 34.33 156.86 33.74 156.56C33.14 156.26 32.15 155.74 31.53 155.41C30.92 155.08 30.08 154.63 29.67 154.43C29.26 154.22 28.56 153.89 28.11 153.7C27.67 153.5 26.86 153.16 26.31 152.95C25.76 152.73 24.95 152.44 24.51 152.29C24.07 152.15 23.23 151.91 22.65 151.76C22.06 151.61 21.16 151.42 20.63 151.32C19.93 151.2 19.35 151.15 18.51 151.12C17.78 151.1 17.11 151.12 16.65 151.17C16.26 151.21 15.63 151.32 15.25 151.42C14.88 151.51 14.29 151.7 13.95 151.82C13.61 151.95 12.98 152.23 12.55 152.45C12.12 152.67 11.44 153.07 11.03 153.34C10.62 153.61 10 154.05 9.66 154.32C9.32 154.59 8.73 155.08 8.36 155.41C7.98 155.75 7.38 156.32 7.02 156.68C6.66 157.04 6.35 157.32 6.32 157.31C6.3 157.29 6.27 155.18 6.27 147.96L6.81 147.49C7.1 147.23 7.57 146.86 7.85 146.66C8.13 146.46 8.61 146.14 8.92 145.95C9.22 145.75 9.92 145.38 10.47 145.11C11.03 144.84 11.91 144.48 12.49 144.28C13.05 144.09 13.83 143.86 14.23 143.78C14.62 143.69 15.31 143.56 15.75 143.49C16.25 143.41 17.05 143.35 17.83 143.33C18.61 143.31 19.43 143.32 19.94 143.37C20.4 143.41 21.17 143.51 21.65 143.59C22.13 143.67 22.82 143.81 23.17 143.9C23.53 143.99 24.22 144.2 24.7 144.35C25.17 144.51 25.9 144.78 26.31 144.95C26.72 145.12 27.59 145.53 28.24 145.86C28.89 146.19 29.96 146.8 30.63 147.22C31.3 147.63 32.22 148.18 32.68 148.44C33.14 148.7 34.06 149.18 34.73 149.51C35.4 149.83 36.36 150.26 36.87 150.47C37.39 150.68 38.24 150.99 38.77 151.17C39.3 151.34 40.22 151.61 40.82 151.76C41.42 151.91 42.32 152.1 42.84 152.19C43.35 152.28 44.16 152.4 44.64 152.45C45.12 152.5 46.08 152.56 46.78 152.58C47.54 152.6 48.46 152.59 49.05 152.55C49.6 152.51 50.39 152.43 50.82 152.38C51.25 152.33 52.14 152.18 52.81 152.04C53.48 151.91 54.41 151.69 54.89 151.55C55.37 151.41 56.18 151.16 56.69 150.98C57.2 150.81 58 150.51 58.46 150.31C58.92 150.12 59.78 149.74 60.36 149.46C60.94 149.18 61.83 148.71 62.35 148.43C62.86 148.14 63.78 147.59 64.4 147.21C65.01 146.83 65.84 146.33 66.23 146.12C66.62 145.9 67.24 145.58 67.6 145.42C67.95 145.25 68.58 144.97 68.99 144.81C69.4 144.64 70.05 144.41 70.42 144.29C70.8 144.16 71.37 143.99 71.7 143.91C72.02 143.82 72.55 143.7 72.88 143.63C73.2 143.56 73.82 143.47 74.24 143.41C74.67 143.36 75.13 143.3 75.27 143.29C75.41 143.27 76.19 143.27 77.01 143.28ZM24.48 163.96C24.84 163.96 25.38 163.98 25.69 164.02C26 164.05 26.49 164.14 26.78 164.21C27.07 164.28 27.52 164.42 27.77 164.52C28.03 164.63 28.43 164.84 28.66 164.99C28.89 165.14 29.21 165.38 29.36 165.53C29.52 165.67 29.77 165.95 29.92 166.14C30.06 166.33 30.3 166.7 30.43 166.98C30.57 167.25 30.75 167.72 30.84 168.01C30.92 168.3 31.03 168.8 31.09 169.13C31.14 169.46 31.21 170.14 31.25 170.66C31.28 171.19 31.31 174.4 31.31 178.02C31.31 181.64 31.28 184.85 31.25 185.38C31.21 185.89 31.14 186.58 31.09 186.9C31.03 187.23 30.92 187.73 30.83 188.03C30.75 188.32 30.59 188.75 30.47 188.99C30.35 189.23 30.11 189.63 29.93 189.87C29.74 190.11 29.4 190.47 29.16 190.67C28.91 190.88 28.47 191.16 28.11 191.34C27.76 191.51 27.22 191.71 26.87 191.8C26.53 191.89 25.87 191.99 25.41 192.03C24.77 192.08 24.38 192.08 23.76 192.03C23.32 191.99 22.72 191.9 22.43 191.83C22.14 191.76 21.69 191.61 21.43 191.51C21.18 191.41 20.77 191.19 20.53 191.04C20.29 190.88 19.95 190.61 19.76 190.43C19.58 190.26 19.31 189.95 19.17 189.74C19.02 189.54 18.82 189.2 18.71 188.99C18.61 188.79 18.46 188.38 18.37 188.09C18.28 187.8 18.16 187.31 18.11 187C18.06 186.69 17.99 186.11 17.96 185.72C17.92 185.29 17.89 182.15 17.89 178.02C17.89 173.86 17.92 170.73 17.96 170.28C17.99 169.87 18.07 169.24 18.14 168.88C18.21 168.52 18.33 168.03 18.41 167.79C18.49 167.55 18.68 167.12 18.83 166.83C19.01 166.49 19.26 166.13 19.54 165.83C19.78 165.58 20.14 165.25 20.35 165.1C20.55 164.96 20.93 164.74 21.19 164.62C21.44 164.5 21.93 164.33 22.27 164.24C22.61 164.15 23.1 164.05 23.36 164.02C23.62 163.99 24.12 163.97 24.48 163.96ZM24.18 168.98C24.11 168.99 23.94 169.1 23.82 169.21C23.67 169.34 23.57 169.51 23.51 169.72C23.43 169.99 23.42 171.28 23.44 178.14L23.45 186.25C23.67 186.66 23.82 186.83 23.93 186.9C24.05 186.96 24.25 187.04 24.39 187.06C24.52 187.09 24.75 187.09 24.9 187.07C25.06 187.04 25.24 186.96 25.36 186.85C25.47 186.75 25.62 186.55 25.69 186.4C25.81 186.13 25.81 185.97 25.83 178.36C25.85 173.03 25.83 170.44 25.78 170.1C25.75 169.82 25.66 169.51 25.59 169.4C25.53 169.28 25.37 169.14 25.24 169.08C25.11 169.01 24.91 168.95 24.79 168.93C24.67 168.91 24.52 168.91 24.45 168.92C24.38 168.94 24.26 168.96 24.18 168.98ZM54.47 164.02C54.92 164.02 55.57 164.05 55.9 164.08C56.23 164.12 56.77 164.22 57.1 164.3C57.42 164.39 57.98 164.6 58.34 164.77C58.9 165.05 59.07 165.17 59.56 165.66C60.04 166.15 60.17 166.32 60.41 166.82C60.6 167.21 60.75 167.66 60.85 168.1C60.96 168.57 61.03 169.14 61.07 169.91C61.11 170.56 61.13 172.76 61.1 179.33L53.55 179.36L53.57 182.83C53.58 186.17 53.59 186.32 53.71 186.55C53.78 186.69 53.92 186.86 54.02 186.93C54.16 187.03 54.3 187.06 54.62 187.06C54.95 187.06 55.07 187.03 55.21 186.93C55.31 186.85 55.44 186.73 55.5 186.65C55.55 186.57 55.63 186.34 55.67 186.16C55.7 185.97 55.73 184.98 55.73 182.1L61.13 182.1L61.11 184.46C61.09 185.75 61.05 187.01 61.01 187.25C60.98 187.49 60.89 187.89 60.83 188.15C60.76 188.41 60.63 188.79 60.54 188.99C60.45 189.2 60.27 189.52 60.14 189.71C60.01 189.9 59.69 190.26 59.42 190.51C59.05 190.86 58.78 191.05 58.31 191.28C57.95 191.45 57.42 191.65 57.06 191.74C56.72 191.82 56.12 191.93 55.73 191.96C55.33 192 54.62 192.02 54.11 192C53.62 191.98 52.98 191.92 52.68 191.87C52.39 191.81 51.95 191.7 51.69 191.61C51.43 191.52 51.06 191.36 50.85 191.26C50.65 191.15 50.37 190.98 50.23 190.88C50.09 190.77 49.86 190.57 49.71 190.43C49.57 190.29 49.35 190.05 49.24 189.9C49.12 189.74 48.93 189.41 48.8 189.15C48.67 188.89 48.5 188.43 48.43 188.12C48.35 187.81 48.25 187.24 48.21 186.84C48.16 186.32 48.15 183.73 48.19 168.91L48.33 168.29C48.41 167.95 48.55 167.45 48.65 167.2C48.75 166.94 48.94 166.56 49.08 166.35C49.23 166.15 49.46 165.86 49.6 165.71C49.74 165.56 50.03 165.32 50.23 165.17C50.44 165.02 50.81 164.8 51.07 164.68C51.33 164.55 51.8 164.39 52.13 164.3C52.45 164.22 52.93 164.12 53.18 164.09C53.44 164.06 54.02 164.03 54.47 164.02ZM53.82 169.35C53.75 169.45 53.66 169.66 53.62 169.82C53.58 169.98 53.56 171.03 53.56 172.36L53.55 174.62L55.73 174.62C55.73 171.31 55.7 170.18 55.67 169.97C55.63 169.77 55.56 169.53 55.5 169.45C55.44 169.37 55.31 169.24 55.21 169.17C55.1 169.08 54.92 169.03 54.71 169.02C54.54 169.01 54.3 169.04 54.18 169.08C54.06 169.13 53.9 169.25 53.82 169.35ZM69.35 164.09C69.65 164.08 70.17 164.11 70.5 164.15C70.83 164.18 71.37 164.28 71.7 164.37C72.02 164.45 72.57 164.65 72.91 164.82C73.25 164.99 73.72 165.29 73.95 165.48C74.18 165.67 74.54 166.04 74.75 166.31C74.96 166.57 75.22 166.99 75.33 167.23C75.45 167.47 75.6 167.9 75.67 168.19C75.74 168.49 75.82 168.98 75.86 169.29C75.89 169.59 75.94 170.65 76.01 173.43L70.52 173.43L70.5 171.64C70.48 169.99 70.47 169.83 70.36 169.6C70.29 169.46 70.14 169.28 70.02 169.2C69.83 169.08 69.74 169.06 69.38 169.08C68.98 169.1 68.94 169.11 68.74 169.33C68.62 169.46 68.5 169.69 68.46 169.83C68.42 170 68.4 170.65 68.41 171.62C68.43 173.05 68.44 173.17 68.57 173.43C68.65 173.59 68.79 173.81 68.89 173.93C68.99 174.05 69.27 174.31 69.53 174.5C69.78 174.69 70.53 175.2 71.2 175.62C71.87 176.04 72.62 176.52 72.88 176.69C73.13 176.87 73.57 177.18 73.84 177.39C74.11 177.61 74.53 177.99 74.77 178.25C75.01 178.51 75.3 178.87 75.41 179.05C75.52 179.24 75.68 179.57 75.77 179.79C75.86 180.02 76 180.47 76.07 180.79C76.19 181.34 76.2 181.58 76.2 184.07C76.2 186.43 76.19 186.81 76.09 187.31C76.02 187.62 75.89 188.09 75.79 188.37C75.69 188.64 75.49 189.06 75.35 189.3C75.2 189.54 74.89 189.95 74.65 190.2C74.41 190.45 74.02 190.79 73.78 190.95C73.54 191.1 73.13 191.32 72.88 191.43C72.62 191.54 72.17 191.69 71.88 191.76C71.59 191.83 71.09 191.92 70.76 191.96C70.42 192 69.83 192.02 69.34 192C68.87 191.98 68.27 191.92 68 191.87C67.73 191.81 67.31 191.7 67.07 191.62C66.83 191.54 66.44 191.37 66.2 191.25C65.96 191.13 65.59 190.91 65.39 190.75C65.18 190.6 64.88 190.32 64.71 190.14C64.54 189.95 64.28 189.61 64.13 189.37C63.97 189.13 63.77 188.71 63.67 188.45C63.57 188.18 63.45 187.73 63.4 187.45C63.32 187.05 63.29 186.39 63.25 182.1L68.65 182.1L68.67 184.21C68.68 186.23 68.69 186.32 68.82 186.56C68.89 186.7 69.04 186.86 69.16 186.93C69.28 187 69.49 187.05 69.68 187.05C69.88 187.06 70.06 187.01 70.2 186.93C70.32 186.86 70.49 186.68 70.58 186.53C70.73 186.25 70.73 186.23 70.75 184.6C70.77 183.56 70.75 182.79 70.7 182.54C70.66 182.32 70.57 182.02 70.49 181.88C70.41 181.75 70.19 181.49 70.01 181.32C69.83 181.14 69.25 180.72 68.73 180.38C68.21 180.04 67.41 179.52 66.96 179.23C66.51 178.94 65.91 178.54 65.64 178.33C65.37 178.13 64.94 177.77 64.68 177.52C64.43 177.28 64.11 176.91 63.96 176.71C63.81 176.5 63.6 176.14 63.5 175.91C63.39 175.68 63.25 175.26 63.19 174.98C63.12 174.69 63.03 174.14 63 173.74C62.97 173.35 62.94 172.38 62.94 171.59C62.94 170.8 62.97 169.88 63 169.54C63.03 169.19 63.12 168.67 63.19 168.38C63.26 168.09 63.45 167.57 63.62 167.23C63.78 166.88 64.06 166.44 64.22 166.23C64.39 166.03 64.72 165.7 64.96 165.5C65.2 165.29 65.66 165 66.01 164.82C66.37 164.64 66.89 164.45 67.25 164.36C67.6 164.27 68.08 164.18 68.34 164.15C68.6 164.12 69.05 164.09 69.35 164.09ZM33.19 164.19L37.2 164.22C40.54 164.24 41.32 164.26 41.81 164.35C42.14 164.4 42.57 164.49 42.78 164.55C42.98 164.6 43.33 164.72 43.55 164.81C43.77 164.9 44.12 165.08 44.33 165.2C44.53 165.33 44.87 165.62 45.08 165.83C45.3 166.07 45.54 166.41 45.68 166.7C45.81 166.96 45.97 167.39 46.05 167.66C46.18 168.14 46.19 168.26 46.19 170.88C46.19 173.49 46.18 173.61 46.05 174.09C45.97 174.36 45.81 174.8 45.69 175.05C45.52 175.39 45.33 175.65 45.02 175.97C44.72 176.27 44.43 176.48 44.13 176.64C43.88 176.76 43.47 176.92 43.23 176.99C42.98 177.06 42.59 177.13 42.36 177.16C42.12 177.19 41.94 177.22 41.94 177.24C41.94 177.25 42.21 177.3 42.54 177.35C42.88 177.39 43.32 177.47 43.52 177.53C43.73 177.58 44.06 177.7 44.27 177.79C44.47 177.89 44.78 178.08 44.95 178.21C45.12 178.35 45.37 178.63 45.51 178.83C45.64 179.03 45.81 179.38 45.89 179.61C45.97 179.83 46.08 180.29 46.13 180.64C46.2 181.14 46.22 181.94 46.22 184.74C46.22 186.86 46.25 188.4 46.29 188.7C46.33 188.96 46.46 189.49 46.58 189.87C46.71 190.26 46.95 190.78 47.12 191.08C47.29 191.37 47.63 191.81 47.88 192.07C48.12 192.33 48.52 192.69 48.78 192.87C49.03 193.04 49.41 193.27 49.62 193.38C49.84 193.49 50.19 193.64 50.4 193.72C50.62 193.81 51.11 193.95 51.5 194.03C51.9 194.12 52.57 194.23 53 194.27C53.45 194.31 54.14 194.32 55.54 194.26L55.54 199.88L55.28 199.91C55.13 199.92 54.39 199.95 53.62 199.97C52.5 200.01 52.06 199.99 51.44 199.91C51.02 199.85 50.34 199.74 49.95 199.65C49.56 199.56 48.87 199.36 48.43 199.21C47.98 199.05 47.34 198.8 47 198.63C46.66 198.47 46.11 198.18 45.79 197.98C45.46 197.78 44.97 197.44 44.7 197.24C44.43 197.03 43.88 196.54 43.49 196.14C43.1 195.74 42.62 195.19 42.42 194.92C42.23 194.64 41.91 194.12 41.73 193.76C41.54 193.4 41.29 192.81 41.17 192.45C41.05 192.09 40.89 191.45 40.81 191.02C40.68 190.27 40.67 190.08 40.63 185.59C40.6 182.09 40.57 180.89 40.51 180.7C40.47 180.56 40.37 180.34 40.29 180.2C40.21 180.06 40.07 179.87 39.97 179.78C39.87 179.69 39.67 179.56 39.51 179.49C39.36 179.42 39.1 179.35 38.64 179.3L38.64 191.83L33.18 191.83L33.19 164.19ZM38.64 174.62C39.88 174.62 40.02 174.6 40.26 174.48C40.45 174.38 40.58 174.25 40.68 174.09C40.75 173.95 40.85 173.64 40.88 173.4C40.93 173.12 40.95 172.45 40.93 171.53C40.91 170.37 40.88 170.04 40.79 169.82C40.74 169.66 40.63 169.47 40.55 169.39C40.48 169.31 40.32 169.2 40.21 169.15C40.08 169.1 39.77 169.07 39.33 169.07L38.64 169.07L38.64 174.62ZM16.62 164.36L16.65 169.07L11.74 169.07L11.74 174.62L16.15 174.62L16.12 179.33L11.74 179.36L11.74 191.77L6.27 191.77L6.26 178.09C6.26 170.57 6.28 164.39 6.31 164.37C6.34 164.35 8.67 164.33 16.62 164.36ZM76.67 164.33L88.91 164.33L88.91 169.07L85.49 169.07L85.49 191.77L80.08 191.77L80.08 169.07L76.67 169.07L76.67 164.33Z" />
</svg>