<svg xmlns="http://www.w3.org/2000/svg" width="74.368828mm" height="95.514648mm" viewBox="0 0 74.368828 95.514648"><g transform="translate(-135.173 -77.73)"><path d="M209.29 101.931a1.802 1.802 0 0 0-1.354-.847l-.665-.069c-1.147-.113-3.3-2.955-4.387-5.373-1.852-4.053-4.433-5.387-4.925-5.614l.054.025q-.31-.158-.62-.28a1.837 1.837 0 0 0-.286-1.178c-2.167-3.275-5.043-3.836-6.486-3.644a7.613 7.613 0 0 0-3.91 1.477 4.856 4.856 0 0 0-4.309-.448 4.23 4.23 0 0 0-2.743 2.827 1.6 1.6 0 0 0-.28-.163 1.802 1.802 0 0 0-1.892-2.319.61.61 0 0 1-.492-.123l.059.064a1.477 1.477 0 0 0-.177-.172c-.897-.759-1.911-3.344-2.266-4.841l-.492-2.143a1.797 1.797 0 0 0-3.497 0l-.492 2.143c-.355 1.477-1.37 4.082-2.266 4.84a1.477 1.477 0 0 0-.177.173l.06-.064a.61.61 0 0 1-.493.123 1.802 1.802 0 0 0-1.891 2.32 1.6 1.6 0 0 0-.28.162 4.23 4.23 0 0 0-2.744-2.827 4.856 4.856 0 0 0-4.309.448 7.613 7.613 0 0 0-3.91-1.477c-1.443-.192-4.319.37-6.486 3.644a1.837 1.837 0 0 0-.286 1.177q-.31.123-.62.28l.02-.009c-.493.227-3.083 1.561-4.925 5.614-1.088 2.394-3.24 5.26-4.388 5.373l-.665.069a1.797 1.797 0 0 0-1.477 2.433l.241.625a4.925 4.925 0 0 0 3.221 2.861 5.309 5.309 0 0 0 2.551.03 3.403 3.403 0 0 1-2.118 2.103l-.876.27a1.797 1.797 0 0 0-.65 3.073l.699.606a6.402 6.402 0 0 0 4.669 1.448 5.496 5.496 0 0 0 1.053-.222c.36 3.502 0 6.004-.709 6.59-.192.162-.797.182-1.88-.276l-.986-.419a1.802 1.802 0 0 0-2.438 2.133l.281 1.019c.123.453 1.305 4.432 4.53 5.629a5.235 5.235 0 0 0 1.34.305 21.068 21.068 0 0 0-.147 1.93c-.153 5.753 2.413 8.555 4.59 9.894a7.254 7.254 0 0 0 .65.37 1.738 1.738 0 0 0-.326.462 6.584 6.584 0 0 0 1.596 7.708c1.438 1.29 3.324 1.915 5.619 1.87a12.71 12.71 0 0 0 .172 3.217l.29 1.674a1.797 1.797 0 0 0 3.113.891 4.989 4.989 0 0 0 2.074 2.093 1.576 1.576 0 0 0-.045.306 1.797 1.797 0 0 0 1.04 1.723l1.137.498a5.944 5.944 0 0 0 3.038.438c.69 1.832 3.187 8.43 3.187 8.43l.492 1.271a1.797 1.797 0 0 0 3.364 0l.492-1.27s2.497-6.6 3.186-8.431a5.944 5.944 0 0 0 2.985-.438l1.147-.532a1.797 1.797 0 0 0 1.04-1.724 1.576 1.576 0 0 0-.045-.305 4.989 4.989 0 0 0 2.073-2.093 1.797 1.797 0 0 0 3.113-.891l.29-1.675a12.71 12.71 0 0 0 .172-3.216c2.295.045 4.177-.58 5.614-1.871a6.584 6.584 0 0 0 1.596-7.707 1.738 1.738 0 0 0-.325-.463 7.254 7.254 0 0 0 .65-.37c2.177-1.339 4.743-4.14 4.59-9.893 0-.675-.074-1.325-.148-1.93a5.235 5.235 0 0 0 1.34-.306c3.23-1.196 4.432-5.175 4.53-5.628l.281-1.02a1.802 1.802 0 0 0-2.438-2.132l-.985.418c-1.083.458-1.689.439-1.88.276-.7-.586-1.07-3.088-.71-6.589a5.91 5.91 0 0 0 1.054.227 6.456 6.456 0 0 0 4.668-1.453l.7-.606a1.797 1.797 0 0 0-.65-3.073l-.877-.27a3.403 3.403 0 0 1-2.118-2.104 5.309 5.309 0 0 0 2.551-.03 4.925 4.925 0 0 0 3.221-2.86l.241-.626a1.817 1.817 0 0 0-.133-1.566z" class="cls-1" style="fill:#fff;stroke-width:.492464"/><path d="M207.104 102.808c-2.516-.252-5.072-4.718-5.846-6.402-1.63-3.57-3.86-4.64-4.043-4.723-4.407-2.192-7.387.62-7.638.842-3.654 3.492-2.117 6.87-2.053 7.008.64 1.35 1.531 2.186 2.659 2.497a4.329 4.329 0 0 0 3.28-.527 2.66 2.66 0 0 0 1.172-3.413 2.585 2.585 0 0 0-2.694-1.443 1.758 1.758 0 0 1 .493-.527 3.65 3.65 0 0 1 2.733-.256c1.334.419 3.373 1.753 2.048 6.033-.492 1.536-1.23 2.54-2.25 2.984a4.073 4.073 0 0 1-3.068-.094l-.67-.32-.06.744c-.142 1.832.282 3.073 1.286 3.797 1.478 1.063 3.285.69 4.383.29-.546 1.778-1.561 2.69-2.55 3.576l-.257.231c-.571.492-5.54 5.156-3.777 8.283a2.536 2.536 0 0 0 1.704 1.325 3.54 3.54 0 0 0 2.029-.27 23.402 23.402 0 0 0-.035 4.924 12.804 12.804 0 0 1-.285 4.284l-.03-.044a3.004 3.004 0 0 0-2.462-1.069 5.54 5.54 0 0 0-4.432 2.256c-1.916 2.54-.887 4.83-.084 5.993-3.034.458-4.482 2.694-4.56 4.88a5.762 5.762 0 0 0 1.206 3.728 3.565 3.565 0 0 0-3.56 2.394 2.014 2.014 0 0 1-1.108 1.26c-1.094.453-2.497-.177-2.512-.182h-.069c-1.147-.34-2.093-.286-2.807.163a2.63 2.63 0 0 0-.877.985 2.576 2.576 0 0 0-.871-.985c-.714-.449-1.66-.493-2.807-.163h-.069s-1.419.635-2.512.182a2.014 2.014 0 0 1-1.108-1.26 3.56 3.56 0 0 0-3.565-2.394 5.762 5.762 0 0 0 1.206-3.728c-.079-2.186-1.526-4.432-4.56-4.88.803-1.162 1.832-3.447-.084-5.993a5.535 5.535 0 0 0-4.432-2.256 3.004 3.004 0 0 0-2.462 1.069l-.03.044a12.804 12.804 0 0 1-.285-4.284 23.402 23.402 0 0 0-.035-4.925 3.54 3.54 0 0 0 2.03.271 2.536 2.536 0 0 0 1.703-1.325c1.763-3.127-3.201-7.766-3.777-8.283l-.256-.231c-.985-.887-2.005-1.798-2.551-3.576 1.098.4 2.9.773 4.383-.29.985-.724 1.428-1.97 1.285-3.797l-.06-.744-.669.32a4.073 4.073 0 0 1-3.068.094c-1.02-.443-1.773-1.448-2.25-2.984-1.325-4.28.714-5.614 2.048-6.033a3.65 3.65 0 0 1 2.733.256 1.758 1.758 0 0 1 .493.527 2.585 2.585 0 0 0-2.694 1.443 2.66 2.66 0 0 0 1.172 3.413 4.329 4.329 0 0 0 3.28.527c1.128-.31 2.02-1.148 2.66-2.497.063-.138 1.6-3.516-2.054-7.008-.227-.222-3.23-3.034-7.638-.842-.183.084-2.413 1.152-4.044 4.723-.773 1.704-3.329 6.17-5.845 6.402l-.665.064.241.625a3.103 3.103 0 0 0 2.01 1.773c1.236.335 2.723-.103 4.432-1.29 0 1.841-.493 5.806-3.94 6.894l-.881.276.674.561a4.634 4.634 0 0 0 3.3 1.04 4.403 4.403 0 0 0 2.644-1.404c.586 3.162 1.187 9.155-.94 10.933-.833.699-2.093.699-3.738 0l-.985-.414.28 1.024c.04.143.986 3.516 3.448 4.432a3.836 3.836 0 0 0 2.955-.167 20.063 20.063 0 0 0-.572 4.137c-.103 3.875 1.192 6.751 3.738 8.312a7.48 7.48 0 0 0 2.694.95c.492.104.985.208 1.477.36 1.212.29 2.34 1.37 2.044 2.803a2.546 2.546 0 0 1-1.093 1.615 2.521 2.521 0 0 1-1.92.37c-.986-.208-1.828-.705-2.074-1.547a4.575 4.575 0 0 1-.148-1.409 4.816 4.816 0 0 0 1.182 5.585c1.26 1.128 3.024 1.566 5.176 1.364a7.259 7.259 0 0 0 1.645-.345c-.591 1.138-.852 2.802-.458 5.097l.29 1.675.65-1.566c.242-.547 1.108-2.02 2.202-2.28a1.876 1.876 0 0 1 1.664.526 1.556 1.556 0 0 1 .32 2.024 1.147 1.147 0 0 1-1.438.586l-.985-.374.3.985a3.152 3.152 0 0 0 3.187 2.142 3.413 3.413 0 0 0 2.073-.817 2.162 2.162 0 0 1-1.654 2.019l-1.197.414 1.147.536a4.058 4.058 0 0 0 3.182-.034c1.132-.493 2.029-1.556 2.669-3.117a2.861 2.861 0 0 1 .153 1.886c-.227.69-.867 1.216-1.901 1.56l-.493.168.187.493 3.344 8.923.493 1.27.492-1.27 3.364-8.899.187-.492-.493-.168c-1.034-.344-1.674-.871-1.9-1.56a2.861 2.861 0 0 1 .152-1.887c.64 1.561 1.536 2.605 2.67 3.118a4.058 4.058 0 0 0 3.18.034l1.148-.537-1.197-.413a2.162 2.162 0 0 1-1.654-2.02 3.413 3.413 0 0 0 2.073.818 3.152 3.152 0 0 0 3.186-2.142l.3-.985-.984.374a1.147 1.147 0 0 1-1.438-.586 1.556 1.556 0 0 1 .32-2.024 1.876 1.876 0 0 1 1.664-.527c1.093.261 1.97 1.734 2.201 2.28l.685 1.551.29-1.674c.394-2.295.133-3.94-.457-5.097a7.215 7.215 0 0 0 1.64.345c2.151.202 3.915-.237 5.175-1.364a4.816 4.816 0 0 0 1.182-5.585 4.575 4.575 0 0 1-.148 1.409c-.246.842-1.063 1.34-2.073 1.546a2.521 2.521 0 0 1-1.92-.37 2.546 2.546 0 0 1-1.094-1.615c-.295-1.433.833-2.511 2.044-2.802.492-.152.985-.256 1.477-.36a7.48 7.48 0 0 0 2.694-.95c2.546-1.56 3.841-4.432 3.738-8.312a20.063 20.063 0 0 0-.571-4.137 3.836 3.836 0 0 0 2.954.167c2.433-.9 3.384-4.274 3.423-4.432l.28-1.024-.984.413c-1.645.705-2.906.705-3.738 0-2.127-1.777-1.527-7.77-.94-10.932a4.403 4.403 0 0 0 2.62 1.393 4.634 4.634 0 0 0 3.299-1.039l.7-.6-.882-.276c-3.448-1.064-3.9-5.028-3.94-6.895 1.699 1.187 3.186 1.625 4.432 1.29a3.103 3.103 0 0 0 2.01-1.772l.24-.626zm-54.048 30.852c-.064.128-.276.173-.492.109-.39-.109-.887-.527-1.27-1.419h.108c.586.094 1.506.414 1.713.828a.458.458 0 0 1-.059.482zm39.107.109c-.232.064-.444 0-.493-.109a.458.458 0 0 1-.044-.462c.207-.414 1.128-.734 1.714-.828h.108c-.409.872-.901 1.29-1.285 1.399zM193.482 101.468ZM151.254 101.483Z" style="stroke-width:.492464"/><path d="M200.047 99.548s.872.95 1.699 1.822a5.156 5.156 0 0 0 3.693 1.97c-2.866-1.645-5.013-6.3-5.111-6.526-1.478-3.265-3.516-4.21-3.536-4.22h-.025c-3.875-1.935-6.362.537-6.466.645-3.102 2.955-1.886 5.718-1.837 5.826.493 1.069 1.182 1.724 2.005 1.97a3.329 3.329 0 0 0 2.462-.404 1.67 1.67 0 0 0 .768-2.098 1.33 1.33 0 0 0-.29-.419 1.6 1.6 0 0 1 .078.779 1.753 1.753 0 0 1-1.748 1.477 2.462 2.462 0 0 1-1.935-.67c-.616-.64-.813-1.66-.586-3.038a3.974 3.974 0 0 0 .916 2.62 2.039 2.039 0 0 0 1.556.448 1.147 1.147 0 0 0 1.167-.94.985.985 0 0 0-.788-1.104h-.256A.847.847 0 0 0 191 98.71s-.403-.26-.393-1.236a2.876 2.876 0 0 1 1.28-2.226c1.226-.802 2.89-.596 3.6-.374 1.364.424 4.368 1.97 2.718 7.313-.566 1.832-1.512 3.048-2.812 3.615a4.649 4.649 0 0 1-2.797.246c.468.414 1.448 1.123 2.546.985 2.403-.3 3.359-1.537 3.585-1.881a.581.581 0 0 1 .054-.094l-.054.094a4.723 4.723 0 0 1-3.59 2.492 3.999 3.999 0 0 1-2.905-1.054 2.211 2.211 0 0 0 .832 1.566c1.719 1.23 4.24-.202 4.265-.217l.955-.556-.192 1.088c-.493 2.807-1.945 4.102-3.107 5.141l-.257.232c-1.723 1.56-4.688 5.043-3.57 7.022a1.522 1.522 0 0 0 1.02.823c1.068.226 2.383-.64 2.393-.65a8.786 8.786 0 0 0 1.177-.946s-.463 1.138-.591 1.541c0 0-.419 1.182-.168 5.624.276 4.925-1.098 7.097-2.565 7.5a1.399 1.399 0 0 1-1.69-.625 1.477 1.477 0 0 1-.049-1.398 1.477 1.477 0 0 1 .202-.29c-.738.432-1.566 1.102-1.792 1.969a4.26 4.26 0 0 0 .59 3.053c-1.038-1.103-1.437-2.181-1.181-3.21.344-1.404 1.822-2.305 2.718-2.739h-.064a4.52 4.52 0 0 0-3.624 1.857c-2.182 2.89.354 5.328.463 5.417l.93.862-1.265.024c-3.265.064-4.501 2.182-4.565 3.98-.084 2.26 1.526 4.702 4.757 4.998 1.861.172 3.344-.202 4.402-1.113a4.078 4.078 0 0 0 .296-.286 5.791 5.791 0 0 1-4.058.064c-1.477-.576-2.546-1.97-3.103-4.146a5.88 5.88 0 0 0 3.285 3.595 5.077 5.077 0 0 0 3.31-.064 3.575 3.575 0 0 1-4.108-2.807c-.369-1.803.833-3.516 2.793-3.994.522-.163 1.039-.276 1.536-.38a6.658 6.658 0 0 0 2.344-.807c5.417-3.314 2.428-12.36 2.399-12.45l-.493-1.437 1.26.847c1.158.783 2.202.985 3.113.67a4.166 4.166 0 0 0 1.97-1.892 4.048 4.048 0 0 1-3.103.872c-1.925-.355-2.954-2.35-2.984-2.433a5.59 5.59 0 0 0 3.083 1.837c.891.158 1.866-.192 2.876-.985a3.64 3.64 0 0 1-3.172-.665c-3.353-2.807-1.167-12.562-1.073-12.976l.251-1.103.665.916c.788 1.098 1.674 1.714 2.625 1.827a3.004 3.004 0 0 0 1.083-.074c-3.989-1.04-3.762-4.378-3.757-4.432a6.008 6.008 0 0 0 1.32 2.373 4.787 4.787 0 0 0 2.275 1.315 7.052 7.052 0 0 1-2.566-4.235 12.513 12.513 0 0 1-.276-3.777l.099-.936.728.591c1.739 1.399 3.226 1.97 4.31 1.71a1.92 1.92 0 0 0 .689-.34c-.985.014-4.107-.316-5.826-4.393zM157.04 139.688l-1.265-.025.93-.866c.109-.099 2.645-2.536.463-5.417a4.52 4.52 0 0 0-3.624-1.857h-.064c.896.433 2.373 1.335 2.718 2.738.256 1.03-.143 2.108-1.182 3.211a4.26 4.26 0 0 0 .591-3.053c-.226-.877-1.054-1.547-1.792-1.97a1.413 1.413 0 0 1 .152 1.69 1.399 1.399 0 0 1-1.689.624c-1.477-.403-2.841-2.585-2.566-7.5.252-4.432-.167-5.624-.167-5.624-.128-.403-.591-1.541-.591-1.541a8.786 8.786 0 0 0 1.177.945s1.325.877 2.393.65a1.522 1.522 0 0 0 1.02-.822c1.118-1.97-1.847-5.461-3.57-7.022l-.271-.242c-1.163-1.039-2.61-2.334-3.108-5.141l-.192-1.088.955.556s2.546 1.448 4.265.217a2.211 2.211 0 0 0 .832-1.566 3.999 3.999 0 0 1-2.905 1.054 4.723 4.723 0 0 1-3.59-2.492l-.054-.094a.581.581 0 0 1 .054.094c.226.344 1.182 1.58 3.585 1.881 1.098.133 2.078-.576 2.546-.985a4.649 4.649 0 0 1-2.782-.241c-1.3-.567-2.246-1.783-2.812-3.615-1.65-5.323 1.354-6.894 2.718-7.313.71-.222 2.379-.428 3.6.374a2.876 2.876 0 0 1 1.28 2.226c0 .985-.394 1.236-.394 1.236a.847.847 0 0 0-.812-1.024h-.232a.985.985 0 0 0-.788 1.103 1.147 1.147 0 0 0 1.168.94 2.039 2.039 0 0 0 1.556-.447 3.974 3.974 0 0 0 .916-2.62c.226 1.379.03 2.398-.586 3.038a2.462 2.462 0 0 1-1.936.67 1.753 1.753 0 0 1-1.748-1.477 1.6 1.6 0 0 1 .079-.779 1.33 1.33 0 0 0-.29.419 1.67 1.67 0 0 0 .768 2.098 3.329 3.329 0 0 0 2.462.404c.827-.227 1.477-.882 2.004-1.97.05-.108 1.266-2.866-1.837-5.826-.103-.108-2.59-2.58-6.466-.645h-.024s-2.044.955-3.536 4.22c-.104.227-2.246 4.88-5.112 6.486a5.156 5.156 0 0 0 3.693-1.97c.818-.852 1.7-1.802 1.7-1.802-1.72 4.077-4.841 4.432-5.91 4.397a1.92 1.92 0 0 0 .69.34c1.083.281 2.57-.31 4.308-1.709l.73-.59.098.935a12.513 12.513 0 0 1-.276 3.777 7.052 7.052 0 0 1-2.566 4.236 4.787 4.787 0 0 0 2.275-1.315 6.008 6.008 0 0 0 1.32-2.374c0 .034.232 3.373-3.757 4.432a3.004 3.004 0 0 0 1.083.074c.95-.113 1.837-.729 2.625-1.827l.665-.916.25 1.103c.095.414 2.281 10.17-1.073 12.977a3.64 3.64 0 0 1-3.171.664c.985.803 1.97 1.153 2.876.985a5.59 5.59 0 0 0 3.083-1.837c-.045.084-1.06 2.079-2.985 2.433a4.048 4.048 0 0 1-3.102-.872 4.166 4.166 0 0 0 1.97 1.892c.91.334 1.97.113 3.112-.67l1.3-.837-.492 1.438c-.03.088-3.014 9.135 2.398 12.45a6.658 6.658 0 0 0 2.344.807c.493.103 1.015.216 1.537.379 1.97.492 3.161 2.191 2.792 3.994a3.575 3.575 0 0 1-4.107 2.807 5.077 5.077 0 0 0 3.31.064 5.88 5.88 0 0 0 3.284-3.595c-.557 2.177-1.6 3.57-3.103 4.146a5.791 5.791 0 0 1-4.023-.049 4.078 4.078 0 0 0 .295.286c1.06.91 2.541 1.285 4.403 1.113 3.23-.296 4.84-2.738 4.757-4.999-.098-1.797-1.315-3.915-4.58-3.979zM183.628 148.45a2.492 2.492 0 0 0-2.954 1.654 3.038 3.038 0 0 1-1.685 1.851c-1.398.582-2.999-.059-3.284-.182-.843-.246-1.478-.226-1.94.054-.675.429-1.439 2-1.439 2s-.734-1.571-1.408-2c-.448-.28-1.098-.3-1.94-.054-.286.123-1.887.764-3.285.182a3.038 3.038 0 0 1-1.684-1.851 2.497 2.497 0 0 0-2.955-1.655c-1.167.315-2.236 1.63-2.108 4.363a3.94 3.94 0 0 1 2.088-1.526 2.886 2.886 0 0 1 2.56.729 2.56 2.56 0 0 1 .552 3.334 2.388 2.388 0 0 1-1.058.984 2.546 2.546 0 0 0 1.142-.236 3.905 3.905 0 0 0 2.054-2.167c-.306 1.305-.901 2.206-1.773 2.674a3.043 3.043 0 0 1-1.295.35 2.29 2.29 0 0 0 1.083.207c.71 0 1.266-.335 2.132-1.177l.591-.576.252.783a3.354 3.354 0 0 1-.449 2.954 2.66 2.66 0 0 0 .941-1.078 3.905 3.905 0 0 0 .177-2.955c.606 1.192.73 2.265.365 3.186a3.053 3.053 0 0 1-.645.985c.985-.551 1.782-1.733 2.31-3.52l.295-1.015.61.862c.06.083 1.394 1.97.803 3.787a3.398 3.398 0 0 1-2.053 2.028l2.398 6.348v-3.669h.615v3.655l2.394-6.334a3.398 3.398 0 0 1-2.054-2.028c-.59-1.793.744-3.704.803-3.787l.61-.862.296 1.014c.522 1.783 1.295 2.955 2.3 3.516a3.073 3.073 0 0 1-.64-.985c-.365-.92-.242-1.994.364-3.186a3.905 3.905 0 0 0 .177 2.955 2.664 2.664 0 0 0 .95 1.083 3.354 3.354 0 0 1-.452-2.954l.25-.783.592.576c.867.842 1.423 1.152 2.132 1.177a2.29 2.29 0 0 0 1.084-.207 3.063 3.063 0 0 1-1.3-.35c-.872-.468-1.478-1.369-1.773-2.674a3.905 3.905 0 0 0 2.053 2.167 2.566 2.566 0 0 0 1.148.236 2.388 2.388 0 0 1-1.06-.984 2.56 2.56 0 0 1 .552-3.334 2.886 2.886 0 0 1 2.561-.73 3.94 3.94 0 0 1 2.088 1.527c.153-2.733-.916-4.048-2.088-4.363z" class="cls-2" style="fill:#0092ae;stroke-width:.492464"/><path d="M190.808 86.739c-1.89.088-3.412 1.344-4.166 2.102a3.014 3.014 0 0 0-3.624-1.172c-1.842.586-1.926 2.566-1.714 3.536.157.7.285 2.29-.374 2.463a.749.749 0 0 1-.74-.124 4.004 4.004 0 0 1-1.147-1.97l-.418-1.265-.542 1.202a5.708 5.708 0 0 1-1.699 2.161 1.408 1.408 0 0 1-.729.197 1.443 1.443 0 0 1-1.029-.423 1.477 1.477 0 0 1-.428-1.034 1.477 1.477 0 0 1 .069-.443c.492-1.542 2.56-3.152 2.58-3.167l.813-.65a2.384 2.384 0 0 1-1.936-.65c-1.477-1.236-2.55-4.52-2.856-5.796l-.493-2.143-.512 2.108c-.305 1.276-1.393 4.56-2.856 5.796a2.384 2.384 0 0 1-1.935.65l.812.65s2.088 1.626 2.58 3.167a1.477 1.477 0 0 1 .07.443 1.477 1.477 0 0 1-.429 1.034 1.443 1.443 0 0 1-1.03.424 1.408 1.408 0 0 1-.728-.197 5.708 5.708 0 0 1-1.699-2.162l-.542-1.202-.418 1.266a4.004 4.004 0 0 1-1.148 1.97.749.749 0 0 1-.738.123c-.66-.158-.532-1.748-.375-2.462.212-.985.129-2.955-1.713-3.536a3.014 3.014 0 0 0-3.64 1.206c-.753-.758-2.275-2.014-4.166-2.102 0 0-2.63-.434-4.796 2.846a1.97 1.97 0 0 1 1.142-.177c.882.118 5.058.236 12.011 11.36l.212.336.384-.114a37.85 37.85 0 0 1 19 0l.383.114.212-.335c6.949-11.125 11.125-11.218 12.006-11.361a1.97 1.97 0 0 1 1.143.177c-2.167-3.28-4.797-2.846-4.797-2.846z" style="stroke-width:.492464"/><path d="M172.356 95.529a35.22 35.22 0 0 1 11.238 1.605c4.52-6.357 7.968-8.076 9.726-8.524a3.782 3.782 0 0 0-2.462-.827c-2.182.098-3.89 2.245-3.906 2.265l-.531.68-.36-.783c-.872-1.936-2.492-1.37-2.67-1.3h-.024c-1.418.433-1.044 2.245-1.029 2.314.074.335.685 3.245-1.147 3.693a1.891 1.891 0 0 1-1.6-.29 3.383 3.383 0 0 1-1.084-1.58 4.856 4.856 0 0 1-1.556 1.737 2.551 2.551 0 0 1-1.266.34 2.507 2.507 0 0 1-2.384-3.265c.384-1.211 1.522-2.344 2.3-3.019-1.3-.719-2.25-2.462-2.866-4.008v3.999h-.68V84.59c-.615 1.537-1.566 3.29-2.866 4.01.778.674 1.916 1.806 2.3 3.018a2.502 2.502 0 0 1-2.383 3.265 2.551 2.551 0 0 1-1.266-.34 4.856 4.856 0 0 1-1.556-1.738 3.383 3.383 0 0 1-1.084 1.58 1.891 1.891 0 0 1-1.6.291c-1.832-.448-1.221-3.359-1.148-3.693 0-.07.39-1.882-1.029-2.315h-.024c-.252-.103-1.847-.66-2.743 1.276l-.36.783-.532-.685s-1.723-2.167-3.905-2.265a3.782 3.782 0 0 0-2.462.827c1.753.453 5.2 2.172 9.72 8.53a35.22 35.22 0 0 1 11.239-1.606z" class="cls-3" style="fill:#0b2355;stroke-width:.492464"/><path d="M181.767 99.892a40.343 40.343 0 0 0-9.411-1.157 40.343 40.343 0 0 0-9.401 1.157q-.62-.985-1.212-1.851a34.34 34.34 0 0 1 10.613-1.478 34.33 34.33 0 0 1 10.607 1.478q-.576.866-1.196 1.851z" class="cls-1" style="fill:#fff;stroke-width:.492464"/><path d="M168.524 98.38a.576.576 0 1 1 .577-.576.576.576 0 0 1-.577.576zM165.077 98.843a.576.576 0 1 1 .576-.57.576.576 0 0 1-.576.57zM172.356 98.262a.576.576 0 1 1 .576-.576.571.571 0 0 1-.576.576zM176.212 98.38a.576.576 0 1 0-.576-.576.576.576 0 0 0 .576.576zM179.659 98.843a.576.576 0 1 0-.576-.57.576.576 0 0 0 .576.57zM172.356 101.759h-19.093l.064 1.393c.158 3.487 1.187 21.358 5.713 30.533.137.31 3.52 7.737 12.39 16.31l.926.916.926-.896c8.864-8.574 12.252-16 12.39-16.31 4.526-9.19 5.555-27.061 5.713-30.533l.064-1.394z" style="stroke-width:.492464"/><path d="M172.356 103.079h17.699c-.113 2.408-1.093 20.92-5.58 30.04v.024c-.133.306-3.447 7.525-12.1 15.897-8.662-8.372-11.966-15.591-12.1-15.897v-.024c-4.486-9.106-5.466-27.618-5.579-30.04z" class="cls-3" style="fill:#0b2355;stroke-width:.492464"/><path d="M187.829 120.517a15.41 15.41 0 0 0-4.23-10.628v-6.81h-7.496v2.422a15.562 15.562 0 0 0-7.495 0v-2.422h-7.495v6.81a15.468 15.468 0 0 0 0 21.26v3.664a58.347 58.347 0 0 0 7.495 10.342v-9.618a15.562 15.562 0 0 0 7.495 0v9.608a58.347 58.347 0 0 0 7.496-10.342v-3.664a15.414 15.414 0 0 0 4.23-10.622Z" class="cls-4" style="fill:#9d9d9c;stroke-width:.492464"/><circle cx="-46.603481" cy="205.08139" r="14.635993" style="stroke-width:.492464" transform="rotate(-67.84)"/><path d="m160.478 113.474.433-.684 2.797.61-.458.73-.384-.109-.458.719.261.31-.448.705zm1.812.375-.832-.237.556.67zM166.594 111.002l-.773.493-2.157-1.753.7-.463 1.27 1.118-.537-1.64.71-.493zM169.155 107.077l.812-.167.542 2.64-.812.192zM174.227 108.633a.561.561 0 0 0 0 .183c.03.167.197.236.35.266.152.03.35 0 .384-.178.034-.177-.084-.197-.493-.413-.408-.217-.851-.4-.753-.936.118-.61.69-.773 1.231-.675.542.099 1.044.424.946 1.074l-.773-.143a.217.217 0 0 0-.055-.231.448.448 0 0 0-.231-.114c-.108 0-.296 0-.325.123-.03.124.35.306.704.493.355.187.695.419.601.906-.133.69-.808.793-1.394.68-.3-.054-1.137-.325-.985-1.172zM179.497 108.643l1.127.808a.94.94 0 1 1-1.147 1.477l-.4-.285-.492.665-.674-.493zm-.045 1.478.261.187c.173.128.365.246.527 0 .163-.246 0-.32-.167-.438l-.3-.217zM183.82 112.795l.434.684-1.753 2.27-.458-.723.265-.3-.462-.725-.39.104-.443-.704zm-1.113 1.477.572-.645-.842.227zM161.33 122.811l.595 1.97-.66.202-.359-1.201-.32.098.305 1.03-.61.182-.31-1.03-.986.296-.24-.798zM163.373 129.814c-.566.493-1.103.414-1.64-.211-.536-.626-.527-1.168.045-1.655l1.255-1.074.537.63-1.113.951c-.211.177-.492.404-.207.71.286.305.493.073.724-.104l1.113-.956.542.63zM166.59 130.223l.757.345-.384.847 1.06-.537.93.424-1.325.551.35 1.97-.94-.428-.168-1.232-.315.138-.33.724-.754-.345zM173.567 133.38c0 .748-.408 1.103-1.23 1.103-.823 0-1.232-.36-1.227-1.108v-1.655h.827v1.478c0 .275 0 .615.404.62.404.005.394-.345.394-.62v-1.478h.827zM177.192 130.578a1.413 1.413 0 1 1-.62 1.866 1.325 1.325 0 0 1 .62-1.866zm.93 1.935c.193-.089.424-.355.163-.896-.26-.542-.61-.527-.803-.434-.192.094-.423.36-.162.897.26.536.615.527.803.433zM180.3 128.544l.521-.645.724.586-.256-1.158.645-.793.202 1.424 1.97.152-.655.803-1.231-.148.049.34.62.493-.521.64zM183.13 123.693l.203-.783 2.851-.286-.212.833h-.398l-.212.832.34.212-.202.807zm1.843-.202-.862.03.739.458z" class="cls-1" style="fill:#fff;stroke-width:.492464"/><circle cx="140.31369" cy="156.66127" r="10.474684" class="cls-2" style="fill:#0092ae;stroke-width:.492464" transform="rotate(-13.19)"/><path d="M179.95 126.057v-.143c-.094-.492-.281-1.33-.281-1.33a7.545 7.545 0 0 1-3.285 1.424 7.51 7.51 0 0 1-2.369 2.683s.73.429 1.182.675l.148.074a9.47 9.47 0 0 1-5.944 0l.148-.074c.453-.246 1.182-.675 1.182-.675a7.51 7.51 0 0 1-2.37-2.683 7.545 7.545 0 0 1-3.284-1.424s-.187.823-.28 1.33v.148a9.357 9.357 0 0 1-1.808-5.545v-.055l.084.09c.374.349.985.91.985.91a7.495 7.495 0 0 1 1.822-3.083 7.554 7.554 0 0 1 .335-3.565s-.842.084-1.35.148h-.093a9.455 9.455 0 0 1 4.693-3.403l-.04.074c-.216.463-.556 1.24-.556 1.24a7.485 7.485 0 0 1 3.487.808 7.485 7.485 0 0 1 3.496-.778s-.34-.778-.556-1.24l-.04-.075a9.455 9.455 0 0 1 4.694 3.403h-.094c-.493-.069-1.354-.147-1.354-.147a7.515 7.515 0 0 1 .34 3.565 7.495 7.495 0 0 1 1.822 3.083s.635-.562.985-.911l.083-.089v.054a9.357 9.357 0 0 1-1.783 5.51z" class="cls-1" style="fill:#fff;stroke-width:.492464"/><path d="M175.68 119.433a8.22 8.22 0 0 0-3.324-2.413 8.22 8.22 0 0 0-3.324 2.413 8.313 8.313 0 0 0 1.27 3.905 8.23 8.23 0 0 0 4.107 0 8.308 8.308 0 0 0 1.266-3.905z" class="cls-2" style="fill:#0092ae;stroke-width:.492464"/></g></svg>