<svg xmlns="http://www.w3.org/2000/svg" width="76.54612mm" height="91.54583mm" viewBox="0 0 76.54612 91.54583"><path d="M130.815 97.72c-1.044-10.386-3.548-16.988-3.655-17.263l-1.157-3.01-1.841 2.639a18.684 18.684 0 0 1-14.63 7.248 19.088 19.088 0 0 1-15.16-7.484l-1.403-2.049-1.409 2.055a19.088 19.088 0 0 1-15.158 7.478 18.695 18.695 0 0 1-14.625-7.248l-1.848-2.61-1.122 2.98c-.107.276-2.611 6.878-3.655 17.264a85.797 85.797 0 0 0 5.474 40.013 54.812 54.812 0 0 0 19.487 24.669c6.67 4.682 12.132 6.367 12.351 6.44l.5.151.5-.151c.224-.073 5.687-1.758 12.35-6.44a54.812 54.812 0 0 0 19.516-24.669 85.797 85.797 0 0 0 5.485-40.013z" class="cls-1" style="fill:#fff;stroke-width:.561425" transform="translate(-54.71 -77.447)"/><path d="M125.566 81.069a20.907 20.907 0 0 1-9.292 6.782 23.043 23.043 0 0 0-.887-1.427 12.2 12.2 0 0 1-.163 1.775 19.47 19.47 0 0 1-5.693.836 20.941 20.941 0 0 1-16.562-8.22 20.941 20.941 0 0 1-16.562 8.231c-10.46 0-16.034-7.977-16.034-7.977s-10.072 26.179 1.813 56.035a53.15 53.15 0 0 0 5.772 10.757l-.365 1h1.078c10.313 14.091 24.298 18.341 24.298 18.341s21.402-6.501 30.783-30.098c11.886-29.856 1.814-56.035 1.814-56.035z" class="cls-1" style="fill:#fff;stroke-width:.561425" transform="translate(-54.71 -77.447)"/><path d="M108.448 146.721a1.954 1.954 0 0 1 .471 1.415 2.336 2.336 0 0 1-.561 1.685 1.24 1.24 0 0 1-.91.381 1.173 1.173 0 0 1-.881-.32 1.87 1.87 0 0 1-.41-1.342 2.577 2.577 0 0 1 .6-1.79 1.179 1.179 0 0 1 1.685 0zm15.304-9.617c-9.381 23.58-30.783 30.098-30.783 30.098s-13.985-4.25-24.298-18.342h26.078l4.048-11.228.27-.752H93.53l4.104-11.319h13.676l.837-2.324.275-.752 2.245-6.288c5.328-2.69 7.551-6.614 8.478-9.438 1.038-3.172.83-4.491.561-5.8-.27-1.307-.673-2.924-.673-2.924a13.323 13.323 0 0 0 .364-2.398 36.667 36.667 0 0 0-.061-4.918s-1.943 3.262-3.369 4.66a6.687 6.687 0 0 1-2.133 1.404c.258-1.976.6-3.408-.096-5.614a15.72 15.72 0 0 0-.982-2.308c-.18-.342-.36-.668-.522-.96a20.907 20.907 0 0 0 9.291-6.793s10.112 26.14-1.774 55.996zM99.87 158.72l.05-.286 1.258-6.737-2.964.157-.034.657h1.162l-.056.28-1.066 5.738-.034.197H96.86l-.124.612h4.211l.112-.595h-1.19zm10.409-11.279a2.246 2.246 0 0 0-1.583-1.46 3.318 3.318 0 0 0-3.93 1.904 1.948 1.948 0 0 0 .561 2.504 2.566 2.566 0 0 0 2.892-.158l.561-.387-.213.662c-.427 1.297-1.022 2.14-1.78 2.499a2.139 2.139 0 0 1-1.769 0l-.185-.073.04-.191.056-.32h-.73l-.214 1.123c1.219.41 4.183.348 5.278-1.219 1.201-1.65 1.566-3.486 1.016-4.884zm7.231-9.544a2.246 2.246 0 0 0-1.583-1.454 3.307 3.307 0 0 0-3.93 1.897 1.954 1.954 0 0 0 .561 2.51 2.56 2.56 0 0 0 2.892-.163l.561-.387-.213.662c-.427 1.297-1.022 2.14-1.774 2.499a2.128 2.128 0 0 1-1.774 0l-.186-.073.04-.191.056-.32h-.663l-.213 1.123c1.218.404 4.182.342 5.277-1.219 1.112-1.64 1.5-3.47.95-4.873zm4.79-10.521a2.246 2.246 0 0 0-1.584-1.454 3.307 3.307 0 0 0-3.93 1.897 1.96 1.96 0 0 0 .561 2.51 2.571 2.571 0 0 0 2.897-.163l.562-.387-.22.662c-.42 1.297-1.021 2.14-1.773 2.498a2.128 2.128 0 0 1-1.774 0l-.18-.073.034-.19.061-.32h-.735l-.208 1.122c1.213.41 4.183.349 5.272-1.212 1.201-1.645 1.572-3.475 1.016-4.879zm-7.434 9.465a1.168 1.168 0 0 0-.854.36 2.588 2.588 0 0 0-.6 1.79 1.886 1.886 0 0 0 .41 1.348 1.196 1.196 0 0 0 .881.32 1.263 1.263 0 0 0 .91-.382 2.341 2.341 0 0 0 .56-1.684 1.976 1.976 0 0 0-.465-1.415 1.201 1.201 0 0 0-.842-.337zm4.794-10.52a1.123 1.123 0 0 0-.853.359 2.56 2.56 0 0 0-.606 1.79 1.858 1.858 0 0 0 .415 1.348 1.173 1.173 0 0 0 .876.32 1.286 1.286 0 0 0 .915-.382 2.341 2.341 0 0 0 .561-1.684 1.954 1.954 0 0 0-.471-1.415 1.201 1.201 0 0 0-.865-.337zm-42.775 10.532 4.138-11.319H67.548l.842-2.324.275-.752 1.976-5.412 2.117-5.817 2.122-5.833h15.102a10.628 10.628 0 0 1 2.611-3.835c.236-.218.489-.426.752-.628a12.127 12.127 0 0 1 3.369-1.786c3.93-1.353 4.256-1.998 4.834-3.885.46-1.521 1.617-4.75 2.049-5.956l.168-.466s.051.207.124.561c.23.994.719 3.105.994 4.239.365 1.521.657 2.369.791 3.211a11.83 11.83 0 0 1 3.476-1.342c4.193-.842 5.148-4.39 5.507-5.232a6.816 6.816 0 0 0 .309-.86 10.252 10.252 0 0 0 .264-1.195 19.47 19.47 0 0 1-5.693.837 20.941 20.941 0 0 1-16.568-8.242 20.941 20.941 0 0 1-16.562 8.23c-10.46 0-16.034-7.977-16.034-7.977s-10.072 26.179 1.813 56.035a53.15 53.15 0 0 0 5.772 10.757l.455-1.252 3.53-9.757zm4.492-38.62h.297v-.102l.528-2.852v-.151h-.275l.056-.292h2.566a1.162 1.162 0 0 1 .792.348 1.123 1.123 0 0 1 .269.853 2.566 2.566 0 0 1-.719 1.909 1.96 1.96 0 0 1-1.521.561h-2.032Zm-5.3-3.37h3.655l-.118.607h-.28v-.314h-1.124v.106l-.527 2.847-.028.151h.297l-.056.281h-1.404l.04-.28h.32v-.102l.516-2.852v-.151h-1.022v.1l-.044.214h-.298zM70.771 97.9h.235l-.033.168v.118h.118a2.661 2.661 0 0 0 .522.096h.022c.18 0 .562 0 .685-.275l.034-.062c.146-.286.213-.562-.388-1.005l-.174-.107c-.5-.381-.724-.561-.617-1.123.135-.724.876-.982 1.527-.982a4.39 4.39 0 0 1 .864.073l-.117.64h-.259v-.236l-.061-.056a1.325 1.325 0 0 0-.78-.056.522.522 0 0 0-.456.561c0 .236.191.365.472.562.112.078.236.163.376.275.5.393.562.623.562.881a1.033 1.033 0 0 1-.46.87 1.684 1.684 0 0 1-1.191.326h-.14a5.277 5.277 0 0 1-.865-.05zm-5.457.331h.291v-.1l.534-2.853.028-.151h-.292l.062-.292h2.768l-.118.606h-.259v-.314h-1.347v.106l-.185 1.067v.152h1.263l-.05.297h-1.32v.101l-.236 1.23v.151h1.42v-.252h.259l-.096.533h-2.773zm17.802 0h-.629v-.151l.562-2.847v-.106h.561a1 1 0 0 1 .95.415 1.774 1.774 0 0 1-.113 1.684 1.443 1.443 0 0 1-1.33 1.005z" class="cls-2" style="fill:#d39e46;stroke-width:.561425" transform="translate(-54.71 -77.447)"/><path d="M70.024 148.86h22.57v17.085a52.628 52.628 0 0 1-22.57-17.085Zm6.86-12.008 4.138-11.319H67.548l.842-2.324h-9.235a79.66 79.66 0 0 0 4.025 13.474 51.37 51.37 0 0 0 5.233 9.898l3.53-9.757zm19.824-37.706a12.127 12.127 0 0 0-3.368 1.786V82.966a22.25 22.25 0 0 0 10.246 6.344c-.433 1.207-1.589 4.435-2.05 5.957-.572 1.88-.875 2.526-4.828 3.88zm28.442-15.922a22.131 22.131 0 0 1-8.354 5.615 15.72 15.72 0 0 1 .983 2.307c.696 2.246.353 3.65.095 5.614a6.687 6.687 0 0 0 2.133-1.403c1.398-1.398 3.369-4.66 3.369-4.66a36.667 36.667 0 0 1 .062 4.918 13.323 13.323 0 0 1-.365 2.397s.427 1.612.674 2.925c.247 1.314.454 2.628-.562 5.8-.926 2.807-3.15 6.737-8.477 9.437l-2.246 6.288h14.535a84.113 84.113 0 0 0-1.847-39.238Zm-19.481 13.61a11.83 11.83 0 0 1 3.475-1.343c4.194-.842 5.148-4.39 5.507-5.232a6.816 6.816 0 0 0 .31-.859 20.733 20.733 0 0 1-5.43.696 22.03 22.03 0 0 1-5.648-.724c.23.994.719 3.105.994 4.239.365 1.538.657 2.386.792 3.222zM57.785 99.567h34.808v1.993a10.628 10.628 0 0 0-2.61 3.835H57.503c.034-2.038.13-3.986.28-5.828zm.376 17.478h12.48l2.117-5.817H57.6a91.49 91.49 0 0 0 .561 5.817zm18.246-26.949a20.677 20.677 0 0 1-9.353-2.2h-7.5a83.7 83.7 0 0 0-1.095 5.827h34.134v-5.81h-6.608a21.474 21.474 0 0 1-9.578 2.183Zm45.56 35.931a3.054 3.054 0 0 1 .78 1.157c.562 1.443.27 3.267-.78 4.963v6.423q.41-.927.791-1.887a79.66 79.66 0 0 0 4.026-13.474h-4.817zm-18.095 27.954-.196-.068-.197-.062.04-.207.033-.202.213-1.123.034-.197.04-.196h.752v-1.606a2.487 2.487 0 0 1-.264-2.65 4.823 4.823 0 0 1 .264-.51v-21.627h-5.794v11.319h.27l-.27.752v13.715l2.358-.129h.606l-.056.298-.056.297-1.207 6.48h1.19l-.056.286-.05.28-.107.595-.034.197-.034.196h-2.554v3.655a53.481 53.481 0 0 0 5.794-3.615v-5.682a5.053 5.053 0 0 1-.719-.168zm7.231-9.545-.196-.061-.197-.068.04-.207.033-.203.214-1.122.033-.197.04-.196h1.684l-.056.28-.05.287v.118a1.611 1.611 0 0 0 1.206-.068 2.953 2.953 0 0 0 1.303-1.622 2.93 2.93 0 0 1-2.847-.163 2.414 2.414 0 0 1-.752-3.094 3.778 3.778 0 0 1 4.492-2.178l.145.04v-1.983c-.095-.028-.19-.05-.275-.084l-.202-.062-.196-.067.04-.208.038-.202.208-1.123.04-.196.033-.197h.314v-2.459a2.554 2.554 0 0 1 0-1.268v-4.913h-4.053l-.837 2.324h-.931v21.082a3.077 3.077 0 0 1 .342.645 5.272 5.272 0 0 1-.342 4.16v3.622a51.213 51.213 0 0 0 5.793-6.524v-4.705c-1.482 1.067-3.885 1.05-5.064.652zm4.239-6.944a1.477 1.477 0 0 1 .331 1.072c0 .943-.398 1.572-1 1.572a.702.702 0 0 1-.56-.18 1.426 1.426 0 0 1-.276-1.005 2.133 2.133 0 0 1 .466-1.454.696.696 0 0 1 .511-.219.707.707 0 0 1 .528.253z" class="cls-3" style="fill:#27348b;stroke-width:.561425" transform="translate(-54.71 -77.447)"/><path d="M98.797 125.533v11.319H93.53l4.104-11.319zm-2.06 34.247h-.562l.062-.286.056-.286.123-.612.04-.191.039-.197h1.32l.976-5.255h-1.095v-.505l.034-.657v-.427h.427l.606-.033v-13.727l-4.048 11.228h-1.403v17.113a44.353 44.353 0 0 0 5.451-2.499v-3.655zm7.86-12.61v-21.637h5.776v21.082a2.554 2.554 0 0 0-1.583-1.123c-.696-.13-2.953-.416-4.2 1.69zm5.103 5.43c-1.078 1.543-3.532 1.813-5.104 1.566v5.653a53.947 53.947 0 0 0 5.777-4.777v-3.621a7.736 7.736 0 0 1-.679 1.19zm-2.089-5.76a.696.696 0 0 0-.516.218 2.161 2.161 0 0 0-.46 1.454 1.443 1.443 0 0 0 .274 1.005.702.702 0 0 0 .562.18c.595 0 1-.634 1-1.572a1.499 1.499 0 0 0-.332-1.078.696.696 0 0 0-.533-.196zm-2.347 5.103h.287l-.056.28-.05.281v.118a1.645 1.645 0 0 0 1.206-.062 2.953 2.953 0 0 0 1.303-1.622 2.947 2.947 0 0 1-2.847-.163 2.324 2.324 0 0 1-.488-.444v1.606h.668zm14.873-24.944a1.477 1.477 0 0 1 .33 1.072c0 .943-.398 1.572-.999 1.572a.713.713 0 0 1-.56-.18 1.426 1.426 0 0 1-.276-1.005 2.133 2.133 0 0 1 .466-1.454.707.707 0 0 1 1.016 0zm1.583 5.552c-1.185 1.684-4.031 1.853-5.541 1.477v1.981a2.734 2.734 0 0 1 1.78 1.685c.611 1.55.23 3.548-1.028 5.35a3.043 3.043 0 0 1-.752.741v4.694a51.41 51.41 0 0 0 5.793-9.92v-6.356q-.123.168-.258.36zm-4.722-.662h.562l-.05.28-.051.287v.118a1.594 1.594 0 0 0 1.201-.068 2.981 2.981 0 0 0 1.308-1.622 2.947 2.947 0 0 1-2.852-.163 2.246 2.246 0 0 1-.926-1.297v2.459h.82zm-.64-4.262a3.773 3.773 0 0 1 4.458-2.161 2.52 2.52 0 0 1 1.15.595v-2.84h-5.793v4.957a3.256 3.256 0 0 1 .18-.54zm-58.854-22.232h17.404l-2.15 5.833H57.6a108.789 108.789 0 0 1-.096-5.833zm1.505 17.062h9.673l1.96-5.412H58.16c.208 1.774.488 3.576.848 5.412zm-1.224-22.89h34.808V93.74H58.46c-.27 1.79-.506 3.739-.674 5.827zm23.27-.943.09-.561.034-.107h.304l.482-2.594h-.275l.028-.151.101-.562v-.1h2.729a1.415 1.415 0 0 1 .977.426 1.342 1.342 0 0 1 .342 1.044 2.807 2.807 0 0 1-.797 2.072 2.184 2.184 0 0 1-1.684.646h-2.353Zm-5.35-3.076.14-.86v-.106h4.212l-.034.152-.169.859v.1h-.82v-.308h-.583l-.477 2.571h.297v.152l-.106.561v.101h-1.91v-.146l.08-.561v-.107h.32l.47-2.594h-.56l-.045.208v.101h-.843zm-5.339 3.054.174-.854v-.1h.753l-.028.151-.04.196a1.797 1.797 0 0 0 .343.057h.067c.14 0 .382 0 .45-.135l.033-.068c.101-.185.163-.303-.314-.679l-.169-.135c-.51-.393-.848-.65-.713-1.375.135-.724.82-1.19 1.78-1.19a3.48 3.48 0 0 1 1.055.118l.101.033v.113l-.162.859v.1h-.78v-.319a1.09 1.09 0 0 0-.562 0c-.208.05-.264.123-.258.32 0 .1.117.185.359.353.112.079.241.169.393.287.51.404.69.701.674 1.122a1.297 1.297 0 0 1-.562 1.062 2.01 2.01 0 0 1-1.353.376h-.13a4.907 4.907 0 0 1-1.066-.101h-.118zm-5.384 0 .096-.562v-.1h.292l.482-2.594h-.297l.034-.158.112-.561v-.101h3.29l-.034.151-.129.916v.117h-.792v-.308H67.2l-.146.808h1.269v.152l-.096.561v.107h-1.325l-.185.926h.893v-.258h.786v.151l-.13.815v.106h-3.312zm19.246-1.482a1.544 1.544 0 0 0 .135-1.454c-.135-.214-.348-.298-.736-.298h-.348l-.483 2.588h.32a1.196 1.196 0 0 0 1.112-.82zm-23.44-13.896a70.484 70.484 0 0 0-1.235 4.688h7.5a22.406 22.406 0 0 1-6.265-4.688zm31.805-.263v4.951h-6.608a22.496 22.496 0 0 0 6.608-4.951z" class="cls-4" style="fill:#e4032e;stroke-width:.561425" transform="translate(-54.71 -77.447)"/><path d="M92.593 148.86h2.156l4.048-11.228.27-.752H93.53l4.104-11.319h13.676l.837-2.324.275-.752 2.245-6.288c5.328-2.69 7.551-6.614 8.478-9.438 1.038-3.172.83-4.491.561-5.8-.27-1.307-.673-2.924-.673-2.924a13.323 13.323 0 0 0 .364-2.398 36.667 36.667 0 0 0-.061-4.918s-1.943 3.262-3.369 4.66a6.687 6.687 0 0 1-2.133 1.404c.258-1.976.6-3.408-.096-5.614a15.72 15.72 0 0 0-.982-2.308c-.18-.342-.36-.668-.522-.96-.489-.848-.887-1.426-.887-1.426a12.2 12.2 0 0 1-.163 1.774 10.252 10.252 0 0 1-.264 1.196 6.816 6.816 0 0 1-.309.859c-.36.842-1.314 4.39-5.507 5.232a11.83 11.83 0 0 0-3.436 1.297c-.135-.842-.427-1.684-.792-3.211-.275-1.123-.763-3.245-.994-4.239-.073-.342-.123-.561-.123-.561l-.169.466c-.432 1.207-1.588 4.435-2.049 5.956-.561 1.887-.881 2.532-4.834 3.886a12.127 12.127 0 0 0-3.368 1.785c-.264.202-.517.41-.753.629a10.628 10.628 0 0 0-2.61 3.834H74.88l-2.122 5.85-2.117 5.817-1.959 5.4-.275.775-.842 2.325h13.474l-4.138 11.318h-4.94l-3.532 9.757-.454 1.252-.365 1h25z" class="cls-1" style="fill:#fff;stroke-width:.561425" transform="translate(-54.71 -77.447)"/><path d="m113.147 114.799-3.183 8.842h-9.904l2.964-8.146H99.24l-8.421 23.226h5.575l-2.97 8.247H70.276l2.987-8.247h4.94l8.49-23.226h-3.83l-2.941 8.146h-9.674l5.946-16.36h15.125a8.842 8.842 0 0 1 5.996-6.355c4.053-1.387 5.412-2.38 6.063-5.25.713 1.124.606 4.75.606 4.75a11.992 11.992 0 0 1 5.53-3.082c5.615-1.123 6.418-5.85 6.418-5.85.437 2.218.235 5.822-.562 7.67 2.195-.124 4.542-.837 6.07-2.566a19.358 19.358 0 0 1-3.448 7.955c2.88-.562 3.964-3.509 3.964-3.509s1.33 9.1-8.81 13.755zM85.85 143.555l-1.033-.87-.252.696-1.022-.865.561-1.577-.887-.747-.561 1.583-.915-.78.348-.943.561.471.494-1.353-1.605-1.353-1.724 4.688 1.028.87.308-.847 2.847 2.386-.214.561 1.033.87zm.68-1.847-1.033-.865-.433 1.168 1.033.87zm1.684-4.548-1.808-1.515-.5 1.37.77.65-.343.933-2.84-2.398.342-.932.561.478.483-1.314-1.583-1.342-.893 2.437a1.813 1.813 0 0 0 .635 2.302l2.807 2.38a.78.78 0 0 0 1.358-.32zm.674-1.841-1.05-.87-.432 1.179 1.033.864zm7.64-24.197c-.679-.562-2.93-2.482-2.93-2.482-.724-.561-1.19-.399-1.493.421l-.562 1.516a1.594 1.594 0 0 0 .174 1.6l-.561-.488-.78 2.122s.797 1.263 1.167 1.841a1.24 1.24 0 0 0 .197.247 3.458 3.458 0 0 0-.399-.18 124 124 0 0 1-1.47-.56l-1.28 3.497 1.683 2.897-2.133-1.701-2.038 5.552a1.73 1.73 0 0 0 .213 1.746l-.645-.561-1.999 5.451 1.572 1.364.399-1.089-.562-.505.382-1.055 2.846 2.397-.196.522 1.039.87.943-2.588-1.022-.876-.19.517-2.842-2.398.623-1.684.068.062 2.891 2.425a.758.758 0 0 0 1.336-.359l.624-1.684a1.735 1.735 0 0 0-.562-1.982c-.747-.651-2.891-2.442-2.891-2.442l.46-1.258 2.841 2.392-.174.483 1.033.864.747-2.032-1.887-1.583.303-.82 1.881 1.583.91-2.47-1.033-.865-.348.95-1.74-1.489-.355.977-.836-1.684.528-1.432 2.245.562.972.814-.186.5 1.033.87.921-2.504-1.033-.87-.18.494-.993-.837-1.494-2.526.377-1.033 2.846 2.402c.51.422 1.123.646 1.47-.348.276-.735.607-1.645.607-1.645a1.718 1.718 0 0 0-.533-1.897zm-9.285 14.81 2.84 2.392.337-.916-2.84-2.397zm5.451-14.861 2.841 2.392.337-.915-2.847-2.386z" class="cls-5" style="fill:#28348a;stroke-width:.561425" transform="translate(-54.71 -77.447)"/></svg>