<svg xmlns="http://www.w3.org/2000/svg" width="200" height="286.2" viewBox="0 0 200 286.2"><path fill="#731013" d="M78.2 54.2v58h-29v43.5h29v14.5h-58v43.5h58v29l43.5 43.5v-72.5h58v-43.5h-58v-14.5h29v-43.5h-29V97.7c-14.5-14.5-28.9-29-43.5-43.5M8.1 7.8h16V0H0v41.1h8.1V26h15.6v-7.8H8.1V7.8zm27.2 18.6c0-4.7 3.5-8.1 7.9-8.1 3.1 0 5.7 1.6 6.7 4.1h8c-1.4-6.7-7.4-11.5-14.7-11.5-8.9 0-15.5 6.8-15.5 15.5S34.3 42 43.2 42c7.3 0 13.3-4.8 14.7-11.6h-8c-1 2.5-3.6 4.1-6.7 4.1-4.4-.1-7.9-3.4-7.9-8.1m74.4 14.7h8.1V0h-9.2L97.7 25.2 86.8 0h-9.2v41.1h8.1V13.5l9.1 21.1h5.9l9.1-21.1v27.6zm36.5-17.5h-14.8c.9-3.7 3.7-5.9 7.7-5.9 3.2 0 6.2 1.7 7.1 5.9m7.3 6c.2-1 .3-2 .3-3.1 0-8.6-6-15.5-14.6-15.5-9.3 0-15.6 6.8-15.6 15.5S129.8 42 139.3 42c6.6 0 11.7-3.4 13.6-9.3l-7.5.1c-1 1.7-3.4 2.9-6.1 2.9-3.8 0-6.9-1.9-7.9-6.1h22.1zM200 34h-13l12.5-17.2v-5h-30.6V2.3h-7.6v9.4h-5.1V19h5.1v22.1h7.6V18.9h20.3l-12.4 17.2v5H200V34z"/></svg>