<?xml version="1.0" encoding="UTF-8"?>
<svg id="Calque_2" data-name="Calque 2" xmlns="http://www.w3.org/2000/svg" viewBox="0 0 935.27 1181.84">
  <defs>
    <style>
      .cls-1 {
        fill: #fff;
        stroke-width: 0px;
      }
    </style>
  </defs>
  <g id="Calque_1-2" data-name="Calque 1">
    <path class="cls-1" d="M132.21,1131.21H51.35v-271.33H0v317.58h119.46l12.75-46.25ZM152.97,859.88v317.58h51.72v-317.58h-51.72ZM330.33,999.74l-12.75,41.88h48.8c-.36,59-3.64,76.48-9.11,84.86-4.73,6.92-12.02,9.83-22.58,9.83h-12.75c-10.93,0-18.21-2.91-22.94-9.83-5.83-9.11-8.74-29.14-8.74-100.88v-13.84c0-71.75,2.91-92.14,8.74-100.88,4.73-6.92,12.02-9.83,22.94-9.83h12.75c16.39,0,24.77,9.47,24.77,41.52,0,8.38,0,16.02-.36,23.31l49.17-27.32c.36-5.83.36-9.83.36-14.93,0-38.97-25.13-68.11-72.48-68.11h-16.02c-22.94,0-45.16,9.47-59,26.22-16.39,20.03-22.22,52.81-22.22,116.91v40.06c0,64.46,5.83,96.88,22.22,116.91,13.84,16.75,36.06,26.22,59,26.22h16.02c22.94,0,45.16-9.47,59-26.22,15.66-19.3,19.67-52.45,19.67-116.91v-38.97h-84.5ZM565.24,1128.66v-4.37c-8.74,6.56-21.85,10.56-36.42,10.56h-4.37c-18.21,0-25.86-8.01-25.86-25.86v-249.11h-51.35v253.49c0,49.17,24.4,68.47,57.91,68.47h4.37c10.56,0,19.67-1.82,29.86-4.37l25.86-48.8ZM565.24,859.88v317.58h51.35v-317.58h-51.35ZM706.55,1132.31v-98.7h51.72l13.11-45.16h-64.83v-83.04h81.95l-13.11-45.53h-120.19v317.58h124.56l12.75-45.16h-85.95ZM848.23,885.38l-9.11,36.06h44.8v256.03h51.35v-322.68l-87.04,30.59ZM551.4,161.71l85.22-21.85-130.38,474.92h99.79L776.48,0l-399.17,108.17-35.69,100.16h96.15l-166.08,582h327.05l26.22-94.33h-225.08l151.51-534.29h0Z"/>
  </g>
</svg>