<svg xmlns="http://www.w3.org/2000/svg" width="45" height="59"><g fill="none" fill-rule="evenodd"><path fill="#0097d7" d="M22.219 48.97c-4.38 0-8.35-1.82-11.252-4.77l5.128-14.727c.482 1.84 1.506 5.659 1.504 5.652l.224.996c.223.97.402 1.75.402 2.472 0 1.074-.394 2.03-1.622 3.32l.199.59c.632.394 1.796.74 2.632.778.265 1.274 1.754 3.212 2.798 4.108 1.045-.896 2.535-2.834 2.8-4.108.835-.039 2-.384 2.632-.777l.199-.59c-1.228-1.29-1.622-2.247-1.622-3.32 0-.724.178-1.502.402-2.473l.223-.996c-.001.007 1.023-3.811 1.505-5.652l5.17 14.657c-2.907 2.992-6.906 4.84-11.322 4.84M6.13 32.26c0-5.696 2.746-10.724 6.937-13.74-.397 4.88-3.407 13.601-5.76 20.015A17.22 17.22 0 0 1 6.13 32.26m20.264-16.138c-.075 1.107-.317 2.166-.54 3.13 0 0-.227 1.032-.233 1.054-.002.007-2.912 11.703-3.389 13.527-.476-1.824-3.386-13.52-3.388-13.527a449.47 449.47 0 0 0-.232-1.054c-.224-.966-.467-2.028-.542-3.138a15.55 15.55 0 0 1 8.324.008M38.308 32.26c0 2.16-.4 4.22-1.117 6.115-2.37-6.389-5.382-14.989-5.79-19.833 4.173 3.02 6.907 8.036 6.907 13.718m1.283 12.53c-.13-.36-.283-.77-.452-1.223 2.765-3.132 4.41-7.051 4.41-11.307 0-7.317-4.862-13.645-11.927-16.67.318-1.438.873-2.997 1.491-4.098.24-.398.511-.782.801-1.135l.083-.085-.006-.008a8.3 8.3 0 0 1 1.222-1.188l-.292-.682c-1.42.626-4.413 2.051-6.253 3.715-.884-.823-2.537-1.665-3.76-2.052l-.231.56c.153.16.169.184.258.338l.01.013.008.012a7.121 7.121 0 0 1 1.344 3.053 24.52 24.52 0 0 0-8.127-.004 7.106 7.106 0 0 1 1.343-3.049l.009-.012.009-.013c.09-.154.105-.178.257-.337l-.23-.561c-1.223.387-2.877 1.229-3.761 2.052-1.839-1.664-4.833-3.09-6.252-3.715l-.292.682c.343.268.775.659 1.223 1.188l-.006.008.082.085c.29.353.56.737.8 1.135.617 1.1 1.17 2.654 1.49 4.09C5.767 18.604.896 24.936.896 32.26c0 4.304 1.682 8.264 4.504 11.413-.153.411-.29.786-.411 1.117-1.52 3.306-3.674 5.165-4.883 6.01l.28.584c5.168-.724 6.93-.183 8.08 0l1.39-3.994c3.489 2.165 7.757 3.438 12.367 3.438 4.647 0 8.946-1.294 12.45-3.491l1.428 4.047c1.15-.182 2.92-.724 8.087 0l.285-.585c-1.209-.844-3.363-2.703-4.882-6.009"/><g fill="#c5a459"><path d="m22.232.082-.958 2.975h-3.13l2.537 1.853-.948 2.983 2.526-1.848 2.542 1.823-.974-2.972 2.52-1.839h-3.13L22.231.082zM1.723 55.317h-.405v1.955h.441c.369 0 .663-.121.663-1.062 0-.79-.302-.893-.7-.893zM3.29 57.59c-.324.258-.737.41-1.428.41H0v-3.4h1.811c.353 0 .81.02 1.222.21.582.269.84.736.84 1.43 0 .526-.118.984-.582 1.35zm2.554-2.273v.693h.376c.45 0 .604-.142.604-.37 0-.244-.2-.323-.611-.323h-.369zM6.986 58l-.537-.95c-.199-.352-.316-.396-.604-.396V58H4.528v-3.398h1.767c1.509 0 1.995.405 1.995.97 0 .585-.464.883-1.068.95.177.035.39.19.515.367.17.229.604.858.774 1.111H6.986zm4.823-1.72c0-.85-.25-1.054-.817-1.054-.597 0-.847.414-.847 1.063 0 .868.316 1.083.861 1.083.56 0 .803-.22.803-1.093zm-3.137.106c0-1.209 1.002-1.842 2.356-1.842 1.745 0 2.253.882 2.253 1.628 0 .975-.464 1.887-2.297 1.887-1.487 0-2.312-.653-2.312-1.673zM13.937 58v-3.398h1.347v3.398h-1.347zm5.595-2.676h-1.193v2.676h-1.333v-2.676h-1.192V54.6h3.872l-.154.722zm3.813.73a2.025 2.025 0 0 1-.095-.477 2.228 2.228 0 0 1-.14.541l-.207.556h.663l-.221-.62zM24.096 58l-.265-.653h-1.215l-.28.653h-1.384l1.65-3.398h1.369l1.553 3.398h-1.428zm5.492-1.048c0 .293-.015.424-.125.56-.214.283-.788.546-1.804.546-.81 0-1.37-.146-1.678-.423-.192-.186-.251-.269-.251-.722v-2.311h1.325v2.218c0 .312.148.522.611.522.472 0 .604-.176.604-.507v-2.233h1.318v2.35zm4.351-.35h-.486v.671h.5c.332 0 .471-.14.471-.35 0-.171-.08-.322-.485-.322zm-.486-1.284v.59h.523c.316 0 .427-.146.427-.321 0-.176-.133-.269-.442-.269h-.508zM34.219 58h-2.084v-3.398h2.275c.744 0 1.347.21 1.347.834 0 .307-.191.628-.758.75.5.088.942.356.942.766 0 .619-.552 1.048-1.722 1.048zm6.199-1.048c0 .293-.015.424-.126.56-.213.283-.788.546-1.803.546-.81 0-1.37-.146-1.679-.423-.192-.186-.25-.269-.25-.722v-2.311h1.325v2.218c0 .312.147.522.611.522.471 0 .604-.176.604-.507v-2.233h1.318v2.35zm4.24-1.628h-1.193v2.676h-1.332v-2.676H40.94V54.6h3.873l-.155.722z"/></g></g></svg>