<svg xmlns="http://www.w3.org/2000/svg" xml:space="preserve" width="1095.9449" height="1095.947" viewBox="0 0 1095.9449 1095.947"><defs><clipPath id="a" clipPathUnits="userSpaceOnUse"><path d="M0 850.394h850.394V0H0Z"/></clipPath><clipPath id="b" clipPathUnits="userSpaceOnUse"><path d="M404.437 770.558v-96.84c6.485.494 13.035.818 19.657.818h.011v29.443h24.657l21.266-33.624a255.016 255.016 0 0 0 24.818-5.776l-25.49 40.639c14.614 3.9 26.659 16.776 26.659 32.05 0 18.355-17.364 33.29-35.726 33.29zm19.668-17.222h36.184c8.866 0 16.069-7.211 16.069-16.068 0-8.863-7.203-16.067-16.069-16.067h-36.184zm-126.646-6.201-7.268-110.342a255.825 255.825 0 0 0 20.16 11.128l1.037 25.718a277.759 277.759 0 0 0 41.491 14.486l16.948-19.448a255.638 255.638 0 0 0 22.685 3.844l-74.577 81.882a349.876 349.876 0 0 1-20.476-7.268m16.314-14.168 27.402-31.424a290.875 290.875 0 0 1-29.07-10.191zm199.465-74.444a257.046 257.046 0 0 0 18.623-7.758l37.401 89.949a354.482 354.482 0 0 1-18.668 7.684zm-309.059 41.126-40.547-44.625 70.642-64.375c4.42 4.853 9.075 9.493 13.851 13.993l-22.05 20.1 27.316 30.066c12.361 13.566 12.375 35.372-1.192 47.736-6.187 5.636-14.144 8.351-22.141 8.351-9.547 0-19.152-3.868-25.879-11.246m-14.565-41.676 26.513 29.092c5.973 6.549 16.14 7.029 22.698 1.053 6.554-5.962 7.023-16.152 1.048-22.693l-26.505-29.102zm409.835 41.531c-12.714-11.992-5.502-30.475 5.592-42.14l10.756-11.329c10.979-11.563 20.581-23.069 11.758-30.356-9.413-7.771-35.694 11.703-51.491 45.141l-14.16-10.682c3.384-8.799 11.005-21.538 21.253-32.316 11.61-12.229 24.255-20.18 35.583-22.413 8.898-1.747 17.77-.425 23.612 5.004 14.589 13.539 9.289 33.271-13.638 57.406l-9.514 10.013c-10.55 11.121-6.239 17.45-2.151 18.42 14.575 3.412 41.357-23.182 46.474-41.203 4.267 3.239 13.738 10.199 13.738 10.199-8.876 25.253-38.51 50.534-61.213 50.534-6.25 0-11.977-1.915-16.599-6.278"/></clipPath><clipPath id="c" clipPathUnits="userSpaceOnUse"><path d="M0 850.394h850.394V0H0Z"/></clipPath><clipPath id="d" clipPathUnits="userSpaceOnUse"><path d="m204.456 199.451 4.125-3.882 12.185 5.941 12.255-10.676-3.909-13.172 4.616-3.564 11.083 38.943-4.384 3.818zm21.495 4.502 12.43 6.04-3.799-13.546z"/></clipPath><clipPath id="e" clipPathUnits="userSpaceOnUse"><path d="M0 850.394h850.394V0H0Z"/></clipPath><clipPath id="f" clipPathUnits="userSpaceOnUse"><path d="m244.786 165.985 4.331-2.918 20.177 31.36-4.338 2.914z"/></clipPath><clipPath id="g" clipPathUnits="userSpaceOnUse"><path d="M0 850.394h850.394V0H0Z"/></clipPath><clipPath id="h" clipPathUnits="userSpaceOnUse"><path d="m263.695 153.751 4.455-2.652 12.936 25.184.08-.041 6.29-35.42 4.553-2.123 16.726 32.713-4.587 2.472-12.72-24.831-.086.043-6.24 35.023-4.589 2.473z"/></clipPath><clipPath id="i" clipPathUnits="userSpaceOnUse"><path d="M0 850.394h850.394V0H0Z"/></clipPath><clipPath id="j" clipPathUnits="userSpaceOnUse"><path d="m316.91 162.066 11.923-4.26-10.235-30.111 4.893-1.755 10.242 30.127 11.926-4.258 1.709 5.017-28.755 10.26z"/></clipPath><clipPath id="k" clipPathUnits="userSpaceOnUse"><path d="M0 850.394h850.394V0H0Z"/></clipPath><clipPath id="l" clipPathUnits="userSpaceOnUse"><path d="M407.246 128.018c-.201-12.543 9.717-19.446 19.32-19.615 9.027-.148 16.195 4.166 16.305 10.793l.159 9.802-16.514.269-.082-5.312 11.325-.187-.075-4.127c-.038-3.149-4.549-6.03-10.79-5.927-9.12.161-14.589 6.738-14.472 13.972.121 7.719 5.743 14.024 15.298 13.862 6.531-.113 9.258-3.548 10.999-5.34l3.666 3.719c-2.076 2.108-6.52 6.806-15.112 6.943-.129.002-.258.004-.386.004-11.322-.002-19.483-8.446-19.641-18.856"/></clipPath><clipPath id="m" clipPathUnits="userSpaceOnUse"><path d="M0 850.394h850.394V0H0Z"/></clipPath><clipPath id="n" clipPathUnits="userSpaceOnUse"><path d="m453.44 147.298 5.114-36.529 30.082 4.422-.727 5.261-24.957-3.678-1.561 11.158 12.122 1.776-.733 5.278-12.129-1.791-1.344 9.597 24.058 3.531-.742 5.263z"/></clipPath><clipPath id="o" clipPathUnits="userSpaceOnUse"><path d="M0 850.394h850.394V0H0Z"/></clipPath><clipPath id="p" clipPathUnits="userSpaceOnUse"><path d="m515.339 160.888-20.311-6.263 10.372-35.333 4.97 1.449-4.34 14.825 12.82 3.959 11.195-12.575 5.433 2.002-11.253 12.427c2.829 1.132 7.134 5.084 4.883 12.759-1.581 5.366-5.383 7.426-9.502 7.426-1.408 0-2.858-.241-4.267-.676m-13.862-9.825 15.352 4.738c2.862.876 6.136.813 7.314-3.194 1-3.443-.525-6.071-4.251-7.218l-15.353-4.742z"/></clipPath><clipPath id="q" clipPathUnits="userSpaceOnUse"><path d="M0 850.394h850.394V0H0Z"/></clipPath><clipPath id="r" clipPathUnits="userSpaceOnUse"><path d="m588.544 199.207 7.6-39.701 4.619 3.023-2.534 13.362 13.109 9.558 11.145-6.991 4.514 3.69-33.765 20.468zm5.995-3.723 11.881-7.101-9.238-6.734z"/></clipPath><clipPath id="s" clipPathUnits="userSpaceOnUse"><path d="M0 850.394h850.394V0H0Z"/></clipPath><clipPath id="t" clipPathUnits="userSpaceOnUse"><path d="m611.969 217.363 24.51-27.018 3.874 3.528-24.589 27.106z"/></clipPath><clipPath id="u" clipPathUnits="userSpaceOnUse"><path d="M0 850.394h850.394V0H0Z"/></clipPath><clipPath id="v" clipPathUnits="userSpaceOnUse"><path d="m644.431 251.819 20.35-18.753-.065-.068-34.671 2.441-3.472-3.952 26.857-24.771 3.639 3.804-20.603 18.992.065.079 35.035-2.456 3.101 3.957-26.769 24.685z"/></clipPath><clipPath id="w" clipPathUnits="userSpaceOnUse"><path d="M0 850.394h850.394V0H0Z"/></clipPath><clipPath id="x" clipPathUnits="userSpaceOnUse"><path d="m564.422 183.429-.779-26.158-21.121 14.709-4.643-2.415 15.756-33.203 4.705 2.16-10.905 23.597.087.049 20.923-14.534.8 25.884.096.047 12.249-22.942 4.499 2.59-17.049 32.632z"/></clipPath><clipPath id="y" clipPathUnits="userSpaceOnUse"><path d="M0 850.394h850.394V0H0Z"/></clipPath><clipPath id="z" clipPathUnits="userSpaceOnUse"><path d="M192.607 254.07c-1.695-1.288-2.71-3.014-3.004-5.118-.468-3.3.83-7.454 3.487-11.095l3.839-5.256c2.972-4.064 5.837-8.325 5.241-11.679-.233-1.354-.981-2.443-2.212-3.258-.677-.444-1.456-.669-2.322-.669-5.208 0-14.027 9.515-18.363 23.149l-.08.25-3.791-3.647-.072-.074.023-.088c.848-3.411 3.11-8.918 6.922-14.146 4.002-5.483 8.568-9.275 12.849-10.687 1.383-.455 2.736-.69 4.032-.69 1.875 0 3.537.495 4.803 1.447 2.088 1.56 3.321 3.549 3.66 5.901.644 4.354-1.619 10.103-6.705 17.066l-3.386 4.647c-2.707 3.707-2.591 6.123-2.014 7.49.504 1.2 1.586 2.03 2.814 2.183.189.016.385.022.586.022 6.178 0 14.934-10.504 17.209-18.652l.058-.208.175.112c1.287.756 2.778 1.632 3.693 2.163l.112.07-.035.116c-2.939 11.264-14.091 22.312-22.509 22.312-1.882 0-3.568-.561-5.01-1.661"/></clipPath><clipPath id="A" clipPathUnits="userSpaceOnUse"><path d="M0 850.394h850.394V0H0Z"/></clipPath><clipPath id="B" clipPathUnits="userSpaceOnUse"><path d="m365.575 130.607 12.834-2.892 1.157 5.247-12.814 2.957z"/></clipPath></defs><g clip-path="url(#a)" transform="matrix(1.33333 0 0 -1.33333 -18.956 1114.902)"><path d="M0 0c0-219.106-177.621-396.727-396.727-396.727-219.106 0-396.727 177.621-396.727 396.727 0 219.106 177.621 396.727 396.727 396.727C-177.621 396.727 0 219.106 0 0" style="fill:#fff;fill-opacity:1;fill-rule:nonzero;stroke:none" transform="translate(821.924 425.197)"/><path d="M0 0c-213.816 0-387.147 173.332-387.147 387.147 0 213.816 173.331 387.147 387.147 387.147 213.814 0 387.146-173.331 387.146-387.147C387.146 173.332 213.814 0 0 0m0 798.127c-226.979 0-410.98-184.001-410.98-410.98 0-226.977 184.001-410.98 410.98-410.98 226.977 0 410.979 184.003 410.979 410.98 0 226.979-184.002 410.98-410.979 410.98" style="fill:#2b5482;fill-opacity:1;fill-rule:nonzero;stroke:none" transform="translate(425.197 38.05)"/><path d="M0 0c-126.912 0-229.794 102.882-229.794 229.793 0 126.912 102.882 229.794 229.794 229.794 126.91 0 229.793-102.882 229.793-229.794C229.793 102.882 126.91 0 0 0m0 597.775c-203.232 0-367.982-164.75-367.982-367.982 0-203.23 164.75-367.981 367.982-367.981 203.23 0 367.981 164.751 367.981 367.981C367.981 433.025 203.23 597.775 0 597.775" style="fill:#2b5482;fill-opacity:1;fill-rule:nonzero;stroke:none" transform="translate(425.197 195.403)"/><path d="M0 0c-213.816 0-387.147 173.332-387.147 387.147 0 213.816 173.331 387.147 387.147 387.147 213.814 0 387.146-173.331 387.146-387.147C387.146 173.332 213.814 0 0 0m0 798.127c-226.979 0-410.98-184.001-410.98-410.98 0-226.977 184.001-410.98 410.98-410.98 226.977 0 410.979 184.003 410.979 410.98 0 226.979-184.002 410.98-410.979 410.98" style="fill:#0b3b6a;fill-opacity:1;fill-rule:nonzero;stroke:none" transform="translate(425.197 38.05)"/><path d="M0 0c-126.912 0-229.794 102.882-229.794 229.793 0 126.912 102.882 229.794 229.794 229.794 126.91 0 229.793-102.882 229.793-229.794C229.793 102.882 126.91 0 0 0m0 597.775c-203.232 0-367.982-164.75-367.982-367.982 0-203.23 164.75-367.981 367.982-367.981 203.23 0 367.981 164.751 367.981 367.981C367.981 433.025 203.23 597.775 0 597.775" style="fill:#0b3b6a;fill-opacity:1;fill-rule:nonzero;stroke:none" transform="translate(425.197 195.403)"/><path d="M0 0c0-116.603-94.525-211.127-211.127-211.127-116.603 0-211.128 94.524-211.128 211.127 0 116.603 94.525 211.127 211.128 211.127C-94.525 211.127 0 116.603 0 0" style="fill:#0b3b6a;fill-opacity:1;fill-rule:nonzero;stroke:none" transform="translate(636.324 425.197)"/><path d="M0 0c-107.25 82.666-158.708 203.333-158.708 309.333l-25.883 2.145.008.855-5.167-.428-5.166.428.008-.855-25.883-2.145c0-106-51.458-226.667-158.708-309.333l-.417-11.666 32-52.001 54-35.333 34.598-9.925c-6.649 9.985-19.139 31.676-19.139 53.788 0 53.75 50.25 83.417 87.416 83.417h2.583c37.166 0 87.416-29.667 87.416-83.417 0-21.614-11.94-42.841-18.688-53.109L-85.583-99l54 35.333 32 52.001z" style="fill:#fff;fill-opacity:1;fill-rule:nonzero;stroke:none" transform="translate(614.946 329.599)"/><path d="M0 0h-156.195c-37.575-64.26-82.566-101.191-98.297-112.894a212.234 212.234 0 0 1 63.863-62.624c-12.915 61.435 40.838 122.269 107.698 122.269h9.666c66.862 0 120.616-60.835 107.699-122.27a212.241 212.241 0 0 1 63.864 62.625C82.566-101.19 37.575-64.26 0 0m-57.24 213.239a213.618 213.618 0 0 1-20.857 1.026c-7.039 0-13.996-.353-20.858-1.026-.785-86.324-24.456-154.831-53.429-206.572H-3.812c-28.972 51.74-52.643 120.248-53.428 206.572" style="fill:#ed1c24;fill-opacity:1;fill-rule:nonzero;stroke:none" transform="translate(503.294 422.06)"/><path d="M0 0c1.854 0 1.813 3.375 1.813 3.375 0 4.771 5.75 13.75 5.75 13.75 5.666 8.5 6.916 14.563 6.916 18.042 0 8.082-10.144 30.146-11.541 33.062C1.542 71.145 0 70.958 0 70.958h-.625s-1.541.187-2.938-2.729c-1.395-2.916-11.541-24.98-11.541-33.062 0-3.479 1.25-9.542 6.916-18.042 0 0 5.75-8.979 5.75-13.75 0 0-.041-3.375 1.813-3.375z" style="fill:#c2a24e;fill-opacity:1;fill-rule:nonzero;stroke:none" transform="translate(425.509 261.394)"/><path d="M0 0c0 6.104 5.063 16.229 16.438 16.542 13.437.312 24.5-19.625 24.5-19.625s3.75-6.125 1.875-7.188c-1.875-1.062-5.563 3.625-5.563 3.625S28.063 5.209 22.396 5.209 15.979-.208 15.979-.208s-.416-3.584 3.75-4.417c4.167-.833 3.167-3.5 3.167-3.5s-1.417-6.083-9.167-6.083S0-5.583 0 0" style="fill:#c2a24e;fill-opacity:1;fill-rule:nonzero;stroke:none" transform="translate(375.509 272.102)"/><path d="M0 0c0 6.104-5.063 16.229-16.438 16.542-13.437.312-24.5-19.625-24.5-19.625s-3.75-6.125-1.875-7.188c1.875-1.062 5.563 3.625 5.563 3.625s9.187 11.855 14.854 11.855c5.666 0 6.416-5.417 6.416-5.417s.417-3.584-3.75-4.417c-4.166-.833-3.166-3.5-3.166-3.5s1.416-6.083 9.166-6.083S0-5.583 0 0" style="fill:#c2a24e;fill-opacity:1;fill-rule:nonzero;stroke:none" transform="translate(474.885 272.102)"/><path d="m0 0-.016.031c-.132 2.118-3.629 8.195-5.618 9.687-.242.211-.461.335-.644.335-.016 0-.035-.012-.051-.013-.017.001-.036.013-.052.013-.183 0-.402-.124-.644-.335-1.989-1.492-5.485-7.569-5.619-9.687A10.05 10.05 0 0 0-12.658 0l.01-.016c-.002-.026-.01-.06-.01-.085 0-2.278 4.757-8.409 6.278-8.409.015 0 .035.014.051.015.016-.001.035-.015.05-.015C-4.758-8.51 0-2.379 0-.101c0 .025-.008.059-.01.085L0 0" style="fill:#c2a24e;fill-opacity:1;fill-rule:nonzero;stroke:none" transform="translate(431.525 246.903)"/><path d="M0 0v-96.84c6.485.493 13.035.818 19.657.818h.011v29.443h24.658l21.264-33.625a254.968 254.968 0 0 0 24.819-5.776l-25.49 40.64c14.615 3.9 26.66 16.776 26.66 32.05C91.579-14.936 74.214 0 55.852 0Zm19.668-17.223h36.184c8.865 0 16.069-7.21 16.069-16.067 0-8.864-7.204-16.067-16.069-16.067H19.668Zm-126.646-6.201-7.268-110.341a256.173 256.173 0 0 0 20.16 11.127l1.038 25.719a277.816 277.816 0 0 0 41.49 14.485l16.948-19.447a255.233 255.233 0 0 0 22.686 3.843l-74.578 81.883a350.146 350.146 0 0 1-20.476-7.269m16.314-14.168 27.402-31.424a290.976 290.976 0 0 1-29.071-10.19zm199.465-74.444a257.224 257.224 0 0 0 18.623-7.757l37.401 89.948a354.482 354.482 0 0 1-18.668 7.684zm-309.058 41.127-40.548-44.626 70.641-64.375c4.422 4.854 9.076 9.493 13.852 13.993l-22.051 20.101 27.317 30.065c12.361 13.566 12.374 35.373-1.192 47.737-6.187 5.636-14.143 8.35-22.141 8.35-9.547 0-19.152-3.867-25.878-11.245m-14.566-41.677 26.513 29.092c5.974 6.55 16.14 7.029 22.698 1.054 6.553-5.962 7.023-16.153 1.048-22.693l-26.505-29.102zm409.834 41.532c-12.713-11.993-5.501-30.475 5.593-42.141l10.756-11.328c10.979-11.563 20.581-23.069 11.758-30.356-9.413-7.772-35.695 11.703-51.492 45.141l-14.159-10.683c3.384-8.798 11.005-21.538 21.253-32.315 11.61-12.229 24.255-20.181 35.583-22.413 8.899-1.747 17.77-.426 23.613 5.004 14.588 13.539 9.288 33.27-13.639 57.406l-9.514 10.012c-10.55 11.122-6.239 17.451-2.151 18.42 14.575 3.412 41.357-23.182 46.474-41.203 4.267 3.239 13.738 10.199 13.738 10.199-8.876 25.253-38.51 50.535-61.213 50.535-6.25 0-11.977-1.915-16.6-6.278" style="fill:#fff;fill-opacity:1;fill-rule:nonzero;stroke:none" transform="translate(404.437 770.559)"/></g><g clip-path="url(#b)" transform="matrix(1.33333 0 0 -1.33333 -18.956 1114.902)"><path d="m0 0 46.254-262.319-528.908-93.262-46.253 262.321z" style="fill:#fff;fill-opacity:1;fill-rule:nonzero;stroke:none" transform="translate(661.773 858.394)"/></g><g clip-path="url(#c)" transform="matrix(1.33333 0 0 -1.33333 -18.956 1114.902)"><path d="m0 0 4.125-3.882L16.31 2.059 28.565-8.617l-3.909-13.172 4.616-3.565L40.355 13.59l-4.383 3.817zm21.496 4.502 12.43 6.04-3.8-13.546z" style="fill:#fff;fill-opacity:1;fill-rule:nonzero;stroke:none" transform="translate(204.456 199.451)"/></g><g clip-path="url(#d)" transform="matrix(1.33333 0 0 -1.33333 -18.956 1114.902)"><path d="M204.456 216.858h40.355v-42.761h-40.355z" style="fill:#fff;fill-opacity:1;fill-rule:nonzero;stroke:none"/></g><g clip-path="url(#e)" transform="matrix(1.33333 0 0 -1.33333 -18.956 1114.902)"><path d="m0 0 4.332-2.918 20.177 31.359-4.338 2.914z" style="fill:#fff;fill-opacity:1;fill-rule:nonzero;stroke:none" transform="translate(244.786 165.985)"/></g><g clip-path="url(#f)" transform="matrix(1.33333 0 0 -1.33333 -18.956 1114.902)"><path d="M244.786 197.341h24.509v-34.273h-24.509z" style="fill:#fff;fill-opacity:1;fill-rule:nonzero;stroke:none"/></g><g clip-path="url(#g)" transform="matrix(1.33333 0 0 -1.33333 -18.956 1114.902)"><path d="m0 0 4.455-2.652 12.936 25.183.08-.041 6.289-35.42 4.553-2.123L45.04 17.66l-4.588 2.473-12.72-24.831-.086.042-6.24 35.023-4.589 2.474z" style="fill:#fff;fill-opacity:1;fill-rule:nonzero;stroke:none" transform="translate(263.696 153.752)"/></g><g clip-path="url(#h)" transform="matrix(1.33333 0 0 -1.33333 -18.956 1114.902)"><path d="M263.696 186.593h45.04v-47.894h-45.04z" style="fill:#fff;fill-opacity:1;fill-rule:nonzero;stroke:none"/></g><g clip-path="url(#i)" transform="matrix(1.33333 0 0 -1.33333 -18.956 1114.902)"><path d="m0 0 11.923-4.26L1.688-34.371l4.892-1.755L16.823-5.998l11.926-4.258 1.709 5.017L1.702 5.021Z" style="fill:#fff;fill-opacity:1;fill-rule:nonzero;stroke:none" transform="translate(316.91 162.065)"/></g><g clip-path="url(#j)" transform="matrix(1.33333 0 0 -1.33333 -18.956 1114.902)"><path d="M316.91 167.086h30.458V125.94H316.91Z" style="fill:#fff;fill-opacity:1;fill-rule:nonzero;stroke:none"/></g><g clip-path="url(#k)" transform="matrix(1.33333 0 0 -1.33333 -18.956 1114.902)"><path d="M0 0c-.201-12.542 9.716-19.446 19.319-19.614 9.028-.149 16.197 4.166 16.306 10.793L35.783.98l-16.512.269-.083-5.312 11.325-.187-.075-4.127c-.039-3.149-4.549-6.03-10.79-5.927-9.121.161-14.589 6.738-14.472 13.972.121 7.72 5.743 14.024 15.298 13.863 6.531-.114 9.257-3.549 11-5.341l3.665 3.719c-2.076 2.109-6.521 6.807-15.112 6.944l-.386.003C8.319 18.854.158 10.41 0 0" style="fill:#fff;fill-opacity:1;fill-rule:nonzero;stroke:none" transform="translate(407.246 128.018)"/></g><g clip-path="url(#l)" transform="matrix(1.33333 0 0 -1.33333 -18.956 1114.902)"><path d="M407.045 146.874h35.984v-38.619h-35.984z" style="fill:#fff;fill-opacity:1;fill-rule:nonzero;stroke:none"/></g><g clip-path="url(#m)" transform="matrix(1.33333 0 0 -1.33333 -18.956 1114.902)"><path d="m0 0 5.114-36.528 30.082 4.422-.726 5.259-24.957-3.676-1.561 11.158 12.122 1.775-.733 5.277-12.129-1.79-1.345 9.597L29.926-.975l-.742 5.263z" style="fill:#fff;fill-opacity:1;fill-rule:nonzero;stroke:none" transform="translate(453.44 147.298)"/></g><g clip-path="url(#n)" transform="matrix(1.33333 0 0 -1.33333 -18.956 1114.902)"><path d="M453.439 151.586h35.196V110.77h-35.196z" style="fill:#fff;fill-opacity:1;fill-rule:nonzero;stroke:none"/></g><g clip-path="url(#o)" transform="matrix(1.33333 0 0 -1.33333 -18.956 1114.902)"><path d="m0 0-20.311-6.263 10.373-35.333 4.969 1.45-4.341 14.825 12.821 3.959 11.195-12.576 5.434 2.002L8.886-19.509c2.83 1.133 7.135 5.084 4.884 12.759C12.188-1.384 8.387.677 4.268.677 2.858.677 1.409.436 0 0m-13.861-9.824L1.49-5.087c2.862.877 6.136.814 7.314-3.194 1-3.443-.525-6.071-4.25-7.218L-10.8-20.24Z" style="fill:#fff;fill-opacity:1;fill-rule:nonzero;stroke:none" transform="translate(515.339 160.888)"/></g><g clip-path="url(#p)" transform="matrix(1.33333 0 0 -1.33333 -18.956 1114.902)"><path d="M495.028 161.564h40.45v-42.272h-40.45z" style="fill:#fff;fill-opacity:1;fill-rule:nonzero;stroke:none"/></g><g clip-path="url(#q)" transform="matrix(1.33333 0 0 -1.33333 -18.956 1114.902)"><path d="m0 0 7.6-39.701 4.619 3.023-2.533 13.362 13.108 9.558 11.145-6.991 4.514 3.69L4.688 3.409Zm5.995-3.724 11.881-7.1-9.237-6.735z" style="fill:#fff;fill-opacity:1;fill-rule:nonzero;stroke:none" transform="translate(588.544 199.207)"/></g><g clip-path="url(#r)" transform="matrix(1.33333 0 0 -1.33333 -18.956 1114.902)"><path d="M588.544 202.616h38.453v-43.11h-38.453z" style="fill:#fff;fill-opacity:1;fill-rule:nonzero;stroke:none"/></g><g clip-path="url(#s)" transform="matrix(1.33333 0 0 -1.33333 -18.956 1114.902)"><path d="m0 0 24.511-27.017 3.873 3.528L3.795 3.616Z" style="fill:#fff;fill-opacity:1;fill-rule:nonzero;stroke:none" transform="translate(611.969 217.362)"/></g><g clip-path="url(#t)" transform="matrix(1.33333 0 0 -1.33333 -18.956 1114.902)"><path d="M611.969 220.979h28.384v-30.633h-28.384z" style="fill:#fff;fill-opacity:1;fill-rule:nonzero;stroke:none"/></g><g clip-path="url(#u)" transform="matrix(1.33333 0 0 -1.33333 -18.956 1114.902)"><path d="m0 0 20.351-18.754-.066-.067-34.671 2.441-3.471-3.952L8.999-45.104l3.64 3.804-20.603 18.992.065.079 35.034-2.456 3.101 3.957L3.468 3.958Z" style="fill:#fff;fill-opacity:1;fill-rule:nonzero;stroke:none" transform="translate(644.43 251.82)"/></g><g clip-path="url(#v)" transform="matrix(1.33333 0 0 -1.33333 -18.956 1114.902)"><path d="M626.573 255.777h48.094v-49.062h-48.094z" style="fill:#fff;fill-opacity:1;fill-rule:nonzero;stroke:none"/></g><g clip-path="url(#w)" transform="matrix(1.33333 0 0 -1.33333 -18.956 1114.902)"><path d="m0 0-.779-26.157L-21.9-11.448l-4.643-2.415 15.756-33.204 4.705 2.16-10.905 23.597.088.049L4.023-35.795l.8 25.885.096.047 12.249-22.943 4.499 2.59L4.618 2.416Z" style="fill:#fff;fill-opacity:1;fill-rule:nonzero;stroke:none" transform="translate(564.422 183.429)"/></g><g clip-path="url(#x)" transform="matrix(1.33333 0 0 -1.33333 -18.956 1114.902)"><path d="M537.879 185.845h48.21v-49.483h-48.21z" style="fill:#fff;fill-opacity:1;fill-rule:nonzero;stroke:none"/></g><g clip-path="url(#y)" transform="matrix(1.33333 0 0 -1.33333 -18.956 1114.902)"><path d="M0 0c-1.696-1.288-2.71-3.015-3.004-5.118-.469-3.3.829-7.454 3.487-11.095l3.838-5.256c2.972-4.064 5.837-8.325 5.242-11.679-.233-1.355-.981-2.444-2.213-3.258-.677-.444-1.455-.669-2.321-.669-5.209 0-14.028 9.514-18.363 23.149l-.081.249-3.791-3.646-.072-.074.024-.088c.847-3.411 3.109-8.918 6.921-14.147 4.002-5.482 8.569-9.274 12.85-10.686 1.383-.455 2.735-.691 4.031-.691 1.876 0 3.538.495 4.803 1.447 2.088 1.56 3.321 3.549 3.661 5.902.643 4.354-1.619 10.102-6.705 17.065l-3.386 4.648C2.213-10.24 2.33-7.824 2.907-6.458c.504 1.201 1.586 2.03 2.814 2.184.188.016.384.022.586.022 6.178 0 14.934-10.505 17.209-18.652l.057-.208.176.112c1.286.756 2.777 1.632 3.692 2.163l.113.069-.034.117C24.58-9.388 13.428 1.661 5.01 1.661 3.127 1.661 1.441 1.1 0 0" style="fill:#fff;fill-opacity:1;fill-rule:nonzero;stroke:none" transform="translate(192.607 254.07)"/></g><g clip-path="url(#z)" transform="matrix(1.33333 0 0 -1.33333 -18.956 1114.902)"><path d="M175.33 255.731h44.832v-44.67H175.33Z" style="fill:#fff;fill-opacity:1;fill-rule:nonzero;stroke:none"/></g><g clip-path="url(#A)" transform="matrix(1.33333 0 0 -1.33333 -18.956 1114.902)"><path d="m0 0 12.835-2.893 1.157 5.247L1.177 5.312Z" style="fill:#fff;fill-opacity:1;fill-rule:nonzero;stroke:none" transform="translate(365.574 130.607)"/></g><g clip-path="url(#B)" transform="matrix(1.33333 0 0 -1.33333 -18.956 1114.902)"><path d="M365.574 135.919h13.992v-8.204h-13.992z" style="fill:#fff;fill-opacity:1;fill-rule:nonzero;stroke:none"/></g></svg>