<svg height="256.494588" viewBox="0 0 76.174 49.673" width="389.871774" xmlns="http://www.w3.org/2000/svg" xmlns:xlink="http://www.w3.org/1999/xlink"><clipPath id="a"><path d="m94.67 0h747.67v481h-747.67z" height="100%" width="100%"/></clipPath><g stroke-width="10.07" transform="matrix(.099306 0 0 .099306 -8.3842 1.3075)"><path clip-path="url(#a)" d="m832.46 204.35c-20.78-10.17-56.92-21.89-56.92-21.89-1.55-.41-4.67-1.43-4.67-1.43s1.58-2.34 2.03-4.09c1.25-4.49 1-9.72-1.9-11.35 0 0 15.77.87 19.19-.46 9.7-3.78 13.42-16.79 10.01-26-1.78-4.82-9.37-7.84-10.93-11.87-1.48-3.82-2.45-6.82-6.51-8.88-6.55-3.31-23.14-6.21-30.44-5.57-6.16.54-7.34 7.65-11.15 9.29-15.23 6.56-22.02 3.48-21.87 26.21 0 0 0 1.07.17 1.97-5.51-2.67-19.29-9.42-25.67-12.26v-137.55h-450.6v137.54c-6.38 2.84-20.16 9.59-25.67 12.26.17-.9.17-1.97.17-1.97.15-22.73-6.65-19.65-21.87-26.21-3.8-1.64-4.99-8.75-11.15-9.29-7.3-.63-23.88 2.26-30.44 5.57-4.06 2.06-5.03 5.06-6.51 8.88-1.55 4.03-9.15 7.05-10.93 11.87-3.41 9.21.31 22.22 10.01 26 3.42 1.33 19.19.46 19.19.46-2.9 1.63-3.15 6.87-1.9 11.35.45 1.74 2.03 4.09 2.03 4.09s-3.13 1.03-4.67 1.43c0 0-36.14 11.73-56.93 21.89 0 0-24.92 11.71 5.98 9.47 1.5 0 24.66-1.79 48.82-5.38l-.15 1.36c-.03 7.81 1.67 7.77 8.16 10l-.21 1.44c-8.14 1.65-24.32 3.26-29.95 7.03-6.17 4.13-23.03.93-33.15 14.71-2.66 3.62-7.09 14.61-4.49 18.19 4.27 5.84 28.71 14.39 31.9 14.46 7.64.17 8.42-6.09 13.81-9.8 2.59-1.79 5.69-.59 8.56-1.34 4.32-1.15 6.72-5.08 10.52-7.06 2.22-1.14 6.98-2.24 10.01-.47 13.42 8.26 54.56-2.22 68.84-10.66v74.53c0 26.53 3.37 36.68 11.43 50.71l.67 1.1c45.85 68.57 123.56 107.89 213.2 107.9 89.65 0 167.28-39.22 212.99-107.59l.69-1.07c8.2-14.28 11.62-24.53 11.62-51.05v-74.52c14.28 8.44 55.42 18.92 68.84 10.66 3.03-1.77 7.79-.67 10.01.47 3.8 1.97 6.2 5.91 10.53 7.06 2.87.76 5.97-.45 8.56 1.34 5.39 3.7 6.18 9.96 13.81 9.8 3.19-.07 27.63-8.62 31.9-14.46 2.61-3.58-1.82-14.58-4.49-18.19-10.11-13.77-26.98-10.58-33.15-14.71-5.63-3.76-21.81-5.38-29.95-7.03l-.21-1.44c6.49-2.24 8.19-2.19 8.16-10l-.15-1.36c24.16 3.59 47.32 5.38 48.82 5.38 30.93 2.24 6-9.47 6-9.47z" fill="#fff"/><path d="m446.52 269.57c-23.97 0-46.32-6.89-65.23-18.75 20.23 25.96 51.76 42.67 87.22 42.67 42.29 0 79.02-23.76 97.6-58.65l-.13-.04c-2.18-.6-5.43-1.88-9.19-3.36-4.22-1.66-11.91-4.69-14.53-5-.5.29-1.43 1.04-2.13 1.61-1.22.99-2.74 2.19-4.62 3.38-22.41 23.48-53.98 38.14-88.99 38.14z" fill="#dadada"/><path d="m789.78 152.11c1.33-1.97 1.35-5.61.32-7.74-1.19-2.44-4.83-3.17-7.13-4.02-2.88.62.32 3.14-2.16 4.23l-5.57-.72c-3.5-3.62 3.82-3.12 4.23-5.06.6-2.81-2.05-5.4-.31-8.16-.3-.67-.71-1.38-1.45-1.65-2.87-1.03-20.02-5.13-22.39-4.96l-.72.83c.69.95 3.58 3.58 3.71 3.82 1.14 2.07-6.56 3.55-7.84 3.82-6.16 1.3-22.64 3.28-20.22 13 1.13 4.58 17.51 16.21 19.5 21.25.43 1.09 2.57 3.36 1.14 4.34-3.01 2.05-18.17-.69-18.99 1.66.85 3.17 9.87 5.57 12.8 6.7 3.46 1.32 6.67 2.31 10.31.52 4.08-2 6.73-7.4 5.99-11.87-.35-2.05-2.56-7.07-3.82-8.77-1.19-1.58-11.15-9.47-8.36-10.53 3.36 1.07 7.95.11 10.32 3.3 6.27 1.78 12.98 2.87 19.4 4.03 4.12.75 8.81-.4 11.24-4.02zm-137.25 77.39c.52-1.14.73-2.58.11-3.82-.52-.51-1.03-1.13-1.86-1.24-2.89.63-5.78 1.96-9.08 1.14-3.01 0-7.85-2.69-9.19 1.34-.52 2.58-1.97 4.75-2.59 7.23 0 1.34 1.24 2.58 2.47 3.2 1.86.41 4.13 1.44 5.78 1.13 3.1-2.17 2.89-6.09 5.98-8.35 1.66.41 1.86 2.69 3.72 2.48 1.88-.22 3.74-1.35 4.66-3.11zm75.24-47.98c.53-2.92-2.76-3.39-4.75-4.03-4.77-1.55-9.51-3.05-14.33-4.42-3.53-1.01-7.09-2.89-10.64-3.62-4.48-.93-8.02-1.02-11.15-4.96l.72-.42c4.24 1.69 11.05 5.33 15.49 2.38 2.1-1.41 4.3-5.17 3.3-7.73-.75-1.93-3.12-2.19-4.75-2.9-6.95-3.03-13.77-6.76-20.56-10.15-14.36-7.15-28.69-14.37-43-21.63-6.51-3.3-13.9-7.1-21.05-8.66-5.83-1.27-12.46.34-17.54 3.4-5.03 3.03-4.91 10.16-8.67 9.4-.54-.6-.99-1.34-.93-2.17-1.52-2.41-6.27 4.36-10.11 6.29-8.58 4.31-23.63 20.77-29.82 28.59-3.91 4.93-5.47 11.24-6.91 17.23l.83 1.13c1.88.45 3.61-.32 5.26-1.13 1.56.4 1.42 2.37 2.27 3.5 6.26 8.43 22.89 3.53 31.99 6.6.13.56 0 1.06-.62 1.13-4.07.52-9.47-.33-13.65-.44-9.62-.25-19.25-.37-28.87-.9l-1.14.62c-.89 1.97-6.18 13.31-7.02 14.23-1.29 1.42-3.19 2.51-4.56 4.04-3.73 4.17-6.44 9.22-11.12 12.47-1.4.97-4.22 1.51-4.85 3.09l.72.83c14.22 1.16 15.66-13.76 25.18-17.12.52.1.72.66.61 1.14-2.36 2.36-4.91 5.76-6.39 8.76-5.56 11.26-9.52 7.83-14.86 13.01l.83 1.24c15.73-.46 18.6-9.31 23.73-10.02 4.38-.62 20.79 7.07 26.21 8.57 2.72.75 5.4 1.68 8.27 1.63.96-.02 2.25-.53 3.08-.49 2.11.07 2.52 3.82 7.13 1.65 2.77-1.31 2.95-5.26 3.3-7.95.42-3.23-3.59-5.99-3.3-7.74.4-2.48 3.51.84 4.22-1.34.43-1.31-1.18-3.95-1.96-4.95-2.07-2.65-7.92-7.18-7.12-11.04.08-.37 1.18-1.18 1.55-1.13l19.09 2.37c.66.08 3.57 6.85 3.61 7.53.05 1.03-2.73 8.01-3.3 9.39-1.6 3.79-4.38 6.55-4.34 10.94.05 5.38 3.68 10.39 6.4 14.85 3 4.95 7.81 2.59 12.18 4.02 1.79.6 3.72 1.83 5.48 2.62 5.54 2.42 11.75 4.94 17.63 6.37 3.22.78 8.21-.3 10.11-3.3 1.39-2.2-3.3-2.86-1.23-5.27 1.1-1.28 2.47-1.2 4.02-1.03 3.31.37 20.3 2.43 22.08.52.6-.64-.3-1.5-.82-1.76-3.43-1.65-8.72-2.45-12.49-3.5-4.55-1.29-9.27-1.61-13.83-3-3.88-1.19-3.63 2.78-6.4 4.54-4.17 2.67-15.36-2.65-16.72-7.44-1.3-4.6 2.89-10.42 5.88-13.51 2.35-2.44 5.22-2.79 7.54-4.65 1.47-1.18.42-3.51.41-5.05 2.29-2.87 10.91 1.7 14.44.73 3.82-1.06.97-6.12 4.24-7.12 2.88.81 5.14 2.89 7.95 3.92 2.08.76 5.75 1.15 7.12 2.99 1.09 1.47-.03 3.5-.31 5.05 1.01 1.91 4.22 2.51 6.19 2.79 3.18.46 6.63.27 9.87.62 3.22.34 6.46 1.26 9.63 1.55l10.74 1.03c2.59 1.24-.63 3.46 1.75 8.46-2.55-.37-13.04-3.5-14.24 0 9.26 8.63 30.27 14.73 42.72 16.51 7.62 1.09 15.68.84 23.32.21 1.15-.09 2.17-.28 2.86-.88.02.05 4.09-3.39 6.28-3.04 2.99.5 6.48 6.23 12.7 8.61 4.24 2.39 8.26-1.75 11.56.11 4.04 2.28 6.56 13.78 12.99 11.97 1.3-.37 6.89-2.3 7.65-3.05 2.12-1.74-1.46-6.32-3.3-9.38-.66-.94-1.11-1.64-1.89-1.84-7.48-1.91-3.95-10.44-14.64-12.47-4.81-.9-6-1.3-10.83-2.2-1.3-.25-4.25.4-4.4-1.47-.03 0 .8-.9.8-.9l8.56-.2-.2-1.13c-13.71-1.72-27.15-5.62-40.86-7.24-1.03-.6-2.33-3.77-2.17-4.74.41-2.5 4.36 2.15 6.4-2.79 1.19-2.86-1.67-5.31.62-6.71 6.02.77 12.04 1.53 18.06 2.38-34.03-8.12-68.36-14.93-102.38-23-7.37-1.75-14.92-2.91-22.18-5.16l.11-.82c30.02 4.2 59.74 11.45 89.88 14.65v-.72c-16.67-3.18-33.16-7.42-49.85-10.43-24.87-4.47-49.94-8.2-74.92-12.03-16.3-2.5-32.87-5.54-49.31-6.95l-.52 1.13c1.1 1.35 2.64 1.98 4.13 2.79.21.33.23.77-.1 1.03-2.1-.22-11.45.38-11.46-1.85 3.48-3.3 4.33-5.02 9.38-4.54 7.87.73 15.8 1.89 23.64 2.88 45.15 5.79 90.63 11.84 135.49 19.61 47.31 8.19 72.34 11.85 111.22 19.33-13.21-4.74-72.77-21.43-103.18-26.67-1.39-.26-3.2-.03-3.88-1.65zm-11.15 53.04c2.37.2 3.65.15 6.75.78 5.06 1.04 10.11 1.44 15.26 2.89.83.31 1.73 1.48 1.83 2.3-.31.52-1.05.66-1.46.66l-20.12-5.15zm-111.04-8.26 5.57-13.1c.21-.93 1.14-1.86 2.07-1.75 1.24.41 2.79.62 3.2 2.06l-4.75 10.22c-3.31 4.34-.93 10.32.21 14.65-.11.62-.73.94-1.25 1.04-3.29-3.32-6.29-7.96-5.05-13.12zm-42.4-9.17c-1.27.95-3.5.42-5.09.21-1.92-1.06-2.34-3.28-2.56-5.41 0-.52.11-1.06.64-1.49 2.23 0 4.46.54 5.95 2.34.64 1.38 1.81 2.86 1.06 4.35zm67.7-53.5 2.77 1.28s-40.85-5.78-60.57-8.67c-.83-.1-3.39-.35-2.96-1.8.51-.31 1.13-.52 1.75-.41zm10.52-18.23-.42.42c-10.43-2.02-21.14-4.48-31.37-7.32-.79-.22-2.61-.37-2.38-1.54 3.75-.72 20.88 3.8 25.18 5.25 1.91.65 3.04.2 4.96 0 1.46.91 2.94 1.83 4.03 3.19zm-357.04 80.28c-.62 1.24-.41 2.69.11 3.82.92 1.75 2.78 2.89 4.64 3.1s2.06-2.07 3.72-2.48c3.09 2.27 2.89 6.19 5.98 8.35 1.65.31 3.92-.72 5.78-1.13 1.23-.62 2.47-1.86 2.47-3.2-.62-2.47-2.07-4.64-2.59-7.23-1.33-4.03-6.18-1.34-9.19-1.34-3.3.82-6.18-.51-9.08-1.14-.81.11-1.32.74-1.84 1.25zm140.34-2.38.72-.83c-.62-1.59-3.44-2.12-4.85-3.09-4.68-3.24-7.39-8.3-11.12-12.47-1.37-1.53-3.28-2.62-4.56-4.04-.84-.93-6.12-12.26-7.02-14.23l-1.14-.62c-9.61.53-19.25.64-28.87.9-4.17.11-9.57.96-13.65.44-.62-.07-.76-.57-.62-1.13 9.1-3.07 25.73 1.83 31.99-6.6.86-1.14.72-3.11 2.28-3.5 1.65.81 3.38 1.58 5.26 1.13l.83-1.13c-1.44-5.99-3.01-12.3-6.91-17.23-6.19-7.82-21.25-24.27-29.82-28.59-3.85-1.93-8.59-8.7-10.11-6.29.07.83-.39 1.57-.93 2.17-3.76.76-3.65-6.36-8.67-9.4-5.08-3.06-11.71-4.67-17.54-3.4-7.15 1.56-14.55 5.37-21.05 8.66-14.31 7.26-28.64 14.48-43 21.63-6.79 3.39-13.61 7.12-20.56 10.15-1.63.71-4 .97-4.75 2.9-1 2.56 1.2 6.33 3.3 7.73 4.44 2.95 11.25-.69 15.49-2.38l.72.42c-3.13 3.94-6.67 4.03-11.15 4.96-3.55.74-7.1 2.61-10.64 3.62-4.82 1.37-9.56 2.88-14.33 4.42-2 .64-5.29 1.11-4.75 4.03-.69 1.62-2.49 1.39-3.91 1.64-30.41 5.23-89.97 21.93-103.18 26.67 38.88-7.48 63.91-11.14 111.22-19.33 44.86-7.77 90.33-13.82 135.49-19.61 7.85-1 15.77-2.16 23.64-2.88 5.06-.47 5.9 1.25 9.38 4.54-.01 2.23-9.36 1.63-11.46 1.85-.33-.26-.31-.7-.1-1.03 1.49-.8 3.03-1.43 4.13-2.79l-.52-1.13c-16.44 1.4-33.01 4.45-49.31 6.95-24.99 3.83-50.05 7.56-74.92 12.03-16.69 3.01-33.18 7.25-49.85 10.43v.72c30.14-3.2 59.86-10.44 89.88-14.65l.11.82c-7.26 2.25-14.81 3.41-22.18 5.16-34.02 8.08-68.35 14.88-102.38 23 6.02-.85 12.04-1.6 18.06-2.38 2.29 1.4-.57 3.85.62 6.71 2.04 4.94 5.99.29 6.4 2.79.16.97-1.14 4.14-2.17 4.74-13.71 1.62-27.15 5.51-40.86 7.24l-.2 1.13 8.56.2s.83.9.8.9c-.15 1.87-3.1 1.22-4.4 1.47-4.83.9-6.01 1.3-10.83 2.2-10.69 2.03-7.16 10.56-14.64 12.47-.77.2-1.23.9-1.89 1.84-1.83 3.05-5.42 7.64-3.3 9.38.77.75 6.35 2.68 7.65 3.05 6.44 1.81 8.96-9.69 12.99-11.97 3.3-1.86 7.32 2.28 11.56-.11 6.22-2.38 9.71-8.11 12.7-8.61 2.19-.35 6.27 3.09 6.29 3.04.69.6 1.71.79 2.86.88 7.64.63 15.71.89 23.32-.21 12.45-1.78 33.46-7.87 42.72-16.51-1.21-3.5-11.69-.37-14.25 0 2.38-5-.83-7.22 1.75-8.46l10.74-1.03c3.17-.3 6.41-1.22 9.63-1.55 3.24-.34 6.7-.16 9.87-.62 1.97-.29 5.18-.88 6.19-2.79-.28-1.55-1.4-3.59-.31-5.05 1.37-1.83 5.04-2.22 7.12-2.99 2.81-1.03 5.07-3.1 7.95-3.92 3.26.99.41 6.05 4.24 7.12 3.53.97 12.15-3.6 14.44-.73-.01 1.54-1.06 3.88.41 5.05 2.31 1.86 5.18 2.21 7.54 4.65 2.99 3.1 7.18 8.92 5.88 13.51-1.35 4.79-12.55 10.11-16.72 7.44-2.76-1.76-2.52-5.73-6.4-4.54-4.56 1.39-9.28 1.71-13.83 3-3.77 1.05-9.07 1.84-12.49 3.5-.52.26-1.42 1.12-.82 1.76 1.77 1.92 18.77-.15 22.08-.52 1.55-.17 2.93-.25 4.02 1.03 2.07 2.41-2.62 3.07-1.23 5.27 1.9 2.99 6.89 4.07 10.11 3.3 5.88-1.42 12.09-3.94 17.63-6.37 1.76-.78 3.69-2.02 5.48-2.62 4.36-1.43 9.17.93 12.18-4.02 2.72-4.46 6.35-9.47 6.4-14.85.05-4.39-2.74-7.15-4.34-10.94-.57-1.38-3.35-8.36-3.3-9.39.04-.68 2.95-7.45 3.61-7.53l19.09-2.37c.37-.05 1.47.76 1.55 1.13.8 3.86-5.05 8.39-7.12 11.04-.78.99-2.39 3.64-1.96 4.95.71 2.18 3.82-1.13 4.22 1.34.3 1.76-3.71 4.51-3.3 7.74.34 2.69.53 6.64 3.3 7.95 4.61 2.18 5.02-1.58 7.13-1.65.82-.04 2.12.47 3.08.49 2.87.04 5.55-.89 8.27-1.63 5.42-1.49 21.83-9.18 26.21-8.57 5.13.71 8 9.56 23.73 10.02l.83-1.24c-5.35-5.17-9.3-1.75-14.87-13.01-1.48-3-4.03-6.4-6.39-8.76-.11-.48.09-1.04.61-1.14 9.55 3.38 10.99 18.29 25.21 17.13zm-204.32 11.26-2.26 1.49-20.12 5.15c-.41 0-1.15-.15-1.46-.66.1-.83 1-1.99 1.83-2.3 5.15-1.45 10.21-1.86 15.26-2.89 3.1-.64 4.38-.59 6.75-.79zm111.04-8.26c1.24 5.17-1.76 9.8-5.05 13.11-.52-.1-1.14-.42-1.25-1.04 1.14-4.33 3.52-10.31.21-14.65l-4.75-10.22c.42-1.44 1.97-1.65 3.2-2.06.94-.1 1.86.82 2.07 1.75zm-1.65-89.35c.23 1.17-1.59 1.33-2.38 1.54-10.23 2.84-20.94 5.3-31.37 7.32l-.42-.42c1.09-1.36 2.57-2.28 4.02-3.2 1.92.2 3.05.65 4.96 0 4.31-1.44 21.44-5.96 25.19-5.24zm34.15 19.29c-19.72 2.89-60.57 8.67-60.57 8.67l2.77-1.28 59.01-9.6c.62-.11 1.24.1 1.75.41.43 1.44-2.13 1.7-2.96 1.8zm17.55 55.69c-.22 2.13-.64 4.36-2.56 5.41-1.59.21-3.82.74-5.09-.21-.75-1.48.42-2.97 1.06-4.35 1.48-1.8 3.71-2.34 5.95-2.34.53.42.64.96.64 1.49zm-174.71-66.42c2.41-9.73-14.06-11.71-20.22-13-1.28-.27-8.98-1.75-7.84-3.82.13-.24 3.03-2.86 3.71-3.82l-.72-.83c-2.37-.18-19.52 3.93-22.39 4.96-.74.27-1.14.98-1.45 1.65 1.74 2.76-.91 5.35-.31 8.16.41 1.94 7.73 1.44 4.23 5.06l-5.57.72c-2.49-1.09.72-3.6-2.17-4.23-2.3.85-5.94 1.57-7.13 4.02-1.03 2.13-1.01 5.76.32 7.74 2.43 3.62 7.12 4.77 11.25 4.03 6.42-1.16 13.12-2.25 19.4-4.03 2.37-3.19 6.95-2.23 10.32-3.3 2.8 1.06-7.17 8.95-8.36 10.53-1.26 1.69-3.47 6.71-3.82 8.77-.74 4.48 1.92 9.87 5.99 11.87 3.64 1.79 6.86.8 10.31-.52 2.93-1.12 11.95-3.53 12.8-6.7-.82-2.35-15.98.39-18.99-1.66-1.43-.97.71-3.25 1.13-4.34 2-5.05 18.38-16.69 19.51-21.26zm-75.91 93.26c-.52-1.63-10.7.18-11.26 2.15-.82 2.89 7.64 6.69 11.26-2.15zm-22.78 17.71c.21.32 1.4.9 1.93 1.23 2.16 1.16 4.21 3.22 5.65 1.36.75-.95 4.74-7.82 5.48-10.42.31-1.05-.4-2.54-2.89-2.64h-.5c-6.48.65-8.54 6.24-9.67 10.47zm709.34-15.56c-.57-1.97-10.75-3.78-11.26-2.15 3.62 8.84 12.08 5.04 11.26 2.15zm-1.54 7.74c.75 2.59 4.74 9.47 5.48 10.42 1.44 1.86 3.49-.2 5.65-1.36.53-.33 1.72-.91 1.93-1.23-1.13-4.23-3.19-9.82-9.67-10.47h-.5c-2.49.09-3.19 1.59-2.89 2.64z" fill="#dd0741"/><path d="m681.93 320.83v-66.25h-12.36v66.25c0 23.53-2.73 29.07-8.2 38.63-41.86 62.6-112.63 96.82-192.87 96.82s-151-34.22-192.85-96.82c-5.48-9.56-8.21-15.1-8.21-38.63v-66.38h-12.37v66.38c0 25.01 3 32.86 9.86 44.8l.45.72c45.73 68.4 121.67 102.32 203.13 102.32 81.47 0 157.4-33.92 203.14-102.32l.44-.72c6.84-11.93 9.84-19.78 9.84-44.8zm-306.47-186.72c5.95-13.25 12.43-24.59 15.74-30.12-8.99 8.8-16.49 19.11-22.07 30.53 1.17 1 2.35 2.04 3.54 3.14.92-1.18 1.84-2.37 2.79-3.55zm191.22 260.44 20.54-12.88-4.63-7.39-12.86 8.07-18.43-57.95-4.43-7.09-20.54 12.88 4.63 7.39 12.86-8.07 18.43 57.94zm-10.12-249.52c-10.8-7.5-26.84-15.46-26.84-15.46-11.41 16.07-20.9 35.93-20.9 35.93 5.62 11.74 14.03 24.99 18.65 33.18 6.22-9.12 8.77-17.72 12.64-30.05 2.82-8.96 6.61-13.8 16.45-23.6zm-95.01 20.92s-13.79-21.96-28.22-38.34c0 0-30.4 13.56-41.6 19.39l-.5 8.3c.17.56 4.19 6.34 5.88 12.62l3.41 10.87c.4 1.23.77 2.34.77 2.34.76 2.23 1.81 5 3.08 7.86 1.15 2.6 2.48 5.29 3.95 7.74 1.17 1.96 2.62 3.75 4.34 5.25.05.04.09.08.14.12 1.53 1.33 3.34 2.28 5.3 2.82 5.26 1.46 11.17 3.01 17.6 4.56 0 0 19.18-30.59 25.85-43.53zm6.95-93.52c-12.46 0-24.43 2.09-35.61 5.9l21.03 16.6s25.67-2.43 48.73.53c3.29-5.45 4.99-10.04 5.83-12.92 24.36 11.53 43.63 32 53.67 57.15 1.9-1.83 3.82-3.57 5.71-5.17-17.96-36.76-55.7-62.09-99.36-62.09zm142.66 291.29 6.18-6.13-53.17-53.6-.33-.34-6.18 6.14 53.17 53.6zm4.34-58.6 21.06 13.28-3.63 5.77-49.5-31.22 3.64-5.77 6.67 4.21 4.65-7.37-4.31-2.72a12.039 12.039 0 0 0 -6.44-1.86c-4.22 0-8.06 2.11-10.28 5.64-3.56 5.65-1.86 13.15 3.79 16.73l44.8 28.24c1.93 1.22 4.16 1.86 6.44 1.86 4.22 0 8.06-2.11 10.29-5.64 3.56-5.65 1.85-13.16-3.81-16.73l-26.08-16.45-6.44 10.21 7.38 4.65zm-89.1 105.71-9.82-32.15 6.97-2.13a8.2 8.2 0 0 0 4.87-4.01 8.191 8.191 0 0 0 .59-6.29l-7.55-24.72c-1.07-3.5-4.23-5.85-7.87-5.85-.82 0-1.63.12-2.42.36l-15.31 4.68 22.05 72.19.14.45zm-12.38-40.5-7.27-23.81 6.52-1.99 7.27 23.81zm-22.86 47.52-6.58-75.69-8.68.76 6.58 75.69zm-32.83-7.41-15.42-1.83 2.93-24.73 11.57 1.38 1.03-8.66-11.57-1.38 2.93-24.73 15.42 1.83 1.03-8.66-15.89-1.89c-4.59-.55-8.62 2.75-9.15 7.22l-7.01 59.06c-.54 4.51 2.7 8.62 7.21 9.16l15.89 1.89zm10.17-116.95c42.29 0 79.02-23.76 97.6-58.65l-.13-.04c-2.18-.6-5.43-1.88-9.19-3.36-.17-.07-.37-.14-.54-.21-9.64 17.31-23.87 31.72-41.14 41.43l-8.81-24.78-47.86 1.3-18.74 26.29s7.84 5.89 21.9 10.86c-23.14-.24-44.47-7.86-61.86-20.56.57-.49 1.13-1 1.58-1.5 0 0-12.97-18.67-20.9-32.91-.06.03-.14.06-.2.08-3.76 1.48-7.01 2.76-9.19 3.36l-.13.04c18.59 34.89 55.32 58.65 97.61 58.65zm-51.34 110.4-14.68-5.06 21.93-63.57-8.23-2.84-24.78 71.81 22.92 7.9zm-51.8-56.6c.37.05.7.07 1.03.07 1.9 0 3.52-.84 5.08-2.66l15.5-17.99a8.167 8.167 0 0 0 1.99-5.99 8.178 8.178 0 0 0 -2.84-5.63l-12.12-10.45-49.6 57.56 12.12 10.45c1.5 1.29 3.41 2 5.38 2 2.4 0 4.68-1.05 6.25-2.87l14.89-17.28c2.35-2.74 3.1-5.01 2.32-7.21zm-6.8-.46-.21.24-16.47 19.11-5.64-4.87 16.67-19.35zm5.24-6.57-5.16-4.45 16.26-18.86 5.16 4.45zm-37.53-28.58 3.91 5.59-22.6 15.82c-1.72 1.21-2.99 3.24-3.75 4.74l-.13.26 5.2 7.42.36-.72c.85-1.74 1.65-3.39 3.32-4.56l20.49-14.34c2.97-2.08 4.24-4.09 4.03-6.41.71.28 1.51.5 2.41.5 1.33 0 2.69-.49 4.14-1.51l19.45-13.62a8.157 8.157 0 0 0 3.4-5.32c.38-2.16-.1-4.35-1.37-6.16l-9.18-13.11-62.23 43.57 4.99 7.13zm6.69-5.07.26-.18 20.66-14.46 4.27 6.11-.26.18-20.66 14.46zm336.61-179.78 12.37 5.75v-120.24h-426.87v120.13l12.37-5.8v-101.94h402.13z" fill="#001f47"/></g></svg>