<svg xmlns="http://www.w3.org/2000/svg" width="429.58pt" height="513.14pt" version="1.2" viewBox="0 0 429.58 513.14"><defs><clipPath id="b"><path d="M352 120.47h135V281H352z"/></clipPath><clipPath id="a"><path d="M0 0h712v61H0z"/></clipPath></defs><g stroke-width=".3111"><path fill="#fff" d="m426.302 309.488-.1-.729-4.17-4.42c-37.164-40.343-54.67-80.096-52.021-118.154 3.365-48.506 39.325-78.252 39.679-78.541l4.909-3.93-27.16-67.226-8.462 5.198c-.239.138-24.573 14.703-58.599 14.703-35.786 0-69.273-15.381-99.546-45.718l-5.952-5.964-5.94 5.964c-30.273 30.336-63.76 45.718-99.546 45.718-34.166 0-58.348-14.552-58.589-14.69L42.33 36.45 17.53 97.887l-2.335 5.814 4.871 3.93c.352.3 36.326 29.984 39.692 78.54 2.687 38.698-15.42 79.103-53.829 120.113l-2.423 2.624.201 2.084c-.113.942 13.02 100.614 103.729 124.471 78.553 20.656 99.871 56.918 100.06 57.255l7.296 13.486 7.458-13.436c.201-.364 21.572-36.49 100.1-57.306 46.155-12.242 71.91-44.5 85.38-69.412 14.177-26.18 19.024-52.999 18.572-56.567"/><g fill="#1961b5"><path d="m159.732 348.318 12.882 10.798-8.764 10.422-12.895-10.786-3.19 3.792 29.834 24.974 3.19-3.792-13.637-11.414 8.777-10.434 13.624 11.414 3.189-3.792-29.821-24.974zM272.204 221.927l3.189-3.792-3.629-3.05-3.202 3.791zM220.162 298.944c2.085-2.473 4.244-3.54 10.322 1.545l-6.831 8.124c-5.751-4.884-5.299-7.521-3.49-9.668m18.77 2.787-3.126 3.717c2.01 1.883 2.863 4.633.917 6.943-2.21 2.637-4.683 3.24-10.51-1.645l9.845-11.702-1.783-1.482c-6.894-5.776-11.402-7.031-16.399-1.092-6.065 7.207-1.62 12.13 4.495 17.252 9.216 7.71 13.485 5.312 17.19.904 3.679-4.37 3.968-8.977-.628-12.895M235.784 275.19c-2.247 2.674-2.825 4.86-1.582 8.15l-.138.175-2.674-2.248-3.026 3.579a59.955 59.955 0 0 1 4.507 3.428l16.537 13.837 2.837-3.378-12.342-10.346c-2.863-2.386-5.713-5.688-2.6-9.405 2.436-2.875 4.91-2.135 7.145-.276L258.9 290.81l2.85-3.378-14.464-12.104c-4.132-3.465-7.748-4.595-11.502-.138M277.7 226.17l20.869 17.466 2.837-3.378-20.856-17.478zM269.407 240.41c2.072-2.473 4.244-3.54 10.309 1.545l-6.831 8.123c-5.738-4.884-5.286-7.52-3.478-9.668m18.771 2.8-3.126 3.704c2.009 1.884 2.863 4.646.917 6.944-2.21 2.65-4.684 3.24-10.522-1.632l9.856-11.715-1.783-1.482c-6.893-5.776-11.414-7.031-16.398-1.092-6.065 7.22-1.62 12.142 4.495 17.252 9.216 7.723 13.485 5.324 17.189.904 3.679-4.37 3.955-8.965-.628-12.882M252.467 255.357c-2.285 2.712-2.938 4.834-1.645 8.237l-.138.163-11.652-9.756-2.838 3.378 29.821 24.974 2.85-3.378-12.28-10.27c-3.503-2.939-5.5-6.09-2.662-9.468 2.424-2.888 4.935-2.185 7.496-.05l14.139 11.828 2.837-3.378-14.791-12.38c-4.708-3.943-8.15-3.453-11.137.1M300.458 198.302c-1.595 1.896-2.737 4.168-1.482 7.194-2.548-.803-5.173.716-6.767 2.612-2.047 2.436-2.75 4.872-1.357 7.722l-.075.088-2.599-2.185-3.013 3.591c1.544 1.08 3.063 2.21 4.507 3.428l16.524 13.837 2.85-3.39-14.05-11.753c-.779-.665-1.883-1.858-2.398-3.352-.364-1.143.188-3.064 1.054-4.094 2.286-2.724 4.722-1.67 6.818.088l14.465 12.104 2.85-3.377-14.05-11.765c-.79-.653-2.712-2.55-2.712-4.232.026-1.52.289-1.934 1.369-3.202 2.285-2.724 4.708-1.682 6.818.088l14.464 12.104 2.838-3.378-15.858-13.284c-4.922-4.118-8.363-1.03-10.196 1.155M202.772 320.449l-2.561-2.147-3.528 4.206-3.554-2.976c-1.695-1.419-2.712-3.315.553-6.692l-2.436-2.047c-.502.427-.879.804-1.47 1.507-2.536 3-4.206 6.667.014 10.196l4.043 3.39-2.7 3.214 2.562 2.147 2.7-3.214 18.306 15.318 2.838-3.377-18.295-15.331zM212.416 308.973l-2.562-2.147-3.54 4.207-3.554-2.976c-1.695-1.42-2.7-3.315.565-6.693l-2.436-2.046c-.502.427-.892.803-1.482 1.506-2.524 3.014-4.194 6.668.013 10.196l4.056 3.39-2.713 3.215 2.575 2.147 2.7-3.214 18.306 15.318 2.838-3.378-18.307-15.318zM200.683 355.26c-2.95 3.504-6.115 2.336-12.895-3.34-5.7-4.77-5.45-7.583-3.265-10.183 2.185-2.599 4.922-3.327 10.623 1.444 6.768 5.676 8.488 8.576 5.537 12.08m-1.117-14.415c-6.115-5.123-11.74-8.639-17.805-1.42-6.077 7.208-1.62 12.13 4.495 17.253 9.216 7.71 13.485 5.312 17.19.904 3.716-4.42 5.336-9.028-3.88-16.737"/></g><g clip-path="url(#b)" transform="translate(-1133.1 -387.33) scale(3.2144)"><path fill="#1961b5" d="M478.44 233.89c-4.094 7.57-11.918 17.371-25.918 21.086-24.844 6.586-31.707 18.199-31.781 18.324l-1.402 2.531-1.383-2.554c-.067-.118-6.926-11.77-31.762-18.301-26.883-7.07-31.29-36.125-31.492-37.703v-.004l-.031-.305.433-.469c12.156-12.977 17.883-25.812 17.023-38.145-1.086-15.645-12.617-25.074-12.73-25.168l-.922-.742 7.7-19.074 1.597.992c.078.047 7.86 4.719 18.766 4.719 11.414 0 22.082-4.887 31.7-14.523l1.12-1.121 1.118 1.12c9.617 9.638 20.285 14.524 31.695 14.524 10.867 0 18.695-4.676 18.777-4.727l1.59-.976 7.699 19.07-.93.746c-.117.093-11.648 9.68-12.727 25.16-.84 12.137 4.695 24.766 16.465 37.543l1.058 1.117c.008 1.437-1.597 9.371-5.664 16.879m7.711-17.234-.07-.563-1.52-1.613c-11.363-12.332-16.715-24.438-15.914-35.984 1.008-14.539 11.86-23.613 11.961-23.695l2.125-1.703-9.195-22.766-3.668 2.254c-.07.043-7.48 4.426-17.699 4.426-10.844 0-21.016-4.684-30.23-13.918l-2.582-2.59-2.586 2.59c-9.215 9.234-19.39 13.918-30.234 13.918-10.254 0-17.617-4.375-17.68-4.418l-3.683-2.277-8.176 20.254-1.012 2.52 2.11 1.702c.109.09 10.957 9.11 11.969 23.703.812 11.734-4.727 24.043-16.48 36.594l-1.063 1.156.11 1.106h.011c.129 1.437 1.375 8.89 5.637 17.066 4.234 8.121 12.418 18.62 27.387 22.559 23.766 6.25 30.43 17.219 30.48 17.305l3.168 5.86 3.226-5.817c.067-.11 6.735-11.047 30.512-17.348 14.715-3.903 22.918-14.172 27.211-22.102 4.364-8.07 6.086-16.7 5.887-18.22"/></g><g fill="#1961b5"><path d="M254.942 154.296c-2.511-2.109-5.487-2.348-7.596.164-2.461 2.925-1.017 5.964 1.18 7.797.992.841 4.784 3.516 7.797-.062 2.574-3.052.653-6.203-1.38-7.898M227.363 210.934c-2.6-2.185-5.801-1.557-7.635.628-2.009 2.386-1.657 5.638.779 7.684 2.938 2.449 6.14 1.407 7.797-.565 1.47-1.732 2.286-5.047-.941-7.747M234.98 178.019c-2.523-2.11-5.486-2.336-7.608.175-2.461 2.926-1.005 5.965 1.18 7.798.992.829 4.796 3.516 7.81-.063 2.561-3.05.64-6.203-1.381-7.91M207.53 201.194c-1.733 2.06-1.746 4.935.44 6.756 2.02 1.695 4.934 1.682 6.842-.59 1.758-2.11 1.846-5.048-.464-6.994-2.348-1.971-5.186-1.105-6.818.829"/><path d="M271.657 176.283c-1.356 1.607-7.496 8.902-15.055 2.574l5.236-6.228c1.87 1.293 3.892 1.08 5.337-.653 3.616-4.281-.578-8.35-4.646-11.552.126 3.629-1.306 5.575-2.386 6.856-5.927 7.056-13.07 4.156-16.499 1.293-5.374-4.495-6.24-11.752-.891-18.106 8.312-9.894 17.943-2.247 22.563 1.62 12.192 10.208 12.192 17.227 6.341 24.196m-19.977 23.743c-1.343 1.608-7.483 8.903-15.042 2.574l5.236-6.227c1.87 1.293 3.88 1.08 5.336-.653 3.604-4.294-.577-8.35-4.646-11.552.126 3.616-1.318 5.587-2.385 6.855-5.927 7.057-13.071 4.157-16.5 1.294-5.373-4.495-6.24-11.766-.903-18.106 8.324-9.895 17.943-2.26 22.576 1.62 12.192 10.208 12.192 17.227 6.328 24.195m-19.286 22.765c-4.922 5.85-12.08 6.755-16.712 2.875-2.223-1.871-3.114-4.08-3.265-6.316-.188-2.549.515-4.219 1.042-5.6-1.67 1.067-6.278 4.03-10.735.289-3.516-2.938-5.6-9.668.301-16.675 4.847-5.776 11.514-7.006 16.022-3.24 3.465 2.914 3.578 7.635 1.57 10.95 1.305-.88 3.427-2.411 6.855-2.135 2.248.188 4.006 1.105 5.412 2.285 5.286 4.42 4.256 11.929-.49 17.566M214.98 242.58l-22.439-18.785c-.087 1.96-.615 5.6-1.97 9.807l-5.74-4.81a52.401 52.401 0 0 0 2.073-11.262l4.47-5.324 28.841 24.146zm-29.608 36.538c-5.713 6.805-10.321 8.927-14.603 9.342-6.077.602-11.35-2.763-14.49-5.387-10.572-8.852-10.685-20.19-3.089-29.218 3.215-3.83 7.622-6.894 12.28-6.994 3.943-.076 6.391 1.77 8.049 3.076l-5.588 6.642c-.816-.615-1.92-1.469-3.704-1.695-3.026-.427-5.336 1.645-6.516 3.039-6.102 7.257-.54 14.377 4.055 18.219 2.022 1.695 5.902 4.445 10.095 4.231 2.901-.1 5.475-1.318 8.45-4.859 2.6-3.089 3.127-4.482 3.517-5.349l-6.278-5.26-4.86 5.775-4.96-4.156 10.234-12.154 14.917 12.48c-.942 2.374-2.474 6.291-7.509 12.268m-27.448 32.722c-9.605 11.414-17.026 5.35-19.952 2.964l5.475-6.504c1.406 1.167 5.6 4.809 10.208-.666 2.913-3.465 3.089-7.031.578-9.14-2.65-2.223-4.659-.742-8.765 2.284-7.734 5.613-13.108 7.723-18.27 3.39-4.909-4.118-6.302-11.25.666-19.537 2.6-3.089 6.38-6.165 11.062-6.04 3.579.114 5.965 2.11 6.957 2.939l-5.161 6.152c-1.105-.79-4.897-3.39-8.601 1.017-2.499 2.964-2.511 6.253-.075 8.288 2.762 2.322 5.097.552 9.781-2.838 5.575-4.118 11.238-8.011 17.064-3.127 5.374 4.495 5.964 12.582-.967 20.819m-24.861 28.138-24.912-20.856-7.458 8.865-4.96-4.144 20.316-24.158 4.96 4.156-7.459 8.852 24.912 20.856zM382.907 50.393l-3.05 1.544c-8.275 4.17-30.625 13.875-59.467 13.875-37.204 0-71.96-15.344-103.314-45.606l-2.172-2.11-2.198 2.11c-31.34 30.26-66.094 45.606-103.3 45.606-28.93 0-51.232-9.706-59.467-13.875l-3.051-1.544-20.329 50.337 1.607 1.482c8.827 8.099 37.87 38.071 41.01 83.31 2.837 40.846-15.57 83.048-54.732 125.462l-1.055 1.155.276 1.532c2.411 13.423 16.223 74.51 70.605 102.848L386.738 59.881z"/></g></g></svg>