<svg xmlns="http://www.w3.org/2000/svg" xml:space="preserve" width="522.38428" height="609.44861" viewBox="0 0 522.38427 609.4486"><g style="stroke-width:.717829"><g style="stroke-width:.717829"><path d="M0 0h-29.015l-56.3 54.979-15.032-16.271-27.626 28.297-28.379-27.36-14.279 15.334L-226.031 0h-29.915c-4.19 0-7.587-3.403-7.587-7.601v-23.311c0-1.474.017-6.539.017-8.001v-86.143a7.6 7.6 0 0 1 2.785-5.885 7.58 7.58 0 0 1 6.31-1.565 634 634 0 0 0 26.503 4.792c4.97-24.657 14.544-47.073 28.513-66.731l.006-.007a163 163 0 0 1 3.026-4.135 177 177 0 0 1 2.749-3.532l.156-.197q.206-.26.414-.518a177 177 0 0 1 2.665-3.233q.26-.308.526-.617l.198-.231a173 173 0 0 1 3.311-3.762c.703-.775 1.44-1.572 2.194-2.373q.588-.627 1.183-1.25c.808-.841 1.609-1.659 2.383-2.434a182 182 0 0 1 5.739-5.478l.201-.184q.313-.286.628-.57a171 171 0 0 1 6.405-5.487l.14-.114.072-.058a171 171 0 0 1 4.484-3.519l.026-.02a176.6 176.6 0 0 1 26.866-16.757c2.725-1.378 5.334-2.048 7.975-2.048s5.243.668 7.952 2.043c9.62 4.883 18.722 10.553 27.053 16.853.849.641 1.715 1.309 2.576 1.986l.052.042.035.027a172 172 0 0 1 2.466 1.98l.109.089c.814.667 1.636 1.354 2.437 2.036l.057.049a169 169 0 0 1 20.71 21.062l.055.067.018.021c.662.805 1.329 1.63 1.981 2.453l.085.107.043.055c.638.806 1.276 1.629 1.897 2.444l.058.075.077.102c.632.831 1.262 1.676 1.874 2.512l.034.047.057.077a183 183 0 0 1 1.922 2.682 182 182 0 0 1 7.274 11.22c10.047 16.835 17.143 35.385 21.139 55.237a634 634 0 0 0 26.572-4.803 7.577 7.577 0 0 1 6.31 1.565 7.6 7.6 0 0 1 2.785 5.885v86.143c0 1.419.017 6.527.017 8.001v23.311C7.587-3.403 4.19 0 0 0" style="fill:#002749;fill-opacity:1;fill-rule:nonzero;stroke:none;stroke-width:.717829" transform="matrix(1.85745 0 0 -1.85745 498.896 133.872)"/></g><g style="stroke-width:.717829"><path d="M0 0c0-1.474-.017-6.582-.017-8.001v-86.143a7.61 7.61 0 0 0-2.785-5.885 7.58 7.58 0 0 0-6.311-1.565 634 634 0 0 1-26.572 4.803c-3.995-19.852-11.091-38.401-21.139-55.237a181 181 0 0 0-7.274-11.219l-.006-.01a183 183 0 0 0-1.916-2.673l-.056-.077-.035-.047a172 172 0 0 0-1.874-2.512l-.077-.102-.057-.075c-.621-.815-1.26-1.637-1.898-2.444l-.043-.054-.085-.108a168 168 0 0 0-1.998-2.474l-.055-.067a169 169 0 0 0-20.71-21.062l-.058-.049c-.8-.682-1.622-1.368-2.437-2.036l-.109-.089a167 167 0 0 0-2.465-1.979l-.035-.028-.053-.042c-.86-.676-1.727-1.345-2.575-1.986-8.331-6.3-17.433-11.97-27.053-16.853-2.709-1.375-5.311-2.043-7.953-2.043-2.641 0-5.249.67-7.975 2.049a176.5 176.5 0 0 0-26.865 16.757l-.026.019c-1.5 1.137-3.01 2.322-4.484 3.52l-.072.057-.141.114a171 171 0 0 0-6.405 5.487q-.315.284-.627.57l-.202.184a168 168 0 0 0-4.208 3.971c-.513.501-1.026 1.002-1.53 1.507-.774.775-1.575 1.593-2.383 2.434q-.596.624-1.184 1.25a175 175 0 0 0-3.111 3.393c-.773.867-1.556 1.763-2.394 2.743l-.198.23q-.265.31-.525.617a177 177 0 0 0-3.079 3.752l-.157.196a184 184 0 0 0-2.749 3.532c-.504.667-1.029 1.374-1.552 2.09-.453.617-.921 1.267-1.474 2.045l-.005.007c-13.97 19.658-23.544 42.074-28.513 66.731a634 634 0 0 1-26.503-4.792 7.575 7.575 0 0 0-6.31 1.565 7.6 7.6 0 0 0-2.785 5.885v86.143c0 1.462-.017 6.527-.017 8.001v23.311c0 4.198 3.396 7.601 7.587 7.601h29.915l55.4 54.979 14.279-15.334 28.379 27.36 27.625-28.297 15.032 16.271 56.3-54.979h29.016c4.19 0 7.587-3.403 7.587-7.601Zm-7.587 35.98h-26.958l-54.827 53.54a5.06 5.06 0 0 1-3.531 1.439l-.13-.002a5.05 5.05 0 0 1-3.582-1.624l-11.421-12.362-23.908 24.49a5.04 5.04 0 0 1-3.617 1.524 5.04 5.04 0 0 1-3.507-1.416l-24.677-23.792-10.774 11.571a5.06 5.06 0 0 1-3.599 1.61l-.1.001a5.05 5.05 0 0 1-3.56-1.468L-235.7 35.98h-27.833c-6.973 0-12.646-5.684-12.646-12.669V0c0-.741.005-2.386.009-4.028.004-1.624.008-3.246.008-3.973v-86.143c0-3.817 1.692-7.393 4.642-9.808a12.66 12.66 0 0 1 8.004-2.861c.843 0 1.688.085 2.514.253a627 627 0 0 0 21.563 3.983c5.349-23.48 14.866-44.954 28.326-63.895l.016-.021a167 167 0 0 1 3.105-4.242 184 184 0 0 1 2.826-3.632l.154-.193q.214-.271.433-.542a178 178 0 0 1 3.278-3.955l.21-.246a178 178 0 0 1 3.404-3.867 181 181 0 0 1 5.93-6.236c.518-.519 1.046-1.035 1.574-1.551q.656-.64 1.313-1.267a181 181 0 0 1 3.021-2.822l.2-.182a175.144 175.144 0 0 1 7.249-6.244l.151-.123.08-.064a175 175 0 0 1 4.605-3.614l.027-.02a181.5 181.5 0 0 1 27.636-17.239c3.449-1.745 6.804-2.593 10.255-2.593 3.456 0 6.805.848 10.239 2.591 9.885 5.017 19.244 10.847 27.814 17.328.87.658 1.762 1.346 2.651 2.045l.066.052.027.021c.846.667 1.7 1.353 2.537 2.037l.11.091c.839.686 1.684 1.392 2.512 2.098l.051.043a174 174 0 0 1 21.341 21.702l.06.073v.001l.015.018c.686.834 1.373 1.683 2.04 2.525l.091.115.035.044c.666.843 1.323 1.69 1.959 2.524l.061.08.072.095c.65.856 1.299 1.725 1.933 2.591l.032.044.051.069a191 191 0 0 1 1.988 2.775 186 186 0 0 1 7.478 11.534c9.52 15.951 16.484 33.445 20.732 52.063a626 626 0 0 0 21.633-3.994 12.6 12.6 0 0 1 2.513-.253c2.909 0 5.752 1.016 8.004 2.861a12.63 12.63 0 0 1 4.642 9.808v86.143c0 .7.004 2.302.008 3.92.005 1.659.009 3.335.009 4.081v23.311c0 6.985-5.673 12.669-12.645 12.669" style="fill:#c9a970;fill-opacity:1;fill-rule:nonzero;stroke:none;stroke-width:.717829" transform="matrix(1.85745 0 0 -1.85745 512.99 191.29)"/></g><g style="stroke-width:.717829"><path d="M0 0s3.993-2.542.799-8.788l-4.278-7.329s-2.68-5.373-.653-9.733c0 0 .943-1.596 1.521-1.886 0 0 .872-.144.148 1.45 0 0-2.395 4.796 1.817 10.891 0 0 4.272 6.102 4.207 7.843 0 0 .212 1.672.065 2.615 0 0 3.85-1.16 3.2-7.409 0 0-.149-3.337-4.135-8.497 0 0-1.48-2.437 0-4.352 0 0 .935-1.018.725.36 0 0 .287 2.979 2.754 6.245 0 0 3.121 4.142 2.467 8.136 0 0 4.276-4.501 2.101-12.926 0 0-2.323-9.297-12.762-7.699 0 0-10.37 1.455-8.558 15.248 0 0 .954 5.101 6.267 8.803C-4.315-7.028-.36-3.202 0 0" style="fill:#fff;fill-opacity:1;fill-rule:nonzero;stroke:none;stroke-width:.717829" transform="matrix(1.85745 0 0 -1.85745 260.711 462.026)"/></g><g style="stroke-width:.717829"><path d="M0 0s-3.265-7.987 3.619-14.888c0 0-7.245.434-7.532 9.218 0 0 .287 4.218 3.913 5.67" style="fill:#fff;fill-opacity:1;fill-rule:nonzero;stroke:none;stroke-width:.717829" transform="matrix(1.85745 0 0 -1.85745 238.502 488.863)"/></g><g style="stroke-width:.717829"><path d="M0 0s3.258-7.987-3.627-14.888c0 0 7.247.434 7.539 9.218 0 0-.292 4.218-3.912 5.67" style="fill:#fff;fill-opacity:1;fill-rule:nonzero;stroke:none;stroke-width:.717829" transform="matrix(1.85745 0 0 -1.85745 283.89 488.863)"/></g><g style="stroke-width:.717829"><path d="M0 0s.657.801 2.389.801c0 0 1.455.067 1.236-1.169l-1.014-7.55s-4.417.656-6.957 5.156c0 0 .069.733 1.086.659 0 0 2.539 1.809-.433 3.48 0 0-1.523 1.017-3.482-1.232l-8.333-10.166 3.119-.073 4.852 5.808s1.018.508 1.018-.434l-11.452-13.876 3.334.075 9.784 11.185s.726.513.576-.29l-13.335-16.261 3.404-.077L-1.956-9.585s1.015.508.872-.436l-14.86-17.792 3.335-.145L1.739-10.961s1.017.354.725-.585l-16.958-20.407 3.335-.142L5.59-12.13s1.008.725 1.88 0l16.684-19.965 3.254.07-16.965 20.697s-.143.652.724.367l14.575-17.147 3.191.15L14.001-9.805s-.072.799.726.583l12.612-14.597 3.117-.068L17.044-7.626s-.289 1.163 1.016.579l9.713-11.474 3.188.221L19.582-4.72s-.14.872.799.58l5.002-5.733h2.973L19.442.801s-2.398 2.176-4.28-.512c0 0-.656-1.379 1.089-2.177 0 0 1.234-.07.723-1.235 0 0-1.304-2.541-5.293-4.503 0 0-1.238-.65-1.672.873L7.91 1.159s.214.654.721.873l1.089.725-3.263.149-1.522-.945s-.723-.584-1.162.796c0 0-2.464.802-3.478-.576C.295 2.181-.217.868 0 0" style="fill:#fff;fill-opacity:1;fill-rule:nonzero;stroke:none;stroke-width:.717829" transform="matrix(1.85745 0 0 -1.85745 249.129 437.474)"/></g><g style="stroke-width:.717829"><path d="m0 0-3.502-4.04H1.51v-2.145h-8.43v1.962l4.73 5.47c.613.715.846 1.247.846 1.978 0 1.131-.548 1.812-1.544 1.812-.995 0-1.56-.664-1.56-1.812v-.482h-2.655v.482c0 2.178 1.493 3.974 4.215 3.974s4.199-1.796 4.199-3.974C1.311 1.879.996 1.147 0 0" style="fill:#fff;fill-opacity:1;fill-rule:nonzero;stroke:none;stroke-width:.717829" transform="matrix(1.85745 0 0 -1.85745 277.556 543.824)"/></g><g style="stroke-width:.717829"><path d="M0 0v10.608l-2.821-1.28v2.361l3.203 1.463h2.273V0Z" style="fill:#fff;fill-opacity:1;fill-rule:nonzero;stroke:none;stroke-width:.717829" transform="matrix(1.85745 0 0 -1.85745 289.146 555.313)"/></g><g style="stroke-width:.717829"><path d="m0 0-3.502-4.04H1.51v-2.145h-8.43v1.962l4.73 5.47c.613.714.846 1.247.846 1.978 0 1.131-.548 1.812-1.544 1.812-.995 0-1.56-.664-1.56-1.812v-.482h-2.655v.482c0 2.178 1.493 3.974 4.215 3.974s4.199-1.796 4.199-3.974C1.311 1.879.996 1.147 0 0" style="fill:#fff;fill-opacity:1;fill-rule:nonzero;stroke:none;stroke-width:.717829" transform="matrix(1.85745 0 0 -1.85745 241.5 543.823)"/></g><g style="stroke-width:.717829"><path d="M0 0c.315-.449.73-.648 1.311-.648.565 0 .98.199 1.312.648.431.632.563 1.779.563 4.007 0 2.211-.132 3.358-.563 3.99-.332.449-.747.648-1.312.648-.581 0-.996-.199-1.311-.648-.431-.632-.564-1.779-.564-3.99C-.564 1.779-.431.632 0 0m4.465-1.563C3.751-2.394 2.689-2.81 1.311-2.81s-2.439.416-3.153 1.247c-.946 1.081-1.377 2.727-1.377 5.57 0 2.826.431 4.472 1.377 5.553.714.831 1.776 1.247 3.153 1.247s2.44-.416 3.154-1.247c.929-1.081 1.377-2.727 1.377-5.553 0-2.843-.448-4.489-1.377-5.57" style="fill:#fff;fill-opacity:1;fill-rule:nonzero;stroke:none;stroke-width:.717829" transform="matrix(1.85745 0 0 -1.85745 251.271 550.524)"/></g><g style="stroke-width:.717829"><path d="m0 0-4.338 2.198-.145.073-.114.115-8.672 8.711-.096.097-.067.119-1.5 2.649L-25.269 22l-.107.084-.081.108-4.19 5.578-5.32 4.984-1.217-1.14-1.325-2.002-.127-.192-.197-.118-2.157-1.293L-42.529 24l-.13-.205-.209-.124-4.882-2.894-2.367-2.217-.51-.479-.628.31-2.746 1.357-.151.075-.119.119-4.903 4.937-2.9 2.593-4.944 2.897-.179.105-.123.167-6.546 8.876-4.748 4.449-7.772-9.479-.061-.074-.074-.062-7.707-6.432-.148-.124-.183-.06-2.386-.787-4.833-5.302-3.379-5.288-.774-1.21-.878 1.136-5.006 6.476-4.982 2.918-.158.093-.116.142-5.396 6.639-11.887-14.156-.303-.361h-4.299l-8.262-9.308-.05-.057-.059-.048L-157.526.11l-7.73-9.633 9.921 4.794 10.501 7.25 7.219 8.604.134.16.187.094 4.149 2.082 9.999 9.369.692.647.69-.647 4.619-4.327 3.846-1.747.37-.168.151-.379 1.713-4.288.345-.864-.83-.418-5.944-2.996-3.022-6.192-.049-.099-.068-.086-4.284-5.404 6.61 1.896 4.608 6.849.143.213.228.119 10.047 5.24 4.138 6.216.081.122.113.094 5.139 4.289.028.024.031.022 5.91 4.227 8.386 9.124.598.652.725-.507 3.961-2.769.138-.096.099-.136 4.631-6.324 6.172-4.939.129-.104.09-.139 2.169-3.371 7.848-5.108.111-.072.089-.098 4.976-5.525 3.378-1.609.21-.1.146-.183 4.752-5.948 6.173-2.349-2.616 4.177-.021.034-.019.036-3.362 6.443-1.769 1.891-3.018 2.166-.198.142-.112.216-1.1 2.132-.351.681.559.524 3.28 3.074.112.104.136.067 2.76 1.346 1.169 2.312.081.159.13.123 1.741 1.631.642.601.684-.553 2.931-2.37.14-.113.093-.154 2.125-3.548 5.64-3.607 4.008-2.563.205-.131.123-.21 2.061-3.517 8.722-6.923.113-.09.084-.118 2.289-3.24 7.109-2.837.012-.005.011-.004 6.95-2.98-2.888 3.778z" style="fill:#c9a970;fill-opacity:1;fill-rule:nonzero;stroke:none;stroke-width:.717829" transform="matrix(1.85745 0 0 -1.85745 406.976 116.961)"/></g><path d="M430.968 341.5H175.022v-23.311h255.946z" style="fill:#c9a970;fill-opacity:1;fill-rule:nonzero;stroke:none;stroke-width:.717829" transform="matrix(1.85745 0 0 -1.85745 -301.606 782.311)"/><g style="stroke-width:.717829"><path d="M0 0c2.813 0 4.423-1.545 4.505-4.09H1.57C1.529-3.009 1.037-2.367 0-2.367c-1.079 0-1.639-.574-1.639-3.323 0-2.667.492-3.351 1.707-3.351 1.024 0 1.611.697 1.652 1.805H.041v1.956h4.451v-5.923H2.389l-.259 1.191c-.369-.849-1.338-1.382-2.54-1.382-2.84 0-4.191 2.174-4.191 5.704C-4.601-2.202-3.318 0 0 0" style="fill:#002749;fill-opacity:1;fill-rule:nonzero;stroke:none;stroke-width:.717829" transform="matrix(1.85745 0 0 -1.85745 64.998 159.058)"/></g><path d="M211.969 324.339h-2.963v11.012h2.963z" style="fill:#002749;fill-opacity:1;fill-rule:nonzero;stroke:none;stroke-width:.717829" transform="matrix(1.85745 0 0 -1.85745 -301.606 782.311)"/><g style="stroke-width:.717829"><path d="m0 0-1.871 4.98V0H-4.71v11.012h2.744l3.045-8.084 3.045 8.084h2.73V0h-2.84v4.98L2.144 0Z" style="fill:#002749;fill-opacity:1;fill-rule:nonzero;stroke:none;stroke-width:.717829" transform="matrix(1.85745 0 0 -1.85745 114.21 179.868)"/></g><g style="stroke-width:.717829"><path d="M0 0c.778.889 1.925 1.327 3.399 1.327 2.813 0 4.424-1.546 4.506-4.09H4.97C4.929-1.682 4.437-1.04 3.399-1.04c-.532 0-.901-.177-1.187-.588-.342-.492-.451-1.245-.451-2.735 0-1.519.109-2.257.451-2.764.286-.41.655-.588 1.187-.588 1.038 0 1.543.657 1.571 1.723h2.935c-.082-2.543-1.693-4.075-4.506-4.075-1.474 0-2.621.437-3.399 1.326-.902 1.026-1.202 2.49-1.202 4.378 0 1.86.3 3.337 1.202 4.363" style="fill:#002749;fill-opacity:1;fill-rule:nonzero;stroke:none;stroke-width:.717829" transform="matrix(1.85745 0 0 -1.85745 142.192 161.523)"/></g><g style="stroke-width:.717829"><path d="M0 0h-2.362v-4.46h-2.963V6.552h2.963V2.367H0v4.185h2.963V-4.46H0Z" style="fill:#002749;fill-opacity:1;fill-rule:nonzero;stroke:none;stroke-width:.717829" transform="matrix(1.85745 0 0 -1.85745 179.708 171.584)"/></g><g style="stroke-width:.717829"><path d="M0 0h7.155v-2.353H2.963v-1.833h3.632v-2.366H2.963v-2.121h4.274v-2.339H0Z" style="fill:#002749;fill-opacity:1;fill-rule:nonzero;stroke:none;stroke-width:.717829" transform="matrix(1.85745 0 0 -1.85745 198.584 159.413)"/></g><g style="stroke-width:.717829"><path d="M0 0c-.287.41-.669.588-1.201.588-.533 0-.902-.178-1.188-.588-.342-.492-.451-1.259-.451-2.736 0-1.504.109-2.257.451-2.763.286-.41.655-.588 1.188-.588s.914.178 1.201.588c.328.506.437 1.259.437 2.763C.437-1.259.328-.492 0 0m2.212-7.113C1.434-8.002.273-8.44-1.201-8.44c-1.475 0-2.622.438-3.4 1.327-.901 1.026-1.202 2.49-1.202 4.377 0 1.861.301 3.338 1.202 4.364.778.889 1.925 1.326 3.4 1.326s2.635-.437 3.413-1.326C3.099.602 3.399-.875 3.399-2.736c0-1.887-.3-3.351-1.187-4.377" style="fill:#002749;fill-opacity:1;fill-rule:nonzero;stroke:none;stroke-width:.717829" transform="matrix(1.85745 0 0 -1.85745 235.389 164.546)"/></g><g style="stroke-width:.717829"><path d="M0 0v-6.019h-2.854V4.993H0l2.731-6.032v6.032h2.853V-6.019H2.731Z" style="fill:#002749;fill-opacity:1;fill-rule:nonzero;stroke:none;stroke-width:.717829" transform="matrix(1.85745 0 0 -1.85745 260.023 168.688)"/></g><g style="stroke-width:.717829"><path d="M0 0c-2.676 0-4.137 1.395-4.137 3.338v.218h2.95V3.31c0-.643.395-1.081 1.187-1.081s1.188.438 1.188 1.081-.369 1.026-1.42 1.231l-.833.178c-1.884.369-3.167 1.382-3.167 3.392 0 1.888 1.474 3.283 3.973 3.283 2.58 0 3.973-1.45 3.973-3.146v-.191H.765v.191c0 .561-.369.903-1.024.903-.669 0-1.024-.342-1.024-.903 0-.615.409-.957 1.461-1.176l.833-.151c1.993-.41 3.126-1.518 3.126-3.474C4.137 1.463 2.758 0 0 0" style="fill:#002749;fill-opacity:1;fill-rule:nonzero;stroke:none;stroke-width:.717829" transform="matrix(1.85745 0 0 -1.85745 306.173 180.222)"/></g><g style="stroke-width:.717829"><path d="m0 0-.983-3.83H.97Zm1.488 3.201L4.956-7.811H1.98l-.451 1.764h-3.072l-.45-1.764h-2.963l3.468 11.012z" style="fill:#002749;fill-opacity:1;fill-rule:nonzero;stroke:none;stroke-width:.717829" transform="matrix(1.85745 0 0 -1.85745 334.533 165.359)"/></g><g style="stroke-width:.717829"><path d="M0 0v-6.019h-2.854V4.993H0l2.731-6.032v6.032h2.853V-6.019H2.731Z" style="fill:#002749;fill-opacity:1;fill-rule:nonzero;stroke:none;stroke-width:.717829" transform="matrix(1.85745 0 0 -1.85745 361.348 168.688)"/></g><g style="stroke-width:.717829"><path d="M0 0c2.813 0 4.424-1.545 4.505-4.09H1.57C1.529-3.009 1.038-2.367 0-2.367c-1.079 0-1.639-.574-1.639-3.323 0-2.667.492-3.351 1.707-3.351 1.024 0 1.611.697 1.652 1.805H.041v1.956h4.451v-5.923H2.389l-.259 1.191c-.369-.849-1.338-1.382-2.54-1.382-2.84 0-4.191 2.174-4.191 5.704C-4.601-2.202-3.318 0 0 0" style="fill:#002749;fill-opacity:1;fill-rule:nonzero;stroke:none;stroke-width:.717829" transform="matrix(1.85745 0 0 -1.85745 393.284 159.058)"/></g><g style="stroke-width:.717829"><path d="m0 0-1.871 4.98V0h-2.84v11.012h2.745l3.045-8.084 3.044 8.084h2.731V0h-2.84v4.98L2.144 0Z" style="fill:#002749;fill-opacity:1;fill-rule:nonzero;stroke:none;stroke-width:.717829" transform="matrix(1.85745 0 0 -1.85745 423.649 179.868)"/></g><g style="stroke-width:.717829"><path d="M0 0v6.895h2.949V-.178c0-1.244.519-1.778 1.434-1.778s1.433.534 1.433 1.778v7.073h2.949V0c0-2.667-1.392-4.308-4.382-4.308S0-2.667 0 0" style="fill:#002749;fill-opacity:1;fill-rule:nonzero;stroke:none;stroke-width:.717829" transform="matrix(1.85745 0 0 -1.85745 449.653 172.22)"/></g><g style="stroke-width:.717829"><path d="M0 0h11.628v-4.053H4.473v-3.542h6.942v-3.734H4.473v-7.851H0Z" style="fill:#c9a970;fill-opacity:1;fill-rule:nonzero;stroke:none;stroke-width:.717829" transform="matrix(1.85745 0 0 -1.85745 111.283 367.173)"/></g><g style="stroke-width:.717829"><path d="M0 0c0-.832.66-1.28 1.491-1.28.83 0 1.49.448 1.49 1.28v9.75c0 .832-.66 1.281-1.49 1.281C.66 11.031 0 10.582 0 9.75Zm-4.43 10.455c0 3.264 2.662 4.437 5.921 4.437 3.258 0 5.92-1.173 5.92-4.437V-.704c0-3.265-2.662-4.438-5.92-4.438S-4.43-3.969-4.43-.704z" style="fill:#c9a970;fill-opacity:1;fill-rule:nonzero;stroke:none;stroke-width:.717829" transform="matrix(1.85745 0 0 -1.85745 143.564 394.042)"/></g><g style="stroke-width:.717829"><path d="M0 0c0-.832.66-1.28 1.491-1.28.83 0 1.491.448 1.491 1.28v9.75c0 .832-.661 1.281-1.491 1.281S0 10.582 0 9.75Zm-4.43 10.455c0 3.264 2.662 4.437 5.921 4.437 3.258 0 5.92-1.173 5.92-4.437V-.704c0-3.265-2.662-4.438-5.92-4.438S-4.43-3.969-4.43-.704z" style="fill:#c9a970;fill-opacity:1;fill-rule:nonzero;stroke:none;stroke-width:.717829" transform="matrix(1.85745 0 0 -1.85745 168.329 394.042)"/></g><g style="stroke-width:.717829"><path d="M0 0v-3.947h-3.471V-19.18h-4.686v15.233h-3.471V0Z" style="fill:#c9a970;fill-opacity:1;fill-rule:nonzero;stroke:none;stroke-width:.717829" transform="matrix(1.85745 0 0 -1.85745 205.277 367.173)"/></g><g style="stroke-width:.717829"><path d="m0 0 1.299-.256c1.086-.235 1.704-.128 1.704.917V2.56c0 .918-.81 1.067-1.491 1.067H0Zm1.512 10.668H0V7.254h1.512c.916.022 1.278.448 1.278 1.494v.426c0 .918-.256 1.494-1.278 1.494M0-3.819v-.853h-4.472v19.18h7.368c2.79 0 4.195-.512 4.259-3.414V8.47c0-1.387-1.256-2.731-2.874-2.795 1.661-.106 3.087-1.536 3.087-3.029v-3.905c0-2.645-1.043-3.883-4.259-3.2z" style="fill:#c9a970;fill-opacity:1;fill-rule:nonzero;stroke:none;stroke-width:.717829" transform="matrix(1.85745 0 0 -1.85745 216.04 394.12)"/></g><g style="stroke-width:.717829"><path d="M0 0h2.236L1.128 8.769Zm-.895-7.062h-4.472l2.662 19.18h7.666l2.663-19.18H3.152L2.726-3.84H-.49Z" style="fill:#c9a970;fill-opacity:1;fill-rule:nonzero;stroke:none;stroke-width:.717829" transform="matrix(1.85745 0 0 -1.85745 241.952 389.682)"/></g><g style="stroke-width:.717829"><path d="M0 0v-4.054h-11.628v19.18h4.686V0Z" style="fill:#c9a970;fill-opacity:1;fill-rule:nonzero;stroke:none;stroke-width:.717829" transform="matrix(1.85745 0 0 -1.85745 279.888 395.27)"/></g><g style="stroke-width:.717829"><path d="M0 0v-4.054h-11.627v19.18h4.685V0Z" style="fill:#c9a970;fill-opacity:1;fill-rule:nonzero;stroke:none;stroke-width:.717829" transform="matrix(1.85745 0 0 -1.85745 303.743 395.27)"/></g><g style="stroke-width:.717829"><path d="M0 0v-2.88c0-3.265-2.662-4.438-5.92-4.438s-6.027 1.173-6.027 4.438V8.279c0 3.264 2.662 4.437 5.92 4.437s5.92-1.173 5.92-4.437V6.081h-4.472v1.493c0 .832-.617 1.281-1.448 1.281-.83 0-1.448-.449-1.448-1.281v-9.75c0-.832.618-1.28 1.448-1.28.831 0 1.448.448 1.448 1.28V0Z" style="fill:#c9a970;fill-opacity:1;fill-rule:nonzero;stroke:none;stroke-width:.717829" transform="matrix(1.85745 0 0 -1.85745 335.709 390)"/></g><g style="stroke-width:.717829"><path d="M0 0v-4.054h-11.628v19.18h4.685V0Z" style="fill:#c9a970;fill-opacity:1;fill-rule:nonzero;stroke:none;stroke-width:.717829" transform="matrix(1.85745 0 0 -1.85745 360.157 395.27)"/></g><g style="stroke-width:.717829"><path d="M0 0v-15.169c0-3.265-2.662-4.438-5.921-4.438-3.258 0-5.919 1.173-5.919 4.438V0h4.493v-14.465c0-.832.596-1.28 1.426-1.28.831 0 1.427.448 1.427 1.28V0Z" style="fill:#c9a970;fill-opacity:1;fill-rule:nonzero;stroke:none;stroke-width:.717829" transform="matrix(1.85745 0 0 -1.85745 384.408 367.173)"/></g><g style="stroke-width:.717829"><path d="m0 0 1.299-.256c1.087-.235 1.704-.128 1.704.917V2.56c0 .918-.81 1.067-1.491 1.067H0Zm1.512 10.668H0V7.254h1.512c.916.022 1.278.448 1.278 1.494v.426c0 .918-.255 1.494-1.278 1.494M0-3.819v-.853h-4.472v19.18h7.368c2.79 0 4.196-.512 4.26-3.414V8.47c0-1.387-1.257-2.731-2.875-2.795 1.661-.106 3.087-1.536 3.087-3.029v-3.905c0-2.645-1.043-3.883-4.258-3.2z" style="fill:#c9a970;fill-opacity:1;fill-rule:nonzero;stroke:none;stroke-width:.717829" transform="matrix(1.85745 0 0 -1.85745 395.486 394.12)"/></g><g style="stroke-width:.717829"><path d="M0 0h36.026l-.025-9.319C36.131-32.241 21.128-42.874 0-45.026v14.614c10.584.751 22.332 3.938 22.353 16.497Q11.176-14.239 0-14.612Z" style="fill:#fff;fill-opacity:1;fill-rule:nonzero;stroke:none;stroke-width:.717829" transform="matrix(1.85745 0 0 -1.85745 23.52 206.731)"/></g><g style="stroke-width:.717829"><path d="M0 0h15.124l-.128-40.372q-7.562-.437-15.119-.977z" style="fill:#fff;fill-opacity:1;fill-rule:nonzero;stroke:none;stroke-width:.717829" transform="matrix(1.85745 0 0 -1.85745 101.175 206.731)"/></g><g style="stroke-width:.717829"><path d="M0 0a1285 1285 0 0 0 56.996-4.97v-16.44a851 851 0 0 1-20.851 2.895l.041-20.759a581 581 0 0 1-15.129 2.373l-.056 20.161A855 855 0 0 1 .047-14.736z" style="fill:#fff;fill-opacity:1;fill-rule:nonzero;stroke:none;stroke-width:.717829" transform="matrix(1.85745 0 0 -1.85745 392.997 286.596)"/></g><g style="stroke-width:.717829"><path d="M0 0h14.788l.041-13.768c2.798-.046 4.196-.071 6.993-.123l.045-14.217c-2.798.106-4.196.155-6.995.249l.042-13.527q-7.402.374-14.809.644z" style="fill:#fff;fill-opacity:1;fill-rule:nonzero;stroke:none;stroke-width:.717829" transform="matrix(1.85745 0 0 -1.85745 341.971 206.731)"/></g><g style="stroke-width:.717829"><path d="M0 0c9.208 2.644 12.813 12.94 12.707 21.589l-.004 5.057h14.652l.01-5.089C27.039 12.57 31.248 3.473 40.124.336l.035-14.302C32.12-11.948 24.82-7.025 20.132-.191 15.867-7.527 7.952-11.947 0-14.062z" style="fill:#fff;fill-opacity:1;fill-rule:nonzero;stroke:none;stroke-width:.717829" transform="matrix(1.85745 0 0 -1.85745 260.82 256.226)"/></g><g style="stroke-width:.717829"><path d="M0 0c3.849.049 5.773.069 9.623.102l.027 19.573h14.787l-.02-48.185a884 884 0 0 1-14.834-.202l.022 16.327c-3.852-.054-5.778-.088-9.629-.168z" style="fill:#fff;fill-opacity:1;fill-rule:nonzero;stroke:none;stroke-width:.717829" transform="matrix(1.85745 0 0 -1.85745 204.913 243.277)"/></g><g style="stroke-width:.717829"><path d="M0 0c-7.658.808-15.367 3.978-20.05 10.296C-24.334 3.562-31.99-.047-39.465-1.872l.044 13.9c8.19 1.751 12.491 8.038 12.29 16.4l.004 1.361c-4.897-.102-7.344-.159-12.239-.284l.043 13.736c4.867.035 7.301.051 12.168.079l.015 5.204h14.519l-.012-5.131c4.814.02 7.221.029 12.035.043l-.023-13.232c-4.898-.051-7.348-.083-12.245-.158l-.004-1.342c-.537-8.187 4.886-14.382 12.893-15.32z" style="fill:#fff;fill-opacity:1;fill-rule:nonzero;stroke:none;stroke-width:.717829" transform="matrix(1.85745 0 0 -1.85745 212.195 296.863)"/></g><g style="stroke-width:.717829"><path d="M0 0a894 894 0 0 0 27.001 4.73l.016 5.702a1118 1118 0 0 1-27.006-3.1zm-14.82 18.964a1250 1250 0 0 0 56.791 5.099L41.869-8.12a588 588 0 0 1-14.912-1.821l.006 2.179a687 687 0 0 1-41.783-9.167z" style="fill:#fff;fill-opacity:1;fill-rule:nonzero;stroke:none;stroke-width:.717829" transform="matrix(1.85745 0 0 -1.85745 51.047 333.597)"/></g><g style="stroke-width:.717829"><path d="M0 0a732 732 0 0 1-57.905-3.115l.073 23.343q7.851.543 15.711.94l-.027-9.87A916 916 0 0 0 .005 12.745z" style="fill:#fff;fill-opacity:1;fill-rule:nonzero;stroke:none;stroke-width:.717829" transform="matrix(1.85745 0 0 -1.85745 250.248 341.443)"/></g><g style="stroke-width:.717829"><path d="M0 0c1.887-.104 3.166.455 3.161 2.36-.006 2.143-1.287 2.69-3.174 2.785-7.834.366-15.666.65-23.506.855-1.619.036-2.9-.408-2.898-2.511.002-1.869 1.285-2.518 2.904-2.558C-15.669.709-7.836.398 0 0m-28.252 17.77a1301 1301 0 0 0 32.991-.952c7.659-.678 13.185-8.079 13.238-15.436.053-7.203-5.686-13.927-13.159-13.665-11.01.75-22.012 1.27-33.043 1.56-7.731-.154-13.09 7.546-13.104 14.366-.015 6.799 5.268 14.591 13.077 14.127" style="fill:#fff;fill-opacity:1;fill-rule:nonzero;stroke:none;stroke-width:.717829" transform="matrix(1.85745 0 0 -1.85745 339.514 322.477)"/></g><g style="stroke-width:.717829"><path d="M0 0q14.103-.549 28.198-1.234l-.011 8.311q-14.104.443-28.21.795zm-14.518 22.108h57.133v-39.454a1564 1564 0 0 1-57.02 4.088z" style="fill:#fff;fill-opacity:1;fill-rule:nonzero;stroke:none;stroke-width:.717829" transform="matrix(1.85745 0 0 -1.85745 419.709 247.797)"/></g><g style="stroke-width:.717829"><path d="M0 0v-35.463a163 163 0 0 1 2.898-3.96c7.149-9.451 15.107-17.935 23.846-25.486V.001z" style="fill:#b91d22;fill-opacity:1;fill-rule:nonzero;stroke:none;stroke-width:.717829" transform="matrix(1.85745 0 0 -1.85745 139.992 420.984)"/></g><g style="stroke-width:.717829"><path d="M0 0v-64.93a161.7 161.7 0 0 1 26.744 29.584V0z" style="fill:#b91d22;fill-opacity:1;fill-rule:nonzero;stroke:none;stroke-width:.717829" transform="matrix(1.85745 0 0 -1.85745 332.718 420.752)"/></g></g></svg>