<svg height="369.23344" viewBox="0 0 84.763 115.419" width="270.831374" xmlns="http://www.w3.org/2000/svg"><g fill="#c70026"><path d="m20.129221 83.103621s-6.735757 3.3585-7.61405 6.43304c-.714194 2.50329.858105 7.43098 2.945472 10.17113 5.302272 6.957209 13.979332 7.918549 13.979332 7.918549s-1.359714-4.83338 1.585821-9.062299c0 0-6.418898 0-9.816481-5.73987-3.39913-5.73884-1.080094-9.72055-1.080094-9.72055zm-3.609018 6.14175c.631283.002 1.066383.30698 1.282796.73014.123333.24202.159459.44924.154299.57876l-.685253.21121c.0036-.11559-.02276-.2508-.103257-.40716-.214671-.42109-.726644-.58475-1.708145-.0842-.903064.46133-1.073968.92474-.926382 1.21269.02941.0573.05789.0976.08008.11616l.908781-.46407-.145498-.28484.597542-.3039.437084.85774-2.00677 1.02377c-.13675-.10321-.354042-.36166-.471698-.59491-.186805-.36483-.204979-.70188-.06307-1.04401.17184-.43347.653993-.86443 1.306263-1.1854.515133-.25602.964455-.36336 1.343224-.36199zm1.549446 1.8205.312119.65269-1.437975.88355c-.418506.25389-.840764.48985-1.284556.75096l.0067.0144c.489202-.18113.936452-.30649 1.425654-.45821l1.623075-.49458.243183.50837-1.39808.93459c-.401992.26267-.79739.52329-1.275755.79937l.0041.01c.517584-.19351.942388-.35085 1.40424-.51805l1.583767-.56557.293052.61632-4.079249 1.25024-.310065-.64712 1.150203-.78705c.330779-.22292.743163-.47867 1.185406-.74392l-.0053-.009c-.484558.16151-.933595.31205-1.337652.423l-1.346744.37783-.297745-.62336zm1.807882 3.74014.500446.66853-2.955446 3.08804-.405109-.53976.679386-.70226-.387214-.51512-.866247.45058-.405109-.53917zm-.388095.77589c-.247181.14037-.630737.36029-.847472.4764l-.780589.42007.306545.40804.634503-.62365c.184225-.18371.490431-.47317.695814-.66824zm1.430642.53947.459084.44324-.748322 1.57262c-.149651.30859-.396749.81837-.579942 1.15431l.0073.008c.292592-.33543.766641-.89524 1.305383-1.45411l.647704-.67147.440311.42535-2.928165 3.035819-.459085-.44236.717228-1.534189c.163583-.33749.414959-.83549.621891-1.16575l-.0079-.008c-.283304.3184-.716575.8052-1.307436 1.41774l-.655625.68055-.440604-.42476zm2.088319 2.20595c.03517-.001.06999-.001.104431.0003.250479.0106.480623.0923.677039.22646.22396.15326.355456.31849.412736.43356l-.500152.51482c-.05212-.10321-.140712-.20937-.285718-.30948-.39064-.26576-.916991-.16372-1.538299.74656-.570736.837019-.499494 1.325709-.231155 1.508379.05264.0366.09548.0583.124378.0619l.574662-.84102-.26313-.1807.377241-.552659.79467.543569-1.269888 1.86068c-.16926-.0253-.484147-.14914-.699334-.29569-.338004-.23119-.515425-.51959-.554127-.88649-.0578-.4634.15998-1.07437.576421-1.666779.56642-.81122 1.17261-1.14416 1.700225-1.16341zm1.927861.94398.627463.31534-1.288955 2.567649c-.545967 1.08367-1.074496 1.02137-1.530672.79173-.128493-.0645-.231088-.14359-.286304-.21326l.361693-.58815c.05315.0475.109879.0897.190381.12995.181645.0913.375236.0831.619837-.40247zm1.109135.54738.656798.228509-.901447 2.5876c-.204351.58415-.11566.81475.05515.87358.190418.0676.381943-.0459.59197-.64712l.903207-2.58789.657385.22969-.855099 2.45119c-.357097 1.02124-.876196 1.46284-1.529498 1.23527-.70697-.24718-.783425-.91642-.435616-1.91495z"/><path d="m5.3760462 69.21669c-1.024848.45102-1.854047 1.35772-2.495482 2.33561-1.642543 2.70042-1.580834 4.50665-1.580834 4.50665.350905 5.725941 10.6453158 4.710211 21.8453658 4.122961 9.575052-.50262 10.150014 1.96042 10.150014 1.96042s.370075-.66141.7184-3.116201c.165647-1.17347.122324-3.08393.122324-3.08393-.116623-5.37555-14.957312-4.20682-22.085321-3.97306-5.0648948.16565-6.3529768-1.67342-6.6744668-2.75245zm1.936074 4.41308c.052.00061.10517.005.159579.0129.952087.14294 1.06305 1.22817.927849 2.12762-.223444 1.48361-.839551 2.00494-1.587287 1.89296-.893259-.13469-1.100667-1.13329-.938116-2.21387.151909-1.00724.657988-1.82884 1.437975-1.81962zm1.563819.2555.77091.0634-.212089 2.57762c-.04799.58364.11476.77353.314466.79056.223443.0181.3956858-.12734.4447098-.72749l.212968-2.57762.771203.0625-.201821 2.44327c-.08308 1.01814-.51187 1.53943-1.2766348 1.47699-.830303-.0686-1.106996-.66613-1.024946-1.66209zm14.0975508.0522c.50107.002.849389.12227 1.101215.35964.3411.30859.515063.83553.51042 1.60959-.0036.80088-.212024 1.37376-.562929 1.67822-.265758.25905-.662124.38056-1.217379.37695-.242537-.00045-.48455-.0257-.636265-.0437l.01848-3.90852c.195577-.0464.478383-.0737.786456-.0722zm-1.602835.0337.106191 3.97863-.77355.0202-.106777-3.97863zm3.901189.0208 1.726626.0895-.03403.67175-.955716-.0496-.04664.91406.907902.0463-.03373.6436-.907608-.0469-.05515 1.07335 1.025826.0519-.0352.67235-1.797615-.0945zm-6.519288.0634c.361789-.001.682897.0548.919048.25169.251825.20744.333235.46903.3482.81168.02013.42418-.168655.81684-.567035 1.02377v.012c.276079.0944.423307.34087.519806.76299.09598.43915.22474.92387.302145 1.06836l-.808457.037c-.05212-.11043-.159395-.50809-.237316-.94104-.0934-.4923-.223572-.62914-.483139-.61779l-.111471.006.07128 1.58582-.772963.0346-.176007-3.91586c.238925-.0583.544238-.10164.838378-.11558.05322-.002.105842-.004.157527-.004zm-6.484087.0469c.07423-.001.148726-.00045.222648.002.424182.0139.799885.084 1.052227.32855.235313.22654.297727.49507.286891.83721-.01445.42418-.2326.80226-.645945.97771v.0114c.268339.11456.39458.37355.459084.80083.06192.44482.152783.93859.218835 1.08772l-.808457-.0252c-.04386-.11353-.119965-.51855-.16486-.95718-.05522-.49798-.173774-.64304-.433857-.65181l-.112644-.003-.04987 1.58728-.77355-.0243.124965-3.91997c.183064-.0294.401844-.048.624531-.0513zm3.706408.0364c.460303-.008.821679.0513 1.085374.28923.239441.20281.350808.53097.357.86742.0072.43141-.117601.7349-.320919.96247-.243053.26369-.642379.38851-.96129.39366-.05367.002-.105721.003-.153712.004l.02464 1.4811-.772376.0129-.06571-3.92025c.216219-.0495.511818-.0859.806991-.0901zm-8.6888648.16251c-.277416.0172-.500445.48538-.620424 1.27927-.133653.8943-.03365 1.37481.275451 1.42126.32149.049.531716-.51668.652985-1.31653.103723-.68839.09273-1.32976-.251983-1.38136-.01897-.003-.03754-.004-.05603-.003zm15.8253488.25697c-.05263-.00045-.106682-.00062-.153125.017l-.01467 2.74424c.03561.0119.09498.0119.135232.0129.373094.002.69923-.36273.704906-1.46086.0041-.81379-.205848-1.3102-.672345-1.3133zm-4.37582.0983c-.06554.003-.141916.0118-.182167.032l.0531 1.18541.135819-.006c.336455-.0155.519082-.29447.503085-.64331-.01548-.33542-.162024-.57123-.509833-.56762zm-6.151434.0537c-.06502-.002-.142421.001-.18422.017l-.03784 1.18746.135232.004c.336455.0103.540873-.25508.551194-.60341.01135-.33645-.116556-.58195-.464364-.60517zm3.555042.0522c-.07121.001-.141438.0137-.188914.0323l.02053 1.22824c.03509.0108.07705.01.123499.01.389607-.007.562889-.28767.55618-.65973-.0057-.34832-.151106-.61642-.511299-.61074z"/><path d="m25.578974 80.910581c-.614599 0-1.269067.016-1.948687.0469-.576929.49075-1.143007 1.01834-1.666784 1.59785-.979436 1.08574-1.388648 2.33705-1.467602 3.58173.396832-.61666 1.034897-1.41706 1.885325-1.88562 0 0-1.151285 1.35212-1.831936 3.40749.03561.28124.08235.55661.139632.82753.33852-.61047 1.072286-1.73388 2.150802-2.32681 0 0-1.171172 1.37477-1.849244 3.46058.06038.18991.122649.37361.187154.55061.31633-.58673 1.068731-1.78889 2.19627-2.40865 0 0-1.128616 1.32751-1.810816 3.34882.409217.91184.778243 1.48902.778243 1.48902.226024-4.38063 5.192917-6.99705 9.313982-9.2867.568672-.31478 1.567094-1.12338-.924329-1.86802-1.042909 1.5316-2.123814 1.45264-2.123814 1.45264.628532-.4603 1.086542-1.06472 1.41216-1.62307-.346776-.0712-.739478-.13613-1.184818-.1898-1.008851 1.37524-2.017037 1.30187-2.017037 1.30187.537194-.39374.949473-.89276 1.261675-1.3799-.403024-.033-.843586-.0592-1.322984-.0763-.903579 1.00679-1.729852.94545-1.729852.94545.384447-.28124.704989-.6162.971263-.96246-.137781-.001-.276176-.003-.418603-.003z"/><path d="m9.8269612 60.15s-1.521669 1.45149-4.663297 3.22356c-1.636351.92113-3.167943 2.20984-4.13293 4.01442.381865-.28433.832136-.50739 1.341464-.55383 0 0-1.055618.59292-1.92668801 1.93255-.110431.34058-.202994.69623-.273689 1.06777.438631-.58208 1.11368401-1.23948 2.00178201-1.3752 0 0-1.36541101.87768-2.16165601 2.75656-.01703.35917-.01602.73187.0041 1.11735.267821-.65433.917595-1.9028 2.08538501-2.25112 0 0-1.54251701 1.32052-1.91612601 3.76859.06399.37671.14455.76319.242595 1.16312 0 0 2.73792001-9.93252 9.31222201-5.95285 0 0 .5327598-3.80415-3.100651-3.89033 0 0 3.4470468-1.99301 3.187481-5.02059z"/><path d="m59.856868 93.319341c-3.463635 5.24396-9.507002 5.245-9.507002 5.245 2.94605 4.228909 1.587287 9.061699 1.587287 9.061699s8.675523-.96082 13.977279-7.918539c.548546-.71935.991462-1.53997 1.338238-2.40278h-.0018c-.300849-.0862-.599587-.18173-.897341-.28132-.05573-.0201-.112871-.0391-.168086-.0572-.03922-.0155-.0801-.0293-.118806-.0423-1.29783 1.38453-2.882696 1.75303-2.882696 1.75303.930413-.60892 1.537847-1.3909 1.935194-2.12264-.235312-.0981-.467936-.20221-.697573-.31006-.04386-.0201-.08771-.0419-.130538-.0631-.07018-.032-.139268-.0649-.209448-.0994-1.265321 1.25603-2.729278 1.59609-2.729278 1.59609.891195-.58519 1.489667-1.33046 1.886499-2.0364-.2317-.12901-.463897-.26402-.694054-.40335-.02683-.0155-.05567-.0338-.08302-.0493-.06554-.0408-.131591-.0814-.197127-.1232-1.267902 1.26996-2.743945 1.61163-2.743945 1.61163.935058-.61408 1.545039-1.40211 1.941354-2.13643-.242022-.16822-.482996-.34373-.721921-.52538-.01496-.009-.02948-.0212-.04341-.0326-.282272-.21157-.560176-.4323-.83574-.6609-.00045-.002-.0025-.003-.0041-.003zm-2.136428 5.18252c.03339-.002.06191-.0003.08448.004l.216489.68878c-.09392-.003-.195073.005-.336467.0786-.361225.18629-.499491.7214-.0062 1.681749.4763.92576.959837 1.13467 1.352024.93342.105788-.0557.213809-.14646.277797-.21561l.388975.59901c-.06605.10011-.227134.23319-.450578.34879-.841654.43295-1.66194-.17741-2.226483-1.27605-.750833-1.460899-.353652-2.383999.285717-2.711679.168744-.0875.314034-.12566.414202-.13142zm-2.143468 1.0402.234088.699029-.845712.28191.353481 1.06132.793203-.26372.224409.66854-.792618.26401.568209 1.7055-.681733.2291-1.380186-4.13498z"/><path d="m55.031054 88.035921c-1.521274.0361-3.684016.514-4.210373 2.84338 0 0 3.09272-1.25039 5.055206-.12027 0 0-1.12966 3.21217-.891768 4.40164 0 0 1.001109-2.10288 4.330059-2.30774-1.538304-1.35873-2.97652-2.9696-4.283124-4.81701z"/><path d="m50.85647 106.4556c-.285883 1.17398-1.327688 3.58269-2.778266 4.04815-.847331.27092-1.992467-.39935-2.430066-.70226.30085.43811.972823 1.58309.701388 2.43094-.464432 1.45162-2.874395 2.49216-4.047861 2.77857.967052-.0908 1.923936-.32516 2.833707-.71166.08979-.0402.18784-.0846.295691-.13055.688909-.29826 1.663126-.67043 2.394864-.69932 1.06768-.0459 2.785577 1.47326 3.438879 1.94957-.476817-.65382-1.994017-2.37062-1.950155-3.4383.03045-.73432.402976-1.70771.700213-2.39662.04593-.10682.08933-.20642.131126-.29569.386511-.90823.621206-1.86578.71048-2.83283z"/><path d="m30.111733 94.264491c.476817.65537 1.995555 2.37105 1.952208 3.43976-.03096.73277-.402531 1.70926-.7008 2.396629-.04696.10681-.0894.2059-.131712.29569-.385995.90822-.621206 1.86503-.71048 2.83312.285368-1.17347 1.326737-3.581879 2.776799-4.047859.849395-.27195 1.995926.3995 2.430945.70138-.30188-.4376-.972163-1.58191-.700213-2.43182.464432-1.45006 2.873949-2.49136 4.048448-2.77621-.967568.0893-1.924381.3247-2.833122.71018-.09134.0408-.190044.085-.296864.13142-.688908.29827-1.663044.66947-2.396331.69992-1.067679.0428-2.784544-1.47384-3.438878-1.95221z"/><path d="m30.520949 106.4556c.08927.96705.324485 1.92321.71048 2.83195.04232.0903.08475.19004.131712.29686.298269.68891.669838 1.66356.7008 2.39634.04335 1.06767-1.475391 2.78447-1.952208 3.43829.654334-.4763 2.371199-1.99535 3.438878-1.95045.733287.0299 1.707423.40194 2.396331.7002.10682.0459.205526.0903.296864.13055.908741.38651 1.865554.62084 2.833122.71166-1.174499-.2864-3.584016-1.32667-4.048448-2.77827-.27195-.84837.398474-1.99313.701388-2.43124-.436051.30291-1.582725.97238-2.43212.70197-1.450062-.46495-2.491431-2.87388-2.776799-4.04786z"/><path d="m51.264806 94.265671c-.653303.47734-2.371199 1.99387-3.438879 1.95104-.731739-.0305-1.705956-.40136-2.394864-.69963-.107335-.0464-.20589-.0909-.297744-.13171-.907708-.38548-1.864603-.62091-2.831654-.71019 1.173465.28485 3.583357 1.32644 4.047273 2.77651.271952.84991-.39995 1.99393-.700801 2.43153.437599-.30188 1.58222-.9732 2.430067-.70021 1.450577.46494 2.492382 2.873219 2.778266 4.046679-.08927-.96808-.32397-1.92489-.710481-2.83312-.0418-.0898-.0852-.18887-.131125-.29569-.297237-.687359-.669767-1.663559-.700213-2.396329-.04386-1.06871 1.473337-2.78454 1.950155-3.43888z"/><path d="m36.383439 100.53709c.97118 1.17553 2.224046 3.00168 2.227658 4.30571-.0026 1.30402-1.254778 3.13032-2.228538 4.30688 1.174498-.97118 2.998024-2.22219 4.301017-2.22942h.0047c1.304023.004 3.131939 1.25618 4.307471 2.22942-.974277-1.17656-2.225806-3.00286-2.22942-4.30688.0041-1.30557 1.255143-3.13018 2.22942-4.30571-1.175532.97273-3.003448 2.22596-4.307471 2.22854h-.0035c-1.304023-.006-3.127844-1.25633-4.30131-2.22854z"/><path d="m42.480312 0c-4.433783 1.494441-8.284529 7.574843-8.911514 9.840241-.467012 1.691051-.615701 2.043893.168674 4.311872 1.040845 3.011587-.365214 6.718469-.365214 6.718469s.239206-1.928184.143739-4.193067c-.0965-2.265915-.982998-3.645098-.982998-3.645098-1.064582.727094-1.825016 1.856667-2.267259 3.108572-1.245712 3.525042-1.209166 7.955796-1.209166 7.955796-1.004207-1.6926-.05926-5.474689-.05926-5.474689-.280723-1.231262-2.351156-2.799973-2.351156-2.799973-.638337.550094-1.288549 1.601085-1.634809 2.543883-1.503213 4.082879-.418602 8.330984-.418602 8.330984-1.319505-.76631-.910835-5.034378-.910835-5.034378-.45308-1.818511-2.393398-2.6225-2.393398-2.6225-.749801.757025-1.158789 1.829686-1.440028 2.826667-1.232811 4.372371.03491 8.872201.03491 8.872201-1.288542-.94899-1.23586-4.65508-1.23586-4.65508-.928865-2.315971-3.015581-2.606366-3.015581-2.606366-.867973 2.021316-.900012 4.301616-.527434 6.133536.58983 2.91561 2.184243 4.90707 2.184243 4.90707-2.061048-.76218-2.832534-4.36995-2.832534-4.36995-.821014-1.65235-3.597284-1.09858-3.597284-1.09858s-.287747 2.25195 1.117936 5.23826c1.406199 2.98733 3.971298 4.04228 3.971298 4.04228-2.752537-.0712-4.37758-3.35498-4.37758-3.35498-1.7576188-.49178-3.4538378.47082-3.4538378.47082-.104756.70336.508324 2.5729 2.0677848 3.97394 2.145163 1.92533 5.342684 2.84603 5.342684 2.84603-2.094075.39115-3.990072-1.03052-3.990072-1.03052-3.3521718-.47424-4.1282368 1.20623-4.1282368 1.20623.211058 1.65235 1.651676 2.56527 3.7952908 3.16284 2.143614.59757 4.81349.42154 4.81349.42154-1.710144.94176-4.46001.35817-4.46001.35817-2.0424718.45772-2.7360238 2.39076-2.7360238 2.39076 1.02846 1.38401 2.2901978 1.74419 3.7175548 1.67969 2.377895-.10837 4.885359-1.37051 4.885359-1.37051-1.019688 1.58114-3.670033 1.95954-3.670033 1.95954-.9139 1.44129-1.271062 3.2752-1.271062 3.2752 3.515755 1.593 7.59821-2.61312 7.59821-2.61312-.07224 1.58733-3.410424 3.06369-3.410424 3.06369-.351936 1.61623.229396 2.96513.229396 2.96513 5.025677.16513 7.106564-4.58087 7.106564-4.58087.290012 1.79065-2.69789 4.03994-2.69789 4.03994-.219315.85198.34116 2.23646.34116 2.23646 2.072918.19351 3.274605-.90966 3.274605-.90966.751349-2.54354 2.366089-4.026 3.640699-5.02969 1.643059-1.29525 4.069861-2.08919 4.069861-2.08919s-5.828408 2.95286-6.952851 8.20249c-1.091417 5.09844.817876 6.78288 2.673542 8.24533 1.449029 1.14147 3.101238 2.78032 3.101238 2.78032-.107336-.48249-.566576-1.61115-.6832-3.04315-.160487-1.96094.143979-4.49503 1.268422-6.74546 1.947521-3.89453 4.233177-6.13683 6.5187-9.14326 2.28604-3.00488 3.048592-6.22175 2.201261-8.04233-.8463-1.82006-2.920832-1.98931-3.597873-3.25876-.677555-1.26945 2.836642-1.69319 2.836642-1.69319-.168744-1.77826 2.030747-2.878 3.343543-3.25935 1.31228-.38135 2.66591-1.86186 2.66591-1.86186-1.141988 0-3.089576.25352-4.739859 1.2696-1.6508 1.01504-3.936825 2.0317-5.587626 2.0317-1.650284 0-3.386662.29599-3.386662.29599-.338004-1.35408.762475-2.83561 2.243499-3.68294 1.482056-.84579 4.740808-2.20023 7.153794-5.4172 2.412985-3.21748 1.990047-7.195151 1.990047-7.195151s-.634936 1.819025-2.202138 3.046675c-1.322601 1.036716-2.877707.889716-2.877707.889716-.846299 4.61336-4.86834 6.30581-7.15438 7.27905-2.283977.97376-1.988803 2.45595-1.692598 2.92142.296721.46495.762109 1.81954.762109 2.07394 0 .25389-.253743.50778-.253743.50778-.592925.25492-1.354589.88854-1.608995 1.43915-.253889.54958-.462001.76956-1.057506 1.10034-.857137.47423-2.566681.5866-3.048143 2.22501-.48301 1.63945.385454 2.21798.385454 2.21798.140362-.58673.51193-1.10424 1.110016-1.50984-.07431.1481-.119391.31252-.119391.489 0 .59861.477336 1.08215 1.071294 1.09711-.444307.51294-.580529 1.02553-.580529 1.02553s1.214705-.66317 2.208591-1.27106c.995434-.60737 2.321821-.77296 2.321821-.77296-.02528-.55268-.280709-.99402-.55266-1.31448 1.028976.29466 1.484544 1.00996 1.385465 1.67823-.145521.96292.337054 1.83076.337054 1.83076.674975-.91493 2.121467-1.73425 2.121467-1.73425.04747-1.20598-1.109136-2.50693-1.109136-2.50693 1.590424.33749 1.879459 2.02496 1.879459 2.02496s.916394.048 1.398372 1.20447c.722451 1.73543-2.506376 4.81977-5.206277 5.78476-2.699386.96344-5.976503.81839-8.435415-.38604-2.091495-1.02537-5.012805-5.97575-2.843388-11.71149 2.169416-5.73626 10.025582-8.62856 12.53197-9.93 2.506905-1.30093 2.60315-2.55449 2.939606-9.301666.337487-6.749754 4.580452-12.436381 6.26789-15.136282 1.686407-2.698353.817551-4.145252.817551-4.145252zm-9.250619 3.047555s-2.171537.703014-3.797052 4.226509c-1.62603 3.522463-2.504868 7.97369-2.504868 7.97369 1.13786.432955 2.244965 2.321529 2.244965 2.321529.504168-3.612254 3.192762-5.321856 3.192762-5.321856.140362-2.659135 1.959834-5.319802 1.959834-5.319802.108883-2.438788-1.095641-3.88007-1.095641-3.88007zm27.513662.743629c-2.203474.733804-3.316668 3.960983-4.663006 8.243567-1.333954 4.24543-7.220038 12.970079-7.892434 13.888099-.672911.91803-2.507275 2.69189-.183048 3.91645 2.325259 1.22352 3.977736 4.46661 4.037596 8.07577.06141 3.61019-2.875446 7.28074-6.117702 8.38144-3.241739 1.10071-3.977163.36756-3.977163.36756-.103207 3.12563-3.361476 6.53457-5.356471 9.05437-1.99448 2.52084-4.349698 5.31191-4.733113 10.38352-.384963 5.07005 3.417123 8.333 6.105671 11.33014 2.688548 2.996101 2.804362 8.296211 2.919954 9.947011.114561 1.65184-.268947 3.07319-1.421256 3.68676-1.152825.6146-3.918098.96068-5.108594 1.45968-1.190496.49901-.806698 1.22941-.806698 1.22941-1.498569 1.07542-.422122 2.72722-.422122 2.72722.152747-1.42168 1.15167-1.95836 1.15167-1.95836.883454.80553 4.378658-.88354 5.031444-1.26901.652786-.38342 2.380965-.92107 2.727225-.99796.345745-.0764 1.651512.46192 2.459109.96041.804501.49849 1.381914 1.22865 1.880921 1.7674.499523.53667.960705.38194.960705.38194 1.229198.7307 1.11823 1.26871 1.11823 1.26871.499007-.0377.423841-.89051.220007-1.30128-.217252-.43501-.456151-.61837-.456151-.61837s.307372-.30694.07774-.92257c-.365354-.97737-3.07233-2.34331-3.878895-3.18806-.80708-.84476-1.229956-.69093-1.574674-4.07045-.346776-3.38159-.4613-5.07053-1.190975-6.9907-.317363-.835461-.53706-1.497141-.307424-2.304221.230669-.80656 4.725194-1.26842 4.725194-1.26842-7.065052-4.82184-7.648529-10.90707-6.124158-14.8403.232217.25234.45516.55697.660026.92697 1.232811 2.23289 2.985074 2.32124 2.985074 2.32124.699745-1.21888-.409506-3.48803-.748026-5.02323-.340068-1.53315.207395-2.22062.207395-2.22062s.134273 1.80509 1.262844 3.94871c1.454195 2.76131 3.474374 2.72986 3.474374 2.72986 1.331373-.78953-.722012-4.01577-1.127617-5.39255-.406636-1.37524-.04577-1.96306-.04577-1.96306s.992312 3.11392 3.136437 5.14555c1.578039 1.49341 3.136442.94692 3.136442.94692 1.060455-1.75917-1.151307-3.79073-2.052828-4.96368-.903058-1.17295-.812267-2.16694-.812267-2.16694s.902517 1.39884 3.136438 3.45267c2.232888 2.05382 4.737806 1.82783 4.737806 1.82783.496432-1.94133-1.82891-3.83614-3.002382-4.85222-1.172434-1.01504-1.330904-2.00794-1.330904-2.00794s1.672582 1.64326 3.971007 2.97979c3.340819 1.93979 5.438904 1.03668 5.438904 1.03668.360704-1.98519-3.249868-3.60991-4.693221-4.46705-1.444901-.85816-1.563528-1.60254-1.563528-1.60254s3.294654 1.87579 6.941998 2.3139c3.649924.4376 4.898856-1.14609 4.898856-1.14609-.750317-1.75195-3.753266-2.29384-5.983058-2.6272-2.229793-.33439-2.795276-1.34938-2.795276-1.34938.584664.0836 5.882287.59858 9.112158-.19302 3.231935-.79263 4.108288-3.04433 4.108288-3.04433-.104755-.31323-.729314-1.27149-3.877135-.62541-3.148848.64659-8.141483.52538-8.141483.52538s.411792.74614.199185 1.47581c0 0-.738912 1.25654-2.47847 1.4547 0 0 .241546.98059-.205342 1.72575 0 0-.605723.97944-2.643034.9299 0 0 .09266.74731-.239663 1.40629 0 0-1.363672.75072-2.706393.60107 0 0-.473257 1.03933-.921692 1.48725 0 0-1.476013.35606-2.270193.0578 0 0-.802772.99172-1.444721 1.274 0 0-.95379.27456-1.98741-.20329 0 0-1.007318.85871-1.703451 1.10796 0 0-.576908.0728-1.441785-.57789l-.0144-.004c1.930486-2.76337 2.907921-4.94813 2.907921-4.94813 1.99706.23066 2.841713-.11514 2.726637-.38399-.11456-.26937.269288-.692.269288-.692 2.380992.0779 2.956434-.65177 2.88006-.99855-.07637-.34522.153712-.72954.153712-.72954 3.07248-.34471 3.072624-1.49746 2.919362-1.80554-.153258-.30652-.01847-.89705-.01847-.89705 2.343326-.15377 2.975403-2.13681 2.437694-2.71167-.340068-.3669-.537406-1.15343-.537406-1.15343s1.191709.57634 3.956631-.26841 3.6231-3.63953 3.6231-3.63953c-1.479481-.53564-3.035402.0806-4.8792.15753-1.842249.0758-2.27782-.0135-2.27782-.0135s2.534275-.15377 4.763035-1.49753c2.226697-1.34375 2.478171-3.40807 2.478171-3.40807-1.102253-.73432-2.665032-.6832-2.665032-.6832-3.61019 2.44704-4.798528 1.96834-4.798528 1.96834 6.912821-2.75357 6.628996-6.85517 6.628996-6.85517-1.375237-.73896-2.995632-.6521-2.995632-.6521s-.217194.61048-2.296304 2.14053c-2.080653 1.52953-2.665916 1.27048-2.665916 1.27048s3.0905-1.86518 4.507536-3.92055c1.306603-1.89334 1.398958-4.274326 1.398958-4.274326-1.856698-.377732-3.588485.314766-3.588485.314766-2.508452 3.67108-4.416005 4.08394-4.416005 4.08394s2.692166-2.69216 3.792355-4.527184c1.101737-1.835025 1.346746-4.588496 1.346746-4.588496s-1.408438-.18334-2.998862 1.100042c-1.590424 1.284931-3.426264 4.283711-3.426264 4.283711.122301-1.591457 1.24886-3.132958 2.839283-4.663005 1.590424-1.529531 3.555335-1.57438 3.555335-1.57438s1.436031-2.512106 2.415984-6.550089c1.153857-4.759402-.415668-6.469421-.415668-6.469421zm-34.870743 2.654475c-3.911554 3.274766-4.440062 11.894532-4.440062 11.894532 1.201332.280208 2.402785 2.019385 2.402785 2.019385.546482-3.45641 2.478468-5.16345 2.478468-5.16345.09495-1.058906.946329-3.680007.946329-3.680007.591378-3.910523-1.38752-5.07046-1.38752-5.07046zm40.480955 2.80408c-3.291795.06657-4.904424 3.963379-4.904424 3.963379-.536677 1.881467-2.077175 3.944308-2.077175 3.944308.160488 1.730786-.975076 4.752769-.975076 4.752769 1.197204-.504684 3.306286-.252276 3.306286-.252276s1.089615-1.25707 3.038168-5.287828c2.514644-5.202161 1.612221-7.120352 1.612221-7.120352zm-47.348443 1.295409c-.908739.681684-1.716236 1.906276-2.092426 2.813469-1.549657 3.739713-1.280742 9.326594-1.280742 9.326594 1.728205.181128 3.091851 2.095359 3.091851 2.095359.318394-4.470421 2.122054-6.312774 2.122054-6.312774.409217-5.91171-1.840737-7.922648-1.840737-7.922648zm50.941913 4.236775c-.809269.01-1.99416.367759-2.973339 1.743639-1.043425 1.467608-2.851018 3.386663-2.851018 3.386663-.564022.801404-1.886494 2.122935-1.886494 2.122935.158423 2.486262-1.100334 4.5002-1.100334 4.5002 1.730265.095 2.517772.56733 2.517772.56733s3.331582-3.266126 5.33535-6.533666c2.002737-3.268574 1.114711-5.784755 1.114711-5.784755-.05042-.0022-.102697-.003-.156648-.0023zm-58.673594 2.168696c-2.1358738 3.09312-.497512 11.356831-.497512 11.356831 1.809739-.31272 3.449731.46055 3.449731.46055-.227056-4.320768.715761-5.520741.715761-5.520741-.637305-4.956528-3.66798-6.29664-3.66798-6.29664zm61.74726 4.58028c-2.003252-.03406-3.47795 1.687597-4.849574 2.988009-1.370592 1.299382-3.919961 3.275772-3.919961 3.275772-.136749 2.85782-2.014982 4.40575-2.014982 4.40575 1.046006-.13727 2.173096.50367 2.173096.50367s4.36338-2.579 6.685027-5.38727c2.818074-3.408938 1.926394-5.785931 1.926394-5.785931zm-67.9315488 3.378161c-1.137344 4.5019 2.621913 9.82733 2.621913 9.82733 1.320021-.74516 3.4869858-.54034 3.4869858-.54034-1.117734-2.50484-.948383-4.43537-.948383-4.43537-1.9093338-4.91163-5.1605158-4.85162-5.1605158-4.85162zm68.7062688 4.03524c-.957768-.0145-2.189005.46981-3.589656 1.41803-1.869599 1.26377-5.072218 2.93931-5.072218 2.93931-.314782 2.86452-3.479065 4.30601-3.479065 4.30601s4.649642-.67818 8.770707-3.06897c4.122097-2.38977 4.232962-5.41221 4.232962-5.41221-.254669-.11701-.543474-.17732-.86273-.18217zm-71.3017808 4.5489c-.770952-.008-1.225007.19302-1.225007.19302-.135202 4.45597 6.205117 7.58266 6.205117 7.58266.914416-.91442 3.0138208-.77883 3.0138208-.77883-2.6070148-1.72666-3.0138208-4.33358-3.0138208-4.33358-2.0501-2.19135-3.853333-2.65119-4.98011-2.66327zm70.9682518 1.77033c-.888811.0205-2.052607.29637-3.444454.91465-2.471814 1.09967-5.918518 1.41275-5.918518 1.41275.48301.11456.848936.32326.848936.32326-.483009 1.9661-2.175438 3.38197-2.175438 3.38197s3.345375.078 7.378198-1.20594c4.315095-1.3742 4.86424-4.4518 4.86424-4.4518-.336615-.25218-.861667-.39081-1.552964-.37489zm-39.994299 3.53862s-.385371.62602-1.205353.81901c0 0-.09672 1.54184-1.156657 1.73484-1.060454.193-1.349197-.77085-1.300689-1.20535 0 0-.434185.14546-.723681.43444 0 0-.288914-.91544 1.397493-1.15695 1.687954-.24099 2.120914-.24103 2.988887-.62599zm-29.8847648 2.79557c-2.21978-.0391-3.13321301 1.00206-3.13321301 1.00206 1.91139901 3.68347 8.18636501 4.91118 8.18636501 4.91118.318911-.59138 1.8375098-1.39691 1.8375098-1.39691-4.0472718-1.50167-3.6612318-3.84721-3.6612318-3.84721-1.292139-.47314-2.36082-.65383-3.22943-.66912zm25.6887648.59109c.181645-.001.353336.007.515113.0243-.08102.66775-.933465 1.17984-1.700811 1.62983.02271-.0898.0396-.18137.0396-.27839 0-.51449-.356058-.94262-.833391-1.06337.415409-.12591.882598-.22207 1.404826-.2778.201512-.0222.393018-.0333.574662-.0346zm-21.5235658 6.67417c-3.870308.0461-4.932883 2.10416-4.932883 2.10416s.851515 1.65665 3.501361 1.95544c2.650878.29878 5.9264398-.22676 5.9264398-.22676.09031-.50055.702853-1.58142.702853-1.58142-3.8310528.10579-4.8146638-2.24936-4.8146638-2.24936-.13075-.003-.258259-.004-.383107-.002zm4.3309378 4.6369c-4.3192228.86384-4.6251628 4.152-4.6251628 4.152s.818336.95536 3.5022398.50074c2.682356-.45515 5.011791-1.6618 5.011791-1.6618-.09134-.42676.03491-1.44062.03491-1.44062-3.056998.66724-4.181919-.24611-4.181919-.24611 0-.63215.258143-1.30421.258143-1.30421zm3.994179 3.58907s-.933669.6991-2.071012 1.74511c-1.136828 1.04652-.8639 2.77445-.8639 2.77445 4.366698.6822 7.644265-2.79763 7.644265-2.79763-.09082-.45514-.105311-1.3004-.105311-1.3004-2.038343 1.08936-4.181626.73689-4.181626.73689-.182161-.36329-.422416-1.15842-.422416-1.15842zm8.751933 2.14376c-1.512502 1.22971-3.445038.87769-3.445038.87769-.307557-.35865-.351427-.70227-.351427-.70227-.565059.66775-1.530671 1.60518-1.530671 1.60518-1.488764 1.33602.566742 2.46527.566742 2.46527 1.077999.0516 2.46542-.56555 3.338554-1.07746.873133-.51448 1.181885.35847 1.181885.35847-.310654-1.22713.239955-3.52688.239955-3.52688zm29.982157 3.07601s.929985 1.92481-.933422 2.48316c-1.861859.55887-4.222404-1.42624-4.222404-1.42624s.806631 2.23441-1.239963 2.23441c-2.050728 0-3.272552-1.39016-3.272552-1.39016-.41799 1.52282-1.697894 1.42359-2.739255.91787-1.123927-.54803-1.997086-1.57438-1.997086-1.57438-.853007 6.02627 4.539158 10.57731 6.651294 11.88133 2.111105 1.30454 3.629273 3.56574 6.757484 9.167311 4.160284 7.45208 10.743431 12.9157 18.940666 12.54312 6.465934-.29414 6.271708-5.58762 6.271708-5.58762-1.615193 1.48979-8.38388 1.73913-14.966438-1.73895-6.58359-3.47809-7.265264-7.45271-7.265264-7.45271 3.725782 6.45871 17.946181 10.93065 23.287156 7.76219 5.340976-3.16692 5.092836-7.2016 4.159326-8.75487-.92989-1.55275-2.42097-.99356-2.42097-.99356 2.50897 1.72511.37785 4.91381-3.476423 6.39638-3.494597 1.34221-8.426324 1.19104-12.233639-.99385-8.011979-4.59479-10.930127-11.426051-10.866655-13.289971.06193-1.86238 5.588476-2.54473 9.500547-2.60872 3.913619-.0619 6.955203 1.55348 6.644549 3.54126-.311169 1.98725-2.545937 1.86215-2.545937 1.86215 3.788222 2.04918 6.334598-.49527 7.016798-2.7328.683748-2.23495-.2481-6.76796-4.09773-8.01006-3.849631-1.24159-7.885452.74533-11.301095.55852-3.492534-.1899-5.650695-2.79381-5.650695-2.79381z"/><path d="m30.235468 39.97291s.398896-.21157 1.622418-.32974c0 0-.200222 1.14199-.858685 1.23487-.658462.0949-.822561-.56454-.763733-.90513"/><path d="m54.091823 111.29779h-.19403v-.60479c.03406-.007.102691-.017.223444-.017.226024.003.363289.10476.363289.30549 0 .19197-.146554.31633-.392703.31633m.497459.19145v-.009c.188869-.0681.386511-.26008.386511-.5408 0-.20074-.07276-.354-.201254-.45721-.155843-.12385-.384447-.17287-.70955-.17287-.263179 0-.500555.0186-.659494.0449v2.16271h.492298v-.86178h.147586c.202287.004.296205.0779.355033.35142.0645.26989.116109.44483.153779.51036h.504684c-.04077-.0846-.1094-.36948-.177001-.61718-.05573-.2028-.139846-.34884-.292592-.41025m-.422118 1.48722c-.82927 0-1.499601-.67291-1.499601-1.50167 0-.82927.670331-1.4996 1.499601-1.4996.828754 0 1.500633.67033 1.500633 1.4996 0 .82876-.671879 1.50167-1.500633 1.50167m0-3.34804c-1.019688 0-1.846378.82669-1.846378 1.84637 0 1.01969.82669 1.84793 1.846378 1.84793 1.019172 0 1.84741-.82824 1.84741-1.84793 0-1.01968-.828238-1.84637-1.84741-1.84637"/></g></svg>