<svg xmlns="http://www.w3.org/2000/svg" id="_레이어_1" version="1.1" viewBox="0 0 587.5202579 680.5833528"><defs><style>.st0{fill:#ee7501}.st2{fill:#fff}.st3{fill:#e1002a}</style></defs><path d="m304.213 655.522-10.453 6.407-10.454-6.407C81.345 532.068 68.21 379.408 68.21 374.164v-5.926c47.705-13.152 121.63-26.454 225.568-26.454 103.924 0 177.837 13.3 225.534 26.449v5.931c0 5.244-13.136 157.904-215.098 281.358M68.209 157.987 220.265 18.654h146.989l152.057 139.333v49.737c-48.258-14.592-122.751-29.532-225.534-29.532-102.795 0-177.303 14.944-225.568 29.536zM14.826 386.61c8.104-3.527 19.617-8.046 34.729-12.852v.406c0 .213.41 12.164 5.515 32.42-18.6-7.713-31.93-14.952-40.244-19.975M537.965 374.164v-.41c15.127 4.812 26.646 9.335 34.752 12.863-8.288 5.015-21.594 12.242-40.27 19.979 5.107-20.263 5.518-32.22 5.518-32.432" class="st2"/><path d="M587.52 235.252s-16.164-9.922-49.555-21.49v-55.775c0-5.23-2.195-10.22-6.052-13.753L379.857 4.901A18.65 18.65 0 0 0 367.254 0H220.265a18.65 18.65 0 0 0-12.602 4.9L55.606 144.235a18.65 18.65 0 0 0-6.051 13.753v55.78C16.165 225.332 0 235.251 0 235.251v158.55c8.14 5.564 27.67 17.602 60.015 30 5.035 15.678 12.478 34.44 23.496 55.395 17.25 32.803 39.908 64.343 67.345 93.746 33.845 36.268 75.135 69.407 122.722 98.495l10.433 6.396c2.991 1.833 6.37 2.75 9.749 2.75s6.757-.917 9.749-2.75l10.453-6.408c47.567-29.076 88.856-62.215 122.701-98.483C464.1 543.54 486.76 512 504.008 479.197c11.018-20.952 18.46-39.714 23.495-55.39 32.344-12.4 51.877-24.438 60.017-30.004zM68.21 157.987 220.265 18.654h146.989l152.057 139.333v49.737c-48.258-14.592-122.751-29.532-225.534-29.532-102.795 0-177.303 14.944-225.568 29.536zM14.826 386.61c8.104-3.526 19.617-8.045 34.729-12.851v.406c0 .213.41 12.164 5.515 32.42-18.6-7.713-31.93-14.952-40.244-19.975m289.387 268.913-10.453 6.407-10.454-6.407C81.345 532.068 68.21 379.408 68.21 374.164v-5.926c47.705-13.152 121.63-26.454 225.568-26.454 103.924 0 177.837 13.3 225.534 26.449v5.931c0 5.244-13.136 157.904-215.098 281.358m233.752-281.358v-.41c15.127 4.812 26.646 9.335 34.752 12.863-8.288 5.015-21.594 12.242-40.27 19.979 5.107-20.263 5.518-32.22 5.518-32.432" style="fill:#0a1561"/><path d="M402.14 461.414c8.442 20.752 17.499 43.057 19.727 69.34 22.281-23.195 40.63-46.943 51.561-67.721 20.579-39.12 27.228-69.699 29.236-82.676-26.932-6.753-61.266-13.285-103.466-17.604-22.309 36.588-10.837 64.795 2.941 98.661M165.652 530.753c2.23-26.282 11.288-48.588 19.73-69.339 13.777-33.865 25.249-62.073 2.942-98.659-42.198 4.32-76.534 10.852-103.467 17.605 2.01 12.977 8.658 43.555 29.236 82.673 10.93 20.778 29.279 44.525 51.56 67.72" class="st0"/><path d="M387.475 467.38c-13.737-33.762-26.886-66.095-5.603-106.238-26.49-2.205-55.819-3.523-88.095-3.523-32.288 0-61.625 1.318-88.126 3.525 21.282 40.141 8.133 72.475-5.603 106.237-9.78 24.038-19.766 48.63-19.025 78.67 34.492 32.938 75.575 63.099 112.738 79.824 37.162-16.725 78.245-46.886 112.737-79.825.741-30.04-9.244-54.63-19.023-78.67M503.474 165.174 361.094 34.489H226.427L84.046 165.174v38.029c48.207-13.016 117.624-25.037 209.714-25.125 92.09.088 161.507 12.11 209.715 25.125z" class="st3"/><path d="M237.029 492.064c3.115-1.745 6.167-3.8 8.41-6.731h8.352v43.496h-9.409v-33.462c-2.244 1.868-4.799 3.49-7.353 4.86zM271.254 518.61c0 1.12.124 2.243.623 3.053.5.81 1.31 1.371 2.617 1.371 4.363 0 3.864-3.553 3.864-13.896-1.994 1.994-4.425 2.866-7.227 2.866-6.67 0-9.224-5.982-9.224-11.776 0-8.537 2.617-15.456 12.401-15.456 12.899 0 12.837 10.282 12.837 22.496 0 10.718-.188 22.122-12.9 22.122-7.54 0-11.9-2.555-11.715-10.78zm3.178-12.588c3.739 0 3.926-5.048 3.926-7.727 0-2.742-.125-7.54-3.864-7.54-3.8 0-3.8 5.047-3.8 7.726s0 7.541 3.738 7.541M293.446 517.675c0-5.36.81-9.783 6.42-11.779v-.123c-4.922-1.246-6.044-4.86-6.044-9.472 0-7.914 4.173-11.529 12.214-11.529 8.038 0 12.211 3.615 12.211 11.53 0 4.61-1.12 8.225-6.044 9.47v.124c5.61 1.996 6.42 6.42 6.42 11.779 0 8.162-4.364 11.715-12.587 11.715-8.226 0-12.59-3.553-12.59-11.715m8.787-.56c0 2.492.437 5.92 3.803 5.92 3.363 0 3.8-3.428 3.8-5.92 0-2.618.124-7.728-3.8-7.728-3.927 0-3.803 5.11-3.803 7.727m.375-20.315c0 2.242.312 5.857 3.428 5.857s3.427-3.615 3.427-5.857c0-2.12-.376-5.67-3.427-5.67-3.054 0-3.428 3.55-3.428 5.67M324.695 528.829v-7.665c13.709-18.258 16.575-20.376 16.575-25.797 0-2.181-.81-4.237-3.304-4.237-3.612 0-3.8 3.427-3.8 6.231h-8.787c-.622-8.102 3.927-12.589 11.965-12.589 7.54 0 12.713 3.054 12.713 11.218 0 9.783-11.404 20.875-16.14 26.108h16.575v6.73zM193.116 300.887c-13.393 1.484-20.081 2.356-33.423 4.355v-30.539c11.455-1.716 17.193-2.48 28.687-3.817v-17.683c-11.494 1.338-17.232 2.101-28.687 3.818v-23.576c13.342-2 20.03-2.87 33.423-4.356v-17.683a880 880 0 0 0-57.615 8.328v107.161a879 879 0 0 1 57.615-8.325zM501.451 285.4l20.762-48.175c-9.821-2.687-14.747-3.958-24.624-6.355l-17.63 41.184V226.78c-9.6-2.123-14.412-3.116-24.055-4.966v107.169c9.643 1.85 14.455 2.843 24.055 4.966v-45.272l17.63 49.36c9.877 2.396 14.803 3.666 24.624 6.353zM57.747 323.359c0 17.372 19.023 18.766 31.981 15.112 15.894-4.483 31.979-12.823 31.979-32.992v-83.167c-16.021 3.123-24.006 4.872-39.906 8.747v17.683a748 748 0 0 1 15.864-3.712V310c0 7.498-3.117 9.662-7.937 10.79-4.823 1.127-7.927.42-7.927-7.078v-13.13l-24.071-7.889zM200.493 296.12c0 19.145 20.915 21.904 32.447 21.092 15.765-1.11 32.5-8.397 32.5-25.438V206.39c-16.244.456-24.364.87-40.58 2.076v17.684c6.46-.48 9.693-.691 16.16-1.053v64.97c0 7.5-3.17 9.142-8.08 9.462-4.914.32-8.08-.908-8.08-8.41v-13.13l-24.367-11.83zM279.374 291.607c0 17.855 18.453 23.64 32.526 24.018 15.489.416 32.504-5.504 32.504-22.027v-85.874c-9.76-.604-14.644-.838-24.414-1.17v82.654c0 7.5-3.174 8.856-8.09 8.734-4.918-.122-8.093-1.636-8.093-9.136v-82.654c-9.773-.152-14.66-.161-24.434-.042zM442.227 287.623c0-4.944-2.53-9.05-6.59-12.248l-31.475-24.792c-1.709-1.346-2.206-2.485-2.206-3.903v-8.978c0-7.5 3.156-8.577 8.04-7.904 4.883.671 8.03 2.615 8.03 10.115v7.016c9.697 1.425 14.538 2.206 24.202 3.903v-7.017c.432-19.997-14.865-28.604-32.233-31.702-15.247-2.72-32.358 2.306-32.358 20.4v13.401c0 4.822 2.227 8.44 6.64 11.807l31.546 24.071c1.663 1.27 2.203 2.54 2.203 3.936v12.328c0 7.5-3.147 8.501-8.03 7.83-4.887-.673-8.04-2.925-8.04-10.042v-7.888l-24.318-16.76v22.23c0 19.83 15.65 27.25 32.357 30.144 15.3 2.65 32.232-2.06 32.232-17.637zM273.218 133.119l2.006-39.59c.07-1.393-1.644-2.106-2.581-1.074l-29.334 32.288c-.34.375-.73.693-1.14.983l-97.738 37.662 15.058-14.78 49.084-38.252c1.205-.976 2.883.396 2.167 1.771l-14.212 21.434c-.648.977.54 2.124 1.494 1.443l15.308-10.925a.9.9 0 0 0 .294-.352l18.271-38.617c.667-1.41-1.015-2.763-2.25-1.81l-59.731 41.342-25.483 9.608 88.824-82.193 17.152 5.171h14.374l9.437 4.355 24.657 1.947 19.737-2.064 22.812-4.021 14.398-5.384 106.407 97.447-31.607-11.682-57.571-43.034-19.566-12.285c-1.206-.695-2.594.566-2.018 1.833l6.734 26.502 24.06 19.567c.954.614 2.073-.503 1.461-1.458l-15.532-24.23c-.623-1.03.787-2.307 1.85-1.584l69.468 58.167-29.008-4.718-78.282-39.349-29.086-40.09c-.91-1.275-2.918-.454-2.674 1.094l-.01 25.603z" class="st2"/></svg>