<?xml version="1.0" encoding="UTF-8" standalone="no"?>
<svg
   xmlns:dc="http://purl.org/dc/elements/1.1/"
   xmlns:cc="http://creativecommons.org/ns#"
   xmlns:rdf="http://www.w3.org/1999/02/22-rdf-syntax-ns#"
   xmlns:svg="http://www.w3.org/2000/svg"
   xmlns="http://www.w3.org/2000/svg"
   id="svg58"
   viewBox="0 0 245.74052 253.92759"
   style="clip-rule:evenodd;fill-rule:evenodd;image-rendering:optimizeQuality;shape-rendering:geometricPrecision;text-rendering:geometricPrecision"
   version="1.1"
   height="254"
   width="245.74052"
   xml:space="preserve"><metadata
   id="metadata62"><rdf:RDF><cc:Work
       rdf:about=""><dc:format>image/svg+xml</dc:format><dc:type
         rdf:resource="http://purl.org/dc/dcmitype/StillImage" /><dc:title></dc:title></cc:Work></rdf:RDF></metadata>
 <defs
   id="defs4">
  <style
   id="style2"
   type="text/css">
   <![CDATA[
    .fil1 {fill:#FFE200;fill-rule:nonzero}
    .fil0 {fill:#007545;fill-rule:nonzero}
    .fil2 {fill:#044686;fill-rule:nonzero}
   ]]>
  </style>
 </defs>
 <g
   transform="matrix(0.20145044,0,0,0.20145044,-126.92828,-227.3477)"
   id="ë_x00a0__x02c6_ì_x009d__x00b4_ì_x2013__x00b4__x0020_1">
  <metadata
   id="CorelCorpID_0Corel-Layer" />
  <path
   style="fill:#007545;fill-rule:nonzero"
   id="path7"
   d="m 1240,1747 c -130,0 -259,13 -386,38 103,235 250,387 386,464 135,-77 282,-229 385,-464 -127,-25 -256,-38 -385,-38 z"
   class="fil0" />
  <path
   style="fill:#007545;fill-rule:nonzero"
   id="path9"
   d="m 1549,1331 c -58,6 -149,12 -309,-98 -161,110 -252,104 -310,98 l -59,60 c 96,-17 225,-27 369,-27 143,0 272,10 368,27 z"
   class="fil0" />
  <path
   style="fill:#007545;fill-rule:nonzero"
   id="path11"
   d="m 831,1398 93,-99 c 0,0 116,41 316,-110 199,151 315,110 315,110 l 94,99 c 4,1 8,2 11,3 l -92,-143 c -20,9 -120,46 -328,-122 -209,168 -309,131 -329,122 l -92,143 c 4,-1 7,-2 12,-3 z"
   class="fil0" />
  <path
   style="fill:#007545;fill-rule:nonzero"
   id="path13"
   d="m 1240,2377 c 0,0 331,-158 419,-585 0,0 -4,0 -4,-1 -145,371 -383,493 -415,509 -32,-16 -271,-138 -416,-509 0,1 -4,1 -4,1 88,427 420,585 420,585 z"
   class="fil0" />
  <path
   style="fill:#ffe200;fill-rule:nonzero"
   id="path15"
   d="m 1406,1963 c -5,-65 -41,-79 -65,-69 -18,7 -24,26 -15,39 -17,-6 -31,0 -36,13 -5,13 2,28 17,30 10,1 20,-4 18,-15 -1,3 -8,7 -14,5 -6,-2 -8,-8 -7,-12 1,-5 5,-9 12,-10 8,0 16,4 18,12 6,16 -10,34 -34,28 -22,-5 -46,-34 -38,-55 4,-10 17,-13 23,-7 1,-12 -11,-19 -22,-19 0,0 7,-2 8,-8 0,-4 -2,-9 -10,-11 -20,-6 -43,9 -47,-2 0,0 -11,16 25,16 -19,3 -17,19 -29,22 -4,1 -11,0 -11,-6 5,1 11,-5 8,-11 -5,-6 -15,-3 -17,6 -3,15 14,30 42,20 -15,6 -17,24 -5,33 -2,-5 2,-14 7,-17 0,0 0,18 10,31 -12,-9 -27,-9 -40,-2 3,-8 0,-19 -8,-25 -9,-7 -23,-10 -33,-2 -16,13 -6,33 6,32 -3,-1 -7,-11 1,-16 7,-5 14,-1 17,3 4,7 1,18 -9,23 0,0 -21,9 -34,-13 -7,-11 -10,-29 -5,-48 2,-5 10,-34 43,-42 0,0 -4,-7 -15,-5 1,-1 2,-1 3,-2 35,-31 82,-33 110,-22 0,0 -45,-29 -100,-2 -65,32 -75,108 -44,140 17,16 38,14 43,13 -2,6 2,20 11,24 -35,1 -71,-27 -75,-49 2,34 37,71 90,65 26,-3 44,-20 37,-41 -4,-13 -18,-19 -29,-10 -7,6 -5,16 1,18 9,3 16,-4 16,-11 7,9 2,21 -10,23 -16,4 -27,-11 -25,-22 2,-12 9,-18 18,-21 19,-6 37,6 41,20 9,32 -14,55 -49,59 -30,4 -62,-8 -86,-32 -36,-35 -40,-114 -2,-129 -3,-5 -13,-6 -18,0 7,-34 54,-81 85,-70 -1,-8 -7,-10 -13,-9 23,-11 97,-29 167,13 -33,-29 -76,-44 -123,-39 -64,7 -119,51 -136,110 -14,45 -5,88 12,117 22,37 60,53 85,61 16,4 12,19 -14,14 -22,-5 -48,-23 -63,-40 9,15 20,27 33,38 40,33 73,18 75,5 1,-5 -3,-10 -6,-13 15,3 35,4 53,0 -4,3 -3,8 0,11 13,9 36,-2 43,1 11,5 -30,37 -106,26 37,15 85,12 124,-9 11,-5 17,-14 14,-23 -2,-7 -11,-12 -24,-10 -14,1 -27,4 -29,0 -1,-2 0,-5 4,-8 18,-13 39,-41 20,-75 23,7 56,-7 58,-36 8,33 -4,73 -22,94 44,-37 43,-101 30,-127 1,6 -5,11 -9,12 -9,2 -15,-4 -17,-8 -4,-9 2,-19 9,-22 19,-7 34,5 40,32 12,56 -10,112 -45,142 35,-16 67,-69 62,-126 z m -168,-60 v 0 c 13,2 22,1 22,1 -4,17 -22,-1 -22,-1 z"
   class="fil1" />
  <polygon
   style="fill:#044686;fill-rule:nonzero"
   id="polygon17"
   points="851,1428 851,1485 863,1485 863,1461 890,1461 890,1485 902,1485 902,1428 890,1428 890,1450 863,1450 863,1428 "
   class="fil2" />
  <path
   style="fill:#044686;fill-rule:nonzero"
   id="path19"
   d="m 1172,1439 h 24 v 17 h -27 v -14 c 0,0 0,-1 1,-2 0,-1 1,-1 2,-1 z m -12,-8 v 0 c -3,3 -3,7 -3,9 v 45 h 12 v -18 h 27 v 18 h 12 v -57 h -39 c -3,0 -7,1 -9,3 z"
   class="fil2" />
  <path
   style="fill:#044686;fill-rule:nonzero"
   id="path21"
   d="m 1072,1428 h -39 v 57 h 12 v -46 h 24 c 1,0 2,0 2,1 1,1 1,2 1,2 v 43 h 12 v -45 c 0,-2 0,-6 -3,-9 -2,-2 -6,-3 -9,-3 z"
   class="fil2" />
  <path
   style="fill:#044686;fill-rule:nonzero"
   id="path23"
   d="m 1009,1470 c 0,1 0,2 0,3 -1,1 -2,1 -3,1 h -23 v -46 h -13 v 57 h 39 c 4,0 7,-1 10,-3 3,-3 3,-7 3,-9 v -45 h -13 z"
   class="fil2" />
  <path
   style="fill:#044686;fill-rule:nonzero"
   id="path25"
   d="m 1134,1470 c 0,1 0,2 0,3 -1,1 -2,1 -3,1 h -23 v -35 h 23 c 1,0 2,0 3,1 0,1 0,2 0,2 z m 13,-30 v 0 c 0,-2 -1,-6 -3,-9 -3,-2 -6,-3 -10,-3 h -39 v 57 h 39 c 4,0 7,-1 10,-3 2,-3 3,-7 3,-9 z"
   class="fil2" />
  <polygon
   style="fill:#044686;fill-rule:nonzero"
   id="polygon27"
   points="930,1464 930,1485 943,1485 943,1464 966,1428 951,1428 936,1453 921,1428 906,1428 "
   class="fil2" />
  <polygon
   style="fill:#044686;fill-rule:nonzero"
   id="polygon29"
   points="1221,1428 1221,1485 1234,1485 1234,1428 "
   class="fil2" />
  <path
   style="fill:#044686;fill-rule:nonzero"
   id="path31"
   d="m 1556,1452 c 0,1 0,2 0,2 -1,1 -2,1 -3,1 h -24 v -15 h 24 c 1,0 2,0 3,1 0,0 0,1 0,1 z m 2,14 v 0 c 3,0 5,-1 7,-3 3,-2 3,-6 3,-8 v -15 c 0,-2 0,-6 -3,-9 -2,-2 -6,-3 -10,-3 h -38 v 57 h 12 v -18 h 16 l 12,18 h 13 z"
   class="fil2" />
  <polygon
   style="fill:#044686;fill-rule:nonzero"
   id="polygon33"
   points="1415,1485 1428,1485 1428,1440 1447,1440 1447,1428 1396,1428 1396,1440 1415,1440 "
   class="fil2" />
  <polygon
   style="fill:#044686;fill-rule:nonzero"
   id="polygon35"
   points="1279,1449 1291,1485 1302,1485 1314,1449 1314,1485 1327,1485 1327,1428 1310,1428 1296,1468 1283,1428 1266,1428 1266,1485 1279,1485 "
   class="fil2" />
  <path
   style="fill:#044686;fill-rule:nonzero"
   id="path37"
   d="m 1494,1470 c 0,1 0,1 -1,2 0,0 -1,0 -3,0 h -20 c -1,0 -2,0 -2,0 -1,-1 -1,-1 -1,-2 v -27 c 0,-1 0,-1 1,-2 0,-1 1,-1 2,-1 h 20 c 2,0 3,0 3,1 1,1 1,1 1,2 z m 9,-39 v 0 c -2,-2 -6,-3 -9,-3 h -27 c -3,0 -7,1 -9,3 -3,3 -3,7 -3,9 v 33 c 0,2 0,6 3,9 2,2 6,3 9,3 h 27 c 3,0 7,-1 9,-3 3,-3 3,-7 3,-9 v -33 c 0,-2 0,-6 -3,-9 z"
   class="fil2" />
  <path
   style="fill:#044686;fill-rule:nonzero"
   id="path39"
   d="m 1376,1470 c 0,1 0,1 -1,2 0,0 -1,0 -2,0 h -20 c -1,0 -2,0 -3,0 0,-1 0,-1 0,-2 v -27 c 0,-1 0,-1 0,-2 1,-1 2,-1 3,-1 h 20 c 1,0 2,0 2,1 1,1 1,1 1,2 z m 10,-39 v 0 c -3,-2 -6,-3 -10,-3 h -26 c -4,0 -8,1 -10,3 -3,3 -3,7 -3,9 v 33 c 0,2 0,6 3,9 2,2 6,3 10,3 h 26 c 4,0 7,-1 10,-3 2,-3 2,-7 2,-9 v -33 c 0,-2 0,-6 -2,-9 z"
   class="fil2" />
  <path
   style="fill:#044686;fill-rule:nonzero"
   id="path41"
   d="m 1617,1451 h -24 c -2,0 -3,-1 -3,-3 v -6 c 0,-2 1,-3 3,-3 h 32 v -11 h -35 c -8,0 -13,4 -13,13 v 9 c 0,8 4,12 12,12 h 24 c 2,0 3,1 3,3 v 6 c 0,2 -1,3 -3,3 h -33 v 11 h 36 c 8,0 13,-4 13,-13 v -9 c 0,-8 -4,-12 -12,-12 z"
   class="fil2" />
  <path
   style="fill:#007545;fill-rule:nonzero"
   id="path43"
   d="m 1436,1522 h -122 c 0,0 15,7 15,25 v 165 c 36,1 71,4 107,7 24,2 38,-7 38,-25 v -46 c 0,-18 -10,-27 -35,-30 25,0 35,-9 35,-27 v -41 c 0,-18 -14,-29 -38,-28 z m -14,157 v 0 c 0,4 -4,6 -9,6 -11,-1 -21,-1 -32,-2 v -52 c 11,1 21,1 31,2 6,0 10,2 10,7 z m 0,-84 v 0 c 0,4 -4,7 -9,6 -11,0 -21,0 -32,0 v -48 c 11,0 21,0 31,0 6,0 10,3 10,7 z"
   class="fil0" />
  <path
   style="fill:#007545;fill-rule:nonzero"
   id="path45"
   d="M 1084,1522 H 952 c 0,0 14,7 14,25 v 149 c 0,22 14,29 38,26 27,-3 53,-5 80,-7 24,-1 38,-13 38,-31 0,-46 0,-90 0,-135 0,-17 -14,-27 -38,-27 z m -14,156 v 0 c 0,4 -3,7 -9,7 -12,1 -22,2 -34,3 -6,0 -9,-2 -9,-7 v -120 c 0,-4 3,-7 9,-7 12,0 23,0 34,-1 6,0 9,3 9,7 z"
   class="fil0" />
  <path
   style="fill:#007545;fill-rule:nonzero"
   id="path47"
   d="m 1597,1694 c 0,4 -4,7 -10,6 -10,-1 -19,-2 -28,-4 -6,0 -10,-3 -10,-8 v -166 h -67 c 0,0 15,7 15,26 0,0 0,99 0,148 0,18 14,30 39,33 25,4 50,7 75,11 24,5 38,-5 38,-25 0,-66 0,-193 0,-193 h -52 z"
   class="fil0" />
  <path
   style="fill:#007545;fill-rule:nonzero"
   id="path49"
   d="m 1249,1626 c -19,-35 -38,-69 -57,-104 h -61 c 0,0 15,7 15,25 v -1 c 0,13 0,166 0,166 17,-1 34,-1 52,-2 v -104 c 18,35 36,69 55,104 1,0 32,0 48,1 v -189 h -52 c 0,35 0,69 0,104 z"
   class="fil0" />
  <path
   style="fill:#007545;fill-rule:nonzero"
   id="path51"
   d="m 730,1552 v 175 c -20,4 -42,8 -63,13 -9,16 -18,32 -27,49 34,-9 71,-17 106,-25 24,-6 38,-20 38,-44 v -198 h -82 z"
   class="fil0" />
  <path
   style="fill:#007545;fill-rule:nonzero"
   id="path53"
   d="m 797,1522 c 0,0 14,8 14,30 v 198 c 43,-8 86,-15 129,-20 v -34 c -25,3 -50,6 -75,9 v -54 c 22,-2 43,-4 65,-6 v -37 c -22,1 -43,3 -65,4 v -55 c 25,0 50,-1 75,-1 v -34 z"
   class="fil0" />
  <path
   style="fill:#007545;fill-rule:nonzero"
   id="path55"
   d="m 1765,1646 68,-124 h -56 l -53,97 v -97 h -65 c 0,-1 12,8 13,30 0,0 0,0 0,0 0,90 0,200 0,200 17,3 35,6 52,10 v -101 l 59,114 c 18,5 38,10 57,14 z"
   class="fil0" />
 </g>
</svg>