<svg xmlns="http://www.w3.org/2000/svg" width="786.79333" height="788.71478" x="0px" y="0px" viewBox="0 0 786.79333 788.71478"><g style="display:inline"><path d="m0 0 .509-2.884C4.89-26.665 32.592-147.892 148.583-206.81 264.557-147.884 292.234-26.831 296.606-3.097l.529 2.791 2.777-.473c14.144-2.41 50.384-12.04 65.071-16.003l-32.244 62.734 27.696 51.093h-55.661l.103 20.519-44.273 69.254c-6.253-3.744-13.447-5.655-21.463-5.661-22.896.006-52.517 15.151-90.552 46.271-38.032-31.12-67.66-46.271-90.547-46.265-8.023-.006-15.194 1.911-21.438 5.655l-44.333-69.241-.004-20.539-42.914.007 21.748-23.841V27.251l-2.325-.465c-2.822-.561-11.545-2.424-14.838-3.104l-22.127-40.578C-47.347-11.235-19.966-4.135-2.897-.599z" style="fill:#fff;fill-opacity:1;fill-rule:nonzero;stroke:none" transform="matrix(1.8025 0 0 -1.8025 125.91 412.94)"/><path d="M0 0a643.26 643.26 0 0 1-126.988-12.666C-92.984-90.324-44.567-140.552-.004-166.372c44.537 25.813 92.962 76.055 126.972 153.713A644 644 0 0 1 0 0" style="fill:#034f36;fill-opacity:1;fill-rule:nonzero;stroke:none" transform="matrix(1.8025 0 0 -1.8025 393.765 390.288)"/><path d="M0 0c-18.906-1.905-49.074-3.904-101.796 32.659C-154.508-3.904-184.704-1.919-203.61 0l-19.587-19.626c31.529 5.381 74.275 8.697 121.401 8.697 47.085-.006 89.83-3.316 121.383-8.697z" style="fill:#034f36;fill-opacity:1;fill-rule:nonzero;stroke:none" transform="matrix(1.8025 0 0 -1.8025 577.246 142.27)"/><path d="m0 0 30.777 32.779S69.09 19.38 134.693 69.127c65.581-49.747 103.913-36.348 103.913-36.348L269.361 0c1.313-.292 2.596-.572 3.878-.852l-30.342 47.397c-6.606-3.104-39.462-15.285-108.204 40.265C65.952 31.26 33.079 43.435 26.478 46.552L-3.871-.852C-2.583-.58-1.317-.272 0 0" style="fill:#034f36;fill-opacity:1;fill-rule:nonzero;stroke:none" transform="matrix(1.8025 0 0 -1.8025 150.974 182.197)"/><path d="M0 0s108.957 52.238 138.213 193.731c-.122.046-1.288.039-1.414.079C89.05 71.06 10.516 30.768 0 25.334-10.538 30.768-89.064 71.06-136.836 193.81c-.143-.033-1.269-.033-1.389-.079C-109.007 52.238 0 0 0 0" style="fill:#034f36;fill-opacity:1;fill-rule:nonzero;stroke:none" transform="matrix(1.8025 0 0 -1.8025 393.758 766.172)"/><path d="M0 0c4.266-.632 7.196-.226 7.196-.226C5.753-6.04 0 0 0 0m55.356-19.932C53.659 1.852 41.642 6.22 33.684 2.957c-5.708-2.33-7.73-8.644-4.94-12.787-5.344 2.038-9.993-.04-11.707-4.395-1.734-4.235.798-9.256 5.537-9.83 3.426-.406 6.609 1.279 5.847 4.962-.297-1.032-2.373-2.431-4.359-1.824-2.215.645-2.796 2.677-2.535 4.055.324 1.605 1.809 3.09 4.203 3.183 2.597.114 4.986-1.311 5.864-3.889 1.754-5.174-3.299-11.068-11.205-9.338-7.278 1.62-15.272 11.443-12.686 18.288 1.347 3.491 5.827 4.389 7.759 2.325.112 4.035-3.842 6.486-7.29 6.479 0 0 2.363.559 2.502 2.625.062 1.251-.562 2.91-3.251 3.649C.969 8.345-6.756 3.523-7.881 7.079c0 0-3.773-5.287 8.088-5.287C-6.043.78-5.326-4.614-9.359-5.567c-1.308-.32-3.713-.007-3.484 1.959 1.492-.162 3.546 1.717 2.367 3.555-1.33 2.084-4.918 1.239-5.456-2.038-.85-4.974 4.72-9.769 13.921-6.341-4.863-2.183-5.685-8.223-1.776-11.108-.464 1.859.588 4.695 2.505 5.541 0 0-.219-5.973 3.132-10.242-3.867 3.024-8.923 3.07-13.107.765.783 2.831-.162 6.294-2.667 8.306-2.98 2.357-7.68 3.143-10.897.579-5.321-4.162-2.059-10.981 1.996-10.641-1.001.425-2.379 3.635.381 5.552 2.311 1.407 4.652.048 5.385-1.164 1.546-2.465.587-6.068-2.728-7.459 0 0-7.02-3.057-11.277 4.129-2.283 3.816-3.181 9.676-1.566 16.036.461 1.551 3.122 11.082 13.931 13.918 0 0-1.131 2.119-4.672 1.453.297.267.581.532.931.811 11.337 10.284 26.909 10.729 36.129 7.366 0 0-14.815 9.604-33.021.507-21.166-10.575-24.63-35.762-14.235-46.232 5.556-5.508 12.534-4.755 14.038-4.441-.565-2.045.614-6.641 3.599-7.765-11.38-.387-23.252 8.729-24.778 15.95.61-11.202 12.216-23.396 29.651-21.472 8.543.933 14.479 6.767 12.426 13.581-1.326 4.347-6.028 6.232-9.714 3.254-2.295-1.97-1.569-5.167.464-5.886 2.999-1.019 5.182 1.385 5.01 3.663 2.497-2.812.767-6.753-3.017-7.619-5.531-1.28-8.944 3.729-8.366 7.485.546 3.743 2.835 5.774 5.928 6.773 6.138 2.038 12.11-2.044 13.376-6.679C7.99-44.081.427-51.612-11.054-52.938c-9.785-1.164-20.298 2.605-28.249 10.662C-50.978-30.86-52.538-4.475-39.929.48c-1.002 1.431-4.276 1.891-5.993-.014 2.509 11.002 17.95 26.826 27.907 23.19-.222 2.47-2.282 3.289-4.07 3.036 7.619 3.417 31.839 9.271 54.832-4.542C22.139 31.747 7.675 36.882-7.635 35.229c-21.183-2.323-39.107-17.121-44.864-36.434-4.391-14.925-1.588-29.276 3.958-38.798 7.227-12.409 19.76-17.577 28.043-20.067 5.205-1.532 3.797-6.486-4.671-4.641-7.206 1.557-15.759 7.398-20.791 13a52.165 52.165 0 0 1 11.095-12.488c13.143-10.855 24.015-6.02 24.621-1.705.307 1.711-1.043 3.45-2.202 4.302 4.956-.906 11.827-1.125 17.476.186-1.071-1.184-.801-2.896.275-3.682 4.32-2.937 11.725.685 13.866-.366 3.822-1.831-9.537-12.468-34.816-8.665 12.398-4.974 28.171-4.109 41.017 2.831 3.546 1.879 5.558 4.821 4.538 7.825-.772 2.418-3.508 3.83-7.91 3.403-4.77-.452-8.928-1.358-9.534 0-.266.6.015 1.624 1.142 2.411 6.077 4.368 12.866 13.538 6.577 25.041 7.771-2.545 18.532 2.084 19.372 11.774 2.53-10.943-1.561-24.175-7.285-31.074 14.335 12.32 14.116 33.257 9.664 42.055.397-2.071-1.382-3.596-2.793-3.935-2.915-.727-4.852 1.271-5.504 2.65-1.302 2.797.354 6.1 2.912 7.086 6.078 2.317 11.048-1.398 12.991-10.509 3.919-18.387-3.109-36.929-14.651-46.845 11.28 5.056 21.928 22.77 20.465 41.484" style="fill:#fd0;fill-opacity:1;fill-rule:nonzero;stroke:none" transform="matrix(1.8025 0 0 -1.8025 392.996 483.475)"/><path d="M0 0h-8.734v7.318h-4.11l.004-18.773h4.106l-.003 7.766H0v-7.766h4.083L4.08 7.312l-4.078.006Z" style="fill:#004281;fill-opacity:1;fill-rule:nonzero;stroke:none" transform="matrix(1.8025 0 0 -1.8025 186.043 213.166)"/><path d="M0 0c-.866-.878-.886-2.176-.931-2.923v-14.771H3.17v5.981h8.684l-.003-5.981h4.101l-.011 18.767-12.749.007C1.985 1.08.838.9 0 0m4.221-2.603h7.633l-.003-5.428-8.681-.006.006 4.382c-.002.214-.023.613.119.852.204.226.53.207.926.2" style="fill:#004281;fill-opacity:1;fill-rule:nonzero;stroke:none" transform="matrix(1.8025 0 0 -1.8025 346.344 201.92)"/><path d="m0 0-12.795.006v-18.773h4.09v15.098h7.671c.405-.007.717.019.883-.233.202-.221.17-.62.17-.826v-14.039h4.072L4.087-3.983c.009.739-.016 2.038-.891 2.91C2.35-.187 1.208 0 0 0" style="fill:#004281;fill-opacity:1;fill-rule:nonzero;stroke:none" transform="matrix(1.8025 0 0 -1.8025 294.131 199.986)"/><path d="M0 0c-.016-.227.02-.625-.181-.826-.19-.265-.516-.252-.871-.259h-7.671l.003 15.117-4.117-.006-.007-18.767H-.062c1.228.007 2.38.2 3.239 1.066.856.892.871 2.17.917 2.93v14.771L0 14.032Z" style="fill:#004281;fill-opacity:1;fill-rule:nonzero;stroke:none" transform="matrix(1.8025 0 0 -1.8025 257.19 225.268)"/><path d="M0 0c-.022.747-.048 2.051-.904 2.93-.836.893-2.001 1.066-3.212 1.072l-12.782-.006.01-18.767h12.769c1.216 0 2.375.2 3.215 1.066.859.885.882 2.178.907 2.93L0 0m-4.077-10.03c0-.226.041-.625-.156-.825-.181-.266-.487-.26-.871-.253h-7.69L-12.798.327-5.104.32c.391.007.69.033.865-.2.213-.24.164-.646.162-.846z" style="fill:#004281;fill-opacity:1;fill-rule:nonzero;stroke:none" transform="matrix(1.8025 0 0 -1.8025 338.545 207.19)"/><path d="m0 0-4.968 8.211h-4.83l7.619-11.834v-6.939h4.4l-.007 6.939L9.843 8.211H4.994Z" style="fill:#004281;fill-opacity:1;fill-rule:nonzero;stroke:none" transform="matrix(1.8025 0 0 -1.8025 213.707 214.776)"/><path d="M0 0h4.346v18.773H.006Z" style="fill:#004281;fill-opacity:1;fill-rule:nonzero;stroke:none" transform="matrix(1.8025 0 0 -1.8025 382.534 233.814)"/><path d="M0 0c.842.094 1.637.373 2.282 1.019.833.866.892 2.171.888 2.89v4.788c0 .76-.059 2.038-.888 2.937-.881.873-2.005 1.046-3.202 1.053h-12.75l.004-18.774h4.103v6.061h5.246l4.004-6.061h4.329L0 0m-.704 4.622c-.025-.186-.036-.373-.152-.526-.204-.253-.513-.247-.874-.241l-7.833-.006v4.929l7.842.006c.355-.02.665.02.865-.232.116-.14.128-.361.155-.528z" style="fill:#004281;fill-opacity:1;fill-rule:nonzero;stroke:none" transform="matrix(1.8025 0 0 -1.8025 582.86 222.842)"/><path d="m0 0-.003-4.102 6.385-.007-.003-14.664h4.088l.004 14.671h6.41L16.874 0Z" style="fill:#004281;fill-opacity:1;fill-rule:nonzero;stroke:none" transform="matrix(1.8025 0 0 -1.8025 486.573 199.975)"/><path d="m0 0 .005-18.774 4.119.007-.002 11.888 3.981-11.888h3.603l4.003 11.893.007-11.893h4.094L19.803.006h-5.431L9.914-13.226 5.433 0Z" style="fill:#004281;fill-opacity:1;fill-rule:nonzero;stroke:none" transform="matrix(1.8025 0 0 -1.8025 409.694 199.986)"/><path d="M0 0c-.855.879-1.977 1.072-3.181 1.072l-8.69-.006c-1.198.006-2.332-.187-3.158-1.073-.905-.865-.92-2.137-.944-2.91l.004-10.795c.02-.766.046-2.031.944-2.93.825-.853 1.952-1.052 3.154-1.059h8.694c1.2 0 2.322.2 3.177 1.052.861.906.888 2.171.91 2.937V-2.91C.897-2.144.865-.879 0 0m-3.184-12.806a.967.967 0 0 0-.17-.579c-.166-.208-.459-.2-.866-.214l-6.622.006c-.384 0-.683 0-.887.208a1.237 1.237 0 0 0-.139.579l-.003 9.004c0 .173.044.379.144.532.198.248.511.248.881.248h6.636c.397 0 .69 0 .856-.248a.753.753 0 0 0 .166-.532z" style="fill:#004281;fill-opacity:1;fill-rule:nonzero;stroke:none" transform="matrix(1.8025 0 0 -1.8025 550.243 201.908)"/><path d="M0 0c-.862.879-1.974 1.072-3.213 1.072l-8.626-.006c-1.236.006-2.353-.187-3.213-1.066-.868-.872-.89-2.15-.89-2.917v-10.801c.003-.754.022-2.025.894-2.931.856-.852 1.969-1.045 3.209-1.052l8.624-.007c1.241.007 2.353.207 3.208 1.059.853.906.892 2.171.911 2.931L.911-2.91C.885-2.144.846-.872 0 0m-3.181-12.806c-.034-.193-.034-.401-.132-.579-.202-.208-.53-.2-.874-.214h-6.667c-.358.014-.658 0-.875.214-.11.186-.11.392-.165.579v9.004c.055.166.055.379.165.525.217.255.513.255.875.248l6.66.007c.351-.007.679 0 .878-.248.101-.16.097-.366.131-.532z" style="fill:#004281;fill-opacity:1;fill-rule:nonzero;stroke:none" transform="matrix(1.8025 0 0 -1.8025 480.416 201.908)"/><path d="m0 0-7.798-.006c-.713.006-1.068.373-1.068 1.1l-.003 1.883c.011.666.352 1.013 1.054 1.006l10.714.007-.003 3.636-11.691.006c-2.751 0-4.148-1.378-4.139-4.162l-.009-3.11c0-2.604 1.359-3.875 3.964-3.882h7.761c.72.007 1.057-.333 1.059-1.012l-.002-1.905c0-.713-.337-1.08-1.082-1.085l-10.929.005v-3.622H-.207c2.748 0 4.117 1.392 4.117 4.163l-.004 3.149C3.913-1.264 2.593 0 0 0" style="fill:#004281;fill-opacity:1;fill-rule:nonzero;stroke:none" transform="matrix(1.8025 0 0 -1.8025 617.515 213.732)"/><path d="M0 0c.033-1.438-1.125-2.238-3.053-2.144-3.564.086-6.859.186-10.412.259l.003 15.77c3.535-.059 6.806-.099 10.357-.145 1.944-.035 3.084-.866 3.109-2.312zm0-27.717c.026-1.445-1.132-2.192-3.073-2.059-3.561.228-6.841.426-10.389.62l-.003 17.103c3.551-.108 6.805-.267 10.334-.407 1.95-.081 3.11-.973 3.129-2.431zm4.501 51.998h-39.988s4.882-2.398 4.882-8.29l.005-54.718a753.71 753.71 0 0 0 35.217-2.211c7.936-.725 12.547 2.251 12.478 8.193l.007 15.064c-.048 5.939-3.109 9.183-11.558 9.989 8.449.06 11.616 2.89 11.551 8.858l.01 13.692c-.045 5.966-4.729 9.444-12.604 9.423" style="fill:#034f36;fill-opacity:1;fill-rule:nonzero;stroke:none" transform="matrix(1.8025 0 0 -1.8025 501.975 299.537)"/><path d="M0 0c.011-1.406-1.136-2.337-3.119-2.477A478.1 478.1 0 0 1-14.14-3.27c-1.97-.167-3.11.606-3.11 2.064l-.002 39.805c.019 1.465 1.161 2.371 3.16 2.358 3.716.086 7.271.119 11.016.18 1.976 0 3.096-.806 3.083-2.231zm4.659 51.679-43.723.007s4.723-2.424 4.716-8.399l-.004-49.295c.011-7.211 4.557-9.583 12.466-8.724a798.804 798.804 0 0 0 26.342 2.291c7.936.533 12.662 4.382 12.662 10.489.004 15.085-.077 29.503.007 44.661.016 5.66-4.591 8.97-12.466 8.97" style="fill:#034f36;fill-opacity:1;fill-rule:nonzero;stroke:none" transform="matrix(1.8025 0 0 -1.8025 293.28 348.933)"/><path d="M0 0c.02-1.611-1.127-2.391-3.09-2.117-3.244.399-6.222.805-9.469 1.178-1.973.233-3.134 1.272-3.154 2.796l.006 55.077h-22.034s4.817-2.457 4.905-8.858c.028.034.025-32.533.025-48.836.059-6.006 4.765-10.022 12.665-11.088a733.34 733.34 0 0 0 24.905-3.683c7.865-1.35 12.42 1.699 12.355 8.419 0 21.716-.009 64.039-.009 64.039H-.009Z" style="fill:#034f36;fill-opacity:1;fill-rule:nonzero;stroke:none" transform="matrix(1.8025 0 0 -1.8025 605.654 358.393)"/><path d="M0 0c-6.257 11.588-12.378 23.103-18.58 34.696h-20.152s4.794-2.33 4.788-8.291l.009.033c-.009-4.016-.026-54.762-.026-54.762 5.728.22 11.374.4 17.102.519l.008 34.597C-10.69-4.702-4.758-16.156 1.485-27.711c.066 0 10.46-.114 15.626-.261l-.003 62.668H-.02C.003 23.121-.004 11.588 0 0" style="fill:#034f36;fill-opacity:1;fill-rule:nonzero;stroke:none" transform="matrix(1.8025 0 0 -1.8025 399.23 318.322)"/><path d="m0 0 .002-57.906c-6.788-1.272-13.901-2.671-20.652-4.129-3.018-5.341-6.095-10.829-9.103-16.489 11.403 3.109 23.447 5.953 34.967 8.531 7.794 1.745 12.478 6.466 12.478 14.584v65.585l-26.977-.007Z" style="fill:#034f36;fill-opacity:1;fill-rule:nonzero;stroke:none" transform="matrix(1.8025 0 0 -1.8025 91.453 274.112)"/><path d="M0 0s4.714-2.79 4.714-9.982v.033-65.832c14.008 2.691 28.246 4.962 42.354 6.833L47.065-57.7a862.853 862.853 0 0 1-24.63-3.076v17.821c7.254.726 14.218 1.379 21.476 1.958v12.341c-7.261-.427-14.228-.88-21.485-1.386l-.082 18.181c8.195.227 16.534.426 24.73.599V-.007z" style="fill:#034f36;fill-opacity:1;fill-rule:nonzero;stroke:none" transform="matrix(1.8025 0 0 -1.8025 130.955 255.77)"/><path d="m0 0 22.264 41.11-18.326-.006-17.663-32.346-.016 32.346h-21.231s4.062-2.771 4.123-10.017l.033.007c0-29.849-.023-66.137-.023-66.137 5.644-1.085 11.497-2.244 17.121-3.463l.004 33.537L5.825-42.902c6.017-1.492 12.611-3.056 18.6-4.688z" style="fill:#034f36;fill-opacity:1;fill-rule:nonzero;stroke:none" transform="matrix(1.8025 0 0 -1.8025 705.76 329.871)"/></g></svg>