<svg xmlns="http://www.w3.org/2000/svg" width="94.099663mm" height="119.61331mm" viewBox="0 0 94.099663 119.61331"><path d="M847.756 287.724h-13.651s-10.919-11.899-12.948-14.124v14.124H806.335c-.463 0-.339-.379 0-.68 1.078-.917 2.72-2.65 2.72-4.649v-27.66c0-1.774 1.248-3.129 3.133-3.129h8.969v14.115c2.029-2.226 12.948-14.115 12.948-14.115h13.651s-15.316 17.173-16.114 18.061c.798.891 16.114 18.057 16.114 18.057M955.307 269.657c0-12.553 8.883-19.116 17.668-19.116 5.302 0 10.972 1.651 14.81 4.314l.3.202v16.314h-11.623v-6.657h4.378v-4.507c-1.977-1.289-4.365-2.002-6.944-2.002-5.311 0-10.668 3.904-10.668 11.355 0 6.968 3.986 11.666 9.938 11.666 5.265 0 9.592-2.634 11.216-3.768l.575-.411 3.196 7.341-.545.323c-.285.159-7.17 3.976-13.988 3.976-9.097 0-18.313-6.535-18.313-19.03M870.089 258.837v28.887h-10.872c-.461 0-.346-.379-.003-.68 1.066-.917 2.721-2.65 2.721-4.649v-28.346c0-1.52.815-2.443 2.445-2.443h22.697v7.231h-16.988M899.56 258.837v7.092h13.739v7.884H899.56v6.68h15.446v7.231H888.687c-.452 0-.33-.379-.003-.68 1.071-.917 2.719-2.65 2.719-4.649v-28.346c0-1.727.689-2.443 2.459-2.443h22.162v7.231H899.56M1015.9 287.724v-20.341c0-5.585-1.02-9.087-7.01-9.087-5.88 0-7.77 2.916-7.77 8.895v20.533h-10.791c-.469 0-.351-.379 0-.68 1.068-.917 2.709-2.65 2.709-4.649V265.99c0-10.328 4.593-15.54 15.802-15.54 11.17 0 15.14 4.823 15.14 15.54v21.734h-8.08M933.175 266.583c.497 1.581 3.946 12.371 4.202 13.169h1.172c.266-.798 3.72-11.588 4.233-13.169h-9.607zm10.435 21.141h-14.021c-.45 0-.326-.379 0-.68 1.064-.91 1.438-2.951.764-4.938l-10.64-30.5h8.651s2.123 6.613 2.385 7.422h14.414c.268-.809 2.389-7.422 2.389-7.422h8.669l-12.611 36.118M1038.16 258.837v7.092h13.73v7.884h-13.73v6.68h15.44v7.231h-26.32c-.46 0-.34-.379 0-.68 1.07-.917 2.72-2.65 2.72-4.649v-28.346c0-1.727.69-2.443 2.45-2.443h22.17v7.231h-16.46" style="fill:#ededed;fill-opacity:1;fill-rule:nonzero;stroke:none;stroke-width:.1" transform="matrix(.35278 0 0 -.35278 -282.335 207.967)"/><path d="M801.339 447.226c.989-.684 38-26.538 38.884-27.154.884-.615 1.925-1.286 2.692.462 9.654 22 21.077 40.98 32.038 57.075 10.961 16.097 31.538 40.23 54.749 57.461 1.607 1.194 1.595.807 1.595 3.154 0 2.346.732 47.651.732 49.498 0 1.404-.834 2.525-2.077 1.193-17.096-18.308-24.693-28.999-36.154-47.461-11.46-18.461-24.383-43.383-24.922-44.383-.538-1-1.077-1.462-3.231-2.615-2.153-1.155-14.268-7.462-29.499-17.769-15.23-10.308-32.461-24.885-33.884-26-1.423-1.115-3.038-2-.923-3.461" style="fill:#ed202a;fill-opacity:1;fill-rule:nonzero;stroke:none;stroke-width:.1" transform="matrix(.35278 0 0 -.35278 -282.335 207.967)"/><path d="M1064.91 551.569c-28.97.383-64.21-4.027-100.675-21.269-11.429-5.404-22.98-12.072-34.495-20.244 8.736 4.536 21.1 10.661 29.753 13.727 14.734 5.22 31.153 7.704 34.394 8.083 3.243.379 1.053-1.011-.547-1.979-1.599-.968-21.68-14.987-35.004-27.112-13.325-12.124-24.123-22.165-41.447-44.624-.936-1.214-1.791-2.248-.674-5.136 14.208-36.753 26.964-57.276 42.373-77.925 1.693-2.269.884-2.337-.695-1.516-1.579.822-2.189 1.095-13.388 7.83-11.198 6.737-37.467 23.997-53.422 40.121-2.074 2.095-2.745 2.17-5.01.126-9.515-8.588-24.333-22.818-34.69-37.468-1.834-2.594-1.768-.505-1.684 1.263.085 1.768.422 8.756 1.095 14.903 1.007 9.014 2.347 15.809 3.242 19.756a199.09 199.09 0 0 1-9.159-23.647c-2.951-9.37-7.976-27.923-7.976-54.002 0-8.69.013-13.669.483-15.632.327-1.365 1.258-1.026 2.522 1.164 1.15 1.993 6.187 10.57 13.528 20.856 9.146 12.814 21.749 28.441 32.749 37.614 1.282 1.069 2.212 2.394 4.308.23 2.391-2.468 13.307-12.23 44.614-31.768 31.308-19.538 69.385-34.691 98.455-42.384 7.87-2.08 5.58 1.255 3.39 3.308-19.96 18.692-47.374 56.06-59.884 76.499-20.269 33.114-26.5 52.344-27.346 54.344-.845 2-.415 3.211.866 4.904 1.396 1.846 11.942 15.865 29.076 32.711 17.135 16.845 45.438 39.23 65.518 51.922 12.64 7.991 15.78 10.653 19.46 12.845 1.81 1.08 2.42 1.26 2.42 1.847 0 .677-1.03.639-2.15.653" style="fill:#ededed;fill-opacity:1;fill-rule:nonzero;stroke:none;stroke-width:.1" transform="matrix(.35278 0 0 -.35278 -282.335 207.967)"/></svg>