<svg height="326.28254" viewBox="0 0 209.77092 223.19739" width="306.482841" xmlns="http://www.w3.org/2000/svg"><g transform="matrix(3.6297568 0 0 3.6297568 3.000001 -39.09429)"><path d="m56.139 26.5-1.855-2.385c-.004-.007-9.809-12.518-9.809-12.518l-1.9.757s-.833.333-.862.343c-.056.027-5.735 2.208-13.653 2.253-7.887-.045-13.579-2.229-13.628-2.253.01.005-.854-.341-.854-.341l-1.894-.758-11.684 14.893 1.808 2.434c.016.028 3.189 4.521 5.445 14.15l-.026-.144c2.573 14.511 14.843 24.232 18.541 26.866l2.305 1.638 2.301-1.638c3.703-2.635 15.972-12.355 18.564-26.931l-.033.143c2.248-9.564 5.414-14.063 5.452-14.104z" fill="#d1d1d1"/><path d="m42.725 15.24c-.067.026-6.104 2.391-14.653 2.445-8.542-.055-14.585-2.421-14.644-2.445l-.864-.344-9.123 11.642.563.759c.036.049 3.485 4.791 5.915 15.155 2.381 13.482 13.944 22.633 17.437 25.114l.717.514.721-.514c3.488-2.478 15.044-11.625 17.453-25.182 2.409-10.297 5.858-15.039 5.903-15.087l.563-.759-.588-.744-8.536-10.899z" fill="#fff"/><path d="m51.152 26.558s-3.597 4.804-6.128 15.617c-2.44 13.727-14.911 22.929-16.952 24.381-2.038-1.452-14.512-10.659-16.956-24.381-2.526-10.813-6.12-15.617-6.12-15.617l7.972-10.167s6.185 2.481 15.103 2.535c8.915-.054 15.111-2.535 15.111-2.535z"/><path d="m41.883 31.836c-.814.865-2.081 2.384-3.169 4.48-1.096 2.25-1.862 4.713-1.988 7.859-4.613-4.53-3.14-9.535-3.14-9.535s-4.237.497-6.961.109c0 0-.318 4.293 4.202 7.552 7.024 5.044 6.787 8.726 5.465 11.536-1.079 2.318-5.266 6.3-8.21 8.744 0 0-13.188-9.878-14.505-22.243 0 0 2.01 4.48 7.687 6.571 0 0 6.532 2.392 5.584 7.466 5.482-3.753 3.314-9.089-2.156-12.406-4.254-2.585-6.469-6.07-7.655-8.934 0 0-1.005-2-2.425-2.39.76.052 1.968.565 2.559.709.906.259 1.86.464 1.86.464 11.083 1.982 19.536.299 22.536-.474.76-.197 1.408-.45 1.408-.45s-.575.403-1.092.942z" fill="#fb342e"/><path d="m21.939 42.833c-4.071-2.673-5.134-4.346-6.537-7.535-1.147-2.592-2.711-4.81-6.647-6.644 2.261 1.847 2.731 3.008 3.829 5.859 0 .013 1.021 2.958 2.267 4.614 1.099 1.512 2.676 2.853 4.834 3.816 1.399.625 4.278 1.774 5.971 2.809 0 0-2.51-2.231-3.717-2.919z" fill="#faa74a"/><path d="m20.32 20.874.172.037c.162.031.19.06.128.359-.055.232-.102.274-.258.239l-.172-.036zm-.211.986.159.031c.656.142.897.078.97-.3l.083-.402c.083-.38-.105-.53-.764-.669l-.84-.174-.44 2.122.678.142z" fill="#fff"/><path d="m23.255 21.465c.015-.091.072-.118.213-.095.139.015.196.061.187.139l-.162 1.215c-.003.089-.071.111-.212.094-.135-.018-.196-.058-.18-.139zm-.844 1.127c-.045.401.216.539.821.621.6.074.886.005.948-.397l.153-1.219c.06-.404-.216-.54-.814-.618-.601-.076-.9-.008-.947.392z" fill="#fff"/><path d="m25.729 21.242.687.024-.04.838.404.01.025-.833.698.026-.073 2.158-.696-.019.032-.934-.39-.013-.035.926-.695-.016z" fill="#fff"/><path d="m29.771 21.672h.016l.162 1.024-.336.004zm-.291 1.805.068-.383.476-.005.09.377.713-.01-.613-2.154-.917.015-.523 2.176z" fill="#fff"/><path d="m33.442 21.042.649-.082.245 2.157-.853.099-.771-1.435h-.008l.171 1.501-.65.073-.245-2.148.869-.1.755 1.447h.015z" fill="#fff"/><path d="m37.584 22.519-.444.09-.125-.14c-.109.163-.213.25-.509.311-.391.076-.682-.02-.742-.29l-.254-1.283c-.073-.354.138-.55.748-.676.661-.13.923-.029.995.323l.027.13-.677.135-.023-.128c-.016-.08-.083-.098-.221-.072-.14.023-.192.069-.176.151l.247 1.202c.014.084.077.105.22.078.139-.029.193-.075.174-.158l-.097-.45-.199.04-.075-.389.871-.175z" fill="#fff"/><path d="m47.245 29.201s-8.618 6.885-8.584 18.928c0 0 2.255-1.905 3.789-9.032-.001.001 1.668-6.772 4.795-9.896z" fill="#faa74a"/><path d="m20.159 24.214-.024.05-.051.215.075.024c.408.116.524.15.516.326-.003.045-.01.098-.03.166l-.04.156-.039.164-.999 3.982 3.348.461.069-.536-.12-.011-.899-.086-.644-.083c-.156-.027-.27-.04-.306-.083-.004-.013-.004-.037-.004-.074 0-.046.004-.118.029-.193 0 0 .345-1.46.406-1.713.089.014.583.076.583.076l.929.13.106-.478-.943-.115s-.409-.055-.563-.075c.025-.11.321-1.396.321-1.396.059-.222.059-.232.392-.191l.375.049.979.156.122.022.07-.484-.114-.014z" fill="#d1d1d1"/><path d="m26.325 25.333.377.017.982.077c.028 0 .143.011.143.011v-.483l-3.736-.172-.01.054-.03.223.076.014c.541.104.595.12.586.463 0-.01-.021.153-.021.153l-.013.167-.334 4.054 3.433.233.003-.571s-.145.016-.15.016l-.903-.039-.694-.063c-.273-.02-.316-.026-.316-.19 0-.038.013-.081.013-.135 0 0 .098-1.467.111-1.738.108 0 .595.016.595.016l.964.049.018-.492-.959-.026s-.424-.012-.583-.014c.014-.115.093-1.405.093-1.405.021-.228.021-.237.355-.219z" fill="#d1d1d1"/><path d="m36.138 29.167-.883.143-.642.076c-.36.042-.367.042-.427-.269 0 0-.265-1.509-.312-1.795.103-.012.572-.05.572-.05l.957-.08-.097-.481-.935.093s-.436.037-.583.051c-.019-.1-.244-1.413-.244-1.413-.018-.045-.018-.093-.021-.128 0-.03.003-.048.021-.069.021-.037.133-.051.285-.062l.376-.03.994-.06h.132l-.132-.476-.047.006-3.65.311.041.274.072.003c.565.038.625.039.68.38l.036.16c0 .011.031.172.031.172l.672 4.148 3.337-.406-.124-.521z" fill="#d1d1d1"/><path d="m31.629 29.637-1.28.014c-.038 0-.061-.005-.074-.023-.019-.022-.018-.067-.018-.084 0-.012-.088-4.491-.088-4.491v-.058h-.055-.047l-1.831-.024-.015.222.072.006c.538.088.597.107.616.382l.015.125-.034 4.494 3.564-.054-.008-.521h-.116z" fill="#d1d1d1"/><path d="m45.759 25.525c-.691-1.004-1.786-1.14-2.763-1.261h-.02c-.744-.093-1.456-.178-1.736-.664-.109-.188-.141-.353-.09-.482.072-.191.294-.283.382-.305.198-.061.419-.097.668-.121.286-.011.609.014.947.292-.01-.017.087.07.087.07l.021.026.03-.013.276-.083-.737-1.015h-.031l-.075.011c-.239.027-.798.092-1.339.248-.689.204-1.148.533-1.306.952-.133.312-.093.658.11 1.027.52.957 1.562 1.096 2.591 1.233.838.11 1.598.21 1.983.815.208.307.28.577.208.792-.068.214-.263.385-.575.498-.669.246-1.557.139-2.023.054l-.252-.047.611 1.124.181-.012c.338-.035 1.093-.11 1.746-.346.576-.219 1.302-.618 1.487-1.293.131-.445.003-.945-.381-1.5z" fill="#d1d1d1"/><path d="m19.83 24.366.094-.334-3.711-.833-.014.037-.212.369 1.054.253s.159.037.251.057c-.043.118-1.614 3.855-1.614 3.855l-.589 1.441.25-.138c.163-.071.505-.267.783-.455 0 0-.011 0-.016 0 .031-.012.078-.042.208-.145l.043-.027c.166-.128.317-.27.437-.418.005 0 .209-.283.209-.283.004-.017.024-.033.024-.033l.191-.366s1.123-2.781 1.271-3.163c.065.016.25.055.25.055l1.063.234z" fill="#d1d1d1"/><path d="m39.635 26.431c.446-.206.662-.501.642-.894-.004-.147-.044-.31-.109-.477-.49-1.292-2.038-1.021-2.55-.927l-2.037.362.016.063.075.228.059-.003c.488-.013.592-.009.682.183 0 .005.026.068.026.068s.004.01 1.836 5.533l.037.124.134-.221s.215-.383.343-.716c.005-.009.061-.202.061-.202l.021-.042c.05-.185.078-.365.078-.55l-.016-.332c0-.014-.012-.034-.012-.034l-.081-.402c0-.004-.013-.017-.507-1.457.038-.014.075-.017.075-.017.048.039 2.245 2.067 2.245 2.067l1.278-.243-.15-.152s-2.028-1.858-2.146-1.959zm-1.474-1.806c.407-.073.7.149.899.69.035.101.057.201.065.291 0 .12-.02.234-.073.327-.078.142-.212.229-.392.264 0 0-.398.074-.489.09-.027-.09-.436-1.291-.436-1.291-.011-.018-.019-.032-.019-.055 0-.154.08-.251.445-.316z" fill="#d1d1d1"/><path d="m16.199 22.377-.113-.061c-.185-.104-.681-.38-1.245-.558-1.217-.388-2.27-.09-2.819.804-.595.956-.042 1.629.493 2.282.432.531.825 1.024.5 1.613-.441.77-1.058.747-1.501.59-.635-.221-1.069-.755-1.277-1.062l-.112-.157-.605.995.13.094c.203.148.728.523 1.353.748.879.309 2.484.58 3.39-1.062.577-1.066-.062-1.833-.586-2.438l-.009-.011c-.423-.497-.783-.928-.49-1.424.36-.608.904-.489 1.057-.442.205.065.403.159.604.285.202.145.411.33.353.74.004-.017-.027.098-.027.098l-.003.048.042.013.256.085z" fill="#d1d1d1"/><g fill="#707070"><path d="m20.768 28.926c-.025-.111.014-.212.014-.212l.235-1.004.465-1.936.163-.683s.014-.102.083-.187c.056-.083.147-.124.147-.124s-.188-.01-.281.083c-.074.073-.095.211-.095.211l-.168.678-.465 1.934-.244 1.007s-.049.147-.016.244c.052.126.247.166.247.166s-.072-.069-.085-.177z"/><path d="m25.495 29.408c-.039-.104-.012-.216-.012-.216l.077-1.021.156-1.967.044-.68s0-.096.043-.189c.051-.087.146-.139.146-.139s-.198 0-.281.103c-.062.077-.068.219-.068.219l-.04.68-.161 1.962-.082 1.026s-.024.157.029.252c.066.119.271.138.271.138s-.083-.062-.122-.168z"/><path d="m34.019 29.418c-.064-.101-.077-.207-.077-.207l-.18-1.1-.343-1.952-.124-.69s-.024-.099 0-.195c.019-.097.101-.152.101-.152s-.195.028-.248.134c-.037.086-.004.224-.004.224l.127.691.334 1.953.184 1.106s.017.155.095.238c.102.103.302.096.302.096s-.1-.05-.167-.146z"/><path d="m45.146 25.178c.63.497 1.308 1.782.079 2.604.534-.749.761-1.518-.079-2.604z"/><path d="m41.428 24.118c-.415-.387-.984-1.029-.051-1.485-.647.096-1.141.858.051 1.485z"/><path d="m15.945 28.412c.633-.424.841-.693.999-1 .166-.302 1.35-3.341 1.35-3.341l-.135-.032-1.207 2.994c-.182.403-.53.988-1.007 1.379z"/><path d="m37.279 24.821c-.027.092.041.223.041.223l.002.034 1.028 2.973c.136.422.24 1.074.115 1.61.233-.626.225-.946.161-1.271-.075-.333-1.161-3.337-1.161-3.337l-.009-.03s-.037-.096-.029-.2c0-.09.075-.154.075-.154s-.182.042-.223.152z"/><path d="m14.341 26.004c-.084.683-.943 1.871-2.514 1.653 1.058-.137 1.967-.478 2.514-1.653z"/><path d="m12.924 23.19c.104-.509.38-1.293 1.503-1.13-.559-.278-1.67.024-1.503 1.13z"/><path d="m39.264 26.385c.748-.349.701-.84.701-.84-.098.442-.693.728-.929.817l2.213 2.092.179-.036z"/><path d="m29.749 25.375.058 4.108s-.017.164.051.254c.073.115.284.115.284.115s-.088-.056-.136-.157c-.047-.107-.039-.221-.039-.221l-.054-4.104z"/></g></g></svg>