<?xml version="1.0" encoding="utf-8"?>
<!-- Generator: Adobe Illustrator 13.0.0, SVG Export Plug-In . SVG Version: 6.00 Build 14948)  -->
<!DOCTYPE svg PUBLIC "-//W3C//DTD SVG 1.1//EN" "http://www.w3.org/Graphics/SVG/1.1/DTD/svg11.dtd">
<svg version="1.1" id="Layer_1" xmlns="http://www.w3.org/2000/svg" xmlns:xlink="http://www.w3.org/1999/xlink" x="0px" y="0px"
	 width="277.450130834" height="360.425131894" viewBox="0 0 368.421 478.602" enable-background="new 0 0 368.421 478.602"
	 xml:space="preserve">
<path fill="#0058A7" d="M184.298,478.52c72.582-76.495,107.174-128.409,128.666-173.654
	c21.521-45.253,37.729-105.953,45.836-154.563c8.088-48.607,9.621-91.556,9.621-91.556L269.75,0
	c-28.6,15.883-55.146,20.145-85.146,20.192h-0.709C153.865,20.145,127.336,15.91,98.701,0L0,58.779c0,0,1.523,42.915,9.628,91.522
	c8.097,48.61,24.268,109.31,45.793,154.563c21.498,45.244,56.135,97.16,128.711,173.646l0.072,0.092L184.298,478.52z"/>
<path fill="#FFFFFF" d="M270.902,361.024c37.357-54.205,79.881-145.134,88.637-297.764L269.925,9.925
	c0,0-30.059,18.738-85.367,18.827l-1.143,0.016C128.405,28.588,98.51,9.95,98.51,9.95L8.892,63.297
	c8.78,152.622,51.303,243.563,88.629,297.767c39.627,57.513,86.695,104.75,86.695,104.75S231.164,418.72,270.902,361.024z"/>
<path fill="#0058A7" d="M96.931,25.676v311.158c0,0-65.621-94.91-74.395-266.435C67.467,45.267,96.931,25.676,96.931,25.676z"/>
<path fill="#E83534" d="M271.517,25.676v311.158c0,0,65.635-94.91,74.4-266.435C300.986,45.267,271.517,25.676,271.517,25.676z"/>
<g>
	<g>
		<polygon fill="#0058A7" points="113.243,231.371 113.243,217.479 129.554,217.479 129.554,227.103 138.364,227.103 
			138.364,217.061 155.434,217.061 155.434,227.074 167.666,227.074 167.666,231.644 150.916,231.644 150.916,221.589 
			142.88,221.589 142.88,231.671 124.999,231.671 124.999,222.007 117.731,222.007 117.731,231.334 		"/>
		<polygon fill="#0058A7" points="255.187,231.371 255.187,217.479 238.869,217.479 238.869,227.103 230.08,227.103 230.08,217.061 
			212.992,217.061 212.992,227.074 200.765,227.074 200.765,231.644 217.521,231.644 217.521,221.589 225.542,221.589 
			225.542,231.671 243.429,231.671 243.429,222.007 250.701,222.007 250.701,231.334 		"/>
		<path fill="#0058A7" d="M184.396,211.208c3.523,0.064,7.367,2.206,7.367,7.001c0,4.451,0,13.403,0,13.403h4.516
			c0,0,0-13.267,0-14.099c0-0.839-0.299-4.976-3.85-7.984c-3.121-2.658-7.127-2.867-8.033-2.895h-0.357
			c-0.891,0.028-4.914,0.237-8.051,2.895c-3.533,3.009-3.843,7.146-3.843,7.984c0,0.832,0,14.099,0,14.099h4.536
			c0,0,0-8.952,0-13.403c0-4.795,3.836-6.937,7.355-7.001H184.396z"/>
		<path fill="#0058A7" d="M184.369,196.929c1.404,0,12.961-0.031,21.379-0.603c8.979-0.61,16.221-1.459,21.633-2.357l1.133,10.043
			h12.328c0,0-3.879,2.667-11.865,3.724l0.977,9.203l4.66-0.033l-0.627-5.254c0,0,3.014-0.494,8-3.007
			c4.973-2.501,12.143-7.981,13.467-9.128h-22.83l-1.207-10.958c0,0-6.404,1.449-14.924,2.277
			c-8.477,0.835-19.324,1.513-32.012,1.513h-0.574c-12.658,0-23.521-0.678-31.97-1.513c-8.521-0.828-14.908-2.277-14.908-2.277
			l-1.221,10.958h-22.831c1.328,1.147,8.484,6.627,13.46,9.128c4.983,2.514,8.001,3.007,8.001,3.007l-0.632,5.254l4.665,0.033
			l0.989-9.203c-7.99-1.057-11.88-3.724-11.88-3.724h12.333l1.148-10.043c5.404,0.898,12.632,1.747,21.609,2.357
			c8.104,0.544,19.082,0.594,21.186,0.603H184.369z"/>
	</g>
	<g>
		<path fill="#0058A7" d="M151.582,244.303h-2.611c0,0-1.807,2.531-5.532,3.238v1.871c0,0,2.479-0.156,3.075,0.543
			c0.572,0.709,0.455,1.934,0.455,2.896c0,0.952,0,11.433,0,11.433h4.586L151.582,244.303z"/>
		<path fill="#0058A7" d="M176.164,248.458c-0.188-1.997-1.383-4.573-5.896-4.573c-4.532,0-5.563,2.6-5.686,4.396
			c-0.119,1.776-0.219,5.921,0.262,7.21c0.504,1.307,2.129,2.029,3.572,2.029c1.45,0,2.215-0.432,2.738-1.53l0.491,0.114
			c0,0,0.03,2.526,0.03,4.314c0,1.779-1.262,1.662-1.262,1.662s-0.855,0-1.115-0.563c-0.239-0.555-0.239-1.599-0.239-2.05h-4.579
			c0,0-0.577,5.234,5.904,5.234c6.486,0,5.869-4.604,5.869-8.375C176.255,252.551,176.347,250.459,176.164,248.458z
			 M171.677,253.158c0,0.898-0.276,1.734-1.262,1.734c-0.979,0-1.355-0.809-1.355-1.797c0-0.979,0.035-4.701,0.035-4.701
			s-0.068-1.874,1.32-1.874c1.021,0,1.262,0.926,1.262,1.837V253.158z"/>
		<path fill="#0058A7" d="M200.587,248.458c-0.195-1.997-1.387-4.573-5.896-4.573c-4.516,0-5.559,2.6-5.682,4.396
			c-0.131,1.776-0.223,5.921,0.277,7.21c0.479,1.307,2.119,2.029,3.557,2.029c1.447,0,2.219-0.432,2.74-1.53l0.479,0.114
			c0,0,0.043,2.526,0.043,4.314c0,1.779-1.268,1.662-1.268,1.662s-0.854,0-1.102-0.563c-0.24-0.555-0.24-1.599-0.24-2.05h-4.582
			c0,0-0.582,5.234,5.9,5.234c6.48,0,5.857-4.604,5.857-8.375C200.673,252.551,200.769,250.459,200.587,248.458z M196.105,253.158
			c0,0.898-0.27,1.734-1.266,1.734c-0.988,0-1.342-0.809-1.342-1.797c0-0.979,0.031-4.701,0.031-4.701s-0.064-1.874,1.311-1.874
			c1.012,0,1.266,0.926,1.266,1.837V253.158z"/>
		<path fill="#0058A7" d="M224.062,244.275H213.58l-0.215,9.836l4.527-0.027c0,0-0.164-1.752,1.223-1.752s1.361,1.381,1.361,1.779
			c0,0.408,0,3.539,0,5.536c0,1.991-0.252,2.458-1.209,2.458c-0.947,0-1.352-0.707-1.352-2.703c0-2.006-0.023-2.215-0.023-2.215
			h-4.59c0,0-0.02,2.759,0.379,4.256c0.4,1.523,1.875,3.298,5.74,3.298c3.879,0,5.318-2.028,5.514-3.838
			c0.172-1.813,0.148-5.091,0.055-7.218c-0.1-2.115-1.121-4.033-3.91-4.033c-2.791,0-3.432,1.936-3.432,1.936v-4.6h6.379
			L224.062,244.275z"/>
	</g>
</g>
<g>
	<path fill="#03428C" d="M243.15,61.497c0,0,6.059-1.37,7.768-1.933c-0.152-0.168-0.775-0.231-0.775-0.231
		c-2.742,0.088-6.99,1.681-6.99,1.681C242.511,61.368,243.15,61.497,243.15,61.497z"/>
	<path fill="#0058A7" d="M129.794,72.066h-13.059l4.471,7.527l2.2-3.628h2.159c2.346,0,0.73,2.405,0.73,2.405
		c-0.912,1.551-2.966,1.767-2.966,1.767h-8.031l-7.048,12.781h9.738c6.08,0,9.754-5.764,9.754-5.764
		c2.624-3.68-0.54-5.225-0.54-5.225c3.739-0.971,5.867-5.229,5.867-5.229C135.09,72.408,129.794,72.066,129.794,72.066z
		 M120.575,87.996c-1.034,1.377-2.8,1.259-2.8,1.259h-1.91l2.818-4.932l2.231,0.114C122.867,85.02,120.575,87.996,120.575,87.996z"
		/>
	<polygon fill="#0058A7" points="137.652,72.066 143.328,72.066 132.046,92.919 126.419,92.919 136.396,74.308 135.014,74.308 	"/>
	<path fill="#0058A7" d="M140.067,82.488h-1.434l2.804-2.35h5.271l-4.869,8.716c0,0-1.661,2.453,1.838,1.202
		c0,0,0.396-0.217,1.012-1.202l3.458-6.411h-1.438l2.623-2.305h5.453l-7.104,12.781h-4.875l0.58-1.068c0,0-2.75,1.831-4.704,1.663
		c0,0-1.873,0.168-2.981-1.033c0,0-0.611-0.693,0.119-2.234L140.067,82.488z"/>
	<path fill="#0058A7" d="M164.544,79.634c-7.057-0.338-9.694,4.117-9.694,4.117l-2.968,5.338c-1.198,2.113,0.054,3.276,0.054,3.276
		c2.348,1.439,5.276,1.212,5.276,1.212c6.234,0.047,8.838-4.981,8.838-4.981h-5.293c-1.375,2.268-2.873,2.168-2.873,2.168
		c-1.773,0-0.867-1.738-0.867-1.738l1.208-1.944h8.833l2.173-4.127C170.744,79.859,164.544,79.634,164.544,79.634z M163.733,83.547
		l-0.63,1.068h-3.612c1.675-2.57,2.935-2.461,2.935-2.461C164.591,81.93,163.733,83.547,163.733,83.547z"/>
	<polygon fill="#0058A7" points="125.247,101.337 121.928,101.337 121.928,101.07 126.687,96.798 136.032,96.798 126.957,119.769 
		143.22,96.798 152.649,96.798 144.205,119.769 159.757,96.798 169.191,96.798 144.575,129.089 133.625,129.089 142.507,106.907 
		127.044,129.089 116.437,129.089 	"/>
	<polygon fill="#0058A7" points="162.557,111.763 160.026,111.763 164.968,107.642 173.337,107.642 161.728,129.089 152.75,129.089 
			"/>
	<path fill="#0058A7" d="M195.244,106.907c-5.459-0.615-9.471,2.593-10.514,3.543l1.523-2.809H177.9l-4.945,4.121h2.51
		l-9.803,17.327h8.98l7.455-13.759c2.27-2.962,4.537-3.386,4.537-3.386c2.424-0.181,1.344,1.891,1.344,1.891l-8.734,15.254h8.906
		l9.98-17.974C199.74,107.892,195.244,106.907,195.244,106.907z"/>
	<path fill="#0058A7" d="M218.533,107.544l-1.813,2.97c0,0,0.279-3.528-4.191-3.682c0,0-6.152-1.276-11.896,6.121l-5.469,9.6
		c0,0-2.512,4.587,2.434,5.828c0,0,4.313,1.162,9.711-2.06l-2.162,3.771c0,0-0.91,2.055-3.969,2.255c0,0-3.58,0.356-1.701-2.075
		h-8.896c0,0-2.6,4.764,2.436,5.766c0,0,8.361,1.622,14.637-1.1c0,0,4.131-1.606,7.369-6.447l11.598-20.947H218.533z
		 M213.855,114.453l-3.773,6.572c0,0-1.412,2.856-4.221,2.328c0,0-2.246-0.093-1.076-2.149l3.498-6.475c0,0,1.885-3.146,4.58-2.874
		C212.861,111.855,215.021,112.123,213.855,114.453z"/>
	<path fill="#0058A7" d="M248.365,113.738c0,0,1.119-1.497,1.074-3.095h-0.014c-0.004-0.192-0.021-0.355-0.063-0.528
		c-0.004-0.013-0.023-0.018-0.023-0.029c-0.402-1.605-2.441-2.353-3.896-2.733c-2.689-0.445-8.721-1.071-13.512,1.098
		c0,0-6.299,2.405-6.932,6.911c0,0,0,3.044,4.662,4.675l3.707,1.353c0,0,4.293,1.772-0.898,3.85c0,0-1.547,0.487-2.74,0.265v0.016
		c-0.051,0-0.076-0.02-0.131-0.029c-0.055-0.014-0.082-0.045-0.146-0.052c-2.336-0.771-0.957-2.618-0.594-3.069h-8.348
		c0,0-3.512,5.313,2.883,7.016c0,0,11.5,1.8,17.057-2.867c0,0,4.34-3.491,3.998-6.592c-0.244-1.259-1.33-2.139-2.211-2.63
		l-5.01-2.202c0,0-4.035-1.165-2.168-2.97c0,0,1.074-0.905,2.449-1.187c0.5-0.106,1.326-0.265,2.033-0.129
		c0.078,0,0.178,0.038,0.264,0.048h0.014c0.686,0.179,1.223,0.871,0.363,2.883h8.182V113.738z"/>
	<path fill="#0058A7" d="M260.162,55.188c-0.16-0.399-3.652,0.073-3.652,0.073c-42.129,6.152-67.74,16.674-67.74,16.674
		c-10.9,3.866-15.014,9.256-15.014,9.256c-2.474,3.414,0.494,4.718,0.494,4.718c0.834,0.372,2.324,0.654,2.324,0.654l3.568,0.465
		c3.621,0.511,1.324,4.464,1.324,4.464l-6.91,12.446c-0.338,0.624,0.672,0.131,0.672,0.131l16.857-7.398l4.795-8.777l10.59,0.057
		l6.637-3.335c0.846-0.433,1.121-0.816,1.121-0.816c0-0.447-0.889-0.286-0.889-0.286l-3.463,0.858
		c-1.379,0.439-1.424,0.11-1.424,0.11l8.57-3.722c2.271-1.026,1.715-1.429,1.715-1.429c-0.26-0.339-3.043,0.889-3.043,0.889
		c-1.35,0.516-1.447,0.184-1.447,0.184l12.25-5.57c1.66-0.642,1.396-0.603,1.396-0.603c0-0.545-1.441-0.072-1.441-0.072
		l-8.748,3.011c-1.67,0.534,0-0.386,0-0.386l13.938-5.363c2.102-0.869,1.883-1.102,1.883-1.102
		c-0.219-0.379-2.777,0.438-2.777,0.438c-1.393,0.376-1.115,0.041-1.115,0.041l6.457-2.496c1.455-0.494,1.107-0.939,1.107-0.939
		c-0.168-0.558-5.596,0.909-5.596,0.909c-0.174-0.622-2.904-0.02-2.904-0.02h-0.066c-10.195,2.683-9.131,1.581-9.131,1.581
		c0.723-0.426,11.861-3.453,18.922-5.326l5.316-1.549c1.232-0.365,1.061-0.647,1.061-0.647c-0.104-0.268-1.631,0.045-1.631,0.045
		l-0.758,0.134c-7.229,1.779-8.625,1.833-8.625,1.833c0.9-0.386,4.084-1.391,5.248-1.76c0.676-0.303,0.611-0.414,0.611-0.414
		c-0.063-0.215-2.008,0.046-2.008,0.046l-0.924,0.161c-3.406,0.706-5.201,0.965-6.16,1.003l-0.689,0.122l0.383-0.122
		c-0.637,0.02-0.699-0.078-0.699-0.078l18.762-4.846l7.906-2.17C260.384,55.291,260.162,55.188,260.162,55.188z M212.548,79.527
		c0,0,0.221-0.721,1.875-1.252c0,0,1.211-0.46,2.137-0.521C216.56,77.753,216.232,78.523,212.548,79.527z M229.222,71.132
		c0,0,0.758,0.358-3.271,1.373c-0.516,0.154-0.951,0.229-1.291,0.315c-0.084,0.014-0.111,0.029-0.158,0.048
		c0,0-0.146,0.022-0.355,0.022c-0.844,0.123-1.156,0.018-1.156,0.018c2.096-0.914,3.771-1.354,4.846-1.576
		C228.361,71.209,228.859,71.132,229.222,71.132z"/>
	<polygon fill="#E83534" points="196.876,87.84 188.271,103.647 226.89,87.84 	"/>
</g>
<g>
	<path fill="#0058A7" d="M134.25,335.749v-0.813c0.031-1.457-0.159-2.486-0.553-3.082c-0.382-0.612-1.071-0.896-2.056-0.896
		c-0.967,0-1.697,0.268-2.18,0.825c-0.488,0.541-0.729,1.375-0.729,2.495c0,0.844,0.276,1.57,0.853,2.183
		c0.57,0.627,1.555,1.252,2.972,1.915c2.794,1.328,4.764,2.628,5.876,3.895c1.119,1.261,1.688,2.816,1.688,4.654
		c0,2.749-0.717,4.817-2.161,6.211c-1.44,1.364-3.609,2.064-6.515,2.064c-3.144,0-5.376-0.631-6.691-1.86
		c-1.312-1.235-1.959-3.249-1.959-6.049v-0.249v-0.816h5.552v0.816c-0.035,1.333,0.217,2.323,0.731,2.995
		c0.517,0.647,1.289,0.979,2.363,0.979c1.021,0,1.782-0.285,2.305-0.895c0.504-0.596,0.763-1.497,0.763-2.689
		c0-0.918-0.322-1.688-0.936-2.324c-0.615-0.652-1.691-1.353-3.226-2.077c-2.686-1.253-4.564-2.515-5.631-3.729
		c-1.062-1.216-1.614-2.703-1.614-4.51c0-2.677,0.73-4.684,2.164-6.018c1.456-1.314,3.62-1.986,6.523-1.986
		c2.968,0,5.087,0.615,6.317,1.869c1.138,1.171,1.701,3.048,1.695,5.662l0.006,0.617v0.813H134.25z"/>
	<path fill="#0058A7" d="M163.058,347.033c0,2.726-0.715,4.764-2.129,6.116c-1.426,1.351-3.54,2.051-6.381,2.051
		c-2.836,0-4.959-0.7-6.373-2.051c-1.412-1.354-2.129-3.392-2.129-6.116v-19.841h2.84h2.826v20.17c0,1.35,0.211,2.312,0.623,2.851
		c0.414,0.536,1.162,0.804,2.213,0.804c1.063,0,1.803-0.268,2.207-0.804c0.42-0.539,0.633-1.501,0.633-2.851v-20.17h2.834h2.836
		V347.033z"/>
	<path fill="#0058A7" d="M206.492,353.08c-1.285-1.411-1.932-3.824-1.932-7.263v-11.35c0-2.563,0.709-4.486,2.141-5.767
		c1.424-1.275,3.568-1.914,6.438-1.914c2.863,0,5.016,0.639,6.451,1.914c1.436,1.278,2.152,3.204,2.152,5.767v11.35
		c0,3.438-0.643,5.852-1.939,7.263c-1.287,1.411-3.51,2.12-6.664,2.12C210.003,355.2,207.783,354.491,206.492,353.08z
		 M215.429,349.937c0.422-0.734,0.635-2.023,0.635-3.893v-11.338c0-1.227-0.254-2.156-0.748-2.795
		c-0.494-0.622-1.229-0.953-2.178-0.953c-0.967,0-1.688,0.331-2.178,0.953c-0.49,0.639-0.734,1.568-0.734,2.795v11.338
		c0,1.868,0.221,3.157,0.645,3.893c0.426,0.727,1.188,1.08,2.268,1.08C214.236,351.017,214.998,350.662,215.429,349.937z"/>
	<path fill="#0058A7" d="M232.23,354.792h-2.301h-2.336v-27.6h4.156h4.156l4.822,23.287v-23.287h2.305h2.314v27.6h-4.117h-4.141
		l-4.859-23.503V354.792L232.23,354.792z"/>
</g>
<g>
	<path fill="#0058A7" d="M193.326,353.683h-4.943l-3.834-18.121h-0.063l-3.771,18.121h-5.041l-5.99-26.623h4.977l3.582,18.121h0.064
		l3.928-18.121h4.658l3.867,18.346h0.064l3.707-18.346h4.881L193.326,353.683z"/>
</g>
</svg>
