<svg xmlns="http://www.w3.org/2000/svg" xmlns:xlink="http://www.w3.org/1999/xlink" width="200" height="200"><defs><path id="a" d="M0 2.425h189.896v190.09H0z"/></defs><g fill="none" fill-rule="evenodd"><g transform="translate(5 4)"><mask id="b" fill="#fff"><use xlink:href="#a"/></mask><path fill="#FFFFFE" d="M189.896 97.727c0 52.44-42.51 94.95-94.95 94.95C42.51 192.676 0 150.166 0 97.726 0 45.29 42.512 2.425 94.946 2.425c52.44 0 94.95 37.983 94.95 95.302" mask="url(#b)"/></g><path fill="#5EB245" d="M6.691 101.62C8.56 43.7 48.365 20.086 74.497 11.86 86.446 8.1 96.91 7.974 96.864 9.33c-.04 1.186-9.003.196-21.687 4.777-22.11 7.991-53.425 27.85-55.33 78.68 0 46.74 37.92 84.63 84.702 84.63 46.77 0 84.692-37.89 84.692-84.63.129-9.996-1.678-17.896-3.939-24.73-3.969-12.01-9.09-17.577-6.872-17.63 1.528-.027 6.144 9.406 9.358 18.205 3.736 10.244 5.46 19.557 5.414 32.988 0 51.474-41.757 93.188-93.26 93.188-51.499 0-93.25-41.714-93.25-93.188"/><path fill="#5EB245" d="M90.669 72.288c0-16.573 27.172-15.002 27.172-15.002v59.098c0 4.126 2.61 6.615 7.314 6.615 7.506 0 6.995-6.615 6.995-6.615 0 4.126-.027-42.948-.027-60.798 0-14.841 27.004-14.841 27.004-14.841v78.663l-.115 4.883c-2.301 14.85-15.167 26.21-30.373 26.21-9.99 0-18.85-4.906-24.414-12.473-5.56 7.567-14.426 12.473-24.413 12.473-15.208 0-27.815-11.36-30.111-26.21l-.372-4.883s-.024-43.377-.024-63.822c0-14.841 27.036-14.841 27.036-14.841l-.01 75.655c0 4.174 2.967 6.599 6.994 6.599 3.985 0 7.378-2.542 7.378-6.6 0 0-.034-30.193-.034-44.111"/></g></svg>