<svg xmlns="http://www.w3.org/2000/svg" width="341.01071" height="387.99866" viewBox="0 0 255.75803 290.99899"><defs><linearGradient id="a" x1="215.194" x2="139.332" y1="146.459" y2="316.84799" gradientTransform="scale(.516 .514)" gradientUnits="userSpaceOnUse"><stop offset="0" stop-color="#EFEBD7"/><stop offset="1" stop-color="#DDD8C7"/></linearGradient><linearGradient id="b" x1="241.77699" x2="241.20399" y1="145.68201" y2="112.853" gradientTransform="scale(.516 .514)" gradientUnits="userSpaceOnUse"><stop offset="0" stop-color="#3E514C"/><stop offset="1" stop-color="#5B9B5A"/></linearGradient><linearGradient id="c" x1="249.756" x2="244.49899" y1="140.215" y2="115.48" gradientTransform="scale(.516 .514)" gradientUnits="userSpaceOnUse"><stop offset="0" stop-color="#3E514C"/><stop offset="1" stop-color="#5B9B5A"/></linearGradient><linearGradient id="d" x1="259.06699" x2="274.72299" y1="119.962" y2="119.962" gradientTransform="scale(.516 .514)" gradientUnits="userSpaceOnUse"><stop offset="0" stop-color="#A6CA6A"/><stop offset="1" stop-color="#799E5D"/></linearGradient><linearGradient id="e" x1="247.063" x2="241.28101" y1="123.46" y2="101.881" gradientTransform="scale(.516 .514)" gradientUnits="userSpaceOnUse"><stop offset="0" stop-color="#3E514C"/><stop offset="1" stop-color="#5B9B5A"/></linearGradient><linearGradient id="f" x1="239.60201" x2="233.603" y1="114.586" y2="86.362999" gradientTransform="scale(.516 .514)" gradientUnits="userSpaceOnUse"><stop offset="0" stop-color="#3E514C"/><stop offset="1" stop-color="#5B9B5A"/></linearGradient><linearGradient id="g" x1="253.621" x2="248.795" y1="106.098" y2="83.396004" gradientTransform="scale(.516 .514)" gradientUnits="userSpaceOnUse"><stop offset="0" stop-color="#3E514C"/><stop offset="1" stop-color="#5B9B5A"/></linearGradient><linearGradient id="h" x1="222.871" x2="216.73199" y1="100.108" y2="78.699997" gradientTransform="scale(.516 .514)" gradientUnits="userSpaceOnUse"><stop offset="0" stop-color="#A6CA6A"/><stop offset="1" stop-color="#5B9B5A"/></linearGradient><linearGradient id="i" x1="253.632" x2="251.011" y1="93.093002" y2="83.953003" gradientTransform="scale(.516 .514)" gradientUnits="userSpaceOnUse"><stop offset="0" stop-color="#A6CA6A"/><stop offset="1" stop-color="#5B9B5A"/></linearGradient><linearGradient id="j" x1="260.81699" x2="275.70801" y1="103.279" y2="103.279" gradientTransform="scale(.516 .514)" gradientUnits="userSpaceOnUse"><stop offset="0" stop-color="#A6CA6A"/><stop offset="1" stop-color="#799E5D"/></linearGradient><linearGradient id="k" x1="237.815" x2="236.479" y1="91.781998" y2="87.123001" gradientTransform="scale(.516 .514)" gradientUnits="userSpaceOnUse"><stop offset="0" stop-color="#A6CA6A"/><stop offset="1" stop-color="#5B9B5A"/></linearGradient><linearGradient id="l" x1="232.87199" x2="256.87601" y1="157.651" y2="168.339" gradientTransform="scale(.516 .514)" gradientUnits="userSpaceOnUse"><stop offset="0" stop-color="#313134"/><stop offset=".496" stop-color="#C6AB9C"/><stop offset="1" stop-color="#313134"/></linearGradient><linearGradient id="m" x1="238.963" x2="254.3" y1="153.183" y2="166.993" gradientTransform="scale(.516 .514)" gradientUnits="userSpaceOnUse"><stop offset="0" stop-color="#443336"/><stop offset="1" stop-color="#313134"/></linearGradient><linearGradient id="n" x1="232.877" x2="256.88101" y1="177.88" y2="188.56799" gradientTransform="scale(.516 .514)" gradientUnits="userSpaceOnUse"><stop offset="0" stop-color="#313134"/><stop offset=".496" stop-color="#C6AB9C"/><stop offset="1" stop-color="#313134"/></linearGradient><linearGradient id="o" x1="203.593" x2="203.593" y1="304.52802" y2="228.67799" gradientTransform="scale(.516 .514)" gradientUnits="userSpaceOnUse"><stop offset="0" stop-color="#667A8E"/><stop offset=".469" stop-color="#ABCBE7"/><stop offset="1" stop-color="#fff"/></linearGradient><linearGradient id="p" x1="171.94701" x2="171.94701" y1="304.52802" y2="228.67799" gradientTransform="scale(.516 .514)" gradientUnits="userSpaceOnUse"><stop offset="0" stop-color="#667A8E"/><stop offset=".469" stop-color="#ABCBE7"/><stop offset="1" stop-color="#fff"/></linearGradient><linearGradient id="q" x1="137.696" x2="119.703" y1="252.174" y2="319.32401" gradientTransform="scale(.516 .514)" gradientUnits="userSpaceOnUse"><stop offset="0" stop-color="#475462"/><stop offset=".25" stop-color="#667A8E"/><stop offset=".769" stop-color="#ABCBE7"/><stop offset="1" stop-color="#fff"/></linearGradient><linearGradient id="r" x1="98.093002" x2="97.739998" y1="150.16701" y2="170.429" gradientTransform="scale(.516 .514)" gradientUnits="userSpaceOnUse"><stop offset="0" stop-color="#313134"/><stop offset="1" stop-color="#E48C68"/></linearGradient><linearGradient id="s" x1="99.094002" x2="99.489998" y1="179.311" y2="202.02901" gradientTransform="scale(.516 .514)" gradientUnits="userSpaceOnUse"><stop offset="0" stop-color="#F4A570"/><stop offset="1" stop-color="#DE7A6F"/></linearGradient><linearGradient id="t" x1="112.014" x2="158.02" y1="163.41299" y2="163.41299" gradientTransform="scale(.516 .514)" gradientUnits="userSpaceOnUse"><stop offset="0" stop-color="#E48C68"/><stop offset="1" stop-color="#F4A570"/></linearGradient><linearGradient id="u" x1="120.067" x2="127.11" y1="163.48801" y2="163.48801" gradientTransform="scale(.516 .514)" gradientUnits="userSpaceOnUse"><stop offset="0" stop-color="#E48C68"/><stop offset="1" stop-color="#F4A570"/></linearGradient><linearGradient id="v" x1="116.705" x2="122.216" y1="164.57899" y2="164.57899" gradientTransform="scale(.516 .514)" gradientUnits="userSpaceOnUse"><stop offset="0" stop-color="#E48C68"/><stop offset="1" stop-color="#F4A570"/></linearGradient><linearGradient id="w" x1="119.335" x2="119.635" y1="155.019" y2="172.2" gradientTransform="scale(.516 .514)" gradientUnits="userSpaceOnUse"><stop offset="0" stop-color="#F9C9A9"/><stop offset="1" stop-color="#F4A570"/></linearGradient><linearGradient id="x" x1="102.028" x2="158.40401" y1="201.952" y2="201.952" gradientTransform="scale(.516 .514)" gradientUnits="userSpaceOnUse"><stop offset="0" stop-color="#E48C68"/><stop offset="1" stop-color="#F4A570"/></linearGradient><linearGradient id="y" x1="99.841003" x2="126.302" y1="233.32899" y2="146.78" gradientTransform="scale(.516 .514)" gradientUnits="userSpaceOnUse"><stop offset="0" stop-color="#906572"/><stop offset=".512" stop-color="#E48C68"/><stop offset="1" stop-color="#F4A570"/></linearGradient><linearGradient id="z" x1="109.874" x2="140.836" y1="221.55" y2="170.022" gradientTransform="scale(.516 .514)" gradientUnits="userSpaceOnUse"><stop offset="0" stop-color="#906572"/><stop offset=".512" stop-color="#E48C68"/><stop offset="1" stop-color="#F4A570"/></linearGradient><linearGradient id="A" x1="121.747" x2="152.707" y1="229.448" y2="177.92101" gradientTransform="scale(.516 .514)" gradientUnits="userSpaceOnUse"><stop offset="0" stop-color="#906572"/><stop offset=".512" stop-color="#E48C68"/><stop offset="1" stop-color="#F4A570"/></linearGradient><linearGradient id="B" x1="98.352997" x2="159.411" y1="178.287" y2="178.287" gradientTransform="scale(.516 .514)" gradientUnits="userSpaceOnUse"><stop offset="0" stop-color="#E48C68"/><stop offset="1" stop-color="#F4A570"/></linearGradient><linearGradient id="C" x1="120.079" x2="134.849" y1="179.70399" y2="179.70399" gradientTransform="scale(.516 .514)" gradientUnits="userSpaceOnUse"><stop offset="0" stop-color="#DE7A6F"/><stop offset=".508" stop-color="#AC5A56"/><stop offset="1" stop-color="#DE7A6F"/></linearGradient><linearGradient id="D" x1="106.682" x2="113.728" y1="179.703" y2="179.703" gradientTransform="scale(.516 .514)" gradientUnits="userSpaceOnUse"><stop offset="0" stop-color="#DE7A6F"/><stop offset=".508" stop-color="#AC5A56"/><stop offset="1" stop-color="#DE7A6F"/></linearGradient><linearGradient id="E" x1="141.51401" x2="148.562" y1="179.724" y2="179.724" gradientTransform="scale(.516 .514)" gradientUnits="userSpaceOnUse"><stop offset="0" stop-color="#DE7A6F"/><stop offset=".508" stop-color="#AC5A56"/><stop offset="1" stop-color="#DE7A6F"/></linearGradient><linearGradient id="F" x1="100.016" x2="104.966" y1="164.14301" y2="164.14301" gradientTransform="scale(.516 .514)" gradientUnits="userSpaceOnUse"><stop offset="0" stop-color="#E48C68"/><stop offset="1" stop-color="#F4A570"/></linearGradient><linearGradient id="G" x1="102.953" x2="103.253" y1="151.621" y2="168.80099" gradientTransform="scale(.516 .514)" gradientUnits="userSpaceOnUse"><stop offset="0" stop-color="#F9C9A9"/><stop offset="1" stop-color="#F4A570"/></linearGradient><linearGradient id="H" x1="102.833" x2="107.659" y1="159.58099" y2="159.58099" gradientTransform="scale(.516 .514)" gradientUnits="userSpaceOnUse"><stop offset="0" stop-color="#E48C68"/><stop offset="1" stop-color="#F4A570"/></linearGradient><linearGradient id="I" x1="105.832" x2="107.419" y1="153.04401" y2="168.13901" gradientTransform="scale(.516 .514)" gradientUnits="userSpaceOnUse"><stop offset="0" stop-color="#313134"/><stop offset="1" stop-color="#E48C68"/></linearGradient><linearGradient id="J" x1="105.45" x2="110.234" y1="159.515" y2="159.515" gradientTransform="scale(.516 .514)" gradientUnits="userSpaceOnUse"><stop offset="0" stop-color="#E48C68"/><stop offset="1" stop-color="#F4A570"/></linearGradient><linearGradient id="K" x1="107.951" x2="109.632" y1="152.145" y2="168.13499" gradientTransform="scale(.516 .514)" gradientUnits="userSpaceOnUse"><stop offset="0" stop-color="#313134"/><stop offset="1" stop-color="#E48C68"/></linearGradient><linearGradient id="L" x1="107.967" x2="112.336" y1="159.592" y2="159.592" gradientTransform="scale(.516 .514)" gradientUnits="userSpaceOnUse"><stop offset="0" stop-color="#E48C68"/><stop offset="1" stop-color="#F4A570"/></linearGradient><linearGradient id="M" x1="110.463" x2="111.833" y1="154.79201" y2="167.82201" gradientTransform="scale(.516 .514)" gradientUnits="userSpaceOnUse"><stop offset="0" stop-color="#313134"/><stop offset="1" stop-color="#E48C68"/></linearGradient><linearGradient id="N" x1="139.47701" x2="157.09599" y1="117.934" y2="117.934" gradientTransform="scale(.516 .514)" gradientUnits="userSpaceOnUse"><stop offset="0" stop-color="#E48C68"/><stop offset="1" stop-color="#F4A570"/></linearGradient><linearGradient id="O" x1="157.86301" x2="147.088" y1="115.261" y2="119.834" gradientTransform="scale(.516 .514)" gradientUnits="userSpaceOnUse"><stop offset="0" stop-color="#F9C9A9"/><stop offset="1" stop-color="#F4A570"/></linearGradient><linearGradient id="P" x1="145.005" x2="153.035" y1="118.261" y2="118.261" gradientTransform="scale(.516 .514)" gradientUnits="userSpaceOnUse"><stop offset="0" stop-color="#EC7269"/><stop offset="1" stop-color="#F4A570"/></linearGradient><linearGradient id="Q" x1="143.589" x2="147.065" y1="119.234" y2="119.234" gradientTransform="scale(.516 .514)" gradientUnits="userSpaceOnUse"><stop offset="0" stop-color="#313134"/><stop offset="1" stop-color="#F4A570"/></linearGradient><linearGradient id="R" x1="155.064" x2="160.52499" y1="115.514" y2="115.514" gradientTransform="scale(.516 .514)" gradientUnits="userSpaceOnUse"><stop offset="0" stop-color="#313134"/><stop offset="1" stop-color="#F4A570"/></linearGradient><linearGradient id="S" x1="144.209" x2="151.83501" y1="111.592" y2="111.592" gradientTransform="scale(.516 .514)" gradientUnits="userSpaceOnUse"><stop offset="0" stop-color="#E48C68"/><stop offset="1" stop-color="#F4A570"/></linearGradient><linearGradient id="T" x1="150.133" x2="138.44" y1="112.026" y2="112.231" gradientTransform="scale(.516 .514)" gradientUnits="userSpaceOnUse"><stop offset="0" stop-color="#313134"/><stop offset="1" stop-color="#F4A570"/></linearGradient><linearGradient id="U" x1="165.731" x2="141.90199" y1="136.224" y2="144.429" gradientTransform="scale(.516 .514)" gradientUnits="userSpaceOnUse"><stop offset="0" stop-color="#F9C9A9"/><stop offset="1" stop-color="#EC7269"/></linearGradient><linearGradient id="V" x1="136.056" x2="159.77" y1="142.44701" y2="142.44701" gradientTransform="scale(.516 .514)" gradientUnits="userSpaceOnUse"><stop offset="0" stop-color="#E48C68"/><stop offset="1" stop-color="#F4A570"/></linearGradient><linearGradient id="W" x1="143.16701" x2="148.718" y1="143.03" y2="143.03" gradientTransform="scale(.516 .514)" gradientUnits="userSpaceOnUse"><stop offset="0" stop-color="#313134"/><stop offset="1" stop-color="#F4A570"/></linearGradient><linearGradient id="X" x1="158.629" x2="169.362" y1="142.16701" y2="142.16701" gradientTransform="scale(.516 .514)" gradientUnits="userSpaceOnUse"><stop offset="0" stop-color="#AC5A56"/><stop offset=".086" stop-color="#E48C68"/><stop offset="1" stop-color="#F4A570"/></linearGradient><linearGradient id="Y" x1="136.86301" x2="159.66701" y1="134.847" y2="134.847" gradientTransform="scale(.516 .514)" gradientUnits="userSpaceOnUse"><stop offset="0" stop-color="#D59B6C"/><stop offset="1" stop-color="#F4A570"/></linearGradient><linearGradient id="Z" x1="143.40401" x2="148.86501" y1="139.60699" y2="139.60699" gradientTransform="scale(.516 .514)" gradientUnits="userSpaceOnUse"><stop offset="0" stop-color="#313134"/><stop offset="1" stop-color="#F4A570"/></linearGradient><linearGradient id="aa" x1="139.453" x2="155.36501" y1="132.49899" y2="132.49899" gradientTransform="scale(.516 .514)" gradientUnits="userSpaceOnUse"><stop offset="0" stop-color="#313134"/><stop offset="1" stop-color="#E48C68"/></linearGradient><linearGradient id="ab" x1="153.99699" x2="171.79601" y1="118.702" y2="118.702" gradientTransform="scale(.516 .514)" gradientUnits="userSpaceOnUse"><stop offset="0" stop-color="#313134"/><stop offset="1" stop-color="#F4A570"/></linearGradient><linearGradient id="ac" x1="138.842" x2="144.168" y1="118.651" y2="118.651" gradientTransform="scale(.516 .514)" gradientUnits="userSpaceOnUse"><stop offset="0" stop-color="#313134"/><stop offset="1" stop-color="#F4A570"/></linearGradient><linearGradient id="ad" x1="145.619" x2="150.351" y1="107.931" y2="107.931" gradientTransform="scale(.516 .514)" gradientUnits="userSpaceOnUse"><stop offset="0" stop-color="#E48C68"/><stop offset="1" stop-color="#F4A570"/></linearGradient><linearGradient id="ae" x1="146.27299" x2="154.864" y1="102.784" y2="102.784" gradientTransform="scale(.516 .514)" gradientUnits="userSpaceOnUse"><stop offset="0" stop-color="#313134"/><stop offset="1" stop-color="#F4A570"/></linearGradient><linearGradient id="af" x1="139.976" x2="144.35899" y1="122.716" y2="122.716" gradientTransform="scale(.516 .514)" gradientUnits="userSpaceOnUse"><stop offset="0" stop-color="#E48C68"/><stop offset="1" stop-color="#F4A570"/></linearGradient><linearGradient id="ag" x1="147.03" x2="150.214" y1="123.341" y2="123.341" gradientTransform="scale(.516 .514)" gradientUnits="userSpaceOnUse"><stop offset="0" stop-color="#E48C68"/><stop offset="1" stop-color="#F4A570"/></linearGradient><linearGradient id="ah" x1="136.45" x2="159.5" y1="125.518" y2="125.518" gradientTransform="scale(.516 .514)" gradientUnits="userSpaceOnUse"><stop offset="0" stop-color="#E48C68"/><stop offset="1" stop-color="#F4A570"/></linearGradient><linearGradient id="ai" x1="146.12199" x2="151.054" y1="135.985" y2="135.985" gradientTransform="scale(.516 .514)" gradientUnits="userSpaceOnUse"><stop offset="0" stop-color="#E48C68"/><stop offset="1" stop-color="#F4A570"/></linearGradient><linearGradient id="aj" x1="147.007" x2="156.467" y1="134.269" y2="134.269" gradientTransform="scale(.516 .514)" gradientUnits="userSpaceOnUse"><stop offset="0" stop-color="#6F4E4B"/><stop offset="1" stop-color="#F4A570"/></linearGradient><linearGradient id="ak" x1="144.42599" x2="145.858" y1="134.543" y2="134.543" gradientTransform="scale(.516 .514)" gradientUnits="userSpaceOnUse"><stop offset="0" stop-color="#E48C68"/><stop offset="1" stop-color="#F4A570"/></linearGradient><linearGradient id="al" x1="151.20599" x2="152.161" y1="134.293" y2="134.293" gradientTransform="scale(.516 .514)" gradientUnits="userSpaceOnUse"><stop offset="0" stop-color="#E48C68"/><stop offset="1" stop-color="#F4A570"/></linearGradient><linearGradient id="am" x1="151.26401" x2="160.72501" y1="134.278" y2="134.278" gradientTransform="scale(.516 .514)" gradientUnits="userSpaceOnUse"><stop offset="0" stop-color="#6F4E4B"/><stop offset="1" stop-color="#F4A570"/></linearGradient><linearGradient id="an" x1="107.522" x2="107.349" y1="160.543" y2="170.425" gradientTransform="scale(.516 .514)" gradientUnits="userSpaceOnUse"><stop offset="0" stop-color="#313134"/><stop offset="1" stop-color="#E48C68"/></linearGradient><linearGradient id="ao" x1="136.14999" x2="142.8" y1="163.787" y2="163.787" gradientTransform="scale(.516 .514)" gradientUnits="userSpaceOnUse"><stop offset="0" stop-color="#E48C68"/><stop offset="1" stop-color="#F4A570"/></linearGradient><linearGradient id="ap" x1="138.90601" x2="139.231" y1="153.80901" y2="172.438" gradientTransform="scale(.516 .514)" gradientUnits="userSpaceOnUse"><stop offset="0" stop-color="#F9C9A9"/><stop offset="1" stop-color="#F4A570"/></linearGradient><linearGradient id="aq" x1="154.52299" x2="160.411" y1="163.685" y2="163.685" gradientTransform="scale(.516 .514)" gradientUnits="userSpaceOnUse"><stop offset="0" stop-color="#E48C68"/><stop offset="1" stop-color="#F4A570"/></linearGradient><linearGradient id="ar" x1="157.64799" x2="158.091" y1="153.685" y2="179.058" gradientTransform="scale(.516 .514)" gradientUnits="userSpaceOnUse"><stop offset="0" stop-color="#F9C9A9"/><stop offset="1" stop-color="#F4A570"/></linearGradient><linearGradient id="as" x1="156.34" x2="162.53" y1="187.76801" y2="187.76801" gradientTransform="scale(.516 .514)" gradientUnits="userSpaceOnUse"><stop offset="0" stop-color="#AC5A56"/><stop offset=".086" stop-color="#E48C68"/><stop offset="1" stop-color="#F4A570"/></linearGradient><linearGradient id="at" x1="153.47099" x2="159.914" y1="179.03" y2="179.03" gradientTransform="scale(.516 .514)" gradientUnits="userSpaceOnUse"><stop offset="0" stop-color="#E48C68"/><stop offset="1" stop-color="#F4A570"/></linearGradient><linearGradient id="au" x1="138.269" x2="144.459" y1="193.01199" y2="193.01199" gradientTransform="scale(.516 .514)" gradientUnits="userSpaceOnUse"><stop offset="0" stop-color="#AC5A56"/><stop offset=".086" stop-color="#E48C68"/><stop offset="1" stop-color="#F4A570"/></linearGradient><linearGradient id="av" x1="139.37601" x2="139.662" y1="179.62601" y2="187.81" gradientTransform="scale(.516 .514)" gradientUnits="userSpaceOnUse"><stop offset="0" stop-color="#F9C9A9"/><stop offset="1" stop-color="#F4A570"/></linearGradient><linearGradient id="aw" x1="135.39999" x2="141.843" y1="179.03" y2="179.03" gradientTransform="scale(.516 .514)" gradientUnits="userSpaceOnUse"><stop offset="0" stop-color="#E48C68"/><stop offset="1" stop-color="#F4A570"/></linearGradient><linearGradient id="ax" x1="118.588" x2="124.779" y1="198.776" y2="198.776" gradientTransform="scale(.516 .514)" gradientUnits="userSpaceOnUse"><stop offset="0" stop-color="#AC5A56"/><stop offset=".086" stop-color="#E48C68"/><stop offset="1" stop-color="#F4A570"/></linearGradient><linearGradient id="ay" x1="119.548" x2="119.864" y1="179.547" y2="188.604" gradientTransform="scale(.516 .514)" gradientUnits="userSpaceOnUse"><stop offset="0" stop-color="#F9C9A9"/><stop offset="1" stop-color="#F4A570"/></linearGradient><linearGradient id="az" x1="115.719" x2="122.678" y1="178.578" y2="178.578" gradientTransform="scale(.516 .514)" gradientUnits="userSpaceOnUse"><stop offset="0" stop-color="#E48C68"/><stop offset="1" stop-color="#F4A570"/></linearGradient><linearGradient id="aA" x1="102.43" x2="108.62" y1="200.255" y2="200.255" gradientTransform="scale(.516 .514)" gradientUnits="userSpaceOnUse"><stop offset="0" stop-color="#AC5A56"/><stop offset=".086" stop-color="#E48C68"/><stop offset="1" stop-color="#F4A570"/></linearGradient><linearGradient id="aB" x1="99.560997" x2="106.856" y1="178.52699" y2="178.52699" gradientTransform="scale(.516 .514)" gradientUnits="userSpaceOnUse"><stop offset="0" stop-color="#E48C68"/><stop offset="1" stop-color="#F4A570"/></linearGradient><linearGradient id="aC" x1="128.22701" x2="126.972" y1="162.625" y2="163.44" gradientTransform="scale(.516 .514)" gradientUnits="userSpaceOnUse"><stop offset="0" stop-color="#313134"/><stop offset="1" stop-color="#AC5A56"/></linearGradient><linearGradient id="aD" x1="140.338" x2="143.633" y1="131.625" y2="131.625" gradientTransform="scale(.516 .514)" gradientUnits="userSpaceOnUse"><stop offset="0" stop-color="#E48C68"/><stop offset="1" stop-color="#F4A570"/></linearGradient><linearGradient id="aE" x1="146.201" x2="149.82001" y1="196.325" y2="248.088" gradientTransform="scale(.516 .514)" gradientUnits="userSpaceOnUse"><stop offset="0" stop-color="#EF986B"/><stop offset=".777" stop-color="#FFFFFD"/><stop offset="1" stop-color="#EF986B"/></linearGradient><linearGradient id="aF" x1="107.4" x2="83.656998" y1="217.578" y2="188.258" gradientTransform="scale(.516 .514)" gradientUnits="userSpaceOnUse"><stop offset="0" stop-color="#B27670"/><stop offset="1" stop-color="#FFFFFD"/></linearGradient><linearGradient id="aG" x1="128.56" x2="132.64799" y1="203.81" y2="262.263" gradientTransform="scale(.516 .514)" gradientUnits="userSpaceOnUse"><stop offset="0" stop-color="#EF986B"/><stop offset=".777" stop-color="#FFFFFD"/><stop offset="1" stop-color="#EF986B"/></linearGradient><linearGradient id="aH" x1="90.652" x2="266.728" y1="219.66701" y2="219.66701" gradientTransform="scale(.516 .514)" gradientUnits="userSpaceOnUse"><stop offset="0" stop-color="#DE7A6F"/><stop offset="1" stop-color="#F4A570"/></linearGradient><linearGradient id="aI" x1="174.604" x2="201.57899" y1="200.37801" y2="200.37801" gradientTransform="scale(.516 .514)" gradientUnits="userSpaceOnUse"><stop offset="0" stop-color="#F4A570"/><stop offset="1" stop-color="#EF956F"/></linearGradient><linearGradient id="aJ" x1="102.772" x2="134.21201" y1="222.743" y2="222.743" gradientTransform="scale(.516 .514)" gradientUnits="userSpaceOnUse"><stop offset="0" stop-color="#906572"/><stop offset="1" stop-color="#DE7A6F"/></linearGradient><linearGradient id="aK" x1="116.349" x2="147.789" y1="217.306" y2="217.306" gradientTransform="scale(.516 .514)" gradientUnits="userSpaceOnUse"><stop offset="0" stop-color="#906572"/><stop offset="1" stop-color="#DE7A6F"/></linearGradient><linearGradient id="aL" x1="176.573" x2="240.67599" y1="204.19099" y2="204.19099" gradientTransform="scale(.516 .514)" gradientUnits="userSpaceOnUse"><stop offset="0" stop-color="#DE7A6F"/><stop offset="1" stop-color="#AC5A56"/></linearGradient><linearGradient id="aM" x1="141.664" x2="205.767" y1="196.888" y2="196.888" gradientTransform="scale(.516 .514)" gradientUnits="userSpaceOnUse"><stop offset="0" stop-color="#DE7A6F"/><stop offset="1" stop-color="#AC5A56"/></linearGradient><linearGradient id="aN" x1="89.296997" x2="120.738" y1="241.638" y2="241.638" gradientTransform="scale(.516 .514)" gradientUnits="userSpaceOnUse"><stop offset="0" stop-color="#906572"/><stop offset="1" stop-color="#DE7A6F"/></linearGradient><linearGradient id="aO" x1="170.88499" x2="176.261" y1="181.782" y2="181.782" gradientTransform="scale(.516 .514)" gradientUnits="userSpaceOnUse"><stop offset="0" stop-color="#AC5A56"/><stop offset="1" stop-color="#F4A570"/></linearGradient><linearGradient id="aP" x1="196.963" x2="202.328" y1="179.62" y2="179.62" gradientTransform="scale(.516 .514)" gradientUnits="userSpaceOnUse"><stop offset="0" stop-color="#AC5A56"/><stop offset="1" stop-color="#F4A570"/></linearGradient></defs><path d="m126.469 289.902-.383-.297c-.039-.035-24.648-19.68-43.742-39.719-34.672-36.387-60.07-75.973-72.332-131.879-5.176-23.582-7.625-46.855-8.809-64.656C.031 35.593.129 23.148.074 21.691-.004 19.543.004 7.445 0 2.285V0h255.758v2.285c0 5.16.004 17.258-.074 19.406-.051 1.457.043 13.902-1.133 31.66-1.18 17.801-3.629 41.074-8.805 64.656-12.262 55.902-37.66 95.492-72.332 131.879-19.09 20.039-43.703 39.684-43.766 39.738l-1.77 1.375zm0 0"/><path fill="#fff" d="M4.652 21.527c.063 1.754-.039 13.844 1.129 31.527 1.168 17.641 3.602 40.715 8.711 63.977 12.102 55.043 36.883 93.68 71.18 129.711 14.082 14.793 31.414 29.531 39.18 35.949a303.744 303.744 0 0 0 3.027 2.484c.703-.57 1.73-1.406 3.031-2.484a576.807 576.807 0 0 0 10.477-8.887c8.477-7.359 19.313-17.203 28.703-27.063 34.297-36.031 59.074-74.668 71.176-129.711 5.109-23.262 7.543-46.336 8.711-63.977 1.168-17.684 1.07-29.773 1.129-31.527.059-1.641.066-11.156.07-16.965H4.582c.004 5.809.012 15.324.07 16.965zm0 0"/><path d="M89.574 224.375c.695.223 2.043.652 2.043-3.168 0-2.746-1.043-7.996-5.133-12.57l-8.113-9.063v26.645l7.066 7.895c3.414 3.816 4.324 3.902 5.273 3.484.883-.387 1.441-1.77 1.441-3.883 0-2.633-.535-5.832-2.578-9.34zm-7.855-16.461 4 4.469c1.578 1.766 2.555 3.523 2.555 5.715 0 2.113-1.094 1.746-2.465.215l-4.09-4.57zm4.277 22.219-4.277-4.777v-7.125l4.438 4.961c1.258 1.402 2.512 3.695 2.512 6.035 0 2.707-.977 2.805-2.672.906zm14.656-5.418v26.621l-3.484-3.895V220.82Zm12.911 12.281v21.387l9.211 8.648v5.211l-13.168-12.281v-26.598zm27.5 12.395c.773-1.281 2.273-3.766 2.273-7.586 0-2.746-1.164-5.734-5.707-1.473l-9.004 8.449v26.645l7.844-7.363c3.793-3.563 4.801-5.434 5.859-7.91.98-2.293 1.598-4.879 1.598-6.992 0-2.637-.59-4.676-2.863-3.77zm-8.723.504 4.441-4.164c1.754-1.648 2.84-1.996 2.84.191 0 2.117-1.215 4.109-2.738 5.539l-4.543 4.262zm4.75 12.988-4.75 4.453v-7.121l4.93-4.629c1.395-1.309 2.789-1.723 2.789.613 0 2.707-1.086 4.91-2.969 6.684zm21.586-42.426-4.465 4.191-6.605 32.84 4.078-3.824 1.289-6.703 6.836-6.422 1.188 4.383 4.207-3.953zm-4.672 20.934 2.426-12.816 2.297 8.383zm27.441-35.782c-2.414-11.098-8.547-6.645-10.77-4.441-2.215 2.203-7.762 9.352-5.348 20.449 2.418 11.098 8.551 6.648 10.77 4.445 2.219-2.207 7.762-9.355 5.348-20.453zm-6.258 16.27c-1.891 1.879-4.914 2.879-6.355-3.738-1.441-6.617.867-10.91 2.754-12.789 1.895-1.883 4.914-2.883 6.355 3.738 1.441 6.621-.863 10.91-2.754 12.789zM26.945 85.488 34 76.851h5.719l-9.523 12.281 9.523 12.473H34l-7.055-8.633-7.055 8.633h-5.719l9.523-12.473-9.523-12.281h5.719zm201.793 0 7.055-8.637h5.719l-9.523 12.281 9.523 12.473h-5.719l-7.055-8.633-7.055 8.633h-5.723l9.527-12.473-9.527-12.281h5.723zm5.508-64.066c.586-.586 1.453-1.504 1.453-3.293 0-3.102-2.363-4.453-4.77-4.453h-9.277v16.367h9.277c3.145 0 5.551-1.637 5.551-4.758 0-2.051-1.324-3.449-2.234-3.863zm-10.254-5.387h6.938c1.648 0 2.43.785 2.43 2.094 0 1.461-.824 2.398-2.43 2.398h-6.938zm6.938 11.648h-6.938v-4.801h6.938c2.449 0 3.211.941 3.211 2.402 0 1.574-1.02 2.398-3.211 2.398zM26.625 13.676l-7.352 16.367h2.563l2.406-5.391h7.262l2.32 5.391h2.645l-7.242-16.367Zm-1.301 8.621 2.559-5.699 2.559 5.699zm12.918-6.262h5.699v14.008h2.344V16.035h5.703v-2.359H38.242Zm30.305 4.254h-9.539v-6.613h-2.34v16.367h2.34v-7.398h9.539v7.398h2.344V13.676h-2.344zm11.402-6.613h-2.34v16.367h12.207v-2.359h-9.867zm15.524 9.012h5.531v-2.355h-5.531v-4.297h10.969v-2.359H93.133v16.367h13.723v-2.359H95.473Zm14.629-6.653h5.703v14.008h2.34V16.035h5.703v-2.359h-13.746zm18.144-2.359h2.34v16.367h-2.34zm16.344 14.359c-4.445 0-6.785-3.121-6.785-6.047 0-4.078 3.164-6.305 6.199-6.305 3.34 0 5.398 1.875 6.137 2.488l1.758-1.508c-.785-.762-3.473-3.336-7.914-3.336-4.813 0-8.523 3.84-8.523 8.66 0 5.02 4.164 8.402 8.566 8.402 4.66 0 6.59-1.594 8.129-3.27l-1.563-1.707c-.715.852-2.535 2.621-6.004 2.621zm28.09 0c-4.445 0-6.785-3.121-6.785-6.047 0-4.078 3.164-6.305 6.199-6.305 3.34 0 5.402 1.875 6.141 2.488l1.754-1.508c-.781-.762-3.473-3.336-7.914-3.336-4.813 0-8.523 3.84-8.523 8.66 0 5.02 4.164 8.402 8.566 8.402 4.66 0 6.59-1.594 8.129-3.27l-1.559-1.707c-.719.852-2.539 2.621-6.008 2.621zm14.847-14.359h-2.34v16.367h12.203v-2.359h-9.863zm25.559 10.191c0 2.398-.992 4.168-4.789 4.168-3.793 0-4.793-1.77-4.793-4.168V13.676h-2.34v10.191c0 3.098 1.172 6.523 7.133 6.523 5.965 0 7.133-3.426 7.133-6.523V13.676h-2.344zM40.09 39.152l.137 2.414c.004.012.559 9.781.914 13.992.523 6.16 2.055 39.715 13.078 75.621 9.031 29.402 26.332 57.906 45.105 79.348 12.531 14.313 26.965 27.668 26.996 27.699l1.559 1.445 1.563-1.445c.027-.031 14.465-13.387 26.996-27.699 18.77-21.441 36.07-49.945 45.102-79.348 11.027-35.906 12.555-69.461 13.078-75.617.355-4.215.914-13.984.914-13.996l.137-2.414zm0 0"/><path fill="#fff" d="M138.344 98.777v124.387c4.52-4.566 9.734-10.035 14.641-15.637a246.896 246.896 0 0 0 2.699-3.148V86.016Zm38.269-28.172v104.426c6.809-11.313 12.773-23.395 17.336-35.727V57.839Zm-76.539 56.344v77.43a221.998 221.998 0 0 0 2.699 3.148c4.902 5.602 10.125 11.07 14.641 15.637v-108.98zm-33.293 24.512c3.633 8.098 7.813 16 12.367 23.563V142.36Zm0 0"/><path fill="#e2001a" d="M155.684 86.016v118.363c7.41-8.809 14.539-18.734 20.93-29.344V70.605Zm54.367-30.836c.195-2.328.461-6.512.652-9.676L193.949 57.84v81.465a176.718 176.718 0 0 0 3.207-9.461C208 94.508 209.523 61.485 210.051 55.18ZM79.148 142.359v32.664c6.387 10.613 13.516 20.547 20.93 29.355v-77.43zm38.266-28.175v108.98a480.34 480.34 0 0 0 9.602 9.438l.863.816.859-.816a447.302 447.302 0 0 0 6.277-6.109 372.67 372.67 0 0 0 3.328-3.328V98.778Zm0 0"/><path fill="url(#a)" d="M45.707 55.18c.527 6.305 2.055 39.328 12.895 74.664 1.785 5.816 3.91 11.602 6.313 17.316L205.423 43.719H44.946c.191 3.172.527 8.66.762 11.461zm0 0" style="fill:url(#a)"/><path fill="#5b9b5a" fill-rule="evenodd" d="m120.719 75.695-.797-.793-.695-.199-.898.102-.594.691s-.797.398-1.793.102c-.992-.301-1.793-1.391-1.793-1.391l-.598-.891s0-.895-.594-.695c-.598.199-1.195.992-1.195.992s-.301.297-.797.496c-.496.199-1.492-.297-1.492-.297l-.199-.793s.398.195.797-.199c.398-.398.102-1.289.102-1.289l-.996-.594s-.598.098-.898.492c-.297.402-1.191.598-1.988.301-.797-.301-1.793-1.387-1.59-2.18.195-.793.895-2.184.895-2.184s0-.496-.5-1.09c-.496-.594-.793.496-.598-.395.203-.895.203-1.59.895-2.184.699-.594 1.594-.594 1.594-.594s.5-.297.5-.891c0-.594-.996-1.488-.996-1.488s-1.492-.199-1.793-.891c-.297-.695-.504-3.27-.109-4.063.402-.793 1.195-1.289 1.695-1.684.496-.398.695-2.578.695-2.578s.566-1.258.895-.895c.219.242.02.828.02.828s.184 1.453.379 1.949c.199.496.496 1.09.496 1.09l.598-.793.102-3.766s.297-1.09 1.293-1.586 2.688-1.289 3.285-1.387c.598-.102 1.891.297 1.891.297s.695-1.586 1.293-1.984c.598-.395 1.293-.594 1.992-.793.695-.199 2.137-.531 2.73-.434.598.098.262-.473.758-.074.496.395 1.008.379 1.605.281a2.547 2.547 0 0 1 1.137.086s1.016 1.055 2.012.262c.398-.316 2.566.027 2.566.027s1.578 1.102 2.273 1.5c.695.395.75.73.75.73s.695-.098 1.293 0c.598.102.992.301 1.195 1.094.199.793.199 1.188.598.988.395-.195.496-.594 1.094-.594.594 0 .996.496 1.492.895.496.395 1.391.395 1.391.395s.301.199.598.793c.301.598 1.492 1.09 1.492 1.09s.5.098.898.695c.398.594.305 2.672.305 2.672s-.098 1.09.203 1.586c.297.496.895.395.992.891.102.496.102.992-.098 1.488-.203.496-.398 1.387-.398 1.387s.195.496.496 1.094c.297.594.102.691 0 1.188-.098.496-.398 1.289-.398 1.289s0 1.09.301 1.484c.297.398.395 1.586.297 2.281-.098.695-.098.695-.598.992-.496.297-1.094.496-1.094.496s.098 1.09-.199 1.684c-.297.598-.398.793-.895 1.289-.5.496-1.992.496-1.992.496l-.695.992s-.102 1.387-.5 2.082c-.395.691-.695 1.188-1.391 1.684-.699.496-1.691.594-2.191.594-.496 0-.895-.297-.895-.297s-.199.496-.695.793c-.5.301-1.195.102-1.195.102l-.297.891s-.301.496-.699.395c-.398-.094.102-2.078.102-2.078l-.699-.598s-.496 1.488-.695 1.984c-.199.496-1.293.691-1.293.691s-.398-.395-.5-.891c-.098-.492.797-.891.797-.891l-.098-1.191s-.996-.297-1.594-.496c-.594-.195-2.82-.512-2.82-.512s-2.355.215-2.953.512c-.594.297-.992-.594-.992-.594zm0 0"/><path fill="#f4a570" d="M105.391 63.699c.699-.594 1.594-.594 1.594-.594s.5-.297.5-.891c0-.594-.996-1.488-.996-1.488s-1.496-.199-1.793-.891c-.082-.191-.156-.535-.215-.945h-3.594v5.523h3.973c.109-.258.273-.492.531-.715zm43.511-4.808h-4.418c-.191.504-.379 1.34-.379 1.34s.199.496.496 1.09c.297.598.102.695 0 1.191-.098.492-.398 1.285-.398 1.285s0 .285.043.617h4.656zm0 0"/><path fill="#6f4e4b" d="M100.891 64.414v.016c.02.289.211.48.566.563h3.219c.047-.203.102-.395.184-.578zm0 0"/><path fill="url(#b)" d="M107.484 62.215c0 .594-.5.891-.5.891s-.895 0-1.594.594c-.691.594-.691 1.289-.895 2.184-.195.891.102-.199.598.395.5.594.5 1.09.5 1.09s-.699 1.391-.895 2.184c-.203.793.793 1.879 1.59 2.18.797.297 1.691.102 1.988-.301.301-.395.898-.492.898-.492l.996.594s.297.891-.102 1.289c-.398.395-.797.199-.797.199l.199.793s.996.496 1.492.297.797-.496.797-.496.598-.793 1.195-.992c.594-.199.594.695.594.695l.598.891s.801 1.09 1.793 1.391c.996.297 1.793-.102 1.793-.102l.594-.691.898-.102.695.199.797.793s.395.891.992.594c.598-.297 2.953-.512 2.953-.512s2.227.313 2.82.512c.598.199 1.594.496 1.594.496l.098 1.191s-.895.395-.797.891c.102.496.5.891.5.891s1.094-.199 1.293-.691c.199-.496.695-1.984.695-1.984l.699.598s-.5 1.98-.102 2.078c.398.102.699-.395.699-.395l.297-.891s.695.195 1.195-.102c.496-.301.695-.793.695-.793s.398.297.895.297c.5 0 1.492-.098 2.191-.594.695-.496.996-.992 1.391-1.688.398-.691.5-2.082.5-2.082l.695-.988s1.492 0 1.992-.496c.496-.496.598-.691.895-1.289.297-.598.199-1.684.199-1.684s.598-.199 1.094-.496c.5-.297.5-.297.598-.992.098-.695 0-1.883-.297-2.281-.301-.395-.301-1.488-.301-1.488s.301-.793.398-1.289c.102-.492.297-.59 0-1.188a14.144 14.144 0 0 1-.496-1.09s.195-.891.398-1.387c.199-.496.199-.992.098-1.488-.098-.496-.695-.398-.992-.895l-.008-.008c-.535.977-1.008 1.957-2.238 2.137-.859.125-1.371-.391-2.223-.199-2.352.527-.219 4.219-2.016 5.828-1.48 1.328-2.91 1.137-4.844 1.609-10.262 2.496-18.27-12.242-26.484-5.629l-.297.262c.48.195.988.266.988.266s.996.895.996 1.488zm0 0" style="fill:url(#b)"/><path fill="url(#c)" d="M138.137 64.52c.555-1.742.129-2.918.805-4.621.789-1.988 2.82-2.367 3.18-4.473.195-1.145.375-2.727.164-3.891l-.082-.023s-1.191-.496-1.492-1.09a3.035 3.035 0 0 0-.215-.371c-9.211 2.09-32.027 18.648-28.887 23.691l.152-.129s.598-.793 1.191-.992c.598-.199.598.695.598.695l.598.891s.293.398.742.777c4.551-.148 20.504-1.848 23.246-10.465zm0 0" style="fill:url(#c)"/><path fill="url(#d)" d="m138.137 64.52-.164.434c3.285-1.465 4.969-4.465 2.898-6.359-.32-.035-.605-.133-.902-.191-.402.41-.777.867-1.027 1.496-.676 1.703-.25 2.879-.805 4.621zm0 0" style="fill:url(#d)"/><path fill="url(#e)" d="M114.422 65.828c10.191 2.715 15.34-4.926 15.941-7.941.234-1.156 1.191-.707 1.918-1.207 3.297-2.246 8.047-3.203 7.371-7.094-.293-.047-.664-.145-.93-.355-.496-.395-.895-.891-1.492-.891-.598 0-.699.398-1.094.594-.398.199-.398-.195-.598-.988-.203-.797-.598-.992-1.195-1.094-.598-.098-1.293 0-1.293 0s-.055-.336-.75-.73c-.5-.285-1.449-.93-1.945-1.273-7.297.262-25.957 18.313-15.934 20.98zm0 0" style="fill:url(#e)"/><path fill="url(#f)" d="M121.996 44.039h-.047c-.594-.102-2.035.234-2.73.434l-.234.07.887 5.906c4.516-1.887 3.215-4.398 2.125-6.41zm0 0" style="fill:url(#f)"/><path fill="url(#g)" d="M127.59 47.887a2.275 2.275 0 0 0 2.121 1.758l1.07-4.504-.473-.324c-2.23.242-2.52 1.211-2.719 3.07zm0 0" style="fill:url(#g)"/><path fill="#475462" d="M117.953 73.566c-1.41.102-3.734.102-4.641-1.91-.281-.625-2.016 1.813-2.016 1.813l.313.27.152-.125s.598-.793 1.191-.992c.598-.199.598.695.598.695l.598.891s.797 1.094 1.793 1.391c.996.297 1.793-.102 1.793-.102l.594-.691.035-.004c.078-.609.063-1.27-.41-1.234zm19.473 2.012c-2.012 1.285-3.672 1.246-6.051 1.004-1.984-.199-3.629-3.18-4.844-1.609l-.203.301.07.781c.453.078.875.164 1.086.234.598.199 1.594.496 1.594.496l.098 1.191s-.895.395-.797.891c.102.496.5.891.5.891s1.094-.199 1.293-.695c.199-.492.695-1.98.695-1.98l.699.598s-.5 1.98-.102 2.078c.398.102.699-.395.699-.395l.297-.891s.695.195 1.195-.102c.496-.301.695-.797.695-.797s.398.301.895.301c.5 0 1.492-.098 2.191-.594.695-.496.996-.992 1.391-1.688.398-.691.5-2.082.5-2.082l.344-.488c-1.117.281-1.137 1.848-2.246 2.555zm0 0"/><path fill="url(#h)" d="M110.488 57.184c1.613-.473 1.613-4.762 2.621-3.418.605.805-.793 2.793.406 3.316 1.109.492 1.539-1.773 2.723-1.504 1.121.25.672 2.082 1.816 2.309 1.516.305.504-6.633.91-8.141 0 0 .809 1.91 1.613.5 1.332-2.328-.5-3.984-1.664-5.684-.594.172-1.176.367-1.688.703-.598.398-1.293 1.984-1.293 1.984s-1.293-.398-1.891-.297c-.531.086-1.938.727-2.941 1.219l.195 2.379s-3.32 7.363-.809 6.633zm0 0" style="fill:url(#h)"/><path fill="url(#i)" d="M129.859 50.352c2.527 1.434 3.512-.934 3.469-3.527l-.277.027s-.055-.336-.75-.73c-.695-.398-2.273-1.5-2.273-1.5s-.504-.078-1.07-.129c-.094.629-.141 1.301-.203 1.938-.168 1.559-1.078 2.676 1.105 3.922zm0 0" style="fill:url(#i)"/><path fill="url(#j)" d="M137.914 53.371c-1.719 1.391-4.156 3.516-3 3.273.602-.129 1.875-.582 3.137-1.645 2.023-.785 3.508-2.148 4.035-3.543-.301-.137-1.133-.551-1.375-1.035-.297-.594-.598-.797-.598-.797s-.332 0-.707-.09c-.223 1.387-.594 3.109-1.492 3.836zm0 0" style="fill:url(#j)"/><path fill="#3e514c" d="M140.246 51.711c-.117.355-.223.555-.477.832-.313.348-.586.453-1.016.637-.266.117-.59-.039-.719.227-.172.359.605.398.984.27.266-.09.328-.293.531-.484.785-.742 1.203-1.195 1.855-2.055l.031-.031c-.297-.191-.594-.426-.727-.688l-.188-.324c-.098.262-.09.512-.152.84-.063.301-.027.484-.125.777zm0 0"/><path fill="#f4a570" d="M121.949 44.039c.598.098.262-.473.758-.074.496.395 1.008.379 1.605.281a2.547 2.547 0 0 1 1.137.086s.262.273.652.438v-1.051h-5.449v.418c.512-.09 1.004-.145 1.297-.098zm0 0"/><path fill="#de7a6f" d="M126.613 44.887v-1.168h-.512v1.051c.152.063.328.109.512.117zm0 0"/><path fill="url(#k)" d="M121.98 49.203c.719.766 1.453-1.039 1.738-2.043.262-.93-.168-2.461-.75-3.441H121.3c-.02 1.07 1.586 1.895 1.469 3.227-.082.93-1.426 1.578-.789 2.258zm0 0" style="fill:url(#k)"/><path d="M113.469 81.469c-.141-.102-.148-.242-.156-.414l1.09-.676c-.055-.18-1.352.57-1.773.27l-.098.094-.105.043-.035.102-.223.121-.055.191-.246.172-.074.293-.18.188-.012.117v.066l-.008.086-.105.164-.004.043.02.168v.027l-.09.199v.02l.047.277.004.02-.086.227.004.016.094.199v.008l-.063.223v.02l.109.195v.008l-.059.191.004.023.137.254v.016l-.027.137v.035l.102.16.004.02-.027.129.008.035.105.168.004.012-.027.113.008.031.105.152.004.02-.023.109.012.035.102.125.113.324a.262.262 0 0 0 .25.172h.004c.156 0 .313-.109.316-.258l-.047-.129c-.121-.234-.313-.672-.313-1.027 0-.172.043-.324.156-.426l.031-.02.035.094c.137.25.258.586.371 1.027.125.059.23.078.328.078s.191-.02.277-.059c.109-.324.207-.578.305-.785-.012.324-.168.711-.266.922l-.074.16.027-.023c-.027.133.082.176.18.176a.33.33 0 0 0 .211-.066l.094-.203.125-.293.129-.184.012-.059-.012-.102.008-.043.121-.191.004-.039-.02-.121v-.016l.082-.172.004-.035-.016-.129v-.008l.008-.082.023.055.02-.074c0-.004.043-.16.043-.328a.57.57 0 0 0-.086-.316l-.039-.027-.07-.285-.008-.039.008-.117v-.043l-.063-.191-.023-.004h.02l.016-.02.246.395.445-.145c.016-.031-.23-.746-.242-1.215v-.035c0-.258.066-.57.133-.836l-.055-.008c-.543-.031-1.168.609-1.297.52zm0 0"/><path fill="#313134" d="m114.496 83.148.02-.004.383-.117-.07-.211-.449.141zm0 0"/><path fill="#fefce9" d="m113.621 85.867.027.008.078-.023.008-.098zm-1.152.231.047-.035-.047-.055zm1.414-2.532c.059.141.086.293.086.453 0 .121-.016.246-.047.383l-.094.18.008.078c0 .273-.102.578-.195.801l.293.105.094-.219.129-.184.008-.043-.008-.102.008-.059.121-.188.004-.023-.023-.125.008-.031.078-.168v-.023l-.016-.129.004-.023.012-.137a1.519 1.519 0 0 0-.469-.547zm.746-2.89-.73-.984s-.699.461-1.328 1.09l-.105.039-.035.102-.223.121-.051.191-.246.164-.07.289-.18.18-.012.102v.063l-.004.105-.105.16-.004.027.023.168-.004.031-.086.199v.02l.043.27v.008h-.012l.016.004-.082.242h-.012.012l.098.211v.008l-.066.223v.012l.109.203v.012l-.055.188v.012l.137.262v.023l-.027.137v.016l.102.168.004.031-.023.125v.02l.109.172.004.027-.027.109.004.016.113.156v.035l-.02.105.004.016.102.125.109.313-.008-.082.391-.188c-.121-.246-.266-.613-.266-.941 0-.176.043-.344.172-.457l.051-.039a1.178 1.178 0 0 1-.043-.297c0-.145.027-.285.129-.391-.184.137-.344.371-.473.699l-.023.063-.023-.063a1.27 1.27 0 0 1-.102-.461c0-.078.012-.156.051-.223.137-.223.559-.289.602-.293l.145-.082.016-.004.078.023h.004l.133-.063h.012l.102.031.133-.02.023-.027h.008l.098.043h.008l.129-.027.016.004.102.059h.016l.094-.012.039.004.098.082c.004 0 .285.004.473.117l-.051-.227-.008-.055.008-.117v-.035l-.063-.188-.004-.012.059-.094-.059-.152v-.004l.082-.207v-.016l-.035-.184.004-.031.098-.184v-.012l-.031-.125v-.02l.109-.188v-.031l-.016-.133.004-.043.098-.191.004-.039-.004-.074.008-.043c.07-.215.125-.363.137-.367zm-.055.289-.035.098v.027l.004.074-.008.051-.098.195-.004.023.016.137v.043l-.109.188-.004.004.035.129v.02l-.098.191-.004.012.035.188-.004.02-.086.207h.012l.059.152-.023.043.102.172.457-.156c-.074-.254-.18-.645-.184-.949v-.039c0-.266.063-.578.137-.844h-.008l-.191.016zm0 0"/><path fill="#6f4e4b" d="M112.648 84.52c-.035.012-.082-.098-.09-.117l.098-.055.094-.047-.031.047c-.004.016-.031.176-.07.172zm0 0"/><path fill="#313134" d="m112.992 85.445.094-.105.105-.023.121.031.094.102-.207.035-.152-.027-.055-.012zm0 0"/><path fill="#6f4e4b" d="m113.836 84.43-.055.051c-.043.004-.066-.156-.066-.156l-.035-.059.191.117-.004.008zm0 0"/><path fill="#fefce9" d="M114.406 84.078a1.153 1.153 0 0 0-.539-.527c.023.172.047.316.047.469l-.035.313c-.059-.051-.164-.121-.215-.121l-.043.035.004.023.043.074c0 .012 0 .172.109.191h.004l.016-.008c-.113.227-.23.531-.355.918h-.008l-.09-.141-.152-.039-.141.031-.117.137-.027-.004a4.325 4.325 0 0 0-.293-.875l.035.016v.004c.121-.02.113-.207.117-.207l.039-.059-.023-.008.023.004.004-.02-.043-.039c-.063.004-.191.098-.23.125l-.027-.078a1.068 1.068 0 0 1-.047-.309c0-.133.027-.266.086-.398-.223.109-.379.328-.504.633a1.202 1.202 0 0 1-.078-.379c0-.078.012-.145.047-.199.109-.199.563-.27.563-.27v-.027l.004.027.145-.082h.004l.078.023.004-.004.145-.063.102.031.156-.047h.004l.102.047h.008l.129-.027h.004l.102.059.027.004.094-.012h.02l.109.082c.012 0 .422.008.547.172.055.066.074.176.074.285l-.023.238zm0 0"/><path fill="#313134" d="M112.164 86.063a.202.202 0 0 0 .156.082l.133-.035.004-.121.066.066.059-.117-.035-.098.02-.02-.02.016-.043-.082-.363.176zm1.402-.426-.098.164.023-.027c0 .047.047.078.109.09l.137-.129.004.113.086-.027.078-.184.016-.043-.293-.102-.063.145zm0 0"/><path fill="#f4a570" d="m114.223 82.129.063-.121-.375.027c-.773 0-1.457-.277-1.898-.703l-.098.066-.047.188c.324.445.809.762 1.473.762.289 0 .59-.07.879-.176v-.012l.004-.031zm0 0"/><path fill="#eb7714" d="m112.363 80.957-.156.086-.051.191-.145.098c.441.426 1.125.703 1.898.703l.375-.027.035-.063v-.012l-.031-.129v-.02l.07-.117-.086.008c-.781 0-1.469-.285-1.91-.719zm0 0"/><path fill="#e32e20" d="M113.469 81.469c-.141-.102-.148-.242-.156-.414l1.09-.676c-.055-.172-1.25.508-1.719.289l-.113.113-.105.039-.035.105-.066.031c.441.434 1.129.719 1.91.719l.086-.008.039-.066v-.031l-.016-.137.004-.039.098-.191.004-.039-.004-.074.008-.043.02-.066c-.469.121-.934.563-1.043.488zm0 0"/><path fill="#313134" fill-rule="evenodd" d="M112.508 80.457c-.043-.188-.164-.242-.027-.414.285-.352.988-.75.988-.75l.52-.234s.184-.434.313-.594c.207-.258 1.348-.363 1.348-.363l.418-.723s.25-.418.52-.52c.152-.055.418-.051.418-.051s-.223.23-.262.414c-.039.18.055.465.055.465s.477-.043.777 0c.289.043.535-.016.727.207.098.121.156.363.156.363s-.426-.191-.676-.102c-.27.094-.469.566-.469.566l.336.383c.23.238.445.297.625.578.148.227.133.406.258.645.332.625.699.875 1.25 1.32 2.543 2.051 5.313-.98 8.391.129.797.289 1.129.945 1.977.906.586-.027.824-.445 1.402-.543 1.43-.238 1.84.785 3.48 1.293 4 1.242 4.938-1.5 4.938-1.5s-1.395 3.965-4.938 3.363c-2.133-.363-2.203-2.391-3.949-2.176-.309.043-.699.117-.781.184 1.34 1.254.391 3.027.676 3.207.566.359 1.207-.262 1.586.207.313.391-.391 2.563-.391 2.563-.23.492-.352.75-.883.984-.672.266-1.227.074-1.195-.414.027-.406.883-.57.883-.57.352-.039.512-.262.781-.465l-.055-1.242s-1.613.27-2.438-.207c-1.164-.672-.336-2.281-1.352-3.156-1.992-1.715-3.762 2.316-6.391 2.172-.789-.043-2.102-.656-2-.336.285.906.336 1.965.023 2.613-.176.359-.594 1.059-1.297 1.578l-.496.078c-.68.082-.828-.52-.391-.801.918-.465 1.531-1.027 1.48-1.27-.023-1.551-.359-1.453-1.063-1.965-1.195-.875-2.543-.195-3.742.672-.336.242-.531.625-.777.723-.133.055-.445.738-.73.414-.672-.758 1.832-1.68 1.832-1.68l2.535-1.168s-.504-1.102-.625-1.859c-.152-.98.34-2.484.156-2.539-.418-.117-.73.242-1.207.195l-.457-.09c-.543-.031-1.164.609-1.297.52-.141-.102-.145-.242-.156-.418l1.094-.672c-.07-.207-1.742.801-1.898.078zm0 0"/><path fill="url(#l)" d="M129.836 83.383c-.547-.914-1.777-1.277-2.48-1.164-1.066.164-3.66 1.629-5.887.957-1.441-.438-3.223-2.121-3.223-2.121-.207 0 1.215 1.945 2.445 2.605 2.418 1.293 5.672-1.488 6.91-1.313.727.102 1.52.398 1.867 1.188.27.613-.281 1.086-.047 1.707.254.699 1.348 1.348 1.348 1.348s-.441-.926-.621-1.555c-.188-.629.023-1.09-.313-1.652zm0 0" style="fill:url(#l)"/><path fill="#403d3e" fill-rule="evenodd" d="M127.824 84.703c-.309 1.68.07 2.465 1.039 3.336-.266.938-.645 1.645-1.297 2.383h-1.273s-.047-.285.023-.438c.164-.344.965-.16.965-.16a3.71 3.71 0 0 0 .57-1.344s-1.738-.875-1.793-1.887c-.074-1.426 1.953-2.883 1.766-1.891zm0 0"/><path fill="url(#m)" d="M139.863 66.406c-.938.152-.313.414-.727.516-.418.105-.363.258-.52.879-.156.621-.363.313-.73.52-.363.207-.777-.051-.465-.52.313-.461.207-.207.727-.828.523-.621.211-.309.262-.723.051-.414.262-.309.621-.57.363-.258.469-.359.574-.566.102-.207.309-.313.621-.777.313-.469.051-.363.313-.883.262-.516.57-.828.832-1.137 0 0-1.195.676-1.301 1.5-.105.828-.055.313-.727 1.242-.676.934-.777.313-1.145.727-.363.414-.363.516-.465.879-.105.363-.52.621-1.094 1.086-.57.469-.414.52-.883 1.035-.465.516-.262.516-.57 1.242-.313.727-.727.52-1.246.52-.52 0-.156-.313-.156-.777 0-.465 0-.363.051-.621.055-.262.258-.363.676-.672l.32-.234.461-.129c.57-.156.727-.465.414-.52-.313-.051-.832.262-1.246.52-.414.258-.57.414-.57.414s0-.465.156-.777c.156-.309-.313.207-.625.57-.313.363-.258.414-.207 1.035.051.621-.156.828-.363 1.086l-.625.258c-.156.262-.52.469-.883.781-.363.309-1.563.41-1.609.102-.055-.313.102-.207.465-.469.367-.258.367-.359.727-.879.363-.516.055-.258.313-.672.262-.414.051-.207.262-.723.207-.52.363.102.777-.262.418-.359.156-.359.52-.723.367-.363.313-.309.938-.777.625-.465.469 0 1.039-.051.57-.055.363-.105.988-.414.621-.313.313-.207.57-.777.262-.57.313-.57.52-.984a.5.5 0 0 1 .465-.285c-.195-.023-.48-.035-.672.027-.313.105-.523.672-.676 1.086-.16.414-.418.313-1.043.52-.621.207-.516.102-1.035.102-.52 0-.367-.102-.262-.516.105-.414.262-.984.262-.984s-.367.051-.367.258c0 .207-.258.469-.359 1.293-.105.828-.211.105-.68.363l-.215.137c.004.023.137.02.008.281l-.469.824c-.207.414-.309.207-.621.055-.313-.156-.051-.414.102-.934l.262-.828-.52.676s-.465.461-.414 2.172c.051 1.707-.418.672-.676 1.086-.262.414-.313.414-.57.723-.262.313-.656 1.832-.762 1.422-.105-.414-1.445 2.309-1.551 1.273-.105-1.035-.066-1.352-.277-1.457-.203-.102.59-1.887.641-2.09.055-.207.074-2.199.336-2.508.258-.313.625-.313.625-.313s.258-.207.727-.469c.469-.254.52.16.938.105.414-.051.414-.152.621-.414.207-.258.469-.414.727-.777.262-.359.207.262.574.156.359-.102.414-.363.621-.621.207-.258.313-.465.781-.984.465-.516.621-.258 1.039-.824.414-.574.051-.52.203-1.191.16-.676.313-1.137.313-1.137s-.414.617-.723 1.5c-.313.875-.367.672-.574.93-.207.258-.258.051-.621-.102-.367-.156-.211.207-.832 1.344-.625 1.141-.414.207-.727.102-.313-.102-.367.16-.73.883s-.465.465-1.141.57c-.68.105-.313 0 .102-.363.414-.363.207-.207.469-.777.258-.566.051-.258.363-.879.313-.621.105-.469.363-1.242.262-.777.469-.879.727-.934.262-.051-.414-.051-.883.469-.465.516-.363.516-.52.98-.152.465-.363.879-.883 1.918-.52 1.035-.832.465-1.09.672-.262.207-.625.465-.832.828-.207.363-.469.52-.727.773-.262.262-.574.363-.727 1.242-.16.883.41 1.922.203 2.336-.207.414-.746.105-1.004.363-.262.258-.344-1.195.07-2.902.418-1.707-.051-.363.055-1.086.102-.727.309-.262.57-.469.258-.207.105-.207.418-1.293.309-1.086.258-.152.828-.57.57-.414 0-.359.055-.773.051-.414.051-.262.52-.313.465-.051.359-.051.934-.309.57-.262.262-.262.727-.363.469-.105.105-.621.105-.621s-.988.773-1.195.824c-.211.055-.363-.102-1.246.055-.887.152-.313.363-.367.828-.051.465-.414.465-.934.105-.52-.363-.051-.52-.051-1.039 0-.516 0-.359.727-1.293.727-.93.102-.363.469-1.191.363-.824.363-.203.828-.41.469-.207.313-.105.832-.727.52-.621-.258-.363-.207-.879.051-.52.156-.52 1.09-1.141.938-.621.625.105.938-.102.309-.207.051-.262.363-1.141.309-.879.309-.359.621-.727.313-.359.574-.617.988-1.188.418-.57.207-.52.156-1.086-.023-.262-.52.879-1.195 1.137-.676.262-.207.313-.727.723-.52.414-.52.625-.625 1.195-.105.566-.363.359-.828.309-.469-.051-.055-.363-.16-.828-.102-.469-.414-.055-.309.52.102.566-.051.359-.469.723-.418.363-.313.414-.418 1.137-.102.727-.258.777-.207 1.141.055.363-.52.465-.934.621-.414.156-.313-.055-.574-.57-.258-.516.105-.621.625-1.445.523-.832.211-.262.676-1.141.469-.879-.051-.672-.051-1.191 0-.16.027-.27.07-.344-.195.152-.434.387-.434.602 0 .363-.051.52-.313 1.086-.262.574-.414.414-.727.828l-.414.676a.947.947 0 0 0-.16 1.031c.16.367-.57 1.246-.828 2.281-.262 1.035-.262.414-.367.672-.102.258-.258.258-.207.879.055.621 0 .414.52 1.348.52.934-.051.727 0 1.344.055.621-.52.363-.52.363l-.309.828s-.16.414-.16 1.141c0 .266 0 .336.031.352.047.02.18-.125.543.266.57.621 0 .621-.262 1.297-.258.672 0 .621.105 1.035.105.414.105.465.363 1.191.262.723.313.465.313 1.031 0 .57-.363.367-.781.832-.414.465-.313.207-.879.051-.574-.156-.469-.414-.625-.777-.156-.359-.156-.313-.262-.727-.102-.41-.469.105-.934-.98l-.254-.59c.004 0 .051.09-.059-.238-.207-.621-.051-.258-.105-.777-.051-.52.418-.051.938-.156.52-.102.363-.309.777-.828.418-.516.055-.57.156-1.086.105-.516.207-.207.367-.414.152-.207-.055-.516-.105-1.137-.051-.625-.156-.156-.418-.625-.258-.461-.258-.461-.258-.875 0-.418.105-.313.363-.984.262-.676-.105-.414-.418-1.09-.309-.672-.207-.258-.102-.879.102-.621-.105-.207-.156-.465-.051-.262-.309-.207-.414-.57-.105-.359-.262-.52-.262-.52s-.207.574.105 1.039c.313.465.207.359.207.672 0 .309 0 .363.313.676.309.309 0 .152.051.875.051.727-.051.262-.207 1.297s.105.309.363 1.293c.262.984.051.57.156.828.105.258-.207.414-.414.672l-.207.934c-.211.516-.313.102-.836.102-.52 0-.359-.309-.621-1.137-.262-.828-.051-.621-.051-1.086 0-.465.051-.313.207-.883.156-.566-.105-.465-.262-1.035-.156-.566-.102-.465 0-.879.105-.414-.156-.621-.102-1.141.051-.516-.156-.359-.313-.879-.156-.516-.207-.465-.156-1.035.055-.566.055-.516.105-1.398v-1.137c.074-.367.094-.68.172-.887-.141.184-.328.445-.383.68-.102.465 0 .309-.207 1.035-.207.727-.258 1.293-.207 1.762.055.465 0 .672-.051 1.086-.055.414.051.465.363 1.293.313.828.102.363.055.879-.055.516-.055.57-.16 1.035-.102.469-.102.879.262 1.398.363.516 0 .309.051.828v1.762l-.883-.492-.051-3.496-.988-1.344s0-.207.207-.57l.313-.727c.207-.359-.051-.258-.258-.723-.207-.469-.055-.363.051-.934.102-.566.102-.773.102-1.344 0-.57-.152-.672-.207-.984-.051-.313-.105-.207-.258-.621-.156-.414.051-.414.258-.727.207-.309.363-.465.781-.773.414-.313.309-.258.621-.672.313-.414 0-.469 0-.469l.262-.465.363-.309h-.625s-.363.465-.414 1.086c-.051.621-.727.57-.832.773-.102.207-.465.574-.465.574l-.52.566.52 1.863c.156.57-.055.621-.055 1.035 0 .414-.207.57-.258.93-.055.367-.156.313.102 1.297.262.984.055.309 0 .57-.051.258-.102 1.137-.102 1.137s.102.883.102 1.297c0 .41.055.672.262 1.086.207.414.105.359.363.465.262.102.055.516.055.723 0 .117.227.961.063 1.02-.633 1.012-1.371.605-2.215-1.23l-.344-.926c-.102-.57.051-.414.313-.879.258-.465.102-.258.258-.621.156-.363.105-.313-.051-1.141-.156-.828.051-.516.051-.516l-.207-.621s-.207.773-.105 1.035c.105.258.055.828.055.828s-.055.621-.363 1.188c-.121.223-.668.695-.781.883-1 .262-1.406.117-1.348-.676.199-.234.492-.547.723-.777l.418-.414c.207-.207.207-.359.313-.879l.156-.723c.051-.258 0-.621 0-.621s.414-.156.727-.207c.309-.051.363-.258.621-.414.262-.156.262-.516.262-.516v-.781s.051-.879-.156-1.652c-.207-.777-.105-.777-.105-.777l.367-.52-.52.258s-.16.625 0 1.141c.152.52.051.52.051 1.086 0 .57-.051.777-.051.777s-.105.516-.367.777c-.258.258-.57-.055-.57-.055s-.258-.309-.414-.516c-.156-.207.207-.414.207-.414s.051-.57 0-.984c-.055-.414-.363-.051-.363-.051s-.313.152-.574-.102c-.258-.262-.102-.52-.102-.52s.414-.207.777-.57c.367-.363.055-.723.055-.723l-.105-.52s-.105.465-.156.777c-.051.309-.676.621-.676.621s-.258.258-.313.465c-.051.207-.051.516.105.828.156.309-.258.57-.258.57l.047.516h.418l.469.414.207.828s-.105 1.09-.207 1.398c-.105.313-.313.57-.313.57s-.102-.258-.156-.57c-.051-.309-.313-.414-.313-.414v1.035c0 .313-.57.156-.57.156s-.258-.258-.313-.828c-.051-.57.156-.414.156-.414s-.051-.414-.621-.777l-.211-.621v-.984s0-.461.262-.773c.258-.313.363-.465.363-.465s.156-.57-.055-1.242c0 0-.207 1.035-.414 1.293s-.418.051-.418.051-.152-.516-.102-1.086c.051-.57 0-.672 0-.672l-.156-.52-.207-.359-.105 1.137s-.207.777-.414.516l-.313-.414-.102.363s.309.359.676.52c.359.152.309.516.309.516s.207 2.383.207 2.742c0 .363-.309.676-.309.676s-.414 0-.625-.313c-.207-.309-.52-.879-.52-.879s-.73-.727-.57-.414c.152.309.777 1.445 1.141 1.656.367.207.418.57.418.57s-.363.309-.52.102c-.156-.207-.207-.414-.625-.516-.414-.105-.156.258-.469.359-.309.105-.516-.359-.934-.672-.523-.391.262.727.262.727s.672.516 1.191.516c.523 0 .988.102.988.102l.164.359-1.816.383-.168.039s.367.406.598.57l1.691.359-.059.578c.219.293.531.461.941.508.426-.016.617.227.57.727.148.219.402.246.766.074l.535.082.879.566c.238.707.27 1.293 1.035 1.969.09.121.211.152.355.172.805.25 1.566.227 2.285-.074.359-.105.785-.227.898-.254.207-.051.313.516.414.879.105.363-.207.57-.207.57l-.051.566.676.414c.414.262.57.469.777.621.207.156.414 1.09.52 1.297.105.207 0 1.449 0 1.449l-.465-.465-.52.258-.313.414s.363.727.676 1.086c.313.363.883 1.5.883 1.5s-.207 22.723-.414 23.137c-.207.414-.313.672-.313.672l-.777 1.914-.781.469-1.039.313h-.832l1.066 1.035 6.727-4.953V91.095s.207-11.594.207-11.801c0-.207.469-.984 1.145-1.656.676-.676.418-.414.988-1.242.57-.828 0-.414.363-.828s.469-.57.727-.828c.262-.258.262-.105.625-.363s.57.363.934.313c.363-.055.313-.055.988 0l.473.047.203.004c.367 0 .727-.051.727-.051s.574-.105 0-.57c-.57-.469-.465-.102-.934-.621-.469-.516.051-.207.676-.727.621-.516.152-.258.414-.516s.313-.313.832-.52c.52-.207.414.156.984.055.574-.105.262-.207.52-.676l.473-.93c.309-.57.309-.363.57-.777.258-.414.152-.207.465-.465.313-.258.207 0 .73.207.52.207.672.258 1.035.258.367 0 .367-.156.887-.777s-.055-.258.207-1.188c.258-.934.258-.207.57-.621.313-.414.465-.313.676-.414.207-.105-.051-.156-.988 0zm0 0" style="fill:url(#m)"/><path fill="#6f4e4b" d="M122.352 104.602c-.152-.309-.309-.309-.207-.566.105-.258.574-.57.676-1.246.105-.672.258-1.551.051-2.066-.207-.52-.359-1.141-.359-1.605 0-.469.102-3.828.047-4.195-.047-.359.211-1.188.055-1.914-.156-.723-.313.414-.156-1.137.156-1.555.469-2.07.57-3.055.105-.984.211-2.641 0-3.105-.207-.465.938-1.605.887-2.641-.055-1.035-1.031-2.184-.875-2.648.156-.465-.996.164-.996.164l-.156 17.289-.105 2.535.051 2.172.055.52-.625.879-.625 1.969-1.035.566-.883.313-.68.105.469.363.672-.086 3.191-2.348c.012-.105.016-.199-.02-.262zm0 0"/><path fill="#313134" d="M135.035 93.836c-1.641-.512-2.055-1.535-3.484-1.297-.574.098-.816.516-1.402.543-.848.043-1.176-.617-1.973-.902-3.078-1.109-5.852 1.922-8.395-.129-.547-.449-.914-.695-1.242-1.324-.129-.238-.113-.418-.262-.645-.184-.277-.395-.34-.625-.578l-.336-.383s.195-.469.465-.566c.254-.09.68.105.68.105s-.059-.246-.16-.363c-.188-.227-.434-.168-.727-.207-.301-.043-.777 0-.777 0s-.094-.289-.051-.465c.039-.188.258-.418.258-.418s-.266-.004-.418.055c-.266.102-.516.516-.516.516l-.418.727s-1.141.102-1.352.363c-.125.156-.313.594-.313.594l-.52.234s-.703.398-.984.75c-.137.168-.016.227.027.414.156.719 1.832-.285 1.895-.078l-1.09.672c.008.172.012.316.152.418.133.09.758-.551 1.301-.52l.457.09c.473.047.785-.313 1.207-.195.18.055-.313 1.559-.156 2.539.117.754.621 1.859.621 1.859l-2.699 1.559s-2.348 1.23-1.676 1.992c.285.324.727-.016.855-.066.25-.102.465-.773.871-1.176 1.059-1.059 2.309-2.273 3.559-1.453.781.512 1.195.52 1.043 2.148.047.246-.57.805-1.484 1.27-.441.285-.289.883.391.801.188-.125.336.039.496-.074a4.49 4.49 0 0 0 1.297-1.582c.313-.645.258-1.707-.027-2.609-.098-.324 1.211.289 2 .336 2.633.141 4.398-3.891 6.395-2.176 1.016.875.188 2.488 1.348 3.156.828.48 2.445.207 2.445.207v.012l.922-.68-.066-.184c-.379-.473-1.02.148-1.582-.211-.285-.18.66-1.953-.676-3.207.078-.063.469-.141.777-.184 1.699-.211 1.82 1.699 3.785 2.137l2.047-1.504c-.539-.004-1.16-.098-1.883-.32zm0 0"/><path d="M113.469 91.867c-.141-.098-.145-.242-.152-.414l1.09-.672c-.055-.184-1.352.566-1.777.27l-.094.09-.109.047-.035.098-.219.125-.059.191-.242.172-.074.289-.184.188-.012.117v.07l-.008.086-.105.16-.004.043.02.168v.027l-.086.199v.023l.043.277.008.016-.086.23.004.016.09.199v.004l-.063.223.004.023.105.199v.004l-.055.188.004.023.133.258.004.016-.031.137.004.031.102.164v.016l-.023.129.004.035.109.168v.016l-.027.109.008.031.109.156v.02l-.02.105.008.035.102.125.113.328a.266.266 0 0 0 .25.172h.008c.152 0 .313-.113.316-.262l-.047-.125c-.121-.238-.313-.676-.313-1.031 0-.168.043-.32.152-.422l.035-.02.035.094c.133.246.258.586.367 1.027.125.055.23.078.328.078a.671.671 0 0 0 .281-.063c.109-.316.211-.578.301-.785-.008.328-.164.715-.262.922l-.078.164.027-.027c-.023.137.082.176.184.176a.33.33 0 0 0 .211-.066l.094-.203.121-.293.133-.18.008-.063-.008-.102.008-.039.117-.195.008-.035-.023-.125.004-.012.082-.176v-.035l-.016-.125v-.012l.008-.082.027.055.016-.07c0-.004.043-.16.043-.332 0-.109-.02-.23-.086-.316l-.039-.027-.07-.285-.004-.039.008-.117-.004-.043-.063-.191h-.023.023v-.004l.016-.016.246.391.445-.145c.016-.035-.23-.746-.242-1.215v-.035c0-.258.063-.57.133-.832l-.055-.012c-.543-.027-1.168.609-1.301.52zm0 0"/><path fill="#313134" d="M114.496 93.547h.023l.379-.117-.066-.215-.453.141zm0 0"/><path fill="#fefce9" d="m113.625 96.27.027.004.078-.02.008-.098zm-1.152.23.047-.035-.051-.059zm1.414-2.535c.055.145.086.297.086.457 0 .121-.02.246-.051.383l-.094.18.008.078c0 .27-.102.574-.191.801l.293.105.094-.223.129-.184.008-.039-.008-.105.008-.055.121-.191v-.023l-.023-.121.008-.035.078-.164.004-.027-.016-.125.004-.023.012-.141a1.558 1.558 0 0 0-.469-.547zm-.418-2.098c-.141-.098-.145-.242-.152-.414l1.09-.672c-.055-.176-1.25.504-1.719.289l-.113.109-.105.043-.035.102-.223.121-.051.191-.246.164-.07.289-.18.18-.008.102v.066l-.008.102-.105.16-.004.027.02.168v.031l-.086.199v.02l.043.27v.008h-.012l.012.004-.078.242h-.016.016l.094.207v.012l-.063.223v.012l.109.203v.012l-.055.188v.012l.133.262.004.023-.027.137v.016l.102.168.004.027-.027.129.004.02.109.172.004.027-.027.109.004.016.109.156.004.031-.02.109v.016l.105.125.109.313-.004-.082.387-.188c-.121-.246-.27-.613-.27-.941 0-.176.047-.344.172-.461l.055-.035a1.178 1.178 0 0 1-.043-.297c0-.145.027-.285.129-.391-.184.137-.344.371-.473.699l-.023.063-.027-.063s-.098-.238-.098-.461c0-.078.008-.156.051-.223.133-.227.559-.289.598-.293l.145-.082.016-.004.082.023.137-.063h.012l.102.031.133-.02.023-.027h.008l.098.043h.004l.129-.027h.02l.102.063h.016l.094-.012.035.004.102.082c.004 0 .285.004.473.113l-.055-.223-.004-.055.004-.117v-.035l-.063-.188-.004-.012.063-.094-.063-.152v-.004l.082-.207v-.016l-.035-.184.008-.031.098-.184v-.012l-.035-.125.004-.023.105-.184.004-.031-.016-.137.004-.039.098-.191.004-.039-.008-.074.012-.043.02-.066c-.469.121-.938.566-1.047.488zm1.105-.5-.031.098-.004.027.008.074-.008.051-.098.191-.008.027.02.133-.004.047-.105.188-.004.004.031.125v.02l-.098.191v.016l.035.184-.004.023-.086.203h.008l.063.156-.027.043.105.168.457-.156c-.078-.25-.176-.645-.184-.945l-.004-.039c0-.27.066-.578.137-.844l-.004-.004-.195.02zm0 0"/><path fill="#6f4e4b" d="m112.648 94.922-.086-.121.098-.051.094-.047-.031.047c-.004.016-.031.172-.074.172zm0 0"/><path fill="#313134" d="m112.996 95.844.09-.102.109-.027.121.031.09.105-.207.031-.148-.027-.055-.012zm0 0"/><path fill="#6f4e4b" d="m113.84 94.832-.059.051c-.039 0-.063-.16-.063-.16l-.035-.059.191.117v.004l-.004.008-.031.039zm0 0"/><path fill="#fefce9" d="M114.41 94.48a1.166 1.166 0 0 0-.539-.527c.02.168.051.316.051.469l-.043.309c-.055-.047-.16-.117-.215-.121l-.043.039.008.023.043.07c0 .012 0 .176.109.191l.02-.008c-.109.227-.23.531-.355.922h-.008l-.09-.141-.152-.039-.141.035-.121.129-.027-.004a3.909 3.909 0 0 0-.293-.871l.039.016c.121-.02.113-.203.117-.203l.039-.059-.027-.008.027.004.004-.02-.043-.039c-.066.004-.191.094-.23.121l-.027-.078a.97.97 0 0 1 .035-.707c-.219.113-.375.332-.5.633a1.18 1.18 0 0 1-.078-.383l.043-.191c.113-.203.566-.273.566-.273l-.004-.023.004.023.148-.078.082.02h.004l.141-.063h.004l.102.027.156-.047h.004l.102.047h.008l.125-.027h.008l.102.063h.027l.094-.012.02.004.109.078c.012 0 .422.012.547.172.055.066.074.176.074.285l-.023.242zm0 0"/><path fill="#313134" d="M112.164 96.461a.202.202 0 0 0 .16.086l.129-.039.008-.117.07.063.055-.117-.035-.098.023-.016-.027.012-.035-.082-.363.176zm1.406-.422-.102.164.027-.027c0 .051.047.074.105.086l.141-.125.004.109.082-.023.082-.188.016-.039-.297-.102-.059.145zm0 0"/><path fill="#f4a570" d="m114.227 92.531.063-.121-.375.027c-.777 0-1.461-.277-1.898-.703l-.102.066-.043.188c.32.441.805.758 1.473.758.289 0 .59-.066.883-.172l-.004-.016.004-.027zm0 0"/><path fill="#eb7714" d="m112.363 91.359-.152.086-.055.191-.145.098c.441.426 1.125.703 1.902.703l.375-.027.035-.066v-.012l-.035-.125.004-.02.066-.121-.086.008c-.777 0-1.465-.281-1.91-.715zm0 0"/><path fill="#e32e20" d="M113.469 91.867c-.141-.098-.145-.242-.152-.414l1.09-.672c-.055-.176-1.25.504-1.719.289l-.113.109-.105.043-.035.102-.07.035c.445.434 1.133.715 1.91.715l.086-.004.039-.07.004-.031-.016-.133.004-.043.098-.191.004-.039-.004-.074.008-.043.02-.063c-.469.117-.938.563-1.047.484zm0 0"/><path fill="url(#n)" d="M129.836 93.781c-.547-.914-1.777-1.273-2.477-1.164-1.066.168-3.66 1.629-5.887.957-1.441-.438-3.223-2.121-3.223-2.121-.207 0 1.211 1.945 2.441 2.605 2.418 1.297 5.676-1.488 6.914-1.313.727.102 1.52.402 1.871 1.191.266.609-.285 1.082-.055 1.707.258.699 1.352 1.348 1.352 1.348s-.441-.926-.625-1.555c-.184-.629.027-1.09-.313-1.656zm0 0" style="fill:url(#n)"/><path fill="#756862" fill-rule="evenodd" d="M127.828 95.102c-.313 1.68.07 2.469 1.039 3.34a5.733 5.733 0 0 1-1.301 2.379h-1.27s-.051-.281.027-.438c.16-.344.957-.156.957-.156.293-.445.484-.891.574-1.348 0 0-1.738-.875-1.793-1.887-.078-1.426 1.949-2.879 1.766-1.891zm0 0"/><path fill="#c6ab9c" fill-rule="evenodd" d="M121.664 96.855a7.898 7.898 0 0 0 3.16-1.414s-.758 1.156-1.527 1.414c-.602.203-1.633 0-1.633 0zm0 0"/><path fill="url(#o)" d="M105.555 108.742c-5.016.082-5.93 3.898-5.973 12.898l10.996-8.098c-1.137-2.734-2.75-4.836-5.023-4.801zm0 0" style="fill:url(#o)"/><path fill="url(#p)" d="M90.59 108.742c-6.234 1.422-8.832 10.355-8.832 20.395h-.02c.074 1.527.234 3.32.473 5.289l13.281-9.777c.406-6.934 1.129-17.281-4.902-15.906zm0 0" style="fill:url(#p)"/><path fill="url(#q)" d="m58.594 129.824.008.02c1.785 5.816 3.91 11.602 6.313 17.316l17.297-12.734a76.135 76.135 0 0 1-.473-5.289zm0 0" style="fill:url(#q)"/><path fill="url(#r)" d="M52.398 83.121h-3.902a341.25 341.25 0 0 0 1.344 8.871l2.559-.02zm0 0" style="fill:url(#r)"/><path fill="#6f4e4b" d="M52.398 83.797v-.422l-3.891-.16.129.918 3.609.078zm0 0"/><path fill="#ac5a56" d="M52.141 91.148h-.828l.023-7.867-.496-.027v.027h-.023v7.867h-.645l.02-7.766-.492-.027v.027h-.027v7.559c.145.887.289 1.781.445 2.688h2.023zm-1.977-7.504v-.234Zm1.145-.219v-.121zm0 0"/><path fill="url(#s)" d="M50.094 93.477a312.69 312.69 0 0 0 2.148 11.406V93.477Zm0 0" style="fill:url(#s)"/><path fill="#313134" fill-rule="evenodd" d="M52.973 86.59h5.922v5.074h-5.922zm0 0"/><path fill="#ac5a56" fill-rule="evenodd" d="m56.09 86.695 1.145-.105v4.813h-1.563zm0 0"/><path fill="url(#t)" fill-rule="evenodd" d="m58.617 77.328-.754.207-.051 14.129 2.078.105.52-.414 20.887-.16.262-14.93-1.609.18-8.824.234-1.371.945-9.941.117-.309-.469zm0 0" style="fill:url(#t)"/><path fill="url(#u)" d="m70.801 91.25.313-14.391-.27.012-1.09.754-7.582.09-.203 13.328zm0 0" style="fill:url(#u)"/><path fill="#ac5a56" d="m75.496 74.418-.172 2.07 2.781-.07-.051-1.816zm3.703-.156v2.129l2.012-.047.066-2.082zm0 0"/><path fill="url(#v)" fill-rule="evenodd" d="M60.234 77.727h2.398s.445.293.445.578c.004.324-.578.605-.578.605l-.082 12.469-2.055.125zm0 0" style="fill:url(#v)"/><path fill="url(#w)" d="M61.598 89.336c.176 1.961.516.207.727.102l.137-4.723.039-5.805h-1.844c.684.152.758 8.422.941 10.426zm0 0" style="fill:url(#w)"/><path fill="url(#x)" d="m52.66 92.543.266 15.539a280.59 280.59 0 0 0 1.633 7.035c7.746-4.547 19.531-11.441 27.199-15.816v-6.707zm0 0" style="fill:url(#x)"/><path fill="url(#y)" d="M53.18 92.18v17.043c.434 1.945.891 3.91 1.379 5.895 1.953-1.148 4.168-2.449 6.508-3.816l-.195-18.914Zm0 0" style="fill:url(#y)"/><path fill="#313134" d="M54.371 93.477a52.165 52.165 0 0 0-.047-1.266l-.34-.008v11.16s.492-6.031.387-9.887zm0 0"/><path fill="url(#z)" d="M62.012 90.008v20.738c2.859-1.672 5.875-3.43 8.816-5.141l-.164-16.09zm0 0" style="fill:url(#z)"/><path fill="#313134" d="m70.43 92.594-.102 13.305.504-.293-.133-12.949zm0 0"/><path fill="url(#A)" d="M72.422 90.008v14.672c3.152-1.828 6.164-3.566 8.758-5.051l-.105-10.113Zm0 0" style="fill:url(#A)"/><path fill="#313134" d="m80.84 92.594-.039 4.934-.047-4.727-.938-.207-.059 7.852 1.418-.816-.07-6.973zm0 0"/><path fill="#de7a6f" fill-rule="evenodd" d="m51.309 91.195 30.395-.047c.363 0 .469 1.551.211 1.551l-30.605.051c-.484-.582-.484-1.098 0-1.555zm0 0"/><path fill="url(#B)" d="M81.957 91.496c-.059-.199-.141-.348-.254-.348l-30.395.047c-.281.266-.395.551-.348.855l30.641.129zm0 0" style="fill:url(#B)"/><path fill="#e48c68" d="M72.301 90.938v1.203l4.855.02c-1.605-.246-2.883-.66-4.063-1.227zm-10.004.05v1.109l4.18.02c-1.313-.266-2.422-.652-3.547-1.137Zm-8.481.043v1.031l3.555.016a18.518 18.518 0 0 1-3.063-1.055zm0 0"/><path fill="url(#C)" d="m61.492 92.051.145.68 7.879-.012.031-.59zm0 0" style="fill:url(#C)"/><path fill="url(#D)" d="m54.801 92.039.152.707 4.156-.008-.008-.66zm0 0" style="fill:url(#D)"/><path fill="url(#E)" d="m72.781 92.09.133.625 4.172-.008-.008-.527zm0 0" style="fill:url(#E)"/><path fill="url(#F)" fill-rule="evenodd" d="M53.336 77.43c-.773-.02-1.516 2.352-1.715 3.027l.363 10.691 1.09.207 1.102-13.863zm0 0" style="fill:url(#F)"/><path fill="url(#G)" d="m53.953 77.473-.617-.043c-.359-.008-.715.508-1.012 1.125.25 3.332.102 10.863.246 12.422.203.293.375.242.523.121l.625-7.859zm0 0" style="fill:url(#G)"/><path fill="url(#H)" fill-rule="evenodd" d="M54.637 77.43c-.695.297-1.457.984-1.457.984l-.105 8.332h2.391s.227-9.234 0-9.316c-.262-.094-.531-.129-.828 0zm0 0" style="fill:url(#H)"/><path fill="url(#I)" d="M54.605 86.375c.07-1.629.586-4.926.957-7.152-.008-1.039-.035-1.77-.098-1.793-.262-.098-.531-.129-.828 0-.391.164-.793.449-1.078.668 1.301.426 1.078 7.469 1.047 8.277zm0 0" style="fill:url(#I)"/><path fill="url(#J)" fill-rule="evenodd" d="M55.984 77.43c-.648.297-1.453.984-1.453.984l-.105 8.332h2.391s.18-9.074 0-9.316c-.191-.262-.535-.137-.832 0zm0 0" style="fill:url(#J)"/><path fill="url(#K)" d="M55.727 85.918c.547-.332.902-1.074 1.137-2 .035-2.684.063-6.336-.047-6.488-.191-.262-.535-.137-.832 0-.539.25-1.184.758-1.383.926.5 1.988.34 8.039 1.125 7.563zm0 0" style="fill:url(#K)"/><path fill="url(#L)" fill-rule="evenodd" d="M57.281 77.43c-.605.27-1.453.984-1.453.984l-.102 8.332h2.129s.254-9.273.035-9.336c-.242-.066-.375-.082-.609.02zm0 0" style="fill:url(#L)"/><path fill="url(#M)" d="M57.891 77.41c-.242-.066-.375-.082-.609.02-.605.27-1.453.984-1.453.984l-.004.594c.238 1.898.813 5.113 1.332 7.738h.699s.254-9.273.035-9.336zm0 0" style="fill:url(#M)"/><path fill="#6f4e4b" d="M82.223 63.785c-.066-.168-.355-.223-.359-.227a50.124 50.124 0 0 1-5.516.309c-1.844 0-3.695-.105-5.551-.309l-.004.023-.008-.023c0 .004-.234.055-.301.195l-.016.07c.004.18.23.371.23.375 1.996.273 3.941.406 5.859.406a39.41 39.41 0 0 0 5.461-.375c.016-.012.211-.203.215-.379l-.012-.066zm0 0"/><path fill="url(#N)" fill-rule="evenodd" d="M71.988 64.074c3.105.277 6.133.277 9.094 0 0 0-.625-7.09-4.57-7.09-4.16 0-4.523 7.09-4.523 7.09zm0 0" style="fill:url(#N)"/><path fill="url(#O)" d="m78.742 64.23 2.336-.188c-.031-.344-.719-7.059-4.57-7.059-.297 0-.57.047-.832.113l-1.09.613c2.762 1.102 4.215 3.551 4.156 6.52zm0 0" style="fill:url(#O)"/><path fill="url(#P)" d="M75.059 57.328c-2.793 1.41-3.07 6.746-3.07 6.746 1.445.129 2.871.191 4.281.203l.762-.047c-.945-1.484-2.648-3.465-1.973-6.902zm0 0" style="fill:url(#P)"/><path fill="url(#Q)" d="M73.828 58.367c-1.645 2.063-1.84 5.707-1.84 5.707.875.082 1.75.129 2.613.164-.938-1.156-1.453-3.898-.773-5.871zm0 0" style="fill:url(#Q)"/><path fill="url(#R)" d="M80.586 61.512c-.449-1.625-1.289-3.535-2.805-4.242l-1.559.727c2.91 0 3.313 1.281 4.363 3.516zm0 0" style="fill:url(#R)"/><path fill="url(#S)" fill-rule="evenodd" d="M78.367 57.375c0-.395-.883-.715-1.969-.715s-1.969.32-1.969.715c0 .391.883.711 1.969.711s1.969-.32 1.969-.711zm0 0" style="fill:url(#S)"/><path fill="url(#T)" d="M76.398 58.086c.984 0 1.793-.262 1.938-.605-1.336.391-2.609.289-3.82-.305a.325.325 0 0 0-.086.199c0 .391.883.711 1.969.711zm0 0" style="fill:url(#T)"/><path fill="url(#U)" fill-rule="evenodd" d="M71.434 73.281c-5.16 4.32 10.641 2.684 10.641 2.684s1.047.18 0 .547c0 0-30.176.473-31.023.195-1.117-.371 20.574-4.867 20.574-4.867zm0 0" style="fill:url(#U)"/><path fill="#313134" d="m82.027 73.828-10.457-1.57-.137 1.023c-5.16 4.32 10.641 2.684 10.641 2.684l.242.063c1.617-.844.898-2.242-.289-2.199zm0 0"/><path fill="url(#V)" fill-rule="evenodd" d="m71.336 72.668 10.004-.879s1.316.543 1.098 2.266c-.09.727-11.777 1.09-12.191-.41-.223-.809 1.09-.977 1.09-.977zm0 0" style="fill:url(#V)"/><path fill="url(#W)" d="m73.109 72.512-1.773.156s-1.313.168-1.09.977c.133.48 1.414.77 3.098.914-.516-.766-.469-1.492-.234-2.047zm0 0" style="fill:url(#W)"/><path fill="url(#X)" d="M82.438 74.055c.219-1.723-1.098-2.266-1.098-2.266l-.59.051.957 1.031c.207.398.074 1.039-.285 1.527.617-.098 1-.215 1.016-.344zm0 0" style="fill:url(#X)"/><path fill="url(#Y)" fill-rule="evenodd" d="M70.691 64.645s-.117.402-.055.648c.063.219.117.379.313.492.125.07.363.074.363.074v4.43s-.91.367-.906.852c0 .469.855.855.855.855v.723c1.109.805 2.527 1.227 4.262 1.27l2.051.027c1.875-.141 3.16-.613 3.742-1.27v-.883s.809-.547.727-1.031c-.063-.383-.676-.727-.676-.727v-4.27s.336-.027.492-.156c.164-.129.199-.266.262-.465.066-.211.051-.57.051-.57zm0 0" style="fill:url(#Y)"/><path fill="#ac5a56" d="M74.676 71.328c-1.734-1.188-2.039-2.348-2.375-4.004l.09 6 .238.109c.754.297 1.605.473 2.559.527.465-.512.297-1.387-.512-2.633zm0 0"/><path fill="url(#Z)" d="M73.809 71.59c-1.078-.211-1.828-.875-2.496-1.598v.297s-.91.367-.91.852c0 .469.859.855.859.855v.723c.5.363 1.066.633 1.691.84-.145-.848.391-1.551.855-1.969zm0 0" style="fill:url(#Z)"/><path fill="url(#aa)" d="m73.809 71.59.047.008c-1.84-.434-1.609-5.391-1.449-5.969.18-.516.59-.684 1.738-.621l-1.066-.363h-2.387s-.117.402-.055.648c.063.219.117.379.313.492.125.07.363.074.363.074v4.133c.668.723 1.418 1.387 2.496 1.598zm0 0" style="fill:url(#aa)"/><path fill="#ac5a56" d="M82.043 70.832c-.051-.301-.438-.578-.602-.68l-.098.082s.348.492.273.816c-.102.453-1.004.641-1.004.641l.703.75v-.578s.809-.547.727-1.031zm0 0"/><path fill="#6f4e4b" d="M74.586 74.055v-2.797l-.297-.227-.344 2.934zm0 0"/><path fill="url(#ab)" d="m81.238 62.5-.105-.34s-.434-.387-.43-.711c.008-.316.43-.688.43-.688v-.98s-.262-.258-.273-.469c-.016-.242.301-.555.301-.555l.141-.801.156.824s.258.285.262.508c0 .211-.223.492-.223.492v.98s.445.367.453.688c.012.309-.387.699-.387.699l-.066.359c.52.195.391 1.391.391 1.391-.238.133-.715.18-1.211.203 0 0 .012-1.477.563-1.602zm0 0" style="fill:url(#ab)"/><path fill="url(#ac)" d="m71.383 62.492-.109-.371s-.398-.387-.387-.699c.008-.32.453-.684.453-.684v-.984s-.227-.281-.223-.492c.004-.219.262-.504.262-.504l.156-.828.141.801s.313.313.301.559c-.016.211-.273.465-.273.465v.984s.426.371.43.684c.004.324-.43.715-.43.715l-.039.371c.551.125.492 1.566.492 1.566a8.029 8.029 0 0 1-1.285-.152s-.008-1.234.512-1.43zm0 0" style="fill:url(#ac)"/><path fill="url(#ad)" fill-rule="evenodd" d="M75.156 56.91s.742.113 1.223.113c.48 0 1.223-.113 1.223-.113v-2.953h-2.418zm0 0" style="fill:url(#ad)"/><path fill="#313134" fill-rule="evenodd" d="m75.262 56.418.547.043v-1.875c0-.16-.109-.316-.273-.316a.277.277 0 0 0-.273.277zm1.535.152.543-.039v-1.875a.275.275 0 0 0-.273-.277c-.16 0-.27.152-.27.316zm0 0"/><path fill="#6f4e4b" d="M74.93 53.973c-.113-.125-.219-.32-.219-.5 0-.102.035-.199.133-.266a.516.516 0 0 1 .273-.059l.094.008.078-.359c.156-.496.473-.82.805-1.043l.121-1.027c-.227-.121-.664-.328-.668-.609 0-.379.434-.633.43-.621l.039-2.145.168-.352.152-3.223h.055l.141 3.184.188.398.008 2.113c.039.02.391.254.395.645-.008.258-.375.453-.559.551l.105 1.082c.441.336.676.523.801 1.008.043.16.051.406.035.422.031.004.23.023.332.113.098.082.145.172.145.281 0 .109-.047.234-.129.406a11.24 11.24 0 0 1-1.527.105 7.88 7.88 0 0 1-1.395-.113zm0 0"/><path fill="#c6ab9c" d="M74.871 53.254c-.074.051-.105.129-.105.219 0 .16.098.352.188.461a9.22 9.22 0 0 0 1.371.102c.504 0 1.012-.039 1.5-.09.063-.156.102-.273.102-.371 0-.094-.035-.164-.125-.246-.086-.074-.305-.098-.332-.121 0 0-.008-.273-.051-.434-.125-.473-.34-.645-.793-1l-.105-1.125c.203-.117.555-.328.547-.531.004-.352-.34-.586-.375-.621l-.023-2.121-.184-.402-.121-2.633-.129 2.672-.168.352-.047 2.152c-.02.016-.418.262-.418.602-.008.223.41.449.652.59l-.117 1.07c-.34.234-.645.551-.797 1.035l-.105.395-.113-.008c-.082 0-.191.012-.25.055zm0 0"/><path fill="url(#ae)" d="M75.43 53.375c.145-.387 1.027-.258 1.027-.258-.691-.688-.184-1.387.129-1.375-.152-.082-.305-.063-.449.012v.023c-.34.234-.648.551-.801 1.035l-.102.395-.117-.008c-.078 0-.188.012-.246.055-.074.051-.105.129-.105.219 0 .156.094.336.18.445l.02.016c.195.031.395.051.602.066-.078-.141-.207-.43-.137-.625zm0 0" style="fill:url(#ae)"/><path fill="#313134" d="M76.523 50.699v-.02c-.691-.313-.719-1.316.012-1.266l-.125-.012h.102v-2.055s-.102-.215-.223-.223c-.055-.008-.105.035-.148.086l-.074.152-.047 2.152c-.02.016-.422.262-.422.605-.004.219.41.445.656.586l-.004.031c.102.016.191.012.273-.039zm-.145-1.297h.02l-.023.004zm0 0"/><path fill="url(#af)" fill-rule="evenodd" d="M72.246 64.074c-.035-1.02.34-2.066.988-2.121.52.027 1.145 1.223 1.273 2.277 0 0-1.609-.051-2.262-.156zm0 0" style="fill:url(#af)"/><path fill="#6f4e4b" d="m72.543 63.918.008-.02-.02.004v-.023c.004-.137 0-.996.43-1.039h.027c.402.016.418.793.422 1.051l-.023.105-.297.016a1.36 1.36 0 0 1-.547-.094zm0 0"/><path fill="#313134" d="M73.363 63.973v-.082c0-.258-.043-1.004-.375-1.004h-.02c-.363.012-.398.855-.395.992.145.059.316.09.52.09l.137-.004zm0 0"/><path fill="url(#ag)" fill-rule="evenodd" d="M75.887 64.277s.012-1.688.75-1.734c.75-.047.895 1.711.895 1.711-.563.027-1.121.039-1.645.023zm0 0" style="fill:url(#ag)"/><path fill="#ac5a56" d="M76.891 62.605a.47.47 0 0 0-.254-.063c-.738.047-.75 1.734-.75 1.734l.273.004c-.035-.813.145-1.367.73-1.676zm0 0"/><path fill="#6f4e4b" d="M76.523 64.16v-.012h-.012v-.098c0-.188.02-.59.25-.605h.012c.285.008.285.629.285.691l-.008.02-.273.031zm0 0"/><path fill="#313134" d="m76.777 64.164.262-.02v-.008c0-.066-.016-.668-.266-.672l-.008.004c-.207 0-.238.391-.234.582v.09l.246.023zm0 0"/><path fill="#d0815b" d="m79.582 64.023.004-.027-.012.027-.016-.027c.008-.012-.012-1.234.527-1.254h.023c.512.047.574 1.098.582 1.098v.02l-.016.008c-.211.102-.574.172-.871.172l-.223-.016Zm0 0"/><path fill="#e48c68" d="M79.801 63.988c.281 0 .633-.066.836-.16-.016-.141-.133-1.023-.531-1.035h-.02c-.422 0-.469 1.02-.473 1.184l.188.012zm0 0"/><path fill="url(#ah)" fill-rule="evenodd" d="M70.793 64.023a.33.33 0 0 0-.363.285.325.325 0 0 0 .234.363c1.168.516 10.492.441 11.352.105.223-.035.391-.262.258-.52a.35.35 0 0 0-.387-.184c-1.246.313-8.184.625-11.094-.051zm0 0" style="fill:url(#ah)"/><path fill="url(#ai)" fill-rule="evenodd" d="m75.496 74.691-.078-.652.441-.957.18-8.051h1.484l.078 8.051.313.879.047.73c-.633.121-1.73.156-2.465 0zm0 0" style="fill:url(#ai)"/><path fill="url(#aj)" d="M76.707 65.699c.164-.262.504-.461.816-.602v-.066h-1.48l-.113 4.973.031 3.027s.227-6.5.746-7.332zm0 0" style="fill:url(#aj)"/><path fill="url(#ak)" fill-rule="evenodd" d="M74.691 73.137c.09.168.473.27.492.078.172-1.758.066-8.188.066-8.188h-.633s-.211 7.582.074 8.109zm0 0" style="fill:url(#ak)"/><path fill="url(#al)" fill-rule="evenodd" d="m78.121 73.055.414-.027-.023-7.996-.469.027zm0 0" style="fill:url(#al)"/><path fill="url(#am)" d="m78.086 65.059.285 7.98c-.004-.602-.074-7.113.141-7.977v-.031zm0 0" style="fill:url(#am)"/><path fill="#6f4e4b" d="M79.184 68.891s-.02-.254-.02-.59c.008-.676.055-1.695.512-1.715h.008c.52.023.578 1.055.582 1.695l-.016.504h-.023l.008.023a2.027 2.027 0 0 1-.73.121c-.094 0-.195-.008-.32-.039zm0 0"/><path fill="#313134" d="M79.504 68.875c.273 0 .508-.035.695-.109l.012-.484c0-.637-.09-1.621-.535-1.645-.371.004-.457.988-.457 1.66v.566zm0 0"/><path fill="url(#an)" fill-rule="evenodd" d="M52.887 91.031h.422c-.066-2.496 1.109-4.219 4.57-4v-1.082l-4.785.043zm0 0" style="fill:url(#an)"/><path fill="url(#ao)" fill-rule="evenodd" d="m70.27 76.68 2.344-.082s1.453.914 1 1.418c-.262.301-1 .234-1 .234l.027 13.543-2.133.023zm0 0" style="fill:url(#ao)"/><path fill="url(#ap)" d="M70.711 78.348c.68.16.754 8.973.938 10.973.176 1.965.516.207.727.105l.25-5.863-.012-5.313.035.004c-.555-.051-.828.059-1.938.094zm0 0" style="fill:url(#ap)"/><path fill="url(#aq)" fill-rule="evenodd" d="M79.781 76.52h2.188s.656.133.789.656c.23.922-.738 1.129-.738 1.129l-.027 13.406-2.238.082zm0 0" style="fill:url(#aq)"/><path fill="url(#ar)" d="M80.859 88.723c.266 4.41 1 1.73 1.109.734l.027-.293.023-10.859.246-.09-1.816.23c.715.176.223 8.031.41 10.277zm0 0" style="fill:url(#ar)"/><path fill="url(#as)" d="M79.965 92.75v7.574c.672-.387 1.324-.758 1.949-1.113V92.75Zm0 0" style="fill:url(#as)"/><path fill="#ac5a56" fill-rule="evenodd" d="M79.672 92.434c.75.102 1.57-.004 2.352.016.227.008.285.398.07.508-.328.176-2.125.078-2.398 0-.484-.133-.227-.555-.023-.523zm0 0"/><path fill="url(#at)" fill-rule="evenodd" d="M79.211 92.105c0-.273.773-.609 1.688-.609.918 0 1.641.336 1.641.609 0 .27-.746.488-1.668.488-.918 0-1.66-.219-1.66-.488zm0 0" style="fill:url(#at)"/><path fill="url(#au)" d="M70.637 92.75v12.969l1.949-1.133V92.75Zm0 0" style="fill:url(#au)"/><path fill="url(#av)" d="m72.301 97.461.285-2.652V92.75h-1.27c.219 1.133.121 3.371.258 4.09.176.949.52.672.727.621zm0 0" style="fill:url(#av)"/><path fill="#ac5a56" fill-rule="evenodd" d="M70.324 92.422s1.605-.234 2.449-.078c.238.043.211.473-.008.613 0 0-1.547.277-2.398 0-.199-.066-.238-.289-.043-.535zm0 0"/><path fill="url(#aw)" fill-rule="evenodd" d="M69.887 92.105c0-.273.77-.609 1.688-.609.914 0 1.637.336 1.637.609 0 .27-.746.488-1.664.488-.918 0-1.66-.219-1.66-.488zm0 0" style="fill:url(#aw)"/><path fill="url(#ax)" d="M60.48 92.75v18.895l1.945-1.137V92.75Zm0 0" style="fill:url(#ax)"/><path fill="url(#ay)" d="m62.113 97.355.313-2.434v-2.172h-1.414c.188 1.133.035 3.371.168 4.09.18.949.727.566.934.516zm0 0" style="fill:url(#ay)"/><path fill="#ac5a56" fill-rule="evenodd" d="M60.219 92.492s2.098-.125 2.391 0c.168.066.176.414 0 .465-.398.121-2.398 0-2.398 0-.211-.164-.207-.32.008-.465zm0 0"/><path fill="url(#az)" fill-rule="evenodd" d="M59.727 92.105c0-.273.723-1.074 1.641-1.074s1.938.516 1.949.789c.027.574-1.008.773-1.926.773-.922 0-1.664-.219-1.664-.488zm0 0" style="fill:url(#az)"/><path fill="url(#aA)" d="M52.141 92.75v11.637c.59 2.867 1.238 5.801 1.945 8.777V92.75Zm0 0" style="fill:url(#aA)"/><path fill="#ac5a56" fill-rule="evenodd" d="m51.879 92.492 2.902-.098c.313.34.141.527-.512.563h-2.398zm0 0"/><path fill="url(#aB)" d="M55.148 91.973c-.035-.543-.977-.996-1.895-.996l-.07.012c-.949.336-1.5.988-1.332 1.453.305.098.727.152 1.199.152.918 0 2.117-.348 2.098-.621zm0 0" style="fill:url(#aB)"/><path fill="url(#aC)" fill-rule="evenodd" d="M66.371 84.285c.207.246 1.5.414 1.66.188.234-.344-.027-2.309-.297-3.051-.203-.414-.824-.426-1.016-.215-.414.469-.574 2.809-.348 3.078zm0 0" style="fill:url(#aC)"/><path fill="url(#aD)" fill-rule="evenodd" d="M72.457 69.098a3.81 3.81 0 0 0 1.625.09s.273-2.684-.453-3c-1.469-.641-1.172 2.91-1.172 2.91zm0 0" style="fill:url(#aD)"/><path fill="#6f4e4b" d="m72.574 68.77-.016-.508c.004-.637.063-1.664.578-1.695h.016c.453.027.496 1.043.504 1.711 0 .34-.016.594-.039.617a2.21 2.21 0 0 1-.375.035c-.242 0-.461-.047-.668-.16zm0 0"/><path fill="#313134" d="m73.242 68.875.344-.008s.02-.254.02-.59c0-.664-.086-1.629-.441-1.66h-.016c-.445.004-.539 1.004-.539 1.645l.004.48c.184.09.395.133.629.133zm0 0"/><path fill="#6f4e4b" d="m73.145 66.617-.008-.004zm0 0"/><path fill="#313134" d="M72.211 78.168c-1.617-.219-1.5-.789-.938-1.18l-.16-.074c-.363-.242.543-.285.977-.309l-2.664.078c-8.172.098-17.441.172-18.324.031l-.027.004s-.02.305.051.477c.141.332.539.492.762.531l.84.184 5.758-.102c.43.023 1.074.098 1.277.391.324.473.578 12.805.578 12.805.008-8.563-.211-11.859 2.184-12.098-1.938.066-2.418-.879-1.547-1.137l8.754-.156c.184.219.301.418.328.613l.473 12.906c.348-6.93-.867-11.203.742-12.488h.023c.297.031.469-.027.766-.078.387-.066.977-.262.977-.262 0-.172-.422-.133-.828-.137zm0 0"/><path fill="#ac5a56" fill-rule="evenodd" d="m72.168 76.598 9.879-.102c.125.148.129.469-.688.469l-9.191.105s-.738.051-1.055-.156c-.383-.254.66-.289 1.055-.316zm0 0"/><path fill="#313134" d="m81.254 78.242.133-.016s-1.438.055-1.555-.578c-.047-.266.133-.684.133-.684h-.949c.035.063.5.109.469.469.016.141-.309.324-.309.582-.004.25.277.363.289.578.086 1.445.012 7.398.301 7.242 0 0-.172-6.98.227-7.215l.059-.031.438.055c.301.031.473-.027.766-.078.387-.066.977-.262.977-.262 0-.172-.5-.074-.977-.063zm0 0"/><path fill="#313134" fill-rule="evenodd" d="M66.344 84.891s1.422-.055 1.637.055c.211.105.211.234.211.234s-.043.242-.188.266c-.656.102-1.605-.215-1.605-.215s-.305-.051-.289-.18c.012-.109.234-.16.234-.16zm0 0"/><path fill="#ec7269" d="M51.25 82.551a51.693 51.693 0 0 1-3.023-1.414c.098.746.199 1.504.309 2.27l3.77.02c-.094-.188-.684-.559-1.055-.875zm0 0"/><path fill="#313134" d="M52.043 79.434c-.195.152-.398.801-.449 1.152l.055 2.273.336.254c.008-1.246.027-2.48.059-3.68zm0 0"/><path fill="#ac5a56" fill-rule="evenodd" d="M53.09 85.973v-.16l4.695-.398.094.566zm26.691-.399.027 5.797s-.617-2.383-.449-3.91c.082-.75.422-1.887.422-1.887zm0 0"/><path fill="#313134" fill-rule="evenodd" d="m57.941 80.797-.156 4.777s-.531-1.691-.422-2.785c.082-.805.578-1.992.578-1.992zm2.77 13.043c-.027-.734-.055-1.207 1.5-1.258-.938-.141-2.66.129-1.582-1.34-.551.551-.266-2.18-1 1.102.258.156.383.422.367.789l.477 18.496.184-.078-.266-8.371zm0 0"/><path fill="#443336" fill-rule="evenodd" d="M72.984 92.711h6.402s-3.32.316-5.164.289c-.496-.008-1.238-.289-1.238-.289zm-10.273 0h7.48s-4.398.316-6.242.289c-.496-.008-1.238-.289-1.238-.289zm0 0"/><path fill="#313134" d="M52.859 92.957c-1.68-.152-1.148-1.457.344-1.98l-.633.035c-.262-.086-.391-.402-.492-1.016a151.897 151.897 0 0 1-.098-6.574h-.32l.09 3.984-.34 3.68c-.762.531-.813 1.332-.645 1.883a8.357 8.357 0 0 1-.742.121l.125.75c.324.027.633.059.914.098.262.039.809.141 1.078.922v9.527l.289 1.379c.207-7.008.07-12.293 1.152-12.809zm0 0"/><path fill="url(#aE)" d="M76.754 99.953c-1.688.734-4.535 4.828-4.535 4.828l6.746-3.883s-.527-1.68-2.211-.945zm0 0" style="fill:url(#aE)"/><path fill="url(#aF)" d="M54.168 106.332v7.199c.121.516.254 1.039.383 1.563l3.051-1.859c-.48-2.102-1.613-5.887-3.434-6.902zm0 0" style="fill:url(#aF)"/><path fill="url(#aG)" d="M67.727 103.363c-4.051 1.445-4.988 6.934-4.988 6.934l1.539-.871c1.969-1.152 3.98-2.324 5.969-3.48.125-.602.641-3.715-2.52-2.582zm0 0" style="fill:url(#aG)"/><path fill="#e48c68" d="M109.281 98.703c-.789-.723-1.941-2.008-2.555-2.547-1.07-.938-1.957-1.066-2.328-1.273-1.492-.828-13.637-.117-15.109.301-1.316.375-22.809 12.934-34.734 19.934.199.813.402 1.629.613 2.449l34.59-20.832 13.719-.516 13.066 12.934 2.098-1.547c-3.492-3.395-6.813-6.578-9.359-8.902zm0 0"/><path fill="#f4a570" d="M89.289 95.184c-1.316.375-22.809 12.934-34.734 19.934l.199.813 35.738-20.938c-.57.066-.996.129-1.203.191zm0 0"/><path fill="url(#aH)" d="M103.477 96.219c-.645-.465-12.98.191-13.613.309-.922.176-26.75 15.703-34.816 20.563a267.915 267.915 0 0 0 3.547 12.734l23.164-.688c0-10.039 2.598-18.973 8.832-20.395 6.031-1.375 5.309 8.973 4.902 15.906l4.09-3.008c.043-9.004.957-12.816 5.973-12.898 2.273-.035 3.887 2.066 5.023 4.801l6.398-4.711c-6.832-6.477-12.875-12.16-13.5-12.613zm0 0" style="fill:url(#aH)"/><path fill="#de7a6f" fill-rule="evenodd" d="M84.734 110.105s4.188-5.379 8.297-4.746c2.699.414 2.617 3.094 4.953 3.777 3.266.957 3.027-5.691 8.48-2.074-5.875-.445-7.637 5.016-9.273 13.254 0 0 .555-10.152-2.633-12.281-3.848-2.57-7.191-.551-9.824 2.07zm0 0"/><path fill="url(#aI)" d="M93.031 105.359c2.699.414 2.617 3.094 4.953 3.777 2.414.707 2.914-2.73 5.211-3.121-1.059-1.27-2.801-3.563-3.367-5.539-.34-1.168.078-2.441.469-3.617-2.309-.117-5.426-.02-8.047.305a12.808 12.808 0 0 0-2.117 5.832c-.094.875.254 1.723.848 2.508.672-.18 1.363-.25 2.051-.145zm0 0" style="fill:url(#aI)"/><path fill="#e48c68" d="M105.555 108.742c2.273-.035 3.887 2.066 5.023 4.801l1.031-.758c-.848-3.484-2.691-6.02-6.344-5.711-4.035.34-6.523 3.141-8.055 6.684-.734-3.977-2.57-7.02-6.555-6.684-10.234.863-10.563 17.512-10.453 22.109l1.555-.047c0-10.039 2.598-18.973 8.832-20.395 4.359-.992 5.191 4.137 5.164 9.676-.012 2.133-.148 4.305-.258 6.23l4.086-3.008c.043-9 .957-12.816 5.973-12.898zm0 0"/><path d="M102.855 96.254c-4.992-.355-8.664-.078-13.09.707-.629.27-1.773.844-3.004 1.492-6.23 3.219-17.035 9.609-31.75 18.512.18.711.367 1.426.555 2.141 11.688-8.594 23.277-15.813 34.754-21.645 3.809-.738 10.004-.844 12.352-.34 1.414.297 8.34 6.723 13.402 12.375l.805-.594c-6.605-6.43-12.563-12.07-14.023-12.648zm0 0"/><path fill="url(#aJ)" d="M73.762 114.281c-.125 0-.262-.871-.332-1.398.063.527.148 1.398.031 1.398l-1.875.027-1.473.039c-.145.004-.219-.855-.25-1.293.023.438.051 1.301-.078 1.305-2.324.074-5.535.207-8.02.324l-.234.164 1.773-.016c.191-.004.172 1.324.172 1.324s.02-1.324.195-1.324c1.23-.016 3.215-.059 4.426-.082.113 0 .125.816.125 1.293.008-.465.043-1.262.164-1.266.938-.02 2.145-.055 2.992-.078 1-.027 2.367-.082 3.535-.121l.137-.313-1.289.016zm0 0" style="fill:url(#aJ)"/><path fill="url(#aK)" d="m76.398 111.684 1.066-.035c.191-.129.391-.258.594-.379-.09-.121-.102-.84-.098-1.273-.012.465-.043 1.27-.168 1.27-.934.02-2.145.055-2.992.078-1.055.031-2.527.086-3.727.133-.148.004-.137-1.242-.125-1.777-.016.523-.066 1.73-.176 1.738a390.48 390.48 0 0 0-4.539.203l-.234.152 1.586-.004c.09 0 .133 1.301.148 1.961-.008-.652-.016-1.934.09-1.934 1.328 0 3.289-.043 4.594-.055.125 0 .258.871.332 1.398-.063-.523-.148-1.398-.031-1.398l1.875-.027 1.473-.039c.109-.004.18.484.219.91l.016-.012c-.012-.426-.004-.906.098-.91zm0 0" style="fill:url(#aK)"/><path fill="url(#aL)" d="m109.68 104.68-1.477.039c-.141.008-.219-.848-.25-1.285.027.438.055 1.297-.078 1.301-2.52.074-6.109.23-8.656.355-.211 0-.258-.898-.266-1.527-.012.633-.063 1.539-.234 1.563a114.54 114.54 0 0 1-3.973.137c1.863-.012 4.234-.031 6.648-.059.191 0 .172 1.324.172 1.324s.02-1.32.195-1.324c1.234-.016 3.215-.059 4.43-.078.109 0 .125.824.121 1.297.008-.465.043-1.27.168-1.27.934-.02 2.141-.055 2.988-.078l2.348-.078-.336-.34-1.801.023zm0 0" style="fill:url(#aL)"/><path fill="url(#aM)" d="M83.379 101.742c.191-.004.168 1.324.168 1.324s.023-1.324.199-1.324c1.23-.016 3.215-.059 4.426-.082.113 0 .125.824.125 1.297.004-.465.039-1.266.164-1.27.934-.02 2.145-.055 2.988-.078 1.059-.031 2.527-.086 3.727-.133.152-.004.141 1.246.125 1.781.02-.523.07-1.734.184-1.742 5.051-.199 10.719-.539 10.719-.539s-3.605.195-7.531.188c-.094 0-.141-1.313-.156-1.969.012.652.023 1.941-.082 1.941-1.332 0-3.297.043-4.598.055-.125 0-.262-.863-.332-1.391.063.523.148 1.391.027 1.391l-1.867.027-1.477.039c-.141.004-.219-.852-.25-1.285.023.434.051 1.293-.078 1.297-2.07.063-4.848.176-7.188.285l-.355.195 1.063-.008zm0 0" style="fill:url(#aM)"/><path fill="#6f4e4b" fill-rule="evenodd" d="M80.203 128.738c-.105-5.59 1.063-19.266 8.93-21.52-8.43 2.707-9.719 12.359-8.93 21.52zm0 0"/><path fill="#6f4e4b" d="M106.098 107.039c-7.586-1.238-8.844 8.137-8.676 16.191l.125-.094c.234-8.898 2.703-16.648 8.551-16.098zm0 0"/><path fill="#6f4e4b" fill-rule="evenodd" d="M87.816 107.695c2.867-2.336 8.895-1.508 9.113 4.879-1.004-5.617-6.727-6.227-9.113-4.879zm0 0"/><path fill="#475462" d="M71.906 130.496c3.828-.266 9.742-1.363 9.742-1.363l-23.055.688.008.023.082.262c3.18.277 9.027.684 13.223.391zm0 0"/><path fill="#de7a6f" d="M111.156 109.926c-1.695-3.078-4.059-2.73-4.059-2.73 1.836.344 3.262 1.762 4.422 5.652l.27-.195c-.008-.742-.125-1.801-.633-2.727zm0 0"/><path fill="#906572" d="M102.855 96.254c-4.992-.355-8.664-.078-13.09.707-.629.27-1.773.844-3.004 1.492-6.23 3.219-17.035 9.609-31.75 18.512.18.711.367 1.426.555 2.141 11.688-8.594 23.277-15.813 34.754-21.645 3.809-.738 10.004-.844 12.352-.34 1.414.297 8.34 6.723 13.402 12.375l.805-.594c-6.605-6.43-12.563-12.07-14.023-12.648zm0 0"/><path fill="#313134" d="M116.984 108.828c-3.094-3.406-12.141-13.199-14.133-13.332-5.34-.367-8.477-.484-13.715.617-2.652.559-24.352 13.902-34.313 20.09l.188.758c14.715-8.902 25.52-15.289 31.75-18.508 1.23-.648 2.375-1.223 3.004-1.492 4.426-.789 8.098-1.063 13.09-.707.613.242 2.023 1.383 3.934 3.094l.164.145.117.105c3.383 3.027 7.797 7.301 9.832 9.289zm0 0"/><path fill="#de7a6f" fill-rule="evenodd" d="M86.496 108.402s-9.066 1.336-11.379 5.723c-2.887 5.469 5.109 15.008 5.109 15.008-.84-9.762.633-17.266 6.27-20.73zm0 0"/><path fill="#ac5a56" d="m80.176 128.762-21.949-.168.367 1.223 21.582-.633zm0 0"/><path fill="url(#aN)" d="M61.266 125.969c.008-.465.043-1.27.168-1.27.934-.023 2.145-.055 2.988-.082 1.059-.031 2.527-.086 3.727-.129.152-.008.141 1.242.125 1.777.02-.527.07-1.734.18-1.738 5.055-.203 10.723-.539 10.723-.539s-3.605.191-7.535.188c-.094 0-.137-1.313-.152-1.973.012.652.02 1.945-.086 1.945-1.328 0-3.293.039-4.594.055-.125 0-.262-.875-.332-1.398.063.523.148 1.395.027 1.398-.473.004-1.43.016-1.867.027l-1.477.035c-.145.004-.219-.855-.25-1.289.023.434.051 1.301-.082 1.305-1.668.051-3.805.133-5.797.223l.07.242 4.043-.074c.113-.004.121.824.121 1.297zm0 0" style="fill:url(#aN)"/><path fill="#6f4e4b" fill-rule="evenodd" d="M90.309 94.18c0 .973-.793 1.762-1.77 1.762-.98 0-1.773-.789-1.773-1.762a1.77 1.77 0 0 1 1.773-1.766c.977 0 1.77.793 1.77 1.766zm0 0"/><path fill="#313134" fill-rule="evenodd" d="M90.309 94.18c0 .973-.793 1.762-1.77 1.762-.98 0-1.773-.789-1.773-1.762a1.77 1.77 0 0 1 1.773-1.766c.977 0 1.77.793 1.77 1.766zm0 0"/><path fill="#ac5a56" fill-rule="evenodd" d="M88.301 95.031c-.805-.355-.813-1.484-.723-1.676.301-.676 1.063-1.105 1.813-.773.754.336 1.121 1.156.82 1.828-.098.211-1.207.934-1.91.621zm0 0"/><path fill="url(#aO)" d="M89.391 92.582a1.27 1.27 0 0 0-1.105.027l-.051.09c-.086.191-.078 1.32.723 1.676.398.176.922.023 1.324-.184.145-.625-.215-1.309-.891-1.609zm0 0" style="fill:url(#aO)"/><path fill="#313134" fill-rule="evenodd" d="M103.957 93.078c0 .973-.793 1.762-1.77 1.762s-1.77-.789-1.77-1.762a1.77 1.77 0 0 1 3.54 0zm0 0"/><path fill="#ac5a56" fill-rule="evenodd" d="M102.039 93.82c-.508-.227-.965-1.328-.746-1.813.305-.684 1.133-.977 1.852-.66.719.316 1.055 1.129.746 1.813-.199.449-1.234.93-1.852.66zm0 0"/><path fill="url(#aP)" d="M103.145 91.348a1.448 1.448 0 0 0-1.336.078l-.098.16c-.215.484.242 1.59.75 1.813.418.184 1.023.023 1.434-.238.305-.684-.031-1.496-.75-1.813zm0 0" style="fill:url(#aP)"/></svg>