<svg xmlns="http://www.w3.org/2000/svg" xml:space="preserve" width="732.9635" height="732.96582" viewBox="0 0 732.9635 732.9658"><path d="M569.256 423.354c0-151.8-123.06-274.862-274.86-274.862-151.803 0-274.862 123.063-274.862 274.862 0 151.803 123.06 274.862 274.862 274.862 151.8 0 274.86-123.059 274.86-274.862z" style="fill:#d5162f;fill-opacity:1;fill-rule:nonzero;stroke:none" transform="matrix(1.33333 0 0 -1.33333 -26.045 930.955)"/><path d="M106.414 235.373C56.203 285.585 28.55 352.345 28.55 423.354c0 71.01 27.653 137.771 77.864 187.982 50.211 50.212 116.971 77.864 187.982 77.864 71.01 0 137.769-27.652 187.98-77.864 50.212-50.211 77.864-116.971 77.864-187.982 0-71.009-27.652-137.769-77.864-187.981-50.211-50.212-116.97-77.866-187.98-77.866-71.01 0-137.77 27.654-187.982 77.866z" style="fill:#fff;fill-opacity:1;fill-rule:nonzero;stroke:none" transform="matrix(1.33333 0 0 -1.33333 -26.045 930.955)"/><path d="M294.395 166.524c-68.602.001-133.097 26.716-181.606 75.225-48.509 48.509-75.224 113.004-75.224 181.606 0 68.602 26.715 133.097 75.225 181.606 48.508 48.508 113.003 75.223 181.604 75.223 68.602 0 133.097-26.715 181.606-75.224 48.509-48.508 75.224-113.003 75.225-181.606 0-68.602-26.715-133.098-75.223-181.606-48.509-48.509-113.004-75.224-181.607-75.224z" style="fill:#d5162f;fill-opacity:1;fill-rule:nonzero;stroke:none" transform="matrix(1.33333 0 0 -1.33333 -26.045 930.955)"/><path d="M467.098 423.354c0-95.38-77.323-172.703-172.702-172.703-95.381 0-172.704 77.323-172.704 172.703 0 95.382 77.323 172.703 172.704 172.703 95.38 0 172.702-77.321 172.702-172.703zM148.747 284.486l16.705-15.785-4.146-4.388-11.879 11.225-4.412-4.67 10.468-9.892-4.146-4.388-10.468 9.892-8.026-8.494-4.827 4.56zM160.856 250.26l9.706 14.258 5.49-3.737-9.61-14.115c-2.765-4.063-2.166-7.55 1.185-9.83 3.35-2.282 6.766-1.633 9.459 2.324l9.73 14.293 5.49-3.737-9.585-14.08c-5.144-7.556-11.91-8.376-18.611-3.814-6.701 4.562-8.253 11.095-3.254 18.438zM203.572 237.167l-8.315 3.898 2.599 5.544 22.644-10.616-2.6-5.544-8.315 3.899-10.214-21.786-6.013 2.818zM226.956 233.608l13.461-3.897c3.314-.958 5.66-2.625 6.837-4.76.942-1.71 1.138-3.517.538-5.588-.947-3.272-3.214-4.592-5.62-5.152 2.983-2.254 4.49-4.8 3.34-8.778-1.535-5.301-6.61-6.705-13.154-4.812l-13.794 3.992 8.392 28.995m7.02-27.395c2.817-.815 4.803-.312 5.45 1.925.563 1.946-.539 3.567-3.81 4.514l-7.374 2.134-1.846-6.379 7.58-2.194m1.683 12.173c2.816-.816 4.861-.42 5.508 1.817.552 1.905-.628 3.414-3.32 4.193l-6.296 1.822-1.774-6.13zM255.638 210.163c.896 8.534 8.364 14.816 17.627 13.843 9.263-.973 15.184-8.576 14.278-17.196-.896-8.534-8.364-14.817-17.626-13.843-9.264.973-15.185 8.576-14.279 17.196m25.002-2.628c.54 5.147-2.784 9.831-8.1 10.39-5.318.56-9.448-3.256-9.998-8.487-.54-5.147 2.783-9.832 8.1-10.39 5.318-.56 9.447 3.256 9.998 8.487zM296.76 222.168l6.63.393 1.43-24.104 15.021.89.358-6.026-21.652-1.284zM344.162 212.618c-2.492 8.211 1.657 16.815 10.529 19.507 5.447 1.652 9.126.515 12.61-1.312l-2.47-5.526c-2.842 1.346-5.102 1.966-8.404.965-4.868-1.477-7.15-6.585-5.622-11.619 1.503-4.951 6.179-8.038 11.13-6.536 3.302 1.001 4.923 2.935 6.566 5.687l5.359-3.106c-2.007-4.079-4.782-6.813-10.353-8.503-8.5-2.58-16.803 2.066-19.345 10.443zM372.987 238.083l5.979 2.89 10.507-21.741 13.55 6.548 2.627-5.436-19.528-9.438zM407.18 236.051l-9.782 14.207 5.47 3.765 9.683-14.064c2.787-4.05 6.255-4.75 9.594-2.452 3.337 2.299 3.969 5.717 1.254 9.659l-9.805 14.242 5.47 3.765 9.658-14.028c5.184-7.53 3.5-14.134-3.177-18.73-6.677-4.597-13.329-3.68-18.366 3.636zM425.544 270.61l10.071 9.745c2.48 2.399 5.091 3.606 7.53 3.566 1.95-.032 3.616-.761 5.115-2.31 2.37-2.448 2.387-5.072 1.677-7.439 3.44 1.469 6.398 1.511 9.277-1.463 3.838-3.967 2.534-9.069-2.362-13.807l-10.32-9.984-20.988 21.692m17.534-.014c2.108 2.038 2.78 4.01 1.16 5.683-1.378 1.426-3.274 1.152-5.288-.798l-4.71-4.557 4.438-4.586 4.4 4.258m9.726-7.51c2.107 2.039 2.658 4.012 1.04 5.685-1.41 1.457-3.365 1.306-5.812-1.063l-5.516-5.337 4.617-4.772z" style="fill:#fff;fill-opacity:1;fill-rule:nonzero;stroke:none" transform="matrix(1.33333 0 0 -1.33333 -26.045 930.955)"/><path d="M131.206 566.144c-10.88 12.327-10.662 31.094 2.61 42.807 7.673 6.773 14.277 8.797 22.192 8.957l.257-10.179c-5.95-.104-10.893-1.222-16.49-6.163-8.114-7.16-8.005-19.708-.456-28.261 7.993-9.057 19.852-10.451 28.847-2.513 4.15 3.664 6.758 8.315 7.687 12.715l-7.272 8.24-11.259-9.937-5.94 6.73 18.743 16.542 16.32-18.492c-1.064-7.54-4.515-16.18-12.313-23.064-13.775-12.157-31.491-10.339-42.926 2.618zM176.166 637.357l9.132 4.804 27.339-51.97-9.132-4.803zM210.554 654.112l25.327 6.604c13.312 3.472 22.968-1.64 25.825-12.598 2.435-9.335-1.706-16.396-9.068-20.743l20.95-17.51-11.77-3.07-19.288 16.123-12.34-3.217 5.166-19.807-9.984-2.603-14.818 56.821m31.941-21.754c7.144 1.864 10.715 6.783 9.17 12.709-1.587 6.088-6.838 8.272-14.225 6.346l-14.53-3.789 4.974-19.075zM275.528 639.736c.893 16.502 14.374 29.634 32.384 28.659 18.009-.976 29.835-15.31 28.932-31.979-.894-16.501-14.374-29.634-32.384-28.658-18.01.975-29.835 15.31-28.932 31.978m50.51-2.735c.617 11.392-7.163 21.307-18.807 21.937-11.643.63-20.272-8.227-20.898-19.787-.617-11.392 7.164-21.306 18.807-21.937 11.643-.63 20.272 8.228 20.898 19.787zM361.114 659.917l8.883-3.541 14.183-49.366 15.038 37.715 9.428-3.76-21.748-54.545-8.026 3.2-14.605 50.798-15.474-38.805-9.428 3.759zM452.7 610.174l7.171-6.325-19.742-61.445-8.179 7.213 4.91 14.573-20.824 18.367-13.908-6.638-7.927 6.992 58.498 27.263m-12.621-36.63 7.924 24.33-23.086-10.957z" style="fill:#fff;fill-opacity:1;fill-rule:nonzero;stroke:none" transform="matrix(1.33333 0 0 -1.33333 -26.045 930.955)"/><path d="M351.087 270.416c-17.395-6.47-36.183-10.05-55.778-10.158l-.678.076L456.887 422.59l.606.596c-.02-19.933-3.634-39.04-10.228-56.706l-.164-.323-95.469-95.468-.545-.273zM131.297 423.354c0 19.88 3.575 38.942 10.117 56.575l.183.53 95.684 95.684.763.275c17.318 6.396 36.01 9.933 55.5 10.033l.675-.017-162.516-162.517zM177.171 376.094l-26.917-26.917-.726-.71a161.988 161.988 0 0 0-12.838 33.219l-.123.45 17.152 17.153.79.696 23.323-23.323zM190.992 297.313a164.496 164.496 0 0 0-22.67 22.678l-.33.277 32.762 32.763.401.306 23.292-23.291-.502-.46-32.571-32.571zM452.006 465.376a161.954 161.954 0 0 1-12.352 32.107l-.47.695-27.571-27.57-.62-.596 23.36-23.36.747.796 17.086 17.086zM420.108 525.749l-31.623-31.622-.783-.824-23.323 23.323.822.85 32.21 32.212.534-.412a164.584 164.584 0 0 0 22.787-22.878zM368.729 567.65l-26.851-26.85-.854-.818-23.261 23.262.529.616 17.314 17.315.752-.194a161.967 161.967 0 0 0 32.987-12.792zM270.459 282.807l-16.596-16.596-.679-.683a161.998 161.998 0 0 0-32.985 12.601l-.702.363 28.226 28.226.44-.388 22.9-22.9z" style="fill:#d5162f;fill-opacity:1;fill-rule:nonzero;stroke:none" transform="matrix(1.33333 0 0 -1.33333 -26.045 930.955)"/><path d="M294.396 573.029c11.934-11.934 137.74-137.74 149.673-149.675L294.396 273.68 144.72 423.354 294.396 573.03z" style="fill:#fab20d;fill-opacity:1;fill-rule:nonzero;stroke:none" transform="matrix(1.33333 0 0 -1.33333 -26.045 930.955)"/><path d="M223.638 487.8V379.217c.062-8.386.131-17.84 7.589-25.116 5.544-5.409 10.904-7.299 20.485-7.225h25.956c4.144 0 6.394-.31 12.21-7.291l4.518-5.422 4.515 5.422c5.817 6.981 8.066 7.291 12.21 7.291h26.002c9.535-.074 14.896 1.816 20.44 7.225 7.457 7.275 7.527 16.73 7.588 25.072V487.8z" style="fill:#fff;fill-opacity:1;fill-rule:nonzero;stroke:none" transform="matrix(1.33333 0 0 -1.33333 -26.045 930.955)"/><path d="M410.851 390.683V456.574l-33.27 33.269-.004-.311V357.46l.014-.584 33.272 33.271-.012.536zM344.303 522.558V488.29l.006-.49h-33.255l-.024.36v67.85l-.008.392 33.289-33.288-.007-.556zM211.212 357.82V489.53l.013.327-33.255-33.254-.032-.229v-65.398l-.011-.828c10.062-10.064 21.547-21.548 33.303-33.304l-.018.974zM277.767 487.8h-33.255l-.027.392v34.432l.027.522 33.255 33.254-.008-.522v-67.652l.008-.426zM344.303 324.075v22.737l.01.508c-2.128-.328-4.492-.465-7.19-.444H311.03v-56.055l.02-.487 33.238 33.238.015.503zM277.759 290.625v56.072l.008.18h-26.054c-2.717-.022-5.094.115-7.233.446l.005-.12V323.592l33.279-33.28-.005.314z" style="fill:#d5162f;fill-opacity:1;fill-rule:nonzero;stroke:none" transform="matrix(1.33333 0 0 -1.33333 -26.045 930.955)"/><path d="M294.396 343.35c-6.37 7.643-10.096 9.407-16.728 9.407h-26.001c-8.363-.066-12.094 1.416-16.334 5.553-5.358 5.227-5.75 12.021-5.815 20.907V481.92h129.753V379.217c-.065-8.886-.457-15.68-5.815-20.907-4.24-4.137-7.97-5.62-16.333-5.553h-26.002c-6.632 0-10.359-1.764-16.727-9.408h.002z" style="fill:#d5162f;fill-opacity:1;fill-rule:nonzero;stroke:none" transform="matrix(1.33333 0 0 -1.33333 -26.045 930.955)"/><path d="M353.118 471.184a8.376 8.376 0 0 1-3.452.732h.002c-4.507 0-8.92-3.475-8.92-11.218v-10.927c.001-3.283-.132-4.385-1.34-6.112-1.276-1.631-3.843-2.365-8.166-2.365h.002c-4.324 0-6.891.734-8.168 2.365-1.207 1.727-1.34 2.83-1.34 6.112v10.927c0 7.743-4.412 11.219-8.919 11.219h.002c-4.506 0-8.919-3.476-8.919-11.219v-10.927c.001-3.283-.132-4.385-1.34-6.112-1.275-1.631-3.843-2.365-8.166-2.365h.002c-4.324 0-6.891.734-8.167 2.365-1.208 1.727-1.341 2.83-1.34 6.112v10.927c0 7.743-4.413 11.219-8.92 11.219h.002c-4.506 0-8.919-3.476-8.919-11.219v-10.927c.001-3.283-.132-4.385-1.34-6.112-1.275-1.631-3.843-2.365-8.166-2.365h.002c-4.324 0-6.891.734-8.167 2.365-1.207 1.727-1.341 2.83-1.34 6.112v10.927c0 7.743-4.413 11.219-8.92 11.219h.003a8.36 8.36 0 0 1-3.563-.785l-.163-.09v4.999h117.993v-4.999l-.273.142z" style="fill:#fff;fill-opacity:1;fill-rule:nonzero;stroke:none" transform="matrix(1.33333 0 0 -1.33333 -26.045 930.955)"/><path d="M352.96 418.583a8.387 8.387 0 0 1-3.294.664h.002c-4.507 0-8.92-3.476-8.92-11.218V397.1c.001-3.283-.132-4.385-1.34-6.112-1.276-1.632-3.843-2.364-8.166-2.364h.002c-4.324 0-6.891.732-8.168 2.364-1.207 1.727-1.34 2.83-1.34 6.112v10.928c0 7.742-4.412 11.218-8.919 11.218h.002c-4.506 0-8.919-3.476-8.919-11.218V397.1c.001-3.283-.132-4.385-1.34-6.112-1.275-1.632-3.843-2.364-8.166-2.364h.002c-4.324 0-6.891.732-8.167 2.364-1.208 1.727-1.341 2.83-1.34 6.112v10.928c0 7.742-4.413 11.218-8.92 11.218h.002c-4.506 0-8.919-3.476-8.919-11.218V397.1c.001-3.283-.132-4.385-1.34-6.112-1.275-1.632-3.843-2.364-8.166-2.364h.002c-4.324 0-6.891.732-8.167 2.364-1.207 1.727-1.341 2.83-1.34 6.112v10.928c0 7.742-4.413 11.218-8.92 11.218h.003a8.361 8.361 0 0 1-3.505-.758l-.22-.097v27.61l.17.023c1 .124 2.166.17 3.555.17h-.002c3.847 0 5.978-.343 7.644-1.764 1.268-1.072 1.862-3.09 1.862-6.812V426.79c0-7.743 4.413-11.219 8.92-11.219h-.002c4.506 0 8.92 3.476 8.92 11.219v10.828c0 3.723.594 5.74 1.861 6.812 1.666 1.42 3.798 1.763 7.644 1.763h-.002c3.848 0 5.979-.342 7.645-1.763 1.268-1.072 1.862-3.09 1.862-6.812V426.79c0-7.743 4.413-11.219 8.92-11.219h-.002c4.506 0 8.92 3.476 8.92 11.219v10.828c0 3.723.593 5.74 1.86 6.812 1.667 1.42 3.799 1.763 7.645 1.763h-.002c3.847 0 5.979-.342 7.645-1.763 1.269-1.072 1.862-3.09 1.862-6.812V426.79c0-7.743 4.413-11.219 8.92-11.219h-.002c4.506 0 8.92 3.476 8.92 11.219v10.828c0 3.723.593 5.74 1.861 6.812 1.666 1.42 3.798 1.763 7.645 1.763h-.002c1.33 0 2.457-.04 3.429-.153l.296-.021v-27.604z" style="fill:#fff;fill-opacity:1;fill-rule:nonzero;stroke:none" transform="matrix(1.33333 0 0 -1.33333 -26.045 930.955)"/><path d="M353.391 393.067V379.26c-.067-9.091.262-14.76-3.136-18.076-2.813-2.744-5.72-2.605-13.132-2.547h-26.002c-6.792 0-11.555-1.815-16.726-6.684-5.172 4.87-9.935 6.684-16.727 6.684h-26.001c-7.414-.058-10.32-.197-13.133 2.547-3.398 3.316-3.07 8.985-3.136 18.076v14.07l.195.029c.995.121 2.153.165 3.53.165h-.001c3.846 0 5.978-.342 7.644-1.764 1.268-1.072 1.862-3.088 1.862-6.811V374.12c0-7.743 4.412-11.219 8.92-11.218h-.003c4.507 0 8.92 3.475 8.92 11.218v10.828c0 3.723.594 5.74 1.862 6.811 1.666 1.422 3.797 1.764 7.644 1.764h-.002c3.847 0 5.979-.342 7.645-1.764 1.268-1.072 1.862-3.088 1.862-6.811V374.12c0-7.743 4.413-11.219 8.92-11.218h-.003c4.507 0 8.92 3.475 8.92 11.218v10.828c0 3.723.594 5.74 1.862 6.811 1.666 1.422 3.797 1.764 7.644 1.764h-.002c3.847 0 5.979-.342 7.645-1.764 1.268-1.072 1.862-3.088 1.862-6.811V374.12c0-7.743 4.413-11.219 8.92-11.218h-.003c4.507 0 8.92 3.475 8.92 11.218v10.828c0 3.723.594 5.74 1.862 6.811 1.666 1.422 3.798 1.764 7.644 1.764h-.002c1.484 0 2.713-.05 3.758-.195l-.032-.262z" style="fill:#fff;fill-opacity:1;fill-rule:nonzero;stroke:none" transform="matrix(1.33333 0 0 -1.33333 -26.045 930.955)"/></svg>