<svg xmlns="http://www.w3.org/2000/svg" xml:space="preserve" width="124.43891" height="220" x="0px" y="0px" viewBox="0 0 24.098348 483.77086"><path d="M19.963 238.81c2.297-.386 4.632-.195 6.946-.121-3.087 8.502-1.799 18.398 3.467 25.742 4.213 6.054 10.95 9.872 17.965 11.984-5.185 30.085-10.45 60.149-15.668 90.228-6.827 39.038-13.488 78.11-20.423 117.128-.564-2.368-.95-4.769-1.358-7.164C-.69 410.039-12.328 343.483-23.884 276.91c6.409-2.045 12.598-5.417 16.822-10.719 5.298-6.458 7.337-15.265 5.732-23.349 2.485-.927 5.1-1.549 7.767-1.488 1.583.09 3.161.275 4.75.328 3.06-.54 5.711-2.353 8.776-2.872z" style="fill:#e5254e"/><path d="m489.182 204.637-10.897-.001c-.02-19.658-.761-43.929-4.554-45.535-4.585-1.942-9.338.749-5.965 7.455 3.713 7.381 1.666 12.602-5.66 13.335-5.966.596-14.097-.626-18.201-14.826-4.913-16.997 6.358-21.164 24.712-38.525 16.232-15.358 20.565-22.115 20.565-22.115s4.333 6.757 20.565 22.113c18.354 17.364 29.624 21.531 24.712 38.527-4.105 14.2-12.235 15.423-18.199 14.827-7.328-.732-9.374-5.955-5.661-13.337 3.373-6.704-1.38-9.397-5.965-7.453-3.794 1.605-4.532 25.876-4.555 45.537l-10.897-.002zM366.628 265.271c-2.573-2.115-4.167-5.225-6.12-7.313-2.281-2.438-5.133-4.438-8.679-4.481 3.546-.043 6.397-2.042 8.68-4.48 1.952-2.087 3.546-5.198 6.119-7.313a8.968 8.968 0 0 1 6.055-2.35c3.84.001 7.124 2.424 8.471 5.854 1.884-.007 7.794-.04 11.115-.252 3.985-.252 6.977-.252 2.243-3.779l-2.283-1.73a18.137 18.137 0 0 1-7.11-8.313c-.208-.471-.4-.961-.578-1.476a12.845 12.845 0 0 1-.543-2.182 18.864 18.864 0 0 1-.344-3.574c.001-9.708 7.455-17.637 16.834-18.139a13.46 13.46 0 0 1 3.607.15c.428.076.846.166 1.258.267 1.828.456 3.519 1.165 5.524 2.32l.496.328c8.924 5.691 13.097 16.983 13.097 16.983s-2.155-1.154-11.521-3.036c-6.958-1.397-11.295 1.881-10.214 8.57 1.624 10.063 14.95 12.604 14.95 12.604h23.354v19.095h-23.354s-13.325 2.54-14.949 12.603c-1.081 6.688 3.257 9.969 10.214 8.57 9.367-1.881 11.522-3.036 11.522-3.036s-4.172 11.292-13.097 16.983l-.495.326c-2.007 1.157-3.697 1.866-5.525 2.32-.412.104-.831.192-1.257.268a13.552 13.552 0 0 1-3.608.15c-9.38-.503-16.834-8.431-16.834-18.14 0-1.223.119-2.419.344-3.574.119-.743.298-1.474.542-2.183.18-.516.371-1.005.578-1.475a18.143 18.143 0 0 1 7.11-8.313l2.284-1.729c4.733-3.531 1.743-3.529-2.242-3.781-3.32-.211-9.231-.247-11.117-.253-1.345 3.432-4.63 5.855-8.469 5.856a8.949 8.949 0 0 1-6.058-2.345zM610.665 265.272c2.573-2.115 4.167-5.227 6.12-7.314 2.282-2.436 5.133-4.437 8.68-4.481-3.547-.044-6.397-2.043-8.68-4.48-1.952-2.085-3.547-5.198-6.12-7.313a8.971 8.971 0 0 0-6.055-2.349c-3.84-.002-7.125 2.423-8.47 5.854-1.885-.007-7.797-.042-11.115-.252-3.987-.252-6.977-.251-2.243-3.782l2.283-1.729a18.108 18.108 0 0 0 7.109-8.313c.208-.469.399-.958.579-1.475.244-.708.425-1.437.541-2.182a18.51 18.51 0 0 0 .345-3.573c-.001-9.71-7.454-17.639-16.834-18.141a13.646 13.646 0 0 0-3.609.151c-.426.077-.844.165-1.258.267-1.828.455-3.519 1.164-5.523 2.32l-.494.328c-8.926 5.689-13.099 16.981-13.099 16.981s2.154-1.153 11.522-3.037c6.958-1.396 11.295 1.883 10.216 8.572-1.626 10.061-14.95 12.602-14.95 12.602h-23.355l.001 19.094 23.354.003s13.326 2.54 14.95 12.603c1.079 6.688-3.258 9.966-10.215 8.569-9.367-1.883-11.521-3.036-11.521-3.036s4.172 11.292 13.098 16.982l.494.328c2.006 1.156 3.697 1.866 5.525 2.322.412.1.831.191 1.258.267 1.218.216 2.426.26 3.608.149 9.379-.502 16.833-8.429 16.834-18.139a18.832 18.832 0 0 0-.345-3.574 13.037 13.037 0 0 0-.543-2.182 19.11 19.11 0 0 0-.577-1.475 18.136 18.136 0 0 0-7.109-8.313l-2.284-1.73c-4.733-3.528-1.744-3.529 2.243-3.779 3.319-.211 9.23-.245 11.116-.253 1.346 3.432 4.63 5.855 8.47 5.854a8.94 8.94 0 0 0 6.053-2.344z" style="fill:#e5254e" transform="translate(-476.598 -104.425)"/><path d="M523.09 341.485c-9.173 11.271-20.799 18.528-32.891 25.036l-1.441.777-1.442-.776c-11.938-6.426-23.885-13.897-32.944-25.038-21.86-26.882-33.229-66.67-32.82-101.858H556.02c.557 34.953-11.504 75.531-32.93 101.859z" style="fill:#fff" transform="translate(-476.598 -104.425)"/><path d="M552.56 231.663c2.733 35.907-9.296 80.087-31.85 107.803-8.77 10.774-19.946 17.797-31.953 24.26-11.855-6.382-23.352-13.619-32.006-24.261-22.983-28.263-34.194-71.419-31.799-107.801l127.608-.001z" style="fill:#8ac3ee" transform="translate(-476.598 -104.425)"/><path d="M447.046 254.5c.981 11.918 3.46 27.214 10.222 43.193 10.016 23.68 21.2 34.926 35.396 46.265-2.503 2.518-4.823 4.839-5.921 6.008-13.473-11.128-24.88-23.686-35.255-46.312-11.564-25.21-12.754-45.911-12.855-57.566h96.941v8.414l-88.528-.002z" style="fill:#fff" transform="translate(-476.598 -104.425)"/><path d="m535.573 264.623-76.086-.002c1.395 9.283 3.819 19.466 8.156 29.699 10.015 23.572 16.33 29.256 32.797 41.65a324.456 324.456 0 0 1 5.324-5.449c-16.983-12.396-21.807-17.162-31.1-40.422-2.27-5.748-4.955-16.93-4.955-16.93h65.864v-8.546z" style="fill:#fff" transform="translate(-476.598 -104.425)"/><path d="M523.873 221.364c-18.593-7.454-21.053-9.101-35.025-9.103-16.755.001-18.304 1.717-35.023 9.103-1.586-.966-3.793-2.835-5.084-4.578-.104-1.325.258-2.896 1.146-4.607 2.673-5.144 9.104-9.607 14.421-10.039 5.967-4.795 15.763-7.505 22.891-6.147.585.11 1.134.247 1.649.404a15.498 15.498 0 0 1 1.65-.405c7.127-1.357 16.923 1.355 22.89 6.148 5.319.432 11.748 4.896 14.421 10.039.89 1.711 1.253 3.283 1.146 4.608-1.291 1.741-3.497 3.61-5.082 4.577z" style="fill:#b19221" transform="translate(-476.598 -104.425)"/><path d="M488.848 183.676c17.902-8.171 26.63-1.47 28.456 7.775 21.977-5.434 19.982 28.069 6.535 33.218l-1.888 4.011c-11.174-2.121-19.015-3.345-33.103-3.345-10.172-.001-25.18.637-33.986 1.79l-.917-2.423c-13.527-5.037-15.577-38.697 6.446-33.252 1.828-9.244 10.556-15.945 28.457-7.774zm-33.539 32.545c8.779.427 8.231-5.838 7.197-10.875-.719-3.505-2.48-4.855-2.48-10.364-5.636-4.753-12.109 4.189-12.615 10.342-.904 10.952 7.34 10.868 7.898 10.897zm30.832-30.375c-29.524-13.479-23.515 30.67-2.63 20.214 1.229-.616 1.176-1.95.956-3.194-.91-5.167-.169-12.11 1.674-17.02zm5.414.002c1.842 4.909 2.584 11.852 1.674 17.018-.22 1.243-.273 2.578.956 3.193 20.886 10.457 26.894-33.693-2.63-20.211zm30.834 30.371c.556-.025 8.801.058 7.897-10.897-.506-6.15-6.979-15.095-12.617-10.339 0 5.508-1.761 6.86-2.479 10.363-1.033 5.037-1.582 11.302 7.199 10.873zm-33.533-32.524-.043.077.043-.077z" style="fill:#b19221" transform="translate(-476.598 -104.425)"/><path d="m524.567 226.005-4.951 8.37c.113.124.161.28.162.437v.183c0 .185-.121.367-.3.551-.12.184-.298.307-.479.307l-.18-.001c-.24 0-.539-.122-.777-.306-1.736-.856-3.412-1.65-5.09-2.324-2.394-.917-4.667-1.714-6.823-2.263a58.056 58.056 0 0 0-6.884-1.467c-2.574-.367-4.79-.551-6.764-.551a32.051 32.051 0 0 0-3.473 0c-.958-.061-2.095-.063-3.412 0-1.974.001-4.311.184-6.823.552-2.155.305-4.431.793-6.885 1.468-2.154.551-4.429 1.345-6.823 2.323a71.784 71.784 0 0 0-5.089 2.263c-.3.184-.538.306-.777.306h-.121a.623.623 0 0 1-.537-.305c-.438-.397-.441-.876-.139-1.171l-4.949-8.371c18.909-13.351 52.201-13.349 71.114-.001zM486.084 171.262l-.001-.063h5.327l-.897 3.181 2.635-.918v5.443l-2.634-.917.897 4.28-5.327-.001.898-4.279-2.635.917v-5.443l2.634.917-.897-3.117z" style="fill:#b19221" transform="translate(-476.598 -104.425)"/><path d="M498.905 208.635a2.395 2.395 0 0 1-.658-1.65c0-.673.24-1.224.658-1.714.181-.184.359-.366.6-.55.18-.061.419-.182.659-.243.178-.062.358-.062.597-.062.241 0 .42.001.659.062.18.061.419.122.598.244.241.184.479.366.66.55.358.429.539.918.598 1.529v.183l.001.185c-.061.611-.238 1.102-.6 1.528a2.622 2.622 0 0 1-.659.489c-.18.122-.417.245-.599.244-.127.045-.226.087-.337.11.273 3.35 4.64 6.197 8.358 4.354.726-.37 1.453-.953 2.126-1.771a2.06 2.06 0 0 1-.564-.959l-.245.103c-.119.06-.239.06-.359.12l-.359.185c-.238.062-.479.184-.776.367-.062 0-.121.062-.181.122-.241.122-.359.244-.54.366-.18.122-.419.184-.718.428-.12.063-.18.121-.3.184s-.239.243-.479.367c-.12.061-.299.123-.42.183-.179 0-.239 0-.298-.061-.539-.122-.897-.734-.658-1.285.239-.428.18-.611.479-.979a.339.339 0 0 0 .18-.306c.06-.122 0-.184 0-.306 0-.243-.12-.429-.181-.611-.179-.916.002-1.467.179-1.896.12-.245.241-.428.301-.55.18-.245.3-.368.42-.489.3-.245.538-.368.777-.491.18-.06.3-.184.3-.366 0-1.101.18-1.406.419-1.591.06-.061.12-.061.18-.121s.3-.062.538.062c.301.123.66.49.72 1.345 0 .122-.001.306.059.428.001.612.12 1.103.3 1.529.12.184.24.366.419.61.194.279.414.611.562.959a1.977 1.977 0 0 1 1.593-.836l-.237-.245c-.72-.552-.959-.977-1.199-1.59-.238-.612-.358-.795-.537-1.528-.061-.123-.419-.55-.539-.857-.12-.306 0-.733.18-.856.3-.122.659-.183 1.258.185.358.244.238.244.599.673.299.366.598.061.838-.061.299-.123.658-.184 1.077-.184.479-.061.599.062.599.062s.658.122 1.018.488c.3.367.3.613.421.92.119.304.179.795.718.794.479-.063.479-.063.898-.001.658.184 1.137.428 1.257.734.119.184-.18.671-.479.857-.239.121-.239.121-.958.061-.719-.062-.838.244-1.438.488-.539.246-1.137.674-2.034.491l-.284-.041c.496.368.822.967.823 1.63.658-.121.896-.367 1.496-.733.539-.367.838-.916 1.495-1.161.179-.062.72-.184 1.018-.184.719-.001.957.672.659 1.284-.241.367-.239.243-.659.55-.359.366-.119.855-.061 1.162.18 1.407-.239 1.835-.538 2.264-.599.856-1.437 1.101-1.378 1.591.18 1.223-.419 1.896-.719 2.018-.179.061-1.136-.062-1.137-1.529 0-.672 0-1.591-.24-2.202-.239-.611-.599-.611-.658-1.467-.344.25-.783.427-1.256.428-.11 4.3 3.458 6.141 6.763 5.626a6.888 6.888 0 0 0 2.409-.891 1.897 1.897 0 0 1-.374-1.128 1.9 1.9 0 0 1 1.917-1.895c1.018-.001 1.855.854 1.856 1.896 0 1.039-.839 1.896-1.856 1.896a1.988 1.988 0 0 1-.493-.063c-.466 3.729 2.564 6.351 6.04 4.19a1.498 1.498 0 0 1-.336-.88c-.546.2-2.179.791-2.577.79-.478 0-.598-.367-.598-.611-.001-.245.238-.49.478-.735.24-.242.121-1.1.36-1.65.239-.488.359-.488.839-.732.478-.247.478-.123.718-.369.18-.121.358-.488.36-.733-.002-.245.238-.366.238-.366s.36-.124.598.121c.24.246.24.611.24.856-.001.396.063 1.469.097 2.03.217-.127.47-.195.741-.195l.164.007c.068-.481.196-1.433.195-1.964-.001-.734-.121-.614.119-.859.24-.242.598-.122.838.125.238.244.838 1.345 1.317 1.346.719-.002.599-.122 1.078.122.479.244 1.436 1.284 1.436 1.772 0 .489.001.245-.239.49-.239.245-1.438-.122-2.394.124-.393.1-.744.178-1.022.237.005.128-.474.434-1.013.861-.6.49-.778.733-.778.733a1.225 1.225 0 0 1-.202-.054c-.798 1.009-2.111 1.774-3.689 1.888l-.538.003c-.657-.063-1.377-.186-2.095-.49-2.096-.857-1.736-4.282-1.736-4.833-.479.49-1.257.796-2.096.979-1.437.306-3.173.183-4.849-.429-2.634-1.04-3.112-4.709-3.112-5.688-.121.368-1.019 1.162-2.274 1.772-1.378.674-3.232 1.164-4.849.674-2.635-.733-3.474-2.569-4.67-4.281-.18.245-.418.551-.777.856-1.138.917-3.053 2.017-5.028 1.834-2.755-.245-4.729-3.058-5.209-3.791-.479.733-2.394 3.547-5.147 3.79-2.035.184-3.951-.918-5.088-1.896-.36-.247-.6-.552-.78-.796-1.197 1.713-2.035 3.548-4.729 4.281-1.617.489-3.411-.001-4.79-.673-1.256-.611-2.154-1.407-2.273-1.772-.001.978-.48 4.647-3.113 5.686-1.676.613-3.413.735-4.85.43-.839-.185-1.616-.49-2.155-.979.001.549.359 3.975-1.677 4.831-.717.307-1.436.429-2.095.489h-.538c-1.578-.115-2.891-.881-3.688-1.89a1.593 1.593 0 0 1-.202.056s-.18-.245-.778-.735a13.24 13.24 0 0 0-1.018-.733c-.274-.188-.626-.267-1.018-.365-.959-.246-2.155.121-2.396-.123-.238-.243-.238.001-.238-.489s.957-1.529 1.436-1.774c.479-.245.36-.121 1.077-.122.479-.001 1.077-1.101 1.316-1.346.239-.242.598-.364.838-.122.24.243.119.122.12.856 0 .533.126 1.484.194 1.967l.164-.01c.271.001.522.071.741.194.033-.562.097-1.631.097-2.028 0-.246.001-.611.239-.855.24-.245.599-.123.599-.123s.24.122.24.366c0 .246.181.612.359.734.238.244.24.122.719.368.478.245.599.243.838.732.24.552.119 1.407.359 1.651.24.245.479.489.478.733.001.246-.118.611-.598.613-.397-.002-2.03-.59-2.576-.791a1.509 1.509 0 0 1-.336.88c3.473 2.161 6.456-.463 6.03-4.192a1.805 1.805 0 0 1-.483.067c-1.018.001-1.855-.855-1.856-1.897 0-1.039.838-1.895 1.855-1.896 1.019.001 1.855.857 1.856 1.896a1.933 1.933 0 0 1-.368 1.131c.75.45 1.606.733 2.463.889 3.307.573 6.822-1.319 6.817-5.626a1.973 1.973 0 0 1-1.362-.518c-.007.946-.366.944-.605 1.558-.24.609-.24 1.529-.24 2.201-.001 1.468-.958 1.591-1.136 1.529-.301-.123-.899-.796-.72-2.018.061-.49-.778-.734-1.377-1.591-.3-.428-.718-.855-.537-2.263.059-.307.297-.796-.062-1.163-.418-.305-.42-.183-.659-.55-.358-.611-.06-1.283.659-1.284.299 0 .838.122.957.183.718.246 1.018.797 1.557 1.162.6.369.838.612 1.377.795.12-.726.447-1.321.943-1.692l-.284.041c-.898.184-1.496-.244-2.095-.487-.539-.245-.659-.55-1.376-.489-.719.061-.719.061-1.018-.062-.24-.185-.539-.673-.42-.856.119-.307.539-.551 1.196-.734.479-.062.479-.062.958.001.538-.001.599-.49.718-.796.121-.304.12-.548.42-.917.357-.367 1.018-.488 1.018-.488s.119-.124.598-.061c.42.001.778.061 1.018.183.299.122.538.427.896.061.3-.429.181-.428.6-.673.539-.367.957-.306 1.258-.183.179.122.298.55.179.855-.119.307-.479.733-.538.855-.179.735-.3.918-.538 1.53-.239.613-.479 1.04-1.197 1.589l-.365.249c.776-.003 1.361.332 1.725.84.26-.615.731-1.151.915-1.577.3-.611.359-1.222.42-1.956.119-1.47 1.018-1.529 1.258-1.407.238.123.598.367.598 1.712 0 .489.898.43 1.438 1.348.298.428.837 1.039.478 2.445-.06.305-.359.855.001 1.224.357.366.298.55.479.979.359.611-.18 1.406-.898 1.343-.358-.062-.717-.427-.898-.551-.837-.55-1.017-.612-1.556-.978-.539-.429-.778-.429-1.317-.673a6.03 6.03 0 0 1-.604-.229 2.062 2.062 0 0 1-.58.977 6.751 6.751 0 0 0 2.142 1.759c3.72 1.845 8.041-1.01 8.346-4.364-1.267-.162-2.18-1.251-2.18-2.546-.001-1.405 1.077-2.568 2.514-2.569 1.376.001 2.514 1.162 2.515 2.57a2.588 2.588 0 0 1-1.486 2.339c.17.319.38.634.589.901 1.076 1.468 2.933 2.446 5.688 2.018 2.761-.403 3.735-2.963 3.992-3.853a2.695 2.695 0 0 1-1.872-1.604c-.057.388-.198.972-.564 1.42-.359.428-.839 1.221-1.077 1.711-.241.488-.479.979-.72 1.225-.239.242-.479.244-.719.244-.239-.001-.718-.489-.719-.979.001-.488-.119-1.528-.239-1.711-.239-.49-1.316-.857-1.316-2.324.001-1.47.838-1.713 1.077-2.203.12-.245-.239-1.528-.238-2.018 0-.489.358-.979.599-.979.478-.001 1.197.429 1.315.733.239.489.54.795.959 1.102.718.55.838.731 1.196 1.16.175.214.286.487.359.77.275-.915.996-1.622 1.889-1.852l-.334-.08c-.956-.243-1.437-.733-1.916-1.222-.478-.488-.479-.856-1.196-1.101-.718-.245-.718-.245-.958-.489-.238-.244-.179-.795.001-.979.238-.244.718-.489 1.437-.368.479.123.479.123.957.368.479.244.599.123.839-.122.239-.245.538-.855.958-1.102.479-.245.838-.244.838-.244s.359.001.838.245c.479.245.777.855.957 1.101.3.244.42.367.898.122.479-.244.479-.244.958-.367.718-.122 1.196.123 1.436.367.18.184.24.734.001.979-.24.245-.239.244-.958.488-.718.246-.719.611-1.197 1.103-.479.489-.958.979-1.977 1.222l-.32.076a2.705 2.705 0 0 1 1.921 1.804 1.97 1.97 0 0 1 .375-.717c.061-.121.121-.183.181-.245.18-.184.358-.366.657-.612.12-.122.18-.184.36-.305.119-.063.239-.123.299-.245.301-.183.479-.489.659-.855.179-.246.419-.427.72-.551.179-.122.418-.185.598-.183.3.121.598.551.598.979 0 .488-.358 1.774-.239 2.019.06.123.239.307.359.429.3.306.599.733.659 1.589v.367c-.059.734-.359 1.161-.658 1.468-.24.244-.479.428-.6.673-.12.488-.239 1.284-.239 1.712 0 .367-.239.733-.479.856a.45.45 0 0 1-.239.124c-.24 0-.359 0-.42-.062a.328.328 0 0 1-.299-.183c-.12-.122-.3-.306-.421-.552-.119-.184-.179-.428-.298-.671-.12-.186-.24-.429-.359-.611-.24-.368-.479-.735-.66-1.042-.426-.509-.567-1.093-.623-1.481a2.706 2.706 0 0 1-1.93 1.61c.261.894 1.244 3.447 4.051 3.849 2.634.428 4.489-.55 5.626-2.02.213-.271.426-.592.598-.918a1.156 1.156 0 0 1-.238-.121c-.248-.126-.428-.309-.607-.554zM488.907 223.919z" style="fill:#fff" transform="translate(-476.598 -104.425)"/><path d="M459.635 202.33c0-1.772 1.377-3.24 3.112-3.241 1.736.001 3.113 1.468 3.114 3.242 0 1.713-1.378 3.18-3.112 3.181-1.738 0-3.115-1.469-3.114-3.182zM461.012 184.718c.001-1.652 1.377-3.059 3.053-3.058 1.676-.001 2.992 1.406 2.994 3.058 0 1.712-1.317 3.119-2.995 3.118-1.675 0-3.052-1.406-3.052-3.118z" style="fill:#fff" transform="translate(-476.598 -104.425)"/><path d="M465.921 181.415c0-1.284 1.078-2.386 2.334-2.386 1.318 0 2.336 1.102 2.336 2.386-.001 1.345-1.018 2.384-2.336 2.384-1.258.001-2.334-1.039-2.334-2.384z" style="fill:#fff" transform="translate(-476.598 -104.425)"/><path d="M470.351 180.069c-.001-1.224 1.017-2.263 2.214-2.263a2.285 2.285 0 0 1 2.275 2.263c0 1.283-1.017 2.263-2.275 2.26-1.196.003-2.214-.975-2.214-2.26zM474.959 179.947c.001-1.039.839-1.896 1.855-1.896 1.019.001 1.856.857 1.856 1.896 0 1.041-.839 1.896-1.855 1.896-1.017.001-1.856-.856-1.856-1.896zM478.671 180.313c0-1.038.839-1.895 1.855-1.896 1.019.001 1.856.857 1.856 1.896.001 1.04-.838 1.896-1.855 1.897-1.017.001-1.855-.857-1.856-1.897z" style="fill:#fff" transform="translate(-476.598 -104.425)"/><path d="M482.263 181.291c.001-.793.599-1.404 1.377-1.405.779 0 1.378.612 1.378 1.407-.001.794-.6 1.468-1.378 1.467-.777 0-1.377-.673-1.377-1.469zM484.898 182.393c0-.61.538-1.162 1.137-1.161.659 0 1.198.551 1.196 1.162 0 .672-.539 1.222-1.197 1.222-.597 0-1.136-.55-1.136-1.223z" style="fill:#fff" transform="translate(-476.598 -104.425)"/><path d="M487.052 183.617c0-1.041.84-1.896 1.856-1.896 1.078 0 1.855.855 1.855 1.896 0 1.1-.777 1.896-1.855 1.896-1.017-.002-1.856-.796-1.856-1.896z" style="fill:#fff" transform="translate(-476.598 -104.425)"/><path d="M486.753 187.714c-.001-1.224.958-2.202 2.155-2.201 1.198.001 2.214.978 2.214 2.201-.001 1.224-1.018 2.202-2.216 2.202-1.196.001-2.154-.978-2.153-2.202z" style="fill:#fff" transform="translate(-476.598 -104.425)"/><path d="M486.274 192.545c.001-1.467 1.198-2.689 2.635-2.69a2.698 2.698 0 0 1 2.693 2.691c.001 1.529-1.196 2.692-2.694 2.691-1.438-.001-2.633-1.162-2.634-2.692z" style="fill:#fff" transform="translate(-476.598 -104.425)"/><path d="M485.556 198.6c0-1.895 1.496-3.425 3.353-3.424 1.855 0 3.411 1.528 3.411 3.426a3.432 3.432 0 0 1-3.411 3.424c-1.856-.002-3.353-1.529-3.353-3.426zM444.071 217.375c.001-1.528 1.258-2.813 2.813-2.813 1.558.001 2.754 1.284 2.754 2.813.001 1.59-1.197 2.875-2.752 2.875-1.558 0-2.815-1.284-2.815-2.875z" style="fill:#fff" transform="translate(-476.598 -104.425)"/><path d="M441.198 212.115a3.175 3.175 0 0 1 3.172-3.179c1.678-.001 3.113 1.406 3.112 3.181-.001 1.773-1.437 3.181-3.111 3.18a3.177 3.177 0 0 1-3.173-3.182z" style="fill:#fff" transform="translate(-476.598 -104.425)"/><path d="M440.24 206.368a2.92 2.92 0 0 1 2.935-2.937c1.555 0 2.873 1.284 2.872 2.935.002 1.592-1.316 2.937-2.873 2.936-1.616.001-2.934-1.346-2.934-2.934z" style="fill:#fff" transform="translate(-476.598 -104.425)"/><path d="M441.378 200.802c-.001-1.469 1.137-2.69 2.635-2.69 1.436-.001 2.634 1.223 2.633 2.69.001 1.529-1.198 2.752-2.635 2.75-1.496.003-2.635-1.222-2.633-2.75z" style="fill:#fff" transform="translate(-476.598 -104.425)"/><path d="M443.653 196.398c.001-1.346 1.078-2.447 2.396-2.446 1.317-.001 2.394 1.102 2.394 2.446 0 1.346-1.076 2.447-2.394 2.445-1.318.003-2.396-1.1-2.396-2.445z" style="fill:#fff" transform="translate(-476.598 -104.425)"/><path d="M447.065 193.096c-.001-1.162.957-2.14 2.095-2.141 1.138.001 2.095.979 2.096 2.142-.002 1.161-.959 2.141-2.097 2.14-1.137-.001-2.095-.978-2.094-2.141z" style="fill:#fff" transform="translate(-476.598 -104.425)"/><path d="M450.895 191.262c0-1.04.839-1.896 1.856-1.896 1.018-.001 1.855.855 1.855 1.896s-.838 1.896-1.855 1.897c-1.018-.002-1.855-.858-1.856-1.897zM454.608 190.527c0-.917.718-1.652 1.616-1.651.898-.001 1.678.733 1.676 1.651-.001.918-.778 1.651-1.676 1.651-.899.001-1.617-.734-1.616-1.651zM511.955 202.33c-.001-1.772 1.377-3.24 3.112-3.241 1.737.001 3.113 1.468 3.114 3.242-.001 1.713-1.379 3.181-3.113 3.179-1.737.002-3.114-1.467-3.113-3.18zM510.698 184.719c0-1.65 1.376-3.059 3.053-3.059 1.676 0 2.993 1.407 2.994 3.059-.001 1.713-1.317 3.119-2.994 3.118-1.678 0-3.053-1.406-3.053-3.118z" style="fill:#fff" transform="translate(-476.598 -104.425)"/><path d="M507.226 181.416c0-1.284 1.018-2.388 2.335-2.387 1.256 0 2.335 1.102 2.336 2.386-.001 1.346-1.08 2.385-2.337 2.385-1.317.001-2.334-1.039-2.334-2.384z" style="fill:#fff" transform="translate(-476.598 -104.425)"/><path d="M502.974 180.069c.002-1.223 1.019-2.264 2.216-2.263a2.282 2.282 0 0 1 2.273 2.262c.001 1.284-1.017 2.264-2.274 2.264-1.197 0-2.214-.979-2.215-2.263zM499.144 179.946c.001-1.039.839-1.896 1.855-1.896 1.019 0 1.856.856 1.856 1.896 0 1.041-.837 1.897-1.855 1.896-1.017.002-1.856-.855-1.856-1.896zM495.492 180.315c-.001-1.041.778-1.896 1.796-1.897 1.018.001 1.855.857 1.855 1.897.001 1.041-.839 1.895-1.855 1.896-1.017 0-1.796-.857-1.796-1.896z" style="fill:#fff" transform="translate(-476.598 -104.425)"/><path d="M492.799 181.292c0-.795.659-1.406 1.437-1.407.777.001 1.378.612 1.378 1.408-.001.796-.601 1.468-1.378 1.467-.779 0-1.437-.672-1.437-1.468z" style="fill:#fff" transform="translate(-476.598 -104.425)"/><path d="M490.644 182.393c0-.61.539-1.162 1.198-1.162.598 0 1.137.552 1.137 1.163 0 .673-.538 1.223-1.137 1.223-.659 0-1.197-.551-1.198-1.224zM530.331 212.116c0-1.772 1.379-3.18 3.113-3.181 1.735.001 3.112 1.407 3.112 3.181.001 1.775-1.377 3.183-3.113 3.181-1.733 0-3.111-1.407-3.112-3.181z" style="fill:#fff" transform="translate(-476.598 -104.425)"/><path d="M531.888 206.368c0-1.591 1.259-2.876 2.754-2.875 1.557.002 2.814 1.286 2.813 2.874a2.828 2.828 0 0 1-2.813 2.814c-1.496.001-2.753-1.284-2.754-2.813zM531.23 200.802c.001-1.406 1.198-2.567 2.574-2.567a2.568 2.568 0 0 1 2.574 2.568c0 1.468-1.138 2.629-2.573 2.629-1.377 0-2.575-1.162-2.575-2.63z" style="fill:#fff" transform="translate(-476.598 -104.425)"/><path d="M529.434 196.4c.001-1.284 1.078-2.387 2.336-2.387 1.257.001 2.335 1.103 2.335 2.386 0 1.345-1.079 2.384-2.336 2.384-1.258.001-2.335-1.038-2.335-2.383z" style="fill:#fff" transform="translate(-476.598 -104.425)"/><path d="M526.561 193.097c0-1.162.957-2.14 2.095-2.141 1.136 0 2.095.979 2.094 2.141 0 1.162-.958 2.141-2.094 2.14-1.137 0-2.095-.978-2.095-2.14z" style="fill:#fff" transform="translate(-476.598 -104.425)"/><path d="M523.207 191.262c.001-1.039.779-1.896 1.856-1.896 1.018.001 1.856.857 1.855 1.896.001 1.04-.837 1.896-1.855 1.896-1.075-.002-1.855-.856-1.856-1.896z" style="fill:#fff" transform="translate(-476.598 -104.425)"/><path d="M519.916 190.526c0-.917.719-1.649 1.616-1.65.898 0 1.677.733 1.676 1.65.001.919-.777 1.654-1.676 1.652-.896.002-1.616-.732-1.616-1.652zM457.779 189.793a3.176 3.176 0 0 1 3.174-3.18c1.736.001 3.112 1.407 3.112 3.181-.001 1.773-1.377 3.181-3.112 3.18a3.18 3.18 0 0 1-3.174-3.181z" style="fill:#fff" transform="translate(-476.598 -104.425)"/><path d="M457.779 189.793a3.176 3.176 0 0 1 3.174-3.18c1.736.001 3.112 1.407 3.112 3.181-.001 1.773-1.377 3.181-3.112 3.18a3.18 3.18 0 0 1-3.174-3.181z" style="fill:#fff" transform="translate(-476.598 -104.425)"/><path d="M456.582 196.276c0-2.018 1.617-3.67 3.651-3.669 1.975-.001 3.594 1.651 3.593 3.67-.001 2.018-1.617 3.668-3.593 3.67a3.656 3.656 0 0 1-3.651-3.671zM513.869 189.795c0-1.713 1.317-3.12 2.994-3.12 1.676-.001 3.054 1.407 3.053 3.12a3.046 3.046 0 0 1-3.054 3.058c-1.676-.002-2.992-1.346-2.993-3.058z" style="fill:#fff" transform="translate(-476.598 -104.425)"/><path d="M513.99 196.398c0-2.019 1.616-3.67 3.592-3.668 1.976-.001 3.592 1.651 3.591 3.668 0 2.018-1.616 3.67-3.591 3.67-1.976.001-3.592-1.651-3.592-3.67zM488.747 226.249l-7.184-4.525 7.184-4.587 7.183 4.586c-2.391 1.502-4.84 2.944-7.183 4.526z" style="fill:#fff" transform="translate(-476.598 -104.425)"/><path d="M488.748 218.358c1.766 1.072 3.438 2.345 5.268 3.305l-5.269 3.362-5.208-3.364 5.209-3.303zM499.88 225.883l11.313 3.943 1.782-5.802-11.316-3.943z" style="fill:#fff" transform="translate(-476.598 -104.425)"/><path d="m500.995 225.145 9.697 3.4 1.167-3.781-9.697-3.403zM520.3 232.799l-2.649-4.937 6.053-.373-.182 3.824z" style="fill:#fff" transform="translate(-476.598 -104.425)"/><path d="m524.119 227.809-6.364.132 3.039 4.991c.278.49-.39 1.035-.597.823l-3.274-6.397c.047.024.728-.135 7.457-.559.285-.026.294.996-.261 1.01zM477.615 225.883l-11.312 3.944-1.782-5.802 11.314-3.943z" style="fill:#fff" transform="translate(-476.598 -104.425)"/><path d="m476.5 225.145-9.695 3.401-1.167-3.781 9.694-3.404zM457.733 232.799l2.65-4.938-6.054-.371.182 3.823z" style="fill:#fff" transform="translate(-476.598 -104.425)"/><path d="m453.913 227.808 6.366.133-3.04 4.99c-.279.49.389 1.036.598.823l3.273-6.396c-.048.025-.729-.132-7.456-.558-.287-.028-.294.995.259 1.008zM528.217 217.377a2.826 2.826 0 0 1 2.814-2.813 2.826 2.826 0 0 1 2.813 2.813c.001 1.592-1.257 2.876-2.813 2.875-1.557-.001-2.813-1.285-2.814-2.875z" style="fill:#fff" transform="translate(-476.598 -104.425)"/></svg>