<svg xmlns="http://www.w3.org/2000/svg" width="273.25202" height="365.962527" viewBox="0 0 32 43"><path fill="#fff" d="M22.19 12.95c-.18 0-.32-.14-.32-.31s.14-.31.32-.31.32.14.32.31c.01.17-.14.31-.32.31zM3.1 27.45c0-6.93 5.86-12.56 13.02-12.56s13.02 5.64 13.02 12.56c0 6.91-5.86 12.57-13.02 12.57C8.96 40.01 3.1 34.36 3.1 27.45zM21.23 8.27c.31.08.5.38.42.68s-.4.48-.71.4-.5-.38-.42-.68.4-.48.71-.4zm.53-1.1c.18 0 .32.14.32.31s-.14.31-.32.31-.32-.14-.32-.31c-.01-.18.14-.31.32-.31zm-.27-1.12c.18 0 .32.14.32.31s-.14.31-.32.31-.32-.14-.32-.31c-.01-.17.14-.31.32-.31zm4 2.94c.18 0 .32.14.32.31s-.14.31-.32.31-.32-.14-.32-.31.14-.31.32-.31zm-.27-1.11c.18 0 .32.14.32.31s-.14.31-.32.31-.32-.14-.32-.31.14-.31.32-.31zm-.48-.98c.18 0 .32.14.32.31s-.15.31-.32.31c-.18 0-.32-.14-.32-.31-.01-.17.14-.31.32-.31zm-.77-.87c.18 0 .32.14.32.31s-.14.31-.32.31-.32-.14-.32-.31.14-.31.32-.31zm-.94-.66c.18 0 .32.14.32.31s-.14.31-.32.31-.32-.14-.32-.31.14-.31.32-.31zm-1.02-.39c.18 0 .32.14.32.31s-.14.31-.32.31-.32-.14-.32-.31.15-.31.32-.31zm-1.03.09c.18 0 .32.14.32.31s-.14.31-.32.31-.32-.14-.32-.31.14-.31.32-.31zm-.76-.85c.18 0 .32.14.32.31s-.15.31-.32.31c-.18 0-.32-.14-.32-.31s.14-.31.32-.31zm-.99-.63c.18 0 .32.14.32.31s-.14.31-.32.31-.32-.14-.32-.31.14-.31.32-.31zm-1.03-.37c.18 0 .32.14.32.31s-.14.31-.32.31-.32-.14-.32-.31.14-.31.32-.31zm-1.05-.18c.18 0 .32.14.32.31s-.14.31-.32.31-.32-.14-.32-.31c-.01-.17.14-.31.32-.31zm-9.99 8.21c-.28.15-.63.05-.79-.22a.546.546 0 0 1 .23-.76c.28-.15.63-.05.79.22.15.27.05.61-.23.76zm4.14-1.9c-.31.08-.63-.1-.71-.4s.11-.61.42-.68c.31-.08.63.1.71.4s-.11.61-.42.68zm4.82-.59a.57.57 0 0 1-.58-.56c0-.31.26-.56.58-.56s.58.25.58.56-.26.56-.58.56zm-5.63-.97c-.18 0-.32-.14-.32-.31s.14-.31.32-.31.32.14.32.31-.15.31-.32.31zm.27-1.12c-.18 0-.32-.14-.32-.31s.14-.31.32-.31.32.14.32.31-.15.31-.32.31zM6.75 9.62c-.18 0-.32-.14-.32-.31S6.57 9 6.75 9s.32.14.32.31c.01.17-.14.31-.32.31zm.27-1.12c-.18 0-.32-.14-.32-.31s.15-.31.32-.31c.18 0 .32.14.32.31.01.17-.14.31-.32.31zm.48-.98c-.18 0-.32-.14-.32-.31s.14-.31.32-.31.32.14.32.31c.01.17-.14.31-.32.31zm.77-.87c-.18 0-.32-.14-.32-.31s.14-.31.32-.31.32.14.32.31-.14.31-.32.31zm.94-.66c-.18 0-.32-.14-.32-.31s.14-.31.32-.31.32.14.32.31c.01.17-.14.31-.32.31zm1.02-.38c-.18 0-.32-.14-.32-.31s.14-.31.32-.31.32.14.32.31-.14.31-.32.31zm1.03.08c-.18 0-.32-.14-.32-.31s.14-.31.32-.31.32.14.32.31c.01.17-.14.31-.32.31zm.76-.84c-.18 0-.32-.14-.32-.31s.15-.31.32-.31c.18 0 .32.14.32.31s-.14.31-.32.31zm.99-.64c-.18 0-.32-.14-.32-.31s.14-.31.32-.31.32.14.32.31-.14.31-.32.31zm1.03-.37c-.18 0-.32-.14-.32-.31s.15-.31.32-.31c.18 0 .32.14.32.31s-.14.31-.32.31zm2.08 3.06c-.18 0-.32-.14-.32-.31s.15-.31.32-.31c.18 0 .32.14.32.31s-.14.31-.32.31zm0-1.13c-.18 0-.32-.14-.32-.31s.15-.31.32-.31c.18 0 .32.14.32.31s-.14.31-.32.31zm0-1.13c-.18 0-.32-.14-.32-.31s.15-.31.32-.31c.18 0 .32.14.32.31s-.14.31-.32.31zm-1.02-.98c-.18 0-.33-.14-.33-.31s.15-.31.33-.31.32.14.32.31c0 .18-.15.31-.32.31zm10.54 6.61c.28.15.38.49.23.76s-.51.37-.79.22a.555.555 0 0 1-.23-.76c.16-.27.51-.37.79-.22zm-7.45 1.64c-.18 0-.32-.14-.32-.31s.14-.31.32-.31.32.14.32.31c.01.17-.14.31-.32.31zm-8.14 1.04c-.18 0-.32-.14-.32-.31s.15-.31.32-.31c.18 0 .32.14.32.31s-.14.31-.32.31zm4-1.04c-.18 0-.32-.14-.32-.31s.15-.31.32-.31c.18 0 .32.14.32.31s-.14.31-.32.31z"/><path fill="#e62644" d="M18.52 9.66c.09.19.19.33.32.45-.3-.04-.59-.08-.89-.11.17-.09.31-.21.43-.36.04.01.09.02.14.02zm-4.817-.013c.05 0 .13-.01.18-.02.11.15.264.291.424.381-.3.03-.65.065-.94.115.14-.13.266-.306.336-.476zm-1.713.723c-.26.06-.52.128-.78.198.14-.17.23-.388.25-.608.07.09-.079-.069.01 0s.415.365.52.41zm-2.97.94c.08-.12.13-.26.17-.39l.093-.051c.072-.04.113-.037.173-.077.12.08.268.162.408.202-.27.09-.574.206-.844.316Zm7.1-1.92c.08.21.23.39.41.53-.14 0-.27-.01-.41-.01-.13 0-.27 0-.41.01.19-.14.33-.32.41-.53zm6.68 1.42c.06.04.14.07.21.09l.05.02c.03.14.09.27.17.39-.27-.11-.573-.23-.853-.33.15-.03.303-.09.423-.17Zm-1.77-.25c-.26-.07-.52-.13-.78-.19.21-.09.407-.247.537-.427.03.22.103.447.243.617Zm.99-2.457c.22-.09.4-.263.45-.493.35.08.76.14 1.08.27.3.11.52.3.69.44.17.43.27.93.33 1.54-.21.09-.35.3-.43.51-.13.32-.13.65.23.9-.34.026-.666-.264-.65-.604a.663.663 0 0 0 .148-.256c.1-.38-.088-.722-.478-.812-.39-.1-.78.092-.88.462-.01.04-.02.08-.02.12-.33.39-1.032.17-1.062-.34.61.12.866-.156.966-.556.09-.33.07-.682-.32-.882-.02-.11-.025-.219-.055-.299z"/><path fill="#e62644" d="M11.726 6.715c1.16-.62 2.694-.715 3.864-.545v.1c-.176.264-.093.623.162.813a.675.675 0 0 0-.459.526c-.44.1-.555.391-.555.731 0 .41.161.764.781.794a.585.585 0 0 1-.554.407.617.617 0 0 1-.565-.401c.02-.06.02-.12.02-.18 0-.39-.326-.667-.726-.667-.4 0-.705.277-.705.667 0 .12.051.248.111.338-.018.245-.23.472-.467.531a.61.61 0 0 1-.643-.279c.59-.18.67-.56.56-.96-.09-.33-.282-.59-.732-.58a.721.721 0 0 0-.328-.34c.06-.32.126-.665.236-.955Zm4.934-.545c1.17-.17 2.72-.068 3.87.552.11.3.16.618.2.948-.13.06-.24.16-.32.32-.45-.01-.625.27-.705.6-.11.4-.022.772.568.952-.13.2-.405.343-.655.283a.623.623 0 0 1-.459-.535c.06-.1.082-.21.082-.33 0-.39-.287-.675-.697-.675-.4 0-.713.285-.713.675 0 .06.014.12.024.18a.62.62 0 0 1-.557.405c-.26 0-.499-.198-.579-.428.62-.03.782-.367.782-.777 0-.35-.091-.66-.531-.76a.692.692 0 0 0-.45-.51c.14-.11.24-.29.24-.48 0-.12-.04-.24-.1-.33ZM8.72 7.88c.32-.12.71-.22 1.06-.3.05.23.21.45.43.54-.03.08-.05.18-.04.28-.4.2-.43.54-.34.87.11.4.374.688.984.568-.02.51-.714.77-1.044.38 0-.04-.041-.128-.051-.168-.1-.38-.406-.576-.796-.476-.39.1-.673.456-.573.826.03.1.08.2.15.27.01.21-.088.475-.288.585-.1.05-.297.015-.397.015.36-.24.388-.574.258-.904-.09-.2-.173-.416-.393-.506.05-.61.156-1.145.326-1.575.18-.14.404-.295.714-.405Zm8.44 3.61-1.04.37-1.03-.37 1.03-.37Zm-7.79 1.36-.09.35-.03.13-.07-.04-.35-.19.03-.182.08-.218.232.052Zm13.488-.018.442-.142.067.194c.03.124.043.216.043.216l-.34.18-.07.04-.083-.225Z"/><path fill="#fcbf00" d="M21.03 10.56c-.14-.17-.23-.38-.25-.6-.13.18-.32.32-.52.41.25.06.51.12.77.19zm1.77.25c-.12.08-.26.14-.4.18.28.1.56.21.83.32a1.22 1.22 0 0 1-.17-.39l-.04-.01c-.08-.02-.15-.06-.22-.1Zm-6.68-1.42c-.08.21-.22.39-.41.53.292 0 .577.002.85.02a1.38 1.38 0 0 1-.44-.55Zm-7.1 1.92c.27-.11.55-.22.83-.32-.14-.04-.28-.1-.4-.18-.06.04-.14.07-.21.09l-.04.01c-.05.14-.1.28-.18.4zm2.97-.94c-.21-.09-.39-.23-.52-.41-.03.22-.11.43-.25.6.25-.07.51-.13.77-.19zm1.73-.71c-.07.17-.18.32-.32.45.308-.028.588-.079.89-.11-.17-.09-.31-.21-.42-.36-.05.01-.1.02-.15.02Zm4.8 0a.59.59 0 0 1-.14-.02c-.11.15-.26.27-.43.36.3.03.6.06.89.11-.13-.12-.23-.26-.31-.42Zm7.12.61a.595.595 0 0 0-.79.22c-.15.27-.05.61.23.76.28.15.63.05.79-.22.16-.27.06-.61-.23-.76zm-4.41-2c-.31-.08-.63.1-.71.4-.08.3.11.61.42.68.31.08.63-.1.71-.4.08-.3-.11-.61-.42-.68zm.53-1.1c-.18 0-.32.14-.32.31 0 .17.15.31.32.31.18 0 .32-.14.32-.31 0-.18-.14-.31-.32-.31zm-.27-1.12c-.18 0-.32.14-.32.31 0 .17.15.31.32.31.18 0 .32-.14.32-.31 0-.17-.14-.31-.32-.31zm4 2.94c-.18 0-.32.14-.32.31 0 .17.14.31.32.31s.32-.14.32-.31c0-.17-.14-.31-.32-.31zm-.27-1.11c-.18 0-.32.14-.32.31 0 .17.14.31.32.31s.32-.14.32-.31c0-.17-.14-.31-.32-.31zm-.48-.98c-.18 0-.32.14-.32.31 0 .17.15.31.32.31.18 0 .32-.14.32-.31 0-.17-.14-.31-.32-.31zm-.77-.87c-.18 0-.32.14-.32.31 0 .17.14.31.32.31s.32-.14.32-.31c0-.17-.14-.31-.32-.31zm-.94-.66c-.18 0-.32.14-.32.31 0 .17.14.31.32.31s.32-.14.32-.31c0-.17-.14-.31-.32-.31zm-1.02-.39c-.18 0-.32.14-.32.31 0 .17.14.31.32.31s.32-.14.32-.31c.01-.17-.14-.31-.32-.31zm-1.03.09c-.18 0-.32.14-.32.31 0 .17.14.31.32.31s.32-.14.32-.31c0-.17-.14-.31-.32-.31zm-.76-.85c-.18 0-.32.14-.32.31 0 .17.14.31.32.31s.32-.14.32-.31c.01-.17-.14-.31-.32-.31Zm-.99-.63c-.18 0-.32.14-.32.31 0 .17.14.31.32.31s.32-.14.32-.31c0-.17-.14-.31-.32-.31zm-1.03-.37c-.18 0-.32.14-.32.31 0 .17.14.31.32.31s.32-.14.32-.31c.01-.17-.14-.31-.32-.31Zm-1.05-.18c-.18 0-.32.14-.32.31 0 .17.14.31.32.31s.32-.14.32-.31c0-.17-.14-.31-.32-.31zm-9.99 8.21c.28-.15.38-.49.23-.76a.592.592 0 0 0-.79-.22c-.28.15-.38.49-.23.76s.51.37.79.22Zm4.14-1.9c.31-.08.5-.38.42-.68-.08-.3-.4-.48-.71-.4-.31.08-.5.38-.42.68.09.3.4.48.71.4zm4.82-.59c.32 0 .58-.25.58-.56a.57.57 0 0 0-.58-.56.57.57 0 0 0-.58.56c0 .31.26.56.58.56zm-5.63-.97c.18 0 .32-.14.32-.31 0-.17-.14-.31-.32-.31s-.32.14-.32.31c-.01.17.14.31.32.31zm.27-1.12c.18 0 .32-.14.32-.31 0-.17-.14-.31-.32-.31s-.32.14-.32.31c-.01.17.14.31.32.31zM6.75 9.62c.18 0 .32-.14.32-.31 0-.17-.14-.31-.32-.31s-.32.14-.32.31c0 .17.14.31.32.31zm.27-1.12c.18 0 .32-.14.32-.31a.32.32 0 0 0-.32-.31c-.18 0-.32.14-.32.31 0 .17.14.31.32.31Zm.48-.98c.18 0 .32-.14.32-.31 0-.17-.14-.31-.32-.31s-.32.14-.32.31c0 .17.15.31.32.31Zm.77-.87c.18 0 .32-.14.32-.31 0-.17-.14-.31-.32-.31s-.32.14-.32.31c0 .17.14.31.32.31zm.94-.66c.18 0 .32-.14.32-.31 0-.17-.14-.31-.32-.31s-.32.14-.32.31c0 .17.15.31.32.31zm1.02-.38c.18 0 .32-.14.32-.31 0-.17-.14-.31-.32-.31s-.32.14-.32.31c0 .17.14.31.32.31zm1.03.08c.18 0 .32-.14.32-.31 0-.17-.14-.31-.32-.31s-.32.14-.32.31c0 .17.14.31.32.31zm.76-.84c.18 0 .32-.14.32-.31 0-.17-.14-.31-.32-.31s-.32.14-.32.31c0 .17.14.31.32.31zm.99-.64c.18 0 .32-.14.32-.31 0-.17-.14-.31-.32-.31s-.32.14-.32.31c0 .17.14.31.32.31zm1.03-.37c.18 0 .32-.14.32-.31 0-.17-.14-.31-.32-.31s-.32.14-.32.31c0 .17.14.31.32.31zm2.08 3.06c.18 0 .32-.14.32-.31 0-.17-.14-.31-.32-.31s-.32.14-.32.31c0 .17.14.31.32.31zm0-1.13c.18 0 .32-.14.32-.31 0-.17-.14-.31-.32-.31s-.32.14-.32.31c0 .17.14.31.32.31zm0-1.13c.18 0 .32-.14.32-.31 0-.17-.14-.31-.32-.31s-.32.14-.32.31c0 .17.14.31.32.31zm-1.02-.98c.18 0 .32-.14.32-.31a.32.32 0 0 0-.32-.31c-.18 0-.33.14-.33.31 0 .18.15.31.33.31zm8.88 7.65c.27.14.48.08.74-.01-.43-.21-.66-.4-.46-.89.09-.22.2-.39.44-.46-.15-1.91-.68-2.8-2.48-3.67l-.13.04c0 .02.02.02.02.05 0 .26-.16.41-.36.55.32.06.644.194.644.564 0 .31-.254.496-.534.576.09.17.11.24.09.44.37.17.468.374.368.744-.14.52-.453.615-.963.485-.064.373.306.82.581.734.275-.087.316.017.534-.293 0-.05.13-.05.14-.1.08-.3.4-.49.72-.41.32.08.552.398.462.698-.03.1-.093.201-.163.271-.01.3.091.541.351.681zm-8.36-6.99c0-.04.01-.08.01-.13-2.35-.17-4.002 1.376-4.232 3.556.21.08.281.161.371.361.41-.02.603.153.703.513.14.51-.142.71-.652.84.15.33.44.54.84.44.32-.08.53-.33.53-.65a.53.53 0 0 1-.09-.3c0-.31.26-.59.59-.59.32 0 .62.27.62.59 0 .06-.007.116-.027.176.09.3.334.493.674.493.41 0 .633-.269.693-.629-.52 0-.82-.13-.82-.66 0-.38.14-.57.54-.65.09-.47.353-.504.753-.564.41.07.67.077.76.547.4.08.536.287.536.667 0 .53-.309.66-.829.66.06.36.293.637.703.637.33 0 .577-.197.677-.497a.566.566 0 0 1-.03-.18c0-.31.285-.59.615-.59s.607.262.607.582c0 .11-.052.218-.112.308.01.32.198.548.518.628.4.1.702-.088.852-.418-.51-.13-.76-.33-.63-.84.1-.36.28-.52.69-.5.1-.2.17-.29.38-.37-.23-2.18-1.89-3.73-4.25-3.56.01.04.023.088.023.138 0 .11-.053.192-.113.282v.56c.06.09.11.17.11.28 0 .11-.05.21-.11.3l.03.566c.05.08.088.18.088.28 0 .33-.259.454-.509.564-.25-.11-.529-.26-.529-.58 0-.11.04-.2.1-.29v-.54a.508.508 0 0 1-.1-.29c0-.11.04-.2.1-.29v-.56a.574.574 0 0 1-.08-.29Zm-7.64 6.09c.19.49-.03.67-.46.88.26.09.452.125.722-.015.27-.14.408-.375.378-.655-.07-.07-.152-.15-.18-.244-.069-.311.151-.65.46-.73a.599.599 0 0 1 .74.564c.45.57 1.36.27 1.28-.53-.51.12-.83.08-.97-.43-.1-.36-.02-.59.35-.76-.01-.2 0-.27.09-.44-.28-.08-.5-.25-.5-.56 0-.38.3-.54.62-.6-.19-.15-.35-.25-.35-.51 0-.02 0-.05-.13-.09-1.83.87-2.33 1.73-2.49 3.66.25.06.35.24.44.46zm15.56 1.81c-2.25-1.02-4.77-1.6-7.42-1.6-2.65 0-5.16.57-7.41 1.59-.15.07-.332.035-.402-.105-.07-.15.012-.295.082-.415-.46.14-.794.217-1.194-.083-.74.48-1.596-.587-1.036-1.037-.26-.33-.26-.69.12-.93a.575.575 0 0 1-.11-.34c0-.37.29-.52.61-.58-.19-.14-.34-.27-.34-.53 0-.38.3-.54.63-.57-.09-.14-.174-.24-.174-.41 0-.31.278-.59.608-.59.1 0 .196.05.286.08-.06-.13-.135-.214-.135-.354 0-.31.26-.59.59-.59.16 0 .235.03.375.09-.023-.07-.01-.085-.014-.16 0-.31.278-.606.608-.606.18 0 .256.09.396.18.07-.3.229-.583.579-.583.26 0 .421.183.551.373.14-.15.247-.27.467-.27.09 0 .193.04.283.06-.054-.098-.114-.204-.12-.316 0-.31.308-.595.628-.595.19 0 .272.111.422.201-.01-.07-.051-.138-.051-.218 0-.31.277-.625.607-.625.19 0 .284.113.424.213.07-.3.217-.56.577-.56.22 0 .363.11.503.25.11-.24.205-.441.505-.441.08 0 .215.051.295.081.18-.2.34-.29.6-.35v-.6h-.49v-.35h.49V1.1h.39v.43h.49v.37h-.49v.6c.25.06.45.13.63.33.08-.03.15-.05.23-.05.3 0 .43.2.54.43.14-.14.35-.313.56-.313.36 0 .48.313.54.603.14-.1.25-.17.44-.17.32 0 .59.25.59.56 0 .08-.02.17-.03.24.15-.09.25-.16.44-.16.32 0 .59.25.59.56 0 .12-.04.21-.09.32.08-.02.17-.04.26-.04.22 0 .32.12.46.27.13-.2.31-.35.57-.35.36 0 .53.25.6.54.14-.09.24-.16.42-.16.32 0 .59.25.59.57 0 .07-.02.15-.03.22.13-.07.23-.12.38-.12.32 0 .59.25.59.56 0 .14-.05.24-.11.36.1-.03.19-.06.3-.06.32 0 .59.25.59.56 0 .17-.07.27-.16.41.34.03.65.19.65.57 0 .26-.15.39-.34.53.32.07.61.21.61.58 0 .14-.04.23-.11.34.39.24.38.59.12.92.34.27.124.755-.156.975-.29.22-.584.215-.904.005-.4.3-.74.3-1.2.16l.1.12c.09.25-.14.5-.4.41zm-14.06.57L9 12.62l-.04-.07c-.04.02-.082.05-.112.06-.13.01-.108-.16-.048-.19 2.22-1.01 4.69-1.57 7.31-1.57 2.62 0 5.108.542 7.328 1.552.06.03.062.188-.068.178-.03 0-.06-.01-.1-.03l-.04.07-.48.17.14.53-.04.09c.25.11.07.29-.04.24-2.04-.93-4.31-1.44-6.71-1.44-2.4 0-4.658.534-6.698 1.464-.05.02-.122-.024-.152-.084-.03-.06 0-.1.04-.14.02-.02.05-.03.08-.04l-.04-.09Zm2.65-.39 1.02-.69-1.24-.13-1.02.69zm10.06.64c.23 0 .42-.18.42-.4 0-.22-.19-.4-.42-.4-.23 0-.42.18-.42.4.01.22.19.4.42.4zM14.05 12c.23 0 .42-.18.42-.4 0-.22-.19-.4-.42-.4-.23 0-.42.18-.42.4 0 .22.19.4.42.4zm-3.988 1.022c.23 0 .378-.168.378-.388s-.15-.359-.39-.359c-.23 0-.39.145-.39.365s.172.382.402.382zM18.19 12c.23 0 .42-.18.42-.4 0-.22-.19-.4-.42-.4-.23 0-.41.18-.41.4 0 .22.19.4.41.4zm1.92.4 1.24-.13-1.02-.69-1.24.13zm-2.69-.91-1.3-.47-1.3.47 1.3.47zM2.66 27.45c0 7.15 6.06 13 13.46 13 7.41 0 13.47-5.85 13.47-13 0-7.17-6.06-13-13.47-13-7.41 0-13.46 5.83-13.46 13zm28.39 0c0 7.93-6.7 14.41-14.93 14.41S1.19 35.38 1.19 27.45c0-7.94 6.7-14.42 14.93-14.42 8.23-.01 14.93 6.47 14.93 14.42zm-16.89-6.13 1.95 1.775 1.631-1.744c-.64-.16-1.032-.193-1.702-.213-.62-.03-1.279.052-1.879.182Zm5.13-1.34 1.638-1.672c.37-.378.423-1.243.834-1.236 3.94.06 6.636 6.941 6.723 10.338 0 2.86-1.18 5.669-2.95 7.719l-1.52-1.494c1.5-1.77 2.553-3.53 2.553-6.35 0-3.01-1.528-6.355-4.128-8.095l-1.72 1.7c.88.64 1.58 1.28 2.17 2.18l-1.325 1.235c-.52-.88-1.16-1.514-2.02-2.084l-3.42 3.45-3.58-3.471c-1.84 1.24-2.905 2.85-2.955 5.05-.06 2.93 1.89 4.96 4.64 5.85v-5.88h4.21v1.21h-2.57V30h2.54v1.38h-2.54v1.98c1.88.09 3.89-.96 5.11-2.26l1.26 1.23c-1.61 1.8-3.93 2.71-6.36 2.73v1.81h-1.64v-2c-3.71-.89-6.506-4.074-6.456-7.824.03-2.57 1.435-4.65 3.495-6.15L9.67 19.17c-2.7 2.13-4.15 4.73-4.27 8.11-.09 2.99 1.51 5.39 2.52 6.4l-.53.728C5.785 36.613 3.783 30.27 3.783 27.4c0-4.36 2.577-8.2 6.247-10.25l2.9 2.92c1.03-.38 2.1-.58 3.2-.58 1.1.02 2.05.21 3.07.58z"/><path fill="#004996" d="M31.49 27.45c0 8.17-6.9 14.84-15.37 14.84C7.64 42.29.75 35.62.75 27.45c0-8.18 6.9-14.86 15.37-14.86 8.48 0 15.37 6.68 15.37 14.86zm-.44 0c0-7.94-6.7-14.42-14.93-14.42S1.19 19.51 1.19 27.45c0 7.93 6.7 14.41 14.93 14.41s14.93-6.48 14.93-14.41zm-27.95 0c0 6.91 5.86 12.57 13.02 12.57s13.02-5.65 13.02-12.57c0-6.93-5.86-12.56-13.02-12.56C8.96 14.88 3.1 20.52 3.1 27.45zm-.44 0c0-7.17 6.06-13 13.46-13 7.41 0 13.47 5.83 13.47 13 0 7.15-6.06 13-13.47 13-7.41-.01-13.46-5.85-13.46-13zm15.04-2.87 7.28 7.25c.83-1.32 1.25-2.67 1.25-4.54 0-3.26-1.9-6.23-3.73-7.55l-1.1 1.09c.87.67 1.5 1.4 2.07 2.32l-2.02 1.69c-.48-.92-.99-1.57-1.86-2.18zm9.23 9.19c-1.31 2.15-3.31 3.85-5.68 4.87l-1.18-1.16-2.2-2.17c-.5.11-1.02.17-1.55.18v1.82H13.8v-2.1c-3.78-.99-6.39-4.41-6.35-8.12.01-.62.1-1.22.25-1.8l-1.24-1.22c-.37 1-.58 2.08-.62 3.23-.07 2.3.97 4.79 2.7 6.38l-1.82 1.79c-2.14-2.32-3.31-4.93-3.31-8.07 0-4.58 2.6-8.58 6.69-10.78l2.93 2.96c.97-.34 2.07-.51 3.08-.51 1.09.01 2.08.2 2.97.51l2.98-2.99c4.12 2.21 6.72 6.21 6.72 10.82.01 2.34-.64 4.46-1.85 6.36zM13.79 31.3l-3.76-3.7c.09 2.07 1.4 4.03 3.76 4.9zm5.5-11.32-.1.1a8.67 8.67 0 0 0-3.07-.58c-1.1 0-2.17.2-3.2.58l-2.9-2.92C6.35 19.2 3.86 23.04 3.86 27.4c0 2.88 1.07 5.39 2.88 7.43l1.17-1.15c-1.01-1.01-2.61-3.41-2.52-6.4.12-3.38 1.57-5.98 4.27-8.11l1.74 1.74c-2.06 1.5-3.48 3.61-3.51 6.18-.05 3.75 2.63 6.89 6.35 7.78v2h1.63v-1.81c2.44-.02 4.76-.93 6.36-2.73l-1.26-1.23c-1.22 1.3-3.22 2.36-5.11 2.26v-1.98h2.54V30h-2.54v-1.57h2.57v-1.21h-4.2v5.88c-2.75-.89-4.72-2.92-4.65-5.85.05-2.2 1.13-3.97 2.97-5.21l3.55 3.53 3.42-3.48c.87.57 1.53 1.19 2.05 2.07l1.31-1.09c-.59-.9-1.29-1.54-2.17-2.18l1.72-1.7c2.6 1.74 4.23 5.1 4.23 8.11 0 2.81-.98 4.58-2.48 6.35l1.33 1.29c1.77-2.05 2.82-4.66 2.82-7.53 0-4.39-2.49-8.23-6.19-10.28zm-5.13 1.34c.6-.13 1.23-.27 1.85-.25.67.02 1.28.14 1.92.3l-1.82 1.86zm.89.26 1.05 1.04.98-1c-.35-.07-.71-.1-1.09-.11-.23-.01-.58.02-.94.07zm7.82-8.73.09.35.04.12.07-.04.34-.18-.09-.34-.02-.07zm.67-.63c.26.09.49-.17.37-.39l-.07-.14c.46.14.8.14 1.2-.16.32.21.61.17.91-.05.29-.22.46-.64.12-.91.26-.33.27-.69-.12-.92.07-.11.11-.2.11-.34 0-.37-.29-.52-.61-.58.19-.15.34-.27.34-.53 0-.38-.31-.54-.65-.57.09-.14.16-.23.16-.41 0-.31-.26-.56-.59-.56-.1 0-.2.03-.3.06.06-.13.11-.22.11-.36 0-.31-.26-.56-.59-.56-.16 0-.25.05-.38.12.01-.07.03-.15.03-.22a.58.58 0 0 0-.59-.57c-.18 0-.28.07-.42.16-.07-.3-.24-.54-.6-.54-.26 0-.41.14-.54.33-.14-.15-.27-.25-.49-.25-.09 0-.18.02-.26.04.05-.11.09-.2.09-.32 0-.31-.26-.56-.59-.56-.19 0-.29.07-.44.16.01-.07.03-.16.03-.24 0-.31-.26-.56-.59-.56-.19 0-.29.07-.44.17-.07-.3-.24-.54-.59-.54-.22 0-.34.09-.48.23-.12-.24-.27-.41-.57-.41-.09 0-.15.02-.23.05-.18-.2-.34-.29-.6-.35v-.6h.49v-.37h-.49V1.1h-.39v.43h-.49v.35h.49v.6c-.25.06-.41.15-.6.35a.635.635 0 0 0-.23-.05c-.3 0-.46.18-.57.41-.14-.14-.27-.23-.48-.23-.36 0-.53.25-.6.54-.14-.1-.25-.17-.43-.17-.32 0-.59.25-.59.56 0 .08.02.17.04.24-.15-.09-.26-.17-.44-.17a.57.57 0 0 0-.58.56c0 .12.04.21.09.32-.09-.02-.17-.04-.26-.04-.22 0-.35.1-.49.25-.13-.2-.28-.33-.54-.33-.36 0-.53.25-.59.54-.11-.08-.22-.15-.4-.15a.58.58 0 0 0-.59.57c0 .07.02.15.03.22a.686.686 0 0 0-.38-.12c-.32 0-.59.25-.59.56 0 .14.05.24.11.36-.09-.02-.18-.05-.29-.05-.32 0-.59.25-.59.56 0 .17.07.27.16.41-.33.03-.63.19-.63.57 0 .26.15.39.34.53-.32.07-.61.21-.61.58 0 .14.04.23.11.34-.38.24-.38.6-.12.93-.56.45.29 1.45 1.03.96.4.3.74.3 1.2.16-.06.13-.14.24-.07.38.07.15.24.21.39.14 2.25-1.02 4.76-1.59 7.41-1.59 2.66.01 5.17.58 7.42 1.6zm-14.17.63-.31-.11-.12-.04-.02.07-.09.33.34.18.07.04.03-.13zm-.2.54-.45-.24.11-.43c-.17-.02-.25-.21-.17-.34a.443.443 0 0 1-.46-.24c-.04-.08-.05-.16-.04-.24-.34.07-.7-.01-.97-.2-.79.46-1.72-.64-1.21-1.15-.23-.33-.17-.73.12-.95a.604.604 0 0 1-.07-.3c0-.29.19-.54.45-.65a.677.677 0 0 1-.18-.46c0-.33.24-.6.55-.68a.604.604 0 0 1-.07-.3c0-.39.32-.7.72-.7h.07a.707.707 0 0 1 .7-.87c.08 0 .15.01.22.03 0-.38.33-.69.72-.69.12 0 .23.03.33.08.1-.27.37-.46.68-.46.22 0 .43.1.56.26.13-.11.29-.17.48-.17h.05c-.01-.05-.02-.1-.02-.15 0-.39.32-.7.72-.7.1 0 .19.02.27.05.01-.38.33-.69.72-.69.13 0 .25.03.35.09.1-.27.37-.46.68-.46.17 0 .32.05.44.15.13-.19.35-.32.61-.32.07 0 .13.01.19.03.12-.12.26-.21.43-.28l.07-.03v-.36h-.49V1.4h.49V.97h.67v.43h.49v.62h-.49v.36l.07.03c.16.06.31.15.43.28.06-.02.12-.03.19-.03.26 0 .48.13.61.32.12-.09.28-.15.44-.15.31 0 .58.19.68.46.1-.06.22-.09.35-.09.4 0 .72.31.72.69.08-.03.17-.05.27-.05.4 0 .72.31.72.7 0 .05 0 .1-.02.15h.05a.8.8 0 0 1 .48.17c.13-.16.33-.26.56-.26.31 0 .58.19.68.46.1-.05.21-.08.33-.08.4 0 .72.31.72.69a.78.78 0 0 1 .22-.03c.4 0 .72.31.72.7 0 .06-.01.12-.02.18h.07c.4 0 .72.31.72.7 0 .11-.03.21-.07.3.32.07.55.35.55.68 0 .18-.07.34-.19.47.27.1.46.35.46.65 0 .11-.03.21-.07.3.29.22.35.62.12.95.32.32.04.83-.23 1.04-.26.2-.63.32-.99.11-.28.19-.63.27-.97.2.04.28-.22.52-.5.48.08.13 0 .32-.17.34l.11.43-.45.24c.06.07.07.17.03.26-.06.12-.2.19-.33.13-2.02-.92-4.27-1.43-6.66-1.43-2.38 0-4.63.51-6.65 1.43-.13.06-.27-.01-.33-.13.01-.11.02-.21.08-.28zm.31-.6-.14.53.04.09c-.02.01-.05.02-.08.04-.04.03-.07.07-.04.14.03.06.09.08.14.06 2.04-.93 4.31-1.44 6.71-1.44 2.41 0 4.67.51 6.71 1.44.1.05.28-.13.03-.24l.04-.09-.14-.53.48-.17.04-.07c.04.02.07.02.1.03.13.01.12-.13.06-.16a17.586 17.586 0 0 0-7.31-1.57c-2.62 0-5.09.56-7.31 1.57-.06.03-.07.17.06.16.03 0 .06-.01.1-.03l.03.07zm10.98-6.18c-.57-1.39-1.91-2.38-3.69-2.29 0 .12-.04.23-.1.33v.47c.06.1.1.21.1.33s-.04.24-.1.33v.3c1.22-.16 2.66-.04 3.79.53zm-3.8-.35a.597.597 0 0 1-.14.81c.22.07.39.23.45.51.44.1.56.42.56.76 0 .41-.17.76-.79.79.07.23.29.39.55.39.25 0 .47-.16.54-.38-.02-.06-.02-.12-.02-.18 0-.39.33-.7.73-.7s.73.31.73.7c0 .12-.03.23-.09.33.01.24.18.44.43.51.25.06.5-.04.63-.25-.59-.18-.67-.56-.56-.96.09-.33.29-.61.73-.6.08-.16.19-.26.32-.32-.04-.33-.11-.64-.23-.94-1.16-.62-2.67-.73-3.84-.56zm-1.04-1.94c0 .11.04.2.1.29v.55c-.06.09-.1.18-.1.29s.04.2.1.29v.56c-.06.09-.1.18-.1.29 0 .33.25.42.5.53.25-.11.5-.21.5-.53 0-.1-.03-.2-.09-.27l-.01-.57c.06-.09.1-.18.1-.29s-.04-.2-.1-.29v-.56c.06-.09.1-.18.1-.29 0-.04-.01-.08-.01-.13 2.35-.17 4.04 1.38 4.27 3.56-.21.08-.29.17-.38.37-.41-.02-.59.14-.69.5-.14.51.12.71.63.84-.15.33-.46.56-.86.46a.683.683 0 0 1-.53-.67.53.53 0 0 0 .09-.3.58.58 0 0 0-.59-.57.58.58 0 0 0-.59.57c0 .06.01.12.03.18-.09.3-.36.51-.69.51-.41 0-.65-.29-.71-.65.52 0 .82-.13.82-.66 0-.38-.14-.57-.54-.65-.09-.47-.34-.5-.74-.56-.41.07-.65.09-.74.56-.4.08-.54.27-.54.65 0 .53.3.66.82.66-.06.36-.3.65-.71.65a.72.72 0 0 1-.69-.51c.02-.06.03-.12.03-.18a.58.58 0 0 0-.59-.57c-.33 0-.59.25-.59.57 0 .11.03.21.09.3-.01.32-.21.59-.53.67-.4.1-.71-.13-.86-.46.51-.13.76-.33.63-.84-.1-.36-.28-.52-.69-.5-.1-.2-.17-.29-.38-.37.23-2.18 1.91-3.73 4.27-3.56-.02.05-.03.09-.03.13zm-3.89 2.42c-.11.3-.19.61-.22.94.13.06.24.16.32.32.45-.01.65.27.74.6.11.4.03.78-.56.96.13.2.38.31.63.25s.42-.27.43-.51a.63.63 0 0 1-.09-.33c0-.39.33-.7.73-.7s.73.31.73.7c0 .06-.01.12-.02.18.08.22.29.38.54.38.26 0 .47-.16.55-.39-.62-.03-.79-.38-.79-.79 0-.35.12-.66.56-.76.07-.28.24-.43.45-.51a.626.626 0 0 1-.24-.48c0-.12.04-.24.1-.33v-.1c-1.19-.16-2.7-.05-3.86.57zm3.75-2.42c-1.79-.1-3.12.9-3.7 2.29 1.12-.56 2.57-.7 3.79-.53v-.3c-.06-.1-.1-.21-.1-.33s.04-.24.1-.33v-.47a.705.705 0 0 1-.09-.33zm7.28 6.36.04-.03c.08.06.15.1.25.13.04.01.09.01.13.02.05.25.14.45.32.63l-.08.11c-.43-.18-.86-.35-1.31-.5l.02-.13c.22-.02.45-.1.63-.23zm.04.13c-.12.08-.26.14-.4.18.28.1.56.21.83.32a1.22 1.22 0 0 1-.17-.39l-.04-.01c-.08-.02-.15-.06-.22-.1zm-6.75-1.69h.14c.05.36.29.67.62.82l-.03.13c-.22-.01-.44-.01-.66-.01s-.44 0-.66.01l-.03-.13c.33-.16.57-.46.62-.82zm.07.27c-.08.21-.22.39-.41.53.14 0 .27-.01.41-.01s.27 0 .41.01a1.25 1.25 0 0 1-.41-.53zm-7.29 2.14-.08-.11c.18-.19.27-.38.32-.63.17-.02.23-.04.37-.14.21.15.42.24.68.25l.02.13c-.45.15-.88.32-1.31.5zm.19-.22c.27-.11.55-.22.83-.32-.14-.04-.28-.1-.4-.18-.06.04-.14.07-.21.09l-.04.01c-.05.14-.1.28-.18.4zm3.25-.99v.13c-.43.09-.84.19-1.26.31l-.06-.12c.27-.23.43-.58.38-.94l.13-.03c.14.34.45.58.81.65zm-.28.05c-.21-.09-.39-.23-.52-.41-.03.22-.11.43-.25.6.25-.07.51-.13.77-.19zm1.17-.09-.05-.12c.25-.16.41-.37.51-.64h.08c.08 0 .14-.02.22-.04.17.24.37.41.66.49l-.01.13c-.48.05-.95.11-1.41.18zm.56-.62c-.07.17-.18.32-.32.45.29-.04.59-.08.89-.11-.17-.09-.31-.21-.42-.36-.05.01-.1.02-.15.02zm3.95.45-.01-.13c.29-.09.49-.26.66-.49.08.02.14.04.22.04h.08c.1.27.26.48.51.64l-.05.12c-.46-.08-.93-.14-1.41-.18zm.85-.45a.59.59 0 0 1-.14-.02c-.11.15-.26.27-.43.36.3.03.6.06.89.11-.13-.12-.23-.26-.31-.42zm2.78.98-.06.12c-.41-.12-.83-.22-1.26-.31v-.13c.35-.07.66-.31.8-.64l.13.03c-.04.36.11.71.39.93zm-.27-.08c-.14-.17-.23-.38-.25-.6-.13.18-.32.32-.52.41.25.06.51.12.77.19zm.2-2.29c-.31-.08-.63.1-.71.4s.11.61.42.68c.31.08.63-.1.71-.4s-.11-.61-.42-.68zm.02-.09c.36.09.58.44.49.79s-.46.56-.82.47a.652.652 0 0 1-.49-.79c.09-.35.46-.56.82-.47zm.51-1.01c-.18 0-.32.14-.32.31s.15.31.32.31c.18 0 .32-.14.32-.31 0-.18-.14-.31-.32-.31zm0-.09c.23 0 .42.18.42.4s-.19.4-.42.4-.42-.18-.42-.4.19-.4.42-.4zm-.27-1.03c-.18 0-.32.14-.32.31s.15.31.32.31c.18 0 .32-.14.32-.31s-.14-.31-.32-.31zm0-.09c.23 0 .42.18.42.4s-.19.4-.42.4-.42-.18-.42-.4.19-.4.42-.4zm4 3.03c-.18 0-.32.14-.32.31s.14.31.32.31.32-.14.32-.31-.14-.31-.32-.31zm0-.09c.23 0 .42.18.42.4s-.19.4-.42.4-.42-.18-.42-.4.19-.4.42-.4zm-.27-1.02c-.18 0-.32.14-.32.31s.14.31.32.31.32-.14.32-.31-.14-.31-.32-.31zm0-.09c.23 0 .42.18.42.4s-.19.4-.42.4-.42-.18-.42-.4c.01-.22.19-.4.42-.4zm-.48-.89c-.18 0-.32.14-.32.31s.15.31.32.31c.18 0 .32-.14.32-.31s-.14-.31-.32-.31zm0-.09c.23 0 .42.18.42.4s-.19.4-.42.4-.42-.18-.42-.4.19-.4.42-.4zm-.77-.78c-.18 0-.32.14-.32.31s.14.31.32.31.32-.14.32-.31-.14-.31-.32-.31zm0-.09c.23 0 .42.18.42.4s-.18.4-.42.4c-.23 0-.42-.18-.42-.4.01-.22.19-.4.42-.4zm-.94-.57c-.18 0-.32.14-.32.31s.14.31.32.31.32-.14.32-.31-.14-.31-.32-.31zm0-.09c.23 0 .42.18.42.4s-.19.4-.42.4-.42-.18-.42-.4.19-.4.42-.4zm-1.02-.3c-.18 0-.32.14-.32.31s.14.31.32.31.32-.14.32-.31c.01-.17-.14-.31-.32-.31zm0-.09c.23 0 .42.18.42.4s-.19.4-.42.4-.42-.18-.42-.4c.01-.22.19-.4.42-.4zm-1.03.18c-.18 0-.32.14-.32.31s.14.31.32.31.32-.14.32-.31-.14-.31-.32-.31zm0-.09c.23 0 .42.18.42.4s-.19.4-.42.4-.42-.18-.42-.4.19-.4.42-.4zm-.76-.76c-.18 0-.32.14-.32.31s.14.31.32.31.32-.14.32-.31c.01-.17-.14-.31-.32-.31zm0-.08c.23 0 .42.18.42.4s-.19.4-.42.4-.42-.18-.42-.4c.01-.22.19-.4.42-.4zm-.99-.55c-.18 0-.32.14-.32.31s.14.31.32.31.32-.14.32-.31-.14-.31-.32-.31zm0-.09c.23 0 .42.18.42.4s-.19.4-.42.4-.42-.18-.42-.4c.01-.22.19-.4.42-.4zm-1.03-.28c-.18 0-.32.14-.32.31s.14.31.32.31.32-.14.32-.31c.01-.17-.14-.31-.32-.31zm0-.09c.23 0 .42.18.42.4s-.19.4-.42.4-.42-.18-.42-.4c.01-.22.19-.4.42-.4zm-1.05-.09c-.18 0-.32.14-.32.31s.14.31.32.31.32-.14.32-.31-.14-.31-.32-.31zm0-.09c.23 0 .42.18.42.4s-.19.4-.42.4-.41-.18-.41-.4c-.01-.22.18-.4.41-.4zm-9.99 8.3c.28-.15.38-.49.23-.76a.592.592 0 0 0-.79-.22c-.28.15-.38.49-.23.76s.51.37.79.22zm.04.08c-.33.17-.73.06-.91-.26a.633.633 0 0 1 .27-.88c.33-.17.74-.06.91.26.18.31.06.71-.27.88zm4.1-1.98c.31-.08.5-.38.42-.68s-.4-.48-.71-.4-.5.38-.42.68c.09.3.4.48.71.4zm.03.09a.674.674 0 0 1-.82-.47c-.09-.35.12-.7.49-.79.36-.09.73.12.82.47s-.13.7-.49.79zm4.79-.68c.32 0 .58-.25.58-.56a.57.57 0 0 0-.58-.56.57.57 0 0 0-.58.56c0 .31.26.56.58.56zm0 .09a.66.66 0 0 1-.67-.65c0-.36.3-.65.67-.65s.67.29.67.65c.01.36-.3.65-.67.65zm-5.63-1.06c.18 0 .32-.14.32-.31s-.14-.31-.32-.31-.32.14-.32.31c-.01.17.14.31.32.31zm0 .09c-.23 0-.41-.18-.41-.4s.19-.4.41-.4c.23 0 .42.18.42.4-.01.22-.19.4-.42.4zm.27-1.21c.18 0 .32-.14.32-.31s-.14-.31-.32-.31-.32.14-.32.31c-.01.17.14.31.32.31zm0 .09c-.23 0-.42-.18-.42-.4s.19-.4.42-.4.42.18.42.4c-.01.22-.2.4-.42.4zM6.75 9.62c.18 0 .32-.14.32-.31S6.93 9 6.75 9s-.32.14-.32.31.14.31.32.31zm0 .09c-.23 0-.42-.18-.42-.4s.19-.4.42-.4.41.18.41.4c.01.22-.18.4-.41.4zm.27-1.21c.18 0 .32-.14.32-.31a.32.32 0 0 0-.32-.31c-.18 0-.32.14-.32.31s.14.31.32.31zm0 .09c-.23 0-.42-.18-.42-.4s.19-.4.42-.4.42.18.42.4-.19.4-.42.4zm.48-1.07c.18 0 .32-.14.32-.31s-.14-.31-.32-.31-.32.14-.32.31.15.31.32.31zm0 .09c-.23 0-.42-.18-.42-.4s.19-.4.42-.4.42.18.42.4-.19.4-.42.4zm.77-.96c.18 0 .32-.14.32-.31s-.14-.31-.32-.31-.32.14-.32.31.14.31.32.31zm0 .09c-.23 0-.42-.18-.42-.4s.19-.4.42-.4.42.18.42.4-.19.4-.42.4zm.94-.75c.18 0 .32-.14.32-.31s-.14-.31-.32-.31-.32.14-.32.31.15.31.32.31zm0 .09c-.23 0-.42-.18-.42-.4s.19-.4.42-.4.42.18.42.4-.19.4-.42.4zm1.02-.47c.18 0 .32-.14.32-.31s-.14-.31-.32-.31-.32.14-.32.31.14.31.32.31zm0 .09c-.23 0-.42-.18-.42-.4s.19-.4.42-.4.42.18.42.4c-.01.22-.19.4-.42.4zm1.03-.01c.18 0 .32-.14.32-.31s-.14-.31-.32-.31-.32.14-.32.31.14.31.32.31zm0 .09c-.23 0-.42-.18-.42-.4s.19-.4.42-.4.42.18.42.4-.19.4-.42.4zm.76-.93c.18 0 .32-.14.32-.31s-.14-.31-.32-.31-.32.14-.32.31.14.31.32.31zm0 .09c-.23 0-.42-.18-.42-.4s.19-.4.42-.4.42.18.42.4-.19.4-.42.4zm.99-.73c.18 0 .32-.14.32-.31s-.14-.31-.32-.31-.32.14-.32.31.14.31.32.31zm0 .09c-.23 0-.42-.18-.42-.4s.19-.4.42-.4.42.18.42.4-.19.4-.42.4zm1.03-.46c.18 0 .32-.14.32-.31s-.14-.31-.32-.31-.32.14-.32.31.14.31.32.31zm0 .09c-.23 0-.42-.18-.42-.4s.19-.4.42-.4.42.18.42.4-.19.4-.42.4zm2.08 2.97c.18 0 .32-.14.32-.31s-.14-.31-.32-.31-.32.14-.32.31.14.31.32.31zm0 .09c-.23 0-.42-.18-.42-.4s.19-.4.42-.4.42.18.42.4-.19.4-.42.4zm0-1.22c.18 0 .32-.14.32-.31s-.14-.31-.32-.31-.32.14-.32.31.14.31.32.31zm0 .09c-.23 0-.42-.18-.42-.4s.19-.4.42-.4.42.18.42.4-.19.4-.42.4zm0-1.22c.18 0 .32-.14.32-.31s-.14-.31-.32-.31-.32.14-.32.31.14.31.32.31zm0 .08c-.23 0-.42-.18-.42-.4s.19-.4.42-.4.42.18.42.4c0 .23-.19.4-.42.4zM15.1 3.66c.18 0 .32-.14.32-.31a.32.32 0 0 0-.32-.31c-.18 0-.33.14-.33.31 0 .18.15.31.33.31zm0 .1c-.23 0-.42-.18-.42-.4s.19-.4.42-.4.42.18.42.4c-.01.22-.19.4-.42.4zm10.54 6.51a.595.595 0 0 0-.79.22c-.15.27-.05.61.23.76s.63.05.79-.22.06-.61-.23-.76zm.05-.08c.33.17.44.57.26.88a.69.69 0 0 1-.92.26.63.63 0 0 1-.26-.88.69.69 0 0 1 .92-.26zm-17.71.22c-.09-.22-.2-.39-.44-.46.16-1.93.67-2.81 2.48-3.69.16.06.15.08.15.1 0 .26.15.39.34.53-.32.07-.61.21-.61.59 0 .31.22.48.5.56-.09.17-.11.24-.09.44-.37.17-.45.4-.36.76.14.51.46.57.97.44a.71.71 0 0 1-1.28.53c0-.05-.01-.09-.02-.14-.08-.29-.4-.47-.72-.4-.31.08-.51.39-.43.69.03.1.08.18.15.25.03.29-.1.55-.36.69-.27.14-.48.08-.74-.01.43-.2.65-.39.46-.88zm.03-2.09c-.18.43-.27.93-.33 1.54.21.09.35.3.43.51.13.32.13.65-.23.9.11.01.21-.01.31-.07.2-.11.31-.31.3-.52a.76.76 0 0 1-.15-.28c-.1-.38.14-.76.52-.85.39-.1.78.13.89.5.01.04.02.08.02.12.33.39.99.19 1.02-.32-.61.12-.87-.18-.97-.58-.09-.33-.05-.67.34-.87 0-.11.01-.2.04-.28a.702.702 0 0 1-.42-.51c-.35.07-.74.17-1.06.3-.31.11-.54.27-.71.41zm2.02-1.92c-1.01.51-1.6 1.03-1.95 1.75.18-.13.38-.24.6-.32.33-.13.73-.23 1.08-.3v-.05c0-.29.19-.55.45-.65a.701.701 0 0 1-.18-.43zm13.95 4.91a.688.688 0 0 1-.36-.69c.07-.07.12-.15.15-.25a.57.57 0 0 0-.42-.69.59.59 0 0 0-.74.55c-.45.57-1.36.27-1.28-.53.51.12.83.07.97-.44.1-.36.01-.59-.35-.76.01-.2 0-.27-.09-.44.28-.08.5-.25.5-.56 0-.38-.29-.52-.61-.58.19-.15.35-.27.35-.53 0-.02 0-.05-.01-.07l.13-.04c1.8.87 2.35 1.78 2.51 3.69-.25.07-.36.24-.44.46-.19.49.03.68.46.89-.29.07-.5.13-.77-.01zm-1.51-3.7c-.05.23-.21.42-.43.51.03.08.05.18.04.28.4.2.43.54.34.87-.11.4-.36.7-.97.58.03.51.69.71 1.02.32 0-.04.01-.08.02-.12.1-.37.5-.6.88-.5.39.1.62.48.52.85-.03.1-.08.2-.15.27-.02.34.27.61.61.59-.36-.24-.36-.57-.23-.9.08-.21.21-.42.43-.51-.05-.61-.15-1.11-.33-1.54-.17-.14-.41-.3-.71-.41s-.7-.21-1.04-.29zm-.26-1.23c-.01.17-.08.33-.19.44.27.1.46.35.46.65v.05c.36.08.74.17 1.08.3.24.09.44.2.6.32-.35-.71-.94-1.23-1.95-1.76zm-2.1 6.02-1.02-.69 1.24-.13 1.02.69zm-1.92-.4c-.23 0-.41-.18-.41-.4s.19-.4.41-.4c.23 0 .42.18.42.4s-.19.4-.42.4zm0-.09c.18 0 .32-.14.32-.31s-.14-.31-.32-.31-.32.14-.32.31.15.31.32.31zm-8.14 1.04c.18 0 .32-.14.32-.31s-.14-.31-.32-.31-.32.14-.32.31.14.31.32.31zm0 .09c-.23 0-.42-.18-.42-.4s.19-.4.42-.4.42.18.42.4c-.01.22-.19.4-.42.4zm4-1.13c.18 0 .32-.14.32-.31a.32.32 0 0 0-.32-.31c-.18 0-.32.14-.32.31-.01.17.14.31.32.31zm0 .09c-.23 0-.42-.18-.42-.4s.19-.4.42-.4.42.18.42.4c-.01.22-.19.4-.42.4zm8.14.95c.18 0 .32-.14.32-.31s-.14-.31-.32-.31-.32.14-.32.31.14.31.32.31zm0 .09c-.23 0-.42-.18-.42-.4s.19-.4.42-.4.42.18.42.4-.19.4-.42.4zm-10.06-.64-1.24-.13 1.02-.69 1.24.13zm5.03-.91-1.04-.37-1.03.37 1.03.37zm.26 0-1.3.47-1.3-.47 1.3-.47z"/></svg>