<svg xmlns="http://www.w3.org/2000/svg" width="980" height="980" x="0px" y="0px" viewBox="0 0 980 980"><path fill="none" d="M-6.318-6.365H989.5v992.73H-6.32z" style="fill:#704312;fill-opacity:0"/><path d="M158 80a78 78 0 0 1-78 78A78 78 0 0 1 2 80 78 78 0 0 1 80 2a78 78 0 0 1 78 78Z" class="cls-1" style="fill:#fff" transform="scale(6.125)"/><path d="M490 24.5A465.5 465.5 0 1 1 24.5 490 465.99 465.99 0 0 1 490 24.5M490 0a490 490 0 1 0 490 490A490 490 0 0 0 490 0Z"/><path d="M490 245a245 245 0 0 0-245 245h490a245 245 0 0 0-245-245Z"/><path d="M40 80a40 40 0 0 0 80 0zM19.22 75.11v9.8h-1.95v-7.66l-2.2 1-.46-1.63 3-1.53zM28.21 75.91a3.28 3.28 0 0 1 1.06 2.48 4 4 0 0 1-.74 2.12l-2.83 4.4h-2.16l2-3.14h-.28a3.57 3.57 0 0 1-2.48-1 3.2 3.2 0 0 1-1-2.36 3.27 3.27 0 0 1 1.05-2.48 3.73 3.73 0 0 1 2.66-1 3.74 3.74 0 0 1 2.72.98zm-1.35 3.7a1.67 1.67 0 0 0 .5-1.22 1.71 1.71 0 0 0-.5-1.26 1.81 1.81 0 0 0-1.32-.49 1.77 1.77 0 0 0-1.31.49 1.7 1.7 0 0 0-.49 1.26 1.65 1.65 0 0 0 .49 1.23 1.77 1.77 0 0 0 1.31.49 1.82 1.82 0 0 0 1.32-.5zM130.5 83.69a6.86 6.86 0 0 1 0-7.36 3.56 3.56 0 0 1 3-1.41 3.52 3.52 0 0 1 3 1.41 6.86 6.86 0 0 1 0 7.36 3.53 3.53 0 0 1-3 1.42 3.57 3.57 0 0 1-3-1.42zm4.57-1.23a4.71 4.71 0 0 0 .54-2.45 4.76 4.76 0 0 0-.54-2.45 1.72 1.72 0 0 0-1.58-.89 1.75 1.75 0 0 0-1.6.89 4.66 4.66 0 0 0-.55 2.45 4.61 4.61 0 0 0 .55 2.45 1.76 1.76 0 0 0 1.6.9 1.73 1.73 0 0 0 1.58-.9zM146.46 83.17v1.74h-7.08v-1.32L143.2 80a6.31 6.31 0 0 0 .91-1 1.52 1.52 0 0 0 .29-.91A1.41 1.41 0 0 0 144 77a1.57 1.57 0 0 0-1.13-.39 1.69 1.69 0 0 0-1.16.44 2.1 2.1 0 0 0-.63 1.16l-1.73-.49a3.2 3.2 0 0 1 1.12-2 3.44 3.44 0 0 1 2.36-.83 3.78 3.78 0 0 1 2.52.81 2.79 2.79 0 0 1 1 2.26 3 3 0 0 1-.43 1.58 7.84 7.84 0 0 1-1.37 1.56l-2.2 2z" class="cls-2" style="fill:#e2001a" transform="scale(6.125)"/><path d="m210.149 641.471 19.722 29.217a30.625 30.625 0 0 1 6.125 23.03 23.642 23.642 0 0 1-10.902 15.373 23.826 23.826 0 0 1-15.19 4.716A26.399 26.399 0 0 1 196 708.724l-12.25 31.053-11.086-16.476 11.086-27.379-7.35-10.84-20.519 13.78-9.494-14.087zm-12.25 49a14.026 14.026 0 0 0 7.84 6.125 10.167 10.167 0 0 0 8.452-1.653 9.984 9.984 0 0 0 4.9-7.534 15.68 15.68 0 0 0-3.185-9.678l-9.432-14.026-18.375 12.25zM229.381 787.063a41.466 41.466 0 0 1-10.228-13.17 40.547 40.547 0 0 1-4.165-14.944 38.404 38.404 0 0 1 1.898-15.068 39.2 39.2 0 0 1 7.963-13.659 38.71 38.71 0 0 1 12.556-9.616 40.364 40.364 0 0 1 14.761-3.92 39.629 39.629 0 0 1 15.435 2.144 44.345 44.345 0 0 1 24.5 21.682 40.547 40.547 0 0 1 4.165 14.945 38.404 38.404 0 0 1-1.898 15.068 39.935 39.935 0 0 1-7.963 13.597 39.322 39.322 0 0 1-27.317 13.475 39.996 39.996 0 0 1-15.497-2.082 43.242 43.242 0 0 1-14.21-8.453zm10.535-11.638a21.805 21.805 0 0 0 8.269 4.777 21.254 21.254 0 0 0 8.943.98 24.5 24.5 0 0 0 8.575-2.695 24.929 24.929 0 0 0 7.41-5.818 26.828 26.828 0 0 0 4.9-8.208 23.765 23.765 0 0 0 1.41-8.942 22.785 22.785 0 0 0-2.144-8.882 21.376 21.376 0 0 0-5.758-7.595 22.111 22.111 0 0 0-17.211-5.757 25.786 25.786 0 0 0-8.575 2.634 26.46 26.46 0 0 0-7.473 6.125 26.031 26.031 0 0 0-4.9 8.146 22.908 22.908 0 0 0 .674 17.824 21.438 21.438 0 0 0 5.88 7.411zM329.831 781.366l-20.825-10.78 7.167-13.904 56.778 29.4-7.166 13.904-20.825-10.78-28.297 54.635-15.13-7.84zM398.431 809.664l-22.724-6.125 3.92-15.129 61.924 15.986-3.92 15.129-22.724-6.125-15.373 59.596-16.476-4.226zM451.351 805.56l58.065 1.96-.551 15.068-41.282-1.41-.552 15.68 36.383 1.226-.551 15.067-36.322-1.225-.551 16.231 41.834 1.41-.49 15.067-58.616-1.96zM523.626 806.418l34.606-7.105a30.625 30.625 0 0 1 23.643 3.062 23.949 23.949 0 0 1 9.984 15.986 24.5 24.5 0 0 1-1.409 15.864 26.521 26.521 0 0 1-9.984 11.025l23.949 23.275-19.416 3.92-21.193-20.886-12.862 2.633 4.961 24.194L539 882Zm40.976 29.89a14.21 14.21 0 0 0 8.882-4.84 10.106 10.106 0 0 0 1.715-8.452 9.923 9.923 0 0 0-5.084-7.411 16.17 16.17 0 0 0-10.167-.735l-16.538 3.369 4.41 21.743zM598.474 789.513l27.011-13.17a44.345 44.345 0 0 1 16.231-4.654 39.568 39.568 0 0 1 15.252 1.531 36.75 36.75 0 0 1 12.923 7.228 39.874 39.874 0 0 1 9.31 12.25 38.771 38.771 0 0 1 3.982 14.945 35.219 35.219 0 0 1-2.205 14.7 39.629 39.629 0 0 1-8.085 13.046 46.611 46.611 0 0 1-13.598 9.984l-27.072 13.168zm54.206 42.385a26.766 26.766 0 0 0 7.779-5.635 20.825 20.825 0 0 0 4.532-7.534 23.397 23.397 0 0 0 1.041-8.575 24.5 24.5 0 0 0-2.572-9.188 24.867 24.867 0 0 0-5.635-7.656 22.234 22.234 0 0 0-7.473-4.594 22.846 22.846 0 0 0-8.697-1.102 26.705 26.705 0 0 0-9.31 2.633l-11.76 5.82 20.396 41.772zM688.021 736.531l12.25-10.106 75.399 38.036-13.536 11.454-16.538-8.636-24.928 21.07 5.757 17.762-13.169 11.148zm42.875 23.214-24.01-12.25 8.33 25.725zM730.039 700.087l10.351-15.128 38.404 1.654-15.558-35.158 10.29-15.129 63.761 43.549-9.432 13.842-41.589-28.42 14.945 36.75v.368l-39.077-.674 41.343 28.236-9.432 13.843zM138.67 300.125l35.035-54.206 14.087 9.126-24.928 38.587 14.761 9.372 21.928-33.994 14.087 9.126-22.05 34.239 15.129 9.8 25.235-39.078 14.087 9.066-35.341 54.45zM242.979 233.424l-49.551-12.25 16.353-14.823 32.034 8.575-5.206-32.769 15.863-14.393 6.86 50.286 51.573 12.25-16.354 14.822-33.994-8.88 5.39 34.79-15.863 14.393zM352.004 211.251a45.203 45.203 0 0 1-17.089 5.023 43.304 43.304 0 0 1-16.415-1.899 42.875 42.875 0 0 1-14.639-8.269 45.754 45.754 0 0 1-10.841-13.842 44.468 44.468 0 0 1-5.145-16.966 45.203 45.203 0 0 1 1.654-16.783 42.875 42.875 0 0 1 8.146-14.945 46.611 46.611 0 0 1 14.455-11.454 59.902 59.902 0 0 1 10.229-4.165 49 49 0 0 1 9.249-1.715 39.384 39.384 0 0 1 8.513 0 50.838 50.838 0 0 1 8.146 1.899l-4.287 17.762a47.653 47.653 0 0 0-12.25-1.592 25.664 25.664 0 0 0-11.576 3.124 24.01 24.01 0 0 0-7.902 6.431 22.846 22.846 0 0 0-4.348 8.697 26.95 26.95 0 0 0-.674 9.923 28.971 28.971 0 0 0 3.124 10.045 29.155 29.155 0 0 0 6.125 8.391 26.766 26.766 0 0 0 8.452 5.268 23.03 23.03 0 0 0 9.616 1.592 23.336 23.336 0 0 0 9.984-2.756 26.828 26.828 0 0 0 9.8-8.085 50.348 50.348 0 0 0 5.574-11.209l16.231 5.268a62.291 62.291 0 0 1-3.124 8.82 40.976 40.976 0 0 1-4.716 7.84 40.547 40.547 0 0 1-6.921 7.472 53.594 53.594 0 0 1-9.371 6.125zM374.176 107.739l63.026-13.843L441 110.25l-44.896 9.861 3.736 16.966 39.322-8.452 3.614 16.415-39.506 8.697 3.859 17.58 45.447-9.985 3.614 16.293-63.639 13.904zM473.585 91.263l18.865.612-1.899 68.6 42.875 1.225-.551 16.966-61.25-1.654ZM574.709 190.488a55.615 55.615 0 0 1-17.334-8.392 49 49 0 0 1-13.781-14.516l13.781-9.923a53.41 53.41 0 0 0 9.616 10.535 31.789 31.789 0 0 0 12.25 6.125 16.047 16.047 0 0 0 9.372.368 6.738 6.738 0 0 0 4.716-4.839 7.656 7.656 0 0 0 0-3.307 7.166 7.166 0 0 0-1.776-3.246 28.42 28.42 0 0 0-4.472-3.737 79.625 79.625 0 0 0-7.779-4.839 105.963 105.963 0 0 1-9.677-6.615 32.462 32.462 0 0 1-7.595-7.227 20.029 20.029 0 0 1-3.614-8.452 25.174 25.174 0 0 1 .919-10.78 25.051 25.051 0 0 1 4.9-9.617 24.5 24.5 0 0 1 8.146-6.125 28.665 28.665 0 0 1 10.474-2.572 39.261 39.261 0 0 1 12.25 1.47 49.674 49.674 0 0 1 27.746 18.987l-13.168 10.964a66.089 66.089 0 0 0-9.433-9.004 28.481 28.481 0 0 0-10.045-5.145 13.475 13.475 0 0 0-8.514 0 6.799 6.799 0 0 0-4.103 4.41 7.595 7.595 0 0 0 0 3.675 6.921 6.921 0 0 0 2.082 3.43 30.258 30.258 0 0 0 4.839 3.798l8.146 4.9a85.75 85.75 0 0 1 10.168 6.799 33.197 33.197 0 0 1 6.92 7.227 20.09 20.09 0 0 1 3.247 8.208 24.133 24.133 0 0 1-.857 9.8 26.399 26.399 0 0 1-5.39 10.902 22.908 22.908 0 0 1-8.453 6.125 28.175 28.175 0 0 1-10.902 2.327 42.875 42.875 0 0 1-12.68-1.714ZM658.254 128.931l16.905 8.391L637 214.376l-16.905-8.391ZM686 248.797a47.407 47.407 0 0 1-12.25-14.21 46.672 46.672 0 0 1-5.206-16.415 42.263 42.263 0 0 1 1.531-16.782 44.774 44.774 0 0 1 8.269-15.496 42.875 42.875 0 0 1 13.536-11.148 45.019 45.019 0 0 1 16.231-4.961 44.039 44.039 0 0 1 17.273 1.776 49.306 49.306 0 0 1 28.297 23.091 45.447 45.447 0 0 1 5.207 16.415 42.875 42.875 0 0 1-9.8 32.218 42.875 42.875 0 0 1-13.537 11.209 44.1 44.1 0 0 1-33.503 3.185A47.346 47.346 0 0 1 686 248.798zm11.209-13.29a26.644 26.644 0 0 0 9.371 4.96 23.826 23.826 0 0 0 9.923.674 28.114 28.114 0 0 0 17.517-10.106 29.4 29.4 0 0 0 5.145-9.249 27.317 27.317 0 0 0 1.225-10.106 25.909 25.909 0 0 0-9.432-17.946 25.725 25.725 0 0 0-9.433-5.023 23.704 23.704 0 0 0-9.922-.612 26.582 26.582 0 0 0-9.433 3.246 27.501 27.501 0 0 0-8.024 6.86 27.501 27.501 0 0 0-5.083 9.249 24.5 24.5 0 0 0-1.225 10.045 25.602 25.602 0 0 0 2.633 9.677 24.929 24.929 0 0 0 6.922 8.33zM799.925 237.834l22.111 32.34a34.116 34.116 0 0 1 6.922 25.541 26.46 26.46 0 0 1-12.25 17.15 27.195 27.195 0 0 1-16.905 5.39 29.768 29.768 0 0 1-15.435-5.574l-13.475 34.545-12.25-18.375 12.25-30.625-8.27-12.25-22.662 15.435-11.086-15.251zm-12.985 55.125a15.619 15.619 0 0 0 8.759 6.982 11.331 11.331 0 0 0 9.432-1.898 10.964 10.964 0 0 0 5.39-8.392 17.334 17.334 0 0 0-3.614-10.719l-10.657-15.925-20.335 13.843z"/></svg>