<svg xmlns="http://www.w3.org/2000/svg" xml:space="preserve" width="428.13498" height="428.13632" viewBox="0 0 428.13496 428.13632"><defs><clipPath id="a" clipPathUnits="userSpaceOnUse"><path d="M0 600h800V0H0Z"/></clipPath></defs><g clip-path="url(#a)" transform="matrix(1.33333 0 0 -1.33333 -319.266 614.068)"><path d="M0 0c-.106 88.676 71.678 160.644 160.357 160.751 88.671.107 160.637-71.685 160.744-160.36.107-88.666-71.683-160.636-160.353-160.742C72.068-160.46.109-88.669 0 0" style="fill:#b6a05d;fill-opacity:1;fill-rule:nonzero;stroke:none" transform="translate(239.45 299.8)"/><path d="M0 0c.102 84.928-68.649 153.854-153.58 153.956-84.923.104-153.847-68.654-153.95-153.582-.103-84.918 68.653-153.846 153.576-153.947C-69.023-153.678-.105-84.921 0 0" style="fill:#000;fill-opacity:1;fill-rule:nonzero;stroke:none" transform="translate(553.766 299.809)"/><path d="M0 0c-.073 61.196 49.466 110.862 110.665 110.937 61.193.074 110.858-49.471 110.932-110.667.074-61.191-49.469-110.858-110.662-110.931C49.735-110.736.075-61.192 0 0" style="fill:#b6a05d;fill-opacity:1;fill-rule:nonzero;stroke:none" transform="translate(289.202 299.862)"/><path d="M0 0c.071-57.808 46.797-104.651 104.522-104.961l.021 210.185C46.691 104.922-.069 57.904 0 0" style="fill:#dd2335;fill-opacity:1;fill-rule:nonzero;stroke:none" transform="translate(294.9 299.87)"/><path d="M0 0c-.07 57.813-46.801 104.657-104.522 104.967l-.02-210.185C-46.695-104.918.07-57.899 0 0" style="fill:#fff;fill-opacity:1;fill-rule:nonzero;stroke:none" transform="translate(505.1 300.125)"/><path d="m0 0-4.76 5.093 5.775 5.403L5.9 5.269c.908-.99 1.469-1.829 1.67-2.544.362-1.296-.115-2.533-1.416-3.752-1.226-1.12-2.437-1.433-3.674-.92C1.771-1.652.941-1.006 0 0m3.023-10.106c.36 1.109.279 2.335-.252 3.699 1.541-.8 3.018-1.01 4.467-.603 1.488.402 2.727 1.095 3.75 2.048.846.816 1.467 1.648 1.873 2.525.412.899.672 1.83.776 2.793a7.354 7.354 0 0 1-.428 3.481c-.414 1.143-1.322 2.46-2.697 3.99L.647 18.38-20.857-1.732l4.101-4.388 8.434 7.888 4.338-4.643c1.242-1.353 1.852-2.451 1.841-3.34-.007-.931-.676-2.028-2.039-3.325l-1.97-1.9a15.576 15.576 0 0 1-1.678-1.921c-.236-.36-.533-.798-.871-1.366l4.621-4.946.537.504c-.146.682.015 1.325.459 1.961.291.43.92 1.073 1.889 1.98l1.444 1.352c1.513 1.433 2.435 2.684 2.774 3.77" style="fill:#b6a05d;fill-opacity:1;fill-rule:nonzero;stroke:none" transform="translate(497.014 391.466)"/><path d="M0 0c-1.654-2.868-3.559-4.725-5.697-5.563-2.139-.845-4.255-.67-6.364.552-2.128 1.223-3.359 2.968-3.71 5.246-.369 2.284.29 4.86 1.941 7.733 1.672 2.863 3.566 4.719 5.705 5.56 2.169.828 4.3.646 6.404-.577 2.119-1.239 3.335-2.973 3.67-5.242C2.287 5.417 1.645 2.863 0 0m7.529 9.685c-.788 3.106-3.011 5.696-6.644 7.785-3.661 2.092-7.015 2.71-10.075 1.838-3.952-.851-7.249-3.617-9.942-8.288-2.632-4.622-3.366-8.851-2.184-12.764.792-3.103 3.019-5.695 6.654-7.791C-11-11.62-7.646-12.232-4.593-11.366c4.004.973 7.295 3.726 9.925 8.296C8.016 1.634 8.75 5.87 7.529 9.685" style="fill:#b6a05d;fill-opacity:1;fill-rule:nonzero;stroke:none" transform="translate(471.674 410.723)"/><path d="M0 0c-.982-1.58-2.815-3.031-5.494-4.393-1.959-.982-3.75-1.564-5.419-1.725-3.091-.275-5.271.87-6.589 3.455l-2.581 5.055 17.11 8.745 2.58-5.054C.873 3.572 1.006 1.551 0 0m6.137 3.143c-.178 1.274-.688 2.72-1.498 4.339L-1.135 18.78l-26.22-13.404 5.777-11.29c2.053-3.972 5.151-6.064 9.38-6.281 3.135-.173 6.445.637 9.93 2.421a25.097 25.097 0 0 1 4.084 2.718 13.157 13.157 0 0 1 3.28 4.033C6.121-1.044 6.465.996 6.137 3.143" style="fill:#b6a05d;fill-opacity:1;fill-rule:nonzero;stroke:none" transform="translate(525.123 360.335)"/><path d="M0 0c-.74-3.24-2.013-5.562-3.818-6.992-1.806-1.432-3.876-1.884-6.246-1.339-2.406.549-4.092 1.865-5.088 3.936-1.019 2.078-1.145 4.73-.402 7.965.757 3.227 2.037 5.554 3.838 6.99 1.819 1.421 3.914 1.861 6.287 1.325 2.391-.57 4.057-1.88 5.041-3.948C.605 5.844.732 3.211 0 0m-4.261 16.962c-4.119.925-7.507.534-10.17-1.191-3.533-1.978-5.88-5.58-7.082-10.833-1.168-5.185-.632-9.454 1.639-12.841 1.672-2.735 4.547-4.567 8.643-5.506 4.107-.924 7.5-.532 10.166 1.187 3.538 2.096 5.877 5.705 7.056 10.84 1.197 5.28.655 9.548-1.617 12.839-1.67 2.735-4.549 4.569-8.635 5.505" style="fill:#b6a05d;fill-opacity:1;fill-rule:nonzero;stroke:none" transform="translate(435.76 426.944)"/><path d="m0 0-4.557 2.314-5.852-11.521-6.042 3.068 6.687 13.158-4.61 2.344-9.458-18.611 26.22-13.314 2.762 5.446-11.003 5.597z" style="fill:#b6a05d;fill-opacity:1;fill-rule:nonzero;stroke:none" transform="translate(289.131 367.274)"/><path d="m0 0 1.46-20.5L-11.703-.829l-6.435-.46 2.094-29.369 5.716.404-1.485 20.86 13.478-20 6.139.432L5.716.406z" style="fill:#b6a05d;fill-opacity:1;fill-rule:nonzero;stroke:none" transform="translate(395.417 446.406)"/><path d="m0 0-5.632-4.104 2.815-13.811-12.488 6.762-5.861-4.266 19.057-8.854 6.514-8.949 4.974 3.62-6.518 8.949z" style="fill:#b6a05d;fill-opacity:1;fill-rule:nonzero;stroke:none" transform="translate(326.981 427.893)"/><path d="m0 0-5.722 4.962 9.377 10.802-3.865 3.347-9.372-10.798-4.725 4.092L-4.1 24.177l-3.934 3.414-14.153-16.311L.058-8.014l14.619 16.86-4 3.466z" style="fill:#b6a05d;fill-opacity:1;fill-rule:nonzero;stroke:none" transform="translate(304.96 376.972)"/><path d="m0 0-2.47 7.157 13.517 4.673-1.668 4.829-13.519-4.675-2.04 5.914 14.725 5.091-1.706 4.928-20.405-7.055 9.617-27.827L17.14.324 15.414 5.33Z" style="fill:#b6a05d;fill-opacity:1;fill-rule:nonzero;stroke:none" transform="translate(354.154 413.525)"/><path d="M0 0a7.375 7.375 0 0 0-.601-3.458 9.115 9.115 0 0 0-1.558-2.444c-.657-.72-1.485-1.328-2.533-1.864-1.254-.612-2.644-.919-4.187-.871-1.509.039-2.857.668-4.099 1.892.116-1.456-.168-2.664-.835-3.613-.652-.943-1.891-1.863-3.747-2.794l-1.778-.866c-1.201-.588-1.998-1.02-2.392-1.347-.607-.479-.953-1.052-1.012-1.741l-.663-.323-2.977 6.077c.493.448.909.783 1.241 1.051.661.509 1.381.95 2.164 1.352l2.438 1.238c1.683.839 2.644 1.694 2.922 2.588.273.84.005 2.065-.783 3.726l-2.793 5.709-10.366-5.079-2.642 5.398L-7.757 17.58l6.351-12.976C-.541 2.737-.063 1.215 0 0m-9.71 9.925-7.104-3.473 3.067-6.261c.608-1.245 1.2-2.098 1.795-2.589 1.046-.846 2.289-.909 3.791-.19 1.592.778 2.419 1.821 2.449 3.17.013.748-.278 1.711-.854 2.92z" style="fill:#b6a05d;fill-opacity:1;fill-rule:nonzero;stroke:none" transform="translate(298.75 239.926)"/><path d="M0 0c-3.176.068-6.206 1.638-9.099 4.7-2.866 3.068-4.228 6.196-4.076 9.393.016 4.089 1.95 7.92 5.821 11.559 3.938 3.69 7.894 5.366 11.926 5.034 3.175-.066 6.201-1.638 9.099-4.712 2.861-3.059 4.224-6.184 4.076-9.386.044-4.002-1.892-7.838-5.83-11.544C8.063 1.441 4.107-.239 0 0m.641 5.871c2.296.182 4.651 1.4 7.077 3.662 2.407 2.247 3.768 4.507 4.115 6.801.345 2.265-.312 4.277-1.97 6.097-1.667 1.773-3.652 2.579-5.955 2.408-2.292-.173-4.653-1.391-7.091-3.645-2.425-2.259-3.8-4.535-4.12-6.828-.328-2.278.333-4.312 2.009-6.107C-3.625 6.484-1.659 5.696.641 5.871" style="fill:#b6a05d;fill-opacity:1;fill-rule:nonzero;stroke:none" transform="translate(301.582 195.28)"/><path d="m0 0-2.836-4.372L-10.23.407l-13.176-20.333-5.193 3.364 13.176 20.334-7.431 4.815 2.833 4.374z" style="fill:#b6a05d;fill-opacity:1;fill-rule:nonzero;stroke:none" transform="translate(347.895 194.876)"/><path d="m0 0-1.602-4.965-8.38 2.713-7.463-23.051-5.894 1.907 7.464 23.055-8.416 2.723 1.599 4.962z" style="fill:#b6a05d;fill-opacity:1;fill-rule:nonzero;stroke:none" transform="translate(376.791 184.963)"/><path d="m0 0-15.577.521-.206-6.254 14.293-.481-.17-5.106-14.302.48-.245-7.568L.08-18.955l-.18-5.294-22.299.759.994 29.42L.173 5.199z" style="fill:#b6a05d;fill-opacity:1;fill-rule:nonzero;stroke:none" transform="translate(405.541 177.98)"/><path d="M0 0a7.17 7.17 0 0 0 3.222-1.365 8.864 8.864 0 0 0 2.044-2.06c.551-.796.958-1.746 1.244-2.895.311-1.355.3-2.779-.098-4.266-.382-1.463-1.295-2.64-2.76-3.574 1.445-.22 2.552-.76 3.337-1.627.768-.847 1.38-2.259 1.87-4.277l.439-1.932c.306-1.301.553-2.164.785-2.628.33-.702.803-1.165 1.467-1.377l.162-.719-6.592-1.533c-.314.584-.551 1.065-.74 1.441a13.854 13.854 0 0 0-.827 2.421l-.661 2.656c-.45 1.831-1.057 2.952-1.864 3.419-.756.462-2.021.476-3.804.078l-6.194-1.439 2.612-11.247-5.86-1.354-6.66 28.679 14.07 3.268C-2.787.097-1.196.212 0 0m-11.856-7.218 1.785-7.71 6.787 1.58c1.346.308 2.326.7 2.929 1.172 1.063.814 1.393 2.024 1.04 3.649C.284-6.8-.556-5.763-1.857-5.428c-.718.18-1.728.113-3.039-.175z" style="fill:#b6a05d;fill-opacity:1;fill-rule:nonzero;stroke:none" transform="translate(434.116 187.474)"/><path d="M0 0c2.122.44 4.179.203 6.21-.722a13.04 13.04 0 0 0 4.197-3.06 25.173 25.173 0 0 0 2.926-3.94c1.963-3.389 2.947-6.644 2.947-9.783-.005-4.23-1.922-7.451-5.787-9.702l-10.98-6.361-14.749 25.482 10.976 6.36C-2.683-.835-1.267-.253 0 0m-7.502-9.516L2.12-26.144l4.912 2.839c2.512 1.45 3.535 3.688 3.1 6.763-.238 1.654-.916 3.412-1.998 5.33-1.5 2.587-3.05 4.35-4.682 5.247-1.599.928-3.605.689-6.051-.708z" style="fill:#b6a05d;fill-opacity:1;fill-rule:nonzero;stroke:none" transform="translate(462.38 200.691)"/><path d="m0 0 4.737 5.095L33.398-7.324l-4.541-4.887-5.722 2.732-7.393-7.938 3.041-5.615-4.377-4.717zm13.151-12.755 5.093 5.472-10.98 5.204z" style="fill:#b6a05d;fill-opacity:1;fill-rule:nonzero;stroke:none" transform="translate(480.63 215.602)"/><path d="m0 0 4.14 7.821L30.156-5.972l-2.683-5.065L9.14-1.276c-.492.267 15.469-14.827 15.469-14.827l-2.746-5.475S.043-16.991.565-17.235l18.507-9.803-2.676-5.071-26.019 13.79 4.189 7.913 22.489-5.162z" style="fill:#b6a05d;fill-opacity:1;fill-rule:nonzero;stroke:none" transform="translate(505.684 250.206)"/><path d="M0 0c-.006 4.021 3.252 7.278 7.271 7.283A7.267 7.267 0 0 0 14.549.019c.006-4.015-3.246-7.28-7.26-7.284A7.277 7.277 0 0 0 0 0" style="fill:#b6a05d;fill-opacity:1;fill-rule:nonzero;stroke:none" transform="translate(525.008 300.148)"/><path d="M0 0a7.275 7.275 0 0 1-7.271 7.283A7.266 7.266 0 0 1-14.549.019c-.006-4.015 3.246-7.28 7.259-7.284A7.277 7.277 0 0 1 0 0" style="fill:#b6a05d;fill-opacity:1;fill-rule:nonzero;stroke:none" transform="translate(274.993 300.148)"/><path d="M0 0c.02-.664.052-1.855.104-3.89.234-8.921-6.771-11.614-9.548-12.015l-.001-8.464C2.54-23.83 6.044-42.645 7.52-48.27l8.184.22L6.849.008z" style="fill:#b6a05d;fill-opacity:1;fill-rule:nonzero;stroke:none" transform="translate(410.013 323.878)"/><path d="m0 0-61.625-.812.007-7.477 7.421.009c.721-.026 8.215-.554 8.227-11.515.013-11.451.001-107.588.001-107.588.011-8.181-6.9-8.712-9.56-8.715-7.162-.007-5.525-.007-5.525-.007l.012-7.947h53.18l-.011 8.015-6.752-.008c-.048.004-9.611.729-9.619 8.839-.01 10.028-.065 54.857-.065 54.857H-.008l.001 8.43h-24.184l-.069 55.676 24.259.027z" style="fill:#b6a05d;fill-opacity:1;fill-rule:nonzero;stroke:none" transform="translate(399.441 371.823)"/><path d="m0 0-.001-8.166c1.775.046 6.505.154 11.627.161 12.076.014 19.033-4.339 24.561-8.627 8.291-6.434 10.05-18.805 10.05-18.805l8.18.012L49.873.568z" style="fill:#b6a05d;fill-opacity:1;fill-rule:nonzero;stroke:none" transform="translate(400.575 371.836)"/></g></svg>