<svg xmlns="http://www.w3.org/2000/svg" xml:space="preserve" width="286.363494199" height="349.20652257" x="0px" y="0px" version="1.0" viewBox="0 0 432.409 527.302"><path fill="#FFF" fill-rule="evenodd" d="M432.409 2.996C271.44-14.888 0 42.976 0 294.151c0 192.533 133.614 232.781 224.096 232.781 83.112 0 194.634-84.164 194.634-226.195 0-126.25-50.499-137.822 13.679-297.741z" clip-rule="evenodd"/><path fill="#B1B3B4" fill-rule="evenodd" d="M267.315 379.253c-43.746 31.576-93.004 19.143-119.209-10.23-27.177-30.463-22.641-90.914-20.962-106.386-12.393 17.077-19.715 38.054-19.715 60.724 0 57.176 46.521 103.699 103.701 103.699 27.592 0 52.676-10.857 71.276-28.488l-15.091-19.319z" clip-rule="evenodd"/><path fill="#FFE500" fill-rule="evenodd" d="M320.064 216.731a24.146 24.146 0 0 1-9.492-.463 2.697 2.697 0 0 1-.434-.155c-.211.158-.425.315-.636.469.012.034.026.063.035.097.056.224 2.183 8.18 9.076 19.6h12.185a15.62 15.62 0 0 1 2.561-6.252l-13.295-13.296zM343.516 266.22v-11.783a15.65 15.65 0 0 1-6.182-2.55l-4.049 4.052a145.55 145.55 0 0 0 10.231 10.281zM399.971 144.633v.003c-12.422-3.595-25.034-6.393-37.717-8.449-.287.672-.577 1.348-.864 2.024 1.515 2.367 2.821 4.204 3.782 5.165.853.85 1.834 2.342 1.834 4.696 0 1.844-.604 4.216-2.35 7.219l-.82 1.276c-.741 1.997-6.164 16.66-9.703 25.958 27.747 3.835 49.122 27.623 49.122 56.424 0 21.189-11.578 39.656-28.74 49.482 12.334 6.943 26.912 13.348 44.127 18.592h.012c.05-2.086.076-4.178.076-6.287 0-73.654-17.18-108.283-18.759-156.103zM333.42 247.99a15.641 15.641 0 0 1-2.599-6.188h-8.663a130.82 130.82 0 0 0 7.5 9.951l3.762-3.763zM343.516 201.523c-4.365 5.232-10.301 10.696-17.326 13.523l11.063 11.064a15.624 15.624 0 0 1 6.264-2.613v-21.974h-.001z" clip-rule="evenodd"/><path fill="#FFE500" fill-rule="evenodd" d="M349.036 223.499c2.303.41 4.43 1.315 6.267 2.61l20.288-20.287c-7.169-6.35-16.4-10.414-26.555-11.043v28.72zM375.494 272.161l-20.276-20.275a15.62 15.62 0 0 1-6.182 2.549v16.572a167.158 167.158 0 0 0 12.554 9.416c5.144-1.904 9.858-4.699 13.904-8.262zM245.251 143.725a52.815 52.815 0 0 1-.457-.773c-9.387 11.766-45.513 57.037-46.604 58.403.051 1.323.123 3.63.123 6.253 0 2.647-.076 5.146-.319 7.343 4.311-.52 8.687-.819 13.135-.819 4.641 0 9.204.325 13.693.891v.004c6.601-38.075 19.155-68.3 20.429-71.302zM359.134 247.993l20.271 20.266c6.331-7.144 10.383-16.343 11.03-26.457h-28.702a15.61 15.61 0 0 1-2.599 6.191zM379.487 209.734l-20.291 20.291a15.647 15.647 0 0 1 2.561 6.253h28.696c-.61-10.141-4.647-19.368-10.966-26.544z" clip-rule="evenodd"/><path fill="#FFF" fill-rule="evenodd" d="M344.987 54.334c.771-.012 1.544-.029 2.317-.04-.161-.256-.334-.507-.478-.771-.606.281-1.218.549-1.839.811z" clip-rule="evenodd"/><path fill="#00684C" fill-rule="evenodd" d="m376.414 101.026-2.396 6.089c-2.789 7.14-6.935 17.733-11.763 29.071 12.683 2.057 25.295 4.854 37.717 8.449-.729-22.09 1.884-47.013 11.051-79.881-1.254-1.283-2.725-2.373-4.313-3.103-2.619-1.204-4.066-.902-6.703-.354l-3.366.601c-4.289.56-7.579.123-11.385-.381l-.853-.111c-4.058-.536-4.058-.536-6.58 1.786l-1.339 1.229c-6.19 5.602-13.84 10.917-23.654 7.872a15.282 15.282 0 0 1-3.601-1.655 8.644 8.644 0 0 1-2.317 1.513c-1.983.907-3.943 1.485-6.173 1.818-2.707.406-5.063.422-7.307.117-2.288 1.869-9.697 6.262-24.63.958l-.334 5.452c5.13 2.817 21.565 11.953 27.041 16.333.967.775 2.083 2.052 3.346 3.763 15.167-18.678 32.66-34.216 55.289-31.715a2.756 2.756 0 0 1 2.317 1.882 2.754 2.754 0 0 1-.75 2.892c-.131.123-13.283 12.377-19.297 27.375zM210.371 147.069a127780.96 127780.96 0 0 1 27.226-44.039c.662-.942 16.447-23.007 30.835-17.254.457.185.861.489 1.163.882l.782 1.022c4.151-2.509 9.516-7.244 13.315-10.802l-4.078.18a2.763 2.763 0 0 1-2.76-1.939c-.167-.536-2.238-7.358-2.736-15.806C144.457 76.165 26.616 138.465 26.616 297.802c0 40.67 7.79 75.217 20.899 104.443l31.465-20.777c-8.556-18.568-13.462-40.148-13.462-64.617 0-83.214 62.395-143.259 144.853-169.782zM409.015 56.634a19.444 19.444 0 0 1 3.691 2.253c0 .003 0 .006-.006.009.255-.851.486-1.682.744-2.543a780.064 780.064 0 0 0-6.278-.431 15.81 15.81 0 0 1 1.849.712zM365.662 54.291a733.9 733.9 0 0 0-10.708-.051 11.405 11.405 0 0 0 3.639 1.471c1.359.286 4.57.638 7.069-1.42z" clip-rule="evenodd"/><path fill="#00684C" fill-rule="evenodd" d="M346.792 60.302c2.25 3.023 4.192 5.635 7.676 6.715 6.744 2.095 12.199-1.16 18.308-6.691l1.307-1.195c4.09-3.771 4.916-4.009 11.048-3.201l.85.114c3.703.489 6.378.844 9.946.379l2.959-.533c.63-.13 1.248-.253 1.878-.359a778.242 778.242 0 0 0-29.815-1.153c.428.97.281 2.145-.48 2.979-3.108 3.416-7.972 4.821-13.014 3.756-4.333-.916-8.045-3.485-10.148-6.819-.773.01-1.547.028-2.317.04-.8.34-1.614.665-2.44.955 1.669 1.561 2.999 3.342 4.242 5.013z" clip-rule="evenodd"/><path fill="#FFE500" fill-rule="evenodd" d="M302.837 423.075c-6.287-6.744-17.098-20.021-17.033-20.121-19.547 18.352-45.812 29.625-74.675 29.625-60.226 0-109.223-48.996-109.223-109.219 0-38.977 20.533-73.226 51.334-92.561.073-.23.17-.456.308-.667.729-1.119 18.227-26.739 28.365-37.022l28.458-46.042C127.913 173.59 65.518 233.636 65.518 316.849c0 95.408 74.41 146.959 150.16 146.959 21.997.002 64.114-11.465 87.159-40.733z" clip-rule="evenodd"/><path fill-rule="evenodd" d="M403.255 238.95c0-28.802-21.375-52.589-49.122-56.424 3.539-9.299 8.962-23.962 9.703-25.958l.82-1.276c1.746-3.003 2.35-5.375 2.35-7.219 0-2.354-.981-3.847-1.834-4.696-.961-.961-2.268-2.798-3.782-5.165 5.194-12.092 9.671-23.533 12.627-31.096l2.396-6.089c6.015-14.999 19.166-27.252 19.298-27.375a2.754 2.754 0 0 0 .75-2.892 2.755 2.755 0 0 0-2.317-1.882c-22.629-2.5-40.122 13.037-55.289 31.715-1.263-1.711-2.379-2.988-3.346-3.763-5.476-4.38-21.911-13.516-27.041-16.333l.334-5.452c14.933 5.304 22.342.911 24.63-.958 2.244.305 4.6.289 7.307-.117 2.229-.333 4.189-.911 6.173-1.818a8.669 8.669 0 0 0 2.317-1.513 15.264 15.264 0 0 0 3.601 1.655c9.814 3.045 17.464-2.271 23.654-7.872l1.339-1.229c2.522-2.322 2.522-2.322 6.58-1.786l.853.111c3.806.504 7.096.94 11.385.381l3.366-.601c2.637-.548 4.084-.85 6.703.354 1.588.729 3.059 1.819 4.313 3.103a418.04 418.04 0 0 1 1.685-5.868 19.476 19.476 0 0 0-3.691-2.253c-4.269-1.963-7.116-1.371-10.131-.744l-2.959.533c-3.568.464-6.243.11-9.946-.379l-.85-.114c-6.132-.809-6.958-.57-11.048 3.201l-1.307 1.195c-6.108 5.531-11.563 8.786-18.308 6.691-3.483-1.08-5.426-3.691-7.676-6.715-1.242-1.671-2.572-3.453-4.245-5.013 1.468-.514 2.892-1.125 4.28-1.765 1.992 3.713 5.959 6.605 10.626 7.589 5.042 1.065 9.905-.34 13.014-3.756a2.76 2.76 0 1 0-4.084-3.716c-2.558 2.811-6.299 2.383-7.79 2.068-2.941-.621-5.487-2.379-6.759-4.55 1.559-.718 3.144-1.399 4.749-1.929 4.576-1.512 7.444-.784 11.792.316l2.971.725c7.585 1.734 10.09-.224 13.778-4.228 10.459.47 20.786 1.15 30.905 2.021 4.359-13.642 9.75-28.553 16.38-45.07C271.44-14.888 0 42.976 0 294.151c0 51.059 9.406 91.389 24.901 123.111l15.883-10.447c-14.323-30.217-22.898-66.328-22.898-109.236 0-166.248 123.308-230.912 256.443-247.595-1.409 12.192 2.3 24.409 2.525 25.135a2.762 2.762 0 0 0 2.76 1.939l4.078-.18c-3.8 3.558-9.164 8.292-13.315 10.802l-.782-1.022a2.786 2.786 0 0 0-1.163-.882c-14.388-5.752-30.173 16.313-30.835 17.254-.094.136-52.644 85.163-55.683 90.081-10.138 10.283-27.636 35.903-28.365 37.022a2.735 2.735 0 0 0-.308.667c-30.801 19.334-51.334 53.584-51.334 92.561 0 60.223 48.998 109.219 109.223 109.219 28.863 0 55.128-11.273 74.675-29.625a417.625 417.625 0 0 1-3.398-4.424l.018.023c-18.601 17.643-43.693 28.506-71.294 28.506-57.18 0-103.701-46.523-103.701-103.699 0-57.185 46.521-103.704 103.701-103.704 4.336 0 8.602.299 12.797.819-1.893 12.246-3.12 25.181-3.12 38.203 0 6.625.741 13.541 2.077 20.637l-33.639 16.16c-2.367 9.469-3.551 34.717-3.551 34.717l36.296 21.305c5.35-1.395 13.708-11.01 19.676-18.674-.021-.041-.038-.082-.062-.117-.12-.252-.094-.211.035.053a246.644 246.644 0 0 0 3.92-4.963c-11.35-23.801-19.23-48.17-19.23-69.117 0-48.467 17.259-95.836 22.556-109.238a2.76 2.76 0 0 0 3.771.691 2.766 2.766 0 0 0 .765-3.831c-3.035-4.554-10.146-15.221-9.563-24.596.366-5.834 13.339-18.349 22.983-26.268.132 10.225 1.67 33.668 12.565 45.038 4.148 4.327 9.226 6.52 15.094 6.52 4.69 0 8.689-1.646 11.886-4.896 4.878-4.964 6.768-12.678 7.509-18.245 1.037 1.176 2.446 2.767 4.075 4.607-8.115 10.866-15.853 20.093-23.145 23.118-9.519 3.948-17.385 2.789-19.825 2.269-2.739-1.462-5.634-2.143-8.599-1.9-13.447 1.107-22.438 20.728-20.473 44.67 1.975 23.941 14.051 41.829 27.501 40.723 4.72-.388 8.886-3.064 12.229-7.402 2.59-.993 9.973-4.081 19.061-10.047 3.46 11.098 24.87 66.359 113.716 92.843.088-1.898.161-3.797.208-5.713-17.215-5.244-31.793-11.648-44.127-18.592 17.16-9.825 28.738-28.292 28.738-49.481zm-158.461-95.998c.155.267.302.517.457.773-1.274 3.001-13.828 33.227-20.429 71.303v-.004c-4.489-.565-9.053-.891-13.693-.891-4.449 0-8.824.299-13.135.819.243-2.197.319-4.696.319-7.343 0-2.624-.072-4.931-.123-6.253 1.092-1.368 37.218-46.639 46.604-58.404zm134.611 125.307-20.271-20.266a15.606 15.606 0 0 0 2.599-6.19h28.702c-.647 10.113-4.699 19.312-11.03 26.456zm11.048-31.981h-28.696a15.619 15.619 0 0 0-2.561-6.253l20.291-20.291c6.319 7.176 10.356 16.403 10.966 26.544zm-41.417-41.499c10.154.63 19.386 4.693 26.555 11.043l-20.288 20.287a15.607 15.607 0 0 0-6.267-2.61v-28.72zm-39.498 21.9c-.009-.034-.023-.063-.035-.097.211-.154.425-.311.636-.469.141.062.281.119.434.155 3.296.825 6.469.911 9.492.463l13.295 13.295a15.649 15.649 0 0 0-2.561 6.252h-12.185c-6.894-11.42-9.021-19.375-9.076-19.599zm12.621 25.123h8.663a15.639 15.639 0 0 0 2.599 6.188l-3.762 3.763a130.82 130.82 0 0 1-7.5-9.951zm21.357 24.418a144.897 144.897 0 0 1-10.23-10.282l4.049-4.052a15.644 15.644 0 0 0 6.182 2.55v11.784h-.001zm0-42.722a15.638 15.638 0 0 0-6.264 2.613l-11.063-11.064c7.025-2.827 12.961-8.291 17.326-13.523v21.974h.001zm5.52 47.509v-16.572a15.626 15.626 0 0 0 6.182-2.549l20.276 20.275c-4.046 3.563-8.76 6.357-13.904 8.262a167.158 167.158 0 0 1-12.554-9.416z" clip-rule="evenodd"/><path fill-rule="evenodd" d="M166.756 347.946c-10.654-3.943-28.802-16.172-28.802-16.172-2.549 2.262-10.786 22.207-15.233 33.287a98.1 98.1 0 0 0 27.013 34.33c12.549-4.91 27.674-17.514 27.674-17.514-4.734-7.101-10.652-33.931-10.652-33.931zM258.681 373.2c-15.387 1.184-31.957-5.133-31.957-5.133-7.102 11.051-22.882 26.045-22.882 26.045 1.973 5.52 14.829 26.672 14.829 26.672 15.709-1.201 35.777-7.939 43.148-13.84.179-18.709-3.138-33.744-3.138-33.744zM173.067 277.329s6.709-22.49 5.525-33.932c0 0-7.863-2.5-16.853-4.377a98.243 98.243 0 0 0-30.479 28.025c.549 11.021 1.816 23.678 4.721 28.037 0 .001 34.72-13.411 37.086-17.753zM31.67 430.528l47.629-31.523 11.287 17.057-11.244 7.441-4.89-7.389-6.886 4.553 4.578 6.92-11.245 7.441-4.577-6.92-18.257 12.088-6.395-9.668zM103.323 427.997c8.522 8.104 1.104 22.582-8.5 32.684s-23.692 18.24-32.216 10.131c-8.521-8.104-1.103-22.582 8.502-32.684 9.604-10.096 23.691-18.234 32.214-10.131zm-30.799 32.385c3.171 3.018 11.281-5.268 13.734-7.846s10.315-11.098 7.146-14.109c-3.17-3.018-11.281 5.268-13.733 7.846-2.453 2.583-10.315 11.097-7.147 14.109zM99.643 496.985l6.645-23.725-.174.07c-1.384 2.438-2.72 4.904-4.154 7.313l-7.783 13.09-9.962-5.93 29.202-49.084 9.62 5.719c8.643 5.145 12.877 12.246 5.172 25.201-3.215 5.408-7.838 9.176-13.034 8.906l-4.739 24.855-10.793-6.415zm10.853-29.244c2.635 1.57 5.873-.645 7.77-3.838 2.556-4.295 1.688-7.283-1.163-8.713l-7.203 12.111.596.44zM124.226 508.833l15.069-40.465-5.963-2.221 4.866-13.06 23.052 8.584-4.865 13.06-6.228-2.314-15.071 40.459-10.86-4.043zM193.556 468.397l-7.16 36.656c-1.321 6.762-5.095 20.15-18.253 17.578s-11.616-16.395-10.295-23.156l7.16-36.656 11.376 2.221-6.885 35.244c-.29 1.488-.724 3.41-.68 4.957.029 1.629.521 2.959 2.083 3.264 1.617.316 2.574-.732 3.144-2.162.64-1.494.962-3.439 1.238-4.852l6.898-35.314 11.374 2.22zM198.461 468.954l11.011.469 7.787 34.752.12-.146c-.173-6.604-.747-13.148-.466-19.734l.618-14.525 11.125.475-2.435 57.059-11.123-.475-7.225-33.287-.12.146c.054 5.385.34 10.705.111 16.078l-.713 16.729-11.127-.475 2.437-57.066zM261.4 521.835l-2.525-6.949-7.573 1.793.756 7.371-11.607 2.754-3.173-57.949 13.767-3.258 22.022 53.473-11.667 2.765zm-6.648-18.428-4.274-12.615c-1.151-3.387-2.212-6.867-3.311-10.266l-.108.023c.489 3.545 1.049 7.148 1.43 10.717l1.509 13.266 4.754-1.125zM283.317 493.628c2.918 2.033 6.891 3.492 9.48 2.074 1.397-.762 2.376-2.76 1.178-4.957-.653-1.195-1.424-1.898-2.32-2.355-.85-.486-1.775-.756-2.748-1.002-3.12-.973-5.918-1.945-8.52-3.633-2.52-1.646-4.84-4.008-6.838-7.664-3.193-5.848-6.208-18.012 2.47-22.752 2.443-1.33 5.631-1.775 8.607-1.418l8.314 15.229c-2.578-1.875-6.583-3.398-8.924-2.121-1.198.65-2.027 2.572-.973 4.5.577 1.066 1.535 1.752 2.52 2.25s2.098.756 2.968 1.055c3.234.826 5.947 1.758 8.329 3.393 2.429 1.611 4.532 3.914 6.601 7.705 5.077 9.311 4.257 19.424-2.824 23.285-2.593 1.418-5.634 2.127-8.754 2.104l-8.566-15.693zM320.673 493.974l-33.63-46.166 9.37-6.827 33.627 46.166-9.367 6.827zM342.11 477.151l-29.552-31.482-4.638 4.353-9.539-10.16 17.939-16.834 9.536 10.16-4.846 4.553 29.552 31.483-8.452 7.927zM368.96 448.681l-34.555-25.887-3.815 5.092-11.153-8.362 14.748-19.687 11.153 8.361-3.984 5.315 34.556 25.892-6.95 9.276zM392.603 411.942l-6.867-2.754-3.712 6.838 6 4.354-5.689 10.488-45.299-36.281 6.747-12.428 54.539 19.248-5.719 10.535zm-18.17-7.336-12.246-5.227c-3.293-1.395-6.595-2.93-9.858-4.377l-.059.1c2.971 1.992 6.026 3.979 8.938 6.076l10.893 7.723 2.332-4.295zM407.817 374.712l-24.598-1.371.108.158c2.681.826 5.376 1.594 8.036 2.473l14.458 4.781-3.639 11.004-54.231-17.924 3.516-10.629c3.155-9.545 9.179-15.217 23.49-10.488 5.971 1.975 10.652 5.678 11.508 10.811l25.295-.738-3.943 11.923zm-30.894-4.289c.964-2.912-1.898-5.596-5.426-6.762-4.746-1.564-7.471-.076-8.253 3.018l13.377 4.424.302-.68zM357.374 344.425l1.371-9.217c1.942-13.037 13.928-18.434 31.011-15.891 26.071 3.891 26.637 16.553 25.6 23.52l-1.491 10.002-56.491-8.414zm44.563-5.08c.7-5.238-7.854-7.43-13.175-8.221-6.144-.92-14.818-1.289-15.598 3.938l28.773 4.283z" clip-rule="evenodd"/><path fill="#FFF" fill-rule="evenodd" d="M338.413 151.568c-4.066-4.598-10.966-12.394-16.705-18.879-8.537 11.379-16.415 20.53-24.768 23.996-5.593 2.317-10.673 3.107-14.742 3.242 6.123 7.307 10.573 19.028 11.704 32.748.229 2.773.308 5.487.249 8.121 21.167-8.823 31.772-30.512 44.262-49.228z" clip-rule="evenodd"/><path fill="#B1B3B4" fill-rule="evenodd" d="M338.413 151.568c-12.489 18.716-23.095 40.405-44.262 49.228-.17 7.95-1.582 15.173-3.97 21.062 8.361-4.165 22.494-12.633 34.831-26.978.381-.441.75-.902 1.125-1.358 6.22-11.284 12.064-26.558 15.653-38.134-.363-.414-1.608-1.818-3.377-3.82z" clip-rule="evenodd"/><path fill="#FFF" fill-rule="evenodd" d="M342.101 105.397c2.461 3.886 5.358 8.887 8.736 14.811 6.935-12.303 15.844-22.63 25.884-31.828 3.624-5.864 7.667-10.775 10.685-14.104-17.675 1.035-32.294 14.916-45.305 31.121z" clip-rule="evenodd"/><path fill="#B1B3B4" fill-rule="evenodd" d="m350.837 120.208 1.084 1.904c2.004 3.526 4.034 7.094 5.93 10.307 4.506-10.657 8.376-20.549 11.021-27.316l2.417-6.132c1.506-3.763 3.404-7.321 5.432-10.591-10.04 9.198-18.949 19.525-25.884 31.828zM284.996 176.649c-2.883-8.326-7.204-14.735-11.979-17.59a8.89 8.89 0 0 1-.451-.123 2.687 2.687 0 0 1-1.107-.681c-1.512-.642-3.056-.926-4.603-.798-8.461.696-14.813 13.453-15.583 29.55 9.163-8.293 21.784-10.562 33.723-10.358z" clip-rule="evenodd"/><path fill="#FFF" fill-rule="evenodd" d="M284.996 176.649c-11.938-.204-24.56 2.065-33.724 10.358a71.262 71.262 0 0 0 .161 9.16c1.661 20.161 11.525 36.497 21.542 35.672 9.032-.743 15.662-15.231 15.662-32.854 0-1.92-.076-3.877-.24-5.858-.489-5.94-1.693-11.544-3.401-16.478zM332.061 101.144c2.9 2.32 9.645 14.174 15.059 23.7 5.871 10.317 10.937 19.228 14.147 22.438.51.508.199 2.514-1.386 5.228l-.773 1.217c-.108.166-.29.48-.357.665-.105.287-10.644 28.79-12.472 33.059-1.389 3.233-12.372 21.189-26.631 23.704 14.268-11.667 26.399-50.694 27.888-55.633a2.761 2.761 0 0 0-.574-2.628l-33.293-37.623a2.76 2.76 0 0 0-3.067-.744 2.77 2.77 0 0 0-1.764 2.618c.006.144.144 14.452-6.401 21.092-2.145 2.178-4.74 3.237-7.937 3.237-4.365 0-7.995-1.576-11.101-4.816-10.424-10.869-11.077-36.256-11.033-43.758 7.23-4.065 17.666-14.385 19.658-16.39l5.798-.255a2.762 2.762 0 1 0-.243-5.518l-15.993.706c-.762-3.05-2.054-9.182-2.054-15.82 0-5.174.803-10.613 3.255-15.059 1.91.649 3.961 1.179 5.985 1.611.524 8.123 3.088 23.457 14.646 30.429l-.568 9.306a2.768 2.768 0 0 0 1.441 2.596c.213.117 21.767 11.839 27.77 16.638z" clip-rule="evenodd"/><path fill="#FFF" fill-rule="evenodd" d="M344.615 67.128a16.937 16.937 0 0 1-4.693 1.377c-3.36.505-5.997.347-8.549-.505-3.018-1.009-4.822-3.006-7.113-5.534l-.369-.41c-2.323-2.585-5.508-6.127-10.772-4.992a2.762 2.762 0 1 0 1.166 5.398c1.928-.415 3.158.684 5.502 3.289l.381.423c1.734 1.919 3.527 3.873 5.936 5.385-3.278.816-8.748.948-17.121-2.342-10.972-4.308-13.84-18.029-14.566-26.054 4.022.573 7.122.757 7.471.776l4.717-.029c2.584-.113 4.629-.202 7.377.816 2.733 1.015 4.166 2.571 5.818 4.371 1.266 1.378 2.701 2.944 4.787 4.286 3.322 2.147 6.451 3.076 9.419 3.258.176.097.363.18.565.239 3.557 1.028 5.517 3.667 7.793 6.721.814 1.094 1.673 2.232 2.634 3.333-.114.061-.234.126-.383.194z" clip-rule="evenodd"/><path fill="#FFF" fill-rule="evenodd" d="M281.389 34.104c-1.187-.577-1.995-1.167-2.229-1.746-.161-.387-.199-.766.105-1.359 1.726-3.36 10.755-7.074 16.603-8.464 5.848-1.389 9.876.656 14.537 3.022 3.984 2.021 8.508 5.593 13.901 5.549a2.76 2.76 0 0 0 2.739-2.785 2.76 2.76 0 0 0-2.783-2.739c-2.593.021-5.3-2.15-7.559-3.122 5.238-1.056 11.159 2.197 18.105 7.421 10.491 7.893 19.236 5.646 29.145-.157l.39-.23c9.615-5.634 13.216-7.74 23.426-5.786l1.693.333c3.984.792 8.499 1.692 13.022 1.144 2.886-.352 5.347-1.362 7.729-2.342 1.752-.721 3.422-1.361 5.13-1.715.354.151.595.278.75.378-.955 1.768-7.075 5.333-9.958 5.988-5.147 1.166-11.01.366-16.673-.407l-2.871-.382c-8.355-1.066-11.713-.021-18.911 4.135l-3.671 2.336c-3.759 2.49-8.432 6.259-11.704 5.656a2.758 2.758 0 0 0-3.214 2.215 2.761 2.761 0 0 0 2.212 3.217c.841.157 1.69.168 2.54.089-2.449.888-4.749 1.975-6.973 3.042-6.85 3.29-12.261 5.887-19.292 1.348-1.488-.959-2.569-2.136-3.715-3.384-1.866-2.032-3.981-4.334-7.963-5.811-3.797-1.408-6.721-1.28-9.542-1.156 0 0-9.29-.788-11.722-1.162-10.481-1.613-13.247-3.126-13.247-3.126zM238.346 121.358c-.349 5.575 1.406 11.275 3.668 16.219l-48.785 61.14a2.752 2.752 0 0 0-.599 1.853c.154 3.24.356 11.019-.333 15.221a108.375 108.375 0 0 0-28.333 9.063c6.16-8.666 15.854-21.848 22.103-28.099.151-.151.286-.319.397-.501l55.734-90.18c3.437-4.847 13.676-16.387 21.984-15.601-7.013 5.667-25.235 21.275-25.836 30.885z" clip-rule="evenodd"/></svg>