<svg xmlns="http://www.w3.org/2000/svg" width="79.509071mm" height="88.106247mm" viewBox="0 0 300.50673 332.99999"><path d="m340.448 378.038 3.025 17.815 18.264-.672h2.017l18.263.672 3.025-17.815c10.98.784 22.41 2.129 34.174 4.258l-3.25 18.487 19.385 4.034 18.151 3.473 6.275-15.91c9.524 3.025 19.272 6.61 29.132 10.756-1.569 3.25-4.594 9.3-8.18 17.255 0 0 0 .112-.112.112-.784 1.905-1.68 3.81-2.577 5.939v.112c-.224.56-.56 1.232-.784 1.904 0 0 0 .113-.112.113-.224.56-.448 1.232-.784 1.792 0 .112-.113.112-.113.224-.224.56-.448 1.233-.672 1.793 0 .112-.112.224-.112.336-.224.56-.448 1.233-.672 1.793 0 .112-.112.224-.112.448-.224.56-.448 1.12-.672 1.793-.113.112-.113.336-.225.448-.224.56-.448 1.12-.672 1.793-.112.224-.112.336-.224.56l-.672 1.68c-.112.225-.112.449-.224.56l-.673 1.682c-.112.224-.112.448-.224.672-.224.56-.448 1.12-.56 1.68-.112.225-.224.449-.224.673-.224.56-.448 1.12-.56 1.68-.112.225-.224.56-.224.785-.224.56-.336 1.12-.56 1.68-.113.225-.225.56-.225.785-.224.56-.336 1.12-.56 1.68-.112.337-.224.56-.336.897-.224.56-.336 1.12-.56 1.68-.112.337-.224.56-.336.897-.224.56-.336 1.12-.56 1.68-.113.337-.225.56-.337.897-.224.56-.336 1.12-.56 1.68-.112.449-.224.897-.448 1.345-6.387 17.816-10.196 40.225-10.196 64.539 0 43.585 29.468 96.807 29.468 96.807 5.714 33.726-12.886 56.023-35.63 61.401l-1.345.336h-.112c-.449.112-.785.112-1.233.224h-.224c-.336.112-.672.112-1.12.225-.113 0-.225 0-.337.112-.336 0-.672.112-1.008.112-.112 0-.336 0-.448.112-.336 0-.56 0-.897.112h-4.033c-4.258 0-8.404-.56-12.661-1.681a87.825 87.825 0 0 0-15.799-2.913c-2.24-.224-4.37-.224-6.386-.224-2.241 0-4.37.112-6.387.336-19.608 1.905-30.925 11.877-34.062 15.238h.112c-3.25-3.361-14.454-13.333-34.062-15.238a57.888 57.888 0 0 0-6.386-.336c-2.017 0-4.146.112-6.387.224a87.825 87.825 0 0 0-15.798 2.913 48.526 48.526 0 0 1-12.662 1.68h-4.033c-.336 0-.56 0-.897-.111-.112 0-.336 0-.448-.112-.336 0-.672-.112-1.008-.112-.112 0-.224 0-.336-.112-.337 0-.673-.113-1.12-.225h-.225c-.448-.112-.896-.112-1.232-.224h-.113l-1.344-.336c-22.745-5.378-41.345-27.675-35.63-61.4 0 0 29.467-53.223 29.467-96.808 0-24.314-3.81-46.723-10.196-64.539-.112-.448-.224-.896-.448-1.344-.224-.56-.336-1.12-.56-1.681-.112-.336-.224-.56-.336-.896-.224-.56-.336-1.12-.56-1.681-.113-.336-.225-.56-.337-.896-.224-.56-.336-1.12-.56-1.681-.112-.336-.224-.56-.336-.896-.224-.56-.336-1.12-.56-1.681-.112-.224-.224-.56-.224-.784-.224-.56-.336-1.12-.56-1.681-.113-.224-.225-.56-.225-.784-.224-.56-.448-1.12-.56-1.681-.112-.224-.224-.448-.224-.672-.224-.56-.448-1.12-.56-1.681-.112-.224-.112-.448-.224-.672l-.673-1.681c-.112-.224-.112-.448-.224-.56l-.672-1.681c-.112-.224-.112-.336-.224-.56-.224-.56-.448-1.12-.672-1.793-.112-.112-.112-.336-.224-.448-.224-.56-.449-1.233-.673-1.793 0-.112-.112-.224-.112-.448-.224-.56-.448-1.233-.672-1.793 0-.112-.112-.224-.112-.336-.224-.56-.448-1.232-.672-1.793 0-.112-.112-.112-.112-.224-.224-.56-.449-1.232-.785-1.792 0 0 0-.113-.112-.113-.224-.672-.56-1.232-.784-1.904v-.112c-.448-1.009-.896-2.13-1.345-3.138-.448-1.008-.784-1.904-1.232-2.8 0 0 0-.113-.112-.113-3.586-8.067-8.18-17.255-8.18-17.255s27.788-10.532 29.02-10.98l6.387 16.134 18.151-3.473 19.384-4.034-3.249-18.6c10.532-1.904 21.961-3.36 34.286-4.145m5.602-7.283-6.162.448c-11.653.784-23.418 2.241-34.846 4.258l-6.723 1.12 1.12 6.723 2.13 12.101-12.774 2.69-12.55 2.352-4.257-10.868-2.465-6.275-6.275 2.353c-1.232.448-27.899 10.532-29.02 10.98l-7.17 2.69 3.361 6.722c0 .112 4.594 9.188 7.955 17.031v.224c.448.897.785 1.905 1.233 2.802l1.344 3.025c.224.56.56 1.232.785 1.792v.113c.224.56.448 1.232.784 1.792l.112.112v.112c.224.56.448 1.12.672 1.793v.112l.112.224c.224.56.449 1.12.673 1.793l.112.224.112.224.672 1.68.112.225.112.224.672 1.68.112.225.112.336.673 1.68.112.225.112.336c.224.56.448 1.12.56 1.68l.112.337.112.336c.224.56.448 1.12.56 1.68l.112.337.112.448c.225.56.337 1.12.56 1.68l.113.337.112.448c.224.56.336 1.12.56 1.68l.112.337.112.448c.224.56.336 1.12.56 1.68l.112.337.224.56c.225.56.337 1.12.56 1.68l.113.337.224.56c.224.56.336 1.12.56 1.68l.112.225.224.672c.112.56.336 1.12.448 1.68l.112.449c.112.336.225.672.225.896v.224l.112.224c6.386 17.816 9.748 39.44 9.748 62.298 0 33.726-18.824 74.286-25.883 88.404l-2.017-.784-1.344 8.067c-3.026 17.48-.112 33.39 8.067 46.163a53.021 53.021 0 0 0 32.605 22.97h.112c.448.111.897.223 1.457.335h.224c.56.112 1.008.224 1.457.224h.224c.448.112.784.112 1.232.224h.448c.336 0 .673.113 1.009.113h.56c.224 0 .56 0 .784.112h5.154c4.93 0 9.748-.673 14.454-2.017 4.93-1.345 9.86-2.241 14.566-2.69 1.905-.223 3.922-.223 5.827-.223 1.904 0 3.81.112 5.714.224 17.48 1.68 27.227 10.532 29.804 13.221l2.017 2.017h5.938l2.017-2.017c2.577-2.69 12.437-11.54 29.804-13.221 1.905-.224 3.81-.224 5.715-.224 1.904 0 3.81.112 5.826.224 4.706.448 9.636 1.344 14.566 2.689a52.357 52.357 0 0 0 14.454 2.017H443.306c.224 0 .56 0 .784-.112h.673c.336 0 .672-.113 1.008-.113h.448c.448-.112.785-.112 1.233-.224h.224c.56-.112 1.008-.224 1.456-.224h.224c.56-.112 1.009-.224 1.457-.336 13.558-3.25 25.098-11.429 32.605-22.97 8.292-12.772 11.093-28.795 8.068-46.162l-1.233-7.283-1.905.448c-6.946-13.67-26.218-54.79-26.218-88.852 0-22.858 3.361-44.37 9.748-62.298l.112-.224v-.224c.112-.336.224-.56.224-.896l.112-.448c.112-.56.336-1.12.448-1.681l.224-.672.112-.224c.224-.56.336-1.12.56-1.681l.112-.448.112-.448.113-.225c.112-.448.336-.896.448-1.344l.224-.56.112-.336c.224-.56.336-1.12.56-1.681l.112-.224.224-.56v-.113c.224-.56.336-1.008.56-1.568l.112-.448.113-.336c.224-.56.336-1.12.56-1.57l.112-.335.112-.336c.224-.56.336-1.12.56-1.681l.112-.336.112-.336c.224-.56.448-1.12.56-1.681l.112-.336.113-.224.672-1.681.112-.224.112-.336.672-1.68.224-.45c.224-.56.448-1.232.673-1.792l.112-.336c.224-.56.448-1.232.672-1.793v-.112l.112-.224c.224-.56.448-1.232.672-1.793v-.224c.224-.56.448-1.232.784-1.792v-.112c.225-.673.56-1.233.785-1.793.784-1.905 1.68-3.922 2.465-5.827v-.112a378.6 378.6 0 0 1 7.843-16.694l.224-.337 3.25-6.498-6.611-2.801a326.572 326.572 0 0 0-29.692-10.98l-6.05-1.906-2.354 5.939-4.258 10.644-12.549-2.8-12.885-2.69 2.129-11.989 1.12-6.723-6.722-1.232a365.427 365.427 0 0 0-34.847-4.37l-6.162-.448-1.009 6.274-2.016 11.877-12.325-.448H361.513l-12.325.448-2.017-11.877z" class="st0" style="fill:#1d1d1b;stroke-width:1.12046" transform="translate(-212.604 -370.643)"/><path d="M465.715 460.952c.224-.56.336-1.12.56-1.681.112-.336.224-.56.337-.896.224-.56.336-1.12.56-1.681.112-.336.224-.56.336-.896.224-.56.336-1.12.56-1.681.112-.336.224-.56.336-.896.224-.56.336-1.12.56-1.681.113-.224.225-.56.225-.784.224-.56.336-1.12.56-1.681.112-.224.224-.56.224-.784.224-.56.448-1.12.56-1.681.112-.224.224-.448.224-.672.224-.56.448-1.12.56-1.681.112-.224.112-.448.225-.672l.672-1.681c.112-.224.112-.448.224-.56l.672-1.681c.112-.224.112-.336.224-.56.224-.56.448-1.12.673-1.793.112-.112.112-.336.224-.448.224-.56.448-1.233.672-1.793 0-.112.112-.224.112-.448.224-.56.448-1.233.672-1.793 0-.112.112-.224.112-.336.224-.56.448-1.232.673-1.793 0-.112.112-.112.112-.224.224-.56.448-1.232.784-1.792 0 0 0-.112.112-.112.224-.673.56-1.233.784-1.905v-.112c.897-2.13 1.681-4.034 2.577-5.939 0 0 0-.112.112-.112 3.586-8.067 6.499-14.006 8.18-17.255-9.86-4.146-19.496-7.731-29.132-10.756l-6.387 15.798-18.151-3.473-19.384-4.034 3.25-18.487c-11.766-2.13-23.194-3.474-34.175-4.258l-3.025 17.815-18.263-.672h-2.017l-18.264.672-3.137-17.815c-12.213.784-23.754 2.353-34.174 4.146l3.25 18.6-19.385 4.033-18.263 3.473-6.387-16.134c-1.232.448-29.02 10.98-29.02 10.98s4.594 9.3 8.18 17.255c0 0 0 .112.112.112.448.897.784 1.905 1.232 2.801a87.936 87.936 0 0 1 1.345 3.138v.112c.224.56.56 1.232.784 1.904 0 0 0 .113.112.113.224.56.449 1.232.785 1.792 0 .112.112.112.112.224.224.56.448 1.233.672 1.793 0 .112.112.224.112.336.224.56.448 1.233.672 1.793 0 .112.112.224.112.448.224.56.449 1.12.673 1.793.112.112.112.336.224.448.224.56.448 1.12.672 1.793.112.224.112.336.224.56l.672 1.68c.112.225.112.449.224.56l.673 1.682c.112.224.112.448.224.672.224.56.448 1.12.56 1.68.112.225.224.449.224.673.224.56.448 1.12.56 1.68.112.225.224.56.224.785.225.56.337 1.12.56 1.68.113.225.225.56.225.785.224.56.336 1.12.56 1.68.112.337.224.56.336.897.224.56.336 1.12.56 1.68.112.337.224.56.336.897.225.56.337 1.12.56 1.68.113.337.225.56.337.897.224.56.336 1.12.56 1.68.112.449.224.897.448 1.345 6.387 17.816 10.196 40.225 10.196 64.539 0 43.585-29.468 96.807-29.468 96.807-5.714 33.726 12.886 56.023 35.63 61.401l1.345.336h.113c.448.112.784.112 1.232.224h.224c.336.112.672.112 1.12.225.113 0 .225 0 .337.112.336 0 .672.112 1.008.112.112 0 .336 0 .448.112.336 0 .56 0 .897.112H287.002c4.37 0 8.852-.448 13.222-1.681a87.825 87.825 0 0 1 15.798-2.913c2.24-.224 4.37-.336 6.387-.224 2.24 0 4.37.112 6.386.336 19.608 1.905 30.925 11.877 34.062 15.238h.112c3.25-3.361 14.454-13.333 34.062-15.238a57.888 57.888 0 0 1 6.387-.336c2.017 0 4.257.112 6.386.224a87.825 87.825 0 0 1 15.799 2.913 44.637 44.637 0 0 0 13.221 1.68H442.41c.337 0 .56 0 .897-.111.112 0 .336 0 .448-.112.336 0 .672-.112 1.009-.112.112 0 .224 0 .336-.112.336 0 .672-.113 1.12-.225h.224c.448-.112.897-.112 1.233-.224h.112l1.344-.336c22.746-5.378 41.345-27.675 35.63-61.4 0 0-29.467-53.223-29.467-96.808 0-24.314 3.81-46.723 10.196-64.539 0-.224.112-.784.224-1.232z" class="st1" style="fill:#ffd600;stroke-width:1.12046" transform="translate(-212.604 -370.643)"/><path d="M462.802 575.575c0 31.372-44.818 56.919-100.057 56.919-55.238 0-100.057-25.435-100.057-56.92 0-31.372 44.819-56.919 100.057-56.919 55.239 0 100.057 25.547 100.057 56.92" class="st2" style="clip-rule:evenodd;fill:#c10230;fill-rule:evenodd;stroke-width:1.12046" transform="translate(-212.604 -370.643)"/><path d="M362.857 414.453c44.37 0 88.74 8.515 131.206 25.546-4.818 11.653-7.171 17.703-12.101 29.58-38.656-15.462-78.88-23.193-119.105-23.193-40.224 0-80.449 7.73-119.105 23.193-4.93-11.877-7.282-17.927-12.1-29.58 42.465-17.03 86.835-25.546 131.205-25.546" class="st0" style="fill:#1d1d1b;stroke-width:1.12046" transform="translate(-212.604 -370.643)"/><path d="M362.857 407.618c-45.715 0-90.645 8.74-133.67 25.995l-6.5 2.689 2.69 6.386c2.353 5.715 4.146 10.196 5.938 14.566 1.793 4.482 3.698 8.964 6.163 15.014l2.577 6.275 6.275-2.465c37.647-15.014 76.863-22.633 116.527-22.633 39.776 0 78.992 7.619 116.528 22.633l6.274 2.465 2.577-6.387c2.465-5.938 4.37-10.532 6.163-15.014 1.793-4.37 3.585-8.851 5.938-14.566l2.69-6.386-6.387-2.577c-43.138-17.255-88.068-25.995-133.783-25.995Z" class="st0" style="fill:#1d1d1b;stroke-width:1.12046" transform="translate(-212.604 -370.643)"/><path d="M234.565 613.558c83.026 33.278 173.559 33.278 256.585 0 5.266 12.773 7.843 16.47 12.997 29.02-91.317 36.75-191.262 36.75-282.58 0 5.155-12.55 7.732-16.247 12.998-29.02z" class="st3" style="fill:#fff;stroke-width:1.12046" transform="translate(-212.604 -370.643)"/><path d="M491.15 613.558c5.266 12.773 7.843 16.47 12.997 29.02-45.715 18.375-93.446 27.563-141.29 27.563-47.843 0-95.687-9.3-141.29-27.563 5.155-12.55 7.732-16.247 12.998-29.02 41.569 16.695 84.93 24.986 128.292 24.986 43.362 0 86.724-8.403 128.293-24.986m-260.283-8.852-2.577 6.275c-2.577 6.275-4.482 10.196-6.386 14.342-1.905 4.034-3.922 8.291-6.611 14.678l-2.69 6.274 6.387 2.577c46.275 18.6 94.68 28.012 143.867 28.012 49.188 0 97.592-9.412 143.867-28.012l6.387-2.577-2.69-6.386c-2.689-6.387-4.593-10.532-6.61-14.678-2.017-4.146-3.81-8.067-6.387-14.342l-2.577-6.275-6.275 2.465c-40.56 16.247-82.801 24.538-125.715 24.538-42.913 0-85.267-8.29-125.715-24.538z" class="st0" style="fill:#1d1d1b;stroke-width:1.12046" transform="translate(-212.604 -370.643)"/><path d="M481.962 469.58c-77.2-30.925-161.01-30.925-238.21 0-4.93-11.878-7.282-17.928-12.1-29.58 84.818-34.063 177.48-34.063 262.299 0-4.706 11.652-7.171 17.702-11.99 29.58z" class="st3" style="fill:#fff;stroke-width:1.12046" transform="translate(-212.604 -370.643)"/><path d="M76.08 264.204c1.456.336 2.688.784 3.809 1.569 1.12.672 2.016 1.68 2.689 2.689.672 1.12 1.12 2.353 1.344 3.921.224 1.457.112 3.138-.336 4.93-.336 1.569-.896 3.025-1.569 4.37-.672 1.233-1.568 2.353-2.689 3.137-1.008.785-2.24 1.345-3.585 1.681-1.345.336-2.913.224-4.594-.112l-9.524-2.129 4.818-22.073zM71.82 282.13c.673.112 1.457.224 2.13.112a5.033 5.033 0 0 0 2.016-.784 5.187 5.187 0 0 0 1.68-1.793 9.493 9.493 0 0 0 1.121-3.025c.224-1.12.336-2.129.336-3.137 0-.897-.224-1.793-.56-2.577-.336-.785-.896-1.345-1.68-1.905-.785-.56-1.681-.896-2.914-1.12l-3.361-.56-3.025 13.893zM107.004 269.694l-.673 4.146-11.764-1.793-.785 4.818 10.869 1.68-.56 3.81-10.869-1.68-.896 5.49 12.1 1.905-.672 4.145-16.919-2.577 3.474-22.409zM114.063 293.224l-5.155-23.194 5.043.448 3.585 16.36h.112l6.499-15.351 5.154.448-9.524 21.849zM148.797 272.495l-.112 4.146-11.99-.448-.111 4.818 10.98.336-.112 3.81-10.98-.337-.224 5.49 12.213.449-.112 4.145-17.143-.56.784-22.633zM158.097 272.383l9.972 14.902h.112l-.448-15.126 4.705-.112.673 22.633-4.93.112-9.86-14.79h-.112l.448 15.127-4.706.112-.672-22.634zM175.912 275.857l-.448-4.146 18.487-1.793.448 4.146-6.722.672 1.68 18.376-4.93.448-1.792-18.376ZM214.007 267.005l.673 4.146-11.765 1.792.784 4.818 10.869-1.68.56 3.81-10.869 1.68.897 5.49 12.1-1.905.673 4.146-16.919 2.577-3.473-22.409zM230.254 263.532c1.008-.224 1.905-.224 2.801-.112.897.112 1.68.448 2.353.896a6.002 6.002 0 0 1 1.68 1.68c.449.673.785 1.457 1.01 2.242.335 1.344.223 2.465-.113 3.585s-1.12 2.017-2.24 2.801v.112c.672 0 1.232.224 1.68.448.448.224.896.56 1.232 1.009.337.448.673.896.897 1.456.224.56.448 1.12.56 1.569.112.336.224.784.336 1.233.112.448.224.896.448 1.456.112.448.337.896.56 1.345.225.448.449.784.785 1.008l-4.818 1.12c-.448-.672-.784-1.456-1.008-2.352-.225-1.009-.56-1.905-.897-2.69-.448-1.12-1.008-1.904-1.568-2.352-.673-.449-1.57-.449-2.802-.225l-4.818 1.12 1.905 8.628-4.818 1.12-4.818-22.072zm.448 10.42c1.12-.224 1.905-.672 2.353-1.345.448-.672.56-1.456.336-2.577-.224-1.12-.672-1.792-1.344-2.129-.673-.336-1.569-.448-2.69-.224l-5.378 1.12 1.345 6.275zM44.818 86.835c-.672.56-1.456 1.009-2.24 1.345-1.233.448-2.466.672-3.698.56-1.12-.112-2.241-.448-3.25-.896-1.008-.56-1.792-1.233-2.577-2.129-.56-1.008-1.12-2.017-1.568-3.25-.448-1.232-.672-2.464-.672-3.585 0-1.232.224-2.353.672-3.361.448-1.009 1.008-1.905 1.905-2.801.896-.785 1.904-1.457 3.137-1.905.896-.336 1.68-.448 2.577-.448.896 0 1.68.112 2.577.336.784.224 1.569.672 2.24 1.232.673.56 1.233 1.345 1.682 2.241l-3.474 1.233c-.56-.897-1.232-1.457-2.017-1.68-.784-.225-1.568-.225-2.465.111-.784.336-1.456.672-1.904 1.233-.449.56-.785 1.12-.897 1.792-.224.673-.224 1.345-.112 2.13.112.784.224 1.456.448 2.24.224.672.56 1.345 1.009 1.905.448.56.896 1.12 1.344 1.457.56.448 1.12.672 1.793.784.672.112 1.457 0 2.241-.224 1.232-.448 2.017-1.009 2.465-1.905.448-.896.56-1.905.224-3.025l-3.697 1.232-.897-2.689 6.947-2.465 3.137 8.964-2.353.784-1.008-1.793c-.336 1.12-.896 2.017-1.569 2.577z" class="st0"/><path d="M39.328 70.365a8.53 8.53 0 0 1 2.353.336c.784.224 1.569.672 2.24 1.232.673.56 1.233 1.345 1.682 2.241l-3.474 1.233c-.56-.897-1.232-1.457-2.017-1.68-.336-.113-.672-.113-1.12-.113-.448 0-.896.112-1.457.224-.784.336-1.456.672-1.904 1.233-.449.56-.785 1.12-.897 1.792-.224.673-.224 1.345-.112 2.13.112.784.224 1.456.448 2.24.224.672.56 1.345 1.009 1.905.448.56.896 1.12 1.344 1.457.56.448 1.12.672 1.793.784h.56c.56 0 1.009-.112 1.68-.336 1.233-.448 2.018-1.009 2.466-1.905.448-.896.56-1.905.224-3.025l-3.697 1.232-.897-2.689 6.947-2.465 3.137 8.964-2.353.784-1.008-1.793c-.336 1.009-.896 1.905-1.569 2.465-.672.56-1.456 1.009-2.24 1.345-1.01.336-2.13.56-3.026.56h-.56c-1.12-.112-2.241-.448-3.25-.896-1.008-.56-1.792-1.233-2.577-2.13a12.644 12.644 0 0 1-1.568-3.024c-.448-1.233-.672-2.465-.672-3.586 0-1.232.224-2.353.672-3.361.448-1.009 1.008-1.905 1.905-2.801.896-.785 1.904-1.457 3.137-1.905.896-.336 1.68-.448 2.577-.448h.224m0-.112h-.224c-.896 0-1.793.224-2.69.448a10.36 10.36 0 0 0-3.248 1.905c-.897.784-1.57 1.792-1.905 2.8-.448 1.01-.673 2.13-.673 3.362 0 1.233.225 2.465.673 3.698.448 1.232 1.008 2.353 1.792 3.249.785.896 1.57 1.68 2.578 2.24 1.008.561 2.128.897 3.249.897h.56c1.009 0 2.017-.224 3.137-.56.785-.336 1.569-.784 2.241-1.344.673-.56 1.12-1.345 1.457-2.241l.896 1.456.112.112h.112l2.353-.784h.112v-.112l-3.137-8.964v-.112h-.112l-6.947 2.465h-.112v.112l.897 2.69v.111h.112l3.473-1.232c.224 1.12.112 2.017-.224 2.801-.448.784-1.233 1.457-2.353 1.793-.56.224-1.12.336-1.569.336h-.56c-.672-.112-1.232-.336-1.793-.784-.56-.337-1.008-.897-1.344-1.457a9.933 9.933 0 0 1-.897-1.905c-.224-.672-.448-1.456-.448-2.129-.112-.672 0-1.456.112-2.017.112-.672.448-1.232.897-1.68a4.53 4.53 0 0 1 1.904-1.12c.449-.113.897-.225 1.345-.225.336 0 .672 0 1.008.112.785.224 1.345.785 1.905 1.569l.112.112h.112l3.474-1.233h.112l-.112-.112c-.449-.896-1.009-1.68-1.681-2.24-.672-.56-1.457-1.009-2.24-1.345-.785-.56-1.57-.672-2.466-.672zM49.748 72.382c.112-1.233.336-2.241.785-3.25.448-1.008 1.12-1.905 2.016-2.689.897-.784 2.017-1.344 3.25-1.68 1.344-.337 2.577-.449 3.697-.337 1.12.112 2.241.56 3.138 1.12.896.561 1.792 1.345 2.465 2.354.672 1.008 1.232 2.129 1.568 3.361.336 1.233.448 2.465.448 3.586-.112 1.12-.336 2.24-.784 3.249-.448 1.008-1.12 1.905-2.017 2.577-.896.784-2.017 1.344-3.361 1.68-1.345.337-2.465.449-3.698.337-1.12-.112-2.24-.56-3.137-1.12-.896-.56-1.793-1.345-2.465-2.354-.672-1.008-1.232-2.016-1.569-3.249-.336-1.232-.448-2.465-.336-3.585Zm4.93 4.593c.336.673.785 1.12 1.345 1.57.56.447 1.12.671 1.793.895a5.136 5.136 0 0 0 2.24-.112c.785-.224 1.457-.56 2.017-1.12.449-.448.897-1.008 1.009-1.68.224-.673.336-1.345.224-2.018 0-.672-.112-1.456-.336-2.128-.224-.785-.448-1.457-.897-2.13a4.96 4.96 0 0 0-1.344-1.68c-.56-.448-1.12-.784-1.793-.896a5.136 5.136 0 0 0-2.24.112c-.785.224-1.457.56-2.018 1.12-.448.448-.784 1.009-1.008 1.68-.224.673-.336 1.345-.224 2.13 0 .784.112 1.456.336 2.24.336.673.56 1.345.896 2.017z" class="st0"/><path d="M58.488 64.314c.336 0 .672 0 1.12.112 1.12.112 2.241.56 3.138 1.12.896.561 1.792 1.345 2.465 2.354.672 1.008 1.232 2.129 1.568 3.361.336 1.233.448 2.465.448 3.586-.112 1.12-.336 2.24-.784 3.249-.448 1.008-1.12 1.905-2.017 2.577-.896.784-2.017 1.344-3.361 1.68a11.05 11.05 0 0 1-2.69.337c-.335 0-.671 0-1.008-.112-1.12-.112-2.24-.56-3.137-1.12-.896-.561-1.793-1.345-2.465-2.354-.672-1.008-1.232-2.017-1.569-3.249-.336-1.233-.56-2.465-.448-3.698.112-1.232.336-2.24.785-3.249.448-1.008 1.12-1.905 2.016-2.689.897-.784 2.017-1.345 3.25-1.68 1.008-.113 1.905-.225 2.689-.225M58.6 79.44c.448 0 .896-.112 1.457-.224.784-.224 1.456-.56 2.016-1.12.449-.448.897-1.009 1.009-1.68.224-.673.336-1.345.224-2.018 0-.672-.112-1.456-.336-2.128-.224-.785-.448-1.457-.897-2.13a4.96 4.96 0 0 0-1.344-1.68c-.56-.448-1.12-.784-1.793-.896-.224-.112-.56-.112-.784-.112-.448 0-.897.112-1.457.224-.784.224-1.456.56-2.017 1.12-.448.448-.784 1.009-1.008 1.68-.224.673-.336 1.345-.224 2.13 0 .784.112 1.456.336 2.24.224.673.448 1.345.784 2.017.336.673.785 1.12 1.345 1.569.56.448 1.12.672 1.793.896.336.112.672.112.896.112m-.112-15.238c-.896 0-1.68.112-2.69.448-1.344.337-2.464.897-3.36 1.681-.897.784-1.57 1.68-2.13 2.69-.448 1.008-.784 2.128-.784 3.36-.112 1.233.112 2.466.448 3.698.337 1.233.897 2.353 1.569 3.361.672 1.009 1.569 1.793 2.465 2.353.896.56 2.017 1.009 3.25 1.12.336 0 .672.113 1.008.113.896 0 1.793-.112 2.689-.448 1.344-.336 2.465-.897 3.361-1.681.897-.784 1.569-1.68 2.13-2.69.447-1.007.783-2.128.895-3.248.113-1.233-.112-2.353-.448-3.698-.336-1.232-.896-2.465-1.568-3.361-.673-1.009-1.569-1.793-2.465-2.353-.897-.56-2.017-1.009-3.25-1.12-.336-.225-.672-.225-1.12-.225zm.112 15.126c-.336 0-.56 0-.784-.112-.673-.112-1.233-.448-1.681-.896-.448-.448-.896-.896-1.233-1.569-.336-.56-.672-1.232-.784-2.016-.224-.673-.336-1.457-.336-2.241 0-.673 0-1.457.224-2.017.224-.672.56-1.233 1.008-1.68.449-.45 1.12-.785 1.905-1.01.448-.111 1.009-.223 1.345-.223.336 0 .56 0 .784.112.672.112 1.233.448 1.68.896.449.448.897 1.008 1.345 1.569.336.672.673 1.344.897 2.016.224.673.336 1.457.336 2.13 0 .672-.112 1.344-.224 2.016-.224.56-.56 1.12-1.009 1.68-.448.449-1.12.785-1.904 1.01-.673.335-1.12.335-1.57.335zM84.034 58.376l9.972 15.91-3.921.785-2.13-3.586-6.386 1.345-.56 4.033-3.81.785 3.026-18.488zm2.353 10.532-3.473-5.826-1.009 6.723z" class="st0"/><path d="m84.034 58.376 9.972 15.91-3.921.785-2.13-3.586-6.386 1.345-.56 4.033-3.81.785 3.026-18.488 3.81-.784m-2.018 11.429 4.482-.897-3.473-5.826-1.009 6.723m2.13-11.653-3.922.784h-.112v.112l-3.026 18.488v.224h.225l3.81-.785h.111v-.112l.56-4.033 6.275-1.233 2.017 3.474v.112h.112l3.921-.785h.225l-.225-.224ZM82.13 69.58l.896-6.274 3.25 5.378zM97.032 56.023l1.008 6.61 7.059-1.008-1.008-6.61 3.81-.56 2.576 17.366-3.921.56-1.12-7.507-7.06 1.009 1.12 7.507-3.809.56-2.577-17.367z" class="st0"/><path d="m107.9 54.454 2.577 17.367-3.921.56-1.12-7.507-7.06 1.009 1.12 7.507-3.809.56-2.577-17.367 3.81-.56 1.008 6.61 7.059-1.008-1.009-6.61 3.922-.56m.112-.225h-.112l-3.81.56h-.112v.112l1.009 6.5-6.723 1.007-1.008-6.498v-.112h-.112l-3.81.56h-.112v.112L95.8 73.838v.112h.112l3.81-.56h.112v-.112l-1.12-7.395 6.722-1.009 1.12 7.396v.112h.113l3.81-.56h.111v-.113l-2.577-17.255ZM125.491 52.662l.336 3.249-9.187.896.336 3.698 8.515-.785.224 3.026-8.515.784.448 4.258 9.412-.897.336 3.25-13.221 1.232-1.681-17.479z" class="st0"/><path d="m125.491 52.662.336 3.249-9.187.896.336 3.698 8.515-.785.224 3.026-8.515.784.448 4.258 9.412-.897.336 3.25-13.221 1.232-1.681-17.479 12.997-1.232m.112-.113h-.112l-13.11 1.233h-.111v.112l1.68 17.48v.111h.113l13.221-1.232h.112v-.112l-.336-3.25v-.112h-.112l-9.3.897-.336-4.034 8.291-.784h.112v-.112l-.224-3.026v-.112h-.112l-8.291.785-.336-3.474 9.075-.896h.112v-.112l-.336-3.25zM138.264 52.101l7.283 17.255-4.033.112-1.457-3.81-6.61.225-1.233 3.922-3.922.112 5.939-17.816zm.56 10.757-2.464-6.387-2.017 6.499z" class="st0"/><path d="m138.264 52.101 7.283 17.255-4.033.112-1.457-3.81-6.61.225-1.233 3.922-3.922.112 5.939-17.816h4.033m-3.921 10.869 4.594-.224-2.465-6.387-2.13 6.61m3.922-11.092-4.033.112h-.112v.112l-5.939 17.816-.112.224h.224l3.922-.112h.112v-.112l1.233-3.922 6.386-.224 1.457 3.81v.111h.112l4.033-.112h.225l-.113-.224Zm-3.697 10.98 1.905-6.05 2.24 5.827zM155.071 51.877c1.12 0 2.13.224 3.138.56 1.008.337 1.792.897 2.465 1.681a10.91 10.91 0 0 1 1.68 2.69c.336 1.12.56 2.352.56 3.809 0 1.232-.224 2.465-.56 3.585-.336 1.12-.896 2.017-1.568 2.801-.673.785-1.457 1.345-2.465 1.793-1.009.448-2.13.672-3.474.672l-7.619-.112.224-17.59zm-.448 14.342c.56 0 1.12-.112 1.68-.224.561-.224 1.01-.448 1.457-.896.449-.449.785-.897 1.009-1.57.224-.671.336-1.456.448-2.464 0-.896-.112-1.68-.224-2.353-.112-.672-.448-1.345-.784-1.793-.337-.56-.897-.896-1.569-1.232-.672-.224-1.457-.448-2.353-.448h-2.801l-.112 11.092z" class="st0"/><path d="m147.564 51.765 7.62.112c1.12 0 2.128.224 3.137.56 1.008.337 1.792.897 2.465 1.681a10.91 10.91 0 0 1 1.68 2.69c.336 1.12.56 2.352.56 3.809 0 1.232-.224 2.465-.56 3.585-.336 1.12-.896 2.017-1.568 2.801-.673.785-1.457 1.345-2.465 1.793-1.009.448-2.13.672-3.362.672h-.112l-7.619-.112.224-17.59m7.171 14.453c.56 0 1.009-.112 1.569-.224.56-.224 1.008-.448 1.456-.896.449-.449.785-.897 1.009-1.57.224-.671.336-1.456.448-2.464 0-.896-.112-1.68-.224-2.353-.112-.672-.448-1.345-.784-1.793-.337-.56-.897-.896-1.569-1.232-.672-.224-1.457-.448-2.353-.448h-2.801l-.112 11.092 3.361-.112c-.112 0 0 0 0 0m-7.283-14.566v.112l-.224 17.591v.112h.112l7.62.112h.111c1.233 0 2.465-.224 3.362-.672a7.368 7.368 0 0 0 2.577-1.905 8.605 8.605 0 0 0 1.568-2.8c.337-1.121.56-2.242.56-3.586 0-1.457-.111-2.801-.56-3.922a9.796 9.796 0 0 0-1.68-2.801c-.673-.784-1.569-1.345-2.577-1.68-1.009-.337-2.017-.56-3.25-.56l-7.619-.113zm3.922 14.342.112-10.756h2.577c.896 0 1.68.112 2.353.448.672.224 1.12.672 1.456 1.12.337.448.673 1.12.785 1.793.112.672.224 1.457.224 2.353 0 .896-.112 1.793-.448 2.353-.224.672-.56 1.12-1.009 1.568-.448.449-.896.673-1.344.897-.448.112-1.009.224-1.569.224h-.112zM187.677 53.894l-.336 3.25-9.188-.785-.336 3.698 8.515.784-.224 3.025-8.515-.784-.337 4.258 9.412.896-.336 3.25L173 70.14l1.568-17.48z" class="st0"/><path d="m174.567 52.662 13.11 1.232-.336 3.25-9.188-.785-.336 3.698 8.515.784-.224 3.025-8.515-.784-.337 4.258 9.412.896-.336 3.25L173 70.14l1.568-17.48m-.112-.112v.113l-1.568 17.479v.112h.112l13.221 1.232h.112v-.112l.336-3.25v-.111h-.112l-9.3-.785.337-4.033 8.29.784h.113v-.112l.224-3.025v-.112h-.112l-8.291-.785.336-3.473 9.075.784h.113v-.112l.336-3.249v-.112h-.112zM200.226 55.575l4.033 18.263-3.921-.56-.785-4.034-6.498-.896-1.905 3.697-3.81-.56 9.076-16.47zm-1.233 10.644-1.232-6.723-3.138 6.05z" class="st0"/><path d="m196.304 55.014 3.922.56 4.033 18.264-3.921-.56-.785-4.034-6.498-.896-1.905 3.697-3.81-.56 8.964-16.47m2.69 11.204-1.233-6.723-3.138 6.05 4.37.673m-2.689-11.317-9.188 16.471-.112.224h.224l3.81.56h.112v-.112l1.905-3.585 6.274.896.785 3.922v.112h.112l3.921.56h.224v-.224l-4.033-18.151v-.112h-.112zm-1.68 10.645 2.913-5.603 1.232 6.163zM216.248 76.08c-.896.223-1.792.223-2.577 0-1.344-.225-2.465-.673-3.473-1.345-1.009-.673-1.68-1.457-2.241-2.465-.56-.897-.896-2.017-1.12-3.138-.225-1.12-.113-2.353.112-3.585.224-1.233.672-2.465 1.344-3.474a8.286 8.286 0 0 1 2.241-2.577 7.392 7.392 0 0 1 3.025-1.344c1.12-.224 2.353-.224 3.698 0 .896.224 1.68.448 2.465.896a9.66 9.66 0 0 1 2.017 1.569c.56.672 1.008 1.344 1.232 2.24.336.897.336 1.793.224 2.802l-3.585-.672c0-1.009-.336-1.793-.897-2.465a4.348 4.348 0 0 0-2.24-1.233c-.897-.224-1.57-.112-2.242.112-.672.224-1.232.56-1.68 1.008a6.528 6.528 0 0 0-1.233 1.681 6.76 6.76 0 0 0-.672 2.129c-.112.672-.224 1.457-.112 2.129 0 .672.224 1.344.448 2.017.224.672.672 1.12 1.233 1.568a4.15 4.15 0 0 0 2.016.897c1.233.224 2.241.112 3.138-.336.784-.449 1.344-1.345 1.793-2.577l-3.81-.785.56-2.8 7.283 1.456-1.905 9.3-2.465-.449v-2.017a5.472 5.472 0 0 1-2.577 1.457z" class="st0"/><path d="M215.352 57.928c.672 0 1.232.112 1.905.224.896.224 1.68.448 2.465.896a9.66 9.66 0 0 1 2.017 1.569c.56.672 1.008 1.344 1.232 2.24.336.897.336 1.793.224 2.802l-3.585-.672c0-1.009-.336-1.793-.897-2.465a4.348 4.348 0 0 0-2.24-1.233c-.337-.112-.785-.112-1.121-.112-.448 0-.784.112-1.233.224-.672.224-1.232.56-1.68 1.008a6.528 6.528 0 0 0-1.233 1.681 6.76 6.76 0 0 0-.672 2.129c-.112.672-.224 1.457-.112 2.129 0 .672.224 1.344.448 2.017.224.672.672 1.12 1.233 1.568a4.15 4.15 0 0 0 2.016.897c.449.112.785.112 1.233.112.784 0 1.344-.112 1.905-.448.784-.449 1.344-1.345 1.792-2.577l-3.81-.785.561-2.8 7.283 1.456-1.905 9.3-2.465-.449v-2.017c-.896.785-1.68 1.233-2.577 1.345-.448.112-.896.112-1.344.112-.448 0-.785 0-1.233-.112-1.344-.224-2.465-.672-3.473-1.345-1.009-.672-1.68-1.456-2.241-2.465-.56-.896-.896-2.016-1.12-3.137-.225-1.12-.113-2.353.111-3.585.225-1.233.673-2.465 1.345-3.474a8.286 8.286 0 0 1 2.24-2.577 7.392 7.392 0 0 1 3.026-1.344c.672-.112 1.233-.112 1.905-.112m0-.112c-.56 0-1.233.112-1.793.224-1.12.224-2.24.784-3.137 1.456a8.286 8.286 0 0 0-2.241 2.577c-.56 1.009-1.008 2.241-1.345 3.474-.224 1.232-.336 2.465-.112 3.697.225 1.12.56 2.241 1.12 3.25.561 1.008 1.345 1.792 2.354 2.465 1.008.672 2.129 1.12 3.473 1.456.448.112.785.112 1.233.112.448 0 .896 0 1.344-.112.785-.224 1.681-.56 2.465-1.232v1.792-.112h.112l2.465.449h.112V77.2l1.905-9.3v-.112h-.112l-7.283-1.457h-.112v.112l-.56 2.801v.112h.112l3.697.785c-.336 1.12-.896 1.792-1.68 2.353-.56.336-1.12.448-1.793.448-.336 0-.784 0-1.12-.112a4.15 4.15 0 0 1-2.017-.897c-.56-.448-.897-1.008-1.12-1.568-.225-.56-.449-1.233-.449-1.905 0-.672 0-1.457.112-2.129a6.76 6.76 0 0 1 .672-2.129c.337-.672.673-1.232 1.12-1.68.45-.449 1.01-.785 1.682-1.009.336-.112.784-.224 1.12-.224.336 0 .672 0 1.008.112.897.224 1.57.56 2.13 1.12.56.56.784 1.345.784 2.353v.113h.112l3.585.672h.112v-.112c.112-1.009 0-2.017-.336-2.801-.336-.897-.672-1.569-1.344-2.241a7.338 7.338 0 0 0-2.017-1.681c-.785-.448-1.681-.784-2.577-.896-.449-.112-1.12-.112-1.681-.112zM232.607 61.961l-3.473 13.894 8.291 2.129-.784 3.137-12.101-3.137 4.257-17.031z" class="st0"/><path d="m228.91 61.065 3.697.896-3.473 13.894 8.291 2.129-.784 3.137-12.101-3.137 4.37-16.92m-.113-.223v.112l-4.37 17.03v.113h.113l11.989 3.025h.112v-.112l.896-3.025v-.112h-.112l-8.18-2.017 3.474-13.782v-.112h-.112l-3.698-.896zM256.585 68.796l-.897 3.137-8.851-2.689-1.12 3.586 8.179 2.465-.897 2.913-8.179-2.465-1.233 4.146 9.076 2.8-.896 3.138-12.773-3.922 5.154-16.806z" class="st0"/><path d="m244.036 64.987 12.549 3.81-.897 3.136-8.851-2.689-1.12 3.586 8.179 2.465-.897 2.913-8.179-2.465-1.233 4.146 9.076 2.8-.896 3.138-12.773-3.922 5.042-16.918m-.112-.225v.112l-5.154 16.807v.112h.112l12.773 3.922h.112v-.112l.896-3.137v-.112h-.112l-8.964-2.69 1.12-3.809 7.956 2.465h.112v-.112l.897-2.913v-.112h-.112l-7.956-2.465 1.009-3.362 8.74 2.69h.111v-.113l.897-3.137v-.112h-.112l-12.55-3.81zM258.714 83.474c.112.448.224.896.448 1.233.224.336.56.672 1.008.896l1.345.672c.336.112.672.224 1.12.336.336.112.785.112 1.12.112.337 0 .673-.112 1.01-.336.335-.224.56-.448.671-.896.112-.448.112-.896 0-1.233-.224-.336-.448-.784-.896-1.12-.448-.336-.896-.672-1.457-1.008-.56-.337-1.12-.673-1.568-1.12a8.46 8.46 0 0 1-1.569-1.233c-.56-.449-.896-.897-1.232-1.457a5.282 5.282 0 0 1-.673-1.68c-.112-.673 0-1.345.224-2.13.337-.896.785-1.568 1.345-2.016.56-.449 1.233-.897 2.017-1.009.784-.112 1.456-.224 2.353-.224.784.112 1.568.224 2.353.448.896.336 1.68.673 2.353 1.233.672.448 1.344 1.008 1.792 1.68.449.673.785 1.345.897 2.13.112.784 0 1.68-.336 2.688l-3.474-1.232c.112-.56.224-.896.112-1.345-.112-.336-.224-.672-.448-1.008-.224-.336-.56-.56-.896-.784a4.142 4.142 0 0 0-1.233-.56c-.336-.113-.56-.225-.896-.225h-.896c-.337.112-.56.224-.785.336-.224.225-.448.449-.56.785-.112.336-.112.56-.112.896 0 .224.224.56.56.784.336.337.784.673 1.345 1.009.56.448 1.344.896 2.24 1.569.337.224.673.448 1.121.784.448.336.896.784 1.345 1.344.448.56.672 1.233.896 1.905.224.785.112 1.569-.224 2.465-.224.785-.672 1.457-1.233 1.905-.56.56-1.12.896-1.904 1.232-.785.225-1.569.337-2.577.337-.897 0-2.017-.224-3.138-.673a18.228 18.228 0 0 1-2.577-1.232c-.784-.56-1.456-1.12-1.905-1.905a5.435 5.435 0 0 1-.896-2.353c-.112-.896 0-1.793.336-2.801l3.474 1.232c0 .56-.112 1.12 0 1.57z" class="st0"/><path d="M263.308 71.15h.56c.784.111 1.568.223 2.353.447.896.336 1.68.673 2.353 1.233.672.448 1.344 1.008 1.792 1.68.449.673.785 1.345.897 2.13.112.784 0 1.68-.336 2.688l-3.474-1.232c.112-.56.224-.896.112-1.345-.112-.336-.224-.672-.448-1.008-.224-.336-.56-.56-.896-.784a4.142 4.142 0 0 0-1.233-.56c-.336-.113-.56-.225-.896-.225h-.336c-.224 0-.336 0-.56.112-.337.112-.56.224-.785.336-.224.225-.448.449-.56.785-.112.336-.112.56-.112.896 0 .224.224.56.56.784.336.337.784.673 1.345 1.009.56.448 1.344.896 2.24 1.569.337.224.673.448 1.121.784.448.336.896.784 1.345 1.344.448.56.672 1.233.896 1.905.224.785.112 1.569-.224 2.465-.224.785-.672 1.457-1.233 1.905-.56.56-1.12.896-1.904 1.232a6.524 6.524 0 0 1-2.13.337h-.447c-.897 0-2.017-.224-3.138-.673a18.228 18.228 0 0 1-2.577-1.232c-.784-.56-1.456-1.12-1.905-1.905a5.435 5.435 0 0 1-.896-2.353c-.112-.896 0-1.793.336-2.801l3.474 1.232c-.224.56-.224 1.009-.224 1.57.112.447.224.895.448 1.232.224.336.56.672 1.008.896l1.345.672c.336.112.672.224 1.12.336.224 0 .56.112.784.112h.337c.336 0 .672-.112 1.008-.336.336-.224.56-.448.672-.896.112-.448.112-.896 0-1.233-.224-.336-.448-.784-.896-1.12-.448-.336-.896-.672-1.457-1.008-.56-.337-1.12-.673-1.568-1.12a8.46 8.46 0 0 1-1.569-1.233c-.56-.449-.896-.897-1.232-1.457a5.282 5.282 0 0 1-.673-1.68c-.112-.673 0-1.345.224-2.13.336-.896.785-1.568 1.345-2.016.56-.449 1.232-.897 2.017-1.009.784-.224 1.344-.336 2.017-.336m0-.112c-.673 0-1.233.112-1.793.224-.785.224-1.457.56-2.017 1.12-.56.56-1.008 1.233-1.345 2.13-.224.784-.336 1.456-.224 2.128a4.95 4.95 0 0 0 .673 1.793c.336.56.784 1.008 1.344 1.457.56.448 1.009.896 1.569 1.232.56.336 1.12.784 1.568 1.12.56.337 1.009.673 1.345 1.009.336.336.672.672.896 1.008.224.337.224.673 0 1.12a1.742 1.742 0 0 1-.672.897c-.336.224-.672.336-1.008.336h-.336c-.225 0-.449 0-.785-.112s-.784-.224-1.008-.336c-.448-.112-.897-.336-1.345-.672a3.41 3.41 0 0 1-.896-.896c-.224-.337-.336-.785-.448-1.12-.112-.45 0-.897.224-1.458v-.112h-.112l-3.474-1.232h-.112v.112c-.336 1.008-.56 2.017-.448 2.913.112.897.448 1.68.896 2.465.449.672 1.12 1.345 1.905 1.905.785.56 1.68 1.008 2.577 1.345 1.12.448 2.241.672 3.138.672h.448c.784 0 1.568-.112 2.24-.336.785-.224 1.457-.673 1.905-1.233.56-.56.897-1.232 1.233-2.017.336-.896.448-1.792.224-2.577-.224-.784-.448-1.456-.896-2.017-.448-.56-.897-1.008-1.345-1.344-.448-.336-.896-.672-1.12-.784-.897-.673-1.681-1.12-2.241-1.57-.56-.335-1.009-.783-1.345-1.007a.97.97 0 0 1-.448-.785c0-.224 0-.448.112-.784s.336-.56.448-.784c.224-.112.448-.225.785-.337.224 0 .336-.112.56-.112h.336c.336 0 .56.112.896.224.448.113.785.337 1.12.56.337.225.561.449.785.673.224.224.336.56.448 1.008.112.337 0 .785-.112 1.233v.112h.112l3.474 1.232h.112v-.112c.336-1.008.448-1.904.336-2.689-.112-.784-.448-1.568-.896-2.24-.449-.673-1.12-1.233-1.793-1.681-.785-.448-1.569-.897-2.465-1.233-.785-.224-1.569-.448-2.353-.448h-.672z" class="st0"/><path d="M361.064 557.983c-11.652 0-22.633 5.827-29.131 15.463 0 0 0 .112-.113.112 0 .112-.112.112-.112.224v.112c-.448.672-.896 1.456-1.344 2.24-2.913 5.155-4.37 11.093-4.37 17.032 0 19.384 15.799 35.182 35.182 35.182 19.384 0 35.183-15.798 35.183-35.182-.112-19.384-15.799-35.183-35.295-35.183z" class="st3" style="fill:#fff;stroke-width:1.12046" transform="translate(-212.604 -370.643)"/><path d="M187.116 163.027c-.336 0-1.12-.112-1.568-1.12-.336-.785-.112-1.682.672-2.13.224-.224.56-.224.896-.224.449 0 .897.224 1.233.56.448.56.56 1.233.336 1.905-.336.56-.896 1.009-1.569 1.009z" class="st4"/><path d="M187.004 161.234c0 .112.112.112.112.112l-.112-.112m0-3.362c-.672 0-1.232.225-1.792.56-1.457.897-1.905 2.69-1.233 4.258.897 1.905 2.577 2.13 3.137 2.13 1.345 0 2.465-.785 3.026-1.905a3.44 3.44 0 0 0-.56-3.698c-.673-1.008-1.57-1.345-2.578-1.345z" class="st3"/><path d="M176.472 172.663c-1.12 0-1.68-1.009-1.905-1.57-.224-.783.112-1.568.785-1.904.224-.112.56-.224.784-.224.448 0 1.008.224 1.344.56.337.336 1.009 1.12.56 2.13-.335.671-.896 1.008-1.568 1.008z" class="st4"/><path d="M176.248 170.646c.224.336.336.336.224.336 0 0-.224-.224-.224-.336m0-3.362c-.56 0-1.12.112-1.569.336-1.456.785-2.129 2.353-1.68 3.922.336 1.345 1.68 2.801 3.473 2.801 1.345 0 2.465-.784 3.025-1.905.56-1.344.336-2.689-.784-3.921-.56-.897-1.569-1.233-2.465-1.233z" class="st3"/><path d="M410.925 519.552h.448c5.602-.56 12.55-3.586 17.143-7.731 2.577-2.241 4.258-4.818 5.154-7.283-5.714 2.128-19.048 3.585-22.297 1.904 0 0-.448-.448-.56-.672 5.154-2.913 9.075-6.275 12.1-10.084 3.922-5.154 5.94-11.093 5.94-17.703-7.172 8.74-15.24 12.1-19.16 12.66 1.344-1.792 2.464-3.36 3.249-4.817 1.12-2.465 2.24-5.826 2.913-9.748.784-4.93.336-9.524-1.12-13.558-2.242 6.275-10.197 17.704-14.006 18.936 1.12-4.37 1.792-8.74 1.68-12.437-.112-3.25-.672-5.714-1.792-7.507-3.026 14.118-12.886 21.289-18.824 25.546-2.241 1.57-3.922 2.802-4.37 3.81-.56 1.232-.56 2.577 0 4.034.672 1.792 2.017 3.249 2.801 3.585.897.336 1.793.672 2.801 1.008 3.25 1.009 6.723 2.13 7.06 5.603.111.896-.673 3.25-1.681 4.033-.337.225-.673.337-.897.225-.336-.113-.672-.225-.896-.225-.336 0-.784-.112-1.233-.112a10.313 10.313 0 0 0-2.129-.224c-.896 0-1.568.112-2.24.336-.337.112-.673.112-.897.112-.784.225-1.68.337-2.577-.112l-1.008-.672c-.56-.896-1.233-1.568-1.905-2.24-1.233-1.345-2.353-2.466-1.905-3.922h.112c1.457.448 2.69.784 3.586.336l.112-.112-.112-.112c-2.241-2.69-3.026-4.594-2.69-6.499.56 0 1.121.112 1.57.224h.111v-.224c-.672-.896-.896-3.137-1.12-5.266-.224-1.905-.448-3.81-1.009-4.594 1.457-.448 2.353-.672 3.81-.448l.112-.224c-1.569-.785-2.69-2.465-3.922-4.034-.448-.56-.784-1.12-1.12-1.569 1.569-.896 2.353-2.128 2.465-3.81l-.224-.111c-1.009 1.12-3.025 2.017-4.93 1.456-.336-.224-.672-.448-.897-.672-8.627-3.697-10.756-2.129-12.437 1.68l-.224.449c-.784-.112-1.344-.336-1.904-.224-5.379.784-3.026 6.05-3.026 6.05 1.569-3.137 6.611-1.232 6.499 1.569l-.112.112c-.56.336-1.457.672-2.465.784-1.009.112-1.905 0-2.353-.336-.112 0-.112-.112-.112-.112l-.672.336c0 .112 0 .337.112.673 0 .336 0 .56.112.784v.112a3.64 3.64 0 0 0 1.12 1.457c.448.336 1.009.448 1.68.448 1.233-.224 2.018-.448 2.578-.672.56-.225.896-.449 1.008-.56.112 0 .112 0 .112-.113-.112 3.922-3.473 5.042-6.05 5.266-.896 0-1.569-.112-2.017-.112h-.112v.112c.448 1.457 1.345 2.017 2.017 2.465.224.112.448.337.56.449v.112c-.672.896-2.801 1.232-4.482.56l-.112-.112v.112c-.112 1.568 1.905 2.465 2.801 2.913.112 0 .224.112.336.112h-.112c-1.456.896-2.016 2.129-2.8 3.474-.673 1.456-1.457 3.025-3.362 4.705-.784.225-1.457.112-2.129-.112-.336 0-.56-.112-.896-.112a51.218 51.218 0 0 0-2.241-.336c-.897 0-1.569.112-2.13.224-.447.112-.895.112-1.232.112-.336.112-.56.112-.896.224a.871.871 0 0 1-.896-.224c-1.009-.784-1.793-3.137-1.681-4.033.336-3.474 3.81-4.594 7.059-5.603 1.008-.336 1.905-.672 2.801-1.008.784-.336 2.129-1.905 2.801-3.585.56-1.457.56-2.802 0-4.034-.448-1.009-2.129-2.129-4.37-3.81-5.938-4.257-15.798-11.428-18.823-25.546-1.009 1.68-1.681 4.258-1.793 7.507-.112 3.697.448 8.18 1.68 12.437-.896 0-1.12-.224-1.12-.224-5.378-4.034-10.644-12.437-12.885-18.712-1.569 4.034-1.905 8.628-1.12 13.558.56 3.921 1.792 7.283 2.913 9.748.896 1.456 2.016 3.025 3.249 4.818-3.922-.672-12.101-4.034-19.16-12.661.112 6.61 2.017 12.549 5.939 17.703 2.913 3.81 6.946 7.17 12.1 10.084-.224.224-.672.56-.56.672-3.25 1.569-16.583.224-22.297-1.905.784 2.578 2.577 5.043 5.154 7.283 4.594 4.146 11.541 7.171 17.143 7.732h.448c.673 0 1.457.112 2.13 0-.113.56-.785 1.232-1.681 1.904-2.241 2.13-5.154 4.258-8.292 6.05-3.697 2.018-7.395 3.25-10.644 3.698 1.456 1.12 3.137 2.13 5.154 2.801 2.577.897 5.602 1.457 8.852 1.457 6.05.112 12.1-1.344 15.798-3.81-.224.449.224.113-.112 1.345-1.793 4.482-18.375 18.712-25.77 20.168h-.225l.112.112c5.267 1.681 11.205 1.681 17.143 0 6.5-1.904 14.23-6.722 19.608-12.1-.448 4.93-5.826 11.876-8.179 15.014-.224.336-.448.56-.56.784 2.689-1.12 6.499-3.361 10.084-6.163 3.698-2.913 10.308-8.74 13.221-15.574 0-.224 1.12-.448 1.12-.448.225.672.45 1.456.785 2.129 1.12 3.025 2.241 6.274.897 8.851-.897 1.681-2.802 3.026-5.827 3.81h-.224l.112.112c.112.112.336.224.448.336.56.448 1.233.896 1.233 1.345 0 .224-.112.448-.336.672-4.93 4.482-7.844 6.947-15.91 12.437l-.113.112.112.112c.224.112.448.112.56.224.449.112.785.336 1.12.448 1.01.336 2.13.56 3.25.785 1.68.336 3.362.784 5.154 1.344h.112v-.112c5.827 1.233 13.222 2.353 19.272 1.905 3.698-.336 13.222-.784 21.289-2.017v.224h.112c.784-.224 1.68-.448 2.465-.672 3.137-.56 5.826-1.233 7.731-2.129l.112-.112-.112-.112c-8.067-5.49-11.092-7.955-15.91-12.437-.224-.224-.337-.448-.337-.672 0-.449.673-1.009 1.233-1.345.112-.112.336-.224.448-.336l.112-.112h-.224c-3.025-.897-4.93-2.129-5.826-3.81-1.345-2.577-.224-5.826.896-8.851.224-.785.56-1.457.784-2.13l1.12.449c2.914 6.835 9.525 12.661 13.222 15.574 3.586 2.802 7.395 5.042 10.084 6.163-.112-.224-.336-.448-.56-.784-2.353-3.026-7.731-10.085-8.18-15.015 5.379 5.379 13.11 10.309 19.609 12.101 5.938 1.681 11.877 1.681 17.143 0l.112-.112h-.224c-7.507-1.456-24.202-17.03-26.107-21.625.112 0 .112.113.224.113v-.113c3.81 2.465 9.748 3.922 15.799 3.81 3.249-.112 6.274-.56 8.851-1.457 2.017-.672 3.698-1.68 5.154-2.8-3.249-.449-6.946-1.681-10.644-3.698-3.25-1.793-6.162-3.81-8.291-6.05-.897-.673-1.569-1.345-1.681-1.905.448.336 1.12.336 1.905.336z" class="st5" style="clip-rule:evenodd;fill:#fff;fill-rule:evenodd;stroke-width:1.12046" transform="translate(-212.604 -370.643)"/><path d="M400.505 461.624c1.008 1.68 1.68 4.258 1.792 7.507.112 3.698-.448 8.18-1.68 12.437 3.81-1.344 11.764-12.773 14.005-18.936 1.569 4.034 1.905 8.628 1.12 13.558-.56 3.922-1.792 7.283-2.912 9.748-.897 1.457-2.017 3.025-3.25 4.818 3.922-.672 12.101-4.034 19.16-12.661-.112 6.61-2.017 12.549-5.938 17.703-2.914 3.81-6.947 7.17-12.101 10.084.224.224.672.56.56.672 1.008.449 2.913.673 5.154.673 5.378 0 13.11-1.12 17.143-2.577-.784 2.577-2.577 5.042-5.154 7.283-4.594 4.145-11.54 7.17-17.143 7.73h-2.577c.112.561.784 1.233 1.68 1.906 2.241 2.128 5.155 4.257 8.292 6.05 3.697 2.017 7.395 3.25 10.644 3.697-1.456 1.12-3.137 2.13-5.154 2.802-2.577.896-5.602 1.456-8.851 1.456h-.673c-5.826 0-11.54-1.456-15.126-3.81v.113s-.112-.112-.224-.112c1.793 4.481 18.6 20.056 26.107 21.624h.224l-.112.113c-2.577.896-5.378 1.232-8.292 1.232-2.913 0-5.826-.448-8.851-1.345-6.499-1.904-14.23-6.722-19.608-12.1.448 4.93 5.826 11.876 8.18 15.014.223.336.447.56.56.784-2.69-1.12-6.5-3.361-10.085-6.163-3.697-2.913-10.308-8.74-13.221-15.574l-1.12-.448c-.225.672-.449 1.457-.785 2.129-1.12 3.025-2.24 6.274-.896 8.851.896 1.681 2.8 3.026 5.826 3.81h.224l-.112.112c-.112.112-.336.224-.448.336-.56.448-1.233.897-1.233 1.345 0 .224.112.448.337.672 4.93 4.482 7.843 6.947 15.91 12.437l.112.112-.112.112c-1.905.897-4.706 1.569-7.731 2.129-.784.224-1.569.448-2.465.672h-.112v-.224c-8.068 1.233-17.48 1.68-21.289 2.017-1.008.112-2.129.112-3.25.112-5.377 0-11.204-.896-16.022-2.017v.112h-.112a58.95 58.95 0 0 0-5.154-1.344c-1.12-.224-2.24-.56-3.25-.785-.335-.112-.784-.336-1.12-.448-.224-.112-.448-.112-.56-.224l-.112-.112.112-.112c8.067-5.49 11.093-7.955 15.91-12.437.225-.224.337-.448.337-.672 0-.448-.673-1.009-1.233-1.345-.112-.112-.336-.224-.448-.336l-.112-.112h.224c3.025-.896 4.93-2.129 5.826-3.81 1.345-2.577.225-5.826-.896-8.851-.224-.785-.56-1.457-.784-2.13 0 0-1.12.225-1.12.45-2.914 6.834-9.525 12.66-13.222 15.573-3.586 2.802-7.395 5.043-10.084 6.163.112-.224.336-.448.56-.784 2.353-3.026 7.731-10.084 8.18-15.014-5.379 5.378-13.11 10.308-19.609 12.1-3.025.897-5.938 1.345-8.851 1.345-2.913 0-5.603-.448-8.292-1.232l-.112-.113h.224c7.507-1.456 23.978-15.686 25.77-20.168.337-1.12-.111-.896.113-1.344-3.586 2.353-9.3 3.81-15.126 3.81h-.673c-3.249-.113-6.274-.561-8.851-1.457-2.017-.673-3.698-1.681-5.154-2.801 3.25-.449 6.947-1.681 10.644-3.698 3.25-1.793 6.163-3.81 8.292-6.05.896-.673 1.568-1.345 1.68-1.905h-2.577c-5.602-.56-12.549-3.586-17.143-7.731-2.577-2.241-4.258-4.818-5.154-7.283 4.034 1.456 11.765 2.577 17.143 2.577 2.353 0 4.258-.224 5.154-.673 0 0 .448-.448.56-.672-5.154-2.913-9.075-6.274-12.1-10.084-3.922-5.154-5.939-11.093-5.939-17.703 7.17 8.74 15.238 12.1 19.16 12.661-1.345-1.793-2.465-3.361-3.25-4.818-1.12-2.465-2.24-5.826-2.913-9.748-.784-4.93-.336-9.524 1.12-13.558 2.242 6.275 7.508 14.678 12.886 18.712 0 0 .336.224 1.12.224-1.12-4.37-1.792-8.74-1.68-12.437.112-3.25.672-5.714 1.793-7.507 3.025 14.118 12.885 21.289 18.823 25.546 2.241 1.57 3.922 2.802 4.37 3.81.56 1.233.56 2.577 0 4.034-.672 1.792-2.017 3.249-2.801 3.585-.896.336-1.793.672-2.801 1.009-3.25 1.008-6.723 2.128-7.06 5.602-.111.896.673 3.25 1.682 4.034.224.224.448.336.672.336h.224c.336-.112.672-.224.896-.224.336 0 .785-.112 1.233-.112.56-.113 1.232-.225 2.129-.225.896 0 1.568.112 2.24.337.337.112.673.112.897.112.448.112.784.224 1.232.224.337 0 .56 0 .897-.112 1.905-1.681 2.689-3.25 3.361-4.706.672-1.345 1.345-2.577 2.801-3.474h.112c-.112 0-.224-.112-.336-.112-1.008-.448-2.913-1.344-2.8-2.913v-.112l.111.112c.56.224 1.233.336 1.905.336 1.12 0 2.129-.336 2.577-.896.112-.112.112-.112 0-.112 0-.112-.224-.224-.56-.448-.673-.449-1.569-1.009-2.017-2.465v-.112h.112c.336.112 1.12.112 2.017.112 2.465-.224 5.826-1.345 6.05-5.267 0 0-.112 0-.112.113-.112.112-.448.336-1.008.56-.56.224-1.345.448-2.577.672h-.224c-.56 0-1.009-.112-1.345-.448-.56-.336-.896-.897-1.12-1.457v-.112c0-.112 0-.448-.112-.784 0-.224 0-.56-.112-.672l.672-.337.112.113c.336.224 1.008.336 1.68.336h.673c1.008-.112 1.905-.336 2.465-.785l.112-.112c.112-1.792-1.905-3.25-3.81-3.25-1.12 0-2.129.45-2.689 1.682 0 0-2.24-5.267 3.025-6.05h.449c.448 0 .896.111 1.456.223l.224-.448c1.009-2.24 2.241-3.697 4.818-3.697 1.793 0 4.146.672 7.62 2.128.336.225.672.449.896.673.448.112.784.224 1.232.224 1.457 0 2.913-.785 3.81-1.68l.224.111c-.112 1.68-.896 2.913-2.465 3.81.336.448.784 1.008 1.12 1.568 1.12 1.569 2.353 3.25 3.922 4.034l-.112.224c-.336-.112-.672-.112-1.009-.112-.896 0-1.68.224-2.8.56.56.785.784 2.69 1.008 4.594.224 2.129.56 4.258 1.12 5.266v.224h-.112c-.448-.112-.896-.336-1.344-.336h-.224c-.337 1.905.448 3.81 2.689 6.499l.112.112-.112.112c-.337.112-.673.224-1.009.224-.784 0-1.568-.224-2.577-.56h-.112c-.448 1.569.672 2.689 1.905 3.921a18.285 18.285 0 0 1 1.905 2.241l1.008.673c.448.224.896.336 1.345.336.448 0 .784-.112 1.232-.224.336 0 .56-.112.897-.112a51.218 51.218 0 0 1 2.24-.336c.897 0 1.57.112 2.13.224.447.112.896.112 1.232.112.336.112.56.112.896.224h.224c.224 0 .448-.112.673-.336 1.008-.785 1.792-3.138 1.68-4.034-.336-3.473-3.81-4.594-7.059-5.602-1.008-.336-1.904-.673-2.8-1.009-.897-.336-2.13-1.905-2.802-3.585-.56-1.457-.56-2.801 0-4.034.448-1.008 2.129-2.129 4.37-3.81 5.938-4.705 15.798-11.764 18.824-25.882m0-1.68h-.225c-.672.111-1.232.56-1.344 1.232-2.913 13.557-12.437 20.392-18.152 24.538-2.577 1.793-4.257 3.025-4.817 4.37-.113-1.12-.225-2.13-.449-3.026h.673c.224 0 .56 0 .784.112h.224c.672 0 1.345-.448 1.569-1.12l.112-.224c.224-.784-.112-1.569-.785-2.017-1.232-.672-2.24-2.129-3.249-3.585l-.112-.224s0-.113-.112-.113c1.12-1.008 1.68-2.352 1.793-4.033 0-.672-.336-1.345-1.009-1.569l-.224-.112c-.224-.112-.448-.112-.672-.112-.448 0-.896.224-1.233.56-.56.56-1.568 1.12-2.577 1.12h-.448c-.224-.223-.448-.335-.784-.56-.112-.111-.224-.111-.224-.111-3.586-1.57-6.163-2.241-8.292-2.241-3.361 0-4.93 1.904-6.05 4.033h-1.233c-2.577.448-3.697 1.68-4.257 2.69-1.345 2.464-.224 5.378 0 5.714.112.336.448.672.784.784-.224.336-.336.784-.224 1.233v.56c0 .336 0 .672.112.896v.224c0 .112 0 .112.112.224a6.448 6.448 0 0 0 1.68 2.13c.673.447 1.457.671 2.354.671h.672c-.784.449-1.793.673-2.69.785-.784 0-1.456-.112-1.68-.112h-.336c-.448 0-.896.224-1.233.56a1.945 1.945 0 0 0-.336 1.569v.112c.224.672.449 1.232.785 1.68a.856.856 0 0 1-.56-.224l-.113-.112c-.224-.112-.448-.112-.672-.112-.336 0-.56.112-.784.224-.448.224-.785.785-.785 1.233v.112c-.112 1.568.897 2.689 1.905 3.473-.672.784-1.008 1.569-1.456 2.465-.673 1.233-1.233 2.465-2.69 3.922h-.111c-.225 0-.449 0-.785-.112h-.224c-.224 0-.56-.112-.784-.112-.56-.112-1.457-.336-2.465-.336h-.112c-.897 0-1.569.112-2.241.224-.448.112-.785.112-1.009.112h-.336c-.224 0-.448.112-.56.112-.448-.56-1.008-2.017-.896-2.465.224-2.241 2.465-3.138 5.938-4.258a86.393 86.393 0 0 0 2.913-1.008h.112c1.345-.673 2.914-2.577 3.698-4.482.672-1.905.672-3.698 0-5.266-.672-1.345-2.241-2.577-4.818-4.37-5.714-4.146-15.238-10.98-18.152-24.538-.112-.672-.672-1.12-1.344-1.233h-.224c-.56 0-1.12.336-1.457.785-1.232 2.016-1.905 4.818-2.017 8.291-.112 2.69.224 5.714.785 8.852-4.37-4.37-8.292-11.093-9.972-15.91-.224-.673-.785-1.121-1.569-1.121-.672 0-1.345.448-1.569 1.008-1.68 4.258-2.016 9.188-1.232 14.454.56 3.473 1.568 6.835 3.025 10.196 0 .112.112.112.112.224l.672 1.009c-3.921-1.681-9.187-5.042-13.893-10.757-.336-.336-.785-.56-1.233-.56-.224 0-.336 0-.56.112-.672.224-1.12.896-1.12 1.569.112 7.059 2.24 13.333 6.386 18.711 2.465 3.25 5.602 6.05 9.636 8.628-.56 0-1.232.112-2.017.112-5.378 0-12.773-1.12-16.583-2.577-.224-.112-.336-.112-.56-.112-.448 0-.784.112-1.12.448-.448.448-.672 1.12-.448 1.68.896 2.914 2.8 5.603 5.602 8.068 4.594 4.034 11.429 7.17 17.255 7.955a38.802 38.802 0 0 1-7.171 5.042c-3.585 1.905-7.059 3.138-10.084 3.474-.672.112-1.233.56-1.345 1.12-.224.672 0 1.345.56 1.68 1.57 1.345 3.474 2.354 5.715 3.138 2.689 1.009 5.938 1.569 9.412 1.569h.784c4.034 0 8.067-.673 11.54-1.905-4.93 5.602-17.03 15.238-22.632 16.359h-.225c-.56.112-1.12.56-1.232 1.12-.112.56 0 1.233.448 1.68l.112.113c.224.112.336.224.56.336a28.5 28.5 0 0 0 8.74 1.345c3.025 0 6.163-.449 9.3-1.345 4.93-1.457 10.644-4.482 15.574-8.291-1.905 3.473-4.482 6.946-5.826 8.627l-.224.224c-.112.224-.336.336-.449.56-.448.56-.448 1.457 0 2.017.337.448.785.673 1.345.673.224 0 .448 0 .672-.112 2.914-1.233 6.835-3.586 10.42-6.387 3.474-2.69 9.3-7.843 12.662-14.118.896 2.577 1.792 5.266.896 7.171-.672 1.345-2.24 2.241-4.818 3.025h-.112c-.56.112-1.008.673-1.232 1.233-.112.56.112 1.232.56 1.568l.112.112c.112.113.224.225.336.225l.112.112h.112s.112 0 .112.112c-4.482 4.145-7.507 6.498-15.126 11.652l-.112.112c-.448.337-.784.897-.672 1.57.112.56.448 1.12 1.008 1.344l.112.112c.224.112.448.112.672.224.449.112.785.336 1.233.448h.112c1.008.336 2.017.56 3.137.784h.224c1.681.336 3.362.785 5.042 1.345h.112c.112 0 .337.112.449.112.112 0 .336 0 .448-.112 5.938 1.232 11.204 1.905 15.574 1.905 1.233 0 2.353 0 3.362-.112.896-.112 2.128-.112 3.473-.224 4.37-.337 10.868-.785 16.807-1.57.224.113.448.225.784.225.112 0 .336 0 .448-.112h.112a32.293 32.293 0 0 1 2.353-.672c3.474-.673 6.163-1.345 8.068-2.241h.112c.56-.224.896-.673 1.008-1.345.112-.56-.224-1.12-.672-1.568l-.112-.113c-7.62-5.154-10.645-7.507-15.126-11.652 0 0 .112 0 .112-.112l.112-.112.336-.337.112-.112c.448-.448.672-1.008.56-1.568-.112-.56-.56-1.12-1.232-1.233h-.112c-2.578-.784-4.146-1.68-4.818-3.025-.897-1.905-.113-4.482.896-7.17 3.361 6.274 9.3 11.428 12.661 14.117 3.586 2.801 7.507 5.266 10.42 6.387.224.112.449.112.673.112.448 0 1.008-.225 1.344-.673.448-.56.448-1.456 0-2.017-.112-.224-.336-.448-.56-.784-1.345-1.68-3.922-5.154-5.826-8.627 4.93 3.81 10.644 6.946 15.574 8.291 3.137.896 6.274 1.345 9.3 1.345 3.025 0 6.05-.449 8.74-1.345.223-.112.447-.224.56-.336l.112-.112c.448-.448.672-1.009.448-1.68-.112-.561-.673-1.01-1.233-1.121h-.224c-2.913-.56-8.515-4.146-14.342-9.3-2.8-2.465-5.154-4.706-6.947-6.723 3.138.896 6.611 1.457 10.197 1.457h.784c3.361-.112 6.61-.56 9.412-1.569 2.129-.784 4.033-1.793 5.714-3.137.448-.448.672-1.12.56-1.68-.224-.673-.672-1.121-1.344-1.121-3.025-.449-6.499-1.681-10.084-3.474a38.802 38.802 0 0 1-7.171-5.042c5.938-.784 12.773-3.921 17.255-7.955 2.8-2.465 4.706-5.154 5.602-8.067.224-.56 0-1.233-.448-1.681-.336-.336-.672-.448-1.12-.448-.225 0-.337 0-.56.112-3.81 1.344-11.205 2.577-16.584 2.577-.784 0-1.456 0-2.016-.112 3.921-2.577 7.058-5.49 9.636-8.628 4.145-5.378 6.274-11.652 6.386-18.711 0-.673-.448-1.345-1.12-1.569-.224-.112-.336-.112-.56-.112-.449 0-.897.224-1.233.56-4.706 5.715-9.972 9.076-13.894 10.757l.673-1.009c0-.112.112-.112.112-.224 1.456-3.361 2.465-6.723 3.025-10.196.784-5.266.336-10.084-1.233-14.454-.224-.672-.896-1.008-1.568-1.008-.673 0-1.345.448-1.569 1.12-1.569 4.594-6.275 11.653-9.86 15.462.56-3.025.784-5.938.672-8.515-.112-3.474-.784-6.275-2.017-8.291-1.232-.113-1.792-.449-2.352-.449zm-25.099 37.87c.336 0 .56-.111.897-.223.112-.112.336-.224.448-.336.784 1.232 1.793 2.353 2.801 2.8h.112c.896.337 1.905.673 2.913 1.01 3.474 1.12 5.715 2.016 5.939 4.257 0 .448-.449 1.905-.897 2.465-.224 0-.448-.112-.56-.112h-.336c-.224 0-.56-.112-1.009-.112-.672-.112-1.344-.224-2.24-.224h-.112c-1.009 0-1.905.224-2.465.336-.225 0-.56.112-.785.112h-.224c-.336.112-.672.112-.784.112-.224 0-.336 0-.448-.112-.224-.112-.449-.336-.673-.448-.56-.897-1.344-1.569-1.904-2.241l-.56-.56h.223c.673 0 1.233-.112 1.793-.337l.112-.112a1.78 1.78 0 0 0 .897-1.12c.112-.448 0-1.009-.337-1.345l-.112-.112c-1.792-1.68-2.465-2.8-2.689-3.697z" class="st3" style="fill:#fff;stroke-width:1.12046" transform="translate(-212.604 -370.643)"/><path d="M120.897 172.663c-.672 0-1.232-.337-1.568-1.009-.448-1.008.224-1.793.56-2.129.336-.448.784-.56 1.345-.56.224 0 .56.112.784.224.672.336 1.008 1.233.784 1.905-.112.56-.784 1.569-1.905 1.569z" class="st4"/><path d="M121.234 170.646c0 .224-.225.336-.225.336-.112 0 0-.112.225-.336m0-3.362h-.225c-.56 0-1.12.224-1.68.56-.224.113-.448.337-.673.56l-.112.113c-1.12 1.344-1.344 2.689-.672 3.921.56 1.233 1.793 1.905 3.025 1.905 1.681 0 2.914-1.232 3.362-2.465.224-.448.224-.896.224-1.344 0-1.793-1.457-3.25-3.25-3.362v.112zm0 6.723z" class="st3"/><path d="M349.412 488.851c-1.569 0-3.026-1.008-5.042-3.473-.449-.673-.449-1.569.112-2.13.56-.56 1.456-.671 2.129-.335 1.792 1.12 2.465 1.232 2.689 1.232.112 0 .112 0 .448-.224.448-.224 1.12-.672 2.129-.672 1.12 0 2.465.448 4.145 1.568.56.225.897.785.897 1.457 0 .896-.673 1.569-1.569 1.68-.112 0-.336 0-.448-.111-.448-.112-1.009-.224-1.345-.224-.784 0-1.232.224-1.904.448-.673.448-1.457.784-2.241.784z" class="st3" style="fill:#fff;stroke-width:1.12046" transform="translate(-212.604 -370.643)"/><path d="M345.602 484.37c6.387 4.033 3.361-1.793 9.636 2.016-5.266-1.569-4.93 3.922-9.636-2.017M361.064 559.664c-11.54 0-21.849 5.826-27.787 14.79-.112.112-.112.224-.224.336a20.814 20.814 0 0 0-1.233 2.13c-2.689 4.817-4.257 10.42-4.257 16.246 0 18.487 15.014 33.501 33.501 33.501 18.488 0 33.502-15.014 33.502-33.501.112-18.488-14.902-33.502-33.502-33.502z" class="st4" style="clip-rule:evenodd;fill:#1d1d1b;fill-rule:evenodd;stroke-width:1.12046" transform="translate(-212.604 -370.643)"/><path d="M399.608 531.877c.112.112.112.112 0 0zm-10.756 9.412c.112.224.56.672 0 0zm22.073-21.737h.448c5.602-.56 12.55-3.586 17.143-7.731 2.577-2.241 4.258-4.818 5.154-7.283-5.714 2.128-19.048 3.585-22.297 1.904 0 0-.448-.448-.56-.672 5.154-2.913 9.075-6.275 12.1-10.084 3.922-5.154 5.94-11.093 5.94-17.703-7.172 8.74-15.24 12.1-19.16 12.66 1.344-1.792 2.464-3.36 3.249-4.817 1.12-2.465 2.24-5.826 2.913-9.748.784-4.93.336-9.524-1.12-13.558-2.242 6.275-10.197 17.704-14.006 18.936 1.12-4.37 1.792-8.74 1.68-12.437-.112-3.25-.672-5.714-1.792-7.507-3.026 14.118-12.886 21.289-18.824 25.546-2.241 1.57-3.922 2.802-4.37 3.81-.56 1.232-.56 2.577 0 4.034.672 1.792 2.017 3.249 2.801 3.585.897.336 1.793.672 2.801 1.008 3.25 1.009 6.723 2.13 7.06 5.603.111.896-.673 3.25-1.681 4.033-.337.225-.673.337-.897.225-.336-.113-.672-.225-.896-.225-.336 0-.784-.112-1.233-.112a10.313 10.313 0 0 0-2.129-.224c-.896 0-1.568.112-2.24.336-.337.112-.673.112-.897.112-.784.225-1.68.337-2.577-.112l-1.008-.672c-.56-.896-1.233-1.568-1.905-2.24-1.233-1.345-2.353-2.466-1.905-3.922h.112c1.457.448 2.69.784 3.586.336l.112-.112-.112-.112c-2.241-2.69-3.026-4.594-2.69-6.499.56 0 1.121.112 1.57.224h.111v-.224c-.672-.896-.896-3.137-1.12-5.266-.224-1.905-.448-3.81-1.009-4.594 1.457-.448 2.353-.672 3.81-.448l.112-.224c-1.569-.785-2.69-2.465-3.922-4.034-.448-.56-.784-1.12-1.12-1.569 1.569-.896 2.353-2.128 2.465-3.81l-.224-.111c-1.009 1.12-3.025 2.017-4.93 1.456-.336-.224-.672-.448-.897-.672-8.627-3.697-10.756-2.129-12.437 1.68l-.224.449c-1.232-.224-2.017-.224-2.689-.112-4.818 1.569-2.353 5.938-2.353 5.938 1.233-2.8 6.387-1.904 6.499 1.681 0 0-1.009.784-2.801.896-.897 0-1.793 0-2.241-.336-.112 0-.112-.112-.112-.112l-.672.336c0 .112 0 .337.112.673 0 .336 0 .56.112.784v.112a3.64 3.64 0 0 0 1.12 1.457c.448.336 1.008.448 1.68.448 1.233-.224 2.018-.448 2.578-.672.56-.225.896-.449 1.008-.56.112 0 .112 0 .112-.113-.112 3.922-3.473 5.042-6.05 5.266-.897 0-1.569-.112-2.017-.112h-.112v.112c.448 1.457 1.344 2.017 2.017 2.465.224.112.448.337.56.449v.112c-.672.896-2.801 1.232-4.482.56l-.112-.112v.112c-.112 1.569 1.905 2.465 2.801 2.913.112 0 .224.112.336.112h-.112c-1.456.896-2.016 2.129-2.8 3.474-.673 1.456-1.457 3.025-3.362 4.705-.785.225-1.457.113-2.13-.112-.335 0-.56-.112-.895-.112-.673-.112-1.345-.224-2.241-.336-.897 0-1.569.112-2.13.224-.447.112-.896.112-1.232.112-.336.112-.56.112-.896.224a.871.871 0 0 1-.896-.224c-1.009-.784-1.793-3.137-1.681-4.033.336-3.474 3.81-4.594 7.059-5.603 1.008-.336 1.905-.672 2.8-1.008.785-.336 2.13-1.905 2.802-3.585.56-1.457.56-2.802 0-4.034-.448-1.008-2.129-2.129-4.37-3.81-5.938-4.257-15.798-11.428-18.823-25.546-1.009 1.68-1.681 4.258-1.793 7.507-.112 3.698.448 8.18 1.68 12.437-.896 0-1.12-.224-1.12-.224-5.378-4.034-10.644-12.437-12.885-18.712-1.569 4.034-1.905 8.628-1.12 13.558.56 3.921 1.792 7.283 2.913 9.748.896 1.456 2.016 3.025 3.249 4.818-3.922-.672-12.101-4.034-19.272-12.661.112 6.61 2.017 12.549 5.938 17.703 2.914 3.81 6.947 7.17 12.101 10.084-.224.224-.672.56-.56.672-3.25 1.569-16.583.224-22.297-1.904.784 2.577 2.577 5.042 5.154 7.282 4.594 4.146 11.54 7.171 17.143 7.732h.448c.673 0 1.457.112 2.13 0-.113.56-.785 1.232-1.681 1.904-2.241 2.13-5.155 4.258-8.292 6.05-3.697 2.018-7.395 3.25-10.644 3.698 1.456 1.12 3.137 2.13 5.154 2.802 2.577.896 5.602 1.456 8.851 1.456 6.051.112 12.101-1.344 15.799-3.81-.224.449.224.113-.112 1.345-1.793 4.482-18.376 18.712-25.77 20.168h-.225l.112.112c5.266 1.681 11.205 1.681 17.143 0 6.499-1.904 14.23-6.722 19.608-12.1-.448 4.93-5.826 11.876-8.179 15.014-.224.336-.448.56-.56.784 2.689-1.12 6.498-3.361 10.084-6.163 3.697-2.913 10.308-8.74 13.221-15.574 0-.224 1.12-.448 1.12-.448.225.672.449 1.456.785 2.129 1.12 3.025 2.241 6.274.896 8.851-.896 1.681-2.8 3.026-5.826 3.81h-.224l.112.112c.112.112.336.224.448.336.56.448 1.233.896 1.233 1.345 0 .224-.112.448-.336.672-4.93 4.482-7.844 6.947-15.91 12.437l-.113.112.112.112c.224.112.448.112.56.224.448.112.785.336 1.12.448 1.01.336 2.13.56 3.25.785 1.68.336 3.361.784 5.154 1.344h.112v-.112c5.827 1.233 13.222 2.353 19.272 1.905 3.698-.336 13.221-.784 21.289-2.017v.224h.112c.784-.224 1.68-.448 2.465-.672 3.137-.56 5.826-1.233 7.731-2.129l.112-.112-.112-.112c-8.067-5.49-11.093-7.955-15.91-12.437-.225-.224-.337-.448-.337-.672 0-.449.673-1.009 1.233-1.345.112-.112.336-.224.448-.336l.112-.112h-.224c-3.025-.896-4.93-2.129-5.826-3.81-1.345-2.577-.224-5.826.896-8.851.224-.785.56-1.457.784-2.13l1.12.449c2.914 6.835 9.525 12.661 13.222 15.574 3.586 2.802 7.395 5.042 10.084 6.163-.112-.224-.336-.448-.56-.784-2.353-3.026-7.731-10.085-8.18-15.015 5.379 5.379 13.11 10.309 19.609 12.101 5.938 1.681 11.877 1.681 17.143 0l.112-.112h-.224c-7.507-1.456-24.202-17.03-26.107-21.624.112 0 .112.112.224.112v-.112c3.81 2.465 9.748 3.921 15.799 3.81 3.249-.113 6.274-.561 8.851-1.458 2.017-.672 3.698-1.68 5.154-2.8-3.25-.449-6.947-1.681-10.644-3.698-3.25-1.793-6.163-3.81-8.291-6.05-.897-.673-1.57-1.345-1.681-1.905.784.224 1.456.224 2.24.224zm-77.088 21.737c-.56.672-.112.224 0 0zm7.62 24.426c5.714-4.818 14.677-6.163 18.15-5.939 0-.448.113-1.008-.447-1.232-1.233 0-2.69-1.009-3.138-.785-.448-3.025-.784-2.24.673-4.257-2.69.224-3.698.672-5.042 2.24-.337.449-.225 1.12-.449 1.57-.112.223-6.05 2.128-9.636 5.713-.336 1.345 0 .785-.112 1.681m38.208.112c.224-1.12.224-.448.224-1.793-3.81-3.249-9.076-5.714-9.3-5.714-.896-.224-.224-1.344-.448-1.569-1.344-1.456-2.577-2.24-5.154-2.353 1.12 1.681 1.457 1.009.896 4.258-1.008 0-2.465 1.12-3.697.785-.448.336-.672 1.008-.672 1.344 3.473-.112 10.756.672 18.151 6.275m-49.188-83.25c-3.137-2.465-5.378-6.499-6.835-10.309-.224 4.37 1.009 8.068 3.361 11.877 1.233-1.008 1.905-1.344 3.474-1.568m-8.404 5.042c-3.473-2.353-7.17-6.947-8.74-10.869-.111 4.594 2.018 9.972 5.155 13.558.336-1.009 2.801-2.353 3.585-2.69m-6.386 9.749c-3.361-.785-8.067-3.138-10.42-5.715 1.344 3.586 5.714 8.068 9.3 9.86.111-2.016.56-2.913 1.12-4.145m-.336 13.557c-3.25.56-7.62.448-10.98.224 3.249 2.69 7.506 3.922 11.54 3.698-.448-1.345-.896-2.913-.56-3.922m3.361 11.653c-2.689 2.913-7.059 5.938-11.877 7.17 6.163.785 11.093-.895 15.238-3.024-1.344-.785-3.025-2.017-3.36-4.146m9.075 11.54c-2.017 3.586-6.163 8.18-9.524 9.973 4.93.112 9.972-3.586 13.221-6.947-1.12-.224-2.913-1.457-3.697-3.025m9.3 5.938c-.224 2.353-1.569 5.714-3.586 8.404 3.362-1.681 7.171-4.93 8.628-7.956-1.681.224-3.586 0-5.042-.448m-2.13-54.23c-1.344-3.361-6.834-2.017-5.714 1.793 2.017-1.793 2.914-1.793 5.715-1.793m-8.74 4.818c-2.913-2.577-7.619 1.569-4.706 4.594 1.009-2.69 2.017-3.137 4.706-4.594m-6.835 8.067c-3.361-.224-4.593 5.939-.672 6.499-.448-2.69 0-4.482.672-6.499m.449 9.412c-3.586 1.233-2.017 7.843 1.904 6.947-1.68-2.353-2.016-4.034-1.904-6.947m2.577 11.093c-2.13 2.577.56 7.507 4.257 5.378-2.353-1.457-3.249-2.801-4.257-5.378m6.834 9.636c-1.68 3.249 2.13 6.946 5.49 4.257-2.576-.672-3.36-2.129-5.49-4.257m20.057 22.409c3.361 1.568 6.61-3.698 6.61-7.283-1.456 2.353-4.37 5.714-6.61 7.283m23.641.56c-2.129-1.793-4.706-5.49-6.05-7.843-.112 3.473 2.689 8.963 6.05 7.843m-34.734-18.151c0 3.585 6.163 5.826 7.395 1.344-2.129.224-3.585 0-5.49-.56-.448-.112-1.233-.56-1.905-.784m53.894-51.093c1.569.224 2.241.56 3.474 1.456 2.352-3.81 3.585-7.395 3.36-11.877-1.456 3.922-3.697 7.956-6.834 10.42m8.628 4.37c.784.449 3.137 1.793 3.585 2.69 3.137-3.586 5.266-8.964 5.154-13.558-1.568 4.034-5.378 8.515-8.74 10.868m6.387 9.86c.56 1.345 1.009 2.13 1.233 4.258 3.585-1.793 7.955-6.274 9.3-9.86-2.578 2.465-7.171 4.818-10.533 5.602m.897 14.118c.336 1.009-.112 2.69-.56 3.922a16.986 16.986 0 0 0 11.54-3.698c-3.473.224-7.731.224-10.98-.224m-3.474 11.653c-.336 2.017-2.017 3.361-3.361 4.146 4.258 2.129 9.075 3.81 15.238 3.025-4.706-1.233-9.188-4.258-11.877-7.171m-8.963 11.54c-.785 1.57-2.578 2.802-3.586 3.026 3.25 3.361 8.291 7.059 13.221 6.947-3.473-1.68-7.619-6.275-9.635-9.972m-9.636 5.938c-1.457.56-3.362.672-5.042.448 1.456 3.138 5.154 6.275 8.627 7.956-2.017-2.69-3.361-6.05-3.585-8.404m1.68-54.23c2.801 0 3.698 0 5.715 1.793 1.12-3.698-4.258-5.154-5.715-1.793m8.964 4.258c2.689 1.456 3.585 1.792 4.706 4.594 2.801-3.138-1.793-7.171-4.706-4.594m6.835 8.067c.672 2.017 1.12 3.81.672 6.499 3.922-.56 2.69-6.723-.672-6.499m0 9.972c.112 2.913-.224 4.594-1.905 6.947 4.034.896 5.602-5.714 1.905-6.947m-2.465 11.093c-1.009 2.577-1.905 3.921-4.258 5.378 3.697 2.129 6.387-2.801 4.258-5.378m-6.947 9.636c-2.129 2.128-2.801 3.697-5.49 4.257 3.361 2.69 7.17-1.008 5.49-4.257m-8.964 4.818c-.672.224-1.344.672-1.905.784-1.904.56-3.473.784-5.49.56 1.345 4.594 7.395 2.241 7.395-1.344m-24.65-54.119c.112.673.672 1.12 1.345 1.12.784 0 1.456-.671 1.456-1.456 0-.336-.112-.56-.224-.784-1.008.336-1.905.784-2.577 1.12zm6.61 70.477s-.447-.672-.56-.896c-.56-.784-1.68-2.017-1.904-2.129l-.336-.336c-.673.784-.785 1.12-1.345 1.344-.112-.112-1.456-1.568-1.68-1.456h-.225c-.336 0-1.568 1.344-1.68 1.456-.56-.224-.673-.56-1.345-1.344l-.336.336c-.112.112-1.345 1.232-1.905 2.129-.224.224-.56.896-.56.896-.336.224 1.793-1.344 2.24-1.008.897.112 1.682.896 2.242 1.232.336-.784.896-2.577 1.344-2.8.449.223 1.009 2.128 1.345 2.8.56-.224 1.344-1.12 2.24-1.232.673-.224 2.802 1.232 2.466 1.008z" class="st4" style="clip-rule:evenodd;fill:#1d1d1b;fill-rule:evenodd;stroke-width:1.12046" transform="translate(-212.604 -370.643)"/><path d="M139.16 116.752V117.984c.225.56.673 1.009 1.01 1.345.447.336.896.448 1.456.336 1.12-.224 2.017-.336 2.577-.672.56-.224.784-.337.896-.56h.112a3.09 3.09 0 0 0 1.681-1.681c.224-.56.336-1.345.336-2.13 0-1.344-.56-2.912-1.344-4.145-.785-1.12-1.793-1.905-2.69-2.017-1.232-.336-2.352-.336-3.36.112-.45.224-.897.56-1.233.897-.337.336-.673.784-.785 1.344-.224.897-.224 1.793.224 2.69l.112.223.112-.112c.113-.112.113-.224.113-.336.224-.336.336-.56 1.12-.784.56 0 .896-.112 1.345-.112 1.008 0 1.68.112 2.24.448.897.448 1.345 1.457 1.681 2.913v.112l-.112.112-.112.112-.112.112c-.784.56-2.129.785-2.577.785h-.672c-.56 0-1.345-.112-1.793-.336h-.112z" class="st3"/><path d="M141.626 119.889c-.448 0-.897-.112-1.345-.448-.448-.336-.896-.785-1.12-1.457v-.112c0-.112 0-.448-.112-.672v-.897l.672-.336.224.112c.448.224 1.345.337 2.353.337.56 0 1.793-.225 2.465-.785 0 0 .112 0 .112-.112-.224-1.344-.784-2.24-1.568-2.689-.56-.336-1.233-.448-2.13-.448-.335 0-.784 0-1.344.112-.672.224-.784.336-.896.672 0 .112-.112.224-.224.336l-.336.56-.225-.672c-.448-1.008-.448-2.017-.224-2.913.224-.56.449-1.008.897-1.456a3.059 3.059 0 0 1 1.344-1.009c1.009-.448 2.241-.448 3.474-.112 1.008.112 2.016.896 2.913 2.129.784 1.232 1.344 2.913 1.344 4.258 0 .896-.112 1.68-.448 2.24-.336.785-.896 1.457-1.793 1.793-.112.112-.448.336-1.008.56-.672.225-1.569.449-2.689.673-.224.336-.336.336-.336.336zm-2.129-3.025s0 .112 0 0v1.008c.224.448.56.897 1.008 1.233.449.224.785.336 1.233.336 1.008-.112 1.905-.336 2.465-.56.448-.225.784-.337.896-.449l.112-.112c.785-.336 1.233-.784 1.569-1.568.224-.56.336-1.233.336-2.13 0-1.232-.448-2.8-1.232-4.033-.673-1.12-1.681-1.793-2.577-1.905-1.233-.336-2.241-.336-3.138 0-.448.224-.896.449-1.232.785a2.67 2.67 0 0 0-.673 1.232 3.127 3.127 0 0 0 .113 2.241c.224-.336.448-.56 1.232-.896h.112c.56-.112 1.008-.112 1.457-.112 1.008 0 1.792.224 2.465.56.896.56 1.456 1.569 1.792 3.137v.336l-.224.224-.112.112-.112.113c-.784.56-2.129.784-2.8.896-1.233 0-2.13-.112-2.69-.448z" class="st0"/><path d="M390.644 586.78c-1.344-5.94-3.921-10.421-7.843-14.455-.224-.224-.56.224-.56.224 0 .56.224.673.56 1.009l2.13 3.361c0 .56-.561 1.345-.785 1.009-2.353-3.138-2.017-3.922-4.706-4.706-3.137-.449-5.939.224-9.076.224-1.456-3.362-4.258-6.387-7.619-8.292l2.801-2.353c-6.722-1.904-15.35.449-21.064 4.146h-.224c.896.224 1.568.224 2.353.56 3.36-1.344 6.722-2.8 11.428-3.137l.224 1.793c-.784.112-2.8.448-4.818 1.12-3.025.897-5.938 1.793-6.61 4.258a11.905 11.905 0 0 0-.224 6.835c.784 1.008 1.568 1.568 2.577 2.577 1.232 1.344 2.8 2.129 4.145 3.697-.224.448-.224 1.009-1.008 1.009-3.586-.785-5.827-6.723-10.084-5.939a17.5 17.5 0 0 0-2.13 1.457c-1.904 1.456-3.809 3.473-5.713 4.482-1.009-1.569-.785-4.146-.785-6.163-1.344 1.233-1.793 3.586-2.577 5.378-.56 3.362-1.344 6.275-1.12 9.3 0 1.793.224 3.362.56 4.93l1.008 3.586c.56-.785.56-2.353 1.009-3.362-.785-3.921-1.009-8.067.224-11.428h1.568c.225 0 .225 0 .225.224-.225.56-.337 1.456-.449 2.24-.112 3.474-.336 6.611 1.681 8.628 2.465 2.577 3.922 3.698 6.499 4.594 3.361-1.68 6.498-3.25 9.3-5.154.56-3.81.224-8.516 2.577-11.877 3.249-1.793 7.619-1.68 11.54-1.905 1.569-2.577 2.69-5.826 3.25-8.963h2.016c.337 3.361-3.585 7.507-2.577 10.644 1.457 1.793 3.362 3.361 4.258 5.154.56 1.008.672 2.017 1.345 2.801 2.353 1.009 5.378 1.009 8.067 1.569v1.905c-2.69.56-5.154-.224-7.731-.56-2.577 3.249-5.939 7.282-10.084 8.739-4.146-.784-6.947-2.801-9.86-4.594-.224-.224-.56-.56-1.009-.896l-9.86 5.154c-.112 2.129 0 3.137.448 6.05.225 1.233.449 2.017.785 3.026 1.344 2.8 3.921 3.36 6.498 4.705.224.225-.224 1.009-.224 1.57-1.792 0-3.921-1.345-5.49-2.13-.448-.56-1.344-1.008-1.793-1.568l-2.353-.225c3.922 3.922 9.3 6.163 15.239 7.283.784.225 1.344.225 2.128.225l-1.568-1.793 8.515-5.939c.673-2.577-1.008-5.938-1.344-8.851.56-.448 1.568-.448 2.353-.224l2.129 8.74c2.577 1.008 4.705 1.008 7.507.223 2.353-2.016 4.93-4.818 7.17-6.834.225 0 .56 0 .785.224 0 .224.56.56.224 1.344-.56.785-1.12 1.569-1.569 2.13-1.792 2.016-4.033 3.136-4.706 5.713 4.146-3.137 7.283-6.946 9.636-11.204l-1.792.336c-.224-.336-.56-.56-.785-.784-.56-3.586-.224-7.507-1.344-11.093 1.568-3.361 3.585-6.947 4.37-10.868 1.008-.224 1.456 1.12 2.352 1.12" class="st5" style="clip-rule:evenodd;fill:#fff;fill-rule:evenodd;stroke-width:1.12046" transform="translate(-212.604 -370.643)"/></svg>