<svg xmlns="http://www.w3.org/2000/svg" width="348" height="480" x="0px" y="0px" viewBox="0 0 348 480"><path fill="none" d="M-5.282-15.028h718.94V993.615H-5.283z" style="fill:#080a55;fill-opacity:0"/><g transform="matrix(1.9191 0 0 1.92 -1.92 -1.92)"><path d="M576 606.46c-28.57 54.41-66.64 101-104.71 139C395.17 821.3 318.9 863.05 318.9 863.05s-76.27-41.75-152.38-117.63c-38.06-38-76.14-84.54-104.71-139-28.57-54.46-47.64-116.6-47.64-185.78 0-37.15 7.09-406.47 7.09-406.47h595.28s7.08 369.32 7.09 406.47c-.01 69.18-19.08 131.43-47.63 185.82z" class="cls-1" style="fill:#fff" transform="matrix(.28431 0 0 .28431 1 1)"/><path d="M180.32 1H3.016S1 109.088 1 120.09c0 20.488 5.439 38.926 13.903 55.035 8.464 16.11 19.956 29.913 31.229 41.155C68.667 238.755 91.668 251 91.668 251s22.992-12.203 45.535-34.686c11.273-11.242 22.768-25.08 31.23-41.195 8.46-16.114 13.902-34.546 13.902-55.034C182.333 109.088 180.32 1 180.32 1Zm-15.555 172.425c-8.123 15.47-18.947 28.716-29.77 39.52-21.643 21.562-43.327 33.432-43.327 33.432s-21.685-11.87-43.324-33.444c-10.821-10.804-21.648-24.036-29.77-39.52-8.123-15.483-13.545-33.15-13.545-52.82C5.029 110.033 7.045 5.03 7.045 5.03H176.29s2.013 105.003 2.016 115.565c-.003 19.669-5.425 37.367-13.542 52.831z"/><path d="M168.265 13.089H15.068s-2.482 98.196-2.482 107.837c0 17.952 4.95 34.118 12.365 48.226a131.624 131.624 0 0 0 5.97 10.2l3.324-120.92h19.14l-1.007 48.933a45.243 45.243 0 0 0-.895 43.562l-1.08 52.556q.852.878 1.705 1.737a203.901 203.901 0 0 0 23.667 20.14l1.421-57.26a40.867 40.867 0 0 1-26.344-38.152c0-18.128 11.887-33.53 28.272-38.829l.438-17.474h24.166l.478 17.482c16.388 5.3 28.272 20.701 28.272 38.83a40.867 40.867 0 0 1-26.344 38.151l1.421 57.261a203.947 203.947 0 0 0 23.66-20.155q.854-.853 1.707-1.737l-1.08-52.555a45.243 45.243 0 0 0-.896-43.563l-.998-48.928h19.14l3.312 120.933a126.028 126.028 0 0 0 5.97-10.2c7.43-14.128 12.365-30.272 12.365-48.238 0-9.64-2.47-107.837-2.47-107.837Z"/><path d="m336.61 789.09-17.72-44.41-17.71 44.41 17.71 44.42zM311.81 726.73l-17.72-44.42-17.71 44.42 17.71 44.42zM361.42 726.73l-17.73-44.42-17.71 44.42 17.71 44.42Z" class="cls-2" style="fill:#01a0c6;fill-rule:evenodd" transform="matrix(.28431 0 0 .28431 1 1)"/><path d="M91.665 92.472c-20.664 0-37.476 16.812-37.476 37.476 0 20.664 16.812 37.475 37.476 37.475 20.664 0 37.475-16.811 37.475-37.475s-16.808-37.476-37.475-37.476zm0 72.736a35.255 35.255 0 1 1 35.255-35.255 35.3 35.3 0 0 1-35.255 35.255z"/><path d="m109.017 130.454-.472-1.365 1.302-3.733-2.377.913 1.202 6.516zM98.89 127.952l2.58.307.89 1.433 2.46-1.135.54-2.365-4.105-1.683-3.304 1.086-1.459 1.771 1.033 1.442zM90.812 134.832l6.21-.685 2.305.685.384-1.524-2.65-.713-5.046-1.268zM111.72 119.82l-.335 3.793 1.7-2.453 1.666-4.484-.563-2.71-.83-1.66-.478 1.043-.554 1.553-1.845 1.28-.319 2.831.975.978zM63.72 121.646l-3.861.685-.85 6.323 2.277 1.78-1.524 6.639 4.37-2.647 7.548-7.859 6.13-3.346v-4.137l-3.136-4.336-6.619 2.917-.06.074zM78.208 100.157l-3.636 1.96-6.141 4.87-3.227 3.79 10.292-4.87 1.848-3.009 2.943-1.385 4.523.606 1.61 2.357h5.649l-3.816-3.193-6.366-1.026Z"/><path d="m63.74 115.76-2.989 3.58 13.903-7.398.558-3.747-11.487 4.77ZM73.165 150.606l-2.062 4.734 4.566 3.085 1.8-.953 2.81 3.119 1.904-6.161 1.675-12.956.884-3.944 3.068-4.045 2.177-2.86-3.974-1.198-1.965-.713-4.29 5.817-4.276 10.414 1.02 2.019zM77.859 130.784l4.273-3.156-3.762-2.17-4.16 4.37-9.029 8.572-.927 4.68-1.57 1.96 4.973 7.078ZM99.83 154.03l-5.962-.97-.884-4.385-7.145-2.357-1.475 15.507 4.788.125 4.881.603 8.34-1.729z"/><path d="m110.333 145.585-.026-.037-1.836-2.675.238-.643-.06-1.402-.224-1.572-.967-2.923.853-2.334-4.284.14 1.925 2.302-1.706.285-1.831 1.828-1.814-.591-1.632-.492-.22 3.178-1.313-.128-.946-3.022-.677 2.51-1.905-2.464-5.24-.853-2.007 3.673-.44 2.73 6.206 2.828 5.24 3.27 7.793 4.816 5.956-1.618.73-1.922-1.355-2.533zm-4.421-5.45-3.548 1.077-.049-.284 1.706-1.811 2.383-.265zM109.648 114.916l1.748-1.137-.568-2.593-.23-1.214-3.128-.685-1.334-.711-5.444-.62-4.131.44-1.311-1.58-4.376-.284-5.032.409-2.357-2.613-2.337-.554-2.422 1.396-1.644 3.91.427 4.65 2.183 3.17 1.24 6.907 4.46 1.99 5.866-.594 2.52-4.305 5.45-.247 1.959-2.8.4 5.347 2.53-3.07 3.447-1.22 1.171-.825.569-1.677-3.233-2.275.4-1.632 1.542 1.138.472-2.767.978.017-.74 3.153zm-27.01-3.958-2.093-3.744 2.576.623zm10.89-.42-1.977-.725-2.3-.822.71-.267 4.442-.26.52 1.707z"/><path d="m282.12 207.94-5.74 3.92v-5.65l5.74-3.92h5.74v37.27h-5.74zM305.42 223.9l-.11-.1a2.32 2.32 0 0 1-.87.34 7.4 7.4 0 0 1-1.55.13 5.94 5.94 0 0 1-2.81-.68 5.53 5.53 0 0 1-2-1.73 4.37 4.37 0 0 1-.62-1.13 7.73 7.73 0 0 1-.37-1.54 22.1 22.1 0 0 1-.2-2.38q-.06-1.44-.06-3.64 0-1.83.06-3a16.11 16.11 0 0 1 .2-2 6 6 0 0 1 .4-1.39 9.25 9.25 0 0 1 .65-1.2 7.55 7.55 0 0 1 3-2.67 9.38 9.38 0 0 1 4.25-.94 9 9 0 0 1 4.22 1 8 8 0 0 1 3 2.64 13.59 13.59 0 0 1 .67 1.2 5.13 5.13 0 0 1 .42 1.39 16.71 16.71 0 0 1 .2 2q.06 1.18.06 3t-.06 2.85a16.48 16.48 0 0 1-.2 1.94 12.32 12.32 0 0 1-.34 1.47q-.2.65-.48 1.39l-7.54 18.74h-6.42zm-2.87-7a2.44 2.44 0 0 0 .84 1.94 3 3 0 0 0 3.94 0 2.44 2.44 0 0 0 .84-1.94V210a2.44 2.44 0 0 0-.84-1.94 3 3 0 0 0-3.94 0 2.44 2.44 0 0 0-.84 1.94zM320.56 210a7.67 7.67 0 0 1 .7-3.35 7.86 7.86 0 0 1 1.89-2.51 8.22 8.22 0 0 1 2.73-1.6 9.81 9.81 0 0 1 6.47 0 8.27 8.27 0 0 1 2.73 1.6 7.87 7.87 0 0 1 1.88 2.51 7.64 7.64 0 0 1 .7 3.35v21.88a7.63 7.63 0 0 1-.7 3.35 7.87 7.87 0 0 1-1.88 2.51 8.26 8.26 0 0 1-2.73 1.6 9.81 9.81 0 0 1-6.47 0 8.21 8.21 0 0 1-2.73-1.6 7.86 7.86 0 0 1-1.89-2.51 7.66 7.66 0 0 1-.7-3.35zm5.74 21.88a2.54 2.54 0 0 0 .79 1.91 3.09 3.09 0 0 0 4.05 0 2.54 2.54 0 0 0 .79-1.91V210a2.55 2.55 0 0 0-.79-1.91 3.09 3.09 0 0 0-4.05 0 2.54 2.54 0 0 0-.79 1.91zM351.12 218a7.74 7.74 0 0 0 3.57-.58q1-.58 1-2.67v-4.82a2.5 2.5 0 0 0-.76-1.88 2.84 2.84 0 0 0-2.05-.73 2.5 2.5 0 0 0-2.17.89 3 3 0 0 0-.65 1.73v3h-5.74v-3.09a7.31 7.31 0 0 1 .68-3.09 7.53 7.53 0 0 1 1.86-2.51 9.26 9.26 0 0 1 2.76-1.68A9 9 0 0 1 353 202a8 8 0 0 1 3.91.86 8.92 8.92 0 0 1 2.34 1.75 10.28 10.28 0 0 1 1 1.28 5.69 5.69 0 0 1 .68 1.52 12.74 12.74 0 0 1 .4 2.09 27.4 27.4 0 0 1 .14 3q0 1.94-.09 3.14a5.87 5.87 0 0 1-.45 2 3.81 3.81 0 0 1-1.07 1.39 13 13 0 0 1-1.94 1.26 10.93 10.93 0 0 1 2.05 1.47 4.24 4.24 0 0 1 1 1.6 7.34 7.34 0 0 1 .39 2.2q.06 1.28.06 3.27 0 1.83-.09 3a15.09 15.09 0 0 1-.25 2 5.89 5.89 0 0 1-.45 1.39 8.54 8.54 0 0 1-.73 1.2 8.15 8.15 0 0 1-7.09 3.4 10.82 10.82 0 0 1-2.87-.42 8 8 0 0 1-2.76-1.36 7.5 7.5 0 0 1-2.05-2.46 7.76 7.76 0 0 1-.82-3.72v-3H350v2.77a2.91 2.91 0 0 0 .76 2.07 3 3 0 0 0 4.11 0 3 3 0 0 0 .76-2.17v-5.33a6.52 6.52 0 0 0-.2-1.78 2 2 0 0 0-.7-1.07 2.94 2.94 0 0 0-1.38-.52 16.21 16.21 0 0 0-2.28-.13zM77.19 70.87H92v44h18.27v-44h14.8v102.75h-14.8v-45.75H92v45.75H77.19ZM146.95 70.87H191v13.85h-29.3v30.17h25.53v13.85h-25.49v30.16H191v14.72h-44.05zM209.59 70.87h23.79q26.11 0 26.11 30.16a37.93 37.93 0 0 1-2.83 15.37 21.79 21.79 0 0 1-9.93 10.32l16 46.9H247l-13.78-43.87h-8.85v43.87h-14.8zm14.8 45.89h8.41a15 15 0 0 0 6.24-1.08 8 8 0 0 0 3.55-3.1 13.22 13.22 0 0 0 1.67-5 54.34 54.34 0 0 0 0-13.71 12.36 12.36 0 0 0-1.81-5.05 8.2 8.2 0 0 0-3.84-3.1 17.55 17.55 0 0 0-6.53-1h-7.69zM295.55 70.87h12.33l23.06 102.76h-14.79l-4.35-22.08h-20.16l-4.35 22.08h-14.8zm6.24 29.59h-.29l-7.25 37.23H309ZM390.48 150.68a23.33 23.33 0 0 1-1.81 9.09 23.83 23.83 0 0 1-5 7.58 24.74 24.74 0 0 1-7.47 5.2 22 22 0 0 1-9.21 1.95 33.26 33.26 0 0 1-8.56-1.15 20.79 20.79 0 0 1-7.83-4 21.41 21.41 0 0 1-5.73-7.43 26.63 26.63 0 0 1-2.25-11.69V93.67a24.92 24.92 0 0 1 1.74-9.38 22.07 22.07 0 0 1 4.93-7.5 23 23 0 0 1 7.62-5 25.72 25.72 0 0 1 9.79-1.8 24.4 24.4 0 0 1 9.43 1.8 22.56 22.56 0 0 1 7.54 5.05 23.29 23.29 0 0 1 5 7.79 26.48 26.48 0 0 1 1.81 9.89v5.77h-14.79V95.4a11.89 11.89 0 0 0-2.46-7.5 8 8 0 0 0-6.67-3.18q-5.51 0-7.33 3.39a18.1 18.1 0 0 0-1.81 8.59v52.53a13.56 13.56 0 0 0 2 7.5q2 3 7 3a10.75 10.75 0 0 0 3.12-.5 8.59 8.59 0 0 0 3-1.66 8.37 8.37 0 0 0 2.25-3.17 12.84 12.84 0 0 0 .87-5.05v-5.05h14.79zM407.8 70.87h14.79v88h26.47v14.72H407.8ZM458.44 70.87h44.09v13.85h-29.3v30.17h25.53v13.85h-25.53v30.16h29.3v14.72h-44.09zM566.27 100.45h-14.8v-3.32a15.65 15.65 0 0 0-2.39-8.73q-2.39-3.68-8-3.68a9.77 9.77 0 0 0-5 1.16 8.57 8.57 0 0 0-3 3 12.32 12.32 0 0 0-1.62 4.12 27.38 27.38 0 0 0-.43 5 50.3 50.3 0 0 0 .22 5.12 9 9 0 0 0 1.08 3.61 8.39 8.39 0 0 0 2.54 2.67 23.24 23.24 0 0 0 4.57 2.31l11.31 4.47a28.2 28.2 0 0 1 8 4.4 17.84 17.84 0 0 1 4.71 5.92 25 25 0 0 1 2.25 7.79 77.41 77.41 0 0 1 .58 10 52.56 52.56 0 0 1-1.29 12.09 25.29 25.29 0 0 1-4.28 9.53 20.49 20.49 0 0 1-7.9 6.28 28.3 28.3 0 0 1-12 2.31 26.46 26.46 0 0 1-10-1.88 23.79 23.79 0 0 1-13.27-12.85 23.82 23.82 0 0 1-2-9.67v-5.48h14.75v4.62a12 12 0 0 0 2.39 7.29q2.39 3.25 8.05 3.25a13 13 0 0 0 5.87-1.08 7.45 7.45 0 0 0 3.19-3 12.41 12.41 0 0 0 1.38-4.83q.29-2.89.29-6.35a62.56 62.56 0 0 0-.29-6.64 10.55 10.55 0 0 0-1.23-4.19 7.56 7.56 0 0 0-2.61-2.6 34.87 34.87 0 0 0-4.42-2.17l-10.59-4.33q-9.57-3.9-12.83-10.32t-3.26-16.09a37.13 37.13 0 0 1 1.6-11 25.49 25.49 0 0 1 4.71-8.95 22.42 22.42 0 0 1 7.9-6A26.16 26.16 0 0 1 541.61 70a24.68 24.68 0 0 1 10.08 2 25.11 25.11 0 0 1 7.83 5.34 23.72 23.72 0 0 1 5 7.43 21.45 21.45 0 0 1 1.75 8.44z" class="cls-1" style="fill:#fff" transform="matrix(.28431 0 0 .28431 1 1)"/></g></svg>