<svg xmlns="http://www.w3.org/2000/svg" width="566.9292" height="467.65811" viewBox="0 0 566.9292 467.65811"><path d="M297.638 264.996a283.465 194.89 0 0 1 283.464 194.889 283.465 194.89 0 1 1-283.464-194.89Z" style="fill:#bb9753;fill-rule:evenodd" transform="translate(-14.173 -187.116)"/><path d="M297.638 309.57a238.89 150.315 0 0 1 238.89 150.315 238.89 150.315 0 1 1-238.89-150.315Z" style="fill:#fff;fill-rule:evenodd" transform="translate(-14.173 -187.116)"/><path d="M297.638 309.57c49.952 0 96.32 9.658 134.667 26.16H162.97c38.346-16.502 84.715-26.16 134.667-26.16zM490.512 371.205c12.475 10.723 22.74 22.524 30.392 35.139H74.372c7.65-12.615 17.917-24.416 30.392-35.14zM534.812 441.864a96.39 96.39 0 0 1 1.716 18.02c0 5.79-.539 11.5-1.552 17.118H60.3a96.343 96.343 0 0 1-1.552-17.117c0-6.1.594-12.112 1.716-18.021zM521.45 512.522c-7.491 12.602-17.592 24.4-29.89 35.139H103.715c-12.298-10.738-22.4-22.537-29.89-35.139ZM435.095 582.823c-38.877 17.244-86.288 27.377-137.457 27.377-51.17 0-98.58-10.133-137.457-27.377z" style="fill:#ed1c24;fill-rule:evenodd" transform="translate(-14.173 -187.116)"/><path d="M289.938 276.988c7.98-.304 15.694-.078 22.947.222 2.186.09 3.214 1.797 3.084 3.458-.123 1.56-1.204 3.038-3.123 2.984-7.373-.21-14.508-.524-22.612-.148-2.294 0-3.71 1.614-3.71 3.706 0 2.197 1.845 3.81 4.155 3.78 7.565-.098 15.745-.088 21.73.222 1.932.1 3.025 1.577 3.036 3.192.01 1.614-1.057 3.276-3.144 3.25a767.723 767.723 0 0 0-21.474 0c-5.663.08-10.892-4.372-10.892-10.37 0-5.972 4.37-10.081 10.003-10.296zm220.137 68.824a166.393 166.393 0 0 1 17.073 16.172c1.472 1.606 1.101 3.656-.106 4.796-1.134 1.072-3.197 1.076-4.543-.282-3.947-3.986-10.046-10.417-16.373-15.456-1.79-1.425-3.919-1.494-5.327.054-1.478 1.625-1.33 4.12.414 5.621 5.77 4.966 11.916 10.66 15.54 14.782 1.27 1.446 1.24 3.24.16 4.432-1.078 1.192-3.357 1.656-4.79.155-4.322-4.531-7.937-8.212-15.213-14.38-2.35-1.99-3.569-5.004-3.598-8.022-.025-2.519 1.063-5.152 2.71-7 3.77-4.236 9.698-4.446 14.053-.872zm32.833 35.56c4.785 6.78 8.5 12.892 12.081 20.187.962 1.958.09 3.817-1.378 4.595-1.38.73-3.416.213-4.304-1.482-2.742-5.231-7.03-13.053-11.79-19.593-1.348-1.852-3.311-2.253-5.08-1.136-1.858 1.173-2.324 3.588-1.008 5.478 4.657 6.682 8.476 13.242 10.871 18.18.841 1.734.26 3.453-1.098 4.315-1.357.864-3.635.74-4.587-1.105-2.924-5.662-5.323-9.988-10.716-17.797-1.751-2.536-2.109-5.698-1.334-8.617.647-2.435 2.394-4.755 4.475-6.102 4.761-3.081 10.619-1.53 13.868 3.076zm21.48 44.225c2.115 8.025 3.391 15.027 4.197 23.114.217 2.172-1.253 3.63-2.9 3.847-1.549.203-3.275-.993-3.515-2.892-.74-5.86-1.664-14.212-4.174-22.548-.661-2.194-2.481-3.248-4.528-2.82-2.152.45-3.396 2.582-2.789 4.804 2.17 7.937 3.48 15.346 3.857 20.764.133 1.924-1.01 3.232-2.585 3.568-1.574.335-3.664-.577-3.912-2.64-.76-6.327-1.402-11.03-3.728-20.232-.755-2.988-.029-6.169 1.717-8.632 1.458-2.056 3.878-3.629 6.3-4.158 5.701-1.247 10.625 2.373 12.06 7.825zm3.921 49.194c-1.071 8.23-2.607 15.121-4.913 22.914-.62 2.093-2.463 2.917-4.07 2.495-1.51-.396-2.806-2.155-2.311-4.005 1.526-5.705 3.947-13.792 4.77-22.46.216-2.28-.977-3.988-3.035-4.364-2.162-.395-4.11 1.181-4.42 3.466-1.084 7.959-2.794 15.442-4.337 20.658-.547 1.849-2.225 2.585-3.81 2.302-1.585-.283-3.068-1.795-2.538-3.805 1.628-6.168 2.895-11 4.217-20.372.791-5.601 6.616-9.612 11.99-8.682 3.493.605 6.045 2.463 7.4 5.194.926 1.868 1.352 4.39 1.057 6.659zM336.62 278.752c7.641.727 16.328 1.726 22.778 2.812 2.153.362 3.097 2.241 2.807 3.88-.272 1.538-1.575 2.93-3.473 2.674-7.273-.986-14.608-2.259-22.704-2.765-2.286-.142-3.756 1.23-3.961 3.312-.215 2.187 1.387 3.985 3.828 4.17 7.52.567 15.481 1.837 21.297 2.7 1.908.282 2.88 2.019 2.729 3.62-.152 1.603-1.623 3.171-3.678 2.854-6.718-1.039-13.654-1.955-20.933-2.622-2.287-.21-4.5-1.008-6.185-2.43-2.464-2.08-3.9-5.402-3.55-8.946.291-2.972 1.519-5.243 3.522-6.875 2.003-1.632 4.72-2.65 7.524-2.384zm46.217 7.318c7.834 1.54 15.305 3.735 22.293 5.692 2.104.59 2.77 2.635 2.263 4.22-.475 1.49-1.951 2.695-3.799 2.186-7.076-1.95-13.975-4.015-21.932-5.596-2.249-.447-4.033.697-4.514 2.733-.506 2.138.776 4.052 3.173 4.56 7.38 1.565 15.41 3.782 21.059 5.414 1.853.536 2.583 2.385 2.22 3.954-.364 1.57-1.788 2.868-3.807 2.366-7.039-1.751-13.15-3.608-20.937-5.245-5.538-1.166-9.445-6.654-8.066-12.492 1.374-5.811 6.517-8.88 12.048-7.792zm45.52 13.344c7.497 2.742 14.627 5.611 20.98 8.633 1.972.938 2.423 2.999 1.675 4.486-.702 1.397-2.263 2.35-4.02 1.58-6.716-2.944-13.243-5.718-21.005-8.515-2.155-.777-4.047-.028-4.838 1.909-.832 2.034.212 4.34 2.364 5.167 7.036 2.703 14.633 5.629 20.056 8.178 1.747.822 2.256 2.658 1.654 4.155-.601 1.497-2.288 2.688-4.192 1.84-6.683-2.976-13.03-5.425-20.087-8.197-5.269-2.07-8.165-8.197-5.894-13.749 1.271-3.11 3.812-4.972 6.525-5.807 2.11-.648 4.469-.526 6.782.32zm42.844 19.652c6.959 3.915 13.563 8.068 19.587 12.117 1.816 1.22 1.76 3.276.781 4.624-.92 1.265-2.607 1.944-4.223.909-6.224-3.991-13.252-8.574-19.34-12.027-1.995-1.132-4.112-.419-5.206 1.364-1.15 1.873-.363 4.244 1.639 5.393 6.742 3.871 13.034 7.644 18.306 11.36 1.579 1.113 1.753 2.928.917 4.308-.836 1.38-2.736 2.306-4.454 1.125-6.224-4.28-11.81-7.422-18.327-11.298-4.866-2.893-6.82-9.213-3.682-14.324 3.125-5.09 9.09-6.315 14.002-3.551zM81.581 570.953c-6.323-5.372-11.912-11.025-16.793-16.536-1.444-1.63-1.038-3.674.188-4.793 1.153-1.053 3.215-1.022 4.537.36 3.88 4.052 9.865 10.734 16.105 15.88 1.765 1.456 3.895 1.413 5.33-.11 1.506-1.6 1.254-4.173-.465-5.704-5.686-5.064-11.44-10.708-14.992-14.892-1.246-1.469-1.184-3.26-.085-4.434 1.099-1.175 3.31-1.602 4.718-.074 4.245 4.605 7.573 8.268 14.745 14.558 2.317 2.032 3.483 5.064 3.46 8.083-.017 2.52-1.15 5.132-2.828 6.954-3.841 4.171-9.626 4.356-13.92.708zM49.47 534.484c-4.56-6.934-8.075-13.09-11.416-20.499-.897-1.989.036-3.818 1.529-4.547 1.402-.685 3.42-.102 4.252 1.622 2.569 5.318 6.596 13.351 11.14 20.044 1.286 1.894 3.312 2.288 5.116 1.23 1.896-1.113 2.441-3.51 1.187-5.442-4.436-6.832-8.038-13.514-10.27-18.528-.783-1.76-.22-3.46 1.166-4.28 1.385-.817 3.656-.62 4.548 1.256 2.736 5.756 4.992 10.157 10.127 18.14 1.667 2.59 1.918 5.837 1.048 8.729-.726 2.413-2.546 4.6-4.67 5.878-4.86 2.924-10.66 1.107-13.757-3.603zm-19.846-44.913c-1.808-8.1-2.818-15.145-3.316-23.257-.133-2.179 1.317-3.584 2.972-3.737 1.555-.143 3.234 1.117 3.402 3.024.516 5.884 1.122 14.264 3.314 22.69.576 2.217 2.355 3.34 4.418 2.99 2.166-.368 3.491-2.45 2.968-4.695-1.866-8.013-2.894-15.467-3.064-20.895-.06-1.927 1.132-3.191 2.718-3.467 1.586-.275 3.64.715 3.809 2.786.518 6.352.982 11.076 2.956 20.36.641 3.014-.205 6.164-2.044 8.56-1.534 2-4.01 3.404-6.45 3.842-5.745 1.03-10.455-2.699-11.683-8.2zm-1.95-49.233c1.425-8.176 3.186-15.071 5.828-22.758.71-2.065 2.586-2.808 4.174-2.316 1.492.462 2.562 2.268 1.987 4.094-1.772 5.635-4.389 13.54-5.584 22.166-.315 2.27.803 4.026 2.842 4.49 2.143.49 4.157-1.001 4.567-3.27 1.426-7.905 3.458-15.308 5.226-20.452.626-1.823 2.334-2.486 3.905-2.135 1.572.351 2.98 1.848 2.374 3.837-1.812 5.947-3.297 10.942-5.097 20.245-1.075 5.554-7.028 9.39-12.357 8.23-3.464-.756-5.926-2.87-7.162-5.658-.846-1.907-1.097-4.219-.704-6.473zm180.115 192.477c-7.817-1.62-15.265-3.89-22.233-5.917-2.099-.61-2.743-2.663-2.221-4.242.49-1.485 1.978-2.676 3.821-2.148 7.056 2.02 13.934 4.156 21.874 5.817 2.245.47 4.04-.656 4.542-2.687.527-2.134-.734-4.134-3.126-4.666-7.363-1.639-15.445-3.936-21.077-5.627-1.85-.555-2.412-2.185-2.033-3.752.378-1.567 1.816-3.073 3.832-2.55 7.02 1.825 13.038 3.666 20.808 5.456 5.515 1.27 9.451 6.823 8.013 12.646-1.432 5.798-6.68 8.813-12.2 7.67zm-45.295-13.928c-7.449-2.87-14.529-5.86-20.83-8.99-1.956-.972-2.37-3.04-1.598-4.514.726-1.385 2.303-2.31 4.046-1.51 6.666 3.057 13.145 5.942 20.857 8.871 2.142.814 4.046.096 4.87-1.826.867-2.02-.137-4.343-2.275-5.207-6.989-2.822-14.534-5.878-19.913-8.519-1.733-.851-2.21-2.696-1.584-4.182.627-1.487 2.335-2.649 4.223-1.769 6.632 3.09 12.936 5.647 19.945 8.539 5.232 2.159 7.95 8.26 5.586 13.773-1.324 3.087-3.824 4.981-6.551 5.77-2.121.612-4.477.449-6.776-.436zM119.99 598.58c-6.89-4.034-13.423-8.299-19.377-12.45-1.794-1.251-1.703-3.306-.701-4.636.941-1.25 2.64-1.9 4.237-.837 6.155 4.097 13.106 8.65 19.134 12.207 1.976 1.165 4.102.637 5.227-1.127 1.181-1.853.437-4.311-1.545-5.495-6.676-3.985-12.977-7.866-18.185-11.671-1.56-1.14-1.702-2.957-.843-4.323.859-1.367 2.7-2.261 4.399-1.05 6.15 4.386 11.754 7.698 18.205 11.684 4.816 2.976 6.735 9.329 3.51 14.386-3.21 5.036-9.195 6.16-14.06 3.312zm433.556-77.15c-3.745 7.093-7.993 13.286-12.482 19.795-1.24 1.8-3.327 1.873-4.685.914-1.276-.9-1.85-2.95-.77-4.531 4.21-6.166 8.21-11.593 12.14-19.382 1.032-2.045.481-4.003-1.315-5.075-1.887-1.127-4.263-.407-5.354 1.626-3.798 7.078-8.086 13.775-11.357 18.12-1.16 1.542-2.987 1.644-4.374.825-1.387-.82-2.265-2.678-1.073-4.383 3.563-5.096 6.656-9.723 11.242-18.015 2.738-4.952 9.516-6.634 14.225-3.884 3.061 1.789 4.82 4.582 5.134 7.617.215 2.075-.262 4.35-1.33 6.373zm-28.615 38.872c-5.53 5.811-11.248 10.725-17.097 15.718-1.663 1.42-3.62.848-4.668-.446-.984-1.216-1.15-3.123.291-4.39 5.514-4.843 10.44-8.74 16.819-15.467 1.578-1.664 1.531-3.83.058-5.314-1.51-1.522-3.91-1.45-5.54.183-5.307 5.317-11.295 10.775-15.887 14.52-1.497 1.22-3.358.932-4.472-.233-1.114-1.166-1.444-3.3.122-4.671 5.12-4.48 9.136-7.79 15.801-14.526 3.98-4.022 10.926-3.723 14.71.204 2.46 2.552 3.396 5.645 2.874 8.649-.356 2.055-1.432 4.114-3.01 5.773zm-36.835 30.234c-6.626 4.454-13.454 8.397-19.78 11.957-1.905 1.073-3.717.098-4.48-1.382-.717-1.39-.581-3.232 1.087-4.18 6.381-3.627 12.716-7.257 19.457-11.77 1.907-1.276 2.305-3.398 1.205-5.177-1.156-1.87-3.594-2.3-5.522-1.03-6.273 4.132-13.196 8.278-18.452 11.015-1.714.893-3.403.25-4.26-1.118-.857-1.367-.821-3.343.965-4.418 6.216-3.74 11.48-6.695 18.194-10.997 4.767-3.054 11.486-2.084 14.64 3.017 3.142 5.08 1.625 10.938-3.053 14.083zm-41.544 22.583c-7.296 3.242-14.399 6.117-21.242 8.532-2.061.728-3.826-.471-4.322-2.06-.466-1.494-.005-3.255 1.792-3.93 6.929-2.604 13.706-5.198 21.125-8.477 2.097-.927 2.772-2.95 1.995-4.892-.815-2.04-3.053-2.852-5.186-1.969-6.989 2.897-14.588 6.073-20.26 8.008-1.83.624-3.469-.342-4.078-1.837-.609-1.495-.158-3.435 1.788-4.185 6.77-2.61 13.086-5.206 20.087-8.12 5.227-2.175 11.515.166 13.741 5.736 1.247 3.119.925 6.329-.447 8.816-1.066 1.935-2.74 3.377-4.993 4.378zm-44.276 15.859c-7.653 2.276-15.183 3.974-22.282 5.485-2.14.455-3.578-1.014-3.865-2.656-.27-1.541.415-3.225 2.284-3.666 7.197-1.695 15.224-3.5 21.94-5.473 2.2-.647 3.267-2.56 2.747-4.586-.546-2.13-2.733-3.233-4.963-2.63-7.304 1.974-15.232 4.07-21.106 5.258-1.894.383-3.321-.777-3.733-2.338-.41-1.56.212-3.436 2.239-3.929 7.05-1.715 13.706-3.274 21.024-5.26 5.463-1.485 11.413 1.454 12.903 7.264 1.484 5.785-1.784 10.923-7.188 12.53zM44.006 394.326c3.942-6.986 8.362-13.057 13.03-19.439 1.29-1.763 3.38-1.778 4.71-.782 1.25.937 1.693 2.998.569 4.55-4.383 6.045-8.283 10.88-12.603 18.961-1.08 2.022-.594 4.063 1.172 5.185 1.854 1.18 4.251.452 5.399-1.55 3.995-6.969 8.466-13.47 11.858-17.721 1.203-1.51 3.032-1.56 4.396-.702 1.363.858 2.188 2.74.949 4.411-3.704 4.995-6.922 9.385-11.738 17.546-2.876 4.873-9.701 6.513-14.332 3.632-3.01-1.874-4.69-4.715-4.918-7.757-.157-2.081.383-4.34 1.508-6.334zm29.67-38.047c5.64-5.704 11.525-10.505 17.47-15.385 1.69-1.387 3.637-.778 4.659.537.96 1.234 1.09 3.144-.376 4.382-5.606 4.737-10.606 8.54-17.114 15.141-1.61 1.634-1.642 3.764-.234 5.31 1.48 1.626 3.954 1.528 5.617-.074 5.407-5.213 11.426-10.556 16.09-14.212 1.52-1.192 3.3-.87 4.392.317 1.093 1.187 1.382 3.327-.212 4.668-5.206 4.38-9.134 7.465-15.927 14.074-4.057 3.947-11.073 3.732-14.782-.267-2.412-2.599-3.285-5.782-2.705-8.777.396-2.05 1.511-4.087 3.121-5.714zm37.408-29.444c6.711-4.327 13.614-8.137 20.007-11.574 1.926-1.036 3.718-.027 4.453 1.468.69 1.405.519 3.243-1.167 4.159-6.45 3.503-12.854 7.01-19.68 11.392-1.932 1.24-2.37 3.353-1.305 5.153 1.12 1.891 3.549 2.37 5.5 1.137 6.352-4.012 13.357-8.171 18.665-10.806 1.731-.86 3.407-.184 4.237 1.2.831 1.383.758 3.358-1.05 4.398-6.288 3.619-11.607 6.546-18.403 10.719-4.825 2.962-11.6 1.935-14.656-3.227-3.042-5.138-1.339-10.965 3.4-14.02zm41.81-21.896c7.307-3.217 14.49-5.92 21.345-8.309 2.065-.72 3.677.558 4.167 2.15.46 1.497-.002 3.268-1.807 3.924-6.933 2.518-13.649 4.925-21.08 8.18-2.102.92-2.856 2.866-2.087 4.81.809 2.044 3.117 2.865 5.254 1.988 6.999-2.874 14.609-5.874 20.289-7.788l-3.356 8.201a842.815 842.815 0 0 0-14.418 5.803c-5.235 2.158-11.663-.133-13.87-5.71-2.196-5.554.403-10.977 5.562-13.249zm44.393-15.187c7.68-2.183 15.23-3.787 22.348-5.21 2.146-.43 3.566 1.057 3.832 2.702.25 1.545-.45 3.236-2.328 3.637-7.214 1.54-14.22 2.922-22.005 5.204-2.23.543-3.223 2.446-2.729 4.478.52 2.136 2.694 3.266 4.93 2.69 7.328-1.883 15.28-3.809 21.168-4.923 1.9-.36 3.312.817 3.704 2.383.392 1.566-.253 3.434-2.287 3.902a767.627 767.627 0 0 0-20.864 5.078c-5.483 1.419-11.617-1.671-13.036-7.5-1.412-5.802 1.844-10.9 7.267-12.44zm45.94-9.232c7.89-1.238 15.578-1.843 22.815-2.395 2.182-.166 3.412 1.481 3.477 3.146.062 1.564-.84 3.158-2.752 3.33-7.346.656-14.468 1.18-22.473 2.503-2.278.269-3.495 2.037-3.25 4.115.258 2.183 2.279 3.567 4.57 3.267 7.5-.984 15.626-1.933 21.607-2.326 1.93-.128 3.188 1.212 3.388 2.813.2 1.602-.666 3.378-2.742 3.597a768.05 768.05 0 0 0-21.326 2.517c-5.614.744-11.33-3.065-12.032-9.022-.7-5.93 3.149-10.671 8.719-11.545z" style="fill:#fff;fill-rule:evenodd" transform="translate(-14.173 -187.116)"/><path d="M172.067 298.187 87.446 584.614l9.69 2.823 10.743-36.332 469.346-100.913-398.133-139.92 2.646-8.949 4.784 1.552c.952-1.567 1.245-3.15 1.245-5.118 0-5.722-4.64-10.363-10.364-10.363-5.365 0-9.853 3.93-10.384 9.156zm-63.499 250.588 69.974-236.644a416.123 416.123 0 0 1 4.305 54.509c.17 12.838-.19 25.673-1.4 38.455-1.202 12.715-3.107 25.378-5.994 37.823-5.905 25.45-15.604 49.748-31.172 70.89-9.981 13.555-22.02 25.216-35.713 34.967z" style="fill:#141516;fill-rule:evenodd" transform="translate(-14.173 -187.116)"/><path d="m172.857 298.435-84.49 285.676 3.638 1.06 84.648-285.488zm-5.023-2.4 11 3.568c2.183-3.456 2.747-8.33-.326-11.406a9.712 9.712 0 0 0-1.105-.063c-4.701 0-8.803 3.28-9.569 7.902z" style="fill:#fff;fill-rule:evenodd;stroke:#1b1918;stroke-width:.0028;stroke-linecap:butt;stroke-linejoin:miter;stroke-dasharray:none" transform="translate(-14.173 -187.116)"/><path d="M107.508 550.427 574.503 450.02 179.136 311.072c3.02 19.998 4.22 38.176 4.451 55.558a357.726 357.726 0 0 1-1.55 38.535c-1.264 13.367-3.311 25.964-6.085 37.92-6.397 27.57-16.462 51.216-31.148 71.161-10.373 14.086-22.838 26.122-37.296 36.181z" style="fill:#fff;fill-rule:evenodd;stroke:#000200;stroke-width:.0028;stroke-linecap:butt;stroke-linejoin:miter;stroke-dasharray:none" transform="translate(-14.173 -187.116)"/><path d="m256.717 187.117 7.019 21.743 22.847-.044-18.51 13.394 7.102 21.716-18.458-13.465-18.458 13.465 7.102-21.716-18.51-13.394 22.848.044zM338.35 187.116l7.018 21.743 22.847-.044-18.51 13.394 7.102 21.715-18.458-13.464-18.458 13.464 7.102-21.715-18.51-13.394 22.848.044z" style="fill:#bb9753;fill-rule:evenodd" transform="translate(-14.173 -187.116)"/><path d="m320.297 422.724 4.691-16.324c-7.378-2.85-14.131-4.139-20.163-4.255-10.296-.199-18.997 2.595-24.621 7.265-6.557 5.444-7.786 12.042-8.137 16.643-.255 3.35-.101 9.378 4.57 14.487 2.939 3.212 8.156 5.259 14.219 7.397 6.604 2.33 7.85 5.03 7.307 8.418-.3 1.866-1.474 3.845-4.283 5.01-5.68 2.358-18.45 1.52-29.123-4.12l-4.556 16.45c7.881 4.054 17.462 4.994 25.02 4.946 6.747-.043 12.884-1.181 17.782-3.256 5.814-2.464 10.39-6.38 12.798-12.368 1.134-2.822 1.669-5.92 1.76-9.046.155-5.234-.508-10.437-5.822-14.932-5.548-4.692-14.53-5.67-18.238-8.996-1.748-1.568-2.323-3.997-1.747-6.32.94-3.789 5.307-5.213 10.258-5.374 6.365-.205 13.998 1.792 18.285 4.375zM328.71 403.927l4.396 73.063h25.036l40.851-72.993h-34.62l-5.064 16.838h9.894l-18.187 34.982-1.135.008-1.235-51.898zM232.188 420.233l-5.84 19.934c1.866.001 3.508.067 5.418-.054 3.916-.247 8.036-1.05 10.96-3.148 1.977-1.419 3.77-3.471 4.462-6.429.846-3.354.24-5.63-.986-7.168-.788-.986-1.8-1.817-3.052-2.284-3.202-1.193-7.66-.851-10.962-.851zm-10.383 36.358-6.017 20.53h-18.883l16.251-56.301h-9.63l4.96-16.891h31.256c7.843 0 16.611 1.618 22.133 7.646 4.113 4.491 6.11 11.044 4.695 18.825a30.681 30.681 0 0 1-.852 3.584c-2.359 7.613-7.697 13.19-13.834 16.541-8.56 4.675-16.26 5.98-30.08 6.066z" style="fill:#141516;fill-rule:evenodd" transform="translate(-14.173 -187.116)"/><path d="m307.83 620.707-9.448.2.097 4.648 4.264-.09.406 19.376 5.184-.108zM340.973 618.405l-9.392 1.052.517 4.62 4.238-.474 2.152 19.26 5.154-.575zM272.062 620.042l-.2 4.793 5.891.244-.797 19.216 5.181.214.797-19.215 5.889.244.198-4.793zM236.108 615.734l14.935 2.224-.705 4.744-9.807-1.458-.722 4.852 9.28 1.38-.662 4.452-9.28-1.38-.74 4.98 9.819 1.46-.706 4.744-14.947-2.228zM269.16 625.246l.45-4.988c-2.222-.942-4.465-1.333-6.398-1.467-3.301-.23-5.577.773-7.119 2.19-1.01.929-1.678 2.33-1.985 3.577-.63 2.562-.057 5.664 2.937 7.409 1.136.663 2.632 1.206 4.108 1.773 2.238.86 2.462 1.868 2.353 2.819-.117 1.03-.845 1.633-1.79 1.885a7.749 7.749 0 0 1-2.446.241c-1.595-.105-4.55-.78-6.434-1.716l-.32 4.962c2.138.84 4.852 1.305 6.444 1.428 2.567.198 5.04-.074 6.887-1.348 1.105-.763 2.062-1.917 2.603-3.47.836-2.397.576-5.967-1.755-7.67-2.084-1.523-5.179-2.081-6.546-3.217-.644-.534-.94-1.29-.83-2.068.266-1.861 2.176-2.007 3.75-1.977 2.023.037 4.578.732 6.09 1.637zM320.275 619.725c2.109-.153 4.014.374 5.427 1.424 2.607 1.94 3.898 5.638 4.213 9.973.265 3.657-.103 7.31-1.852 9.832-1.245 1.795-3.535 3.082-6.074 3.432-2.2.303-4.556.289-6.706-.347l-.27-4.97c1.127.604 3.655 1.012 4.952.918 3.894-.282 4.85-2.989 4.81-5.914-1.491 1.31-3.086 1.688-4.545 1.71-1.727.027-3.563-.672-4.802-2.017-1.239-1.346-1.937-3.17-2.12-5.851-.134-1.98.594-4.387 1.868-5.821 1.292-1.454 3.216-2.233 5.1-2.37zm4.181 10.227c-.46-3.44-1.347-5.513-3.26-5.542-.948-.014-1.715.37-2.204 1.296-.293.556-.46 1.38-.433 2.348.051 1.796.939 3.16 2.86 3.05.809-.046 2.011-.516 3.037-1.152zM345.805 617.8l13.823-1.985.677 4.714-4.513 6.187c4.345.455 6.777 2.554 7.202 6.26.304 2.653-.576 6.454-6.735 7.895-1.803.422-4.137.598-6.948.428l-.732-5.033c2.952.574 4.137.467 5.629.204 3.301-.58 3.503-2.098 3.474-2.652-.05-1.015-.416-2.544-3.367-2.604-1.24-.025-2.52.144-3.755.24l-.574-4.063 4.189-5.982-7.693 1.105z" style="fill:#fff;fill-rule:evenodd" transform="translate(-14.173 -187.116)"/></svg>