<svg xmlns="http://www.w3.org/2000/svg" xml:space="preserve" width="193.52571" height="254" viewBox="0 0 193.52571 253.99999"><path d="m23.242 740.88-.779-.17-.005-401.026c-.036-23.087-.068-43.026 8.207-64.303 14.278-36.718 39.168-69.656 80.7-106.804 78.89-70.56 183.661-119.952 184.71-120.443l.42-.196.419.196c1.049.491 105.815 49.883 184.707 120.443 41.531 37.147 66.42 70.086 80.7 106.804 8.275 21.276 8.242 41.214 8.206 64.3l-.005 401.029-.779.17c-53.191 11.606-174.406 30.019-273.23 30.019-98.863 0-220.08-18.413-273.271-30.02z" style="fill:#2b63b7;fill-opacity:1;fill-rule:nonzero;stroke:none" transform="matrix(.3458 0 0 -.3458 -5.764 268.577)"/><path d="M296.473 768.919c98.244 0 218.574-18.21 272.069-29.807l.01-403.94c0-21.002-.476-39.53-8.076-59.073-14.161-36.412-38.888-69.119-80.175-106.046-76.155-68.115-176.52-116.461-183.806-119.927-7.287 3.466-107.656 51.812-183.81 119.927C71.397 206.98 46.67 239.688 32.51 276.099c-7.6 19.546-8.076 38.075-8.076 59.08l.01 403.933c53.494 11.597 173.826 29.807 272.029 29.807z" style="fill:#fff;fill-opacity:1;fill-rule:nonzero;stroke:none" transform="matrix(.3458 0 0 -.3458 -5.764 268.577)"/><path d="M117.026 732.934v-537.88l.023-.794c-42.275 39.817-57.051 68.513-65.163 89.374-6.247 16.062-6.662 31.965-6.662 51.51l.01 386.996c19.453 3.764 44.202 7.918 71.804 11.78l-.012-.986zM188.818 137.82v71.572l.675.018h70.352l.764-.02V93.27l.012-.854c-20.374 11.436-45.709 26.61-71.788 44.608l-.015.795zM332.379 93.332v116.06l.663.018h70.537l.585-.063V138.19l.017-1.149c-26.062-17.987-51.38-33.154-71.75-44.589l-.052.88zM475.958 194.89v537.859l.015 1.166c27.592-3.86 52.332-8.012 71.779-11.775l.01-387.002c0-19.543-.417-35.443-6.662-51.504-8.111-20.857-22.882-49.545-65.136-89.349l-.006.605z" style="fill:#2b63b7;fill-opacity:1;fill-rule:nonzero;stroke:none" transform="matrix(.3458 0 0 -.3458 -5.764 268.577)"/><path d="M475.964 194.285a497.776 497.776 0 0 0-9.524-8.736c-19.768-17.682-41.255-34.01-62.26-48.507l-.016 1.15v71.155l-.585.063h-70.537l-.663-.018V93.332l.052-.879c-15.424-8.66-28.011-15.178-35.936-19.16-7.914 3.977-20.478 10.482-35.874 19.123l-.012.855v116.12l-.764.02h-70.352l-.675-.02V137.82l.014-.795c-21.013 14.501-42.51 30.836-62.287 48.526a500.888 500.888 0 0 0-9.496 8.71l-.023.795v537.88l.012.985c54.928 7.683 121.153 14.209 179.435 14.209 58.315 0 124.563-6.528 179.5-14.214l-.015-1.166v-537.86l.006-.604z" style="fill:#fee816;fill-opacity:1;fill-rule:nonzero;stroke:none" transform="matrix(.3458 0 0 -.3458 -5.764 268.577)"/><path d="M256.44 607.266s1.183 12.074 5.57 19.429c4.207 7.054 10.518 13.365 17.82 15.221 8.028 2.041 14.23 2.97 18.562 6.56 3.587 2.97 3.96 7.176 2.351 7.795-1.608.62-6.31-.248-9.281-.99-2.97-.742-5.197-2.722-5.197-2.722s-.248 2.722.247 3.836c.495 1.114.371 1.732-.124 3.465-.495 1.732-.123 3.341-.123 3.341 5.444-.495 10.518.124 12.127 2.104s.248 6.682-1.856 8.291c-2.104 1.61-6.683.99-9.53.124-2.845-.866-6.434-2.97-6.434-2.97-3.342 5.321-2.97 8.291-2.97 8.291-3.712 2.846-1.732 5.074 3.217 8.167 4.95 3.094 10.024 5.322 10.024 5.322 3.465 7.549 10.89 7.053 18.068 6.806 7.177-.247 9.404-.124 10.395 1.238.99 1.361 1.114 4.455 1.114 4.455 4.702-3.96 1.855-7.673-1.98-9.777-3.836-2.104-6.807-6.806-6.435-9.157.371-2.351 1.732-2.599 1.732-2.599.495 6.064 8.291 11.633 15.345 11.756 7.054.124 11.756-3.464 11.756-3.464-1.484-7.55-9.404-10.767-12.375-9.158-2.505 1.357-2.97 5.445-2.97 5.445s-.742-.495-.742-3.589c0-3.093 5.444-8.539 12.375-4.702 0 0 2.723-1.857 4.826-5.94 2.104-4.084 1.857-9.777.495-15.221-1.361-5.446-.99-10.272 1.485-12.5 2.475-2.227 7.053-.99 7.053-.99s-.076-3.762-3.464-5.816c-4.084-2.475-9.653.371-9.653.371s-2.97-4.083-3.465-9.528c-.495-5.445 4.084-9.034 8.54-9.158 0 0-1.86-2.792-6.683-3.093-5.94-.371-10.396 5.692-10.396 5.692s-1.237-2.599-1.732-8.539c-.495-5.94 4.702-11.137 4.702-11.137s-1.113-3.094-7.548-5.816c-6.435-2.723-7.302-2.723-7.302-2.723s-6.063 5.445-8.539 9.777c0 0-1.361-4.827-.618-10.767 0 0-10.488-.593-17.077 2.6-7.92 3.835-14.355 8.043-20.048 9.899-4.994 1.628-11.261.371-11.261.371m45.663 80.19s-4.826.248-7.177.124-4.579-1.856-5.322-3.713c0 0 2.104-2.97 5.075-3.094 2.97-.123 7.3 2.228 7.424 6.683z" style="fill:#2b63b7;fill-opacity:1;fill-rule:nonzero;stroke:none" transform="matrix(.3458 0 0 -.3458 -5.764 268.577)"/><path d="M287.007 667.409s-.384-.92-3.713-1.238c-2.598-.247-7.3-1.485-12.003-3.713-4.703-2.227-10.271-2.722-13.365-.123-3.094 2.599-2.723 6.559-2.475 9.529 0 0 2.97-4.208 7.053-5.446 3.938-1.192 6.064-.618 10.148.372s10.147 1.114 14.355.619zM253.1 627.19s.866 3.465 3.96 8.415c3.093 4.95 9.28 8.043 9.28 8.043s-9.404 2.228-14.85 4.456c-5.444 2.227-12.25 5.94-14.973 10.766 0 0 .371 3.96-1.732 5.94-2.104 1.98-5.693 1.485-5.693 1.485s.247 1.732 1.485 3.341c1.237 1.61 1.361 4.95-3.465 6.683 0 0 .618-1.98.371-3.465-.247-1.485-.99-3.094-3.217-3.218 0 0 .618 4.703-1.485 6.559-2.104 1.856-5.198 1.609-7.55-.124 0 0 2.105-.618 3.59-1.98 1.485-1.361.866-4.702.866-4.702s-1.485 1.237-4.084 2.103c-2.599.867-5.94-1.732-6.559-4.083 0 0 1.61.37 3.218.37 1.609 0 3.589-2.35 4.455-4.083 0 0-.99-6.064 3.836-7.425 0 0-1.361-1.856-1.732-4.331-.372-2.475 1.609-5.816 1.609-5.816s.866 4.084 2.35 5.197c1.486 1.114 3.96.248 5.446-1.237 1.485-1.485 1.98-3.342.866-5.816-1.114-2.476 1.114-6.312 2.351-7.797 0 0 .495 3.094 1.856 4.084 1.362.99 2.97.742 7.054-2.351 4.084-3.094 12.747-11.014 12.747-11.014zM376.974 457.652s-2.476-4.207-8.292-4.33c-3.466-.075-7.054 3.464-7.054 3.464-3.34-.99-4.331-3.589-3.094-6.31 1.237-2.724 5.074-5.57 5.074-5.57s-4.33 0-8.663 1.733c-4.33 1.732-3.588 5.197-3.588 5.197s-3.093-1.485-5.445-2.599c-2.351-1.113-6.187-.618-8.91.867-2.723 1.485-6.064.99-8.662-1.114-2.6-2.104-2.105-5.445-2.105-5.445-3.093 2.104-4.578 7.549-2.35 10.642 2.227 3.094 6.434 3.837 6.434 3.837-1.732 2.722-4.826 3.217-7.424 2.103-2.6-1.113-3.96-2.598-3.96-2.598s-.99 3.217 1.113 6.435c2.104 3.217 5.692 3.836 8.663 3.217 3.15-.656 4.702-2.35 4.702-2.35s.371 3.835-2.227 6.187c-2.021 1.828-4.95.866-4.95.866 1.238 3.217 7.301 5.074 10.024 3.341 2.722-1.732 3.712-4.95 6.558-5.569 2.846-.618 8.786 0 8.786 0s.496 5.817-3.093 14.231c-3.59 8.415-8.91 12.128-15.964 15.222-7.054 3.094-14.479 4.454-18.192 7.796-3.711 3.341-4.826 7.549-4.826 7.549-1.361-2.599-5.692-5.074-10.766-2.475-5.074 2.599-4.207 6.435-4.207 6.435s1.237-3.094 6.187-1.98c4.95 1.113 10.148 7.548 11.014 18.439.866 10.89-4.826 19.552-11.756 26.73-6.93 7.177-15.345 11.508-24.874 14.602-9.529 3.094-19.553.248-24.75-1.485-5.197-1.733-9.158-4.455-9.158-4.455 1.114-1.733 4.208-1.609 4.208-1.609-3.96-3.341-6.682-2.475-9.405-1.114-2.723 1.362-3.96.496-7.796-1.98-3.836-2.475-3.96-4.578-3.836-6.187.123-1.609 2.598-3.465 2.598-3.465s-2.227-.619-4.578.371c-2.352.99-3.218 3.465-3.218 3.465-3.094-1.732-5.817-.619-7.425-.247-1.609.371-4.455.495-6.187-.372-1.733-.866-1.98-3.836-1.98-3.836-1.857 2.104-1.98 5.321-.496 7.178 1.485 1.856 3.59 2.475 3.59 2.475s-1.114 1.608-3.466 1.732c-2.351.124-3.712-1.856-3.712-1.856-2.104 3.218 1.856 6.806 4.331 6.806 2.475 0 4.826-2.227 4.826-2.227s1.114 2.846-.495 4.207c-1.609 1.361-4.084.867-4.084.867s1.733 2.598 4.084 2.846c2.351.247 4.826-2.723 5.94-4.826 1.114-2.104 3.589-.248 10.272 4.207 6.682 4.455 16.087 11.261 25.616 17.944 9.529 6.682 15.84 5.197 21.904 2.227 6.063-2.97 15.468-9.776 28.091-10.518 12.622-.743 20.295 3.712 20.295 3.712s6.683-4.331 12.622-15.716c5.94-11.385 8.663-28.215 8.663-28.215s7.3-3.094 13.983-2.723c6.683.371 11.88 1.857 13.737 9.034 1.856 7.178-3.218 16.582-9.405 22.894-6.188 6.31-12.87 14.478-13.737 22.646-.866 8.167 3.218 16.459 9.777 20.666 6.558 4.208 12.127 3.836 24.378 3.836s16.83-2.227 22.028 8.54c0 0 .99-2.352 1.61-8.045.617-5.692-3.11-12.153-10.52-12.746-6.188-.495-11.632 1.733-11.632 1.733s1.113-1.114 2.846-4.455c1.732-3.342-.248-10.519-.248-10.519s-2.846 8.539-9.529 12.746c-6.682 4.208-14.973 4.084-19.305-.37-4.33-4.456-3.835-13.737.62-19.554 4.455-5.816 15.84-16.83 20.295-25.863 4.086-8.29 3.246-21.076-6.312-28.215-10.271-7.673-26.482-4.208-26.482-4.208s1.113-9.652 5.32-14.479c4.208-4.826 11.139-7.796 15.965-6.31 4.826 1.484 4.33 8.538 4.33 8.538s1.666-.858 2.352-5.321c.743-4.827-1.98-10.148-8.91-11.138 0 0 .58-.549 2.475-2.97 2.227-2.846 3.96-9.529 3.094-17.696-.867-8.168-2.104-16.335-1.238-19.676.866-3.342 3.341-4.95 9.9-4.827z" style="fill:#2b63b7;fill-opacity:1;fill-rule:nonzero;stroke:none" transform="matrix(.3458 0 0 -.3458 -5.764 268.577)"/><path d="M223.4 471.76c-3.342 3.465-3.218 8.662-1.238 11.137 1.98 2.476 5.94 3.713 5.94 3.713s-3.35 2.066-6.187 1.856c-3.342-.247-5.322-2.351-5.322-2.351-.866 8.167 5.94 9.9 9.034 9.157 3.094-.742 5.074-2.35 5.074-2.35s.99 3.093-1.485 5.444-5.321 1.733-5.321 1.733c.99 2.475 4.826 4.331 7.672 3.464 2.846-.866 5.692-4.95 7.054-7.053 1.36-2.104 4.578-1.238 9.528 1.733 4.95 2.97 8.044 5.692 8.168 6.93.124 1.237-2.723 2.722-6.188 9.033-3.464 6.312-2.722 11.756-2.722 11.756s-5.94-1.98-8.291.743c-2.351 2.722-2.228 6.93-2.228 6.93 2.599-3.094 4.826-3.094 11.138 1.856 6.31 4.95 11.509 10.395 19.429 16.212 7.92 5.816 17.943 6.31 24.873 3.093 6.93-3.217 10.024-6.311 10.024-6.311s-2.284-.25-2.475-4.95c-.247-6.064 5.816-6.93 5.816-6.93s-8.662-3.836-18.315-7.672c-9.652-3.837-15.592-6.312-16.087-13.86-.495-7.55 1.732-15.964 4.084-19.43 2.35-3.464 5.444-4.33 8.538-4.083 0 0-3.836-4.826-8.29-4.084-4.456.743-6.807 2.97-8.911 3.094-2.104.124-6.93-1.856-10.395-5.074-3.465-3.217-3.465-6.806-2.228-9.281 1.238-2.475 3.837-3.465 3.837-3.465s-10.272-1.609-11.757 5.569c0 0-1.36.37-2.475-.99-1.113-1.362-4.207-1.114-7.053.37-2.847 1.486-8.317 1.478-10.024.248-3.094-2.227-3.218-6.187-3.218-6.187zM213.488 349.56h-18.339v-32.05h-19.022v95.593h36.394c22.059 0 33.088-10.497 33.088-31.487 0-12.468-4.598-21.652-13.787-27.554l13.373-36.552h-20.817l-10.89 32.05m12.68 31.774c0 4.683-1.171 8.384-3.515 11.103-2.343 2.718-5.723 4.079-10.132 4.079h-17.372V366.15h17.646c4.502 0 7.859 1.404 10.063 4.215 2.204 2.812 3.31 6.466 3.31 10.968zM316.544 317.51l-15.717 38.095-12.684-1.404V317.51H269.12v95.593h19.023V371.07l12.684 1.408 15.442 40.625h21.641l-20.403-47.938 20.956-47.655zM416.718 334.985l.414-15.886c-9.741-2.154-18.841-3.233-27.295-3.233-7.169 0-13.098.986-17.785 2.95-4.687 1.97-8.365 5.109-11.029 9.421-2.665 4.308-4.502 9.37-5.514 15.183-1.014 5.809-1.517 13.121-1.517 21.93 0 18.462 2.549 31.325 7.65 38.587 5.1 7.263 14.498 10.898 28.195 10.898 7.905 0 17.047-1.269 27.434-3.798l-.553-15.465c-9.099 1.408-17.139 2.112-24.123 2.112-5.059 0-8.871-.824-11.444-2.463-2.575-1.64-4.481-4.757-5.722-9.347-1.242-4.595-1.86-11.436-1.86-20.523 0-13.029 1.26-21.676 3.79-25.938 2.528-4.266 7.787-6.396 15.785-6.396 7.17 0 15.028.654 23.574 1.968zM179.159 281.618h6.343l3.675-26.15h.655l5.337 26.15h7l5.336-26.15h.657l3.674 26.15h6.344l-5.687-31.64h-9.143l-4.681 24.055-4.68-24.055h-9.143zM223.491 249.978l6.694 31.64h11.461l6.693-31.64h-6.037l-1.181 5.723h-10.412l-1.181-5.723h-6.037m11.375 26.335-3.019-15.029h8.137l-3.019 15.03zM254.37 249.978l6.693 31.64h11.461l6.693-31.64h-6.036L272 255.7h-10.412l-1.181-5.723h-6.037m11.374 26.335-3.018-15.029h8.136l-3.018 15.03zM304.653 249.978h-16.93v31.64h6.038v-25.964h10.892zM308.58 281.618h6.342l3.675-26.15h.656l5.336 26.15h7l5.337-26.15h.656l3.675 26.15h6.343l-5.687-31.64h-9.142l-4.682 24.055-4.68-24.055h-9.143zM356.217 249.978v31.64h6.038v-31.64zM380.179 281.618l.044-26.289c0-3.382-.708-5.661-2.122-6.84-1.415-1.178-3.829-1.768-7.24-1.768v5.583c1.166 0 2.012.232 2.537.698.525.465.787 1.333.787 2.605v26.011h5.994zM406.08 249.978l-4.987 12.61-4.024-.466v-12.144h-6.038v31.64h6.038v-13.912l4.024.465 4.9 13.447h6.867l-6.474-15.867 6.65-15.773z" style="fill:#2b63b7;fill-opacity:1;fill-rule:nonzero;stroke:none" transform="matrix(.3458 0 0 -.3458 -5.764 268.577)"/></svg>