<svg xmlns="http://www.w3.org/2000/svg" width="191.5pt" height="191.5pt" style="fill-rule:evenodd" viewBox="0 0 191.5 191.5"><path d="M299.988 704.89C143.958 704.89 17 577.933 17 421.89c0-156.042 126.958-283 282.988-283C456.03 138.89 583 265.848 583 421.89c0 156.043-126.97 283-283.012 283" style="fill:#b5932c;stroke:none" transform="translate(-3.632 -44.01) scale(.33127)"/><path d="M299.994 150.748c-149.497 0-271.137 121.636-271.137 271.142 0 149.518 121.64 271.142 271.137 271.142 149.509 0 271.149-121.624 271.149-271.142 0-149.506-121.64-271.142-271.149-271.142" style="fill:#fff;stroke:none" transform="translate(-3.632 -44.01) scale(.33127)"/><path d="m378.423 563.666 19.316-11.132 9.314 14.547-19.311 6.818-9.319-10.233" style="fill:#fff;stroke:none" transform="translate(-3.632 -44.01) scale(.33127)"/><path d="M136.893 539.76c2.923-3.882 2.8-7.326.105-11.33-1.906-2.82-4.929-5.748-8.408-3.404-3.285 2.216-1.42 6.678-.157 9.548 1.689 4.209 4.092 9.752 4.116 14.325.047 5.314-2.193 10.055-6.66 13.072-4.391 2.959-10.015 3.683-15.049 2.022-5.256-1.712-9.425-6.05-12.476-10.582-5.707-8.471-7.203-18.633.221-26.596l8.777 8.214c-3.848 4.497-3.181 9.022-.042 13.676 2.035 3.024 5.848 6.274 9.589 3.753 3.742-2.524 1.011-8.126-.251-11.283-3.754-9.115-6.701-18.587 3.151-25.222 4.204-2.836 8.986-3.666 13.839-2.257 4.969 1.42 8.495 4.677 11.29 8.81 5.308 7.876 6.881 16.172.923 24.194l-8.968-6.94M132.338 593.017l-9.384-8.519 36.483-40.219 15.125 13.729c3.929 3.554 7.502 6.805 8.771 12.126 1.221 5.489-.1 10.593-3.871 14.756-3.461 3.811-8.314 6.455-13.6 6.26-6.062-.255-9.693-3.675-13.985-7.552l-6.033-5.478-13.506 14.897m25.427-17.435c2.234 2.012 4.104 3.725 7.338 3.449 1.789-.198 3.373-1.117 4.542-2.402 1.433-1.592 2.28-3.807 1.889-5.981-.456-2.444-2.386-4.199-4.139-5.79l-5.222-4.729-9.682 10.658zM202.346 640.993l-11.945-6.699 2.555-11.372-15.33-8.589-8.425 8.08-9.734-5.46 41.739-38.857 12.844 7.203-11.704 55.694m-7.075-28.191 4.297-19.476-14.371 13.816zM226.393 648.753l-12.214-3.333 14.33-52.38 22.059 6.039c4.66 1.27 9.372 2.638 12.711 6.344 3.502 3.994 4.467 9.759 3.069 14.868-1.631 5.963-6.571 10.513-12.786 11.033l3.368 25.778-13.588-3.702-2.35-22.889-8.934-2.444-5.665 20.686m8.127-29.695 6.723 1.835c2.514.684 5.198 1.673 7.77.982 2.316-.683 4.058-2.829 4.677-5.116.574-2.068-.046-4.618-1.514-6.167-1.701-1.854-5.297-2.514-7.589-3.141l-6.414-1.759zM312.718 616.141l-13.612-.27-.876 43.529-12.664-.258.877-43.529-13.763-.275.211-10.757 40.044.801-.217 10.759M365.846 650.524l-13.448 2.567-5.349-10.331-17.265 3.279-1.257 11.606-10.957 2.088 6.935-56.595 14.458-2.76 26.883 50.146m-23.544-17.02-9.25-17.656-2.104 19.826zM460.567 595.542l-10.998-5.77-5.665 4.607 7.209 8.852-2.561 2.093-16.651-20.452 7.659-6.238c1.667-1.362 3.45-2.468 5.666-2.538 2.227-.075 4.414.972 5.823 2.702 1.971 2.414 2.309 5.753.457 8.349l11.745 6.209-2.684 2.186m-13.564-7.155c1.374-1.124 2.432-2.135 2.601-3.994.129-1.305-.343-2.549-1.145-3.537-.971-1.193-2.222-1.806-3.736-1.672-1.404.099-2.292.777-3.362 1.654l-5.104 4.145 5.945 7.314zM458.136 580.522c-4.696-4.606-7.571-11.944-2.246-17.381 5.192-5.297 12.425-3.006 17.06 1.538 4.619 4.518 7.607 12.073 2.357 17.429-5.297 5.407-12.448 3.039-17.171-1.586m12.534-13.243c-1.678-1.63-3.894-3.274-6.238-3.892-2.322-.615-4.788-.176-6.513 1.584-4.117 4.197-.713 9.792 2.666 13.101 3.238 3.175 8.898 6.133 12.798 2.153 3.958-4.034.526-9.771-2.713-12.946zM490.099 564.953l-18.354-14.652-4.681 5.858-2.253-1.795 11.419-14.299 2.257 1.793-4.683 5.865 18.352 14.651-2.057 2.579M503.446 546.781l-19.663-12.85-4.103 6.279-2.408-1.572 10.008-15.324 2.415 1.572-4.104 6.273 19.662 12.858-1.807 2.764M520.08 517.812l-7.97 15.101-23.328-12.313 7.788-14.762 2.514 1.327-6.244 11.839 7.42 3.917 4.952-9.389 2.345 1.24-4.953 9.383 8.543 4.507 6.418-12.179 2.515 1.329M528.452 497.705l-12.419.286-2.718 6.777 10.606 4.257-1.233 3.057-24.481-9.805 3.666-9.173c.807-1.999 1.83-3.824 3.737-4.963 1.906-1.141 4.326-1.293 6.396-.469 2.894 1.164 4.806 3.924 4.454 7.093l13.278-.277-1.286 3.217m-15.324.321c.649-1.648 1.087-3.04.327-4.758-.514-1.193-1.531-2.064-2.713-2.532-1.432-.574-2.817-.509-4.074.351-1.182.771-1.632 1.795-2.146 3.075l-2.444 6.105 8.74 3.501zM506.557 480.68l2.204-8.046c.994-3.636 2.479-6.132 5.992-7.758 3.163-1.496 6.59-1.509 9.893-.601 3.11.847 5.969 2.513 8.027 5.027 2.298 2.824 2.767 5.782 1.813 9.273l-2.491 9.079-25.438-6.974m24.883-1.625c.801-2.93.777-5.455-1.321-7.829-1.591-1.784-4.057-3.093-6.362-3.731-2.589-.701-5.484-.777-8.016.322-2.665 1.141-3.637 3.07-4.367 5.742l-1.28 4.666 20.066 5.501zM541.017 446.566l-8.016 1.396-1.544 9.646 7.221 3.533-.444 2.736-24.685-12.618.608-3.759 27.391-4.273-.531 3.339m-23.726 3.7 11.845 6.027 1.287-8.01zM543.268 433.866l-.006 2.765-26.38-.064.016-4.922 21.125-7.905-21.089-7.823.011-4.847 26.386.064-.011 3.315-23.036-.064v.158l23.013 8.401-.012 2.228-23.047 8.483-.007.146 23.037.065" style="fill:#1f211d;stroke:none" transform="translate(-3.632 -44.01) scale(.33127)"/><path d="M338.344 290.986c1.029 1.018 2.005 2.696 2.678 2.988.66.298 6.699 3.367 9.207 9.629 2.509 6.268 2.158 4.163 4.923 12.46 2.766 8.302 14.144 15.3 15.716 13.92 1.176 2.392-.111 9.735.299 11.688-2.661-1.024-3.11-.188-3.11-.188s-2.474-.291-4.111-2.093c-2.421-6.191-8.612-14.336-8.612-14.336s-10.15-15.563-13.752-17.352c-3.606-1.801-5.15-1.555-6.143-.041-.99 1.526-.387 3.783-.218 5.741.176 1.953 2.357 3.164 3.765 3.508 1.411.34 9.045 9.559 9.045 9.559s5.625 8.168 8.981 11.612c3.349 3.437 8.127 7.472 9.232 8.402 1.105.935 1.227 6.98 1.128 8.383-.1 1.386 8.29 5.742 9.506 5.519 1.224-.222.89-2.169.89-2.169s-.047-4.414-.112-5.723c-.064-1.31-1.426-2.555-1.426-2.555s-2.117.269-2.824-.76c-.696-1.041-1.613-4.765-1.252-5.677.369-.913 7.039 5.074 7.397 5.706.35.649-.508 1.421-.217 2.473.299 1.047 3.106 1.491 4.776 2.309 1.68.825 3.673 3.263 3.673 3.263l2.59 2.824s-1.088 1.28-1.047 2.18c.047.901 2.344 2.754 2.385 7.092.041 4.333 9.087.141 9.087.141s-1.304-8.612-2.24-9.384c-.935-.778-7.496-4.478-7.496-4.478s-.175-3.842 1.468-5.391c1.649-1.544-1.094-4.116-4.01-5.128-2.913-1.005-5.491-.233-5.491-.233s.789-2.41.754-3.064c-.029-.655-1.099-2.567-3.303-4.098-2.199-1.538-4.894-1.41-4.327-3.24.574-1.824 4.169-10.594 2.632-11.991-1.538-1.403-8.513-1.73-9.999-1.906-1.478-.176-5.155-5.244-7.173-11.612-2.017-6.378-2.636-10.921-6.764-16.779-4.128-5.876-10.647-8.759-12.833-8.326-2.193.427-4.707 6.116-3.672 7.127M371.99 374.692l6.485-3.163s-1.398-1.736-1.117-4.531c.275-2.806.093-3.362-.906-3.56-.988-.205-3.14 2.847-4.012 5.186-.87 2.326-.45 6.068-.45 6.068M334.672 275.692s-2.666.783-2.959-.27c-.298-1.052-1.245-2.075-1.245-2.075l-.257-3.823s1.444-2.363 8.104.022c6.659 2.38 10.371 6.479 9.512 7.25-.871.772-13.155-1.104-13.155-1.104M314.472 262.104c1.877.339 3.672 3.754 3.842 5.057.168 1.299-4.888 2.854-4.888 2.854l-3.941 2.134s-1.38.725-2.819-2.047c-1.443-2.765-1.104-2.561-1.104-2.561l.982-2.338s6.058-3.45 7.928-3.099M322.493 374.675s-5.045-2.918-7.055-15.599c-2.019-12.67-2.37-20.183-3.62-25.918-1.252-5.724-6.543-11.366-7.893-16.868-1.351-5.501.73-17.06 1.748-18.527 1.022-1.462 2.175-2.608 2.175-2.608s1.046-.924.613 1.491c-.439 2.432.978 9.232 2.45 12.664 1.474 3.42 4.345 6.56 7.578 12.629 3.226 6.062 4.227 24.9 4.882 31.857.654 6.946 4.086 12.676 4.086 12.676s1.369 1.146.497 3.584c-.865 2.444-3.169 4.619-3.169 4.619h-2.292M279.989 310.871c-.755.146-.825 1.023-.375 1.327.451.304 2.573 5.876 4.21 8.314 1.643 2.438 4.145 6.899 5.356 11.745 2.952 7.069 3.455 15.342 5.53 17.751 2.07 2.42 6.204 11.278 6.204 11.278l4.391.561s4.665-.549 5.045-4.174c.374-3.613-3.976-10.179-3.976-10.179s.135-1.86-.981-2.462c-1.123-.596-3.322-3.221-3.322-3.221l-8.191-21.124.41-2.742s-1.743-2.216-3.842-5.163c-2.105-2.964-6.291-3.753-5.688-2.572.596 1.175-2.006-.894-2.006-.894s-2.011 1.402-2.765 1.555M254.79 277.486l-2.128-12.178 2.005-9.589-1.427-2.554s-1.765 2.543-3.122 6.869c-1.345 4.309-1.017 16.575-1.017 16.575l.392 11.688s1.718 7.034 3.859 9.062c2.145 2.023 6.629 5.174 6.629 5.174s-3.174-6.56-4.116-14.377c-.946-7.817-1.075-10.67-1.075-10.67M264.016 341.302l-1.988-23.07-2.456 8.711 1.462 8.448 2.982 5.911M287.32 351.254c-.666-3.731-7.553-21.323-8.126-23.188-.585-1.854-.732-11.916-1.444-14.91-.714-2.993-3.702-9.079-5.251-10.64-1.543-1.561-2.426-6.437-2.426-6.437l-1.368.561s.07-.251-.445-.801c-.514-.544-1.485-.176-1.485-.176s-2.227 1.258-2.853 1.86c-.632.602.205 1.052.205 1.052s1.07 5.186 1.859 8.01c.784 2.836 2.748 4.455 4.204 9.308 1.45 4.835-.117 14.985-.088 17.429.035 2.455 2.438 8.325 2.438 8.325s1.923 4.245 4.063 9.863c2.152 5.631 2.479 9.139 2.479 9.139l6.18 2.572 6.665-1.052s.451-.831-.894-3.227c-1.333-2.397-3.046-3.947-3.713-7.688M215.495 262.285s3.455 3.871 7.191 2.058c3.736-1.806 2.368-5.349 2.368-5.349l-2.549-7.736 2.175-7.197s.696-2.022-1.573-3.315c-2.269-1.286-3.116-1.157-3.116-1.157s2.537-5.385 3.227-5.613c.701-.222 4.291 1.742 5.724 3.227 1.432 1.485 2.485 1.847 2.485 1.847s.847 1.187 2.057 1.871c1.199.679 1.608-1.145 2.018-1.075.415.058.841-.181 7.133.866 6.296 1.034 6.32 1.993 6.32 1.993l-1.053 3.204s-5.098-.55-8.542-.573c-3.438-.029-6.296-2.181-7.746-2.368-1.456-.17-3.023 3.087-3.023 3.087s-1.479 3.35-1.123 3.988c.363.637 1.134 2.017 1.877 2.753.748.719 1.474-.011 7.063 1.625 5.59 1.649 8.963.235 8.963.235l-.982 7.027s-2.619-.064-6.455 2.052c-3.829 2.123-7.267 3.175-7.267 3.175l-.679 4.186s4.993 1.678 8.735.023c3.742-1.642 7.882-1.163 8.904-.859 1.024.31.421-5.04.421-5.04l5.274-31.671s-3.736-.514-5.682-.17c-1.948.328-8.396 1.813-8.917.632-.52-1.169-3.899-3.964-3.899-3.964l-7.829-4-5.876.282-2.199 9.056-12.961 7.372 1.146 5.847s2.695-.76 7.39-.567c4.701.181 6.887 2.514 6.887 2.514s-.316 3.145-2.409 4.479c-2.093 1.321-4.794 4.806-4.794 4.806l1.316 2.449M174.458 422.342l10.599 4.958 12.091 11.009 4.806-6.887s.824-5.601-9.454-13.091c-6.665-4.84-12.985-4.519-14.283-4.238-1.597.345-3.029 2.759-3.029 2.759l-.73 5.49M181.514 400.622s5.572.175 13.78 7.653c8.209 7.472 7.005 16.698 7.005 16.698s-.047 3.595 3.706-.181c2.292-2.397 3.433-1.251 3.433-1.251l4.349-5.116s.048-10.594-7.442-18.961c-7.49-8.384-19.85-6.606-19.85-6.606l-4.981 7.764M196.54 378.96s-.188 2.959 1.28 3.982c1.462 1.023 4.204-1.07 10.045 4.759 5.835 5.841 6.612 10.717 6.975 11.36.35.637 5.753-.597 5.753-.597l1.187-9.559s.169-3.385-6.133-9.746c-6.297-6.361-12.512-6.074-12.512-6.074s-1.912 3.361-5.274 3.747c-3.373.368-1.321 2.128-1.321 2.128M370.103 552.068s8.143 2.571 14.622-4.123c6.478-6.688 4.73-16.107 4.73-16.107l-2.193-6.52s-2.496-4.297-3.702-3.835c-1.208.462-.531 2.73-.531 2.73s2.549 10.595-4.426 15.512c-6.969 4.911-13.885.485-15.488 1.298-1.595.813-.537 4.203-.537 4.203l7.525 6.842" style="fill:#de1c39;stroke:none" transform="translate(-3.632 -44.01) scale(.33127)"/><path d="M346.307 524.711s.503-1.497 2.279-1.988c1.778-.503 12.033 6.963 19.084-3.193 7.058-10.155 1.719-19.159 1.719-19.159l7.695 5.209s4.174 12.249-3.807 23.591c-7.975 11.343-22.901 3.689-22.901 3.689l-4.069-8.149M378.516 555.2c1.771-.573 6.846 1.229 10.382-.25 3.537-1.479 4.779-8.157 4.779-8.157l4.25 10.278s-2.27 5.835-5.788 7.554c-3.526 1.725-9.705.614-9.705.614l-6.772-7.945s1.082-1.526 2.854-2.094M389.952 568.571c1.116-.543 2.397.626 4.401-.204 2.012-.836 4.841-6.776 4.841-6.776l3.141 5.911-13.728 3.841-.865-.947s1.087-1.275 2.21-1.825" style="fill:#de1c39;stroke:none" transform="translate(-3.632 -44.01) scale(.33127)"/><path d="M128.205 259.128c-.959.532-6.285 2.093-7.455-1.935-1.175-4.046 11.302-10.197 16.762-12.406 5.467-2.228 14.892-7.098 21.78-6.923 6.88.164 9.95 2.807 9.95 2.807s35.103-9.022 39.909-7.777c1.666.579-.093 1.48-.093 1.48-30.093 7.635-37.15 14.189-39.646 13.324-2.497-.865-10.7-4.735-22.416-3.21-11.717 1.544-20.709 8.671-20.838 9.495-.117.836 3.59-.321 4.064 2.766.234 1.619-1.064 1.847-2.017 2.379" style="fill:#1f211d;stroke:none" transform="translate(-3.632 -44.01) scale(.33127)"/><path d="M145.008 254.41c6.835-.813 10.939-.678 12.056-1.222 1.122-.538-.029-4.087-.685-4.058-.649.024-.871-1.105-1.847-1.064-.982.053-18.581 5.134-20.609 7.355-2.023 2.222.543 1.128.543 1.128s3.701-1.327 10.542-2.139M135.373 261.905c-.509-.304-6.753 6.04-4.719 7.589 2.035 1.544 10.682-2.637 10.682-2.637s-.216 2.304 3.736 2.941c3.964.632 9.992-6.852 9.992-6.852s.433-1.333 1.631-.246c1.193 1.094 3.251 2.959 7.303 2.111 4.046-.842 14.294-5.747 13.161-5.525-1.14.222 6.495-1.128 10.406-1.473 3.912-.345 6.093.695 9.472-.451 2.421-.76 3.35-1.958 3.613-3.273.269-1.322-10.08-1.983-12.851-1.69-2.771.286-8.132 1.034-9.898 1.771-1.766.737-2.561 1.269-4.262 3.309-1.708 2.053-7.25 2.468-8.572 2.374-1.309-.094-3.864-2.28-5.846-2.672-1.988-.391-6.367.456-10.103 1.129-3.73.666-10.623 3.777-9.606 4.542 1.017.778 3.379-1.145 7.612-1.666 4.233-.526 7.548.304 7.548.304s-5.455 2.38-6.132 1.918c-.679-.456-1.58-2.38-2.533-1.673-.947.696-3.005 2.263-7.039 3.433-4.04 1.18-5.186 1.233-5.232.093-.059-1.146 2.139-3.051 1.637-3.356M235.017 229.392s1.443 3.034-.924 1.351c-2.374-1.696-6.724-3.777-8.203-3.877-1.479-.093-2.777.129-3.409.656-.626.52 2.526 4.799.936 9.442-1.579 4.665-13.021 5.04-15.062 6.939-2.034 1.894-.77 4.45.673 7.332 1.444 2.876 7.525 10.29 7.525 10.29s2.034 1.538-.93 1.181c-2.964-.345-12.909-10.033-14.447-14.862-1.537-4.847 1.123-7.425 3.859-8.372 2.736-.947 6.846-4.081 9.606-4.707 2.754-.619 1.807-3.192 1.807-3.192s-1.632-3.526-.924-5.847c.707-2.326 7.326-.842 10.442-.655 3.122.17 9.051 4.321 9.051 4.321" style="fill:#1f211d;stroke:none" transform="translate(-3.632 -44.01) scale(.33127)"/><path d="M246.721 238.162c.813-.029 1.714-5.309 1.714-5.309s1.098-1.035-.544-1.128c-1.643-.082-7.654.86-8.291 1.21-.643.351-.906 1.684-3.631 2.953-2.718 1.275-2.11.263-4.519 1.362-2.397 1.099-9.062 9.103-9.799 10.933-.731 1.842-1.321 3.181-2.087 4.192-.772 1.024-1.97 3.362.099 5.724 2.076 2.363 4.169 1.608 5.8 1.532 1.637-.07 4.315 1.111 4.315 1.111s-8.665 10.711-5.531 14.827c3.146 4.098 13.143-2.585 13.933-3.116.8-.527 2.969-3.088-.766-2.415-3.73.667-6.701.316-6.701.316s.784-4.461 2.45-7.162c1.678-2.684 2.45-3.719 3.186-5.379.737-1.678.539-2.485-.958-2.906-1.491-.421-7.957-2.082-9.595-2.17-1.643-.087-1.882-1.706-1.491-3.858.386-2.14 2.035-5.496 5.83-8.29 3.794-2.801 5.595-2.889 8.7-3.029 3.098-.146 7.068.643 7.886.602M257.836 248.289s-4.04 4.607-5.987 8.465c-1.947 3.853-1.356 9.396-5.543 10.898-4.186 1.503-2.081-12.996-.988-17.475 1.099-4.467 6.519-14.535 8.174-17.727 1.649-3.192 7.103-9.01 9.378-9.448 2.268-.427 4.42-.041 4.42-.041s11.904-4.496 17.107-5.227c5.197-.737 7.203.152 9.758 2.157 7.115 5.233 9.261 15.938 9.261 15.938s2.49.702 3.965 7.671c1.472 6.969.303 20.44-.557 22.936-.871 2.497-3.215 4.742-3.215 4.742s-.299 4.268-2.328 6.326c-2.033 2.064-3.606 6.729-4.086 7.075-.473.344-1.818-.41-1.385-1.579.438-1.163 3.139-6.361 3.139-6.361s1.327-3.169.468-3.959c-.853-.777-1.608.579-1.795.094-.187-.491-.246-1.789-.246-1.789l-.514-.474s-.34-3.741-.064-4.741c.28-.994.432-1.328 1.262-1.035.837.287 1.059 1.579 1.059 1.579s.484-.193 1.479.099c1 .275 1.211 1.415 1.211 1.415s2.302-3.386.402-8.864c-1.9-5.478-3.303-7.536-4.601-7.472-1.315.065-2.619 6.993-2.385 8.624.239 1.625-1.204 2.187-1.204 2.187s2.549 5.607-2.006 6.145c-4.555.543-5.496-2.035-7.449-5.21-1.946-3.18-2.747-2.824-4.087-3.408-1.332-.603-12.096.391-15.99 1.07-3.9.678-5.788-1.199-6.472-1.812-.684-.632-.181-10.799-.181-10.799M276.954 299.774s3.654 1.14 6.01-1.1c2.345-2.238 6.543-7.027 7.654-7.892 1.099-.877 3.157-2.275 3.157-2.275s1.251-1.374.55 1.281c-.685 2.654-2.608 7.162-4.251 10.512-1.637 3.35-3.824 5.578-7.074 6.063-3.251.474-4.192-1.929-4.894-3.046-.702-1.105-2.274-3.005-2.274-3.005s-1.497-.585-1.707-1.556c-.205-.964.42-1.49 1.583-1.216 1.153.269 1.246 2.234 1.246 2.234" style="fill:#1f211d;stroke:none" transform="translate(-3.632 -44.01) scale(.33127)"/><path d="M278.498 294.296c1.157.105 2.303.216 2.935-.299.626-.52-1.152-3.549-1.152-3.549s-1.567-2.057-2.865-1.836c-1.304.234-.579 1.673-.579 1.673s-3.759.17-4.706.871c-.947.696-1.409-2.216-1.409-2.216s.116-.836.228-1.982c.111-1.152-2.187-1.374-2.187-1.374s-3.829 2.151-4.952 2.69c-1.117.543-1.304-3.38-1.304-3.38s-.14-6.378-.222-8.168c-.081-1.806-1.129-3.063-2.163-4.151-1.035-1.105-3.508-1.479-4.496-1.59-.988-.123-.883-5.04-.982-6.999-.088-1.958 1.075-8.565 1.075-8.565s.041-2.613-1.309.064c-1.351 2.678-2.485 9.94-2.327 13.202.158 3.269.695 7.835 1.561 8.777.865.935 4.251-.048 5.636 1.525 1.38 1.578 1.245 12.547 1.993 14.482.743 1.924 3.234 2.631 4.491 1.585 1.262-1.041 2.818-2.748 2.818-2.748s-.1 4.753 1.192 4.367c1.287-.398 7.572-2.491 8.724-2.379" style="fill:#1f211d;stroke:none" transform="translate(-3.632 -44.01) scale(.33127)"/><path d="M261.788 269.705c1.082 2.081 3.163 1 3.163 1s3.198-1.451 6.122-2.088c2.917-.626 3.905-.509 5.858-.766 1.947-.257 1.391-1.701-.445-2.438-1.841-.737-5.618-1.04-8.062-.93-2.456.117-6.291 2.1-6.291 2.1s-1.421 1.052-.345 3.122M267.173 272.733s-2.398 1.263-.269 1.315c2.134.065 4.098-.028 4.098-.028s-.222 2.303 1.579 2.385c1.807.076.895-2.005.895-2.005s5.595.712 6.273 1.175c.678.461.567-1.824.567-1.824s.977-.211.129-.831c-.854-.608-4.643-1.257-7.104-1.298-2.461-.046-6.168 1.111-6.168 1.111M326.13 266.355c1.679.742 2.362 4.963 2.444 6.595.076 1.631.34 3.742-2.063 5.01-2.392 1.263-5.209-3.035-5.415-3.841-.199-.813-2.064-2.034-3.829-1.292-1.766.742-3.128 6.531-3.187 8.664-.069 2.129 2.169 7.917 2.169 7.917s-3.549 1.152-7.221 3.122c-3.672 1.976-6.348 4.227-7.769 5.437-1.409 1.222.543 1.128.543 1.128s2.199-2.069 7.63-4.946c5.432-2.87 9.395-2.245 9.395-2.245s2.129.07 2.181-2.227c.058-2.298-2.438-6.595-1.619-10.074 0 0 5.361 6.139 7.886 4.046 2.521-2.082 3.539-4.906 3.432-10.472-.093-5.554-1.209-8.29-1.267-9.6-.065-1.297-1.369-1.239-2.165-.713-.795.526-1.547 1.871-1.547 1.871s-1.27.877.402 1.62" style="fill:#1f211d;stroke:none" transform="translate(-3.632 -44.01) scale(.33127)"/><path d="M312.952 271.564s3.783-3.128.398-1.988c-3.38 1.146-5.42 3.034-13.079 14.201-7.666 11.167-6.654 35.998-6.654 35.998s-6.811-9.01-8.314-9.594c-1.496-.585-.427 1.333-.427 1.333s7.607 12.079 9.197 14.628c1.596 2.543 6.372 13.617 6.168 16.242.697.789 3.543-1.158 3.543-1.158s.696.789-.116-2.607c-.813-3.397-7.385-14.219-7.385-14.219s.549-19.668 4.992-29.543c4.456-9.864 11.677-23.293 11.677-23.293M335.789 276.709s-4.811-2.403-.416-1.836c4.398.549 16.5.421 27.953 9.594 11.454 9.168 13.763 25.766 13.763 25.766s.041 3.269 1.894 3.076c1.841-.199 4.086 1.116 4.086 1.116s2.837 2.158 2.89 3.356c.058 1.193-1.761-.245-1.761-.245s-10.476-.053-12.208-2.041c-1.729-1.999-3.776-10.635-11.195-24.468-7.42-13.839-25.006-14.318-25.006-14.318M387.273 329.51c-.456 1.982-3.027 7.554-2.958 11.371.065 3.818 3.532 3.227 4.73 3.164 1.199-.059 3.176-2.117 5.607-1.574 2.421.544 2.187 2.514 2.141 3.83-.048 1.316-.1 7.209-.1 7.209s-7.104 2.081-10.407 3.759c-3.304 1.684-7.273 5.473-8.191 6.823-1.685 1.392-2.578 3.292-.935 3.432 1.642.135 4.472-4.689 12.459-6.595 7.986-1.894 12.084 1.62 12.084 1.62s1.49 1.567 3.041-.362c1.543-1.93 2.397-4.701 1.333-6.391-1.058-1.695-3.83-2.555-3.83-2.555s.783-8.869.305-12.12c-.487-3.251-1.732-4.285-3.316-5.525-1.585-1.234-5.138-.088-5.138-.088s-3.076-.508-5.567 2.234c-.602-1.286.509-7.671.509-7.671s.637-2.754.286-5.572c-.345-2.824-1.602 3.017-2.053 5.011M350.025 338.133c-.374-.97-.532-2.04.93-1.023 1.468 1.023 3.735 2.766 5.986 4.192 2.247 1.415 4.281 5.04 4.281 5.04s.064-.883.881.392c2.744 2.602 3.141 10.985 3.141 10.985s3.156-.157 5.315 1.714c2.169 1.859 1.724 4.063.029 5.232-1.69 1.17-4.461.211-4.461.211s-2.895 1.117-4.315 1.075c-1.426-.04-2.689-1.391-2.689-1.391s.239-1.876-.767-2.485c-1.011-.608-1.209-2.449-1.133-3.221.076-.766 2.56-1.211 1.987-6.42-.573-5.215-1.847-6.788-3.549-8.133-1.701-1.338-5.262-5.203-5.636-6.168" style="fill:#1f211d;stroke:none" transform="translate(-3.632 -44.01) scale(.33127)"/><path d="M386.116 365.349s-5.244 4.397-10.886 7.391c-5.648 3.005-6.343 2.157-7.677 1.567-1.338-.597-.613-3.684-.613-3.684s.256-1.649-1.212-.386c-1.472 1.274-2.009 5.999-1.613 7.613.404 1.619 3.649 3.215 7.864 2.356 4.215-.848 13.301-7.168 13.301-7.168s2.176 6.764 11.951 5.765c9.775-1.006 14.909-12.483 14.838-13.904-.063-1.42-1.104-.274-1.104-.274s-.362-.854-1.433-.374c-1.07.484-3.794 2.8-10.712 4.326-6.91 1.526-7.301.234-8.225-.813-.918-1.052-1.392-1.795-1.988-2.853-.596-1.064-2.491.438-2.491.438M368.857 434.591s4.999-5.14 6.654-9.483c1.642-4.327.783-18.037.812-22.077.03-4.034.732-16.95.813-19.791.088-2.847-1.614-1.894-1.871-.351-.251 1.538-4.508 13.202-3.982 19.721.527 6.524-.707 12.81-1.292 16.651-.578 3.841-6.219 9.243-7.261 10.272-1.046 1.03-1.702 3.245-1.731 7.285-.029 4.04.761 13.828.761 13.828s-.007 2.18 1.625 2.104c1.637-.07 1.041-3.32 1.041-3.32s-1.877-7.449-.988-9.343c.9-1.895 5.419-5.496 5.419-5.496M400.277 438.9c.496-3.297-.749-8.917-2.292-11.571-1.544-2.648-2.466-10.681-1.415-13.792 1.053-3.104 4.25-16.359 4.549-19.311.298-2.959 2.187-11.565 1.725-12.091-.456-.52-.754-2.14-.754-2.14s-1.27-1.368-1.789 1.497c-.516 2.865-4.877 14.639-5.233 16.4-.352 1.759-3.59 11.739-3.837 13.493-.245 1.761-1.116 13.472-.695 15.424.749 4.216 3.993 8.325 5.022 13.95 1.03 5.625-.684 6.361-1.292 9.554-.614 3.198-1.256 3.45-1.689 3.572-.427.129-.608 3.303 2.239 1.315 2.86-1.988 4.957-13.003 5.461-16.3" style="fill:#1f211d;stroke:none" transform="translate(-3.632 -44.01) scale(.33127)"/><path d="M367.016 446.355c.379-3.398 1.513-.176 1.245 1.04-.269 1.211-2.742 11.255.321 11.442 3.058.176 7.227-8.747 7.227-8.747s-.55-4.777 2.098-4.027c2.655.748-.438 4.49-.438 4.49s-2.151 7.64-2.485 9.833c-.333 2.204-.234 6.671-6.121 6.835-5.876.175-4.548-6.325-4.04-9.413.508-3.081 1.8-8.045 2.193-11.453" style="fill:#1f211d;stroke:none" transform="translate(-3.632 -44.01) scale(.33127)"/><path d="M375.815 459.48c-.071.76.123 2.503-.124 4.262-.246 1.754 1.831 1.876 4.526 1.1 2.695-.778 3.485-7.046 3.614-8.905.134-1.86 1.109-6.6 1.109-6.6s2.427-1.755.527-2.755c-1.907-1.006-1.636 2.374-1.636 2.374s-2.082 4.344-3.924 7.057c-1.836 2.702-3.308 1.573-4.092 3.467" style="fill:#1f211d;stroke:none" transform="translate(-3.632 -44.01) scale(.33127)"/><path d="M386.367 456.463c-.362-.736-3.046.258-2.461 3.286.579 3.029 2.888 1.175 2.888 1.175s2.919-2.976 3.566-5.297c.662-2.327.959-5.175.959-5.175.446.088 2.48-.771 1.421-4.653-2.338-1.088-2.308 4.256-2.308 4.256s-2.106 6.216-4.065 6.408M300.943 360.853c-8.571-.257-12.722 2.018-16.289 1.579-3.572-.432-11.36-5.958-11.722-9.103-.368-3.152-.386-10.454-1.082-12.395-.684-1.93-.444-3.795-1.315-3.695-.866.094-1.894-.736-2.339-1.041-.45-.304-4.426 3.315-4.426 3.315s-5.04-7.343-2.853-15.254c2.192-7.91 2.684-13.71 2.526-15.996-.164-2.286-1.38-4.952-2.9-5.923-1.521-.964-6.472-4.227-9.127-9.553-2.648-5.332-2.076-9.401-1.865-15.301.415-1.654-.772-1.379-1.14.217-.357 1.602-.556 15.908 1.52 21.86 2.088 5.964 7.367 9.209 8.22 11.08.854 1.865.725 10.827.796 16.82.058 5.999 3.7 16.195 3.7 16.195s-11.494-.766-19.825-.38c-8.326.404-17.452 1.257-18.914 1.556-1.462.286-1.684 2.473.292 2.765 1.976.292 13.114 2.602 17.891 20.715 4.783 18.101 1.812 24.684 1.537 25.783-.274 1.117-.677 6.472 2.269 6.449 2.946-.035 3.385-.052 8.039-.818 16.294-4.035 39.5-2.503 39.5-2.503s3.286 4.853 7.267 19.955c3.987 15.084 3.812 36.928 3.812 36.928s.287 3.898 1.953 4.49c1.667.578 27.981 10.132 34.577 11.031 6.589.889 14.049 1.737 15.477-2.695 1.425-4.443 3.092-24.707 1.595-54.209-1.497-29.509-9.015-40.932-9.015-40.932s6.063 1.344 7.477-3.415c1.415-4.753-1.701-15.306-3.057-18.516-1.35-3.21-7.169-13.196-8.543-14.552-1.368-1.351-2.881-5.754-2.881-5.754s-1.725-1.777-.954.813c1.304 2.228 7.578 21.79 8.273 25.035.702 3.239 2.204 9.718.327 11.442-1.888 1.725-6.998-.216-7.413.24-.415.462-.462 6.466-11.126 7.185-10.653.708-14.868-.614-18.206-4.279-3.333-3.66-3.474-8.887-12.056-9.139" style="fill:#1f211d;stroke:none" transform="translate(-3.632 -44.01) scale(.33127)"/><path d="M225.311 360.643c1.035-.538 4.052-2.561 4.052-2.561s3.069-.801 2.906 2.561c-.176 3.356-3.251 5.718-3.251 5.718s-1.181 1.117-5.66 3.297c-4.478 2.169-7.396 2.883-9.512 3.146-2.117.263-.064-1.468-.064-1.468s6.793-1.712 10.488-4.916c.924-1.105.69-.936.643-1.994-.052-1.065-.643-3.245.398-3.783M215.465 356.854c2.725-1.28 2.058-3.379 1.503-4.741-.555-1.368-.935-2.491-4.28-2.175-3.338.321-10.693 4.022-12.412 5.823-1.719 1.801-1.052 7.261-6.759 16.44-5.712 9.197-11.898 21.926-14.652 27.784-2.759 5.864-6.934 19.562-5.864 21.48 1.07.193 1.819.398 1.819.398 1.678-14.804 11.558-27.544 13.628-30.438 2.076-2.87 11.225-15.336 13.412-19.451 2.175-4.111 3.047-8.332 5.812-10.419 2.765-2.099 5.075-3.432 7.793-4.701M197.183 437.924s.427-3.128 2.918-5.952c2.484-2.813 8.898-7.285 14.072-15.634 5.174-8.349 5.876-16.166 5.725-21.066-.153-4.899.473-5.665 3.191-8.658 2.731-3 9.197-6.42 10.571-6.636 1.385-.228 2.467.129 2.467.129s4.076 3.244 3.134 5.747c-.947 2.496-10.956 5.425-12.95 8.296.573 1.689-1.912 8.115-2.38 10.349-.467 2.233-2.327 11.482-7.829 17.966-5.507 6.484-16.89 15.031-17.791 16.798l-1.128-1.339M139.29 506.942s-1.123 3.983 1.304 5.181c2.432 1.193 4.542-2.585 4.542-2.585s4.649 1.333 6.665.667c.082 1.795-1.017 2.666 1.304 3.449 2.333.801 5.362-6.22 5.362-6.22s6.103-4.209 7.325-6.075c-24.649-5.396-26.192-8.588-26.192-8.588s-3.689 1.567-3.672 7.127c.011 5.577 3.362 7.044 3.362 7.044M338.455 490.051c-1.328-.432-.813-6.846.824-6.916 1.631-.081 1.684 1.064 1.684 1.064s4.677 2.076 5.379 6.455c.695 4.397-.228 5.578-.228 5.578s1.385 12.049-.339 13.605c-1.731 1.55-.719-1.274-.719-1.274s.472-7.392-1.018-11.25c-1.49-3.865-4.251-6.84-5.583-7.262M359.362 502.979s2.322.701 3.122.175c.789-.52.755-1.338.755-1.338s1.169.596 1.239-1.533c.058-2.133-2.671-4.461-2.671-4.461s-2.631-3.8-5.175-9.091c-2.538-5.28-4.601-10.91-5.034-13.02-.427-2.105-1.451.402-1.451.402s.013 7.357 2.878 15.899c2.852 8.541 6.337 12.967 6.337 12.967M367.595 500.453c-2.181-1.041-.463-2.754-.463-2.754s.387-2.308 2.053-1.736c1.66.584 3.934.145 10.716 5.227 6.793 5.085 8.192 17.459 8.192 17.459s4.068 13.393 7.671 23.864c3.6 10.471 10.306 20.798 10.051 22.282-.258 1.484-4.498 1.854-4.498 1.854s-7.051-14.237-8.302-19.909c-1.25-5.676-4.975-18.749-9.424-29.84-4.449-11.085-13.822-15.394-15.996-16.447" style="fill:#1f211d;stroke:none" transform="translate(-3.632 -44.01) scale(.33127)"/><path d="M413.823 571.46c-5.565-6.939-10.513-4.251-10.513-4.251s-7.173.579-14.72 3.795c0 0-5.736-7.087-12.787-14.289-7.045-7.203-21.359-18.967-25.229-24.842-3.881-5.871-9.208-21.668-12.126-24.473-2.911-2.813-12.704-5.625-14.72-6.835-2.025-1.217-5.404-6.947-8.338-13.694-2.942-6.729-3.111-20.803-3.111-20.803l-1.186-.929s-1.549 8.916 1.735 23.002c3.286 14.089 9.678 21.322 11.501 21.719 1.818.41 8.425 1.737 10.506 4.093 2.076 2.356 9.999 17.709 15.009 23.357 5.016 5.654 32.338 33.186 33.25 35.266 0 0-.86 5.935 2.472 7.257 3.339 1.316 5.491 5.302 4.725 6.489-.76 1.176-.859 2.496-.397 5.414.466 2.923-2.936 24.532-3.859 25.889-.918 1.35-1.514 13.003-1.293 17.738.229 4.737 3.28 7.058 6.864 6.719 3.584-.334 7.08-2.626 7.08-2.626s2.737 2.497 4.45.609c1.708-1.877-.217-4.573-.217-4.573s4.409-3.648 5.444-6.15c0 0 2.555 2.175 3.777.304 1.221-1.847-.112-5.876-.112-5.876s3.222-4.578 3.275-10.301c.064-5.736-.392-11.94-.346-14.395.047-2.462.667-6.741.667-6.741s1.537 1.397 2.42-.608c.896-2.005-1.443-6.484-1.443-6.484s2.789-6.84-2.778-13.781" style="fill:#1f211d;stroke:none" transform="translate(-3.632 -44.01) scale(.33127)"/><path d="M403.31 567.209s3.656 1.141 3.182 5.082c-.468 3.958-3.812 9.355-3.812 9.355.234 1.466-.59 4.94-.59 4.94s-.545 2.314 1.145-.06c1.696-2.373 3.602-6.875 4.075-10.833.468-3.953 1.129-3.818.006-6.711-1.111-2.884-4.006-1.773-4.006-1.773M404.844 589.397c-1.399 1.539-1.153 3.328-.142 3.941 1.012.603.86-2.496 2.264-4.033 1.408-1.551 1.689-2.38 2.718-4.883 1.029-2.502.989-6.922.989-6.922-1.252 4.812-4.427 10.365-5.829 11.897M388.613 620.285c.942-1.029 2.052-1.73 3.356-1.789 3.082-.649 6.156-1.438 9.015.228.339.31.696.784.556 1.438-3.976-1.116-8.221-.76-12.284-.239 0 0-.66-.129-.643.362M389.145 617.637c2.561-1.27 5.56-.263 8.116-1.521l-.036-.817c-1.848-.902-3.976-.966-5.91-.381-.656.035-1.299.393-1.755 1.07-.134.491-.275 1.158-.415 1.649M390.554 609.23c.813-.047 1.444-.568 2.251-.767 1.789-.251 3.747-.338 5.565-.099l.036.661c-1.45.555-3.111.14-4.724.543-1.297.223-2.562 1.427-3.73.825-.497-.134-.217-1.122.602-1.163M393.396 603.528c1.655.194 3.092-.315 4.752.095.159-.007.696.958.538.969-2.753.615-5.396.246-7.98.86-.024-.491-.047-.982.263-1.321.802-.368 1.438-.725 2.427-.603M391.297 600.676c2.057-1.403 4.706-.871 7.168-.824.321-.019.824.286.987.116.305-.344.276-.999.088-1.48-.181-.315-.503-.308-.842-.45-2.133-.221-4.268-.285-6.361.462-.327.018-.638.358-.783.691-.14.497.211.97-.257 1.485M392.36 595.554c2.591-.772 5.374-.741 7.981-.865-.034-.818.245-1.813-.742-1.935-2.292.111-4.596-.274-6.677.637-.65.205-1.094 1.205-.562 2.163M393.19 588.638c-.128.105-.333.022-.333.022-.304.497-.274 1.153-.099 1.311 1.012.608 1.795-.082 2.761-.462 1.285-.551 2.764-.292 4.08-.188.333-.016.994.281 1.151.113.31-.346.275-1.171.1-1.317-2.362-1.531-5.46-1.385-7.66.521" style="fill:#fff;stroke:none" transform="translate(-3.632 -44.01) scale(.33127)"/><path d="M212.6 267.985c1.048-.929.135-1.753.135-1.753s-1.374-1.456-2.245-1.205c-.854.258-40.313 19.791-66.991 74.521-26.672 54.736-14.604 97.826-14.604 97.826s1.216-2.028 3.092-3.858c.76-2.44-6.846-52.72 20.58-100.726 27.427-47.995 58.987-63.88 60.033-64.805M399.669 274.283c-39.651-28.585-80.327-31.245-80.327-31.245s-5.624-.795-6.39-.619c-.93-.188-2.801-.456-1.45-.602.28-.03 6.454.338 6.929.309 0 0 39.259 1.316 82.26 31.367 47.369 32.472 70.663 85.185 72.494 131.046 3.764 93.948-64.962 141.383-65.371 141.395-.147.006-3.38 2.683-4.111 2.227-1.409-.887-3.455-2.04-3.063-3.408.158-.556 3.051-2.42 3.215-2.895.656-1.824 66.862-43.733 64.265-144.124-1.216-47.159-29.004-95.014-68.451-123.451M163.571 513.333s36.325 48.38 102.725 60.98c66.399 12.587 103.327-9.776 103.327-9.776s2.772-2.016 2.707 1.842c-.064 3.842-2.088 4.345-2.088 4.345s-34.02 21.573-102.66 10.068c-68.639-11.501-104.011-67.459-104.011-67.459" style="fill:#1f211d;stroke:none" transform="translate(-3.632 -44.01) scale(.33127)"/><path d="M335.262 279.515c3.655-.591 2.017-.591 4.047-1.011 2.029-.421 3.139 2.479 3.332 2.959.187.479-.994 1.513-.994 1.513s-9.431 8.384-10.366 14.488c-.941 6.099 2.631 15.997 2.631 15.997s6.397 17.627 6.969 21.036c.561 3.408 1.649 19.475 2.321 23.304.672 3.812 3.66 6.45 3.718 7.677.053 1.222-2.946.064-4.086.193-1.141.135-.79.614-2.509.608-1.719 0-7.132-3.754-8.255-12.056-1.135-8.29-1.339-14.429-2.941-20.732-1.607-6.308-11.214-29.508-8.296-37.096 2.912-7.583 10.776-16.301 14.429-16.88" style="fill:#de1c39;stroke:none" transform="translate(-3.632 -44.01) scale(.33127)"/><path d="M352.206 604.68c-2.555-6.905 1.181-14.715 8.372-17.381 7.156-2.654 15.043.853 17.611 7.759 2.608 7.05-1.094 14.85-8.255 17.498-7.186 2.672-15.116-.824-17.728-7.876m2.474-.917c2.134 5.764 8.477 8.501 14.346 6.332 5.794-2.157 8.824-8.366 6.695-14.126-2.075-5.577-8.431-8.349-14.225-6.197-5.875 2.169-8.886 8.413-6.816 13.991zm19.269.958-2.472.913-6.561-4.964-2.543.936 2.414 6.512-2.144.789-5.24-14.12 6.339-2.355c1.215-.445 2.449-.831 3.788-.631 1.297.216 2.297 1.267 2.742 2.444 1.03 2.794-.584 4.577-3.14 5.601zm-9.863-5.741c2.041-.759 4.965-1.433 4.023-3.97-.678-1.829-2.381-1.479-4.204-.813l-3.758 1.404 1.578 4.257zM193.061 432.171c-7.688-7.642-17.902-11.816-28.765-11.764-8.723-.047-17.014 2.743-23.93 7.846a2.129 2.129 0 0 1-.182.012l.012.123c-1.555 1.158-3.058 2.396-4.455 3.795a39.91 39.91 0 0 0-10.501 18.469 6.478 6.478 0 0 0-.245.145l.146.24c-.754 3.093-1.187 6.285-1.187 9.542v.351c0 10.787 4.174 20.931 11.77 28.579 7.624 7.675 17.773 11.927 28.577 11.962 10.893-.035 21.107-4.28 28.772-11.946 7.676-7.67 11.915-17.89 11.945-28.771-.03-10.811-4.274-20.966-11.957-28.583m1.994 7.699a36.62 36.62 0 0 1 5.384 11.827c-1.28-.145-2.841.072-4.677 1.082-4.028 2.216-6.045 3.427-6.127 3.474l-.146.088-1.327 1.192c-1.813-.637-5.514-1.258-10.752 1.285-5.531 2.679-7.811 6.093-8.607 7.649a11.147 11.147 0 0 0-1.198-.737l-.123-.064-.134-.042c-.053-.016-5.461-1.876-7.332-5.454-1.765-3.379-1.742-4.87-1.742-5.133 0-.018.386-.527.386-.527.087-.088 9.138-8.477 17.159-10.962 6.946-2.146 16.365-3.351 19.236-3.678zm-27.146 43.155c-1.912 1.017-5.052.655-10.471-1.193-7.858-2.679-9.203-4.678-12.816-10.033l-.713-1.059c-3.614-5.338-5.426-16.148-5.426-21.451 0-.503.018-.959.047-1.356.193-2.269 2.701-4.233 7.63-5.982.116 1 .327 2.877.327 2.877l.017.088c.047.205 1.129 5.098 3.391 7.817 1.55 1.859 3.625 2.73 4.982 3.134.193 1.245.713 3.221 2.116 5.887 2.333 4.455 8.074 6.678 9.115 7.051.731.416 4.999 3.041 4.999 7.531 0 .625-.082 1.298-.274 2.005-.667 2.484-1.603 3.976-2.924 4.684zm22.749-48.44c.69.69 1.327 1.415 1.959 2.146-4.14.532-11.746 1.683-17.803 3.554-8.782 2.719-18.622 12.302-19.019 12.664l1.31-.093-.404-.071c-.024-.006-2.631-.374-4.181-2.239-1.414-1.688-2.385-5.046-2.665-6.285-.018-.187-.334-3.005-.369-3.344.667-.193 1.351-.386 1.351-.386 6.776-1.812 9.32-7.197 9.419-7.419l-.252-.124c4.216.282 9.338-.21 11.547-1.566l1.602-.977c2.263-1.39 4.397-2.701 5.584-3.543l-.257-.374a37.023 37.023 0 0 1 12.178 8.057zm-26.362-10.769a37.166 37.166 0 0 1 10.652 1.497 267.53 267.53 0 0 1-3.578 2.215l-1.608.989c-2.04 1.25-10.255 1.532-13.324.45-1.924-.685-5.963-.859-9.554-.866 5.304-2.824 11.243-4.309 17.412-4.285zm-26.146 10.775c1.081-1.075 2.227-2.046 3.402-2.964 4.672-.187 11.658-.182 13.752.561.391.134.841.257 1.333.357-.866 1.292-2.906 3.684-6.671 4.688l-2.766.784c-4.788 1.456-11.114 3.975-11.979 9.05-1.327-.081-3.099.025-4.783.801-.31.141-.62.292-.924.44a36.686 36.686 0 0 1 8.636-13.717zm-10.781 26.169v-.018a37.036 37.036 0 0 1 .83-7.869 50.268 50.268 0 0 1 3.671-1.911c1.106-.51 2.327-.55 3.228-.486.233 6.028 2.069 16.394 5.987 22.176l.707 1.047c3.841 5.712 5.595 8.314 14.541 11.366 2.911.994 5.875 1.835 8.547 1.906.199.777.597 2.724.088 4.512-.473 1.638-1.97 4.521-3.046 6.444-8.981-.59-17.358-4.361-23.778-10.822-6.993-7.045-10.816-16.4-10.775-26.345zm56.139 31.905a37.224 37.224 0 0 1-17.739 5.333c.959-1.813 2.035-4.011 2.479-5.573.655-2.291.316-4.607.035-5.887.421-.139.83-.287 1.228-.503 2.187-1.164 3.695-3.39 4.619-6.805a10.85 10.85 0 0 0 .391-2.882c0-3.497-1.777-6.303-3.747-8.244l.889.304c.052-.152 1.379-3.683 7.238-6.52 4.273-2.07 6.998-1.548 8.103-1.157.444 2.117 1.538 8.326.602 14.564-.964 6.438-3.268 14.559-4.098 17.37zm7.156-5.554a38.724 38.724 0 0 1-2.736 2.479c1.035-3.817 2.356-9.156 3.057-13.793.293-1.97.41-3.922.41-5.759 0-4.42-.661-8.161-1.023-9.897.538-.48 1.023-.918 1.151-1.035.503-.298 2.479-1.461 5.888-3.338 2.572-1.41 3.608-.346 3.724-.229l-.035-.041.1-.069c.257 1.747.403 3.525.409 5.325-.029 9.969-3.917 19.329-10.945 26.357z" style="fill:#1f211d;stroke:none" transform="translate(-3.632 -44.01) scale(.33127)"/></svg>