<svg xmlns="http://www.w3.org/2000/svg" width="324.05957" height="500.40964" viewBox="-15 -27 324.05957 500.40964"><defs><clipPath id="b" clipPathUnits="userSpaceOnUse"><path d="M198.712 121.057h39.258v42.268h-39.258zm12.75 17.161c5.852.655 10.56.355 11.092-3.39.581-3.647-5.243-4.183-11.093-3.724zm-.341 14.907c19.702 3.06 18.168-13.732 0-10.343" class="powerclip"/></clipPath><clipPath id="c" clipPathUnits="userSpaceOnUse"><path d="M111.966 66.24h49.625v57.902h-49.625zm15.44 45.291c27.115 3.954 23.203-20.497 0-15.594m.397-6.223c7.855 1.045 14.174.566 14.889-5.412.78-5.822-7.038-6.678-14.889-5.946z" class="powerclip"/></clipPath><clipPath id="a" clipPathUnits="userSpaceOnUse"><path d="M302.28 50.007h67.072v67.043H302.28zm23.88 23.99v18.895h18.905V73.997z" class="powerclip" style="display:inline;opacity:1;fill:#aa4077;fill-opacity:1;stroke:red;stroke-width:1.09611;stroke-linecap:butt;stroke-opacity:0"/></clipPath><clipPath id="d" clipPathUnits="userSpaceOnUse"><path d="M157.81 120.812h42.94v42.943h-42.94zm13.52 4.269.034 20.924c.574 3.782 1.672 7.065 7.839 7.047 4.122.483 7.61-2.032 8.029-7.02v-20.95z" class="powerclip" style="opacity:.439;fill:#d2d577;fill-opacity:1;stroke:#8b748b;stroke-width:.66101;stroke-linecap:butt;stroke-opacity:0"/></clipPath></defs><path d="M-14.5 13.806c98.988-49.585 205.239-57.766 323.06 0v382.323c-42.454 35.397-99.862 57.903-161.506 76.756C78.043 450.507 17.03 426.445-14.28 396.13z" style="display:inline;opacity:1;fill:#004077;fill-opacity:1;stroke:#8b748b;stroke-linecap:butt;stroke-opacity:0"/><path d="M8.473 25.517c84.606-40.628 175.552-45.57 276.964-.175v359.72c-36.397 32.497-85.613 50.398-138.462 67.707C87.813 432.224 35.506 412.3 8.663 384.468Z" style="display:inline;opacity:1;fill:#fff;fill-opacity:1;stroke:#8b748b;stroke-width:.88719;stroke-linecap:butt;stroke-opacity:0"/><g style="display:inline"><g style="fill:#e10000;fill-opacity:1" transform="translate(-15.321 -27.74)"><path d="M253.838 3.149h11.582v11.584h-11.582z" style="opacity:1;fill:#e10000;fill-opacity:1;stroke:red;stroke-width:.671794;stroke-linecap:butt;stroke-opacity:0" transform="matrix(.64765 .76194 -.64723 .7623 0 0)"/><rect width="5.0420113" height="41.28669" x="159.81401" y="208.38055" ry="0" style="display:inline;opacity:1;fill:#e10000;fill-opacity:1;stroke:red;stroke-width:1.41771;stroke-linecap:butt;stroke-opacity:0"/><path d="M285.573 37.053h23.43v23.255h-23.43z" style="display:inline;opacity:1;fill:#e10000;fill-opacity:1;stroke:red;stroke-width:1.35372;stroke-linecap:butt;stroke-opacity:0" transform="matrix(.653 .75736 -.65003 .7599 0 0)"/></g><g style="fill:#e10000;fill-opacity:1" transform="rotate(180 154.734 305.433)"><path d="M253.838 3.149h11.582v11.584h-11.582z" style="opacity:1;fill:#e10000;fill-opacity:1;stroke:red;stroke-width:.671794;stroke-linecap:butt;stroke-opacity:0" transform="matrix(.64765 .76194 -.64723 .7623 0 0)"/><rect width="5.0420113" height="41.28669" x="159.81401" y="208.38055" ry="0" style="display:inline;opacity:1;fill:#e10000;fill-opacity:1;stroke:red;stroke-width:1.41771;stroke-linecap:butt;stroke-opacity:0"/><path d="M285.573 37.053h23.43v23.255h-23.43z" style="display:inline;opacity:1;fill:#e10000;fill-opacity:1;stroke:red;stroke-width:1.35372;stroke-linecap:butt;stroke-opacity:0" transform="matrix(.653 .75736 -.65003 .7599 0 0)"/></g><path d="M308.845 56.57h53.943v53.916h-53.943z" clip-path="url(#a)" style="display:inline;opacity:1;fill:#e10000;fill-opacity:1;stroke:red;stroke-width:3.12772;stroke-linecap:butt;stroke-opacity:0" transform="matrix(.64821 .7603 -.65207 .75933 -16.15 -27.015)"/></g><g style="display:inline"><g style="fill:#004077;fill-opacity:1"><path d="M165.06 71.916h9.436v46.273h-9.436z" style="opacity:1;fill:#004077;fill-opacity:1;stroke:red;stroke-width:.905195;stroke-linecap:butt;stroke-opacity:0" transform="translate(-15.321 -27.74)"/><path d="M197.525 71.916h9.436v46.274h-9.436z" style="opacity:1;fill:#004077;fill-opacity:1;stroke:red;stroke-width:.905199;stroke-linecap:butt;stroke-opacity:0" transform="translate(-15.321 -27.74)"/><path d="M171.916 90.285H201.4v7.344h-29.484z" style="opacity:1;fill:#004077;fill-opacity:1;stroke:red;stroke-width:1.00589;stroke-linecap:butt;stroke-opacity:0" transform="translate(-15.321 -27.74)"/></g><g style="fill:#004077;fill-opacity:1"><path d="M130.689-157.624h7.662v31.277h-7.662z" style="opacity:1;fill:#004077;fill-opacity:1;stroke:red;stroke-width:.968655;stroke-linecap:butt;stroke-opacity:0" transform="matrix(1 0 0 -1 -15.321 -27.74)"/><path d="M136.625-157.608h20.852v4.867h-20.852z" style="opacity:1;fill:#004077;fill-opacity:1;stroke:red;stroke-linecap:butt;stroke-opacity:0" transform="matrix(1 0 0 -1 -15.321 -27.74)"/></g><path d="M123.353 127.912c-9.662-2.798-16.934-1.747-23.131 1.148-8.477 5.555-11.032 17.686-2.916 25.085 9.048 6.554 20.522 4.192 26.978.651l-3.163-4.65c-4.288 2.682-16.416 7.077-20.466-4.373-1.964-6.314 1.166-19.188 19.629-12.838z" style="opacity:1;fill:#004077;fill-opacity:1;stroke:red;stroke-linecap:butt;stroke-opacity:0" transform="translate(-15.321 -27.74)"/><path d="m204.066 157.75.13-31.32c9.304.531 22.754-1.802 25.404 5.238.353 1.066.604 2.286.496 3.048-.493 3.474-3.033 4-5.186 5.455 7.929 1.552 11.472 11.227 2.123 15.733-6.338 3.295-15.201 1.551-22.967 1.846z" clip-path="url(#b)" style="opacity:1;fill:#004077;fill-opacity:1;stroke:red;stroke-width:.705335;stroke-linecap:butt;stroke-opacity:0" transform="translate(-15.321 -27.74)"/><path d="m117.468 118.31.177-46.539c12.585.79 30.606-2.8 34.191 7.659 2.186 9.053-2.676 10.16-6.172 12.759 10.726 2.307 15.52 16.683 2.873 23.379-8.574 4.896-20.564 2.305-31.069 2.743z" clip-path="url(#c)" style="opacity:1;fill:#004077;fill-opacity:1;stroke:red;stroke-linecap:butt;stroke-opacity:0" transform="translate(-15.321 -27.74)"/><path d="M52.591 118.087h13.877L81.494 83.35l14.85 34.825h13.788L84.942 74.6c-2.497-3.494-4.84-3.81-6.983 0zM214.037 118.087h13.877l15.026-34.736 14.85 34.825h13.788L246.388 74.6c-2.497-3.494-4.84-3.81-6.983 0z" style="opacity:1;fill:#004077;fill-opacity:1;stroke:#8b748b;stroke-linecap:butt;stroke-opacity:0" transform="translate(-15.321 -27.74)"/><path d="M163.312 126.312h31.938v23.876c-.841 5.684-7.847 8.55-16.125 8-12.384.02-14.59-3.721-15.743-8.031z" clip-path="url(#d)" style="opacity:1;fill:#004077;fill-opacity:1;stroke:#8b748b;stroke-linecap:butt;stroke-opacity:0" transform="translate(-15.321 -27.74)"/></g></svg>