<svg xmlns="http://www.w3.org/2000/svg" width="118.86124" height="160.53758" viewBox="0 0 31.448702 42.475571"><defs><clipPath id="a" clipPathUnits="userSpaceOnUse"><path d="M36.092 603.148h89.146v120.404H36.092Z"/></clipPath><clipPath id="b" clipPathUnits="userSpaceOnUse"><path d="M36.092 603.148h89.146v120.404H36.092Z"/></clipPath></defs><g clip-path="url(#a)" transform="matrix(.35278 0 0 -.35278 -12.732 255.253)"><path d="M0 0c-6.098-9.884-15.746-16.909-27.208-16.909-11.029 0-20.759 6.249-26.544 15.77 0 0-13.749 16.179-11.845 45.825h77.032S13.801 18.139 0 0" style="fill:#193b67;fill-opacity:1;fill-rule:nonzero;stroke:none" transform="translate(107.731 620.058)"/><path d="M0 0c-5.719-8.723-14.767-14.923-25.516-14.923-10.343 0-19.468 5.515-24.894 13.918 0 0-11.823 15.408-11.108 40.443h72.242S10.962 14.642 0 0" style="fill:#078543;fill-opacity:1;fill-rule:nonzero;stroke:none" transform="translate(106.04 620.694)"/><path d="M0 0s-17.166 18.359-15.736 65.805c0 0 20.028-3.815 28.849 12.159 0 0 15.975-14.067 30.757 0 0 0 9.298-15.974 29.326-12.159 0 0 2.622-40.055-15.736-65.09z" style="fill:#193b67;fill-opacity:1;fill-rule:nonzero;stroke:none" transform="translate(51.913 645.588)"/><path d="M0 0s17.643-3.338 26.942 10.967c0 0 12.636-11.444 30.041 0 0 0 8.583-13.351 26.942-11.205 0 0 2.384-37.194-14.067-60.56H14.305S-1.431-43.154 0 0" style="fill:#078543;fill-opacity:1;fill-rule:nonzero;stroke:none" transform="translate(38.561 709.247)"/><path d="M0 0a15.551 15.551 0 0 1-6.722 9.694 15.445 15.445 0 0 0 7.19-2.185 14.39 14.39 0 0 1-7.967 5.234 14.461 14.461 0 0 0 2.063 1.971 11.394 11.394 0 0 1-4.192-1.612c-.04.004-.081.005-.12.009a11.43 11.43 0 0 1-1.213 2.638v.005l-.001-.003-.001.003v-.005a11.43 11.43 0 0 1-1.213-2.638l-.119-.009a11.412 11.412 0 0 1-4.193 1.612 14.401 14.401 0 0 0 2.062-1.971 14.386 14.386 0 0 1-7.965-5.234 15.437 15.437 0 0 0 7.189 2.185A15.551 15.551 0 0 1-21.924 0a18.495 18.495 0 0 0 6.286 6.915 18.297 18.297 0 0 1-3.167-8.532 18.82 18.82 0 0 1-.103-1.938c0-.803.058-1.592.158-2.368a21.254 21.254 0 0 0 4.388 9.927 21.149 21.149 0 0 1-.748-4.319 21.277 21.277 0 0 1-.057-1.478 21.382 21.382 0 0 1 .747-5.592l.02-.071-.001.077c-.003.136-.011.271-.011.408 0 .35.012.697.026 1.044a26.985 26.985 0 0 0 1.178 6.956c.282.914.614 1.807.989 2.676V-.356l-.372.288.372-2.014v-2.589l-.37.287.37-1.725v-2.589l-.37.287.37-1.726v-3.165l-.612-.287v-.287h3.737v.287l-.61.287v3.165l.371 1.726-.371-.287v2.589l.371 1.725-.371-.287v2.589l.371 2.014-.371-.288v4.061c.375-.869.707-1.762.989-2.676a27.027 27.027 0 0 0 1.177-6.956c.013-.347.026-.694.026-1.044 0-.137-.008-.272-.01-.408l-.001-.077.02.071a21.382 21.382 0 0 1 .746 5.592c0 .497-.023.989-.056 1.478a21.218 21.218 0 0 1-.749 4.319 21.257 21.257 0 0 0 4.389-9.927c.099.776.158 1.565.158 2.368 0 .654-.037 1.3-.104 1.938a18.307 18.307 0 0 1-3.166 8.532A18.493 18.493 0 0 0 0 0" style="fill:#fff;fill-opacity:1;fill-rule:evenodd;stroke:none" transform="translate(91.445 696.345)"/><path d="M0 0c-1.511-1.134-2.286-.539-3.006.731l1.115 1.099c.57.564-.038 1.351-.75.722l-1.364-1.123c-1.323 1.287-3.917 3.736-3.917 3.736 6.844 6.506 12.123 8.5 16.87 8.644-9.052 1.215-11.721-1.72-18.105-7.443-6.384 5.723-9.051 8.658-18.104 7.443 4.746-.144 10.026-2.138 16.87-8.644 0 0-2.595-2.449-3.918-3.736l-1.364 1.123c-.711.629-1.32-.158-.749-.722l1.114-1.099c-.719-1.27-1.494-1.865-3.006-.731-1.155 1.351-4.226.541-2.278-1.52 1.302-1.174 4.956-1.417 6.672.884l.899-.885c.691-.879 2.075-.783.749.734l-.902.886c1.366 1.554 2.708 2.648 4.017 3.881h.001c1.308-1.233 2.65-2.327 4.017-3.881l-.902-.886c-1.326-1.517.058-1.613.75-.734l.898.885C-2.677-2.937.976-2.694 2.279-1.52 4.227.541 1.156 1.351 0 0" style="fill:#fff;fill-opacity:1;fill-rule:evenodd;stroke:none" transform="translate(89.442 671.962)"/><path d="M0 0c0-16.459-13.343-29.803-29.803-29.803-16.459 0-29.803 13.344-29.803 29.803 0 16.46 13.344 29.803 29.803 29.803C-13.343 29.803 0 16.46 0 0" style="fill:#193b67;fill-opacity:1;fill-rule:evenodd;stroke:none" transform="translate(110.565 637.959)"/></g><text x="-106.32685" y="173.35287" style="font-variant:normal;font-weight:700;font-stretch:normal;font-size:2.52331px;font-family:&quot;WZMMWA +ArialRoundedMTBold&quot;;writing-mode:lr-tb;fill:#fff;fill-opacity:1;fill-rule:nonzero;stroke:none;stroke-width:.352778" transform="rotate(-68.018 -156.512 15.848)"><tspan x="-106.32685" y="173.35287" style="stroke-width:.352778">A</tspan></text><text x="-74.617592" y="188.20934" style="font-variant:normal;font-weight:700;font-stretch:normal;font-size:2.5233px;font-family:&quot;WZMMWA +ArialRoundedMTBold&quot;;writing-mode:lr-tb;fill:#fff;fill-opacity:1;fill-rule:nonzero;stroke:none;stroke-width:.352778" transform="rotate(-58.565 -176.874 32.808)"><tspan x="-74.617592" y="188.20934" style="stroke-width:.352778">l</tspan></text><text x="-54.731373" y="194.6581" style="font-variant:normal;font-weight:700;font-stretch:normal;font-size:2.52331px;font-family:&quot;WZMMWA +ArialRoundedMTBold&quot;;writing-mode:lr-tb;fill:#fff;fill-opacity:1;fill-rule:nonzero;stroke:none;stroke-width:.352778" transform="rotate(-52.823 -192.439 45.771)"><tspan x="-54.731373" y="194.6581" style="stroke-width:.352778">-</tspan></text><text x="-19.413801" y="201.00275" style="font-variant:normal;font-weight:700;font-stretch:normal;font-size:2.52331px;font-family:&quot;WZMMWA +ArialRoundedMTBold&quot;;writing-mode:lr-tb;fill:#fff;fill-opacity:1;fill-rule:nonzero;stroke:none;stroke-width:.352778" transform="rotate(-42.864 -228.545 75.844)"><tspan x="-19.413801" y="201.00275" style="stroke-width:.352778">A</tspan></text><text x="26.517525" y="200.03758" style="font-variant:normal;font-weight:700;font-stretch:normal;font-size:2.52331px;font-family:&quot;WZMMWA +ArialRoundedMTBold&quot;;writing-mode:lr-tb;fill:#fff;fill-opacity:1;fill-rule:nonzero;stroke:none;stroke-width:.352778" transform="rotate(-30.311 -305.92 140.289)"><tspan x="26.517525" y="200.03758" style="stroke-width:.352778">h</tspan></text><text x="56.799828" y="193.8743" style="font-variant:normal;font-weight:700;font-stretch:normal;font-size:2.5233px;font-family:&quot;WZMMWA +ArialRoundedMTBold&quot;;writing-mode:lr-tb;fill:#fff;fill-opacity:1;fill-rule:nonzero;stroke:none;stroke-width:.352778" transform="rotate(-21.96 -404.778 222.628)"><tspan x="56.799828" y="193.8743" style="stroke-width:.352778">l</tspan></text><text x="74.83271" y="187.86122" style="font-variant:normal;font-weight:700;font-stretch:normal;font-size:2.52331px;font-family:&quot;WZMMWA +ArialRoundedMTBold&quot;;writing-mode:lr-tb;fill:#fff;fill-opacity:1;fill-rule:nonzero;stroke:none;stroke-width:.352778" transform="rotate(-16.756 -515.376 314.744)"><tspan x="74.83271" y="187.86122" style="stroke-width:.352778">i</tspan></text><text x="118.5363" y="164.46004" style="font-variant:normal;font-weight:700;font-stretch:normal;font-size:2.5233px;font-family:&quot;WZMMWA +ArialRoundedMTBold&quot;;writing-mode:lr-tb;fill:#fff;fill-opacity:1;fill-rule:nonzero;stroke:none;stroke-width:.352778" transform="rotate(-3.038 -2605.73 2055.79)"><tspan x="118.5363" y="164.46004" style="stroke-width:.352778">S</tspan></text><text x="151.5146" y="136.18877" style="font-variant:normal;font-weight:700;font-stretch:normal;font-size:2.5233px;font-family:&quot;WZMMWA +ArialRoundedMTBold&quot;;writing-mode:lr-tb;fill:#fff;fill-opacity:1;fill-rule:nonzero;stroke:none;stroke-width:.352778" transform="rotate(8.845 817.861 -795.703)"><tspan x="151.5146" y="136.18877" style="stroke-width:.352778">a</tspan></text><text x="177.02951" y="103.0627" style="font-variant:normal;font-weight:700;font-stretch:normal;font-size:2.52331px;font-family:&quot;WZMMWA +ArialRoundedMTBold&quot;;writing-mode:lr-tb;fill:#fff;fill-opacity:1;fill-rule:nonzero;stroke:none;stroke-width:.352778" transform="rotate(20.308 321.19 -382.028)"><tspan x="177.02951" y="103.0627" style="stroke-width:.352778">u</tspan></text><text x="195.80969" y="64.529549" style="font-variant:normal;font-weight:700;font-stretch:normal;font-size:2.5233px;font-family:&quot;WZMMWA +ArialRoundedMTBold&quot;;writing-mode:lr-tb;fill:#fff;fill-opacity:1;fill-rule:nonzero;stroke:none;stroke-width:.352778" transform="rotate(32.06 179.002 -263.6)"><tspan x="195.80969" y="64.529549" style="stroke-width:.352778">d</tspan></text><text x="204.75917" y="34.689362" style="font-variant:normal;font-weight:700;font-stretch:normal;font-size:2.5233px;font-family:&quot;WZMMWA +ArialRoundedMTBold&quot;;writing-mode:lr-tb;fill:#fff;fill-opacity:1;fill-rule:nonzero;stroke:none;stroke-width:.352778" transform="rotate(40.557 126.67 -220.013)"><tspan x="204.75917" y="34.689362" style="stroke-width:.352778">i</tspan></text><text x="208.60243" y="-12.59181" style="font-variant:normal;font-weight:700;font-stretch:normal;font-size:2.52328px;font-family:&quot;WZMMWA +ArialRoundedMTBold&quot;;writing-mode:lr-tb;fill:#fff;fill-opacity:1;fill-rule:nonzero;stroke:none;stroke-width:.352778" transform="rotate(53.573 77.61 -179.15)"><tspan x="208.60243" y="-12.59181" style="stroke-width:.352778">F</tspan></text><text x="202.12029" y="-58.846931" style="font-variant:normal;font-weight:700;font-stretch:normal;font-size:2.5233px;font-family:&quot;WZMMWA +ArialRoundedMTBold&quot;;writing-mode:lr-tb;fill:#fff;fill-opacity:1;fill-rule:nonzero;stroke:none;stroke-width:.352778" transform="rotate(66.372 47.062 -153.708)"><tspan x="202.12029" y="-58.846931" style="stroke-width:.352778">C</tspan></text><g clip-path="url(#b)" transform="matrix(.35278 0 0 -.35278 -12.732 255.253)"><path d="M0 0c-15.393 0-27.915-12.523-27.915-27.915C-27.915-43.308-15.393-55.83 0-55.83c15.393 0 27.915 12.522 27.915 27.915C27.915-12.523 15.393 0 0 0m0-56.546c-15.787 0-28.63 12.844-28.63 28.631S-15.787.715 0 .715c15.787 0 28.63-12.843 28.63-28.63 0-15.787-12.843-28.631-28.63-28.631" style="fill:#078543;fill-opacity:1;fill-rule:nonzero;stroke:none" transform="translate(80.762 665.874)"/><path d="M0 0c0-11.136-9.028-20.164-20.164-20.164-11.137 0-20.165 9.028-20.165 20.164 0 11.136 9.028 20.164 20.165 20.164C-9.028 20.164 0 11.136 0 0" style="fill:#078543;fill-opacity:1;fill-rule:evenodd;stroke:none" transform="translate(100.926 637.959)"/><path d="M0 0c0-11.087 9.019-20.105 20.104-20.105 11.084 0 20.102 9.018 20.102 20.105 0 11.084-9.018 20.102-20.102 20.102C9.019 20.102 0 11.084 0 0" style="fill:#268951;fill-opacity:1;fill-rule:evenodd;stroke:none" transform="translate(60.822 638.022)"/><path d="M0 0c0 10.761 8.755 19.515 19.517 19.515 10.76 0 19.516-8.754 19.516-19.515 0-10.763-8.756-19.517-19.516-19.517C8.755-19.517 0-10.763 0 0" style="fill:#fff;fill-opacity:1;fill-rule:evenodd;stroke:none" transform="translate(61.41 638.022)"/><path d="M0 0a16.411 16.411 0 0 1-8.928-8.956c-3.476-8.43.559-18.129 8.995-21.615a16.436 16.436 0 0 1 12.669.017c4.081 1.697 7.256 4.875 8.937 8.952a16.44 16.44 0 0 1-.019 12.651A16.458 16.458 0 0 1 12.678.014 16.436 16.436 0 0 1 0 0" style="fill:#268951;fill-opacity:1;fill-rule:evenodd;stroke:none" transform="translate(74.548 653.296)"/><path d="M0 0c-8.138 3.364-12.031 12.716-8.676 20.849a15.825 15.825 0 0 0 8.61 8.638 15.846 15.846 0 0 0 12.228.013 15.878 15.878 0 0 0 8.658-8.647 15.84 15.84 0 0 0 .017-12.202A15.82 15.82 0 0 0 12.219.017 15.85 15.85 0 0 0 0 0" style="fill:#fff;fill-opacity:1;fill-rule:evenodd;stroke:none" transform="translate(74.84 623.267)"/><path d="M0 0h.469L.47 3.549H0Z" style="fill:#268951;fill-opacity:1;fill-rule:evenodd;stroke:none" transform="translate(80.69 654.283)"/><path d="M0 0c2.701 1.536 3.434 3.327 3.434 3.327-.666 4.291-1.257 5.605-3.562 8.878 0 0-2.359.73-4.573-.14 0 0-.729-2.742-.323-6.906l-5.083-1.786c-2.748 2.516-5.972 3.916-5.972 3.916s-3.224-1.4-5.972-3.916l-5.084 1.785c.409 4.165-.323 6.907-.323 6.907-2.213.87-4.57.14-4.57.14-2.308-3.273-2.898-4.587-3.565-8.878 0 0 .734-1.791 3.434-3.327 0 0 2.201 1.182 4.853 4.721l5.09-1.788c-.072-3.683 1.529-6.948 1.892-7.637l-3.67-3.937c-3.765 1.708-6.554 1.906-6.554 1.906-1.545-1.81-1.623-4.301-1.623-4.301 2.181-3.158 3.833-4.314 7.234-6.238 0 0 1.934.112 4.264 2.164 0 0-.405 2.498-2.93 6.199l3.724 3.999c.66-.124 2.127-.363 3.8-.41 1.673.049 3.141.287 3.8.41l3.724-3.999c-2.524-3.701-2.928-6.199-2.928-6.199 2.329-2.052 4.263-2.164 4.263-2.164 3.402 1.924 5.053 3.08 7.234 6.238 0 0-.078 2.491-1.622 4.301 0 0-2.792-.198-6.555-1.906l-3.671 3.939c.364.692 1.962 3.955 1.889 7.635l5.092 1.788C-2.199 1.182 0 0 0 0" style="fill:#268951;fill-opacity:1;fill-rule:evenodd;stroke:none" transform="translate(97.005 637.575)"/><path d="M0 0h-2.981l-.541-.791v-9.775H.293V0Z" style="fill:#193b67;fill-opacity:1;fill-rule:evenodd;stroke:none" transform="translate(79.238 630.319)"/><path d="M0 0v-9.391h-2.642v9.006l.263.385z" style="fill:#268951;fill-opacity:1;fill-rule:evenodd;stroke:none" transform="translate(78.945 629.732)"/><path d="M0 0h-3.12v-10.566H.694v9.775L.154 0Z" style="fill:#193b67;fill-opacity:1;fill-rule:evenodd;stroke:none" transform="translate(85.44 630.319)"/><path d="M0 0c.09-.13.205-.298.262-.385v-9.006h-2.639V0Z" style="fill:#268951;fill-opacity:1;fill-rule:evenodd;stroke:none" transform="translate(85.284 629.732)"/><path d="M0 0h-3.667v-10.566H.295V0Z" style="fill:#193b67;fill-opacity:1;fill-rule:evenodd;stroke:none" transform="translate(82.612 630.319)"/><path d="M82.32 620.34h-2.788v9.391h2.788z" style="fill:#268951;fill-opacity:1;fill-rule:evenodd;stroke:none"/><path d="M0 0h-4.232l-2.781-4.064h9.919L.124 0Z" style="fill:#193b67;fill-opacity:1;fill-rule:evenodd;stroke:none" transform="translate(82.98 633.855)"/><path d="m0 0 2.139-3.126h-8.138c.391.574 2.02 2.953 2.138 3.126z" style="fill:#268951;fill-opacity:1;fill-rule:evenodd;stroke:none" transform="translate(82.856 633.386)"/><path d="M0 0h-14.972l5.395-22.406h4.479L.298 0Z" style="fill:#193b67;fill-opacity:1;fill-rule:evenodd;stroke:none" transform="translate(88.263 655.791)"/><path d="m0 0-5.17-21.467h-3.738L-14.078 0Z" style="fill:#268951;fill-opacity:1;fill-rule:evenodd;stroke:none" transform="translate(87.965 655.322)"/></g><text x="125.34735" y="174.65654" style="font-variant:normal;font-weight:700;font-stretch:normal;font-size:2.52331px;font-family:&quot;WZMMWA +ArialRoundedMTBold&quot;;writing-mode:lr-tb;fill:#fff;fill-opacity:1;fill-rule:nonzero;stroke:none;stroke-width:.352778" transform="translate(-112.622 -135.218)"><tspan x="125.34735 126.8462 128.34505 129.84389" y="174.65654" style="stroke-width:.352778">1937</tspan></text></svg>