<svg xmlns="http://www.w3.org/2000/svg" width="441.2269287109375px" height="514.2479858398438px" viewBox="0 0 441.2269287109375 514.2479858398438"><path fill="none" d="M0 0h441.227v514.248H0z" style="fill:#98bf19;fill-opacity:0;pointer-events:none"/><path d="M450.1 282.1h-22.3V-41.5L399.3-69H170.8L51.5 46.5V122L78 149.3h22.9v132.5H58.4s-6.9.7-6.9 9V401l27.7 27.4h393.9s5.4-.6 5.4-8.3V309.5Z" class="st0" style="fill:#261e1d" transform="matrix(1.00523 0 0 1.00523 -46.662 74.704)"/><path d="M61.4 398h385.9V291.2H396V-58.9H173.6L60.4 51v67.6h50.7v173.1H61.7Z" class="st1" style="fill:#fef201" transform="matrix(1.00523 0 0 1.00523 -46.662 74.704)"/><path d="M370.5 31.7v83.8s7.4 98.9-117.1 171.9c0 0-109.9-54.5-118-168.6v-87c0-.1 108.8-68.2 235.1-.1z" class="st0" style="fill:#261e1d" transform="matrix(1.00523 0 0 1.00523 -46.662 74.704)"/><path d="m352.1 33.6-205.3 93.7s-1.5-9.6-1.5-20.8V37.3c-.1.1 97.3-56.4 206.8-3.7zM199.3 181.7v52.9s-26-26.9-30.9-39.7l30.9-14zM253.4 156.6v120.1l-27.7-19v-89.4l27.7-12.2zM307.6 131.8v103.8l-27.4 24.1V144.1l27.4-12.7zM361.6 107.5l-26.4 11.1v80.6s26-33.3 26.4-91.7zM349.4 65.6v20.3l-19.6 8.8V70.1h-3.5l3.4-5.5 6.5-3.4v24.3l6.7-3.4V67.8Z" class="st1" style="fill:#fef201" transform="matrix(1.00523 0 0 1.00523 -46.662 74.704)"/><path d="m349.4 62.3-6.4 2.2V58l6.4-2.6zM307.6 105.1l17.7-8.4v-6.9s-.4-12.5-15.5-7.4v5.1S320 84 320 93.1l-12.4 5.2zM303.1 106.5V92.2s-2.3-6.8-9.3-2.3l-6.1 3.2v14.4l-6.7 3.4s-6.7 2.8-6.7-2.9v-9.3l-6.5 4.5v5.8s-1.6 13.7 13.1 8.5L293 112V96.6s-.2-2.3 2.3-2.3c0 0 2.2-.2 2.2 2.2v12.3zM290.8 122.5l-6.4 2.2v-6.5l6.4-2.6zM282.2 126.2l-6.4 2.3v-6.6l6.4-2.6zM257.8 127.3V96.4l-6.6 3.6-2.2 5.4h3.3v24.3zM246.9 103.2v22.5s-.3 10.7-16.5 13.8v-6.6s11-2.6 11-7.6v-20z" class="st1" style="fill:#fef201" transform="matrix(1.00523 0 0 1.00523 -46.662 74.704)"/><path d="M236.9 107.5V125l-6.6 3.5v-18.9zM225.7 122v20l-41.8 19.3v-25h-3.4l2.6-4.8 6.4-2.9v24l18.8-8.6v-4.5s-.1-6.8-9.7-.8l-4.8 2.2 1.7-5.4s9.2-6 14.6-4.1c5.4 1.9 3.2 10.3 3.2 10.3l6-2.6v-15zM225.2 118.6l-6.1 2.1v-6.4l6.1-2.5zM217.9 121.6l-6.1 2.1v-6.4l6.1-2.5zM161.1 171.5l17.7-8.4v-6.9s-.4-12.5-15.5-7.4v5.1s10.2-3.5 10.2 5.6l-12.4 5.2z" class="st1" style="fill:#fef201" transform="matrix(1.00523 0 0 1.00523 -46.662 74.704)"/><path d="M236.7 43.2a2.3 2.6 0 0 1-2.3 2.6 2.3 2.6 0 0 1-2.3-2.6 2.3 2.6 0 0 1 2.3-2.6 2.3 2.6 0 0 1 2.3 2.6ZM219.2 31.5l1-4.6s15.2-11.6 19.9-1.9v9.6l-46.4 21.2v-5.3l12.3-5V41s-.9-4.6-12.3 2.8v-4.2s9.1-8.8 15.6-2.4c1.4 2 1.2 6.7 1.2 6.7l25.2-12.3V27s-.8-5.4-16.7 5.4zM175.2 48.1s-3.4 13 4.2 13c9.4 0 11.1-7.5 11.1-7.5v-13zm10.8 5.1s-.8 3.5-5.3 3.5c-3.7 0-2-6.1-2-6.1l7.4-3.4v6zM181.8 39.8a2.3 2.6 0 0 1-2.3 2.6 2.3 2.6 0 0 1-2.3-2.6 2.3 2.6 0 0 1 2.3-2.6 2.3 2.6 0 0 1 2.3 2.6ZM187 37.4a2.3 2.6 0 0 1-2.3 2.6 2.3 2.6 0 0 1-2.3-2.6 2.3 2.6 0 0 1 2.3-2.6 2.3 2.6 0 0 1 2.3 2.6Z" class="st0" style="fill:#261e1d" transform="matrix(1.00523 0 0 1.00523 -46.662 74.704)"/><path d="m175.2 106.5 106.3-49.1s4.8-2.8 2.5-8-7.6-2.9-7.6-2.9l-18.1 9.1s-1.5.6-1.5-1V44.1s-.8-6.7-9.8-3.1V14.8l-3.4 1.2v49.6l3.4-1.2V47.8s.1-2 3.8-2c0 0 2.6-.2 2.6 1.7v8.6s-.1 2.9 3.7 2.9c3.8 0 20.2-8.7 20.2-8.7s2.8-1.4 2.8 2.1c0 0 .2 1.8-8.8 5.3l-95.9 44.6z" class="st0" style="fill:#261e1d" transform="matrix(1.00523 0 0 1.00523 -46.662 74.704)"/><path d="m234.4 48.9-8.3 3.5v4.3s6.8-5.2 9.6-3.3v2.3s-6.5 1.3-9.6 6.2v4.6s-.6 4.4 6 4.4 8.1-7.2 8.1-7.2v-8c-.1.1.3-6.8-5.8-6.8zm1.5 15.1v.6l-.1.4-.4.6-.4.4-.4.4-.5.3-.5.2-.7.1-.6.1h-.7l-.4-.1-.3-.1-.4-.4-.1-.3-.1-.4-.1-.5-.1-.5V64l.1-.4.1-.7.1-.4 5.6-2.6zM222.6 70.7v-25c-2.2-.1-3.3 1.2-3.3 1.2v8.8c-9.3 2.4-9.9 6.5-9.9 6.5v6.9c0 3.9-.7 9.7 4 9.7 9.7 0 9.2-8.1 9.2-8.1zm-3.3 2.4s-5.3 3.8-6.7 1V63.4s1.5-2.6 6.7-3.4zM205.4 79V54c-2.2-.1-3.3 1.2-3.3 1.2V64c-9.3 2.4-9.9 6.5-9.9 6.5v6.9c0 3.9-.7 9.7 4 9.7 9.7 0 9.2-8.1 9.2-8.1zm-3.3 2.4s-5.3 3.8-6.7 1V71.7s1.5-2.6 6.7-3.4zM179.4 88.8l9-5.3s2.3-11.3-4.9-11.3c-8.3 0-8.3 8.2-8.3 8.2v10.7s0 4.1 4.5 4.2c5.8 0 8.5-4.2 8.5-4.2v-3.7s-7.2 4.3-8.8 3.5c-2.2-.8 0-2.1 0-2.1zm4.2-13c2.1 0 1.5 5 1.5 5s-4.4 3.4-5.4 3.4-1.1-3-1.1-3c-.1-3.8 5-5.4 5-5.4zM157.3 70.9V58.6s.2-3.5 8.3-6.4l5.2-1.8v54.8s.2 4.8-7.6 6.9c0 0-10 4.1-10-2.9V88.5s-.8-5.5 10.7-7.7v4.6s-7.2 1.7-7.6 6V106.2s.9 3.7 4.6 2.1c3.7-1.6 6.7-2.3 6.7-6.1v-46s-5.6.4-5.6 4v9.4zM115.6 349.2H98v-7.8h4.3V325h-6.5l5.4-7.8h8.9v24.3h5.4v7.7zM123.3 349.2v-24.3h-8.8v-7.8h24.2v7.8H130v24.2h-6.7zM150.9 349.2v-24.3h-8.8v-7.8h24.3v7.8h-8.8v24.2h-6.7zM193.9 349.2v-32h6.7v12.1h9.9v-12.1h6.6v32h-6.6v-12.1h-10v12.1zM170.8 349.2v-7.7h4.5v-16.7h-4.5v-7.7h16.5v7.8H183v16.5h4.3v7.8zM239 317.2h-4.9l-12.9 32h7.8l2.5-5.6h10.2l2 5.6h8.6zm-4.7 20.2 2.2-7.3 2.8 7.3zM281 332.3c0-15.4-14.3-15.1-14.3-15.1h-12.1v32h13.2c14.5 0 13.2-16.9 13.2-16.9zm-13.6 9.1H261v-16.5h5.8s6.9-.1 6.9 7.8c.1 0 .7 8.7-6.3 8.7zM321 330.3h7.1c0-13.3-14.4-13.2-14.4-13.2-15.8 0-15.1 16-15.1 16 0 16.3 14.9 16 14.9 16 13.2 0 14.6-12.9 14.6-12.9h-7.2s-1.5 5.3-7.6 5.3-8-5-8-9.4c0 0 .4-7.2 8.7-7.2 6.3.1 7 5.4 7 5.4zM332.8 349.2v-32h8v24.4H353v7.6zM356.2 317.2v20.5s-.1 11.5 12.4 11.5c0 0 11.8.1 11.8-11.8v-20.2h-7.7v20.7s.1 3.6-4.5 3.6c0 0-4.5.5-4.5-3.9v-20.5zM404.1 332.5s3.8-.5 3.8-6.4c0-8.6-8.6-8.9-8.6-8.9H385.9v32h12.2c7.7 0 10.8-3.9 10.8-10 .1-6.2-4.8-6.7-4.8-6.7zm-10.4-3v-5.6h4.8s2.9.1 2.9 3.8c0 0 .4 2.9-2.7 2.9h-5zm5.8 11.7h-5.8v-5.3h5.6s3.4.1 3.4 3c-.1 0 .4 2.3-3.2 2.3zM181.7 362.4h4.5v17.7h-4.5zM190.6 380.1v-17.7h4.4v6.8c.7.7 1.5.7 2.3 0v-6.8h3.2v6.7c.6.5 1.2.5 1.8 0v-6.7h3.8v5.6s.4 4.3-4.5 4.3c-2.3 0-2.6-1.1-2.6-1.1s-1.4 2.2-3.9 1.1v7.8zM219.3 380.1h-7.2s-3.9.1-3.9-5.7c0 0 .3-3.1 1.5-3.1 0 0-2-2-1.5-4.4 0 0 1-4.5 6.4-4.5h4.8v4.4h-5.6c-1.1 0-1.1 3.4 0 3.4h5.6v3.3h-6.6c-.6 0-.6 3.4 0 3.4h6.6v3.2zM229.2 380.1v-13.2h-6.6v-4.5h11v17.8h-4.4zM250.1 374.6h6.7v5.5h-6.7zM279 380.1v-17.5h-3.8l-5.3 5v2.6h4.6v10h4.5zM289.1 362.6s-6.9-.9-6.9 7c0 5.2 5.9 5 5.9 5s-2.3 5.5-3.5 5.5h5.3s5.4-4.9 5.4-11.2c0-6.3-6.2-6.3-6.2-6.3zm-.4 9c-1.4 0-2.6-1.2-2.6-2.6 0-1.4 1.2-2.6 2.6-2.6 1.4 0 2.6 1.2 2.6 2.6-.1 1.5-1.1 2.6-2.6 2.6zM318.4 380.1l5.8-11.8v-5.8H313v4.2h6.9l-6.7 13.3h5.2zM297.8 369.1s0-6.6 6-6.6c0 0 6-.7 6 6.6-.4 4.2-6 7.7-6 7.7h6v3.3h-11.3v-3.7l6.8-6.1s.5-3.4-1.8-3.4c-1.2 0-1.5 2.3-1.5 2.3z" class="st0" style="fill:#261e1d" transform="matrix(1.00523 0 0 1.00523 -46.662 74.704)"/></svg>