<svg xmlns="http://www.w3.org/2000/svg" width="470.22659" height="463.12021" viewBox="0 0 470.22659 463.12021"><path d="M290.872 58.66a235.113 231.56 0 0 1 235.113 231.56A235.113 231.56 0 1 1 290.872 58.66Z" style="fill:#03553f;fill-rule:evenodd" transform="translate(-55.759 -58.66)"/><path d="M290.872 77.071a216.42 213.15 0 0 1 216.42 213.15 216.42 213.15 0 1 1-216.42-213.15Z" style="fill:#fff;fill-rule:evenodd" transform="translate(-55.759 -58.66)"/><path d="M290.654 150.417c37.592 0 71.76 14.37 97.129 37.813l-2.864 2.839c-24.632-22.728-57.789-36.658-94.265-36.658-76.028 0-137.662 60.494-137.662 135.118 0 36.294 14.583 69.244 38.308 93.52l-2.863 2.838c-24.47-25-39.514-58.954-39.514-96.358 0-76.83 63.456-139.112 141.731-139.112z" style="fill:#03553f;fill-rule:evenodd" transform="translate(-55.759 -58.66)"/><path d="M290.872 165.031c33.49 0 63.977 12.593 86.817 33.207l-11.206 11.112c-19.956-17.827-46.489-28.697-75.61-28.697-62.027 0-112.31 49.305-112.31 110.124 0 28.997 11.435 55.37 30.118 75.037l-11.212 11.116c-21.598-22.505-34.838-52.81-34.838-86.153 0-69.447 57.416-125.746 128.241-125.746zM441.264 356.906c6.598 5.195 8.528 12.358 2.565 22.714-10.31 17.906-22.31 29.87-34.438 39.935-3.701-7.494-2.977-14.601 4.84-22.48 10.715-10.8 19.391-24.78 27.034-40.17zM414.418 422.82c14.085-13.203 26.652-28.963 38.401-47.318 4.68-7.311 10.704-10.37 17.26-8.63-6.498 16.48-17.994 34.471-31.786 48.758-6.87 7.116-15.237 8.363-23.875 7.19zM455.593 289.776c8.173 1.93 12.943 7.611 11.902 19.516-1.8 20.583-7.637 36.492-14.393 50.73-6.515-5.234-8.855-11.984-5.087-22.425 5.162-14.31 7.136-30.644 7.578-47.82zM459.038 360.865c7.205-17.91 11.957-37.5 14.873-59.097 1.161-8.603 5.334-13.915 12.012-15.101 1.056 17.682-1.784 38.843-8.268 57.612-3.229 9.35-10.29 14.008-18.617 16.586zM395.522 414.095c3.756 7.51 2.45 14.813-7.356 21.643-16.955 11.807-32.909 17.52-48.17 21.459-.155-8.356 3.528-14.478 13.957-18.276 14.294-5.207 28.099-14.158 41.569-24.826zM343.154 462.293c18.368-5.945 36.451-14.85 54.9-26.45 7.349-4.622 14.1-4.823 19.29-.456-12.898 12.142-30.963 23.521-49.527 30.571-9.246 3.512-17.347 1.076-24.663-3.664zM445.82 236.364c11.04-2.564 17.213 1.174 19.556 11.345 3.214 13.945 4.489 24.428 3.284 39.26-10.489-1.95-13.415-8.48-14.33-19.555-.957-11.567-4.24-21.928-8.51-31.05zM472.69 220.839c-6.617 3.56-7.912 10.821-5.373 20.75 4.71 16.081 6.389 30.495 6.717 44.186 9.205-6.572 12.54-16.168 9.405-29.11-2.837-12.24-7.016-24.63-10.748-35.826zM450.598 210.39c-1.316 9.218-2.089 23.224 11.195 21.346 4.824-8.614-1.987-16.116-11.195-21.347zM138.952 356.906c-6.598 5.195-8.528 12.358-2.565 22.714 10.31 17.906 22.31 29.87 34.439 39.935 3.7-7.494 2.976-14.601-4.842-22.48-10.713-10.8-19.39-24.78-27.032-40.17zM165.798 422.82c-14.085-13.203-26.652-28.963-38.401-47.318-4.68-7.311-10.703-10.37-17.26-8.63 6.498 16.48 17.994 34.471 31.786 48.758 6.87 7.116 15.237 8.363 23.875 7.19zM124.623 289.776c-8.173 1.93-12.942 7.611-11.901 19.516 1.8 20.583 7.637 36.492 14.393 50.73 6.514-5.234 8.854-11.984 5.087-22.425-5.163-14.31-7.137-30.644-7.579-47.82zM121.179 360.865c-7.206-17.91-11.958-37.5-14.874-59.097-1.161-8.603-5.334-13.915-12.012-15.101-1.056 17.682 1.784 38.843 8.268 57.612 3.23 9.35 10.29 14.008 18.618 16.586zM184.694 414.095c-3.756 7.51-2.45 14.813 7.356 21.643 16.955 11.807 32.909 17.52 48.17 21.459.155-8.356-3.528-14.478-13.957-18.276-14.294-5.207-28.098-14.158-41.569-24.826zM237.062 462.293c-18.368-5.945-36.451-14.85-54.9-26.45-7.349-4.622-14.1-4.823-19.29-.456 12.898 12.142 30.963 23.521 49.527 30.571 9.246 3.512 17.348 1.076 24.663-3.664zM134.396 236.364c-11.04-2.564-17.213 1.174-19.556 11.345-3.213 13.945-4.488 24.428-3.284 39.26 10.49-1.95 13.415-8.48 14.33-19.555.957-11.567 4.241-21.928 8.51-31.05zM107.525 220.839c6.618 3.56 7.913 10.821 5.375 20.75-4.712 16.081-6.39 30.495-6.718 44.186-9.205-6.572-12.54-16.168-9.404-29.11 2.836-12.24 7.015-24.63 10.748-35.826zM129.619 210.39c1.315 9.218 2.088 23.224-11.196 21.346-4.823-8.614 1.987-16.116 11.196-21.347z" style="fill:#03553f;fill-rule:evenodd" transform="translate(-55.759 -58.66)"/><path d="M393.262 193.564c24.24 24.962 39.124 58.757 39.124 95.965 0 76.829-63.456 139.111-141.732 139.111-36.963 0-70.617-13.893-95.849-36.643l2.851-2.85c24.497 22.042 57.145 35.5 92.998 35.5 76.029 0 137.663-60.495 137.663-135.118 0-36.092-14.419-68.877-37.908-93.113z" style="fill:#b43120;fill-rule:evenodd" transform="translate(-55.759 -58.66)"/><path d="M383.253 203.57c22.203 22.609 35.86 53.343 35.86 87.207 0 69.448-57.416 125.746-128.24 125.746-33.637 0-64.242-12.704-87.116-33.477l11.158-11.157c19.995 18.012 46.665 29.013 75.957 29.013 62.026 0 112.309-49.305 112.309-110.125 0-29.495-11.827-56.283-31.084-76.051z" style="fill:#b43120;fill-rule:evenodd" transform="translate(-55.759 -58.66)"/><path d="M241.557 235.948v-8.107l22.558-15.156c-.117-2.564.25-4.968 1.057-7.225 1.22 2.569 2.966 5.31 5.11 7.572 26.188 14.086 29.459 34.13 24.85 56.223-2.972-4.92-5.944-8.312-8.915-9.231-2.954-.669-2.927.373-2.188 2.358 5.4 12.228 12.061 18.858 21.5 23.968l-4.758 1.938.081 1.604c11.438-2.928 20.711.523 28.619 10.204 19.105-2.611 28.31.316 31.218 10.75 3.462 15.13-13.355 33.538 5.464 50.755-18.393-4.609-27.208-14.006-26.435-28.197.662-13.502 12.862-28.138-7.376-28.589 3.537 11.332-.572 20.587-8.132 27.884l4.405 5.287-2.82 2.467 7.931 6.168-4.934 24.849c-3.041.678-5.22 2.506-5.992 6.21l-11.984-.042c1.756-4.96 5.174-8.153 10.965-8.825 2.501-4.924 3.608-11.398 3.838-18.844l-6.873-5.463-9.164 6.577c-2.807 2.812-.318 5.908 2.644 6.64l-.881 9.165c-8.006-4.475-9.526-9.416-8.107-18.462l10.398-6.916c-8.619-6.436-18.94-6.157-18.479-21.01 3.046-.121 6.093-.493 9.139-1.371l-.353-1.762c-17.316-1.143-32.085-7.9-45.115-18.625l4.638-2.266c1.673-.898.226-1.985-.937-1.843l-19.682 5.923-.259 2.94 10.841 6.654c3.575 1.616 4.407.112 6.185-1.11l9.083 5.33c-5.075 3.007-10.246 3.871-15.573 1.329l-17.017-9.744 1.65-9.087 7.853-3.997c-3.768-7.423-9.495-12.153-17.3-14.027l-1.556 10.326c.493 1.856 1.87 2.829 3.877 3.172l-1.247 10.397c-5.921-2.796-8.38-7.606-7.745-14.437l1.943-17.643 14.627 2.874c1.687 5.303 4.22 9.184 7.754 12.64-5.4-13.005-5.486-24.639 8.203-32.718 3.185-10.35 13.872-18.394 13.595-20.205-6.046 1.47-11.238 1.188-15.746-1.958l-5.347 6.77z" style="fill:#03553f;fill-rule:evenodd" transform="translate(-55.759 -58.66)"/><path d="m170.192 177.888-9.201 11.626c-.995 1.258-2.198 1.4-3.449.411l-4.689-3.711 9.415-11.896-5.762-4.56-9.415 11.896-3.75-2.969c-1.252-.99-1.389-2.193-.394-3.45l9.201-11.626-5.71-5.176c-3.972 4.01-8.59 9.846-12.64 14.964-3.304 4.175-2.943 9.133 1.032 12.279l17.865 14.138c3.975 3.146 8.848 2.403 12.188-1.817 4.05-5.117 8.668-10.953 11.658-15.741zm13.259-42.474-5.386-6.26-25.39 21.839 5.386 6.261 8.594-7.392 20.242 23.533 8.16-7.019-20.243-23.532zm36.062-19.576-3.744-7.361-29.85 15.182 3.744 7.361 10.103-5.139 14.072 27.669 9.593-4.88-14.072-27.667zm28.704 23.055L235.7 101.64l-10.093 3.392 12.517 37.253zm28.043-37.537-.825-7.604c-5.362.256-12.52 1.526-18.72 2.625-5.3.94-8.377 4.898-7.472 10.002l5.4 30.452 10.597-1.88-2.755-15.534 14.374-2.548-1.293-7.291-14.373 2.548-.965-5.44c-.278-1.57.474-2.57 2.278-2.89zm28.317 21.928 2.112 9.397 10.988.275-9.842-36.767c-.416-1.72-1.876-2.839-3.593-2.882l-9.958-.25c-1.717-.043-3.232 1.001-3.676 2.7l-11.733 36.225 10.988.276 2.581-9.279zm-1.751-7.793-8.242-.207 2.829-10.013c.319-1.303.642-2.776.904-4.08l1.545.04c.082 1.312.389 2.8.641 4.118zm44.19-16.027c-12.508-3.527-18.232-.525-22.575 14.879-4.344 15.404-1.031 20.954 11.476 24.48 12.618 3.558 18.287.54 22.63-14.864 4.344-15.404 1.086-20.938-11.532-24.495zm-2.226 7.893c4.848 1.368 5.475 4.207 2.847 13.526-2.627 9.32-4.645 11.414-9.494 10.046-4.793-1.351-5.475-4.206-2.848-13.526 2.628-9.319 4.7-11.397 9.495-10.046zm-15.847 35.95c3.494 4.063 8.357 8.333 14.924 12.256l5.087-7.915c-6.35-2.797-11.566-5.392-16.314-8.802zm79.391-4.605 4.534-6.162c-4.124-3.435-10.257-7.34-15.57-10.722-4.54-2.89-9.483-2.053-12.266 2.319l-16.61 26.089 9.08 5.78 8.472-13.31 12.314 7.84 3.977-6.245-12.314-7.84 2.967-4.66c.856-1.346 2.088-1.575 3.633-.59zm-8.703 21.08c-2.166-1.69-3.37-1.545-5.05.61l-1.542 1.976c-1.682 2.155-1.531 3.357.636 5.048l1.94 1.514c2.167 1.69 3.369 1.545 5.051-.61l1.542-1.976c1.682-2.155 1.53-3.357-.637-5.048zm44.455.831c-8.317-9.534-15.4-9.51-26.688.338-11.288 9.847-12.274 16.86-3.958 26.395 3.914 4.486 6.59 6.862 10.1 8.89l5.315-5.776c-2.71-2.499-4.897-4.92-8.548-9.105-3.085-3.537-2.148-6.102 4.505-11.906 6.653-5.803 9.32-6.383 12.407-2.845a337.37 337.37 0 0 1 7.548 8.912l6.45-4.562c-1.711-3.522-3.255-5.898-7.13-10.341zm-8.745 38.512c-1.49-2.308-2.674-2.567-4.97-1.084l-2.106 1.36c-2.297 1.482-2.549 2.667-1.058 4.976l1.334 2.068c1.491 2.308 2.675 2.566 4.972 1.084l2.105-1.36c2.297-1.483 2.549-2.668 1.058-4.976z" style="fill:#b43120;fill-rule:evenodd" transform="translate(-55.759 -58.66)"/><path d="M259.797 452.846v23.737h2.77v-23.737zM300.722 451.74l-13.285 15.055v1.771h10.628v8.06h2.657v-8.06h3.01v-2.302h-3.01zm-9.666 14.524h7.009v-7.882zM320.117 452.802h-10.982v12.222c5.772-1.226 9.27.571 9.122 4.782-.177 5.035-7.425 5.243-11.07 2.303v3.276c6.15 2.937 13.665 1.24 13.992-5.49.268-5.497-3.355-8.151-9.476-7.971v-6.642h8.414zM273.247 475.026c2.78-1.817 7.104-6.46 7.602-9.359-6.532 2.9-12.124-1.666-10.679-8.301 1.72-7.895 13.235-6.908 14.493 1.107 1.465 9.336-4.359 14.544-9.282 18.78-.81-.854-1.325-1.373-2.134-2.227zm8.289-13.21c1.596-4.283-2.662-8.456-6.56-6.534-2.532 1.248-2.834 4.375-1.568 6.534 1.7 2.897 5.759 2.742 8.128 0z" style="fill:#03553f;fill-rule:evenodd" transform="translate(-55.759 -58.66)"/></svg>