<svg xmlns="http://www.w3.org/2000/svg" width="316.227766" height="316.227766" viewBox="0 0 25.982082 25.982083"><g transform="matrix(.26458 0 0 .26458 .159 .053)"><circle cx="48.5" cy="48.900002" r="49" fill="#fff"/><circle cx="48.5" cy="48.900002" r="47.400002"/><g fill="#fff"><path d="M12.8 39.3c-.1-.1-.2-.2-.3-.2-.3-.1-.5.1-.6.4l-.1.2-.2.9-2.1-.6.3-1.3h.1c.3.1.5.1.7 0 .1 0 .1-.1.2-.3v-.3c-.1-.1-.2-.2-.4-.2L9 37.6c-.1 0-.5-.1-.6.3v.3c.1.1.3.2.6.3h.1l-.3 1.3-1.8-.4.7-2.8.7.2h.2c.2.1.4 0 .5 0 .1-.1.2-.2.2-.3v-.4c-.2-.1-.3-.1-.4-.2l-1.4-.3c-.3-.1-.6 0-.6.3l-1.2 4.8v.4c.1.1.2.2.3.2h.4c.1-.1.2-.2.2-.4l.1-.2.1-.3 4.7 1.2-.1.3v.2c-.1.2 0 .4 0 .5.1.1.2.2.3.2h.4c.1-.1.2-.2.2-.3l.7-2.7c-.1-.3-.1-.4-.2-.5zM15.9 30.7c-.1-.5-.1-.8-.4-.9-.1-.1-.3-.1-.4 0-.1 0-.2.1-.3.3-.1.1 0 .3 0 .5 0 .1 0 .3.1.4 0 .5-.1.9-.2 1.3-.6 1.1-1.8 1.5-3.2.8-.8-.4-1.4-.9-1.6-1.5-.2-.5-.1-1 .1-1.5.3-.6.9-1 1.4-.8.1 0 .2 0 .3.1.3.1.6.2.8-.3.1-.2.1-.3.1-.4s-.2-.2-.3-.3h-.1c-.2-.1-.6-.2-1.1-.5-.2-.1-.3-.2-.5-.1-.2 0-.3.2-.3.3-.1.2-.1.4 0 .5-.4.4-.7.8-1 1.2-.4.8-.4 1.6-.2 2.4.3.9 1 1.6 1.9 2.1s1.9.5 2.8.2c.8-.3 1.4-.8 1.8-1.6.3-.8.4-1.4.3-2.2zM26.8 18.4c-.1-.1-.2-.2-.4-.2-.1 0-.2.1-.4.2l-.1.1-3.3-3.6c.2-.2.3-.3.3-.4s0-.2-.1-.3-.2-.2-.3-.2-.2 0-.3.1l-.7.6c-.3.2-.4.5-.2.8 0 0 1 2.4 1.3 3.2l-3-1.7c-.3-.2-.5-.1-.8.1l-.8.6c-.1.1-.2.2-.2.3s0 .2.1.3.2.2.3.2.3-.1.5-.2l3.1 3.8-.1.1c-.2.2-.3.3-.3.4s0 .2.1.3.2.2.3.2.2 0 .3-.1l1.2-1c.2-.2.3-.3.3-.4s0-.2-.1-.3c-.3-.3-.6-.1-.8.1-.1.1-.2.1-.2.2l-2.7-3.3 2.5 1.5c.3.2.5.2.8-.1.3-.2.3-.4.2-.8 0 0-.7-1.8-1.1-2.7l2.8 3.1c-.2.2-.4.4-.4.5s0 .2.1.3.2.2.3.2c.2 0 .3-.1.5-.2l1.2-1c.1-.1.2-.2.2-.3 0-.2 0-.3-.1-.4zM32.6 15.1c-.2-.4-.5-.3-.9 0l-1 .6-2.3-4.2 1-.6c.3-.2.4-.3.5-.4 0-.1 0-.2-.1-.4-.2-.3-.4-.3-.7-.2l-.2.1-2.9 1.6c-.3.1-.4.3-.5.4 0 .1 0 .2.1.4.1.1.2.2.3.2.2 0 .3 0 .6-.2l1-.6 2.3 4.2-1 .6c-.3.1-.4.3-.5.4 0 .1 0 .2.1.3s.2.2.3.2.2 0 .4-.1l.2-.1 2.9-1.6c.3-.1.4-.3.5-.4 0 .1-.1-.1-.1-.2zM39.4 9.6c-.3-1-.8-1.7-1.5-2.1s-1.5-.5-2.4-.2l-1.2.4-.9.3c-.3.1-.5.2-.6.3s-.1.2 0 .4c0 .1.1.2.2.3s.3.1.5 0h.1l1.4 4.6h-.1c-.2.1-.4.2-.4.3s-.1.2 0 .4c0 .1.1.2.2.3s.2.1.4 0l.2-.1.8-.3c.1 0 .3-.1.4-.1s.2-.1.3-.1c1.2-.4 1.9-.8 2.2-1.6.7-.8.7-1.8.4-2.8zm-1 2.3c-.3.5-.8.9-1.7 1.2-.2.1-.4.1-.6.2l-1.4-4.6c.2-.1.4-.1.5-.2.9-.3 1.6-.3 2.1 0s.8.8 1.1 1.6c.2.7.2 1.3 0 1.8zM47.5 7.8v-.2l-.2-1.8c0-.3-.2-.4-.5-.4l-4.8.5c-.3 0-.5.2-.5.5l.1 1.8v.3c0 .2.1.3.2.4s.2.1.4.1c.5 0 .5-.3.4-.8l-.1-1.4 1.4-.1.5 4.8-.8.1h-.2c-.2 0-.4.1-.4.2-.1.1-.1.2-.1.4s.1.3.2.3c.1.1.2.1.4.1l3.1-.3c.1 0 .3-.1.3-.2.1-.1.1-.2.1-.4 0-.3-.2-.5-.6-.4h-.2l-.8.1-.5-4.8 1.4-.1.2 1.4c.1.5.1.7.6.7.1 0 .3-.1.3-.2.1-.3.1-.4.1-.6zM55.9 6c-.1-.1-.2-.1-.3-.2h-.3l-3.1-.3c-.4 0-.8-.1-.8.4 0 .2 0 .3.1.4s.3.2.6.2l1.4.1-.3 3.3c-.1.6-.2 1-.4 1.3s-.6.4-1.1.3c-.6-.1-1.1-.4-1.2-1V9.4c-.1-.2-.2-.3-.4-.3-.1 0-.3 0-.4.2-.1.1-.1.3-.1.5l-.2 1.2c0 .3 0 .5.3.7.6.4 1.2.6 1.9.7.8.1 1.4 0 1.8-.4s.7-.9.8-1.9l.3-3.4.6.1c.3 0 .5 0 .6-.1.2-.1.3-.2.3-.3 0-.2 0-.3-.1-.4zM64.4 8.4c-.1-.2-.3-.2-.6-.3l-.8-.3h-.1c-.5-.2-.8-.3-.9.2v.4c.1.1.2.2.4.3h.1l-1.8 1.7-.5-2.4h.7c.1-.1.1-.2.2-.3v-.4c-.1-.1-.3-.2-.5-.3l-1.2-.4c-.2-.1-.4-.1-.5-.1-.2 0-.3.1-.3.3v.4c.1.1.2.2.5.3l.8 3.5-.5 1.7-.7-.2c-.4-.1-.7-.2-.9.2v.4c.1.1.2.2.5.3l2.5.8c.3.1.4.1.6 0 .1 0 .2-.1.2-.3v-.4c-.1-.2-.3-.2-.6-.3l-.7-.2.5-1.6L63.6 9c.3.1.4.1.6 0 .1-.1.2-.1.2-.3v-.3zM70.4 15.6c0-.1-.1-.2-.2-.3s-.3-.1-.4 0-.2.2-.3.4l-.7 1.2-2.4-1.4 2.4-4.2.7.4c.2.1.5.2.6.2s.2-.1.3-.2.1-.3.1-.4-.1-.2-.3-.3l-.2-.1-2.2-1.2c-.3-.2-.6-.4-.9.1-.1.1-.1.3-.1.4 0 .2.2.3.5.4l.5.3-2.5 4.1-.5-.3c-.2-.1-.4-.2-.5-.2-.2 0-.3.1-.4.3-.1.1-.1.3-.1.4s.1.2.3.3l.2.1 4.3 2.4c.1.1.3.1.4.1s.2-.1.3-.3l.9-1.6c.1-.3.2-.5.2-.6zM77.5 16.4l-.2-.2-1.9-1.7c-.2-.1-.3-.3-.4-.3-.2-.1-.3.1-.4.2s-.2.2-.1.3c0 .2.1.3.4.5l.5.4-3.4 3.7-.5-.4c-.3-.3-.6-.5-.9-.1-.1.1-.2.2-.1.4 0 .1.1.2.2.3l.2.2 3.7 3.2c.2.1.3.1.4.1s.2-.1.3-.2l1.2-1.4c.2-.2.3-.4.3-.6 0-.1-.1-.2-.2-.3-.3-.3-.6-.1-.9.2l-.9 1-2-1.7 3.2-3.6.6.6c.2.2.4.3.6.3.1 0 .2-.1.3-.2s.1-.2.1-.3c.1-.2 0-.3-.1-.4zM83.5 22.9l-.9-1.3c-.2-.2-.3-.4-.4-.5-.2-.1-.3-.1-.5.1-.1.1-.2.2-.2.3 0 .2 0 .3.2.6l.4.5-5 1.4v-.1c-.1-.2-.2-.3-.3-.3s-.2 0-.4.1c-.1.1-.2.2-.2.3 0 .2.1.3.2.5l.9 1.2c.2.2.3.4.5.4.1 0 .2 0 .3-.1s.2-.2.2-.3c0-.2-.1-.4-.2-.6l-.2-.3 1.2-.4 1.6 2.2-.6 1.1-.2-.3-.4-.4c-.1-.1-.3 0-.4.1s-.2.2-.2.3c0 .2.1.4.3.6l.9 1.2c.1.2.3.3.4.3s.2 0 .4-.1c.1-.1.2-.2.2-.3s0-.3-.2-.5l3-4.9c-.1-.4-.2-.5-.4-.8zm-2.5 3-1.2-1.6 2.7-.8zM89.2 33.2l-.1-.2-.6-1.2c-.2-.4-.3-.6-.7-.4-.1.1-.2.1-.2.2-.1.1 0 .3.1.5l.2.4.1.1-3.6 1.7 3.1-4.3c.2-.3.2-.4.1-.8l-.2-.5c-.2-.5-.4-.9-.9-.7-.1.1-.2.1-.2.2-.1.2 0 .4.2.8l-4.4 2c-.1-.3-.3-.6-.7-.4l-.3.3v.4l.1.2.6 1.3c.1.2.2.4.4.5h.4c.1-.1.2-.1.2-.2.1-.1 0-.3-.1-.6l-.2-.4-.1-.2 3.8-1.7-3.2 4.6c-.2.3-.2.3-.1.6v.1c.1.1.1.3.3.3h.3l5-2.3c.1.2.2.4.3.4h.4l.3-.3c-.2-.1-.2-.3-.3-.4zM90.9 38.7l-.3-1.2-.2-.9c-.1-.2-.1-.4-.2-.5-.1-.2-.3-.1-.5-.1-.1 0-.2.1-.3.2s-.1.3 0 .5v.1L84.7 38v-.1c-.1-.4-.2-.6-.6-.5-.1 0-.3.1-.3.2-.1.1-.1.2 0 .4l.1.2.2.9c0 .1.1.3.1.4s0 .2.1.4c.3 1.2.7 1.9 1.4 2.3.8.5 1.7.6 2.7.3 1-.2 1.8-.8 2.3-1.5.3-.6.4-1.4.2-2.3zm-1.2 1.8c-.3.5-.8.8-1.6 1-1.7.4-2.6-.2-3-1.9 0-.2-.1-.4-.1-.6l4.7-1.1c.1.2.1.4.1.5.2.9.2 1.6-.1 2.1z"/><circle cx="48.5" cy="48.900002" r="33.099998"/></g><circle cx="48.5" cy="48.900002" r="31.799999" fill="#e00210"/><path fill="#fff" d="M37.9 84.1c0-.1-.1-.1-.2-.1h-.3l-1.7-.1c-.3 0-.5.1-.6.3v.3c.1.1.2.2.3.2h.2l1 .1-1.6 5-.8-.3c-.2-.1-.4-.1-.6-.1s-.3.1-.4.3v.4l.3.3 3.2 1c.2.1.3.1.4 0s.2-.2.2-.3v-.3c-.1-.2-.3-.3-.7-.4l-.6-.3 1.8-5.6c.1-.2.1-.3.1-.4zM46.1 86.2c-.4-.5-.9-.8-1.5-.8-1.3-.1-2.3.8-2.4 2.2-.1.7.1 1.3.5 1.8.4.4.9.7 1.4.8s1-.1 1.4-.4c-.4 1.3-1.2 2.1-2.2 2.2h-.7c-.4 0-.7-.1-.8.4 0 .1 0 .2.1.3.1.2.4.2.8.3 1 .1 1.9-.1 2.6-.7.8-.7 1.4-1.8 1.5-3.1.1-1.4-.2-2.4-.7-3zm-.5 1.7c-.1.8-.6 1.3-1.3 1.2-.3 0-.5-.2-.7-.4-.2-.3-.3-.7-.3-1.2 0-.4.2-.8.5-1 .2-.2.5-.2.8-.2s.6.2.8.4c.1.3.2.8.2 1.2zM55 88.5c-.2-2-1.3-3.2-2.8-3-.6.1-1.1.3-1.4.8-.4.5-.6 1.1-.5 1.9.1.7.4 1.3.9 1.7.4.4 1 .5 1.6.5.5 0 .9-.3 1.3-.7-.1 1.3-.7 2.3-1.8 2.6-.2.1-.5.1-.7.1-.4 0-.7.1-.7.5 0 .1.1.2.1.3.2.1.4.1.8.1 1-.1 1.8-.5 2.4-1.2.7-1.1.9-2.3.8-3.6zm-1.6.3c-.2.2-.4.4-.7.4s-.6-.1-.9-.3c-.2-.2-.4-.6-.4-1s.1-.8.3-1.1c.2-.2.4-.3.7-.4.3 0 .6.1.8.2.3.2.5.6.5 1.1 0 .4-.1.8-.3 1.1zM63 86.3c-.3-.9-.8-1.6-1.4-2.1-.6-.4-1.3-.5-2-.3-.6.2-1 .5-1.2 1-.3.6-.3 1.2-.1 1.9.2.6.6 1.2 1.2 1.4.5.3 1.1.3 1.6.1s.8-.5 1.1-.9c.2 1.3-.2 2.4-1.2 2.9l-.6.3c-.4.1-.7.2-.6.7 0 .1.1.2.2.2.2.1.4 0 .8-.1.9-.3 1.7-.9 2.1-1.7.5-.9.5-2.1.1-3.4zm-1.5.7c-.1.3-.4.5-.6.5-.7.2-1.3-.2-1.5-1-.1-.4-.1-.8 0-1.2.1-.2.3-.4.6-.5s.6-.1.9.1.6.5.7 1c.1.4.1.8-.1 1.1zM54 67.3l.4 1.3-2.6 6.3 8.8-7.6L53 42.2h-9l-7.6 25.1 8.8 7.6-2.6-6.3.4-1.3zM58.1 43.2l15.5-7.4-9.9 13.1zM38.9 43.2l-15.5-7.4 9.9 13.1z"/></g></svg>