<svg xmlns="http://www.w3.org/2000/svg" width="602.4720458984375px" height="923.7195434570312px" x="0px" y="0px" style="enable-background:new 0 0 1400 980" viewBox="0 0 602.4720458984375 923.7195434570312"><defs><clipPath id="a" clipPathUnits="userSpaceOnUse"><path d="M0 617.953h864.567V0H0Z"/></clipPath></defs><path fill="none" d="M0 0h602.472v923.72H0z" style="fill:#114540;fill-opacity:0;pointer-events:none"/><g clip-path="url(#a)" transform="matrix(5.31909 0 0 -5.31909 -1991.539 2565.452)"><path d="M0 0v-14.257h3.144c4.776 0 7.585 2.688 7.585 7.609C10.729-2.736 8.017 0 3.36 0Zm-1.416 1.271h4.728c6.433 0 8.881-3.983 8.881-7.967 0-5.353-3.169-8.833-8.977-8.833h-4.632z" style="fill:#002f6d;fill-opacity:1;fill-rule:nonzero;stroke:none" transform="translate(182.04 127.441)"/><path d="m0 0-5.448 16.802h1.296C-2.28 11.257-.336 5.545 1.536 0Zm-1.488 4.992h-7.585v1.177h7.585zm-2.904 11.81L-10.777 0h-1.224c2.088 5.545 4.249 11.257 6.336 16.802z" style="fill:#002f6d;fill-opacity:1;fill-rule:nonzero;stroke:none" transform="translate(209.856 111.912)"/><path d="M0 0v-1.272h-6.816v-6.025h6.528v-1.272h-6.528v-6.96H.408v-1.273h-8.64V0Z" style="fill:#002f6d;fill-opacity:1;fill-rule:nonzero;stroke:none" transform="translate(223.487 128.714)"/><path d="M0 0h1.44v-16.395c0-2.951-1.584-4.655-3.768-4.991v1.272C-.72-19.706 0-18.194 0-16.395Z" style="fill:#002f6d;fill-opacity:1;fill-rule:nonzero;stroke:none" transform="translate(229.223 128.714)"/><path d="M0 0v-1.272h-6.816v-6.025h6.528v-1.272h-6.528v-6.96H.408v-1.273h-8.64V0Z" style="fill:#002f6d;fill-opacity:1;fill-rule:nonzero;stroke:none" transform="translate(244.223 128.714)"/><path d="M0 0c0-4.32 2.953-7.32 6.121-7.32 3.072 0 6.024 3 6.024 7.32S9.193 7.321 6.121 7.321C2.953 7.321 0 4.32 0 0m-1.464 0c0 4.944 3.312 8.641 7.585 8.641 4.176 0 7.488-3.697 7.488-8.641s-3.312-8.641-7.488-8.641C1.848-8.641-1.464-4.944-1.464 0" style="fill:#002f6d;fill-opacity:1;fill-rule:nonzero;stroke:none" transform="translate(250.27 120.313)"/><path d="M0 0v-16.802h-1.44L-12.241-1.921v-14.881h-1.296V0h1.32l10.849-14.882V0Z" style="fill:#002f6d;fill-opacity:1;fill-rule:nonzero;stroke:none" transform="translate(282.456 128.714)"/><path d="M0 0v-16.802h-1.416v8.593h-9.409v-8.593h-1.416V0h1.416v-6.937h9.409V0Z" style="fill:#002f6d;fill-opacity:1;fill-rule:nonzero;stroke:none" transform="translate(309.623 128.714)"/><path d="m0 0-5.448 16.802h1.296C-2.28 11.257-.336 5.545 1.536 0Zm-1.488 4.992h-7.585v1.177h7.585zm-2.904 11.81L-10.777 0h-1.224c2.088 5.545 4.249 11.257 6.336 16.802z" style="fill:#002f6d;fill-opacity:1;fill-rule:nonzero;stroke:none" transform="translate(325.486 111.912)"/><path d="M0 0v-16.802h-1.44L-12.241-1.921v-14.881h-1.296V0h1.32l10.849-14.882V0Z" style="fill:#002f6d;fill-opacity:1;fill-rule:nonzero;stroke:none" transform="translate(344.423 128.714)"/><path d="m0 0-5.448 16.802h1.296C-2.28 11.257-.336 5.545 1.536 0Zm-1.488 4.992h-7.585v1.177h7.585zm-2.904 11.81L-10.777 0h-1.224c2.088 5.545 4.249 11.257 6.336 16.802z" style="fill:#002f6d;fill-opacity:1;fill-rule:nonzero;stroke:none" transform="translate(360.31 111.912)"/><path d="m0 0-.312-1.2c-1.008.505-2.256.888-3.601.888-4.344 0-7.32-3.072-7.32-7.296 0-4.584 3.312-7.417 7.369-7.417 1.344 0 2.496.337 3.456.768.096-.384.216-.84.312-1.224-1.128-.552-2.784-.84-3.985-.84-5.04 0-8.688 3.456-8.688 8.713 0 4.753 3.504 8.568 8.905 8.568C-2.496.96-.96.553 0 0" style="fill:#002f6d;fill-opacity:1;fill-rule:nonzero;stroke:none" transform="translate(378.214 127.993)"/><path d="M384.165 111.912h-1.416v16.802h1.416z" style="fill:#002f6d;fill-opacity:1;fill-rule:nonzero;stroke:none"/><path d="M0 0h-1.464v15.529h-5.257v1.273H5.353v-1.273H0Z" style="fill:#002f6d;fill-opacity:1;fill-rule:nonzero;stroke:none" transform="translate(395.084 111.912)"/><path d="M406.005 111.912h-1.416v16.802h1.416z" style="fill:#002f6d;fill-opacity:1;fill-rule:nonzero;stroke:none"/><path d="M0 0v-1.009l-9.649-14.64H.287v-1.153h-11.424v1.153l9.529 14.472h-9.074V0Z" style="fill:#002f6d;fill-opacity:1;fill-rule:nonzero;stroke:none" transform="translate(421.87 128.714)"/><path d="M0 0v-1.272h-6.817v-6.025h6.529v-1.272h-6.529v-6.96H.407v-1.273h-8.64V0Z" style="fill:#002f6d;fill-opacity:1;fill-rule:nonzero;stroke:none" transform="translate(435.07 128.714)"/><path d="M0 0v-16.802h-1.439L-12.241-1.921v-14.881h-1.296V0h1.32l10.849-14.882V0Z" style="fill:#002f6d;fill-opacity:1;fill-rule:nonzero;stroke:none" transform="translate(453.453 128.714)"/><path d="M0 0v-1.272h-6.793v-6.385h6.528v-1.272h-6.528v-7.873h-1.416V0Z" style="fill:#002f6d;fill-opacity:1;fill-rule:nonzero;stroke:none" transform="translate(476.588 128.714)"/><path d="m0 0-.312-1.2c-1.007.505-2.255.888-3.6.888-4.344 0-7.32-3.072-7.32-7.296 0-4.584 3.312-7.417 7.368-7.417 1.343 0 2.497.337 3.457.768.095-.384.216-.84.31-1.224-1.128-.552-2.783-.84-3.983-.84-5.04 0-8.69 3.456-8.69 8.713C-12.77-2.855-9.266.96-3.864.96-2.496.96-.96.553 0 0" style="fill:#002f6d;fill-opacity:1;fill-rule:nonzero;stroke:none" transform="translate(493.532 127.993)"/><path d="M0 0v-7.033h2.855c2.354 0 4.297 1.272 4.297 3.553C7.152-.937 4.993 0 2.593 0Zm0 7.416v-6.24h2.377c2.686 0 4.08 1.272 4.08 3.36 0 1.729-1.248 2.88-3.48 2.88zM3.191-8.209h-4.607V8.593h4.824c2.615 0 4.488-1.584 4.488-3.864 0-2.449-1.417-3.625-2.784-4.105 1.945-.36 3.553-1.896 3.553-4.081 0-2.928-1.992-4.752-5.474-4.752" style="fill:#002f6d;fill-opacity:1;fill-rule:nonzero;stroke:none" transform="translate(509.082 120.121)"/><path d="M0 0v-7.104h2.376c3.12 0 3.863 2.086 3.863 3.624C6.239-1.128 4.704 0 2.664 0Zm-1.394-15.529v16.8h4.297c2.929 0 4.898-2.087 4.898-4.607 0-2.257-.96-3.696-2.761-4.608 1.319-2.45 2.713-5.137 4.031-7.585H7.319L3.601-8.377H0v-7.152z" style="fill:#002f6d;fill-opacity:1;fill-rule:nonzero;stroke:none" transform="translate(524.203 127.441)"/><path d="m0 0-5.449 16.802h1.297C-2.28 11.257-.336 5.545 1.535 0Zm-1.488 4.992h-7.585v1.177h7.585zm-2.906 11.81L-10.777 0h-1.224c2.088 5.545 4.248 11.257 6.336 16.802z" style="fill:#002f6d;fill-opacity:1;fill-rule:nonzero;stroke:none" transform="translate(548.012 111.912)"/><path d="M0 0v-16.802h-1.439L-12.241-1.921v-14.881h-1.296V0h1.32l10.849-14.882V0Z" style="fill:#002f6d;fill-opacity:1;fill-rule:nonzero;stroke:none" transform="translate(566.947 128.714)"/><path d="M0 0v-14.257h3.145c4.776 0 7.584 2.688 7.584 7.609C10.729-2.736 8.017 0 3.359 0Zm-1.416 1.271h4.729c6.431 0 8.879-3.983 8.879-7.967 0-5.353-3.168-8.833-8.975-8.833h-4.633z" style="fill:#002f6d;fill-opacity:1;fill-rule:nonzero;stroke:none" transform="translate(573.69 127.441)"/><path d="M0 0v-16.802h-1.439L-12.241-1.921v-14.881h-1.296V0h1.319l10.85-14.882V0z" style="fill:#002f6d;fill-opacity:1;fill-rule:nonzero;stroke:none" transform="translate(614.082 128.714)"/><path d="M0 0v-1.272h-6.817v-6.025h6.529v-1.272h-6.529v-6.96H.406v-1.273h-8.639V0Z" style="fill:#002f6d;fill-opacity:1;fill-rule:nonzero;stroke:none" transform="translate(627.642 128.714)"/><path d="M0 0h1.774l4.297-15.409L10.129 0h1.176L6.912-16.802H5.231L.84-1.416l-4.274-15.386h-1.679L-9.697 0h1.391l4.057-15.361z" style="fill:#002f6d;fill-opacity:1;fill-rule:nonzero;stroke:none" transform="translate(640.722 128.714)"/><path d="m0 0-.312-1.2c-1.007.505-2.255.888-3.6.888-4.345 0-7.32-3.072-7.32-7.296 0-4.584 3.312-7.417 7.368-7.417 1.343 0 2.497.337 3.457.768.095-.384.216-.84.31-1.224-1.128-.552-2.784-.84-3.983-.84-5.04 0-8.69 3.456-8.69 8.713C-12.77-2.855-9.266.96-3.864.96-2.496.96-.96.553 0 0" style="fill:#002f6d;fill-opacity:1;fill-rule:nonzero;stroke:none" transform="translate(677.969 127.993)"/><path d="M683.92 111.912h-1.416v16.802h1.416z" style="fill:#002f6d;fill-opacity:1;fill-rule:nonzero;stroke:none"/><path d="M0 0c-15.065 9.18-33.029 14.764-42.397 17.275l-2.648.71c10.107 3.865 15.425 21.011 6.199 29.257 1.575 2.322 1.642 5.07 1.257 7.504 2.972 4.757.057 8.108-3.735 8.699-2.057 3.9-14.623 4.479-10.731.668-8.375-4.237-13.363-10.445-14.066-11.804-5.145 9.521-18.877 18.282-32.664 24.005-.566-5.888.714-10.554 8.102-18.171.475-7.323 5.287-4.032 11.131-11.348 8.361-14.068 6.1-23.795 19.835-29.066l-2.894-.797C-73.708 13.881-89.85 8.467-103.742 0l-2.962-1.804v-40.672c0-16.803 9.534-30.833 27.571-40.567 12.938-6.982 25.647-9.278 26.182-9.372l1.079-.192 1.082.192c.533.095 13.246 2.395 26.18 9.374C-6.574-73.307 2.959-59.279 2.959-42.476v40.671z" style="fill:#ffe900;fill-opacity:1;fill-rule:nonzero;stroke:none" transform="translate(483.027 403.648)"/><path d="M0 0v-35.247c0-29.864 39.796-39.218 45.216-40.352 5.419 1.134 45.214 10.488 45.214 40.352V0C72.221 10.598 49.453 15.988 45.216 16.932 40.978 15.988 18.21 10.598 0 0" style="fill:#fff;fill-opacity:1;fill-rule:nonzero;stroke:none" transform="translate(385.94 396.42)"/><path d="M0 0h-5.635l-2.027-37.753-37.754-2.029v-5.633l37.754-2.027 9.689 9.689z" style="fill:#9f2943;fill-opacity:1;fill-rule:nonzero;stroke:none" transform="translate(433.973 410.067)"/><path d="m0 0-9.689-9.689 2.027-37.754h5.635L0-9.689l37.754 2.027v5.633z" style="fill:#007d6f;fill-opacity:1;fill-rule:nonzero;stroke:none" transform="translate(436 372.315)"/><path d="M0 0h9.684c1.788 0 3.476 0 3.476-5.029 0-5.03-1.688-5.03-3.476-5.03H0zm-4.131-14.188H9.684c1.882 0 7.607 0 7.607 9.159 0 9.16-5.725 9.16-7.607 9.16H-4.131Z" style="fill:#002f6d;fill-opacity:1;fill-rule:nonzero;stroke:none" transform="translate(403.43 391.065)"/><path d="M0 0c0-9.16 5.726-9.16 7.605-9.16h13.817v4.133H7.605c-1.786 0-3.475 0-3.475 5.027 0 5.029 1.689 5.029 3.475 5.029h12.441l1.376 4.131H7.605C5.726 9.16 0 9.16 0 0" style="fill:#002f6d;fill-opacity:1;fill-rule:nonzero;stroke:none" transform="translate(441.59 348.902)"/><path d="M0 0h-4.132v-6.038h-11.976l1.377-4.131h10.599v-8.15H0Z" style="fill:#002f6d;fill-opacity:1;fill-rule:nonzero;stroke:none" transform="translate(463.013 395.195)"/><path d="M445.721 395.195h-4.13v-18.319h4.13z" style="fill:#002f6d;fill-opacity:1;fill-rule:nonzero;stroke:none"/><path d="M0 0h12.438v4.13H-1.377Z" style="fill:#002f6d;fill-opacity:1;fill-rule:nonzero;stroke:none" transform="translate(405.99 346.708)"/><path d="M0 0h15.914v4.131H-4.131v-18.32H0Z" style="fill:#002f6d;fill-opacity:1;fill-rule:nonzero;stroke:none" transform="translate(403.43 353.932)"/><path d="M0 0c0-29.864-39.795-39.218-45.214-40.352C-50.634-39.218-90.43-29.864-90.43 0v35.247c18.21 10.598 40.978 15.988 45.216 16.932 4.237-.944 27.005-6.334 45.214-16.932Zm-42.106 96.011c.799.615 2.781.336 4.634-.866a2.55 2.55 0 0 1-.604.083 2.474 2.474 0 0 1-2.472-2.473c0-.557.191-1.064.5-1.477-3.838 1.858-3.323 3.759-2.058 4.733M5.233 40.143c-17.664 10.764-39.41 16.522-47.007 18.314v3.911c.693.198 9.764 2.259 11.571 12.824 1.383 8.077-3.708 13.384-7.635 15.115a2.464 2.464 0 0 1 2.234 2.448c0 .349-.074.678-.205.979a8.335 8.335 0 0 0 1.478-2.223s1.978 2.288.192 6.828c0 0 1.027.209 1.445 1.217.371.9.763 2.818-1.627 3.545-.869.263-1.722-.457-2.717 1.378-.325.604-.825 1.152-1.532 1.358-2.21.644-2.286-.898-1.669-2.479.131-.334.123-.712.113-1.076 0 0-2.569.397-4.915-.926-.266.601-.476 1.396-.24 2.162 0 0-3.12-.837-2.602-5.351-2.208-4.874 2.095-8.703 2.095-8.703s-6.137.307-6.752 9.719c0 0-6.594-3.42-3.375-14.322.807-2.736 3.73-4.606 3.73-4.606s-1.636-.818-3.39.701c0 0 0-4.677 6.664-5.612 0 0-1.676-2.884 3.43-2.553 0 0-3.167-2.095-7.157.054-3.989 2.146-5.006 5.619-6.55 13.346-1.806 9.031-9.207 18.925-30.177 28.335 0 0 .173-4.449 5.759-10.531 3.804-4.141 7.926-3.625 12.629-8.925 0 0-5.258 4.086-9.083 2.724 0 0 11.87-4.441 14.427-17.332 2.558-12.889 10.266-17.009 16.978-18.524v-3.481c-7.596-1.792-29.344-7.55-47.008-18.314l-1.651-1.006V0c0-15.737 9.038-28.935 26.135-38.163 12.508-6.75 24.842-8.995 25.362-9.087l.603-.107.603.107c.519.092 12.852 2.337 25.359 9.089C-2.152-28.935 6.885-15.737 6.885 0v39.137z" style="fill:#002f6d;fill-opacity:1;fill-rule:nonzero;stroke:none" transform="translate(476.37 361.173)"/><path d="M0 0s-7.053.398-9.449 7.053c0 0 6.786-3.594 13.041-1.864 0 0 5.985-3.591 3.857-12.907 0 0-.915 3.175-2.644 4.374 0 0-4.7-1.289-9.055 1.53 0 0 2.861.618 4.25 1.814" style="fill:#ffe900;fill-opacity:1;fill-rule:nonzero;stroke:none" transform="translate(435.885 442.799)"/><path d="M0 0s8.744-3.77 15.619-11.196c3.61-3.898 6.562-8.924 7.981-15.2l-4.789 5.59S18.012-10.561 4.439-5.638c0 0-2.966 2.742-4.439 5.638" style="fill:#ffe900;fill-opacity:1;fill-rule:nonzero;stroke:none" transform="translate(392.174 470.755)"/><path d="M0 0c4.636-.883 5.076-4.488 5.076-4.488C2.943-1.472 2.5-3.384 2.5-3.384s-.718.443-1.341 1.145C.107-1.05 0 0 0 0" style="fill:#ffe900;fill-opacity:1;fill-rule:nonzero;stroke:none" transform="translate(436.556 462.005)"/><path d="M0 0v14.039h2.248c4.033 0 6.539-2.452 6.539-6.398C8.787 2.784 6.311 0 1.993 0Zm13.355 7.583c0 7.096-6.014 9.613-11.164 9.613h-6.647V-3.156h6.535c6.956 0 11.276 4.114 11.276 10.739" style="fill:#002f6d;fill-opacity:1;fill-rule:nonzero;stroke:none" transform="translate(374.401 280.651)"/><path d="m0 0 1.853-5.961h-4.037Zm-3.301-9.004h6.096l1.633-5.298.062-.208h4.639L2.19 5.643l-.069.2h-3.91l-7.557-19.955-.149-.398h4.188z" style="fill:#002f6d;fill-opacity:1;fill-rule:nonzero;stroke:none" transform="translate(397.55 292.005)"/><path d="M0 0h-7.933v5.935h7.146v3.157h-7.146v4.947H-.59v3.157h-11.799V-3.156H0z" style="fill:#002f6d;fill-opacity:1;fill-rule:nonzero;stroke:none" transform="translate(421.48 280.651)"/><path d="M0 0v19.072h-4.458V0c0-1.982-.84-3.285-2.304-3.577l-.237-.048v-3.021h.294C-3.373-6.646 0-4.363 0 0" style="fill:#002f6d;fill-opacity:1;fill-rule:nonzero;stroke:none" transform="translate(430.982 278.775)"/><path d="M0 0h-7.933v5.935h7.144v3.157h-7.144v4.947H-.59v3.157h-11.799V-3.156H0z" style="fill:#002f6d;fill-opacity:1;fill-rule:nonzero;stroke:none" transform="translate(448.58 280.651)"/><path d="M0 0c2.905 0 5.183-3.172 5.183-7.217 0-4.046-2.278-7.218-5.183-7.218-2.892 0-5.157 3.172-5.157 7.218C-5.157-3.172-2.892 0 0 0m0-17.677c5.559 0 9.753 4.498 9.753 10.46C9.753-1.254 5.559 3.241 0 3.241c-5.546 0-9.726-4.495-9.726-10.458 0-5.962 4.18-10.46 9.726-10.46" style="fill:#002f6d;fill-opacity:1;fill-rule:nonzero;stroke:none" transform="translate(461.2 294.888)"/><path d="M0 0v-13.444L-9.603-.122-9.689 0h-3.607v-20.353h4.201v13.355L.396-20.229l.087-.124h3.72V0Z" style="fill:#002f6d;fill-opacity:1;fill-rule:nonzero;stroke:none" transform="translate(488.162 297.848)"/><path d="M369.946 271.946h52.248v.315h-52.248z" style="fill:#002f6d;fill-opacity:1;fill-rule:nonzero;stroke:none"/><path d="M0 0h63.007v.315H.409C.274.208.14.1 0 0" style="fill:#002f6d;fill-opacity:1;fill-rule:nonzero;stroke:none" transform="translate(429.358 271.946)"/><path d="M0 0h-7.229v7.476h-4.336v-19.805h4.336v9.259H0v-9.259h4.335V7.476H0Z" style="fill:#002f6d;fill-opacity:1;fill-rule:nonzero;stroke:none" transform="translate(351.692 259.173)"/><path d="m0 0 2.125 5.8L3.928 0Zm4.19 11.485H.385L-6.968-7.933l-.145-.386h4.075l1.951 5.356h5.932l1.589-5.153.06-.203h4.514L4.257 11.29Z" style="fill:#002f6d;fill-opacity:1;fill-rule:nonzero;stroke:none" transform="translate(365.474 255.163)"/><path d="m0 0-9.344 12.962-.085.121h-3.509V-6.722h4.089V6.272L.385-6.601l.085-.121h3.619v19.805H0Z" style="fill:#002f6d;fill-opacity:1;fill-rule:nonzero;stroke:none" transform="translate(391.766 253.565)"/><path d="m0 0 2.125 5.8L3.928 0Zm4.189 11.485H.384L-6.968-7.933l-.146-.386h4.076l1.95 5.356h5.933l1.588-5.153.06-.203h4.515L4.257 11.29Z" style="fill:#002f6d;fill-opacity:1;fill-rule:nonzero;stroke:none" transform="translate(405.302 255.163)"/><path d="M0 0c1.654 0 3.532-.839 4.58-1.617l.351-.262.805 3.391-.164.11C4.284 2.488 2 3.072-.111 3.072c-7.389 0-10.697-5.069-10.697-10.092 0-6.33 4.069-10.26 10.617-10.26 1.837 0 4.045.516 5.623 1.322l.197.102-.741 3.334-.344-.219c-1.437-.915-3.071-1.44-4.489-1.44-3.78 0-6.419 2.946-6.419 7.161C-6.364-2.823-3.807 0 0 0" style="fill:#002f6d;fill-opacity:1;fill-rule:nonzero;stroke:none" transform="translate(429.162 263.849)"/><path d="M438.091 246.844h4.336v19.805h-4.336z" style="fill:#002f6d;fill-opacity:1;fill-rule:nonzero;stroke:none"/><path d="M0 0h5.687v-16.729h4.336V0h5.715v3.075H0Z" style="fill:#002f6d;fill-opacity:1;fill-rule:nonzero;stroke:none" transform="translate(445.208 263.573)"/><path d="M463.733 246.844h4.335v19.805h-4.335z" style="fill:#002f6d;fill-opacity:1;fill-rule:nonzero;stroke:none"/><path d="m0 0 .046.068v1.885h-14.335v-2.964h9.1l-9.546-14.751-.047-.069v-2.021H.351v2.934H-9.686Z" style="fill:#002f6d;fill-opacity:1;fill-rule:nonzero;stroke:none" transform="translate(486.241 264.695)"/><path d="M0 0h6.952v3.071H0v4.814h7.145v3.075H-4.336V-8.845H7.719v3.072H0z" style="fill:#002f6d;fill-opacity:1;fill-rule:nonzero;stroke:none" transform="translate(494.32 255.689)"/><path d="m0 0-9.345 12.962-.085.121h-3.509V-6.722h4.09V6.272L.385-6.601l.084-.121h3.619v19.805H0Z" style="fill:#002f6d;fill-opacity:1;fill-rule:nonzero;stroke:none" transform="translate(518.096 253.565)"/></g></svg>