<svg xmlns="http://www.w3.org/2000/svg" width="71.291504mm" height="98.425003mm" viewBox="0 0 269.4482 372.00001"><path d="m498.99 421.42.124 32.546v4.308l2.685-3.372a44.617 44.617 0 0 0 6.7-14.442 115.163 115.163 0 0 1 4.579 19.874v.27c.145 1 .27 2.081.395 3.06v.499a132.706 132.706 0 0 1 .77 16.294v.291c0 1.083 0 2.081-.104 3.31a2.081 2.081 0 0 0 0 .353 128.752 128.752 0 0 1-1.914 16.856l-.125.645-.375 1.915c0 .374-.146.77-.229 1.144a130.541 130.541 0 0 1-5.41 18.48c-.25.686-.541 1.394-.812 2.08l-.416 1.062v.187a138.495 138.495 0 0 1-5.619 12.09l-.166.334v55.209c0 .291 3.184 28.947-16.107 52.233-14.713 17.73-38.353 27.844-70.276 30.05h-.145c-.48 0-11.945 2.08-24.015 13.713-12.07-11.716-23.536-13.63-24.015-13.713h-.146c-31.922-2.206-55.562-12.32-70.275-30.05-19.291-23.286-16.149-52.025-16.107-52.233v-55.23l-.167-.333c-2.08-4.162-3.995-8.116-5.618-12.09v-.188l-.416-1.061c-.271-.687-.562-1.394-.812-2.081a130.541 130.541 0 0 1-5.41-18.48c0-.374-.146-.77-.23-1.144-.083-.375-.27-1.27-.374-1.915l-.125-.645a128.752 128.752 0 0 1-1.914-16.856 2.081 2.081 0 0 0 0-.354V480.436a132.706 132.706 0 0 1 .77-16.294v-.5c.124-1.04.25-2.08.395-3.058v-.271a115.163 115.163 0 0 1 4.578-19.874 44.617 44.617 0 0 0 6.7 14.443l2.685 3.37v-4.286l.125-32.547c0-18.729-12.486-36.438-17.667-42.869h100.887l-16.524-13.505h32.922l10.78-32.714 10.696 32.714h33.004l-16.419 13.547H516.74c-5.202 6.389-17.75 24.098-17.75 42.827z" class="cls-1" style="fill:#fff;stroke-width:2.081" transform="translate(-253.847 -322.571)"/><path d="M523.296 375.45h-99.077l16.44-13.548h-39.206l-12.882-39.33-12.881 39.393h-39.144l16.44 13.547h-99.139l2.269 2.58c.187.209 19.02 21.477 19.02 43.306 0 0 0 17.918-.125 27.053a52.025 52.025 0 0 1-4.599-13.589l-.895-4.703-1.977 4.37a107.567 107.567 0 0 0-7.325 31.652 132.664 132.664 0 0 0 14.775 73.668v54.106c-.229 2.081-3.017 30.466 16.794 54.397 15.233 18.417 39.539 28.905 72.336 31.215.811.146 12.028 2.394 23.37 13.922l1.081 1.082 1.083-1.082c11.341-11.528 22.558-13.776 23.37-13.922 32.754-2.268 57.102-12.756 72.335-31.215 19.811-23.931 17.022-52.358 16.794-54.397v-54.106a132.664 132.664 0 0 0 14.775-73.647 107.567 107.567 0 0 0-7.325-31.652l-1.977-4.37-.895 4.703a52.025 52.025 0 0 1-4.6 13.59c0-9.24-.124-27.054-.124-27.054 0-21.83 18.833-43.098 19.02-43.306zm-24.307 45.97.125 32.546v4.308l2.685-3.372a44.617 44.617 0 0 0 6.7-14.442 115.163 115.163 0 0 1 4.579 19.874v.27c.145 1 .27 2.081.395 3.06v.499a132.706 132.706 0 0 1 .77 16.294v.291c0 1.083 0 2.081-.104 3.31a2.081 2.081 0 0 0 0 .353 128.752 128.752 0 0 1-1.914 16.856l-.125.645-.375 1.915c0 .374-.146.77-.229 1.144a130.541 130.541 0 0 1-5.41 18.48c-.25.686-.541 1.394-.812 2.08l-.416 1.062v.187a138.495 138.495 0 0 1-5.619 12.09l-.166.334v55.209c0 .291 3.184 28.947-16.107 52.233-14.713 17.73-38.353 27.844-70.276 30.05h-.145c-.48 0-11.945 2.08-24.015 13.713-12.07-11.716-23.536-13.63-24.015-13.713h-.146c-31.922-2.206-55.562-12.32-70.275-30.05-19.291-23.286-16.149-52.025-16.107-52.233v-55.23l-.167-.333c-2.08-4.162-3.995-8.116-5.618-12.09v-.188l-.416-1.061c-.271-.687-.562-1.394-.812-2.081a130.541 130.541 0 0 1-5.41-18.48c0-.374-.146-.77-.23-1.144-.083-.375-.27-1.27-.374-1.915l-.125-.645a128.752 128.752 0 0 1-1.914-16.856 2.081 2.081 0 0 0 0-.354V480.436a132.706 132.706 0 0 1 .77-16.294v-.5c.124-1.04.25-2.08.395-3.058v-.271a115.163 115.163 0 0 1 4.578-19.874 44.617 44.617 0 0 0 6.7 14.443l2.685 3.37v-4.286l.125-32.547c0-18.729-12.486-36.438-17.667-42.869h100.887l-16.524-13.505h32.922l10.78-32.714 10.696 32.714h33.004l-16.419 13.547H516.74c-5.202 6.389-17.75 24.098-17.75 42.827z" style="stroke-width:2.081" transform="translate(-253.847 -322.571)"/><path d="M367.512 518.83h12.735a205.624 205.624 0 0 0 3.06-61.222l-28.864 20.955z" class="cls-2" style="fill:#164194;stroke-width:2.081" transform="translate(-253.847 -322.571)"/><path d="M287.247 465.078c11.404 7.887 25.909 12.986 37.23 16.211l6.888-9.51 1.31-32.505-9.8 3.309a81.388 81.388 0 0 1 40.89-29.384l-6.242 8.2 24.805 7.304 6.243-14.255 6.243 14.255 24.785-7.305-6.243-8.199a81.388 81.388 0 0 1 40.892 29.384l-9.802-3.309 1.332 32.505 6.868 9.51c11.32-3.225 25.825-8.324 37.229-16.21v-40.642a72.835 72.835 0 0 1 9.968-37.022h-98.328l6.243 21.143-19.187-14.213-19.207 14.213 6.243-21.143h-98.328a72.835 72.835 0 0 1 9.968 37.022zM300.358 488.76a78.87 78.87 0 0 0 16.856 3.684l.5-2.726c-7.846-.77-34.712-5.078-53.67-29.384v.27c-.145 1-.27 2.081-.395 3.06v.499a81.16 81.16 0 0 0 36.709 24.597zM316.215 502.661l.52-2.726c-7.158 0-33.858 0-53.94-19.478v3.58a2.081 2.081 0 0 1 0 .353c18.376 18 45.824 18.355 53.42 18.271zM317.255 514.065l-.374-2.726c-5.473.833-31.444 4.35-52.025-10.093l.125.625c0 .645.25 1.269.374 1.914.125.645.167.77.23 1.165 19.082 13.34 45.74 10.052 51.67 9.115zM319.42 524.554l-.833-2.685a82.096 82.096 0 0 1-47.613 1.56c.25.688.52 1.395.79 2.082l.417 1.061v.187c23.432 6.452 46.26-1.83 47.239-2.205zM321.355 531.067c-.208.125-19.29 12.361-41.183 11.196l1.686 2.85c21.725.334 40.08-11.195 40.933-11.715z" class="cls-2" style="fill:#164194;stroke-width:2.081" transform="translate(-253.847 -322.571)"/><path d="M396.895 518.83h12.695l13.068-40.267-28.78-20.955a205.624 205.624 0 0 0 3.017 61.223zM489.895 592.082v-38.186l-4.495 5.41c-15.711-1.394-32.754-19.249-32.921-19.436l-1.457 2.226c.729.75 15.358 17.002 32.318 19.624a126.941 126.941 0 0 1-11.258 11.446 66.363 66.363 0 0 1-24.639-24.972l-1.852 2.393a62.43 62.43 0 0 0 24.43 24.306 132.081 132.081 0 0 1-11.674 8.927l-18.479-26.803-1.873 2.081 18.063 26.22a125.63 125.63 0 0 1-11.133 6.431c-5.036-18.729-12.195-27.282-12.486-27.677l-2.081 1.685.166.188s7.076 9.26 11.945 27.053a120.22 120.22 0 0 1-11.924 5.015 64.698 64.698 0 0 0-4.786-29.134l-2.081 1.29a70.754 70.754 0 0 1 4.328 28.656 123.861 123.861 0 0 1-15.15 4.037c11.259-23.12 4.308-38.27 3.996-38.936l-2.476 1.186c0 .146 7.075 15.17-5.39 38.457h-.187c0-.166.145-.312 0 0v.146c-8.97 16.835 6.597 31.215 6.597 31.215l-26.825 27.698-26.574-27.656s15.566-14.276 6.597-31.216v-.145c-.167-.312-.104-.167 0 0h-.187c-12.486-23.287-5.453-38.311-5.39-38.457l-2.477-1.186c-.312.666-7.262 15.815 3.996 38.935a123.861 123.861 0 0 1-15.15-4.037 70.754 70.754 0 0 1 4.329-28.655l-2.081-1.29a64.698 64.698 0 0 0-4.787 29.134 120.22 120.22 0 0 1-11.924-5.016c4.87-17.792 11.883-27.053 11.945-27.053l.167-.187-2.081-1.686c-.313.396-7.471 9.032-12.486 27.678a125.63 125.63 0 0 1-11.134-6.43l18.063-26.221-1.873-2.081-18.479 26.803a132.081 132.081 0 0 1-11.674-8.927 62.43 62.43 0 0 0 24.181-24.265l-1.852-2.393a66.363 66.363 0 0 1-24.64 24.972 126.941 126.941 0 0 1-11.257-11.446c16.96-2.622 31.59-18.874 32.318-19.623l-1.457-2.227c-.167.187-17.21 18.042-32.922 19.437l-4.495-5.411v38.332c0 .27-2.934 26.928 14.859 48.446 13.443 16.252 35.065 25.534 64.24 27.594h.125a46.552 46.552 0 0 1 22.1 10.634 46.552 46.552 0 0 1 22.1-10.697h.126c29.134-2.08 50.797-11.341 64.24-27.594 17.793-21.517 14.9-48.175 14.858-48.445zM459.929 492.444a78.87 78.87 0 0 0 16.856-3.684 81.16 81.16 0 0 0 36.792-24.597v-.5c-.125-1.04-.25-2.08-.395-3.059v-.27c-18.958 24.306-45.782 28.614-53.67 29.384zM460.408 499.935l.52 2.726c7.596 0 35.044-.333 53.294-18.27a2.081 2.081 0 0 1 0-.355c0-1.123 0-2.226.104-3.308v-.27c-20.06 19.498-46.676 19.519-53.918 19.477zM460.262 511.34l-.375 2.725c5.931.937 32.589 4.162 51.692-9.115 0-.395.146-.77.23-1.165l.374-1.914.125-.625c-20.602 14.442-46.573 10.926-52.046 10.093zM458.556 521.869l-.833 2.685c.978.374 23.807 8.657 47.176 2.205v-.187l.417-1.061c.27-.687.54-1.394.79-2.081a82.096 82.096 0 0 1-47.55-1.561zM455.788 531.067l-1.436 2.33c.853.521 19.208 12.05 40.933 11.717l1.686-2.851c-21.892 1.165-40.975-11.071-41.183-11.196z" class="cls-2" style="fill:#164194;stroke-width:2.081" transform="translate(-253.847 -322.571)"/><path d="M329.596 654.47v-6.575l3.787 6.576h1.936v-9.24h-1.81v6.451l-3.684-6.451h-2.081v9.24zM351.113 645.23v9.24h-2.08v-9.24zM367.387 645.23v9.24h-1.915v-9.24zM391.963 645.98a4.35 4.35 0 0 0-2.83-.895 4.162 4.162 0 0 0-3.267 1.353 5.12 5.12 0 0 0-1.248 3.6 4.89 4.89 0 0 0 1.227 3.517 3.912 3.912 0 0 0 3.018 1.27 3.475 3.475 0 0 0 1.873-.48 3.891 3.891 0 0 0 1.02-.915l.187 1.145h1.27v-5.057h-3.85v1.54h2.08a2.497 2.497 0 0 1-.77 1.477 2.268 2.268 0 0 1-1.581.562 2.539 2.539 0 0 1-1.77-.728 3.122 3.122 0 0 1-.79-2.414 3.85 3.85 0 0 1 .728-2.54 2.29 2.29 0 0 1 1.832-.831 2.476 2.476 0 0 1 1.061.208 1.831 1.831 0 0 1 1.082 1.31h1.894a3.35 3.35 0 0 0-1.166-2.122zM412.753 650.974H410.4l1.186-3.641zm-3.517 3.497.645-1.894h3.413l.582 1.894h2.081l-3.267-9.24h-2.08l-3.31 9.24zM426.466 645.23h7.492v1.624h-2.768v7.617h-1.935v-7.617h-2.789zM449.191 650.974h-2.351l1.186-3.641zm-3.517 3.497.645-1.894h3.413l.583 1.894h2.08l-3.266-9.24h-2.185l-3.31 9.24zM320.231 609.438h.312l3.684 16.086h-7.471zm-2.58 32.38v-1.769a4.308 4.308 0 0 1-2.081-.416 2.33 2.33 0 0 1-1.103-2.081 24.056 24.056 0 0 1 .5-3.892c.166-.832.52-2.642 1.102-5.39h8.657l.978 4.163q.312 1.373.5 2.372a14.276 14.276 0 0 1 .291 2.476c0 1.187-.187 1.936-.583 2.227a5.223 5.223 0 0 1-2.476.583v1.727h12.486v-1.769c-.874 0-1.54-.52-2.08-1.706a68.486 68.486 0 0 1-2.082-7.929l-8.532-36.459h-1.082l-8.49 38.061a50.36 50.36 0 0 1-1.561 5.848c-.562 1.394-1.311 2.081-2.248 2.268v1.686zM338.627 641.818v-1.311a3.454 3.454 0 0 0 2.081-.541 3.746 3.746 0 0 0 1.02-3.08v-24.972a3.87 3.87 0 0 0-.957-3.038 3.642 3.642 0 0 0-2.081-.604v-1.31h11.8v1.31a3.891 3.891 0 0 0-2.748.874 6.742 6.742 0 0 0-.687 3.85v24.452a3.267 3.267 0 0 0 .583 2.268 3.413 3.413 0 0 0 2.29.562 6.992 6.992 0 0 0 5.118-2.08 17.96 17.96 0 0 0 3.559-7.992h.832l-1.352 11.674zM393.42 641.818v-.916a2.955 2.955 0 0 1-1.873-.5 2.601 2.601 0 0 1-.624-2.08v-17.314a2.476 2.476 0 0 1 .79-2.081 3.267 3.267 0 0 1 1.707-.395v-.916h-9.281v.916a3.434 3.434 0 0 1 1.665.395 2.56 2.56 0 0 1 .77 2.081v17.501a2.518 2.518 0 0 1-.812 2.081 3.288 3.288 0 0 1-1.623.354v.874zM438.973 641.818h-19.707v-1.249a2.726 2.726 0 0 0 2.997-3.433v-23.578a3.496 3.496 0 0 0-.978-2.893 3.746 3.746 0 0 0-2.081-.582v-1.228h19.436v9.864h-.832a12.486 12.486 0 0 0-2.185-6.472 7.242 7.242 0 0 0-5.432-1.644 2.83 2.83 0 0 0-1.976.458 2.976 2.976 0 0 0-.417 1.852v11.32a4.162 4.162 0 0 0 3.913-1.519 15.316 15.316 0 0 0 1.56-5.722h.854v16.502h-.854a13.527 13.527 0 0 0-1.477-5.89 4.412 4.412 0 0 0-3.996-1.706v11.758a2.913 2.913 0 0 0 .562 2.081 3.122 3.122 0 0 0 2.248.562 7.679 7.679 0 0 0 5.285-1.81 15.587 15.587 0 0 0 3.621-6.805h.937zM369.301 615.993a2.684 2.684 0 0 1 .375-1.644 1.831 1.831 0 0 1 1.394-.458 2.476 2.476 0 0 1 2.539 1.706 11.591 11.591 0 0 1 .645 4.162 7.97 7.97 0 0 1-.999 4.662 4.724 4.724 0 0 1-3.954 1.332zm2.352 25.93a9.198 9.198 0 0 0 6.513-2.186 8.324 8.324 0 0 0 0-11.862 7.845 7.845 0 0 0-3.08-1.56v-.396a6.368 6.368 0 0 0 3.122-2.08 7.034 7.034 0 0 0-2.081-10.406 10.925 10.925 0 0 0-4.724-.895h-9.885v1.103a3.87 3.87 0 0 1 1.894.5 3.06 3.06 0 0 1 .895 2.58v20.997a2.934 2.934 0 0 1-.957 2.58 3.454 3.454 0 0 1-1.832.48v1.102zm-2.352-14.86a6.014 6.014 0 0 1 3.809.875c1.331.999 2.08 3.059 2.08 6.139a10.197 10.197 0 0 1-.915 4.765 3.288 3.288 0 0 1-3.163 1.686 1.457 1.457 0 0 1-1.478-.937 4.162 4.162 0 0 1-.25-1.685zM403.888 615.889a2.185 2.185 0 0 1 .395-1.436 2.352 2.352 0 0 1 1.686-.437 3.267 3.267 0 0 1 3.225 2.476 12.819 12.819 0 0 1 .5 3.996c0 2.747-.437 4.495-1.332 5.244a7.242 7.242 0 0 1-4.474 1.207zm2.809 26.012v-1.103a2.768 2.768 0 0 1-2.248-.895 5.744 5.744 0 0 1-.561-3.08v-8.49h.853l6.597 13.568h6.492v-1.04a2.31 2.31 0 0 1-.728-.208 1.706 1.706 0 0 1-.562-.666l-6.389-12.361a6.597 6.597 0 0 0 3.101-1.957 7.783 7.783 0 0 0 1.894-5.556 6.722 6.722 0 0 0-3.808-6.638 12.486 12.486 0 0 0-5.161-.916h-10.218v1.103a3.392 3.392 0 0 1 2.081.708 5.078 5.078 0 0 1 .708 3.267v19.187a5.431 5.431 0 0 1-.604 3.142 3.017 3.017 0 0 1-2.081.832v1.02zM467.94 600.364c-3.495.5-4.161 2.227-10.404 16.42l7.013 18.083c2.08 5.245 2.664 5.37 3.725 5.494v1.582h-13.09v-1.582c2.081-.187 3.08-.333 3.08-2.08a14.13 14.13 0 0 0-.811-3.33l-3.892-10.405-1.477 3.246c-3.184 7.096-3.621 8.574-3.621 9.78 0 2.227 1.79 2.498 3.121 2.685v1.582h-9.635v-1.582c1.311-.333 2.622-.645 4.016-3.58l6.743-14.13-7.637-18.582c-.812-2.081-1.457-3.58-3.08-3.705v-1.602h13.339v1.602c-2.268.25-3.038.25-3.038 2.081a5.286 5.286 0 0 0 .562 2.373l3.745 9.572c4.391-10.093 4.391-10.093 4.391-11.82 0-1.727-1.082-2.08-2.767-2.226v-1.603h9.635z" class="cls-3" style="fill:#e84e0f;stroke-width:2.081" transform="translate(-253.847 -322.571)"/><path d="m110.77 71.91 9.23-6.83 9.23 6.83-3.37-11.35 8.77-7.08h-11.02L120 42.5l-3.61 10.98h-11.02l8.77 7.08z" class="cls-3" style="fill:#e84e0f" transform="matrix(2.081 0 0 2.081 -114.996 -63.658)"/><path d="M494.931 591.874v-44.908a71.44 71.44 0 0 1-5.036 6.93v38.332c0 .27 2.935 26.928-14.858 48.445-13.443 16.253-35.065 25.534-64.24 27.595h-.125a46.552 46.552 0 0 0-22.1 10.717 46.552 46.552 0 0 0-22.1-10.697h-.126c-29.134-2.08-50.797-11.341-64.24-27.594-17.793-21.517-14.9-48.175-14.859-48.445v-38.353a71.44 71.44 0 0 1-5.036-6.93v44.908c-.291 2.518-2.705 29.446 15.962 52.025 14.338 17.376 37.125 27.282 67.715 29.467a43.014 43.014 0 0 1 21.06 10.925l1.623 1.478 1.624-1.478a43.014 43.014 0 0 1 21.06-10.925c30.59-2.081 53.377-12.09 67.715-29.467 18.73-22.6 16.253-49.528 15.961-52.025zM322.874 442.583l9.802-3.309-1.311 32.505-6.888 9.51c5.64 1.624 10.405 2.768 13.755 3.559 10.405 2.539 11.903 8.574 11.8 12.049a8.324 8.324 0 0 1-.375 2.58c0 39.31 24.223 43.431 24.223 43.431a206.79 206.79 0 0 0 6.243-24.077h-12.695l-13.068-40.268 28.822-20.955a135.536 135.536 0 0 0-3.892-22.121l3.038-6.784-24.784-7.305 6.243-8.199a81.388 81.388 0 0 0-40.913 29.384zM422.7 478.563l-13.069 40.268h-12.736a206.79 206.79 0 0 0 6.243 24.077s24.223-4.162 24.223-43.43a8.324 8.324 0 0 1-.374-2.581c-.104-3.475 1.352-9.51 11.799-12.049 3.267-.79 8.116-1.935 13.755-3.559l-6.867-9.51-1.332-32.505 9.802 3.309a81.388 81.388 0 0 0-40.892-29.384l6.243 8.2-24.68 7.304 2.954 6.784a135.536 135.536 0 0 0-3.891 22.12zM405.053 387.415h94.81a72.835 72.835 0 0 0-9.968 37.022v40.641a61.39 61.39 0 0 0 5.036-3.808v-36.833a66.592 66.592 0 0 1 11.612-37.958l3.226-4.162h-98.681zM366.055 382.4h-98.681l3.225 4.162a66.592 66.592 0 0 1 11.612 37.958v36.833a61.39 61.39 0 0 0 5.036 3.809v-40.725a72.835 72.835 0 0 0-9.968-37.022h94.81z" class="cls-3" style="fill:#e84e0f;stroke-width:2.081" transform="translate(-253.847 -322.571)"/></svg>