<svg xmlns="http://www.w3.org/2000/svg" width="194.98949" height="205.2619" viewBox="0 0 51.590966 54.30888"><defs><clipPath id="a" clipPathUnits="userSpaceOnUse"><path d="M433.699 345.73h162.145v154.758H433.699Z"/></clipPath></defs><g clip-path="url(#a)" transform="matrix(.36603 0 0 -.36603 -162.628 182.105)"><path d="M576.27 459.148c-.11-1.98-.887-3.265-1.649-4.128-1.301 1.015-3.336 3.195-3.336 4.621 0 1.539.797 2.785 2.266 2.785 1.785 0 2.797-1.922 2.719-3.278m-3.145-35.171c-.727.652-2.863 1.691-4.547 1.269 1.051 2.957.914 6.059.371 8.086-.469 1.809-1.558 4.016-4.035 5.438 1.402.089 2.395-.266 3.402-.739 1.946-.898 4.457-3.336 5.235-7.976.441-2.586 0-4.914-.426-6.078m-14.047-35.782c-.707.743-2.039 2.207-2.801 3.047 2.446 4.035 4.317 8.367 5.477 12.922 1.586-3.84 4.687-6.512 7.254-7.844-3.735-.855-7.063-3.574-9.93-8.125m-3.191 76.996c.5-1.097 1.965-2.312 3.144-2.765a47.29 47.29 0 0 0-5.691-1.442c.93.993 2.285 3.168 2.547 4.207m3.558 12.661c2.051 0 3.746-1.688 3.746-3.75 0-2.055-1.695-3.743-3.746-3.743a3.75 3.75 0 0 0-3.742 3.743 3.752 3.752 0 0 0 3.742 3.75m13.762-24.028c-1.484-.996-3.281-1.41-4.832-1.41-1.625 0-3.801.527-5.406 1.578l-.008 6.149c1.449-4.465 6.184-6.731 10.246-6.317m-28.84 9.899c-.875-1.203-2.472-2.414-3.867-3.258-1.992.258-3.922.676-5.766 1.289 2.637 4.109 5.594 7.129 6.926 8.769.934 1.176 1.735 2.352 2.203 3.536 1.395-1.184 2.434-2.829 2.434-4.887 0-2.867-1.172-4.414-1.93-5.449m-55.308-3.258c-1.395.844-3.012 2.055-3.875 3.258-.762 1.035-1.934 2.582-1.934 5.449 0 2.058 1.023 3.703 2.449 4.887.457-1.184 1.254-2.36 2.203-3.536 1.309-1.64 4.293-4.66 6.907-8.769-1.844-.613-3.762-1.031-5.75-1.289m-18.539 1.961c1.16.453 2.628 1.668 3.136 2.765.258-1.039 1.606-3.214 2.563-4.207-1.906.36-3.817.84-5.699 1.442m-.047-74.231c-2.871 4.539-6.188 7.27-9.946 8.125 2.582 1.332 5.684 4.004 7.27 7.844 1.148-4.555 3.027-8.887 5.48-12.922-.761-.84-2.089-2.304-2.804-3.047m-14.059 35.782c-.434 1.164-.859 3.492-.434 6.078.797 4.64 3.309 7.078 5.231 7.976 1.023.473 2.027.828 3.43.739-2.477-1.422-3.567-3.629-4.063-5.442-.519-2.023-.668-5.125.399-8.082-1.7.422-3.805-.625-4.563-1.269m-3.137 35.171c-.082 1.356.895 3.278 2.703 3.278 1.504 0 2.29-1.246 2.29-2.793 0-1.418-2.059-3.598-3.317-4.613-.797.863-1.551 2.148-1.676 4.128m13.313.993-.016-6.149c-1.594-1.051-3.789-1.582-5.398-1.582-1.559 0-3.352.418-4.828 1.414 4.043-.414 8.781 1.848 10.242 6.317m3.512 17.711c2.07 0 3.75-1.688 3.75-3.75a3.755 3.755 0 0 0-3.75-3.743 3.75 3.75 0 0 0-3.739 3.743c0 2.062 1.676 3.75 3.739 3.75m115.125-18.36c0 1.586.203 3.028-.786 5.899-1.222 3.593-3.476 6.976-7.058 8.996-1.805 1.023-4.52 1.996-6.871 1.996-1.367 0-3.383-.352-5.035-1.16 1.394 3.968-.036 7.625-1.411 9.343a8.479 8.479 0 0 1-5.957 3.102c-.046 4.102-2.195 8.246-4.504 9.84.137-.727.09-1.524 0-2.051-.355-1.949-2.222-4.152-3.824-4.887-.726 2.325-2.078 3.821-3.683 5.024-1.602 1.219-4.461 2.211-7.598 1.16 1.555-1.441 2.57-3.859 1.555-6.957a21.996 21.996 0 0 0-1.071-2.813c-.203-.425-.386-1.683-.386-2.671-2 .453-3.91.386-6.114-.571-1.3 3.824-6.16 7.785-12.187 5.227 1.305 3.867-1.637 7.89-5.539 7.89-3.895 0-6.817-4.023-5.512-7.89-6.019 2.558-10.875-1.403-12.187-5.227-2.196.957-4.125 1.024-6.125.567 0 .992-.18 2.25-.364 2.675a23.902 23.902 0 0 0-1.062 2.813c-1.031 3.098 0 5.516 1.539 6.957-3.133 1.051-6.02.059-7.602-1.16-1.586-1.203-2.953-2.699-3.675-5.024-1.594.735-3.465 2.938-3.813 4.887-.105.527-.168 1.324 0 2.051-2.312-1.594-4.48-5.738-4.512-9.84-3.257-.262-5.144-2.113-5.957-3.102-1.402-1.718-2.816-5.375-1.406-9.343-1.644.808-3.691 1.16-5.047 1.16-2.363 0-5.066-.973-6.855-1.996-3.586-2.02-5.867-5.407-7.078-8.996-.977-2.871-.789-4.313-.789-5.907 0-2.695 1.605-9.109 7.66-12.843-2.516-2.661-3.496-6.926-3.364-10.2.141-3.007 1.704-8.769 6.266-12.742-1.539-1.179-2.129-3.687-1.883-4.98.231-1.215.16-1.344.481-3.739.109-.765.34-1.609.25-2.562-.184-1.641-1.121-2.699-2.184-3.484-.871-.625-1.312-.739-2.527-.739-1.199 0-2.02.157-3.094.973.441-2.613 2.195-4.488 3.297-5.223 1.219-.82 2.902-1.453 4.445-1.507 1.43-.04 2.961.156 3.746.449-.926-3.196-3.933-5.672-7.859-7.082 1.816-.883 4.566-1.196 7.336-.688a1970.173 1970.173 0 0 1-6.602-8.742c-1.593-2.187-1.804-4.184-1.511-5.52.398-1.851 2.296-4.929 4.335-6.832l4.379 4.485c2.192-2.883 2.907-7.707 6.262-11.414 1.945-2.145 4.555-1.098 5.762 0 .812.746 2.222 2.32 3.203 3.386 2.934-2.843 11.199-9.265 16.172-12.101 7.433-4.231 20.726-8.633 25.875-9.242 5.199.609 18.461 5.011 25.93 9.242 4.933 2.836 13.226 9.258 16.156 12.101.98-1.066 2.386-2.64 3.191-3.386 1.231-1.098 3.828-2.145 5.766 0 3.363 3.707 4.054 8.531 6.246 11.414l4.414-4.485c2.039 1.903 3.918 4.981 4.312 6.832.274 1.336.09 3.333-1.507 5.52-.961 1.297-4.703 6.227-6.621 8.742 2.789-.508 5.539-.195 7.343.688-3.914 1.41-6.914 3.886-7.836 7.082.786-.289 2.321-.489 3.719-.449 1.555.058 3.258.687 4.453 1.507 1.106.735 2.867 2.614 3.301 5.223-1.078-.816-1.906-.973-3.09-.973-1.215 0-1.664.114-2.519.739-1.055.785-2.028 1.843-2.168 3.484-.11.953.117 1.797.226 2.562.313 2.395.262 2.524.481 3.739.238 1.293-.34 3.804-1.879 4.992 4.527 3.961 6.117 9.723 6.23 12.73.168 3.274-.82 7.539-3.336 10.2 6.055 3.734 7.657 10.148 7.657 12.851" style="fill:#2f3289;fill-opacity:1;fill-rule:nonzero;stroke:none"/><path d="M514.758 460.543c4.465-.09 11.867-1.355 14.785-3.016.777 1.766 4.395 8.012 8.082 12.067 1.645 1.836 2.988 3.242 3.879 5.316.707 1.715.469 3.16-.441 4.867-.86 1.586-3.149 2.469-4.504 2.469-1.356 0-3.911-.148-5.786-1.859 0 2.289-1.574 6.312-6.753 6.843-2.45.243-4.989-1.105-6.84-2.761-.157 1.097-.414 2.187-.559 3.336 1.344.73 1.641 2.461 1.641 3.336 0 1.218-1.207 3.336-3.504 3.336-2.27 0-3.461-2.118-3.461-3.336 0-.875.281-2.614 1.625-3.336-.16-1.149-.418-2.239-.574-3.336-1.828 1.656-4.395 3.004-6.821 2.761-5.191-.531-6.793-4.554-6.793-6.843-1.828 1.711-4.414 1.859-5.754 1.859-1.371 0-3.628-.883-4.503-2.469-.918-1.707-1.133-3.152-.438-4.867.863-2.074 2.227-3.48 3.875-5.316 3.684-4.055 7.32-10.301 8.074-12.067 2.938 1.661 10.309 2.926 14.77 3.016" style="fill:#b49242;fill-opacity:1;fill-rule:nonzero;stroke:none"/><path d="M511.629 480.23c-.766.68-2.086 1.668-3.008 1.985-.922.351-2.445.32-3.379-.352-.894-.656-1.84-2.082-1.722-3.41.242-2.351 1.789-5.617 3.281-7.805.89.274 2.793.68 3.383.762.285 1.645 1.257 7.758 1.445 8.82M517.887 480.23c.773.68 2.086 1.668 2.992 1.985.949.351 2.461.32 3.414-.352.891-.656 1.832-2.082 1.703-3.41-.234-2.351-1.789-5.617-3.277-7.805-.891.274-2.762.68-3.391.762-.289 1.645-1.254 7.758-1.441 8.82M499.488 476.574c.075-.636.52-1.89.895-2.648.394-.746 1.883-3.887 2.437-4.649-1.215-.57-3.257-1.793-3.804-2.207-.985 1.364-3.012 3.989-3.743 4.782-.73.796-1.082 1.253-1.171 2.074-.282 2.094 1.222 3.344 2.781 3.402.695.012 1.957-.156 2.605-.754M530.027 476.574c-.054-.636-.504-1.89-.89-2.648-.375-.746-1.856-3.887-2.438-4.649 1.231-.57 3.274-1.793 3.809-2.207.98 1.364 2.98 3.989 3.734 4.782.746.796 1.078 1.253 1.188 2.074.269 2.094-1.227 3.344-2.782 3.402-.695.012-1.953-.156-2.621-.754" style="fill:#2f3289;fill-opacity:1;fill-rule:nonzero;stroke:none"/><path d="M474.063 485.051c-.602 2.043-.09 5.117.769 6.969.867-1.852 3.488-4.254 6.762-4.75 0 4.066 2.531 6.296 5.445 7.453-1.598-5.465 2.02-5.743 1.313-11.43-2.016-1.34-3.332-3.789-3.168-7.156 0-.071.011-.141.011-.235-1.73-1.23-3.547-3.476-3.601-6.496-.043-2.855.84-4.324 1.449-5.441.582-1.039 1.988-2.656 3.324-3.742a39.177 39.177 0 0 0-5.199.09c-4.137 1.046-6.105 4.933-6.285 7.011-.254 2.992.664 4.063.715 6.985.066 4.191-3.93 5.402-4.996 5.468-.957.02-2.95.02-4.692-1.804-.375 6.496 4.938 7.859 8.153 7.078" style="fill:#fff;fill-opacity:1;fill-rule:nonzero;stroke:none"/><path d="M456.141 447.277c-4.418-3.297-5.043-7.496-5.043-10.41 0-2.89 1.406-6.496 3.203-8.664-.149 5.981 3.344 10.074 6.191 11.414 2.52 1.203 4.766.977 6.164.383v12.145c-1.218-.758-2.816-1.375-5.676-1.375-5.921 0-9.257 4.386-9.257 8.562 0 1.977 1.113 4.75 4.226 4.75 2.996 0 4-2.902 4-3.82 0-.93-.144-3.289-2.215-4.707 4.5.058 7.582 3.816 7.938 8.726.598-.234 1.269-.515 2.031-.543 2.582-.113 4.524 1.821 5.09 3.821.129.484.082 1.5.152 1.992-2.047-1.36-5.054-1.047-6.488.484-1.477 1.543-3.102 4.047-7.809 3.965-2.918-.043-7.308-2.469-9.402-5.66-2.062-3.188-2.41-6.012-2.41-8.195 0-4.313 3.293-10.59 9.305-12.868M454.672 408.453c-.91-1.262-2.07-2.14-4.59-2.14 1.59-1.208 3.098-1.497 4.016-1.497 1.308 0 3.582.34 5.175 2.375 1.735-2.461.813-6.48-1.593-9.113 5.418 1.227 8.316 5.817 9.156 12.176a38 38 0 0 0-.223 4.293l.043 23.582c-2.593-1.215-4.535-3.906-4.722-6.945-.168-3.075.504-5.883 1.988-8.164-.621.332-1.367.632-3.051.632-2.023 0-3.672-1.211-4.5-2.132-.816-.922-1.371-2.665-1.176-3.778.36-1.746.688-2.804.688-4.363 0-1.539-.09-3.418-1.211-4.926M555.512 485.055c.566 2.039.082 5.113-.774 6.968-.89-1.855-3.492-4.257-6.793-4.753 0 4.066-2.511 6.293-5.418 7.453 1.563-5.465-2.043-5.743-1.328-11.43 2.008-1.332 3.344-3.785 3.168-7.156-.019-.071-.019-.141-.035-.235 1.77-1.226 3.57-3.476 3.613-6.496.071-2.855-.82-4.32-1.457-5.441-.562-1.016-1.988-2.656-3.3-3.75a40.423 40.423 0 0 1 5.191.098c4.144 1.05 6.133 4.933 6.312 7.023.231 2.98-.691 4.051-.738 6.973-.074 4.195 3.918 5.402 5 5.468.961.02 2.938.02 4.695-1.804.379 6.496-4.941 7.855-8.136 7.082M574.859 408.453c.922-1.262 2.102-2.14 4.602-2.14-1.594-1.208-3.09-1.497-4.012-1.497-1.293 0-3.59.329-5.179 2.375-1.754-2.461-.825-6.48 1.589-9.113-5.418 1.227-8.296 5.817-9.14 12.176a44.58 44.58 0 0 1 .222 4.293l-.05 23.582c2.613-1.215 4.535-3.906 4.722-6.941.172-3.067-.484-5.887-1.984-8.168.629.339 1.332.632 3.035.632 2.043 0 3.664-1.211 4.508-2.132.82-.922 1.371-2.665 1.156-3.778-.336-1.746-.664-2.804-.664-4.363 0-1.539.102-3.418 1.195-4.926" style="fill:#fff;fill-opacity:1;fill-rule:nonzero;stroke:none"/><path d="M573.418 447.277c4.41-3.297 5.02-7.496 5.047-10.41 0-2.89-1.426-6.496-3.215-8.664.145 5.981-3.352 10.074-6.195 11.414-2.532 1.203-4.77.977-6.164.383l-.012 12.141c1.238-.754 2.836-1.371 5.695-1.371 5.899 0 9.254 4.39 9.254 8.562 0 1.977-1.121 4.75-4.226 4.75-2.989 0-4.02-2.902-4.02-3.82 0-.93.156-3.289 2.242-4.707-4.515.058-7.597 3.816-7.949 8.726-.605-.234-1.266-.515-2.031-.543-2.582-.109-4.524 1.821-5.09 3.821-.121.484-.09 1.5-.145 1.992 2.032-1.36 5.036-1.047 6.481.484 1.473 1.547 3.109 4.059 7.812 3.965 2.903-.043 7.305-2.469 9.399-5.66 2.054-3.188 2.41-6.012 2.41-8.195 0-4.313-3.297-10.59-9.293-12.868M498.445 454.301c4.481 2.527 11.082 3.734 16.313 3.734h.055v-92.441c-6.215.89-21.961 7.047-30.997 16.215-5.046 5.16-14.804 16.535-14.804 32.441v45.895c7.429-2.5 18.601-3.438 27.07-.5a31.761 31.761 0 0 0 2.363-5.344" style="fill:#fff;fill-opacity:1;fill-rule:nonzero;stroke:none"/><path d="M471.445 419.199h40.965l.016-50.535c-1.75.379-7.074 2.305-8.227 2.988l.008 44.981h-8.203v-41.008c-2.32.859-7.32 4.848-8.195 5.703v35.305h-8.18v-25.887c-3.633 4.746-6.418 11.531-7.332 15.715-.555 2.586-.852 4.891-.852 5.957" style="fill:#2f3289;fill-opacity:1;fill-rule:nonzero;stroke:none"/><path d="M537.23 390.121c0 .227.301.656-.164 1.387-.472.707-4.804 8.859-4.804 8.859l2.613.016c-.902 1.906-.047 4.344 1.848 6.105l-6.633-.027c-2.082 0-3.129-.973-3.52-1.539-.363-.59-1.136-2.281-.32-3.789.816-1.492 3.18-5.961 3.18-5.961l-4.891-.082-.539 1.015c.277.168.52.29.68.387 1.07.598 1.121 1.801.812 2.391l-.992 1.726c.027-.652-.352-1.418-.965-1.687 0 0-.316-.172-.781-.442l-.441.821c-.317.711-.911 1.012-1.52 1.066-.281.016-.676-.105-.918-.211-.238-.144-1.437-.855-1.437-.855.617-.11 1.066-.289 1.316-.758.121-.176.387-.742.699-1.363-.801-.453-1.519-.86-1.793-1.008-.707-.387-.996-1.543-.676-2.164l.911-1.586c.136.82.574 1.207 1.035 1.441.008.016.027.016.027.028l1.16-2.075c.41-.789 1.121-1.476 1.891-1.476h3.933c.293 0 .59-.07.629-.289.2-.852.606-1.356 1.309-1.356l1.609-.031c-.687.582-.668 1.203-.703 1.699h.938c.242 0 .429-.14.527-.48.102-.348.418-1.176 1.223-1.176h1.679c-.621.559-.621 1.176-.578 1.633l.942.023c.281 0 .461-.14.543-.418.062-.261.316-1.183 1.203-1.183.902 0 1.679.023 1.679.023-.48.367-.711.828-.711 1.336M520.953 411.055l-.812-.965 2.742-1.899 2.738 1.852-.941 1.043M519.563 423.977c1.937 1.468 4.218 1.378 5.714.461l-.925-1.043.964-1.157-1.062-1.004.957-1.222h-5.602M522.809 426.887c1.054 0 2.57-.418 3.328-1.145l1.906 2.039-1.93 2.172c-.675-.691-2.25-1.07-3.304-1.07-1.063 0-2.61.379-3.289 1.07l-1.942-2.172 1.891-2.039c.761.727 2.277 1.145 3.34 1.145M522.762 452.367l3-4.656v-15.914l-2.09-1.086-.035 14.289-.883 1.258-.867-1.258-.047-14.289-2.086 1.086v15.914" style="fill:#dc0960;fill-opacity:1;fill-rule:nonzero;stroke:none"/><path d="M547.66 433.684c.121.754.945 1.769.539 2.464-.105.161-.496.446-.722.481-.489.078-1.118 0-1.602 0-.914 0-1.867.047-2.758 0-1.652-.074-3.465-.828-4.789-1.543-3.004-1.648-4.797-4.129-5.668-7.949-.293-1.258-.293-2.891-.152-4.321 2.133.895 5.32 4.672 5.765 6.36h1.848c-.836-2.875-3.965-6.133-6.101-7.711-2.895-2.133-5.723-3.094-8.93-3.281-1.43-.09-3.16.039-4.453-.098.234-.293.933-1.125 1.129-1.277-.34-.371-.817-.942-1.129-1.34.312-.403.933-1.059 1.129-1.258-.231-.34-.848-.973-1.129-1.434 2.133 0 3.679.024 5.73.024 3.848 0 7.559 1.918 9.586 3.199.379-.133.379-.242.578-.477.27-.285.215-.687.215-.925-.008-.235 0-.336.172-.203.187.109 1.125.976 1.312 1.257.219.301.176.864.122 1.004-.071.164-.196.403-.266.563-.043.082-.082.152-.086.269.352.305.734.625 1.16 1.012.063-.043.125-.129.309-.336.34-.402.285-.676.25-.902 0-.242.09-.309.281-.16.176.16.895.863 1.129 1.156.246.293.207.769.148.992-.039.191-.195.52-.429.844.386.375.742.734 1.082 1.097.754-.414.816-.996.855-1.246.012-.285.082-.183.219-.035 0 0 .738.817.984 1.379.09.184.098.387.059.66-.039.239-.301.617-.633.953.328.418.594.825.828 1.18.571-.617.883-1.184.996-1.641.137-.464.336-1.113-.062-1.843-.828-1.446-5.785-6.625-8.899-8.075.828-1.468 2.668-4.828 3.786-6.765-2.102 0-3.532-2.235-3.586-3.586-.028-.738.246-1.887.781-2.781.332-.559 3.769-6.918 3.769-6.918.539-1.215.309-1.762-.187-2.317-.766-.929-4.207-4.226-5.078-5.043l-.75.707c-.442.379-1.528.297-1.824.063-.293-.238-1.481-1.391-1.481-1.391-.246-.199-.07-.226.188-.199.285.008.777.074 1.085-.172.434-.371.958-.976.958-.976s-.911-.875-1.086-1.188c-.368-.617-.125-1.559.25-1.973.14-.175 1-1.05 1.308-1.312-.164.699 0 1.199.25 1.461.285.23 1.195 1.18 1.195 1.18s1.184-1.297 1.458-1.579c.507-.519 1.726-.629 2.406-.046.32.265.894 1.023 1.078 1.171.172.153.121.27-.043.262-.754-.098-1.149.102-1.531.461.082.098 1.324 1.316 2.851 2.832.239.242.571-.047.934-.226.371-.161.996-.016 1.308.269 0 0 .594.625.786.801.171.176.273.242.191.32-.066.067-.219.067-.563.067-.238 0-.558.238-.867.511.223.239.465.477.7.719v-.012c.347.395.906.035 1.183-.129.258-.132.902.063 1.223.344 0 0 .621.629.812.797.145.16.246.219.184.309-.074.066-.231.066-.574.066-.25 0-.539.266-.875.535.3.305.586.586.828.828.301.184.719 0 .929-.129.442-.254 1.043-.078 1.344.223 0 0 1.02.973 1.153 1.074.117.086.117.285-.051.254-.168-.008-.196-.008-.531-.008-.344 0-.856.258-.985.481-.769 1.426-3.523 6.336-3.91 7.203-.105.211-.066.48 0 .734.098.289.426.715.711.821.211.062.391.019.644.043 1.297.089 2.993.086 4.168.199.965.094 3.09 1.683 3.403 2.961.449 1.914.312 11.715.25 13.437 0 .492.347.739.613.949.336.239.832.239 1.469.649.492.351.937.949.937 1.781v1.863c0 .368-.246.262-.343.09a1.71 1.71 0 0 0-.305-.289c-.207-.293-.926-.453-1.379-.527-.305-.051-.723-.301-.992-.668-.004.582-.004 1.125-.004 1.684.051.574.324.851.617 1.074.336.254.832.254 1.469.668.492.328.937.941.937 1.769v1.852c0 .363-.234.238-.316.094-.113-.168-.215-.266-.25-.321-.317-.398-1.059-.359-1.504-.437-.336-.059-.715-.293-.973-.653v1.243c0 .757.223 1.074.438 1.312.328.387.695.566 1.117.598.605.023 1.043.683 1.207.945.172.277.281.606.27 1.273v1.504c0 .325-.188.243-.305.079-.129-.188-.656-.536-.973-.59-1.023-.141-2.105.136-3.121 0-1.203-.149-2.238-1.075-2.609-2.075a4.565 4.565 0 0 1-.184-1.406c.067-1.304 0-2.66 0-3.972l.039-13.954c0-.445.047-.925-.09-1.25 0-.019-.254-.468-.254-.48-.324-.488-.863-.398-1.589-.047-.297.145-.606.59-.668.961M531.438 440.891c-1.168-.082-2.704.207-3.379.675-.598.414-1.227 1.18-.95 2.129.079.176.219.215.321.075.265-.411.746-.622 1.008-.665.781-.046 1.628 0 2.441 0 .254 0 .672.125.82-.042.11-.149.426-.692.496-.821.071-.121.071-.238-.054-.406-.11-.172-.371-.621-.703-.945" style="fill:#dc0960;fill-opacity:1;fill-rule:nonzero;stroke:none"/><path d="M544.824 446.898c-.187.485-1.078 1.946-1.429 2.653.464-.184 3.378-.707 4.793-.86-.805-.382-2.715-1.437-3.364-1.793m11.653 2.942c-.317-.238-.606-.547-1.016-.676-.477-.137-.992-.098-1.527-.203-.735-.148-1.313-.723-1.641-1.344a7.84 7.84 0 0 1-.906.754c.351.774 1.234 1.418 1.765 1.789.528.336 1.118.25 1.68.278.852.023 1.641.656 1.848 1.386.105.367.148 1.09-.246.781-.071-.05-.235-.175-.289-.191-.274-.125-.582-.254-.868-.301-.539-.054-1.023.106-1.429.153-.489.066-1.094.023-1.535-.047a5.273 5.273 0 0 1-1.45-.489 2.664 2.664 0 0 1-.629-.476l-6.062-.059c-.59 1.043-1.586 1.219-2.348 1.184-.758-.012-1.679-.625-1.844-1.285-.07-.176.02-.27.223-.27.457 0 1.016-.386 1.016-1.058v-1.946c-1.727 0-3.465-.011-5.223-.011-1.051 0-2.121-.086-2.808.296-.54.297-.887.653-.969 1.219-.008.043-.137.008-.192.043-.937-.437-2.105-1.558-2.039-2.879.086-1.511 1.45-2.578 3-2.648.114-.067.95-1.563 1.051-1.781.391.472.793 1.148 1.145 1.582.476.031 2.031.058 2.031.058.117-.219.789-1.332.914-1.562.449.554.785 1.023 1.215 1.562.879.074 2.847-.015 3.726.035.325.039.543-.011.828.055.422.102.887.383 1.204.633.269.207.402.695.824.676.508-.032.875.105 1.277-.535.285-.473.418-.774.242-1.5-.164-.743-.379-1.36-1.125-1.653-.965-.351-3.316-.062-4.402-.129-1.09-.074-3.695-.035-4.855-.035-.145.344-.395.668-.688 1-.199-.187-.637-.949-.871-1.031-.391-.106-.934.066-1.301-.043-1.453-.383-2.976-2.082-2.172-3.902.242-.579.778-1.036 1.407-1.27.601-.207.621.074.621.328 0 .828.824 1.508 1.543 1.797.601.242 1.5.18 2.339.195 1.75.047 8.418.098 10.36.098.226 0 .625.09 1.066.25.715-.301 1-.695 1.168-.996.207-.363.387-.875.238-1.383-.168-.496.149-.367.313-.254.586.324.961.953.918 1.973-.012.461-.328 1.051-.777 1.57.16.094.285.203.398.32.117.102.227.207.316.309.5-.266.911-.707 1.067-.945.191-.231.504-1.121.484-1.426 0-.324.199-.289.391-.031.246.32.433.863.387 1.75-.016.445-.54 1.656-1.293 2.199.101.289.222.559.281.844 1.058-.309 1.726-1.391 1.812-1.852.075-.289.141-.391.207-.215.094.235.141.407.184.75.223 1.551-.457 3.418-1.578 4.528.336.043.949.203 1.238.402.664.441 1.43 1.309 1.559 2.281.054.403 0 .844 0 1.246 0 .117-.082.188-.203.102M526.883 424.273l.031-3.855c1.461.141 3.211.867 3.68 1.336-.098.687-.141 2.094-.043 2.519" style="fill:#dc0960;fill-opacity:1;fill-rule:nonzero;stroke:none"/><path d="m491.293 444.902-1.098-1.543-3.562 5.071 1.797 3.136 2.863-2.437 2.84 2.437 1.801-3.136-3.555-5.071zm3.25 9-3.25-2.765-3.254 2.793-3.152-5.719 6.406-9.242 6.391 9.242M484.559 440l1.144-1.531-5.945-1.813-2.422 2.66 3.211 1.965-1.449 3.481 3.527.742 3.727-4.977zm-7.579 5.852 1.645-3.938-3.645-2.23 4.45-4.766 10.765 3.223-6.812 8.953M496.207 440.527l3.727 4.977 3.554-.742-1.465-3.465 3.219-1.981-2.429-2.664-5.938 1.817 1.141 1.531zm2.984 6.567-6.816-8.953 10.754-3.215 4.457 4.758-3.648 2.23 1.656 3.938M487.105 432.055l1.778.609-.086-6.207-3.297-1.477-.891 3.665-3.742-.321.41 3.594 5.848 2.016zm-7.925-5.387 4.25.328 1.008-4.137 5.894 2.746.254 11.25-10.606-3.738M495.445 432.074l-.035 1.903 5.867-2.036.391-3.57-3.746.305-.875-3.684-3.274 1.492-.14 6.18zm2.668-9.195 1.008 4.152 4.238-.351-.793 6.445-10.597 3.742.238-11.246" style="fill:#2f3289;fill-opacity:1;fill-rule:nonzero;stroke:none"/><path d="m491.293 444.902-1.098-1.543-3.562 5.071 1.797 3.136 2.863-2.437 2.84 2.437 1.801-3.136-3.555-5.071M484.559 440l1.144-1.531-5.945-1.813-2.422 2.66 3.211 1.965-1.449 3.481 3.527.742 3.727-4.977M498.016 440l-1.141-1.531 5.938-1.813 2.429 2.66-3.219 1.981 1.465 3.465-3.554.742-3.727-4.977M487.105 432.055l1.778.609-.086-6.207-3.297-1.477-.891 3.665-3.742-.321.41 3.594 5.848 2.016M495.445 432.074l-.035 1.903 5.867-2.036.391-3.57-3.746.305-.875-3.684-3.274 1.492-.14 6.18" style="fill:#dc0960;fill-opacity:1;fill-rule:nonzero;stroke:none"/><path d="M471.652 372.551c-1.687 1.808-3.898 4.551-4.722 5.707-.696.976-1.672.984-2.188.523-.656-.617-.676-1.804-.058-2.273.976-.711 3.207-2.633 3.886-3.375.68-.699 1.41-1.567 1.352-2.352a31.416 31.416 0 0 1 1.73 1.77" style="fill:#b49242;fill-opacity:1;fill-rule:nonzero;stroke:none"/><path d="M469.016 385.781c-2.653 4.457-6.008 7.399-9.692 8.422-1.164-1.547-6.597-8.75-6.597-8.75 2.636-.488 4.218-2.055 4.613-2.48 1.183-1.2 2.652-2.809 3.836-6.047 1.187-3.274 3.144-6.547 3.73-7.403.59-.898 1.305-1.257 1.883-1.257.57 0 1.781.578 1.488 2.082-.187 1.105-1.05 1.937-1.73 2.609-.695.672-2.266 1.953-2.914 2.41-.875.645-1.934 2.879-.274 4.578 1.621 1.668 5.657 5.836 5.657 5.836" style="fill:#b49242;fill-opacity:1;fill-rule:nonzero;stroke:none"/><path d="M452.977 377.988c.054-.047.144-.023.203-.047l3.187 3.188c.043.047.035.156.047.199a6.194 6.194 0 0 1-1.488 1.36c-.496.343-1.43.957-2.321.812-.542-.066-.878-.434-1.07-.859-.172-.344-.414-.817-.285-1.407.27-1.234.887-2.339 1.727-3.246M557.859 372.578c1.715 1.777 3.938 4.52 4.746 5.68.7.976 1.672.984 2.2.519.636-.613.672-1.8.05-2.269-.98-.711-3.21-2.633-3.886-3.375-.68-.699-1.395-1.563-1.352-2.356a42.146 42.146 0 0 0-1.758 1.801" style="fill:#b49242;fill-opacity:1;fill-rule:nonzero;stroke:none"/><path d="M560.531 385.781c2.66 4.457 5.992 7.399 9.688 8.422 1.168-1.547 6.574-8.75 6.574-8.75-2.609-.488-4.172-2.055-4.59-2.48-1.156-1.2-2.64-2.809-3.828-6.047-1.191-3.274-3.148-6.547-3.727-7.403-.593-.898-1.304-1.257-1.898-1.257-.578 0-1.762.578-1.488 2.082.203 1.105 1.07 1.937 1.75 2.609.664.672 2.261 1.953 2.898 2.41.867.645 1.938 2.879.285 4.578-1.632 1.668-5.664 5.836-5.664 5.836" style="fill:#b49242;fill-opacity:1;fill-rule:nonzero;stroke:none"/><path d="M576.566 377.988c-.046-.027-.14-.023-.195-.047l-3.199 3.188c-.031.047-.031.156-.047.199.457.543.926.969 1.504 1.36.496.343 1.406.957 2.332.812.519-.066.855-.434 1.055-.859.172-.344.394-.817.289-1.407-.149-.789-.762-2.457-1.739-3.246M514.758 351.59c8.285 1.519 18.953 5.344 27.527 10.672 5.473 3.39 14.414 10.172 19.36 17.426.398.601.863.917 1.496.96l-7.563 7.696c-.367.293-.789.375-1.199-.071l-.008.012c-3.387-4.808-7.625-9.137-12.398-12.762-7.711-5.859-17.086-10.187-27.215-12.785-10.098 2.598-19.477 6.926-27.184 12.785-4.781 3.625-9.011 7.954-12.422 12.762v-.012c-.379.438-.8.364-1.179.071l-7.575-7.696c.637-.043 1.09-.359 1.493-.96 4.961-7.254 13.902-14.036 19.379-17.426 8.562-5.328 19.242-9.153 27.488-10.672" style="fill:#b49242;fill-opacity:1;fill-rule:nonzero;stroke:none"/><path d="M472.945 376.629c.368-.078 1.09-.395 1.547-.293.047.016.813.504.824.531.012.039-.023.113 0 .149-.511.129-1.25.129-1.695.339-.262.122-.473.391-.633.625-.855 1.258.578 2.825 1.313 3.438.32.266 1.054.773 1.551.824.878.09 1.781-1.101 1.64-1.89-.035-.215-.226-.469-.34-.625a2.061 2.061 0 0 0-.238-.293c-.09-.079.098-.196.098-.196.121.004.41-.047.496.051.262.305.644.688.855.902.309.336.766.45.825.602.015.035-.028.105 0 .137-.196.152-.489.289-.629.488-.184.242-.262.527-.438.773-.5.707-1.496 1.336-2.758 1.211-1.765-.172-2.902-1.043-3.726-2.035-.68-.797-1.211-2.324-.489-3.48.274-.414.586-.996 1.797-1.258M495.289 367.59c.469-.25 1.149-.746 1.219-1.219.055-.359-.047-.613-.098-.922.047.012.098-.066.195-.051.063.012.352.192.391.243.117.175.074.359.141.582.066.203.238.593.34.824.035.078.168.207.191.289.016.055-.016.144 0 .195-1.277.465-2.297 1.11-3.434 1.739-.308.175-1.078.816-1.5.777-.066-.012-.324-.141-.336-.199-.019-.043.024-.141 0-.192.231-.218.489-.476.336-.922-.14-.355-2.757-4.953-2.996-5.027-.25-.074-.687-.062-.777-.293-.023-.043.027-.098 0-.137a57.204 57.204 0 0 1 2.953-1.703c.41-.219.832-.41 1.207-.676.082-.058.379-.414.438-.433.074-.02.441-.012.461.066.082.34.699 1.117 1.078 1.477.004.012.394.394.394.394.031.121.016.207-.047.239-.316.105-.644-.254-1.062-.489-.824-.441-1.656.094-2.184.489-.242.191-.519.492-.285.922.336.628.965 1.667 1.16 1.933.418-.121 1.27-.519 1.356-.918.07-.336-.075-.598-.149-.871.246.016.473-.027.633.195.125.161.149.395.242.582.094.192.215.434.336.621.055.09.215.188.238.293.02.059-.015.145 0 .196-.238.066-.628.066-.914.144-.351.098-.871.481-1.164.68.18.586.555 1.152.875 1.609.164-.086.582-.343.762-.437M482.164 376.602c.41-.344.957-.977.93-1.457-.028-.364-.18-.59-.301-.879.047 0 .078-.082.187-.09.055 0 .375.113.426.16.157.137.153.328.27.535.101.188.355.524.508.727.054.07.211.164.254.238.019.055.007.141.039.191-1.149.739-2.004 1.582-2.977 2.446-.27.234-.879 1.035-1.297 1.078-.066.008-.344-.063-.371-.11-.031-.05-.008-.152-.043-.195.184-.269.371-.574.137-.965-.227-.324-3.774-4.246-4.024-4.269-.261-.012-.683.09-.82-.114-.027-.043.008-.109-.035-.14a58.37 58.37 0 0 1 2.523-2.293c.348-.305.719-.578 1.032-.922.07-.082.273-.492.328-.523.066-.04.429-.114.465-.04.156.309.929.946 1.371 1.219.011.012.476.293.476.293.063.11.055.199.004.246-.285.176-.683-.105-1.144-.242-.899-.262-1.594.442-2.02.945-.207.243-.406.586-.086.957.465.547 1.301 1.422 1.555 1.641.375-.207 1.121-.781 1.121-1.187-.004-.344-.203-.575-.332-.825.242-.035.453-.125.66.055.148.137.23.352.363.516.133.168.301.375.469.539.066.07.246.136.293.23.02.051.012.141.043.188-.227.117-.605.203-.863.34-.321.168-.746.656-.989.918.297.535.786 1.011 1.204 1.382.144-.121.484-.457.644-.593M501.977 357.078c.144.137.41.848.531 1.067.133.25.344.515.496.746.023.039.414.597.414.597.027.059-.348.106-.504.02-.23-.145-.187-.309-.601-.641-.817-.656-2.387.024-2.973.485.656.628 4.086 3.605 5.59 4.644.031.09-.024.195 0 .297-.063.039-.043.102-.098.141-.172.121-.363.074-.582.148-.238.078-.52.234-.773.34-.797.332-1.598.617-2.422.961-.2.086-.68.484-.871.484-.094 0-.293-.129-.336-.199-.024-.023.007-.105 0-.137-.02-.074-.235-.519-.289-.633-.188-.332-.418-.683-.625-1.011-.036-.051-.18-.141-.2-.196-.019-.058.024-.14 0-.195.133.012.254-.066.438 0 .176.067.226.258.336.391.246.289.637.625 1.262.535.457-.074 1.21-.418 1.617-.609-1.617-1.528-3.989-3.461-5.828-4.817.062-.164.015-.293.144-.387.133-.089.262-.043.43-.097.324-.094.625-.211.976-.336.254-.09.571-.289.825-.391.554-.207 1.043-.347 1.597-.578.254-.109.555-.285.813-.434.062-.035.148-.156.199-.195.062-.047.324-.094.434 0M530.379 357.875a6.324 6.324 0 0 1 1.453.414c1.02.453 1.988 1.797 1.598 3.336-.188.746-.805 1.41-1.547 1.598-1.117.289-2.699-.594-3.199.34-.067.128-.184.382-.141.628.082.512 1.258.973 1.98.731.375-.133.614-.524.825-.832.011.015.129 0 .148 0 .156.348.188.527 0 .875-.129.23-.336.48-.437.726-.055.133-.243.829-.289.868-.04.035-.157.015-.192.05-.183-.121-.383-.308-.582-.386-.601-.231-1.183-.262-1.699-.582-.438-.266-.914-.899-1.086-1.426a2.586 2.586 0 0 1 .168-1.914c.223-.43.555-.836 1.023-1.016 1.098-.414 3.149.488 3.524-.726.097-.289.012-.524-.094-.723-.187-.344-.406-.461-.82-.582-1.258-.348-1.797.34-2.328 1.016l-.141-.043c-.016-.012-.16-.489-.141-.536l.094-.097c.129-.356.317-.656.481-1.02.175-.371.363-.812.535-1.199.097.043.144.004.242.043.144.059.254.41.625.457M546.879 373.484c.402.082.797-.035 1.066-.148.539-.215 2.461-1.738 3.043-1.305.137.094.18.371.246.532.02-.016.121 0 .153 0 .066-.153.265-.403.281-.583.039-.304-.199-1.003-.281-1.253-.719-2.036-3.496.863-4.356 1.109-.25.07-.586.059-.679-.145-.043-.074-.106-.214-.051-.289.347-.531 1.562-1.902 1.765-2.058.204-.156.426-.207.547-.133.117.074.36.254.395.16.047-.168.262-.469.051-.582-.532-.266-1.36-.875-1.598-1.164-.145-.18-.289-.406-.484-.531-.118-.074-.188-.035-.34-.094-.024.121-.094.305-.094.43.004.195.121.347.043.586-.043.144-.207.273-.285.386-.676.969-3.051 3.942-3.531 4.254-.266.196-.559-.07-.778-.14l-.047.14c0 .039-.082.274-.05.391.011.047.105.109.148.141.273.246.621.406.918.632.273.215.508.5.773.731.157.133.329.258.481.383.015-.02.18-.063.195-.094.164-.317-.097-.547-.047-.875.028-.184.367-.61.489-.777.027-.032.421-.532.433-.532.051-.015.141.024.188 0 .113.59.152 1.883.113 2.266-.02.199-.297.043-.488.109-.016.106-.114.356-.059.532.031.089 1.141.871 1.313 1.011.179.168.347.317.527.485h.152c.012-.149.078-.282.047-.485-.039-.187-.367-.597-.441-.863-.184-.691-.254-1.703-.254-2.531.039.097.328.269.496.304M552.191 380.016l1.016-2.129c.379.242 1 .847 1.188 1.066 0 0-1.911.953-2.204 1.063m2.336-6.297c-.121-.153-.203-.297-.339-.43-.133.121-.067-.074-.196.145-.156.269-.012.828-.144 1.156-.239.609-2.262 4.758-2.575 5.363a1.39 1.39 0 0 1-.511.508c-.063.031-.098.387-.012.426.035.011.395.437.434.531.117.242.05.504.152.773 0 .016.137.082.144.094.36-.109.497-.316.77-.476.273-.161.602-.321.871-.442 1.43-.637 2.852-1.262 4.258-1.887.711-.316 1.246-.46 2.133-.238.109-.508.101-.648-.293-.875-.434-.238-1.547-1.402-1.883-1.883-.047.039-.156.012-.195.047-.2.172.015.84-.196 1.114-.129.164-.562.332-.777.429-.195.106-.563.348-.871.461a101.568 101.568 0 0 1-1.5-1.426c-.145-.144-.094-.214 0-.386.101-.168.41-.891.777-1.258.391-.391.828-.133 1.164.101.125-.3.254-.593-.047-.781-.328-.195-.89-.711-1.164-1.066M521.867 356.156c1.91.5.594 5.399-1.793 4.985a1.414 1.414 0 0 1-.461-.18 1.415 1.415 0 0 1-.363-.352c-.246-.382-.184-1.027-.094-1.5.207-1.125.508-1.992 1.258-2.578.219-.168.797-.539 1.453-.375m-2.687 6.047c.394.348 1.05.551 1.718.582 2.258.129 3.93-2.816 3.34-5.273a4.229 4.229 0 0 0-1.5-2.324c-.34-.258-.804-.598-1.308-.672-2.621-.399-4.102 2.453-3.871 4.886.097 1.039.75 2.055 1.621 2.801M508.141 356.25c1.886-.582 3.336 4.289 1.093 5.176a1.414 1.414 0 0 1-.492.094 1.303 1.303 0 0 1-.492-.11c-.414-.199-.695-.777-.871-1.226-.41-1.071-.606-1.969-.277-2.848.093-.266.394-.887 1.039-1.086m.886 6.555c.516.09 1.184-.086 1.77-.403 1.984-1.082 1.863-4.468.07-6.246a4.186 4.186 0 0 0-2.496-1.183c-.422-.055-1-.094-1.465.105-2.437 1.043-2.207 4.238-.73 6.188.629.836 1.719 1.363 2.851 1.539M537.277 368.199l.414-2.324c.422.137 1.192.547 1.422.715 0 0-1.582 1.43-1.836 1.609m.571-6.679c-.157-.114-.274-.243-.446-.336-.097.156-.082-.051-.144.195-.078.305.211.801.168 1.156-.071.645-.91 5.188-1.051 5.848a1.386 1.386 0 0 1-.352.633c-.054.043.004.398.098.41.035 0 .496.316.563.394.179.207.179.469.347.707.008.016.153.047.16.055.321-.203.399-.445.625-.676.219-.222.493-.465.719-.652 1.203-.992 2.41-1.973 3.602-2.953.597-.496 1.07-.781 1.988-.797-.027-.524-.078-.649-.516-.766-.484-.121-1.867-.941-2.32-1.316-.031.051-.148.051-.176.101-.144.219.242.805.114 1.118-.082.203-.457.468-.625.632-.168.153-.457.485-.723.676-.289-.148-1.649-.875-1.828-.976-.184-.102-.149-.184-.102-.371.051-.192.156-.977.406-1.426.278-.477.762-.344 1.149-.211.043-.317.086-.633-.258-.738-.363-.098-1.039-.45-1.398-.707M487.484 372.27c-.257-.329-.523-.614-.769-.965-.059-.075-.254-.328-.27-.434-.066-.355.121-.418.274-.558.179-.157.39-.352.691-.364.586-.015 1.227.664 1.117 1.356-.035.172-.195.328-.293.433-.254.282-.519.387-.75.532m-3.289-4.329c-.121-.171-.121-.3-.144-.484-.063-.434.25-.363.312-.602.016-.054-.019-.14 0-.195-.183-.086-.367-.168-.547-.086-.027.016-.152.114-.179.133-.231.176-.418.359-.629.531-.5.403-1.149.653-1.547 1.164.105.075.258.211.391.239.218.05.398-.012.578.05.285.122 3.164 4.211 3.336 4.45.172.242.293.461.246.679-.032.137-.223.282-.293.387.019.035 0 .152 0 .195.086.036.242.149.34.149.336.008 1.211-.914 1.5-1.117.336-.246 1.429-.895 1.691-1.036.266-.152.609-.511.727-.66.812-.976.097-2.379-.821-2.758-.476-.187-1.066-.097-1.551-.097.055-.262.129-.457.098-.774-.051-.515-.781-2.132-.336-2.562.129-.133.5-.164.723-.195 0-.024-.016-.18 0-.196-.094-.066-.418-.363-.485-.383-.234-.066-1.371-.109-1.644-.05-.223.05-.379.257-.488.433-.703 1.215 1.371 3.879.394 4.5-.164.102-.183.024-.344.047a237.595 237.595 0 0 1-1.328-1.762" style="fill:#2f3289;fill-opacity:1;fill-rule:nonzero;stroke:none"/></g></svg>