<svg xmlns="http://www.w3.org/2000/svg" viewBox="0 0 58 74.2"><path fill="#fff" d="M0 0v41.6C0 56.2 9.8 67.4 28.3 74l.7.3.7-.3C48.3 67.4 58 56.2 58 41.6V0H0z"/><path fill="#003287" d="M29 37.5v9l14.9-5c0 4.7-1.8 8.4-5.6 11.8-2.4 2.1-5.5 4-9.2 5.7-3.8-1.7-6.9-3.6-9.2-5.7-3.8-3.4-5.6-7.2-5.6-11.8V31.1c0-.9-.5-1.6-1.4-1.9L2.2 25.7v15.9C2.2 60.1 19 68.3 29 71.9c9.9-3.5 26.8-11.8 26.8-30.3V25.7l-24.1 8.1c-1.6.5-2.7 2-2.7 3.7"/><path d="M14.1 14.1h29.8V25l10.6-3.5c.8-.3 1.4-1 1.4-1.9V2.2H2.2v17.4c0 .9.5 1.6 1.4 1.9L14.1 25V14.1z"/></svg>