<svg xmlns="http://www.w3.org/2000/svg" width="77.694733mm" height="89.958328mm" viewBox="0 0 77.694733 89.958328"><path d="m134.568 168.2 2.07-1.523a85.623 85.623 0 0 0 7.966-6.585 88.035 88.035 0 0 0 25.383-6.627l.89-.385-4.336-9.809 1.902.06 3.972-3.907-1.956-2.114 2.71-4.005-2.472-1.414 2.71-5.354-5.961-1.36-1.463.79a47.109 47.109 0 0 0 1.734-12.236v-18.61l-13.445-3.598-1.577-2.514a15.558 15.558 0 0 0 4.2-4.563l1.083-1.82-1.782.335a18.967 18.967 0 0 0 1.625-2.937l.743-1.783-1.886.504-3.051.808a20.74 20.74 0 0 1-4.97.601 12.838 12.838 0 0 1-2.975-.39c-1.961-.44-4.66-.981-11.114-.981-6.455 0-9.153.542-11.126.98a12.838 12.838 0 0 1-2.975.391 20.74 20.74 0 0 1-4.959-.618l-3.05-.807-1.886-.488.753 1.8a18.967 18.967 0 0 0 1.626 2.936l-1.783-.336 1.083 1.821a15.558 15.558 0 0 0 4.2 4.563l-1.577 2.515-13.466 3.582v18.604a47.109 47.109 0 0 0 1.728 12.236l-1.463-.79-5.96 1.36 2.709 5.354-2.45 1.425 2.71 4.005-1.956 2.113 3.972 3.907 1.897-.065-4.336 9.82.889.385a88.035 88.035 0 0 0 25.383 6.627 85.623 85.623 0 0 0 7.967 6.584z" class="cls-1" style="fill:#fff;stroke-width:.541917" transform="translate(-95.712 -78.241)"/><path d="m171.787 133.625-2.564 3.793 1.843 1.99-3.013 2.964-7.154-.206 4.547 1.051 4.173 9.397a87.167 87.167 0 0 1-25.438 6.59 83.645 83.645 0 0 1-8.128 6.725l-1.507 1.084-1.507-1.084a83.634 83.634 0 0 1-8.128-6.73 86.929 86.929 0 0 1-25.422-6.585l4.19-9.408 4.551-1.051-7.153.206-3.018-2.965 1.842-1.988-2.563-3.794 2.336-1.365-2.499-5.057 4.395-1.007 3.16 1.707a47.954 47.954 0 0 1-2.336-14.166V95.843l13.071-3.512 2.303-3.658c-2.71-1.257-4.725-4.715-4.725-4.715l2.547.477c-1.935-1.322-3.387-4.78-3.387-4.78l3.045.808a21.818 21.818 0 0 0 5.23.65 13.694 13.694 0 0 0 3.175-.412c1.93-.406 4.574-.97 10.925-.97 6.352 0 8.996.542 10.926.97a13.694 13.694 0 0 0 3.175.412 21.818 21.818 0 0 0 5.208-.65l3.046-.808s-1.464 3.463-3.398 4.78l2.547-.477s-2.038 3.458-4.726 4.715l2.314 3.658 13.098 3.506v17.883a48.052 48.052 0 0 1-2.335 14.177l3.17-1.718 4.4 1.008-2.547 5.067z" style="stroke-width:.541917" transform="translate(-95.712 -78.241)"/><path d="m118.96 141.949-.124.542a.434.434 0 0 1 .038.38v.032l-.092.384v.076h-.082l-.428-.103h-.081v-.08l.092-.38v-.07a.434.434 0 0 1 .206-.326l.13-.542-1.203-.287-.125.542a.412.412 0 0 1 .033.38v.032l-.39 1.626v.032a.444.444 0 0 1-.206.325l-.125.542 1.198.287.13-.542a.417.417 0 0 1-.038-.379v-.065l.13-.542v-.081h.081l.428.103h.082v.081l-.125.542v.033a.444.444 0 0 1-.206.325l-.125.542 1.203.287.125-.542a.434.434 0 0 1-.038-.38v-.032l.385-1.626v-.032a.434.434 0 0 1 .206-.325l.125-.542zM123.578 142.8a1.436 1.436 0 0 0-1.084.119 1.013 1.013 0 0 0-.374.71l-.255 1.528c-.125.737.195 1.084 1.084 1.252a1.404 1.404 0 0 0 1.084-.12 1.024 1.024 0 0 0 .374-.71l.254-1.527c.152-.737-.178-1.1-1.083-1.252zm.151 1.013-.276 1.626a.369.369 0 0 1-.141.265.303.303 0 0 1-.222.05.293.293 0 0 1-.195-.12.401.401 0 0 1-.044-.298l.271-1.626a.406.406 0 0 1 .141-.26.32.32 0 0 1 .417.07.38.38 0 0 1 .05.293zM128.71 143.558l-.055.494c0 .173-.038.21-.26.498l-.314.396-.179.222.033-.282.048-.466v-.032a.46.46 0 0 1 .163-.353l.06-.542-1.225-.113-.054.542a.439.439 0 0 1 .086.373v.033l-.173 1.626v.027a.434.434 0 0 1-.157.347l-.06.542 1.23.13.054-.542a.45.45 0 0 1-.086-.374v-.033l.06-.58v-.086h.14v.049l.233.585v.065a1.019 1.019 0 0 1 .087.585l-.038.352 1.149.125.054-.542a.542.542 0 0 1-.211-.303l-.428-1.128v-.076l.542-.737a.542.542 0 0 1 .254-.2l.055-.515zM133.56 144.28c0 .173 0 .216-.223.541l-.287.417-.157.233v-.785a.466.466 0 0 1 .136-.363v-.542l-1.241-.038v.542a.428.428 0 0 1 .113.368v.033l-.054 1.625v.033a.417.417 0 0 1-.135.358v.541l1.235.038v-.542a.444.444 0 0 1-.113-.368v-.699h.14v.043l.277.57v.059a1.008 1.008 0 0 1 .124.585v.352l1.155.038v-.542a.542.542 0 0 1-.233-.287l-.51-1.084V145.325l.542-.775a.482.482 0 0 1 .233-.217v-.542l-1.084-.032zM137.684 146.458a.542.542 0 0 1 0-.13v-.065h.065l.542-.033h.06v.06a.423.423 0 0 1 0 .124.287.287 0 0 1-.12.26l.032.542 1.29-.08-.032-.543a.602.602 0 0 1-.217-.385l-.683-2.563-1.501.092-.32 2.569v.087a.629.629 0 0 1-.13.352l.033.542 1.084-.065v-.515a.276.276 0 0 1-.103-.25zm.038-.846.113-1.084v-.07h.147v.07l.254 1.084v.098h-.574zM141.65 144.323v.032l.196 1.626v.032a.471.471 0 0 1-.082.38l.06.542 1.23-.147-.065-.542a.444.444 0 0 1-.168-.347v-.032l-.195-1.626v-.027a.434.434 0 0 1 .081-.38l-.06-.541-1.23.146.066.542a.444.444 0 0 1 .168.342zM147.715 145.813a.992.992 0 0 0 .119-.878l-.233-1.355a.965.965 0 0 0-.445-.791 1.398 1.398 0 0 0-.905-.033l-1.49.255.087.542a.38.38 0 0 1 .206.303l.303 1.767a.38.38 0 0 1-.086.352l.092.542 1.522-.265a1.198 1.198 0 0 0 .83-.44zm-1.171-.168h-.173v-.082l-.363-2.07v-.08H146.176a.412.412 0 0 1 .325.042.477.477 0 0 1 .157.32l.233 1.366c.032.298-.06.455-.347.504zM152.56 144.724a1.084 1.084 0 0 0 .054-.803l-.39-1.5c-.185-.721-.624-.927-1.513-.7a1.452 1.452 0 0 0-.937.542 1.024 1.024 0 0 0-.054.797l.384 1.501c.19.726.63.927 1.518.699a1.425 1.425 0 0 0 .937-.536zm-.911-.201a.266.266 0 0 1-.184.136.293.293 0 0 1-.228-.028.385.385 0 0 1-.163-.254l-.411-1.626a.363.363 0 0 1 0-.298.32.32 0 0 1 .411-.103.341.341 0 0 1 .158.25l.417 1.625a.385.385 0 0 1 0 .298zM107.2 146.88l-.698 1.81-1.084-.422.27-.689s.201-.541-.162-.66c-.363-.12-.574.4-.574.4l-1.312 3.36s-.265.596.093.764c.357.168.65-.542.65-.542l.363-.91 1.084.423-.867 2.205a1.924 1.924 0 0 1-1.772.07c-.976-.455-1.084-1.31-.716-2.34l1.415-3.61s.617-1.68 1.978-1.208a2.26 2.26 0 0 1 1.333 1.35zM107.472 148.018a5.083 5.083 0 0 1 .542-.85 1.344 1.344 0 0 1 1.571-.31c.943.331 1.024.949 1.024.949a2.818 2.818 0 0 1-.054 1.23l-1.214 3.615a5.078 5.078 0 0 1-.542 1.002c-.233.271-.628.824-1.728.418-1.1-.407-1.02-1.198-1.02-1.198a4.948 4.948 0 0 1 .218-1.328zm-.109 4.103s-.151.542.168.645c.456.14.607-.423.607-.423l1.182-3.5s.162-.543-.2-.667c-.364-.125-.543.39-.543.39zM111.569 147.682l1.311.358-.146 3.523.206.06.493-1.735a.661.661 0 0 0 0-.482l.325-1.128 1.198.331-.326 1.138a.921.921 0 0 0-.276.412l-1.539 5.484-1.154-.33.086-3.496-.216-.07-.472 1.696a.726.726 0 0 0 0 .482l-.325 1.133-1.154-.336.314-1.122s.152 0 .266-.39l1.084-3.842a.845.845 0 0 0 0-.57zM118.44 149.953l-.363 1.566-1.084-.238.082-.396s.146-.542-.271-.623c-.418-.081-.515.444-.515.444a.824.824 0 0 0 .27.96c.505.346 1.29.812 1.15 1.94a4.59 4.59 0 0 1-.629 2.13 1.425 1.425 0 0 1-1.729.644 1.777 1.777 0 0 1-1.3-1.035l.417-1.826 1.143.26-.124.574s-.125.602.276.683c.401.082.542-.444.542-.444s.352-.9-.298-1.295c-.65-.396-1.371-.884-.97-2.504s.954-2.168 2.27-1.8a1.989 1.989 0 0 1 1.133.96zM142.615 151.102l.12 1.626-1.084.097-.044-.406s0-.542-.439-.542-.363.58-.363.58a.83.83 0 0 0 .542.834c.585.179 1.474.396 1.675 1.512a4.606 4.606 0 0 1 0 2.195 1.43 1.43 0 0 1-1.464 1.127 1.767 1.767 0 0 1-1.544-.607l-.146-1.864 1.17-.092.054.585s.06.613.466.575c.407-.038.358-.58.358-.58s.07-.96-.672-1.15c-.742-.189-1.566-.433-1.664-2.102-.097-1.669.271-2.346 1.626-2.395a1.989 1.989 0 0 1 1.41.607zM119.773 149.677l1.816.32-.282 5.652s0 .476.114.585l-.195 1.127-1.577-.276.195-1.155s.32-.097.276-.764l-.889-.168s-.254.634 0 .851l-.2 1.127-1.35-.249.196-1.149s.14-.06.276-.488zm-.276 4.13.742.14.174-2.51-.228-.037zM143.856 150.42l1.832-.234 1.414 5.484s.12.46.282.542l.146 1.15-1.582.205-.157-1.154s.276-.19.032-.813l-.9.103s-.048.683.255.813l.147 1.132-1.36.168-.152-1.154s.114-.103.114-.542zm.97 4.031.748-.092-.585-2.417-.222.032zM122.813 150.164l2.136.271s1.235 0 .997 1.978l-.455 3.588s-.168 1.875-1.48 1.712l-2.108-.265.146-1.144s.18 0 .255-.58l.482-3.793s.082-.455-.113-.64zm.645 6.113.266.033c.542.07.59-.65.59-.65l.39-3.079c.098-.834-.422-.813-.422-.813h-.244zM126.526 152.37s.06-1.945 1.701-1.853c1.81.097 1.523 1.95 1.523 1.95l-.276 3.767s0 2.048-1.772 1.935c-1.626-.109-1.458-2.07-1.458-2.07zm.937 3.793s-.103.542.336.597c.439.054.46-.591.46-.591l.277-3.69s-.032-.543-.368-.575c-.336-.033-.429.51-.429.51zM154.852 150.316s-.613-1.848.964-2.325c1.74-.542 2.097 1.317 2.097 1.317l1.03 3.636s.688 1.93-1.002 2.423c-1.577.455-2.081-1.453-2.081-1.453zm2.167 3.252s.098.542.542.444c.445-.098.233-.71.233-.71l-1.008-3.571s-.216-.51-.542-.417c-.325.092-.233.623-.233.623zM162.411 148.002s-.807-1.767.71-2.417c1.664-.71 2.228 1.084 2.228 1.084l1.414 3.5s.894 1.843-.737 2.52c-1.512.624-2.222-1.213-2.222-1.213zm2.515 2.98s.157.543.542.39c.385-.15.152-.736.152-.736l-1.382-3.43s-.271-.483-.586-.353c-.314.13-.162.645-.162.645zM130.34 150.858l1.534.038v1.187s-.162.086-.179.498l-.119 4.298h.26s.466.054.499-.602l.054-1.458h1.024l-.092 3.43-3.16-.086v-1.181s.174 0 .185-.542l.12-3.918a.753.753 0 0 0-.147-.542zM133.972 150.912l3.251-.054v2.325h-1.084v-.46s0-.494-.439-.494h-.32v1.626h.916v1.235h-.91v1.772h.265a.542.542 0 0 0 .488-.541v-.607h1.084l.038 2.498-3.252.049v-1.17s.158-.044.158-.592l-.055-3.863a.759.759 0 0 0-.178-.542zM146.934 149.996l2.076-.384s1.116-.223 1.468 1.246a12.128 12.128 0 0 1 .369 1.924s.325 1.664-.856 1.902l-.813.163.081.428s.049.4.25.542l.216 1.148-1.501.266-.217-1.154s.136-.103.06-.591l-.683-3.793a.921.921 0 0 0-.25-.542zm2.016 3.507.347-.07c.46-.098.298-.776.298-.776a11.06 11.06 0 0 0-.244-1.262.504.504 0 0 0-.542-.38l-.309.065zM150.64 149.362l2.055-.482s1.084-.276 1.523 1.17a11.342 11.342 0 0 1 .46 1.908s.412 1.626-.758 1.94l-.803.2.093.423s.075.396.281.542l.271 1.144-1.49.336-.27-1.144s.135-.108.032-.596l-.862-3.75a.921.921 0 0 0-.282-.542zm2.169 3.404.341-.087c.455-.12.266-.786.266-.786a11.229 11.229 0 0 0-.31-1.252.499.499 0 0 0-.541-.352l-.304.076zM157.962 147.558l2.168-.705a1.084 1.084 0 0 1 1.306.575 4.043 4.043 0 0 1 .542 1.43s.265.819-.277 1.23l.06.18a.83.83 0 0 1 .845.644c.244.721.315.921.315.921s.13.407.352.472l.369 1.084-1.269.422a11.673 11.673 0 0 1-.482-1.219l-.314-.943s-.244-.607-.683-.46l-.217.076.401 1.203s.114.346.31.433l.373 1.111-1.441.488-.385-1.084s.13-.092 0-.542l-1.241-3.74a.672.672 0 0 0-.314-.444zm2.282 2.53.314-.102c.347-.125.293-.542.266-.64a2.943 2.943 0 0 0-.293-.802.477.477 0 0 0-.542-.27l-.325.113zM100.378 132.975l-1.626.959 2.06 3.046 8.166 1.208a49.134 49.134 0 0 1-1.474-3.051zM101.408 127.203l-2.85.65 2.096 4.173 6.303 1.919a65.041 65.041 0 0 1-1.82-4.726zM109.504 139.223l-8.78-1.268-1.305 1.409 2.06 2.027 9.087-.26c-.12-.2-.233-.401-.347-.602a61.1 61.1 0 0 1-.715-1.306zM168.768 132.975l1.626.959-2.06 3.046-8.166 1.208a49.134 49.134 0 0 0 1.474-3.051zM167.738 127.203l2.85.65-2.096 4.173-6.287 1.919a62.634 62.634 0 0 0 1.821-4.726zM159.642 139.223l8.785-1.268 1.306 1.409-2.065 2.027-9.088-.26c.12-.2.233-.401.347-.602.244-.433.482-.867.715-1.306zM111.466 142.653c-.038-.06-.076-.119-.109-.178l-6.053 1.387q3.506 1.403 7.159 2.46l-1.523-2.455zM156.575 146.36a75.868 75.868 0 0 0 7.283-2.498l-6.07-1.387-.167.27.504 1.122zM116.988 145.894a45.11 45.11 0 0 1-4.79-1.593l1.495 2.352c1.387.368 2.905.731 4.52 1.084zM156.851 144.3a44.405 44.405 0 0 1-4.796 1.594l-1.235 1.843a67.21 67.21 0 0 0 4.52-1.084zM152.83 93.485l-3.381-5.381a10.59 10.59 0 0 0 3.544-2.227 17.298 17.298 0 0 1-5.723.542c1.371-.38 5.647-2.417 6.948-4.677a22.88 22.88 0 0 1-5.56.688c-3.642 0-4.13-1.387-14.09-1.387s-10.46 1.387-14.09 1.387a22.88 22.88 0 0 1-5.544-.699c1.3 2.26 5.576 4.297 6.947 4.677a17.298 17.298 0 0 1-5.722-.542 10.59 10.59 0 0 0 3.538 2.227l-3.392 5.392-12.627 3.382v16.859c0 8.09 2.71 17.385 7.674 26.158.25.44.504.867.759 1.3l.628-1.403a66.244 66.244 0 0 1-3.837-7.782c-.265-.65-.541-1.3-.764-1.945a53.574 53.574 0 0 1-2.465-8.763 40.893 40.893 0 0 1-.743-7.587V97.826l12.21-3.252 17.428 10.042 17.428-10.058 12.063 3.252-29.491 16.994v2.39l29.632-17.097v10.188l-29.632 17.097v2.39l29.632-17.097v1.05a42.72 42.72 0 0 1-1.225 9.837l-28.407 16.393v2.39l27.637-15.955a62.662 62.662 0 0 1-5.82 13.38l.542 1.496c.271-.455.542-.916.808-1.382 5.012-8.773 7.722-18.067 7.722-26.158v-16.86ZM139.987 159.529q-2.574 2.238-5.42 4.335-2.844-2.075-5.419-4.335s-.872-.044-2.059-.141a84.23 84.23 0 0 0 6.736 5.468l.732.542.731-.542a83.06 83.06 0 0 0 6.736-5.468c-1.17.097-2.037.14-2.037.14zM142.745 147.655l-2.71 1.572c1.87-.13 3.68-.325 5.42-.542l3.452-1.989c-1.994.369-4.043.72-6.162.96z" class="cls-1" style="fill:#fff;stroke-width:.541917" transform="translate(-95.712 -78.241)"/><path d="M132.86 92.017c-3.793.959-4.373.932-6.329.254-1.956-.677-2.281-2.46-1.263-4.481zM136.275 92.017c3.793.959 4.373.932 6.33.254 1.956-.677 2.28-2.46 1.262-4.481zM164.064 97.788l-12.063-3.251-17.433 10.08-28.885 16.674a53.574 53.574 0 0 0 2.466 8.763c.244.645.499 1.295.764 1.945l25.655-14.805v-2.39zM139.987 159.529q-2.71.162-5.42.162-2.709 0-5.419-.162 2.57 2.238 5.42 4.335 2.85-2.092 5.419-4.335zM150.608 146.273c-.542.141-1.143.271-1.728.396l-3.523 2.032.71-.092.282-.043c.71-.103 1.42-.217 2.124-.336h.087c.287-.05.569-.109.85-.163zM134.568 142.345v-2.39l28.407-16.393a42.72 42.72 0 0 0 1.225-9.836v-1.051l-47.787 27.578a58.69 58.69 0 0 0 17.288 2.596zM125.545 147.558a63.502 63.502 0 0 1-7.11-1.285l1.187 1.756.964.184h.07c.683.12 1.372.228 2.06.331l.39.054c.163.027.33.044.499.065z" class="cls-2" style="fill:#d20a11;stroke-width:.541917" transform="translate(-95.712 -78.241)"/><path d="m117.15 94.558-12.209 3.252v15.9a40.893 40.893 0 0 0 .742 7.586l28.885-16.68zM134.568 127.382l29.632-17.097v-10.188l-55.276 31.902a66.244 66.244 0 0 0 3.837 7.782l.352-.791c1.04.46 2.168.878 3.311 1.263l18.144-10.481zM133.7 142.849h.835c7.858 0 15.174-1.274 20.761-3.593.217-.087.542-.255.764-.353l.342.857a62.662 62.662 0 0 0 5.803-13.37l-27.637 15.955zM134.535 148.105a73.435 73.435 0 0 1-8.99-.542l-1.94 1.127c.504.07 1.008.141 1.517.2h.25c.71.082 1.425.153 2.167.218.764.065 1.534.119 2.303.162h.054q2.33.13 4.699.13 2.368 0 4.698-.13h.044c.233 0 .46-.032.693-.049l2.737-1.582a72.351 72.351 0 0 1-8.232.466z" class="cls-3" style="fill:#03506b;stroke-width:.541917" transform="translate(-95.712 -78.241)"/><path d="M129.148 114.067c-.14-2.785-1.945-3.696-4.633-4.514-2.32-.715-3.463-1.328-3.555-3.094a2.417 2.417 0 0 1 2.4-2.71c2.293-.114 3.442 1.956 4.076 3.22l.59-.386-1.69-4.698c-.125 1.452-.802 1.528-.96 1.534a2.888 2.888 0 0 1-.91-.163 5.062 5.062 0 0 0-1.338-.163c-1.81.093-3.523 1.783-3.393 4.385.163 3.251 2.873 4.124 4.206 4.535 2.167.7 3.696 1.312 3.793 3.013.07 1.415-.91 3.008-2.596 3.09a13.765 13.765 0 0 1-5.516-.857 12.697 12.697 0 0 0 3.208-3.636l-.358-.347a11.223 11.223 0 0 1-4.059 3.441 11.527 11.527 0 0 1-4.146-3.44l-.374.384a12.036 12.036 0 0 0 3.252 3.593 10.166 10.166 0 0 1-2.254.33c-3.17.174-5.019-3.685-5.257-7.19-.108-1.578.049-3.507.585-4.65a3.17 3.17 0 0 1 2.596-2.033 3.875 3.875 0 0 1 2.71 1.127 7.587 7.587 0 0 1 1.653 2.125l.601-.38-1.8-4.676a1.837 1.837 0 0 1-.454 1.311.894.894 0 0 1-.472.211 2.395 2.395 0 0 1-.954-.135 4.422 4.422 0 0 0-1.577-.184c-3.116.216-5.186 4.487-4.877 8.865.336 4.964 3.447 7.208 6.265 7.31a8.432 8.432 0 0 0 4.47-1.083 22.42 22.42 0 0 0 1.827 1.306 1.837 1.837 0 0 1 1.82-.77 8.297 8.297 0 0 1 1.16.147 9.57 9.57 0 0 0 2.168.054c1.832-.087 3.918-1.967 3.793-4.872z" class="cls-1" style="fill:#fff;stroke-width:.541917" transform="translate(-95.712 -78.241)"/><path d="m82.02 141.6 2.81 3.03-1.84-3.73 3.56-1.59-3.93.46-.6-3.74-.59 3.74-3.94-.46 3.57 1.59-1.84 3.73zM90.65 136.62l2.81 3.03-1.84-3.73 3.56-1.59-3.94.46-.59-3.73-.59 3.73-3.94-.46 3.56 1.59-1.84 3.73zM99.28 131.64l2.8 3.03-1.84-3.73 3.57-1.59-3.94.46-.59-3.73-.6 3.73-3.93-.46 3.56 1.59-1.84 3.73zM107.9 126.66l2.81 3.03-1.84-3.73 3.56-1.59-3.93.46-.6-3.73-.59 3.73-3.94-.46 3.57 1.59-1.85 3.73zM116.53 121.68l2.81 3.03-1.84-3.73 3.56-1.59-3.94.46-.59-3.73-.59 3.73-3.94-.46 3.56 1.59-1.84 3.73zM125.16 116.7l2.81 3.03-1.85-3.73 3.57-1.59-3.94.46-.59-3.73-.6 3.73-3.93-.46 3.56 1.59-1.84 3.73zM133.78 111.73l2.81 3.02-1.84-3.73 3.56-1.59-3.93.46-.6-3.73-.59 3.73-3.94-.46 3.57 1.59-1.85 3.73zM142.41 106.75l2.81 3.02-1.84-3.72 3.56-1.6-3.94.46-.59-3.73-.6 3.73-3.93-.46 3.56 1.6-1.84 3.72zM151.04 101.77l2.8 3.03-1.84-3.73 3.56-1.59-3.93.45-.59-3.73-.6 3.73-3.93-.45 3.56 1.59-1.84 3.73zM159.66 96.79l2.81 3.03-1.84-3.73 3.56-1.59-3.93.45-.6-3.73-.59 3.73-3.94-.45 3.57 1.59-1.85 3.73zM168.29 91.81l2.81 3.03-1.85-3.73 3.57-1.59-3.94.46-.59-3.74-.6 3.74-3.93-.46 3.56 1.59-1.84 3.73z" class="cls-1" style="fill:#fff" transform="matrix(.54192 0 0 .54192 -26.175 -20.051)"/></svg>