<svg xmlns="http://www.w3.org/2000/svg" width="90.222916mm" height="77.704567mm" viewBox="0 0 90.222916 77.704567"><g transform="translate(-51.65 -65.47)"><path d="M139.345 104.321c0 .883-.965.945-1.316.98-.35.037-9.449 1.487-9.449 1.487.553.052 7.375.516 7.829.516 1.713 0 3.292 1.244 4.092 2.477 1.842 2.843 2.12 7.54-.986 10.646-.686.686-1.667 1.073-3.148 1.073h-4.85a38.702 38.702 0 0 1-69.51 0h-4.85c-1.482 0-2.462-.387-3.148-1.073-3.097-3.096-2.828-7.803-.986-10.646.8-1.233 2.379-2.477 4.092-2.477.454 0 7.276-.516 7.828-.516 0 0-9.097-1.445-9.448-1.486-.351-.041-1.316-.098-1.316-.98 0-.883.965-.945 1.316-.981.35-.036 9.448-1.486 9.448-1.486-.552-.052-7.374-.516-7.828-.516-1.713 0-3.292-1.244-4.092-2.477-1.842-2.844-2.12-7.54.986-10.646.686-.686 1.666-1.073 3.147-1.073h4.851a38.702 38.702 0 0 1 69.51 0h4.85c1.481 0 2.462.387 3.148 1.073 3.096 3.096 2.828 7.802.986 10.646-.8 1.233-2.38 2.477-4.092 2.477-.454 0-7.276.516-7.829.516 0 0 9.098 1.445 9.449 1.486.35.041 1.316.098 1.316.98z" class="cls-1" style="fill:#fff;stroke-width:.516033"/><path d="m132.827 104.321-20.64 2.58a8.737 8.737 0 0 1-.15.733c1.032.088 2.224.382 2.905 1.11a11.198 11.198 0 0 1 1.3 1.883 2.874 2.874 0 0 0 1.626 1.084 4 4 0 0 0 2.275-.237 5.893 5.893 0 0 1-1.063 1.403 3.411 3.411 0 0 1-2.621.867 4.732 4.732 0 0 1-2.296-.975 3.84 3.84 0 0 0-2.127-.707 5.346 5.346 0 0 0-2.038.366 13.4 13.4 0 0 1-.65.95c1.945 1.068 2.456 2.518 2.523 3.664a3.246 3.246 0 0 0 3.35 3.163 4.206 4.206 0 0 1-2.828 1.032 4.128 4.128 0 0 1-2.849-1.822 4 4 0 0 0-1.146-1.419 5.578 5.578 0 0 0-2.827-1.032 9.418 9.418 0 0 1-.842.516c1.383 1.755 1.29 3.293.893 4.376a3.256 3.256 0 0 0 1.842 4.227 4.175 4.175 0 0 1-3.008-.155 4.128 4.128 0 0 1-1.91-2.792 3.87 3.87 0 0 0-.515-1.755 5.558 5.558 0 0 0-2.22-2.064l-.355.057-2.689 12.431-2.688-12.43-.357-.058a5.49 5.49 0 0 0-2.218 2.064 3.865 3.865 0 0 0-.517 1.755 4.128 4.128 0 0 1-1.904 2.792 4.175 4.175 0 0 1-3.008.155 3.251 3.251 0 0 0 1.837-4.227c-.392-1.083-.516-2.621.898-4.376-.29-.17-.568-.345-.841-.516a5.563 5.563 0 0 0-2.828 1.032 3.942 3.942 0 0 0-1.146 1.42 4.128 4.128 0 0 1-2.853 1.821 4.21 4.21 0 0 1-2.828-1.032 3.251 3.251 0 0 0 3.354-3.163c.067-1.146.578-2.58 2.523-3.664a15.459 15.459 0 0 1-.655-.95 5.305 5.305 0 0 0-1.997-.366 3.829 3.829 0 0 0-2.1.691 4.732 4.732 0 0 1-2.286.98 3.411 3.411 0 0 1-2.622-.866 5.759 5.759 0 0 1-1.063-1.404 4 4 0 0 0 2.276.238 2.874 2.874 0 0 0 1.625-1.084 11.198 11.198 0 0 1 1.3-1.883c.677-.728 1.864-1.033 2.906-1.11a11.515 11.515 0 0 1-.15-.733l-20.682-2.57 20.672-2.58c.041-.247.093-.516.15-.732-1.032-.088-2.23-.382-2.906-1.11a11.198 11.198 0 0 1-1.3-1.883 2.874 2.874 0 0 0-1.625-1.084 4 4 0 0 0-2.276.237 5.857 5.857 0 0 1 1.063-1.403 3.411 3.411 0 0 1 2.632-.857 4.732 4.732 0 0 1 2.296.975 3.87 3.87 0 0 0 2.09.697 5.305 5.305 0 0 0 2.033-.366c.207-.326.428-.64.655-.95-1.945-1.068-2.456-2.518-2.523-3.664a3.251 3.251 0 0 0-3.354-3.163 4.21 4.21 0 0 1 2.828-1.032 4.128 4.128 0 0 1 2.853 1.821 3.942 3.942 0 0 0 1.146 1.42 5.563 5.563 0 0 0 2.828 1.032c.273-.186.552-.362.841-.516-1.388-1.755-1.29-3.293-.898-4.376a3.251 3.251 0 0 0-1.837-4.227 4.175 4.175 0 0 1 3.008.155 4.128 4.128 0 0 1 1.905 2.792 3.865 3.865 0 0 0 .516 1.754 5.49 5.49 0 0 0 2.219 2.065l.356-.057 2.688-12.431 2.689 12.43.356.058a5.558 5.558 0 0 0 2.219-2.065 3.87 3.87 0 0 0 .516-1.754 4.128 4.128 0 0 1 1.91-2.792 4.175 4.175 0 0 1 3.008-.155 3.256 3.256 0 0 0-1.843 4.227c.398 1.083.516 2.621-.892 4.376.289.17.567.345.84.516a5.578 5.578 0 0 0 2.829-1.032 4 4 0 0 0 1.145-1.42 4.128 4.128 0 0 1 2.849-1.821 4.206 4.206 0 0 1 2.828 1.032 3.246 3.246 0 0 0-3.35 3.163c-.067 1.146-.577 2.58-2.523 3.664.227.31.449.624.65.95a5.346 5.346 0 0 0 2.039.366 3.886 3.886 0 0 0 2.1-.692 4.732 4.732 0 0 1 2.296-.975 3.411 3.411 0 0 1 2.622.867 5.996 5.996 0 0 1 1.063 1.404 4 4 0 0 0-2.276-.238 2.874 2.874 0 0 0-1.626 1.084 11.198 11.198 0 0 1-1.3 1.884c-.681.727-1.863 1.032-2.905 1.109.057.243.108.485.15.733z" style="stroke-width:.516033"/><ellipse cx="96.663864" cy="104.32143" class="cls-2" rx="14.371511" ry="14.098014" style="fill:#ffed00;stroke-width:.516033"/><path d="M88.815 87.143a4.216 4.216 0 0 0-.325-3.68c1.455.604 1.692 2.121 1.821 3.164.104.836 1.074 2.275 2.256 2.91a15.481 15.481 0 0 0-2.854 1.1 3.447 3.447 0 0 1-.898-3.494zM82.664 91.632a4.226 4.226 0 0 0-1.744-3.256c1.548 0 2.384 1.285 2.915 2.193.423.723 1.868 1.667 3.2 1.79a15.533 15.533 0 0 0-2.193 2.127 3.442 3.442 0 0 1-2.178-2.854zM81.797 100.126a4.231 4.231 0 0 1-1.796-.433 4.087 4.087 0 0 1-1.496-1.62 3.906 3.906 0 0 0-1.146-1.348 3.772 3.772 0 0 0-1.584-.67 2.611 2.611 0 0 1 1.104-.238c1.548.16 1.95 1.074 3.447 1.548a4.577 4.577 0 0 0 2.663-.067 12.658 12.658 0 0 0-1.192 2.828zM104.76 87.143a4.216 4.216 0 0 1 .326-3.68c-1.456.604-1.693 2.121-1.822 3.164-.103.836-1.073 2.275-2.255 2.91a15.481 15.481 0 0 1 2.854 1.1 3.447 3.447 0 0 0 .897-3.494zM110.912 91.632a4.226 4.226 0 0 1 1.744-3.256c-1.574 0-2.384 1.285-2.916 2.193-.423.723-1.868 1.667-3.2 1.79a15.533 15.533 0 0 1 2.194 2.127 3.447 3.447 0 0 0 2.178-2.854zM96.788 88.975a16.363 16.363 0 0 1 1.821.103l-1.821-8.02-1.822 8.02a16.363 16.363 0 0 1 1.822-.103zM111.778 100.126a4.231 4.231 0 0 0 1.796-.433 4.087 4.087 0 0 0 1.497-1.62 3.85 3.85 0 0 1 1.145-1.348 3.772 3.772 0 0 1 1.585-.67 2.621 2.621 0 0 0-1.11-.238c-1.548.16-1.945 1.074-3.442 1.548a4.577 4.577 0 0 1-2.663-.067 12.658 12.658 0 0 1 1.192 2.828zM88.815 121.5a4.216 4.216 0 0 1-.325 3.68c1.455-.604 1.692-2.121 1.821-3.164.104-.836 1.074-2.276 2.256-2.91a15.481 15.481 0 0 1-2.854-1.1 3.447 3.447 0 0 0-.898 3.494zM82.664 117.01a4.226 4.226 0 0 1-1.744 3.257c1.548 0 2.384-1.285 2.915-2.193.423-.723 1.868-1.662 3.2-1.79a15.533 15.533 0 0 1-2.193-2.127 3.442 3.442 0 0 0-2.178 2.854zM81.167 104.321a12.42 12.42 0 0 0 .109 1.647l-12.973-1.647 12.978-1.646a12.42 12.42 0 0 0-.114 1.646zM81.797 108.517a4.231 4.231 0 0 0-1.796.433 4.087 4.087 0 0 0-1.496 1.62 3.906 3.906 0 0 1-1.146 1.347 3.772 3.772 0 0 1-1.584.671 2.611 2.611 0 0 0 1.104.238c1.548-.16 1.95-1.074 3.447-1.548a4.577 4.577 0 0 1 2.663.067 12.658 12.658 0 0 1-1.192-2.828zM104.76 121.5a4.216 4.216 0 0 0 .326 3.68c-1.456-.604-1.693-2.121-1.822-3.164-.103-.836-1.073-2.276-2.255-2.91a15.481 15.481 0 0 0 2.854-1.1 3.447 3.447 0 0 1 .897 3.494zM110.912 117.01a4.226 4.226 0 0 0 1.744 3.257c-1.574 0-2.384-1.285-2.916-2.193-.423-.723-1.868-1.662-3.2-1.79a15.533 15.533 0 0 0 2.194-2.127 3.447 3.447 0 0 1 2.178 2.854zM96.788 119.668a16.363 16.363 0 0 0 1.821-.103l-1.821 8.02-1.822-8.02a16.363 16.363 0 0 0 1.822.103zM125.273 104.321l-12.973 1.647a12.555 12.555 0 0 0 0-3.293zM111.778 108.517a4.231 4.231 0 0 1 1.796.433 4.087 4.087 0 0 1 1.497 1.62 3.85 3.85 0 0 0 1.145 1.347 3.772 3.772 0 0 0 1.585.671 2.621 2.621 0 0 1-1.11.238c-1.548-.16-1.945-1.074-3.442-1.548a4.577 4.577 0 0 0-2.663.067 12.658 12.658 0 0 0 1.192-2.828z" class="cls-3" style="fill:#d51130;stroke-width:.516033"/><path d="M96.844 95.637c.93-.671 3.54-1.868 4.433-1.796 2.353.19 4.557 2.693 5.032 4.706a4.835 4.835 0 0 1-.217 3.272 6.6 6.6 0 0 1-5.372 3.576 3.38 3.38 0 0 1 2.472 1.945 11.224 11.224 0 0 1 .63 1.672c.345 1.233 1.073 1.399 1.645 1.213a2.735 2.735 0 0 0 1.275-1.321l.516.387c-.413 1.992-1.156 3.917-1.884 4.722a2.28 2.28 0 0 1-1.646.866 3.385 3.385 0 0 1-2.363-.949 4.794 4.794 0 0 1-1.254-2.472 29.8 29.8 0 0 0-1.084-4.33c-.222-.515-.48-1.346-1.45-1.28v4.795a3.205 3.205 0 0 0 .8-.645l.717.542a57.316 57.316 0 0 1-4.912 4.05 1.337 1.337 0 0 1-.934.15c-1.172-.258-1.646-1.342-2.642-1.43a2.487 2.487 0 0 0-2.493 1.213l-.562-.392a5.976 5.976 0 0 1 .392-.996 5.021 5.021 0 0 1 2.73-2.838 5.614 5.614 0 0 1 2.791-.253v-4.484h-1.212v-1.889h1.207v-1.986c0-.486-.655-.697-1.14-.738v-.47l.516-.026c1.455-.093 3.597-1.806 4.01-4.814z" style="stroke-width:.516033"/><path d="M95.24 110.622c-.15-.067-.356-.16-.604-.248a1.548 1.548 0 0 0 1.032-1.264v-8.298l.851-.707v10.837a2.859 2.859 0 0 1-1.28-.32zM99.425 103.393a4.938 4.938 0 0 1-1.843.165v-4.211a19.909 19.909 0 0 1 2.642-1.414c.269-.119.775.377.909.562.413.563 1.367 2.065.454 3.401a3.695 3.695 0 0 1-2.162 1.497z" class="cls-2" style="fill:#ffed00;stroke-width:.516033"/><path d="M90.89 102.892a4.448 4.448 0 0 0 1.31-.15v-.738a3.896 3.896 0 0 1-1.192.15c-.78 0-2.291-.702-1.95-2.023a1.26 1.26 0 0 1 1.31-.758 7.555 7.555 0 0 0 1.822.294 2.931 2.931 0 0 0 2.219-.914 4.711 4.711 0 0 0 1.496-2.73 2.802 2.802 0 0 1-2.859.243c-1.109-.413-1.713-1.192-2.972-1.192a3.215 3.215 0 0 0-2.12 1.032 4.381 4.381 0 0 0 .175 5.61 3.932 3.932 0 0 0 2.76 1.176z" style="stroke-width:.516033"/><path d="M96.762 78.236c12.643 0 21.756 7.86 25.095 18.974a3.917 3.917 0 0 0 1.295 2.065c.609.433.696.562 1.821.516 1.125-.047 7.147-.65 8.923-.826a3.963 3.963 0 0 1-1.647-2.379 36.246 36.246 0 0 0-70.975 0 3.963 3.963 0 0 1-1.666 2.4c1.775.175 7.797.779 8.922.825 1.125.047 1.212-.087 1.821-.516a3.917 3.917 0 0 0 1.296-2.064c3.359-11.136 12.472-18.995 25.115-18.995ZM60.712 94.795l.062-.237h-4.221c.278-1.3-.078-3.576-.444-4.593-.083-.232-.227-.185-.372-.046-2.183 2.183-1.935 5.61-.66 7.58.48.744 1.367 1.368 2.064 1.368a3.065 3.065 0 0 0 1.925-.692c1.228-1.078 1.476-2.75 1.646-3.38z" style="stroke-width:.516033"/><path d="M57.156 89.563c.346.826.697 2.885.516 3.793h3.463a37.892 37.892 0 0 1 1.373-3.793zM132.838 94.795c0-.082-.047-.16-.067-.237h4.241c-.283-1.3.078-3.576.444-4.593.083-.232.227-.185.367-.046 2.182 2.183 1.94 5.61.66 7.58-.48.744-1.362 1.368-2.033 1.368a3.096 3.096 0 0 1-1.93-.692c-1.264-1.078-1.517-2.75-1.682-3.38z" style="stroke-width:.516033"/><path d="M136.388 89.563a9.005 9.005 0 0 0-.516 3.793h-3.463a39.218 39.218 0 0 0-1.377-3.793zM96.762 130.35c12.643 0 21.756-7.86 25.095-18.974a3.917 3.917 0 0 1 1.295-2.065c.609-.433.696-.562 1.821-.516 1.125.047 7.147.65 8.923.826a3.963 3.963 0 0 0-1.647 2.379 36.246 36.246 0 0 1-70.975 0 3.963 3.963 0 0 0-1.666-2.4c1.775-.175 7.797-.779 8.922-.825 1.125-.047 1.212.087 1.821.516a3.917 3.917 0 0 1 1.296 2.064c3.359 11.136 12.472 18.995 25.115 18.995zM60.712 113.79l.062.238h-4.221c.278 1.3-.078 3.576-.444 4.593-.083.232-.227.185-.372.046-2.183-2.183-1.935-5.614-.66-7.586.48-.738 1.367-1.362 2.064-1.362a3.04 3.04 0 0 1 1.925.692c1.228 1.057 1.476 2.75 1.646 3.38z" style="stroke-width:.516033"/><path d="M57.156 119.023c.346-.825.697-2.884.516-3.793h3.463a37.892 37.892 0 0 0 1.373 3.793zM132.838 113.79c0 .083-.047.16-.067.238h4.241c-.283 1.3.078 3.576.444 4.593.083.232.227.185.367.046 2.182-2.183 1.94-5.614.66-7.586-.48-.738-1.362-1.362-2.033-1.362a3.04 3.04 0 0 0-1.93.692c-1.264 1.057-1.517 2.75-1.682 3.38z" style="stroke-width:.516033"/><path d="M136.388 119.023a9.005 9.005 0 0 1-.516-3.793h-3.463a39.218 39.218 0 0 1-1.377 3.793z" style="stroke-width:.516033"/><path d="M71.223 90.683v.025a.346.346 0 0 0 .073.362l.108.129a.304.304 0 0 0 .263.124.279.279 0 0 0 .222-.155l1.466-2.328a.33.33 0 0 0 0-.335l-.13-.165a.32.32 0 0 0-.232-.134.304.304 0 0 0-.247.113c-.279.274-.305.279-.552.124l-1.032-.64h1.92l.19-.026c.516-.067.826-.118 1.032-.459l.805-1.285.093-.155-.113-.134-.243-.155a.573.573 0 0 0-.449 0l-.155.042c-.402.077-2.095.268-3.354.335l-.516-1.548a2.802 2.802 0 0 1-.134-.903c0-.227 0-.423-.176-.516l-.232-.145-.155-.098-.093.155-.624.996-.041.072v.078l1.011 2.91-1.068-.665a.356.356 0 0 1-.18-.46.346.346 0 0 0-.073-.36l-.108-.13a.32.32 0 0 0-.258-.129.31.31 0 0 0-.227.155l-1.471 2.358a.33.33 0 0 0-.026.336l.13.16a.294.294 0 0 0 .48 0c.278-.269.304-.28.551-.12l3.35 2.065a.35.35 0 0 1 .175.454zM82.457 79.851l-.046-.18a.3.3 0 0 0-.16-.176.34.34 0 0 0-.268 0c-.258.114-.351.098-.712-.124a52.59 52.59 0 0 1-4.283-2.58.428.428 0 0 0-.547-.072l-1.476 1.135a.346.346 0 0 0-.155.413l.062.155v-.031a.315.315 0 0 0 .144.222.439.439 0 0 0 .377 0 .516.516 0 0 1 .243-.052h.04c.135 0 .28.047.388.361l1.099 3.582c.134.459.119.474-.062.707a.428.428 0 0 0-.113.423l.04.124a.325.325 0 0 0 .207.232.397.397 0 0 0 .356-.13l.042-.03 1.109-.852a.356.356 0 0 0 .103-.397v-.114c-.057-.278-.335-.227-.428-.211-.093.015-.206.041-.263-.114 0 0-.134-.485-.201-.717l1.212-.944.516.299c.18.124.16.175.103.32a.516.516 0 0 0-.04.366l.056.202a.289.289 0 0 0 .48.144l2.002-1.548a.34.34 0 0 0 .175-.413zm-5.196-.562 1.032.645-.697.516zM86.354 73.927h-.093c-.81-.15-1.177-.232-1.296-.686a.542.542 0 0 1 .3-.614.593.593 0 0 1 .655.093l.057.051c.31.263.454.367.593.34a.206.206 0 0 0 .14-.113l.221-.33V72.612a.3.3 0 0 0 0-.202l-.237-.599c-.088-.294-.418-.283-.655-.278a3.282 3.282 0 0 0-1.213.32c-1.796.779-2.064 1.868-1.754 2.626a1.873 1.873 0 0 0 1.604 1.032l.191.042.516.098c.816.15 1.187.232 1.358.67a.836.836 0 0 1-.547 1.033.743.743 0 0 1-.697-.13c-.124-.092-.237-.2-.33-.283-.196-.176-.336-.3-.48-.18l-.269.262a.33.33 0 0 0 0 .408v.046l.33.764c.145.33.284.32.739.268a5.924 5.924 0 0 0 1.403-.428 3.096 3.096 0 0 0 1.796-1.548 1.693 1.693 0 0 0-.083-1.357c-.335-.754-1.083-1.032-2.25-1.249zM99.41 75.511c-.378-.087-.398-.108-.403-.402l-.067-3.943a.346.346 0 0 1 .283-.392.34.34 0 0 0 .264-.258l.051-.16a.31.31 0 0 0-.036-.284.3.3 0 0 0-.253-.108l-2.776.052a.325.325 0 0 0-.3.16v.03l-.066.197a.325.325 0 0 0 0 .268.315.315 0 0 0 .232.144c.376.088.397.109.402.403v1.244h-1.579v-1.244a.35.35 0 0 1 .29-.397.356.356 0 0 0 .268-.258l.046-.166a.31.31 0 0 0-.036-.283.284.284 0 0 0-.253-.104l-2.776.047a.315.315 0 0 0-.294.16l-.067.201a.294.294 0 0 0 0 .263.3.3 0 0 0 .227.15c.381.082.402.103.407.397l.062 3.943a.346.346 0 0 1-.284.392.346.346 0 0 0-.268.258l-.046.16a.304.304 0 0 0 .036.289.289.289 0 0 0 .247.103l2.782-.046a.33.33 0 0 0 .294-.16l.062-.196a.304.304 0 0 0 0-.269.315.315 0 0 0-.232-.144c-.377-.088-.398-.103-.403-.398l-.01-1.728h1.579l.03 1.739a.35.35 0 0 1-.283.397.335.335 0 0 0-.263.253l-.052.165a.284.284 0 0 0 .29.392l2.775-.051a.325.325 0 0 0 .3-.16l.062-.202a.294.294 0 0 0 0-.263.289.289 0 0 0-.243-.19zM107.759 71.775l-2.668-.769a.32.32 0 0 0-.33.067l-.12.17a.3.3 0 0 0-.066.259.294.294 0 0 0 .175.206c.34.196.351.217.268.516l-1.088 3.788a.34.34 0 0 1-.387.294h-.073a.361.361 0 0 0-.33.17l-.093.14a.294.294 0 0 0-.046.283.289.289 0 0 0 .206.176l2.673.769a.33.33 0 0 0 .33-.067l.124-.17a.304.304 0 0 0 .062-.259.315.315 0 0 0-.175-.206c-.336-.19-.351-.217-.269-.516l1.13-3.783a.35.35 0 0 1 .388-.294h.03a.35.35 0 0 0 .33-.165l.094-.144a.294.294 0 0 0 .046-.284.284.284 0 0 0-.211-.18zM119.39 79.397a.444.444 0 0 0 .418 0l.186-.15a.263.263 0 0 0 .098-.211.397.397 0 0 0-.201-.274l-1.316-.913a.32.32 0 0 0-.367 0l-.134.072c-.237.14-.103.377-.051.465l.046.087c.077.16.119.258-.062.408l-1.925 1.62.98-3.127a.609.609 0 0 1 .037-.103c.057-.16.124-.356-.036-.464l-.883-.615c-.16-.108-.32 0-.474.13l-.073.056-2.73 2.018.888-2.456c.067-.191.14-.191.351-.17a.516.516 0 0 0 .408-.063l.18-.139a.237.237 0 0 0 .103-.201.392.392 0 0 0-.2-.294l-2.106-1.46a.279.279 0 0 0-.377 0l-.165.113c-.212.15-.093.387-.052.475l.026.046c.093.18.134.258 0 .609l-1.682 4.376c-.062.19-.067.516.119.66l.95.661c.247.17.515-.031.639-.13l2.42-1.81-.96 2.822c-.062.186-.067.516.119.656l1.032.717c.268.186.552-.052.645-.129l3.566-3.096c.273-.263.361-.253.583-.186zM124.911 84.913l-1.057-1.548a.356.356 0 0 0-.408-.175l-.16.057h.031a.3.3 0 0 0-.227.139.428.428 0 0 0 0 .372.547.547 0 0 1 .036.247.232.232 0 0 1 0 .041c0 .13-.062.274-.382.367l-3.612.929c-.464.108-.48.098-.702-.093a.413.413 0 0 0-.423-.134l-.124.036a.32.32 0 0 0-.237.19.392.392 0 0 0 .108.362l.031.046.795 1.146a.356.356 0 0 0 .392.124h.114c.278-.047.242-.325.227-.418-.016-.093-.031-.207.129-.258l.727-.165.883 1.274-.325.516c-.135.17-.186.145-.32.083a.516.516 0 0 0-.372-.057l-.196.047a.31.31 0 0 0-.227.185.33.33 0 0 0 .057.29l1.44 2.063a.34.34 0 0 0 .412.186l.186-.036a.3.3 0 0 0 .186-.15.35.35 0 0 0 0-.268c-.103-.263-.083-.356.16-.707a52.159 52.159 0 0 1 2.755-4.128.413.413 0 0 0 .104-.563zm-2.58.687-.696 1.032-.516-.723zM74.227 120.922a.325.325 0 0 0-.377-.077l-.19.077a.268.268 0 0 0-.166.16.397.397 0 0 0 .062.325c.17.274.155.408-.067.61l-2.854 2.61a.346.346 0 0 1-.485.047.335.335 0 0 0-.366-.031l-.155.072a.315.315 0 0 0-.191.217.304.304 0 0 0 .088.258l1.873 2.064a.325.325 0 0 0 .32.113l.19-.082a.31.31 0 0 0 .192-.186.32.32 0 0 0-.047-.268c-.186-.34-.186-.367.031-.568l.94-.908-.713 2.482v.031a.444.444 0 0 0 .062.46l1.26 1.377.118.13.134-.12.253-.232.077-.072v-.103c-.077-.32.052-1.28.486-2.704a1.92 1.92 0 0 0 2.208-.387c.8-.749.434-1.9-.067-2.446zm-.516 3.819 1.501-1.373.269.29c.185.206.335.515-.202 1.031a1.388 1.388 0 0 1-.975.46.552.552 0 0 1-.408-.197zM85.925 130.268a.439.439 0 0 0-.237-.284l-3.845-1.997a.335.335 0 0 0-.376.056l-.155.14a.279.279 0 0 0-.098.206.387.387 0 0 0 .165.284c.258.201.289.33.15.599l-1.982 3.818a.738.738 0 0 0-.119.573c.093.279.398.439 1.146.826h.046l2.348 1.218a.635.635 0 0 0 .516.082.32.32 0 0 0 .202-.165l.423-.82a.258.258 0 0 0-.047-.31l-.15-.15c-.128-.124-.278-.036-.381.026a.888.888 0 0 1-.94.052l-.613-.32c-.274-.145-.398-.207-.073-.831l.604-1.166 1.264.655a.485.485 0 0 0 .444.031l.356-.222a.248.248 0 0 0 .145-.217.3.3 0 0 0-.186-.263l-1.6-.825.681-1.306.95.516c.217.114.258.325.289.573a.403.403 0 0 0 .119.315.232.232 0 0 0 .175.036l.201-.042a.284.284 0 0 0 .191-.144l.356-.681a.33.33 0 0 0 .031-.263zM96.246 132.337l-1.548-.217a.289.289 0 0 0-.294.13l-.098.144c-.155.227.062.381.154.449l.093.067c.093.082.119.103 0 .273l-1.259 1.636-.66-1.785c0-.222.036-.274.067-.3a.516.516 0 0 1 .139-.082.397.397 0 0 0 .222-.186l.093-.196a.263.263 0 0 0-.212-.387l-2.508-.346a.3.3 0 0 0-.345.16l-.098.175a.248.248 0 0 0-.031.202.418.418 0 0 0 .237.258c.113.077.227.16.372.588 0 0 .825 2.492.939 2.828l-.155 1.114a.35.35 0 0 1-.346.346h-.026a.356.356 0 0 0-.304.217l-.072.15a.304.304 0 0 0 0 .289.289.289 0 0 0 .232.144l2.75.377a.32.32 0 0 0 .315-.109l.088-.175a.32.32 0 0 0 .036-.279.31.31 0 0 0-.206-.175c-.362-.145-.377-.17-.336-.46l.119-.882a2.131 2.131 0 0 1 .304-.697l1.502-1.991c.258-.382.413-.424.516-.46h.057a.516.516 0 0 0 .356-.211l.067-.165a.294.294 0 0 0 0-.253.279.279 0 0 0-.16-.191zM103.723 133.663l-.088-.031c-.763-.315-1.099-.47-1.124-.94a.542.542 0 0 1 .418-.515.593.593 0 0 1 .619.227l.046.062c.253.32.367.454.516.449a.201.201 0 0 0 .165-.078l.284-.278.026-.026a.289.289 0 0 0 .036-.201l-.119-.66c0-.305-.345-.362-.583-.403a3.055 3.055 0 0 0-1.249.067c-1.92.392-2.425 1.403-2.26 2.213.165.81.836 1.12 1.368 1.347l.175.078c.176.077.336.14.516.201.77.315 1.115.47 1.192.934a.83.83 0 0 1-.753.913.717.717 0 0 1-.65-.268 4.257 4.257 0 0 1-.269-.346c-.155-.206-.263-.36-.433-.273l-.315.201a.33.33 0 0 0-.088.397.3.3 0 0 1 0 .052l.17.815c.073.356.212.372.666.413a5.759 5.759 0 0 0 1.466-.134 3.096 3.096 0 0 0 2.064-1.177 1.672 1.672 0 0 0 .196-1.341c-.217-.826-.893-1.249-1.992-1.698zM111.252 127.92a3.339 3.339 0 0 0-1.414 4.608 3.19 3.19 0 0 0 4.376 1.259 3.375 3.375 0 0 0 1.368-4.68 3.096 3.096 0 0 0-4.33-1.187zm2.699 4.917a.764.764 0 0 1-.63.124c-.356-.082-.928-.444-1.64-1.703-.517-.903-.708-2.064-.135-2.404a.857.857 0 0 1 .666-.083c.48.134 1.001.66 1.465 1.481.537.955.795 2.219.274 2.585zM123.43 123.544a.243.243 0 0 0-.31 0l-.18.113c-.144.098-.093.258-.057.377a.888.888 0 0 1-.154.929l-.45.516c-.108.129-.19.19-.268.201-.077.01-.294-.093-.557-.315l-2.668-2.244a.35.35 0 0 1-.113-.475.356.356 0 0 0 0-.372l-.093-.14a.3.3 0 0 0-.238-.16.294.294 0 0 0-.242.12l-1.79 2.126a.33.33 0 0 0-.073.33l.108.18a.304.304 0 0 0 .207.166.315.315 0 0 0 .263-.078c.315-.232.34-.232.568-.046l3.013 2.539a.35.35 0 0 1 .114.474.366.366 0 0 0 0 .372l.093.145a.315.315 0 0 0 .237.16.284.284 0 0 0 .243-.124l2.972-3.535c.273-.325.211-.573.072-.692z" class="cls-2" style="fill:#ffed00;stroke-width:.516033"/></g></svg>