<svg xmlns="http://www.w3.org/2000/svg" width="81.154579mm" height="86.254112mm" viewBox="0 0 81.154579 86.254112"><path d="m108.727 84.495 1.398-2.774-3.007.773a7.153 7.153 0 0 1-1.815.258 19.715 19.715 0 0 0 1.712-6.91l.067-2.95-2.336 1.805a26.899 26.899 0 0 1-5.889 3.326v-.433l-.3-.382-.515-.624-.289-.35v-6.58l-.603-.423-6.22-4.322-.969-.675-.83.82-1.155 1.15c-3.017 3.022-10.525 1.877-16.544-.202l-1.444-.515-.464-.16-.464.16-1.444.515c-6.018 2.063-13.526 3.224-16.543.202l-1.135-1.15-.83-.836-.97.676-6.229 4.337-.603.423v6.595l-.29.35c-.087.11-.231.29-.515.625l-.304.382v.433a26.899 26.899 0 0 1-5.848-3.342l-2.336-1.805.067 2.95a19.715 19.715 0 0 0 1.712 6.91 7.153 7.153 0 0 1-1.815-.258l-3.007-.773 1.398 2.774c.088.17 2.063 3.93 7.89 6.627a14.218 14.218 0 0 0-2.181 3.718l-.196-.14-1.93-1.371-.272 2.362-.372 3.27c0 .242-.046.479-.062.716l-.603-.14-.082 1.687-.12 2.331v.243a8.607 8.607 0 0 0 .083 1.14V108.623l-1.97-.443.676 2.295.933 3.182a15.754 15.754 0 0 0 .774 1.98h-1.083l.65 1.851.897 2.579a10.505 10.505 0 0 0 1.305 2.49l-.408.037.686 1.763.98 2.44a11.505 11.505 0 0 0 4.383 5.218l-.665.413-1.408.876 1.099 1.248 1.547 1.733a10.69 10.69 0 0 0 6.095 3.265l-.03.046-1.434 2.217-1.032 1.6 1.81.54 2.538.722a14.64 14.64 0 0 0 7.312.067 15.414 15.414 0 0 0-.175 2.31l-.031 1.775v1.217l1.202.196c4.037.66 6.188-.253 7.023-.733a10.144 10.144 0 0 0 5.338-5.636 10.144 10.144 0 0 0 5.368 5.61c.82.48 2.996 1.393 7.024.733l1.201-.196v-1.217l-.036-1.795a15.899 15.899 0 0 0-.165-2.29 14.62 14.62 0 0 0 7.308-.066l2.506-.696 1.836-.516-1.032-1.599-1.433-2.217-.031-.047a10.69 10.69 0 0 0 6.095-3.264l1.522-1.733 1.098-1.248-1.408-.876-.665-.413a11.505 11.505 0 0 0 4.383-5.219l.98-2.465.701-1.763-.407-.037a10.376 10.376 0 0 0 1.305-2.485l.897-2.579.65-1.851h-1.083a15.306 15.306 0 0 0 .773-1.985l.934-3.177.675-2.295-1.97.444v-3.688a8.607 8.607 0 0 0 .083-1.14 2.578 2.578 0 0 0 0-.267l-.114-2.306-.082-1.686-.603.14c0-.238-.037-.475-.062-.717l-.372-3.27-.294-2.367-1.939 1.372-.196.139a14.218 14.218 0 0 0-2.18-3.718c5.863-2.697 7.812-6.472 7.925-6.627z" class="cls-1" style="fill:#fff;stroke-width:.515691" transform="translate(-28.97 -64.218)"/><path d="M69.076 139.68c-.274 2.918-1.274 5.25-3.038 6.879a9.597 9.597 0 0 1-6.817 2.346l-1.79-.16v-1.79a13.485 13.485 0 0 1 .758-4.548h-.046c-3.156 1.62-6.807 1.393-8.9.815l-2.543-.717 1.418-2.212a18.405 18.405 0 0 1 1.599-2.11 9.432 9.432 0 0 1-7.767-2.913l-1.521-1.727 1.95-1.192a5.58 5.58 0 0 1 .969-.562 9.68 9.68 0 0 1-6.065-5.574l-.995-2.47s.686-.037 1.34-.104a9.901 9.901 0 0 1-2.903-4.125l-.897-2.532s.722-.047 1.46-.047a17.75 17.75 0 0 1-1.81-3.738l-.898-3.182 1.687.387a8.994 8.994 0 0 1-.372-2.26v-2.505a1.985 1.985 0 0 0 .191.067 7.013 7.013 0 0 1-.253-1.96v-.16l.098-2.336.753.144a6.792 6.792 0 0 1-.062-1.083 8.978 8.978 0 0 1 .062-1.227l.377-3.27s1.031.712 1.83 1.259c.243-1.62 1.032-3.558 2.95-5.714h-.057l.872-.8c-6.91-2.516-9.025-6.734-9.025-6.734 2.966.768 4.244-.155 4.244-.155a18.312 18.312 0 0 1-2.392-7.875 29.425 29.425 0 0 0 8.204 4.214v-1.96l.454-.598.578-.702v-6.363l6.224-4.363 1.13 1.212c4.398 4.347 14.882 1.186 17.997.119l.805-.3.665-.216 1.444.516c3.135 1.067 13.588 4.228 17.977-.12l1.165-1.211 6.225 4.363v6.363c.185.248.402.47.593.712l.433.567v1.98a29.467 29.467 0 0 0 8.153-4.223 18.415 18.415 0 0 1-2.377 7.875s1.289.923 4.234.154c0 0-2.11 4.219-9.03 6.735l.861.825c1.877 2.156 2.687 4.095 2.903 5.714.815-.546 1.852-1.258 1.852-1.258l.392 3.27c.025.407.077.83.077 1.227 0 .397-.052.727-.077 1.083l.753-.145.098 2.337v.16a7.013 7.013 0 0 1-.253 1.96 1.985 1.985 0 0 0 .19-.068v2.506a8.994 8.994 0 0 1-.37 2.26l1.696-.388-.944 3.182a15.533 15.533 0 0 1-1.748 3.739c.722 0 1.45.046 1.45.046l-.898 2.532a10.16 10.16 0 0 1-2.919 4.126c.691.067 1.346.103 1.346.103l-.975 2.47a9.886 9.886 0 0 1-6.085 5.575 7.926 7.926 0 0 1 2.677 2.109 13.506 13.506 0 0 1-3.662 3.197 9.638 9.638 0 0 1-5.373 1.088 19.679 19.679 0 0 1 1.547 2.11l1.47 2.217-2.579.712a13.13 13.13 0 0 1-8.906-.83 13.485 13.485 0 0 1 .789 4.548v1.79l-1.79.16a9.592 9.592 0 0 1-6.843-2.347c-1.763-1.63-2.764-3.96-3.032-6.88a2.011 2.011 0 0 1-.459-.056 2.48 2.48 0 0 1-.47.056z" style="stroke-width:.515691" transform="translate(-28.97 -64.218)"/><path d="M69.535 70.804c.299 0 3.094 0 6.766.381a45.706 45.706 0 0 1-6.106-1.645l-.66-.232-.707.237A45.567 45.567 0 0 1 62.8 71.18c3.666-.371 6.43-.376 6.735-.376zM86.49 73.083a12.562 12.562 0 0 0 3.74-1.547l.221-.134 1.032.722.68.448v2.945a14.3 14.3 0 0 1 1.826 1.305v-5.224l-3.64-2.537c-2.543 2.336-6.298 2.882-10 2.65a48 48 0 0 1 6.142 1.372zM46.844 75.48v-2.933l.64-.423 1.083-.753.211.134a12.495 12.495 0 0 0 3.75 1.578 48.356 48.356 0 0 1 6.033-1.356c-3.662.216-7.37-.34-9.88-2.666l-3.657 2.537v5.182a13.723 13.723 0 0 1 1.82-1.3zM92.179 91.06v1.269c0 2.903-.557 28.512-19.921 32.787a27.82 27.82 0 0 1-2.677.439h-.088a26.115 26.115 0 0 1-2.712-.439c-8.37-1.851-14.264-7.812-17.477-17.724a52.76 52.76 0 0 1-2.46-14.883V91.06c-.582-.144-1.191-.294-1.82-.47v1.883a53.833 53.833 0 0 0 2.49 15.383c3.456 10.623 9.799 17.018 18.885 19.04a21.561 21.561 0 0 0 3.136.515 20.947 20.947 0 0 0 3.135-.516c9.06-2.021 15.43-8.416 18.859-19.039a53.792 53.792 0 0 0 2.475-15.373v-1.897c-.629.175-1.263.33-1.825.474z" class="cls-1" style="fill:#fff;stroke-width:.515691" transform="translate(-28.97 -64.218)"/><path d="M89.41 105.943h-2.156v5.672a37.847 37.847 0 0 0 2.156-5.672zM77.353 122.46a20.38 20.38 0 0 0 4.156-2.913v-13.604h-4.156zM71.597 105.943h-4.161v18.524c.675.134 1.377.237 2.094.32a30.106 30.106 0 0 0 2.062-.315zM51.81 105.943h-2.15c.119.402.242.804.371 1.212a38.161 38.161 0 0 0 1.78 4.497zM57.535 119.573a20.035 20.035 0 0 0 4.166 2.908v-16.538h-4.166zM51.264 73.495a13.176 13.176 0 0 1-2.646-1.222c-.252.165-.696.475-.696.475l-.289.2v2.09a24.098 24.098 0 0 1 3.63-1.543zM91.41 75.053v-2.094c-.144-.103-.33-.222-.33-.222s-.423-.294-.665-.453a13 13 0 0 1-2.64 1.211 24.712 24.712 0 0 1 3.635 1.558zM88.904 91.756a2.367 2.367 0 0 1-.67.108V84.28l.067-.13a11.51 11.51 0 0 1 1.17-1.882c-7.828-3.372-19.462-3.383-19.936-3.383-.475 0-12.109 0-19.942 3.383a11.118 11.118 0 0 1 1.16 1.867l.062.13V91.9c-.299-.052-.454-.114-.686-.145-.686-.129-1.547-.299-2.485-.516v1.274c0 .093 0 .903.087 2.197h43.612a41.72 41.72 0 0 0 .078-2.377v-1.099c-.965.217-1.826.392-2.517.521z" class="cls-2" style="fill:#3ea3dc;stroke-width:.515691" transform="translate(-28.97 -64.218)"/><path d="M94.917 78.658v6.461c-6.075-6.941-24.578-6.962-25.382-6.962-.805 0-19.313 0-25.393 6.962v-6.461c5.673-7.127 25.197-7.117 25.393-7.117.196 0 19.7-.01 25.382 7.117z" class="cls-2" style="fill:#3ea3dc;stroke-width:.515691" transform="translate(-28.97 -64.218)"/><path d="m100.652 84.5-.062-.098.072-.098a37.223 37.223 0 0 0 3.094-5.636c-1.83 1.748-5.214 3.094-8.39 4.1v3.243s-.516.124-.547.124a10.65 10.65 0 0 0-5.673 4.863c3.729-.743 11.346-2.578 14.44-5.673-1.047.207-2.243.16-2.934-.825zM35.417 85.33c3.094 3.064 10.71 4.91 14.439 5.673a10.52 10.52 0 0 0-5.673-4.858l-.567-.123-.03-3.25c-3.152-.974-6.514-2.346-8.35-4.125a37.646 37.646 0 0 0 3.094 5.642l.072.098-.072.098c-.531.82-1.552 1.098-2.913.846z" class="cls-2" style="fill:#3ea3dc;stroke-width:.515691" transform="translate(-28.97 -64.218)"/><path d="M85.16 88.26c-.242-.098-.546-.32 0-.516a1.434 1.434 0 0 0 1.202-.753 2.548 2.548 0 0 0 .103-.83c-.077-.108.201-.614.16-.913-.041-.299-.557-.516-.84-.67-.284-.155-.253-.516-.398-.655a1.774 1.774 0 0 0-1.078-.35c-.464-.058-.438.582-.567.84-.129.258-.098.062-.423.546a1.97 1.97 0 0 0-.139.444c-.268.268-.407-.325-.449-.64a3.785 3.785 0 0 1 .042-.376c.03-.19.216-1.511-.965-1.913-1.18-.403-1.186.634-1.207.866-.02.232-.278.175-.654.31-.377.134-.377.623-.243.83.134.206-.428.856-.237 1.361.057.186.119.284.227.32.268.387.046.371-.124.31a.237.237 0 0 0-.392.035c-.345.485-.371-.381-.371-.381s-.077-.753-.67-.124a3.914 3.914 0 0 0 .072-.67c-.036-.104.273-.624.196-.918-.078-.294-.516-.516-.79-.702-.273-.185-.242-.515-.396-.675a1.887 1.887 0 0 0-1.032-.382c-.428-.077-.428.552-.598.83-.17.279-.108 0-.438.516a.748.748 0 0 0-.155.397c-.273.289-.407-.314-.444-.665 0-.15.042-.263.042-.346.067-.206.304-1.505-.887-1.964-1.192-.46-1.176.588-1.202.799-.026.211-.31.186-.69.289a.619.619 0 0 0-.28.846c.12.21-.464.825-.298 1.335a1.753 1.753 0 0 0 .216.35c.258.377.036.346-.124.28a.227.227 0 0 0-.386.035c-.372.465-.372-.417-.372-.417s-.036-.609-.484-.3a2.501 2.501 0 0 0-.764-.799c-.34-.258-.655.34-.887.475-.232.134-.093 0-.629.294a1.031 1.031 0 0 0-.35.31c-.361.102-.186-.46-.078-.805.077-.114.16-.207.212-.29.134-.144.912-1.221.082-2.155-.83-.933-1.294 0-1.46.201-.164.201-.335 0-.716-.077-.382-.077-.624.397-.624.614 0 .216-.79.515-.861 1.072a.66.66 0 0 0 0 .428c.087.464-.114.315-.238.176-.036-.14-.144-.243-.35-.14-.516.238-.165-.557-.165-.557s.485-1.088-1.424 0a2.027 2.027 0 0 0-.675 1.032 1.593 1.593 0 0 0-1-.619c-.423-.072-.444.15-.728.15-.2 0-.577-.207-.68-.124 0 0-.207.124-.418.268-.212.144-.34.098-.361 0a.516.516 0 0 0 .134-.418c-.041-.32-.35-.515-.397-.608-.047-.093 0-.769-.279-.738-.278.031-.577.63-.758.63-.18 0-.892-.238-1.031-.109-.14.129-.609.588-.407.913.2.325.04.464-.037.557-.077.093-.335.32-.211.629a2.254 2.254 0 0 0 .289.402c.366.98-.35.82-.727.717-.33-.278-.516-.278-.712-.124-.196.155-.237.232-.866.516-.63.284-.32.645-.222 1.145s-.557.335-.196.85c.361.516 1.836.836 2.027.836a.645.645 0 0 0 .33-.165c.263-.108.619-.19.371.361a1.227 1.227 0 0 0-.34 1.34 2.243 2.243 0 0 0 .515.671c.083.067.248.604.48.779.232.175.748 0 1.078-.072.33-.072.515.19.742.2a1.774 1.774 0 0 0 1.032-.479c.35-.263-.103-.727-.191-1.031-.088-.304.088-.088-.047-.68a.939.939 0 0 0-.185-.408c0-.371.516-.062.773.129a1.496 1.496 0 0 0 .212.32c.113.17.892 1.242 2.063.752.959-.453.562-1.072.33-1.356.237.119.69.273.892.036a.371.371 0 0 1 .515-.134c.067 0 .408.237.635 0a1.66 1.66 0 0 0 .356-.387c.783-.655.892.103.892.48-.201.376-.134.608.077.717.212.108.32.165.774.665.453.5.732.129 1.16-.165.428-.294.428.49.84-.026.413-.516.238-2.026.17-2.212-.035-.067-.16-.145-.247-.243-.18-.2-.356-.515.227-.484a1.367 1.367 0 0 0 1.429-.052 1.114 1.114 0 0 0 .216-.253.825.825 0 0 1 .3.14c.118.139.242.552.37.582a2.986 2.986 0 0 0 .516.098c.325.093.325.196.263.279a.63.63 0 0 0-.387.186 1.238 1.238 0 0 0-.185.732c0 .108-.552.516-.32.686.232.17.835 0 .954.16s.464.752.665.778c.201.026.84.031.96-.34.118-.371.293-.335.376-.382.082-.046.485.047.614-.268a1.356 1.356 0 0 0 .113-.516c.423-.928.82-.324 1.031.037 0 .433.186.598.403.598a2.336 2.336 0 0 1 .995.252c.645.212.701-.226.97-.685.268-.46.639.2.742-.428a1.475 1.475 0 0 0-.108-.769c.144.093.258.078.402.191.144.113.32.516.428.562a3.094 3.094 0 0 0 .516.067c.299.067.299.175.211.273-.175.067-.304.098-.36.212-.181.268-.104.608-.145.722-.041.113-.547.562-.294.706.253.145.815-.03.964.098.15.13.516.758.696.784.18.026.862-.026.944-.392.083-.366.273-.376.382-.376.108 0 .448 0 .557-.325a1.233 1.233 0 0 0 .087-.516c.372-.949.862-.371 1.006-.03.072.469.232.592.449.592a2.388 2.388 0 0 1 1.031.196c.655.232.68-.247.897-.701.217-.454.66.18.769-.454.108-.634-.784-1.923-.908-2.063a.877.877 0 0 0-.387-.072m-23.098-1.274a.887.887 0 0 0-.438 0c-.268.13-.36.428-.449.516a1.031 1.031 0 0 0-.433-.552.634.634 0 0 0-.381-.113c-.475-.078-.29-.201-.155-.284.175 0 .278-.062.268-.278-.088-.598.562 0 .562 0s.366.335.516 0a.17.17 0 0 0 .03.051s.16.15.382.32.202.289.114.325m15.125.459c-.082-.031-.2-.047-.345-.083-.227-.123-.547-.33 0-.551a1.439 1.439 0 0 0 .86-.274c-.046.078-.097.155-.149.248a2.269 2.269 0 0 0-.165.933 1.65 1.65 0 0 0-.252-.216z" class="cls-1" style="fill:#fff;stroke-width:.515691" transform="translate(-28.97 -64.218)"/><path d="M54.064 87.646c-.114-.113.108-.19.232-.222.124-.03.088-.211.17-.129.083.083.062.042-.046.098-.109.057.046.088-.041.222a.217.217 0 0 1-.315.031zM82.623 88.801a.304.304 0 0 1 .046-.118s-.758-1.455-.758-2.006c0-.552.186-.104.186-.104l.268.836a3.094 3.094 0 0 0 .475 1.207c.16-.067.211.036.211.036.31.515.227.711.16.742-.067.031-.34 0-.35 0-.011 0-.223-.557-.238-.593z" class="cls-2" style="fill:#3ea3dc;stroke-width:.515691" transform="translate(-28.97 -64.218)"/><path d="m82.896 88.1.036-.072a5.755 5.755 0 0 1-.959-1.351c-.082-.351.124-.104.124-.104s0 .047.34.599a2.738 2.738 0 0 0 .562.789.14.14 0 0 1 .186-.031c.32.345.294.474.242.515-.051.042-.242 0-.263 0-.02 0-.221-.294-.268-.345zM81.767 88.714a.129.129 0 0 0-.062-.098 6.936 6.936 0 0 0 .098-1.604c-.098-.361-.165-.047-.165-.047a4.79 4.79 0 0 0 0 .681 1.815 1.815 0 0 1-.077.954c-.134 0-.134.083-.134.083-.104.453 0 .546.072.608.072.062.216-.124.222-.155a1.996 1.996 0 0 0 .046-.422zM82.716 87.172a1.511 1.511 0 0 0 2.063-.846c.69-1.5-.408 1.51-2.063.846zM81.458 86.65s-.82-.391-.47-1.835a2.346 2.346 0 0 0 .47 1.836zM81.19 87.744s-2.002 1.965-2.997.31c0-.026 1.063 1.34 2.996-.31zM84.82 90.323a3.502 3.502 0 0 1-1.48-1.47 7.601 7.601 0 0 0 1.48 1.47zM81.566 89.544s-.124 1.485-1.48 1.758a2.578 2.578 0 0 0 1.48-1.758z" class="cls-2" style="fill:#3ea3dc;stroke-width:.515691" transform="translate(-28.97 -64.218)"/><path d="M85.006 86.914c0 .175-.181.098-.294 0-.114-.098-.233.072-.233 0s0-.088.14-.088c.139 0 0-.077.129-.098.129-.02.258.072.258.186zM84.789 89.853c-.046.186-.232.078-.325.041-.093-.036-.206.037-.206-.04 0-.078 0-.042.108-.042s0-.083.15-.103c.15-.02.273.046.273.144zM81.576 85.681c0 .186-.186.072-.289.031-.103-.041-.2.041-.2-.03 0-.073 0-.052.102-.052.104 0 0-.098.15-.119a.186.186 0 0 1 .237.17zM83.505 87.481c0 .072-.078.165-.13.14-.05-.026-.154.097-.185 0-.03-.099 0-.094.067-.099.067-.005-.036-.087.047-.113.082-.026.2.026.2.072zM84.15 89.049a.144.144 0 0 1-.14.139c-.03 0-.154.057-.18 0-.026-.057-.031-.067.026-.113.056-.047 0-.057.087-.073.088-.015.206.016.206.047zM83.19 87.1c0 .103-.211.128-.16.077.052-.052-.092-.078-.051-.134.041-.057.051-.031.077-.103.026-.073.036-.14.13-.088.092.051.071.124.035.19zM84.49 86.661c-.103.14-.103 0-.217 0-.113 0-.247 0-.144-.03.103-.032.237-.274.34-.14.103.134.057.16.02.17zM80.88 90.76c-.119.125-.119-.05-.227-.03-.108.02-.237 0-.14-.047.099-.046.223-.237.305-.118.083.118.119.144.062.196zM80.638 88.652c-.16.15-.104-.036-.202-.036-.098 0-.304 0-.185-.047.118-.046.216-.263.335-.129.119.134.088.176.052.212zM81.2 88.229c-.109.134-.109-.047-.212-.047s-.278.047-.16 0c.119-.046.207-.283.32-.144.114.14.088.144.052.19zM84.619 86.135c0 .083 0 0-.062.072s-.13.14-.103.052c.026-.088.072-.13.113-.13.041 0 .057-.03.052.006zM79.689 88.306c0 .098 0 0-.057.067s-.15.13-.124.067c.026-.062.103-.154.134-.154.031 0 .072-.026.047.02zM83.912 87.491c-.03.098 0 0-.082.062-.083.062-.114.165-.103.067a.18.18 0 0 1 .129-.139s.072-.046.056.01zM81.803 89.956c-.036.088 0-.025-.067.083-.067.108-.16.093-.098.041a.361.361 0 0 1 .098-.15c.057 0 .067-.01.067.026zM83.727 89.73c-.037.097 0 0-.073.082-.072.082-.118.108-.098 0a.18.18 0 0 1 .098-.124c.062.02.073-.02.073.041zM83.881 86.775c.15.077 0 .19-.144.237-.144.046-.114.19-.108.077.005-.113 0-.046.061-.124.062-.077.047-.252.191-.19zM81.458 90.55c.118.04-.037.16-.12.21-.082.052-.149.186-.138.068.01-.119.036 0 .072-.119.036-.118.067-.242.186-.16zM81.086 87.491c.124.062-.072.17-.15.232-.077.062-.154.202-.113.088.041-.113 0-.046.062-.15.062-.103.052-.226.201-.17zM80.534 87.744c.14.088-.056.201-.154.237-.098.036-.145.212-.13.083.016-.13.058-.047.078-.119.02-.072.036-.283.206-.201zM80.761 85.975c.14.062 0 .16-.123.227-.124.067-.17.206-.16.088.01-.119.056-.072.087-.16.031-.088.073-.227.196-.155zM81.705 86.001c.129.072-.052.201-.14.206-.087.005-.144.207-.123.088.02-.119 0-.036.072-.108.072-.073.031-.263.191-.186zM84.15 87.409c.04-.124.108-.124.108-.206 0-.083-.067-.18.108-.104.175.078.201.29.16.305h-.232c-.041.03-.18.077-.145.005zM80.761 90.235a.387.387 0 0 0 .078-.222c0-.082 0-.18.15-.088.149.093.21.274.138.31a.47.47 0 0 0-.226 0c-.073.02-.191.088-.14 0zM81.004 86.965c.082-.139.087-.165.087-.232s-.056-.165.109-.082c.165.082.242.289.165.314a.717.717 0 0 0-.238 0c-.04.01-.16.078-.123 0zM56.364 86.965a.63.63 0 0 1 .057.124s1.578.516 1.934.897c.355.382-.068.196-.068.196a3.78 3.78 0 0 1-.763-.438 2.77 2.77 0 0 0-1.16-.516c-.088.201-.206.15-.206.15-.568-.175-.583-.377-.624-.438-.042-.062.294-.18.31-.238a2.955 2.955 0 0 1 .52.263z" class="cls-2" style="fill:#3ea3dc;stroke-width:.515691" transform="translate(-28.97 -64.218)"/><path d="M56.642 87.651a.691.691 0 0 1 .057.072 6.704 6.704 0 0 1 1.588.305c.34.221 0 .154 0 .154s-.036.047-.629-.154a2.202 2.202 0 0 0-.98-.191c0 .15-.097.124-.097.124-.46 0-.516-.124-.563-.196-.046-.073.15-.212.191-.212.041 0 .392.093.433.098zM57.08 86.445h.104a6.188 6.188 0 0 0 1.005 1.299c.346.165.15-.103.15-.103a2.527 2.527 0 0 0-.454-.449c-.562-.515-.629-.763-.629-.763a.237.237 0 0 0 .067-.201c-.242-.392-.423-.366-.443-.366-.021 0-.098.258-.098.263a3.96 3.96 0 0 0 .299.32zM57.452 88.229a1.496 1.496 0 0 0-.97 2.006c.537 1.588-.727-1.367.97-2.006zM58.705 87.744s.851-.289 1.583 1.031a2.367 2.367 0 0 0-1.583-1.031zM58.19 86.754s.072-2.8 1.949-2.29c.015 0-1.702-.278-1.95 2.29zM53.74 87.352a3.64 3.64 0 0 1 2.062.057 8.483 8.483 0 0 0-2.063-.057zM56.642 85.723s-.943-1.218-.108-2.326a2.578 2.578 0 0 0 .108 2.326z" class="cls-2" style="fill:#3ea3dc;stroke-width:.515691" transform="translate(-28.97 -64.218)"/><path d="M55.92 89.956c-.108-.129.088-.19.207-.227.118-.036.103-.175.15-.108.046.067.082.047 0 .108-.083.062 0 .083-.068.196a.19.19 0 0 1-.289.031zM59.267 88.533c-.098-.16.103-.227.217-.247.113-.021.093-.186.155-.114.061.072.056.057 0 .114-.057.056 0 .077-.078.185-.077.108-.227.145-.294.062zM56.642 88.533a.144.144 0 0 1 0-.211s.057-.14.098-.14c.042 0 .088.047.057.104-.03.056.052.077 0 .134-.051.056-.129.129-.155.113zM55.095 87.811c-.046-.046-.046-.16 0-.165.047-.005.062-.16.109-.155.046.006.067.052.04.098-.025.047.078.057 0 .134-.076.078-.082.13-.149.088zM57.101 88.6c0-.098.098-.278.083-.18-.016.098.098 0 .155.077.056.077-.047.052 0 .119.046.067.087.108-.047.139-.134.03-.108-.041-.18-.103zM56.462 89.807c0-.191.108-.057.186-.145.077-.087.18-.2.15-.067-.032.134 0 .325-.156.32-.154-.005-.175-.062-.18-.108zM56.297 84.361c0-.175.082-.062.17-.15.088-.087.175-.185.175-.077s0 .356-.18.33c-.18-.026-.165-.077-.165-.103zM57.947 85.681c0-.17.083-.046.17-.123.088-.078.17-.196.124-.068-.046.13.036.315-.124.315s-.17-.041-.17-.124zM57.803 86.408c0-.2.098-.061.185-.15.088-.087.186-.185.14-.056-.047.129 0 .32-.14.32-.139 0-.185-.077-.185-.114zM56.74 90.255c-.04-.072 0 0 0-.082 0-.083 0-.175.057-.129a1.14 1.14 0 0 1 0 .19c-.041.042-.041.089-.057.021zM58.85 85.305c-.037-.083 0 0 0-.098v-.088c0 .088.061.165 0 .186-.062.02 0 .067 0 0zM56.328 88.775c-.031-.04.03.047 0-.04-.031-.088.03-.212.036-.145.005.067.057.185 0 .185s0 .062-.036 0zM56.158 85.542c0-.077.04 0 .04-.088v-.108c0 .062.058.155 0 .175-.056.021 0 .083-.04.021zM54.935 87.022c-.03-.057 0 0 0-.057 0-.056 0-.211.057-.139a1.196 1.196 0 0 1 0 .196c-.026.02-.026.067-.057 0zM56.849 89.291c-.18.072-.109-.155-.052-.242.057-.088-.041-.248.031-.134.072.113 0 0 .067.134s.098.196-.046.242zM56.04 84.897c-.156.037-.12-.16-.037-.242a.376.376 0 0 0 0-.165c.088.088 0 .067.046.165.047.098.109.175-.01.242zM58.406 86.826c-.165.062-.119-.165-.051-.253.067-.087 0-.226.051-.128.052.097 0 .061 0 .128s.144.202 0 .253zM58.633 86.29c-.144.057-.093-.16 0-.253s-.067-.227 0-.144c.067.082 0 .067 0 .144 0 .077.119.16 0 .253zM59.644 87.744c-.13.057-.067-.134 0-.232s0-.263 0-.14c0 .125 0 .052.051.14.052.088.134.232-.051.232zM58.963 88.363c-.15.057-.113-.18 0-.263.113-.083-.046-.237 0-.14.046.099 0 .037.031.14.03.103.108.206-.031.263zM56.21 89.018c.056.15 0 .17.066.211.067.042.17.134 0 .15-.17.015-.35 0-.325-.088.026-.088.155-.103.17-.165.016-.062.078-.19.088-.108zM56.756 84.65c.046.113.041.17.072.201.031.031.165.077 0 .144-.165.067-.34-.067-.32-.092.021-.026.119-.093.165-.17.047-.078.067-.176.083-.083zM58.85 87.177c0 .15 0 .175.04.227.042.051.176.087 0 .144-.174.057-.334-.057-.324-.088a1.924 1.924 0 0 0 .18-.175c.006-.057.047-.186.104-.108zM65.3 87.62c0-.03.094-.072.094-.072s.03-1.67.273-2.099c.242-.428.253 0 .253 0a8.215 8.215 0 0 1-.222.84 3.61 3.61 0 0 0-.16 1.26.18.18 0 0 1 .201.17c0 .587-.16.685-.216.721-.057.036-.3-.211-.3-.258 0-.046.078-.53.078-.562z" class="cls-2" style="fill:#3ea3dc;stroke-width:.515691" transform="translate(-28.97 -64.218)"/><path d="M65.878 87.177a.103.103 0 0 1 .052-.088 5.296 5.296 0 0 1-.18-1.624c.087-.346.17 0 .17 0a6.498 6.498 0 0 1 0 .65 2.914 2.914 0 0 0 .103.99c.16-.047.165 0 .165 0 .103.474.046.546 0 .608-.047.062-.253-.103-.263-.103-.01 0-.047-.433-.047-.433zM64.615 87.1l-.057-.088a6.498 6.498 0 0 0 .918-1.367c.062-.36-.15-.103-.15-.103l-.33.588a2.914 2.914 0 0 1-.515.835c-.103-.113-.186 0-.186 0-.289.346-.232.47-.2.547.03.077.247 0 .252 0a2.16 2.16 0 0 0 .268-.413zM66.172 86.197a1.465 1.465 0 0 0 2.187.3c1.361-.955-1.078 1.15-2.187-.3zM65.311 85.166s-.515-.712.516-1.847a2.388 2.388 0 0 0-.516 1.847zM64.558 85.96s-2.666.753-2.759-1.145c0 0 .232 1.691 2.76 1.145zM66.44 90.013a3.734 3.734 0 0 1-.515-2.016 7.735 7.735 0 0 0 .516 2.016zM64.027 87.744s-.866 1.263-2.135.846a2.455 2.455 0 0 0 2.135-.846z" class="cls-2" style="fill:#3ea3dc;stroke-width:.515691" transform="translate(-28.97 -64.218)"/><path d="M68.323 87.115c-.124.17-.227 0-.304-.103-.078-.103-.212-.047-.186-.124.026-.077.052-.062.144-.036.093.026.057 0 .176 0 .118 0 .206.19.17.263zM66.642 89.6c-.073.155-.186 0-.279-.134-.093-.134-.19-.072-.165-.092.026-.021.047-.083.103 0 .057.082.078-.073.217 0 .14.072.211.113.124.227zM65.925 84.387c-.098.17-.232 0-.294-.108-.062-.109-.201-.067-.15-.109.052-.041 0-.067.104-.036.103.031.046-.062.175 0s.216.165.165.253zM66.73 86.914a.155.155 0 0 1-.207.051c0-.051-.16 0-.16-.077s0-.088.093-.062c.093.026.041-.072.113-.072.073 0 .166.098.16.16zM66.497 88.57a.175.175 0 0 1-.196.056c-.03 0-.154 0-.129-.057.026-.057 0-.072.073-.072.072 0 0-.077.113-.057.114.02.16.093.14.13zM66.621 86.445c-.041.061-.258 0-.165-.031s-.077-.119 0-.155c.077-.036.062 0 .119-.052.056-.051.092-.108.15 0 .056.109 0 .124-.058.201zM67.988 86.661c-.17.072-.093-.088-.191-.103-.098-.016-.227-.113-.114-.113.114 0 .336-.15.361.036.026.185-.025.17-.056.18zM62.83 88.497c-.154.052-.061-.093-.175-.134-.113-.041-.227-.114-.108-.114.119 0 .35-.15.356.037.005.185-.005.185-.072.211zM63.625 86.522c-.16.046-.077-.077-.196-.114-.119-.036-.222-.15-.098-.118.124.03.325-.155.325.041.077.15 0 .175-.031.19zM64.342 86.445c-.165.036-.088-.098-.227-.15-.052-.036-.201-.108-.088-.108.114 0 .32-.114.382.03.062.145-.031.197-.067.228zM68.328 86.29c-.067.057 0-.031-.077 0-.078.03-.196.051-.13 0a.325.325 0 0 1 .202-.078c.005.047.036-.015.005.078zM62.98 85.78c-.077.035 0 0-.082.03-.083.031-.18.031-.134-.03a.516.516 0 0 1 .17-.057c.046.025.088.025.046.056zM67.039 87.1c-.072.077 0 0-.072 0-.073 0-.165.061-.135 0 .031-.062.135-.073.186 0 .052.072.057-.01.02 0zM64.007 88.26c-.068.036 0 0-.093 0s-.176.03-.119 0a.201.201 0 0 1 .196-.093s.072.015.016.093zM65.801 88.946c-.051.087 0 0-.062.04-.062.042-.2.047-.129 0 .073-.046.14-.071.145-.061.005.01.082 0 .046.02zM67.369 86.48c.098.14-.108.17-.217.093-.108-.077-.227.104-.154.047.072-.057.067-.047.128-.098.062-.052.155-.175.243-.041zM63.429 88.57c.108.144-.124.144-.222.113-.098-.031-.227.118-.175.03.051-.087.072-.03.14-.097.066-.067.174-.176.257-.047zM64.558 85.748c.088.13-.123.13-.211.093-.088-.036-.237.119-.17.036.067-.082.077-.036.118-.098.042-.062.186-.175.263-.03zM63.991 85.681c.103.15-.14.155-.253.15-.113-.005-.2.082-.165 0 .036-.083.083 0 .16-.062.078-.062.16-.201.258-.088zM65.059 84.248c.097.139-.12.139-.217.113-.098-.026-.227.103-.196 0 .03-.103.082 0 .14-.088.056-.087.2-.139.273-.025zM65.837 84.738c.103.118-.098.118-.211.092-.114-.025-.232.104-.15.026.083-.077.062-.026.134-.088.073-.061.14-.17.227-.03zM67.281 87.172c.155-.083.17-.083.206-.16.037-.078.073-.16.14 0 .067.16.092.314 0 .314a1.031 1.031 0 0 1-.217-.123c-.046.025-.16.025-.129-.031zM62.97 87.96a.964.964 0 0 1 .19-.123c0-.072.047-.186.145-.026.098.16.062.34 0 .34s-.144-.108-.201-.123c-.057-.016-.206-.031-.134-.067zM64.754 85.207a1.707 1.707 0 0 0 .232-.119c0-.077 0-.18.103-.036.104.145.078.356 0 .325-.077-.03-.118-.072-.2-.093-.083-.02-.166 0-.135-.077zM74.264 87.78a.81.81 0 0 1 .067-.118 8.344 8.344 0 0 1-.707-1.98c0-.516.206-.094.206-.094s.057.037.202.846a3.202 3.202 0 0 0 .428 1.207c.18-.067.242.041.242.041.284.516.175.702.113.758-.061.057-.345-.056-.355-.056-.01 0-.196-.547-.196-.604z" class="cls-2" style="fill:#3ea3dc;stroke-width:.515691" transform="translate(-28.97 -64.218)"/><path d="m74.573 87.115.036-.093a6.55 6.55 0 0 1-.923-1.34c-.057-.357.144-.094.144-.094s.057 0 .325.568a1.95 1.95 0 0 0 .537.81.134.134 0 0 1 .175 0c.289.34.253.469.227.515-.026.046-.253 0-.289 0a1.279 1.279 0 0 1-.232-.366zM73.392 87.651l-.051-.098a6.92 6.92 0 0 0 .216-1.593c-.129-.387-.186-.057-.186-.057a2.831 2.831 0 0 0-.03.67 2.099 2.099 0 0 1-.088.975.165.165 0 0 0-.17.098c-.119.444 0 .516.04.583.042.067.218-.13.248-.134a1.413 1.413 0 0 0 .021-.444zM74.418 86.135a1.496 1.496 0 0 0 2.115-.727c.737-1.475-.444 1.506-2.115.727zM73.196 85.573s-.825-.413-.402-1.851a2.45 2.45 0 0 0 .402 1.851zM72.86 86.65s-2.062 1.883-2.985.202c0 0 .97 1.408 2.986-.201zM76.393 89.394a3.404 3.404 0 0 1-1.407-1.547 7.627 7.627 0 0 0 1.407 1.547zM73.196 88.497s-.232 1.46-1.547 1.686a2.537 2.537 0 0 0 1.547-1.686zM76.754 86.027c0 .175-.206.072-.32 0-.113-.072-.206.072-.206 0s0-.078.134-.078c.135 0 0-.046.14-.082a.201.201 0 0 1 .252.16z" class="cls-2" style="fill:#3ea3dc;stroke-width:.515691" transform="translate(-28.97 -64.218)"/><path d="M76.378 88.935c0 .191-.211.083-.315 0-.103-.082-.216.072-.216 0s0-.082.134-.082 0-.052.14-.098c.138-.047.272.082.257.18zM73.371 84.65c-.03.17-.206.057-.32 0-.113-.057-.19 0-.19-.036s0-.062.088-.062c.087 0 .067-.067.175-.093.108-.026.258.047.247.19zM75.207 86.522a.186.186 0 0 1-.123.129c-.083 0-.191.082-.196 0-.006-.083 0-.078.03-.083.031-.005 0-.062.083-.087.083-.026.206 0 .206.04zM75.775 88.1c0 .082-.088.15-.109.129-.02-.02-.196.077-.206 0-.01-.078-.036-.067.057-.078.093-.01 0-.082.051-.128.052-.047.201.02.207.077zM74.929 86.13c-.026.077-.227.129-.155.072.072-.057-.129-.072-.072-.165.057-.093.072 0 .088-.077.015-.078 0-.145.108-.067.108.077.077.108.03.18zM76.239 85.764c-.103.113-.093-.041-.217-.041s-.253 0-.15-.062c.104-.062.248-.253.367-.119.118.134.036.18 0 .222zM72.454 89.683c-.098.129-.098-.052-.202-.052-.103 0-.273 0-.185-.056.087-.057.242-.212.36-.109.12.104.063.165.027.217zM72.263 87.553c-.088.109-.088 0-.201 0-.114 0-.269 0-.15-.056.119-.057.242-.284.35-.135.109.15.047.18 0 .191zM72.86 87.177c-.113.108-.113-.062-.22-.062h-.15c.118 0 .232-.263.345-.124.114.14.062.124.026.186zM76.378 85.222c0 .088 0 0-.072.083-.072.082-.124.103-.093.041a.17.17 0 0 1 .134-.14s.046-.04.031.016zM71.365 87.228c0 .083 0 0-.072 0s-.129.16-.098.078a.16.16 0 0 1 .114-.134c.056 0 .062-.057.056.056zM75.615 86.568c-.047.083 0 0-.078.052-.077.051-.134.113-.113.041a1.702 1.702 0 0 1 .113-.14c.047 0 .078-.015.078.047zM73.382 88.925c0 .093 0 0-.041.062-.042.062-.145.103-.135.046.01-.056.078-.118.135-.118.056 0 .051-.047.04.01zM75.331 88.775c-.03.098 0 0-.077.083-.078.082-.15.098-.109.03a.232.232 0 0 1 .15-.113s.057-.061.036 0zM75.615 85.841c.154.062-.047.186-.145.196-.098.01-.17.18-.139.093.031-.088.036-.031.093-.129s.046-.237.19-.16zM73.02 89.487c.145.067 0 .18-.133.196-.134.016-.165.211-.14.083.026-.13.047-.037.073-.135.025-.097.067-.237.2-.144zM72.789 86.445c.108.061-.067.175-.155.206-.088.03-.15.175-.144.082.005-.093.036-.056.082-.16.047-.103.057-.216.217-.128zM72.19 86.65c.166.083 0 .176-.123.202-.124.026-.155.19-.119.088.036-.104.047 0 .062-.14.016-.139.057-.227.18-.15zM72.526 84.897c.144.098-.036.191-.155.222s-.119.165-.108.041c.01-.123.03 0 .093-.128.061-.13.046-.207.17-.135zM73.46 84.934c.164.098-.032.2-.13.226-.098.026-.175.212-.134.098.041-.113.057-.051.057-.129 0-.077.077-.232.206-.195zM75.847 86.48c.062-.133.134-.149.134-.221 0-.072-.072-.16.108-.072.18.087.206.257.124.294-.083.036-.124-.037-.217 0-.092.036-.196.077-.15 0zM72.356 89.136c.046-.118.098-.118.098-.2 0-.083-.052-.181.118-.083.17.098.217.283.145.314-.073.031-.145-.03-.227-.03-.083 0-.196.092-.134 0zM72.722 85.893c.072-.13.098-.145.098-.232 0-.088-.026-.16.129-.057.154.103.216.273.165.289-.052.015-.176 0-.253 0-.077 0-.16.067-.14 0z" class="cls-2" style="fill:#3ea3dc;stroke-width:.515691" transform="translate(-28.97 -64.218)"/><path d="m63.48 113.529-.402.453.598-.061a1.367 1.367 0 0 1 1.285.577.861.861 0 0 1 .123.444.897.897 0 0 1-.144.484 8.488 8.488 0 0 0-2.579 5.673v.046a4.858 4.858 0 0 0 1.372 3.46v.094c0 1.737 1.408 3.32 2.32 3.496l.135.03.072-.123.062-.206v-.088l-.144-.057c-.031 0-.119-.082-.119-.515l.046-.815.057-.83a1.593 1.593 0 0 0-.077-.485 2.207 2.207 0 0 0 1.14-.84c.252-.29.484-.563.706-.599l.17-.036.134-.026-.14-.278c-.252-.516-.948-.387-1.685-.284a3.094 3.094 0 0 1-1.547 0 1.031 1.031 0 0 1-.248-.696 1.676 1.676 0 0 1 .098-.562c.454-1.315 2.408-2.955 5.157-3.528-.268.351-.634.826-.861 1.083l-.15.155-.118.129.37.103c1.228.325 3.095-1.031 3.967-2.063 3.192.145 5.78-.376 5.976-.81l.042-.154-.052-.222a3.3 3.3 0 0 0-1.748-1.402c-.315-.882-1.155-1.656-2.388-2.187-1.867-.789-4.187-.85-5.672-.155-1.125-.814-4.167-1.057-5.756.795z" style="stroke-width:.515691" transform="translate(-28.97 -64.218)"/><path d="M65.141 115.53c.588-.939-.32-1.97-1.49-1.872 1.516-1.733 4.574-1.506 5.636-.743 2.486-1.263 7.189-.077 7.895 2.259 1.12.433 1.847 1.227 1.723 1.516-.124.289-2.434.84-5.874.67-.789 1.032-2.676 2.372-3.79 2.063.392-.449 1.248-1.604 1.248-1.604-4.306.604-7.096 3.92-5.704 5.358.867.46 2.79-.454 3.094.191-.773.134-1.284 1.934-2.398 1.377 1-.083-.134 2.878.604 3.177-.79-.134-2.249-1.707-2.14-3.445-2.61-2.615-1.027-6.792 1.196-8.947z" class="cls-1" style="fill:#fff;stroke-width:.515691" transform="translate(-28.97 -64.218)"/><path d="M75.125 115.978c-5.492-2.109-10.082.954-11.17 4.1 1.186-3.125 5.89-6.034 11.294-3.713.324.15.814 0-.124-.387z" class="cls-2" style="fill:#3ea3dc;stroke-width:.515691" transform="translate(-28.97 -64.218)"/><path d="M102.39 99.29s-2.172 1.547-2.579 3.559v2.79s3.094-1.77 2.578-6.349z" class="cls-3" style="fill:#c09c71;stroke-width:.515691" transform="translate(-28.97 -64.218)"/><path d="M99.63 109.444a6.26 6.26 0 0 0 3.61-5.755c-2.062.47-3.403 2.986-3.403 2.986zM98.62 114.503c4.584-1.696 4.574-6.332 4.574-6.332-2.202.567-4.043 3.367-4.043 3.367zM98.083 116.143s2.357-2.743 5.585-3.496c0 0-1.866 6.343-6.42 6.637l-.304-.036zM94.876 123.76c5.672.578 7.601-4.842 7.601-4.842a10.747 10.747 0 0 0-6.296 2.12zM90.6 129.778c6.829 2.063 9.35-4.26 9.35-4.26-5.306-.484-7.029 1.398-7.029 1.398zM84.67 134.275c6.606 4.682 10.97-.268 10.97-.268-5.276-3.29-7.937-1.748-7.937-1.748zM81.195 135.703s4.26-.237 8.055 5.673c0 0-7.865 2.228-11.175-4.553zM74.114 137.514s5.59 2.377 5.59 9.483c0 0-8.019.691-7.854-9.282zM36.66 99.29s2.14 1.547 2.578 3.559v2.79s-3.13-1.77-2.579-6.349z" class="cls-3" style="fill:#c09c71;stroke-width:.515691" transform="translate(-28.97 -64.218)"/><path d="M39.423 109.444a6.322 6.322 0 0 1-3.61-5.755c2.063.47 3.42 2.986 3.42 2.986zM40.419 114.503c-4.595-1.691-4.57-6.332-4.57-6.332 2.177.567 4.039 3.367 4.039 3.367zM40.934 116.143s-2.336-2.743-5.554-3.496c0 0 1.847 6.343 6.426 6.637l.315-.036zM44.157 123.76c-5.708.598-7.627-4.842-7.627-4.842a10.799 10.799 0 0 1 6.323 2.12zM48.391 129.778c-6.807 2.063-9.318-4.26-9.318-4.26 5.29-.484 7.054 1.398 7.054 1.398zM54.342 134.275c-6.564 4.682-10.922-.268-10.922-.268 5.276-3.295 7.931-1.748 7.931-1.748zM57.87 135.703s-4.27-.237-8.102 5.673c0 0 7.9 2.228 11.206-4.553zM64.95 137.514s-5.585 2.382-5.585 9.483c0 0 7.988.691 7.839-9.282z" class="cls-3" style="fill:#c09c71;stroke-width:.515691" transform="translate(-28.97 -64.218)"/><path d="M96.284 91.194s-1.8 5.951 2.955 9.561a43.834 43.834 0 0 1 .04 5.642c-.205-.604-.84-1.764-2.768-3.265 0 0-.588 4.126 2.496 6.359a46.879 46.879 0 0 1-.325 2.186 9.154 9.154 0 0 0-3.368-4.605s-.758 4.879 2.821 7.22c-.14.583-.3 1.17-.474 1.764a10.226 10.226 0 0 0-3.853-5.482s-.685 5.884 2.92 8.22a30.622 30.622 0 0 1-1.46 3.207c.19-4.398-3.806-6.461-3.806-6.461s-.835 6.353 2.857 8.112a25.785 25.785 0 0 1-1.655 2.372v-.036c.36-3.491-2.754-6.08-2.754-6.08-1.738 4.79-.062 7.859.464 8.653q-1.032 1.031-2.032 1.877a7.839 7.839 0 0 0-1.031-7.941s-3.729 4.502-1.774 10.01a20.488 20.488 0 0 1-3.007 1.65c3.249-5.158 1.45-8.814 1.45-8.814s-5.508 2.744-5.776 10.113c-1.228.227-2.357.335-3.389.438 4.693-4.213 3.198-8.344 3.198-8.344-6.555 2.548-6.787 7.627-6.704 8.989l-.186.077a4.641 4.641 0 0 0-1.547.47 4.74 4.74 0 0 0-1.588-.47l-.155-.062c.057-1.34-.19-6.446-6.75-9.004 0 0-1.548 4.126 3.181 8.344-1.031-.103-2.15-.211-3.372-.438-.315-7.395-5.797-10.139-5.797-10.139s-1.83 3.646 1.424 8.819a21.22 21.22 0 0 1-3.017-1.614c1.954-5.513-1.764-10.015-1.764-10.015a7.782 7.782 0 0 0-1.031 7.957 33.831 33.831 0 0 1-2.063-1.903c.547-.82 2.223-3.878.474-8.643 0 0-3.125 2.578-2.733 6.08v.052a26.192 26.192 0 0 1-1.67-2.388c3.666-1.759 2.867-8.112 2.867-8.112s-4.018 2.063-3.79 6.498a30.942 30.942 0 0 1-1.486-3.244c3.61-2.336 2.924-8.22 2.924-8.22a10.071 10.071 0 0 0-3.862 5.456 40.34 40.34 0 0 1-.47-1.753c3.543-2.352 2.806-7.22 2.806-7.22a8.963 8.963 0 0 0-3.342 4.641 46.074 46.074 0 0 1-.325-2.191c3.094-2.244 2.486-6.37 2.486-6.37-1.924 1.486-2.553 2.63-2.76 3.244a42.354 42.354 0 0 1 .047-5.626c4.719-3.61 2.94-9.556 2.94-9.556-4.966 4.642-4.126 8.014-3.548 9.283-.604 3.414-.17 8.736.789 12.949.923 4.497 4.584 15.95 14.068 20.901 7.632 4.033 13.49 3.667 15.47 3.378 1.95.289 7.798.655 15.471-3.378 9.463-4.95 13.078-16.404 14.068-20.901.882-4.193 1.357-9.484.753-12.892.588-1.248 1.516-4.667-3.537-9.355z" class="cls-4" style="fill:#c1ad76;stroke-width:.515691" transform="translate(-28.97 -64.218)"/><path d="M77.084 129.35s-1.939.701-2.62 2.006c-.469.934 0 1.78-.417 2.579a7.947 7.947 0 0 1-1.418 1.768s1.929-.433 2.465-1.634c.536-1.202.036-1.604.459-2.579a10.128 10.128 0 0 1 1.531-2.14zM77.925 144.888s-1.996-.567-2.749-1.846c-.572-.908-.113-1.748-.572-2.527a7.833 7.833 0 0 0-1.496-1.728s1.934.335 2.579 1.485c.645 1.15.15 1.646.588 2.517a10.49 10.49 0 0 0 1.65 2.099zM83.19 128.386s-1.68.82-2.14 2.063c-.32.897.175 1.547-.088 2.34a6.606 6.606 0 0 1-1.077 1.749s1.686-.603 2.062-1.712c.377-1.109-.16-1.46.114-2.331a8.839 8.839 0 0 1 1.13-2.11zM87.486 124.925s-1.176 1.233-1.191 2.42c-.042.88.603 1.309.603 2.005a7.024 7.024 0 0 1-.382 1.841s1.243-1.031 1.197-2.063c-.047-1.031-.516-1.222-.583-2.062a9.34 9.34 0 0 1 .356-2.14zM90.6 121.62s-.82 1.315-.613 2.367c.155.773.794 1.031.944 1.686a6.312 6.312 0 0 1 0 1.692s.902-1.16.675-2.063c-.227-.903-.706-.995-.897-1.728a7.565 7.565 0 0 1-.108-1.954zM92.684 117.505s-.47 1.346-.072 2.253c.31.65.954.753 1.196 1.305a5.972 5.972 0 0 1 .351 1.547s.567-1.217.18-2.021c-.386-.805-.845-.717-1.175-1.326a7.117 7.117 0 0 1-.48-1.758zM95.046 112.616s-.48 1.33-.077 2.28c.294.634.907.71 1.175 1.288a5.673 5.673 0 0 1 .361 1.506s.557-1.232.155-2c-.402-.769-.815-.738-1.14-1.357a6.426 6.426 0 0 1-.474-1.717zM96.35 108.635s-.36 1.206.052 1.99c.274.599.84.614 1.104 1.083a5.188 5.188 0 0 1 .392 1.305s.454-1.104.072-1.764c-.382-.66-.779-.593-1.098-1.119a5.89 5.89 0 0 1-.521-1.495zM97.222 104.164s-.35 1.232.083 2.01c.283.568.85.604 1.083 1.1a3.997 3.997 0 0 1 .371 1.283s.454-1.103.083-1.753c-.372-.65-.764-.593-1.078-1.14a5.549 5.549 0 0 1-.542-1.5ZM87.326 140.417s-2.011.33-3.336-.433c-.985-.557-1.032-1.46-1.847-1.95a8.885 8.885 0 0 0-2.202-.799s1.831-.516 2.955.206c1.125.722 1.032 1.31 1.872 1.888a14.073 14.073 0 0 0 2.558 1.088zM93.164 134.388s-1.547.79-2.77.516c-.897-.196-1.175-.902-1.944-1.073a9.927 9.927 0 0 0-1.975-.103s1.387-.835 2.424-.572 1.135.81 1.985 1.031a8.906 8.906 0 0 0 2.28.201zM97.748 126.761s-.907 1.259-2.016 1.547c-.805.18-1.315-.221-1.975-.077a7.142 7.142 0 0 0-1.625.732s.764-1.253 1.723-1.444c.959-.19 1.201.15 1.99 0a9.834 9.834 0 0 0 1.903-.758zM100.693 120.233a4.213 4.213 0 0 1-1.588 1.598c-.67.274-1.145-.046-1.744.145a7.132 7.132 0 0 0-1.32.82s.48-1.15 1.32-1.45c.841-.299 1.073 0 1.744-.216a9.205 9.205 0 0 0 1.588-.897zM102.023 114.323a4.126 4.126 0 0 1-1.16 1.877c-.63.438-1.16.253-1.66.578a6.967 6.967 0 0 0-1.11 1.119s.212-1.259.97-1.754c.758-.495 1.032-.237 1.625-.593a9.535 9.535 0 0 0 1.335-1.227zM102.178 109.455a3.47 3.47 0 0 1-.706 1.872c-.475.469-.975.417-1.367.825a8.19 8.19 0 0 0-.8 1.17s0-1.165.552-1.712c.552-.546.898-.386 1.346-.825a6.317 6.317 0 0 0 .975-1.33zM102.292 104.937a3.094 3.094 0 0 1-.454 1.599c-.33.418-.758.412-1.083.763a4.332 4.332 0 0 0-.516.995 2.13 2.13 0 0 1 .33-1.428c.413-.475.707-.382 1.031-.774a6.472 6.472 0 0 0 .692-1.155zM101.967 100.595a2.805 2.805 0 0 1-.279 1.614c-.289.475-.732.516-.97.856a5.374 5.374 0 0 0-.433 1.094 2.212 2.212 0 0 1 .14-1.455c.376-.515.66-.48.974-.887a7.802 7.802 0 0 0 .568-1.222zM97.423 93.726a4.641 4.641 0 0 0 .083 2.501c.268.748.882.913 1.155 1.547a7.416 7.416 0 0 1 .407 1.687s.439-1.295.037-2.202c-.403-.908-.815-.846-1.14-1.594a9.236 9.236 0 0 1-.542-1.939ZM61.933 129.35s1.986.701 2.667 2.006c.459.934 0 1.78.391 2.579a8.045 8.045 0 0 0 1.45 1.768s-1.93-.433-2.465-1.634c-.537-1.202-.073-1.604-.46-2.579a10.628 10.628 0 0 0-1.583-2.14zM61.144 144.883s1.986-.562 2.718-1.841c.547-.908.108-1.748.547-2.527a10.015 10.015 0 0 1 1.547-1.728s-1.975.335-2.579 1.485c-.603 1.15-.15 1.646-.629 2.517a10.438 10.438 0 0 1-1.604 2.094zM55.859 128.386s1.676.82 2.14 2.063c.35.897-.176 1.547.098 2.34a7.271 7.271 0 0 0 1.072 1.749s-1.722-.603-2.062-1.712c-.34-1.109.123-1.46-.14-2.331a9.355 9.355 0 0 0-1.108-2.11zM51.542 124.925s1.207 1.233 1.217 2.42c0 .88-.634 1.309-.634 2.005a6.575 6.575 0 0 0 .413 1.841s-1.248-1.031-1.197-2.063c.052-1.031.516-1.222.557-2.062a8.282 8.282 0 0 0-.356-2.14zM48.433 121.62s.814 1.315.618 2.367c-.118.773-.799 1.031-.948 1.686a6.812 6.812 0 0 0 0 1.692s-.903-1.16-.666-2.063c.238-.903.727-.995.877-1.728a6.116 6.116 0 0 0 .119-1.954zM46.37 117.505s.433 1.346.046 2.253c-.268.65-.918.753-1.17 1.305a5.11 5.11 0 0 0-.336 1.547s-.624-1.217-.196-2.021c.428-.805.81-.717 1.14-1.326a8.251 8.251 0 0 0 .516-1.758zM44.013 112.616s.464 1.33.062 2.28c-.273.634-.939.71-1.165 1.288a4.126 4.126 0 0 0-.33 1.506s-.614-1.232-.233-2c.382-.769.877-.738 1.181-1.357a7.926 7.926 0 0 0 .485-1.717zM42.719 108.635a3.404 3.404 0 0 1-.036 1.99c-.31.599-.851.614-1.099 1.083a4.95 4.95 0 0 0-.423 1.32s-.433-1.103-.04-1.763c.391-.66.783-.593 1.067-1.12a5.92 5.92 0 0 0 .53-1.51zM41.806 104.164s.34 1.232-.057 2.01c-.273.568-.835.604-1.098 1.1a4.358 4.358 0 0 0-.387 1.283s-.454-1.103-.052-1.753c.403-.65.759-.593 1.068-1.14a6.369 6.369 0 0 0 .526-1.5zM51.738 140.417s2.022.33 3.337-.433c.949-.557 1.031-1.46 1.82-1.95a9.386 9.386 0 0 1 2.228-.783s-1.867-.516-2.991.2c-1.124.717-1.032 1.316-1.877 1.893a14.171 14.171 0 0 1-2.517 1.073zM45.9 134.388s1.506.79 2.744.516c.877-.196 1.191-.902 1.954-1.073a9.798 9.798 0 0 1 1.96-.103s-1.361-.835-2.408-.572-1.135.81-1.98 1.031a8.85 8.85 0 0 1-2.27.201zM41.31 126.761s.914 1.259 2.033 1.547c.768.18 1.268-.221 1.939-.077a7.111 7.111 0 0 1 1.63.732s-.754-1.253-1.718-1.444c-.964-.19-1.186.15-1.97 0a8.793 8.793 0 0 1-1.913-.758zM38.33 120.233a4.399 4.399 0 0 0 1.604 1.598c.67.274 1.17-.046 1.748.145a6.704 6.704 0 0 1 1.31.82s-.485-1.15-1.31-1.45c-.825-.299-1.093 0-1.748-.216a10.917 10.917 0 0 1-1.604-.897zM37.046 114.323a4.126 4.126 0 0 0 1.207 1.877c.552.438 1.13.253 1.655.578a9.664 9.664 0 0 1 1.088 1.119s-.221-1.259-.954-1.754c-.732-.495-1.031-.237-1.63-.593a7.978 7.978 0 0 1-1.366-1.227zM36.84 109.455a4.007 4.007 0 0 0 .722 1.872c.448.469.974.417 1.372.825a5.12 5.12 0 0 1 .763 1.17s.051-1.165-.516-1.712c-.567-.546-.856-.386-1.33-.825a7.503 7.503 0 0 1-1.011-1.33zM36.762 104.937a3.058 3.058 0 0 0 .46 1.599c.32.418.752.412 1.077.763a4.193 4.193 0 0 1 .516.995 2.176 2.176 0 0 0-.279-1.428c-.443-.48-.696-.382-1.03-.774a5.157 5.157 0 0 1-.744-1.155zM37.087 100.595a3.037 3.037 0 0 0 .274 1.614c.304.475.716.516.964.856a6.482 6.482 0 0 1 .454 1.094 2.094 2.094 0 0 0-.186-1.46c-.36-.516-.644-.48-.933-.887a6.848 6.848 0 0 1-.573-1.217zM41.651 93.726a5.245 5.245 0 0 1-.082 2.501c-.33.748-.908.913-1.186 1.547a8.132 8.132 0 0 0-.423 1.687s-.433-1.295 0-2.202c.433-.908.815-.846 1.16-1.594a10.458 10.458 0 0 0 .531-1.939zM53.45 76.548c.067.186.067.186.227.13l.516-.13c.376-.103.449-.129.407-.453v-.165a.294.294 0 0 1 .294-.052 4.677 4.677 0 0 0 .124.67c.067.201.113.413.165.588 0 .083-.165.114-.258.083l-.03-.14c-.181-.273-.248-.293-.584-.2l-.515.139c-.18.04-.18.062-.16.211l.242.81c.13.552.14.608.464.552h.238c.046 0 .103.16.046.19-.382.109-.722.186-1.073.268-.35.083-.608.165-1.031.284a.14.14 0 0 1-.026-.216l.176-.098c.294-.12.324-.16.18-.712l-.567-2.243c-.103-.593-.186-.62-.516-.593l-.15.04c-.04-.04-.118-.18-.04-.242.293-.072.613-.144.964-.211l1.408-.35a3.863 3.863 0 0 0 .892-.274 6.781 6.781 0 0 0 .278.933c0 .078-.155.124-.237.078-.15-.222-.248-.377-.325-.382a.81.81 0 0 0-.691-.072l-.516.155c-.206 0-.206.067-.134.273zM57.03 74.66c-.052-.288-.052-.319.226-.355a.877.877 0 0 1 1.078.779 1.243 1.243 0 0 1-.145.706.872.872 0 0 1-.515.232c-.413.073-.433.073-.449-.144l-.211-1.217m-.516 2.749c.113.562.057.629-.211.722l-.16.072c-.047.03 0 .154 0 .221.36-.092.65-.123 1.031-.2l1-.145a.227.227 0 0 0-.03-.211h-.207c-.31 0-.355 0-.464-.62l-.108-.752c0-.109 0-.134.242-.15.155-.051.248 0 .372.13a6.539 6.539 0 0 0 .711.866 1.382 1.382 0 0 0 1.413.433 1.965 1.965 0 0 0 .516-.165c0-.036 0-.124-.057-.15a.645.645 0 0 1-.515-.103 5.245 5.245 0 0 1-1.3-1.356c-.031 0-.067-.098 0-.124a.975.975 0 0 0-.186-1.836 2.661 2.661 0 0 0-1.35 0 11.86 11.86 0 0 0-1.682.33c-.082.052-.046.206 0 .243l.18-.037c.279 0 .336.057.398.666zM63.97 75.326c.083.995-.175 1.81-1.031 1.903-1.135.114-1.547-1.062-1.604-1.815-.134-1.032.284-1.805 1.109-1.867.825-.062 1.439.712 1.547 1.78m-1.506-2.11c-1.433.175-2.341 1.212-2.248 2.44.093 1.227 1.207 2.016 2.578 1.892 1.465-.145 2.393-1.073 2.249-2.43-.119-1.252-1.202-2.026-2.6-1.902zM69.921 75.981a5.93 5.93 0 0 0 .073 1.031.804.804 0 0 1-.444.14s-.216-.305-.557-.66l-1.645-1.718a6.642 6.642 0 0 0-.784-.81 2.202 2.202 0 0 0 0 .424l.052 1.196a3.61 3.61 0 0 0 .144 1.165c.031.098.212.145.392.166h.176c.072.061.072.206 0 .237h-.887c-.263 0-.516.051-.78.062-.05-.062-.076-.18 0-.238h.104c.175-.056.315-.087.371-.221a4.95 4.95 0 0 0 .067-1.166l-.067-1.547c0-.36 0-.449-.056-.516-.057-.067-.155-.221-.418-.221h-.186c-.041-.057-.041-.207.031-.207a8.803 8.803 0 0 0 .934-.03h.572a5.673 5.673 0 0 0 1.202 1.366l.572.598.676.676a.433.433 0 0 0 .072-.34l-.067-.851a3.285 3.285 0 0 0-.13-1.11c-.046-.17-.236-.18-.422-.205h-.165a.253.253 0 0 1 0-.243h.902c.263 0 .485 0 .784-.036a.227.227 0 0 1 0 .211h-.124c-.211.047-.324.073-.376.191a4.208 4.208 0 0 0-.067 1.166zM72.5 73.5c0-.113 0-.19-.17-.19h-.428c-.516 0-.67.2-.877.65-.088.046-.242 0-.263-.083a4.827 4.827 0 0 0 .268-1.031h.119c.046 0 .082 0 .082.03 0 .032.083.135.573.15l2.578.13c.449.046.516.046.63-.11h.103s.061.032.061.052a4.641 4.641 0 0 0-.139 1.088.397.397 0 0 1-.268 0c-.103-.402-.175-.763-.655-.773h-.454c-.185 0-.196 0-.211.17l-.119 2.733c-.057.583 0 .604.315.702l.252.036c.031.046.031.185-.025.216-.423-.03-.779-.051-1.094-.062a7.503 7.503 0 0 0-1.165-.051.18.18 0 0 1 .041-.237h.304c.284 0 .356-.067.356-.65zM76.161 75.708c-.165-.052-.227-.062-.098-.201l.196-.454a2.723 2.723 0 0 1 .356-.65c.047.134.098.356.18.68l.124.48c0 .17 0 .176-.18.17l-.578-.025m.578.381c.263 0 .294 0 .325.134l.118.516a3.878 3.878 0 0 1 .109.47s-.042.066-.207.077h-.242a.201.201 0 0 0 0 .227l.939.072c.36.057.737.077 1.067.134a.201.201 0 0 0 .026-.217l-.263-.072c-.242-.077-.294-.206-.413-.567l-.66-2.527c-.144-.464-.175-.68-.237-.913 0-.077-.046-.093-.129-.103a1.32 1.32 0 0 1-.644.31 2.31 2.31 0 0 1-.346.763l-.784 1.454c-.222.423-.36.722-.516.923a.485.485 0 0 1-.458.284h-.217c0 .046-.052.185 0 .216.345.036.47.036.717.047.247.01.567.062.82.113.062 0 .062-.18 0-.211l-.196-.062c-.201-.057-.248-.103-.238-.119a.335.335 0 0 1 .083-.232l.294-.69c.082-.114.093-.114.258-.094z" class="cls-1" style="fill:#fff;stroke-width:.515691" transform="translate(-28.97 -64.218)"/><path d="M80.509 76.956a1.398 1.398 0 0 0 0 .593c.082.118.206.18.67.258.64.123.851.123 1.346-.516a.18.18 0 0 1 .242.072 6.317 6.317 0 0 1-.433.954c-.376-.077-1.031-.18-1.593-.273l-.892-.165c-.325-.031-.666-.088-1.078-.15-.078-.056-.047-.206 0-.216h.252c.305 0 .382-.036.46-.624l.37-2.264c.099-.583.063-.624-.236-.707l-.191-.077c-.052 0 0-.18.051-.217.361.088.691.14 1.032.207.34.067.67.087 1.031.108.052.062.036.217-.036.247h-.19c-.315 0-.346 0-.44.594zM84.81 76.296c-.057.18-.057.2.128.252l.46.088c.36.098.453.052.577-.206l.098-.15c.026-.03.222 0 .222.083-.052.185-.109.386-.17.634a7.946 7.946 0 0 0-.14.655c-.062 0-.211 0-.227-.077v-.145c0-.273-.087-.35-.433-.448l-.469-.093c-.186-.062-.186-.062-.217.129l-.19.69c-.067.29-.093.516 0 .625.092.108.196.216.665.335.572.129.784.165 1.335-.423.083-.041.243 0 .258.088a4.028 4.028 0 0 1-.541.918c-.346-.119-.97-.269-1.511-.418l-.887-.222-1.16-.237c-.052-.041 0-.217.082-.222l.3.052c.303.041.35 0 .479-.573l.546-2.264c.104-.515.088-.587-.18-.711l-.18-.057a.222.222 0 0 1 .072-.237c.33.088.629.196.943.283l1.429.34a6.26 6.26 0 0 0 .902.202c0 .077-.072.516-.118.939-.078.082-.207 0-.253 0a1.547 1.547 0 0 0-.155-.547 1.083 1.083 0 0 0-.608-.35l-.516-.11c-.217-.082-.217-.071-.268.16zM52.073 99.409c0 .32.042.33.124.33.186 0 .516-.371.593-.567a15.703 15.703 0 0 0 1.078-1.66 1.547 1.547 0 0 0 .124-.238c0-.046-.072-.082-.13-.14h-.19a.289.289 0 0 1 0-.376 7.153 7.153 0 0 0 .964.067 5.631 5.631 0 0 0 .975-.087.34.34 0 0 1 .067.376 1.81 1.81 0 0 0-.665.16 4.126 4.126 0 0 0-1.186 1.233l-.356.515a.34.34 0 0 0-.114.227 4.265 4.265 0 0 0 .284.604c.382.711.846 1.66 1.392 2.542.217.356.367.418.578.449l.268.056c0 .078 0 .274-.046.325H53.45c-.098 0-.098-.263 0-.325l.222-.056c.046 0 .108-.083.108-.093a.397.397 0 0 0-.062-.232c-.046-.036-.381-.686-.48-.836l-.391-.804c-.289-.516-.413-.758-.557-.758-.144 0-.217.134-.217.686v1.031c0 .882.042.944.387 1.031l.227.057a.268.268 0 0 1 0 .325H50.33a.31.31 0 0 1 0-.325l.212-.057c.36-.082.417-.144.417-1.031v-3.64c0-.908-.056-.965-.417-1.058h-.212a.258.258 0 0 1 0-.376 9.154 9.154 0 0 0 1.197.067 9.014 9.014 0 0 0 1.16-.067.356.356 0 0 1 0 .376h-.227c-.345.093-.387.15-.387 1.057z" class="cls-1" style="fill:#fff;stroke-width:.515691" transform="translate(-28.97 -64.218)"/><path d="M57.498 100.523c-.221 0-.257-.057-.16-.315l.16-.716c.15-.454.269-.862.33-1.078.083.196.17.613.29 1.031l.216.779c.051.258 0 .314-.186.314h-.65m.707.516c.263 0 .33 0 .366.175l.227.846a2.671 2.671 0 0 1 .124.655c0 .057 0 .119-.196.15l-.258.056a.237.237 0 0 0 0 .325h2.3c.077-.051.077-.278.046-.325l-.314-.056c-.325-.088-.35-.294-.516-.867l-1.031-3.821a9.138 9.138 0 0 1-.382-1.346c-.046-.119-.067-.196-.17-.196a1.599 1.599 0 0 1-.727.578 4.182 4.182 0 0 1-.32 1.258l-.68 2.341c-.238.717-.356 1.181-.516 1.578-.16.397-.274.454-.449.48l-.217.03c-.056.078-.077.274 0 .326h1.728c.103-.052.057-.263 0-.325l-.211-.057c-.243-.03-.32-.093-.32-.15a.954.954 0 0 1 .067-.37l.278-1.13c.062-.176.062-.176.284-.176zM67.518 97.192a.438.438 0 0 0-.314.195 8.447 8.447 0 0 0-.444 1.11c-.376 1.123-1.253 3.558-1.645 4.821a.701.701 0 0 1-.242.046.835.835 0 0 1-.243-.046c-.082-.237-.195-.609-.278-.877l-.31-.912c-.123-.32-.221-.609-.314-.78-.077.192-.144.413-.232.687l-.402 1.031c-.145.325-.176.567-.33.903-.031.072-.145.077-.238.077a.242.242 0 0 1-.211-.077c-.144-.392-.443-1.285-.701-2.017l-1.284-3.47c-.202-.583-.274-.655-.516-.702l-.212-.041a.366.366 0 0 1 0-.376 5.869 5.869 0 0 0 1.032.067 5.508 5.508 0 0 0 .938-.067.335.335 0 0 1 0 .376h-.123c-.165 0-.217.093-.217.14 0 .046.17.515.413 1.221l.773 2.156c.248.624.294.81.382 1.031a9.195 9.195 0 0 0 .392-.938l.113-.294a2.785 2.785 0 0 0 .062-.418 1.392 1.392 0 0 0 0-.263l-.743-2.063c-.185-.515-.247-.572-.541-.613H62a.304.304 0 0 1 .042-.377 6.281 6.281 0 0 0 .974.067 4.425 4.425 0 0 0 .913-.067.325.325 0 0 1 0 .377h-.118c-.104 0-.212.093-.212.139a.691.691 0 0 0 .067.315l.248.66a1.588 1.588 0 0 0 .206.587 5.673 5.673 0 0 1 .247-.593l.073-.211a3.646 3.646 0 0 0 .18-.717c0-.051-.03-.087-.16-.124l-.206-.077c-.082-.082-.046-.289 0-.376a3.496 3.496 0 0 0 .753.067 3.863 3.863 0 0 0 .825-.067.407.407 0 0 1 0 .376l-.232.077c-.278.073-.315.083-.593.666-.186.392-.361.856-.459 1.108a1.95 1.95 0 0 0-.19.516c0 .052 0 .072.071.258l.392.985c.17.562.268.815.32.954.371-1.13.727-2.341 1.109-3.543a4.203 4.203 0 0 0 .237-.84c0-.057-.093-.083-.16-.13l-.196-.04a.423.423 0 0 1 0-.377 4.126 4.126 0 0 0 .805.067 3.192 3.192 0 0 0 .732-.067c.046.088.093.289 0 .376zM68.287 100.523c-.222 0-.268-.057-.201-.315l.216-.716a9.623 9.623 0 0 1 .32-1.078c.082.196.165.613.268 1.031l.201.779c.067.258 0 .314-.144.314h-.66m.706.516c.263 0 .34 0 .366.175l.191.846a2.377 2.377 0 0 1 .176.655c0 .057-.042.119-.196.15l-.274.056a.222.222 0 0 0 .031.325h2.249a.428.428 0 0 0 .036-.325l-.34-.056c-.274-.088-.356-.294-.485-.867l-1.099-3.821c-.19-.696-.289-1.031-.35-1.346 0-.119-.057-.196-.202-.196a1.418 1.418 0 0 1-.65.598 5.203 5.203 0 0 1-.32 1.259l-.69 2.34c-.217.718-.35 1.182-.485 1.579-.134.397-.289.454-.516.48l-.17.03c-.067.078-.093.274 0 .325h1.723c.087-.051.067-.263 0-.325l-.253-.056c-.19-.031-.248-.093-.248-.15a1.712 1.712 0 0 1 .037-.371l.283-1.13c.062-.175.067-.175.279-.175zM73.108 103.364a2.063 2.063 0 0 1-1.335-.37 3.723 3.723 0 0 1-.258-1.548c.072-.14.258-.14.3-.03.159.649.685 1.546 1.355 1.546a.897.897 0 0 0 .856-1 1.939 1.939 0 0 0-1.083-1.547 2.15 2.15 0 0 1-1.17-1.888 1.722 1.722 0 0 1 1.8-1.872 3.202 3.202 0 0 1 .892.176c.118 0 .196.046.278.061a6.255 6.255 0 0 1 .134 1.383.165.165 0 0 1-.294.046c-.134-.49-.464-1.196-1.031-1.196a.789.789 0 0 0-.81.871 1.33 1.33 0 0 0 .712 1.124l.516.335a2.31 2.31 0 0 1 1.067 1.976 1.836 1.836 0 0 1-1.929 1.933zM77.13 100.523c-.205 0-.22-.057-.2-.315l.237-.716a6.776 6.776 0 0 1 .31-1.078c.082.196.154.613.283 1.031l.196.779c.072.258 0 .314-.15.314h-.675m.706.516c.279 0 .356 0 .392.175l.196.846a4.254 4.254 0 0 1 .165.655c0 .057-.062.119-.221.15l-.253.056a.222.222 0 0 0 .026.325H80.4a.3.3 0 0 0 .026-.325l-.33-.056c-.283-.088-.356-.294-.516-.867l-1.077-3.821a24.045 24.045 0 0 1-.361-1.346c0-.119-.062-.196-.201-.196a1.382 1.382 0 0 1-.655.598 3.811 3.811 0 0 1-.3 1.259l-.716 2.34c-.212.718-.351 1.182-.464 1.579-.114.397-.305.454-.516.48l-.186.03c-.062.078-.082.274 0 .325h1.697c.088-.051.082-.263.067-.325l-.273-.056c-.186-.031-.258-.093-.258-.15a1.99 1.99 0 0 1 .03-.371l.305-1.13c.026-.175.082-.175.263-.175z" class="cls-1" style="fill:#fff;stroke-width:.515691" transform="translate(-28.97 -64.218)"/><path d="M82.21 99.409c0 .32.057.33.14.33.18 0 .515-.371.608-.567a15.47 15.47 0 0 0 1.032-1.66.35.35 0 0 0 .108-.238c0-.046 0-.082-.114-.14h-.206a.304.304 0 0 1 .052-.376 7.132 7.132 0 0 0 .974.067 6.26 6.26 0 0 0 .95-.067.304.304 0 0 1 0 .377 2.46 2.46 0 0 0-.671.16 4.363 4.363 0 0 0-1.135 1.232l-.376.516a.335.335 0 0 0-.093.227 1.929 1.929 0 0 0 .268.603c.387.712.861 1.66 1.403 2.543.196.355.356.417.577.448l.227.057a.33.33 0 0 1 0 .325h-2.372c-.087 0-.087-.263 0-.325l.18-.057a.206.206 0 0 0 .15-.093.48.48 0 0 0-.072-.232c-.026-.036-.35-.686-.459-.835l-.397-.805c-.31-.515-.438-.758-.588-.758-.15 0-.206.134-.206.686v1.032c0 .881.057.943.412 1.031l.227.057a.397.397 0 0 1 0 .325h-2.372a.361.361 0 0 1 0-.325l.237-.057c.336-.083.397-.144.397-1.031v-3.641c0-.908-.061-.965-.397-1.057h-.237a.253.253 0 0 1 0-.377 8.968 8.968 0 0 0 1.181.067 9.705 9.705 0 0 0 1.191-.067.516.516 0 0 1 0 .377h-.227c-.355.092-.412.15-.412 1.057zM87.821 101.792c0 .917.057.98.413 1.067l.216.057a.289.289 0 0 1 0 .325h-2.356a.31.31 0 0 1 0-.325l.211-.057c.335-.088.402-.15.402-1.067v-3.61c0-.913-.067-.97-.402-1.032l-.211-.041a.407.407 0 0 1 0-.376 10.479 10.479 0 0 0 2.367 0 .356.356 0 0 1 0 .376l-.217.041c-.356.072-.413.13-.413 1.032zM61.361 108.795c0 .108 0 .108.14.108h.298c.263 0 .279 0 .366-.227v-.119a.242.242 0 0 1 .17 0v.898a.113.113 0 0 1-.17 0v-.088c-.087-.186-.103-.248-.366-.248h-.304c-.14 0-.14 0-.14.145v.516a.717.717 0 0 0 .063.412.748.748 0 0 0 .515.119c.397 0 .552-.062.815-.516.067 0 .186 0 .206.046a1.98 1.98 0 0 1-.21.666h-2.512c-.067 0-.067-.14 0-.165h.232c.17 0 .237-.067.237-.449v-1.583c0-.387-.067-.397-.237-.46l-.119-.03c-.041 0-.041-.108 0-.124h2.29a4.853 4.853 0 0 0 .098.676.48.48 0 0 1-.191 0 1.114 1.114 0 0 0-.186-.356c-.087-.093-.232-.108-.469-.108h-.371c-.14 0-.14 0-.14.139zM63.97 110.558a1.47 1.47 0 0 1-.783-.185 1.155 1.155 0 0 1-.145-.681c0-.041.13-.041.165 0a.964.964 0 0 0 .836.675.443.443 0 0 0 .48-.428c0-.35-.362-.551-.64-.69a.985.985 0 0 1-.712-.805c0-.474.423-.815 1.104-.815a3.094 3.094 0 0 1 .515.057.366.366 0 0 1 .145.057 1.48 1.48 0 0 1 .103.618.356.356 0 0 1-.18 0c-.088-.232-.274-.551-.625-.551a.438.438 0 0 0-.48.412c0 .175.186.356.44.475l.283.154a.954.954 0 0 1 .675.84c.016.527-.453.867-1.18.867zM66.508 107.98c0-.088 0-.098-.13-.098h-.267c-.367 0-.46.175-.588.464a.418.418 0 0 1-.186 0c.098-.32.103-.578.17-.763h.134c.041 0 0 .087.361.087h1.759c.304 0 .366 0 .412-.087h.062a.083.083 0 0 1 .083.056 3.264 3.264 0 0 0-.083.733.376.376 0 0 1-.17 0c-.088-.263-.129-.464-.516-.464h-.278c-.103 0-.103 0-.103.098v1.882c0 .381 0 .443.206.459h.201v.165h-1.542c-.057 0-.057-.114 0-.165h.217c.17 0 .232-.078.232-.46zM67.988 110.218a.387.387 0 0 1 .412-.377.35.35 0 0 1 .356.377.33.33 0 0 1-.356.32c-.227 0-.412-.103-.412-.32zM70.566 109.919c0 .325 0 .392.227.402h.206c.047.052.047.15 0 .165h-1.521c-.036 0-.036-.113 0-.165h.19c.233 0 .264-.077.264-.402v-1.382c0-.279-.031-.35-.227-.366l-.227-.031c0-.031-.036-.119 0-.15.19-.026.402-.093.619-.108.216-.016.371-.155.412-.155a.088.088 0 0 1 .057.062zM73.727 108.851a1.64 1.64 0 0 1-.68 1.295 3.017 3.017 0 0 1-1.377.613c-.073-.061-.073-.134-.042-.165a1.702 1.702 0 0 0 1.398-1.691c0-.346-.108-.939-.516-.939-.206 0-.35.238-.35.475 0 .366.15.742.474.768h.14a.186.186 0 0 1 0 .088.645.645 0 0 1-.48.15.743.743 0 0 1-.758-.753.939.939 0 0 1 1.031-.929 1.073 1.073 0 0 1 1.16 1.088zM76.156 108.851a1.645 1.645 0 0 1-.655 1.295 3.172 3.172 0 0 1-1.387.613c-.067-.061-.088-.134-.057-.165a1.697 1.697 0 0 0 1.393-1.691c0-.346-.088-.939-.516-.939-.206 0-.345.238-.345.475 0 .366.17.742.515.768h.124a.268.268 0 0 1 0 .088.655.655 0 0 1-.474.15.743.743 0 0 1-.769-.753.949.949 0 0 1 1.032-.929 1.057 1.057 0 0 1 1.14 1.088zM77.956 107.82a4.033 4.033 0 0 0 .737-.03.382.382 0 0 1 0 .092c-.123.14-.252.376-.464.675l-1.33 2.202a.32.32 0 0 1-.258-.165l1.263-1.918a.913.913 0 0 0 .15-.33c0-.067-.062-.067-.15-.067h-1c-.263 0-.31 0-.407.186a.093.093 0 0 1-.165-.026c.056-.222.123-.475.175-.65a2.733 2.733 0 0 0 .557.031z" class="cls-1" style="fill:#fff;stroke-width:.515691" transform="translate(-28.97 -64.218)"/></svg>