<svg xmlns="http://www.w3.org/2000/svg" xml:space="preserve" width="414.27731" height="586.42133" viewBox="0 0 414.27731 586.4213"><defs><clipPath id="a" clipPathUnits="userSpaceOnUse"><path d="M0 842h595.22V0H0Z"/></clipPath></defs><g clip-path="url(#a)" transform="matrix(1.33333 0 0 -1.33333 -189.672 856.925)"><path d="m297.603 642.694-155.349-28.497.314-17.59c2.277-128.45 15.036-263.647 140.923-380.506l14.248-13.223 14.126 13.353c125.902 119 138.437 247.833 140.786 380.376l.311 17.592-155.359 28.495" style="fill:#000;fill-opacity:1;fill-rule:nonzero;stroke:none"/><path d="m297.603 632.152-144.818-26.565.157-8.794c2.239-126.217 14.709-259 137.609-373.087l7.121-6.612 7.066 6.675c122.971 116.238 135.228 242.777 137.538 373.024l.157 8.794-144.83 26.565" style="fill:#fff;fill-opacity:1;fill-rule:nonzero;stroke:none"/><path d="m297.603 627.285-139.955-25.67.082-4.738c1.12-63.059 4.893-130.318 24.76-194.89 20.707-67.288 57.117-124.46 111.317-174.772l3.836-3.56 3.806 3.593c54.916 51.915 91.532 109.514 111.933 176.097 19.287 62.946 22.982 130.217 24.106 193.532l.083 4.738-139.968 25.67m.006-395.973C181.514 339.081 165.725 461.167 163.316 596.976l134.287 24.631 134.298-24.631c-2.408-135.809-16.459-254.286-134.292-365.664" style="fill:#baa87a;fill-opacity:1;fill-rule:nonzero;stroke:none"/><path d="m297.609 231.312-.006 390.295 134.298-24.631c-2.408-135.809-16.459-254.286-134.292-365.664" style="fill:#fff;fill-opacity:1;fill-rule:nonzero;stroke:none"/><path d="M297.609 621.607h-.006l-134.287-24.631c2.409-135.809 18.198-257.895 134.293-365.664v390.295" style="fill:#6f0f6c;fill-opacity:1;fill-rule:nonzero;stroke:none"/><path d="M297.634 316.01c-17.348 0-31.455-14.112-31.455-31.46 0-8.092 3.113-15.806 8.777-21.712 6.013-6.28 14.067-9.743 22.678-9.743 8.259 0 16.073 3.207 22.006 9.025 6.091 5.975 9.45 13.937 9.45 22.43 0 17.348-14.11 31.46-31.456 31.46m-18.593-51.839c1.507 1.425 3.463 3.262 4.62 4.36a20.937 20.937 0 0 1 10.11-4.913c.125-.025.253-.038.383-.059.487-.08.973-.163 1.468-.21a20.05 20.05 0 0 1 2.012-.097c.667 0 1.329.03 1.983.097.461.042.913.118 1.371.189.151.025.304.042.449.071 3.658.659 7.06 2.26 9.927 4.708l4.281-4.708c-5.043-4.351-11.336-6.821-18.011-6.821-6.967 0-13.455 2.68-18.593 7.383m-9.095 18.706h11.711v-11.16c-.21-.201-.457-.432-.748-.713-1.065-.997-2.902-2.729-4.432-4.171-3.848 4.574-6.163 10.141-6.531 16.044m27.688 29.438c7.035 0 13.445-2.644 18.342-6.975l-4.572-4.573a20.948 20.948 0 0 1-9.955 4.733c-.148.029-.303.042-.453.071-.457.071-.914.142-1.375.192a20.8 20.8 0 0 1-4.008-.004c-.517-.05-1.025-.134-1.534-.217-.113-.025-.225-.038-.333-.055a21.032 21.032 0 0 1-10.194-5.014c-1.122 1.119-3.275 3.278-4.58 4.582 4.936 4.494 11.472 7.26 18.662 7.26m27.662-25.745H313.54v11.111c.673.674 3.606 3.605 5.035 5.043a27.629 27.629 0 0 0 6.721-16.154m-15.449 10.545v-25.121a17.29 17.29 0 0 0-10.368-4.867v34.859a17.41 17.41 0 0 0 10.368-4.871m-14.058 4.871v-34.859c-3.934.414-7.556 2.1-10.443 4.942v24.97c2.887 2.838 6.509 4.527 10.443 4.947m-14.132-4.841V286.57h-11.686a27.632 27.632 0 0 0 6.428 15.835l5.258-5.26m31.969-25.822c-.027.03-.069.075-.086.097v11.457h11.778c-.382-6.204-2.872-11.981-7.023-16.652-1.321 1.442-3.608 3.941-4.669 5.098" style="fill:#6f0f6c;fill-opacity:1;fill-rule:nonzero;stroke:none"/><path d="M301.437 263.609c-.145-.029-.298-.046-.449-.071-.458-.071-.91-.147-1.371-.189a19.462 19.462 0 0 0-1.983-.097c-.679 0-1.345.03-2.012.097-.495.047-.981.13-1.468.21-.13.021-.258.034-.383.059a20.937 20.937 0 0 0-10.11 4.913c-1.157-1.098-3.113-2.935-4.62-4.36 5.138-4.703 11.626-7.383 18.593-7.383 6.675 0 12.968 2.47 18.011 6.821l-4.281 4.708a20.944 20.944 0 0 0-9.927-4.708m12.103 19.268V271.42c.017-.022.059-.067.086-.097 1.061-1.157 3.348-3.656 4.669-5.098 4.151 4.671 6.641 10.448 7.023 16.652H313.54m-31.883-11.16v11.16h-11.711c.368-5.903 2.683-11.47 6.531-16.044 1.53 1.442 3.367 3.174 4.432 4.171.291.281.538.512.748.713m17.822-4.59a17.29 17.29 0 0 1 10.368 4.867v25.121a17.41 17.41 0 0 1-10.368 4.871v-34.859m-5.733 38.36c.108.017.22.03.333.055.509.083 1.017.167 1.534.217a20.8 20.8 0 0 0 4.008.004c.461-.05.918-.121 1.375-.192.15-.029.305-.042.453-.071a20.948 20.948 0 0 0 9.955-4.733l4.572 4.573c-4.897 4.331-11.307 6.975-18.342 6.975-7.19 0-13.726-2.766-18.662-7.26 1.305-1.304 3.458-3.463 4.58-4.582a21.032 21.032 0 0 0 10.194 5.014m19.794-12.15v-6.767h11.756a27.629 27.629 0 0 1-6.721 16.154c-1.429-1.438-4.362-4.369-5.035-5.043v-4.344m-31.883 3.808-5.258 5.26a27.632 27.632 0 0 1-6.428-15.835h11.686v10.575m3.689-25.076v24.97c2.887 2.838 6.509 4.527 10.443 4.947v-34.859c-3.934.414-7.556 2.1-10.443 4.942" style="fill:#baa87a;fill-opacity:1;fill-rule:nonzero;stroke:none"/><path d="M209.422 571.791s-1.023 5.807-1.069 6.075c.115.255 7.406 16.922 7.406 16.922l-.865-.154-6.878-1.213-.03-1.031c.654-.182 1.084-.493 1.283-.913.05-.115.09-.238.113-.365.11-.625-.128-1.355-.373-1.896 0-.002-2.457-5.594-3.293-7.502-.863.968-7.615 8.601-7.615 8.601-.686.77-1.927 1.022-3.576.73l-4.878-.861-.53-.092-6.549-1.153-.013-1.035c.554-.139.893-.362 1.04-.682.359-.79-.384-2.254-.979-3.436l-.429-.874.008.013-3.698-7.264-1.096 6.216-.099.518c-.308 1.642-.731 3.892.684 4.688l-.334.989-7.548-1.329.012-1.041c1.621-.305 1.989-2.543 2.256-4.177l.09-.517 2.612-14.826.094-.519c.312-1.645.738-3.905-.683-4.735l.346-.984 7.546 1.334-.013 1.037c-1.617.298-1.976 2.465-2.261 4.205l-.086.534-1.273 7.193 10.406-9.844c1.023-.96 3.138-1.383 5.144-1.027l3.7.652.025 1.029c-2.256.653-3.805 1.477-5.176 2.759-.008-.003-8.208 7.568-9.525 8.777.286.53 5.591 10.537 6.962 13.119l.597-.202c1.935-.646 2.897-1.73 4.226-3.232.025-.027 7.827-8.731 8.314-9.272l1.001-5.694s.206-1.082.244-1.311c.268-1.49.392-3.04-.764-3.912l.384-.952 7.522 1.378.104 1.004c-1.899.968-2.073 1.939-2.486 4.272" style="fill:#fff;fill-opacity:1;fill-rule:nonzero;stroke:none"/><path d="m261.208 603.471-.937-.598c-.408-.281-.998-.418-1.574-.518 0 0-15.635-2.754-15.648-2.759-.006.005-.392-.013-.392-.013l-1.402.035-.258-.44-.662-5.887a14.59 14.59 0 0 1-2.145 1.837c-3.201 2.229-7.191 3.056-11.242 2.322-4.223-.646-7.877-2.838-10.285-6.184-2.235-3.105-3.103-6.828-2.459-10.481 1.419-8.047 8.858-12.989 17.304-11.494 8.378 1.476 13.828 8.909 12.413 16.934a13.638 13.638 0 0 1-3.314 6.758l.795.962c.838 1.108 2.295 1.894 4.114 2.215 0 0 2.302.406 2.996.531.153-.877 3.014-17.071 3.014-17.071s.168-.913.203-1.117c.275-1.544.459-3.365-.765-4.092l.342-.98 7.613 1.341.122 1.018c-1.727.647-2.104 2.004-2.467 4.059-.009.041-2.972 16.835-3.121 17.711l3.075.544c1.71.301 2.687.072 3.169-.755l.742-1.266.252 1.487.517 5.901m-30.161-30.394c-5.937-1.048-10.589 3.861-11.494 9.015-1.042 5.909 2.082 10.55 7.779 11.559 6.113 1.071 10.395-3.92 11.319-9.165 1.032-5.841-2.023-10.422-7.604-11.409M274.555 605.838c-4.228-.643-7.875-2.837-10.282-6.183-2.232-3.111-3.106-6.831-2.46-10.479 1.416-8.041 8.854-12.983 17.301-11.496 8.377 1.477 13.829 8.918 12.412 16.937-.633 3.608-2.672 6.772-5.727 8.899-3.203 2.23-7.198 3.056-11.244 2.322m4.098-24.367c-5.932-1.047-10.588 3.861-11.498 9.012-1.041 5.907 2.09 10.55 7.786 11.556 6.112 1.071 10.394-3.916 11.321-9.168 1.03-5.833-2.031-10.414-7.609-11.4" style="fill:#fff;fill-opacity:1;fill-rule:nonzero;stroke:none"/><path d="M316.995 594.481c-2.621 1.81-5.095 3.511-4.717 5.631.505 2.863 4.241 2.357 4.987 2.224 2.09-.365 4.146-1.638 5.243-3.251l.625-.918 1.01 5.714-.298.153c-1.711.89-3.61 1.522-5.639 1.878-4.603.811-10.309-.086-11.231-5.294-.816-4.623 2.88-7.124 6.137-9.33 2.732-1.844 5.092-3.439 4.659-5.886-.404-2.284-3.514-2.995-5.604-2.628-2.817.501-5.62 2.168-7.49 4.463l-.882 1.077.356-6.574.207-.123c1.964-1.148 4.24-1.952 6.746-2.389 5.866-1.036 11.292 1.848 12.099 6.43.717 4.063-2.964 6.595-6.208 8.823" style="fill:#000;fill-opacity:1;fill-rule:nonzero;stroke:none"/><path d="m377.533 594.825-6.69 1.182-.387-.914c1.543-1.269 1.362-2.484 1.015-4.46-.009-.041-1.98-11.214-2.357-13.354-1.102 2.046-10.185 18.853-10.185 18.853.01-.019-.386.829-.386.829-.027.047-.366.927-.366.927l-.09.239-.274.176-5.439.981-.371-1.003c1.289-1.178 1.218-2.503.847-4.613l-2.67-15.156c-.376-2.113-.596-3.388-2.576-4.121l-.079-.031.02.056c-1.673 1.258-2.064 3.174-2.482 5.204l-.118.581-4.532 21.166-.3.056-6.003 1.058-.308-.96c.377-.196.597-.422.676-.686.154-.566-.354-1.397-.802-2.136-.105-.167-9.244-14.887-9.244-14.887a137.5 137.5 0 0 1-.306-.51c-1.097-1.839-2.042-3.432-4.073-4.039l.032-.993 6.99-1.235.331.953c-.673.395-.819.704-.874.906a1.198 1.198 0 0 0-.004.472c.101.541.487 1.237.966 2.048 0 .002 2.162 3.709 2.759 4.735.564-.101 8.401-1.481 8.962-1.581.104-.548 1.139-5.911 1.139-5.911.214-1.077.335-1.676.273-2.038-.084-.456-.441-.547-1.256-.754l.015-.998 7.788-1.374.01.028.475-.116 6.807-1.211.316.932c-1.549 1.31-1.368 2.526-1.018 4.509.006.037 2.029 11.504 2.412 13.649 1.087-2.03 9.497-17.668 9.497-17.668 1.234-2.353 2.248-4.01 4.966-5.493l.554-.303 3.864 21.932c.378 2.113.599 3.39 2.528 4.09l-.052.983m-39.115-6.296-6.178 1.091c.541.876 3.603 5.89 4.496 7.348.338-1.677 1.48-7.437 1.682-8.439M398.677 566.961l1.579 8.953.557 1.921-.423.316-5.818 1.024-.341-.944c1.27-.785 1.127-2.21.79-4.139 0 0-.782-4.413-.904-5.08-1.584-.141-3.28-.109-4.947.184-5.844 1.033-9.614 6.368-8.601 12.149.993 5.615 5.797 8.816 11.686 7.774 1.359-.236 4.678-1.034 6.051-3.261l.625-1.012.322 1.15.835 4.733-.34.14c-2.017.807-3.958 1.369-5.94 1.719-9.656 1.699-17.11-2.664-18.554-10.859-1.44-8.14 3.883-14.497 13.545-16.204 3.031-.534 5.974-.504 9.097-.472l.691.008.013.555.077 1.345" style="fill:#000;fill-opacity:1;fill-rule:nonzero;stroke:none"/><path d="m423.65 565.751-.127.59-4.528 21.181-.302.052-6.004 1.056-.305-.959c.382-.198.601-.421.677-.68.156-.572-.35-1.405-.801-2.136l-9.242-14.899c-.004 0-.301-.507-.301-.507-1.099-1.842-2.051-3.439-4.082-4.044l.031-.991 6.993-1.235.327.951c-.709.421-.979.792-.872 1.384.088.487.419 1.118.96 2.046 0 0 2.167 3.711 2.765 4.731.562-.097 8.397-1.481 8.957-1.577.104-.55 1.145-5.908 1.145-5.908.216-1.082.335-1.681.272-2.048-.084-.455-.444-.541-1.259-.749l.012-1 7.787-1.373.374.921c-1.667 1.259-2.059 3.169-2.477 5.194m-6.65 8.925c-.983.176-5.187.917-6.173 1.086.538.88 3.61 5.898 4.493 7.352.332-1.668 1.478-7.433 1.68-8.438M290.213 564.498h-3.223v4.86l2.687.183c1.471 0 2.478-.171 3.253-1.043l.61-.693.09.924v3.849l-.605-.084-.948-.108-.289.004h-9.531l-.122-.771c1.149-.428 1.13-2.066 1.115-3.383l-.004-.399v-11.23l.004-.396c.015-1.247.034-2.955-1.109-3.354l.116-.773h5.628l.127.771c-.92.344-1.035 1.526-1.035 2.652 0 .199.002.4.006.593l.007.507v5.04h2.014c.857 0 1.83.008 2.18-.646l.656-1.237.092 1.401v3.554l-.599-.082-1.12-.139M294.888 556.092c-1.241 0-2.255-.931-2.255-2.078 0-1.32.955-2.314 2.228-2.314 1.195 0 2.169.996 2.169 2.222 0 1.18-.978 2.17-2.142 2.17M309.679 554.777c-4.683 0-7.213 4.092-7.213 7.939 0 4.104 2.719 6.976 6.622 6.976 1.794 0 3.637-.567 5.318-1.649l.542-.339v4.342l-.271.063c-2.164.516-3.91.756-5.501.756-6.363 0-10.808-4.361-10.808-10.598 0-6.576 4.496-10.657 11.728-10.657 1.775 0 3.336.312 4.652.92l.116.061 2 4.549-1.01-.529c-1.463-.836-3.721-1.834-6.175-1.834M320.229 556.092c-1.243 0-2.257-.931-2.257-2.078 0-1.32.956-2.314 2.225-2.314 1.196 0 2.17.996 2.17 2.222 0 1.18-.979 2.17-2.138 2.17" style="fill:#000;fill-opacity:1;fill-rule:nonzero;stroke:none"/><path d="M407.455 499.297c-6.227 9.747-5.959 29.785-3.789 41.696-5.957-2.706-11.107-10.152-12.914-14.212-2.482 4.781-7.194 12.759-18.231 20.542-11.035 7.783-25.95 13.032-41.516 7.344 9.571-2.166 20.403-6.903 30.94-14.93-.037-.117-.069-.21-.069-.21a22.807 22.807 0 0 1-1.079-7.007c0-4.872 3.622-14.529 5.704-20.32-2.841 6.917-11.505 19.314-39.759 20.289-11.487.392-17.303 5.929-20.616 15.553-1.289-2.853-2.75-9.435-2.75-12.946 0-3.4.339-9.206 3.693-14.205a82.29 82.29 0 0 1-1.909 1.842c-6.511 7.075-13.502 12.246-21.214 15.652-9.762 4.446-25.029 4.144-35.715-1.471.021.014.042.031.059.04 0 0-4.643-2.591-7.081-5.027.813 3.513 3.182 8.387 7.041 11.64-21.526 4.467-34.893-10.473-37.985-19.591-1.009-2.985-1.543-6.322-1.543-9.657 0-4.727 1.123-9.217 3.197-13.043-3.054.226-6.299-.173-9.976-1.331-10.428-3.284-16.193-12.722-17.141-20.104 0 0-1.094-5.461.021-11.745-4.58-6.876-5.112-13.905-5.135-14.307 0 0-.482-7.087 1.346-11.963 3.045 3.252 7.512 5.79 9.049 6.127l-.665-3.196s-.599-5.165.212-8.276c5.28 4.735 11.779 6.767 13.051 6.965 2.112-14.817 13.283-20.301 16.658-21.54-6.678-4.427-13.467-11.727-14.881-23.545l-.31-5.069c0-14.702 7.957-24.924 15.37-31.568 4.942-5.551 26.093-18.585 30.56-24.074 4.464-5.483 8.733-14.212 9.747-25.38 2.637 3.043 6.498 12.183 6.169 18.186 6.014-5.597 13.353-11.256 30.801-11.575 17.451-.318 28.496 13.651 32.915 26.123-2.947-1.123-12.464-4.398-12.464-4.398-.159-.054-10.483-3.484-21.941-1.916-7.053 16.225-22.682 22.295-39.429 25.179-7.861 1.355-20.759 4.563-29.642 11.728-.365.452-.732.9-1.066 1.378-2.651 3.844-3.999 8.243-3.999 13.077 0 1.819.191 3.721.568 5.668a33.029 33.029 0 0 0 1.537 4.141c-.04-.654-.084-1.303-.084-1.982 0-2.378-.241-12.364 5.75-18.397 4.689 1.22 10.403 5.584 12.812 9.345 1.635-11.236 10.559-19.901 28.225-25.783-1.624 3.647-2.398 7.952-2.654 9.416 2.036-2.62 4.949-4.708 9.32-6.189 10.037-3.395 22.576-1.207 28.336 2.969-1.497.499-5.534 2.587-6.762 3.468 5.265-1.346 11.726-2.432 22.102 1.869 3.073 1.275 5.425 3.145 7.236 5.157-3.475-10.419-14.507-16.397-24.175-16.95 0 0-4.518-.424-5.711-.49 6.367-11.374 23.685-18.146 38.833-14.729 13.847 3.123 19.725 15.617 21.889 21.545-.527-7.684-3.732-17.65-7.593-24.55 14.011 2.025 33.191 14.551 35.505 33.379l.34 5.372c0 8.707-2.914 16.601-8.771 23.992 5.757-2.503 10.9-6.293 17.399-11.982 1.355 15.977-5.889 24.376-8.239 27.604 14.028 6.695 26.555 22.199 28.526 38.241 2.186 17.824-2.847 29.904-8.103 38.131m-80.151-15.362c1.263-3.321 1.892-6.304 1.922-8.899-1.297.233-2.663.485-2.663.485-7.198 1.318-11.371 3.492-14.334 5.646-2.569 3.499-5.571 8.836-7.357 13.601 8.134-1.514 15.98-4.652 21.209-8.553.515-.75.929-1.507 1.223-2.28m.912-30.959c0-2.981-.864-5.484-1.633-7.165a27.58 27.58 0 0 0-3.128 2.271c-3.819 4.54-6.249 9.453-6.293 11.826 2.033.098 6.328-.769 10.422-2.813.396-1.34.632-2.71.632-4.119m-62.769-8.611c-.172.805-.27 1.574-.272 2.463 0 5.896 4.955 8.057 4.955 8.057l4.765 1.799a84.174 84.174 0 0 0 5.11 1.765c-2.926-5.146-8.401-11.431-14.558-14.084m19.233 38.209c-.005 0-.193-.161-.193-.161-2.686-2.517-11.261-6.065-15.323 2.467-2.017 4.236-.503 10.34 1.343 13.011 4.373 6.326 10.756 10.091 19.077 11.29-4.21-2.191-8.543-5.477-12.857-10.357 1.346-.292 7.273-.338 16.857-2.153-3.274-7.326-6.328-11.969-8.904-14.097m3.555-44.36c5.161 7.276 10.028 20.424 11.962 35.896 2.397-14.089 7.294-25.849 11.529-31.655 0 0 5.581-7.368 7.372-9.735-.558-1.976-1.126-2.995-6.6-4.825-4.632-1.543-7.871-3.985-9.837-7.341.696 3.76 1.865 6.11 1.891 6.152l.819 1.556s-6.487 10.25-17.136 9.952m17.244-35.733c-.889.726-1.472 1.296-1.864 1.766 1.93.322 4.33.52 4.33.52 2.847.31 13.976-.713 17.755-5.211.346-.42.638-.865.926-1.309l-1.058-.121c-.159-.017-11.911-1.232-20.089 4.355m91.221 64.527c-.939-5.715-3.554-10.97-7.554-15.502.033 3.384.167 8.393-2.785 15.477.382 2.509.747 7.46.747 7.46 0 10.204-4.199 19.099-7.169 24.152 3.455-2.343 9.848-7.219 11.422-9.508 3.939-4.792 5.829-10.133 5.829-16.353 0-1.808-.168-3.737-.49-5.726" style="fill:#000;fill-opacity:1;fill-rule:nonzero;stroke:none"/><path d="M325.786 396.294c-.243-.025-24.502-2.666-29.149 15.947-2.809 11.243 1.626 19.829 1.67 19.918l.256.48-.346.417c-.052.069-5.756 6.775-14.684 1.478-5.685-3.373-8.911-2.847-10.229-2.325 1.121 1.371 3.802 4.763 8.594 11.332 7.397 10.152 11.498 23.877 12.923 45.601 0 0 .134 3.454.134 6.567-.54-1.558-2.098-4.673-2.978-6.432-.877-1.758-2.701-5.297-6.123-8.122l-.189-.157c-3.436-3.228-7.9-4.853-11.557-5.935-1.49-.406-3.117-.846-5.011-1.354 2.842-.949 7.705-1.796 9.921-1.956-3.49-1.93-7.079-4.678-9.378-8.738 6.091 2.303 11.235 3.672 13.485 3.272.268-.049.976-.172.976-1.683v-.011c0-5.964-10.242-20.792-21.32-23.134a14.284 14.284 0 0 0-4.052 9.974c0 3.18 1.033 6.647 3.557 10.055 4.585 6.188 6.741 12.194 6.741 18.822 0 .308-.004.619-.014.931l-.019.543-.505.193c-2.931 1.113-5.457 4.068-6.589 7.703a14.577 14.577 0 0 0-.662 4.35c0 3.232 1.067 6.504 3.148 9.512 8.268 11.961 23.088 15.367 44.046 10.131l2.243-.564-1.399 1.843c-7.877 10.363-16.407 17.476-26.076 21.748-12.02 5.471-32.763 3.521-41.482-7.221-6.263-7.712-7.452-16.047-7.452-21.269 0-.498.042-.84.059-1.283-2.486 4.392-3.752 8.786-3.752 13.593 0 1.756.159 3.561.471 5.447 1.785 10.689 8.98 15.366 11.722 17.193-15.941 1.017-27.898-11.348-30.757-19.778-.935-2.764-1.446-5.883-1.446-9.063 0-5.574 1.681-11.251 5.273-15.604-3.209 1.018-7.296 1.373-13.342-.527-9.651-3.041-14.992-11.761-15.862-18.58l-.213-1.633 1.425.828c7.672 4.465 18.839 5.561 25.974 2.551 3.264-1.375 6.016-3.297 8.28-5.672-5.813 2.794-17.329 6.255-29.42-1.939-10.269-7.456-11.12-19.555-11.154-20.065l-.107-1.736 1.4 1.034c.09.063 8.224 5.966 14.47 6.607-2.559-3.127-4.246-6.467-5.018-10.181l-.323-1.532 1.44.624c10.125 4.4 20.729.981 24.214-5.05-3.954-1.582-8.685-.398-11.961 1.413l-1.491.824.298-1.675c1.004-5.689 5.395-18.205 24.196-19.324-7.271-2.824-20.393-10.114-22.356-26.539a41.075 41.075 0 0 1-.295-4.851c0-20.681 16.48-32.093 23.813-37.17l4.517-3.018c8.961-5.878 20.631-13.419 24.49-26.316 1.622 5.786.654 11.228-.225 13.642 6.966-7.45 15.621-14.909 33.623-15.1 15.361-.047 26.079 11.733 26.527 12.233l2.107 2.356-2.986-1.048c-.28-.101-27.299-9.249-43.554 8.309 5.979-1.438 11.108-4.352 15.474-7.089-1.725 8.527-12.556 18.232-34.214 21.964-10.065 1.735-28.197 6.439-36.511 18.479-2.883 4.172-4.329 8.902-4.329 14.12 0 1.942.199 3.95.6 6.021 4.314 14.539 14.401 17.717 19.153 18.401-3.346-2.935-9.443-9.819-9.443-21.197 0-2.164.219-4.486.722-6.973l.485-2.402 1.048 2.218c1.453 3.086 4.618 9.801 7.735 12.971a351.119 351.119 0 0 1-.046-2.293c-.069-4.918-.74-12.271-1.857-15.416 5.687 4.365 8.148 8.86 10.285 13.177-.114-1.505-.195-2.964-.195-4.351 0-11.157 4.12-18.602 17.678-23.562l1.564-.569-.51 1.584c-1.249 3.853-1.656 7.781-1.656 11.257 0 1.232.097 2.318.178 3.413 1.575-6.805 4.23-11.626 12.165-14.309 8.993-3.04 18.488-1.552 22.364.478l1.385.725-2.613 1.341c-3.474 1.744-10.71 5.358-13.747 13.626-1.365 3.723-1.776 7.303-1.776 10.275 0 .617.05 1.132.08 1.69.878-4.264 2.85-9.962 7.439-14.804 8.318-8.778 18.916-10.657 29.074-5.152 9.972 5.4 11.77 14.162 11.845 14.531l.209 1.094-1.103-.134" style="fill:#baa87a;fill-opacity:1;fill-rule:nonzero;stroke:none"/><path d="M402.538 496.765c-1.903 3.26-3.547 6.077-4.132 9.785-1.177 7.436-1.481 13.399-1.481 17.596 0 4.523.419 7.781.551 9.263-2.708-2.027-6.456-8.748-7.982-16.606-2.076 9.171-6.865 21.064-18.04 29.015-10.276 7.312-21.633 11.014-33.003 8.849 1.622-.41 32.267-6.828 36.413-33.869-4.494 3.564-10.286 13.29-11.231 18.161-5.008-15.566 10.074-33.383 21.437-41.416 9.639-6.813 14.271-14.797 14.271-24.809 0-1.93-.174-3.936-.516-6.024-2.066-12.587-11.623-23.01-25.926-28.701 7.401 6.239 10.498 13.632 10.75 24.635-1.606-3.017-8.567-9.746-11.565-11.632 2.892 4.781 8.562 15.566 8.874 27.091.008.314.013.631.013.945 0 14.772-9.258 26.905-9.66 27.425l-1.568 2.027s.126-2.876.126-3.394c0-3.658-.654-18.383-9.207-27.129 1.931 5.63 3.388 12.801 3.388 19.835 0 6.479-1.209 12.759-4.348 17.373-6.846 10.061-16.725 14.688-33.048 15.461-14.787.698-19.091 9.799-19.266 10.183l-.9 1.975-.621-2.079c-.013-.059-.646-2.294-.646-5.629 0-5.892 1.976-15.214 12.82-22.039 4.963-3.123 8.959-6.111 11.877-8.829-8.316 6.022-26.326 12.734-46.329-2.497 16.648 2.54 41.124-5.76 45.438-17.143 1.374-3.626 2.062-6.883 2.062-9.751 0-4.19-1.465-7.552-4.392-10.053l-.588-.503.469-.613c2.86-3.72 3.788-7.441 3.788-10.692 0-4.689-1.903-8.379-2.744-9.781-9.504 4.882-16.609 16.709-16.609 21.398 0 .18.005.35.03.505.124.927.568 1.121.944 1.189 2.248.4 7.846-.602 12.925-3.34-1.422 3.656-5.324 6.876-8.815 8.806 2.212.16 7.294.839 10.135 1.956-9.443 1.726-13.928 4.929-16.789 7.289l-.183.157c-3.426 2.825-7.396 9.307-9.023 14.518-.301-3.28.122-9.619.198-10.393 1.823-18.57 6.116-32.592 12.778-41.739 3.297-4.518 5.876-7.922 7.903-10.437-.072-.247-.138-.499-.138-.499-.713-2.618-1.141-4.203-7.9-6.456-7.164-2.39-10.61-6.874-10.833-14.113l-.028-.931.928.096c4.257.462 15.885-1.123 22.704-8.833 4.72-5.341 6.079-12.472 4.037-21.201-2.918-12.442-15.489-19.595-26.4-20.224l-1.934-.109 1.438-1.303c5.537-5.018 16.48-8.687 28.441-5.576 13.619 3.542 19.18 16.057 20.939 21.275 1.218 3.611 1.924 8.772 1.924 13.782 0 3.433-.352 6.766-1.077 9.52 3.916-4.242 6.234-11.18 7.032-21.141.103-1.317.153-2.646.153-3.975 0-8.968-1.916-17.894-4.313-22.521 7.273 2.46 21.6 14.136 23.783 31.875.216 1.751.32 3.466.32 5.143 0 10.28-4.123 19.21-12.613 27.641 10.637-2.651 16.234-6.456 20.254-9.907l1.841-1.584-.521 2.372c-2.183 9.974-11.832 16.754-18.031 19.401 15.758 2.614 36.029 16.799 37.992 40.09.193 2.266.279 4.365.279 6.316 0 12.78-3.754 19.214-6.855 24.523" style="fill:#baa87a;fill-opacity:1;fill-rule:nonzero;stroke:none"/><path d="M295.058 411.848a33.082 33.082 0 0 0-.994 8.04c0 6.408 1.864 11 2.549 12.493-1.105 1.115-5.468 4.777-12.252.755-8.848-5.25-12.693-1.906-12.85-1.763l-.587.53.516.599c.025.032 2.723 3.188 9.143 11.995 6.828 9.368 11.073 24.148 12.7 43.848-1.705-3.444-3.851-6.345-6.394-8.443l-.188-.156c-2.533-2.09-5.182-4.238-11.448-5.942 3.084-.434 8.735-1.174 8.735-1.174s-7.444-3.524-9.64-6.268c3.305 1.197 7.001 1.893 9.066 1.526 1.467-.264 2.312-1.461 2.314-3.283.01-6.627-10.896-22.655-23.069-24.873l-.407-.077-.299.287c-2.897 2.761-4.792 6.921-4.792 11.516 0 3.556 1.134 7.368 3.823 11.001 4.365 5.895 6.419 11.592 6.419 17.857 0 .139-.005.283-.007.424-3.158 1.421-5.839 4.57-7.047 8.46a16.195 16.195 0 0 0-.736 4.834c0 3.561 1.163 7.146 3.438 10.435 8.372 12.105 23.046 15.805 43.473 11.229-7.301 9.144-15.149 15.615-23.995 19.503-11.498 5.251-31.278 3.446-39.549-6.745-8.642-10.641-7.32-23.577-6.915-26.316-4.67 5.075-7.119 12.148-7.119 18.341 0 1.852.166 3.766.495 5.75 1.398 8.383 5.603 13.032 8.932 15.491-12.584-1.719-22.348-11.558-24.821-18.861-.862-2.528-1.327-5.432-1.327-8.419 0-6.401 1.809-12.505 8.101-18.901-5.886 2.335-9.462 3.574-17.346 1.101-8.26-2.608-13.073-9.66-14.423-15.695 7.98 4.017 18.782 4.904 25.894 1.904 4.953-2.088 9.733-5.893 12.07-11.175-2.945 1.627-17.581 11.124-32.908.738-7.413-5.383-9.596-13.535-10.221-17.071 3.106 2.062 10.323 6.395 15.761 5.953l1.673-.132-1.143-1.227c-2.721-2.922-4.469-6.049-5.431-9.475 10.94 3.962 22.211-.194 25.35-7.074l.32-.696-.679-.359c-4.142-2.19-9.085-1.245-12.888.48 1.719-7.177 7.27-16.825 27.781-17.23-1.727-1.321-23.656-6.033-26.238-27.634a40.345 40.345 0 0 1-.287-4.75c0-19.733 15.422-30.411 23.121-35.739l4.48-2.998c8.351-5.48 18.495-12.221 23.135-22.693.021.369.107.754.107 1.119 0 4.603-2.184 9.332-4.188 12.221-2.004 2.889-3.511 4.356-5.035 5.983 2.132-1.22 6.056-4.776 8.117-6.918 7.61-8.175 15.44-17.012 34.874-17.218 10.644-.038 19.094 6.088 22.97 9.483-8.221-2.012-30.414-5.429-43.901 11.643l-1.293 1.639 2.063-.336c5.548-.897 10.573-3.098 14.253-5.358-4.345 6.314-13.13 13.34-31.027 16.422-10.318 1.781-28.919 6.637-37.575 19.163-3.066 4.441-4.609 9.458-4.609 15.018 0 2.066.214 4.217.644 6.431 6.003 20.254 23.156 19.824 23.328 19.816l2.658-.103-2.266-1.402c-.501-.309-10.822-6.879-10.822-21.368 0-1.337.123-2.771.318-4.251 2.577 5.27 5.484 10.427 8.456 12.397l1.293.847-.115-5.622c-.048-3.719-.105-7.282-.71-10.515 3.643 4.231 6.167 7.815 9.215 14.519-.405-3.962-.275-6.578-.275-10.623 0-10.129 3.662-16.745 15.201-21.382-.932 3.472-1.117 6.783-1.117 9.97 0 3.332.61 7.005 1.423 9.646 1.927-10.053 4.367-15.969 12.814-18.828 8.048-2.724 15.726-1.58 19.531-.26-3.774 1.895-11.022 5.719-14.185 14.334-1.455 3.966-1.633 8.184-1.612 10.133.019 1.949.914 7.819 1.624 9.747 0-1.353.57-12.744 8.433-21.046 7.891-8.322 17.521-10.045 27.122-4.841 7.373 3.995 9.95 10.006 10.714 12.363-5.106-.285-25.338-.281-29.717 17.256" style="fill:#ed1a3b;fill-opacity:1;fill-rule:nonzero;stroke:none"/><path d="M395.285 524.154c0 1.489.044 2.679.101 3.719-1.948-3.539-4.681-8.369-5.44-18.55-1.267 6.725-5.622 25.344-19.433 35.175-7.995 5.687-16.047 8.636-24.412 9.223 9.862-3.405 28.438-12.651 30.698-34.602l.157-1.501-1.339.696c-3.879 2.027-8.741 8.699-11.188 13.693.833-11.423 10.966-25.633 21.581-33.139 10.108-7.144 14.963-15.533 14.963-26.058 0-2.038-.184-4.161-.546-6.364-2.427-14.789-13.883-26.955-33.684-31.523 10.358 6.601 14.062 15.257 14.983 22.874-4.336-5.068-8.189-8.314-11.674-9.668l-2.506-.968 1.548 2.191c.1.14 9.843 14.142 10.239 28.793.007.295.011.587.011.88 0 10.768-5.268 20.291-7.877 24.354-.177-6.014-1.677-21.086-12.242-28.986l-2.42-1.811 1.189 2.779c2.448 5.74 4.463 14.296 4.463 22.467 0 6.156-1.144 12.097-4.099 16.443-6.524 9.594-16.027 14.006-31.78 14.749-11.813.562-17.393 6.251-19.547 9.279a22.388 22.388 0 0 1-.258-3.385c0-5.467 1.897-14.042 12.138-20.484 7.027-4.421 16.968-12.797 17.273-17.468-.713 1.013-19.699 22.438-47.845 6.465 16.46.692 37.887-6.878 42.208-18.258 1.452-3.84 2.182-7.305 2.182-10.376 0-4.385-1.535-7.951-4.482-10.724 2.733-3.809 3.691-7.626 3.691-11.001 0-6.492-3.327-11.361-3.375-11.439l-.396-.56-.62.294c-10.341 4.911-18.845 18.524-18.113 23.955.19 1.43.996 2.34 2.266 2.57 2.065.367 5.76-.329 9.064-1.526-2.214 2.142-6.716 4.913-9.454 6.127 2.942.308 5.466.881 8.548 1.315-6.263 1.704-8.916 3.852-11.45 5.942l-.184.156c-2.542 2.098-4.689 4.999-6.393 8.443 1.626-19.7 5.869-34.48 12.698-43.848 3.412-4.681 6.067-8.182 8.113-10.703l.259-.334-.355-1.276c-.85-3.132-1.736-5.167-8.951-7.574-6.197-2.067-9.131-5.761-9.59-11.744 5.129.176 16.3-1.777 23.059-9.421 3.577-4.041 5.372-9.005 5.372-14.815 0-2.461-.324-5.073-.973-7.831-2.912-12.439-14.818-19.814-25.805-21.205 5.547-4.084 14.969-6.771 25.363-4.063 12.853 3.342 18.137 15.252 19.813 20.22 2.251 6.679 2.812 20.082-.535 26.681 7.307-3.657 10.584-12.623 11.571-24.911.105-1.342.157-2.701.157-4.055 0-7.731-1.585-15.322-2.912-19.423 5.61 3.404 17.376 14.547 19.143 28.927.205 1.67.308 3.3.308 4.901 0 10.669-4.592 19.847-14.206 28.559l-2.222 2.016 2.939-.616c10.971-2.318 17.197-5.794 21.603-9.169-3.726 9.739-16.786 16.616-20.442 17.836 11.068.813 39.05 13.376 41.258 39.564.191 2.272.28 4.361.28 6.298 0 12.213-3.505 18.21-6.64 23.587-1.904 3.262-3.7 6.339-4.335 10.348-1.199 7.584-1.516 13.609-1.516 17.86" style="fill:#ed1a3b;fill-opacity:1;fill-rule:nonzero;stroke:none"/></g></svg>