<svg xmlns="http://www.w3.org/2000/svg" width="81.34449mm" height="85.989578mm" viewBox="0 0 81.34449 85.989578"><path d="M117.005 146.593a2.532 2.532 0 0 0-1.238-1.952s-.19-.111-.278-.153a4.433 4.433 0 0 0 .292-2.903c-.339-1.28-1.113-2.18-2.143-2.472-2.935-.816-8.346-2.281-9.218-2.48a3.102 3.102 0 0 0-2.142.287q.227-1.637.352-3.144a99.47 99.47 0 0 0 .144-15.464l-.32-3.756-1.957.329c-3.923.658-7.595.464-13.095-.654 0-.334 0-.825.037-1.016a14.931 14.931 0 0 1 .297-1.687 6.956 6.956 0 0 0 .756-2.523c0-.056.222-.719.357-1.099a25.04 25.04 0 0 1 2.522-4.855c.14-.408-1.113-.886-2.012-1.085a2.977 2.977 0 0 0-2.435.603 2.096 2.096 0 0 0-.296 0 3.014 3.014 0 0 0-.71-.742 3.246 3.246 0 0 0-.58-1.391 1.892 1.892 0 0 0-2.16-.719 3.533 3.533 0 0 0-1.132.658 3.659 3.659 0 0 0-1.966-1.854 2.95 2.95 0 0 0-1.67-1.813 6.418 6.418 0 0 0-2.067-2.875 6.38 6.38 0 0 0-2.069 2.88 2.95 2.95 0 0 0-1.669 1.812 3.659 3.659 0 0 0-1.966 1.855 3.533 3.533 0 0 0-1.131-.658 1.892 1.892 0 0 0-2.161.718 3.246 3.246 0 0 0-.58 1.392 3.014 3.014 0 0 0-.71.741 2.096 2.096 0 0 0-.296 0 2.977 2.977 0 0 0-2.435-.602c-.9.199-2.151.677-2.012 1.085a25.04 25.04 0 0 1 2.509 4.86c.134.38.357 1.043.357 1.098a6.956 6.956 0 0 0 .737 2.514 14.931 14.931 0 0 1 .297 1.687c0 .19.046.682.037 1.016-5.5 1.131-9.172 1.312-13.095.654l-1.943-.315-.302 3.742a99.47 99.47 0 0 0 .163 15.464q.125 1.512.352 3.144a3.102 3.102 0 0 0-2.142-.287c-.872.199-6.283 1.664-9.219 2.48-1.03.293-1.804 1.192-2.142 2.472a4.433 4.433 0 0 0 .292 2.903c-.088.041-.264.148-.278.153a2.532 2.532 0 0 0-1.238 1.952 4.016 4.016 0 0 0 1.498 3.543c1.075.927 2.383.77 3.547.5 1.748 8.732 6.775 16.796 13.684 21.869 8.639 6.316 15.631 7.248 21.905 7.317 6.274-.07 13.267-1.001 21.906-7.317 6.909-5.055 11.95-13.137 13.702-21.868 1.164.268 2.472.412 3.548-.501a4.016 4.016 0 0 0 1.516-3.543z" class="cls-1" style="fill:#fff;stroke-width:.463706" transform="translate(-35.679 -93.833)"/><path d="M115.46 146.88c-.148-.783-.342-.779-.579-.927-.236-.148-1.15-.32-1.706-.538.756-1.168 1.39-2.249 1.085-3.422a1.771 1.771 0 0 0-1.034-1.35c-3.08-.853-8.347-2.276-9.15-2.462-.695-.162-1.488.218-2.109 1.136-.621.919-.26 2.593-.237 3.905.181 10.23-5.981 19.874-14.838 23.584a32.316 32.316 0 0 1-5.259 1.794 41.928 41.928 0 0 0 5.593-4.414c10.08-9.46 13.09-21.822 13.841-30.526a97.842 97.842 0 0 0 .163-15.195l-.153-1.781-.024-.269-.269.046c-4.131.696-7.966.506-13.679-.667a19.044 19.044 0 0 1-2.346-.645c.52-.273.848-.464.969-.723a2.782 2.782 0 0 0 .209-1.192 14.482 14.482 0 0 1 .245-1.813 1.957 1.957 0 0 1 .413-.988 2.523 2.523 0 0 0 .33-1.39 3.288 3.288 0 0 1 .245-1.114 23.742 23.742 0 0 1 1.975-4.025c.167-.208.25-.292-.12-.37a1.516 1.516 0 0 0-1.442.616c-.209.26-.195.288-.339.162a1.201 1.201 0 0 0-1.627.464 1.433 1.433 0 0 0 .041 1.433c.144.12.144.102.144.102 0-.288.176-.57.557-.431.287.102.185.575-.204.575a1.78 1.78 0 0 1-1.053-.228c-.371-.162-.863-.329-.97-.825.465-.07 1.34-.264 1.392-1.233a1.391 1.391 0 0 0-1.053-1.317c-.102 0-.153 0-.092-.144a1.855 1.855 0 0 0-.288-1.317c-.12-.167-.227-.227-.408-.167a1.757 1.757 0 0 0-1.03.97c-.023.083-.041.143-.185.06a1.233 1.233 0 0 0-1.34.268 1.322 1.322 0 0 0 .269 2.036 1.98 1.98 0 0 1-1.359.125 8.477 8.477 0 0 0-1.154-.185 1.642 1.642 0 0 1-.742-.371c-.348-.264-.413-.306-.492-.464-.079-.157-.125-.125.042-.292.167-.167.223-.162.306-.079a1.855 1.855 0 0 0 1.711.432 1.8 1.8 0 0 0 1.016-2.514 2.17 2.17 0 0 0-1.749-1.358c-.162 0-.31 0-.287-.27a1.475 1.475 0 0 0-1.206-1.502c-.185 0-.491.042-.463-.185a2.374 2.374 0 0 0-.677-1.697v-.024.024a2.319 2.319 0 0 0-.659 1.678c0 .227-.287.186-.464.186a1.475 1.475 0 0 0-1.205 1.502c.023.269-.125.25-.288.269a2.17 2.17 0 0 0-1.748 1.359 1.8 1.8 0 0 0 1.016 2.513 1.855 1.855 0 0 0 1.71-.431c.084-.084.144-.084.307.079.162.162.125.143.041.292-.083.148-.143.185-.491.463a1.642 1.642 0 0 1-.742.371 8.477 8.477 0 0 0-1.155.186 1.98 1.98 0 0 1-1.358-.125 1.322 1.322 0 0 0 .26-2.027 1.233 1.233 0 0 0-1.34-.269c-.144.084-.163 0-.186-.06a1.757 1.757 0 0 0-1.03-.97c-.185-.06-.287 0-.408.168a1.892 1.892 0 0 0-.292 1.317c.065.143 0 .125-.088.143a1.391 1.391 0 0 0-1.053 1.317c.042.97.928 1.164 1.392 1.234-.107.496-.599.663-.97.825a1.78 1.78 0 0 1-1.052.227c-.39 0-.492-.463-.204-.575.38-.139.538.144.556.432l.144-.102a1.433 1.433 0 0 0 .042-1.433 1.201 1.201 0 0 0-1.628-.464c-.144.125-.13.097-.338-.162a1.516 1.516 0 0 0-1.443-.617c-.37.079-.287.162-.12.371a23.742 23.742 0 0 1 1.975 4.011 3.288 3.288 0 0 1 .246 1.113 2.523 2.523 0 0 0 .33 1.391 1.957 1.957 0 0 1 .412.988 14.482 14.482 0 0 1 .246 1.813 2.829 2.829 0 0 0 .204 1.192 2.254 2.254 0 0 0 .974.723 19.044 19.044 0 0 1-2.347.645c-5.722 1.177-9.557 1.367-13.688.653l-.27-.046v.269l-.152 1.78a97.842 97.842 0 0 0 .162 15.196c.728 8.722 3.737 21.085 13.818 30.563a41.928 41.928 0 0 0 5.593 4.424 32.46 32.46 0 0 1-5.259-1.795c-8.857-3.71-15.02-13.354-14.838-23.584 0-1.312.38-2.986-.237-3.904-.617-.918-1.39-1.299-2.11-1.136-.811.185-6.07 1.609-9.149 2.462a1.771 1.771 0 0 0-1.034 1.35c-.306 1.173.33 2.253 1.085 3.421-.556.218-1.465.38-1.706.538-.241.158-.431.153-.58.928a2.513 2.513 0 0 0 .965 2.05c.862.732 2.379.055 3.756-.219h.037c1.33 8.81 6.223 17.273 13.369 22.5 8.643 6.32 15.608 6.955 20.992 7.015 5.383-.06 12.348-.695 20.992-7.016 7.14-5.226 12.056-13.688 13.368-22.499h.037c1.391.274 2.894.951 3.756.218a2.513 2.513 0 0 0 .965-2.058zM72.11 110.397a16.309 16.309 0 0 1 4.234-.714 16.309 16.309 0 0 1 4.233.714c.928.31-1.702.57-3.431.784-.408-.283-.64-.464-.65-.464l-.152-.116-.153.116s-.242.19-.65.464c-1.73-.213-4.363-.473-3.431-.784z" class="cls-2" style="fill:#0d0802;stroke-width:.463706" transform="translate(-35.679 -93.833)"/><path d="M76.343 104.753s-1.67.107-1.67 2.1c0 1.526.928 2.185 1.67 2.185.742 0 1.669-.659 1.669-2.185 0-1.993-1.67-2.1-1.67-2.1zm0 3.914c-.534.032-1.507-.538-1.443-1.897.084-1.73 1.429-1.771 1.443-1.771.013 0 1.358.041 1.442 1.771a1.674 1.674 0 0 1-1.442 1.897zM65.835 107.498a.079.079 0 0 1 .028-.111c2.504-1.512 5.495-2.407 9.149-2.732a.088.088 0 0 1 .088.08.083.083 0 0 1-.074.087c-3.627.32-6.599 1.206-9.08 2.704a.079.079 0 0 1-.111-.028z" class="cls-3" style="fill:#aa845a;stroke-width:.463706" transform="translate(-35.679 -93.833)"/><path d="M74.325 107.8c.102.287.246.329-.412.412-.659.084-1.113.246-1.442.288-.33.041-.204-.163-.204-.371a2.319 2.319 0 0 0-.905-2.143c-.208-.12-.292-.204.12-.287.414-.084 1.976-.371 2.677-.413.287 0 .463-.079.329.209-.135.287-.534 1.484-.163 2.304zM69.795 108.704c.246.292.464.463.125.538a26.431 26.431 0 0 0-2.513 1.247c-.288.18.042-1.002-.927-2.444-.167-.204-.288-.246.041-.464a23.464 23.464 0 0 1 2.592-1.154c.408-.149.497-.204.413.083a2.105 2.105 0 0 0 .27 2.194z" class="cls-3" style="fill:#aa845a;stroke-width:.463706" transform="translate(-35.679 -93.833)"/><path d="M66.707 110.568a2.523 2.523 0 0 0-.566-1.892.301.301 0 0 1-.083-.394c.083-.08.167-.102.287.023.12.125.557.658.682 1.915 0 .306.083.598-.186.617-.134-.042-.134-.042-.134-.27zM67.147 111.787a.153.153 0 0 1-.208-.032.144.144 0 0 1 .032-.209 15.863 15.863 0 0 1 7.818-2.782.148.148 0 1 1 0 .297 15.766 15.766 0 0 0-7.642 2.726zM71.766 107.067a1.104 1.104 0 0 0-1.521-.742 1.261 1.261 0 0 0-.557 1.178 1.646 1.646 0 0 0 .626 1.196.927.927 0 0 0 .868.12c.987-.357.695-1.372.584-1.752zm-.603 1.535c-.965.329-1.892-1.503-.76-2.036a.89.89 0 0 1 1.154.584c.107.38.274 1.224-.394 1.452zM86.85 107.498a.079.079 0 0 0-.028-.111c-2.504-1.512-5.495-2.407-9.149-2.732a.088.088 0 0 0-.088.08.083.083 0 0 0 .075.087c3.626.32 6.598 1.206 9.079 2.704a.079.079 0 0 0 .111-.028z" class="cls-3" style="fill:#aa845a;stroke-width:.463706" transform="translate(-35.679 -93.833)"/><path d="M78.36 107.8c-.102.287-.246.329.412.412.659.084 1.113.246 1.443.288.329.041.204-.163.204-.371a2.319 2.319 0 0 1 .927-2.143c.209-.12.292-.204-.12-.287-.413-.084-1.976-.371-2.676-.413-.288 0-.464-.079-.33.209.135.287.51 1.484.14 2.304zM82.89 108.704c-.246.292-.464.463-.125.538a26.431 26.431 0 0 1 2.513 1.247c.288.18-.042-1.002.928-2.444.167-.204.287-.246-.042-.464a23.867 23.867 0 0 0-2.592-1.154c-.413-.149-.496-.204-.413.083a2.105 2.105 0 0 1-.269 2.194z" class="cls-3" style="fill:#aa845a;stroke-width:.463706" transform="translate(-35.679 -93.833)"/><path d="M85.978 110.568a2.523 2.523 0 0 1 .566-1.892.301.301 0 0 0 .084-.394c-.084-.08-.167-.102-.288.023-.12.125-.556.658-.682 1.915 0 .306-.083.598.186.617.134-.042.134-.042.134-.27zM85.538 111.787a.153.153 0 0 0 .209-.032.148.148 0 0 0-.033-.209 15.863 15.863 0 0 0-7.818-2.782.148.148 0 0 0 0 .297 15.766 15.766 0 0 1 7.642 2.726zM81.49 108.82a.927.927 0 0 0 .867-.121 1.646 1.646 0 0 0 .654-1.187 1.261 1.261 0 0 0-.557-1.178 1.104 1.104 0 0 0-1.52.742c-.126.371-.418 1.387.556 1.744zm-.362-1.67a.89.89 0 0 1 1.155-.575c1.131.533.204 2.365-.76 2.036-.669-.237-.502-1.08-.395-1.46zM68.075 104.526c0 .143.041.287-.163.083a.872.872 0 0 1 .928-1.442c.246.102.185-.042.06-.204-.125-.162-.422-.988 0-1.424.431.107.784.413.844 1.28 0 .102.042.227.167 0a1.016 1.016 0 0 1 1.09-.329c.38.172.616.431.538 1.155 0 .143-.149.245-.242.041a.63.63 0 0 0-.75-.287.617.617 0 0 0 0 1.09c.287.194.31.278.43.338.121.06.228.125 0 .209-.227.083-1.247.347-1.618.463-.37.116-.39.102-.306-.102a2.16 2.16 0 0 0 .162-1.07c-.102-.33-.635-.539-.885-.288-.25.25-.255.329-.255.487z" class="cls-3" style="fill:#aa845a;stroke-width:.463706" transform="translate(-35.679 -93.833)"/><path d="M70.968 104.391a.538.538 0 0 1-.162-.162c-.148-.186-.209-.33-.065-.464s.31-.042.371.186c.06.227.167.565-.144.44zM68.46 104.762c-.06-.246.06-.431.227-.431s.204.102.185.246c-.018.143-.106.765-.412.185zM65.557 106.687c-.464-.928-1.197-2.319-1.359-2.634a1.145 1.145 0 0 1 .82.658c.126.246.154.399.32.111a.955.955 0 0 1 1.114-.204c.39.204.542.752.213.668a.751.751 0 0 0-.872.473.793.793 0 0 0 .255.812c.167.083.209.208-.041.329-.25.12-.288.139-.45-.213zM80.47 101.79c-.084-1.813-1.999-1.795-2.407-1.503-.107.06-.269.186-.31-.065-.042-.25-.126-.306-.288-.306-.163 0-.204 0-.144.228a.645.645 0 0 1-.102.677 2.44 2.44 0 0 0-.464.76c-.083.209-.106.186-.106-.111s-.08-1.697.538-2.027c.616-.329.843.08.885.144.042.065.246.227.246-.31a.965.965 0 0 0-1.233-.803c-.497.228-.404.246-.279-.463a1.451 1.451 0 0 0-.37-1.234.088.088 0 0 0-.168 0 1.451 1.451 0 0 0-.37 1.234c.125.7.217.681-.279.463a.965.965 0 0 0-1.243.793c0 .538.204.371.246.31.042-.06.27-.463.886-.143.617.32.538 1.73.538 2.027 0 .296 0 .32-.107.11a2.44 2.44 0 0 0-.464-.76.645.645 0 0 1-.102-.677c.06-.208 0-.227-.143-.227-.144 0-.246.06-.288.306-.042.246-.208.125-.31.065-.413-.292-2.319-.31-2.407 1.503-.088 1.813 1.892 1.808 2.286 1.108a.997.997 0 0 0-.125-1.275c-.144-.186-.33-.121-.288.074.042.195 0 .297-.125.338-.491.167-.677-.31-.533-.844.144-.533.862-.658 1.256-.533.395.125.357.288.306.33a.39.39 0 0 0-.213.222c-.065.167-.065.31.162.209a.858.858 0 0 1 .803.268c.227.205.023.265-.12.265-.64 0-.66.589-.465.988.163.25.06-.121.163-.288.102-.167.598-.246.598.167 0 .491-.515.927-.76 1.275-.246.348-.126.288.203.246a5.996 5.996 0 0 1 1.939 0c.329.042.463.083.204-.246-.26-.33-.76-.784-.76-1.275 0-.413.463-.352.597-.167.135.185 0 .538.163.288.204-.4.185-.988-.464-.988-.144 0-.348-.06-.12-.265a.858.858 0 0 1 .802-.268c.227.102.227-.042.162-.21a.39.39 0 0 0-.213-.222c-.051-.041-.084-.208.306-.329.39-.12 1.113 0 1.256.533.144.534-.041 1.011-.533.844-.102-.041-.167-.143-.125-.338.042-.195-.144-.26-.288-.074a.997.997 0 0 0-.125 1.275c.404.71 2.379.728 2.296-1.1zm-4.035 1.187c-.05.088-.092.102-.092.102s-.042 0-.093-.102a1.502 1.502 0 0 1 .083-1.28 1.502 1.502 0 0 1 .102 1.28zM84.61 104.526c0 .143-.041.287.163.083a.872.872 0 0 0-.928-1.442c-.245.102-.185-.042-.06-.204.125-.162.422-.988 0-1.424-.431.107-.784.413-.844 1.28-.023.102-.042.227-.167 0a1.016 1.016 0 0 0-1.09-.329c-.38.172-.616.431-.537 1.155 0 .143.148.245.24.041a.63.63 0 0 1 .752-.287.617.617 0 0 1 0 1.09c-.288.194-.31.278-.431.338-.12.06-.228.125 0 .209.227.083 1.247.347 1.618.463.371.116.39.102.306-.102a2.16 2.16 0 0 1-.162-1.07c.102-.33.635-.539.885-.288.25.25.255.329.255.487z" class="cls-3" style="fill:#aa845a;stroke-width:.463706" transform="translate(-35.679 -93.833)"/><path d="M81.717 104.391a.538.538 0 0 0 .162-.162c.149-.186.209-.33.065-.464s-.31-.042-.37.186c-.061.227-.168.565.143.44zM84.226 104.762c.06-.246-.06-.431-.228-.431-.167 0-.204.102-.185.246.018.143.107.765.413.185zM87.128 106.687c.464-.928 1.197-2.319 1.359-2.634a1.145 1.145 0 0 0-.82.658c-.126.246-.154.399-.32.111a.955.955 0 0 0-1.114-.204c-.39.204-.542.752-.213.668a.751.751 0 0 1 .872.473.793.793 0 0 1-.255.812c-.167.083-.209.208.042.329.25.12.287.139.45-.213zM74.743 111.713a21.066 21.066 0 0 1-2.963-.552c-.464-.162-.552-.162-.826-.055a27.535 27.535 0 0 0-2.522 1.266c-.714.435-.77.658 0 .876.681.195.983.33 2.235.765a33.85 33.85 0 0 0 3.82-2.142zM84.253 113.248c.77-.218.715-.464 0-.876a27.535 27.535 0 0 0-2.522-1.266c-.274-.107-.385-.107-.826.055a21.066 21.066 0 0 1-2.963.552l.237.158a33.85 33.85 0 0 0 3.84 2.142c1.251-.436 1.553-.57 2.234-.765zM51.126 158.622a1.544 1.544 0 1 0 1.568 1.553 1.544 1.544 0 0 0-1.568-1.553z" class="cls-3" style="fill:#aa845a;stroke-width:.463706" transform="translate(-35.679 -93.833)"/><path d="m77.43 185 1.05.87 1.18-2.48z" class="cls-3" style="fill:#aa845a" transform="matrix(.4637 0 0 .4637 -14.981 -12.65)"/><path d="m69.517 171.271-.255 1.188s1.14.403 1.298-.33c.158-.732-1.043-.858-1.043-.858zM84.986 170.734l.371 1.154s1.192-.218.96-.927c-.232-.71-1.33-.227-1.33-.227z" class="cls-3" style="fill:#aa845a;stroke-width:.463706" transform="translate(-35.679 -93.833)"/><path d="m115.95 197.42-.84 2.62 1.36.08zM56.45 151.34l.36 1.31 2.39-1.36z" class="cls-3" style="fill:#aa845a" transform="matrix(.4637 0 0 .4637 -14.981 -12.65)"/><path d="m111.283 140.347-.162-.084c-2.194-.575-4.369-1.182-6.557-1.73a1.855 1.855 0 0 0-1.391.761c-.659 1.007-.362 2.61-.311 3.608a26.923 26.923 0 0 1-2.026 10.953c-2.593 6.102-7.077 10.897-12.483 13.489a27.822 27.822 0 0 1-9.182 2.745 43.04 43.04 0 0 1-1.827.978l-.904.492-.097.046-.121-.065-.895-.486q-.927-.464-1.855-.984a27.785 27.785 0 0 1-9.181-2.745c-5.407-2.592-9.891-7.387-12.483-13.489a26.923 26.923 0 0 1-2.026-10.953c.05-.997.347-2.601-.311-3.607a1.855 1.855 0 0 0-1.391-.76c-2.189.546-4.364 1.154-6.557 1.729l-.162.083a1.98 1.98 0 0 1 1.33 1.716c-.037 6.302.858 10.753 3.02 15.414 3.866 8.945 12.941 16.484 22.215 18.627a30.03 30.03 0 0 0 8.417 1.043 30.03 30.03 0 0 0 8.374-1.025c9.274-2.142 18.349-9.682 22.216-18.627 2.161-4.66 3.051-9.112 3.014-15.413a1.985 1.985 0 0 1 1.336-1.716zm-66.709 6.38-.719.552-.18-1.975.806.39 3.668-.34.733-.593.12 1.313-2.012 1.808 1.465-.134.645-.608.18 1.985-.737-.417-4.604.421 2.782-2.596zm.742 7.823-.552-2.017.928.19s.51.144.334-.5l-.121-.497c-.176-.635-.552-.287-.552-.287l-.705.69-.533-1.942 1.002.236 3.612-.125.719-.696.519 1.892-3.89 2.365zm1.006 2.583a2.657 2.657 0 0 1 1.252-3.478c1.48-.681 3.014-.255 3.613 1.058a2.977 2.977 0 0 1 .282.927l.617.464-1.924.885a1.961 1.961 0 0 0-.037-1.808 1.512 1.512 0 0 0-2.096-.376c-.464.33-1.303 1.09-.362 2.319l.886-.404.5-.681.594 1.289-2.128.983s-.71-.111-1.197-1.178zm2.096 3.042a2.708 2.708 0 1 1 2.708 2.708 2.713 2.713 0 0 1-2.708-2.708zm4.466 6.52-.756-.821v-.028l-.756-.816 1.034-.06.928-.854 1.205-3.412 1.252 1.344-.779.283-.491 1.34 1.432-.329.274-.774 1.22 1.39-3.492.873-.928.853zm4.484 2.782-.223 1.015-1.604-1.34.867-.366s.5-.172 0-.603l-.38-.338c-.506-.422-.617.078-.617.078l-.186.951-1.553-1.289.96-.38 2.893-2.166.195-.983 1.507 1.257zm8.05 3.983.32-.927-.144-.835 1.345.464-.775 2.226s-.57.435-1.674.046a2.662 2.662 0 0 1-1.632-3.292c.533-1.535 1.906-2.319 3.246-1.855a2.861 2.861 0 0 1 .858.464l.751-.135-.696 1.999a1.975 1.975 0 0 0-1.335-1.23 1.507 1.507 0 0 0-1.72 1.253c-.065.496-.098 1.632 1.456 1.822zm6.371-1.01a1.257 1.257 0 0 1-1.192 1.108l.867 2.466-2.012-.43.556-.706-.533-1.428-.334-.07-.269 1.266.348.9-2.096-.464.598-.7.756-3.515-.273-.844 2.735.59s1.16.37.849 1.822zm2.717 3.876.464-.812s.301-.436-.371-.463l-.505-.042c-.654-.042-.464.427-.464.427l.413.876-2.013-.12.547-.877 1.048-3.455-.426-.927 1.961.12.979 4.447.426.928zm6.724-.339.306-.839-.246-2.254-.807 2.296-.023-.023-1.247-2.036.246 2.253.463.756-1.9.204.199-.83-.408-3.742-.38-.663 1.738-.19 1.006 1.46.664-1.65 1.738-.19-.231.732.408 3.743.37.77zm4.382-3.185.394 1.224.756.607-2.045.659.172-.904-1.104-3.423-.658-.593 2.666-.858s1.182-.269 1.637 1.14c.454 1.41-.886 1.837-1.813 2.143zm5.662-.084-.042.023c-1.391.765-2.082-.357-2.082-.357l-1.549-2.814-.7-.413 1.623-.895-.037.82 1.322 2.403c.417.756.927.348.927.348s.626-.228.213-.988c-.412-.76-1.326-2.398-1.326-2.398l-.714-.403 1.623-.895v.812l1.549 2.814s.584 1.173-.807 1.939zm4.27-2.546a3.102 3.102 0 0 1-1.534.64l-.181.487-1.22-1.674a5.36 5.36 0 0 0 1.577.084c.607-.112 1.034-.677.668-1.044-.367-.366-1.201-.06-1.201-.06-.413.06-1.98.594-2.319-.927-.352-1.679 1.688-1.962 1.688-1.962l.116-.566 1.136 1.559a3.603 3.603 0 0 0-.746-.042h-.27a.862.862 0 0 0-.704.394.464.464 0 0 0 .148.607c.074.07.464-.041.524-.05.06-.01 2.003-.747 2.643.403a1.688 1.688 0 0 1-.324 2.147zm6.729-6.524-.663.84-.64.806-.325-.885-2.953-2.319-.83-.079 1.265-1.6v.024l.886-1.123 1.623 1.28-1.46-.102-.636.807.812.645.13.102.18-1.058 1.206.928-.927.464.222.176.97.765.648-.826-.528-1.479 1.892 1.493zm1.6-2.221-.427-.84-3.218-1.965-.835.023 1.062-1.74.371.733 1.039.631.895.547 1.284.784.928.028zm2.569-4.772a2.666 2.666 0 0 1-3.427 1.392c-1.493-.645-2.203-2.069-1.632-3.39a2.875 2.875 0 0 1 .5-.826l-.078-.76 1.943.84a1.97 1.97 0 0 0-1.322 1.237 1.512 1.512 0 0 0 1.127 1.809c.552.125 1.678.24 1.975-1.294l-.89-.385-.844.079.561-1.303 2.156.927s.394.594-.07 1.67zm1.479-4.924-.659-.673-1.46-.366-.316 1.28 1.457.366.89-.245-.51 2.035-.659-.672-3.658-.928-.789.27.497-1.98.575.593 1.177.292.32-1.28-1.178-.292-.788.269.492-1.98.575.594 3.654.927.89-.246zm.853-3.923-.76-.603-3.4-.376-.05.464.853.928-1.948-.218.195-1.758v-.162l.195-1.762 1.943.213-1.03.719-.055.487 3.399.375.876-.463zM41.1 148.596c0-.116.122-.167.242-.385a2.782 2.782 0 0 0-.394-2.633c-2.996-2.922-1.178-4.712-.89-4.758.56-.088 1.029.612 1.266 1.15.236.538.171 1.66.264 2.703a34.157 34.157 0 0 0 .338 3.71 4.53 4.53 0 0 1-.825.213zM39.673 145.703c.125.037.32.343.463.626a1.266 1.266 0 0 1 .2.927c-.037.047-.181.051-.204-.023-.023-.074 0-.213-.023-.366a2.05 2.05 0 0 0-.566-1.044c-.125-.097.01-.157.13-.12zM40.28 147.493c.079 0 .093 0 .088.139a1.646 1.646 0 0 1-.255.927c-.246.288-.264.408-.732.176a2.281 2.281 0 0 1-1.123-1.242 2.625 2.625 0 0 1-.125-1.164c.047-.214.093-.26.316-.093a1.071 1.071 0 0 1 .463.904 5.319 5.319 0 0 1-.041.78 2.87 2.87 0 0 0 .7-.182c.361-.116.635-.208.71-.245zM110.75 148.392a34.157 34.157 0 0 0 .338-3.71c.093-1.043.033-2.183.264-2.703.232-.52.705-1.238 1.266-1.15.288.047 2.105 1.855-.89 4.758a2.782 2.782 0 0 0-.394 2.634c.12.218.227.269.24.385a4.53 4.53 0 0 1-.824-.214zM113.124 145.823a2.05 2.05 0 0 0-.566 1.044v.366c0 .074-.167.07-.204.023a1.266 1.266 0 0 1 .2-.927c.162-.283.356-.59.463-.626.107-.037.25.023.107.12zM113.114 147.72a2.87 2.87 0 0 0 .7.18 5.319 5.319 0 0 1-.041-.778 1.071 1.071 0 0 1 .464-.905c.222-.167.269-.12.315.093a2.625 2.625 0 0 1-.125 1.164 2.281 2.281 0 0 1-1.122 1.294c-.464.232-.487.111-.733-.176a1.646 1.646 0 0 1-.255-.928c0-.153 0-.153.088-.139.088.014.348.097.71.195z" class="cls-3" style="fill:#aa845a;stroke-width:.463706" transform="translate(-35.679 -93.833)"/><path d="m101.23 118.446-.153-1.78-.024-.27-.269.047c-4.131.695-7.966.505-13.679-.668-5.5-1.131-10.558-5.026-10.61-5.068l-.152-.116-.153.116c-.051.042-5.101 3.937-10.61 5.068-5.713 1.173-9.548 1.363-13.68.65l-.268-.047v.269l-.153 1.78a97.842 97.842 0 0 0 .162 15.196c.728 8.722 3.737 21.085 13.818 30.563a41.998 41.998 0 0 0 9.868 6.905l.895.486.12.065.121-.065.904-.491a41.984 41.984 0 0 0 9.859-6.9c10.08-9.46 13.09-21.822 13.841-30.526a97.842 97.842 0 0 0 .163-15.214z" class="cls-2" style="fill:#0d0802;stroke-width:.463706" transform="translate(-35.679 -93.833)"/><path d="M76.343 110.906s5.1 3.956 10.711 5.101c5.509 1.131 9.455 1.391 13.772.668l.153 1.776a97.09 97.09 0 0 1-.157 15.154c-.752 8.662-3.747 20.964-13.768 30.368a41.673 41.673 0 0 1-9.784 6.876l-.927.492-.928-.492a41.673 41.673 0 0 1-9.807-6.862c-10.02-9.404-13.016-21.706-13.768-30.368a97.09 97.09 0 0 1-.157-15.154l.153-1.776c4.317.723 8.263.463 13.772-.668 5.634-1.16 10.735-5.115 10.735-5.115z" class="cls-3" style="fill:#aa845a;stroke-width:.463706" transform="translate(-35.679 -93.833)"/><path d="m100.066 118.395-.074-.927-.928.157c-4.363.752-9.775.037-12.96-.927a35.112 35.112 0 0 1-9.256-4.447l-.505-.366-.506.357a35.112 35.112 0 0 1-9.232 4.414c-3.186.983-8.597 1.697-12.96.928l-.928-.158-.074.927a95.81 95.81 0 0 0 .157 15.006c.733 8.5 3.668 20.57 13.48 29.779 2.286 2.147 5.44 4.391 9.645 6.858l.464.26.464-.26c4.205-2.467 7.359-4.711 9.645-6.858 9.812-9.21 12.747-21.28 13.48-29.78a95.81 95.81 0 0 0 .088-14.963z" class="cls-2" style="fill:#0d0802;stroke-width:.463706" transform="translate(-35.679 -93.833)"/><path d="M53.487 118.465a95.523 95.523 0 0 0 .157 14.838c.65 7.522 3.274 19.898 13.207 29.214V117.49c-3.571 1.099-9.117 1.716-13.364.974zM99.199 118.465a95.523 95.523 0 0 1-.158 14.838c-.65 7.522-3.274 19.898-13.211 29.214V117.49c3.575 1.099 9.121 1.716 13.369.974z" class="cls-4" style="fill:#d51317;stroke-width:.463706" transform="translate(-35.679 -93.833)"/><path d="M76.343 112.951a35.705 35.705 0 0 0 9.487 4.54v45.053c-2.546 2.389-5.94 4.638-9.487 6.743-3.548-2.082-6.956-4.354-9.492-6.743v-45.053a35.705 35.705 0 0 0 9.492-4.54z" class="cls-5" style="fill:#f39200;stroke-width:.463706" transform="translate(-35.679 -93.833)"/><path d="M93.166 128.796a6.084 6.084 0 0 0-.673.195c.344-2.61 1.855-4.749 3.246-6.956.436-.626.928-1.22 1.35-1.855.032-.06.116-.125-.098-.032a22.62 22.62 0 0 0-4.307 3.246c-.96.82-1.707 2.035-2.783 2.661a8.277 8.277 0 0 0-2.425-.398.927.927 0 0 1-.046-.626 1.136 1.136 0 0 1 .635-.803.394.394 0 0 0 .306.144.408.408 0 1 0-.403-.408v.06a1.827 1.827 0 0 0-1.391.77 2.894 2.894 0 0 1-.344-.677.538.538 0 0 0 .167-.394.547.547 0 0 0-.5-.552h-.06a.552.552 0 0 0-.154 1.071v.752a1.966 1.966 0 0 0-.825-.195 1.855 1.855 0 0 0-.58.065.413.413 0 0 0-.39-.311.399.399 0 0 0-.398.376.403.403 0 0 0 .403.403.399.399 0 0 0 .39-.32.733.733 0 0 1 .431.098 1.131 1.131 0 0 1 .547 1.052c-1.757.928-1.771 2.12-1.771 2.12a2.096 2.096 0 0 0-.886.927c-.055.171-.52 2.147 3.826 2.397a1.706 1.706 0 0 1-.928.97 1.099 1.099 0 0 0-.616-.655.927.927 0 0 0-.844.181.886.886 0 0 0-.292.928c.157.616 1.14 1.015 1.854.927a2.875 2.875 0 0 0 2.082-1.317 17.658 17.658 0 0 0 1.452 1.558c-1.442.659-3.014 1.456-4.071 2.782 0 .051-.051.116 0 .149 1.187.278 2.439 0 3.589-.241s2.262-.622 3.366-.928c.844 1.15 2.115 1.985 3.246 2.755.051.032.13.083.195 0a23.728 23.728 0 0 0-2.23-7.92 1.391 1.391 0 0 1 .732-.65c.111-.041.394-.13.556 0a.927.927 0 0 0-.078.747.83.83 0 0 0 .621.491.71.71 0 0 0 .816-.38 1.47 1.47 0 0 0-.13-1.363c-.375-.77-1.609-1.043-2.587-.844z" class="cls-2" style="fill:#0d0802;stroke-width:.463706" transform="translate(-35.679 -93.833)"/><path d="M88.023 126.946a18.404 18.404 0 0 0-3.134 1.039c-.065-.135-.084-.4-.153-.552l.102-.037a12.056 12.056 0 0 1 3.185-.45zM88.863 130.016c.505-.376 1.09-.956 1.757-.51.733.658.52 1.854.798 2.554a3.292 3.292 0 0 0 .533 1.067.343.343 0 0 0 .408-.046c.172-.149.06-.72.436-.738.375-.018.283.4.255.974a6.585 6.585 0 0 1-.232 1.391c-.065.2-.19.223-.376.265-.185.041-.343-.149-.491-.246a4.637 4.637 0 0 0-1.507-.877c-.149-.06-.042.08 0 .158.042.079.603.556.566 1.104 0 .171-.344.18-.464.074a18.92 18.92 0 0 1-3.534-3.668 9.613 9.613 0 0 1-1.26-.074c-.724-.084-2.463-.357-2.95-1.46 0-.089-.093-.251.348-.543 1.372-.877 4.108-.279 5.713.575z" class="cls-1" style="fill:#fff;stroke-width:.463706" transform="translate(-35.679 -93.833)"/><path d="M75.587 119.55H56.913l.612.802 1.596 2.1v14.227l-2.064 2.434-.695.821h9.44l-.653-.811-1.966-2.435v-8.068l8.773 14.658.927 1.544V122.48l1.934-2.091zm-9.089.816.357-.427.339.422 1.678 2.092v6.426l-3.918-6.64z" class="cls-2" style="fill:#0d0802;stroke-width:.463706" transform="translate(-35.679 -93.833)"/><path d="m83.94 120.04-4.71 5.56h15.79l-4.48-5.55V98.38l20.93 34.94V88.64l4.45-4.82h-14.81l3.86 4.8v18.18L94.13 88.43l3.82-4.61H80.27l3.67 4.79z" class="cls-1" style="fill:#fff" transform="matrix(.4637 0 0 .4637 -14.981 -12.65)"/><path d="M110.75 130.73V88.36l3.53-3.83h-11.67l3.08 3.83v21.06L93.26 88.36l3.16-3.83h-14.7l2.93 3.83v31.95l-3.87 4.57h12.74l-3.7-4.57V95.79z" class="cls-2" style="fill:#0d0802" transform="matrix(.4637 0 0 .4637 -14.981 -12.65)"/><path d="M81.953 151.059v-6.112l2.426-3.08h-5.602a2.782 2.782 0 0 0-.696-1.144 2.782 2.782 0 0 0-1.98-.821 2.798 2.798 0 1 0 0 5.597h1.197v5.022c-4.174 0-5.42-1.54-5.973-2.212l-.079-.098c-.927-1.122-1.678-3.793-1.289-5.977.51-2.889 1.92-4.637 4.317-5.286a5.388 5.388 0 0 1 4.707.886l.682 3.079 4.563-6.446-3.038.158a10.8 10.8 0 0 0-8.425-1.54c-2.727.534-8.073 4.174-8.073 10.202a10.702 10.702 0 0 0 3.134 7.623 10.141 10.141 0 0 0 7.081 3.028h9.168z" class="cls-2" style="fill:#0d0802;stroke-width:.463706" transform="translate(-35.679 -93.833)"/><path d="M81.443 151.202v-6.445l1.892-2.407h-4.957a2.249 2.249 0 0 0-.649-1.294 2.277 2.277 0 0 0-1.628-.677 2.319 2.319 0 0 0 0 4.605H77.8v6.028c-4.79.135-6.237-1.627-6.859-2.388l-.078-.097c-1.002-1.201-1.823-3.984-1.392-6.38.548-3.094 2.078-4.953 4.675-5.677a5.857 5.857 0 0 1 5.29 1.085l.464 2.152 3.306-4.683-2.17.115a10.322 10.322 0 0 0-8.184-1.558c-2.592.51-7.67 3.984-7.67 9.701a10.202 10.202 0 0 0 2.986 7.271 9.636 9.636 0 0 0 6.729 2.88h8.18z" class="cls-1" style="fill:#fff;stroke-width:.463706" transform="translate(-35.679 -93.833)"/><path d="m81.123 144.66 1.545-1.962h-4.596a1.97 1.97 0 1 0-1.97 1.97 2.18 2.18 0 0 0 .245 0h1.785v6.673c-5.434.237-6.927-1.878-7.525-2.596-1.123-1.345-1.888-4.276-1.47-6.65.417-2.374 1.558-5.003 4.91-5.94a6.255 6.255 0 0 1 5.685 1.229l.339 1.52 2.476-3.51-1.595.084a10.044 10.044 0 0 0-8.036-1.567c-2.235.436-7.42 3.71-7.42 9.371 0 5.662 4.596 9.821 9.386 9.821h7.526l-1.299-1.762z" class="cls-2" style="fill:#0d0802;stroke-width:.463706" transform="translate(-35.679 -93.833)"/><path d="m85.835 160.704-1.883 2.555h-5.518v-5.282h3.116l2.638 2.11v-7.623l-2.615 1.882h-3.14v-3.31h5.357l1.609 2.28 3.76-5.661H71.386l2.318 2.847v3.946c-.788.274-2.318 1.006-2.995 2.319-.724 1.442-.334 3.63-.334 3.63a4.753 4.753 0 0 1 3.33-2.364v5.69l-3.316 3.009h18.845z" class="cls-2" style="fill:#0d0802;stroke-width:.463706" transform="translate(-35.679 -93.833)"/><path d="m85.77 161.617-1.572 2.147h-6.26v-6.288h3.788l1.966 1.572v-5.61l-1.957 1.39h-3.797v-4.307h6.111l1.336 1.892 2.847-4.276H72.434l1.766 2.166v4.474c-3.844 1.09-3.44 4.243-3.44 4.243a5.23 5.23 0 0 1 3.44-1.558v6.492l-2.527 2.29h16.693z" class="cls-1" style="fill:#fff;stroke-width:.463706" transform="translate(-35.679 -93.833)"/><path d="M87.61 148.485H73.135l1.39 1.72v4.85s-3.05.552-3.356 3.19a5.472 5.472 0 0 1 3.357-1.103v6.956l-1.994 1.808h15.302l-2.091-3.681-1.363 1.854h-6.775v-6.955h4.238l1.516 1.215v-4.271l-1.516 1.09h-4.238v-4.953h6.622l1.154 1.637z" class="cls-2" style="fill:#0d0802;stroke-width:.463706" transform="translate(-35.679 -93.833)"/></svg>