<svg xmlns="http://www.w3.org/2000/svg" width="105.3042mm" height="66.497803mm" viewBox="0 0 105.3042 66.497803"><path d="M121.479 105.834a56.916 56.916 0 0 0-10.113-2.6 75.45 75.45 0 0 0-24.681 0 57.137 57.137 0 0 0-10.114 2.6l-.385-.272a7.95 7.95 0 0 0-2.973-1.36 6.849 6.849 0 0 0-3.834-1.19l-.31-.141a6.863 6.863 0 0 0-4.624-.546c-2.573-.55-3.716-.075-4.008.08-2.864-.31-4.163.245-4.656.565-.052.033-.123.09-.123.09l-.268.178c-4.064-.137-5.71 1.684-5.71 1.684l2.573.616s-1.068.113-1.355.155a6.646 6.646 0 0 0-4.52 2.752l2.248.17c4.662.347 9.878.86 14.652 1.594-.55.183-2.483 1.035-2.483 1.035l6.115.668c-2.794 3.071-4.21 6.896-4.21 11.383 0 .79.038 1.604.113 2.422-.546.372-1.087 1.12-1.087 2.644v.898a3.932 3.932 0 0 0 .395 1.882l-.592-.226.531 3.885h3.006c3.909 10.48 11.153 18.444 15.146 22.278 5.814 5.583 15.49 11.486 18.815 11.486 3.326 0 12.997-5.903 18.816-11.486 3.993-3.834 11.232-11.797 15.141-22.278h3.552l-.297-1.27a6.068 6.068 0 0 1-.108-1.41v-6.793h-.86q.084-1.035.084-2.032c0-4.483-1.411-8.302-4.205-11.379l6.115-.668s-1.934-.85-2.484-1.034c4.77-.734 9.991-1.247 14.652-1.595l2.249-.17a6.646 6.646 0 0 0-4.497-2.756c-.287-.042-1.355-.155-1.355-.155l2.573-.616s-1.646-1.82-5.71-1.684l-.268-.179s-.07-.056-.123-.09c-.493-.32-1.792-.874-4.661-.564-.287-.155-1.411-.63-4.003-.08a6.863 6.863 0 0 0-4.624.546l-.31.141a6.849 6.849 0 0 0-3.857 1.209 7.95 7.95 0 0 0-2.973 1.36l-.386.272z" class="cls-1" style="fill:#fff;stroke-width:.470382" transform="translate(-46.378 -102.067)"/><path d="M69.821 125.788a28.889 28.889 0 0 1-.72-2.86c-.103-.517-.164-1.058-.24-1.58 0-.142-.07-.109-.112.333a3.523 3.523 0 0 0 .038.941c.178 1.082.414 2.145.691 3.19h.343zM124.348 134.34c-7.945 13.17-22.578 22.441-25.325 22.512-2.733-.07-17.38-9.323-25.326-22.513h-.78c7.817 14.436 23.194 23.543 26.096 23.708 2.917-.146 18.298-9.257 26.111-23.693h-.785zM129.259 122.599a3.523 3.523 0 0 0 .042-.941c-.047-.442-.099-.47-.118-.334-.075.522-.131 1.063-.235 1.58-.193.941-.437 1.915-.724 2.86h.343a33.98 33.98 0 0 0 .692-3.189zM127.024 129.104l-.07.165c0 .056.052.108.07.164zM70.65 128.333v.174l-.283-.104-.122-.042c.094.268.193.536.291.804a2.074 2.074 0 0 1 .292-.47l-.141-.362h-.052z" class="cls-2" style="fill:#e73137;stroke-width:.470382" transform="translate(-46.378 -102.067)"/><path d="M71.21 125.788a28.787 28.787 0 0 1-.829-2.87 30.135 30.135 0 0 1-.306-1.552c-.028-.183-.084-.08-.103.301a3.937 3.937 0 0 0 .085.941 30.438 30.438 0 0 0 .78 3.18zM99.013 154.1c-3.16-.033-15.875-8.4-23.462-19.756h-.833c7.526 12.428 20.96 20.852 24.305 20.95 3.349-.098 16.788-8.522 24.309-20.95h-.847c-7.587 11.36-20.301 19.728-23.462 19.756zM127.993 122.608a3.937 3.937 0 0 0 .08-.94c0-.382-.075-.471-.103-.302a25.86 25.86 0 0 1-.306 1.553 27.583 27.583 0 0 1-.828 2.869h.372a31.69 31.69 0 0 0 .786-3.18zM125.947 128.07c-.028.06-.051.126-.08.192a2.173 2.173 0 0 1 .41.188c.037-.09.075-.183.108-.277a1.533 1.533 0 0 0-.438-.104zM73.74 132.025h.371a45.7 45.7 0 0 1-.371-.649z" class="cls-3" style="fill:#009e59;stroke-width:.470382" transform="translate(-46.378 -102.067)"/><path d="M79.177 134.34h-.432c.385.507.78 1.006 1.19 1.5l.79-.259q-.899-1.03-1.745-2.093l.028.132zM125.449 122.608a4.431 4.431 0 0 0 .169-.94c0-.311-.023-.527-.085-.269-.094.4-.216.8-.338 1.204-.033.104-.07.212-.104.32a24.624 24.624 0 0 1-1.138 2.874h.41a25.4 25.4 0 0 0 1.086-3.18zM72.954 122.914l-.099-.32c-.122-.404-.244-.804-.338-1.204-.061-.259-.099-.042-.085.268a4.422 4.422 0 0 0 .165.94 26.205 26.205 0 0 0 1.091 3.18h.395a24.667 24.667 0 0 1-1.143-2.874zM99.013 149.806c4.031-.043 13.641-6.77 20.283-15.467h-.235l-.094-.733c-6.585 8.26-15.993 14.972-19.94 14.977-3.358 0-10.705-4.888-16.877-11.45h-1.11c6.392 7.296 14.403 12.62 17.983 12.658z" class="cls-4" style="fill:#ffe100;stroke-width:.470382" transform="translate(-46.378 -102.067)"/><path d="M170.44 114.37h1.14l.09-.17h-1.14z" class="cls-4" style="fill:#ffe100" transform="translate(-3.81 -27.748) scale(.47038)"/><path d="M120.815 131.851a2.178 2.178 0 0 1-.47-.052l-.193.269h.767l.165-.24h-.264z" class="cls-4" style="fill:#ffe100;stroke-width:.470382" transform="translate(-46.378 -102.067)"/><path d="M99.013 147.063c4.191-.023 12.075-5.7 18.054-12.728h-.908c-5.828 6.35-13.171 11.5-17.146 11.5-3.368 0-9.158-3.701-14.393-8.692h-1.096c5.522 5.668 11.881 9.878 15.522 9.916zM82.489 134.998l-.616-.663h-.904c.26.305.518.607.786.903zM124.183 122.599a4.116 4.116 0 0 0 .198-.941c.028-.306 0-.555-.075-.263-.165.503-.31 1.01-.499 1.51a24.794 24.794 0 0 1-1.34 2.874h.4a24.347 24.347 0 0 0 1.316-3.19zM74.243 122.914c-.193-.499-.339-1.007-.499-1.51-.094-.292-.108-.042-.08.263a4.13 4.13 0 0 0 .203.941 24.305 24.305 0 0 0 1.312 3.19h.4a23.99 23.99 0 0 1-1.336-2.875zM119.117 130.854v.912h.029c.112-.145.22-.296.329-.442a1.882 1.882 0 0 1-.339-.47z" class="cls-5" style="fill:#0078bf;stroke-width:.470382" transform="translate(-46.378 -102.067)"/><path d="m104.536 128.239 1.223 1.646v-.8l-1.228-.978a1.232 1.232 0 0 1 0 .132z" class="cls-6" style="fill:#ea5599;stroke-width:.470382" transform="translate(-46.378 -102.067)"/><path d="M110.373 131.78v-3.518a1.717 1.717 0 0 1-1.12.141v5.993h-3.494v-3.203l-.132.089c-.25.136-.696-.028-1.087-.263v1.077a6.28 6.28 0 0 0 .123 1.543l.16.7h-4.06l.165-.7a6.651 6.651 0 0 0 .117-1.543V130.5l-.315-.757v2.987c0 .47-.47 1.57-1.049 1.604H89.403a1.816 1.816 0 0 1-1.933-1.29v1.412c0 1.317-.442 1.99-.94 2.352 4.647 4.422 9.515 7.474 12.497 7.479 3.514 0 9.634-4.233 14.935-9.949h-1.411c-.988 0-2.164-.442-2.164-2.558zM93.063 124.118a12.536 12.536 0 0 1-.075-3.528 34.201 34.201 0 0 1 .71-3.791 24.276 24.276 0 0 0-1.308 4.812 1.369 1.369 0 0 1-1.637 1.171c-.94-.211-1.223-1.74-1.223-1.74s-1.053.672-1.98.211c-.818-.4-1.016-1.74-1.016-1.74s-1.308.146-1.881-.339c-.795-.682-.424-1.566-.47-1.881-1.229.028-1.581-.47-1.699-.621-.117-.15.207-.4.65-.696-1.097.07-2.254 0-2.635-.499-.066-.085.88-.47 1.214-.7-1.115.314-2.352.216-2.667-.316-.047-.075.978-.428 1.232-.625-1.162.051-2.314.028-2.879-.565-.056-.061 1.411-.188 1.614-.367a13.796 13.796 0 0 1-3.105-.597 8.368 8.368 0 0 0-1.307 6.505 28.289 28.289 0 0 0 3.128 7.131 1.882 1.882 0 0 1 1.128 1.378 1.938 1.938 0 0 1 2.051-1.538h4.413a.94.94 0 0 1 .64-.513l7.093-1.185v.033z" class="cls-6" style="fill:#ea5599;stroke-width:.470382" transform="translate(-46.378 -102.067)"/><path d="M90.735 130.37v1.655h1.74v-.734h-.056a.795.795 0 0 1-.443-.912zM115.524 128.097h-1.58a.085.085 0 0 0-.08.08v3.764a.08.08 0 0 0 .08.075h1.58a.085.085 0 0 0 .08-.08v-3.763a.085.085 0 0 0-.08-.08zM83.9 128.097h-1.585a.085.085 0 0 0-.08.08v3.764a.08.08 0 0 0 .08.075H83.9a.08.08 0 0 0 .075-.08v-3.763a.08.08 0 0 0-.075-.08zM87.47 129.353a1.938 1.938 0 0 1 .682-.94 1.157 1.157 0 0 1-.423-.118l-.259.08v.94zM122.147 112.326a13.697 13.697 0 0 1-3.105.597c.226.179 1.675.306 1.614.367-.565.593-1.713.616-2.88.564.255.198 1.28.55 1.238.626-.31.531-1.557.63-2.667.315.334.25 1.275.616 1.209.701-.381.47-1.538.57-2.634.499.47.296.729.597.653.696-.075.099-.47.649-1.702.62-.066.297.305 1.181-.47 1.882-.56.47-1.882.339-1.882.339s-.198 1.34-1.012 1.74c-.94.47-1.985-.211-1.985-.211s-.296 1.528-1.223 1.74a1.364 1.364 0 0 1-1.632-1.171 24.29 24.29 0 0 0-1.312-4.817 34.408 34.408 0 0 1 .715 3.796 12.569 12.569 0 0 1-.076 3.533v-.038l7.094 1.185a.94.94 0 0 1 .64.513h4.205a1.924 1.924 0 0 1 2.013 1.411 1.76 1.76 0 0 1 1.449-1.378 28.265 28.265 0 0 0 3.057-7.009 8.377 8.377 0 0 0-1.307-6.5zM80.42 110.134c.187.136.625.409.752.47a4.807 4.807 0 0 0 2.751.635 37.08 37.08 0 0 1 3.17 0 46.44 46.44 0 0 1 5.025.762h.094c.188.038.277.066.277.066l.24.066c.894-.443 2.187-1.557 3.975-1.731a3.89 3.89 0 0 1 2.163-.776h.146a3.918 3.918 0 0 1 2.305.78c1.792.174 3.086 1.29 3.98 1.731l.235-.065c.226-.057.433-.1.64-.137a43.9 43.9 0 0 1 4.76-.71c.94-.07 2.7-.047 3.175 0a4.821 4.821 0 0 0 2.78-.616 8.194 8.194 0 0 0 .823-.541c.056-.052.8-.645 1.007-.81l.155-.122c-3.542-2.352-9.596-4.186-19.85-4.186-10.255 0-16.308 1.825-19.85 4.177l.964.767.174.14.108.08z" class="cls-6" style="fill:#ea5599;stroke-width:.470382" transform="translate(-46.378 -102.067)"/><path d="M78.646 107.128a51.408 51.408 0 0 1 9.516-2.865c.414-.066.39-.273-.09-.202a55.227 55.227 0 0 0-11.637 2.959l.94.696c.42-.207.843-.41 1.29-.602zM67.103 131.851h-1.957c0 .08.047.16.075.24h1.882zM65.616 128.036v.08h2.733a2.916 2.916 0 0 1 .47.038c0-.038-.023-.075-.037-.118zM109.973 104.061c-.47-.075-.498.136-.09.202a51.554 51.554 0 0 1 9.517 2.86c.47.198.874.4 1.288.607l.941-.71a55.242 55.242 0 0 0-11.66-2.959zM63.735 123.295a24.38 24.38 0 0 0 .131 2.512 2.733 2.733 0 0 1 .34 0h3.988q-.315-1.37-.517-2.78c-.363-2.592.188-7.418 4.402-11.576l-2.86-.283c-3.73 3.18-5.484 7.32-5.484 12.127zM128.835 111.145l-2.86.282c4.234 4.158 4.76 8.984 4.399 11.576-.132.941-.306 1.882-.513 2.78h.668v6.242h1.66v-3.998a6.482 6.482 0 0 0-.122-1.543l-.165-.706h2.296c.084-.85.127-1.683.127-2.488 0-4.807-1.755-8.937-5.48-12.15zM79.173 149.58a.216.216 0 0 0-.174-.085 1.275 1.275 0 0 0-.664.39 1.646 1.646 0 0 0-.428.504.259.259 0 0 0 .024.3.24.24 0 0 0 .188.095c.146 0 .357-.122.659-.39a1.623 1.623 0 0 0 .418-.5.273.273 0 0 0-.023-.314zM116.3 152.34a.287.287 0 0 0-.207.1.278.278 0 0 0-.094.202c0 .155.136.367.437.663.301.297.508.438.663.438a.287.287 0 0 0 .207-.1.268.268 0 0 0 .076-.31 1.623 1.623 0 0 0-.419-.555c-.296-.296-.508-.437-.663-.437zM75.81 146.757a2.201 2.201 0 0 1-.245-.174.513.513 0 0 0-.301-.16.47.47 0 0 0-.268.118.41.41 0 0 0-.17.212.226.226 0 0 0 .057.193.348.348 0 0 0 .287.131.804.804 0 0 0 .47-.183l.174-.137zM123.257 145.577c.08-.104.122-.226-.245-.499a.776.776 0 0 0-.386-.183.198.198 0 0 0-.16.099.183.183 0 0 0-.037.202.866.866 0 0 0 .282.291.804.804 0 0 0 .386.193.188.188 0 0 0 .16-.103zM122.344 146.866l-.174-.137a1.834 1.834 0 0 1-.108.287c-.099.221-.16.353.108.56a.419.419 0 0 0 .24.113.235.235 0 0 0 .179-.108c.146-.198.047-.47-.245-.715zM118.915 150.12a.62.62 0 0 0-.362-.187.207.207 0 0 0-.165.08c-.164.178 0 .442.188.64l.414-.471-.075-.07zM94.85 162.6c.222-.41.043-.508 0-.536-.174-.094-.371.023-.578.334l.54.296.053-.094zM81.002 151.541a.263.263 0 0 0-.207-.099c-.155 0-.366.132-.667.42a1.68 1.68 0 0 0-.429.55.268.268 0 0 0 .071.31.278.278 0 0 0 .207.103c.155 0 .367-.136.668-.423.513-.47.513-.696.357-.86zM95.951 163.644a.969.969 0 0 0-.216-.033c-.094 0-.203.033-.31.254-.109.221-.034.358.089.414a.343.343 0 0 0 .14.028.626.626 0 0 0 .504-.418l.099-.198a2.474 2.474 0 0 1-.306-.047zM106.685 160.897a1.684 1.684 0 0 1-.202.23c-.17.175-.273.278-.094.565q.127.198.254.198a.273.273 0 0 0 .141-.052c.207-.136.212-.442 0-.753l-.118-.188zM113.506 154.952a.268.268 0 0 0-.188.08.278.278 0 0 0-.104.305 1.755 1.755 0 0 0 .376.588c.283.33.47.47.65.47a.325.325 0 0 0 .291-.38 1.717 1.717 0 0 0-.376-.593c-.282-.33-.47-.47-.65-.47zM90.382 160.036l.517.339.061-.09a.673.673 0 0 0 .132-.347.207.207 0 0 0-.108-.189c-.165-.108-.372 0-.602.287zM72.108 140.901l.324.527.09-.056a.687.687 0 0 0 .272-.254.212.212 0 0 0 0-.217c-.099-.169-.334-.164-.668 0zM124.292 145.704c-.062 0-.132.056-.226.174l-.4.527a.268.268 0 0 0 .118.216.24.24 0 0 0 .131.038.536.536 0 0 0 .405-.245c.211-.292.202-.574.07-.668a.174.174 0 0 0-.098-.042zM124.451 143.959l-.183-.123a1.882 1.882 0 0 1-.09.287c-.089.23-.14.367.137.555.198.137.315.137.423 0 .109-.136 0-.47-.287-.7zM102.805 162.28a.334.334 0 0 0-.151.042c-.198.104-.263.306.07.941.226.433.405.626.58.626a.32.32 0 0 0 .15-.043c.202-.108.263-.305-.066-.94-.23-.433-.41-.626-.583-.626zM126.992 139.518a1.571 1.571 0 0 0-.668-.249.282.282 0 0 0-.264.155c-.108.198-.056.4.565.748a1.576 1.576 0 0 0 .668.254.278.278 0 0 0 .258-.16c.113-.197.057-.395-.56-.748z" class="cls-7" style="fill:#009dcc;stroke-width:.470382" transform="translate(-46.378 -102.067)"/><path d="M129.193 134.34a1.924 1.924 0 0 1-1.92-1.162c-7.558 15.993-25.32 26.153-28.25 26.153-2.879 0-20.067-9.812-27.837-25.316a1.882 1.882 0 0 1-.748-1.087c-.26.908-.988 1.411-2.084 1.411h-2.352c3.763 10.18 10.72 17.95 14.925 21.986 5.687 5.485 15.208 11.2 18.086 11.2 2.893 0 12.409-5.739 18.1-11.2 4.206-4.036 11.158-11.807 14.926-21.986zm-43.82 20.673a.24.24 0 0 1 .338-.029.273.273 0 0 1 .09.16.268.268 0 0 1-.057.174.245.245 0 0 1-.184.09.235.235 0 0 1-.155-.057.25.25 0 0 1-.09-.16.254.254 0 0 1 .057-.178zm-5.114-4.963a.23.23 0 0 1 .334 0 .245.245 0 0 1-.174.405.24.24 0 0 1-.174-.085.226.226 0 0 1 0-.334zm-11.35-12.46-.428-.899.132-.065.117.244 2.06-.969-.084-.183c-.033-.066-.052-.094-.155-.094a3.1 3.1 0 0 0-.598.108h-.028l-.075-.123.776-.371.762 1.604-.772.371-.06-.127h.023c.55-.428.536-.47.47-.578l-.09-.179-2.05.955.113.24-.132.066zm.682 1.345-.386-.743.132-.066.09.17 1.41-.734-.089-.17.132-.07.273.526-.141.076a.433.433 0 0 1 .38.258.833.833 0 0 1 .062.264l-.678.348-.06-.122.286-.301c.146-.146.174-.198.146-.25a.23.23 0 0 0-.207-.08.94.94 0 0 0-.4.109l-.94.47.108.212-.132.065zm1.171 2.13-.291-.526.131-.07a.55.55 0 0 1-.395-.283.47.47 0 0 1 .221-.734l1.092-.606-.1-.17.132-.075.292.527-1.27.71a.405.405 0 0 0-.179.16.207.207 0 0 0 .033.179c.099.174.339.197.612.047l.94-.536-.103-.18.132-.075.3.537-1.519.851.1.17-.132.075zm1.769.82-.55-.918-.066.038a1.628 1.628 0 0 0-.546.47.315.315 0 0 0 0 .348c.16.268.437.31.79.137h.028l.08.122h-.032a.94.94 0 0 1-.47.132.654.654 0 0 1-.575-.34.884.884 0 0 1 .438-1.217 1.195 1.195 0 0 1 .607-.184.748.748 0 0 1 .667.353.644.644 0 0 1 .08.555.94.94 0 0 1-.423.47h-.033zm.188 2.351a.87.87 0 0 1 .372-1.242 1.1 1.1 0 0 1 .625-.211.847.847 0 0 1 .71.4 1.496 1.496 0 0 1 .175.437v.07l-.593.396-.09-.132c.429-.499.41-.579.325-.706a.33.33 0 0 0-.287-.136 1.247 1.247 0 0 0-.63.245c-.645.437-.579.691-.47.846.108.156.413.23.738.024h.028l.085.122h-.028a.94.94 0 0 1-.504.179.564.564 0 0 1-.47-.273zm1.533 2.084-.47-.659.122-.084.123.17 1.04-.749c.216-.155.21-.254.13-.362-.079-.108-.366-.165-.615 0l-.885.64.118.17-.118.084-.47-.654.118-.09.113.16 1.834-1.317-.113-.16.118-.084.352.47-.653.47a.62.62 0 0 1 .428.25.47.47 0 0 1-.156.748l-1.006.724.113.155-.123.09zm.772 1.025.174-.136a.62.62 0 0 1-.536-.245.55.55 0 0 1 .385-.903.894.894 0 0 1 .55.32 1.411 1.411 0 0 0 .349.259l.282-.216a.273.273 0 0 0 .127-.193.268.268 0 0 0-.07-.203.259.259 0 0 0-.231-.127 2.07 2.07 0 0 0-.532.132l-.084-.108.508-.39a1.411 1.411 0 0 1 .442.366c.287.372.212.697 0 .842l-1.04.795.146.16-.117.09-.339-.443zm2.963.904c-.131-.16-.362-.132-.611.075l-.838.687.118.145-.118.09-.47-.602.118-.094.117.145.993-.813c.22-.184.174-.292.117-.358-.131-.16-.362-.131-.611.07l-.837.688.117.145-.113.095-.47-.603.113-.094.117.146 1.176-1.016-.098-.113.117-.094.344.419-.118.099a.47.47 0 0 1 .437.207.532.532 0 0 1 .1.508.54.54 0 0 1 .408.94l-.978.8.118.146-.113.094-.47-.602.112-.094.123.146.992-.814c.221-.184.174-.292.118-.362zm-.155 2.587a.47.47 0 0 1-.113-.405l-.47.395.131.15-.112.1-.513-.584.113-.098.113.127 1.665-1.463-.113-.132.108-.099.372.423-.094.085a.47.47 0 0 1 .404.179c.282.32.174.818-.273 1.209a1.134 1.134 0 0 1-.743.33.654.654 0 0 1-.47-.217zm1.176 1.213-.508-.55.108-.104.118.127 1.176-1.077-.118-.127.108-.099.39.424-.023.023-1.26 1.157.117.127zm.654.776a.748.748 0 0 1-.198-.616 1.148 1.148 0 0 1 .358-.668 1.096 1.096 0 0 1 .748-.334.724.724 0 0 1 .54.23.889.889 0 0 1-.16 1.285 1.087 1.087 0 0 1-.743.334.743.743 0 0 1-.545-.23zm1.97 1.882-.573-.57.103-.103.15.146.904-.912c.183-.189.165-.287.07-.381a.31.31 0 0 0-.211-.08.564.564 0 0 0-.395.202l-.767.804.146.146-.104.103-.573-.564.103-.108.136.136 1.125-1.124-.137-.136.104-.104.404.4-.122.127h.085a.583.583 0 0 1 .423.174.508.508 0 0 1 .174.353.579.579 0 0 1-.198.409l-.87.866.141.136-.108.103zm1.783.042c.245-.498.269-.569.1-.724-.17-.155-.386-.184-.471-.061-.085.122 0 .334.113.564.113.23.329.598.08.866a.588.588 0 0 1-.438.197.884.884 0 0 1-.574-.25 1.289 1.289 0 0 1-.338-.535l.47-.504.122.109c-.31.526-.32.635-.103.837a.536.536 0 0 0 .334.15.357.357 0 0 0 .254-.117c.08-.094 0-.273-.127-.47-.155-.292-.348-.65-.099-.941a.56.56 0 0 1 .414-.188.823.823 0 0 1 .541.24 1.209 1.209 0 0 1 .301.47l-.428.47-.118-.113zm.941 2.376-.578-.47.094-.114.131.109 1.026-1.228-.137-.108.1-.118.441.372-1.114 1.34.131.113-.094.113zm2.258 0-.767.973.15.118-.093.118-.635-.5.094-.117.164.127.795-1.006c.165-.207.132-.301.029-.386a.287.287 0 0 0-.184-.061.555.555 0 0 0-.404.25l-.678.855.165.132-.094.113-.635-.499.09-.117.154.122.988-1.256-.15-.118.09-.117.47.353-.109.14a.583.583 0 0 1 .518.114.47.47 0 0 1 .06.762zm.663 2.333a.437.437 0 0 1-.193-.282.47.47 0 0 1 .113-.353l.786-1.082-.184-.132.085-.117.184.131.254-.348.329.24-.254.348.338.245-.089.117-.334-.244-.851 1.166c-.07.1-.061.156.037.226.1.07.226.042.358-.141l.188-.259.122.085-.178.245a.522.522 0 0 1-.41.272.513.513 0 0 1-.3-.117zm1.976 1.312-.663-.47.084-.123.17.123.729-1.054a.47.47 0 0 0 .103-.245.193.193 0 0 0-.099-.145.287.287 0 0 0-.164-.052.536.536 0 0 0-.41.277l-.62.894.169.123-.085.117-.663-.47.085-.123.16.109 1.284-1.854-.16-.108.085-.122.47.343-.47.659a.602.602 0 0 1 .14 0 .593.593 0 0 1 .34.108.47.47 0 0 1 .108.757l-.706 1.02.16.11-.085.121zm1.957-.052v.029l-.894-.584-.042.057c-.438.677-.297.88-.146.978.259.17.527.094.771-.221v-.023l.123.08-.024.028a.771.771 0 0 1-.63.38.715.715 0 0 1-.386-.122.762.762 0 0 1-.339-.56 1.11 1.11 0 0 1 .207-.724 1.03 1.03 0 0 1 .833-.517.706.706 0 0 1 .39.117.65.65 0 0 1 .31.47.94.94 0 0 1-.173.617zm1.881 2.46-.663-.428.075-.127.179.104.654-1.1c.136-.231.094-.32 0-.386a.278.278 0 0 0-.146-.043.513.513 0 0 0-.41.301l-.559.941.179.108-.076.127-.691-.414.07-.127.17.1 1.148-1.939-.165-.099.075-.127.518.306-.41.687a.677.677 0 0 1 .18-.028.579.579 0 0 1 .31.089.508.508 0 0 1 .254.296.57.57 0 0 1-.094.47l-.635 1.068.169.1-.075.126zm1.19.621a.72.72 0 0 1-.343-.089.757.757 0 0 1-.381-.532 1.12 1.12 0 0 1 .146-.743 1.016 1.016 0 0 1 .846-.578.696.696 0 0 1 .34.084.644.644 0 0 1 .347.438.913.913 0 0 1-.122.63v.028h-.028l-.908-.498-.038.066a1.576 1.576 0 0 0-.235.682.315.315 0 0 0 .165.305c.272.146.536.047.752-.282v-.028l.127.07v.029a.762.762 0 0 1-.649.433zm1.99 1.021-.503-.244.094-.198a.597.597 0 0 1-.584.023.517.517 0 0 1-.291-.729.47.47 0 0 1 .442-.296 1.726 1.726 0 0 1 .419.08 1.298 1.298 0 0 0 .423.075l.155-.32a.287.287 0 0 0 .028-.225.273.273 0 0 0-.155-.15.334.334 0 0 0-.146-.043c-.131 0-.272.122-.531.39l-.122-.06.272-.58h.029a1.449 1.449 0 0 1 .56.123c.423.202.507.527.404.743l-.565 1.176.156.075-.066.137zm1.802-.517-.127-.043v-.418c0-.193 0-.264-.066-.282-.066-.02-.32.14-.424.437l-.348.992.226.08-.052.137-.79-.273.052-.141.183.066.522-1.51-.178-.061.047-.141.56.197-.052.15a.442.442 0 0 1 .47-.075.828.828 0 0 1 .221.15zm1.044 1.321c-.282 0-.433-.16-.433-.47v-1.34h-.226v-.123h.226v-.433h.405v.433h.395v.15h-.414v1.445c0 .117.042.16.16.16a.174.174 0 0 0 .15-.066.47.47 0 0 0 .057-.259v-.324h.145v.305c0 .377-.15.546-.47.546zm1.688-.4a1.331 1.331 0 0 1-.47.085 1.044 1.044 0 0 1-.174 0l-.25-.64.156-.06v.023c.259.395.372.503.513.503a.574.574 0 0 0 .188-.042c.263-.103.371-.296.291-.513-.032-.075-.122-.103-.315-.103h-.371c-.268 0-.56-.038-.668-.32-.108-.282.051-.673.47-.837a1.27 1.27 0 0 1 .423-.076h.142l.23.588-.15.057c-.254-.325-.349-.442-.47-.442a.395.395 0 0 0-.142.033c-.183.075-.339.249-.273.418.066.17.15.15.377.15h.371c.25 0 .513.038.621.32a.687.687 0 0 1-.494.88zm2.715-1.274a.691.691 0 0 1-.344.09.997.997 0 0 1-.847-.593.894.894 0 0 1 .254-1.27.743.743 0 0 1 .344-.085.997.997 0 0 1 .847.593.894.894 0 0 1-.254 1.265zm1.627-.964-.696.395-.075-.127.15-.085-.79-1.388-.15.085-.071-.127.15-.085-.08-.14a.546.546 0 0 1-.08-.429.659.659 0 0 1 .325-.353 1.115 1.115 0 0 1 .31-.117h.047l.264.47-.118.066c-.207-.188-.306-.259-.367-.259l-.07.024a.103.103 0 0 0-.057.07.221.221 0 0 0 .038.17l.183.32.372-.212.075.127-.376.216.79 1.383.226-.127.075.127h-.033zm2.06-1.247-.117-.188a.616.616 0 0 1-.292.513.668.668 0 0 1-.348.108.499.499 0 0 1-.428-.254c-.235-.381.038-.626.277-.847a1.298 1.298 0 0 0 .292-.315l-.188-.301a.245.245 0 0 0-.386-.094c-.193.117-.188.25-.066.757v.024l-.117.075-.339-.54a1.533 1.533 0 0 1 .405-.415.88.88 0 0 1 .447-.146.47.47 0 0 1 .395.203l.691 1.11.15-.094.076.127-.47.296zm.626-.4-.08-.122.141-.094-1.237-1.882-.141.094-.08-.127.47-.315 1.322 2.009.141-.094.08.122-.626.414zm.833-.55-.085-.122.14-.094-1.264-1.882-.142.094-.084-.122.47-.325 1.35 1.99.141-.094.085.122-.62.419zm2.822-1.99-.847-.592.315 1.016-.183.136h-.024l-1.514-1.04-.118.09-.085-.118.63-.47.09.122-.174.127 1.091.743-.23-.729-.47-.315-.184.132-.085-.118.772-.569.084.118-.258.193 1.086.747-.385-1.265-.226.165-.09-.118.443-.33.089.123-.07.052.536 1.787-.189.141zm1.6-1.251-.095-.113.165-.132-.8-1.001c-.146-.184-.24-.222-.372-.118-.131.103-.183.32.052.616l.677.852.165-.127.094.112-.635.504-.09-.113.151-.122-1.41-1.764-.151.122-.066-.099.47-.372.499.626a.611.611 0 0 1 .226-.437.47.47 0 0 1 .757.117l.771.97.15-.123.095.118-.616.484zm1.41-1.105a.734.734 0 0 1-.47.178 1.087 1.087 0 0 1-.79-.409.898.898 0 0 1-.033-1.293.734.734 0 0 1 .47-.18 1.077 1.077 0 0 1 .79.41.898.898 0 0 1 .033 1.294zm1.562-1.477-.104-.104.123-.122-1.543-1.623-.127.122-.104-.108.419-.4 1.67 1.727.122-.118.104.104-.537.522zm1.322-1.219a.72.72 0 0 1-.532.221 1.087 1.087 0 0 1-.757-.348 1.171 1.171 0 0 1-.348-.672.743.743 0 0 1 .216-.612.72.72 0 0 1 .532-.22 1.087 1.087 0 0 1 .752.347 1.115 1.115 0 0 1 .348.673.743.743 0 0 1-.211.611zm1.096-1.19-1.698-.734-.109.113-.103-.098.583-.621.108.103-.183.193 1.176.522-.583-1.148-.189.198-.108-.104.419-.442.108.104-.108.113.842 1.67-.137.14zm1.274-1.312a.748.748 0 0 1-.56.25 1.124 1.124 0 0 1-.733-.316.903.903 0 0 1-.207-1.27.659.659 0 0 1 .47-.235.894.894 0 0 1 .598.268h.023l-.71.795.052.052a1.265 1.265 0 0 0 .71.404.306.306 0 0 0 .23-.108c.212-.23.174-.508-.098-.8l.094-.113.028.029a.706.706 0 0 1 .099 1.044zm1.774-2.06a1.411 1.411 0 0 1-.598.4l-.649-.537.094-.108a1.825 1.825 0 0 0 .744.263.39.39 0 0 0 .32-.164.503.503 0 0 0-.029-.734.372.372 0 0 0-.254-.094 1.209 1.209 0 0 0-.54.212 1.383 1.383 0 0 1-.65.244.597.597 0 0 1-.395-.15.682.682 0 0 1-.263-.527.94.94 0 0 1 .23-.602 1.689 1.689 0 0 1 .555-.442l.583.47-.089.108-.428-.174a.428.428 0 0 0-.56.141.47.47 0 0 0 0 .668.268.268 0 0 0 .188.08 1.557 1.557 0 0 0 .602-.268 1.477 1.477 0 0 1 .664-.254.607.607 0 0 1 .4.17.757.757 0 0 1 .282.583 1.058 1.058 0 0 1-.264.686zm1.41-1.844-.173-.137a.616.616 0 0 1-.099.579.579.579 0 0 1-.47.254.517.517 0 0 1-.325-.122c-.353-.278-.183-.602-.028-.89a1.34 1.34 0 0 0 .16-.4l-.282-.216a.25.25 0 0 0-.396.043c-.14.178-.084.3.203.738l-.085.108-.503-.39v-.024a1.585 1.585 0 0 1 .24-.522.73.73 0 0 1 .55-.324.428.428 0 0 1 .263.084l1.03.805.109-.137.117.09-.343.442zm1.501-.861a.94.94 0 0 1-.658.437.339.339 0 0 1-.198-.06.325.325 0 0 1-.108-.302.419.419 0 0 1-.47-.028.47.47 0 0 1-.174-.56.73.73 0 0 1-.39-.145.602.602 0 0 1-.245-.424.743.743 0 0 1 .145-.494.828.828 0 0 1 .222-.202l.272-.376.141.103-.136.179a.644.644 0 0 1 .423.127.63.63 0 0 1 .254.423.7.7 0 0 1-.136.499.62.62 0 0 1-.334.268h-.033a.221.221 0 0 0-.033.174.16.16 0 0 0 .061.118.174.174 0 0 0 .104.037c.132 0 .273-.188.414-.39.141-.202.386-.518.625-.518a.419.419 0 0 1 .26.094.724.724 0 0 1 0 1.021zm.635-2.084-.183-.122a.607.607 0 0 1-.066.583.57.57 0 0 1-.47.278.508.508 0 0 1-.301-.104c-.372-.254-.217-.588-.08-.884a1.326 1.326 0 0 0 .136-.405l-.291-.207a.254.254 0 0 0-.396.071c-.127.188-.065.301.245.72l-.08.113-.527-.363a1.52 1.52 0 0 1 .212-.536.682.682 0 0 1 .555-.357.433.433 0 0 1 .24.07l1.077.743.099-.14.122.084-.315.47zm.941-1.411-.122-.08.113-.174-1.082-.691c-.193-.127-.296-.132-.386 0a.287.287 0 0 0-.028.263.64.64 0 0 0 .268.301l.94.593.109-.203.122.076-.432.682-.127-.08.103-.165-1.34-.86-.104.164-.127-.08.31-.47.146.094a.593.593 0 0 1 .061-.527.47.47 0 0 1 .753-.137l1.044.668.104-.16.127.08-.438.678zm.913-1.364a.39.39 0 0 1-.344.226.532.532 0 0 1-.277-.09l-1.148-.691-.118.193-.127-.076.118-.192-.367-.226.207-.348.372.225.211-.357.132.075-.216.358 1.237.743a.174.174 0 0 0 .099.038c.028 0 .07 0 .117-.09s.076-.197-.17-.348l-.272-.165.075-.127.26.156c.319.193.385.409.21.696zm.738-1.26a.776.776 0 0 1-.691.38 1.18 1.18 0 0 1-.584-.164.894.894 0 0 1-.47-1.204.767.767 0 0 1 .692-.386 1.209 1.209 0 0 1 .583.164 1.157 1.157 0 0 1 .513.55.767.767 0 0 1-.043.65zm.828-1.534a1.312 1.312 0 0 1-.423.47l-.612-.315.076-.146h.028a2.352 2.352 0 0 0 .527.104c.14 0 .216-.057.305-.226a.386.386 0 0 0-.117-.574c-.113-.056-.268.09-.433.25a1.096 1.096 0 0 1-.654.385.47.47 0 0 1-.207-.052.64.64 0 0 1-.202-.94 1.228 1.228 0 0 1 .362-.414l.56.291-.075.141h-.024a2.912 2.912 0 0 0-.47-.07c-.123 0-.18.037-.245.165-.066.127-.09.409.066.493a.23.23 0 0 0 .094.024c.132 0 .277-.136.423-.278a.997.997 0 0 1 .607-.362.47.47 0 0 1 .212.057.687.687 0 0 1 .211.987zm.94-2.009-.136-.066a.546.546 0 0 1 0 .47.47.47 0 0 1-.418.325.776.776 0 0 1-.31-.08l-1.125-.536-.085.174-.131-.06.254-.542 1.317.621c.197.094.287.08.362-.075a.292.292 0 0 0 0-.264.654.654 0 0 0-.31-.263l-.988-.47-.09.188-.131-.066.263-.555 1.576.748.08-.174.136.06-.258.547zm.4-.818a.202.202 0 0 1-.089 0 .23.23 0 0 1-.122-.127.226.226 0 0 1 0-.174.235.235 0 0 1 .301-.118.226.226 0 0 1 .118.301.226.226 0 0 1-.212.137zM125.054 109.955c-.062 0 .084-.155.117-.301a.193.193 0 0 0-.037-.179c-.09-.103-.34-.183-.941-.17-.038 0 0-.089.056-.197.057-.108.043-.348-.428-.324a3.655 3.655 0 0 0-.47.065h-.104c-.075 0-.033-.207-.155-.329a.268.268 0 0 0-.212-.066 1.797 1.797 0 0 0-.785.301c-.028 0 0-.131-.075-.244a.254.254 0 0 0-.132-.108c-.165-.052-.47 0-1.068.423-.037 0-.061-.056-.132-.122a.273.273 0 0 0-.136-.076c-.165-.037-.47.029-1.011.438-.104.08-.24.033-.537.136h-.023a4.271 4.271 0 0 0-1.247.866l-.06.042c-.189.136-.673.442-.796.508a4.821 4.821 0 0 1-2.751.635 37.192 37.192 0 0 0-3.175 0 44.77 44.77 0 0 0-4.85.73 3.636 3.636 0 0 1 .818-.067c.866.029 2.108.217 1.482.602l.094-.028a16.826 16.826 0 0 1 4.455-.47c1.129 0 2.13.061 2.77.07h.066c.597-.056 4.638-.71 8.655-1.185l.353-.066.22-.047c.72-.226 1.205-.611.034-.851zM72.992 109.955c.066 0-.08-.155-.118-.301a.193.193 0 0 1 .038-.179c.094-.103.343-.183.94-.17.043 0 0-.089-.051-.197-.052-.108-.047-.348.428-.324a3.72 3.72 0 0 1 .47.065h.109c.07 0 .032-.207.15-.329a.278.278 0 0 1 .212-.066 1.778 1.778 0 0 1 .785.301c.028 0 0-.131.075-.244a.25.25 0 0 1 .137-.108c.16-.052.47 0 1.063.423.038 0 .061-.056.132-.122a.296.296 0 0 1 .136-.076c.165-.037.47.029 1.011.438.109.08.24.033.541.136a4.332 4.332 0 0 1 1.266.866l.056.042c.188.136.673.442.8.508a4.807 4.807 0 0 0 2.751.635 37.08 37.08 0 0 1 3.17 0 44.404 44.404 0 0 1 4.865.734 3.617 3.617 0 0 0-.819-.066c-.87 0-2.145.23-1.472.602l-.094-.028a16.807 16.807 0 0 0-4.455-.47c-1.124 0-2.13.06-2.766.07h-.065c-.603-.056-4.638-.71-8.66-1.185l-.353-.066-.221-.047c-.72-.226-1.2-.612-.033-.852z" class="cls-7" style="fill:#009dcc;stroke-width:.470382" transform="translate(-46.378 -102.067)"/><path d="M69.972 132.115q0 1.65-1.618 1.65h-5.395l-.165-1.274a3.918 3.918 0 0 0 1.538.174h2.855a.47.47 0 0 0 .504-.47v-.41a.47.47 0 0 0-.504-.47h-2.982c-.974 0-1.444-.645-1.444-2.018v-.898c0-1.37.47-2.004 1.444-2.004h5.588l.179 1.28a3.932 3.932 0 0 0-1.533-.203h-2.973c-.282 0-.419.141-.419.442v.343c0 .301.137.443.419.443h2.888c1.077 0 1.618.555 1.618 1.655v1.769zM82.08 132.604c-.31 0-.405-.141-.405-.537v-4.007c0-.39.094-.536.405-.536h2.074c.31 0 .404.145.404.536v4.007c0 .396-.094.537-.404.537zm-2.484 3.97h5.776c.941 0 1.538-.645 1.538-2.098v-6.444a7.234 7.234 0 0 1 .137-1.675h-6.115c-1.077 0-1.59.616-1.59 1.985v3.439c0 1.373.513 1.985 1.59 1.985h3.641v.291c0 .758 0 .856-.55 1.05l-4.408 1.462zM93.049 129.796v2.271c0 .396-.099.537-.405.537h-2.098c-.31 0-.404-.141-.404-.537v-1.735c0-.395.094-.536.404-.536zm2.352-1.454c0-1.369-.508-1.985-1.59-1.985h-5.616l-.146 1.26a3.486 3.486 0 0 1 1.133-.155h3.533c.216 0 .339.095.339.349v.47c0 .254-.123.348-.34.348h-3.292c-1.105 0-1.59.536-1.59 2.568s.47 2.569 1.59 2.569h6.115a7.16 7.16 0 0 1-.136-1.67v-3.763zM76.054 129.796v2.271c0 .396-.094.537-.405.537h-2.074c-.315 0-.41-.141-.41-.537v-1.735c0-.395.095-.536.41-.536zm2.352-1.454c0-1.369-.513-1.985-1.59-1.985H71.2l-.146 1.26a3.443 3.443 0 0 1 1.148-.145h3.532c.221 0 .339.094.339.348v.47c0 .254-.118.348-.339.348h-3.293c-1.105 0-1.59.537-1.59 2.569s.471 2.568 1.59 2.568h6.115a7.16 7.16 0 0 1-.136-1.67v-3.763zM102.377 126.357c1.077 0 1.59.616 1.59 1.985v3.763a7.16 7.16 0 0 0 .136 1.67h-2.62a6.9 6.9 0 0 0 .136-1.67v-4.036c0-.39-.094-.536-.404-.536H99.22c-.31 0-.404.146-.404.536v4.036a7.16 7.16 0 0 0 .136 1.67h-2.615a7.16 7.16 0 0 0 .136-1.67v-4.064a7.234 7.234 0 0 0-.136-1.675z" style="stroke-width:.470382" transform="translate(-46.378 -102.067)"/><path d="M64.047 25.396h-1.745v6.36h-2.347v-6.36h-1.76V24.29h5.852z"/><path d="M113.694 132.604c-.31 0-.4-.141-.4-.537v-4.007c0-.39.09-.536.4-.536h2.079c.31 0 .404.145.404.536v4.007c0 .396-.094.537-.404.537zm3.236 1.162c1.082 0 1.595-.612 1.595-1.985v-3.439c0-1.369-.513-1.985-1.595-1.985h-4.393c-1.082 0-1.595.616-1.595 1.985v3.439c0 1.373.513 1.985 1.595 1.985zM126.587 132.115c0 1.1-.536 1.65-1.618 1.65h-5.395l-.174-1.274a3.932 3.932 0 0 0 1.538.174h2.86a.47.47 0 0 0 .498-.47v-.41a.47.47 0 0 0-.498-.47h-2.983c-.969 0-1.444-.645-1.444-2.018v-.898c0-1.37.47-2.004 1.444-2.004h5.598l.174 1.28a3.918 3.918 0 0 0-1.538-.175h-2.964c-.286 0-.418.141-.418.442v.344c0 .3.132.442.418.442h2.884c1.082 0 1.618.555 1.618 1.656v1.768zM129.193 133.766c-1.082 0-1.595-.612-1.595-1.985v-3.763a7.32 7.32 0 0 0-.131-1.675h2.479v5.71c0 .396.094.537.404.537h2c.31 0 .404-.141.404-.537v-4.035a7.234 7.234 0 0 0-.137-1.675h2.48v5.739a7.16 7.16 0 0 0 .136 1.67zM99.013 152.548c3.73-.066 15.212-7.705 22.348-18.209h-.898c-7.136 9.596-17.908 16.995-21.45 17.01-3.184 0-12.23-6.007-19.21-14.201h-.706v-.856q-.78-.941-1.524-1.953h-.898c7.14 10.504 18.618 18.143 22.348 18.209zM126.723 122.599a4.257 4.257 0 0 0 .123-.941c0-.343-.047-.508-.094-.287a24.984 24.984 0 0 1-.363 1.533 26.962 26.962 0 0 1-.978 2.88h.414a27.908 27.908 0 0 0 .94-3.19zM71.66 122.91a21.993 21.993 0 0 1-.366-1.534c-.043-.221-.094-.057-.094.287a4.257 4.257 0 0 0 .122.94 27.936 27.936 0 0 0 .94 3.19h.391a25.956 25.956 0 0 1-.978-2.88z" style="stroke-width:.470382" transform="translate(-46.378 -102.067)"/><path d="m124.414 128.036-.042.08h.512l.038-.08zM122.208 131.851c-.052.08-.099.16-.155.24h.757l.141-.24h-.739zM75.494 131.282a36.274 36.274 0 0 1-.555-.913h-.668c.297.56.607 1.11.941 1.66h.282zM106.925 111.921a4.704 4.704 0 0 0-1.369.184l-.235.065a12.122 12.122 0 0 0-1.999.772c-.47-1.223-1.063-1.995-1.882-2.423l-.108-.08a3.909 3.909 0 0 0-2.319-.78 3.9 3.9 0 0 0-2.31.78l-.103.08c-.804.428-1.41 1.2-1.881 2.423a12.122 12.122 0 0 0-2-.772l-.235-.065a4.704 4.704 0 0 0-1.368-.184c-.885 0-2.103.23-1.496.588l.54.184a12.752 12.752 0 0 1 1.21.564c.164.08 1.655.78 2.76 1.411a4.45 4.45 0 0 1 1.412 1.02c.3.542.108.913.32 1.473a2.747 2.747 0 0 0 .63.748c.057.052.207.17.367.292v.06h-.028c-.108 0-.362-.258-.442-.296a1.091 1.091 0 0 0 .277.697.884.884 0 0 0 .65.296.442.442 0 0 0 .305-.099 3.763 3.763 0 0 1 .668 2.216l.127 2.201v.085a6.002 6.002 0 0 0 .136.823v.037a9.709 9.709 0 0 0 .428 1.374v.028-.028a9.44 9.44 0 0 0 .428-1.374v-.037a6.872 6.872 0 0 0 .132-.823v-.085l.132-2.201a3.716 3.716 0 0 1 .752-2.197.442.442 0 0 0 .306.099.898.898 0 0 0 .654-.297 1.077 1.077 0 0 0 .273-.696c-.075.038-.334.282-.442.297h-.029v-.062l.372-.291a2.822 2.822 0 0 0 .626-.748c.216-.56.023-.94.32-1.472a4.483 4.483 0 0 1 1.41-1.021c1.106-.612 2.592-1.312 2.757-1.411a12.752 12.752 0 0 1 1.209-.565l.546-.183c.606-.358-.612-.574-1.496-.588z" style="stroke-width:.470382" transform="translate(-46.378 -102.067)"/><path d="M58.153 25.97v.07l1.228.979v-1.05z"/><path d="M110.373 128.262v-.226h-1.129v.377a1.717 1.717 0 0 0 1.12-.141zM105.627 131.282l.132-.09v-1.307l-1.223-1.646a.8.8 0 0 1 0 .103v2.677c.39.235.837.4 1.086.263zM100.72 132.73v-2.986l.316.757v-2.277a.437.437 0 0 1-.122.062h-.038l-.075.028-.137.037h-.249c-.32.047-.687.066-1.011.094v3.59a6.28 6.28 0 0 0 .122 1.542l.16.696c.57-.032 1.049-1.138 1.049-1.604zM93.331 125.275l-.042-.146-.113-.437a.73.73 0 0 0 0-.108 8.492 8.492 0 0 1-.099-.499l-7.093 1.185a.94.94 0 0 0-.64.513h8.18a9.184 9.184 0 0 1-.17-.508zM91.958 130.37a.795.795 0 0 0 .442.912h.056v-.94zM89.173 128.036a3.11 3.11 0 0 0-1.016.141l-.428.123a1.063 1.063 0 0 0 .39.113h.033a1.976 1.976 0 0 1 1.251-.358H90.001h-.828zM112.085 125.27l-7.093-1.185c-.028.17-.061.339-.099.499a.753.753 0 0 1-.023.099q-.047.235-.113.47c0 .047-.024.09-.038.132a7.39 7.39 0 0 1-.17.517H111v.574a2.084 2.084 0 0 1 1.538-.574h.188a.94.94 0 0 0-.64-.513zM149.344 107.58s-.583-.58-2.31-.786a37.63 37.63 0 0 0-6.91-.07 54.08 54.08 0 0 0-4.143.437c2.422-.626 7.305-1.882 10.164-2.526 0 0-.136-.235-1.081-.339a25.236 25.236 0 0 0-6.83.428c-.16 0-.32.057-.47.085l3.367-1.411a3.166 3.166 0 0 0-.588-.108 18.397 18.397 0 0 0-5.005.555l1.45-.762a1.35 1.35 0 0 0-.344-.071 10.875 10.875 0 0 0-4.318.616 14.51 14.51 0 0 0-.795.325l1.481-.8-.225-.033a8.048 8.048 0 0 0-3.646.833q-.122.052-.24.113a5.993 5.993 0 0 0-2.93.682 8.552 8.552 0 0 0-.743.47 6.726 6.726 0 0 0-2.77 1.228c-.255.179-.532.38-.824.597l-.94.71c-.612.47-1.243.941-1.817 1.412l-.889.705a3.815 3.815 0 0 1 1.026-.616h.023c.588-.47 1.223-.94 1.825-1.411l.762-.598a2.08 2.08 0 0 1 .231-.122c.198-.094.47-.207.513-.24a7.441 7.441 0 0 1 1.632-.776c-.55.372-1.12.786-1.68 1.209-.338.254-.672.513-.992.762l-.748.579a.273.273 0 0 1 .137.075l.752-.588 1.016-.776a40.595 40.595 0 0 1 1.952-1.411c.184-.118.805-.306.988-.405a4.883 4.883 0 0 1 1.811-.569 49.131 49.131 0 0 0-4.149 2.634l-1.129.786-.032.023a.254.254 0 0 1 .131.108l.057-.042 1.138-.804a33.251 33.251 0 0 1 4.384-2.677c.066-.028.79-.235.856-.263 1.548-.696 2.187-.837 2.733-.81l-2.62 1.426c-1.604.78-3.471 1.82-4.784 2.568l-.912.527a.273.273 0 0 1 .211.066l.88-.503c1.816-1.035 5.01-2.794 6.717-3.392.24-.085 1.115-.202 1.251-.25 1.388-.47 1.82-.47 2.474-.423l-.893.5a85.139 85.139 0 0 0-9.027 3.819l-1.143.555a3.72 3.72 0 0 1 .47-.066l.842-.41c1.82-.87 5.518-2.572 7.752-3.123.607-.15.81-.131 1.378-.235 1.454-.259 3.105-.88 3.97-.658l-1.956.85c-3.03.688-8.27 2.635-10.523 3.496l-1.03.395c0 .056-.028.085-.052.146-.023.06 0 .052 0 .052s.47-.193 1.266-.47c2.163-.824 6.585-2.437 8.98-2.894a17.32 17.32 0 0 1 1.773-.103c1.999-.212 3.988-.63 4.962-.334-2.041.517-5.513 1.496-7.31 2.004-2.182.3-5.818 1.218-7.728 1.721l-1.02.268a.193.193 0 0 1 .037.18c.23-.067.65-.18 1.195-.32 2.215-.584 6.627-1.647 9.99-1.882 1.115-.08.913.075 2.019 0 1.801-.146 3.89-.4 5.611.235a203.946 203.946 0 0 0-16.275 2.582c-.823.165-1.642.339-2.455.513l-.236.047-.277.061.578-.052 1.143-.122h.104l1.087-.103.47-.029c1.223-.047 2.94.043 2.94.043-.075 0-4.662.433-11.247 1.36-1.703.24-3.763.517-4.12.512-.645 0-1.666-.066-2.823-.057-1.914 0-4.181.193-5.644 1.026-3.453 1.943-4.577 2.352-4.77 3.448v.113c-.104 1.622-.597 1.745-1.27 2.295-.141.108-.282.24-.47.376-.692.55-.8 2.065-.89 3.618 2.978-.141 4.949-1.849 4.29-6.84 0-.122-.032-.24-.051-.357a23.293 23.293 0 0 1 1.608 5.522 1.364 1.364 0 0 0 1.595 1.129c.94-.212 1.223-1.74 1.223-1.74s1.054.672 1.985.211c.814-.4 1.011-1.74 1.011-1.74s1.313.146 1.882-.339c.795-.682.423-1.566.47-1.881 1.233.028 1.585-.47 1.703-.621.118-.15-.207-.4-.654-.696 1.096.07 2.253 0 2.634-.499.066-.085-.875-.47-1.209-.7 1.11.314 2.352.216 2.667-.316.043-.075-.983-.428-1.237-.626 1.167.052 2.315.029 2.88-.564.06-.061-1.389-.188-1.614-.367a13.697 13.697 0 0 0 3.104-.597 5.033 5.033 0 0 0 1.449-.65l2.38-.249 2.86-.282c1.294-.127 2.507-.24 3.293-.296a27.057 27.057 0 0 0 1.74-.221c-.117-.137-2.526-.47-4.102-.513a188.449 188.449 0 0 1 19.587-2.503zM48.706 107.58s.583-.58 2.328-.805a37.678 37.678 0 0 1 6.915-.07c1.378.089 2.761.24 4.144.437-2.427-.626-7.31-1.882-10.17-2.526 0 0 .137-.235 1.082-.339a25.236 25.236 0 0 1 6.83.428c.16 0 .32.057.47.085l-3.367-1.411a3.293 3.293 0 0 1 .588-.108 18.439 18.439 0 0 1 5 .588l-1.449-.762a1.35 1.35 0 0 1 .339-.076 10.866 10.866 0 0 1 4.313.617c.23.084.499.192.8.324l-1.487-.8.226-.032a8.062 8.062 0 0 1 3.64.823l.236.113a5.993 5.993 0 0 1 2.93.682 8.552 8.552 0 0 1 .744.47 6.736 6.736 0 0 1 2.775 1.228c.25.179.532.38.823.597l.96.673c.616.47 1.246.94 1.815 1.411l.89.706a3.885 3.885 0 0 0-1.021-.617h-.024c-.588-.47-1.227-.94-1.825-1.41l-.776-.56a1.707 1.707 0 0 0-.23-.123c-.198-.094-.47-.207-.513-.24a7.329 7.329 0 0 0-1.628-.776c.546.372 1.12.786 1.675 1.209.343.254.677.513.992.762.316.25.518.405.748.593a.296.296 0 0 0-.136.075l-.767-.607c-.33-.258-.677-.522-1.011-.776-.772-.588-1.482-1.11-1.952-1.388-.188-.117-.81-.305-.988-.404a4.901 4.901 0 0 0-1.806-.588 48.388 48.388 0 0 1 4.148 2.634l1.13.786.037.023a.25.25 0 0 0-.136.108l-.033-.042-1.143-.804a32.95 32.95 0 0 0-4.384-2.677c-.061-.028-.79-.235-.852-.263-1.547-.696-2.192-.837-2.737-.81l2.591 1.426c1.604.78 3.472 1.82 4.789 2.568l.908.527a.263.263 0 0 0-.207.066l-.885-.503c-1.815-1.035-5.01-2.794-6.712-3.392-.244-.085-1.115-.202-1.256-.25-1.383-.47-1.815-.47-2.47-.422l.894.498a85.558 85.558 0 0 1 9.027 3.82l1.143.555a3.914 3.914 0 0 0-.47-.066l-.842-.41c-1.807-.85-5.499-2.554-7.743-3.104-.602-.15-.809-.132-1.378-.235-1.449-.259-3.104-.88-3.965-.659l1.952.852c3.03.687 8.27 2.634 10.527 3.495l1.025.395a1.152 1.152 0 0 0 .057.146c.033.075 0 .051 0 .051s-.47-.192-1.266-.47c-2.159-.823-6.585-2.437-8.974-2.893a17.475 17.475 0 0 0-1.774-.099c-2.004-.211-3.989-.63-4.962-.334 2.037.518 5.513 1.496 7.305 2.004 2.187.301 5.818 1.219 7.728 1.722l1.02.268a.193.193 0 0 0-.037.179c-.23-.066-.644-.179-1.19-.32-2.22-.583-6.628-1.646-9.99-1.882-1.12-.08-.918.076-2.023 0-1.797-.145-3.886-.4-5.607.236 5.315.62 10.913 1.505 16.27 2.582a160.5 160.5 0 0 1 2.456.513l.235.047.277.06-.578-.05-1.139-.123h-.103l-1.091-.104-.47-.028c-1.224-.047-2.94.042-2.94.042.075 0 4.66.433 11.246 1.36 1.708.24 3.763.517 4.125.513.645 0 1.666-.066 2.823-.057 1.914 0 4.186.193 5.668 1.026 3.448 1.942 4.572 2.352 4.77 3.448v.112c.108 1.623.597 1.746 1.274 2.296.137.108.278.24.47.376.692.55.805 2.065.89 3.617-2.978-.14-4.944-1.848-4.29-6.839 0-.122.037-.24.051-.357a23.293 23.293 0 0 0-1.608 5.522 1.36 1.36 0 0 1-1.632 1.171c-.941-.212-1.223-1.74-1.223-1.74s-1.054.672-1.98.211c-.82-.4-1.017-1.74-1.017-1.74s-1.307.146-1.881-.339c-.795-.682-.424-1.566-.47-1.881-1.233.028-1.581-.47-1.699-.621-.117-.15.202-.4.65-.696-1.097.07-2.254 0-2.635-.499-.066-.085.88-.47 1.21-.7-1.111.314-2.353.216-2.663-.316-.047-.075.978-.428 1.232-.626-1.162.052-2.314.029-2.879-.564-.056-.061 1.412-.188 1.614-.367a13.796 13.796 0 0 1-3.105-.597 4.995 4.995 0 0 1-1.444-.65l-2.385-.249-2.855-.282c-1.293-.127-2.512-.24-3.292-.296a27.536 27.536 0 0 1-1.74-.221c.121-.137 2.53-.47 4.106-.513a188.373 188.373 0 0 0-19.559-2.536Z" style="stroke-width:.470382" transform="translate(-46.378 -102.067)"/></svg>