<svg xmlns="http://www.w3.org/2000/svg" width="74.048668mm" height="94.985413mm" viewBox="0 0 74.048668 94.985413"><path d="m183.189 98.955-2.442 1.212c-5.03 2.424-10.763 5.177-14.926 6.65l-1.762.618.074 1.87c.056 1.387 1.36 34.067 4.1 44.342 2.901 10.854 8.77 19.736 17.448 26.403a50.33 50.33 0 0 0 14.536 7.767l.86.283.856-.283a50.297 50.297 0 0 0 14.541-7.767c8.679-6.667 14.547-15.55 17.459-26.414 2.741-10.276 4.044-42.955 4.101-44.343l.074-1.87-1.762-.617c-4.192-1.473-9.902-4.226-14.932-6.656l-2.436-1.207c-5.2-2.588-11.67-5.829-17.9-5.829-6.232 0-12.7 3.24-17.89 5.84z" class="cls-1" style="fill:#fff;stroke-width:.566468" transform="translate(-164.059 -93.114)"/><path d="m183.681 99.946-2.43 1.212c-5.098 2.442-10.814 5.212-15.062 6.707l-.991.346.04 1.048c.056 1.382 1.353 33.937 4.066 44.1 2.833 10.615 8.571 19.299 17.051 25.813a49.079 49.079 0 0 0 14.213 7.591l.498.164.51-.17a49.079 49.079 0 0 0 14.23-7.585c8.497-6.514 14.218-15.198 17.05-25.814 2.714-10.162 4.011-42.717 4.068-44.1l.04-1.047-.992-.346c-4.254-1.495-9.97-4.265-15.068-6.707l-2.442-1.212c-5.098-2.55-11.414-5.721-17.396-5.721-5.982 0-12.298 3.172-17.385 5.721zm-1.206 3.773 2.481-1.23c4.82-2.413 10.814-5.42 16.122-5.42 5.307 0 11.3 3.007 16.121 5.42l2.481 1.23c4.985 2.407 10.118 4.883 14.35 6.463-.25 5.665-1.559 33.563-3.926 42.446a44.286 44.286 0 0 1-16.037 24.284 46.19 46.19 0 0 1-12.99 7.007 46.19 46.19 0 0 1-12.988-7.007 44.286 44.286 0 0 1-16.037-24.284c-2.368-8.883-3.677-36.753-3.926-42.446 4.232-1.58 9.364-4.056 14.349-6.463z" style="stroke-width:.566468" transform="translate(-164.059 -93.114)"/><path d="m193.844 131.413-2.578 4.702-1.099-4.702h-2.22l2.232 9.494h.702l5.234-9.494zM196.546 131.413v2.085h1.393l-.827 5.183h-1.495v2.085h5.002v-2.085h-1.41l.815-5.183h1.507v-2.085zM205.122 131.47a3.739 3.739 0 0 0-1.093.566 3.138 3.138 0 0 0-1.269 2.051 2.832 2.832 0 0 0-.04.482 2.22 2.22 0 0 0 .108.713 2.107 2.107 0 0 0 .567.85 5.24 5.24 0 0 0 1.642.9c.833.34 1.23.567 1.23.901a.43.43 0 0 1 0 .085c-.08.516-.833.788-1.349.788a2.832 2.832 0 0 1-.974-.187 7.222 7.222 0 0 1-1.07-.567l-.352-.21-.566 1.881.147.13a3.965 3.965 0 0 0 1.133.754 3.5 3.5 0 0 0 1.37.255 4.164 4.164 0 0 0 2.414-.753 3.461 3.461 0 0 0 .9-.94 3.399 3.399 0 0 0 .488-1.304 2.793 2.793 0 0 0 .034-.424 2.09 2.09 0 0 0-.12-.708 2.045 2.045 0 0 0-.566-.805 5.568 5.568 0 0 0-1.58-.872 5.234 5.234 0 0 1-.997-.504c-.21-.159-.26-.29-.26-.408v-.074a.787.787 0 0 1 .362-.481 1.626 1.626 0 0 1 .895-.25 2.266 2.266 0 0 1 .895.204 4.407 4.407 0 0 1 .838.493l.29.215.94-1.699-.187-.164a5.042 5.042 0 0 0-1.196-.844 3.286 3.286 0 0 0-1.399-.284 3.965 3.965 0 0 0-1.235.21zm-2.345 2.634zm5.665 3.807zM212.526 131.47a3.886 3.886 0 0 0-1.093.566 3.16 3.16 0 0 0-1.27 2.051 3.597 3.597 0 0 0-.039.482 2.22 2.22 0 0 0 .114.713 2.107 2.107 0 0 0 .566.85 5.274 5.274 0 0 0 1.637.9c.838.34 1.235.567 1.235.901a.436.436 0 0 1 0 .085c-.074.516-.827.788-1.343.788a2.798 2.798 0 0 1-.974-.187 7.245 7.245 0 0 1-1.076-.567l-.351-.21-.567 1.881.153.13a3.965 3.965 0 0 0 1.133.754 3.54 3.54 0 0 0 1.37.255 4.164 4.164 0 0 0 2.414-.753 3.399 3.399 0 0 0 .906-.94 3.291 3.291 0 0 0 .482-1.304 2.832 2.832 0 0 0 .04-.424 2.09 2.09 0 0 0-.125-.708 2.045 2.045 0 0 0-.567-.805 5.614 5.614 0 0 0-1.62-.918 5.478 5.478 0 0 1-1.002-.504.515.515 0 0 1-.255-.408.323.323 0 0 1 0-.073.76.76 0 0 1 .357-.482 1.626 1.626 0 0 1 .895-.249 2.266 2.266 0 0 1 .895.204 4.407 4.407 0 0 1 .838.493l.289.215.94-1.7-.187-.164a4.934 4.934 0 0 0-1.195-.844 3.263 3.263 0 0 0-1.393-.283 3.994 3.994 0 0 0-1.207.255zm-2.385 2.634zm5.665 3.807zM218.259 131.413v1.745l-1.201 7.608h5.234v-2.085h-2.832l.311-1.982h3.008v-2.085h-2.674l.17-1.133h2.963v-2.085zM225.436 131.413v1.745l-1.201 7.608h4.843v-2.085h-2.419l1.133-7.268z" class="cls-2" style="fill:#a40931;stroke-width:.566468" transform="translate(-164.059 -93.114)"/><path d="m96.82 94.14-14.35 20.5-14.35-20.5 14.35 33.02z" class="cls-2" style="fill:#a40931" transform="matrix(.56647 0 0 .56647 -30.958 -20.483)"/><path d="M176.181 109.332c-1.926.884-3.829 1.7-5.608 2.442.125 2.696.352 7.217.674 12.332h4.934zM174.346 152.016a46.207 46.207 0 0 0 1.835 5.489v-10.99h-2.86a49.725 49.725 0 0 0 1.025 5.5zM187.392 103.928l-1.382.691-2.493 1.235-2.39 1.133v17.119h6.265zM181.115 166.427a41.352 41.352 0 0 0 6.277 6.837v-26.749h-6.277zM192.32 176.997a44.213 44.213 0 0 0 6.277 3.399V146.52h-6.277zM198.597 99.674a30.164 30.164 0 0 0-6.277 1.96v22.472h6.277zM209.801 101.623a29.808 29.808 0 0 0-6.276-1.955v24.438h6.276zM203.525 180.402a43.98 43.98 0 0 0 6.276-3.4v-30.487h-6.276zM221.006 106.993l-2.38-1.133-2.486-1.23-1.41-.702v20.178h6.276zM214.73 173.292a41.488 41.488 0 0 0 6.276-6.797v-19.98h-6.276zM225.94 157.601a46.875 46.875 0 0 0 1.87-5.568 49.725 49.725 0 0 0 1.036-5.5h-2.906zM231.582 111.774c-1.79-.72-3.705-1.57-5.665-2.459v14.79h4.968c.346-5.114.572-9.635.697-12.331z" style="stroke-width:.566468" transform="translate(-164.059 -93.114)"/></svg>