<svg xmlns="http://www.w3.org/2000/svg" xml:space="preserve" width="252" height="178.9097" viewBox="0 0 252 178.9097"><path d="m609.055 165.652 40.093 61.739h-47.996l-40.101-61.739h48.004M616.734 168.523h54.661l-28.094 40.625-26.567-40.625M346.441 741.797c-50.98.254-78.675-28.789-87.949-80.707 20.988 6.402 38.938 10.879 55.918 26.937 13.641 12.93 16.934 37.938 32.031 53.77M251.609 661.539c3.114 31.25 22.371 54.969 24.985 82.957 1.199 12.883-4.696 38.149-16.184 49.274 0-4.493-7.527-23.215-18.379-43.512-12.898-24.11-20.269-69.32 9.578-88.719M294.98 746.871c9.411 6.66 34.551 20.727 44.379 39.317 15.411 29.16 6.461 59.3 3.762 72.39-9.5-12.09-29.5-23.578-41.527-50.98-11.071-25.2-9.66-52.961-6.614-60.727M306.82 661.918c-38.492-8.367-65.058-43.941-60.086-105.477 15.184 15.336 32.567 18.305 44.907 41.395 12.339 23.102 5.668 44.973 15.179 64.082M239.172 558.648c-6.301 28.586 3.898 57.329-2 83.11-2.91 11.793-14.109 36.219-26.813 43.121 1.043-12.828-5.941-29.258-6.992-52.742-1.476-32.938 2.461-63.117 35.805-73.489M291.609 570.449c-44.656-24.32-45.609-79.34-28.449-115.344 9.711 16.211 24.531 26.5 29.809 49.403 5.082 22-2.328 44.234-1.36 65.941M256.277 451.559c-11.843 21.121-12.254 62.07-25.457 82.328-8.39 12.863-21.156 26.832-36.976 32.023 1.625-4.574 3.636-20.172 5.636-44.492 2.485-30.32 21.25-64.359 56.797-69.859M305.828 479.105c-31.848-28.875-34.445-72.964 2.223-118.218 4.82 16.75 15.648 20.84 13.953 54.398-1.363 26.797-12.473 44.203-16.176 63.82M301.621 354.891c-15.801 15.703-26.601 56.757-45.351 74.105-7.227 6.695-32.176 20.512-46.879 20.785 3.269-3.015 9.031-17.035 17.382-39.929 11.528-31.426 41.977-63.262 74.848-54.961M336.277 397.547c-17.843-38.438-7.035-82.418 41.086-114.649-2.582 15.567 7.18 40.879-3.3 64.438-9.352 21.043-28.981 34.383-37.786 50.211M370.941 277.566c-21.41 10.079-40.3 44.895-65.332 57.094-15.476 7.539-31.808 10.379-50.398 5.399 4.062-1.829 22.039-23.625 39.801-42.684 20.742-22.219 49.347-34.184 75.929-19.809M396.031 325.129c-7.242-41.566 13.52-82.113 66.68-96-.191 13.086-2.512 34.348-18.781 57.344-17.367 24.504-35.887 29.32-47.899 38.656M461.141 220.469c-22.739 3.488-56.899 34.992-80.59 37.722-14.36 1.684-38.063.207-49.168-8.316 9.265-3.734 24-15.039 44.34-28.078 22.398-14.336 58.988-22.317 85.418-1.328M467.582 278.68c6.387-48.434 40.84-76.961 96.891-79.539-9.168 11.945-11.313 32.136-34.282 50.488-20.671 16.512-44.543 14.687-62.609 29.051M565.238 192.785c-34.609-.687-60.906 16.344-86.183 13.914-12.856-1.23-34.664-8.019-45.832-20.535 4.398.602 23.187-5.746 45.718-14.359 32.403-12.344 72.793-8.965 86.297 20.98M892.645 741.797c51.007.254 78.71-28.789 87.953-80.707-20.969 6.402-38.926 10.879-55.879 26.937-13.656 12.93-16.946 37.938-32.074 53.77M987.488 661.539c-3.101 31.25-22.383 54.969-24.976 82.957-1.196 12.883 4.707 38.149 16.179 49.274 0-4.493 7.547-23.215 18.387-43.512 12.882-24.11 20.262-69.32-9.59-88.719M944.133 746.871c-9.414 6.66-34.555 20.727-44.399 39.317-15.386 29.16-6.433 59.3-3.75 72.39 9.532-12.09 29.512-23.578 41.536-50.98 11.043-25.2 9.66-52.961 6.613-60.727M932.297 661.918c38.484-8.367 65.055-43.941 60.086-105.477-15.188 15.336-32.57 18.305-44.922 41.395-12.332 23.102-5.676 44.973-15.164 64.082M999.93 558.648c6.3 28.586-3.907 57.329 2 83.11 2.92 11.793 14.09 36.219 26.83 43.121-1.06-12.828 5.92-29.258 6.97-52.742 1.49-32.938-2.47-63.117-35.8-73.489M947.488 570.449c44.668-24.32 45.625-79.34 28.457-115.344-9.715 16.211-24.527 26.5-29.812 49.403-5.07 22 2.336 44.234 1.355 65.941M982.832 451.559c11.848 21.121 12.273 62.07 25.458 82.328 8.39 12.863 21.16 26.832 36.98 32.023-1.63-4.574-3.65-20.172-5.64-44.492-2.49-30.32-21.26-64.359-56.798-69.859M933.27 479.105c31.835-28.875 34.453-72.964-2.223-118.218-4.809 16.75-15.649 20.84-13.957 54.398 1.379 26.797 12.48 44.203 16.18 63.82M937.512 354.891c15.758 15.703 26.57 56.757 45.332 74.105 7.246 6.695 32.176 20.512 46.876 20.785-3.27-3.015-9.02-17.035-17.38-39.929-11.52-31.426-41.981-63.262-74.828-54.961M902.832 397.547c17.852-38.438 7.031-82.418-41.086-114.649 2.578 15.567-7.195 40.879 3.281 64.438 9.375 21.043 28.996 34.383 37.805 50.211M868.184 277.566c21.386 10.079 40.261 44.895 65.3 57.094 15.489 7.539 31.836 10.379 50.395 5.399-4.043-1.829-22.016-23.625-39.785-42.684-20.735-22.219-49.321-34.184-75.91-19.809M843.055 325.129c7.258-41.566-13.504-82.113-66.66-96 .187 13.086 2.5 34.348 18.773 57.344 17.359 24.504 35.895 29.32 47.887 38.656M777.949 220.469c22.766 3.488 56.922 34.992 80.614 37.722 14.347 1.684 38.046.207 49.14-8.316-9.234-3.734-23.973-15.039-44.312-28.078-22.446-14.336-59.004-22.317-85.442-1.328M771.523 278.68c-6.378-48.434-40.82-76.961-96.894-79.539 9.187 11.945 11.316 32.136 34.266 50.488 20.683 16.512 44.574 14.687 62.628 29.051M673.895 192.785c34.589-.687 60.878 16.344 86.144 13.914 12.883-1.23 34.68-8.019 45.828-20.535-4.375.602-23.183-5.746-45.722-14.359-32.372-12.344-72.774-8.965-86.25 20.98M41.773 245.027l-22.254-9.336c9.59-6.601 72.153-41.453 97.274-54.05l8.848 18.273c-8.782 3.316-66.508 34.336-83.868 45.113M1197.31 245.027l22.25-9.336c-9.6-6.601-72.14-41.453-97.26-54.05l-8.87 18.273c8.77 3.316 66.52 34.336 83.88 45.113M619.543 9.383c173.902 0 346.148 40.761 526.137 123.918l-8.61 17.785C941.633 60.801 769.973 29.383 619.543 29.383c-150.441 0-322.113 31.418-517.531 121.703l-8.598-17.785C273.38 50.145 445.621 9.383 619.543 9.383" style="fill:#be9b47;fill-opacity:1;stroke:none;stroke-opacity:1" transform="matrix(.20833 0 0 -.20833 -3.066 179.864)"/><path d="M1135.45 372.227c-49.59-28.008-137.598-72.723-157.645-78.625l19.265-47.93c-126.101-47.008-257.539-72.52-377.527-72.52-119.992 0-251.434 25.512-377.551 72.52l19.285 47.93c-20.054 5.902-108.054 50.617-157.644 78.625l2.008-23.848c19.101-11.004 105.941-57.356 110.609-59.043l-53.047-11.777-8.48-17.493c146.898-66.773 312.527-106.914 464.82-106.914 152.281 0 317.918 40.141 464.807 106.914l-8.46 17.493-53.06 11.777c4.67 1.687 91.49 48.039 110.62 59.043l2 23.848" style="fill:#be9b47;fill-opacity:1;stroke:none;stroke-opacity:1" transform="matrix(.20833 0 0 -.20833 -3.066 179.864)"/><path d="M41.773 245.027c17.36-10.777 75.086-41.797 83.868-45.113l37.562 77.645 53.047 11.777c-4.668 1.687-91.508 48.039-110.609 59.043l6.199-73.918-70.067-29.434" style="fill:#284296;fill-opacity:1;fill-rule:nonzero;stroke:none" transform="matrix(.20833 0 0 -.20833 -3.066 179.864)"/><path d="M619.543 29.383c150.437 0 322.09 31.418 517.527 121.703l-52.72 108.98c-146.889-66.773-312.526-106.914-464.807-106.914-152.293 0-317.922 40.141-464.82 106.914l-52.711-108.98C297.43 60.801 469.102 29.383 619.543 29.383" style="fill:#284296;fill-opacity:1;fill-rule:nonzero;stroke:none" transform="matrix(.20833 0 0 -.20833 -3.066 179.864)"/><path d="M1197.31 245.027c-17.36-10.777-75.11-41.797-83.88-45.113l-37.54 77.645-53.06 11.777c4.67 1.687 91.49 48.039 110.62 59.043l-6.22-73.918 70.08-29.434" style="fill:#284296;fill-opacity:1;fill-rule:nonzero;stroke:none" transform="matrix(.20833 0 0 -.20833 -3.066 179.864)"/><path d="M861.27 828.797V573.102c-2.391-83.282-30.223-160.516-79.266-216.961-64.895-74.645-112.68-96.59-162.426-114.473-49.75 17.883-97.519 39.828-162.414 114.473-49.043 56.445-76.883 133.679-79.281 216.961v255.695H861.27" style="fill:#100f0d;fill-opacity:1;fill-rule:nonzero;stroke:none" transform="matrix(.20833 0 0 -.20833 -3.066 179.864)"/><path d="M854.617 822.129V573.102c-2.359-81.575-29.922-157.079-77.664-212.602-62.871-73.109-112.773-94.984-157.375-111.742-44.598 16.758-94.476 38.633-157.367 111.742-47.738 55.523-75.301 131.027-77.668 212.602v249.027h470.074" style="fill:#be9b47;fill-opacity:1;stroke:none;stroke-opacity:1" transform="matrix(.20833 0 0 -.20833 -3.066 179.864)"/><path d="M474 370.652c59.23-68.863 100.73-86.843 145.578-105.273 44.887 18.43 86.352 36.41 145.567 105.273 42.648 49.571 71.503 119.207 73.91 202.899v73.199l-405.086-215c11.582-24.477 23.742-42.141 40.031-61.098" style="fill:#284296;fill-opacity:1;fill-rule:nonzero;stroke:none" transform="matrix(.20833 0 0 -.20833 -3.066 179.864)"/><path d="M400.102 806.586V574.781l438.953 231.805H400.102" style="fill:#e6173a;fill-opacity:1;fill-rule:nonzero;stroke:none" transform="matrix(.20833 0 0 -.20833 -3.066 179.864)"/><path d="M400.102 574.781v-1.23c1.597-55.715 13.332-98.281 33.867-141.801l405.086 215v159.836L400.102 574.781" style="fill:#fff;fill-opacity:1;fill-rule:nonzero;stroke:none" transform="matrix(.20833 0 0 -.20833 -3.066 179.864)"/><path d="M485.859 495.547c25.371 0 45.942 20.582 45.942 45.961 0 25.383-20.571 45.937-45.942 45.937-25.367 0-45.949-20.554-45.949-45.937 0-25.379 20.582-45.961 45.949-45.961" style="fill:#100f0d;fill-opacity:1;fill-rule:nonzero;stroke:none" transform="matrix(.20833 0 0 -.20833 -3.066 179.864)"/><path d="m477.551 506.797-4.508-3.359c8.406-2.922 17.426-2.829 25.648 0l-4.519 3.359 7.641 12.699 13.808 3.09 1.77-5.379c5.347 7.191 8.058 15.934 7.914 24.711l-4.075-3.07-9.519 10.761.871 14.551 5.586.039a39.546 39.546 0 0 1-20.738 15.27l1.691-5.391-13.031-5.82-13.488 5.82 1.711 5.391c-8.512-2.633-15.754-8.063-20.762-15.27l5.597-.039 1.344-14.074-9.551-11.457-4.531 3.289a40.382 40.382 0 0 1 7.93-24.711l1.75 5.379 14.062-3.09 7.399-12.699" style="fill:#fff;fill-opacity:1;fill-rule:nonzero;stroke:none" transform="matrix(.20833 0 0 -.20833 -3.066 179.864)"/><path d="m485.648 559.277 17.211-12.449-6.187-18.879h-21.063l-6.211 19.36 16.25 11.968" style="fill:#100f0d;fill-opacity:1;fill-rule:nonzero;stroke:none" transform="matrix(.20833 0 0 -.20833 -3.066 179.864)"/><path d="M794.773 571.727c-10.82 5.41-22.632-1.536-29.644-8.778-7.055 7.242-18.84 14.188-29.668 8.778-5.258-2.622-10.664-8.289-14.555-13.489 11.153-2.578 15.703 12.52 30.782 5.028 2.968-1.996 5.902-3.723 7.617-7.309l-1.524-4.18h14.668l-1.519 4.18c1.699 3.586 4.644 5.313 7.593 7.309 15.09 7.492 19.629-7.606 30.782-5.028-3.883 5.2-9.266 10.867-14.532 13.489M781.434 545.066c-10.821 5.403-22.618-1.535-29.649-8.796-7.027 7.261-18.847 14.199-29.656 8.796-5.242-2.621-10.656-8.289-14.539-13.48 11.148-2.586 15.691 12.512 30.769 5 2.957-1.977 5.907-3.707 7.61-7.289l-1.516-4.199h14.668l-1.516 4.199c1.7 3.582 4.653 5.312 7.598 7.289 15.09 7.512 19.633-7.586 30.766-5-3.879 5.191-9.281 10.859-14.535 13.48M768.098 518.41c-10.825 5.387-22.621-1.558-29.653-8.801-7.027 7.243-18.836 14.188-29.629 8.801-5.293-2.617-10.679-8.305-14.57-13.492 11.164-2.598 15.695 12.52 30.793 5.008 2.938-1.957 5.906-3.707 7.59-7.289l-1.516-4.199h14.668l-1.496 4.199c1.684 3.582 4.633 5.332 7.578 7.289 15.09 7.512 19.629-7.606 30.782-5.008-3.883 5.187-9.278 10.875-14.547 13.492" style="fill:#fff;fill-opacity:1;fill-rule:nonzero;stroke:none" transform="matrix(.20833 0 0 -.20833 -3.066 179.864)"/><path d="M765.781 475.879a13.636 13.636 0 0 1-10.351 4.019l-53.938-2.769a14.365 14.365 0 0 1-6.773-2.043 60.531 60.531 0 0 1-2.129 6.043c-6.953 16.68-22.367 31.199-44.985 42.707V610h67.778c5.465-4.191 12.105-6.496 18.941-6.496 17.297 0 31.367 13.976 31.367 31.355 0 17.368-14.07 31.36-31.367 31.36-6.734 0-13.379-2.278-18.828-6.391h-31.844c3.528 7.91 7.52 18.711 7.891 27.641.754 18.351-7.441 32.027-24.348 40.672-6.433 3.277-13.726 4.98-20.742 4.937l5.352 25.883h-64.403l5.328-25.883c-6.988.043-14.296-1.66-20.726-4.937-16.902-8.645-25.094-22.321-24.344-40.672.352-8.93 4.371-19.731 7.883-27.641h-31.844c-5.445 4.113-12.058 6.391-18.836 6.391-17.289 0-31.343-14.059-31.343-31.36 0-17.214 14.043-31.355 31.343-31.355 6.836 0 13.485 2.305 18.981 6.496h36.297c-6.981-11.23-12.93-25.531-12.93-41.801 0-27.769 14.941-49.668 44.383-65.351v-78.532c-20.672 7.625-38.992 17.332-50.992 25l5.675 5.77c3.703 3.769 4.844 9.062 2.977 13.855-1.863 4.778-6.293 7.918-11.563 8.188l-53.929 2.769c-3.871.188-7.641-1.281-10.328-4.019-2.625-2.66-3.864-6.488-3.864-8.836l3.66-55.469c.36-5.258 3.571-9.633 8.391-11.418 4.801-1.777 10.051-.547 13.762 3.176.219.231 8.597 8.75 8.597 8.75 46.458-38.996 95.122-57.422 115.618-63.441 20.507 6.019 69.172 24.445 115.625 63.441l8.566-8.723c3.691-3.75 8.984-4.98 13.801-3.203 4.801 1.785 7.859 5.821 8.269 11.418l3.77 53.875a13.608 13.608 0 0 1-3.848 10.43m-174.187 80.609c-4.422 8.2-2.36 17.301 0 22.961zm56.558-125.152c-.183-.273-.371-.527-.547-.809v43.453c6.368-5.164 14.575-18.292.547-42.644m48.508 16.75c.145.941.274 1.906.344 2.84l1.598-1.61c-.641-.41-1.266-.82-1.942-1.23" style="fill:#100f0d;fill-opacity:1;fill-rule:nonzero;stroke:none" transform="matrix(.20833 0 0 -.20833 -3.066 179.864)"/><path d="M762.93 473.047a9.515 9.515 0 0 1-7.293 2.84l-53.938-2.766c-3.664-.172-6.98-2.09-8.269-5.371a18.87 18.87 0 0 1-.707-2.184 58.49 58.49 0 0 1-3.844 14.024c-6.809 16.32-22.324 30.566-45.277 41.777v92.641h73.125c4.906-4.149 11.132-6.469 17.597-6.469 15.149 0 27.336 12.43 27.336 27.32 0 15.067-12.258 27.348-27.336 27.348-6.414 0-12.578-2.309-17.461-6.387h-39.511c3.671 7.426 9.738 21.196 10.175 31.797.688 16.899-6.558 28.969-22.156 36.934-7.141 3.656-15.898 5.355-23.918 4.16l5.434 26.215h-54.559l5.402-26.215c-7.988 1.195-16.75-.504-23.898-4.16-15.602-7.965-22.84-20.035-22.172-36.934.449-10.601 6.543-24.371 10.192-31.797h-39.5c-4.891 4.078-11.051 6.387-17.489 6.387-15.074 0-27.324-12.281-27.324-27.348 0-14.89 12.191-27.32 27.324-27.32 6.5 0 12.7 2.32 17.61 6.469h45.207c-8.289-11.41-16.442-27.328-16.442-45.809 0-26.781 14.942-47.844 44.371-62.871v-86.703c-25.046 8.621-48.121 21.012-61.296 30.004l9.109 9.289c2.578 2.598 3.371 6.281 2.09 9.574-1.258 3.274-4.352 5.457-8.012 5.629l-53.941 2.766a9.543 9.543 0 0 1-7.289-2.84c-1.899-1.938-2.868-4.598-2.692-7.328l3.672-53.875c.25-3.653 2.461-6.688 5.773-7.91 3.301-1.227 6.957-.371 9.551 2.246 0 0 6.278 6.406 11.149 11.34 47.879-41.204 100.121-60.145 115.875-64.661 15.754 4.516 67.992 23.457 115.879 64.661l11.164-11.34c2.578-2.617 6.23-3.473 9.55-2.246 3.301 1.222 5.508 4.257 5.774 7.91l3.648 53.875c.188 2.738-.777 5.39-2.683 7.328m-167.321 72.23c-19.296 17.243-8.691 37.129 0 49.266zm47.993-126.613v63.856c25.683-16.954 17.226-43.485 0-63.856m47.113 21.227c2.105 7.058 2.945 14.214 2.488 21.277.52-.957 7.395-8.141 11.688-12.539-3.922-2.652-8.711-5.629-14.176-8.738" style="fill:#fff;fill-opacity:1;fill-rule:nonzero;stroke:none" transform="matrix(.20833 0 0 -.20833 -3.066 179.864)"/><path d="m636.609 746.566-5.679-27.519h-22.649l-5.687 27.519h34.015M628.32 654.754c3.262 5.035 8.035 15.266 8.035 24.836 0 17.215-11.843 29.789-16.757 29.789-4.907 0-16.754-12.574-16.754-29.789 0-9.57 4.769-19.801 8.035-24.836h17.441" style="fill:#be9b47;fill-opacity:1;stroke:none;stroke-opacity:1" transform="matrix(.20833 0 0 -.20833 -3.066 179.864)"/><path d="M630.613 713.418c6.543 9.684 21.418 8.551 30.969 3.711 11.66-5.981 18.191-14.551 17.598-29.152-.539-12.84-11.797-33.223-11.797-33.223h-28.797c3.504 6.812 6.707 16.039 6.707 24.855 0 14.047-6.77 27.051-14.68 33.809M608.59 713.418c-6.559 9.684-21.418 8.551-30.957 3.711-11.68-5.981-18.192-14.551-17.594-29.152.512-12.84 11.781-33.223 11.781-33.223h28.821c-3.512 6.812-6.739 16.039-6.739 24.855 0 14.047 6.789 27.051 14.688 33.809M756.047 467.539l-53.906-2.758c-.723-.054-.891-.492-.395-.992l15.82-16.109c-13.503-11.438-48.054-30.52-82.343-40.504v80.691c-6.024 3.375-13.145 6.571-21.399 9.571-3.453 1.25-6.683 2.582-9.844 3.929v-94.191c-34.296 9.984-68.839 29.066-82.347 40.504l15.816 16.109c.52.5.344.938-.39.992l-53.911 2.758c-.726.008-1.277-.531-1.23-1.25l3.664-53.875c.059-.715.508-.879 1-.355l16.699 16.976c31.649-28.535 72.309-53.324 116.317-67.387 44.023 14.063 84.668 38.852 116.332 67.387l16.675-16.976c.508-.524.958-.36 1.008.355l3.66 53.875c.04.719-.488 1.258-1.226 1.25M635.223 525.191v97.188h84.867c3.457-3.969 8.551-6.492 14.234-6.492 10.489 0 18.977 8.504 18.977 18.972 0 10.477-8.488 18.969-18.977 18.969-5.633 0-10.691-2.48-14.156-6.383H519.055c-3.473 3.903-8.543 6.383-14.192 6.383-10.472 0-18.961-8.492-18.961-18.969 0-10.468 8.489-18.972 18.961-18.972 5.688 0 10.797 2.523 14.278 6.492h84.839v-83.391c5.438-3.3 12.411-6.64 21.352-9.91a204.27 204.27 0 0 0 9.891-3.887" style="fill:#be9b47;fill-opacity:1;stroke:none;stroke-opacity:1" transform="matrix(.20833 0 0 -.20833 -3.066 179.864)"/><path d="M680.535 476.117c-7.5 17.969-27.519 33.274-58.277 44.469-40.988 14.93-46.367 33.473-46.367 47.613 0 17.68 15.281 35.93 19.718 40.571v5.238h-16.507c-7.25-8.731-18.821-25.504-18.821-45.809 0-27.844 18.68-48.453 56.629-62.289 26.43-9.613 43.488-22.094 49.203-35.805 6.106-14.628 1.27-32.039-6.808-45.476a296.06 296.06 0 0 1 19.179 8.758c6.047 12.207 8.379 27.523 2.051 42.73" style="fill:#be9b47;fill-opacity:1;stroke:none;stroke-opacity:1" transform="matrix(.20833 0 0 -.20833 -3.066 179.864)"/><path d="M244.441 145.184c-5.128-17.985-20.98-29.258-35.441-25.106-14.449 4.09-22.008 22.02-16.891 39.988 5.121 18.012 20.981 29.239 35.442 25.141 14.453-4.121 22.019-22.055 16.89-40.023m-22.468 38.265c-5.649.692-9.274-12.629-11.391-30.078-2.121-17.461-1.922-31.223 3.738-31.914 5.653-.703 9.27 12.617 11.403 30.078 2.129 17.438 1.929 31.211-3.75 31.914M347.191 114.328c-2.726-18.508-17.011-31.722-31.871-29.516-14.871 2.192-24.699 18.985-21.961 37.501 2.762 18.488 17.024 31.699 31.891 29.492 14.863-2.207 24.691-18.981 21.941-37.477m-27.242 35.008c-5.687-.047-7.547-13.719-7.386-31.297.167-17.57 2.148-31.223 7.847-31.156 5.711.039 7.551 13.734 7.395 31.308-.153 17.579-2.137 31.211-7.856 31.145M1043.05 164.188c7.42-17.184 2.26-35.934-11.52-41.875-13.79-5.985-31.01 3.097-38.432 20.246-7.414 17.175-2.278 35.925 11.532 41.902 13.78 5.977 30.98-3.125 38.42-20.273m-41.63 15.371c-4.811-3.047.81-15.653 10.25-30.485 9.38-14.836 18.26-25.394 23.09-22.336 4.82 3.055-.83 15.676-10.23 30.508-9.4 14.844-18.28 25.359-23.11 22.313M711.641 137.461l-.11.937 28 3.684 20.782-43.586 6.105 47.137 28.023 3.656.11-.941c-5.418-1.278-7.664-4.059-6.848-10.293.82-6.188 8.77-66.66 8.77-66.66.668-5.067 4.062-8.262 8.632-7.664l.118-.872-35.504-4.648-.121.84c5.746 1.719 7.992 4.512 7.328 9.59-.664 5.09-7.246 55.168-7.246 55.168l-.801-.079-9.414-69.64-30.547 66.664-.703-.285s6.004-45.754 9.176-54.344c3.183-8.578 7.101-9.984 10.8-9.875l.102-.852-28.715-3.789-.113.871c7.137 2.266 9.297 7.579 9.488 12.743.727 18.672-5.301 56.007-6.414 61.593-1.105 5.598-2.09 11.602-10.898 10.645M821.34 131.922c12.09 2.93 19.883-2.086 21.715-10.387 1.828-8.265 7.738-34.984 8.168-36.953.425-1.996 1.445-3.703 3.613-3.234 2.156.496 3.102 2.488 2.566 5.488l.594.168c.957-3.195.922-6.426-1.797-10.793-2.676-4.344-9.707-7.332-14.578-4.637-4.875 2.664-6.191 5.145-6.191 5.145-1.907-6.758-7-11.067-15.188-11.574-8.222-.516-12.801 6.515-14.121 12.453-1.308 5.945-2.129 13.133.766 17.664 2.91 4.55 9.605 6.144 18.164 10.781 2.262 1.211 2.801 2.148 2.539 5.082-.277 2.926-2.297 7.539-12.641 5.254-10.332-2.289-12.039-8.227-12.304-8.82-.235-.579-.758-.411-.758.086-.141 10.343 7.379 21.351 19.453 24.277m1.051-32.664c-1.895-4.992.722-16.067 2.265-20.149 1.535-4.05 2.617-6.023 5.86-5.3 3.234.742 3.925 3.898 2.863 8.582l-5.203 23.097c-1.086-.242-3.871-1.269-5.785-6.23M877.859 126.867s8.364-33.676 8.926-36.02c.883-3.511 2.785-7.324 7.988-6.132l.227-.82-29.91-7.422-.207.84c3.347.996 5.832 4.054 4.637 8.851 0 0-9.684 38.883-10.497 42.207-.832 3.317-1.652 6.629-8.332 5.957l-.175.731c9.629 2.586 13.996 4.921 22.05 9.257 1.387-5.636 2.93-10.753 2.93-10.753.078-.352.774-.594.844.101.078.664.078 15 13.672 15.918 0 0-2.309-9.066-.981-16.43 0 0-4.883 1.27-7.246.02-2.344-1.231-3.523-2.703-3.926-6.305M992.41 120.691c-1.07 3.469-11.812 37.895-11.812 37.895-2.629 8.418-6.196 14.273-16.067 11.207-7.746-2.418-12.402-11.855-12.683-12.215a.351.351 0 0 0-.305-.098 3350.13 3350.13 0 0 0-2.332 7.598c-7.777-4.832-12.207-7.531-21.672-10.676l.242-.738c6.074 1.227 7.512-2.715 8.535-5.98.997-3.262 12.657-40.602 12.657-40.602 1.476-4.73-.582-8.285-4.586-9.437l.242-.817 27.258 8.512-.254.801c-4.262-.75-5.199 3-6.274 6.457-.718 2.316-7.808 25.363-12.343 40.125-.094 2.601.879 4.961 3.437 5.761 3.527 1.098 5.86-1.004 7.055-4.82l12.066-38.617c1.457-4.723.117-7.461-2.652-8.496l.254-.797 27.794 8.648-.25.844c-3.31-1.035-6.333-.879-8.31 5.445M1083.93 198.934l-8.18-8.711c-3.96 9.043-10.27 15.41-17.34 12.777-5.57-2.074-4.59-8.379-3.45-11.426 1.1-3.031 4.51-6.828 8.65-6.289 4.13.516 14.2 2.028 20.36.281 6.17-1.738 9.72-6.515 11.91-12.394 3.04-8.18 1.47-22.949-14.79-29.004-16.96-6.328-26.51 5.531-29.39 10.137l9.51 7.793c3.81-8.125 10.54-18.778 19.18-15.563 5.71 2.129 7.33 7.801 5.01 14.02-2.3 6.25-9.04 7.383-15.31 6.261-6.27-1.125-18.3-3.777-23.89 7.52-5.56 11.297-3.89 25.312 11.68 31.102 15.57 5.804 22.26-1.641 26.05-6.504M913.918 167.121c1.465-5.48-1.66-11.058-6.953-12.5-5.324-1.43-10.832 1.852-12.309 7.32-1.472 5.473 1.66 11.059 6.965 12.5 5.313 1.407 10.82-1.863 12.297-7.32M931.711 101.777c-.941 3.469-14.289 53.203-14.289 53.203-7.625-4.328-12.793-6.71-21.602-9.328l.266-.984c5.484.223 6.316-2.824 7.144-5.91.891-3.297 11.282-42 11.282-42 1.281-4.754-1.184-7.684-4.524-8.79l.215-.82 29.785 7.996-.23.82c-5.188-1.296-7.113 2.305-8.047 5.813M626.746 134.012l.02-.86c5.918-.429 8.007-3.816 8.195-12.558 0 0 1.23-59.266 1.301-62.5.054-3.242-1.094-9.137-8.086-10.45l.015-.742 36.899.766-.024.75c-6.093.246-8.789 5.144-8.894 10.293l-.656 31.98c2.804.45 6.117.227 10.246-1.894 3-1.543 6.418-3.906 7.176-10.742l.917.023-.625 29.762-.917-.016c.089-4.183-.301-5.957-5.379-10.117-3.918-3.203-9.25-2.992-11.504-2.707l-.774 36.063c6.25 1.484 19.082-3.75 21.391-16.063l.906.008-.41 20.039-49.797-1.035" style="fill:#fff;fill-opacity:1;fill-rule:nonzero;stroke:none" transform="matrix(.20833 0 0 -.20833 -3.066 179.864)"/><path d="M166.918 176.473s-6.738-16.012-7.977-18.965c-2.089-4.949-6.757-10.36-13.039-7.594l-.3-.695 32.429-13.68.301.691c-5.363 1.887-5.363 7.547-3.391 12.219l8.903 21.149s16.785 18.8 25.019 27.011c8.227 8.243 16.528 12.852 18.789 12.297l.258.664-21.871 9.207-.269-.644c4.382-2.793 3.882-6.192 1.613-11.231-2.25-5.019-11.914-19.004-20.672-28.023-.473-.481-.891-.578-.891-.578s.34 30.34.801 36.121c.469 5.801 3.418 9.961 7.711 8.547l.258.633-30.297 12.777-.262-.649c4.383-2.46 4.86-6.16 4.52-13.394-.297-6.684-1.633-45.863-1.633-45.863M441.742 126.496c12.246-2.129 17.367-9.855 15.738-18.195-1.632-8.32-6.878-35.168-7.261-37.16-.399-2-.168-3.993 2.023-4.422 2.156-.422 3.836 1.066 4.539 4.035l.602-.121c-.403-3.281-1.715-6.23-5.922-9.16-4.219-2.93-11.852-2.848-15.262 1.554-3.386 4.403-3.586 7.22-3.586 7.22-4.453-5.454-10.84-7.356-18.558-4.575-7.731 2.812-9.125 11.086-7.942 17.05 1.168 5.989 3.266 12.93 7.739 15.919 4.476 3 11.261 1.797 20.949 2.617 2.57.215 3.429.871 4.347 3.672.934 2.793.915 7.832-9.476 9.863-10.379 2.035-14.328-2.742-14.781-3.184-.457-.429-.868-.074-.692.411 4.024 9.531 15.305 16.605 27.543 14.476M429.77 96.063c-3.75-3.79-5.821-15-6.04-19.352-.23-4.36-.031-6.582 3.235-7.207 3.234-.649 5.133 1.953 6.058 6.676l4.559 23.242c-1.082.207-4.07.414-7.812-3.36M574.109 114.168c12.422-.195 18.704-7.02 18.391-15.488-.316-8.496-1.309-35.84-1.367-37.88-.074-2.003.461-3.933 2.68-4.01 2.199-.08 3.628 1.636 3.847 4.683l.621-.04c.133-3.3-.718-6.433-4.429-9.976-3.672-3.527-11.239-4.668-15.293-.84-4.047 3.824-4.676 6.551-4.676 6.551-3.539-6.082-9.563-8.937-17.621-7.375-8.059 1.555-10.739 9.512-10.508 15.598.219 6.066 1.219 13.25 5.168 16.922 3.941 3.652 10.832 3.519 20.269 5.84 2.5.624 3.25 1.417 3.731 4.308.469 2.879-.344 7.879-10.899 8.25-10.57.391-13.73-4.941-14.101-5.45-.402-.488-.859-.202-.734.294 2.445 10.062 12.492 18.828 24.921 18.613m-7.078-31.953c-3.109-4.305-3.398-15.719-2.929-20.047.449-4.328.992-6.496 4.32-6.613 3.312-.117 4.762 2.746 4.945 7.562l.852 23.66c-1.098.04-4.059-.226-7.188-4.562M394.883 77.352c.898 3.496 9.621 37.308 9.621 37.308 1.957 7.613 4.226 15.664-7.684 18.719-7.871 2.039-17-3.332-17.41-3.465-.238-.101-.43.133-.578.426l8.59 33.34c-12.024-.039-14.531-.176-24.848 1.906l-.191-.734c6.187-2.579 5.336-5.879 4.488-9.2-.871-3.316-17.301-66.988-17.301-66.988-1.222-4.785-4.808-6.117-8.257-5.433l-.211-.817 27.699-7.152.215.824c-3.512 1.902-2.914 5-2.024 8.484.469 1.727 5.547 21.473 10.535 40.77 1.414 2.121 3.586 3.469 6.075 2.832 3.562-.918 4.957-3.652 3.972-7.5-.875-3.32-10.125-39.2-10.125-39.2-1.25-4.784-2.668-6.66-6.117-5.984l-.211-.82 27.692-7.16.203.832c-3.188.926-5.793 2.597-4.133 9.012M536.16 59.012c.434 3.605 4.594 38.633 4.594 38.633 1.039 8.789.258 16.312-10 17.523-8.082.957-15.293-5.207-15.68-5.414-.086-.039-.144-.02-.203 0-.883 4.465-3.57 7.726-10.008 8.476-6.633.782-12.461-3.71-14.543-5.468.547 4.531.891 7.484.891 7.484-9.07-1.234-14.246-1.644-24.16-.664l-.078-.754c6.461-1.73 6.07-5.031 5.679-8.437-.402-3.411-5.363-45.106-5.363-45.106-.57-4.894-3.769-5.207-7.269-4.984l-.118-.84 26.77-3.164.09.84c-2.461 1.164-2.707 2.91-2.27 6.488.309 2.605 3.711 31.25 5.547 46.766 1.152 1.347 2.613 2.214 4.223 2.023 3.66-.434 3.73-3.012 3.258-6.945l-4.946-41.66c-.582-4.891-1.883-6.473-4.551-6.829l-.101-.84 24.578-2.93.102.864c-1.723.547-3.122 1.414-2.329 8.024.43 3.574 4.567 38.613 4.567 38.613.262 2.113.39 4.141.332 6.047 1.141 1.844 2.687 3.156 4.59 2.941 3.66-.433 4.129-3.363 3.652-7.308-.402-3.395-4.961-41.637-4.961-41.637-.562-4.914-1.871-6.488-4.543-6.836l-.078-.863 27.559-3.262.097.86c-3.418.39-6.117 1.761-5.328 8.359M285.934 104.773c-.551 2.989-2.11 43.196-2.11 43.196 5.395 5.773 13.254 9.445 18.617 7.996l.325.902-18.664 6.512-.25-.734c2.961-1.036 4.582-5.399.832-10.547-3.196-4.352-13.215-12.879-16.125-15.332 7.929 22.695 19.246 55.117 19.246 55.117-11.957.941-14.856 2.168-24.961 5.097l-.262-.722c5.957-3.086 5.402-6.891 4.258-10.133-1.11-3.234-22.797-65.316-22.797-65.316-1.652-4.645-5.332-5.68-8.699-4.707l-.281-.817 28.906-10.101.293.8c-4.852 1.801-4.41 5.883-3.211 9.278.332.968 2.621 7.523 5.73 16.426l.692.253 1.906-28.64 21.07-7.375.266.722c-3.121 1.7-4.285 5.129-4.781 8.125M711.453 93.64c.332-5.652-3.863-10.488-9.355-10.816-5.504-.304-10.211 3.992-10.555 9.676-.305 5.652 3.867 10.488 9.363 10.82 5.489.305 10.227-4.03 10.547-9.68" style="fill:#fff;fill-opacity:1;fill-rule:nonzero;stroke:none" transform="matrix(.20833 0 0 -.20833 -3.066 179.864)"/></svg>