<svg xmlns="http://www.w3.org/2000/svg" xmlns:xlink="http://www.w3.org/1999/xlink" id="_레이어_2" viewBox="0 0 569.49 465.34"><defs><linearGradient id="_무제_그라디언트_71" x1="154.24" x2="180.41" y1="397.71" y2="397.71" gradientUnits="userSpaceOnUse"><stop offset="0" stop-color="#0b936b"/><stop offset="1" stop-color="#04392a"/></linearGradient><linearGradient id="_무제_그라디언트_74" x1="389.09" x2="415.26" y1="397.71" y2="397.71" gradientUnits="userSpaceOnUse"><stop offset="0" stop-color="#04392a"/><stop offset="1" stop-color="#0b936b"/></linearGradient><linearGradient id="_무제_그라디언트_3" x1="4.05" x2="564.82" y1="36.61" y2="36.61" gradientUnits="userSpaceOnUse"><stop offset=".16" stop-color="#030916"/><stop offset=".5" stop-color="#040e23"/><stop offset=".87" stop-color="#030916"/></linearGradient><linearGradient xlink:href="#_무제_그라디언트_3" id="_무제_그라디언트_3-2" x1="4.07" x2="564.81" y1="67.37" y2="67.37"/><linearGradient xlink:href="#_무제_그라디언트_3" id="_무제_그라디언트_3-3" x1="4.06" x2="564.81" y1="232.14" y2="232.14"/><linearGradient xlink:href="#_무제_그라디언트_3" id="_무제_그라디언트_3-4" x1="4.06" x2="564.81" y1="51.96" y2="51.96"/><linearGradient xlink:href="#_무제_그라디언트_3" id="_무제_그라디언트_3-5" x1="4.06" x2="564.81" y1="159.03" y2="159.03"/><linearGradient xlink:href="#_무제_그라디언트_3" id="_무제_그라디언트_3-6" x1="4.07" x2="564.78"/><linearGradient xlink:href="#_무제_그라디언트_3" id="_무제_그라디언트_3-7" x1="4.06" x2="564.83" y1="67.37" y2="67.37"/><linearGradient xlink:href="#_무제_그라디언트_3" id="_무제_그라디언트_3-8" x1="4.06" x2="564.81" y1="51.96" y2="51.96"/><linearGradient xlink:href="#_무제_그라디언트_3" id="_무제_그라디언트_3-9" x1="4.06" x2="564.82" y1="159.03" y2="159.03"/><linearGradient xlink:href="#_무제_그라디언트_3" id="_무제_그라디언트_3-10" x1="4.06" x2="564.82" y1="361.55" y2="361.55"/><linearGradient xlink:href="#_무제_그라디언트_3" id="_무제_그라디언트_3-11" x1="4.07" x2="564.79" y1="347.2" y2="347.2"/><linearGradient xlink:href="#_무제_그라디언트_3" id="_무제_그라디언트_3-12" x1="4.06" x2="564.81" y1="358.78" y2="358.78"/><linearGradient xlink:href="#_무제_그라디언트_3" id="_무제_그라디언트_3-13" x1="4.04" x2="564.82" y1="354.48" y2="354.48"/><linearGradient xlink:href="#_무제_그라디언트_3" id="_무제_그라디언트_3-14" x1="4.04" x2="564.83" y1="337.27" y2="337.27"/><linearGradient xlink:href="#_무제_그라디언트_3" id="_무제_그라디언트_3-15" x1="4.06" x2="564.82" y1="337.83" y2="337.83"/><linearGradient xlink:href="#_무제_그라디언트_3" id="_무제_그라디언트_3-16" x1="147.71" x2="419.91" y1="205.87" y2="205.87"/><style>.cls-10,.cls-12,.cls-4{stroke-width:0}.cls-4{fill:#0b936c}.cls-10{fill:#ffe025}.cls-12{fill:#fff}</style></defs><g id="_레이어_1-2"><path d="M124.83 414.01c.1 0 .19.02.3.02 1.58 0 3.43-.24 5.66-.74 4.2-.93 9.97-3.13 14.31-4.92l-3.35 15.45 6.76-4.12c.1-.06 9.74-5.91 18.69-9.36 3.29-1.27 7.62-2.94 11.55-5.24l4.27 5.05c5.02 5.94 10.56 11.46 16.47 16.39 17.93 14.97 39.53 24.97 62.34 28.91 14.84 3.15 20.64 7.95 20.7 8l2.2 1.89 2.23-1.89c.06-.05 5.85-4.84 20.57-7.97 22.94-3.96 44.55-13.97 62.47-28.93 5.91-4.93 11.44-10.44 16.47-16.39l4.27-5.05c3.93 2.3 8.26 3.97 11.55 5.24 8.94 3.45 18.59 9.3 18.68 9.36l6.76 4.12-3.35-15.45c4.34 1.79 10.11 3.99 14.31 4.92 2.23.5 4.09.74 5.66.74.11 0 .19-.02.29-.02l1.01-.08c4.94-.49 7.12-3.65 8.44-6.47l15.99-34.38c3.63-6.72 1.86-14.88-3.93-19.49l11.15-10.33.76-40.52-.5-.84c-.15-.25-14.61-24.35-18.37-30.82.09-2.67.59-10.94 3.36-17.63l3.02-8.96 15.45 30.43 4.9-10.23c4.76 5.81 14.47 15.23 30.16 19.78l5.53 1.6-2.36-10.47c4.11 1.31 9.89 2.67 16.12 2.67 11.3 0 26.14-4.51 32.63-26.01l1.48-4.91-5.09.55s-3.98.42-10.17.42c-12.42 0-30.82-1.57-47.93-9.06-16.5-7.22-38.07-24.92-49.15-52.95l-.65-1.24-.06-.03-10.26-23.57 44.61-84.75h-49.35l1.12-2.69-8.08-10.42c0-12.62-2.35-26.75-2.45-27.36l-.15-.92-7.79-9.19C420.57 5.91 415.09 1.49 413.85.71c-.48-.27-1.57-.72-3.49-.72-2.08 0-4.63.52-7.57 1.56-5.95 2.1-9.07 7.99-10.27 10.82l-1.52-.13-.26-1.29-6.24-4.88-2.12 1.87c-.17.15-4.14 3.66-6.05 5.59-2.55 2.59-3.08 6.78-3.16 7.59l-.05.47.09.47c.13.74 1.34 7.28 2.31 10.24.18.56.38 2.62.43 4.39 0 .04 0 4.02-2 7.82-2.4 4.53-10.13 17.12-10.21 17.25l-3 4.89 1.85.09-8.4 10h-4.83l-6.46-1.53 9.11-14.75-17.32.51 4.98-16.6-16.6 4.98.51-17.32-14.74 9.11-3.99-16.87-11.89 12.61-8.22-15.26-8.22 15.26-11.89-12.61-3.99 16.87-14.75-9.11.51 17.32-16.6-4.98 4.98 16.6-17.32-.51 9.11 14.75-6.46 1.53h-4.84l-8.4-10 1.85-.09-3-4.89c-.08-.13-7.82-12.72-10.21-17.25-2.01-3.79-2-7.79-2-7.79.05-1.8.25-3.86.43-4.42.97-2.95 2.18-9.5 2.31-10.24l.09-.47-.05-.47c-.08-.81-.61-5-3.16-7.59-1.9-1.93-5.88-5.44-6.04-5.59l-2.12-1.87-6.24 4.88s-.26 1.27-.26 1.29l-1.52.13c-1.2-2.83-4.32-8.72-10.27-10.82-2.94-1.04-5.49-1.56-7.57-1.56-1.91 0-3.01.45-3.65.82-1.08.69-6.56 5.1-10.07 25.35l-7.79 9.19-.16.92c-.1.61-2.45 14.74-2.45 27.36l-8.08 10.41 1.12 2.69H78.68l44.61 84.75-10.25 23.57-.26.15-.45 1.13c-11.07 28.03-32.65 45.73-49.15 52.95-17.11 7.49-35.51 9.06-47.93 9.06-6.2 0-10.13-.42-10.17-.42l-5.1-.55 1.48 4.91c6.49 21.5 21.33 26.01 32.63 26.01 6.24 0 12.01-1.36 16.12-2.67l-2.36 10.47 5.53-1.6c15.69-4.56 25.4-13.97 30.16-19.78l4.9 10.23 15.45-30.43 3.1 9.18c2.7 6.47 3.19 14.73 3.28 17.41-3.76 6.47-18.22 30.57-18.37 30.82l-.5.84.76 40.52 11.15 10.33c-5.79 4.6-7.57 12.75-4.02 19.31l16.09 34.57c1.32 2.81 3.49 5.98 8.43 6.47l1.01.08Zm21.43-129.5 23.77 21.55 8.21 17.56c-11.5 2.88-22.48 6.22-32.72 9.94l-.47-1.83-4.06-8.11-8.36-2.09-7.81 4.07-3.89.8 3.05-21.32c9.14-7.44 18.15-16.38 22.27-20.58Zm282.23 39.12-4.05 8.11-.47 1.83c-10.24-3.73-21.22-7.06-32.72-9.94l8.21-17.56 23.77-21.55c4.12 4.2 13.13 13.14 22.27 20.58l3.05 21.32-3.89-.8-7.81-4.07-8.36 2.09Zm-208.66 93.58 21.52-12.64h-61.72c6.31-3.92 11.22-9.57 8.36-17.94l-2.48-6.67c15.04-4.06 31.14-7.17 47.92-9.26l4.6 8.73h-29.88c-4.04 0-7.34 3.29-7.34 7.36s3.26 7.27 7.27 7.27h37.64l21.97 41.73a115.9 115.9 0 0 1-47.87-18.58Zm108.3-12.64 21.52 12.64a116 116 0 0 1-47.87 18.58l21.97-41.73h37.65c4.01 0 7.27-3.26 7.27-7.29s-3.29-7.34-7.34-7.34h-29.88l4.59-8.73c16.79 2.09 32.88 5.2 47.93 9.26l-2.51 6.75c-2.84 8.31 2.07 13.94 8.38 17.86z" class="cls-12"/><path d="M176.35 350.82c-2.14-.23-3.1-.44-3.37-1.44-.22-.81.3-1.7 1.76-2.1a7.1 7.1 0 0 1 3.33-.11l-.02-3.05c-1-.17-2.35-.2-4.03.26-3.53.97-5.1 3.58-4.37 6.24.62 2.26 2.63 3.25 5.36 3.47 1.98.18 2.84.54 3.11 1.51.28 1.02-.36 1.91-1.91 2.34-1.44.39-2.97.29-4.02.05l.11 3.1c.98.26 2.79.26 4.5-.21 4.11-1.12 5.43-3.87 4.71-6.48-.6-2.19-2.24-3.29-5.15-3.58ZM161.07 348.44l1.5 4.48c.77 2.3 1.53 4.34 2.42 6.29l-.07.02a46 46 0 0 0-4.16-4.45l-4.94-4.59-3.89 1.3 5.13 15.33 3.06-1.02-1.54-4.62c-.84-2.5-1.6-4.65-2.37-6.64l.06-.04c1.32 1.55 2.94 3.21 4.36 4.56l5.12 4.86 3.49-1.17-5.12-15.33-3.06 1.02ZM139.41 356.52l1.83 16.73 3.36-1.4-.57-4.25 4.1-1.71 2.7 3.36 3.48-1.45-10.65-13.06-4.25 1.77Zm7.2 7.05-3.16 1.32-.47-3.52c-.13-.96-.38-2.18-.54-3.15l.04-.02c.58.8 1.3 1.79 1.92 2.57l2.21 2.79ZM384.1 248.81l-30.04 57.06 4.16.85 28.31-53.78zM334.21 239.02a59.2 59.2 0 0 0 9.86-27.92h-22.42zM258.6 345.17l-.19-3.83 5.7-.28-.15-2.97-5.69.28-.17-3.36 6.04-.29-.14-2.99-9.56.46.79 16.14 9.88-.47-.15-3zM186 341.63l-1.1 16.8 3.55-.79.17-4.29 4.33-.97 2.07 3.79 3.68-.82-8.22-14.72-4.49 1Zm2.52 8.95.15-3.55c.04-.97 0-2.21.02-3.2h.04c.43.88.96 1.98 1.44 2.86l1.69 3.14zM248.34 341.21v-.07c1.28-.61 2.57-2.12 2.41-4.18-.12-1.48-.71-2.56-1.68-3.25-1.17-.82-2.8-1.05-5.09-.88-1.86.14-3.52.42-4.63.7l.29 3.74.95 12.13 3.46-.27-.32-4.09-.17-2.23 1.05-.08c1.42-.09 2.13.41 2.7 2.38.61 1.95 1.08 3.23 1.37 3.66l3.58-.28c-.35-.6-.99-2.66-1.61-4.44-.51-1.45-1.19-2.48-2.3-2.85Zm-3.62-1.13-1.38.11-.35-4.44c.25-.07.72-.18 1.57-.24 1.61-.1 2.63.56 2.74 2.04.11 1.41-.85 2.4-2.59 2.53ZM208.4 337.21l.81 4.65c.41 2.38.85 4.52 1.44 6.58h-.07c-.99-1.67-2.24-3.49-3.44-5.01l-4.18-5.28-4.03.7 2.76 15.92 3.17-.55-.83-4.79c-.45-2.6-.88-4.83-1.34-6.92l.06-.04c1.07 1.73 2.43 3.61 3.63 5.16l4.33 5.57 3.63-.63-2.76-15.92-3.17.55ZM284.75 437.55l-37.74-71.7c-1.47.13-2.94.26-4.39.4l42.13 80.04 42.13-80.04c-1.45-.14-2.92-.27-4.39-.4zM249.57 157.92c-14.75 10.85-24.38 28.27-24.38 47.95a59.23 59.23 0 0 0 10.1 33.14l41.46-92.15c-10.09 1.36-19.35 5.3-27.18 11.06M185.4 248.81l-2.43 4.13 28.31 53.78 4.15-.85zM259.3 211.09 242.69 248c10.07 10.05 23.72 16.53 38.85 17.33a57 57 0 0 0 6.4 0c15.13-.81 28.77-7.28 38.85-17.34l-16.61-36.91h-50.89Z" class="cls-12"/><path d="M341.64 144.84a84 84 0 0 0-10.9-8.6 83 83 0 0 0-10.33-5.83c-9.9-4.69-20.87-7.47-32.45-7.91-1.06-.04-2.13-.08-3.2-.08s-2.14.04-3.2.08c-11.58.44-22.55 3.22-32.45 7.91-3.59 1.7-7.04 3.65-10.33 5.83a83 83 0 0 0-10.9 8.6c-9.88 9.22-17.52 20.8-22.02 33.86a83.2 83.2 0 0 0-4.55 27.18c0 45.01 35.65 81.68 80.25 83.37 1.06.04 2.13.08 3.2.08s2.14-.04 3.2-.08c44.6-1.69 80.25-38.36 80.25-83.37 0-9.52-1.62-18.66-4.55-27.18a83.6 83.6 0 0 0-22.01-33.86Zm12.9 66.26c-2.6 35.11-31.21 63.1-66.59 64.7-1.06.05-2.13.08-3.2.08s-2.14-.03-3.2-.08c-37.12-1.68-66.8-32.4-66.8-69.92 0-25.94 14.19-48.61 35.2-60.7 3.44-1.98 7.05-3.69 10.83-5.07a69.5 69.5 0 0 1 20.77-4.15c1.06-.05 2.13-.08 3.2-.08s2.14.03 3.2.08c7.26.33 14.25 1.76 20.77 4.15 3.77 1.38 7.39 3.09 10.83 5.07a70.2 70.2 0 0 1 14.67 11.22l-7.38 7.38a58 58 0 0 0-6.92-5.91c-7.83-5.75-17.11-9.64-27.18-11l24.2 53.79h37.59c.13 1.73.22 3.46.22 5.22s-.09 3.5-.22 5.22ZM132.64 148.58 102.33 91h42.21l-.13-3.65-1.77-.42H95.58l34.97 66.44zM272.03 344.67l-.09-3.84 5.71-.12-.07-2.97-5.7.12-.07-3.35 6.05-.13-.07-2.99-9.56.21.34 16.14 9.89-.22-.06-3z" class="cls-12"/><path d="m305.49 200.65-20.74-46.11L264 200.65zM235.84 340.53l-2.04.23-3.7.43.19 1.66.13 1.17.45-.05 1.92-.22.39 3.36c-.11.08-.31.15-.55.22-.31.09-.69.17-1.14.22-2.86.33-5.07-1.39-5.45-4.7-.25-2.19.45-3.78 1.73-4.74.75-.56 1.69-.91 2.76-1.03.47-.05.88-.07 1.26-.07 1.01 0 1.76.15 2.41.35l.4-2.99c-.8-.29-2.37-.52-4.35-.3-1.49.17-2.8.62-3.93 1.26-2.48 1.4-3.98 3.87-3.93 7.12 0 .34-.02.66.02 1.01.25 2.36 1.27 4.36 2.84 5.58.28.22.59.39.9.56 1.46.82 3.29 1.15 5.61.88.79-.09 1.56-.27 2.28-.48 1.13-.32 2.13-.71 2.76-1.02l-.37-3.19-.61-5.26ZM410.23 351.81l-.37 2.76 3.16-.37.04.01-4.12 11.64 3.19 1.13 5.2-14.68-2.73-.97zM425.09 87.35l-.13 3.65h42.21l-30.31 57.58 2.09 4.79 34.97-66.44h-47.06zM401.33 346.77c-3.7-1.1-6.48 1.8-7.76 6.11-1.23 4.23-.63 8.18 3.08 9.28 3.66 1.08 6.38-1.55 7.75-6.17 1.21-4.09.77-8.09-3.07-9.23Zm-.29 8.28c-1.01 3.4-2.22 4.89-3.52 4.5s-1.61-2.25-.58-5.67c1-3.47 2.32-4.85 3.56-4.49 1.35.4 1.51 2.35.53 5.65ZM386.97 342.9c-1.97-.48-3.84-.2-5.14.39l.34 2.77c.91-.42 2.16-.8 3.41-.49 1.68.41 2.15 1.57 1.85 2.8-.48 1.76-2.44 3.08-6.33 5.25l-2.31 1.31-.52 2.14 10.3 2.53.71-2.91-5.47-1.34v-.04l1.64-.83c2.58-1.44 4.84-3.03 5.46-5.56.67-2.74-.65-5.19-3.93-5.99ZM359.48 345.39c-.83 4.53 1.26 8.44 6.53 9.41 1.86.34 3.35.25 4.04.03v-2.9c-.74.16-1.94.18-2.98 0-3.08-.56-4.52-2.9-3.94-6.08.65-3.54 3.09-4.87 5.83-4.37 1.22.22 2.14.68 2.79 1.12l1.22-2.73c-.55-.44-1.84-1.06-3.63-1.39-4.62-.84-8.88 1.5-9.87 6.92ZM422.65 357.48l6.31 2.69-.02.04-10.59 9.11 3.41 1.45 10.88-9.79.9-2.12-9.72-4.14zM212.99 91h143.52l1.11-2.05 1.03-2.02h-147.8l1.03 2.02zM291.55 336.12c-.01 2.42.04 4.6.26 6.73h-.07c-.68-1.83-1.59-3.84-2.5-5.55l-1.29-2.41-1.89-3.53-4.09-.03-.1 16.14 3.22.02.03-4.86c.02-2.63-.02-4.91-.1-7.04l.07-.02c.75 1.9 1.75 3.99 2.66 5.72l.2.39 3.07 5.86 3.68.02.1-16.14-3.22-.02zM323.97 337.33c.1-1.48-.33-2.64-1.2-3.47-1.04-.98-2.62-1.44-4.92-1.59-1.86-.12-3.54-.09-4.68.03l-1.04 15.9 3.47.23.42-6.34 1.06.07c1.42.11 2.05.71 2.33 2.74.33 2.01.61 3.35.83 3.82l3.48.23h.1s-.03-.08-.04-.12c-.25-.75-.58-2.74-.92-4.5-.29-1.51-.82-2.62-1.87-3.15v-.07c1.37-.42 2.86-1.74 3-3.79Zm-6.42 2.22-1.38-.09.29-4.45c.26-.03.74-.07 1.59-.02 1.6.13 2.52.93 2.42 2.42-.09 1.41-1.18 2.25-2.93 2.14ZM333.43 336.41c1.51.15 2.57.71 3.15 1.08l1.06-2.85c-.88-.52-2.12-1.02-3.86-1.2-.7-.07-1.34-.03-1.94.06-2.53.37-4.15 2-4.37 4.21-.1 1.05.17 1.96.7 2.75.65.97 1.71 1.76 3.07 2.41 1.43.7 2.12 1.26 2.3 1.96.05.18.08.36.06.56-.06.62-.44 1.06-1.04 1.31-.42.17-.92.26-1.57.19-1.49-.14-2.88-.79-3.77-1.38l-1 2.93c.82.58 2.51 1.23 4.28 1.4.14.01.26 0 .4.01 3.96.24 6.06-1.78 6.31-4.39.16-1.69-.43-3.01-1.83-4.12-.48-.38-1.04-.73-1.71-1.06-1.91-.98-2.74-1.52-2.64-2.54.08-.84.88-1.48 2.39-1.33ZM298.76 347.68l9.88.36.11-2.99-6.37-.24.14-3.83 5.71.21.11-2.97-5.71-.21.13-3.35 6.04.22.11-2.99-9.56-.35zM348.08 335.31l-1.04 7.23-1.25 8.76 3.48.5.92-6.43 5.51.8.43-2.94-5.51-.8.52-3.65 5.9.85.42-2.97-6.81-.98z" class="cls-12"/><path d="M284.75 51.94c-19.33 0-35.93 11.6-43.29 28.2h86.58c-7.36-16.6-23.96-28.2-43.29-28.2M281.54 314.55v-17.49c-48.92-1.69-88.07-41.86-88.07-91.19 0-5.58.53-11.03 1.49-16.33l-17.16 17.11s13.17 17.47 12.38 34.04l-.73 1.23 39.91 75.83c16.9-2.01 34.39-3.08 52.18-3.2M254.37 365.26l27.17 51.62v-52.67c-9.28.07-18.34.43-27.17 1.05M145.56 118.9l-.77-21.11h-31.21l22.53 42.81zM238.79 110.58l1.01-.47 17.37 1.2 2.99 5.59-.1 1.11a91 91 0 0 1 21.48-3.33V97.79h-64.91l.09.17 2.02 3.77.7 1.3.73 2.08 7.1 2.42 10.41 3.56z" class="cls-10"/><path d="M287.95 297.06v17.49c17.79.12 35.28 1.19 52.18 3.2l39.91-75.83-.73-1.24c-.8-16.57 12.38-34.04 12.38-34.04l-17.16-17.11c.96 5.3 1.49 10.75 1.49 16.33 0 49.33-39.15 89.5-88.07 91.19ZM423.94 118.9l9.45 21.7 22.53-42.81h-31.21zM287.95 416.88l27.17-51.62c-8.83-.63-17.9-.99-27.17-1.05zM350.06 103.03l.7-1.3 2.02-3.77.09-.17h-64.91v16.89c7.42.26 14.61 1.4 21.48 3.33l-.1-1.11 3-5.59 17.37-1.2 1.01.47 1.11.51 10.41-3.56 7.1-2.42.73-2.08ZM376.38 306.14l2.31 4.99-9.62 1.42-2.88 9.14c5.1.93 10.14 1.93 15.09 3.04l7.91-18.23-2.49-9.62 7.12 3.56 11.75-12.82-6.41-12.82-22.79 31.34ZM440.48 343l4.98 1.96 2.74-9.03-4.69-2.14zM433.23 334.73l-1.3 5.06 5.52 1.79 2.85-8.91-4.27-1.96zM356.54 320.05c.72.11 1.45.22 2.17.34 1.17.19 2.34.39 3.51.59l2.41-8.6-1.59-.21-3.98-.54-2.51 8.42ZM351.45 309.88l-2.48 3.89-.34 2.42-.37 2.62c1.12.15 2.23.31 3.34.47l1.55.24 2.42-7.78.18-.57-3.87-1.16z" class="cls-4"/><path d="M502.89 246.94c-21.9-7.75-37.93-28.85-37.93-28.85l-4.81-5.61s-5.64-8.74-10-19.51l-4.64-10.15-6.69-14.64-3.57-7.81-2.14-4.68-3.57-7.81-13.6-29.78 1.6-.4 1.5-19.91.51-6.79.31-4.07.38-4.99c-1.26-.58-2.55-1.21-3.71-1.8-.11-.05-.23-.11-.33-.17l-.02.17-.91 6.79-.55 4.07-.91 6.79-.25 1.84-.2-1.84-.73-6.79-.44-4.07-.73-6.79-.68-6.29c-1.28-2.47-2.51-5.04-2.51-5.04l.42-4.6s3.45 7.78 6.61 11.28c1.89 2.1 5.6 3.7 8.27 4.65 1.78.63 3.09.98 3.09.98l3.1-.98 2.35-.74.46-3.79-5.86-9s-.24-17.68-2.3-27.11l-7.59-9.32-5.01-20.2-1.3 1.69-4.23-3.37s-2.91-.31-7 5.38c-2.17 3.02.85 4.96-3.61 12.07 0 0-1.42-2.06-3.07-2.33-1.65-.28-4.06-1.27-5.88-3.19-1.82-1.93-2.26-3.49-2.26-3.49s-3.09 1.91-3.01 4.41 2.32 10.23 2.45 11.53.14 9.35-1.93 12.78-7.74 15.44-7.74 15.44l2.15-.71-10.46 13.62 2.28.25-.23.48 10.99-11.94-3.89 13.18 20.07-21.56-1.2 13.78 7.49-2.7-12.77 14.85-.11.13v-.13l1.2-13.65-11.4 13.65-5.67 6.79-2.69 3.22.08-3.22.17-6.79.06-2.27-1.98 2.27-5.92 6.79-1.19 1.37-1.31 2.71-3.29 6.79-3.5 7.21-1.48 4.81 8.42-12.02 3.68-5.25 1.26 5.25.54 2.24 2.44-2.24 7.41-6.79 4.45-4.07 3.68-3.37.13 3.37.16 4.07v.34l.4-.34 4.57-4.07 7.61-6.79 6.91-6.16-5.12 6.16-5.65 6.79-3.39 4.07-5.65 6.79-3.85 4.63-.13-4.63-.17-6.15-5.16 6.15-8.92 10.62-2.99-5.39-6.95 19.12 5.28 3.23 1.97-10.36 2.99 5.39 8.99-16.47 1.5 8.09 13.48-13.48-14.38 25.16-2.4-6.59-4.1 13.19 9.45 5.78 5.59-16.37 3-2.8-3.39 22.56 7.39 3.59-8.79.2-30.15-18.97-9.33-4.25-12.67-5.77-2.56-1.16-12.98 1.8-1.64 3.65.78.62c1.1.36 2.19.73 3.26 1.13l1.39-2.4 10.98-1.6h.01l5.38 2.2-6.68.85-7.5.95-.56 1.2c1.75.72 3.48 1.49 5.17 2.32l.98-1.12.21-.03 11.57-1.57.1.07 3.09 2.13-1.68.24-9.5 1.36-.8.99c2.21 1.22 4.37 2.53 6.46 3.92 2.63 1.19 4.81 2.19 6.4 2.93 2.1.98 3.26 1.54 3.26 1.54l.32.27 43.25 35.67 17.77-8.79.3-.55 4.84-8.74 11.38-1.8-2.69 5.09-4.13 1.74 5.81 5.67 5.07 4.95 3.04 2.97 1.69 1.65-1.9-1.25-3.42-2.26-5.7-3.76-7.13-4.71-1.32 3.56-.44 1.19 6.74 4.05 5.83 3.51 3.5 2.1 5.83 3.51 3.56 2.14-5.15.89-3.19.55 2.02 1.67 10.7 8.87-12.23-5.97-6.11-2.98-3.66-1.79-4.39-2.15 6.06-1.03 3.67-.62-2.66-1.3-6.11-2.98-9.95-4.86-6.2 2.27 13.29 4.86-13.33 1.05 11.71 5.19 6.22 2.76 3.73 1.65 3.34 1.48-4.41.56-4.93.62-2.54.32 1.79 1.1 3.48 2.15 5.79 3.58 8.51 5.25-10.79-.93-.79-.07.58.47 20.51 16.43-25.93-4.42-2.64 26.32s-2.4 13.62 1.07 19.5 14.69 18.16 14.69 18.16l21.01 19.32 7.39-1.69-3.56 8.55 3.2 26.35 3.57 5.09-8.2 2.03-3.56 9.62 9.26 3.56 9.61-9.97.36-24.93-4.63-8.55 5.34 1.42-.27-5.34-11.22-17.72-8.55-13.62 2.14-13.09-8.81-23.77 12.29 13.35s1.11-2.13 2.44-5.53l-6.63-10.94 8.8 4.58c1.16-3.96 2.13-8.55 2.33-13.22l-.17-1.31 19.88 31.15 2.6-5.99c8.19 16.92 26.16 22.56 26.16 22.56l-1.01-8.61s5.61 4.54 23.77 6.41 23.06-11.1 23.06-11.1c-14.42 1.07-30.98-1.07-52.88-8.81Zm-82.9-190.45 1.95 3.22-1.68 6.87 4.7 7.07-.25-5.27 3.99 6.49s1.29 1.43.12 2.86c-1.57 1.91-6.33-2.08-6.33-2.08l-4.92-8.64 1.4-3.66 1.01-6.87Zm-5.02-23.96 3.47 2.86-1.42 5.31c-5.67-6.35-2.05-8.17-2.05-8.17m-24.62 19.88-7.79 10.48 7.79-21.86zm-.9 113.21-18.27-13.18 18.57 8.09 7.49 1.2z" class="cls-4"/><path d="m347.62 109.94-2.11.69-8.63 2.8 8.63 4-.33-.54 1.73-4.94zM400.51 217.64c-2.33-.65-6.23-1.04-8.88 2.29-.14.18-.29.35-.43.55-.63.95-1.22 2.2-1.76 3.6-2.02 5.25-3.3 12.61-3.34 14.22l1.93 3.04 2.51 3.97 4.19 6.62 2.88 4.55 1.87-8.28 3.24 2.48 2.14-13.09s-.39-1.28-.87-3.25c-.69-2.84-1.55-7.14-1.71-11.33-.06-1.6-.02-3.18.18-4.65 0 0-.78-.39-1.96-.72ZM203.3 321.69l-2.88-9.14-9.61-1.42 2.31-4.99-22.79-31.34-6.41 12.82 11.75 12.82 7.12-3.56-2.49 9.62 7.91 18.23c4.95-1.11 9.99-2.1 15.09-3.04M121.29 335.93l2.74 9.03 4.99-1.96-3.03-9.21zM129.2 332.67l2.85 8.91 5.51-1.79-1.29-5.06-2.8-4.02zM206.46 312.16l-1.59.21 2.41 8.6c1.17-.2 2.34-.4 3.51-.59.72-.12 1.45-.22 2.17-.34l-2.51-8.42-3.98.54ZM216.34 319.52l1.55-.24c1.11-.16 2.23-.32 3.34-.47l-.37-2.62-.34-2.42-2.48-3.89-.43.13-3.87 1.16.18.56z" class="cls-4"/><path d="m120.47 346.38-3.56-9.62-8.2-2.03 3.57-5.09 3.2-26.35-3.56-8.55 7.39 1.69 21.01-19.32s11.22-12.29 14.69-18.16c3.47-5.88 1.07-19.5 1.07-19.5l-2.64-26.32-25.93 4.42 20.51-16.43.58-.47-.79.07-10.79.93 8.51-5.25 5.79-3.58 3.48-2.15 1.79-1.1-2.54-.32-4.93-.62-4.41-.56 3.34-1.48 3.73-1.65 6.22-2.76 11.71-5.19-13.33-1.05 13.29-4.86-6.2-2.27-9.95 4.86-6.11 2.98-2.66 1.3 3.67.62 6.06 1.03-4.39 2.15-3.66 1.79-6.11 2.98-12.23 5.97 10.7-8.87 2.02-1.67-3.19-.55-5.15-.89 3.56-2.14 5.83-3.51 3.5-2.1 5.83-3.51 6.74-4.05-.44-1.19-1.32-3.56-7.13 4.7-5.7 3.76-3.42 2.26-1.9 1.25 1.69-1.65 3.04-2.97 5.07-4.95 5.81-5.67-4.13-1.74-2.7-5.09 11.38 1.8 4.84 8.74.3.55 17.77 8.79 43.25-35.67.32-.27s1.16-.56 3.26-1.54c1.6-.75 3.77-1.75 6.4-2.94 2.1-1.39 4.25-2.7 6.46-3.92l-.8-.99-9.5-1.36-1.68-.24 3.09-2.13.1-.07 11.57 1.57.21.03.98 1.12c1.69-.83 3.42-1.6 5.17-2.32l-.56-1.2-7.5-.95-6.68-.85 5.38-2.19h.01l10.98 1.59 1.39 2.4c1.08-.4 2.17-.77 3.26-1.13l.78-.62-1.64-3.65-12.98-1.8-2.55 1.16-12.67 5.77-9.33 4.25-30.15 18.97-8.79-.2 7.39-3.59-3.39-22.56 2.99 2.8 5.59 16.37 9.45-5.78-4.1-13.19-2.4 6.59-14.38-25.16 13.48 13.48 1.5-8.09 8.99 16.47 2.99-5.39 1.97 10.36 5.28-3.23-6.95-19.12-2.99 5.39-8.92-10.62-5.16-6.15-.17 6.15-.13 4.63-3.85-4.63-5.65-6.79-3.39-4.07-5.65-6.79-5.12-6.16 6.91 6.16 7.61 6.79 4.57 4.07.38.34v-.34l.17-4.07.13-3.37 3.68 3.37 4.44 4.07 7.41 6.79 2.44 2.24.54-2.24 1.26-5.25 3.68 5.25 8.42 12.02-1.48-4.81-3.5-7.21-3.29-6.79-1.31-2.71-1.19-1.37-5.92-6.79-1.98-2.27.06 2.27.17 6.79.08 3.22-2.69-3.22-5.67-6.79-11.4-13.65 1.19 13.65v.13l-.1-.13-12.77-14.85 7.49 2.7-1.2-13.78 20.07 21.56-3.89-13.18 10.99 11.94-.23-.48 2.28-.25-10.46-13.62 2.15.71s-5.68-12.01-7.74-15.44c-2.07-3.43-2.06-11.49-1.93-12.78.13-1.3 2.37-9.03 2.45-11.53s-3.01-4.41-3.01-4.41-.44 1.56-2.26 3.49-4.23 2.92-5.88 3.19-3.07 2.33-3.07 2.33c-4.46-7.11-1.44-9.06-3.61-12.07-4.09-5.69-7-5.38-7-5.38l-4.23 3.37-1.3-1.69-5 20.2-7.6 9.32c-2.06 9.43-2.3 27.11-2.3 27.11l-5.86 9 .46 3.79 2.35.74 3.1.98s1.32-.35 3.09-.98c2.67-.95 6.37-2.55 8.27-4.65 3.15-3.5 6.6-11.28 6.6-11.28l.42 4.6s-1.23 2.57-2.51 5.04l-.68 6.29-.73 6.79-.44 4.07-.73 6.79-.2 1.84-.25-1.84-.91-6.79-.55-4.07-.91-6.79-.02-.17c-.1.05-.22.11-.33.17-1.15.59-2.45 1.22-3.71 1.8l.38 4.99.31 4.07.51 6.79 1.5 19.91 1.6.4-13.6 29.78-3.57 7.81-2.14 4.68-3.57 7.81-6.69 14.64-4.64 10.15c-4.36 10.77-10 19.51-10 19.51l-4.81 5.61s-16.02 21.1-37.93 28.85c-21.9 7.75-38.46 9.88-52.88 8.81 0 0 4.9 12.97 23.07 11.1 18.16-1.87 23.77-6.41 23.77-6.41l-1.01 8.61s17.96-5.65 26.16-22.56l2.6 5.99 19.88-31.15-.17 1.31c.19 4.66 1.17 9.26 2.33 13.22l8.8-4.58-6.63 10.94c1.33 3.41 2.44 5.53 2.44 5.53l12.29-13.35-8.81 23.77 2.14 13.09-8.55 13.62-11.22 17.72-.27 5.34 5.34-1.42-4.63 8.55.36 24.93 9.61 9.97 9.26-3.56Zm59.28-185.86 18.57-8.09-18.27 13.18-7.79-3.89zm-.6-119.5 7.79 21.86-7.79-10.48zM147 75.64s-4.77 3.99-6.33 2.08c-1.17-1.42.12-2.86.12-2.86l3.99-6.49-.25 5.27 4.7-7.07-1.68-6.87 1.95-3.22 1.01 6.87 1.4 3.66-4.92 8.64Zm5.48-34.95-1.41-5.31 3.47-2.86s3.61 1.82-2.06 8.17" class="cls-4"/><path d="m232.62 113.43-8.63-2.8-2.11-.69.7 2.01 1.74 4.94-.33.54zM165.5 234.34a62 62 0 0 1-.87 3.25l2.14 13.09 3.24-2.48 1.87 8.28 2.88-4.55 4.19-6.62 2.51-3.97 1.92-3.04c-.04-1.62-1.32-8.98-3.34-14.23-.54-1.39-1.12-2.64-1.75-3.59-.13-.2-.28-.36-.42-.54-2.65-3.33-6.55-2.95-8.88-2.29-1.18.33-1.96.72-1.96.72.2 1.47.24 3.05.18 4.65-.16 4.19-1.02 8.49-1.71 11.33Z" class="cls-4"/><path d="M171.86 388.82c-5.7 1.07-16.2 6.41-16.2 6.41l-1.41 11.69c4.12-2.4 9.51-4.54 12.9-5.72 5.61-1.96 12.02-5.16 13.09-8.37 1.07-3.2-2.67-5.07-8.37-4.01Z" style="stroke-width:0;fill:url(#_무제_그라디언트_71)"/><path d="M397.64 388.82c-5.7-1.07-9.44.8-8.37 4.01 1.07 3.2 7.48 6.41 13.09 8.37 3.38 1.18 8.78 3.33 12.9 5.72l-1.41-11.69s-10.5-5.34-16.2-6.41Z" style="stroke-width:0;fill:url(#_무제_그라디언트_74)"/><path d="M441.74 349.79c-17.13-7.96-36.51-14.44-57.41-19.37-8.48-2-17.2-3.74-26.14-5.21-.62-.1-1.24-.2-1.86-.29-2.36-.38-4.72-.75-7.1-1.08-1.43-.2-2.87-.39-4.3-.57-2.39-.32-4.79-.62-7.21-.89-16.14-1.85-32.8-2.87-49.75-2.99h-6.41c-16.96.11-33.61 1.14-49.75 2.99-2.42.28-4.81.58-7.21.89-1.44.19-2.88.37-4.3.57-2.39.34-4.75.71-7.1 1.08-.62.1-1.24.19-1.86.29-8.94 1.47-17.66 3.21-26.14 5.21-20.9 4.93-40.28 11.41-57.41 19.37-6.52 3.03-12.73 6.28-18.46 9.67-3.36 1.99-4.52 6.25-2.66 9.7l15.98 34.19c.53-4.72 5.37-9.42 9.69-11.76 26.12-14.12 61.52-24.26 100.65-29.08 2.4-.3 4.8-.59 7.23-.84 1.45-.15 2.92-.28 4.38-.42 2.44-.23 4.88-.45 7.34-.64 9.74-.75 19.63-1.19 29.62-1.27h6.4c10 .07 19.89.52 29.62 1.27 2.46.19 4.9.41 7.34.64 1.46.14 2.93.27 4.39.42 2.43.26 4.83.55 7.23.84 39.13 4.82 74.53 14.96 100.65 29.08 4.32 2.34 9.16 7.04 9.69 11.76l15.98-34.19c1.87-3.46.7-7.72-2.66-9.7-5.73-3.39-11.94-6.65-18.46-9.67m17.53 17.44-12.57 26.88c-2.18-2.54-4.93-4.66-7.58-6.1-26.53-14.34-61.7-24.48-100.54-29.39-2.4-.3-4.79-.6-7.22-.87-1.45-.16-2.92-.28-4.38-.43-2.43-.24-4.86-.48-7.32-.67-10.4-.83-20.98-1.31-31.69-1.39h-6.43c-10.71.08-21.3.55-31.7 1.39-2.46.2-4.89.44-7.32.67-1.46.14-2.93.27-4.38.43-2.42.26-4.82.56-7.22.87-38.85 4.91-74.02 15.05-100.54 29.39-2.65 1.43-5.4 3.56-7.58 6.1l-12.47-26.67c-.93-1.73-.42-3.6 1.04-4.47 5.61-3.32 11.7-6.51 18.1-9.49 24.55-11.41 53.85-19.78 85.71-24.75a393 393 0 0 1 11.42-1.62c2.4-.31 4.8-.59 7.22-.86 15.5-1.72 31.47-2.68 47.71-2.79h6.41c16.24.11 32.21 1.07 47.71 2.79 2.42.27 4.83.55 7.22.86 1.44.18 2.87.38 4.3.57 2.39.33 4.76.68 7.12 1.05 31.86 4.97 61.16 13.35 85.71 24.75 6.41 2.98 12.5 6.17 18.1 9.49 1.47.87 1.97 2.74 1.15 4.26Z" class="cls-4"/><path d="m418.44 35.39-3.47-2.86s-3.62 1.82 2.05 8.17z" style="fill:url(#_무제_그라디언트_3);stroke-width:0"/><path d="M422.5 75.65s4.77 3.99 6.33 2.08c1.17-1.42-.12-2.86-.12-2.86l-3.99-6.49.25 5.27-4.7-7.07 1.68-6.87-1.95-3.22-1.01 6.87-1.4 3.66 4.92 8.64Z" style="stroke-width:0;fill:url(#_무제_그라디언트_3-2)"/><path d="M504.94 242.4c-19.02-8.32-40.08-27.31-50.94-54.82l-.21-.12-11.37-26.12 42.75-81.21h-48.81l2.31-5.56-7.59-9.78c.16-12.75-2.4-27.95-2.4-27.95l-7.79-9.18c-3.43-20.61-8.7-23.97-8.7-23.97s-2-1.12-8.26 1.08c-6.26 2.21-8.74 10.17-8.74 10.17l-.79 4.62c-1.07-.32-3.84-1.46-3.84-1.46l2.17-2.28-3.86-.34c-.9-1.05-1.21-2.61-1.21-2.61l-3.03-2.36s-4.03 3.56-5.87 5.42c-1.84 1.87-2.2 5.54-2.2 5.54s1.27 6.97 2.2 9.78c.5 1.53.6 5.39.6 5.39s.08 4.79-2.4 9.47-10.32 17.44-10.32 17.44l2.95.15-11.37 13.55 5.15.42-1.26 2.48h-13.14l-11.43-2.7 8.27-13.39-15.73.47 4.52-15.07-15.07 4.52.47-15.73-13.39 8.27-3.62-15.31-10.79 11.45-7.46-13.85-7.46 13.85-10.79-11.45-3.62 15.31-13.39-8.27.47 15.73-15.07-4.52 4.52 15.07-15.73-.47 8.27 13.39-11.43 2.7h-13.14l-1.26-2.48 5.15-.42-11.37-13.55 2.95-.15S195 50.79 192.52 46.11s-2.4-9.47-2.4-9.47.1-3.86.6-5.39c.93-2.82 2.2-9.78 2.2-9.78s-.36-3.67-2.2-5.54-5.87-5.42-5.87-5.42l-3.03 2.36s-.31 1.56-1.21 2.61l-3.86.34 2.17 2.28s-2.77 1.15-3.84 1.46l-.8-4.62s-2.47-7.96-8.73-10.17-8.26-1.08-8.26-1.08-5.27 3.36-8.7 23.97l-7.79 9.18s-2.55 15.2-2.4 27.95l-7.59 9.78 2.31 5.56H84.31l42.75 81.21-11.37 26.12-.21.12c-10.87 27.51-31.93 46.49-50.94 54.82-28.21 12.34-59.83 8.9-59.83 8.9 11.4 37.75 50.21 18.87 50.21 18.87l-2.49 11.04c22.08-6.41 31.69-23.15 31.69-23.15l4.4 9.18 15.99-31.5 5.6 16.62c3.56 8.55 3.56 19.59 3.56 19.59-2.85 4.99-18.87 31.69-18.87 31.69l.71 38.1 13.34 12.36c-.68.39-1.38.78-2.05 1.18-5.59 3.31-7.54 10.46-4.45 16.18l16.09 34.56c1.98 4.22 4.38 5.56 11.59 3.95 7.21-1.6 19.77-7.34 19.77-7.34l-3.07 14.17s9.88-6.03 19.23-9.63c9.35-3.61 22.44-8.81 18.83-19.36l-3.77-10.14c16.37-4.63 34.62-8.29 54.31-10.63l8.31 15.78h-35.5c-2.18 0-3.94 1.76-3.94 3.94v.02c0 2.14 1.73 3.87 3.87 3.87h39.69l25.93 49.26c-22.41-2.06-43.02-10.3-60.14-22.98l15.29-8.98h-43.25c4.88 5.78 10.24 11.13 16.05 15.97 17.12 14.29 37.97 24.24 60.87 28.2 16.15 3.43 22.21 8.74 22.21 8.74s6.06-5.31 22.21-8.74c22.91-3.96 43.76-13.91 60.87-28.2 5.81-4.85 11.17-10.2 16.05-15.97H340.6l15.29 8.98c-17.12 12.69-37.73 20.93-60.14 22.98l25.93-49.26h39.69c2.14 0 3.87-1.73 3.87-3.87v-.02c0-2.18-1.76-3.94-3.94-3.94h-35.5l8.31-15.78c19.69 2.34 37.94 6 54.31 10.63l-3.76 10.14c-3.61 10.55 9.48 15.76 18.83 19.36 9.35 3.61 19.23 9.63 19.23 9.63l-3.07-14.17s12.55 5.74 19.76 7.34 9.61.27 11.59-3.95l16.09-34.56c3.09-5.72 1.14-12.87-4.45-16.18-.67-.4-1.37-.78-2.05-1.18l13.34-12.36.71-38.1s-16.02-26.71-18.87-31.69c0 0 0-11.04 3.56-19.59l5.61-16.62 15.99 31.5 4.4-9.18s9.61 16.74 31.69 23.15l-2.49-11.04s38.82 18.87 50.21-18.87c0 0-31.62 3.44-59.83-8.9ZM473.92 86.93l-34.97 66.44-2.08-4.79L467.18 91h-42.21l.13-3.65 1.77-.42h47.06Zm-40.53 53.67-9.44-21.7.77-21.1h31.21l-22.53 42.8ZM284.75 51.94c19.33 0 35.93 11.6 43.29 28.2h-86.58c7.36-16.6 23.96-28.2 43.29-28.2m73.9 34.99-1.03 2.02-1.1 2.05H212.99l-1.1-2.05-1.03-2.02h147.8Zm-13.14 30.5-8.63-3.99 8.63-2.81 2.11-.69-.71 2.01-1.74 4.94.33.54Zm-3.28-9.9-10.41 3.56-1.11-.51-1.01-.47-17.37 1.2-3 5.59.1 1.11a91 91 0 0 0-21.48-3.33V97.79h64.91l-.09.17-2.02 3.77-.7 1.3-.73 2.08-7.1 2.42Zm32.31 82.01 17.16 17.11s-13.17 17.47-12.38 34.04l.73 1.24-39.91 75.83c-16.9-2.01-34.39-3.08-52.18-3.2v-17.49c48.92-1.69 88.07-41.86 88.07-91.19 0-5.58-.53-11.03-1.49-16.33Zm27.75 33.47c.16 4.19 1.02 8.49 1.71 11.33.48 1.98.87 3.25.87 3.25l-2.14 13.09-3.24-2.48-1.87 8.28-2.88-4.55-4.19-6.62-2.51-3.97-1.93-3.04c.04-1.62 1.32-8.98 3.34-14.22.54-1.4 1.12-2.65 1.76-3.6.14-.2.28-.37.43-.55 2.65-3.33 6.55-2.94 8.88-2.29 1.18.33 1.96.72 1.96.72-.2 1.47-.24 3.05-.18 4.65Zm41.22 105.83-7.08-3.69-5.59 1.4-3.2 6.39-1.32 5.13c-12.47-4.73-25.85-8.77-39.89-12.13L396.69 304l26.71-24.22s12.82 13.53 25.28 23.5l3.92 27.42-9.08-1.87Zm4.7 7.09-2.74 9.03-4.99-1.96 3.03-9.21 4.7 2.15Zm-7.9-3.26-2.85 8.9-5.52-1.78 1.3-5.06 2.8-4.02zm-46.47-32.23-7.12-3.56 2.49 9.62-7.91 18.23c-4.95-1.11-9.99-2.1-15.09-3.04l2.88-9.14 9.62-1.42-2.31-4.99 22.79-31.34 6.41 12.82-11.75 12.82Zm-35.61 6.28-4.16-.85 30.04-57.06 2.43 4.13zm6.41 5.65-2.41 8.6c-1.17-.2-2.34-.4-3.51-.59-.72-.12-1.45-.22-2.17-.34l2.51-8.42 3.98.54 1.59.21Zm-8.87-1.2-.18.57-2.42 7.78-1.55-.24c-1.11-.16-2.23-.32-3.34-.47l.37-2.62.34-2.42 2.48-3.89.43.13zm34.83-51.35 5.31 9.02s-17.72 27.25-26.85 37.44l-2.99.16 24.54-46.62Zm-102.63 29.42c-1.06.04-2.13.08-3.2.08s-2.14-.04-3.2-.08c-44.6-1.69-80.25-38.36-80.25-83.37 0-9.52 1.62-18.66 4.55-27.18a83.55 83.55 0 0 1 22.02-33.86c3.38-3.16 7.03-6.04 10.9-8.6 3.29-2.18 6.74-4.13 10.33-5.83 9.9-4.69 20.87-7.47 32.45-7.91 1.06-.04 2.13-.08 3.2-.08s2.14.04 3.2.08c11.58.44 22.55 3.22 32.45 7.91 3.59 1.7 7.04 3.65 10.33 5.83 3.87 2.56 7.52 5.44 10.9 8.6 9.88 9.22 17.52 20.8 22.01 33.86a83.2 83.2 0 0 1 4.55 27.18c0 45.01-35.65 81.68-80.25 83.37Zm-76.68 17.48-28.31-53.78 2.43-4.13 30.04 57.06zm1.68 13.33c-.72.11-1.45.22-2.17.34-1.18.19-2.34.39-3.51.59l-2.41-8.6 1.59-.21 3.98-.54 2.51 8.42Zm-79.89 5.1-7.08 3.69-9.08 1.87 3.92-27.42c12.46-9.97 25.28-23.5 25.28-23.5l26.71 24.22 10.26 21.94c-14.05 3.35-27.43 7.39-39.9 12.13l-1.32-5.13-3.19-6.39-5.59-1.4Zm4.49 14.64-5.52 1.78-2.85-8.9 4.27-1.96 2.8 4.02zm-8.55 3.2-4.99 1.96-2.74-9.03 4.7-2.15 3.03 9.21Zm51.28-36.5 2.49-9.62-7.12 3.56-11.75-12.82 6.41-12.82 22.79 31.34-2.31 4.99 9.61 1.42 2.88 9.14c-5.1.93-10.14 1.93-15.09 3.04zm-13.27-88.14s.78-.39 1.96-.72c2.33-.65 6.24-1.04 8.88 2.29.14.18.29.34.42.54.63.95 1.22 2.2 1.75 3.59 2.02 5.25 3.3 12.61 3.34 14.23l-1.92 3.04-2.51 3.97-4.19 6.62-2.88 4.55-1.87-8.28-3.24 2.48-2.14-13.09s.39-1.28.87-3.25c.69-2.84 1.55-7.14 1.71-11.33.06-1.6.02-3.18-.18-4.65Zm33.43 87.92c-9.13-10.18-26.85-37.44-26.85-37.44l5.31-9.02 24.54 46.62-2.99-.16Zm17.15 3.73.43-.13 2.48 3.89.34 2.42.37 2.62c-1.12.15-2.23.31-3.34.47l-1.55.24-2.42-7.79-.18-.56zm-28.16-68.08.73-1.23c.8-16.57-12.38-34.04-12.38-34.04l17.16-17.11c-.96 5.3-1.49 10.75-1.49 16.33 0 49.33 39.15 89.5 88.07 91.19v17.49c-17.79.12-35.28 1.19-52.18 3.2zm33.13-129.98-.71-2.01 2.11.69 8.63 2.81-8.63 3.99.33-.54-1.74-4.94Zm4.69-4.42-7.1-2.42-.73-2.08-.7-1.3-2.02-3.77-.09-.17h64.91v16.89c-7.42.26-14.61 1.4-21.48 3.33l.1-1.11-2.99-5.59-17.37-1.2-1.01.47-1.11.51zM95.58 86.91h47.06l1.77.42.13 3.65h-42.21l30.31 57.58-2.08 4.79-34.97-66.44Zm49.21 10.87.77 21.1-9.44 21.7-22.53-42.8h31.21ZM101.6 339.96l-.36-24.93 4.63-8.55-5.34 1.42.27-5.34 11.22-17.72 8.55-13.62-2.14-13.09 8.81-23.77-12.29 13.35s-1.11-2.13-2.44-5.53l6.63-10.94-8.8 4.58c-1.16-3.96-2.13-8.55-2.33-13.22l.17-1.31-19.88 31.15-2.6-5.99c-8.19 16.92-26.16 22.56-26.16 22.56l1.01-8.61s-5.61 4.54-23.77 6.41-23.07-11.1-23.07-11.1c14.42 1.07 30.98-1.07 52.88-8.81 21.9-7.75 37.93-28.85 37.93-28.85l4.81-5.61s5.64-8.74 10-19.51l4.64-10.15 6.69-14.64 3.57-7.81 2.14-4.68 3.57-7.81 13.6-29.78-1.6-.4-1.5-19.91-.51-6.79-.31-4.07-.38-4.99c1.26-.58 2.55-1.21 3.71-1.8.11-.05.23-.11.33-.17l.02.17.91 6.79.55 4.07.91 6.79.25 1.84.2-1.84.73-6.79.44-4.07.73-6.79.68-6.29c1.28-2.47 2.51-5.04 2.51-5.04l-.42-4.6s-3.45 7.78-6.6 11.28c-1.89 2.1-5.6 3.7-8.27 4.65-1.77.63-3.09.98-3.09.98l-3.1-.98-2.35-.74-.46-3.79 5.86-9s.24-17.68 2.3-27.11l7.6-9.32 5-20.2 1.3 1.69 4.23-3.37s2.91-.31 7 5.38c2.17 3.02-.85 4.96 3.61 12.07 0 0 1.42-2.06 3.07-2.33 1.65-.28 4.06-1.27 5.88-3.19 1.82-1.93 2.26-3.49 2.26-3.49s3.09 1.91 3.01 4.41-2.32 10.23-2.45 11.53-.14 9.35 1.93 12.78 7.74 15.44 7.74 15.44l-2.15-.71 10.46 13.62-2.28.25.23.48-10.99-11.94 3.89 13.18-20.07-21.56 1.2 13.78-7.49-2.7 12.77 14.85.11.13v-.13l-1.2-13.65 11.4 13.65 5.67 6.79 2.69 3.22-.08-3.22-.17-6.79-.06-2.27 1.98 2.27 5.92 6.79 1.19 1.37 1.31 2.71 3.29 6.79 3.5 7.21 1.48 4.81-8.42-12.02-3.68-5.25-1.26 5.25-.54 2.24-2.44-2.24-7.41-6.79-4.44-4.07-3.68-3.37-.13 3.37-.16 4.07v.34l-.4-.34-4.57-4.07-7.61-6.79-6.91-6.16 5.12 6.16 5.65 6.79 3.39 4.07 5.65 6.79 3.85 4.63.13-4.63.17-6.15 5.16 6.15 8.92 10.62 2.99-5.39 6.95 19.12-5.28 3.23-1.97-10.36-2.99 5.39-8.99-16.47-1.5 8.09-13.48-13.48 14.38 25.16 2.4-6.59 4.1 13.19-9.45 5.78-5.59-16.37-2.99-2.8 3.39 22.56-7.39 3.59 8.79.2 30.15-18.97 9.33-4.25 12.67-5.77 2.55-1.16 12.98 1.8 1.64 3.65-.78.62c-1.09.36-2.19.73-3.26 1.13l-1.39-2.4-10.98-1.6h-.01l-5.38 2.2 6.68.85 7.5.95.56 1.2c-1.75.72-3.48 1.49-5.17 2.32l-.98-1.12-.21-.03-11.57-1.57-.1.07-3.09 2.13 1.68.24 9.5 1.36.8.99a92 92 0 0 0-6.46 3.92c-2.63 1.19-4.81 2.19-6.4 2.94-2.1.98-3.26 1.54-3.26 1.54l-.32.27-43.25 35.67-17.77-8.79-.3-.55-4.84-8.74-11.38-1.8 2.7 5.09 4.13 1.74-5.81 5.67-5.07 4.95-3.04 2.97-1.69 1.65 1.9-1.25 3.42-2.26 5.7-3.76 7.13-4.7 1.32 3.56.44 1.19-6.74 4.05-5.83 3.51-3.5 2.1-5.83 3.51-3.56 2.14 5.15.89 3.19.55-2.02 1.67-10.7 8.87 12.23-5.97 6.11-2.98 3.66-1.79 4.39-2.15-6.06-1.03-3.67-.62 2.66-1.3 6.11-2.98 9.95-4.86 6.2 2.27-13.29 4.86 13.33 1.05-11.71 5.19-6.22 2.76-3.73 1.65-3.34 1.48 4.41.56 4.93.62 2.54.32-1.79 1.1-3.48 2.15-5.79 3.58-8.51 5.25 10.79-.93.79-.07-.58.47-20.51 16.43 25.93-4.42 2.64 26.32s2.4 13.62-1.07 19.5-14.69 18.16-14.69 18.16l-21.01 19.32-7.39-1.69 3.56 8.55-3.2 26.35-3.57 5.09 8.2 2.03 3.56 9.62-9.26 3.56-9.61-9.97Zm78.63 52.85c-1.07 3.2-7.48 6.41-13.09 8.37-3.38 1.18-8.78 3.33-12.9 5.72l1.41-11.69s10.51-5.34 16.2-6.41c5.7-1.07 9.44.8 8.37 4.01Zm104.52 53.48-42.13-80.04c1.45-.15 2.93-.27 4.39-.4l37.74 71.7 37.74-71.7c1.47.13 2.94.26 4.39.4zm-30.38-81.04c8.83-.63 17.9-.99 27.17-1.05v52.67zm33.58 51.62V364.2c9.28.07 18.35.43 27.17 1.05zm114.4-15.69c-5.61-1.96-12.02-5.16-13.09-8.37-1.07-3.2 2.67-5.07 8.37-4.01 5.7 1.07 16.2 6.41 16.2 6.41l1.41 11.69c-4.12-2.4-9.51-4.54-12.9-5.72Zm60.5-32.02-15.98 34.19c-.53-4.72-5.37-9.42-9.69-11.76-26.12-14.12-61.52-24.26-100.65-29.08-2.4-.3-4.8-.59-7.23-.84-1.45-.15-2.92-.28-4.39-.42-2.44-.23-4.88-.45-7.34-.64-9.73-.75-19.63-1.19-29.62-1.27h-6.4c-10 .07-19.89.52-29.62 1.27-2.46.19-4.9.41-7.34.64-1.46.14-2.93.27-4.38.42-2.43.26-4.83.55-7.23.84-39.13 4.82-74.53 14.96-100.65 29.08-4.32 2.34-9.16 7.04-9.69 11.76l-15.98-34.19c-1.87-3.46-.7-7.72 2.66-9.7 5.73-3.39 11.94-6.65 18.46-9.67 17.13-7.96 36.51-14.44 57.41-19.37 8.48-2 17.2-3.74 26.14-5.21.62-.1 1.24-.2 1.86-.29 2.36-.38 4.72-.75 7.1-1.08 1.43-.2 2.87-.39 4.3-.57 2.39-.32 4.79-.62 7.21-.89 16.14-1.85 32.8-2.87 49.75-2.99h6.41c16.96.11 33.61 1.14 49.75 2.99 2.42.28 4.81.58 7.21.89 1.44.19 2.88.37 4.3.57 2.38.34 4.75.71 7.1 1.08.62.1 1.24.19 1.86.29 8.94 1.47 17.67 3.21 26.14 5.21 20.9 4.93 40.28 11.41 57.41 19.37 6.52 3.03 12.73 6.28 18.46 9.67 3.36 1.99 4.52 6.25 2.66 9.7m69.86-102.32c-18.16-1.87-23.77-6.41-23.77-6.41l1.01 8.61s-17.97-5.65-26.16-22.56l-2.6 5.99-19.88-31.15.17 1.31c-.19 4.66-1.17 9.26-2.33 13.22l-8.8-4.58 6.63 10.94c-1.33 3.41-2.44 5.53-2.44 5.53l-12.29-13.35 8.81 23.77-2.14 13.09 8.55 13.62 11.22 17.72.27 5.34-5.34-1.42 4.63 8.55-.36 24.93-9.61 9.97-9.26-3.56 3.56-9.62 8.2-2.03-3.57-5.09-3.2-26.35 3.56-8.55-7.39 1.69-21.01-19.32s-11.22-12.29-14.69-18.16c-3.47-5.88-1.07-19.5-1.07-19.5l2.64-26.32 25.93 4.42-20.51-16.43-.58-.47.79.07 10.79.93-8.51-5.25-5.79-3.58-3.48-2.15-1.79-1.1 2.54-.32 4.93-.62 4.41-.56-3.34-1.48-3.73-1.65-6.22-2.76-11.71-5.19 13.33-1.05-13.29-4.86 6.2-2.27 9.95 4.86 6.11 2.98 2.66 1.3-3.67.62-6.06 1.03 4.39 2.15 3.66 1.79 6.11 2.98 12.23 5.97-10.7-8.87-2.02-1.67 3.19-.55 5.15-.89-3.56-2.14-5.83-3.51-3.5-2.1-5.83-3.51-6.74-4.05.44-1.19 1.32-3.56 7.13 4.71 5.7 3.76 3.42 2.26 1.9 1.25-1.69-1.65-3.04-2.97-5.07-4.95-5.81-5.67 4.13-1.74 2.69-5.09-11.38 1.8-4.84 8.74-.3.55-17.77 8.79-43.25-35.67-.32-.27s-1.16-.56-3.26-1.54c-1.6-.75-3.77-1.75-6.4-2.93-2.1-1.39-4.25-2.7-6.46-3.92l.8-.99 9.5-1.36 1.68-.24-3.09-2.13-.1-.07-11.57 1.57-.21.03-.98 1.12c-1.69-.83-3.42-1.6-5.17-2.32l.56-1.2 7.5-.95 6.68-.85-5.38-2.19h-.01l-10.98 1.59-1.39 2.4c-1.08-.4-2.17-.77-3.26-1.13l-.78-.62 1.64-3.65 12.98-1.8 2.56 1.16 12.67 5.77 9.33 4.25 30.15 18.97 8.79-.2-7.39-3.59 3.39-22.56-3 2.8-5.59 16.37-9.45-5.78 4.1-13.19 2.4 6.59 14.38-25.16-13.48 13.48-1.5-8.09-8.99 16.47-2.99-5.39-1.97 10.36-5.28-3.23 6.95-19.12 2.99 5.39 8.92-10.62 5.16-6.15.17 6.15.13 4.63 3.85-4.63 5.65-6.79 3.39-4.07 5.65-6.79 5.12-6.16-6.91 6.16-7.61 6.79-4.57 4.07-.38.34v-.34l-.17-4.07-.13-3.37-3.68 3.37-4.45 4.07-7.41 6.79-2.44 2.24-.54-2.24-1.26-5.25-3.68 5.25-8.42 12.02 1.48-4.81 3.5-7.21 3.29-6.79 1.31-2.71 1.19-1.37 5.92-6.79 1.98-2.27-.06 2.27-.17 6.79-.08 3.22 2.69-3.22 5.67-6.79 11.4-13.65-1.19 13.65v.13l.1-.13 12.77-14.85-7.49 2.7 1.2-13.78-20.07 21.56 3.89-13.18-10.99 11.94.23-.48-2.28-.25 10.46-13.62-2.15.71s5.68-12.01 7.74-15.44c2.07-3.43 2.06-11.49 1.93-12.78-.13-1.3-2.37-9.03-2.45-11.53s3.01-4.41 3.01-4.41.44 1.56 2.26 3.49 4.23 2.92 5.88 3.19 3.07 2.33 3.07 2.33c4.46-7.11 1.44-9.06 3.61-12.07 4.09-5.69 7-5.38 7-5.38l4.23 3.37 1.3-1.69 5.01 20.2 7.59 9.32c2.06 9.43 2.3 27.11 2.3 27.11l5.86 9-.46 3.79-2.35.74-3.1.98s-1.32-.35-3.09-.98c-2.67-.95-6.37-2.55-8.27-4.65-3.16-3.5-6.61-11.28-6.61-11.28l-.42 4.6s1.23 2.57 2.51 5.04l.68 6.29.73 6.79.44 4.07.73 6.79.2 1.84.25-1.84.91-6.79.55-4.07.91-6.79.02-.17c.1.05.22.11.33.17 1.15.59 2.45 1.22 3.71 1.8l-.38 4.99-.31 4.07-.51 6.79-1.5 19.91-1.6.4 13.6 29.78 3.57 7.81 2.14 4.68 3.57 7.81 6.69 14.64 4.64 10.15c4.36 10.77 10 19.51 10 19.51l4.81 5.61s16.03 21.1 37.93 28.85 38.46 9.88 52.88 8.81c0 0-4.9 12.97-23.06 11.1Z" style="stroke-width:0;fill:url(#_무제_그라디언트_3-3)"/><path d="M390.35 52.41V41.03l-7.79 21.86z" style="stroke-width:0;fill:url(#_무제_그라디언트_3-4)"/><path d="m371.18 152.44 18.27 13.18 7.79-3.9-7.49-1.19z" style="stroke-width:0;fill:url(#_무제_그라디언트_3-5)"/><path d="m154.53 32.52-3.47 2.86 1.41 5.31c5.67-6.35 2.06-8.17 2.06-8.17" style="stroke-width:0;fill:url(#_무제_그라디언트_3-6)"/><path d="m149.51 56.48-1.95 3.22 1.68 6.87-4.7 7.07.25-5.27-3.99 6.49s-1.29 1.43-.12 2.86c1.57 1.91 6.33-2.08 6.33-2.08l4.92-8.64-1.4-3.66-1.01-6.87Z" style="stroke-width:0;fill:url(#_무제_그라디언트_3-7)"/><path d="M179.15 41.03v11.38l7.79 10.48z" style="stroke-width:0;fill:url(#_무제_그라디언트_3-8)"/><path d="m198.32 152.44-18.57 8.09-7.49 1.19 7.79 3.9z" style="stroke-width:0;fill:url(#_무제_그라디언트_3-9)"/><path d="M142.44 358.22c.16.97.41 2.19.54 3.15l.47 3.52 3.16-1.32-2.21-2.79c-.62-.78-1.34-1.78-1.92-2.57l-.04.02Z" style="stroke-width:0;fill:url(#_무제_그라디언트_3-10)"/><path d="M188.73 343.82h-.04c-.01 1 .03 2.24-.02 3.21l-.15 3.55 3.34-.75-1.69-3.14c-.48-.88-1.01-1.98-1.44-2.87" style="stroke-width:0;fill:url(#_무제_그라디언트_3-11)"/><path d="M458.12 362.97c-5.6-3.32-11.69-6.51-18.1-9.49-24.55-11.41-53.85-19.78-85.71-24.75a393 393 0 0 0-11.42-1.62c-2.39-.31-4.8-.59-7.22-.86-15.5-1.72-31.47-2.68-47.71-2.79h-6.41c-16.24.11-32.21 1.07-47.71 2.79-2.42.27-4.83.55-7.22.86-1.44.18-2.87.38-4.3.57-2.39.33-4.76.68-7.12 1.05-31.86 4.97-61.16 13.35-85.71 24.75-6.4 2.98-12.49 6.17-18.1 9.49-1.47.87-1.97 2.74-1.04 4.47l12.47 26.67c2.18-2.54 4.92-4.66 7.58-6.1 26.53-14.34 61.69-24.48 100.54-29.39 2.4-.3 4.79-.6 7.22-.87 1.45-.16 2.92-.28 4.38-.43 2.43-.24 4.86-.48 7.32-.67 10.4-.83 20.99-1.31 31.7-1.39h6.43c10.7.08 21.29.55 31.69 1.39 2.46.2 4.89.44 7.32.67 1.46.14 2.93.27 4.38.43 2.42.26 4.82.56 7.22.87 38.84 4.91 74.01 15.05 100.54 29.39 2.65 1.43 5.4 3.56 7.58 6.1l12.57-26.88c.82-1.52.32-3.39-1.15-4.26Zm-307.3 6.29-2.7-3.36-4.1 1.71.57 4.25-3.36 1.4-1.83-16.73 4.25-1.77 10.65 13.06-3.48 1.45Zm14.94-5.35-5.12-4.86c-1.42-1.35-3.04-3-4.36-4.56l-.06.04c.76 1.99 1.53 4.14 2.37 6.64l1.54 4.62-3.06 1.02-5.13-15.33 3.89-1.3 4.94 4.59c1.41 1.32 2.92 2.94 4.16 4.45l.07-.02c-.9-1.95-1.65-4-2.42-6.29l-1.5-4.48 3.06-1.02 5.12 15.33-3.49 1.17Zm11.03-3.03c-1.71.47-3.52.47-4.5.21l-.11-3.1c1.04.24 2.57.34 4.02-.05 1.55-.43 2.19-1.32 1.91-2.34-.27-.97-1.13-1.33-3.11-1.51-2.73-.22-4.75-1.21-5.36-3.47-.73-2.66.85-5.27 4.37-6.24 1.69-.46 3.03-.43 4.03-.26l.02 3.05a7.1 7.1 0 0 0-3.33.11c-1.47.4-1.99 1.29-1.76 2.1.27.99 1.24 1.2 3.37 1.44 2.92.29 4.56 1.39 5.15 3.58.72 2.61-.61 5.36-4.71 6.48Zm18.23-4.71-2.07-3.79-4.33.97-.17 4.29-3.55.79 1.1-16.8 4.49-1 8.22 14.72-3.68.82Zm15.68-2.97-4.33-5.57c-1.2-1.54-2.56-3.43-3.63-5.16l-.06.04c.46 2.08.89 4.32 1.34 6.92l.83 4.79-3.17.55-2.76-15.92 4.03-.7 4.18 5.28c1.2 1.52 2.45 3.34 3.44 5.02h.07c-.59-2.08-1.03-4.21-1.44-6.6l-.81-4.65 3.17-.55 2.76 15.92-3.63.63Zm23.35-3.2c-.72.2-1.49.39-2.28.48-2.32.27-4.14-.06-5.61-.88-.31-.17-.63-.34-.9-.56-1.58-1.22-2.59-3.22-2.84-5.58-.04-.35-.02-.67-.02-1.01-.05-3.26 1.45-5.72 3.93-7.12 1.13-.64 2.45-1.09 3.93-1.26h.01c1.98-.22 3.55 0 4.35.29l-.4 2.99c-.65-.21-1.4-.36-2.41-.35-.38 0-.79.02-1.26.07-1.07.12-2.01.47-2.76 1.03-1.28.96-1.99 2.55-1.73 4.74.38 3.31 2.59 5.03 5.45 4.7.45-.05.84-.13 1.14-.22.24-.07.43-.14.55-.22l-.39-3.36-1.92.22-.45.05-.13-1.17-.19-1.66 3.7-.43 2.04-.23.61 5.26.37 3.19c-.63.31-1.63.7-2.76 1.02Zm14.62-1.23c-.29-.43-.76-1.72-1.37-3.66-.57-1.97-1.28-2.47-2.7-2.38l-1.05.08.17 2.23.32 4.09-3.46.27-.95-12.13-.29-3.74c1.11-.28 2.77-.55 4.63-.7 2.29-.18 3.92.05 5.09.88.98.69 1.57 1.78 1.68 3.25.16 2.05-1.13 3.57-2.42 4.18v.07c1.12.37 1.8 1.4 2.3 2.85.62 1.78 1.27 3.84 1.61 4.44l-3.58.28Zm6.56-.44-.79-16.14 9.55-.46.15 2.99-6.04.29.16 3.35 5.69-.27.14 2.97-5.69.27.19 3.83 6.36-.3.15 2.99-9.87.47Zm13.34-.59-.34-16.14 9.57-.21.06 2.99-6.05.13.07 3.35 5.7-.13.06 2.97-5.7.13.08 3.83 6.37-.14.06 2.99-9.89.22Zm26.13-.17-3.68-.02-3.07-5.86-.2-.39c-.91-1.73-1.91-3.82-2.66-5.72l-.07.02c.08 2.13.11 4.41.1 7.04l-.03 4.86-3.22-.02.1-16.14 4.09.03 1.89 3.53 1.29 2.41c.91 1.71 1.82 3.72 2.5 5.55h.07c-.22-2.13-.27-4.31-.26-6.73l.03-4.72 3.22.02zm14.1-12.68-6.05-.22-.12 3.35 5.7.21-.11 2.97-5.7-.21-.14 3.83 6.37.23-.11 2.99-9.89-.36.59-16.14 9.57.35zm14.04 9.46c.34 1.76.67 3.75.92 4.5.01.04.03.09.04.12h-.1l-3.48-.23c-.22-.47-.5-1.81-.83-3.82-.28-2.04-.91-2.63-2.33-2.74l-1.06-.07-.42 6.34-3.47-.23 1.04-15.9c1.14-.12 2.82-.15 4.68-.03 2.3.15 3.88.61 4.92 1.59.87.83 1.3 1.98 1.2 3.47-.14 2.05-1.63 3.37-2.99 3.79v.07c1.04.53 1.57 1.64 1.86 3.15Zm10.83-4.06c.67.33 1.23.69 1.71 1.06 1.4 1.11 1.99 2.43 1.83 4.12-.25 2.6-2.35 4.63-6.31 4.39-.14 0-.26 0-.4-.01-1.76-.17-3.46-.82-4.28-1.4l1-2.93c.89.59 2.28 1.23 3.77 1.38.65.06 1.16-.03 1.57-.19.61-.24.98-.68 1.04-1.31.02-.2-.02-.38-.06-.56-.18-.7-.88-1.26-2.3-1.96-1.36-.65-2.42-1.44-3.07-2.41-.54-.79-.8-1.7-.7-2.75.21-2.21 1.84-3.84 4.37-4.21.6-.09 1.24-.13 1.94-.06 1.74.17 2.98.68 3.86 1.2l-1.06 2.85c-.59-.37-1.64-.93-3.15-1.08s-2.31.5-2.39 1.33c-.1 1.02.73 1.56 2.64 2.54Zm23.36-.66-5.9-.85-.52 3.65 5.51.8-.42 2.94-5.51-.8-.92 6.43-3.49-.5 1.26-8.76 1.04-7.23 2.57.37 6.81.98-.42 2.97Zm14.72 2.96c-.65-.44-1.57-.89-2.79-1.12-2.74-.5-5.18.83-5.83 4.37-.58 3.18.86 5.52 3.94 6.08 1.04.19 2.24.16 2.97 0v2.9c-.69.22-2.18.31-4.03-.03-5.27-.96-7.36-4.88-6.53-9.41.99-5.42 5.26-7.76 9.87-6.92 1.79.33 3.08.95 3.63 1.39l-1.22 2.73Zm19.13 6.3c-.62 2.54-2.88 4.13-5.46 5.56l-1.62.83v.04l5.46 1.34-.71 2.91-10.3-2.53.52-2.14 2.31-1.31c3.9-2.17 5.85-3.49 6.33-5.25.3-1.23-.17-2.38-1.85-2.8-1.25-.31-2.51.08-3.41.49l-.34-2.77c1.31-.59 3.18-.87 5.14-.39 3.28.8 4.6 3.25 3.93 5.99Zm13.5 7.11c-1.37 4.62-4.09 7.25-7.75 6.17-3.7-1.1-4.31-5.05-3.08-9.28 1.28-4.32 4.05-7.21 7.76-6.11 3.84 1.14 4.28 5.14 3.07 9.23Zm7.73 10.99-3.19-1.13 4.12-11.64-.04-.02-3.16.38.37-2.77 4.37-.48 2.73.97zm20.51-6-10.88 9.79-3.41-1.45 10.59-9.11.02-.04-6.31-2.69 1.17-2.76 9.72 4.14z" style="stroke-width:0;fill:url(#_무제_그라디언트_3-12)"/><path d="M400.5 349.4c-1.24-.37-2.55 1.02-3.56 4.49-1.04 3.41-.73 5.28.58 5.67s2.51-1.1 3.52-4.5c.98-3.31.81-5.25-.53-5.65Z" style="stroke-width:0;fill:url(#_무제_그라디언트_3-13)"/><path d="M318.06 335c-.85-.05-1.34-.01-1.59.02l-.29 4.45 1.38.09c1.75.11 2.84-.73 2.93-2.14.1-1.48-.82-2.29-2.42-2.42Z" style="stroke-width:0;fill:url(#_무제_그라디언트_3-14)"/><path d="M244.57 335.49c-.85.06-1.32.18-1.57.24l.35 4.44 1.38-.11c1.74-.14 2.7-1.13 2.59-2.53-.12-1.48-1.14-2.14-2.74-2.04Z" style="stroke-width:0;fill:url(#_무제_그라디언트_3-15)"/><path d="m316.95 200.65-24.2-53.79c10.07 1.36 19.35 5.25 27.18 11 2.45 1.8 4.77 3.77 6.92 5.91l7.38-7.38c-4.36-4.36-9.3-8.13-14.67-11.22a69.5 69.5 0 0 0-10.83-5.07 69.5 69.5 0 0 0-20.77-4.15c-1.06-.05-2.13-.08-3.2-.08s-2.14.03-3.2.08c-7.26.33-14.25 1.76-20.77 4.15a70 70 0 0 0-10.83 5.07c-21.01 12.09-35.2 34.77-35.2 60.7 0 37.53 29.68 68.24 66.8 69.92 1.06.05 2.13.08 3.2.08s2.14-.03 3.2-.08c35.38-1.6 63.98-29.59 66.59-64.7.13-1.73.22-3.46.22-5.22s-.09-3.5-.22-5.22h-37.59Zm-32.2-46.11 20.75 46.11h-41.49l20.75-46.11Zm-59.56 51.33c0-19.68 9.63-37.1 24.38-47.95 7.84-5.76 17.1-9.7 27.18-11.06l-41.46 92.15a59.26 59.26 0 0 1-10.1-33.14m62.77 59.47a57 57 0 0 1-6.4 0c-15.13-.81-28.77-7.28-38.85-17.33l16.61-36.91h50.89l16.61 36.91c-10.07 10.05-23.72 16.53-38.85 17.34Zm46.26-26.33-12.56-27.92h22.42c-.9 10.27-4.4 19.8-9.86 27.92" style="stroke-width:0;fill:url(#_무제_그라디언트_3-16)"/></g></svg>