<svg xmlns="http://www.w3.org/2000/svg" xml:space="preserve" width="410.41592" height="509.24121" viewBox="0 0 410.41592 509.2412"><defs><clipPath id="a" clipPathUnits="userSpaceOnUse"><path d="M340.908 980.997a10 10 0 0 1-.642-.175c-.207-.061-.416-.139-.626-.21a11.3 11.3 0 0 1-2.424-1.263c.499-.021.983-.052 1.468-.106a14 14 0 0 0 1.819-.329c2.987-.718 5.552-2.409 7.345-5.039l.015-.016c.263-.416.562-.744.917-.836.353-.093.771.035 1.309.5l.012.005.054.038c.313.251.471.662.471 1.121 0 .471-.172.993-.471 1.434l-.054.065v.007l-.024.04c-.303.449-.616.868-.959 1.256-.338.392-.707.757-1.086 1.086-1.772 1.558-3.959 2.441-6.475 2.441q-.32 0-.649-.019m7.411-1.198c1.076-.857 2.02-1.952 2.845-3.227.31-.484.587-.75.811-.863a.6.6 0 0 1 .576.035q.038.023.08.055c.129.1.207.234.218.394q.026.255-.166.584c-.029.056-.08.122-.132.186l-.012.026c-.263.343-.55.669-.853.97a10 10 0 0 1-.955.873 11.4 11.4 0 0 1-4.178 2.125c.63-.324 1.216-.713 1.766-1.158m-12.49-1.592c-.143-.143-.301-.293-.444-.445q-.24-.263-.472-.536a11 11 0 0 1-1.69-2.789c.471.098.93.158 1.388.197.562.04 1.126.04 1.662-.015 2.724-.247 5.057-1.693 6.979-4.104.694.075 1.964.243 2.908.662.903.399 1.481 1.034.8 2.062l-.026.044c-.369.534-.76 1.01-1.178 1.449a9.3 9.3 0 0 1-1.352 1.17c-2.165 1.617-4.847 2.329-7.672 2.329q-.45 0-.903-.024m17.782-3.036a6 6 0 0 1-.249-.198 8 8 0 0 0-1.351-.817 13 13 0 0 0-.73-.976 11 11 0 0 0-.891-.878c-1.597-1.387-3.668-2.273-5.747-2.697v.015c-.368-.081-.697-.184-.983-.445-.303-.275-.563-.735-.786-1.535-.106-.337-.132-.621-.106-.864a1.16 1.16 0 0 1 .275-.712 1.2 1.2 0 0 1 .564-.335c.158-.052.326-.065.47-.052h.146c.642.028 1.27.091 1.885.208q.919.182 1.781.487c2.908 1.026 5.29 3.167 6.77 6.075-.041.134-.065.262-.105.393-.04.145-.079.299-.118.443-.197.67-.458 1.318-.773 1.928zm-17.651-1.709c-.47-.144-.958-.532-1.389-1.315l-.026-.04a8 8 0 0 1-.498-1.132 8 8 0 0 1-.327-1.172c-.419-2.043-.09-4.224.63-6.196v-.011c.13-.197.287-.395.433-.591.169-.195.338-.404.522-.593a11.4 11.4 0 0 1 2.619-2.121c-.172.319-.313.642-.459.961a12.5 12.5 0 0 0-.601 1.618c-.826 2.818-.694 5.804.914 8.269.393.576.59 1.06.528 1.424-.055.343-.354.603-.983.773h-.015l-.012.015a2.2 2.2 0 0 1-.846.184q-.244.002-.49-.073m-2.487-.099h-.026a1 1 0 0 1-.577-.325c-.145-.172-.236-.415-.302-.719l-.013-.041c-.051-.276-.107-.544-.131-.814a9 9 0 0 1-.077-.838c-.04-.743 0-1.505.101-2.247.08 1.516.449 3.008 1.192 4.336.092.178.148.363.148.496 0 .068 0 .125-.028.152a.1.1 0 0 1-.066.039.2.2 0 0 1-.043.005.5.5 0 0 1-.178-.044m6.676-1.852c-.366-.006-.732-.177-1.098-.536a3 3 0 0 1-.222-.258 8 8 0 0 1-.854-1.542 7.8 7.8 0 0 1-.432-1.599c-.444-2.776.656-5.711 2.161-8.131.171-.053.329-.119.5-.172.168-.05.351-.107.537-.154a11.4 11.4 0 0 1 2.603-.369 14 14 0 0 0-.182.601c-.065.278-.132.563-.183.873-.997 1.379-1.469 2.678-1.585 3.973-.118 1.304.104 2.594.511 3.967l.131.474v.005c.313 1.099.381 1.307-.486 2.165h-.013a1.6 1.6 0 0 1-.274.251c-.374.295-.732.452-1.094.452zm10.293-5.193c-1.846-1.112-3.981-1.702-6.457-1.748h-.013a1.44 1.44 0 0 1-.901-.502 1.2 1.2 0 0 1-.303-.905c.014-.158.039-.339.106-.53l.025-.032c.067-.211.158-.393.263-.552.09-.15.21-.287.314-.391.575-.562 1.283-.635 1.612-.551h.038l.039.012c.565.04 1.113.127 1.637.238.537.112 1.061.261 1.559.436 2.565.923 4.7 2.691 6.127 5.218l.012.012c.054.212.106.409.159.605q.041.305.107.603c.141.823.167 1.676.129 2.527-1.284-1.938-2.748-3.417-4.453-4.44m1.112-4.151c-1.832-1.257-3.98-1.961-6.404-2.141v-.004l-.194-.028a4 4 0 0 1-.392-.072c-.21-.059-.367-.182-.289-.504h.012c.067-.262.197-.417.394-.489.21-.087.51-.087.878-.007h.013l.013.007c.458.072.902.19 1.349.317.418.125.849.291 1.255.474a11.4 11.4 0 0 1 3.864 2.809c-.17-.127-.328-.241-.499-.362"/></clipPath><clipPath id="b" clipPathUnits="userSpaceOnUse"><path d="M340.908 980.997a10 10 0 0 1-.642-.175c-.207-.061-.416-.139-.626-.21a11.3 11.3 0 0 1-2.424-1.263c.499-.021.983-.052 1.468-.106a14 14 0 0 0 1.819-.329c2.987-.718 5.552-2.409 7.345-5.039l.015-.016c.263-.416.562-.744.917-.836.353-.093.771.035 1.309.5l.012.005.054.038c.313.251.471.662.471 1.121 0 .471-.172.993-.471 1.434l-.054.065v.007l-.024.04c-.303.449-.616.868-.959 1.256-.338.392-.707.757-1.086 1.086-1.772 1.558-3.959 2.441-6.475 2.441q-.32 0-.649-.019m7.411-1.198c1.076-.857 2.02-1.952 2.845-3.227.31-.484.587-.75.811-.863a.6.6 0 0 1 .576.035q.038.023.08.055c.129.1.207.234.218.394q.026.255-.166.584c-.029.056-.08.122-.132.186l-.012.026c-.263.343-.55.669-.853.97a10 10 0 0 1-.955.873 11.4 11.4 0 0 1-4.178 2.125c.63-.324 1.216-.713 1.766-1.158m-12.49-1.592c-.143-.143-.301-.293-.444-.445q-.24-.263-.472-.536a11 11 0 0 1-1.69-2.789c.471.098.93.158 1.388.197.562.04 1.126.04 1.662-.015 2.724-.247 5.057-1.693 6.979-4.104.694.075 1.964.243 2.908.662.903.399 1.481 1.034.8 2.062l-.026.044c-.369.534-.76 1.01-1.178 1.449a9.3 9.3 0 0 1-1.352 1.17c-2.165 1.617-4.847 2.329-7.672 2.329q-.45 0-.903-.024m17.782-3.036a6 6 0 0 1-.249-.198 8 8 0 0 0-1.351-.817 13 13 0 0 0-.73-.976 11 11 0 0 0-.891-.878c-1.597-1.387-3.668-2.273-5.747-2.697v.015c-.368-.081-.697-.184-.983-.445-.303-.275-.563-.735-.786-1.535-.106-.337-.132-.621-.106-.864a1.16 1.16 0 0 1 .275-.712 1.2 1.2 0 0 1 .564-.335c.158-.052.326-.065.47-.052h.146c.642.028 1.27.091 1.885.208q.919.182 1.781.487c2.908 1.026 5.29 3.167 6.77 6.075-.041.134-.065.262-.105.393-.04.145-.079.299-.118.443-.197.67-.458 1.318-.773 1.928zm-17.651-1.709c-.47-.144-.958-.532-1.389-1.315l-.026-.04a8 8 0 0 1-.498-1.132 8 8 0 0 1-.327-1.172c-.419-2.043-.09-4.224.63-6.196v-.011c.13-.197.287-.395.433-.591.169-.195.338-.404.522-.593a11.4 11.4 0 0 1 2.619-2.121c-.172.319-.313.642-.459.961a12.5 12.5 0 0 0-.601 1.618c-.826 2.818-.694 5.804.914 8.269.393.576.59 1.06.528 1.424-.055.343-.354.603-.983.773h-.015l-.012.015a2.2 2.2 0 0 1-.846.184q-.244.002-.49-.073m-2.487-.099h-.026a1 1 0 0 1-.577-.325c-.145-.172-.236-.415-.302-.719l-.013-.041c-.051-.276-.107-.544-.131-.814a9 9 0 0 1-.077-.838c-.04-.743 0-1.505.101-2.247.08 1.516.449 3.008 1.192 4.336.092.178.148.363.148.496 0 .068 0 .125-.028.152a.1.1 0 0 1-.066.039.2.2 0 0 1-.043.005.5.5 0 0 1-.178-.044m6.676-1.852c-.366-.006-.732-.177-1.098-.536a3 3 0 0 1-.222-.258 8 8 0 0 1-.854-1.542 7.8 7.8 0 0 1-.432-1.599c-.444-2.776.656-5.711 2.161-8.131.171-.053.329-.119.5-.172.168-.05.351-.107.537-.154a11.4 11.4 0 0 1 2.603-.369 14 14 0 0 0-.182.601c-.065.278-.132.563-.183.873-.997 1.379-1.469 2.678-1.585 3.973-.118 1.304.104 2.594.511 3.967l.131.474v.005c.313 1.099.381 1.307-.486 2.165h-.013a1.6 1.6 0 0 1-.274.251c-.374.295-.732.452-1.094.452zm10.293-5.193c-1.846-1.112-3.981-1.702-6.457-1.748h-.013a1.44 1.44 0 0 1-.901-.502 1.2 1.2 0 0 1-.303-.905c.014-.158.039-.339.106-.53l.025-.032c.067-.211.158-.393.263-.552.09-.15.21-.287.314-.391.575-.562 1.283-.635 1.612-.551h.038l.039.012c.565.04 1.113.127 1.637.238.537.112 1.061.261 1.559.436 2.565.923 4.7 2.691 6.127 5.218l.012.012c.054.212.106.409.159.605q.041.305.107.603c.141.823.167 1.676.129 2.527-1.284-1.938-2.748-3.417-4.453-4.44m1.112-4.151c-1.832-1.257-3.98-1.961-6.404-2.141v-.004l-.194-.028a4 4 0 0 1-.392-.072c-.21-.059-.367-.182-.289-.504h.012c.067-.262.197-.417.394-.489.21-.087.51-.087.878-.007h.013l.013.007c.458.072.902.19 1.349.317.418.125.849.291 1.255.474a11.4 11.4 0 0 1 3.864 2.809c-.17-.127-.328-.241-.499-.362"/></clipPath></defs><g style="stroke-width:.739734"><g style="stroke-width:.739734"><path d="M0 0c.03-.045.046-.096.076-.142.036-.064.086-.123.12-.187zm-40.972-53.896-.058-.041c-17.814-13.361-39.868-21.025-60.511-21.025h-.02c-20.648-.004-42.71 7.658-60.53 21.025l-.058.041c-6.727 4.852-11.282 8.522-16.2 13.099 1.244.986 2.869 2.062 3.576 2.529l.797.533.663.308c1.706.781 3.506 1.651 5.076 2.668 2.081-2.416 4.194-4.764 6.353-6.937 15.492-15.627 33.715-26.25 54.16-31.571 2.344-.621 4.202-1.007 6.165-1.005 1.96-.002 3.818.384 6.18 1.009 20.429 5.317 38.65 15.94 54.142 31.567 2.158 2.175 4.274 4.523 6.351 6.937 1.574-1.019 3.372-1.887 5.078-2.668l.662-.308.797-.533c.708-.467 2.33-1.543 3.575-2.529-4.918-4.577-9.473-8.247-16.198-13.099M10.965-14.66l-.022.034c-1.157 1.812-2.974 3.844-5.078 6.197-1.328 1.484-2.827 3.166-4.304 4.952-.107.211-.289.688-.415 1.021C.852-1.673.535-.872.076-.142-.901 1.605-2.5 3.185-4.835 4.67l-.246.157-.267.116c-1.558.682-3.106.963-4.594 1.007a186 186 0 0 1 4.223 10.882c6.906 19.661 8.721 42.446 8.721 66.022 0 13.238-.572 26.726-1.138 40.051l-.392 9.337c-.224 4.542-.395 8.099-3.196 10.556-2.719 2.39-5.954 2.125-10.05 1.791 0 0-.979-.078-1.084-.088-28.694-1.776-58.251 9.542-83.709 20.301l-.614.281c-1.302.6-2.713 1.183-4.38 1.167-1.666.016-3.077-.567-4.381-1.167l-.612-.281c-25.458-10.759-55.015-22.077-83.709-20.301-.106.01-1.068.087-1.068.087-4.112.335-7.348.6-10.066-1.79-2.801-2.457-2.973-6.014-3.194-10.518l-.394-9.376c-.566-13.324-1.139-26.811-1.139-40.049 0-23.576 1.816-46.363 8.723-66.026a183 183 0 0 1 4.222-10.879c-1.489-.044-3.036-.325-4.594-1.007l-.268-.116-.245-.157c-2.336-1.484-3.935-3.064-4.911-4.812-.461-.73-.776-1.531-1.071-2.314-.126-.333-.307-.812-.414-1.022-1.467-1.775-2.972-3.462-4.304-4.951-2.105-2.353-3.921-4.385-5.081-6.197-.885-1.415-1.343-3.003-1.343-4.55 0-.579.063-1.153.193-1.709l.014-.057.016-.059c.839-3.139 2.541-5.149 5.693-6.723l.072-.036.071-.033c4.196-1.88 9.371-.743 12.052 2.553a19.5 19.5 0 0 1 1.995 2.419c.144.192.265.344.371.468-.586-1.199-.857-2.506-1.046-4.199l-.042-.365.029-.367q.071-.884.07-1.776c0-2.424-.36-4.9-.737-7.49l-.014-.097c-.688-2.956-1.353-5.073-2.944-8.147-1.133-1.867-2.225-3.316-3.19-4.594-1.435-1.902-2.569-3.403-3.035-5.271l-.042-.171-.028-.173c-.15-.978-.281-2.065-.281-3.218 0-.831.068-1.694.249-2.575l.018-.084.02-.084c.57-2.26 1.441-4.827 3.472-6.918 10.912-14.517 33.184-31.176 51.93-38.816l.069-.026c16.166-6.227 31.674-9.26 48.809-9.551l.063-.002.068.002c17.135.291 32.642 3.324 48.808 9.551l.068.026c18.747 7.64 41.02 24.299 51.93 38.816 2.033 2.093 2.904 4.66 3.474 6.92l.02.082.018.084c.179.881.249 1.746.249 2.577 0 1.151-.134 2.238-.281 3.216l-.028.173-.042.171c-.466 1.868-1.6 3.369-3.035 5.271-.965 1.278-2.058 2.727-3.19 4.594-1.591 3.076-2.256 5.193-2.944 8.147l-.014.091c-.377 2.594-.738 5.071-.738 7.498 0 .594.02 1.186.07 1.774l.03.367-.042.363c-.189 1.695-.46 3.002-1.046 4.201.104-.124.227-.277.373-.47.556-.823 1.399-1.811 1.993-2.417 2.681-3.296 7.854-4.433 12.049-2.553l.074.033.072.036c3.149 1.574 4.854 3.584 5.693 6.723l.016.059.014.057c.129.558.193 1.134.193 1.714 0 1.543-.455 3.121-1.324 4.511M-203.317-.329c.034.064.084.123.12.187.028.046.046.097.075.142z" style="fill:#231815;fill-opacity:1;fill-rule:nonzero;stroke:none;stroke-width:.739734" transform="matrix(1.80245 0 0 -1.80245 388.266 299.658)"/></g><g style="stroke-width:.739734"><path d="M0 0c-2.318 3.469-7.555-.354-7.555-.354-3.761-3.354-8.631-5.343-8.631-5.343 5.498-2.408 10.894-8.053 10.894-8.053C-1.441-11.191.364-6.287.364-6.287 1.74-1.271 0 0 0 0" style="fill:#ac2424;fill-opacity:1;fill-rule:nonzero;stroke:none;stroke-width:.739734" transform="matrix(1.80245 0 0 -1.80245 363.343 344.995)"/></g><g style="stroke-width:.739734"><path d="M0 0c-1.978.643-3.732 2.123-3.732 2.123-3.783 4.705 1.482 9.236 1.482 9.236.456.872.915.412.915.412 1.426-1.021 4.57-5.4 4.57-5.4C4.662 5.173 5.448 7.89 5.448 7.89c.458 6.605-4.715 7.065-4.715 7.065-6.087.365-13.658-6.601-13.658-6.601-8.208-7.241-8.993-17.211-8.993-17.211-.186-10.811 8.118-2.914 8.118-2.914C-8.354-5.773-3.038-7.344-3.038-7.344c1.244 1.733 4.282 4.292 4.282 4.292.928.422.982.93.982.93C1.848-1.244 0 0 0 0" style="fill:#ac2424;fill-opacity:1;fill-rule:nonzero;stroke:none;stroke-width:.739734" transform="matrix(1.80245 0 0 -1.80245 367.4 325.929)"/></g><g style="stroke-width:.739734"><path d="M0 0c3-2.448 5.542.326 5.542.326C4.348 2.679.893 4.833.893 4.833-1.648 2.645 0 0 0 0" style="fill:#ac2424;fill-opacity:1;fill-rule:nonzero;stroke:none;stroke-width:.739734" transform="matrix(1.80245 0 0 -1.80245 362.487 317.69)"/></g><g style="stroke-width:.739734"><path d="M0 0c-5.763 4.887-8.302 9.779-8.302 9.779-.785 3.923-2.45 3.693-2.45 3.693 1.939-9.047-6.665-9.997-6.665-9.997.681-1.041 4.399-3.529 4.399-3.529C-10.423-2.129-7.7-5.915-7.7-5.915c3.875-3.736 7.569.467 7.569.467C2.553-2.313 0 0 0 0" style="fill:#ac2424;fill-opacity:1;fill-rule:nonzero;stroke:none;stroke-width:.739734" transform="matrix(1.80245 0 0 -1.80245 398.51 328.828)"/></g><g style="stroke-width:.739734"><path d="M0 0s-3.694-4.203-7.569-.467c0 0-2.723 3.786-5.318 5.861 0 0-3.717 2.488-4.399 3.529 0 0 8.605.951 6.665 9.997 0 0 1.665.23 2.45-3.693 0 0 2.54-4.892 8.302-9.779 0 0 2.554-2.313-.131-5.448m-14.312 11.953s-2.542-2.773-5.542-.326c0 0-1.648 2.645.894 4.833 0 0 3.454-2.154 4.648-4.507m-1.573-7.948s-3.037-2.56-4.282-4.292c0 0-5.315 1.57-10.761-4.428 0 0-8.304-7.896-8.119 2.914 0 0 .785 9.971 8.994 17.212 0 0 7.57 6.966 13.658 6.6 0 0 5.172-.46 4.714-7.065 0 0-.785-2.717-2.213-1.519 0 0-3.143 4.38-4.57 5.401 0 0-.458.46-.915-.412 0 0-5.265-4.531-1.481-9.236 0 0 1.754-1.481 3.732-2.123 0 0 1.847-1.244 2.226-2.122 0 0-.054-.508-.983-.93m6.351-37.108c2.005-2.829.59-6.599.59-6.599-2.605-5.546-9.205-11.675-9.205-11.675-17.926-18.994-42.818-28.666-42.818-28.666-16.379-6.837-32.601-8.932-46.145-8.996-13.545.064-29.766 2.159-46.145 8.996 0 0-24.893 9.672-42.819 28.666 0 0-6.599 6.129-9.205 11.675 0 0-1.415 3.77.59 6.599 0 0 10.028 11.562 9.086 19.117 0 0 12.269-20.053 47.768-36.219 0 0 17.255-8.313 40.723-8.725h.004c23.467.412 40.723 8.725 40.723 8.725C-30.888-34.039-18.62-13.986-18.62-13.986c-.943-7.555 9.086-19.117 9.086-19.117M-198.34 4.005c-.929.422-.983.93-.983.93.379.878 2.227 2.122 2.227 2.122 1.977.642 3.731 2.123 3.731 2.123 3.783 4.705-1.479 9.236-1.479 9.236-.458.872-.917.412-.917.412-1.427-1.021-4.57-5.401-4.57-5.401-1.427-1.198-2.211 1.519-2.211 1.519-.46 6.605 4.712 7.065 4.712 7.065 6.088.366 13.659-6.6 13.659-6.6 8.21-7.241 8.993-17.212 8.993-17.212.186-10.81-8.118-2.914-8.118-2.914-5.446 5.998-10.763 4.428-10.763 4.428-1.243 1.732-4.281 4.292-4.281 4.292m-1.571 7.948c1.192 2.353 4.647 4.507 4.647 4.507 2.541-2.188.892-4.833.892-4.833-2.997-2.447-5.539.326-5.539.326m-1.427-6.559c-2.595-2.075-5.318-5.861-5.318-5.861-3.875-3.736-7.569.467-7.569.467-2.685 3.135-.131 5.448-.131 5.448 5.762 4.887 8.302 9.779 8.302 9.779.785 3.923 2.45 3.693 2.45 3.693-1.94-9.046 6.666-9.997 6.666-9.997-.683-1.041-4.4-3.529-4.4-3.529m11.785-22.665c-3.852 2.558-5.657 7.462-5.657 7.462-1.376 5.016.366 6.288.366 6.288 2.317 3.468 7.553-.354 7.553-.354 3.761-3.354 8.631-5.344 8.631-5.344-5.498-2.408-10.893-8.052-10.893-8.052m153.988 8.052s4.87 1.99 8.631 5.344c0 0 5.237 3.822 7.555.354 0 0 1.74-1.272.364-6.288 0 0-1.805-4.904-5.656-7.462 0 0-5.396 5.644-10.894 8.052M2.21 4.969c-1.69 2.639-5.421 6.291-9.219 10.9-.656.807-1.1 2.785-1.688 3.667-.733 1.387-2.109 2.553-3.718 3.577-2.856 1.249-5.79.659-8.632-.29-6.074-2.489-10.395-6.804-14.924-11.341-1.101-2.048-6.078-7.529-5.201-18.14 0-2.706 6.73-5.337 8.342-6.147 1.9-1.311 7.174-4.461 7.607-6.733-6.429-6.211-11.484-10.306-19.09-15.791-17.691-13.269-40.706-21.784-62.799-21.78-22.092-.004-45.109 8.511-62.8 21.78-7.606 5.485-12.661 9.58-19.089 15.791.432 2.272 5.707 5.422 7.606 6.733 1.613.81 8.342 3.441 8.342 6.147.875 10.611-4.1 16.092-5.2 18.14-4.529 4.537-8.851 8.852-14.924 11.341-2.843.949-5.777 1.539-8.631.29-1.611-1.024-2.986-2.19-3.72-3.577-.588-.882-1.033-2.86-1.688-3.667-3.797-4.609-7.529-8.261-9.219-10.9-.732-1.172-.876-2.411-.652-3.36.586-2.199 1.686-3.298 3.732-4.32 2.774-1.244 6.282-.366 7.751 1.689.509.51 1.308 1.465 1.687 2.05 1.088 1.459 2.187 2.552 3.642 2.337 1.766 0 3.731-2.265 4.464-4.097-1.309-1.245-1.676-2.045-1.965-4.611.289-3.51-.221-6.874-.733-10.384-.812-3.507-1.609-5.925-3.363-9.291-2.776-4.61-5.344-6.878-5.855-8.923-.223-1.459-.366-2.998-.065-4.465.496-1.972 1.166-3.948 2.697-5.408 10.973-14.706 33.206-30.717 50.466-37.751 15.516-5.974 30.651-9.012 47.515-9.299h.004c16.863.287 31.998 3.325 47.514 9.299 17.26 7.034 39.493 23.045 50.467 37.751 1.53 1.46 2.2 3.436 2.696 5.408.302 1.467.158 3.006-.063 4.465-.513 2.045-3.08 4.313-5.857 8.923-1.752 3.366-2.551 5.784-3.362 9.291-.513 3.51-1.021 6.874-.734 10.384-.287 2.566-.655 3.366-1.965 4.611.733 1.832 2.699 4.097 4.465 4.097 1.455.215 2.553-.878 3.643-2.337.377-.585 1.177-1.54 1.687-2.05 1.467-2.055 4.975-2.933 7.752-1.689C1.176-1.689 2.276-.59 2.862 1.609c.223.949.08 2.188-.652 3.36" style="fill:#000;fill-opacity:1;fill-rule:nonzero;stroke:none;stroke-width:.739734" transform="matrix(1.80245 0 0 -1.80245 398.272 338.648)"/></g><g style="stroke-width:.739734"><path d="M0 0s-10.028 11.562-9.085 19.116c0 0-12.269-20.053-47.768-36.219 0 0-17.256-8.312-40.725-8.724-23.467.412-40.725 8.724-40.725 8.724-35.499 16.166-47.768 36.219-47.768 36.219.943-7.554-9.086-19.116-9.086-19.116-2.005-2.829-.59-6.6-.59-6.6 2.606-5.546 9.205-11.674 9.205-11.674 17.926-18.995 42.819-28.666 42.819-28.666 16.377-6.837 32.6-8.932 46.143-8.997h.004c13.542.065 29.766 2.16 46.143 8.997 0 0 24.892 9.671 42.818 28.666 0 0 6.6 6.128 9.205 11.674 0 0 1.415 3.771-.59 6.6" style="fill:#ac2424;fill-opacity:1;fill-rule:nonzero;stroke:none;stroke-width:.739734" transform="matrix(1.80245 0 0 -1.80245 381.088 398.314)"/></g><g style="stroke-width:.739734"><path d="M0 0c2.316 3.469 7.553-.354 7.553-.354 3.761-3.354 8.631-5.343 8.631-5.343C10.686-8.105 5.291-13.75 5.291-13.75 1.439-11.191-.367-6.287-.367-6.287-1.742-1.271 0 0 0 0" style="fill:#ac2424;fill-opacity:1;fill-rule:nonzero;stroke:none;stroke-width:.739734" transform="matrix(1.80245 0 0 -1.80245 47.076 344.995)"/></g><g style="stroke-width:.739734"><path d="M0 0c1.978.643 3.731 2.123 3.731 2.123 3.784 4.705-1.479 9.236-1.479 9.236-.458.872-.917.412-.917.412-1.427-1.021-4.57-5.4-4.57-5.4C-4.662 5.173-5.446 7.89-5.446 7.89c-.46 6.605 4.713 7.065 4.713 7.065 6.087.365 13.658-6.601 13.658-6.601 8.21-7.241 8.993-17.211 8.993-17.211.186-10.811-8.118-2.914-8.118-2.914C8.354-5.773 3.038-7.344 3.038-7.344 1.794-5.611-1.244-3.052-1.244-3.052c-.929.422-.983.93-.983.93C-1.848-1.244 0 0 0 0" style="fill:#ac2424;fill-opacity:1;fill-rule:nonzero;stroke:none;stroke-width:.739734" transform="matrix(1.80245 0 0 -1.80245 43.016 325.929)"/></g><g style="stroke-width:.739734"><path d="M0 0c-2.998-2.448-5.539.326-5.539.326C-4.347 2.679-.893 4.833-.893 4.833 1.649 2.645 0 0 0 0" style="fill:#ac2424;fill-opacity:1;fill-rule:nonzero;stroke:none;stroke-width:.739734" transform="matrix(1.80245 0 0 -1.80245 47.927 317.69)"/></g><g style="stroke-width:.739734"><path d="M0 0c5.762 4.887 8.302 9.779 8.302 9.779.785 3.923 2.449 3.693 2.449 3.693-1.939-9.047 6.666-9.997 6.666-9.997-.682-1.041-4.399-3.529-4.399-3.529C10.423-2.129 7.7-5.915 7.7-5.915 3.825-9.651.131-5.448.131-5.448-2.554-2.313 0 0 0 0" style="fill:#ac2424;fill-opacity:1;fill-rule:nonzero;stroke:none;stroke-width:.739734" transform="matrix(1.80245 0 0 -1.80245 11.907 328.828)"/></g><g style="stroke-width:.739734"><path d="m0 0 .473-.431c.771-.708 1.596-.879 2.118-.315.435.469.238 1.033-.299 1.527-.237.219-.47.397-.602.477Zm-3.233-2.37c.144-.175.313-.329.522-.526.762-.694 1.731-1.033 2.41-.299.604.654.238 1.355-.418 1.957l-.445.405zm4.622 5.723c.55-.343 1.231-.851 1.87-1.441C3.955 1.27 4.375.72 4.583.066c.223-.63.143-1.361-.365-1.923-.76-.829-1.848-.788-2.751-.324l-.028-.032c.447-.787.369-1.662-.299-2.39-.654-.713-1.507-.873-2.332-.733-.915.123-1.886.739-2.984 1.746-.733.69-1.298 1.285-1.545 1.652z" style="fill:#fff;fill-opacity:1;fill-rule:nonzero;stroke:none;stroke-width:.739734" transform="matrix(1.80245 0 0 -1.80245 60.14 408.887)"/></g><g style="stroke-width:.739734"><path d="m0 0-4.033-3.341a6 6 0 0 1-.759-.754c-.47-.563-.47-1.283.181-1.825.776-.642 1.691-.55 3.001.53l4.058 3.359 1.479-1.218-3.991-3.307c-2.137-1.759-3.877-2.009-5.763-.451-1.427 1.164-1.678 2.646-.458 4.105.235.296.564.598.891.877l3.915 3.253z" style="fill:#fff;fill-opacity:1;fill-rule:nonzero;stroke:none;stroke-width:.739734" transform="matrix(1.80245 0 0 -1.80245 75.104 413.511)"/></g><g style="stroke-width:.739734"><path d="M0 0c-.512.113-1.258.452-2.123 1.095-1.909 1.418-2.316 3.521-.903 5.421C-1.822 8.145-.157 8.86 1.465 8.772c1.128-.038 2.189-.445 3.209-1.196.772-.584 1.23-1.2 1.348-1.481l-1.348-.926c-.131.257-.512.742-1.126 1.203-.628.457-1.349.706-2.057.666C.524 6.98-.486 6.45-1.232 5.454c-.863-1.152-.785-2.408.484-3.346.499-.375 1.075-.668 1.534-.779Z" style="fill:#fff;fill-opacity:1;fill-rule:nonzero;stroke:none;stroke-width:.739734" transform="matrix(1.80245 0 0 -1.80245 81.927 438.686)"/></g><g style="stroke-width:.739734"><path d="m0 0-2.49-2.535L.208-4.329l2.489 2.534 1.596-1.074-6.376-6.515-1.584 1.063 2.672 2.755-2.711 1.793-2.685-2.748-1.598 1.06 6.39 6.522z" style="fill:#fff;fill-opacity:1;fill-rule:nonzero;stroke:none;stroke-width:.739734" transform="matrix(1.80245 0 0 -1.80245 97.552 430.316)"/></g><g style="stroke-width:.739734"><path d="m0 0-2.737 1.623-1.465-1.679 3.077-1.811-1.116-1.252L-6.965-.32l6.034 6.84 4.558-2.699-1.1-1.243-2.908 1.724-1.282-1.448 2.749-1.638Z" style="fill:#fff;fill-opacity:1;fill-rule:nonzero;stroke:none;stroke-width:.739734" transform="matrix(1.80245 0 0 -1.80245 109.02 448.348)"/></g><g style="stroke-width:.739734"><path d="M0 0c1.374-.698 3.311.751 4.084 2.246.511.997.656 2.133-.602 2.778-1.427.745-3.353-.687-4.136-2.202-.578-1.118-.5-2.224.638-2.814Zm-.969-1.288C-3.04-.222-3.431 1.841-2.478 3.688-1.742 5.12-.473 6.255.903 6.685c1.112.343 2.37.252 3.522-.346C6.532 5.246 6.913 3.255 5.93 1.355 5.185-.082 3.94-1.242 2.577-1.661c-1.098-.355-2.342-.255-3.534.359Z" style="fill:#fff;fill-opacity:1;fill-rule:nonzero;stroke:none;stroke-width:.739734" transform="matrix(1.80245 0 0 -1.80245 115.182 456.506)"/></g><g style="stroke-width:.739734"><path d="m0 0 5.133 7.541 2.057-.895-.275-3.61a31 31 0 0 0-.473-3.13l.04-.013c.407.828.917 1.678 1.653 2.791l1.858 2.744 1.648-.713L6.51-2.828l-1.822.785.29 3.783c.115 1.284.221 2.121.43 3.208l-.038.02c-.42-.766-1.126-1.846-1.937-3.044L1.639-.715Z" style="fill:#fff;fill-opacity:1;fill-rule:nonzero;stroke:none;stroke-width:.739734" transform="matrix(1.80245 0 0 -1.80245 122.141 462.982)"/></g><g style="stroke-width:.739734"><path d="m0 0 5.005-1.585-.787-1.459-3.17 1.003-1.034-1.88 2.974-.938-.785-1.438-2.962.933-1.739-3.239-1.821.577z" style="fill:#fff;fill-opacity:1;fill-rule:nonzero;stroke:none;stroke-width:.739734" transform="matrix(1.80245 0 0 -1.80245 152.917 457.861)"/></g><g style="stroke-width:.739734"><path d="M0 0c1.491-.36 3.038 1.521 3.433 3.155.258 1.086.117 2.225-1.244 2.554C.616 6.087-.905 4.241-1.31 2.587-1.599 1.363-1.27.303-.012 0Zm-.628-1.479c-2.264.537-3.143 2.45-2.659 4.477.381 1.566 1.338 2.96 2.567 3.72 1.007.59 2.241.791 3.509.484 2.306-.551 3.141-2.396 2.645-4.477C5.042 1.151 4.112-.263 2.906-.997 1.912-1.608.682-1.8-.614-1.479Z" style="fill:#fff;fill-opacity:1;fill-rule:nonzero;stroke:none;stroke-width:.739734" transform="matrix(1.80245 0 0 -1.80245 164.885 475.35)"/></g><g style="stroke-width:.739734"><path d="M0 0c1.519-.237 2.895 1.76 3.144 3.428.169 1.103-.066 2.226-1.456 2.444-1.584.239-2.943-1.729-3.207-3.412C-1.716 1.216-1.295.195-.012 0Zm-.51-1.547C-2.802-1.186-3.849.64-3.522 2.695c.237 1.598 1.075 3.072 2.227 3.928a4.74 4.74 0 0 0 3.456.786c2.344-.35 3.339-2.121 3.01-4.233C4.924 1.568 4.125.078 2.972-.756c-.93-.687-2.135-.986-3.47-.791Z" style="fill:#fff;fill-opacity:1;fill-rule:nonzero;stroke:none;stroke-width:.739734" transform="matrix(1.80245 0 0 -1.80245 181.218 478.58)"/></g><g style="stroke-width:.739734"><path d="m0 0-2.356.184.458 1.642 6.64-.518-.447-1.649-2.384.189L-.04-7.308l-1.912.15z" style="fill:#fff;fill-opacity:1;fill-rule:nonzero;stroke:none;stroke-width:.739734" transform="matrix(1.80245 0 0 -1.80245 195.497 469.685)"/></g><g style="stroke-width:.739734"><path d="M0 0h.642c1.046-.012 1.78.421 1.78 1.192 0 .636-.51.917-1.244.929-.327 0-.616-.025-.76-.052zm-.799-3.926c.223-.029.446-.029.733-.035 1.035-.006 1.978.398 1.992 1.395.013.89-.736 1.168-1.625 1.168h-.602Zm-.419 7.343c.642.128 1.481.199 2.356.199.943-.014 1.625-.139 2.215-.486.602-.314 1.034-.905 1.034-1.665C4.374.342 3.534-.353 2.554-.63v-.04c.864-.272 1.401-.98 1.387-1.961 0-.971-.523-1.662-1.23-2.121-.772-.51-1.898-.713-3.393-.709-.994.014-1.805.079-2.25.18z" style="fill:#fff;fill-opacity:1;fill-rule:nonzero;stroke:none;stroke-width:.739734" transform="matrix(1.80245 0 0 -1.80245 206.968 473.652)"/></g><g style="stroke-width:.739734"><path d="m0 0-.299 1.919c-.08.484-.171 1.2-.237 1.736l-.04-.008c-.195-.556-.404-1.255-.602-1.792L-1.926-.13Zm-2.396-1.631-.879-2.396-2.039-.135 3.743 9.236 2.45.17L2.54-3.621.524-3.758l-.34 2.311z" style="fill:#fff;fill-opacity:1;fill-rule:nonzero;stroke:none;stroke-width:.739734" transform="matrix(1.80245 0 0 -1.80245 223.984 476)"/></g><g style="stroke-width:.739734"><path d="m0 0 1.897.267-.34-7.406 3.404.479-.091-1.7-5.303-.755Z" style="fill:#fff;fill-opacity:1;fill-rule:nonzero;stroke:none;stroke-width:.739734" transform="matrix(1.80245 0 0 -1.80245 231.09 465.883)"/></g><g style="stroke-width:.739734"><path d="m0 0 1.883.383.104-7.412 3.381.693.024-1.707L.129-9.117Z" style="fill:#fff;fill-opacity:1;fill-rule:nonzero;stroke:none;stroke-width:.739734" transform="matrix(1.80245 0 0 -1.80245 241.618 464.214)"/></g><g style="stroke-width:.739734"><path d="M0 0c-.405-.346-1.099-.76-2.133-1.092-2.266-.728-4.204.156-4.937 2.407-.617 1.932-.238 3.706.771 4.978.695.889 1.624 1.527 2.842 1.905.917.304 1.677.308 1.978.255l-.026-1.65c-.289.052-.903.024-1.625-.209-.745-.243-1.361-.694-1.74-1.295-.524-.82-.682-1.945-.289-3.13C-4.729.799-3.652.14-2.161.615c.602.192 1.164.491 1.533.809z" style="fill:#fff;fill-opacity:1;fill-rule:nonzero;stroke:none;stroke-width:.739734" transform="matrix(1.80245 0 0 -1.80245 273.217 471.941)"/></g><g style="stroke-width:.739734"><path d="m0 0 1.769.693 1.375-7.287 3.207 1.266.315-1.677-4.987-1.958Z" style="fill:#fff;fill-opacity:1;fill-rule:nonzero;stroke:none;stroke-width:.739734" transform="matrix(1.80245 0 0 -1.80245 272.084 455.547)"/></g><g style="stroke-width:.739734"><path d="m0 0 1.27-5.083c.063-.313.181-.659.338-1.005.313-.668.955-.984 1.729-.63.917.419 1.232 1.298.825 2.939l-1.27 5.115 1.74.799L5.876-2.9c.67-2.678.132-4.354-2.079-5.376C2.121-9.062.692-8.655-.105-6.927a7 7 0 0 0-.407 1.193L-1.744-.797z" style="fill:#fff;fill-opacity:1;fill-rule:nonzero;stroke:none;stroke-width:.739734" transform="matrix(1.80245 0 0 -1.80245 284.243 450.474)"/></g><g style="stroke-width:.739734"><path d="M0 0c.211.08.422.186.656.315.917.498 1.556 1.308 1.076 2.187-.422.785-1.208.662-1.98.237l-.538-.283Zm-1.178 3.825.552.302c.929.498 1.361 1.229.98 1.896-.3.571-.89.571-1.532.223a6 6 0 0 1-.642-.405Zm-2.721 2.401c.494.42 1.19.893 1.975 1.303.825.447 1.481.668 2.175.644.668.013 1.335-.289 1.688-.956.537-.995.144-2.004-.59-2.718l.026-.04c.879.178 1.692-.184 2.163-1.055.459-.85.339-1.701-.066-2.447C3.052.146 2.148-.574.839-1.281c-.891-.485-1.637-.814-2.055-.93Z" style="fill:#fff;fill-opacity:1;fill-rule:nonzero;stroke:none;stroke-width:.739734" transform="matrix(1.80245 0 0 -1.80245 301.514 457.06)"/></g><g style="stroke-width:.739734"><path d="m0 0-.026-.014-1.178-1.818-1.008 1.414 1.648 2.555L.969 3.149l3.955-9.46-1.782-1.177z" style="fill:#fff;fill-opacity:1;fill-rule:nonzero;stroke:none;stroke-width:.739734" transform="matrix(1.80245 0 0 -1.80245 315.418 436.646)"/></g><g style="stroke-width:.739734"><path d="M0 0c-.718-.522-.678-1.8-.087-2.605.496-.663 1.19-.799 1.754-.395.482.367.705.902.693 1.348.012.145-.026.308-.117.511-.068.196-.25.485-.407.708C1.363.215.671.49.016.006Zm.985-7.779c.223.131.434.3.759.563a4.2 4.2 0 0 1 1.218 1.677c.327.81.393 1.668.224 2.475l-.053.006c-.091-.696-.562-1.321-1.1-1.73-1.285-.948-2.814-.714-3.785.597C-3.05-2.43-2.695.146-.861 1.505c1.792 1.321 3.536.72 4.728-.89 1.399-1.937 1.649-4.306 1.204-5.97-.355-1.285-1.218-2.504-2.28-3.358-.457-.383-.694-.546-.941-.695Z" style="fill:#fff;fill-opacity:1;fill-rule:nonzero;stroke:none;stroke-width:.739734" transform="matrix(1.80245 0 0 -1.80245 327.332 427.06)"/></g><g style="stroke-width:.739734"><path d="M0 0c-.68-.557-.588-1.82.04-2.6.524-.642 1.23-.748 1.766-.306.472.386.656.942.63 1.373 0 .144-.04.308-.146.512-.065.195-.259.476-.43.679C1.348.289.656.529.014.014Zm1.348-7.713c.235.144.42.315.733.588a4.4 4.4 0 0 1 1.152 1.742 4.2 4.2 0 0 1 .092 2.477l-.038.011c-.066-.7-.498-1.353-1.023-1.789-1.243-1.005-2.774-.842-3.811.428-1.373 1.688-1.15 4.281.616 5.723 1.728 1.415 3.498.883 4.768-.66 1.491-1.868 1.86-4.227 1.479-5.914-.275-1.284-1.1-2.554-2.107-3.457a7 7 0 0 0-.905-.733Z" style="fill:#fff;fill-opacity:1;fill-rule:nonzero;stroke:none;stroke-width:.739734" transform="matrix(1.80245 0 0 -1.80245 338.642 418.21)"/></g><g style="stroke-width:.739734"><path d="m0 0-2.657-2.356.679-1.493c.12.131.184.198.304.313.442.381 1.203.853 1.975.92.851.117 1.69-.225 2.318-.93 1.676-1.888 1.037-4.371-.863-6.058-.903-.805-1.834-1.263-2.332-1.29l-.759 1.715c.472.08 1.229.433 1.871.996.825.733 1.336 1.976.602 2.787-.588.67-1.437.786-2.892-.496a17 17 0 0 1-.879-.875l-2.394 4.85 4.046 3.594z" style="fill:#fff;fill-opacity:1;fill-rule:nonzero;stroke:none;stroke-width:.739734" transform="matrix(1.80245 0 0 -1.80245 354.124 405.633)"/></g><g style="stroke-width:.739734"><path d="M0 0c-.104 1.953-.249 4.89-.667 5.266-.339.299-2.566.117-4.531-.039 0 0-1.138-.094-1.178-.101C-23.2 4.079-40.099 7.22-56.305 12.113v-193.804a117.3 117.3 0 0 1 15.751 13.335c14.601 14.715 25.967 33.479 33.771 55.739C3.524-83.271 1.926-45.679.381-9.334z" style="fill:#ac2424;fill-opacity:1;fill-rule:nonzero;stroke:none;stroke-width:.739734" transform="matrix(1.80245 0 0 -1.80245 377.476 61.884)"/></g><g style="stroke-width:.739734"><path d="M0 0c.104 1.953.25 4.89.668 5.266.339.299 2.565.117 4.531-.039 0 0 1.138-.094 1.177-.101C23.2 4.079 40.1 7.22 56.305 12.113v-193.804a117.3 117.3 0 0 0-15.751 13.335c-14.601 14.715-25.967 33.479-33.771 55.739C-3.524-83.271-1.925-45.679-.379-9.334z" style="fill:#ac2424;fill-opacity:1;fill-rule:nonzero;stroke:none;stroke-width:.739734" transform="matrix(1.80245 0 0 -1.80245 32.938 61.884)"/></g><g style="stroke-width:.739734"><path d="M0 0c-7.804-22.26-19.17-41.024-33.771-55.74a117.4 117.4 0 0 0-15.751-13.335V124.73c16.206-4.894 33.105-8.034 49.928-6.987.04.007 1.178.1 1.178.1 1.966.157 4.192.339 4.531.04.419-.377.564-3.313.668-5.266l.381-9.335C8.708 66.938 10.307 29.345 0 0m-128.062-69.075a117.4 117.4 0 0 0-15.751 13.335C-158.414-41.024-169.78-22.26-177.584 0c-10.307 29.345-8.708 66.938-7.162 103.282l.379 9.335c.104 1.953.249 4.889.668 5.266.339.299 2.565.117 4.531-.04 0 0 1.138-.093 1.177-.1 16.824-1.047 33.723 2.093 49.929 6.987zM10.857 103.444l-.395 9.338c-.197 4.037-.313 6.473-1.911 7.877-1.517 1.332-3.562 1.164-7.265.862l-1.127-.092c-29.516-1.832-59.606 9.677-85.479 20.612l-.672.308c-1.239.571-2.009.837-2.798.821h-.004c-.789.016-1.559-.25-2.799-.821l-.672-.308c-25.873-10.935-55.962-22.444-85.478-20.612l-1.127.092c-3.703.302-5.748.47-7.265-.862-1.599-1.404-1.715-3.84-1.912-7.877l-.394-9.338c-1.557-36.702-3.168-74.649 7.375-104.662 7.987-22.789 19.64-42.008 34.633-57.117 15.018-15.15 32.659-25.429 52.429-30.574 2.232-.591 3.715-.886 5.21-.884h.004c1.495-.002 2.978.293 5.21.884 19.77 5.145 37.411 15.424 52.429 30.574C-16.158-43.226-4.505-24.007 3.482-1.218c10.542 30.013 8.932 67.96 7.375 104.662" style="fill:#000;fill-opacity:1;fill-rule:nonzero;stroke:none;stroke-width:.739734" transform="matrix(1.80245 0 0 -1.80245 365.25 264.87)"/></g><g style="stroke-width:.739734"><path d="M0 0v-4.545c.68.315 1.335.624 1.975.944A20.3 20.3 0 0 1 0 0m7.896-22.783q.392-.904.862-1.801c1.482-2.874 3.485-5.637 5.683-7.805a8 8 0 0 1-.352 1.92c-.589 1.949-1.886 3.835-3.64 5.538a22 22 0 0 1-2.553 2.148M3.127-43.867A19.3 19.3 0 0 0 0-39.709v-3.83c.522-.21 1.063-.432 1.938-.77.404.142.812.294 1.189.442m38.826 57.419c2.673-.523 5.33-1.198 7.908-1.937h.014c.446-.132.984-.295 1.546-.471 2.474-.786 5.749-1.82 7.854-1.324 1.666.394 2.607 1.957 1.666 5.931l-.514 2.174 1.77-1.374.198-.156h.013a7.8 7.8 0 0 0 1.4-1.454 7.7 7.7 0 0 0 .954-1.67c1.22-2.895.708-6.382-.914-9.08l-.013-.02a8.6 8.6 0 0 0-.813-1.144 11 11 0 0 0-.957-1.009C60.391.446 58.308-.55 56.855-1.075a6 6 0 0 1-1.61-.902c-1.193-.93-2.109-2.33-2.568-3.889-.456-1.557-.482-3.286.094-4.878a7.2 7.2 0 0 1 1.098-1.995l1.794-2.286-2.709 1.074c-5.725 2.277-6.078 5.695-6.367 8.485-.141 1.381-.261 2.571-1.201 3.123h-.014l-.146.092c-9.245 5.453-14.954 8.812-26.214 4.753 1.688-1.348 1.82-2.678.981-3.954-.72-1.09-2.29-2.037-4.11-2.874 1.415.187 2.882.333 4.413.411h.014l.078.006c1.911.084 3.876-.208 5.695-.49 1.742-.262 3.366-.512 4.544-.366 1.414.183 2.239 1.087 1.898 3.758l-.327 2.565L33.9-.394c2.187-2.507 3.182-4.767 3.066-6.99-.132-2.24-1.376-4.362-3.72-6.615a7 7 0 0 1-.578-.628c-.929-1.178-1.204-2.499-.955-3.837.264-1.412 1.127-2.873 2.448-4.235a15 15 0 0 1 1.535-1.38l2.394-1.9-3.012.499c-3.076.509-5.224 1.268-6.885 2.119.022-.312.036-.634.036-.955v-.007c0-4.603-2.344-9.224-5.956-13.427a56 56 0 0 1 5.629-2.562 58 58 0 0 1 6.536-2.137c9.204-2.424 17.978-2.595 24.747 2.989 2.173 1.795 3.184 2.483 5.617 5.885-.416-2.637-1.152-5.787-2.394-7.738-4.166-6.613-11.367-10.436-19.46-12.139-8.486-1.792-15.636-1.237-23.713.971-3.576.967-6.862 2.267-9.663 3.809v.006c-.185.1-.355.192-.51.289-2.975-1.703-6.026-3.122-8.984-4.176.498-2.789 1.506-5.021 2.985-6.985 1.611-2.173 3.81-4.065 6.495-6.076l2.005-1.507-2.49.084-.143.007h-.012a41 41 0 0 0-2.92.216c-.997.112-1.992.27-2.974.453-4.581.91-8.942 2.758-11.274 5.911l-.08-.125a8.9 8.9 0 0 0-1.872-1.938c-.719-.574-1.53-1.072-2.408-1.524-4.06-2.082-9.572-2.984-13.018-3l-2.88-.012 2.475 1.474c1.547.922 3.287 2.23 4.834 4.266 1.477 1.939 2.787 4.559 3.626 8.134-3.259 1.046-6.626 2.567-9.976 4.077-6.224 2.798-12.403 5.585-17.562 5.245a63 63 0 0 0-2.146-.118c-5.239-.261-8.368-.418-13.108-7.673l-1.689-2.553.236 3.052c.731 9.57 5.774 11.287 10.305 12.819 1.754.602 3.43 1.164 4.595 2.185 2.88 2.502 4.166 5.992 4.572 9.723.391 3.621-.04 7.472-.683 10.877-1.493.207-2.737.612-3.824 1.308-1.23.773-2.224 1.9-3.036 3.457l-1.074 2.044 2.095-.964c5.041-2.311 9.44 1.166 13.553 4.407 3.994 3.155 7.724 6.102 11.89 4.151l2.328-1.093-2.54-.402c-1.23-.19-2.238-.745-3.063-1.57-1.467-1.494-2.344-3.877-2.735-6.627-.407-2.827-.289-6.022.169-9.046.732-4.635 2.279-8.847 4.164-10.698l.209-.203c.026-.231.039-.466.039-.688.065-1.938-.901-2.619-2.265-3.064 2.869-.328 5.709-.978 8.539-1.808.379-.111.758-.235 1.124-.353v15.373a29 29 0 0 1-5.407-4.322l-2.095-2.127.759 2.881c1.31 4.943 3.772 8.477 6.807 11.16l-.037 18.424c-1.585-.429-3.248-.993-4.95-1.609v-.008c-3.038-1.097-6.273-2.454-9.532-3.827-14.234-5.973-28.913-12.141-34.243-.262l-.981 2.161L-65.052 0c10.304-5.761 21.106.99 30.992 7.163 5.289 3.313 10.646 6.528 16.617 8.452l-.013 1.786a27 27 0 0 0-5.499 1.208c-5.878 1.911-12.715 6.206-15.871 14.545l-1.006 2.671 2.236-1.78c11.512-9.165 22.758-5.585 35.329-1.584 1.834.59 3.68 1.166 5.528 1.703 1.611.471 3.313.955 5.053 1.415 9.165 2.434 20.519 4.765 29.2 4.399l.118-.008c4.648-.203 10.502-1.356 12.859-5.887l1.269-2.407-2.356 1.369c-1.596.928-3.692.987-5.591.439-1.872-.545-3.981-1.876-4.453-3.918-.234-.969-.05-2.067.682-3.251 1.965-3.164 3.627-7.118 2.645-10.898a8.3 8.3 0 0 0-.734-1.865M12.177 7.843c5.368 4.682 11.577 6.549 18.004 6.784 1.993.082 3.994 0 5.997-.202-.223 1.637-1.283 3.083-2.553 4.201-2.093 1.855-5.027 3.182-7.437 3.79h-.012c-2.816.695-5.723.918-8.617.841C10.371 23.085 3.378 21.096 0 19.61v-3.334c4.371-1.518 7.66-4.424 11.168-7.543Z" style="fill:#000;fill-opacity:1;fill-rule:nonzero;stroke:none;stroke-width:.739734" transform="matrix(1.80245 0 0 -1.80245 206.738 190.312)"/></g><g style="stroke-width:.739734"><path d="M0 0v-16.805c2.49-.839 4.949-1.808 7.397-2.803 2.318-.956 4.623-1.937 6.889-2.873v6.77c-.079.234-.143.464-.222.698-1.127 3.838-1.269 8.263-.513 13.24v.038l.105.644v.011l.12.641c.141.839.312 1.677.496 2.483-1.728.437-3.457.674-5.107.688-1.623.012-3.245-.342-4.778-.838A26 26 0 0 1 0 0m17.665-40.087c-1.573 2.108-2.673 4.47-3.222 7.412-1.455-.486-2.79-.852-4.06-1.088a23.7 23.7 0 0 0-4.451-.419c-1.507 0-3.287.223-4.977.597-.341.07-.668.148-.995.236l-.169.044c-.892-3.724-2.291-6.483-3.877-8.55a17.6 17.6 0 0 0-2.933-3.038c3.024.332 6.678 1.18 9.561 2.658.783.4 1.519.85 2.144 1.348.63.5 1.154 1.033 1.561 1.613q.353.507.588 1.084l.628 1.612.799-1.532c1.782-3.404 6.221-5.369 10.934-6.299a35 35 0 0 1 2.842-.437l.404-.039c-1.897 1.544-3.494 3.083-4.777 4.798m6.101 14.746c.799-.565 1.611-1.101 2.422-1.546 2.711-1.495 5.88-2.738 9.323-3.675 7.869-2.139 14.744-2.691 22.992-.943 7.832 1.651 15.478 5.612 19.344 12.991-7.898-7.745-17.418-7.831-27.945-5.067a59.5 59.5 0 0 0-12.647 4.922l-.014.007h-.014c-2.32 1.217-4.61 2.579-6.624 4.267l-.016.008v.006c-2.866 2.423-5.499 5.854-7.371 9.469a29 29 0 0 0-1.714 3.978c-1.156.688-2.097 1.22-3.038 1.651-.813.367-1.651.669-2.671.93a57 57 0 0 1-.682-3.666c-.734-4.76-.59-8.956.459-12.57 1.375-4.682 4.319-8.008 8.196-10.762m35.485 80.738c1.35.392 2.791.522 4.162.314-1.346 1.198-3.231 2.023-5.512 2.527-.667.152-1.373.275-2.132.366-.773.092-1.547.157-2.345.196h-.103c-8.486.354-19.682-1.937-28.73-4.347a184 184 0 0 1-5.015-1.401c-1.519-.445-2.972-.89-4.307-1.31l-.092-.025-1.089-.348C1.965 47.5-8.97 44.031-20.256 51.44c3.259-6.063 8.798-9.355 13.642-10.932a26 26 0 0 1 3.117-.81 24 24 0 0 1 2.685-.383l.066-.005.734-.046v-.739L.054 7.799c4.11 3.141 8.457 4.961 12.988 6.861l1.244.517v25.841l.443.204c3.302 1.566 10.883 3.817 18.675 4.013 1.503.04 3.035-.012 4.542-.144a30.5 30.5 0 0 0 4.48-.746h.013c2.62-.656 5.801-2.11 8.091-4.137 1.113-.984 2.032-2.111 2.579-3.354.565-1.285.748-2.699.368-4.19a7.5 7.5 0 0 0-.485-1.349l.235.144c2.121 1.323 3.341 2.946 3.799 4.755.483 1.831.208 3.902-.615 6.061-.459 1.18-1.075 2.384-1.834 3.602-.983 1.583-1.206 3.089-.889 4.453.287 1.23 1.032 2.322 2.041 3.195.968.842 2.201 1.49 3.522 1.872M20.284-24.65a54 54 0 0 0-2.227-.85l-.275-.092-.275.097c-3.456 1.35-7.072 2.94-10.712 4.426-7.213 2.953-14.692 5.611-22.153 5.611h-3.04c1.834 1.021 3.444 1.979 5.501 2.504 1.294.332 2.329.6 2.344 1.884-2.019 2.18-3.655 6.587-4.389 11.354-.496 3.179-.616 6.533-.183 9.51.433 3.06 1.441 5.757 3.169 7.511.353.36.748.679 1.154.956-2.475-.268-5.015-2.28-7.674-4.374-3.889-3.075-8.013-6.33-12.899-5.361 1.468-1.605 3.484-2.023 5.54-2.225l.117-.578c.72-3.661 1.244-7.896.812-11.909-.445-4.085-1.884-7.942-5.107-10.746-1.414-1.222-3.234-1.838-5.133-2.494-3.484-1.178-7.331-2.48-8.733-8.248 4.176 5.264 7.412 5.421 12.413 5.671.641.032 1.321.064 2.122.117 5.552.38 11.914-2.49 18.305-5.377 5.894-2.651 11.812-5.32 16.903-5.347h.08c4.846 0 11.312 2.146 17.481 5.591-.195.132-.392.261-.576.394a35 35 0 0 0-2.041 1.564l-.028-.014-.353.294zM-1.571 34.354c-5.657-1.898-10.752-4.976-15.793-8.131-9.532-5.959-19.903-12.435-30.246-8.318 5.591-7.435 18.464-2.04 30.968 3.211 3.233 1.362 6.456 2.711 9.584 3.849l.014.006v.008c1.899.68 3.731 1.284 5.485 1.748zM42.531-3.921h-.014c0 8.42-11.653 13.238-18.83 16.197l-1.336.55-1.688.694 1.662.753c.656.294 1.742.655 3.012 1.089 3.325 1.113 8.041 2.699 9.205 4.464.407.606.171 1.328-1.124 2.192-2.815 1.86-5.161 3.943-7.411 5.945-3.236 2.853-6.247 5.54-10.15 7.018V22.934c1.439-1.603 2.697-3.646 3.733-6.205l.275-.656-.63-.334a48 48 0 0 0-3.378-1.61l-.104-.047c-.971-.431-1.965-.834-2.984-1.268-.645-.262-1.3-.538-1.954-.813-3.862-1.675-7.57-3.508-11.05-6.454l-1.284-1.086v.019a20.2 20.2 0 0 1-4.334-6.515C-2.737.538.748 2.378 3.917 3.392c1.688.544 3.468.921 5.262.916 2.003-.013 4.096-.346 6.194-.936 1.504-.34 2.645-.719 3.745-1.216 1.088-.492 2.119-1.089 3.43-1.872L22.81.13V.125a25.6 25.6 0 0 0 4.608-3.521c1.928-1.888 3.367-4.002 4.046-6.208.381-1.238.527-2.496.393-3.757a31 31 0 0 1 2.805-2.01 45 45 0 0 1 2.067-1.219c3.522 4.003 5.802 8.374 5.802 12.669m3.574 37.382c-5.996-.233-11.771-1.937-16.802-6.205 1.3-1.061 2.66-2.185 4.087-3.241 12.571 4.879 18.593 1.33 28.506-4.509l.146-.093c1.634-.956 1.793-2.513 1.977-4.322.207-1.931.444-4.216 3.155-6.036l-.028.071c-.679 1.92-.666 3.988-.103 5.853.55 1.869 1.648 3.544 3.103 4.683.614.496 1.31.878 2.055 1.152 1.31.465 3.17 1.363 4.661 2.75.289.274.55.565.813.862.249.297.471.617.682.958v.012l.012.015c1.375 2.29 1.834 5.237.813 7.647a5.7 5.7 0 0 1-.434.837c.197-3.261-1.192-4.719-3.246-5.205-2.527-.601-6.023.506-8.682 1.342-.537.171-1.035.328-1.507.465h-.012c-2.749.793-5.579 1.506-8.432 2.037-.708-.878-1.637-1.69-2.815-2.416a18 18 0 0 0-3.039-1.487l-2.998-1.152 2.134 2.409c.969 1.108 1.557 2.161 1.807 3.163.013.065.025.137.04.204a44 44 0 0 1-5.893.206M33.9 14.738c-.51-.047-1.032-.111-1.557-.171a52 52 0 0 1-6.837-1.341C32.2 10.444 41.561 6.201 43.669-.924l.015-.004c1.504-.91 3.089-1.547 4.791-2.011C47.191-1.487 46.329.074 46.04 1.63c-.341 1.793.025 3.549 1.255 5.107.226.289.458.549.722.8 2.055 1.977 3.143 3.765 3.249 5.566.064 1.269-.355 2.596-1.284 4.031-.303-2.015-1.521-2.842-3.301-3.052-1.401-.183-3.117.073-4.963.356-1.258.197-2.592.403-3.889.471-1.309.063-2.619-.046-3.929-.171" style="fill:#fff;fill-opacity:1;fill-rule:nonzero;stroke:none;stroke-width:.739734" transform="matrix(1.80245 0 0 -1.80245 176.267 227.31)"/></g><g style="stroke-width:.739734"><path d="M0 0h-6.351l-4.373 9.551V3.076c0-.58.198-.968.522-1.153.186-.131.827-.194 1.728-.194V0h-.639c-1.663 0-2.763.247-3.275.767-.327-.323-.642-.52-.967-.584C-13.8.051-14.575 0-15.649 0h-.708v1.729c.435 0 .763.063 1.023.063.444 0 .827.131 1.022.185.129.131.261.519.261 1.099v4.872l-1.283 1.093 1.283 1.152v3.851c0 .64-.132 1.021-.456 1.151-.251.133-.893.197-1.85.197v1.728h6.666l4.098-9.617v6.541c0 .576-.116.962-.313 1.085-.261.199-.891.263-1.991.263v1.728h.707c1.088 0 1.86-.065 2.304-.191.329-.063.642-.254.971-.576.249.322.574.513.955.576.459.126 1.22.191 2.318.191H0v-1.728c-1.035 0-1.676-.064-1.86-.263-.263-.123-.328-.509-.328-1.085v-3.851l1.283-1.152-1.283-1.093V3.076c0-.648.133-1.034.382-1.153.325-.131.901-.131 1.806-.194Zm-22.524 4.616a6.7 6.7 0 0 0-.13-1.408c-.129-.712-.692-1.1-1.662-1.1-.955 0-1.547.388-1.743 1.1-.051.313-.051.758-.051 1.408v3.653l1.283 1.151-1.283 1.095v2.631c0 .7 0 1.153.051 1.407.196.775.788 1.16 1.743 1.16.97 0 1.533-.385 1.662-1.16.066-.254.13-.707.13-1.407v-2.631l-1.35-1.095 1.35-1.151zm6.103 4.804-1.427 1.095c-.249 2.5-1.074 4.368-2.487 5.649-1.153 1.087-2.502 1.663-3.981 1.663-1.086 0-2.055-.325-3.012-.898-1.991-1.216-3.207-3.397-3.536-6.414l-1.348-1.095 1.282-1.151c.134-2.888.971-5.134 2.57-6.672C-27.145.51-25.863 0-24.316 0c1.086 0 2.043.247 2.944.824 2.32 1.413 3.524 3.915 3.667 7.445zm-15.464-5.454c-.066-1.086-.839-2.106-2.316-2.945-1.284-.838-2.621-1.218-4.036-1.218s-2.5.322-3.208.964c-.51-.52-1.61-.767-3.273-.767H-46v1.729c.445 0 .772.063 1.021.063.524 0 .837.131 1.035.185.183.131.247.519.247 1.099v4.807l-1.216 1.158 1.216 1.087v3.916c0 .64-.13 1.021-.445 1.151-.261.133-.889.197-1.858.197v1.728h1.282c1.089 0 1.86-.065 2.372-.191.325-.123.638-.32.901-.576.642.644 1.794.962 3.393.962 1.349 0 2.695-.318 4.044-1.025q1.926-.866 1.926-3.086c0-.444-.248-.89-.772-1.21-.512-.386-1.088-.517-1.795-.517-.641 0-1.151.131-1.595.451-.459.386-.71.766-.71 1.276 0 .518.313 1.095.955 1.736-.506.32-1.086.452-1.66.452-.64 0-1.087-.132-1.284-.327-.261-.25-.393-.578-.393-1.088v-3.849h4.374l-.395-2.117h-3.979V3.457c0-.707.132-1.089.261-1.283.198-.314.512-.445 1.023-.445.59 0 1.23.248 1.74.699-.457.516-.642 1.029-.642 1.538 0 .524.185.97.642 1.284q.67.577 1.728.576c.839 0 1.547-.246 2.123-.765.379-.388.576-.765.576-1.095M-47.795 0h-1.216c-1.677 0-2.699.247-3.21.767-.524-.52-1.61-.767-3.273-.767h-.458v1.729c.708.063 1.1.194 1.284.379.129.194.263.516.263.968v4.935h-3.59V3.076c0-.452.066-.774.249-.968.132-.185.588-.316 1.23-.379V0h-.457c-1.598 0-2.685.247-3.209.767C-60.694.247-61.78 0-63.455 0h-1.218v1.729c.393 0 .774.063 1.033.063.448 0 .827.131.958.185.196.131.326.519.326 1.099v4.807l-1.284 1.158 1.284 1.087v3.916c0 .64-.13 1.021-.457 1.151-.249.133-.905.197-1.86.197v1.728h1.218c1.675 0 2.761-.254 3.273-.767.524.513 1.611.767 3.209.767h.457v-1.728c-.642-.064-1.098-.197-1.23-.386-.183-.123-.249-.453-.249-.962v-3.916h3.59v3.916c0 .509-.134.839-.263 1.021-.184.13-.576.263-1.284.327v1.728h.458c1.663 0 2.749-.254 3.273-.767.511.513 1.533.767 3.21.767h1.216v-1.728c-1.033 0-1.675-.064-1.926-.263-.259-.123-.313-.509-.313-1.085v-3.916l1.206-1.087-1.206-1.158V3.076c0-.58.054-.968.313-1.099.251-.117.893-.185 1.926-.248zm-25.024 3.906c0-1.342.512-1.983 1.664-1.983.525 0 .967.185 1.284.573-.511.58-.759 1.156-.759 1.6 0 .52.183.899.641 1.219.445.393 1.023.511 1.664.511.706 0 1.283-.118 1.793-.511.51-.32.771-.765.771-1.283 0-.956-.706-1.924-2.055-2.888C-68.902.379-69.871 0-70.828 0c-2.121 0-3.719.693-4.872 2.174-1.23 1.669-1.871 3.652-1.923 6.028l-1.232 1.093 1.35 1.147c.26 1.806.904 3.346 1.743 4.564 1.215 1.669 2.813 2.567 4.934 2.567.957 0 1.926-.39 3.012-1.16 1.349-.956 2.055-1.992 2.055-2.945 0-.513-.261-.906-.771-1.284a3.25 3.25 0 0 0-1.793-.512 2.83 2.83 0 0 0-1.664.512c-.458.378-.641.771-.641 1.284 0 .446.248.953.759 1.597-.317.392-.759.582-1.284.582-1.152 0-1.664-.707-1.664-2.047v-3.158l1.285-1.147-1.285-1.093zM-79.3 15.713c-.773 0-1.283-.131-1.479-.256-.185-.197-.312-.517-.312-1.036v-3.906l1.281-1.095-1.281-1.151V5.126c0-2.246-.71-3.66-2.189-4.359C-84.301.247-85.584 0-87.063 0c-2.109 0-3.654.444-4.741 1.343-.839.699-1.217 1.923-1.217 3.718v3.208l-1.284 1.151 1.284 1.095v3.906c0 .519-.132.907-.315 1.036-.198.19-.784.256-1.743.256v1.733h.959c1.675 0 2.761-.195 3.283-.705.249.256.576.442.959.574.444.068 1.216.131 2.302.131h.708v-1.733c-.379 0-.64 0-.838-.066-.38-.065-.641-.124-.761-.319-.129-.133-.195-.445-.195-.907v-3.906l1.284-1.095-1.284-1.151V4.032c0-1.282.707-1.924 2.057-1.924 1.399 0 2.121.642 2.121 1.924v4.237l-1.232 1.151 1.232 1.022v3.922c0 .576-.08.896-.327 1.093-.197.125-.708.256-1.481.256v1.733h.51c1.415 0 2.438-.195 2.96-.705.51.51 1.531.705 3.012.705h.51zm-20.78-11.681v1.48c0 1.089-.195 1.729-.456 1.991-.515.314-1.22.508-2.241.508h-.263V3.012c0-.838.513-1.283 1.415-1.283.706 0 1.165.194 1.35.573.129.322.195.906.195 1.73m0 8.085v1.415c0 .832-.131 1.283-.263 1.533-.193.195-.576.327-1.216.327-.642 0-1.036-.132-1.152-.327-.197-.182-.329-.512-.329-.957v-3.98h.329c1.086 0 1.858.13 2.119.314.317.26.512.778.512 1.675m4.545-7.056c0-1.604-.694-2.953-2.174-3.975-1.153-.839-2.566-1.283-4.245-1.283-1.464 0-2.565.322-3.258.964-.527-.52-1.613-.767-3.275-.767h-1.217v1.729c.445 0 .774.063 1.021.063.511 0 .837.131 1.033.185.119.131.249.519.249 1.099v4.872l-1.282 1.093 1.282 1.152v3.851c0 .64-.13 1.021-.445 1.151-.326.133-.891.197-1.858.197v1.728h1.217q1.63-.001 2.318-.191c.38-.063.693-.254.957-.576.693.644 1.794.962 3.404.962 2.173 0 3.835-.574 4.935-1.733.84-.832 1.218-1.736 1.218-2.822 0-1.482-.837-2.632-2.565-3.523 1.792-.772 2.685-2.179 2.685-4.176" style="fill:#fff;fill-opacity:1;fill-rule:nonzero;stroke:none;stroke-width:.739734" transform="matrix(1.80245 0 0 -1.80245 304.071 96.4)"/></g><g style="stroke-width:.739734"><path d="m0 0 .538 3.09c2.46 1.31 4.361 2.816 5.709 4.551h1.716L4.899-10.174H2.043L4.152 2.103A11 11 0 0 0 2.123.839C1.335.445.63.171 0 0" style="fill:#fff;fill-opacity:1;fill-rule:nonzero;stroke:none;stroke-width:.739734" transform="matrix(1.80245 0 0 -1.80245 166.258 338.106)"/></g><g style="stroke-width:.739734"><path d="M0 0c0 .942-.158 1.622-.46 2.069-.3.431-.678.649-1.125.649-.55 0-1.034-.318-1.427-.952-.524-.852-.785-1.976-.785-3.39 0-.918.143-1.599.43-2.03.304-.445.656-.665 1.089-.665q.509.001 1.034.457c.353.285.642.791.877 1.487C-.118-1.677 0-.877 0 0m-7.293-8.172 2.657.263c.065-.701.197-1.191.42-1.467.221-.275.525-.419.903-.419q.844.002 1.493.98c.433.656.786 1.639 1.06 2.934-.615-.484-1.257-.72-1.937-.72-1.112 0-2.031.459-2.762 1.364-.734.918-1.101 2.199-1.101 3.834q0 2.753 1.414 4.833c.942 1.387 2.174 2.074 3.679 2.074.799 0 1.493-.228 2.121-.691.643-.465 1.14-1.172 1.518-2.134.37-.966.553-2.262.553-3.898 0-3.34-.59-6.075-1.794-8.17-1.206-2.115-2.699-3.168-4.481-3.168-1.06 0-1.935.379-2.605 1.132-.68.758-1.061 1.839-1.138 3.253" style="fill:#fff;fill-opacity:1;fill-rule:nonzero;stroke:none;stroke-width:.739734" transform="matrix(1.80245 0 0 -1.80245 197.792 334.352)"/></g><g style="stroke-width:.739734"><path d="M0 0c0 .942-.146 1.622-.447 2.069q-.455.648-1.124.649c-.552 0-1.036-.318-1.427-.952-.538-.852-.801-1.976-.801-3.39 0-.918.159-1.599.444-2.03.303-.445.656-.665 1.077-.665.35 0 .691.154 1.046.457.353.285.642.791.877 1.487C-.106-1.677 0-.877 0 0m-7.284-8.172 2.674.263c.051-.701.183-1.191.406-1.467.224-.275.524-.419.903-.419q.842.002 1.493.98c.431.656.786 1.639 1.058 2.934-.611-.484-1.255-.72-1.935-.72-1.114 0-2.029.459-2.763 1.364-.733.918-1.102 2.199-1.102 3.834 0 1.835.474 3.446 1.403 4.833.943 1.387 2.187 2.074 3.694 2.074.783 0 1.505-.228 2.133-.691.628-.465 1.128-1.172 1.507-2.134.366-.966.562-2.262.562-3.898 0-3.34-.603-6.075-1.808-8.17-1.202-2.115-2.683-3.168-4.477-3.168-1.063 0-1.938.379-2.605 1.132-.682.758-1.063 1.839-1.143 3.253" style="fill:#fff;fill-opacity:1;fill-rule:nonzero;stroke:none;stroke-width:.739734" transform="matrix(1.80245 0 0 -1.80245 218.092 334.352)"/></g><g style="stroke-width:.739734"><path d="m0 0 2.763.313-.014-.368c0-.836.157-1.452.46-1.865.299-.414.694-.608 1.138-.608.682 0 1.296.385 1.86 1.178.548.78.825 1.86.825 3.26 0 .839-.157 1.459-.472 1.872-.313.419-.706.622-1.192.622-.379 0-.747-.105-1.086-.307-.355-.21-.694-.524-1.009-.949l-2.344.221 2.2 9.025h7.32l-.536-3.163H5.079l-.666-2.738q.412.236.825.355.43.117.824.118c1.086 0 1.991-.445 2.724-1.344.722-.89 1.087-2.12 1.087-3.685a8.8 8.8 0 0 0-.824-3.791C8.5-3.033 7.79-3.91 6.94-4.5q-1.277-.871-2.672-.869c-1.218 0-2.211.475-3.037 1.433C.418-2.974.012-1.664 0 0" style="fill:#fff;fill-opacity:1;fill-rule:nonzero;stroke:none;stroke-width:.739734" transform="matrix(1.80245 0 0 -1.80245 225.288 347.308)"/></g><path d="m347.023 973.285-.031.046a11.5 11.5 0 0 1-1.181 1.447q-.632.653-1.343 1.178c-2.403 1.78-5.42 2.465-8.579 2.3-.152-.145-.304-.299-.45-.452v-.001a11.166 11.166 0 0 1-2.155-3.318q.711.144 1.389.193.85.066 1.658-.01c2.73-.256 5.06-1.698 6.988-4.103.69.069 1.959.243 2.901.658.9.4 1.484 1.04.803 2.062m-1.84-12.124.037.002c.564.045 1.114.128 1.645.24q.797.169 1.556.44c2.568.918 4.707 2.69 6.129 5.213l.006.02q.085.3.151.597a11.554 11.554 0 0 1 .238 3.123c-1.276-1.927-2.738-3.406-4.442-4.435-1.85-1.115-3.98-1.698-6.464-1.746h-.007a1 1 0 0 1-.246-.056v-.001a1.56 1.56 0 0 1-.66-.447 1.23 1.23 0 0 1-.297-.906 1.9 1.9 0 0 1 .112-.528l.013-.035q.116-.307.265-.54c.098-.155.21-.287.321-.4.57-.565 1.276-.631 1.608-.547l.02.004h.016m6.924 1.416a18 18 0 0 0-.49-.359c-1.837-1.264-3.982-1.97-6.399-2.145h-.01l-.19-.03h-.002c-.137-.02-.279-.041-.395-.075-.214-.06-.368-.182-.281-.498l.002-.004c.063-.26.198-.42.392-.495.217-.083.519-.078.886-.002l.007.001.017.001a11.272 11.272 0 0 1 6.462 3.606m-7.95 3.147h.124q.964.037 1.885.21a12 12 0 0 1 1.78.482c2.903 1.031 5.288 3.168 6.76 6.08q-.043.194-.091.394c-.038.147-.081.298-.122.443-.2.668-.46 1.316-.773 1.927l-.049-.039a8.416 8.416 0 0 0-1.603-1.021 9 9 0 0 0-.734-.966 10 10 0 0 0-.882-.88c-1.601-1.397-3.67-2.28-5.756-2.695v.002c-.36-.078-.695-.177-.982-.443-.3-.274-.565-.733-.784-1.531v-.002c-.1-.336-.13-.622-.11-.862.024-.31.132-.542.283-.71a1.2 1.2 0 0 1 .556-.339c.166-.048.337-.063.488-.051h.01m-9.524 6.468-.02-.037a8 8 0 0 1-.51-1.131 9 9 0 0 1-.326-1.177c-.413-2.045-.089-4.217.628-6.191l.004-.011a11 11 0 0 1 .951-1.189 11.2 11.2 0 0 1 2.626-2.114 13.756 13.756 0 0 0-1.057 2.576c-.838 2.818-.702 5.807.918 8.266.385.573.586 1.057.526 1.425-.057.34-.364.603-.997.776h-.006l-.02.008c-.405.171-.87.262-1.332.12-.47-.146-.952-.535-1.386-1.323m-2.118-3.762c.07 1.512.446 3.002 1.184 4.331.088.182.144.361.146.503a.3.3 0 0 1-.026.148.09.09 0 0 1-.06.036h-.002a.5.5 0 0 1-.226-.031l-.007-.001-.016-.002a.97.97 0 0 1-.573-.323v-.001c-.145-.173-.243-.415-.304-.718v-.003l-.01-.04v-.002a10.436 10.436 0 0 1-.216-1.648c-.041-.749-.001-1.504.11-2.246m6.378 2.341h-.002a7.5 7.5 0 0 1-.844-1.545 7.3 7.3 0 0 1-.44-1.604c-.441-2.776.66-5.706 2.16-8.129q.246-.088.489-.167.274-.086.547-.157c.848-.223 1.72-.349 2.6-.371-.068.202-.13.398-.182.597a7 7 0 0 0-.178.875c-.999 1.381-1.47 2.677-1.59 3.974-.12 1.302.111 2.597.509 3.976l.132.47h.001c.318 1.099.38 1.312-.488 2.165v.001q-.143.143-.278.252c-.378.304-.757.46-1.125.453-.365-.01-.73-.183-1.085-.538a3 3 0 0 1-.226-.252m7.718 10.229q.945-.484 1.771-1.15c1.073-.864 2.011-1.952 2.847-3.238.31-.475.573-.742.811-.853.2-.095.39-.068.573.034l.076.05v.002c.133.103.208.24.222.395.016.172-.035.37-.165.582a2 2 0 0 1-.133.188l-.021.028c-.262.34-.549.664-.848.973v.001q-.453.46-.955.866a11.3 11.3 0 0 1-4.178 2.12m3.55-4.758-.027.042v-.001q-.452.67-.96 1.255c-.34.39-.7.754-1.076 1.084-1.925 1.688-4.341 2.592-7.129 2.424a11 11 0 0 1-.639-.174 10 10 0 0 1-.626-.21 11.2 11.2 0 0 1-2.429-1.272q.75-.017 1.472-.098a15 15 0 0 0 1.813-.321c2.991-.732 5.554-2.414 7.353-5.053l.004-.007c.265-.425.568-.747.925-.84.348-.092.775.034 1.31.495l.012.007.051.039c.314.25.465.663.465 1.12h-.002c0 .477-.16.998-.463 1.436l-.048.067z" style="fill:#bc7a10;fill-opacity:1;fill-rule:evenodd;stroke:none;stroke-width:.739731" transform="matrix(1.80245 0 0 -1.80245 -414.863 2136.303)"/></g></svg>