<svg xmlns="http://www.w3.org/2000/svg" xmlns:xlink="http://www.w3.org/1999/xlink" width="45.396503mm" height="51.934181mm" viewBox="0 0 45.396504 51.934181"><defs><linearGradient id="b" x1="0" x2="1" y1="0" y2="0" gradientTransform="scale(96.2245 -96.2245) rotate(39.416 7.08 4.242)" gradientUnits="userSpaceOnUse" spreadMethod="pad"><stop offset="0" style="stop-opacity:0;stop-color:#454545"/><stop offset="1" style="stop-opacity:.52933985;stop-color:#000"/></linearGradient><linearGradient id="a" x1="0" x2="1" y1="0" y2="0" gradientTransform="scale(96.2245 -96.2245) rotate(39.416 7.08 4.242)" gradientUnits="userSpaceOnUse" spreadMethod="pad"><stop offset="0" style="stop-opacity:1;stop-color:#fff"/><stop offset="1" style="stop-opacity:1;stop-color:#231f20"/></linearGradient><linearGradient xlink:href="#a" id="c" x1="0" x2="1" y1="0" y2="0" gradientTransform="scale(96.2245 -96.2245) rotate(39.416 7.08 4.242)" gradientUnits="userSpaceOnUse" spreadMethod="pad"/><linearGradient xlink:href="#b" id="e" x1="0" x2="1" y1="0" y2="0" gradientTransform="scale(96.2245 -96.2245) rotate(39.416 7.08 4.242)" gradientUnits="userSpaceOnUse" spreadMethod="pad"/><clipPath id="d" clipPathUnits="userSpaceOnUse"><path d="M0 595.276h841.89V0H0Z"/></clipPath></defs><path d="m354.1 386.982-4.533-.992.058-4.637c.019-1.528.47-37.44 1.403-46.152.499-4.554 1.21-9.005 2.185-13.616 7.331-34.472 28.092-60.607 58.455-73.597l2.244-.96 2.24.96c30.37 13.015 51.122 39.149 58.439 73.588a133.913 133.913 0 0 1 2.19 13.622c.935 8.713 1.394 44.627 1.412 46.155l.057 4.645-4.541.989c-1.368.294-33.775 7.256-59.993 7.256-26.214 0-58.265-6.962-59.616-7.261" style="display:inline;fill:url(#c);stroke:none" transform="matrix(.35278 0 0 -.35278 -123.32 139.08)"/><g clip-path="url(#d)" transform="matrix(.35278 0 0 -.35278 -123.32 139.08)"><path d="m0 0-1.914-.42.023-1.96c.019-1.519.472-37.282 1.386-45.839a132.92 132.92 0 0 1 2.134-13.289c9.581-45.056 39.529-63.98 56.53-71.251l.946-.405.948.405c29.36 12.572 49.434 37.874 56.523 71.249.952 4.474 1.65 8.82 2.135 13.287.918 8.561 1.375 44.324 1.393 45.842l.026 1.966-1.922.417c-.331.072-33.429 7.187-59.294 7.187C33.05 7.189.328.073 0 0" style="fill:#939598;fill-opacity:1;fill-rule:nonzero;stroke:none" transform="translate(354.802 383.772)"/><path d="M0 0s-.465-37.07-1.381-45.613a129 129 0 0 0-2.097-13.046c-10.718-50.466-47.732-66.376-55.115-69.536-7.391 3.16-44.391 19.07-55.121 69.536a131.593 131.593 0 0 0-2.096 13.046C-116.723-37.07-117.182 0-117.182 0s32.496 7.133 58.397 7.133C-32.878 7.133 0 0 0 0Z" style="fill:none;stroke:#fff;stroke-width:2.067;stroke-linecap:butt;stroke-linejoin:miter;stroke-miterlimit:4;stroke-dasharray:none;stroke-opacity:1" transform="translate(472.5 381.422)"/><path d="m0 0-29.58-2.017-29.009-4.948s.459-29.43 1.372-37.979c.502-4.594-.137-4.233.732-8.362H0Z" style="fill:#ee3123;fill-opacity:1;fill-rule:nonzero;stroke:none" transform="translate(413.908 388.387)"/><path d="M0 0h56.478c.877 4.119.235 3.767.733 8.362.917 8.548 1.382 37.978 1.382 37.978l-29.179 4.949L0 53.306Z" style="fill:#fff;fill-opacity:1;fill-rule:nonzero;stroke:none" transform="translate(413.908 335.081)"/><path d="M0 0v-81.855C7.383-78.694 52.214-58.113 56.478 0Z" style="fill:#ee3123;fill-opacity:1;fill-rule:nonzero;stroke:none" transform="translate(413.908 335.081)"/><path d="M0 0h-56.71C-53.315-55.85-7.391-78.694 0-81.855Z" style="fill:#fff;fill-opacity:1;fill-rule:nonzero;stroke:none" transform="translate(413.908 335.081)"/><path d="M0 0a128.22 128.22 0 0 0-2.087-12.995C-8.956-45.337-28.35-69.854-56.701-82.071c-16.513 7.111-45.347 25.488-54.615 69.076A130.634 130.634 0 0 0-113.403 0c-.85 7.958-1.312 41.196-1.364 45.142 3.796.807 33.864 7.032 57.876 7.032 24.031 0 54.45-6.232 58.264-7.034m-116.772.921-.41-.09.005-.42c.005-.371.47-37.192 1.375-45.661a131.711 131.711 0 0 1 2.104-13.099c9.401-44.219 38.761-62.776 55.423-69.903l.203-.086.203.086c28.779 12.321 48.46 37.146 55.417 69.903A129.042 129.042 0 0 1 1.025-.111c.91 8.47 1.38 45.291 1.385 45.662l.006.421-.413.089c-.329.071-33.229 7.145-58.894 7.145-25.66 0-58.182-7.074-58.508-7.145" style="fill:#c8a133;fill-opacity:1;fill-rule:nonzero;stroke:none" transform="translate(470.606 335.865)"/><path d="M0 0h-5.35v-3.247A5.348 5.348 0 0 0 0-8.597v-13.346a5.35 5.35 0 0 0-5.35-5.343v-3.247H10.704v3.247a5.352 5.352 0 0 0-5.352 5.351v13.338a5.35 5.35 0 0 0 5.352 5.35V0H5.352Z" style="fill:#fff;fill-opacity:1;fill-rule:nonzero;stroke:none" transform="translate(383.577 375.298)"/></g><path d="m354.1 386.982-4.533-.992.058-4.638c.019-1.527.471-37.438 1.403-46.151a137.94 137.94 0 0 1 2.185-13.616c7.331-34.473 28.092-60.606 58.455-73.598l2.244-.958 2.24.958c30.37 13.016 51.122 39.15 58.439 73.589.98 4.604 1.696 9.055 2.19 13.621.935 8.713 1.394 44.628 1.411 46.155l.058 4.647-4.542.988c-1.368.293-33.775 7.256-59.992 7.256-26.214 0-58.265-6.963-59.616-7.261" style="opacity:1;fill:url(#e);fill-opacity:1;stroke:none" transform="matrix(.35278 0 0 -.35278 -123.32 139.08)"/></svg>