<svg xmlns="http://www.w3.org/2000/svg" xml:space="preserve" width="264.583mm" height="378.962mm" viewBox="0 0 264.583 378.962"><defs><clipPath id="a" clipPathUnits="userSpaceOnUse"><path d="M0 223.333h161.667V0H0Z"/></clipPath></defs><g clip-path="url(#a)" transform="matrix(2.66683 0 0 -2.66683 -86.135 534.425)"><path d="M0 0v69.31s-19.443 7.129-49.593 7.129c-30.151 0-49.594-7.129-49.594-7.129V0c0-13.32-1.111-27.513 17.374-45.39 15.607-15.093 32.22-20.273 32.22-20.273s16.612 5.18 32.219 20.273C1.111-27.513 0-13.32 0 0" style="fill:#fff;fill-opacity:1;fill-rule:nonzero;stroke:none" transform="translate(131.498 123.958)"/><path d="M0 0c-4.507 1.807-16.141 7.141-27.055 17.696-15.211 14.71-15.164 25.436-15.11 37.855l.007 40.9c7.204 1.917 22.292 5.182 42.143 5.182 19.853 0 34.941-3.265 42.166-5.212l-.016-40.869c.055-12.419.103-23.144-15.11-37.856C16.016 7.049 4.467 1.776 0 0" style="fill:#5fb4e5;fill-opacity:1;fill-rule:nonzero;stroke:none" transform="translate(81.92 66.228)"/><path d="M0 0c0 10.333 7.122 18.974 16.719 21.355C5.582 40.489-1.125 62.517-1.984 86.043a177.15 177.15 0 0 1-6.1.466c-.163-20.768-3.864-40.692-10.539-59.198-6.674 18.505-10.376 38.429-10.538 59.197-2.11-.124-4.141-.283-6.1-.466-.86-23.526-7.566-45.553-18.704-64.687 9.597-2.381 16.72-11.022 16.72-21.355 0-1.369-.143-2.704-.381-4.004a89.52 89.52 0 0 1 2.852-2.055c7.002-4.826 13.164-7.602 16.158-8.803l.009-.004.009.004c2.974 1.183 9.112 3.935 16.135 8.79A90.16 90.16 0 0 1 .383-4.016 22.137 22.137 0 0 0 0 0" style="fill:#fff;fill-opacity:1;fill-rule:nonzero;stroke:none" transform="translate(100.528 81.069)"/><path d="M0 0c-2.834-.575-5.125.993-5.13 3.601l-.011 8.538c1.87.441 3.744.85 5.624 1.227l-.003 2.97a169.633 169.633 0 0 1-8.83-2.018l.015-11.506c.007-4.248 3.726-6.717 8.338-5.781l.497.1L.497.1A48.58 48.58 0 0 1 0 0" style="fill:#231916;fill-opacity:1;fill-rule:nonzero;stroke:none" transform="translate(48.095 171.827)"/><path d="M0 0c0-1.411-.714-2.76-1.92-3.664-1.205.885-1.918 2.223-1.919 3.633l-.001 9.488a169.6 169.6 0 0 0 3.841.031L0 0m-7.117 12.331.002-12.457c.002-2.053.884-3.945 2.487-5.36a8.593 8.593 0 0 1 2.5-1.531l.208-.085.21.088A8.777 8.777 0 0 1 .789-5.442c1.606 1.441 2.487 3.347 2.487 5.4l.002 12.458c-3.465.078-6.931.05-10.395-.085" style="fill:#231916;fill-opacity:1;fill-rule:nonzero;stroke:none" transform="translate(82.445 179.012)"/><path d="M0 0c-1.269.199-2.539.383-3.809.553l.001 2.293A3.924 3.924 0 0 0-1.899 6.24C-.703 5.171.005 3.703.002 2.294L0 0m-1.689 9.561-.207.117-.208-.056a6.945 6.945 0 0 1-2.485-1.235C-6.185 7.136-7.066 5.3-7.067 3.25l-.008-12.475c1.087-.124 2.173-.258 3.257-.403.003 2.403.005 4.807.005 7.211a163.26 163.26 0 0 0 3.81-.553l-.006-7.211c1.082-.169 2.163-.349 3.242-.54l.012 12.474c.003 2.051-.868 4.142-2.456 5.854a10.164 10.164 0 0 1-2.478 1.954" style="fill:#231916;fill-opacity:1;fill-rule:nonzero;stroke:none" transform="translate(108.142 180.36)"/><path d="m0 0 .006-7.941c-1.27-.18-2.539-.375-3.806-.584l-.007 7.941a168.84 168.84 0 0 1-3.241-.568l.02-19.289c1.078.2 2.156.389 3.238.568l-.007 8.379c1.266.209 2.535.403 3.805.583l.007-8.379c1.083.154 2.168.297 3.254.429L3.256.43A170.559 170.559 0 0 1 0 0" style="fill:#231916;fill-opacity:1;fill-rule:nonzero;stroke:none" transform="translate(58.102 189.834)"/><path d="M0 0c-2.873-.161-5.206 1.745-5.207 4.353l-.001.64c1.903.167 3.807.301 5.712.403l-.001 2.97c-1.905-.102-3.81-.236-5.712-.403l-.003 4.929c1.903.166 3.808.3 5.713.403L.5 16.264c-2.997-.16-5.991-.4-8.979-.721l.007-11.508C-8.47-.212-4.678-3.231.002-2.97l.504.028L.505.028A80.914 80.914 0 0 1 0 0" style="fill:#231916;fill-opacity:1;fill-rule:nonzero;stroke:none" transform="translate(72.333 174.964)"/><path d="M0 0a76.095 76.095 0 0 1-3.779 8.866s-2.235.116-3.327.157l-.004-19.291c1.091-.041 2.182-.092 3.273-.153l.004 12.27C-1.847-3.173-.088-7.791.56-10.724c.902-.076 1.802-.159 2.701-.249.002 6.43.006 12.86.01 19.29-1.088.108-2.177.205-3.267.292L0 0" style="fill:#231916;fill-opacity:1;fill-rule:nonzero;stroke:none" transform="translate(95.32 182.373)"/><path d="m0 0-.011-8.607A88.351 88.351 0 0 1-3.72.834a168.36 168.36 0 0 1-3.279.663c-.008-6.429-.014-12.859-.02-19.289a164.4 164.4 0 0 0 3.226-.651l.014 12.269C-1.827-11.5-.603-16.269.031-19.297c1.051-.25 2.101-.51 3.148-.78L3.205-.79C2.139-.516 1.07-.253 0 0" style="fill:#231916;fill-opacity:1;fill-rule:nonzero;stroke:none" transform="translate(120.86 186.977)"/><path d="M0 0c4.16 5.316-.191 9.412-1.21 10.293.226-2.024-.239-4.506-3.426-7.782-4.43-4.555-7.837-7.314-8.619-12.241-.178-1.126-.952-5.825 2.83-10.44-.131.396-1.016 2.959.404 7.479C-8.313-7.254-3.029-3.87 0 0" style="fill:#5fb4e5;fill-opacity:1;fill-rule:nonzero;stroke:none" transform="translate(82.487 92.37)"/><path d="M0 0c-.219-1.93-1.248-3.721-2.675-5.326-3.999-4.496-7.055-6.634-8.389-9.332-1.582-3.203-.585-4.244-.454-4.32.191-.012 2.174-.069 4.053.576C-2.877-16.826.42-13.279 1.34-8.449 2.155-4.176.442-.776 0 0" style="fill:#231916;fill-opacity:1;fill-rule:nonzero;stroke:none" transform="translate(93.206 86.54)"/><path d="M0 0c1.748 4.727 7.002 8.127 10.642 13.202 3.442 4.799-.2 8.412-.988 9.191-.222-2.507-2.047-5.235-4.319-7.739C3.063 12.15-.852 8.956-2.413 5.413-6.237-3.267.606-4.615.606-4.615S-1.121-3.032 0 0" style="fill:#231916;fill-opacity:1;fill-rule:nonzero;stroke:none" transform="translate(78.152 72.582)"/><path d="M0 0c0 11.998-9.592 21.736-21.522 22.014 1.947-5.89 5.731-12.069 13.084-19.18A84.65 84.65 0 0 1-.384-4.025C-.143-2.718 0-1.377 0 0" style="fill:#231916;fill-opacity:1;fill-rule:nonzero;stroke:none" transform="translate(63.282 81.069)"/><path d="M0 0c0-1.38.143-2.726.386-4.035a85.58 85.58 0 0 1 8.052 6.869c7.353 7.111 11.138 13.29 13.085 19.18C9.592 21.737 0 11.998 0 0" style="fill:#231916;fill-opacity:1;fill-rule:nonzero;stroke:none" transform="translate(100.528 81.069)"/></g></svg>