<svg xmlns="http://www.w3.org/2000/svg" width="765.9273681640625px" height="889.4181518554688px" x="0px" y="0px" style="enable-background:new 0 0 1400 980" viewBox="0 0 765.9273681640625 889.4181518554688"><defs><clipPath id="a" clipPathUnits="userSpaceOnUse"><path d="M0 500h500V0H0Z"/></clipPath></defs><path fill="none" d="M0 0h765.927v889.418H0z" style="fill:#070b32;fill-opacity:0;pointer-events:none"/><g clip-path="url(#a)" transform="matrix(9.72519 0 0 -9.72519 -893.203 2008.33)"><path d="M0 0c-35.963-6.315-71.337 0-71.337 0-1.915-15.954-11.634-26.709-26.229-29.111 4.014-44.802 25.252-90.018 61.897-113.35h.001C.977-119.129 22.215-73.913 26.229-29.111 11.634-26.709 1.915-15.954 0 0" style="fill:#f5cf2c;fill-opacity:1;fill-rule:nonzero;stroke:none" transform="translate(168.645 413.666)"/><path d="M0 0c-2.6.26-4.844.526-6.67.765l-6.138-3.375c-.011-.048-.028-.092-.039-.14a38.395 38.395 0 0 0-1.536-5.173z" style="fill:#ffdf23;fill-opacity:1;fill-rule:nonzero;stroke:none" transform="translate(109.394 412.102)"/><path d="M0 0a228.684 228.684 0 0 0-8.453-.216l-2.779-1.528-2.829 1.555c-3.01.05-5.88.154-8.592.292l11.421-6.279z" style="fill:#ffdf23;fill-opacity:1;fill-rule:nonzero;stroke:none" transform="translate(144.215 411.083)"/><path d="m0 0-.073.169c-.09.262-.145.551-.229.816a39.323 39.323 0 0 0-.67 2.39c-.081.328-.195.63-.27.963l-5.999 3.299c-2.205-.315-4.4-.586-6.578-.816L.382-.995C.256-.662.117-.34 0 0" style="fill:#ffdf23;fill-opacity:1;fill-rule:nonzero;stroke:none" transform="translate(170.553 405.19)"/><path d="m0 0-3.513-1.932c.918-.98 1.852-1.944 2.799-2.892L0-4.432l12.957-7.123v-4.95a107.552 107.552 0 0 1 4.029-2.786v9.952z" style="fill:#ffdf23;fill-opacity:1;fill-rule:nonzero;stroke:none" transform="translate(114.637 291.394)"/><path d="M0 0v-9.94c1.365.898 2.709 1.827 4.031 2.787v4.937l12.955 7.123.708-.389c.948.948 1.882 1.912 2.8 2.893L16.986 9.34Z" style="fill:#ffdf23;fill-opacity:1;fill-rule:nonzero;stroke:none" transform="translate(134.325 282.04)"/><path d="M0 0c.028-.06.059-.117.088-.177L.003.001Z" style="fill:#ffdf23;fill-opacity:1;fill-rule:nonzero;stroke:none" transform="translate(87.543 324.301)"/><path d="m0 0 .012.006c-.25.484-.494.969-.739 1.456C-.483.975-.247.484 0 0" style="fill:#ffdf23;fill-opacity:1;fill-rule:nonzero;stroke:none" transform="translate(89.273 320.82)"/><path d="M0 0c.61-1.143 1.234-2.278 1.873-3.402l.026.015A150.927 150.927 0 0 0 .017.01Z" style="fill:#ffdf23;fill-opacity:1;fill-rule:nonzero;stroke:none" transform="translate(90.545 318.396)"/><path d="M0 0c.85-1.016 1.714-2.019 2.594-3.005l.103.056C1.814-1.963.946-.964.091.05Z" style="fill:#ffdf23;fill-opacity:1;fill-rule:nonzero;stroke:none" transform="translate(106.678 294.34)"/><path d="M0 0c.88.987 1.745 1.989 2.594 3.006l-.059.033a126.64 126.64 0 0 0-2.606-3Z" style="fill:#ffdf23;fill-opacity:1;fill-rule:nonzero;stroke:none" transform="translate(156.652 291.357)"/><path d="M0 0h7.425v19.595c-1.055-2.76-2.403-5.278-4.03-7.521V1.867Z" style="fill:#ffdf23;fill-opacity:1;fill-rule:nonzero;stroke:none" transform="translate(87.525 384.423)"/><path d="M0 0h7.424L4.03 1.867v14.247l12.955 7.124 12.957-7.124V1.867L26.547 0h7.425v18.33l-16.018 8.807c-.576.043-1.142.087-1.696.133L0 18.33Z" style="fill:#ffdf23;fill-opacity:1;fill-rule:nonzero;stroke:none" transform="translate(97.652 384.423)"/><path d="M0 0h7.425L4.031 1.867v14.247l12.955 7.124 12.956-7.124V1.867L26.547 0h7.426v18.33l-16.06 8.831c-.72-.06-1.433-.11-2.146-.162L0 18.33Z" style="fill:#ffdf23;fill-opacity:1;fill-rule:nonzero;stroke:none" transform="translate(134.325 384.423)"/><path d="m0 0-3.395 1.867v10.214a31.326 31.326 0 0 0-1.855 2.897c-.065.113-.131.224-.195.337a32.988 32.988 0 0 0-1.526 3.111c-.019.042-.043.079-.06.12l-.081.244c-.11.267-.208.543-.312.815V0Z" style="fill:#ffdf23;fill-opacity:1;fill-rule:nonzero;stroke:none" transform="translate(178.423 384.423)"/><path d="M0 0h-4.03v-6.18l-3.374-1.856.085-.178c.299-.618.609-1.229.916-1.842.244-.486.488-.972.738-1.455L0-8.396Z" style="fill:#ffdf23;fill-opacity:1;fill-rule:nonzero;stroke:none" transform="translate(94.95 332.338)"/><path d="m0 0-12.957-7.125L-25.912 0v6.18h-4.03v-8.396l16.985-9.34L4.03-2.216V6.18H0Z" style="fill:#ffdf23;fill-opacity:1;fill-rule:nonzero;stroke:none" transform="translate(127.594 326.159)"/><path d="m0 0-12.956-7.125L-25.912 0v6.18h-4.03v-8.396l16.986-9.34L4.03-2.216V6.18H0Z" style="fill:#ffdf23;fill-opacity:1;fill-rule:nonzero;stroke:none" transform="translate(164.267 326.159)"/><path d="m0 0 5.643-3.103c.59 1.152 1.168 2.311 1.732 3.48L4.03 2.216v6.18H0Z" style="fill:#ffdf23;fill-opacity:1;fill-rule:nonzero;stroke:none" transform="translate(170.999 323.942)"/><path d="m0 0-16.986 9.34-5.746-3.161c.613-1.141 1.24-2.274 1.881-3.397l3.865 2.126L-4.03-2.216v-14.248l-2.495-1.372a130.985 130.985 0 0 1 2.606-2.998L0-18.679Z" style="fill:#ffdf23;fill-opacity:1;fill-rule:nonzero;stroke:none" transform="translate(113.294 312.227)"/><path d="m0 0-12.955-7.124L-25.911 0v14.248l12.956 7.124L0 14.248Zm-29.941 16.464V-2.215l16.986-9.34L4.03-2.215v18.679l-16.985 9.34z" style="fill:#ffdf23;fill-opacity:1;fill-rule:nonzero;stroke:none" transform="translate(145.938 295.763)"/><path d="m0 0-16.985-9.34v-18.679l3.911-2.151a128.62 128.62 0 0 1 2.606 2.999l-2.488 1.367v14.248L0-4.432l3.843-2.113c.375.657.734 1.326 1.1 1.989.258.472.523.937.776 1.411z" style="fill:#ffdf23;fill-opacity:1;fill-rule:nonzero;stroke:none" transform="translate(169.655 321.566)"/><path d="M0 0c.375.657.732 1.326 1.096 1.991C.73 1.328.371.659-.004.001Z" style="fill:#ffdf23;fill-opacity:1;fill-rule:nonzero;stroke:none" transform="translate(173.502 315.02)"/><path d="M0 0h-.001C-22.08 14.058-38.556 36.064-49.052 61.133H49.051C38.555 36.064 22.079 14.058 0 0m-35.669 142.461s5.571-.993 14.533-1.798c-2.446-6.342-8.173-12.386-12.27-25.474l-2.294 2.293a4.462 4.462 0 0 1-3.152 1.305h-9.672c7.053 5.109 11.608 13.289 12.855 23.674m71.336 0c1.247-10.385 5.803-18.565 12.856-23.674h-9.37A4.459 4.459 0 0 1 36 117.481l-2.52-2.519c-4.076 13.165-9.81 19.248-12.295 25.584a179.06 179.06 0 0 1 14.482 1.915m41.431-23.966c-3.064-.182-7.669-.286-12.02.263-14.118 1.991-22.887 13.555-23.747 27.243-.003.026-.008.051-.009.077-.157 1.885-.236 3.071-.449 4.289-.299 1.709-1.345 1.897-2.12.913-1.931-2.451-3.632-2.767-3.632-2.767s-.313-.09-1.188-.233a208.048 208.048 0 0 0-13.974-1.567c-.001 2.919.777 6.252 2.672 10.493.828 1.851 1.342 3.841 1.375 5.869.012.776-.038 1.458-.118 2.041-.112.819-1.192 1.022-1.61.31-2.159-3.683-5.889-3.952-5.969-3.977.897 4.627-.526 12.073-4.725 14.292-.64.337-1.372-.235-1.243-.947 1.557-8.604-2.775-15.289-2.763-15.271v.001c-5.996-1.101-7.529-5.441-7.576-5.577H.001c-.046.136-1.579 4.476-7.575 5.577v-.001c.011-.018-4.321 6.667-2.763 15.271.129.712-.603 1.284-1.243.947-4.199-2.219-5.622-9.665-4.725-14.292-.08.025-3.811.294-5.969 3.977-.418.712-1.498.509-1.61-.31-.08-.583-.13-1.265-.118-2.041.032-2.028.547-4.018 1.375-5.869 1.866-4.177 2.652-7.474 2.673-10.361a247.896 247.896 0 0 0-15.185 1.671c-.14.029-1.772.42-3.618 2.764-.775.984-1.821.796-2.12-.913-.216-1.229-.293-2.425-.453-4.342-.479-7.698-3.461-14.726-8.485-19.76-3.949-4.286-11.17-6.813-16.889-7.478h-.001c-4.02-.53-7.748-.49-10.337-.34-1.156.067-1.759-1.35-.904-2.133l10.766-9.859V64.207a3.073 3.073 0 0 1 3.073-3.074h8.538C-44.734 33.843-26.824 9.614-.001-7.099H0C26.822 9.614 44.733 33.843 55.568 61.133h8.59a3.073 3.073 0 0 1 3.072 3.074v42.296l10.766 9.858c.853.781.256 2.202-.898 2.134" style="fill:#244694;fill-opacity:1;fill-rule:nonzero;stroke:none" transform="translate(132.952 271.205)"/><path d="M0 0h-10.135v8.165h9.408L0 7.438Zm3.037 17.252H-23.886l4.663-4.269V-29.629H-10.135v20.542H0v-20.542h9.087v40.832l-1.816 1.816z" style="fill:#fff;fill-opacity:1;fill-rule:nonzero;stroke:none" transform="translate(90.618 367.143)"/><path d="m0 0 .726.727h13.953v9.087H-3.04l-6.047-6.051V-13.17H6.085v-4.993H-9.087v-9.088h24.259v23.168H0Z" style="fill:#fff;fill-opacity:1;fill-rule:nonzero;stroke:none" transform="translate(113.248 364.765)"/><path d="M0 0h-10.136v4.81h9.408L0 4.082Zm-19.223 13.897v-37.065h9.087v14.081H0v-14.081h9.087V7.847l-6.05 6.05z" style="fill:#fff;fill-opacity:1;fill-rule:nonzero;stroke:none" transform="translate(152.56 360.682)"/><path d="M0 0h-22.256l-4.478-4.478-1.823-1.823v-40.58h9.088v37.794h9.407l.727-.727v-37.067h9.087V-4.222L4.365 0Z" style="fill:#fff;fill-opacity:1;fill-rule:nonzero;stroke:none" transform="translate(194.857 384.395)"/><path d="M0 0v4.726h-8.497l-.378.378v2.122l-.005 2.41.005 2.411v2.122l.378.378H0v4.725h-10.456l-3.144-3.146V3.146L-10.456 0Z" style="fill:#244694;fill-opacity:1;fill-rule:nonzero;stroke:none" transform="translate(147.329 308.188)"/><path d="M0 0h6.717v4.725H.007l.002.626v2.123l.377.377h8.497v4.726H-1.572l-3.145-3.146V-6.696h4.706z" style="fill:#244694;fill-opacity:1;fill-rule:nonzero;stroke:none" transform="translate(123.192 314.884)"/><path d="M0 0c0 1.023-.641 1.555-1.992 1.555-.649 0-1.204-.101-1.618-.312l.117-1.009c.289.126.75.251 1.016.251.602 0 .985-.125.985-.703 0-.555-.735-1.353-1.47-2.142l-.711-.774v-.828h3.61v1.063h-1.789l.36.383C-1.187-2.188 0-1.016 0 0" style="fill:#244694;fill-opacity:1;fill-rule:nonzero;stroke:none" transform="translate(127.606 289.572)"/><path d="M0 0c0-1.18-.259-1.641-.844-1.641-.586 0-.805.554-.805 1.703v.164c0 1.165.234 1.657.813 1.657.555 0 .836-.524.836-1.712Zm-.821 2.93c-1.203 0-2.337-.773-2.337-2.782v-.172c0-1.899 1.025-2.664 2.298-2.664 1.219 0 2.36.687 2.36 2.727V.18C1.5 2.141.407 2.93-.821 2.93" style="fill:#244694;fill-opacity:1;fill-rule:nonzero;stroke:none" transform="translate(131.246 288.197)"/><path d="M0 0c0 1.023-.64 1.555-1.992 1.555-.649 0-1.203-.101-1.618-.312l.117-1.009c.289.126.75.251 1.016.251.602 0 .985-.125.985-.703 0-.555-.735-1.353-1.469-2.142l-.711-.774v-.828h3.61v1.063h-1.79l.36.383C-1.187-2.188 0-1.016 0 0" style="fill:#244694;fill-opacity:1;fill-rule:nonzero;stroke:none" transform="translate(136.879 289.572)"/><path d="M0 0c0-1.18-.257-1.641-.844-1.641-.585 0-.804.554-.804 1.703v.164c0 1.165.233 1.657.813 1.657.554 0 .835-.524.835-1.712Zm-.82 2.93c-1.203 0-2.337-.773-2.337-2.782v-.172c0-1.899 1.024-2.664 2.298-2.664 1.219 0 2.36.687 2.36 2.727V.18c0 1.961-1.094 2.75-2.321 2.75" style="fill:#244694;fill-opacity:1;fill-rule:nonzero;stroke:none" transform="translate(140.519 288.197)"/><path d="M0 0h6.921v4.956A75.644 75.644 0 0 0 0 4.653Z" style="fill:#244694;fill-opacity:1;fill-rule:nonzero;stroke:none" transform="translate(110.75 293.994)"/><path d="M0 0c-1.912-.451-4.208-.856-6.926-1.129v-5.012H0Z" style="fill:#244694;fill-opacity:1;fill-rule:nonzero;stroke:none" transform="translate(125.179 300.134)"/><path d="M0 0h6.921v4.653c-2.551 0-4.853.113-6.921.303Z" style="fill:#244694;fill-opacity:1;fill-rule:nonzero;stroke:none" transform="translate(148.28 293.994)"/><path d="M0 0h6.927v5.011C4.209 5.285 1.913 5.69 0 6.141Z" style="fill:#244694;fill-opacity:1;fill-rule:nonzero;stroke:none" transform="translate(140.773 293.994)"/><path d="M0 0h-.829v-4.72h6.926v6.282C2.983 2.343.97 3.229 0 3.795Z" style="fill:#244694;fill-opacity:1;fill-rule:nonzero;stroke:none" transform="translate(134.096 298.713)"/><path d="M0 0v-6.282h6.926v4.72h-.829v3.795C5.127 1.667 3.114.781 0 0" style="fill:#244694;fill-opacity:1;fill-rule:nonzero;stroke:none" transform="translate(125.76 300.275)"/><path d="M0 0c0 1.785-.238 2.895-.238 2.895s.516.397.555.754h-1.728c.04-.357.556-.754.556-.754S-1.093 1.785-1.093 0v-3.668H0Z" style="fill:#244694;fill-opacity:1;fill-rule:nonzero;stroke:none" transform="translate(133.523 302.928)"/><path d="M0 0c0-.175.009-.337.019-.498.002-.054.003-.111.008-.164.014-.169.033-.328.058-.48.008-.05.019-.098.028-.146a3.74 3.74 0 0 1 .223-.758c.011-.027.02-.056.032-.081.054-.117.114-.225.179-.325.018-.027.038-.051.057-.077.136-.19.293-.348.476-.472l.027-.021c.095-.062.198-.113.304-.158.239-.099.507-.156.808-.17.128-.006.262-.004.402.004.062.005.128.014.192.021.117.013.233.024.357.048 1.117.212 1.678.312 2.795.499v1.664c-.793-.133-1.189-.203-1.981-.347-1.409-.259-2.112.194-2.112 1.391v.839c0 1.231.703 1.987 2.112 2.238.792.144 1.188.214 1.981.347v1.689a116.732 116.732 0 0 1-2.804-.501C1.161 4.164.123 2.753.013.398L.021.391C.015.259 0 .137 0 0" style="fill:#f5cf2c;fill-opacity:1;fill-rule:nonzero;stroke:none" transform="translate(103.864 381.692)"/><path d="M0 0c.718.116 1.079.172 1.795.278V3.29c1.04.154 1.56.227 2.603.361V1.115h.009V.641c.719.093 1.082.138 1.799.22v7.821c-.724-.084-1.085-.128-1.808-.222V5.34a119.699 119.699 0 0 1-2.603-.361v3.12c-.722-.107-1.083-.163-1.804-.28V1.115H0z" style="fill:#f5cf2c;fill-opacity:1;fill-rule:nonzero;stroke:none" transform="translate(110.715 379.06)"/><path d="M0 0c2.181.187 3.273 1.382 3.273 3.664v4.518c-.758-.047-1.137-.073-1.896-.13V3.533C1.377 2.411.918 1.818 0 1.739c-.921-.079-1.382.436-1.382 1.558v4.518a121.63 121.63 0 0 1-1.905-.195V3.102C-3.287.82-2.192-.188 0 0" style="fill:#f5cf2c;fill-opacity:1;fill-rule:nonzero;stroke:none" transform="translate(121.09 380.222)"/><path d="M0 0a546.959 546.959 0 0 0 2.913-3.777.872.872 0 0 1 .46-.305.959.959 0 0 1 .571.01.908.908 0 0 1 .46.324.835.835 0 0 1 .178.516v7.007a127.22 127.22 0 0 1-1.853-.029v-4.1A515.182 515.182 0 0 1-.176 3.415a.872.872 0 0 1-.467.292.974.974 0 0 1-1.03-.372.871.871 0 0 1-.177-.524v-7.068c.74.041 1.11.059 1.85.091z" style="fill:#f5cf2c;fill-opacity:1;fill-rule:nonzero;stroke:none" transform="translate(127.097 384.879)"/><path d="M0 0c1.109-.022 1.663-.039 2.772-.083v3.791c-.748.03-1.122.042-1.869.062V1.651l-.154.004c-1.368.035-2.052.636-2.052 1.832v.839c0 1.223.711 1.832 2.136 1.795.774-.02 1.163-.033 1.939-.064v1.689c-1.109.044-1.663.061-2.772.083-2.138.043-3.208-1.278-3.208-3.887C-3.208 1.332-2.138.043 0 0" style="fill:#f5cf2c;fill-opacity:1;fill-rule:nonzero;stroke:none" transform="translate(135.77 380.815)"/><path d="M0 0a574.987 574.987 0 0 0 2.909-4.074 1 1 0 0 1 .458-.351.967.967 0 0 1 .572-.049.802.802 0 0 1 .458.277.766.766 0 0 1 .177.498v7.008c-.739.068-1.109.1-1.848.159V-.631A586.244 586.244 0 0 1-.177 3.433a.997.997 0 0 1-.466.339.937.937 0 0 1-.57.031.849.849 0 0 1-.461-.296A.8.8 0 0 1-1.85 3v-7.068c.74-.035 1.11-.054 1.85-.098Z" style="fill:#f5cf2c;fill-opacity:1;fill-rule:nonzero;stroke:none" transform="translate(141.276 384.755)"/><path d="m0 0 .68-1.747c-.539.07-.809.103-1.349.167L0 0m-1.811-4.295.465 1.1c1.089-.124 1.632-.192 2.719-.338l.23-.597h.013l.241-.626c.75-.104 1.129-.159 1.873-.271A2074.66 2074.66 0 0 1 .792 2.768a.947.947 0 0 1-.323.394 1.029 1.029 0 0 1-.476.188.8.8 0 0 1-.469-.071.703.703 0 0 1-.317-.314 2492.94 2492.94 0 0 1-2.909-7.074l.209-.021h.109c.562-.055.933-.095 1.573-.165" style="fill:#f5cf2c;fill-opacity:1;fill-rule:nonzero;stroke:none" transform="translate(150.14 384.305)"/><path d="M0 0c.723-.114 1.086-.174 1.803-.297v3.601c.4-.915.617-1.412.988-2.269h.015l.083-.192c.077-.152.191-.282.339-.39.147-.11.305-.18.473-.211a.962.962 0 0 1 .26-.013l.006-.007a.8.8 0 0 1 .202.044.615.615 0 0 1 .332.273l1.033 2.006V-1l.407-.082v.012c.481-.097.829-.169 1.398-.291v7.04a.909.909 0 0 1-.198.551c-.132.177-.3.306-.5.39a1.495 1.495 0 0 1-.769.102.594.594 0 0 1-.42-.291C4.748 5.155 4.396 4.515 3.691 3.23a1210.21 1210.21 0 0 1-1.805 3.907 1.027 1.027 0 0 1-.427.448c-.28.143-.565.192-.766.183a.756.756 0 0 1-.504-.21.634.634 0 0 1-.199-.472V1.035H0Z" style="fill:#f5cf2c;fill-opacity:1;fill-rule:nonzero;stroke:none" transform="translate(154.762 379.14)"/><path d="M0 0c-.354.209-.808.349-1.399.349-.579 0-1.025-.135-1.374-.336-1.121-.646-1.212-2.002-1.212-2.002.182-1.809.572-3.239.995-4.332.744-1.925 1.591-2.8 1.591-2.8s.841.871 1.584 2.783c.425 1.096.819 2.531 1.001 4.349 0 0-.088 1.338-1.186 1.989" style="fill:#f5cf2c;fill-opacity:1;fill-rule:nonzero;stroke:none" transform="translate(134.379 417.198)"/><path d="m0 0 9.861-9.144c-.579 1.535-1.122 2.836-1.594 3.827C6.249-1.078 4.399 1.926 2.635 4.715 1.648 6.275.687 7.77-.259 9.373l-.002.002.003-.001v.001c.017-.008 1.812-.882 3.623-.886.823-.001 1.65.178 2.313.7.78.614 1.225 1.315 1.458 2.048.405 1.271.17 2.638-.087 3.82-.404 1.852 1 3.52 1.015 3.538-.052-.015-3.668-1.037-5.784-2.887-1.268-1.108-2.821-2.844-3.914-4.773-.747-1.313-1.283-2.716-1.364-4.074a10.356 10.356 0 0 0-.395-2.285C-4.032 2.401-5.349.712-6.957-.869h-.002C-8.574.719-9.888 2.422-10.522 4.61c-.036.122-.078.24-.108.364-.052.209-.099.42-.138.637l-.008.041c-.013.072-.021.146-.032.219-.05.32-.088.648-.109.99a7.188 7.188 0 0 1-.198 1.266c-.238.968-.668 1.935-1.197 2.858-.746 1.302-1.693 2.515-2.623 3.502a19.008 19.008 0 0 1-1.261 1.221 8.725 8.725 0 0 1-.857.656c-.757.514-1.598.945-2.368 1.286a21.958 21.958 0 0 1-2.562.945 5.473 5.473 0 0 0 .875-1.609c.189-.566.292-1.235.14-1.929-.178-.816-.345-1.72-.3-2.619.019-.365.077-.73.18-1.087.005-.02.007-.04.013-.06.038-.125.082-.25.134-.374.254-.617.678-1.204 1.344-1.728.664-.522 1.491-.701 2.314-.7a7.692 7.692 0 0 1 1.886.266c.284.074.547.156.778.235.578.199.953.382.962.385h-.001l-.001-.002c-.93-1.575-1.874-3.044-2.842-4.574-1.78-2.813-3.646-5.834-5.685-10.116a38 38 0 0 1-.559-1.242 58.142 58.142 0 0 1-.608-1.479 89.637 89.637 0 0 1-.427-1.105L-13.918 0l-2.685-13.655 9.644 10.169 9.643-10.169z" style="fill:#fff;fill-opacity:1;fill-rule:nonzero;stroke:none" transform="translate(139.938 406.297)"/><path d="M0 0h.627v2.192h-3.941l-.176.175v.986l-.003 1.118.001.392.002.726v.984l.176.176H.627v2.192h-4.851l-1.17-1.171-.289-.289V1.46L-4.224 0Z" style="fill:#244694;fill-opacity:1;fill-rule:nonzero;stroke:none" transform="translate(239.848 138.815)"/><path d="m0 0 .002 1.702.003 1.404h3.116v2.193H.008l.001.29v.984l.175.176h3.942v2.192H-.725l-1.459-1.46V0h.723z" style="fill:#244694;fill-opacity:1;fill-rule:nonzero;stroke:none" transform="translate(229.273 138.815)"/><path d="M0 0c.187.233.38.537.38.816 0 .475-.297.722-.923.722-.301 0-.559-.047-.751-.145l.054-.467c.135.057.348.115.472.115.279 0 .457-.058.457-.326 0-.123-.082-.273-.2-.435a6.662 6.662 0 0 0-.482-.558l-.318-.346-.012-.014v-.383H.352v.493h-.83l.167.177C-.253-.289-.128-.16 0 0" style="fill:#244694;fill-opacity:1;fill-rule:nonzero;stroke:none" transform="translate(230.944 129.361)"/><path d="M0 0c0-.548-.12-.762-.392-.762s-.373.258-.373.791v.075c0 .542.109.769.377.769C-.131.873 0 .631 0 .079Zm-.381 1.359c-.183 0-.361-.043-.519-.128-.326-.173-.565-.537-.565-1.163v-.079c0-.211.028-.388.078-.542.157-.486.538-.694.988-.694.081 0 .161.009.239.022.467.084.855.433.855 1.243v.065a2.1 2.1 0 0 1-.02.285c-.097.7-.551.991-1.056.991" style="fill:#244694;fill-opacity:1;fill-rule:nonzero;stroke:none" transform="translate(233.014 129.54)"/><path d="M0 0c0 .228-.073.399-.213.521-.153.13-.385.201-.711.201-.302 0-.559-.047-.751-.146l.054-.467c.135.058.349.116.472.116A.701.701 0 0 0-.848.173c.097-.045.156-.125.156-.275 0-.256-.341-.627-.682-.993l-.33-.359v-.384h1.675v.493h-.83l.167.178C-.551-1.015 0-.472 0 0" style="fill:#244694;fill-opacity:1;fill-rule:nonzero;stroke:none" transform="translate(235.627 130.178)"/><path d="M0 0c0-.548-.12-.762-.392-.762-.215 0-.32.169-.356.502a2.68 2.68 0 0 0-.017.289v.075c0 .542.109.769.377.769.245 0 .371-.228.383-.727C-.004.122 0 .105 0 .079Zm-.381 1.359C-.939 1.359-1.465 1-1.465.068v-.079c0-.233.035-.427.095-.59.166-.452.537-.646.972-.646.14 0 .278.019.407.063l.259.143c.253.188.428.519.428 1.059v.065c0 .158-.02.295-.049.421-.134.6-.557.855-1.028.855" style="fill:#244694;fill-opacity:1;fill-rule:nonzero;stroke:none" transform="translate(237.316 129.54)"/><path d="M0 0a37.144 37.144 0 0 0-1.18-.021V-2.18H2.031v2.3A32.78 32.78 0 0 0 0 0" style="fill:#244694;fill-opacity:1;fill-rule:nonzero;stroke:none" transform="translate(224.685 134.408)"/><path d="M0 0c-.685-.162-1.48-.31-2.387-.428-.266-.035-.54-.067-.826-.096V-2.85H0Z" style="fill:#244694;fill-opacity:1;fill-rule:nonzero;stroke:none" transform="translate(230.2 135.078)"/><path d="M0 0c-.276.018-.544.038-.804.062v-2.299H2.407v2.159A38.657 38.657 0 0 0 0 0" style="fill:#244694;fill-opacity:1;fill-rule:nonzero;stroke:none" transform="translate(241.72 134.466)"/><path d="M0 0v-2.85h3.213v2.326A27.21 27.21 0 0 0 0 0" style="fill:#244694;fill-opacity:1;fill-rule:nonzero;stroke:none" transform="translate(237.434 135.078)"/><path d="M0 0h-.384v-2.19h3.213V.725C1.384 1.087.45 1.498 0 1.76Z" style="fill:#244694;fill-opacity:1;fill-rule:nonzero;stroke:none" transform="translate(234.336 134.419)"/><path d="M0 0h-.385v1.76c-.449-.262-1.384-.673-2.828-1.035V-2.19H0Z" style="fill:#244694;fill-opacity:1;fill-rule:nonzero;stroke:none" transform="translate(233.682 134.419)"/><path d="M0 0c0 .828-.11 1.343-.11 1.343s.239.184.257.349h-.801c.018-.165.257-.349.257-.349S-.507.828-.507 0v-1.702H0Z" style="fill:#244694;fill-opacity:1;fill-rule:nonzero;stroke:none" transform="translate(234.07 136.374)"/><path d="m0 0-.316.811-.311-.733C-.376.048-.251.032 0 0" style="fill:#244694;fill-opacity:1;fill-rule:nonzero;stroke:none" transform="translate(242.095 173.316)"/><path d="M0 0h-4.216v17.197l-.337.337h-4.365V0h-4.215v18.826l.842.844.902.901.801.801.377.378H2.141L0 19.791V5.998Zm-7.496-6.084a70.97 70.97 0 0 0-2.262-4.303 64.662 64.662 0 0 0-6.621-9.553 64.215 64.215 0 0 0-2.018-2.288 56.498 56.498 0 0 0-1.294-1.341 52.906 52.906 0 0 0-6.392-5.475 51.112 51.112 0 0 0-1.873-1.296c-.213-.139-.422-.285-.637-.423v.001-.001l-.001.001v-.001c-.208.133-.41.275-.617.41-.634.417-1.258.849-1.872 1.294a53.028 53.028 0 0 0-6.406 5.483c-.438.439-.87.887-1.294 1.342-.274.293-.542.593-.81.893-.408.456-.81.92-1.205 1.391-2.474 2.944-4.684 6.151-6.624 9.553a74.63 74.63 0 0 0-2.265 4.303A76.187 76.187 0 0 0-51.35-2.4h45.512a72.194 72.194 0 0 0-1.658-3.684M-55.285 0h-1.878v19.77l-2.163 1.98H-46.836l.336-.336.803-.803.829-.829.839-.839V0H-48.245v9.53h-4.702V0Zm20.055 37.681c-.021.418.056.837.139 1.215.07.323.022.632-.065.895a2.535 2.535 0 0 1-.407.746l.08-.023c.173-.053.608-.194 1.108-.415a7.132 7.132 0 0 0 1.1-.596 4.77 4.77 0 0 0 .587-.477 8.853 8.853 0 0 0 1.612-2.019c.136-.237.255-.481.355-.727.08-.199.151-.398.2-.598.049-.198.081-.394.092-.588a5.07 5.07 0 0 1 .051-.459l.014-.102a4.387 4.387 0 0 1 .069-.314c.014-.06.041-.111.057-.168.295-1.014.897-1.808 1.646-2.543h.001c.746.733 1.357 1.517 1.653 2.526.096.327.16.679.183 1.06.024.392.13.793.288 1.186.096.24.217.474.349.704a9.019 9.019 0 0 0 1.812 2.214c.982.859 2.659 1.332 2.683 1.339-.007-.008-.658-.781-.471-1.641.12-.548.227-1.182.04-1.772a1.923 1.923 0 0 0-.565-.844c-.039-.035-.068-.072-.111-.106-.308-.242-.69-.325-1.072-.324-.841.001-1.674.406-1.681.41l-.002.001.001-.001c.439-.744.885-1.438 1.342-2.161l.224-.357c.202-.322.407-.655.615-1.001a39.401 39.401 0 0 0 1.774-3.297c.219-.46.471-1.063.74-1.775l-2.983 2.766-1.391 1.289-.201.186.053-.268.364-1.851.828-4.215-1.964 2.072-1.873 1.974-.636.672-.619-.652-1.872-1.974-1.983-2.092.83 4.224.364 1.85.051.26-.195-.181-1.39-1.289-2.99-2.771c.067.178.134.349.198.513.097.246.192.475.282.686.091.211.177.403.259.576a39.126 39.126 0 0 0 1.78 3.304 93.499 93.499 0 0 0 .859 1.391c.449.709.886 1.39 1.317 2.121l.001.001a4.686 4.686 0 0 0-.807-.288 3.48 3.48 0 0 0-.875-.123c-.382-.001-.765.082-1.074.324-.044.034-.08.07-.119.106a1.922 1.922 0 0 0-.566.869c-.003.009-.004.019-.006.028a2.184 2.184 0 0 0-.083.504m6.638-.551c.273 0 .483-.066.646-.162.311-.183.446-.48.505-.688.038-.134.049-.235.049-.235a7.671 7.671 0 0 0-.465-2.015 5.939 5.939 0 0 0-.23-.52c-.268-.528-.505-.774-.505-.774s-.243.251-.515.792a6.301 6.301 0 0 0-.222.509 7.689 7.689 0 0 0-.463 2.008s.011.101.049.235c.06.212.2.511.519.695.162.091.365.155.632.155m-10.206-3.546c-.449-.928-1.023-1.88-1.656-2.956-.844-1.438-1.788-3.107-2.665-5.253a33.673 33.673 0 0 1-.971-2.699l-.901.9-.165.165a2.07 2.07 0 0 1-1.09.569 2.094 2.094 0 0 1-.372.037h-4.505a13.443 13.443 0 0 1 3.005 2.999 14.864 14.864 0 0 1 1.672 2.957c.153.361.295.73.425 1.109.207.605.375 1.24.521 1.891.148.656.275 1.327.359 2.027 0 0 .959-.171 2.636-.388a107.285 107.285 0 0 1 4.104-.446 12.17 12.17 0 0 0-.397-.912m2.756-11.322v-2.591a54.321 54.321 0 0 1-.839-.103v1.401a54.689 54.689 0 0 1-1.207-.168V19.4c-.335-.049-.503-.076-.837-.129V22.902c.334.055.502.08.837.13v-1.447c.482.071.724.104 1.207.167V23.2c.336.043.504.064.839.103zm10.031.636-.072.003c-.311.013-.496.019-.829.028-.586.014-.897-.22-.963-.667-.007-.057-.027-.103-.027-.166v-.389c0-.076.021-.135.033-.201.075-.413.371-.636.919-.65l.072-.002v.984c.346-.009.52-.016.867-.029V20.05c-.515.02-.772.028-1.286.039a2.18 2.18 0 0 0-.301.029c-.353.059-.628.206-.823.451-.243.304-.365.751-.365 1.349 0 .122.009.233.019.344.065.703.333 1.159.811 1.351.188.076.407.113.659.108.487-.01.75-.018 1.214-.036l.072-.003zm5.597.277a.434.434 0 0 0 .151-.183l.276-.73.917-2.433.17-.453.002-.006c-.321.049-.501.075-.798.116l-.078.011-.113.295-.107.277c-.504.068-.756.099-1.261.157l-.1-.236a22.52 22.52 0 0 0-.116-.274l-.002-.005c-.314.034-.493.054-.778.081a4.61 4.61 0 0 0-.097.01l.245.597c.28.685.498 1.214.765 1.863l.339.822a.327.327 0 0 0 .147.145.382.382 0 0 0 .219.034.473.473 0 0 0 .219-.088m-21.025-4.156a.912.912 0 0 0-.491.493l-.005.013a1.734 1.734 0 0 0-.118.404l-.004.018-.002.012c-.026.16-.045.333-.045.532 0 .067.008.126.011.19.022.472.124.862.31 1.167.1.163.223.3.37.414.212.164.469.282.78.342.52.097.78.144 1.3.232V22.052a58.794 58.794 0 0 1-.918-.161c-.38-.068-.636-.224-.794-.447a.978.978 0 0 1-.186-.591v-.389c0-.556.326-.766.98-.647.367.068.551.1.918.162v-.776c-.42-.07-.677-.115-1.032-.182l-.268-.05a1.868 1.868 0 0 0-.443-.029 1.11 1.11 0 0 0-.363.077m26.357-.299v-.043l-.058.01c-.228.049-.387.083-.59.124l-.189.037v1.645l-.479-.931a.285.285 0 0 0-.154-.126.4.4 0 0 0-.184-.013c-.014.001-.024-.006-.038-.003a.536.536 0 0 0-.22.098.503.503 0 0 0-.157.181l-.04.093-.375.86-.083.193v-1.676c-.337.058-.505.085-.842.139V22.6c0 .087.033.161.093.218a.35.35 0 0 0 .233.098.766.766 0 0 0 .356-.085.485.485 0 0 0 .198-.208l.167-.361.569-1.231.101-.22.217.394.581 1.057.019.034a.281.281 0 0 0 .195.135.698.698 0 0 0 .356-.048c.063-.026.108-.076.156-.121.024-.023.057-.033.077-.06a.429.429 0 0 0 .081-.195c.003-.02.01-.04.01-.06v-1.984zm-2.6 15.83a82.76 82.76 0 0 1 3.058.376c.858.121 1.717.253 2.578.404.084-.694.209-1.359.355-2.01.148-.662.319-1.306.53-1.921.13-.378.27-.746.424-1.105a14.906 14.906 0 0 1 1.688-2.978 13.476 13.476 0 0 1 2.986-2.969h-4.367c-.168 0-.33-.028-.491-.067a2.06 2.06 0 0 1-.971-.54l-.283-.283-.888-.887a33.869 33.869 0 0 1-.985 2.762c-.885 2.174-1.838 3.859-2.692 5.311-.632 1.075-1.205 2.026-1.652 2.955-.136.282-.261.564-.371.845.359.034.719.069 1.081.107m-5.796-12.926V23.525c.343-.027.514-.042.857-.073V20.201a.362.362 0 0 0-.296-.359.447.447 0 0 0-.264.022.457.457 0 0 0-.213.163 223.12 223.12 0 0 1-1.349 1.89v-1.933l-.386.023-.473.022V23.309c0 .087.028.166.083.235a.398.398 0 0 0 .213.138.443.443 0 0 0 .264-.015.456.456 0 0 0 .217-.157c.365-.507.609-.848.894-1.248l.453-.638m-6.577.187v1.901c.338.008.512.011.844.014h.015v-3.251a.378.378 0 0 0-.053-.185c-.009-.019-.016-.037-.029-.055a.427.427 0 0 0-.213-.15c-.054-.018-.109-.022-.164-.018-.034.002-.068.004-.101.014a.401.401 0 0 0-.214.141l-.495.645c-.268.35-.508.659-.856 1.108v-1.934c-.29-.012-.463-.02-.715-.034l-.143-.008v3.279c0 .087.027.169.081.243a.456.456 0 0 0 .479.172.393.393 0 0 0 .216-.134l.32-.413c.242-.311.444-.574.683-.884l.345-.451m-4.695.451v-.918c0-.323.093-.525.257-.632a.575.575 0 0 1 .385-.091c.366.031.565.25.616.639.009.063.023.12.023.193v2.096c.351.027.528.039.88.061v-2.096c0-1.059-.507-1.614-1.519-1.7-.592-.05-1.005.092-1.252.423-.179.239-.273.573-.273 1.016v2.096c.353.039.53.057.883.09zM-30.707 3.2V0H-41.962V4.216H-34.923v2.316h-7.039V14.389l1.433 1.433 1.324 1.324.049.049h8.22v-4.216h-6.473l-.316-.315-.021-.021v-1.895h7.039V4.541Zm15.415 11.189V0h-4.216v6.532h-4.702V0h-4.216v17.195h10.327l.083-.082 1.325-1.325zm22.467 9.822c-1.413-.084-3.532-.131-5.541.119-6.57.909-10.653 6.281-11.052 12.642l-.004.014c-.073.887-.109 1.442-.209 2.011-.139.793-.624.88-.983.424-.896-1.138-1.685-1.284-1.685-1.284s-.146-.041-.552-.108a96.9 96.9 0 0 0-6.479-.726c-.002 1.354.357 2.899 1.236 4.867.384.859.623 1.782.638 2.724.005.359-.018.675-.055.946-.052.38-.553.474-.746.143-1.002-1.708-2.733-1.833-2.77-1.844.416 2.146-.244 5.601-2.192 6.63-.296.157-.636-.109-.576-.439.722-3.992-1.288-7.093-1.283-7.085-2.781-.511-3.492-2.524-3.514-2.587-.022.063-.733 2.076-3.515 2.587.005-.008-2.004 3.093-1.282 7.085.06.33-.28.596-.576.439-1.949-1.029-2.609-4.484-2.193-6.63-.037.011-1.767.136-2.769 1.844-.194.331-.695.237-.747-.143a6.48 6.48 0 0 1-.055-.946c.016-.942.255-1.865.639-2.724.866-1.939 1.225-3.466 1.234-4.807-2.92.235-5.327.531-7.037.776-.024.004-.798.162-1.681 1.282-.359.456-.844.369-.983-.424-.1-.57-.136-1.125-.21-2.014-.223-3.581-1.613-6.848-3.956-9.185-.054-.054-.111-.104-.166-.156a11.661 11.661 0 0 0-.596-.538c-.194-.165-.4-.318-.605-.469-.018-.013-.035-.028-.052-.039-1.908-1.324-4.242-1.965-6.398-2.249a25.959 25.959 0 0 0-4.794-.159.57.57 0 0 1-.42-.989l4.994-4.574V-.976c0-.787.638-1.424 1.426-1.424h3.96c5.027-12.662 13.336-23.903 25.78-31.656h.001C-16.15-26.303-7.84-15.062-2.813-2.4h3.985c.787 0 1.426.637 1.426 1.424v19.623l4.994 4.574a.57.57 0 0 1-.417.99" style="fill:#244694;fill-opacity:1;fill-rule:nonzero;stroke:none" transform="translate(262.41 152.419)"/><path d="M0 0h-3.521v-2.231H1.182v1.894L.844 0Z" style="fill:#244694;fill-opacity:1;fill-rule:nonzero;stroke:none" transform="translate(241.72 165.398)"/><path d="M0 0v3.451l-.337.337h-4.365V0h1.314z" style="fill:#244694;fill-opacity:1;fill-rule:nonzero;stroke:none" transform="translate(214.166 166.165)"/><path d="M0 0h.625v2.186h-3.93l-.174.173V3.342l-.003 1.114.002.392.001.722v.982l.174.175H.625v2.184h-4.836l-1.166-1.167-.287-.288V1.455L-4.211 0Z" style="fill:#f5cf2c;fill-opacity:1;fill-rule:nonzero;stroke:none" transform="translate(338.353 138.888)"/><path d="m0 0 .002 1.697.004 1.4h3.105v2.184H.008l.001.289v.982l.175.175h3.928v2.184H-.723l-1.453-1.455V0h.721z" style="fill:#f5cf2c;fill-opacity:1;fill-rule:nonzero;stroke:none" transform="translate(327.813 138.888)"/><path d="M0 0c.187.232.379.535.379.813 0 .474-.295.719-.92.719-.301 0-.557-.047-.748-.144l.054-.466c.133.057.346.115.469.115.28 0 .455-.058.455-.325C-.311.59-.391.44-.51.279a6.43 6.43 0 0 0-.48-.556l-.317-.345-.011-.014v-.383h1.67v.492h-.829l.166.177c.059.062.183.19.311.35" style="fill:#f5cf2c;fill-opacity:1;fill-rule:nonzero;stroke:none" transform="translate(329.478 129.467)"/><path d="M0 0c0-.546-.119-.759-.391-.759-.27 0-.371.257-.371.787v.076c0 .54.108.767.375.767C-.131.871 0 .629 0 .079Zm-.379 1.354c-.183 0-.359-.042-.517-.126-.325-.174-.563-.536-.563-1.16v-.079c0-.21.027-.387.077-.54.157-.485.536-.692.986-.692.08 0 .16.009.238.022.465.084.851.432.851 1.239v.065c0 .103-.007.195-.019.284-.098.698-.549.987-1.053.987" style="fill:#f5cf2c;fill-opacity:1;fill-rule:nonzero;stroke:none" transform="translate(331.541 129.644)"/><path d="M0 0c0 .228-.072.398-.213.519-.152.13-.383.2-.709.2-.3 0-.557-.047-.748-.145l.055-.466c.133.058.346.116.469.116a.707.707 0 0 0 .3-.051c.096-.045.157-.126.157-.275 0-.255-.341-.625-.68-.989l-.33-.358v-.383h1.67v.491h-.828l.168.178C-.549-1.012 0-.47 0 0" style="fill:#f5cf2c;fill-opacity:1;fill-rule:nonzero;stroke:none" transform="translate(334.147 130.28)"/><path d="M0 0c0-.546-.12-.759-.391-.759-.213 0-.319.168-.354.5-.01.086-.018.178-.018.287v.076c0 .54.11.767.376.767.245 0 .37-.228.382-.725C-.005.122 0 .105 0 .079Zm-.38 1.354c-.557 0-1.08-.357-1.08-1.286v-.079c0-.232.035-.426.094-.588.166-.45.535-.644.969-.644.139 0 .277.019.406.063l.258.142C.519-.85.693-.521.693.018v.065c0 .158-.02.294-.047.419-.135.599-.557.852-1.026.852" style="fill:#f5cf2c;fill-opacity:1;fill-rule:nonzero;stroke:none" transform="translate(335.83 129.644)"/><path d="M0 0c-.379-.012-.768-.02-1.176-.02v-2.152h3.201V.12A32.927 32.927 0 0 0 0 0" style="fill:#f5cf2c;fill-opacity:1;fill-rule:nonzero;stroke:none" transform="translate(323.24 134.496)"/><path d="M0 0a23.952 23.952 0 0 0-2.379-.427 28.18 28.18 0 0 0-.824-.095V-2.84H0Z" style="fill:#f5cf2c;fill-opacity:1;fill-rule:nonzero;stroke:none" transform="translate(328.736 135.164)"/><path d="M0 0c-.274.019-.543.038-.801.062v-2.291h3.2v2.152A38.398 38.398 0 0 0 0 0" style="fill:#f5cf2c;fill-opacity:1;fill-rule:nonzero;stroke:none" transform="translate(340.219 134.554)"/><path d="M0 0v-2.84h3.201v2.318c-.275.028-.538.059-.795.092C1.491-.312.689-.163 0 0" style="fill:#f5cf2c;fill-opacity:1;fill-rule:nonzero;stroke:none" transform="translate(335.947 135.164)"/><path d="M0 0h-.383v-2.183h3.201V.723C1.379 1.083.447 1.493 0 1.755Z" style="fill:#f5cf2c;fill-opacity:1;fill-rule:nonzero;stroke:none" transform="translate(332.86 134.507)"/><path d="M0 0h-.383v1.755c-.449-.262-1.379-.672-2.819-1.032v-2.906H0Z" style="fill:#f5cf2c;fill-opacity:1;fill-rule:nonzero;stroke:none" transform="translate(332.207 134.507)"/><path d="M0 0c0 .825-.109 1.339-.109 1.339s.238.183.255.348h-.798c.019-.165.257-.348.257-.348S-.505.825-.505 0v-1.695H0Z" style="fill:#f5cf2c;fill-opacity:1;fill-rule:nonzero;stroke:none" transform="translate(332.594 136.455)"/><path d="m0 0-.314.808-.311-.731C-.375.048-.25.032 0 0" style="fill:#f5cf2c;fill-opacity:1;fill-rule:nonzero;stroke:none" transform="translate(340.592 173.274)"/><path d="M0 0H-4.203v17.139l-.335.336h-4.351V0h-4.201v18.764l.84.84.898.898.799.798.376.377H2.133L0 19.725V5.978Zm-7.471-6.064a72.688 72.688 0 0 0-2.256-4.288 64.27 64.27 0 0 0-6.599-9.522 58.954 58.954 0 0 0-1.199-1.386c-.27-.3-.537-.599-.811-.893-.424-.453-.853-.9-1.289-1.337a52.735 52.735 0 0 0-6.372-5.457 49.077 49.077 0 0 0-1.866-1.291c-.212-.14-.42-.285-.635-.422v.001-.001.001-.001c-.209.133-.41.273-.615.409a49.03 49.03 0 0 0-1.866 1.289 52.69 52.69 0 0 0-6.384 5.464c-.438.438-.867.884-1.291 1.337-.274.293-.539.593-.807.891-.408.456-.808.917-1.201 1.386-2.467 2.935-4.668 6.13-6.602 9.521a78.73 78.73 0 0 0-1.457 2.685 74.667 74.667 0 0 0-2.457 5.285h45.36a76.214 76.214 0 0 0-1.653-3.671M-55.1 0h-1.873v19.703l-2.156 1.974H-46.68l.334-.334.801-.801.827-.826.836-.836V0h-4.202v9.498h-4.686V0Zm19.987 37.555c-.022.416.056.834.138 1.211.071.321.023.63-.064.891a2.524 2.524 0 0 1-.375.707l-.029.037a10.163 10.163 0 0 0 1.183-.436 7.09 7.09 0 0 0 1.096-.595 4.01 4.01 0 0 0 .395-.304 7.701 7.701 0 0 0 .583-.564 8.782 8.782 0 0 0 1.213-1.619c.136-.237.254-.479.354-.725.08-.198.15-.397.2-.596.048-.197.079-.392.091-.586.01-.159.027-.31.051-.457.006-.035.009-.069.015-.102 0-.007.002-.013.004-.019.018-.1.039-.198.063-.294.015-.059.041-.11.058-.167.293-1.01.893-1.802 1.64-2.536h.001c.744.732 1.353 1.513 1.647 2.519.096.326.16.676.183 1.056.023.391.129.79.287 1.182.096.238.217.472.348.701a8.961 8.961 0 0 0 1.806 2.207c.979.856 2.651 1.329 2.674 1.335-.008-.007-.656-.779-.47-1.635.12-.547.226-1.179.041-1.767a1.932 1.932 0 0 0-.563-.841c-.039-.035-.068-.072-.111-.105-.307-.241-.69-.324-1.07-.324-.837.001-1.667.406-1.674.41v-.001l-.002.001v-.001c.438-.742.882-1.433 1.338-2.154l.223-.355c.202-.321.405-.653.612-.998a39.094 39.094 0 0 0 1.77-3.286c.218-.458.469-1.06.736-1.769l-2.972 2.756-1.385 1.285-.201.187.052-.269.362-1.845.826-4.2-1.958 2.065-1.866 1.967-.635.669-.615-.649-1.866-1.968-1.978-2.084.828 4.21.363 1.845.051.259-.195-.181-1.385-1.284-2.98-2.763c.068.177.132.348.197.511a18.915 18.915 0 0 0 .541 1.258c.303.637.596 1.204.885 1.737.302.56.597 1.075.888 1.557.207.345.412.678.614 1l.242.384c.447.707.883 1.387 1.312 2.115l.002.001a4.905 4.905 0 0 0-.804-.287 3.517 3.517 0 0 0-.873-.123c-.38 0-.762.082-1.07.324-.044.034-.08.07-.119.105a1.94 1.94 0 0 0-.503.694 1.75 1.75 0 0 0-.06.172c-.004.009-.004.019-.008.028a2.277 2.277 0 0 0-.082.503m6.616-.55c.272 0 .481-.065.643-.161.311-.183.446-.478.504-.686.038-.134.049-.234.049-.234a7.62 7.62 0 0 0-.465-2.008 5.28 5.28 0 0 0-.228-.52c-.266-.524-.503-.769-.503-.769s-.242.25-.513.789a5.5 5.5 0 0 0-.221.507 7.606 7.606 0 0 0-.461 2.001s.01.1.047.234c.061.211.2.51.518.692.162.092.363.155.63.155m-10.173-3.533c-.445-.925-1.018-1.874-1.648-2.947-.842-1.433-1.784-3.096-2.657-5.235a33.586 33.586 0 0 1-.968-2.69l-.899.897-.163.164a2.07 2.07 0 0 1-1.458.604h-4.49a13.437 13.437 0 0 1 2.996 2.988 14.87 14.87 0 0 1 1.666 2.948c.152.36.295.728.424 1.106.206.602.373 1.235.519 1.884.147.654.274 1.323.358 2.02 0 0 .955-.17 2.627-.386a102.758 102.758 0 0 1 4.09-.444c-.118-.304-.25-.606-.397-.909m2.748-11.285v-2.583c-.181-.02-.313-.037-.449-.053l-.387-.049v1.396a48.964 48.964 0 0 1-1.203-.167V19.336c-.334-.051-.502-.076-.834-.13V22.825c.332.055.5.08.834.13v-1.443c.481.072.721.105 1.203.168V23.122c.334.043.502.064.836.103zm9.996.634-.071.003c-.31.013-.493.019-.825.028-.584.014-.895-.219-.959-.665-.008-.056-.028-.103-.028-.166v-.387c0-.076.02-.134.032-.2.076-.413.371-.634.918-.648l.07-.002v.981c.346-.01.518-.016.863-.03v-1.753c-.511.021-.767.029-1.281.039a2.018 2.018 0 0 0-.299.03c-.351.057-.627.205-.821.449-.241.303-.362.748-.362 1.344 0 .122.007.233.018.343.065.7.331 1.155.808 1.347.187.075.406.112.656.107.486-.01.748-.018 1.21-.036l.071-.002zm5.58.277a.445.445 0 0 0 .15-.183l.276-.728c.324-.861.568-1.506.912-2.424.055-.144.111-.292.17-.452l.002-.005c-.32.048-.498.074-.795.115l-.078.011-.113.294-.106.276c-.502.067-.754.099-1.257.156l-.099-.235c-.034-.083-.07-.164-.116-.274 0-.002 0-.003-.002-.004-.313.034-.491.052-.776.081l-.095.009c.087.216.167.41.244.596l.761 1.856.338.819a.332.332 0 0 0 .147.145.379.379 0 0 0 .219.034.487.487 0 0 0 .218-.087m-20.955-4.144a.908.908 0 0 0-.49.492l-.004.014a1.59 1.59 0 0 0-.117.401c-.002.007-.004.013-.004.019a3.13 3.13 0 0 0-.047.542c0 .066.007.126.01.189.021.471.125.86.308 1.163.1.163.223.299.37.413.212.164.466.282.777.34.519.098.777.145 1.297.232V21.978c-.367-.062-.55-.094-.916-.161-.379-.067-.633-.223-.791-.445a.981.981 0 0 1-.186-.59v-.387c0-.553.324-.763.977-.644.366.067.549.1.916.161v-.773c-.42-.071-.676-.116-1.029-.182l-.268-.05a1.851 1.851 0 0 0-.441-.029 1.11 1.11 0 0 0-.362.076m26.27-.298v-.044l-.059.013a67.649 67.649 0 0 1-.777.159V20.424l-.477-.928a.29.29 0 0 0-.154-.126.421.421 0 0 0-.182-.013c-.013.001-.025-.005-.039-.003a.533.533 0 0 0-.218.097.503.503 0 0 0-.157.182l-.041.093c-.141.327-.24.553-.373.857l-.084.191v-1.67c-.334.058-.502.085-.838.138V22.523a.3.3 0 0 0 .092.219c.06.057.138.092.233.097a.752.752 0 0 0 .355-.085.475.475 0 0 0 .197-.207c.063-.134.114-.246.166-.36.2-.429.357-.77.567-1.227.035-.073.064-.138.101-.22l.217.394.579 1.053.019.034a.275.275 0 0 0 .193.134.694.694 0 0 0 .357-.047c.061-.026.106-.076.155-.121.023-.023.056-.033.076-.059a.426.426 0 0 0 .08-.194c.004-.021.012-.04.012-.061v-1.977zm-2.592 15.778c1.01.105 2.025.23 3.048.375.854.12 1.711.252 2.569.402a19.57 19.57 0 0 1 .354-2.003c.147-.659.317-1.302.527-1.914.13-.377.271-.743.424-1.102a14.891 14.891 0 0 1 1.681-2.967 13.37 13.37 0 0 1 2.976-2.96h-4.351a2.01 2.01 0 0 1-.49-.067 2.058 2.058 0 0 1-.969-.537l-.281-.283-.885-.884a33.618 33.618 0 0 1-.982 2.752c-.881 2.167-1.832 3.848-2.682 5.293-.63 1.072-1.201 2.021-1.648 2.945-.135.283-.26.563-.369.844.357.032.717.068 1.078.106M-23.4 21.552v1.894c.341-.026.513-.042.853-.073V20.133a.36.36 0 0 0-.293-.359.468.468 0 0 0-.476.186c-.506.714-.782 1.1-1.26 1.765l-.084.119v-1.927l-.386.022-.47.024V23.23c0 .086.027.166.081.235a.401.401 0 0 0 .212.137.47.47 0 0 0 .481-.171c.363-.505.607-.845.89-1.244l.452-.635m-6.555.185v1.896c.338.007.51.01.842.013h.015v-3.24a.374.374 0 0 0-.053-.184c-.01-.019-.017-.037-.029-.055a.432.432 0 0 0-.377-.167c-.033.002-.067.004-.101.014a.4.4 0 0 0-.213.14l-.492.643c-.268.349-.506.657-.854 1.103V19.974a44.498 44.498 0 0 1-.713-.035c-.045-.002-.09-.003-.142-.007V23.2a.446.446 0 0 0 .558.414.402.402 0 0 0 .215-.135l.32-.411c.241-.31.442-.572.68-.881l.344-.45m-4.679.45v-.916c0-.321.093-.521.255-.628a.578.578 0 0 1 .385-.092c.365.031.562.25.613.637.01.064.024.121.024.193v2.09c.349.026.525.038.877.059v-2.089c0-1.054-.506-1.607-1.514-1.694-.59-.051-1.002.092-1.248.422-.178.238-.272.57-.272 1.013v2.089c.352.038.528.056.88.09zm4.029-18.999V0h-11.217V4.201H-34.807v2.31h-7.015v7.829l1.427 1.429 1.321 1.32.049.049h8.193v-4.201h-6.453l-.315-.316-.02-.02v-1.889h7.015V4.525Zm15.363 11.153V0h-4.201v6.511h-4.686V0h-4.203v17.138H-18.039l.082-.082 1.32-1.321zM7.15 24.13c-1.408-.084-3.521-.13-5.523.118-6.547.906-10.615 6.26-11.016 12.6l-.002.013c-.074.885-.109 1.438-.209 2.005-.138.791-.621.877-.98.423-.893-1.134-1.679-1.28-1.679-1.28s-.145-.042-.55-.108a96.164 96.164 0 0 0-6.457-.723c-.002 1.349.356 2.888 1.232 4.85.383.857.62 1.777.636 2.714a6.33 6.33 0 0 1-.055.945c-.051.377-.551.471-.744.142-.998-1.702-2.723-1.827-2.76-1.839.414 2.14-.244 5.583-2.186 6.609-.294.156-.632-.109-.574-.438.721-3.978-1.283-7.069-1.277-7.061v.001c-2.772-.509-3.481-2.517-3.502-2.58h-.002c-.022.063-.731 2.071-3.502 2.58V43.1c.006-.008-1.998 3.083-1.277 7.061.058.329-.28.594-.575.438-1.942-1.026-2.599-4.469-2.185-6.609-.037.012-1.762.137-2.76 1.839-.193.329-.693.235-.744-.142a6.198 6.198 0 0 1-.055-.945c.015-.937.252-1.857.635-2.714.863-1.932 1.223-3.454 1.232-4.79-2.912.234-5.31.529-7.015.772-.024.005-.795.162-1.674 1.279-.359.454-.842.368-.98-.423-.1-.568-.136-1.121-.209-2.008-.223-3.568-1.609-6.825-3.944-9.154-.053-.054-.11-.103-.165-.155a11.173 11.173 0 0 0-.594-.536 11.442 11.442 0 0 0-.604-.468l-.051-.039c-1.902-1.319-4.227-1.958-6.375-2.241a25.874 25.874 0 0 0-4.779-.158c-.535.032-.815-.624-.42-.986l4.978-4.559V-.973c0-.784.637-1.42 1.422-1.42h3.948c5.009-12.619 13.291-23.822 25.693-31.548C-16.096-26.215-7.814-15.012-2.805-2.393h3.971c.785 0 1.422.636 1.422 1.42v19.558l4.977 4.558c.394.361.119 1.018-.415.987" style="fill:#f5cf2c;fill-opacity:1;fill-rule:nonzero;stroke:none" transform="translate(360.84 152.447)"/><path d="M0 0h-3.508v-2.225h4.686v1.888L.842 0Z" style="fill:#f5cf2c;fill-opacity:1;fill-rule:nonzero;stroke:none" transform="translate(340.219 165.384)"/><path d="M0 0V3.438l-.336.336h-4.35V0h1.309z" style="fill:#f5cf2c;fill-opacity:1;fill-rule:nonzero;stroke:none" transform="translate(312.756 166.148)"/><path d="M0 0a2.632 2.632 0 0 1-2.467 1.691l-.16-.004a36.121 36.121 0 0 0-2.107-.064c-1.127 0-2.159.058-3.037.169-5.222.735-8.83 4.921-9.189 10.636l-.008.118-.006.043-.023.278c-.059.727-.102 1.252-.203 1.836-.294 1.673-1.507 2.422-2.578 2.422-.795 0-1.558-.392-2.094-1.07-.296-.376-.524-.521-.597-.56a5.363 5.363 0 0 0-.298-.056 92.77 92.77 0 0 0-3.665-.462c.164.521.38 1.08.648 1.677.522 1.171.797 2.36.816 3.533.006.433-.019.856-.074 1.259a2.465 2.465 0 0 1-2.463 2.146c-.423 0-.833-.111-1.194-.309-.438 1.897-1.409 3.73-3.124 4.635a2.477 2.477 0 0 1-3.061-.608 2.496 2.496 0 0 1-.539-2.044c.384-2.122-.226-3.962-.645-4.905a7.012 7.012 0 0 1-2.08-1.086 6.846 6.846 0 0 1-2.088 1.09c-.417.94-1.029 2.78-.644 4.903a2.493 2.493 0 0 1-2.445 2.937c-.401 0-.8-.1-1.155-.287-1.714-.905-2.687-2.738-3.124-4.635a2.49 2.49 0 0 1-1.195.309 2.467 2.467 0 0 1-2.463-2.147 8.417 8.417 0 0 1-.073-1.26c.019-1.173.294-2.362.817-3.532a15.85 15.85 0 0 0 .628-1.617c-1.629.167-2.987.342-3.987.482-.098.06-.304.212-.559.536-.535.679-1.298 1.071-2.093 1.071-1.073 0-2.285-.75-2.577-2.422-.103-.581-.145-1.107-.205-1.836l-.033-.403c-.19-3.073-1.369-5.841-3.318-7.794l-.057-.06c-1.447-1.571-4.393-2.551-6.55-2.802a22.448 22.448 0 0 0-2.935-.186c-.483 0-.97.015-1.45.042l-.157.005a2.637 2.637 0 0 1-2.472-1.692 2.637 2.637 0 0 1 .681-2.917l4.302-3.939v-18.617a3.509 3.509 0 0 1 3.506-3.506h2.545c5.634-13.49 14.373-23.994 25.993-31.233l1.103-.688 1.102.688c11.621 7.24 20.361 17.743 25.993 31.233h2.57a3.51 3.51 0 0 1 3.506 3.506v18.639l4.301 3.938A2.636 2.636 0 0 1 0 0" style="fill:#fff;fill-opacity:1;fill-rule:nonzero;stroke:none" transform="translate(169.37 177.158)"/><path d="M0 0c-16.628-2.92-32.984 0-32.984 0-.886-7.376-5.379-12.35-12.127-13.46 1.855-20.716 11.675-41.622 28.619-52.41C.452-55.082 10.272-34.176 12.128-13.46 5.379-12.35.886-7.376 0 0" style="fill:#f5cf2c;fill-opacity:1;fill-rule:nonzero;stroke:none" transform="translate(147.721 187.845)"/><path d="M0 0c-1.202.12-2.24.243-3.084.354l-2.838-1.561c-.005-.022-.013-.042-.018-.064a17.827 17.827 0 0 0-.71-2.392Z" style="fill:#ffdf23;fill-opacity:1;fill-rule:nonzero;stroke:none" transform="translate(120.326 187.121)"/><path d="M0 0a103.438 103.438 0 0 0-3.908-.1l-1.285-.707-1.308.719c-1.392.024-2.719.071-3.973.136l5.281-2.903z" style="fill:#ffdf23;fill-opacity:1;fill-rule:nonzero;stroke:none" transform="translate(136.425 186.65)"/><path d="m0 0-.034.078C-.075.199-.101.333-.14.455c-.113.361-.217.729-.309 1.106-.038.151-.091.291-.125.445l-2.775 1.525a86.092 86.092 0 0 0-3.041-.377L.176-.46C.118-.306.054-.157 0 0" style="fill:#ffdf23;fill-opacity:1;fill-rule:nonzero;stroke:none" transform="translate(148.604 183.926)"/><path d="m0 0-1.624-.893A54.47 54.47 0 0 1-.33-2.23l.33.181 5.991-3.294v-2.288a49.705 49.705 0 0 1 1.863-1.288v4.601z" style="fill:#ffdf23;fill-opacity:1;fill-rule:nonzero;stroke:none" transform="translate(122.75 131.309)"/><path d="M0 0v-4.597c.631.416 1.252.846 1.863 1.289v2.283l5.991 3.294.327-.18c.438.438.87.884 1.295 1.338l-1.622.891Z" style="fill:#ffdf23;fill-opacity:1;fill-rule:nonzero;stroke:none" transform="translate(131.853 126.984)"/><path d="m0 0 .041-.081-.04.082Z" style="fill:#ffdf23;fill-opacity:1;fill-rule:nonzero;stroke:none" transform="translate(110.222 146.524)"/><path d="m0 0 .005.003C-.11.227-.224.451-.336.677-.224.451-.114.224 0 0" style="fill:#ffdf23;fill-opacity:1;fill-rule:nonzero;stroke:none" transform="translate(111.022 144.915)"/><path d="M0 0c.282-.528.57-1.053.866-1.572l.012.006A72.353 72.353 0 0 0 .008.005z" style="fill:#ffdf23;fill-opacity:1;fill-rule:nonzero;stroke:none" transform="translate(111.61 143.794)"/><path d="M0 0c.393-.471.793-.934 1.199-1.39l.048.027C.839-.908.437-.446.042.023z" style="fill:#ffdf23;fill-opacity:1;fill-rule:nonzero;stroke:none" transform="translate(119.07 132.672)"/><path d="M0 0c.407.456.807.92 1.199 1.39l-.027.015A59.191 59.191 0 0 0-.033.019Z" style="fill:#ffdf23;fill-opacity:1;fill-rule:nonzero;stroke:none" transform="translate(142.176 131.292)"/><path d="M0 0h3.434v9.06A15.097 15.097 0 0 0 1.57 5.582V.862z" style="fill:#ffdf23;fill-opacity:1;fill-rule:nonzero;stroke:none" transform="translate(110.213 174.324)"/><path d="M0 0h3.433l-1.57.862V7.45l5.991 3.294 5.991-3.294V.862L12.274 0h3.434v8.475l-7.406 4.072c-.267.019-.529.04-.784.061L0 8.475Z" style="fill:#ffdf23;fill-opacity:1;fill-rule:nonzero;stroke:none" transform="translate(114.896 174.324)"/><path d="M0 0h3.433l-1.57.862V7.45l5.991 3.294 5.99-3.294V.862L12.274 0h3.434v8.475l-7.426 4.083c-.333-.028-.662-.051-.992-.075L0 8.475Z" style="fill:#ffdf23;fill-opacity:1;fill-rule:nonzero;stroke:none" transform="translate(131.853 174.324)"/><path d="m0 0-1.569.862v4.723c-.309.425-.594.873-.859 1.34l-.09.156c-.254.462-.494.939-.706 1.439-.008.018-.019.036-.027.055l-.037.113c-.051.123-.097.25-.145.376V0Z" style="fill:#ffdf23;fill-opacity:1;fill-rule:nonzero;stroke:none" transform="translate(152.243 174.324)"/><path d="M0 0h-1.864v-2.858l-1.56-.858c.014-.027.026-.055.039-.082.138-.286.282-.568.424-.851.112-.226.226-.451.341-.674L0-3.883Z" style="fill:#ffdf23;fill-opacity:1;fill-rule:nonzero;stroke:none" transform="translate(113.647 150.241)"/><path d="m0 0-5.991-3.293L-11.981 0v2.858h-1.864v-3.882l7.854-4.319 7.854 4.319v3.882H0Z" style="fill:#ffdf23;fill-opacity:1;fill-rule:nonzero;stroke:none" transform="translate(128.74 147.383)"/><path d="m0 0-5.99-3.293L-11.98 0v2.858h-1.864v-3.882l7.854-4.319 7.854 4.319v3.882H0Z" style="fill:#ffdf23;fill-opacity:1;fill-rule:nonzero;stroke:none" transform="translate(145.697 147.383)"/><path d="m0 0 2.609-1.435c.273.534.54 1.069.801 1.61l-1.546.849v2.859H0Z" style="fill:#ffdf23;fill-opacity:1;fill-rule:nonzero;stroke:none" transform="translate(148.81 146.358)"/><path d="m0 0-7.854 4.318-2.657-1.461c.284-.528.574-1.051.87-1.571l1.787.984 5.991-3.294v-6.588l-1.154-.634c.395-.47.797-.932 1.205-1.387L0-8.637Z" style="fill:#ffdf23;fill-opacity:1;fill-rule:nonzero;stroke:none" transform="translate(122.128 140.941)"/><path d="m0 0-5.99-3.294L-11.98 0v6.588l5.99 3.294L0 6.588Zm-13.844 7.612v-8.636l7.854-4.319 7.853 4.319v8.636l-7.853 4.319z" style="fill:#ffdf23;fill-opacity:1;fill-rule:nonzero;stroke:none" transform="translate(137.222 133.33)"/><path d="m0 0-7.854-4.318v-8.637l1.808-.994c.409.455.811.917 1.205 1.386l-1.149.632v6.588L0-2.049l1.776-.977c.174.303.34.613.509.92.119.217.242.433.359.652z" style="fill:#ffdf23;fill-opacity:1;fill-rule:nonzero;stroke:none" transform="translate(148.189 145.26)"/><path d="M0 0c.173.305.339.613.507.921C.338.614.172.305-.002.001Z" style="fill:#ffdf23;fill-opacity:1;fill-rule:nonzero;stroke:none" transform="translate(149.967 142.232)"/><path d="M0 0h-.001c-10.209 6.5-17.827 16.675-22.68 28.267H22.68C17.826 16.675 10.208 6.5 0 0m-16.493 65.87s2.576-.459 6.72-.831c-1.131-2.933-3.779-5.726-5.673-11.778l-1.061 1.059a2.061 2.061 0 0 1-1.458.604h-4.472c3.261 2.362 5.368 6.144 5.944 10.946m32.985 0c.576-4.802 2.682-8.584 5.944-10.946h-4.333a2.06 2.06 0 0 1-1.458-.604l-1.165-1.165c-1.884 6.087-4.536 8.9-5.685 11.829 2.201.204 4.446.491 6.697.886m19.156-11.081c-1.417-.084-3.546-.133-5.558.121-6.528.921-10.582 6.269-10.98 12.597l-.005.035c-.072.872-.108 1.421-.207 1.983-.138.791-.622.877-.98.423-.893-1.134-1.679-1.28-1.679-1.28s-.145-.041-.55-.107a96.493 96.493 0 0 0-6.46-.725c-.001 1.35.359 2.891 1.235 4.852.383.856.62 1.776.636 2.713a6.33 6.33 0 0 1-.055.945c-.052.378-.551.472-.744.142-.998-1.703-2.724-1.827-2.761-1.839.415 2.14-.243 5.583-2.185 6.609-.294.156-.633-.109-.574-.438.72-3.978-1.283-7.069-1.277-7.06C.731 73.251.022 71.243.001 71.181H0c-.021.062-.73 2.07-3.502 2.579.005-.009-1.998 3.082-1.278 7.06.059.329-.279.594-.574.438-1.942-1.026-2.6-4.469-2.185-6.609-.037.012-1.762.136-2.76 1.839-.194.33-.693.236-.745-.142a6.209 6.209 0 0 1-.054-.945c.015-.937.253-1.857.635-2.713.863-1.931 1.227-3.456 1.236-4.791a115.04 115.04 0 0 0-7.021.773c-.064.014-.819.194-1.673 1.278-.358.454-.842.368-.98-.423-.099-.568-.136-1.121-.209-2.007-.222-3.559-1.6-6.809-3.924-9.137-1.825-1.982-5.164-3.15-7.809-3.457a25.772 25.772 0 0 0-4.779-.157.569.569 0 0 1-.419-.987l4.979-4.558V29.687c0-.785.635-1.42 1.42-1.42h3.948C-20.685 15.648-12.403 4.444-.001-3.282H0c12.401 7.726 20.683 18.93 25.693 31.549h3.971a1.42 1.42 0 0 1 1.421 1.42v19.557l4.978 4.558c.394.361.119 1.018-.415.987" style="fill:#244694;fill-opacity:1;fill-rule:nonzero;stroke:none" transform="translate(131.218 121.975)"/><path d="M0 0h-4.686v3.774h4.351L0 3.438Zm1.404 7.977H-11.044l2.156-1.974V-13.7h4.202v9.498H0V-13.7h4.202V5.18l-.84.84z" style="fill:#fff;fill-opacity:1;fill-rule:nonzero;stroke:none" transform="translate(111.644 166.334)"/><path d="m0 0 .335.336h6.453v4.201h-8.194l-2.796-2.798V-6.09h7.015v-2.308h-7.015v-4.203H7.015v10.712H0z" style="fill:#fff;fill-opacity:1;fill-rule:nonzero;stroke:none" transform="translate(122.107 165.234)"/><path d="M0 0h-4.687v2.225h4.351L0 1.888Zm-8.888 6.426v-17.138h4.201v6.511H0v-6.511h4.202V3.629L1.405 6.426Z" style="fill:#fff;fill-opacity:1;fill-rule:nonzero;stroke:none" transform="translate(140.284 163.346)"/><path d="M0 0h-10.291l-2.07-2.07-.843-.843v-18.764h4.202v17.475h4.35l.336-.336v-17.139H-.115V-1.952L2.019 0Z" style="fill:#fff;fill-opacity:1;fill-rule:nonzero;stroke:none" transform="translate(159.841 174.31)"/><path d="M0 0v2.186h-3.929l-.175.173v.983l-.002 1.114.002 1.114v.982l.175.175H0v2.184h-4.835l-1.454-1.454V1.455L-4.835 0Z" style="fill:#244694;fill-opacity:1;fill-rule:nonzero;stroke:none" transform="translate(137.866 139.074)"/><path d="M0 0h3.105v2.185H.003l.001.289v.981l.174.175h3.929v2.184H-.728L-2.181 4.36v-7.457h2.176z" style="fill:#244694;fill-opacity:1;fill-rule:nonzero;stroke:none" transform="translate(126.706 142.17)"/><path d="M0 0c0 .474-.296.719-.921.719-.3 0-.557-.047-.748-.145l.054-.466c.134.058.347.117.47.117.278 0 .455-.059.455-.327 0-.255-.34-.625-.68-.989l-.328-.358v-.383h1.669v.491h-.827l.166.178C-.549-1.012 0-.47 0 0" style="fill:#244694;fill-opacity:1;fill-rule:nonzero;stroke:none" transform="translate(128.746 130.467)"/><path d="M0 0c0-.546-.12-.759-.391-.759s-.372.257-.372.787v.076c0 .54.109.766.376.766C-.13.87 0 .629 0 .079Zm-.38 1.354c-.556 0-1.08-.357-1.08-1.286v-.079c0-.878.474-1.232 1.063-1.232.563 0 1.09.318 1.09 1.261v.065C.693.99.187 1.354-.38 1.354" style="fill:#244694;fill-opacity:1;fill-rule:nonzero;stroke:none" transform="translate(130.43 129.831)"/><path d="M0 0c0 .474-.296.719-.921.719-.3 0-.557-.047-.748-.145l.054-.466c.134.058.346.117.47.117.278 0 .455-.059.455-.327 0-.255-.34-.625-.679-.989l-.329-.358v-.383h1.669v.491h-.827l.166.178C-.549-1.012 0-.47 0 0" style="fill:#244694;fill-opacity:1;fill-rule:nonzero;stroke:none" transform="translate(133.034 130.467)"/><path d="M0 0c0-.546-.119-.759-.39-.759s-.372.257-.372.787v.076c0 .54.109.766.376.766C-.13.87 0 .629 0 .079Zm-.379 1.354c-.557 0-1.08-.357-1.08-1.286v-.079c0-.878.473-1.232 1.062-1.232.564 0 1.091.318 1.091 1.261v.065C.694.99.188 1.354-.379 1.354" style="fill:#244694;fill-opacity:1;fill-rule:nonzero;stroke:none" transform="translate(134.716 129.831)"/><path d="M0 0h3.2v2.292c-.956-.088-2.02-.14-3.2-.14Z" style="fill:#244694;fill-opacity:1;fill-rule:nonzero;stroke:none" transform="translate(120.953 132.51)"/><path d="M0 0a24.58 24.58 0 0 0-3.202-.522V-2.84H0Z" style="fill:#244694;fill-opacity:1;fill-rule:nonzero;stroke:none" transform="translate(127.624 135.35)"/><path d="M0 0h3.2v2.152c-1.18 0-2.244.052-3.2.14Z" style="fill:#244694;fill-opacity:1;fill-rule:nonzero;stroke:none" transform="translate(138.306 132.51)"/><path d="M0 0h3.202v2.317A24.764 24.764 0 0 0 0 2.84Z" style="fill:#244694;fill-opacity:1;fill-rule:nonzero;stroke:none" transform="translate(134.834 132.51)"/><path d="M0 0h-.383v-2.183h3.202V.723C1.38 1.084.448 1.493 0 1.755Z" style="fill:#244694;fill-opacity:1;fill-rule:nonzero;stroke:none" transform="translate(131.747 134.693)"/><path d="M0 0v-2.905h3.203v2.182h-.384v1.755C2.371.771 1.44.361 0 0" style="fill:#244694;fill-opacity:1;fill-rule:nonzero;stroke:none" transform="translate(127.893 135.416)"/><path d="M0 0c0 .825-.11 1.339-.11 1.339s.238.183.256.348h-.798c.018-.165.256-.348.256-.348S-.505.825-.505 0v-1.695H0Z" style="fill:#244694;fill-opacity:1;fill-rule:nonzero;stroke:none" transform="translate(131.482 136.642)"/><path d="M0 0a3.35 3.35 0 0 1 .013-.306c.006-.078.015-.152.026-.222l.014-.068a1.72 1.72 0 0 1 .102-.35c.006-.012.01-.026.015-.037.025-.054.053-.105.083-.151.009-.012.018-.023.026-.036a.91.91 0 0 1 .22-.218l.013-.009a.895.895 0 0 1 .141-.073 1.08 1.08 0 0 1 .373-.079 1.663 1.663 0 0 1 .275.012c.054.006.107.011.165.021.516.098.776.145 1.292.232v.769c-.366-.061-.55-.093-.916-.161-.652-.119-.977.09-.977.644v.387c0 .57.325.919.977 1.036.366.066.55.098.916.16v.781a63.932 63.932 0 0 1-1.296-.231C.537 1.926.057 1.273.006.185L.01.181C.007.12 0 .063 0 0" style="fill:#f5cf2c;fill-opacity:1;fill-rule:nonzero;stroke:none" transform="translate(117.768 173.06)"/><path d="M0 0c.332.054.499.08.83.129v1.392c.481.072.722.105 1.204.167V.516h.004V.297c.333.043.5.063.832.101v3.617c-.335-.039-.502-.06-.836-.103V2.469A54.396 54.396 0 0 1 .83 2.303v1.442c-.334-.05-.501-.075-.834-.13V.516H0Z" style="fill:#f5cf2c;fill-opacity:1;fill-rule:nonzero;stroke:none" transform="translate(120.936 171.844)"/><path d="M0 0c1.009.087 1.514.64 1.514 1.694v2.089a42.546 42.546 0 0 1-.877-.06V1.634C.637 1.115.425.841 0 .805c-.426-.037-.639.201-.639.719v2.089a43.798 43.798 0 0 1-.881-.09V1.435C-1.52.379-1.014-.087 0 0" style="fill:#f5cf2c;fill-opacity:1;fill-rule:nonzero;stroke:none" transform="translate(125.733 172.38)"/><path d="M0 0c.539-.693.808-1.042 1.346-1.746a.41.41 0 0 1 .213-.141.452.452 0 0 1 .478.154.392.392 0 0 1 .081.239v3.239a48.87 48.87 0 0 1-.856-.014V-.163C.724.539.456.888-.082 1.579a.404.404 0 0 1-.215.135.441.441 0 0 1-.264-.013.446.446 0 0 1-.213-.159.398.398 0 0 1-.081-.242v-3.268c.342.019.513.028.855.041z" style="fill:#f5cf2c;fill-opacity:1;fill-rule:nonzero;stroke:none" transform="translate(128.51 174.534)"/><path d="M0 0c.513-.011.769-.019 1.281-.039v1.753c-.345.014-.518.019-.864.029v-.98l-.07.002c-.633.016-.95.294-.95.847V2c0 .565.33.847.988.83.358-.01.538-.016.896-.03v.781A49.66 49.66 0 0 1 0 3.619c-.989.021-1.483-.591-1.483-1.797C-1.483.615-.989.02 0 0" style="fill:#f5cf2c;fill-opacity:1;fill-rule:nonzero;stroke:none" transform="translate(132.521 172.655)"/><path d="M0 0c.538-.748.807-1.125 1.345-1.884a.46.46 0 0 1 .212-.162.439.439 0 0 1 .264-.023.368.368 0 0 1 .294.359v3.239c-.343.033-.513.047-.855.074V-.292C.724.465.455.841-.082 1.587a.466.466 0 0 1-.48.171.403.403 0 0 1-.212-.137.364.364 0 0 1-.081-.234v-3.269c.341-.015.512-.024.855-.045Z" style="fill:#f5cf2c;fill-opacity:1;fill-rule:nonzero;stroke:none" transform="translate(135.067 174.477)"/><path d="m0 0 .315-.808c-.25.033-.375.048-.624.079L0 0m-.837-1.985.215.508c.504-.057.755-.088 1.257-.156l.106-.276h.007l.111-.29c.347-.048.522-.072.867-.125C1.183-.878.911-.156.367 1.28a.444.444 0 0 1-.149.183.494.494 0 0 1-.22.087.378.378 0 0 1-.218-.033.327.327 0 0 1-.146-.146 1095.52 1095.52 0 0 1-1.345-3.27 4.61 4.61 0 0 1 .097-.01h.05c.26-.026.431-.044.727-.076" style="fill:#f5cf2c;fill-opacity:1;fill-rule:nonzero;stroke:none" transform="translate(139.165 174.269)"/><path d="M0 0c.334-.053.502-.08.834-.138v1.665L1.291.479h.006L1.336.39a.517.517 0 0 1 .156-.181.538.538 0 0 1 .219-.098.555.555 0 0 1 .121-.006l.002-.002a.366.366 0 0 1 .094.02.284.284 0 0 1 .154.126c.19.372.286.558.477.928v-1.64L2.747-.5v.005c.222-.045.383-.078.647-.134v3.255a.423.423 0 0 1-.092.255.546.546 0 0 1-.232.18.684.684 0 0 1-.355.047.277.277 0 0 1-.194-.134c-.326-.59-.488-.886-.814-1.481-.334.726-.501 1.086-.835 1.807a.47.47 0 0 1-.197.207.75.75 0 0 1-.355.085.35.35 0 0 1-.232-.098.288.288 0 0 1-.092-.218V.479H0z" style="fill:#f5cf2c;fill-opacity:1;fill-rule:nonzero;stroke:none" transform="translate(141.302 171.88)"/><path d="M0 0a1.237 1.237 0 0 1-.647.161c-.267 0-.474-.061-.635-.155-.518-.298-.56-.925-.56-.925a7.636 7.636 0 0 1 .46-2.004c.344-.89.735-1.294.735-1.294s.389.403.733 1.287c.196.506.378 1.17.463 2.011 0 0-.041.618-.549.919" style="fill:#f5cf2c;fill-opacity:1;fill-rule:nonzero;stroke:none" transform="translate(131.877 189.477)"/><path d="m0 0 4.56-4.228a23.599 23.599 0 0 1-.738 1.769C2.89-.498 2.034.891 1.219 2.18.762 2.901.318 3.592-.12 4.334l-.001.001.002-.001v.001c.008-.004.838-.408 1.675-.41.381 0 .762.083 1.069.324.361.283.567.607.675.946.187.588.078 1.221-.041 1.767-.187.856.463 1.628.47 1.636-.024-.007-1.696-.48-2.674-1.335A8.968 8.968 0 0 1-.756 5.056c-.345-.608-.593-1.256-.63-1.884a4.749 4.749 0 0 0-.183-1.057C-1.864 1.11-2.473.329-3.217-.402h-.001c-.746.734-1.354 1.522-1.647 2.534-.017.056-.036.11-.05.168a4.388 4.388 0 0 0-.064.295l-.003.018c-.006.033-.01.068-.015.102-.024.147-.041.3-.051.457a3.33 3.33 0 0 1-.091.586c-.11.447-.309.894-.554 1.321a8.834 8.834 0 0 1-1.795 2.184 4.03 4.03 0 0 1-.397.303 7.078 7.078 0 0 1-1.094.595 10.315 10.315 0 0 1-1.185.437 2.529 2.529 0 0 0 .404-.744c.088-.262.135-.571.065-.892-.082-.377-.159-.795-.138-1.211.008-.169.035-.337.082-.503l.007-.027c.017-.059.038-.117.061-.173.119-.285.314-.557.622-.799.307-.241.689-.324 1.07-.324.304.001.608.054.872.123.132.034.253.072.36.108.267.092.441.177.445.179l-.001-.001c-.431-.729-.867-1.408-1.314-2.115-.823-1.301-1.686-2.698-2.629-4.678a17.655 17.655 0 0 1-.259-.573 33.169 33.169 0 0 1-.478-1.196L-6.436 0l-1.241-6.313 4.459 4.701 4.459-4.701z" style="fill:#fff;fill-opacity:1;fill-rule:nonzero;stroke:none" transform="translate(134.448 184.438)"/><path d="M0 0c-1.661-.145-3.041-.216-4.135-.216-.732 0-1.267.165-1.611.493-.343.33-.515.845-.515 1.547v3.434c0 .753.177 1.299.532 1.639.354.34.921.51 1.704.51H0V5.903h-3.576c-.449 0-.672-.215-.672-.645V1.824c0-.165.051-.296.15-.392a.533.533 0 0 1 .387-.145c.156 0 .328.001.513.006.187.004.38.008.583.015l.609.023c.203.006.469.02.793.042.324.022.729.046 1.213.075z" style="fill:#244694;fill-opacity:1;fill-rule:nonzero;stroke:none" transform="translate(259.353 355.373)"/><path d="M0 0h-2.012v3.061h-2.795V0H-6.82v7.516h2.013V4.562h2.795v2.954H0Z" style="fill:#244694;fill-opacity:1;fill-rule:nonzero;stroke:none" transform="translate(267.066 355.265)"/><path d="M0 0h2.012v-5.475c0-.752-.178-1.297-.532-1.638-.353-.34-.921-.51-1.705-.51h-2.57c-.781 0-1.351.17-1.705.51-.354.341-.531.886-.531 1.638V0h2.011v-5.475c0-.43.225-.645.673-.645h1.676c.446 0 .671.215.671.645Z" style="fill:#244694;fill-opacity:1;fill-rule:nonzero;stroke:none" transform="translate(273.44 362.78)"/><path d="M0 0h-2.123l-2.682 4.509V0h-2.013v7.516h2.125l2.681-4.511v4.511H0Z" style="fill:#244694;fill-opacity:1;fill-rule:nonzero;stroke:none" transform="translate(283.611 355.265)"/><path d="M0 0a47.43 47.43 0 0 0-4.809-.269c-.73 0-1.267.165-1.609.494-.342.33-.516.845-.516 1.547v3.434c0 .752.178 1.298.532 1.639.355.34.922.509 1.707.509h4.023V5.851h-3.576c-.447 0-.674-.215-.674-.645V1.772c0-.165.051-.296.152-.392a.562.562 0 0 1 .409-.145c.857 0 1.64.017 2.347.054v1.555h-1.453v1.29H0z" style="fill:#244694;fill-opacity:1;fill-rule:nonzero;stroke:none" transform="translate(291.662 355.426)"/><path d="M0 0h-2.123l-2.684 4.509V0h-2.011v7.516h2.123l2.683-4.511v4.511H0Z" style="fill:#244694;fill-opacity:1;fill-rule:nonzero;stroke:none" transform="translate(299.598 355.265)"/><path d="M0 0h1.789L.895 2.523Zm-1.004-2.738h-2.184l2.965 7.516h2.237l2.961-7.516h-2.18l-.502 1.342H-.502z" style="fill:#244694;fill-opacity:1;fill-rule:nonzero;stroke:none" transform="translate(303.342 358.002)"/><path d="m0 0-1.564-2.684h-1.565L-4.695 0v-4.187h-2.014v7.515h2.125l2.236-3.973 2.235 3.973h2.127v-7.515H0Z" style="fill:#244694;fill-opacity:1;fill-rule:nonzero;stroke:none" transform="translate(315.584 359.452)"/><path d="M0 0h1.791L.895 2.523Zm-1.004-2.738h-2.182l2.963 7.516h2.235l2.963-7.516H2.797l-.504 1.342H-.502z" style="fill:#244694;fill-opacity:1;fill-rule:nonzero;stroke:none" transform="translate(324.693 358.002)"/><path d="M0 0c2.041-.107 3.426-.161 4.146-.161a.57.57 0 0 1 .411.145c.101.096.15.227.15.392v.966H2.135c-.781 0-1.352.17-1.703.51-.356.34-.532.886-.532 1.637v.321c0 .752.176 1.298.532 1.639.351.34.922.509 1.703.509h3.924V4.455H2.582c-.447 0-.67-.215-.67-.645v-.213c0-.429.223-.645.67-.645h2.014c.728 0 1.265-.165 1.609-.494.342-.329.514-.843.514-1.544V.376c0-.702-.172-1.217-.514-1.547-.344-.329-.881-.494-1.609-.494-.381 0-.783.008-1.209.023L2.359-1.6c-.761.037-1.547.087-2.359.152Z" style="fill:#244694;fill-opacity:1;fill-rule:nonzero;stroke:none" transform="translate(329.994 356.822)"/><path d="M0 0h1.789L.895 2.523Zm-1.006-2.738h-2.18l2.963 7.516h2.235l2.963-7.516h-2.18l-.502 1.342H-.504z" style="fill:#244694;fill-opacity:1;fill-rule:nonzero;stroke:none" transform="translate(339.898 358.002)"/><path d="M0 0h-2.123l-2.684 4.509V0h-2.011v7.516h2.123l2.683-4.511v4.511H0Z" style="fill:#244694;fill-opacity:1;fill-rule:nonzero;stroke:none" transform="translate(352.25 355.265)"/><path d="M0 0h-2.012v7.516h6.205V6.012H0V4.241h3.299V2.738H0Z" style="fill:#244694;fill-opacity:1;fill-rule:nonzero;stroke:none" transform="translate(358.957 355.265)"/><path d="M0 0c0 .429-.223.644-.668.644H-2.57c-.448 0-.67-.215-.67-.644v-3.436c0-.429.222-.644.67-.644h1.902c.445 0 .668.215.668.644Zm2.014-3.436c0-.751-.178-1.296-.532-1.638-.353-.34-.923-.509-1.705-.509h-2.795c-.783 0-1.349.169-1.703.509-.355.342-.531.887-.531 1.638V0c0 .752.176 1.297.531 1.637.354.34.92.51 1.703.51h2.795c.782 0 1.352-.17 1.705-.51.354-.34.532-.885.532-1.637Z" style="fill:#244694;fill-opacity:1;fill-rule:nonzero;stroke:none" transform="translate(368.963 360.74)"/><path d="M0 0c0 .429-.225.644-.672.644h-1.9c-.448 0-.67-.215-.67-.644v-3.436c0-.429.222-.644.67-.644h1.9c.447 0 .672.215.672.644Zm2.012-3.436c0-.751-.178-1.296-.532-1.638-.353-.34-.921-.509-1.705-.509H-3.02c-.783 0-1.349.169-1.703.509-.355.342-.533.887-.533 1.638V0c0 .752.178 1.297.533 1.637.354.34.92.51 1.703.51h2.795c.784 0 1.352-.17 1.705-.51.354-.34.532-.885.532-1.637Z" style="fill:#244694;fill-opacity:1;fill-rule:nonzero;stroke:none" transform="translate(377.125 360.74)"/><path d="M0 0h-2.012v6.012h-2.347v1.504h6.705V6.012H0Z" style="fill:#244694;fill-opacity:1;fill-rule:nonzero;stroke:none" transform="translate(384.057 355.265)"/><path d="M0 0c0 .43-.223.644-.67.644h-2.236V-.858H-.67c.447 0 .67.214.67.643zm-.334 3.005c0 .431-.225.645-.672.645h-1.9V2.147h1.9c.447 0 .672.216.672.645zm-4.584 2.149h4.473c.73 0 1.265-.159 1.609-.479.342-.317.514-.802.514-1.453 0-.43-.098-.779-.289-1.048a1.578 1.578 0 0 0-.717-.564C1.275 1.454 1.684 1.066 1.9.451c.077-.221.112-.48.112-.772 0-.702-.17-1.219-.514-1.547-.342-.329-.879-.494-1.609-.494h-4.807z" style="fill:#244694;fill-opacity:1;fill-rule:nonzero;stroke:none" transform="translate(392.103 357.627)"/><path d="M0 0h1.787L.893 2.523Zm-1.008-2.738h-2.181l2.964 7.516h2.237l2.961-7.516h-2.18l-.504 1.342H-.504z" style="fill:#244694;fill-opacity:1;fill-rule:nonzero;stroke:none" transform="translate(397.527 358.002)"/><path d="M0 0h4.08v-1.503h-6.092v7.515H0Z" style="fill:#244694;fill-opacity:1;fill-rule:nonzero;stroke:none" transform="translate(405.072 356.768)"/><path d="M0 0h4.082v-1.503h-6.094v7.515H0Z" style="fill:#244694;fill-opacity:1;fill-rule:nonzero;stroke:none" transform="translate(411.945 356.768)"/><path d="M0 0c-1.662-.145-3.041-.216-4.135-.216-.732 0-1.267.165-1.611.493-.342.33-.516.845-.516 1.547v3.434c0 .753.178 1.299.532 1.639.355.34.921.51 1.707.51H0V5.903h-3.576c-.447 0-.672-.215-.672-.645V1.824c0-.165.051-.296.152-.392a.527.527 0 0 1 .385-.145c.156 0 .326.001.514.006.187.004.379.008.58.015l.611.023c.203.006.469.02.793.042.324.022.729.046 1.213.075z" style="fill:#244694;fill-opacity:1;fill-rule:nonzero;stroke:none" transform="translate(426.2 355.373)"/><path d="M0 0h4.08v-1.503h-6.092v7.515H0Z" style="fill:#244694;fill-opacity:1;fill-rule:nonzero;stroke:none" transform="translate(429.106 356.768)"/><path d="M0 0h2.012v-5.475c0-.752-.176-1.297-.53-1.638-.353-.34-.921-.51-1.705-.51h-2.572c-.779 0-1.35.17-1.703.51-.354.341-.531.886-.531 1.638V0h2.011v-5.475c0-.43.223-.645.672-.645H-.67c.447 0 .67.215.67.645z" style="fill:#244694;fill-opacity:1;fill-rule:nonzero;stroke:none" transform="translate(438.998 362.78)"/><path d="M0 0c0 .43-.223.644-.672.644h-2.234V-.858h2.234c.449 0 .672.214.672.643zm-.336 3.005c0 .431-.223.645-.67.645h-1.9V2.147h1.9c.447 0 .67.216.67.645zm-4.582 2.149h4.471c.732 0 1.267-.159 1.611-.479.342-.317.512-.802.512-1.453 0-.43-.096-.779-.289-1.048a1.563 1.563 0 0 0-.715-.564C1.273 1.454 1.684 1.066 1.9.451c.075-.221.114-.48.114-.772 0-.702-.172-1.219-.516-1.547-.342-.329-.879-.494-1.609-.494h-4.807z" style="fill:#244694;fill-opacity:1;fill-rule:nonzero;stroke:none" transform="translate(447.272 357.627)"/><path d="M0 0v-9.659h3.992v8.184h3.403v3.699H2.182L0 0" style="fill:#244694;fill-opacity:1;fill-rule:nonzero;stroke:none" transform="translate(287.144 390.342)"/><path d="M0 0v-10.595h3.992v9.12h3.403v3.699H2.184L0 0" style="fill:#244694;fill-opacity:1;fill-rule:nonzero;stroke:none" transform="translate(334.557 390.342)"/><path d="M0 0h-5.211l-2.184-2.224v-10.595h3.993v9.12H0Z" style="fill:#244694;fill-opacity:1;fill-rule:nonzero;stroke:none" transform="translate(319.09 392.566)"/><path d="M0 0v3.696h-7.574v8.187h-5.122l1.13-1.736V0z" style="fill:#244694;fill-opacity:1;fill-rule:nonzero;stroke:none" transform="translate(284.986 380.684)"/><path d="M0 0v.634h5.24v-2.958H0Zm-3.99-5.57H9.233v9.451H-3.99Z" style="fill:#244694;fill-opacity:1;fill-rule:nonzero;stroke:none" transform="translate(281.904 375.531)"/><path d="M0 0h-4.187v-7.579h14.193v3.698H0Z" style="fill:#244694;fill-opacity:1;fill-rule:nonzero;stroke:none" transform="translate(328.725 378.02)"/><path d="M0 0c1.245 0 2.256-.882 2.256-1.968 0-1.085-1.011-1.968-2.256-1.968-1.242 0-2.254.883-2.254 1.968C-2.254-.882-1.242 0 0 0m-9.947 3.954h8.088V2.903c-2.2-.706-3.783-2.62-3.783-4.871 0-2.848 2.531-5.165 5.642-5.165 3.113 0 5.645 2.317 5.645 5.165 0 2.3-1.652 4.252-3.926 4.918l.241.005v.999h8.065v3.497H-9.947Z" style="fill:#244694;fill-opacity:1;fill-rule:nonzero;stroke:none" transform="translate(260.992 376.654)"/><path d="m0 0-2.184-2.224v-10.595h3.995v9.12h3.4V0Z" style="fill:#244694;fill-opacity:1;fill-rule:nonzero;stroke:none" transform="translate(447.475 392.566)"/><path d="M0 0h-7.572v5.427H0v3.697h-12.695l1.131-1.736V-3.696H0Z" style="fill:#244694;fill-opacity:1;fill-rule:nonzero;stroke:none" transform="translate(443.133 383.443)"/><path d="M0 0h-3.994v-7.579H9.23v3.247H0Z" style="fill:#244694;fill-opacity:1;fill-rule:nonzero;stroke:none" transform="translate(440.055 378.02)"/><path d="M0 0c-1.998 0-3.625 1.656-3.625 3.691 0 2.037 1.627 3.693 3.625 3.693s3.625-1.656 3.625-3.693C3.625 1.656 1.998 0 0 0m0 10.921c-3.914 0-7.098-3.244-7.098-7.23S-3.914-3.539 0-3.539c3.914 0 7.098 3.244 7.098 7.23S3.914 10.921 0 10.921" style="fill:#244694;fill-opacity:1;fill-rule:nonzero;stroke:none" transform="translate(302.74 382.22)"/><path d="m0 0 3.508 4.077L7.014 0h4.978L7.977 4.244h3.882v3.499H5.527l-.699 2.728H.789l.697-2.728h-6.332V4.244h3.883L-4.979 0Z" style="fill:#244694;fill-opacity:1;fill-rule:nonzero;stroke:none" transform="translate(257.525 384.823)"/><path d="M343.027 374.523h19.975v3.497h-19.975zM355.137 383.449h-4.244v5.469h4.244zm6.23 0h-2.236v5.469h2.236v3.703h-16.705v-3.703h2.238v-5.469h-2.238v-3.702h16.705z" style="fill:#244694;fill-opacity:1;fill-rule:nonzero;stroke:none"/><path d="M0 0h4.977L-.57 9.283v3.536h-4.039V9.283L-10.156 0h4.978l2.588 5.026z" style="fill:#244694;fill-opacity:1;fill-rule:nonzero;stroke:none" transform="translate(327.828 379.747)"/><path d="M0 0h7.961v-1.727H1.5v-3.698h12.621v-3.881h4.217v7.579h-6.559V0h8.194v3.498H0Z" style="fill:#244694;fill-opacity:1;fill-rule:nonzero;stroke:none" transform="translate(387.31 379.747)"/><path d="m0 0 3.508 4.545L7.016 0h4.978L7.979 4.712h3.88v3.499H5.527l-.697 2.728H.789l.699-2.728h-6.332V4.712h3.881L-4.979 0Z" style="fill:#244694;fill-opacity:1;fill-rule:nonzero;stroke:none" transform="translate(393.79 384.356)"/><path d="M0 0h6.354v3.498H-6.357V4.71H6.354V10.65L4.17 12.874h-14.52V9.171H2.361V7.967H-10.35V0h6.356v-1.727h-7.99v-3.497H7.988v3.497H0z" style="fill:#244694;fill-opacity:1;fill-rule:nonzero;stroke:none" transform="translate(377.309 379.747)"/><path d="M0 0c-.854.868-1.33 1.355-2.184 2.224h-14.521v-3.696h12.711v-5.68H-18.34v-3.498h7.99v-5.692h3.993v5.692h7.99v3.498H0z" style="fill:#244694;fill-opacity:1;fill-rule:nonzero;stroke:none" transform="translate(427.912 390.397)"/><path d="M0 0h-9.863v6.207h9.254L0 5.728Zm-18.357 12.085 1.527-2.24v-24.431h6.967v8.601H0v-8.601h6.965V8.673l-2.694 3.412z" style="fill:#244694;fill-opacity:1;fill-rule:nonzero;stroke:none" transform="translate(344.023 317.904)"/><path d="M0 0v24.431l-1.527 2.24h21.054l2.694-3.412v-5.238h-6.965v2.993H6.967V6.451h8.289v2.871h6.965V0z" style="fill:#244694;fill-opacity:1;fill-rule:nonzero;stroke:none" transform="translate(300.098 303.318)"/><path d="m0 0 1.529-2.24v-24.431H23.75V-17.349h-6.967v-2.871H8.496v14.563h8.287V-8.65h6.967V-3.412L21.055 0Z" style="fill:#244694;fill-opacity:1;fill-rule:nonzero;stroke:none" transform="translate(381.412 329.989)"/><path d="m0 0 1.529-2.24v-24.431h6.967v8.601h15.256v5.985H8.496v6.428h15.256v2.245L21.055 0Z" style="fill:#244694;fill-opacity:1;fill-rule:nonzero;stroke:none" transform="translate(354.35 329.989)"/><path d="M0 0c-1.494-.134-2.732-.201-3.719-.201-.656 0-1.138.154-1.447.462-.309.308-.463.79-.463 1.447v3.217c0 .704.16 1.215.477 1.532.32.319.83.478 1.535.478H0V5.529h-3.217c-.4 0-.601-.201-.601-.604V1.708c0-.153.045-.276.134-.367a.475.475 0 0 1 .346-.135c.143 0 .295.002.463.005.168.002.344.009.523.015l.547.02c.186.006.422.02.715.04.291.021.654.044 1.09.071z" style="fill:#244694;fill-opacity:1;fill-rule:nonzero;stroke:none" transform="translate(305.38 289.779)"/><path d="M0 0h-1.811v2.864h-2.511V0h-1.809v7.036h1.809V4.272h2.511v2.764H0Z" style="fill:#244694;fill-opacity:1;fill-rule:nonzero;stroke:none" transform="translate(312.316 289.678)"/><path d="M0 0h1.809v-5.125c0-.704-.159-1.214-.477-1.533-.32-.318-.83-.478-1.533-.478h-2.313c-.703 0-1.213.16-1.533.478-.316.319-.476.829-.476 1.533V0h1.808v-5.125c0-.402.201-.604.604-.604h1.509c.401 0 .602.202.602.604z" style="fill:#244694;fill-opacity:1;fill-rule:nonzero;stroke:none" transform="translate(318.045 296.713)"/><path d="M0 0h-1.908L-4.32 4.221V0h-1.811v7.036h1.91l2.412-4.222v4.222H0Z" style="fill:#244694;fill-opacity:1;fill-rule:nonzero;stroke:none" transform="translate(327.19 289.678)"/><path d="M0 0a41.077 41.077 0 0 0-4.322-.251c-.657 0-1.139.153-1.448.462-.308.308-.462.79-.462 1.447v3.217c0 .704.16 1.214.478 1.532.318.319.83.477 1.533.477h3.616V5.479H-3.82c-.401 0-.604-.202-.604-.604V1.658c0-.154.045-.276.137-.367a.503.503 0 0 1 .365-.135c.774 0 1.475.016 2.113.051v1.456h-1.308v1.206H0z" style="fill:#244694;fill-opacity:1;fill-rule:nonzero;stroke:none" transform="translate(334.428 289.83)"/><path d="M0 0h-1.91l-2.412 4.221V0h-1.809v7.036h1.908l2.412-4.222v4.222H0Z" style="fill:#244694;fill-opacity:1;fill-rule:nonzero;stroke:none" transform="translate(341.565 289.678)"/><path d="M0 0h1.609L.805 2.363Zm-.902-2.563h-1.961l2.664 7.036h2.01l2.664-7.036H2.516l-.453 1.257H-.451z" style="fill:#244694;fill-opacity:1;fill-rule:nonzero;stroke:none" transform="translate(344.93 292.24)"/><path d="m0 0-1.406-2.512h-1.408L-4.221 0v-3.92h-1.808v7.035h1.91l2.01-3.719L-.1 3.115h1.911V-3.92H0Z" style="fill:#244694;fill-opacity:1;fill-rule:nonzero;stroke:none" transform="translate(355.935 293.598)"/><path d="M0 0h1.607L.805 2.363Zm-.904-2.563h-1.961l2.664 7.036h2.01l2.664-7.036H2.514l-.453 1.257H-.453z" style="fill:#244694;fill-opacity:1;fill-rule:nonzero;stroke:none" transform="translate(364.127 292.24)"/><path d="M0 0c1.834-.1 3.076-.151 3.727-.151.156 0 .277.046.367.134a.495.495 0 0 1 .136.368v.905H1.918c-.703 0-1.215.159-1.533.477-.317.318-.477.829-.477 1.534v.301c0 .703.16 1.214.477 1.532.318.318.83.477 1.533.477h3.529V4.171H2.32c-.402 0-.603-.201-.603-.603v-.201c0-.403.201-.604.603-.604h1.809c.656 0 1.141-.154 1.447-.461.309-.31.463-.791.463-1.448V.351c0-.657-.154-1.14-.463-1.447-.306-.309-.791-.463-1.447-.463-.342 0-.703.007-1.084.02l-.926.04c-.683.034-1.39.082-2.119.142Z" style="fill:#244694;fill-opacity:1;fill-rule:nonzero;stroke:none" transform="translate(368.893 291.136)"/><path d="M0 0h1.607L.803 2.363Zm-.904-2.563h-1.959l2.662 7.036h2.012l2.662-7.036H2.512l-.453 1.257H-.453z" style="fill:#244694;fill-opacity:1;fill-rule:nonzero;stroke:none" transform="translate(377.797 292.24)"/><path d="M0 0h-1.908l-2.414 4.221V0h-1.809v7.036h1.91l2.412-4.222v4.222H0Z" style="fill:#244694;fill-opacity:1;fill-rule:nonzero;stroke:none" transform="translate(388.902 289.678)"/><path d="M0 0h-1.807v7.036H3.77V5.63H0V3.97h2.967V2.563H0Z" style="fill:#244694;fill-opacity:1;fill-rule:nonzero;stroke:none" transform="translate(394.932 289.678)"/><path d="M0 0c-1.492-.134-2.732-.201-3.719-.201-.656 0-1.138.154-1.447.462-.307.308-.463.79-.463 1.447v3.217c0 .704.16 1.215.479 1.532.318.319.83.478 1.533.478H0V5.529h-3.217c-.4 0-.601-.201-.601-.604V1.708c0-.153.045-.276.134-.367a.48.48 0 0 1 .348-.135c.141 0 .293.002.463.005.166.002.342.009.521.015l.549.02c.184.006.422.02.713.04.291.021.654.044 1.09.071z" style="fill:#244694;fill-opacity:1;fill-rule:nonzero;stroke:none" transform="translate(404.832 289.779)"/></g></svg>