<svg xmlns="http://www.w3.org/2000/svg" xml:space="preserve" x="0px" y="0px" viewBox="0 0 262 227"><path fill="#1C235A" d="M65.136-.474-.382 112.97l65.518 113.556h131.111l65.371-113.055L196.247-.474z"/><path fill="#E8343D" d="M107.53 22.226v-4.785H74.734l-55.587 96.03 55.587 96.03h111.063l55.142-96.03-54.92-96.03h-33.296l-.056 4.785 26.682 3.672 50.362 87.573-49.399 86.126H80.626L30.82 113.471l50.029-87.573z"/><path fill="#FFF" d="M129.543 15.549a137.316 137.316 0 0 1-16.898 28.931c2.816 5.304 5.188 10.58 8.005 15.884v6.148l8.894 15.69 9.116-15.69v-6.148l7.893-15.884c-3.746-4.42-7.914-9.806-11.673-16.914a95.832 95.832 0 0 1-5.337-12.017zM91.225 36.766l5.929 22.255 17.343 16.765 1.483-14.54-7.412-15.133zM168.105 36.766l-5.93 22.255-17.343 16.765-1.482-14.54 7.411-15.133zM74.956 79.31l27.683-8.123-9.672-9.793z"/><path fill="#FFF" d="m68.842 89.213-8.894 30.044 35.131-15.022-31.351 28.153 25.07 45.845 18.732-35.386 23.125 35.386h39.355l-51.585-64.762 8.672-26.038-7.949-12.407-.556 10.014-13.841-12.462z"/><path fill="#FFF" d="m200.138 104.458-15.342-5.898-6.782-17.47-19.789-11.795-17.01 15.578-1.223-9.087-9.339 33.531 10.895 15.43 10.895-15.727 4.966 6.157 12.6-3.264-20.827 21.216 23.347 43.249-5.262-32.492 6.226-7.938 16.231 9.644v-11.127l7.115-8.383v-9.94l4.669-1.929-1.37-9.755zm-25.903-6.454-14.897-11.573h15.675l-3.224 6.676 2.446 4.897z"/></svg>