<svg xmlns="http://www.w3.org/2000/svg" xmlns:xlink="http://www.w3.org/1999/xlink" xml:space="preserve" id="svg2" x="0px" y="0px" style="enable-background:new 0 0 682.4 682.4" version="1.1" viewBox="0 0 682.4 682.4"><style>.st3{fill:#ccaf61}.st5{fill:#fff}</style><g id="g8" transform="matrix(1.33333 0 0 -1.33333 0 154.827)"><g id="g10"><defs><path id="SVGID_1_" d="M-85.3-480.9h682.4v682.4H-85.3z"/></defs><clipPath id="SVGID_00000070115556481159986070000012971853373301199510_"><use xlink:href="#SVGID_1_" style="overflow:visible"/></clipPath><g id="g12" style="clip-path:url(#SVGID_00000070115556481159986070000012971853373301199510_)"><g id="g18" transform="translate(113.38 58.06)"><path id="path20" d="M386.3-197.8c0-134.6-109.2-243.8-243.8-243.8s-243.8 109.2-243.8 243.8S7.9 46 142.5 46 386.3-63.2 386.3-197.8" style="fill:#213d40"/></g><g id="g22" transform="translate(58.06 116.12)"><path id="path24" d="M197.8 0C56.7 0-58.1-114.8-58.1-255.9S56.7-511.8 197.8-511.8c141.1 0 255.9 114.8 255.9 255.9S338.9 0 197.8 0m0-12.1c134.6 0 243.8-109.2 243.8-243.8S332.5-499.7 197.8-499.7-46-390.5-46-255.9 63.2-12.1 197.8-12.1" style="fill:#c6ab60"/></g><g id="g26" transform="translate(38.618 68.138)"><path id="path28" d="M131.6-163.5c-14.1 9.9-28.9 10.3-39.8 8.5 7.2 17.1 17.8 32.3 31 45 .6 10.1 2.5 20.1 5.6 30 .9 2.9 2 5.7 3.1 8.4C93.9-95.2 66.8-134 58.7-179.3l-.1-.1h.1v-.1c10.4 8.2 22.6 14.1 35.9 16.9 12.4 2.9 25.1 2.5 37-.9" class="st3"/></g><g id="g30" transform="translate(69.873 23.751)"><path id="path32" d="m238.1-314.7 2.5-.5-.9 1c.2.1.3.1.5.2-12.4 5-23.6 12.6-32.7 22.7-8.3 9.1-13.9 19.7-17 30.9-1.3-16.1 5-28.6 11.6-37.1-5.4-.7-11-1-16.6-1-13.1 0-25.7 1.9-37.6 5.4-9-4.5-18.6-7.9-28.7-10.1-3-.6-5.9-1.1-8.9-1.5 22.5-12 48.1-18.8 75.3-18.8 18.3-.1 36 3 52.5 8.8" class="st3"/></g><g id="g34" transform="translate(76.664 70.342)"><path id="path36" d="m261.2-156-.7-2.1c15 7 22.8 19 26.9 29.1 10.6-14.2 18.4-30.5 22.8-48.2 8.4-5.6 16.1-12.2 23.1-19.8 2-2.2 4-4.6 5.8-7-1.6 46-22.6 87.1-55.1 115.4l-.6 1.6-.3-.9c-.3.3-.6.5-.9.8 1.8-13.1.7-26.5-3.4-39.4-3.7-11.4-9.8-21.3-17.6-29.5" class="st3"/></g><g id="g38" transform="translate(58.049 64.665)"><path id="path40" d="M197.8-175.3c-24.9-25-21.8-36.4-21.8-36.4 0-12.1 9.8-21.8 21.8-21.8 12.1 0 21.8 9.8 21.8 21.8v.7c.3 2.6-.3 14.1-21.8 35.7" class="st3"/></g><g id="g42" transform="translate(27.266 32.918)"><path id="path44" d="M92.9-283.5c14.1-9.1 30.2-13.8 46.5-13.8 6.1 0 12.4.7 18.5 2 34.9 7.6 61.9 31.7 74.7 62.3 6.6.4 12.8 1.9 18.7 4.3-7.3-20-3.5-43.2 11.7-60 14-15.4 33.4-23.3 52.8-23.3 14.7 0 29.5 4.6 42 13.8C325.1-332 279.3-353 228.6-353c-63.4 0-119.2 32.9-151.3 82.5 4.6-4.9 9.8-9.3 15.6-13m-10 96.4c7.2 11.2 18.3 18.9 31.3 21.7 20.3 4.4 40.5-8.5 44.9-28.9 1.6-7.3.2-14.8-3.8-21.1-4.1-6.3-10.3-10.6-17.6-12.2-5.3-1.2-10.7-.2-15.3 2.8-4.6 2.9-7.7 7.5-8.9 12.8-1.3 5.8-7 9.4-12.7 8.2-5.8-1.3-9.4-7-8.2-12.7 2.4-10.9 8.8-20.2 18.2-26.2 9.4-6 20.5-8 31.4-5.7 12.9 2.8 23.9 10.5 31.1 21.6 3.6 5.6 6 11.7 7.1 18 7.5-9.9 17.9-17.5 30-21.3-11-21.7-31.4-38.5-57-44.1-17-3.7-34.3-.5-48.9 8.8-14.6 9.4-24.7 23.9-28.3 40.9-2.9 12.9-.5 26.2 6.7 37.4m-18 11.6c-7.9-12.3-11.7-26.4-11.3-40.7-3.5 14-5.4 28.5-5.4 43.6 0 95.8 75.1 174.3 169.5 180-28-7.1-51.8-28-61.2-57.4-11-34.4-3.3-70.4 17.4-96.9-2.7-5.8-4.6-12-5.3-18.6-13.6 17.2-36.2 26.2-58.9 21.2-18.6-4.2-34.5-15.2-44.8-31.2M258.6-14.6c12.7-4.1 23-12.8 29.1-24.6 6.1-11.8 7.2-25.3 3.2-38-6.3-19.8-27.6-30.8-47.4-24.4-7.1 2.3-12.9 7.2-16.4 13.9-3.4 6.7-4.1 14.3-1.8 21.4 1.7 5.2 5.2 9.4 10 11.9s10.3 2.9 15.5 1.3c5.6-1.8 11.7 1.3 13.5 6.9 1.8 5.6-1.3 11.7-6.9 13.5-10.6 3.4-21.9 2.5-31.8-2.6S208.4-49.1 205-59.7c-6.3-19.7.5-40.5 15.4-53-12.8-1.7-24.3-7.5-33.2-15.9-13.7 20.5-18.3 46.9-10.2 72.2 10.9 33.9 47.5 52.8 81.6 41.8m150.3-158.1c0-31.3-8.1-60.8-22.2-86.6 2.9 8.1 4.7 16.7 5.1 25.5 1.1 23-6.8 45.1-22.3 62.2-24 26.6-58.5 37.9-91.5 33.6-3.8 5.4-8.4 10-13.7 13.9 21.3 3.4 40 18.4 47 40.3 5.8 18.1 4.2 37.4-4.5 54.3C299.9-16 289.1-5.4 276 1.3c76.5-20.9 132.9-90.9 132.9-174M228.6-219c-25.6 0-46.3 20.7-46.3 46.3s20.7 46.3 46.3 46.3 46.3-20.7 46.3-46.3-20.7-46.3-46.3-46.3m120.7-58.7c-20.3-18.5-51.9-17-70.4 3.4-14 15.4-12.8 39.3 2.6 53.3 11.4 10.4 29.2 9.5 39.6-1.9 7.5-8.3 6.9-21.1-1.4-28.7-4.4-4-4.7-10.7-.7-15.1s10.7-4.7 15.1-.7c8.2 7.5 13.1 17.7 13.6 28.9.5 11.1-3.3 21.8-10.8 30-13.5 14.9-34.2 19.6-52.2 13.6 2.7 6.9 4.3 14.3 4.3 22.2 0 4.9-.6 9.6-1.7 14.1 24.2 1.2 48.8-8 66.4-27.3 11.7-12.8 17.6-29.5 16.8-46.8-.8-17.3-8.3-33.3-21.2-45m-120.7-84.2c104.3 0 189.2 84.9 189.2 189.2 0 104.3-84.9 189.2-189.2 189.2-104.3 0-189.2-84.9-189.2-189.2 0-104.3 84.9-189.2 189.2-189.2" class="st3"/></g><g id="g46" transform="translate(79.99 58.06)"><path id="path48" d="M272.5-197.8c0-53.4-43.3-96.6-96.6-96.6s-96.6 43.3-96.6 96.6 43.3 96.6 96.6 96.6 96.6-43.2 96.6-96.6" style="fill:#2e533e"/></g><g id="g50" transform="translate(58.06 78.896)"><path id="path52" d="M197.8-126.8c-50.6 0-91.8-41.2-91.8-91.8 0-50.6 41.2-91.8 91.8-91.8s91.8 41.2 91.8 91.8c0 50.6-41.1 91.8-91.8 91.8m0-193.3c-55.9 0-101.5 45.5-101.5 101.5s45.5 101.5 101.5 101.5 101.5-45.5 101.5-101.5-45.5-101.5-101.5-101.5" class="st3"/></g><g id="g54" transform="translate(10.778 69.967)"><path id="path56" d="M36.7-157.3h.1c1.2-.2 2.2-.4 3-.6.8-.2 1.4-.4 1.8-.5 1.3-.5 2.2-1.3 2.8-2.4.2-.6.4-1.3.4-2.1s-.1-1.7-.3-2.8l-1.3-6.7c-.3-1.3-.6-2.4-.9-3.3-.4-.9-.8-1.6-1.3-2.2-.5-.5-1-.9-1.7-1.1-.6-.3-1.4-.4-2.2-.4-.5 0-1.3.1-2.2.2-1 .1-2.2.4-3.7.7-3.4.7-5.6 1.7-6.5 3.2-1 1.4-1.1 3.9-.4 7.2l1.2 6.2c.4 2.2 1.2 3.8 2.3 4.8 1.1.9 2.6 1.2 4.4.9h.1c.2 0 .3-.1.2-.3l-.4-1.9c0-.2-.1-.3-.3-.2-.6.1-1.1.1-1.6 0s-.8-.4-1.2-.8c-.2-.3-.4-.7-.6-1.2-.2-.5-.4-1.1-.5-1.7l-1.3-6.4c-.2-1.1-.3-2-.3-2.8 0-.8.1-1.4.2-1.8.3-.8 1.1-1.5 2.3-2 .6-.2 2.2-.6 4.7-1.1 2.6-.5 4.3-.5 5.2-.1.9.5 1.6 2 2.1 4.5l1.4 6.9c.3 1.8.3 3-.2 3.6-.2.3-.6.6-1.2.8-.5.3-1.3.5-2.2.6l-1.7-8.6c0-.2-.2-.3-.4-.2l-1.9.4c-.2 0-.3.2-.2.4l2.1 10.8v.1l.2-.1z" class="st5"/></g><g id="g58" transform="translate(9.659 69.793)"><path id="path60" d="M32.9-157.8s0-.1 0 0c0-.1 0 0 0 0zm4.3-10.6zm-10.9-6.5c.8-1.3 2.9-2.2 6.1-2.9 1.5-.3 2.7-.5 3.6-.6.9-.1 1.7-.2 2.1-.2.7 0 1.4.1 1.9.3.6.2 1 .6 1.5 1 .4.4.8 1.1 1.1 1.9.3.9.6 2 .9 3.2l1.3 6.7c.2 1 .3 1.9.3 2.7 0 .7-.1 1.3-.3 1.8-.4.9-1.2 1.6-2.3 2-.4.2-1 .3-1.7.5s-1.5.4-2.5.6l-1.9-9.9 1-.2 1.6 8.2.9.6c1-.2 1.7-.4 2.3-.7.7-.3 1.1-.6 1.4-1 .6-.9.8-2.2.4-4.2l-1.4-6.9c-.5-2.7-1.3-4.3-2.5-5-1.1-.6-2.9-.6-5.7 0-2.5.5-4.1.9-4.8 1.1-1.4.5-2.3 1.3-2.7 2.4-.2.6-.2 1.3-.2 2.1s.1 1.8.3 2.9l1.3 6.4c.1.7.3 1.4.5 1.9s.5 1 .7 1.3c.4.6 1 .9 1.6 1.1.4.1.9.1 1.4.1l.2 1c-1.4.2-2.5-.1-3.4-.8-1-.8-1.7-2.3-2.1-4.3L26-168c-.6-3.4-.5-5.6.3-6.9zm11.8-5.2c-.6 0-1.3.1-2.3.3-1 .1-2.2.4-3.7.7-3.6.7-5.9 1.8-7 3.5-1.1 1.6-1.3 4.2-.6 7.8l1.2 6.2c.5 2.4 1.3 4.1 2.6 5.2 1.3 1.1 3 1.4 5 1.1.6-.1 1-.6.9-1.2l-.4-1.9c-.1-.4-.3-.6-.4-.7-.1-.1-.4-.2-.8-.1-.5.1-.9.1-1.2 0-.3-.1-.5-.2-.8-.5-.2-.2-.4-.6-.5-1-.2-.4-.3-1-.5-1.6l-1.3-6.4c-.2-1.1-.3-1.9-.3-2.7 0-.7.1-1.2.2-1.6.2-.6.8-1.1 1.8-1.5.4-.2 1.5-.5 4.5-1.1 3.2-.6 4.3-.4 4.7-.2.4.2 1.2 1.1 1.7 4l1.4 6.9c.4 2 .1 2.8-.1 3.1-.1.1-.3.3-.9.6-.3.2-.8.3-1.3.4l-1.5-7.8c-.1-.4-.3-.6-.4-.7s-.4-.2-.8-.1l-1.9.4c-.4.1-.6.3-.7.4s-.2.4-.1.8l2.1 10.8.3.5.3.2.6.1c1.2-.2 2.2-.5 3-.7.8-.2 1.5-.4 1.9-.6 1.5-.6 2.6-1.5 3.1-2.8.3-.7.4-1.5.4-2.4 0-.9-.1-1.9-.3-3l-1.3-6.7c-.3-1.4-.6-2.5-1-3.5s-.9-1.8-1.4-2.4c-.6-.6-1.2-1-1.9-1.3-.5-.3-1.3-.5-2.3-.5" class="st5"/></g><g id="g62" transform="translate(13.988 73.199)"><path id="path64" d="M47.7-146.2c-.1-.1-.2-.2-.3-.1l-17.7 6.1c-.2.1-.3.2-.2.3l.5 1.4c0 .1.2.2.4.1l17.7-6.1c.2-.1.2-.2.2-.3l-.6-1.4z" class="st5"/></g><g id="g66" transform="translate(14.002 73.428)"><path id="path68" d="m30.3-139.9 16.8-5.8.2.5-16.8 5.8-.2-.5zm17.1-7.5c-.1 0-.2 0-.4.1l-17.7 6.1c-.4.1-.5.4-.6.5v.7l.5 1.4c.1.3.3.5.6.6.2.1.4 0 .7 0l17.7-6.1c.4-.1.5-.3.6-.5v-.7l-.5-1.4c-.1-.4-.5-.7-.9-.7" class="st5"/></g><g id="g70" transform="translate(18.135 82.23)"><path id="path72" d="M61.8-115.5c-.1-.2-.2-.2-.4-.1l-15 7.9-.3-.5L56.7-125v-.2l-.6-1.2s0-.1-.1-.1l-19.8-.6-.3-.5 15-7.9c.2-.1.2-.2.1-.4l-.9-1.7c-.1-.2-.2-.2-.4-.1L33.2-129c-.2.1-.2.2-.1.4l2.1 3.9c0 .1.1.1.1.1l18.1.5-9.6 15.5v.2l1.9 3.7c.1.1.2.1.4 0l16.5-8.8c.2-.1.2-.2.1-.3l-.9-1.7z" class="st5"/></g><g id="g74" transform="translate(18.129 82.351)"><path id="path76" d="m33.9-128.6 15.7-8.4.5.9-14.6 7.7-.3 1 .3.5.6.4 19.4.6.4.7-10.3 16.5v.7l.3.5 1 .3 14.6-7.7.5.9-15.7 8.3-1.6-3 9.4-15.2-.6-1.1-17.7-.5-1.9-3.1zm15.9-10c-.2 0-.3 0-.5.1l-16.5 8.8c-.5.3-.7.9-.4 1.4l2.1 3.9.3.4.4.1 16.8.5-9 14.6c0 .2-.1.4.1.8l1.9 3.7.5.5c.2.1.5.1.8-.1l16.5-8.8c.6-.3.7-.9.4-1.3l-.9-1.7c-.2-.3-.4-.5-.6-.5-.2-.1-.4-.1-.8.1L47.4-109l9.8-15.7c.1-.2 0-.5-.1-.8l-.6-1.2-.3-.4-.4-.1-18.1-.6 13.4-7.1c.5-.3.7-.8.4-1.4l-.9-1.7c-.1-.4-.4-.6-.8-.6" class="st5"/></g><g id="g78" transform="translate(20.464 90.759)"><path id="path80" d="M69.7-86.4c-.4.3-.8.5-1.2.6-.4.1-.8 0-1.2-.2-.3-.1-.6-.4-1-.7-.3-.3-.7-.7-1.1-1.2l-6.5-8 4.8-3.9 6.5 8c.8 1 1.3 1.8 1.4 2.4.1.4.1.9-.1 1.2-.2.4-.5.7-.9 1.1l-.7.7zm2.3-6.8-6.5-8.1 6-4.9c.1-.1.1-.3 0-.4l-1.3-1.6c-.1-.1-.2-.2-.4 0L55.4-96.5c-.2.1-.2.3-.1.4l8 9.9c.7.9 1.4 1.6 2.1 2.1.7.5 1.4.8 2.1.9.7.1 1.4 0 2.2-.3.8-.3 1.6-.8 2.5-1.5 2.6-2.2 2.5-4.9-.2-8.2" class="st5"/></g><g id="g82" transform="translate(18.204 88.643)"><path id="path84" d="m62-93.6 3.7-3 6 7.5c.9 1.1 1.2 1.8 1.3 2.1 0 .3 0 .5-.1.7-.1.3-.4.6-.7.8l-.7.6c-.3.3-.6.4-.9.5-.2.1-.5 0-.8-.1-.2-.1-.5-.3-.8-.6-.3-.3-.7-.7-1-1.1l-6-7.4zm3.3-4.6-4.8 3.9-.1 1 6.5 8c.4.5.8 1 1.2 1.3.4.3.8.6 1.1.8.6.3 1.1.3 1.7.2.5-.1 1-.4 1.5-.8l.7-.6c.5-.4.9-.8 1.1-1.3.3-.5.3-1.1.2-1.7-.2-.7-.7-1.6-1.6-2.7l-6.5-8-1-.1zm8-6.5zM58.4-94.1l13.8-11.2.7.9-5.7 4.6-.1 1 6.5 8.1c3.2 4 1.7 6 .2 7.1-.8.7-1.6 1.1-2.3 1.4-.7.3-1.3.4-1.8.3-.5-.1-1.1-.3-1.7-.8-.6-.5-1.3-1.1-2-2l-7.6-9.4zM72-105.6zm.3-1.3c-.2 0-.4 0-.6.2L57.2-94.9c-.5.4-.5 1-.2 1.4l8 9.9c.7.9 1.5 1.7 2.3 2.2.8.6 1.6.9 2.4 1 .8.1 1.6-.1 2.5-.4.9-.3 1.8-.9 2.7-1.6 2-1.7 3.7-4.6 0-9.2l-6.1-7.5 5.5-4.4c.3-.2.4-.5.4-.7 0-.2 0-.5-.2-.8l-1.3-1.6c-.2-.3-.5-.4-.7-.4-.1.1-.1.1-.2.1" class="st5"/></g><g id="g86" transform="translate(27.57 96.433)"><path id="path88" d="M93.9-67.1c-.7.8-1.3 1.4-1.8 1.9-.6.5-1.1.9-1.5 1-.8.4-1.6.4-2.5-.1-.7-.4-2-1.3-3.7-2.8L82.2-69c-1.7-1.5-2.8-2.6-3.3-3.3-.6-.8-.7-1.6-.5-2.5.3-.9 1.1-2.2 2.5-3.7l1.1-1.3c1.4-1.6 2.5-2.6 3.3-3 .8-.4 1.7-.3 2.5.1.7.4 2 1.3 3.7 2.8l2.2 1.9c1.7 1.5 2.8 2.5 3.3 3.2.6.8.8 1.6.5 2.5-.1.5-.4 1-.8 1.6-.4.6-1 1.3-1.7 2.1l-1.1 1.5zm5-2.3c.5-.8.9-1.5 1.1-2.2.2-.7.2-1.3.1-2s-.3-1.3-.7-1.9c-.3-.5-.8-1.1-1.4-1.8-.6-.7-1.5-1.5-2.5-2.3l-2.2-1.9c-2.3-2-4.1-3.2-5.4-3.6-1.4-.4-2.8-.2-4.2.7-.5.3-1.1.9-1.9 1.6-.7.8-1.6 1.7-2.6 2.9-.8 1-1.5 1.8-2.1 2.6-.5.8-.9 1.5-1.1 2.2-.2.7-.2 1.3-.1 2s.3 1.3.7 2c.6 1 1.9 2.4 4 4.2l2.2 1.9c2.2 1.9 4 3.1 5.4 3.5.7.2 1.4.3 2.1.1.7-.1 1.4-.4 2.1-.9.5-.4 1.1-.9 1.8-1.6.7-.7 1.6-1.7 2.7-2.9.8-.9 1.5-1.8 2-2.6" class="st5"/></g><g id="g90" transform="translate(26.55 97.016)"><path id="path92" d="M90.5-65.1c-.3 0-.6-.1-1-.3-.5-.2-1.5-.9-3.5-2.7L83.7-70c-1.7-1.4-2.7-2.5-3.2-3.1-.5-.6-.6-1.2-.4-1.8.3-.8 1-2 2.3-3.5l1.1-1.3c1.3-1.5 2.3-2.4 3.1-2.8.6-.3 1.2-.2 1.9.1.7.3 1.9 1.2 3.5 2.7l2.2 1.9c2.1 1.8 2.8 2.7 3.1 3.1.5.6.6 1.2.4 1.8-.1.5-.4.9-.7 1.5-.4.6-1 1.3-1.6 2l-1.1 1.3c-.7.8-1.3 1.4-1.8 1.9-.5.4-.9.7-1.3.9-.1.1-.4.2-.7.2m-3-19c-.5 0-.9.1-1.4.3-1 .5-2.2 1.5-3.6 3.2l-1.1 1.3c-1.4 1.7-2.3 3-2.6 4-.4 1.1-.2 2.1.6 3.1.5.7 1.6 1.8 3.4 3.4L85-67c1.8 1.5 3 2.5 3.8 2.9 1.4.7 2.5.4 3.2 0 .4-.2 1-.6 1.6-1.1.6-.5 1.2-1.2 1.9-2l1.1-1.3c.7-.8 1.3-1.5 1.7-2.2.5-.7.8-1.3.9-1.9.2-.6.4-1.8-.6-3.1-.5-.7-1.6-1.8-3.4-3.3L93-80.9c-1.8-1.5-3-2.5-3.8-2.9-.5-.2-1.1-.3-1.7-.3m-9.3 12c-.3-.6-.5-1.1-.6-1.7-.1-.6 0-1.1.1-1.7.1-.5.5-1.2 1-1.9.5-.8 1.2-1.6 2-2.6 1-1.2 1.9-2.1 2.6-2.9.7-.7 1.3-1.2 1.8-1.5 1.2-.8 2.4-1 3.6-.6 1.2.3 2.9 1.5 5.2 3.4l2.2 1.9c1 .9 1.8 1.6 2.4 2.3.6.6 1.1 1.2 1.4 1.7v.1c.3.5.5 1 .6 1.6.1.6.1 1.1-.1 1.7-.2.6-.5 1.2-1 2s-1.2 1.6-2 2.6c-1 1.2-1.9 2.1-2.6 2.8-.7.7-1.3 1.3-1.7 1.6-.6.4-1.2.6-1.8.7-.6.1-1.2.1-1.7-.1-1.3-.4-3-1.5-5.1-3.4L82.3-68c-2.2-1.8-3.5-3.1-4.1-4.1zm9.3-14.6c-1.1 0-2.2.3-3.2 1-.6.4-1.2.9-2 1.7-.8.8-1.7 1.8-2.7 2.9-.9 1-1.6 1.9-2.1 2.7-.6.9-1 1.6-1.2 2.4-.2.8-.2 1.5-.1 2.3.1.7.4 1.5.8 2.3.7 1.1 2 2.5 4.1 4.4l2.2 1.9c2.3 2 4.2 3.2 5.7 3.7.8.2 1.6.3 2.4.2.8-.1 1.6-.5 2.4-1 .5-.4 1.1-1 1.9-1.7.8-.8 1.7-1.7 2.7-2.9.8-1 1.5-1.9 2.1-2.7.6-.9 1-1.7 1.2-2.4.2-.8.2-1.5.1-2.3-.1-.7-.4-1.5-.8-2.2-.3-.6-.9-1.2-1.5-1.9-.7-.7-1.5-1.5-2.5-2.4l-2.2-1.9c-2.4-2.1-4.3-3.3-5.7-3.7-.6-.3-1.1-.4-1.6-.4" class="st5"/></g><g id="g94" transform="translate(31.169 100.692)"><path id="path96" d="m106.2-52.6 2.9-4.8 11.7 7c.1.1.3 0 .4-.1l1-1.6c.1-.2.1-.3-.1-.4l-11.7-7 4.3-7.2c.1-.2.1-.3-.1-.4l-1.6-1c-.2-.1-.3-.1-.4.1L103-52c-.1.2-.1.3.1.4l13.9 8.4c.1.1.3 0 .4-.1l1-1.6c.1-.2.1-.3-.1-.4l-12.1-7.3z" class="st5"/></g><g id="g98" transform="translate(33.697 102.686)"><path id="path100" d="M114.8-45.8zm-13.5-8.1 9.2-15.3.9.5-4.1 6.8.2 1 11.2 6.8-.5.9-11.3-6.8-1 .3-2.9 4.8.3 1 11.6 7-.5.9-13.1-7.9zm9-16.9c-.3 0-.6.2-.8.5l-9.6 16c-.2.3-.2.6-.1.8 0 .2.2.4.5.6l13.9 8.4.7.1c.2 0 .4-.2.7-.5l1-1.6c.4-.6.1-1.2-.3-1.4l-11.4-6.9 2.1-3.5 11 6.6.7.1c.2 0 .4-.2.6-.5l1-1.6c.3-.5.2-1.1-.3-1.4l-11-6.6 3.9-6.5c.3-.5.2-1.1-.3-1.4l-1.6-1c-.4-.2-.6-.2-.7-.2" class="st5"/></g><g id="g102" transform="translate(42.286 104.476)"><path id="path104" d="M144.1-39.7c-.4 1-.7 1.8-1.1 2.5-.3.7-.7 1.2-1.1 1.5-.6.7-1.3.9-2.4.8-.8-.1-2.3-.6-4.4-1.4l-2.7-1.1c-2.1-.8-3.5-1.5-4.2-1.9-.8-.6-1.3-1.3-1.3-2.2 0-1 .3-2.4 1.1-4.4l.6-1.6c.7-1.9 1.5-3.2 2.1-3.9.6-.6 1.4-.9 2.4-.7.8.1 2.3.6 4.4 1.4l2.7 1.1c2.1.8 3.5 1.5 4.2 1.9.8.6 1.3 1.3 1.3 2.2.1.5 0 1.1-.2 1.8s-.5 1.6-.9 2.5l-.5 1.5zm3.9-3.8c.2-.9.3-1.7.3-2.4-.1-.7-.3-1.3-.6-1.9-.3-.6-.8-1.1-1.3-1.5-.5-.4-1.1-.8-2-1.2-.8-.4-1.9-.9-3.1-1.4l-2.8-1.1c-2.9-1.1-5-1.6-6.3-1.5-1.5.1-2.7.8-3.7 2.1-.4.5-.8 1.2-1.2 2.2-.4 1-.9 2.2-1.5 3.6-.5 1.2-.8 2.3-1.1 3.2-.2.9-.3 1.7-.3 2.4.1.7.3 1.3.6 1.9.3.6.8 1.1 1.3 1.6.9.8 2.6 1.6 5.2 2.6l2.8 1.1c2.8 1.1 4.9 1.6 6.3 1.5.7 0 1.4-.2 2-.6.6-.3 1.2-.9 1.7-1.5.3-.5.7-1.2 1.2-2.2.5-1 1-2.2 1.5-3.6.4-1.3.7-2.4 1-3.3" class="st5"/></g><g id="g106" transform="translate(41.382 105.391)"><path id="path108" d="M141-36.6h-.4c-.5-.1-1.7-.3-4.2-1.3l-2.7-1.1c-2.6-1-3.6-1.6-4.1-1.9-.6-.4-.9-.9-1-1.6 0-.6.1-1.8 1-4.1l.6-1.6c.7-1.8 1.4-3.1 2-3.7.5-.5 1-.6 1.8-.5.5.1 1.7.3 4.2 1.3l2.7 1c2.5 1 3.6 1.5 4 1.8.7.4 1 .9.9 1.5 0 .5 0 1-.2 1.6-.2.7-.5 1.5-.8 2.5l-.6 1.6c-.4.9-.7 1.7-1 2.4-.3.6-.6 1-.9 1.3-.2.5-.6.8-1.3.8m-7.4-17.2c-.9 0-1.7.3-2.4 1-.8.8-1.5 2.2-2.3 4.2l-.6 1.6c-.8 2-1.2 3.6-1.1 4.6 0 1.1.6 2.1 1.6 2.8.7.5 2.2 1.2 4.4 2l2.7 1.1c2.2.8 3.7 1.3 4.6 1.4 1.6.2 2.5-.4 3-1 .4-.3.8-.9 1.2-1.6.4-.7.7-1.5 1.1-2.5l.6-1.6c.4-1 .7-1.9.9-2.6.2-.8.3-1.5.2-2.1 0-.7-.3-1.8-1.6-2.7-.7-.5-2.1-1.2-4.3-2l-2.7-1c-2.2-.9-3.7-1.3-4.6-1.4-.3-.2-.5-.2-.7-.2m-5.9 14.7c-.5-.4-.9-.9-1.2-1.4-.3-.5-.4-1-.5-1.6 0-.6.1-1.3.3-2.1.2-.9.6-1.9 1-3.1.6-1.4 1.1-2.6 1.5-3.6.4-.9.8-1.6 1.1-2 .9-1.1 1.9-1.7 3.1-1.8 1.2-.1 3.2.4 6 1.5l2.8 1.1c1.2.5 2.2.9 3 1.3.8.4 1.4.8 1.8 1.1.5.4.9.8 1.1 1.3.3.5.4 1 .5 1.6 0 .6-.1 1.3-.3 2.2-.2.9-.6 1.9-1 3.1-.5 1.4-1.1 2.6-1.5 3.6-.4.9-.8 1.6-1.1 2.1-.4.6-.9 1-1.4 1.3-.5.3-1.1.4-1.7.5-1.3.1-3.3-.4-6-1.4l-2.8-1.1c-2.1-1.1-3.8-1.9-4.7-2.6zm5.8-17.2h-.4c-1.7.1-3.1.9-4.2 2.3-.4.5-.8 1.3-1.3 2.3-.4 1-1 2.2-1.5 3.7-.5 1.2-.8 2.3-1.1 3.3-.3 1-.4 1.9-.3 2.6.1.8.3 1.5.6 2.2.4.7.9 1.3 1.5 1.8 1 .8 2.7 1.7 5.3 2.7l2.8 1.1c2.9 1.1 5.1 1.6 6.6 1.5.8 0 1.6-.3 2.3-.7.7-.4 1.4-1 1.9-1.7.4-.6.8-1.3 1.2-2.3.5-1 1-2.2 1.6-3.7.5-1.2.8-2.3 1.1-3.3.2-1 .3-1.9.3-2.6-.1-.8-.3-1.5-.7-2.2-.4-.7-.9-1.3-1.5-1.8-.5-.4-1.2-.8-2.1-1.3-.9-.4-1.9-.9-3.2-1.4l-2.8-1.1c-2.7-.8-4.7-1.4-6.1-1.4" class="st5"/></g><g id="g110" transform="translate(51.214 106.597)"><path id="path112" d="M174.5-32.4c-.2 1-.4 1.9-.6 2.6-.2.7-.5 1.3-.8 1.7-.4.8-1.2 1.2-2.2 1.2-.8.1-2.3-.1-4.6-.5l-2.9-.5c-2.2-.4-3.7-.8-4.5-1.1-.9-.4-1.5-1-1.7-1.9-.2-.9-.1-2.4.2-4.5l.3-1.6c.4-2 .8-3.5 1.4-4.3.5-.7 1.3-1.1 2.3-1.2.8-.1 2.3.1 4.6.5l2.9.5c2.2.4 3.7.8 4.4 1.1.9.4 1.5 1 1.6 1.9.1.5.2 1.1.1 1.8-.1.8-.2 1.6-.4 2.7l-.1 1.6zm3.1-4.6c0-1 0-1.8-.2-2.4-.2-.7-.5-1.2-.9-1.8-.4-.5-1-.9-1.6-1.3-.5-.3-1.3-.6-2.2-.8-.9-.3-2-.5-3.3-.8l-2.9-.5c-3-.6-5.2-.7-6.5-.3-1.4.3-2.5 1.2-3.2 2.7-.3.6-.5 1.3-.8 2.4-.3 1-.5 2.3-.8 3.8-.2 1.3-.4 2.4-.4 3.3-.1 1 0 1.8.2 2.4.2.7.5 1.2.9 1.8.4.5 1 1 1.6 1.3 1 .6 2.9 1.1 5.6 1.6l2.9.6c2.9.5 5.1.6 6.4.3.7-.2 1.3-.5 1.9-.9.5-.5 1-1.1 1.4-1.8.2-.5.5-1.3.7-2.3.3-1 .5-2.3.8-3.8.2-1.4.4-2.5.4-3.5" class="st5"/></g><g id="g114" transform="translate(50.337 107.677)"><path id="path116" d="M171.5-28.8c-.6 0-1.8-.1-4.1-.5l-2.9-.5c-2.7-.5-3.8-.9-4.3-1.1-.7-.3-1.1-.8-1.3-1.4-.2-.9-.1-2.3.2-4.2l.3-1.6c.4-1.9.8-3.3 1.3-4 .4-.5.9-.8 1.7-.8.5 0 1.7 0 4.4.5l2.9.5c2.7.5 3.8.8 4.3 1.1 1 .4 1.2 1 1.2 1.3.1.5.2 1 .1 1.6-.1.7-.2 1.6-.4 2.6l-.3 1.7c-.2 1-.4 1.8-.6 2.5-.2.6-.4 1.1-.6 1.4-.3.4-.6.9-1.6.9h-.3m-8.8-15.6h-.4c-1.2.1-2.2.6-2.8 1.5-.6.9-1.1 2.4-1.5 4.6l-.3 1.6c-.4 2.2-.5 3.7-.2 4.8.2 1.1 1 1.9 2.1 2.4.8.4 2.3.7 4.7 1.2l2.9.5c2.3.4 3.9.6 4.8.5 1.6-.1 2.4-.9 2.8-1.6.3-.4.6-1 .8-1.8.2-.8.4-1.7.6-2.7l.3-1.6c.2-1 .3-1.9.4-2.7.1-.9 0-1.5-.2-2.1-.1-.7-.6-1.7-2-2.3-.8-.4-2.3-.7-4.6-1.2l-2.9-.5c-2.1-.5-3.6-.6-4.5-.6m8.6 18.1c-1.2 0-2.6-.2-4.3-.5l-2.9-.5c-2.6-.5-4.4-1-5.3-1.5l-.2-.1c-.4-.3-.9-.6-1.3-1.1-.4-.4-.6-.9-.8-1.5-.1-.6-.2-1.3-.1-2.2.1-.9.2-2 .4-3.2.3-1.5.5-2.8.8-3.8.2-1 .5-1.7.7-2.2.6-1.3 1.5-2 2.8-2.3 1.2-.3 3.3-.2 6.2.3l2.9.5c1.3.2 2.4.5 3.3.7.8.2 1.5.5 2 .8.5.3 1 .6 1.4 1.1.4.4.6.9.8 1.5.1.6.2 1.3.1 2.2 0 .9-.2 2-.4 3.2-.3 1.5-.5 2.8-.8 3.8-.3 1-.5 1.7-.7 2.2-.3.6-.7 1.2-1.2 1.5-.5.4-1 .6-1.6.8-.5.2-1.1.3-1.8.3m-8.5-20.6c-.8 0-1.5.1-2.1.2-1.6.4-2.9 1.4-3.7 3.1-.3.6-.6 1.4-.8 2.5-.3 1-.5 2.3-.8 3.9-.2 1.3-.4 2.4-.4 3.4-.1 1 0 1.9.2 2.6.2.8.6 1.4 1 2 .5.6 1.1 1.1 1.9 1.5l.2.1c1 .6 2.9 1.1 5.6 1.6l2.9.5c3 .6 5.3.6 6.8.3.8-.2 1.5-.6 2.1-1.1.6-.5 1.2-1.2 1.6-2.1.3-.6.5-1.4.8-2.5.3-1.1.6-2.4.8-3.9.2-1.3.4-2.4.4-3.4.1-1 0-1.9-.2-2.7-.2-.8-.6-1.4-1.1-2-.5-.6-1.1-1.1-1.8-1.4-.6-.3-1.4-.6-2.3-.9-.9-.3-2.1-.5-3.4-.8l-2.9-.5c-2-.2-3.5-.4-4.8-.4" class="st5"/></g><g id="g118" transform="translate(58.236 108.45)"><path id="path120" d="m198.4-26.1.3-16.5c0-.2-.1-.3-.3-.3h-1.9c-.2 0-.2.1-.2.3l-.3 16.4-8.7-.1c-.2 0-.3.1-.3.3v1.9c0 .2.1.3.3.3l19.8.3c.2 0 .3-.1.3-.3v-1.9c0-.2-.1-.3-.3-.3l-8.7-.1z" class="st5"/></g><g id="g122" transform="translate(60.106 108.985)"><path id="path124" d="M204.8-24.3zm-19-.3zm19.4-.1zM194.1-26l.7-.7.3-16h1l-.3 16 .7.7 8.3.1v1.1l-19-.3v-1.1l8.3.2zm.5-18.2c-.3 0-.5.1-.7.3-.1.1-.3.4-.3.7l-.3 15.7-7.9-.1c-.6 0-1 .4-1 1v1.9c0 .4.1.6.3.7s.4.3.7.3l19.8.3c.4 0 .6-.1.7-.3.1-.1.3-.4.3-.7v-1.9c0-.4-.1-.6-.3-.8-.1-.1-.4-.3-.7-.3l-8-.1.3-15.7c0-.6-.4-1-1-1h-1.9z" class="st5"/></g><g id="g126" transform="translate(68.274 107.281)"><path id="path128" d="M232.6-30.1c-.5.5-1.3.9-2.5 1.1l-11.7 2-.9-5.4 11.7-2c1.2-.2 2-.2 2.5.1.7.2 1.2.9 1.4 2 .2.9 0 1.7-.5 2.2m-.5-7.9c-.2.2-.6.4-1 .6-.4.2-1 .3-1.6.4l-12.4 2.2L216-41l12.5-2.2c1.2-.2 2.2-.1 2.8.3.7.4 1.1 1.2 1.3 2.3.2 1.2.1 2-.5 2.6m2-5.6c-.4-.7-1-1.2-1.7-1.6-.6-.3-1.3-.5-2.1-.5s-1.8 0-2.9.2l-13.9 2.4c-.2 0-.3.1-.2.3l3.2 18.4c0 .2.1.3.3.3l13.1-2.3c4.4-.8 6.3-2.8 5.7-6-.3-1.9-1-3.1-2.1-3.7 1.4-1 1.9-2.6 1.5-4.9-.2-1.1-.5-1.9-.9-2.6" class="st5"/></g><g id="g130" transform="translate(65.047 106.91)"><path id="path132" d="m221.6-31.4 11-1.9c1.3-.2 1.9-.1 2.1 0 .3.1.8.3 1 1.5.1.7 0 1.2-.3 1.6-.4.4-1.1.7-2.1.9l-10.9 1.9-.8-4zm12.3-3.5c-.4 0-.9 0-1.5.1l-11.7 2-.6.8.9 5.4.8.6 11.7-2c1.3-.2 2.3-.7 2.9-1.3.7-.7.9-1.7.7-2.8-.3-1.7-1.2-2.3-1.9-2.6-.3-.1-.7-.2-1.3-.2M220.1-40l11.8-2.1c1-.2 1.8-.1 2.3.2.5.3.8.9 1 1.8.2.9.1 1.6-.3 2-.2.2-.4.3-.8.5s-.9.3-1.5.4l-11.7 2-.8-4.8zm12.8-3.7c-.4 0-.8 0-1.2.1l-12.5 2.2-.6.9 1.1 6.2.8.6 12.4-2.2c.7-.1 1.3-.3 1.8-.5s.9-.5 1.2-.8c.7-.7.9-1.8.7-3.2-.2-1.3-.8-2.2-1.6-2.8-.6-.3-1.3-.5-2.1-.5zm-13 19.2zm-2.6-17.6 13.5-2.4c1-.2 1.9-.3 2.7-.2.7 0 1.3.2 1.8.4.6.3 1.1.7 1.4 1.3.4.6.7 1.4.8 2.4.3 2-.1 3.3-1.2 4.2l.1 1.2c.9.5 1.4 1.6 1.7 3.2.2 1.4 0 2.5-.8 3.3-.8.9-2.3 1.5-4.3 1.9l-12.6 2.2-3.1-17.5zm15.7-4c-.8 0-1.6.1-2.6.2l-13.9 2.4c-.6.1-.9.6-.8 1.2l3.2 18.4c.1.4.3.6.4.7.1.1.4.2.8.2l13.1-2.3c2.3-.4 4.1-1.2 5.1-2.3 1.1-1.2 1.5-2.7 1.2-4.6-.3-1.6-.8-2.9-1.7-3.7 1.1-1.2 1.4-2.8 1.1-4.9-.2-1.1-.5-2.1-1-2.9-.5-.8-1.2-1.5-2-1.9-.7-.3-1.5-.6-2.4-.6-.1.1-.3.1-.5.1" class="st5"/></g><g id="g134" transform="translate(73.868 103.58)"><path id="path136" d="m251.7-42.7 9.6-3.6-1.2 11.2-8.4-7.6zm10.7-11.4-.2.1v.1l-.6 5-12 4.5-3.7-3.4v-.1l-.1.1-2 .7c-.2.1-.2.2-.2.4 0 0 0 .1.1.1v-.1l15.5 14.3h.2l2.8-1c.1 0 .1 0 .1-.1v-.1l2.4-21v.1-.1c-.1-.2-.2-.2-.3-.2l-2 .7z" class="st5"/></g><g id="g138" transform="translate(74.18 103.641)"><path id="path140" d="m252.7-42.5 7.4-2.8-.9 8.6-6.5-5.8zm8-4.6-9.6 3.6-.2 1.2 8.4 7.7 1.2-.5 1.2-11.2-1-.8zm-14.6-1 .3-.1-.3.1zm16.5-5.5 1.1-.4-2.3 19.9-2.2.8-14.7-13.5.9-.4 3.4 3.1.8.1 12-4.5.5-.6.5-4.5zm1.6-2.1c-.1 0-.2 0-.4.1l-2.3.8-.2.5h-.2l.1.1-.1.1h-.1v.1l-.5 4.5-11.2 4.2-3.3-3.1-.2.1-.6-.3-2.1.8c-.3.1-.5.4-.6.5-.1.2-.1.4 0 .8l.3.3 15.7 14.4c.2.1.4.1.7 0l2.8-1 .5-.4.1-.3 2.4-21-.1-.5c.1-.5-.3-.7-.7-.7" class="st5"/></g><g id="g142" transform="translate(80.097 99.145)"><path id="path144" d="M272.9-57.8c-.2.1-.2.2-.1.4l9.4 16.2c.1.2.2.2.4.1l1.7-1c.2-.1.2-.2.1-.4l-8.3-14.2 11.6-6.7c.2-.1.2-.2.1-.4l-1-1.7c-.1-.2-.2-.2-.4-.1l-13.5 7.8z" class="st5"/></g><g id="g146" transform="translate(82.21 102.781)"><path id="path148" d="M280.1-45.4zm4.9-21.8zm-13.4 6.1 12.7-7.4.5.9-11.2 6.6-.3 1 8.1 13.9-.9.5-8.9-15.5zm12.9-9c-.2 0-.4 0-.5.1l-13.5 7.8c-.3.2-.4.4-.5.6 0 .2-.1.4.1.8l9.4 16.2c.2.3.4.5.6.5.3.1.5 0 .8-.1l1.7-1c.3-.2.4-.4.5-.6 0-.2.1-.5-.1-.8l-7.9-13.6 11-6.4c.3-.2.4-.4.5-.6 0-.2.1-.5-.1-.8l-1-1.7c-.4-.2-.7-.4-1-.4" class="st5"/></g><g id="g150" transform="translate(86.113 95.288)"><path id="path152" d="M293.4-71c-.1.1-.2.2 0 .4l11.7 14.5c.1.2.3.2.4.1l1.5-1.2c.1-.1.1-.3 0-.4l-10.3-12.8 10.4-8.4c.1-.1.2-.2 0-.4l-1.2-1.5c-.1-.1-.2-.2-.4 0L293.4-71z" class="st5"/></g><g id="g154" transform="translate(89.095 98.287)"><path id="path156" d="M303.6-60.8zm-12.7-12.6zm12.8-9zm-12.5 8.7 11.4-9.2.6.8-10 8.1-.1 1 10.1 12.5-.8.6-11.2-13.8zm11.6-10.9c-.2 0-.4 0-.6.2L290-74.5c-.5.4-.5.9-.2 1.4l11.7 14.5c.4.5 1 .5 1.4.2l1.5-1.2c.3-.2.4-.5.4-.7 0-.2 0-.5-.2-.8l-9.9-12.2 9.9-8c.3-.2.4-.5.4-.7 0-.2 0-.5-.2-.7l-1.2-1.5c-.2-.3-.5-.4-.7-.4h-.1" class="st5"/></g><g id="g158" transform="translate(95.696 87.759)"><path id="path160" d="M326.1-96.6s0-.1-.1-.1c-1.5-1.4-3.1-1.9-4.6-1.5-1.2.3-2.6 1.3-4 3l-4.6 5.2c-.9 1-1.6 1.9-2.1 2.8-.5.8-.8 1.6-1 2.3-.1.7 0 1.4.1 2 .2.7.5 1.3 1.1 2 .6.8 2.1 2.2 4.3 4.1 2.6 2.3 4.8 3.4 6.5 3.2 1.7-.1 3.7-1.5 6-4l4.2-4.8c1.5-1.7 2.3-3.3 2.4-4.8.1-1.5-.6-2.8-2-4-.1-.1-.3-.1-.4 0l-1.3 1.4c-.1.1-.1.3 0 .4 1.5 1.3 1.3 3.1-.7 5.3l-4.3 4.9c-.7.8-1.4 1.5-2 2-.6.5-1.1.8-1.6 1-.9.3-1.8.1-2.9-.6-.3-.2-.8-.5-1.4-1-.6-.5-1.4-1.2-2.3-2-1-.9-1.8-1.7-2.3-2.4-.6-.7-.9-1.3-1-1.7-.1-1.1.6-2.5 2.3-4.4l4.7-5.3c1-1.1 1.8-1.8 2.5-2.1.8-.4 1.7-.1 2.7.7l.1.1c.1.1.3.1.4 0l1.3-1.4v-.3z" class="st5"/></g><g id="g162" transform="translate(96.849 89.428)"><path id="path164" d="M320.3-76c-1.5 0-3.5-1-5.8-3.1-2.2-1.9-3.6-3.3-4.2-4-.5-.6-.8-1.2-.9-1.7-.2-.6-.2-1.1-.1-1.7.1-.6.4-1.3.9-2.1s1.2-1.7 2-2.7l4.6-5.2c1.3-1.5 2.6-2.5 3.7-2.8 1.2-.3 2.4.1 3.6 1l-.6.7c-1.4-1-2.5-.9-3.2-.6-.8.3-1.7 1.1-2.8 2.2l-4.7 5.3c-1.8 2.1-2.6 3.7-2.4 5 .1.6.5 1.3 1.1 2.1.6.7 1.4 1.5 2.4 2.4.9.8 1.7 1.5 2.3 2 .7.6 1.2.9 1.5 1.1 1.2.8 2.4 1 3.5.6.6-.2 1.2-.6 1.8-1.1.6-.5 1.3-1.2 2.1-2l4.3-4.9c2.6-2.9 2-4.9.9-6.1l.6-.7c1 1 1.5 2 1.4 3.2-.1 1.3-.8 2.7-2.2 4.3l-4.2 4.8c-2.1 2.4-3.9 3.7-5.4 3.8-.1.2-.2.2-.2.2m.9-24.7c-.4 0-.8 0-1.1.1-1.4.4-2.9 1.4-4.4 3.2l-4.6 5.2c-.9 1-1.6 2-2.2 2.9-.6.9-.9 1.8-1 2.6-.1.8 0 1.6.2 2.3.2.8.6 1.5 1.2 2.3.7.8 2.1 2.2 4.4 4.2 2.8 2.4 5.1 3.6 7 3.4 1.9-.1 4.1-1.5 6.5-4.3l4.2-4.8c1.6-1.8 2.5-3.6 2.5-5.2.1-1.7-.7-3.2-2.2-4.6-.5-.4-1.1-.4-1.4 0L329-92c-.4.4-.4 1 .1 1.4.5.5 1.8 1.6-.7 4.3l-4.3 4.9c-.7.8-1.3 1.4-1.9 1.9-.5.4-1 .7-1.4.8-.6.2-1.4 0-2.3-.5-.2-.1-.6-.4-1.3-1-.6-.5-1.4-1.2-2.3-2-1-.9-1.7-1.6-2.2-2.3-.6-.7-.8-1.2-.8-1.4-.1-.5.2-1.7 2.1-3.8l4.7-5.3c.9-1 1.6-1.6 2.2-1.9.4-.2 1-.3 1.9.6.3.3.6.3.8.3.2 0 .5-.1.7-.4l1.3-1.4v-.5h.2V-98.6l-.3-.6c-1.5-1-2.9-1.5-4.3-1.5" class="st5"/></g><g id="g166" transform="translate(96.936 83.786)"><path id="path168" d="M330.3-110.2c-.1.2-.1.3.1.4l15.9 9.8c.2.1.3.1.4-.1l1-1.6c.1-.2.1-.3-.1-.4l-14-8.6 7-11.4c.1-.2.1-.3-.1-.4l-1.7-1c-.2-.1-.3-.1-.4.1l-8.1 13.2z" class="st5"/></g><g id="g170" transform="translate(100.745 85.623)"><path id="path172" d="M343.3-103.9zm-7.1-20.5zm-8.9 12.4 7.7-12.5.9.5-6.8 11 .2 1 13.7 8.4-.5.9-15.2-9.3zm7.6-14.2c-.3 0-.6.2-.8.5l-8.2 13.3c-.3.5-.2 1.1.3 1.4l15.9 9.8c.5.3 1.1.2 1.4-.3l1-1.6c.2-.3.2-.6.1-.8 0-.2-.2-.4-.5-.6l-13.4-8.3 6.7-10.8c.2-.3.2-.6.1-.8 0-.2-.2-.4-.5-.6l-1.7-1c-.1-.1-.2-.2-.4-.2" class="st5"/></g><g id="g174" transform="translate(102.863 73.442)"><path id="path176" d="M350.5-145.4c-1.4.1-2.5.7-3.5 1.8-.4.5-.8 1.1-1.2 1.9-.4.8-.9 1.9-1.4 3.1l-1.1 2.7c-.5 1.2-.9 2.3-1.1 3.2-.3.9-.4 1.7-.5 2.3v.1c-.1.8 0 1.4.2 2.1.2.6.6 1.2 1 1.7.5.5 1.1 1 1.9 1.5.8.5 1.9 1 3 1.4l9.4 3.8c.2.1.3 0 .4-.1l.7-1.8c.1-.2 0-.3-.2-.4l-9.4-3.8c-1.9-.8-3.2-1.5-3.9-2.2-.6-.6-.9-1.5-.7-2.4.1-.8.6-2.3 1.4-4.4l1.1-2.7c.8-2.1 1.5-3.5 2-4.2.6-.8 1.3-1.2 2.2-1.2.5 0 1.1 0 1.8.2s1.6.5 2.5.9l9.4 3.8c.2.1.3 0 .4-.2l.7-1.7c.1-.2 0-.3-.2-.4l-9.4-3.8c-2.3-.8-4.2-1.3-5.5-1.2" class="st5"/></g><g id="g178" transform="translate(104.502 78.748)"><path id="path180" d="M356.1-127.3zm7.1-16.7zm-14.3-6c1.2 0 3 .4 5.3 1.3l9 3.6-.4.9-9-3.6c-1-.4-1.9-.7-2.6-.9-.8-.2-1.5-.3-2.1-.3-1-.1-2 .5-2.7 1.5-.5.7-1.2 2.1-2.1 4.3l-1.1 2.7c-.9 2.2-1.4 3.7-1.5 4.6-.2 1.2.1 2.2.9 3 .8.8 2.1 1.5 4.2 2.4l9 3.6-.4.9-9-3.6c-1.2-.5-2.1-.9-2.9-1.4-.8-.4-1.4-.9-1.8-1.3-.4-.4-.7-.9-.8-1.4-.2-.5-.2-1.1-.2-1.8v-.1c0-.6.2-1.3.4-2.2.3-.9.6-2 1.1-3.2l1.1-2.7c.5-1.2.9-2.2 1.4-3 .4-.8.8-1.4 1.2-1.8.8-.9 1.8-1.4 3-1.5m.2-1.5h-.3c-1.6.1-2.9.8-4 2.1l.1.1-.1-.1c-.4.5-.9 1.2-1.3 2.1-.5.9-.9 1.9-1.4 3.2l-1.1 2.7c-.5 1.3-.9 2.4-1.2 3.3-.3 1-.4 1.8-.5 2.4l.1.1c-.1.9 0 1.7.3 2.4.2.7.6 1.3 1.1 1.9.5.6 1.2 1.1 2.1 1.6.9.5 1.9 1 3.1 1.5l9.4 3.8c.4.1.6.1.8 0l.5-.5.7-1.8c.2-.5 0-1.1-.6-1.3l-9.4-3.8c-1.8-.7-3.1-1.4-3.7-2-.5-.5-.6-1-.5-1.8.1-.5.4-1.7 1.4-4.2l1.1-2.7c.8-2 1.5-3.4 1.9-4 .4-.6.9-.9 1.5-.9.5 0 1 0 1.6.2.7.2 1.5.5 2.5.9l9.4 3.8c.3.1.6.1.8 0 .2-.1.4-.2.6-.6l.7-1.8c.1-.3.1-.6 0-.8-.1-.2-.2-.4-.6-.6l-9.4-3.8c-2.4-.9-4.2-1.4-5.6-1.4" class="st5"/></g><g id="g182" transform="translate(107.647 66.302)"><path id="path184" d="M366.8-169.7c.3.7.4 1.6.1 2.7l-2.3 11.6-5.3-1.1 2.3-11.6c.2-1.2.6-2 1-2.3.5-.6 1.3-.8 2.3-.6.9.2 1.6.6 1.9 1.3m-7.5-2.4c.1.3.2.7.2 1.2s0 1-.2 1.7l-2.4 12.3-6.2-1.2 2.4-12.4c.2-1.2.7-2.1 1.3-2.5s1.5-.6 2.6-.4c1.2.1 1.9.6 2.3 1.3m-4.6-3.9c-.8.1-1.5.5-2.1 1-.5.4-.9 1-1.3 1.8-.3.8-.6 1.7-.8 2.8l-2.7 13.9c0 .2 0 .3.2.3l18.3 3.6c.2 0 .3 0 .4-.2l2.6-13c.9-4.4-.3-6.9-3.5-7.5-1.9-.4-3.3-.2-4.2.6-.4-1.7-1.8-2.7-4-3.1-1.2-.3-2.1-.3-2.9-.2" class="st5"/></g><g id="g186" transform="translate(106.142 69.18)"><path id="path188" d="m361.6-159.9 2.2-10.9c.3-1.3.6-1.8.7-1.9.2-.2.5-.6 1.7-.4.7.1 1.1.4 1.4.9.2.5.3 1.3.1 2.2l-2.1 10.9-4-.8zm4-14.8c-1.1 0-1.8.5-2.1.9-.5.4-.9 1.3-1.1 2.6l-2.3 11.6.6.9 5.4 1.1.9-.6 2.3-11.6c.3-1.3.2-2.3-.2-3.1-.4-.9-1.2-1.4-2.4-1.7-.5-.1-.8-.1-1.1-.1M353-161.6l2.3-11.7c.2-1 .5-1.7 1-2.1.5-.3 1.1-.4 2-.3.9.2 1.5.5 1.7 1 .1.2.1.5.1.9s0 .9-.2 1.5l-2.3 11.6-4.6-.9zm4.5-15.6c-.8 0-1.5.2-2.1.6-.8.6-1.3 1.6-1.6 3l-2.4 12.4.6.9 6.2 1.2.9-.6 2.4-12.3c.1-.7.2-1.3.2-1.8s-.1-1-.3-1.4v-.1c-.4-.9-1.4-1.5-2.8-1.8-.4-.1-.7-.1-1.1-.1m10 21.4zm-11.2-22.3c.7-.1 1.6-.1 2.5.1 2 .4 3.1 1.2 3.4 2.6l1.2.4c.8-.6 2-.8 3.6-.4 1.4.3 2.3.9 2.8 2s.6 2.7.2 4.7l-2.5 12.6-17.5-3.4 2.6-13.4c.2-1 .5-1.9.8-2.6.3-.7.6-1.2 1.1-1.6.6-.6 1.1-.9 1.8-1m.9-1.6c-.4 0-.8 0-1.2.1-1 .2-1.8.6-2.5 1.2-.6.5-1 1.2-1.4 2-.4.8-.6 1.8-.9 2.9l-2.7 13.9c-.1.4 0 .6.1.8.1.1.3.3.7.4l18.3 3.6c.4.1.6 0 .8-.1.2-.1.3-.3.4-.7l2.6-13c.5-2.3.4-4.2-.3-5.6-.7-1.5-2-2.4-3.8-2.8-1.6-.3-3-.2-4 .2-.7-1.4-2.1-2.4-4.2-2.8-.7 0-1.3-.1-1.9-.1" class="st5"/></g><g id="g190" transform="translate(71.802 8.9)"><path id="path192" d="M244.6-365.3c-.9-.8-2.8-1.5-5.4-2.1l-3.5-.9c-2.5-.6-4.3-.8-5.4-.5-1.6.3-2.8 1.7-3.4 3.9 0 .2 0 .3.2.3l1.8.4c.2 0 .3 0 .3-.2.2-.6.5-1.2.8-1.5.4-.4.9-.6 1.5-.6.7-.1 2 .1 3.7.5l3 .7c2.1.5 3.4 1 4.1 1.3 1.2.7 1.6 1.8 1.3 3.3-.5 2-2.2 2.7-5.2 2-.3-.1-.6-.2-1.1-.3-.4-.1-.9-.3-1.5-.5-.5-.2-1-.3-1.3-.4-.4-.1-.6-.2-.9-.3-.1 0-.2.1-.2.2l-.4 1.8c0 .2 0 .3.1.3.2 0 .4.1.8.2.3.1.8.1 1.3.2s1 .2 1.4.2c.4.1.7.1 1 .2 3.2.8 4.6 2.2 4.1 4.2-.1.6-.5 1.1-.9 1.4-.5.3-1.1.4-1.8.4-.4 0-.9 0-1.5-.2-.7-.1-1.5-.3-2.5-.6l-2.7-.7c-1.8-.4-3-.9-3.7-1.3-1-.7-1.4-1.7-1.1-3.1 0-.2 0-.3-.2-.3l-1.8-.4c-.2 0-.3 0-.3.2-.5 2.2-.2 3.9 1.1 5.1.9.9 2.6 1.6 4.9 2.2l3.5.9c1.3.3 2.5.6 3.4.7.9.1 1.7.2 2.2.1 1.9-.2 3.1-1.5 3.7-3.8.1-.6.2-1.1.3-1.5 0-.4 0-.9-.1-1.2-.2-.6-.5-1.1-1.1-1.5.8-.2 1.4-.6 1.9-1.1.2-.2.4-.6.5-1 .2-.4.3-.9.5-1.6.5-2.2.1-4-1.4-5.1" class="st5"/></g><g id="g194" transform="translate(67.396 10.875)"><path id="path196" d="M231.1-358.7zm6.6-1.6zm-5.5-6.8c.5-1.7 1.4-2.7 2.7-3 .7-.2 2.1-.3 5.1.5l3.5.9c2.6.6 4.3 1.3 5.2 2 1.2.9 1.5 2.4 1 4.6-.1.6-.3 1.1-.4 1.5-.1.3-.3.6-.4.8-.4.4-.9.7-1.6.9l-.3 1.3c.4.4.7.7.9 1.2.1.3.2.6.1.9 0 .4-.1.9-.3 1.4-.5 2-1.5 3.1-3.1 3.3-.5 0-1.2 0-2-.1-.9-.1-2-.3-3.3-.7l-3.5-.9c-2.2-.5-3.8-1.2-4.6-2-1-1-1.4-2.3-1-3.9l1 .2c-.2 1.4.3 2.6 1.5 3.4.8.5 2.1 1 3.9 1.4l2.7.7c1 .3 1.9.4 2.5.6.7.1 1.3.2 1.7.2.9 0 1.6-.2 2.2-.5.6-.4 1.1-1 1.3-1.8.3-1.2 0-2.3-.9-3.2-.8-.8-2-1.4-3.8-1.8-.3-.1-.6-.1-1-.2s-.9-.2-1.4-.2c-.5-.1-.9-.2-1.3-.2h-.2l.2-1c.1 0 .2.1.3.1l2.7.9c.5.1.9.3 1.2.3 2 .5 3.5.4 4.5-.2.8-.5 1.3-1.2 1.6-2.3.6-2.3-.6-3.5-1.6-4.1-.7-.4-2.1-.9-4.3-1.4l-2.9-.7c-1.9-.5-3.2-.6-4-.5-.7 0-1.4.3-1.9.8-.4.4-.7.9-.9 1.4l-1.1-.6zm3.9-4.5c-.6 0-1.1.1-1.5.2-1.9.4-3.2 1.9-3.9 4.5-.1.6.2 1.1.7 1.2l1.8.4c.6.1 1.1-.2 1.2-.7.1-.5.4-.9.7-1.2.2-.3.5-.4 1-.4.5-.1 1.4 0 3.6.5l3 .7c2.5.6 3.5 1 3.9 1.3.9.5 1.2 1.3.9 2.5-.2.6-.5 1.1-.9 1.4-.7.4-1.9.5-3.4.1-.3-.1-.6-.2-1-.3l-2.8-.9c-.4-.1-.7-.2-.9-.3-.4-.1-.9.1-1.1.8l-.4 1.8c-.1.3 0 .6.1.8l.6.4c.2 0 .4.1.8.2.3.1.8.1 1.3.2s1 .2 1.4.2c.4.1.7.1 1 .2 1.5.4 2.5.8 3.1 1.4.5.5.7 1.1.5 1.9-.1.4-.3.8-.6 1-.4.2-.8.3-1.4.3-.2 0-.7 0-1.4-.2-.7-.1-1.5-.3-2.5-.6l-2.7-.7c-2.1-.5-3.1-.9-3.5-1.2-.8-.5-1-1.3-.8-2.3.1-.5-.2-1-.7-1.2l-2.2-.4c-.3-.1-.6 0-.8.1-.2.1-.4.3-.4.6-.6 2.4-.1 4.4 1.3 5.8 1 1 2.8 1.8 5.3 2.4l3.5.9c1.3.3 2.5.6 3.5.7 1 .1 1.8.2 2.4.1 2.2-.3 3.7-1.7 4.3-4.4.1-.6.2-1.2.3-1.7 0-.5 0-1.1-.2-1.5-.1-.3-.3-.7-.5-1 .4-.2.8-.5 1.2-.9.3-.3.5-.7.7-1.2.2-.4.3-1 .5-1.6.7-2.7.2-4.8-1.5-6.1-1-.8-2.9-1.6-5.7-2.3l-3.5-.9c-1.8-.4-3.2-.6-4.3-.6" class="st5"/></g><g id="g198" transform="translate(63.136 7.108)"><path id="path200" d="M215.1-371.4c-.2 0-.3.1-.3.2l-1.5 15.8-3.9-4.8c-.1 0-.2-.1-.2-.1h-.2l-1.4 1.2c-.1 0-.1.1-.1.2s0 .2.1.2l4.6 6c.1.1.1.1.2.1l2.8.3c.2 0 .3-.1.3-.3l1.7-18.4c0-.2-.1-.3-.2-.3l-1.9-.1z" class="st5"/></g><g id="g202" transform="translate(62.558 11.229)"><path id="path204" d="M213.2-357.4c-.1 0-.1 0 0 0m-4.8-5.1.3-.1c-.1 0-.2.1-.3.1zm0-.3zm9.1-11.9zm-4.1 15.7 1.3-.4 1.4-15.4 1 .1-1.6 17.5-2.1-.2-4.3-5.5.7-.6 3.6 4.5zm3.7-16.1zm-1.4-1.2c-.5 0-.9.4-1 .9l-1.3 14.1-2.9-3.6c-.2-.1-.4-.2-.6-.2l-.7.2-1.2 1.1c-.2.1-.5.4-.5.8 0 .3.1.5.2.8l4.6 5.9c.3.3.5.4.7.4l2.7.3c.3 0 .6-.1.7-.2.1-.1.3-.3.4-.7l1.7-18.4c0-.4-.1-.6-.2-.7-.1-.1-.3-.3-.7-.3l-1.9-.4" class="st5"/></g><g id="g206" transform="translate(57.082 9.184)"><path id="path208" d="M194.5-364.4c.1 2.1 0 3.6-.3 4.4-.2.9-.9 1.4-1.9 1.7-.8.2-2.3.4-4.5.6l-2.1.1c-2.2.1-3.8.1-4.6 0-1-.1-1.7-.6-2-1.4-.4-.8-.7-2.3-.8-4.4l-.1-1.6c-.1-1-.1-1.9 0-2.6 0-.7.2-1.3.3-1.8.3-.8.9-1.4 1.9-1.6.8-.2 2.3-.4 4.5-.6l2.1-.1c2.2-.1 3.8-.1 4.5 0 1 .2 1.7.6 2 1.4.4.8.7 2.3.8 4.3l.2 1.6zm1.9-5c-.2-.9-.4-1.7-.7-2.3-.3-.6-.8-1.1-1.3-1.5-.5-.4-1.1-.7-1.9-.8-.6-.1-1.3-.2-2.3-.3h-3.4l-2.1.1c-3 .2-5.1.6-6.3 1.2-1.3.7-2.2 1.8-2.5 3.4-.1.6-.2 1.4-.2 2.5 0 1 0 2.3.1 3.9.1 1.3.2 2.4.4 3.3s.4 1.7.7 2.3c.4.6.8 1.1 1.3 1.5.5.4 1.2.7 1.9.9 1.2.3 3.1.4 5.7.2l2.1-.1c2.9-.2 5-.6 6.3-1.2 1.3-.7 2.1-1.8 2.5-3.4.1-.6.2-1.4.2-2.4s0-2.3-.1-3.9c-.1-1.4-.2-2.5-.4-3.4" class="st5"/></g><g id="g210" transform="translate(54.499 10.582)"><path id="path212" d="M185.7-359.6c-.8 0-1.4 0-1.8-.1-.8-.1-1.2-.4-1.5-1-.3-.5-.6-1.6-.7-4.1l-.1-1.6c-.1-1-.1-1.8 0-2.6 0-.7.1-1.2.3-1.5.2-.6.6-1 1.4-1.2.5-.2 1.7-.4 4.4-.5l2.1-.1c2.7-.1 3.9-.1 4.4 0 .8.1 1.3.5 1.5 1 .3.5.6 1.6.7 4.1l.1 1.7c.1 2.5 0 3.6-.2 4.1-.2.7-.6 1-1.3 1.2-.5.2-1.7.4-4.4.6l-2.1.1c-1.2-.1-2.1-.1-2.8-.1m6.5-14.4c-.7 0-1.6 0-2.7.1l-2.1.1c-2.3.1-3.8.3-4.7.6-1.2.3-2 1-2.3 2.1-.2.5-.3 1.1-.4 2v2.7l.1 1.6c.1 2.2.4 3.7.9 4.6.5 1 1.4 1.7 2.6 1.8.9.2 2.4.2 4.7 0l2.1-.1c2.3-.1 3.9-.3 4.7-.6 1.2-.3 2-1 2.3-2.2.3-.9.4-2.5.3-4.7l-.1-1.6c-.1-2.2-.4-3.7-.9-4.6-.5-1-1.3-1.6-2.6-1.8h-1.9m-9.2 16.6c-.6-.2-1.2-.4-1.6-.7-.4-.3-.8-.8-1.1-1.3-.3-.5-.5-1.2-.7-2-.2-.9-.3-2-.4-3.2-.1-1.5-.1-2.8-.1-3.8s.1-1.8.2-2.3c.3-1.4 1-2.3 2.1-2.9 1.1-.6 3.1-1 6-1.1l2.1-.1c1.3-.1 2.4-.1 3.3 0 .9 0 1.6.1 2.1.3v.1c.6.1 1.2.4 1.6.7.4.3.8.8 1.1 1.3.3.5.5 1.2.7 2.1.2.9.3 2 .4 3.2.1 1.5.1 2.8.1 3.8s-.1 1.8-.2 2.3c-.3 1.4-1 2.3-2.1 2.9-1.2.6-3.2 1-6 1.2l-2.1.1c-2.5-.2-4.3-.3-5.4-.6m8.7-19.1c-.7 0-1.5 0-2.3.1l-2.1.1c-3.2.2-5.3.6-6.6 1.3-1.5.7-2.5 2-2.9 3.8-.1.6-.2 1.5-.2 2.6s0 2.4.1 3.9c.1 1.3.2 2.4.4 3.4s.5 1.8.8 2.5c.4.7.9 1.3 1.5 1.7.6.4 1.3.8 2.1 1 1.3.3 3.2.4 5.9.3l2.1-.1c3-.2 5.2-.6 6.6-1.3 1.5-.8 2.4-2.1 2.8-3.9.1-.6.2-1.5.2-2.6s0-2.4-.1-3.9c-.1-1.3-.2-2.4-.4-3.4s-.5-1.8-.8-2.5c-.4-.7-.9-1.2-1.4-1.7-.6-.5-1.3-.8-2.2-1v.1l-.2-.1c-.5-.1-1.2-.2-2.2-.3h-1.1" class="st5"/></g><g id="g214" transform="translate(48.571 9.932)"><path id="path216" d="M165.5-361.8c-.6-.7-1.4-1.2-2.3-1.4-.7-.2-1.5-.3-2.4-.2-.9.1-2 .2-3.2.5l-1.4.3-.3.1c-.1 0-.1 0-.2.1 0 0-.1 0-.2.1-.1 0-.1 0-.2.1-.1 0-.1 0-.1.1l-.4.1c-.3.1-.5.2-.7.2-.2.1-.4.1-.6.1-1.8.4-3.2.6-4.1.4-.5-.2-1-.4-1.3-.8-.4-.4-.6-.9-.8-1.6l-.2-1 17-4.2c.2 0 .2-.2.2-.3l-.5-1.9c0-.2-.1-.2-.3-.2l-19.2 4.7c-.1 0-.2.1-.1.3l.8 3.1c.6 2.2 1.8 3.6 3.6 4.1 1.4.3 3.2.2 5.6-.4.2-.1.5-.1.8-.2.3-.1.6-.2 1-.3.4-.1.8-.2 1.1-.3.3-.1.6-.1.8-.2 1.9-.5 3.3-.6 4.3-.4 1.2.2 2 1 2.4 2.3.2.9.2 1.6.1 2.3-.2.7-.5 1.2-1.1 1.6-.7.5-2.2 1-4.4 1.5l-2.1.5c-1 .3-1.9.4-2.6.5-.7.1-1.2.2-1.6.2-.8 0-1.4-.1-1.8-.5-.4-.4-.8-.9-.9-1.5 0-.2-.2-.2-.4-.2l-2 .5c-.2 0-.2.1-.2.3.6 2.3 1.9 3.5 4.2 3.8 1.3.2 3.2 0 5.9-.7l2.1-.5c1.5-.4 2.7-.7 3.7-1.1 1-.4 1.7-.8 2.2-1.3.7-.7 1.2-1.5 1.4-2.5.2-1 .1-2.2-.2-3.5-.4-1-.8-1.9-1.4-2.6" class="st5"/></g><g id="g218" transform="translate(45.008 11.86)"><path id="path220" d="M151.7-355.3zm1.1-.3zm-4.3-12.3 18.3-4.5.2 1-16.6 4.1-.5.9.2 1c.2.8.5 1.4 1 1.9.4.5 1 .8 1.7 1l.1-.1v.1c1 .2 2.4.1 4.4-.4l.6-.1c.2-.1.5-.1.8-.2l.6-.2c.2 0 .3-.1.4-.1l1.8-.4c1.2-.3 2.2-.5 3.1-.5.8 0 1.5 0 2.2.2.8.2 1.4.6 1.9 1.2s.9 1.4 1.2 2.4c.3 1.3.4 2.4.2 3.2-.2.8-.6 1.5-1.2 2.1-.4.4-1.1.8-2 1.2-1 .4-2.1.7-3.6 1.1l-2.1.5c-2.6.6-4.4.9-5.6.7-1.8-.2-2.9-1.1-3.4-2.8l1.1-.3c.2.6.6 1.1 1 1.5.6.5 1.4.7 2.3.7.4 0 1-.1 1.7-.2s1.6-.3 2.6-.5l2.1-.5c2.3-.6 3.9-1.1 4.6-1.7.7-.5 1.2-1.2 1.4-2 .2-.8.2-1.7-.1-2.7-.4-1.6-1.4-2.6-2.9-2.9-1.1-.2-2.6-.1-4.6.4l-.8.2c-.3.1-.7.2-1.1.3-.4.1-.7.2-1 .3l-.8.2c-2.3.6-4 .7-5.3.4-1.6-.4-2.6-1.6-3.1-3.6l-.8-2.9zM167.1-373.9h-.3l-19.2 4.7c-.4.1-.8.5-.7 1.2l.8 3.1c.6 2.5 2 4.1 4.2 4.6 1.5.3 3.4.2 6-.4l.7-.2c.3-.1.7-.2 1.1-.3.4-.1.8-.2 1-.3l.8-.2c1.7-.4 3.1-.5 3.9-.4 1 .2 1.6.7 1.8 1.8.2.8.2 1.4.1 2-.1.5-.4.9-.8 1.2-.4.3-1.5.8-4.1 1.4l-2.1.5c-1 .2-1.8.4-2.5.5-.7.1-1.2.2-1.6.2-.6 0-1-.1-1.3-.4-.3-.3-.6-.6-.7-1.1-.1-.3-.3-.5-.4-.6-.2-.1-.4-.2-.8-.1l-2 .5c-.3.1-.5.3-.6.4-.1.2-.2.4-.1.8.6 2.5 2.3 4 4.8 4.3 1.3.2 3.4 0 6.2-.7l2.1-.5c1.5-.4 2.8-.8 3.8-1.2 1.1-.4 1.9-.9 2.5-1.5.8-.7 1.4-1.7 1.6-2.8.2-1.1.2-2.4-.2-3.9-.3-1.2-.8-2.2-1.5-3-.7-.8-1.6-1.4-2.6-1.7-.8-.2-1.7-.3-2.7-.2-1 .1-2.1.3-3.3.6l-1.7.4c-.1 0-.2.1-.3.1-.2.1-.3.1-.4.1l-.4.1c-.3.1-.5.2-.7.2l-.6.1c-1.7.4-3 .6-3.8.4-.4-.1-.7-.3-.9-.6-.3-.3-.5-.7-.6-1.2l-.1-.3 16.3-4c.4-.1.5-.3.6-.4.1-.2.2-.4.1-.8l-.5-1.9c-.1-.4-.3-.5-.4-.6-.1.2-.3.1-.5.1" class="st5"/></g><g id="g222" transform="translate(57.2 64.65)"><path id="path224" d="m194.9-175.4-34.7-18.9v-20.5l17.7 9.6v-44.9L144.6-232v55.3l50.3 27.5v20.2l-67.3-36.4v-77.9l67.3-36.7v104.6z" class="st5"/></g><g id="g226" transform="translate(59.28 70.554)"><path id="path228" d="m202-155.3 48.7-26.6v-25.7L202-181v-103.9l16.8 9.1v65l48.9-26.7v67L202-134.7v-20.6z" class="st5"/></g><g id="g230" transform="translate(35.854 12.707)"><path id="path232" d="M122.2-352.3C6.5-297.4 1.4-162 1.4-160.6l5.7.2c0-1.3 5.1-133.3 117.5-186.7l-2.4-5.2z" class="st5"/></g><g id="g234" transform="translate(79.48 12.707)"><path id="path236" d="m270.8-352.3-2.4 5.1c112.4 53.4 117.5 185.4 117.5 186.7l5.7-.2c-.1-1.3-5.2-136.7-120.8-191.6" class="st5"/></g></g></g></g></svg>