<svg xmlns="http://www.w3.org/2000/svg" xml:space="preserve" width="259.150867667" height="385.875613306" x="0px" y="0px" enable-background="new 0 0 298.497 444.462" viewBox="0 0 298.497 444.462"><path fill="#120E07" d="M219.296 404.592a26.44 26.44 0 0 1-5.904-.68c-11.593-2.642-36.617-5.496-64.135-5.496-27.526 0-52.545 2.854-64.138 5.503a26.965 26.965 0 0 1-5.91.673c-11.864 0-18.91-8.145-19.205-8.504l-.301-.34a3.682 3.682 0 0 1-.625-1.036l-.183-.466-1.026-2.678-.283-.728-.241-.638-3.101-8.064-.915.777c-1.104.912-6.772 5.303-15.827 7.575-1.84.459-3.665.692-5.408.692-9.359 0-14.729-6.546-16.427-10.411l-9.89-26.199c-2.2-5.668 2.645-10.761 5.992-12.958 11.526-9.084 33.021-10.064 41.75-10.064 7.193 0 13.457.527 16.748 1.421 7.349 1.978 11.657 6.018 13.563 12.716l3.836 11.007c12.285-2.198 28.907-4.105 61.583-4.105s49.31 1.907 61.591 4.105l3.904-11.201c1.833-6.5 6.138-10.544 13.493-12.521 3.295-.894 9.563-1.421 16.749-1.421 8.728 0 30.224.98 41.741 10.064 3.348 2.197 8.207 7.29 5.973 12.997l-9.786 25.985c-.239.563-4.629 10.586-16.503 10.586-1.748 0-3.562-.233-5.406-.692-9.395-2.344-15.177-7.032-15.805-7.55l-.948-.81-3.092 8.094-.227.576-.298.776-1.017 2.646-.19.488a3.812 3.812 0 0 1-.625 1.036l-.33.372c-.272.328-7.316 8.473-19.177 8.473z"/><path fill="#120E07" d="M298.398 185.434a7.19 7.19 0 0 0-5.601-6.607c-.347-.08-34.771-8.053-48.743-31.55-12.37-20.803 13.524-41.908 14.639-42.795a7.206 7.206 0 0 0 2.674-6.108 7.19 7.19 0 0 0-3.49-5.675 236.297 236.297 0 0 0-9.271-5.212c2.084-4.19 2.576-8.858 1.294-13.621-1.929-7.172-7.697-13.47-14.026-15.306-1.577-.463-3.131-.693-4.623-.693-5.432 0-10.035 3.144-11.453 7.821-.761 2.538-.431 5.15.806 7.243a7.21 7.21 0 0 0-2.777 1.005 201.79 201.79 0 0 0-7.847-2.596c.459-1.944.764-3.932.771-6.002.019-9.762-5.478-18.893-14.005-23.258-4.001-2.053-8.368-3.093-12.987-3.093-.344 0-.684.006-1.017.018.052-.697.084-1.401.071-2.093-.084-7.007-3.51-12.972-9.657-16.788-12.408-7.716-17.64-16.47-17.691-16.554a7.211 7.211 0 0 0-12.425 0c-.052.084-5.28 8.837-17.693 16.554-6.143 3.816-9.573 9.781-9.658 16.788-.008.691.018 1.396.076 2.093a30.986 30.986 0 0 0-1.015-.018c-4.62 0-8.993 1.041-12.996 3.093-8.519 4.365-14.014 13.496-13.996 23.258.003 2.07.306 4.058.767 6.002a191.627 191.627 0 0 0-7.85 2.596 7.228 7.228 0 0 0-2.774-1.005c1.238-2.093 1.568-4.7.806-7.237-1.418-4.684-6.02-7.828-11.442-7.828-1.499 0-3.063.23-4.636.693-6.327 1.835-12.094 8.135-14.024 15.306-1.287 4.765-.794 9.44 1.29 13.621a236.273 236.273 0 0 0-9.27 5.212 7.176 7.176 0 0 0-3.495 5.687 7.154 7.154 0 0 0 2.695 6.105c.272.21 27.068 21.859 14.634 42.787-13.974 23.498-48.408 31.471-48.753 31.55a7.19 7.19 0 0 0-5.605 6.607c-.086 1.582-1.936 39.303 15.016 90.128 15.605 46.755 50.832 113.812 130.069 167.656a7.25 7.25 0 0 0 4.073 1.243 7.194 7.194 0 0 0 4.058-1.243c79.248-53.845 114.476-120.901 130.075-167.656 16.945-50.825 15.09-88.546 15.006-90.128z"/><linearGradient id="a" x1="7.1826" x2="291.3154" y1="253.5801" y2="253.5801" gradientUnits="userSpaceOnUse"><stop offset="0.2637" style="stop-color:#ffd200"/><stop offset="1" style="stop-color:#f5821f"/></linearGradient><path fill="url(#a)" d="M195.411 74.916s27.226 5.209 58.802 23.951c0 0-32.12 25.519-16.335 52.071 15.791 26.559 53.356 34.893 53.356 34.893s8.241 149.394-141.95 251.458l-.01.046c-.005-.014-.018-.017-.026-.023-.008.007-.021.01-.029.023v-.046C-.973 335.225 7.263 185.831 7.263 185.831s37.565-8.334 53.354-34.893c15.787-26.552-16.333-52.071-16.333-52.071 31.576-18.742 58.798-23.951 58.798-23.951s20.552-5.09 46.116-5.09c25.567 0 46.213 5.09 46.213 5.09z"/><linearGradient id="b" x1="55.0713" x2="76.9966" y1="76.3994" y2="76.3994" gradientUnits="userSpaceOnUse"><stop offset="0.2637" style="stop-color:#ffd200"/><stop offset="1" style="stop-color:#f5821f"/></linearGradient><path fill="url(#b)" d="M58.745 87.757s13.994-6.491 18.251-7.708c0 0-6.284-.201-7.703-3.242-1.418-3.043.206-5.877 2.026-7.098 1.828-1.217-.404-6.084-6.691-4.263-6.285 1.83-14.396 13.386-5.883 22.311z"/><path fill="#120E07" d="M230.549 152.771c-2.816-4.746-4.564-9.49-5.455-14.173-22.482-9.106-49.844-15.152-75.845-15.152-26 0-53.354 6.045-75.847 15.157-.892 4.678-2.642 9.422-5.456 14.168-13.582 22.852-39.486 34.266-53.509 38.996.431 13.773 2.901 43.122 14.888 78.623 21.392 63.356 61.718 116.405 119.932 157.792 58.21-41.388 98.533-94.437 119.919-157.792 11.983-35.501 14.444-64.85 14.885-78.623-14.025-4.73-39.929-16.145-53.512-38.996z"/><linearGradient id="c" x1="95.1807" x2="225.9694" y1="143.6655" y2="349.6738" gradientUnits="userSpaceOnUse"><stop offset="0.2747" style="stop-color:#ee3423"/><stop offset="1" style="stop-color:#ad2213"/></linearGradient><path fill="url(#c)" d="M149.249 421.322c-55.479-40.343-94.042-91.705-114.646-152.72-10.647-31.537-13.646-57.989-14.42-72.964 15.361-5.704 39.288-17.698 52.547-40.017 2.462-4.139 4.286-8.472 5.458-12.915 22.515-8.728 48.246-13.687 71.061-13.687 22.809 0 48.54 4.959 71.064 13.681 1.159 4.443 2.988 8.774 5.451 12.921 13.267 22.319 37.189 34.313 52.557 40.017-.78 14.987-3.79 41.457-14.428 72.964-20.596 61.012-59.155 112.372-114.644 152.72z"/><defs><filter id="d" width="258.138" height="292.304" x="20.183" y="129.019" filterUnits="userSpaceOnUse"><feColorMatrix color-interpolation-filters="sRGB" result="source" values="-1 0 0 0 1 0 -1 0 0 1 0 0 -1 0 1 0 0 0 1 0"/></filter></defs><mask id="e" width="258.138" height="292.304" x="20.183" y="129.019" maskUnits="userSpaceOnUse"><g filter="url(#d)"><image width="1093" height="1235" overflow="visible" transform="matrix(.24 0 0 .24 18.183 127.019)"/></g></mask><g mask="url(#e)" opacity="0.6"><path d="M149.249 421.322c-55.479-40.343-94.042-91.705-114.646-152.72-10.647-31.537-13.646-57.989-14.42-72.964 15.361-5.704 39.288-17.698 52.547-40.017 2.462-4.139 4.286-8.472 5.458-12.915 22.515-8.728 48.246-13.687 71.061-13.687 22.809 0 48.54 4.959 71.064 13.681 1.159 4.443 2.988 8.774 5.451 12.921 13.267 22.319 37.189 34.313 52.557 40.017-.78 14.987-3.79 41.457-14.428 72.964-20.596 61.012-59.155 112.372-114.644 152.72z"/></g><path fill="#120E07" d="M278.32 195.638c-15.367-5.704-39.29-17.698-52.557-40.017-.492-.822-.932-1.659-1.376-2.498L41.592 287.146a297.708 297.708 0 0 0 38.594 67.285l197.063-145.663c.547-5.008.877-9.418 1.071-13.13z"/><path fill="#FFCF00" d="M275.355 296.87c0-.007 0-.014.01-.014-.01 0-.01.007-.01.014z"/><linearGradient id="f" x1="221.5039" x2="243.4258" y1="76.3994" y2="76.3994" gradientUnits="userSpaceOnUse"><stop offset="0.2637" style="stop-color:#ffd200"/><stop offset="1" style="stop-color:#f5821f"/></linearGradient><path fill="url(#f)" d="M239.749 87.757s-13.991-6.491-18.245-7.708c0 0 6.283-.201 7.701-3.242 1.421-3.043-.197-5.877-2.023-7.098-1.829-1.217.401-6.084 6.691-4.263 6.287 1.83 14.39 13.386 5.876 22.311z"/><linearGradient id="g" x1="62.251" x2="236.249" y1="110.9897" y2="110.9897" gradientUnits="userSpaceOnUse"><stop offset="0" style="stop-color:#790b00"/><stop offset="0.2582" style="stop-color:#ee3423"/><stop offset="0.7747" style="stop-color:#ee3423"/><stop offset="1" style="stop-color:#790b00"/></linearGradient><path fill="url(#g)" d="M62.251 112.235c2.624 3.606 5.293 8.516 6.594 14.634 23.226-10.437 51.056-16.084 80.403-16.084 29.349 0 57.186 5.647 80.413 16.084 1.302-6.118 3.97-11.039 6.588-14.639-24.752-10.782-54.719-17.12-87-17.12-32.274 0-62.241 6.339-86.998 17.125z"/><linearGradient id="h" x1="69.4019" x2="229.0986" y1="123.0479" y2="123.0479" gradientUnits="userSpaceOnUse"><stop offset="0" style="stop-color:#790b00"/><stop offset="0.2582" style="stop-color:#ee3423"/><stop offset="0.7747" style="stop-color:#ee3423"/><stop offset="1" style="stop-color:#790b00"/></linearGradient><path fill="url(#h)" d="M149.257 115.794c29.25 0 56.915 5.75 79.699 16.379.045-.678.062-1.376.143-2.04-22.927-10.521-50.611-16.218-79.842-16.218-29.242 0-56.929 5.697-79.855 16.218.08.664.101 1.363.144 2.046 22.772-10.635 50.451-16.385 79.711-16.385z"/><linearGradient id="i" x1="58.8389" x2="239.6611" y1="99.8711" y2="99.8711" gradientUnits="userSpaceOnUse"><stop offset="0" style="stop-color:#790b00"/><stop offset="0.2582" style="stop-color:#ee3423"/><stop offset="0.7747" style="stop-color:#ee3423"/><stop offset="1" style="stop-color:#790b00"/></linearGradient><path fill="url(#i)" d="M149.257 91.97c33.027 0 63.7 6.544 89.032 17.682a46.68 46.68 0 0 1 1.372-1.525c-25.693-11.362-56.829-18.036-90.413-18.036-33.583 0-64.711 6.674-90.41 18.036.438.458.894.971 1.369 1.525 25.341-11.133 56.014-17.682 89.05-17.682z"/><path fill="#120E07" d="m149.286 161.885-2.68-3.017c-8.694-9.783-24.901-10.066-26.717-10.066h-6.02l2.635-5.296c.915-1.701 1.96-4.794 1.528-6.168-.058-.187-.105-.25-.311-.352-.206-.108-.507-.228-.75-.228-1.015 0-2.928 2.146-4.618 4.042-3.417 3.836-8.1 9.099-16.024 10.622-1.661.32-3.302.479-4.89.479-12.42 0-18.271-9.513-18.511-9.912l-2.136-3.563 3.839-1.593c14.04-5.853 45.569-15.757 74.652-15.781 29.093.024 60.617 9.929 74.654 15.781l3.842 1.593-2.136 3.56c-.24.403-6.09 9.916-18.501 9.916h-.013c-1.58 0-3.234-.159-4.889-.479-7.918-1.523-12.603-6.779-16.018-10.615-1.684-1.902-3.606-4.048-4.623-4.048-.243 0-.547.12-.751.228-.204.102-.246.165-.301.352-.438 1.371.608 4.459 1.527 6.168l2.858 5.291-6.247.005c-1.816 0-18.025.284-26.714 10.066l-2.685 3.015z"/><image width="692" height="208" overflow="visible" transform="matrix(.24 0 0 .24 66.315 120.558)"/><path fill="#120E07" d="m149.286 165.166-2.68-3.022c-8.694-9.778-24.901-10.063-26.717-10.063h-6.02v-3.28c.919-1.701 4.595-6.811 4.163-8.184-.058-.186-.105-.244-.311-.353-.206-.102-.507-.225-.75-.225-1.015 0-2.928 2.146-4.618 4.038-3.417 3.839-8.1 9.104-16.024 10.63a26.551 26.551 0 0 1-4.89.471c-12.42 0-18.271-9.511-18.511-9.911l-2.136-3.561v-3.283c14.04-5.851 49.408-14.072 78.492-14.095 29.093.022 64.457 8.244 78.496 14.095v3.283l-2.136 3.556c-.24.405-6.09 9.916-18.501 9.916h-.013c-1.58 0-3.234-.159-4.889-.471-7.918-1.526-12.603-6.786-16.018-10.628-1.684-1.894-3.606-4.04-4.623-4.04-.243 0-.547.123-.751.225-.204.109-.246.167-.301.353-.438 1.37 3.457 6.47 4.386 8.179v3.278l-6.247.007c-1.816 0-18.025.285-26.714 10.063l-2.687 3.022z"/><linearGradient id="j" x1="76.0059" x2="222.5723" y1="140.5605" y2="140.5605" gradientUnits="userSpaceOnUse"><stop offset="0" style="stop-color:#790b00"/><stop offset="0.2582" style="stop-color:#ee3423"/><stop offset="0.7747" style="stop-color:#ee3423"/><stop offset="1" style="stop-color:#790b00"/></linearGradient><path fill="url(#j)" d="M149.286 124.642c-29.43.022-60.888 10.338-73.28 15.5 0 0 6.204 10.338 19.644 7.752 13.439-2.585 16.026-17.944 23.676-14.113 5.17 2.586.33 11.436.33 11.436s19.263-.4 29.63 11.262c10.364-11.662 29.635-11.262 29.635-11.262s-4.843-8.849.324-11.436c7.659-3.832 10.249 11.528 23.684 14.113 13.435 2.586 19.644-7.752 19.644-7.752-12.393-5.162-43.859-15.477-73.287-15.5z"/><image width="520" height="653" overflow="visible" transform="matrix(.24 0 0 .24 86.867 -3.772)"/><path fill="#120E07" d="m149.274 147.587-.72-.126c-10.108-1.936-16.306-6.008-18.441-12.111-1.86-5.317.136-10.98 2.925-14.231a35.45 35.45 0 0 0 1.612-2.005l-4.66-1.81c-5.108-1.998-14.327-8.528-12.572-19.007 1.086-6.526 6.049-10.266 13.621-10.266.52 0 1.021.013 1.5.041-.813-3.912-3.032-8.349-5.939-11.512-1.803-1.97-4.686-4.318-8.096-4.318-.371 0-.752.029-1.135.089-7.717 1.185-6.727 10.194-6.678 10.579l.804 6.675-5.995-3.048c-8.985-4.573-14.145-12.305-14.157-21.206-.021-8.427 4.713-16.298 12.052-20.062 3.488-1.79 7.316-2.691 11.352-2.691 1.912 0 3.736.199 5.429.522-.587-1.929-.927-4.006-.903-6.134.068-5.75 2.896-10.641 7.962-13.799 13.292-8.253 18.847-17.705 18.907-17.795L149.249 0l3.118 5.374c.052.097 5.61 9.542 18.898 17.793 5.066 3.159 7.896 8.051 7.961 13.8a20.248 20.248 0 0 1-.9 6.134 28.922 28.922 0 0 1 5.426-.522c4.04 0 7.863.901 11.354 2.691 7.335 3.764 12.071 11.635 12.059 20.062-.02 8.901-5.177 16.633-14.163 21.206l-5.921 3.009.731-6.62c.097-.961.815-9.44-6.675-10.595a7.57 7.57 0 0 0-1.144-.089c-3.402 0-6.286 2.357-8.096 4.327-2.9 3.155-5.128 7.591-5.94 11.503.485-.027.987-.041 1.499-.041 7.575 0 12.541 3.739 13.629 10.266 1.761 10.479-7.459 17.01-12.574 19.007l-4.668 1.81a37.921 37.921 0 0 0 1.619 2.009c2.79 3.247 4.781 8.911 2.926 14.228-2.13 6.103-8.336 10.175-18.444 12.111l-.67.124zm13.622-37.296c-.469 0-1.068.086-2.033.487-.479.206-.511.348-.54.476-.236.981.443 3.512 2.936 7.052l.376-4.652c.11-1.429-.246-3.074-.615-3.364l-.124.001zm-27.194-.018c-.623.34-.947 2.117-.83 3.358l.417 4.61c2.447-3.504 3.121-6.011 2.891-6.987-.029-.128-.064-.271-.552-.481-1.042-.432-1.655-.5-1.926-.5z"/><linearGradient id="k" x1="94.9272" x2="203.5703" y1="75.5444" y2="75.5444" gradientUnits="userSpaceOnUse"><stop offset="0.2637" style="stop-color:#ffd200"/><stop offset="1" style="stop-color:#f5821f"/></linearGradient><path fill="url(#k)" d="M193.47 48.463c-11.285-5.785-22.972 1.047-24.412 1.944 5.16-2.797 11.634-17.151.307-24.194-14.327-8.907-20.116-19.056-20.116-19.056s-5.783 10.148-20.12 19.056c-11.322 7.043-4.849 21.397.316 24.194-1.446-.897-13.132-7.729-24.414-1.944-12.182 6.245-15.448 25.955 2.096 34.872 0 0-1.539-12.819 9.696-14.551 11.231-1.73 20.374 14.312 19.597 23.502 0 0-13.741-3.765-15.464 6.605-1.735 10.368 10.34 15.069 10.34 15.069s-.926-10.115 7.724-6.486c5.319 2.229 2.358 9.443-3.261 15.984-3.711 4.329-7.078 16.546 13.47 20.473l.021-.131.021.131c20.549-3.927 17.185-16.144 13.472-20.473-5.613-6.541-8.577-13.755-3.263-15.984 8.652-3.629 7.727 6.486 7.727 6.486s12.072-4.702 10.344-15.069c-1.729-10.37-15.475-6.605-15.475-6.605-.776-9.19 8.372-25.232 19.604-23.502 11.233 1.732 9.692 14.551 9.692 14.551 17.542-8.917 14.275-28.627 2.098-34.872z"/><linearGradient id="l" x1="127.1069" x2="173.7746" y1="28.6875" y2="105.9196" gradientUnits="userSpaceOnUse"><stop offset="0.2747" style="stop-color:#ee3423"/><stop offset="1" style="stop-color:#ad2213"/></linearGradient><path fill="url(#l)" d="M149.249 140.283c-6.824-1.413-11.206-3.992-12.356-7.297-1.051-2.998.583-6.011 1.589-7.185 3.082-3.582 8.033-10.45 6.683-16.192-.586-2.467-2.269-4.403-4.754-5.442-1.714-.722-3.251-1.072-4.708-1.072-2.211 0-4.123.824-5.536 2.376-.757.822-1.289 1.767-1.662 2.732-2.339-1.842-4.678-4.741-4.014-8.729.215-1.274.715-4.269 6.549-4.269 2.384 0 4.416.538 4.44.544l4.147 1.109.364-4.269c.552-6.507-2.779-15.092-8.104-20.888-3.995-4.341-8.619-6.635-13.381-6.635-.745 0-1.489.055-2.227.17-7.776 1.196-11.141 6.583-12.313 11.698-4.631-4.083-5.442-8.8-5.448-11.613-.011-5.756 3.188-11.122 8.155-13.661 2.468-1.271 5.184-1.907 8.077-1.907 5.969 0 11.049 2.674 12.467 3.498l3.763-6.102c-1.882-1.232-4.576-5.544-4.529-10.094.037-3.307 1.581-5.927 4.576-7.792 9.15-5.688 15.006-11.868 18.232-15.906 3.218 4.039 9.063 10.218 18.221 15.911 3.001 1.86 4.535 4.48 4.577 7.787.049 4.55-2.645 8.862-4.532 10.094l3.766 6.102c1.411-.824 6.493-3.498 12.463-3.498 2.897 0 5.61.636 8.08 1.907 4.96 2.54 8.164 7.905 8.151 13.661 0 2.813-.819 7.53-5.445 11.613-1.172-5.115-4.538-10.501-12.32-11.698a14.335 14.335 0 0 0-2.225-.17c-4.755 0-9.385 2.293-13.379 6.635-5.322 5.803-8.656 14.381-8.109 20.888l.365 4.269 4.15-1.109c.02-.006 2.053-.544 4.436-.544 5.843 0 6.342 2.995 6.555 4.269.667 3.988-1.673 6.887-4.017 8.729-.373-.965-.907-1.91-1.658-2.732-1.411-1.552-3.327-2.376-5.539-2.376-1.453 0-2.994.35-4.703 1.065-2.486 1.046-4.175 2.982-4.762 5.449-1.346 5.743 3.603 12.61 6.691 16.189.997 1.177 2.635 4.19 1.592 7.188-1.165 3.305-5.541 5.884-12.368 7.297z"/><path fill="#120E07" d="M149.257 102.303c-17.316 0-31.411-14.079-31.411-31.398 0-17.313 14.095-31.399 31.411-31.399 17.314 0 31.393 14.087 31.393 31.399-.001 17.32-14.079 31.398-31.393 31.398z"/><linearGradient id="m" x1="121.4355" x2="177.0693" y1="70.9063" y2="70.9063" gradientUnits="userSpaceOnUse"><stop offset="0.2637" style="stop-color:#ffd200"/><stop offset="1" style="stop-color:#f5821f"/></linearGradient><path fill="url(#m)" d="M177.069 70.905c0 15.367-12.457 27.813-27.821 27.813-15.354 0-27.813-12.446-27.813-27.813 0-15.362 12.458-27.811 27.813-27.811 15.364 0 27.821 12.449 27.821 27.811z"/><path fill="#120E07" d="M173.991 70.905c0 13.671-11.082 24.747-24.743 24.747-13.658 0-24.736-11.076-24.736-24.747 0-13.66 11.078-24.737 24.736-24.737 13.661 0 24.743 11.078 24.743 24.737z"/><path fill="#EF4134" d="M170.676 67.534s-2.275 11.605-10.835 13.103c-4.619.801-7.132-1.29-7.059-3.044a7.843 7.843 0 0 0 1.636-1.133c1.577.778 4.795 1.743 8.239-.283 4.548-2.684 8.307-11.787 3.211-19.184-4.752-6.917-13.065-9.61-19.881-7.624 0 0 11.621 2.287 13.103 10.836.806 4.616-1.282 7.124-3.043 7.057a7.902 7.902 0 0 0-1.127-1.64c.777-1.575 1.732-4.797-.284-8.234-2.688-4.552-11.802-8.31-19.188-3.211-6.918 4.752-9.613 13.063-7.63 19.882 0 0 2.289-11.619 10.837-13.106 4.626-.805 7.133 1.287 7.063 3.043a7.85 7.85 0 0 0-1.638 1.131c-1.576-.789-4.794-1.742-8.239.286-4.546 2.677-8.303 11.79-3.214 19.179 4.759 6.917 13.069 9.615 19.89 7.632 0 0-11.612-2.297-13.101-10.843-.806-4.618 1.272-7.124 3.035-7.054a7.92 7.92 0 0 0 1.135 1.63c-.78 1.583-1.738 4.799.287 8.242 2.677 4.548 11.793 8.3 19.187 3.214 6.907-4.753 9.6-13.071 7.616-19.879zm-27.475 3.252a6.043 6.043 0 0 1 6.047-6.041c3.34 0 6.05 2.703 6.05 6.041a6.055 6.055 0 0 1-6.05 6.057 6.054 6.054 0 0 1-6.047-6.057z"/><path fill="#120E07" d="M58.301 98.192a2.849 2.849 0 0 1-2.849 2.847 2.849 2.849 0 1 1 0-5.696 2.852 2.852 0 0 1 2.849 2.849zM76.794 89.492a2.845 2.845 0 1 1-5.692 0 2.845 2.845 0 1 1 5.692 0zM96.017 82.736a2.853 2.853 0 0 1-2.849 2.849 2.851 2.851 0 0 1-2.845-2.849 2.847 2.847 0 1 1 5.694 0zM118.736 77.799a2.85 2.85 0 0 1-5.701 0 2.85 2.85 0 0 1 5.701 0z"/><circle cx="243.049" cy="98.192" r="2.847" fill="#120E07"/><path fill="#120E07" d="M221.704 89.492a2.852 2.852 0 0 0 2.85 2.852 2.848 2.848 0 0 0 2.849-2.852 2.846 2.846 0 0 0-2.849-2.851 2.852 2.852 0 0 0-2.85 2.851zM202.481 82.736c0 1.567 1.275 2.849 2.849 2.849s2.853-1.282 2.853-2.849c0-1.58-1.279-2.851-2.853-2.851s-2.849 1.271-2.849 2.851zM179.77 77.799a2.848 2.848 0 1 0 5.696.002 2.848 2.848 0 0 0-5.696-.002zM272.15 200.552s-1.188 18.98-30.479 18.98h-29.56l1.182 2.706h29.55c29.294 0 30.476-18.98 30.476-18.98l-1.169-2.706z"/><image width="1052" height="892" overflow="visible" transform="matrix(.24 0 0 .24 28.729 152.72)"/><linearGradient id="n" x1="109.0015" x2="126.725" y1="183.0391" y2="213.5077" gradientUnits="userSpaceOnUse"><stop offset="0.2637" style="stop-color:#ffd200"/><stop offset="1" style="stop-color:#f5821f"/></linearGradient><path fill="url(#n)" d="M52.997 219.524c-.204.978.107 1.805.698 2.373.447.43 1.033.725 1.774.725 1.717 0 3.391-1.386 3.744-3.098.218-1.054-.167-1.942-.87-2.502-.434-.345-.948-.591-1.607-.591-1.719 0-3.389 1.39-3.739 3.093zm-3.326 21.166c1.145-.492 1.68-1.801 1.031-3.745 0-.01 0-.012-.008-.018 0 0-5.273-.479-5.971-1.214-.613-.628-2.97 1.481-.403 3.948.398.379.896.764 1.551 1.149 0 .001 2.317.517 3.8-.12zm41.924-58.263c-2.723.639-1.601 5.411-5.604 11.609-2.1 3.255-3.927 4.325-5.214 4.364-1.165.032-1.887-.775-1.936-1.614-.131-2.158-.565-3.811-1.638-4.171-.032 0-.076-.031-.1-.018-.005 0-.012.005-.012.005-.383-.092-.819-.073-1.363.178-2.198.991-1.86 6.81-3.265 9.662-1.386 2.826-4.318 3.917-8.232 4.32-12.721.777-13.574 5.233-14.236 8.054-.719 3.017-3.648 3.208-4.742 2.472-1.089-.742-5.503-4.701-7.76-.989-2.255 3.707-.923 6.931-2.728 9.649-1.594 2.402-1.975 3.646-1.107 4.417.11.097.234.193.392.278 1.147.636 1.748.382 2.302 2.158.089.298.18.633.272 1.059.163.751.427 1.355.751 1.793.958 1.3 2.386 1.107 2.875-1.293.664-3.218 2.358-4.21 9.477-3.716 2.221.157 3.608 1.208 4.408 2.653 1.75 3.181.671 8.262-.534 9.957-1.751 2.491-11.109 1.987-14.734 1.492-3.632-.497-3.657 4.456-3.907 5.693-.215 1.034 1.288 4.817 3.854 6.617.494.341 1.017.643 1.586.798 3.529.987 2.893-1.979 5.094-4.2 2.026-2.056 15.15.191 17.185.559l5.408-25.932a61.918 61.918 0 0 1 4.21-12.981c-3.868 3.44-9.146 3.183-9.146 3.183a8.035 8.035 0 0 1-.12 1.165c-.809 3.938-4.674 7.127-8.632 7.127a6.143 6.143 0 0 1-3.042-.788c-1.013-.573-1.81-1.408-2.281-2.459a4.282 4.282 0 0 1-.489-2.137 6.855 6.855 0 0 1 .12-1.743c.805-3.933 4.659-7.119 8.621-7.119.294 0 .563.054.835.083 3.699 1.167 12.063 1.392 17.958-4.474 4.869-7.842 11.308-14.323 18.507-19.521.125-2.63-.385-4.545-1.22-5.515-.505-.591-1.138-.831-1.813-.675zm94.241-20.625.239-1.264c.039-.766-.097-1.398-.337-1.923-.728-1.577-2.317-2.124-2.317-2.124s-3.089 1.337-3.713 4.067l-.34 1.523c-11.373.287-22.541-.506-23.6-.6l-2.184 10.608h19.399c18.821 0 29.756-5.884 34.489-9.265l1.022-4.961c-5.931 2.093-13.26 3.214-20.511 3.781-.71.056-1.428.118-2.147.158z"/><g fill="#120E07"><path d="M55.469 222.622a2.495 2.495 0 0 1-1.774-.725l-.018.05s2.044 2.642 3.757 2.642c1.721 0 3.399-1.384 3.748-3.096.254-1.209-.264-2.156-1.216-3.025l-1.544-1.463c-.02 0-.049.013-.078.018.703.56 1.088 1.449.87 2.502-.354 1.711-2.028 3.097-3.745 3.097zM42.227 236.327c.657-3.213 2.354-4.205 9.465-3.711a5.965 5.965 0 0 1 2.443.68c-.8-1.445-2.187-2.496-4.408-2.653-7.119-.494-8.813.499-9.477 3.716-.489 2.4-1.917 2.593-2.875 1.293 1.286 2.58 4.209 3.786 4.852.675z"/><path d="M51.356 225.982c-.096-.17-.229-.313-.311-.487a4.308 4.308 0 0 1-.487-2.138 7.136 7.136 0 0 1 .111-1.74c.813-3.935 4.673-7.122 8.631-7.122.296 0 .558.05.835.086 3.692 1.166 12.067 1.391 17.956-4.476 4.874-7.845 11.308-14.328 18.509-19.523.139-2.83-.466-4.835-1.421-5.72 0 0-.942-1.056-1.771-1.763.835.969 1.345 2.884 1.22 5.515-7.199 5.197-13.638 11.678-18.507 19.521-5.895 5.866-14.26 5.641-17.958 4.474-.272-.029-.541-.083-.835-.083-3.962 0-7.816 3.186-8.621 7.119a6.855 6.855 0 0 0-.12 1.743c-.031.75.15 1.479.489 2.137.47 1.049 1.267 1.884 2.28 2.457zM68.086 228.277l-5.408 25.932c-2.035-.368-15.159-2.614-17.185-.559-2.201 2.221-1.565 5.188-5.094 4.2-.57-.155-1.093-.457-1.586-.798.915 1.247 2.114 2.368 3.556 2.771 3.534.986 2.899-1.978 5.089-4.202 2.033-2.059 15.157.189 17.191.553l5.406-25.932a61.736 61.736 0 0 1 4.21-12.978l-1.97-1.97a62.03 62.03 0 0 0-4.209 12.983z"/><path d="M49.671 240.69c-1.482.636-3.8.12-3.8.12a8.434 8.434 0 0 1-1.551-1.149c.041.055.043.089.083.146.422.578 2.425 2.373 3.437 2.975 0 0 2.317.52 3.804-.12 1.147-.494 1.685-1.811 1.024-3.765 0 0-1.017-1.859-1.805-1.952-.052-.007-.108.006-.16 0 .648 1.944.112 3.254-1.032 3.745zM174.959 174.062c18.812 0 29.753-5.885 34.486-9.263l1.02-4.964-1.969-1.97-1.022 4.961c-4.733 3.381-15.668 9.265-34.489 9.265h-19.399l1.967 1.971h19.406zM78.842 196.786c.048.838.771 1.646 1.936 1.614-.129-1.637-.445-2.954-1.118-3.556 0 0-1.816-2.143-2.456-2.229 1.073.36 1.506 2.013 1.638 4.171zM185.836 161.802c.719-.041 1.438-.102 2.149-.157-.256-1.822-1.609-2.711-2.247-3.03.24.524.376 1.157.337 1.923l-.239 1.264zM86.009 280.846c-3.234 15.117-2.761 27.296 5.826 34.758-6.661-7.553-6.821-18.928-3.857-32.79l9.909-48.204c4.764-23.185 28.438-37.117 54.249-37.117h26.242c16.238 0 30.702-3.268 35.973-11.913l3.583-17.458-1.971-1.975-3.581 17.46c-5.267 8.653-19.74 11.912-35.981 11.912H150.16c-25.809 0-49.475 13.938-54.237 37.12l-9.914 48.207z"/><path d="M98.843 307.021c3.84 4.535 10.58 7.193 20.966 8.628l3.273-15.73-1.973-1.968-3.268 15.729c-8.791-1.216-14.977-3.298-18.998-6.659zM159.88 221.417h47.102l5.076-24.695s-1.969-1.852-1.969-1.975l-5.075 24.699h-47.103c-20.801 0-30.98 2.973-35.611 25.513l-6.583 32.063c-2.328 10.563-2.967 16.234 1.584 19.265-2.26-3.328-1.521-8.656.38-17.3l6.589-32.057c4.631-22.539 14.809-25.513 35.61-25.513zM34.051 230.642a2.084 2.084 0 0 1-.392-.278c.239.508 1.921 2.004 2.361 2.251l.332.185c-.553-1.776-1.153-1.522-2.301-2.158zM155.299 315.147l1.975 1.978h8.589c9.867 0 17.529 4.348 23.227 9.689-5.85-6.196-14.137-11.667-25.198-11.667h-8.593zM167.089 269.268h27.704l.405-1.971h-30.081zM226.049 265.627l1.968 1.975c7.66-.43 14.465-3.922 20.376-9.083l-1.975-1.971c-5.905 5.159-12.71 8.66-20.369 9.079zM224.274 251.955c-5.163 9.801-9.129 20.759-11.547 31.85l-12.506 60.49 1.966 1.976 12.512-60.498c2.408-11.084 6.384-22.045 11.544-31.846l-1.969-1.972zM251.578 251.412h-17.919l1.972 1.97h17.922c2.955-3.305 5.643-6.975 8.058-10.766l-1.969-1.97c-2.415 3.793-5.109 7.458-8.064 10.766z"/><path d="M271.613 213.139c-1.544 7.45-4.328 15.859-6.97 18.863-1.91 2.356-8.515 5.118-14.322 5.118-1.252 0-2.278.196-3.137.526 3.496-5.32 4.724-9.827 5.131-12.531-.757.218-1.531.435-2.347.633-1.92 9.53-10.734 18.473-16.17 22.693-.039.031-.084.07-.123.097l-.017 2.875c4.234-3.101 7.481-6.199 10.029-9.158h.645c1.155-1.622 4.464-3.163 7.957-3.163 5.808 0 12.411-2.765 14.321-5.118 2.642-3.007 5.429-11.415 6.974-18.863.001-.001-1.971-1.817-1.971-1.972zM151.781 291.228l-9.479 46.146c-1.921 8.851 2.23 14.804 6.18 18.307-3.193-3.609-5.806-8.971-4.207-16.345l9.481-46.131h29.952l3.153-15.348-1.972-1.972-3.15 15.342h-29.958zM225.068 243.377h-63.344l-6.753 32.508h2.38l6.348-30.537h67.205c1.38 0 2.338.18 2.907.733-.585-2.397-3.677-2.704-8.743-2.704zM117.818 325.454l-1.97-1.975-3.179 15.384c-16.424-1.029-28.542-5.963-36.647-13.483 8.058 8.621 20.801 14.338 38.614 15.451l3.182-15.377zM110.358 359.595l1.971 1.968h44.035l-1.968-1.968z"/><path d="M181.53 331.748c3.282 3.625 4.766 7.115 4.766 7.115h-35.882l1.972 1.968h35.881s-2.049-4.868-6.737-9.083z"/></g><linearGradient id="o" x1="105.7173" x2="205.3337" y1="187.1958" y2="334.2484" gradientUnits="userSpaceOnUse"><stop offset="0.1648" style="stop-color:#fff"/><stop offset="0.456" style="stop-color:#fff"/><stop offset="1" style="stop-color:#94cef1"/></linearGradient><path fill="url(#o)" d="M228.412 227.95h-93.589c.881.63 1.62 1.29 2.287 1.97.275.287.538.578.777.874 4.743 5.733 2.97 13.114 1.467 20.43l-18.59 89.394-.041-.046c-2.417 11.732-10.366 19.022-10.366 19.022h44.038s-2.902-1.243-5.913-3.914c-3.95-3.503-8.101-9.456-6.18-18.307l9.479-46.146h29.959l3.15-15.342h-29.919l6.753-32.508h63.344c5.065 0 8.157.306 8.743 2.705.155.638.169 1.397-.052 2.372.013-.005.026-.011.039-.013 5.436-4.22 14.25-13.163 16.17-22.693-5.554 1.357-12.533 2.202-21.556 2.202zm-112.564 95.529c-11.319-.799-19.028-3.544-24.014-7.876-8.587-7.462-9.06-19.641-5.826-34.758l9.913-48.208c4.762-23.182 28.428-37.12 54.237-37.12h26.241c16.241 0 30.715-3.258 35.981-11.912l3.581-17.46s-12.91 14.029-42.981 14.029h-29.784c-24.549 0-60.498 16.233-67.376 49.693l-10.766 51.611c-3.948 17.339-.542 33.221 10.968 43.9 8.106 7.521 20.223 12.454 36.647 13.483l3.179-15.382zm6.452-78.52c4.631-22.54 14.811-25.513 35.611-25.513h47.103l5.075-24.699s-6.811 9.357-32.644 9.357h-23.331c-22.649 0-45.331 5.997-51.269 34.873l-8.07 38.675c-3.328 14.613-2.643 23.762 4.067 29.368 4.021 3.36 10.207 5.442 18.998 6.659l3.268-15.729c-1.551-.443-2.802-.991-3.807-1.664-4.552-3.03-3.912-8.702-1.584-19.265l6.583-32.062zm41.668 78.786h-10.451l-3.103 15.118h35.882s-1.483-3.49-4.766-7.115c-3.56-3.921-9.245-8.003-17.562-8.003zm1.149-56.448h30.081l-.405 1.97-6.276 30.535h-30.064l-3.153 15.345h8.592c11.062 0 19.349 5.471 25.198 11.667 7.66 8.112 11.133 17.48 11.133 17.48l12.506-60.49c2.418-11.091 6.384-22.049 11.547-31.85h-56.001l-3.158 15.343z"/><path fill="#120E07" d="M274.775 200.666s-3.813 18.867-33.104 18.867h-29.56l1.913 1.91h29.553c29.294 0 33.107-18.87 33.107-18.87l-1.909-1.907z"/><linearGradient id="p" x1="228.3203" x2="268.9844" y1="196.2354" y2="233.5111" gradientUnits="userSpaceOnUse"><stop offset="0.2637" style="stop-color:#ffd200"/><stop offset="1" style="stop-color:#f5821f"/></linearGradient><path fill="url(#p)" d="M266.647 200.666c-3.604 12.978-10.628 15.958-26.63 9.488-12.997-5.254-24.84-6.049-24.84-6.049l-3.065 15.427h29.56c29.29 0 33.104-18.867 33.104-18.867h-8.129z"/><linearGradient id="q" x1="216.1982" x2="256.8552" y1="209.4692" y2="246.7384" gradientUnits="userSpaceOnUse"><stop offset="0.2637" style="stop-color:#ffd200"/><stop offset="1" style="stop-color:#f5821f"/></linearGradient><path fill="url(#q)" d="M226.049 265.627c7.659-.419 14.464-3.92 20.369-9.08h-15.977c-1.663 2.788-3.194 5.712-4.392 9.08zm26.266-40.512c-.407 2.705-1.635 7.211-5.131 12.531.864-.33 1.885-.526 3.137-.526 5.808 0 12.412-2.762 14.322-5.118 2.642-3.004 5.426-11.413 6.97-18.863-4.128 4.127-9.029 8.98-19.298 11.976zm-8.627 17.139c-2.548 2.958-5.795 6.057-10.029 9.158h17.919c2.955-3.308 5.648-6.973 8.063-10.765-2.78.976-5.662 1.607-8.543 1.607h-7.41z"/><image width="1208" height="312" overflow="visible" transform="matrix(.24 0 0 .24 4.352 331.37)"/><path fill="#120E07" d="M284.627 344.528c-10.603-8.475-31.249-9.388-39.641-9.388-6.487 0-12.709.453-15.816 1.288-5.802 1.561-9.408 4.483-11.036 10.243l-4.917 14.114c-11.813-2.276-28.274-4.61-63.96-4.61v.017l-.008-.017c-35.688 0-52.15 2.334-63.958 4.61l-4.914-14.114c-1.633-5.76-5.239-8.683-11.041-10.243-3.104-.835-9.331-1.288-15.817-1.288-8.388 0-29.042.913-39.645 9.388 0 0-6.535 4.166-4.729 8.779l9.81 26.018c.141.337 3.702 8.265 13.14 8.265 1.452 0 2.98-.19 4.536-.582 8.857-2.218 14.151-6.637 14.373-6.824l2.507-2.13-2.446-2.198c-1.845-1.648-4.039-3.26-6.187-4.704 2.828.091 5.552.758 8.09 2.04l2.101 1.059 2.132 5.564-.015-.013 3.516 9.142.225.599.287.741.003.004 1.019 2.638.181.473.33.379c.251.295 6.354 7.229 16.463 7.229a23.41 23.41 0 0 0 5.105-.583c11.8-2.697 37.147-5.588 64.942-5.588 27.787 0 53.141 2.891 64.931 5.588 1.706.382 3.425.583 5.108.583 10.11 0 16.209-6.935 16.465-7.229l.327-.379.181-.473 1.02-2.638.007-.004.278-.741.236-.599 3.513-9.142-.013.013 2.127-5.564 2.104-1.059c2.541-1.282 5.261-1.949 8.084-2.04-2.137 1.444-4.338 3.056-6.177 4.704l-2.454 2.198 2.516 2.13c.213.188 5.506 4.606 14.363 6.824 1.558.392 3.085.582 4.539.582 9.446 0 13-7.928 13.146-8.265l9.806-26.018c1.802-4.613-4.737-8.779-4.737-8.779z"/><linearGradient id="r" x1="12.3291" x2="49.1431" y1="367.1035" y2="367.1035" gradientUnits="userSpaceOnUse"><stop offset="0" style="stop-color:#f36d20"/><stop offset="0.2308" style="stop-color:#ffd200"/><stop offset="0.4945" style="stop-color:#faa21a"/><stop offset="0.7967" style="stop-color:#ffd200"/><stop offset="1" style="stop-color:#f15d21"/></linearGradient><path fill="url(#r)" d="M34.605 368.364c5.854-6.61 2.08-18.88 2.08-18.88s-1.508 3.208-11.703 5.856c-10.197 2.635-12.653-1.703-12.653-1.703l1.552 4.111c5.508 1.671 9.522.958 11.816.366 4.173-1.085 7.082-2.295 9.113-3.429.45 3.827.286 8.796-2.351 11.777l-2.438 2.749 3.262 1.692c.076.036 6.066 3.179 11.036 6.87-2.074 1.207-5.178 2.687-9.089 3.664a12.847 12.847 0 0 1-3.137.414c-4.636 0-8.496-2.434-10.901-4.7l.389 1.029s3.773 8.683 14.347 6.041c8.315-2.082 13.214-6.231 13.214-6.231-5.47-4.909-14.537-9.626-14.537-9.626z"/><path fill="#120E07" d="M35.231 381.439c3.911-.978 7.015-2.457 9.089-3.664-4.969-3.691-10.96-6.834-11.036-6.87l-3.262-1.692 2.438-2.749c2.637-2.981 2.8-7.95 2.351-11.777-2.032 1.134-4.94 2.344-9.113 3.429-2.293.592-6.308 1.305-11.816-.366l7.312 19.404c2.405 2.267 6.266 4.7 10.901 4.7a12.8 12.8 0 0 0 3.136-.415z"/><linearGradient id="s" x1="222.1709" x2="285.4453" y1="345.1758" y2="345.1758" gradientUnits="userSpaceOnUse"><stop offset="0" style="stop-color:#f36d20"/><stop offset="0.2308" style="stop-color:#ffd200"/><stop offset="0.4945" style="stop-color:#faa21a"/><stop offset="0.7967" style="stop-color:#ffd200"/><stop offset="1" style="stop-color:#f15d21"/></linearGradient><path fill="url(#s)" d="M259.276 341.741c-4.409-.563-9.217-.864-14.296-.864-6.851 0-12.27.583-14.419 1.117-5.008 1.246-7.128 3.991-8.006 5.882-.136-.389-.271-.768-.382-1.237 0 0-.385-5.399 7.691-7.426 7.2-1.813 39.712-3.036 52.972 7.559.887.716 1.913 1.651 2.608 2.943a6.564 6.564 0 0 1-1.683 2.35c-.007.02-.11.13-.305.278-3.501-7.07-16.689-9.307-24.18-10.602z"/><linearGradient id="t" x1="244.2422" x2="259.7617" y1="368.0469" y2="368.0469" gradientUnits="userSpaceOnUse"><stop offset="0" style="stop-color:#f36d20"/><stop offset="0.2308" style="stop-color:#ffd200"/><stop offset="0.4945" style="stop-color:#faa21a"/><stop offset="0.7967" style="stop-color:#ffd200"/><stop offset="1" style="stop-color:#f15d21"/></linearGradient><path fill="url(#t)" d="M259.049 365.742c.208.547.447 1.091.713 1.615-.583.337-1.263.734-1.962 1.155-4.267-.618-8.896-.242-13.558 2.117l1.191-3.337.129-.356c5.161-1.459 9.939-1.783 13.487-1.194z"/><path fill="#120E07" d="M230.562 341.994c2.149-.534 7.568-1.117 14.419-1.117 5.079 0 9.887.301 14.296.864 7.49 1.295 20.679 3.532 24.182 10.602-.492.376-1.642.972-4.004.972-1.513 0-3.267-.253-5.213-.758-8.199-2.123-9.928-4.486-9.954-4.513-1.534-1.305-3.257-3.801-3.257-3.801s-1.359 1.913-1.962 4.396c-.142.47-2.861 9.582-.02 17.103-3.548-.589-8.326-.266-13.486 1.194l1.603-4.503s1.563-9.481-8.044-10.032c-8.013-.46-13.069 1.541-15.672-2.554-.343-.534-.631-1.218-.894-1.972.878-1.89 2.998-4.635 8.006-5.881z"/><linearGradient id="u" x1="249.3535" x2="286.1738" y1="367.1035" y2="367.1035" gradientUnits="userSpaceOnUse"><stop offset="0" style="stop-color:#f36d20"/><stop offset="0.2308" style="stop-color:#ffd200"/><stop offset="0.4945" style="stop-color:#faa21a"/><stop offset="0.7967" style="stop-color:#ffd200"/><stop offset="1" style="stop-color:#f15d21"/></linearGradient><path fill="url(#u)" d="M263.886 368.364c-5.847-6.61-2.072-18.88-2.072-18.88s1.512 3.208 11.706 5.856c10.197 2.635 12.654-1.703 12.654-1.703l-1.554 4.111c-5.503 1.671-9.523.958-11.815.366-4.173-1.085-7.087-2.295-9.11-3.429-.453 3.827-.294 8.796 2.348 11.777l2.435 2.749-3.261 1.692c-.074.036-6.066 3.179-11.042 6.87a35.465 35.465 0 0 0 9.094 3.664c1.098.278 2.152.414 3.14.414 4.636 0 8.495-2.434 10.903-4.7l-.392 1.029s-3.774 8.683-14.348 6.041c-8.319-2.082-13.218-6.231-13.218-6.231 5.474-4.909 14.532-9.626 14.532-9.626z"/><path fill="#120E07" d="M263.268 381.439a35.501 35.501 0 0 1-9.094-3.664c4.976-3.691 10.968-6.834 11.042-6.87l3.261-1.692-2.435-2.749c-2.642-2.981-2.801-7.95-2.348-11.777 2.023 1.134 4.938 2.344 9.11 3.429 2.292.592 6.313 1.305 11.815-.366l-7.31 19.404c-2.408 2.267-6.268 4.7-10.903 4.7a12.78 12.78 0 0 1-3.138-.415zM232.066 370.142c-3.24 0-7.073-.505-13.172-1.748l-1.392-.292c-12.784-2.625-27.284-5.594-68.254-5.594-40.977 0-55.464 2.969-68.251 5.594l-1.389.292c-6.107 1.243-9.93 1.748-13.171 1.748-1.996 0-7.233-.541-10.706-2.172l7.875 20.543c3.07 2.412 8.837 6.083 15.595 6.17 1.198.01 2.436-.146 3.663-.427 12.122-2.774 38.062-5.753 66.383-5.753 28.326 0 54.262 2.979 66.393 5.753 1.224.281 2.457.437 3.657.427 6.763-.087 12.538-3.771 15.613-6.183l7.873-20.53c-3.481 1.631-8.713 2.172-10.717 2.172z"/><g fill="#FFF"><path d="M90.033 385.907c-.625.368-2.01.848-3.14 1.035-1.771.272-3.192-.022-4.386-.86-1.554-1.049-2.629-3.173-3.009-5.77-.827-5.483 2.022-8.265 5.317-8.779 1.17-.178 2.078-.087 2.601.065l-.113 2.608c-.466-.142-1.062-.188-1.829-.058-2.047.304-3.456 1.923-2.813 5.853.599 3.623 2.263 4.7 3.665 4.48.28-.045.485-.101.586-.162l-.592-3.635-1.384.21-.393-2.396 4.165-.647 1.325 8.056zM94.668 385.738l-.727-5.801-4.613-8.941 3.252-.385 1.521 3.496c.403.936.837 2.02 1.212 3.12l.048-.01c.047-1.126.159-2.253.305-3.366l.482-3.651 3.15-.383-2.339 9.653.745 5.908-3.036.36zM108.849 377.552l-3.579.33.396 4.095 4.039-.362.245 2.561-7.083.647-1.463-15.186 6.811-.618.243 2.566-3.757.34.33 3.5 3.576-.33.242 2.457zM121.301 375.492c.396 5.743-1.547 8.2-4.527 8.388-3.559.24-5.212-3.334-5.495-7.513-.275-4.16 1.178-7.86 4.642-8.081 3.801-.236 5.147 3.736 5.38 7.206zm-6.848.716c.241 3.454 1.026 5.173 2.261 5.099 1.28-.087 1.619-2.373 1.415-5.465-.188-2.67-.767-5.06-2.143-4.969-1.211.068-1.761 2.065-1.533 5.335zM124.382 383.259l-.614-15.244 2.8-.104 2.666 5.882c.513 1.152 1.363 3.072 1.848 4.384h.055c-.164-1.603-.469-4.241-.586-7.045l-.138-3.37 2.686-.094.607 15.234-2.795.107-2.637-5.701c-.559-1.266-1.358-3.159-1.764-4.532h-.052c.134 1.548.35 3.892.473 6.974l.131 3.412-2.68.097zM145.739 382.301c-.672.278-2.115.569-3.265.582-1.792.026-3.153-.449-4.215-1.456-1.381-1.25-2.13-3.496-2.122-6.132-.013-5.545 3.216-7.898 6.565-7.95 1.185-.007 2.075.207 2.575.431l-.508 2.557c-.443-.197-1.034-.326-1.798-.307-2.079.019-3.713 1.421-3.658 5.412.052 3.658 1.538 4.96 2.964 4.94.281 0 .498-.022.608-.071l-.063-3.697-1.387.02-.039-2.422 4.223-.055.12 8.148zM148.57 382.689l.123-15.248 2.809.014 2.372 6.001c.46 1.179 1.215 3.134 1.642 4.475h.052c-.084-1.612-.259-4.267-.246-7.07l.032-3.363 2.681.009-.129 15.264-2.797-.028-2.355-5.808c-.494-1.295-1.209-3.218-1.554-4.61h-.041c.062 1.548.154 3.895.125 6.979l-.029 3.415-2.685-.03zM163.849 379.416l-.816 3.467-2.948-.087 3.881-15.16 3.668.11 2.573 15.351-2.965-.091-.561-3.502-2.832-.088zm2.619-2.233-.408-3.205c-.143-.936-.295-2.457-.404-3.479l-.078-.007c-.188 1.02-.476 2.59-.667 3.47l-.68 3.157 2.237.064zM182.404 378.409c.026-1.45.026-3.399.168-5.05h-.077a57.183 57.183 0 0 1-1.289 4.613l-1.677 5.364-2.172-.117-.968-5.436c-.227-1.229-.531-3.156-.664-4.819l-.074-.007a149.37 149.37 0 0 1-.541 5.066l-.586 5.273-2.628-.149 2.081-15.15 3.215.179.919 5.591c.321 1.945.603 3.651.787 5.39l.045.003c.34-1.689.794-3.373 1.331-5.27l1.573-5.439 3.218.182.007 15.28-2.72-.155.052-5.349zM193.806 369.339l6.805.687-.271 2.557-3.762-.375-.421 3.9 3.541.356-.259 2.457-3.535-.356-.653 6.261-3.043-.291 1.598-15.196zM201.469 385.681c-.923-.107-1.648-.965-1.493-2.163.137-1.116 1.102-1.852 2.027-1.741.965.109 1.664.941 1.515 2.155-.143 1.191-.961 1.871-2.026 1.749h-.023zM213.404 386.846c-.47.146-1.347.182-2.402.032-3.985-.557-5.396-4.008-4.759-8.28.849-5.688 4.448-7.453 7.465-7.032 1.056.156 1.771.46 2.043.693l-.877 2.401c-.32-.207-.699-.395-1.373-.491-1.699-.24-3.47.983-4.021 4.72-.54 3.612.654 5.219 2.503 5.471a4.993 4.993 0 0 0 1.492-.02l-.071 2.506zM217.088 387.895c-.923-.155-1.603-1.049-1.382-2.24.194-1.11 1.197-1.787 2.12-1.632.968.169 1.612 1.033 1.392 2.234-.213 1.185-1.055 1.815-2.116 1.641l-.014-.003z"/></g><linearGradient id="v" x1="54.0381" x2="244.4814" y1="364.5957" y2="364.5957" gradientUnits="userSpaceOnUse"><stop offset="0" style="stop-color:#f36d20"/><stop offset="0.2308" style="stop-color:#ffd200"/><stop offset="0.4945" style="stop-color:#faa21a"/><stop offset="0.7967" style="stop-color:#ffd200"/><stop offset="1" style="stop-color:#f15d21"/></linearGradient><path fill="url(#v)" d="m79.609 368.394 1.389-.292c12.787-2.625 27.274-5.594 68.251-5.594 40.97 0 55.47 2.969 68.254 5.594l1.392.292c6.099 1.243 9.932 1.748 13.172 1.748 2.004 0 7.235-.541 10.719-2.172l1.696-4.426c-8.455 3.658-11.919 4.104-24.849 1.463-12.917-2.642-27.504-5.956-70.376-5.956v.01l-.008-.01c-42.88 0-57.456 3.314-70.375 5.956-12.91 2.642-16.384 2.195-24.836-1.463l1.694 4.426c3.472 1.631 8.71 2.172 10.706 2.172 3.241 0 7.064-.505 13.171-1.748z"/><linearGradient id="w" x1="63.6074" x2="234.9121" y1="393.3164" y2="393.3164" gradientUnits="userSpaceOnUse"><stop offset="0" style="stop-color:#f36d20"/><stop offset="0.2308" style="stop-color:#ffd200"/><stop offset="0.4945" style="stop-color:#faa21a"/><stop offset="0.7967" style="stop-color:#ffd200"/><stop offset="1" style="stop-color:#f15d21"/></linearGradient><path fill="url(#w)" d="M215.642 394.256c-12.131-2.774-38.067-5.753-66.393-5.753-28.321 0-54.261 2.979-66.383 5.753-1.227.281-2.465.437-3.663.427-6.758-.087-12.525-3.758-15.595-6.17l1.308 3.387s7.214 8.354 18.762 5.72c11.565-2.642 37.036-5.658 65.58-5.658 28.551 0 54.015 3.017 65.575 5.658 11.547 2.635 18.772-5.72 18.772-5.72l1.308-3.399c-3.075 2.412-8.851 6.096-15.613 6.183a15.945 15.945 0 0 1-3.658-.428z"/><path fill="#120E07" d="M60.623 358.277c-3.451-.204-3.295 2.344-2.965 3.719 9.395 4.248 24.611-1.101 24.611-1.101l-2.548-6.904c-2.731 5.623-14.949 4.523-19.098 4.286z"/><linearGradient id="x" x1="54.2163" x2="79.7207" y1="355.6914" y2="355.6914" gradientUnits="userSpaceOnUse"><stop offset="0" style="stop-color:#f36d20"/><stop offset="0.2308" style="stop-color:#ffd200"/><stop offset="0.4945" style="stop-color:#faa21a"/><stop offset="0.7967" style="stop-color:#ffd200"/><stop offset="1" style="stop-color:#f15d21"/></linearGradient><path fill="url(#x)" d="M60.623 358.277c4.15.236 16.368 1.337 19.098-4.286l-1.696-4.604s0 6.574-12.706 5.478c-12.713-1.091-11.028 4.93-11.028 4.93.992.926 2.128 1.645 3.367 2.201-.331-1.375-.487-3.923 2.965-3.719z"/><linearGradient id="y" x1="218.7842" x2="244.2861" y1="355.6914" y2="355.6914" gradientUnits="userSpaceOnUse"><stop offset="0" style="stop-color:#f36d20"/><stop offset="0.2308" style="stop-color:#ffd200"/><stop offset="0.4945" style="stop-color:#faa21a"/><stop offset="0.7967" style="stop-color:#ffd200"/><stop offset="1" style="stop-color:#f15d21"/></linearGradient><path fill="url(#y)" d="M233.196 354.865c-12.712 1.097-12.712-5.478-12.712-5.478l-1.7 4.613c2.732 5.613 14.953 4.513 19.1 4.276 3.461-.204 3.289 2.359 2.966 3.719 1.236-.557 2.376-1.269 3.36-2.201 0 .001 1.702-6.02-11.014-4.929z"/><path fill="#120E07" d="M237.884 358.277c-4.146.236-16.367 1.337-19.1-4.276l-2.534 6.895s15.205 5.342 24.6 1.101c.323-1.36.495-3.924-2.966-3.72z"/><linearGradient id="z" x1="13.0591" x2="76.3311" y1="345.1758" y2="345.1758" gradientUnits="userSpaceOnUse"><stop offset="0" style="stop-color:#f36d20"/><stop offset="0.2308" style="stop-color:#ffd200"/><stop offset="0.4945" style="stop-color:#faa21a"/><stop offset="0.7967" style="stop-color:#ffd200"/><stop offset="1" style="stop-color:#f15d21"/></linearGradient><path fill="url(#z)" d="M39.223 341.741c4.404-.563 9.223-.864 14.296-.864 6.85 0 12.269.583 14.415 1.117 5.01 1.246 7.133 3.991 8.012 5.882.131-.389.274-.768.382-1.237 0 0 .382-5.399-7.69-7.426-7.203-1.813-39.716-3.036-52.974 7.559-.887.716-1.918 1.651-2.604 2.943a6.637 6.637 0 0 0 1.675 2.35c.01.02.115.13.313.278 3.5-7.07 16.685-9.307 24.175-10.602z"/><linearGradient id="A" x1="38.7373" x2="54.2583" y1="368.0469" y2="368.0469" gradientUnits="userSpaceOnUse"><stop offset="0" style="stop-color:#f36d20"/><stop offset="0.2308" style="stop-color:#ffd200"/><stop offset="0.4945" style="stop-color:#faa21a"/><stop offset="0.7967" style="stop-color:#ffd200"/><stop offset="1" style="stop-color:#f15d21"/></linearGradient><path fill="url(#A)" d="M39.448 365.742a15.1 15.1 0 0 1-.71 1.615c.587.337 1.259.734 1.971 1.155 4.262-.618 8.893-.242 13.55 2.117l-1.193-3.337-.126-.356c-5.161-1.459-9.94-1.783-13.492-1.194z"/><path fill="#120E07" d="M67.934 341.994c-2.146-.534-7.565-1.117-14.415-1.117-5.073 0-9.892.301-14.296.864-7.489 1.295-20.675 3.532-24.176 10.602.487.376 1.637.972 4 .972 1.51 0 3.268-.253 5.215-.758 8.192-2.123 9.93-4.486 9.951-4.513 1.541-1.305 3.257-3.801 3.257-3.801s1.358 1.913 1.957 4.396c.146.47 2.873 9.582.021 17.103 3.553-.589 8.331-.266 13.491 1.194l-1.609-4.503s-1.563-9.481 8.044-10.032c8.016-.46 13.075 1.541 15.68-2.554.341-.534.628-1.218.892-1.972-.879-1.89-3.003-4.635-8.012-5.881z"/><path d="M250.474 398.104v-.038c.771-.282 1.489-.998 1.489-2.06 0-.692-.259-1.269-.709-1.645-.55-.466-1.354-.66-2.538-.66-.861 0-1.702.074-2.266.168v8.109h1.489v-3.376h.751c.857.025 1.246.369 1.482 1.438.227 1.029.421 1.696.544 1.938h1.547c-.168-.313-.388-1.266-.644-2.295-.206-.788-.559-1.358-1.145-1.579zm-1.641-.601h-.894v-2.59c.142-.046.446-.078.926-.078.974 0 1.608.415 1.608 1.317.001.82-.634 1.351-1.64 1.351zm.236-6.232a6.799 6.799 0 0 0-6.796 6.805 6.798 6.798 0 1 0 13.597 0 6.803 6.803 0 0 0-6.801-6.805zm0 12.774a5.972 5.972 0 1 1 0-11.946 5.972 5.972 0 1 1 0 11.946z"/></svg>