<svg xmlns="http://www.w3.org/2000/svg" width="223.37048mm" height="309.01599mm" viewBox="0 0 223.37048 309.01599"><g style="stroke-width:.243337"><g style="stroke-width:.243337"><path d="M0 0a7.81 7.81 0 0 0-3.441-6.478c-3.787-2.554-4.923-3.321-5.303-3.574l-6.592-4.485v-.409a18.83 18.83 0 0 0-8.302-15.625l-53.399-36.066-53.4 36.066a18.83 18.83 0 0 0-8.301 15.625v.409l-6.594 4.483.001.002c-.38.253-1.516 1.02-5.301 3.573A7.81 7.81 0 0 0-154.075 0v131.775a7.805 7.805 0 0 0 3.442 6.477l5.301 3.577 6.889 4.685 2.456-3.5h117.9l2.456 3.5 6.888-4.685 5.301-3.576A7.808 7.808 0 0 0 0 131.775Z" style="fill:#fff;fill-opacity:1;fill-rule:nonzero;stroke:none;stroke-width:.243337" transform="matrix(1.44975 0 0 -1.44975 223.37 212.409)"/></g><g style="stroke-width:.243337"><path d="M0 0h11.47v3.707H3.933v6.733h6.39v3.706h-6.39v6.733h7.537v3.707H0Z" style="fill:#002856;fill-opacity:1;fill-rule:nonzero;stroke:none;stroke-width:.243337" transform="matrix(1.44975 0 0 -1.44975 117.814 46.424)"/></g><g style="stroke-width:.243337"><path d="m0 0-3.588 11.489-.13.417H-7.51V-12.68h3.912V-.719L.158-12.68h3.864v24.586H0Z" style="fill:#002856;fill-opacity:1;fill-rule:nonzero;stroke:none;stroke-width:.243337" transform="matrix(1.44975 0 0 -1.44975 169.374 28.041)"/></g><path d="M166.496 310.146h-3.594v6.733h3.594zm3.032 9.502c-.624.631-1.422.938-2.44.938h-4.816c-.924 0-1.693-.302-2.352-.923-.626-.591-.957-1.338-.957-2.162V296h3.902v10.439h3.631V296h3.938v21.501c0 .783-.291 1.479-.891 2.132z" style="fill:#002856;fill-opacity:1;fill-rule:nonzero;stroke:none;stroke-width:.243337" transform="matrix(1.44975 0 0 -1.44975 -153.072 475.55)"/><g style="stroke-width:.243337"><path d="M0 0Zm9.585-.22C9.027.307 8.319.7 7.414.984L3.326 2.275c-.093.03-.215.132-.312.257-.133.204-.15.332-.15.42v5.459h3.57V5.025h3.885v3.986c0 .878-.32 1.625-.959 2.227l-.008.008c-.666.587-1.416.872-2.291.872H2.273c-.907 0-1.683-.298-2.305-.885-.633-.597-.953-1.344-.953-2.222V2.125c0-.803.306-1.561.892-2.198l.01-.01c.547-.552 1.26-.962 2.18-1.25l4.111-1.264c.106-.028.187-.075.309-.236.125-.166.135-.252.135-.333v-5.596H3.083v3.351H-.803v-4.02c0-.855.321-1.591.953-2.188l.032-.027a3.514 3.514 0 0 1 2.274-.823h4.787c.862 0 1.62.281 2.253.836.668.587 1.006 1.328 1.006 2.202v7.024c0 .791-.298 1.517-.887 2.157z" style="fill:#002856;fill-opacity:1;fill-rule:nonzero;stroke:none;stroke-width:.243337" transform="matrix(1.44975 0 0 -1.44975 99.016 28.348)"/></g><g style="stroke-width:.243337"><path d="M0 0zm-2.937 2.647h-3.774v17.172h3.774zm2.922 19.964c-.617.616-1.368.916-2.297.916h-5.024c-.931 0-1.683-.3-2.294-.914-.647-.574-.988-1.316-.988-2.146V2.103c0-.799.305-1.554.889-2.189l.009-.01c.633-.639 1.435-.964 2.384-.964h5.024c.949 0 1.75.325 2.39.971l.009.009C.665.549.97 1.304.97 2.103v18.364c0 .828-.341 1.57-.985 2.144" style="fill:#002856;fill-opacity:1;fill-rule:nonzero;stroke:none;stroke-width:.243337" transform="matrix(1.44975 0 0 -1.44975 153.458 44.888)"/></g><g style="stroke-width:.243337"><path d="M0 0c-.653.613-1.416.912-2.332.912h-4.815A3.566 3.566 0 0 1-9.425.085l-.01-.009a2.948 2.948 0 0 1-1.04-2.302v-18.277c0-.943.35-1.729 1.04-2.336l.031-.026c.711-.545 1.449-.81 2.257-.81h4.815c.919 0 1.685.3 2.34.918.664.627.988 1.364.988 2.254v10.975h-5.853v-3.707h1.936v-6.733h-3.637v17.174h3.637v-3.413H.996v3.981C.996-1.333.661-.584 0 0" style="fill:#002856;fill-opacity:1;fill-rule:nonzero;stroke:none;stroke-width:.243337" transform="matrix(1.44975 0 0 -1.44975 193.987 12.102)"/></g><g style="stroke-width:.243337"><path d="m0 0-1.822 14.084-.013.103h-3.284L-6.955 0l-1.822 14.084-.013.103h-4.071l3.63-24.587h4.226L-3.49.463-1.949-10.4h4.225l3.63 24.587H1.835Z" style="fill:#002856;fill-opacity:1;fill-rule:nonzero;stroke:none;stroke-width:.243337" transform="matrix(1.44975 0 0 -1.44975 66.104 31.347)"/></g><g style="stroke-width:.243337"><path d="M0 0h-3.605v10.44h-3.933v-24.586h3.933v10.444H0v-10.444h3.932V10.44H0Z" style="fill:#002856;fill-opacity:1;fill-rule:nonzero;stroke:none;stroke-width:.243337" transform="matrix(1.44975 0 0 -1.44975 38.868 25.915)"/></g><g style="stroke-width:.243337"><path d="m0 0-57.766 44.886V30.83c0-4.956 2.462-9.589 6.57-12.363L0-16.111l51.196 34.578a14.92 14.92 0 0 1 6.569 12.363V44.886z" style="fill:#002856;fill-opacity:1;fill-rule:nonzero;stroke:none;stroke-width:.243337" transform="matrix(1.44975 0 0 -1.44975 111.686 278.773)"/></g><g style="stroke-width:.243337"><path d="m0 0 21.708-14.662v8.708L0 8.708-21.708-5.954v-8.708z" style="fill:#002856;fill-opacity:1;fill-rule:nonzero;stroke:none;stroke-width:.243337" transform="matrix(1.44975 0 0 -1.44975 111.685 203.268)"/></g><g style="stroke-width:.243337"><path d="m0 0-3.285-2.219-3.285-2.218-3.285-2.219V-2.698L-6.57-.48l3.285 2.218v7.915L0 11.871V3.957l3.285-1.738Zm-13.14 28.844V17.029l-3.285 2.219V29.64l1.053.712 2.232 1.506zm0-35.499v-.001l-3.285 2.219-3.285 2.218L-22.995 0l-3.285 2.219 3.285 1.738v7.914l3.285-2.218V1.738l3.285-2.218 3.285-2.219zm3.285 27.641v10.872l2.232-1.506 1.053-.712V19.248l-3.285-2.219zm40.602 86.617h15.521v33.192h-52.76V59.351l16.703-11.282v26.254h19.354V37.209a10.61 10.61 0 0 0-4.669-8.789l-14.685-9.918-5.106-3.448v4.166l-1.82-1.23L0 15.771l-2.976-2.009-3.594-2.428V3.478l-3.285-2.219V13.072l3.285 2.219 3.285 2.219v9.911l1.478-.998L0 25.202v-5.473l3.285 2.218 6.926 4.678-21.709 14.662-21.707-14.662 9.744-6.582.466-.314v5.473l1.807 1.221 1.478.998V17.51l3.285-2.219 3.285-2.219V1.259l-3.285 2.218v7.857l-3.285 2.219-3.285 2.218-3.285 2.219-1.82 1.23v-4.166l-5.105 3.448-14.685 9.918a10.608 10.608 0 0 0-4.67 8.789V74.323h19.355V48.069l16.703 11.282v81.444h-15.521a1.182 1.182 0 0 1-1.182-1.181V91.026H-52.56v48.588a1.18 1.18 0 0 1-1.181 1.181h-15.521V30.469c0-4.957 2.461-9.59 6.569-12.364l51.195-34.578h.001l51.196 34.578a14.918 14.918 0 0 1 6.569 12.364v60.557H10.211v33.066h19.354v-15.308a1.18 1.18 0 0 1 1.182-1.181" style="fill:#e74e0f;fill-opacity:1;fill-rule:nonzero;stroke:none;stroke-width:.243337" transform="matrix(1.44975 0 0 -1.44975 128.354 263.123)"/></g><g style="stroke-width:.243337"><path d="M0 0v62.17c0 1.289-.64 2.494-1.708 3.215l-5.312 3.584-.74.504V-76.908l.74.503 5.312 3.584A3.88 3.88 0 0 1 0-69.605v62.169l-3.717 3.718z" style="fill:#002856;fill-opacity:1;fill-rule:nonzero;stroke:none;stroke-width:.243337" transform="matrix(1.44975 0 0 -1.44975 217.664 111.498)"/></g><g style="stroke-width:.243337"><path d="M0 0v62.17c0 1.289.64 2.494 1.708 3.215l5.312 3.584.74.504V-76.908l-.74.503-5.312 3.584A3.88 3.88 0 0 0 0-69.605v62.169l3.718 3.718z" style="fill:#002856;fill-opacity:1;fill-rule:nonzero;stroke:none;stroke-width:.243337" transform="matrix(1.44975 0 0 -1.44975 5.707 111.498)"/></g></g></svg>