<svg xmlns="http://www.w3.org/2000/svg" width="198.88838mm" height="274.33609mm" viewBox="0 0 198.88838 274.33609"><defs><clipPath id="a" clipPathUnits="userSpaceOnUse"><path d="M97.419 425.196c0-43.087 24.661-78.019 55.084-78.019 30.425 0 55.084 34.932 55.084 78.019 0 43.093-24.659 78.019-55.084 78.019-30.423 0-55.084-34.926-55.084-78.019"/></clipPath></defs><g style="stroke-width:.21871"><g style="stroke-width:.21871"><path d="M0 0c0-46.965-27.6-85.039-61.653-85.039-34.048 0-61.651 38.074-61.651 85.039s27.603 85.04 61.651 85.04C-27.6 85.04 0 46.965 0 0" style="fill:#ffdb00;fill-opacity:1;fill-rule:nonzero;stroke:none;stroke-width:.21871" transform="matrix(1.613 0 0 -1.613 198.888 137.169)"/></g><g style="stroke-width:.21871"><path d="M0 0c0-43.087-24.659-78.019-55.083-78.019S-110.168-43.087-110.168 0c0 43.093 24.661 78.019 55.085 78.019S0 43.093 0 0" style="fill:#231916;fill-opacity:1;fill-rule:nonzero;stroke:none;stroke-width:.21871" transform="matrix(1.613 0 0 -1.613 188.295 137.169)"/></g><g style="stroke-width:.21871"><g clip-path="url(#a)" style="stroke-width:.21871" transform="matrix(1.613 0 0 -1.613 -146.541 823.007)"><path d="M109.301 345.432H97.337v159.529h11.964zM133.893 345.432h-11.965v159.529h11.965zM158.485 345.432h-11.961v159.529h11.961zM183.075 345.432h-11.961v159.529h11.961zM207.668 345.432h-11.963v159.529h11.963z" style="fill:#00509e;fill-opacity:1;fill-rule:nonzero;stroke:none;stroke-width:.21871"/></g><g style="stroke-width:.21871"><path d="m0 0-1.141.115.225.338L.565 2.784l.102.181c.392.693.879 1.556.879 2.33 0 1.316-1.326 2.027-2.574 2.027a6.026 6.026 0 0 1-2.169-.404l-.459-1.496c.494.345 1.152.74 1.88.74.576 0 .98-.377.98-.917 0-.489-.34-1.104-.542-1.472l-.979-1.78-1.868-3.064h5.803L2.133.552C1.416.212.807 0 0 0" style="fill:#ffdb00;fill-opacity:1;fill-rule:nonzero;stroke:none;stroke-width:.21871" transform="matrix(1.613 0 0 -1.613 83.768 238.611)"/></g><g style="stroke-width:.21871"><path d="M0 0c-1.088 0-1.172 2.1-1.172 2.744 0 .725.019 1.551.248 2.171.169.462.516.954.987.954 1.159 0 1.159-2.055 1.159-2.732C1.222 2.401 1.133 0 0 0m3.297 2.973c0 1.223-.269 2.196-.823 2.972-.591.818-1.42 1.249-2.398 1.249-1.053 0-2.024-.555-2.597-1.483-.45-.776-.698-1.78-.698-2.827 0-1.115.281-2.176.773-2.914A3.041 3.041 0 0 1 .05-1.364c.941 0 1.899.555 2.498 1.447.62.946.749 2.093.749 2.89" style="fill:#ffdb00;fill-opacity:1;fill-rule:nonzero;stroke:none;stroke-width:.21871" transform="matrix(1.613 0 0 -1.613 93.21 238.405)"/></g><g style="stroke-width:.21871"><path d="M0 0c-1.056 0-1.171 1.92-1.171 2.744 0 .726.019 1.555.246 2.171.167.461.515.954.987.954 1.158 0 1.158-2.055 1.158-2.732C1.22 2.401 1.133 0 0 0m3.296 2.973c0 1.225-.27 2.198-.823 2.972-.591.818-1.419 1.249-2.397 1.249-1.052 0-2.024-.555-2.597-1.483-.451-.775-.7-1.778-.7-2.827 0-1.114.283-2.176.774-2.914A3.044 3.044 0 0 1 .049-1.364c.941 0 1.899.555 2.498 1.447.618.944.749 2.093.749 2.89" style="fill:#ffdb00;fill-opacity:1;fill-rule:nonzero;stroke:none;stroke-width:.21871" transform="matrix(1.613 0 0 -1.613 105.398 238.405)"/></g><g style="stroke-width:.21871"><path d="m0 0-.265.083.26.071c.808.219 1.35.887 1.35 1.663 0 .571-.368 1.123-.985 1.477-.475.26-1.124.409-1.778.409-.661 0-1.354-.102-2.004-.247l-.372-1.261c.408.198 1.034.463 1.601.463.634 0 1.311-.288 1.311-1.096C-.882.314-2.277.314-2.737.314h-.188v-.969h.519c.507 0 1.001-.027 1.444-.348.351-.275.537-.664.537-1.128 0-.95-.733-1.639-1.742-1.639-.586 0-1.276.191-1.855.483.071-.318.268-1.19.268-1.316 0-.009-.001-.012-.003-.013a8.118 8.118 0 0 1 1.906-.239c1.784 0 3.703.849 3.703 2.712C1.852-1.091 1.125-.249 0 0" style="fill:#ffdb00;fill-opacity:1;fill-rule:nonzero;stroke:none;stroke-width:.21871" transform="matrix(1.613 0 0 -1.613 118.313 232.774)"/></g><g style="stroke-width:.21871"><path d="M0 0c-1.713-2.581-6.081-3.887-6.13-3.897-2.767-.384-7.982.565-7.982.565-5.743.181-1.935 1.859-1.935 1.859-7.052-.322-2.595 1.428-2.595 1.428-8.984-.992 1.346 3.046 1.346 3.046-16.677-2.308-3.942 1.632-3.942 1.632-19.804.845-4.138 2.38-4.138 2.38-16.672 2.669-8.256 3.268-8.256 3.268-9.683 3.545 2.988 2.586 2.988 2.586-5.929 2.332-7.98 5.859-7.98 5.859-1.354 3.223 1.49.924 1.49.924 1.473-1.542 4.771-2.709 4.771-2.709-5.59 3.614-7.102 6.977-7.102 6.977-.537 2.635 1.386.067 1.386.067 2.959-3.52 8.62-5.449 8.62-5.449-9.287 8.292-9.607 12.028-9.607 12.028.148 3.188 2.222.179 2.222.179 3.461-5.27 5.354-5.568 5.354-5.568-7.284 9.734-6.58 11.635-6.58 11.635 1.194 2.538 2.384-.635 2.384-.635 3.899-7.41 6.866-8.926 6.866-8.926l-3.52 5.715c-4.196 6.312-4.059 9.417-4.059 9.417.02 1.943 1.381 1.22 1.381 1.22l-.66 1.533c-.73 3.158 2.561 1.915 2.561 1.915l-.367.91c-.125 7.663 2.73 7.995 2.73 7.995 2.545-.205 1.555-3.369 1.555-3.369-.49-1.08-.513-4.744-.513-4.744 2.547-7.942 16.61-19.038 16.61-19.038 9.606-7.336 16.33-20.188 16.33-20.188l1.734-7.13S1.884 2.832 0 0" style="fill:#ffdb00;fill-opacity:1;fill-rule:nonzero;stroke:none;stroke-width:.21871" transform="matrix(1.613 0 0 -1.613 77.117 167.802)"/></g><g style="stroke-width:.21871"><path d="M0 0s-3.21-.039-.085.936c0 0 4.249 1.184 6.175 1.987 0 0-.116-1.394 1.556-1.314C7.646 1.609 4.652-.384 0 0m-3.163 1.198C-6.082 1.154-.381 3.227-.381 3.227c1.87.83 3.166 1.293 3.75 1.495.21-.823 2.464-1.385 2.464-1.385-.639-.255-3.678-1.386-3.678-1.386-1.547-.61-5.318-.753-5.318-.753M-5.596 3.69c-4.328-.369 1.362 1.355 1.362 1.355 3.052 1.309 6.593 1.434 6.593 1.434.075-.383.913-.908 1.186-1.071-.222-.14-.457-.339-.457-.339C1.034 4.145-5.596 3.69-5.596 3.69m-4.673 2.782s-5.355.648-.151.974c0 0 3.081.571 4.666.624 0 0 7.558-.378 8.358-.564 0 0-.444-.16-.681-.527 0 0-5.282-1.314-12.192-.507m-5.137 3.723s-3.402.354.474 1.044c0 0 3.257-1.001 8.116-1.42 0 0 5.289-.792 8.47-.498l.636-1.374s-13.824.485-17.696 2.248m-1.318 2.161s-3.574 1.449-.568 1.522l6.182-.122s1.609-.227 1.412-.043c0 0 2.421-.508 3.747-.204l.507.02s3.654-1.989 7.193-2.515c0 0-.168-.704.042-1.224 0 0-2.121.044-3.253-.053 0 0-9.825.206-15.262 2.619m-3.513 7.777s-.724 2.007.701 1.057c0 0 5.035-4.274 9.448-5.023 0 0 .79-.527 1.023-.529 0 0 2.43-1.522 2.796-1.688 0 0-5.953.37-5.826.253 0 0-5.985 2.187-8.142 5.93m-.441 4.579s-1.222 2.536.424.764c0 0 2.112-2.701 6.349-4.814 0 0 3.05-1.333 4.229-1.993 0 0 1.679-1.276 1.991-1.317 0 0 2.396-2.235 9.468-4.316 0 0-.184-1.056.005-1.62 0 0-5.842 1.039-10.671 4.624 0 0-.599.154-1.844.84 0 0-.417.189-.499.046 0 0-6.339 2.713-9.452 7.786m3.011 2.042s-2.536 2.553-2.776 5.646c0 0-.067 1.648 1.475-.187 0 0 3.235-5.619 10.365-10.182l1.054-1.067s1.61-1.791 2.069-2.31c.065-.035.125-.076.191-.119 0 0 4.69-2.911 8.511-3.815 0 0-.851-.392-.199-1.411 0 0-4.768.132-10.285 4.328 0 0-2.098 1.534-2.072 1.485 0 0-3.328 1.337-8.333 7.632m-.385 7.141c-2.574 4.287-.807 4.92-.807 4.92.88.135 1.674-2.203 1.674-2.203 3.159-6.419 8.919-10.902 8.919-10.902 2.264-1.893 2.971-3.591 3.21-3.788l1.941-2.031.654-.36c1.485-.978 6.556-3.051 6.556-3.051-.426-.29.061-1.172.061-1.172l-.033-.395c-7.006 2.23-9.764 4.793-9.764 4.793-1.076 1.545-1.009 1.124-2.235 2.291-1.142.754-3.363 2.73-3.363 2.73-2.647 2.167-6.813 9.168-6.813 9.168m2.358 3.54c-2.719 4.476-2.04 6.621-2.04 6.621.296 1.787 1.226-.253 1.226-.253.526-.964 2.371-4.741 2.371-4.741 3.351-5.365 8.03-10.077 8.03-10.077.258-1.077 3.105-4.937 3.105-4.937-.045-.1 1.023-1.191 2.764-2.133 0 0 2.241-1.721 6.169-3.693l-.124-.601s.032-.442.085-.456c0 0 .718-.872-.164-.531 0 0-.754.467-1.386.217 0 0-5.553 2.146-8.193 4.666l-1.3 1.912-1.265 1.589c-1.276.839-1.144 1.064-3.987 3.829-1.035 1.305-5.291 8.588-5.291 8.588m-1.517 10.083s.735 1.258 2.212.35c0 0 2.377-5.48 4.385-7.591 0 0 2.88-2.814 5.841-5.124 0 0 4.492-3.666 6.369-5.905 0 0 .488-.395 2.293-2.301 0 0 3.869-4.405 5.031-6.07 0 0-1.03-.086-1.125-.68 0 0-.173-1.191.202-1.838l-1.746.077s-7.064 4.57-6.907 4.405c0 0-2.219 1.881-4.434 5.264 0 0-.278 1.026-.484 1.062 0 0-5.539 5.938-8.014 10.122 0 0-2.4 4.516-2.81 5.243 0 0-1.337 2.492-.813 2.986M9.242 20.433l3.265-4.732c.234-.382.544-1.084.544-1.084-.08.026.906-.772 1.643-2.427l-1.096.201-.644.052-1.105.02c-.657.696-1.968 2.477-1.932 2.377-.898 1.024-2.655 2.168-2.835 2.919-.159.644 1.226-.15 1.352.284-.623 2.535.808 2.39.808 2.39m7.327-12.458s-3.773.701-5.252 2.992c0 0-.825.8.324.879 0 0 2.195.257 3.31-.072 0 0 1.341-2.595 1.618-3.799m.132-1.321s-2.489-.898-6.413 1.244c0 0-2.089 1.615-.496 1.849 0 0 1.201.353 2.961-.689 0 0 3.258-1.487 3.876-1.588 0 0 .51-.353.072-.816m.122-1.368s-4.385-1.481-6.241 1.459c0 0-.511.834.325.391 0 0 1.691-1.007 4.03-.937l1.981-.059s.122-.537-.095-.854m-.174-1.24c-.075-.164-.284-.61-.226-.619 0 0-.109-.551-.254-.722 0 0-1.152-.077-1.945.945 0 0-.718.85-1.154 1.064 0 0 2.512-.362 3.468.1 0 0 .244-.743.111-.768M14.542.927S8.951.56 9.104 1.872c0 0 2.471 1.063 2.426 1.081l1.963.732s1.233-1.05 1.935-1.307c0 0 .222-.086.383-.251 0 0-.568-.803-1.269-1.2M4.584 5.165l1.485.159s.016.012.04.018h.004c.495.229 2.927.782 4.197.812 0 0 1.116-.809 1.479-1.152 0 0-1.269-.621-2.719-.648a41.708 41.708 0 0 0-1.207-.341c-.087-.08-1.079-.917-3.166.262 0 0-1.727.606-.113.89M3.639 7.16l.972-.147s1.132-.939 2.548-.925c0 0-1.605-.386-1.88-.549-.542-.072-1.436-.017-2.175.778 0 0-.592.989.535.843m-.103 5.32s.277-.58.905-.987c0 0 .716-.455 1.044-.706l3.207-1.5s.068-.79.882-1.27c-.685.177-3.984 1.017-3.879.926-1.155.593-3.989 2.065-3.467 3.595 0 0 .443.816 1.308-.058m3.523.518c.245-.186.468-.215.922-.717.585-.519 2.117-1.561 2.825-2.033-1.221.252-2.102-.606-2.102-.606-.548.32-1.737.909-1.737.909-2.786 1.513-3.246 2.535-3.246 2.535-.386.565-.185 1.014-.185 1.014.388.851 2.287-.277 3.523-1.102m-.251 3.568c-1.598 2.717 3.571-2.772 3.571-2.772l.964-1.461c-1.142-.064-.925-.825-.537-1.466-1.072.823-2.669 1.898-2.65 1.865L5.258 14.63c-2.281 2.657 1.089 1.244 1.089 1.244 1.266-.637.461.692.461.692M2.137 10.72s1.087-1.078 2.555-1.681c-.037.012.991-.494.955-.482.192-.107.591-.184.775-.303 1.221-.237 2.498-.426 3.574-.65-.085-.141-.262-.558.032-1.083 0 0-4.027-.671-5.15.957-.199.023-.527-.048-.527-.048s-1.872-.046-2.262 1.873c0 0 .32.317.252.426a1.34 1.34 0 0 0-.204.991m4.595-8.511s-.737.512.223.978l1.218.395s.735.044.776.07c0 0 .975.34 1.997.471 0 0 .974.334 1.46.593l.662-.657s-1.032-.692-2.646-.97c0 0-1.276-.491-1.189-.497 0 0-1.159-1.174-2.501-.383m11.27-.817c-1.638-2.471-5.898-3.751-5.94-3.762-2.647-.364-7.791.562-7.843.572-2.276.073-2.777.375-2.881.47.134.106.319.249.334.264 0 0 .251.549 1.975.901 0 0 3.766.615 4.993 1.674 0 0 1.993-1.589 6.364-1.12 0 0 .973.914 2.065 3.158 1.098 2.245-.764 6.468-.764 6.468-1.086 2.832-5.985 9.683-5.985 9.683-3.957 5.824-8.072 9.673-8.072 9.673-5.701 5.593-9.94 8.674-9.94 8.674-4.312 3.577-6.896 10.459-6.896 10.459-1.183 3.112.66 6.828.66 6.828.673 1.977 1.951 1.514 1.951 1.514 1.445-.421.95-2.473.95-2.473-.392-1.2-.794-3.54-.794-3.54-.342-3.857 4.483-9.237 4.483-9.237 2.755-3.413 12.983-12.27 12.983-12.27 8.051-7.27 11.656-13.052 11.656-13.052 1.987-2.596 3.179-4.862 3.896-6.586.123.092.309.16.493.228-1.097 2.473-3.282 6.323-7.658 11.571 0 0-2.359 3.475-11.272 11.13 0 0-9.006 7.458-11.735 12.068 0 0-3.024 3.475-2.035 7.758 0 0 1.678 3.681-.906 4.856 0 0-1.516.753-2.799-2.389 0 0-1.211-2.729-.901-5.884.408-.822-1.102-.035-1.507-.384 0 0-.654-.385-.681-1.106 0 0-.3-.785.679-2.315 0 0-2.052.387-1.096-3.877 0 0 .405-1.391 1.626-3.439l4.596-7.677s1.008-1.538-.372-.009c0 0-3.339 3.921-5.132 7.976 0 0-.277 1.024-1.442 1.078 0 0-1.87-.524-.785-3.184 0 0 1.749-3.674 4.745-7.86 0 0 1.168-1.669-.301-.161l-3.262 4.245s-1.032 1.497-2.131 1.029c0 0-1.566-1.806 2.262-6.607 0 0 4.101-4.689 6.254-6.325 0 0-3.928.831-8.096 5.547 0 0-1.504 1.585-1.18-.477 0 0 .742-3.1 6.805-7.067 0 0-1.44.418-3.523 2.211 0 0-3.356 2.904-2.615-.193 0 0 1.311-3.646 7.472-6.101 0 0-11.668.64-2.698-2.663 0 0-8.33-1.482 8.438-3.489 0 0-12.008-.761-1.731-2.33l5.438-.138s-9.885-3.111-.463-2.307l4.13.577S-9.901-.046-1.111.984c0 0-3.964-1.368 2.717-1.542 0 0-.888-.645-1.165-.926.01-.004.017-.009.03-.009-.089-.058-.102-.114.03-.148-.093.014-.094 0 .281-.079l.036-.003c.257-.316.959-.647 3.333-.722.155-.031 4.502-.813 7.361-.627.077 0 .162-.003.234-.002l.012.021c.147.014.293.026.43.045.056.011 4.564 1.338 6.356 4.041 1.705 2.562 4.446 1.415 4.562 1.365l.259.596c-.032.016-3.351 1.422-5.363-1.602" style="fill:#00509e;fill-opacity:1;fill-rule:nonzero;stroke:none;stroke-width:.21871" transform="matrix(1.613 0 0 -1.613 47.642 169.756)"/></g><g style="stroke-width:.21871"><path d="M0 0c1.712-2.581 6.08-3.887 6.129-3.897 2.767-.384 7.982.565 7.982.565 5.743.181 1.937 1.859 1.937 1.859 7.052-.322 2.593 1.428 2.593 1.428 8.985-.992-1.344 3.046-1.344 3.046 16.676-2.308 3.94 1.632 3.94 1.632 19.805.845 4.139 2.38 4.139 2.38 16.673 2.669 8.257 3.268 8.257 3.268 9.681 3.545-2.99 2.586-2.99 2.586 5.93 2.332 7.982 5.859 7.982 5.859 1.353 3.223-1.49.924-1.49.924-1.473-1.542-4.771-2.709-4.771-2.709 5.589 3.614 7.1 6.977 7.1 6.977.537 2.635-1.385.067-1.385.067-2.959-3.52-8.619-5.449-8.619-5.449 9.285 8.292 9.605 12.028 9.605 12.028-.147 3.188-2.221.179-2.221.179-3.462-5.27-5.353-5.568-5.353-5.568 7.281 9.734 6.579 11.635 6.579 11.635-1.194 2.538-2.384-.635-2.384-.635-3.9-7.41-6.866-8.926-6.866-8.926l3.521 5.715c4.195 6.312 4.058 9.417 4.058 9.417-.02 1.943-1.379 1.22-1.379 1.22l.656 1.533c.732 3.158-2.558 1.915-2.558 1.915l.366.91c.126 7.663-2.73 7.995-2.73 7.995-2.546-.205-1.556-3.369-1.556-3.369.49-1.08.515-4.744.515-4.744-2.548-7.942-16.61-19.038-16.61-19.038C3.495 21.467-3.23 8.615-3.23 8.615l-1.732-7.13S-1.886 2.832 0 0" style="fill:#ffdb00;fill-opacity:1;fill-rule:nonzero;stroke:none;stroke-width:.21871" transform="matrix(1.613 0 0 -1.613 121.77 167.802)"/></g><g style="stroke-width:.21871"><path d="M0 0c-.082.142-.498-.046-.498-.046-1.245-.686-1.846-.84-1.846-.84-4.827-3.586-10.671-4.625-10.671-4.625.19.565.007 1.621.007 1.621C-5.936-1.81-3.542.426-3.542.426c.313.041 1.992 1.317 1.992 1.317 1.18.66 4.228 1.993 4.228 1.993C6.917 5.849 9.029 8.55 9.029 8.55c1.645 1.772.424-.765.424-.765C6.339 2.713 0 0 0 0m8.311 4.264c1.425.95.698-1.057.698-1.057C6.855-.536.87-2.724.87-2.724c.127.118-5.826-.252-5.826-.252.367.166 2.795 1.687 2.795 1.687.234.003 1.023.53 1.023.53 4.414.749 9.449 5.023 9.449 5.023M6.067-3.048c3.008-.074-.568-1.522-.568-1.522C.062-6.983-9.764-7.189-9.764-7.189c-1.131.097-3.252.053-3.252.053.21.52.041 1.223.041 1.223 3.539.527 7.194 2.516 7.194 2.516l.506-.02c1.327-.304 3.748.204 3.748.204-.198-.184 1.411.043 1.411.043zM4.179-6.731C.308-8.494-13.516-8.979-13.516-8.979l.636 1.374c3.182-.295 8.47.498 8.47.498 4.861.419 8.118 1.42 8.118 1.42 3.873-.69.471-1.044.471-1.044M-.806-9.48c5.203-.326-.15-.975-.15-.975-6.911-.806-12.191.508-12.191.508-.24.367-.683.527-.683.527.802.185 8.36.563 8.36.563 1.584-.052 4.664-.623 4.664-.623m-6.186-2.401s5.691-1.724 1.362-1.355c0 0-6.63.455-8.683 1.379 0 0-.236.199-.457.338.272.164 1.111.689 1.187 1.071 0 0 3.539-.124 6.591-1.433m-3.852-1.818s5.701-2.073 2.781-2.029c0 0-3.772.143-5.319.753 0 0-3.037 1.131-3.676 1.385 0 0 2.253.562 2.463 1.386a47.458 47.458 0 0 0 3.751-1.495m-.381-3.227c-4.654-.385-7.647 1.609-7.647 1.609 1.673-.08 1.557 1.314 1.557 1.314 1.925-.804 6.175-1.987 6.175-1.987 3.125-.975-.085-.936-.085-.936m-9.232 2.592c.085.006-1.19.497-1.19.497-1.614.278-2.646.97-2.646.97l.661.657c.487-.259 1.46-.593 1.46-.593 1.024-.131 1.998-.471 1.998-.471.042-.026.777-.07.777-.07l1.217-.395c.959-.466.223-.979.223-.979-1.343-.79-2.5.384-2.5.384m-5.31-1.665c-.702.397-1.269 1.199-1.269 1.199.16.166.383.252.383.252.701.257 1.935 1.307 1.935 1.307l1.963-.732c-.046-.019 2.426-1.082 2.426-1.082.154-1.312-5.438-.944-5.438-.944m-1.628 1.778c-.145.171-.254.722-.254.722.059.009-.149.454-.226.618-.132.026.111.769.111.769.958-.462 3.467-.1 3.467-.1-.435-.214-1.153-1.064-1.153-1.064-.794-1.023-1.945-.945-1.945-.945m-.746 3.435 1.979.058c2.337-.069 4.03.938 4.03.938.836.443.324-.391.324-.391-1.855-2.94-6.242-1.46-6.242-1.46-.216.318-.091.855-.091.855m.287 1.329c.619.102 3.875 1.589 3.875 1.589 1.76 1.042 2.961.689 2.961.689 1.595-.234-.495-1.849-.495-1.849-3.923-2.143-6.414-1.244-6.414-1.244-.438.463.073.815.073.815m1.676 4.305c1.115.329 3.312.072 3.312.072 1.147-.079.324-.879.324-.879-1.479-2.291-5.252-2.992-5.252-2.992.276 1.204 1.616 3.799 1.616 3.799m1.902 2.843s.309.702.544 1.084l3.264 4.732s1.431.145.809-2.39c.128-.434 1.51.36 1.352-.284-.181-.751-1.939-1.895-2.837-2.92.037.101-1.273-1.68-1.93-2.376l-1.106-.02-.645-.052-1.095-.201c.738 1.654 1.723 2.452 1.644 2.427m9.16 12.33c1.806 1.906 2.295 2.301 2.295 2.301 1.877 2.239 6.369 5.905 6.369 5.905 2.962 2.31 5.84 5.124 5.84 5.124 2.008 2.111 4.388 7.591 4.388 7.591 1.474.908 2.21-.35 2.21-.35.524-.494-.812-2.986-.812-2.986-.411-.727-2.811-5.243-2.811-5.243-2.474-4.185-8.014-10.122-8.014-10.122-.206-.036-.484-1.062-.484-1.062-2.215-3.383-4.435-5.264-4.435-5.264.157.165-6.906-4.405-6.906-4.405l-1.745-.077c.373.647.2 1.837.2 1.837-.094.595-1.125.681-1.125.681 1.164 1.664 5.03 6.07 5.03 6.07M6.508 27.13s.679-2.146-2.039-6.621c0 0-4.257-7.283-5.292-8.588-2.842-2.766-2.71-2.991-3.986-3.829l-1.267-1.589-1.299-1.912c-2.637-2.52-8.192-4.667-8.192-4.667-.632.251-1.386-.216-1.386-.216-.883-.341-.165.531-.165.531.052.014.086.455.086.455l-.124.602c3.929 1.972 6.166 3.693 6.166 3.693 1.743.942 2.812 2.033 2.767 2.132 0 0 2.847 3.861 3.104 4.937 0 0 4.682 4.713 8.03 10.078 0 0 1.845 3.777 2.373 4.741 0 0 .927 2.04 1.224.253m-.55-7.444s.795 2.338 1.675 2.202c0 0 1.767-.633-.805-4.919 0 0-4.168-7.001-6.814-9.168 0 0-2.221-1.976-3.365-2.73-1.224-1.167-1.158-.746-2.235-2.292 0 0-2.756-2.562-9.762-4.792l-.032.395s.485.881.06 1.172c0 0 5.071 2.073 6.555 3.051l.655.36 1.941 2.031c.236.196.946 1.895 3.21 3.787 0 0 5.758 4.484 8.917 10.903M-19.919-7.639l3.208 1.5a21.2 21.2 0 0 0 1.043.706c.628.406.906.987.906.987.866.874 1.309.058 1.309.058.522-1.53-2.312-3.002-3.468-3.595.107.091-3.192-.749-3.878-.926.813.48.88 1.27.88 1.27m.712 2.994c.455.502.677.531.923.717 1.234.825 3.134 1.953 3.522 1.102 0 0 .201-.449-.184-1.014 0 0-.461-1.022-3.248-2.535 0 0-1.188-.589-1.735-.909 0 0-.882.858-2.102.606.708.472 2.238 1.514 2.824 2.033m1.635 3.593s3.369 1.412 1.088-1.244l-2.898-1.898c.019.032-1.577-1.042-2.649-1.865.387.641.604 1.402-.539 1.465l.966 1.462s5.169 5.489 3.571 2.772c0 0-.805-1.329.461-.692m1.995-8.444s-.329.07-.526.048c-1.123-1.628-5.152-.957-5.152-.957.296.525.117.942.033 1.083 1.076.223 2.353.413 3.573.649.183.119.583.197.777.303-.035-.011.992.494.956.483 1.467.603 2.553 1.681 2.553 1.681.074-.377-.027-.709-.204-.992-.068-.108.251-.425.251-.425-.388-1.919-2.261-1.873-2.261-1.873m-.347-3.155c-2.084-1.179-3.078-.342-3.164-.262-.223.059-1.011.275-1.207.341-1.451.027-2.72.648-2.72.648.364.343 1.479 1.152 1.479 1.152 1.269-.031 3.703-.583 4.197-.812h.004c.025-.006.039-.018.039-.018l1.487-.159c1.613-.284-.115-.89-.115-.89m-.581 1.264c-.274.163-1.88.549-1.88.549 1.416-.014 2.547.924 2.547.924l.973.147c1.126.147.536-.842.536-.842-.739-.795-1.634-.851-2.176-.778M7.744 15.287c1.54 1.835 1.474.187 1.474.187-.241-3.093-2.778-5.646-2.778-5.646-5.004-6.296-8.33-7.632-8.33-7.632.024.048-2.072-1.485-2.072-1.485-5.519-4.196-10.287-4.328-10.287-4.328.652 1.019-.197 1.411-.197 1.411 3.82.903 8.51 3.815 8.51 3.815.066.043.127.084.191.119.458.519 2.067 2.31 2.067 2.31l1.055 1.067C4.507 9.668 7.744 15.287 7.744 15.287m2.47-6.732c.323 2.063-1.182.478-1.182.478C4.866 4.317.939 3.486.939 3.486c2.153 1.636 6.252 6.325 6.252 6.325 3.828 4.801 2.263 6.607 2.263 6.607-1.099.468-2.13-1.029-2.13-1.029l-3.263-4.245c-1.47-1.508-.301.161-.301.161 2.995 4.186 4.744 7.86 4.744 7.86 1.085 2.66-.784 3.184-.784 3.184-1.166-.054-1.443-1.078-1.443-1.078-1.792-4.055-5.132-7.976-5.132-7.976-1.381-1.529-.373.009-.373.009l4.598 7.677c1.221 2.048 1.625 3.439 1.625 3.439.958 4.264-1.094 3.876-1.094 3.876.976 1.531.676 2.316.676 2.316-.026.721-.68 1.106-.68 1.106-.404.349-1.915-.439-1.508.384.312 3.155-.9 5.884-.9 5.884C2.206 41.128.69 40.375.69 40.375c-2.583-1.175-.907-4.856-.907-4.856.989-4.283-2.034-7.758-2.034-7.758-2.73-4.61-11.735-12.068-11.735-12.068-8.914-7.656-11.272-11.13-11.272-11.13-4.374-5.249-6.561-9.098-7.658-11.571.184-.068.37-.136.495-.228.716 1.724 1.908 3.99 3.893 6.586 0 0 3.605 5.782 11.658 13.052 0 0 10.228 8.857 12.983 12.27 0 0 4.826 5.38 4.484 9.237 0 0-.405 2.34-.796 3.54 0 0-.494 2.052.95 2.473 0 0 1.278.462 1.952-1.514 0 0 1.842-3.716.658-6.828 0 0-2.583-6.882-6.894-10.459 0 0-4.241-3.081-9.941-8.674 0 0-4.114-3.849-8.071-9.674 0 0-4.898-6.85-5.986-9.682 0 0-1.862-4.223-.764-6.468 1.092-2.244 2.066-3.158 2.066-3.158 4.371-.47 6.363 1.12 6.363 1.12 1.226-1.059 4.995-1.674 4.995-1.674 1.724-.352 1.972-.901 1.972-.901.017-.015.202-.159.335-.265-.101-.094-.596-.395-2.835-.464-.099-.015-5.242-.941-7.924-.57-.007.004-4.265 1.284-5.904 3.755-2.014 3.024-5.331 1.617-5.364 1.602l.259-.596c.117.05 2.856 1.197 4.563-1.367 1.792-2.701 6.298-4.028 6.34-4.036.141-.02.292-.034.444-.047l.012-.022c.079-.001.171.002.256.002 2.872-.18 7.19.597 7.388.632 2.332.07 3.029.401 3.286.717l.035.003c.377.078.373.093.28.078.134.035.121.091.033.149.01 0 .02.004.029.009-.276.281-1.164.926-1.164.926 6.678.173 2.717 1.542 2.717 1.542 8.789-1.03-.926 2.998-.926 2.998l4.128-.578c9.424-.804-.46 2.307-.46 2.307l5.436.139c10.278 1.568-1.73 2.33-1.73 2.33 16.768 2.007 8.437 3.489 8.437 3.489 8.969 3.303-2.699 2.663-2.699 2.663C8.238-.139 9.546 3.507 9.546 3.507c.74 3.097-2.615.192-2.615.192-2.083-1.792-3.524-2.21-3.524-2.21 6.065 3.967 6.807 7.066 6.807 7.066" style="fill:#00509e;fill-opacity:1;fill-rule:nonzero;stroke:none;stroke-width:.21871" transform="matrix(1.613 0 0 -1.613 169.351 142.454)"/></g><g style="stroke-width:.21871"><path d="M0 0c.033.103.074.201.086.311L.127.36V.294A1.435 1.435 0 0 1 0 0m-7.598.112.026.072.115-.025c.176.039.28.14.395.232.19.027.582.142 1.935.582l.852.276-.017.053.91.295c.09-.022.155-.07.265-.062.244.014.469.116.665.269-.187-.141-.353-.31-.439-.529h.002c0-.01-.046-.242-.067-.35a24.477 24.477 0 0 1-.523-.697 4.243 4.243 0 0 1-.043.032l-1.756-2.419c-.102-.085-.206-.168-.271-.285l-.035-.138c-.092-.078-.248-.27-.653-.816A11.252 11.252 0 0 0-8.578-.206c.359.118.98.318.98.318m5.29 1.863.122.032c-.003-.002-.051-.07-.062-.084-.036-.017-.087-.013-.121-.035.024.023.036.062.061.087m.014 5.513c.016-.027.028-.048.05-.081l-.125.041c-.021.021-.031.058-.053.078.037-.022.088-.02.128-.038m-.953-2.727c.047-.02.081-.038.154-.066-.018-.007-.106-.034-.169-.055-.061.009-.121.057-.179.057.064.003.128.051.194.064m-5.282 1.633.007.001.086-.096c.132-.057.318-.089.533-.078.206-.094.63-.242 1.827-.631l.853-.279.017.051.88-.285c.068-.073.118-.159.205-.215.183-.117.395-.174.62-.175a1.178 1.178 0 0 1-.593-.17c-.091-.059-.144-.15-.214-.228a24.978 24.978 0 0 1-.87-.272l-.019.057-2.74-.896c-.196 0-.359-.047-.483-.103l-.076-.087c-.124-.002-.332-.052-1.1-.295-.139.707-.231 1.398-.231 2.049 0 .611.084 1.267.209 1.942l1.034-.336zm8.503 8.396c-.016-.024-.269-.464-.269-.464l.201.228.095-.201-.036-2.128v-.91h.056v-.972c-.046-.075-.116-.112-.143-.213-.006-.03-.039-.313-.039-.313 0-.228.083-.448.21-.657l-.001-.074-.06.083c-.051.323-.18.62-.421.82-.076.062-.176.052-.261.093-.092.14-.268.388-.558.788l.048.033-1.737 2.386-.069.009c-.066.177-.138.364-.138.364l-.114.053c-.042.115-.162.313-.585.905a11.21 11.21 0 0 0 3.761 1.233v-1.018l.06-.045m-5.601-2.943c.092-.157.222-.223.344-.308.088-.174.323-.517 1.153-1.66l.526-.723.043.031.522-.715.067-.34c.086-.22.254-.396.449-.538-.188.14-.399.244-.63.257-.118.007-.189-.043-.283-.069-.16.06-.437.152-.884.299l.018.052-2.826.915-.031-.02c-.105.075-.186.165-.337.198l-.126-.028c-.098.071-.299.153-1.007.39a11.261 11.261 0 0 0 2.308 3.216l.602-.828.054-.003.057-.214zM.124-4.834c-.044-.091-.288-.611-.288-.611l.182.242.039-.064a64.153 64.153 0 0 0-.007-.254l-.013-.865a11.163 11.163 0 0 0-3.782 1.201l.616.851-.003.066.08.038.141.377c.126.104.329.361 1.266 1.653l.522.717s-.039.029-.045.032l.584.802c.075.037.167.028.234.083.17.136.271.331.344.543a1.117 1.117 0 0 1-.047-.308l.041-.317c.028-.115.105-.159.159-.24L.13-1.832H.073v-2.957s.037-.031.051-.045M7.136-.395l-.523.726-.048-.036-.519.715-.06.319a1.28 1.28 0 0 1-.465.567c.191-.14.401-.244.632-.259.119-.008.191.043.288.069.159-.059.439-.155.896-.305a5.037 5.037 0 0 0-.016-.051l2.806-.909.031.018c.105-.072.184-.163.332-.195l.131.026c.094-.066.262-.14.877-.348a12.083 12.083 0 0 0-2.256-3.147l-.519.715-.057-.003-.032.122a1.087 1.087 0 0 1-.394.397c-.115.2-.373.572-1.104 1.579M2.952 9.363c-.014-.062-.029-.124-.037-.188l-.036-.045v.063c.03.056.049.112.073.17m7.654.01-.021-.07c-.029.005-.12.025-.12.025-.184-.038-.294-.142-.411-.236-.198-.03-.608-.152-1.922-.578a5.022 5.022 0 0 1-.098-.031l-.756-.24.017-.059-.91-.295c-.088.021-.153.069-.259.063a1.203 1.203 0 0 1-.673-.272c.184.141.35.305.438.521.005.012.049.25.071.359.104.135.263.349.511.689l.044-.034 1.758 2.424c.1.083.203.163.27.276.001.002.017.067.041.149.091.078.246.266.655.818a11.287 11.287 0 0 0 2.34-3.192l-.975-.317M5.301 1.995c-.017.027-.032.052-.056.086l.127-.042c.022-.021.033-.062.056-.082-.036.021-.088.018-.127.038m.014 5.516a1.946 1.946 0 0 1-.125-.032c.002.003.05.067.058.08.038.019.089.014.124.035-.023-.021-.035-.058-.057-.083m.934-2.786c-.046.019-.078.036-.153.064l.041.013.13.042c.059-.008.118-.056.176-.057-.064-.002-.129-.051-.194-.062m5.281-1.634-.079.089c-.135.06-.322.096-.541.086-.198.088-.614.235-1.831.631.004-.003-.097.031-.097.031l-.768.254-.016-.056-.872.285c-.068.072-.117.158-.204.213a1.145 1.145 0 0 1-.618.174c.211.008.416.056.592.17.09.057.147.148.217.228.166.047.444.134.861.27l.017-.052s2.682.873 2.75.894c.189 0 .346.044.468.096l.085.095c.122 0 .314.046 1.103.295.139-.709.232-1.401.232-2.051-.02-.594-.127-1.247-.273-1.921l-.965.313ZM2.885 14.327l.285.601-.184-.252-.036.061c.002.073.003.27.003.27l.014.866a11.221 11.221 0 0 0 3.781-1.204c-.223-.304-.619-.849-.619-.849l.004-.062a1.383 1.383 0 0 1-.072-.034c-.002-.002-.073-.188-.148-.383-.128-.109-.344-.384-1.265-1.653l-.058-.077-.486-.653.052-.036-.571-.784c-.074-.038-.165-.029-.231-.083a1.167 1.167 0 0 1-.33-.465c.017.076.034.15.034.227l-.043.316c-.028.111-.103.153-.155.234l.017.948h.055v2.967l-.047.045m.15-19.636.268.455-.203-.215-.098.21.005.234.031 1.885v.908h-.054v.974c.045.075.115.11.142.21.007.037.039.316.039.316 0 .229-.083.452-.21.661v.069l.059-.079c.051-.324.181-.624.425-.824.073-.062.175-.053.258-.093.091-.137.268-.385.553-.781l-.043-.031 1.737-2.391.067-.01.136-.362.118-.055c.039-.111.149-.296.536-.837a10.797 10.797 0 0 0-3.711-1.29v1.003l-.055.043M19.238.517l-.1.106c-.372.42-1.543.881-2.572.828l-.049.048c.244 1.079.411 2.157.443 3.215v.003c0 1.134-.162 2.276-.424 3.419 1.036-.049 2.208.421 2.584.855-.029-.032.082.081.082.081.216.219.729.735.435 1.625-.286.889-1.028 1.009-1.308 1.054l-.143.027c-.535.121-1.748-.2-2.553-.848-.007 0-.011.001-.019.003a15.478 15.478 0 0 1-3.966 5.41c.872.562 1.56 1.615 1.613 2.189l.017.14c-.006-.035.033.351.033.351 0 .48-.219.893-.634 1.196-.763.551-1.431.211-1.682.082a3.726 3.726 0 0 1-.132-.062c-.504-.219-1.28-1.187-1.551-2.178l-.026-.013a15.387 15.387 0 0 1-6.394 2.036l-.006.015c.2.529.287 1.069.287 1.386 0 .331-.035.943-.264 1.323.02-.033-.056.108-.056.108-.121.24-.462.915-1.407.915-.943 0-1.281-.675-1.409-.93a44.02 44.02 0 0 1-.068-.126c-.211-.35-.246-.961-.246-1.29 0-.312.087-.841.28-1.361l-.026-.054a15.393 15.393 0 0 1-6.371-2.085c-.27 1.002-1.059 1.978-1.589 2.203.042-.02-.099.051-.099.051-.267.136-.911.467-1.676-.08-.42-.308-.639-.721-.639-1.201l.035-.366.024-.169c.044-.53.722-1.57 1.589-2.136l.005-.032a15.413 15.413 0 0 1-3.913-5.437c-.802.651-2.02.974-2.582.848.017.004-.129-.022-.129-.022-.291-.047-1.007-.161-1.301-1.047-.291-.91.247-1.441.45-1.642l.1-.102c.345-.407 1.519-.874 2.559-.819l.005-.005c-.247-1.109-.402-2.214-.402-3.287 0-1.111.164-2.25.425-3.394-1.027.053-2.197-.412-2.58-.844l-.094-.099c-.205-.203-.719-.716-.433-1.607.294-.902 1.012-1.014 1.318-1.062l.138-.027c.54-.119 1.748.203 2.549.849.009-.001.013-.001.024-.004a15.44 15.44 0 0 1 3.964-5.409c-.871-.566-1.56-1.619-1.61-2.191l-.018-.12c.003.02-.035-.369-.035-.369 0-.485.22-.898.636-1.198.757-.555 1.429-.21 1.682-.08l.129.061c.499.211 1.281 1.178 1.553 2.177l.026.012a15.39 15.39 0 0 1 6.397-2.036l.005-.011c-.203-.532-.289-1.074-.289-1.393 0-.329.035-.938.262-1.319l-.111.406.178-.531c.113-.227.452-.898 1.397-.898.936 0 1.269.645 1.411.92l.073.137c.208.348.242.956.242 1.285 0 .314-.087.843-.28 1.364l.023.05c2.281.221 4.455.927 6.377 2.072.275-.991 1.052-1.955 1.574-2.182l.123-.06c.24-.12.91-.46 1.668.092.414.297.634.71.634 1.193l-.041.403.001-.007-.016.129c-.046.542-.725 1.585-1.594 2.152l-.001.006a15.373 15.373 0 0 1 3.864 5.465l.039.003c.802-.655 2.027-.983 2.591-.858-.013-.001.139.027.139.027.29.047 1.005.163 1.292 1.051.285.889-.231 1.414-.437 1.62" style="fill:#00509e;fill-opacity:1;fill-rule:nonzero;stroke:none;stroke-width:.21871" transform="matrix(1.613 0 0 -1.613 97.067 190.45)"/></g><g style="stroke-width:.21871"><path d="m0 0-.028.104.025-.099L0 0" style="fill:#00509e;fill-opacity:1;fill-rule:nonzero;stroke:none;stroke-width:.21871" transform="matrix(1.613 0 0 -1.613 111 194.277)"/></g><g style="stroke-width:.21871"><path d="m0 0 .113-.125.001-.003c.002 0 .006 0 .007-.002z" style="fill:#00509e;fill-opacity:1;fill-rule:nonzero;stroke:none;stroke-width:.21871" transform="matrix(1.613 0 0 -1.613 115.356 185.114)"/></g><g style="stroke-width:.21871"><path d="m0 0 .116-.126L0 0" style="fill:#00509e;fill-opacity:1;fill-rule:nonzero;stroke:none;stroke-width:.21871" transform="matrix(1.613 0 0 -1.613 83.462 180.29)"/></g><g style="stroke-width:.21871"><path d="m0 0-.028-1.794A12.076 12.076 0 0 0-5.784.041c.127.178 1.006 1.39 1.006 1.39.005.013.005.032.005.054 0 .059-.007.14-.016.207a.448.448 0 0 1 .306.136.495.495 0 0 1 .122.334c0 .034-.013.07-.019.105l.124.02c.066.041 1.13 1.51 1.13 1.51l.061.085-.082.062c-.051.037-.074.096-.074.163 0 .076.03.162.08.23.046.065.141.159.264.073l.084-.063.722.99c.01.031.01.114.013.186.128-.036.258-.034.366.054a.546.546 0 0 1 .182.427c0 .068-.029.147-.053.224l.114.016c.063.041.991 1.319 1.112 1.486l.414-.122V5.846a.692.692 0 0 1 .117-.156c-.191-.146-.296-.325-.296-.487 0-.042.003-.079.012-.115.035-.129.174-.163.296-.211l-.107-.139-.022-1.186v-.105h.105c.15 0 .171-.133.171-.214 0-.155-.09-.321-.226-.321H.023V.994A.864.864 0 0 1 .165.813C.064.708-.037.597-.037.464l.001-.05C-.023.298.076.232.158.159L0 0m-8.935 6.316c.043.038.109.16.152.242.098-.06.2-.119.316-.092.144.03.229.172.305.313l.145-.075c.08-.006 1.806.553 1.806.553l.099.033-.032.1c-.042.129.09.267.24.317.073.024.208.043.252-.098l.035-.1 1.164.378c.034.027.101.113.15.181.084-.102.161-.219.295-.211.187.01.379.177.48.457l.111-.058c.074-.006 1.583.482 1.782.547l.255-.342-1.035-1.425a.356.356 0 0 1-.005-.063c0-.046.005-.067.011-.112-.309-.004-.517-.163-.585-.339a.423.423 0 0 1-.028-.15c0-.077.07-.138.113-.205-.07-.02-.14-.044-.14-.044-.054-.038-.715-.941-.715-.941l-.062-.085.087-.06a.146.146 0 0 0 .068-.124v-.016c-.011-.101-.109-.22-.223-.272-.057-.026-.136-.043-.206.006l-.085.061-1.125-1.549c-.007-.016-.007-.039-.007-.065 0-.066.011-.115.016-.163-.164-.028-.324-.078-.399-.211a.445.445 0 0 1-.06-.221c0-.035.024-.068.031-.103l-.184-.031c-.06-.037-.896-1.181-1.084-1.438a12.124 12.124 0 0 0-3.573 4.876c.209.066 1.635.529 1.635.529m-.026 6.241c.138-.06.294-.022.439.053l.063-.12c.059-.054 1.788-.615 1.788-.615l.1-.033.031.101c.027.078.103.111.16.124.122.026.272-.011.339-.087.039-.041.046-.092.027-.154l-.032-.101 1.166-.376c.03 0 .101.02.166.038a.395.395 0 0 1 .177-.324c.154-.099.404-.068.649.094.032-.057.06-.118.06-.118.063-.054 1.838-.631 1.838-.631-.081.031-.095-.133-.095-.133l.025-.282c-.048-.001-1.67-.529-1.67-.529a.708.708 0 0 1-.119-.171c-.248.162-.501.194-.657.093a.395.395 0 0 1-.173-.321 6.595 6.595 0 0 1-.101.036c-.068.001-1.132-.345-1.132-.345l-.101-.032.034-.101c.046-.143-.075-.204-.151-.229-.149-.048-.336-.012-.377.116l-.034.1-1.824-.596a.75.75 0 0 1-.122-.175c-.148.076-.307.113-.447.05-.107-.048-.137-.16-.181-.263-.077.041-.202.104-.202.104-.071.006-1.417-.429-1.719-.526a12.084 12.084 0 0 0-.423 3.071c0 .971.144 1.969.395 2.969.208-.066 1.635-.529 1.635-.529.061.004.203.072.279.11.046-.105.081-.22.189-.268m9.015 7.838c-.083-.073-.181-.142-.194-.258-.002-.017-.004-.034-.004-.05 0-.132.101-.24.202-.344a12.219 12.219 0 0 1-.111-.106l-.032-1.892v-.105h.107c.133 0 .222-.168.222-.322 0-.08-.021-.214-.168-.214h-.105v-1.225c.014-.043.081-.139.128-.206-.122-.047-.263-.081-.296-.211a.441.441 0 0 1-.013-.112c0-.16.105-.337.294-.486L0 14.779l-.028-1.859-.403-.141-1.037 1.425a.704.704 0 0 1-.184.057c.024.077.053.158.053.227 0 .188-.076.34-.181.427-.105.086-.233.087-.361.052.002.061.002.123.002.123-.02.063-.678.967-.678.967l-.062.086-.084-.062c-.12-.087-.219.008-.264.073a.411.411 0 0 0-.08.232c0 .067.021.127.072.163l.085.063-1.127 1.55a.778.778 0 0 1-.188.058c.007.035.018.069.018.104a.496.496 0 0 1-.125.338.435.435 0 0 1-.302.136c.016.087.03.18.03.18-.016.071-.848 1.22-1.035 1.476A12.084 12.084 0 0 0-.135 22.34v-1.713c.022-.055.131-.17.189-.232m-5.84-2.612c.076-.13.233-.179.392-.208-.009-.065-.025-.148-.025-.148.019-.078 1.089-1.55 1.089-1.55l.061-.085.087.064c.067.05.147.031.203.007.117-.051.211-.166.221-.267.002-.006.002-.012.002-.018 0-.049-.024-.089-.072-.124l-.085-.061.724-.991a1.01 1.01 0 0 1 .193-.082c-.043-.068-.115-.127-.115-.205 0-.048.009-.099.03-.147.068-.175.272-.332.575-.339a3.893 3.893 0 0 0-.016-.099c.018-.073.95-1.36 1.073-1.527-.06-.086-.179-.259-.242-.347l-1.678.545a.669.669 0 0 1-.19-.065c-.103.281-.293.448-.48.459-.134.009-.21-.109-.293-.212l-.102.144c-.053.038-1.116.383-1.116.383l-.102.031-.03-.098c-.047-.143-.181-.123-.258-.098-.148.048-.279.185-.238.315l.034.1-1.827.592a.83.83 0 0 1-.223-.082c-.076.143-.163.285-.307.317-.114.023-.214-.035-.31-.095l-.096.187c-.055.048-1.4.487-1.701.586a12.118 12.118 0 0 0 3.525 4.91l1.014-1.396c.045-.026.162-.05.254-.07-.009-.033-.029-.066-.029-.102 0-.078.019-.155.058-.224M10.29 7.992c-.14.064-.298.026-.447-.05l-.062.123c-.062.051-1.787.613-1.787.613l-.102.033-.03-.101c-.027-.08-.102-.112-.16-.126-.124-.025-.271.011-.339.087-.037.041-.046.092-.026.153l.032.099-1.166.381a1.03 1.03 0 0 1-.17-.04.39.39 0 0 1-.176.327c-.152.097-.403.065-.649-.097-.031.057-.06.119-.06.119-.063.051-1.836.629-1.836.629.081-.028.096.133.096.133s-.027.291-.029.299c.076-.003 1.675.513 1.675.513.038.032.081.108.12.172.244-.163.497-.194.653-.093.112.071.165.19.173.32l.102-.035c.068-.001 1.132.347 1.132.347l.101.032-.034.101c-.017.062-.01.111.028.154.069.075.217.113.338.087.059-.015.134-.045.16-.125l.033-.102 1.827.594a.717.717 0 0 1 .122.177c.147-.076.304-.114.444-.054.107.047.141.162.184.264l.202-.102c.071-.006 1.414.429 1.718.526.27-1.029.422-2.063.422-3.074-.032-.955-.203-1.944-.484-2.939l-1.542.501a1.31 1.31 0 0 1-.282-.11c-.043.104-.077.219-.181.264M1.323 20.553l.028 1.794a12.08 12.08 0 0 0 5.757-1.838L6.097 19.12a.262.262 0 0 1-.004-.055c0-.058.008-.138.015-.204a.46.46 0 0 1-.304-.136.501.501 0 0 1-.123-.337c0-.033.013-.067.019-.101-.06-.008-.118-.018-.118-.018-.068-.042-1.135-1.512-1.135-1.512l-.063-.086.088-.061c.054-.04.068-.103.068-.158l-.001-.036c-.013-.123-.094-.252-.184-.293-.053-.022-.102-.015-.155.024l-.088.062-.721-.993c-.009-.03-.01-.113-.012-.184-.128.034-.257.033-.365-.055a.545.545 0 0 1-.181-.426c0-.068.031-.148.054-.224l-.116-.021c-.063-.038-.992-1.314-1.113-1.481-.1.031-.307.091-.41.121v1.76a.687.687 0 0 1-.119.156c.192.149.298.328.298.488a.4.4 0 0 1-.015.112c-.033.13-.171.162-.293.21l.109.144.02 1.182v.106h-.105c-.151 0-.174.134-.174.214 0 .154.092.322.227.322H1.3v1.921a.854.854 0 0 1-.14.18c.101.104.201.214.201.346l-.003.049c-.011.115-.108.184-.195.258l.16.159m8.935-6.318a1.052 1.052 0 0 1-.152-.239c-.101.06-.201.117-.317.092-.146-.031-.228-.171-.305-.314-.058.031-.144.073-.144.073-.081.008-1.806-.552-1.806-.552l-.102-.031.033-.101c.028-.081-.016-.154-.056-.199-.087-.096-.225-.15-.324-.127-.056.011-.092.045-.11.107l-.033.101-1.166-.378a1.085 1.085 0 0 1-.151-.183c-.083.101-.16.22-.295.212-.187-.011-.376-.178-.481-.455l-.111.055c-.074.006-1.58-.482-1.78-.546l-.255.34 1.034 1.424c.002.017.004.04.004.068 0 .045-.004.063-.009.11.31.002.514.161.585.338a.4.4 0 0 1 .027.148c0 .077-.068.137-.113.205l.144.046c.052.038.709.943.709.943l.061.083-.085.063c-.048.035-.069.076-.069.124l.001.02c.011.1.107.215.222.267.055.024.138.042.205-.008l.085-.062 1.127 1.552a.34.34 0 0 1 .007.071c0 .064-.01.108-.013.156.162.026.32.077.395.208.04.071.062.146.062.225 0 .035-.024.068-.032.102l.184.028c.062.039.899 1.184 1.086 1.44a12.124 12.124 0 0 0 3.571-4.874l-1.633-.532M1.27.158c.083.073.181.139.196.256a.432.432 0 0 1 .003.05c0 .132-.102.242-.2.349l.108.108.03 1.885v.106h-.104c-.134 0-.225.166-.225.321 0 .081.021.214.17.214h.105v1.227a1.3 1.3 0 0 1-.129.203c.123.046.263.081.297.21a.603.603 0 0 1 .013.114c0 .161-.105.34-.295.488.04.042.084.082.084.082s.027 1.725.028 1.862l.403.142c.084-.114 1.035-1.426 1.035-1.426a.776.776 0 0 1 .184-.056c-.02-.079-.053-.159-.053-.23 0-.187.077-.338.183-.425.103-.086.231-.089.36-.054l-.004-.122c.023-.063.68-.968.68-.968l.062-.086.085.063c.052.038.104.046.157.021.092-.04.172-.167.186-.293l.001-.034c0-.056-.015-.118-.071-.159l-.086-.059 1.13-1.556a.801.801 0 0 1 .186-.059c-.007-.033-.02-.07-.02-.103a.49.49 0 0 1 .125-.337.441.441 0 0 1 .302-.135c-.013-.088-.029-.182-.029-.182.016-.07.793-1.143.975-1.394A11.676 11.676 0 0 0 1.46-1.784v1.71c-.023.057-.13.168-.19.232m5.838 2.613c-.074.131-.231.179-.389.206l.021.15c-.017.078-1.083 1.546-1.083 1.546l-.062.086-.087-.063c-.069-.051-.15-.032-.206-.007-.116.05-.21.166-.222.267v.017c0 .049.022.089.071.123l.085.062-.722.993a1.145 1.145 0 0 1-.194.08c.045.068.116.129.116.206a.422.422 0 0 1-.031.148c-.068.174-.272.33-.575.337l.014.1c-.017.072-.952 1.359-1.073 1.526.059.086.182.262.241.35.137-.043 1.681-.546 1.681-.546a.682.682 0 0 1 .188.067c.103-.282.295-.448.482-.459.132-.009.209.108.294.209l.099-.14c.053-.04 1.117-.388 1.117-.388l.101-.031.033.099c.046.144.182.125.258.099.146-.048.277-.186.235-.315l-.031-.1 1.824-.59a.818.818 0 0 1 .223.079c.075-.141.161-.281.304-.313.114-.025.216.033.316.091l.093-.186c.054-.047 1.279-.448 1.578-.546a12.944 12.944 0 0 0-3.478-4.844c-.128.178-.938 1.291-.938 1.291-.043.027-.159.05-.253.068.008.035.029.067.029.103a.44.44 0 0 1-.059.225m10.723 2.726-.112.122c-.241.27-1.461.751-2.29.543l-.218.218a6.048 6.048 0 0 1-.444.155 16.47 16.47 0 0 1 .563 3.737v.001c0 1.284-.185 2.585-.537 3.869l.339.11c.037.022.208.19.26.241.837-.206 2.056.277 2.29.549l.111.113c.185.185.396.395.254.827-.14.433-.428.481-.683.521l-.164.031c-.353.08-1.619-.248-2.173-.903l-.309.044a4.704 4.704 0 0 1-.392-.118 14.682 14.682 0 0 1-4.504 6.152l.211.29c.016.039.056.285.068.354.797.323 1.499 1.426 1.531 1.784l.021.166c.014.08.027.167.027.254 0 .183-.06.376-.309.558-.367.265-.629.133-.858.016l-.152-.073c-.329-.144-1.16-1.155-1.22-2.007l-.28-.145a5.47 5.47 0 0 1-.245-.322 14.62 14.62 0 0 1-7.263 2.319v.364c-.009.042-.122.27-.15.329.241.392.339.942.339 1.423 0 .415-.065.775-.151.917l-.074.141c-.118.233-.252.496-.712.496-.453 0-.586-.262-.703-.493l-.077-.144c-.085-.142-.151-.502-.151-.918 0-.48.097-1.028.339-1.422a40.912 40.912 0 0 0-.138-.282s-.006-.292-.007-.417a14.63 14.63 0 0 1-7.254-2.369l-.204.281a4.055 4.055 0 0 1-.316.179c-.062.856-.893 1.864-1.226 2.005l-.142.071c-.231.118-.491.252-.864-.015-.249-.182-.309-.373-.309-.558 0-.089.015-.176.028-.26l.023-.16c.031-.358.731-1.458 1.528-1.781l.053-.311a4.57 4.57 0 0 1 .231-.336 14.66 14.66 0 0 1-4.455-6.188l-.343.113c-.044.003-.288-.033-.358-.043-.549.653-1.815.982-2.167.904a14.405 14.405 0 0 0-.163-.029c-.255-.042-.546-.089-.688-.518-.141-.439.069-.647.255-.83l.111-.114c.231-.271 1.451-.757 2.286-.548l.218-.217c.034-.02.278-.102.393-.138a14.595 14.595 0 0 1-.512-3.76c0-1.277.186-2.577.537-3.864-.113-.035-.341-.11-.341-.11-.037-.021-.21-.191-.262-.242-.828.209-2.048-.275-2.288-.545l-.114-.12c-.184-.184-.39-.389-.252-.822.143-.437.432-.482.689-.522l.16-.031c.353-.078 1.622.253 2.171.906.071-.009.31-.046.31-.046.037.004.281.081.394.117a14.686 14.686 0 0 1 4.505-6.152l-.213-.29a4.626 4.626 0 0 1-.069-.353c-.797-.328-1.498-1.427-1.529-1.784l-.023-.16a1.568 1.568 0 0 1-.026-.259c0-.185.058-.377.307-.556.368-.271.629-.136.859-.018l.15.072c.33.139 1.161 1.148 1.226 2.005.061.034.276.144.276.144.029.026.179.228.247.323A14.62 14.62 0 0 1-.029-4.351v-.364c.009-.04.121-.269.15-.327-.242-.393-.341-.944-.341-1.427 0-.415.065-.772.151-.914l.08-.149c.116-.231.251-.491.705-.491.454 0 .589.264.709.495l.076.144c.084.143.149.5.149.915 0 .482-.097 1.033-.342 1.425l.141.283.009.414c2.626.139 5.129.952 7.26 2.357l.197-.268c.033-.027.252-.142.314-.173.06-.853.891-1.865 1.222-2.01.003 0 .15-.072.15-.072.231-.116.493-.25.859.018.251.18.31.37.31.554 0 .089-.012.175-.027.258l-.022.166c-.032.358-.734 1.461-1.531 1.785l-.054.307a4.177 4.177 0 0 1-.217.317c1.962 1.613 3.48 3.759 4.396 6.222l.391-.128c.044-.003.286.035.356.045.551-.654 1.818-.985 2.169-.907l.168.032c.254.041.544.088.683.518.14.435-.067.641-.251.823" style="fill:#ffdb00;fill-opacity:1;fill-rule:nonzero;stroke:none;stroke-width:.21871" transform="matrix(1.613 0 0 -1.613 98.425 199.376)"/></g><g style="stroke-width:.21871"><path d="M0 0a2.128 2.128 0 0 0-2.126 2.125 2.128 2.128 0 0 0 4.254 0A2.13 2.13 0 0 0 0 0m14.53-16.238L7.575-20.35s1.702-.294 2.086-.359l-.075-.672-.119-.709c-.006 0-.21-.587-.211-.59-.002 0-.268-.586-.271-.592-.002.001-.328-.539-.331-.545-.004 0-.371-.471-.374-.476-.001.002-.416-.427-.418-.429l-.489-.446-.46-.385c-.001.001-.483-.338-.489-.341a52.18 52.18 0 0 1-.574-.307l-.568-.288-.541-.243c.019.009-.582-.221-.582-.221l-.557-.206c-.001.001-.07-.006-.117-.01v18.713H16.34v5.33H4.745C6.231-1.784 7.131.09 7.131 2.125c0 3.934-3.199 7.133-7.132 7.133-3.929 0-7.126-3.199-7.126-7.133 0-2.035.9-3.909 2.386-5.251h-11.594v-5.33h12.611v-18.7c-.427.065-1.018.151-1.023.153-.001.005-.61.204-.612.205l-.642.276c0 .003-.538.311-.545.315 0 .004-.495.383-.495.383-.009.008-.529.379-.548.395 0 .011-.363.425-.363.425l-.41.499c0 .003-.325.483-.328.488 0 .004-.284.545-.285.547l-.24.553-.235.592c0 .005-.162.585-.165.594 0 .022-.076.567-.076.569l-.033.44 2.155.372-6.96 4.112-4.597-6.254 2.241.395.206-1.842c.019-.086.51-1.444.51-1.444.031-.064.744-1.262.744-1.262.03-.043.883-1.107.883-1.107.034-.037 1.061-1.021 1.061-1.021.03-.027 1.178-.908 1.178-.908.023-.017 1.267-.828 1.267-.828l1.352-.774 1.343-.756 1.388-.702 1.374-.728 1.276-.754 1.312-.758c0-.004 1.11-.85 1.112-.85 0-.003.987-.901.987-.901l.755-.693s1.846 1.607 1.848 1.607c.001-.001 1.166.816 1.166.816-.021-.014 1.255.749 1.256.749l1.332.683 1.364.684c.006.002 1.398.729 1.398.729.001.002 1.332.705 1.332.705.015.007 1.301.758 1.301.758.016.009 1.265.817 1.265.817.035.025 1.136.925 1.136.925.034.03 1.026 1.065 1.026 1.065.032.037.87 1.174.87 1.174l.751 1.345c.032.073.47 1.524.47 1.524.011.046.282 1.694.284 1.698l.021.085 2.446-.431z" style="fill:#00509e;fill-opacity:1;fill-rule:nonzero;stroke:none;stroke-width:.21871" transform="matrix(1.613 0 0 -1.613 99.489 107.37)"/></g><g style="stroke-width:.21871"><path d="M0 0a2.897 2.897 0 0 0-2.893 2.894 2.895 2.895 0 0 0 5.79 0A2.9 2.9 0 0 0 0 0m3.768-32.823 1.354.695 1.363.683 1.39.725 1.318.698 1.272.74c.002 0 1.217.786 1.218.784.002.002 1.067.872 1.068.869.002.002.96.999.962.998.002.003.807 1.096.81 1.095.002.003.688 1.234.695 1.232.003.01.424 1.4.428 1.4l.276 1.68.2.815.514-.109.769-.135c-.764 1.04-2.771 3.768-3.077 4.187l-4.602-2.72.765-.134s-.153-1.378-.157-1.397c0 0-.122-.732-.138-.795 0 0-.227-.649-.24-.68 0 0-.283-.624-.304-.664 0 0-.353-.585-.378-.622l-.425-.543s-.443-.457-.46-.473c0 0-.507-.463-.518-.475l-.5-.414s-.513-.362-.553-.385c0 0-.609-.327-.616-.332l-.594-.302-.576-.259-.608-.23s-.567-.211-.652-.231l-1.042-.13v20.321h12.856v3.819H2.476l1.044.692a6.368 6.368 0 0 1 2.858 5.314A6.385 6.385 0 0 1 0 9.272c-3.513 0-6.373-2.86-6.373-6.378A6.364 6.364 0 0 1-3.515-2.42l1.044-.692h-13.11v-3.819h12.614v-20.331l-.433.064s-1.462.217-1.524.232l-.703.231s-.673.29-.712.308c0 0-.584.336-.627.364l-.525.402c0 .001-.544.391-.608.449l-.429.488s-.419.509-.439.537c0 0-.35.517-.371.554l-.318.607s-.252.576-.256.588l-.253.642s-.177.632-.187.682l-.089.641s-.05.663-.051.693v.14l.061.332.709.122c-1.193.705-4.159 2.457-4.602 2.72l-3.077-4.187.768.135.408.075.044-.399s.232-2.075.232-2.158v-.002a91.46 91.46 0 0 0 .461-1.292c.005-.006.683-1.147.683-1.154.003-.004.821-1.023.821-1.028.003-.002.994-.954.994-.957l1.123-.864 1.224-.798 1.331-.763 1.327-.747 1.379-.697 1.397-.74 1.287-.761s1.311-.758 1.35-.784l1.177-.897 1.271-1.159c.45.391 1.348 1.171 1.372 1.189 0 0 1.196.839 1.22.854 0 0 1.277.765 1.3.777" style="fill:#ffdb00;fill-opacity:1;fill-rule:nonzero;stroke:none;stroke-width:.21871" transform="matrix(1.613 0 0 -1.613 99.489 108.61)"/></g><g style="stroke-width:.21871"><path d="M0 0c0 .807.094 1.591.812 2.095h-5.179c.717-.504.813-1.286.813-2.092v-8.851c0-.798-.096-1.575-.813-2.077H.812C.094-10.423 0-9.644 0-8.845Z" style="fill:#ffdb00;fill-opacity:1;fill-rule:nonzero;stroke:none;stroke-width:.21871" transform="matrix(1.613 0 0 -1.613 71.122 50.631)"/></g><g style="stroke-width:.21871"><path d="M0 0h.566c1.432.003 3.338-.074 3.646-.72h.007v2.674a.165.165 0 0 0-.01.001c-.166-.074-.395-.105-.763-.105H.001v3.367h1.007c1.207.011 3.668.028 4.269-.789v2.737c-.229-.115-.535-.12-.834-.12h-8.814c.715-.489.811-1.269.811-2.073v-8.857c0-.804-.095-1.588-.814-2.09H.859C.012-5.151 0-4.21 0-3.122Z" style="fill:#ffdb00;fill-opacity:1;fill-rule:nonzero;stroke:none;stroke-width:.21871" transform="matrix(1.613 0 0 -1.613 104.326 58.616)"/></g><g style="stroke-width:.21871"><path d="M0 0c-2.742 0-4.381 1.892-4.381 5.06 0 3.062 1.239 4.681 3.582 4.681 1.146 0 2.271-.348 3.267-.991l-.131 2.625-2.957.253c-2.238.001-4.203-.625-5.532-1.761C-7.483 8.69-8.309 6.787-8.309 4.9c0-2.06.829-3.895 2.337-5.166 1.4-1.209 2.939-1.703 5.312-1.703 1.492 0 2.775.155 3.926.47l.937 2.736C3.087.645 1.631 0 0 0" style="fill:#ffdb00;fill-opacity:1;fill-rule:nonzero;stroke:none;stroke-width:.21871" transform="matrix(1.613 0 0 -1.613 127.55 65.496)"/></g><g style="stroke-width:.21871"><path d="M0 0c0 .807.094 1.591.813 2.095h-5.127c.721-.504.814-1.289.814-2.096v-6.508c0-.678-.035-1.319-.459-1.902-.302-.403-.806-.644-1.349-.644h-.198c-.544 0-1.049.241-1.351.645-.424.585-.456 1.23-.456 1.913v6.494c0 .808.092 1.594.812 2.098h-5.128c.721-.504.816-1.29.816-2.098l-.007-7.009c0-1.237.066-2.182.922-3.075.904-.927 2.062-1.121 2.873-1.121h3.237c.811 0 1.968.194 2.87 1.121.858.896.924 1.84.924 3.075z" style="fill:#ffdb00;fill-opacity:1;fill-rule:nonzero;stroke:none;stroke-width:.21871" transform="matrix(1.613 0 0 -1.613 93.565 50.636)"/></g></g></g></svg>