<svg xmlns="http://www.w3.org/2000/svg" width="490.26492pt" height="443.25351pt" viewBox="0 0 490.2649 443.2535"><g style="stroke-width:.595517"><path d="M326.324 183.797c-25.418 0-50.097 7.242-71.37 20.941-20.669 13.313-37.177 32.04-47.759 54.164-11.011-6.312-22.246-13.527-33.777-21.68l-7.066-4.995 7.265 40.359 1.5.812a360.93 360.93 0 0 0 22.895 11.336l-.168.723a132.547 132.547 0 0 0-3.5 30.32c0 72.778 59.207 131.985 131.98 131.985 72.778 0 131.988-59.207 131.988-131.985 0-72.773-59.21-131.98-131.988-131.98" style="fill:#fff;fill-opacity:1;fill-rule:nonzero;stroke:none;stroke-width:.595517" transform="matrix(1.67921 0 0 1.67921 -279.34 -308.634)"/><path d="m325.46 353.527-10.007 10.078-2.543.797 18.031 30.489 8.91-2.422 9.254.957.286-1.063-9.727-2.574-5.914.648-12.836-22.39 25.977-14.477c-7.387 1.137-20.743.024-21.43-.043" style="fill:#1e1c1e;fill-opacity:1;fill-rule:nonzero;stroke:none;stroke-width:.595517" transform="matrix(1.67921 0 0 1.67921 -279.34 -308.634)"/><path d="m290.754 364.48-2.55.793 18.038 29.618 8.91-2.422 9.262.957.274-1.063-9.727-2.574-5.91.649-12.836-22.395 26.527-14.965c-6.156-.71-11.465-1.867-16.945-3.582M359.758 347.383c-.106 0-.223.004-.352.015-1.832.172-4.3.282-7.129.282-13.37 0-34.77-2.535-34.922-13.707-.113-7.828 17.133-16.961 23.653-19.536 1.406-.554 1.457-.984.476-.984-.308 0-.71.04-1.203.133-25.8 4.777-45.988 5.71-57.84 5.71-7.62 0-11.789-.386-11.789-.386s9.153 19.41 37.746 27.902a89.068 89.068 0 0 0 9.633 2.274c3.332.598 6.871 1.047 10.633 1.32 2.836.207 5.559.305 8.176.305 8.57 0 16.058-1.016 22.996-2.442.742-.156 1.113-.886-.078-.886" style="fill:#1e1c1e;fill-opacity:1;fill-rule:nonzero;stroke:none;stroke-width:.595517" transform="matrix(1.67921 0 0 1.67921 -279.34 -308.634)"/><path d="M413.734 289.21s-1.261 4.157-3.363 2.888c-1.527-.922-2.965-2.594-5.98-3.227-.77-.168-1.352-.351-1.563-.387-.566-.09-.043-.12-.043-.12h12.32zm29.059 2.669c-6.793-3.64-19.035-3.98-19.035-3.98-12.067-9.547-27.453-4.012-31.266-2.825-65.988 20.461-131.816 18.188-221.12-44.96l5.429 30.163c60.93 32.899 109.48 36.211 109.48 36.211l.57.75c-13.953 1.082-49.956-5.379-71.765-15.953l4.945 15.906c56.781 17.496 105.906 4.63 117.63 3.22 13.917-1.68 41.597-6.274 47.464 9.023 5.086 13.265-15.617 24.156-21.883 27.152-.957.46-.316.887.317.726 39.753-9.964 61-47.878 61-47.878 2.48-2.715 15.527-6.305 18.34-7.055.343-.094.722-.102.722-.102.004-.12-.61-.285-.828-.398M317.73 209.113l1.637-.113-.988-2.285M303.71 214.477a2.311 2.311 0 0 0-.362-.805 2.4 2.4 0 0 0-.66-.621c-.231-.149-.551-.238-.946-.262-.43-.023-.957.031-1.562.164h-.012l1.05 4.363c.036-.004.071-.008.106-.008.156-.02.309-.035.446-.054a.734.734 0 0 1 .18-.024s.003 0 .01-.004a1.21 1.21 0 0 1 .204-.027c.3-.098.57-.21.805-.332.219-.121.422-.266.597-.434.16-.152.254-.347.297-.597.047-.29.02-.645-.082-1.063M300.809 209.918l.02-.02a.79.79 0 0 0 .284-.437c.047-.188.04-.406-.015-.64l-.04-.165-.039-.078-.027-.098c-.164-.39-.348-.69-.55-.894-.173-.176-.337-.266-.512-.277h-.012a3.133 3.133 0 0 0-.656.011c-.14.016-.285.035-.442.059l.782 3.242c.21-.078.41-.172.605-.27.223-.12.426-.265.602-.433M257.477 237.332a5.75 5.75 0 0 0-1.063-1.559l-.25-.261a.498.498 0 0 1-.11-.09l-.042-.043a.848.848 0 0 1-.114-.094l-.02-.02a7.202 7.202 0 0 0-1.612-1.03 7.253 7.253 0 0 0-1.899-.575 4.098 4.098 0 0 0-1.64.055 3.801 3.801 0 0 0-1.418.715c-.29.347-.512.758-.66 1.219a5.003 5.003 0 0 0-.227 1.605 3.85 3.85 0 0 0 .398 1.719c.282.59.707 1.187 1.27 1.785l.223.238c.566.598 1.167 1.055 1.78 1.356.61.297 1.274.468 1.966.507a5.14 5.14 0 0 0 1.714-.171 3.92 3.92 0 0 0 1.332-.684c.356-.395.61-.828.754-1.289.145-.473.188-.996.121-1.563a6.25 6.25 0 0 0-.503-1.82M272.875 223.957l-.191-.305a.46.46 0 0 1-.09-.105l-.035-.055a.628.628 0 0 1-.094-.11l-.016-.027a7.293 7.293 0 0 0-1.39-1.32 7.245 7.245 0 0 0-1.75-.926c-.559-.199-1.106-.289-1.621-.257a3.884 3.884 0 0 0-1.528.43 3.616 3.616 0 0 0-.883 1.073 5.003 5.003 0 0 0-.53 1.528 3.936 3.936 0 0 0 .066 1.765c.16.63.464 1.301.906 1.993l.172.273c.445.7.945 1.266 1.492 1.676.539.41 1.156.707 1.828.875.46.117.906.176 1.324.176.133 0 .266-.008.39-.02a3.8 3.8 0 0 0 1.438-.418 3.41 3.41 0 0 0 .985-1.117c.234-.438.379-.941.422-1.512a6.249 6.249 0 0 0-.149-1.879 5.697 5.697 0 0 0-.746-1.738M420.652 256.02a3.365 3.365 0 0 0-.222-.622c-.059-.12-.121-.257-.192-.394l-2.824 1.777c.14.172.293.336.45.485.183.175.382.32.6.433l.024.016c.168.098.332.14.504.129a1.42 1.42 0 0 0 .606-.223l.14-.09.063-.062.086-.055c.316-.281.543-.555.672-.809.113-.218.144-.406.097-.574M415.387 258.07l-.004-.008-3.797 2.387c.015.035.031.066.043.102.066.14.129.273.195.402a1.265 1.265 0 0 1 .082.172c.04.059.067.121.09.184.191.253.387.472.574.656.184.172.383.316.602.43.195.101.41.128.66.09.29-.048.621-.188.984-.419l.258-.164c.254-.16.473-.363.645-.597.172-.239.297-.516.379-.825.066-.27.047-.597-.055-.98-.117-.418-.336-.898-.656-1.43M404.254 389.05l1.965-2.163-4.086-1.73M272.445 400.055c-.347-.684-.86-1.297-1.52-1.836l-.007-.004c-.61-.309-1.29-.5-2.02-.567a7.37 7.37 0 0 0-2.386.203c-.836.18-1.63.57-2.364 1.153-.75.59-1.472 1.402-2.136 2.398l-.262.387c-.672 1.012-1.133 2.023-1.363 3.004a7.545 7.545 0 0 0-.086 3.004c.16.91.433 1.719.816 2.414a5.824 5.824 0 0 0 1.453 1.719c.7.394 1.418.62 2.145.68.738.054 1.515-.063 2.312-.348a9.106 9.106 0 0 0 2.45-1.317 8.624 8.624 0 0 0 1.894-2.043l.309-.457a.473.473 0 0 1 .066-.156l.066-.102a.61.61 0 0 1 .078-.16l.028-.047c.437-.851.758-1.746.953-2.66.195-.918.266-1.894.2-2.902-.063-.883-.27-1.676-.626-2.363" style="fill:#1e1c1e;fill-opacity:1;fill-rule:nonzero;stroke:none;stroke-width:.595517" transform="matrix(1.67921 0 0 1.67921 -279.34 -308.634)"/><path d="m438.453 353.156-.855-.289a.59.59 0 0 0 .004-.285.967.967 0 0 0-.153-.32 2.27 2.27 0 0 0-.277-.332 2.693 2.693 0 0 0-.324-.27 3.353 3.353 0 0 0-.422-.219l-.117-.043a.649.649 0 0 1-.176-.101l-.41-.168c-.031-.012-.059-.02-.078-.031l-.207-.078-9.407-2.594 10.797 9.48-.57 1.434-.211.2-.086.07c-.18.171-.418.328-.703.456a4.09 4.09 0 0 1-.988.301c-.344.07-.711.13-1.075.168-.37.047-.742.07-1.113.094h-.023l-11.266-.129 8.875 4.906c.27.106.52.196.734.262.207.066.395.105.563.121l.043.008a1.7 1.7 0 0 0 .473.02c.175-.016.347-.047.519-.098l.09-.024.074-.062.113-.004a.662.662 0 0 1 .176-.059.246.246 0 0 0 .078-.039c.016-.004.027-.02.04-.035l.78.441-2.308 5.786-.871-.137a1.026 1.026 0 0 0-.07-.3 1.286 1.286 0 0 0-.18-.325c-.098-.14-.195-.27-.293-.399-.094-.12-.195-.238-.297-.359-.043-.039-.086-.074-.121-.105a1.62 1.62 0 0 1-.223-.192 5.82 5.82 0 0 0-.133-.101c-.058-.04-.12-.086-.187-.13l-.008-.007a1.85 1.85 0 0 0-.29-.176 3.069 3.069 0 0 0-.25-.117l-.108-.047-12.649-6.961-.008-.008c-.078-.05-.168-.094-.266-.145a5 5 0 0 0-.285-.125l-.16-.062a1.496 1.496 0 0 1-.191-.106l-.192-.082a4.282 4.282 0 0 0-.359-.128.477.477 0 0 0-.14-.028l-.06.004-.042-.008c-.047-.004-.094-.004-.14-.004a.456.456 0 0 0-.122.027c-.055.02-.113.047-.184.067-.035.015-.078.031-.128.05l-.086.033c.004 0-.012.004-.047.023a.717.717 0 0 1-.164.074l-.273.106-.938.336 2.106-5.48.539-1.34 13.789.105-10.328-8.785 3.02-7.57.276 1.57c.032.171.07.328.122.468.046.133.101.254.168.364l.019.035c.023.05.05.093.074.125.028.03.043.05.067.066l.047.043a.703.703 0 0 0 .125.117c.05.043.101.082.152.121l.047.043c.008.012.02.02.027.028.012.004.02.008.023.011l.352.137.07-.004.082.035c.012.008.016.008.028.008.011.004.02.004.027.004l.082-.004.07.02 14.621 3.922.02.008c.101.039.152.054.176.058.043.012.086.016.125.02l.07.008.012.004.078-.031.16.066h.04l.046-.004.05.008c.231.035.47.059.696.059h.035c.219 0 .446-.016.672-.047.195-.035.383-.098.55-.176.161-.078.294-.18.415-.313l.758.473zm-22.3 39.188-.762-.461c.062-.164.097-.317.105-.453a.98.98 0 0 0-.031-.332 1.436 1.436 0 0 0-.117-.274.817.817 0 0 0-.157-.187c-.05-.047-.101-.086-.156-.13-.031-.019-.062-.038-.105-.05a1.105 1.105 0 0 1-.207-.09c-.028-.015-.055-.035-.082-.05a1.654 1.654 0 0 1-.121-.055c-.004-.004-.024-.012-.04-.024l-.015-.004c-.035-.011-.074-.02-.113-.035-.047-.015-.09-.023-.13-.039-.058-.023-.116-.043-.179-.066-.055-.028-.098-.043-.14-.07l-4.567-1.919-3.43 3.778 2.641 4.648.164.223c.07.09.121.168.16.23.016.024.024.036.04.051l.116.102a1.023 1.023 0 0 0 .372.246c.054.015.117.027.18.035a.921.921 0 0 0 .214-.008l.031-.004h.035c.067 0 .141.004.223.016h.047a.564.564 0 0 1 .176-.036l.062-.023h.082-.011a.343.343 0 0 0-.168.11l.671.613-4.496 4.941-.578-.523-.148.015v-.011a.227.227 0 0 0-.02.082c.004-.051.008-.098.016-.145a1.019 1.019 0 0 1 0-.156c0-.055.008-.11.015-.164a7.127 7.127 0 0 0-.039-1.032 4.096 4.096 0 0 0-.191-.867 7.843 7.843 0 0 0-.3-.758c-.102-.207-.2-.39-.294-.539l-.058-.058-7.649-14.219v-.035c-.05-.063-.105-.129-.152-.203l-.016-.02a.833.833 0 0 0-.16-.2 1.14 1.14 0 0 0-.273-.186.198.198 0 0 0-.125-.035l-.047.008-.051-.008a1.984 1.984 0 0 0-.309 0 3.957 3.957 0 0 0-.367.058l-1.312.254 3.812-4.32.977-1.074 17.93 7.117c.261.101.503.176.703.222.207.043.402.086.586.114.18.011.363.027.554.043.164.008.317.008.461.004a.72.72 0 0 1 .274-.008c.023.004.043.004.054.004h.242a.811.811 0 0 1 .22-.004l.03-.016.079.004c.035-.004.062-.004.09-.012.03 0 .042-.004.046-.008l.485.735zm-25.75 23.957a1.688 1.688 0 0 1-.41.148c-.122.031-.25.059-.384.078l-.043.004c-.152.012-.297.016-.437.02a3.199 3.199 0 0 1-.469-.024 12.265 12.265 0 0 1-.426-.027c-.14-.012-.289-.023-.433-.043l-.055-.012-.422-.101c-.137-.035-.273-.07-.406-.117a1.276 1.276 0 0 1-.227-.055c-.05-.02-.101-.035-.16-.055l-.062-.023-.055-.043c-.02-.012-.04-.027-.063-.035-.023-.008-.05-.028-.09-.035l-.046-.02-13.598-6.617 4.867 8.816c.207.371.407.684.59.903.172.214.348.382.516.504.172.105.37.195.594.277.234.082.496.137.785.172l-.04.351.258.47-5.605 3.093-.602-.637c.016-.027.035-.059.055-.101.031-.055.066-.118.11-.172.015-.032.027-.067.039-.094a1.04 1.04 0 0 0 .035-.125l.011-.047.024-.055c.062-.125.11-.261.14-.406.032-.168.055-.34.075-.52a2.925 2.925 0 0 0-.086-.574 8.647 8.647 0 0 0-.27-.859l-.011-.027-6.805-12.305a6.833 6.833 0 0 0-.664-1.016c-.211-.261-.406-.46-.578-.582a4.341 4.341 0 0 0-.528-.308 1.575 1.575 0 0 0-.414-.133h-.039a.527.527 0 0 1-.137.02h-.011a.728.728 0 0 1-.207-.044c-.024-.004-.04-.008-.059-.008-.043-.008-.082-.008-.113-.008h-.055l-.148-.023-1.09-.375 1.914-1.05c.226-.106.473-.227.734-.376l3.13-1.726 14.804 7.11-4.617-8.356a5.58 5.58 0 0 0-.668-.973 4.947 4.947 0 0 0-.723-.668 2.07 2.07 0 0 0-.684-.27 1.335 1.335 0 0 0-.597.024l-.348-.828 4.832-2.742 1.738-.961-.074.851a.932.932 0 0 1-.136.434.78.78 0 0 0-.067.129l-.023.054-.043.043a.145.145 0 0 0-.035.063.102.102 0 0 0-.024.05l-.015.06-.028.058c-.058.098-.11.23-.144.379-.04.14-.063.293-.063.441l-.004.028c0 .054 0 .222.117.605.094.316.243.688.438 1.117l9.117 16.508zm-38.66 14.91c-.407.187-.837.355-1.282.512-.426.152-.875.297-1.34.445-.46.172-.93.312-1.387.43-.46.113-.933.21-1.402.293l-.02.004-1.816.238a17.13 17.13 0 0 1-2.258.152c-.777 0-1.55-.054-2.304-.168a14.82 14.82 0 0 1-4.282-1.324c-1.425-.68-2.59-1.719-3.46-3.102-.856-1.359-1.442-3.062-1.743-5.054l-.015-.113c-.086-1.97.117-3.72.593-5.208.489-1.507 1.278-2.769 2.34-3.757a13.796 13.796 0 0 1 3.473-2.336 14.663 14.663 0 0 1 4.082-1.203l1.148-.18c.387-.035.778-.059 1.153-.078.379-.016.777-.031 1.183-.043.395-.008.785 0 1.18.008.398.008.816.043 1.234.094l.344.046.582 4.399-1.726.226-.137-.085a16.233 16.233 0 0 0-1.16-.641 4.787 4.787 0 0 0-1.168-.395h-.012a7.755 7.755 0 0 0-.98-.156 6.688 6.688 0 0 0-.926-.004c-.785.16-1.531.461-2.219.879a8.267 8.267 0 0 0-1.941 1.691 6.531 6.531 0 0 0-1.399 2.586c-.262.961-.32 2.04-.168 3.192l.012.078.043.121.047.344c.258 1.258.617 2.328 1.074 3.191.441.84 1 1.508 1.652 1.977a9.22 9.22 0 0 0 2.063 1.148 7.983 7.983 0 0 0 2.117.492c.102.012.195.02.285.028.07.008.145.02.219.027.094-.012.191-.012.3 0 .063.004.114.004.157 0l.285-.035.059.023.004-.008c.238-.043.476-.101.707-.164.238-.062.453-.129.652-.191.262-.094.5-.196.719-.29.11-.05.215-.1.308-.148l-.578-4.39a9.568 9.568 0 0 0-.191-1.043 3.673 3.673 0 0 0-.281-.793l-.012-.028a1.603 1.603 0 0 0-.383-.543 3.098 3.098 0 0 0-.652-.46l-1.219-.653 5.742-.836 1.766-.234-.164.77-.02.152c-.02.09-.035.191-.047.297-.008.097-.008.187.004.28l1.082 8.196.036.055.015.101c.004.04.012.075.024.118.011.039.027.078.043.12l.066.126c.047.074.09.152.121.226l.188.41zm-35.903-18.313a.901.901 0 0 1-.387.239 2.88 2.88 0 0 0-.133.05l-.054.028-.067.008c-.023.008-.047.012-.062.015-.024.012-.04.016-.055.032l-.05.035-.06.02a1.869 1.869 0 0 0-.7.48l-.018.02c-.04.042-.145.167-.313.53-.136.301-.277.68-.414 1.13l-4.082 18.406-1.543-.344a1.3 1.3 0 0 1-.406-.152 4.355 4.355 0 0 1-.344-.2l-.03-.02c-.118-.093-.231-.19-.345-.28a3.294 3.294 0 0 1-.336-.328 20.569 20.569 0 0 0-.3-.297c-.098-.11-.2-.215-.297-.325l-.031-.043a17.623 17.623 0 0 0-.25-.355 4.216 4.216 0 0 1-.227-.356 1.305 1.305 0 0 1-.133-.19 5.162 5.162 0 0 1-.082-.15l-.031-.058-.016-.066c-.008-.02-.011-.047-.023-.067a.609.609 0 0 0-.043-.09l-.02-.047-5.824-13.953-2.176 9.828a6.195 6.195 0 0 0-.16 1.07c-.011.27.008.512.059.716.05.191.14.39.258.601.12.219.281.434.472.645l-.261.242-.118.52h-.004l-6.242-1.387-.027-.875c.023-.008.059-.02.101-.043.063-.02.13-.04.2-.051.03-.02.062-.031.093-.05.04-.024.075-.044.106-.067l.043-.032.05-.019c.13-.055.255-.129.376-.219.132-.101.265-.219.394-.34a2.36 2.36 0 0 0 .317-.484c.12-.223.242-.5.37-.824l3.048-13.754c.097-.445.16-.848.171-1.2.016-.34 0-.613-.05-.82a3.508 3.508 0 0 0-.192-.582 1.896 1.896 0 0 0-.219-.375l-.027-.023c-.047-.02-.086-.05-.121-.078a.78.78 0 0 1-.137-.18.295.295 0 0 0-.03-.039l-.083-.082-.039-.04-.098-.112-.566-1 2.129.472c.238.07.508.145.797.207l3.492.774 6.39 15.129 2.07-9.32a5.57 5.57 0 0 0 .138-1.169 4.314 4.314 0 0 0-.098-.98 2.108 2.108 0 0 0-.332-.656 1.44 1.44 0 0 0-.465-.38l.293-.847 5.434 1.14 1.937.427zm-37.777-5.964c-.297 1.402-.903 2.851-1.81 4.308l-.007.016c-.074.11-.156.222-.242.328-.067.09-.133.18-.2.277l-.035.043c-.093.11-.172.211-.246.301a6.068 6.068 0 0 1-.254.3 5.917 5.917 0 0 1-.57.638c-.191.19-.406.382-.625.57-.8.707-1.703 1.312-2.68 1.8-.976.485-2.05.86-3.195 1.102a7.652 7.652 0 0 1-1.754.203c-.594 0-1.191-.07-1.781-.207-1.149-.273-2.324-.804-3.488-1.586l-.938-.625c-1.476-.984-2.652-2.093-3.496-3.277a8.778 8.778 0 0 1-1.574-3.953 11.994 11.994 0 0 1 .156-4.16c.293-1.36.828-2.719 1.594-4.04l.05-.074c.133-.203.29-.421.47-.648.171-.227.366-.469.577-.715.11-.129.227-.258.34-.37.117-.118.235-.235.356-.352l.011-.008c.11-.098.223-.204.34-.31.125-.116.258-.222.399-.323a11.42 11.42 0 0 1 2.578-1.649c.945-.437 1.992-.77 3.105-.98 1.145-.242 2.344-.203 3.559.113 1.191.32 2.434.902 3.687 1.742l.965.61c1.23.847 2.25 1.836 3.032 2.945a10.384 10.384 0 0 1 1.64 3.758 9.804 9.804 0 0 1 .035 4.222m-29.02-25.578-1.09-1.425.052-.211c.058-.247.078-.52.058-.809a2.47 2.47 0 0 0-.203-.836l-.008-.023a4.848 4.848 0 0 0-.34-.73c-.14-.247-.289-.485-.449-.727a2.595 2.595 0 0 1-.219-.246l-.183-.239a18.24 18.24 0 0 1-.406-.457l-.13-.152-3.769 2.867.672.887.02.039a3.314 3.314 0 0 0 .613.844l.035.043c.074.097.152.172.223.222.09.063.18.114.27.153l.1.047 1.071 1.324-3.473 2.644-1.093-1.43.058-.218c.035-.13.047-.274.04-.43a2.28 2.28 0 0 0-.102-.543 4.347 4.347 0 0 0-.262-.62 4.387 4.387 0 0 0-.371-.579l-.05-.063-.024-.085-.242-.32-5.243 3.995c.02.032.036.063.047.098l.11.145-.008.046v.004c.125.235.25.473.379.704.125.234.254.468.39.714.082.141.164.278.246.415l.036.054c.07.13.148.254.226.387.047.035.09.078.129.129l.078.101c.113.121.234.239.36.356.132.121.265.242.398.351.121.098.254.192.402.29.156.109.317.21.477.324.316.191.652.347 1.012.472.363.13.77.227 1.21.286l.176.027 1.242 1.539-5.195 1.582-8.601-11.293 1.168.227c.097.02.207.03.312.035.129.004.25.004.371 0h.047c.02.004.043.004.063 0 .062-.008.128-.02.199-.027.066-.016.14-.02.226-.024.028 0 .047 0 .059-.004l.297-.097c.086-.028.18-.07.265-.122a5.41 5.41 0 0 0 .297-.175c.098-.067.2-.137.305-.22l.05-.034 11.364-8.66c.2-.153.414-.332.625-.524.211-.199.422-.394.629-.601.16-.184.293-.399.402-.645.106-.25.172-.543.2-.867l.09-1.176 6.335 8.207.028.078a.49.49 0 0 0 .078.164c.054.067.113.13.175.192l.032.023.023.035c.02.02.04.047.059.063.027.023.05.039.078.058l.07.047.012.016c.074.035.144.07.207.113l.062.04 1.047 1.3zm-21.878-26.933c-.04.093-.07.195-.102.304-.03.13-.066.274-.097.418-.04.168-.082.328-.13.489-.046.152-.097.32-.156.488a8.673 8.673 0 0 1-.484 1.09c-.183.351-.402.71-.648 1.07-.262.379-.57.703-.922.973a4.371 4.371 0 0 1-1.188.629c-.82.289-1.62.43-2.383.43-.214 0-.43-.009-.64-.032a5.909 5.909 0 0 1-2.73-1.035 8.525 8.525 0 0 1-2.141-2.066c-.594-.817-1.098-1.778-1.492-2.848l-.375-1.078a10.816 10.816 0 0 1-.305-1.012 15.052 15.052 0 0 1-.211-1.047 44.052 44.052 0 0 1-.152-1.07 15.042 15.042 0 0 1-.102-1.125l-.004-.05.008-.052c0-.004 0-.008.004-.008l-.027-.078c-.031-.09-.043-.183-.031-.281a1.113 1.113 0 0 1 .008-.258.92.92 0 0 0 0-.148l-.016-.285 4.293-2.329.613 1.758-.098.18a7.697 7.697 0 0 0-.421.894c-.118.286-.2.579-.262.868-.027.164-.055.32-.082.468a3.294 3.294 0 0 0-.043.414l-.004.024c-.016.14-.031.285-.043.437-.012.137-.016.266-.012.383v.027c0 .122-.004.235-.004.356-.004.098.004.191.016.273l.008.055-.004.05a1.02 1.02 0 0 0 .008.22l.004.02c.02.108.031.206.05.316.02.12.044.226.067.328.023.086.05.175.082.261.16.344.34.668.531.957.184.278.399.508.637.704.3.246.613.43.93.539.3.113.62.148.957.113.066-.008.132-.016.191-.031a1.92 1.92 0 0 1 .223-.036l.054-.019c.063-.02.125-.04.192-.04l.133-.042c.168-.059.32-.133.465-.215.12-.074.23-.164.324-.27l.027-.03a.78.78 0 0 0 .14-.157l.15-.191c.038-.102.089-.204.151-.301a1.65 1.65 0 0 0 .118-.223c.05-.156.109-.32.171-.488.06-.164.122-.344.18-.54.063-.194.125-.398.18-.605.055-.199.11-.41.156-.629l.625-3.39c-.015-.063-.02-.13-.015-.192l-.008-.027v-.074c0-.086.008-.164.019-.227a2.798 2.798 0 0 1 .105-.46c.032-.106.067-.204.098-.294a7.827 7.827 0 0 1 1.11-2.422 5.224 5.224 0 0 1 1.007-1.12c.38-.32.828-.59 1.325-.81l.09-.03c1.023-.356 1.992-.496 2.87-.422.903.078 1.73.398 2.457.953a7.853 7.853 0 0 1 1.813 1.781 8.918 8.918 0 0 1 1.18 2.278l.43 1.132v.094l.152.438-.016.058.149.426.008.066c0 .035.008.07.023.118l.094.277c.035.156.074.316.12.48.051.184.094.383.118.586.055.227.098.465.121.7.02.21.043.421.07.624.031.227.051.434.055.618.004.191-.004.367-.023.53l-.032.282-3.921 1.371-.567-1.633.043-.148c.082-.25.156-.539.23-.852.07-.308.13-.644.169-1 .043-.355.066-.707.062-1.046a7.37 7.37 0 0 0-.094-1.024l-.004-.039a1.85 1.85 0 0 0-.023-.184c-.02-.07-.031-.14-.04-.21a2.17 2.17 0 0 0-.245-.38 5.027 5.027 0 0 0-.418-.456 2.579 2.579 0 0 0-.668-.442 3.357 3.357 0 0 0-.899-.226c-.078-.004-.148-.012-.222-.012a19.82 19.82 0 0 0-.23-.012.9.9 0 0 0-.153.024c-.05.011-.11.027-.168.047-.25.09-.488.242-.7.449a3.06 3.06 0 0 0-.59.875c-.179.379-.327.773-.44 1.164-.11.394-.184.804-.223 1.226l-.004.032-.582 3.543zM423.87 258.07l-.004.008a3.69 3.69 0 0 1-.535 1.496 3.733 3.733 0 0 1-2.086 1.54c-.328.09-.68.124-1.04.109a3.08 3.08 0 0 1-.984-.168c.02.289.024.582.008.879-.02.382-.086.77-.195 1.16-.11.426-.324.832-.64 1.199-.297.352-.708.687-1.211 1.008l-.016.008c-.567.324-1.113.547-1.625.656a3.88 3.88 0 0 1-.777.086c-.25 0-.493-.027-.723-.086a5.018 5.018 0 0 1-2.293-1.059l-.016-.015c-.164-.149-.324-.3-.468-.45a8.47 8.47 0 0 1-.414-.44l-.024-.032a7.953 7.953 0 0 1-.324-.469l-3.29-5.226.602-.637c.02.008.04.02.063.027.02.008.035.02.059.028l.062.015.04-.004.085.02a.76.76 0 0 0 .227.023c.082-.008.16-.02.222-.039.094-.035.207-.082.336-.144a3.3 3.3 0 0 0 .43-.239l.035-.02 8.992-5.663a.556.556 0 0 1 .117-.098l.098-.062c.035-.032.07-.067.121-.098l.04-.024c.038-.035.07-.07.1-.097a3.37 3.37 0 0 1 .118-.114c.027-.046.063-.09.094-.132a5.75 5.75 0 0 0 .105-.153.858.858 0 0 0 .098-.21c.02-.07.027-.137.02-.212l.831-.293 2.508 3.903.43.687c.32.567.555 1.13.695 1.676.149.559.188 1.117.13 1.656m-17.95-5.718a4.504 4.504 0 0 0-.473.484 3.33 3.33 0 0 0-.304.422.742.742 0 0 0-.082.308.643.643 0 0 0 .074.32l-.746.5-2.793-3.1.086-.079a3.42 3.42 0 0 1-.336-.172 3.963 3.963 0 0 1-.801-.52 8.34 8.34 0 0 1-.856-.827l-.523-.582c-.555-.618-.965-1.231-1.219-1.829a3.605 3.605 0 0 1-.285-1.863c.07-.57.207-1.11.406-1.598.196-.488.465-.945.797-1.359a.833.833 0 0 1 .098-.133c.031-.043.066-.078.11-.12a.852.852 0 0 1 .128-.141l.074-.067c.063-.074.13-.144.203-.21l6.203-5.587a1.977 1.977 0 0 0 .5-.676 3.422 3.422 0 0 0 .187-.84l.106-.995 3.094 3.355 1.121 1.238-.879.102a2.989 2.989 0 0 0-.57.129c-.055.015-.11.031-.172.054a.732.732 0 0 0-.11.051l-.05.024a1.2 1.2 0 0 0-.137.062c-.047.027-.093.059-.152.094l-.02.012c-.039.02-.07.043-.101.062-.027.016-.047.035-.07.055l-.043.043-.063.027-.098.086-5.707 5.137c-.41.37-.726.726-.941 1.054-.203.309-.328.594-.375.86a3.081 3.081 0 0 0 0 .804c.035.235.102.45.195.649.04.066.074.133.11.207a.245.245 0 0 0 .05.078l.032.035c.273.262.558.477.847.625a2.219 2.219 0 0 0 1.078.266c.247 0 .485-.04.707-.117.293-.106.586-.29.864-.54l5.754-5.18c.222-.194.41-.394.57-.581a2.49 2.49 0 0 0 .332-.496l.004-.012c.078-.152.133-.305.156-.45a2.67 2.67 0 0 0 .047-.495l.008-1.153 3.285 3.57 1.172 1.301-.96.036c-.216.011-.415.039-.598.086a2.036 2.036 0 0 0-.512.195 5.18 5.18 0 0 0-.54.344c-.179.129-.359.27-.53.425zm-8.809-23.907c-.125.11-.265.254-.41.438l-6.34 7.762c.078.093.16.183.239.265.171.176.328.344.468.496.098.094.196.188.293.278.102.09.192.18.282.265l.304.2c.094.062.196.12.301.175l.023.012c.137.074.29.148.45.207.175.062.351.117.53.164l.024.004c.086.027.176.047.266.063.105.011.207.027.308.039.118.011.235.015.348.023.086.004.184.004.285.004h.235l1.273.984-3.512 2.059-7.191-5.871.328-.399-.047-.375a.462.462 0 0 1 .149-.008h.07l.059-.008.043.008.039-.008a.803.803 0 0 1 .14-.004 2.53 2.53 0 0 0 .344-.109.964.964 0 0 0 .242-.14c.098-.083.192-.16.281-.239.075-.066.141-.137.2-.21l6.726-8.239c.106-.129.196-.254.266-.367a2.03 2.03 0 0 0 .14-.254c.028-.063.043-.121.06-.188a.157.157 0 0 0 0-.086l-.005-.043c0-.023 0-.05-.008-.078-.008-.054-.012-.125-.02-.199v-.219c0-.074.009-.152.012-.23l.078-.836 3.672 2.926 1.399 1.144-1.063.164-.015.016-.168.027a.644.644 0 0 1-.149.008c-.039 0-.074 0-.113-.004H397.878a.484.484 0 0 0-.152.04 12.42 12.42 0 0 0-.316.12 1.77 1.77 0 0 0-.297.223m-12.211-6.777a11.98 11.98 0 0 0-.649-1.035c-.199-.29-.421-.54-.656-.746a6.823 6.823 0 0 0-.515-.442 14.255 14.255 0 0 0-.48-.344c-.493-.234-.977-.355-1.435-.359h-.035c-.453 0-.894.105-1.32.316a5.313 5.313 0 0 0-1.383.965 6.217 6.217 0 0 0-1.062 1.38l-.133.234-.004.043-.043.078c-.305.586-.52 1.199-.63 1.824a7.35 7.35 0 0 0-.077 1.973c.055.582.23 1.109.508 1.574.257.43.617.804 1.066 1.117h.04l.109.074c.199.129.394.238.582.32.183.082.363.145.53.184l.032.008a3.953 3.953 0 0 0 1.121.184l.012.004.3.02c.086.007.172.007.258.003l.043-.004.036.008c.082.008.164.016.246.016h.03c.122-.004.243-.004.368-.004l.106.004 1.343.715-2.523 2.402-.2-.016a4.7 4.7 0 0 1-.745-.105 4.788 4.788 0 0 1-.696-.219c-.215-.074-.43-.148-.64-.226a9.131 9.131 0 0 1-.598-.254l-.035.011-1.215-.691a8.982 8.982 0 0 1-2.18-1.734 8.943 8.943 0 0 1-1.543-2.395 6.077 6.077 0 0 1-.484-2.957c.086-1.012.414-2.082.965-3.2l.035-.058.36-.633c.034-.058.077-.117.124-.172.028-.043.055-.085.086-.125.031-.043.07-.09.11-.136a9.52 9.52 0 0 1 1.73-1.93 10.37 10.37 0 0 1 2.188-1.434c.847-.414 1.78-.562 2.773-.445.96.113 2 .488 3.09 1.11l.726.39c.149.102.301.2.453.297.168.106.344.223.516.356.176.12.356.25.531.382.176.133.344.262.512.391a7.018 7.018 0 0 1 .54.473c.038.039.077.078.112.117a.316.316 0 0 0 .032.02l.054.034.047.043c.031.04.07.075.106.114.043.039.078.078.117.113l.246.246-1.66 2.902-1.18-.671zm-29.426-.7-8.984-2.331.16-.606-.164-.246.035-.023c-.031.011-.063.023-.09.043a.934.934 0 0 1 .125-.063c.02-.008.04-.02.063-.027l.05-.035.04-.008.035-.024a.602.602 0 0 1 .12-.066 2.06 2.06 0 0 0 .274-.239.945.945 0 0 0 .16-.23c.055-.117.106-.227.153-.332a1.33 1.33 0 0 0 .093-.273l.133-.504 2.543-9.79c.043-.163.07-.312.09-.449a1.61 1.61 0 0 0 .02-.289 1.443 1.443 0 0 0-.024-.191.238.238 0 0 0-.031-.082l-.024-.04c-.011-.019-.023-.042-.043-.066a2.104 2.104 0 0 1-.097-.171 3.516 3.516 0 0 1-.18-.414l-.277-.794 4.558 1.13 1.75.456-.902.59-.004.024-.148.097a.748.748 0 0 1-.125.063.432.432 0 0 1-.106.047c-.02.011-.039.02-.058.027h-.004a.603.603 0 0 0-.125.102c-.075.074-.153.152-.235.238a2.273 2.273 0 0 0-.18.332c-.066.148-.132.34-.191.562l-2.52 9.707c.114.051.223.094.333.137.222.09.437.176.628.258.125.043.254.086.383.125.13.043.25.086.367.129.125.02.243.035.356.05.113.02.23.032.348.032l.027.004c.156.016.324.016.5 0 .18-.012.367-.04.543-.07l.023-.004c.094-.016.184-.036.27-.059.101-.031.203-.059.297-.09.113-.043.218-.086.328-.129a5.06 5.06 0 0 0 .328-.144l.144-.067 1.57.364zm-14.762-3.331-9.234-.934.062-.617-.199-.219c.008-.008.02-.016.028-.023a.348.348 0 0 0-.086.054.94.94 0 0 1 .12-.082c.02-.011.036-.023.055-.035l.047-.043.04-.015.027-.028a.627.627 0 0 1 .117-.082c.086-.093.164-.187.227-.281a.88.88 0 0 0 .125-.25c.039-.125.07-.246.101-.356.027-.093.043-.19.055-.285l1.066-10.578a4.83 4.83 0 0 0 .016-.457 1.987 1.987 0 0 0-.024-.289 1.026 1.026 0 0 0-.054-.187.207.207 0 0 0-.043-.075l-.028-.035c-.015-.015-.03-.039-.054-.058-.035-.043-.078-.094-.125-.157a3.583 3.583 0 0 1-.121-.18c-.036-.062-.079-.128-.114-.199l-.398-.742 4.676.418 1.8.18-.8.726v.02l-.13.117a.598.598 0 0 1-.116.086.56.56 0 0 1-.094.063.905.905 0 0 1-.055.03l-.004.005a.46.46 0 0 0-.11.117c-.058.086-.128.18-.195.277-.046.09-.09.207-.128.348-.043.16-.079.36-.102.594l-1.004 9.972c.121.032.234.059.348.086.238.055.46.106.664.157.133.023.262.046.394.066.133.023.262.047.383.07h.363c.114-.004.23-.011.348-.023l.031-.004c.153-.008.32-.031.489-.07.175-.043.355-.098.527-.16l.023-.005c.086-.03.176-.062.258-.101.094-.047.188-.09.277-.133a6.85 6.85 0 0 0 .301-.176c.098-.055.2-.12.309-.195l.129-.086 1.61.117zm-13.84-1.227-4.921.355-.227-.859c.094-.05.172-.101.234-.156.051-.051.09-.098.11-.14a.643.643 0 0 0 .062-.161c.008-.047.016-.09.008-.133a.687.687 0 0 0-.011-.125c-.004-.008-.012-.023-.016-.039a1.094 1.094 0 0 1-.074-.168.938.938 0 0 1-.012-.055c-.012-.03-.027-.062-.035-.093a1.792 1.792 0 0 1-.047-.086l-.004-.008c-.012-.024-.027-.05-.043-.078a.949.949 0 0 1-.058-.125.518.518 0 0 1-.043-.114l-1.333-3.05-3.335.238-.875 3.492a8.885 8.885 0 0 1-.055.39l.004.114a.836.836 0 0 0 .023.156c.008.04.02.067.036.086.011.028.027.051.05.078a.535.535 0 0 0 .09.078l.028.02.027.027c.035.035.07.074.11.117.034.02.066.043.097.067l.047.02.058.054c-.011-.012-.023-.016-.027-.02l-.035-.019.004.004-.004-.004c-.035-.012-.09-.031-.153-.031v.387l.036.519-.028-.32.024.32-.008-.113.008.113-4.625.328-.051-.676-.192-.148c.008-.012.016-.02.024-.031-.02.011-.04.023-.05.039.019-.02.046-.043.07-.063.023-.027.05-.054.074-.078.03-.031.062-.054.097-.082.18-.176.332-.347.457-.511.121-.168.223-.336.301-.504.082-.18.152-.352.203-.516.047-.137.082-.262.11-.375l-.009-.059 2.997-10.867c.004-.047.008-.093.015-.14l.008-.032.012-.07v-.059a.826.826 0 0 0-.04-.195l-.003-.015-.043-.028-.028-.035a1.505 1.505 0 0 0-.332-.27l-1.132-.718 4.398-.38 1.102-.077 5.636 12.258c.082.168.16.312.235.425.078.118.156.227.234.325.086.093.168.187.254.285.07.074.14.144.21.207a.563.563 0 0 1 .18.172l.11.101a.657.657 0 0 1 .113.094l.016.008.054.055.032.027c.008.004.008.008.011.008zm-19.164-1.086a3.356 3.356 0 0 1-.48 1.426c-.223.39-.484.742-.773 1.047a4.97 4.97 0 0 1-.965.785l-.02.012c-.191.105-.383.21-.57.3-.188.09-.375.176-.555.25l-.035.012a6.757 6.757 0 0 1-.55.156l-6.005 1.45-.41-.778a.56.56 0 0 1 .047-.043c.016-.015.031-.035.043-.047l.035-.058.008-.04.047-.074a.703.703 0 0 0 .094-.207.978.978 0 0 0 .035-.222 3.752 3.752 0 0 0-.117-.844l-2.504-10.375a.51.51 0 0 1-.05-.14l-.028-.118a.62.62 0 0 1-.059-.144l-.008-.04a.844.844 0 0 0-.062-.132l-.067-.149c-.035-.039-.066-.086-.097-.133-.035-.047-.07-.097-.11-.144a.672.672 0 0 0-.172-.16.499.499 0 0 0-.191-.082l-.008-.883 4.496-1.133.79-.184a6.93 6.93 0 0 1 1.808-.125c.578.04 1.12.176 1.61.407l.007.004c.5.25.918.582 1.246.988.328.406.563.895.696 1.45.082.335.117.679.097 1.015-.02.344-.097.687-.226 1.023a3.119 3.119 0 0 1-.477.88c.277.07.559.16.836.273.36.14.703.324 1.031.55.375.247.688.582.938.997.238.394.425.886.57 1.464v.02c.129.64.16 1.23.105 1.746m-17.69 8.266-3.68 1.507-.481-.754a.712.712 0 0 0 .18-.234c.047-.094.078-.2.093-.305a1.156 1.156 0 0 0 0-.328 1.498 1.498 0 0 0-.101-.363l-.016-.043-4.117-10.047-.246.102c-.227.125-.442.25-.637.37a4.445 4.445 0 0 0-.52.38 6.969 6.969 0 0 0-.402.441 1.991 1.991 0 0 0-.27.418l-.077.164-1.434.543-.664-3.676 1.281-.523.196.121.004.004c.008-.004.023-.004.035-.012l.058-.023.063-.008a.121.121 0 0 0 .043-.012l.176-.07 6.68-2.785.597-.242.078-.079c.055-.054.11-.105.168-.148l.043-.035 1.328-.59.438 3.758-1.332.547-.211-.227c-.02-.016-.059-.05-.157-.09a1.221 1.221 0 0 0-.34-.074h-.027a3.05 3.05 0 0 0-.43.031c-.14.02-.289.063-.437.121l-.016.008-.55.2 4.109 10.027c.059.152.121.266.184.348a.47.47 0 0 0 .156.125l.031.02c.086.046.18.089.274.124.105.035.203.067.296.094l.133.02.168.035.992.476zm-12.884 4.503a5.513 5.513 0 0 1-1.027 2.297c-.508.668-1.188 1.278-2.024 1.805l-.66.418c-1.058.668-2.101 1.113-3.113 1.316a6.34 6.34 0 0 1-1.289.133 6.168 6.168 0 0 1-1.727-.246 8.612 8.612 0 0 1-2.64-1.293 9.786 9.786 0 0 1-2.145-2.176l-.039-.062a7.292 7.292 0 0 1-.281-.484 8.814 8.814 0 0 1-.441-.91c-.04-.102-.079-.208-.122-.325l-.008-.012c-.027-.101-.062-.199-.097-.304a3.605 3.605 0 0 1-.098-.352 7.894 7.894 0 0 1-.324-2.133 8.932 8.932 0 0 1 .258-2.28 5.364 5.364 0 0 1 1.101-2.282c.547-.684 1.278-1.313 2.172-1.879l.66-.445a8.388 8.388 0 0 1 2.77-1.114 7.175 7.175 0 0 1 2.898.016c.992.191 1.914.59 2.746 1.187.82.59 1.579 1.395 2.262 2.395l.008.016c.05.082.102.164.149.254a3.2 3.2 0 0 0 .113.195l.027.055c.04.082.078.16.117.23.043.078.082.164.121.25.094.18.18.363.246.55.067.18.133.372.192.567.226.719.36 1.473.394 2.242a9.689 9.689 0 0 1-.199 2.371m-16.32 13.375c-.367.754-.922 1.48-1.64 2.157l-.571.539c-.91.86-1.848 1.496-2.8 1.886a6.23 6.23 0 0 1-2.411.493c-.191 0-.383-.012-.574-.028a8.577 8.577 0 0 1-2.84-.761 9.74 9.74 0 0 1-2.52-1.73l-.05-.052a8.875 8.875 0 0 1-.371-.421c-.13-.16-.266-.333-.399-.512-.07-.098-.144-.2-.207-.297-.055-.094-.117-.188-.18-.297l-.008-.012c-.05-.09-.101-.183-.156-.277a3.212 3.212 0 0 1-.164-.328 8.297 8.297 0 0 1-.726-2.027 9.352 9.352 0 0 1-.184-2.293c.012-.832.23-1.657.644-2.45.407-.773 1.004-1.53 1.778-2.257l.558-.563c.782-.715 1.621-1.262 2.512-1.625a7.293 7.293 0 0 1 2.774-.539h.07c1.012 0 1.996.215 2.922.645.918.421 1.82 1.066 2.675 1.917l.012.012c.067.07.133.145.196.219.046.062.097.117.152.172l.035.047c.055.074.11.144.16.203.055.074.113.148.164.222.13.16.246.329.352.5.098.16.195.333.293.52.36.656.637 1.375.816 2.125.18.75.266 1.543.254 2.363a5.47 5.47 0 0 1-.566 2.45m-15.418 17.05-.797-.398c.027-.09.035-.176.027-.254a1.244 1.244 0 0 0-.058-.258 2.052 2.052 0 0 0-.286-.484 2.389 2.389 0 0 1-.101-.094c-.016-.016-.031-.027-.047-.043l-.078-.059-.02-.043-.175-.132a.524.524 0 0 1-.125-.121l-8.192-6.274a4.29 4.29 0 0 0-.39-.266 3.25 3.25 0 0 0-.364-.187 1.211 1.211 0 0 0-.34-.055c-.129 0-.277.028-.441.078l-1.336.407 4.375-5.801.602-.785.011-.004h.004c.012-.028.028-.055.032-.082l-.02-.117.844-1.168 2.886 2.207-.902 1.183-.246-.023a.87.87 0 0 0-.371.054 2.256 2.256 0 0 0-.504.243 3.756 3.756 0 0 0-.71.617l-.157.203c-.024.05-.05.105-.082.152-.027.051-.059.098-.09.14l-.078.153a.647.647 0 0 0-.043.09l-.027.055c-.04.066-.075.14-.106.215l2.317 1.777 1.062-1.383c.008-.02.016-.031.023-.05.012-.024.02-.048.024-.06l-.024-.128.844-1.168 2.633 2.012-.89 1.156-.223.004a.577.577 0 0 0-.219.055 1.45 1.45 0 0 0-.324.21 5.806 5.806 0 0 0-.29.266c-.089.086-.179.176-.265.274-.035.058-.066.117-.101.171a2.412 2.412 0 0 1-.164.235l3.507 2.687.028-.004.234.18c.133.074.27.137.402.2.121.054.254.097.391.124a.932.932 0 0 0 .313-.008.916.916 0 0 0 .324-.156l.62.648zm80.926-71.18c-51.172 0-95.36 29.93-116.008 73.247 13.054 7.312 25.8 13.343 38.347 18.136 13.871-28.953 43.473-49 77.66-49 34.262 0 63.91 20.125 77.75 49.168.965-.07 1.965-.113 2.993-.113 6.855 0 12.906 1.867 17.98 5.55 3.207.184 12.805 1.017 19.313 4.595l.023.011c1.063.621 2.559 1.72 3.078 2.254.469.485.887 1.028.778 1.7-.13.769-.844 1.14-1.536 1.5-.48.25-2.386 1.011-2.918 1.183-.68.234-1.816.617-3.261 1.098-1.649.55-3.703 1.238-5.758 1.933-5.063 1.719-6.82 2.758-7.36 3.14-.535.907-1.82 3.013-3.828 5.86-2.359 3.356-6.222 8.438-11.379 13.899-2.953 44.797-40.343 80.332-85.875 80.332-47.382 0-85.945-38.492-86.054-85.86a204.311 204.311 0 0 1-21.305-5.32l-1.824-.562-6.164-19.747a349.563 349.563 0 0 1-9.688-4.078 128.863 128.863 0 0 0-3.402 29.512c0 70.934 57.508 128.441 128.437 128.441 70.95 0 128.446-57.507 128.446-128.44 0-70.935-57.496-128.438-128.446-128.438" style="fill:#1e1c1e;fill-opacity:1;fill-rule:nonzero;stroke:none;stroke-width:.595517" transform="matrix(1.67921 0 0 1.67921 -279.34 -308.634)"/></g></svg>