<svg xmlns="http://www.w3.org/2000/svg" xml:space="preserve" width="277.450130834" height="360.425131894" x="0px" y="0px" viewBox="0 0 368.421 478.602"><path fill="#0058A7" d="M184.298 478.52c72.582-76.495 107.174-128.409 128.666-173.654 21.521-45.253 37.729-105.953 45.836-154.563 8.088-48.607 9.621-91.556 9.621-91.556L269.75 0c-28.6 15.883-55.146 20.145-85.146 20.192h-.709C153.865 20.145 127.336 15.91 98.701 0L0 58.779s1.523 42.915 9.628 91.522c8.097 48.61 24.268 109.31 45.793 154.563 21.498 45.244 56.135 97.16 128.711 173.646l.072.092.094-.082z"/><path fill="#FFF" d="M270.902 361.024c37.357-54.205 79.881-145.134 88.637-297.764L269.925 9.925s-30.059 18.738-85.367 18.827l-1.143.016C128.405 28.588 98.51 9.95 98.51 9.95L8.892 63.297c8.78 152.622 51.303 243.563 88.629 297.767 39.627 57.513 86.695 104.75 86.695 104.75s46.948-47.094 86.686-104.79z"/><path fill="#0058A7" d="M96.931 25.676v311.158S31.31 241.924 22.536 70.399c44.931-25.132 74.395-44.723 74.395-44.723z"/><path fill="#E83534" d="M271.517 25.676v311.158s65.635-94.91 74.4-266.435c-44.931-25.132-74.4-44.723-74.4-44.723z"/><g fill="#0058A7"><path d="M113.243 231.371v-13.892h16.311v9.624h8.81v-10.042h17.07v10.013h12.232v4.57h-16.75v-10.055h-8.036v10.082h-17.881v-9.664h-7.268v9.327zM255.187 231.371v-13.892h-16.318v9.624h-8.789v-10.042h-17.088v10.013h-12.227v4.57h16.756v-10.055h8.021v10.082h17.887v-9.664h7.272v9.327zM184.396 211.208c3.523.064 7.367 2.206 7.367 7.001v13.403h4.516v-14.099c0-.839-.299-4.976-3.85-7.984-3.121-2.658-7.127-2.867-8.033-2.895h-.357c-.891.028-4.914.237-8.051 2.895-3.533 3.009-3.843 7.146-3.843 7.984v14.099h4.536v-13.403c0-4.795 3.836-6.937 7.355-7.001h.36z"/><path d="M184.369 196.929c1.404 0 12.961-.031 21.379-.603 8.979-.61 16.221-1.459 21.633-2.357l1.133 10.043h12.328s-3.879 2.667-11.865 3.724l.977 9.203 4.66-.033-.627-5.254s3.014-.494 8-3.007c4.973-2.501 12.143-7.981 13.467-9.128h-22.83l-1.207-10.958s-6.404 1.449-14.924 2.277c-8.477.835-19.324 1.513-32.012 1.513h-.574c-12.658 0-23.521-.678-31.97-1.513-8.521-.828-14.908-2.277-14.908-2.277l-1.221 10.958h-22.831c1.328 1.147 8.484 6.627 13.46 9.128 4.983 2.514 8.001 3.007 8.001 3.007l-.632 5.254 4.665.033.989-9.203c-7.99-1.057-11.88-3.724-11.88-3.724h12.333l1.148-10.043c5.404.898 12.632 1.747 21.609 2.357 8.104.544 19.082.594 21.186.603h.513zM151.582 244.303h-2.611s-1.807 2.531-5.532 3.238v1.871s2.479-.156 3.075.543c.572.709.455 1.934.455 2.896v11.433h4.586l.027-19.981zM176.164 248.458c-.188-1.997-1.383-4.573-5.896-4.573-4.532 0-5.563 2.6-5.686 4.396-.119 1.776-.219 5.921.262 7.21.504 1.307 2.129 2.029 3.572 2.029 1.45 0 2.215-.432 2.738-1.53l.491.114s.03 2.526.03 4.314c0 1.779-1.262 1.662-1.262 1.662s-.855 0-1.115-.563c-.239-.555-.239-1.599-.239-2.05h-4.579s-.577 5.234 5.904 5.234c6.486 0 5.869-4.604 5.869-8.375.002-3.775.094-5.867-.089-7.868zm-4.487 4.7c0 .898-.276 1.734-1.262 1.734-.979 0-1.355-.809-1.355-1.797 0-.979.035-4.701.035-4.701s-.068-1.874 1.32-1.874c1.021 0 1.262.926 1.262 1.837v4.801zM200.587 248.458c-.195-1.997-1.387-4.573-5.896-4.573-4.516 0-5.559 2.6-5.682 4.396-.131 1.776-.223 5.921.277 7.21.479 1.307 2.119 2.029 3.557 2.029 1.447 0 2.219-.432 2.74-1.53l.479.114s.043 2.526.043 4.314c0 1.779-1.268 1.662-1.268 1.662s-.854 0-1.102-.563c-.24-.555-.24-1.599-.24-2.05h-4.582s-.582 5.234 5.9 5.234c6.48 0 5.857-4.604 5.857-8.375.003-3.775.099-5.867-.083-7.868zm-4.482 4.7c0 .898-.27 1.734-1.266 1.734-.988 0-1.342-.809-1.342-1.797 0-.979.031-4.701.031-4.701s-.064-1.874 1.311-1.874c1.012 0 1.266.926 1.266 1.837v4.801zM224.062 244.275H213.58l-.215 9.836 4.527-.027s-.164-1.752 1.223-1.752 1.361 1.381 1.361 1.779v5.536c0 1.991-.252 2.458-1.209 2.458-.947 0-1.352-.707-1.352-2.703 0-2.006-.023-2.215-.023-2.215h-4.59s-.02 2.759.379 4.256c.4 1.523 1.875 3.298 5.74 3.298 3.879 0 5.318-2.028 5.514-3.838.172-1.813.148-5.091.055-7.218-.1-2.115-1.121-4.033-3.91-4.033-2.791 0-3.432 1.936-3.432 1.936v-4.6h6.379l.035-2.713z"/></g><path fill="#03428C" d="M243.15 61.497s6.059-1.37 7.768-1.933c-.152-.168-.775-.231-.775-.231-2.742.088-6.99 1.681-6.99 1.681-.642.354-.003.483-.003.483z"/><path fill="#0058A7" d="M129.794 72.066h-13.059l4.471 7.527 2.2-3.628h2.159c2.346 0 .73 2.405.73 2.405-.912 1.551-2.966 1.767-2.966 1.767h-8.031l-7.048 12.781h9.738c6.08 0 9.754-5.764 9.754-5.764 2.624-3.68-.54-5.225-.54-5.225 3.739-.971 5.867-5.229 5.867-5.229 2.021-4.292-3.275-4.634-3.275-4.634zm-9.219 15.93c-1.034 1.377-2.8 1.259-2.8 1.259h-1.91l2.818-4.932 2.231.114c1.953.583-.339 3.559-.339 3.559zM137.652 72.066h5.676l-11.282 20.853h-5.627l9.977-18.611h-1.382zM140.067 82.488h-1.434l2.804-2.35h5.271l-4.869 8.716s-1.661 2.453 1.838 1.202c0 0 .396-.217 1.012-1.202l3.458-6.411h-1.438l2.623-2.305h5.453l-7.104 12.781h-4.875l.58-1.068s-2.75 1.831-4.704 1.663c0 0-1.873.168-2.981-1.033 0 0-.611-.693.119-2.234l4.247-7.759zM164.544 79.634c-7.057-.338-9.694 4.117-9.694 4.117l-2.968 5.338c-1.198 2.113.054 3.276.054 3.276 2.348 1.439 5.276 1.212 5.276 1.212 6.234.047 8.838-4.981 8.838-4.981h-5.293c-1.375 2.268-2.873 2.168-2.873 2.168-1.773 0-.867-1.738-.867-1.738l1.208-1.944h8.833l2.173-4.127c1.513-3.096-4.687-3.321-4.687-3.321zm-.811 3.913-.63 1.068h-3.612c1.675-2.57 2.935-2.461 2.935-2.461 2.165-.224 1.307 1.393 1.307 1.393zM125.247 101.337h-3.319v-.267l4.759-4.272h9.345l-9.075 22.971 16.263-22.971h9.429l-8.444 22.971 15.552-22.971h9.434l-24.616 32.291h-10.95l8.882-22.182-15.463 22.182h-10.607zM162.557 111.763h-2.531l4.942-4.121h8.369l-11.609 21.447h-8.978zM195.244 106.907c-5.459-.615-9.471 2.593-10.514 3.543l1.523-2.809H177.9l-4.945 4.121h2.51l-9.803 17.327h8.98l7.455-13.759c2.27-2.962 4.537-3.386 4.537-3.386 2.424-.181 1.344 1.891 1.344 1.891l-8.734 15.254h8.906l9.98-17.974c1.61-3.223-2.886-4.208-2.886-4.208zM218.533 107.544l-1.813 2.97s.279-3.528-4.191-3.682c0 0-6.152-1.276-11.896 6.121l-5.469 9.6s-2.512 4.587 2.434 5.828c0 0 4.313 1.162 9.711-2.06l-2.162 3.771s-.91 2.055-3.969 2.255c0 0-3.58.356-1.701-2.075h-8.896s-2.6 4.764 2.436 5.766c0 0 8.361 1.622 14.637-1.1 0 0 4.131-1.606 7.369-6.447l11.598-20.947h-8.088zm-4.678 6.909-3.773 6.572s-1.412 2.856-4.221 2.328c0 0-2.246-.093-1.076-2.149l3.498-6.475s1.885-3.146 4.58-2.874c-.002 0 2.158.268.992 2.598zM248.365 113.738s1.119-1.497 1.074-3.095h-.014a2.364 2.364 0 0 0-.063-.528c-.004-.013-.023-.018-.023-.029-.402-1.605-2.441-2.353-3.896-2.733-2.689-.445-8.721-1.071-13.512 1.098 0 0-6.299 2.405-6.932 6.911 0 0 0 3.044 4.662 4.675l3.707 1.353s4.293 1.772-.898 3.85c0 0-1.547.487-2.74.265v.016c-.051 0-.076-.02-.131-.029-.055-.014-.082-.045-.146-.052-2.336-.771-.957-2.618-.594-3.069h-8.348s-3.512 5.313 2.883 7.016c0 0 11.5 1.8 17.057-2.867 0 0 4.34-3.491 3.998-6.592-.244-1.259-1.33-2.139-2.211-2.63l-5.01-2.202s-4.035-1.165-2.168-2.97c0 0 1.074-.905 2.449-1.187.5-.106 1.326-.265 2.033-.129.078 0 .178.038.264.048h.014c.686.179 1.223.871.363 2.883h8.182v-.003zM260.162 55.188c-.16-.399-3.652.073-3.652.073-42.129 6.152-67.74 16.674-67.74 16.674-10.9 3.866-15.014 9.256-15.014 9.256-2.474 3.414.494 4.718.494 4.718.834.372 2.324.654 2.324.654l3.568.465c3.621.511 1.324 4.464 1.324 4.464l-6.91 12.446c-.338.624.672.131.672.131l16.857-7.398 4.795-8.777 10.59.057 6.637-3.335c.846-.433 1.121-.816 1.121-.816 0-.447-.889-.286-.889-.286l-3.463.858c-1.379.439-1.424.11-1.424.11l8.57-3.722c2.271-1.026 1.715-1.429 1.715-1.429-.26-.339-3.043.889-3.043.889-1.35.516-1.447.184-1.447.184l12.25-5.57c1.66-.642 1.396-.603 1.396-.603 0-.545-1.441-.072-1.441-.072l-8.748 3.011c-1.67.534 0-.386 0-.386l13.938-5.363c2.102-.869 1.883-1.102 1.883-1.102-.219-.379-2.777.438-2.777.438-1.393.376-1.115.041-1.115.041l6.457-2.496c1.455-.494 1.107-.939 1.107-.939-.168-.558-5.596.909-5.596.909-.174-.622-2.904-.02-2.904-.02h-.066c-10.195 2.683-9.131 1.581-9.131 1.581.723-.426 11.861-3.453 18.922-5.326l5.316-1.549c1.232-.365 1.061-.647 1.061-.647-.104-.268-1.631.045-1.631.045l-.758.134c-7.229 1.779-8.625 1.833-8.625 1.833.9-.386 4.084-1.391 5.248-1.76.676-.303.611-.414.611-.414-.063-.215-2.008.046-2.008.046l-.924.161c-3.406.706-5.201.965-6.16 1.003l-.689.122.383-.122c-.637.02-.699-.078-.699-.078l18.762-4.846 7.906-2.17c3.169-.974 2.947-1.077 2.947-1.077zm-47.614 24.339s.221-.721 1.875-1.252c0 0 1.211-.46 2.137-.521 0-.001-.328.769-4.012 1.773zm16.674-8.395s.758.358-3.271 1.373c-.516.154-.951.229-1.291.315-.084.014-.111.029-.158.048 0 0-.146.022-.355.022-.844.123-1.156.018-1.156.018 2.096-.914 3.771-1.354 4.846-1.576.524-.123 1.022-.2 1.385-.2z"/><path fill="#E83534" d="m196.876 87.84-8.605 15.807L226.89 87.84z"/><g fill="#0058A7"><path d="M134.25 335.749v-.813c.031-1.457-.159-2.486-.553-3.082-.382-.612-1.071-.896-2.056-.896-.967 0-1.697.268-2.18.825-.488.541-.729 1.375-.729 2.495 0 .844.276 1.57.853 2.183.57.627 1.555 1.252 2.972 1.915 2.794 1.328 4.764 2.628 5.876 3.895 1.119 1.261 1.688 2.816 1.688 4.654 0 2.749-.717 4.817-2.161 6.211-1.44 1.364-3.609 2.064-6.515 2.064-3.144 0-5.376-.631-6.691-1.86-1.312-1.235-1.959-3.249-1.959-6.049v-1.065h5.552v.816c-.035 1.333.217 2.323.731 2.995.517.647 1.289.979 2.363.979 1.021 0 1.782-.285 2.305-.895.504-.596.763-1.497.763-2.689 0-.918-.322-1.688-.936-2.324-.615-.652-1.691-1.353-3.226-2.077-2.686-1.253-4.564-2.515-5.631-3.729-1.062-1.216-1.614-2.703-1.614-4.51 0-2.677.73-4.684 2.164-6.018 1.456-1.314 3.62-1.986 6.523-1.986 2.968 0 5.087.615 6.317 1.869 1.138 1.171 1.701 3.048 1.695 5.662l.006.617v.813h-5.557zM163.058 347.033c0 2.726-.715 4.764-2.129 6.116-1.426 1.351-3.54 2.051-6.381 2.051-2.836 0-4.959-.7-6.373-2.051-1.412-1.354-2.129-3.392-2.129-6.116v-19.841h5.666v20.17c0 1.35.211 2.312.623 2.851.414.536 1.162.804 2.213.804 1.063 0 1.803-.268 2.207-.804.42-.539.633-1.501.633-2.851v-20.17h5.67v19.841zM206.492 353.08c-1.285-1.411-1.932-3.824-1.932-7.263v-11.35c0-2.563.709-4.486 2.141-5.767 1.424-1.275 3.568-1.914 6.438-1.914 2.863 0 5.016.639 6.451 1.914 1.436 1.278 2.152 3.204 2.152 5.767v11.35c0 3.438-.643 5.852-1.939 7.263-1.287 1.411-3.51 2.12-6.664 2.12-3.136 0-5.356-.709-6.647-2.12zm8.937-3.143c.422-.734.635-2.023.635-3.893v-11.338c0-1.227-.254-2.156-.748-2.795-.494-.622-1.229-.953-2.178-.953-.967 0-1.688.331-2.178.953-.49.639-.734 1.568-.734 2.795v11.338c0 1.868.221 3.157.645 3.893.426.727 1.188 1.08 2.268 1.08 1.097 0 1.859-.355 2.29-1.08zM232.23 354.792H227.593v-27.6h8.312l4.822 23.287v-23.287h4.619v27.6h-8.258l-4.859-23.503v23.503h.001z"/></g><path fill="#0058A7" d="M193.326 353.683h-4.943l-3.834-18.121h-.063l-3.771 18.121h-5.041l-5.99-26.623h4.977l3.582 18.121h.064l3.928-18.121h4.658l3.867 18.346h.064l3.707-18.346h4.881l-6.086 26.623z"/></svg>