<svg xmlns="http://www.w3.org/2000/svg" width="1000.181" height="999.966" fill-rule="evenodd" viewBox="0 0 750.13575 749.97449"><path d="M296.917 135.636c-158.259 0-286.471 128.146-286.471 286.339 0 158.197 128.212 286.542 286.471 286.542 158.188 0 286.533-128.345 286.533-286.542 0-158.193-128.345-286.339-286.533-286.339" style="fill:#fff" transform="matrix(1.30913 0 0 1.30913 -13.675 -177.565)"/><path d="M46.727 415.674a210.59 210.59 0 0 0-.398 12.934c0 68.521 26.333 132.461 74.023 180.217 47.026 46.96 109.706 72.895 176.565 72.895 13.393 0 26.858-1.062 40.058-3.25l-1.526-9.75a241.111 241.111 0 0 1-38.532 3.117c-64.206 0-124.432-24.807-169.535-69.91-45.833-45.965-71.17-107.451-71.17-173.319 0-4.179.133-8.291.332-12.404l-9.817-.53M545.245 478.159c3.317-16.384 4.908-33.032 4.908-49.751 0-67.123-26.066-130.135-73.491-177.361-47.226-46.96-110.304-73.358-177.627-73.823l-.066 9.949c64.67.465 125.36 25.669 170.662 70.972 45.567 45.301 70.64 105.793 70.64 170.263 0 16.056-1.526 32.041-4.709 47.761l9.683 1.99" style="fill:#d2122e" transform="matrix(1.30913 0 0 1.30913 -13.675 -177.565)"/><path d="M298.902 172.25c68.518.132 132.789 27.061 181.076 75.481 48.42 48.486 74.951 112.89 74.951 181.345 0 16.98-1.592 33.827-4.776 50.277l1.725.332c3.316-16.582 4.908-33.496 4.908-50.609 0-68.985-26.797-133.788-75.481-182.672-48.685-48.817-113.421-75.813-182.403-76.012v1.858M337.903 685.103c-140.412 20.76-273.134-74.553-294.16-214.041-2.654-17.445-3.45-39.532-2.787-55.919h-1.79c-.73 16.454.066 38.674 2.72 56.184C63.043 611.876 196.76 707.854 338.102 686.96l-.2-1.857" style="fill:#d2122e" transform="matrix(1.30913 0 0 1.30913 -13.675 -177.565)"/><path d="M298.902 194.271h1.592c63.211 1.525 121.845 26.067 165.224 69.379 43.643 43.577 67.72 102.278 67.72 164.958a243.21 243.21 0 0 1-4.509 46.632l1.857.266c2.985-15.389 4.443-31.042 4.443-46.898 0-63.277-24.209-122.375-68.185-166.285-43.71-43.644-102.875-68.45-166.55-69.843h-1.592v1.791M334.587 661.755c-11.209 1.658-22.618 2.653-33.96 2.653-63.604 0-123.167-24.541-168.005-69.379C88.315 550.655 63.84 491.822 63.84 429.076c0-4.116.066-8.362.265-12.407l-1.857-.067c-.133 4.047-.266 8.358-.266 12.474 0 63.211 24.675 122.575 69.313 167.28 45.17 45.169 105.263 69.976 169.332 69.976 11.408 0 22.949-1.128 34.226-2.72l-.266-1.857" style="fill:#d2122e" transform="matrix(1.30913 0 0 1.30913 -13.675 -177.565)"/><path d="m150.199 199.444 59.43 37.807-18.837 13.266-13.531-9.552-18.307 12.271 2.853 17.71-13.73 9.286-13.399-71.17zm17.908 34.822c-6.433-5.107-11.408-8.291-18.903-14.791l-.199.133c3.515 9.352 3.98 14.99 6.567 22.949l12.535-8.291M40.36 343.442l70.042-6.832-6.699 22.088-16.515.862-6.832 20.96 13.132 12.071-4.841 15.919-54.588-47.889zm35.552 16.45c-8.291-.067-14.195.398-24.011 0l-.133.133c8.556 5.239 12.337 9.352 19.368 13.995l4.776-14.128M81.55 257.68l46.297 33.827c13.597 9.685 15.587 23.68 5.505 37.94l-9.419-6.301c.531-2.388.531-4.577-.265-6.168-.995-2.123-2.454-4.179-7.495-7.761L69.08 275.39l12.47-17.71M258.181 185.648l31.174 30.909-23.944 5.306-15.587-17.776-9.286 22.95-20.23 4.576 16.449-40.129-24.674-26 23.613-4.51 10.546 13.597 6.699-17.444 19.302-3.781-14.062 32.302M360.787 656.317l13.995 20.561-4.71 1.326-3.913-5.837-7.761 2.123-1.126 6.832-3.649.928 3.649-25.005zm3.847 13.464-5.041-7.893h-.067l-.53 9.419 5.638-1.526M510.489 528.303l24.807.663-1.725 4.511-6.964-.266-2.786 7.562 4.842 4.908-1.392 3.449-18.108-17.378zm13.133 4.709-9.353-.597v.067l7.297 5.903 2.056-5.373M412.589 662.286l-4.378 1.592-6.301-16.052h-.066c.066 0-1.128 19.368-1.128 19.368l-2.056.796c-4.975-4.378-11.541-11.143-13.531-13.664l-.067.067 6.103 16.515-3.383 1.327-8.357-21.822 5.306-1.99 13.333 13.465 1.193-19.5 4.775-1.858 8.557 21.756M546.571 494.741l-1.392 4.51-16.516-5.239v.065c0-.065 14.394 13.134 14.394 13.134l-.73 2.056c-6.501 1.128-15.852 1.924-19.102 1.924v.132l16.713 5.704-1.126 3.383-22.154-7.23 1.79-5.306 18.838-1.99-14.593-13.266 1.659-4.775 22.219 6.898M426.12 633.168c-1.327-.266-2.52.066-3.781.73-1.658.995-2.321 2.122-1.459 3.647.862 1.526 2.123 1.658 5.77 1.99 3.98.464 7.296 1.658 8.756 4.179 1.857 3.316-.664 7.761-3.847 9.551-1.99 1.194-4.709 1.857-6.964 1.194l.132-2.653c1.658.133 2.985.133 4.909-.995 1.79-.928 2.851-2.653 1.723-4.643-1.459-2.587-5.438-2.454-7.759-2.72-2.454-.331-5.041-.397-6.7-3.25-1.591-2.851.2-6.832 3.383-8.622 1.526-.862 5.041-1.658 5.97-1.26l-.133 2.852M453.647 637.744l-11.94-16.316-6.036 4.51-1.857-2.653 15.654-11.409 1.79 2.653-6.035 4.445 12.005 16.183-3.581 2.587M468.238 598.677l-5.637 5.24 4.509 4.908 5.506-5.107 2.056 2.189-5.638 5.107 5.373 5.705 6.633-6.169 2.056 2.122-9.949 9.353-16.184-17.179 9.087-8.424 2.188 2.255M475.601 586.805l4.642-5.97c3.118-3.715 7.297-4.775 10.082-2.123 2.256 2.123 2.919 4.908 2.653 7.098l10.878 2.321-2.254 4.245-10.812-2.587-1.658 2.255 7.495 6.036-2.985 3.649zm11.143 3.316 1.127-1.46c2.256-2.652 1.128-4.576-.397-5.837-2.19-1.856-3.914-.927-4.842.332l-1.791 2.189 5.903 4.776M496.428 557.687c5.438-9.22 11.275-8.424 16.25-5.638 6.301 3.647 8.159 10.214 3.449 18.107l-3.581 6.036-19.965-12.005zm15.786 12.867 1.128-1.989c3.051-5.108 1.923-9.087-3.317-12.272-4.577-2.652-7.96-2.321-11.143 2.919l-1.526 2.521 14.858 8.821M382.542 473.516c-25.006-30.777-132.32-116.543-176.428-128.482-10.414-2.852-21.557-4.842-25.404 2.056-4.245 7.562 5.704 18.705 12.072 24.807 1.857 1.658 4.709 1.658 6.5-.133 1.857-1.923 1.724-4.842-.133-6.633-4.842-4.642-9.352-10.612-10.082-13.265 1.393-.199 5.24-.464 14.593 2.122 41.786 11.276 147.907 96.048 171.652 125.365 4.246 5.173 3.715 7.229 3.715 7.428-.465 1.327-4.378 2.521-5.903 2.853-.598.199-1.128.331-1.658.464-1.194.398-7.562 2.387-10.481 8.092-1.259 2.388-2.321 6.434-.132 11.806 1.791 4.511.995 6.832.464 7.429-2.852 1.592-3.913 1.393-5.704 1.061-3.913-.663-7.76-.729-15.388 4.312-1.659.995-4.046 1.525-4.709 1.127 0-.066-2.455-2.255.53-14.858 3.184-14.127 4.245-18.77-5.505-21.423-2.587-.73-6.234-1.725-11.475-4.975-.332-.663-1.791-4.51.929-15.919.53-2.52-.995-5.041-3.449-5.638-2.521-.596-5.041.996-5.638 3.516-4.511 19.235.531 24.541 3.25 26.001 6.367 3.847 11.143 5.173 13.995 5.969.332 0 .597.133.929.133-.266 1.99-1.128 5.969-2.123 10.347-1.923 8.092-3.581 19.367 3.185 24.342 6.035 4.444 14.061-.198 14.923-.663l.066-.199h.133c5.306-3.515 6.832-3.317 8.888-2.918 3.184.53 6.5.796 11.939-2.189 3.582-1.99 7.495-8.623 3.316-18.904-.995-2.652-.331-3.847-.199-4.112.929-1.923 3.848-3.118 4.71-3.317h.198l.266-.198c.199 0 .796-.199 1.194-.332 3.317-.929 10.28-2.786 12.271-8.954 1.459-4.644-.266-9.883-5.307-16.118M217.986 340.325c.929-.199 23.016-4.245 63.211-29.781 39.196-24.873 72.426-42.119 113.218-18.373 2.255 1.194 5.107.464 6.367-1.725 1.327-2.255.532-5.107-1.658-6.234-45.302-26.399-82.445-7.164-122.901 18.571-38.338 24.343-59.63 28.323-59.828 28.323-2.521.463-4.246 2.852-3.781 5.372.398 2.587 2.785 4.245 5.372 3.847" style="fill:#000" transform="matrix(1.30913 0 0 1.30913 -13.675 -177.565)"/><path d="M475.401 311.273c-8.555-25.868-26.531-43.644-51.934-51.404l-5.97-1.924v49.481l2.189 1.327c.199.132 21.955 13.73 22.22 30.975 0 2.653 2.122 4.643 4.709 4.643 2.587 0 4.577-2.189 4.577-4.643-.332-18.837-18.042-32.899-24.475-37.475v-31.307c47.955 18.837 45.037 74.088 44.838 76.476v.597c.663 12.47-4.312 62.216-39.996 78.997-23.48 11.214-43.91 13.336-60.757 6.57-21.291-8.759-31.837-29.719-36.082-41.459-7.495-19.832-17.179-31.24-29.052-33.894-14.058-3.25-25.134 7.363-25.599 7.827a4.768 4.768 0 0 0 0 6.633c1.791 1.791 4.71 1.857 6.501 0 .066 0 7.959-7.495 17.108-5.439 8.424 1.99 16.118 11.674 22.287 28.189 4.842 13.067 16.714 36.684 41.455 46.633 19.234 7.827 42.251 5.572 68.118-6.633 39.4-18.774 46.032-70.51 45.303-87.557.133-2.255.729-18.373-5.44-36.613M200.277 393.122c1.327-2.321.597-5.174-1.592-6.5-2.189-1.128-5.041-.464-6.368 1.791-20.296 34.424-20.23 40.128-19.102 42.653a8.179 8.179 0 0 0 1.127 1.857c1.659 1.99 5.241 4.311 18.373 5.373 2.587.265 4.776-1.725 4.975-4.179.199-2.587-1.725-4.842-4.245-5.041-6.301-.468-9.419-1.331-11.01-1.795 1.857-5.571 10.214-21.225 17.842-34.159" style="fill:#000" transform="matrix(1.30913 0 0 1.30913 -13.675 -177.565)"/><path d="M231.981 385.826c-2.52-2.52-6.367-3.648-12.137-3.582l-5.837-.066c.928-1.658 2.852-4.378 6.168-8.225 1.658-1.923 1.393-4.842-.464-6.566-1.99-1.592-4.908-1.459-6.566.531-10.016 11.607-9.618 15.388-9.485 17.112.265 1.592 1.061 3.118 2.387 4.113 3.715 2.785 10.944 2.653 14.128 2.387 4.311-.066 5.24.796 5.306.929.266.265.2 2.321.133 3.316v1.327c.067 1.194-.133 2.587-.464 3.184-.332 0-1.194-.199-2.653-1.062-3.449-1.857-7.164-2.454-9.817-1.459-1.592.597-2.785 1.725-3.316 3.184-.796 1.99-1.062 4.112-1.194 5.572-.066.464-.066.862-.066 1.193-.465 2.653-1.725 16.98-1.924 19.235-.464 2.99-1.459 11.944 2.454 16.719.73 1.062 1.261 1.725 1.526 2.19-4.643.198-10.745-.863-13.863-1.394-.995-.198-1.658-.265-2.189-.331-2.587-.266-4.908 1.525-5.173 4.046-.199 2.653 1.591 4.974 4.112 5.174.265.065 1.061.131 1.857.264 3.847.663 11.143 1.791 16.715 1.526 3.648-.199 6.567-1.99 7.76-4.842 2.388-5.108-2.056-10.612-3.515-12.403-.929-.996-1.128-5.771-.465-9.622v-.332c.598-6.632 1.526-17.046 1.791-18.903.133-.531.133-.995.2-1.459.066-.199.066-.398.066-.531.132.066.398.133.597.332 4.775 2.653 8.821 2.852 12.071.862 4.842-3.117 4.909-9.684 4.776-11.475v-.663c.133-2.985.199-7.097-2.919-10.281M324.97 545.151c-.332-2.521-2.72-4.246-5.241-3.782-11.142 1.658-22.02 5.506-30.108 8.823 9.481-18.97 14.787-39.797 15.052-40.859.598-2.454-.863-4.908-3.317-5.571-2.586-.663-5.036.796-5.699 3.316-.067.265-7.96 31.373-21.225 50.542-1.261 1.858-1.062 4.113.331 5.704 1.46 1.592 3.715 2.122 5.638 1.062.133-.133 20.558-10.679 40.721-13.93 2.521-.397 4.312-2.785 3.848-5.305M402.905 513.18c-1.061-.067-10.215-.331-16.781 5.572-3.648 3.383-5.638 7.959-5.903 13.663-.464 11.807 6.235 18.174 19.765 18.903h.929c5.903.465 19.103-3.581 22.22-18.903.465-2.587-1.194-4.974-3.648-5.438-2.52-.532-4.974 1.127-5.439 3.581-2.056 10.148-10.812 11.674-12.47 11.542-.264 0-.663 0-1.06-.067-7.496-.332-11.343-1.99-11.011-9.286.133-3.117 1.061-5.506 2.851-7.097 3.782-3.515 10.016-3.184 10.082-3.184h-.066c2.587.066 4.776-1.923 4.908-4.51.133-2.454-1.856-4.71-4.377-4.776M223.558 600.866c.066 0 5.903 2.388 11.806 5.704 3.715 2.123 6.235 4.909 9.95 14.393 1.459 3.516 3.117 8.623 3.714 16.118.199 2.653 2.454 4.444 4.974 4.245 2.587-.265 4.511-2.454 4.312-5.041-.796-8.756-2.852-14.924-4.378-18.638-4.112-10.613-7.827-15.587-13.929-19.037-6.566-3.846-12.867-6.234-13.133-6.367-2.388-.928-5.041.399-5.969 2.654-.929 2.454.265 5.173 2.653 5.969M247.967 553.043c-1.725-1.923-4.643-1.923-6.567-.198-1.857 1.723-1.99 4.642-.199 6.633 2.189 2.188 3.449 3.846 4.245 5.04-1.194-.199-2.653-.398-3.847-.796l-71.501-24.011c-18.373-6.301-39.399-3.647-40.262-3.448-2.52.198-4.311 2.652-3.98 5.106.266 2.454 2.654 4.312 5.174 3.981.199 0 19.832-2.454 36.083 3.117l71.701 24.077s.066 0 .132.066c4.51 1.327 12.669 2.852 15.852-2.387 3.25-5.174-1.592-11.608-6.831-17.18" style="fill:#000" transform="matrix(1.30913 0 0 1.30913 -13.675 -177.565)"/><path d="M484.091 535.002c-.597-.266-13.929-5.372-34.292-8.025-7.429-1.128-12.934.464-16.317 4.443-5.041 5.97-2.387 14.792-2.056 15.72.133.265 1.526 4.378 8.424 25.735 2.056 6.501 1.194 8.756.729 9.286-.929.597-3.514.067-4.377-.53-.796-.531-1.724-1.327-3.052-2.255-2.718-1.99-6.897-5.24-10.878-9.485-4.908-5.24-9.683-7.23-14.127-5.97-6.699 1.99-8.556 10.414-8.822 12.139 0 0-1.724 7.362-5.837 22.683-1.924 6.766-3.515 10.745-4.576 10.945-1.46-.332-1.46-2.189-1.592-3.649-.133-4.244-.465-26.862-.862-32.633-.266-3.515-1.658-15.056-9.552-17.51-7.959-2.587-15.123 6.367-17.444 9.352-30.843 38.47-39.731 77.272-39.996 78.996-.597 2.388.929 4.908 3.449 5.573 2.521.53 4.975-1.062 5.572-3.583 0-.398 8.888-38.337 38.205-75.215 5.173-6.435 7.428-6.368 7.428-6.368.929.398 2.786 4.112 3.118 9.418.398 5.97.73 32.103.796 33.628l.199 1.128c.464 3.913 3.98 12.138 10.613 12.138 5.704 0 9.75-5.969 13.53-19.898l5.307-19.7c.464-1.724 1.128-4.642 1.128-5.173.596-1.659 1.724-2.786 2.188-2.985 0 0 1.326-.398 4.576 2.985 4.445 4.776 9.022 8.291 12.006 10.613 1.062.729 2.057 1.459 2.454 1.856 2.853 2.654 10.348 4.511 15.454 1.327 3.649-2.387 7.164-7.694 3.185-19.898-6.435-20.031-8.226-25.006-8.49-25.868-.465-1.526-.929-5.174.397-6.832 1.194-1.326 3.981-1.791 8.026-1.326 19.037 2.653 31.904 7.495 32.103 7.561 2.388.994 5.107-.266 6.036-2.587.929-2.52-.266-5.174-2.653-6.036M297.381 462.108c-.398-1.991-.928-3.914-.73-4.975 1.19-11.74-.53-15.454-5.107-19.435a4.633 4.633 0 0 0-1.061-.927l-.332-.399c-1.591-1.525-3.183-3.117-3.581-3.714 0-.265.066-.73.398-1.857 1.326-4.847 4.377-10.484 4.377-10.55l1.924-3.582-3.25-2.322-34.624-25.868 1.592 11.011c.133.796 2.654 19.434 4.312 28.388 0 .066-.067.266-.133.266-3.847 2.458-6.5 7.432-8.622 11.412-.598 1.194-1.394 2.653-1.924 3.316-4.311 1.261-17.378 4.908-18.041 5.041-2.388.663-3.848 3.25-3.118 5.704.663 2.521 3.184 3.914 5.638 3.184 5.704-1.459 16.98-4.643 18.837-5.173 3.051-.796 4.643-3.715 6.766-7.761 1.326-2.653 3.714-6.965 5.439-7.959 2.52-1.327 5.041-5.638 4.311-9.091-.73-4.378-1.791-11.475-2.72-17.644l13.664 10.215c-1.127 2.388-2.521 5.704-3.383 8.888-2.056 7.367.266 9.622 5.705 14.729l.331.398c.531.464.995.863 1.393 1.327 2.056 1.724 2.918 2.454 1.924 11.408-.332 2.653.398 5.306.994 8.092 1.327 5.705 1.991 9.286-1.79 13.2-9.551 9.75-13.465 25.005-13.598 25.669-.862 3.581-2.984 8.092-4.576 8.755-2.918 1.326-5.24 1.658-8.357 2.122-5.241 1.061-11.741 2.189-24.343 7.694-1.526.663-2.653 1.459-3.515 1.99-1.327.796-1.327.796-3.184.133-2.455-.796-6.036-1.46-9.817-2.322-2.785-.663-6.964-1.526-9.285-2.189-.73-8.091-1.593-11.077-5.506-13-.133-.066-.265-.066-.331-.132l-.266-.133c-3.316-1.991-12.271-7.097-13.597-14.858-.73-5.174 1.658-11.01 7.296-17.245 1.194-1.061 3.383-3.449 3.117-6.633 0 0-.066-.199-.066-.398 3.383.465 6.832.796 6.832.796 2.521.265 4.709-1.592 5.041-4.179.199-2.587-1.658-4.842-4.179-5.041l-13.862-1.326c-2.786-.399-5.373 1.326-6.235 4.179-.663 2.454.066 5.107 1.791 7.096-7.097 8.291-10.149 16.384-8.888 24.144 2.056 12.27 13.796 18.97 18.173 21.424l.2.199c.198.066.397.199.464.266.265.862.597 2.984.995 7.892.464 4.776 5.372 5.837 16.449 8.225 3.317.664 6.832 1.327 8.689 1.99 5.505 1.99 8.158.663 11.143-1.128.73-.397 1.393-.862 2.322-1.26 11.541-5.041 17.377-6.102 22.22-6.965 3.25-.596 6.367-1.06 10.347-2.785 6.898-2.919 9.485-13.199 9.949-15.189 0-.067 3.449-13.399 11.143-21.225 7.557-7.827 5.567-16.317 4.245-21.888zm-36.082-33.964zm0-.2c.132 0 .265-.066.464-.199-.133 0-.265.199-.464.199" style="fill:#000" transform="matrix(1.30913 0 0 1.30913 -13.675 -177.565)"/></svg>