<svg xmlns="http://www.w3.org/2000/svg" xml:space="preserve" width="422.55026" height="657.39996" viewBox="0 0 422.55024 657.39996"><defs><clipPath id="a" clipPathUnits="userSpaceOnUse"><path d="M0 600h800V0H0Z"/></clipPath></defs><g clip-path="url(#a)" transform="matrix(2.02714 0 0 -2.02714 -599.58 936.84)"><path d="M0 0v-264.812l1.486-2.087.034-.044-.001-.002c.844-1.156 10.782-14.78 27.934-28.555 17.675-14.171 43.341-28.767 74.77-28.8 31.43.033 57.096 14.629 74.772 28.8 17.15 13.775 27.088 27.399 27.932 28.555v.002l.033.044 1.487 2.087V0Z" style="fill:#fff;fill-opacity:1;fill-rule:nonzero;stroke:none" transform="translate(295.777 462.15)"/><path d="M0 0h-98.95v-194.226l.48-.673c.092-.123 9.855-13.823 27-27.586 17.136-13.744 41.741-27.627 71.47-27.639 29.728.012 54.334 13.895 71.469 27.639 17.144 13.763 26.908 27.463 27.001 27.586l.479.673V0Z" style="fill:#000;fill-opacity:1;fill-rule:nonzero;stroke:none" transform="translate(400.003 393.249)"/><path d="M0 0s4.171-18.471 5.481-32.691l6.374.976S8.583-6.704 6.785 1.308c0 0 9.155-12.751 14.55-31.222l6.865 1.961S25.259-3.76 8.583 23.215c0 0-1.346 1.552-.121 2.777 1.228 1.225 4.17 5.149 1.962 7.848-.983 1.224-3.066 2.332-2.698 3.8.031.128.066.238.101.34A42.587 42.587 0 0 0 0 37.246Z" style="fill:#f2e504;fill-opacity:1;fill-rule:nonzero;stroke:none" transform="translate(400.003 207.744)"/><path d="M0 0c.246 5.273-.245 8.95-.245 8.95l-25.746-1.103 18.759 7.356s6.25 1.349 4.901 10.545c-.734 2.328-2.084 5.023-2.084 5.023l-25.99-6.618 16.062 13.363s4.533 2.943 2.329 8.092c-2.208 5.15-4.537 7.848-4.537 7.848L-63.02 23.172s-1.715-1.349-2.575 1.473c-.855 2.817-5.883 13.363 2.453 36.535.616 1.226 1.104 1.471 1.963 1.347.858-.121 9.564-.187 9.564-.187 2.326-.179 6.987-.055 11.402-3.489.612-.613 1.716-1.473 1.838.245.124 1.717-.858 13.239-1.513 16.592-.164.654-.64 2.687-3.76 3.677-3.597 1.145-8.91 1.145-8.91 1.145s-.979 0-2.123 1.144c-1.142 1.142-4.17 4.904-6.705 4.904h-26.236s-1.876-.082-.734-1.307c1.146-1.225 6.293-7.684 6.293-7.684s.9-.572.166-1.879c-.737-1.309-8.747-17.737-10.548-23.703V28.466c23.44-.001 42.444-19.002 42.444-42.444 0-14.761-7.539-27.757-18.974-35.36l7.429-26.311s.612-1.225-.734-1.344c-1.352-.124-5.765-.615-5.765-.615s-2.208-9.807-.612-12.996l4.779 3.924 4.17.369s.612-.124.857-1.104c.247-.98 2.084-12.63 2.33-13.364.245-.737 0-1.841-.734-2.698-.737-.858-5.152-5.517-5.152-5.517l12.875-.249s1.228.494 1.349 2.087c.121 1.595.738 12.139.738 12.139s.121 1.838 1.346.737c1.225-1.104 5.028-4.291 5.028-4.291s.734-.367.734-1.596c0-1.224.124-6.13.124-6.13l9.194 9.193-9.806 9.443s-.981 1.35.978 1.35c1.963 0 7.112.367 7.112.367l4.537-3.922s.612-.372.612 1.593c0 1.962-.122 8.827-.122 8.827s-.121.862-1.105.981c-.981.123-18.878 1.224-18.878 1.224s-1.352-.492-1.598 1.474c-.243 1.962-3.185 20.72-3.185 20.72s11.036-8.829 12.382-9.564c1.35-.737 4.658-5.024 9.932-.124 5.27 4.906 6.498 6.498 6.498 6.498l-17.655 17.039 17.655-7.35s4.658-2.824 8.091.979c3.432 3.803 6.007 9.441 6.007 9.441l-22.068 11.893 19.005-1.842s6.374-1.591 8.582 4.291c2.205 5.887 2.817 8.092 2.817 8.092l-27.094 6.256 23.295 3.432S-.245-5.272 0 0" style="fill:#f2e504;fill-opacity:1;fill-rule:nonzero;stroke:none" transform="translate(492.448 301.413)"/><path d="M0 0v-190.818s38.582-54.141 96.367-54.141v62.037s-4.171-18.471-5.481-32.692l-6.375.977s3.272 25.011 5.071 33.022c0 0-9.155-12.751-14.55-31.221l-6.865 1.961s2.941 24.193 19.616 51.167c0 0 1.347 1.552.122 2.778-1.228 1.224-4.17 5.148-1.962 7.847.983 1.225 3.065 2.333 2.699 3.8-.367 1.468-.98 1.101-1.471 1.225-.494.124-7.235 1.595-14.225 5.641l-7.478-26.486s-.613-1.224.734-1.344c1.352-.124 5.764-.615 5.764-.615s2.208-9.806.613-12.996l-4.779 3.924-4.17.369s-.612-.124-.859-1.103c-.245-.981-2.083-12.631-2.328-13.365-.245-.737 0-1.841.734-2.698.737-.858 5.152-5.517 5.152-5.517l-12.876-.249s-1.227.495-1.349 2.087c-.121 1.595-.737 12.139-.737 12.139s-.121 1.838-1.346.737c-1.226-1.104-5.028-4.291-5.028-4.291s-.734-.367-.734-1.595c0-1.225-.125-6.131-.125-6.131l-9.194 9.193 9.807 9.443s.98 1.35-.979 1.35c-1.962 0-7.112.367-7.112.367l-4.536-3.922s-.612-.372-.612 1.593c0 1.962.121 8.827.121 8.827s.121.862 1.106.981c.98.123 18.878 1.224 18.878 1.224s1.352-.492 1.597 1.474c.243 1.962 3.185 20.72 3.185 20.72s-11.035-8.829-12.381-9.564c-1.35-.737-4.659-5.024-9.932-.124-5.27 4.906-6.498 6.498-6.498 6.498l17.654 17.039-17.654-7.35s-4.658-2.823-8.091.979c-3.433 3.803-6.007 9.441-6.007 9.441l22.067 11.893-19.005-1.842s-6.374-1.591-8.581 4.291c-2.205 5.887-2.818 8.092-2.818 8.092l27.095 6.256L8.949-95.26s-4.782.734-5.028 6.006c-.245 5.273.246 8.95.246 8.95l25.745-1.103-18.758 7.356s-6.25 1.349-4.901 10.545c.734 2.328 2.083 5.024 2.083 5.024l25.992-6.619-16.063 13.363s-4.534 2.943-2.329 8.092c2.208 5.15 4.537 7.848 4.537 7.848l46.468-30.284s1.717-1.349 2.575 1.473c.856 2.817 5.883 13.363-2.453 36.535-.615 1.226-1.104 1.471-1.962 1.347-.858-.121-9.564-.187-9.564-.187-2.327-.179-6.987-.055-11.403-3.489-.612-.613-1.716-1.472-1.837.245-.125 1.717.858 13.24 1.513 16.592.164.654.641 2.687 3.76 3.677 3.597 1.145 8.909 1.145 8.909 1.145s.98 0 2.123 1.144c1.144 1.142 4.169 4.904 6.705 4.904h26.237s1.876-.082.733-1.307c-1.146-1.225-6.292-7.684-6.292-7.684s-.901-.572-.166-1.879c.737-1.309 8.747-17.737 10.548-23.703V0Z" style="fill:#f2e504;fill-opacity:1;fill-rule:nonzero;stroke:none" transform="translate(303.636 390.666)"/><path d="M0 0s.409 8.215 1.759 12.873c0 0 6.99 3.639 14.956 1.962 7.221-1.518 11.523-9.93 5.764-11.892-1.473-.491-3.312-.858-5.64-.736-2.332.124-9.197.612-15.326-2.698C.982-.818.084-1.879 0 0m5.64 3.269c4.74 1.064 10.053.819 12.752 1.064 2.695.243 3.514 1.388 2.859 2.37-4.576 3.186-16.43-2.615-16.43-2.615-.894-.573-.694-1.156.819-.819" style="fill:#f2e504;fill-opacity:1;fill-rule:nonzero;stroke:none" transform="translate(348.098 364.431)"/><path d="M0 0s3.842-3.923 6.62-.898c.901 1.143 1.716 2.205-.325 2.29C4.251 1.472-2.617 1.96 0 0" style="fill:#f2e504;fill-opacity:1;fill-rule:nonzero;stroke:none" transform="translate(370.984 381.023)"/><path d="M0 0s1.556-4.33-1.962-7.111c0 0 5.316-.819 5.477 2.781C3.6-2.371 2.535-.899 0 0" style="fill:#f2e504;fill-opacity:1;fill-rule:nonzero;stroke:none" transform="translate(376.133 373.095)"/><path d="M0 0s-.41 8.215-1.76 12.873c0 0-6.989 3.639-14.955 1.962-7.221-1.518-11.523-9.93-5.764-11.892 1.473-.491 3.311-.858 5.639-.736 2.332.124 9.197.612 15.326-2.698C-.982-.818-.085-1.879 0 0m-5.641 3.269c-4.74 1.064-10.052.819-12.752 1.064-2.695.243-3.513 1.388-2.859 2.37 4.576 3.186 16.43-2.615 16.43-2.615.894-.573.695-1.156-.819-.819" style="fill:#000;fill-opacity:1;fill-rule:nonzero;stroke:none" transform="translate(451.908 364.431)"/><path d="M0 0s-3.842-3.923-6.619-.898c-.901 1.143-1.717 2.205.324 2.29C-4.251 1.472 2.617 1.96 0 0" style="fill:#000;fill-opacity:1;fill-rule:nonzero;stroke:none" transform="translate(429.022 381.023)"/><path d="M0 0s-1.556-4.33 1.962-7.111c0 0-5.316-.819-5.478 2.781C-3.6-2.371-2.535-.899 0 0" style="fill:#000;fill-opacity:1;fill-rule:nonzero;stroke:none" transform="translate(423.873 373.095)"/><path d="M0 0s7.689 3.762 16.095 3.374c0 0-5.543-1.002-8.16-2.393C5.318-.407 3.836-1.879 0 0" style="fill:#fff;fill-opacity:1;fill-rule:nonzero;stroke:none" transform="translate(383.697 324.302)"/><path d="M0 0a40.178 40.178 0 0 0 12.875 13.438s1.215.447 2.521.447c1.311 0 6.293.33 8.992-2.37.409-1.062 1.88-3.677.245-5.394-1.634-1.715-6.21-7.519-9.152-11.607-.491-.736-.739-1.716-2.617-2.044-2.529-.44-6.622-1.719-7.277-1.799-.652-.079-1.795-.816-2.611 1.063C2.157-6.386 0 0 0 0" style="fill:#fff;fill-opacity:1;fill-rule:nonzero;stroke:none" transform="translate(365.282 307.881)"/><path d="M0 0a40 40 0 0 0-1.324 10.242c0 5.971 1.31 11.635 3.656 16.721 0 0 2.317-6.047 3.054-7.437.325-.817.652-1.225.161-2.45-.488-1.224-1.959-8.422-1.798-12.67L0 0" style="fill:#fff;fill-opacity:1;fill-rule:nonzero;stroke:none" transform="translate(361.155 277.473)"/><path d="M0 0c-6.93 3.201-11.868 11.096-14.787 18.752l3.035 5.133s.57.734 1.798-.248c1.228-.978 2.699-2.531 7.848-3.677.898-.163 1.847-1.265 2.205-2.777C1.161 12.682 5.248 6.229 5.821 5.655c.57-.573.816-1.798.164-2.696C5.33 2.061 3.438-1.589 0 0" style="fill:#fff;fill-opacity:1;fill-rule:nonzero;stroke:none" transform="translate(377.229 254.725)"/><path d="M0 0a39.8 39.8 0 0 0-16.085-3.371S-12.782.471 0 0" style="fill:#fff;fill-opacity:1;fill-rule:nonzero;stroke:none" transform="translate(415.877 251.123)"/><path d="M0 0a39.752 39.752 0 0 0 2.58-3.617s2.022-2.651.553-7.065c-1.474-4.413-7.357-9.32-7.357-9.32s-.654-.489-1.552.246c-.904.74-5.149 2.941-8.339 3.595 0 0-3.185 9.157-6.616 15.208 0 0-.905 4.33 3.589 6.048 0 0 11.964-1.851 17.142-5.095" style="fill:#fff;fill-opacity:1;fill-rule:nonzero;stroke:none" transform="translate(431.003 312.668)"/><path d="M0 0a39.824 39.824 0 0 0 21.527-10.45S11.139-8.583 8.361-6.13C5.577-3.677 4.556-1.387 0 0" style="fill:#fff;fill-opacity:1;fill-rule:nonzero;stroke:none" transform="translate(405.67 327.245)"/><path d="M0 0s4.658 7.928 8.175 8.253c3.512.324 15.036-.901 17.736-2.454 0 0 4.33-6.208 4.737-11.932 0 0-2.45-6.213-8.17-10.544 0 0-4.579-3.927-13.981.083C7.026-15.942 0-9.322 0 0" style="fill:#fff;fill-opacity:1;fill-rule:nonzero;stroke:none" transform="translate(379.945 276.322)"/><path d="M0 0s-2.287-6.538-6.781-10.135c-4.5-3.596-.412-5.229 1.06-5.395 1.469-.166 8.092-.16 14.629 2.205 6.538 2.371 8.746 9.974 8.34 11.203-.412 1.225-3.19 5.804-5.398 6.701 0 0-9.97-3.105-10.293-3.271C1.23 1.146.326.737 0 0" style="fill:#fff;fill-opacity:1;fill-rule:nonzero;stroke:none" transform="translate(412.8 269.044)"/><path d="M0 0s-.484-9.153-.896-11.112c-.407-1.966-.493-3.355.654-4.99 1.146-1.634 4.827-7.834 6.951-4.773a39.77 39.77 0 0 1 4.465 18.377 39.85 39.85 0 0 1-.994 8.906S8.831 9.73 6.623 7.523C4.416 5.315 0 0 0 0" style="fill:#fff;fill-opacity:1;fill-rule:nonzero;stroke:none" transform="translate(428.574 290.213)"/><path d="M0 0s3.679 4.659 8.338 4.168c4.658-.488 9.073-.899 10.626-3.842 1.553-2.943 5.069-10.544 5.476-13.079 0-.816.164-1.717-1.062-3.187-1.231-1.468-3.596-4.58-4.33-5.641-.739-1.062-1.473-2.126-5.234-1.959-3.76.163-10.624 1.143-13.647 1.553-3.026.406-3.682 2.777-4.088 3.922-.412 1.142-2.617 6.131-2.699 6.457-.079.326-.57 1.636.328 2.943C-5.392-7.358-2.614-3.024 0 0" style="fill:#fff;fill-opacity:1;fill-rule:nonzero;stroke:none" transform="translate(389.179 309.507)"/><path d="M301.053 456.874h197.899v-59.502H301.053Z" style="fill:#000;fill-opacity:1;fill-rule:nonzero;stroke:none"/><path d="M0 0h-10.398l5.777-49.628H7.593L15.682.066H5.777L2.545-28.703Z" style="fill:#fff;fill-opacity:1;fill-rule:nonzero;stroke:none" transform="translate(327.791 452.067)"/><path d="M345.825 452.133h10.771v-50.022h-10.771z" style="fill:#fff;fill-opacity:1;fill-rule:nonzero;stroke:none"/><path d="M0 0v9.566h-10.768v-14.53c0-5.945 5.136-5.539 5.136-5.539H8.853c6.681 0 6.002 5.354 6.002 5.354v15.327c0 5.088-2.914 6.314-3.033 6.375-.125.06-8.482 4.905-10.09 5.823-1.607.921-1.173 2.207-1.173 2.207v4.78s0 2.27 2.103 2.27c2.104 0 1.608-2.411 1.608-2.411V22.58h10.767v11.566s.258 5.373-4.885 5.373h-14.98s-5.57.45-5.57-6.6V22.191s-.313-4.168 2.788-6.005c2.69-1.603 10.146-6.132 10.146-6.132s1.796-.92 1.796-3.616v-6.62s.308-2.209-2.166-2.209C.867-2.391.062-1.594 0 0" style="fill:#fff;fill-opacity:1;fill-rule:nonzero;stroke:none" transform="translate(416.508 412.614)"/><path d="M0 0v9.566h-10.762v-14.53c0-5.945 5.137-5.539 5.137-5.539H8.854c6.686 0 6.007 5.354 6.007 5.354v15.327c0 5.088-2.913 6.314-3.033 6.375-.125.06-8.482 4.905-10.089 5.823-1.613.921-1.18 2.207-1.18 2.207v4.78s0 2.27 2.103 2.27c2.11 0 1.613-2.411 1.613-2.411V22.58h10.769v11.566s.257 5.373-4.886 5.373h-14.98s-5.57.45-5.57-6.6V22.191s-.313-4.168 2.783-6.005c2.696-1.603 10.152-6.132 10.152-6.132s1.795-.92 1.795-3.616v-6.62s.308-2.209-2.166-2.209C.873-2.391.068-1.594 0 0" style="fill:#fff;fill-opacity:1;fill-rule:nonzero;stroke:none" transform="translate(445.717 412.614)"/><path d="M0 0h-22.033v-7.886h5.259v-42.136h11.142v42.136H0Z" style="fill:#fff;fill-opacity:1;fill-rule:nonzero;stroke:none" transform="translate(381.97 452.133)"/><path d="M0 0v7.886h-18.009v-50.022h11.142v.061H0v7.889h-6.867v15.182H0v7.886h-6.867V0Z" style="fill:#fff;fill-opacity:1;fill-rule:nonzero;stroke:none" transform="translate(402.393 444.247)"/><path d="M0 0v7.886h-18.014v-50.022h11.145v.061H0v7.889h-6.869v15.182H0v7.886h-6.869V0Z" style="fill:#fff;fill-opacity:1;fill-rule:nonzero;stroke:none" transform="translate(482.611 444.247)"/></g></svg>