<svg xmlns="http://www.w3.org/2000/svg" width="205.77032pt" height="220.47627pt" viewBox="0 0 205.77032 220.47627"><path d="m182.753 36.567-27.8-27.8-.903.664c-12.133 8.941-38.984 13.105-53.312 13.105-14.329 0-41.176-4.164-53.31-13.105l-.901-.664-27.801 27.8.922.922c12.254 12.258 22.785 32.356 7.933 88.461-2.933 11.078-1.75 20.946 3.422 28.535 5.844 8.578 16.703 14.012 31.41 15.723 27.48 3.195 34.43 8.848 37.266 12.82l1.059 1.489 1.062-1.485c2.836-3.976 9.785-9.629 37.27-12.824 14.703-1.71 25.562-7.145 31.402-15.719 5.176-7.593 6.36-17.46 3.426-28.539-14.852-56.11-4.325-76.203 7.933-88.46l.922-.923" style="fill:#fff;fill-opacity:1;fill-rule:evenodd;stroke:none" transform="matrix(1.25449 0 0 1.25449 -23.491 -10.998)"/><path d="m180.91 36.567-26.087-26.086c-12.09 8.907-38.812 13.36-54.085 13.36-15.27 0-41.993-4.453-54.083-13.36l-26.09 26.086c12.727 12.727 23.2 33.325 8.274 89.72-5.726 21.632 4.406 39.218 33.723 42.628 27.36 3.18 34.996 8.902 38.176 13.36 3.183-4.458 10.82-10.18 38.18-13.36 29.316-3.41 39.448-20.996 33.718-42.629-14.926-56.394-4.453-76.992 8.273-89.719" style="fill:#00509f;fill-opacity:1;fill-rule:evenodd;stroke:none" transform="matrix(1.25449 0 0 1.25449 -23.491 -10.998)"/><path d="M166.929 112.778 144.6 99.668c8.133-3.108 15.414-6.648 21.172-10.35a126.153 126.153 0 0 1-.278-3.985c.008.176.012.34.024.512-13.746 9.336-38.914 18.586-64.782 21.375-32.367 3.492-63.632 17.093-72.789 28.332l1.797 1.117 61.149 35.902c4.43 1.75 7.285 3.617 9.254 5.43l.73.434c4.445-4.375 13.711-9.118 37.758-11.91.621-.075 1.23-.16 1.836-.247L60.96 119.591c11.832-4.242 25.828-7.836 40.102-9.375.332-.04.668-.078 1.004-.117l67.035 39.359c1.758-3.594 2.652-7.672 2.652-12.133 0-3.285-.48-6.777-1.445-10.426a293.688 293.688 0 0 1-3.38-14.12M58.007 84.231c-8.902 3.325-16.832 7.176-22.945 11.207a189.467 189.467 0 0 1-.856 5.942c.102-.629.203-1.262.297-1.879 13.367-9.676 39.426-19.508 66.235-22.398 29.082-3.133 57.289-14.438 69.359-24.852-.016.039-.031.078-.047.113a47.372 47.372 0 0 1 2.66-5.308l-2.133-1.168-39.73-23.328c-10.809 2.5-22.11 3.687-30.11 3.687-8.03 0-19.39-1.195-30.242-3.715l70.926 41.645c-11.723 4.52-25.832 8.238-40.457 9.87L28.843 31.7 23.945 36.6c7.054 7.582 13.23 18.027 14.41 36.09L58.007 84.23" style="fill:#fff;fill-opacity:1;fill-rule:evenodd;stroke:none" transform="matrix(1.25449 0 0 1.25449 -23.491 -10.998)"/><path d="M142.984 128.306c7.53 4.515 16.32.398 19.12-4.547 2.801-4.946-3.042-14.453-11.59-8.102 1.505-10.543-9.636-11.148-12.648-6.328-3.015 4.82-2.41 14.457 5.118 18.977M47.51 72.888c7.532 4.52 16.321.398 19.122-4.543 2.8-4.946-3.043-14.457-11.59-8.106 1.504-10.543-9.637-11.144-12.648-6.324-3.012 4.816-2.41 14.457 5.117 18.973M109.554 41.263c7.527 4.52 16.32.402 19.121-4.543 2.797-4.946-3.047-14.453-11.594-8.106.196-1.347.176-2.535 0-3.566-5.105.68-9.941 1.062-14.09 1.168-.925 5.02.747 11.558 6.563 15.047M166.902 54.751c-.23-8.418-9.985-8.613-12.774-4.148-1.836 2.933-2.316 7.66-.719 11.925 5.278-2.508 9.852-5.144 13.493-7.777M91.402 167.759c7.53 4.515 16.32.398 19.12-4.547 2.801-4.945-3.042-14.453-11.59-8.102 1.505-10.543-9.636-11.144-12.652-6.328-3.007 4.817-2.406 14.457 5.122 18.977M43.515 140.052c7.531 4.515 16.32.398 19.12-4.547 2.802-4.945-3.042-14.453-11.589-8.106.406-2.851-.117-4.972-1.152-6.457-5.04 2.297-9.489 4.72-13.184 7.16.133 4.372 2.133 9.145 6.805 11.95" style="fill:#e30614;fill-opacity:1;fill-rule:evenodd;stroke:none" transform="matrix(1.25449 0 0 1.25449 -23.491 -10.998)"/><path d="M41.386 113.7c.64-.004 1.793-.125 2.652-.558.73-.371.934-.93.711-1.371-.222-.438-.672-.598-1.695-.586-1.285 0-2.52-.313-3.082-1.43-.942-1.863.07-3.91 2.375-5.074 1.039-.524 1.973-.72 2.516-.692l.316 2.18c-.45.02-1.2.121-1.984.516-.696.351-1.004.875-.754 1.367.183.367.703.496 1.582.46 1.238-.003 2.632.216 3.257 1.458 1.032 2.05-.144 4.039-2.527 5.218-1.125.547-2.351.797-3.078.68l-.29-2.168M56.284 109.31c-.46.53-1.316 1.14-2.406 1.609-2.281.973-4.476.266-5.5-2.125-1.402-3.277.004-6.91 3.508-8.406.789-.34 1.531-.48 2.016-.489l.21 2.364c-.374.004-.792.07-1.34.304-1.917.82-2.421 2.977-1.679 4.707.547 1.282 1.633 1.579 2.629 1.149.789-.34 1.277-.77 1.664-1.16l.898 2.047M62.148 92.825l.687 5.422 4.75-1.55-.687-5.419 2.824-.922 1.781 13.938-2.805.914-.765-5.867-4.774 1.555.77 5.867-2.805.914-1.781-13.938 2.805-.914M75.605 96.95c-.028-.941.445-2.246 1.773-2.582.656-.168 1.14.07 1.258.547l.008.02c.227.894-.813 1.472-3.04 2.015l.25 2.156c3.915-.886 6.095-2.386 5.47-4.851-.457-1.805-2.149-2.563-4.114-2.063-3.515.891-4.879 4.512-4.129 7.47.641 2.542 2.47 3.745 5.25 3.042 1.07-.27 2.43-.828 3.415-1.687L81.026 99a6.276 6.276 0 0 1-2.566 1.305c-.832.21-1.554.117-2.054-.282-.27-.23-.48-.64-.551-.918l-.25-2.156M85.863 96.774c3.96-.652 6.222-2.023 5.746-4.515-.348-1.832-1.993-2.688-3.985-2.305-3.558.68-5.136 4.211-4.562 7.211.492 2.574 2.246 3.887 5.058 3.348 1.09-.207 2.477-.684 3.512-1.485l-.602-2.054c-.71.535-1.57.949-2.636 1.152-.844.164-1.559.027-2.035-.402-.258-.243-.442-.668-.496-.95l-.122-2.164c.028-.945.579-2.218 1.926-2.476.664-.125 1.13.14 1.223.62l.004.02c.172.907-.895 1.422-3.152 1.836l.12 2.164M93.386 99.321l.34-6.058c.062-1.54-.02-3.223-.031-4.09l2.515-.34c.051.68.078 1.355.094 2.078l.082-.012c.512-1.433 1.48-2.511 2.84-2.699.203-.023.386-.027.55-.05l-.183 2.937c-.125-.004-.29.02-.45.039-1.847.25-2.519 2.016-2.62 4.012l-.196 3.785-2.941.398M103.53 91.993c.079-.941.688-2.187 2.047-2.375.668-.094 1.125.192 1.192.68l.004.02c.125.913-.965 1.374-3.242 1.675l.015 2.168c3.992-.457 6.317-1.71 5.961-4.23-.258-1.844-1.855-2.778-3.863-2.496-3.59.503-5.34 3.953-4.918 6.976.367 2.598 2.05 3.992 4.89 3.598 1.094-.156 2.508-.563 3.579-1.309l-.496-2.082a6.336 6.336 0 0 1-2.692 1.02c-.851.117-1.558-.055-2.016-.504-.242-.258-.406-.692-.445-.973l-.015-2.168M111.784 96.892l-.148-6.875a60.307 60.307 0 0 0-.145-3.297l2.543-.532.16 1.66.044-.007c.652-1.457 1.753-2.297 3.039-2.567 1.601-.336 2.73.454 3.086 2.157.093.441.164 1.18.187 1.675l.113 5.922-2.886.606-.118-5.645a6.316 6.316 0 0 0-.128-1.105c-.149-.7-.489-1.133-1.231-.977-.941.2-1.773 1.61-1.742 3.864l.11 4.515-2.884.606M124.542 83.696l1.633 4.094c.43 1.16.73 1.86.988 2.555l.059-.016c.062-.762.156-1.578.36-2.91l.75-4.777 3.171-.891-2.668 11.144-2.902.81-4.313-9.192 2.922-.817M136.011 86.634c3.824-1.227 5.86-2.914 5.023-5.309-.617-1.762-2.363-2.363-4.277-1.695-3.426 1.195-4.465 4.922-3.46 7.805.866 2.472 2.788 3.511 5.5 2.566 1.042-.363 2.347-1.035 3.253-1.98l-.898-1.946a6.232 6.232 0 0 1-2.438 1.528c-.812.28-1.539.253-2.074-.102-.285-.203-.531-.598-.629-.867l-.438-2.121c-.109-.942.247-2.282 1.543-2.73.637-.223 1.137-.032 1.301.433l.008.02c.301.87-.68 1.538-2.851 2.277l.437 2.12M145.378 80.81c-.176-.926.082-2.29 1.344-2.832.621-.266 1.137-.11 1.328.34l.008.019c.367.848-.566 1.586-2.68 2.473l.59 2.09c3.727-1.497 5.637-3.325 4.63-5.657-.74-1.71-2.528-2.187-4.392-1.383-3.328 1.434-4.097 5.227-2.89 8.028 1.039 2.406 3.031 3.308 5.664 2.172 1.016-.438 2.27-1.204 3.11-2.211l-1.036-1.875a6.25 6.25 0 0 1-2.32 1.695c-.793.344-1.52.363-2.078.047-.301-.18-.575-.555-.688-.817l-.59-2.09M154.995 83.208l-2.195-6.516a55.902 55.902 0 0 0-1.125-3.101l2.273-1.27.645 1.535.035-.02c.192-1.585.992-2.714 2.137-3.355 1.43-.8 2.742-.382 3.594 1.137.218.39.507 1.074.675 1.543l1.88 5.617-2.575 1.442-1.8-5.356a6.313 6.313 0 0 0-.454-1.015c-.347-.625-.8-.934-1.465-.563-.84.469-1.21 2.067-.507 4.203l1.457 4.281-2.575 1.438" style="fill:#fff;fill-opacity:1;fill-rule:evenodd;stroke:none" transform="matrix(1.25449 0 0 1.25449 -23.491 -10.998)"/></svg>