<svg xmlns="http://www.w3.org/2000/svg" xml:space="preserve" width="1632" height="1981.1826" viewBox="0 0 1632 1981.1826"><defs><clipPath id="a" clipPathUnits="userSpaceOnUse"><path d="M0 2000h2000V0H0Z"/></clipPath></defs><g clip-path="url(#a)" transform="matrix(1.33333 0 0 -1.33333 -517.333 2323.924)"><path d="M0 0c0-41.642-6.591-83.044-19.984-122.506-42.12-124.101-169.914-367.36-548.594-550.136-17.725 8.557-34.918 17.246-51.554 26.069-35.901 18.974-69.331 38.479-100.423 58.33a1324 1324 0 0 0-46.132 30.853c-37.045 25.962-70.395 52.324-100.424 78.712-38.718 34.015-71.936 68.056-100.423 101.3-43.661 50.942-76.188 99.972-100.397 144.084-23.279 42.386-38.851 80.201-49.241 110.788-13.394 39.462-19.984 80.864-19.984 122.506v707.799H0Zm-1180.578 760.522V-1.355c0-44.804 7.095-89.369 21.525-131.861 16.104-47.434 43.82-111.026 91.122-182.138 26.707-40.18 59.712-82.752 100.397-126.2 29.284-31.278 62.582-62.981 100.423-94.551 30.454-25.405 63.831-50.729 100.424-75.629a1386 1386 0 0 1 46.132-30.082c31.304-19.585 64.734-38.825 100.423-57.559a1604 1604 0 0 1 51.554-25.99C-160.959-528.611-23.412-266.777 21.897-133.216 36.327-90.724 43.422-46.159 43.422-1.355v761.877z" style="fill:#ae242a;fill-opacity:1;fill-rule:nonzero;stroke:none" transform="translate(1568.578 982.421)"/><path d="M0 0c0-36.965-5.846-73.716-17.752-108.768-14.96-44.086-42.093-105.1-90.803-172.837-45.016-62.609-108.475-130.957-197.791-197.02-43.873 10.337-51.898 27.664-51.898 27.664 58.808 4.969 76.479 17.193 76.479 17.193l-54.317-2.711c-71.909-5.447-75.072 35.716-75.072 35.716 59.686-8.584 132.073-3.614 132.073-3.614l-99.971 17.645c-73.265 15.838-65.585 56.098-65.585 56.098 54.291-28.062 158.754-36.646 158.754-36.646l-89.555 27.132c-86.844 28.063-73.265 79.164-73.265 79.164 64.123-44.086 181.262-75.895 184.902-76.878l-125.19 66.913c-82.778 48.418-61.067 95.002-61.067 95.002 37.709-42.624 184.504-123.569 186.789-124.818l-141.56 117.59c-65.133 56.975-47.939 111.266-47.939 111.266 79.669-97.075 199.703-190.616 203.451-193.513L-402.118-87.747c-80.971 90.006-44.778 147.911-44.778 147.911 23.519-66.037 272.517-341.769 272.517-341.769h65.824v494.649h-208.978v415.379h241.797c39.516-22.03 102.31-81.29 38.426-221.335 0 0-1.355 112.647-129.601 113.311 0 0 68.507-10.178 84.106-46.797-2.152 1.09-104.887 53.892-126.014-.079-2.046-5.236-2.87-10.869-2.87-16.503V313.467H0Zm-556.354 213.044v-784.04c-36.3 19.425-69.677 39.435-100.423 59.818V628.423h303.05V527.999h-202.627V313.467h202.627V213.044ZM-702.91-478.864c-37.948 28.035-71.245 56.496-100.423 84.744v607.164h-100.423v-490.849c-47.01 66.223-73.424 125.775-88.093 169.037a332 332 0 0 0-12.304 47.621v689.57h301.243Zm-352.823 1163.278V-1.435c0-40.339 6.378-80.44 19.372-118.706 7.547-22.243 17.938-48.445 32.208-77.517 22.508-45.893 54.636-98.908 100.397-154.687 28.062-34.174 61.226-69.412 100.423-104.649 29.843-26.866 63.166-53.732 100.423-80.174a1242 1242 0 0 1 46.133-31.197c31.011-20.011 64.415-39.649 100.423-58.729a1478 1478 0 0 1 51.553-26.096C-137.866-476.074-14.031-240.362 26.76-120.141 39.755-81.875 46.132-41.774 46.132-1.435v685.849z" style="fill:#fff;fill-opacity:1;fill-rule:nonzero;stroke:none" transform="translate(1504.8 984.388)"/><path d="M0 0c0-40.339-6.378-80.439-19.373-118.706-40.791-120.221-164.626-355.933-531.56-533.049a1478 1478 0 0 0-51.554 26.096c-36.007 19.08-69.411 38.718-100.423 58.729a1241 1241 0 0 0-46.132 31.198c-37.257 26.441-70.581 53.307-100.424 80.173-39.196 35.238-72.361 70.475-100.423 104.649-45.76 55.779-77.888 108.794-100.397 154.687-14.27 29.072-24.66 55.274-32.207 77.517-12.995 38.267-19.373 78.367-19.373 118.706v685.849H0Zm-1119.511 707.268V-.531c0-41.642 6.59-83.044 19.984-122.507 10.39-30.586 25.963-68.401 49.241-110.787 24.209-44.113 56.736-93.142 100.397-144.084 28.488-33.244 61.705-67.286 100.423-101.3 30.029-26.388 63.38-52.75 100.424-78.713a1324 1324 0 0 1 46.132-30.852c31.092-19.851 64.522-39.356 100.423-58.33 16.636-8.823 33.829-17.513 51.554-26.069C-172.253-490.397-44.458-247.138-2.339-123.038 11.055-83.575 17.645-42.173 17.645-.531v707.799z" style="fill:#f89d16;fill-opacity:1;fill-rule:nonzero;stroke:none" transform="translate(1550.933 982.953)"/><path d="M0 0v-214.532h202.627v-100.423H0v-784.041c-36.3 19.426-69.677 39.436-100.423 59.819v1139.6h303.05V0Z" style="fill:#ae242a;fill-opacity:1;fill-rule:nonzero;stroke:none" transform="translate(948.446 1512.387)"/><path d="M701.467 1297.855H601.044v214.532h100.423z" style="fill:#fff;fill-opacity:1;fill-rule:nonzero;stroke:none"/><path d="M701.467 1297.855H601.044v214.532h100.423Zm-200.82 314.955V923.241a332.4 332.4 0 0 1 12.304-47.621c14.669-43.262 41.084-102.815 88.093-169.037v490.849h100.423V590.268c29.179-28.248 62.476-56.709 100.424-84.744V1612.81Z" style="fill:#ae242a;fill-opacity:1;fill-rule:nonzero;stroke:none"/><path d="M0 0s-59.34-6.643-54.743 47.94Z" style="fill:#fff;fill-opacity:1;fill-rule:nonzero;stroke:none" transform="translate(1460.023 1522.671)"/><path d="m0 0 54.743-47.94S-4.597-54.583 0 0m-112.169-272.756v143.553c0 5.634.824 11.267 2.87 16.502 21.127 53.972 123.862 1.17 126.014.08C1.116-76.002-67.391-65.824-67.391-65.824 60.855-66.488 62.21-179.136 62.21-179.136 126.094-39.09 63.299 20.17 23.784 42.199h-241.798v-415.378H-9.035v-494.649c48.71 67.737 75.842 128.751 90.803 172.837C93.673-659.94 99.52-623.188 99.52-586.223v313.467z" style="fill:#ae242a;fill-opacity:1;fill-rule:nonzero;stroke:none" transform="translate(1405.28 1570.611)"/><path d="M0 0c-45.017-62.608-108.475-130.957-197.791-197.02-43.873 10.337-51.899 27.664-51.899 27.664 58.808 4.969 76.48 17.193 76.48 17.193l-54.317-2.71c-71.909-5.448-75.072 35.715-75.072 35.715 59.686-8.583 132.073-3.614 132.073-3.614l-99.971 17.645c-73.265 15.838-65.585 56.098-65.585 56.098 54.291-28.062 158.754-36.646 158.754-36.646l-89.555 27.133c-86.844 28.062-73.265 79.164-73.265 79.164 64.123-44.087 181.262-75.896 184.902-76.879l-125.19 66.913c-82.778 48.418-61.067 95.002-61.067 95.002C-303.795 63.034-157-17.911-154.714-19.16l-141.56 117.59c-65.133 56.975-47.94 111.266-47.94 111.266C-264.545 112.621-144.51 19.08-140.763 16.184l-152.8 177.674c-80.972 90.006-44.778 147.911-44.778 147.911C-314.823 275.732-65.824 0-65.824 0Z" style="fill:#f89d16;fill-opacity:1;fill-rule:nonzero;stroke:none" transform="translate(1396.246 702.783)"/></g></svg>