<svg xmlns="http://www.w3.org/2000/svg" width="309px" height="322px" viewBox="0 0 309 321"><defs><linearGradient id="a" x1="0" x2="1" y1="0" y2="0" gradientTransform="matrix(110.02742 0 0 109.72832 107.51 175.153)" gradientUnits="userSpaceOnUse"><stop offset="0" style="stop-color:#cdaa2c;stop-opacity:1"/><stop offset="0.133311" style="stop-color:#f6cd16;stop-opacity:1"/><stop offset="0.300562" style="stop-color:#fee900;stop-opacity:1"/><stop offset="0.774454" style="stop-color:#fde700;stop-opacity:1"/><stop offset="0.882633" style="stop-color:#fde700;stop-opacity:1"/><stop offset="1" style="stop-color:#dbb527;stop-opacity:1"/></linearGradient><linearGradient id="b" x1="0" x2="1" y1="0" y2="0" gradientTransform="matrix(127.34515 0 0 126.99896 90.824 57.618)" gradientUnits="userSpaceOnUse"><stop offset="0" style="stop-color:#cc9b2e;stop-opacity:1"/><stop offset="0.225407" style="stop-color:#f6cd16;stop-opacity:1"/><stop offset="0.634307" style="stop-color:#fcee23;stop-opacity:1"/><stop offset="0.805843" style="stop-color:#fde700;stop-opacity:1"/><stop offset="1" style="stop-color:#cca62c;stop-opacity:1"/></linearGradient><linearGradient id="c" x1="0" x2="1" y1="0" y2="0" gradientTransform="matrix(164.48185 0 0 164.03471 72.256 30.523)" gradientUnits="userSpaceOnUse"><stop offset="0" style="stop-color:#cc9b2e;stop-opacity:1"/><stop offset="0.225407" style="stop-color:#f6cd16;stop-opacity:1"/><stop offset="0.634307" style="stop-color:#fcee23;stop-opacity:1"/><stop offset="0.805843" style="stop-color:#fde700;stop-opacity:1"/><stop offset="1" style="stop-color:#cca62c;stop-opacity:1"/></linearGradient><linearGradient id="d" x1="0" x2="1" y1="0" y2="0" gradientTransform="matrix(87.62533 0 0 87.38712 110.684 74.545)" gradientUnits="userSpaceOnUse"><stop offset="0" style="stop-color:#d72227;stop-opacity:1"/><stop offset="0.485272" style="stop-color:#ec2227;stop-opacity:1"/><stop offset="1" style="stop-color:#d71f26;stop-opacity:1"/></linearGradient><linearGradient id="e" x1="0" x2="1" y1="0" y2="0" gradientTransform="matrix(119.80603 0 0 119.48034 94.594 70.897)" gradientUnits="userSpaceOnUse"><stop offset="0" style="stop-color:#cc9b2e;stop-opacity:1"/><stop offset="0.225407" style="stop-color:#f6cd16;stop-opacity:1"/><stop offset="0.634307" style="stop-color:#fcee23;stop-opacity:1"/><stop offset="0.805843" style="stop-color:#fde700;stop-opacity:1"/><stop offset="1" style="stop-color:#cca62c;stop-opacity:1"/></linearGradient></defs><path d="M71.004 29.96a7.48 7.48 0 0 0-.043.665c-.07 2.48 1.156 5.824 3.984 7.305.266.14.54.261.82.363.212 1.11.407 2.43.641 4.05.239 1.446.57 2.817.992 4.09 1.797 5.376 5.41 9.387 10.235 11.63a8.213 8.213 0 0 0-1.617 2.308c-1.008 2.031-1.114 4.34-.301 6.344.8 1.965 2.383 3.445 4.457 4.168.523.183 1.062.32 1.605.402l.11.363c-.989.844-1.742 1.825-2.254 2.934a7.97 7.97 0 0 0-.219.496H74.06v174.324c0 6.215 1.859 10.926 5.53 14.004 3.259 2.727 7.774 4.051 13.81 4.051h47.406c2.066 0 4.168.656 5.902 1.844 2.031 1.402 2.91 3.156 4.129 5.582.254.5.512 1.012.785 1.535l2.875 5.477 2.879-5.477c.277-.523.535-1.04.79-1.54 1.218-2.425 2.097-4.175 4.124-5.573a10.502 10.502 0 0 1 5.906-1.848h47.407c6.03 0 10.546-1.324 13.808-4.05 3.672-3.083 5.531-7.794 5.531-14.005V75.078h-15.359a7.715 7.715 0 0 0-.215-.488c-.508-1.11-1.265-2.094-2.262-2.942l.114-.363a8.626 8.626 0 0 0 1.605-.402c2.074-.723 3.656-2.203 4.457-4.168.817-2.004.707-4.313-.297-6.344a8.422 8.422 0 0 0-1.62-2.309c4.823-2.242 8.437-6.257 10.23-11.636.43-1.281.761-2.656 1.004-4.145.23-1.582.422-2.883.629-3.988.273-.094.539-.211.789-.348 2.855-1.488 4.082-4.836 4.011-7.293a8.01 8.01 0 0 0-.043-.691 88.874 88.874 0 0 1 1.743-1.691c2.3-2.145 3.128-4.59 2.46-7.27-1.09-4.336-5.753-8.023-9.601-9.078a8.066 8.066 0 0 0-2.238-.328c-3.79 0-5.864 3.05-6.567 4.086-.008.011-.015.027-.027.035h-.117a9.682 9.682 0 0 0-.664-.024c-2.54 0-4.809.95-6.391 2.668-1.723 1.868-2.531 4.496-2.285 7.348.008.156.023.316.035.48.035.383.063.72.05.97-.003.003-.042.34-1.16 1.241-2.417 2.024-3.492 5.165-2.745 7.997.878 3.34 3.457 4.707 5.859 5.347a7.073 7.073 0 0 1-1.645 1.363c-1.746 1.024-4.101 1.25-6.254.665-2.519-.711-4.851-2.32-6.554-4.528a14.19 14.19 0 0 1-.906-1.344c3.367.098 7.046-1.945 7.222-7.921.016-.418.04-.723.059-.946.035-.015.07-.035.11-.054 3.359-1.762 4.76-5.125 3.476-8.41-.371-.919-.93-1.598-1.38-2.145-.07-.086-.155-.192-.234-.293.063-.246.172-.582.25-.832.356-1.106.844-2.617.625-4.313l-.015-.097c-.43-2.703-2.278-4.852-4.918-5.73-1.008-.34-2.07-.509-3.25-.509-.602 0-1.172.04-1.672.079-.32.023-.64.046-.918.054l-.2.004c-2.226 0-4.73-.539-6.706-1.441a25.43 25.43 0 0 1-.871-.426c-1.371-.684-3.082-1.54-5.282-1.54-.457 0-.921.04-1.386.118-3.469.586-5.832 3.61-6.164 7.918-.024.34-.043.578-.067.746-.117.07-.258.145-.375.207-1.031.559-2.945 1.59-3.664 4.18-.594 2.207.063 4.531 1.75 6.215l.024.023c-.903 2.078-1.703 4.649-.836 7.012.89 2.574 2.828 3.707 4.683 4.207a11.5 11.5 0 0 1-2.511 1.707 11.783 11.783 0 0 1-5.168 1.191c-2.614 0-5.172-.87-7.196-2.445a11.872 11.872 0 0 1-2.148-2.187c2.972-.208 4.57-1.805 5.379-3.13 1.008-1.617 1.277-3.624.812-6.14-.043-.27-.12-.598-.207-.95l-.012-.05c.458-.316 1.008-.727 1.481-1.29 1.855-2.19 2.023-5.25.43-7.585-.555-.832-1.254-1.406-1.766-1.824a8.01 8.01 0 0 1-.242-.2c.015-.164.043-.386.09-.69.476-3.524-.68-5.7-1.735-6.9-1.425-1.628-3.574-2.523-6.05-2.523-.59 0-1.204.051-1.864.16-2.86.504-4.496.692-6.031.692-1.54 0-3.172-.188-6.078-.7-3.195-.523-6.106.356-7.875 2.372-1.05 1.199-2.203 3.375-1.723 6.941.043.281.067.492.082.645-.078.07-.164.14-.238.199-.516.422-1.219.996-1.75 1.797-1.61 2.355-1.445 5.414.402 7.605.48.574 1.032.985 1.493 1.301-.008.027-.016.05-.02.074-.09.36-.168.688-.203.899-.465 2.535-.195 4.55.793 6.129.824 1.359 2.422 2.96 5.398 3.168a11.848 11.848 0 0 1-2.148 2.183c-2.028 1.578-4.582 2.45-7.196 2.45-1.789 0-3.574-.41-5.14-1.18a11.695 11.695 0 0 1-2.535-1.72c1.855-.495 3.781-1.616 4.664-4.16.875-2.41.078-4.98-.824-7.058l.02-.015c1.698-1.688 2.355-4.02 1.75-6.25-.708-2.56-2.626-3.594-3.657-4.149-.117-.066-.262-.14-.38-.21-.019-.173-.042-.423-.065-.786-.333-4.27-2.692-7.29-6.168-7.883a8.603 8.603 0 0 0-1.38-.113c-2.195 0-3.906.855-5.28 1.543-.294.144-.583.289-.887.426-1.961.898-4.461 1.437-6.688 1.437h-.152a25.38 25.38 0 0 1-.961-.058c-.5-.036-1.07-.079-1.668-.079-1.191 0-2.262.172-3.23.504-2.668.88-4.52 3.024-4.954 5.735l-.011.09c-.223 1.695.265 3.21.617 4.316.082.25.191.586.254.836-.078.101-.164.207-.235.293-.453.55-1.015 1.238-1.394 2.187-1.266 3.243.137 6.606 3.523 8.383.028.016.051.028.078.04.024.218.043.515.059.917.18 5.863 3.727 7.953 6.984 7.953.078 0 .16-.004.243-.004-.278.465-.579.91-.907 1.336-1.707 2.22-4.035 3.828-6.539 4.528-2.215.605-4.531.36-6.258-.653a7.245 7.245 0 0 1-1.66-1.367c2.406-.64 4.985-2.012 5.867-5.36.735-2.835-.343-5.968-2.8-8.03-1-.801-1.098-1.137-1.102-1.137-.02-.328.008-.664.04-1.05l.034-.403c.246-2.907-.562-5.535-2.28-7.403-1.587-1.718-3.856-2.668-6.392-2.668-.218 0-.441.008-.597.02-.059 0-.121.004-.184.004a.548.548 0 0 1-.047-.07c-.683-1-2.761-4.051-6.547-4.051-.722 0-1.453.105-2.199.32-3.883 1.059-8.55 4.75-9.644 9.094-.66 2.668.164 5.11 2.441 7.242.672.637 1.25 1.2 1.758 1.71" style="stroke:none;fill-rule:nonzero;fill:#fff;fill-opacity:1"/><path d="M62.676 287.637a36.787 36.787 0 0 0 4.863-3.692l11.453 11.5-3.637 4.239a94.605 94.605 0 0 1-12.68-12.047m170.966 12.047L230 295.445l11.457-11.5a36.571 36.571 0 0 0 4.867 3.692 95.107 95.107 0 0 1-12.683 12.047M289.793 212c4.05-1.496 7.894-3.508 10.8-5.64 4.274-3.083 6.727-6.395 7.298-9.86.71-4.508-1.778-8.531-5.98-9.762-2.153-.683-4.759-.664-7.27.043a18.62 18.62 0 0 0-.664.2 7.257 7.257 0 0 0-4.805-4.63c2.637-2.304 5.305-5.163 7.398-7.984 3.926-5.347 5.657-10.113 5.14-14.168-.577-4.531-3.917-7.574-8.304-7.574-.215 0-.437.008-.676.023-2.34.165-4.87 1.145-6.98 2.704a19.534 19.534 0 0 0-3.934 4.023 164.73 164.73 0 0 0-1.398-6.48c.91-.739 1.723-1.598 2.453-2.422 2.781-3.2 5.707-8.008 7.633-12.54 1.82-4.273 3.61-10.382 1.754-15.28-.649-1.606-1.551-2.887-2.746-3.91a7.594 7.594 0 0 0-5.02-1.86c-2.469 0-4.816 1.11-6.66 2.496a7.21 7.21 0 0 0-6.246-3.61 7.25 7.25 0 0 0-4.344 1.442c-.117-.223-.234-.445-.351-.664-.204-5.8-.965-12.965-4.5-18.578-1.864-3.008-4.301-5.305-7.024-6.63-1.664-.823-3.476-1.257-5.234-1.257-4.961 0-8.617 3.313-9.098 8.27-.308 3.398.871 7.12 3.508 11.058 2.934 4.395 7.8 8.516 13.344 11.38a7.194 7.194 0 0 0-3.582 8.667c-1.684.094-3.77.438-5.621 1.402-4.118 2.118-5.496 6.41-3.504 10.934 2.175 4.941 7.886 8.144 12.285 9.957a52.23 52.23 0 0 0 8.512 2.691 7.269 7.269 0 0 0-1.348 2.454c-1.774-.418-3.652-.41-5.238-.02-4.403 1.004-7.309 4.828-7.063 9.297.207 3.781 2.637 7.586 7.25 11.332 3.05 2.43 6.942 4.773 10.8 6.516a7.28 7.28 0 0 0-2.905 3.12c-.286-.117-.57-.226-.86-.327-2.418-.86-5.035-.942-7.441-.2-4.375 1.387-6.93 5.336-6.363 9.82.41 3.325 2.539 6.524 6.34 9.524 3.359 2.617 7.19 4.473 9.8 5.566 2.14.91 4.301 1.618 6.219 2.059l-.07.688a7.232 7.232 0 0 0-3.715-1.024 7.205 7.205 0 0 0-6.094 3.367 19.726 19.726 0 0 0-2.484-1.289 13.35 13.35 0 0 0-5.223-1.062c-3.86 0-7.023 1.687-8.676 4.629-1.402 2.492-2.789 7.617 3.711 13.996 2.805 2.691 6.207 4.86 8.602 6.218.172.098.34.192.511.282a7.26 7.26 0 0 0-.675.523 11.265 11.265 0 0 0-.774-.644c-1.804-1.387-3.879-2.121-6-2.121-3.824 0-7.047 2.355-8.414 6.171-.836 2.399-.922 5.204-.25 7.883 1.883 7.645 6.106 14.223 12.559 19.594-.79 1.406-1.61 2.785-2.45 4.133-.863-3.633-2.238-7.656-4.421-11.274-.98-1.62-3.11-4.586-6.403-6.226a10.093 10.093 0 0 0-4.414-1.028c-4.484 0-8.09 2.985-8.98 7.47-.453 2.425-.106 5.214.96 7.652a36.158 36.158 0 0 0 4.735 7.89h-75.02l-2.359 3.48v7.094h-10.656v-7.09l-2.352-3.484H71.793a36.108 36.108 0 0 0 4.738-7.894c1.059-2.422 1.406-5.207.953-7.688-.886-4.445-4.492-7.43-8.976-7.43-1.512 0-2.996.344-4.453 1.047-3.254 1.621-5.387 4.586-6.368 6.207-2.187 3.621-3.562 7.641-4.421 11.27a109.43 109.43 0 0 1-2.45-4.129c6.454-5.367 10.676-11.945 12.563-19.582.676-2.691.586-5.496-.258-7.922-1.36-3.789-4.582-6.144-8.41-6.144-2.121 0-4.195.734-6 2.117-.27.207-.523.422-.773.648a6.728 6.728 0 0 0-.672-.523c.183-.098.363-.196.547-.297 2.363-1.348 5.765-3.516 8.585-6.227 6.48-6.355 5.09-11.48 3.692-13.965-1.653-2.945-4.817-4.636-8.676-4.636-1.797 0-3.602.367-5.227 1.062-.851.367-1.68.797-2.484 1.29a7.198 7.198 0 0 0-6.09-3.368 7.232 7.232 0 0 0-3.715 1.024l-.07-.688c1.918-.437 4.07-1.148 6.203-2.05 2.617-1.098 6.446-2.954 9.828-5.587 3.786-2.984 5.914-6.18 6.332-9.5.567-4.492-1.988-8.445-6.394-9.84-2.356-.726-5.008-.648-7.399.204-.296.101-.59.214-.882.336a7.25 7.25 0 0 0-2.899-3.125c3.856-1.743 7.754-4.09 10.828-6.536 4.586-3.722 7.016-7.53 7.22-11.304.25-4.473-2.653-8.301-7.013-9.293-1.703-.418-3.539-.41-5.285.008a7.368 7.368 0 0 0-1.347-2.454 52.922 52.922 0 0 0 8.507-2.683c4.403-1.82 10.11-5.028 12.297-9.969 1.977-4.523.602-8.812-3.492-10.918-1.86-.973-3.953-1.32-5.64-1.414a7.194 7.194 0 0 0-3.582-8.668c5.538-2.86 10.41-6.984 13.347-11.379 2.637-3.953 3.816-7.672 3.5-11.078-.484-4.934-4.14-8.25-9.098-8.25-1.757 0-3.57.434-5.222 1.25-2.742 1.344-5.176 3.64-7.012 6.617-3.55 5.621-4.313 12.793-4.52 18.598-.117.219-.23.441-.347.664a7.26 7.26 0 0 0-4.348-1.441c-2.668 0-5 1.453-6.246 3.605-1.836-1.383-4.184-2.492-6.66-2.492-1.871 0-3.61.644-5.024 1.86-1.195 1.027-2.09 2.304-2.77 3.98-1.468 3.867-.866 8.984 1.782 15.199 1.91 4.527 4.836 9.336 7.653 12.574.687.774 1.507 1.64 2.437 2.395a160.668 160.668 0 0 0-1.402 6.484 19.677 19.677 0 0 0-3.961-4.047c-2.082-1.539-4.614-2.516-6.969-2.683-.223-.012-.441-.02-.656-.02-4.403 0-7.739 3.047-8.305 7.566-.523 4.043 1.203 8.813 5.149 14.196 2.09 2.812 4.757 5.672 7.386 7.965a7.248 7.248 0 0 0-4.8 4.632 17.923 17.923 0 0 0-.653-.191c-2.523-.719-5.203-.715-7.215-.078-4.281 1.258-6.765 5.285-6.039 9.797.559 3.46 3.012 6.773 7.262 9.828 2.926 2.152 6.766 4.16 10.824 5.66 2.043.75 3.973 1.297 5.668 1.613.281 3.032.64 6.047 1.067 8.996-3.157-2.449-6.52-3.976-10.032-4.55-2.613-.426-5.203-.23-7.37.582-4.231 1.597-6.47 5.77-5.427 10.199.82 3.262 3.407 6.238 7.707 8.855 2.993 1.797 6.91 3.446 10.996 4.64.895.27 1.782.513 2.653.727-1.246 1.301-1.988 3.094-1.988 5.13 0 1.71.523 3.25 1.433 4.472-2.59.121-5.066.883-6.953 2.125-3.895 2.516-5.195 7.106-3.2 11.098 1.368 2.879 4.274 5.14 8.641 6.718 4.356 1.579 10.2 2.56 15.243 2.56 1.902 0 3.652-.138 5.23-.403.441.793.895 1.582 1.36 2.367-4.211-.875-8.333-.867-12.122.016-2.593.59-4.925 1.847-6.574 3.546-1.969 2.051-2.863 4.766-2.45 7.45.435 2.804 2.196 5.242 4.833 6.683 2.508 1.38 5.352 1.668 7.297 1.668.394 0 .781-.012 1.14-.031 2.88-.164 11.864-.926 18.5-4.262a103.711 103.711 0 0 0 14.715 14.274l-3.937 4.64h56.281v3.418c0 2.946 2.418 5.344 5.395 5.344h54.379c2.972 0 5.394-2.398 5.394-5.344v-3.418h56.266l-3.926-4.636a103.8 103.8 0 0 0 14.719-14.282c6.636 3.34 15.625 4.102 18.492 4.266.37.02.758.031 1.152.031 1.942 0 4.781-.289 7.281-1.664 2.645-1.445 4.41-3.883 4.844-6.687.414-2.684-.48-5.399-2.46-7.461-1.645-1.692-3.973-2.946-6.548-3.532-3.824-.89-7.93-.894-12.136-.02.46-.784.914-1.573 1.359-2.366 1.578.265 3.328.402 5.23.402 5.047 0 10.887-.98 15.247-2.559 4.367-1.582 7.27-3.843 8.601-6.656 2.031-4.047.735-8.637-3.14-11.148-1.918-1.262-4.407-2.02-6.977-2.137.93-1.266 1.437-2.832 1.437-4.476 0-2.036-.742-3.825-1.984-5.13.86-.206 1.734-.449 2.61-.714 4.124-1.203 8.046-2.856 11.054-4.66 4.29-2.618 6.875-5.598 7.692-8.891 1.035-4.375-1.2-8.55-5.446-10.16-2.152-.801-4.746-1-7.36-.574-3.515.578-6.882 2.105-10.03 4.55.421-2.914.773-5.882 1.062-8.996 1.7-.316 3.629-.863 5.672-1.613" style="stroke:none;fill-rule:nonzero;fill:#fff;fill-opacity:1"/><path d="M154.5 274.914c-1.691-3.215-2.727-6.055-5.945-8.277-2.266-1.555-5.032-2.422-7.75-2.422H93.398c-4.957 0-8.918-.945-11.718-3.29-2.848-2.39-4.371-6.09-4.371-11.523V78.32h14.93c-.122-.78-.044-1.605.331-2.347.496-1.11 1.485-2.141 3.137-2.957l-1.531-4.985c-.946.207-1.98.125-2.93-.207-2.594-.902-3.496-3.66-2.305-6.043.618-1.316 1.645-2.187 2.97-2.676a97.132 97.132 0 0 1 5.901-2.261c-7.921.164-14.73-3.664-17.332-11.438a23.792 23.792 0 0 1-.867-3.582c-.578-3.988-.949-6.418-1.984-8.601-1.027-2.137-2.8-4.153-6.14-7.32-1.321-1.235-1.938-2.47-1.528-4.118.742-2.96 4.332-5.922 7.348-6.746 2.02-.578 3.543 0 5.199 2.426 1.027 1.562 2.058 1.523 3.05 1.484 4-.25 6.227 2.676 5.899 6.535-.039.582-.125 1.2-.078 1.938.113 1.484 1.23 2.594 2.308 3.457 1.32 1.11 2.137 2.96 1.692 4.691-.828 3.13-4.453 3.25-7.055 3.621-.254.04-.496.086-.785.121 1.152 3.13 2.969 5.313 5.117 6.586 2.594 1.52 5.774 1.809 8.778.989 3.101-.867 6.07-2.84 8.257-5.68 1.735-2.258 2.973-5.059 3.426-8.27-1.156.415-2.23 1.032-3.383 1.399-3.382 1.027-5.566-.367-5.691-4.484-.129-3.293-.703-3.13-1.902-3.743-1.649-.867-2.72-2.43-1.977-4.324.406-1.027 1.606-1.851 1.852-2.918.332-1.562-1.157-3.539-.907-5.472.25-1.563 1.282-2.676 2.766-3.165 1.691-.582 3.184-.253 4.742-.207 2.727.04 5.781-.578 8.297-1.73 1.73-.785 3.426-1.977 5.648-1.602 2.391.407 3.301 2.793 3.47 4.934.077 1.273.206 1.93.491 2.34 1.032 1.441 3.137 1.32 3.715 3.418.293 1.07-.039 2.222-.91 3.086-1.148 1.156-1.644 1.566-.906 3.168.906 1.976 1.441 3.746.95 5.101-1.075 3.09-5.274 2.266-7.712 2.43 1.73 3.539 4.29 6.008 7.18 7.453 5.113 2.504 11.3 1.887 15.793-1.613 2.523-1.973 4.586-4.895 5.574-8.723-.289.082-.574.121-.863.164-2.399.457-5.66 1.485-7.184-1.027-.617-.985-.66-2.3-.37-3.867.128-.778.702-2.305.288-3.004-.45-.778-1.648-1.196-2.27-1.934-.902-1.07-.988-2.55-.206-3.699.738-1.11 2.394-1.648 2.558-3.086.047-.453 0-1.031-.12-1.855-.618-4.567 2.35-6.211 5.858-5.641 5.61.992 7.594.992 13.2 0 3.507-.57 6.476 1.074 5.859 5.64-.121.825-.164 1.403-.121 1.856.164 1.438 1.816 1.977 2.555 3.086.785 1.148.707 2.629-.203 3.7-.622.737-1.82 1.155-2.27 1.933-.418.699.164 2.226.289 3.004.29 1.566.246 2.883-.371 3.867-1.527 2.512-4.79 1.484-7.184 1.027-.285-.043-.574-.082-.867-.164 1 3.828 3.055 6.75 5.574 8.723 4.496 3.5 10.688 4.117 15.801 1.613 2.887-1.445 5.445-3.914 7.18-7.453-2.434-.164-6.645.66-7.715-2.43-.496-1.355.04-3.125.945-5.101.743-1.602.25-2.012-.906-3.168-.867-.864-1.195-2.016-.91-3.086.582-2.098 2.684-1.977 3.719-3.418.285-.41.41-1.067.492-2.34.164-2.14 1.07-4.527 3.469-4.934 2.23-.375 3.918.817 5.648 1.602 2.52 1.152 5.566 1.77 8.297 1.73 1.559-.046 3.047-.375 4.738.2 1.488.496 2.516 1.609 2.766 3.172.246 1.933-1.235 3.91-.91 5.472.25 1.067 1.445 1.89 1.863 2.918.738 1.895-.332 3.457-1.98 4.324-1.2.614-1.778.45-1.907 3.743-.117 4.117-2.304 5.511-5.691 4.484-1.149-.367-2.227-.984-3.38-1.398.454 3.21 1.692 6.011 3.423 8.269 2.191 2.84 5.164 4.813 8.254 5.68 3.011.82 6.191.531 8.785-.989 2.152-1.273 3.96-3.457 5.117-6.586-.285-.035-.531-.082-.785-.12-2.598-.372-6.23-.497-7.055-3.622-.457-1.73.371-3.582 1.696-4.691 1.07-.863 2.183-1.973 2.308-3.457.043-.738-.043-1.356-.086-1.938-.328-3.859 1.903-6.785 5.899-6.535.996.04 2.023.078 3.058-1.484 1.649-2.426 3.176-3.004 5.2-2.426 3.011.824 6.601 3.785 7.347 6.746.406 1.649-.21 2.883-1.535 4.117-3.34 3.168-5.11 5.184-6.14 7.32-1.036 2.184-1.407 4.614-1.981 8.602-.211 1.278-.5 2.469-.871 3.582-2.594 7.774-9.403 11.602-17.328 11.438 1.976.695 3.964 1.437 5.906 2.261 1.312.489 2.347 1.36 2.969 2.676 1.191 2.383.285 5.14-2.309 6.043-.953.332-1.984.414-2.93.207l-1.53 4.985c1.648.816 2.64 1.847 3.136 2.957.37.742.453 1.566.328 2.347h14.937v171.082c0 5.434-1.527 9.133-4.37 11.524-2.805 2.344-6.766 3.289-11.72 3.289h-47.406c-2.722 0-5.488.86-7.754 2.422-3.218 2.222-4.254 5.062-5.941 8.277" style="stroke:none;fill-rule:nonzero;fill:#000;fill-opacity:1"/><path d="M79.742 80.746v168.656c0 4.688 1.192 7.778 3.504 9.668 2.313 1.93 5.774 2.715 10.152 2.715h47.407c3.222 0 6.433 1.07 9.117 2.883 1.855 1.273 3.465 2.926 4.578 4.89 1.113-1.964 2.723-3.617 4.578-4.89 2.684-1.813 5.899-2.883 9.117-2.883h47.407c4.378 0 7.835-.785 10.148-2.715 2.309-1.89 3.508-4.98 3.508-9.668V80.746Zm0 0" style="stroke:none;fill-rule:nonzero;fill:url(#a)"/><path d="M154.5 260.305c3.875-3 8.75-4.739 13.695-4.739h47.407c5.234 0 7.425-.574 7.425-6.164V123.54H85.973v125.863c0 5.59 2.183 6.164 7.425 6.164h47.407c4.945 0 9.812 1.739 13.695 4.739" style="stroke:none;fill-rule:nonzero;fill:#000;fill-opacity:1"/><path d="M145.918 293.223v-9.34l-.828-1.235H70.824l12.59 12.633-7.59 8.84a97.309 97.309 0 0 1-18.152-17.402c7.09-3.453 12.707-9.254 15.879-16.496.828-1.895 1.07-3.993.746-5.762-.828-4.156-5.031-5.926-8.79-4.117-2.152 1.07-3.917 3.133-5.038 4.984-3.176 5.262-4.79 12.137-5.274 18.18-3.101-4.156-5.949-8.676-8.547-13.574 6.73-4.938 11.551-11.317 13.579-19.508.535-2.137.453-4.27-.168-6.047-1.489-4.152-5.942-5.18-9.368-2.547-1.98 1.52-3.375 3.988-4.171 6.086-2.016 5.27-2.637 11.277-2.426 16.914-3.055-6.422-3.84-8.398-1.074-15.473h.167c5.2 0 5.2-7.945 0-7.945-3.882 0-5.363 4.902-2.437 7.125a50.81 50.81 0 0 0-1.484 4.563 132.71 132.71 0 0 1-3.957-12.625c2.55-.29 6.804-1.938 10.89-4.204 2.883-1.64 5.735-3.62 7.918-5.718 2.64-2.59 5.2-6.414 3.133-10.075-1.89-3.378-6.598-3.542-9.773-2.18-3.922 1.684-6.891 4.81-9.2 8.555-1.691 2.797-3.011 5.922-4.086 9.09-.41-1.726-.78-3.414-1.117-5.144-.574-2.918.996-4.774 2.73-6.785a4.336 4.336 0 0 0 1.813.414 3.955 3.955 0 0 0 3.957-3.95c0-2.18-1.773-3.992-3.957-3.992-2.187 0-4.008 1.813-4.008 3.992 0 .657.172 1.274.461 1.852-.37.45-.746.898-1.117 1.395-.328.414-.617.816-.95 1.273-.124-.777-.202-1.559-.327-2.3a193.878 193.878 0 0 1-1.367-11.856c1.988-.078 5.16-.899 8.464-2.301 3.137-1.313 6.43-3.082 9.07-5.14 2.774-2.184 4.786-4.692 5.122-7.364.37-2.926-1.278-5.434-4.125-6.34-1.613-.496-3.508-.496-5.363.164-3.754 1.317-6.813 4.157-9.286 7.696-1.652 2.382-3.054 5.097-4.25 7.902a215.96 215.96 0 0 1-.207-4.856c-.086-2.964 1.653-4.855 3.797-6.667.453.164.95.289 1.45.289 2.18 0 3.992-1.809 3.992-3.989 0-2.18-1.813-3.949-3.993-3.949a3.954 3.954 0 0 0-3.964 3.95c0 .816.207 1.519.613 2.136-.7.656-1.356 1.32-1.98 2.02 0-1.489 0-2.965.05-4.45.035-2.18.035-4.402.285-6.539 1.606-.21 4.04-.945 6.563-2.015 3.543-1.528 7.586-3.828 10.848-6.422 3.343-2.711 5.859-5.844 6.023-8.969.164-2.922-1.652-5.309-4.54-5.965-1.694-.414-3.624-.25-5.487.617-5.852 2.922-9.86 9.668-12.957 15.84.25-2.719.582-5.39.953-8.066.414-2.875 1.285-4.528 3.547-6.375.664.617 1.57.945 2.562.945 2.184 0 3.957-1.77 3.957-3.906 0-2.18-1.773-3.996-3.957-3.996a4.009 4.009 0 0 0-4.008 3.996c0 .324.043.656.121.98-.324.25-.656.5-.937.785a129.123 129.123 0 0 1 1.933-8.886c.704.129 1.524.129 2.43.082 3.426-.16 8.586-1.36 13.25-3.29 4.781-1.976 9.031-4.812 10.559-8.269 1.152-2.637.781-5.308-2.02-6.75-1.484-.777-3.511-1.11-5.531-1.07-4.332.125-8.125 1.976-11.348 4.73-1.691 1.403-3.172 3.09-4.574 4.938.863-2.676 1.813-5.262 2.805-7.817.906-2.425 1.687-4.113 4.129-5.511a3.99 3.99 0 0 0 3.539 2.136c2.191 0 3.96-1.77 3.96-3.949 0-2.18-1.769-3.949-3.96-3.949-1.934 0-3.54 1.402-3.914 3.207-.168.086-.332.168-.54.293 1.2-2.633 2.481-5.188 3.794-7.695 5.41-2.309 11.265-6.5 14.566-11.442 1.73-2.593 3.266-5.8 2.973-8.965-.5-5.105-5.489-6.464-9.657-4.406-2.023.988-4.043 2.762-5.691 5.434-3.223 5.101-3.879 11.847-4.043 17.73-1.734 3.211-3.3 6.504-4.785 9.88-.04-.044-.04-.087-.086-.13-.121-.406-.246-.82-.41-1.191a4.025 4.025 0 0 0 1.36-3.004c0-2.18-1.813-3.95-4-3.95a3.959 3.959 0 0 0-3.962 3.95 3.962 3.962 0 0 0 4.375 3.95c.742 1.85 1.239 3.784.453 5.722a176.387 176.387 0 0 0-3.05 8.558c.117-1.527.117-3.046.082-4.523-.207-4.777-1.325-9.383-4.258-12.961-2.055-2.473-6.43-5.105-9.446-2.512-.859.743-1.437 1.645-1.855 2.672-1.281 3.375-.242 8.149 1.738 12.801 1.895 4.48 4.696 8.926 7.09 11.68.95 1.074 2.317 2.507 3.719 3.043a156.222 156.222 0 0 0-3.629 19.343c-.129-.5-.25-.988-.375-1.437-1.277-4.531-3.426-8.645-7.008-11.363-1.613-1.192-3.555-1.934-5.246-2.055-3.18-.207-5.16 1.809-5.527 4.73-.461 3.543 1.613 7.86 4.539 11.848 2.844 3.828 6.554 7.406 9.488 9.508 1.07.781 2.11 1.36 2.973 1.687a172.277 172.277 0 0 0-.254 6.258c0 1.395-.035 2.793-.035 4.192a44.466 44.466 0 0 0-2.067-2.59c.414-.657.66-1.403.66-2.219 0-2.188-1.773-3.996-3.957-3.996-2.187 0-3.964 1.808-3.964 3.996 0 2.172 1.777 3.941 3.964 3.941.493 0 .985-.078 1.399-.242 1.898 2.223 3.965 4.61 4.09 7.653 0 1.074.039 2.14.117 3.207-1.281-2.711-2.844-5.305-4.703-7.57-2.516-3-5.57-5.348-9.282-6.372-1.894-.539-3.84-.582-5.406-.086-2.8.824-4.207 3.332-3.75 6.172.453 2.793 2.836 5.473 5.985 7.734 2.964 2.18 6.68 3.997 10.015 5.23 3.016 1.106 5.781 1.727 7.559 1.727.324 4.118.785 8.223 1.402 12.336.496 3.38 1.11 6.754 1.809 10.082-1.524-2.257-3.254-4.437-5.23-6.289-2.977-2.8-6.477-4.902-10.485-5.558-2.02-.332-4.043-.203-5.691.41-2.727 1.031-4.086 3.582-3.43 6.383.664 2.633 3.054 4.933 6.234 6.867 3.008 1.809 6.762 3.293 10.27 4.316 4.086 1.243 7.965 1.817 10.152 1.567a141.42 141.42 0 0 0 2.633 8.93 17.338 17.338 0 0 0-1.684-1.11c.25-2.387-1.652-4.523-4.082-4.523-5.406 0-5.406 8.187 0 8.187 1.235 0 2.387-.539 3.133-1.441 2.352 1.52 3.875 2.508 4.824 5.226.95 2.633 1.942 4.856 3.012 7.157-4.496-4.282-10.23-7.66-16.625-7.329-2.023.086-3.957.66-5.402 1.61-2.477 1.601-3.344 4.363-2.028 6.996 1.07 2.254 3.63 3.906 6.813 5.055 5.691 2.062 15.222 3.296 21.039 1.488a114.455 114.455 0 0 0 7.516 12.219c-5.95-2.883-12.676-4.489-19.231-2.961-1.98.449-3.758 1.398-4.95 2.629-2.808 2.925-1.862 7.156 1.606 9.054 2.02 1.11 4.625 1.356 6.688 1.235 5.855-.328 14.515-1.77 19.426-5.227a99.884 99.884 0 0 0 18.648 17.977l-1.61 1.898h52.524v6.66c0 1.156.992 2.102 2.145 2.102h54.379c1.156 0 2.144-.945 2.144-2.102v-6.66h52.52l-1.606-1.898a99.663 99.663 0 0 0 18.649-17.98c4.906 3.46 13.574 4.902 19.433 5.23 2.059.12 4.656-.125 6.676-1.235 3.469-1.898 4.418-6.129 1.61-9.054-1.196-1.23-2.97-2.18-4.95-2.63-6.559-1.527-13.285.079-19.223 2.962a115.07 115.07 0 0 0 7.512-12.22c5.809 1.81 15.344.575 21.04-1.487 3.171-1.149 5.734-2.801 6.808-5.055 1.316-2.633.445-5.395-2.024-6.996-1.449-.95-3.382-1.524-5.41-1.61-6.39-.332-12.129 3.047-16.62 7.329 1.07-2.301 2.062-4.524 3.01-7.157.95-2.718 2.47-3.707 4.825-5.226.75.902 1.898 1.441 3.137 1.441 5.406 0 5.406-8.195 0-8.195-2.43 0-4.332 2.144-4.086 4.531a18.94 18.94 0 0 0-1.688 1.11 138.91 138.91 0 0 0 2.637-8.93c2.195.25 6.07-.324 10.152-1.567 3.504-1.023 7.262-2.507 10.274-4.316 3.172-1.934 5.57-4.234 6.222-6.867.665-2.805-.703-5.352-3.418-6.383-1.656-.613-3.675-.742-5.695-.41-4.004.656-7.508 2.758-10.484 5.558-1.973 1.844-3.707 4.032-5.235 6.29.7-3.329 1.32-6.704 1.813-10.083a176.296 176.296 0 0 0 1.402-12.335c1.778 0 4.543-.622 7.551-1.727 3.344-1.234 7.059-3.05 10.024-5.23 3.14-2.262 5.535-4.942 5.992-7.735.449-2.84-.953-5.348-3.758-6.172-1.567-.496-3.508-.453-5.41.082-3.711 1.028-6.762 3.375-9.278 6.375-1.859 2.266-3.425 4.86-4.707 7.57.09-1.066.13-2.132.13-3.206.12-3.043 2.183-5.43 4.081-7.653.41.164.907.242 1.403.242 2.183 0 3.96-1.77 3.96-3.945 0-2.184-1.777-3.992-3.96-3.992-2.188 0-3.961 1.808-3.961 3.992 0 .82.242 1.566.66 2.223a42.829 42.829 0 0 0-2.063 2.59c0-1.399-.043-2.797-.043-4.196-.039-2.097-.117-4.195-.246-6.254.867-.328 1.895-.906 2.969-1.687 2.93-2.102 6.645-5.68 9.492-9.508 2.926-3.988 4.988-8.305 4.54-11.848-.376-2.922-2.356-4.937-5.528-4.73-1.695.121-3.637.863-5.246 2.055-3.586 2.718-5.73 6.832-7.008 11.363-.129.45-.254.937-.375 1.437a157.685 157.685 0 0 0-3.625-19.343c1.395-.536 2.762-1.973 3.707-3.043 2.395-2.754 5.191-7.2 7.102-11.68 1.98-4.652 3.007-9.426 1.73-12.8-.418-1.028-.992-1.93-1.86-2.673-3.011-2.593-7.386.04-9.449 2.504-2.93 3.586-4.039 8.192-4.25 12.969-.035 1.477-.035 2.996.086 4.523-.945-2.921-1.984-5.761-3.054-8.558-.781-1.938-.29-3.871.46-5.723 2.301.246 4.364-1.562 4.364-3.95 0-2.179-1.77-3.948-3.957-3.948-2.191 0-4 1.77-4 3.949 0 1.195.535 2.262 1.355 3.004-.164.37-.285.785-.406 1.191-.039.043-.039.086-.082.13-1.484-3.376-3.055-6.669-4.785-9.88-.168-5.883-.828-12.629-4.04-17.73-1.655-2.672-3.679-4.45-5.702-5.434-4.168-2.058-9.16-.699-9.656 4.399-.286 3.171 1.242 6.379 2.976 8.972 3.3 4.942 9.16 9.133 14.559 11.442a146.684 146.684 0 0 1 3.8 7.695c-.207-.125-.375-.207-.535-.293-.375-1.805-1.984-3.207-3.922-3.207a3.95 3.95 0 1 0 0 7.898 4.003 4.003 0 0 0 3.547-2.136c2.438 1.398 3.223 3.086 4.125 5.511.989 2.555 1.942 5.141 2.809 7.817-1.406-1.848-2.89-3.535-4.578-4.938-3.223-2.754-7.024-4.605-11.352-4.73-2.02-.04-4.039.293-5.527 1.07-2.8 1.442-3.176 4.113-2.02 6.75 1.524 3.457 5.774 6.293 10.563 8.266 4.66 1.933 9.82 3.133 13.242 3.293.91.047 1.73.047 2.438-.082.738 2.922 1.402 5.93 1.937 8.886a10.177 10.177 0 0 0-.945-.785 4.006 4.006 0 0 0-3.883-4.977c-2.188 0-3.961 1.817-3.961 3.993 0 2.14 1.773 3.91 3.96 3.91.993 0 1.9-.328 2.556-.945 2.273 1.847 3.14 3.5 3.55 6.375.371 2.676.7 5.347.946 8.066-3.09-6.172-7.094-12.918-12.95-15.84-1.859-.867-3.8-1.03-5.492-.617-2.883.656-4.699 3.043-4.539 5.965.172 3.125 2.688 6.258 6.031 8.969 3.254 2.594 7.293 4.894 10.848 6.422 2.516 1.07 4.945 1.804 6.559 2.015.25 2.137.25 4.36.293 6.54.035 1.484.035 2.96.035 4.445a30.863 30.863 0 0 0-1.973-2.016c.41-.617.613-1.32.613-2.137 0-2.18-1.777-3.949-3.96-3.949-2.184 0-4.004 1.77-4.004 3.95 0 2.179 1.82 3.988 4.004 3.988.496 0 .988-.125 1.445-.29 2.144 1.813 3.875 3.704 3.797 6.668-.043 1.641-.13 3.247-.211 4.856-1.192-2.805-2.598-5.52-4.25-7.902-2.473-3.54-5.528-6.38-9.278-7.696-1.855-.66-3.757-.66-5.363-.164-2.848.906-4.496 3.414-4.129 6.34.332 2.672 2.348 5.18 5.117 7.363 2.641 2.059 5.942 3.828 9.075 5.141 3.3 1.402 6.484 2.223 8.464 2.3-.335 3.962-.789 7.9-1.367 11.856-.12.742-.21 1.524-.324 2.301-.34-.457-.625-.86-.957-1.273a36.29 36.29 0 0 0-1.113-1.395c.297-.578.46-1.195.46-1.852 0-2.18-1.82-3.992-4.003-3.992-2.192 0-3.965 1.813-3.965 3.992 0 2.18 1.773 3.95 3.965 3.95.656 0 1.277-.168 1.808-.414 1.735 2.011 3.301 3.867 2.73 6.785-.335 1.73-.698 3.418-1.12 5.144-1.074-3.168-2.39-6.293-4.082-9.09-2.313-3.746-5.278-6.87-9.203-8.554-3.168-1.363-7.88-1.2-9.778 2.18-2.062 3.66.496 7.484 3.137 10.074 2.184 2.097 5.035 4.078 7.922 5.718 4.086 2.266 8.332 3.915 10.89 4.204a133.867 133.867 0 0 1-3.96 12.625c-.41-1.52-.907-3.04-1.48-4.563 2.933-2.223 1.437-7.125-2.438-7.125-5.196 0-5.196 7.945 0 7.945h.164c2.765 7.075 1.984 9.051-1.07 15.473.206-5.637-.41-11.644-2.438-16.914-.781-2.098-2.18-4.566-4.164-6.086-3.426-2.633-7.875-1.605-9.363 2.547-.622 1.777-.704 3.91-.168 6.047 2.023 8.191 6.843 14.57 13.574 19.508-2.594 4.898-5.442 9.418-8.54 13.574-.5-6.043-2.105-12.918-5.28-18.18-1.118-1.851-2.887-3.914-5.032-4.984-3.758-1.809-7.965-.04-8.793 4.117-.328 1.77-.082 3.867.746 5.762 3.176 7.242 8.785 13.043 15.883 16.496a97.569 97.569 0 0 1-18.156 17.402l-7.59-8.84 12.586-12.633H163.91l-.836 1.235v9.34Zm0 0" style="stroke:none;fill-rule:nonzero;fill:#000;fill-opacity:1"/><path d="M125.164 305.484V295.36c0-.82.535-1.605 1.277-1.93l13.903-8.398h-63.82l10.109 10.25-8.418 10.203ZM183.832 305.484V295.36c0-.82-.535-1.605-1.277-1.93l-13.903-8.398h63.82l-10.109 10.25 8.422 10.203Zm0 0" style="stroke:none;fill-rule:nonzero;fill:#fff;fill-opacity:1"/><path d="M181.402 314.242h-53.804v-18.597h53.804ZM177.602 293.223h-12.13v-7.286ZM131.39 293.223h12.133v-7.286Zm0 0" style="stroke:none;fill-rule:nonzero;fill:#fff;fill-opacity:1"/><path d="M197.938 64.121c.21.582.085 1.156-.368 1.61-1.691 1.519-6.765.12-7.472-2.016-.203-.578-.078-1.156.375-1.606 1.734-1.566 6.726-.164 7.464 2.012" style="stroke:none;fill-rule:nonzero;fill:#e01f26;fill-opacity:1"/><path d="m212.219 68.363-.703 2.305-1.98-2.059Zm0 0" style="stroke:none;fill-rule:nonzero;fill:#cc2027;fill-opacity:1"/><path d="M197.324 52.563a158.576 158.576 0 0 0-17.414-3.583c3.512-1.023 6.645-2.96 9.25-5.468 1.684 3.781 4.742 6.832 8.164 9.05M200.008 62.973c3.46 1.027 6.93 2.18 10.312 3.457l-5.53.453 4.167 4.402c-3.465-1.32-6.973-2.469-10.484-3.535.332-.168.59-.375.828-.582 1.031-.941 1.402-2.3.949-3.621-.043-.2-.121-.41-.242-.574M178.305 63.219l5.156-1.973-4.254-3c3.43.527 6.813 1.188 10.2 1.934-.247.16-.458.324-.66.488-1.044.95-1.407 2.305-.954 3.621.082.29.203.531.328.785a127.568 127.568 0 0 0-9.816-1.855" style="stroke:none;fill-rule:nonzero;fill:#f2c417;fill-opacity:1"/><path d="M111.055 64.121c-.211.582-.078 1.156.37 1.61 1.692 1.519 6.763.12 7.466-2.016.207-.578.086-1.156-.368-1.606-1.734-1.566-6.73-.164-7.468 2.012" style="stroke:none;fill-rule:nonzero;fill:#e01f26;fill-opacity:1"/><path d="m96.781 68.363.7 2.305 1.976-2.059Zm0 0" style="stroke:none;fill-rule:nonzero;fill:#cc2027;fill-opacity:1"/><path d="M111.672 52.563a158.027 158.027 0 0 1 17.414-3.579c-3.504-1.027-6.645-2.964-9.246-5.472-1.692 3.781-4.746 6.832-8.168 9.05M108.992 62.973a149.32 149.32 0 0 0-10.316 3.457l5.531.453-4.172 4.402c3.469-1.32 6.977-2.469 10.48-3.535-.331-.168-.574-.375-.824-.582-1.03-.941-1.402-2.3-.945-3.621.043-.2.121-.41.246-.574M130.688 63.219l-5.153-1.973 4.25-3c-3.426.527-6.805 1.188-10.187 1.934.242.16.453.324.66.488 1.027.95 1.402 2.305.945 3.621-.082.29-.207.531-.328.785 3.223-.742 6.52-1.363 9.813-1.855" style="stroke:none;fill-rule:nonzero;fill:#f2c417;fill-opacity:1"/><path d="M92.902 60.996c-.785.29-1.367.746-1.777 1.563-.574 1.195-.375 2.84 1.035 3.336.7.246 1.524.203 2.227-.082 38.328-15.43 81.894-15.43 120.222 0 .703.285 1.532.328 2.23.082 1.4-.497 1.606-2.141 1.028-3.336-.41-.817-.988-1.274-1.777-1.563-19.656-7.879-40.625-11.816-61.594-11.816-20.965 0-41.937 3.937-61.594 11.816" style="stroke:none;fill-rule:nonzero;fill:url(#b)"/><path d="M154.5 39.848a30.699 30.699 0 0 1-3.012 3.168 27.374 27.374 0 0 1-6.23 4.277 173.524 173.524 0 0 1 18.476 0 27.33 27.33 0 0 1-6.222-4.277c-1.07-.985-2.11-2.055-3.012-3.168" style="stroke:none;fill-rule:nonzero;fill:#f2c417;fill-opacity:1"/><path d="M161.344 6.438c-5.32 1.234-8.375 1.234-13.696 0-2.27-.493-3.625.332-3.218 3.292.12.95.168 1.688.12 2.305-.202 2.016-1.894 2.473-2.84 3.914-.331.446-.331 1.024.044 1.434.695.863 1.809 1.113 2.476 2.183.446.82.536 1.684.2 3.082-.082.41-.164.786-.246 1.114-.211 1.191-.246 2.14.129 2.715.656 1.113 3.585.082 4.742-.122 1.36-.246 2.718-.328 4.074-.453-.945 5.102-2.672 9.38-6.883 12.672-5.277 4.114-12.621 4.813-18.605 1.852-4.79-2.387-7.344-6.254-9.325-11.031 1.235-.16 2.473-.32 3.672-.364.27-.008.64.008 1.067.02 1.52.05 3.691.101 4.05-.93.293-.777-.171-2.137-.91-3.7-1.156-2.429-.414-3.581 1.32-5.312.829-.82.294-1.601-.581-2.175-.825-.54-1.934-1.07-2.43-1.852-.578-.781-.781-1.73-.91-3.336-.04-1.023-.29-2.59-1.48-2.922-1.364-.37-2.77.746-3.966 1.278-2.847 1.355-6.433 2.058-9.57 1.976-1.242 0-2.64-.332-3.793.082-.742.246-1.152.738-1.246 1.48-.281 1.93 1.285 3.618.832 5.637-.203.907-.738 1.645-1.687 2.797a1.49 1.49 0 0 0-.25.414c-.621 1.477 1.359 1.934 2.308 2.465 1.074.578 1.48 1.32 1.656 4.899.165 3.003 1.149 3.21 3.829 2.011 1.734-.902 3.628-1.437 5.488-1.972-.203 4.648-1.11 8.683-4 12.464-2.516 3.254-5.945 5.563-9.574 6.547-3.711.989-7.59.66-10.813-1.277-3.789-2.266-5.562-5.8-6.762-9.836 1.118-.242 2.23-.492 3.348-.656 1.477-.207 4.617-.082 5.113-2.059.285-.941-.254-2.05-.996-2.676-1.523-1.226-2.926-2.836-3.047-4.847-.046-.867 0-1.567.032-2.184.214-2.387-.774-4.48-3.332-4.36-2.75.153-3.895-.898-4.707-1.948-.93-1.207-1.418-2.414-3.38-1.801-2.066.617-4.792 2.965-5.284 4.98-.208.82.164 1.524.953 2.266 3.586 3.371 5.445 5.512 6.601 7.937 1.156 2.387 1.524 4.938 2.14 9.137.212 1.149.454 2.219.786 3.246 3.262 9.672 13.32 11.567 21.91 8.684 7.3-2.426 11.797-7.035 14.152-14.32 1.977 2.144 3.997 4.074 6.223 5.558 8.133 5.309 17.824 3.047 24.676-3.168 1.851-1.691 3.305-3.578 4.746-5.555 1.445 1.977 2.89 3.864 4.742 5.555 6.848 6.215 16.543 8.477 24.676 3.168 2.227-1.484 4.25-3.414 6.23-5.559 2.344 7.286 6.848 11.895 14.145 14.32 8.586 2.884 18.644.99 21.91-8.683.332-1.027.574-2.097.785-3.246.621-4.2.989-6.75 2.145-9.137 1.156-2.425 3.008-4.566 6.601-7.937.782-.742 1.153-1.445.946-2.266-.489-2.015-3.22-4.363-5.278-4.98-1.964-.613-2.453.594-3.382 1.8-.813 1.051-1.958 2.102-4.708 1.95-2.554-.121-3.542 1.972-3.332 4.36.036.616.079 1.316.036 2.183-.13 2.012-1.524 3.62-3.059 4.847-.738.625-1.277 1.735-.98 2.676.484 1.977 3.628 1.852 5.113 2.059 1.11.164 2.222.414 3.336.656-1.2 4.035-2.965 7.57-6.762 9.836-3.223 1.938-7.098 2.266-10.809 1.277-3.632-.984-7.058-3.293-9.574-6.547-2.89-3.78-3.797-7.816-4-12.464 1.86.535 3.746 1.07 5.485 1.972 2.683 1.2 3.675.992 3.84-2.011.164-3.579.578-4.32 1.648-4.899.95-.531 2.93-.988 2.309-2.465-.04-.129-.122-.25-.247-.414-.953-1.152-1.484-1.89-1.691-2.797-.453-2.02 1.113-3.707.828-5.636-.09-.743-.5-1.235-1.238-1.48-1.16-.415-2.563-.083-3.793-.083-3.14.082-6.73-.621-9.578-1.976-1.2-.536-2.602-1.649-3.957-1.278-1.2.328-1.446 1.899-1.492 2.922-.122 1.606-.325 2.555-.903 3.336-.496.781-1.613 1.313-2.437 1.852-.864.574-1.403 1.355-.567 2.175 1.723 1.73 2.469 2.883 1.317 5.313-.75 1.562-1.203 2.922-.914 3.7.355 1.034 2.543.98 4.066.925.418-.016.79-.027 1.055-.02 1.195.043 2.43.207 3.668.368-1.977 4.777-4.535 8.644-9.32 11.03-5.985 2.962-13.329 2.263-18.614-1.85-4.207-3.294-5.941-7.571-6.887-12.673 1.364.125 2.723.207 4.082.453 1.157.204 4.09 1.235 4.743.122.37-.575.332-1.524.129-2.715a20.085 20.085 0 0 1-.247-1.114c-.332-1.398-.254-2.261.204-3.082.664-1.07 1.777-1.32 2.476-2.183.371-.41.371-.988.043-1.434-.95-1.441-2.644-1.898-2.848-3.914-.043-.617 0-1.355.125-2.305.336-2.437-.52-3.425-2.101-3.425a5.42 5.42 0 0 0-1.121.133" style="stroke:none;fill-rule:nonzero;fill:url(#c)"/><path d="m133.871 58.035-3.797 2.676 4.086 1.562 3.754-2.593ZM175.125 58.035l3.793 2.676-4.082 1.562-3.754-2.593Zm0 0" style="stroke:none;fill-rule:nonzero;fill:#e01f26;fill-opacity:1"/><path d="M223.027 87H85.973v30.281h137.054Zm0 0" style="stroke:none;fill-rule:nonzero;fill:#000;fill-opacity:1"/><path d="M113.406 253.145h27.399v-20.282h-27.399ZM168.195 253.145h27.399v-20.286h-27.399ZM88.398 232.86h25.004V205.5H88.398ZM140.805 205.5h27.39v27.36h-27.39ZM220.594 205.5h-25v27.36h25ZM113.406 178.18h27.399v27.32h-27.399ZM168.195 178.18h27.399v27.32h-27.399ZM88.398 178.18h25.004v-27.325H88.398ZM140.805 150.855h27.39v27.325h-27.39ZM220.594 150.855h-25v27.325h25ZM140.805 125.926h-27.403v24.93h27.403ZM195.594 125.926h-27.399v24.93h27.399Zm0 0" style="stroke:none;fill-rule:nonzero;fill:#fff;fill-opacity:1"/><path d="M138.984 312.273h3.012v-13.988h-2.14c-.333 1.723-2.274 2.18-3.801 2.18v2.18h2.93ZM144.39 308.941c.083 2.88 1.606 3.696 4.333 3.696 3.59 0 4-2.871 4-5.844v-3.777c0-2.844-.95-5.02-4.168-5.02-3.547 0-4.418 2.05-4.418 5.266 0 2.14.586 4.277 3.18 4.277.992 0 1.445-.125 2.195-.7v.946c0 .824.16 2.473-1.04 2.473-.41 0-.699-.164-.867-.371-.125-.25-.164-.575-.203-.946Zm4.048-8.562c1.316 0 1.113 1.73 1.113 2.637 0 .78.082 2.136-1.078 2.136-1.196 0-1.11-1.355-1.11-2.222 0-.782-.086-2.551 1.075-2.551M154.5 308.688c0 2.761 1.484 3.949 4.16 3.949 3.266 0 4.258-1.52 4.258-4.645v-5.144c.078-3.207-.793-4.852-4.211-4.852-2.723 0-4.207 1.192-4.207 4.027Zm5.234-.243c0 .496.051 1.77-1.027 1.813-1.074 0-1.074-.945-1.074-1.813v-6.422c0-.777.043-1.644 1.074-1.644 1.156 0 1.027 1.441 1.027 1.644ZM167 306.145c.621.078 1.441-.086 2.02.285.62.363.742 1.355.742 1.972 0 .825-.168 1.856-1.192 1.856-1.324 0-1.16-1.606-1.203-2.551h-3.008v.945c.16 2.547 1.528 3.985 4.164 3.985 2.762 0 4.415-1.352 4.415-4.235 0-1.52-.497-3.082-2.262-3.496v-.043c1.36-.656 1.937-1.683 1.937-3.207 0-2.597-1.652-3.66-4.09-3.66-2.023 0-4.082 1.317-4.164 3.45v1.03h3.051c.043-.734-.082-2.054 1.031-2.054.91 0 1.11.66 1.11 1.441 0 .54-.16 1.317-.61 1.602-.539.414-1.32.367-1.941.414Zm0 0" style="stroke:none;fill-rule:nonzero;fill:#000;fill-opacity:1"/><path d="M150.703 57.953c-.375.535-.375 1.113-.043 1.64 1.2 1.938 6.399 2.063 7.676.169a1.579 1.579 0 0 0 0-1.684c-1.238-1.976-6.352-2.058-7.633-.125" style="stroke:none;fill-rule:nonzero;fill:#ec2227;fill-opacity:1"/><path d="M78.258 25.242c1.812-2.426 4.082-1.07 4.082 1.649v.492c.078 1.11.375 2.097 1.07 3.004a.767.767 0 0 0 .254.289c1.563 1.765 1.234 4.156-1.656 4.07-1.82-.082-3.75 1.277-5.528.328-1.488-.777-2.316-2.754-2.27-4.36.04-1.769.99-2.714 2.27-3.788.622-.488 1.239-1.024 1.778-1.684M152.023 22.035c-2.558.863-4.125-.988-2.968-3.332.613-1.32.613-2.637 0-3.953-1.2-2.426.41-4.195 2.968-3.332 1.528.539 3.426.539 4.95 0 2.558-.863 4.168.906 2.968 3.332-.617 1.316-.617 2.633 0 3.953 1.157 2.344-.41 4.195-2.968 3.332-1.45-.492-3.508-.492-4.95 0M113.902 26.352c-2.351 1.359-4.25-.204-3.554-2.715.375-1.399.129-2.719-.739-3.864-1.605-2.14-.41-4.199 2.313-3.824 1.61.2 3.465-.125 4.871-.953 2.39-1.316 4.285.125 3.586 2.719-.414 1.394-.164 2.715.742 3.867 1.57 2.098.371 4.238-2.351 3.824-1.489-.203-3.551.207-4.868.946" style="stroke:none;fill-rule:nonzero;fill:#000;fill-opacity:1"/><path d="M112.004 18.082c-1.117-.078-.29.496 0 1.027.82 1.36 1.07 2.72.82 4.286-.12.695-.574 1.355.457.898 1.614-.738 3.59-1.102 5.328-1.027 1.153.043.446-.407.079-.985-.782-1.363-1.07-2.758-.829-4.32.125-.578.664-1.398-.328-.95-1.652.782-3.75 1.2-5.527 1.071" style="stroke:none;fill-rule:nonzero;fill:#e01f26;fill-opacity:1"/><path d="M78.133 28.45c-1.281 1.03-1.86 1.73-1.324 3.5.742 2.507 2.441.988 4.496.863.703-.083 1.07-.204.457-.864-1.153-1.273-1.735-2.797-1.86-4.484v.039-.04c-.035-.698-.324-.491-.738-.081-.289.328-.664.781-1.031 1.066" style="stroke:none;fill-rule:nonzero;fill:#cc2027;fill-opacity:1"/><path d="M151.691 13.559c-1.074-.29-.37.406-.168.984.54 1.488.54 2.879 0 4.363-.242.66-.82 1.235.293.95a12.795 12.795 0 0 1 5.364 0c1.11.285.53-.29.289-.95-.535-1.484-.535-2.875 0-4.363.207-.578.906-1.273-.164-.984-1.778.406-3.88.406-5.614 0" style="stroke:none;fill-rule:nonzero;fill:#ec2227;fill-opacity:1"/><path d="M159.863 61.45c3.707.124 7.383.413 11.098.78l-4.414-3.042 4.945-1.977c-3.87-.406-7.707-.7-11.597-.82.21.207.421.449.59.699.695 1.191.695 2.586-.087 3.746-.168.203-.328.41-.535.613M137.5 57.21l4.95 1.977-4.415 3.043c3.719-.367 7.465-.656 11.223-.78a4.4 4.4 0 0 1-.738-.821c-.747-1.195-.708-2.594.078-3.75.125-.16.25-.324.414-.488-3.84.164-7.672.414-11.512.82" style="stroke:none;fill-rule:nonzero;fill:#f2c417;fill-opacity:1"/><path d="M230.738 25.242c-1.808-2.426-4.086-1.07-4.086 1.649v.492c-.078 1.11-.37 2.097-1.07 3.004a.752.752 0 0 1-.25.289c-1.555 1.765-1.234 4.156 1.656 4.07 1.813-.082 3.75 1.277 5.524.328 1.492-.777 2.312-2.754 2.27-4.36-.036-1.769-.985-2.718-2.27-3.788-.614-.488-1.239-1.024-1.774-1.684M195.098 26.352c2.347 1.359 4.246-.204 3.547-2.715-.372-1.399-.125-2.719.738-3.864 1.613-2.14.414-4.199-2.301-3.824-1.617.2-3.469-.125-4.875-.953-2.39-1.316-4.293.125-3.59 2.711.414 1.402.168 2.723-.742 3.875-1.563 2.098-.371 4.238 2.352 3.824 1.484-.203 3.546.207 4.87.946" style="stroke:none;fill-rule:nonzero;fill:#000;fill-opacity:1"/><path d="M196.996 18.082c1.113-.078.285.496 0 1.027-.824 1.36-1.074 2.72-.824 4.286.117.695.578 1.355-.457.898-1.613-.738-3.59-1.102-5.324-1.027-1.153.043-.457-.41-.082-.985.78-1.363 1.07-2.758.828-4.32-.125-.578-.664-1.398.328-.95 1.652.782 3.754 1.2 5.531 1.071" style="stroke:none;fill-rule:nonzero;fill:#e01f26;fill-opacity:1"/><path d="M230.867 28.45c1.274 1.03 1.856 1.73 1.317 3.5-.743 2.507-2.43.988-4.496.863-.7-.083-1.075-.204-.458-.864 1.16-1.273 1.735-2.797 1.864-4.484v.039-.04c.039-.698.328-.491.738-.081.29.328.66.781 1.035 1.066" style="stroke:none;fill-rule:nonzero;fill:#cc2027;fill-opacity:1"/><path d="M156.11 71.777v5.516c0 1.48 2.43 1.48 2.43 0v-5.516c0-.742-.61-1.113-1.216-1.113-.605 0-1.215.371-1.215 1.113m-5.652 0v5.516c0 1.48 2.43 1.48 2.43 0v-5.516c0-.742-.606-1.113-1.215-1.113-.606 0-1.215.371-1.215 1.113m11.348.207v5.309c0 1.48 2.386 1.48 2.386 0v-5.309c0-.742-.597-1.113-1.195-1.113-.594 0-1.191.371-1.191 1.113m-17.004 0v5.309c0 1.48 2.394 1.48 2.394 0v-5.309c0-.742-.597-1.113-1.199-1.113-.598 0-1.195.371-1.195 1.113m22.652.414v4.934c0 1.441 2.434 1.441 2.434 0v-4.934c0-.722-.61-1.082-1.215-1.082-.61 0-1.219.36-1.219 1.082m-28.344 0v4.934c0 1.441 2.434 1.441 2.434 0v-4.934c0-.722-.61-1.082-1.215-1.082-.61 0-1.219.36-1.219 1.082m34.04.696v4.238c0 1.441 2.394 1.441 2.394 0v-4.238c0-.719-.602-1.082-1.2-1.082-.597 0-1.195.363-1.195 1.082m-39.691 0v4.238c0 1.441 2.39 1.441 2.39 0v-4.238c0-.719-.597-1.082-1.195-1.082-.597 0-1.195.363-1.195 1.082m45.383.867v3.414c0 1.398 2.39 1.398 2.39 0v-3.414c0-.7-.597-1.05-1.195-1.05-.597 0-1.195.35-1.195 1.05m-51.074 0v3.414c0 1.398 2.39 1.398 2.39 0v-3.414c0-.7-.597-1.05-1.195-1.05-.598 0-1.195.35-1.195 1.05m56.726 1.105v2.348c0 1.313 2.434 1.313 2.434 0v-2.348c0-.656-.61-.984-1.219-.984-.605 0-1.215.328-1.215.984m-62.426 0v2.348c0 1.32 2.438 1.32 2.438 0v-2.348c0-.656-.61-.984-1.219-.984-.61 0-1.219.328-1.219.984m68.121 1.274v1.16c0 1.227 2.391 1.227 2.391 0v-1.16c0-.594-.598-.89-1.195-.89-.598 0-1.196.296-1.196.89m-73.765 0v1.16c0 1.234 2.39 1.234 2.39 0v-1.16c0-.594-.597-.89-1.195-.89-.597 0-1.195.296-1.195.89m79.414 1.281c-.035.367.375.742 1.246.695.816 0 1.227-.328 1.227-.656 0-.367-.41-.7-1.227-.7-.832 0-1.246.333-1.246.661m-85.152.04c0 .327.41.655 1.234.655.867.047 1.277-.328 1.246-.695 0-.328-.422-.66-1.246-.66-.824 0-1.234.332-1.234.7" style="stroke:none;fill-rule:nonzero;fill:url(#d)"/><path d="M98.012 74.371c-1.27.492-2.633 1.11-3.211 2.426-.25.496-.25 1.031-.125 1.52h6.972c33.829-13.04 71.872-13.04 105.7 0h6.976c.117-.489.117-1.024-.125-1.52-.582-1.317-1.941-1.934-3.222-2.426-18.008-7.266-37.243-10.894-56.48-10.894-19.235 0-38.47 3.628-56.485 10.894" style="stroke:none;fill-rule:nonzero;fill:url(#e)"/><path d="M47.766 116.133c4.496-2.223 9.195-5.64 11.964-9.836 1.403-2.098 2.844-4.856 2.598-7.406-.332-3.414-3.543-3.825-6.183-2.508-1.657.781-3.301 2.305-4.747 4.57-2.726 4.36-3.382 10.113-3.632 15.18M53.293 286.594c-6.02-3.328-13.04-5.551-19.93-3.946-1.52.329-2.886 1.063-3.754 1.973-1.691 1.77-1.03 4.156 1.04 5.27 1.562.859 3.667 1.027 5.398.945 5.41-.328 12.418-1.527 17.246-4.242M57.59 284.09c6.144-3.25 10.926-8.442 13.738-14.813.656-1.484.863-3.047.61-4.363-.532-2.637-3.047-3.539-5.36-2.383-1.695.817-3.133 2.508-4.039 4.028-3.059 5.02-4.582 11.726-4.95 17.53M46.648 266.93c5.579-4.485 9.528-10.082 11.227-17.075.41-1.683.375-3.335-.086-4.648-.906-2.637-3.508-3.09-5.652-1.441-1.524 1.191-2.68 3.207-3.383 5.02-2.106 5.558-2.64 12.218-2.106 18.144M42.813 269.023c-4.493-5.546-10.97-11.105-18.606-10.734-1.57.082-3.09.54-4.21 1.234-1.403.907-1.895 2.426-1.157 3.954.789 1.609 2.851 2.875 5.488 3.82 5.2 1.894 12.996 2.805 18.485 1.726M31.426 238.453c-1.856-3.578-4.25-7.117-7.219-9.914-2.64-2.469-5.738-4.316-9.242-4.894-1.606-.29-3.18-.204-4.418.289-1.606.574-2.344 1.89-1.942 3.578.461 1.894 2.48 3.742 5.122 5.351 2.851 1.684 6.398 3.125 9.738 4.117 3.137.899 6.023 1.438 7.96 1.473M36.05 237.922c2.227-.492 5.606-1.89 8.95-3.742 2.766-1.528 5.45-3.38 7.43-5.313 1.726-1.726 4.164-4.644 2.722-7.242-1.238-2.18-4.746-1.969-6.73-1.11-3.379 1.442-6.016 4.235-8.082 7.614-1.82 2.96-3.223 6.379-4.29 9.793M26.684 208.215c-1.403-3.703-3.301-7.406-5.778-10.371-2.226-2.672-4.906-4.73-8.086-5.633-1.445-.418-2.89-.453-4.039-.086-1.656.496-2.355 1.855-2.062 3.5.324 2.098 2.304 4.242 4.988 6.168 2.805 2.02 6.305 3.742 9.445 4.898 2.192.829 4.13 1.317 5.532 1.524M31.34 208.336c1.66-.246 4.004-.945 6.484-1.973 2.969-1.234 6.059-2.918 8.531-4.855 2.317-1.809 3.97-3.828 4.215-5.758.25-1.77-.738-3.21-2.476-3.75-1.114-.367-2.516-.367-3.79.121-3.265 1.113-5.94 3.629-8.128 6.797-1.946 2.8-3.504 6.125-4.836 9.418M31.016 180.77c1.28-.29 2.847-.864 4.582-1.602 3.375-1.441 7.215-3.621 10.273-6.05 2.883-2.345 4.988-4.891 5.152-7.24.086-1.769-.949-3.132-2.718-3.581-1.157-.29-2.524-.16-3.84.496-6.188 3.129-10.274 11.434-13.45 17.977M27.594 181.063c-.172-3.622-.621-7.536-1.61-11.157-1.156-4.027-3.054-7.73-6.195-10.035-1.191-.95-2.637-1.523-3.914-1.605-1.855-.125-2.762.945-3.016 2.675-.328 2.797 1.528 6.54 4.13 10.079 2.718 3.66 6.187 7.039 8.952 9.011.618.414 1.153.785 1.653 1.031M31.844 148.27c.695-3.665 1.191-7.7 1.07-11.528-.207-4.316-1.195-8.39-3.71-11.52-1.079-1.312-4.255-3.784-6.028-2.222-.54.453-.91 1.031-1.153 1.691-1.03 2.715-.085 6.91 1.645 11.024 1.82 4.281 4.457 8.437 6.766 11.07.496.578.992 1.074 1.41 1.485M35.64 149.664c.364.047.774 0 1.274 0 3.219-.164 8.05-1.27 12.461-3.125 4.246-1.77 8.043-4.2 9.238-7 .664-1.434.703-2.871-.863-3.656-1.113-.578-2.727-.82-4.371-.781-3.758.082-7.02 1.683-9.86 4.109-3.218 2.719-5.859 6.543-7.878 10.453M261.23 116.133c-4.492-2.223-9.199-5.64-11.964-9.836-1.399-2.098-2.844-4.856-2.598-7.406.328-3.414 3.547-3.825 6.187-2.508 1.649.781 3.297 2.3 4.743 4.57 2.722 4.36 3.382 10.113 3.632 15.18M255.7 286.594c6.027-3.328 13.038-5.551 19.929-3.946 1.523.329 2.887 1.063 3.754 1.973 1.691 1.77 1.031 4.156-1.031 5.27-1.563.859-3.672 1.027-5.407.945-5.402-.328-12.418-1.527-17.246-4.242M251.414 284.09c-6.152-3.25-10.934-8.442-13.742-14.813-.66-1.484-.863-3.047-.617-4.363.539-2.637 3.054-3.539 5.36-2.383 1.698.817 3.136 2.508 4.046 4.028 3.05 5.02 4.582 11.726 4.953 17.53M262.344 266.93c-5.57-4.485-9.528-10.082-11.223-17.075-.418-1.683-.371-3.335.082-4.648.906-2.637 3.512-3.09 5.656-1.441 1.52 1.191 2.676 3.207 3.383 5.02 2.102 5.558 2.637 12.218 2.102 18.144M266.18 269.023c4.496-5.546 10.972-11.105 18.61-10.734 1.565.082 3.089.54 4.206 1.23 1.402.91 1.895 2.43 1.156 3.958-.785 1.597-2.843 2.875-5.488 3.82-5.195 1.894-12.996 2.805-18.484 1.726M277.57 238.453c1.856-3.578 4.25-7.117 7.22-9.914 2.636-2.469 5.733-4.316 9.237-4.894 1.61-.29 3.18-.204 4.418.289 1.606.574 2.356 1.89 1.938 3.578-.453 1.894-2.473 3.742-5.121 5.351-2.836 1.684-6.39 3.125-9.727 4.117-3.14.899-6.031 1.438-7.965 1.473M272.95 237.922c-2.231-.492-5.618-1.89-8.958-3.742-2.762-1.528-5.441-3.38-7.422-5.313-1.734-1.726-4.168-4.644-2.722-7.242 1.234-2.18 4.742-1.969 6.73-1.11 3.379 1.442 6.012 4.235 8.078 7.614 1.82 2.96 3.219 6.379 4.293 9.793M282.313 208.215c1.402-3.703 3.296-7.406 5.777-10.371 2.226-2.672 4.91-4.73 8.086-5.633 1.441-.418 2.887-.453 4.043-.086 1.648.496 2.351 1.855 2.062 3.5-.332 2.098-2.308 4.242-4.992 6.168-2.809 2.02-6.309 3.742-9.445 4.898-2.188.829-4.13 1.317-5.531 1.524M277.656 208.336c-1.652-.246-4.004-.945-6.476-1.973-2.977-1.234-6.07-2.918-8.547-4.855-2.313-1.809-3.957-3.828-4.207-5.758-.25-1.77.742-3.21 2.472-3.75 1.122-.367 2.516-.367 3.797.121 3.262 1.113 5.938 3.629 8.133 6.797 1.934 2.8 3.504 6.125 4.828 9.418M277.98 180.77c-1.273-.29-2.847-.864-4.578-1.602-3.386-1.441-7.222-3.621-10.27-6.05-2.89-2.345-5-4.891-5.16-7.24-.081-1.769.95-3.132 2.72-3.581 1.156-.29 2.519-.16 3.835.496 6.192 3.129 10.278 11.434 13.453 17.977M281.402 181.063c.176-3.622.621-7.536 1.61-11.157 1.16-4.027 3.058-7.73 6.191-10.035 1.195-.95 2.64-1.523 3.922-1.605 1.852-.125 2.758.945 3.008 2.675.332 2.797-1.524 6.54-4.125 10.079-2.727 3.66-6.188 7.039-8.95 9.011-.62.414-1.16.785-1.656 1.031M277.152 148.27c-.699-3.665-1.199-7.7-1.07-11.528.207-4.316 1.2-8.39 3.715-11.52 1.074-1.312 4.246-3.784 6.023-2.222.535.453.91 1.031 1.153 1.691 1.03 2.715.082 6.91-1.653 11.024-1.812 4.281-4.449 8.437-6.765 11.07a22.558 22.558 0 0 1-1.403 1.485M273.36 149.664c-.372.047-.786 0-1.282 0-3.215-.164-8.047-1.27-12.45-3.125-4.257-1.77-8.046-4.2-9.25-7-.66-1.434-.702-2.871.864-3.656 1.121-.578 2.727-.82 4.371-.781 3.762.082 7.02 1.683 9.864 4.109 3.222 2.719 5.863 6.543 7.882 10.453" style="stroke:none;fill-rule:nonzero;fill:#0e9f49;fill-opacity:1"/><path d="M181.887 92.102h24.636v3.789h-20.875a.734.734 0 0 0-.742.738v11.066c0 .375.324.703.742.703h20.875v3.782h-24.636a4.775 4.775 0 0 1-4.778-4.77V96.88c0-2.598 2.141-4.777 4.778-4.777M138.2 92.102h29.046v3.582h-21.25v4.527h17.828v2.879h-17.828v9.09H138.2ZM164.605 112.18h3.465v-3.453h-3.465ZM209.863 112.18h3.508v-3.453h-3.508ZM128.844 112.18h3.465v-3.453h-3.465ZM114.684 103.09h-11.22v5.965h11.263c1.73 0 2.597-1.442 2.472-3.086-.086-1.313-1.07-2.88-2.515-2.88m-11.22-7.855v4.973h11.63c3.015 0 2.933-4.644.043-4.973Zm-7.843-3.132h23.192c2.761 0 6.062 1.363 5.98 4.566-.043 2.55-1.941 4.035-4.375 4.113 3.055.582 4.254 2.14 4.418 5.106.242 3.949-1.856 6.21-6.023 6.293H95.62Zm0 0" style="stroke:none;fill-rule:nonzero;fill:#fff;fill-opacity:1"/></svg>