<svg xmlns="http://www.w3.org/2000/svg" xml:space="preserve" width="752.5733" height="892.56" viewBox="0 0 752.57331 892.55998"><defs><clipPath id="a" clipPathUnits="userSpaceOnUse"><path d="M0 841.89h595.28V0H0Z"/></clipPath></defs><g clip-path="url(#a)" transform="matrix(1.33333 0 0 -1.33333 -20.933 955.853)"><path d="M0 0v-146.103s-30.167-7.808-32.773-48.034c-2.472-38.27-9.88-176.382-10.592-189.671a32.633 32.633 0 0 0-.195-2.229c-.801-6.496-5.224-38.356-18.315-70.025-14.665-35.491-45.308-106.707-122.679-163.848 0 0-48.091-34.072-97.661-49.51-48.147 15.35-96.653 49.066-96.653 49.066-78.734 56.431-109.192 128.745-123.864 164.236-14.665 35.491-18.101 71.337-18.101 71.337s-8.042 150.014-10.647 190.233c-2.598 40.225-32.95 48.445-32.95 48.445V0Z" style="fill:#000;fill-opacity:1;fill-rule:nonzero;stroke:none" transform="translate(580.13 716.89)"/><path d="M0 0c-19.769-13.742-30.664-34.391-32.418-61.485-2.122-32.872-7.538-138.089-9.575-177.704-.327-6.346-.547-10.726-.639-12.436-.596-4.926-4.571-34.54-16.596-63.622l-.972-2.364c-12.834-31.147-39.537-95.939-113.352-150.127-.49-.334-1.001-.724-1.725-1.264-24.389-18.235-56.182-31.707-80.181-40.495-28.72 9.405-56.843 23.126-81.069 40.531-.597.426-1.058.759-1.384.979-73.133 53.024-99.873 117.76-112.727 148.886l-.519 1.242c-12.329 29.848-16.815 59.739-17.341 66.113-.284 3.421-2.015 34.803-3.854 68.037-2.463 44.676-5.537 100.276-6.956 122.196-2.13 33.028-17.654 51.533-32.595 61.768v104.536H0Zm-525.184 118.072V-7.176c10.874-5.878 30.373-20.315 32.623-55.196 2.52-38.87 10.151-182.247 10.825-190.467.533-6.445 5.146-38.245 18.307-70.095 12.641-30.579 40.552-99.908 117.852-155.899 3.243-2.179 37.869-28.833 90.104-45.066 60.861 21.678 86.379 43.164 89.609 45.336C-86.953-420.712-59.59-350.894-46.955-320.315c13.118 31.729 17.171 64.232 17.561 67.547.44 8.276 7.716 151.554 10.229 190.431 2.2 33.937 20.499 48.268 32.446 55.012v125.397z" style="fill:#fff;fill-opacity:1;fill-rule:nonzero;stroke:none" transform="translate(553.866 585.835)"/><path d="M0 0s-36.911 16.089-57.969 0-20.585-44.482-13.487-57.969c7.099-13.487 24.785-37.872 69.977-17.997L.784-65.585s-41.244-21.013-55.44 9.982c0 0-11.358 27.21 10.174 42.59 0 0 15.379 9.7 44.482-4.259z" style="fill:#fff;fill-opacity:1;fill-rule:nonzero;stroke:none" transform="translate(218.002 593.738)"/><path d="M0 0s-36.911 16.089-57.969 0-20.585-44.482-13.487-57.969c7.099-13.487 24.785-37.872 69.977-17.997L.784-65.585s-41.244-21.013-55.44 9.982c0 0-11.358 27.21 10.174 42.59 0 0 15.379 9.7 44.482-4.259z" style="fill:#fff;fill-opacity:1;fill-rule:nonzero;stroke:none" transform="translate(446.562 372.992)"/><path d="m0 0-37.472-22.686.22 32.978 42.632-.253c1.782 0 3.018-1.77 1.975-3.215C3.631 1.669 0 0 0 0m18.583 13.913c-1.343 4.688-5.948 8.6-5.948 8.6a7.311 7.311 0 0 1-4.998 1.976h-64.423v-88.728h19.045l.163 25.057c8.284 2.825 20.525 10.284 25.511 13.508 6.074 3.927 21.466 14.491 28.095 21.235 6.743 6.862 2.555 18.352 2.555 18.352" style="fill:#fff;fill-opacity:1;fill-rule:nonzero;stroke:none" transform="translate(431.543 575.167)"/><path d="M0 0c-8.759.554-23.779-.277-45.606-7.382 0 0 19.286 21.337 45.606 29.067zm0 37.805c-25.106-6.644-70.542-26.966-69.385-86.889h9.405S-63.707-13.416 0-12.883v-36.201h16.148v89.97S9.54 40.332 0 37.805" style="fill:#fff;fill-opacity:1;fill-rule:nonzero;stroke:none" transform="translate(205.343 338.604)"/><path d="M0 0v-155.984l-44.605 43.832h-108.241V-320.13l43.299-44.599h-158.291l42.824 44.301v208.276h-108.127l-44.485-43.299V0l44.485-43.299h108.127V67.788l-42.824 44.009h158.291l-43.299-44.484V-43.299h108.475z" style="fill:#fff;fill-opacity:1;fill-rule:nonzero;stroke:none" transform="translate(486.788 523.584)"/><path d="m0 0 34.902 36.105v216.471H-81.431l-36.279-35.312v127.807l36.279-35.312H34.902v119.293L.063 464.855h130.649L95.4 428.577V309.759h116.686l36.16 35.287V216.824l-36.382 35.752H95.4V36.396L130.736 0Z" style="fill:#e40b1d;fill-opacity:1;fill-rule:nonzero;stroke:none" transform="translate(232.707 164.69)"/><path d="M0 0v-21.295h-130.423v-226.313h-21.763v226.313h-131.083V0h131.083v130.139h21.763V0Z" style="fill:#fff;fill-opacity:1;fill-rule:nonzero;stroke:none" transform="translate(439.28 455.32)"/></g></svg>