<svg xmlns="http://www.w3.org/2000/svg" width="275.938638" height="362.399411" viewBox="0 0 300 394.2027"><path fill="#fff" stroke="#d9291c" stroke-linecap="round" stroke-linejoin="bevel" stroke-width="10.5189" d="M165.548 143.313c1.151.488 2.288 1.011 3.454 1.46 4.436 1.707 8.861 3.44 13.328 5.061 2.217.804 3.212 2.208 3.657 4.569 1.35 7.166 8.799 10.608 14.995 6.808 3.213-1.969 5.97-4.685 8.918-7.08.09-.075.029-.336.033-.412-14.825-3.34-28.566-11.026-44.385-10.406m-50.825 134.641c-18.609-6.546-31.128-19.936-40.936-36.231-9.978-16.58-12.537-34.581-8.961-53.973-10.41 9.573-11.808 36.83-2.796 55.81 11.297 23.79 35.173 34.79 52.693 34.394m-61.3-26.08c-1.735 3.973-.149 6.845.914 9.685 7.433 19.866 21.252 33.85 39.972 43.37 10.945 5.565 22.703 8.717 34.37 12.227 15.121 4.55 29.912 9.929 42.664 19.683.495.38 1.492.713 1.925.472 4.206-2.334 8.342-4.796 12.706-7.342-.834-.703-1.364-1.186-1.929-1.622-7.922-6.1-16.808-10.39-26.145-13.787-19.1-6.952-38.287-13.672-57.313-20.824-9.459-3.555-18.187-8.673-26.202-14.869-9.091-7.028-16.725-15.274-20.963-26.993m149.294 12.072.254-1.22c4.69.452 9.458.507 14.048 1.44 9.775 1.987 19.45 4.458 29.186 6.64.859.191 2.288.044 2.731-.516 1.505-1.9 2.686-4.057 4.154-6.374-1.169-.467-1.97-.894-2.825-1.112-7.358-1.87-14.664-4.014-22.103-5.477-12.738-2.504-25.21-5.705-36.688-11.948-12.269-6.675-22.186-15.54-26.498-29.425-.136-.437-.523-.795-.976-1.456-1.917 4.836-2.226 9.401-1.266 14.08 1.777 8.652 6.872 15.458 12.279 22.094.929 1.139 1.826 2.303 2.74 3.455-12.798-4.422-22.358-12.526-28.838-24.14-6.529-11.702-7.934-24.049-4.191-36.994-11.302 13.404-11.703 28.341-6.127 44.228-.87-.377-1.468-.76-1.944-1.258-8.203-8.595-11.07-19.234-10.27-30.612 1.158-16.506 9.827-28.146 25.07-34.78 2.473-1.076 4.936-2.182 7.403-3.275q-.122-.578-.245-1.157c-2.98.357-5.99.558-8.938 1.096-21.968 4.005-35.655 22.952-32.582 45.097 1.676 12.074 7.988 21.701 16.416 30.072 13.397 13.31 29.939 21.155 47.585 27.049 10.94 3.654 21.928 7.195 32.733 11.218 6.925 2.58 13.558 5.946 20.583 9.075l5.732-6.95c-11.642-8.588-24.665-13.462-37.423-18.85m22.141 36.02c-2.48-1.495-4.466-3.03-6.702-3.982-10.099-4.301-20.108-8.902-30.454-12.522-14.808-5.181-29.587-10.282-43.098-18.45-15.19-9.185-27.982-20.644-35.652-37.06-8.202-17.551-7.053-34.515 3.43-50.727 7.813-12.085 19.287-18.988 33.091-22.323 1.423-.344 2.826-.774 4.237-1.163l-.043-1.12c-2.172-.468-4.334-1.287-6.517-1.348-13.78-.379-26.373 3.58-38.02 10.802a627 627 0 0 1-9.14 5.583c-.534.32-1.206.406-2.587.848 1.164-1.78 1.825-2.86 2.552-3.893 8.457-12.008 19.68-20.574 33.025-26.488 13.646-6.048 28.027-8.408 42.847-8.224 12.015.148 23.707 2.264 34.837 6.923 7.164 2.999 13.685 6.908 16.386 14.798.722 2.111 1.795 2.71 3.853 2.97 7.933 1.001 15.024 3.965 20.772 9.702 7.96 7.944 8.327 19.571.808 27.965-1.986 2.217-4.137 4.355-7.61 5.05.203-1.314.353-2.376.536-3.433 1.148-6.647-1.359-11.137-7.837-13.04-3.744-1.1-7.673-1.88-11.56-2.108-12.464-.73-24.346 1.331-34.656 8.947-10.167 7.51-12.094 17.193-6.046 28.274 4.496 8.24 11.504 13.707 19.629 17.832 17.897 9.089 37.043 12.945 57.018 13.36 3.065.065 4.499-.91 5.714-3.66 8.22-18.604 13.105-38.073 15.324-58.229 2.46-22.362 1.396-44.661-1.63-66.896-2.03-14.916-5.356-29.544-9.803-43.934-.849-2.745-2.212-4.308-4.918-5.186-8.622-2.798-17.075-6.174-25.794-8.602-31.017-8.639-62.619-12.248-94.862-11.485-36.195.855-71.187 7.2-105 20.134-2.53.968-3.946 2.366-4.75 5.014-6.774 22.284-10.805 45.028-12.25 68.279-2.004 32.241 1.369 63.684 13.286 93.929 1.958 4.969 4.203 9.826 6.316 14.735.321-4.312.078-8.418.363-12.487 1.248-17.742 5.681-34.705 13.409-50.712 10.475-21.7 26.002-38.62 47.869-49.321.756-.37 1.568-.624 2.355-.931-.044.878-.337 1.304-.684 1.68-16.566 17.973-24.722 38.981-21.275 63.442 4.295 30.464 19.16 54.23 47.243 68.213 11.94 5.945 24.58 10.488 36.926 15.613a9927 9927 0 0 0 48.523 19.99c.884.36 2.364.585 2.956.11 2.55-2.039 4.872-4.364 7.584-6.868M5.355 159.335c-.436-24.396 2.262-48.472 8.352-72.117 2.055-7.978 4.545-15.843 6.651-23.809.713-2.694 2.286-4.071 4.746-5.11 15.495-6.537 31.472-11.52 47.865-15.223 17.357-3.922 34.863-6.84 52.643-7.994 47.71-3.098 94.159 2.93 139.177 19.25 3.7 1.341 7.378 2.802 10.909 4.53 1.289.63 2.626 2.026 3.084 3.366 10.8 31.57 16.067 63.983 15.957 97.428-.084 25.092-3.635 49.48-11.399 73.26-9.016 27.616-23.81 51.832-43.805 72.88-19.867 20.915-43.276 36.908-69.108 49.491a392 392 0 0 1-18.24 8.339c-1.333.567-3.309.59-4.644.037-16.871-7.012-33.058-15.356-48.315-25.442-33.336-22.035-59.163-50.66-75.768-87.184-10.969-24.13-16.69-49.6-18.066-76.04-.271-5.207-.04-10.44-.04-15.662"/><path fill="#fff" d="m12.916 126.261 13.767-61.588 57.965-17.752 62.313-6.158s32.719 2.88 59.222 5.5c26.504 2.617 46.792 4.972 62.505 18.41 16.607 14.203 17.338 60.563 17.338 60.563l.82 46.65-4.252 46.65-26.41 53.35-22.453 29.841-27.525 26.582-53.087 23.654-56.063-35.594-50.99-38.493-28.949-62.581-4.406-44.26z"/><g fill="#d9291c"><path d="M224.857 299.967c-2.713 2.504-5.034 4.83-7.583 6.869-.593.474-2.072.25-2.956-.112a9776 9776 0 0 1-48.523-19.99c-12.346-5.124-24.987-9.666-36.926-15.612-28.084-13.982-42.949-37.75-47.243-68.213-3.448-24.46 4.708-45.469 21.275-63.442.346-.376.639-.802.683-1.68-.786.307-1.599.56-2.355.93-21.867 10.701-37.393 27.623-47.869 49.322-7.727 16.007-12.16 32.97-13.408 50.713-.286 4.068-.042 8.174-.364 12.486-2.112-4.909-4.358-9.766-6.316-14.735-11.917-30.243-15.29-61.688-13.286-93.93 1.446-23.25 5.476-45.994 12.25-68.278.805-2.648 2.22-4.045 4.75-5.013 33.814-12.936 68.806-19.28 105-20.135 32.244-.763 63.846 2.846 94.862 11.485 8.72 2.428 17.172 5.804 25.794 8.602 2.706.878 4.07 2.441 4.919 5.186 4.447 14.39 7.773 29.018 9.802 43.934 3.026 22.235 4.092 44.534 1.63 66.896-2.218 20.157-7.102 39.625-15.324 58.229-1.215 2.75-2.648 3.723-5.715 3.66-19.973-.415-39.12-4.271-57.017-13.36-8.125-4.125-15.132-9.591-19.63-17.832-6.047-11.081-4.12-20.765 6.047-28.274 10.311-7.615 22.193-9.676 34.657-8.947 3.886.227 7.816 1.008 11.559 2.107 6.48 1.904 8.986 6.393 7.838 13.041-.183 1.057-.333 2.119-.537 3.433 3.474-.695 5.625-2.833 7.61-5.048 7.52-8.396 7.152-20.024-.807-27.967-5.748-5.737-12.84-8.7-20.773-9.703-2.057-.259-3.13-.858-3.852-2.969-2.702-7.89-9.223-11.8-16.386-14.798-11.13-4.658-22.822-6.775-34.837-6.923-14.82-.184-29.202 2.176-42.848 8.224-13.344 5.914-24.568 14.48-33.024 26.488-.728 1.033-1.388 2.112-2.552 3.893 1.38-.442 2.052-.529 2.586-.847a626 626 0 0 0 9.141-5.584c11.646-7.222 24.238-11.18 38.018-10.802 2.184.06 4.347.88 6.52 1.349l.042 1.12c-1.413.39-2.814.818-4.238 1.162-13.804 3.335-25.277 10.238-33.092 22.323-10.481 16.212-11.63 33.176-3.43 50.726 7.672 16.417 20.463 27.876 35.653 37.061 13.51 8.168 28.29 13.269 43.098 18.45 10.347 3.62 20.355 8.22 30.455 12.522 2.235.952 4.221 2.488 6.702 3.983"/><path d="M202.716 263.946c12.758 5.387 25.781 10.262 37.424 18.85l-5.733 6.95c-7.025-3.129-13.658-6.495-20.582-9.075-10.805-4.023-21.792-7.565-32.734-11.218-17.646-5.894-34.188-13.74-47.585-27.05-8.426-8.371-14.74-17.996-16.416-30.07-3.073-22.146 10.615-41.093 32.583-45.098 2.947-.537 5.957-.74 8.937-1.096l.246 1.157c-2.468 1.092-4.93 2.198-7.405 3.275-15.242 6.633-23.91 18.274-25.069 34.78-.798 11.378 2.067 22.016 10.27 30.611.476.5 1.074.882 1.946 1.258-5.578-15.886-5.176-30.823 6.125-44.227-3.741 12.945-2.337 25.292 4.193 36.995 6.478 11.613 16.038 19.716 28.836 24.139-.912-1.152-1.811-2.316-2.739-3.456-5.408-6.635-10.503-13.442-12.28-22.094-.96-4.679-.65-9.244 1.266-14.08.453.662.841 1.02.976 1.456 4.312 13.885 14.23 22.751 26.498 29.425 11.478 6.244 23.95 9.444 36.688 11.948 7.44 1.463 14.746 3.608 22.104 5.478.854.218 1.656.645 2.824 1.112-1.467 2.316-2.648 4.473-4.154 6.374-.442.56-1.87.707-2.73.515-9.736-2.182-19.412-4.653-29.185-6.64-4.591-.933-9.36-.987-14.048-1.44zM53.422 251.874c4.237 11.719 11.872 19.965 20.963 26.993 8.015 6.196 16.743 11.314 26.202 14.87 19.025 7.15 38.213 13.872 57.313 20.823 9.337 3.399 18.223 7.689 26.144 13.787.567.436 1.096.919 1.93 1.622-4.364 2.547-8.5 5.008-12.706 7.343-.433.24-1.43-.094-1.926-.473-12.75-9.753-27.541-15.132-42.663-19.682-11.668-3.511-23.425-6.661-34.37-12.227-18.72-9.52-32.539-23.504-39.972-43.371-1.063-2.84-2.648-5.712-.915-9.685"/><path d="M114.723 277.954c-17.52.396-41.396-10.604-52.693-34.395-9.012-18.979-7.615-46.236 2.795-55.809-3.575 19.393-1.016 37.394 8.962 53.974 9.808 16.296 22.327 29.684 40.936 36.23M165.548 143.313c15.819-.62 29.56 7.065 44.385 10.406 0 .076.058.338-.033.412-2.948 2.395-5.705 5.111-8.917 7.08-6.197 3.8-13.646.358-14.996-6.808-.445-2.361-1.44-3.765-3.656-4.569-4.467-1.62-8.893-3.354-13.329-5.061-1.165-.449-2.303-.972-3.453-1.46M150 375.029l2.38 7.324h7.701l-6.23 4.526 2.38 7.324-6.23-4.526-6.23 4.526 2.38-7.324-6.23-4.526h7.7zM130.93 370.457l2.379 7.324h7.7l-6.23 4.526 2.38 7.324-6.23-4.526-6.23 4.526 2.38-7.324-6.23-4.526h7.7zM111.858 357.632l2.38 7.324h7.7l-6.23 4.526 2.38 7.324-6.23-4.526-6.23 4.526 2.38-7.324-6.23-4.526h7.7zM92.787 347.56l2.38 7.324h7.7l-6.23 4.526 2.38 7.324-6.23-4.526-6.23 4.526 2.38-7.324-6.23-4.526h7.7zM73.715 334.735l2.38 7.324h7.7l-6.23 4.526 2.38 7.324-6.23-4.526-6.23 4.526 2.38-7.324-6.23-4.526h7.7zM169.072 370.457l-2.38 7.324h-7.7l6.23 4.526-2.38 7.324 6.23-4.526 6.23 4.526-2.38-7.324 6.23-4.526h-7.7zM188.144 357.632l-2.38 7.324h-7.7l6.23 4.526-2.38 7.324 6.23-4.526 6.23 4.526-2.38-7.324 6.23-4.526h-7.7zM207.216 347.56l-2.38 7.324h-7.7l6.23 4.526-2.38 7.324 6.23-4.526 6.23 4.526-2.38-7.324 6.23-4.526h-7.7zM226.287 334.735l-2.38 7.324h-7.7l6.23 4.526-2.38 7.324 6.23-4.526 6.23 4.526-2.38-7.324 6.23-4.526h-7.7zM21.432 32.498a9.1 9.1 0 0 1 1.925-4.865q1.668-2.132 4.615-3.325 2.534-1.025 4.914-.883 2.38.143 4.336 1.37 1.955 1.228 3.304 3.374l-6.444 2.607q-.83-.784-1.86-.994-1.029-.207-2.076.215-1.542.625-1.969 2.143-.427 1.519.365 3.474.79 1.955 2.153 2.75t2.905.17q1.047-.423 1.642-1.29.595-.864.646-2.007l6.443-2.608q.524 2.48-.028 4.723-.551 2.242-2.163 4-1.612 1.757-4.145 2.782-2.946 1.193-5.629.82-2.682-.372-4.766-2.157t-3.254-4.676q-1.17-2.89-.914-5.623M56.228 29.13q.865-1.562.166-3.71-.699-2.145-2.319-2.9-1.62-.753-3.738-.063l-1.497.488 2.906 8.926 1.497-.488q2.119-.69 2.985-2.252m-1.203-12.855q2.772.503 4.78 2.348 2.006 1.847 2.945 4.727.928 2.854.403 5.555-.526 2.702-2.458 4.783-1.93 2.082-5.066 3.103l-8.332 2.713-6.512-19.998 8.332-2.713q3.136-1.021 5.908-.518M74.408 29.602q-2.796-1.148-3.793-4.421l6.817-1.633q.566 1.727 1.982 1.388.52-.124.823-.457.302-.33.177-.852-.172-.722-1.06-.983-.887-.261-2.672-.444-2.13-.223-3.576-.58-1.444-.355-2.673-1.405t-1.678-3.05q-.477-1.993.213-3.64t2.293-2.795 3.828-1.68q3.755-.9 6.381.304 2.625 1.203 3.495 4.325l-6.904 1.654q-.237-.86-.731-1.139a1.43 1.43 0 0 0-1.072-.14.9.9 0 0 0-.599.434q-.194.337-.077.828.165.693 1.039.957.873.265 2.7.499 2.108.26 3.525.622a7 7 0 0 1 2.624 1.326q1.208.963 1.637 2.754.45 1.878-.118 3.587-.57 1.71-2.13 2.969-1.561 1.26-3.988 1.841-3.668.88-6.464-.269M100.89 17.32l-2.864-5.446-.883 6.09zm2.42 4.618-6.91 1.186-.486 3.309-6.822 1.17 4.025-22.03 7.495-1.286 11.111 19.432-6.85 1.176zM132.923 21.653l-6.563.643-7.979-9.845 1.032 10.525-6.564.643-2.05-20.931 6.563-.643 7.996 10.021-1.048-10.702 6.564-.642zM151.4 0l.17 5.225-5.581.183.515 15.794-6.591.215-.516-15.795-5.522.18-.17-5.225zM165.674 13.23l-1.712-5.91-2.088 5.787zm1.444 5.009-7.007-.225-1.14 3.144-6.919-.223L160.417.162l7.601.243 6.985 21.267-6.948-.223zM183.672 6.304a9.1 9.1 0 0 1 4.033-3.332q2.49-1.064 5.647-.686 2.713.326 4.73 1.598 2.017 1.275 3.137 3.292 1.12 2.019 1.265 4.55l-6.902-.826q-.349-1.089-1.149-1.768-.802-.68-1.922-.813-1.653-.198-2.759.926-1.107 1.125-1.357 3.219t.56 3.447 2.462 1.551q1.12.134 2.06-.337.938-.47 1.534-1.447l6.901.826q-.738 2.424-2.302 4.122-1.566 1.698-3.825 2.46-2.26.761-4.973.437-3.156-.378-5.326-1.999a9.1 9.1 0 0 1-3.133-4.19q-.965-2.567-.595-5.664.371-3.098 1.914-5.366M210.354 21.27l6.256 1.124-.882 4.912-12.747-2.29 3.717-20.7 6.491 1.166zM230.957 22.468l-.472-6.135-3.223 5.24zm.392 5.198-6.814-1.648-1.757 2.845-6.727-1.628 12.423-18.632 7.392 1.788 2.503 22.244L231.613 31zM249.332 23.63l2.494.784q.906.286 1.49.017.582-.267.858-1.146.25-.794-.076-1.394-.325-.6-1.203-.877l-2.493-.784zm.215 12.586-1.506-8.383-.028-.01-2.264 7.198-6.29-1.979 6.31-20.063 9.35 2.941q2.437.766 3.894 2.175t1.854 3.167-.192 3.63q-.634 2.013-2.243 3.218-1.609 1.207-3.92 1.227l1.95 9.052zM272.131 35.682l.356-6.143-3.898 4.76zm-.308 5.204-6.531-2.548-2.124 2.584-6.448-2.516 14.812-16.797 7.084 2.764-.504 22.378-6.476-2.526z"/></g><g fill="#fff" stroke="#d9291c"><g stroke-width="1.82127"><path d="m79.238 85.898-2.611-4.28-.403 4.997zm2.208 3.63-5.558 1.322-.224 2.717-5.487 1.305 2.131-18.124 6.029-1.435L88.38 90.54l-5.51 1.312zM109.815 81.692q.644-.563.914-1.455l5.613-.764q-.094 2.725-1.607 4.714-1.514 1.99-4.144 2.762l.12-.016.111.815a3.9 3.9 0 0 1 1.429.087q.758.178 1.35.77.594.59.738 1.646.211 1.56-.775 2.39t-2.425 1.026l-4.15.564-.369-2.71 3.599-.49q.287-.04.44-.17.154-.131.13-.298-.047-.36-.672-.275l-2.039.277-.434-3.19c-1.465 0-2.782-.305-3.95-.928a7.5 7.5 0 0 1-2.838-2.643q-1.088-1.71-1.4-4.012-.345-2.518.408-4.624a7.43 7.43 0 0 1 2.498-3.454q1.746-1.35 4.313-1.699 2.207-.3 4.058.291a7.36 7.36 0 0 1 3.149 1.954q1.296 1.362 1.93 3.328l-5.612.763q-.498-.786-1.269-1.158a2.9 2.9 0 0 0-1.683-.248q-1.343.183-1.986 1.297-.642 1.113-.41 2.816.231 1.704 1.148 2.604t2.26.719a2.9 2.9 0 0 0 1.555-.688M141.419 78.621q.833-1.06.77-2.801-.063-1.766-.972-2.763-.907-.996-2.505-.938-1.62.059-2.455 1.119-.833 1.06-.768 2.825.063 1.743.971 2.738.909.997 2.53.938 1.595-.058 2.429-1.118m-6.728 5.15a8.5 8.5 0 0 1-3.32-3.029q-1.258-1.965-1.35-4.48-.09-2.516 1.021-4.567a8.4 8.4 0 0 1 3.092-3.249q1.98-1.199 4.398-1.286 2.418-.089 4.468.964a8.37 8.37 0 0 1 3.294 3.017q1.246 1.966 1.338 4.48.092 2.517-1.009 4.568a8.4 8.4 0 0 1-3.079 3.26q-1.978 1.211-4.373 1.297-2.42.09-4.48-.975M167.529 75.112l2.126.126q.773.046 1.181-.281.407-.328.452-1.077.04-.675-.336-1.087-.376-.41-1.125-.455l-2.125-.126zm2.66 9.906-2.849-6.329h-.024l-.363 6.138-5.365-.319 1.016-17.108 7.975.474q2.078.123 3.508.948t2.092 2.137.566 2.907q-.102 1.716-1.135 2.988-1.034 1.272-2.855 1.746l3.331 6.77zM196.64 74.902l-.308 2.084 5.27.775-.588 4-5.27-.776-.352 2.395 5.987.88-.623 4.24-11.304-1.663 2.494-16.956 11.304 1.663-.624 4.239zM216.178 90.2q-1.615-1.859-1.142-4.607l5.56 1.308q-.219 1.464.935 1.736.424.1.766-.03.342-.132.442-.556.136-.588-.413-1.104-.55-.515-1.782-1.302-1.47-.942-2.39-1.731-.922-.788-1.432-2.003-.51-1.214-.104-2.834.381-1.626 1.488-2.572 1.105-.946 2.693-1.195 1.587-.248 3.402.179 3.062.72 4.534 2.558 1.47 1.837.96 4.428l-5.633-1.324q.143-.712-.114-1.096a1.17 1.17 0 0 0-.73-.495.73.73 0 0 0-.594.096q-.265.174-.36.575-.132.565.407 1.077.537.512 1.783 1.352 1.44.96 2.338 1.743a5.7 5.7 0 0 1 1.424 1.927q.527 1.143.183 2.604-.36 1.532-1.4 2.568t-2.637 1.382q-1.599.345-3.578-.12-2.992-.705-4.606-2.563"/></g><g stroke-linecap="round" stroke-linejoin="bevel" stroke-width=".895746"><path d="M127.474 108.356v-2.935h4.783v10.316h-3.288v-7.38zM144.802 109.344q.226-.212.227-.593 0-.422-.219-.628-.22-.204-.614-.204-.397 0-.615.204-.218.205-.218.628 0 .381.226.593.225.211.607.212.381 0 .606-.212m-.938 3.79q.192.203.529.203.522 0 .685-.528.161-.53.161-1.7-.252.394-.733.62-.48.225-1.087.226-1.34 0-2.158-.847-.82-.846-.819-2.44 0-1.06.444-1.843.445-.783 1.27-1.206.826-.423 1.927-.424 2.23 0 3.098 1.312.866 1.313.867 3.74 0 2.795-.854 4.19c-.854 1.396-1.527 1.398-2.871 1.398q-1.115 0-1.92-.466a3.27 3.27 0 0 1-1.234-1.22 3.7 3.7 0 0 1-.487-1.63h2.92q.072.409.262.614M158.885 110.678q1.1-1.15 1.1-2.152 0-.338-.148-.522a.47.47 0 0 0-.388-.184q-.283 0-.444.29-.162.289-.12.882h-3.035q.044-1.312.572-2.16a3.2 3.2 0 0 1 1.376-1.241 4.35 4.35 0 0 1 1.863-.395q1.806 0 2.646.868.84.867.84 2.222 0 1.425-.912 2.674a8.15 8.15 0 0 1-2.278 2.11h3.232v2.525h-7.296v-2.356q1.891-1.41 2.992-2.561M170.681 108.356v-2.935h4.784v10.316h-3.289v-7.38z"/></g></g></svg>