<svg xmlns="http://www.w3.org/2000/svg" width="748.06299" height="980" x="0px" y="0px" viewBox="0 0 748.06299 979.99994"><path fill="none" d="M-26.81-25.46h788.954v1026.146H-26.811z" style="fill:#001b01;fill-opacity:0"/><g transform="scale(3.3374)"><path d="M156 82.67c7.37-2.94 29.31-16.4 37.73-24.09a154.06 154.06 0 0 0 37.74 24.09v214.47c-12.14 12.06-21.1 20.48-38 32.79-10.42-8.14-28.1-23.08-37.42-32.57z" class="cls-1" style="fill:#fff" transform="translate(-81.545 -46.807)"/><path d="M90.41 92.08c23.42 3.46 44.1-.54 65.54-9.41v214.84c-.95-1-2.5-2.56-3.43-3.52a172.5 172.5 0 0 1-16.45-18.78c-3.68-5-7.45-10-10.79-15.29-3.47-5.45-6.65-11.08-9.72-16.76-2.4-4.43-4.55-9-6.64-13.6-1.5-3.31-2.76-6.74-4-10.15-1.24-3.41-2.53-6.93-3.71-10.43-.7-2.09-1.32-4.21-1.89-6.34-1-3.56-2-7.12-2.76-10.72-.7-3.13-1.21-6.29-1.81-9.43-.36-1.88-.79-3.75-1.1-5.64-.31-1.89-.54-4-.82-6.07-.33-2.38-.71-4.74-1-7.12-.27-2-.34-4-.55-6-.21-2-.44-4.17-.56-6.26-.42-7.72-.67-15.47-.74-23.21-.06-6.37 0-12.74 0-19.11 0-3.88.33-10.1.43-14 .02-.54 0-1.94 0-3z" class="cls-2" style="fill:#ca392c;stroke:#000;stroke-width:.2px;stroke-miterlimit:10" transform="translate(-81.545 -46.807)"/><path d="M297 92.08c-23.41 3.46-44.1-.54-65.53-9.41v214.84c1-1 2.5-2.56 3.43-3.52a173.58 173.58 0 0 0 16.45-18.78c3.67-5 7.44-10 10.79-15.29 3.47-5.45 6.64-11.08 9.72-16.76 2.4-4.43 4.55-9 6.63-13.6 1.51-3.31 2.76-6.74 4-10.15 1.24-3.41 2.53-6.93 3.7-10.43.7-2.09 1.32-4.21 1.89-6.34 1-3.56 2-7.12 2.76-10.72.7-3.13 1.22-6.29 1.82-9.43.36-1.88.78-3.75 1.09-5.64.31-1.89.54-4 .83-6.07.33-2.38.71-4.74 1-7.12.26-2 .34-4 .55-6 .21-2 .44-4.17.55-6.26.42-7.72.67-15.47.75-23.21.06-6.37 0-12.74-.05-19.11 0-3.88-.33-10.1-.44-14 0-.54.06-1.94.06-3z" class="cls-3" style="fill:#3d8f48;stroke:#000;stroke-width:.2px;stroke-miterlimit:10" transform="translate(-81.545 -46.807)"/><path d="M143 154.85h6.65c-2.18 7.19-8.3 10.25-18 8.79-6.16-1.21-11.16-6.91-11.4-15.08-.24-8.17 5.16-14.69 13-15.8 7.5-1.06 14.79 2.83 16.71 9.36h-7.13c-2.92-5.29-11.94-3.81-14-.63-3.6 4.89-2.77 11.38 0 13.86 4.7 4.45 11.17 3.86 14.17-.5zM185.26 81.37H202v5.1h-10.57v7.43h10.49v5.42h-10.64v13.46h-6zM260.52 150.77H250v7.94h10.63v5.37h-16.8v-31.5h16.71v5.36h-10.63v7.36h10.61zM208.55 290.15h-6.67l-2.53-6.41h-11.73l-2.56 6.39h-6.4l12.24-31.58h5.53zm-18.77-12.63h7.45l-3.69-9.94z" class="cls-4" style="fill:#ffc23b;stroke:#000;stroke-width:.2px;stroke-miterlimit:10" transform="translate(-81.545 -46.807)"/><path d="M122.73 172.32h54q8.4-26.34 16.8-52.6c5.55 17.44 11.11 34.88 16.71 52.47h54.25l-43.9 32.52q8.46 26.34 16.86 52.46l-43.86-32.42-44 32.49c5.56-17.48 11.12-35 16.73-52.56z" class="cls-4" style="fill:#ffc23b;stroke:#000;stroke-width:.2px;stroke-miterlimit:10" transform="translate(-81.545 -46.807)"/><path d="M193.52 340.33c-2.36-1.69-4.7-3.26-6.93-5-4.63-3.57-9.31-7.09-13.77-10.86q-7.86-6.63-15.36-13.68c-4.65-4.37-9.14-8.91-13.57-13.49-2.1-2.17-4.06-4.46-6-6.8-2.41-2.94-5-5.76-7.28-8.81-3.38-4.52-6.75-9.06-9.92-13.73s-6.14-9.22-8.86-14c-3.18-5.63-6.18-11.37-8.89-17.24-2.27-4.94-4.27-10-6.2-15.1q-2.4-6.33-4.3-12.83c-1.53-5.27-3-10.57-4.25-15.9-.87-3.71-1.48-7.48-2.15-11.23-.67-3.75-1.31-7.35-1.84-11-.39-2.72-.61-5.47-.87-8.21-.38-3.93-.82-7.86-1-11.8-.27-4.78-.4-9.58-.48-14.37-.12-7.52-.23-15-.2-22.55 0-10.16.24-19.47.35-29.63 0-.27 0-1.37.06-1.86l3.28.62c3.13.6 8.55 1.52 11.7 1.77 5.09.42 7.88.45 13 .52a65 65 0 0 0 7.76-.46c2.56-.29 5.12-.72 7.65-1.23 4.29-.87 8.56-1.92 12.78-3.1a92 92 0 0 0 15.69-6.11 163.19 163.19 0 0 0 14.59-7.82c5.25-3.3 10.19-7.1 15.1-10.89 3.41-2.63 6.55-5.6 10-8.6 1 .87 2.05 1.85 3.14 2.79 2.18 1.87 4.34 3.75 6.56 5.57 2.22 1.82 4.55 3.76 6.94 5.48A137.47 137.47 0 0 0 232.53 74a121.4 121.4 0 0 0 18.56 6.92 120.75 120.75 0 0 0 14 3.06 100 100 0 0 0 23.5 1 71.13 71.13 0 0 0 14-2.19c.46-.09 2-.46 2.62-.55v1.44c.06 8.76.15 17.52.21 26.28 0 7.43.27 14.87.13 22.3-.13 7.23-.51 14.46-1 21.67-.32 4.84-.79 9.67-1.34 14.5-.45 3.89-1.09 7.77-1.82 11.62-.94 5-1.76 10-2.94 14.92-1.31 5.49-2.72 11-4.42 16.36a212.92 212.92 0 0 1-12 30.07A203.4 203.4 0 0 1 270.5 262c-3.56 5.52-7.36 10.9-11.3 16.16q-5.52 7.35-11.6 14.3c-3.72 4.27-7.7 8.33-11.69 12.35-3.45 3.48-7 6.84-10.65 10.14-3.65 3.3-7.13 6.4-10.83 9.44-4.5 3.7-9.12 7.25-13.72 10.82-1.91 1.49-3.89 2.89-5.86 4.31-.41.28-.85.53-1.33.81zM296.79 92.67h-1.32c-4.5.33-9 .87-13.51.94a107.29 107.29 0 0 1-22.39-2 132.39 132.39 0 0 1-18-4.78A139.15 139.15 0 0 1 220 77.12a148.74 148.74 0 0 1-21.49-14.54c-1.67-1.35-3.31-2.73-4.84-4-3.84 3-7.42 6.07-11.29 8.73-5.09 3.5-10.35 6.77-15.64 10a97.4 97.4 0 0 1-18.55 8.55c-5.06 1.77-10.22 3.32-15.43 4.6a104.94 104.94 0 0 1-14 2.55 90.63 90.63 0 0 1-12.11.46c-3.55 0-10.43-.37-14-.66-.68-.06-1.35-.14-2.19-.23-.41 21.94-1.1 42.1.81 63.78.06.49.22 2.21.27 2.62.49 3.8.55 4.59 1.06 8.42.47 3.48 1.29 10.06 1.94 13.5.88 4.62 1.86 9.22 3 13.78 1.14 4.56 2.26 9.05 3.7 13.47 1.86 5.68 3.81 11.35 6.12 16.86 2.48 5.91 5.28 11.71 8.18 17.43a212.73 212.73 0 0 0 24.77 37.54A229.76 229.76 0 0 0 160 301.36c4.48 4.3 9.06 8.53 13.79 12.55 6.41 5.45 13 10.67 19.57 16 1.83-1.36 3.5-2.58 5.14-3.83a274.49 274.49 0 0 0 22.28-18.7c3.69-3.47 7.42-6.92 10.93-10.57 4.07-4.23 8.09-8.54 11.82-13.06 4.72-5.73 9.31-11.59 13.65-17.61a208.07 208.07 0 0 0 31.54-67.72c1.08-4.29 2.06-8.6 3-12.92.55-2.48 1-5 1.44-7.5.62-4 1-8 1.56-12 .67-4.61 1.14-9.25 1.47-13.89.43-6 .74-12 .77-18 .08-13.51-.1-27-.19-40.55.04-.22.05-.47.02-.89z" class="cls-4" style="fill:#ffc23b;stroke:#000;stroke-width:.2px;stroke-miterlimit:10" transform="translate(-81.545 -46.807)"/></g></svg>