<svg xmlns="http://www.w3.org/2000/svg" width="72.557899mm" height="96.308327mm" viewBox="0 0 72.557899 96.308327"><path d="m123.479 215.38-36.283-96.308h72.558v.006zm0 0" style="fill:#4c4f94;fill-opacity:1;fill-rule:nonzero;stroke:none;stroke-width:1.95627" transform="translate(-87.196 -119.072)"/><path d="m158.485 119.951-35.006 92.93-35.015-92.93zm0 0" style="clip-rule:nonzero;fill:#ffe302;fill-opacity:1;fill-rule:evenodd;stroke:none;stroke-width:1.95627" transform="translate(-87.196 -119.072)"/><path d="m90.978 121.678 32.5 86.26 32.493-86.26zm0 0" style="fill:#4c4f94;fill-opacity:1;fill-rule:evenodd;stroke:none;stroke-width:1.95627" transform="translate(-87.196 -119.072)"/><path d="M92.247 122.557c.153.397 9.178 24.354 9.246 24.537h43.97c.062-.183 9.087-24.14 9.24-24.537zm0 0" style="fill:#0097d9;fill-opacity:1;fill-rule:evenodd;stroke:none;stroke-width:1.95627" transform="translate(-87.196 -119.072)"/><path d="M135.805 156.081h-3.302v5.785h1.705c.901 0 1.482-.512 1.727-1.162l1.184-3.232c.443-1.223-.466-1.391-1.314-1.391m-5.434 12.983v-15.107h8.078c.94 0 1.956.749 1.46 2.101l-2.263 6.19c-.397 1.077-1.23 1.735-2.392 1.735h-2.75v5.081zm11.998-19.7-.78 2.117h-14.786v10.385h2.797v2.117h-2.797v14.863h2.476l2.552-6.962h2.277l-3.332 9.086h-6.113v-31.606zm-25.607 20.044-5.67-15.451h9.154c1.131 0 2.04.74 2.04 2.048v11.263c0 1.292-.802 2.14-2.124 2.14zm1.497-2.124h.658c.771 0 1.23-.497 1.23-1.261v-8.352c0-1.216-.642-1.59-1.414-1.59h-4.585zm-13.67-17.92h17.698v2.117h-14.642l10.034 27.365h2.468v-4.838h-3.385v-2.124h5.525v9.086h-6.106zm0 0" style="fill:#ffe107;fill-opacity:1;fill-rule:evenodd;stroke:none;stroke-width:1.95627" transform="translate(-87.196 -119.072)"/><path d="m139.541 143.594 5.342-3.5-.71-1.008-5.312 3.47c-.298-.421-.611-.826-.932-1.223l7.68-6.037-.802-.948-7.71 6.06c-.36-.382-.734-.749-1.132-1.093l15.482-14.511-.886-.88-15.543 14.566c-.42-.398-.65-.657-1.185-1.024l7.222-10.301-1.047-.68-7.268 10.37c-.458-.237-1.016-.612-1.49-.818l5.067-10.263-1.124-.542-5.12 10.362c-.374-.122-1.031-.352-1.42-.459l1.604-5.693-1.208-.32-1.612 5.8a16.5 16.5 0 0 0-1.23-.184l1.047-9.231-1.238-.13-1.047 9.231c-.23-.017-.634-.028-.864-.039v-11.424h-1.253v11.424c-.23.006-.634.022-.863.039l-1.047-9.231-1.246.13 1.047 9.23a15.49 15.49 0 0 0-1.223.184l-1.612-5.8-1.208.321 1.598 5.693c-.383.107-1.04.336-1.422.459l-5.112-10.362-1.123.542 5.066 10.263c-.481.206-1.032.58-1.49.817l-7.267-10.37-1.055.68 7.23 10.302c-.536.367-.765.626-1.193 1.024l-15.536-14.565-.886.878 15.474 14.512c-.39.344-.764.71-1.13 1.093l-7.703-6.06-.803.948 7.68 6.037c-.328.397-.642.802-.932 1.222l-5.311-3.47-.718 1.01 5.349 3.5a18.499 18.499 0 0 0-1.17 2.254h-5.219l.466 1.245h43.97s.467-1.169.467-1.245h-5.227a18.451 18.451 0 0 0-1.162-2.255" style="fill:#ffe302;fill-opacity:1;fill-rule:evenodd;stroke:none;stroke-width:1.95627" transform="translate(-87.196 -119.072)"/></svg>