<svg xmlns="http://www.w3.org/2000/svg" xml:space="preserve" width="302" height="170.756" x="0px" y="0px" version="1.0" viewBox="0 0 302.00002 170.756"><path d="M97.199 1c15.25 8.757 31.355 16.86 48.92 19.578 13.338 1.46 26.625-2.063 38.805-7.298 7.65-3.22 14.746-7.549 21.641-12.129-1.71 5.939-3.472 11.878-4.077 18.018-.553 6.19-.654 12.482-.1 18.672 29.997-.05 59.943 0 89.89 0 2.918-.1 5.988 1.259 7.498 3.826 1.56 2.667 1.41 5.938.755 8.807-.503 2.567-2.567 4.731-5.133 5.335-3.725.906-7.65.403-11.425.554.05 4.026-1.36 8.455-4.63 11.022-5.034 3.12-11.224 2.366-16.81 2.315-.051 4.178-2.517 8.254-6.543 9.664-6.644 2.315-13.79 1.006-20.736 1.46-.051 3.573-1.813 7.146-4.882 9.109-3.02 1.761-6.644 1.308-9.965 1.46-.504 2.667-1.31 5.435-3.473 7.247-3.574 3.12-8.657 3.02-13.086 3.02-1.51 3.774-2.365 7.851-4.127 11.525-4.026 8.707-10.267 16.056-16.81 22.9a3951.482 3951.482 0 0 0-31.506 33.671c-7.6-6.24-14.797-12.935-21.743-19.932-13.79-13.589-24.762-30.147-31.96-48.165-2.717 0-5.536 0-8.203-.755-4.077-1.359-7.349-5.033-7.802-9.361-4.328-.302-9.16-.453-12.582-3.473-2.164-1.761-2.114-4.781-2.214-7.348-5.738 0-11.526.05-17.264 0-3.472.05-6.392-2.366-8.203-5.134-1.158-1.761-1.208-3.925-1.46-5.888-5.083 0-10.519.402-15.099-2.265-4.026-2.315-5.687-6.946-7.247-11.022-3.675-.252-7.45.302-11.123-.453-2.315-.403-4.127-2.265-4.882-4.43-.755-2.214-.655-4.58-.554-6.895.1-2.617 1.46-5.385 3.926-6.391 2.567-.957 5.284-.755 7.952-.755 28.386-.05 56.772-.151 85.108-.151 1.208-7.399 2.265-14.848 1.71-22.347-.503-4.73-1.61-9.31-2.566-13.991Z" style="fill:#af9713;stroke-width:.50329852"/><path d="M106.308 13.834c10.318 3.825 20.585 8.003 31.406 10.167 6.442 1.51 13.086 2.214 19.629 1.359 13.991-1.61 27.379-6.392 40.415-11.576l-.252.302c-4.127 4.781-8.304 9.512-12.482 14.243-4.378.352-8.858.604-12.985 2.265-3.473 1.41-6.744 3.322-10.016 5.134 1.913 4.429 4.128 8.757 4.882 13.538-6.29 6.896-12.33 14.093-18.52 21.089-12.583 14.394-25.166 28.738-37.698 43.132-2.114-4.68-3.976-9.462-5.184-14.394-1.761-6.996-2.567-14.193-3.271-21.34-.504-4.328-.655-8.657-.806-12.985-.05-10.167 1.51-20.233 2.819-30.248.805-6.895 1.41-13.79 2.063-20.686z" style="fill:#145f25;stroke-width:.50329852"/><path d="M185.025 28.33c4.177-4.732 8.354-9.463 12.482-14.244.15 3.825-.504 7.6-.655 11.374-.503 6.392-.554 12.834.05 19.226.504 5.184 1.007 10.368 1.057 15.552.253 9.362 1.51 18.824.051 28.185-1.66 10.57-4.831 21.038-10.519 30.148-4.63 8.153-11.676 14.445-17.816 21.34-6.24 6.642-12.582 13.135-19.226 19.276-2.97-2.316-6.04-4.58-8.959-7.046-5.234-4.278-10.015-9.11-14.696-13.992-6.845-7.146-12.18-15.653-16.105-24.662 12.532-14.394 25.114-28.738 37.697-43.132 6.19-6.996 12.23-14.193 18.521-21.089.805 4.782.755 9.966-1.61 14.344-1.31 2.467-3.222 4.48-4.933 6.644 1.61 1.963 3.12 4.026 4.781 5.939 1.863-2.466 3.675-5.184 4.53-8.204 1.61-5.285 1.661-10.871 2.064-16.307.503.05.956.151 1.46.252.2 3.271-.403 7.046 1.811 9.814 1.31 1.862 3.976 1.762 5.788.755 1.107-.554 1.31-1.912 1.862-2.919-1.56-.403-3.12-.554-4.73-.554-.051-1.46-.202-2.919-.051-4.328.15-1.963 1.309-3.624 2.265-5.234-1.258-1.41-2.617-2.718-3.976-4.027-1.309 1.057-2.617 2.114-4.027 3.02-.351-.252-1.006-.705-1.308-.956.1-1.158.251-2.315.302-3.473 3.12-3.07 5.888-6.442 8.707-9.764 1.057.151 2.114.352 3.171.554-.654 3.321-2.064 6.442-2.265 9.864-.251 2.215 1.61 4.43 3.876 4.379 1.459.201 3.371-.201 3.573-1.963 0-2.667-2.869-4.328-2.869-6.996-.05-1.66.101-3.422.906-4.882 1.258-1.963 3.574-3.02 4.53-5.184-.1-.604-.2-1.208-.352-1.812-1.814 0-3.576 0-5.387.101z" style="fill:#fff;stroke-width:.50329852"/><path d="M112.55 28.178c5.234 3.272 9.512 7.801 13.186 12.734 2.113-2.467 4.127-5.134 6.895-6.946 2.416-1.56 5.184-2.466 7.902-3.422.05 1.811.05 3.573.05 5.385-1.812.755-3.624 1.51-5.436 2.214a86.912 86.912 0 0 0 1.208 16.962c.805 4.831 3.322 9.16 5.838 13.287-1.258 2.063-2.768 3.976-4.479 5.737-1.66-3.573-3.17-7.197-4.379-10.972-1.912-6.895-1.862-14.142-2.365-21.239-1.309.856-2.92 1.661-3.372 3.272-.302 1.71.453 3.321.604 4.982-.453.755-1.258 1.259-1.963 1.862-1.913-2.818-3.574-5.737-5.536-8.505-.453 5.939-.906 11.928-1.963 17.816-.906 5.235-3.221 10.066-5.99 14.495-1.46-2.013-2.868-4.026-4.177-6.09 1.258-2.768 2.718-5.385 3.825-8.203 2.869-7.097 3.825-14.848 3.322-22.447-.604-2.013-2.517-3.322-3.422-5.235-.352-1.862.05-3.825.251-5.687zM172.04 30.594c4.126-1.66 8.606-1.913 12.985-2.265 1.812-.1 3.573-.1 5.385-.1.151.603.252 1.207.352 1.811-.956 2.164-3.272 3.221-4.53 5.184-.805 1.46-.956 3.221-.906 4.882 0 2.668 2.869 4.329 2.869 6.996-.201 1.762-2.114 2.164-3.573 1.963-2.265.05-4.127-2.164-3.876-4.379.201-3.422 1.61-6.543 2.265-9.864-1.057-.202-2.114-.403-3.17-.554-2.669-.151-5.99-.503-8.054 1.56-1.258 2.517-.503 5.486-.654 8.204-.05 1.158-.201 2.315-.302 3.473.302.251.956.704 1.308.956 1.41-.906 2.718-1.963 4.027-3.02 1.359 1.309 2.717 2.617 3.976 4.027-.957 1.61-2.114 3.271-2.265 5.234-.151 1.41 0 2.869.05 4.328 1.61 0 3.172.151 4.731.554-.553 1.007-.755 2.365-1.862 2.92-1.812 1.006-4.479 1.106-5.788-.756-2.214-2.768-1.61-6.543-1.812-9.814-.503-.1-.956-.202-1.46-.252-.402 5.436-.452 11.022-2.063 16.307-.855 3.02-2.667 5.738-4.53 8.204-1.66-1.913-3.17-3.976-4.78-5.94 1.71-2.163 3.623-4.177 4.931-6.643 2.366-4.378 2.416-9.562 1.611-14.344-.755-4.781-2.97-9.11-4.882-13.538 3.272-1.812 6.544-3.725 10.017-5.134z" style="fill:#af9713;stroke-width:.50329852"/><path d="M171.788 35.828c2.063-2.063 5.385-1.711 8.053-1.56-2.82 3.322-5.587 6.694-8.708 9.764.152-2.718-.603-5.687.655-8.204z" style="fill:#145f25;stroke-width:.50329852"/><path d="M159.658 98.338c1.208-.352 2.567.503 2.869 1.711 0 2.366-2.567 3.473-3.07 5.587-.403 1.761-.755 3.523-1.41 5.234-1.158-.352-3.02-.05-3.423-1.51-.654-2.365-.452-4.831-.955-7.247-1.712.805-3.876 1.057-5.134 2.617-1.762 2.164-3.373 4.58-3.725 7.398-.755 5.184.201 10.368.1 15.552-.15 2.668 1.51 4.933 3.222 6.744 1.258 1.36 3.473 1.46 4.932.554 1.913-1.51 2.819-3.975 2.97-6.292-.051-1.912-1.36-3.422-2.366-4.931 1.812-1.51 3.574-2.97 5.285-4.48.603 4.63.855 9.362-.051 13.992-1.158 3.825-4.328 7.55-8.556 7.65-3.12.1-5.687-1.913-7.801-3.926-2.718-2.567-3.07-6.492-4.228-9.815-.755-2.264-1.51-4.63-1.208-7.045.302-4.379 3.221-7.801 4.48-11.828 1.258-3.573 3.825-6.643 7.146-8.405 1.61-.755 3.423-.453 5.184-.604 1.964 0 3.827-.604 5.739-.956z" style="fill:#af9713;stroke-width:.50329852"/></svg>