<svg xmlns="http://www.w3.org/2000/svg" xml:space="preserve" width="210.71001" height="254" x="0px" y="0px" version="1.0" viewBox="0 0 210.71 253.99999"><path d="M165.525 63.821c3.588 1.747 7.62 4.985 8.065 8.923.667.063 1.334.254 2.032.571h.032c1.46.635 3.08 1.778 4.477 3.239 1.397 1.429 2.604 3.143 3.27 4.985.286.762.477 1.556.572 2.318 3.144 1.27 9.24 8.001 10.13 13.59.063.444.094.857.094 1.238 1.08.508 2.286 1.397 3.144 2.73 1.048 1.652 1.937 3.43 2.73 5.272.794 1.841 1.43 3.778 1.97 5.747.348 1.206.253 2.445-.064 3.62-.064.253-.127.508-.223.762 1.874 1.492 3.27 3.715 4.255 6.54 1.016 2.953 1.588 6.541 1.81 10.764.032.89-.127 1.81-.413 2.731-.19.572-.413 1.175-.698 1.715.952 1.778 1.555 3.715 1.841 5.97.286 2.412.19 5.143-.286 8.318a9.114 9.114 0 0 1-.984 3.017c.635 2.889.762 5.874.35 8.7-.413 2.73-1.366 5.302-2.922 7.557-.064 5.143-1.397 10.637-3.429 15.78-3.016 7.62-7.716 14.48-12.352 18.004-.889 3.43-2.698 6.89-5.048 9.875-3.207 4.128-7.398 7.43-11.463 8.827-.73 1.778-1.905 3.524-3.842 5.525-2.063 2.095-4.19 3.651-6.414 4.667-2.063.921-4.19 1.366-6.413 1.239-25.688 21.273-75.126 21.273-100.782 0-2.222.127-4.35-.318-6.413-1.239-2.223-1.016-4.35-2.572-6.414-4.667-1.937-2-3.112-3.747-3.842-5.525-4.065-1.397-8.256-4.7-11.463-8.827-2.35-2.985-4.16-6.446-5.048-9.875-4.636-3.525-9.336-10.383-12.352-18.004-2.032-5.143-3.366-10.637-3.43-15.78-1.555-2.255-2.508-4.827-2.92-7.557-.413-2.826-.286-5.811.349-8.7a9.114 9.114 0 0 1-.984-3.017c-.477-3.175-.572-5.906-.286-8.319.286-2.254.889-4.191 1.841-5.97-.285-.54-.508-1.142-.698-1.714-.286-.92-.445-1.842-.413-2.73.222-4.224.794-7.812 1.81-10.765.984-2.825 2.381-5.048 4.255-6.54-.096-.254-.16-.509-.223-.763-.317-1.174-.412-2.413-.063-3.62.54-1.968 1.175-3.905 1.969-5.746.793-1.842 1.682-3.62 2.73-5.271.858-1.334 2.064-2.223 3.144-2.73 0-.382.031-.795.095-1.24.889-5.588 6.985-12.32 10.129-13.59.095-.761.286-1.555.571-2.317.667-1.842 1.874-3.556 3.27-4.985 1.398-1.46 3.017-2.604 4.478-3.239h.032c.698-.317 1.365-.508 2.032-.571.444-3.938 4.477-7.176 8.065-8.923-.19-.19-.35-.38-.413-.635a1.549 1.549 0 0 1-.127-.762c.064-.667.476-1.365 1.302-1.714.286-.127.571-.223.825-.35a1.664 1.664 0 0 1-.317-.349 1.128 1.128 0 0 1-.127-.286c-.381-.92.19-1.746.92-2.254.096-.064.223-.127.318-.159-.19-.19-.317-.413-.444-.667-.064-.222-.127-.476-.096-.73-.793.286-1.555.095-2.032-.317-.19-.191-.349-.413-.444-.636a1.427 1.427 0 0 1-.127-.73c-.477.222-.953.413-1.43.635-.983.413-1.745.286-2.222-.127a1.534 1.534 0 0 1-.444-.635 1.884 1.884 0 0 1-.159-.73c0-.286.095-.54.222-.826L31.85 31.942c-1.207-.603-2.223-1.333-3.048-2.222-.794-.826-1.43-1.747-1.969-2.763l-2.35.984-3.08-7.366 4.319-1.81 1.556 3.683 2.381-1.016-1.524-3.683 4.318-1.81 1.556 3.683 2.381-1.016-1.524-3.683 4.319-1.81 3.08 7.367-3.303 1.397c.477.794.762 1.746.921 2.667.19 1.302.222 2.635.127 3.937l.19.286c.985-.35 1.97-.73 2.922-1.08l1.175 3.176c.825-.286 1.62-.572 2.445-.858l-1.112-3.207c1.493-.508 2.985-.984 4.51-1.492l1.015 3.239 2.477-.762-.984-3.239c1.524-.445 3.048-.89 4.572-1.302l.889 3.27a36.6 36.6 0 0 1 2.508-.666l-.857-3.302c1.143-.286 2.286-.572 3.397-.826v-.381a17.078 17.078 0 0 1-2.095-3.302c-.413-.858-.699-1.747-.762-2.7l-3.556.731-1.588-7.906 5.24-1.048.793 3.937 3.175-.635-.794-3.937 5.24-1.08.793 3.938L72.81 8.7l-.794-3.938 5.24-1.047 1.587 7.874-3.556.73c.317.89.38 1.842.35 2.763A17.942 17.942 0 0 1 75 18.956l.127.349c1.175-.19 2.318-.381 3.493-.572l.508 3.366 2.572-.381-.445-3.334a118.51 118.51 0 0 1 4.7-.571l.38 3.365c.858-.095 1.715-.159 2.54-.254l-.285-3.365c1.588-.16 3.143-.286 4.731-.382l.222 3.366c.858-.032 1.715-.095 2.572-.127l-.159-3.397c1.112-.064 2.223-.096 3.303-.127l.063-.381a21.132 21.132 0 0 1-1.397-3.652c-.222-.92-.318-1.873-.19-2.794h-3.652V2l5.366.032v4h3.239v-4h5.334v4h3.239v-4h5.366v8.033h-3.651c.127.92.031 1.873-.191 2.794a21.132 21.132 0 0 1-1.397 3.652l.063.38c1.08.032 2.191.064 3.303.128l-.16 3.397c.858.032 1.715.095 2.573.127l.222-3.366c1.588.096 3.143.223 4.731.382l-.286 3.365c.826.095 1.683.159 2.54.254l.382-3.365c1.555.158 3.143.349 4.699.571l-.445 3.334 2.572.381.508-3.366c1.175.19 2.318.381 3.493.572l.127-.35a17.942 17.942 0 0 1-.635-3.873c-.032-.921.063-1.874.35-2.763l-3.557-.73 1.588-7.874 5.239 1.047L137.9 8.7l3.207.635.794-3.938 5.239 1.08-.794 3.937 3.175.635.794-3.937 5.239 1.048-1.588 7.906-3.556-.73c-.063.952-.35 1.841-.762 2.699a17.078 17.078 0 0 1-2.095 3.302v.381c1.11.254 2.254.54 3.397.826l-.857 3.302a42.2 42.2 0 0 1 2.508.667l.89-3.27c1.523.412 3.047.856 4.571 1.301l-.984 3.239 2.477.762 1.016-3.239c1.524.508 3.016.984 4.509 1.492l-1.112 3.207c.826.286 1.62.572 2.445.858l1.175-3.176c.953.35 1.937.73 2.921 1.08l.19-.286a18.164 18.164 0 0 1 .128-3.937c.159-.92.444-1.873.92-2.667l-3.302-1.397 3.08-7.367 4.319 1.81-1.524 3.683 2.38 1.016 1.557-3.683 4.318 1.81-1.556 3.683 2.413 1.016 1.556-3.683 4.319 1.81-3.08 7.366-2.35-.984c-.54 1.016-1.175 1.937-1.969 2.763a10.94 10.94 0 0 1-3.048 2.222L170.32 52.55c.127.286.19.54.222.826 0 .254-.063.508-.159.73a1.534 1.534 0 0 1-.444.635c-.477.413-1.239.54-2.223.127-.476-.222-.952-.413-1.429-.635.032.254-.032.508-.127.73a2.098 2.098 0 0 1-.444.636c-.477.412-1.239.603-2.032.317.031.254-.032.508-.096.73a3.052 3.052 0 0 1-.444.667c.095.032.222.095.317.159.73.508 1.302 1.333.921 2.254-.032.096-.095.19-.127.286-.095.127-.19.254-.317.35.254.126.54.222.825.349.826.349 1.238 1.047 1.302 1.714.032.254-.032.54-.127.762a1.697 1.697 0 0 1-.413.635zM49.63 62.996h111.418a147.36 147.36 0 0 0-26.132-7.97 148.27 148.27 0 0 0-59.123 0 148.526 148.526 0 0 0-26.163 7.97z"/><path d="M123.053 465.264c-4.392-2.664-8.424.216-8.496 5.4 0 7.992.36 16.416 1.224 25.2.432 4.536 1.584 7.128 5.616 9.792 67.176 44.28 158.76 44.28 225.936 0 4.032-2.664 5.184-5.256 5.616-9.792a257.322 257.322 0 0 0 1.224-25.2c-.072-5.184-4.104-8.064-8.496-5.4-72.505 44.28-150.12 44.28-222.624 0z" style="fill:#f08a00" transform="matrix(.441 0 0 .441 2 2)"/><path d="M124.349 459.144c71.712 44.496 148.32 44.496 220.032 0 4.824-2.952 9.072-7.056 8.496-13.248-.792-7.416-1.944-14.544-3.24-21.384-5.76 9.648-12.744 18.504-20.664 26.352-24.264 24.192-57.816 39.168-94.608 39.168s-70.344-14.976-94.608-39.168c-7.92-7.848-14.904-16.704-20.664-26.352-1.296 6.84-2.448 13.968-3.24 21.384-.577 6.192 3.671 10.296 8.496 13.248zM354.029 416.52a251.442 251.442 0 0 1 5.472 37.44c1.296 19.008.504 40.176-3.528 64.224-.72 4.608.072 6.408 4.752 4.32 4.392-1.944 8.64-5.112 12.744-9.36 8.856-9 9.432-15.912 10.44-27.144.072-.792.144-1.584.504-5.184 2.52-25.704 1.512-50.616-2.232-73.728-3.024-18.504-7.776-35.856-13.824-51.552v1.224c-.001 21.456-5.185 41.76-14.328 59.76z" style="fill:#f08a00" transform="matrix(.441 0 0 .441 2 2)"/><path d="M368.356 340.344c8.856 19.296 15.768 41.544 19.656 65.808 3.816 23.616 4.896 49.032 2.232 75.24 0 .072-.216 2.736-.432 5.112-.144 1.8-.288 3.528-.432 5.112-.432 3.816.504 5.4 3.96 3.096 5.184-3.384 10.224-8.136 14.4-13.536 6.336-8.136 10.872-17.784 11.52-26.856 2.232-31.248.432-60.48-5.544-87.336-5.112-22.896-13.392-44.136-24.768-63.504-2.376-4.032-5.832-4.32-9.216-.936a411.96 411.96 0 0 1-11.376 10.944zM368.356 305.352c8.784-8.28 17.064-16.848 24.552-25.488 14.616-16.92 26.424-34.56 34.488-52.92 1.368-3.096 2.952-5.976 2.376-9.576-1.44-9-9.072-19.728-14.4-24.192-2.088-1.728-3.312-1.152-4.248 1.008-10.008 22.824-25.488 43.2-42.768 63.288zM368.356 248.256c15.264-18.144 28.728-36.648 37.584-57.024 1.224-2.736 1.008-5.832-.144-8.856-1.224-3.312-3.456-6.552-6.12-9.216-1.8-1.872-3.816-3.456-5.688-4.68-.936-.504-2.664-.792-4.104-.504-1.368.288-2.448 1.152-2.952 2.016-4.896 9.144-11.52 17.64-18.576 26.208zM368.356 186.84c5.256-6.696 10.08-13.32 13.752-20.304.216-.36.36-.792.504-1.224 2.88-7.416-4.464-14.328-11.88-18.504-.576-.288-1.44-.504-2.376-.576zM100.373 146.232c-.936.072-1.8.288-2.376.576-7.416 4.176-14.76 11.088-11.88 18.504.144.432.288.864.504 1.224 3.672 6.984 8.496 13.608 13.752 20.304zM100.373 196.2c-7.056-8.568-13.68-17.064-18.576-26.208-.504-.864-1.584-1.728-2.952-2.016-1.44-.288-3.168 0-4.104.504-1.872 1.224-3.888 2.808-5.688 4.68-2.664 2.664-4.896 5.904-6.12 9.216-1.152 3.024-1.368 6.12-.144 8.856 8.856 20.376 22.32 38.88 37.584 57.024zM100.373 257.472c-17.28-20.088-32.76-40.464-42.768-63.288-.936-2.16-2.16-2.736-4.248-1.008-5.328 4.464-12.96 15.192-14.4 24.192-.576 3.6 1.008 6.48 2.376 9.576 8.064 18.36 19.872 36 34.488 52.92 7.488 8.64 15.768 17.208 24.552 25.488zM100.373 313.488a411.96 411.96 0 0 1-11.376-10.944c-3.384-3.384-6.84-3.096-9.216.936-11.376 19.368-19.656 40.608-24.768 63.504-5.976 26.856-7.776 56.088-5.544 87.336.648 9.072 5.184 18.72 11.52 26.856 4.176 5.4 9.216 10.152 14.4 13.536 3.456 2.304 4.392.72 3.96-3.096a481.862 481.862 0 0 1-.432-5.112c-.216-2.376-.432-5.04-.432-5.112-2.664-26.208-1.584-51.624 2.232-75.24 3.888-24.264 10.8-46.512 19.656-65.808z" style="fill:#f08a00" transform="matrix(.441 0 0 .441 2 2)"/><path d="M100.373 355.536c-6.048 15.696-10.8 33.048-13.824 51.552-3.744 23.112-4.752 48.024-2.232 73.728.36 3.6.432 4.392.504 5.184 1.008 11.232 1.584 18.144 10.44 27.144 4.104 4.248 8.352 7.416 12.744 9.36 4.68 2.088 5.472.288 4.752-4.32-4.032-24.048-4.824-45.216-3.528-64.224a251.442 251.442 0 0 1 5.472-37.44c-9.144-18-14.328-38.304-14.328-59.76zM126.869 516.024c-3.24-1.872-8.856-4.176-8.136 1.944.36 3.096 2.448 5.904 4.752 7.848 56.376 46.656 165.456 46.584 221.76 0 2.304-1.944 4.392-4.752 4.752-7.848.72-6.12-4.896-3.816-8.136-1.944-65.233 38.376-149.76 38.376-214.992 0zM397.373 283.68c3.024-3.456 5.976-6.984 8.784-10.584 3.168-4.032 5.544-4.032 8.352.36 8.424 13.392 15.552 27.648 21.6 42.624 7.416 18.648 13.032 38.448 16.776 59.184 2.376 13.32-.648 29.376-6.552 44.136-4.032 10.08-9.36 19.584-15.12 27.072-5.112 6.552-5.76 6.12-5.472-1.728 1.296-28.008-.72-54.432-6.264-78.984-5.328-23.976-13.968-46.152-25.992-66.24-4.464-7.416-.864-10.296 3.888-15.84zM417.677 257.04c5.832-8.928 10.872-18 14.904-27.288 1.224-2.664 3.96-3.384 5.616-.648a70.025 70.025 0 0 1 5.472 10.584c1.656 3.888 3.024 7.992 4.248 12.24 1.008 3.672-.864 7.704-2.448 10.944a113.974 113.974 0 0 1-8.64 14.976 88.396 88.396 0 0 1-5.256 6.984c-.864 1.152-2.808 1.44-3.456.072-3.24-5.904-6.624-11.808-10.368-17.496-2.376-3.672-2.448-6.768-.072-10.368zM458.068 370.656c-.504-2.664-1.08-5.256-1.656-7.848-.144-.72-.288-2.952.432-3.6a71.85 71.85 0 0 0 2.448-2.304c.936-.864 1.368-.36 1.512.792a47.103 47.103 0 0 1-.432 10.08c-.144.864-.288 1.728-.432 2.52-.792 3.456-1.367 3.168-1.872.36zM452.597 346.824c-1.152-4.104-2.304-8.136-3.6-12.168-.648-2.088.216-5.544 1.8-7.128 1.44-1.512 2.88-3.024 4.248-4.68 1.152-1.368 2.304-2.808 3.384-4.392 1.008-1.368 2.736-.792 3.168.72.36 1.512.648 3.096.864 4.752.576 4.896.36 10.584-.648 17.28-.36 2.808-1.512 5.184-3.096 7.344-4.536 6.408-4.465 4.536-6.12-1.728zM444.172 320.544l-2.592-6.696c-2.304-5.832-4.896-11.592-7.56-17.208-1.296-2.736-.216-5.04 1.44-7.128a132.832 132.832 0 0 0 6.264-8.352c2.304-3.456 4.536-7.056 6.552-10.8.936-1.728 3.096-3.672 4.824-1.152 1.512 2.16 2.808 4.824 3.888 7.92 2.088 6.048 3.312 13.68 3.744 22.752.072 1.296-.144 2.736-.576 4.104-.576 1.728-1.368 3.384-2.232 4.68-2.448 3.888-4.896 7.344-7.416 10.368-.72.792-1.368 1.584-2.088 2.304-1.872 2.088-3.168 2.16-4.248-.792zM71.356 283.68c-3.024-3.456-5.976-6.984-8.784-10.584-3.168-4.032-5.544-4.032-8.352.36-8.424 13.392-15.552 27.648-21.6 42.624-7.416 18.648-13.032 38.448-16.776 59.184-2.376 13.32.648 29.376 6.552 44.136 4.032 10.08 9.36 19.584 15.12 27.072 5.112 6.552 5.76 6.12 5.472-1.728-1.296-28.008.72-54.432 6.264-78.984 5.328-23.976 13.968-46.152 25.992-66.24 4.464-7.416.864-10.296-3.888-15.84zM51.053 257.04c-5.832-8.928-10.872-18-14.904-27.288-1.224-2.664-3.96-3.384-5.616-.648a70.025 70.025 0 0 0-5.472 10.584c-1.656 3.888-3.024 7.992-4.248 12.24-1.008 3.672.864 7.704 2.448 10.944 2.52 5.256 5.4 10.224 8.64 14.976a88.396 88.396 0 0 0 5.256 6.984c.864 1.152 2.808 1.44 3.456.072 3.24-5.904 6.624-11.808 10.368-17.496 2.375-3.672 2.448-6.768.072-10.368zM10.661 370.656c.504-2.664 1.08-5.256 1.656-7.848.144-.72.288-2.952-.432-3.6a71.85 71.85 0 0 1-2.448-2.304c-.936-.864-1.368-.36-1.512.792a47.103 47.103 0 0 0 .432 10.08c.144.864.288 1.728.432 2.52.792 3.456 1.368 3.168 1.872.36zM16.133 346.824c1.152-4.104 2.304-8.136 3.6-12.168.648-2.088-.216-5.544-1.8-7.128-1.44-1.512-2.88-3.024-4.248-4.68-1.152-1.368-2.304-2.808-3.384-4.392-1.008-1.368-2.736-.792-3.168.72a46.458 46.458 0 0 0-.864 4.752c-.576 4.896-.36 10.584.648 17.28.36 2.808 1.512 5.184 3.096 7.344 4.535 6.408 4.464 4.536 6.12-1.728zM24.557 320.544l2.592-6.696c2.304-5.832 4.896-11.592 7.56-17.208 1.296-2.736.216-5.04-1.44-7.128a132.832 132.832 0 0 1-6.264-8.352c-2.304-3.456-4.536-7.056-6.552-10.8-.936-1.728-3.096-3.672-4.824-1.152-1.512 2.16-2.808 4.824-3.888 7.92-2.088 6.048-3.312 13.68-3.744 22.752-.072 1.296.144 2.736.576 4.104.576 1.728 1.368 3.384 2.232 4.68 2.448 3.888 4.896 7.344 7.416 10.368.72.792 1.368 1.584 2.088 2.304 1.872 2.088 3.168 2.16 4.248-.792z" style="fill:#f08a00" transform="matrix(.441 0 0 .441 2 2)"/><path d="m146.442 217.438-.38-.095a4.933 4.933 0 0 0-.731-.16c-.254 0-.508 0-.73.033a3.011 3.011 0 0 0-.73.158 4.308 4.308 0 0 0-.731.286c-.222.159-.445.286-.667.445-.19.158-.38.349-.54.54-.158.158-.285.38-.412.571a2.695 2.695 0 0 0-.286.699c-.095.254-.127.54-.159.793a3.586 3.586 0 0 0 0 .826c.032.286.095.54.19.825.096.254.223.54.35.826.159.254.317.508.476.73.19.223.381.445.603.604.191.19.413.349.667.476.223.127.477.254.73.317.255.096.477.127.73.16.223.03.477 0 .731 0 .254-.033.508-.096.73-.16.254-.095.508-.19.762-.317v-.032c.255-.127.477-.286.699-.444a3.1 3.1 0 0 0 .572-.54c.158-.19.285-.413.412-.603.096-.223.19-.477.254-.699l.096-.413.38.127 1.334.476.35.127-.128.35c-.127.38-.285.73-.476 1.048-.19.349-.38.666-.635.952a6.86 6.86 0 0 1-.857.794c-.318.222-.667.444-1.048.667-.381.19-.762.349-1.143.476a4.932 4.932 0 0 1-1.143.254 4.894 4.894 0 0 1-1.175.032 7.41 7.41 0 0 1-1.111-.19 6.168 6.168 0 0 1-1.143-.477 4.639 4.639 0 0 1-1.048-.699 5.68 5.68 0 0 1-.857-.889c-.286-.317-.508-.698-.73-1.08-.191-.412-.382-.793-.509-1.206-.127-.413-.19-.825-.254-1.238a8.061 8.061 0 0 1 0-1.238c.064-.413.127-.794.254-1.207.127-.381.286-.73.476-1.048.191-.35.413-.667.667-.952.254-.286.54-.572.858-.794a8.583 8.583 0 0 1 1.047-.699c.381-.19.73-.349 1.112-.476.349-.127.73-.19 1.111-.254.35-.064.73-.064 1.08-.032.38 0 .73.064 1.111.159l.35.095-.096.35-.318 1.365zM114.53 224.9l.35-.032 5.748-.921.38-.063.033.349.222 1.333.063.35-.381.063-3.937.635.413 2.73 3.969-.634.35-.064.063.381.222 1.27.032.35-.35.063-3.969.635.762 4.668.063.35-.38.063-1.43.222-.349.063-.063-.38-1.747-11.05zM84.843 235.156l.286-.445 6.287-10.383.127-.222.254.063 1.206.19.223.033.063.222 2.921 11.843.127.508-.54-.063-1.682-.286-.254-.032-.064-.254-.508-2.445-4.7-.762-1.27 2.191-.126.223-.254-.032-1.556-.254zm4.826-3.938 3.143.508-.92-4.223zM59.632 225.058l.159-.317 5.08-10.002.159-.318.35.16 2.254 1.174c.635.318 1.174.667 1.587 1.048.445.413.762.857.984 1.333.223.477.318.985.286 1.493a4.12 4.12 0 0 1-.444 1.556c-.254.508-.572.889-.921 1.238a3.9 3.9 0 0 1-1.27.73 3.703 3.703 0 0 1-1.429.19 3.878 3.878 0 0 1-.826-.19l1.334 4.954.222.793-.73-.38-1.62-.826-.158-.064-.032-.158-1.048-4.732-.254-.095-1.587 3.08-.16.318-.317-.16-1.301-.666zm4.762-4.508.604.285c.38.19.698.318 1.016.381.317.064.603.064.857 0 .222-.031.445-.158.635-.317.222-.159.381-.381.54-.667a1.69 1.69 0 0 0 .19-.762c.032-.222-.031-.445-.127-.667a2.492 2.492 0 0 0-.54-.667 6.217 6.217 0 0 0-.952-.603l-.572-.286zM73.03 228.202c.7 0 1.303.571 1.303 1.27 0 .698-.604 1.302-1.302 1.302-.699 0-1.27-.604-1.27-1.302 0-.699.571-1.27 1.27-1.27zM99.989 234.203c.73 0 1.302.571 1.302 1.27 0 .73-.572 1.302-1.302 1.302-.699 0-1.27-.572-1.27-1.302 0-.699.571-1.27 1.27-1.27zM128.946 231.155c.73 0 1.302.603 1.302 1.302 0 .698-.571 1.27-1.302 1.27-.698 0-1.27-.572-1.27-1.27 0-.699.572-1.302 1.27-1.302zM154.92 219.915c.698 0 1.27.571 1.27 1.27 0 .73-.572 1.301-1.27 1.301-.73 0-1.302-.571-1.302-1.301 0-.699.572-1.27 1.302-1.27z"/><path d="M279.077 352.872c.36-3.888.936-7.776 1.584-11.52-5.472.288-10.656 1.656-15.552 4.032-6.48 2.016-10.008 4.968-12.888 8.784h.504c8.208.072 16.991-.432 26.352-1.296zM228.46 367.2c4.032-.144 7.992-.216 12.024-.288 12.672-.288 25.344-.504 38.232-.504-.216-3.024-.144-6.12 0-9.288-9.216.864-17.928 1.368-25.992 1.368-8.28-.072-15.984-.648-22.896-1.872-.72 1.44-1.296 2.88-1.584 4.464-.359 1.8-.359 3.816.216 6.12zM208.517 367.776c3.384-.072 6.768-.216 10.152-.288.432-2.592.144-5.544-.216-8.784-2.016 1.44-3.96 3.096-5.832 4.824-1.369 1.368-2.736 2.808-4.104 4.248z" style="fill:#e2001a" transform="matrix(.441 0 0 .441 2 2)"/><path d="M360.869 376.416c.648-4.392 1.152-8.784 1.368-13.32-4.032-2.736-8.208-4.536-12.6-5.544-4.896-1.224-10.08-1.44-15.336-1.152a108.054 108.054 0 0 1-.648 9.864 52.44 52.44 0 0 1-.864 5.04c5.688-.36 11.304-.216 16.704.936h.072c3.815.864 7.632 2.16 11.304 4.176z" style="fill:#fff" transform="matrix(.441 0 0 .441 2 2)"/><path d="M356.909 393.624c1.224-4.176 2.304-8.424 3.168-12.744-3.672-2.232-7.488-3.6-11.448-4.464-5.4-1.152-11.088-1.224-16.92-.72-1.584 5.688-3.96 10.944-7.416 15.696 7.056-1.008 13.968-1.512 20.736-.72 4.032.432 7.992 1.368 11.88 2.952z" style="fill:#009036" transform="matrix(.441 0 0 .441 2 2)"/><path d="M199.876 479.376a127.433 127.433 0 0 0 34.488 4.752c15.696 0 30.744-2.88 44.64-8.064-3.096-.288-6.264-.72-9.504-1.152-6.912-.864-13.824-1.728-20.952-1.728-6.12.072-12.24.432-18.216 1.152-6.12.72-12.24 1.8-18.144 3.168-4.248 1.008-8.352 1.656-12.312 1.872z" style="fill:#fff" transform="matrix(.441 0 0 .441 2 2)"/><path d="M151.349 453.528a128.057 128.057 0 0 0 34.56 21.024c1.512.216 2.952.36 4.464.504 6.768.504 13.464.072 20.88-1.728 6.048-1.368 12.312-2.52 18.576-3.24 6.12-.72 12.456-1.152 18.72-1.152 7.272-.072 14.4.864 21.528 1.728 4.464.576 8.856 1.152 13.608 1.512 1.44.072 2.88.144 4.32.144 10.224-4.752 19.8-10.8 28.368-18-.432.072-.936.144-1.368.288-10.44 1.728-20.808 3.456-31.608 2.664-4.392-.288-9.144-.864-13.896-1.512-6.912-.864-13.824-1.728-20.952-1.728-6.12.072-12.24.432-18.216 1.152-6.12.72-12.24 1.8-18.144 3.168-7.92 1.872-14.976 2.376-22.176 1.872-7.128-.576-14.4-2.16-22.896-4.392-5.257-1.368-10.513-2.16-15.768-2.304z" style="fill:#009036" transform="matrix(.441 0 0 .441 2 2)"/><path d="M133.997 435.6c3.096 3.888 6.408 7.632 9.936 11.088.864.864 1.728 1.728 2.592 2.52 7.272-.216 14.544.576 21.672 2.52 8.208 2.16 15.264 3.672 22.176 4.176 6.768.504 13.464.072 20.88-1.656 6.048-1.44 12.312-2.52 18.576-3.312 6.12-.72 12.456-1.08 18.72-1.152 7.272-.072 14.4.864 21.528 1.8 4.464.576 8.856 1.152 13.608 1.44 10.44.72 20.448-.936 30.6-2.664 2.016-.36 3.96-.648 6.552-1.08l1.512-.216c.792-.792 1.656-1.584 2.448-2.376 4.32-4.32 8.352-8.928 12.096-13.896-5.04.144-10.224.792-15.408 1.584-1.8.288-4.176.648-6.48 1.08-10.44 1.728-20.808 3.456-31.608 2.736-4.392-.36-9.144-.936-13.896-1.512-6.912-.936-13.824-1.8-20.952-1.728-6.12 0-12.24.432-18.216 1.152-6.12.72-12.24 1.728-18.144 3.168-7.92 1.8-14.976 2.304-22.176 1.8-7.128-.576-14.4-2.088-22.896-4.392-9.432-2.448-19.008-2.952-28.728-1.728-1.44.216-2.88.432-4.392.648z" style="fill:#fff" transform="matrix(.441 0 0 .441 2 2)"/><path d="M122.836 419.184c2.52 4.392 5.328 8.64 8.28 12.672 2.232-.432 4.536-.864 6.768-1.152 10.224-1.296 20.376-.792 30.312 1.872 8.208 2.16 15.264 3.672 22.176 4.176 6.768.504 13.464.072 20.88-1.656 6.048-1.44 12.312-2.52 18.576-3.24 6.12-.792 12.456-1.152 18.72-1.224 7.272 0 14.4.864 21.528 1.8 4.464.576 8.856 1.152 13.608 1.44 10.44.72 20.448-.936 30.6-2.664 2.016-.288 3.96-.648 6.552-1.008 6.408-1.008 12.816-1.8 19.08-1.656a129.725 129.725 0 0 0 8.424-13.896c-1.224-.288-2.52-.432-3.744-.576-7.488-.936-15.264-.072-23.112 1.152-1.8.288-4.176.72-6.48 1.08-10.44 1.728-20.808 3.456-31.608 2.736-4.392-.288-9.144-.936-13.896-1.512-6.912-.864-13.824-1.8-20.952-1.728-6.12 0-12.24.432-18.216 1.152-6.12.72-12.24 1.8-18.144 3.168-7.92 1.872-14.976 2.376-22.176 1.8-7.128-.504-14.4-2.088-22.896-4.32-9.432-2.52-19.008-3.024-28.728-1.8-5.112.72-10.295 1.8-15.552 3.384z" style="fill:#009036" transform="matrix(.441 0 0 .441 2 2)"/><path d="M114.989 402.696a154.917 154.917 0 0 0 5.76 12.672 98.812 98.812 0 0 1 17.136-3.744c10.224-1.296 20.376-.792 30.312 1.8 8.208 2.232 15.264 3.672 22.176 4.248 6.768.504 13.464 0 20.88-1.728 6.048-1.44 12.312-2.52 18.576-3.24 6.12-.72 12.456-1.152 18.72-1.152 7.272-.072 14.4.864 21.528 1.728 4.464.576 8.856 1.152 13.608 1.512 10.44.72 20.448-1.008 30.6-2.664 2.016-.36 3.96-.72 6.552-1.08 8.208-1.296 16.344-2.16 24.192-1.224 1.8.144 3.528.432 5.256.864 2.016-4.176 3.744-8.568 5.256-12.96-3.528-1.512-7.2-2.376-10.944-2.808-7.488-.864-15.264-.072-23.112 1.224-1.8.216-4.176.648-6.48 1.008-10.44 1.8-20.808 3.528-31.608 2.736-4.392-.288-9.144-.864-13.896-1.512-6.912-.864-13.824-1.728-20.952-1.728-6.12.072-12.24.432-18.216 1.152-6.12.72-12.24 1.8-18.144 3.168-7.92 1.872-14.976 2.376-22.176 1.8-7.128-.504-14.4-2.088-22.896-4.32-9.432-2.521-19.008-2.952-28.728-1.729-7.704.937-15.553 3.025-23.4 5.977z" style="fill:#fff" transform="matrix(.441 0 0 .441 2 2)"/><path d="M109.661 385.704c1.08 4.392 2.376 8.712 3.816 12.96 8.208-3.024 16.344-5.184 24.408-6.192 6.12-.792 12.168-.936 18.216-.36-6.264-4.536-11.664-9.504-16.272-14.688-4.896.504-9.792 1.512-14.76 2.88-5.112 1.368-10.224 3.168-15.408 5.4z" style="fill:#009036" transform="matrix(.441 0 0 .441 2 2)"/><path d="M106.781 367.488c.432 4.68 1.08 9.36 2.016 13.968 5.04-2.16 10.08-3.888 15.12-5.328a97.87 97.87 0 0 1 12.6-2.592 83.485 83.485 0 0 1-6.912-10.08c-.504-.864-.936-1.728-1.44-2.592-3.888.864-7.704 1.872-11.448 3.096-3.384 1.008-6.696 2.232-9.936 3.528z" style="fill:#fff" transform="matrix(.441 0 0 .441 2 2)"/><path d="M121.39 160.887c.762-.063 1.556-.127 2.35-.19-.032.667-.032 1.333.063 2-.794-.031-1.588-.031-2.381-.031-.223-.667-.127-1.334-.032-1.779zM116.214 161.141c1.016-.031 2.064-.063 3.08-.127 0 .572-.032 1.112-.127 1.652h-2.762c-.223-.477-.254-.985-.19-1.525zM110.943 161.11c1.143.031 2.287.063 3.43.031 0 .54-.064 1.016-.19 1.525-.985 0-1.97 0-2.954.031-.254-.508-.318-1.016-.286-1.587zM105.45 160.856a75.91 75.91 0 0 0 3.747.19c.032.572 0 1.111-.063 1.651-1.239.032-2.477.064-3.715.064-.223-.54-.096-1.175.031-1.905z"/><path d="M302.621 369.576a74.551 74.551 0 0 0-8.064-.648c-3.816 0-7.632.288-11.232 1.224.36 2.736.936 5.4 1.728 7.92 3.672-.36 7.272-.576 10.872-.504 2.304 0 4.608.144 6.912.36zM327.172 375.984c.792-2.448 1.368-4.968 1.8-7.632-2.88-.216-5.76-.144-8.712.144-2.592.216-5.256.648-7.92 1.224l2.664 7.128c1.008-.144 1.944-.288 2.952-.36 3.097-.36 6.121-.504 9.216-.504zM302.909 382.248a57.718 57.718 0 0 0-6.984-.432c-3.096-.072-6.12.072-9.144.36 2.376 4.752 5.976 8.712 11.304 11.448 1.872.936 3.456 1.152 5.04 1.08zM308.093 394.128c4.608-.576 10.008-1.656 12.096-4.32 2.232-2.952 4.032-6.12 5.472-9.504-2.448 0-4.896.144-7.272.432a49.12 49.12 0 0 0-4.536.648zM280.517 377.928c-.648-2.304-1.08-4.752-1.44-7.272-12.96.072-25.704.216-38.448.504-13.32.288-26.712.72-40.392 1.224-3.024.072-6.048.36-9 .648-2.376.288-4.752.504-6.624.648-2.664.144-7.92.432-10.008-1.584-3.168-2.952 1.224-5.832-5.976-7.992-13.32-3.96-22.608-9.648-28.944-16.776-6.552-7.272-9.864-15.84-11.232-24.912-.36-2.232-.144-6.048-3.096-5.976-.576 0-1.296 0-1.728.072-1.944.072-2.016 2.304-1.944 3.96.648 12.96 1.8 27 11.952 36.288 5.832 5.328 12.6 9.576 19.944 12.672 12.312 5.328 25.128 7.128 38.448 7.56 12.456.36 24.768.216 37.08.072 17.136-.144 34.2-.288 51.408.864z" style="fill:#e2001a" transform="matrix(.441 0 0 .441 2 2)"/><path d="M284.333 386.712c-.864-1.368-1.584-2.88-2.232-4.392-17.856-1.296-35.352-1.152-52.992-.936-13.392.144-26.784.216-40.464-.216-13.032-.504-25.56-3.024-36.792-7.776-6.336-2.736-12.24-6.192-17.568-10.44 3.456 5.616 6.12 9.936 12.024 12.816a113.989 113.989 0 0 0 20.808 7.488c9.792 2.52 19.944 3.744 30.384 3.672 8.856-.072 17.712-.216 26.64-.36 19.943-.36 40.104-.72 60.192.144z" style="fill:#e2001a" transform="matrix(.441 0 0 .441 2 2)"/><path d="M211.252 396.792c6.048-1.368 12.312-2.448 18.576-3.24 6.12-.72 12.456-1.152 18.72-1.152 7.272-.072 14.4.864 21.528 1.8 4.464.504 8.856 1.08 13.608 1.44 3.168.216 6.336.216 9.432.072a33.35 33.35 0 0 1-5.4-4.536c-21.24-1.08-42.408-.72-63.504-.36-8.928.216-17.784.36-26.64.432-10.8.072-21.384-1.224-31.536-3.816a125.155 125.155 0 0 1-15.192-5.04c16.561 14.76 39.096 19.44 60.408 14.4zM310.9 365.688c2.952-.648 5.904-1.152 8.928-1.44 3.312-.36 6.552-.432 9.72-.144.36-3.24.504-6.696.432-10.224a29.157 29.157 0 0 0-4.32-.072c-1.8.144-3.384.432-4.896.936-2.736.792-5.472 1.224-8.28 1.368-1.728.072-3.456 0-5.184-.288zM282.964 365.832c3.744-.864 7.704-1.224 11.664-1.152 2.664 0 5.328.216 7.92.576l-.216-10.224a38.186 38.186 0 0 0-9.072-.432 43.49 43.49 0 0 0-10.224 1.872c-.215 3.168-.215 6.264-.072 9.36zM329.836 349.632c-.288-6.048-1.08-12.312-2.232-18.648-.288-1.728 0-1.944-1.944-2.232-2.448-.36-4.968-.648-7.488-.864-1.224-.072-1.008-.144-1.656.936-.936 1.512-1.8 3.024-2.52 4.608-5.112-.216-10.08-.216-14.976.072-.36-1.656-1.008-3.168-1.944-4.68-.576-.864-.432-.936-1.512-.864-2.088.216-4.176.432-6.192.72-2.232.288-1.872-.288-2.376 2.016-1.368 6.552-2.808 13.896-3.528 21.24 3.096-.864 6.264-1.44 9.504-1.584 4.032-.288 8.136-.072 12.096.792 2.448.504 4.896.792 7.272.648 2.376-.072 4.824-.432 7.2-1.152 1.8-.576 3.744-.936 5.832-1.08a31.264 31.264 0 0 1 4.464.072z" style="fill:#e2001a" transform="matrix(.441 0 0 .441 2 2)"/><path d="M142.441 152.568c1.048 0 2.064.032 3.112.096.127.031.254.095.38.19a.51.51 0 0 1 .16.35c.031.158.031.317.063.444.032.159.032.317.063.444 0 .16-.031.254-.127.35a.526.526 0 0 1-.38.158 51.879 51.879 0 0 0-3.144 0c-.159 0-.286-.031-.381-.127a.724.724 0 0 1-.19-.38c0-.16 0-.318-.032-.477 0-.159 0-.35-.032-.508 0-.127.063-.286.159-.38a.51.51 0 0 1 .349-.16zM136.376 152.727c1.048.095 2.064.159 3.112.095.127 0 .286.064.381.127.095.096.127.223.159.381v.508c.032.16.032.318.032.508a.586.586 0 0 1-.16.382.439.439 0 0 1-.348.19c-1.048 0-2.128-.127-3.176-.222-.127 0-.254-.064-.38-.159-.096-.095-.128-.254-.128-.381v-.984a.51.51 0 0 1 .16-.35c.094-.063.221-.127.348-.095zM130.344 152.632a20.15 20.15 0 0 1 3.08-.254.724.724 0 0 1 .38.19.638.638 0 0 1 .128.413v.54c-.032.159-.032.35-.032.508a.526.526 0 0 1-.159.381.453.453 0 0 1-.38.19 26.1 26.1 0 0 0-3.144.191c-.159 0-.286-.032-.381-.127a.408.408 0 0 1-.127-.381c0-.159.032-.318.032-.508.031-.159.031-.318.031-.508a.984.984 0 0 1 .19-.413c.096-.127.223-.222.382-.222z"/><path d="M195.989 323.568c-3.888 1.872-7.632 3.96-11.376 6.048-.36-11.736.432-23.472-.216-35.136-.072-1.728 0-3.096.144-4.32.576.144 1.224 1.224 2.16 3.6 2.376 5.832 5.688 17.424 9.288 29.808zM152.068 336.384c3.528-19.512 12.384-38.016 22.464-56.016 2.52 4.464-.504 15.768-1.8 20.88-2.376 9.504-4.176 21.384-5.544 31.968 3.384-11.304 6.696-22.824 9.648-35.496 1.08 9.648 1.152 21.168 1.224 32.616.792-4.392 1.512-8.784 2.232-13.176.072-.648 2.304-1.008 2.304.216-.072 16.416-.144 32.904-.144 49.32-.072 1.584-.432 1.944-1.224 2.016-.288 0-1.368.072-2.448.072-2.808.072-2.304-.72-2.232-3.456.36-10.584.864-21.24 1.512-31.896a901.97 901.97 0 0 0-13.104 7.848c-.576 5.112-1.008 10.152-1.152 15.192 0 2.088-1.008 2.52-1.944 2.376-.792-.144-1.44-.576-1.296-2.952.36-4.104.72-8.28 1.08-12.456-1.656 1.08-3.24 2.16-4.824 3.24 1.728-3.24 3.744-6.192 6.192-8.856 1.368-1.728-1.008-3.672-2.448-1.944-1.44 1.944-3.168 4.248-4.464 6.192.288-1.8.648-3.672 1.08-5.472.504-2.088-2.448-2.88-3.024-.72a89.508 89.508 0 0 0-1.512 8.784c-1.727-2.16-1.151-5.112-.576-8.28zM183.964 259.992c-1.656 2.16-3.024 4.392-4.32 6.624-1.008-1.656-1.08-1.728-1.008-3.6.216-12.528.864-25.056 1.584-37.584.144-2.16 2.736-1.944 2.808.144.432 11.376.505 23.04.936 34.416zM160.637 232.56h9.504c1.368 0 3.888 1.08 4.68.792 1.368-.576 3.384-1.152 3.24 1.152-.144 2.016-.216 4.032-.288 6.048-.144 3.096-.216 2.952-3.168 2.448-1.152-.144-2.664.504-4.032.504h-9.936c-.72 0-1.296-.576-1.296-1.224v-8.424a1.29 1.29 0 0 1 1.296-1.296zM208.517 351.504l-.288 9.432c1.656-1.296 3.096-2.88 5.112-3.888 0-.432-.288-3.384-.072-5.976.072-.792.288-1.08.288-1.944 0-1.656-.216-3.384-.288-4.464 0-1.728-1.584-1.584-3.168-1.44.144-6.984.288-13.896.36-20.88.072-3.672-2.232-.792-3.096.504-4.248 5.904-7.992 12.096-11.088 18.432-3.6 7.344-6.912 14.256-8.424 21.24-.72 3.096 1.008 2.952 2.736 1.08a133.708 133.708 0 0 1 14.832-13.752c2.231-1.8 3.096-.576 3.096 1.656zM261.365 325.512c-5.76 6.84-9.72 15.696-12.744 21.456-1.296 2.448 1.944 2.448 3.168.504 3.744-5.616 8.208-10.296 13.176-14.328zM216.004 306.432c.648 11.376 1.44 22.752 2.448 33.984 1.44-.936 2.808-1.8 4.248-2.664-1.512-10.44-3.168-20.736-4.824-30.96-1.367-8.064-2.231-6.12-1.872-.36zM223.853 304.272a158.94 158.94 0 0 0-3.384 3.744c1.584 9.432 3.024 18.936 4.464 28.368.792-.504 4.176-2.88 4.896-2.376.72.432 1.008 2.304 1.368 3.168.36.936 1.872 2.88 2.952 1.8.576-.72 0-3.096-.216-3.816-.432-1.728-1.08-3.96-1.368-4.68-2.88-8.64-5.688-17.064-8.28-24.984-.144-.432-.288-.864-.432-1.224zM205.132 319.824c2.088-.648 4.752-1.44 5.4-1.8l.216-24.624c0-4.176-1.368-4.248-1.944-.288zM219.604 302.688c.864-.936 1.8-1.944 2.736-2.952-.792-2.232-1.512-4.536-2.304-6.768-1.08-3.312-2.88-4.176-2.088.072.505 3.24 1.081 6.408 1.656 9.648zM343.661 248.04c-16.92 10.656-31.824 23.76-45.504 39.384-4.248 4.896-9.216 9.288-13.68 14.256-4.68 5.256-9.36 9.936-13.68 14.256l3.24 4.248c1.656 2.448.648 3.816-1.296 1.44-6.12-7.344-12.168-14.904-18.144-22.464-4.032-5.112-5.04-4.104-2.592 1.08l9.216 19.512c2.016-.288 3.816-.216 5.328.288-1.152 1.152-2.232 2.304-3.312 3.384l-.144.144 3.816 8.064c3.528-2.664 7.2-5.04 11.088-7.272 13.104-7.56 29.808-9.216 45.072-4.968 3.024.864 5.4 2.16 6.624-1.296 7.2-19.512 9-39.312 9.648-59.832 0-.792 3.384-3.816 5.04-5.328 1.296-1.224 1.079-5.976-.72-4.896zM248.117 324.072c3.744-1.728 7.416-3.168 10.728-3.888l-8.352-17.64c-1.08-2.16-2.808-3.24-2.736.072.216 7.344.36 14.544.36 21.456zM235.084 330.768c2.664-1.44 5.4-2.88 8.136-4.32.072-6.192.072-12.313.072-18.504 0-4.392-1.224-3.528-2.592-.36l-5.976 22.104c.145.36.289.72.36 1.08zM243.292 326.448c-.072 7.271-.072 14.544-.072 21.816 1.368-1.8 2.808-3.456 4.536-4.608.216-5.328.36-9.864.36-15.624.001-2.232-3.311-2.376-4.824-1.584zM239.765 285.264c-4.608 5.76-9.36 11.52-14.112 16.92l.864 2.592c2.376 7.2 4.68 14.04 6.912 20.808l9.936-37.296v-1.512c-1.584-.216-2.881-.792-3.6-1.512z" style="fill:#ffed00" transform="matrix(.441 0 0 .441 2 2)"/><path d="M270.292 315.36c13.032-15.696 25.704-31.536 39.384-45.864-.432-20.376-.216-40.824.432-61.2 3.384-5.472 7.488-10.224 11.88-14.616 1.728-1.728-2.304-4.032-3.672-2.664-17.784 17.496-34.56 37.152-50.76 57.96-7.128 9.072-13.896 18.36-20.88 27.504.072 1.512.144 2.952.216 4.464 2.88.288 4.968 1.512 4.968 2.952 0 1.296-1.728 2.376-4.104 2.88zM224.141 297.72c1.8-1.944 3.6-3.816 5.112-5.544 4.68-5.328 9.216-10.8 13.608-16.56l.648-.864c.072-5.832.144-11.592.288-17.352.072-2.52 1.656-1.584 1.728.144.288 4.536.576 9 .864 13.464.864-1.152 1.8-2.376 2.664-3.528-.72-24.48-1.584-49.032-3.528-73.584 1.656-2.736 3.024-5.688 5.112-7.992 2.016-2.304-.072-7.272-2.952-4.392-26.136 26.208-45.792 52.704-62.136 79.2-.576.936-1.224 1.944-1.8 2.952 3.6 19.728 8.712 39.384 14.04 59.04 1.656-.72 3.24-1.44 4.824-2.088l6.192-44.64c-2.016-.432-3.384-1.296-3.384-2.304 0-1.296 2.304-2.376 5.328-2.664v-17.712c0-1.368 2.232-1.368 2.376.072.288 5.904.648 11.736.936 17.64 3.168.288 5.544 1.368 5.544 2.664 0 .936-1.152 1.728-2.88 2.232 2.447 7.128 4.967 14.4 7.416 21.816z" style="fill:#ffed00" transform="matrix(.441 0 0 .441 2 2)"/><path d="m248.621 36.144 1.872 10.944c16.128.648 31.968 2.304 47.448 4.752l4.104-10.368c-1.728-.288-3.384-.576-5.112-.792l-1.152 7.56c-3.456-.504-6.912-1.008-10.44-1.44l1.008-7.632c-1.944-.288-3.96-.504-5.904-.72l-.864 7.632c-3.456-.36-6.984-.72-10.44-1.008l.648-7.632c-1.944-.144-3.96-.36-5.904-.504l-.576 7.704a249.582 249.582 0 0 0-10.512-.648l.36-7.704c-1.512-.072-3.025-.072-4.536-.144zM250.924 49.536l1.44 8.064c1.224.072 2.376.144 3.6.216l.504-7.992c-1.871-.144-3.672-.216-5.544-.288zM252.725 59.976l1.728 9.792c2.88.216 5.76.36 8.64.576l.792-9.648c-3.673-.288-7.416-.504-11.16-.72zM254.885 72.216l1.944 10.944c2.736.216 5.544.36 8.28.648l1.008-10.8c-3.744-.36-7.489-.576-11.232-.792zM267.484 84.024c2.016.144 4.104.36 6.12.576l1.368-10.8c-2.16-.216-4.32-.432-6.48-.576zM275.98 84.888c2.88.288 5.76.648 8.64 1.08l4.104-10.368c-3.816-.576-7.56-1.08-11.376-1.512zM289.588 73.296l3.6-9.288a273.918 273.918 0 0 0-11.088-1.512l-1.152 9.648c2.881.36 5.76.72 8.64 1.152zM294.125 61.776l2.952-7.632c-2.088-.36-4.248-.648-6.336-.936l-1.08 7.92c1.44.144 2.952.432 4.464.648zM329.98 47.16l-.288 11.16c15.408 3.744 30.456 8.352 45.072 13.824l5.976-9.36-3.888-1.512-2.592 7.2c-3.312-1.152-6.624-2.376-9.936-3.456l2.448-7.272c-1.872-.648-3.744-1.296-5.688-1.872l-2.304 7.272c-3.384-1.008-6.696-2.088-10.08-3.096l2.16-7.344a169.238 169.238 0 0 1-5.688-1.656l-2.016 7.416a536.852 536.852 0 0 0-10.224-2.736l1.872-7.416c-1.583-.36-3.24-.792-4.824-1.152zM329.621 60.696l-.216 8.208c1.296.36 2.592.648 3.888 1.008l2.088-7.704c-1.944-.504-3.817-1.008-5.76-1.512zM329.333 71.352l-.288 9.936c2.952.792 5.832 1.584 8.712 2.376l2.736-9.36c-3.744-1.008-7.416-2.016-11.16-2.952zM329.044 83.736l-.36 11.16c2.808.72 5.616 1.512 8.352 2.376l3.168-10.44c-3.671-1.08-7.415-2.088-11.16-3.096zM339.34 97.92c1.944.576 3.96 1.224 5.904 1.8l3.528-10.296-6.264-1.944zM347.477 100.44c2.52.864 4.968 1.728 7.488 2.592l6.048-9.504a545.47 545.47 0 0 0-10.008-3.384zM362.309 91.512l5.4-8.352c-3.24-1.224-6.48-2.304-9.72-3.456l-3.096 9.216c2.52.864 4.967 1.728 7.416 2.592zM369.004 81.072l4.392-6.912a230.513 230.513 0 0 1-5.112-1.872l-2.664 7.56c1.152.432 2.233.792 3.384 1.224zM278.573 71.856c-4.32-.504-8.712-.936-13.104-1.296l.792-9.72c4.536.432 9 .864 13.464 1.368zM288.365 52.848l-1.08 7.92c-4.32-.576-8.64-1.08-12.96-1.512l.792-7.992c4.464.432 8.856 1.008 13.248 1.584zM272.813 51.048l-.864 7.92a400.9 400.9 0 0 0-13.608-1.08l.504-7.92c4.679.216 9.287.648 13.968 1.08zM352.661 88.2a364.946 364.946 0 0 0-12.6-3.888l2.664-9.36c4.392 1.296 8.712 2.664 12.96 4.032zM366.053 71.568l-2.664 7.488a356.097 356.097 0 0 0-12.384-4.104l2.376-7.632c4.247 1.368 8.495 2.736 12.672 4.248zM351.077 66.672l-2.304 7.632c-4.392-1.368-8.784-2.592-13.176-3.744l2.088-7.776c4.463 1.224 9 2.52 13.392 3.888zM166.685 41.472l4.104 10.368c15.552-2.448 31.392-4.104 47.448-4.752l1.944-10.944c-1.584.072-3.096.072-4.608.144l.36 7.704c-3.528.144-7.056.36-10.512.648l-.576-7.704c-1.944.144-3.96.36-5.904.504l.648 7.632c-3.456.288-6.984.648-10.44 1.008l-.864-7.632c-1.944.216-3.96.432-5.904.72l.936 7.632c-3.456.432-6.912.936-10.44 1.44l-1.08-7.56c-1.729.216-3.384.504-5.112.792zM171.652 54.144l2.952 7.632c1.512-.216 3.024-.504 4.464-.648l-1.08-7.92c-2.088.288-4.247.576-6.336.936zM175.541 64.008l3.6 9.288c2.88-.432 5.76-.792 8.64-1.152l-1.152-9.648c-3.744.432-7.417.936-11.088 1.512zM180.004 75.6l4.104 10.368c2.88-.432 5.76-.792 8.64-1.08l-1.368-10.8c-3.816.432-7.559.936-11.376 1.512zM195.125 84.6c2.016-.216 4.104-.432 6.12-.576l-1.008-10.8c-2.16.144-4.32.36-6.48.576zM203.621 83.808c2.736-.288 5.544-.432 8.28-.648l1.944-10.944c-3.744.216-7.488.432-11.232.792zM214.276 69.768l1.728-9.792c-3.744.216-7.488.432-11.16.72l.792 9.648c2.881-.216 5.76-.36 8.64-.576zM216.365 57.6l1.44-8.064c-1.872.072-3.672.144-5.544.288l.504 7.992c1.224-.072 2.376-.144 3.6-.216zM87.989 62.784l5.976 9.36c14.616-5.472 29.664-10.08 45.072-13.824l-.288-11.16c-1.584.36-3.24.792-4.824 1.152l1.872 7.416c-3.384.864-6.84 1.8-10.224 2.736l-2.016-7.416c-1.944.576-3.816 1.152-5.688 1.656l2.16 7.344c-3.384 1.008-6.696 2.088-10.08 3.096l-2.376-7.272c-1.872.576-3.744 1.224-5.616 1.872l2.448 7.272c-3.312 1.08-6.624 2.304-9.936 3.456l-2.592-7.2-3.888 1.512zM95.333 74.16l4.392 6.912c1.152-.432 2.232-.792 3.384-1.224l-2.664-7.56c-1.728.648-3.456 1.296-5.112 1.872zM101.021 83.16l5.4 8.352a865.938 865.938 0 0 1 7.416-2.592l-3.096-9.216c-3.241 1.152-6.48 2.232-9.72 3.456zM107.717 93.528l6.048 9.504c2.52-.936 4.968-1.728 7.488-2.592l-3.528-10.296c-3.385 1.08-6.696 2.232-10.008 3.384zM123.484 99.72c1.944-.576 3.96-1.224 5.904-1.8l-3.168-10.44-6.264 1.944zM131.692 97.272a158.896 158.896 0 0 1 8.352-2.376l-.288-11.16c-3.816 1.008-7.56 2.016-11.232 3.096zM139.685 81.288l-.288-9.936c-3.744.936-7.416 1.944-11.16 2.952l2.736 9.36c2.88-.792 5.759-1.584 8.712-2.376zM139.325 68.904l-.216-8.208c-1.944.504-3.816 1.008-5.76 1.512l2.088 7.704c1.295-.36 2.592-.648 3.888-1.008zM190.157 71.856c4.32-.504 8.712-.936 13.104-1.296l-.792-9.72c-4.536.432-9 .864-13.464 1.368zM180.365 52.848l1.08 7.92c4.32-.576 8.64-1.08 12.96-1.512l-.792-7.992c-4.465.432-8.857 1.008-13.248 1.584zM195.917 51.048l.792 7.92c4.536-.432 9.072-.792 13.68-1.08l-.504-7.92c-4.68.216-9.288.648-13.968 1.08zM116.068 88.2a364.946 364.946 0 0 1 12.6-3.888l-2.664-9.36c-4.392 1.296-8.712 2.664-12.96 4.032zM102.677 71.568l2.664 7.488a356.097 356.097 0 0 1 12.384-4.104l-2.376-7.632c-4.248 1.368-8.496 2.736-12.672 4.248zM117.652 66.672l2.304 7.632c4.392-1.368 8.784-2.592 13.176-3.744l-2.088-7.776c-4.463 1.224-9 2.52-13.392 3.888zM65.885 45.36l-9.864 4.104-3.457-8.352-5.471 2.304 5.183 12.312 35.929-15.12-5.184-12.312-5.4 2.304 3.456 8.352-9.792 4.104-3.456-8.352-5.473 2.304zM81.581 46.008l-23.112 9.72c.792 1.296 1.584 2.592 2.592 3.816l22.248-9.36c-.36-1.44-.936-2.952-1.728-4.176z" style="fill:#fff" transform="matrix(.441 0 0 .441 2 2)"/><path d="M106.276 105.696c1.728-.648 3.456-1.224 5.256-1.872l-27.72-43.128c0-2.736.216-5.328-.144-8.064l-20.952 8.784c1.944 2.016 4.248 3.6 6.84 4.752l5.544 13.32c3.744-.864 9.288-.504 12.672.288 2.16.792 3.96 2.376 5.832 5.4v.072z" style="fill:#fff" transform="matrix(.441 0 0 .441 2 2)"/><path d="M101.813 107.424c.72-.288 1.512-.576 2.232-.864L91.588 86.472c-1.584-2.592-2.952-3.888-4.608-4.464-2.88-.936-7.704-.864-10.872-.288l.792 2.232c3.24-.648 8.064-.648 10.8 1.296.576.576 1.224 1.368 1.872 2.448z" style="fill:#fff" transform="matrix(.441 0 0 .441 2 2)"/><path d="M88.853 112.824c.072-.072.144-.072.288-.144a265.007 265.007 0 0 1 10.44-4.32l-.576-1.008-8.424 3.24c-1.512.648-2.448-1.584-.864-2.232l7.704-3.528-1.08-1.728-7.632 2.952c-1.584.648-2.448-1.584-.936-2.232l7.056-3.168-1.08-1.8-6.912 2.664c-1.584.648-2.52-1.512-.936-2.16l6.264-2.952-1.08-1.728-6.192 2.304c-1.512.648-2.448-1.512-.864-2.16l5.544-2.592-.936-1.584-.144-.216-5.472 2.016c-1.584.72-2.448-1.512-.936-2.16l4.896-2.232c-1.728-2.448-6.408-2.304-9.144-1.872zM402.845 45.36l9.863 4.104 3.457-8.352 5.472 2.304-5.184 12.312-35.929-15.12 5.184-12.312 5.4 2.304-3.527 8.352 9.863 4.104 3.456-8.352 5.473 2.304zM387.148 46.008l23.112 9.72c-.792 1.296-1.584 2.592-2.592 3.816l-22.248-9.36c.288-1.44.936-2.952 1.728-4.176zM369.148 108.36a265.007 265.007 0 0 1 10.44 4.32c.144.072.216.072.288.144l11.016-26.64c-2.736-.432-7.416-.576-9.144 1.872l4.896 2.232c1.512.648.648 2.88-.936 2.16l-5.472-2.016-.144.216-.936 1.584 5.544 2.592c1.584.648.648 2.808-.864 2.16l-6.192-2.304-1.08 1.728 6.264 2.952c1.584.648.648 2.808-.936 2.16l-6.912-2.664-1.08 1.8 7.056 3.168c1.512.648.648 2.88-.936 2.232l-7.632-2.952-1.08 1.728 7.704 3.528c1.584.648.648 2.88-.864 2.232l-8.424-3.24z" style="fill:#fff" transform="matrix(.441 0 0 .441 2 2)"/><path d="M364.685 106.56c.72.288 1.512.576 2.232.864l12.24-19.728c.648-1.08 1.296-1.872 1.872-2.448 2.736-1.944 7.56-1.944 10.8-1.296l.792-2.232c-3.168-.576-7.992-.647-10.872.288-1.656.576-3.024 1.872-4.608 4.464z" style="fill:#fff" transform="matrix(.441 0 0 .441 2 2)"/><path d="M357.197 103.824c1.8.648 3.528 1.224 5.256 1.872l12.672-20.448v-.072c1.872-3.024 3.672-4.608 5.832-5.4 3.384-.792 8.928-1.152 12.672-.288l5.544-13.32c2.52-1.152 4.896-2.736 6.84-4.752l-20.952-8.784c-.36 2.736-.144 5.328-.144 8.064zM317.237 19.44l-11.881-2.376 1.801-8.928-7.2-1.512-2.665 13.248 45.433 9.216 2.735-13.248-7.272-1.44-1.799 8.928-11.88-2.448 1.8-8.856-7.201-1.512zM313.924 91.296c-1.728-.432-3.528-.792-5.328-1.224-2.952-.576-5.976-1.152-8.928-1.729l.36-.936 8.784 1.44c1.656.36 2.16-2.016.504-2.304l-8.28-1.944.72-1.872 8.064 1.296c1.656.36 2.088-1.944.432-2.304l-7.488-1.8.72-1.872 7.272 1.224c1.656.288 2.16-2.016.504-2.376l-6.768-1.584.72-1.944 6.552 1.08c1.656.36 2.088-2.016.432-2.304l-5.976-1.44.648-1.728.144-.288 5.688.936c1.656.36 2.16-1.944.504-2.304l-5.256-1.224c.792-1.728 1.512-2.232 3.744-2.664.144 0 .288 0 .432-.072.144.144.288.216.432.288 2.232 1.44 2.448 2.16 2.376 4.896l-.072 2.016z" style="fill:#fff" transform="matrix(.441 0 0 .441 2 2)"/><path d="M318.677 92.376c-.792-.216-1.584-.432-2.376-.576l1.008-23.112c0-1.296 0-2.304-.216-3.168-.288-1.44-1.08-2.304-2.232-3.168-.648-.432-1.368-.936-2.232-1.44-.936.144-1.8.288-2.592.504-1.368.36-2.448.792-3.312 2.016-.504.72-.936 1.584-1.368 2.808l-8.064 21.672c-.792-.144-1.584-.216-2.376-.36l8.208-22.104c1.08-2.808 2.16-4.392 3.672-5.328 1.512-.864 3.528-1.296 6.336-1.656 2.448 1.44 4.176 2.592 5.184 4.032 1.08 1.44 1.44 3.24 1.368 6.264z" style="fill:#fff" transform="matrix(.441 0 0 .441 2 2)"/><path d="M326.38 94.248c-1.8-.432-3.6-.864-5.4-1.368l1.008-24.048c.144-3.528-.36-5.832-1.728-7.776-1.512-2.088-4.392-3.888-6.624-5.04-2.592.216-5.832.72-8.064 2.088-2.016 1.224-3.384 3.168-4.68 6.48L292.54 87.12c-1.8-.288-3.672-.576-5.472-.792l18.648-47.736c-.576-2.664-1.296-5.184-1.512-7.92l27.936 5.688c-1.224 2.376-2.88 4.464-4.464 6.696zM144.221 20.88l-11.881 2.448-1.799-8.928-7.201 1.44 2.664 13.248 45.433-9.216-2.665-13.248-7.199 1.512 1.8 8.928-11.88 2.376-1.801-8.928-7.272 1.44zM136.588 36.36c1.224 2.448 2.88 4.464 4.464 6.696l1.296 51.192c1.8-.432 3.6-.936 5.4-1.368l-1.008-24.048c-.144-3.528.36-5.832 1.728-7.776 1.512-2.088 4.32-3.888 6.624-5.04 2.52.216 5.832.72 8.064 2.088 2.016 1.224 3.384 3.168 4.68 6.48l8.352 22.536c1.8-.288 3.672-.576 5.472-.792l-18.648-47.736c.576-2.664 1.296-5.184 1.512-7.92z" style="fill:#fff" transform="matrix(.441 0 0 .441 2 2)"/><path d="m152.429 91.8-1.008-23.184c0-1.224 0-2.232.216-3.096.288-1.44 1.08-2.304 2.232-3.168.648-.432 1.368-.936 2.232-1.44.936.144 1.8.288 2.592.504 1.368.36 2.448.792 3.312 2.016.432.72.936 1.584 1.368 2.808l8.064 21.672c.792-.144 1.584-.216 2.376-.36l-8.208-22.104c-1.08-2.808-2.16-4.392-3.672-5.328-1.512-.864-3.528-1.296-6.336-1.656-2.448 1.44-4.176 2.592-5.184 4.032-1.08 1.44-1.44 3.24-1.296 6.264h-.072l1.008 23.616c.792-.216 1.584-.432 2.376-.576z" style="fill:#fff" transform="matrix(.441 0 0 .441 2 2)"/><path d="m153.796 67.464 5.256-.864c1.656-.36 2.16 2.016.504 2.304l-5.688 1.368v.288l.072 1.872 6.12-1.008c1.656-.36 2.16 1.944.432 2.304l-6.408 1.512.072 2.088 6.84-1.152c1.656-.288 2.16 2.016.504 2.376l-7.2 1.656.072 2.088L162.004 81c1.656-.36 2.16 2.016.432 2.304l-7.92 1.944.072 1.944 8.352-1.368c1.656-.36 2.16 2.016.504 2.304l-8.712 2.088.072 1.008c1.728-.36 3.528-.72 5.328-1.152 2.952-.576 5.976-1.152 8.928-1.729l-7.2-19.368-.72-1.872c-.936-2.592-1.44-3.168-4.104-3.6-.144-.072-.288-.072-.432-.144a1.506 1.506 0 0 1-.432.288c-1.871 1.225-2.376 1.945-2.376 3.817zM134.573 29.808c.072 1.44.432 2.952.936 4.32l29.088-5.904c0-1.512-.288-2.952-.792-4.32zM304.924 23.904a12.422 12.422 0 0 0-.792 4.32l29.088 5.904c.504-1.44.864-2.88.936-4.32zM230.692 11.52h-12.095V2.448h-7.416v13.464h46.367V2.448h-7.416v9.072h-12.095V2.448h-7.345zM241.637 82.584a244.878 244.878 0 0 0-14.544 0l.144-1.08 8.928-.288c1.656 0 1.656-2.376 0-2.376l-8.424-.288.288-1.944 8.136-.288c1.656 0 1.656-2.376 0-2.376l-7.632-.288.288-2.016 7.344-.216c1.656 0 1.656-2.376 0-2.376l-6.912-.216.36-2.088 6.552-.216c1.656 0 1.656-2.376 0-2.376l-6.12-.216.288-1.8.072-.288 5.76-.216c1.656 0 1.656-2.376 0-2.376l-5.328-.216c.432-1.872 1.008-2.448 3.168-3.24.144-.072.288-.144.36-.216.144.072.288.144.36.216 2.52 1.008 2.952 1.584 3.312 4.32l.36 2.016z" style="fill:#fff" transform="matrix(.441 0 0 .441 2 2)"/><path d="M246.46 82.656c-.792 0-1.656 0-2.448-.072l-3.6-22.824c-.216-1.296-.432-2.304-.792-3.024-.576-1.368-1.584-2.016-2.88-2.664-.648-.36-1.512-.648-2.376-1.008-.864.36-1.728.648-2.376 1.008-1.368.576-2.304 1.296-2.88 2.664-.432.936-.648 2.016-.792 3.024l-3.6 22.824c-.792.072-1.656.072-2.448.072l3.744-23.256c.432-2.952 1.224-4.752 2.52-5.904 1.296-1.224 3.168-2.016 5.832-2.952 2.664.936 4.536 1.728 5.832 2.952 1.296 1.152 2.088 2.952 2.592 5.904z" style="fill:#fff" transform="matrix(.441 0 0 .441 2 2)"/><path d="m254.38 83.016-5.544-.216-3.744-23.76c-.576-3.6-1.584-5.688-3.312-7.344-1.872-1.728-4.968-2.952-7.416-3.6-2.448.648-5.544 1.872-7.416 3.6-1.728 1.656-2.736 3.744-3.312 7.344l-3.744 23.76-5.544.216 8.856-50.4c-1.08-2.52-2.304-4.824-3.096-7.488h28.512c-.792 2.664-1.944 4.968-3.096 7.488zM219.46 18.288c-.216 1.512-.144 2.952.144 4.464h29.592c.216-1.512.288-2.952.072-4.464zM368.141 135.288c.936.432 1.44 1.152 1.512 1.872 0 .288 0 .504-.072.72-.504 1.152-2.088.72-2.952.36-84.096-36.072-180.432-36.072-264.528 0-.864.36-2.448.792-2.952-.36-.072-.216-.072-.432-.072-.72.072-.72.576-1.44 1.512-1.872 87.623-36.36 179.928-36.36 267.552 0z" style="fill:#fff" transform="matrix(.441 0 0 .441 2 2)"/><path d="M363.316 127.08c.576.216 1.08.432 1.44.72.72.432 1.08.864 1.296 1.296.072.288.072.648 0 .864-.504 1.224-1.944 1.008-2.952.648-82.152-33.552-175.32-33.552-257.544 0-.936.36-2.376.576-2.88-.648-.072-.216-.072-.576 0-.864.216-.432.576-.864 1.296-1.296.36-.288.864-.504 1.44-.72 82.369-33.264 175.537-33.264 257.904 0z" style="fill:#fff" transform="matrix(.441 0 0 .441 2 2)"/><path d="M362.524 120.6c1.224.432 1.728 1.152 1.728 1.728.072.216 0 .504-.072.72l-.072.072c-.504 1.224-1.368 1.152-2.376.792-.216-.144-.504-.288-.648-.288-81.144-31.896-172.296-31.896-253.44 0-.144 0-.432.144-.648.288-1.008.36-1.872.432-2.376-.792-.072 0-.072-.072-.072-.072-.072-.216-.144-.504-.072-.72 0-.576.504-1.296 1.728-1.728 82.008-32.328 174.313-32.328 256.32 0z" style="fill:#fff" transform="matrix(.441 0 0 .441 2 2)"/><path d="M368.141 116.64c.936.36 2.448 1.296 1.944 2.52-.432 1.008-1.728 1.224-2.664.792-84.888-34.632-181.224-34.632-266.112 0-.936.432-2.232.216-2.664-.792-.504-1.224 1.008-2.16 1.944-2.52 85.391-34.632 182.16-34.632 267.552 0z" style="fill:#fff" transform="matrix(.441 0 0 .441 2 2)"/><path d="M378.652 114.84c.72.36 1.08 1.008 1.152 1.728 0 .288-.072.504-.144.72-.072.216-.216.36-.36.504-.432.36-1.296.432-2.592-.072-90.432-39.24-194.256-39.24-284.76 0-1.224.504-2.088.432-2.52.072-.144-.144-.288-.288-.36-.504-.072-.216-.144-.432-.144-.72.072-.72.432-1.368 1.152-1.728 91.585-39.888 196.992-39.888 288.576 0z" style="fill:#fff" transform="matrix(.441 0 0 .441 2 2)"/><path d="m100.783 22.226.857-4.858c.159-.508.127-.445.635-.508h.794c.38.032.413.19.38.508l-.888 4.922c-.064.38-.064.603-.54.603h-.762c-.604 0-.572-.127-.476-.667zM109.927 22.226l-.857-4.858c-.16-.508-.127-.445-.635-.508h-.794c-.381.032-.413.19-.381.508l.857 4.922c.095.38.095.603.572.603h.762c.603 0 .572-.127.476-.667zM65.728 26.64l-.127-4.922c.032-.508 0-.476.508-.635l.794-.159c.35-.032.445.095.445.445l.127 4.985c0 .413.063.603-.413.698l-.762.16c-.603.126-.572 0-.572-.572zM74.682 24.83l-1.778-4.573c-.254-.476-.222-.444-.73-.38l-.794.158c-.349.095-.38.254-.254.572l1.81 4.636c.159.38.222.603.667.508l.762-.16c.603-.126.508-.253.317-.761zM136.028 24.83l1.778-4.573c.254-.476.222-.444.73-.38l.794.158c.349.095.349.254.254.572l-1.842 4.636c-.127.38-.19.603-.667.508l-.73-.16c-.603-.126-.508-.253-.317-.761zM144.982 26.64l.127-4.922c-.032-.508 0-.476-.508-.635l-.794-.159c-.35-.032-.445.095-.445.445l-.127 4.985c0 .38-.063.603.413.698l.762.16c.603.126.572 0 .572-.572zM40.866 34.292l-2.635-4.128c-.35-.413-.318-.38-.794-.254l-.762.318c-.318.19-.286.317-.127.603l2.699 4.191c.222.35.317.572.762.381l.698-.317c.572-.223.477-.318.16-.794zM169.843 34.292l2.636-4.128c.35-.413.317-.38.794-.254l.762.318c.317.19.286.317.127.603l-2.7 4.191c-.221.35-.317.572-.761.381l-.699-.317c-.571-.223-.476-.318-.159-.794z"/></svg>