<svg xmlns="http://www.w3.org/2000/svg" width="101.54518pt" height="136.34375pt" viewBox="0 0 101.54518 136.34375"><path d="M116.501 56.37c1.21-.044 12.21.042 23.164 6.406 4.113 2.382 8.66 3.422 12.254 3.812 3.55.39 7.273.129 7.273.129l.692 1.04c.176.304 4.98 8.226 6.93 28.878 1.039 11.04.433 23.293-3.985 34.508-11.95 30.133-44.683 40.094-46.328 40.57-1.688-.476-34.422-10.437-46.328-40.57-4.457-11.215-5.067-23.469-4.027-34.508 1.949-20.652 6.8-28.574 6.972-28.879l.649-1.039s3.765.262 7.273-.129c3.594-.39 8.184-1.43 12.297-3.812 10.953-6.364 21.953-6.45 23.164-6.407" style="fill:#fff;fill-opacity:1;fill-rule:evenodd;stroke:none" transform="translate(-65.708 -35.37)"/><path d="M116.63 170.022c-1.211-.387-33.121-10.086-44.809-39.703H161.4c-11.73 29.617-43.597 39.316-44.77 39.66zm48.32-53.211H68.228c.343 2.34.82 4.59 1.382 6.754h94c.563-2.164.996-4.414 1.34-6.754zm.653-13.551H67.618c-.043 1.254-.043 2.598-.043 3.941 0 .95 0 1.903.043 2.813h97.985c0-.91.043-1.863.043-2.856 0-1.3 0-2.644-.043-3.898" style="fill:#008257;fill-opacity:1;fill-rule:evenodd;stroke:none" transform="translate(-65.708 -35.37)"/><path d="M88.794 140.584c.387.512.422.887.14 1.184-.468.52-1.152.137-1.675-.399l-.633-.593-3.797.332-.848.859 1.45 1.34 1.957-1.844 1.386 1.383c1.274 1.289 2.762 1.125 3.524.477.797-.653.973-1.793.293-2.895l-1.797.156" style="fill:#fff;fill-opacity:1;fill-rule:evenodd;stroke:none" transform="translate(-65.708 -35.37)"/><path d="m87.56 139.326.707.688c.222.187.414.41.527.57l1.797-.156c-.04-.066-.113-.129-.153-.191-.847-1.09-1.664-1.836-3.3-3.368l-4.309 4.239 3.797-.332-.3-.317 1.234-1.133M152.653 139.932s-1.082 1.43-2.207 2.64c-1.125 1.215-2.293 2.208-2.293 2.208l-3.207-3.375v-2.903l3.68 3.899s.305-.22 1.344-1.387c1.082-1.125 1.644-1.95 1.644-1.95zm-7.707 7.016.22.128 1.687-1.257-1.907-1.211zm0-5.543-1.945-2.036 1.426-1.386.52.52zm0 3.203v2.34l-1.125-.739-2.597 1.559v-1.516l1.43-.863-1.43-.867v-2.25zm-3.722-2.336v2.25l-1.387-.91.262 3.378 1.125-.738v1.516l-.91.562.132 1.692-1.863.906-.477-8.137 1.993-1.258zm-37.496 9.828v-2.383c.609.086 1.171 0 1.3-.52.13-.562-.476-.91-1.168-1.167h-.132v-1.516l1.386.434c1.602.472 2.25 1.73 1.95 2.769-.262.781-.997 1.254-1.993 1.344.692.605.825 1.34 1.301 3.765l-2.168-.476c-.172-.824-.3-1.602-.476-2.25zm31.433-5.371a7.9 7.9 0 0 0-3.074.347c-2.078.735-2.856 2.293-2.512 3.332.434 1.258 2.254 1.559 3.856.997.476-.172.648-.301 1.168-.692l-.258-.824-1.172.39-.387-1.253 2.989-1.082.996 2.855c-.391.738-1.649 1.645-2.903 2.078-2.687.91-5.543.262-6.277-1.816-.738-2.168 1.125-4.418 3.851-5.371 1.125-.39 2.34-.52 3.208-.477zm-9.828.781.61 4.285c.214 2.426-1.735 3.55-3.942 3.766-2.383.219-4.29-.692-4.504-2.985l-.129-4.246 2.035-.086.215 4.157c.086 1.039.953 1.734 2.207 1.601 1.086-.086 2.125-.691 2.035-1.992l-.52-4.2zm-9.09 2.164s-.824 0-1.515-.043c-.825-.043-1.602-.086-1.602-.086l-.52 6.016-2.035-.172.52-6.02s-1.082-.086-1.649-.171a39.042 39.042 0 0 1-1.382-.215l.171-1.344c1.125.172 2.555.39 4.07.52 1.43.128 2.684.171 3.985.171zm-12.515-3.16v1.516l-.864-.22-.476 1.56 1.039.304c.086.043.172.043.3.043v2.383c-.214-.652-.562-1.129-1.167-1.258l-.563-.172-.867 2.899-1.945-.606 2.12-7.144zm-9.395 4.371c1.906.348 3.637-.477 4.29-1.773.862-1.559.17-4.114-2.517-5.543-.605-.301-1.21-.52-1.773-.606v1.602c.348.043.691.172 1.04.39 1.343.692 1.991 2.035 1.386 3.203-.477.91-1.43 1.254-2.426 1.125zm0-7.922v1.602c-1.04-.172-1.992.129-2.469 1.039-.605 1.168.043 2.597 1.387 3.289.348.219.734.305 1.082.39v1.602c-.605-.086-1.21-.3-1.816-.605-1.04-.563-1.778-1.297-2.254-2.122v-3.898c.78-.992 2.297-1.645 4.07-1.297zm-4.07 1.297v3.898c-.692-1.21-.778-2.511-.215-3.507.043-.13.129-.258.215-.391" style="fill:#fff;fill-opacity:1;fill-rule:evenodd;stroke:none" transform="translate(-65.708 -35.37)"/><path d="M88.532 75.983c.692-.434 1.168-.434 1.516-.043.605.648.043 1.472-.695 2.078l-.82.734v4.852l.995 1.168 1.86-1.688-2.121-2.683 1.906-1.606c1.777-1.469 1.73-3.375.996-4.414-.734-1.082-2.164-1.43-3.637-.691zm-1.73 1.43.949-.825a4.43 4.43 0 0 1 .781-.605V73.69c-.086.043-.172.129-.261.172-1.47.953-2.508 1.906-4.633 3.808l4.894 5.934v-4.852l-.433.348-1.297-1.688M103.251 71.998c.523 1.559-.734 3.246-2.422 3.942-.348.129-.652.258-.953.304v1.989a6.993 6.993 0 0 0 1.559-.477c2.945-1.125 4.37-3.289 4.46-5.238v-.52c0-.3-.09-.648-.175-.953-.649-2.25-2.856-3.55-5.844-2.855v2.078c1.645-.305 2.898.347 3.375 1.73zm-3.375 4.246c-1.688.301-3.031-.433-3.379-1.82-.473-1.644.867-3.25 2.34-3.851a8.696 8.696 0 0 1 1.039-.305V68.19c-.52.129-1.04.3-1.602.52-2.945 1.253-4.289 3.288-4.332 5.195v.347c0 .301.043.649.133.95.563 2.081 2.512 3.726 5.801 3.03v-1.988M111.954 67.627c.824-.043 1.606.043 1.734.863.172 1.04-.824 1.387-1.734 1.43v1.778c1.082.3 1.906 1.73 2.988 3.375h2.989c-1.645-2.598-2.77-4.415-3.68-4.243.953-.172 2.293-1.168 2.121-2.597-.262-2.25-2.383-2.383-4.242-2.293h-.176zm-1.73.172 1.43-.129c.085 0 .214-.043.3-.043V65.94c-1.816.129-4.457.515-4.457.515l1.04 9.223 2.507-.3-.387-3.638.778-.085c.175 0 .347 0 .52.043V69.92h-.044l-1.43.172-.257-2.293M127.759 68.576s-.563-.128-1.774-.343a40.255 40.255 0 0 0-1.863-.305l-.953 7.621-2.512-.305.953-7.66s-.433-.043-1.859-.133c-1.344-.086-1.82-.086-1.82-.086l.086-1.558c1.687.043 3.765.219 5.152.39 1.43.172 3.117.477 4.937.825l-.347 1.554M130.27 77.194l-2.468-.692 2.554-8.918 2.426.692-2.511 8.918M141.267 83.084l-1.774-1.344-2.12-7.62-2.427 5.023-2.297-1.04 3.985-8.398 2.078.953 2.383 7.965 3.16-4.847 2.207 1.515-5.195 7.793M153.911 88.365c-.305-1.515-1.125-3.289-1.906-4.417-1.516-2.165-3.29-2.336-4.547-1.383-1.039.734-1.383 2.597-.3 4.457.343.52 1.167 1.515 1.816 1.949l1.039-.563-.91-1.687 1.3-.738 1.993 3.941-2.946 1.559c-1.082-.434-2.902-2.121-3.808-3.465-2.079-2.942-1.907-6.059.39-7.664 2.293-1.602 5.281-.606 7.403 2.297.996 1.34 1.859 3.289 2.207 4.418l-1.73 1.296M82.556 81.96c-1.383 1.124-2.121 1.902-2.684 2.769-.562.91-.648 1.601-.258 1.86 1.04.78 3.895-4.458 6.578-2.77 1.43.867 1.387 2.902.043 5.152-1.125 1.777-1.988 2.426-3.027 3.16l-1.648-.996c1.648-.992 2.425-1.73 3.117-2.855.61-.954.61-1.735.133-2.036-1.258-.78-3.727 4.59-6.454 2.903-1.34-.824-1.472-2.73 0-5.067.692-1.129 1.473-2.035 2.684-3.074l1.516.953M116.63 145.3s27.453-7.923 27.453-35.157c0-16.02-3.941-21.735-3.941-21.735s-5.977.477-10.996-2.425c-6.235-3.637-12.516-3.461-12.516-3.461s-6.277-.176-12.512 3.46c-5.023 2.903-10.996 2.426-10.996 2.426s-3.984 5.715-3.984 21.735c.043 27.234 27.492 35.156 27.492 35.156" style="fill:#008257;fill-opacity:1;fill-rule:evenodd;stroke:none" transform="translate(-65.708 -35.37)"/><path d="M116.63 143.74s26.066-7.53 26.066-33.425c.043-15.196-3.722-20.653-3.722-20.653s-5.672.48-10.434-2.293c-5.934-3.464-11.91-3.289-11.91-3.289s-5.973-.175-11.906 3.29c-4.762 2.773-10.434 2.292-10.434 2.292s-3.766 5.457-3.766 20.653c0 25.894 26.106 33.425 26.106 33.425" style="fill:#fff;fill-opacity:1;fill-rule:evenodd;stroke:none" transform="translate(-65.708 -35.37)"/><path d="M116.63 142.182s24.723-7.14 24.723-31.649c0-14.46-3.551-19.57-3.551-19.57s-5.367.434-9.914-2.207c-5.63-3.25-11.258-3.074-11.258-3.074s-5.668-.176-11.254 3.074c-4.547 2.64-9.918 2.207-9.918 2.207s-3.55 5.11-3.55 19.57c0 24.508 24.722 31.649 24.722 31.649" style="fill:#008257;fill-opacity:1;fill-rule:evenodd;stroke:none" transform="translate(-65.708 -35.37)"/><path d="M106.935 95.858s.953.52 2.164.562c1.687.086 4.847-1.344 6.015-.219-.258-.043-1.383-.3-2.941.262-1.387.52-2.34.735-3.117.735-1.907 0-2.254-1.473-2.121-1.34" style="fill:#fdb830;fill-opacity:1;fill-rule:evenodd;stroke:none" transform="translate(-65.708 -35.37)"/><path d="M125.376 96.42c-.086-1.601-1.383-2.125-2.25-2.125-.824.047-1.344.61-1.344.61 0-.086-.215-1.082 1.04-1.387 1.038-.262 2.034.476 2.167.52.043-.173.086-1.43-1.949-1.602-.996-.086-2.469.258-2.902-.262 0 0 .824 0 1.43-.258.648-.304 1.124-.824 1.124-.824-1.296.39-3.16-.562-4.285-.605-1.558-.043-1.863.691-1.863.691-.477-.258-1.383-.344-1.73-.344-.262 0-1.602-.043-1.602.778 0 1.214 3.55.52 3.68.52 0 0-.043.347-1.473.651-.606.13-.824.387-.953.735.043-.13-.043-.305-.172-.477-.219-.304-.606-.605-1.906-.562-.477 0-1.95.304-1.95.91 0 .605 1.215.344 1.215.344s0 .09-.433.261c-.258.13-.434.301-.477.52-.129.648.649 1.168.649 1.168s.476-1.04 2.168-1.04c1.773 0 2.597.997 2.55 1.778-.043.477-.386 1.04-1.644 1.082-1.297.086-2.207-.262-2.207-.262s-.219.653.172.997c.652.562.91.953.867 1.601 0 0 .777-1.254 1.816-1.43.434-.085 1.086 0 1.086.567-.043 1.125-2.297 1.469-2.73 1.601-1.946.477-2.555 1.082-2.64 1.559.476-.176.952-.219 1.69-.176 1.254.043 1.86-.648 1.86-.648.086.953-1.774 1.515-3.55 2.12-2.337.825-2.727 2.298-2.813 3.075 0 0-4.243 3.031-6.368 2.945-1.902-.085-1.73-1.214-3.117-1.168-1.472 0-1.644 1.34-1.644 1.34s.433-.258 1.21-.215c.61.043.91.258.997.477 0 0-1.469-.219-2.25.39-1.082.821-.305 1.989-.305 1.989s.305-.563 1.086-.82c.863-.348 1.602-.086 1.602-.086-.133.043-1.473.215-1.864 1.21-.258.778.477 1.344.692 1.473 0 0 .78-1.644 3.336-2.164 2.511-.476 4.328.52 4.328.52a1.628 1.628 0 0 0-.606-.867c-.39-.391-.91-.563-.91-.563s.133-.348.738-.39c1.559-.13 1.903 1.257 3.766 1.43a2.702 2.702 0 0 0 1.773-.563s-.605.257-1.468-.696c-.825-.906-1.82-.734-1.82-.734s.605-.52 1.558-.477c1.387.086 2.164 1.387 3.203 1.645 1.129.262 1.559 0 1.559 0-.043.086-.13.348-.735.652-.172.086-.648.172-.867.13 0 0 .176 1.991 5.977 3.46 1.906.477 2.164.91 2.078 1.649-.13 1.296-1.778 1.816-1.863 4.242-.13 2.468 1.863 3.117 2.253 4.199.473 1.082-.171 1.95-.171 1.95.644.128 1.082-.477 1.511-.74.825-.476 1.645.048 1.473 1.388-.129 1.125-1.297 4.199-2.727 4.156-.996-.043-.91-.215-1.863-.215-.91-.043-1.039.648-1.039.953-.043.477.434 1.211.434 1.211s.129-.39.78-.605c.52-.176.907-.13 1.298-.13 0 0-1.211.65-1.297 1.645-.09.735.258.953.258.953s.304-.39.996-.523c.777-.086 1.3-.3 2.12-1.426 0 0 .263.172-.128.996-.39.692 0 1.211 0 1.211s.258-.348.605-.52c.563-.214 1.473-.3 1.602-1.038.129-.735-.867-1.344-.348-2.641.434-1.082 1.215-1.344 1.864-1.645 1.168-.609 1.125-.996 1.125-.996-.434.172-.864-.043-1.387 0-.473.043-.734.344-.734.344s0-.906.996-1.644c1.039-.778 2.64-.864 3.422-2.122.734-1.125.085-1.816.085-1.816 0 .3-.347.734-1.43 1.168-.952.434-1.386.777-1.644 1.168 0 0-.129-2.164 2.293-3.031 2.684-1.04 1.906-2.38 1.778-2.598 0 0-.52.953-1.602.953-1.602.043-1.645-1.95-1.691-1.992.562.348 1.343.39 2.296.219 1.516-.348 1.993-1.215 2.079-1.692-.133.09-1.387 1.172-2.079.477 0 0 2.641-.563 2.727-3.637.129-3.46-2.555-5.281-3.938-8.96-.523-1.345-1.257-5.325 2.075-5.977.523-.086.996.043.867 0 0 0-.777 1.992 1.473 2.164 2.12.176 3.074-.864 3.074-.864s-.953.258-1.864.043c-.996-.261-.906-.91-.906-.91s.82.434 1.645.477c1.43.129 1.949-.606 2.035-.781 0 0-.734.218-1.43.132-1.168-.132-1.125-.648-1.125-.648s.735.258 1.73.086c1.43-.262 1.645-1.082 1.602-1.387 0 0-.343.82-2.078.52-.91-.172-.996-.348-1.95-.434-.991-.043-1.773.735-1.858.953 0 0-.563-.086-1.215-.043-.692.086-3.504.82-3.375 4.676.086 3.941 3.851 8.27 3.722 11.172-.086 2.035-1.515 2.555-2.164 2.598-1.43.086-3.246-.61-4.894-4.59-.906-2.164-1.211-4.418-1.04-6.625 0 0-.519.261-.734 1.039-.172.562-.086.953 0 1.297 0 0-1.082-.387-.953-1.946.13-1.691.563-2.12.696-3.507.085-1.04-.567-1.95-.567-1.95s1.387.172 1.692 1.993c.476 3.16 1.73 2.902 1.73 2.902-.824-1.3-.3-3.25-.563-4.895-.39-2.468-2.12-1.906-2.164-1.906 0 0 .258-.906 1.125-.906.649 0 1.254.648 1.774 1.992.566 1.34 1.3 1.082 1.3 1.082-.648-.738-.476-1.95-.867-3.031-.996-2.64-2.855-2.121-2.898-2.121.043-.09.215-.867 1.21-.867.692-.043 1.345.476 1.731 1.386.348.864.954.735.997.735-.258-.258-.391-.391-.477-1.774" style="fill:#fdb830;fill-opacity:1;fill-rule:evenodd;stroke:none" transform="translate(-65.708 -35.37)"/><path d="M100.353 95.162c.043 0 1.039-.562 1.859.391.652.777.695 2.988 2.64 4.113 2.903 1.688 5.762 1.43 5.762 1.43-1.258.734-1.472 1.559-2.34 2.379-2.035 1.992-3.808 1.344-3.937 1.172 0 0 .476-.09.992-.563.477-.476.695-.738 1.215-1.086.562-.386 1.039-.43 1.039-.43s-.262-.347-1.082-.09c-.91.263-1.258 1.04-2.555 1.083-1.3.09-1.601-.344-1.601-.344s.258.043.777-.176c.434-.172.738-.605 1.125-.906.566-.39 1.172-.348 1.172-.348s-.305-.39-.953-.347c-1.168.043-1.215.52-2.121.304 0 0 .43-.476.43-.953.046-.52-.301-1.73-2.813-1.816-1.516-.09-2.293-.953-2.469-1.172a1.365 1.365 0 0 0-.734-.387c.3-.52 1.297-.695 2.25-.133.562.305.824.305.824.305-.129-.305-.781-1.039-1.387-1.168-.39-.09-.605-.043-.996.043 0 0 .39-1.039 1.602-1.086 1.215-.086 1.992 1 2.254 1.473 0 0 .043-.387-.262-.95-.129-.304-.52-.609-.691-.738M115.896 115.424c-.91.566-1.993.219-3.766.348-2.078.129-2.598 1.644-2.598 2.426.043 1.515 1.254 2.207 1.211 3.246-.086 1.3-2.078 2.25-3.422 2.12-1.34-.128-2.164-1.382-3.418-1.34-1.43.044-1.472 1.255-1.472 1.255s.476-.215 1.082-.13c.734.087.824.65.867.868 0 0-1.473-.652-2.512.129-.953.777-.219 2.078-.305 2.035 0 0 .305-.605.997-.824.78-.258 1.386-.086 1.386-.086s-.648.262-1.039.734c-.433.52-.39 1.086-.39 1.086.605-.433 1.039-.09 1.644-.047 1.387.133 1.516-1.511 3.293-1.773 1.945-.215 3.375.605 3.375.605s.043-.52-.433-.91c-.434-.386-.954-.386-.954-.386s.477-.305 1.13-.305c1.167 0 1.73.648 2.94.691 1.387.09 2.126-.648 2.126-.648s-.739 0-1.516-.563c-.824-.562-1.734-.261-1.734-.261s.261-1.082 1.82-1.036c1.559 0 3.031.864 3.031.864s-.867-1.04-.476-2.942c.386-1.863 1.73-2.73 1.73-2.73s-1.039-.086-1.992.433c-1.168.52-1.516 1.082-1.516 1.082s-.043-.734.782-1.515c.996-.91 1.558-.996 1.558-.996-.304-.086-1.168 0-2.34.304-1.515.434-2.078.82-2.078.82s-.086-.863 1.387-1.382c1.816-.606 1.602-1.172 1.602-1.172" style="fill:#fdb830;fill-opacity:1;fill-rule:evenodd;stroke:none" transform="translate(-65.708 -35.37)"/><path d="M108.231 107.287s.477-1.515 2.34-1.906c2.207-.433 2.512-.91 2.989-1.558 0 0 .214 1.73-1.82 2.511-1.169.434-1.731.258-2.555.477-.649.172-.954.476-.954.476M111.22 108.283s-.086-.996 2.554-1.863c2.946-.91 2.555-2.426 2.555-2.426.39.477.649 2.512-1.473 3.422-.78.344-1.644.258-2.554.434a2.316 2.316 0 0 0-1.082.433M115.071 109.233s-.215-.649.61-1.254c1.168-.82 2.422-.867 3.074-2.121.43-.868.43-1.473.3-1.864 0 0 .22.09.477.653.172.43.52 2.031-.476 2.898-.692.649-1.907.824-2.813 1.04-.52.128-.91.39-1.172.648M110.962 109.451s.387-.433 1.168-.39c1.254 0 1.73.91 2.422 1.215.39.129.61.086.61.086-.09.128-.306.343-.911.3-1.125-.086-1.777-.996-2.426-1.21-.562-.13-.863 0-.863 0M113.083 112.354s1.297.476 2.77.43c1.125-.044 2.335-.43 3.16-.907 0 0-.953 1.34-3.032 1.516-1.906.129-2.945-1.04-2.898-1.04M115.938 113.865s1.43.305 2.426.262c1.254-.043 1.992-.215 2.598-.476 0 0-.649.953-2.555 1.039-1.777.086-2.469-.825-2.469-.825M120.7 118.155s-1.515 1.601-1.426 3.203c.043 1.168.606 1.73 1.211 2.683.391.606.477 1.082.477 1.082.348-.734-.52-2.078-.824-3.289-.387-1.515.562-3.68.562-3.68" style="fill:#008257;fill-opacity:1;fill-rule:evenodd;stroke:none" transform="translate(-65.708 -35.37)"/><path d="M97.321 42.252c-3.593.305-5.629.696-7.445 1.473-1.906.824-2.902 1.863-2.555 2.687 1.04 2.465 11.688-2.945 14.114 2.77 1.34 3.117-1.344 6.406-6.149 8.441-3.723 1.649-5.933 1.692-8.398 1.778l-1.516-3.508c3.766.215 5.887-.043 8.27-1.04 2.035-.91 2.898-1.905 2.464-2.859-1.125-2.683-11.644 2.989-14.156-2.855-1.21-2.813 1.211-6.063 6.149-8.184 2.425-1.039 4.761-1.601 7.836-1.863l1.386 3.16M127.11 51.78c-3.293 1.253-5.757 1.773-9.18 1.773-9.093 0-13.64-4.414-13.64-9.004 0-4.719 5.066-9.137 13.988-9.18 3.29 0 6.192.52 8.485 1.559l.043 3.941c-2.598-1.082-5.196-1.82-8.098-1.82-4.934 0-8.441 2.25-8.441 5.414.043 3.16 3.507 5.41 8.355 5.41 3.031-.043 5.11-.734 8.445-1.992l.043 3.899M143.13 43.772c2.855.949 4.156 1.86 3.68 3.246-.348 1.082-1.645 1.472-3.68.996v3.418c5.066 1.601 8.098-.344 8.875-2.684.086-.3.129-.648.172-.996v-.433c-.13-2.079-1.817-4.59-5.844-5.887l-3.203-1.04zm-2.512-.824 2.293.734c.09.043.176.043.219.09v-3.38l-6.625-2.163-5.457 16.668 5.152 1.644 2.168-6.71 4.719 1.558c0 .043.043.043.043.043v-3.418c-.262-.09-.563-.133-.867-.262l-2.899-.953 1.254-3.851" style="fill:#fff;fill-opacity:1;fill-rule:evenodd;stroke:none" transform="translate(-65.708 -35.37)"/></svg>