<svg xmlns="http://www.w3.org/2000/svg" xml:space="preserve" width="272.135021872" height="367.464647924" x="0px" y="0px" baseProfile="tiny" version="1.2" viewBox="0 0 299.992 405.08"><path d="M152.572 397.773c-25.183-12.224-48.648-26.999-68.627-46.831-22.729-22.68-40.253-50.563-50.758-80.899-8.885-25.526-12.96-52.575-12.96-79.476V11.243h264.69v179.324c0 26.9-4.074 53.949-12.96 79.476-10.505 30.337-28.029 58.22-50.758 80.899-19.98 19.832-43.445 34.608-68.627 46.831z"/><path fill="#FFF" d="M152.572 393.159c-24.3-11.781-46.488-26.018-65.731-45.162-22.287-22.237-39.468-49.58-49.777-79.328-8.689-25.036-12.714-51.691-12.714-78.102V15.416h256.443v175.151c0 26.41-4.025 53.065-12.713 78.102-10.31 29.748-27.49 57.091-49.777 79.328-19.244 19.145-41.432 33.381-65.731 45.162z"/><path d="M152.572 383.979c-22.14-10.75-42.365-24.446-59.89-41.824-21.403-21.354-37.897-47.666-47.813-76.236-8.395-24.201-12.223-49.825-12.223-75.352V23.712h239.852v166.855c0 25.526-3.83 51.15-12.224 75.352-9.917 28.57-26.41 54.883-47.813 76.236-17.476 17.378-37.751 31.074-59.889 41.824z"/><path fill="#FFF" d="M221.051 326.692c15.414-18.311 27.49-39.469 35.345-62.098 8.246-23.809 11.978-48.943 11.978-74.027V97.886l-64.7 66.712c0-3.289.049-6.774.099-8.59 0-1.473.049-2.258-1.13-3.437-.736-.687-1.521-.933-1.914-1.915-.589-1.571-2.258-2.896-5.007-3.583 0 0-.736.098-1.816-.147v.736c.933.589 1.964 1.031 2.945 1.571.688.393 1.62 1.375 1.915 2.16.588 1.276 1.423 1.718 2.355 2.553.688.638.541 1.326.541 2.16.049 6.234.098 12.469-.05 18.703-.147 9.18-.638 18.359-1.08 27.539-.049 1.424-.099 3.043.688 4.172.442.639 2.259 1.621 2.259 2.111 0 .147-.639.441-1.326.884-2.699 1.718-2.699 4.025-3.092 6.971-.59 9.671-2.209 19.439-3.879 28.963a420.928 420.928 0 0 1-5.448 26.901c-1.325 5.792-2.503 11.781-3.878 17.672-1.178 4.664-2.848 9.621-3.289 10.898l16.543.785c2.504.146 3.584-.344 4.762 2.355l3.829 8.542 2.847.099c2.553.098 3.338-.295 4.369 2.553l4.074 11.094c.588.933 1.079 1.473 2.06.344zM184.333 132.887a507.554 507.554 0 0 0-1.964-4.909c-.589-1.031-1.031-2.111-1.619-2.896-2.21-3.535-7.658-9.573-10.358-12.42-2.405-2.602-2.995-4.271-2.995-6.087 0-2.111 2.014-7.462 2.406-8.345 1.914-3.191 3.289-6.627 2.11-10.358.442-5.94-4.565-16.543-10.063-18.949l39.813-41.088H36.77v162.732c0 2.405.049 4.859.098 7.265L141.87 89.541c-.098 1.915-.098 3.976.245 5.842-.933.589-1.521 1.571-1.521 2.65.049 1.964 1.521 2.308 2.994 2.896.049.54.491 1.473.786 2.16.736 1.669-2.995 2.896-4.075 3.24-4.958 1.178-9.72-.589-14.187 3.338-4.713 4.124-7.756 14.089-8.738 18.065-1.276 4.958-2.406 8.836-3.682 12.665-2.847 8.443-6.873 16.347-9.67 24.839-3.535 11.291-5.744 22.532-5.94 23.956-.491 3.437 2.749 5.253 5.547 4.124-.246 2.749-.393 5.204 1.571 7.413.491.54.883.884.834 1.62-.098.982-.638 4.614-1.227 9.18-1.571 11.34-4.124 24.054-3.289 35.394.196 4.909 4.172 9.131 6.333 10.652.736.589 2.405 1.816 3.19 2.553L67.99 304.603a201.136 201.136 0 0 0 12.469 17.672l31.172-20.667c-.982.294-6.038-1.473-3.583-3.632 1.473-1.375 2.7-1.719 2.7-2.406s-1.718-1.619-1.718-3.73c0-2.013 1.521-3.928 1.718-6.137.294-2.307.982-8.1 1.178-9.131.344-1.521.589-3.927.344-5.399-.196-.736 0-1.719.196-2.749.294-1.276.786-2.504.982-3.387 1.129-6.922-2.945-7.069-6.627-11.193-2.552-2.896-3.142-4.811-3.24-7.707-.491-12.713 2.307-26.017 3.878-38.584.197-1.473.344-2.945.491-4.319.098-.589.196-.982.196-1.08 0-1.718-1.62-2.651-2.356-4.369-.638-1.521-.049-4.467.049-6.185 0-.688-.834-.933-1.522-.688-2.405 1.424-4.664.736-4.074-2.455 1.423-7.56 3.387-15.315 5.792-22.581 2.356-8.198 6.676-15.708 9.425-23.808 1.473-4.517 2.602-9.229 3.829-13.794 1.718-5.989 3.633-12.567 8.149-17.083 4.124-3.534 9.327-1.816 13.451-2.945 1.62-.442 5.744-2.111 5.744-4.418 0-1.375-.688-1.915-.835-2.7-.196-.687-.393-1.62-.393-1.62-.834-.393-3.534-.884-2.503-2.062.442-.491 1.178-1.031 1.325-1.129-.245-2.896-.54-5.449-.098-8.345-1.129-1.129-.344-6.087 1.178-6.725 0 0 2.111-4.025 5.646-7.069 3.485-3.19 7.608-3.583 8.886-3.583 5.203 0 10.75 12.96 10.063 17.476 1.326 3.485-.49 6.283-2.013 9.327-1.129 2.602-2.847 7.069-2.553 9.965.295 2.945 2.16 5.105 4.075 7.216 3.338 3.632 6.725 7.314 9.523 11.389 0 0 .098.098.098.196 1.227 1.915 2.749 5.302 3.829 7.756a49.857 49.857 0 0 1 1.228 3.191c.145-1.377.194-2.8.244-4.224zM177.018 184.578c.099-.442-.099-1.129-.688-1.031-.785.196-.687.687-.393 1.031.196.294.589.393.786.393.196-.098.295-.197.295-.393zM173.091 184.578c-.099-.344-.491-.736-.885-.638-.588.196-.687.393-.49.638.196.393.982.786 1.276.589.197 0 .197-.294.099-.589zM168.869 184.578c.246-.442.344-1.129.197-1.521-.491-.736-2.111.589-1.571 1.521l.099.098c.489.59.981.295 1.275-.098z"/><path fill="#FFF" d="M165.482 184.578c-.098-.344-.196-.638-.49-.933-.736-.785-2.014.098-2.308.933-.147.393-.05.786.196 1.08 1.277 1.031 2.602.098 2.602-1.08zM160.425 184.578c.148-.54.148-1.129-.098-1.521-.688-.736-2.307.393-2.799 1.521-.294.491-.294.982.099 1.375.933.834 2.308-.197 2.798-1.375zM155.91 184.578c0-.933-1.08-1.521-2.209-.736a2.709 2.709 0 0 0-.884.736c-.786 1.276.393 2.307 1.718 1.767.982-.589 1.375-1.178 1.375-1.767zM150.166 184.578c0-.736-.834-1.227-2.356-.245-.098.098-.196.147-.294.245-1.816 1.375-.491 2.7.933 1.964 1.177-.589 1.717-1.375 1.717-1.964zM144.226 184.578c-.196-.344-.638-.442-1.62 0-.098.098-.197.098-.393.196-2.209 1.473-.834 2.602.786 1.816 1.031-.441 1.522-1.521 1.227-2.012zM138.385 184.578c-.098-.147-.491-.245-.884-.098-.098 0-.147 0-.246.098-.981.589-.393 1.669.54 1.375.786-.099.982-.982.59-1.375zM135.046 184.578c0-.54-.491-.933-1.178-.638-.393.098-.589.393-.687.638-.147.589.491 1.276 1.276 1.08.491-.098.688-.589.589-1.08zM163.912 191.107c-.295 1.08-1.621 2.062-2.75 1.08-.638-.589 0-1.718.982-2.307 1.031-.54 2.111-.098 1.768 1.227zM153.357 190.911c-.441 1.473-2.209 3.24-3.338 2.209-.785-.638.442-2.356 1.718-3.24 1.129-.786 2.013-.295 1.62 1.031zM145.208 189.88c-.786.638-2.602.393-2.455-.688.147-1.227 2.405-2.896 3.093-2.013.589.786.196 2.013-.638 2.701zM132.936 190.764c.54-.688 1.522.834.736 1.031-.736.196-1.325-.491-.736-1.031zM156.842 190.813c2.7-1.62 2.7.982.884 1.865-1.62.736-3.093-.393-.884-1.865zM145.846 191.009c1.963-1.227 3.583 1.178.884 2.504-1.522.785-3.044-1.032-.884-2.504zM136.47 190.076c1.227-.491 2.307 1.816.687 2.307-1.571.393-2.012-1.718-.687-2.307zM139.71 192.776c-1.129-1.08 1.276-3.387 2.209-2.209.982 1.129-.638 3.535-2.209 2.209zM166.366 192.089c-.786-.884 1.228-2.209 2.013-1.718 1.913 1.325-1.081 2.847-2.013 1.718zM170.685 190.813c0-.834.541-1.129.934-.736s.195.834 1.275.834c1.031 0 .835 1.375.197 1.571-.59.295-1.277.295-1.915-.196-.589-.59-.589-.59-.491-1.473zM175.644 191.5c.785-.196.883 1.08.393 1.276-.492.147-1.719-.982-.393-1.276zM108.931 188.702c.589-.638 1.424.884.688 1.08-.688.196-1.375-.393-.688-1.08zM131.561 187.867c.589-.688 1.473.834.786 1.031-.786.196-1.326-.343-.786-1.031zM134.948 187.18c1.326-.589 1.915 1.718.834 2.013-1.128.196-2.11-1.424-.834-2.013zM149.724 187.082c2.65-1.718 2.553 1.178-.098 2.503-1.571.786-2.111-1.129.098-2.503zM138.974 187.376c1.227-.589 2.209 1.816.638 2.209-1.522.491-2.013-1.62-.638-2.209zM128.419 187.376c0-.294.294-.491.54-.491.393 0 .589.197.589.491 0 .196-.098.981-.393.981-.343.001-.736-.784-.736-.981zM159.444 189.094c-1.228-1.031 1.62-3.632 2.603-2.503.931 1.178-1.179 3.878-2.603 2.503zM164.746 189.192c-1.178-1.031 1.424-3.73 2.356-2.602.981 1.179-.835 3.977-2.356 2.602zM154.437 189.389c-1.129-1.031 1.375-3.24 2.307-2.209 1.375 1.522-.737 3.584-2.307 2.209zM168.575 187.769c-.099-1.08.491-1.08.933-.687.49.294.982-1.031 1.669-.639.638.442.05 2.356-.981 2.651-1.081.295-1.425-.294-1.621-1.325zM173.091 187.573c-.099-1.031.441-1.031.932-.786.492.393 1.179.196 1.816.589.688.491-.393 1.62-1.129 1.521-1.177-.195-1.423-.342-1.619-1.324zM184.381 177.019c0 .785.196 1.521.589 2.209.785 1.129 2.111 2.013 3.535 2.209 2.16.393 4.123-1.816 4.123-3.829 0-3.682-7.755-5.744-8.247-.589zM103.58 179.228c-.098.491-.098.785-.196 1.031-.393 2.405.933.393 1.816.196.834-.098 1.62 1.571 2.209.393.098-.393-.393-1.031-.688-1.62-.196-.294-.294-.589-.196-.786.196-.442 1.178.098 1.276-.442.049-.589-.884-1.571-.687-2.405.294-.981 1.718.933 1.915.294.196-.981-1.375-2.258-1.08-3.19.294-.884 1.276.883 1.375 0 .196-.933-.884-1.62-.688-2.602.294-.834 1.522 1.375 1.718.491.294-.835-1.031-2.062-1.031-3.142.294-1.08 2.209 1.326 2.307.54 0-.638-1.375-3.043-1.178-3.534.196-.589 1.276.981 1.375.294.098-.786-1.08-1.816-.687-2.602.294-.688 1.62.589 1.816.196.344-.344-1.129-1.866-.883-2.405.098-.491.687-.393.785-.835.098-.491-.196-1.178-.196-1.571.147-.589 1.08-.687.884-1.521-.049-.294-.196-.688 0-1.031.098-.245.393-.491.589-.687.442-.491 0-1.228.147-1.816.098-.491.589-2.013.883-2.7.197-.786-.098-2.111-.491-1.326-2.013 3.338-3.731 7.069-5.154 10.702-2.209 6.676-4.271 13.303-5.94 20.078zM134.458 178.638c-1.178-2.209 4.369-2.16 2.111-.196-.737.736-1.424 1.473-2.111.196zM138.974 177.019c.393-.098.736.098.736 1.325v.884c.098.981.098 1.62-.442 1.816-.393.049-.589-.147-.687-.442-.246-.687-.393-3.583.393-3.583zM140.496 175.987c.491-.098.589 1.522.589 2.258 0 .196.098.589.098.982.098.785.196 1.423-.196 1.521-.246.099-.393-.245-.491-.687-.148-.785-.54-3.975 0-4.074zM142.115 179.228c-.245-.736-.049-1.62-.196-2.405-.098-1.129-.196-1.62.294-1.718.491-.196.589 1.129.589 2.209 0 .589.196 1.325.294 1.915.001 1.127-.784.882-.981-.001zM149.822 179.228c-.098-.196.098-.393.736-.688 1.08-.441 1.375.295.688.688-.098.098-.294.098-.393.196-.589.098-.933 0-1.031-.196zM154.24 179.228c-.244-.393-.146-1.08.59-1.326.982-.393 1.473.638 1.08 1.326-.098.294-.295.393-.59.491-.49.097-.883-.099-1.08-.491zM158.462 179.228c-.049 0-.099-.098-.147-.196-1.276-1.031 1.03-3.142 2.013-2.013.54.687.246 1.718-.393 2.209-.393.294-.884.392-1.473 0zM165.482 179.228a.627.627 0 0 1 .589 0h.099c.589.393 1.325 1.521 1.031 2.209-.246.785-.639 1.031-1.424.785-.785-.196-1.031-.785-.934-1.571 0-.54.246-1.129.639-1.423zM144.128 173.189c.393.049.393.884.393 1.227 0 .786.099 1.473.295 1.915.098.491.687-.196.687-.834 0-.883-.294-1.816-.294-2.7 0-.688.294-1.228 1.325-2.013 2.258-1.375 4.811-3.338 7.167-4.32.736-.393 1.619-.098 1.619 1.129 0 .442-.098 2.602.492 2.307.932-.344-.197-3.927.736-3.927.441.049.687.884.736 1.62.098 1.031.638 2.258-.442 2.896-.736.393-3.633 2.111-5.792 3.436-.982.589-1.719 1.08-2.209 1.473-1.62 1.228-3.24 2.749-3.927 3.338-.786.589-1.08.393-1.178-.736-.098-.687-.344-2.209-.393-3.289 0-.491 0-1.62.785-1.522zM170.292 173.926c.785-.785 1.571.688.934.884-.442.196-1.522-.492-.934-.884zM135.243 181.731c0-.294.246-.491.54-.491.393 0 .589.196.589.491s-.196.491-.589.491c-.295 0-.54-.197-.54-.491zM109.913 179.62c.54-.687 1.62 1.424.933 1.62-.786.197-1.522-.982-.933-1.62zM147.123 181.338c2.7-1.62 2.602.982.785 1.816-1.669.786-3.093-.392-.785-1.816zM152.031 180.258c1.473-.933 2.603 1.767.885 2.503-1.67.688-3.094-1.03-.885-2.503zM156.646 180.455c1.276-.54 1.914 1.767.785 1.915-1.08.294-2.111-1.326-.785-1.915zM160.671 180.848c-.344-1.424.785-.933 1.669-.589.933.491 1.228 1.276.344 1.767-.737.441-1.62.343-2.013-1.178zM174.613 180.111c.688-.197 1.031 1.62.589 1.816-.492.197-2.013-1.472-.589-1.816zM110.747 171.913c.589-.638 1.718 1.571.982 1.767-.786.197-1.669-1.079-.982-1.767zM136.765 168.575c0-.491.785-.638 1.227-.246.246.196.295.54.295 1.031-.049.688-.049 1.276.098 1.62.294.589.883.687.785.098-.098-.491-.344-1.62-.246-2.356.197-1.276 2.602-1.521 3.584-1.571 1.423-.098 5.645-.491 6.431-.785.687-.196 1.521.491-.197 1.325-1.963 1.473-4.32 2.455-6.234 4.074-.786.639-1.62.639-3.338.835-1.767.196-2.307-.393-2.503-1.522-.099-1.079.098-1.816.098-2.503zM157.922 166.955c-.295-.982-.099-1.915.393-1.915.442 0 1.03 1.522 1.03 2.503.099.491.541 1.424-.195 1.62-.639.197-1.08-1.864-1.228-2.208zM159.248 172.306c0-.196.196-.491.59-.491.294 0 .588.294.588.491 0 .295-.294.491-.588.491-.394 0-.59-.196-.59-.491zM134.752 169.9c-.098-.638.933-1.129.933-.245 0 .834.196 1.816.196 2.552-.098.688-.589.688-.834-.393-.197-1.03-.197-1.226-.295-1.914z"/><path fill="#FFF" d="M164.893 165.777a163.273 163.273 0 0 0-6.333-3.927c-3.484-2.013-7.068-4.074-9.621-6.627-3.338-3.142-7.953-7.461-10.554-11.192-.736-1.08-1.228-2.062-.589-3.387.688-1.276 1.571-1.325 2.798-.54.393.246.785.834 1.227-.196.491-1.08.393-1.865-.098-2.405-1.031-1.473.884-2.749 1.865-3.583 2.553-2.553 3.682-2.651 5.842 0 4.124 5.252 8.149 10.652 12.714 15.512 3.828 4.074 8.051 7.658 12.027 11.536 1.227 1.178 2.307 2.209 3.779 3.191.295.196.196.785-.098 1.178-.344.344-1.228 1.62-.736 2.013.441.442 1.324-.883 1.816-1.375.393-.491 1.227-1.423 2.307-2.111.933-.638 1.865-1.915 2.848-2.405.785-.246 3.289-2.013 4.319-2.111 1.179-.098 2.798 1.276 3.583 2.013.541.294 2.259 2.356 2.014 2.798-.295.687-1.473-.393-2.014-1.129-.687-.785-2.307 0-1.08 1.129 1.179 1.08 2.406 1.816 2.896 2.307.491.491.197 1.129-.589.687-.785-.491-1.325-.884-2.013-1.375-.589-.344-1.718.491-.883 1.276.785.54 1.473 1.031 2.012 1.522.197.196.295.294.393.491.59.589.393 1.129-.441.638-.883-.442-1.473-.638-2.111-.933-.687-.196-1.57.589-.687 1.227.835.688 2.7 1.375 3.239 2.111.491.688.099 2.111-.638 1.473-.785-.687-3.289-1.276-4.517-1.276-4.221 0-5.399 1.473-8.443 1.473-1.374 0-2.699-.491-4.516-1.669-3.141-2.161-6.38-4.37-9.718-6.334zM150.952 237.3c-1.129-.441.099-3.141 1.865-1.816.686.491.686 2.995-1.865 1.816zM126.701 235.582c-1.08-.441.736-3.927 2.455-2.553.785.443.098 3.829-2.455 2.553zM141.379 235.582c1.326-.441.834 1.816.54 1.816-1.129 0-1.915-1.227-.54-1.816zM173.63 236.563c-.098-1.619 2.504-1.816 2.209.295-.195 1.032-2.11 1.719-2.209-.295zM168.771 237.398c-1.178-1.03.441-3.927 2.405-2.11 1.129 1.08-.884 3.484-2.405 2.11zM137.059 237.251c0-.295.294-.49.54-.49.294 0 .589.195.589.49 0 .246-.294.441-.589.441-.245 0-.54-.195-.54-.441zM147.319 236.466c0-.295.196-.491.589-.491.246 0 .54.196.54.491s-.294.49-.54.49c-.393 0-.589-.195-.589-.49zM125.621 231.164c-.785-.933.884-2.356 1.424-1.62.491.785-.54 2.7-1.424 1.62zM158.659 230.82c-1.031-.491.393-3.682 2.308-2.602 2.208 1.031.293 3.83-2.308 2.602zM137.992 228.12c1.375-.49.982 1.816.589 1.816-1.178.001-1.816-1.226-.589-1.816zM175.447 228.415c1.375-.589 1.67 1.521.59 1.719-1.129.294-1.817-1.179-.59-1.719zM148.448 227.531c1.375-.589 1.62 1.62.589 1.816-1.129.296-1.816-1.227-.589-1.816zM129.254 230.134c-.098-1.621 2.503-1.816 2.209.294-.196 1.03-2.013 1.718-2.209-.294zM133.476 230.968c-1.227-1.031-.442-3.338 1.816-1.816.884.589-.344 3.191-1.816 1.816zM163.763 230.134c-1.129-1.08.786-3.731 2.701-1.915 1.129 1.03-1.178 3.239-2.701 1.915zM169.066 229.741c-1.179-1.031.441-3.438 2.355-1.621 1.179 1.031-.834 3.044-2.355 1.621zM152.277 228.955c0-.245.196-.442.54-.442.294 0 .589.197.589.442 0 .294-.295.491-.589.491-.344 0-.54-.197-.54-.491zM126.849 222.377c0-.294.294-.491.589-.491.393 0 .589.197.589.491 0 .245-.393 1.424-.786 1.424-.294 0-.392-1.179-.392-1.424zM140.103 224.586c1.375-.589.884 1.816.589 1.816-1.178 0-1.915-1.276-.589-1.816zM145.11 224.487c1.227-.588 1.62 1.522.491 1.719-1.08.295-1.866-1.178-.491-1.719zM166.758 225.716c-.099-1.621 2.454-1.816 2.209.294-.196 1.03-2.012 1.718-2.209-.294zM175.005 222.721c.54-.638 2.111 1.08 1.325 1.276-.686.196-1.914-.687-1.325-1.276zM172.404 226.402c0-.294.295-.491.589-.491s.54.197.54.491-.246.442-.54.442-.589-.148-.589-.442zM176.822 226.01c0-.294.295-.491.589-.491.344 0 .54.197.54.491s-.196.491-.54.491c-.294 0-.589-.197-.589-.491zM150.362 225.617c0-.295.294-.491.589-.491.294 0 .589.196.589.491 0 .196-.295.491-.589.491s-.589-.295-.589-.491zM142.115 222.819c0-.295.294-.442.589-.442.294 0 .589.147.589.442 0 .294-.294.49-.589.49-.294.001-.589-.196-.589-.49zM140.201 220.069c-1.129-.49.197-3.19 1.915-1.816.687.442.687 2.946-1.915 1.816zM136.568 217.86c1.325-.588.933 1.816.589 1.816-1.178-.097-1.865-1.275-.589-1.816zM128.812 217.86c1.228-.588.834 1.816.442 1.816-1.031-.097-1.816-1.275-.442-1.816zM144.717 217.86c1.325-.588 1.62 1.522.589 1.816-1.178.198-1.914-1.275-.589-1.816zM172.404 220.069c-.099-1.668 5.007-1.767 2.699.736-.785.787-2.503 1.278-2.699-.736zM131.659 218.303c-.196-1.522 2.405-1.816 2.111.294-.098 1.178-2.013 1.767-2.111-.294zM167.691 220.069c-1.227-1.08 1.08-2.797 2.405-1.767 1.13 1.081-.981 3.094-2.405 1.767zM162.242 220.168c-1.178-1.08.442-3.485 2.406-1.669 1.129 1.08-.885 2.994-2.406 1.669zM157.235 219.677c-1.129-1.08.491-3.534 2.405-1.718 1.129 1.03-.883 3.044-2.405 1.718zM177.558 219.677c0-.294.295-.49.589-.49.393 0 .589.196.589.49 0 .295-.196.491-.589.491-.294 0-.589-.196-.589-.491zM152.718 217.959c0-.294.197-.491.59-.491.295 0 .589.197.589.491 0 .196-.294.442-.589.442-.392 0-.59-.246-.59-.442zM149.332 219.187c-1.276-.099-1.178-2.308-.294-2.111.882.098 1.619 2.111.294 2.111zM126.603 214.866c0-.196.246-.49.54-.49s.589.294.589.49c0 .295-.294.491-.589.491s-.54-.196-.54-.491zM141.477 212.755c0-.294.246-.49.54-.49s.589.196.589.49c0 .295-.295.492-.589.492s-.54-.197-.54-.492zM139.514 212.362c0-.294.196-.441.589-.441.295 0 .589.147.589.441 0 .197-.294.491-.589.491-.393.001-.589-.293-.589-.491zM130.825 216.143c-.982-.099-.883-1.865-.098-1.669.638.097 1.227 1.669.098 1.669zM147.319 216.044c-.982-.098-.884-1.865-.196-1.668.785.098 1.325 1.668.196 1.668zM129.45 213.442c-1.129-.098-1.031-2.307-.196-2.11.884.099 1.669 2.209.196 2.11zM156.744 216.388c-1.227 0-1.129-2.307-.294-2.11.883.196 1.669 2.208.294 2.11zM173.925 214.032c-1.227-.099-1.129-2.308-.196-2.209.884.147 1.669 2.209.196 2.209zM132.052 213.345c-.786-.982.981-2.405 1.423-1.62.491.736-.441 2.651-1.423 1.62zM150.657 215.554c-.736-.982.884-2.405 1.473-1.62.442.736-.492 2.651-1.473 1.62zM171.421 209.123c-.195-1.62 3.584-1.816 2.111.294-.539.934-2.012 1.719-2.111-.294zM155.026 208.142c0-.295.294-.491.589-.491s.59.196.59.491c0 .294-.295.49-.59.49s-.589-.196-.589-.49zM146.828 209.123c-.786-.884.981-2.405 1.423-1.62.491.736-.441 2.65-1.423 1.62zM138.483 207.944c1.325-.441 3.829 1.571.393 2.308-1.522.393-1.719-1.718-.393-2.308zM134.163 208.043c1.325-.54 3.534 1.767.393 2.308-1.522.294-1.62-1.719-.393-2.308zM143.932 207.601c1.375-.588 1.767 2.455.196 2.945-1.522.393-1.423-2.503-.196-2.945zM130.04 207.749c1.325-.541 2.307 1.865.687 2.307-1.571.392-2.013-1.719-.687-2.307zM154.535 205.392c-1.521.344-1.325-1.227-.539-1.227 2.355 0 1.619 1.031.539 1.227zM149.822 205.638c-.981 0-.883-1.669-.196-1.57.638.097 1.326 1.667.196 1.57zM173.779 203.772c.195-.393.539-.441.834-.197.393.394.098.885 1.129.885 1.178 0 .884 1.178.295 1.473-.59.195-1.228.294-1.915-.295-.589-.492-.687-1.178-.343-1.866zM159.837 203.87c1.324-.539 2.012 1.865.49 2.258-1.57.491-1.767-1.668-.49-2.258zM136.372 204.263c1.325-.589 2.405 2.258.785 2.651-1.472.491-2.111-2.11-.785-2.651zM140.299 203.772c1.276-.441 2.798 2.355 1.178 2.847-1.571.394-2.503-2.258-1.178-2.847zM145.699 204.165c1.326-.491 2.356 1.325.736 1.768-1.521.392-2.013-1.228-.736-1.768zM132.052 204.361c1.325-.589 2.307 1.767.687 2.258-1.571.394-1.914-1.718-.687-2.258zM163.862 206.227c-1.423-1.423 1.031-3.093 2.11-2.062 1.915 1.768-.686 3.485-2.11 2.062zM169.507 206.227c-1.227-1.03 1.276-3.289 2.209-2.258.983 1.227-.736 3.681-2.209 2.258zM128.223 204.901c0-.295.294-.441.589-.441.344 0 .54.146.54.441 0 .196-.098.933-.442.933-.294 0-.687-.736-.687-.933zM147.221 200.63c1.227-.589 2.013 1.816.393 2.307-1.572.394-1.768-1.717-.393-2.307zM138.09 201.023c1.276-.491 2.602 1.521.982 2.012-1.571.394-2.307-1.472-.982-2.012zM134.064 200.925c1.228-.589 2.209 1.816.688 2.209-1.571.441-2.013-1.767-.688-2.209zM177.018 200.63c.638-.196.736.933.294 1.129-.588.197-1.668-.736-.294-1.129zM171.716 201.023c-.098-.688.884-.786 1.473-.786.441 0 1.326.491.933 1.522-.393 1.08-1.423.589-2.11.294-.591-.293-.099-.293-.296-1.03zM142.115 201.858c0-.295.294-.491.589-.491.785 0 .834 1.669.589 1.669-.294 0-1.178-.982-1.178-1.178zM130.53 201.465c0-.245.294-.441.54-.441.393 0 .589.196.589.441 0 .295-.098 1.08-.491 1.08-.245 0-.638-.785-.638-1.08zM131.855 197.636c.589-.638 1.424.786.688 1.08-.786.196-1.375-.491-.688-1.08zM174.71 196.605c.688-.196 2.504 1.915 1.228 2.602-.491.147-2.602-2.209-1.228-2.602zM169.605 198.029c0-.491 1.179-.933 1.719-.884.589 0 2.111.098 1.57.884-.688.687-1.08 1.227-2.012 1.178-.884-.196-1.277-.589-1.277-1.178zM164.549 199.256v-.147c-.099-1.08-.099-1.276.54-1.866.688-.54 2.307-1.521 2.798-.098.294.884.394 1.669.099 2.111-.197.196-.491.393-.982.491-1.227.295-2.356.393-2.455-.491zM158.56 199.256c0-.344.295-.933 1.375-1.521 1.227-.835 1.424-.736 1.914-.295.393.491.934 1.178.098 1.816-.98.688-2.699.786-3.189.294-.099-.098-.198-.196-.198-.294zM153.652 198.618c.539-.933 2.062-1.62 2.553-.785.146.393 0 .981-.393 1.423-.442.54-1.08.982-1.719.688-.54-.246-.736-.835-.441-1.326zM148.448 199.256c.196-1.129 2.11-2.553 2.798-1.718.393.491.393 1.08.099 1.718-.491.982-1.62 1.768-2.602.884-.295-.295-.295-.59-.295-.884zM143.49 199.256c-.098-.344-.098-.834-.098-1.031 0-.294.196-.491.54-.491.294 0 .491.196.491.491 0 .196-.098.687-.393 1.031-.098.196-.196.393-.344.393-.098-.001-.196-.197-.196-.393zM140.004 199.256c-.54-.638-1.031-1.325-.294-1.521.589-.196 1.915.785 2.111 1.521.098.294-.098.589-.442.786-.295.098-.883-.295-1.375-.786zM135.292 199.256c-.54-.442-.442-1.816.491-2.16 1.718-.834 1.865 2.946-.491 2.16zM184.185 203.232c0-.933-.246-4.713.589-4.713.981 0 .786 3.829.786 4.713-.099 1.03-.295 1.964-.688 2.062-.491 0-.687-1.031-.687-2.062zM182.271 202.152c-.099-1.228-.099-2.504.294-2.602.245 0 .688.884.835 1.62.196.982-.099 2.651-.344 3.535-.344.785-.785-2.16-.785-2.553zM167.298 200.827c.785-.393 1.669-1.276 2.405-.098.589.786.736 1.473.294 2.013-.539.59-2.012.982-2.602.736-1.177-.393-1.472-2.062-.097-2.651zM161.26 201.956c.54-1.031 2.259-2.062 2.896-1.326.687.736 0 2.111-.981 2.602-.835.492-2.552 0-1.915-1.276zM155.615 203.232c-.49-1.178 1.521-2.995 2.406-2.013.834 1.227-.639 3.633-2.111 2.355-.098-.096-.197-.145-.295-.342zM150.952 203.232c-.491-.491-.295-1.768.687-2.111 1.08-.491 1.768 1.424.736 2.111-.098.099-.245.196-.344.196-.49.147-.883.001-1.079-.196zM179.423 207.208c-.196-1.473-.098-2.209-.098-2.209-.099-1.325 1.324-1.668 1.521-.294 0 .933 0 1.914.098 2.503.099.393.295.541.688.541.834 0 3.73-.835 3.535.785-.197 1.718-2.406 1.914-3.191 1.816-.834-.099-2.356-1.228-2.553-2.848v-.294zM168.673 207.503c1.03 1.129-1.915 4.123-3.682 2.307-.688-.736.441-1.815 1.619-2.355.492-.197 1.72-.64 2.063.048zM151.541 207.208c.393-.294.834-.393 1.031-.098 0 0 0 .098.049.098.393.736-.491 2.602-1.473 1.522-.393-.491-.098-1.129.393-1.522zM178.638 211.233a8.632 8.632 0 0 1-.59-.981c-.834-1.718-.932-2.651-.834-3.044.098-.195.196-.294.344-.294.098 0 .196.099.295.294.195.541.195 1.719.687 2.602.394.639 1.08 1.031 1.424 1.424.393.197.589.393.589.688-.001.44-.884.735-1.915-.689zM168.083 211.233c.098-.294.295-.589.491-.688.638-.294 1.521 0 2.11.688.835.835 1.031 2.308-.883 2.945-1.226.492-2.11-1.816-1.718-2.945zM162.88 211.233c.098-.195.295-.393.49-.49.491-.099.982.098 1.375.49.736.688 1.129 2.111-.589 2.602-1.373.344-1.914-1.668-1.276-2.602zM158.021 210.351c.539-.295 1.423.195 1.816.883.588.736.588 1.816-.982 2.406-1.522.49-2.16-2.848-.834-3.289zM153.503 211.038c.197 0 .59.244.59.49 0 .295-.295.441-.59.441-.393 0-.588-.146-.588-.441.001-.343.246-.49.588-.49zM149.135 210.939c.344 0 .589.294.589.589 0 .196-.294.441-.589.441s-.589-.245-.589-.441c0-.295.246-.589.589-.589zM145.601 211.233c2.504-1.521 0 3.731-1.276 2.308-.59-.687.392-1.816 1.276-2.308zM175.839 216.486c-.294-.638-.098-1.62.59-1.521.589.098 1.08.981.981 1.521 0 .393-.196.688-.785.589-.393 0-.687-.295-.786-.589zM170.685 216.486c0-.54.197-1.228.736-1.129.393.099.785.687.884 1.129.196.491 0 1.08-.687 1.08-.54-.098-.834-.588-.933-1.08zM164.992 216.486c-.099-.196-.099-.442-.099-.933.099-.884 1.276-1.816 1.669-1.473.393.393.933.688 1.521.981.688.295.491.981.098 1.424-.294.294-.588.589-.785.688-.638.196-1.325.294-1.914-.295-.295-.098-.393-.293-.49-.392zM160.23 216.486c-.59-.638-.59-2.013.294-2.308 1.03-.441 2.651 1.375 1.718 2.308-.195.196-.49.294-.785.393-.491.196-.933 0-1.227-.393zM141.772 215.995c-.049-.883 1.178-1.767 1.62-1.129.294.393.098 1.178-.294 1.62-.492.688-1.277.148-1.326-.491zM137.992 216.486c-.196-.638 0-1.62.688-1.424.491 0 .933.884.933 1.424 0 .393-.147.688-.736.688-.394 0-.689-.295-.885-.688zM134.556 216.486c-.688-.294-.589-1.718.098-1.521.589.098 1.031 1.228.491 1.521-.098.099-.196.099-.294.099-.197 0-.295-.099-.295-.099zM169.605 221.788c.491-.393 1.277-.589 2.111 0l.295.295c1.178 1.03-.934 3.043-2.406 1.718-.539-.589-.49-1.424 0-2.013zM164.353 221.788c.393-.688 1.424-.982 2.504 0v.098c1.129 1.031-.885 2.945-2.406 1.621-.491-.492-.491-1.13-.098-1.719zM158.953 221.788c.393-.688 1.277-1.178 2.504 0l.295.295c1.031 1.03-.982 2.945-2.406 1.619-.589-.49-.687-1.226-.393-1.914zM155.713 221.788c.099-.098.294-.295.589-.393.54-.295.933 0 1.129.393.196.589 0 1.227-.688 1.424-.833.196-1.423-.736-1.03-1.424zM151.933 221.199a1.022 1.022 0 0 1 1.57-.05c.492.491.295 1.522-.195 1.964-.393.295-.884.394-1.228.05-.491-.392-.637-1.473-.147-1.964zM146.779 221.297c.442-.933 1.865-1.03 2.111.147.147.59-.246 1.62-.933 1.719-.736.049-1.62-.835-1.178-1.866zM137.157 221.788c.246-.884 1.424-1.521 2.651-.295l.294.295c.491 1.129-1.325 2.602-2.7 1.325-.343-.392-.441-.835-.245-1.325zM133.476 221.788c.294-1.276 1.915-2.111 2.209 0v.688c0 1.129-2.013 1.718-2.209-.295v-.393zM129.745 221.788c.295-1.08 1.816-1.178 2.111 0v.736c-.196 1.08-2.013 1.768-2.209-.246-.001-.195-.001-.294.098-.49zM162.046 227.139c-.295-.196-.59-.442-.59-1.129-.098-1.62 2.504-1.816 2.209.294-.098.393-.393.736-.785.835-.246.196-.54.196-.834 0zM156.597 225.765c.441-.934 1.619-1.719 2.258-1.031.589.688.295 1.865-.393 2.405-.197.294-.59.442-.934.393-.833-.148-1.275-.982-.931-1.767zM134.801 226.501c-.099-1.08 1.276-2.356 2.798-.982.933.934-.147 2.16-1.325 2.111-.638 0-1.424-.442-1.473-1.129zM131.463 226.942c-1.129-1.031-.393-3.338 1.816-1.816.589.393.294 1.57-.344 2.013-.392.392-1.128.147-1.472-.197zM128.419 225.421c.933-.393 1.031.785.786 1.424-.197.49-.491.539-.982.245-.589-.344-.834-1.228.196-1.669zM175.938 232.538c.099-.294.294-.49.688-.687.687-.295 1.03.099 1.129.687.099.491-.099 1.031-.638 1.129-.786.197-1.375-.588-1.179-1.129zM171.814 232.538c.099-.195.197-.294.491-.393.786-.393 2.013-.195 2.21.393.098.295-.295.736-1.719 1.326-.883.393-1.57-.687-.982-1.326zM166.267 232.538c0-1.178 1.326-2.307 2.848-.883.196.295.295.589.295.883-.099.934-1.522 1.816-2.651.835-.295-.294-.393-.54-.492-.835zM161.26 232.538c.589-.785 1.62-1.178 2.7-.195.098.098.098.098.098.195.835 1.031-1.374 3.143-2.798 1.816-.589-.49-.491-1.275 0-1.816zM156.45 232.538c.294-1.178 1.767-1.718 2.013 0 .098.197.098.491.098.835 0 1.08-2.012 1.768-2.209-.294-.001-.148-.001-.344.098-.541zM149.626 232.538c0-.393.196-.687.638-.981.786-.294 1.276.295 1.179.981 0 .393-.197.736-.688.835-.687.196-1.129-.344-1.129-.835zM144.914 232.538c0-.393.196-.785.785-.981.736-.393 1.228.295 1.129.981 0 .393-.196.736-.688.835a1.073 1.073 0 0 1-1.226-.835zM140.004 232.538c.294-.687 1.178-1.275 1.571-.687.049.196.049.393.049.687-.049.736-.834 1.719-1.522.934-.294-.295-.294-.639-.098-.934zM135.39 232.538c.491-.393.982-.588 1.276-.195v.195c.294.736-.589 2.406-1.424 1.424-.392-.49-.196-1.031.148-1.424zM131.168 232.538c.294-.195.785-.294 1.375 0l.589.295c.933.639-.294 3.24-1.865 1.816-.639-.588-.639-1.718-.099-2.111zM161.751 207.208c-1.08.442-2.209 1.816-1.424 2.602 1.178 1.031 2.848-.441 3.043-1.619.247-1.129-.833-1.327-1.619-.983zM106.525 183.155c-.54-.982-1.767-1.276-1.718.196.049.589.098 1.227.098 1.816.049 1.178-.638 1.276-1.08 1.669-.933.883-.442 2.847.982 2.749 1.423.196 2.012-1.424 2.209-3.24.148-.981.049-2.356-.491-3.19zM110.354 184.578c-.147-.294-.491-.491-.786-.442-.589.098-.589 1.473.589 1.129.296-.098.296-.392.197-.687zM135.145 195.23c.147-.638-.294-1.521-1.178-1.129-.589.294-.785.786-.687 1.129.196.393.687.786 1.276.688.294-.098.49-.393.589-.688zM139.612 195.23c.098-.834-.736-1.915-1.718-1.521-.54.294-.736.981-.54 1.521.147.589.736 1.178 1.522.884.588-.098.736-.49.736-.884zM144.226 195.23c.098-.441.098-.933-.196-1.325-.638-.786-2.307.294-2.651 1.325-.196.393-.098.786.196 1.178 1.031.835 2.258-.097 2.651-1.178zM148.448 195.23s0-.098-.098-.098c-.393-.442-1.031-.245-1.62.098-.884.589-1.522 1.768-.884 2.308 1.473 1.374 3.486-1.031 2.602-2.308zM154.927 195.23c.393-.638.491-1.423.099-1.915-.687-.736-2.454.688-2.896 1.915-.294.491-.294.982.05 1.276.931.835 2.159-.097 2.747-1.276zM160.966 195.23c.294-.245-.099-.834-.393-1.325-.344-.688-1.031-.589-2.357.098-.785.491-1.374.884-1.473 1.227-.098.196 0 .491.197.786.588.883.883.786 1.08.196.195-.589.834-.786 2.209-.786.345.001.639-.097.737-.196zM165.286 195.23c.393-.54.491-1.227.099-1.62-.736-.933-2.75.491-3.044 1.62 0 .295.099.589.294.786.933.883 2.208.196 2.651-.786zM170.685 195.23c.295-.441.295-1.031-.098-1.521-.785-.933-2.799.491-2.602 1.521.098.196.195.295.295.491.932.884 2.012.295 2.405-.491zM174.22 195.23c.098-.441-.197-1.62-.785-1.521-.934.294-.541 1.08-.099 1.521.294.196.589.295.687.295.099-.098.197-.196.197-.295zM178.147 195.23c0-.54-.393-1.423-.835-1.227-.785.196-.687.786-.294 1.227.294.295.638.589.933.491.097.001.196-.294.196-.491zM185.314 194.249c-.589-1.375-.688-2.455-.883-3.878-.197-1.571-.688-2.994-2.455-2.994-1.227 0-1.521.491-1.424 1.325 0 2.798.59 5.646.59 8.443 0 1.964 1.816.294 2.602-.147 1.914-1.129 2.454-.638 1.57-2.749z"/><path fill="#FFF" d="M197.046 195.23c.295-4.565.393-9.229.393-13.794 0-6.676.295-13.401.099-20.078-.099-.834-1.522-1.326-2.21-2.258-.687-1.08-1.129.638-.883 1.62.393 1.424 1.914 2.602 2.111 3.927.195.589-.344 2.013-.59 3.485-.049.393-.049.785-.098 1.178-.147.981-.59 4.516-1.326 5.203-.441 1.08-.146 2.111-.344 3.584 0 1.178-.981 2.405-1.178 3.632-.49.982-.393 4.173-.441 5.498-.197 2.7-.295 5.351-.295 8.001-.098 1.669-.098 2.995-.196 4.025v1.276c.196 1.326 2.013 1.816 3.239 2.013 1.179.294 1.179-.196 1.326-1.227 0-.197.098-.982.196-2.062.001-1.028.1-2.451.197-4.023zM176.037 239.901c-.099-1.521 2.503-1.815 2.11.295-.099 1.178-2.013 1.719-2.11-.295zM156.106 240.786c-.099-1.621 2.454-1.816 2.209.294-.196 1.031-2.013 1.718-2.209-.294zM143.932 240.688c-.098-1.62 2.503-1.816 2.209.294-.197 1.031-2.013 1.718-2.209-.294zM139.808 241.473c0-.294.196-.491.589-.491.294 0 .589.197.589.491 0 .147-.294.442-.589.442-.393 0-.589-.295-.589-.442zM170.784 239.901c-.099-.834.54-1.423 1.325-.932.884.441 1.914-.785 2.013.539 0 1.375-.785 1.473-1.915 1.473-1.227-.097-1.423-.195-1.423-1.08zM130.727 241.374c.098-1.865 2.553-2.209 2.405.148-.196 2.405-2.602 1.668-2.405-.148zM149.626 239.607c1.031-.933 1.522 1.473.442 1.767-1.718.541-2.553-.098-.442-1.767zM160.524 242.111c-1.08-.491.736-4.124 2.454-2.749.785.442.099 4.026-2.454 2.749zM165.678 242.013c-1.03-.54.981-4.614 2.7-3.24.737.589 0 4.417-2.7 3.24zM140.79 244.517c0-.295.294-.491.589-.491.246 0 .54.196.54.491s-.196 1.08-.442 1.08c-.393 0-.687-.785-.687-1.08zM146.239 245.204c0-.295.294-.491.589-.491.393 0 .589.196.589.491 0 .294-.196.49-.589.49-.295 0-.589-.196-.589-.49zM133.279 246.136c0-.932 1.276-1.521 1.767-1.815.442-.196.933.099.736 1.079-.196 1.031-.736 2.75-1.718 2.75-.932-.099-.883-.934-.785-2.014zM128.518 247.021c-1.08-.491.54-3.928 2.307-2.7.638.588.343 3.828-2.307 2.7zM150.46 245.94c-1.031-.442.393-3.535 2.16-2.209.688.589.001 3.29-2.16 2.209zM172.404 251.241c-.099-1.521 2.504-1.816 2.209.295-.197 1.129-2.013 1.719-2.209-.295zM150.558 251.634c1.277-.588.885 1.816.492 1.816-1.13-.097-1.817-1.275-.492-1.816zM145.601 251.34c1.326-.491 1.522 1.424.442 1.816-2.013.785-2.308-1.129-.442-1.816zM167.003 252.272c-1.129-.54.491-3.436 2.209-2.111.786.59.393 3.289-2.209 2.111zM161.849 252.96c-1.08-.59.688-3.535 2.406-2.209.638.49.196 3.387-2.406 2.209zM156.941 253.058c-1.129-.49.49-3.927 2.307-2.602.687.491.294 3.829-2.307 2.602zM127.929 249.622c-.197 1.031-2.013 1.718-2.209-.295-.001-1.816 2.552-1.57 2.209.295zM130.628 250.555c-.687-.394-.393-1.62.393-2.013 1.964-1.326 2.798 3.534-.393 2.013zM149.724 248.542c.196.49 0 1.08-.589 1.375-1.718.539-2.209-.59-1.326-1.375.147-.196.442-.393.736-.491.59-.197.983 0 1.179.491zM159.837 249.622c-1.08-.736.687-3.879 2.404-2.7 1.13 1.129-.392 3.534-2.404 2.7zM165.089 248.935c-1.178-.589.245-3.24 1.914-2.013 1.375 1.227-.343 2.651-1.914 2.013zM171.078 248.935c-1.767-.295-.834-2.945.442-1.816.981.834 1.767-1.08 1.571.49-.343 1.228-.541 1.326-2.013 1.326zM177.214 248.935c-.393 0-.785-.196-.982-.393-.393-.491-.393-1.129.492-1.424 1.178-.49.981 1.817.49 1.817zM127.831 243.683c-2.062 1.178-2.848-.688-1.571-2.16.589-.639 1.424-1.031 2.258-.442.588.588.049 2.159-.687 2.602zM135.881 243.633c-.883 0-1.031-2.16-1.031-2.749 0-.884.442 0 .933.393.393.295.933.59.933 1.178.049.638-.099 1.178-.835 1.178zM159.542 243.19c.883 1.031 1.619 2.553-.099 2.945-1.374.246-1.62-.638-1.62-1.423-.049-.933.344-3.093 1.62-1.62.001.001.001.098.099.098zM165.187 243.19c.688.541.197 3.633-2.404 2.504-.983-.589.637-3.779 2.404-2.504zM170.98 243.19c-.098 1.229-.982 3.143-2.994 2.308-.59-.294-.295-1.473.295-2.308.736-1.128 2.699-1.816 2.699 0zM176.429 244.075c-.393.736-1.08 1.03-1.816.932-.884-.098-1.326-.981-1.424-1.816 0-.098-.098-.195-.098-.294 0-.981.834-.981 1.521-.589.441.245 1.375 0 1.865.196.64.245.197 1.179-.048 1.571zM126.603 237.791c-2.062-2.013-2.013 4.909.246 1.276.196-.392 0-.882-.246-1.276zM130.776 236.662c-.197-.638-.982-.393-1.62.099-1.473 1.129-.442 2.748.54 2.602.883-.148 1.325-1.965 1.08-2.701zM133.966 235.827c-1.571 0-1.571 2.308-.441 2.504 1.521.295 2.111-2.504.441-2.504zM160.574 237.791c.294-.491.294-1.228 0-1.816-1.621-3.534-3.339.196-2.455 1.816.098.196.295.394.344.491.981.785 1.767.295 2.111-.491zM165.875 237.791c.884-.54 1.424-1.718.785-2.308-1.816-1.718-4.025 1.179-3.19 2.308 0 .099.099.196.099.196.784.688 1.618.393 2.306-.196z"/><path fill="#FFF" d="M195.77 232.833c.736-5.449 1.276-10.897 1.964-16.347.196-1.964.441-4.319 1.57-5.989.688-1.03 1.521-1.914 1.571-1.865 0-.589-1.767-1.718-1.718-3.534.146-4.909.393-9.867.589-14.776.294-7.609.736-15.61.687-23.465 0-1.031-.245-9.229-.785-9.229-.49 0-.49 24.594-.981 34.755-.147 3.338-.442 6.676-.442 9.965 0 .736-.049 2.16-1.08 2.16-.344 0-1.619-.344-2.503-.639-1.374-.49-2.7-1.473-2.798.785-.049.688-.099 1.621-.147 2.553-.099 1.031-.196 2.111-.099 2.602 0 1.326 1.129.736 2.406.736 2.65 0 3.043.344 2.896 2.553-.1.835-.148 2.063-.246 3.388-.295 5.399-1.08 10.8-1.816 16.052a561.715 561.715 0 0 0-1.768 12.666c-.195 1.325-.49 2.847-.441 4.172.049 1.08.246 1.179.49.246.541-1.08.639-3.143.835-4.369.637-4.123 1.276-8.297 1.816-12.42zM122.381 277.357c-.196-1.08.196-1.571.638-1.374.393.195.589.393.294 1.521-.293 1.179-.735.786-.932-.147zM118.503 285.948c-.246-.736.393-1.031.982-.54.589.441.883 1.03.393 1.521-.491.492-1.178-.196-1.375-.981zM112.269 286.145c-.196-.933 1.669-2.454 1.669-4.958s0-4.32.638-4.418c.688-.098 1.276 1.326 1.276 2.945 0 1.67-.884 4.909-1.718 5.891-.883.932-1.767 1.521-1.865.54zM110.845 298.515c-.196-1.129 2.013-1.718 3.535-2.258 1.473-.59 3.976-2.111 4.418-3.682.589-1.62 2.798-4.517 6.136-4.517 2.209 0 4.614 2.013 5.989 2.013 1.326 0 3.829-.344 3.633 1.571-.098 1.815 0 3.534 0 4.222 0 .638-.196 1.031-1.718 1.129-1.571 0-4.124-.098-4.614.295-.491.393-1.718 1.619-4.713 2.012-2.994.295-7.461.688-9.13.688-1.719-.001-3.438-.197-3.536-1.473zM176.134 259.292c-.098-1.619 2.504-1.816 2.209.295-.196 1.031-2.111 1.719-2.209-.295zM171.52 257.967c.491-1.374 1.08.099 1.473.442.442.294 1.423 1.57.196 1.57-1.276-.097-2.013-.687-1.669-2.012zM128.321 259.391c1.325-.589.933 1.816.589 1.816-1.178-.099-1.865-1.228-.589-1.816zM145.208 258.604c1.325-.441.933 1.866.589 1.866-1.178.001-1.865-1.276-.589-1.866zM150.166 258.065c1.375-.59.884 1.718.589 1.718-1.129 0-1.816-1.276-.589-1.718zM126.21 256.298c.294-1.325 2.209.098 1.62 1.08-.981 1.521-2.111 1.521-1.62-1.08zM130.334 255.267c1.325-.589 1.62 1.522.589 1.719-1.178.294-1.865-1.13-.589-1.719zM140.888 259.979c1.325-.49 1.521 1.031.491 1.424-2.111.688-2.307-.785-.491-1.424zM143.097 255.464c1.325-.491 1.62 1.424.589 1.816-2.111.785-2.307-1.13-.589-1.816zM147.319 255.169c1.325-.59 1.62 1.521.589 1.816-1.178.197-1.866-1.227-.589-1.816zM164.451 256.249c-1.178-.491.099-3.191 1.816-1.865.688.589.393 2.896-1.816 1.865zM159.15 256.593c-1.031-.54.393-3.535 2.11-2.209.786.49.099 3.289-2.11 2.209zM166.66 259.783c-1.178-.589.344-3.534 2.111-2.209.639.491.098 3.239-2.111 2.209zM157.333 260.372c-1.129-.49.098-3.289 1.914-1.963.688.49.688 3.191-1.914 1.963zM161.653 259.979c-1.079-.49.196-3.682 2.013-2.405.687.589.687 3.633-2.013 2.405zM125.327 263.515c-.098-1.621 2.405-1.816 2.111.294-.099 1.03-2.013 1.717-2.111-.294zM171.078 265.625c0-.294.148-.491.541-.491.294 0 .588.197.588.491 0 .196-.294.491-.588.491-.393 0-.541-.295-.541-.491zM139.612 266.509c0-.295.294-.491.589-.491.393 0 .589.196.589.491s-.196.441-.589.441c-.295 0-.589-.146-.589-.441zM144.03 266.214c0-.295.294-.49.589-.49.294 0 .589.195.589.49s-.294.491-.589.491-.589-.196-.589-.491zM132.739 266.214c.736 0 .736.933 0 .933-.785-.001-.785-.933 0-.933zM128.321 265.724c.736 0 .736.981 0 .981-.785 0-.785-.981 0-.981zM149.822 266.705c0-.295.196-.491.54-.491.294 0 .589.196.589.491 0 .245-.295.441-.589.441-.343 0-.54-.196-.54-.441zM147.123 261.894c1.325-.588.933 1.816.589 1.816-1.179-.098-1.866-1.227-.589-1.816zM130.138 262.385c1.325-.491 1.718 1.62.589 1.816-1.081.295-1.817-1.276-.589-1.816zM137.697 262.63c1.375-.539 1.669 1.571.589 1.768-1.129.294-1.816-1.178-.589-1.768zM161.162 267.245c-1.129-.54.393-3.535 2.111-2.209.687.49.098 3.289-2.111 2.209zM165.875 266.606c-1.129-.589.393-3.583 2.111-2.209.687.442.097 3.241-2.111 2.209zM156.842 267.54c-1.129-.492.099-3.633 1.816-2.308.786.492.786 3.486-1.816 2.308zM121.007 269.847c0-.196.294-.491.589-.491.294 0 .589.295.589.491 0 .295-.294.49-.589.49s-.589-.195-.589-.49zM159.345 269.062c0-.147.295-.442.59-.442.393 0 .589.295.589.442 0 .294-.196.49-.589.49-.295 0-.59-.197-.59-.49zM173.287 267.54c1.229-.541.835 1.815.442 1.815-1.129 0-1.816-1.374-.442-1.815zM168.281 267.933c.393 0 .932.098 1.324.245.442.147.59.343.099.638-.393.295-1.03.54-1.228.54-.638-.001-1.226-1.178-.195-1.423zM165.678 269.159c-.099 1.08-2.013 1.768-2.11-.245 0-2.013 2.65-1.424 2.11.245zM141.625 268.423c.294-.54 1.473-.933 1.473 0 .098.54-.098 1.326-.294 1.326-.885 0-1.425-.786-1.179-1.326zM136.813 269.405c-.785 1.03.099 1.374 1.473.834.687-.196.687-1.325.294-1.816-.588-.589-1.521.687-1.767.982zM130.383 268.963c.147.491-.098 1.031-.638 1.179-.883.245-1.521-.736-1.031-1.375.392-.589 1.473-.737 1.669.196zM125.032 268.423s.098-.098.196-.098c.491-.197.786-.099.982.098.491.491.393 1.521-.393 1.719-1.079.195-1.717-1.08-.785-1.719zM123.805 261.796c-.197.196-.491.196-.589 0-.294-.196-.294-.884.294-2.209.589-1.325 2.209.098 1.62 1.031-.392.589-.834.982-1.325 1.178zM161.064 261.796c.098.295.196.688.098 1.031-.098 1.08-2.012 1.768-2.11-.246-.099-.294 0-.49.196-.785a1.1 1.1 0 0 1 1.816 0zM165.58 261.796c.295.589.099 1.228-.588 1.424-.835.196-1.522-.736-1.031-1.424.098-.098.295-.295.589-.393.539-.196.932 0 1.03.393zM170.685 261.796c.197.098.295.196.295.295 0 .294-.785.933-1.08.933-.393 0-1.325-.639-1.325-.933 0-.099.099-.197.099-.295a.73.73 0 0 1 .441-.196c.49-.099 1.177.098 1.57.196zM175.202 261.796c.344.491.245 1.424-.491 1.62-.981.196-1.718-.933-.883-1.62.098 0 .195-.098.294-.196a.98.98 0 0 1 1.08.196zM134.359 277.946c-.098.688-.393.933-1.62.736-1.669-.393-2.405-.589-3.829-.393-1.571.098-2.896.196-3.878.196-.933 0-.638-.981-.638-2.308 0-2.062 3.535-2.258 4.86-2.307 2.553-.096 5.645 1.033 5.105 4.076zM159.345 277.995c-2.209-.736-6.43-1.424-8.394-1.521-2.111-.098-7.266 1.031-9.327 1.521-2.111.393-2.749.491-2.945-1.03-.54-2.062 2.553-2.848 3.927-3.289 2.896-.638 6.921-.638 8.247-.54 1.719 0 1.964-1.964 2.356-1.865.294.098.491 1.914 1.915 2.209 1.129.245 4.467.295 5.891 1.08 1.669.882.589 4.27-1.67 3.435zM165.286 275.148c.147.54.099 1.129.049 1.521-.049.491 0 .736-.54.981-.344.148-.785.148-.834-.393-.049-.638 0-1.275-.049-1.669-.05-.882.981-1.471 1.374-.44zM167.544 275.934c.098.491.146.786-.442.933-1.031.099-.933-1.473-.786-2.258.05-.491.295-.736.639-.736.736-.001.49 1.472.589 2.061zM176.134 275.148c0 .933.196 1.423-1.129 1.325-1.276-.196-2.013-.295-3.584-.295-1.521 0-2.355.688-2.553-.49-.245-.441-.195-1.521-.195-2.013 0-.736.539-1.031.638-.394.099.59.049.934.147 1.326.196 1.129.638.441.638-.441 0-.688-.491-2.7.981-2.602 1.228.098 2.651.049 3.486.098 1.374.049 1.57.981 1.57 2.062l.001 1.424zM129.548 253.843c1.129-1.423-.883-2.896-2.013-1.619-1.325 1.619 1.179 2.699 2.013 1.619zM170.882 253.843c-1.522-.638-2.651 1.571-1.571 2.111 2.209 1.031 2.602-1.375 1.915-1.816-.148-.098-.246-.197-.344-.295zM175.447 253.843h-.736c-.295.099-.49.295-.393.736.393 1.474 1.62 1.719 2.7.982 1.62-1.177-.835-1.57-1.571-1.718zM188.849 232.343l1.374-21.895c.491-7.903 1.03-15.905 1.325-23.857.049-1.276.59-3.927-1.325-3.927-2.454.246-2.16 1.718-2.209 3.535-.245 8.345-.736 16.789-1.325 25.035-.344 6.971-.835 13.99-1.228 20.961-.442 7.512-.835 15.021-1.276 22.533-.49 8.59-.982 17.181-1.521 25.723-.393 6.872-.541 12.91-.491 13.794.099 1.915.491 1.423.688.442.196-.541.933-3.438 1.473-5.744.491-2.013.687-3.534.736-5.4.049-3.583.099-6.971.491-10.504a568.233 568.233 0 0 0 1.619-18.213c.54-7.462 1.227-14.973 1.669-22.483z"/><path fill="#FFF" d="M191.548 245.302c.785-4.222 1.276-8.395 1.816-12.665.639-5.351 1.276-10.701 1.669-16.15.099-.933.196-1.62.196-2.013.098-2.209-.785-2.405-1.816-2.405-1.08-.099-2.012-.099-2.012.785-.148 6.234-.639 13.058-1.179 19.439-.638 7.56-1.228 15.12-1.669 22.68-.147 2.11-.295 4.222-.491 6.234 0 1.865.54.981.933-.196.59-5.155 1.671-10.604 2.553-15.709zM121.056 147.859c-.491.589-.295 1.375-.049 1.816.196.393.884 1.521 0 1.914-.933.295-1.129 1.326-.638 1.816.54.589 1.031 1.473.344 2.111-.834.589-.638 1.522-.246 2.111.344.688.736 1.178.049 1.62-1.178 1.227-.442 1.62-.049 2.651.098.344.098.638-.294.736-.786.098-1.375.687-.491 2.013.933 1.325.834 1.915.196 1.915-.54.098-1.326.147-1.473.589-.147.344.589 1.129.785 1.424.54.834 1.129 1.915.491 1.915-.884-.098-1.816-.491-1.178.785.196.294 2.111 3.633 1.08 3.633-.884 0-2.111-.589-1.62.294.246.638 1.375 2.013 1.767 2.945.884 2.111-2.896.442-1.963 1.964.638 1.031 2.307 3.043 1.325 3.534-.834.491-1.718.294-1.423.933 0 .098.098.098.098.196.638.982 2.013 3.878.834 3.583-1.227-.196-2.356-.687-1.522.638.196.295.393.589.688.884.736 1.129 1.521 2.307.491 2.503-1.276.196-1.963.638-1.276 1.326.393.54 2.504 2.945 1.424 3.436-.54.196-1.031.049-1.424-.049-1.767-.54-.196 1.227.294 2.062.884 1.669 1.816 3.583.491 2.995-1.178-.491-1.816-.491-.982.981.098 0 .098.099.098.099.884 1.374 1.62 3.682.688 3.485-.884-.295-2.209-1.178-1.424.295 0 0 .098.098.098.195.834 1.424 2.455 3.535 1.326 3.633-1.326.099-2.847-1.669-1.816.393.834 1.326 1.816 3.24.736 3.044-1.129-.245-2.749-1.424-1.326.589.491.59.884 1.178 1.129 1.62.883 1.374 1.375 2.503.491 2.405-1.129-.196-1.423-.639-1.915-1.129-.589-.49-1.129-.196-.491.834.589.688 1.571 2.111 2.111 3.191.196.49.294.834.294 1.129-.098 1.08-.834.982-1.62.393-.883-.688-1.62-.196-.687.785.786.639 1.473 2.014 1.816 3.044.196.589.294.981.294 1.179-.098.736-.638.49-1.424-.099a31.459 31.459 0 0 1-1.325-1.08c-.589-.294-.982-.393-.786 0 0 .196.098.393.295.688.834 1.473 2.111 2.749 2.503 3.927.442 1.08.196 2.602-1.276.785-.736-.981-2.307-1.473-1.62-.49.098.196.196.295.295.49.883 1.129 2.405 3.535 2.405 4.418 0 .934-.982.197-1.816-.294-.786-.589-2.013-.785-1.276.294.098.197.393.541.589.835.884 1.276 2.013 2.995 2.013 3.583 0 .835-.687.934-1.521.148-.884-.736-2.209-1.129-1.473.098.196.393.589.982.981 1.57.589.934 1.326 1.965 1.718 2.799.344.688.54 3.043-.687 1.718-.834-.785-2.455-2.503-2.651-1.964-.196.393 2.111 3.191 2.503 4.174.736 1.521 1.129 2.945-.196 1.717-1.375-1.178-3.682-1.914-2.602-.687 1.129 1.325 2.209 2.847 2.945 4.467s1.227 3.584-1.129 1.571c-2.651-2.308-5.498-4.517-6.823-7.953-.393-.785.491-.393 1.276.491.638.835 1.915 1.031 1.031-.099-.982-1.473-1.865-2.896-2.503-4.613-.442-1.522.393-.982.982-.197.687.688 1.816.982.933-.49-.688-1.424-1.915-2.504-2.209-4.223-.344-1.619.981-.49 1.473.099.589.688 2.209 1.179 1.227-.294-.687-1.67-2.209-2.75-2.602-4.664-.344-1.865 2.503 1.62 2.7.639.196-.491-.736-1.816-1.521-3.143-.049-.098-1.571-3.632-.246-2.847.785.442 2.111 2.553 2.258 1.473.196-1.129-1.522-2.651-2.013-4.025-.099-.294-.099-.54-.099-.736.197-1.08 1.228.294 1.915.736.589.589.638.05.491-.491-.147-.441-.442-.883-.491-.932-.638-.885-1.375-2.014-1.669-2.896-.344-.884-.196-1.865.982-1.031.982.688 2.209 1.816 2.307 1.227 0-.294-.294-.638-.638-1.227-.933-1.228-2.307-2.7-2.405-4.271-.147-1.815 3.191 1.522 3.338 1.08.098-.539-.294-1.324-.785-2.11-.933-1.325-2.16-2.749-1.915-3.633.491-1.228 3.191 3.289 3.485 2.111.196-.786-1.473-2.405-2.209-3.731-.393-.589-.589-1.178-.393-1.521.589-1.276 2.308 1.816 2.798.344.196-.639-.589-1.816-1.276-2.848-.54-.981-1.129-1.816-.834-2.307.442-1.129 2.013 1.521 2.405.639.147-.442-.589-1.375-1.276-2.308-.491-.786-.933-1.669-.687-2.308.687-1.473 2.307 1.915 2.798.835.54-1.08-2.798-3.093-2.307-4.32.589-1.129 2.013 1.669 2.602.982.54-.736-2.896-5.007-2.209-5.645.589-.786 2.111 1.718 2.798.736.442-.589-.884-2.062-1.473-3.289-.196-.393-.491-.982-.344-1.424.442-.638 1.326.688 1.915 1.08.098.196.294.196.344 0v-.098c.294-1.08-2.258-3.731-1.718-4.909.098-.147.147-.245.246-.294h.343c.688.294 1.473 1.62 1.62.982.098-.196-.098-.589-.294-.982-.638-1.227-2.111-3.142-1.62-3.829.688-.834 2.111 1.276 2.209-.098 0-.54-.196-.933-.589-1.423-.442-.688-1.228-1.424-1.228-2.798 0-2.111 2.504 1.276 2.602.197.246-1.473-2.602-3.289-2.111-5.449.491-1.816 1.816 1.522 2.307.196.491-1.375-2.258-2.994-1.767-4.516.589-1.276 1.669.933 1.963 0 .246-.982-1.669-2.798-1.276-3.927.491-1.178 1.62.834 1.915-.098 0-1.276-1.718-1.816-1.325-3.289.491-1.62 1.423.491 1.62-.736.246-1.325-2.454-3.534.344-3.976.393-.049.638-.098.344-.638-.688-.982-1.718-2.405-1.178-2.896.687-.491 2.013 0 1.669-.834-.393-.785-1.767-2.307-.982-2.896.197-.098.295-.197.491-.295.589-.491.736-.785.491-1.227-.491-.589-.982-1.276-.393-1.816.54-.589.736-.687.54-1.571-.049-.294-.049-.54 0-.736.196-.736.736-.834.687-1.767-.049-.54-.343-1.08-.245-1.571.049-.294.245-.638.491-.884.491-.491.147-.982.049-1.718-.147-.687 0-1.521.295-2.062.491-1.424.933-3.043 1.325-4.467.196-.736 1.326-5.989 1.915-5.989.393-.098.982 1.08 1.276 2.503.294.982.491 2.111.491 2.995 0 1.129.246 3.043.442 4.957.196 2.013.393 4.075.294 5.4a9.806 9.806 0 0 0-.196 2.062c-.049 1.669 0 2.896-.196 3.387-.196.491.049 1.325.049 2.013 0 .343-.099.589-.099.883 0 .736.638 1.669.049 2.504-.638.834.884 1.423.196 2.749-.442.785-.442 1.08-.246 1.374.344.491.884.982.884 1.669 0 .834-1.816.049-1.375.933.442 1.129 2.307 3.142 1.227 2.847-.981-.294-1.227.294-.785 1.08.196.294.589.638.982 1.129.589.688 1.129 1.424.294 1.375-1.276-.098-1.718 0-1.473.736.393.687 3.78 3.927 1.669 3.485-.442-.098-1.473-.294-1.571.147-.246.834 2.503 2.111 2.503 3.583 0 1.227-.294 1.423-1.129.638-.786-.834-1.62-.834-1.08.196.638 1.227 1.816 2.16 2.013 3.583.196 1.227-.344 1.227-1.031.294-.786-.982-1.718-.786-1.178.147.393.883 1.227 1.521 1.62 2.16.687 1.031.638 1.964-.786 1.08-.294-.196-.786-.442-.933-.294-.147.147.147.638.344.982.589.883 1.62 2.209 1.767 3.583.098.491 0 .785-.098.933-.344.393-.884-.246-1.031-.54-.295-.688-1.816-1.718-1.228-.393.294 1.178 1.767 2.012 1.915 3.142.196.982.098 1.571-.884.687-.933-.883-2.013-1.227-1.423-.196.638 1.178 1.669 2.062 2.307 3.289.54 1.228.54 1.325-.786.54-1.227-.638-1.718-.098-.589 1.178 1.276 1.129 1.718 1.816 1.571 2.602-.196.736-1.178.147-1.669-.491-.246-.393-.736-.442-.884-.147-.147.393.295 1.129.491 1.424.638.933 1.178 1.325 1.08 1.963-.196.786-.883.294-1.227 0-.246-.147-.442-.098-.54.049-.196.294.786 1.325.982 1.669.344.442.589.933.785 1.669.197 1.129-.589.736-1.129.442-.589-.246-.687.589-.098 1.178.442.884 1.522 1.767 1.522 2.749 0 .834-.295 1.227-1.178.54-.834-.638-1.718-.099-.736.884.098.098.196.294.393.393.736.933 1.424 1.914.638 1.914-.834 0-2.307-.883-1.718.393.393.736.884 1.228 1.276 1.719.147.295.442.589.54.933.196.981-.294 1.374-.933.981-.688-.393-1.473-.981-.982.393.491 1.031 1.08 2.111 1.276 2.945.098.197.098.393.098.59-.098.981-.687.688-1.375.098-.736-.589-1.521-.196-.834.688.638.834 1.031 1.031 1.129 2.307.197 1.129-.883.344-1.129 0-.196-.393-.883 0-.294 1.031.196.196.294.393.393.589.442.736.933 1.522 1.031 2.111.099.687-.393.835-1.031.196-.687-.688-1.276.196-.785.736.393.589 1.325 1.768 1.031 2.209-.491 0-1.915.589-1.326 1.178.884.736.982 1.129 1.228 1.816.294.688-.933.393-1.424.785-.393.344.295.934.786 1.719.098.196.294.49.393.639.344 1.079.834 2.209 0 1.865-.785-.491-1.669-.59-1.276.441.196.589 1.228 2.405.688 2.798-.442.295-1.129-.441-1.375-.147-.147.246-.049.835.491 1.67.54.883.786 1.473.933 2.061.147 1.031.393 1.473-.883 1.229-.786-.148-.834.098-.589.736.246.981 1.031 2.012 1.228 2.699.294.688-.197.982-.884.688-.393-.147-.688.049-.736.344-.098.441.687 1.669 1.129 2.65.344.736.54 2.209-.834 1.719-.687-.197-1.276.245-.785.932.245.835.834 1.571 1.129 2.406.294.785-.246.883-.736.589-.491-.393-.884 0-.393 1.03.589 1.08 1.62 2.896.589 2.995-1.08.099-1.767.196-1.276.933.098.295.294.688.491.982.491.834.786 1.815.099 1.718-.982 0-1.62-.491-1.522.294.098.688 1.227 1.816.638 2.111-.54.295-.834.196-.638.933.098.393.294 1.08.442 1.571.196.736.196 1.324-.147 1.521-.687.196-.883.981-.294 1.816.638.981.933 1.816.196 1.816-.785 0-1.669.098-1.178 1.178.098.098.196.295.196.393.491.834.884 1.62.491 1.816-.442.295-3.927-4.565-2.602-5.4.589-.343.491-.932.295-1.767-.491-1.718-.786-2.798.098-4.663 1.521-2.7 1.129-6.578 1.276-9.671.54-12.96 1.08-26.018 2.16-38.978.54-8.885 1.129-17.721 1.571-26.606.049-1.62.147-3.437.246-5.302.393-7.511.785-15.071 1.276-22.63.196-4.909.687-9.769.933-14.678.589-4.369.638-8.885.884-13.353 0-1.62.098-2.847 0-3.142-.098-1.08-.393-.393-.688.589-.098.441-.491 1.521-.736 2.552-.393 1.326-.687 2.406-.491 3.731.196 2.013.589 5.204-.098 6.676-.196.442-.393.884-.196 1.423.147.344.245.884.098 1.326-.152.392-.398.441-.643.784zM192.677 142.361l.835-54.686c0-8.738.491-20.225.294-27.883-.294-7.707-1.718-10.015-2.503-10.015-.688 0-2.504 3.387-2.798 8.64l-.688 30.435c-.246 18.458-.835 37.21-1.424 55.619-.098 2.503.344 4.614 2.405 4.909.589.099.638.589.245.933-.688.638-1.668.294-2.258.981-.981 1.08-.49 2.16-.834 3.24-.197.491-.541.687-1.08.491-.688-.344-.295-.834-.393-1.62-.099-.834-1.424-.834-2.7.491-.54.54-2.259 2.651-1.424 3.338.688.688.981.196 1.62-.246.688-.491 1.375-1.571 2.307-1.571.982 0 .786 1.276 1.473 1.718.541.589 1.621 0 2.75.294 1.275.196 1.914 1.276 2.11.688.196-.491-.294-.786-.933-1.08-.688-.246-1.57-.344-1.57-.736s1.668-.491 2.404-.491c.688 0 1.08-.196 2.995-.294 2.013-.196 3.142 2.798 3.73 2.896.981.147 1.08-3.043 1.08-3.731 0-2.209-2.308-4.811-4.418-4.516-.884.049-3.437-.098-2.356-1.326.147-.245.393-.441.59-.687.934-.882.541-4.416.541-5.791z"/><path d="M201.857 258.36c0-4.271-3.73-6.48-6.037-2.406.687-5.645 6.971-10.014 10.848-4.614 2.063-2.798 9.082-2.356 10.555.835-2.258-.147-5.645.393-6.137 3.092 7.069 1.129 5.548 11.438.197 14.089.295-1.521.785-5.841-1.719-5.841-5.007 0-6.234 8.688-4.908 12.518 1.914 5.498 8.443 12.714 18.311 12.714 14.235 0 18.359-15.513 18.359-26.853 0-2.307-.099-4.516-.491-6.627-13.255 1.719-21.6-11.045-23.121-21.795-.196-.099-.295-.099-.394-.147-6.921-3.878-13.057-9.131-13.057-18.948 0-8.002 6.037-15.365 13.549-17.771.049-1.915.195-3.632.195-5.4.442-18.016 8.149-29.061 24.055-29.061 3.19 0 5.301.883 7.805-4.418 2.258-4.909.834-8.443 1.816-12.665.834-4.222 3.436-4.124 4.664-4.124 1.374 0 2.699 1.915 2.699 5.646 0 7.609-9.769 16.985-9.769 16.985s2.602 1.571 5.154 4.712c2.503 3.289 2.308 4.713 3.878 4.713 2.356 0 1.227-5.792 1.227-5.792s3.731 2.552 3.731 7.118c0 4.909-4.418 4.713-4.418 4.713s-.491 4.909-4.319 4.909c-5.842 0-5.352-7.216-5.352-7.216s2.014 2.7 3.73 2.7c1.424 0 2.308-1.816 2.308-3.633 0-1.914-4.909-9.72-11.683-9.72-16.2 0-16.2 18.752-17.23 29.749 8.443.883 10.604 5.301 12.615 5.301 3.338 0 .59-4.663-.393-5.891 3.437 1.375 6.873 4.517 6.873 8.443 0 2.553-3.437 3.829-3.437 3.829 2.062 5.793-4.222 11.536-9.867 10.898 1.179-1.228 2.945-3.094 1.816-4.86-2.454 3.044-8.591-2.062-6.038-7.118 1.228 2.848 4.909 3.338 4.909-.196 0-2.994-3.633-5.891-6.479-6.479-.197 10.799-1.031 22.188.245 32.988 7.952 5.301 15.364 8.1 20.52 17.426 7.069-2.65 8.688-10.406 8.148-17.082-.099-1.719-.491-3.338-.491-5.154 0-4.615 5.597-5.498 5.548-9.672 0-2.602-2.062-1.914-3.534-.49 0 0-.491-5.302 3.583-5.302 5.989.294 2.013 11.192.54 13.353 0 0 .884 1.914 1.424 2.994.589 1.129 1.275 2.553.098 2.356-.736-.099-1.914-.196-2.699-.049-.639.099-.785 1.325-.736 2.798.049 8.591-1.424 16.396-10.26 19.93 1.08 2.651 1.619 5.646 1.619 8.886 0 15.021-9.769 29.944-25.968 29.944-14.433.049-22.974-9.326-24.251-19.832-.587-5.156 1.769-9.574 1.769-14.483zm38.191-6.824c-2.11-7.461-6.086-10.456-12.763-13.45 1.522 7.56 4.32 13.45 12.763 13.45zm-22.433-50.513c-7.02 5.939-6.676 18.899-.589 25.478 0-8.542.589-17.034.589-25.478zM185.953 168.771c-.393 0-.197-.638 0-.786.245-.736 1.03-.54.932-.098-.098.246-.589 1.277-.932.884zM142.852 140.496c.54-.197.834.245.589.687-.246.442-.688 1.08-1.129.834-.491-.294 0-.982 0-.982.147-.244.294-.441.54-.539zM143.686 142.754c.246-.736.933-.491.834 0-.098.491-.491 1.178-.834.884-.294-.197 0-.884 0-.884zM144.422 145.258c.197-.589.688-.393.589 0-.098.294-.393.883-.589.687-.294-.196 0-.687 0-.687zM155.222 148.056c-.344.246-.785-.049-1.424-.442-.49-.344-1.031-.589-1.473-.883-1.031-.639-1.718-1.473-1.08-2.356.884-1.129 2.258.393 2.945 1.08.295.343 1.522 1.473 1.326 2.16.001.146-.196.391-.294.441zM145.502 147.908c.393-.441 1.031-.196.834.246-.098.393-.54 1.129-.933.834-.342-.147-.048-.834.099-1.08zM146.435 150.363c.344-.196.834 0 .688.344-.098.393-.589.982-1.08.785-.393-.295.049-.982.392-1.129zM151.05 154.683c-.884-.491-1.13-.981-.786-1.473.491-.442.884.098 1.767.688.492.393.786.687.934.933.146.294.146.736-.246.687-.59-.001-1.178-.541-1.669-.835zM186.099 164.354c.393-.884 1.473-.589 1.277 0-.099.491-.786 1.325-1.277 1.08-.441-.295 0-1.08 0-1.08z"/><path fill="#FFF" d="M151.933 108.146c0-.196.098-.294.246-.294.195 0 .393.098.393.294s-.197.344-.393.344c-.148 0-.246-.148-.246-.344zM156.842 106.575c0-.196.196-.344.491-.344.195 0 .393.147.393.344s-.197.393-.393.393c-.294 0-.491-.197-.491-.393zM165.777 150.265c0-.294.195-.491.589-.491.294 0 .589.196.589.491s-.295.442-.589.442c-.394 0-.589-.148-.589-.442zM176.919 148.546c.639-.491 1.816.147 1.031.834-.736.688-1.718-.392-1.031-.834zM178.736 151.59c.688-.491 1.914.295 1.129.884-.834.638-1.718-.393-1.129-.884zM176.331 153.799c0-.197.295-.491.589-.491.295 0 .59.294.59.491 0 .294-.295.491-.59.491s-.589-.196-.589-.491zM134.064 153.21c1.228-.54 2.111 1.08.982 1.276-1.08.295-2.307-.785-.982-1.276zM137.894 152.081c1.276-.589 2.602 1.325 1.473 1.521-1.08.295-2.799-.932-1.473-1.521zM135.39 149.381c.589-.589 1.473.884.687 1.08-.687.196-1.325-.393-.687-1.08zM131.021 149.872c.54-.688 1.424.785.638 1.031-.736.196-1.325-.442-.638-1.031zM129.156 153.603c0-.196.196-.491.589-.491.295 0 .589.294.589.491 0 .295-.294.491-.589.491-.393 0-.589-.197-.589-.491zM184.283 139.22c0-.786-.294-1.178-.539-1.08-.197.098-.197.491-.099.981.099.295.196.884.196 1.522v1.62c-.098.982.441.982.54.196.099-.294.05-.933 0-1.522 0-.54-.098-1.128-.098-1.717zM179.767 140.152c-.295-.196-.639-.294-.933-.246-.638.098-.688.834-.344 1.276.344.393.981.589 1.571.246.491-.49.196-.932-.294-1.276zM172.011 140.545h-.099c.196-.294-.393-.54-1.129-.294-.294.098-.393.196-.491.393 0 .196.688.393 1.228.196.196-.098.294-.196.393-.196l.098-.099zM161.653 140.643c.196-.098.491-.196.688-.393 1.228-.834-.099-2.258-.688-2.258-.589.049.099.54-.785 1.424-.54.589-.344 1.031 0 1.227.196 0 .491.098.785 0zM162.783 142.459c1.57-.344.195-1.227 1.178-1.522 1.031-.294 1.424 1.522.393 2.406-1.081.982-3.094-.393-1.571-.884zM158.119 142.263c0-.147.295-.442.54-.442.393 0 .589.294.589.442 0 .294-.196.491-.589.491-.245 0-.54-.196-.54-.491zM164.843 144.668c.442-.736 3.338.491 1.915 1.767-1.472 1.228-2.405-.883-1.915-1.767zM167.201 143.736c-1.13-.491 1.178-2.013 1.767-2.209.834-.196-.687 2.601-1.767 2.209zM169.998 145.061c.59-.687 1.424.884.688 1.08-.688.196-1.375-.392-.688-1.08zM178.343 145.454c.688-.786 2.602.687 1.62 1.227-1.03.687-2.209-.442-1.62-1.227zM176.724 143.441c.687-.688 1.521.883.785 1.031-.785.196-1.375-.344-.785-1.031zM184.48 144.767c.393 0 .49.884.393 1.375-.099.442.393.736-.295.834-.589 0-.196-.834-.295-1.227 0-.491-.196-.884.197-.982zM181.043 143.638c0-.196.294-.491.589-.491.246 0 .54.295.54.491 0 .294-.294.491-.54.491-.295-.001-.589-.197-.589-.491zM130.53 143.736c0-.196.196-.491.54-.491.294 0 .589.294.589.491 0 .294-.294.491-.589.491-.343 0-.54-.197-.54-.491zM128.959 146.681c0-.246.294-.442.589-.442s.589.196.589.442c0 .294-.295.491-.589.491s-.589-.196-.589-.491zM179.227 133.918c-.196-.246-.589-.442-.884 0v.098c-.393.982.098 2.013.785 1.08.295-.491.198-.884.099-1.178zM172.501 133.918c-.295-.442-1.178-.933-1.914-.344-.196.098-.295.246-.393.344-.491.785.688 1.473 1.816 1.08.689-.196.689-.687.491-1.08zM168.281 133.918c-.394-.638-1.277-1.129-2.014-.54-.196.196-.295.393-.295.54-.195.981 1.326 2.111 2.209 1.375.394-.394.394-.982.1-1.375zM163.371 133.918c-.294-.246-.834-.344-1.227-.098l-.098.098c-.394.491.49 1.375 1.129.785.393-.294.393-.589.196-.785zM155.615 81.54c.197-1.326.491-1.915 1.816-1.424 1.424.393 4.811 1.816 7.217 3.731 2.307 2.013 3.436 3.927 3.633 4.614.195.786 0 1.129-.295 1.228-.295.098-.295.393-.099.687.294.196.786.589.589 1.227-.295.688-.785.197-1.275-.54-.442-.785-1.719-3.19-5.254-5.301-3.484-2.111-5.006-2.111-5.596-2.307-.539-.1-.933-.443-.736-1.915zM150.46 90.277c.098-1.227.688-6.234 1.08-7.461.589-1.866 1.57-1.375 1.768-1.915.295-.688-.59-1.08-.393-1.571.294-.491 1.718-.639 1.619 1.08-.098 1.816-.441 4.124-1.227 7.167-.736 3.093-1.277 4.517-1.964 4.517-.686 0-.883-.59-.883-1.817zM157.039 77.612c.295-.688.785-1.915 1.62-3.24.981-1.375 2.11-1.866 2.798-1.571.59.295 2.602 1.915 3.535 4.909 1.079 2.995.98 3.927.883 4.516 0 .589-.196.688-.883.196-.639-.393-3.045-1.914-4.418-2.602-1.229-.589-2.259-.884-3.143-1.129-.589-.195-.589-.49-.392-1.079zM155.125 74.912c.195-.294 1.178-1.423 1.521-1.816.49-.393 1.473-.589 1.57-.589.197 0-.195.688-.589 1.08-.294.393-1.325 1.915-1.62 2.209-.195.196-.393.196-.785-.098-.295-.295-.295-.491-.097-.786zM145.699 84.043c.098-.982.638-1.718 1.522-2.405.834-.688 2.209-1.228 2.798-.933.442.245.638 1.718.246 2.209-.246.54-2.209 1.423-2.945 1.718-.688.197-1.719.295-1.621-.589zM148.742 78.397c.197-.491 1.424-1.669 2.013-2.307.688-.687 1.275-.883 1.619-1.178.344-.294.344.589.197 1.08-.197.589-.736 2.111-1.129 2.504-.393.441-.688.834-1.915.834-1.079.001-.981-.539-.785-.933zM163.568 102.55c0-.491.294-.736.589-.736.294 0 .491.245.491.736 0 .393-.197.687-.491.687-.295 0-.589-.295-.589-.687zM159.051 102.55c.294-.393.981-.491 1.179-.294.294.294.195.687-.295.981-.491.393-.982.589-1.178.294-.197-.294.294-.981.294-.981zM162.046 100.341c.098-.442.49-.54.638-.393.196.197.196.491 0 .786-.147.393-.344.294-.54.196-.295-.197-.098-.589-.098-.589zM163.96 98.524c0-.393.688-.589.933-.393.393.098.393.589.196.981-.246.393-.736.295-1.031 0-.196-.293-.098-.588-.098-.588zM161.751 96.708c.195-.785.688-.982 1.031-.785.393.196.195.687-.099.981-.245.393-.638.688-.835.589-.294-.097-.097-.785-.097-.785zM149.92 99.113c.344-.098 1.424.196 1.915.196.344 0 1.178-.393 2.602.393 1.669.933 1.914 1.227 1.669 1.718-.294.491-2.896 2.503-5.351 2.503-2.406 0-3.535-2.406-3.535-3.191.001-.833.835-1.422 2.7-1.619zM152.031 94.695c0-.785.688-.785 1.572-.196.834.589 2.404 2.602 2.602 2.896.245.393-.197.834-1.08.54-.885-.246-1.424-.54-2.209-1.228-.639-.686-.983-1.128-.885-2.012zM145.944 97.396c-.098-.491.294-1.08 1.08-1.669.687-.54 1.718-.834 2.111-1.129.491-.294.883.196.589.884-.196.54-.687 2.307-2.307 2.356-.884.098-1.375-.001-1.473-.442zM147.81 93.91c.933-.688 1.129-1.178 1.276-2.308.196-1.276.246-2.896.246-3.338.098-.688-1.915-.491-2.405-.491-.589.098-1.129.098-1.326.491-.196.491-.393 2.503-.491 3.338 0 .393-.098 3.535.933 3.387.392-.097 1.08-.588 1.767-1.079zM161.849 90.67c.295-1.816-.393-2.798-.883-3.387-.442-.638-.736-.54-1.031-.049-.197.54-.884.933-1.719 1.227-.883.393-1.668-.098-2.11-.589-.491-.295-.835.442-1.08 1.031-.344.786-1.129 2.111-1.129 2.896 0 1.325.589 1.718 1.325 2.405.736.736 1.914 1.816 2.602 2.503.934.786 1.719.589 2.014 0 .686-2.012 1.57-3.926 2.011-6.037zM141.183 114.675c.196-.294 2.111.638 1.227 1.522-.835.932-1.424-1.178-1.227-1.522zM135.292 115.117c.491-.54 2.111.589 1.375 1.375-.688.736-1.817-.688-1.375-1.375zM137.501 113.398c.491-.687 2.013 1.08 1.375 1.522-.589.491-1.719-.736-1.375-1.522zM131.168 114.282c.785-.688 2.405.393 1.276 1.227-1.177.982-2.012-.589-1.276-1.227zM127.732 114.92c.589-.54 1.718.196.982.785-.785.59-1.571-.294-.982-.785zM130.432 118.111c.491-.982 1.816 0 .834.785-.834.835-1.325.148-.834-.785zM161.849 114.479c0-.294.295-.491.59-.491.245 0 .539.197.539.491 0 .245-.294.442-.539.442-.295-.001-.59-.197-.59-.442zM166.464 123.266c.539-.736 2.503.687 1.521 1.276-1.03.687-2.208-.491-1.521-1.276zM163.273 120.909c.688-.393 2.405.834 1.62 1.424-.736.589-2.259-.982-1.62-1.424zM162.34 124.247c.638-.589 2.749.786 1.816 1.326-.883.687-2.503-.737-1.816-1.326zM152.572 122.824c1.031-1.915 2.454 1.62 1.668 2.455-.637.784-2.699-.443-1.668-2.455zM159.444 121.007c.294-.393 2.11.246 1.522 1.031-.541.786-1.718-.687-1.522-1.031zM155.026 121.057c0-.54 2.11-1.228 2.209.196 0 1.375-.196 1.375-1.03 1.178-.983-.197-1.278-.785-1.179-1.374zM149.724 119.633c.54-.688 3.584 0 2.405 1.375-1.276 1.326-1.374.147-1.963-.196-.54-.394-.442-1.179-.442-1.179zM136.274 121.155c.491-.736 2.602.687 1.62 1.276-.933.687-2.111-.589-1.62-1.276zM139.17 123.364c.344-.834 3.142.687 2.307 1.276-.785.491-2.798-.393-2.307-1.276zM147.319 120.811c.933-1.178 2.749 1.522 1.816 2.356-.884.884-2.798-1.129-1.816-2.356zM131.659 121.007c.982-.687 3.633.54 2.209 1.62-1.423.933-3.043-.981-2.209-1.62zM134.85 123.756c.442-.589 2.553.884 1.915 1.62-.786.687-2.504-1.031-1.915-1.62zM127.634 122.333c.884-2.013 2.406-1.816 1.62.491-.638 2.307-2.405 1.423-1.62-.491zM133.476 111.778c-.393.442.589 1.768 1.178 1.326.344-.736-.786-1.718-1.178-1.326zM145.601 112.613c-.589-.442-1.375-.933-2.405-1.424-1.571-.736-1.62-.393-2.405-.294-.688.098-1.915-.098-1.816.393.196 1.031 5.792 2.307 6.431 2.405 1.522.196 1.424-.196.834-.589-.198-.098-.394-.294-.639-.491zM155.125 112.564c-.393 0-.688.246-.688.638 0 .294.393.687.688.687.393 0 .688-.393.688-.687-.001-.442-.247-.638-.688-.638zM158.119 111.68c-1.326 0-1.276 2.209 0 2.209 1.226 0 1.325-2.209 0-2.209zM127.339 119.24c.098-.196.196-.344.196-.736-.049-.884-.981-.933-1.375-.393-.147.245-.245.933-.049 1.129.296.393.836.393 1.228 0zM135.39 119.24c.491-.638-1.227-2.209-1.816-1.424-.294.491 0 1.129.491 1.424.393.294.982.393 1.228.098-.001 0 .097 0 .097-.098zM139.514 119.24c.344-.295.442-1.178.246-1.571-.295-.884-1.669-.933-2.062-.246-.344.785-.344 1.473-.098 1.816l.294.294c.491.394 1.178.492 1.62-.293zM143.588 119.24c-.491-.638-1.178-1.718-1.865-.933-.344.393-.344.736-.098.933.294.491 1.178.687 1.865.785.933.196.442.786.54 2.013.098 1.228.589 1.08 1.473.295.933-.688-.982-2.209-1.473-2.602-.197-.098-.295-.294-.442-.491zM147.024 119.24c.196-.098.393-.344.589-.638.933-1.178-1.276-.393-1.375-.786-.098-.491-.834-2.209-1.423-1.031-.491 1.08-.295 1.669.442 2.405l.147.049c.54.59.933.59 1.62.001zM160.769 119.24c.295-.098.491-.196.59-.344.098-.785-.934-1.571-3.338-1.963-2.308-.344-5.744-1.424-7.463-1.62-1.717-.294-3.043-.294-3.141.393-.098.688.393.589 2.111 1.424 1.718.785 5.204 1.767 6.922 2.013.099.049.147.049.196.098h.589c1.227.196 2.798.294 3.534-.001zM171.324 119.24c-.441-.589-1.326-.638-1.964-1.031-.589-.343.147-.638-.049-1.423-.099-.786-1.522-.491-2.308-.294-.834.196-3.24.294-3.436 1.129 0 .393.883 1.08 1.914 1.62 1.129.736 8.787 5.252 9.033 4.712.195-.589-1.621-1.816-2.406-2.602-.785-.736-.589-.442-.589-1.522.001-.196-.098-.392-.195-.589zM130.727 132.494c0-.196.098-.294.294-.294.147 0 .344.098.344.294s-.196.295-.344.295c-.196 0-.294-.099-.294-.295zM176.037 129.598c.49-.736 1.718.589 1.08 1.08-.786.491-1.473-.393-1.08-1.08zM169.802 126.555c.589-.688 1.914 1.227 1.178 1.423-.785.196-1.768-.736-1.178-1.423zM171.913 129.549c.589-.589.786.933 1.522.933.883 0 1.374.786.294 1.178-1.03.344-1.522 0-1.816-.883-.294-.786-.492-.786 0-1.228zM163.469 130.187c.688-.736 2.602 1.522 1.915 2.013-.638.589-2.7-1.227-1.915-2.013zM168.181 130.089c.492-.834 3.339.393 1.915 1.62-1.423 1.276-2.405-.834-1.915-1.62zM165.972 127.684c.492-.638.982-1.816 1.522-.294.687 1.669.294 2.209-1.424 1.767-1.815-.491-1.423-.884-1.079-1.375.393-.393.589.49.981-.098zM160.425 126.849c1.129-.884 2.75 1.62 1.816 2.307-.882.54-2.993-1.374-1.816-2.307zM158.659 129.598c.687-.933 2.209 1.473 1.767 2.209-.491.687-2.405-1.227-1.767-2.209zM155.32 131.463c1.229-1.473 3.438 1.326 2.111 2.209-1.226.835-3.338-.687-2.111-2.209zM155.517 126.555c.589-1.08 3.142 1.62 2.012 2.307-1.178.736-2.602-1.277-2.012-2.307zM152.031 127.978c.688-1.227 3.094 1.473 1.768 2.602-1.326 1.227-2.553-1.326-1.768-2.602zM147.908 127.585c.344-.442 2.258 1.08 1.522 1.571-.786.442-1.817-1.08-1.522-1.571zM141.477 131.169c1.62-1.571 1.62.834.736 1.423-.736.491-2.405.098-.736-1.423zM136.47 132.592c.491-.491 1.62 0 .933.786-.638.638-1.522-.295-.933-.786zM133.868 131.169c.491-.688 1.522.393 1.08.736-.49.491-1.571-.098-1.08-.736zM136.863 129.353c.54-.982 2.405.54 1.62 1.325-.786.687-2.209-.491-1.62-1.325zM141.183 127.684c.442-.736 1.718.098 1.129.687-.589.589-1.718.196-1.129-.687zM138.385 125.965c.294-.294 2.209.688 1.423 1.375-.736.54-2.553-.491-1.423-1.375zM133.672 126.947c.294-.393 3.093.638 2.209 1.423-.736.786-1.915.884-2.209.197-.295-.687-.393-1.325 0-1.62zM130.138 128.371c.589-.687 2.111 0 1.325.982-.835.932-1.915-.197-1.325-.982zM180.847 137.501c.589-.688 1.521.834.785 1.031-.785.197-1.375-.392-.785-1.031zM172.501 136.912c.393-.491 2.209 1.08 1.424 1.522-.638.491-1.816-.933-1.424-1.522zM174.22 134.605c0-.294.295-.491.589-.491s.589.196.589.491-.295.491-.589.491-.589-.197-.589-.491zM168.967 136.618c1.228-.589 2.11 1.08 1.03 1.276-1.128.246-2.404-.785-1.03-1.276zM164.157 137.305c.933-.393 1.62.098.736.491-.736.344-1.816-.196-.736-.491zM166.071 139.514c.884-.491 1.915.393 1.228.933-.639.589-2.112-.442-1.228-.933zM158.315 135.587c.638-.785 1.522.442.736 1.031-.736.491-1.522-.295-.736-1.031zM137.697 135.194c1.473-1.816 2.307.491 1.08 1.227-1.276.786-2.503.688-1.08-1.227zM134.458 134.802c.294-.295 1.031.687.687.883-.393.196-.884-.491-.687-.883zM159.738 125.671c.934-.933-1.275-2.749-2.209-1.718-.785.688.295 1.816 1.229 2.013.392-.001.686-.001.98-.295zM149.822 124.64c-.981.933-.933 1.423.196 2.111 2.21 1.178 1.13-3.437-.196-2.111zM147.368 125.671c.245-.736-.835-1.669-1.424-1.326-.442.295-.147 1.228.393 1.62.393.197.884.148 1.031-.294zM132.347 125.965c.098-.196.098-.294.196-.491.393-.933-1.276-1.424-1.718-.638-.294.393-.393.736-.294 1.129 0 .196.098.294.196.491.196.393 1.03.197 1.62-.491zM133.034 147.565c-.736 0-.785-.982 0-.982.687 0 .834.982 0 .982zM151.05 160.033c.588-.687 1.423.884.687 1.08-.687.148-1.375-.392-.687-1.08zM144.128 157.333c1.375-.442 1.669 1.669.589 1.816-1.129.295-1.914-1.226-.589-1.816zM134.359 158.806c1.325-.491 1.915 2.013.785 2.209-1.08.246-2.11-1.669-.785-2.209zM136.765 156.106c1.227-.589 2.111 1.031.933 1.325-1.031.197-2.308-.736-.933-1.325zM139.71 159.002c1.276-.589 2.111 1.031.982 1.228-1.08.294-2.307-.786-.982-1.228zM178.343 159.444c0-.736 1.08-.442.982.196-.099.688-.197 1.08-.393 1.08-.294.001-.686-.49-.589-1.276zM175.742 158.414c0-1.08 1.276-2.013 1.375-.884 0 1.178-.099 1.915-.197 2.602-.098.687-.883.491-.883-.196 0-.59-.295-.59-.295-1.522zM140.496 155.223c0-.098 0-.098.098-.196.196-.442 1.227-.246 1.816.196.491.393.688.982 0 1.571-1.227 1.129-2.111-.589-1.914-1.571zM135.881 165.581c0-.147.196-.442.589-.442.294 0 .589.294.589.442 0 .294-.294.491-.589.491-.393-.001-.589-.197-.589-.491zM149.626 163.568c0-.196.196-.442.54-.442.294 0 .589.246.589.442 0 .294-.295.491-.589.491-.344 0-.54-.197-.54-.491zM140.496 164.648c1.325-.589 1.423.687.294.834-1.08.295-1.522-.245-.294-.834zM154.535 162.537c1.277-.589 2.111 1.031 1.08 1.325-1.178.197-2.406-.736-1.08-1.325zM160.328 165.875c.441-.442 1.816 2.013.834 2.405-.932.491-1.424-1.914-.834-2.405zM146.042 160.033c.393-.883 3.289.491 1.865 1.62-.491.491-1.031.638-1.571.098-.44-.441-.588-1.178-.294-1.718zM142.41 161.015c1.326-.589 1.178 1.375.197 1.62-1.424.197-1.228-1.129-.197-1.62zM137.157 161.555c1.276-.638 1.718 1.571.54 1.767-1.227.246-1.62-1.227-.54-1.767zM165.678 174.22c2.013-.54 1.718.884.981 1.276-.49.197-2.404-.883-.981-1.276zM167.298 177.019c.688-.196 1.08 1.521.589 1.718-.491.196-2.012-1.424-.589-1.718zM172.207 176.527c.688-.196 2.406 2.209 1.229 2.504-1.032.197-2.554-2.111-1.229-2.504zM162.978 178.736c-.736-.933 1.08-2.307 1.67-1.521.441.785-.786 2.601-1.67 1.521zM156.45 176.233c-.736-.933 1.473-2.455 2.013-1.718.981 1.178-1.032 2.798-2.013 1.718zM161.751 174.417c1.325-.491 2.307 1.178.785 1.62-1.57.392-2.012-1.031-.785-1.62zM110.158 176.92c0-.294.196-.491.491-.491.393 0 .589.197.589.491s-.197.491-.589.491c-.295 0-.491-.196-.491-.491zM176.822 178.344c0-.245.196-.442.589-.442.245 0 .54.197.54.442 0 .196-.295.491-.54.491-.393 0-.589-.295-.589-.491zM152.916 176.331c0-.294.294-.442.588-.442.394 0 .59.147.59.442 0 .295-.196.491-.59.491-.295 0-.588-.196-.588-.491zM131.659 178.442c0-.294.196-.442.589-.442.294 0 .589.147.589.442s-.294.491-.589.491c-.393 0-.589-.197-.589-.491zM133.377 175.398c0-.196.196-.491.589-.491.295 0 .491.294.491.491 0 .294-.196.491-.491.491-.392 0-.589-.196-.589-.491z"/><path d="M152.179 82.521c0-.294.195-.491.441-.491.295 0 .49.196.49.491s-.195.491-.49.491c-.245 0-.441-.196-.441-.491zM147.417 82.914c0-.295.294-.491.54-.491.294 0 .491.196.491.491 0 .245-.196.54-.491.54-.246 0-.54-.295-.54-.54zM165.58 87.234c0-.294.197-.491.491-.491.196 0 .491.197.491.491 0 .246-.295.442-.491.442-.294 0-.491-.197-.491-.442zM162.634 84.534c0-.294.246-.589.541-.589.294 0 .49.294.49.589s-.196.491-.49.491c-.295 0-.541-.196-.541-.491zM158.953 82.227c0-.294.295-.491.59-.491s.49.196.49.491-.195.491-.49.491-.59-.197-.59-.491z"/><path fill="#FFF" d="m140.643 310.395 61.902 2.062c1.964.049 1.669-.883 1.08-2.258l-1.768-3.928c-.49-1.227-1.473-1.767-2.748-1.816l-60.037-2.945c-2.111-.098-1.915 1.129-1.571 2.651l.933 4.124c.441 1.373.49 2.06 2.209 2.11zM135.586 307.989l-.933-4.025c-.442-2.013-.933-2.553-3.093-2.307l-15.512 1.914c-1.522.196-2.405 1.275-2.553 2.848l-.393 3.682c-.196 1.963.246 2.307 2.209 2.11l18.801-2.062c1.622.049 1.72-.933 1.474-2.16zM135.979 324.14l-2.356-8.689c-.491-1.963-.786-2.553-2.896-2.307l-20.52 2.405c-1.521.147-1.669.786-2.013 2.013l-1.669 9.965c0 1.277.049 2.014 1.816 1.816l26.116-2.65c1.915-.197 2.062-.541 1.522-2.553zM137.354 329.098l-32.35 3.338c-1.228.147-1.326.394-1.375 1.571-.049 1.178.491 1.129 1.423 1.08l33.135-2.75c1.522-.195 2.062.295 1.964-1.473-.049-.294-.049-.588-.098-.834-.097-1.472-1.521-.982-2.699-.932zM210.693 315.45l-72.848-2.454c-2.013-.049-1.768.981-1.375 2.504l2.503 9.327c.589 1.473.638 1.521 2.356 1.57l73.831 1.768c1.423.049 1.423-.54.981-1.669l-2.848-7.903c-.538-1.424-.735-3.093-2.6-3.143zM216.24 332.239c.688-.639 1.277-1.129-.049-1.325l-71.867-1.718c-1.031.098-1.521.098-1.375 1.423.197 1.669-.196 1.474 1.571 1.474l69.609 1.079c1.326 0 1.228-.099 2.111-.933zM94.646 338.277c.785.786.834.736 1.62.245l3.731-2.16c.638-.49.688-.441.834-1.227-.049-.884.147-1.424-.933-.834l-4.909 2.748c-.687.393-1.031.492-.343 1.228zM87.724 330.864c1.178 1.326 2.356 2.651 3.583 3.928.491.54 1.031.589 1.718.246l7.953-4.468c1.767-1.129 2.307-.786 2.7-2.503l1.473-8.936c.294-1.816-.883-1.129-1.718-.539l-15.365 9.965c-1.227.835-1.473 1.081-.344 2.307zM108.784 306.762c-8.542 5.646-17.034 11.29-25.576 16.937-.982.687-.933.785-.098 1.865 1.031 1.178 1.227 2.258 2.602 1.325l20.814-13.401c1.375-.884 3.535-.736 3.829-2.896l.196-2.307c.147-1.473.196-2.848-1.767-1.523zM150.755 294.98c0-.835-.491-1.522 1.374-3.731 1.669-2.209 4.075-5.547 7.511-5.547.934 0 1.424.639 1.228 1.129-.099.59-.638 1.228-.344 2.602.344 1.326 2.749 5.057 4.319 6.234 1.522 1.229 3.83 2.603 6.383 3.045.736.146 2.258.932 1.275 1.717l-21.648-1.079c-2.552-.492-.098-3.289-.098-4.37z"/><path fill="#FFF" d="M184.038 232.244c.442-6.234.933-12.714 1.031-18.997 0-1.522-1.325-.885-2.603 0-1.129.785-1.816 1.129-1.914 2.404V227.138c0 9.475-.196 18.851-.54 28.275-.147 3.78-.343 7.511-.343 11.291v1.718c0 1.816.146 3.535.244 5.008.148 2.748.295 4.319-1.275 6.872-1.521 2.405-4.32 3.534-5.842 4.025-1.57.491-3.387.785-4.516 2.013-1.179 1.276-2.603 1.178-4.32 1.473-1.719.245-1.816 1.521-1.326 2.355.442.885 2.945 3.977 5.449 5.695 2.504 1.619 3.143.393 5.203 1.718 1.473.981 2.111 2.356 2.848 2.995l3.437.195c.196-.245.196-.736.294-1.57.147-.884.541-10.947 1.129-19.537.541-8.395 1.129-16.789 1.67-25.184.49-7.411.882-14.823 1.374-22.236z"/><path d="M190.517 32.548h-54.243l27.932 27.146 5.399-5.596-4.663-4.32 9.474-9.425 8.738-.196 7.363-7.609zm-25.968 7.854-4.712 4.762-5.007-4.664 9.719-.098zM41.482 64.456v33.283l6.823 6.627v-10.8l43.396 40.941 5.841-5.989-49.237-47.126v-9.916zM41.482 169.164v17.132l22.041-22.679zM97.395 32.548H66.468l64.553 61.411 5.842-6.038-26.165-24.938.589-.883 36.424 14.678 5.498-5.744-37.455-15.66.246-.49s2.602-4.909 0-7.707c-2.504-2.798-8.64-8.689-10.702-10.702-1.914-2.013-5.154-3.78-7.903-3.927zm-9.916 8.149c1.914-.098 4.811-.294 6.578-.294 2.749 0 4.811.786 6.038 1.865 1.178.982 6.48 6.087 7.363 6.824.933.786 1.522 2.307.098 3.976-1.08 1.276-2.798 2.7-3.583 3.485L87.479 40.697zM126.947 32.548h-11.782l39.321 37.161 5.449-5.646zM48.305 52.773V37.899l66.271 63.178-7.216 7.609-59.055-55.913zm5.94-20.225H41.482v25.134l65.093 61.46 18.212-18.899-70.542-67.695zM41.482 105.25v12.125l34.706 32.792 5.891-5.891zM41.482 125.523v10.702l16.396 15.022-16.396 4.319v7.855l30.632-8.689z"/></svg>