<svg xmlns="http://www.w3.org/2000/svg" width="400" height="400" version="1.0" viewBox="0 0 595.27557 841.88977"><path fill="#fff" stroke="#0053a0" stroke-width="21.127" d="M706.97 420.94c0 226.08-183.26 409.34-409.33 409.34S-111.7 647.02-111.7 420.94c0-226.07 183.27-409.33 409.34-409.33 226.07-.003 409.33 183.26 409.33 409.33z"/><path fill="#0053a0" fill-rule="evenodd" d="M-80.881 425.78c-2.645-209 164.7-380.64 373.71-383.29 209-2.646 380.64 164.71 383.29 373.71 2.64 209-164.71 380.64-373.71 383.28-209 2.65-380.64-164.7-383.29-373.7h-.001zm373.65-388.01c-211.61 2.679-381.05 176.46-378.37 388.07 2.681 211.61 176.46 381.04 388.07 378.37 211.61-2.68 381.04-176.46 378.37-388.07-2.68-211.61-176.46-381.05-388.07-378.37z"/><path fill="#0053a0" fill-rule="evenodd" d="M283.74 169.4c-46.47-.11-100.46 18.31-136.75 48.35-.12.08-.12.4.13.53 20.75 8.23 34.98 19.15 57.16 31.57.8.44 1.08.25 1.25-.47 10.73-54.5 77.26-39.38 83.47-79.12-.27-.27-.23-.76-.8-.79-1.47-.04-2.97-.06-4.46-.07zm27.67.07c-.46 0-.61.19-.59.92-2.79 7 5.41 14.29 10.19 19.01.46.43 1.22.93 1.79 1.18 29.7 12.09 62.57 21.02 69.77 55.18.15.53.25.87.8.4 15.83-10.5 31.53-21.15 47.55-31.25.82-.34.52-.72 0-1.05-36.2-25.74-81.43-42.49-129.51-44.39zM126.2 235.05c-28.961 25.68-53.811 59.27-66.753 97.01-.145.37.076.54.592.59 28.34 2.56 37.6-34.4 59.321-48.14.29-.17.55-.32.53-.67-1.54-16.84-2.28-31.03 6.31-48.79zm349.59 8.08c1.6 13.07.38 25.47-3.09 37.55-.15.57-.13 1.01.52 1.45 20.94 11.2 32.29 43.91 56.49 45.19.3.13.76.15.59-.25-8.4-29.19-32.56-63.73-54.51-83.94zm62.28 103.07c-29.7 29.78 18.5 79.68-46.89 107.53-5.77 1.7-11.31 3.72-16.53 3.74-14.54.07-35.23-11.02-35.1 11.05 0 .4.36.68.84.87 20.2 8.65 47.5 27.4 47.94 56.3.99 34.45-35.27 57.65-29.52 90.37 77.49-67.01 109.36-165.95 79.26-269.86zm-484.42 4.92c-.25.07-.433.34-.659.87-29.345 80.19-.511 204.85 89.508 270.7.02-1.7 1.01-5.24 2.04-7.62.38-.92.32-2.1 0-3.22-3.3-14.5-11.95-29.12-20.18-43.35-28.392-47.13-12.63-79.45 33.21-100.42.59-.19.72-.52.4-1.13-.71-1.56-1.41-3.1-2.1-4.68-.21-.42 0-1.26-1.05-1.11-10.28 1.28-21.85 2.19-32.31 1.72-15.74-3.51-30.772-9.78-42.091-26.45-20.264-28.29 7.488-66.34-25.979-85.1-.277-.16-.538-.27-.789-.21zm424.37 115.91c.76 0 1.54.11 2.3.32 10.16 1.85 25.53 7.83 34.66 19.13.59.73.32 1.34-.59 1.26-14.67-.44-31.15-2.06-42.56-11.05-1.62-1.28-3.11-2.55-1.97-5.6.84-1.93 3.53-3.41 5.78-3.81.82-.14 1.6-.27 2.38-.25zm-362.87 5.98c.82-.02 1.62 0 2.44.06.68.08 1.37.08 1.83.53 2.82 3.36 2.26 8.06-3.01 11.7-11.13 7.13-24.032 7.53-35.916 8.04-.465.02-1.279-.49-.46-1.26 10.828-9.92 22.806-18.95 35.116-19.07zm201.21 135.16a.619.619 0 0 0-.46.13c-9.12 4.33-23.45 6.44-31.51 1.91-.97-.48-1.54-.12-1.92.44-14.48 24.52-48.89 23.94-73.32 17.71-18.15-4.09-35.91-9.27-50.58 5.26 76.38 55.08 194.12 56.8 282.49-3.81-16.67-7.87-31.8-2.21-50.13 2.04-20.75 4.82-49.88 9.18-73.39-23.15-.4-.11-.76-.51-1.18-.53zm-15.26 5.52c.21.02.44.04.72.06 2.65.31 4.16 1.66 5.78 3.49.78 1.03 1.06 2.23.93 3.5-.44 11.32-2.38 22.77-6.19 32.68-.08.47-.42.57-.59 0-4.42-13.95-11.97-28.07-2.44-39.06.61-.53 1.12-.7 1.79-.67zM325.56 63.904c2.27 2.997 4.54 6.333 3.74 9.93a1974.228 1974.228 0 0 1-9.4 49.266c-.59 3.66-3.25 5.23-5.92 7.69 18 3.27 51.67 9.63 69.73 13.03-.48-7.13 4.97-11.3 7.16-17.76-6 4.2-13.66 5.74-20.78 4.21-7.41-1.4-25.76-5.05-33.15-6.58 1.2-5.73 1.96-11.57 3.29-17.3 7.2 1.27 18.79 4 25.97 4.87 6.12 1.45 10.75-7.05 14.08-11.05-2.34.53-6.74.8-9.13.26-7.54-1.463-21.09-4.317-28.63-5.85.67-5.463 1.83-10.851 2.97-16.181 12.92 3.397 39.93 4.664 49.52 15.523.32-5.995-3.07-13.443.34-17.429-17.85-3.465-51.94-9.299-69.79-12.629zm-8.61.263c-17.2.08-50.16 1.89-67.35 2.105 3.68 6.053-1.79 11.368-1.92 17.429 5.83-5.289 20.38-6.872 27.95-6.642-.02 16.591 1.69 33.251 1.92 49.791.1 3.13-2.34 5.12-4.34 6.38 7.48-.08 19.3-1 26.31-1.12-3.45-3.17-5.2-3.43-5.26-7.89-1.22-15.27-1.83-33.072-2.25-48.281 7.74-.564 21.97.825 28.29 4.67-.03-6.68-6.49-13.324-3.35-16.442zm-75.24 4.473c-10.99 2.397-35.47 4.119-44.94 11.313-11.32 7.859-13.93 25.297.74 32.947 9.24 3.78 26.77-.33 35.9.4 6.28.26 8.93 8.96 4.8 13.22-8.92 7.93-33.15 7.93-43.73 4.73 2.59 6.07 5.49 11.31 8.23 17.3 3.6-2.26 9.99-2.82 14.06-3.55 8.67-1.26 29.21-6.82 35-13.81 6.92-8.13 7.26-19.91.52-27.36-6.06-6.64-24.83-5.467-32.81-4.935-4.55 0-8.31 1.605-12.63-.526-3.68-2.532-3.47-8.853.65-10.985 7.92-4.196 25.87-4.845 34.14-1.448-.48-5.794.26-11.502.07-17.296zm177.04 14.798c1.48 3.664 2.34 7.124.59 10.589-6.52 14.053-13.93 28.003-20.83 42.163-1.94 4.13-4.42 6.75-9.01 8.48 6.12 3.13 16.63 8.38 22.81 11.51-2.59-9.46 3.83-17.95 7.5-25.58 3.53 1.93 13 6.35 15.32 10.19 3.11 5.26 3.87 10.66 4.54 16.11.3 4.93.7 8.65-4.39 10.4 7.15 2.91 18.39 8.9 25.04 12.1-5.28-10.88-2.02-25.68-9.07-36.37 4.59.2 12.29.97 17.17-2.04 8.82-5.17 10.97-13.35 7.96-24.14-1.66-5.68-7.24-8.92-11.98-11.18-11.32-5.6-34.32-16.703-45.65-22.232zm-257.89 7.234c-15.78 8.861-46.11 24.018-61.684 33.148 4.064 1.07 6.884 2.59 8.814 6.12 7.79 13.99 15.56 27.97 23.28 41.96 2 3.47 1.39 7.65-.19 11.51 16.19-8.99 46.5-24.75 62.74-33.67-5.07-2.88-1.85-12.49-3.89-18.81-1.6 5.52-7.3 10.54-11.95 13.94-7.54 5.06-25.24 14.08-33.09 18.55-2.86-5.07-5.77-10.26-8.48-15.46 6.12-3.8 20.31-10.08 26.31-14.07 3.51-4.4 1.45-10.75 2.23-15.92-1.54 1.86-3.54 3.54-5.73 4.67-6.58 3.66-21.02 11.66-27.69 15.26-2.53-4.8-5.56-9.35-7.75-14.34 12.19-5.53 34.05-20.33 47.94-19.54-3.47-5.058-9.05-7.352-10.86-13.348zm272.16 12.758c6.02 3.01 14.86 6.94 20.33 9.93 14.51 7.54 4.19 23.31-6.31 17.37-6-2-16.5-7.93-22.35-10.33 2.52-5.86 5.74-11.11 8.33-16.97zM84.91 134.41c-1.667 2.4-3.85 4.59-6.447 5.99-8.677 4.04-24.223 18.06-27.952 26.9-5.197 10.12-5.142 19.43.985 31.24 6.983 13.93 16.884 20.39 32.031 20.39 15.047-.93 28.597-14.11 34.787-22.23 3.41-3.93 6.72-8.26 11.72-10.46-4.2-4.66-8.62-9.08-12.9-13.68-1.53 5.59-4.23 10.4-7.89 15.06-5.41 6.14-13.806 15.79-23.349 15.33-9.545-.47-12.582-5.02-16.838-9.67-4.255-4.65-7.183-10.08-6.444-18.42.738-8.34 17.271-23.74 29.205-24.2-2.737-5.2-4.168-10.99-6.908-16.25zm-58.077 56.1c-4.355 5.62-12.094 15.39-16.707 20.8 4.283-.63 8.183-.27 11.445 2.29 12.525 9.75 25.033 19.6 37.489 29.41 3.199 2.42 4.645 6.04 5.064 10.18 4.609-5.49 12.03-15.11 16.509-20.46-3.879.51-7.657.72-10.654-1.7-12.723-9.81-25.231-19.78-37.884-29.66-3.461-2.63-5.391-6.19-5.262-10.86zm-29.729 37.76c-7.937 16.31-24.36 46.62-32.162 62.93 4.329-1.72 7.581-1.41 11.509.59 14.118 7.07 28.306 13.94 42.422 20.92 3.464 1.75 6.497 5.22 7.892 8.82 7.87-16.58 22.39-45.92 31.441-62.36-1.865 0-3.734-1.56-5.064-2.88-3.73-3.54-5.612-7.58-9.406-11.05 1.056 6.58.105 14.46-2.764 20.85-3.334 7.12-12.186 24.38-15.52 31.51-5.529-1.87-9.801-5.05-15.128-7.45 2.668-6.38 10.55-20.84 13.284-27.15.03-3.7-4.369-9.95-7.496-14.42-.135 2.4-1.169 4.84-2.303 7.05-3.401 6.93-11.067 22.27-14.535 29.13-4.862-2.46-11.187-4.84-16.048-7.24 3.401-6.92 11.988-24.24 15.522-31.1 2.734-5.39 7.164-9.9 12.628-12.63-5.662-2.28-9.412-1.58-14.272-5.52zm10.193 90.69c2.267 3.67 2.761 9.88 2.896 14.27.598 8.28-4.26 23.98-5.527 32.04-15.253-2.99-30.587-6.67-45.777-10-4.195-.8-5.887-4.17-8.352-7.77-1.599 6.87-4.323 19.85-5.787 26.78 3.064-2.26 5.348-4.02 8.945-3.22 16.252 3.41 32.418 6.98 48.606 10.65 3.73.8 7.471 3.64 9.403 7.17 3.465-15.72 9.955-44.45 13.352-60.25-1.664.14-3.4.42-4.866-.51-4.73-2.61-8.096-6.69-12.893-9.16zM7.487 453.67c-2.286 3.28-5.563 5.97-9.471 6.71-14.869 4.21-30.724 7.43-47.684 11.51-3.404 1.22-5.464-.21-8.682-2.69 1.504 6.88 3.822 18.1 5.459 24.98 6.039-8.46 17.282-8.14 26.176-11.11 2.113 7.13 4.599 22.08 6.973 29.06 3.732 3.88 9.928 4.42 14.798 6.13-1.265-1.9-3.643-5.94-4.012-8.23-1.727-7.54-4.985-21.93-6.71-29.4 5.69-1.27 11.265-2.95 17.036-3.75 3.054 11.93 10.208 34.14 4.67 45.52 5.808-1.85 10.597-8.25 15.785-6.9-3.42-16.02-11.182-45.67-14.339-61.83zm.789 72.94c-1.898-.06-3.812.11-5.723.32-12.876 2.76-24.839 9.11-30.32 22.56-7.223 18.76 7.044 47.61 26.178 54.66 12.304 4.4 24.474 1.1 33.608-5.72 8.484-5.81 14.238-15.52 14.011-28.54-.532-14.69-8.745-29.26-20.719-37.55-5.695-4-11.336-5.58-17.035-5.73zm-.526 16.38c7.101-.04 14.314 1.77 19.205 9.07 6.08 7.56 7.926 18.18 3.618 24.54-6.12 8.04-15.985 12.84-26.374 12.42-11.296-.4-22.741-14.86-19.403-28.73 3.174-11.3 15.994-16.73 22.954-17.3zm44.529 54.66c-2.776.08-5.48.63-8.158 1.64-12.85 4.74-22.278 13.03-26.043 27.23-5.28 19.43 15.97 44.94 36.04 48.54 12.885 2.17 24.293-2.48 32.093-10.8 7.345-7.2 11.912-17.97 9.408-30.77-3.094-14.37-14.71-26.69-27.951-32.75-5.84-2.17-10.765-3.26-15.39-3.09zm6.379 15.72c5.618.02 10.726 2.27 14.535 6.25 7.036 6.5 10.353 14.48 7.104 22.94-4.473 9.94-12.784 16.36-23.087 17.77-11.193 1.55-25.66-13.26-24.14-25.47 1.824-11.2 9.129-15.77 15.13-18.94 3.555-1.73 7.086-2.57 10.458-2.55zm49.992 29c-.11 6.4-6.67 4.51-11.853 12.57 7.783-.78 20.833 6.16 26.923 10.71-9.05 13.74-18.46 27.17-27.638 40.77-1.705 2.86-4.694 3.18-7.83 3.43 5.725 3.96 16.118 10.9 21.848 14.86-1.14-4.57-.72-8.36 1.77-12.1 8.1-11.98 16.31-23.93 24.39-35.97.46-.49.84-1.62 1.73-1.33 6.63 3.6 16.98 12.61 19.32 19.87 2.78-5.35 2.25-13.89 7.36-15.98-14.08-9.7-41.88-27.34-56.02-36.83zm59.52 39.78c2.06 3.75 1.53 8.04.33 11.98-4.6 15.4-10.46 29.25-15.07 44.6-1.03 3.72-3.36 5.93-8.08 7.03 14.61 4.63 31.57 10.81 47.02 15.53 16 5.18 30.37 1.32 32.1-15.47 1.01-9.64-9.26-14.1-13.28-16.25 10.58 1.31 17.7-4.34 18.27-14.27.9-7.07-5.54-14.8-20.12-19.53-10.46-3.41-30.63-10.67-41.17-13.62zm221.39 12.1c-6.78 1.75-18.12 6.49-24.79 8.76 3.72 1.6 6.29 2.69 7.55 6.44 4.76 14.46 10.51 27.95 15.45 42.37 1.35 4.54 3.01 9.68.53 14.14 15.36-4.73 42.01-14.35 57.23-19.4-.87-1.27-2.19-2.3-2.11-3.9-.38-5.43.99-9.83.53-15.32-3.52 7.32-11.26 11.07-19.14 14.14-4.44 1.43-16.92 6.99-21.32 7.43-4.86-14.63-10.65-30.03-15.57-44.66-1.35-3.79-.36-6.44 1.64-10zm-206.91 4.8c5.62 1.98 21.63 5.64 27.09 7.92 7.61 3.15 2.67 16.79-5.27 15.04-5.57-.9-21.21-5.28-26.43-7.24 1.47-5.24 2.99-10.52 4.61-15.72zm74.5 7.92c.49 1.01.19 3.47-.65 4.58l-28.6 48.41c-2.55 4.15-4.95 6.04-8.5 8.76 6.52 1.01 17.8 4.25 24.35 5.51-2.11-4.59-1.92-10.27 1.49-14.65 10.1.89 28.98 2.26 39.02 3.48 2.04 4.77 4.65 10.5 0 14.86 6.65-.05 18.25-.3 24.73.14-2.92-3.47-5.76-6.96-6.98-11.45-3.04-8.96-14.34-42.24-17.89-52.55-.61-1.87.21-4.19.27-4.4l-27.24-2.69zm75.58.37c-7.3 1.2-19.72 2.64-26.7 3.5 3.32 2.33 5.78 3.77 6.25 7.7 1.72 15.11 4.77 29.59 6.71 44.71.4 4.73.48 10.81-2.84 14.67 16-1.52 45.44-6.3 61.37-8.15-.61-1.41-1.64-2.74-1.24-4.27.72-5.41 2.74-10.06 3.41-15.53-5.28 6.04-12.92 9.28-21.24 10.73-4.77.8-18.69 3.05-23.02 2.95-1.81-15.33-4.46-31.51-6.32-46.83-.52-4 .95-6.4 3.62-9.48zm-63.87 11.26 11.66 31.76c-7.29-.42-21.22-1.28-28.5-2.1l16.84-29.66zm-93.39 6.26c6.69 2.61 17.79 6.37 23.74 8.67 13.03 4.54 9.6 22.01-6.19 16.58-7.09-2.25-16.54-5.2-23.27-7.76 1.62-5.73 4.1-11.71 5.72-17.49zM525.04 156.44c-10.31-.44-17.13 2.4-24.33 8.49-8.06 7.33-13.55 15.84-13.49 28.61.27 10.06 11.26 25.87 24.48 34.21 3.72 2.75 9.62 6.18 10.18 10.77 4.38-4.48 8.95-8.9 13.43-13.09-10.73-3.22-28.9-13.64-31.51-25.64-1.66-9.55.68-12.67 4.74-17.89 7.58-9.15 15.26-12.46 26.77-9.28 10.29 4.1 19.51 16.99 20.31 26.38 5.35-2.8 10.42-5.03 15.85-7.76-4.31-2.67-6.21-5.87-9.13-9.74-6.32-9.21-18.21-22.36-32.63-24.66-1.62-.19-3.2-.33-4.67-.4zm56.76 49.14c-.21 6.74-3.76 8.82-8.6 12.42-11.75 8.04-22.88 16.23-34.6 24.02-3.33 2.12-7.64 4.84-12.38 2.56 3.81 5.92 11.34 15.92 15.2 21.77.4-6.04 3.64-8.78 7.3-11.18 12.67-8.46 24.58-17.59 37.29-25.97 3.67-2.48 5.77-3.56 10.65-1.92-3.78-5.78-11.05-15.91-14.86-21.7zm22.5 31.7c-3.51 5.3-11.3 2.08-16.83 4.21 6.73 3.79 14.16 15.95 16.96 23.09-15.05 7.05-27.49 13.38-42.56 20.52-2.86 1.45-7.38.53-10.31-.59 3.11 6.31 8.31 17.41 11.43 23.68 1.66-4.86 6.52-8.99 11.05-10.99 13.47-6.12 24.56-12.04 38.16-17.82 3.45 6.79 9.24 19.57 7.3 27.23 5.2-3.14 7.75-9.98 13.68-9.34-7.2-15.6-21.61-44.41-28.88-59.99zm32.69 67.48c-1.43 6.54-7.37 10.31-11.05 15.19-7.37 8.61-16.23 18.31-24.86 27.03-2.06 1.93-7.17 2.54-10.27 3.24-6.42.93-9.41 1.68-14.33-2.44 1.54 6.92 4.06 19.26 5.45 26.18 2.74-4.15 5.66-6.59 11.05-7.96 4.8-.86 9.05-2.71 12.5-1.2 15.75 8.57 45.3 20.78 49 24.61l-5.39-25.85c-1.75 2.53-3.81 3.75-5.91 2.95-9.45-3.66-20.67-8.88-28.69-11.95 5.87-6.82 12.73-13.41 18.94-19.87 2.7-3.29 6.4-4.59 9.68-1.39l-6.12-28.54zM599.63 457.29c-2.99.08-6.38 1.15-10 3.55-5.15 4.53-7.05 11.62-8.75 17.96-2.32 10.71-8.08 32.72-10.19 43.46 3.56-2.86 6.63-3.18 10.65-2.3 15.72 3.39 31.38 6.95 47.04 10.34 3.79.73 6.59 3.7 8.74 7.03 2.31-14.9 11.57-45.19 11.32-60.39-.3-12.46-11.85-20.41-22.9-17.82-6.27 1.76-9.79 9-11.18 14.08-.02-7.56-5.76-16.15-14.73-15.91zm.06 18.07c4.61.03 8.87 4.28 7.64 9.62-1.22 5.56-3.43 17.26-4.79 22.76-5.35-1.08-10.91-2.28-16.19-3.5 1.52-5.74 2.95-13.89 4.46-19.72 1.52-6.61 5.31-9.16 8.88-9.16zm28.82.99c4.8.17 9.2 4.99 8.14 10.86-1.49 7.06-4.21 20.08-5.51 27.03-5.83-1.18-11.87-2.59-17.76-3.75 1.49-7.07 3.78-17.26 5.66-24.33 1.74-7.24 5.72-9.93 9.47-9.81zm-58.93 49c-4.42 7.94-8.46 15.51-13.09 23.55 3.51-1.68 6.98-1.87 9.87-.33 10.27 5.43 19.02 10.52 29.19 16.18 3.93 2.27 8.19 6.5 8.63 12.1-.17 7.5-5.35 16.57-12.25 19.62-4.99 2.34-10.67-.06-14.46-2.25-9.32-5.6-16.67-9.58-25.99-15.26-3.22-1.85-6.09-3.22-6.38-9.2-4.46 7.56-8.48 15.83-13.16 23.62 6.21-2.78 10.49-.93 14.95 1.83 8.29 4.77 15.19 8.77 23.4 13.55 6.27 3.56 12.55 5.91 21.11 4 7.39-1.71 13.66-8.86 18.17-16.23 4.77-7.72 8.96-16.71 8.48-25.25-.42-8.82-5.79-14.84-11.77-18.82-9.76-5.91-17.51-9.98-27.36-15.72-3.79-2.28-9.22-5.71-9.34-11.39zm5.38 90.9c-.21 7.43-4.37 16.17-9.66 22.23-2.67 3.58-11.26 13.32-14.73 17.05-11.76-9.98-22.46-19.03-34.26-28.94-3.12-2.57-5.58-6.15-5.73-10.21-4.88 5.03-11.47 12.5-15.99 17.89 4.04-.57 7.83 1.39 10.86 3.96 11.57 9.87 22.79 19.99 34.53 29.71 3.52 3.2 5.33 6.3 5.52 11.39 10.65-12.02 30.41-34.73 40.79-46.95-1.41-.61-3.29-.83-4.09-2.51-3.07-5.6-3.99-9.18-7.24-13.62zm-81.49 19.41c-3.3 4.33-9.91 6.84-14.67 8.94-10.29 4.91-24.73 16.65-27.74 30.4-2.4 11.85.21 21.42 6.76 30.05 6.48 8.76 14.65 13.85 25.93 14.14 12.62-.12 26.07-8.23 36.03-18.35 3.28-3.28 7.3-7.79 12.1-8.16-4-4.76-7.34-10.13-11.7-14.67-2.82 8.69-16.4 22.96-25.59 25.46-8.11 1.83-13.54-.36-19.47-5.47-6.59-6.82-10.69-15.22-7.96-25.05 4.06-12.67 20.88-21.95 31.45-20.12-1.92-5.66-3.37-11.72-5.14-17.17z"/><path fill="#0053a0" fill-rule="evenodd" d="M299.52 171.64c-1.34 3.86-2.25 8.95-3.15 13.42-.19.98-.68 1.65-1.27 2.36-29.93 30.12-66.91 21.35-80.69 65.52-1.56 3.73.42 7.68 7.09 11.37.67.4 1.26.23 1.26-.47-1.68-47.96 63.12-44.72 77.29-78 .15-.34.63-.25.78 0 11.91 22.22 31.59 25.13 49.58 35.53 13.47 7.77 23.18 14.82 25.93 36.89.09 1.04.38.85.91.32 2.04-2.25 6.99-3.41 6.84-6.78-4.36-32.56-40.22-39.59-68.99-53-1.2-.92-2.42-1.84-3.62-2.76-6.02-7.12-10.61-15.15-11.96-24.4zm-.52 40.72c-.32.02-.59.09-.87.25-.31.15-.61.47-.78.8-.16.3-.1 1.25 0 1.9.11.42.49.65.72.92.48.59.9.93 1.52 1.39.77.51 1.72-.12 1.89-.73.23-1.06.23-2.23 0-3.16-.06-.34-.32-.55-.53-.86-.29-.32-.61-.49-1.11-.51-.21-.02-.55-.04-.84 0zm9.78 9.07c-.1.02-.14.04-.25.13-.19.15-.34.4-.34.65-.02 1.31-.61 3.22.59 3.9.59.27 1.33.37 1.79-.15.23-.38.68-.51.65-1.18 0-.32-.44-.42-.58-.78-.19-.53-.09-1.47-.28-1.85-.17-.28-.34-.55-.65-.59-.32-.06-.61-.21-.93-.13zm-18.01.19c-.87.3-1.79.93-2.11 2.04-.38.66-.36 1.18 0 1.58.46.68 1.03 1.48 1.83 1.85.68.32 1.56.32 1.86-1.13.33-1.2.35-2.89-.19-3.35-.7-.5-.53-1.2-1.39-.99zm9.53 15.85c-3.83 11.53-4.82 17.34-7.55 26.52 5 .04 7.76.06 11.36.13-2.93-10.46-3.07-14.61-3.81-26.65zM123.51 294.44c-.17 0-.38.09-.59.26-26.67 18.81-33.91 52.15-68.208 46.64 24.345 11.38 23.758 39.36 26.241 65.31 2.097 21.86 18.812 51.31 63.877 45.18.5-.04.84-.44.52-.92-2.88-4.11-12.54-2.76-14.94-3.16-35.675-6.69-41.716-39.5-49.126-76.63-1.724-10.73-8.686-17.51-12.959-25.57-.309-.82-.587-1.08.461-1.27 22.729-4.35 39.864-24.07 58.084-45.04.38-.23.45-.75 0-1.13-1.03-1.03-1.97-2.17-2.9-3.41-.17-.17-.27-.28-.46-.26zm-3.41 43.15c-.32.02-.66.09-.93.25-.32.15-.61.47-.8.8-.15.3-.08 1.25 0 1.9.13.42.57.65.8.92.48.59.91.93 1.52 1.39.77.51 1.66-.12 1.83-.73.23-1.06.23-2.23 0-3.16-.07-.34-.32-.55-.53-.86-.29-.32-.61-.49-1.11-.51-.22-.02-.49-.04-.78 0zm10.25 9.32c-.11.03-.21.07-.32.15-.19.13-.34.38-.34.65-.06 1.29-.73 3.18.47 3.88.57.31 1.3.38 1.76-.13.26-.38.72-.46.72-1.11.02-.34-.38-.43-.5-.8-.17-.53-.09-1.48-.28-1.84-.15-.29-.33-.61-.65-.65-.32-.08-.55-.21-.86-.15zm-18.15 1.39c-.86.3-1.79.99-2.1 2.11-.38.65-.36 1.11 0 1.51.44.68 1.09 1.48 1.89 1.84.68.33 1.56.4 1.86-1.06.33-1.2.29-2.94-.28-3.41-.69-.5-.5-1.2-1.37-.99zm10.53 15.66c-1.41 11.64-5.66 24.94-9.81 33.68 4.84-.65 8.71 2.29 9.01 6.04 1.22-4.25 4.48-7.52 8.35-6.38-2.54-10.56-5.68-21.91-7.55-33.34zM160.8 477.34c-.19.05-.4.11-.65.21-41.3 15.96-49.55 53.04-26.46 85.69 17.35 29.15 25.03 41.16 16.78 64.59 32.28-38.43 89.47 23.74 122.28-24.2.44-.59-.25-.99-.93-1.65-1.6-1.11-3.28-1.85-4.92-2.5-1.22-.46-1.89-.19-2.63.86-13.43 14.15-56.98 11.01-89.91 11.11-1.01 0-4.02.53-5.01 1.06-3.16 1.62-6.36 3.05-9.73 2.75-.9 0-2.27-.48-2.04-2.35 1.64-23.95-12.61-39.17-21.64-58.93-2.82-6.74-23.74-44.54 26.57-67.5.23-.44.71-.7.65-1.37-.15-2.34-.63-4.65-1.31-7.05-.12-.59-.46-.8-1.05-.72zm37.36 45.65c-.32.05-.65.11-.93.26-.31.17-.61.48-.77.8-.15.31-.11 1.26 0 1.91.1.42.54.63.77.91.51.59.91.92 1.52 1.39.78.5 1.75-.13 1.91-.74.21-1.05.24-2.23 0-3.16-.08-.33-.4-.52-.58-.84-.32-.34-.57-.48-1.06-.53-.23-.02-.54-.04-.86 0zm10.4 8.82c-.11.02-.23.04-.34.13-.17.15-.34.4-.32.65-.06 1.31-.73 3.18.45 3.9.59.29 1.24.35 1.72-.15.23-.38.78-.44.78-1.12.02-.31-.44-.4-.59-.78-.17-.52-.02-1.47-.19-1.85-.17-.29-.33-.61-.67-.65-.3-.09-.53-.19-.84-.13zm-18.55 1.12c-.86.29-1.78.99-2.1 2.1-.4.63-.36 1.12 0 1.52.44.67 1.03 1.45 1.83 1.83.67.34 1.56.4 1.83-1.05.34-1.2.38-2.95-.19-3.41-.69-.51-.5-1.2-1.37-.99zm9.48 14.98c-1.41 11.64-5.67 24.94-9.81 33.68 4.84-.65 8.71 2.23 9.01 6 1.22-4.25 4.48-7.47 8.35-6.32-2.55-10.56-5.7-21.91-7.55-33.36zM434.08 477.28c-.21.02-.45.23-.53.46-.91 1.94-1.83 3.79-2.76 5.73-.82 2.19-.86 4.06 2.44 5.11 59.17 24.19 30.04 69.96 14.61 96.82-1.6 2.76-5.43 10.9-5.72 14.48-.59 3.81 0 7.13-.09 11.11 0 .93-1.3 1.18-2.02 1.05-37.88-7.28-70.65 26.19-101.7-9.93-2.86-3.09-6.29-3.39-7.55-2.42-1.37 1.03-2.38 2.17-3.35 3.68-.65.91-.63 1.43.13 2.36 32.28 45.27 80-8.19 120.95 14.33-9.59-23.02 9.31-45.35 20-65.43 23.76-40.37-4.04-65.18-34.2-77.35-.09-.04-.13 0-.21 0zm-31.36 44.85c-.32.04-.59.11-.87.27-.31.15-.61.47-.78.78-.14.32-.1 1.33 0 1.98.11.42.49.59.72.86.48.57.9.93 1.51 1.37.78.53 1.73-.1 1.9-.71.23-1.05.23-2.25 0-3.16-.06-.36-.32-.55-.51-.86-.31-.32-.63-.49-1.13-.53-.21-.02-.55-.04-.84 0zm9.93 9.09c-.11 0-.23.05-.34.13-.19.13-.33.4-.33.65-.05 1.29-.72 3.18.46 3.87.59.32 1.3.38 1.79-.12.23-.38.71-.44.71-1.12 0-.31-.37-.42-.52-.8-.17-.52-.09-1.45-.25-1.83-.17-.29-.28-.61-.62-.65-.29-.08-.61-.19-.9-.13zm-18.35 1.37c-.87.3-1.73 1.01-2.04 2.11-.38.65-.36 1.11 0 1.51.46.68 1.03 1.47 1.83 1.83.67.34 1.55.4 1.85-1.05.34-1.2.29-2.95-.28-3.41-.67-.5-.5-1.2-1.36-.99zm10.06 15.01c-1.39 11.64-5.66 24.94-9.81 33.67 4.86-.65 8.73 2.3 9.01 6.04 1.22-4.25 4.48-7.51 8.35-6.37-2.54-10.57-5.68-21.91-7.55-33.34zM470 293.83c-.12.05-.23.15-.33.28-.45.52-.82 3.41-.93 5.32-.02.4-.02.72.4.99 8.48 5.16 33.89 33.97 56.03 39 .97.21 1.09 1.03.61 1.52-26.33 30.94 5.07 79.26-46.83 97.68-9.64 2.65-19.34 1.39-21.13 7.81-.05.23.27.52.46.52 31.21 1.98 50.68-8.54 56.51-30.83 7.51-24.84-6.63-60.13 20-79.39.67-.51.31-1.39-.28-1.33-26.92 2.74-44.13-25.82-64.13-41.5-.1-.07-.27-.09-.38-.07zm8.55 41.57c-.32.07-.65.17-.93.34-.31.15-.61.46-.78.8-.14.29-.1 1.24 0 1.89.11.42.49.66.72.93.48.59.9.86 1.51 1.3.78.53 1.73-.04 1.9-.65.23-1.05.23-2.23 0-3.16-.06-.33-.32-.61-.51-.92-.31-.32-.63-.49-1.13-.53-.21 0-.49-.04-.78 0zm9.13 10.15c-.1.02-.21.04-.31.12-.19.15-.28.4-.28.66-.06 1.3-.71 3.17.47 3.89.56.29 1.24.36 1.7-.15.25-.38.74-.44.74-1.11 0-.32-.4-.4-.53-.78-.17-.53-.08-1.48-.27-1.85-.15-.3-.28-.61-.59-.66-.32-.08-.61-.19-.93-.12zm-18.79.12c-.87.3-1.73.99-2.04 2.11-.38.65-.36 1.11 0 1.51.44.68 1.03 1.48 1.83 1.83.67.34 1.55.4 1.85-1.05.31-1.2.29-2.88-.27-3.34-.7-.51-.51-1.27-1.37-1.06zm10.12 14.86c-1.39 11.64-5.66 24.94-9.81 33.68 4.84-.65 8.74 2.29 9.01 6.06 1.22-4.25 4.48-7.54 8.36-6.4-2.55-10.54-5.69-21.91-7.56-33.34z"/><path fill="#0053a0" fill-rule="evenodd" d="M452.11 221.75c-.1.02-.21.02-.33.08-23.91 6.76-56.2 34.35-82.8 58.53-.78.89-1.85 1.08-2.72.78-17.68-5.81-38.24-6.56-55.37-7.03-24.44-2.25-53.82.74-80.11 9.26-1.13.4-1.98-.63-2.82-1.64-20.81-23.15-50.13-42.11-81.77-55.31-.88-.42-1.62-.8-2.63.13-16.24 14.98-12.67 59.35 1.27 83.41 1.64 3.49 2 9.61 2.04 11.7.99 12.94 3.51 24.12 6.9 36.18.84 7.49 3.71 15.11 8.02 21.57.84 1.03.48 1.96-.13 2.63-5.51 5.52-10.54 10.74-16.05 16.25-.4.38-1.16.65-1.9.78-4.57.53-6 2.02-8.16 7.3-.32.76-.28 1.29.12 1.92.78 1.45 6.08 10.63 10.46 15.51 4.23 4.19 2.65 8.17-.92 11.98 6.75 5.05 18.83 14.71 19.55 16.18.76 3.89 7.62 5.2 3.53 10.78 1.08.25 1.73.65 2.57 1.32.61.66.74 1.29.8 1.98.55 6.06 1.69 11.56 5.05 17.36 13.68 23.2 29.01 19.62 47.23 39.4 10.9 11.85 21.66 12.32 29.07 33.22-.68 7.93-1.1 12.79 2.17 19.65 3.87 8.38 13.4 8.7 25.65 14.27 1.64.64 2.55 1.14 3.75 2.38 3.2 3.12 6.88 5.12 11.05 7.1 3.37 1.43 7.36 1.43 10.46-.13 5.89-3.37 7.13-.93 18.02-8.76 10.27-3.03 27.04-15.68 25.25-37.21.06-.63.21-1.05.4-1.6.32-.99 1.24-1.98 2.11-2.94 4.14-4.95 8.88-9.33 11.78-15.33.59-1.45 1.1-2.86 2.42-3.95 41-33.47 26.5-18.76 41.32-30.12 30.39-23.11 10.44-50.09 46.03-65.18-4.82-10.21-3.18-11.14 12.5-32.88-8.29-4.38-14.06-9.41-19.81-13.43-18.03-14.14-1.66-26.14-.18-33.08 1.03-3.94 2.58-8.91 2.96-13.94 1.92-11.59.84-25.25 6.76-31.31 4.36-4.21 5.62-27.26 6.31-29.13 4.78-15.05 3.03-17.07 3.9-26.52.14-1.26.59-2.27 0-3.66-3.33-9.18-7.41-18.06-12.11-26.86-.42-.76-.73-1.49-1.32-1.64-.09-.02-.21 0-.32 0zm-14.2 35.4c-1.92 18.88-8.8 31.38-6.65 47.21-8.02 9.85-5.33 28.22-12.7 39.21-.48.63-1.13.99-1.91.92-9.79-1.62-16.65-13.95-24.98-20.92-.85-.67-1.27-1.3-.99-1.97 3.39-7.54 11.17-15.1 5.13-22.76.3-21.95 26.52-25.48 42.1-41.69zm-281.97 3.62c15.38 8.61 25.19 23.07 32.75 23.28 1.18 1.83 2.86 3.72 4.27 5.2 11.32 12.88 2.34 17.68 12.29 34.2 1.08 2.31 1.56 4.56 0 5.97-6.65 5.79-12.56 11.66-18.08 18.02-7.3 8.86-10.86 5.6-13.02 0-1.35-4.15-2.78-8.84-.91-13.62 1.16-2.63.46-4.79-1.52-7.3-2.65-3.72-4.81-7.66-6.9-11.58-.74-1.47-1.22-2.73-1.51-4.58-2.63-16.29-2.15-40.65-7.37-49.59zM347 422.03c1.12-.12 2.11.65 2.24 1.77.12 1.14-.72 2.19-1.84 2.31-1.13.11-2.12-.71-2.25-1.85-.1-1.11.74-2.1 1.85-2.23zm-105.04.19c1.14-.1 2.12.65 2.23 1.79.13 1.12-.72 2.1-1.83 2.23-1.12.13-2.13-.65-2.23-1.77-.13-1.13.71-2.12 1.83-2.25zm169.24 45.72c1.66.02 2.17 1.57 1.98 3.15-1.77 22.31-12.17 16.17-35.93 37.3-6.21 4.96-4.17 9.78-12.55 16.84-7.02 6.56-13.57 13.42-19.55 21.91-.97 1.45-1.68-.09-1.77-.74-.29-1.77-1.34-3.77-2.82-5.39-3.93-4.42 2.34-3.87-4.73-14.46-2.93-4.29-6.32 1.24-8.36-5.72-1.26-4.49-.06-2.28-1.64-12.7l4.15-3.43c1.95 5.56 4.69 10.21 7.68 14.08.44.53-.38 5.22 1.45 9.35.38-6.52 6.21-10.27-2.1-21.97-1.08-1.52-1.64-3.01-2.04-4.8-.05-.19-.09-.34-.13-.53 15.74-10.23 33.36-18.58 49.99-25.47-.85.95-1.67 1.9-2.51 2.91-.38.46.36.63.59.53 1.01-.28 1.49-.15 2.29 0 .53.31.47.86.47 1.36.12 1.94-1.43 2.05-.97 4.21 2.74-3.51 5.35-6.92 8.14-10.12.66-.82 1.52-1.79 2.82-1.64l3.04.4c1.03.04 2.02-.15 3.15-.47 2.68-1.05 4.68-2.35 7.24-4.08.84-.4 1.54-.52 2.11-.52zm-223.5 3.55c.1 0 .27.07.4.13 7.89 3.96 18.65 6.44 24.14 8.75 2.88 1.35 5.98 3.35 8.21 3.69.92.06.92-.44.46-.99a54.53 54.53 0 0 0-1.77-2.63c13.56 6.29 26.12 13.59 39.4 22.37-.04.11-.1.21-.12.32-.38 1.13-.76 2.16-1.14 3.09-.21.53-.44 1.12-.65 1.58-.17.4-.36.82-.53 1.18-.31.67-.63 1.41-.92 1.98-.38.73-.8 1.59-1.12 2.23-.1.25-.21.48-.32.73-.21.47-.44.93-.58 1.37-.11.32-.19.61-.28.93-.04.14-.1.29-.12.46-.09.42-.11.84-.15 1.3-.02.43-.02.87 0 1.33.04.49.06.97.15 1.52.16 1.32.54 1.83.98 2.04.13.06.32.08.47.12.31.07.92.17 1.11-.33.15-.47.38-.93.59-1.37.21-.46.4-.88.66-1.33.48-.88 1.05-1.76 1.64-2.63.12-.19.25-.4.4-.59 1.07-1.51 2.25-2.96 3.34-4.46.11-.15.17-.27.28-.4.44-.65.84-1.32 1.24-1.98l.46-.71c.38-.66.76-1.31 1.05-1.98l8.49 6.31c-1.41 3.45-3.22 8.13-3.75 11.45-.99 7.47-5.58 5.79-9.01 2.95.21 7.7.8 11.01-3.49 17.76-.57.97-1.1.63-1.45 0-10.38-20.01-20.4-15.24-33.53-36.56-1.18-3.09-3.41-6.04-7.71-7.64-16.18-6.37-27.74-10.75-27.36-29.34.02-.33.19-.65.53-.65zm142.72 66.83c.67.04 1.26.61 1.51 1.32 3.27 7.37 7.33 20.33 6 24.52-4.8 18.4-17.76 21.45-29.8 19.87-9.03-1.18-9.07-3.3-9.22-9.34.02-.66.93-.91 1.66-1.12 10.91-3.43 17.47-9.37 17.75-20.71.06-1.54.25-3.16-.53-4.55 3.05-1.95 5.87-3.97 8.63-6.5.08-.08.19-.17.25-.27.84-1.33 1.79-2.4 3.1-3.1.23-.08.44-.14.65-.12zm-60.64 1.39c.36-.11.68.08 1.06.52.27.3.65 1.24 1.51 1.24 1.47 1.86 3.52 3.46 5.45 4.87-.59.58-.95 1.26-1.18 1.97-.61 1.75-.5 4.72 0 7.43.21 1.6.76 3.01 1.58 4.4 3.94 6.13 6.74 8.88 11.18 11.91 1.85 1.12 3.89 2.09 6.25 1.86.65-.09 1.03.35.92.9-.71 9.03-4.82 9.64-15.19 8.36-22.98-4.59-25.01-19.56-12.57-42.16.28-.8.66-1.2.99-1.3zm29.81 48.85c3.17-.07 6.54.04 9.85.46.5.1.54.52.4.86-.47 1.24-1.86 2.82-2.57 3.43-.44.34-1.12.47-1.71.65-2.48.66-6.35.95-7.03.85-.61-.13-1.22-.36-1.79-.72-2.16-1.22-4.18-2.63-6.31-3.93-.46-.36-.48-.91.06-.99 2.87-.28 5.9-.53 9.1-.61z"/><path fill="#fdbe11" fill-rule="evenodd" d="M449.55 238.46c-.13 0-.26.02-.4.06-26.12 9.5-58.52 28.4-75.37 53.48-6.8 5.48-13.77 10.82-20.99 15.51 15.01-19.95-14.94-21.27-51.04-25.19-24.81-2.12-54.42 5.64-64.06 10.93-.87.5-1.41 1.49-.72 2.37 2.69 3.83 3.52 8.34 5.11 12.57.22.46-.23.5-.58.19-31.41-28.12-78.34-66.05-93.98-69.79-.74-.13-1.41.12-1.79.8-1.11 2.33-1.37 3.01-2.23 5.32a9.185 9.185 0 0 1-2.29 3.87c-8.95 8.78 6.73 25.24 9.07 55.34 1.56 12.71 4.63 18.41 7.55 27.15.45 1.18.74 2.19.93 3.36 4.06 14.02 6.71 28.31 12.1 41.3 6.42 20.86-18.75 17.43-19.78 34.73-.59 11.74 13.19 18.18 10.84 26.77-.15.54-1.16 1.13-.59 1.83 10.61 11.01 14.71 8.44 19 17.57 9.96 17.45 20.78-1.64 38.81 23.81 13.56 6.29 26.12 13.59 39.4 22.37.95-2.97 1.83-6.65 2.63-11.45 1.58-9.49 1.27-19.07-4.73-32.31-1.1-1.93-.44-5.2 1.51-6.75.99-.74 1.41-1.03 1.52.5 1.68 17.6 16.1 29.47 7.22 46.12-.32.61-.7 1.11-.59 2.1.19 2.25-.27 4.27-1.12 6.19l8.49 6.31c.56-1.37 1.07-2.52 1.39-3.34 3.78-19.56 6.75-51.13 9.59-55.06.26-.38.57-.97 0-1.39-3.3-3.41-7.01-9.07-5.32-10.78 1.81-1.37 12.35 2.89 12.29 10.53-.44 6.84-7.11 70.17-15.45 79.11-.4.46-.25.78 0 1.12 3.64 5.13 2.86 6.4 1.58 7.05-1.16.44-3.58.25-4.67.65-.19.06-.38.06-.53.06 1.47 1.86 3.52 3.46 5.45 4.87 1.16-1.14 3.12-1.98 6.13-2.43 11.76-2.04 22.98-1.7 31.57 2.36 1.15.59 1.87 1.29 2.29 2.04 3.05-1.95 5.87-3.97 8.63-6.5-.8.59-2.5.02-2.76-1.33-4.71-25.67-9.74-29.63-12.71-48.99-1.2-6.57-1.77-13.45-.53-19.75.4-2.04.53-3.89 0-6.1-1.7-6.33-1.6-12.94-.18-19.21.96-2.11 3.43-4.93 5.19-7.31 1.46-1.91 2.49-4.14 3.29-6.56.82-2.51 8.96-14.67 15.91-16.59.59-.15.67-.5.74-1.05.06-.61-1.08-.63-.99-1.56.25-4.84 30.68-2.23 46.7-.74 6.1-.54 12.19-1.49 17.95-2.56 1.01-.19 1.08.16.47.8-4.78 5.26-11.66 8.14-17.89 8.94-1.18.17-1.5.82-1.73 1.71-3.56 17.86-29.4 26.49-40.64 24.39-.72-.13-.74.38-.72.74.82 9.15-3.11 10.08-6.52 36.83-.21 1.49-.15 2.82.08 4.33.53 4.34 1.79 8.46 2.76 13.03 15.74-10.23 33.36-18.58 49.99-25.47 3.36-3.8 6.69-7.24 10.18-11.11.97-1.28 2.84-2.06 4.61-2.69 13.24-5.56 26.65-14.21 36.71-25.13.29-.36.9-.95.71-1.64-3.07-14.36 6.4-18.61 12.36-29.26.9-1.39-.07-1.75-1.05-2.25-6.55-4.13-12.51-9.83-17.09-15.18-1.08-1.6-1.54-3.62-1.92-5.41-4.74-22.3 5.07-23.93 6.84-36.83-.13-6.42 1.6-13.97 3.62-20.64 2.38-7.77 3.45-14.08 6.19-18.42 1.35-38.85 13.41-30.08 10.12-50.79-.86-4.14-3.05-11.66-5.66-16.83-.21-.49-.53-.7-.9-.72zm-7.43 7.58c.21-.05.44-.02.65 0 1.39.1 2.48 1.13 2.63 2.42.25 2.52.8 4.84 1.3 7.17-8.98 21.47-3.76 50.94-15.51 69-.59 15.82-2.57 25.91-11.97 32.22-.38.29-.8.25-1.25 0-15-7.33-28.41-22.61-41.5-34.6 20.37-13.26 1.92-27.19 16.44-42.41 16.9-17.85 31.78-19.62 47.23-32.9.65-.55 1.32-.84 1.98-.9zm-292.03 1.11c1.85.02 3.98 1.01 5.51 2.49 15.05 6.58 13.7 12.6 25.45 18.5 2.5 1.3 6.78 3.64 10.08 4.39 1.52 5.27 4 5.12 9.53 14.55 1.33 2.31 6.19 6.1 6.63 9.26.34 1.98.3 3.7.15 5.6-.15 5.36-2.36 10.48.59 12.88 2.42 1.24.82 2.46 5.2 4.67 2.21 1.07 3.35 2.17 2.17 4.48-3.5 6.13-7.79 11.18-11.7 16.78-1.02 1.3-2.51 2.33-4.02 3.22-8.49 5.09-15.54 12.25-23.16 19-.48.36-.71 0-1.05-.12-7.3-4.15-9.24-11.39-10.21-21.26-2.52-26.35-7.81-3.56-16.69-82.02-1.2-3.54-2.5-9.85-1.39-11.3.76-.78 1.77-1.14 2.91-1.12zm171.85 51.1c-6.76 12.53-10.19 11.35-14.27 16.25-.3.34-.61.76-.93 1.18-.29.42-.61.86-.9 1.37-.32.5-.55.95-.68 1.39 0 .02.02.04 0 .06-.1.42-.17.89-.19 1.26.19 4.09-.48 5.75.59 7.1.07.1.11.21.13.33.06.13.06.26.08.38.02.28-.04.55-.14.74-.76-.48-1.94-1.39-2.95-2.29-.78-.7-1.43-1.35-1.73-1.92 0-.02.02-.04 0-.06-.08-.19-.12-.38-.12-.53 0-.42-.04-.69-.07-.93-.1-.94-.37-.8-.59-1.83-.1-.52-.23-1.34-.27-2.77-.02-.7 0-1.58 0-2.64-.08-.67-.02-1.01.15-1.3.06-.13.15-.27.25-.4.11-.13.21-.25.34-.4 6.1-6.27 14.2-10.42 21.3-14.99zm-48.66 1.52c6.39 4.34 13.57 10.14 20.58 15.97.15.17.25.34.4.53.4.61.7 1.33.53 2.23-.42 2.65-1.69 5.2-2.7 7.89-.04.13-.12.19-.21.28-.08.06-.15.15-.25.19-.21.08-.46.06-.59-.07-1.26-1.6-2.63-3.22-3.77-4.86-.38-.5-.78-1.05-.78-1.72.05-.53.07-1.06.07-1.5 0-.46-.02-.86-.07-1.26-.1-.74-.33-1.39-.65-1.9-.02-.02 0-.06 0-.06-.67-1.07-1.83-1.7-3.68-2.19-1.52-.44-2.84-1.11-3.96-1.89-.02-.02-.04 0-.06 0-1.64-1.18-2.82-2.76-3.62-4.67 0-.02-.06-.05-.06-.07-.8-1.95-1.16-4.23-1.18-6.9zm84.65 61.56c1.72-.08 3.53.13 5.32.53 1.77.4 3.54 1.01 5.05 1.83.47.29.59.86.07 1.05-2.53.68-5.1 1.54-7.69 2.57-1.3.5-2.56 1.07-3.89 1.64-6.52 2.88-13.17 6.48-19.78 9.81-.7.29-1.16.19-1.46-.21-.1-.15-.18-.3-.25-.53-.15-.71-.12-1.41-.06-2.1.04-.68.17-1.37.19-2.11.06-1.01.69-1.07 1.05-1.58 1.24-.48 2.29-.9 3.16-1.3 2.59-1.2 3.64-2.04 4.52-2.82.61-.53 1.16-1.01 1.92-1.6.78-.57 1.81-1.22 3.49-2.02 1.01-.46 2.02-.88 3.01-1.33 1.01-.42 2-.84 2.97-1.18.76-.4 1.64-.63 2.38-.65zM229.6 362.7c.13 0 .3.04.4 0 .42.15.76.32 1.06.46.29.17.5.34.71.53.78.67 1.1 1.43 3.1 2.38.48.23 1.11.52 1.83.78.73.25 1.6.5 2.63.8 2.48.8 4.25 1.26 5.91 1.89.04.02.04.06.09.06 1.64.66 3.22 1.46 5.17 2.84.68.47 1.39 1.02 2.19 1.65.78.63 1.67 1.34 2.63 2.16.4.32.76.53.85 1.12.02.19 0 .38-.07.59v.06c-.06.21-.15.4-.25.61-.25.44-.59.82-.93 1.12-.12.08-.23.15-.33.19-.09.02-.26.02-.47 0-.63-.13-1.13-.21-1.64-.4-.46-.17-.86-.38-1.24-.59-.4-.21-.74-.4-1.05-.65-.32-.26-.57-.53-.86-.8-.59-.55-1.2-1.12-1.98-1.71-.36-.29-.76-.57-1.25-.86-.48-.28-1.03-.57-1.64-.84-.63-.28-1.13-.34-1.64-.21-.17.06-.36.1-.52.21-.68.27-1.31-.05-1.98-.21-.51-.11-1.08-.3-1.64-.51-.03-.02-.05 0-.07 0-4.1-1.62-9.2-5.62-9.22-10.4 0-.08.05-.16.07-.21.04-.02.08-.06.14-.06zm8.74 45.78c1.09 0 2.23.06 3.37.12 1.15.11 2.33.21 3.53.4.91.15 1.79.34 2.72.53.29.08.59.13.9.21.55.13 1.1.29 1.64.46.72.19 1.41.4 2.11.66 1.03.35 2.02.73 3.03 1.17.88.38 1.77.8 2.63 1.25.86.46 1.73.99 2.57 1.51.71.44 1.41.91 2.1 1.39.32.21.63.36.93.59.5.38 1.01.78 1.51 1.18.11.08.21.17.32.27.08.07.19.13.27.19.15.13.32.28.47.4.65.57 1.3 1.22 1.95 1.83.85.8 1.65 1.62 2.45 2.51.06.06.12.12.21.19.71.82 1.38 1.68 2.1 2.56.4.55.82 1.1 1.24 1.65.34.48.65.9.99 1.39.74 1.09 1.41 2.23 2.11 3.43.27.46.48 1.07.46 1.57-.02.17-.06.3-.15.47-.65 1.39-1.05 2.8-1.37 4.4-.04.23-.25.42-.46.46-.08 0-.21-.02-.27-.06-1.14-.7-2.19-1.37-3.22-2.11-.99-.71-1.92-1.49-2.82-2.25-.02 0-.07.02-.07 0-.92-.76-1.76-1.56-2.63-2.36-7.72-7.13-13.15-14.88-23.55-16.96-.02-.02-.04 0-.06 0-4.65-.93-10.23-.7-17.49 1.18-2.42.25-5.1.25-7.83.06-2.74-.19-5.52-.57-8.17-1.05-1.28-.23-2.61-.51-3.81-.8-.02 0-.04.02-.06 0-1.2-.28-2.32-.61-3.35-.91-.04-.02-.06 0-.08 0-2.13-.63-3.85-1.3-5.05-1.91 5.43.1 11.4.04 16.56-.19s9.45-.57 11.51-.99c.7-.34 1.54-.63 2.45-.93.84-.27 1.81-.57 2.82-.78.08-.02.19 0 .27 0 .9-.19 1.85-.35 2.88-.46.17-.02.3-.06.47-.06 1.24-.13 2.52-.19 3.87-.21zm114.64 8.82c-4.59.27-9.62 2.02-15.32 6.96-8.63 8.48-15.89 19.03-21.45 29.01-.65 1.22-.86 2.33-.59 3.62 6.32 29.08 9.03 43.56 10.21 51.24l4.15-3.43c-2.49-7-3.77-15.47-2.91-25.65 2.99-7.79 4.55-16.99 5.92-25.78 4.54-9.64 5.01-13.73 9.4-13.47 3.94.21 8.02.4 11.71-.4 1.43-.28 2.61-.85 3.89-1.65 6.21-3.74 11.51-8.81 16.04-14.54.55-.59.88-1.85.59-2.42-.17-.44-.44-.67-.99-.67-6.53.4-12.97-3.27-20.65-2.82zm-2.1.71c1.22-.02 2.48.25 3.68.74 2.42.95 4.19 2.8 5.14 4.99.48 1.11.75 2.27.8 3.49.02 1.22-.19 2.48-.68 3.68a9.294 9.294 0 0 1-2.04 3.1c-2.57 2.59-6.59 3.53-10.19 2.1-.61-.25-1.18-.5-1.7-.86-.53-.34-.95-.76-1.39-1.18a9.369 9.369 0 0 1-2.11-10.12c.19-.49.4-.91.66-1.33.04-.04.1-.08.14-.13.11-.18.19-.35.32-.52.25-.34.53-.63.8-.93l.25-.25c.4-.4.8-.8 1.27-1.12.35-.27.77-.46 1.17-.67.07-.02.13-.02.19-.06.13-.04.21-.15.34-.19a7.75 7.75 0 0 1 1.58-.46c.57-.13 1.18-.26 1.77-.28zm-104.96.15c1.22-.04 2.39.17 3.62.65.58.23 1.17.51 1.7.86.53.34.95.74 1.37 1.18.46.45.84.87 1.2 1.37.67 1.01 1.18 2.13 1.45 3.31.38 1.74.25 3.64-.46 5.45-.26.61-.53 1.11-.87 1.64 0 .02.03.04 0 .06-1.36 2.06-3.51 3.45-5.85 3.96-1.18.25-2.4.27-3.62.06-.61-.1-1.24-.29-1.83-.52-.61-.26-1.2-.53-1.72-.87-1.03-.67-1.88-1.56-2.57-2.57-1.69-2.48-2.17-5.72-.97-8.73.23-.59.57-1.14.91-1.64.31-.49.61-.93.98-1.33.09-.08.19-.12.28-.19.4-.4.78-.82 1.24-1.11.38-.28.78-.47 1.18-.68.02 0 .04-.04.06-.06.38-.17.8-.25 1.2-.38.38-.12.78-.27 1.18-.33h.13c.44-.09.92-.13 1.39-.13zm-29.87 4.59c.23 0 .48.04.72.08.04 0 .1-.02.14 0 .42.04.84.19 1.31.38.5.21 1.03.46 1.58.8.56.34 1.15.72 1.79 1.18l.18.13c.55.42 1.1.84 1.71 1.32.65.51 1.26.95 1.98 1.52 1.32 1.03 2.78 2.16 4.33 3.28.78.57 1.58 1.09 2.44 1.64.66.42 1.33.91 2.05 1.33.29.17.61.33.9.5.82.47 1.69.91 2.57 1.33.86.42 1.77.8 2.69 1.18.3.12.57.29.87.4.92.35 1.89.63 2.88.92 1.18.34 2.38.68 3.62.93 1.26.23 2.55.4 3.89.5 1.35.13 2.76.21 4.21.21.28 0 .49.07.66.19.16.11.29.26.33.53.04 2.27-2.04 3.07-4.29 3.22-1.33.02-2.65-.02-4-.06-3.96-.11-7.89-.42-11.85-1.06-.42-.04-.78-.14-1.18-.31-.38-.17-.71-.4-1.11-.67a57.92 57.92 0 0 1-3.81-2.82c-1.31-1.06-2.55-2.15-3.75-3.22-1.24-1.1-2.38-2.11-3.37-3.04-.97-.9-1.74-1.68-2.29-2.23-.57-.5-1.01-.92-1.39-1.32-.36-.38-.67-.76-.93-1.05-.48-.59-.69-.99-.96-1.37-.15-.19-.3-.36-.47-.53-.52-.55-1.37-1.14-3.28-2.17-.23-.1-.38-.19-.4-.33-.02-.09-.02-.15.06-.26.07-.1.13-.23.25-.33.21-.17.47-.3.68-.4.19-.11.38-.21.59-.26.21-.06.42-.12.65-.14z"/></svg>