<svg xmlns="http://www.w3.org/2000/svg" width="1075.3822021484375px" height="1075.475830078125px" x="0px" y="0px" style="enable-background:new 0 0 1400 980" viewBox="0 0 1075.3822021484375 1075.475830078125"><path fill="none" d="M0 0h1075.382v1075.476H0z" style="fill:#61389f;fill-opacity:0;pointer-events:none"/><path d="M275 133a94 94 0 0 1-94 94 94 94 0 0 1-94-94 94 94 0 0 1 94-94 94 94 0 0 1 94 94Z" class="st0" style="fill:#fff" transform="translate(-472.313 -204.209) scale(5.58453)"/><path d="M181 228c-52.5 0-95-42.5-95-95s42.5-95 95-95 95 42.5 95 95c-.1 52.4-42.6 94.9-95 95zm0-188c-51.4 0-93 41.6-93 93s41.6 93 93 93 93-41.6 93-93c-.1-51.3-41.7-92.9-93-93z" class="st1" style="fill:#00194a" transform="translate(-472.313 -204.209) scale(5.58453)"/><path d="m166.3 210.6-2.2 10.9-2.4-.5 2.2-10.9zM173.3 216.8c-.8-.5-1.3-1.5-1.2-2.4 0-.8.4-1.6 1.1-2.1.7-.5 1.6-.8 2.5-.7.9 0 1.8.4 2.4 1.1.6.6.8 1.4.8 2.2 0 1-.6 1.8-1.5 2.3 1 .5 1.6 1.6 1.5 2.8 0 .9-.4 1.8-1.2 2.3-.8.6-1.8.8-2.8.7-1 0-1.9-.4-2.6-1.1-.6-.6-1-1.5-.9-2.4 0-1.3.8-2.3 1.9-2.7zm1.8 4.5c.4 0 .7-.1.9-.4.3-.3.4-.8.4-1.2 0-.5 0-.9-.2-1.3-.2-.3-.5-.5-.9-.5s-.7.1-.9.4c-.3.4-.4.8-.4 1.2-.1.5 0 .9.3 1.3.1.3.4.5.8.5zm.3-5c.3 0 .6-.1.8-.4.2-.3.3-.7.3-1.1.1-1-.2-1.5-.9-1.6-.3 0-.6.1-.8.4-.2.3-.3.7-.3 1.1 0 .4 0 .8.2 1.2.1.2.4.4.7.4zM184.6 217.1c-.9-.4-1.5-1.3-1.5-2.3-.1-.8.2-1.6.8-2.2.6-.6 1.5-1 2.4-1 .9-.1 1.8.1 2.6.7.6.5 1 1.3 1.1 2.1.1 1-.4 1.9-1.2 2.4 1.1.4 1.8 1.4 1.8 2.6.1.9-.2 1.8-.9 2.5s-1.7 1.1-2.6 1.1c-1 .1-1.9-.2-2.7-.8-.7-.5-1.2-1.4-1.2-2.3-.3-1.1.3-2.3 1.4-2.8zm2-.8c.3 0 .6-.2.7-.5.2-.4.2-.8.2-1.2-.1-1-.4-1.4-1.1-1.4-.3 0-.6.2-.7.4-.2.3-.2.7-.2 1.1 0 .4.1.8.4 1.1.1.4.4.5.7.5zm.3 5c.4 0 .7-.2.9-.5.2-.4.3-.8.2-1.2 0-.5-.2-.9-.4-1.3-.2-.3-.6-.5-.9-.4-.4 0-.7.2-.9.5-.2.4-.3.8-.3 1.3s.2.9.4 1.3c.3.2.7.4 1 .3zM199.6 209.8l.4 2.2-3.5.7.4 2c1-.3 2.1-.2 3 .3.8.5 1.4 1.3 1.5 2.3.3 1 0 2-.6 2.8-.7.8-1.6 1.4-2.7 1.5-.9.2-1.9.2-2.8-.1l-.4-2c.8.3 1.6.4 2.5.2.5-.1.9-.3 1.1-.7.3-.3.4-.8.3-1.2-.1-.5-.4-.8-.8-1-.6-.2-1.2-.2-1.7-.1-.4.1-.8.2-1.2.4L194 211ZM255.9 133a74.9 74.9 0 0 1-74.9 74.9 74.9 74.9 0 0 1-74.9-74.9A74.9 74.9 0 0 1 181 58.1a74.9 74.9 0 0 1 74.9 74.9Z" class="st1" style="fill:#00194a" transform="translate(-472.313 -204.209) scale(5.58453)"/><path d="M181 208.2c-41.5 0-75.2-33.7-75.2-75.2s33.7-75.2 75.2-75.2 75.2 33.7 75.2 75.2c-.1 41.5-33.7 75.1-75.2 75.2zm0-149.7c-41.2 0-74.5 33.4-74.5 74.5s33.4 74.5 74.5 74.5 74.5-33.4 74.5-74.5-33.4-74.5-74.5-74.5z" class="st1" style="fill:#00194a" transform="translate(-472.313 -204.209) scale(5.58453)"/><path d="M142 144.2c0 .1-5.3 7.1-5.3 7.1s-8.2-3-9-9.9c-.8-6.9 8.9-13.6 18.9-14.8 11-1.2 9.7-3.8 9.7-3.8s-3.3-1.8-1.5-4.8c1.8-3 2.8-4 2.5-6-.3-2 2.6-4 2.6-4-.1.6-.2 1.2-.4 1.8-.2.8-.4 1.6 0 2 .4-.3.7-.8.8-1.2 0 .8.4 1.5.9 2 .8.6 1.9 2.8 1.2 3.9-1.5 2.5 1.4 3.5 0 5.8-.7 1.3-2.2 2-3.7 1.6-1.2 2.2-3.4 3.8-5.9 4.1-2.1.3-12.6 1.7-17.1 6-2.8 2.9-3.7 5.6-2.4 8.6 1.5 3.1 8.3 1.6 8.7 1.6z" class="st2" style="fill:#9aa4af" transform="translate(-472.313 -204.209) scale(5.58453)"/><path d="M160.3 117.7zm.1 2.7c-.4-.8-.4-1.8-.1-2.7-1.6.1-.9 3.8-.9 3.8s-1 .2-.9-.8c.1-1-.8-1-1-.8-.3.5-1 .7-1.5.5-.8-.5-.5-2.2.3-2.8-.3.8-.2 1.6.4 2.2-.1-.8-.1-1.7.1-2.5.2-.7.6-1.5 1.4-1.3.8.2.2 2.2.2 2.2.2-.3 1.6-2.1 1.2-2.8-.4-.7.6-2.8.6-3-.3.5-.9.8-1.4.5-1-.4-.8-2-.3-2.8-1.1.7-.6 3.5-1 4.7-.4 1.2-2.1 2.7-2.8 4.2-.4.9 0 2 .9 2.4.1 0 .2.1.3.1.7.2.8 1 .9 1.6 0 0 .6 1.9-3.9 2.9-4.6 1.1-13.4 1.4-19.5 6.4s-4.2 10.1-3.4 12c.8 1.9 1.7 2 2.2 1.7.4-.3.3-1.4-.3-2.8-1.5-4-1.3-6.4 3.1-10.2 4.3-3.9 12.8-5.4 15.4-5.8 2.6-.4 6.7-1.4 6.8-3.7.1-1.4 2.1-.2 3-.7.7-.5.8-1.5.2-2.5z" class="st0" style="fill:#fff" transform="translate(-472.313 -204.209) scale(5.58453)"/><path d="M169.5 116.8c-.2 1-4.3 3.3-7.8 7.4-3.5 4.1-6.7 10.5-7.9 11.6-1.7 1.7-3.6 3.2-5.6 4.4-2.7 1.3-5.3 2.9-7.7 4.6-2.4 1.8-1.8 3.8-2.8 4.5-1 .7-1.3 2.9-2.3 4.8-.6 1.3-1.4 2.4-2.4 3.3 0 0 .1.5-.8.6-1 .3-1.8 1.1-2 2.2-.4 1.2-3.4 5.7-3.9 6.7-.7 1.1-1.6 2.1-2.5 3-1.1 1.3-1 3.5-1 5.1-.1 1.3.9 2.4 2.2 2.6.7 0 1.3-.2 1.9-.5.4.3.9.5 1.4.5.6 0 1.2-.2 1.7-.5 0 0 .1.4 1.4.4 1.3 0 1.7-.5 1.7-.5.6.5 1.3.6 2 .4.5-.2 1-.6 1.2-1.1.2-.4.3-.8.3-1.2 0-1-.6-1.9-1.5-2.2-1.1-.5-.8-1.3-2.1-2.1s-1.5-.9 0-2.7c1.5-1.8 3.2-4.1 5.6-5.2 2.4-1.1 3.5-1.2 5.6-2.9 1.2-1 2.5-1.9 3.8-2.8.8-.2 1.6-.2 2.4-.2.9.1 1.8.1 2.7 0 1.7-.1 2.8-.9 3.5-.1.4.5.6 1.2.4 1.9 0 0 1.2-.3 1.5.6.3 1.3-.7 1.1-.7.9 0 0-.4.9 1.1 1.8 0 1-1 .6-1 1.8.3-.2 1.2.1.1 1.2-1.3 1.7-2.2 1.9-2.9 2.1-.7.2-1.3 1.5-.3 3.2.8 1.5 1.7 1.3 3.7 2.7 2.1 1.3 3.8 3.8 5.8 4.9 2 1.1 2.5 1.2 3.4 1.2.8 0 1.6-.3 2.2-.8.7.1 1.5-.2 2-.7 1.4.1 1.8-.8 1.8-.8.5.1 1 0 1.4-.3 0 0 .6-2.6-1.3-3.1-1.8-.5-2.4-.3-3.2-.6-1.8-.7-3.5-1.7-5.1-2.9-1.2-1-1.9-1.2-1.3-2.3 1-1.9 2.2-1.8 3.7-3.8 1.7-2.3 2.9-5 3.5-7.8.2-2.3.2-4.1 2.7-6.2 2.5-2.1 7-4.1 10.5-5.5 2.7-1.1 5.5-2 8.3-2.8 3.2-.8 5.3-1.2 7.4-2.8 2.8-2.1 3.9-3.1 4.9-5.5.2-.6.3-1.6.9-1.6.6 0 .2 1.1.2 1.1 1.7 0 2.8-1.6 3.5-2 .7-.4 1.7-.9 1.8-.1l.1.7c.8-.8 1.8-1.4 2.9-1.7.7-.1 1.5.1 2.1.5.7-.8 1.6-1.5 2.6-1.9 1-.6 2.2-.9 3.4-.9 1.4-1.1 3.1-1.8 4.9-2.2 2.8-.5 3.2-1.2 5.4.1 1.1.7 2.4 1.1 3.7 1.2 0-.3.2-.5.4-.5h.2c.6.1 2.2 1 4.2.5 0 0 .8.1.4.9.7.4 1.6.5 2.4.3 1.6-.3 1.5.2 1.5.2s1.5-.5 2.2.2c.2.4.7.5 1.1.2 0 0 .8.1.2.7 0 0 2.2.5 3.2-2.1.4-1 .9-5.4-.5-6.6-1.4-1.2-3.3-4.3-4.8-4.4-1.4-.3-2.9-.3-4.3-.2-1.6.3-3.2 1.3-4.6 1.1-1.4-.2-1.7-1.7-5.9-1s-4.9.2-7.7.7c-2.8.5-7.8 1.1-9.8.5-2.1-.8-4.1-1.7-6.1-2.7 1.1-.5 1.7-1.8 1.2-2.9-.4-1.4-.4-2.9-.1-4.4 0 0 .8-.2 1 .8.5-.7.4-1.7-.1-2.4-.3-.7-.1-1.5.5-2.1-.3-.5-.4-1.1-.4-1.7.1-.7 0-1.3-.1-2-.1-.6-.3-1.1-.6-1.6.5-.6.7-1.4.8-2.1-.1-.7-.3-1.4-.7-2-.5.5-1.2.4-1.7 0l-.2-.2c-.5-.6-.4-1.5.1-2.1 0 0-.5-.5-1.8-2.1s-1-2.5-1.6-3.5c-1.4-1.9-3.4-3.2-5.7-3.8-2.4-.5-4.4-.2-5.4-.4-.6-.2-1.2-.4-1.8-.7-.3.6-1.1.9-1.7.7-1.2-.2-2.3 0-3.4.5-1 .5-1 1.3-2.2 1.3-1.2 0-2.8-.1-4 .7 0 0 1 1.1.2 1.6-.7.5-1.5.8-2.3.9 0 0 .5 1.2-.4 1.6-1.1.5-2 1.3-2.7 2.3-.6.9-1.3 1.6-2.2 2.2 0 0 .7.9 0 1.4-.7.6-1.2 1.2-1.7 1.9 0 0 .9.1.1.9-.5.4-.8 1-1 1.6 0 0 .6-.3.6.7 0 .7-.1 1.3-.4 1.9-.2.4-.4.8-.7 1.2-.6 1.1-1.6 1.6-2.3 4.6-.5 2.2-.1 3.6-.7 4.5-.6.3-1 1-1 1.7 0 0 1.4-.4 1.6.9-.2.5-1 .8-.2 3.1.2-.5 1.2-2.2 1.7-.5z" class="st2" style="fill:#9aa4af" transform="translate(-472.313 -204.209) scale(5.58453)"/><path d="M168.2 172.4c.4.2.8.8-.2 1.4-.7-.1-1.7-.5-4.8-2.4-.8.9-3.8-1.6-3.8-1.6s3.8 3.5 4 3.7c1.1.8 2.3 1.5 3.5 2 0-.6.7-1 2.3-.7-.2-.9 1-1.4 2.2-1.2-1-.5-2.1-.9-3.2-1.2zM153 147.8c-.3 1.5-1 2.8-2.1 3.9 1.9-1.6.1 1 1.5-.7s1.9-2.3 3.4-4c.9-1 1.7-2 2.3-3.2.8-1.2 1.4-1.2 1.6-1.7-.6.1-1.1.2-1.7.3-1.1 1-.5.9-2.1 2 .2-.4 1.3-2.7-1-.3-2.3 2.4-1.8 3.3-1.9 3.7z" class="st0" style="fill:#fff" transform="translate(-472.313 -204.209) scale(5.58453)"/><path d="M172 122.3c.3-.5.8-1.3.6-1.9.3.6-.3-1.4-1.2.3-.1-.1.5-1.6.3-1.7-1.4-.6-.2-1.6-.8-2-4 3.2-7.4 6.9-10.3 11.1-4.2 6.5-7 7.5-9.6 9.4-2.6 1.9-9.5 7.1-10.9 8.3-1.4 1.2-1.5 3.2-2.6 5-1.1 1.8-1.6 4-3.1 6.3-1.7 2.6-1.6 3.8-1.1 4.7.5-1.2 1.3-2.3 2.3-3.2.5.9.2 2.1-.7 2.6 0 0-.1 0-.1.1.3.3 1.6.4 2.2-1.3.4-1.3 1.1-2.6 2.1-3.5 1.6-.9 3.1-1.9 4.5-3.2 1.6-1.6 1.4-2.2 2.7-3.2 1.3-1 1.7-1 1.8-1.6-.8.3-1.6.4-2.5.4 1-.5 1.9-1.2 2.7-2 1.5-1.6 1.9-1.5 3.1-2.9 1.2-1.4 1.7-3.2 3.5-4.8 1.8-1.6 2.8 1.7 4.3 1.7s2.2-.6 3.2-.6 13.4-5 13.4-5c-2.1-6.3-1.4-2.4-1.5-4.2-.1-2.1-3.5 5.1-2.4-6 .1-1.3-.5-1.9.1-2.8zM124.6 170.4s1.4 2.1-.3 3.1c.1.2 1.3 0 1.3-.5.6.3.9 1 .8 1.6.5 0 1.3-.3 1-1.2 1 0 1.2 1.1 1.2 1.1.6 0 1-.4 1-1v-.2c.7 0 1.4.5 1.5 1.2.6 0 1.1-.4 1.2-1v-.3c.9 0 1.2 1.1 1.2 1.1.6-.4 1.4-.5 2-.1 0-.4-.7-.7-.6-.7-1.5-1-1.4-1.9-2.5-2.2-.9-.1-1.8 0-2.6.4-2.8.7-3.7 0-3.7-1.1s2.3-1.1 2.4-.4c1.1-.6 3-2.4 2.6-3.8-.4-1.3 0-1.6.9-1.9-.2-.6-1.9-.3-2.7 1.5-.1.6-.7 1-1.3.9-.3-.1-.6-.2-.7-.5 0 0-1 2.4-2.3 2.9.3-.1 1.7.5-.4 1.1zM174 148.2l-3 1.6c-1 .4-1.8 1.1-2.5 1.9 0 0 1.5-.9 1.5.6s.8.9.8.9-.2-2.5 3.2-5zM234.7 118.5c-4.2 2.1-16.2 1.8-19.6 2.2-3.4.4-5.3.1-6.4.4 0-.1.8 3.4 3.8 3.4s2.5 2.3-.3 2.6c.4.3 1 .5 1.6.4 2.1 0 6.1-2.7 6.1-2.7 1.7-.8 3.4-1.4 5.2-1.9 2.7-.7 7.9-1.3 9.1-.6 0 0-.6-1-3.8-1.2 2.3-1 3.6-1.7 4.3-2.6zM251.3 123.7s1.5-2.3-.3-3.9c-1.6-1.4-2.1-3.2-4.1-3.7-3.7-.8-5.7.9-9.9 1.3.9.5 1.9.7 2.8.6 2 .1 5.1-.9 5.7.1-1-.3-2-.2-2.9.2-.5.4-.5.7-.7 1.4.8-.5 1.7-.7 2.6-.6 1.5 0 2.7 1.4 3.2 2.9.6-1.5 1.5-.9 1.4-1.9 1.3-.1 2.5 1.5 2.2 3.6z" class="st0" style="fill:#fff" transform="translate(-472.313 -204.209) scale(5.58453)"/><path d="M234 120.2c1.5 0 2.3 1.8 3.8 1.8 0 .1-.7-2.3 1.5-2.3.1 0-.1-.8-1.5-.8-2.3-.1-2.2.9-3.8 1.3zM158.4 145.6c.7 1.4.8 3 .2 4.5 1.1-.7 1.4 1.1 1.4 1.1s.6-.1.6-1c0-1.3.8-1.1.8-1.1s.1-2 .9-1.7c.1-.8-.1-2.3.9-2.3 1.7 0 2-2.4 2.8-2.4 1.5 0 1-1.6 1.9-2 .9-.4-4.1 1.4-5.9 3.1-1.8 1.7-1.7 2.7-3.6 1.8zM173 98.6c-.5.8.1 1.7-.1 3.1.5-.5.7-1.2.7-1.9-.1-1.6 1.9-2.5 1.9-2.5-1 0-2 .5-2.5 1.3zM234.3 117.5c-1.9 1.1-4.1 1.6-6.3 1.6-6.3-1.4-11.5-.8-13.7-1.5 9 0 9.9-1.4 13.8-.7 3.9.7 4.3 1.3 6.2.6z" class="st0" style="fill:#fff" transform="translate(-472.313 -204.209) scale(5.58453)"/><path d="M222.8 119.2c-4 0-7.8 1-12.2.6.2-1.2-2-3.2-2-3.2 1.8.3 3.5.7 5.2 1.3 2.8.9 6.7.2 9 1.3zM203.8 122c-.6 1.8 1.1 2.3 1 3.3-1.9 0-1 1-2.3 1.9.6.7.9 1.6.8 2.6-.1 1.1-1 1.9-2.1 1.9 0 0 1.2-1.5.5-2.1-.7 1.1-1.9 1.7-3.1 1.7 0 0 3-2.3 2.4-4.3-1.7-2.2-.8-3.4-.8-3.4 0 1.1.7 2.2 2.6 1.7 0-.1-.5-2.5 1-3.3zM192.8 122.8c0 .9.8 1.6.8 2.9 0 1.3-1.6 1.8-.8 3.4.6.9.8 2 .6 3.1 0 0 .9-2.2.3-3.1-.3-.5-.2-1.2.3-1.6 0 .4.2.8.6 1-.3-.6-.3-1.2 0-1.8.4-.6.5-1.5.1-2.2-.6-1-1.3-1-1.3-1.7 0-.4.2-.7.5-1 .1 0-1.1.1-1.1 1zM177.1 127.4c-1 0-1.9.4-2.7 1.1-1.1 1.1-1 .7-1 .7.3-.5.4-1.2.2-1.8-.3-1.2-.6-.2-1.2.4-.6.7 0-.7-.1-1.6-.1-.9-.5-1-1.1-.5-.6.5.6-.6.5-1.7-.1-1.1.2-2.1-.2-2.6-.5-.5 2.2-1.7 3.9-.2.9.7 1.6 1.6 1.8 2.8-.2-.4 0-.9.3-1.1.7-.5 1.3.7.9 1.2-.4.8 0 1.8.8 2.2h.1c1 .6-.7-.7-.1-1.5s.9-.7.7.2c-.2.9.8 2 .8 2 .1-.4.2-.8.4-1.1.2-.3.3 1.8.1 2.8-.2 1 .5 2.7 1 4.8.5 2.1-3.2-2.5-3.6-2.9-.4-.4 0-2.7-1.5-3.2zM244.3 121.2s2.6-.3 3.3 1.1c.7 1.4.3 1.1-1.1 1.1-1.4 0-3.6-2.1-2.2-2.2zM241.5 121.1c-.6 0-2.2.9-2.2 2s.5 1.8 1.8 2.1c.4.2 2.3 1 2.4-.2.1-.4.7-.5.8-1-.1-.9-.8-.7-1.4-1.1-.6-.4.8-1.8-1.4-1.8zM246.8 124s-2.7.2-1.9.7c.8.5 3.3 1.7 3.8.9.3-.5.1-1.7-1.9-1.6zM244.7 125.2c-.1.9.5 1.7 1.3 1.8 1.6.5 2.6 0 2.7-.6-1.5.1-2.9-.3-4-1.2z" class="st0" style="fill:#fff" transform="translate(-472.313 -204.209) scale(5.58453)"/><path d="M249.4 122.3c.1 1.8-1.1 1.3-1.1 1.7 0 .4 1.2.7 2.1-.4 0 0 .7-1.7-1-1.3zM250.1 124.2c0 1.4-1 1.1-1 1.4 0 .3 1.4.3 2-.2 0 0 .5-1.4-1-1.2zM250.4 126c-.3 1.2-1.1 1-1.1 1.3 0 .3 1.4 0 1.9-.5-.1 0 .4-1.1-.8-.8zM194.9 89c-.9-.5-1.9-.9-3-1.1.4.2.6.6.6 1-.5-.4-1.2-.6-1.8-.6.5 0 .6.9.6.9-.5-.1-1 0-1.5.1-.8.4-1.7.4-2.5 0 0 0 1.1 1.4-.8 1.5-.6 0-1.3 0-1.9.1.4.3.7.7.9 1.1.1.3.2.7.2 1.1-.7-.9-1.3-.1-1.3-.1.3.6.5 1.3.5 1.9-.1.8-.2 1.6-.5 2.4 0 0 1-2.4 2.1-2.7 1-.3 1.4.3 1.4.3s0-1.5-.8-2.2c0 0 .7-.4 1.9.5 2.3 1.2 2.4 1 3.6 1 1.2 0 1.2.3 1.2.5-.2.5-.7.8-1.2.8-.7 0-1.1.4-.7.5.4.1 1.2-.4 2.4 0s1.1-.4 2.5-.1c1.4.3 1.2-.4 1.2-.4-.8-.2-1.6-.2-2.4-.1-.8.2-1.2-.1-1.7-.1.2-.3.8.1.5-1-.3-1.1.2-2-.1-3.1-.3-1.1.8.1.8 1.9 0 1.8.6 1.7.6 1.7s1.4 0 1.3-1c-.1-1 .6.4 1.6-.6s2.8-1.7 3.6-1.4c0 0-1.2.2-1.2 1.1 0 .9.2.2 1 .4.5.1.9.4 1.3.7.1-.6-.1-1.1-.5-1.5.8.4 1.1 1.1 1.1 3.3 0 2.2-.6 3 .4 5.3s.4 2.3-.2 2.2c1 1.2-.3 1.8 1 2.7-.2.4-.8.5-1.2.3-.3-.2-.4-.4-.4-.7 0 0-1.1.3-.3 2.1.5 1.3.5 2.7.1 4.1 0 0 .1-2.3-1.8-2.4 0 0 1.4.5.6 2.3-.4.6-.2 1.4.4 1.8 0 0 .1 0 .1.1 0 0-.5-1.1 1.1-1.1-.2-1.4.7-1.7 1.3-1.3 1-.4 1-2 .3-3.1-.6-1.1.8-1.4 0-2.6 1.5 0 1.1 3.1 1.1 3.1s1.2-1.2.4-3.9c-.7-2.6-1.6-2.3-1.4-3.7.3.5.8.9 1.3 1.1.9.4 1.6 0 2.2 1.2 0 0 .8-.9-1.1-1.9-1.9-1-1-1.5-2.3-2.4-.4-.2-.6-.7-.4-1.2.2.3.6.4.9.3-.5-.8-.9-1.8-1-2.8-.2-1.6-1.3-1.9-.5-2.2-.2-.9.5-.5.5-.5-.4-1.1-1.3-2-2.4-2.5-1.9-1-.7-1.8-.7-1.8 1-.9 1.4-2.3.9-3.5-.3-.7-1-1.3-1.7-1.5.2 0 0 1.1 0 1.1-.3-.8-.8-1.6-1.5-2.1 0 0 .8 1.5-.3 1.5-.3-.3-.7-.6-1.2-.6-.8 0-1.5-.3-2-1 0 0 .3 1.9 2 1.9 1.3 0 1 1.5 1 1.5.5-.3.7-.9.4-1.3.8.3 1.5 1 1.7 1.8.1.5-.1 1.1-.4 1.4-.3.4-.8.8-1.3.9-.4 0-.8.1-1.2.3-.2.1-.3.3-.3.5-.3-.4-.8-.7-1.2-.8-.2 0-.4-.1-.6-.1-.1-.1-1.2 0-1.3.7z" class="st0" style="fill:#fff" transform="translate(-472.313 -204.209) scale(5.58453)"/><path d="M191.5 98.8s-.5-.5.7-.5c.5 0 1 .5 1.8.5s.5.6.1 1.2-1.2.4-2.5.2-1.7-.6-2.4.1c-.3.3-.5.7-.6 1.2-.1-.8-.1-1.6 0-2.3.4-1 1.2-1.9 2.1-2.5.6-.2-1 1.1.1 1.8.7.4.7.3.7.3zM199.1 98.8s.3-.5-.7-.5c-.5 0-1 .5-1.8.5s-.5.6-.1 1.2 1.2.4 2.5.2 1.7-.6 2.4.1.6 1.2.6 1.2c.2-.8.1-1.6-.1-2.4-.4-1-1.1-1.9-2-2.4-.6-.2.9 1-.1 1.8-.3.2-.5.3-.7.3zM193.7 88s-1.7-1-1-1.9c.3-.4.8-.5 1.2-.2.1 0 .1.1.2.1.2-.6.2-1.3.1-1.9-.2-.8-1-1.3-2.3-1.6-1.3-.2-1.7.4-3.5-.2.2.2 1.3.4 1.6 1.3.3.9 0 1.3.9 2.2-2.3 0-1.3-2.2-2.9-2.7.4.3.2 1.2-.7.8-1.4-.3-2.9-.3-4.3 0 .8.2 1.6.4 2.3.8.2.1 1.6 1.3-.4 1.3-1.5 0-3 .3-4.4.8 1.6 0 2 1.1 2 1.1-1 .1-2 .5-2.8 1.1-1.3.9-2.6 3.7-3.4 3.7.4.5 1.4.2 1.4.2s-1.4 1.7-2.3 1.5c0 .5 1.1.3 1.1.3-.5.3-1 .5-1.5.6-.8.3-1.4 1-1.7 1.9.4-.5 1-.8 1.7-1 .5-.1.9-.2 1.4-.3-.2.2-.4.4-.5.7-.2.5 0 1-.4 1.3.7.3 1.4.2 2-.3-.2.3-.3.8-.1 1.1.3.6.8.2 1 .9.2.4.2.8 0 1.2.6-.5 1-1.2 1.1-2 .2-1.2-.4-2.7 0-3.6-.5 0-.7.8-.7.8s-.4-1.6.1-2.3c-.3 0-.6.8-.6.8-.1-1.2 0-2.3.3-3.5.4-1.1 1.4-1.9 2.5-2 1.6-.1 3.1.1 4.6.5-1.7-.8-1.5-1.8-1.5-1.8.6-.3 1.2-.5 1.9-.4.7 0 1.5.1 2.1.4 0-.6-.3-1.2-.8-1.5 2.5.3 4.5.8 6.3 1.8zM171 102.8c-.9.7-1.5 1.7-1.9 2.8-.3 1-.4 2.1-.1 3.2 0 0 .3-1.4 1.1-1.2.4.5.4 1.2.1 1.8.5-.2.9-.7.8-1.3.2.7 0 1.4-.4 2-.6.8-1 1.8-1 2.8.3-.7.7-1.3 1.2-1.8.6-.4 1.1-1 1.4-1.8.4.6.3 1.4-.1 2 .4-.3.7-.7 1-1.1.3-.6.4-1.3.2-1.9 0 0 .8.2.5 1.4-.2.6-.2 1.2 0 1.8.2-.8.6-1.4 1.2-1.9 1-.6 1.6.5 1.9-.2.3-.7 1.3-.4 1.3-.4-.5.3-.9.8-1 1.4-.1.4 0 .7.3 1 0-.6.5-1 1.1-1 .6 0 1.1-.1 1.6-.4 0 0 1 .5-.6 1.3.5.1.9.1 1.4 0 .5-.1.9-.4 1.2-.8.5-.5 1.8-.4 1.9-.1-.6 0-1.2.4-1.3 1 .8-.5 1.8-.6 2.7-.2-.9-.6-1.4-1.6-1.4-2.7-.1-.6-.5-1-1.1-1.1-.2 1.1-1.4.7-1.7 1.1-.2-.4-.1-.8.3-1 .1-.1.3-.1.5-.1-.3-.4-.9-.5-1.3-.2l-.1.1c-.8.7-1.5.9-2.1.6 1.2-.3.6-1.3 1.7-1.6-.4-.4-1.1-.4-1.5 0-.7.5-.6 1-1.3 1 0 0-.5-.4.2-1s.6-1.2.6-1.2c-.5.4-.9.2-1.7.7-.5.3-1 .8-1.3 1.3 0 0 1-.7 1.3-.4.3.3 0 .8-.9 1-1.2.4-.9 1.3-1 1.2-.3-.9-.2-1.9.4-2.7.8-1 1.5-.9 1.9-1.7.2-.5.2-1.1-.1-1.7-.3 1.3-1.5 2.1-2.8 2 .6-.6.9-1.4.5-2-.3.7-.9 1.3-1.7 1.4-.6.2-1.1.8-1.1 1.5-.3-.5-.3-1.2.1-1.7.5-.6 1.6-1.2 1.4-2.3-.8 1.2-.9.6-1.9 1.6-.1-.8 1-1.2.5-2.4 0 .8-.4 1.4-.9 1.9z" class="st0" style="fill:#fff" transform="translate(-472.313 -204.209) scale(5.58453)"/><path d="M175.6 99.7c-.4.8.5 1.6 0 3.1.4-.4.6-1 .6-1.6-.2-1.7.8-2.2.8-2.2-.6 0-1.1.2-1.4.7zM173.9 98.6c-.3.4-.4 1-.3 1.5.3 1 0 1.2 0 1.2.6-.4 1-1 1-1.8.1-.5.3-1 .7-1.3-.1 0-1.1-.1-1.4.4zM200.8 114.6s2.9 2 2.9 4.2-2 4.4-2 4.4 1.4-3.4-.7-3.4c-1 0-1.4.8-.8 1.5-1.2 0-1-2.2-1-2.2-.6.1-.9.7-.8 1.2 0 .1 0 .2.1.2-1-.4-.5-2.1-.5-2.1s.4 1 2.2-.1c.5 1.5 2.2.5 2-.7-.2-1.1-.6-2.1-1.4-3z" class="st0" style="fill:#fff" transform="translate(-472.313 -204.209) scale(5.58453)"/><path d="M206 124.4s-1.8-4.2 1.7-4.2c-.8-.9-1.3-2-1.2-3.2 0-2 .2-2.2 1.2-4.1 1-2-1-3.4-1-3.4s.6 2.9-1.1 2.9c-1.9 0-1.9 1-1.9 1s1.7.2 1.7 2.7c-.6-.7-1.5-1.2-2.5-1.1 0 0 2.9 2 2 4.7-.9 2.7.1 3.2 1.1 4.7zM183.4 91.4c-.5-.8-1.5-1-2.3-.6 0 0-.1 0-.1.1-1.5.7-1 2.5-.8 3.5.2.8.5 1.6.8 2.4 0 0-.2-1.9.5-2.7.3-.3-.6-.7-.3-1.2s.8-.3 1.6-.1c.4.1.8-.1.9-.4v-.3c-.1-.2-.1-.5-.3-.7zM204 89.7s1.3-.7 1.9.1c.6 1.1.9 2.2 1 3.4-.1.9-.2 1.7-.5 2.5 0 0-.5-.9-.7-1.3-.2-.4-.2-.8 0-.7.2.1.2-2.3-.1-2.4-.3-.2-.1.6-.4.3-.3-.4-.6-.9-.7-1.5 0-.2-.3-.4-.5-.4zM203.5 88.8s1.4-.7 2.2-.1c-.4-1-1.2-.9-1.2-.9.1-.5.1-1.1 0-1.6-.2-.5-.5-.9-.9-1.2.1.1.6 2.4-.1 3.8zM189.6 95.7c.5 0 1 0 1.6.1 0 0-2.7-.1-3.7 1.4.2-.7.7-1.3 1.3-1.5.1 0-.5-.2-.5-.8 0-.6.7-.8.5-.7-.3.3-.3.7-.1 1l.1.1c.5.4 2.1-.1 2.1-.1-.4.3-.8.4-1.3.5zM200.4 95.7c-.5 0-.9 0-1.4.1 0 0 2.5-.1 3.5 1.4-.2-.7-.7-1.3-1.3-1.5-.1 0 .5-.2.5-.8 0-.6-.7-.8-.5-.7.3.3.3.7.1 1.1l-.1.1c-.5.4-2.1-.1-2.1-.1.3.2.8.3 1.3.4zM184.6 99s0 .9-1.5 1.5-2.4 1.2-2.4 2.9c0 .6-.2 1.1-.7 1.5.4-.1.8-.4 1.1-.8.7-1.4.7-2.2 1.6-2.2-.4.6-.4 1.3-.2 1.9.3 1.1.8.9.4 1.9.5-.2.8-.8.6-1.3 0 0 .7.3.3 1.3 0 0 .9-.3.5-1.1.9.6 1.4 1.6 1.4 2.7-.1 1.3.4 2.6 1.2 3.6 0 0-.7-1.9-.3-2.9.4-1 1.2-2.4.5-3.8.1.9 0 1.7-.4 1.9-.4.2-1.1.1-.8-1.2.3-1.2.9-2.2.2-3.1.2.6-.1 1.6-.5 1.6s-.6-.3-.3-1c-.5.2-.8.6-.9 1.1-.7-.4-.9-1.3-.4-2 0 0 0-.1.1-.1.4-.6.6-1.5.5-2.4zM207.3 97.2c1.2.9 2 2.2 2.4 3.7.1-1.2-.2-2.3-.9-3.3.7-.4 1.1-1.2 1.1-2-.2.5-.6.9-1 1.2-.5.2-1.1.4-1.6.4z" class="st0" style="fill:#fff" transform="translate(-472.313 -204.209) scale(5.58453)"/><path d="M192.2 101.3s.1.1 0 0c.2.3.9.8 3.1.8 2.6 0 3.1-.6 3.1-.6z" class="st2" style="fill:#9aa4af" transform="translate(-472.313 -204.209) scale(5.58453)"/><path d="M191.2 102.2s.4 1.3.6 1.3c.2 0 .3-1 .4-1.5 0-.1-.7-.6-1 .2zM199.2 102.2s-.3 1.3-.5 1.3-.3-1.5-.3-1.6c.3-.2.6-.1.8.1v.2zM193.8 101.2c-.1 0-.1 0-.2.1 0 .3.1.8.2.8.2 0 .2-.4.3-.8 0 0-.2 0-.3-.1zM194.6 101.2c-.1 0-.1 0-.2.1.1.4.1.9.2.9s.2-.4.3-.8c0-.1-.1-.1-.3-.2zM197.2 101.5c0 .1.1.2.1.3v.3c0 .1-.1.2 0 .2s.5-.3.5-1c-.1-.1-.7-.1-.6.2zM196.2 101.4c.1.4.2.8.3.8.1 0 .2-.5.2-.8 0 0-.1-.1-.2-.1s-.2 0-.3.1zM195.4 101.4c.1.3.2.8.3.8.1 0 .2-.5.2-.8 0 0-.1-.1-.2-.1s-.2 0-.3.1zM193.5 109.4c0-.2.1-2.1 1.7-.7.5.5.3-.6 1.5-.6s.8 1.3.4 2c-.3.7-.8.1-1.6 0-.9 0-2 .9-2-.7zM197.5 112.2c-.8-.2-1.7-.3-2.5-.2-2.3.3-1.6.6-2.1.8-.5.2.3.6.9.7.6.1 1 .6 1.4.6.4 0-.2-.4.3-.8s.4-.5 1.2-.3c.8.2 1.5-.5.8-.8zM192.4 110.7s-.5.6-.4.2c.1-.4.4-1.6.7-1.6.3 0-.1.4.1.8s.1.5-.4.6zM198.3 110.9s.4.8.3.4c-.1-.4-.1-1.8-.5-1.8s0 .5-.2.9-.1.5.4.5zM203.2 132.1c-.7.3-.7 1.9-.6 2-1 0-.8-2-.8-2-.6.8-1 1.7-1.3 2.6-.1.6-.6 1.1-1.2 1.2 0-.7-.3-1.4-.7-2 .3 1 0 2.2-.7 3 0 0-.1-.8-.7-.8s-.5 1.3-.5 1.3c-.7 0-.9-1.4-.9-1.3-.5-.1-1.1.3-1.2.8 0 .2 0 .5.1.7-1.2-.4-1.2-3.4-2-4.3-.3.8-.3 1.6-.1 2.4-.6 0-1.2-.7-1.4-2.7-.1-2.1-1.1-2.2-1.1-2.2s.4-1.7-1.1-1.7-4.2-1.7-4.2-.3-.5 4.4-11.6 12.2c1-.2 0 2 .7 1.9-1.6 1-1.2 2-4.1 3.3-3 1.5-3.2 2.6-3.4 2.9-.2.4-.2-1.8 1.2-3.1 1.1-.9 2.1-1.8 3-2.9-1.4.6-2.8 1.3-4 2.2-.3.3-.9.8-1 1-.1.2-1.5 1.3-2 .9-.5.9-.4 1.6-.8 2-.5.6-1.1 1.1-1.8 1.5 3.4-.8 2 2 2.1 1.9.1-.1 3.3-1.9 6.8-3.8 2.2-1.1 4.4-2.1 6.7-2.9.6-.2 2.5-1.2 3.2-1.5 3-1.2 11.7-4.5 14-5 2.2-.5 4.4-1.5 6.3-2.8 1.2-.7 2.2-1.7 3-2.8 1.4-1.1.8-2 .1-1.7z" class="st0" style="fill:#fff" transform="translate(-472.313 -204.209) scale(5.58453)"/><path d="M170.4 122.9c.5 1.7.8 3.4 1 5.1.5 3.8-.9 5.6-.9 5.6-.5.6-.9 1.3-1.3 2-.3.5-.4 1.2-.2 1.8.2.6 1.2 1.1 1.2 1.1s1.3-.3.8 1.4-.7 3.4.9 4.8c1.4 1.1 3.4 1.1 4.8.1 0 0 1.5 0 1.8-.6.3-.6-.9-1.6-.9-1.6s.4-1.7.5-2.6c0 0 1.4.1 1.6-.3.2-.4-.2-1.3-.2-1.3s1.2-1.1 1-2.2c.7-.5 1.2-1 1.7-1.7 0 0 1.9.7 2.2.4.3-.3-.4-2-.4-2 .4-.5.7-1.1.9-1.7.4 0 .9 0 1.3-.1 0 0 1.5 1.4 1.8 1.2.3-.2.1-1.8.2-2.1.5-.6 1.5-1.8 1.4-2.7-.3-1.6-1.5-2.9-3.2-3.4 0 0-.8.1-.5-.8.2-.6.7-1 1.3-1.2 0 0 3.3-4.3-1-6.9-4.3-2.6-9.7-3.9-12.8-2.1-3.1 1.8-5.1 5.2-3 9.8z" class="st2" style="fill:#9aa4af" transform="translate(-472.313 -204.209) scale(5.58453)"/><path d="M171.3 120.2c0 .4-.1 1.3.7 5.3.5 2.1.6 4.2.4 6.3.7-.7 1.3-1.6 1.6-2.6.5-1.7-.7-1.7-.5-5.2.1-2.3 1-2.4 1-2.4-.1.8-.1 1.5-.1 2.3.4 2.3 1.2 2.1 1.2 2.1s-.9-4.8 2.1-6c.5-.3 1.2-.1 1.5.4.1.1.1.2.1.3 0 0 1.7-.4.6-3.3.8-.7 1.9-.8 1-1.5-.9-.8-2.7.1-3.2.4-.5.3-.2-2.1-1.3-1.8-1.1.3-.5 1.5-1.2 2.2-2.9 3-2.3 7.3-3.9 3.5zM182.4 117.8c-.8-.4-.1 1.9-.5 3.3-.4 1.3-1 3.4-.1 3.1.9-.3.4-.7 1.2-2 .8-1.3 3.2-2.3-.6-4.4zM175.6 144.6c-.7-.1-1.3-.5-1.8-1-.7-.5-.8-1.5-.3-2.1l.3-.3c1.1-.9 2.7.7 2.7.7s.3-1.4-.8-1.9-2-.7-2.4-1.4c-.3-.7-.4.8-1.2 1.9-.8 1.2-.7 2.7.3 3.8 1.1.5 2.2.6 3.2.3zM176 138.4s-1.7.2-2-.8c-.2-1.7-.6-1.7-.6-1.7-.4.1-.8-.2-.8-.8 0-.7.1-1.3.5-1.9.5-1.4 1.6-1.6 1.9-.4.3 1.2.6 1.5 1.4 1.3.7-.2 2.8.4 2.8 1.8 0 1-.6.9-.6.9s-1.3-1.6-2.5-.7c-1.2 1-.1 2.3-.1 2.3zM180.8 133.3s-2.4-.2-2.5-1.6c-.2-1.4.3-2 .2-2.7-.1-.7.8-.4 1.6-.5.8-.1 2.4 0 2.8.7.2.5.3 1 .3 1.5 0 0-1.4-1.3-2.5-.5-.8.5-1 1.7.1 3.1zM183.7 127.9s-.9-1.4-1.6-1.5c1.3-.7 2.8-1 4.2-1 1.4.1 2.4 1.1 2.2 2.2-.1.7-.3.6-.3.6s-.5-2-2.1-1.5c-.7.1-1.2.8-1 1.5 0 .1.1.3.1.4-.5.5-1.5-.7-1.5-.7z" class="st0" style="fill:#fff" transform="translate(-472.313 -204.209) scale(5.58453)"/><path d="M177.6 143.9s-2.2-3.2-3.2-1.9c-1 1.3 3.2 1.9 3.2 1.9zM176.5 137c-1.1.8 2.7 2.6 2.7 2.6s-1.6-3.4-2.7-2.6zM181.3 130.9c-1.4.9 2.2 3 2.2 3s-.9-3.9-2.2-3zM186.4 127.7c-1.6.4 1.1 3.6 1.2 3.5.1-.1.4-4-1.2-3.5zM171.9 134.5c-.3.4-.3.9-.1 1.3.4.5.4 1.2 0 1.8l-.3.6s-.5-1.2-1.1-1.4c-.6-.2.9-2.4 1.5-2.3zM193.1 101.5c0 .1-.1.2-.1.3v.3s.1.1 0 .2c-.1 0-.5-.3-.5-1 .2-.1.7-.1.6.2z" class="st0" style="fill:#fff" transform="translate(-472.313 -204.209) scale(5.58453)"/><path d="M176.5 111.4c-.1.1-.3.2-.4.3-.1-.3-.3-.5-.5-.6-.3-.1-.7-.1-1 .1-.6.4-1.2.9-1.9 1.2-1.2.6-2 1.9-1.8 3.3 0 .5.5.9 1 .9s.9-.4 1-.9c.1-.4.5-.4.7-.4.1 0 .2 0 .8.6 1 1 2.4 1.6 3.9 1.5.6 0 1.2.8 1.3 1.1.2.4.7.6 1.2.5.1 0 .2-.1.3-.1.3.3.6.6 1 .8.4.4.8.8 1.1 1.3.2.3.6.5 1 .4.4 1.1 1 2.3 2.3 2.3.4 0 .7-.2.9-.5.1-.1.1-.3.1-.4 0-.2-.1-.4-.2-.6l-.3-.6.2-.2c.3-.1.5-.3.7-.6.3.2.5.6.5 1 0 2.2 2.1 3 3.2 3.2.5.1 1-.3 1.1-.9 0-.4-.2-.8-.5-1-.2-.1-1.1-.6-1.1-1.2 0-.2.1-.5.1-.7.4-1 .2-2.2-.6-3.1-.4-.3-.8-.6-1.2-.8-.6-.3-.9-.5-.9-1.2-.1-.5-.5-.9-1.1-.9-.5.1-.9.5-1 1.1-.2 0-.3 0-.5.1l-.1.1c0-.2.1-.4.2-.7.2-.5.3-1 .3-1.5s-.1-.9-.3-1.3c-.3-.5-.9-.6-1.4-.4-.2.1-.4.3-.4.5-.1-.2-.3-.4-.4-.5-.2-.1-.4-.2-.6-.2-.1-.4-.3-.7-.7-.8-.4-.1-.7 0-1 .3-.1 0-.2.1-.3.1l-.3.1v-.2c-.1-.4-.6-.5-1-.5s-.4-.2-.8-.2c-.1-.1-.5.5-.6.4-.8 0-1.5-.4-2-.2zm-1.2 1.7v.2-.2zm1.6.1v.2c-.1-.1-.1-.1 0-.2zm11.5 6.5v.3c0 .1 0 .2-.1.3 0-.2.1-.4.1-.6z" class="st2" style="fill:#9aa4af" transform="translate(-472.313 -204.209) scale(5.58453)"/><path d="M175.2 112s-1 .7-2 1.3c-.9.4-1.4 1.4-1.3 2.4.1-.8.9-1.4 1.7-1.3.6.1 1.1.4 1.5.9.8.9 2 1.3 3.2 1.2 1.4 0 2.2 1.6 2.2 1.6s-.1-2.1-1.7-2.3c-1.6-.2-1.2-.8-1.2-1.1.1.7 1.4.7 1.9.9.5.2 1.1.4 1 .9.6 0 .5-.7.6-.7.5.3.8.9.6 1.4-.3.9.3 1.3 1 1.7.6.4 1 1 1.4 1.5 0 0 0-1.2-.4-1.6-.4-.4.9.6 1.1 1.2.2.6.7 2.7 1.7 2.7 0 0-.8-1-.3-1.7s1.2-.4 1.2-1.4c1.1 0 2 .9 2 2v.1c0 1.9 2.4 2.2 2.4 2.2s-1.6-.7-1.6-2.1c0-.9.7-2.1-.2-3-.9-.9-2.3-.8-2.4-2.6-.5.7-.3 1.7.4 2.3 0 0-2 .1-1.6-1.2-.8.5 0 1.5 0 1.5s-1.6-.8-1.6-2 1-2 .3-3.2c.1.6-.1 1.3-.6 1.7-.7.6-1.2 1.4-.7 2 0 0-.9-.3-.9-1s.3-.7.6-1.4c.1-.5 0-1-.4-1.3.2.5.1 1-.3 1.4-.7.5-1.6-.1-1.3-.8.3-.7.7-.6.8-1.4-.2.3-.8.4-1.2.5-.5.2-1.1 0-1.4 1-.5-.5-.5-1.3-.1-1.8.1-.1.2-.2.3-.2 0 0-1.9-.1-2 1.1-.3-.1-.6-.9.3-1.5-.2-.1-1.7.2-1.9 1.4 0 .1-1 0-1.1-1.3z" class="st0" style="fill:#fff" transform="translate(-472.313 -204.209) scale(5.58453)"/><path d="m95.8 123.8-3.7-4 .2-2.4 11 1.2-.3 2.8-6.9-.7 3.1 3.3v.4l-3.7 2.7 6.9.7-.3 2.8-11-1.2.3-2.4zM94 110.5l10.8 2.6-.7 2.7-10.8-2.6zM106.4 101.7l1.9.7-2.8 8-10.5-3.7.9-2.6 8.5 3zM111.1 92.2l1.8.9-3.8 7.5-9.9-5 1.2-2.5 8.1 4.1zM111.9 82.1l3.8 7-.7 1-12-2.7 1.7-2.4 6.5 1.5-3.2-5.9 1.3-1.8 6.6 1.3-3.4-5.7 1.7-2.4 6.2 10.6-.7 1zM121.1 66.1l11.1 4.8-2.2 2-2.2-1-3.6 3.4.9 2.2-2.1 2-4.2-11.2zm4.8 5-4.2-2 1.7 4.3zM139.5 63.6l1.2 1.7-7 4.8-6.2-9.2 2.3-1.6 5.1 7.5zM148.9 58.7l.9 1.8-7.5 3.8-5-9.9 2.5-1.2 4.1 8.1zM160.3 45.5l.6 2-4.7 1.3.7 2.4 4.7-1.3.6 2-4.7 1.3 1.2 4.4-2.7.8-3-10.7zM170.4 43.7c1.7-.3 3.4.2 4.8 1.2 2.4 1.7 3 5.1 1.2 7.5-.1.1-.2.3-.3.4-2.3 2.5-6.2 3-9.1 1.1-2.4-1.7-3-5.1-1.3-7.5.1-.1.2-.3.3-.4 1-1.4 2.6-2.2 4.4-2.3zm1 9c.9-.1 1.8-.5 2.4-1.2.6-.7.8-1.6.7-2.6-.1-.9-.5-1.8-1.2-2.3-1.6-1-3.7-.8-5 .6-.6.7-.8 1.6-.7 2.5.1.9.5 1.7 1.2 2.3.7.6 1.7.8 2.6.7zM187.1 43.2c1.7 0 3.3.8 4.5 2 1 1.1 1.6 2.6 1.5 4.1-.1 1.5-.8 2.9-2 3.9-2.8 2.1-6.7 1.8-9.1-.6-1.1-1.1-1.6-2.6-1.5-4.1.1-1.5.8-2.9 2-3.9s2.9-1.5 4.6-1.4zm-.7 9c.9.1 1.9-.2 2.6-.8.7-.6 1.1-1.5 1.1-2.4.1-.9-.2-1.8-.8-2.5-.6-.7-1.5-1.1-2.5-1.1-.9-.1-1.9.2-2.6.8-.7.6-1.1 1.5-1.1 2.4-.1.9.2 1.8.8 2.5.7.7 1.6 1.2 2.5 1.1zM206.2 46.6l-.4 2-3.9-.9-2 8.8-2.7-.6 2-8.8-3.9-.9.4-2zM209.8 47.8l4.5 1.8c.9.3 1.7.9 2.2 1.8.4.7.5 1.5.2 2.2-.4.9-1.2 1.5-2.2 1.5.6.4 1 1 1.2 1.6.2.6.2 1.3-.1 1.9-.3.8-.9 1.5-1.8 1.8-1 .3-2.1.2-3.1-.2l-5-2zm.2 7-1 2.4 1.4.6c.5.2 1 .3 1.6.3.4-.1.7-.4.8-.8.1-.3.1-.7-.1-1-.2-.4-.6-.6-1-.8zm1.6-4.1-.9 2.2 1.3.5c.3.2.7.2 1.1.1.3-.1.5-.4.7-.7.1-.3.1-.6 0-.9-.2-.3-.5-.6-.9-.7zM227.8 56.3l-1.4 12-2.6-1.5.3-2.3-4.3-2.5-1.8 1.5-2.5-1.5 9.5-7.3zm-3.3 6.1.6-4.6-3.6 2.9zM235.5 73.2l-1.3 1.6-6.6-5.3 7-8.6 2.1 1.7-5.7 7zM242.9 80.9l-1.5 1.4-5.8-6.1 8-7.6 1.9 2-6.6 6.2zM253.7 94.5l-2.1 1.3c-1.3-.8-2.4-1.8-3.2-3.1-1-1.4-1.4-3.2-1.1-4.9.6-2.9 3.4-4.9 6.4-4.3.2 0 .4.1.5.1 1.7.5 3.1 1.7 4 3.2.8 1.2 1.2 2.5 1.3 3.9l-2.1 1.3c0-1.3-.3-2.7-1-3.8-.5-.9-1.3-1.6-2.3-2-.9-.3-1.9-.2-2.6.3-.8.5-1.4 1.3-1.5 2.2-.1 1 .1 2.1.7 2.9.3.5.6.9 1 1.3.6.6 1.3 1.1 2 1.6zM257.1 105.6l-1.9.8-3.3-7.8 10.2-4.4 1.1 2.5-8.3 3.6zM268.7 113.4l.7 2.7-6.1 1.6c-1.3.4-2.8.3-3.9-.5-2.3-2-3.1-5.2-2-8 .7-1.2 1.8-2 3.2-2.3l6.1-1.6.7 2.7-6.2 1.6c-.7.1-1.3.6-1.6 1.2-.3.6-.4 1.4-.2 2.1.1.7.6 1.4 1.2 1.8.7.4 1.4.5 2.2.2zM270.1 120.7l.4 4.8c.1 1-.1 1.9-.6 2.8-.4.6-1.1 1.1-1.9 1.1-1 .1-1.9-.4-2.3-1.3-.1.7-.4 1.3-.9 1.8-.5.4-1.1.7-1.7.8-.9.1-1.8-.2-2.4-.8-.7-.8-1.1-1.8-1.1-2.9l-.5-5.4zm-6.2 3.3-2.6.2.1 1.6c0 .5.2 1.1.4 1.6.3.3.7.5 1.1.4.4 0 .7-.2.9-.5.2-.4.3-.8.2-1.3zm4.4-.4-2.4.2.1 1.4c0 .4.2.7.4 1 .2.2.6.3.9.3.3 0 .6-.2.8-.4.2-.3.3-.7.2-1.1z" class="st1" style="fill:#00194a" transform="translate(-472.313 -204.209) scale(5.58453)"/></svg>