<svg xmlns="http://www.w3.org/2000/svg" width="816.258" height="930.191" fill="none" viewBox="0 0 816.258 930.191"><path fill="#038c40" d="M792.231 327.363V24.294h-768.2v303.07S11.81 778.861 408.134 904.72c396.317-125.858 384.096-577.357 384.096-577.357Z"/><path fill="#fff200" d="M792.24 24.294v303.07S804.46 778.87 408.146 904.72C11.81 778.87 24.03 327.363 24.03 327.363V24.294ZM816.226 0H.046v327.072c-.091 3.757-.483 32.328 4.45 75.591 4.788 41.722 15.586 105.869 40.436 174.548 28.088 77.68 67.904 145.201 118.344 200.666 63.262 69.564 143.222 120.04 237.673 150.034l7.205 2.28 7.186-2.28c94.46-30.003 174.42-80.47 237.673-150.034 50.449-55.465 90.265-122.986 118.344-200.675a780.695 780.695 0 0 0 40.418-174.548c4.924-43.254 4.523-71.825 4.44-75.582V0Z"/><path fill="#fff200" d="M165.656 267.704c-10.578 0-17.108 8.499-21.139 16.105-2.608 4.86-6.41 11.098-12.74 14.335l-24.686 12.604a5.928 5.928 0 0 1-4.441.383c-7.25-2.28-17.054-11.51-20.857-3.22-4.924-.428-9.329 2.69-8.472 8.61 2.681-2.645 7.606-3.21 15.485-1.314H85.15c-7.432 0-9.593 5.59-7.815 8.955 1.66-1.942 4.897-2.699 11.162-2.699h18.485l60.992-20.519c8.07-2.717 12.53-10.688 12.53-18.348 0-7.66-4.65-14.892-14.847-14.892z"/><path fill="#fff200" d="M188.446 202.17c4.204 0 14.3.055 14.3.055-8.3-10.186-17.428-15.786-30.441-15.375l2.517-6.703c-33.469-.766-24.86 25.443-41.449 25.425h-5.991c-2.17 7.588.766 14.81 8.6 16.908.501-5.718 5.991-8.682 11.372-8.682 6 0 10.505 2.426 10.505 7.36 0 6-6.128 9.301-12.338 9.301a14.482 14.482 0 0 1-7.898-2.188c-2.398 4.596-.62 12.585 3.393 15.795 4.204-9.822 33.103.985 38.776-28.617a15.582 15.582 0 0 1 1.878 7.022c0 16.78-32.264 26.419-37.116 46.099 6-6.475 13.086-9.658 21.12-9.658 15.203 0 25.663 11.728 23.082 28.727 5.271-6.156 8.39-19.57 6.384-26.41l13.278 20.902c4.642-15.349-2.399-41.467-8.965-51.945h11.491c-4.058-12.603-14.381-24.322-22.498-28.015zm-38.165 0a34.527 34.527 0 0 1 18.22-5.225c-4.285 14.7-15.347 9.977-18.22 5.19zm162.109 42.89h18.904c10.47 0 16.306-7.077 16.306-15.795 0-8.71-5.38-15.786-16.306-15.786H238.12a9.338 9.338 0 0 1-6.949-2.8 9.575 9.575 0 0 1-2.763-7.04 9.539 9.539 0 0 1 2.781-6.977 9.284 9.284 0 0 1 6.931-2.68h15.668c27.294 0 41.037 5.161 65.952 5.161 20.209 0 24.431-6.074 27.933-12.211H237.628c-10.925 0-16.98 7.496-16.98 16.707 0 9.21 6 16.844 16.98 16.844h93.52c6.193 0 9.038 3.948 9.038 8.81 0 4.86-2.845 8.809-9.028 8.809H212.996c3.976 11.554 6.53 26.82 5.125 39.223l44.96-11.765c-4.788-6.246-7.305-11.581-8.017-17.217l18.604 19.114c8.9 9.138 21.823 18.066 33.432 18.066 10.634 0 15.96-4.24 22.07-10.76l5.626 24.868c1.815 7.98-1.824 12.047-11.217 12.047-6.602 0-15.366-6.165-21.449-6.165-1.915 0-3.538.848-4.67 3.383-5.334-.328-9.392 3.101-8.389 8.135 2.672-2.508 7.597-3.046 15.476-1.222h-3.593c-7.451 0-9.594 5.253-7.834 8.417 1.979-2.17 6.475-2.553 11.171-2.553h39.068c5.992-17.82 6.138-45.297-1.367-60.955-11.929-.091-27.76-7.387-29.602-15.658z"/><path fill="#fff200" d="m267.43 273.403-25.753 6.73 11.49 22.416c3.046 5.928-.61 9.092-7.186 9.092-7.204 0-15.412-6.174-20.71-6.174-1.906 0-3.52.849-4.651 3.384-5.335-.32-9.393 3.1-8.39 8.134 2.672-2.507 7.596-3.036 15.476-1.212h-3.593c-7.451 0-9.594 5.243-7.843 8.417 1.988-2.18 6.475-2.554 11.18-2.554h39.068a30.977 30.977 0 0 0 5.153-13.269c-14.044-10.906-12.302-21.403-4.24-34.964zM95.6 231.016l4.56 15.448a3.52 3.52 0 0 0 2.253 2.426 7.296 7.296 0 0 0 2.143.283l40.937.255a36.533 36.533 0 0 0-10.168 19.698L95.518 257.18a4.943 4.943 0 0 1-2.544-1.733c-11.263-14.591-21.367-4.697-21.367-4.697 0-4.696 4.715-9.913 15.731-9.083-5.362-4.377-11.81-7.295-16.406-5.927 4.013-4.05 9.065-6.913 19.498.291-2.563-13.369-9.23-12.721-9.23-12.721s10.762-4.514 14.4 7.706zM331.77 71.269v7.587h-16.096V71.27h-16.096v7.587H283.48V71.27h-16.096v7.587H251.28V71.27h-16.096v7.587h-16.096V71.27h-16.105v7.587h-16.105V71.27H170.79v7.587h-16.105V71.27H138.57v7.587h-16.086V71.27H106.38v7.587H90.284V71.27H74.179v87.41H184.98v-13.952a26.72 26.72 0 0 1 7.423-19.042 26.036 26.036 0 0 1 18.622-7.934 25.754 25.754 0 0 1 18.622 7.934 26.447 26.447 0 0 1 7.423 19.033v13.953h110.803V71.278h-16.105Zm-217.09 64.995h-10.58V106.46c0-1.413.557-2.781 1.551-3.784a5.262 5.262 0 0 1 7.478 0 5.386 5.386 0 0 1 1.55 3.784zm40.472 0h-10.579V106.46a5.408 5.408 0 0 1 3.256-4.942 5.235 5.235 0 0 1 6.912 2.9c.274.647.402 1.34.402 2.051l.018 29.794zm122.302 0h-10.588V106.46c0-1.413.556-2.781 1.55-3.784a5.253 5.253 0 0 1 7.478 0 5.386 5.386 0 0 1 1.55 3.784zm40.481 0h-10.56V106.46c0-1.413.556-2.781 1.55-3.784a5.253 5.253 0 0 1 7.478 0 5.426 5.426 0 0 1 1.55 3.784l-.036 29.803zm415.02 2.608a127.555 127.555 0 0 0-32.63-18.549c-9.392 6.986-16.597 17.965-22.406 33.87a312.982 312.982 0 0 1 55.037-15.32zm-202.68 132.68h-73.778l-88.605 89.773h7.195c70.512-.019 120.104-28.618 155.187-89.773z"/><path fill="#fff200" d="M615.577 269.117c-8.992 2.116-19.333 2.435-32.447 2.435H545.62c-37.864 70.457-93 103.26-170.516 103.26H354.54l-63.81 64.658h67.148c107.765.045 204.715-42.734 257.7-170.353zm-338.261 183.94L141.189 591.065l33.906.328c38.12 0 54.353-8.573 84.994-39.625l97.734-98.645-80.507-.046z"/><path fill="#fff200" d="M622.608 210.816c-26.273 0-45.324-19.935-45.324-47.376 0-29.502 24.796-57.198 58.019-57.198 12.275 0 20.382 3.092 26.264 8.7-5.891 18.686-25.316 22.982-37.965 6.43-11.089 3.018-32.94 15.986-32.94 42.068 0 19.935 13.133 33.852 31.946 33.852 22.78 0 32.63-16.26 40.382-40.7 4.268-13.461 11.125-30.57 24.513-42.954-12.312-22.98-33.104-29.61-52.474-29.61-34.964 0-63.91 19.013-83.936 67.119-12.658 30.432-25.535 50.513-47.504 72.755l-33.724 34.171h116.986c25.325 0 37.061-4.359 50.449-12.028-56.204 173.198-180.311 202.663-260.089 206.52l-60.417 61.21c16.124.776 31.946.94 46.938.539L419.708 672.6c5.563 15.622 6 22.799 3.31 28.608-5.417-2.7-9.593-7.296-15.43-23.592l-19.397-54.872-32.064 32.93a80.051 80.051 0 0 0-15.914 22.699c-6.137-8.345-1.824-23.082 9.42-34.636l33.725-34.654-11.783-33.287a133.574 133.574 0 0 0-74.99 55.785 136.61 136.61 0 0 0-20.783 91.888 135.753 135.753 0 0 0 43.537 83.298 132.47 132.47 0 0 0 86.68 34.234c32.01.502 63.144-10.67 87.694-31.48a135.616 135.616 0 0 0 46.081-81.894c5.162-32.01-1.213-64.84-17.947-92.49a133.729 133.729 0 0 0-73.24-58.128l-19.451-54.863c-4.36.675-8.782 1.286-13.26 1.842l17.364 49.082a132.735 132.735 0 0 0-25.115-2.426c-3.502 0-6.959.164-10.388.438l-20.309-57.326c230.086-11.554 320.132-163.449 320.97-343.641a111.413 111.413 0 0 1-23.491-7.05c-7.897 23.985-20.583 47.75-52.319 47.75zM453.231 625.499c15.157 8.262 22.644 16.306 21.678 31.927a71.023 71.023 0 0 0-20.31-16.333l-39.706-21.64-6.566-18.404Z"/></svg>