<svg xmlns="http://www.w3.org/2000/svg" width="297pt" height="602pt" version="1.0" viewBox="0 0 297 602"><path fill="#69E242FF" stroke="#69E242FF" d="M230.5 3.591c-2.2 1.39-4.9 2.95-6 3.466-1.1.516-2.675 1.378-3.5 1.915-1.385.902-22.859 13.087-34.5 19.577-2.75 1.533-8.3 4.737-12.333 7.119-4.033 2.383-7.483 4.332-7.668 4.332-.185 0-4.909 2.7-10.499 6-5.59 3.3-10.407 6-10.705 6-.298 0-3.877 2.025-7.954 4.5-4.076 2.475-7.584 4.5-7.794 4.5-.21 0-3.807 2.025-7.993 4.5s-7.787 4.5-8.001 4.5c-.215 0-4.963 2.7-10.553 6-5.59 3.3-10.315 6-10.5 6-.185 0-4.91 2.7-10.5 6s-10.314 6-10.499 6c-.185 0-3.761 2.025-7.947 4.5s-7.787 4.5-8.001 4.5c-.215 0-5.039 2.748-10.722 6.106-5.682 3.358-13.031 7.573-16.331 9.366-11.3 6.139-16.005 8.784-21.75 12.227L1 134.145v57.927C1 242.393 1.193 250 2.471 250c.809 0 4.897-2.025 9.083-4.5s7.786-4.5 8-4.5c.41 0 14.884-8.308 17.446-10.014.825-.549 2.175-1.311 3-1.692.825-.381 5.924-3.303 11.331-6.494 5.408-3.19 9.956-5.8 10.107-5.8.151 0 4.277-2.31 9.169-5.133 4.891-2.823 11.143-6.363 13.893-7.866 7.32-4.002 12.116-6.716 31-17.54 9.35-5.36 19.475-11.096 22.5-12.747 3.025-1.651 5.95-3.328 6.5-3.726.55-.398 3.7-2.206 7-4.019 11.64-6.393 49.404-27.955 58.98-33.676 1.111-.664 3.136-1.705 4.5-2.313 1.363-.608 2.713-1.414 3-1.793.286-.378 2.32-1.584 4.52-2.68 2.2-1.096 6.588-3.511 9.75-5.367l5.75-3.374V58.883c0-65.098.633-60.433-7.5-55.292"/><path fill="#0A36D7FF" stroke="#0A36D7FF" d="M289 158.846c-2.475 1.544-7.542 4.471-11.26 6.504-3.718 2.033-10.168 5.711-14.333 8.173-4.165 2.462-7.746 4.477-7.959 4.477-.213 0-4.113 2.162-8.667 4.805-10.185 5.91-23.769 13.672-29.781 17.017-2.475 1.377-10.575 5.976-18 10.221-7.425 4.246-15.726 8.961-18.447 10.48-8.262 4.612-14.971 8.461-16.553 9.498-.825.541-2.444 1.395-3.597 1.898-1.862.813-13.451 7.546-17.403 10.112-.825.536-2.447 1.387-3.605 1.892-1.158.505-4.308 2.267-7 3.917-2.692 1.649-7.615 4.498-10.939 6.33-3.324 1.831-11.978 6.705-19.231 10.83l-13.188 7.5-.018 58.25c-.013 40.905.301 58.25 1.057 58.25.591 0 4.079-1.754 7.75-3.897a588.53 588.53 0 0 1 12.674-7.165c3.3-1.797 6.225-3.54 6.5-3.873.275-.333 1.625-1.144 3-1.802 1.375-.657 4.75-2.545 7.5-4.195 2.75-1.65 6.35-3.67 8-4.488 1.65-.819 5.25-2.853 8-4.521 2.75-1.668 5.675-3.347 6.5-3.731.825-.384 4.8-2.64 8.833-5.013 4.033-2.373 7.483-4.315 7.668-4.315.185 0 4.76-2.61 10.168-5.8 5.407-3.191 10.506-6.119 11.331-6.509.825-.39 2.85-1.526 4.5-2.525 1.65-.999 5.475-3.169 8.5-4.821 3.025-1.653 20.125-11.328 38-21.502 17.875-10.173 38.013-21.61 44.75-25.415l12.25-6.92v-58.254c0-45.947-.264-58.25-1.25-58.235-.687.01-3.275 1.282-5.75 2.827"/><path fill="#69E242FF" stroke="#69E242FF" d="M77.568 441.132C71.006 444.91 65.53 448 65.4 448c-.13 0-4.81 2.7-10.4 6-5.59 3.3-10.319 6-10.51 6-.487 0-12.881 7.323-13.49 7.97-.275.293-2.676 1.656-5.335 3.031-2.659 1.374-5.589 2.949-6.511 3.499-.922.55-5.384 3.15-9.915 5.777L1 485.054v57.973C1 599.746 1.042 601 2.941 601c1.068 0 2.223-.457 2.568-1.015.345-.558 2.059-1.663 3.809-2.454 1.75-.792 5.432-2.802 8.182-4.468s6.116-3.515 7.48-4.109c1.363-.593 2.713-1.388 3-1.767.286-.378 1.42-1.181 2.52-1.784 1.779-.976 20.366-11.391 32.5-18.21 2.475-1.391 7.8-4.479 11.833-6.861 4.033-2.383 7.529-4.332 7.77-4.332.24 0 2.228-1.131 4.417-2.513l3.98-2.512v-57.929c0-31.86-.337-58.12-.75-58.355-.412-.234-6.119 2.664-12.682 6.441"/></svg>