<svg xmlns="http://www.w3.org/2000/svg" xmlns:xlink="http://www.w3.org/1999/xlink" width="354.14001" height="398.35999" viewBox="0 0 354.14001 398.36"><defs><linearGradient id="a" x1="248.22" x2="519.78003" y1="429.53" y2="429.53" gradientTransform="matrix(1 0 0 -1 0 770)" gradientUnits="userSpaceOnUse"><stop offset="0" stop-color="#283177"/><stop offset="0.25" stop-color="#283177"/><stop offset="0.58" stop-color="#006fa6"/></linearGradient><linearGradient id="b" x1="271.07001" x2="496.92001" y1="430.94" y2="430.94" gradientTransform="matrix(1 0 0 -1 0 770)" gradientUnits="userSpaceOnUse"><stop offset="0.14" stop-color="#f05323"/><stop offset="0.51" stop-color="#f99b1c"/><stop offset="0.6" stop-color="#f8981c"/><stop offset="0.67" stop-color="#f78f1d"/><stop offset="0.72" stop-color="#f57f1e"/><stop offset="0.77" stop-color="#f26a20"/><stop offset="0.82" stop-color="#f05323"/></linearGradient><linearGradient xlink:href="#a" id="e" x1="248.21001" x2="519.78003" y1="360" y2="360"/><linearGradient xlink:href="#b" id="f" x1="271.07001" x2="496.92999" y1="359.91" y2="359.91"/><linearGradient id="g" x1="500.85001" x2="660.15997" y1="311.42999" y2="311.42999" gradientTransform="matrix(1 -.05 -.05 -1 -179.52 877.19)" gradientUnits="userSpaceOnUse"><stop offset="0.14" stop-color="#283177"/><stop offset="0.58" stop-color="#006fa6"/><stop offset="0.89" stop-color="#283177"/></linearGradient><linearGradient id="h" x1="214.10001" x2="553.89001" y1="471.03" y2="471.03" gradientTransform="matrix(1 0 0 -1 0 770)" gradientUnits="userSpaceOnUse"><stop offset="0.14" stop-color="#283177"/><stop offset="0.58" stop-color="#007cb9"/><stop offset="0.89" stop-color="#283177"/></linearGradient><linearGradient id="i" x1="206.92999" x2="561.07001" y1="469.94" y2="469.94" gradientTransform="matrix(1 0 0 -1 0 770)" gradientUnits="userSpaceOnUse"><stop offset="0" stop-color="#848f91"/><stop offset="0.27" stop-color="#f2fafd"/><stop offset="0.49" stop-color="#a3b3ba"/><stop offset="0.79" stop-color="#f2fafd"/><stop offset="1" stop-color="#848f91"/></linearGradient><linearGradient xlink:href="#a" id="c" x1="248.22" x2="519.78003" y1="429.53" y2="429.53" gradientTransform="matrix(1 0 0 -1 0 770)" gradientUnits="userSpaceOnUse"/><linearGradient xlink:href="#b" id="d" x1="271.07001" x2="496.92001" y1="430.94" y2="430.94" gradientTransform="matrix(1 0 0 -1 0 770)" gradientUnits="userSpaceOnUse"/></defs><path d="M443.33 184.82c14 0 34.21 3.66 51.37 21.09 18.12 18.4 27.3 47.22 27.3 85.65 0 33.13-6.73 64.35-20 92.78a218.34 218.34 0 0 1-43.81 62.08c-31.1 31.11-63 45.07-64.3 45.64l-6 2.57-3 1.28-.87.37-.87-.37-3-1.28-6-2.57c-1.34-.58-33.15-14.49-64.32-45.65A218.43 218.43 0 0 1 266 384.34c-13.27-28.43-20-59.64-20-92.78 0-38.43 9.18-67.24 27.3-85.65 17.16-17.43 37.4-21.09 51.37-21.09" style="fill:#142f52" transform="translate(-206.93 -184.82)"/><path d="M443.33 187c13.54 0 33.17 3.54 49.79 20.43 17.69 18 26.67 46.27 26.67 84.09 0 32.8-6.66 63.7-19.79 91.84a216.05 216.05 0 0 1-43.37 61.45C425.76 475.73 394.34 489.46 393 490l-6 2.58-3 1.28-3-1.28-6-2.58c-1.34-.58-32.75-14.31-63.62-45.19a216.22 216.22 0 0 1-43.38-61.4c-13.13-28.14-19.79-59-19.79-91.84 0-37.82 9-66.12 26.67-84.09C291.5 190.59 311.13 187 324.67 187" style="fill:url(#c)" transform="translate(-206.93 -184.82)"/><path d="M443.33 194.65c12.08 0 29.59 3.15 44.36 18.16 16.24 16.5 24.48 43 24.48 78.75 0 31.69-6.42 61.5-19.08 88.62a208.57 208.57 0 0 1-41.85 59.28c-30 30-60 43-61.23 43.57l-6 2.57L378 483c-1.26-.55-31.27-13.6-61.23-43.57a208.59 208.59 0 0 1-41.85-59.28c-12.65-27.12-19.07-56.94-19.07-88.62 0-35.76 8.23-62.25 24.48-78.75 14.77-15 32.27-18.16 44.36-18.16" style="fill:#fff" transform="translate(-206.93 -184.82)"/><path d="M433.75 209.11H334.3s-63.23-.75-63.23 82.45C271.07 420.62 384 469 384 469s112.93-48.39 112.93-177.46c0-83.21-63.18-82.45-63.18-82.45z" style="fill:url(#d)" transform="translate(-206.93 -184.82)"/><path d="m384 583.18-3-1.28-6-2.57c-1.34-.58-32.75-14.31-63.62-45.18A216.31 216.31 0 0 1 268 472.69c-13.13-28.14-19.79-59-19.79-91.84 0-37.83 9-66.12 26.67-84.1 16.62-16.88 36.25-20.43 49.78-20.43a72.49 72.49 0 0 1 12.17 1h94.32a72.49 72.49 0 0 1 12.17-1c13.54 0 33.17 3.54 49.79 20.43 17.69 18 26.67 46.27 26.67 84.09 0 32.8-6.66 63.7-19.79 91.84a216.15 216.15 0 0 1-43.37 61.45C425.76 565 394.33 578.75 393 579.32l-6 2.57-3 1.28z" style="opacity:.3;fill:#010101" transform="translate(-206.93 -184.82)"/><path d="m384 565.83-.87-.38-3-1.28-6-2.57c-1.35-.6-33.13-14.48-64.33-45.6a218.46 218.46 0 0 1-43.8-62.12c-13.27-28.43-20-59.65-20-92.78 0-38.43 9.18-67.25 27.3-85.65 17.15-17.43 37.4-21.09 51.37-21.09a75.58 75.58 0 0 1 12.37 1H431a75.58 75.58 0 0 1 12.37-1c14 0 34.21 3.66 51.37 21.09 18.12 18.41 27.3 47.22 27.3 85.65 0 33.13-6.73 64.35-20 92.78A218.34 218.34 0 0 1 458.18 516c-31.1 31.11-63 45.07-64.3 45.64l-6 2.58-3 1.28-.87.38z" style="fill:#142f52" transform="translate(-206.93 -184.82)"/><path d="m384 563.42-3-1.28-6-2.57c-1.34-.58-32.75-14.31-63.62-45.18A216.24 216.24 0 0 1 268 452.94c-13.13-28.14-19.79-59-19.79-91.84 0-37.83 9-66.12 26.67-84.1 16.62-16.88 36.25-20.43 49.78-20.43a72.49 72.49 0 0 1 12.17 1h94.32a72.49 72.49 0 0 1 12.17-1c13.54 0 33.17 3.54 49.79 20.43 17.69 18 26.67 46.27 26.67 84.09 0 32.8-6.66 63.7-19.79 91.84a216.15 216.15 0 0 1-43.37 61.45C425.76 545.26 394.33 559 393 559.56l-6 2.57-3 1.28z" style="fill:url(#e)" transform="translate(-206.93 -184.82)"/><path d="m384 555.13-6-2.57C376.74 552 346.73 539 316.77 509a208.54 208.54 0 0 1-41.85-59.28c-12.65-27.12-19.07-56.93-19.07-88.62 0-35.76 8.23-62.25 24.48-78.75 14.77-15 32.27-18.16 44.36-18.16a63.49 63.49 0 0 1 11.49 1h95.69a64 64 0 0 1 11.49-1c12.08 0 29.59 3.15 44.36 18.16 16.24 16.5 24.48 43 24.48 78.75 0 31.69-6.42 61.49-19.08 88.62A208.67 208.67 0 0 1 451.25 509c-30 30-60 43-61.23 43.56l-6 2.57z" style="fill:#fff" transform="translate(-206.93 -184.82)"/><path d="M433.41 281.54h-98.82s-63.52-16.13-63.52 80.66C271.07 491.26 384 539.66 384 539.66s112.93-48.4 112.93-177.46c0-96.79-63.52-80.66-63.52-80.66z" style="fill:url(#f)" transform="translate(-206.93 -184.82)"/><path d="M92.08 24.29h8.95v76.66h-8.95zM118.92 24.29h8.95v76.66h-8.95zM145.75 24.29h8.95v76.66h-8.95zM172.59 24.29h8.95v76.66h-8.95zM199.43 24.29h8.95v76.66h-8.95zM226.26 24.29h8.95v76.66h-8.95zM253.1 24.29h8.95v76.66h-8.95z" style="fill:#fff"/><path d="M463.61 530.79c-29.92-19.24-91.51-14.94-128-7-36.49 7.94-22.81-14.29-22.81-14.29a34.25 34.25 0 0 0-8.32 19.5s-5 34.53 31.47 26.54c36.47-7.99 98.05-12.29 128 7l-6.55-20 6.23-11.65z" style="fill:url(#g)" transform="translate(-206.93 -184.82)"/><g style="opacity:.2"><path d="M402.51 385.71c53-64.74 5.61-100.45 5.61-100.45a3.63 3.63 0 0 0-1.86-.62h-71.58a10 10 0 0 1-2-.25s-62.52-15.88-62.52 80.92c0 35.08 20.12 87 20.12 87a1.1 1.1 0 0 0 1.35.64s76.19-24.87 110.88-67.24z" style="fill:#fff" transform="translate(-206.93 -184.82)"/></g><path d="M384 315.81q74.53 0 149 41.46 10.47-34.54 20.92-69.08c-56.3-31.67-113.11-47.52-169.92-47.52-56.81 0-113.62 15.84-169.9 47.52l20.92 69.08q74.39-41.46 149-41.46z" style="fill:url(#h)" transform="translate(-206.93 -184.82)"/><path d="M555.89 281.05C499.24 249.16 441.42 233 384 233c-57.42 0-115.25 16.17-171.9 48.05l-5.17 2.95 2.2 7.25 20.92 69.08 2.07 6.83 4.88-2.72c48.73-27.16 98.19-40.93 147-40.93s98.26 13.77 147 40.93l4.88 2.72 2.07-6.83q5.24-17.27 10.46-34.54 5.22-17.27 10.46-34.54l2.2-7.26-5.18-2.99zM384 240.67c56.8 0 113.62 15.84 169.88 47.52q-10.46 34.53-20.88 69.08-74.39-41.46-149-41.46t-149 41.46q-10.47-34.54-20.92-69.08c56.3-31.67 113.11-47.52 169.92-47.52Z" style="fill:url(#i)" transform="translate(-206.93 -184.82)"/><path d="M363.68 522.32h4.5v22h-5v-17.86H361l2.69-4.14zM376.52 541a3.8 3.8 0 0 0 2.12-.55 3.76 3.76 0 0 0 1.3-1.37 4.85 4.85 0 0 0 .56-1.86 7 7 0 0 0-.08-2 2.81 2.81 0 0 1-.76 1.06 4.93 4.93 0 0 1-1.18.75 5.23 5.23 0 0 1-1.42.42 6.46 6.46 0 0 1-1.51.06 5.9 5.9 0 0 1-2.27-.65 5.11 5.11 0 0 1-1.6-1.35 6.34 6.34 0 0 1-1.13-2.48 14.42 14.42 0 0 1-.35-2.84 10.88 10.88 0 0 1 .35-3 9.37 9.37 0 0 1 .89-2.32 6.17 6.17 0 0 1 2.06-2.13 6.76 6.76 0 0 1 3-1 8.54 8.54 0 0 1 5 .83 6.87 6.87 0 0 1 3.19 3.92 16.06 16.06 0 0 1 .67 2.93 25.2 25.2 0 0 1 .24 3.54 26.3 26.3 0 0 1-.34 4.24 11.59 11.59 0 0 1-1.24 3.75 7.33 7.33 0 0 1-2.52 2.7 7.78 7.78 0 0 1-4.19 1.07 12.18 12.18 0 0 1-3-.29 7.61 7.61 0 0 1-2.54-1.07l.27-4.93a4.45 4.45 0 0 0 2 2 5.92 5.92 0 0 0 2.48.55zm1.27-7.56A2.26 2.26 0 0 0 379 533a3.06 3.06 0 0 0 .86-.94 4.3 4.3 0 0 0 .48-1.22 4.37 4.37 0 0 0 .12-1.27 7 7 0 0 0-.2-1.36 3.78 3.78 0 0 0-.5-1.18 2.71 2.71 0 0 0-.83-.83 2.25 2.25 0 0 0-1.23-.32 2.38 2.38 0 0 0-1.27.34 2.92 2.92 0 0 0-.89.85 4 4 0 0 0-.53 1.16 6 6 0 0 0-.21 1.28 5.18 5.18 0 0 0 .6 2.9 2.35 2.35 0 0 0 2.33 1zM392.64 526.46l-.55 5.11a4.55 4.55 0 0 1 1.48-.55 9.21 9.21 0 0 1 1.63-.15 5.58 5.58 0 0 1 2.3.45 5.12 5.12 0 0 1 1.77 1.27 5.83 5.83 0 0 1 1.15 2 7.93 7.93 0 0 1 .44 2.53 7.11 7.11 0 0 1-1.84 5.58 8.3 8.3 0 0 1-5.65 2.07 14.08 14.08 0 0 1-3.12-.29 7.55 7.55 0 0 1-2.69-1.07l.27-4.93a5.36 5.36 0 0 0 4.66 2.66 3.57 3.57 0 0 0 2.12-.67 3 3 0 0 0 1.15-2.08 3.59 3.59 0 0 0-.53-2.72 2.68 2.68 0 0 0-2.53-.94 5.27 5.27 0 0 0-3.17 1.48l-2.33-1 1.57-12.85h10.13v4.14h-6.26zM405.25 522.1a15.91 15.91 0 0 1 3.33-.35 8.34 8.34 0 0 1 1.68.18 6.38 6.38 0 0 1 1.63.57 5.16 5.16 0 0 1 1.37 1 4.26 4.26 0 0 1 .94 1.53 7.61 7.61 0 0 1 .44 2.27 7.06 7.06 0 0 1-.26 2.23 5.6 5.6 0 0 1-1 1.92 4.31 4.31 0 0 1-1.74 1.32 4.12 4.12 0 0 1 1.5.78 4.78 4.78 0 0 1 1.07 1.27 6.27 6.27 0 0 1 .65 1.59 6.87 6.87 0 0 1 .23 1.74 8.72 8.72 0 0 1-.38 2.65 4.92 4.92 0 0 1-1.13 2 5.52 5.52 0 0 1-2.55 1.48 12.69 12.69 0 0 1-3.19.45 12.17 12.17 0 0 1-3.22-.44 7.88 7.88 0 0 1-2.72-1.29l.76-4.53a5.08 5.08 0 0 0 1.9 1.66 5.3 5.3 0 0 0 2.48.63 3.8 3.8 0 0 0 2.22-.65 2.36 2.36 0 0 0 .89-2.13 3.58 3.58 0 0 0-.31-1.48 2.13 2.13 0 0 0-.82-.89 3.59 3.59 0 0 0-1.26-.44 10 10 0 0 0-1.66-.12h-2.2v-3.63h1.18a12 12 0 0 0 1.6-.12 5.37 5.37 0 0 0 1.54-.45 3.34 3.34 0 0 0 1.17-.92 2.59 2.59 0 0 0 .5-1.56 2.06 2.06 0 0 0-.7-1.8 3 3 0 0 0-1.88-.56 5 5 0 0 0-1.18.15 5.9 5.9 0 0 0-1.15.42 6.32 6.32 0 0 0-1 .63 5 5 0 0 0-.82.75l-.91-4.68a10 10 0 0 1 3-1.16zM411.51 246.83l4.28.36q-1 13.2-2.05 26.4l-4.19-.27 2-26.5zM377 250.32c3.3-.18 3.55 3.81.89 4.37-2.66.56-3.62-3.05-.89-4.37z" style="fill:#fff" transform="translate(-206.93 -184.82)"/><path d="m400.18 246.3-.71 22-14-.09c0-5.53-.61-9.85-4.82-11.15-7.41-2.29-12.49 5.66-9.37 11.87a51.64 51.64 0 0 0-8.56.8l-10.44 1.07c-1.8.33-5.89 1.44-7.4.44-1.51-1-2.34-7.07-2.41-9.46l-4.28.62c.13 1.84 2 8.87 1.25 10.08-.42.63-5.78 1.23-7 1.52l-22.66 5.09c-4.21-.72-3.2-11.26-11.15-9l-2.58 1.07-3 2-.18.09 2.05 3.57c1.32-.45 2.28-1.69 3.75-2.14 3-.92 3.62 1.85 4.37 3.57l1.25 2.05.44.44a200.92 200.92 0 0 0-29.8 10.17l-8.38-20.43-4 1.52 10 24.53 8.3-3.3 17.31-6.07c3-.92 8.3-1.25 9.19-4.28 4.47.92 7.54-.41 11.6-1.43l15.34-3.3c3.69-.86 8-.58 9.1-4a7 7 0 0 0 2.77 1.78c1.87.4 4.22-.34 5.8-.62l8.21-.89c13.44-2.36 28.69-1.54 43.35-1.43q.49-13.25 1-26.5l-4.28-.18zm-19 22.21c-1.83.05-4 .35-5.17-.44-1.76-1.18-2.07-4.84-.27-6.24a8.16 8.16 0 0 1 2-.8c4.32 0 2.66 3.9 3.48 7.4v.09zM482 262l4 1.43-7.85 20.78 6.07 2.41 14.63 5.8 8.48 3.66 4.1-9.46 4 1.7-6 13.47-9.37-4.1-18.29-7.32-9.19-3.57zM446.65 262.8c3-.08 5.9.45 7.32 2l-1.78 3.93c-1.18-.65-6-3.33-6.87-.44-.59 2 3.73 5.87 4.19 8.3 1.21 6.35-8.53 9.44-14.54 7.94-4.21-1-7.61-3.21-8.83-7.23-1.12-3.71.49-7 2.05-9.1.26-.35 1.19-1.93 1.7-1.87l2.95 2.68-.36.36c-.76 1.55-2.77 2.93-2.23 5.71.88 4.5 9.5 7.45 13.92 4.1 2.92-2.22-4-6.72-3.3-10.52.71-4.12 2.49-4.33 5.8-5.8zM460.83 265.75l3.75 1.16c2.29.79 4.38 1.49 5.53 3.39 2.31 3.84-1.34 11-2.32 14.54l-13.74-4.28 1.25-4.19 9.72 2.95 1.34-4.55c.68-3.76-4.31-4.44-6.78-5.09z" style="fill:#fff" transform="translate(-206.93 -184.82)"/><path d="M345.67 278.68c3.4-.2 3.59 3.67 1.16 4.28-3.11.78-3.76-2.88-1.16-4.28zM340.14 279.58c3-.15 3.5 3.51 1.16 4.28-2.92.95-4.14-2.69-1.16-4.28zM515.43 280c3.05-.1 3.56 3.9.89 4.46s-3.7-3.08-.89-4.46zM431.94 286.09c3.08-.13 3.65 3.75 1.07 4.37-2.95.71-3.8-2.91-1.07-4.37zM437.38 287.25c3.35-.2 3.88 3.57 1.43 4.28-3.26.95-3.74-2.96-1.43-4.28zM262.18 287.69h.54v.18c.34.61 1.1 3.16.8 3.57-1.33.73-3.19.74-3.75 2.23a1.43 1.43 0 0 0 .36 1.52c1.86 2.35 4.59-.17 6.42-.36l1.6 3.66-8.74 3.93c-.6.26-1.32.86-2 .8l-1.6-3.57 2.41-1.16c-2.46-1.21-3.91-5-1.87-7.67 1.42-1.84 3.52-2.07 5.8-3.12zM382.33 309.28l-4.37.18-.36-8.12-7.13.36.36 8-4.46.18-.8-19.36 4.46-.18q.13 3.7.27 7.4l7.13-.27q-.13-3.75-.27-7.5l4.37-.18.8 19.45zM357.63 291.17h.62l-5 12q.49 4 1 8h-.18l-4.19.54v-.18q-.49-3.92-1-7.85l-7.4-10.52c1.4-.2 4.05-.88 5.17-.44l4.19 7.67.18-.09 2.32-8.56 4.28-.54zM401.51 290.28l-5.8-.18-6.69 19v.09l4.64.18 1.52-4.82 5.53.18q.63 2.5 1.25 5l4.64.27.18-.09zm-1.34 11.06-4.19-.09 2.32-7.67 1.87 7.67zM437.2 310.08c0 1.19-.06 2.38-.09 3.57-7.12.59-12.34-1.8-13.47-7.76-1.91-10.11 9.24-15.08 16.86-10.35l-1.52 3.3c-4.32-2.26-8.66-1.9-10.26 2.77a8.26 8.26 0 0 0-.27 4.46c1.06 3.48 4.24 4.19 8.74 4zM449 296.88l4.37 1.16-4 15.17 7.4 1.87v.36l-.89 3.3-11.78-3v-.09zM314.81 298.13a8.7 8.7 0 0 1 1 3.57h-.18l-7 1.78c.36 1.43.71 2.85 1.07 4.28l6.78-1.7.8 3.48h-.18l-6.51 1.78 1.87 7.5h-.18l-4.1 1.07-4.82-18.73v-.09l11.42-2.95zM331.84 294.83h-.54l-5.17 1-2.32 19.89v.28l4.55-.8c.15-1.72.3-3.45.44-5.17l5.44-1 2.32 4.64 4.55-.8.09-.18-9.37-17.84zm1.07 11.06-3.75.71h-.36l.62-7.85 3.48 7v.09zM468.33 302.32l4.1 1.52.09.18-4.46 11.87a3.57 3.57 0 0 0 2.05 4.46 3.43 3.43 0 0 0 3.66-1c1.27-1.63 1.76-3.89 2.58-6l2.68-7 4.19 1.52c-2 5.35-4.47 17.78-12.4 16.15a11.42 11.42 0 0 1-4.64-1.78c-6.13-4.47.7-14.86 2.14-20zM287.78 306c1 .34 1.17 2.59 1.52 3.57l3.84 11.15 7.23-2.41.18.27c.36 1.1.71 2.2 1.07 3.3l-11.42 3.82-.09-.27-6.11-18.11 3.84-1.34zM269.93 313.11l-5.17 2.5q1.42 10 2.85 20l4.19-1.78-.8-5.09 4.91-2.41 2.77 3.12c1.5 1.12 3.13-.64 5-1.25l-13.74-15.07zm.27 12.22-1.52-7.76 5.17 6-3.66 1.78zM502.14 317.93c-1.48-2.44-7-5.26-10.35-5.8l-8 17.31c2.85 1.6 5.66 3.36 9.46 4 3.8.64 7.19-2.43 6.34-6.07a6.83 6.83 0 0 0-1.87-2.95c3.75.09 6.55-3.07 4.46-6.51zm-7.32 10.79c-1.41 2.1-4.16.41-5.8-.18l2.23-4.91c1.92.39 5.25 2.58 3.57 5.09zm2.95-7.5c-1.21 1.51-3.82 0-5-.44-.11-1.25 1.33-2.8 1.7-4.1 1.92.31 5.15 2.24 3.3 4.55zM457 398.84l.44.36c.11-15.84-6.63-25-13.74-34.08-10.84-13.84-22.28-23-41.75-28.28-6.66-1.82-17.75-3.07-26.14-1.7-4.37.72-8.52 1.06-12.31 2.23a66.57 66.57 0 0 0-20.5 10.79l-6.33 5.62c-6.38 5.07-12.75 11.31-16.06 19.36l-.71 2.5c-.53 1.24-1.51 2.41-2.05 3.75a76.41 76.41 0 0 0-5.17 29.17l2-.09c.49-8.44 1.32-15.42 3.39-22 1.17-3.74 3.28-7.1 4.37-10.62l.36-.27.62 2.58c.78 2.57 1.56 5.18 3.12 7a47 47 0 0 0-3.84 9.19c-1.68 6.13-.93 14.15-.44 20.78-1.41 1.86-3.1 3.63-4.1 5.89l-1.52 4-.71-3.48a53.88 53.88 0 0 1-1.16-12.13l-2.05-.09c0 6.65.29 13.63 1.7 19.27 2.25 9 6.18 15.87 10.79 22.39l5.17 7 2.23 2.23a12.22 12.22 0 0 0 1.87 2.23A97.33 97.33 0 0 0 360.56 478a83.29 83.29 0 0 0 13.92 3.57c10.55 2.06 23.22.15 31.49-2.41 22.82-7.08 42.42-25.08 49-48.35-.08-.5 0-.4-.44-.54l2.05-8.65c1.42-6.62 1.42-15.76.42-22.8Zm-45.85-40.68a67.71 67.71 0 0 1 16.68 2.14 15 15 0 0 1 4.1 1.16c4.34 2.65 8.16 8.12 10.79 12.58 2.47 4.18 5.13 10.21 3.66 17.13a41.13 41.13 0 0 1-4.37 12l-2.58 4.37c-1 .38-5.3-.62-6.69-.89l-16.32-2.41c-2.43-6.45-6.42-12-9.9-17.48-1.56-2.48-3.19-5.88-5.44-7.67l3.12-7.4c1.7-4 3.4-9.77 5.71-13.2l1.25-.27zm-7-4.55 2.95 3.93-8.38 19.89c-6.78.1-12.8 1.59-18.38 3.12l-7.76 1.78-3.3 1.16c-.67-1.41-2.72-2.7-3.93-3.66-3.33-2.65-6.71-5.17-10.26-7.67l-3.48-2.41c-1-1.84 2-8.78 2.68-10.35 3.58-8.32 6.22-13.39 15.79-15.79l7.32-1.25 3.48-.27c9.4 0 19.12 6.33 23.28 11.51zm-53.79-7.5 6-3.12a92.65 92.65 0 0 1 10.62-3.84 94.87 94.87 0 0 1 10.35-2l4.46-.36c3.78 0 7.43.3 10.7.44v.09c-1 1-2.57 1.61-3.21 2.95l-3.75-.71-3.84-.27c-2.58-.42-5.46.36-7.5.8-6.77 1.47-12.42 2.5-16.15 6.87-2.61-.07-4.73-.74-7.67-.71v-.18zm-25.29 68.79c-1.1-2.29-.25-5.71-.71-8.56-1.19-7.31 2.7-17.58 5.44-21.5 1.08-1.55 3.1-2.37 4.73-3.39l15.07-9.54c1.82.37 3.6 2.31 5 3.3 4.34 3.07 9.64 6.24 12.85 10.44-1 3-.85 6.71-1.43 10.08l-1.34 11.68a24.6 24.6 0 0 0-.27 7.94l-21.59 14.27c-3.08-.18-6.39-3.77-8.38-5.35-2.54-2-8-6.53-9.37-9.37zm19.62 52.36c-2-1.43-7.39-5.12-8.38-7.13 2.38.63 9.16-.1 10.7-.89 1.43.33 3.92 2.81 5.35 3.66a80 80 0 0 0 14.54 6.34 24.37 24.37 0 0 0 8.65 1.87c1.43 2.34 4.32 7.32 6.69 8.48l.54.71c-14.76-.93-28.85-6.47-38.09-13zm45.76-6.15c-4 2.84-9.15 6.2-14.72 7.23-2.28.42-6.08-1.11-7.76-1.7-6.65-2.32-13.11-4.83-18.11-8.83-1.55-1.24-2.55-6.58-3.3-8.83-1.23-3.69-1.67-7.35-2.41-11.78-.23-1.35-.46-4 .18-5.17l22.12-14.72c1.34.62 2.48 1.77 3.93 2.41l14.62 6.5c2.63 1.16 5.4 2.8 8.48 3.39.87 6 1.92 11.92 3.12 18q.49 3.57 1 7.13c-.44 1.45-5.71 5.32-7.13 6.34zm9.9-6.78c-.74-5.45-1.2-10.49-2.32-15.61l-1.87-9.81 14-15.61c1.77-2.2 4.09-4 5.62-6.42l23.28 3.57c2.89 4.69 4 11.37 4 18.91 0 1.55-.06 3.09-.09 4.64-1.76 7-8 13.87-12.93 17.84-2 1.61-4.08 4.09-6.69 5-6.16 2.14-18.48-.83-23-2.5zM427 466.19c-2.31 1.7-4.65 3.69-7.4 4.91 1.88-3.37 4.13-7 4.73-11.6 7.4-3.92 18.08-14.49 20.7-23 1.81-.67 4-.67 5.44-1.7h.27c-5.38 13.09-13.09 23.59-23.73 31.4zm22.57-79.31-.18-2.77-1.23-5.11c-2.52-6.54-6.2-12.8-11.24-16.86-.79-.63-1.36-1.59-2.32-2.05a3.33 3.33 0 0 1-.54-1.78c7.85 5.71 12.83 14.45 16.68 24.17a39.48 39.48 0 0 1 2.77 8.74l-3.93-4.37z" style="fill:#fff" transform="translate(-206.93 -184.82)"/></svg>