<svg xmlns="http://www.w3.org/2000/svg" width="299.55563" height="507.53857" viewBox="0 0 342.53505 580.64386"><g style="fill:#0027ef"><path d="M133.822 386.267a250.327 250.327 0 0 1-17.258-8.753c-2.465-1.356-6.164-3.328-8.136-4.438l-3.452-1.849V283.95c0-70.02-.123-87.279-.37-87.279-.616 0-9.368 4.315-12.82 6.41-8.876 5.178-15.41 10.356-22.806 17.629-5.917 5.917-9.862 10.725-14.423 17.505-8.876 13.314-14.3 28.107-16.642 45.242-.74 5.054-.74 20.463-.123 24.778.37 2.712.37 2.712-.37 3.328-.37.37-.863.493-.986.493-.37-.123-7.027-8.382-11.095-13.683C7.219 274.333-7.08 247.336-16.696 219.23c-9.492-27.86-14.3-54.364-15.286-84.443-.123-5.301-.37-42.9-.37-83.704v-74.088l6.41-2.342c9.37-3.575 24.409-8.506 34.271-11.341 7.643-2.22 23.422-6.287 26.627-6.78l1.233-.247V66c0 60.282.123 109.715.247 109.715.123 0 1.972-1.11 4.19-2.466 4.316-2.712 13.93-7.643 19.725-10.108 10.478-4.561 22.436-7.767 35.133-9.492 7.027-.987 21.696-1.233 29.216-.493 33.038 3.205 61.884 17.505 80.129 39.817l1.232 1.603-.616.616-.616.617-5.178-1.726c-8.136-2.59-22.682-6.164-25.394-6.164-.617 0-.617.37-.617 91.47v91.47l-.863.493c-.493.246-2.835 1.602-5.177 2.958-9.616 5.547-26.874 14.177-28.353 14.177-.494 0-2.836-.987-5.425-2.22zm108.975-77.047-.863-.493v-169.38l-6.287-6.286c-6.657-6.657-10.108-9.616-16.519-14.177-19.107-13.683-42.9-22.19-68.17-24.285-5.301-.493-19.354-.493-24.409 0-17.998 1.48-36.242 6.04-51.775 12.944-1.972.863-3.822 1.603-4.068 1.603-.247 0-.616-.37-.863-.74-.493-.74-.37-.863.616-2.342 8.136-11.465 19.231-22.066 31.435-30.326l2.959-1.972V10.033c0-60.405 0-63.733.616-63.856.37-.124 3.945-.37 8.136-.617 14.3-.74 54.488-.37 59.049.617l.74.123V52.316h11.218c9.492 0 12.204.123 17.258.74 12.944 1.602 24.901 4.314 35.873 8.382 2.096.74 3.945 1.356 3.945 1.356.123 0 .123-24.038.123-53.378v-53.254l6.78 1.602c17.505 4.068 37.599 10.232 54.98 16.642l6.78 2.466-.123 83.21c-.123 89.251 0 84.443-1.725 99.113-6.04 53.131-27.367 104.29-61.268 146.45-1.726 2.22-3.328 3.945-3.452 3.945 0 .123-.493-.123-.986-.37zM-32.352 525.567c7.274-17.875 14.67-35.626 22.56-53.131 5.67.123 11.34.123 17.011.123 6.41 16.149 12.944 32.175 19.355 48.324.493 1.479.74 3.081.986 4.684a257.77 257.77 0 0 0-13.807 0c-1.356-3.082-2.589-6.164-3.821-9.246-7.89-.123-15.78 0-23.67 0-1.232 3.329-2.711 6.534-4.56 9.493-4.685-.247-9.37-.247-14.054-.247zm30.942-37.722c-2.342 4.931-4.56 9.739-6.41 14.793 4.068-.123 8.013-.123 12.08-.123-1.725-4.931-3.82-9.739-5.67-14.67zM34.833 490.927c-.616-6.164.123-12.204.123-18.368 4.438.123 8.753.123 13.19 0 .37 12.82-.246 25.764.37 38.585h24.902v13.56c-12.82.123-25.641 0-38.462.123-1.356-11.218-.493-22.559-.123-33.9zM81.8 525.567c-.37-17.628-.246-35.38-.123-53.131 4.438 0 8.753.123 13.19 0 .494 6.78.247 13.683.37 20.463 7.15-.123 14.3-.123 21.45 0 .124-6.78.124-13.56.124-20.463h13.56c.246 17.628.37 35.38 0 53.131-4.315-.123-8.63-.123-12.944.123-1.11-6.287-.37-12.697-.616-19.107H95.36c-.123 6.287.246 12.697-.493 18.984H81.8zM139.493 525.69c-.37-17.751-.37-35.38 0-53.131 4.315.123 8.63.123 13.067-.123 1.11 5.177.493 10.478.617 15.656.123 12.204-.247 24.285.123 36.489-4.561 1.602-9.246.863-13.807 1.11zM161.56 524.827c0-17.381-.124-34.886 0-52.268 4.56 0 9.122 0 13.683.123-.247 12.82 0 25.765 0 38.585 8.382.247 16.642-.123 25.024.247-.123 4.438-.123 8.999-.123 13.437-12.82-.124-25.64 0-38.585-.124zM205.075 525.567c7.027-17.875 14.67-35.503 22.436-53.131 5.67.123 11.341 0 17.012.123 4.438 11.464 9.246 22.929 13.807 34.394 2.342 6.163 5.424 12.08 6.903 18.614H251.18c-1.356-3.082-2.712-6.164-3.945-9.369H223.69c-1.356 3.205-2.712 6.287-4.438 9.369a271.763 271.763 0 0 0-14.177 0zm30.326-37.722c-1.603 5.054-4.192 9.739-5.794 14.793h12.08c-1.848-5.054-3.82-9.985-6.286-14.793zM271.643 472.682c4.562 0 9 0 13.56-.123.124 12.82 0 25.764 0 38.585 8.383.123 16.766.123 25.149.123 0 4.561-.124 9 0 13.56H271.52c0-17.381.123-34.763.123-52.145zM116.07 394.526c4.685 0 9.493 0 14.178-.123.37 11.095 0 22.19.123 33.284-.124 2.342.616 4.561 1.356 6.657.74.493 2.219 1.602 2.958 2.219 3.329.123 6.657.246 9.986.246.986-6.533 4.56-13.313 11.34-15.162 5.548-.987 11.959-.987 16.52 2.835 3.082 3.452 4.56 8.013 5.794 12.45l2.835-.246c0-6.287-1.356-14.053-7.52-17.258-8.752-4.192-18.738-1.48-27.367 1.232a163.5 163.5 0 0 0-3.698-9.985c7.52-6.04 17.628-7.027 26.874-6.04 9.369 1.11 18.368 7.026 21.82 16.025 2.465 5.055 2.095 10.725 2.958 16.026h11.711c0-12.697-.123-25.518 0-38.215h14.546c-.123 17.628 0 35.133-.123 52.761h-80.005c-6.04.37-11.218-3.081-16.395-5.547-3.822 3.205-8.63 5.67-13.807 5.547H86.485c-.37-4.807-.863-9.738-.986-14.546 7.273-.123 14.546 0 21.82 0 2.588.123 4.807-1.11 7.026-2.096.493-1.479.986-2.835 1.48-4.314.246-11.835 0-23.792.246-35.75zm40.558 38.215a167.64 167.64 0 0 0-1.11 3.945c3.946.123 7.767.123 11.712 0-.986-1.972-1.356-5.054-4.068-5.3-2.22-.494-4.438.492-6.534 1.355zM64.542 398.594c4.808-.123 9.739-.123 14.547 0 0 19.97-.124 40.064 0 60.035-8.013 0-16.026.123-23.916-.123-10.108-.37-18.984-8.63-20.833-18.492-.863-7.52-.123-15.162-.493-22.805 4.808-.247 9.738-.37 14.67.123 0 6.657-.37 13.314.123 19.847.246 2.589 2.589 4.191 4.068 6.164 3.945.493 7.89.616 11.834.493v-45.242zM229.114 398.594h14.67c-.247 17.628 0 35.133-.124 52.762-4.808.123-9.739 0-14.546 0 .123-17.629.123-35.134 0-52.762z" style="stroke-width:1.23275" transform="translate(32.155 54.83)"/><path d="M92.032 402.416c4.808.123 9.74.123 14.547.123-.123 10.109 0 20.094 0 30.202-4.931.124-9.862.247-14.793 0 .37-10.108-.123-20.217.246-30.325z" style="stroke-width:1.23275" transform="translate(32.155 54.83)"/></g></svg>