<svg xmlns="http://www.w3.org/2000/svg" width="300" height="300" viewBox="0 0 300 300"><defs id="defs1"><style>.cls-2{fill:#8c002a}.cls-4{fill:#ffd4ae}</style></defs><g id="g38" transform="matrix(.54359 0 0 .54359 -121.79 -121.6)"><path id="path1" d="M500 775.6c-73.71 0-143.01-28.7-195.12-80.82-52.13-52.13-80.83-121.42-80.83-195.13s28.7-143.01 80.82-195.13C357 252.4 426.29 223.7 500 223.7s143.01 28.7 195.12 80.82c52.12 52.12 80.82 121.42 80.82 195.12s-28.7 143.01-80.82 195.12S573.7 775.58 500 775.58Z" class="cls-4" style="display:inline"/><path id="path2" d="M500 766.69c-71.33 0-138.39-27.78-188.83-78.22s-78.22-117.49-78.22-188.83 27.77-138.39 78.22-188.83S428.66 232.59 500 232.59s138.39 27.78 188.83 78.22 78.22 117.5 78.22 188.83-27.78 138.39-78.22 188.83-117.5 78.22-188.83 78.22" class="cls-2" style="display:inline"/><circle id="circle2" cx="500" cy="499.64999" r="256.54999" style="fill:#001c06;display:inline"/><g id="g5" style="display:inline"><path id="path3" d="M611.61 412.12c-.65-.92-1.39-1.79-2.21-2.61l-.02-.02-47.06-47.07h-.46l-23.67 23.67-23.95 23.95-2.08 2.07h43.24c5.64 0 11.06 2.24 15.05 6.24 4.16 4.16 6.24 9.6 6.24 15.05s-2.08 10.89-6.24 15.05l-8.9 8.9-14.2 14.2-3.36-3.36v-25.78h-25.78l-18.17-18.17-.03.03-.03-.03-18.17 18.17h-25.78v25.78l-3.36 3.36-14.2-14.2-8.9-8.9c-4.16-4.16-6.24-9.6-6.24-15.05s2.08-10.89 6.24-15.05c3.99-4 9.41-6.24 15.05-6.24h43.24l-2.08-2.07-23.95-23.95-23.67-23.67h-.46l-47.06 47.07-.02.02c-.82.82-1.56 1.7-2.21 2.61-5.89 8.2-5.14 19.69 2.23 27.06l9.05 9.05 23.95 23.95 14.06 14.06c.05.05.1.1.15.14l23.43 23.44 14.19 14.19.99.99 35.75 35.75a42.16 42.16 0 0 1 12.35 29.82c0 6.78-2.75 12.92-7.19 17.35a24.48 24.48 0 0 1-17.36 7.19c-13.55 0-24.55-10.98-24.55-24.54v-47.12l-13.92 13.93-14.7 14.7-8.73 8.73c-8.2 8.2-8.2 21.5 0 29.69l47.06 47.06c4.1 4.1 9.47 6.15 14.85 6.15s10.75-2.05 14.85-6.15l47.06-47.06c8.2-8.2 8.2-21.49 0-29.69l-38.35-38.35c-4.82-4.82-4.82-12.64 0-17.46l.99-.99 14.19-14.19 23.43-23.43.15-.15 14.06-14.06 23.95-23.95 9.05-9.05c7.36-7.36 8.11-18.85 2.23-27.06zm-87.06 73.95c0 2.86-.49 5.62-1.39 8.17-.32.91-.69 1.78-1.11 2.63a24.63 24.63 0 0 1-11.24 11.24c-.94.47-1.92.87-2.93 1.21-2.47.84-5.11 1.29-7.87 1.29s-5.4-.45-7.87-1.29c-1.01-.34-1.99-.74-2.93-1.21a24.63 24.63 0 0 1-11.24-11.24 24.295 24.295 0 0 1-2.5-10.8v-.11c.02-3.54.78-6.91 2.16-9.95 2.45-5.47 6.86-9.88 12.33-12.33 3.07-1.39 6.47-2.16 10.06-2.16s7 .77 10.06 2.16c5.47 2.45 9.88 6.86 12.33 12.33 1.38 3.04 2.14 6.41 2.16 9.95v.11z" class="cls-2"/><path id="path4" d="m460.53 540.92-46.01 46.02-15.18-15.18c-17.07-16.93-24.16-35.4-22.8-52.49l37.64 37.64 38.88-38.89 7.47 7.47c4.27 4.27 4.27 11.18 0 15.44z" class="cls-2"/><path id="path5" d="m436.88 517.26-22.36 22.36-15.18-15.18c-17.07-16.93-24.16-35.4-22.8-52.49l37.64 37.64 15.23-15.23 7.47 7.47c4.27 4.27 4.27 11.18 0 15.44z" class="cls-2"/><path id="path6" d="m539.47 540.92 46.01 46.02 15.18-15.18c17.07-16.93 24.16-35.4 22.8-52.49l-37.64 37.64-38.88-38.89-7.47 7.47c-4.27 4.27-4.27 11.18 0 15.44z" class="cls-2"/><path id="path7" d="m563.13 517.26 22.36 22.36 15.18-15.18c17.07-16.93 24.16-35.4 22.8-52.49l-37.64 37.64-15.23-15.23-7.47 7.47c-4.27 4.27-4.27 11.18 0 15.44z" class="cls-2"/></g><g id="g36" style="display:inline"><g id="g34"><path id="path8" d="M334.22 423.81c-1.55 4.44-2.52 7.73-2.52 7.73-.34-1.22-1.13-3.09-3.91-4.06-2.56-.89-7.38-1.13-13.1-1.43l-4.92-.19-5.71 16.43 4 2.83c4.7 3.24 8.57 6.19 11.14 7.08 2.79.97 4.57-.02 5.58-.76 0 0-1.07 2.59-2.56 6.88-1.55 4.44-2.21 6.84-2.21 6.84-1.74-3.73-5.99-6.82-15.27-13.67l-28.07-20.57c-.82-.54-1.63-1.16-2.6-1.49-1.06-.37-1.64-.15-1.76-.03l5.48-15.75c.08.03.37.64 1.43 1 .98.34 1.97.43 2.97.45l34.54 1.97c11.42.68 16.64.97 20.32-.87 0 0-1.18 2.89-2.82 7.63zm-50.62.31c-3.4-.17-5.55-.33-6.17-.46.48.34 2.12 1.42 5.11 3.55l16.55 11.67 4.69-13.49-20.17-1.27z" class="cls-4"/><path id="path9" d="m356.06 383.9 1.97 1.49-13.72 20.77c-2.38 3.59-3.32 5.17-3.32 5.17l-.74-1.34c-1.65-3.01-1.9-3.64-21.86-16.84-19.37-12.8-19.81-12.71-23.4-13.07l-1.53-.15s1.28-1.65 4.18-6.04c2.91-4.39 3.91-6.21 3.91-6.21l.69 1.41c1.65 3.01 2.23 3.86 20.6 16l19.9 13.15 3.34-5.06c5.45-8.26 4.22-10.59 2.26-15.44 0 0 2.24 1.96 7.7 6.14z" class="cls-4"/><path id="path10" d="m382.75 306.64-3.12 18.48 20.31 6.69c12.11 3.96 15.85 4.51 18.37 4.25 0 0-1.97 1.23-6.32 4.17l-5.29 3.57-33.24-11.73c12.82 18.98 13.61 19.59 16.79 21.3l1.35.72s-1.81 1.02-5.97 3.84c-4.3 2.9-6 4.24-6 4.24l-.17-1.53c-.33-3.34-.35-4.09-13.75-23.93-12.99-19.24-13.44-19.32-16.61-21.04l-1.35-.72s1.81-1.03 6.11-3.93c4.3-2.91 5.86-4.15 5.86-4.15l.17 1.53c.35 3.22.49 4.29 13.13 23l2.41-19.82c.97-7.4 1.25-9.7-.05-11.61-.67-.99-1.76-1.6-3.08-1.58 0 0 2.47-1.48 6.77-4.38 5.22-3.53 7.52-5.27 7.52-5.27-.85 2.02-1.93 6.69-3.81 17.88z" class="cls-4"/><path id="path11" d="M463.99 321.22c-4.91 1.4-7.01 2.17-7.01 2.17l.32-1.5c.65-3.25.91-4.07-4.87-24.33l-24.09 6.88c5.8 20.33 6.24 20.7 8.71 23.24l1.07 1.11s-2.12.44-6.95 1.81c-4.99 1.42-7.01 2.17-7.01 2.17l.32-1.5c.71-3.35.93-4-5.63-27.02-6.37-22.32-6.77-22.54-9.25-25.15l-1.07-1.11s2.04-.42 7.03-1.84c5.06-1.44 6.94-2.15 6.94-2.15l-.32 1.5c-.67 3.17-.93 4 4.39 22.64l24.09-6.88c-5.27-18.49-5.86-19.07-8.22-21.55l-1.06-1.11s2.04-.42 7.02-1.84c5.06-1.44 6.94-2.15 6.94-2.15l-.32 1.5c-.71 3.35-.93 4 5.63 27.02 6.37 22.32 6.77 22.54 9.25 25.15l1.07 1.11s-2.04.41-6.95 1.81z" class="cls-4"/><path id="path12" d="M504.7 319.26c-16.5-.69-25.04-12.07-24.33-29.12.36-8.53 3.66-30.19 26.86-29.22 16.58.7 25.13 12.07 24.41 29.13-.36 8.53-3.66 30.19-26.93 29.22zm2.21-52.53c-8.45-.35-15.8 5.41-16.54 22.94-.72 17.3 5.97 23.4 14.65 23.77 8.45.35 15.88-5.4 16.61-22.94.72-17.3-6.05-23.41-14.73-23.77z" class="cls-4"/><path id="path13" d="m570.99 329.13-.89 2.31-23.77-7.39c-4.11-1.28-5.89-1.75-5.89-1.75l1.09-1.08c2.43-2.42 2.97-2.84 10.08-25.69 6.89-22.17 6.68-22.57 6.03-26.11l-.29-1.51s1.93.77 6.96 2.33 7.05 2.03 7.05 2.03l-1.17 1.06c-2.43 2.42-3.09 3.22-9.62 24.24l-7.09 22.77 5.79 1.8c9.45 2.94 11.35 1.11 15.45-2.13 0 0-1.26 2.7-3.75 9.11z" class="cls-4"/><path id="path14" d="M597.6 347.83c-13.88-8.95-15.49-23.09-6.25-37.44 4.63-7.17 18.44-24.19 37.95-11.61 13.95 8.99 15.56 23.13 6.32 37.48-4.63 7.17-18.44 24.19-38.02 11.56zm28.49-44.19c-7.1-4.59-16.36-3.33-25.87 11.42-9.38 14.55-6.7 23.21.61 27.92 7.1 4.59 16.43 3.38 25.94-11.38 9.38-14.55 6.63-23.25-.67-27.96z" class="cls-4"/><path id="path15" d="M640.58 386.48c-10.37-12.86-7.46-26.78 5.83-37.5 6.64-5.36 25.1-17.17 39.68.9 10.42 12.92 7.51 26.85-5.78 37.56-6.64 5.36-25.1 17.17-39.72-.96zm40.91-33.01c-5.31-6.58-14.49-8.3-28.15 2.72-13.47 10.87-13.65 19.93-8.19 26.7 5.31 6.58 14.54 8.36 28.2-2.65 13.47-10.88 13.6-20 8.14-26.76z" class="cls-4"/><path id="path16" d="M667.28 429.44c-1.18-3.13-2.25-6.65-3.32-9.49-1.57-4.18-2.54-6.29-2.54-6.29l1.52.19c3.33.45 4.06.6 26.46-7.82 21.73-8.17 21.92-8.58 24.31-11.27l1.02-1.15s.66 2.23 2.23 6.4c1.13 2.99 2.92 7.09 4.13 10.3 3.2 8.52 10.16 28.82-14.86 38.24-27.33 10.28-35.24-9.16-38.97-19.1zm48.38-17.76c-1.07-2.84-2.03-4.95-2.03-4.95l-42.71 16.07s.72 2.37 1.65 4.84c3.79 10.08 10.45 19.17 29.34 12.07 18-6.77 17.72-17.48 13.76-28.02z" class="cls-4"/></g><g id="g35"><path id="path17" d="M278.39 572.66c-2.42-7.13-1.76-11.34-1.76-11.34s1.43-.35 3.91-1.19c2.78-.94 4.8-1.76 4.8-1.76-2.66 3.67-4.38 7.15-2.54 12.59 1.27 3.75 3.49 8.31 8.94 6.47 3.63-1.23 4.52-3.75 5.29-7.05l1.58-6.47c1.23-5.13 2.53-10.63 9.18-12.88 6.16-2.09 12.29.28 15.68 10.25 2.15 6.35 1.59 10.45 1.59 10.45s-1.43.35-4.09 1.25c-2.78.94-4.49 1.66-4.49 1.66 2.76-3.77 4.2-7.09 2.58-11.86-.9-2.66-2.95-7.29-8.15-5.53-3.44 1.17-4.1 4.01-5.08 8.06l-1.27 5.22c-1.39 5.86-2.54 10.77-9.56 13.15-8.64 2.93-13.65-2.31-16.61-11.02" class="cls-4"/><path id="path18" d="M310.36 635.3c-2.01-3.18-3.58-5.44-3.58-5.44.92.39 2.49.84 4.49-.41 1.84-1.16 4.39-4.05 7.43-7.47l2.57-2.98-7.42-11.77-3.76 1.09c-4.38 1.32-8.15 2.27-9.99 3.43-2 1.26-2.27 2.86-2.31 3.87 0 0-1.08-1.96-3.02-5.04-2.01-3.18-3.17-4.8-3.17-4.8 3.2.77 7.25-.34 16.17-2.72l26.87-7.27c.75-.24 1.54-.44 2.23-.88.76-.48.91-.95.9-1.09l7.11 11.29c-.05.03-.58-.08-1.34.39-.71.45-1.25 1.02-1.76 1.64l-18.47 20.61c-6.12 6.8-8.92 9.92-9.6 13.14 0 0-1.22-2.18-3.36-5.58h-.02zm25.07-31.78c1.81-2.04 2.97-3.31 3.37-3.63-.45.13-1.95.62-4.76 1.42l-15.56 4.52 6.09 9.67z" class="cls-4"/><path id="path19" d="M386.13 650.92c-2.41.81-3.17 1.07-13.9 12.71l-2.86 3.09c-5.41 5.86-8.28 8.78-12.17 9.7-4.6 1.31-9.51.34-15.38-5.08-4.83-4.46-7.44-8.87-6.96-13.81.34-3.85 2.08-6.68 7.36-12.4l3.42-3.7c11.61-12.56 11.98-13.34 12.72-16.13l.31-1.18s1.23 1.31 4.22 4.08c2.96 2.73 4.4 3.89 4.4 3.89l-1.16.41c-2.41.81-3.17 1.07-13.9 12.7l-6.02 6.52c-1.3 1.4-2.9 3.33-3.61 4.66-2.14 4.01-1.44 7.87 2.72 11.72 4.08 3.77 8.08 4.33 12.08 1.69 1.14-.76 2.66-2.23 3.88-3.54l4.54-4.92c12.6-13.65 12.59-14.01 13.34-16.79l.31-1.18s.99 1.09 3.8 3.69c2.81 2.59 3.98 3.5 3.98 3.5l-1.16.41v-.02z" class="cls-4"/><path id="path20" d="M390.58 705.4c-2.39-1.21-4.93-2.7-7.1-3.79-3.19-1.6-4.9-2.33-4.9-2.33l1-.71c2.2-1.54 2.71-1.85 11.33-18.95 8.36-16.59 8.24-16.93 8.19-19.81l-.03-1.23s1.6.95 4.79 2.55c2.28 1.15 5.56 2.59 8.01 3.82 6.5 3.28 21.6 11.45 11.98 30.54-10.51 20.86-25.7 13.71-33.28 9.89zm18.83-36.67c-2.17-1.09-3.88-1.81-3.88-1.81l-16.42 32.6s1.71 1.01 3.59 1.95c7.69 3.87 16.54 5.61 23.8-8.81 6.92-13.74.94-19.89-7.1-23.93z" class="cls-4"/><path id="path21" d="M442.66 725.27c-4.02-1.02-5.72-1.32-5.72-1.32l.82-.91c1.83-2.04 2.25-2.39 6.96-20.95 4.57-18.01 4.38-18.32 3.71-21.12l-.29-1.19s1.58.53 5.6 1.55 5.66 1.3 5.66 1.3l-.82.91c-1.83 2.04-2.25 2.39-6.96 20.95-4.57 18.01-4.38 18.32-3.71 21.12l.29 1.19s-1.64-.55-5.53-1.54z" class="cls-4"/><path id="path22" d="M531.7 730.67c-3.75.29-6.48.62-6.48.62.78-.64 1.91-1.81 1.73-4.17-.17-2.17-1.53-5.78-3.13-10.07l-1.43-3.67-13.87 1.05-.8 3.84c-.87 4.48-1.81 8.26-1.65 10.43.18 2.35 1.47 3.34 2.34 3.85 0 0-2.23.04-5.86.32-3.75.29-5.72.56-5.72.56 2.18-2.47 3.09-6.57 5.16-15.56l6.14-27.16c.13-.78.33-1.56.27-2.39-.07-.89-.41-1.25-.55-1.3l13.3-1.01c0 .07-.34.48-.28 1.37.06.83.31 1.58.62 2.32l9.58 25.97c3.15 8.6 4.59 12.52 7.12 14.63 0 0-2.49.06-6.5.36zm-16.38-37.04c-.96-2.55-1.53-4.17-1.64-4.68-.09.45-.36 2.02-.97 4.87l-3.28 15.86 11.4-.87-5.5-15.2z" class="cls-4"/><path id="path23" d="M590.05 715.38c-4.29 1.44-6.54.18-10.99-3.43l-6.32-5.15c-5.46-4.43-6.53-5.41-9.56-4.39-.6.2-1.01.4-1.01.4 5.13 15.24 5.66 16.01 7.73 17.94l.89.85s-1.61.41-5.43 1.69c-3.75 1.26-5.4 1.96-5.4 1.96l.2-1.21c.45-2.65.6-3.23-5.52-21.37-5.93-17.6-6.26-17.76-8.34-19.75l-.89-.85s1.91-.51 4.58-1.4c1.81-.61 5.1-1.86 7.21-2.57 7.5-2.53 16.88-5.08 20.38 5.32 1.9 5.63.5 12.69-9.25 15.91 5.25-1.02 7.99.94 12.82 5.05l4.69 4.14c3.16 2.77 5.44 4.56 8.23 4.84 0 0-.71.91-4.03 2.03zm-31.67-33.24c-1.57.53-2.8 1.07-2.8 1.07l5.26 15.6s1.11-.31 3.35-1.06c.79-.27 2.5-.97 3.49-1.44 2.84-1.56 4.48-4.88 2.87-9.66-2.33-6.89-6.72-6.36-12.17-4.53z" class="cls-4"/><path id="path24" d="M637.97 687.62c-3.16 2.05-5.39 3.64-5.39 3.64.39-.93.81-2.5-.47-4.48-1.18-1.82-4.1-4.34-7.57-7.34l-3.01-2.54-11.68 7.56 1.13 3.75c1.38 4.36 2.37 8.12 3.54 9.94 1.28 1.98 2.89 2.23 3.9 2.27 0 0-1.95 1.11-5 3.08-3.16 2.05-4.75 3.22-4.75 3.22.73-3.21-.43-7.25-2.91-16.13l-7.6-26.78c-.25-.75-.45-1.53-.91-2.23-.49-.75-.97-.9-1.1-.88l11.19-7.25c.03.05-.08.58.4 1.34.45.7 1.02 1.23 1.65 1.74l20.84 18.21c6.88 6.04 10.03 8.79 13.25 9.44 0 0-2.16 1.24-5.53 3.43zm-32.09-24.69c-2.07-1.78-3.34-2.93-3.67-3.33.13.45.65 1.94 1.48 4.74l4.71 15.5 9.59-6.21-12.1-10.72z" class="cls-4"/><path id="path25" d="M675.83 650.77c-1.25 3.02-3.16 5.17-6.99 9.28-1.52 1.64-3.62 3.7-5.14 5.33-2.52 2.7-3.56 4.01-3.56 4.01l-.4-1.16c-.86-2.54-1.02-3.12-15.02-16.17-13.59-12.66-13.95-12.65-16.73-13.4l-1.18-.32s1.35-1.27 3.27-3.33c1.3-1.4 3.43-3.87 4.74-5.27 6.48-6.96 13-12.83 20.47-5.87 5.23 4.87 4.08 10.61 1.43 14.85 3.35-3.59 9.65-6.71 15.86-.92 4.85 4.53 4.63 9.55 3.26 12.98zm-37.42-18.72c-1.18 1.26-2.12 2.47-2.12 2.47l11.63 10.83s.92-.8 2.53-2.53c.56-.6 1.65-2.05 2.24-2.97 1.76-2.64 1.71-6.42-1.92-9.82-5.05-4.69-8.83-1.76-12.34 2.02zm15.24 13.5c-1.3 1.4-2.47 2.84-2.47 2.84l12.09 11.27s.66-.52 2.88-2.91c2.04-2.19 3.29-4 3.61-5.18.57-1.74 1.18-4.74-2.78-8.44-5-4.65-9.2-2.02-13.33 2.41z" class="cls-4"/><path id="path26" d="M698.29 621.59c-2.18 3.53-2.97 5.06-2.97 5.06l-.62-1.06c-1.39-2.36-1.6-2.86-17.9-12.92-15.8-9.75-16.16-9.67-19.04-9.87l-1.23-.08s.98-1.34 3.16-4.88 2.94-5.01 2.94-5.01l.62 1.06c1.39 2.36 1.6 2.86 17.9 12.92 15.8 9.75 16.16 9.67 19.04 9.86l1.23.08s-1.02 1.4-3.12 4.82v.02z" class="cls-4"/><path id="path27" d="M723.52 566.22c-1.28 3.54-2.11 6.16-2.11 6.16-.25-.97-.86-2.49-3.08-3.29-2.04-.74-5.89-.99-10.46-1.29l-3.93-.21-4.76 13.08 3.17 2.31c3.72 2.65 6.79 5.06 8.83 5.79 2.22.81 3.65.04 4.48-.55 0 0-.88 2.06-2.13 5.48-1.28 3.54-1.85 5.44-1.85 5.44-1.35-3.01-4.71-5.52-12.05-11.11l-22.21-16.78c-.66-.45-1.28-.94-2.07-1.23-.84-.3-1.31-.13-1.41-.04l4.56-12.53c.06.03.29.51 1.13.81.78.29 1.56.37 2.37.39l27.6 1.97c9.13.67 13.3.97 16.27-.46 0 0-.97 2.29-2.34 6.07h.02zm-40.49-.34c-2.72-.18-4.43-.33-4.94-.44.38.28 1.68 1.16 4.04 2.9l13.1 9.52 3.91-10.73-16.12-1.25z" class="cls-4"/></g></g><g id="g37" style="display:inline"><g id="g29"><path id="path28" d="M276.36 513.67v-16.85l-8.25 3.48v-3.63l9.95-5.72h3.14v22.73l.72 3.79h-6.62l1.06-3.79z" class="cls-2"/><path id="path29" d="m288.77 516.95-.76-5.29 3.93 2.41c1.33.44 2.57.51 3.63.51 4.23 0 7.19-3.2 7.3-8.76-1.51 1.34-3.78 2.72-6.89 2.72-5.48 0-9.27-3.79-9.27-8.68 0-5.25 4.23-9.24 10.33-9.24 6.66 0 11.01 4.85 11.01 13.14 0 9.15-4.95 14.4-11.99 14.4-2.54 0-4.92-.44-7.3-1.23zm14.04-14.92c-.15-4.38-2.01-7.5-5.63-7.5-3.07 0-5.33 2.37-5.33 5.13s2.08 4.93 5.11 4.93c2.38 0 4.43-1.38 5.86-2.56z" class="cls-2"/></g><g id="g31"><path id="path30" d="M705.63 491.26v2.13l-11.16 24.75-5.45-1.7 11.72-21.08h-12.07l-3.75.91.8-5.01h19.9z" class="cls-2"/><path id="path31" d="M707.34 504.36c0-9.31 4.53-13.77 11.12-13.77s11.16 4.46 11.16 13.77-4.58 13.81-11.16 13.81-11.12-4.53-11.12-13.81m17.14 0c0-7.5-2.57-9.94-5.98-9.94s-6.05 2.44-6.05 9.94 2.57 9.91 5.98 9.91 6.05-2.41 6.05-9.91" class="cls-2"/></g></g></g></svg>