<svg xmlns="http://www.w3.org/2000/svg" width="300" height="300" viewBox="0 0 300 300"><defs id="defs1"><style>.cls-1{fill:#fedc00}.cls-2{fill:#081c4e}</style></defs><g id="g37" transform="matrix(.5585 0 0 .5585 -129.246 -129.526)"><path id="path1" d="M500 231.92c-148.1 0-268.58 120.48-268.58 268.58S351.9 769.08 500 769.08 768.58 648.6 768.58 500.5 648.11 231.92 500 231.92m0 526.84c-142.4 0-258.25-115.85-258.25-258.25S357.6 242.25 500 242.25 758.25 358.1 758.25 500.5 642.4 758.75 500 758.75z" class="cls-2"/><path id="path2" d="M500 242.25c-142.4 0-258.25 115.85-258.25 258.25S357.6 758.75 500 758.75 758.25 642.9 758.25 500.5 642.41 242.25 500 242.25m0 510.15c-138.9 0-251.9-113-251.9-251.9s113-251.9 251.9-251.9 251.9 113 251.9 251.9-113 251.9-251.9 251.9" class="cls-1"/><path id="path3" d="M500 248.6c-138.9 0-251.9 113-251.9 251.9s113 251.9 251.9 251.9 251.9-113 251.9-251.9-113-251.9-251.9-251.9m213.33 255.82c0 .52-.02 1.02-.03 1.54-.02 1.06-.06 2.11-.1 3.16a229.796 229.796 0 0 1-.21 4.23c-.02.51-.06 1.02-.1 1.53-.05.81-.11 1.63-.17 2.44-.46 5.93-1.17 11.8-2.12 17.58-.1.66-.21 1.33-.33 1.99-.11.64-.22 1.27-.34 1.9-.11.62-.22 1.23-.34 1.84l-.42 2.17c-.29 1.44-.6 2.87-.92 4.3-.14.66-.29 1.32-.44 1.97-.03.14-.06.26-.1.39-.14.64-.3 1.28-.46 1.91-.29 1.19-.59 2.38-.91 3.57-.26.99-.52 1.96-.8 2.94l-.48 1.71-.18.64c-.17.56-.33 1.12-.5 1.68-.41 1.39-.85 2.77-1.29 4.15-.22.69-.44 1.37-.68 2.07-.23.68-.46 1.37-.7 2.05-.23.68-.47 1.37-.72 2.04a153 153 0 0 1-1.38 3.77c-.3.77-.6 1.54-.9 2.3-.25.67-.52 1.33-.79 2s-.55 1.33-.82 1.99c-.83 1.99-1.68 3.97-2.57 5.93-.37.82-.75 1.63-1.12 2.44q-1.125 2.43-2.34 4.83c-.41.8-.81 1.6-1.22 2.39-1.95 3.81-4.03 7.56-6.21 11.23-.72 1.22-1.45 2.44-2.22 3.65-.54.87-1.08 1.73-1.64 2.59-.29.48-.6.96-.92 1.44-.16.24-.31.48-.47.71-.42.66-.86 1.32-1.31 1.97-.98 1.48-1.99 2.93-3.03 4.38-.5.72-1.02 1.45-1.56 2.16-.51.71-1.04 1.43-1.58 2.14-.53.71-1.07 1.41-1.61 2.11l-5.04-3.85c1.68-2.18 3.31-4.4 4.89-6.65.41-.56.8-1.12 1.18-1.69q2.955-4.245 5.67-8.64c1.1-1.76 2.17-3.54 3.2-5.33.36-.6.7-1.19 1.03-1.8 1.03-1.8 2.03-3.62 2.99-5.47.33-.61.65-1.22.96-1.84.33-.62.64-1.24.95-1.86.32-.62.63-1.24.92-1.86.3-.63.6-1.25.91-1.87.91-1.88 1.77-3.78 2.61-5.69.56-1.27 1.11-2.55 1.64-3.84.26-.65.53-1.29.79-1.94.27-.64.52-1.29.78-1.95s.51-1.3.75-1.95c.25-.65.5-1.3.74-1.96s.48-1.31.72-1.97.47-1.32.7-1.99c.46-1.32.91-2.65 1.33-3.99.78-2.4 1.51-4.82 2.2-7.25.17-.6.33-1.19.5-1.79.87-3.21 1.68-6.44 2.4-9.72.13-.56.25-1.14.37-1.72.53-2.49 1.02-5 1.45-7.52l.33-1.93c.06-.36.12-.72.17-1.08.18-1.15.36-2.3.52-3.46.07-.48.14-.96.2-1.45.07-.5.14-1 .2-1.51.1-.71.18-1.43.26-2.14.25-2.15.47-4.31.65-6.48a124.244 124.244 0 0 0 .28-3.64v-.04c.06-.91.12-1.83.17-2.75v-.12c.04-.88.09-1.76.12-2.65.03-.72.06-1.45.07-2.18.02-.54.03-1.08.05-1.63.02-.65.02-1.31.03-1.96 0-.87.02-1.73.02-2.6s0-1.72-.02-2.58c0-.64-.02-1.27-.03-1.91-.02-.56-.02-1.14-.05-1.7-.02-.71-.04-1.44-.07-2.15-.03-.87-.07-1.76-.12-2.63v-.13c-.05-.87-.1-1.72-.16-2.59a87 87 0 0 0-.24-3.25c-.06-.8-.13-1.6-.21-2.39-.08-.91-.17-1.82-.27-2.72l-.24-2.18c-.07-.61-.15-1.23-.23-1.84-.08-.64-.16-1.28-.25-1.92-.21-1.49-.42-2.97-.66-4.46-.1-.6-.19-1.2-.29-1.8-.02-.14-.05-.29-.07-.43-.11-.66-.22-1.32-.35-1.98-.1-.55-.19-1.1-.29-1.64l-.26-1.33c-.21-1.1-.43-2.2-.67-3.3q-.21-1.035-.45-2.07c-.13-.6-.26-1.21-.41-1.81-.05-.25-.11-.49-.17-.75-.12-.53-.24-1.06-.37-1.57-.53-2.18-1.1-4.35-1.7-6.5-.14-.53-.29-1.06-.44-1.58-.02-.05-.03-.1-.05-.14-.37-1.33-.77-2.65-1.18-3.96a211 211 0 0 0-4.84-13.81c-.75-1.94-1.54-3.86-2.36-5.78-.27-.64-.55-1.28-.83-1.91-.27-.63-.55-1.26-.83-1.87l-.02-.05c-2.55-5.67-5.35-11.21-8.39-16.59l-1.02-1.8c-.68-1.19-1.38-2.38-2.1-3.55-.36-.59-.72-1.18-1.07-1.76-.72-1.18-1.45-2.34-2.2-3.49-1.49-2.31-3.01-4.58-4.6-6.82-.47-.67-.94-1.33-1.41-1.99-.72-1.01-1.45-2-2.2-2.99-.41-.55-.81-1.1-1.24-1.64a208 208 0 0 0-23.31-25.77l4.34-4.66c1.64 1.53 3.25 3.09 4.83 4.67 1.59 1.57 3.15 3.18 4.69 4.81 3.08 3.27 6.05 6.62 8.91 10.07 2.93 3.52 5.75 7.13 8.44 10.84.07.1.15.21.23.32.06.08.12.17.17.25 1 1.38 1.99 2.77 2.96 4.18 1.21 1.74 2.38 3.51 3.53 5.29.38.6.76 1.19 1.14 1.8.76 1.2 1.5 2.4 2.23 3.61.37.61.72 1.22 1.09 1.83.36.61.72 1.22 1.07 1.84s.7 1.23 1.05 1.85c.36.62.71 1.24 1.04 1.86.68 1.25 1.36 2.49 2.02 3.75.64 1.22 1.26 2.43 1.87 3.65.05.11.1.22.17.33.62 1.24 1.23 2.49 1.82 3.74s1.18 2.52 1.75 3.79q.45.96.87 1.95c.29.65.58 1.31.85 1.97.85 1.97 1.66 3.96 2.44 5.96.27.67.52 1.33.77 2.01.26.67.52 1.34.75 2.02.5 1.34.99 2.7 1.45 4.06.23.68.47 1.36.69 2.04.24.68.46 1.37.68 2.06.23.68.44 1.37.65 2.06s.43 1.38.64 2.07.41 1.38.61 2.08c.21.69.4 1.39.59 2.09q.285 1.035.57 2.1c.18.69.37 1.4.55 2.11.36 1.41.71 2.81 1.03 4.23.17.71.33 1.41.48 2.13.17.71.32 1.42.47 2.14.56 2.63 1.06 5.28 1.53 7.94.09.5.17 1 .25 1.5.08.45.15.91.22 1.37.12.72.23 1.45.33 2.18.07.44.14.9.2 1.35.17 1.18.33 2.37.47 3.56.07.56.14 1.12.2 1.68.09.73.17 1.47.25 2.21.16 1.49.3 2.99.43 4.5.06.72.12 1.45.17 2.17.06.75.11 1.49.15 2.24.1 1.49.17 2.99.24 4.49.02.4.03.79.05 1.19.02.71.05 1.41.06 2.13.02.6.03 1.22.04 1.83.02.54.02 1.09.02 1.64 0 .75.02 1.52.02 2.27s0 1.53-.02 2.28c0 .55 0 1.1-.02 1.64z" class="cls-2"/><path id="path4" d="M547.04 655.7c1.56-.47 3.11-.96 4.64-1.49-1.55.52-3.11 1.01-4.69 1.49z" class="cls-1"/><path id="path5" d="M500 332.02c-92.9 0-168.48 75.59-168.48 168.49S407.1 668.99 500 668.99s168.49-75.58 168.49-168.48S592.91 332.02 500 332.02m162.08 172.67c0 .55-.02 1.09-.05 1.64-.05 1.47-.12 2.93-.21 4.39l-.06.91c-.02.45-.06.91-.1 1.35-.06.74-.11 1.48-.18 2.22-.03.41-.07.8-.11 1.21-.03.34-.06.69-.1 1.03-.31 2.96-.69 5.88-1.15 8.79-.13.76-.25 1.53-.39 2.29l-.12.7q-.15.9-.33 1.8c-.14.72-.28 1.45-.43 2.17-.11.55-.22 1.1-.34 1.64-.55 2.53-1.15 5.04-1.81 7.52-.1.37-.2.74-.3 1.1a166 166 0 0 1-1.54 5.28c-.64 2.07-1.33 4.13-2.06 6.17-.16.46-.33.91-.49 1.36-.23.64-.47 1.28-.71 1.91-.17.46-.35.91-.53 1.37-.71 1.8-1.44 3.57-2.2 5.33-.19.45-.38.89-.58 1.33-.17.4-.35.79-.52 1.18-.25.53-.48 1.06-.73 1.58-.05.1-.1.21-.15.32l-.72 1.53c-.45.94-.91 1.87-1.39 2.8-.24.48-.48.95-.73 1.43-.17.35-.36.69-.54 1.03a169.99 169.99 0 0 1-2.56 4.67c-.51.9-1.03 1.8-1.56 2.69-.55.91-1.1 1.83-1.67 2.72-.28.45-.56.91-.85 1.35-1.49 2.33-3.03 4.62-4.62 6.86-.56.79-1.12 1.57-1.7 2.34-.32.43-.64.86-.95 1.28-.64.85-1.29 1.69-1.94 2.53-.03.03-.06.06-.07.1-.64.8-1.27 1.6-1.92 2.38-.66.83-1.34 1.64-2.03 2.45-.68.81-1.37 1.61-2.09 2.41-.69.79-1.4 1.58-2.13 2.36-1.43 1.56-2.89 3.09-4.39 4.58-1.49 1.5-3.01 2.97-4.55 4.42 0 0-.02 0-.02.02-.77.73-1.56 1.45-2.35 2.14-.54.48-1.09.97-1.64 1.45a161.5 161.5 0 0 1-26.81 18.96c-.93.53-1.86 1.05-2.8 1.55-1.88 1.02-3.78 1.99-5.71 2.93a162 162 0 0 1-11.8 5.2c-2 .79-4.03 1.53-6.08 2.25-.52.17-1.03.36-1.55.52-1.53.52-3.08 1.02-4.64 1.49h-.05l-48.62 1.77-19.39-14.97-38.79-43.94L415 558.19l-8.56-33.75-14.07-12.52-17.43-43.7 11.04-11.04 15.28 22.73c2.9 4.31 6.16 8.37 9.77 12.11a72.4 72.4 0 0 1 18.3 33.52l2.71 11.44 14.28 13.32 25.97 37.8 10.06 41.47 63.53-17.4 30.15-11.69 6.71-9.71 55.59-33.99v-8.52l17.65-22.5-16.27-23.56-15.55-4.43-8.26-23.99-17.71 17.11-26.37 8.42-7.76-6.65-1.41-6.83-.4-10.43-7.7 5.5h-3.87l-18.93-28.71-6.51-22.12 16.67-.76 12.77 20.11 40.64 20.81 20.87-5.82 13.66 16 31.55 4.54c.25 2.53.43 5.08.56 7.64 0 .11 0 .22.02.33.03.58.06 1.16.07 1.73.07 1.95.11 3.92.11 5.89 0 .7 0 1.4-.02 2.1 0 .7-.02 1.39-.04 2.09z" class="cls-1"/><path id="path6" d="M713.37 500.5c0 .76 0 1.53-.02 2.28 0 .55 0 1.1-.02 1.64 0 .52-.02 1.02-.03 1.54-.02 1.06-.06 2.11-.1 3.16a229.796 229.796 0 0 1-.21 4.23c-.02.51-.06 1.02-.1 1.53-.05.81-.11 1.63-.17 2.44-.46 5.93-1.17 11.8-2.12 17.58-.1.67-.21 1.33-.33 1.99-.11.64-.22 1.27-.34 1.9-.11.62-.22 1.23-.34 1.84l-.42 2.17c-.29 1.44-.6 2.87-.92 4.3-.14.66-.29 1.32-.44 1.97-.03.14-.06.26-.1.39-.15.64-.3 1.28-.46 1.91-.29 1.19-.6 2.38-.91 3.57-.26.99-.52 1.96-.8 2.94l-.48 1.71-.18.64c-.17.56-.33 1.12-.5 1.68-.41 1.39-.85 2.77-1.29 4.15-.22.69-.44 1.37-.68 2.07-.23.68-.46 1.37-.7 2.05s-.48 1.37-.72 2.04c-.45 1.26-.91 2.53-1.38 3.77-.3.77-.6 1.54-.9 2.3-.26.67-.52 1.33-.79 2s-.55 1.33-.82 1.99c-.83 1.99-1.69 3.96-2.57 5.93-.37.82-.75 1.63-1.12 2.44q-1.14 2.43-2.34 4.83c-.41.8-.81 1.6-1.22 2.39-1.96 3.81-4.04 7.55-6.21 11.23-.73 1.22-1.47 2.44-2.22 3.65-.54.87-1.08 1.73-1.64 2.59-.3.48-.61.96-.92 1.44-.16.24-.31.48-.47.71-.43.66-.87 1.32-1.31 1.97-.99 1.48-2 2.93-3.03 4.38-.52.72-1.03 1.45-1.56 2.16-.52.71-1.05 1.43-1.58 2.14s-1.06 1.42-1.6 2.12l-5.04-3.85c1.68-2.18 3.31-4.4 4.89-6.65.41-.56.8-1.12 1.18-1.69q2.955-4.245 5.67-8.64c1.1-1.76 2.17-3.54 3.2-5.33.36-.6.7-1.19 1.03-1.8 1.03-1.8 2.03-3.62 2.99-5.47.33-.61.65-1.22.96-1.84.33-.62.64-1.24.95-1.86.32-.62.63-1.24.92-1.86.3-.63.6-1.25.91-1.87.91-1.88 1.77-3.78 2.61-5.69.56-1.27 1.11-2.55 1.64-3.84.26-.65.53-1.29.79-1.94.27-.64.52-1.29.78-1.95s.51-1.3.75-1.95c.25-.65.5-1.3.74-1.96s.48-1.31.72-1.97.47-1.32.7-1.99c.46-1.32.91-2.65 1.33-3.99.78-2.4 1.51-4.82 2.2-7.25.17-.6.33-1.19.5-1.79.87-3.21 1.68-6.44 2.4-9.72.13-.56.25-1.14.37-1.72.53-2.49 1.02-5 1.45-7.52l.33-1.93c.06-.36.12-.72.17-1.08.18-1.15.36-2.3.52-3.46.07-.48.14-.96.2-1.45.07-.5.14-1 .2-1.51.1-.71.18-1.43.26-2.14.25-2.15.47-4.31.65-6.48a124.244 124.244 0 0 0 .28-3.64v-.04c.06-.91.12-1.83.17-2.75v-.12c.04-.88.09-1.76.12-2.65.03-.72.06-1.45.07-2.18.02-.54.03-1.08.05-1.63.02-.65.02-1.31.03-1.96 0-.87.02-1.73.02-2.6s0-1.72-.02-2.58c0-.64-.02-1.27-.03-1.91-.02-.56-.02-1.14-.05-1.7-.02-.71-.04-1.44-.07-2.15-.03-.87-.07-1.76-.12-2.63v-.13c-.05-.87-.1-1.72-.16-2.59a87 87 0 0 0-.24-3.25c-.06-.8-.13-1.6-.21-2.39-.08-.91-.17-1.82-.27-2.72l-.24-2.18c-.07-.61-.15-1.23-.23-1.84-.08-.64-.16-1.28-.25-1.92-.21-1.49-.42-2.97-.66-4.46-.1-.6-.19-1.2-.29-1.8-.02-.14-.05-.29-.07-.43-.11-.66-.22-1.32-.35-1.98-.1-.55-.19-1.1-.29-1.64l-.26-1.33c-.21-1.1-.43-2.2-.67-3.3q-.21-1.035-.45-2.07c-.13-.6-.26-1.21-.41-1.81-.05-.25-.11-.49-.17-.75-.12-.53-.24-1.06-.37-1.57-.53-2.18-1.1-4.35-1.7-6.5-.14-.53-.29-1.06-.44-1.58-.02-.05-.03-.1-.05-.14-.37-1.33-.77-2.65-1.18-3.96a211 211 0 0 0-4.84-13.81c-.75-1.94-1.54-3.86-2.36-5.78-.27-.64-.55-1.28-.83-1.91-.27-.63-.55-1.26-.83-1.87l-.02-.05c-2.55-5.67-5.35-11.21-8.39-16.59l-1.02-1.8c-.68-1.19-1.38-2.38-2.1-3.55-.36-.59-.72-1.18-1.07-1.76-.72-1.18-1.45-2.34-2.2-3.49-1.49-2.31-3.01-4.58-4.6-6.82-.47-.67-.94-1.33-1.41-1.99-.72-1.01-1.45-2-2.2-2.99-.41-.55-.81-1.1-1.24-1.64a208 208 0 0 0-23.31-25.77l4.34-4.66c1.64 1.53 3.25 3.09 4.83 4.67 1.59 1.58 3.15 3.19 4.69 4.81 3.07 3.27 6.05 6.62 8.91 10.07 1.91 2.3 3.77 4.64 5.58 7.01.28.36.54.72.81 1.09.68.91 1.37 1.82 2.05 2.74.07.1.15.21.23.32.06.08.12.17.17.25 1 1.38 1.99 2.77 2.96 4.18 1.2 1.75 2.38 3.51 3.53 5.29.38.6.76 1.19 1.14 1.8.75 1.19 1.49 2.4 2.23 3.61.37.61.72 1.22 1.09 1.83.36.61.72 1.22 1.07 1.84s.7 1.23 1.05 1.85.7 1.24 1.04 1.86c.68 1.25 1.36 2.49 2.02 3.75.64 1.22 1.26 2.43 1.87 3.65.05.11.1.22.17.33.61 1.24 1.22 2.49 1.82 3.74.59 1.26 1.18 2.52 1.75 3.79l.87 1.95a239.868 239.868 0 0 1 3.29 7.93c.26.67.52 1.34.77 2.01s.51 1.34.75 2.02c.49 1.34.98 2.7 1.45 4.06q.36 1.02.69 2.04c.23.68.45 1.37.68 2.06.22.68.44 1.37.65 2.06s.43 1.38.64 2.07.41 1.38.61 2.08c.2.69.4 1.39.59 2.09q.285 1.035.57 2.1c.18.69.37 1.4.55 2.11.36 1.41.71 2.81 1.03 4.23.17.71.33 1.41.48 2.13.16.71.32 1.42.47 2.14.56 2.63 1.06 5.28 1.53 7.94.09.5.17 1 .25 1.5.08.45.15.91.22 1.37.12.72.23 1.45.33 2.18.07.44.14.9.2 1.35.17 1.18.33 2.37.47 3.56.07.56.14 1.12.2 1.68.09.73.17 1.47.25 2.21.16 1.49.3 2.99.43 4.5.06.72.12 1.45.17 2.17.06.75.11 1.49.15 2.24.1 1.49.17 2.99.24 4.49.02.4.03.79.05 1.19.02.71.05 1.41.06 2.13.02.6.03 1.22.04 1.83.02.54.02 1.09.02 1.64 0 .75.02 1.52.02 2.27z" class="cls-1"/><path id="path7" d="M664.23 626.37c1.68-2.18 3.31-4.39 4.9-6.64-1.58 2.25-3.22 4.47-4.89 6.65z" class="cls-1"/><path id="path8" d="M674.07 388.58c-1.49-2.3-3.02-4.58-4.6-6.82 1.59 2.24 3.11 4.51 4.6 6.82" class="cls-1"/><path id="path9" d="M670.32 618.04c1.96-2.84 3.85-5.71 5.67-8.64-1.81 2.93-3.7 5.82-5.67 8.64" class="cls-1"/><path id="path10" d="M675.99 609.39c1.09-1.76 2.16-3.54 3.2-5.33-1.03 1.8-2.1 3.57-3.2 5.33" class="cls-1"/><path id="path11" d="M680.22 602.27c1.02-1.8 2.02-3.62 2.99-5.47-.96 1.84-1.95 3.66-2.99 5.47" class="cls-1"/><path id="path12" d="M688.86 415.76c-2.55-5.66-5.35-11.2-8.39-16.59 3.04 5.38 5.84 10.92 8.39 16.59" class="cls-1"/><path id="path13" d="M686.94 589.37" class="cls-1"/><path id="path14" d="M293 497.86c0 .88-.02 1.76-.02 2.64s0 1.77.02 2.65v.09c.02.87.03 1.73.06 2.6.02.79.04 1.6.07 2.38 0 .15 0 .3.02.45.03.83.07 1.64.11 2.46.04.86.1 1.72.14 2.57.1 1.5.21 2.99.33 4.49l.12 1.36c.06.64.12 1.27.19 1.91l.15 1.42.18 1.67c.39 3.38.87 6.75 1.42 10.09.14.82.28 1.64.43 2.46.39 2.18.82 4.37 1.28 6.53.14.7.29 1.39.45 2.08.15.69.31 1.39.48 2.08.16.69.33 1.37.49 2.07.19.78.39 1.55.59 2.32.25.98.51 1.95.77 2.91.15.56.31 1.11.46 1.67.27.94.54 1.87.82 2.8.24.8.48 1.61.73 2.42.44 1.38.88 2.76 1.34 4.12.17.54.37 1.09.56 1.63.17.5.34 1 .52 1.49.28.79.56 1.59.86 2.38.2.55.4 1.09.6 1.63.91 2.41 1.86 4.79 2.85 7.16.19.46.38.92.59 1.38.27.64.54 1.28.83 1.91a212 212 0 0 0 2.61 5.69c.29.63.6 1.26.91 1.87.3.63.61 1.24.92 1.86.63 1.24 1.26 2.47 1.91 3.69.32.61.64 1.22.98 1.84.65 1.22 1.33 2.43 2.01 3.63.33.6.68 1.2 1.03 1.8.34.6.69 1.19 1.05 1.79.7 1.19 1.41 2.38 2.15 3.54 1.81 2.93 3.7 5.82 5.67 8.64 1.95 2.84 3.98 5.62 6.08 8.34l-5.04 3.85c-1.29-1.68-2.57-3.39-3.81-5.12a216 216 0 0 1-8.3-12.39c-.75-1.21-1.49-2.42-2.22-3.65-2.18-3.68-4.25-7.42-6.21-11.23-.98-1.91-1.93-3.83-2.86-5.77-1.54-3.23-3-6.51-4.39-9.82-.27-.66-.55-1.33-.82-1.99-1.35-3.34-2.61-6.7-3.8-10.12-.24-.68-.47-1.37-.7-2.05-.92-2.74-1.78-5.51-2.59-8.3q-.315-1.05-.6-2.1c-.24-.85-.47-1.71-.7-2.57-.51-1.91-.99-3.85-1.45-5.78-.02-.06-.03-.11-.04-.17-.17-.69-.33-1.39-.48-2.09-.17-.71-.32-1.43-.47-2.14-.2-.91-.38-1.81-.56-2.72-.25-1.26-.48-2.51-.71-3.77-.13-.72-.25-1.45-.38-2.18s-.25-1.45-.36-2.18c-.09-.55-.17-1.09-.25-1.64l-.21-1.41c-.28-1.91-.53-3.84-.75-5.78-.06-.48-.11-.97-.16-1.46-.07-.63-.14-1.26-.2-1.89-.08-.71-.14-1.44-.21-2.16-.06-.59-.11-1.18-.15-1.78l-.12-1.39c-.11-1.57-.21-3.15-.29-4.73-.02-.41-.05-.8-.06-1.2-.03-.58-.06-1.15-.08-1.73-.05-1.08-.08-2.16-.1-3.24-.02-.46-.02-.92-.02-1.38-.02-.51-.02-1.02-.02-1.53 0-.75-.02-1.52-.02-2.28s0-1.52.02-2.27c0-.52 0-1.05.02-1.57 0-.55.02-1.1.03-1.65.02-.91.05-1.82.09-2.72q.15-3.795.42-7.56c.04-.58.09-1.16.14-1.74.04-.55.09-1.1.14-1.64.06-.67.12-1.33.19-1.99a204.63 204.63 0 0 1 .64-5.72l.12-.88q.105-.9.24-1.8c.08-.57.16-1.14.25-1.71.1-.73.21-1.46.33-2.18.41-2.59.87-5.16 1.37-7.71.11-.6.23-1.19.36-1.79.13-.63.25-1.26.4-1.88.11-.52.22-1.04.34-1.56l.48-2.13c.33-1.42.68-2.83 1.03-4.23.17-.64.33-1.28.5-1.91q.045-.18.09-.33c.17-.64.34-1.26.51-1.88.4-1.42.8-2.84 1.22-4.24.42-1.38.84-2.76 1.29-4.13.22-.69.44-1.37.68-2.06.22-.68.46-1.36.69-2.04.94-2.72 1.93-5.42 2.97-8.09 1.57-4 3.25-7.94 5.04-11.83.9-1.94 1.82-3.86 2.77-5.78.64-1.27 1.29-2.53 1.95-3.8a213.202 213.202 0 0 1 6.27-11.11c.37-.61.74-1.22 1.11-1.82s.75-1.2 1.12-1.8l1.14-1.8c1.15-1.78 2.33-3.54 3.53-5.29 1.02-1.49 2.07-2.96 3.13-4.42.75-1.03 1.52-2.04 2.28-3.06.27-.36.53-.73.81-1.09a214.6 214.6 0 0 1 24.02-26.57l4.34 4.66a206.4 206.4 0 0 0-23.31 25.77c-.41.52-.8 1.06-1.2 1.59-.41.56-.83 1.14-1.26 1.7-.41.55-.81 1.1-1.21 1.66-.41.56-.8 1.11-1.18 1.68-.41.56-.79 1.12-1.18 1.69q-1.77 2.535-3.42 5.13c-.75 1.15-1.49 2.31-2.2 3.49-.37.58-.72 1.17-1.07 1.76-.37.59-.71 1.18-1.06 1.77s-.7 1.18-1.04 1.78c-.35.6-.69 1.19-1.02 1.8-.34.6-.68 1.2-1 1.8-.34.6-.67 1.21-.99 1.81-.99 1.82-1.94 3.65-2.86 5.51-.62 1.23-1.22 2.48-1.81 3.73-.3.63-.6 1.26-.88 1.88-.3.63-.59 1.26-.87 1.88a176 176 0 0 0-2.47 5.73c-.27.64-.53 1.28-.79 1.92s-.52 1.29-.77 1.94c-.51 1.29-1 2.59-1.48 3.9-.51 1.37-.99 2.75-1.47 4.13-.16.46-.32.93-.48 1.39-.2.6-.4 1.19-.59 1.8-.17.5-.33 1.01-.48 1.51-.33 1.02-.65 2.07-.95 3.1-.21.68-.41 1.34-.6 2.02-.2.68-.39 1.35-.57 2.03-.16.56-.32 1.14-.46 1.7-.27 1.01-.53 2.01-.79 3.02-.29 1.15-.57 2.3-.84 3.46-.33 1.37-.64 2.76-.92 4.15a205.235 205.235 0 0 0-3.17 19.59c-.09.73-.17 1.47-.24 2.21-.07.68-.14 1.37-.2 2.06q-.075.675-.12 1.35c-.02.19-.04.39-.05.59-.06.6-.1 1.22-.14 1.82-.19 2.58-.33 5.17-.43 7.78-.02.73-.05 1.47-.06 2.2l-.06 2.52v.18z" class="cls-1"/><path id="path15" d="M317.54 402.79" class="cls-1"/><path id="path16" d="M324.01 609.39q2.73 4.395 5.67 8.64-2.955-4.245-5.67-8.64" class="cls-1"/><path id="path17" d="M329.35 383.45c-1.17 1.69-2.3 3.4-3.42 5.13 1.1-1.73 2.25-3.44 3.42-5.13" class="cls-1"/><path id="path18" d="M335.38 375.13c-.41.52-.8 1.06-1.21 1.59.4-.53.79-1.06 1.2-1.59z" class="cls-1"/><path id="path19" d="M335.77 626.37c-2.1-2.72-4.13-5.5-6.08-8.33 1.96 2.83 3.99 5.61 6.09 8.33z" class="cls-1"/><path id="path20" d="M662.13 500.51c0 .7 0 1.4-.02 2.1 0 .7-.02 1.39-.04 2.09 0 .55-.02 1.09-.05 1.64-.05 1.47-.12 2.93-.21 4.39l-.06.91c-.02.45-.06.91-.1 1.35-.06.74-.11 1.48-.18 2.22-.03.41-.07.8-.11 1.21-.03.34-.06.69-.1 1.03-.31 2.96-.69 5.88-1.15 8.79-.13.76-.25 1.53-.39 2.29l-.12.7q-.15.9-.33 1.8c-.14.72-.28 1.45-.43 2.17-.11.55-.22 1.1-.34 1.64-.55 2.53-1.15 5.04-1.81 7.52-.1.37-.2.74-.3 1.1a166 166 0 0 1-1.54 5.28c-.64 2.07-1.33 4.13-2.06 6.17-.16.46-.33.91-.49 1.36-.23.64-.47 1.28-.71 1.91-.17.46-.35.91-.53 1.37-.71 1.8-1.44 3.57-2.2 5.33-.19.45-.38.89-.58 1.33-.17.4-.35.79-.52 1.18-.25.53-.48 1.06-.73 1.58-.05.1-.1.21-.15.32l-.72 1.53c-.45.94-.91 1.87-1.39 2.8-.24.48-.48.95-.73 1.43-.17.35-.36.69-.54 1.03a169.99 169.99 0 0 1-2.56 4.67c-.51.9-1.03 1.8-1.56 2.69-.55.91-1.1 1.83-1.67 2.72-.28.45-.56.91-.85 1.35-1.49 2.33-3.03 4.62-4.62 6.86-.56.79-1.13 1.57-1.7 2.34-.32.43-.64.86-.95 1.28-.64.85-1.29 1.69-1.94 2.53-.03.03-.06.06-.07.1-.64.8-1.28 1.6-1.92 2.38-.67.83-1.35 1.64-2.03 2.45a157 157 0 0 1-4.22 4.77c-1.43 1.56-2.89 3.08-4.39 4.58-1.49 1.5-3.01 2.97-4.55 4.42 0 0-.02 0-.02.02-.78.72-1.57 1.44-2.35 2.14-.54.48-1.09.97-1.64 1.45a165 165 0 0 1-19.27 14.43c-2.47 1.57-4.98 3.09-7.54 4.53-.93.52-1.87 1.04-2.8 1.55-1.88 1.02-3.78 1.99-5.71 2.93-3.85 1.88-7.78 3.61-11.8 5.2-2 .79-4.03 1.53-6.08 2.25-.52.17-1.03.36-1.55.52-1.53.52-3.08 1.02-4.64 1.49h-.05l-48.62 1.77-19.39-14.97-38.79-43.94-25.23-40.39-8.56-33.75-14.07-12.52-17.43-43.7 11.04-11.04 15.28 22.73c2.9 4.31 6.16 8.37 9.77 12.11a72.4 72.4 0 0 1 18.3 33.52l2.71 11.44 14.28 13.32 25.97 37.8 10.06 41.47 63.53-17.4 30.15-11.69 6.71-9.71 55.59-33.99v-8.52l17.65-22.5-16.27-23.56-15.55-4.43-8.26-23.99-17.71 17.11-26.37 8.42-7.76-6.65-1.41-6.83-.4-10.43-7.7 5.5h-3.87l-18.93-28.71-6.51-22.12 16.67-.76 12.77 20.11 40.64 20.81 20.87-5.82 13.66 16 31.55 4.54c.25 2.53.43 5.08.56 7.64 0 .11 0 .22.02.33.03.58.06 1.16.07 1.73.07 1.95.11 3.92.11 5.89z" class="cls-2"/><path id="path21" d="m544.77 544.81-3.31-5.42-7 4.27-6.13 3.74-14.46-23.68 6.13-3.74 7.01-4.27-4.27-7-17.02-27.86h-8.71l6.34-3.88-4.27-7-13.12 8.02-14.55-23.81 13.13-8.02-8.85-4.21-31.4 19.19 9.02 4.1 11.11-6.78 14.55 23.82 4.27 7 19.38 31.73 4.27 7.01 14.46 23.67 4.27 7 7-4.27 13.13-8.02-.96-1.58zm-54.57-59.82 6.13-3.75 19.38 31.74-6.13 3.74z" class="cls-2"/><path id="polygon21" d="m555.02 542.7-7.97-1.93 1.93-7.97 7.97 1.92z" class="cls-2"/><path id="path22" d="m568.75 713.35-5.58 1.64-6.17-21-5.88 1.73 2.39-6.87 1.83-.54 3.85-1.13 1.72-.51 7.84 26.67z" class="cls-1"/><path id="path23" d="M581.55 697.18c-7.53-.79-12.73-13.04-2.11-17.76 3.5-1.56 7.37-.99 9.95 1.16 1.91 1.61 3.49 4.87 3.38 7.28-.09 2.38-3.36 17.56-3.36 17.56l-6.44 2.86 2.3-11.68c-1.18.49-2.49.73-3.73.59zm.08-12.62c-2.44 1.08-2.76 3.28-1.93 5.02l.03.06c.41.93 1.12 1.6 1.98 1.99.91.44 1.97.49 3.07 0l.23-.1a3.857 3.857 0 0 0 1.72-4.93c-.18-.52-.5-1.02-.93-1.41-1.07-.99-2.7-1.29-4.16-.64z" class="cls-1"/><path id="path24" d="m609.84 662.64 2.94 4.7-7.49 4.68 1.51 4.37c.1-.11.19-.23.26-.38 1.37-2.07 3.87-3.47 6.31-3.55 7.72-.23 14.78 11.53 4.79 17.77-4.38 2.74-9.91 1.76-12.67-2.11l4.98-3.11a4 4 0 0 0 4.81.43c1.84-1.14 2.38-3.54 1.26-5.33a3.884 3.884 0 0 0-5.37-1.24 3.974 3.974 0 0 0-1.72 4.51l-.23-.02-3.25.92-1.67.43-5.65-15.08z" class="cls-1"/><path id="path25" d="m631.91 645.17 3.58 4.23-6.74 5.7 2.13 4.11c.08-.13.15-.25.2-.41 1.06-2.25 3.33-3.99 5.73-4.42 7.61-1.33 16.29 9.28 7.29 16.9-3.94 3.34-9.56 3.17-12.84-.26l4.48-3.8c1.45.99 3.42.91 4.82-.27 1.65-1.4 1.85-3.85.48-5.46a3.89 3.89 0 0 0-5.5-.45 3.99 3.99 0 0 0-1.06 4.71l-.23.02-3.08 1.37-1.59.67-7.76-14.11 10.07-8.53v.02z" class="cls-1"/><path id="path26" d="m371.49 647.33 1.37 1.12 3.85 3.15c3.48 2.85 3.88 7.94 1.03 11.43-2.24 2.74-5.82 3.55-8.99 2.61l.06 15.41-5.85-4.78.26-14.53-.75-.61-7.22 8.83-4.73-3.87 17.6-21.52 3.36 2.75zm-5.76 9.82 3.36 2.75c1.12.91 2.93.74 3.85-.38 1.02-1.24.83-3.05-.29-3.97l-3.36-2.75z" class="cls-1"/><path id="path27" d="m398.34 667.76-14.86 23.49-5.04-3.19 14.86-23.49z" class="cls-1"/><path id="path28" d="m412.57 675.72 1.07 11.62 9.58-6.66 6.78 3.15-15.26 9.29-.41.27-5.28 11.34-5.86-2.73 5.28-11.34-.05-.48-2.71-17.66 6.86 3.19z" class="cls-1"/><path id="path29" d="m448.87 689.45 3.63 29.99-6.14-1.76-.65-6.45-11.05-3.18-3.99 5.12-6.14-1.76 19.03-23.47 5.32 1.53v-.02zm-3.78 16.23-1.13-9.43-5.83 7.42 6.96 2z" class="cls-1"/><path id="path30" d="m474.85 694.78 3.44.35c7.57.77 13.27 7.6 12.49 15.31-.77 7.57-7.73 13.12-15.29 12.35l-3.44-.35-6.05-.61 2.8-27.66zm-2.23 22.01 3.44.35c4.13.42 7.93-2.81 8.35-6.94l.09-.83c.44-4.27-2.66-8.06-6.78-8.48l-3.44-.35-1.65 16.24z" class="cls-1"/><path id="path31" d="m508.35 696.22.41 5.82.35 4.96 3.57-.25 3.74-.26 3.39-.24.26-.02-.35-4.96-.41-5.82 6.09-.43.41 5.82.37 5.13.41 5.82.77 10.96-6.09.43-.77-10.96v-.09l-.27.02-3.39.24-3.74.26-3.57.25v.09l.78 10.96-6.09.43-.77-10.96-.41-5.82-.37-5.13-.41-5.82z" class="cls-1"/><g id="g36"><path id="path32" d="m386.53 299.88 2.42-1.24 28.69 13.66-11.5-22.46.91-.46 6.03-3.09.91-.46L432.52 322l-6.94 3.55-28.91-13.35 11.65 22.76-7.99 4.09-18.76-36.62 4.97-2.55z" class="cls-1"/><path id="path33" d="m459.82 273.87 25.28 36.35-9.18 1.92-5.28-7.91-16.52 3.46-1.66 9.37-9.18 1.92 8.56-43.44 7.95-1.66zm6.22 23.6-7.93-11.43-2.47 13.61z" class="cls-1"/><path id="path34" d="m523.01 276.36-5.89 5.61s0-.28-.79-1.13-1.6-1.15-1.6-1.15c-1.6-1.15-5.42-1.26-7.34-.77-2.21 1.03-2.55 3.23-.69 4.93 1.59 1.7 4.57 2.34 6.72 3.23 4.04 1.49 7.26 3.52 8.79 7.14 2.3 5.02 1.33 10.5-2.59 13.97-2.8 2.39-7.76 4.45-15.61 2.57s-9.62-6.62-9.62-6.62l6.98-5.85s1.29 2.52 4.24 3.98c3.23 1.47 5.97 1 7.63-.05 1.39-1.06 1.47-3.54-.13-4.96-1.59-1.7-3.5-1.76-8.34-3.82-2.96-1.46-6.7-3.77-7.7-7.11-.5-1.39-.45-3.04-.41-4.42.12-4.12 2.13-7.65 5.47-9.76 6.12-3.95 16.71-2.53 20.87 4.19v.02z" class="cls-1"/><path id="path35" d="m569.15 286.05-6.93 4.26s.06-.27-.53-1.26-1.33-1.45-1.33-1.45c-1.33-1.45-5.04-2.36-7.01-2.28-2.38.56-3.16 2.63-1.7 4.69 1.2 1.99 3.98 3.23 5.9 4.55 3.65 2.3 6.36 4.95 7.11 8.81 1.21 5.39-.89 10.55-5.44 13.12-3.23 1.76-8.52 2.74-15.81-.74-7.28-3.47-8.03-8.48-8.03-8.48l8.06-4.27s.74 2.73 3.32 4.77c2.85 2.11 5.63 2.22 7.48 1.54 1.58-.75 2.17-3.15.91-4.88-1.2-1.99-3.05-2.45-7.36-5.47-2.58-2.05-5.78-5.09-6.05-8.56-.21-1.47.19-3.07.52-4.41.98-4.01 3.68-7.04 7.37-8.4 6.8-2.59 16.87.99 19.54 8.44z" class="cls-1"/><path id="path36" d="m599.37 292.21 2.31 1.23 6.51 3.46c5.88 3.12 7.98 10.32 4.93 16.08-2.41 4.53-7.32 6.67-12.18 6.2l4.72 22.05-9.87-5.24-4-20.87-1.26-.67-7.77 14.62-7.98-4.24 18.92-35.61 5.67 3.01zm-5.35 15.63 5.67 3.01c1.89 1.01 4.45.25 5.43-1.6 1.1-2.06.29-4.6-1.6-5.6l-5.67-3.01-3.83 7.21z" class="cls-1"/></g></g></svg>