<svg xmlns="http://www.w3.org/2000/svg" xml:space="preserve" width="658.46796" height="882.95105" viewBox="0 0 658.46796 882.95105"><defs><clipPath id="a" clipPathUnits="userSpaceOnUse"><path d="M0 1080h1919.999V0H0Z"/></clipPath></defs><g clip-path="url(#a)" transform="matrix(1.33333 0 0 -1.33333 -950.766 1161.475)"><path d="M0 0s76.085 16.085 148.085 0c0 0 9.447-1.106 5.022 5.873 0 0-1.362 3.063 3.914 3.744 5.277.681 0 6.468 0 6.468l19.745 18.553s5.617-.68 7.489 2.213c1.872 2.894 0 8.681 0 8.681l4.426 5.957 9.702 1.362L194.127 60s16.767 23.745-3.915 48.766c0 0-15.829 15.83-50.042 10.468 0 0-9.958 15.575-28.851 14.553-18.894-1.021-27.064-6.127-27.064-6.127s-.34 7.064-6.128 9.617v4.936l3 4.723 2.235 4.341-7.979 16.021-7.693-16.053 4.757-9.032-.128-5.617s-4.723-1.596-4.404-8.617c0 0-41.234 15.894-56.553-8.49 0 0-53.489 11.66-61.489-31.234 0 0-1.575-13.446 7.489-27.617l-6.128-8.17 10.468-.766 5.489-7.276s-2.68-3.49.128-7.149c2.809-3.66 6.639-2.639 6.639-2.639l20.34-16.68s.34-2.298-4.596-6.724C-15.234 6.809-.851 9.191-.851 9.191s2.575-3.382.149-4.021C-3.127 4.532-4.596 1.085 0 0" style="fill:#22558c;fill-opacity:1;fill-rule:nonzero;stroke:none" transform="translate(885.34 703.809)"/><path d="M0 0s-1.277-14.426 8.425-28.468c0 0-3.702-4.596-3.446-7.021l-6.894 1.021 5.17-8.426h-6.149v-6.468s-2.894-4.766-5.872-4.936l.511-2.128 5.957-1.532S.681-60.426-.17-65.021l4.425 3.319h6.128s1.191-8.766-4.511-10.468c-5.702-1.703-9.957 1.787-9.957 1.787l-.341 7.574s-.68 2.894-5.191 2.554c-4.511-.341-4.341-9.447-4.341-9.447s5.788-4.851.937-6.468c-4.852-1.617-9.958 4.425-9.958 4.425s-.681 3.405 3.234 3.575c3.915.17 4.596 11.319 4.596 11.319s-1.788 6.127-5.788 5.532c-4-.596-7.914-4.426-10.808-2.894s-8.936 8.851-8.936 8.851l.596 10.553-4.085 8.681.425 13.702s4.766 14.468 21.702 14.639C-5.106 2.383 0 0 0 0" style="fill:#ffd02d;fill-opacity:1;fill-rule:nonzero;stroke:none" transform="translate(891.468 812.32)"/><path d="M0 0s1.276-14.269-8.426-28.16c0 0 3.702-4.546 3.447-6.945l6.893 1.01-5.17-8.334h6.15v-6.398s2.893-4.715 5.872-4.882l-.511-2.105-5.957-1.516S-.682-59.771.17-64.317l-4.426 3.283h-6.128s-1.191-8.671 4.511-10.355c5.702-1.683 9.958 1.768 9.958 1.768l.34 7.493s.68 2.862 5.191 2.525c4.511-.336 4.341-9.344 4.341-9.344s-5.787-4.799-.936-6.398c4.851-1.6 9.958 4.378 9.958 4.378s.68 3.367-3.235 3.535c-3.915.169-4.596 11.197-4.596 11.197s1.788 6.061 5.788 5.472c4-.59 7.915-4.378 10.808-2.862 2.894 1.515 8.937 8.755 8.937 8.755l-.596 10.439 4.085 8.586-.426 13.554S38.979 2.021 22.042 2.189C5.105 2.357 0 0 0 0" style="fill:#ffd02d;fill-opacity:1;fill-rule:nonzero;stroke:none" transform="translate(1029.925 811.491)"/><path d="M0 0v-24.17s-6.809-3.234 2.042-12.085c0 0 1.159-2.298-2.271-2.894-3.431-.596.314-5.957-.963-6.383-1.276-.426-9.617 0-9.617 0l.426-6.298s2.723-2.808.51-4.17c-2.212-1.362-4.595.851-4.766-1.873-.17-2.723 3.32-6.382 3.575-6.467.255-.086 3.064-1.362 3.064-1.362l1.021-5.873s2.128 5.533 8 5.022c5.873-.511 8.766.511 5.021-8.085-3.744-8.596-13.957-5.277-13.957-5.277S-12-80-12.596-74.468c-.596 5.532-.596 8.085-.596 8.085s-1.191 3.234-3.914 3.064c-.682-.043-1.384-.383-2.054-.87-2.47-1.794-3.645-4.886-3.231-7.912l.603-4.41s1.277-5.872-7.914-5.872c-9.192 0-9.702 9.021-9.702 9.021l11.489 2.213 1.362 4.936 5.616 4.681s-7.574.256-11.063 10.383c0 0-2.128-2.893-3.66-2.127-1.532.765-.17 9.787-.17 9.787s-5.532-5.617-6.213-3.064 2.383 7.149 2.383 7.149l-1.106 4.851s-6.857 8.34-5.854 18.808C-45.617-5.276-39.873 2-28.894 4.17-17.915 6.34 0 0 0 0" style="fill:#ffd02d;fill-opacity:1;fill-rule:nonzero;stroke:none" transform="translate(948.575 825.766)"/><path d="M0 0v-24.17s6.809-3.234-2.043-12.085c0 0-1.158-2.298 2.272-2.894 3.43-.596-.314-5.957.962-6.383 1.277-.426 9.618 0 9.618 0l-.426-6.298S7.659-54.638 9.872-56s4.596.851 4.767-1.873c.17-2.723-3.32-6.382-3.576-6.467C10.809-64.426 8-65.702 8-65.702l-1.021-5.873s-2.127 5.533-8 5.022c-5.873-.511-8.766.511-5.022-8.085 3.745-8.596 13.958-5.277 13.958-5.277S12-80 12.596-74.468c.595 5.532.595 8.085.595 8.085s1.192 3.234 3.915 3.064c.681-.043 1.383-.383 2.053-.87 2.471-1.794 3.646-4.886 3.232-7.912l-.604-4.41s-1.276-5.872 7.915-5.872c9.192 0 9.702 9.021 9.702 9.021l-11.489 2.213-1.361 4.936-5.617 4.681s7.574.255 11.063 10.383c0 0 2.128-2.893 3.659-2.128 1.532.766.171 9.788.171 9.788s5.531-5.617 6.213-3.064c.681 2.553-2.384 7.149-2.384 7.149l1.107 4.851s6.857 8.34 5.854 18.808C45.617-5.277 39.872 2 28.894 4.17 17.915 6.34 0 0 0 0" style="fill:#ffd02d;fill-opacity:1;fill-rule:nonzero;stroke:none" transform="translate(973.448 826.306)"/><path d="M0 0c-.146 0-.292.016-.439.049-2.091.469-4.169.915-6.233 1.342a2 2 0 0 0 .809 3.917c2.087-.431 4.186-.882 6.299-1.356A2 2 0 0 0 0 0" style="fill:#ffd02d;fill-opacity:1;fill-rule:nonzero;stroke:none" transform="translate(1040.151 713.468)"/><path d="M0 0c-.091 0-.183.006-.275.019a376.017 376.017 0 0 1-15.951 1.846 1.999 1.999 0 0 0-1.803 2.178 1.995 1.995 0 0 0 2.178 1.804A380.762 380.762 0 0 0 .27 3.982 2.001 2.001 0 0 0 0 0" style="fill:#ffd02d;fill-opacity:1;fill-rule:nonzero;stroke:none" transform="translate(1008.777 719.13)"/><path d="m0 0-.073.001a364.62 364.62 0 0 1-20.318.174c-1.079-.044-2.017.856-2.038 1.96a2 2 0 0 0 1.96 2.039c6.785.133 13.698.074 20.54-.175A2.001 2.001 0 0 0 0 0" style="fill:#ffd02d;fill-opacity:1;fill-rule:nonzero;stroke:none" transform="translate(971.386 722.379)"/><path d="M0 0a2 2 0 0 0-.265 3.982 329.44 329.44 0 0 0 17.64 1.89 2 2 0 1 0 .321-3.988A325.346 325.346 0 0 1 .27.018 2.064 2.064 0 0 0 0 0" style="fill:#ffd02d;fill-opacity:1;fill-rule:nonzero;stroke:none" transform="translate(912.143 719.62)"/><path d="M0 0a2 2 0 0 0-.614 3.904c.091.029 2.268.724 7.468 1.908a2 2 0 1 0 .888-3.9C2.75.775.631.103.61.096A1.991 1.991 0 0 0 0 0" style="fill:#ffd02d;fill-opacity:1;fill-rule:nonzero;stroke:none" transform="translate(881.64 713.631)"/><path d="M0 0a3.325 3.325 0 1 1 6.65 0A3.325 3.325 0 0 1 0 0" style="fill:#ffd02d;fill-opacity:1;fill-rule:nonzero;stroke:none" transform="translate(897.839 719.62)"/><path d="M0 0a3.325 3.325 0 1 1 6.65 0A3.325 3.325 0 0 1 0 0" style="fill:#ffd02d;fill-opacity:1;fill-rule:nonzero;stroke:none" transform="translate(935.69 724.5)"/><path d="M0 0a3.325 3.325 0 1 1 6.65 0A3.325 3.325 0 0 1 0 0" style="fill:#ffd02d;fill-opacity:1;fill-rule:nonzero;stroke:none" transform="translate(979.541 724.5)"/><path d="M0 0a3.325 3.325 0 1 1 6.65 0A3.325 3.325 0 0 1 0 0" style="fill:#ffd02d;fill-opacity:1;fill-rule:nonzero;stroke:none" transform="translate(1016.435 719.13)"/><path d="M0 0a2.605 2.605 0 1 1 5.21 0A2.605 2.605 0 0 1 0 0" style="fill:#ffd02d;fill-opacity:1;fill-rule:nonzero;stroke:none" transform="translate(1062.71 743.942)"/><path d="M0 0a2.605 2.605 0 1 1 5.21 0A2.605 2.605 0 0 1 0 0" style="fill:#ffd02d;fill-opacity:1;fill-rule:nonzero;stroke:none" transform="translate(1014.55 761.432)"/><path d="M0 0a2.606 2.606 0 1 1 5.212.002A2.606 2.606 0 0 1 0 0" style="fill:#ffd02d;fill-opacity:1;fill-rule:nonzero;stroke:none" transform="translate(901.884 761.432)"/><path d="M0 0a2.605 2.605 0 1 1 5.21 0A2.605 2.605 0 0 1 0 0" style="fill:#ffd02d;fill-opacity:1;fill-rule:nonzero;stroke:none" transform="translate(854.395 744.198)"/><path d="M0 0a3.13 3.13 0 1 1 6.26 0A3.13 3.13 0 0 1 0 0" style="fill:#ffd02d;fill-opacity:1;fill-rule:nonzero;stroke:none" transform="translate(957.473 769.105)"/><path d="M0 0a3.13 3.13 0 1 1 6.258 0A3.13 3.13 0 0 1 0 0" style="fill:#ffd02d;fill-opacity:1;fill-rule:nonzero;stroke:none" transform="translate(958.042 800.594)"/><path d="M0 0a2.553 2.553 0 1 1 5.106 0A2.553 2.553 0 0 1 0 0" style="fill:#ffd02d;fill-opacity:1;fill-rule:nonzero;stroke:none" transform="translate(958.618 820.66)"/><path d="M0 0a337.316 337.316 0 0 1-16.769 2.264c-.247.027-.505.049-.764.078 2.448.095 5.212.6 7.211 1.813 1.247.759 2.168 1.73 3.301 2.876C-4.953 3.717-2.695 1.354 0 0" style="fill:#ffd02d;fill-opacity:1;fill-rule:nonzero;stroke:none" transform="translate(1023.018 733.603)"/><path d="M0 0c1.994-1.213 4.757-1.718 7.206-1.813-.253-.029-.512-.051-.764-.079a336.798 336.798 0 0 1-16.764-2.263c2.696 1.353 4.953 3.717 7.014 7.03C-2.174 1.73-1.247.758 0 0" style="fill:#ffd02d;fill-opacity:1;fill-rule:nonzero;stroke:none" transform="translate(908.508 737.758)"/><path d="M0 0c1.259.944 2.651 2.309 3.752 3.791C5.959 2.803 7.936 2.213 9.795 2A273.222 273.222 0 0 1 0 0" style="fill:#ffd02d;fill-opacity:1;fill-rule:nonzero;stroke:none" transform="translate(881.225 730.362)"/><path d="M0 0c1.551.394 3.162.995 4.791 1.865 2.027 1.084 3.987 2.55 5.841 4.375a25.976 25.976 0 0 1 5.122-3.505 17.057 17.057 0 0 1 3.773-1.432c-1.151-.045-2.302-.09-3.448-.146A389.96 389.96 0 0 1 0 0" style="fill:#ffd02d;fill-opacity:1;fill-rule:nonzero;stroke:none" transform="translate(921.284 736.5)"/><path d="M0 0c-3.818.017-7.66-.023-11.49-.107 1.74.573 3.505 1.455 5.28 2.669C-4.032 4.054-1.864 6.076 0 8.363c1.864-2.287 4.032-4.309 6.211-5.801C7.985 1.348 9.738.466 11.49-.107 7.66-.023 3.818.017 0 0" style="fill:#ffd02d;fill-opacity:1;fill-rule:nonzero;stroke:none" transform="translate(960.602 738.19)"/><path d="M0 0c-1.146.056-2.303.101-3.448.146C-2.179.461-.922.933.325 1.578a26.074 26.074 0 0 1 5.121 3.505C7.301 3.257 9.255 1.792 11.288.708a21.179 21.179 0 0 1 4.785-1.865C10.749-.663 5.368-.275 0 0" style="fill:#ffd02d;fill-opacity:1;fill-rule:nonzero;stroke:none" transform="translate(983.84 737.657)"/><path d="M0 0c1.853.213 3.83.803 6.043 1.791C7.144.309 8.536-1.056 9.795-2A275.939 275.939 0 0 1 0 0" style="fill:#ffd02d;fill-opacity:1;fill-rule:nonzero;stroke:none" transform="translate(1030.184 732.362)"/><path d="M0 0c0-136.374 110.552-246.926 246.925-246.926 136.374 0 246.926 110.552 246.926 246.926 0 136.373-110.552 246.925-246.926 246.925C110.552 246.925 0 136.373 0 0" style="fill:#22558c;fill-opacity:1;fill-rule:nonzero;stroke:none" transform="translate(713.074 455.82)"/><path d="M0 0c-62.17 0-120.62 24.211-164.581 68.172-43.961 43.962-68.171 102.411-68.171 164.581 0 62.171 24.21 120.62 68.171 164.581C-120.62 441.295-62.17 465.505 0 465.505c62.169 0 120.619-24.21 164.581-68.171 43.961-43.961 68.171-102.41 68.171-164.581 0-62.17-24.21-120.619-68.171-164.581C120.619 24.211 62.169 0 0 0" style="fill:#ffd02d;fill-opacity:1;fill-rule:nonzero;stroke:none" transform="translate(960 223.066)"/><path d="M0 0c-56.113 0-108.867 21.853-148.546 61.53-39.678 39.679-61.529 92.434-61.529 148.546 0 56.113 21.851 108.868 61.529 148.546C-108.868 398.3-56.113 420.151 0 420.151c56.112 0 108.867-21.851 148.546-61.529 39.678-39.679 61.53-92.434 61.53-148.546 0-56.112-21.852-108.867-61.53-148.546C108.867 21.853 56.112 0 0 0" style="fill:#22558c;fill-opacity:1;fill-rule:nonzero;stroke:none" transform="translate(959.999 245.743)"/><path d="M0 0c-37.94 0-73.611 14.775-100.441 41.605-26.828 26.829-41.602 62.499-41.602 100.44 0 37.941 14.774 73.611 41.603 100.441C-73.612 269.314-37.941 284.089 0 284.089c37.941 0 73.611-14.775 100.441-41.604 32.528-32.528 41.604-51.272 41.604-100.44 0-37.941-14.775-73.611-41.606-100.441C73.611 14.775 37.94 0 0 0" style="fill:#ffd02d;fill-opacity:1;fill-rule:nonzero;stroke:none" transform="translate(959.999 313.774)"/><path d="M0 0s4.596-6.128 9.83 1.66c0 0 6-18.639 15.702-25.021l.893-5.745 22.341-20.936v-6.511l-2.553-4.595v-6.511l10.978-6v-5.617l5.107-7.405 3.191-10.595 1.149-2.043 11.235-6.127v-18.128l5.489-6.894 6.127-13.149h15.702l1.277 4.723s18.213.639 56.426 28.979l2.127 6.043 8.596.766s20.936 16.297 28.979 27.404l1.276 17.362 12.767 1.021v20.043s-3.702 6.255-23.49 8.425c0 0-4.361-1.565-6.909 8.803-.594 2.424-2.264 4.527-4.596 5.415-2.474.942-5.793.654-9.176-4.261l-1.149-7.532-19.787-2.808-4.723 10.979-7.915.638-1.533 6.511-20.042 24.638 6 2.553.255 6.894 12.767-1.532 1.148-8.553s4.085-8.17 16.852-13.66c12.765-5.489 25.914-3.191 25.914-3.191s2.682 4.213 6.128 3.319c1.558-.404 3.377-2.452 4.903-4.574 3.868-5.383 10.448-8.285 16.946-6.979 2.742.55 5.789 1.659 9.044 3.638l.767 11.107s20.321-32.634 10.468-83.873C217.021-141.063 156-169.404 156-169.404l.511 18.043s-1.192 9.872-23.49 1.872l-18.021-8-7-1.362-13.447-5.617.171 10.553-12.937 1.532.171 11.574s-6.809 1.873-9.703 12.767c0 0-16.17 1.361-21.99 17.12l-.989 15.22s-18.893 4.256-16.851 29.447L25.106-54s-11.574 2.724-10.382 27.234L4-15.702S7.575-8.128 0 0" style="fill:#21539e;fill-opacity:1;fill-rule:nonzero;stroke:none" transform="translate(845 515)"/><path d="m0 0-20.171 27.958 5.873 4.34L2.016 12.234C5.151 8.377 4.207 2.646 0 0m22.085-10.724-9.702-7.148L5.106-6.638l.326.225c6.782 4.68 8.297 14.068 3.33 20.642l-17.316 22.92 7.66 4.213-11.745 1.532-12.766-7.149-23.106 33.192 8.426 5.489-11.234 1.404c-15.064-18-22.597 0-22.597 0 2.426-21.447 19.618-11.276 19.618-11.276l64.851-92.256 21.787 16z" style="fill:#21539e;fill-opacity:1;fill-rule:nonzero;stroke:none" transform="translate(964.745 445.298)"/><path d="M0 0a4.276 4.276 0 1 1 8.553 0A4.276 4.276 0 0 1 0 0" style="fill:#21539e;fill-opacity:1;fill-rule:nonzero;stroke:none" transform="translate(1002.532 444.213)"/><path d="M0 0c.245-.389.514-.82.808-1.294.294-.473.595-.946.906-1.419.31-.474.619-.947.925-1.421.307-.473.589-.898.845-1.274.475-.697 1.418-2.067 2.871-4.049a195.088 195.088 0 0 1 6.113-7.931 33.136 33.136 0 0 1-2.27-1.488 66.213 66.213 0 0 1-2.403-1.797c-.338.402-.506.603-.841 1.008.559.702.991 1.327 1.295 1.875.304.547.459 1.097.466 1.65.008.554-.143 1.144-.45 1.776-.307.631-.791 1.382-1.446 2.262a149.249 149.249 0 0 0-2.436 3.358c-.376.531-.655.846-.842.94-.187.095-.45.025-.788-.213l-7.451-5.21c2.625-3.601 3.979-5.345 6.761-8.723l.011-.295-1.672-1.241c-1.183 1.715-2.3 3.343-3.361 4.878a327.97 327.97 0 0 0-3.038 4.473l-6.415-4.486c-.325-.228-.571-.466-.738-.717-.168-.251-.208-.591-.119-1.019.089-.429.322-.99.702-1.675.379-.687.962-1.587 1.756-2.689l-.759-.473c-.289.391-.647.884-1.07 1.482l-1.337 1.887a100.58 100.58 0 0 0-1.339 1.937l-1.074 1.592c-.235.348-.514.754-.836 1.223a71.37 71.37 0 0 0-.971 1.449c-.326.497-.646.984-.962 1.461-.316.476-.586.894-.812 1.252l.652.545c.598-.855 1.115-1.514 1.548-1.984.432-.468.84-.782 1.222-.942a1.697 1.697 0 0 1 1.159-.068c.39.113.84.339 1.348.679L-.176-5.426c.329.22.576.445.742.674.165.229.235.52.21.871-.024.353-.167.803-.425 1.354-.259.551-.646 1.26-1.158 2.134L0 0" style="fill:#ffd02d;fill-opacity:1;fill-rule:nonzero;stroke:none" transform="translate(815.67 375.003)"/><path d="M0 0c.245-.389.514-.82.808-1.294.294-.473.595-.946.906-1.419.31-.474.619-.947.925-1.421.307-.473.589-.898.845-1.274.475-.697 1.418-2.067 2.871-4.049a195.088 195.088 0 0 1 6.113-7.931 33.136 33.136 0 0 1-2.27-1.488 66.213 66.213 0 0 1-2.403-1.797c-.338.402-.506.603-.841 1.008.559.702.991 1.327 1.295 1.875.304.547.459 1.097.466 1.65.008.554-.143 1.144-.45 1.776-.307.631-.791 1.382-1.446 2.262a149.249 149.249 0 0 0-2.436 3.358c-.376.531-.655.846-.842.94-.187.095-.45.025-.788-.213l-7.451-5.21c2.625-3.601 3.979-5.345 6.761-8.723l.011-.295-1.672-1.241c-1.183 1.715-2.3 3.343-3.361 4.878a327.97 327.97 0 0 0-3.038 4.473l-6.415-4.486c-.325-.228-.571-.466-.738-.717-.168-.251-.208-.591-.119-1.019.089-.429.322-.99.702-1.675.379-.687.962-1.587 1.756-2.689l-.759-.473c-.289.391-.647.884-1.07 1.482l-1.337 1.887a100.58 100.58 0 0 0-1.339 1.937l-1.074 1.592c-.235.348-.514.754-.836 1.223a71.37 71.37 0 0 0-.971 1.449c-.326.497-.646.984-.962 1.461-.316.476-.586.894-.812 1.252l.652.545c.598-.855 1.115-1.514 1.548-1.984.432-.468.84-.782 1.222-.942a1.697 1.697 0 0 1 1.159-.068c.39.113.84.339 1.348.679L-.176-5.426c.329.22.576.445.742.674.165.229.235.52.21.871-.024.353-.167.803-.425 1.354-.259.551-.646 1.26-1.158 2.134L0 0Z" style="fill:none;stroke:#ffd02d;stroke-width:3;stroke-linecap:butt;stroke-linejoin:miter;stroke-miterlimit:10;stroke-dasharray:none;stroke-opacity:1" transform="translate(815.67 375.003)"/><path d="M0 0a16.664 16.664 0 0 1-3.295 2.554 10.266 10.266 0 0 1-3.726 1.337c-1.302.193-2.647.087-4.041-.328-1.393-.413-2.797-1.238-4.2-2.495-1.65-1.476-2.79-2.994-3.399-4.566-.61-1.572-.84-3.12-.689-4.634a10.884 10.884 0 0 1 1.386-4.314 16.541 16.541 0 0 1 2.756-3.615 17.137 17.137 0 0 1 3.713-2.805c1.326-.737 2.682-1.167 4.057-1.296 1.375-.129 2.741.093 4.093.653 1.353.561 2.639 1.564 3.871 2.989 1.448 1.677 2.393 3.319 2.857 4.914.465 1.594.601 3.092.413 4.502a10.325 10.325 0 0 1-1.335 3.908A15.487 15.487 0 0 1 0 0m1.07.824c1.592-1.575 2.882-3.19 3.877-4.882.996-1.691 1.658-3.366 1.982-5.048a12.116 12.116 0 0 0-.061-4.986c-.368-1.642-1.126-3.185-2.302-4.616C3.4-20.126 2.025-21.185.422-21.857c-1.603-.674-3.333-.961-5.187-.84-1.853.121-3.78.657-5.759 1.624-1.98.968-3.916 2.369-5.772 4.205-1.821 1.803-3.264 3.703-4.321 5.661-1.056 1.957-1.695 3.878-1.927 5.732-.232 1.856-.047 3.596.537 5.214.585 1.617 1.594 3.018 3.004 4.217 1.396 1.188 2.943 1.973 4.624 2.383 1.681.41 3.398.462 5.152.176 1.755-.286 3.5-.911 5.253-1.861C-2.221 3.705-.551 2.429 1.07.824" style="fill:#ffd02d;fill-opacity:1;fill-rule:nonzero;stroke:none" transform="translate(839.83 343.453)"/><path d="M0 0a16.664 16.664 0 0 1-3.295 2.554 10.266 10.266 0 0 1-3.726 1.337c-1.302.193-2.647.087-4.041-.328-1.393-.413-2.797-1.238-4.2-2.495-1.65-1.476-2.79-2.994-3.399-4.566-.61-1.572-.84-3.12-.689-4.634a10.884 10.884 0 0 1 1.386-4.314 16.541 16.541 0 0 1 2.756-3.615 17.137 17.137 0 0 1 3.713-2.805c1.326-.737 2.682-1.167 4.057-1.296 1.375-.129 2.741.093 4.093.653 1.353.561 2.639 1.564 3.871 2.989 1.448 1.677 2.393 3.319 2.857 4.914.465 1.594.601 3.092.413 4.502a10.325 10.325 0 0 1-1.335 3.908A15.487 15.487 0 0 1 0 0Zm1.07.824c1.592-1.575 2.882-3.19 3.877-4.882.996-1.691 1.658-3.366 1.982-5.048a12.116 12.116 0 0 0-.061-4.986c-.368-1.642-1.126-3.185-2.302-4.616C3.4-20.126 2.025-21.185.422-21.857c-1.603-.674-3.333-.961-5.187-.84-1.853.121-3.78.657-5.759 1.624-1.98.968-3.916 2.369-5.772 4.205-1.821 1.803-3.264 3.703-4.321 5.661-1.056 1.957-1.695 3.878-1.927 5.732-.232 1.856-.047 3.596.537 5.214.585 1.617 1.594 3.018 3.004 4.217 1.396 1.188 2.943 1.973 4.624 2.383 1.681.41 3.398.462 5.152.176 1.755-.286 3.5-.911 5.253-1.861C-2.221 3.705-.551 2.429 1.07.824z" style="fill:none;stroke:#ffd02d;stroke-width:3;stroke-linecap:butt;stroke-linejoin:miter;stroke-miterlimit:10;stroke-dasharray:none;stroke-opacity:1" transform="translate(839.83 343.453)"/><path d="M0 0a15.544 15.544 0 0 1-3.627 1.764 9.759 9.759 0 0 1-3.823.489c-1.286-.094-2.56-.485-3.827-1.184-1.266-.699-2.469-1.796-3.596-3.306-1.324-1.777-2.151-3.483-2.458-5.126-.307-1.644-.254-3.184.161-4.609a10.299 10.299 0 0 1 2.1-3.862 15.522 15.522 0 0 1 3.298-2.902 16.246 16.246 0 0 1 4.079-1.929c1.409-.434 2.794-.566 4.143-.403 1.348.163 2.626.661 3.829 1.486 1.204.826 2.263 2.064 3.195 3.704 1.094 1.927 1.709 3.715 1.869 5.357.161 1.643.023 3.124-.412 4.45a9.913 9.913 0 0 1-1.988 3.502A14.519 14.519 0 0 1 0 0m.883 1.022c1.814-1.184 3.346-2.475 4.61-3.904 1.263-1.429 2.204-2.913 2.819-4.477.615-1.565.9-3.178.842-4.849-.058-1.671-.511-3.326-1.387-4.958-.869-1.616-2.004-2.928-3.43-3.913-1.425-.984-3.043-1.621-4.852-1.889-1.81-.267-3.764-.15-5.846.371-2.082.522-4.199 1.47-6.313 2.85-2.076 1.355-3.804 2.881-5.168 4.541-1.365 1.659-2.321 3.37-2.871 5.103-.552 1.734-.682 3.447-.406 5.126.276 1.681.999 3.245 2.141 4.702 1.132 1.444 2.479 2.534 4.022 3.293a12.752 12.752 0 0 0 4.92 1.285c1.738.104 3.526-.12 5.381-.66C-2.8 3.104-.965 2.229.883 1.022" style="fill:#ffd02d;fill-opacity:1;fill-rule:nonzero;stroke:none" transform="translate(866.395 321.945)"/><path d="M0 0a15.544 15.544 0 0 1-3.627 1.764 9.759 9.759 0 0 1-3.823.489c-1.286-.094-2.56-.485-3.827-1.184-1.266-.699-2.469-1.796-3.596-3.306-1.324-1.777-2.151-3.483-2.458-5.126-.307-1.644-.254-3.184.161-4.609a10.299 10.299 0 0 1 2.1-3.862 15.522 15.522 0 0 1 3.298-2.902 16.246 16.246 0 0 1 4.079-1.929c1.409-.434 2.794-.566 4.143-.403 1.348.163 2.626.661 3.829 1.486 1.204.826 2.263 2.064 3.195 3.704 1.094 1.927 1.709 3.715 1.869 5.357.161 1.643.023 3.124-.412 4.45a9.913 9.913 0 0 1-1.988 3.502A14.519 14.519 0 0 1 0 0Zm.883 1.022c1.814-1.184 3.346-2.475 4.61-3.904 1.263-1.429 2.204-2.913 2.819-4.477.615-1.565.9-3.178.842-4.849-.058-1.671-.511-3.326-1.387-4.958-.869-1.616-2.004-2.928-3.43-3.913-1.425-.984-3.043-1.621-4.852-1.889-1.81-.267-3.764-.15-5.846.371-2.082.522-4.199 1.47-6.313 2.85-2.076 1.355-3.804 2.881-5.168 4.541-1.365 1.659-2.321 3.37-2.871 5.103-.552 1.734-.682 3.447-.406 5.126.276 1.681.999 3.245 2.141 4.702 1.132 1.444 2.479 2.534 4.022 3.293a12.752 12.752 0 0 0 4.92 1.285c1.738.104 3.526-.12 5.381-.66C-2.8 3.104-.965 2.229.883 1.022z" style="fill:none;stroke:#ffd02d;stroke-width:3;stroke-linecap:butt;stroke-linejoin:miter;stroke-miterlimit:10;stroke-dasharray:none;stroke-opacity:1" transform="translate(866.395 321.945)"/><path d="M0 0a105.06 105.06 0 0 1 2.215-.914c.864-.346 1.787-.712 2.771-1.096a129.43 129.43 0 0 1 3.131-1.174c1.085-.39 2.181-.776 3.288-1.158l-.681-1.457a39.997 39.997 0 0 1-.587-1.318 33.842 33.842 0 0 1-.529-1.325 83.609 83.609 0 0 1-.532-1.469c-.441.133-.662.2-1.103.335.13.901.2 1.674.212 2.319.01.647-.103 1.219-.342 1.719-.238.5-.641.942-1.21 1.332-.569.39-1.367.781-2.395 1.185-1.255.492-1.88.744-3.126 1.261l-7.521-17.952c-.153-.366-.24-.687-.261-.966-.02-.277.079-.555.299-.834.22-.277.607-.574 1.162-.886.554-.313 1.331-.685 2.332-1.108l-.388-.806c-.436.168-.926.365-1.472.59-.546.225-1.107.455-1.685.691a79.12 79.12 0 0 0-1.71.72c-.563.245-1.09.473-1.582.684-.41.176-.857.365-1.341.568-.484.204-.97.414-1.46.633-.489.22-.979.438-1.47.654-.492.215-.93.414-1.314.594l.268.805c.949-.389 1.729-.663 2.337-.829.608-.167 1.102-.205 1.48-.12.378.086.691.287.939.602.249.315.499.76.754 1.335l7.5 16.963A136.33 136.33 0 0 0-5.022.93c-1.006.465-1.851.775-2.54.923-.688.148-1.306.142-1.855-.021-.548-.163-1.059-.467-1.531-.914-.473-.448-.993-1.028-1.561-1.742-.406.227-.609.342-1.013.571l.715 1.389c.341.661.653 1.301.937 1.917.284.616.582 1.336.897 2.159a247.801 247.801 0 0 1 3.112-1.574c1.022-.509 2.014-.986 2.977-1.433.962-.447 1.86-.858 2.69-1.236A111.73 111.73 0 0 1 0 0" style="fill:#ffd02d;fill-opacity:1;fill-rule:nonzero;stroke:none" transform="translate(893.034 308.586)"/><path d="M0 0a105.06 105.06 0 0 1 2.215-.914c.864-.346 1.787-.712 2.771-1.096a129.43 129.43 0 0 1 3.131-1.174c1.085-.39 2.181-.776 3.288-1.158l-.681-1.457a39.997 39.997 0 0 1-.587-1.318 33.842 33.842 0 0 1-.529-1.325 83.609 83.609 0 0 1-.532-1.469c-.441.133-.662.2-1.103.335.13.901.2 1.674.212 2.319.01.647-.103 1.219-.342 1.719-.238.5-.641.942-1.21 1.332-.569.39-1.367.781-2.395 1.185-1.255.492-1.88.744-3.126 1.261l-7.521-17.952c-.153-.366-.24-.687-.261-.966-.02-.277.079-.555.299-.834.22-.277.607-.574 1.162-.886.554-.313 1.331-.685 2.332-1.108l-.388-.806c-.436.168-.926.365-1.472.59-.546.225-1.107.455-1.685.691a79.12 79.12 0 0 0-1.71.72c-.563.245-1.09.473-1.582.684-.41.176-.857.365-1.341.568-.484.204-.97.414-1.46.633-.489.22-.979.438-1.47.654-.492.215-.93.414-1.314.594l.268.805c.949-.389 1.729-.663 2.337-.829.608-.167 1.102-.205 1.48-.12.378.086.691.287.939.602.249.315.499.76.754 1.335l7.5 16.963A136.33 136.33 0 0 0-5.022.93c-1.006.465-1.851.775-2.54.923-.688.148-1.306.142-1.855-.021-.548-.163-1.059-.467-1.531-.914-.473-.448-.993-1.028-1.561-1.742-.406.227-.609.342-1.013.571l.715 1.389c.341.661.653 1.301.937 1.917.284.616.582 1.336.897 2.159a247.801 247.801 0 0 1 3.112-1.574c1.022-.509 2.014-.986 2.977-1.433.962-.447 1.86-.858 2.69-1.236A111.73 111.73 0 0 1 0 0Z" style="fill:none;stroke:#ffd02d;stroke-width:3;stroke-linecap:butt;stroke-linejoin:miter;stroke-miterlimit:10;stroke-dasharray:none;stroke-opacity:1" transform="translate(893.034 308.586)"/><path d="M0 0c-.151-.523-.239-.967-.264-1.329a1.28 1.28 0 0 1 .31-.95c.232-.271.619-.521 1.162-.745.542-.226 1.313-.473 2.315-.733 2.237-.581 4.148-.585 5.699-.043 1.55.542 2.5 1.666 2.872 3.343.219.984.188 1.883-.082 2.695-.271.814-.735 1.536-1.39 2.172-.656.636-1.485 1.19-2.49 1.669-1.005.48-2.148.889-3.431 1.234-.963.26-1.444.393-2.404.666L0 0m2.647 9.193c.989-.28 1.485-.418 2.477-.684 2.47-.664 4.388-.723 5.717-.231 1.329.493 2.156 1.498 2.5 2.995.125.548.157 1.113.098 1.694-.06.581-.274 1.142-.642 1.686-.367.544-.937 1.053-1.707 1.532-.769.478-1.805.884-3.11 1.232-.681.182-1.219.29-1.617.323-.398.033-.701.007-.91-.08a.798.798 0 0 1-.441-.416 5.077 5.077 0 0 1-.239-.667L2.647 9.193m-3.929 12.119c.297-.098.648-.217 1.053-.357.406-.14.832-.279 1.278-.42.465-.145.939-.296 1.421-.451.482-.155.957-.302 1.424-.439a26.468 26.468 0 0 1 2.561-.606 45.119 45.119 0 0 0 2.988-.675 23.848 23.848 0 0 0 3.353-1.126c1.053-.445 1.954-.971 2.708-1.585.754-.614 1.31-1.317 1.666-2.116.356-.8.434-1.708.224-2.727-.173-.841-.498-1.522-.978-2.039a5.184 5.184 0 0 0-1.677-1.205 7.61 7.61 0 0 0-2.021-.585c-.708-.103-1.38-.19-2.012-.262 2.186-.803 3.79-1.824 4.821-3.115 1.032-1.291 1.395-2.788 1.056-4.506-.246-1.248-.801-2.24-1.678-2.965-.878-.726-1.952-1.244-3.219-1.547-1.268-.302-2.673-.407-4.206-.308a24.544 24.544 0 0 0-4.62.754A33.87 33.87 0 0 0-.293-3.96a52.177 52.177 0 0 1-3.136 1.061c-.425.126-.877.257-1.356.396-.48.138-.963.283-1.45.437-.486.152-.952.296-1.399.431-.446.136-.837.259-1.175.37l.173.831c.897-.244 1.635-.402 2.212-.481.577-.079 1.048-.053 1.411.076.364.13.65.366.859.708.21.343.406.814.592 1.414l4.931 15.936c.117.379.177.706.18.982.003.276-.096.535-.298.778-.202.245-.533.482-.994.714-.461.234-1.087.494-1.877.789l.338.83" style="fill:#ffd02d;fill-opacity:1;fill-rule:nonzero;stroke:none" transform="translate(907.994 282.166)"/><path d="M0 0c-.151-.523-.239-.967-.264-1.329a1.28 1.28 0 0 1 .31-.95c.232-.271.619-.521 1.162-.745.542-.226 1.313-.473 2.315-.733 2.237-.581 4.148-.585 5.699-.043 1.55.542 2.5 1.666 2.872 3.343.219.984.188 1.883-.082 2.695-.271.814-.735 1.536-1.39 2.172-.656.636-1.485 1.19-2.49 1.669-1.005.48-2.148.889-3.431 1.234-.963.26-1.444.393-2.404.666L0 0Zm2.647 9.193c.989-.28 1.485-.418 2.477-.684 2.47-.664 4.388-.723 5.717-.231 1.329.493 2.156 1.498 2.5 2.995.125.548.157 1.113.098 1.694-.06.581-.274 1.142-.642 1.686-.367.544-.937 1.053-1.707 1.532-.769.478-1.805.884-3.11 1.232-.681.182-1.219.29-1.617.323-.398.033-.701.007-.91-.08a.798.798 0 0 1-.441-.416 5.077 5.077 0 0 1-.239-.667L2.647 9.193Zm-3.929 12.119c.297-.098.648-.217 1.053-.357.406-.14.832-.279 1.278-.42.465-.145.939-.296 1.421-.451.482-.155.957-.302 1.424-.439a26.468 26.468 0 0 1 2.561-.606 45.119 45.119 0 0 0 2.988-.675 23.848 23.848 0 0 0 3.353-1.126c1.053-.445 1.954-.971 2.708-1.585.754-.614 1.31-1.317 1.666-2.116.356-.8.434-1.708.224-2.727-.173-.841-.498-1.522-.978-2.039a5.184 5.184 0 0 0-1.677-1.205 7.61 7.61 0 0 0-2.021-.585c-.708-.103-1.38-.19-2.012-.262 2.186-.803 3.79-1.824 4.821-3.115 1.032-1.291 1.395-2.788 1.056-4.506-.246-1.248-.801-2.24-1.678-2.965-.878-.726-1.952-1.244-3.219-1.547-1.268-.302-2.673-.407-4.206-.308a24.544 24.544 0 0 0-4.62.754A33.87 33.87 0 0 0-.293-3.96a52.177 52.177 0 0 1-3.136 1.061c-.425.126-.877.257-1.356.396-.48.138-.963.283-1.45.437-.486.152-.952.296-1.399.431-.446.136-.837.259-1.175.37l.173.831c.897-.244 1.635-.402 2.212-.481.577-.079 1.048-.053 1.411.076.364.13.65.366.859.708.21.343.406.814.592 1.414l4.931 15.936c.117.379.177.706.18.982.003.276-.096.535-.298.778-.202.245-.533.482-.994.714-.461.234-1.087.494-1.877.789l.338.83z" style="fill:none;stroke:#ffd02d;stroke-width:3;stroke-linecap:butt;stroke-linejoin:miter;stroke-miterlimit:10;stroke-dasharray:none;stroke-opacity:1" transform="translate(907.994 282.166)"/><path d="M0 0c3.618-.485 5.432-.685 9.066-.995A212.778 212.778 0 0 0 5.957 9.16C3.675 5.46 2.483 3.626 0 0m9.54-2.477c-4.192.345-6.285.576-10.455 1.152A194.504 194.504 0 0 0-4.066-5.8c-.572-.866-.881-1.42-.919-1.664-.067-.425.152-.76.657-1.003.507-.243 1.441-.492 2.805-.726l-.221-.87c-.808.11-1.714.246-2.714.414l-2.971.494c-.805.134-1.638.269-2.5.406-.861.138-1.693.284-2.495.438l.096.839c.852-.113 1.558-.164 2.118-.156.56.008 1.064.119 1.514.335.449.215.894.541 1.333.979.438.436.962 1.032 1.566 1.788 4.745 6.03 6.964 9.119 11.085 15.405.29.466.537.874.743 1.225.205.352.427.731.666 1.137.735.002 1.102.005 1.836.014.135-.809.293-1.554.475-2.234.182-.68.357-1.3.525-1.862 2.081-6.668 3.246-9.99 5.822-16.589.286-.741.552-1.324.793-1.749.242-.424.533-.755.873-.992.34-.237.777-.407 1.311-.508a20.57 20.57 0 0 1 2.081-.259l-.121-.889c-.925.022-1.943.062-3.054.123-1.111.06-2.227.122-3.349.185a819.3 819.3 0 0 1-2.805.155c-.946.05-1.881.114-2.803.192l-.026.848c1.23-.038 2.114.009 2.65.127.535.119.817.393.847.822.013.182-.016.395-.086.639-.07.245-.16.52-.268.826-.769 2.17-1.14 3.257-1.858 5.433" style="fill:#ffd02d;fill-opacity:1;fill-rule:nonzero;stroke:none" transform="translate(936.023 282.9)"/><path d="M0 0c3.618-.485 5.432-.685 9.066-.995A212.778 212.778 0 0 0 5.957 9.16C3.675 5.46 2.483 3.626 0 0Zm9.54-2.477c-4.192.345-6.285.576-10.455 1.152A194.504 194.504 0 0 0-4.066-5.8c-.572-.866-.881-1.42-.919-1.664-.067-.425.152-.76.657-1.003.507-.243 1.441-.492 2.805-.726l-.221-.87c-.808.11-1.714.246-2.714.414l-2.971.494c-.805.134-1.638.269-2.5.406-.861.138-1.693.284-2.495.438l.096.839c.852-.113 1.558-.164 2.118-.156.56.008 1.064.119 1.514.335.449.215.894.541 1.333.979.438.436.962 1.032 1.566 1.788 4.745 6.03 6.964 9.119 11.085 15.405.29.466.537.874.743 1.225.205.352.427.731.666 1.137.735.002 1.102.005 1.836.014.135-.809.293-1.554.475-2.234.182-.68.357-1.3.525-1.862 2.081-6.668 3.246-9.99 5.822-16.589.286-.741.552-1.324.793-1.749.242-.424.533-.755.873-.992.34-.237.777-.407 1.311-.508a20.57 20.57 0 0 1 2.081-.259l-.121-.889c-.925.022-1.943.062-3.054.123-1.111.06-2.227.122-3.349.185a819.3 819.3 0 0 1-2.805.155c-.946.05-1.881.114-2.803.192l-.026.848c1.23-.038 2.114.009 2.65.127.535.119.817.393.847.822.013.182-.016.395-.086.639-.07.245-.16.52-.268.826-.769 2.17-1.14 3.257-1.858 5.433z" style="fill:none;stroke:#ffd02d;stroke-width:3;stroke-linecap:butt;stroke-linejoin:miter;stroke-miterlimit:10;stroke-dasharray:none;stroke-opacity:1" transform="translate(936.023 282.9)"/><path d="M0 0c-.795-.087-1.438-.189-1.931-.314-.493-.125-.872-.302-1.139-.533-.267-.23-.445-.545-.533-.943-.087-.398-.124-.903-.109-1.515l.396-15.723c.014-.562.069-1.023.166-1.384.095-.361.294-.641.594-.839.3-.198.72-.33 1.259-.395.539-.063 1.257-.078 2.153-.037.697.032 1.044.049 1.74.086 1.267.07 2.301.216 3.097.429.796.213 1.457.529 1.98.944.524.415.964.946 1.318 1.59.355.645.737 1.434 1.14 2.368.493-.043.74-.063 1.235-.103a23.155 23.155 0 0 1-.325-1.575 63.148 63.148 0 0 1-.262-1.644 29.179 29.179 0 0 1-.181-1.511 10.684 10.684 0 0 1-.055-1.15c-2.002-.188-3.004-.27-5.009-.407a143.22 143.22 0 0 0-3.763-.211c-1.056-.044-1.958-.076-2.708-.104a83.808 83.808 0 0 0-1.948-.049c-.551-.005-1.036-.012-1.454-.02-.463-.009-.693-.013-1.156-.019a129.66 129.66 0 0 1-1.454-.026 64.51 64.51 0 0 0-1.586-.016c-.528.001-1.029 0-1.504-.003a54.787 54.787 0 0 0-1.173.002l-.085.843c.9.035 1.63.109 2.189.213.559.105.992.27 1.297.493.306.224.512.531.619.919.107.389.158.897.154 1.525l-.095 16.67c-.003.396-.049.725-.138.99a1.263 1.263 0 0 1-.531.654c-.263.173-.643.301-1.139.386-.497.084-1.163.147-1.999.193l.102.891c.309-.005.692-.015 1.146-.027.455-.012.944-.019 1.466-.019.523 0 1.056-.002 1.598-.006a52.05 52.05 0 0 1 2.759.046c.464.019.929.036 1.392.052.465.014.905.035 1.321.059.415.026.759.044 1.029.057L0 0" style="fill:#ffd02d;fill-opacity:1;fill-rule:nonzero;stroke:none" transform="translate(969.31 294.114)"/><path d="M0 0c-.795-.087-1.438-.189-1.931-.314-.493-.125-.872-.302-1.139-.533-.267-.23-.445-.545-.533-.943-.087-.398-.124-.903-.109-1.515l.396-15.723c.014-.562.069-1.023.166-1.384.095-.361.294-.641.594-.839.3-.198.72-.33 1.259-.395.539-.063 1.257-.078 2.153-.037.697.032 1.044.049 1.74.086 1.267.07 2.301.216 3.097.429.796.213 1.457.529 1.98.944.524.415.964.946 1.318 1.59.355.645.737 1.434 1.14 2.368.493-.043.74-.063 1.235-.103a23.155 23.155 0 0 1-.325-1.575 63.148 63.148 0 0 1-.262-1.644 29.179 29.179 0 0 1-.181-1.511 10.684 10.684 0 0 1-.055-1.15c-2.002-.188-3.004-.27-5.009-.407a143.22 143.22 0 0 0-3.763-.211c-1.056-.044-1.958-.076-2.708-.104a83.808 83.808 0 0 0-1.948-.049c-.551-.005-1.036-.012-1.454-.02-.463-.009-.693-.013-1.156-.019a129.66 129.66 0 0 1-1.454-.026 64.51 64.51 0 0 0-1.586-.016c-.528.001-1.029 0-1.504-.003a54.787 54.787 0 0 0-1.173.002l-.085.843c.9.035 1.63.109 2.189.213.559.105.992.27 1.297.493.306.224.512.531.619.919.107.389.158.897.154 1.525l-.095 16.67c-.003.396-.049.725-.138.99a1.263 1.263 0 0 1-.531.654c-.263.173-.643.301-1.139.386-.497.084-1.163.147-1.999.193l.102.891c.309-.005.692-.015 1.146-.027.455-.012.944-.019 1.466-.019.523 0 1.056-.002 1.598-.006a52.05 52.05 0 0 1 2.759.046c.464.019.929.036 1.392.052.465.014.905.035 1.321.059.415.026.759.044 1.029.057L0 0Z" style="fill:none;stroke:#ffd02d;stroke-width:3;stroke-linecap:butt;stroke-linejoin:miter;stroke-miterlimit:10;stroke-dasharray:none;stroke-opacity:1" transform="translate(969.31 294.114)"/><path d="M0 0c-.778-.189-1.404-.375-1.877-.562-.473-.188-.827-.412-1.061-.675-.236-.263-.371-.598-.406-1.005-.035-.406-.005-.911.091-1.515l2.457-15.54c.088-.555.203-1.005.346-1.349.143-.346.377-.598.701-.755.324-.158.759-.235 1.303-.228.543.006 1.259.085 2.144.241.687.122 1.031.185 1.716.312 1.252.233 2.26.513 3.024.827.763.315 1.378.715 1.844 1.194.466.48.833 1.063 1.102 1.748.267.686.544 1.518.822 2.497.497.022.745.034 1.242.059a23.802 23.802 0 0 1-.117-1.604 74.483 74.483 0 0 1-.044-1.665 28.68 28.68 0 0 1 .018-1.521c.019-.471.05-.853.096-1.147-1.965-.449-2.951-.66-4.926-1.057-1.43-.288-2.668-.517-3.712-.697a332.406 332.406 0 0 0-2.677-.454 72.123 72.123 0 0 0-1.93-.301c-.547-.078-1.026-.147-1.441-.209a112.99 112.99 0 0 0-1.146-.168c-.436-.063-.917-.135-1.44-.214a69.073 69.073 0 0 0-1.572-.221c-.525-.067-1.023-.133-1.493-.198a48.663 48.663 0 0 0-1.164-.148l-.196.825c.889.151 1.605.317 2.146.493.541.176.949.395 1.222.657.275.261.439.591.494.99.055.4.039.91-.046 1.532L-6.765-3.343c-.054.393-.143.714-.266.964a1.27 1.27 0 0 1-.614.581c-.284.137-.678.215-1.181.235-.504.02-1.174-.004-2.01-.066l-.016.896c.308.035.689.075 1.142.122.453.046.939.102 1.458.17.519.067 1.048.134 1.587.201a53.44 53.44 0 0 1 2.733.401c.458.08.917.157 1.377.233.459.075.894.151 1.303.23.41.078.748.142 1.016.189L0 0" style="fill:#ffd02d;fill-opacity:1;fill-rule:nonzero;stroke:none" transform="translate(991.934 296.637)"/><path d="M0 0c-.778-.189-1.404-.375-1.877-.562-.473-.188-.827-.412-1.061-.675-.236-.263-.371-.598-.406-1.005-.035-.406-.005-.911.091-1.515l2.457-15.54c.088-.555.203-1.005.346-1.349.143-.346.377-.598.701-.755.324-.158.759-.235 1.303-.228.543.006 1.259.085 2.144.241.687.122 1.031.185 1.716.312 1.252.233 2.26.513 3.024.827.763.315 1.378.715 1.844 1.194.466.48.833 1.063 1.102 1.748.267.686.544 1.518.822 2.497.497.022.745.034 1.242.059a23.802 23.802 0 0 1-.117-1.604 74.483 74.483 0 0 1-.044-1.665 28.68 28.68 0 0 1 .018-1.521c.019-.471.05-.853.096-1.147-1.965-.449-2.951-.66-4.926-1.057-1.43-.288-2.668-.517-3.712-.697a332.406 332.406 0 0 0-2.677-.454 72.123 72.123 0 0 0-1.93-.301c-.547-.078-1.026-.147-1.441-.209a112.99 112.99 0 0 0-1.146-.168c-.436-.063-.917-.135-1.44-.214a69.073 69.073 0 0 0-1.572-.221c-.525-.067-1.023-.133-1.493-.198a48.663 48.663 0 0 0-1.164-.148l-.196.825c.889.151 1.605.317 2.146.493.541.176.949.395 1.222.657.275.261.439.591.494.99.055.4.039.91-.046 1.532L-6.765-3.343c-.054.393-.143.714-.266.964a1.27 1.27 0 0 1-.614.581c-.284.137-.678.215-1.181.235-.504.02-1.174-.004-2.01-.066l-.016.896c.308.035.689.075 1.142.122.453.046.939.102 1.458.17.519.067 1.048.134 1.587.201a53.44 53.44 0 0 1 2.733.401c.458.08.917.157 1.377.233.459.075.894.151 1.303.23.41.078.748.142 1.016.189L0 0Z" style="fill:none;stroke:#ffd02d;stroke-width:3;stroke-linecap:butt;stroke-linejoin:miter;stroke-miterlimit:10;stroke-dasharray:none;stroke-opacity:1" transform="translate(991.934 296.637)"/><path d="M0 0c.613-1.464 1.423-2.744 2.441-3.831a9.478 9.478 0 0 1 3.606-2.422c1.387-.523 2.945-.728 4.669-.6 1.722.129 3.589.678 5.567 1.662a14.607 14.607 0 0 1 2.918 1.901c.865.729 1.535 1.548 2.011 2.44a8.19 8.19 0 0 1 .882 2.702c.136.954.195 2.024.172 3.208.503.17.754.256 1.255.431.225-1.13.477-2.167.76-3.109.283-.943.625-1.927 1.026-2.953a46.124 46.124 0 0 0-4.197-3.314 35.064 35.064 0 0 0-4.519-2.676C14.315-7.687 12.07-8.42 9.889-8.769c-2.181-.348-4.191-.318-6.01.07-1.82.387-3.397 1.133-4.732 2.214C-2.188-5.404-3.176-4-3.845-2.291c-.77 1.97-.985 3.865-.684 5.683.3 1.818.988 3.515 2.049 5.112s2.426 3.054 4.101 4.398c1.676 1.346 3.537 2.533 5.604 3.584a44.832 44.832 0 0 0 3.517 1.589c1.279.519 2.498.959 3.664 1.317.42-.978.85-1.889 1.293-2.731a97.69 97.69 0 0 1 1.447-2.643c-.43-.289-.646-.433-1.079-.719-.546.812-1.169 1.435-1.862 1.875a5.478 5.478 0 0 1-2.234.817 6.948 6.948 0 0 1-2.483-.138 11.818 11.818 0 0 1-2.641-.975c-1.769-.886-3.222-1.867-4.369-2.973C1.331 10.8.472 9.621-.098 8.354a9.476 9.476 0 0 1-.836-4.028C-.919 2.906-.613 1.463 0 0" style="fill:#ffd02d;fill-opacity:1;fill-rule:nonzero;stroke:none" transform="translate(1032.172 297.417)"/><path d="M0 0c.613-1.464 1.423-2.744 2.441-3.831a9.478 9.478 0 0 1 3.606-2.422c1.387-.523 2.945-.728 4.669-.6 1.722.129 3.589.678 5.567 1.662a14.607 14.607 0 0 1 2.918 1.901c.865.729 1.535 1.548 2.011 2.44a8.19 8.19 0 0 1 .882 2.702c.136.954.195 2.024.172 3.208.503.17.754.256 1.255.431.225-1.13.477-2.167.76-3.109.283-.943.625-1.927 1.026-2.953a46.124 46.124 0 0 0-4.197-3.314 35.064 35.064 0 0 0-4.519-2.676C14.315-7.687 12.07-8.42 9.889-8.769c-2.181-.348-4.191-.318-6.01.07-1.82.387-3.397 1.133-4.732 2.214C-2.188-5.404-3.176-4-3.845-2.291c-.77 1.97-.985 3.865-.684 5.683.3 1.818.988 3.515 2.049 5.112s2.426 3.054 4.101 4.398c1.676 1.346 3.537 2.533 5.604 3.584a44.832 44.832 0 0 0 3.517 1.589c1.279.519 2.498.959 3.664 1.317.42-.978.85-1.889 1.293-2.731a97.69 97.69 0 0 1 1.447-2.643c-.43-.289-.646-.433-1.079-.719-.546.812-1.169 1.435-1.862 1.875a5.478 5.478 0 0 1-2.234.817 6.948 6.948 0 0 1-2.483-.138 11.818 11.818 0 0 1-2.641-.975c-1.769-.886-3.222-1.867-4.369-2.973C1.331 10.8.472 9.621-.098 8.354a9.476 9.476 0 0 1-.836-4.028C-.919 2.906-.613 1.463 0 0Z" style="fill:none;stroke:#ffd02d;stroke-width:3;stroke-linecap:butt;stroke-linejoin:miter;stroke-miterlimit:10;stroke-dasharray:none;stroke-opacity:1" transform="translate(1032.172 297.417)"/><path d="M0 0c-.647-.514-1.154-.956-1.518-1.334-.362-.378-.599-.737-.71-1.08-.109-.343-.096-.707.04-1.094.136-.386.373-.834.711-1.344l8.726-13.112c.312-.468.605-.828.881-1.081a1.4 1.4 0 0 1 .966-.384c.368-.002.804.117 1.308.361.504.243 1.138.629 1.9 1.16.59.412.884.62 1.471 1.038 1.071.764 1.896 1.464 2.478 2.09.583.625.992 1.263 1.228 1.908.238.645.339 1.343.306 2.089-.033.746-.12 1.63-.264 2.65.455.242.682.364 1.136.61.157-.488.342-.995.555-1.522.213-.526.429-1.04.647-1.541.218-.501.434-.963.646-1.385.212-.421.4-.757.564-1.006a156.427 156.427 0 0 0-4.164-3.155 141.696 141.696 0 0 0-3.174-2.272 374.31 374.31 0 0 0-2.308-1.588 74.8 74.8 0 0 0-1.674-1.117c-.477-.309-.896-.581-1.256-.818-.398-.261-.598-.392-.997-.651-.381-.246-.798-.52-1.252-.819a67.97 67.97 0 0 0-1.372-.881c-.461-.288-.896-.563-1.307-.825-.409-.261-.75-.473-1.02-.637-.21.267-.316.401-.525.669.764.519 1.361.979 1.791 1.374.431.393.719.77.866 1.127.147.357.163.729.049 1.117s-.34.847-.678 1.377L-4.918-5.998c-.214.335-.43.59-.647.764-.219.174-.49.262-.812.264-.321.003-.72-.096-1.197-.296-.477-.199-1.09-.509-1.841-.925-.154.324-.231.486-.387.809.273.165.61.365 1.012.604.402.237.831.499 1.286.784.455.286.919.575 1.394.869A53.533 53.533 0 0 1-3.731-1.57c.394.272.79.543 1.186.811.398.27.771.53 1.12.781.349.25.638.457.868.618L0 0" style="fill:#ffd02d;fill-opacity:1;fill-rule:nonzero;stroke:none" transform="translate(1060.312 324.9)"/><path d="M0 0c-.647-.514-1.154-.956-1.518-1.334-.362-.378-.599-.737-.71-1.08-.109-.343-.096-.707.04-1.094.136-.386.373-.834.711-1.344l8.726-13.112c.312-.468.605-.828.881-1.081a1.4 1.4 0 0 1 .966-.384c.368-.002.804.117 1.308.361.504.243 1.138.629 1.9 1.16.59.412.884.62 1.471 1.038 1.071.764 1.896 1.464 2.478 2.09.583.625.992 1.263 1.228 1.908.238.645.339 1.343.306 2.089-.033.746-.12 1.63-.264 2.65.455.242.682.364 1.136.61.157-.488.342-.995.555-1.522.213-.526.429-1.04.647-1.541.218-.501.434-.963.646-1.385.212-.421.4-.757.564-1.006a156.427 156.427 0 0 0-4.164-3.155 141.696 141.696 0 0 0-3.174-2.272 374.31 374.31 0 0 0-2.308-1.588 74.8 74.8 0 0 0-1.674-1.117c-.477-.309-.896-.581-1.256-.818-.398-.261-.598-.392-.997-.651-.381-.246-.798-.52-1.252-.819a67.97 67.97 0 0 0-1.372-.881c-.461-.288-.896-.563-1.307-.825-.409-.261-.75-.473-1.02-.637-.21.267-.316.401-.525.669.764.519 1.361.979 1.791 1.374.431.393.719.77.866 1.127.147.357.163.729.049 1.117s-.34.847-.678 1.377L-4.918-5.998c-.214.335-.43.59-.647.764-.219.174-.49.262-.812.264-.321.003-.72-.096-1.197-.296-.477-.199-1.09-.509-1.841-.925-.154.324-.231.486-.387.809.273.165.61.365 1.012.604.402.237.831.499 1.286.784.455.286.919.575 1.394.869A53.533 53.533 0 0 1-3.731-1.57c.394.272.79.543 1.186.811.398.27.771.53 1.12.781.349.25.638.457.868.618L0 0Z" style="fill:none;stroke:#ffd02d;stroke-width:3;stroke-linecap:butt;stroke-linejoin:miter;stroke-miterlimit:10;stroke-dasharray:none;stroke-opacity:1" transform="translate(1060.312 324.9)"/><path d="M0 0c.786-.894 1.66-1.483 2.63-1.759a6.224 6.224 0 0 1 3-.096c1.029.212 2.055.621 3.071 1.228a15.227 15.227 0 0 1 2.848 2.206c.897.88 1.65 1.826 2.257 2.833.607 1.006.997 2.042 1.171 3.1a6.518 6.518 0 0 1-.251 3.132c-.34 1.029-1.004 1.997-1.984 2.91l-7.614 7.098c-.532.496-1.008.845-1.428 1.049a1.877 1.877 0 0 1-1.275.157c-.431-.098-.904-.348-1.421-.749-.518-.4-1.148-.951-1.896-1.643l-.591.671c.505.517 1.121 1.14 1.839 1.874a92.43 92.43 0 0 1 2.218 2.346 72.465 72.465 0 0 1 1.898 2.169c.646.77 1.185 1.412 1.623 1.922l.658-.527a33.278 33.278 0 0 1-1.306-1.861c-.314-.496-.49-.96-.525-1.396-.036-.436.093-.875.386-1.313.294-.44.769-.96 1.428-1.562l7.747-7.065c1.197-1.091 1.957-2.296 2.267-3.622.31-1.328.297-2.7-.043-4.108-.341-1.407-.954-2.798-1.841-4.155a21.648 21.648 0 0 0-3.105-3.751A19.78 19.78 0 0 0 8.07-3.739C6.778-4.5 5.496-5.005 4.233-5.26c-1.262-.254-2.462-.219-3.593.095-1.132.313-2.12.983-2.974 1.994l-8.54 10.12a3.28 3.28 0 0 1-.762.688c-.251.155-.552.209-.9.164-.35-.046-.768-.207-1.254-.482-.488-.275-1.096-.69-1.828-1.239l-.512.734c.283.229.619.497 1.008.805.39.309.794.639 1.215.99.435.365.876.731 1.322 1.101.446.37.861.723 1.245 1.057.307.267.646.569 1.014.907.369.337.743.677 1.122 1.018.38.342.736.671 1.07.989.333.317.627.594.883.832l.639-.557c-.615-.64-1.09-1.185-1.423-1.645-.334-.459-.534-.883-.601-1.274a1.89 1.89 0 0 1 .175-1.156c.183-.38.476-.8.879-1.259L0 0" style="fill:#ffd02d;fill-opacity:1;fill-rule:nonzero;stroke:none" transform="translate(1085.233 325.725)"/><path d="M0 0c.786-.894 1.66-1.483 2.63-1.759a6.224 6.224 0 0 1 3-.096c1.029.212 2.055.621 3.071 1.228a15.227 15.227 0 0 1 2.848 2.206c.897.88 1.65 1.826 2.257 2.833.607 1.006.997 2.042 1.171 3.1a6.518 6.518 0 0 1-.251 3.132c-.34 1.029-1.004 1.997-1.984 2.91l-7.614 7.098c-.532.496-1.008.845-1.428 1.049a1.877 1.877 0 0 1-1.275.157c-.431-.098-.904-.348-1.421-.749-.518-.4-1.148-.951-1.896-1.643l-.591.671c.505.517 1.121 1.14 1.839 1.874a92.43 92.43 0 0 1 2.218 2.346 72.465 72.465 0 0 1 1.898 2.169c.646.77 1.185 1.412 1.623 1.922l.658-.527a33.278 33.278 0 0 1-1.306-1.861c-.314-.496-.49-.96-.525-1.396-.036-.436.093-.875.386-1.313.294-.44.769-.96 1.428-1.562l7.747-7.065c1.197-1.091 1.957-2.296 2.267-3.622.31-1.328.297-2.7-.043-4.108-.341-1.407-.954-2.798-1.841-4.155a21.648 21.648 0 0 0-3.105-3.751A19.78 19.78 0 0 0 8.07-3.739C6.778-4.5 5.496-5.005 4.233-5.26c-1.262-.254-2.462-.219-3.593.095-1.132.313-2.12.983-2.974 1.994l-8.54 10.12a3.28 3.28 0 0 1-.762.688c-.251.155-.552.209-.9.164-.35-.046-.768-.207-1.254-.482-.488-.275-1.096-.69-1.828-1.239l-.512.734c.283.229.619.497 1.008.805.39.309.794.639 1.215.99.435.365.876.731 1.322 1.101.446.37.861.723 1.245 1.057.307.267.646.569 1.014.907.369.337.743.677 1.122 1.018.38.342.736.671 1.07.989.333.317.627.594.883.832l.639-.557c-.615-.64-1.09-1.185-1.423-1.645-.334-.459-.534-.883-.601-1.274a1.89 1.89 0 0 1 .175-1.156c.183-.38.476-.8.879-1.259L0 0Z" style="fill:none;stroke:#ffd02d;stroke-width:3;stroke-linecap:butt;stroke-linejoin:miter;stroke-miterlimit:10;stroke-dasharray:none;stroke-opacity:1" transform="translate(1085.233 325.725)"/><path d="M0 0c.432-.332.812-.574 1.146-.724.332-.15.674-.157 1.029-.018.353.138.753.441 1.196.909.442.469 1.003 1.161 1.674 2.084 1.498 2.062 2.314 4.012 2.462 5.783.147 1.773-.512 3.132-1.941 4.085-.837.559-1.701.832-2.587.831-.884-.001-1.766-.231-2.647-.684-.881-.453-1.758-1.11-2.639-1.966-.881-.857-1.752-1.873-2.623-3.048-.652-.88-.981-1.317-1.644-2.185L0 0m-7.575 5.838c.682.894 1.022 1.345 1.694 2.253 1.675 2.261 2.546 4.194 2.646 5.719.099 1.525-.5 2.715-1.771 3.579-.465.314-.985.54-1.561.676-.576.138-1.199.109-1.871-.081-.67-.189-1.394-.597-2.173-1.215-.781-.62-1.604-1.531-2.487-2.728-.46-.624-.791-1.128-.99-1.517-.199-.388-.303-.702-.308-.941a.793.793 0 0 1 .207-.587c.144-.151.32-.308.53-.469l6.084-4.689m-13.105.316c.217.259.476.564.778.916.301.353.613.726.932 1.119.333.411.675.829 1.025 1.254.349.427.687.849 1.014 1.268.524.67 1.077 1.453 1.654 2.354a57.773 57.773 0 0 0 1.904 2.781 30.502 30.502 0 0 0 2.49 3.02c.869.922 1.751 1.667 2.654 2.234.902.565 1.805.9 2.713.998.909.096 1.803-.13 2.678-.692.723-.464 1.229-1.03 1.512-1.702a5.425 5.425 0 0 0 .426-2.14 8.828 8.828 0 0 0-.308-2.275 74.856 74.856 0 0 0-.609-2.149c1.689 1.958 3.342 3.266 5.005 3.896 1.662.63 3.236.504 4.717-.428 1.076-.676 1.778-1.588 2.09-2.744.312-1.155.345-2.441.09-3.849-.255-1.409-.754-2.886-1.5-4.416a29.314 29.314 0 0 0-2.677-4.434 38.972 38.972 0 0 0-2.287-2.829 63.512 63.512 0 0 1-2.326-2.771C.996-4.814.682-5.219.35-5.647c-.332-.43-.673-.859-1.022-1.289-.349-.429-.681-.84-.996-1.234a54.808 54.808 0 0 0-.842-1.031l-.712.461c.606.801 1.066 1.475 1.382 2.019.318.545.49 1.022.521 1.428.03.406-.074.773-.308 1.101-.235.327-.598.687-1.087 1.082L-15.701 7.351c-.309.248-.593.421-.852.52-.259.1-.547.091-.862-.024-.315-.116-.679-.362-1.092-.738-.413-.375-.922-.903-1.532-1.579l-.641.624" style="fill:#ffd02d;fill-opacity:1;fill-rule:nonzero;stroke:none" transform="translate(1113.313 349.559)"/><path d="M0 0c.432-.332.812-.574 1.146-.724.332-.15.674-.157 1.029-.018.353.138.753.441 1.196.909.442.469 1.003 1.161 1.674 2.084 1.498 2.062 2.314 4.012 2.462 5.783.147 1.773-.512 3.132-1.941 4.085-.837.559-1.701.832-2.587.831-.884-.001-1.766-.231-2.647-.684-.881-.453-1.758-1.11-2.639-1.966-.881-.857-1.752-1.873-2.623-3.048-.652-.88-.981-1.317-1.644-2.185L0 0Zm-7.575 5.838c.682.894 1.022 1.345 1.694 2.253 1.675 2.261 2.546 4.194 2.646 5.719.099 1.525-.5 2.715-1.771 3.579-.465.314-.985.54-1.561.676-.576.138-1.199.109-1.871-.081-.67-.189-1.394-.597-2.173-1.215-.781-.62-1.604-1.531-2.487-2.728-.46-.624-.791-1.128-.99-1.517-.199-.388-.303-.702-.308-.941a.793.793 0 0 1 .207-.587c.144-.151.32-.308.53-.469l6.084-4.689zm-13.105.316c.217.259.476.564.778.916.301.353.613.726.932 1.119.333.411.675.829 1.025 1.254.349.427.687.849 1.014 1.268.524.67 1.077 1.453 1.654 2.354a57.773 57.773 0 0 0 1.904 2.781 30.502 30.502 0 0 0 2.49 3.02c.869.922 1.751 1.667 2.654 2.234.902.565 1.805.9 2.713.998.909.096 1.803-.13 2.678-.692.723-.464 1.229-1.03 1.512-1.702a5.425 5.425 0 0 0 .426-2.14 8.828 8.828 0 0 0-.308-2.275 74.856 74.856 0 0 0-.609-2.149c1.689 1.958 3.342 3.266 5.005 3.896 1.662.63 3.236.504 4.717-.428 1.076-.676 1.778-1.588 2.09-2.744.312-1.155.345-2.441.09-3.849-.255-1.409-.754-2.886-1.5-4.416a29.314 29.314 0 0 0-2.677-4.434 38.972 38.972 0 0 0-2.287-2.829 63.512 63.512 0 0 1-2.326-2.771C.996-4.814.682-5.219.35-5.647c-.332-.43-.673-.859-1.022-1.289-.349-.429-.681-.84-.996-1.234a54.808 54.808 0 0 0-.842-1.031l-.712.461c.606.801 1.066 1.475 1.382 2.019.318.545.49 1.022.521 1.428.03.406-.074.773-.308 1.101-.235.327-.598.687-1.087 1.082L-15.701 7.351c-.309.248-.593.421-.852.52-.259.1-.547.091-.862-.024-.315-.116-.679-.362-1.092-.738-.413-.375-.922-.903-1.532-1.579l-.641.624z" style="fill:none;stroke:#ffd02d;stroke-width:3;stroke-linecap:butt;stroke-linejoin:miter;stroke-miterlimit:10;stroke-dasharray:none;stroke-opacity:1" transform="translate(1113.313 349.559)"/><path d="M0 0c-2.58-2.2-4.931-3.17-6.98-2.9-2.3.3-4.69 1.74-7.111 4.26L-2.3 11.38c.3.26.59.49.869.69.201-.16.481-.42.861-.81 2.049-2.14 3.179-4.24 3.36-6.24C2.84 4.41 3 2.55 0 0m11.79 5.56c-.48 1.98-1.311 3.93-2.471 5.79a36.167 36.167 0 0 1-3.599 4.87c-.94 1.07-1.94 2.07-2.981 2.97-.84.73-1.63 1.52-2.349 2.34-.47.54-.96 1.11-1.46 1.71-.531.63-1.06 1.24-1.58 1.83-.491.56-.941 1.08-1.35 1.58-.44.52-.83.98-1.16 1.36l-1.851 2.11-4.489-5.19 1.42-1.6c.89-1.11 1.39-1.69 1.61-2.06.05-.09.1-.17.129-.24-.129-.14-.309-.34-.579-.59L-31.88.46c-.9-.82-1.461-1.23-1.77-1.43a.714.714 0 0 0-.201-.1c-.049.02-.149.06-.29.16-.319.2-.889.64-1.779 1.51L-38 2.63-40.351.62l1.851-2.1c.29-.34.659-.74 1.09-1.21.41-.44.819-.9 1.25-1.39.479-.55.97-1.09 1.46-1.63.46-.5.88-.97 1.25-1.4.96-1.09 1.95-2.25 2.97-3.45 1.04-1.24 2.06-2.42 3.04-3.55l2.14-2.47 2.81 1.91-1.97 2.35c-1.01 1.19-1.48 1.9-1.69 2.28-.07.13-.121.23-.161.31.151.17.361.39.641.65l7.95 6.39.39-.44c.439-.5.61-.77.67-.87-.05-.17-.101-.34-.14-.51-.69-2.24-1.39-4.42-2.08-6.48-.7-2.12-1.36-4.07-1.971-5.84-.599-1.77-.569-2.15-1.049-3.46-.46-1.29-.361-1.05-.621-1.7l.851-1.03 1.43-1.42c.28-.28.58-.58.889-.92.33-.35.621-.67.891-.98.899-1.02 1.819-2.1 2.77-3.23.98-1.159 1.77-2.09 2.39-2.8l1.85-2.109 3.54 2.599-1.71 2.32c-.58.79-1.03 1.46-1.34 1.96-.2.34-.34.65-.41.92-.05.2-.061.45-.04.74.059.54.18 1.26.34 2.08.15.67.4 1.61.729 2.78.341 1.19.181 1.4.681 2.95.5 1.57 1.069 3.3 1.69 5.17.31.94.64 1.9.98 2.87.479-.15.969-.29 1.46-.4 1.56-.35 3.139-.46 4.689-.34 1.591.12 3.151.5 4.651 1.15 1.509.65 2.929 1.58 4.2 2.76 1.979 1.84 3.26 3.9 3.79 6.1.5 2.1.5 4.24-.01 6.38" style="fill:#ffd02d;fill-opacity:1;fill-rule:nonzero;stroke:none" transform="translate(1108.28 568.71)"/><path d="M0 0s-17.37-11.16-31.15-23.69l-2.09 2.63 3.96 3.18v5.27l-18.89 24.52-4.25-2.9-1.03 2.21 16.86 12.43.85-2.72-2.9-2.9 20.6-28.08 10.13 7.66s1.71 3.12.77 9.31c-.1.67.74 1.04 1.16.52z" style="fill:#ffd02d;fill-opacity:1;fill-rule:nonzero;stroke:none" transform="translate(889.68 597.86)"/><path d="m0 0-7.404 12.638L6.577 8.601Zm31.993 16.545-5.57-4.48-37.96 12.931-4.76-5.951 20.45-34.75-2.37-3.379 2.05-3.77 10.85 12.959-2.04 1.98-4.15-4.149s-2.56.32-4.73 4.28c-2.17 3.95-.19 6.19-.19 6.19s5.49 6.51 6.51 7.909c1.02 1.411 5.49 2.621 8.49-.889s-.32-6.19-.32-6.19l1.79-1.34c2.95 5.08 8.17 10.68 14.04 16.01v.01z" style="fill:#ffd02d;fill-opacity:1;fill-rule:nonzero;stroke:none" transform="translate(824.447 560.255)"/><path d="m0 0 4.689 10.29c.408.895 1.698.836 2.023-.091L10.323-.085zm23.185-14.766-7.537 38.212-7.258-.139-19.115-35.012-3.928-.322-1.638-3.771 16.093-.047.297 2.681-5.548.506s-1.256 2.054.455 6.028C-3.291-2.663-.449-2.748-.449-2.748s8.107-.052 9.757.054c1.656.111 4.414-3.059 5.149-7.391 1.026-6.043-5.787-5.192-5.787-5.192l.091-2.471c5.546.929 12.845-.431 20.286-1.473l.008.006.757 3.11z" style="fill:#ffd02d;fill-opacity:1;fill-rule:nonzero;stroke:none" transform="translate(968.84 630.405)"/><path d="M0 0s-9.191-2.809-9.617 7.319l-2.043 17.872L15.404 3.234h6.638L16 40.255h6.042l-.425 5.107L4 42.809l.851-3.915 6.128.085 4.596-21.617-25.617 20.936-15.745-2.809v-2.808l6.383-.766 7.319-32.272-5.106-1.005.766-4.596L1.106-3.404z" style="fill:#ffd02d;fill-opacity:1;fill-rule:nonzero;stroke:none" transform="translate(922.447 610.617)"/><path d="m0 0 6.574 11.234-5.935 1.787s-9.702 11.504-24.767 3.511C-39.191 8.539-11.319-8.489-11.915-10.617c0 0 2.506-6.046-3.202-8.159-4.248-1.573-9.094-.081-11.858 3.507-2.18 2.832-4.127 7.515-4.088 15.2l-2.383.431s-6.213-10.383.595-16.085l10.553-6.724s7.745-4.765 16 2.979c3.543 3.323 4.421 6.772 4.27 9.626C-2.2-6.613-3.91-3.67-6.456-1.678c-3.905 3.056-11.438 9.869-9.203 15.487 2.978 7.489 14.042-1.684 14.042-1.684z" style="fill:#ffd02d;fill-opacity:1;fill-rule:nonzero;stroke:none" transform="translate(1038.787 623.702)"/><path d="m0 0 8.065 10.216-5.631 2.592s-8.018 12.735-24.042 6.903c-16.026-5.832 9.223-26.553 8.338-28.578 0 0 1.646-6.334-4.3-7.637-4.424-.97-9.017 1.177-11.257 5.114-1.769 3.106-3.048 8.013-1.947 15.619l-2.301.756s-7.59-9.423-1.636-16.012l9.523-8.119s7.01-5.791 16.257.736c3.968 2.802 5.316 6.096 5.56 8.944.277 3.22-1.01 6.372-3.255 8.697-3.445 3.567-9.962 11.357-6.973 16.611C-9.612 22.848.076 12.231.076 12.231z" style="fill:#ffd02d;fill-opacity:1;fill-rule:nonzero;stroke:none" transform="translate(1077.04 599.942)"/><path d="M0 0c1.956-.145 3.886.007 5.807.401 1.889.388 1.089 3.28-.798 2.893C3.349 2.954 1.689 2.875 0 3c-1.927.143-1.917-2.858 0-3" style="fill:#ffd02d;fill-opacity:1;fill-rule:nonzero;stroke:none" transform="translate(997.852 611.512)"/></g></svg>