<svg xmlns="http://www.w3.org/2000/svg" xml:space="preserve" width="269.9206232527312" height="370.4792868174742" viewBox="0 0 135.0592 185.20833"><path d="M436.77 51.48v65.32c0 36.44-24.97 115.25-72.85 146.82V51.39c-114.61 9.13-219.15 57.58-219.15 59.67v344.95c0 137.6 148.8 248.93 219.15 293.99V518.12c47.88 32.01 72.85 112.99 72.85 145.86v85.59c70.61-45.31 218.46-156.91 218.46-295.64V110.98c0-2-104.19-50.27-218.46-59.58zM291.16 607.01c-39.01-38.53-73.45-88.46-73.45-144.47V165.42c0-.96 30.31-15.31 73.45-27.31zm151.38-91.33c-.86-2.35-1.81-4.7-2.76-7.05-20.32-48.79-54.94-81.41-75.78-97.85-9.04-7.13-15.5-11.13-17.05-12.09h-.09c-.09 0-.17 0-.17-.09h-.09.18c.09 0 .17-.17.34-.17.17-.09.26-.17.43-.35h.09c.43-.26.86-.61 1.46-1.04.26-.17.52-.43.86-.61 0 0 .09 0 .17-.09.26-.17.6-.43.95-.69 0 0 .09 0 .17-.09.34-.26.77-.52 1.12-.87 1.29-.96 2.67-2 4.22-3.22l.09-.09c.52-.35.95-.78 1.46-1.13 0 0 .09 0 .17-.09.52-.43 1.12-.87 1.64-1.3 22.13-17.57 64.58-55.41 79.74-98.37v-.26c.43-1.13.77-2.26 1.12-3.48.09-.26.17-.61.26-.87.34-1.22.77-2.52 1.03-3.74 1.38.26-.6 233.62 0 234.23zm139.93-54.62c0 56.36-34.1 106.38-72.85 145.08V138.28c42.8 12 72.85 26.18 72.85 27.14z" style="fill:#6bb8e0" transform="matrix(.26458 0 0 .26458 -38.304 -13.23)"/><path d="M386.48 78.79h9.47v-10h-9.47V60h10.68V50h-21.87v46.19h11.19zM412.83 95.84c4.65 0 8.01-1.22 10.07-3.74 2.07-2.44 3.1-6.26 3.1-11.31v-4.35h-10.68v5.91c0 1.3-.17 2.35-.6 2.96s-1.03.96-1.89.96c-1.72 0-2.5-1.3-2.5-3.91V63.48c0-2.61.86-3.91 2.5-3.91.95 0 1.64.35 1.98.96s.52 1.65.52 2.96v5.22h10.68v-3.65c0-4.96-1.12-8.7-3.27-11.22s-5.51-3.74-9.9-3.74c-8.78 0-13.17 5.13-13.17 15.31V80.7c0 5.04 1.12 8.87 3.36 11.39s5.51 3.83 9.82 3.83v-.08z" style="fill:#6bb8e0" transform="matrix(.26458 0 0 .26458 -38.304 -13.23)"/></svg>