<svg xmlns="http://www.w3.org/2000/svg" xml:space="preserve" width="1178.9012" height="1178.9026" viewBox="0 0 1178.9013 1178.9026"><defs><linearGradient id="b" x1="0" x2="1" y1="0" y2="0" gradientTransform="matrix(808.53375 0 0 -808.53375 95.733 500)" gradientUnits="userSpaceOnUse" spreadMethod="pad"><stop offset="0" style="stop-opacity:1;stop-color:#934530"/><stop offset="0.1" style="stop-opacity:1;stop-color:#934530"/><stop offset="0.5" style="stop-opacity:1;stop-color:#ec7762"/><stop offset="0.9" style="stop-opacity:1;stop-color:#8f412b"/><stop offset="1" style="stop-opacity:1;stop-color:#8f412b"/></linearGradient><linearGradient id="c" x1="0" x2="1" y1="0" y2="0" gradientTransform="matrix(556.24036 0 0 -556.24036 221.88 500)" gradientUnits="userSpaceOnUse" spreadMethod="pad"><stop offset="0" style="stop-opacity:1;stop-color:#934530"/><stop offset="0.1" style="stop-opacity:1;stop-color:#934530"/><stop offset="0.5" style="stop-opacity:1;stop-color:#ec7762"/><stop offset="0.9" style="stop-opacity:1;stop-color:#8f412b"/><stop offset="1" style="stop-opacity:1;stop-color:#8f412b"/></linearGradient><clipPath id="a" clipPathUnits="userSpaceOnUse"><path d="M0 1000h1000V0H0Z"/></clipPath></defs><g clip-path="url(#a)" transform="matrix(1.33333 0 0 -1.33333 -77.216 1256.118)"><path d="M0 0c-58.327 0-114.915 11.426-168.191 33.96-51.455 21.763-97.663 52.917-137.342 92.596-39.679 39.678-70.832 85.887-92.596 137.34-22.534 53.277-33.959 109.865-33.959 168.192 0 58.327 11.425 114.915 33.959 168.191 21.764 51.454 52.917 97.663 92.596 137.342 39.679 39.679 85.887 70.833 137.342 92.596 53.276 22.534 109.864 33.96 168.191 33.96s114.915-11.426 168.191-33.96c51.454-21.763 97.663-52.917 137.342-92.596 39.678-39.679 70.833-85.888 92.595-137.342 22.535-53.276 33.96-109.864 33.96-168.191s-11.425-114.915-33.96-168.192c-21.762-51.453-52.917-97.662-92.595-137.34-39.68-39.679-85.888-70.833-137.342-92.596C114.915 11.426 58.327 0 0 0" style="fill:#fff;fill-opacity:1;fill-rule:nonzero;stroke:none" transform="translate(500 67.912)"/><path d="M0 0c-59.673 0-117.571-11.692-172.087-34.75-52.646-22.267-99.923-54.141-140.517-94.735-40.594-40.594-72.467-87.871-94.735-140.517-23.058-54.515-34.749-112.414-34.749-172.086 0-59.673 11.691-117.572 34.749-172.087 22.268-52.646 54.141-99.923 94.735-140.517 40.594-40.594 87.871-72.468 140.517-94.735 54.516-23.058 112.414-34.75 172.087-34.75 59.673 0 117.571 11.692 172.087 34.75 52.646 22.267 99.923 54.141 140.517 94.735 40.594 40.594 72.467 87.871 94.735 140.517 23.058 54.515 34.749 112.414 34.749 172.087 0 59.672-11.691 117.571-34.749 172.086-22.268 52.646-54.141 99.923-94.735 140.517-40.594 40.594-87.871 72.468-140.517 94.735C117.571-11.692 59.673 0 0 0m0-20c233.113 0 422.088-188.976 422.088-422.088 0-233.113-188.975-422.089-422.088-422.089-233.113 0-422.088 188.976-422.088 422.089C-422.088-208.976-233.113-20 0-20" style="fill:#2b2b2b;fill-opacity:1;fill-rule:nonzero;stroke:none" transform="translate(500 942.088)"/><path d="M0 0c68.583-20.261 114.338-88.657 102.613-164.301 23.773-20.166 51.171-32.168 82.497-35.016 31.291-2.846 60.474 3.932 87.747 19.4-42.243-42.485-126.134-59.412-192.402-6.619-48.084-14.607-99.37-66.519-98.788-139.777-5.483 8.479-5.423 47.396.141 69.23 5.915 23.213 16.869 43.767 32.818 61.626 15.954 17.864 35.203 30.996 57.49 39.521C83.25-106.242 63.541-35.923 0 0" style="fill:#2b2b2b;fill-opacity:1;fill-rule:nonzero;stroke:none" transform="translate(414.675 671.286)"/><path d="M0 0c-16.878 73.179 24.476 145.347 91.446 169.957l7.704-29.69C36.215 114.467 3.386 67.723 0 0" style="fill:#2b2b2b;fill-opacity:1;fill-rule:nonzero;stroke:none" transform="translate(360.015 424.41)"/><path d="m0 0-29.749 8.268c9.062 67.862-15.269 119.624-72.737 156.446 34.3-10.951 61.55-30.935 80.946-61.09C-1.235 72.058 5.435 37.495 0 0" style="fill:#2b2b2b;fill-opacity:1;fill-rule:nonzero;stroke:none" transform="translate(603.656 498.15)"/><path d="m0 0 21.264 21.976C75.07-19.522 131.907-24.642 191.825 6.179 141.21-42.937 55.781-46.784 0 0" style="fill:#2b2b2b;fill-opacity:1;fill-rule:nonzero;stroke:none" transform="translate(444.919 414.12)"/><path d="m0 0 10.451 28.344 8.504-3.1L8.63-3.188l21.593-6.465 5.772 28.651 9.214-1.829c-1.325-6.775-2.596-13.267-3.863-19.76-.2-1.019-.45-2.035-.56-3.065-.426-3.988 1.858-7.2 5.508-7.816 3.442-.58 6.993 1.966 7.765 5.714 1.318 6.407 2.542 12.833 3.815 19.248.18.91.409 1.809.681 3.006l8.885-1.717c-.759-4.059-1.459-7.907-2.205-11.746-.673-3.467-1.415-6.921-2.096-10.386-.761-3.876 1.761-7.821 5.435-8.551 3.596-.715 7.195 1.729 8.049 5.698C77.955-6.013 79.128.215 80.38 6.427c.224 1.109.502 2.207.815 3.573l8.792-1.707-5.674-29.027 20.848-1.288 2.282 45.879 9.154-.561-2.546-53.461c-8.065 0-15.839-.013-23.613.014-1.139.004-2.276.266-3.417.301-3.542.109-6.878.66-9.055 4.109-8.531-3.659-15.913-2.583-21.658 5.047-8.04-4.611-15.978-3.007-21.604 3.344-3.486-2.122-7.035-1.152-10.699-.087C-3.66-9.405-29.997 1.749-55.053 15.946c-1.176.666-2.326 1.377-3.477 2.086-.165.102-.263.312-.642.781l26.5 46.951 7.948-4.481-21.829-38.722C-31.966 13.146-16.313 6.182 0 0" style="fill:#2b2b2b;fill-opacity:1;fill-rule:nonzero;stroke:none" transform="translate(375.728 166.974)"/><path d="M0 0c4.822 0 9.182-.373 13.441.116 3.493.402 5.079 2.815 5.147 6.019.069 3.205-1.446 5.536-4.944 6.219-4.103.8-8.326.98-12.742 1.456L0 0m-1.141-23.511c1.147-.175 2.244-.503 3.334-.48 4.221.088 8.516-.149 12.634.581 3.452.613 4.868 3.545 4.745 7.411-.104 3.304-1.521 5.44-5.088 6.094-4.826.884-9.759 1.19-14.931 1.776-.302-5.103-.567-9.529-.816-13.955-.022-.394.064-.794.122-1.427m-10.612-8.132 3.27 54.359c3.718-.223 7.307-.389 10.889-.663 4.969-.38 10.004-.454 14.883-1.353 8.124-1.498 12.301-7.755 11.056-15.675-.676-4.299-3.052-6.854-8.988-9.587.535-.27.975-.549 1.453-.724 5.669-2.072 8.472-6.376 8.608-12.152.14-5.96-2.327-10.897-8.098-13.211-3.117-1.25-6.626-2.126-9.955-2.117-7.563.021-15.124.693-23.118 1.123" style="fill:#2b2b2b;fill-opacity:1;fill-rule:nonzero;stroke:none" transform="translate(510.317 840.432)"/><path d="M0 0c3.527-2.84 6.731-5.803 10.317-8.189 2.924-1.946 5.982-1.146 8.082 1.331 2.08 2.454 2.303 5.161.033 7.947-2.667 3.272-5.719 6.23-8.76 9.491A119591.2 119591.2 0 0 0 0 0m-15.929-17.664c3.419-2.927 6.581-5.748 9.883-8.396 1.011-.812 2.356-1.312 3.628-1.672 3.007-.853 5.527.305 7.723 3.272 1.75 2.365 2.05 4.976.162 7.153-3.409 3.931-7.16 7.564-10.856 11.413-3.482-3.811-6.488-7.096-9.485-10.389-.273-.299-.496-.644-1.055-1.381M7.729 23.154c5.7-5.211 11.248-10.094 16.551-15.232 1.826-1.769 3.351-4.02 4.467-6.316 2.286-4.703 1.723-9.307-1.547-13.46-3.222-4.092-7.437-5.465-12.49-4.368-.686.148-1.359.351-2.316.601.738-1.829 1.58-3.35 1.972-4.98 2.426-10.081-7.113-19.306-17.203-16.516-2.648.732-5.411 1.89-7.51 3.602-6.353 5.18-12.406 10.728-18.784 16.315l36.86 40.354" style="fill:#2b2b2b;fill-opacity:1;fill-rule:nonzero;stroke:none" transform="translate(723.086 756.809)"/><path d="m0 0 3.72-13.375c4.175 1.339 8.107 2.309 11.79 3.865 3.561 1.505 4.817 4.633 3.834 7.88-.955 3.156-3.515 4.883-7.317 4.296C8.062 2.053 4.172.947 0 0m5.844-21.122c1.34-5.003 2.481-9.294 3.647-13.579.13-.476.399-.915.698-1.583 3.87 1.136 7.644 2.154 11.351 3.379 1.345.444 2.638 1.238 3.762 2.119 2.768 2.17 3.391 4.868 2.141 8.346-1.107 3.079-3.203 4.79-6.68 4.321-4.878-.656-9.675-1.916-14.919-3.003M2.708-47.185-11.679 5.307c1.794.552 3.42 1.11 5.076 1.552 6.024 1.608 12.027 3.316 18.105 4.689 2.175.491 4.602.485 6.809.102 5.131-.89 8.636-3.89 10.111-9.017 1.392-4.84.358-9.03-3.372-12.491-.38-.352-.746-.72-1.108-1.091-.067-.069-.084-.188-.238-.557.492-.087.924-.221 1.359-.231 5.728-.128 9.691-2.947 11.806-8.152 2.219-5.462 1.772-10.804-2.613-14.992-2.419-2.311-5.404-4.438-8.525-5.522-7.436-2.584-15.104-4.498-23.023-6.782" style="fill:#2b2b2b;fill-opacity:1;fill-rule:nonzero;stroke:none" transform="translate(395.427 839.327)"/><path d="M0 0c.569-2.033 1.065-3.719 1.508-5.418.259-.992.434-2.005.672-3.126-4.046-2.28-6.438-5.55-6.28-10.326.173-5.275 5.504-10.478 10.674-9.514 7.41 1.38 14.673 3.547 22.242 5.438-1.114 4.387-1.953 8.447-3.183 12.385-2.825 9.039 2.921 18.223 11.779 20.027 3.723.757 7.386 1.81 11.259 2.774l9.531-37.074-8.892-2.278L42.063.749c-6.37-.269-8.942-3.617-7.46-9.356 1.61-6.234 3.186-12.476 4.762-18.718.171-.678.244-1.381.414-2.376-10.595-2.638-20.968-5.649-31.526-7.721-9.513-1.867-18.311 4.522-20.93 14.161-2.638 9.707 1.721 18.989 10.63 22.613C-1.478-.417-.875-.274 0 0" style="fill:#2b2b2b;fill-opacity:1;fill-rule:nonzero;stroke:none" transform="translate(565.813 181.377)"/><path d="m0 0-29.173 45.121 7.688 4.918L2.65 12.765c14.677 9.11 28.104 19.521 40.874 31.298L23.992 65.897l6.767 6.108 25.72-28.641C39.09 27.081 20.44 12.785 0 0" style="fill:#2b2b2b;fill-opacity:1;fill-rule:nonzero;stroke:none" transform="translate(692.862 191.748)"/><path d="m0 0 8.143 5.593 12.345-17.66L41.064 2.25 28.785 19.994l8.089 5.634 31.104-44.665-8.053-5.677L46.208-5.149 25.642-19.43l13.582-19.648-8.078-5.653A925469.926 925469.926 0 0 1 0 0" style="fill:#2b2b2b;fill-opacity:1;fill-rule:nonzero;stroke:none" transform="translate(271.783 784.644)"/><path d="m0 0 13.542 6.257A241704.1 241704.1 0 0 0-1.832 22.288c.433-7.076.85-13.983 1.295-20.888C-.513 1.023-.261.661 0 0m.166-9.318.586-13.36-9.92-4.597-1.296 59.376 7.697 3.545 44.123-39.59L31.14-8.682 21.294.417.166-9.318" style="fill:#2b2b2b;fill-opacity:1;fill-rule:nonzero;stroke:none" transform="translate(352.407 795.398)"/><path d="M0 0c-1.741-6.323-3.36-12.177-4.958-18.036-.32-1.173-.56-2.367-.949-4.034l16.253 1.626C7.315-14.347 4.464-8.6 1.598-2.86 1.189-2.042.707-1.26 0 0m-8.505-30.914-3.678-12.788-10.943-1.198 17.97 56.574 8.477.89 28.874-51.721-11.18-1.174-6.361 11.785-23.159-2.368" style="fill:#2b2b2b;fill-opacity:1;fill-rule:nonzero;stroke:none" transform="translate(461.914 848.652)"/><path d="m0 0 8.309-5.439c-5.023-7.734-9.883-15.216-14.742-22.7-1.303-2.006-2.642-3.99-3.894-6.028-3.982-6.485-2.641-12.808 3.52-16.773 6.102-3.927 12.45-2.584 16.738 3.77 4.422 6.551 8.651 13.232 12.963 19.856 1.81 2.781 3.618 5.563 5.666 8.714l8.283-5.38c-5.264-8.103-10.389-16.022-15.551-23.918-1.706-2.611-3.275-5.36-5.305-7.701-7.992-9.215-20.788-9.669-30.674-1.252-8.033 6.839-10.409 17.058-5.193 25.808C-13.661-20.608-6.8-10.555 0 0" style="fill:#2b2b2b;fill-opacity:1;fill-rule:nonzero;stroke:none" transform="translate(678.902 815.904)"/><path d="m0 0 18.155 22.837 7.12-5.684A349165.87 349165.87 0 0 1 1.551-12.791c-.555.304-1.092.534-1.56.863-13.202 9.285-25.982 19.097-37.812 30.111-5.627 5.239-7.748 11.6-5.759 18.935 2.006 7.397 6.694 12.663 14.345 14.624 5.523 1.416 10.648.213 15.488-3.301l-5.196-6.622c-2.123.349-4.136.999-6.129.942-4.189-.122-7.313-2.221-8.972-6.132-1.643-3.87-1.356-7.692 1.699-10.69C-22.522 16.299-11.646 7.95 0 0" style="fill:#2b2b2b;fill-opacity:1;fill-rule:nonzero;stroke:none" transform="translate(299.28 206.904)"/><path d="M0 0v9.805c1.267 0 2.268-.055 3.261.009 5.385.346 9.195 3.02 11.313 7.959 1.047 2.443.938 4.881-.897 7.017-1.794 2.087-3.991 3.008-6.678 1.996-2.904-1.094-5.741-2.369-8.651-3.446-2.807-1.039-5.605-2.319-8.522-2.808-9.033-1.515-17.628 7.34-16.036 17.753 1.276 8.349 10.925 18.005 19.361 19.013.902.107 1.829.014 2.952.014v-9.928c-4.353.217-7.833-1.584-10.581-4.828a12.609 12.609 0 0 1-1.807-2.882c-1.088-2.381-.794-4.625.884-6.696 1.676-2.069 3.901-2.5 6.19-1.692 3.222 1.136 6.273 2.748 9.478 3.937 2.801 1.039 5.668 2.284 8.586 2.55 8.249.751 16.088-7.137 16.146-15.921C25.082 9.201 9.688-2.279 0 0" style="fill:#2b2b2b;fill-opacity:1;fill-rule:nonzero;stroke:none" transform="translate(265.31 712.62)"/><path d="m0 0-8.27-3.083c-.337.199-.593.259-.677.413-3.632 6.651-9.425 9.172-16.696 8.394-7.622-.817-12.41-5.427-15.087-12.341-4.541-11.732.75-23.067 12.05-26.113 4.338-1.169 8.208-.037 11.883 2.234.341.211.718.363 1.312.659l5.82-7.25c-4.345-5.452-15.822-7.211-26.198-2.681-12.12 5.292-18.527 16.721-16.515 29.791 2.059 13.373 11.887 23.597 23.941 24.906C-15.683 16.314-4.058 10.292 0 0" style="fill:#2b2b2b;fill-opacity:1;fill-rule:nonzero;stroke:none" transform="translate(621.728 834.384)"/><path d="m0 0-37.206-18.393-4.12 8.1 28.351 14.104c-3.699 6.614-8.416 11.542-16.004 12.402-7.413.84-13.074-3.219-18.599-7.807l-3.828 7.572c6.498 8.072 21.12 14.825 34.952 4.916C-9.065 15.601-4.206 8.324 0 0" style="fill:#2b2b2b;fill-opacity:1;fill-rule:nonzero;stroke:none" transform="translate(679.622 183.19)"/><path d="M0 0c5.128-.036 8.626 3.271 8.642 8.171.017 4.892-3.499 8.318-8.534 8.318-5.019-.001-8.529-3.465-8.483-8.369C-8.329 3.316-4.945.035 0 0m-.138-24.257h-9.06L1.871-6.909h-3.146C-9.719-6.91-15.286-1.661-16.144 7.115c-.744 7.606 4.622 14.707 12.295 16 5.527.931 10.877.358 15.271-3.524 5.567-4.919 5.814-11.203 3.881-17.772-.634-2.156-1.779-4.212-2.964-6.147C8.267-10.976 4.075-17.549-.138-24.257" style="fill:#2b2b2b;fill-opacity:1;fill-rule:nonzero;stroke:none" transform="translate(180.345 504.749)"/><path d="m0 0 8.958-4.134-18.79-41.367 20.925-9.613-3.701-8.111-29.969 13.635L0 0" style="fill:#2b2b2b;fill-opacity:1;fill-rule:nonzero;stroke:none" transform="translate(637.036 835.825)"/><path d="m0 0-.526.118-10.381-17.04H0Zm.14-34.556v10.118h-18.88c-.438 4.083-.431 7.53 1.865 11.004C-11.314-5.019-6.158 3.663-.769 12.35h8.451v-29.344l6.255-.315v-6.987H7.784v-10.26z" style="fill:#2b2b2b;fill-opacity:1;fill-rule:nonzero;stroke:none" transform="translate(818.66 508.577)"/><path d="M0 0c.32-3.042.462-5.91-.883-8.837-5.337-11.613-10.509-23.302-15.75-34.959-.462-1.027-.986-2.027-1.511-3.1h-8.544L-8.537-7.025h-20.822V0Z" style="fill:#2b2b2b;fill-opacity:1;fill-rule:nonzero;stroke:none" transform="translate(870.175 520.862)"/><path d="M0 0h9.063l1.213-53.316H1.214L0 0" style="fill:#2b2b2b;fill-opacity:1;fill-rule:nonzero;stroke:none" transform="translate(502.544 190.109)"/><path d="M0 0v-47.104h-7.54v36.346l-7.201-5.903-4.652 5.743c4.322 3.499 8.246 7.088 12.62 10.005C-5.127.185-2.441-.276 0 0" style="fill:#2b2b2b;fill-opacity:1;fill-rule:nonzero;stroke:none" transform="translate(149.857 527.641)"/><path d="M0 0c.082-2.773-2.247-5.179-5.032-5.199-2.654-.019-4.9 2.204-4.957 4.907-.061 2.846 1.891 4.973 4.678 5.099C-2.359 4.941-.086 2.884 0 0" style="fill:#2b2b2b;fill-opacity:1;fill-rule:nonzero;stroke:none" transform="translate(718.1 269.356)"/><path d="M0 0c2.634.041 4.936-2.255 4.994-4.983C5.054-7.787 2.988-9.936.17-10c-2.845-.064-5.056 1.94-5.18 4.693C-5.137-2.497-2.822-.044 0 0" style="fill:#2b2b2b;fill-opacity:1;fill-rule:nonzero;stroke:none" transform="translate(271.34 210.822)"/><path d="M0 0c2.854-.017 4.959-2.088 4.948-4.869C4.937-7.567 2.603-9.987.051-9.946c-2.933.048-5.161 2.318-5.092 5.188C-4.974-1.919-2.922.017 0 0" style="fill:#2b2b2b;fill-opacity:1;fill-rule:nonzero;stroke:none" transform="translate(374.23 154.112)"/><path d="M0 0c2.338-.089 4.263-2.244 4.111-4.603-.137-2.136-2.276-4.058-4.444-3.994-2.18.064-4.127 2.095-4.135 4.311C-4.475-2.003-2.296.087 0 0" style="fill:#2b2b2b;fill-opacity:1;fill-rule:nonzero;stroke:none" transform="translate(603.857 147.745)"/><path d="M0 0c.026-2.291-2.106-4.325-4.467-4.261-2.166.059-4.182 2.149-4.144 4.298.038 2.188 2.004 4.183 4.192 4.256C-2.071 4.372-.027 2.386 0 0" style="fill:#2b2b2b;fill-opacity:1;fill-rule:nonzero;stroke:none" transform="translate(598.02 140.95)"/><path d="M0 0c-.095-2.457-1.766-4.078-4.174-4.051-2.388.028-4.239 2.035-4.129 4.478.098 2.184 2.112 4.131 4.254 4.111C-1.665 4.516.099 2.54 0 0" style="fill:#2b2b2b;fill-opacity:1;fill-rule:nonzero;stroke:none" transform="translate(446.185 197.509)"/><path d="M0 0c2.345.031 4.153-1.683 4.245-4.023.098-2.486-1.729-4.464-4.144-4.485-2.219-.021-4.185 1.855-4.27 4.072C-4.261-2.003-2.409-.031 0 0" style="fill:#2b2b2b;fill-opacity:1;fill-rule:nonzero;stroke:none" transform="translate(435.177 194.583)"/><path d="M0 0c-2.574-.052-4.365 1.668-4.34 4.168.024 2.418 1.648 4.041 4.091 4.09 2.457.048 4.243-1.522 4.36-3.835C4.238 1.926 2.495.051 0 0" style="fill:#2b2b2b;fill-opacity:1;fill-rule:nonzero;stroke:none" transform="translate(445.37 183.996)"/></g><path d="M342.64 872.496c-48.141-20.363-91.374-49.511-128.499-86.637-37.126-37.125-66.275-80.359-86.637-128.499C106.422 607.517 95.733 554.574 95.733 500c0-54.574 10.689-107.517 31.771-157.361 20.362-48.14 49.511-91.373 86.637-128.499 37.125-37.125 80.358-66.275 128.499-86.635C392.483 106.422 445.426 95.733 500 95.733c54.574 0 107.517 10.689 157.36 31.772 48.141 20.36 91.374 49.51 128.5 86.635 37.125 37.126 66.274 80.359 86.636 128.499 21.082 49.844 31.771 102.787 31.771 157.361 0 54.574-10.689 107.517-31.771 157.36-20.362 48.14-49.511 91.374-86.636 128.499-37.126 37.126-80.359 66.274-128.5 86.637-49.843 21.082-102.786 31.771-157.36 31.771-54.574 0-107.517-10.689-157.36-31.771M105.113 500c0 217.742 177.146 394.887 394.887 394.887 217.742 0 394.887-177.145 394.887-394.887 0-217.741-177.145-394.887-394.887-394.887-217.741 0-394.887 177.146-394.887 394.887" style="fill:url(#b);stroke:none" transform="matrix(1.33333 0 0 -1.33333 -77.216 1256.118)"/><path d="M391.739 756.259c-33.12-14.008-62.862-34.06-88.399-59.599-25.539-25.538-45.591-55.28-59.599-88.4-14.506-34.295-21.861-70.72-21.861-108.26 0-37.54 7.355-73.965 21.861-108.262 14.008-33.119 34.06-62.86 59.599-88.398 25.537-25.539 55.279-45.591 88.399-59.599C426.036 229.234 462.46 221.88 500 221.88c37.54 0 73.965 7.354 108.26 21.861 33.12 14.008 62.863 34.06 88.4 59.599 25.539 25.538 45.591 55.279 59.599 88.398C770.765 426.035 778.12 462.46 778.12 500c0 37.54-7.355 73.965-21.861 108.26-14.008 33.12-34.06 62.862-59.599 88.4-25.537 25.539-55.28 45.591-88.4 59.599-34.295 14.505-70.72 21.861-108.26 21.861-37.54 0-73.964-7.356-108.261-21.861M246.602 500c0 139.724 113.673 253.398 253.398 253.398 139.724 0 253.399-113.674 253.399-253.398 0-139.725-113.675-253.398-253.399-253.398-139.725 0-253.398 113.673-253.398 253.398" style="fill:url(#c);stroke:none" transform="matrix(1.33333 0 0 -1.33333 -77.216 1256.118)"/></svg>