<svg xmlns="http://www.w3.org/2000/svg" width="110px" height="150px" viewBox="0 0 110 150"><path d="M97.902.066 51.555.125l-.024 29.223h-.008v11.617c1.649-1.23 3.899-2.004 6.325-2.059 3.539-.168 5.379 1.942 5.504 2.078 0-.086.043-1.582 2.855-3.035.168-.094.36-.129.543-.183 1.148-.332 2.45-.38 3.875-.145v-18.5l21.145-.031v35.66c0 11.2-2.04 22.086-5.883 32.207l-.07-.066-.024.066c-9.16-6.14-9.625-11.992-12.34-13.762 1.59-.023 2.617.528 3.395.715 2.086.504 1.875 2.457 5.707 2.48.629 0 .656-.402 1.183-.886.746-.672 1.535-.508 1.305-1.414-.637-2.477-3.016-3.348-4.207-3.512.504-.957 2.367-.023 3.039.324.89.465 1.52 1.051 2.313 1.606.406.281.726.32.968.203.711-.344.781-2.031.492-3.07-.453-1.649.457-4.079-3.91-5.657-2.976-1.078-1.68-1.101-3.793-3.386-.816-.883-1.617-1.567-2.476-2.438-1.23-1.246-.676-2.129-1.637-3.453-1.547-2.129-2.496-.312-4.543-2.023-.434-.356-.879-.653-1.238-1.102 1.59-1.484 1.64-3.848 1.015-6.691-.328.699-1.847 2.203-1.847 2.203s-1.903-3.07-.535-5.117c1.136-1.707 4.93-1.344 4.93-1.344s-1.278-.813-3.177-1.149c-1.011-.18-2.347-.257-3.546.207-3.239 1.254-2.047 4.762-2 5.91-.84-.933-2.641-6.468-8.793-4.816 2.351.153 3.968.711 5.3 1.977-5.503-2.38-9.336.008-12.375 4.828-5.015 7.937-11.316 8.488-17.359 7.414 1.777 1.941 4.86 2.691 6.95 2.617-1.02 2.266-.13 4.25.023 6.45.18 2.714-2.84 7.253-4.54 8.265 2.9-1.719 6.387-4.852 7.126-7.883-.496 2.586-1.098 3.664-2.785 5.39 2.882-.804 4.457-3.816 4.945-6.573.258 1.39-.617 3.445-1.145 4.292-2.422 3.82-7.328 3.598-8.754 14.797 1.953-2.78 3.262-8.449 7.918-9.847-10.742 10.43-.222 17.699-.992 25.918 3.328-4.895 1.184-7.098 3.875-9.524 2.278 14.832 9.875 13.512 15.184 26.887 2.48-7.742-.828-21.527-5.137-29.285-1.73-3.125-5.793-11.34-5.539-14.367 1.977 8.757 8.285 9.41 8.148 16.984 3.047-7.059-4.367-11.402-6.578-17.59-1.504-4.215-.078-9.168 7.672-16.652-3.965 1.52-6.715 4.57-8.855 8.144.785-2.625 3.035-5.406 5.96-7.718 3.692-2.926 7.141-3.536 11.532-4.09-.309-.215-.68-.489-1.23-.625.16-.367 2.53-2.086 4.343-2.602.578 1.34-.847 3.711-2.637 5.051 2.008.012 8.266 1.656 7.977 3.625-.664.176-1.027-.371-1.516-.727-1.773-1.293-1.742-1.12-3.218.258.28.16.136.13.57.192.754.109 1.137-.313 1.441.379-.242.242-.488.37-1.004.546.618.11 2.989 1.414 3.633 1.809-.312-.46-.879-.906-1.242-1.18 2.738-1.476 7.637 6.34 9.102 8.25.386.5.058-1.14 1.074-.851.34.09.707.312 1.023.57 1.125.914-.336 1.59-1.078 1.871 1.813.184 1.922 1.102 2.281 1.766.04.082 1.145 2.386.102 1.96-1.14-.472-4.074-2.835-6.266-1.85-.554.25-1.168.6-1.136.944.05.586 1.867.73 3.402 1.903.207.156.715.57.894 1.25.06.207.11.414.024.574-.313.637-2.504.258-2.871.098-1.832-.797-5.113-2.371-6.922-5.047.793-.664 3.305-2.375 3.625-3.34-3.535 2.008-10.09 3.8-12.434-.84-1.324-2.625-.379-6.535 2.504-9.59-4.172.203-12.035 8.04-7.465 13.875-1.218-.12-3.156-1.183-4.078-1.906-1.492-1.18-2.172-2.523-2.59-3.918-.425 11.902 10.051 13.953 15.352 14.914-5.02.715-8.332.149-11.805-2.312 2.852 5.277 5.914 8.402 12.22 7.222 1.378 2.934 3.776 5.864 4.66 11.453 1.503 9.586-1.274 15.86-5.532 21.145-.25.266-.488.547-.746.82A91.03 91.03 0 0 1 52.3 129.578c-.68.469-1.352.918-2.047 1.367l-8.89 5.754-3 1.746a100.892 100.892 0 0 0 7.585 5.52l9.086 5.969 9.074-5.97a87.276 87.276 0 0 0 4.528-3.16l.02.02.03-.058s.008 0 .008-.016a98.484 98.484 0 0 0 11.457-9.883c.207-.207.418-.426.606-.633a107.93 107.93 0 0 0 11.21-13.867 108.435 108.435 0 0 0 9.325-16.664v-.008c.855-1.91 1.66-3.855 2.41-5.816.008-.024.008-.04.016-.055A102.944 102.944 0 0 0 110 58.406l-.074-46.414C109.898 5.398 104.523.06 97.902.066ZM63.887 48.941c-2.399 1.317-6.004 2.95-7.434 3.985a31.33 31.33 0 0 0-2.305 1.844c-.836.734-1.41 1.425-2.128 2.066.992-1.645 2.039-2.613 3.273-3.848-7.309 3.11-8.512 11.742-8.898 12.883-.54-2.738 1.64-7.484 3.496-9.766 3.05-3.757 5.609-3.382 5.949-3.511.34-.125 6.547-3.297 6.996-3.969-2.543-2.43-8.793 2.258-10.598 3.543-2.851 2.023-5.289 2.45-8.562 2.809 9.293-2.993 12.336-9.375 16.617-8.782 1.031.14 2.039.797 2.137.86-.106-.25-2.438-5.492-9.04-1.75-1.124.64-1.82 1.43-2.718 2.054 1.898-2.746 7.418-6.77 11.773-2.761.559.515 1.024 1.152 1.426 1.757.145.208.328.458.488.708.41.656.2 1.511-.472 1.878Zm0 0" style="stroke:none;fill-rule:nonzero;fill:#a6a9ac;fill-opacity:1"/><path d="M67.934 85.508c-3.754.449-6.47-.586-8.594-2.375 3.445 6.52 7.812 12.113 12.691 17.02-.133-5.118-1.515-10.934-4.097-14.645ZM53.93 50.305c.136-.16-.172.175 0 0ZM11.215 8.293h-.106c-.765 0-1.394.621-1.394 1.39v5.712h-.777c-.77 0-1.395.62-1.395 1.39 0 .766.621 1.39 1.394 1.39h1.817c0 .524-.305.934-.906 1.227-.602.297-1.434.446-2.5.446H6.285c-1.203 0-2.082-.243-2.625-.72-.547-.48-.82-1.187-.82-2.116v-1.856c0-.765-.625-1.386-1.395-1.386s-1.394.62-1.394 1.386v1.664c0 2.035.488 3.508 1.469 4.418.976.91 2.566 1.367 4.761 1.367H7.2c2.364 0 4.063-.445 5.078-1.335 1.024-.891 1.532-2.227 1.532-4.008v-.657c0-.664-.54-1.207-1.211-1.207V9.684a1.377 1.377 0 0 0-1.383-1.391ZM8.46 24.082c-.41 0-.76.14-1.05.426a1.357 1.357 0 0 0-.437 1.015c0 .41.144.758.437 1.051.29.29.64.434 1.05.434.4 0 .74-.145 1.024-.434.286-.293.426-.64.426-1.05 0-.395-.14-.731-.426-1.016a1.393 1.393 0 0 0-1.023-.426ZM5.059 24.082c-.41 0-.762.14-1.051.426a1.357 1.357 0 0 0-.438 1.015c0 .41.145.758.438 1.051.293.29.64.434 1.05.434.399 0 .739-.145 1.024-.434.285-.293.426-.64.426-1.05 0-.395-.14-.731-.426-1.016a1.393 1.393 0 0 0-1.023-.426ZM12.93 6.559c.156-.211.234-.551.234-1.02h-1.723a.583.583 0 0 1-.468-.2c-.114-.132-.168-.316-.168-.538 0-.239.047-.422.144-.54.102-.12.293-.179.574-.179.118 0 .25.008.407.035a.633.633 0 0 0 .734-.61.62.62 0 0 0-.527-.624 5.38 5.38 0 0 0-.801-.07c-.637 0-1.106.16-1.406.484-.297.328-.446.828-.446 1.508 0 .242.055.488.168.738h-.011a.624.624 0 0 0-.625.625v.082c0 .348.28.625.625.625h2.586c.312 0 .546-.105.703-.316ZM40.84 15.395h-2.813c0-1.415-.28-2.676-.832-3.793-.554-1.114-1.273-1.985-2.16-2.606-.887-.621-1.789-.934-2.71-.934-.356 0-.743.067-1.169.2-.426.136-1.11.425-2.054.87-.942.446-2.43 1.184-4.454 2.216V1.504c0-.766-.62-1.39-1.394-1.39h-.3c-.767 0-1.392.62-1.392 1.39v13.89h-2.71V1.505c0-.766-.622-1.39-1.395-1.39h-.32c-.766 0-1.395.62-1.395 1.39v13.914c0 1.832.746 2.754 2.235 2.754h23.675c1.504 0 2.254-.922 2.254-2.754V1.504c0-.766-.625-1.39-1.394-1.39h-.301c-.766 0-1.395.62-1.395 1.39v13.89Zm-16.188 0v-1.907c2.918-1.129 4.801-1.843 5.637-2.14.84-.297 1.375-.446 1.617-.446.512 0 1 .2 1.469.602.469.406.844.95 1.125 1.633s.426 1.437.426 2.254H24.652ZM46.05 1.504V16.78c0 .766.626 1.39 1.395 1.39h.32c.77 0 1.395-.62 1.395-1.39V1.504c0-.766-.625-1.39-1.394-1.39h-.32c-.77 0-1.395.624-1.395 1.39Zm0 0" style="stroke:none;fill-rule:nonzero;fill:#a6a9ac;fill-opacity:1"/><path d="M17.738 21.68h.266c.344 0 .648.222.75.554l1.289 4.184a.425.425 0 0 1-.406.55h-.239a.427.427 0 0 1-.406-.304l-.25-.852h-1.781l-.262.856a.427.427 0 0 1-.406.3h-.137a.424.424 0 0 1-.406-.542l1.238-4.18a.777.777 0 0 1 .75-.566Zm.785 3.28-.648-2.288h-.04l-.644 2.289ZM21.145 21.68h.257c.23 0 .422.187.422.422v3.87h1.492c.235 0 .422.192.422.423v.144c0 .23-.187.422-.422.422h-1.812a.785.785 0 0 1-.785-.785v-4.078a.425.425 0 0 1 .426-.418ZM25.422 22.613h-1.004a.426.426 0 0 1-.426-.422v-.09c0-.234.192-.421.426-.421h3.129c.23 0 .422.187.422.422v.09c0 .23-.192.421-.422.421H26.53v3.926c0 .23-.187.422-.422.422h-.257a.425.425 0 0 1-.422-.422v-3.926ZM29.879 21.68h.262a.78.78 0 0 1 .75.554l1.289 4.184a.423.423 0 0 1-.403.55h-.242a.418.418 0 0 1-.402-.304l-.25-.852h-1.785l-.262.856a.427.427 0 0 1-.406.3h-.137a.425.425 0 0 1-.406-.542l1.238-4.18a.778.778 0 0 1 .754-.566Zm.781 3.28-.652-2.288h-.04l-.644 2.289ZM33.277 21.68h.258a.42.42 0 0 1 .422.422v4.437c0 .23-.187.422-.422.422h-.258a.425.425 0 0 1-.422-.422v-4.437c0-.235.192-.422.422-.422ZM37.309 23.281l-.465.239a.429.429 0 0 1-.621-.375v-.293c0-.157.086-.297.222-.372l.86-.468a.784.784 0 0 1 1.156.688v3.741c0 .23-.188.422-.422.422h-.312a.425.425 0 0 1-.422-.422v-3.16ZM39.996 26.898a1.628 1.628 0 0 1-.23-.066.428.428 0 0 1-.278-.41v-.012a.416.416 0 0 1 .496-.406c.118.023.243.035.368.035.34 0 .605-.11.789-.328.187-.219.308-.54.355-.977-.25.223-.57.336-.965.336-.265 0-.5-.062-.715-.183a1.248 1.248 0 0 1-.507-.535 1.765 1.765 0 0 1-.188-.84c0-.348.07-.645.211-.899a1.46 1.46 0 0 1 .574-.578c.242-.133.52-.2.824-.2.618 0 1.075.212 1.375.642.301.425.454 1.007.454 1.734 0 .617-.09 1.129-.266 1.535-.176.406-.418.707-.723.906a1.877 1.877 0 0 1-1.039.293 2.02 2.02 0 0 1-.535-.047Zm.258-2.793c.121.133.289.2.508.2.304 0 .566-.121.797-.364-.036-.8-.301-1.207-.797-1.207a.626.626 0 0 0-.508.22.89.89 0 0 0-.184.57c0 .253.067.445.184.581ZM43.406 26.313c-.3-.422-.445-.997-.445-1.715 0-.602.086-1.11.262-1.508.175-.402.418-.703.718-.895a1.882 1.882 0 0 1 1.02-.293c.2 0 .371.02.52.055.07.016.144.04.226.066a.421.421 0 0 1-.215.813 2.192 2.192 0 0 0-.355-.035c-.336 0-.598.11-.782.328-.187.219-.308.539-.359.965.133-.117.277-.2.434-.254.156-.05.336-.078.53-.078.267 0 .5.058.712.175.207.122.371.297.496.528.117.23.184.512.184.84 0 .343-.07.636-.211.886-.137.25-.325.438-.567.57a1.668 1.668 0 0 1-.804.196c-.61-.004-1.063-.215-1.364-.645Zm1.324-.235a.635.635 0 0 0 .508-.215.902.902 0 0 0 .184-.574c0-.246-.063-.434-.18-.562-.12-.133-.285-.2-.504-.2-.156 0-.3.028-.422.09a1.14 1.14 0 0 0-.363.266c.04.797.297 1.195.777 1.195ZM48.02 23.281l-.465.239a.429.429 0 0 1-.621-.375v-.293c0-.157.086-.297.222-.372l.86-.468a.787.787 0 0 1 1.16.688v3.741c0 .23-.192.422-.426.422h-.313a.425.425 0 0 1-.421-.422v-3.16ZM10.637 29.348c-3.602 0-7.082.172-10.446.515L0 29.887V49.03h.055c.12-.02.25-.031.386-.047a73.883 73.883 0 0 1 5.34-.48 93.574 93.574 0 0 1 4.86-.129h2.953v8.164c0 23.23 7.855 43.863 22.957 60.836.058-.04.12-.086.183-.133a91.762 91.762 0 0 0 13.86-11.691c-1.258-1.375-2.489-2.711-3.61-4.274a22.858 22.858 0 0 1-2.988-5.68c-.062 0-.07 0-.125-.007-.625 1.472-5.219 7.664-5.219 7.664 1.055-3.895-.855-9.793-1.87-12.387-.891-2.281-1.634-5.082-1.837-7.824l-2.504 3.766c-1.16-5.95.793-11.778 2.059-13.817-.012-.023-.012-.023-.031-.039l-2.328.676 2.039-2.098a75.022 75.022 0 0 1-1.465-13.535c-2.953-2.023-5.258-5.8-5.258-5.8l4.246 1.21c.332.059.66.106.98.153V48.37h13.45c.601-.754 1.031-1.406 1.289-1.777.758-1.11 1.207-1.985 1.644-2.75V29.348Zm0 0" style="stroke:none;fill-rule:nonzero;fill:#cecfd0;fill-opacity:1"/></svg>