<svg xmlns="http://www.w3.org/2000/svg" width="215.35913mm" height="249.657mm" viewBox="0 0 215.35913 249.657"><defs><clipPath id="a" clipPathUnits="userSpaceOnUse"><path d="M27.508 719.8h51.756v59.953H27.508Z"/></clipPath></defs><g clip-path="url(#a)" style="stroke-width:.0847161" transform="matrix(4.16422 0 0 -4.16422 -114.63 3247.062)"><g style="stroke-width:.0847161"><path d="m0 0-.863-.297-.882-.304-.882.304L-3.49 0c-5.388 1.856-9.968 4.637-13.615 8.264-2.957 2.942-5.283 6.418-6.913 10.334-2.555 6.135-2.584 11.4-2.559 12.494v26.193l2.71-.003 44.251-.052 2.703-.003V31.128c.025-1.095-.004-6.366-2.558-12.509-1.63-3.921-3.955-7.402-6.912-10.347C9.97 4.64 5.389 1.857 0 0m21.297 18.163c2.603 6.263 2.642 11.665 2.617 12.82V57.89l-3.66.004-43.989.052-3.669.004V30.947c-.025-1.155.014-6.551 2.619-12.805 1.67-4.011 4.053-7.574 7.084-10.589 3.73-3.71 8.408-6.552 13.904-8.446l.858-.295 1.194-.411 1.194.411.858.295c5.497 1.894 10.176 4.739 13.907 8.455 3.03 3.018 5.413 6.585 7.083 10.601" style="fill:#231f20;fill-opacity:1;fill-rule:nonzero;stroke:none;stroke-width:.0847161" transform="translate(55.13 721.607)"/></g><g style="stroke-width:.0847161"><path d="m0 0-1.194-.411L-2.387 0l-.858.295c-5.497 1.894-10.174 4.736-13.904 8.446-3.031 3.015-5.415 6.578-7.085 10.589-2.605 6.255-2.644 11.651-2.618 12.805v27.003l3.668-.004 43.989-.052 3.66-.004V32.171c.026-1.155-.014-6.557-2.617-12.82-1.669-4.016-4.052-7.583-7.083-10.601C11.034 5.034 6.356 2.19.858.295Zm24.661 32.176v27.097l-.196.001-3.66.004-43.988.052-3.669.004h-.197V32.135c-.022-1.036-.003-6.547 2.634-12.881 1.68-4.034 4.078-7.618 7.127-10.651C-13.536 4.871-8.834 2.014-3.309.11l.858-.295 1.194-.411.063-.023.064.023 1.194.411.858.295c5.525 1.904 10.23 4.764 13.981 8.501 3.049 3.037 5.446 6.625 7.126 10.665 2.636 6.341 2.655 11.858 2.632 12.9" style="fill:#231f20;fill-opacity:1;fill-rule:nonzero;stroke:none;stroke-width:.0847161" transform="translate(54.58 720.42)"/></g><g style="stroke-width:.0847161"><path d="M0 0c-3.466-3.452-7.832-6.101-12.976-7.874l-1.255-.432-1.254.432c-5.143 1.772-9.509 4.419-12.975 7.867-2.801 2.786-5.005 6.081-6.55 9.793a32.12 32.12 0 0 0-2.203 8.23 25.637 25.637 0 0 0-.228 3.802v24.577l3.847.004 38.719.036 3.854.004V21.854a25.897 25.897 0 0 0-.227-3.807A32.25 32.25 0 0 0 6.55 9.806C5.005 6.089 2.801 2.79 0 0m10.601 22.027v26.099l-2.703.004-44.251.052-2.709.003V21.991c-.026-1.094.004-6.359 2.558-12.494 1.631-3.915 3.956-7.392 6.913-10.333 3.647-3.628 8.228-6.409 13.615-8.265l.864-.297.881-.304.882.304.863.297c5.389 1.857 9.97 4.64 13.618 8.273C4.088 2.116 6.414 5.597 8.043 9.518c2.554 6.143 2.583 11.415 2.558 12.509" style="fill:#fee253;fill-opacity:1;fill-rule:nonzero;stroke:none;stroke-width:.0847161" transform="translate(67.616 730.708)"/></g><g style="stroke-width:.0847161"><path d="m0 0 3.854.004v.195L0 .196-38.72.16l-3.846-.004V-.04l3.846.004z" style="fill:#101f44;fill-opacity:1;fill-rule:nonzero;stroke:none;stroke-width:.0847161" transform="translate(72.742 776.947)"/></g><g style="stroke-width:.0847161"><path d="M0 0a15.2 15.2 0 0 1-.003-.417c0 .091.002.167.003.221z" style="fill:#101f44;fill-opacity:1;fill-rule:nonzero;stroke:none;stroke-width:.0847161" transform="translate(30.176 752.526)"/></g><g style="stroke-width:.0847161"><path d="M0 0a15.2 15.2 0 0 1-.003.417V.221C-.002.167 0 .091 0 0" style="fill:#101f44;fill-opacity:1;fill-rule:nonzero;stroke:none;stroke-width:.0847161" transform="translate(76.599 752.145)"/></g><g style="stroke-width:.0847161"><path d="M0 0c0 .091-.002.167-.003.221V24.806l-3.854-.004-38.72-.036-3.846-.004V.185a9.497 9.497 0 0 1-.004-.22 25.82 25.82 0 0 1 .231-3.386 32.142 32.142 0 0 1 2.203-8.229c1.546-3.712 3.75-7.007 6.551-9.794 3.466-3.448 7.831-6.095 12.975-7.867l1.254-.432 1.254.432c5.144 1.773 9.51 4.422 12.976 7.874 2.801 2.79 5.005 6.089 6.55 9.806A32.248 32.248 0 0 1-.23-3.389C-.02-1.759.004-.552 0 0" style="fill:#223268;fill-opacity:1;fill-rule:nonzero;stroke:none;stroke-width:.0847161" transform="translate(76.599 752.145)"/></g><g style="stroke-width:.0847161"><path d="M0 0h.65L.326 2.003Z" style="fill:#223268;fill-opacity:1;fill-rule:nonzero;stroke:none;stroke-width:.0847161" transform="translate(44.835 768.855)"/></g><g style="stroke-width:.0847161"><path d="M0 0h.65L.326 2.003Z" style="fill:#223268;fill-opacity:1;fill-rule:nonzero;stroke:none;stroke-width:.0847161" transform="translate(48.037 768.855)"/></g><g style="stroke-width:.0847161"><path d="M0 0h.65L.326 2.003Z" style="fill:#223268;fill-opacity:1;fill-rule:nonzero;stroke:none;stroke-width:.0847161" transform="translate(36.067 768.855)"/></g><path d="M55.416 768.013h.911v3.299h-.911z" style="fill:#223268;fill-opacity:1;fill-rule:nonzero;stroke:none;stroke-width:.0847161"/><g style="stroke-width:.0847161"><path d="m0 0 .43-.553a3.734 3.734 0 0 1 1.465-1.135l4.33-1.871a3.732 3.732 0 0 0 1.8-5.203l-3.11-5.735a3.732 3.732 0 0 1-.448-1.639l-.146-3.866A3.734 3.734 0 0 0 0-23.545v-6.641c3.644 2.093 6.313 4.641 8.268 7.274a26.285 26.285 0 0 1 2.73 4.591 28.356 28.356 0 0 1 2.082 6.361c.47 2.33.522 4.082.523 4.735 0 .17-.004.259-.004.259V4.988H0Z" style="fill:#223268;fill-opacity:1;fill-rule:nonzero;stroke:none;stroke-width:.0847161" transform="translate(59.147 759.452)"/></g><g style="stroke-width:.0847161"><path d="M0 0c.182-.69.444-1.345.832-1.949.315-.49.681-.931 1.134-1.298a2.969 2.969 0 0 1 1.256-.618c.051-.011.096-.016.127.018.031.033.012.079-.009.119-.101.197-.185.402-.273.606a22.161 22.161 0 0 0-.729 2.018C2.142-.482 1.986.152 1.812.78a14.77 14.77 0 0 1-.853 2.285C.818 3.368.396 4.096.317 4.132c-.058.026-.132-.005-.121-.071.021-.132.245-.892.298-1.088.132-.488.25-.979.36-1.471.072-.326.136-.654.199-.981.054-.287.212-1.115.187-1.254C.712-.445.36.025-.067.445c0-.047-.004-.07 0-.093C-.046.234-.03.115 0 0" style="fill:#223268;fill-opacity:1;fill-rule:nonzero;stroke:none;stroke-width:.0847161" transform="translate(55.01 744.614)"/></g><g style="stroke-width:.0847161"><path d="M0 0a4.314 4.314 0 0 0-.451-.901c-.084-.39-.161-.78-.134-.796.061-.036.075.007.105.047.262.361.474.748.625 1.168.098.274.177.555.23.842C.385.416.267.47.15.502A5.252 5.252 0 0 0 0 0" style="fill:#223268;fill-opacity:1;fill-rule:nonzero;stroke:none;stroke-width:.0847161" transform="translate(56.92 750.923)"/></g><g style="stroke-width:.0847161"><path d="M0 0a.993.993 0 0 1-.122-.016C-.318-.054-.52-.068-.729-.162c.252-.086.481-.163.715-.22.007-.001.01-.004.016-.006l.04.203C.059-.106.042-.046 0 0" style="fill:#223268;fill-opacity:1;fill-rule:nonzero;stroke:none;stroke-width:.0847161" transform="translate(56.473 751.446)"/></g><g style="stroke-width:.0847161"><path d="M0 0c-.291.201-.56.429-.714.752-.269.565-.211 1.112.156 1.618.161.222.356.414.628.504a.657.657 0 0 0 .196.039c.067 0 .084-.029.05-.087a1.402 1.402 0 0 1-.141-.282c-.068-.204-.047-.375.089-.488.133-.111.293-.178.462-.222.334-.085.659-.049.979.069.098.036.136.097.094.179-.22.424-.281.895-.405 1.348-.062.224-.138.445-.293.624a.49.49 0 0 1-.33.171 1.643 1.643 0 0 1-.623-.057C.121 4.16.087 4.12.052 4.159c-.036.04.385.701.652.94a.64.64 0 0 1 .221.516c.001.341.189.6.443.81.124.103.259.192.404.266.23.118.431.068.604-.092.262-.243.517-.494.78-.735.246-.224.481-.459.727-.682a3.253 3.253 0 0 1 1.359-.74c.545-.146 1.101-.255 1.632-.451.207-.077.419-.147.615-.248a.725.725 0 0 1 .649-.024c.304.129.615.24.939.306.169.034.342.055.513.073.248.024.334-.112.366-.35.035-.257.018-.515.017-.772 0-.095.031-.117.116-.107.211.024.422.053.634.063.233.011.467.002.7.003.228 0 .452-.023.672-.086.175-.051.25-.178.275-.35.051-.342-.016-.676-.063-1.013a5.121 5.121 0 0 0-.237-.96 5.821 5.821 0 0 0-.91-1.704c-.102-.131-.12-.173.014-.307.427-.429.823-.884 1.192-1.364.46-.598.868-1.23 1.282-1.86.267-.405.522-.82.829-1.198.172-.213.357-.416.547-.612.162-.167.379-.25.585-.354-.385.033-.769.077-1.127.244a3.896 3.896 0 0 0-.913.608c-.283.247-.516.536-.757.822-.232.276-.448.564-.672.847-.011.014-.025.042-.049.029-.034-.02-.026-.056-.018-.087.05-.186.097-.374.152-.559.2-.686.407-1.372.642-2.048.22-.633.457-1.26.717-1.878.167-.394.329-.79.466-1.205-.113.017-.201.09-.305.121a.561.561 0 0 0-.164.072c-.147.107-.322.103-.488.116-.36.028-.71.101-1.058.193a4.898 4.898 0 0 0-1.738.86c-.516.397-.914.897-1.248 1.451-.176.289-.337.586-.486.89-.213.435-.39.887-.578 1.334a8.665 8.665 0 0 1-.547 1.084c-.233.391-.489.766-.768 1.124a9.476 9.476 0 0 1-.564.654 9.962 9.962 0 0 1-.706.703C5.103-1.24 4.133-.025 4.202.007c.066.032 1.817-.701 1.919-.696.068.003.091.037.065.094-.063.144-2.715 3.365-3.105 4.017-.11.184-.199.38-.297.57l-.031-.003c0-.093-.008-.186.002-.278.032-.298.069-.594.147-.885.113-.418.293-.805.504-1.181.062-.11.126-.219.188-.33.083-.147.046-.264-.13-.396A1.98 1.98 0 0 0 2.47.517a4.063 4.063 0 0 0-.854.003c-.09.009-.173-.021-.292-.032.133-.082.239-.151.349-.215.38-.221.779-.412 1.131-.678.231-.173 2.128-1.884 2.303-2.074.212-.23.399-.485.59-.735.288-.374.551-.765.776-1.181.231-.426.408-.871.517-1.342.028-.119.067-.24.05-.381a9.02 9.02 0 0 1-.453.537c-.123.136-.259.255-.393.375-.228.204-.844.662-.883.629-.031-.026-.011-.078-.005-.121.022-.143.04-.286.055-.43.042-.386.123-.764.225-1.138.136-.498.305-.985.53-1.452.045-.092.177-.336.134-.362-.028-.017-.216.131-.284.183a3.38 3.38 0 0 0-.451.428c-.315.349-.598.72-.825 1.136a6.42 6.42 0 0 0-.539 1.28c-.112.38-.212.763-.32 1.145a6.435 6.435 0 0 1-.491 1.286 5.159 5.159 0 0 1-.382.554c-.501.529-1.094.936-1.711 1.317C.834-.497.4-.276 0 0m6.117-11.029a4.847 4.847 0 0 0 2.536 0l4.397-1.18a2.565 2.565 0 0 1 2.438.618c.489.464.773 1.091.799 1.769l.145 3.866c.029.747.232 1.49.588 2.147l3.11 5.735c.348.642.408 1.376.169 2.066a2.541 2.541 0 0 1-1.41 1.52L14.56 7.383a4.904 4.904 0 0 0-1.921 1.488l-3.224 4.146a2.556 2.556 0 0 1-2.03.993c-.8 0-1.539-.362-2.03-.993L2.131 8.871A4.904 4.904 0 0 0 .21 7.383l-4.329-1.871a2.541 2.541 0 0 1-1.41-1.52 2.539 2.539 0 0 1 .17-2.066l3.109-5.735c.356-.657.559-1.4.588-2.147l.146-3.866a2.55 2.55 0 0 1 .799-1.769 2.561 2.561 0 0 1 2.437-.618z" style="fill:#223268;fill-opacity:1;fill-rule:nonzero;stroke:none;stroke-width:.0847161" transform="translate(46.022 749.316)"/></g><g style="stroke-width:.0847161"><path d="M0 0a26.97 26.97 0 0 1 .787-2.058c.188-.439.391-.882.612-1.328.044-.089.088-.179.134-.268a23.091 23.091 0 0 1 .428-.808 27.224 27.224 0 0 1 .63-1.082c2.004-3.257 4.995-6.522 9.457-9.105v6.57a3.734 3.734 0 0 0-4.186 3.563L7.716-.65A3.724 3.724 0 0 1 7.268.988L4.159 6.724a3.73 3.73 0 0 0 1.799 5.203l4.33 1.871c.576.249 1.08.64 1.465 1.135l.295.379v5.162H-1.459V8.484s-.003-.09-.003-.259c.001-.93.107-4.091 1.379-7.975L0 0" style="fill:#223268;fill-opacity:1;fill-rule:nonzero;stroke:none;stroke-width:.0847161" transform="translate(35.484 743.966)"/></g><g style="stroke-width:.0847161"><path d="M0 0c.28-.446.636-.832.987-1.22.335-.372.671-.745.995-1.127.259-.305 1.523-2.365 1.578-2.5.025-.06.055-.129.139-.167-.238 1.299-.861 2.412-1.566 3.501.587.001 1.095-.259 1.621-.43.017.021.006.032 0 .045a3.307 3.307 0 0 1-.489.7 2.816 2.816 0 0 1-1.007.729c-.036.015-.074.061-.113.013-.034-.04-.017-.086.004-.129.063-.123.124-.246.186-.37a.417.417 0 0 0 .054-.213l-.015-.016a8.447 8.447 0 0 1-.722.427c-.147.08-.296.157-.446.232C.804-.32.406-.11.048.168.012.196-.03.201-.06.178-.085.158-.072.121-.052.091-.033.062-.019.03 0 0" style="fill:#223268;fill-opacity:1;fill-rule:nonzero;stroke:none;stroke-width:.0847161" transform="translate(50.506 752.687)"/></g><g style="stroke-width:.0847161"><path d="M0 0h-.661v.876h-.859v-3.298h.859v.933H0v-1.098c0-.27-.135-.405-.406-.405H-1.79c-.263 0-.394.135-.394.405v3.625c0 .272.131.409.394.409h1.384c.271 0 .406-.137.406-.409Zm-3.142.859h-1.149V-.454h.982v-.576h-.982v-1.962h-.664v4.439h1.813zm-2.876-3.851h-.638v.687h.638zm-1.701 0H-8.3L-9.364-.198c.028-.137.043-.243.043-.321v-2.473h-.647v4.439h.581l1.064-2.738a1.705 1.705 0 0 0-.042.321v2.417h.646zm-3.363.405c0-.27-.136-.405-.409-.405H-12.9c-.269 0-.403.135-.403.405v4.034h.664v-3.869h.893v3.869h.664zm-3.335 0c0-.27-.134-.405-.403-.405h-1.441c-.262 0-.394.135-.394.405v3.625c0 .272.132.409.394.409h1.441c.269 0 .403-.137.403-.409zm-3.84-.411h-.649l-.397 2.516c-.004.091-.012.226-.023.405 0-.09-.008-.225-.023-.405l-.394-2.516h-.652l-.65 4.445h.672l.344-2.632.022-.406c.002.091.011.226.026.406l.383 2.632h.544l.383-2.632.026-.406c.001.091.009.226.022.406l.343 2.632h.673zm-4.237.006-.133.842h-.831l-.133-.842h-.656v.011l.86 4.433h.698l.853-4.444zm-3.201 0-.134.842h-.831l-.133-.842h-.655v.011l.859 4.433h.698l.854-4.444zm-2.51 3.851h-.732v-3.851h-.661V.859h-.731v.588h2.124zm-2.904-3.851h-1.744v4.439h.664v-3.846h1.08zm-3.355 0-.133.842h-.831l-.133-.842h-.655v.011l.859 4.433h.698l.854-4.444zM1.339 2.791l-38.72.01v-7.02h38.72z" style="fill:#223268;fill-opacity:1;fill-rule:nonzero;stroke:none;stroke-width:.0847161" transform="translate(71.407 770.435)"/></g><g style="stroke-width:.0847161"><path d="M0 0v21.789h1.021l38.72-.01 1.02-.001V.036c.006-.186.032-1.388-.204-3.21a29.86 29.86 0 0 0-2.009-7.518c-1.402-3.372-3.398-6.362-5.934-8.888-3.16-3.147-7.164-5.571-11.901-7.203l-.333-.114-.332.114c-4.736 1.632-8.74 4.054-11.901 7.197-2.536 2.523-4.532 5.509-5.934 8.876A29.779 29.779 0 0 0 .204-3.205C-.032-1.386-.006-.186 0 0m7.526-20.19c3.255-3.239 7.372-5.73 12.235-7.406l.619-.213.62.213c4.864 1.676 8.98 4.17 12.236 7.412 2.619 2.608 4.68 5.695 6.126 9.174C41.725-5.325 41.658-.481 41.642.07V22.728l-1.903-.001-38.72-.037-1.9-.001V.034c-.017-.552-.083-5.388 2.28-11.063 1.447-3.474 3.508-6.556 6.127-9.161" style="fill:#fee253;fill-opacity:1;fill-rule:nonzero;stroke:none;stroke-width:.0847161" transform="translate(33.005 752.468)"/></g><g style="stroke-width:.0847161"><path d="M0 0c-.655 0-1.281.251-1.764.708a2.55 2.55 0 0 0-.799 1.769l-.146 3.866a4.924 4.924 0 0 1-.588 2.147l-3.109 5.735a2.539 2.539 0 0 0-.17 2.066c.239.691.74 1.23 1.41 1.52l4.33 1.871c.752.326 1.417.84 1.92 1.488l3.224 4.146a2.556 2.556 0 0 0 2.03.993c.8 0 1.54-.362 2.03-.993l3.224-4.146a4.904 4.904 0 0 1 1.921-1.488l4.329-1.871a2.541 2.541 0 0 0 1.41-1.52 2.542 2.542 0 0 0-.169-2.066l-3.11-5.735a4.923 4.923 0 0 1-.587-2.147l-.146-3.866a2.556 2.556 0 0 0-.799-1.769A2.56 2.56 0 0 0 12.003.09L7.606 1.27a4.89 4.89 0 0 1-2.536 0L.673.09A2.578 2.578 0 0 0 0 0m10.808-6.079c0-.469-.213-.703-.638-.703h-.436c-.426 0-.639.234-.639.703v2.752c0 .476.213.714.639.714h.401c.425 0 .638-.238.638-.714v-.465h-.557v.372c0 .201-.083.302-.25.302h-.093c-.147 0-.22-.081-.22-.244v-1.266l.348.233h.169c.425 0 .638-.239.638-.715zm-2.787.034c0-.491-.223-.737-.668-.737H7.04c-.446 0-.668.236-.668.708v.267h.557v-.226c0-.162.074-.244.221-.244h.064c.166 0 .25.082.25.244v.953c0 .181-.078.272-.233.272h-.842v2.195h1.574v-.517H6.912v-1.173h.441c.445 0 .668-.245.668-.737zm-2.724.006c0-.495-.222-.743-.667-.743h-.331c-.445 0-.668.248-.668.743v.232h.557v-.168c0-.201.084-.302.25-.302h.081c.148 0 .221.082.221.244v1.011l-.348-.233h-.128c-.445 0-.668.248-.668.744v1.167c0 .487.223.731.668.731h.366c.445 0 .667-.244.667-.731zm-2.833-.743h-.552v3.35l-.348-.104-.128.383c.143.055.265.13.366.227.1.097.18.201.238.313h.058l.366-.197Zm3.853-3.586c18.736 6.455 19.366 23.29 19.364 25.578-.001-.654-.053-2.406-.523-4.736l-.044-.214a28.362 28.362 0 0 0-2.164-6.414 26.418 26.418 0 0 0-2.604-4.324c-1.955-2.633-4.625-5.181-8.268-7.274v6.641a3.735 3.735 0 0 1 4.321 3.544l.145 3.866c.022.573.176 1.134.449 1.638l3.109 5.735a3.731 3.731 0 0 1-1.8 5.204l-4.329 1.871a3.735 3.735 0 0 0-1.466 1.135l-.429.552v4.988h13.599v1.777h-38.72v-1.777H.463V22.26l-.294-.378a3.725 3.725 0 0 0-1.465-1.135l-4.33-1.871a3.733 3.733 0 0 1-1.8-5.204l3.11-5.735a3.742 3.742 0 0 0 .448-1.638l.146-3.866A3.734 3.734 0 0 1 .463-1.13V-7.7C-3.999-5.117-6.99-1.853-8.993 1.404c-.111.181-.22.361-.324.542a19.598 19.598 0 0 0-.454.81c-.096.18-.19.359-.281.538l-.134.269a27.69 27.69 0 0 0-.933 2.11c-.17.432-.324.858-.465 1.276l-.084.249c-1.272 3.884-1.378 7.045-1.379 7.976-.002-2.283.628-19.087 19.364-25.542" style="fill:#fee253;fill-opacity:1;fill-rule:nonzero;stroke:none;stroke-width:.0847161" transform="translate(47.069 737.018)"/></g><g style="stroke-width:.0847161"><path d="M0 0h-.064C-.23 0-.313-.084-.313-.25v-1.08c0-.201.083-.302.249-.302h.337V-.25C.273-.084.182 0 0 0" style="fill:#f5db49;fill-opacity:1;fill-rule:nonzero;stroke:none;stroke-width:.0847161" transform="translate(51.536 733.9)"/></g><g style="stroke-width:.0847161"><path d="M0 0h-.348v-1.126c0-.167.081-.25.244-.25H0c.166 0 .25.083.25.25v.824C.25-.101.166 0 0 0" style="fill:#f5db49;fill-opacity:1;fill-rule:nonzero;stroke:none;stroke-width:.0847161" transform="translate(57.07 732.117)"/></g><g style="stroke-width:.0847161"><path d="M0 0v20.786l38.72-.011V.036s.003-.09.004-.259c.002-2.288-.628-19.122-19.364-25.577C.624-19.345-.006-2.542-.004-.259-.004-.09 0 0 0 0m7.127-19.568c3.16-3.144 7.164-5.565 11.9-7.197l.333-.115.332.115c4.737 1.632 8.741 4.055 11.901 7.203 2.537 2.526 4.533 5.516 5.934 8.888a29.832 29.832 0 0 1 2.01 7.517c.235 1.822.209 3.024.203 3.211v21.742h-1.02L0 21.806l-1.02.001V.018c-.006-.186-.032-1.387.203-3.206.23-1.774.765-4.517 2.009-7.505a27.188 27.188 0 0 1 5.935-8.875" style="fill:#fff;fill-opacity:1;fill-rule:nonzero;stroke:none;stroke-width:.0847161" transform="translate(34.026 752.45)"/></g><g style="stroke-width:.0847161"><path d="M0 0a.707.707 0 0 1-.186.03C-.323.024-.462.033-.598.021c.042-.045.058-.106.042-.185l-.04-.202c.138-.04.194-.129.165-.264-.02-.097-.098-.435-.17-.773A4.414 4.414 0 0 1 0 0" style="fill:#213569;fill-opacity:1;fill-rule:nonzero;stroke:none;stroke-width:.0847161" transform="translate(57.071 751.425)"/></g><g style="stroke-width:.0847161"><path d="m0 0 .326 2.003L.65 0Zm-.017 3.032-.859-4.433v-.012h.655l.133.843h.831l.133-.843h.658L.681 3.032Z" style="fill:#fee253;fill-opacity:1;fill-rule:nonzero;stroke:none;stroke-width:.0847161" transform="translate(36.067 768.855)"/></g><g style="stroke-width:.0847161"><path d="M0 0h-.664v-4.439h1.745v.593H0Z" style="fill:#fee253;fill-opacity:1;fill-rule:nonzero;stroke:none;stroke-width:.0847161" transform="translate(39.217 771.882)"/></g><g style="stroke-width:.0847161"><path d="M0 0h.732v-3.852h.661V0h.731v.587H0Z" style="fill:#fee253;fill-opacity:1;fill-rule:nonzero;stroke:none;stroke-width:.0847161" transform="translate(41.077 771.295)"/></g><g style="stroke-width:.0847161"><path d="m0 0 .326 2.003L.65 0Zm-.017 3.032-.859-4.433v-.012h.655l.133.843h.831l.133-.843h.658L.681 3.032Z" style="fill:#fee253;fill-opacity:1;fill-rule:nonzero;stroke:none;stroke-width:.0847161" transform="translate(44.835 768.855)"/></g><g style="stroke-width:.0847161"><path d="m0 0 .326 2.003L.65 0Zm-.017 3.032-.859-4.433v-.012h.655l.133.843h.831l.133-.843h.658L.681 3.032Z" style="fill:#fee253;fill-opacity:1;fill-rule:nonzero;stroke:none;stroke-width:.0847161" transform="translate(48.037 768.855)"/></g><g style="stroke-width:.0847161"><path d="M0 0a9.015 9.015 0 0 1-.023-.406L-.048 0l-.383 2.632h-.545L-1.359 0a7.15 7.15 0 0 1-.025-.406L-1.407 0l-.343 2.632h-.672l.649-4.444h.653L-.726.703c.015.18.023.315.023.406.011-.18.018-.315.022-.406l.397-2.515h.65l.649 4.444H.343Z" style="fill:#fee253;fill-opacity:1;fill-rule:nonzero;stroke:none;stroke-width:.0847161" transform="translate(52.784 769.25)"/></g><path d="M56.326 768.013h-.911v3.299h.911zm.261 3.869h-1.441c-.263 0-.394-.136-.394-.409v-3.624c0-.271.131-.406.394-.406h1.441c.268 0 .403.135.403.406v3.624c0 .273-.135.409-.403.409" style="fill:#fee253;fill-opacity:1;fill-rule:nonzero;stroke:none;stroke-width:.0847161"/><g style="stroke-width:.0847161"><path d="M0 0h-.894v3.869h-.663V-.165c0-.27.134-.405.403-.405H.255c.272 0 .409.135.409.405v4.034H0Z" style="fill:#fee253;fill-opacity:1;fill-rule:nonzero;stroke:none;stroke-width:.0847161" transform="translate(59.661 768.013)"/></g><g style="stroke-width:.0847161"><path d="M0 0c0-.078.014-.184.043-.321l-1.064 2.738h-.582v-4.439h.647V.451c0 .078-.014.184-.042.32L.065-2.022h.582v4.439H0Z" style="fill:#fee253;fill-opacity:1;fill-rule:nonzero;stroke:none;stroke-width:.0847161" transform="translate(63.041 769.465)"/></g><path d="M64.751 767.443h.638v.687h-.638z" style="fill:#fee253;fill-opacity:1;fill-rule:nonzero;stroke:none;stroke-width:.0847161"/><g style="stroke-width:.0847161"><path d="M0 0h.664v1.963h.981v.575H.664v1.314h1.148v.587H0Z" style="fill:#fee253;fill-opacity:1;fill-rule:nonzero;stroke:none;stroke-width:.0847161" transform="translate(66.452 767.443)"/></g><g style="stroke-width:.0847161"><path d="M0 0h-1.384c-.263 0-.394-.136-.394-.408v-3.625c0-.271.131-.406.394-.406H0c.27 0 .406.135.406.406v1.097h-.661v-.933h-.86V-.57h.86v-.877h.661v1.039C.406-.136.27 0 0 0" style="fill:#fee253;fill-opacity:1;fill-rule:nonzero;stroke:none;stroke-width:.0847161" transform="translate(71.001 771.882)"/></g><g style="stroke-width:.0847161"><path d="M0 0a1.202 1.202 0 0 0-.238-.314A1.077 1.077 0 0 0-.604-.54l.128-.383.348.104v-3.35h.552v3.971L.058 0Z" style="fill:#231f20;fill-opacity:1;fill-rule:nonzero;stroke:none;stroke-width:.0847161" transform="translate(49.109 734.405)"/></g><g style="stroke-width:.0847161"><path d="M0 0h-.337c-.166 0-.249.101-.249.302v1.08c0 .166.083.25.249.25h.064c.182 0 .273-.084.273-.25Zm-.11 2.137h-.366c-.445 0-.668-.244-.668-.732V.238c0-.496.223-.743.668-.743h.128L0-.273v-1.01c0-.163-.074-.244-.221-.244h-.081c-.166 0-.25.1-.25.302v.168h-.557v-.232c0-.496.222-.743.668-.743h.331c.445 0 .668.247.668.743v2.694c0 .488-.223.732-.668.732" style="fill:#231f20;fill-opacity:1;fill-rule:nonzero;stroke:none;stroke-width:.0847161" transform="translate(51.809 732.268)"/></g><g style="stroke-width:.0847161"><path d="M0 0h-.441v1.173H.61v.517H-.964V-.505h.842c.155 0 .232-.091.232-.273v-.952c0-.163-.083-.244-.249-.244h-.064c-.147 0-.221.081-.221.244v.226h-.558v-.267c0-.472.223-.709.668-.709H0c.445 0 .668.246.668.738v1.005C.668-.246.445 0 0 0" style="fill:#231f20;fill-opacity:1;fill-rule:nonzero;stroke:none;stroke-width:.0847161" transform="translate(54.422 732.715)"/></g><g style="stroke-width:.0847161"><path d="M0 0c0-.166-.083-.25-.25-.25h-.104c-.163 0-.244.084-.244.25v1.126h.348c.167 0 .25-.1.25-.302Zm-.081 1.632H-.25l-.348-.233v1.267c0 .162.073.243.22.243h.093c.167 0 .25-.101.25-.302v-.371h.558V2.7c0 .477-.213.715-.639.715h-.401c-.426 0-.639-.238-.639-.715V-.052c0-.469.213-.703.639-.703h.436c.426 0 .639.234.639.703v.969c0 .477-.213.715-.639.715" style="fill:#231f20;fill-opacity:1;fill-rule:nonzero;stroke:none;stroke-width:.0847161" transform="translate(57.32 730.99)"/></g><g style="stroke-width:.0847161"><path d="M0 0c.03.023.071.018.107-.01.359-.278.757-.488 1.159-.693.15-.076.299-.152.446-.231.246-.133.488-.272.721-.428l.016.016a.408.408 0 0 1-.055.213c-.061.123-.122.247-.185.37-.022.043-.038.089-.005.129.04.048.078.002.114-.013a2.804 2.804 0 0 0 1.007-.729c.192-.212.357-.445.489-.7.006-.013.017-.024-.001-.046-.526.172-1.033.432-1.62.43.705-1.088 1.327-2.201 1.565-3.501-.083.039-.114.108-.138.168-.055.135-1.32 2.195-1.578 2.5-.324.382-.66.754-.996 1.127-.35.388-.707.774-.986 1.22-.019.03-.033.062-.052.091C-.012-.058-.026-.02 0 0m4.496-7.805c.427-.42.779-.891 1.308-1.179.024.139-.134.967-.188 1.254a33.54 33.54 0 0 1-.559 2.452c-.053.196-.276.956-.298 1.089-.01.065.063.096.121.07.079-.035.501-.763.642-1.066.344-.74.635-1.498.853-2.286.174-.628.33-1.261.526-1.884a22.27 22.27 0 0 1 .729-2.018c.088-.204.172-.408.273-.606.021-.039.04-.086.009-.119-.03-.033-.076-.029-.127-.018a2.96 2.96 0 0 0-1.256.619A5.387 5.387 0 0 0 5.395-10.2a6.748 6.748 0 0 0-.832 1.949c-.03.116-.046.235-.067.352-.004.023 0 .047 0 .094m2.353 6.223a5.189 5.189 0 0 0-.23-.842 4.619 4.619 0 0 0-.625-1.169c-.029-.04-.043-.082-.104-.047-.027.017.05.406.134.797.072.338.15.676.17.773.029.135-.027.224-.165.263-.006.002-.009.005-.016.006a8.317 8.317 0 0 0-.715.22c.209.094.411.108.607.146.04.008.081.013.122.016.137.011.275.003.412.009.04.002.113-.01.186-.03.117-.032.234-.086.224-.142m-8.315-4.034c.059-.062.315-.43.381-.554.218-.408.367-.844.492-1.287.107-.381.208-.765.32-1.145.131-.446.315-.87.538-1.28.228-.415.511-.787.826-1.136a3.38 3.38 0 0 1 .451-.428c.068-.052.256-.2.284-.182.043.026-.089.27-.134.362a8.408 8.408 0 0 0-.53 1.452 7.307 7.307 0 0 0-.225 1.137 8.902 8.902 0 0 1-.055.431c-.006.043-.026.094.005.121.039.032.655-.425.883-.629.134-.12.27-.24.393-.376a9.02 9.02 0 0 0 .453-.537c.017.142-.023.262-.05.381-.11.471-.286.916-.517 1.343a8.97 8.97 0 0 1-.776 1.181c-.191.249-.378.504-.59.734-.175.19-2.072 1.901-2.303 2.075-.352.265-.751.456-1.131.677-.11.065-.216.134-.349.216.119.011.202.04.292.031.284-.029.568-.033.854-.002.371.04.699.179.994.401.176.132.213.25.13.397-.063.11-.126.219-.188.33a5.167 5.167 0 0 0-.504 1.18 5.923 5.923 0 0 0-.148.885c-.01.092-.001.186-.001.279l.031.002c.098-.19.187-.386.297-.569C-.953-.779 1.699-4 1.762-4.144c.025-.057.003-.09-.065-.094-.102-.004-1.853.728-1.919.696-.069-.032.901-1.247 1.198-1.505.25-.217.479-.46.706-.702.197-.21.387-.428.564-.655.279-.358.535-.732.767-1.123.209-.35.392-.712.548-1.084.188-.448.365-.899.578-1.335.149-.303.31-.6.485-.89.335-.554.733-1.054 1.249-1.45.522-.4 1.1-.691 1.738-.861a5.933 5.933 0 0 1 1.058-.193c.166-.012.34-.009.488-.115a.543.543 0 0 1 .163-.073c.104-.031.193-.104.306-.121-.137.416-.299.811-.466 1.206a31.29 31.29 0 0 0-.718 1.878A44.156 44.156 0 0 0 7.8-8.517c-.054.185-.101.372-.151.558-.008.032-.016.067.018.087.024.014.038-.014.049-.029.224-.283.44-.57.672-.847.241-.285.473-.575.757-.822.279-.243.578-.451.913-.608.358-.167.742-.21 1.127-.243-.206.103-.424.186-.585.353-.19.197-.375.4-.548.612-.306.379-.561.793-.828 1.199-.414.629-.822 1.262-1.282 1.86-.369.48-.765.935-1.192 1.364-.134.134-.116.175-.014.306.402.516.698 1.088.91 1.705a5.2 5.2 0 0 1 .237.96c.046.336.114.67.063 1.013-.025.171-.1.299-.276.349a2.373 2.373 0 0 1-.671.086c-.233 0-.467.008-.701-.003-.211-.009-.422-.039-.633-.063-.086-.009-.116.013-.116.108.001.257.018.514-.017.772-.033.238-.118.374-.366.349a4.91 4.91 0 0 1-.513-.073 4.859 4.859 0 0 1-.939-.305.724.724 0 0 0-.65.023c-.195.101-.407.172-.614.248C1.919.639 1.363.747.818.893a3.244 3.244 0 0 0-1.359.741c-.246.223-.481.457-.727.681-.263.242-.518.492-.781.735-.173.16-.373.211-.603.092a2.187 2.187 0 0 1-.404-.266c-.254-.21-.442-.469-.443-.81a.641.641 0 0 0-.221-.516c-.267-.238-.688-.899-.652-.939.035-.04.069 0 .096.008.204.065.414.073.623.057a.486.486 0 0 0 .329-.171c.156-.178.232-.399.294-.624.124-.452.185-.923.405-1.348.042-.081.004-.142-.094-.179a1.616 1.616 0 0 0-.979-.068 1.165 1.165 0 0 0-.462.221c-.136.113-.157.284-.089.489.033.1.087.191.141.282.034.058.017.087-.05.086a.627.627 0 0 1-.196-.039c-.272-.089-.467-.282-.628-.504-.367-.505-.425-1.053-.156-1.617.153-.324.423-.552.714-.753.4-.276.834-.496 1.247-.751.616-.38 1.21-.788 1.711-1.316" style="fill:#fee253;fill-opacity:1;fill-rule:nonzero;stroke:none;stroke-width:.0847161" transform="translate(50.446 752.865)"/></g></g></svg>