<svg xmlns="http://www.w3.org/2000/svg" width="316.227766" height="316.227766" viewBox="0 0 350 350"><g transform="matrix(.60076 0 0 .60076 -125.378 -125.378)"><path fill="#d6ab4c" d="M500 229c-149.3 0-271 121.8-271 271 0 149.3 121.8 271 271 271 149.3 0 271-121.8 271-271 0-149.3-121.7-271-271-271m0 530.5c-142.9 0-259.5-116.6-259.5-259.5S357.1 240.5 500 240.5 759.5 357.1 759.5 500 642.9 759.5 500 759.5"/><circle cx="500" cy="500" r="159" fill="#d6ab4c" transform="rotate(-45.001 499.997 500.008)"/><path fill="#001b58" d="M500 208.7c-160.9 0-291.3 130.4-291.3 291.3S339.1 791.3 500 791.3 791.3 660.9 791.3 500 660.9 208.7 500 208.7m0 562.3c-149.3 0-271-121.8-271-271 0-149.3 121.8-271 271-271 149.3 0 271 121.8 271 271 0 149.3-121.7 271-271 271"/><path fill="#a20a02" d="M500 240.5c-142.9 0-259.5 116.6-259.5 259.5S357.1 759.5 500 759.5 759.5 642.9 759.5 500 642.9 240.5 500 240.5m0 418.5c-87.8 0-159-71.2-159-159s71.2-159 159-159 159 71.2 159 159-71.2 159-159 159"/><path fill="#001b58" fill-rule="evenodd" d="M500 354c53 0 99.4 28.3 125 70.5l-26 15.6c-20.3-33.5-57.1-55.8-99-55.8-63.9 0-115.7 51.8-115.7 115.7S436.1 615.7 500 615.7c42.2 0 79.2-22.6 99.4-56.4l-.1.4 25.7 15.7c-25.6 42.3-72 70.6-125.1 70.6-80.6 0-146-65.4-146-146 .1-80.6 65.5-146 146.1-146" clip-rule="evenodd"/><path fill="#a20a02" fill-rule="evenodd" d="M500 397.1c-56.8 0-102.9 46.1-102.9 102.9S443.2 602.9 500 602.9 602.9 556.8 602.9 500 556.8 397.1 500 397.1m0 183.1V419.8c44.3 0 80.2 35.9 80.2 80.2s-35.9 80.2-80.2 80.2" clip-rule="evenodd"/><g fill="#fff"><path d="M461.9 698.1c-5.4 3.9-9.3 9.7-12.2 15.5l2.6-17.3-8.3 1.2-3 19.8c-5.9-1.4-14.2-4.3-19.8-6.4-10.4-4.1-3.3-10.1-3.5-18.4-.4-12.2-20-21.6-30.7-8.7-1.9 2.1-3.3 5.2-8 5-3.3-.2-13.3-8.2-16.1-10.3-2.4-1.9-6.1-3.9-3.5-8.4 1.3-2.7 6.8-7.8 9.4-10.1 1.1-1.2 2.2-1.9 3.3-3.1l13.5-13-1.5-.6c-.7-.2-1.3-.4-1.9-.6-1.1-.4-2.6-.8-3.7-1-1.9-.6-3.3 1-5.4 3.3l-19.6 18.3c-4.8 3.5-9.1 0-12.4-3.9-6.3-6.6-11.8-12.4-17.6-19.8-4.6-5.8-1.7-8.7 2.2-12 .7-.8 1.5-1.7 2.2-2.5.9-.8 1.7-1.4 2.6-2.1l3.7-3.5c.7-.8.7-.4.7-1.2-2.2 0-4.4-.2-6.7-.2-3.7 0-3.5-.6-5.7 1.4l-3.7 3.5c-1.1 1.4-2.2 2.1-3.3 3.7-5.9 8.4.6 15.1 4.6 20 5.7 6.8 14.1 16.9 20.5 22.3 3 2.3 6.1 3.9 10.9 3.5 0 5.2 1.1 7 4.1 9.3 2.6 1.9 5 3.9 7.8 5.8 2.6 1.9 5.2 3.7 8 5.4 4.3 2.9 4.3 3.1 10 2.5-.7 12.6 11.8 19.4 20.7 18.3 5.4-.8 6.7-3.1 8.7-4.3.9 1.6 1.1 2.7 2.2 4.3 3.7 4.9 29.8 11.3 35.2 12.4 14.6 3.3 33.3 6 48.9 5.6 1.5-8 3.7-15.9.9-24.3-5-15.8-24.3-17.8-36.1-9.4m-61.1 8.3c-2.8 1-6.1-.4-8-1.7-8-6.4.7-18.4 5.6-19.8 3-1 6.3.4 8.1 1.9 7.7 6.2-1 18.3-5.7 19.6m89.4 18.5c-12.6.4-25.9-3.1-37-4.7.6-7.8 13.1-18.4 21.8-19.4 18.7-1.9 17.6 20.2 15.2 24.1M484.3 685.7c5.4-1.6 3.5-9.9-2.2-8.5-6.3 1.5-3.5 10 2.2 8.5M648.1 622.3c4.8-1.7 2.4-10.3-3.5-8-5.1 2-2.3 10.2 3.5 8M615.1 656.5c-6.1-4.3-15.2-1.4-19.4 2.5-1.5 1.2-4.6 5.4-5 8.2-.2 1 3.5 7 4.4 8.2.7-4.5.9-8.2 5.7-11.5 4.6-2.9 9.3-2.3 12 1.7l9.6 15.7c.9 1.4 2.8 4.1 3.3 5.4l-17.6 10.7-.4 7.8c3.9-1.2 26.1-15.1 27.9-17.3-.6-1.6-13-21.2-14.8-24.3-2-3.6-2.5-4.9-5.7-7.1M680.8 638.1c-.9-7.4-7.8-10.9-13.1-15.5l-5.7-4.5-3 7.8c1.5 1 11.3 8.7 12.4 10.1 3.3 3.9 2.6 7.4-.6 10.9l-5.4 6c-5.2 5-6.8 8.5-11.1 4.3l-24.6-25.4c-.9-.8-1.1-1.4-2.2-1.7l-3.5 7.4c1.7 2.3 11.1 11.5 14.1 14.8l4.8 4.9 4.6 4.7c3.1 3.5 7.2 7 13.1 4.7 3.1-1.4 8-6.6 10.2-9.1 2.6-3.1 6.7-7 8.5-10.7 1.3-2.9 1.9-5.6 1.5-8.7M573.5 728c-5.7 1.4-3.5 9.9 2.2 8.4 5.2-1.4 3.3-9.8-2.2-8.4M558.1 692.5c-1.9-5.8-3.1-10.9 2.4-13.8 2.4-1.2 5.2-1.6 8-.6 2.4.8 5 3.1 6.1 3.3l.2-8c-3.1-2.1-8-3.3-12.6-2.5-4.4.8-7.8 2.7-10.5 5.6-6.1 6.6-1.7 16.9.7 24.7 2 0 16.3-4.7 20.2-5.4 1.3 5 4.1 9.5.7 14.2-4.4 6.4-19.4 10.7-25.5 3.1-1.5-1.7-2.4-3.5-3.5-5.8-.9-1.9-1.7-4.9-2.6-6.6l-6.8 4.3c.7 2.7 3 7.2 4.3 9.3 7 11.1 16.3 12.6 29.1 8.2 6.5-2.3 12.4-6.6 14.2-13 1.7-6-2.4-16.9-4.1-22.5z"/><path d="M562.2 731.3c-5.4 1.9-2.8 9.7 2.6 8.2 5.5-1.6 2.9-10.3-2.6-8.2"/><path fill-rule="evenodd" d="M509.3 490.1h15.4c-.7 1.6-2.6 3.7-3.9 5.6-3.3 5.4-7 14.6-6.8 21.4h7.4c.4-7 1.7-12.2 4.3-18.1 3.5-7.8 5.9-7.8 6.7-8.9v-6.6h-22.9v6.6zM546.6 511.3c.7-2.3 7.4-6.4 9.3-7.6 3-1.9 6.1-4.9 6.1-9.9 0-15.5-24.2-14.6-23.9 1.6v1.2h6.7c.7-14.8 17.4-5.2 6.7 3.1-4.1 3.3-10.2 5.8-12.8 11.3-.9 1.7-1.5 4.1-1.3 6.2h24.8v-5.8h-15.6zM456.9 492.8c-1.7 11.8 11.1 17.1 17.8 9.9 0 5.8-3.9 11.5-8.3 8.9-1.5-1-1.5-2.1-2.4-3.7h-6.5c-.2 2.1 1.3 5 2.4 6.2 4.6 5 13.9 4.5 18.1-1.4 5-6.8 5.2-20.2-.2-26.8-5-5.7-19.2-5.1-20.9 6.9m13.5 7.4c-7.2 2.1-9.1-10.1-2.4-11.8 6.5-1.6 8.7 10 2.4 11.8M430.3 489.7v5.6h8.5v21.6h7v-33.8h-5.7c-.6 4.9-4.8 6.6-9.8 6.6M346.6 630.9c-4.1-1.7 1.1-3.5-9.3-2.5.2.4 17.2 18.8 18.3 19.6.7-.4 3-2.5 3.5-3.3-.7-1.2-8.1-8.4-9.3-9.9.7-1.2 3.9-4.3 6.5-3.7 3 .4 4.1 2.9 4.1 6.2l5.2.2c0-5-2-8.9-6.8-10.7-2.6-.8-5-.6-7.4.4s-3.5 2.1-4.8 3.7M327 444.5l10.4-23.8s3.9-9.9-6.6-16.8l-29.4-13s-11.9-2.8-16.9 8.1-10.6 24.3-10.6 24.3l5.6.2zm-28.5-41 25.5 10.8c1.4.6 2.1 2.2 1.5 3.6l-4.4 10.2-30.6-13 4.4-10.2c.6-1.3 2.3-1.9 3.6-1.4M345.9 403.8 314.4 361l-5.5-2.3 14-17.2 3.1 4.8 48.7 22.1-7.8 9.8-8-3.9-10.5 13 5.3 6.7zm1.8-34.9-6.8 8.5-14.6-19zM357.9 308.5l26.9 14-1.9-30.4 10.7-6.9 1.4 5.5 28.1 43.3-9.2 6.3-18.1-27.4 2.1 27.8-1.8 1.1-24.5-13.2 17.8 27.9-9.6 6.2-28.4-43.6-4.1-3.7zM430.7 332.4l-1.2-53.2-3.2-5 21.3-6-.2 5.7 27.2 46-12 3.5-4.3-7.8-16 4.6.5 8.6zm21.5-27.6-10.5 3.1-1-23.9zM494.8 262h9.9c7.9 0 14.4 6.5 14.4 14.4v6.1h-11.7v-5.1c0-2-1.6-3.7-3.7-3.7h-7.2c-2 0-3.7 1.6-3.7 3.7v26.2c0 2 1.6 3.7 3.7 3.7h7.2c2 0 3.7-1.6 3.7-3.7v-5.1h11.7v6.1c0 7.9-6.5 14.4-14.4 14.4h-9.9c-7.9 0-14.4-6.5-14.4-14.4v-28.3c0-7.9 6.5-14.3 14.4-14.3M581.2 276.1l9.3 3.5c7.4 2.8 11.1 11.2 8.3 18.5l-2.2 5.7-10.9-4.2 1.8-4.7c.7-1.9-.2-4-2.1-4.7l-6.7-2.6c-1.9-.7-4 .2-4.7 2.1l-9.4 24.5c-.7 1.9.2 4 2.1 4.7l6.7 2.6c1.9.7 4-.2 4.7-2.1l1.8-4.7 10.9 4.2-2.2 5.7c-2.8 7.4-11.2 11.1-18.5 8.3l-9.3-3.5c-7.4-2.8-11.1-11.2-8.3-18.5l10.1-26.4c2.8-7.5 11.2-11.2 18.6-8.4M623.4 351.9l-17-11.6 26.5-37-11.7-8.5-1.6 5.5-29.2 40.9L622 364l7-10.1zM694.7 361.3l-27.8 23.8-4.6 3.9c-6 5.1-15.1 4.4-20.2-1.7l-3.6-4.3-2.8-3.3c-5.1-6-4.3-15.1 1.7-20.2l28.5-24.3 2.8-4.6 3 3.6 6.1 7.1-31.6 27c-1.5 1.3-2.3 3.1-.9 4.6l5.4 6.3c1.3 1.5 2.9 1.5 4.4.2l2.7-2.3 29.5-24.8zM707.4 381.1l10.6 23.1c8 18-13.5 24.8-20.1 17.5 0 0 2.6 11.9-10.1 16.2s-19.6-6.2-21-8.2-11-23.3-11-23.3l47.3-21.5zm-3.8 17-10.8 4.9 3.2 7.1c1.8 3.9 6.4 4.6 9.9 1.4 1.7-1.5 1.9-4.2.9-6.4zm-19.8 9.2-13 5.9 3.9 8.5c2.1 4.7 7.6 5.5 11.9 1.7 2-1.8 2.3-5 1.1-7.7z" clip-rule="evenodd"/></g></g></svg>