<svg xmlns="http://www.w3.org/2000/svg" width="515.11pt" height="405.82pt" viewBox="0 0 515.11 405.82"><defs><clipPath id="a"><path d="M52 0h407v405.82H52Zm0 0"/></clipPath><clipPath id="b"><path d="M0 146h515.11v124H0Zm0 0"/></clipPath></defs><g clip-path="url(#a)"><path d="M255.586 0c112.066 0 202.906 90.844 202.906 202.91 0 112.067-90.84 202.91-202.906 202.91-112.07 0-202.91-90.843-202.91-202.91C52.676 90.844 143.516 0 255.586 0" style="stroke:none;fill-rule:evenodd;fill:#010066;fill-opacity:1"/></g><path d="M256.629 92.336c60.926 0 110.316 49.39 110.316 110.309 0 60.925-49.39 110.312-110.316 110.312-60.918 0-110.305-49.387-110.305-110.312 0-60.918 49.387-110.31 110.305-110.31" style="stroke:none;fill-rule:evenodd;fill:#9acefd;fill-opacity:1"/><path d="m317.691 78.39 9.051 5.676 5.73-6.66 7.008 4.395-3.44 8.086 8.98 5.613 15.726-43.605-10.629-6.688Zm20.012-7.359 5.156 3.278 7.93-18.414Zm-55.707-3.562 12.012-43.645 10.656 2.899 1.05 29.355c.891-4.683 1.696-8.664 2.442-12.02.77-3.32 1.461-6.124 2.09-8.367l1.883-6.879 9.101 2.477-11.992 43.73-10.699-2.996-.855-30.105c-.614 3.773-1.293 7.3-2.047 10.754a184.034 184.034 0 0 1-2.442 9.953l-2.043 7.371Zm-41.383-.735 9-45.48 12.563-.3 10.683 45.116-10.593.215-1.489-8.625-8.324.153-1.137 8.68Zm12.754-17.164 6.074-.066-3.41-19.75ZM205.191 76.97l11.145-3.563c4.105-1.27 6.96-2.633 8.738-3.918 1.762-1.332 2.91-3.02 3.492-5.11.512-1.6.618-3.519.29-5.78-.29-2.164-1.34-6.153-3.168-11.926-1.868-5.738-3.262-9.645-4.31-11.578-1.038-1.992-2.19-3.512-3.526-4.547-1.692-1.313-3.649-2.063-5.817-2.106-2.226-.113-5.34.5-9.379 1.805l-11.172 3.527Zm-.98-38.356 8.66 27.215c.207-.02.414-.07.606-.101.156-.055.492-.157.855-.27 1.05-.328 1.957-.809 2.527-1.32.684-.551 1.078-1.184 1.336-1.957.2-.66.145-1.758-.172-3.29-.378-1.535-1.18-4.511-2.64-8.878l-.559-1.934c-1.191-3.605-2.004-5.996-2.547-7.254-.515-1.183-1.043-1.969-1.527-2.347a3.717 3.717 0 0 0-2.172-.801c-.875-.07-1.883.086-3.027.445-.371.113-.684.227-.836.27-.219.086-.375.136-.504.222m-34.074 60.168L152.87 55.77l10.414-7.06 33.563 31.966-8.86 5.972-5.918-6.48-6.93 4.73 3.825 7.903Zm1.32-21.27 5.098-3.402-13.649-14.648M221.785 329.281l1.778-7.926 8.3 1.758 2.047.39-1.82 8.04Zm185.031-22.992-38.378-24.059 6.332-10.085c2.062-3.32 3.703-5.641 4.976-6.98 1.254-1.302 2.547-2.142 3.852-2.626a9.474 9.474 0 0 1 4.84-.34c1.68.258 3.406.95 5.222 2.11 2.258 1.355 3.813 2.875 4.871 4.601.969 1.758 1.426 3.719 1.39 5.945 2.942-1.984 6.81-1.648 11.52 1.094.036.043.07.09.07.09.536.266 1.259.695 2.141 1.242 4.364 2.64 7.551 3.606 9.48 2.938l-6.538 10.531a18.02 18.02 0 0 1-2.856-1.082c-.968-.43-1.89-.941-2.883-1.594-.613-.398-1.406-.82-2.246-1.433-.867-.586-1.379-.957-1.671-1.13-2.32-1.476-4.141-2.14-5.348-2.09-1.25.087-2.399.923-3.39 2.477l-1.141 1.864 15.34 9.625Zm-16.851-22.988c.086-.125.2-.301.422-.528.175-.222.297-.359.297-.5 1.21-1.863 1.656-3.421 1.386-4.699-.277-1.203-1.285-2.347-3.05-3.515-1.641-.993-3.06-1.387-4.239-.993-1.183.297-2.332 1.41-3.511 3.254-.086.14-.157.328-.286.547-.14.274-.27.465-.328.637Zm-33.067 42.258c-3.71-4.008-6.332-7.036-7.687-9.125-1.422-2.141-2.32-3.97-2.649-5.625-.378-2.329-.207-4.606.672-6.747.868-2.125 2.461-4.246 4.567-6.21 2.156-2.036 4.332-3.454 6.488-4.125 2.219-.668 4.48-.72 6.738-.184 1.692.422 3.555 1.434 5.54 2.945 1.96 1.575 4.835 4.407 8.562 8.344 3.613 3.95 6.23 6.969 7.652 9.074 1.422 2.176 2.305 4.067 2.59 5.758.395 2.285.18 4.543-.71 6.66-.825 2.172-2.349 4.238-4.47 6.281-2.113 1.95-4.332 3.356-6.53 4.055-2.208.727-4.477.75-6.782.227-1.606-.418-3.434-1.426-5.387-2.946-2.039-1.601-4.847-4.363-8.594-8.382m17.051-10.286-5.554-6.043c-3.403-3.675-5.754-5.695-7.032-6.125-1.324-.464-2.527-.113-3.781 1.012-1.156 1.11-1.57 2.344-1.21 3.621.355 1.356 2.237 3.84 5.648 7.446l5.52 5.996c3.339 3.601 5.687 5.593 7.022 6.117 1.305.469 2.583.121 3.766-.973 1.2-1.078 1.617-2.375 1.309-3.691-.367-1.278-2.285-3.781-5.688-7.36m-41.363 50.758 9.379-5.031-8.192-15.332 3.274-1.75c4.14-2.16 6.723-4.926 7.758-8.164.957-3.234.394-6.844-1.758-10.914-1.3-2.41-2.817-4.367-4.508-5.703-1.797-1.407-3.598-2.106-5.562-2.2-1.47-.156-3.067.094-4.88.68-1.726.594-4.312 1.742-7.722 3.563l-9.172 4.918Zm-2.832-27.765c.191-.063.348-.086.57-.23.172-.052.461-.208.742-.317 1.872-1.004 2.985-2.153 3.297-3.516.395-1.355.114-2.894-.941-4.879-.879-1.629-1.914-2.55-3.235-2.758-1.25-.293-2.89.172-4.98 1.286l-.777.464Zm-44.832 26.222 9.394-2.34.356 1.278c.57 2.453 1.265 4.039 2.062 4.875.817.914 1.961 1.164 3.278.793 1.082-.274 1.84-.817 2.347-1.766.414-.855.442-1.95.13-3.289-.524-2.148-2.59-3.805-6.083-5.027-.62-.203-1.008-.371-1.37-.426-.052-.016-.278-.152-.587-.215-4.789-1.758-7.86-3.226-9.265-4.39a12.409 12.409 0 0 1-2.508-3.196c-.75-1.223-1.25-2.605-1.645-4.238-.953-3.82-.57-7.09 1.121-9.832 1.692-2.774 4.438-4.602 8.344-5.613 4.262-1.024 7.758-.766 10.543.875 2.746 1.554 4.66 4.441 5.652 8.507.102.18.153.422.153.735.039.324.105.539.176.68l-9.223 2.292-.184-.539c-.472-1.976-1.136-3.324-2.02-4.152-.75-.84-1.827-1.148-2.878-.855-1.012.222-1.719.77-2.106 1.597-.418.887-.484 1.899-.199 3.008.414 1.832 2.606 3.387 6.438 4.691.703.239 1.277.454 1.644.567.356.066.774.258 1.32.457 4.153 1.39 6.981 2.77 8.344 4.047a12.68 12.68 0 0 1 2.281 3.09c.665 1.187 1.13 2.57 1.5 4.046 1.114 4.446.829 8.059-.921 11-1.676 2.97-4.618 5.016-8.864 6.04-4.511 1.078-8.093.734-10.93-.981-2.718-1.695-4.722-4.746-5.843-9.266-.027-.296-.195-.62-.223-.925-.02-.329-.148-.84-.234-1.528M241.71 381.45l.285-45.316 11.914.043c3.903.043 6.73.242 8.473.66 1.812.351 3.18.953 4.281 1.894 1.277 1.055 2.29 2.348 2.91 3.91.63 1.551.942 3.4.942 5.54-.055 2.605-.532 4.789-1.395 6.523-.965 1.758-2.41 3.184-4.348 4.348 3.274 1.469 4.989 4.918 5.118 10.37v.13c.043.625.043 1.426.043 2.504.05 5.074.851 8.285 2.511 9.62l-12.39-.085c-.285-.992-.465-2.004-.614-3.012-.086-1.008-.207-2.133-.12-3.297-.087-.77.034-1.636.085-2.629.035-1.011.035-1.71.035-2.047 0-2.71-.328-4.656-1.062-5.668-.68-.968-2.043-1.511-3.93-1.562h-2.152l-.094 18.172Zm10.7-26.394c.128.039.355.039.648.09.293-.051.492 0 .617 0 2.203 0 3.738-.442 4.703-1.32.855-.856 1.39-2.391 1.39-4.466 0-1.914-.449-3.32-1.347-4.105-.965-.852-2.473-1.219-4.633-1.27h-.684c-.257.051-.464.051-.68.051Zm-41.083 20.902 9.863-44.258 10.32 2.399-9.85 44.136Zm-56.195-23.531 9.008 4.496 14.918-31.64-9.414 34.519 7.257 3.625 22.207-27.965-16.64 30.797 8.93 4.547 20.5-40.47-13.157-6.628-12.18 15.25c-.195.207-1.046 1.371-2.515 3.578-1.52 2.082-2.813 3.817-3.805 5.293.766-2.203 1.516-4.402 2.328-6.66.785-2.211 1.192-3.379 1.192-3.45l5.117-19.003-13.274-6.672Zm-33.48-28.922 30.906-33.152 18.043 16.824-6.024 6.472-10.3-9.644-5.739 6.027 9.535 8.992-6.215 6.551-9.464-8.836-6.79 7.211 10.305 9.613-6.265 6.766Zm-28.266-38.828 38.11-24.524 6.35 9.801c2.262 3.617 3.641 6.453 4.196 8.586.414 2.106.3 4.168-.555 6.152-.664 1.579-1.777 3.114-3.453 4.633-1.637 1.492-5.027 3.91-10.074 7.121-5.102 3.32-8.68 5.356-10.703 6.239-2.102.878-3.973 1.277-5.598 1.257-2.2-.05-4.152-.75-5.867-2.07-1.688-1.363-3.777-3.808-6.082-7.379Zm36.789-11.012L106.09 289.13c.082.195.21.371.3.539.087.227.282.441.465.734.653.993 1.286 1.664 1.954 2.192.652.465 1.406.71 2.242.75.68 0 1.758-.336 3.113-1.074 1.426-.704 4.02-2.356 7.887-4.793l1.73-1.137c3.153-2.047 5.274-3.477 6.313-4.305 1.094-.836 1.707-1.52 1.86-2.074a3.63 3.63 0 0 0 .226-2.344c-.114-.855-.563-1.754-1.258-2.832-.176-.258-.348-.5-.434-.68-.12-.199-.222-.308-.312-.44" style="stroke:none;fill-rule:evenodd;fill:#fff;fill-opacity:1"/><g clip-path="url(#b)"><path d="m252.727 171.512 18.355 11.734 3.332 2.121v14.875l25.16-49.777 2.016-3.992 4.465.015 194.011.621 15.047.047-9.398 11.739-7.73 9.656-2.184 2.719h-3.465l-22.215-.016-18.652 26.16h-3.84l-72.711-.113-.563 1.183-1.543 3.22-1.574 3.226-1.965 4.11h-2.875l-.238.495-5.281 10.727-1.992 4.054h-4.508l-79.965-.086v27.922l-3.816 2.047-17.82 9.516-10.587 5.668-.086-12-.222-33.153h-.836l-80.317.086h-4.503l-8.672-15.265-1.715-.012-2.004-4.11-1.535-3.226-1.547-3.219-.559-1.183-72.715.113-6.039-.023-18.629-26.157-20.035.036H19.31l-2.184-2.72-7.73-9.655L0 147.156l15.047-.047 194.012-.62 4.46-.016 2.02 3.992 26.188 51.797-.172-24.598-.086-13.355" style="stroke:none;fill-rule:evenodd;fill:#010066;fill-opacity:1"/></g><path d="m309.148 195.344-3.293 6.418h58.872l1.539-3.211 1.55-3.207Zm11.832-25.371-3.289 6.414h141.63l3.288-6.414Zm179.06-15.618-7.704 9.641-176.402-.144-8.286 17.003 145.875.614-5.875 8.68-143.46-.208-8.93 16.36 64.36.035-5.24 10.734-80.312-.09 31.961-63.238Zm-294.075 40.989h-58.668l1.555 3.207 1.535 3.21h58.87Zm-11.832-25.371-143.492-.11 4.125 6.524h142.652ZM15.074 154.355l194.012-.613 31.96 63.238-80.316.09-5.238-10.734 64.36-.035-8.926-16.36-146.395.055-6.965-9.14h149.899l-8.285-17.004-176.403.144Zm233.754 23.266 18.348 11.734v58.45l-17.805 9.515Zm0 0" style="stroke:none;fill-rule:evenodd;fill:#fff;fill-opacity:1"/><path d="M230.656 274.941v22.684h-5.953v-14.867c-.965.765-1.89 1.39-2.789 1.847-.894.5-2.023.957-3.379 1.38v-5.075c1.992-.691 3.563-1.488 4.656-2.469 1.114-.937 1.97-2.101 2.618-3.5M248.145 282.672c0-1.215-.29-2.156-.86-2.863-.597-.684-1.293-1.008-2.133-1.008-.77 0-1.406.308-1.93.922-.503.62-.761 1.558-.761 2.793 0 1.238.258 2.191.785 2.859.555.652 1.2.992 2.02.992.836 0 1.511-.34 2.043-.976.546-.633.836-1.536.836-2.72m-10.836 9.95 5.851-.793c.156.887.414 1.477.785 1.828.38.38.809.551 1.32.551.965 0 1.692-.508 2.22-1.523.386-.72.68-2.297.878-4.696-.703.758-1.43 1.32-2.175 1.664-.731.356-1.602.528-2.563.528-1.898 0-3.504-.7-4.797-2.106-1.312-1.433-1.976-3.226-1.976-5.402 0-1.477.355-2.836 1.007-4.047.668-1.207 1.59-2.129 2.758-2.762 1.16-.62 2.63-.922 4.383-.922 2.11 0 3.828.372 5.078 1.141 1.293.766 2.332 2 3.07 3.64.762 1.665 1.145 3.876 1.145 6.618 0 4.012-.785 6.988-2.383 8.855-1.605 1.864-3.847 2.813-6.715 2.813-1.664 0-3.004-.207-3.968-.64a6.107 6.107 0 0 1-2.426-1.778c-.653-.785-1.137-1.777-1.492-2.969M267.477 288.645v-7.008l-5.672 7.008Zm0 4.812h-10.7v-5.105l10.7-13.41h5.14v13.703h2.653v4.812h-2.653v4.168h-5.14M283.79 286.383c0 2.855.245 4.789.733 5.824.457 1.055 1.168 1.555 2.067 1.555.61 0 1.117-.219 1.55-.657.45-.44.778-1.14.973-2.09.227-.964.313-2.44.313-4.46 0-2.957-.242-4.961-.707-5.973-.485-1.016-1.184-1.523-2.156-1.523-.961 0-1.676.507-2.11 1.543-.418 1.062-.664 2.976-.664 5.78m-5.812 0c0-4.245.734-7.237 2.171-8.894 1.45-1.71 3.641-2.547 6.622-2.547 1.421 0 2.59.172 3.511.543a6.428 6.428 0 0 1 2.215 1.434c.59.61 1.055 1.23 1.375 1.879.336.656.602 1.406.8 2.297.4 1.664.614 3.406.614 5.203 0 4.055-.664 7.008-1.976 8.898-1.301 1.86-3.512 2.813-6.696 2.813-1.789 0-3.218-.313-4.332-.91-1.078-.61-1.976-1.465-2.68-2.606-.527-.836-.925-1.96-1.187-3.39-.3-1.45-.437-3.012-.437-4.72" style="stroke:none;fill-rule:evenodd;fill:#010066;fill-opacity:1"/></svg>