<svg xmlns="http://www.w3.org/2000/svg" xml:space="preserve" width="252.02792" height="251.99998" viewBox="0 0 252.02792 251.99999"><defs><clipPath id="a" clipPathUnits="userSpaceOnUse"><path d="M0 0h14667.6v14666H0Z"/></clipPath></defs><g clip-path="url(#a)" transform="matrix(.01705 0 0 -.01705 1 251)"><path d="M7859.66 261.762c623.62 49.508 1187.88 168.324 1732.29 356.394 900.85 306.828 1742.15 791.884 2454.95 1425.404 267.3 247.48 603.8 593.97 831.5 880.99 1049.2 1316.55 1583.8 2949.88 1524.4 4642.56-39.6 1029.46-277.2 1989.67-732.6 2910.29-346.4 702.8-791.8 1316.5-1346.1 1870.8-871.1 871.1-1920.5 1484.9-3108.29 1821.4-1098.77 297-2336.16 326.7-3464.58 69.3-1425.44-326.6-2692.5-1069.1-3682.38-2148-574.13-623.7-1019.58-1356.2-1346.237-2157.97-217.773-554.34-376.152-1187.83-445.445-1781.8-39.598-306.83-39.598-435.55-39.598-811.69 0-366.24 9.903-514.76 39.598-791.89 207.875-1861 1138.362-3563.59 2603.382-4741.57C3979.32 915.082 5355.26 370.676 6750.99 271.664c99.01-9.902 207.87-19.805 247.47-19.805 118.77-9.843 742.38 0 861.2 9.903zM6929.16 4.437c-287.03 9.903-494.9 29.649-712.68 59.352-237.57 39.609-405.9 69.313-514.75 99.016-69.3 19.804-158.39 39.605-197.99 49.508-188.08 39.546-534.54 158.363-821.6 257.32-59.39 19.805-247.47 99.015-366.26 158.426-158.38 69.25-514.74 247.476-613.72 316.726-19.8 9.903-59.39 39.606-89.09 49.508-19.8 9.907-69.29 39.607-108.89 59.407-29.7 19.81-59.39 39.61-69.29 39.61 0 0-49.5 29.65-108.89 69.25-207.87 148.52-267.27 178.17-287.06 197.97-9.9 9.9-39.6 29.7-49.5 39.61-19.8 9.9-128.68 99.01-247.47 188.07-346.46 277.18-732.51 653.32-1049.27 1019.61-89.09 108.86-257.37 316.73-296.97 376.14-9.89 9.9-29.69 39.61-39.59 59.41-79.19 118.76-267.27 395.94-267.27 395.94s-19.8 29.71-39.6 69.32c-19.79 29.64-49.489 79.15-59.387 108.85-9.903 19.81-39.594 69.31-49.496 89.11-69.293 108.86-247.465 465.26-326.66 643.43-118.786 267.22-128.684 287.02-227.672 574.11-89.09 267.28-138.582 435.54-207.875 722.62-19.797 69.26-29.696 138.57-39.594 158.37-9.898 19.81-19.801 89.11-29.699 168.27-9.899 79.21-29.696 158.36-29.696 188.07C19.797 6488.14 0 6775.23 0 7329.54c0 564.21 19.797 821.59 79.191 1187.88 9.899 49.45 19.797 108.86 19.797 138.56 79.192 465.25 227.676 960.18 435.547 1474.92 98.988 247.5 257.371 574.1 277.168 593.9 9.899 0 9.899 9.9 9.899 19.8 0 29.7 188.078 356.4 346.458 584.1 49.49 69.3 89.09 128.6 89.09 138.5 29.7 39.6 158.38 227.7 178.18 237.6 9.9 9.9 9.9 9.9 9.9 19.8s108.89 148.5 247.47 316.8c49.49 49.5 98.99 108.9 108.89 128.7 128.68 158.3 485.04 514.7 633.52 643.4 29.69 19.8 59.39 49.5 69.29 69.3 9.9 9.9 69.29 59.4 118.79 99 49.49 39.6 108.88 89.1 128.68 108.8 19.8 19.9 39.59 29.7 39.59 29.7s29.7 19.8 59.4 49.5c29.69 19.8 59.39 49.5 59.39 49.5s39.6 19.8 69.3 49.5c108.88 79.2 237.57 168.3 346.45 237.6 59.39 39.6 118.79 79.2 138.59 89.1 69.29 39.6 247.46 148.5 257.36 148.5l19.8 9.9c29.7 19.8 386.06 207.8 554.34 277.1 316.75 138.6 683.02 277.2 970.08 356.4 59.39 19.8 118.78 29.7 128.69 39.6 19.79 9.9 108.88 29.7 326.67 79.2 59.41 9.9 148.46 29.7 277.18 59.4 39.55 9.9 98.96 19.8 118.76 19.8 326.63 69.3 1098.77 99 1732.29 69.3 267.28-9.9 425.65-29.7 593.91-59.4 69.31-19.8 188.07-39.6 257.38-49.5 197.97-29.7 514.76-108.9 653.33-158.4 19.8-9.9 59.4-19.8 79.21-19.8 59.35-19.8 316.73-99 435.54-148.5 247.47-89.1 554.27-227.7 772.07-336.5 207.9-108.9 287.1-148.5 445.5-247.5 39.6-19.8 89.1-49.5 108.9-59.4 19.8-9.9 89-59.4 158.3-99 69.4-39.6 128.7-79.2 138.6-89.1 19.8-9.9 39.6-29.7 237.6-168.3 455.3-336.5 890.9-752.3 1237.4-1158.1 138.5-168.3 247.4-306.9 306.8-396 29.7-49.5 69.3-99 89.1-128.7 19.8-29.7 39.6-49.5 39.6-59.4 9.9-9.9 49.5-69.2 89.1-138.5 39.6-69.3 89.1-138.6 99-158.4 9.9-19.8 39.5-69.3 59.3-108.9 59.5-99 69.4-118.8 118.9-207.9 49.5-89.1 227.6-435.5 247.4-494.9 9.9-19.8 29.7-69.3 49.5-108.9 99-227.7 237.6-584.04 326.7-900.8 9.9-29.7 19.8-89.09 39.6-118.79 9.9-39.59 29.7-118.78 49.5-188.07 19.7-69.3 29.6-148.48 39.6-178.18 9.8-49.51 19.7-99.02 69.2-376.14 39.7-227.68 49.6-366.3 69.4-653.32 9.9-247.48 9.9-861.2 0-1108.67-9.9-197.98-39.6-504.86-69.4-623.62 0-19.81-19.8-79.21-19.8-118.82-39.6-197.97-49.4-247.48-79.1-386.04-19.8-89.11-39.6-178.17-49.5-197.97-9.9-19.8-29.7-89.11-39.6-148.52-79.2-296.93-198-623.62-336.6-930.45-79.2-168.26-267.2-554.36-296.9-584.07-9.9-9.84-9.9-19.8-19.8-29.64-9.9-19.81-49.6-89.12-168.3-287.09-29.7-49.5-188.1-277.18-237.6-346.49-19.8-39.55-59.4-79.15-69.3-89.06-9.9-19.8-49.5-59.4-79.2-99.01-29.7-39.6-59.4-79.15-69.3-89.06-9.9-9.9-29.7-39.6-39.6-59.4-19.8-19.81-69.3-79.21-108.8-128.66-39.6-49.51-89.1-99.02-89.1-108.92-9.9-9.9-29.7-29.7-39.6-49.51-99-128.66-554.4-584.01-673.2-673.12-19.8-9.9-79.1-59.35-128.6-108.86s-118.8-99.02-148.6-118.82c-128.6-98.95-148.4-118.76-158.3-118.76 0 0-9.9-9.9-19.8-9.9-9.9-9.9-198-148.46-237.6-178.17-9.9-9.9-69.2-49.5-128.7-89.11-59.4-39.6-128.6-89.05-148.4-98.95-19.8-9.91-79.2-49.51-148.5-89.118-356.4-207.875-762.2-405.844-1118.61-534.504-49.46-19.804-98.96-39.605-108.86-39.605-29.71-9.903-336.59-108.918-465.26-148.524-108.85-29.648-336.53-89.054-415.74-108.855-19.8 0-79.21-19.805-128.66-29.707-49.51-9.899-118.82-19.8-148.52-29.703-29.71-9.903-89.06-19.805-138.56-19.805-138.63-19.8-336.59-49.45-445.45-59.352-237.58 0-801.79-9.898-1158.18 0" style="fill:#eb232c;fill-opacity:1;fill-rule:nonzero;stroke:none"/><path d="M7592.38 2409.85c1009.71 59.35 1969.87 415.75 2751.92 1029.46 494.9 386.05 890.9 831.49 1207.6 1356.15 376.2 623.62 593.9 1286.84 673.1 2029.22 19.8 178.17 29.7 643.42 9.9 841.39-59.4 1059.22-465.2 2039.18-1148.2 2860.83-128.7 148.4-415.8 435.5-564.2 564.2-811.79 683-1801.64 1088.9-2860.81 1158.2-197.97 9.8-653.32 9.8-841.39-9.9-742.44-79.2-1405.65-306.9-2029.28-673.2-801.8-475.1-1455.12-1177.9-1870.86-2019.33-613.74-1227.42-692.93-2662.78-197.99-3949.62 197.99-514.76 465.25-980.01 841.4-1425.4 128.69-148.53 445.45-465.26 593.93-593.97 445.45-366.24 910.7-643.42 1425.43-841.4 485.03-188.07 960.19-287.08 1534.3-316.73 99.01-19.8 336.59-19.8 475.15-9.9zm-514.7-178.22c-1425.46 79.21-2712.3 712.73-3632.89 1781.79-623.63 722.63-1029.48 1623.44-1168.06 2544.04-39.59 287.02-49.5 445.39-49.5 762.18 0 346.43 19.8 574.11 69.3 890.9 118.78 673.12 376.15 1326.44 762.2 1910.46 336.57 514.7 811.71 1009.7 1316.54 1366 732.52 514.8 1524.43 811.7 2435.13 920.6 178.17 19.8 653.32 29.7 861.19 9.9 1088.87-79.2 2098.53-485 2939.91-1187.8 158.4-128.7 445.5-415.8 584.1-574.2 485-564.2 841.4-1217.51 1049.2-1930.21 138.6-485.05 198-950.3 188.1-1504.61-9.9-544.47-89.1-1009.72-257.4-1504.67-257.3-772.08-673.1-1435.31-1247.2-2009.42-395.9-396-821.6-702.82-1316.55-950.3-574.11-287.09-1158.18-455.35-1821.4-514.76-148.46-9.9-574.11-19.8-712.67-9.9" style="fill:#eb232c;fill-opacity:1;fill-rule:nonzero;stroke:none"/><path d="M8087.34 2914.65c19.8 19.81 19.8 29.71 19.8 69.31-9.9 59.41-19.8 79.22-79.21 69.31h-39.61v-39.6c-9.9-89.12 49.51-148.47 99.02-99.02zm-118.82-118.76c-49.45 19.81-108.86 79.16-128.66 138.57-19.81 59.4-19.81 178.17 0 247.47 19.8 69.31 89.11 148.47 158.36 168.27 59.41 19.8 178.23 29.71 207.87 9.9 19.81-9.9 19.81-19.8 9.91-69.25-9.91-39.61-9.91-49.51-19.8-49.51-39.56 9.9-98.96 9.9-128.67 0-39.6-9.9-69.31-49.5-69.31-69.31 0-9.9 0-9.9 39.61 0 19.8 9.9 39.6 9.9 59.41 9.9 69.31 0 148.46-49.5 168.26-108.86 19.81-39.6 19.81-138.61 0-178.22-59.41-89.06-188.07-138.56-296.98-98.96M7552.77 2924.55c19.81 9.91 19.81 29.71 19.81 69.31 0 69.32-19.81 89.06-79.16 89.06-39.6 0-39.6 0-39.6-39.55 0-49.51 9.9-99.01 29.7-118.82 19.8-29.7 39.55-29.7 69.25 0zm-118.75-118.76c-49.51 19.81-99.02 79.16-118.82 138.57-19.75 69.31-19.75 188.07 0 267.28 19.8 79.21 59.41 118.76 128.71 148.46 49.51 19.81 59.41 29.7 138.57 29.7 49.5 0 89.11 0 99.01-9.89 9.9-9.91 9.9-29.71 0-59.41-9.9-49.45-9.9-49.45-29.7-49.45h-79.21c-59.35 0-98.96-19.81-118.76-69.31-9.91-29.71-9.91-29.71 0-19.81 98.95 39.61 188.07 19.81 237.57-59.4 19.81-39.61 29.71-49.46 29.71-108.86 0-69.31 0-79.21-29.71-108.92-39.6-59.35-89.11-89.05-168.32-89.05-29.65-19.81-69.25-19.81-89.05-9.91M7047.97 3122.53v69.31c-9.9 79.21-49.51 118.75-99.01 79.21-39.6-29.71-39.6-128.72 0-148.52 29.7-9.9 99.01-9.9 99.01 0zM6830.2 2815.7c-19.8 9.9-19.8 9.9-19.8 59.35 9.9 69.31 9.9 69.31 39.6 59.41 39.55-19.81 108.86-9.91 138.57 9.9 29.7 19.8 59.4 69.31 49.5 79.21 0 0-19.8 0-49.5-9.9-118.82-39.61-237.58 49.51-237.58 178.17 0 89.11 69.31 178.16 138.56 197.96 118.82 29.71 227.68-9.89 277.18-118.75 29.71-69.31 29.71-217.78 0-296.99-29.7-69.31-89.05-138.56-158.36-158.36-29.71-9.91-148.47-19.81-178.17 0M6553.02 2815.7l-49.51 9.9v395.94h-118.76v98.96l49.51 9.9c49.45 9.9 59.35 9.9 79.15 49.51 9.9 19.8 19.8 19.8 69.31 19.8h59.41V2825.6h-19.8c-9.9-9.9-39.61-9.9-69.31-9.9M8592.2 2974.06s-9.91 722.63-9.91 1593.73c0 1346.25 0 1583.76 9.91 1593.67h395.94l386.04-9.91V5171.6c0-534.56 0-980.01 9.9-980.01s49.51 29.71 98.96 59.41c504.85 346.43 900.76 811.69 1177.96 1356.15 188.1 366.24 306.9 762.18 366.3 1158.18 9.9 59.35 9.9 108.86 9.9 118.76 0 0-554.4 9.9-1217.57 19.8-673.13 9.9-1217.54 19.81-1227.43 29.7 0 0-9.91 1069.07-9.91 2375.71v2365.8h29.65c19.8 0 89.11-19.8 158.42-49.5 633.52-227.6 1187.83-574.1 1662.94-1039.3 465.3-445.5 831.5-980.03 1069.1-1573.96 89.1-207.89 207.9-564.23 188.1-574.13h-405.9c-326.6 9.9-405.8 9.9-415.7 19.8-9.9 9.9-29.7 49.51-39.6 98.96-128.7 366.3-356.4 772.13-623.6 1108.69-148.5 178.18-326.66 366.24-514.74 524.64-79.21 59.4-306.88 237.6-316.78 237.6 0 0-9.91-613.76-9.91-1356.17V7715.58h128.67c69.31 0 623.66-9.9 1227.46-19.81 752.3-9.89 1098.8-19.8 1108.7-29.7 9.9-9.84 9.9-692.87 0-831.49-89.1-772.08-326.7-1435.3-742.4-2058.92-504.8-742.43-1227.47-1326.45-2049.06-1653.13-198.03-89.06-435.55-158.37-445.44-148.47M5266.17 9131.13c0 742.41 0 1356.17-9.9 1356.17 0 0-49.5-29.7-98.98-69.3-643.43-455.37-1118.57-1088.9-1375.94-1831.32-69.3-207.88-128.69-445.46-158.39-643.43-9.89-59.41-19.79-118.76-19.79-128.66v-19.8l564.23-9.9c316.77 0 683.02-9.9 831.5-9.9h257.37v1356.14zm613.72-6067.95c-188.07 69.25-316.76 118.75-485.03 207.87l-128.69 69.25v3642.8h-98.99c-128.68 0-1128.46 19.75-1366.04 19.75h-188.07l9.89-89.06c59.4-465.25 217.78-930.5 445.45-1346.25 79.2-148.46 247.47-395.94 356.36-534.5l79.19-99.01v-534.57c0-306.82 0-534.5-9.9-544.4-19.79-19.81-455.34 405.84-623.62 603.81-821.61 989.92-1197.76 2227.25-1049.28 3484.38 168.28 1455.14 1039.38 2722.15 2346.02 3425.05 118.79 59.3 306.86 148.4 455.35 207.8 168.25 69.3 415.73 148.5 425.63 138.6 0 0 9.9-1959.95 9.9-4345.56 0-3850.67 0-4345.57-19.8-4345.57 0-9.9-79.15 9.9-158.37 39.61M7899.27 10160.6v376.2H6750.99v-752.36h1148.28zm247.48-593.93v79.19H6503.51v-158.38h1643.24zm-138.62-435.54c9.9 29.69 19.8 59.39 19.8 59.39 0 9.9-138.57 9.9-692.93 9.9h-702.77l19.8-59.4 19.75-59.39h1316.54zm-29.71-287.08v118.82H6671.78v-237.58h1306.64ZM7641.89 8359c69.31 19.8 207.87 19.8 277.18 0l49.45-9.9v257.38H6671.78V8368.9l59.41 9.9c79.21 19.81 197.97 9.9 287.08-19.8l69.31-19.8 49.45 19.8c99.01 39.61 287.08 29.7 376.2-9.9 19.74-9.9 39.54-9.9 49.45-9.9 19.8 0 49.5 9.9 79.21 19.8zm-643.43-4395.08 29.71 9.9v4266.42l-59.41 9.9c-69.31 19.8-188.07 19.8-247.47 0-39.61-9.9-49.51-19.8-49.51-39.6 0-9.91-9.9-356.34-19.75-762.18-9.9-405.91-39.6-1128.48-49.51-1613.54-9.89-485.05-29.7-1088.86-39.6-1346.24-9.9-257.38-9.9-475.16-9.9-485.06 9.9-19.8 49.5-39.6 118.76-59.35 49.51 0 267.28 0 326.68 19.75zm475.16-9.9 29.7 9.9v4266.42l-59.41 19.8c-69.3 19.8-197.96 19.8-257.37 0l-39.61-9.9V3963.92l49.51-19.75c69.31-9.9 227.67-9.9 277.18 9.85zm564.21 0c29.7 9.9 59.41 19.8 59.41 29.7 9.9 9.9 9.9 158.42-9.9 722.63-9.91 395.94-29.71 1029.46-49.51 1425.4-9.9 386.1-29.7 999.82-39.61 1356.15-9.9 356.4-19.8 663.23-19.8 692.93v49.51l-59.35 9.9c-59.41 19.8-197.97 19.8-257.38 0l-39.61-9.9V6102.11c0-2108.49 0-2128.29 19.81-2138.19 69.31-39.55 306.88-49.46 395.94-9.9zm-1623.38-336.54c0 9.9 9.91 435.55 19.81 940.41 29.65 871.09 39.55 1316.54 98.95 3058.73 9.91 395.94 19.81 881 19.81 1069.07v346.44l-39.61 118.79c-29.7 98.99-39.6 138.59-89.05 197.97l-49.51 79.2v158.37c0 207.89 0 197.98 148.46 197.98h99.02v851.26l79.15 158.4c49.51 89.1 188.07 356.4 316.79 603.9 128.66 247.4 237.58 455.3 247.48 455.3 9.9 9.9 19.8 19.8 29.7 19.8 39.55 9.9 29.65 39.6 584.01-1049.3l108.86-207.9v-425.6c0-376.16 0-425.65 9.9-425.65 9.91 0 59.41-9.9 108.92-9.9 89.06 0 89.06 0 108.86-19.8 19.8-19.79 19.8-19.79 19.8-178.17v-158.39l-19.8-79.18c-49.45-69.3-59.36-99-89.06-197.98l-29.7-108.89v-395.96c0-366.24 9.9-871.1 89.05-3187.4 49.51-1672.94 59.41-1811.5 49.51-1821.4-9.9-9.9-197.97-9.9-910.7-9.9-811.69 0-900.74 0-910.65 19.8M13135.7 9467.68c59.4 29.7 69.4 69.3 69.4 148.48 0 49.5-10 79.2-29.8 128.69-19.8 39.59-39.6 69.29-39.6 69.29-9.9 0-296.9-108.89-306.8-118.78 0 0 9.9-29.7 29.7-69.29 49.5-118.79 79.2-148.49 158.3-178.18 9.9-19.8 79.2 0 118.8 19.79zm-752.3-663.23c0 9.9-29.7 69.31-59.3 138.62-49.6 128.66-49.6 128.66-29.8 148.46 19.9 19.79 59.4 49.49 277.2 207.87 49.5 39.6 89.1 98.99 89.1 138.59 0 29.69-29.7 138.58-49.5 148.47 0 0-108.9-29.68-237.6-79.18-138.6-59.39-227.7-89.09-237.6-79.19 0 0-29.6 69.29-59.3 138.58-39.6 98.99-49.5 128.69-39.6 138.58 9.9 9.91 346.4 138.59 1098.7 435.55 39.6 9.9 69.4 29.7 79.2 29.7 9.9 0 118.8-217.77 168.3-336.56 59.4-148.48 79.2-247.48 79.2-356.36 0-108.88-29.7-168.28-99-237.57-69.3-59.39-138.6-89.09-217.8-98.99-99-9.89-158.4 19.8-257.3 89.09l-29.7 19.8v-19.8c0-39.59-29.7-98.98-79.3-138.58-19.8-19.8-108.8-98.99-197.9-168.26-89.1-69.32-168.3-128.72-168.3-128.72-9.9-9.91-19.8 0-29.7 9.9M1969.87 9705.25c-9.91 0-69.3 9.91-138.59 19.8-69.29 9.9-168.28 19.8-217.77 19.8-49.49 9.9-98.99 9.9-108.89 9.9-9.9 0 29.7-29.7 89.09-69.29 59.39-39.6 138.58-108.89 197.98-148.48l98.98-79.19 49.5 118.78c19.79 79.19 39.59 118.79 29.7 128.68zm-69.3-613.72c-178.18 148.48-405.85 336.56-524.63 435.55-108.89 89.08-197.98 168.28-197.98 178.17 0 9.91 29.7 79.19 69.29 168.29 39.6 89.09 69.29 168.26 79.19 168.26 9.9 9.9-19.8 9.9 1059.18-79.17 148.48-9.9 277.16-29.7 277.16-29.7 9.9-9.9-98.99-277.17-118.79-296.97-9.89-9.89-59.39 0-158.37 9.9-188.08 19.8-188.08 19.8-197.98-9.9 0-9.89-39.6-89.09-69.29-168.28l-39.6-138.58 118.79-98.99c69.29-49.49 128.68-98.98 128.68-108.88 9.9-9.91 0-39.6-49.49-148.52-29.7-79.15-59.39-138.56-59.39-138.56 9.89-9.9-138.59 108.92-316.77 257.38M2316.32 10556.6c-277.16 207.8-504.84 386-504.84 395.9-9.89 9.9 188.08 277.2 207.88 277.2 9.9 9.9 247.47-19.8 534.53-69.3 138.59-19.8 376.16-69.3 415.75-79.2 9.91 0-39.59 29.7-108.88 79.2-128.69 89.1-534.54 405.8-554.34 425.6-9.89 9.9 9.9 39.6 79.2 118.8l89.09 108.9 108.88-89.1c59.39-49.5 277.17-217.8 485.04-376.1 207.88-158.4 386.06-297 395.96-306.9l29.69-19.8-98.98-128.7c-49.5-69.3-99-128.7-108.89-128.7-19.8 0-643.43 89.1-742.42 108.9-59.39 9.9-138.58 29.7-178.18 39.6-39.59 9.9-79.18 19.8-79.18 9.9 0 0 49.49-39.6 108.88-89.1 148.48-108.9 584.04-445.4 593.93-455.3 9.9-9.9-158.38-217.8-168.28-217.8 0 9.9-227.67 178.2-504.84 396M12076.6 10536.8c138.5 49.5 287 178.1 336.5 287 39.6 79.2 39.6 178.2 9.9 247.5-49.5 108.9-148.5 168.3-277.2 158.4-168.2-9.9-376.1-148.5-445.4-306.9-29.7-59.4-29.7-69.3-29.7-138.6s0-79.2 29.7-128.7c29.7-59.3 89.1-108.8 138.6-118.7 59.3-29.7 158.4-19.8 237.6 0zm-207.9-306.9c-158.4 39.6-297 148.5-396 306.9-188.1 296.9-89.1 643.4 237.6 861.2 188 128.6 435.5 158.3 623.7 69.2 168.2-69.2 326.6-267.2 376.1-445.4 19.8-69.3 19.8-207.9 0-277.2-29.7-108.9-79.2-197.9-178.2-296.9-108.9-108.9-197.9-168.3-326.7-207.9-98.9-29.7-237.5-39.6-336.5-9.9M3642.77 11823.6c-168.29 217.8-316.77 405.8-316.77 405.8s-69.29-39.5-138.58-98.9c-69.29-59.4-138.59-108.9-138.59-108.9-9.89 0-158.37 188.1-158.37 198 0 0 69.29 59.3 148.48 118.7 79.19 59.4 257.36 198 395.95 306.9 138.58 108.9 247.47 198 257.37 198 9.9 0 39.6-39.6 79.19-99 59.39-79.2 69.29-99 69.29-108.9-9.9-9.9-69.29-59.4-138.58-108.9-108.89-89.1-128.69-99-118.79-108.9 9.9-9.9 593.93-752.3 623.63-791.9 9.9-9.9-39.6-39.6-108.89-99-69.29-49.5-118.79-89.1-118.79-89.1-29.69-9.9-168.27 168.3-336.55 386.1M11225.3 11972.1c69.2 19.8 138.5 99 138.5 168.3 0 39.6-29.7 99-69.3 138.5-39.6 39.6-108.8 89.1-118.7 89.1-9.9 0-227.7-267.2-227.7-287 0-19.8 118.8-99 158.4-108.9 39.6-9.9 69.3-9.9 118.8 0zm-851.4-316.8c-98.9 79.2-118.7 99-98.9 108.9 9.9 9.9 188 227.7 395.9 494.9 207.9 267.3 386.1 475.2 386.1 485.1 9.9 9.9 197.9-118.8 316.7-217.8 227.7-178.2 306.9-346.4 257.4-514.7-29.7-108.9-118.8-217.8-237.6-277.2-49.5-29.7-69.3-29.7-148.5-29.7-79.1 0-98.9 0-158.3 19.8-79.2 29.7-178.2 79.2-257.4 148.5l-59.4 49.5-69.3-89.1c-39.6-49.5-99-128.7-138.5-168.3-39.6-49.5-69.3-79.2-69.3-89.1 0-9.9-59.5 29.7-118.9 79.2M4899.92 12665c9.89 0-39.6 59.4-98.99 128.7-59.39 69.3-138.58 148.5-168.28 188.1-29.7 39.6-49.5 59.4-49.5 59.4s9.9-59.4 19.8-108.9c9.89-59.4 29.7-158.4 39.59-217.8 9.91-59.4 19.81-118.8 19.81-128.7 0-9.9 19.79-9.9 108.88 39.6 69.29 19.8 128.69 39.6 128.69 39.6zm-405.86-791.9s-29.69 148.5-49.49 326.7c-29.69 178.1-69.3 475.1-98.99 653.3-39.59 257.4-49.49 336.5-39.59 346.4 9.89 9.9 89.09 49.5 178.18 89.1l168.28 79.2 29.69-29.7c9.9-9.9 207.88-217.8 425.65-455.3 217.77-237.6 415.75-445.5 435.55-465.3l39.59-39.6-138.58-69.3c-79.19-39.6-148.49-69.2-148.49-69.2-9.89 0-59.39 59.3-118.78 118.7l-108.88 118.8-49.5-19.8c-29.7-9.9-98.99-49.5-168.28-79.2-108.88-49.5-118.79-59.4-108.88-79.2 9.89-29.7 49.48-296.9 49.48-306.8 0-9.9-257.36-138.6-277.16-138.6l-19.8 19.8M9681.06 12061.2c-168.32 39.6-287.08 108.9-405.9 227.6-69.25 69.3-69.25 59.4 9.9 158.4 39.61 49.5 79.21 89.1 79.21 99 9.91 9.9 29.71 0 79.21-59.4 207.88-207.9 455.36-237.5 435.56-39.6-9.91 49.5-39.61 89.1-138.63 198-138.56 148.5-178.16 237.6-168.26 356.4 9.9 148.4 118.81 277.1 277.18 316.7 168.27 39.6 405.87-39.6 583.97-198 79.3-79.1 89.2-59.4-19.8-178.1l-69.2-79.2-59.4 59.4c-148.5 138.5-316.81 178.1-366.26 99-39.6-59.4-19.8-99 108.86-247.5 138.6-158.4 178.2-217.8 198-316.8 19.8-128.7-69.3-306.8-198-376.1-108.86-39.6-227.68-49.5-346.44-19.8M8602.09 13229.2c-9.89 99-19.8 217.8-19.8 247.5v59.4l-108.91-217.8c-59.41-118.8-108.86-217.8-108.86-217.8s207.87-49.4 237.57-59.3c19.75 0 9.85 69.3 0 188zm207.88-801.8c-89.11 19.8-148.52 39.6-158.43 39.6-9.9 9.9-19.8 89.1-19.8 168.3-9.9 89.1-9.9 158.4-19.8 158.4 0 0-69.25 19.8-158.37 39.6-79.15 19.8-158.36 29.7-168.26 39.6-19.81 0-29.71-9.9-99.02-148.5-69.25-138.6-79.15-148.5-98.95-148.5-9.91 0-79.21 19.8-138.57 29.7-59.41 9.9-128.72 29.7-138.62 39.6-9.9 9.9 69.31 148.5 296.99 564.2 168.27 306.9 316.73 564.3 326.63 584.1l19.8 29.7 188.07-39.6c99.02-19.8 188.07-39.6 197.97-49.5 9.91-9.9 138.62-1326.5 128.72-1336.4-9.9 0-79.21 9.9-158.36 29.7M5850.19 12447.2c0 9.9-118.76 574.2-227.66 1059.2-19.8 99-39.6 178.2-29.7 188.1 9.9 19.8 277.16 69.3 296.97 59.4 0 0 29.7-118.8 59.4-247.5 29.71-128.7 79.16-356.4 108.86-494.9 29.71-138.6 59.41-257.4 59.41-257.4s118.76 19.8 247.48 49.5c138.56 29.7 247.48 49.5 247.48 39.6 9.9-9.9 59.35-237.6 49.45-237.6 0 0-19.75-9.9-29.65-9.9-9.9 0-188.13-39.6-396-79.2s-376.14-79.2-376.14-79.2l-9.9 9.9M7077.68 12635.3c0 9.9-9.9 128.7-9.9 267.3v257.3l-108.92 198c-59.41 108.9-158.36 277.2-207.87 366.3-49.51 89.1-89.11 168.3-89.11 178.2 0 0 79.21 9.9 168.32 9.9 128.66 9.8 158.37 0 168.26-9.9 9.91-9.9 128.67-267.3 197.98-445.5l39.6-79.2 108.86 257.4c59.41 148.5 108.92 267.3 108.92 267.3 9.9 9.9 326.63 19.7 336.53 0 0-9.9-89.05-178.2-197.97-376.2l-207.87-366.3v-267.2c0-148.5 0-267.3-9.9-267.3 0 0-69.26-9.9-148.47-9.9-118.82 9.9-138.56 9.9-148.46 19.8" style="fill:#eb232c;fill-opacity:1;fill-rule:nonzero;stroke:none"/></g></svg>