<svg xmlns="http://www.w3.org/2000/svg" xml:space="preserve" width="252" height="252" version="1.0"><path d="M198.425 396.85c109.267 0 198.425-89.158 198.425-198.425C396.85 89.158 307.692 0 198.425 0 89.157 0 0 89.158 0 198.425 0 307.692 89.157 396.85 198.425 396.85Z" style="fill:#008bd0" transform="translate(1 1) scale(.62996)"/><path d="M198.425 386.165c103.42 0 187.74-84.319 187.74-187.74s-84.319-187.74-187.74-187.74-187.74 84.319-187.74 187.74 84.319 187.74 187.74 187.74z" style="fill:#fff" transform="translate(1 1) scale(.62996)"/><path d="M198.425 305.475c58.917 0 107.049-48.132 107.049-107.05s-48.132-107.05-107.049-107.05c-58.917 0-107.05 48.132-107.05 107.049 0 58.917 48.132 107.051 107.05 107.051z" style="fill:#009430" transform="translate(1 1) scale(.62996)"/><path d="M198.425 294.84c53.071 0 96.415-43.344 96.415-96.416 0-53.072-43.344-96.415-96.415-96.415-53.072 0-96.416 43.344-96.416 96.415 0 53.071 43.344 96.416 96.416 96.416z" style="fill:#fff" transform="translate(1 1) scale(.62996)"/><path d="M197.165 274.125c-3.981.756-5.594 2.873-8.467 5.04 1.864-8.719 2.721-31.45 1.512-49.14-1.21-16.229-2.066-26.661-7.106-30.391-37.901-27.871-31.5-59.522-29.131-67.183 10.685 22.781 22.832 14.717 32.962 46.822 2.974-18.043-10.735-34.978 1.159-61.589 2.117 20.412 9.424 22.428 9.172 42.437-.151 10.886-3.427 21.924-2.369 32.659 1.109 12.802 3.024 25.2 3.024 39.564 8.77-10.433 5.645-28.677 15.322-41.529 9.173-12.298 22.377-16.833 31.097-30.038 2.52 30.088-4.536 54.684-34.625 79.582-6.704 5.544-8.367 4.737-9.476 11.037-.404 2.217-2.671 20.663-3.074 22.729z" style="fill:#009430" transform="translate(1 1) scale(.62996)"/><path d="M246.859 347.206c-.252-1.058-.605-2.066-1.108-2.974-.504-.856-1.109-1.613-1.916-2.268a8.007 8.007 0 0 0-2.671-1.663c-.655-.202-1.311-.403-2.066-.504.554-.454.957-.907 1.36-1.361.655-.756 1.159-1.512 1.462-2.268.605-1.461.756-3.125.403-4.788-.101-.756-.403-1.411-.706-2.117a8.986 8.986 0 0 0-1.26-1.814c-.504-.605-1.059-1.108-1.764-1.512-.655-.403-1.311-.655-2.167-.958-.706-.202-1.613-.252-2.47-.302-.806 0-1.764.101-2.721.302-1.412.303-2.672.756-3.579 1.512a6.19 6.19 0 0 0-2.369 2.722c-.504.806-.756 1.663-.907 2.52-.151.856-.051 1.764.151 2.621.101.655.353 1.209.605 1.714.252.504.605.907 1.008 1.26.454.353.958.604 1.411.756.504.151.958.151 1.512 0 .454-.051.857-.252 1.26-.555.353-.252.706-.605.958-1.008.202-.403.403-.857.504-1.361.05-.453 0-.957-.101-1.461-.051-.302-.202-.655-.252-.907-.151-.251-.252-.453-.504-.756-.202-.202-.403-.403-.706-.655a8.706 8.706 0 0 0-1.008-.604v-.101a1.478 1.478 0 0 1-.503-.202c-.051-.05-.051-.101-.152-.101v-.101s-.05-.05-.05-.101c0-.101 0-.202.05-.303.101-.201.152-.302.353-.554.151-.101.353-.302.706-.454.252-.151.655-.201 1.059-.353.605-.101 1.209-.101 1.713 0s.958.353 1.412.706c.403.353.756.856 1.058 1.563.353.655.655 1.563.907 2.57.202 1.059.252 1.966.252 2.722 0 .706-.05 1.361-.302 1.814a2.577 2.577 0 0 1-.857 1.058c-.403.353-.806.555-1.311.605-.151.101-.302.101-.403.101-.252.05-.454.05-.655.05-.403.101-.655.101-.857.151-.353.05-.554.151-.806.252-.202.151-.403.303-.555.555-.151.202-.202.403-.252.655 0 .303 0 .555.05.857.05.252.151.504.252.706.151.202.303.403.504.555.201.152.454.202.655.251.302 0 .503 0 .756-.05.151 0 .252-.05.454-.101.202-.101.454-.151.706-.302.202-.05.403-.151.605-.202.151-.05.252-.151.403-.151.554-.101 1.109-.101 1.563.101.454.101 1.008.403 1.411.857.554.403.958 1.008 1.311 1.814.403.756.655 1.764.958 2.923.201 1.159.302 2.268.302 3.125-.05.907-.201 1.562-.454 2.167a3.256 3.256 0 0 1-1.159 1.411c-.454.403-1.059.706-1.764.857-.555.05-1.008.101-1.563.05-.454-.05-1.008-.151-1.462-.403-.353-.151-.554-.302-.706-.403-.151-.151-.252-.353-.252-.503-.101-.051-.101-.101-.101-.202 0 0 0-.051.101-.051 0-.05.05-.151.101-.201.151-.151.302-.353.504-.555 1.159-1.059 1.562-2.369 1.209-3.78a2.696 2.696 0 0 0-.554-1.411c-.252-.403-.605-.756-.958-1.109-.454-.252-.857-.454-1.311-.554a3.808 3.808 0 0 0-1.512 0 4.6 4.6 0 0 0-1.512.705c-.403.353-.705.756-1.008 1.26a5.064 5.064 0 0 0-.454 1.764c-.05.605 0 1.311.151 2.066.252 1.21.706 2.218 1.31 3.175a8.753 8.753 0 0 0 2.47 2.218c.957.604 2.117 1.008 3.326 1.159 1.209.151 2.57.05 4.032-.252 1.663-.353 3.075-.907 4.234-1.563 1.209-.756 2.167-1.613 2.923-2.722.705-1.159 1.209-2.318 1.461-3.578.205-1.209.155-2.57-.148-4.031zm-26.813-.807c-.604-1.361-1.411-2.47-2.52-3.427-1.058-.958-2.217-1.713-3.427-2.117a9.092 9.092 0 0 0-3.88-.555c-.454 0-.857.101-1.361.151-.454.151-.857.252-1.361.403a7.466 7.466 0 0 0-1.461.604c-.202.05-.504.202-.706.353v-4.939c.706.05 1.31.101 1.915.101.807.101 1.512.101 2.167 0 .958-.051 1.764-.202 2.419-.303.857-.202 1.512-.554 2.117-.907a6.146 6.146 0 0 0 1.563-1.26c.454-.504.857-1.109 1.26-1.714.353-.655.554-1.31.755-1.814a5.336 5.336 0 0 0 .151-1.764c0-.302-.05-.504-.151-.605-.201-.302-.403-.403-.755-.353-.051 0-.151 0-.403.151-.101 0-.303.101-.605.252-.504.201-1.209.454-1.965.604-.706.151-1.613.303-2.419.353-1.209.051-2.57.051-3.931-.05-1.411-.101-2.923-.252-4.385-.504l-.706-.05v.604l.101 14.768a10.794 10.794 0 0 0-.756 1.563c-.151.554-.302.958-.202 1.36 0 .252.05.454.101.655.151.303.303.403.403.605h.101c.353.353.806.504 1.36.504.303 0 .605-.151.857-.353a1.26 1.26 0 0 0 .605-.655c.151-.353.302-.706.302-1.159.051-.403.051-.807.051-1.361.353-.202.604-.403.856-.555.353-.202.706-.403 1.059-.554.302-.101.655-.252 1.008-.302.252-.101.554-.151.806-.151.605-.05 1.16.051 1.613.252a4.27 4.27 0 0 1 1.31 1.209 7.037 7.037 0 0 1 1.059 2.318c.302 1.008.403 2.167.554 3.528.051 1.713.051 3.074-.151 4.183-.101 1.159-.303 2.066-.706 2.722a5.579 5.579 0 0 1-1.311 1.512c-.454.252-1.109.454-1.764.555-.554 0-1.059 0-1.562-.151-.454-.05-.958-.302-1.361-.554-.252-.151-.454-.252-.554-.454-.101-.151-.201-.303-.201-.403 0-.101 0-.101.101-.151.101-.151.353-.353.604-.453.403-.303.807-.555 1.059-.907.353-.252.605-.555.756-.857.202-.303.302-.655.353-.958.05-.353.151-.705.05-1.108 0-.504-.101-1.008-.303-1.412-.251-.454-.503-.907-.856-1.209a4.865 4.865 0 0 0-1.26-.806c-.403-.151-.907-.202-1.411-.151-.655 0-1.159.151-1.663.403-.454.252-.856.706-1.26 1.159-.353.454-.605 1.008-.756 1.663-.151.655-.202 1.311-.151 2.066.101 1.059.353 2.167.806 3.024.504.958 1.159 1.865 2.066 2.57a7.448 7.448 0 0 0 2.923 1.563 9.582 9.582 0 0 0 3.629.403c1.613-.101 3.125-.454 4.485-1.109a10.87 10.87 0 0 0 3.377-2.722c.958-1.159 1.714-2.52 2.117-4.032.403-1.411.554-3.024.454-4.738-.102-1.661-.454-3.173-1.009-4.534zm-25.2-13.558c-.856-1.36-1.865-2.369-3.075-3.074-1.159-.756-2.57-1.26-4.183-1.361h-.908c-.655 0-1.36 0-2.016.101-.907.151-1.764.504-2.621.907-.856.403-1.563.958-2.268 1.563-.655.655-1.21 1.411-1.764 2.268a24.337 24.337 0 0 0-1.209 2.873 30.474 30.474 0 0 0-.605 3.226 12.61 12.61 0 0 0 .353 4.435c.403 1.26 1.008 2.419 1.965 3.427.655.756 1.411 1.361 2.268 1.764a9.509 9.509 0 0 0 2.722.856 7.649 7.649 0 0 0 3.175-.503c.807-.252 1.663-.756 2.47-1.361a42.46 42.46 0 0 1-.554 3.478 17.908 17.908 0 0 1-.907 3.528c-.302.856-.655 1.663-1.008 2.268-.05.101-.05.101-.05.151a9.89 9.89 0 0 1-1.209 1.512c-.403.302-.907.605-1.311.706a2.24 2.24 0 0 1-1.159.151c-.202 0-.403-.051-.504-.151a1.492 1.492 0 0 1-.504-.202c0-.05-.05-.101-.05-.202-.101-.05-.101-.101-.101-.202s.101-.202.151-.302c.101-.202.151-.353.202-.555.302-.403.403-.806.554-1.159.151-.353.202-.655.252-1.008.101-.554 0-1.008-.101-1.512-.101-.454-.302-.857-.605-1.26a3.811 3.811 0 0 0-1.058-.958c-.403-.202-.807-.353-1.26-.403-.554-.05-1.109 0-1.563.202a3.709 3.709 0 0 0-1.311.857c-.403.353-.655.857-.907 1.361s-.353 1.108-.454 1.713c-.05.807.101 1.613.353 2.369.353.807.806 1.462 1.512 2.218.655.706 1.411 1.311 2.268 1.714.908.353 1.916.604 3.024.756 1.311.05 2.621-.101 3.83-.504.353-.05.706-.202.958-.403 1.562-.655 2.923-1.764 4.183-3.327 1.512-1.663 2.671-3.629 3.478-5.998.857-2.318 1.411-4.889 1.714-7.812a29.043 29.043 0 0 0-.202-6.703c-.402-2.016-1.058-3.881-1.965-5.444zm-4.738 5.847c-.151 1.311-.302 2.419-.655 3.377-.252.958-.604 1.713-1.008 2.268-.454.504-.856.908-1.361 1.21-.101.05-.252.101-.403.202-.302.05-.604.151-.957.05-.454 0-.807-.202-1.109-.403a2.679 2.679 0 0 1-.908-1.159c-.252-.454-.403-1.209-.454-2.066-.101-.907-.101-1.965.051-3.276.151-1.411.252-2.722.554-3.73a7.666 7.666 0 0 1 .958-2.217c.403-.504.706-.907 1.209-1.109.202-.101.403-.202.655-.252h.605c.403.05.756.151 1.109.403.353.201.604.555.857.958.403.605.706 1.411.856 2.369.102.956.102 2.115.001 3.375zm-20.361-12.046-2.016-.503h-.302c-.857.302-1.664.503-2.419.705-.806.101-1.613.252-2.369.303h-2.419c-.958-.051-1.915-.202-3.023-.303l-.504-.151-.706 3.075 4.838 1.108c.202 0 .403.101.504.202.151.101.202.151.303.202 0 .101.05.202.05.353v.504l-4.738 20.513c-.151.353-.201.655-.353.856-.101.303-.252.403-.403.504-.05.151-.252.202-.454.202s-.504 0-.807-.051l-3.477-.856-.756 3.125 16.833 3.931.756-3.175-4.334-.958a1.773 1.773 0 0 1-.454-.202c-.051-.05-.202-.101-.202-.252-.051-.151-.101-.302-.101-.403 0-.151 0-.353.05-.554zm-65.923-54.784c-.252-.504-.605-.908-.958-1.412-.756-.958-1.461-1.764-2.218-2.369-.806-.655-1.562-1.059-2.369-1.26-1.613-.403-2.974-.202-4.133.655-.504.353-.806.756-1.159 1.159-.252.403-.454.958-.554 1.411-.051.303-.051.555-.101.756a13.845 13.845 0 0 0-1.663-1.159c-1.361-.807-2.822-1.26-4.435-1.563-1.663-.202-3.327-.05-5.04.353a18.533 18.533 0 0 0-5.09 2.117l-.454.302 1.764 2.318.303-.202c1.361-.655 2.621-1.209 3.729-1.563 1.159-.252 2.167-.403 3.125-.353 1.31 0 2.52.353 3.478.807 1.008.554 1.865 1.31 2.621 2.268.756 1.008 1.209 1.966 1.361 2.974.151 1.008 0 2.117-.403 3.175-.555 1.411-1.512 2.923-2.923 4.435-1.36 1.512-3.125 3.175-5.342 4.839-2.117 1.562-3.981 2.772-5.746 3.628-1.713.807-3.276 1.26-4.637 1.411-1.311.151-2.47 0-3.528-.353-.907-.353-1.714-.958-2.369-1.814-.604-.756-1.008-1.613-1.109-2.571-.202-.957-.151-2.066.101-3.175a13.15 13.15 0 0 1 1.563-3.679c.807-1.311 1.915-2.621 3.276-3.982l.303-.353-1.764-2.318-.454.353-10.584 8.619-.303.302 1.412 1.915.353-.05 2.823-.756v2.016c.05.807.201 1.562.403 2.268.151.706.403 1.411.756 2.016.353.655.756 1.26 1.16 1.915 1.209 1.512 2.57 2.772 4.183 3.73 1.613.857 3.478 1.411 5.544 1.663 2.369.303 4.838.051 7.207-.655 2.369-.756 4.687-1.965 7.056-3.729 2.066-1.563 3.78-3.326 5.04-5.242a15.441 15.441 0 0 0 2.671-6.098c.454-2.167.454-4.233.051-6.199-.101-.655-.252-1.159-.454-1.764l2.721-.151h1.008l-.605-.807c-.604-.907-1.109-1.563-1.411-2.268a4.839 4.839 0 0 1-.655-1.411v-.05a1.046 1.046 0 0 1 0-.555c0-.05.101-.201.202-.252.151-.101.202-.151.403-.151s.302 0 .504.05c.353.151.655.403 1.059.756.403.403.856.907 1.31 1.512v.05l.857 1.159.504.655.252.504 2.47-1.865-.202-.403c-.305-.602-.658-1.105-.91-1.559zm-24.344-7.309c.555-.05 1.109-.05 1.664.101.454.05 1.008.202 1.411.403.353.05.605.252.807.454.202.151.353.403.454.706l.504 1.058 2.923-1.36L81.9 254.47l-2.923 1.361.655 1.361c.202.403.353.857.403 1.26 0 .403 0 .807-.101 1.159-.152.353-.303.706-.555.958-.302.252-.554.454-.958.655-.202.101-.555.202-.958.302-.454.051-.957.101-1.562.101l-2.722.202-4.536-9.677 4.486-4.536.403-.403c.151-.05.302-.151.403-.202.101-.05.202-.05.302-.05.101 0 .252.05.403.101.101.101.252.303.454.504v.05c.151.302.353.605.605 1.109l.756 1.663 2.923-1.361-6.501-13.96-2.923 1.31.655 1.563c.151.202.202.403.302.655 0 .151 0 .353-.101.554 0 .151-.101.403-.252.605a5.125 5.125 0 0 1-.655.806l-6.048 6.2-16.732 17.136-.303.252 1.311 2.772.353-.05 15.372-1.159zm-21.47-1.562 5.846-5.897 2.369-2.369 3.478 7.409-5.847.403zm9.425-33.364c.302-.101.555-.101.706-.101.202 0 .303.101.403.151.1.05.201.151.252.353.151.101.202.403.252.655l.706 3.679 3.125-.604-3.427-17.59-3.075.605.655 3.679c.05.252.05.555.05.706 0 .202-.05.302-.101.454-.151.202-.504.403-.958.454l-10.382 2.066-14.263-3.478c-.706-.151-1.26-.353-1.714-.604-.454-.202-.907-.454-1.209-.806-.302-.252-.554-.706-.807-1.16a7.415 7.415 0 0 1-.554-1.612l-.151-.504-3.125.605 2.52 12.701 3.125-.604-.252-1.512c-.101-.403-.151-.806-.101-1.058 0-.353.101-.605.202-.807.151-.202.353-.353.554-.504.202-.151.454-.252.756-.353.353-.05.655-.05 1.008-.05.353.05.655.05 1.059.202l9.525 2.217-9.929 7.963c-.101.101-.303.202-.504.303a.8.8 0 0 1-.403.151h-.252c-.051 0-.101-.05-.151-.151-.101-.051-.151-.202-.252-.303a3.027 3.027 0 0 1-.252-.806l-.454-2.671-3.226.605 3.125 16.027 3.175-.655-.252-1.108c-.05-.403-.05-.756-.05-1.109s.05-.605.201-.857c.051-.302.252-.555.454-.856.303-.303.605-.655 1.008-1.008l13.86-10.937zM49.14 135.324c.101-.201.202-.302.353-.454.05-.101.202-.151.353-.151.101-.051.252-.051.454 0 .202 0 .403.05.756.202l8.518 4.183 14.465 7.056c.252.152.454.303.605.403.101.151.252.303.302.403h-.05c.05.151.151.302.05.504 0 .202-.05.403-.101.605l-1.31 2.621 2.873 1.361 7.207-14.818-2.822-1.411-1.512 2.974c-.051.202-.202.302-.303.454-.151.151-.302.202-.504.353v-.05c-.101.05-.252.05-.403.05-.101 0-.353-.05-.554-.202l-10.735-5.241.756-1.563c.202-.403.403-.655.655-.908.252-.302.554-.503.807-.705.353-.151.706-.252 1.008-.353.403-.05.907-.05 1.361-.05.554.05 1.209.151 2.167.403a46.02 46.02 0 0 1 3.477.907h.051c1.159.303 2.167.605 2.923.706a64.32 64.32 0 0 1 1.764.454c.655.05 1.26 0 1.814-.101.605-.05 1.159-.252 1.613-.454 1.059-.554 1.865-1.411 2.47-2.722.403-.857.655-1.764.655-2.57.101-.907-.101-1.713-.453-2.52-.403-.806-1.008-1.562-1.814-2.318a19.873 19.873 0 0 0-3.226-2.167l-.454-.251-1.31 2.57.504.252c2.016 1.159 2.923 1.966 2.621 2.52 0 .101-.051.151-.051.151-.151.05-.302.05-.403.151-.202 0-.504 0-.958-.101-.403-.05-1.008-.202-1.764-.302a30.301 30.301 0 0 0-3.377-.655c-1.108-.051-2.117-.101-3.074-.101v.05c-.706 0-1.411.051-2.016.202a9.076 9.076 0 0 0-1.764.605c-.454.302-.857.605-1.361 1.008.151-.655.303-1.26.353-1.815.202-1.26.202-2.419 0-3.427-.302-1.36-.807-2.469-1.563-3.477-.756-.958-1.713-1.714-2.923-2.319-.756-.302-1.462-.605-2.218-.756a12.426 12.426 0 0 0-2.369-.051c-.353 0-.755.051-1.109.202-.403.101-.856.303-1.26.403-.756.353-1.512.807-2.268 1.412-.706.655-1.411 1.36-2.066 2.318-.605.907-1.26 1.915-1.865 3.125l-7.207 14.818 2.873 1.36zm4.939-10.03c.504-1.059 1.008-1.865 1.563-2.52.554-.504 1.109-.907 1.713-1.109.554-.202 1.209-.202 1.966-.151.05.051.202.051.251.051a9.816 9.816 0 0 1 2.319.806 12.585 12.585 0 0 1 2.419 1.563c.555.554.958 1.109 1.16 1.714.302.806.353 1.612.302 2.52-.151.856-.403 1.814-.907 2.772l-.857 1.814-4.436-2.117-4.737-2.268a3.432 3.432 0 0 1-1.008-.706c-.201-.101-.353-.252-.403-.403-.05-.252.151-.957.655-1.966zm-17.337 84.37c0-.252 0-.454.05-.655.101-.151.151-.302.252-.403.05-.101.101-.151.252-.151.151-.05.353-.151.554-.151h26.258c.303 0 .403.101.605.151.151 0 .303.151.353.202.151.05.202.202.202.403.101.151.151.403.151.605v2.722h3.175V196.46h-3.175v3.175c0 .202-.05.353-.05.504-.101.151-.151.252-.302.353-.151.202-.454.252-.958.252h-7.257l-4.234-3.226 11.794-6.149c.05-.05.101-.05.101-.05h.353c.05.05.151.101.252.252s.151.252.252.554c0 .252.05.555.05.958v2.016h3.175v-16.077H65.42v1.713c0 .353-.05.605-.151.857-.151.353-.252.604-.454.958a5.382 5.382 0 0 1-.504.605c-.252.202-.504.353-.857.554l-17.085 8.87-4.737-3.629a25.565 25.565 0 0 1-2.369-2.117c-.604-.705-1.209-1.36-1.613-2.016-.353-.504-.554-.907-.706-1.361-.151-.504-.201-.958-.201-1.512v-1.36h-3.175v13.708h3.175v-1.361c0-.403.05-.756.151-1.008.05-.302.202-.503.353-.705.05-.101.201-.202.252-.252.151-.051.353-.051.554-.051.201 0 .454.051.706.202.353.051.655.252.958.504l11.743 9.122H37.951c-.252 0-.454 0-.605-.05-.101-.101-.252-.151-.302-.202-.101-.101-.151-.202-.252-.454-.05-.202-.05-.454-.05-.857v-2.923h-3.175v16.128h3.175zm1.36-37.246c.051-.353.202-.655.252-.857.151-.101.201-.252.353-.302.151-.101.302-.101.554-.101.252 0 .605.101.958.151l18.497 4.738c1.21.302 2.369.504 3.427.554 1.109.05 2.066 0 2.923-.252.907-.252 1.764-.555 2.57-1.109a11.164 11.164 0 0 0 2.318-2.117c.756-.807 1.411-1.814 1.965-2.873.454-1.109.958-2.318 1.26-3.628.504-1.814.655-3.579.504-5.141-.151-1.613-.706-3.125-1.411-4.485h-.101c-.755-1.311-1.814-2.419-3.125-3.377a13.295 13.295 0 0 0-4.536-1.965l-15.069-3.931c-.706-.202-1.311-.403-1.865-.655a7.638 7.638 0 0 1-1.361-1.109c-.655-.655-.857-1.563-.655-2.47l.353-1.361-3.074-.756-3.175 12.348 3.024.706.302-.907a2.94 2.94 0 0 1 .655-1.311c.303-.403.706-.655 1.109-.907.454-.202 1.008-.302 1.663-.302.706 0 1.462.101 2.268.302l13.961 3.629a21.95 21.95 0 0 1 2.57.856c.756.403 1.361.756 1.865 1.21.555.403.958.907 1.311 1.361.353.504.554.958.655 1.461.403 1.411.403 2.822.101 4.334-.302 1.008-.705 1.865-1.209 2.57a5.964 5.964 0 0 1-1.915 1.613c-.807.403-1.714.604-2.621.655-1.059.101-2.217-.051-3.427-.403l-18.144-4.637c-.353-.101-.555-.252-.756-.302-.101-.051-.252-.202-.353-.252-.05-.151-.101-.202-.101-.353-.101-.05-.101-.202 0-.353l.857-3.528-3.024-.806-4.133 15.926 3.125.806zM275.789 71.77c.756-1.461 1.361-3.024 1.713-4.586.353-1.562.555-3.125.555-4.637a18.112 18.112 0 0 0-.706-4.435c-.403-1.462-1.008-2.722-1.764-4.032-.807-1.26-1.663-2.369-2.772-3.376-1.059-.958-2.217-1.764-3.579-2.369-2.016-1.008-4.132-1.563-6.148-1.613-.605 0-1.159.05-1.714.05-1.562.202-3.125.555-4.687 1.21-2.167.907-3.981 2.167-5.695 3.831-1.613 1.612-3.024 3.578-4.183 5.947-.756 1.613-1.361 3.175-1.713 4.738-.403 1.562-.504 3.125-.504 4.687.051 1.462.252 2.923.605 4.334.403 1.361.958 2.722 1.663 3.931a14.573 14.573 0 0 0 2.722 3.327c1.008 1.008 2.268 1.814 3.679 2.419 2.016 1.008 4.133 1.563 6.199 1.613.655 0 1.26 0 1.915-.05 1.512-.202 2.974-.605 4.536-1.209 2.167-.907 4.083-2.167 5.695-3.831 1.713-1.615 3.074-3.58 4.183-5.949zm-4.385-12.399a17.102 17.102 0 0 1-1.008 3.68c-.504 1.36-1.21 2.973-2.117 4.788-1.26 2.57-2.52 4.738-3.73 6.401-1.059 1.461-2.167 2.621-3.175 3.276-.151.101-.202.151-.252.151-1.108.706-2.167 1.109-3.276 1.209-1.008.101-2.016-.101-3.024-.655-.756-.353-1.311-.756-1.865-1.209a10.888 10.888 0 0 1-1.21-1.764 5.619 5.619 0 0 1-.604-2.318c-.05-.857 0-1.814.151-2.822.101-1.109.453-2.318 1.008-3.729a51.912 51.912 0 0 1 2.117-4.99c.857-1.663 1.663-3.226 2.47-4.435.856-1.311 1.663-2.369 2.47-3.175a12.529 12.529 0 0 1 2.016-1.764c.051-.101.151-.152.202-.202.756-.504 1.512-.857 2.167-.958.756-.202 1.411-.302 2.117-.151.655.05 1.361.252 2.016.604.756.353 1.31.756 1.814 1.209a8.65 8.65 0 0 1 1.26 1.764c.303.706.454 1.461.604 2.268.05.856.05 1.814-.151 2.822zm-23.487-6.653c.453-.857.807-1.814 1.008-2.822.251-1.361.251-2.621 0-3.881-.303-1.26-.807-2.419-1.563-3.578a10.076 10.076 0 0 0-2.923-2.722c-1.159-.756-2.52-1.209-4.083-1.563l-4.133-.806-14.011-2.722-.605 3.226 3.478.604c.101.051.252.101.403.202l.252.252c.05.151.151.353.151.504.051.202.051.403 0 .605l-4.939 25.402c-.101.252-.151.454-.201.604-.101.202-.252.252-.353.403-.101.05-.201.151-.403.151-.152.051-.353.051-.605 0l-3.226-.604-.605 3.075 17.035 3.326.605-3.125-3.931-.806c-.202 0-.353-.05-.504-.101-.101-.151-.202-.202-.251-.353-.152-.151-.152-.252-.202-.454 0-.252 0-.454.05-.655l1.966-10.332 5.09.958c.303.051.555.101.807.101.605.151 1.311.151 1.965.151.908 0 1.916-.05 2.873-.201 1.008-.202 1.865-.504 2.772-.908.807-.403 1.613-.907 2.318-1.613a8.028 8.028 0 0 0 1.765-2.318zm-6.652-4.435a27.985 27.985 0 0 1-.605 2.419c-.302.604-.504 1.109-.756 1.512a4.453 4.453 0 0 1-1.008.907c-.403.302-.807.504-1.361.706-.403.151-.907.252-1.311.353a7.3 7.3 0 0 1-2.066-.151l-3.226-.605 2.419-12.197c.05-.202.101-.403.201-.554a.306.306 0 0 1 .252-.202c.151-.05.403-.151.756-.05.403 0 .958.05 1.563.202h.101c1.109.202 1.965.454 2.671.806.756.353 1.26.756 1.612 1.159a4.59 4.59 0 0 1 .908 2.318c.102.908.102 2.016-.15 3.377z" style="fill:#e32219" transform="translate(1 1) scale(.62996)"/><path d="M218.333 58.111a14.84 14.84 0 0 0-.302-3.075 8.315 8.315 0 0 0-1.008-2.57 10.381 10.381 0 0 0-1.764-2.167c-.706-.605-1.512-1.159-2.47-1.713-.605-.252-1.361-.605-2.369-.908-1.008-.353-2.318-.706-3.78-1.058-1.209-.303-2.318-.605-3.125-.907-.857-.302-1.563-.555-2.016-.807-.504-.302-.907-.554-1.159-.857a4.328 4.328 0 0 1-.806-.907 3.275 3.275 0 0 1-.403-1.108c-.151-.403-.151-.807-.151-1.209 0-.706.151-1.361.403-1.916.252-.604.655-1.159 1.209-1.663a5.388 5.388 0 0 1 1.865-1.109 7.634 7.634 0 0 1 2.268-.353c1.008 0 1.965.302 2.873.604a10.608 10.608 0 0 1 2.621 1.916c.807.806 1.512 1.814 2.117 3.074.655 1.209 1.209 2.621 1.613 4.334l.151.302 2.772.101v-.554l.051-11.743v-.504h-2.268l-.151.202-1.713 2.47c-1.059-1.008-2.218-1.814-3.528-2.369-1.411-.604-2.873-.958-4.435-.958-1.664-.05-3.125.202-4.486.706-1.361.454-2.47 1.21-3.478 2.218s-1.764 2.167-2.217 3.528c-.555 1.311-.856 2.772-.856 4.435-.051.907 0 1.814.202 2.621.151.806.454 1.563.755 2.318.353.655.807 1.26 1.361 1.865a10.37 10.37 0 0 0 1.965 1.563c.706.504 1.714.958 2.923 1.411 1.26.504 2.671.907 4.334 1.361 1.31.353 2.318.655 3.074.856.756.202 1.26.403 1.563.504.504.302 1.008.554 1.411.806.353.353.604.706.806 1.059.252.302.403.706.555 1.209.151.454.202 1.008.151 1.563 0 .706-.151 1.461-.454 2.167-.302.604-.706 1.209-1.26 1.663-.554.554-1.311.958-2.117 1.159-.806.302-1.764.403-2.823.403-2.57-.051-4.737-.958-6.451-2.722-1.714-1.663-2.974-4.334-3.831-7.812l-.05-.454-2.772-.05-.202 13.709h2.318l.101-.202 2.167-2.873a12.592 12.592 0 0 0 3.78 2.57c1.462.706 3.074 1.008 4.738 1.008 1.814.101 3.427-.201 4.99-.706 1.411-.604 2.873-1.461 4.082-2.57 1.008-1.059 1.814-2.167 2.369-3.478.554-1.308.806-2.77.857-4.383zm-28.073-3.427-.05-.504-2.822.504v.504c.101 1.764.05 3.326-.151 4.688-.252 1.31-.655 2.469-1.31 3.477-.605.958-1.26 1.714-2.167 2.319a8.059 8.059 0 0 1-3.024 1.159l-3.68.604c-.302.101-.655.151-.907.101-.303 0-.504-.101-.706-.151-.051-.101-.151-.151-.202-.202-.051-.151-.151-.353-.151-.554l-2.066-11.844.605-.101c.856-.101 1.613-.202 2.217-.051a3.87 3.87 0 0 1 1.714.807c.454.403.857 1.008 1.26 1.764.403.807.756 1.916 1.008 3.125l.152.453 2.873-.453-2.923-16.582-2.873.454v.454c.152 1.16.152 2.117 0 2.923-.05.807-.251 1.512-.604 2.066a4.588 4.588 0 0 1-1.209 1.209c-.555.353-1.16.604-1.915.655l-.857.202-1.966-11.088v-.504c0-.101.05-.252.151-.303.05-.101.202-.202.302-.302.151-.05.353-.101.605-.202l4.133-.655c.857-.202 1.512-.202 2.167-.202.706.051 1.26.101 1.764.303.504.202.958.504 1.461.856.454.303.857.807 1.26 1.26.403.554.806 1.311 1.209 2.167.403.958.907 2.016 1.361 3.377l.151.403 2.772-.454-.151-.554-2.621-11.592-.151-.454-26.964 4.788.605 3.125 2.57-.554c.403-.05.706-.05.958-.05.202 0 .403.05.503.151.101.051.202.151.252.202.05.151.151.353.202.555l4.536 25.754v.604c-.051.202-.051.303-.202.454-.051.151-.202.252-.353.353-.101.05-.302.101-.605.202l-2.923.604.554 3.125 28.123-5.04-.05-.504zm-30.795 5.645-.202-.454-2.721 1.008.151.403c.252 1.361.403 2.571.504 3.629.101 1.109.101 2.066 0 2.873-.051.756-.252 1.461-.454 2.117-.151.605-.403 1.059-.756 1.512-.302.453-.655.856-1.159 1.159-.403.353-.907.604-1.563.806l-6.401 2.47 5.544-32.961-.05-.252-.958-2.52-22.025 8.215.151.554 3.528 11.29.101.504 2.671-.958-.101-.504c-.403-1.663-.605-3.175-.605-4.435-.05-1.21.151-2.319.504-3.175.303-.857.857-1.563 1.512-2.167.706-.655 1.512-1.109 2.621-1.512l4.586-1.764-5.443 32.911v.302l.958 2.47 23.638-8.871-.101-.454zm-23.99 20.462c-.252.151-.555.252-.756.252-.202.101-.353.101-.554.101-.101-.101-.202-.101-.303-.202-.1-.101-.201-.302-.353-.504L119.952 57.91a.719.719 0 0 1-.202-.504c-.051-.1-.051-.202 0-.353 0-.05.05-.202.202-.302.05-.101.251-.202.453-.353l2.521-1.512-1.664-2.671-10.181 6.099-3.376 2.016 1.663 2.772 1.713-1.059.655-.403c.303-.252.504-.302.706-.353h.403c.252.051.555.353.807.756l13.406 22.277c.101.202.202.403.202.554v.454c-.05.151-.101.252-.302.403-.151.201-.454.403-.706.555l-2.167 1.36 1.714 2.722 13.558-8.165-1.714-2.722zm-27.166-28.577c.252.403.555.706.958 1.008.302.252.706.454 1.159.604.252.05.454.151.655.151.655.05 1.26-.101 1.916-.504.403-.202.655-.555.907-.857.202-.353.403-.756.504-1.209.05-.504.05-.958 0-1.361-.101-.504-.302-.907-.555-1.311a4.283 4.283 0 0 0-.856-1.008 9.433 9.433 0 0 0-1.26-.605c-.252-.101-.454-.151-.655-.151-.655-.05-1.31.05-1.915.504-.403.201-.655.504-.958.856-.201.353-.403.756-.454 1.209-.05.504-.05.958 0 1.361.151.507.252.911.554 1.313z" style="fill:#e32219" transform="translate(1 1) scale(.62996)"/><path d="m120.809 82.354-.302-.403-2.167 1.864.353.454c1.461 1.865 1.965 2.974 1.512 3.377-.05 0-.101.05-.202.05-.05 0-.202 0-.302-.05v.05c-.201-.05-.504-.201-.907-.403-.403-.252-.857-.605-1.461-1.008h-.101c-.958-.706-1.865-1.311-2.822-1.764-.958-.555-1.915-.958-2.772-1.311-.756-.252-1.461-.454-2.066-.504-.605-.151-1.209-.151-1.814-.101-.554.101-1.058.202-1.613.403a27.25 27.25 0 0 1 1.008-1.563c.604-1.108 1.008-2.217 1.209-3.226.302-1.31.202-2.57-.151-3.729-.252-1.159-.856-2.218-1.814-3.276a8.495 8.495 0 0 0-1.814-1.512c-.605-.454-1.361-.756-2.117-.958-.806-.202-1.613-.353-2.419-.302-.907 0-1.764.202-2.671.504-.201.05-.302.101-.504.202-.756.252-1.512.604-2.268 1.058-.958.605-1.865 1.361-2.822 2.268L79.48 83.513l2.117 2.369 2.369-2.117c.151-.151.302-.251.403-.251.151-.101.302-.101.403-.101.151 0 .303.101.504.202l.503.504 11.088 12.247 6.098 6.804c.202.202.303.403.403.605.05.101.101.303.101.454 0 .151-.051.353-.101.504-.101.101-.202.302-.403.454l-2.167 1.965 2.167 2.369 12.248-11.038-2.117-2.369-2.419 2.167a3.46 3.46 0 0 1-.554.353c-.151.05-.353.05-.605.05-.05 0-.202-.05-.353-.151-.101-.05-.252-.101-.403-.353l-8.064-8.871 1.311-1.108a3.54 3.54 0 0 1 .958-.706 2.298 2.298 0 0 1 1.008-.252c.353-.101.756 0 1.059.051.403.05.806.202 1.31.403.454.252 1.059.605 1.814 1.16.806.554 1.814 1.26 2.923 2.167l2.419 1.814c.706.504 1.26.806 1.563.958.554.353 1.109.555 1.714.706.554.101 1.159.202 1.663.101 1.109-.051 2.217-.605 3.276-1.563.655-.655 1.31-1.411 1.613-2.167a6.014 6.014 0 0 0 .504-2.469 9.535 9.535 0 0 0-.807-2.873 23.003 23.003 0 0 0-2.217-3.177zm-18.8.958c-.403.806-1.008 1.562-1.865 2.268l-1.461 1.361-1.814-1.965-5.04-5.544c-.353-.403-.555-.655-.756-1.008-.05-.202-.101-.353-.101-.454 0-.353.454-.907 1.26-1.663.907-.807 1.713-1.361 2.469-1.664.706-.353 1.311-.503 1.966-.503h.202c.504.101 1.058.302 1.663.604.706.403 1.361 1.008 2.066 1.764.706.907 1.311 1.663 1.664 2.369.353.756.503 1.361.503 2.066a6.825 6.825 0 0 1-.756 2.369zm202.054-1.664c.504-.655.807-1.31 1.109-2.066a9.416 9.416 0 0 0 .454-2.369c0-.807-.05-1.664-.252-2.47-.202-.806-.605-1.613-1.109-2.419-.454-.806-1.058-1.562-1.915-2.369-.706-.806-1.664-1.562-2.772-2.318l-6.552-4.586-7.006-4.889-1.814 2.621 2.57 1.764c.202.151.353.303.403.403a.46.46 0 0 1 .151.354c0 .151 0 .353-.05.503-.101.202-.202.454-.403.655L272.16 85.479c-.151.202-.302.403-.504.504-.101.101-.252.252-.454.252a.55.55 0 0 1-.403 0c-.201-.101-.403-.151-.604-.303l-2.369-1.663-1.815 2.621 13.507 9.475 1.865-2.621-2.721-1.915c-.202-.051-.353-.252-.403-.403-.151-.151-.202-.353-.202-.555-.05-.101-.05-.252 0-.302.05-.202.151-.353.252-.555l6.854-9.828 1.411 1.008c.353.202.605.454.907.756.202.252.302.604.454.958.151.302.202.655.202 1.058s-.05.807-.202 1.311c-.05.504-.252 1.209-.655 2.066a46.36 46.36 0 0 1-1.462 3.326c-.503 1.109-.907 2.066-1.209 2.772a18.807 18.807 0 0 0-.604 1.714c-.202.604-.252 1.209-.252 1.814 0 .554.05 1.159.252 1.663.353 1.059 1.109 2.016 2.268 2.822.807.555 1.613.958 2.419 1.109.857.202 1.714.101 2.571-.101.554-.202 1.159-.454 1.764-.857.252-.151.555-.353.807-.605.907-.706 1.713-1.663 2.671-2.822l.303-.403-2.369-1.664-.353.403c-.403.554-.706.958-1.059 1.26-.907.907-1.512 1.26-1.814 1.058-.101-.101-.101-.151-.151-.202v-.353c0-.202.05-.503.151-.957.202-.403.403-1.008.655-1.714.403-1.109.806-2.218 1.109-3.226 0-.051.05-.202.05-.303.252-.907.403-1.814.555-2.671.05-.756.101-1.461.05-2.117-.05-.605-.151-1.209-.353-1.764-.05-.202-.202-.403-.252-.655-.151-.302-.252-.554-.454-.907.101.101.302.151.454.202.403.202.857.353 1.26.504 1.26.303 2.419.504 3.427.454 1.361-.05 2.57-.353 3.579-.958 1.057-.551 2.014-1.408 2.77-2.517zm-5.191-6.905a13.256 13.256 0 0 1-1.31 2.47c-.605.856-1.311 1.613-1.916 2.066-.604.554-1.209.857-1.814.958-.252 0-.555.101-.807.101-.555 0-1.159-.101-1.764-.202-.807-.303-1.714-.706-2.571-1.311l-1.713-1.21 5.846-8.265c.05-.151.151-.302.202-.353.202-.252.403-.454.555-.604.201-.202.302-.252.454-.252.353-.101.957.202 1.915.857.958.706 1.663 1.361 2.167 1.966.555.605.807 1.209.958 1.814.05.604-.001 1.31-.202 1.965zm72.878 147.269a5.125 5.125 0 0 0-.605-1.16c-.252-.403-.605-.655-1.008-.958-.403-.201-.806-.302-1.311-.454a6.655 6.655 0 0 0-1.411 0 2.401 2.401 0 0 0-1.209.555c-.807.453-1.361 1.209-1.512 2.066-.05.403-.05.907.101 1.311.05.403.252.806.605 1.209.252.353.605.604 1.008.907.353.202.807.403 1.26.454.504.05.957.05 1.36 0 .504-.05.907-.252 1.311-.454.807-.555 1.26-1.26 1.412-2.167a5.788 5.788 0 0 0-.001-1.309zm-13.558 2.923 3.175.555 2.268-12.953.605-3.276-.605-.05-2.57-.504-.504 2.822c-.051.252-.101.504-.252.706a.978.978 0 0 1-.251.454c-.101.05-.303.05-.504.101-.252 0-.604 0-1.008-.05l-18.749-3.326a18.557 18.557 0 0 0-3.528-.353c-1.059.101-2.066.202-2.873.504a8.87 8.87 0 0 0-2.52 1.361c-.706.605-1.462 1.411-2.167 2.268-.655.958-1.209 1.966-1.613 3.075a20.208 20.208 0 0 0-1.059 3.729c-.302 1.814-.353 3.579-.101 5.141.353 1.613.907 3.024 1.865 4.334.857 1.26 2.016 2.318 3.377 3.125 1.361.807 2.923 1.361 4.687 1.613l15.372 2.772c.655.05 1.361.252 1.865.554.555.202 1.059.554 1.461.857.706.706 1.008 1.512.807 2.52l-.202 1.361 3.175.554 2.167-12.55-3.125-.554-.202.958a2.378 2.378 0 0 1-.554 1.361c-.252.403-.605.655-1.059.958-.403.252-.958.403-1.613.454-.605.101-1.461 0-2.268-.101l-14.212-2.52c-.958-.202-1.815-.403-2.571-.756-.806-.252-1.411-.605-2.066-1.008-.504-.403-1.008-.807-1.31-1.21-.454-.504-.706-.907-.857-1.361a8.43 8.43 0 0 1-.403-4.334 8.438 8.438 0 0 1 1.008-2.671 5.531 5.531 0 0 1 1.764-1.815c.756-.453 1.664-.755 2.621-.907 1.008-.101 2.167-.05 3.377.151l18.497 3.326c.353 0 .555.05.756.201.202.051.302.152.403.202.05.152.101.202.101.354.101.05.101.201 0 .353zm11.391 4.788c-.252-.302-.604-.655-1.008-.856-.404-.201-.807-.403-1.311-.504a6.66 6.66 0 0 0-1.412 0c-.453.101-.856.303-1.26.504a5.277 5.277 0 0 0-.958.856c-.201.403-.403.807-.504 1.311a5.207 5.207 0 0 0 0 1.26c.151.353.303.705.504 1.058.05.05.101.101.101.202.303.302.706.655 1.059.857.403.252.857.403 1.361.454.454.101.907.101 1.311 0 .504-.05.907-.252 1.311-.454.806-.555 1.31-1.21 1.411-2.167.151-.403.101-.857 0-1.311-.101-.403-.353-.807-.605-1.21zm-17.136 20.211c-.151.353-.252.554-.403.756-.101.101-.202.252-.353.303-.151.101-.403.101-.604 0l-9.022-3.831-14.666-6.25-.504-.202c-.202-.051-.403-.202-.604-.353-.151-.101-.252-.303-.403-.454-.051-.151-.051-.201-.051-.353 0-.101 0-.252.051-.403l1.361-3.024-2.974-1.31-7.056 16.682a15.297 15.297 0 0 0-1.159 3.427c-.252 1.109-.403 2.167-.403 3.276 0 1.008.051 1.966.252 2.772.151.806.403 1.512.756 2.117.554.807 1.159 1.563 1.814 2.167.756.604 1.563 1.059 2.52 1.461a8.81 8.81 0 0 0 3.276.756c1.059 0 2.066-.202 3.125-.554 0-.05.05-.05.05-.05 1.008-.403 2.016-1.109 3.125-2.016.605-.605 1.209-1.361 1.814-2.167 0 .655 0 1.26.05 1.864.151 1.16.403 2.268.807 3.175a9.266 9.266 0 0 0 1.663 2.47c.655.655 1.563 1.209 2.52 1.613 1.059.504 2.218.706 3.276.706.504 0 .958-.101 1.361-.152a12.772 12.772 0 0 0 1.966-.604c1.109-.554 2.066-1.209 2.923-2.167a12.596 12.596 0 0 0 2.117-3.528l7.459-17.539-2.923-1.26zm-19.303 6.149c-.403 1.008-.958 1.865-1.512 2.469-.605.605-1.209 1.008-1.966 1.26a5.004 5.004 0 0 1-2.268.353h-.151c-.907-.051-1.915-.353-2.923-.807a8.81 8.81 0 0 1-2.52-1.512 6.146 6.146 0 0 1-1.36-1.764 6.131 6.131 0 0 1-.403-2.167c0-.756.202-1.461.554-2.369l1.563-3.629c.05-.101.151-.202.202-.302.05-.05.202-.05.353-.151h.454c.202.101.403.151.706.252l3.528 1.512 7.358 3.125zm15.221 3.124c-.05.353-.252.807-.454 1.412a21.168 21.168 0 0 1-1.613 2.923c-.554.706-1.109 1.159-1.563 1.361-.555.252-1.21.353-1.915.252-.252 0-.454-.05-.756-.101a19.801 19.801 0 0 1-1.865-.605c-1.109-.504-2.066-1.058-2.721-1.563-.706-.554-1.16-1.109-1.412-1.713-.302-.604-.403-1.26-.353-2.117.151-.807.353-1.764.806-2.823l1.16-2.671 4.384 1.915 5.645 2.369c.202.101.403.202.554.353.101.05.202.202.202.353v-.101c.052.152.001.403-.099.756zm10.836-81.395c.101.353 0 .604 0 .907-.05.101-.101.252-.202.403-.05.05-.101.101-.252.202-.202.05-.403.101-.655.101l-25.906 1.865c-.251 0-.453 0-.655-.101-.252 0-.353-.05-.454-.202-.101-.05-.202-.201-.252-.302-.051-.151-.151-.353-.151-.554l-.252-3.276-3.175.303 1.965 27.77h.454l13.104-.202h.503l-.202-2.923h-.403a35.388 35.388 0 0 1-4.939-1.008c-1.36-.454-2.419-.958-3.326-1.563-.857-.605-1.461-1.209-1.966-1.916-.403-.655-.655-1.361-.705-2.066l-.303-4.334c-.05-.554-.05-.958 0-1.26 0-.252.101-.403.151-.454a.972.972 0 0 1 .403-.202c.353-.151.655-.151 1.16-.202l25.2-1.764c.353 0 .605 0 .807.051.202 0 .353.101.403.151.151.05.202.202.303.403.05.202.101.454.101.807l.202 3.175 3.276-.252-1.21-16.683-3.226.303zm-8.518-35.785c.05.302.151.604.05.806 0 .202 0 .353-.05.454a.657.657 0 0 1-.403.302 2.377 2.377 0 0 1-.958.353l-18.497 4.788c-1.21.353-2.318.706-3.226 1.159-.958.504-1.764 1.008-2.469 1.663a9.42 9.42 0 0 0-1.664 2.268 9.491 9.491 0 0 0-1.058 2.974 15.715 15.715 0 0 0-.252 3.478c.05 1.21.252 2.52.605 3.78.503 1.865 1.159 3.377 2.117 4.738.857 1.361 2.016 2.369 3.376 3.175 1.361.857 2.823 1.311 4.385 1.461 1.563.101 3.226 0 4.99-.403l15.069-3.931c.706-.202 1.361-.303 1.966-.303s1.159.101 1.663.202c1.008.353 1.613.958 1.814 1.966l.353 1.311 3.074-.807-3.175-12.348-3.125.807.302.958c.151.554.151 1.008.05 1.512-.05.454-.252.857-.605 1.26-.252.403-.655.756-1.26 1.109a9.334 9.334 0 0 1-2.117.806l-13.96 3.578c-.958.252-1.815.403-2.672.454-.806.101-1.512 0-2.217-.101a6.888 6.888 0 0 1-1.814-.555c-.504-.201-.958-.554-1.311-.856-1.008-1.059-1.764-2.318-2.066-3.831-.302-1.008-.353-1.965-.302-2.822.151-.807.403-1.613.907-2.369a6.546 6.546 0 0 1 2.016-1.865c.806-.504 1.915-.907 3.125-1.26l18.195-4.687c.302-.151.554-.151.756-.151.151 0 .353 0 .403.101.151.05.202.05.303.202.05.05.101.202.202.353l.857 3.478 3.125-.806-4.133-15.927-3.024.857zm-38.959-5.796 2.822-1.512-1.512-2.974c-.101-.151-.151-.252-.151-.403-.101-.151 0-.252 0-.403.051-.202.353-.504.756-.706l6.401-3.376 5.241.907-7.459 10.886v.05c-.051 0-.051.101-.151.151 0 0-.05.05-.101.05 0 0-.101.101-.151 0-.151 0-.202 0-.353-.05-.101-.05-.252-.202-.403-.403-.202-.202-.353-.454-.555-.807l-.907-1.764-2.873 1.512 7.61 14.162 2.772-1.512-.806-1.512c-.151-.252-.202-.504-.303-.857-.05-.252-.05-.604-.05-.958.05-.252.151-.555.202-.806.151-.252.252-.605.454-.907l10.937-15.826 5.896 1.008c1.159.151 2.167.403 3.024.655.958.353 1.764.706 2.47 1.109.454.202.857.554 1.21.856.353.353.655.756.856 1.26l.706 1.159 2.772-1.512-6.351-12.046-2.873 1.462.605 1.209c.202.353.353.655.403.958.101.302.101.504 0 .756 0 .151-.05.252-.101.353l-.454.302a1.286 1.286 0 0 1-.807.252c-.251 0-.655 0-1.058-.101l-14.667-2.571 11.945-6.3c.202-.151.403-.201.604-.252.152 0 .303 0 .354.051.151 0 .201.05.353.201.202.202.302.454.454.756l1.411 2.621 2.873-1.461-7.611-14.314-2.822 1.512 1.26 2.369c.151.252.201.454.302.655v.403c-.101.151-.151.202-.202.353-.101.051-.202.202-.454.252l-23.234 12.399c-.202.101-.403.151-.504.201-.151 0-.303 0-.403-.05a.614.614 0 0 1-.454-.202 14.114 14.114 0 0 0-.403-.554l-1.209-2.369-2.822 1.512zm31.5 156.341c-.252-.353-.555-.705-.958-.958-.403-.302-.806-.504-1.26-.604a4.051 4.051 0 0 0-1.361-.101c-.958.151-1.714.555-2.218 1.311-.252.403-.454.806-.504 1.209-.05.403-.05.857.05 1.361.101.403.303.806.554 1.209.202.353.555.706.958.958.353.252.756.454 1.159.604h.05a2.54 2.54 0 0 0 1.361.051c1.008-.101 1.714-.504 2.217-1.26.303-.403.504-.756.555-1.21a2.337 2.337 0 0 0-.05-1.31c-.049-.454-.251-.857-.553-1.26zm-5.141 7.409c-.252-.403-.604-.655-1.008-.907-.403-.353-.807-.504-1.21-.655-.302-.05-.504-.05-.706-.101-.202 0-.453 0-.756.051-.907.05-1.663.554-2.167 1.31a2.205 2.205 0 0 0-.503 1.209c-.101.403-.101.857.05 1.26.051.504.252.907.555 1.311.202.403.504.655.907 1.008.454.302.857.403 1.31.555.202.05.403.05.605.151.302 0 .504 0 .756-.101.958-.05 1.713-.555 2.217-1.26.202-.403.403-.807.504-1.26a5.631 5.631 0 0 0 0-1.311c-.151-.403-.352-.908-.554-1.26zm-7.711-7.913 2.571 1.814 2.217-3.175 4.486-6.35 2.772-3.931-2.621-1.814-.151.202-1.512 2.066c-.202.303-.302.504-.504.605a.618.618 0 0 1-.454.202c-.101 0-.302 0-.504-.05-.202-.151-.555-.252-.807-.555l-.706-.403-14.969-10.483c-1.058-.756-2.117-1.31-3.024-1.764-.958-.403-1.915-.706-2.873-.756-.857-.151-1.814-.05-2.772.151-.958.252-1.966.605-2.924 1.159-1.008.504-1.965 1.26-2.822 2.066-.907.807-1.714 1.764-2.521 2.923-1.108 1.562-1.814 3.125-2.217 4.687-.403 1.562-.504 3.125-.202 4.688.252 1.461.857 2.873 1.764 4.183.856 1.311 2.066 2.52 3.478 3.528l12.801 8.921c.655.403 1.109.907 1.512 1.31.403.454.655.958.907 1.412.403.957.302 1.814-.302 2.671l-.756 1.058 2.57 1.916 7.358-10.433-2.571-1.865-.655.857c-.252.403-.655.706-1.058.908-.403.302-.806.403-1.361.403-.454.101-1.008 0-1.613-.252-.706-.202-1.311-.554-2.066-1.059l-11.743-8.266c-.857-.554-1.512-1.159-2.117-1.713a12.715 12.715 0 0 1-1.361-1.764v-.05a6.352 6.352 0 0 1-.756-1.713c-.101-.555-.202-1.059-.101-1.563.05-1.461.605-2.823 1.461-4.083.605-.857 1.311-1.563 1.966-2.016.756-.453 1.563-.756 2.419-.856.856-.101 1.764 0 2.721.302.958.302 1.966.856 2.974 1.563l15.423 10.785c.251.151.453.353.604.454.101.151.202.302.202.454.05.101.05.201.05.302-.05.101-.05.202-.151.353z" style="fill:#e32219" transform="translate(1 1) scale(.62996)"/></svg>