<svg xmlns="http://www.w3.org/2000/svg" xml:space="preserve" width="316px" height="316px" x="0px" y="0px" viewBox="0 0 600 600"><path fill="#3E4549" d="M300.953 600.6c165.428 0 300.3-134.872 300.3-300.3 0-165.333-134.872-300.3-300.3-300.3C135.62 0 .747 134.966.747 300.3c0 165.427 134.873 300.3 300.206 300.3z"/><path fill="#FFF" d="M300.953 591.472c160.395 0 291.173-130.868 291.173-291.172 0-160.303-130.778-291.079-291.173-291.079C140.652 9.221 9.875 139.996 9.875 300.3s130.777 291.172 291.078 291.172z"/><path fill="#454545" d="M300.953 498.142c108.98 0 197.843-88.956 197.843-197.842 0-108.887-88.862-197.749-197.843-197.749-108.886 0-197.746 88.86-197.746 197.749.001 108.886 88.86 197.842 197.746 197.842z"/><path fill="#E20025" d="M134.223 212.556c31.018-58.68 92.122-99.197 162.539-100.783-20.864 28.039-46.759 53.186-76.471 71.445-17.885 10.896-37.072 19.374-57.38 24.496-9.498 2.42-19 3.912-28.688 4.842zM273.754 486.961c-91.001-13.318-161.327-92.025-161.327-186.661 0-25.894 5.31-50.672 14.809-73.212.28 4.472.561 8.942 1.027 13.318 4.657 46.387 21.609 93.89 47.41 137.201 25.244 42.105 58.962 80.2 98.081 109.354zM474.763 227.088a188.196 188.196 0 0 1 14.808 73.212c0 94.636-70.322 173.343-161.324 186.661 39.12-29.154 72.84-67.249 98.08-109.354 26.175-43.868 43.221-92.119 47.597-139.063.373-3.818.652-7.638.839-11.456zM305.146 111.772c70.509 1.586 131.612 42.104 162.629 100.783-8.009-.744-16.019-1.954-24.031-3.725-21.983-4.937-42.845-13.88-62.03-25.614-29.716-18.256-55.61-43.405-76.568-71.444z"/><path fill="#163962" d="M159.279 213.116h283.442c-22.45-5.029-43.688-14.158-63.245-26.175-30.553-18.723-57.194-44.616-78.524-73.492-21.236 28.876-47.783 54.771-78.428 73.492-19.558 12.017-40.795 21.146-63.245 26.175zM204.269 318.835h-52.348a367.49 367.49 0 0 0 27.571 56.448c26.267 43.962 61.848 83.459 103.298 112.703 2.701.28 5.308.467 8.011.653 1.49-9.038.744-50.766.466-52.723-1.864-2.142-3.726-3.442-5.868-4.284-2.331-.838-5.123-1.21-8.57-1.303-3.259 0-5.96.28-8.569.837-2.608.464-5.308 1.306-8.568 2.423-2.982.932-5.403 1.863-8.012 1.863-2.795 0-5.402-1.024-8.383-3.912-.558-.467-1.023-.931-1.583-1.491-2.236-2.236-4.472-4.473-6.985-4.473-3.076.094-5.869-.278-8.383-1.024a17.593 17.593 0 0 1-6.799-3.818c-4.379-4.192-4.379-10.06-4.285-14.812 0-2.046 0-3.727-.373-4.472-.561-1.211-2.515-2.7-4.937-4.099-2.609-1.582-5.589-3.073-7.918-4.098-4.192-1.863-6.798-5.03-8.381-8.755-1.399-3.54-1.864-7.732-1.771-11.738.094-1.77.094-3.446-.187-4.936-.186-1.211-.466-2.235-1.022-2.796l-.093-.091c-1.306-1.491-2.702-3.076-3.728-5.032-1.116-2.046-1.86-4.469-1.86-7.355 0-2.517.744-4.659 1.954-6.242 1.493-1.955 3.634-3.076 5.59-3.076 4.657-.183 9.221 4.286 12.109 7.27.279.184.466.464.743.65 1.305 1.398 2.89 2.886 4.472 4.099 1.583 1.116 3.169 2.049 4.75 2.423 3.167.743 5.684.649 7.825.556h.374c3.818-.093 6.611.374 8.94 1.863 2.33 1.398 4.006 3.635 5.683 7.172 1.862 3.727 3.354 3.727 6.055 3.727.931-.093 1.863-.093 2.98 0 6.054.281 7.544 3.074 9.967 7.636.373.748.744 1.493 1.21 2.143.932 1.68 1.77 2.981 2.702 4.1.838.934 1.583 1.585 2.236 2.049 1.023.561 1.956.748 3.074 1.024 1.863.374 4.005.842 7.359 2.984 2.049 1.305 3.445 3.166 4.47 5.305.932 2.051 1.492 4.289 1.956 6.522 1.027 4.472 1.77 8.476 3.354 11.457 1.489 2.89 3.819 5.122 8.102 6.709 0-.468.094-.935.094-1.587.744-13.97 1.024-22.82.28-28.687-.56-5.312-2.049-8.01-4.844-9.877-8.568-5.959-17.511-11.921-25.709-17.322-8.102-5.124-15.553-9.689-21.423-12.575-1.022-.187-2.141-.37-3.26-.464-1.303-.094-2.42-.094-3.539-.187h-1.118c-5.494-.094-10.618-.28-16.3-4.193-3.353-2.329-5.773-5.032-7.078-8.008-1.211-2.891-1.306-6.054.187-9.039.279-.556.559-.93.743-1.301.56-1.117.838-1.587-.093-2.517-1.49-1.399-3.073-3.261-4.098-5.31a3.239 3.239 0 0 1-.47-1.019zM279.717 318.835h-49.182c1.21 1.587 2.981 1.956 4.846 2.423 1.86.372 3.818.838 5.866 2.051a14.12 14.12 0 0 1 4.286 3.911c1.21 1.677 2.143 3.818 2.699 6.335.187.93.28 1.488.374 2.049.373 2.05.651 3.446 3.167 5.4 9.314 6.895 18.349 12.762 26.545 18.163 5.869 3.726 11.272 7.267 16.022 10.713l-.093-.093c.093 0 .187.093.279.093.094-1.023 0-2.329-.186-3.724a69.3 69.3 0 0 0-1.024-5.033c-6.986-8.383-11.365-14.158-13.971-19.094-2.795-5.402-3.541-9.781-3.074-15.273.186-2.237.838-4.38 2.234-6.336.281-.561.746-1.121 1.212-1.585zM378.265 318.835H321.07c-.833 1.024-1.675 2.049-2.513 2.887 1.862 2.144 3.167 4.193 4.098 6.242 1.307 2.703 1.771 5.215 1.771 7.731-.094 5.217-2.42 9.778-5.681 13.881-2.887 3.817-6.521 7.078-9.965 9.965a25.866 25.866 0 0 0-.467 4.843c0 1.865.187 3.634.467 4.936.09 0 .184.094.277.188h.28c.093 0 .093 0 .187-.094h.094a480.16 480.16 0 0 1 5.772-3.257c11.458-6.432 25.15-14.067 38.47-23.755 1.212-.931 1.956-1.862 2.517-2.98.464-1.209.65-2.606.65-4.285.094-2.606.838-4.936 1.956-6.798a15.496 15.496 0 0 1 5.216-5.217c2.423-1.399 5.123-1.399 7.732-1.306 2.236 0 4.376.094 5.31-1.305.371-.464.651-1.118 1.024-1.676zM309.988 488.733c3.072-.187 6.146-.374 9.221-.747 41.449-29.245 77.032-68.742 103.3-112.704a367.24 367.24 0 0 0 27.569-56.447H403.6c-.464 1.024-1.023 1.956-1.582 2.794-1.024 1.585-2.143 2.89-3.261 4.194-1.862 2.234-1.955 5.307-1.955 8.287 0 5.776 0 11.456-9.222 15.091-3.26 1.212-5.683 1.863-8.013 2.236-2.326.467-4.472.467-7.358.557-2.049.094-4.006.188-5.773.468-1.772.276-3.354.743-4.939 1.769a607.408 607.408 0 0 1-11.733 6.799c-12.016 6.896-26.456 15.277-33.16 21.146-2.606 2.236-4.284 4.843-5.31 9.969-1.023 5.492-1.21 13.88-.837 27.569.093 1.675.093 2.235.093 2.235.184.091 1.212-.467 2.42-1.023 2.24-1.117 4.846-2.983 6.896-4.847 1.862-1.675 3.163-3.162 3.35-3.911.094-.467.28-1.489.468-2.606 1.211-5.867 2.979-14.718 7.732-17.791 2.329-1.583 4.842-1.956 7.448-2.329 1.681-.188 3.354-.464 4.753-1.024.65-.188 1.306-1.862 2.049-3.818 1.77-4.659 3.912-10.339 11.552-10.619.93-.094 1.862-.094 2.793-.094 3.54 0 6.428 0 8.382-3.911 1.771-3.541 3.258-5.684 5.403-7.082 2.143-1.489 4.749-1.862 8.57-1.769h1.021c2.796.094 8.293.279 11.18-.371 2.143-.467 2.793-1.211 3.817-2.423.562-.65 1.122-1.306 1.956-2.143.374-.37.748-.743 1.118-1.117 2.419-2.513 4.472-4.655 8.851-4.563 1.489.092 3.257.278 4.842 1.118 1.863 1.021 3.168 2.793 3.168 5.961 0 1.769-.748 4.004-1.77 6.146-1.027 2.236-2.609 4.565-4.005 6.147l-.093.094c-.561.556-1.118 2.049-1.587 3.911-.557 2.329-.93 4.936-.836 6.708.092 4.006-.094 7.636-1.212 10.803-1.21 3.447-3.537 6.15-7.822 8.01-1.585.746-3.354 1.305-4.936 1.865-3.354 1.117-6.615 2.236-7.826 4.005-.468.65-.65 2.888-.931 5.404-.467 4.841-.931 10.614-4.752 13.225-1.957 1.399-4.283 2.049-6.893 2.419-2.517.374-5.215.374-8.195.374-1.306 0-2.609.65-4.006 1.492-1.959 1.301-3.817 3.354-5.216 5.029-5.589 6.798-10.151 4.749-15.835 2.236-1.306-.558-2.606-1.117-4.006-1.68-2.143-.649-4.378-1.395-6.798-1.862-2.236-.464-4.565-.837-6.708-.744-3.541 0-6.615.28-9.222 1.118-2.33.743-4.285 2.049-6.146 4.005-.561 3.538-.467 33.066-.374 39.213.093 4.377.28 8.757.838 13.228z"/><path fill="#FFED00" d="M470.665 217.586H131.337c.372 31.95 7.079 64.736 18.907 96.871h52.906v-.37c0-.934 0-1.863.187-2.703.465-2.609 1.676-4.566 3.352-5.866 1.678-1.307 3.727-1.862 5.963-1.862.93-.099 1.862 0 2.795.187 2.049.369 4.098.93 6.053 2.049a14.318 14.318 0 0 1 5.123 4.933c.84 1.4 1.397 2.517 1.862 3.634h51.697c-1.678-2.326-3.167-4.937-4.284-7.729-1.679-4.102-2.61-8.476-2.236-13.041.186-2.516 1.024-4.844 2.515-6.986 1.118-1.677 2.7-3.352 4.657-4.937l-.28-1.396c-1.956-8.196-4.47-18.907 10.712-28.875.279-5.589 1.023-9.873 2.793-13.227 1.957-3.818 4.842-6.426 9.408-8.103h1.49c4.565 1.677 7.821 4.564 9.781 8.755 1.862 3.726 2.514 8.475 2.14 14.159 13.042 12.575 8.382 22.449 5.775 27.756 1.677 1.77 3.167 3.819 4.286 6.054 1.676 3.262 2.61 6.708 2.794 9.315.279 4.47-1.118 9.408-3.261 13.88-.65 1.49-1.488 2.98-2.326 4.376h56.631c.373-.557.747-1.211 1.118-1.862 1.397-2.236 2.793-3.82 4.564-4.937 1.77-1.117 3.725-1.676 5.867-1.863 1.582-.092 3.26.094 4.749.465 1.866.468 3.634 1.306 5.033 2.513 1.395 1.399 2.419 3.076 2.513 5.219v.464h47.133c11.83-32.137 18.537-64.922 18.911-96.873z"/><path fill="#39A642" d="M305.332 488.827c-1.492.09-2.888.09-4.379.09-1.769 0-3.54 0-5.216-.09.187-2.143.28-6.429.373-8.57.187-5.216.187-11.179.187-16.489 0-.928.093-1.77.093-2.606 0-4.843 0-10.433-.093-15.368-.094-4.937-.373-9.222-.84-11.364l-.465-.935c-2.42-2.976-5.029-4.842-8.009-5.959-2.889-1.115-6.147-1.489-10.154-1.583-3.446-.094-6.426.277-9.406.838-2.98.649-5.776 1.493-9.13 2.609-2.608.837-4.75 1.676-6.612 1.582-1.676 0-3.354-.649-5.402-2.606-.467-.466-.932-.934-1.398-1.398-2.887-2.89-5.867-5.773-10.245-5.773-2.609 0-4.937-.187-6.986-.841-1.956-.557-3.633-1.488-5.123-2.886-2.98-2.793-2.889-7.636-2.889-11.453 0-2.61 0-4.848-.744-6.522-1.023-2.053-3.632-4.102-6.615-5.959-2.793-1.684-5.96-3.171-8.476-4.29-2.979-1.306-4.937-3.631-6.055-6.428-1.21-2.888-1.49-6.425-1.397-9.965 0-1.862 0-3.912-.278-5.684-.28-2.144-.931-3.912-2.329-5.31l.092.097c-1.117-1.305-2.327-2.609-3.165-4.192a11.038 11.038 0 0 1-1.306-5.216c0-1.492.466-2.699 1.117-3.54.652-.838 1.492-1.398 2.236-1.398 2.702-.094 6.427 3.539 8.851 5.959.279.284.464.468.65.748 1.49 1.491 3.166 3.073 5.032 4.468 1.953 1.493 4.189 2.704 6.425 3.171 3.727.837 6.522.743 8.85.743h.373c2.982-.094 5.029.185 6.519 1.118 1.493.931 2.702 2.606 4.1 5.399 3.074 6.244 5.497 6.244 10.059 6.15h2.703c3.54.183 4.562 2.139 6.24 5.399.373.653.745 1.306 1.305 2.236 1.025 1.862 2.141 3.446 3.167 4.659 1.117 1.398 2.234 2.418 3.353 3.072 1.676.932 2.979 1.212 4.378 1.493 1.49.369 3.26.743 5.959 2.418 1.211.839 2.145 2.051 2.795 3.449.744 1.675 1.306 3.631 1.678 5.492 1.023 4.938 1.769 9.038 3.724 12.671 1.957 3.816 5.032 6.799 10.526 8.755 2.702 1.023 4.1.557 5.123-1.117.747-1.118.747-2.423.836-4.38.747-14.157 1.118-23.189.374-29.436-.837-6.797-2.886-10.339-6.799-12.943-8.662-5.961-17.604-12.02-25.893-17.324-8.29-5.403-16.022-10.063-22.075-13.042l-.558-.188c-1.491-.276-2.796-.464-4.007-.557-1.209-.094-2.515-.188-3.726-.188h-1.21c-4.75-.187-9.316-.28-13.88-3.446-2.609-1.862-4.562-3.911-5.496-6.054-.744-1.769-.837-3.631.094-5.402.187-.371.373-.837.559-1.209 1.769-3.167 2.609-4.566-.931-7.826-1.21-1.023-2.33-2.516-3.167-4.098-.652-1.212-1.117-2.517-1.117-3.819 0-.652.092-1.305.187-1.862.186-1.491.837-2.516 1.676-3.076.838-.651 2.047-1.021 3.353-1.021.651 0 1.303.089 1.956.187 1.583.276 3.167.74 4.657 1.489 1.304.742 2.608 1.861 3.54 3.443 1.023 1.679 1.49 2.983 1.957 4.191.557 1.211.931 2.33 1.769 3.54 2.143 3.354 4.844 4.006 7.825 4.657 1.49.373 3.074.653 4.565 1.585 1.117.654 2.141 1.491 2.887 2.703.931 1.209 1.583 2.7 2.047 4.749.095.556.187 1.21.374 1.769.466 3.073.84 5.216 4.843 8.196 9.221 6.896 18.442 12.855 26.825 18.258 5.776 3.818 11.179 7.262 15.835 10.615.745.468 1.396.842 2.049 1.028a4.518 4.518 0 0 0 2.234 0c.745-.187 1.397-.654 1.863-1.398.279-.374.373-.745.56-1.118.464-1.77.37-4.006 0-6.335-.28-2.236-.56-4.935-1.583-6.985-6.893-8.288-11.271-13.88-13.694-18.629-2.329-4.473-2.979-8.196-2.606-12.854.186-1.492.557-2.98 1.489-4.286 1.676-2.419 4.285-3.725 6.799-5.216-3.726-3.818-6.893-7.542-8.942-12.574-1.397-3.446-2.234-7.264-1.957-10.99.187-1.769.746-3.354 1.771-4.843 1.582-2.33 3.726-4.005 5.959-5.682-.93-4.286-2.327-8.476-2.143-12.854.187-7.917 5.684-12.76 12.016-16.767.093-4.47.28-9.595 2.236-13.691 1.306-2.61 3.354-4.379 6.333-5.684 2.982 1.399 5.218 3.447 6.613 6.243 2.049 4.376 1.865 9.313 1.493 14.065 4.378 4.003 8.568 8.849 8.753 15.181.094 4.47-2.143 8.103-3.817 12.109 2.517 1.956 4.285 3.818 5.772 6.706 1.306 2.702 2.146 5.588 2.333 7.731.187 3.633-1.027 7.731-2.891 11.646-2.512 5.307-5.772 9.404-10.244 13.222 2.517 2.516 4.936 5.032 6.428 8.387a13.306 13.306 0 0 1 1.306 5.773c-.094 4.098-1.957 7.914-4.66 11.27-2.792 3.635-6.518 6.892-9.965 9.781-1.398 2.233-1.398 5.123-1.398 7.729 0 2.236.187 4.472.652 6.147.093.373.278.837.56 1.117a4.208 4.208 0 0 0 2.143 1.865c1.023.37 2.142.558 3.259.277.37-.091.838-.277 1.212-.557 2.606-1.493 4.191-2.33 5.772-3.262 11.551-6.428 25.52-14.254 38.934-24.031 1.959-1.398 3.171-2.98 3.916-4.843.743-1.772 1.023-3.727 1.114-5.869 0-1.771.561-3.351 1.307-4.657 1.026-1.678 2.329-2.885 3.539-3.633 1.399-.838 3.541-.744 5.497-.744 3.54.094 6.892.187 9.127-3.261a52.838 52.838 0 0 0 2.236-3.817c.65-1.211 1.489-2.61 2.423-4.192 1.021-1.68 2.05-2.793 3.164-3.54 1.121-.744 2.329-1.025 3.82-1.118a10.56 10.56 0 0 1 3.447.28c1.209.278 2.232.838 3.073 1.493a2.83 2.83 0 0 1 1.023 2.232c.09.374 0 .841-.093 1.305-.28 1.306-.931 2.517-1.772 3.635-.744 1.211-1.862 2.513-2.887 3.725-2.979 3.54-2.979 7.358-2.979 11.177 0 4.286 0 8.476-6.429 10.898-2.98 1.212-5.123 1.771-7.172 2.144-1.956.277-4.005.371-6.705.464-2.235.094-4.284.094-6.432.468-2.232.374-4.375 1.023-6.518 2.329-3.074 1.862-7.172 4.191-11.551 6.798-12.202 6.989-26.92 15.462-33.998 21.609-3.261 2.983-5.496 6.147-6.614 12.481-1.118 5.869-1.399 14.53-.932 28.597.094 4.006 1.307 5.773 3.354 6.332 1.769.467 3.442-.371 5.493-1.396 2.608-1.306 5.589-3.354 7.918-5.498 2.42-2.142 4.283-4.467 4.656-6.146.187-1.116.373-1.862.561-2.794 1.024-5.121 2.513-12.851 5.773-14.997 1.491-.931 3.539-1.208 5.684-1.582 1.861-.277 3.724-.561 5.68-1.306 2.423-.837 3.446-3.443 4.565-6.335 1.305-3.443 2.887-7.636 7.639-7.822.931-.094 1.862-.094 2.606-.094 5.123 0 9.222 0 12.389-6.334 1.398-2.793 2.423-4.472 3.727-5.403h.093c1.307-.837 3.074-1.024 6.055-1.024.275 0 .556.094 1.023.094 2.979.094 8.755.276 12.294-.561 3.541-.743 4.565-1.956 6.242-3.911.374-.557.93-1.115 1.582-1.77.464-.467.841-.837 1.211-1.21 1.679-1.77 3.076-3.262 5.589-3.168.932 0 2.051.093 2.794.467.467.278.841.932.841 2.143 0 1.118-.468 2.607-1.307 4.283-.84 1.865-2.052 3.727-3.259 5.032l.09-.094c-1.209 1.211-2.139 3.447-2.793 5.961-.651 2.703-1.024 5.775-1.024 7.916.093 3.54 0 6.708-.837 9.22-.841 2.334-2.513 4.196-5.496 5.498-1.307.649-2.98 1.21-4.563 1.679-4.01 1.395-7.92 2.699-9.969 5.679-1.209 1.675-1.489 4.378-1.77 7.547-.374 3.911-.743 8.476-2.891 9.965-1.301.934-3.068 1.398-5.024 1.678-2.144.371-4.66.371-7.546.371-2.237 0-4.38.84-6.429 2.236-2.419 1.582-4.655 3.915-6.24 5.869-3.448 4.191-6.616 2.793-10.62 1.024-1.399-.654-2.793-1.305-4.375-1.771-2.236-.838-4.753-1.49-7.266-2.05-2.61-.559-5.22-.931-7.731-.931-3.913.092-7.359.372-10.433 1.398-3.261 1.118-6.054 2.887-8.57 5.773l-.464.93c-.839 3.635-.745 13.506-.652 22.357v4.562c0 4.38 0 9.318.094 13.881 0 1.493.093 2.983.093 4.378.101 2.243.288 6.621.474 8.857z"/><path fill="#454545" d="M305.796 263.973c-1.769 2.515-3.071 5.123-4.099 7.918-.279.929-.65 1.956-.84 2.886 0 .187-.092.373-.184.651a31.597 31.597 0 0 0-.56 4.285c-.373 6.706 1.305 12.388 2.981 17.978 1.304 4.097 2.513 8.291 3.074 12.947 0 .28 0 .557.09.837 1.398-.743 2.89-1.956 4.382-3.818.65-.93 1.399-1.675 2.419-.93 1.028.743.562 1.769-.187 2.698-2.049 2.704-4.281 4.379-6.428 5.123a60.147 60.147 0 0 1-.558 10.063c-.557 3.351-1.584 6.425-3.073 8.754-.743 1.023-1.862 1.862-2.792 1.117-1.121-.836-.28-1.862.372-2.886 1.21-1.863 2.05-4.566 2.609-7.453.466-2.979.557-6.053.557-8.943-1.396.093-2.793-.184-4.004-.651-1.583-.65-2.887-1.675-3.819-2.98-1.396-1.675-2.143-3.911-1.956-6.146.094-1.024.466-1.957 1.675-1.679 1.306.187 1.211 1.026 1.118 2.146 0 1.396.467 2.794 1.305 3.908.747.841 1.677 1.586 2.796 2.054.837.279 1.676.463 2.701.372-.092-.372-.092-.84-.186-1.213-.465-4.47-1.677-8.474-2.889-12.481-1.769-5.869-3.539-11.735-3.165-18.907.092-1.399.277-2.61.464-3.913a11.373 11.373 0 0 1-1.77-1.863c-.652-.931-1.117-1.769-1.49-3.447-.187-.744-.28-1.769 1.022-2.049 1.211-.279 1.586.653 1.773 1.396.277 1.211.557 1.77 1.022 2.331.094.185.187.278.28.372.187-.467.371-1.024.558-1.585 1.027-2.98 2.516-5.68 4.378-8.476.371-.652 1.212-1.21 2.144-.559.84.559.744 1.491.28 2.143zM390.649 379.563c-10.521 12.672-19.93 17.421-28.219 21.706-6.709 3.444-12.668 6.518-18.071 13.319-.558.743-1.862.93-2.606.28-.748-.654-.841-1.862-.28-2.517 5.867-7.453 12.201-10.713 19.279-14.344 8.013-4.103 16.955-8.758 27.109-20.864.557-.651 1.77-.838 2.605-.188.744.652.838 1.864.183 2.608zM215.167 373.604c10.154 12.575 19.096 17.234 27.105 21.426 6.985 3.725 13.228 6.984 19 14.437.56.743.746 1.862-.279 2.61-.93.556-2.049.369-2.609-.377-5.216-6.799-11.178-9.966-17.79-13.413-8.29-4.378-17.697-9.218-28.317-22.354-.557-.742-.464-1.955.28-2.604.748-.656 2.05-.47 2.61.275z"/><path fill="#3E4549" d="m525.246 460.881 6.149 4.286-3.913 5.589-6.146-4.285zM533.073 449.704l6.147 4.285-3.914 5.589-6.149-4.283zM516.4 467.776l-4.1 5.772-25.429-17.791c-4.38-3.072-7.546-6.054-9.409-8.848-1.956-2.796-2.793-6.146-2.606-9.875.184-3.725 1.77-7.729 4.749-12.014 2.887-4.099 5.96-6.986 9.222-8.57 3.26-1.676 6.615-2.049 10.059-1.306 3.54.744 7.546 2.794 12.205 6.057l25.426 17.788-4.005 5.776-25.431-17.791c-3.817-2.606-6.888-4.286-9.218-4.847-2.239-.557-4.565-.276-6.708.747-2.235 1.025-4.192 2.795-5.963 5.312-2.978 4.285-4.096 8.008-3.443 11.27.653 3.167 3.725 6.611 9.221 10.525l25.43 17.795zM573.311 347.616l7.453 1.212-1.119 6.8-7.36-1.211zM575.453 334.11l7.453 1.211-1.119 6.802-7.362-1.213zM568.375 357.678l-1.118 7.078-30.646-4.846c-5.308-.837-9.407-2.139-12.388-3.817-2.979-1.77-5.121-4.283-6.614-7.729-1.488-3.541-1.769-7.827-1.021-12.855.837-5.029 2.326-8.941 4.563-11.831 2.143-2.886 5.032-4.748 8.476-5.586 3.447-.841 8.01-.841 13.6.094l30.642 4.842-1.114 6.985-30.557-4.843c-4.655-.744-8.103-.837-10.429-.28-2.33.468-4.192 1.68-5.776 3.54-1.489 1.957-2.513 4.376-2.979 7.449-.838 5.124-.188 9.038 1.771 11.551 2.049 2.61 6.332 4.382 12.945 5.403l30.645 4.845zM519.379 276.081l53.651-1.862.281 6.987-47.32 1.675.84 26.453-6.333.187zM569.212 247.952l1.676 6.893-30.085 7.451c-5.217 1.303-9.595 1.771-12.949 1.399-3.351-.467-6.424-1.957-9.127-4.565-2.7-2.609-4.656-6.426-5.867-11.458-1.305-4.842-1.398-9.127-.464-12.575.834-3.537 2.7-6.427 5.587-8.475 2.887-2.142 7.078-3.913 12.571-5.309l30.089-7.452 1.772 6.893-30.089 7.453c-4.563 1.117-7.729 2.42-9.686 3.725-1.955 1.399-3.261 3.26-3.914 5.589-.651 2.328-.558 5.029.187 8.01 1.21 5.029 3.26 8.383 6.146 9.967 2.793 1.583 7.452 1.583 14.066-.093l30.087-7.453zM487.521 183.96l47.414-25.242 3.351 6.242-23.473 12.575 36.048 10.991 4.472 8.474-29.806-9.593-17.136 35.768-4.379-8.289 14.995-29.715-11.646-3.723-16.484 8.755zM302.164 63.058l6.799-.092c.094 2.7.654 4.936 1.679 6.706 1.118 1.862 2.793 3.354 5.123 4.563 2.325 1.211 5.029 1.956 8.103 2.143 2.7.187 5.123 0 7.266-.652 2.143-.653 3.726-1.677 4.842-2.98 1.118-1.399 1.772-2.888 1.866-4.563.093-1.677-.28-3.167-1.214-4.473-.835-1.305-2.42-2.515-4.563-3.446-1.399-.746-4.473-1.77-9.315-3.354-4.843-1.49-8.289-2.887-10.15-4.005-2.425-1.583-4.286-3.354-5.403-5.402-1.118-2.05-1.587-4.377-1.399-6.799.187-2.702 1.118-5.216 2.89-7.452 1.676-2.236 4.005-3.818 7.079-4.843 2.979-1.024 6.335-1.397 9.965-1.21 3.916.279 7.358 1.21 10.339 2.7 2.98 1.49 5.123 3.54 6.615 6.147 1.488 2.609 2.143 5.496 2.05 8.57l-6.8.093c-.187-3.447-1.214-6.056-3.263-7.918-1.957-1.956-5.025-2.979-9.125-3.26-4.288-.279-7.456.28-9.501 1.677-2.05 1.396-3.171 3.26-3.354 5.496-.186 1.956.464 3.539 1.77 4.842 1.211 1.399 4.749 2.889 10.433 4.566 5.586 1.769 9.502 3.166 11.551 4.283 3.073 1.677 5.216 3.633 6.518 5.96 1.399 2.329 1.96 4.937 1.773 7.732-.28 2.887-1.212 5.495-3.074 7.916-1.769 2.423-4.285 4.193-7.452 5.403-3.167 1.211-6.615 1.677-10.432 1.399-4.847-.374-8.851-1.305-12.015-2.982-3.167-1.676-5.59-4.005-7.268-6.892-1.682-2.979-2.426-6.332-2.333-9.873zM237.15 89.976 225.04 37.63l37.817-8.755 1.398 6.146-30.832 7.172 3.633 16.022 28.967-6.706 1.399 6.148-28.876 6.706 4.099 17.79 32.136-7.358 1.396 6.148zM222.711 91.375c2.33-4.376 2.982-9.499 1.957-15.461l-7.266 1.21c.931 4.565.653 8.382-.933 11.644-1.582 3.259-4.192 5.682-7.823 7.266-2.981 1.304-6.148 1.77-9.408 1.396-3.259-.372-6.146-1.862-8.757-4.47-2.606-2.516-4.842-5.96-6.706-10.061-1.398-3.259-2.33-6.613-2.608-10.152-.373-3.447.279-6.706 2.05-9.688 1.77-2.886 4.47-5.215 8.289-6.892 3.259-1.492 6.333-1.862 9.222-1.21 2.886.744 5.682 2.515 8.382 5.588l5.776-4.285c-3.354-4.005-7.267-6.426-11.737-7.451-4.472-1.026-9.128-.466-14.065 1.769-4.283 1.956-7.825 4.66-10.524 8.199-2.702 3.631-4.192 7.731-4.473 12.388-.279 4.75.747 9.592 2.98 14.717 2.144 4.657 4.937 8.662 8.477 12.016 3.539 3.259 7.452 5.308 11.737 5.959 3.145.479 6.544.147 10.231-.98l.574 6.479c1.582-.654 2.792-1.118 3.632-1.213.747-.092 1.397 0 1.769.189.374.186.653.557.837.931 1.306 2.7-2.7 5.216-4.283 5.867-.651.28-1.678.746-3.167 1.305l-.094 3.539c1.583-.373 4.657-1.399 6.429-2.236 3.258-1.396 5.402-3.167 6.425-5.123 1.024-1.956 1.21-3.82.467-5.495-.56-1.211-1.491-2.051-2.889-2.515-1.396-.561-3.074-.466-5.776.372l-.269-3.446c.153-.067.304-.12.456-.187 5.127-2.239 8.853-5.59 11.088-9.969zM148.942 140.834l-33.068-42.287 5.591-4.379 13.598 17.419 21.983-17.232-13.601-17.417 5.681-4.378 33.068 42.379-5.684 4.379-15.554-19.933-21.98 17.139 15.553 19.934zM160.583 487.055l17.047-12.759-6.799 20.398 16.486 12.388H166.73l-6.147 18.815-6.147-18.815h-20.49l16.392-12.388-6.706-20.398zM342.311 522.917l-1.493-5.683 31.392-7.822 1.21 4.656c-2.235 4.005-4.285 9.127-5.959 15.368a79.836 79.836 0 0 0-2.797 18.537c-.184 4.375.188 9.034 1.023 13.877l-6.144 1.586c-.841-3.819-1.212-8.663-1.212-14.44.094-5.773.932-11.455 2.326-17.137 1.399-5.681 3.171-10.619 5.403-14.813l-23.749 5.871zM231.094 560.545l-5.866-1.769 10.524-36.604-10.618-3.169 1.49-4.936c6.429 1.678 9.873 1.861 13.972-3.074l4.378 1.21-13.88 48.342zM441.508 487.055l-17.137-12.759 6.801 20.398-16.486 12.388h20.584l6.238 18.815 6.149-18.815h20.491l-16.391-12.388 6.613-20.398zM133.106 443.276l-44.057 30.833-20.772-29.714 5.216-3.63 16.674 23.936 13.691-9.596-14.53-20.583 5.214-3.727 14.439 20.678 20.026-13.97zM80.944 314.83l-53.743-1.865 1.396-38.652 6.334.185-1.118 31.577 16.394.653 1.117-29.623 6.241.094-1.024 29.712 18.255.654 1.212-32.881 6.333.186zM89.513 365.406l-52.998 8.385-1.213-7.173 37.26-34.464-41.636 6.616-1.023-6.709 52.998-8.476 1.117 7.265-37.258 34.463 41.73-6.611zM108.609 408.441l-49.087 21.795-15.742-35.487 5.776-2.514 12.852 28.968 15.09-6.708L65.39 387.39l5.774-2.607 12.111 27.196 16.671-7.449-13.412-30.179 5.775-2.516zM302.725 546.019c-.467-5.961-.28-10.713.65-14.44.837-3.633 2.421-6.616 4.656-8.755 2.236-2.143 5.123-3.446 8.759-3.727 2.699-.184 5.029.093 7.172 1.023 2.143.837 3.911 2.329 5.403 4.192 1.488 1.955 2.699 4.288 3.724 7.172 1.024 2.793 1.771 6.708 2.143 11.644.561 5.867.374 10.619-.56 14.347-.837 3.633-2.419 6.612-4.655 8.755-2.237 2.143-5.123 3.446-8.758 3.725-4.843.468-8.754-.93-11.828-4.188-3.635-3.824-5.871-10.434-6.706-19.748zm6.332-.562c.747 8.197 2.143 13.507 4.285 16.022 2.142 2.606 4.658 3.725 7.452 3.443 2.793-.184 5.029-1.769 6.704-4.655 1.677-2.887 2.147-8.383 1.493-16.58-.744-8.196-2.143-13.6-4.285-16.115-2.236-2.514-4.655-3.632-7.546-3.35-2.793.187-4.936 1.581-6.429 4.098-1.862 3.258-2.418 8.941-1.674 17.137zM257.549 554.679l5.866.187c.187 2.793.84 4.843 2.143 6.335 1.211 1.396 2.982 2.236 5.123 2.514 1.864.187 3.54 0 5.123-.744a9.89 9.89 0 0 0 3.82-2.98c1.117-1.305 2.143-3.166 3.074-5.497.839-2.419 1.489-4.842 1.77-7.358 0-.275.094-.649.094-1.21-1.399 1.771-3.261 3.17-5.497 4.102-2.327.931-4.657 1.303-7.08.931-4.189-.467-7.451-2.423-9.965-5.684-2.42-3.353-3.354-7.452-2.795-12.294.653-5.123 2.609-8.94 5.963-11.645 3.353-2.699 7.265-3.818 11.735-3.26 3.261.373 6.055 1.68 8.569 3.728 2.421 2.049 4.1 4.752 5.123 8.195 1.024 3.354 1.117 8.103.373 14.158-.743 6.334-2.049 11.363-3.911 14.904-1.865 3.631-4.286 6.24-7.172 7.821-2.982 1.677-6.335 2.237-9.969 1.77-3.912-.464-6.893-1.957-9.126-4.375-2.145-2.426-3.261-5.687-3.261-9.598zm27.571-18.909c.463-3.444-.094-6.336-1.771-8.664-1.583-2.232-3.726-3.536-6.334-3.911-2.702-.277-5.216.561-7.452 2.517-2.327 1.955-3.633 4.658-4.096 8.196-.374 3.166.278 5.866 1.956 8.008 1.675 2.237 3.911 3.541 6.706 3.913 2.793.28 5.216-.371 7.263-2.14 2.05-1.771 3.354-4.378 3.728-7.919zM115.223 181.448l-28.782-49.835 4.843-5.96 55.605 16.673-5.123 6.335-16.578-5.403-14.158 17.513 8.94 14.809-4.747 5.868zm-7.359-25.989 11.457-14.158s-23.379-7.825-26.174-9.036c2.236 2.701 14.717 23.194 14.717 23.194zM96.501 218.518 49.09 193.276l9.406-17.791c1.957-3.632 4.006-6.241 6.056-7.917 2.142-1.676 4.563-2.609 7.171-2.793 2.702-.187 5.125.279 7.267 1.396 2.049 1.118 3.631 2.702 4.842 4.75 1.21 2.048 1.769 4.472 1.677 7.265 2.42-2.423 5.029-3.82 7.825-4.285 2.887-.466 5.682 0 8.475 1.492 2.144 1.117 4.006 2.7 5.403 4.656 1.397 1.957 2.234 3.912 2.609 5.869.279 1.957.093 4.099-.466 6.426-.559 2.331-1.676 5.032-3.259 8.104l-9.595 18.07zm-2.329-9.315 6.334-11.735c1.024-2.05 1.77-3.541 2.049-4.379.466-1.583.746-3.073.653-4.376-.093-1.306-.56-2.516-1.398-3.819-.837-1.211-1.957-2.236-3.54-2.98-1.675-.931-3.54-1.305-5.31-1.117-1.769.187-3.353.931-4.75 2.327-1.396 1.305-2.887 3.447-4.47 6.521l-5.774 10.898 16.206 8.66zm-21.89-11.641 5.497-10.248c1.491-2.7 2.327-4.843 2.606-6.241.374-1.862.28-3.446-.464-4.842-.652-1.397-1.77-2.515-3.446-3.446-1.583-.84-3.167-1.211-4.75-1.118-1.583.186-2.98.837-4.193 1.956-1.209 1.211-2.7 3.446-4.47 6.893l-5.029 9.5 14.249 7.546zM83.18 267.885l-52.348-12.108 5.402-23.194c1.023-4.657 2.33-8.103 3.819-10.339 1.491-2.143 3.633-3.726 6.335-4.657 2.702-.933 5.497-1.024 8.382-.374 3.726.933 6.613 2.795 8.569 5.776 1.957 2.98 2.795 7.079 2.329 12.294 1.304-1.676 2.421-2.795 3.54-3.539 2.329-1.677 5.123-2.979 8.289-4.192l16.302-5.775-1.956 8.663-12.482 4.47c-3.632 1.211-6.427 2.328-8.382 3.261-1.956.93-3.447 1.862-4.285 2.7-.931.933-1.677 1.863-2.142 2.886-.374.746-.747 1.957-1.118 3.819l-1.862 8.012 23.192 5.403-1.584 6.894zm-27.665-13.692 3.448-14.904c.743-3.166 1.023-5.682.743-7.638-.278-1.956-.93-3.539-2.236-4.75-1.209-1.305-2.606-2.143-4.375-2.515-2.423-.559-4.659-.187-6.708 1.306-1.956 1.396-3.446 4.099-4.378 7.916l-3.819 16.58 17.325 4.005zM441.044 130.03 479.7 92.772l16.487 17.138c3.353 3.447 5.59 6.334 6.614 8.849 1.024 2.423 1.116 5.029.464 7.825-.744 2.793-2.143 5.125-4.285 7.266-2.793 2.608-5.867 3.913-9.502 4.006-3.631 0-7.448-1.583-11.548-4.75.651 1.956 1.025 3.631 1.025 4.936.09 2.793-.28 5.867-1.025 9.221l-4.008 16.86-6.241-6.428 3.167-12.947c.837-3.725 1.398-6.612 1.771-8.756.28-2.142.28-3.911 0-5.123-.187-1.21-.654-2.33-1.21-3.354-.374-.65-1.306-1.676-2.517-2.979l-5.773-5.963-17.141 16.582-4.934-5.125zm26.544-15.741 10.622 10.991c2.233 2.327 4.282 4.005 5.961 4.844 1.769.837 3.536 1.024 5.212.744 1.772-.374 3.264-1.118 4.473-2.33 1.862-1.769 2.703-3.911 2.61-6.332-.094-2.515-1.587-5.125-4.29-8.012l-11.827-12.202-12.761 12.297zM405.09 77.682c4.283-7.824 9.778-12.76 16.395-14.809 6.611-2.143 13.317-1.306 19.934 2.327 4.281 2.423 7.636 5.59 9.965 9.595 2.329 4.005 3.353 8.383 3.166 13.134-.186 4.657-1.675 9.406-4.285 14.064-2.606 4.844-5.959 8.57-9.965 11.178-4.005 2.702-8.289 4.099-12.855 4.099-4.655-.093-8.94-1.211-13.038-3.446-4.379-2.516-7.825-5.683-10.062-9.782-2.326-4.096-3.351-8.475-3.073-13.132.279-4.751 1.489-9.13 3.818-13.228zm6.332 3.632c-3.163 5.683-4.098 10.992-2.887 15.929 1.307 4.936 4.195 8.662 8.759 11.27 4.752 2.515 9.501 3.074 14.344 1.397 4.846-1.582 8.943-5.402 12.294-11.455 2.146-3.819 3.26-7.545 3.634-11.085.28-3.541-.467-6.799-2.05-9.782-1.585-2.98-4.008-5.308-7.078-6.985-4.379-2.421-9.037-3.073-13.88-1.77-4.846 1.212-9.222 5.403-13.136 12.481zM350.043 85.6l16.579-51.136 19.28 6.333c3.447 1.024 5.963 2.051 7.639 2.982 2.329 1.209 4.188 2.699 5.493 4.47 1.305 1.677 2.143 3.725 2.517 6.241.37 2.421.093 4.937-.744 7.451-1.398 4.286-3.912 7.545-7.732 9.688-3.725 2.05-9.222 1.957-16.394-.374l-13.132-4.283-6.708 20.77-6.798-2.142zM365.5 61.011l13.229 4.283c4.379 1.399 7.732 1.583 10.059.56 2.423-1.024 4.099-2.98 5.033-5.959.65-2.143.744-4.193.187-6.056-.654-1.864-1.679-3.354-3.357-4.379-1.02-.65-3.069-1.489-6.146-2.513l-13.039-4.193-5.966 18.257zM510.811 364.943l50.206 19.279-7.266 18.816c-1.489 3.818-3.17 6.705-5.029 8.569-1.96 1.957-4.192 3.167-6.803 3.632-2.606.562-5.029.374-7.358-.557-2.143-.838-4.008-2.144-5.403-4.006-1.488-1.956-2.326-4.285-2.605-7.082-2.05 2.703-4.379 4.477-7.173 5.216-2.792.842-5.682.748-8.568-.464-2.33-.836-4.285-2.235-5.961-4.004-1.679-1.77-2.703-3.54-3.26-5.403-.561-1.862-.653-4.099-.373-6.429.28-2.423 1.026-5.215 2.235-8.473l7.358-19.094zm3.353 8.941-4.753 12.481c-.837 2.144-1.306 3.635-1.489 4.566-.28 1.676-.373 3.072-.093 4.374.187 1.307.837 2.428 1.769 3.635 1.024 1.115 2.236 1.957 3.912 2.606 1.866.65 3.634.841 5.403.374 1.772-.374 3.166-1.396 4.379-2.888 1.21-1.397 2.423-3.818 3.724-6.988l4.38-11.548-17.232-6.612zm23.193 8.849-4.195 10.897c-1.118 2.886-1.677 5.121-1.862 6.521-.093 1.862.279 3.443 1.117 4.749.838 1.305 2.049 2.33 3.817 2.982 1.68.652 3.261.838 4.848.465 1.585-.277 2.885-1.117 3.911-2.423 1.024-1.303 2.235-3.728 3.632-7.359l3.911-9.965-15.179-5.867z"/></svg>