<svg xmlns="http://www.w3.org/2000/svg" xml:space="preserve" width="168.81mm" height="200.03mm" fill-rule="evenodd" stroke-linejoin="round" stroke-width="28.222" preserveAspectRatio="xMidYMid" version="1.2" viewBox="0 0 16881 20003"><defs class="ClipPathGroup"><clipPath id="a" clipPathUnits="userSpaceOnUse"><path d="M0 0h21000v29700H0z"/></clipPath></defs><g class="SlideGroup"><g class="Slide" clip-path="url(#a)" transform="translate(-2061 -4849)"><g class="Page"><g class="Group"><g class="com.sun.star.drawing.ClosedBezierShape"><path fill="none" d="M2061 4849h16881v20003H2061z" class="BoundingBox"/><path fill="#e20021" d="M2061 7285c2779-1662 5538-2408 8276-2435 2890-27 5933 795 8604 2435v7900c0 2048-501 3221-1549 4651-1702 2323-4768 4162-6905 5015-2757-1164-5355-3041-6731-4818-1171-1512-1695-2767-1695-4919Z"/></g><g class="com.sun.star.drawing.ClosedBezierShape"><path fill="none" d="M2730 5640h15539v18444H2730z" class="BoundingBox"/><path fill="#000200" d="M10493 24083c2313-998 4924-2665 6366-4635 1039-1417 1420-2532 1409-4173V7874c-2331-1464-5162-2259-7925-2233-2732 27-5422 871-7610 2237v7305c-21 1119 162 2001 555 2861 237 516 550 1022 980 1579 1451 1873 3911 3455 6225 4460z"/></g><g class="com.sun.star.drawing.ClosedBezierShape"><path fill="none" d="M2949 5858h15103v17989H2949z" class="BoundingBox"/><path fill="#fff" d="M10493 23846c2205-965 4766-2581 6190-4526 973-1328 1378-2395 1367-4044V7995c-2280-1404-5029-2161-7706-2136-2578 25-5195 794-7394 2141v7188c-18 986 125 1869 536 2766 252 552 583 1056 954 1535 1452 1876 3883 3402 6053 4357z"/></g><g class="com.sun.star.drawing.ClosedBezierShape"><path fill="none" d="M3196 6105h14610v17472H3196z" class="BoundingBox"/><path fill="#000200" d="M10494 23576c2133-948 4608-2513 5991-4402 937-1280 1330-2299 1319-3896V8134c-2217-1334-4871-2052-7456-2028-2489 24-5015 754-7151 2033v7054c-17 942 119 1797 513 2658 244 533 566 1023 925 1488 1411 1822 3759 3300 5859 4237z"/></g><g class="com.sun.star.drawing.ClosedBezierShape"><path fill="none" d="M3591 10206h13819v12936H3591z" class="BoundingBox"/><path fill="#fff" d="M10494 23141c2025-923 4360-2411 5671-4201 885-1208 1253-2152 1243-3661v-3223c-2115-1191-4618-1871-7057-1848-2346 23-4747 714-6759 1854v3137c-16 877 110 1685 477 2487 232 505 539 970 878 1409 1339 1729 3554 3135 5547 4046z"/></g><g class="com.sun.star.drawing.ClosedBezierShape"><path fill="none" d="M8647 9845h3340v5108H8647z" class="BoundingBox"/><path fill="#000200" d="M10583 14952c381-178 900-334 1403-376-368-247-463-818-514-1540-43-618 313-1437-37-2015-68 289-266 624-401 868 33-1072-448-1894-1678-2044 484 356 749 1004 727 1576-222-591-728-755-1436-550 398 113 734 356 870 719 90 242 69 434 43 873-45 766 193 2068 1023 2489z"/></g><g class="com.sun.star.drawing.PolyPolygonShape"><path fill="none" d="M4963 11378h11030v9535H4963z" class="BoundingBox"/><path fill="#eb6a5d" d="M13210 11378H7714l-2751 4745 2751 4789h5506l2772-4781-3891-3 877 944-984 1715-3057 4-1531-2671 1533-2619 3046 1z"/></g><g class="com.sun.star.drawing.PolyPolygonShape"><path fill="none" d="M7715 16136h8277v4777H7715z" class="BoundingBox"/><path fill="#ad1821" d="M7715 20912h5506l-3369-1208Zm0 0zm5506 0 2770-4776-2769 2345z"/></g><g class="com.sun.star.drawing.PolyPolygonShape"><path fill="none" d="M4964 11378h8296v9535H4964z" class="BoundingBox"/><path fill="#bb1120" d="m7714 11378 1223 2125 1-2 2550 1-421-907zm0 0zm-2745 4733-5 9 2443 4-2-4 1261-2155-700-346zm0 0zm2745 4801 1223-2121h-1l-1273-2220-570 792zm0 0zm4392-4779 870 937 283-469z"/></g><g class="com.sun.star.drawing.PolyPolygonShape"><path fill="none" d="M11067 11378h2145v2126h-2145z" class="BoundingBox"/><path fill="#e41d33" d="m13211 11378-2144 1218 421 907h496z"/></g><g class="com.sun.star.drawing.PolyPolygonShape"><path fill="none" d="M7354 11378h1587v2590H7354z" class="BoundingBox"/><path fill="#e41d33" d="m7354 12000 613 1621 701 346 271-462-1224-2127z"/></g><g class="com.sun.star.drawing.PolyPolygonShape"><path fill="none" d="M4964 16120h2702v1241H4964z" class="BoundingBox"/><path fill="#e41d33" d="m7665 16571-256-447-2445-3 2134 1239z"/></g><g class="com.sun.star.drawing.PolyPolygonShape"><path fill="none" d="M7715 18790h2141v2123H7715z" class="BoundingBox"/><path fill="#e41d33" d="m9418 18790 437 914-2140 1208 1224-2122z"/></g><g class="com.sun.star.drawing.PolyPolygonShape"><path fill="none" d="M11996 18371h1233v2543h-1233z" class="BoundingBox"/><path fill="#e41d33" d="m11996 18782 235-411 997 103-8 2439z"/></g><g class="com.sun.star.drawing.ClosedBezierShape"><path fill="none" d="M4408 11139h8640v7503H4408z" class="BoundingBox"/><path fill="#000200" d="M4408 11972c1147-610 2048-191 2620 559-72-826-296-1165-752-1385 983-82 1451 623 1845 1449 262 552 492 1080 825 1594 237 368 475 662 815 823 322 151 786 60 1226-97 282-101 599-198 846-255 477-110 886 51 1083 404 157 280 219 616-88 847 3-147-44-293-96-337-193-166-921-35-1370 473-451 510-537 1346-472 1491 104 234 249 384 445 509-232-71-350-140-535-283 134 497 634 768 977 867-311 42-649-40-932-352-280-308-482-737-789-1045-327-326-760-513-1230-310 73-178 213-328 464-395-476-114-872-372-1210-672-260-230-442-503-679-742-331-334-745-583-1458-481 186-390 509-518 810-551-509-647-1220-907-1987-884 249-289 639-379 1110-334-375-668-871-959-1468-893zm0 0zm8245 3143c101 22 255 92 250 296-137-56-237-181-250-296zm0 0zm-2287 421c230 69 444 98 643 82 448-36 501-256 943-316-11-142-133-208-367-217-467 298-783 434-1219 451z"/></g><g class="com.sun.star.drawing.ClosedBezierShape"><path fill="none" d="M13315 13622h370v711h-370z" class="BoundingBox"/><path fill="#000200" d="M13684 14332h-207v-408h-162v-142c27-1 52-4 75-9 25-5 46-14 64-27 18-12 33-29 45-49 13-20 22-45 28-75h157z"/></g><g class="com.sun.star.drawing.ClosedBezierShape"><path fill="none" d="M13933 13622h610v725h-610z" class="BoundingBox"/><path fill="#000200" d="M14227 13958c36-1 61-11 75-30 15-19 22-42 22-70 0-12-3-24-7-35-5-11-12-20-21-29-8-8-18-14-30-19-11-5-23-7-35-7-31 0-53 9-69 26-15 18-22 42-22 71 0 28 8 51 24 68s37 25 63 25zm0 0zm-84 192c5 19 15 33 30 42s32 13 53 13c19 0 35-4 49-12 13-8 25-20 33-34 9-14 15-31 19-50 4-20 6-41 6-64-28 19-54 32-78 39-24 8-53 11-86 11-41 0-76-7-106-21s-54-32-74-54c-19-22-33-47-43-74-9-27-13-53-13-78 0-42 7-79 21-110s34-57 59-77c25-21 54-36 89-45 35-10 71-14 111-14 51 0 97 7 137 21 42 14 76 36 104 65 28 30 50 67 65 113s23 101 23 165c0 54-7 103-20 147-14 44-34 82-60 114s-58 56-97 73c-38 17-81 26-129 26-33 0-65-3-96-9s-60-16-86-30c-25-14-47-33-66-57-18-23-31-53-39-88z"/></g><g class="com.sun.star.drawing.ClosedBezierShape"><path fill="none" d="M14628 13622h604v725h-604z" class="BoundingBox"/><path fill="#000200" d="M14928 13911c24 0 44-6 62-18 17-13 26-31 26-56 0-24-8-43-25-56-16-13-36-20-60-20-26 0-48 7-65 20-18 12-26 32-25 58 0 25 8 44 26 55 17 11 38 17 61 17zm0 0zm29 286c23-3 40-12 51-26 11-15 17-34 17-57 0-28-9-50-26-66s-39-24-67-24c-30 0-54 7-72 22-17 15-26 38-26 69 0 17 3 32 11 43 7 12 16 21 28 27 11 7 24 11 39 13 14 2 30 2 45-1zm0 0zm-217-233c-13-7-26-15-37-23s-20-18-28-29-14-23-18-38c-5-15-7-33-7-55 0-34 8-63 24-88s37-45 63-61c26-17 57-29 91-37 35-8 71-11 110-11s76 4 109 14c33 9 61 23 84 40 24 17 42 38 55 61 14 24 20 50 20 78 0 33-7 63-21 87-14 25-38 44-71 57 38 15 67 36 87 63 20 26 30 60 30 102 0 35-7 66-22 94s-36 51-62 70c-27 19-58 33-95 43s-78 15-121 15c-42 0-81-4-118-13-36-8-68-22-96-40-27-18-49-41-65-69-16-29-24-62-24-100 0-21 2-39 7-55 6-16 13-31 23-43 9-13 21-24 35-33 14-11 30-20 47-29z"/></g><g class="com.sun.star.drawing.ClosedBezierShape"><path fill="none" d="M15299 13622h605v725h-605z" class="BoundingBox"/><path fill="#000200" d="M15599 13911c24 0 44-6 62-18 17-13 26-31 26-56 0-24-8-43-25-56-16-13-36-20-60-20-26 0-48 7-65 20-18 12-26 32-25 58 0 25 8 44 26 55 17 11 38 17 61 17zm0 0zm29 286c23-3 40-12 51-26 11-15 17-34 17-57 0-28-9-50-26-66s-39-24-67-24c-30 0-54 7-72 22-17 15-26 38-26 69 0 17 3 32 11 43 7 12 16 21 28 27 11 7 24 11 39 13 14 2 30 2 45-1zm0 0zm-217-233c-13-7-26-15-37-23s-20-18-28-29-14-23-18-38c-5-15-7-33-7-55 0-34 8-63 24-88s37-45 63-61c26-17 57-29 91-37 35-8 71-11 110-11s76 4 109 14c33 9 61 23 84 40 24 17 42 38 55 61 14 24 20 50 20 78 0 33-7 63-21 87-14 25-38 44-71 57 38 15 67 36 87 63 20 26 30 60 30 102 0 35-7 66-22 94s-36 51-62 70c-27 19-58 33-95 43s-78 15-121 15c-42 0-81-4-118-13-36-8-68-22-96-40-27-18-49-41-65-69-16-29-24-62-24-100 0-21 2-39 7-55 6-16 13-31 23-43 9-13 21-24 35-33 14-11 30-20 47-29z"/></g><g class="com.sun.star.drawing.ClosedBezierShape"><path fill="none" d="M9542 6959h2123v2680H9542z" class="BoundingBox"/><path fill="#fff" d="M9542 7035c45 887 105 1730 152 2570 2 36 32 34 69 32l493-21c55-3 59-28 58-55-15-331-25-666-34-1000 381-8 768-2 1063 2 26 0 37-16 38-39l7-409c0-28-1-54-28-55-342-12-713-14-1093-7-5-183-15-359-16-543 0-28 13-38 33-38 460-13 964 3 1327 13 26 1 37-14 38-38l14-409c1-28 0-53-28-55-622-31-1343-31-2036-2-38 1-58 16-57 54z"/></g><g class="com.sun.star.drawing.ClosedBezierShape"><path fill="none" d="M11896 7018h2717v3005h-2717z" class="BoundingBox"/><path fill="#fff" d="M12102 7064c-77 895-146 1739-205 2557-2 36 16 52 53 55l482 47c54 6 62-29 64-56 21-217 45-433 71-648 132-121 274-244 421-365 162 396 307 796 423 1175 9 30 24 58 55 63 193 31 391 81 598 129 14 3 47-6 35-44-180-581-391-1179-619-1712 440-337 862-631 1110-793 26-17 30-55 0-63-176-45-462-107-671-147-43-8-74 8-109 35-384 299-809 643-1146 953 48-359 98-739 144-1107 4-32-10-56-43-61-169-24-380-45-599-64-38-2-61 8-64 46z"/></g><g class="com.sun.star.drawing.ClosedBezierShape"><path fill="none" d="M6797 7123h2417v2756H6797z" class="BoundingBox"/><path fill="#fff" d="m8525 7859 456-224c26-13 33-50 18-75-122-208-375-354-663-413-287-58-636-6-869 95-295 127-409 240-512 378-165 222-182 493-136 769 78 456 192 826 306 1012 244 398 739 558 1230 437 526-130 906-484 852-1195-11-137-18-254-33-389-5-41-35-63-76-59-335 37-657 71-971 128-57 11-60 40-55 73l47 335c4 29 29 59 65 55 119-14 281-33 392-48 17 119 18 219-7 300-61 192-246 283-399 301-120 15-268-13-369-96-89-74-135-184-181-352-56-199-101-385-132-662-26-232 13-492 412-573 279-56 460 67 555 198 13 19 30 25 70 5z"/></g></g></g></g></g></svg>