<svg xmlns="http://www.w3.org/2000/svg" width="842.48108" height="980.00525" x="0px" y="0px" viewBox="0 0 842.48108 980.00525"><path fill="none" d="M-94.17-44.55H912.786v1061.154H-94.17z" style="fill:#1b1b1b;fill-opacity:0"/><g fill-rule="evenodd" clip-rule="evenodd"><path fill="#f4ca32" d="M421.245 980.005c64.881-14.106 123.083-36.536 169.316-63.367 47.495-27.595 87.18-66.269 118.174-108.347 47.742-64.881 79.496-143.365 100.784-222.101 24.064-92.722 34.012-182.925 32.875-291.267 0-97.64.377-197.413-1.886-294.923C702.56 86.426 560.451 120.563 421.245 120.563 282.16 120.568 139.926 86.431 1.977.005-.29 97.515.087 197.293.087 294.928c-1.132 108.343 8.82 198.545 32.88 291.267 21.288 78.736 53.162 156.969 100.788 222.101 31.241 41.953 70.549 80.878 118.17 108.348 46.232 27.086 104.565 49.255 169.32 63.361z"/><path fill="#ee3224" d="M38.765 560.24C20.248 480.371 13.067 400.5 12.181 306.771l1.891-284.09c141.223 77.101 245.542 101.668 379.96 109.227z"/><path d="M43.553 579.139c.88 3.394 1.388 5.793 2.268 9.198 20.534 76.217 51.78 152.559 97.384 214.794 29.476 40.188 69.04 78.741 114.262 104.822 44.09 25.322 101.538 47.616 164.025 61.1 62.612-13.61 120.06-35.904 164.024-61.225 45.232-25.95 84.912-64.63 114.262-104.817 45.604-62.11 76.85-138.583 97.384-214.8 23.305-89.573 33.509-176.874 33.388-281.565l-1.89-284.085c-150.673 82.267-259.272 104.691-407.168 110.61-3.149 0-6.045-.25-9.068-.382z"/><path fill="#f4ca32" d="M546.167 584.052c0 .268.13.268.13.393 10.346 19.508 15.836 40.974 15.836 64.535 0 78.548-64.535 142.035-142.684 142.035-78.286 0-141.904-63.487-141.904-142.035 0-23.3 5.631-45.29 15.578-64.933l69.25.131v-46.08h-19.24V415.312l-44.51 36.92v86.006h-19.638l.131 40.45c-20.162 28.145-32.33 63.492-32.33 100.668 0 95.56 77.494 172.799 172.537 172.799 95.042 0 173.448-77.238 173.448-172.8 0-34.949-10.204-67.551-28.407-95.167H596.7v-45.945h-24.085l.125-46.604-42.414 13.22v32.598c-8.638-9.036-17.935-15.578-30.502-20.68 5.893 5.626 12.436 13.09 18.852 21.471l-17.28.126-11.781-27.878c-.917-3.405-1.179-6.024-1.179-7.464 0-11.52 9.429-20.948 20.817-20.948 8.9 0 16.62 5.762 19.764 13.75l40.45-12.697c-8.507-25.27-32.462-43.593-60.214-43.593-34.819 0-63.362 28.67-63.362 63.75 0 5.893 1.048 11.655 2.488 17.28l6.941 17.674h-21.602V427.487c24.609-23.038 38.616-52.1 38.616-82.607 0-16.888-6.019-34.95-18.454-52.1l-67.286-104.722V454.19c-2.095 3.143-4.19 6.286-6.416 9.036-2.62-28.668-16.757-53.278-31.55-66.368l-5.238 5.893c20.554 23.43 28.406 41.366 28.406 72.523-3.137 17.281-7.852 33.645 4.846 50.795l10.21 12.174h-16.234v45.945H473.38l14.138 35.735c3.662 8.9 6.02 19.114 6.02 28.93 0 40.581-33.51 73.572-73.965 73.572-40.58 0-73.565-32.99-73.565-73.571 1.178-19.639 9.423-44.248 15.84-53.802l-47.128-.131c-8.376 16.37-13.353 34.693-13.353 54.064 0 65.457 53.148 118.473 118.206 118.473 65.06 0 118.866-53.016 118.866-118.473 0-15.836-3.405-31.807-9.04-45.814l-8.246-19.114h25.013zM336.06 389.394l.131-31.942 30.11-9.56-30.24-9.947v-31.676l-18.455 25.395-30.11-9.555 18.586 25.657-18.716 25.395 30.24-9.554zm97.4 27.753V275.505c7.328 10.995 14.526 21.995 21.99 32.86 12.436 21.99 11.126 45.944 5.238 65.325-5.893 19.371-17.412 35.08-27.228 43.457zM386.464 526.19c-7.727-6.28-11.656-17.407-11-26.961 0-9.036 2.618-15.71 4.845-22.127.916-2.488 3.928-6.673 6.155-10.078z"/><path fill="#fff" d="M135.772 132.035c17.26 0 33.635 4.531 47.747 12.09 10.586 5.547 20.534 13.609 28.344 22.807-8.69-6.176-19.403-10.833-29.23-13.735-18.014-5.673-42.33-2.142-60.595 8.188-25.07 14.363-41.576 41.576-40.57 70.297-1.258 21.414 11.34 52.283 35.4 67.4 4.787 3.148 15.374 10.833 36.028 13.735 9.324 1.01 28.978 0 44.724-7.308 5.165-2.896 9.953-6.044 15.118-9.575-6.8 8.187-15.244 15.62-23.934 21.288-15.243 9.324-33.635 15.243-53.037 15.243-27.464 0-52.534-11.46-70.674-29.606-18.14-18.014-29.355-43.085-29.355-70.674 0-27.59 11.084-52.66 29.355-70.806 18.145-18.009 43.215-29.344 70.68-29.344zM238.447 267.59v-27.716l-26.202-8.438 26.076-8.44.126-27.589 15.997 22.048 26.333-8.313-16.254 22.425 16.374 22.047-26.453-8.318z"/><path fill="#f4ca32" d="M756.927 176.932c-.524-3.143-2.352-4.453-5.238-4.453-2.488 0-4.186.912-5.364 2.62-1.572 2.095-2.614 5.107-3.269 9.423l-.13 2.881.916-1.44c2.357-3.012 5.5-4.453 9.816-4.453 5.108 0 8.905 2.226 11 7.203.917 1.833 1.31 3.666 1.31 5.756 0 4.322-1.702 7.858-4.845 10.739-2.745 2.357-6.28 3.797-10.864 3.797-5.364 0-9.293-2.095-12.31-6.154-2.09-3.274-3.143-7.59-3.143-13.615 0-2.875.13-5.887.922-8.506.65-4.453 2.619-7.858 5.233-10.472 2.75-2.493 6.417-3.666 10.733-3.666 3.541 0 6.286.654 8.905 2.226 2.488 1.44 4.054 4.185 4.453 7.72l.13 1.049h-8.255Zm-62.57 23.954 1.702-1.44c1.833-1.31 3.923-3.012 6.417-5.239a199.76 199.76 0 0 0 7.066-6.285c1.048-.917 2.231-2.227 3.274-3.405.917-1.179 1.702-2.488 2.357-3.662.262-.922.524-1.964.524-3.012 0-2.488-1.048-4.054-3.274-4.845-.917-.393-1.833-.524-2.745-.524-3.143 0-5.107 1.702-6.019 5.238l-.261.655h-7.984v-1.44c.126-3.798 1.834-6.417 4.84-8.382 2.75-1.31 5.763-1.964 9.691-1.964 3.798 0 7.203.917 9.555 2.488 3.148 2.095 4.452 4.846 4.452 8.774 0 1.834-.393 3.798-1.042 5.108-.917 2.226-2.493 4.452-4.19 6.15-1.703 1.833-3.804 3.404-6.025 5.363-2.744 2.357-4.97 4.06-6.804 5.107l-3.274 2.358H725v6.155h-30.633v-7.198zm-76.71-28.276c1.31-.524 2.62-1.042 4.453-2.352 1.043-.785 2.226-1.44 3.143-2.226l.917-.786h7.202v40.843h-7.595v-32.99l-1.31 1.047c-1.042.917-2.352 1.572-3.274 2.226-1.566.786-3.006 1.31-4.054 1.703l-1.702.655v-7.198zm42.807 25.395.131 1.44c.388 2.222 2.352 3.4 5.626 3.667 2.488 0 4.19-.916 5.5-2.226.655-.786 1.18-1.44 1.572-2.357.78-2.488 1.571-5.37 1.702-9.167l.262-1.702-1.31 1.178c-2.226 2.881-5.368 4.322-9.035 4.322-1.703 0-3.798-.393-5.238-1.179-1.834-.524-3.27-1.44-4.191-2.75-2.226-2.226-3.536-5.364-3.536-9.162 0-4.06 1.577-7.59 4.584-10.209 2.75-2.095 6.416-3.274 11-3.274 5.762 0 10.078 1.965 12.435 6.019 2.227 3.012 3.27 7.595 3.27 14.274 0 8.638-1.834 14.526-5.103 17.674-1.44 1.44-2.881 2.62-4.583 3.012-2.62.911-4.977 1.435-7.727 1.435-3.143 0-6.28-.785-8.9-2.095-2.619-1.572-4.19-4.06-4.583-7.46l-.126-1.44zm-.398-17.936c0 1.965.786 3.667 1.834 4.977 1.702 1.31 3.143 1.964 4.976 1.964 2.226 0 3.662-.655 5.107-2.22 1.31-1.31 1.965-3.144 1.965-5.108 0-2.09-.393-3.667-1.839-5.107-1.179-1.44-2.614-2.09-4.84-2.09-2.232 0-3.929.654-5.37 2.22-1.042 1.436-1.833 3.274-1.833 5.364zM744.235 195c0 2.357.524 4.19 1.571 5.625 1.179 1.572 2.745 2.488 5.108 2.488 1.44 0 2.488-.523 3.928-1.44 1.179-.78 1.965-2.09 2.226-3.4.388-.785.655-1.964.655-3.012 0-2.357-.655-4.19-1.571-5.63-1.31-1.436-3.012-2.227-5.238-2.227-2.09 0-3.798.786-4.846 2.226-1.315 1.572-2.095 3.274-1.833 5.37zM215.137 772.645l2.268-2.017c1.136-.754 2.77-.88 3.782.257l1.886 2.137c1.005 1.005 1.005 2.77-.126 3.782l-2.143 1.765c-1.262 1.006-2.896.88-3.782-.251l-2.016-2.017c-.875-1.263-1-2.902.13-3.656zm-4.531 3.273 5.542 6.297-30.864 26.956-5.542-6.428zm.88 42.456-1.132 1.388c-2.268 3.023-1.765 6.176 1.76 9.576 1.388 1.383 2.897 2.268 4.536 2.645 2.017.629 3.782.126 5.04-1.262 1.005-1 1.005-2.389.503-3.903-.63-1.388-1.132-2.896-1.76-4.033l-3.274-5.92c-.76-1.513-1.389-2.77-1.891-4.158-1.64-3.908-.88-7.56 2.142-10.707 2.897-3.028 6.302-4.16 10.33-3.657 3.4.508 6.679 2.274 9.827 5.296 2.016 1.886 3.4 4.034 4.536 6.297.754 1.388 1.006 2.902 1.006 4.41 0 2.771-.88 5.29-2.897 7.559l-.76.76-6.05-5.925c2.52-3.148 2.394-6.045-.377-8.69-1.257-1.137-2.77-2.017-4.154-2.274-1.89-.503-3.4-.12-4.536 1.011-1.257 1.258-1.383 3.023-.503 5.16.377 1.006.76 2.017 1.388 2.897l4.154 7.312c1.006 1.766 1.64 3.651 1.891 5.417.503 3.022-.503 5.919-2.897 8.313a14.3 14.3 0 0 1-3.656 2.65c-1.388.503-2.897.88-4.536 1.006-2.012 0-3.908-.251-5.668-1.006-2.52-1.01-4.788-2.65-6.804-4.667-7.685-7.307-8.69-14.107-3.023-20.534l.754-.76zm71.936 22.048-3.782 5.165-10.204-7.433-20.282 27.967-6.805-4.914 20.288-27.967-10.204-7.433 3.782-5.165zm18.392 8.942 9.827 4.41-2.646 43.588-8.439-3.777.755-9.324-15.872-7.056-6.17 6.925-8.062-3.651zm-11.844 23.053 11.97 5.296 2.016-20.665zm56.065-6.045 5.542 34.017 8.57-29.858 7.558 2.143-11.34 39.302-11.462-3.274-5.416-34.645-8.821 30.617-7.433-2.142 11.21-39.428zm32.754 8.193 9.068.88 5.92.508c4.41.377 7.558 1.388 9.449 2.645 3.022 2.143 4.285 5.04 3.908 8.821-.378 4.16-2.771 6.805-6.805 7.81l-2.142.378 2.77 1.131c4.537 2.022 6.674 5.417 6.302 10.204-.251 2.902-1.514 5.296-3.65 7.061-1.263 1.006-2.646 1.64-4.16 2.138-1.886.508-3.908.88-6.045.88-1.131-.12-3.148-.252-6.045-.503l-4.285-.508-7.81-.629zm5.291 35.274 3.274.252 2.268.12c2.771.257 4.788 0 5.92-.503 2.016-.88 3.153-2.394 3.399-4.662.126-1.765-.503-3.279-1.886-4.536-1.136-.88-2.645-1.509-4.662-1.886l-4.033-.251-3.274-.378zm1.64-18.145 3.148.257 2.77.251c4.411.126 6.805-1.388 7.182-4.41.126-3.154-2.142-5.166-6.678-5.548l-2.515-.251-3.153-.252zm41.576-14.358 2.011 22.802.251 2.273c.634 6.805 3.908 9.827 9.455 9.45 5.543-.503 8.314-3.902 7.936-10.084l-.251-3.148-2.017-22.807 8.434-.754 1.89 22.676c.252 1.76.126 3.148.252 4.405.126 2.017-.12 3.908-.754 5.673-1.006 2.897-2.902 5.417-5.794 7.308-2.65 1.765-5.673 2.645-9.072 2.896-3.651.383-6.925-.12-9.948-1.382-3.279-1.389-5.667-3.782-6.93-6.93-.88-2.017-1.257-4.16-1.64-6.548l-.246-2.394-1.89-22.808zm47.49-5.547 7.804 33.76 16.888-3.902 1.383 6.044-24.944 5.794-9.199-39.936zm43.712 17.008.76 1.509c1.765 3.4 4.913 4.285 9.324 2.52 1.886-.755 3.4-1.64 4.405-3.023 1.388-1.64 1.64-3.28 1.006-5.04-.503-1.387-1.76-2.016-3.4-2.142-1.508-.125-3.022-.125-4.28-.125l-6.804.508c-1.64.12-3.148.12-4.53 0-4.28-.252-7.313-2.52-8.822-6.553-1.514-3.777-1.137-7.433 1.006-10.828 1.886-2.902 4.913-5.17 8.942-6.679 2.52-1.005 5.164-1.508 7.69-1.508 1.508 0 2.896.372 4.41.88 2.388 1.257 4.41 3.022 5.542 5.793l.377 1.137-7.81 3.022c-1.76-3.656-4.531-4.787-8.062-3.4-1.64.63-3.022 1.64-3.902 2.767-1.137 1.514-1.514 3.022-1.006 4.536.629 1.765 2.268 2.645 4.41 2.645 1.132.126 2.269.126 3.274 0l8.314-.628c2.142-.126 4.159 0 5.793.508 3.022.88 5.165 3.022 6.296 6.17.634 1.514.886 3.023.886 4.416-.126 1.509-.378 3.023-1.006 4.531-.88 1.886-1.891 3.526-3.28 4.662-2.01 1.891-4.53 3.28-7.176 4.285-9.827 3.903-16.38 1.76-19.78-5.924l-.371-1.006zm23.185-39.177 10.078-5.924 2.394-1.257c1.257-.76 2.645-1.514 3.903-2.017 1.388-.629 2.77-1.006 4.159-1.257 2.268-.252 4.536.126 6.673 1.388 2.017 1.131 3.651 2.766 4.914 5.04 2.268 3.902 2.645 7.553 1.136 10.832-1.262 2.645-3.907 5.16-7.94 7.805l-2.395 1.393-3.022 1.635 7.805 13.608-7.302 4.16zm10.455 1.258 6.297 10.963 3.022-1.765c1.006-.508 2.017-1.257 2.902-1.891 3.274-2.389 4.034-5.29 2.137-8.565-2.016-3.4-4.913-3.907-8.82-1.89l-2.515 1.513zm35.149-4.909c-2.52-3.153-4.41-6.427-5.416-9.827-.76-2.142-.88-4.284-.63-6.427.252-2.142.881-4.16 1.887-5.924 1.388-2.394 3.274-4.531 5.673-6.548 4.28-3.4 8.816-5.045 13.352-4.667 2.52.256 4.662 1.01 6.553 2.016 2.771 1.766 5.542 4.16 7.936 7.056 8.947 11.22 8.57 20.66-1.132 28.601-9.957 8.062-19.407 6.673-28.223-4.28zm6.422-5.547c6.176 7.936 12.22 9.45 17.768 5.04 5.411-4.411 5.034-10.456-1.262-18.266-2.269-2.772-4.662-5.04-7.313-6.428-3.274-1.886-6.8-1.388-10.199 1.388-1.257 1.137-2.142 2.143-2.902 3.53-2.394 3.903-1.131 8.812 3.908 14.736zm25.704-50.14 2.394-2.646c2.645-3.153 4.913-5.295 6.427-6.296 3.023-1.891 5.925-2.394 8.69-1.388a11.593 11.593 0 0 1 3.651 2.137c2.143 1.765 3.28 4.039 3.531 6.176.126 1.891-.508 4.16-1.765 7.056 2.902-2.514 5.667-3.274 8.187-1.886 1.257.629 2.771 1.388 4.28 2.394 2.142 1.509 4.033 2.645 5.547 3.651 1.006.508 2.017 1.006 2.771 1.257l1.257.377-6.045 6.805-1.005-.508c-1.258-.624-3.154-1.76-5.417-3.4-3.782-2.645-6.427-3.902-7.684-3.651-.886.126-2.143 1.006-3.4 2.394l-2.017 2.394-2.77 3.153 12.472 10.964-5.417 6.296-30.869-26.956zm11.713 13.855 3.4-3.903 1.136-1.514c3.022-3.902 3.153-7.055.377-9.45-.508-.376-.885-.759-1.514-.88-2.268-1.005-4.782-.125-7.433 3.023l-1.886 2.017-2.77 3.153z"/></g></svg>