<svg xmlns="http://www.w3.org/2000/svg" xml:space="preserve" width="291.377" height="252"><path d="M11376.5 5080.38c0-567.37-104.8-1129.01-296.3-1656.11-98.8-209.87-201.6-398.35-303.3-561.8-129.1-215.35-296.4-432.87-507.1-643.88-319.43-319.49-613.88-507.29-914.07-655.29-254.46-125.4-521.06-222.2-839.39-376.7-259.99-126.1-527.42-319.202-740.21-493.202-104.44-85.097-282.8-253.597-435.16-400.8-152.8-147.5-288.6-264.098-288.6-264.098l9.6-9.602L7042.91 0l-16.22 15.898-199.15 198c-26.64 24.801-54.63 51.102-82.91 78.7-152.34 147.203-330.68 315.703-435.14 400.8-212.55 174-480.02 367.102-740.22 493.202-318.41 154.5-584.97 251.3-839.67 376.7-263.25 129.9-522.23 290.6-797.62 544-89.42 73.97-176.69 153.85-263.77 241.07-210.5 210.39-487.7 640.02-652.27 1117.01-162.61 471.53-307.13 1060.7-307.13 1615 0 2393.43 1940.63 4333.56 4334.1 4333.56 2393.53 0 4333.59-1940.13 4333.59-4333.56" style="fill:#2f4ba6;fill-opacity:1;fill-rule:nonzero;stroke:none" transform="matrix(.02055 0 0 -.02055 1 251)"/><path d="M7042.91 9653.4c-2507.91 0-4541.74-2028.62-4550.8-4534.01L0 5625.88c267.793 3655.83 3318.74 6538.52 7042.91 6538.52 3702.29 0 6738.69-2848.92 7037.49-6473.95l-2487.7-505.61c-43.8 2475.4-2064.09 4468.56-4549.79 4468.56" style="fill:#2f4ba6;fill-opacity:1;fill-rule:nonzero;stroke:none" transform="matrix(.02055 0 0 -.02055 1 251)"/><path d="M7453.07 4324.7c19.82-687.55 582.22-1331.14 1273.31-1331.14 151.46 0 296.96 26.3 431.87 74.76 371.01 166.31 708.06 450.14 954.25 750.7 368.3 450.14 576.6 923.06 576.6 923.06s177.2-1143.36-803.28-2123.82c-538.32-538.36-965.73-615.36-1600.23-923.16-634.62-307.3-1226.81-897.401-1226.81-897.401S6466.43 1387.8 5831.94 1695.1c-634.59 307.8-1062.03 384.8-1600.26 923.16-980.47 980.46-803.33 2123.82-803.33 2123.82s208.42-472.92 576.66-923.06c246.19-300.56 583.16-584.39 954.12-750.7 134.97-48.46 280.46-74.76 431.99-74.76 689.99 0 1251.63 641.46 1273.11 1328-868.98 178.82-1522.28 948.34-1522.28 1870.2 0 1054.79 854.66 1909.17 1909.3 1909.17 1054.46 0 1909.36-854.38 1909.36-1909.17 0-916.76-645.83-1682.61-1507.54-1867.06" style="fill:#fff;fill-opacity:1;fill-rule:nonzero;stroke:none" transform="matrix(.02055 0 0 -.02055 1 251)"/><path d="M7051.25 4551.37c-905.83 0-1640.24 734.5-1640.24 1640.39 0 905.84 734.41 1640.21 1640.24 1640.21 905.99 0 1640.27-734.37 1640.27-1640.21 0-905.89-734.28-1640.39-1640.27-1640.39" style="fill:#ee253d;fill-opacity:1;fill-rule:nonzero;stroke:none" transform="matrix(.02055 0 0 -.02055 1 251)"/><path d="M6777.57 7025.83c138.52 0 269.12-33.63 384.42-93.61 18.84-9.33 37.1-20.18 55.12-30.73 92.11-56.85 172.45-130.79 236.27-217.58 5.7-7.27-6.12-18.3-12.87-12.52-16.73 13.04-33.43 25.56-51.36 37-17.6 11.61-35.79 22.74-54.89 32.37-97.06 51.58-209.07 80.93-328.33 80.93-185.03 0-352.76-70.73-474.57-184.93-121.59-114.21-196.83-271.6-196.83-444.62v-.38c0-173.55 75.24-330.65 196.83-444.92 121.81-114.08 289.54-185.08 474.57-185.08h.38c82.67 0 161.86 14.27 235.04 40 12.06 4.29 23.55 8.91 35.36 13.65 59.71 24.62 114.84 57.6 163.8 96.65 7.27 5.95 18.57-5.33 12.87-12.53v-.14.14c-21.07-28.99-44.39-56.43-69.34-82.56-24.91-25.87-51.19-50.28-79.31-72.75-144.31-116.56-327.65-186.55-527.16-186.55-230.98 0-440.69 93.64-592.48 244.59-151.9 151.28-246.22 359.77-246.22 589.5v.38c0 229.34 94.32 437.75 246.22 589 151.79 151.08 361.5 244.69 592.48 244.69zm935.4-468.86 172.44-229.24 271.49 92.4-165.26-234.77 172.03-229.63-273.96 84.57-165.51-234.7-4.19 287.14-274.22 84.52 271.46 92.57-4.28 287.14m-5172.38 814.4L2391.29 6912l-722.38-245.1 77.7-122.49 475.1-154.23-121.7-374.5-1452.393 471.71 121.828 374.57 657.275-213.66-488.81 732.6 141.07 433.92 487.62-785.89zm948.34 1318.35L3249.6 8360.5l-311.78 95.91-332.74-457.89 187.74-266.88-233.33-321.15-903.99 1353.83 266.45 366.78zm-833.76-145.84-553.42 170.16 332.86-473.73zM4397.1 9930.3c102.14-140.33 116.02-293.85 41.64-460.31-61.07-135.48-167.09-258.35-318.27-368.1-168.26-122.2-351.59-206.7-550.37-254.15l-215.26 296.34 34.75 25.17c215.98-9.7 407.66 46.22 575.3 168.11 66.17 48.2 112.07 92.51 137.63 132.98 39.64 62.77 42.5 117.55 8.49 164.67-40.2 55.22-113.23 60.87-218.95 17.1-74.67-35.79-188.87-83.94-342.44-144.83-241.45-78.07-424.41-31.65-549.07 139.88-94.78 130.66-105.43 276.8-32.39 439.04 60.3 133.4 160.49 251.1 300.96 353.3 163.35 118.4 332.66 199 507.62 241.8l206.77-284.5-34.14-24.8c-184.56 8.8-353.36-42.4-505.75-153.3-60.44-43.8-105.86-89.8-136.56-138.4-37.21-59.2-40.38-110.21-9.43-152.82 28.48-39.06 71.46-54.22 128.81-44.56 28.1 5.26 74.63 22.4 138.87 51.67l150.78 67.71c50.12 21.9 103.74 42.4 161.01 61 228.62 73.9 401.87 29.6 520-133zm1320.78 3.14-835.12-320.43-96.78 252.72 233.41 89.75-353.12 920.12-233.68-89.8-96.79 252.8 834.88 320.5 96.63-252.6-233.16-89.7 352.9-920.2 233.66 89.6zM7640 10105.2l-391.63-13.7-35.53 1021.9-259.68-673.1-271.64-9.4-305.86 653.2 35.48-1021.9-371.06-12.9-53.32 1526.2 457.17 16 370.12-753.8 315.53 777.7 457.05 15.8zm1922.15 516.9c-46.94-144.1-128.44-245.7-244.36-304.3-154.27-77.9-325.86-86.3-515.83-24.3l-233.15 75.7-153.85-473.04-374.38 121.64 472.04 1452.2 616.19-200.3c170.31-55.3 293.8-130.7 370.92-226 94.67-117.8 115.43-258.2 62.42-421.6zm-390.11 117.1c26.72 82.4 8.36 150.5-55.54 203.7-41.52 34-125.82 72-253.19 113.4l-64.42 21-141.37-435 107.34-34.9c128.17-41.7 221.27-50.3 279.49-26 58.76 23.9 101.41 76.6 127.69 157.8zm1414.46-2051.07-329.3 239.39 95.9 311.84-457.96 332.69-266.93-187.6-321 233.36L10661 10521.5l366.8-266.4zm-145.9 833.79 170 553.48-473.6-333.09zm1597.9-3668.02-126 387.1 261.3 195.96-175.3 538.33-325.9 5.05-122.9 377.53 1626.6-64.55 140.1-431.15zm372.1 760.39 462.7 347.48-578.9 9.46zm-559.3 1160.4c-140.5-101.96-294-115.69-460.3-41.53-102.8 46.2-197.9 118.14-285.8 215.77l-166.8-98.74-186.2 287.95 154.5 98.28c-61.5 115.46-107.6 237.28-138.2 365.39l296.2 215.37 25.4-34.85c-9.8-215.79 46.4-407.57 168.3-575.12 48-66.46 92.5-112.26 132.9-137.92 62.7-39.82 117.6-42.64 164.5-8.35 55.5 39.99 61.2 113.2 17.2 218.88-35.7 74.84-84 188.87-144.7 342.3-78.3 241.48-31.9 424.58 139.6 549.09 130.7 95 277.1 105.71 439.2 32.65 133.3-60.27 251-160.84 353.1-301.2 118.7-163.31 199.2-332.43 242.2-507.52l-284.6-206.71-24.8 33.93c8.6 184.81-42.5 353.29-153.4 506.07-43.9 60.13-90.2 105.54-138.6 136.39-59.3 37.28-109.8 40.27-152.5 9.46-39.4-28.58-54.2-71.32-44.6-128.74 5.2-28.34 22.4-74.5 51.2-138.79l68-151.03c22.1-50.05 42.3-103.56 61.3-160.88 73.9-228.58 29.6-401.9-133.1-520.15M3537.31 6121.44c45.2-10.36 74.79-38.81 88.89-85.27 11.43-37.93 11.58-81 .48-129.54-12.52-54.03-34.71-103-66.28-147.48l-95.04 22.08 2.57 10.99c45.03 36.05 73.75 80.6 86.21 134.59 5.01 20.98 6.36 38.11 4.38 50.51-2.92 19.75-11.89 31.48-26.84 34.89-17.95 3.79-33.67-7.69-47.17-34.97-8.86-20.19-23.2-49.78-43.61-88.86-34.84-58.12-79.7-80.63-134.79-67.96-41.86 9.48-69.65 37.2-83.28 82.49-11.3 37.62-11.55 78.69-1.22 123.76 12.04 52.37 32.03 98.18 59.78 137.24l91.25-20.98-2.46-11c-38.78-30.49-63.57-70.12-75.02-119.07-4.45-19.44-5.31-36.71-3.19-51.75 2.81-18.58 11.29-29.1 25.03-32.4 12.27-3.07 23.58 1.5 33.43 13.39 4.9 6.12 11.01 17.71 19.05 34.81l18.5 39.98c6.16 13.43 13.53 26.66 21.49 40.37 33.13 54.97 75.78 76.23 127.84 64.18m182.23 830.44c-20.77 10.38-39.41 8.42-55.89-6.31-10.69-9.5-24.32-29.85-40.51-61.91l-8.11-15.99 108.54-55.34 13.77 26.82c16.21 31.79 22.36 56.06 18.51 72.51-3.91 16.31-16.08 29.87-36.31 40.22zm46.91 97.73c36.2-18.4 59.42-44.02 69.96-77.02 14.16-43.96 9.22-89.28-15.09-136.92l-29.6-57.97 118.28-60.19-47.78-93.58-362.61 184.64 78.6 153.93c21.74 42.49 46.52 71.98 74.9 88.3 34.88 19.88 72.58 19.53 113.34-1.19m664.04 631.89c-8.83 15.05-21.49 30.42-38.28 45.9-33.18 30.84-65.38 46.95-96.89 48.3-27.3 1.18-50.84-8.76-70.34-29.73-19.31-20.89-27.93-44.87-25.33-72.23 2.82-30.63 21.25-62 55.62-93.83 33.07-30.77 65.1-46.91 96.42-48.37 27.49-1.35 50.91 8.65 71.09 30.12 9.03 9.8 15.82 21 20.37 33.53 9.8 26.74 5.63 55.71-12.66 86.31zm36.24 125.34c47.89-44.39 72.93-93.31 75.11-146.5 2.52-53.13-18.74-103.48-63.1-151.27-44.56-47.77-93.31-72.25-146.6-73.8-52.92-1.35-103.52 20.19-151.3 64.97-48.09 44.73-73.27 93.38-75.75 146.34-2.43 53 18.93 103.57 63.61 151.42 44.48 47.77 93.44 72.47 146.37 73.93 53.17 1.32 103.77-20.27 151.66-65.09m931.86 415.91-109.79-66.18-171.89 70.74-41.25-24.93 76.62-127.78-89.41-53.9-209.46 348.77 150.79 90.56c42.1 25.57 77.62 38.25 105.86 38.25 39.16 0 68.7-16.83 89.37-51.19 27.99-46.63 25.77-95.04-7.03-144.94zm-285.75 157.44c-10.88 18.35-26.4 25.86-46.04 22.95-10.9-1.75-28.58-9.89-52.75-24.53l-32.8-19.54 56.47-93.96 27.65 16.76c30.29 17.88 47.98 34.08 53.51 47.86 6.37 16.48 4.56 33.38-6.04 50.46m1845.56 224.05-128.42-8.97-132.71 154.02-22.5-31.43 9.6-132.87-104.99-7.14-28.33 405.87 104.6 7.23 12.75-183.67 132.37 193.76 121.19 8.59-145.5-198.95 181.94-206.44m920.98 28.84c-10.92-52.45-35.97-88.26-75.22-106.77-35.05-16.69-79.96-19.37-134.19-7.99-54.4 11.68-93.9 32.03-118.94 61.65-28.21 32.76-36.97 75.64-25.63 128.12l53.72 254.11 103.49-21.84-52.64-248.34c-11.65-54.74 7.02-87.28 56.29-97.69 26.71-5.59 47.2-2.61 62.27 9.15 13.7 10.61 23.29 29.6 29.17 57.03l52.64 248.47 103.37-21.9-54.33-254m794.36-467.43-263.8 128.53 178.31 365.63 94.32-45.83-143.76-294.97 169.39-82.62-34.46-70.74m853.37-80.17-61.09 53.11 48.85 56.48 61.09-53.38zm110.94-96.01-61.33 53 48.95 56.41 61.35-53.21zm-138.32-257.51c-35.17-40.58-74.61-59.58-117.88-56.79-38.74 2.02-79.19 21.59-121.09 57.99-41.84 36.5-66.58 73.57-74.24 111.64-8.83 42.18 4.55 83.68 39.77 124.37l170.31 196.17 79.66-69.31-166.47-191.44c-36.73-42.22-35.97-79.92 1.82-112.78 20.64-17.98 40.33-25.33 58.94-22.4 17.17 2.78 34.88 14.86 53.24 35.88l166.32 191.77 79.69-69.28-170.07-195.82m529.97-692.43c19.9 13.39 26.4 30.96 19.3 52.79-2.8 9.56-16.5 32.06-40.8 67.78l-12.85 19.16-83.93-56.86 4.24-6.36 35.71-52.44c16.94-24.38 34.65-35.61 53.33-33.67 8.4.87 16.9 3.93 25 9.6zm122.8 113.82c14.9 9.91 20.2 22.71 16.6 38.71-2.5 9.53-15.1 31.49-38.6 66.42l-5.3 8.1-71.5-48.3 9-13.25c20.9-31.06 35.8-49.42 44.4-54.59 14.2-8.89 29.6-8.05 45.4 2.91zm-63.3-204.93c-32.1-21.81-65.7-26.4-100.96-14.12-34.9 12.34-67.46 40.75-97.62 85.71l-99.46 147.31 337.24 227.55 88.3-130.9c15.7-23.33 26.4-40.2 32.1-50.77 10.1-19.59 16.5-38.11 18.8-56.41 4.5-34.01-8.5-60.89-37.8-81.06-33.8-22.81-69-22.43-105.7.7l-1.8-1.33c22.9-54.28 11.8-96.43-33.1-126.68m588-584.52-24.9 77.13 70.9 23.09 25.1-77.13zm45.5-139.35-25 76.99 70.8 23.07 25.3-77.21zm-252-153.95c-51-16.49-94.3-12.58-130.2 12.03-32 21.84-56.7 59.29-73.9 112.05-17.1 52.89-19.2 97.52-6.1 133.99 14.2 40.83 46.8 69.62 98.1 86.14l247 80.37 32.6-100.4-241.4-78.53c-53.2-17.17-71.9-49.73-56.3-97.37 8.3-26.12 21.5-42.56 39.1-49.73 15.8-6.25 37.4-5.24 64.1 3.54l241.3 78.5 32.7-100.26-247-80.33" style="fill:#fff;fill-opacity:1;fill-rule:nonzero;stroke:none" transform="matrix(.02055 0 0 -.02055 1 251)"/><path d="M6391.84 2520.96h-97.21v66.21l78.22 43.77c24.65 15.1 47.15 31.23 67.53 48.51h62.25V1954.2h-110.79zm512.07-6.84c0 45.27-19.4 68.25-57.59 68.25-38.33 0-57.45-22.98-57.45-68.25v-118.98c0-23.39 4.51-40.52 13.88-51.58 10.05-11.31 22.43-16.97 37.56-16.97 11.3 0 22.7 4.08 34.73 11.75l28.87 21.01zm-110.15-367.82v-36.5c0-45.8 17.57-68.5 52.56-68.5 38.19 0 57.59 22.7 57.59 68.5v167.45l-22.84-20.9-21.85-14.89-24.69-8.99-31.78-2.89c-17.8 0-34.78 2.54-50.61 7.85-15.75 5.29-29.69 13.88-41.48 25.71-11.96 11.89-21.63 27.08-28.91 45.63-6.73 18.58-9.79 40.92-9.79 67.53v85.15c0 76.08 13.42 131.01 40.52 165.58 27.01 34.88 71.69 52.42 133.84 52.42 62.11 0 106.84-15.88 133.72-47.44 27.15-31.1 40.65-80.69 40.65-148.74V2140.4c0-68-13.5-117.9-40.65-149.7-26.88-30.9-71.61-46.7-133.72-46.7-24.45-.4-46.67 3.1-66.32 11-19.37 8-35.72 18.8-49.58 32.7-14.03 14.6-24.8 31.5-32.8 50.5-7.26 19.8-10.92 41.3-10.92 64.5v43.6zm346.32-192.1v96l100.96 149.54c29.84 44.37 54.62 84.39 74.21 120.02 20 35.53 34.86 67.87 44.71 97.12 10.58 29.59 15.89 57.74 15.89 84.26 0 28.34-4.98 48.86-14.82 61.48-9.84 12.98-23.53 19.75-40.58 19.75-19.98 0-34.79-7.02-44.63-20.83-9.99-13.87-14.97-31.7-14.97-53.54v-48.38h-116.99v33.67c0 26.46 3.91 50.65 11.94 73.23 8.65 22.51 20.48 41.84 35.53 58.36 16.1 17.22 35.32 30.49 57.62 39.85 22.47 9.76 48.34 14.72 77.22 14.72 25.27 0 47.96-4.15 68.42-12.8 20.59-8.7 38.05-20.61 52.67-35.71 14.4-14.5 25.63-31.35 33.65-50.61 7.87-19.1 11.82-38.79 11.82-59.37 0-28.34-2.86-56.19-8.83-83.25-5.31-26.36-16.19-56.86-32.82-91.26-16.55-34.31-39.51-74.47-69.29-120.95-29.68-46.12-68.6-103-116.89-170.4h216.98v-100.9zm571.82 566.76h-97.13v66.21l78.11 43.77c24.37 15.1 47.04 31.23 67.64 48.51h62.25V1954.2H7711.9v566.76" style="fill:#2f4ba6;fill-opacity:1;fill-rule:nonzero;stroke:none" transform="matrix(.02055 0 0 -.02055 1 251)"/></svg>