<svg xmlns="http://www.w3.org/2000/svg" width="257.953" height="257.859" viewBox="0 0 68.25 68.225"><path d="M292.173 434.702c30.965 0 56.22 25.245 56.22 56.198 0 30.956-25.255 56.202-56.22 56.202-30.966 0-56.221-25.246-56.221-56.202 0-30.952 25.255-56.198 56.22-56.198z" style="fill:#00804d;fill-rule:evenodd" transform="translate(-138.02 -255.123) scale(.5892)"/><path d="M292.176 436.823c29.797 0 54.102 24.293 54.102 54.08s-24.305 54.081-54.102 54.081c-29.799 0-54.104-24.294-54.104-54.081 0-29.787 24.305-54.08 54.104-54.08z" style="fill:#fff;fill-rule:evenodd" transform="translate(-138.02 -255.123) scale(.5892)"/><path d="M337.957 494.08c-.243-1.1-.292-2.492-.583-3.854-.695.991-1.457 2.334-1.91 3.627-.18.502-1.408 4.164 1.035 2.752 2.025 1.977 1.57-2.039 1.457-2.525zm3.772.392c-1.15 1.227-2.445 2.637-3.157 3.753-.42.68-.908 1.537-.26 2.234.584.6 1.442.68 2.138-.018.826-.857 1.083-3.737 1.278-5.97zm-7.334 1.567c-.6-1.439-1.458-2.979-2.38-4.873-.114 1.977-.356 4.373-.21 5.812.276.631.76 1.039 1.39 1.15 1.087-.357 1.282-.972 1.2-2.089zm-1.213 5.584c-.421-1.503-.713-2.8-1.782-3.949-.372 1.88-1.003 3.028-.905 4.55.208.68.63 1.133 1.244 1.327 1.118-.227 1.378-.793 1.442-1.928zm3.948-.484c-.015-1.053.05-1.974-.824-3.4-1.295.94-2.007 1.911-2.348 3.497-.064.923.923 1.152 1.538.824 1.279 1.41 1.65-.193 1.635-.92zm3.431.972c-2.54 1.198-4.062 2.848-3.964 3.966.275 1.181 1.02 1.747 2.217.857 1.199-.89 1.262-2.702 1.747-4.823zm-4.854 4.743c.307-1.15.16-2.155-.616-3.803-1.474.857-2.25 1.569-2.85 3.398-.178.971.844 1.311 1.524 1.035 1.116 1.295 1.715.211 1.942-.63zm-4.453.21c-.21-1.603-.307-2.963-1.245-4.306-.663 1.894-1.473 2.961-1.571 4.531.08.73.47 1.248 1.069 1.523 1.165-.082 1.538-.63 1.748-1.748zm-2.526 5.327c-.015-1.62.098-2.98-.662-4.436-.971 1.78-1.862 2.736-2.186 4.271 0 .715.308 1.28.875 1.653 1.164.082 1.586-.422 1.973-1.488zm4.696-.908c.016-.955.032-1.975-.178-2.979-.955.342-1.813 1.084-2.395 1.828-.665.878-2.008 2.996.386 2.447 1.15 2.137 2.187-.486 2.187-1.296zm5.003-2.59c-2.688.792-4.096 1.845-4.194 2.963.066 1.148.633 2.007 1.83 1.148 1.165-.84 1.375-1.779 2.364-4.11zm-2.72 5.65c-2.72.566-4.485 1.635-4.694 2.753.129 1.148.583 2.151 1.909 1.311 1.31-.81 1.49-1.845 2.785-4.064zm-5.472 2.381c.21-1.004.55-1.83.292-3.239-1.214.34-2.477 1.053-3.336 2.106-.857 1.082-1.375 2.346.583 1.941.599 2.25 2.153.39 2.46-.808zm-4.793.24c.196-1.602.422-2.96-.176-4.467-1.101 1.653-2.137 2.51-2.607 4-.081.711.177 1.296.696 1.732 1.133.225 1.602-.244 2.087-1.264zm-4.014 4.453c.372-1.6.794-2.947.389-4.582-1.328 1.555-2.526 2.316-3.173 3.774-.178.728 0 1.36.47 1.845 1.116.371 1.699-.032 2.314-1.037zm4.71.47c.423-.777.746-1.767.665-3.14-1.214.194-2.51.744-3.513 1.62-1.117.952-2.04 2.038.29 2.07.325 2.476 1.99.453 2.559-.55zm5.684-1.407c-2.801.178-4.711 1.148-5.067 2.216-.066 1.133.129 2.04 1.65 1.344 1.442-.648 1.78-1.537 3.417-3.56zm-4.614 5.26c-2.801-.292-5.213.55-5.7 1.716-.193 1.133.115 1.992 1.57 1.602 1.41-.389 2.284-1.489 4.13-3.319zm-6.362 1.02c.598-.876 1.1-1.829 1.198-3.384-1.295.065-2.816.34-3.95 1.264-1.15.94-2.121 2.009.129 2.183.178 2.543 1.99.891 2.623-.064zm-4.906-1.005c.582-1.537 1.199-2.832 1.022-4.5-1.524 1.377-2.818 1.96-3.692 3.303-.26.695-.18 1.36.21 1.91 1.084.517 1.684.193 2.46-.713zm-1.83 5.295c1.588-.97 2.38-2.703 2.59-3.547-.89 0-1.845.082-2.686.18-.534.162-.94.306-1.457.713-.988.986-.582 2.134 0 2.654.534.244 1.149.244 1.554 0zm8.063-.875c-2.737-.649-5.02-.178-5.698.744-.405 1.086-.388 1.96 1.149 1.861 1.473-.095 2.396-1.132 4.549-2.605zm-11.09 2.023-1.067-1.068c.129-.873.679-2.12.825-2.996-1.037 1.184-1.765 2.156-3.221 3.111-.955.387-1.538.856-2.785 1.082.76-1.797.55-3.009.243-3.576-.226 2.152-1.602 3.804-3.011 4.922-2.331 1.828-5.65 3.172-8.515 4.55 1.44-.31 2.898-.747 3.869-.892 1.506-.21 4.257-.357 5.634.16.954.358 1.829 1.088 1.634 2.008.745-.873.664-1.586.179-2.07-1.247-1.248-4.825-1.215-5.44-1.069 1.91-.792 3.416-1.912 5.196-2.687 1.797-.794 3.869-1.49 6.46-1.475zm-64.462-38.318c.242-1.1.29-2.492.583-3.854.695.991 1.456 2.334 1.91 3.627.178.502 1.408 4.164-1.036 2.752-2.023 1.977-1.57-2.039-1.457-2.525zm-3.771.392c1.149 1.227 2.444 2.637 3.155 3.753.42.68.907 1.537.26 2.234-.582.6-1.442.68-2.137-.018-.825-.857-1.084-3.737-1.278-5.97zm7.333 1.567c.598-1.439 1.457-2.979 2.378-4.873.114 1.977.358 4.373.21 5.812-.274.631-.76 1.039-1.391 1.15-1.084-.357-1.28-.972-1.197-2.089zm1.214 5.584c.42-1.503.71-2.8 1.78-3.949.373 1.88 1.004 3.028.908 4.55-.211.68-.632 1.133-1.248 1.327-1.117-.227-1.376-.793-1.44-1.928zm-3.951-.484c.017-1.053-.05-1.974.825-3.4 1.296.94 2.008 1.911 2.348 3.497.066.923-.922 1.152-1.537.824-1.28 1.41-1.651-.193-1.636-.92zm-3.43.972c2.54 1.198 4.062 2.848 3.965 3.966-.276 1.181-1.02 1.747-2.218.857-1.2-.89-1.263-2.702-1.747-4.823zm4.855 4.743c-.308-1.15-.161-2.155.615-3.803 1.474.857 2.25 1.569 2.849 3.398.179.971-.842 1.311-1.522 1.035-1.116 1.295-1.714.211-1.942-.63zm4.452.21c.21-1.603.307-2.963 1.246-4.306.663 1.894 1.474 2.961 1.572 4.531-.082.73-.47 1.248-1.07 1.523-1.165-.082-1.537-.63-1.748-1.748zm2.526 5.327c.014-1.62-.098-2.98.663-4.436.97 1.78 1.862 2.736 2.186 4.271 0 .715-.307 1.28-.875 1.653-1.166.082-1.586-.422-1.974-1.488zm-4.696-.908c-.016-.955-.032-1.975.179-2.979.955.342 1.812 1.084 2.396 1.828.663.878 2.006 2.996-.39 2.447-1.15 2.137-2.185-.486-2.185-1.296zm-5.001-2.59c2.687.792 4.095 1.845 4.193 2.963-.066 1.148-.632 2.007-1.83 1.148-1.165-.84-1.376-1.779-2.363-4.11zm2.719 5.65c2.72.566 4.484 1.635 4.694 2.753-.13 1.148-.582 2.151-1.91 1.311-1.31-.81-1.49-1.845-2.784-4.064zm5.472 2.381c-.21-1.004-.551-1.83-.291-3.239 1.213.34 2.476 1.053 3.334 2.106.859 1.082 1.377 2.346-.582 1.941-.6 2.25-2.154.39-2.461-.808zm4.793.24c-.196-1.602-.422-2.96.177-4.467 1.1 1.653 2.136 2.51 2.606 4 .08.711-.178 1.296-.696 1.732-1.132.225-1.603-.244-2.087-1.264zm4.013 4.453c-.373-1.6-.792-2.947-.388-4.582 1.328 1.555 2.525 2.316 3.173 3.774.178.728 0 1.36-.47 1.845-1.116.371-1.7-.032-2.315-1.037zm-4.711.47c-.42-.777-.745-1.767-.663-3.14 1.214.194 2.509.744 3.513 1.62 1.116.952 2.04 2.038-.292 2.07-.324 2.476-1.991.453-2.558-.55zm-5.682-1.407c2.8.178 4.71 1.148 5.067 2.216.066 1.133-.13 2.04-1.651 1.344-1.441-.648-1.781-1.537-3.416-3.56zm4.614 5.26c2.8-.292 5.214.55 5.698 1.716.195 1.133-.112 1.992-1.57 1.602-1.407-.389-2.282-1.489-4.128-3.319zm6.363 1.02c-.6-.876-1.102-1.829-1.2-3.384 1.296.065 2.802.356 3.95 1.264 1.15.906 2.122 1.975-.128 2.183-.18 2.543-1.991.891-2.622-.064zm4.905-1.005c-.583-1.537-1.2-2.832-1.02-4.5 1.522 1.377 2.817 1.96 3.69 3.303.259.695.179 1.36-.21 1.91-1.084.517-1.683.193-2.46-.713zm1.83 5.295c-1.588-.97-2.381-2.703-2.591-3.547.89 0 1.845.082 2.686.18.536.162.94.306 1.458.713.987.986.582 2.134 0 2.654-.534.244-1.15.244-1.553 0zm-8.064-.875c2.738-.649 5.019-.178 5.699.744.405 1.086.388 1.96-1.15 1.861-1.473-.095-2.395-1.132-4.55-2.605zm11.09 2.023 1.066-1.068c-.127-.873-.677-2.12-.823-2.996 1.035 1.184 1.764 2.156 3.222 3.111.955.387 1.537.856 2.784 1.082-.762-1.797-.551-3.009-.244-3.576.227 2.152 1.604 3.804 3.012 4.922 2.332 1.828 5.65 3.172 8.515 4.55-1.441-.31-2.897-.747-3.87-.892-1.504-.21-4.257-.357-5.633.16-.954.358-1.83 1.088-1.634 2.008-.745-.873-.664-1.586-.18-2.07 1.248-1.248 4.825-1.215 5.44-1.069-1.91-.792-3.416-1.912-5.195-2.687-1.798-.794-3.87-1.49-6.46-1.475z" style="fill:#00804d;fill-rule:evenodd" transform="translate(-138.02 -255.123) scale(.5892)"/><path d="M294.895 503.254c-.404-.05-.858-.55-1.004-1.586l-.744-4.205.501-.117 1.586 4.103c.211.553.308 1.537-.339 1.805zm-7.592-3.439c-.665-1.1-1.296-1.286-2.056-1.518l.436-.8c1.053.165 1.815.866 1.62 2.318zm-13.826 1.57c.534-1.035 1.555-1.836 2.397-1.537l.08.87c-.729-.269-1.666.25-2.477.667zm33.867-5.459c.129-.317.453-.617 1.634-.733-.92-.502-1.684-.285-2.508-.05.308.265.598.502.874.783zm4.096 2.17c-.695-.633-2.008-1.319-2.768-.768l.47.785c.614-.418 1.358-.2 2.298-.017zm-9.583 8.38-3.967-4.089.308-.369 4.888 2.873c.696.416 1.068 1.451.94 1.785-.147.351-1.425.617-2.169-.2zm-2.155 1.467-2.978-4.755.39-.284 4.176 3.954c.598.57.712 1.621.567 1.837-.163.235-1.587.2-2.155-.752zm-9.663 2.186.921-5.79-.516-.134-2.479 5.276c-.339.732-.015 1.8.358 2 .404.203 1.57-.215 1.716-1.352zm-2.882-.732 2.136-5.442-.42-.219-3.48 4.526c-.502.668-.55 1.752-.227 2.035.372.283 1.585.133 1.991-.9zm-4.58-2.922 3.948-4.106-.307-.367-4.889 2.89c-.696.415-1.133 1.4-.939 1.766.227.385 1.424.635 2.186-.183zm9.63 5.691c0 .385 1.214-.867 1.07-1.719l-.762-5.892h-.615l-.76 5.892c-.145.852 1.067 2.104 1.067 1.72zm0-8.445c.55 0 1.053-.783.988-1.518l-.744-4.69h-.486l-.745 4.69c-.064.735.437 1.518.987 1.518zm-2.687-.467c.405-.05.858-.55 1.004-1.586l.745-4.205-.503-.117-1.585 4.103c-.21.553-.308 1.537.34 1.805zm-2.152-1.102c.355.217.922-.4 1.05-.767l1.701-4.172-.55-.234-2.201 3.906c-.243.383-.243 1.117 0 1.267zm-2.639 5.776 2.962-4.758-.373-.283-4.177 3.971c-.615.585-.842 1.503-.58 1.837.29.317 1.568.2 2.168-.767zm9.632 2.221-.89-5.81.485-.134 2.494 5.24c.257.551.015 1.872-.372 2.036-.374.168-1.54-.233-1.717-1.332zm2.897-.77-2.136-5.424.42-.219 3.497 4.541c.502.653.534 1.77.227 2.02-.34.301-1.603.133-2.008-.918zm-.21-7.227c-.356.217-.924-.4-1.052-.767l-1.701-4.172.551-.234 2.201 3.906c.244.383.244 1.117 0 1.267zm.066-2.337c.663-1.1 1.295-1.286 2.054-1.518l-.437-.8c-1.052.165-1.813.866-1.617 2.318zm10.828.734.065-.8c-.372-1.15.033-1.268.681-1.552l-.373-.67c-1.359-.132-1.553-.566-1.57-1.533l-.616-.502c-1.132.217-1.132.617-1.78 1.235-.163.201-.728.267-1.118.267-.469 0-.889-.45-1.084-.75l-1.748-3.638c-.323.066-.648.4-.858.685 0 .6.453 1.567.453 1.852 0 .232.307 1.068.307 1.584l-1.066.601.467.801c2.607-.383 3.27 1.168 4.955 1.502.421.068 2.332.734 3.285.918zm-34.966-2.453c.695-.633 2.007-1.319 2.77-.768l-.47.785c-.617-.418-1.36-.2-2.3-.017zm4.096-2.17c-.13-.317-.454-.617-1.636-.733.923-.502 1.684-.285 2.51-.05-.308.265-.6.502-.874.783zm-9.324-5.707c-.099-2.104 2.054-9.379 3.56-12.168h.26c-.973 4.473-1.879 10.182-1.28 16.474 0 1.018-.307 2.32-1.198 2.604-1.392-.05-1.342-5.994-1.342-6.91zm4.694-12.133h.323c-.114 3.272.017 6.71-.356 10.014-.114.867-.939 1.568-1.393.2-.274-3.556 1.086-7.51 1.426-10.214zm-5.39 9.797c-.729 3.721.306 13.601-.616 17.691-.276 1.235-2.268 3.621-2.429-.734.34-6.094 1.942-12.535 3.044-16.957zm44.242-14.086c-.794-.068-1.166-.535-1.149-.938 0-.632.68.168 1.15.168.662-.017.97-.734 1.036-.3.064.668-.583 1.12-1.037 1.07zm-2.088-1.772c-.777-.066-1.182-.533-1.149-.935 0-.615.663.152 1.15.152.68-.017.97-.7 1.035-.283.065.666-.583 1.117-1.036 1.066zm-1.62 1.772c-.776-.068-1.18-.535-1.148-.938 0-.615.664.151 1.148.151.68-.016.972-.7 1.037-.283.065.668-.583 1.12-1.037 1.07zm-1.295 2.234c-.776-.066-1.18-.533-1.148-.933 0-.617.664.15 1.148.15.68-.017.972-.7 1.037-.283.065.666-.583 1.117-1.037 1.066zm3.417 0c-.777-.066-1.182-.533-1.15-.933 0-.617.663.15 1.15.15.679-.017.97-.7 1.037-.283.064.666-.584 1.117-1.037 1.066zm-36.587-2.234c-.453.05-1.1-.402-1.037-1.07.066-.434.374.283 1.037.3.47 0 1.15-.8 1.15-.168.017.403-.356.87-1.15.938zm2.088-1.772c-.453.051-1.1-.4-1.036-1.066.066-.418.356.266 1.036.283.486 0 1.15-.767 1.15-.152.032.402-.37.87-1.15.935zm1.62 1.772c-.454.05-1.102-.402-1.037-1.07.066-.418.357.267 1.037.283.485 0 1.148-.766 1.148-.15.033.402-.37.87-1.148.937zm1.295 2.234c-.454.051-1.102-.4-1.038-1.066.067-.418.358.266 1.038.283.485 0 1.148-.767 1.148-.15.033.4-.37.867-1.148.933zm-3.416 0c-.454.051-1.102-.4-1.037-1.066.066-.418.357.266 1.037.283.486 0 1.15-.767 1.15-.15.032.4-.374.867-1.15.933zm24.72-11.13c.453 0 .809.365.809.833 0 .467-.356.834-.81.834-.453 0-.809-.367-.809-.834 0-.468.356-.834.81-.834zm-14.472 0c.453 0 .808.365.808.833 0 .467-.355.834-.808.834a.815.815 0 0 1-.811-.834c0-.468.357-.834.811-.834zm31.729 25.318c.097-2.104-2.056-9.379-3.56-12.168h-.26c.971 4.473 1.878 10.182 1.278 16.474 0 1.018.308 2.32 1.197 2.604 1.393-.05 1.345-5.994 1.345-6.91zm-4.695-12.133h-.324c.114 3.272-.016 6.71.356 10.014.113.867.938 1.568 1.393.2.275-3.556-1.084-7.51-1.425-10.214zm5.391 9.797c.728 3.721-.308 13.601.615 17.691.276 1.235 2.266 3.621 2.428-.734-.34-6.094-1.943-12.535-3.043-16.957zm-6.443 13.502c-.533-1.035-1.554-1.836-2.396-1.537l-.08.87c.727-.269 1.666.25 2.476.667zm-18.731-7.494c1.344 0 2.591-.518 3.351-1.3.73-.87.664-2.339.405-3.507-.259-1.35-.599-3.705-.405-5.342.13-.867 1.005-2.203 1.927-2.203.518 0 2.04-.18 2.93.62-.129-1.237-.437-3.942.226-4.825a.955.955 0 0 1 .842-.367c.308.617.777 1.051 1.441 1.285.341-.484.551-1.035.681-1.152.193 0 .614.201.81.25.193 1.17-.989 2.588-.049 2.804.162.034.598-.084.777-.734.096-.217.21-1.602.096-1.885.097.016.503.05.94.067.064.5.064 1.334-.389 3.088-.048 1.267.825 1 1.132.181.357-1.484.259-2.084.067-3.203.533.033.646.05 1.261.05-.047 1.718-.874 2.837-.76 3.706-.032.416.113 1.068.534 1.135.615-.168.696-.485.907-1.135.242-1.186.047-2.422-.163-3.69.373 0 .713-.017 1.118-.017-.083 1.82-.356 4.656-.356 6.476 0 .567.55 3.372 1.215 1.487.064-.219.338-1.153.355-1.803.065-1.637-.226-4.057-.633-6.176 1.457-.017 2.543-.2 2.915-.45.308.685.94 1.485 1.635 1.57-.712-1.337-1.052-2.288-1.052-2.823 0-.7.307-.767.307-.767.18 0 .471.568.583.968 1.489 3.89 4.954 21.297 5.86 20.28 1.118-1.737-1.586-10.35-3.479-16.04-.616-1.82-1.896-4.658-2.219-5.859.583.834 1.231 1.87 1.473 2.453.891 2.07 2.137 5.46 2.721 7.862.372 1.435 1.019 1.586 1.019.484-.534-3.139-1.474-5.54-2.024-7.162-.566-1.7-2.136-4.522-3.593-6.223-1.328-1.537-3.4-2.972-5.488-2.937.631-.535 2.98-.05 3.593.515.972.502 2.446 2.537 3.24 3.405.71 1.035 2.33 2.804 3.025 2.771-1.23-1.385-2.315-3.139-3.205-4.455-.793-1.17-2.41-3.12-3.108-3.256-.437-.066-2.347-.734-3.66-.183a9.333 9.333 0 0 0-2.944 2.236c-2.543 4.24-2.866 4.49-8.063 4.49-1.925 1.385-3.885 2.104-5.796 2.104-1.91 0-3.869-.719-5.794-2.104-5.198 0-5.522-.25-8.063-4.49a9.33 9.33 0 0 0-2.946-2.236c-1.31-.55-3.222.117-3.659.183-.696.135-2.315 2.086-3.108 3.256-.889 1.316-1.975 3.07-3.205 4.455.696.033 2.316-1.736 3.027-2.77.792-.869 2.266-2.904 3.238-3.406.614-.566 2.962-1.05 3.594-.515-2.088-.035-4.162 1.4-5.489 2.937-1.456 1.701-3.027 4.522-3.593 6.223-.55 1.621-1.49 4.023-2.024 7.162 0 1.102.648.951 1.021-.484.582-2.403 1.828-5.793 2.718-7.862.243-.584.891-1.619 1.473-2.453-.322 1.201-1.603 4.04-2.217 5.858-1.894 5.691-4.597 14.304-3.481 16.041.907 1.017 4.371-16.39 5.861-20.28.113-.4.403-.968.582-.968 0 0 .308.066.308.767 0 .535-.339 1.486-1.053 2.822.697-.084 1.328-.884 1.637-1.57.372.25 1.456.434 2.914.451-.407 2.12-.698 4.54-.633 6.176.017.65.291 1.584.356 1.803.663 1.885 1.216-.92 1.216-1.487 0-1.82-.276-4.656-.358-6.476.405 0 .746.017 1.118.017-.21 1.268-.404 2.504-.163 3.69.211.65.292.967.907 1.135.422-.067.567-.719.533-1.135.116-.869-.71-1.988-.759-3.707.615 0 .728-.016 1.262-.049-.194 1.12-.292 1.72.066 3.203.306.82 1.181 1.086 1.132-.18-.454-1.755-.454-2.589-.388-3.089.437-.018.842-.05.94-.067-.114.283 0 1.668.095 1.885.18.65.616.768.777.734.94-.216-.242-1.634-.048-2.804.195-.049.616-.25.81-.25.13.117.34.668.68 1.152.663-.234 1.133-.668 1.441-1.285a.95.95 0 0 1 .841.367c.663.883.356 3.588.226 4.824.892-.8 2.414-.619 2.931-.619.922 0 1.797 1.336 1.926 2.203.195 1.637-.145 3.991-.403 5.342-.261 1.168-.325 2.637.403 3.506.763.783 2.008 1.301 3.351 1.301zm3.675-21.164.568-1.637c2.426-.232 3.4-1.484 4.175-3.354l2.3-.064.566-.303-2.54-.383.403-.433 2.8.566.422-.4-2.574-1.035c-.89-1.133-1.911-1.836-2.817-1.836-2.865 0-2.202 1.385-5.003-.217l.162 2.035c-1.197 1.703-1.134 5.342-1.134 7.861.874.184 1.717-.214 2.672-.8zm-7.382 0c.956.586 1.781.968 2.656.785 0-2.52.081-6.143-1.117-7.846l.162-2.035c-2.801 1.602-2.138.217-5.002.217-.908 0-1.927.703-2.818 1.836l-2.574 1.035.421.4 2.802-.566.403.433-2.542.383.567.303 2.3.064c.776 1.87 1.746 3.122 4.176 3.354zm3.707 3.054c1.845.05 3.4-.484 4.793-1.668l-.697-.736c-1.505.803-2.234.986-4.111 1.053-1.895-.084-2.558-.266-4.064-1.069l-.696.735c1.393 1.185 2.898 1.72 4.775 1.685zm-6.62 17.291c.841-.099 1.538-.867 1.716-1.752.13-1.134.323-2.619.696-4.089.275-1.77.339-3.504-.518-4.557-.907-.566-1.798-.566-2.866 0-1.506 1.37-1.31 2.771-.697 5.625.211 1.002.341 2.086.18 3.506.549.232 1.165.767 1.488 1.267zm13.242 0c.323-.5.938-1.035 1.49-1.267a10.46 10.46 0 0 1 .177-3.506c.616-2.854.81-4.256-.696-5.625-1.069-.566-1.96-.566-2.865 0-.857 1.053-.794 2.787-.519 4.557.372 1.47.567 2.955.698 4.09.177.884.873 1.652 1.715 1.751zm-22.357 7.477-.065-.8c.373-1.15-.032-1.268-.68-1.552l.373-.67c1.36-.132 1.554-.566 1.57-1.533l.616-.502c1.132.217 1.132.617 1.781 1.235.161.201.728.267 1.116.267.47 0 .89-.45 1.085-.75l1.748-3.638c.324.066.647.4.858.685 0 .6-.454 1.567-.454 1.852 0 .232-.306 1.068-.306 1.584l1.068.601-.47.801c-2.605-.383-3.27 1.168-4.953 1.502-.422.068-2.332.734-3.287.918zm15.735-3.654c-.825.017-2.298-.268-2.897-.852-.583-.9-.615-1.45-.647-2.787.987.951 2.25 1.301 3.544 1.301 1.295-.016 2.575-.516 3.545-1.317-.048 1.334.291 2.02-.793 2.938-.696.584-1.925.717-2.752.717z" style="fill:#031b0a;fill-rule:evenodd" transform="translate(-138.02 -255.123) scale(.5892)"/><path d="m254.375 477.973-8.66-4.418 1.537-3.027 3.594 1.828-2.04-5.033 1.732-2.996 2.218 5.535 6.686-1.682-1.764 3.334-5.375 1.555 3.61 1.877zm4.208-16.123c1.264 1.182 2.462 1.375 3.239.55.728-.792.453-1.976-.858-3.173-.567-.535-1.28-1.004-1.796-1.086-.52-.063-1.102.113-1.425.453-.324.358-.471.893-.437 1.377.03.535.583 1.215 1.277 1.88zm-2.621 2.816c-1.035-.97-1.62-2.25-1.62-3.627 0-1.326.664-2.703 1.782-3.95.533-.581 1.213-1.147 1.797-1.456.615-.308 1.392-.582 1.94-.582.618 0 1.345.065 1.929.227.599.177 1.327.613 1.845 1.084.729.695 1.328 1.62 1.473 2.461.163.875.049 1.86-.211 2.687-.258.809-.874 1.733-1.488 2.38-.648.663-1.473 1.31-2.332 1.65-.777.324-1.764.437-2.59.372-.873-.064-1.83-.6-2.525-1.246zm12.514-5.632-4.581-8.5 3.254-1.991 6.102 3.01-2.671-4.92 2.573-1.392 4.599 8.693-2.946 1.555-6.881-3.401 3.027 5.553zm13.744-6.395-1.053-3.936-5.261-4.402 3.82-1.037 2.769 2.543 1.133-3.563 3.045-.841-2.107 6.396 1.07 3.932zm12.547-5.328-.94-2.799-.956 2.799zm-6.202 4.016 3.707-9.729h3.806l3.69 9.73h-3.69l-.714-1.896h-3.14l-.648 1.895zm12.903-1.877 3.335.435c.032.391.307.762.534.988.373.373.858.65 1.278.746.34.063.779.129 1.02.129.276 0 .503-.21.503-.339 0-.358-.568-.827-1.83-1.442-1.085-.535-2.137-1.264-2.768-1.86-.567-.552-.567-1.523-.211-2.575.147-.469.6-1.004 1.068-1.198.568-.244 1.313-.47 2.057-.47.777 0 1.57.146 2.33.339a6.48 6.48 0 0 1 2.542 1.329c.714.613 1.166 1.377 1.279 2.25l-3.043-.032c-.033-.341-.162-.761-.454-.957-.274-.193-.76-.484-1.1-.533-.242-.033-.663-.115-.955-.098-.26.018-.421.178-.438.29-.031.197.228.601.697.828.584.293 1.344.793 2.088 1.132.777.342 1.538.907 1.958 1.457.39.502.519 1.344.358 2.204-.098.597-.568 1.246-1.118 1.52-.647.325-1.376.55-2.201.55-.827 0-1.782-.162-2.64-.371-1.164-.307-2.33-1.004-3.108-1.717-.808-.744-1.246-1.65-1.181-2.605zm16.722 4.29 1.215.776c.29.193.696.26.955.26.276 0 .598-.26.663-.358.098-.193.13-.517.049-.744-.096-.258-.372-.582-.696-.777l-1.198-.778zm-6.086 2.815 5.149-8.254 4.386 2.768c1.326.824 2.315 1.797 2.622 2.556.308.811.292 1.846-.227 2.672-.323.533-.842.97-1.327 1.084-.55.147-1.263.242-1.812.131a5.611 5.611 0 0 1-1.733-.682l-2.09-1.31-1.844 2.996zm16.124 8.014c-1.295 1.197-2.477 1.408-3.24.566-.743-.793-.467-1.975.844-3.19.583-.533 1.263-.986 1.813-1.066.519-.082 1.084.08 1.424.453.324.373.469.873.438 1.36-.048.551-.583 1.215-1.28 1.877zm2.623 2.834c1.035-.973 1.618-2.25 1.618-3.627 0-1.36-.647-2.703-1.781-3.949a7.326 7.326 0 0 0-1.814-1.459c-.613-.323-1.358-.598-1.926-.598a6.836 6.836 0 0 0-1.926.226c-.63.196-1.328.618-1.845 1.102-.744.695-1.313 1.617-1.474 2.459-.161.89-.064 1.83.212 2.687.273.827.842 1.733 1.473 2.381a7.206 7.206 0 0 0 2.345 1.653c.794.322 1.75.435 2.592.371.858-.082 1.813-.598 2.526-1.246zm5.083 5.375-1.652.808.745 1.522c.16.357.453.664.712.761.178.065.453.13.68.016.26-.131.422-.357.454-.55.03-.276-.05-.712-.194-1.036zm.29-4.243 2.72 5.618c.277.568.55 1.23.616 1.716.064.5.064 1.084.033 1.473-.017.389-.292.826-.472 1.117-.193.307-.614.649-.922.778-.501.21-1.052.275-1.634.226-.486-.033-1.101-.388-1.62-.955l-2.848 3.772-1.75-3.594 2.559-3.272-.453-.937-3.366 1.635-1.622-3.303zm-51.649 55.354.906-4.324c-.39.307-.94.553-1.648.738l.133-.64c.35-.14.698-.325 1.04-.551a5.33 5.33 0 0 0 .772-.594 2.22 2.22 0 0 0 .297-.379h.41l-1.199 5.75zm4.004-3.579c0 .36.096.647.287.86.192.214.419.32.682.32.195 0 .389-.066.582-.2.193-.131.358-.33.496-.594a1.74 1.74 0 0 0 .207-.815c0-.218-.046-.422-.137-.61a.976.976 0 0 0-.373-.423.916.916 0 0 0-.478-.142.945.945 0 0 0-.461.125 1.438 1.438 0 0 0-.42.367 1.667 1.667 0 0 0-.29.556c-.063.21-.095.396-.095.557zm-.941 2.267.664-.067c.044.32.135.549.273.684a.676.676 0 0 0 .492.203c.27 0 .522-.117.754-.352.34-.343.592-.837.754-1.48a2.961 2.961 0 0 1-.631.379 1.457 1.457 0 0 1-.564.113 1.41 1.41 0 0 1-.938-.351c-.364-.305-.547-.743-.547-1.313 0-.645.21-1.2.633-1.66a1.735 1.735 0 0 1 1.332-.594c.474 0 .867.176 1.18.526.312.35.469.845.469 1.486a5.62 5.62 0 0 1-.313 1.844c-.247.713-.582 1.24-1.004 1.578-.343.276-.73.414-1.16.414-.396 0-.72-.123-.971-.37-.251-.245-.392-.592-.423-1.04zm4.378 1.312c.073-.341.174-.627.303-.857.13-.231.3-.45.513-.657.214-.207.625-.553 1.235-1.041.37-.294.622-.511.758-.652.195-.203.337-.402.425-.598.06-.133.09-.277.09-.433a.906.906 0 0 0-.279-.67.938.938 0 0 0-.686-.276c-.268 0-.502.094-.703.28-.2.186-.344.485-.429.896l-.692-.101c.068-.508.265-.909.592-1.202.327-.293.734-.439 1.221-.439.325 0 .62.068.884.203.265.136.463.326.596.57.133.246.2.498.2.758 0 .381-.136.746-.407 1.098-.166.219-.656.65-1.469 1.293a7.99 7.99 0 0 0-.779.68c-.17.177-.299.343-.385.5h2.563l-.137.648zm4.45 0a3.07 3.07 0 0 1 .303-.857c.129-.231.3-.45.512-.657.214-.207.625-.553 1.235-1.041.37-.294.622-.511.758-.652a2.19 2.19 0 0 0 .426-.598c.06-.133.09-.277.09-.433a.906.906 0 0 0-.28-.67.939.939 0 0 0-.685-.276c-.269 0-.502.094-.703.28-.2.186-.345.485-.43.896l-.692-.101c.069-.508.266-.909.592-1.202.327-.293.735-.439 1.222-.439.324 0 .62.068.883.203.265.136.464.326.596.57.133.246.2.498.2.758 0 .381-.135.746-.406 1.098-.167.219-.656.65-1.47 1.293a8.067 8.067 0 0 0-.779.68c-.17.177-.298.343-.385.5h2.564l-.137.648z" style="fill:#00804d;fill-rule:evenodd" transform="translate(-138.02 -255.123) scale(.5892)"/></svg>