<svg xmlns="http://www.w3.org/2000/svg" xml:space="preserve" width="188.385" height="254" version="1.0"><path d="M194.382 25.813c-24.844.05-49.641-8.553-64.76-25.813-15.12 17.26-39.915 25.863-64.761 25.813C40.067 25.813 15.223 17.157 0 0v274.67c0 24.438 20.568 46.076 45.363 45.973l26.219-.152c25.201-.152 44.294 9.826 58.04 31.006 13.746-21.18 32.838-31.158 58.039-31.006l26.221.152c24.793.104 45.361-21.535 45.361-45.973V0c-15.222 17.157-40.066 25.813-64.861 25.813z" style="clip-rule:evenodd;fill:#da0020;fill-rule:evenodd" transform="translate(2 2) scale(.71124)"/><path d="M5.651 116.538V274.67c0 21.332 17.972 40.424 39.66 40.271l26.271-.102c22.453-.152 44.345 8.248 58.04 26.576 13.695-18.328 35.588-26.729 58.039-26.576l26.271.102c21.688.152 39.66-18.939 39.66-40.271V116.538Zm38.236-10.336V93.271c0-.611 0-1.578-.255-2.087-.254-.407-.662-.407-1.375-.56-.865-.153-2.037-.306-2.037-1.579 0-.458.103-.865.408-1.069.662-.662 2.393-.305 3.156-.254.56.05 1.069.102 1.579.152.61 0 1.222.051 1.884.051 1.119 0 2.239-.102 3.309-.203.712-.051 1.935-.306 2.8 0 .509.152.917.56.917 1.323 0 1.833-2.088 1.222-2.953 1.985-.56.408-.661 1.273-.661 2.24v12.932c0 1.985.406 2.342 1.476 2.597.459.102.968.153 1.426.407.407.204.764.56.764 1.222 0 1.019-.764 1.426-1.629 1.426-1.12.051-2.343-.204-3.564-.255-.56 0-1.222-.05-1.832-.05-.662 0-1.324.05-1.884.05-.561.051-1.12.051-1.527.153-.153 0-.356 0-.561.051-.56.051-1.782.204-2.343-.051-.508-.203-.712-.662-.712-1.324 0-1.068.916-1.426 1.731-1.527 1.628-.305 1.933-.866 1.883-2.699zm27.644-1.884c.051-.152.56-1.324.662-1.426l5.04-11.353c-.509-.306-1.171-.356-1.73-.51a3.897 3.897 0 0 1-1.019-.406c-.407-.256-.61-.611-.61-1.02 0-.508.203-.865.661-1.119.305-.204.713-.306 1.222-.306.458 0 .764.102 1.323.153.714.101 1.427.152 2.14.152.967 0 1.884-.103 2.8-.204.814-.051 1.476-.254 2.139.356.254.255.458.56.458.916 0 .561-.255.866-.611 1.07-.458.305-1.12.458-1.578.61-.561.254-.865.51-1.171.968-.255.457-.509.916-.714 1.374L71.328 111.8h.052c-.255.458-.916.713-1.579.713-.712 0-1.425-.255-1.629-.713l-8.909-18.379c-.255-.408-.458-.814-.662-1.12-.204-.255-.407-.56-.662-.764-.306-.356-.61-.458-1.069-.611-.712-.152-1.476-.458-1.476-1.324 0-.458.203-.814.611-1.068.508-.356 1.17-.306 1.781-.306 1.374.103 2.749.306 4.124.306 1.171 0 2.291-.051 3.462-.153.814-.102 1.985-.305 2.698-.102.561.204.968.407 1.069 1.019.102.509 0 .916-.407 1.272-.306.255-.764.407-1.273.51-.305.051-1.272.102-1.578.356 0 0 0 .102.051.203l.459.916zm95.103-3.512v4.582c0 1.323 0 2.139.154 2.597.203.51.609.662 1.781.814.662.102 1.629.102 2.189.561.305.254.457.61.457 1.018 0 .561-.254.917-.609 1.172-.713.406-1.732.203-2.547.152l-1.322-.103c-1.121-.05-2.24-.152-3.412-.152a36.04 36.04 0 0 0-3.258.152l.051-.05c-.307.05-.713.101-1.121.152-.814.102-1.73.203-2.289.051-.611-.153-1.223-.662-1.223-1.375 0-.661.459-1.12 1.018-1.323 1.477-.51 2.24-.255 2.646-.968.205-.355.307-.916.307-2.036V93.321c0-1.069.051-1.68-.307-2.087-.201-.204-.508-.356-1.016-.458-.459-.103-.867-.152-1.326-.255-.1-.051-.203-.051-.305-.102-.559-.204-1.018-.561-1.018-1.273 0-.509.254-1.018.662-1.272.865-.509 3.258-.051 3.869 0h-.051c2.291.204 4.48.102 6.771-.103 1.68-.152 3.41-.305 5.09-.254 1.02.051 2.037.102 3.055.306 1.73.356 3.666 1.019 5.041 2.189 1.426 1.222 2.342 2.901 2.342 4.785 0 3.055-2.139 5.347-4.836 6.415-1.783.713-3.77.967-5.551.814-1.729-.151-3.408-.661-5.242-1.22zm0-9.928v7.025c1.07.459 2.24.764 3.361.764 1.273.051 2.443-.255 3.207-.916.713-.61 1.121-1.477 1.121-2.698 0-.968-.307-1.782-.814-2.394-.969-1.119-2.648-1.526-4.074-1.68-.916-.101-1.832-.101-2.801-.101zm31.617-3.717c3.361 0 7.484.968 9.979 3.31 2.598 2.291 4.021 5.702 4.021 9.113 0 2.647-.916 5.346-2.443 7.484-2.75 3.768-7.076 5.192-11.709 5.192-3.156 0-6.365-.712-8.961-2.393-3.41-2.24-5.092-5.855-5.092-9.979 0-3.056.918-6.11 2.902-8.451 2.801-3.207 7.18-4.276 11.303-4.276zm-.256 3.055c-2.9 0-5.09 1.935-6.006 4.633-.611 1.63-.764 3.411-.764 5.143 0 1.477.152 2.749.457 3.869.867 3.055 3.209 5.396 6.568 5.396 3.666 0 5.447-2.749 6.211-5.854.305-1.273.408-2.597.408-3.921 0-1.426-.152-2.851-.561-4.226-.914-3.004-2.952-5.04-6.313-5.04zm26.221 10.845v5.447c.051 1.578.154 1.884 1.426 2.188.355.052.764.103 1.17.204.715.204 1.326.611 1.326 1.426 0 .662-.256 1.069-.764 1.323-.459.204-1.121.153-1.732.103-2.189-.203-4.379-.356-6.568-.255-.711.052-1.271.052-1.781.102l-1.477.153-.051.051h-.763c-.305 0-.611-.051-.865-.153a1.57 1.57 0 0 1-.766-.509.834.834 0 0 1-.201-.356c-.051-.102-.051-.254-.051-.356 0-.458.152-.814.559-1.12.256-.203.664-.355 1.121-.458l.764-.153c.355-.05.611-.152.814-.202.152-.052.254-.103.305-.103.051-.051.102-.153.152-.306.104-.203.154-.509.154-.865V93.373c0-.662.102-1.375-.154-1.885-.152-.305-.406-.56-.967-.661-.406-.103-.967-.153-1.426-.306-.713-.153-1.426-.509-1.426-1.375 0-.458.205-.865.563-1.068.406-.356 1.068-.407 1.627-.407 1.629.051 3.209.356 4.785.356 1.223 0 2.445-.153 3.668-.256a55.924 55.924 0 0 1 5.039-.254c2.088 0 4.227.407 6.059 1.375 2.088 1.12 3.514 2.901 3.514 5.346 0 2.24-1.375 3.817-3.26 4.785a7.391 7.391 0 0 1-2.238.814l4.988 7.587c.51.813.662 1.069 1.578 1.323.459.102.814.152 1.223.356.406.255.764.661.764 1.272 0 1.019-.867 1.527-1.781 1.426-1.121-.153-2.242-.306-3.311-.306-.916 0-1.73.052-2.598.204-.1.051-.152.051-.203.051-.355.051-.764.102-1.119-.051-.256-.204-.408-.458-.561-.713l-6.109-9.928a6.598 6.598 0 0 1-1.427.003zm-.051-3.055h.305c2.293 0 3.92-.306 5.041-.917.916-.56 1.375-1.323 1.375-2.443 0-.561-.102-1.12-.355-1.578-.561-1.171-1.682-1.681-2.904-1.935-.914-.204-2.035-.306-3.41-.306h-.051v7.179zm-70.768-52.949h-18.328l-5.499-16.75-5.447 16.75h-18.276l14.611 10.997-5.956 18.175 15.068-11.353 15.171 11.353-6.006-18.175zm-67.509 0H67.611l-5.549-16.75-5.499 16.75H38.336l14.612 10.997-5.957 18.175 15.071-11.353 15.171 11.353-6.006-18.175zm135.019 0h-18.328l-5.498-16.75-5.5 16.75h-18.227l14.563 10.997-5.906 18.175 15.07-11.353 15.17 11.353-6.008-18.175zM17.921 109.816v-4.785c0-.306 0-.509.051-.713.051-.255.153-.458.255-.662.152-.254.407-.406.662-.509.203-.051.458-.102.713-.102.305 0 .561.051.763.152.255.102.459.254.611.51v-.052c.103.153.204.306.306.51.103.152.152.356.255.611v-.052l.355.866c.256.509.51 1.018.866 1.425.356.408.764.714 1.272 1.019a6.4 6.4 0 0 0 1.833.764 6.826 6.826 0 0 0 2.036.306c1.731 0 3.106-.408 4.073-1.171v-.051c.407-.255.662-.611.865-.968.153-.356.254-.764.254-1.272 0-.255-.05-.561-.152-.814-.05-.204-.203-.459-.407-.713a4.163 4.163 0 0 0-1.222-.815c-.61-.306-1.374-.61-2.341-.865l-3.106-.865c-.968-.306-1.781-.561-2.393-.764-.663-.254-1.222-.458-1.629-.713-1.069-.56-1.884-1.323-2.443-2.189-.561-.916-.815-1.935-.815-3.055 0-.61.051-1.222.255-1.833.203-.56.458-1.119.814-1.68.916-1.426 2.239-2.494 3.92-3.207 1.63-.662 3.563-1.019 5.905-1.019.866 0 1.681.051 2.444.103.814.101 1.578.203 2.24.355h-.051c.407.103.814.203 1.272.356.459.153 1.019.306 1.63.561l.56.203v.509l.051 3.768.051.408v.051c0 .203-.051.355-.051.509 0 .102 0 .255-.051.407v.051a1.406 1.406 0 0 1-.611.814c-.306.153-.61.255-1.018.255-.764 0-1.324-.407-1.731-1.272v.051l-.255-.51c-.56-1.222-1.222-2.138-2.087-2.698-.764-.56-1.731-.865-2.901-.865-.611 0-1.172.051-1.682.203a4.145 4.145 0 0 0-1.374.561c-.407.204-.712.51-.916.815a1.883 1.883 0 0 0-.306 1.068c0 .356.103.661.255.916.152.306.407.561.764.815.203.102.509.254 1.018.458.51.203 1.171.407 2.087.661l2.801.815a34.21 34.21 0 0 1 3.055 1.069c.865.355 1.629.764 2.189 1.17.51.306.967.713 1.323 1.172.356.458.662.967.916 1.527.154.355.256.763.357 1.171.051.406.102.814.102 1.222 0 .61-.051 1.171-.255 1.782-.152.56-.407 1.119-.712 1.68-.306.561-.662 1.019-1.12 1.527-.458.458-.968.865-1.527 1.272a11.773 11.773 0 0 1-3.717 1.63c-1.375.356-2.902.509-4.633.509-1.171 0-2.292-.051-3.36-.203-1.12-.153-2.087-.357-3.004-.662-.458-.153-.916-.306-1.375-.561a20.1 20.1 0 0 1-1.527-.713zm70.157-6.364-2.546 5.703c.458.305 1.171.356 1.68.509a3.62 3.62 0 0 1 1.069.407c.407.255.561.611.561 1.019 0 .509-.203.865-.611 1.12-.305.203-.713.306-1.222.306-.51 0-.814-.103-1.324-.153a15.802 15.802 0 0 0-2.189-.152c-.916 0-1.832.102-2.748.203-.815.052-1.477.255-2.139-.355-.255-.255-.458-.561-.458-.917 0-.56.254-.865.56-1.12.51-.305 1.12-.407 1.629-.561.561-.254.866-.508 1.171-.966.255-.459.459-.917.713-1.376l9.165-18.226c.254-.459.916-.713 1.578-.713.713 0 1.425.254 1.577.713l8.961 18.379c.204.407.458.814.662 1.12l.611.764h.05c.307.356.611.458 1.07.61.713.153 1.425.459 1.425 1.324 0 .459-.153.814-.56 1.069-.509.356-1.172.306-1.783.306-1.373-.103-2.748-.306-4.123-.306a39.69 39.69 0 0 0-3.462.152c-.814.102-1.985.306-2.698.102-.561-.203-.967-.458-1.069-1.018-.102-.51-.051-.917.356-1.272.356-.255.814-.407 1.324-.51.305-.051 1.272-.102 1.578-.356l-.103-.203c-.051-.204-.203-.51-.407-.917l-2.036-4.685zm3.156-7.076c-.051.153-.61 1.324-.662 1.426l-1.12 2.546h3.514zm17.768 13.44v-4.785c0-.306 0-.509.052-.713.051-.255.102-.458.254-.662.152-.204.356-.406.662-.509.204-.051.458-.102.713-.102.305 0 .509.051.764.152s.458.254.611.51v-.052c.102.153.204.306.305.51.052.152.153.356.255.611v-.052l.356.866c.203.56.509 1.018.865 1.425.356.408.764.714 1.273 1.019.56.356 1.171.611 1.832.764a6.828 6.828 0 0 0 2.037.306c1.73 0 3.105-.408 4.073-1.171.407-.306.661-.662.864-1.019.153-.356.255-.764.255-1.272 0-.255-.051-.561-.152-.814a12.6 12.6 0 0 0-.407-.713 4.198 4.198 0 0 0-1.223-.815c-.61-.306-1.374-.61-2.341-.865l-3.157-.865c-.916-.306-1.731-.561-2.342-.764-.661-.254-1.222-.458-1.629-.713-1.069-.56-1.884-1.323-2.443-2.189-.561-.865-.866-1.935-.866-3.055 0-.61.103-1.222.306-1.833.152-.56.458-1.119.814-1.68.917-1.426 2.24-2.494 3.869-3.207 1.629-.662 3.615-1.019 5.957-1.019.866 0 1.68.051 2.443.103.814.101 1.527.203 2.189.355.356.103.814.203 1.273.356.458.153.966.306 1.629.561l.56.203v.509l.052 3.768v.968c0 .102-.052.255-.052.407v.051c-.102.356-.306.611-.662.814a1.812 1.812 0 0 1-.967.255c-.764 0-1.375-.407-1.731-1.272v.051l-.254-.51c-.561-1.222-1.223-2.138-2.089-2.698-.813-.56-1.781-.865-2.9-.865-.611 0-1.172.051-1.681.203a4.141 4.141 0 0 0-1.375.561c-.407.204-.712.51-.916.815a1.883 1.883 0 0 0-.306 1.068c0 .356.052.661.255.916.153.306.407.561.764.815.152.102.51.254.967.458.561.203 1.223.407 2.088.661l2.851.866c1.172.305 2.189.662 3.055 1.019.866.406 1.63.764 2.189 1.17.51.306.968.713 1.324 1.172.356.458.61.967.865 1.527.153.355.254.763.356 1.171.051.406.102.814.102 1.222 0 .61-.102 1.171-.255 1.782-.152.56-.407 1.119-.712 1.68-.255.561-.663 1.019-1.069 1.527-.458.458-.968.865-1.527 1.272-1.069.713-2.343 1.273-3.717 1.63-1.375.356-2.902.509-4.634.509-1.17 0-2.341-.051-3.41-.203-1.069-.153-2.036-.357-2.953-.662-.458-.153-.916-.306-1.426-.561-.458-.203-.967-.458-1.476-.713zm24.233 0v-4.785c0-.306 0-.509.053-.713.051-.255.102-.458.254-.662.152-.254.357-.406.662-.509.203-.051.457-.102.713-.102.254 0 .508.051.764.152.254.102.457.254.611.51v-.052c.102.153.203.306.305.51.051.152.152.356.256.611v-.052l.355.866a5.1 5.1 0 0 0 .865 1.425c.355.408.764.714 1.271 1.019a5.858 5.858 0 0 0 1.834.764 6.828 6.828 0 0 0 2.037.306c1.73 0 3.055-.408 4.072-1.171v-.051c.357-.255.662-.611.865-.968.152-.356.256-.764.256-1.272a2.27 2.27 0 0 0-.154-.814 4.1 4.1 0 0 0-.457-.713c-.205-.255-.611-.561-1.172-.815-.611-.306-1.426-.61-2.342-.865l-3.156-.865c-.967-.306-1.73-.561-2.342-.764-.713-.254-1.223-.458-1.629-.713-1.068-.56-1.936-1.323-2.443-2.189a5.757 5.757 0 0 1-.867-3.055c0-.61.104-1.222.307-1.833.152-.56.459-1.119.814-1.68.916-1.426 2.189-2.494 3.869-3.207 1.629-.662 3.615-1.019 5.957-1.019.814 0 1.68.051 2.443.103.814.101 1.527.203 2.189.355.355.103.764.203 1.273.356.457.153.967.306 1.627.561l.51.203.053.509.051 3.768v.968c0 .102-.051.255-.051.407l-.053.051a1.407 1.407 0 0 1-.609.814 1.953 1.953 0 0 1-.969.255c-.764 0-1.373-.407-1.73-1.272v.051l-.254-.51c-.561-1.222-1.273-2.138-2.088-2.698-.814-.56-1.781-.865-2.902-.865-.609 0-1.17.051-1.68.203a4.15 4.15 0 0 0-1.375.561c-.406.204-.713.51-.916.815a1.884 1.884 0 0 0-.307 1.068c0 .356.053.661.205.916.203.306.457.561.814.815.152.102.508.254.967.458.51.203 1.223.407 2.088.661l2.852.815h-.051c1.221.355 2.24.713 3.055 1.069.916.355 1.629.764 2.24 1.17.508.306.967.713 1.322 1.172.355.458.662.967.918 1.527.15.355.254.763.305 1.171a5 5 0 0 1 .152 1.222c0 .61-.102 1.171-.254 1.782-.154.56-.408 1.119-.713 1.68-.307.561-.713 1.019-1.172 1.527-.408.458-.916.865-1.477 1.272-1.068.713-2.342 1.273-3.717 1.63-1.373.356-2.953.509-4.631.509-1.223 0-2.344-.051-3.412-.203-1.07-.153-2.037-.357-2.953-.662-.457-.153-.916-.306-1.426-.561-.459-.203-.967-.458-1.477-.713z" style="clip-rule:evenodd;fill:#fff;fill-rule:evenodd" transform="translate(2 2) scale(.71124)"/><path d="M89.248 197.334c-9.47-2.342-18.582-5.6-26.729-11.098-8.858-5.957-12.932-14.46-12.932-23.929 0-13.899 8.859-24.233 21.639-29.987 8.857-4.022 20.059-5.651 31.463-5.702 12.932-.051 26.117 1.985 36.249 5.04 19.297 5.854 22.656 6.67 24.592-2.291h13.082v36.504a110.409 110.409 0 0 0-13.49-2.037c-1.578-.152-3.156-.305-4.734-.406-4.379-7.281-10.029-13.746-15.273-17.208-9.42-6.212-22.198-8.655-39.967-8.655-12.932 0-31.005 8.96-31.005 21.994 0 9.571 13.644 15.629 26.575 19.295-4.887 5.091-8.298 11.302-9.47 18.48z" style="clip-rule:evenodd;fill:#da0020;fill-rule:evenodd" transform="translate(2 2) scale(.71124)"/><path d="M173.712 255.986c12.27-7.535 17.463-19.348 17.463-30.906 0-10.486-4.582-20.363-14.713-26.777-10.643-6.822-26.068-10.082-40.578-12.475-2.697 1.018-5.346 2.342-7.535 3.973-4.123 2.9-7.025 6.617-7.025 10.742 0 .965.305 1.934.864 2.85.204.051.46.102.714.154 7.28 1.322 23.42 4.072 32.635 8.857 6.465 3.359 9.57 10.336 9.469 17.514-.1 7.637-3.869 15.529-9.623 19.5-5.191 3.564-13.439 5.906-26.371 6.059-39.253 0-60.279-25.049-70.207-50.658l-12.779-.102v56.615h12.015c1.936-5.551 4.379-8.656 8.096-9.625 8.146-2.086 12.677 3.82 26.423 8.352 10.285 3.412 24.438 7.279 36.453 7.178 15.373-.204 32.939-3.971 44.699-11.251z" style="clip-rule:evenodd;fill:#da0020;fill-rule:evenodd" transform="translate(2 2) scale(.71124)"/><path d="M160.017 229.816c-.051 3.156-.867 6.314-2.24 9.113-.662 1.324-1.426 2.545-2.342 3.615-17.156-2.801-34.366-5.703-48.724-15.324-8.858-5.957-12.932-14.512-12.932-23.98 0-12.627 7.383-22.299 18.38-28.307 9.571-5.245 22.502-7.281 35.639-7.229 12.676 0 25.455 2.036 35.332 4.988 19.297 5.806 22.656 6.669 24.592-2.341h13.082v45.057l-12.982-.051c-4.021-11.15-12.676-23.012-20.516-28.154-9.471-6.211-22.25-8.604-40.018-8.604-12.932 0-30.954 8.908-30.954 21.943 0 13.643 28.003 20.211 41.8 22.756.254.053.508.053.764.104.763 1.985 1.119 4.174 1.119 6.414zm57.886 67.204c12.27-7.535 17.463-19.346 17.463-30.902 0-10.539-4.582-20.416-14.766-26.881-6.771-4.328-15.477-7.23-24.691-9.42-.611 5.346-2.189 10.59-4.939 15.477-.764 1.324-1.578 2.648-2.545 3.922 4.176 1.17 8.146 2.596 11.303 4.225 6.465 3.359 9.572 10.283 9.469 17.463-.152 7.637-3.869 15.527-9.672 19.551-5.193 3.563-13.391 5.855-26.373 6.059-25.559 0-43.377-10.59-55.393-25.1a123.336 123.336 0 0 1-8.654-1.527c-6.568-1.426-12.83-3.311-18.074-5.041-.305-.102-.56-.203-.814-.254v37.775h12.016c1.935-5.6 4.379-8.654 8.096-9.621 8.145-2.088 12.676 3.768 26.371 8.35 10.285 3.41 24.438 7.279 36.453 7.127 15.424-.155 32.991-3.973 44.75-11.203zM68.935 273.6h15.987v1.986l-10.438 21.18h-5.957l9.063-18.43h-8.655zm-27.084 14.918c-.408.051-.815.051-1.172.051-1.985 0-3.768-.66-5.143-2.088-1.425-1.424-1.985-3.309-1.985-5.295 0-2.24.713-4.326 2.394-5.904 1.73-1.629 3.971-2.24 6.313-2.24 2.241 0 4.328.611 5.906 2.24 1.629 1.629 2.24 3.717 2.24 5.957 0 1.525-.357 3.105-.968 4.529a22.093 22.093 0 0 1-1.171 2.545 35.276 35.276 0 0 1-1.731 2.803l-3.716 5.65h-6.466zm3.104-7.383c0-.865-.203-1.68-.764-2.291-.611-.559-1.374-.762-2.188-.762-.815 0-1.579.203-2.139.814-.61.609-.814 1.373-.814 2.238 0 .969.254 1.732.814 2.291.56.613 1.426.764 2.24.764.814 0 1.527-.254 2.087-.814.561-.611.764-1.426.764-2.24zM21.128 273.6h8.655v23.166h-5.549v-18.43h-3.156zm38.146 8.254c.407-.053.813-.053 1.17-.053 1.986 0 3.768.662 5.143 2.088 1.426 1.426 1.985 3.311 1.985 5.295 0 2.24-.713 4.328-2.393 5.906-1.731 1.629-3.972 2.24-6.313 2.24-2.239 0-4.327-.611-5.905-2.24-1.629-1.629-2.24-3.717-2.24-5.957 0-1.527.356-3.105.968-4.531a22.65 22.65 0 0 1 1.17-2.545 35.253 35.253 0 0 1 1.731-2.801l3.717-5.65h6.466zm-3.106 7.38c0 .867.204 1.682.765 2.291.61.561 1.374.764 2.189.764.813 0 1.577-.203 2.138-.814.611-.609.814-1.373.814-2.24 0-.967-.255-1.73-.814-2.291-.561-.609-1.426-.764-2.24-.764-.815 0-1.527.256-2.087.814-.561.611-.765 1.426-.765 2.24z" style="clip-rule:evenodd;fill:#da0020;fill-rule:evenodd" transform="translate(2 2) scale(.71124)"/><path d="M47.247 77.997c1.883 0 3.919 1.375 3.919 3.666 0 2.29-2.036 3.665-3.919 3.665-1.833 0-3.921-1.375-3.921-3.665 0-2.291 2.088-3.666 3.921-3.666z" style="clip-rule:evenodd;fill:#fff;fill-rule:evenodd" transform="translate(2 2) scale(.71124)"/></svg>