<svg xmlns="http://www.w3.org/2000/svg" width="200pt" height="229pt" viewBox="0 0 200 229"><path d="M94.3 7.918h4.395V2.141h3.953v5.777h4.391v3.937h-4.39v2.864a6.02 6.02 0 0 1 3.28 2.773 4.838 4.838 0 0 1 3.15-1.156c2.687 0 4.862 2.168 4.862 4.84 0 .113-.004.222-.011.332a4.836 4.836 0 0 1 2.578-.738c1.539 0 2.914.714 3.805 1.824a4.857 4.857 0 0 1 4.808-4.125c2.684 0 4.86 2.168 4.86 4.84a4.82 4.82 0 0 1-.27 1.601 4.852 4.852 0 0 1 3.57-1.558c2.555 0 4.653 1.968 4.844 4.464.39-.101.8-.152 1.223-.152 2.683 0 4.859 2.168 4.859 4.84 0 .492-.074.969-.21 1.418a4.843 4.843 0 0 1 2.937 6.758 4.832 4.832 0 0 1 2.078 3.968 4.792 4.792 0 0 1-1.028 2.973 4.833 4.833 0 0 1-1.031 7.902c.23.555.293 1.247.184 2.036-.215 1.504-1.172 2.867-3.051 3.32-2.094.508-4.25.793-6.406.766.23 2.863-1.97 5.98-4.825 6.039l2.618 4.433-4.575 1.031c1.563 1.286 1.86 3.793 1.18 5.622-.336.898-.91 1.636-1.61 2.242 19.962 10.625 33.552 31.586 33.552 55.703 0 3.933-.36 7.781-1.051 11.515.457.282.91.57 1.351.86 5.176 3.387 9.825 7.504 13.98 12.062v.004a383.756 383.756 0 0 0 5.165 5.594 263.618 263.618 0 0 0 5.347 5.527c3.165 3.172 6.368 6.282 9.715 9.27-10.726 2.785-20.109 7.363-29.191 12.812l24.71 24.97-9.194 6.019-24.809-25.098a563.45 563.45 0 0 0-5.023 3.363c-6.047 4.09-12.13 8.203-18.594 11.918-10.34 5.938-20.48 10.04-29.938 11.633-8.304 1.402-16.77.93-24.484-2.68-7.219-7.785-14.547-15.152-23.727-20.683-7.37-1.39-13.738-8.848-17.347-14.766l-.035-.062c-1.215-2.418-2.836-4.914-4.856-7.473-4.777-6.055-10.477-11.645-16.988-15.824-4.246-2.727-6.461-4.813-8.172-9.64-1.246-3.509-2.875-6.872-4.156-10.372-.942-2.566-1.766-5.086-2.356-7.285-1.98-7.399-1.066-14.95.504-22.356.621-2.949 1.258-5.953 1.594-9.175.348-3.344.11-6.743-.906-9.961C.273 79.832 4.48 60.48 8.699 43.332 2.43 44.52-.75 36.457 3.496 31.934l3.23-3.446c5.962-6.347 14.797 1 10.485 7.672l46.25 49.48a63.106 63.106 0 0 1 7.41-4.628c-.7-.606-1.273-1.344-1.61-2.242-.683-1.829-.382-4.336 1.18-5.625l-4.574-1.028 2.617-4.433c-2.855-.059-5.054-3.176-4.824-6.043-2.156.03-4.312-.258-6.406-.762-1.879-.453-2.836-1.82-3.05-3.32-.11-.79-.052-1.48.183-2.036a4.84 4.84 0 0 1-2.64-4.304c0-1.43.62-2.711 1.608-3.598a4.792 4.792 0 0 1-1.027-2.973c0-1.644.82-3.093 2.078-3.972a4.79 4.79 0 0 1-.496-2.125 4.853 4.853 0 0 1 3.43-4.633 4.82 4.82 0 0 1-.211-1.414c0-2.676 2.176-4.844 4.863-4.844.418 0 .828.055 1.219.156a4.854 4.854 0 0 1 4.848-4.464c1.41 0 2.683.597 3.57 1.558a4.838 4.838 0 0 1-.274-1.601c0-2.672 2.18-4.84 4.864-4.84 2.441 0 4.46 1.789 4.808 4.125a4.853 4.853 0 0 1 3.801-1.824c.95 0 1.832.27 2.582.738a4.632 4.632 0 0 1-.012-.332c0-2.672 2.176-4.844 4.86-4.844 1.203 0 2.305.438 3.152 1.16a6.02 6.02 0 0 1 3.281-2.773v-2.864h-4.394V7.918Zm-48.788 97.738a63.524 63.524 0 0 1 9.836-13.027L10.914 45.164c2.227 8.621 5.336 16.57 9.586 24.64 6.793 12.907 15.578 24.739 25.012 35.852Zm0 0" style="stroke:none;fill-rule:nonzero;fill:#000;fill-opacity:1"/><path d="M24.207 155.32c-7.57-8.511-5.422-22.164-3.676-33.261.258-1.637.508-3.22.715-4.727.422-4.996.484-10.297.012-15.473-.414-4.562-1.238-9.023-2.602-13.093l-.004-.024c-.379-2.66-.52-5.496-.484-8.344.043-3.128.309-6.27.719-9.187l.043-.293-.121-.234c-3.579-6.793-7.34-14.344-9.297-21.817-3.407 15.23-6.653 32.164-2.125 47.453 1.093 3.47 1.355 7.118.98 10.723-.344 3.328-.992 6.375-1.625 9.367-1.18 5.567-1.996 10.305-1.199 15.098 1.094 6.594 5.324 12.531 10.074 17.066 2.672 2.606 5.543 4.867 8.59 6.746Zm0 0" style="stroke:none;fill-rule:nonzero;fill:#143c8b;fill-opacity:1"/><path d="m131.11 67.336-.122-.05a69.718 69.718 0 0 0-14.523-4.688c-10.254-2.118-21.336-2.118-31.59 0a69.718 69.718 0 0 0-14.523 4.687c-.04.016-.082.035-.122.05l4.832.599.368.043-.23.285-3.337 4.11a70.125 70.125 0 0 1 13.707-4.49 71.618 71.618 0 0 1 30.2.005 70.68 70.68 0 0 1 13.707 4.484l-3.332-4.11-.23-.284.362-.043Zm0 0" style="stroke:none;fill-rule:nonzero;fill:#ffe24a;fill-opacity:1"/><path d="M35.3 160.172c-1.507-2.5-2.722-5.3-3.718-8.184-1.062-3.066-1.875-6.222-2.535-9.203-1.438-6.258-.89-12.566-.34-18.918.328-3.781.656-7.574.57-11.37a210.466 210.466 0 0 0-.586-4.895c-.87-6.805-1.77-13.856.051-20.332-3.457-5.153-6.676-10.457-9.578-15.907-.367 2.766-.656 6.125-.695 9.04-.04 2.824.105 5.644.476 8.284 1.367 4.086 2.196 8.567 2.614 13.145.468 5.195.41 10.516-.012 15.523v.008c-.207 1.5-.457 3.094-.719 4.742-1.789 11.372-4.004 25.446 4.332 33.786a42.398 42.398 0 0 0 8.02 3.632c.699.235 1.406.454 2.12.649Zm0 0" style="stroke:none;fill-rule:nonzero;fill:#fff;fill-opacity:1"/><path d="M42.367 161.438a62.677 62.677 0 0 1-5.047-24.723c0-10.43 2.54-20.266 7.04-28.93-5.462-6.418-10.657-13.16-15.395-20.187-1.715 6.351-.832 13.277.023 19.968.211 1.657.422 3.297.59 4.903v.015c.09 3.82-.242 7.621-.57 11.407-.547 6.328-1.094 12.617.332 18.828.656 2.965 1.469 6.113 2.527 9.172 1.028 2.968 2.285 5.851 3.856 8.394 2.156.57 4.375.957 6.644 1.153ZM90.79 216.508a47.17 47.17 0 0 1-2.657 8.222c5.566 1.524 11.633 1.637 18.043.555 9.226-1.555 19.152-5.578 29.297-11.402 6.406-3.68 12.457-7.774 18.476-11.84 12.696-8.59 25.133-17.031 40.594-21.402-1.781-1.641-3.5-3.383-5.207-5.121-19.816.41-35.477 11.378-51.043 22.28a844.815 844.815 0 0 1-4.781 3.337l-.008.004c-6.54 3.925-13.234 7.765-20.297 10.625-7.039 2.851-14.441 4.726-22.418 4.742Zm0 0" style="stroke:none;fill-rule:nonzero;fill:#143c8b;fill-opacity:1"/><path d="M91.797 207.277a41.608 41.608 0 0 1-.942 8.934c7.907-.027 15.25-1.89 22.239-4.723 7.043-2.851 13.726-6.683 20.254-10.601 1.582-1.094 3.175-2.211 4.773-3.328 15.527-10.88 31.152-21.825 50.93-22.329-.531-.539-1.063-1.078-1.594-1.609a289.579 289.579 0 0 1-4.977-5.129c-5.617.414-10.816 1.672-15.8 3.465-5.075 1.828-9.922 4.211-14.754 6.836-9.45 5.96-19.051 11.941-29.043 17.008-9.895 5.02-20.18 9.148-31.086 11.476Zm0 0" style="stroke:none;fill-rule:nonzero;fill:#fff;fill-opacity:1"/><path d="M89.316 193.738a39.166 39.166 0 0 1 2.403 11.223c.043.672.066 1.34.074 2.012 10.855-2.325 21.098-6.438 30.953-11.438 9.988-5.066 19.578-11.043 29.024-16.996l.007-.008c4.848-2.629 9.711-5.023 14.801-6.855 4.934-1.778 10.082-3.031 15.64-3.465l-.148-.156a405.307 405.307 0 0 1-5.183-5.621h-.004a83.579 83.579 0 0 0-2.7-2.825c-21.878.805-40.222 11.977-58.081 22.852l-.407.25-.007.004-.333.168c-8.418 4.312-16.773 8.594-26.039 10.855Zm0 0" style="stroke:none;fill-rule:nonzero;fill:#143c8b;fill-opacity:1"/><path d="M86.203 187.2a41.89 41.89 0 0 1 3.008 6.257c9.246-2.25 17.594-6.527 26.008-10.84l.324-.164.402-.246c17.817-10.852 36.114-21.996 57.95-22.883a74.063 74.063 0 0 0-5.215-4.683c-5.735-.993-11.47-.809-16.98.203-6.372 1.164-12.454 3.426-17.907 6.226l-.008.004c-6.95 3.082-13.453 7.36-19.96 11.64-8.81 5.798-17.634 11.599-27.622 14.485Zm0 0" style="stroke:none;fill-rule:nonzero;fill:#fff;fill-opacity:1"/><path d="M75.918 175.313c3.539 2.777 6.703 6.226 9.352 10.359.265.418.527.84.777 1.262 9.976-2.868 18.8-8.672 27.61-14.47 6.519-4.284 13.027-8.57 20-11.66 5.476-2.812 11.585-5.085 17.988-6.257 5.378-.984 10.964-1.188 16.558-.29a65.092 65.092 0 0 0-4.93-3.57c-1.445-.945-2.886-1.8-4.308-2.644-1.543-.914-3.063-1.816-4.5-2.773a91.851 91.851 0 0 1-2.39-1.649c-21.802-1.992-39.06 9.512-55.829 20.691-2.324 1.551-4.637 3.094-6.95 4.59l-.007.008c-4.309 2.406-8.687 4.79-13.371 6.403Zm0 0" style="stroke:none;fill-rule:nonzero;fill:#143c8b;fill-opacity:1"/><path d="M67.832 170.39a39.916 39.916 0 0 1 7.805 4.703c4.734-1.605 9.156-4.011 13.504-6.445 2.312-1.5 4.62-3.039 6.937-4.582 16.688-11.125 33.852-22.566 55.52-20.789a88.697 88.697 0 0 1-6.59-5.3c-4.613-.114-9.38.226-14.043.918-5.11.761-10.098 1.953-14.625 3.44l-.008.005c-8.55 2.226-15.926 7.394-23.309 12.566-4.011 2.809-8.027 5.621-12.238 7.969-4.176 2.738-8.808 4.727-12.953 7.516Zm0 0" style="stroke:none;fill-rule:nonzero;fill:#fff;fill-opacity:1"/><path d="M14.29 149.945c-2.74-2.617-5.208-5.652-7.134-8.886.41 1.28.871 2.613 1.364 3.953 1.285 3.511 2.918 6.875 4.164 10.39 1.566 4.418 3.507 6.168 7.398 8.668 3.457 2.22 6.555 4.762 9.531 7.598a51.586 51.586 0 0 1 9.27-3.516c3.21-.882 6.46-1.406 9.695-1.515 6.543-.223 13.02.968 18.934 3.61 4.183-2.849 8.886-4.849 13.117-7.63l.008-.004c4.199-2.343 8.207-5.148 12.21-7.953 7.407-5.183 14.801-10.363 23.4-12.61 4.538-1.491 9.546-2.687 14.675-3.448 4.558-.68 9.215-1.02 13.738-.93a119.065 119.065 0 0 1-2.52-2.317 87.381 87.381 0 0 1-4.23-4.277 73.723 73.723 0 0 1-3.664-4.281c-9.703-.098-19.195 2.465-27.879 6.683-6.91 3.356-13.379 7.551-19.375 12.336-6.347 5.067-12.277 9.618-19.844 12.907-4.449 1.933-9.16 3.375-14.191 4.187-7.238 1.172-14.059.543-20.387-1.582-6.847-2.16-13.015-6.047-18.28-11.383Zm0 0" style="stroke:none;fill-rule:nonzero;fill:#143c8b;fill-opacity:1"/><path d="M83.16 222.922c1.024.469 2.067.883 3.13 1.246 2.71-6.293 3.92-12.746 3.519-19.086-.403-6.328-2.414-12.55-6.153-18.387-3.937-6.152-9.09-10.715-14.902-13.73-6.18-3.207-13.106-4.664-20.117-4.426-3.075.106-6.172.606-9.246 1.45a49.2 49.2 0 0 0-8.313 3.09 75.013 75.013 0 0 1 6.465 7.245c2.074 2.63 3.758 5.215 5.035 7.75 3.418 5.395 9.48 12.399 16.375 13.903 9.336 5.53 17.098 12.976 24.207 20.945Zm0 0" style="stroke:none;fill-rule:nonzero;fill:#fff;fill-opacity:1"/><path d="m166.813 195.797 22.742 23.058-4.309 2.82-22.734-23ZM13.387 36.266l47.777 51.113a64.903 64.903 0 0 0-3.766 3.25L9.84 39.824c-1.399.93-3.078 1.13-4.395-.183-1.675-1.668-1.468-4.032.153-5.758l3.23-3.446c1.621-1.726 4.063-2.187 5.738-.515 1.676 1.672 1.114 3.902-.507 5.629ZM127.555 79.559c.777-.41 1.539-.98 1.84-1.786.23-.625.308-2.164-.461-2.515a67.573 67.573 0 0 0-13.77-4.57 68.533 68.533 0 0 0-28.984-.008 67.635 67.635 0 0 0-13.774 4.578c-.77.351-.691 1.89-.457 2.515.297.805 1.059 1.372 1.84 1.786 8.16-3.82 17.27-5.957 26.883-5.957 9.61 0 18.719 2.136 26.883 5.957Zm0 0" style="stroke:none;fill-rule:nonzero;fill:#ffe24a;fill-opacity:1"/><path d="M91.105 63.55c.415.755.02 1.598-.609 2.071-.41.309-.898.461-1.41.574l-6.117 1.344c-.63.14-1.285.2-1.93-.094-1.039-.472-1.289-1.582-.547-2.449.445-.52 1.055-.766 1.703-.89l6.188-1.364c.941-.207 2.195-.148 2.722.809Zm0 0" style="stroke:none;fill-rule:nonzero;fill:#000;fill-opacity:1"/><path d="m88.398 62.95-6.171 1.355c-.586.125-1.157.324-1.582.82-.657.766-.442 1.723.48 2.14.574.262 1.215.223 1.797.098l6.129-1.351c.449-.098.898-.242 1.273-.508.567-.406.973-1.14.621-1.828-.472-.918-1.683-.918-2.547-.727Zm0 0" style="stroke:none;fill-rule:nonzero;fill:#ec1d24;fill-opacity:1"/><path d="M57.184 172.094c.05-.051.101-.098.156-.149 1.37 1.305 2.77 2.621 4.187 3.961 1.45 1.367 2.922 2.762 4.422 4.176-.07.086-.14.172-.21.254-2.352-1.996-4.473-3.379-6.141-4.121-1.664-.735-2.914-.848-3.5-.27-.918.887.16 3.082 1.949 4.899a12.393 12.393 0 0 0 1.703 1.469c.742.488 1.559.875 2.465 1.18.7.265 1.914.456 3.726.737 1.305.2 2.5.473 3.579.801 1.078.328 2.058.735 2.921 1.211 1.715 1.012 3.625 2.438 5.692 4.414 2.617 2.496 4.84 5.281 6.289 7.828 1.508 2.645 2.2 5.036 1.605 6.516-.386.965-1.023 1.418-2.859 1.371-.512.094-.793.215-.887.43-.191.426.254 1.617 1.637 3.472-.063.153-.121.305-.184.461-2.316-2.398-4.582-4.754-6.78-7.035-2.15-2.23-4.247-4.41-6.29-6.523.07-.13.145-.246.223-.375 3.672 3.293 6.781 5.472 9.097 6.558 2.32 1.086 3.79 1.04 4.246-.035.668-1.578-1.355-4.988-3.894-7.46-1.61-1.563-3.086-2.493-4.715-3.134-.902-.367-1.937-.511-3.39-.714-2.098-.29-3.7-.657-5.114-1.184-1.414-.535-2.625-1.215-3.957-2.113a29.377 29.377 0 0 1-3.914-3.39c-2.18-2.259-3.809-4.606-4.644-6.56-.813-1.894-.899-3.43-.059-4.214.289-.27.691-.426 1.16-.434.774-.086 2.567.363 2.797.133.23-.223.121-.555-1.316-2.16Zm0 0" style="stroke:none;fill-rule:nonzero;fill:#143c8b;fill-opacity:1"/><path d="M100.672 23.172a2.822 2.822 0 0 0 2.82-2.813 2.823 2.823 0 0 0-5.645 0 2.826 2.826 0 0 0 2.825 2.813Zm0 0" style="stroke:none;fill-rule:nonzero;fill:#ffe24a;fill-opacity:1"/><path d="M60.957 53.387a3.193 3.193 0 0 1 1.578-.461c.719-.016 1.457.215 2.024.738.113.106.207.203.28.293.036.047.067.094.099.14.12.165.214.317.289.465a10.812 10.812 0 0 0 3.449-1.124 12.207 12.207 0 0 0 3.035-2.282 4.068 4.068 0 0 1-1.164-4.746 4.086 4.086 0 0 1 1.668-1.906 3.918 3.918 0 0 1 1.148-2.543 4.256 4.256 0 0 1 1.899-1.082l.097-.024a4.318 4.318 0 0 1-.664-2.3c0-1.89 1.223-3.5 2.922-4.09a4.79 4.79 0 0 1-.574-2.285 4.85 4.85 0 0 1 3.344-4.602c-.176-.39-.301-.812-.364-1.254a4.864 4.864 0 0 1-3.804 1.828 4.858 4.858 0 0 1-3.57-1.558c.175.5.273 1.039.273 1.601 0 2.672-2.18 4.84-4.863 4.84-.422 0-.832-.05-1.223-.152a4.847 4.847 0 0 1-3.414 4.25c.137.449.21.926.21 1.418 0 1.64-.82 3.094-2.077 3.969a4.825 4.825 0 0 1-1.11 5.723 4.824 4.824 0 0 1 1.024 2.976 4.766 4.766 0 0 1-.512 2.168ZM94.992 41.523a3.92 3.92 0 0 1 .27-7.016 3.92 3.92 0 0 1-2.309-3.573 3.93 3.93 0 0 1 3.809-3.922 3.95 3.95 0 0 1 .617-1.664 6.082 6.082 0 0 1-1.309-1.164 4.849 4.849 0 0 1-3.808 1.836 4.85 4.85 0 0 1-2.582-.739 4.85 4.85 0 0 1-3.332 4.934 4.79 4.79 0 0 1 .418 1.965 4.85 4.85 0 0 1-3.711 4.707 4.31 4.31 0 0 1 .336 1.668 4.338 4.338 0 0 1-2.887 4.082 4.077 4.077 0 0 1 1.598.742c.699.531 1.23 1.289 1.468 2.2a4.042 4.042 0 0 1-.28 2.831c2.343.895 4.905 1.238 7.343.926 1.816-.234 3.566-.836 5.101-1.852a4.087 4.087 0 0 1-1.71-3.324c0-1.004.363-1.926.968-2.637ZM104.578 27.012a3.927 3.927 0 0 1 3.809 3.922 3.92 3.92 0 0 1-2.309 3.574 3.92 3.92 0 0 1 .27 7.015c.605.711.968 1.633.968 2.637a4.077 4.077 0 0 1-1.71 3.324c1.535 1.016 3.285 1.618 5.101 1.852 2.438.312 5-.031 7.344-.926a4.042 4.042 0 0 1-.281-2.832c.238-.91.77-1.668 1.468-2.2a4.077 4.077 0 0 1 1.598-.741 4.338 4.338 0 0 1-2.887-4.082c0-.59.121-1.157.336-1.668a4.85 4.85 0 0 1-3.71-4.707c0-.7.148-1.364.417-1.965a4.85 4.85 0 0 1-3.332-4.934 4.85 4.85 0 0 1-2.582.739 4.849 4.849 0 0 1-3.808-1.836c-.375.449-.817.843-1.31 1.164.325.488.544 1.054.618 1.664ZM140.383 53.387a3.193 3.193 0 0 0-1.578-.461c-.72-.016-1.453.215-2.024.738a3.155 3.155 0 0 0-.281.293c-.035.047-.066.094-.098.14a2.821 2.821 0 0 0-.285.465 10.75 10.75 0 0 1-3.449-1.124 12.155 12.155 0 0 1-3.04-2.282 4.068 4.068 0 0 0 1.356-2.11 4.072 4.072 0 0 0-.187-2.636 4.116 4.116 0 0 0-1.672-1.906 3.9 3.9 0 0 0-1.148-2.543 4.256 4.256 0 0 0-1.899-1.082l-.098-.024a4.284 4.284 0 0 0 .665-2.3c0-1.89-1.223-3.5-2.922-4.09a4.79 4.79 0 0 0 .574-2.285 4.85 4.85 0 0 0-3.344-4.602c.176-.39.3-.812.363-1.254a4.864 4.864 0 0 0 3.805 1.828c1.41 0 2.684-.601 3.57-1.558a4.82 4.82 0 0 0-.27 1.601c0 2.672 2.177 4.84 4.86 4.84.422 0 .832-.05 1.223-.152a4.847 4.847 0 0 0 3.414 4.25 4.827 4.827 0 0 0 1.867 5.387 4.825 4.825 0 0 0 1.11 5.723 4.824 4.824 0 0 0-1.024 2.976c0 .777.184 1.515.512 2.168Zm0 0" style="stroke:none;fill-rule:nonzero;fill:#ec1d24;fill-opacity:1"/><path d="M100.672 28.836c.734 0 1.336-.598 1.336-1.328a1.337 1.337 0 0 0-2.672 0c0 .73.598 1.328 1.336 1.328ZM100.672 35.012c.734 0 1.336-.598 1.336-1.328a1.337 1.337 0 0 0-2.672 0c0 .73.598 1.328 1.336 1.328ZM96.89 36.238c1.024 0 1.852.825 1.852 1.844 0 .02 0 .04-.004.059a4.103 4.103 0 0 0-1.742 1.78h-.105a1.845 1.845 0 0 1-1.848-1.839c0-1.02.828-1.844 1.848-1.844ZM96.89 29.09c.063 0 .122.004.18.008.262.59.668 1.105 1.168 1.496a3.953 3.953 0 0 0-1.402 2.18 1.841 1.841 0 0 1 .055-3.684ZM92.262 23.988a2.823 2.823 0 0 0 2.824-2.812 2.826 2.826 0 0 0-2.824-2.813 2.826 2.826 0 0 0-2.825 2.813c0 1.55 1.27 2.812 2.825 2.812ZM56.61 54.031a2.826 2.826 0 0 0 2.824-2.812 2.823 2.823 0 0 0-5.645 0 2.822 2.822 0 0 0 2.82 2.812ZM57.191 47.46a2.822 2.822 0 0 0 2.82-2.812 2.823 2.823 0 0 0-5.645 0 2.826 2.826 0 0 0 2.825 2.813ZM58.773 41.363a2.826 2.826 0 0 0 2.825-2.812c0-1.551-1.27-2.813-2.825-2.813a2.823 2.823 0 0 0-2.824 2.813 2.826 2.826 0 0 0 2.824 2.812ZM61.992 35.316a2.823 2.823 0 0 0 2.824-2.812 2.826 2.826 0 0 0-2.824-2.813 2.826 2.826 0 0 0-2.824 2.813c0 1.55 1.27 2.812 2.824 2.812ZM68.059 31.008a2.826 2.826 0 0 0 2.824-2.813 2.82 2.82 0 0 0-2.824-2.812 2.82 2.82 0 0 0-2.82 2.812 2.822 2.822 0 0 0 2.82 2.813ZM76.223 26.121a2.82 2.82 0 0 0 2.82-2.812 2.822 2.822 0 0 0-5.645 0c0 1.55 1.27 2.812 2.825 2.812ZM84.832 28.426a2.826 2.826 0 0 0 2.824-2.813c0-1.55-1.27-2.812-2.824-2.812a2.823 2.823 0 0 0-2.824 2.812 2.826 2.826 0 0 0 2.824 2.813ZM81.906 34.992a2.82 2.82 0 0 0 2.82-2.812 2.823 2.823 0 0 0-5.645 0c.001 1.55 1.27 2.812 2.825 2.812ZM79.043 40.855a2.306 2.306 0 0 0 2.309-2.3 2.306 2.306 0 0 0-2.309-2.297 2.308 2.308 0 0 0-2.309 2.297c0 1.27 1.04 2.3 2.309 2.3ZM144.73 54.031a2.826 2.826 0 0 0 2.825-2.812c0-1.551-1.27-2.813-2.825-2.813a2.823 2.823 0 0 0-2.824 2.813 2.826 2.826 0 0 0 2.824 2.812ZM144.148 47.46a2.826 2.826 0 0 0 2.825-2.812 2.82 2.82 0 0 0-2.825-2.812 2.82 2.82 0 0 0-2.82 2.812 2.822 2.822 0 0 0 2.82 2.813ZM142.566 41.363a2.826 2.826 0 0 0 2.825-2.812c0-1.551-1.27-2.813-2.825-2.813a2.823 2.823 0 0 0-2.824 2.813 2.828 2.828 0 0 0 2.824 2.812ZM139.348 35.316a2.823 2.823 0 0 0 2.824-2.812 2.822 2.822 0 0 0-5.645 0 2.82 2.82 0 0 0 2.82 2.812ZM133.281 31.008a2.822 2.822 0 0 0 2.82-2.813 2.823 2.823 0 0 0-5.645 0 2.826 2.826 0 0 0 2.825 2.813ZM125.121 26.121a2.82 2.82 0 0 0 2.82-2.812 2.822 2.822 0 0 0-5.644 0c0 1.55 1.27 2.812 2.824 2.812ZM109.078 23.988a2.823 2.823 0 0 0 2.824-2.812 2.822 2.822 0 0 0-5.645 0 2.82 2.82 0 0 0 2.821 2.812ZM116.508 28.426a2.826 2.826 0 0 0 2.824-2.813 2.823 2.823 0 0 0-5.644 0 2.822 2.822 0 0 0 2.82 2.813ZM119.438 34.992a2.82 2.82 0 0 0 2.82-2.812 2.82 2.82 0 0 0-2.82-2.813 2.82 2.82 0 0 0-2.825 2.813 2.82 2.82 0 0 0 2.825 2.812ZM122.297 40.855a2.309 2.309 0 0 0 2.308-2.3 2.308 2.308 0 0 0-2.308-2.297 2.308 2.308 0 0 0-2.309 2.297c0 1.27 1.04 2.3 2.309 2.3ZM104.45 36.238a1.846 1.846 0 0 0-1.852 1.844c0 .02.004.04.004.059.75.398 1.359 1.02 1.742 1.78h.105c1.02 0 1.848-.823 1.848-1.839 0-1.02-.828-1.844-1.848-1.844ZM104.45 29.09c-.06 0-.122.004-.18.008a3.89 3.89 0 0 1-1.168 1.496 3.953 3.953 0 0 1 1.402 2.18 1.841 1.841 0 0 0-.055-3.684ZM83.566 55.273a77.8 77.8 0 0 0-15.476 4.875c-2.887 1.254-1.164 5.54 1.082 4.528 4.785-2.156 9.851-3.785 15.121-4.875 10.633-2.2 22.121-2.2 32.754 0 5.27 1.09 10.336 2.719 15.121 4.875 2.246 1.011 3.969-3.274 1.082-4.528a77.8 77.8 0 0 0-15.477-4.875c-11.125-2.277-23.078-2.277-34.207 0Zm0 0" style="stroke:none;fill-rule:nonzero;fill:#ffe24a;fill-opacity:1"/><path d="m100.672 61.578 5.254 2.094-5.254 2.09-5.258-2.09Zm0 0" style="stroke:none;fill-rule:nonzero;fill:#000;fill-opacity:1"/><path d="m105.387 63.672-4.715-1.879-4.719 1.879 4.719 1.879Zm0 0" style="stroke:none;fill-rule:nonzero;fill:#143c8b;fill-opacity:1"/><path d="M110.234 63.55c-.41.755-.02 1.598.61 2.071.41.309.898.461 1.414.574l6.113 1.344c.629.14 1.29.2 1.93-.094 1.039-.472 1.293-1.582.547-2.449-.446-.52-1.055-.766-1.7-.89l-6.191-1.364c-.941-.207-2.195-.148-2.723.809Zm0 0" style="stroke:none;fill-rule:nonzero;fill:#000;fill-opacity:1"/><path d="m112.941 62.95 6.172 1.355c.586.125 1.157.324 1.582.82.66.766.442 1.723-.476 2.14-.578.262-1.219.223-1.801.098l-6.129-1.351c-.45-.098-.898-.242-1.273-.508-.567-.406-.973-1.14-.621-1.828.472-.918 1.683-.918 2.546-.727Zm0 0" style="stroke:none;fill-rule:nonzero;fill:#ec1d24;fill-opacity:1"/><path d="M70.176 208.188c-1.301-1.2-2.649-2.454-4.04-3.743-1.437-1.332-2.933-2.715-4.472-4.148.14-.04.285-.07.426-.11 3.035 2.528 5.37 4.2 7.156 5.223 1.774 1.012 3.082 1.418 3.969 1.328 1.805-.175.64-2.207-1.16-4.043-1.102-1.12-2.192-2.007-3.313-2.605-.765-.399-2-.969-3.453-1.477-.852-.316-1.691-.633-2.527-.949a44.88 44.88 0 0 1-3.352-1.445 29.284 29.284 0 0 1-2.89-1.602c-1.72-1.054-3.653-2.61-5.77-4.578-2.43-2.262-4.82-4.86-6.457-7.219-1.758-2.535-2.676-4.812-1.8-5.984.456-.613 1.515-.758 2.476-.777.988-.02 1.879.109 1.949.023.328-.387-.363-1.324-1.684-2.918.153-.21.313-.414.465-.625 2.422 2.559 4.742 5.004 6.957 7.332 2.106 2.227 4.137 4.363 6.07 6.402-.175.114-.351.223-.527.332-2.922-2.609-5.957-4.937-8.469-6.445-2.542-1.531-4.453-2.156-5.105-1.39-.852 1.003 1.05 3.93 3.844 6.605 1.73 1.656 3.082 2.734 4.101 3.281 1.016.543 2.856 1.297 5.317 2.18 1.074.383 2.164.766 3.261 1.164a17.056 17.056 0 0 1 4.02 1.871c2.55 1.5 4.852 3.395 7.016 5.695 1.89 2.012 3.367 4.106 3.836 5.684.437 1.469.007 2.484-1.77 2.625-.75.055-1.816-.152-3.055-.535-.172-.05-.343-.106-.511-.156-.258-.07-.508-.149-.614-.133-.36.031-.082.398.563 1.101l-.457.036Zm0 0" style="stroke:none;fill-rule:nonzero;fill:#143c8b;fill-opacity:1"/><path d="M80.09 148.77c1.902-1.418 3.781-2.903 5.703-4.438 6.102-4.871 12.703-9.152 19.734-12.566.414-.2.825-.395 1.239-.59-7.434-7.04-14.579-15.106-18.16-24.75-1.036-2.797-1.5-5.156-1.133-7.914-6.516 1.136-15.328 3.27-21.184 7.726-6.582 5.008-6.504 12.38-3.738 19.844 3.531 9.527 10.207 16.188 17.539 22.688Zm0 0" style="stroke:none;fill-rule:nonzero;fill:#e6a514;fill-opacity:1"/><path d="M41.586 123.828a60.388 60.388 0 0 0-1.39 12.887c0 8.867 1.925 17.289 5.378 24.87a42.396 42.396 0 0 0 7.082-.554c4.86-.785 9.418-2.183 13.727-4.054 4.18-1.817 7.836-4.028 11.347-6.497-7.37-6.628-13.472-13.148-17.378-22.832-2.172-5.39-3.297-11.132-1.684-15.921-6.652 2.898-12.18 6.98-17.082 12.101ZM103.422 76.531a64.3 64.3 0 0 0-2.75-.062c-26.996 0-49.863 17.629-57.637 41.96 5.332-4.827 11.442-8.745 18.305-11.163 6.293-7.407 17.496-10.176 26.77-11.707.687-2.07 1.937-4.582 3.55-6.848 2.04-2.86 4.258-5.543 6.8-8a47.118 47.118 0 0 1 4.962-4.18ZM130.934 84.547a60.834 60.834 0 0 0-7.414-3.625c-3.743 1.394-6.985 3.473-9.903 5.973-2.672 2.293-5.09 4.96-7.37 7.793 4.01 2.492 7.898 5.18 11.69 8.015l2.02-2.824c-1.43-1.293-2.8-2.238-4.246-3.16-.648-.512-.844-1.66-.332-2.309.512-.644 1.668-.797 2.316-.285 1.293 1.418 2.66 2.387 4.047 3.262l2.68-3.742c-.973-.832-2.031-1.52-3.129-2.13a1.384 1.384 0 0 1-.356-1.93 1.393 1.393 0 0 1 1.938-.355 18.74 18.74 0 0 0 3.027 2.348l2.086-2.918c-.586-.504-1.215-.887-1.894-1.129a1.381 1.381 0 0 1-.371-1.926c.43-.632 1.293-.8 1.93-.37.527.59 1.124 1.05 1.745 1.456ZM140.246 91.164a60.32 60.32 0 0 0-6.86-5.121l-1.757 2.453c.61.57 1.293 1.043 2 1.496a1.39 1.39 0 0 1 .047 1.965 1.394 1.394 0 0 1-1.969.047 7.113 7.113 0 0 0-1.469-1.563l-2.062 2.88c.82.722 1.676 1.413 2.613 2.034.582.508.637 1.387.125 1.965a1.4 1.4 0 0 1-1.969.125c-.703-.882-1.457-1.53-2.23-2.086l-2.746 3.836c1.234 1.16 2.558 2.188 4.011 3.243.622.546.637 1.87.086 2.488-.546.617-1.707.465-2.328-.082a20.916 20.916 0 0 0-3.511-3.215l-2.008 2.805a249.425 249.425 0 0 1 10.265 8.382c2.551-2.78 4.676-5.613 6.297-8.851 1.79-3.578 2.977-7.68 3.465-12.8Zm0 0" style="stroke:none;fill-rule:nonzero;fill:#e6a514;fill-opacity:1"/><path d="M150.215 102.172a60.334 60.334 0 0 0-7.363-8.617c-.625 4.543-1.817 8.324-3.5 11.683-2.192 4.387-5.305 8.012-8.665 11.532-4.519-3.91-9.101-7.735-13.878-11.332-4.77-3.598-9.7-6.903-14.809-9.997 2.98-3.816 6.047-7.539 9.742-10.707 2.387-2.046 4.985-3.836 7.871-5.246A60.133 60.133 0 0 0 108 76.91a43.552 43.552 0 0 0-7.54 5.848c-2.405 2.328-4.519 4.883-6.46 7.61-2.02 2.835-3.164 5.374-3.563 7.82-.394 2.398-.062 4.753.864 7.253 3.562 9.59 10.902 17.567 18.316 24.489 7.496-3.102 15.399-4.895 23.551-5.024 3.355-2.828 6.539-6 9.422-9.719 2.883-3.718 5.469-7.992 7.625-13.015ZM161.145 136.715A59.781 59.781 0 0 0 152.09 105c-2.098 4.535-4.54 8.46-7.23 11.934-2.684 3.464-5.618 6.472-8.708 9.175 6.618 8.153 14.766 14.942 23.793 20.297l.383.23c.54-3.23.817-6.542.817-9.921Zm0 0" style="stroke:none;fill-rule:nonzero;fill:#e6a514;fill-opacity:1"/><path d="m130.297 73.055-3.992-4.918 6.113-.754 2.742 4.597Zm-59.254 0 3.996-4.918-6.117-.754-2.742 4.597Zm0 0" style="stroke:none;fill-rule:nonzero;fill:#143c8b;fill-opacity:1"/><path d="M98.363 41.063c-.183.703-.336.714-1.027.89a2.38 2.38 0 0 0-1.785 2.3c0 1.653 2.176 2.876 3.699 2.4-4.742 5.245-12.953 5.398-18.95 2.238a2.373 2.373 0 0 0 1.614-2.88 2.386 2.386 0 0 0-2.316-1.769c-.711.004-.864.035-1.22-.601-1.183-2.106-4.476-1.243-4.46 1.172.004.726-.145.777-.766 1.124a2.37 2.37 0 0 0 1.414 4.43c-.379.555-.789 1.07-1.218 1.547-2.133 2.633-4.957 4.324-8.403 4.406-1.73.18-.73-.402-1.449-1.297-.45-.562-1.426-.488-1.898.02-.852.918-1.543 1.125-3.106.746-1.515-.363-2.078 1.95-.562 2.313 6.343 1.535 12.906.921 17.187-4.594a16.713 16.713 0 0 0 2.457-3.524c6.785 4.207 16.957 4.446 23.098-1.336 6.137 5.778 16.308 5.543 23.098 1.336.68 1.32 1.527 2.5 2.457 3.524 4.28 5.515 10.843 6.129 17.187 4.594 1.516-.364.953-2.676-.562-2.313-1.567.379-2.258.172-3.11-.746-.472-.508-1.445-.582-1.898-.02-.719.891.281 1.477-1.45 1.297-3.445-.082-6.269-1.773-8.398-4.406a14.202 14.202 0 0 1-1.223-1.547 2.38 2.38 0 0 0 2.555-1.754 2.373 2.373 0 0 0-1.14-2.675c-.622-.348-.766-.399-.762-1.126.011-2.414-3.281-3.277-4.465-1.171-.356.636-.504.605-1.219.601a2.393 2.393 0 0 0-2.316 1.77 2.375 2.375 0 0 0 1.617 2.879c-5.996 3.16-14.211 3.007-18.953-2.239 1.523.477 3.703-.746 3.703-2.398a2.383 2.383 0 0 0-1.79-2.3c-.69-.177-.843-.188-1.023-.892-.605-2.332-4.015-2.332-4.617 0Zm0 0" style="stroke:none;fill-rule:nonzero;fill:#ffe24a;fill-opacity:1"/><path d="M100.602 45.137a1.28 1.28 0 0 0 1.28-1.274c0-.703-.573-1.277-1.28-1.277a1.28 1.28 0 0 0-1.278 1.277c0 .7.574 1.274 1.278 1.274ZM78.145 46.934c0 .703-.575 1.273-1.282 1.273a1.275 1.275 0 1 1 0-2.547c.707 0 1.282.57 1.282 1.274ZM125.758 46.934c0 .703-.574 1.273-1.281 1.273s-1.282-.57-1.282-1.273c0-.704.575-1.274 1.282-1.274.707 0 1.28.57 1.28 1.274Zm0 0" style="stroke:none;fill-rule:nonzero;fill:#000;fill-opacity:1"/></svg>