<svg xmlns="http://www.w3.org/2000/svg" width="249pt" height="205pt" viewBox="0 0 249 205"><path fill="#DE9500" d="M156.484 80.863c-8.344-8.109-19.711-13.113-32.223-13.113s-23.875 5.004-32.219 13.113H-.001l124.266 123.68 124.262-123.68zm0 0"/><path fill="#fff" d="M124.262 72.082c23.148 0 41.992 18.883 41.992 42.094 0 23.211-18.844 42.09-41.992 42.09-23.148 0-41.984-18.879-41.984-42.09 0-23.211 18.836-42.094 41.984-42.094"/><path fill="#00954C" d="M104.867 106.012h3.473v-5.277h-3.473V94.38h10.172v17.387h-10.172v-5.754m0 22.906h3.473v-5.273h-3.473v-5.641h10.172v16.922h-10.172zm28.48 6.008h-12.324v-16.922h2.398v1.805h3.469v-1.805h4.91c1.355 0 1.547 2.426 1.547 2.426zm0-26.711-.02.793s-.305 2.719-2.07 2.758h-4.367v-2.273h-3.469v2.273h-2.395V94.38h12.32zm15.16 21.188c-.313.91-1.93 5.473-3.668 5.473l-.203.051h-5.906V120.17h-.035c-.078-.98-.496-2.031-.559-2.164h6.125c.48.047 4.492 1.621 4.508 6.602h-3.93v4.797zm.273-23.508v.004s-2.156 5.863-4.043 5.863l-.129.004h-6.684c.098-.191.805-1.539.805-2.758V94.38h5.707c.102.031 4.344 1.531 4.344 6.711h-3.941v4.805zm9.227-4.805h-3.566c0-.039-.742-9.484-7.813-12.59h-7.609v-.188c0-7.648-5.594-9.219-9.668-9.219-4.07 0-5.965 1.707-5.965 1.707v5.516s.098-1.941 5.367-1.941c5.871 0 4.715 4.121 4.715 4.121v.004h-12.445v-3.367c0-5.703-2.879-7.199-6.242-7.199l-2.371.004v6.121h1.434c.953 0 1.152.715 1.195 1.207v3.234H95.894v5.875h4.195v6.355h-4.195v5.281h4.195v5.754h-4.195v6.238h4.195v5.641h-4.195v5.273h4.195v6.004h-4.195v5.281h18.848v1.496c0 1.02-.898.898-.898.898h-1.902v6.117h3.816c1.57 0 5.148-1.629 5.148-5.641v-2.156l.008-.715h12.473c0 2.789-1.457 4.117-5.285 4.117-3.824 0-4.898-1.852-4.898-1.852v5.563c1.137 1.27 5.809 1.629 5.809 1.629 9.5 0 9.781-7.961 9.742-9.457h8.469s6.012-2.543 6.809-10.805h3.973V124.6h-3.711c-.008-.348-.191-8.039-4.238-10.238 0 0 3.887-2.203 3.922-8.465l-.027-.008h4.059zM27.988 85.195v17.422l17.504 17.422V85.195zm0 0"/><path fill="#fff" d="M27.988 102.617V85.195H10.48zm0 0"/><path fill="#00954C" d="M77.957 114.176c0-5.309.902-10.406 2.547-15.16v-13.82H62.996v52.266l17.508 17.422v-25.531a46.282 46.282 0 0 1-2.547-15.176zm0 0"/><path fill="#fff" d="M62.996 85.195H45.492v34.844l17.504 17.422zm0 0"/><path fill="#00954C" d="M98.008 152.391v19.914l17.504 17.426v-29.969a45.916 45.916 0 0 1-17.504-7.371zm0 0"/><path fill="#fff" d="M80.504 129.352v25.531l17.504 17.422v-19.914a46.58 46.58 0 0 1-17.504-23.039zm7.613-44.157h-7.613v13.82a46.356 46.356 0 0 1 7.613-13.82zm0 0"/><path fill="#00954C" d="M133.016 159.762v29.969l17.508-17.426v-19.914a46.08 46.08 0 0 1-17.508 7.371zm0 0"/><path fill="#fff" d="M124.262 160.598c-2.992 0-5.914-.289-8.75-.836v29.969l8.754 8.711 8.75-8.711v-29.969a46.185 46.185 0 0 1-8.754.836zm0 0"/><path fill="#00954C" d="M168.027 85.195v13.82a46.28 46.28 0 0 1 2.543 15.16 46.28 46.28 0 0 1-2.543 15.176v25.531l17.504-17.422V85.194zm0 0"/><path fill="#fff" d="M150.523 152.391v19.914l17.504-17.422v-25.531c-3.262 9.418-9.465 17.469-17.504 23.039zm9.887-67.196a46.48 46.48 0 0 1 7.617 13.82v-13.82zm0 0"/><path fill="#00954C" d="m203.039 120.039 17.504-17.422V85.195h-17.504zm0 0"/><path fill="#fff" d="M203.039 85.195h-17.508v52.266l17.508-17.422zm35.008 0h-17.504v17.422zm0 0"/><path fill="#D7013E" d="M118.734 45.266a5.465 5.465 0 0 1 2.68-4.703V28.258c-9.906.43-18.879 3.141-25.766 7.359.695 2.813 2.457 5.5 5.133 7.836a5.32 5.32 0 0 1 2.207-.473c3.016 0 5.461 2.453 5.461 5.48a5.474 5.474 0 0 1-3.082 4.922l.027.07a4.316 4.316 0 0 0 7.965-.547c.055-.16.094-.324.129-.488a1.828 1.828 0 0 1-.996-2.254 1.827 1.827 0 0 1 2.32-1.152 1.837 1.837 0 0 1 1.152 2.324 1.824 1.824 0 0 1-.602.852 4.286 4.286 0 0 0 2.418 2.082 4.277 4.277 0 0 0 3.301-.23 4.273 4.273 0 0 0 2.172-2.496 4.14 4.14 0 0 0 .184-.859 5.475 5.475 0 0 1-4.703-5.418m-15.75 8.668a5.47 5.47 0 0 1-5.465-5.473l.02-.281c-3.172-2.637-5.469-5.715-6.75-9.027-4.66 4.016-7.75 8.895-8.633 14.219a5.43 5.43 0 0 1 1.527-.223c3.012 0 5.461 2.453 5.461 5.48a5.472 5.472 0 0 1-1.422 3.676 4.29 4.29 0 0 0 2.984 1.207c2.379 0 4.32-1.945 4.32-4.332 0-.168-.016-.336-.035-.5a1.83 1.83 0 0 1-1.66-1.82c0-1.012.82-1.836 1.832-1.836s1.828.824 1.828 1.836c0 .371-.109.715-.297 1a4.3 4.3 0 0 0 2.957 1.199 4.328 4.328 0 0 0 4.32-4.328c0-.297-.039-.59-.098-.875a5.539 5.539 0 0 1-.891.078m26.811-8.668a5.47 5.47 0 0 0-2.676-4.703V28.258c9.906.43 18.879 3.141 25.762 7.359-.691 2.813-2.453 5.5-5.133 7.836a5.302 5.302 0 0 0-2.203-.473c-3.02 0-5.465 2.453-5.465 5.48a5.474 5.474 0 0 0 3.082 4.922l-.027.07a4.304 4.304 0 0 1-2.492 2.18 4.298 4.298 0 0 1-3.297-.227 4.293 4.293 0 0 1-2.172-2.5 3.028 3.028 0 0 1-.129-.488 1.834 1.834 0 0 0 .996-2.254 1.827 1.827 0 0 0-2.32-1.152 1.837 1.837 0 0 0-1.152 2.324c.117.352.332.641.602.852a4.307 4.307 0 0 1-2.422 2.082 4.278 4.278 0 0 1-3.301-.23 4.28 4.28 0 0 1-2.356-3.355 5.472 5.472 0 0 0 4.703-5.418m15.75 8.668a5.467 5.467 0 0 0 5.465-5.473l-.016-.281c3.168-2.637 5.465-5.715 6.746-9.027 4.664 4.016 7.75 8.895 8.637 14.219a5.474 5.474 0 0 0-1.527-.223c-3.016 0-5.461 2.453-5.461 5.48 0 1.414.539 2.703 1.422 3.676a4.3 4.3 0 0 1-2.988 1.207c-2.379 0-4.316-1.945-4.316-4.332 0-.168.012-.336.035-.5a1.832 1.832 0 0 0-.172-3.656 1.833 1.833 0 0 0-1.535 2.836 4.3 4.3 0 0 1-2.957 1.199 4.325 4.325 0 0 1-4.316-4.328c0-.297.035-.59.094-.875.293.047.586.078.891.078"/><path fill="#DE9500" d="M178.43 43.063c0-5.191-2.25-10.176-6.336-14.027-4.383-4.141-10.285-6.445-16.809-6.621-5.031-7.02-14.926-12.094-26.637-13.137a4.47 4.47 0 0 0-3.156-4.246v-.836l2.18-.004v-2.5l-2.188.004V.001h-2.441v1.695l-2.184-.004-.004 2.5 2.18.004v.836a4.47 4.47 0 0 0-3.156 4.246c-11.707 1.043-21.605 6.117-26.633 13.137-6.523.176-12.43 2.48-16.809 6.621-4.09 3.852-6.34 8.836-6.34 14.027 0 5.652 2.941 11.008 8.207 15.188l-.02.375a5.474 5.474 0 0 0 7.188 5.2c.445.883 1.918 3.125 5.371 3.191l-.648.457c-.57.438-1.41 1.637-.484 3.086.43.668 1.059 1.02 1.824 1.02.266 0 .516-.047.727-.102l2.801 3.836.559-.41c8.363-6.145 18.27-9.395 28.645-9.395s20.277 3.25 28.645 9.395l.555.41 2.801-3.836c.211.055.461.102.727.102.766 0 1.395-.352 1.824-1.02.926-1.449.086-2.648-.484-3.086l-.648-.457c3.457-.066 4.926-2.309 5.371-3.191a5.474 5.474 0 0 0 7.188-5.2l-.02-.375c5.266-4.18 8.207-9.535 8.207-15.188zM99.723 59.055a4.283 4.283 0 0 1-2.957-1.199 1.81 1.81 0 0 0 .301-.996 1.833 1.833 0 1 0-2.004 1.82c.02.164.035.328.035.5a4.329 4.329 0 0 1-4.32 4.328 4.266 4.266 0 0 1-2.984-1.207 5.464 5.464 0 0 0 1.422-3.676c0-3.023-2.449-5.477-5.461-5.477a5.29 5.29 0 0 0-1.527.223c-.227.07-.453.145-.668.238-3.738-3.051-5.82-6.758-5.82-10.547 0-3.617 1.621-7.137 4.563-9.91 2.68-2.527 6.137-4.16 10.031-4.793a16.628 16.628 0 0 0-.648 4.574c0 2.129.402 4.215 1.18 6.219 1.277 3.313 3.574 6.387 6.746 9.027l-.02.277a5.471 5.471 0 0 0 5.465 5.477c.305 0 .598-.031.891-.078.059.285.098.574.098.871a4.326 4.326 0 0 1-4.32 4.328zm23.602-7.512a4.287 4.287 0 0 1-2.172 2.496 4.263 4.263 0 0 1-3.297.227 4.275 4.275 0 0 1-2.422-2.078 1.83 1.83 0 0 0-.55-3.176c-.961-.324-2 .191-2.324 1.152a1.834 1.834 0 0 0 1 2.254 4.318 4.318 0 0 1-8.094 1.035l-.027-.07a5.48 5.48 0 0 0 3.082-4.926 5.471 5.471 0 0 0-5.465-5.477 5.38 5.38 0 0 0-2.203.473c-2.676-2.336-4.438-5.023-5.133-7.836a11.337 11.337 0 0 1-.332-2.684c0-9.23 11.684-17.117 26.094-18.051v25.68a5.47 5.47 0 0 0 2.027 10.121c-.035.289-.09.578-.184.859zm19.738 1.91a4.304 4.304 0 0 1-2.492 2.18 4.298 4.298 0 0 1-3.297-.227 4.304 4.304 0 0 1-2.305-2.988 1.827 1.827 0 0 0-1.32-3.406 1.837 1.837 0 0 0-1.152 2.324c.117.352.332.641.602.852a4.285 4.285 0 0 1-5.723 1.851 4.28 4.28 0 0 1-2.168-2.496 4.427 4.427 0 0 1-.188-.859 5.472 5.472 0 0 0 2.027-10.121v-25.68c14.414.934 26.094 8.82 26.094 18.051 0 .902-.113 1.801-.332 2.684-.691 2.813-2.453 5.5-5.129 7.836a5.348 5.348 0 0 0-2.207-.473 5.47 5.47 0 0 0-5.465 5.477 5.48 5.48 0 0 0 3.082 4.926zm23.906.156a6.069 6.069 0 0 0-.668-.238 5.424 5.424 0 0 0-1.523-.223c-3.016 0-5.461 2.453-5.461 5.48 0 1.41.539 2.703 1.418 3.672a4.264 4.264 0 0 1-2.98 1.207 4.328 4.328 0 0 1-4.32-4.328c0-.168.012-.336.035-.5a1.832 1.832 0 0 0-.172-3.656 1.83 1.83 0 0 0-1.832 1.836c0 .367.109.711.297 1a4.297 4.297 0 0 1-2.957 1.195 4.323 4.323 0 0 1-4.316-4.328c0-.297.039-.586.094-.871.293.047.586.078.891.078a5.47 5.47 0 0 0 5.465-5.473l-.016-.281c3.168-2.637 5.465-5.715 6.746-9.027a17.21 17.21 0 0 0 1.18-6.219c0-1.563-.227-3.094-.648-4.574 3.891.633 7.348 2.266 10.027 4.793 2.941 2.773 4.563 6.297 4.563 9.914 0 3.785-2.082 7.492-5.82 10.543zm0 0"/></svg>