<svg xmlns="http://www.w3.org/2000/svg" width="70" height="70"><g fill="none"><path fill="#FFF" d="M34.64 69.45c-3.9 0-10.44-5.24-15.94-12.75-6.45-8.83-10.15-18.9-10.15-27.6 0-16.15 14.78-27 17.85-27 .53 0 .92.4 1.38.88.63.65 1.34 1.38 2.5 1.38.68 0 1.2-.36 1.5-.65a8.7 8.7 0 0 0-.16-.37c-.18-.47-.4-1.05-.4-1.65 0-.55.34-1.13 1.33-1.13.67 0 1.13.35 1.4.63.16-.04.4-.08.7-.08.3 0 .53.04.7.08.26-.28.72-.63 1.4-.63.98 0 1.33.6 1.33 1.13 0 .6-.23 1.18-.42 1.65-.04.12-.1.26-.14.38.3.3.8.65 1.5.65 1.15 0 1.86-.72 2.5-1.37.44-.47.84-.87 1.37-.87 3.06 0 17.84 10.86 17.84 27 0 8.7-3.7 18.77-10.16 27.6-5.5 7.5-12.04 12.75-15.94 12.75M36.74 0c-.7 0-1.22.3-1.57.6a3.6 3.6 0 0 0-1.06 0c-.34-.3-.86-.6-1.56-.6-1.3 0-1.88.85-1.88 1.68 0 .7.26 1.37.46 1.85-.23.16-.5.28-.85.28-.92 0-1.52-.6-2.1-1.2-.5-.5-1-1.04-1.77-1.04-1.84 0-6.45 3.02-10.4 7.52-3.65 4.17-8 11.03-8 20.03C8 49.05 26.5 70 34.64 70 42.8 70 61.3 49.04 61.3 29.1c0-9-4.37-15.85-8.02-20.02-3.94-4.5-8.56-7.52-10.4-7.52-.75 0-1.27.53-1.77 1.04-.56.6-1.16 1.2-2.08 1.2a1.5 1.5 0 0 1-.85-.26c.2-.5.45-1.15.45-1.86 0-.83-.58-1.68-1.88-1.68m0 1.1c.7 0 .8.37.8.58 0 .85-.6 1.76-.6 2.2.07.08.8 1.02 2.08 1.02 2.2 0 3.07-2.25 3.87-2.25 2.44 0 17.3 10.25 17.3 26.46 0 19.65-18.3 39.8-25.56 39.8-7.26 0-25.55-20.15-25.55-39.8 0-16.2 14.85-26.45 17.3-26.45.8 0 1.66 2.25 3.87 2.25 1.28 0 2-.94 2.1-1.02 0-.44-.6-1.35-.6-2.2-.02-.2.07-.6.77-.6s1.1.58 1.16.68c0 .02.03.02.06.02.1 0 .38-.14.88-.14s.78.14.9.14c.02 0 .04 0 .05-.02.05-.1.44-.67 1.14-.67"/><path fill="#009AD5" d="M10.63 28.52h48.03c-.28-1.77-.95-3.6-1.86-5.32H12.5c-.92 1.7-1.6 3.55-1.88 5.32"/><path fill="#F7DC31" d="M58.66 28.52H53.6v19.9c3.07-5.83 5.2-12.28 5.2-18.24 0-1.38-.3-2.86-.83-4.33.32.9.55 1.8.7 2.66"/><path fill="#E8302A" d="M48.26 56.85a61.27 61.27 0 0 0 5.35-8.42v-19.9h-5.34v28.32z"/><path fill="#F7DC31" d="M42.9 62.9c1.78-1.68 3.6-3.73 5.36-6.05V28.52H42.9V62.9zm-21.65-5.76c1.8 2.34 3.67 4.4 5.47 6.08v-34.7h-5.47v28.62z"/><path fill="#E8302A" d="M15.9 48.84a61.25 61.25 0 0 0 5.35 8.3V28.52H15.9v20.32z"/><path fill="#F7DC31" d="M10.54 31.9c.37 5.6 2.47 11.54 5.36 16.94V28.52h-5.3c.14-.88.38-1.77.7-2.66-.4 1.1-.67 2.2-.78 3.27v2.76zm24.1 1.34c1.03 0 2 .2 2.9.57v-5.28H32.2v5.1a7.78 7.78 0 0 1 2.44-.38m0 15.6a7.78 7.78 0 0 1-2.44-.4v18.64c.9.4 1.72.6 2.44.6.85 0 1.84-.3 2.9-.82v-18.6c-.9.37-1.87.57-2.9.57"/><path fill="#E8302A" d="M37.55 28.52v5.3a7.8 7.8 0 0 1 0 14.44v18.6c1.63-.8 3.46-2.17 5.36-3.96V28.52h-5.34zm-10.7 12.5a7.8 7.8 0 0 1 5.35-7.4v-5.1h-5.47v34.7c1.95 1.8 3.83 3.14 5.47 3.86V48.44a7.8 7.8 0 0 1-5.35-7.4"/><path fill="#A03822" d="M26.85 41.03a7.8 7.8 0 1 0 15.58 0 7.8 7.8 0 1 0-15.58 0"/><path fill="#CE8B27" d="M41.92 41.03a7.28 7.28 0 1 1-7.28-7.27 7.28 7.28 0 0 1 7.28 7.27"/><path fill="#A03822" d="M36.24 47.8c-.66-.42-1.2-1.1-1.25-1.33 1.7-.57 2.07-1.82 2.07-2.78 0-.63-.24-1.5-.45-1.86.2-.3.2-.86.2-1.64 0-1.48-.97-2.4-1.35-2.68l.03-.06c.24-.42.75-1.3 1.5-1.3 1.34 0 2.76 1.87 2.76 5.34v.15c0 1.25.02 4.55-3.52 6.16m3.86-6.15v-.15c0-3-1.02-4.87-2.2-5.47a.78.78 0 0 1 .2-.22c.27-.2.72-.4 1.15-.4a7.37 7.37 0 0 0-.4-.3c-.4.07-.74.26-.97.44-.1.1-.25.22-.3.36a1.86 1.86 0 0 0-.57-.08c-.95 0-1.52 1-1.8 1.47-.04.07-.08.13-.1.16-.17.24-.65.36-1.43.36-.84 0-1.12-.17-1.12-.68 0-.85 1.14-2.77 2.75-3.35a7.27 7.27 0 0 0-.66-.04h-.08c-1.42.83-2.36 2.54-2.36 3.38 0 .08 0 .15.02.22-.27.15-.85.44-1.3.44-1.06 0-1.87-.8-2.1-1.12-.08.1-.15.2-.2.3.37.46 1.25 1.16 2.3 1.16.5 0 1.08-.27 1.42-.45.3.46.96.47 1.33.47.8 0 1.3-.12 1.6-.38.33.25 1.22 1.07 1.22 2.4 0 .83-.03 1.42-.25 1.55-.26.14-2.04.37-3.2.37-3.07 0-5.4-1.14-5.67-1.32v.39c.74.4 2.97 1.26 5.68 1.26 1.03 0 2.84-.2 3.3-.4.14.3.37 1.03.37 1.63 0 .84-.33 1.96-1.9 2.45-.37-.2-1.3-.6-2-.6-.5 0-1.05.2-1.36.44-.34-.3-1.33-1.08-2.06-1.08-.27 0-.62.08-.82.13.07.1.14.2.2.3.2-.04.44-.1.63-.1.6 0 1.5.7 1.85 1a.26.26 0 0 0-.02.1c0 .25.28.9.68 1.43.2.08.42.15.63.22l.03-.04c-.53-.4-.97-1.34-1-1.6.1-.13.66-.47 1.26-.47s1.48.34 1.82.54c.03.4.75 1.24 1.5 1.7.17-.02.34-.06.5-.1l-.06.03c3.53-1.74 3.5-5.08 3.5-6.37"/><path fill="#232020" d="M34.64 67.67c-7.26 0-24.15-20.68-24.15-37.5 0-6.25 6.3-14.46 9.87-14.46.33 0 .78.1.78.1s1.42-1.18 3.4-1.18c3.75 0 5.72 3.6 5.72 4.9 0 .67-.24.54-.24.93 0 .2.3.5.5.5.3 0 1.16-.84 1.35-1.23 1.25 0 2.42 1.4 2.76 2.48.35-1.1 1.52-2.48 2.77-2.48.2.4 1.07 1.24 1.35 1.24.2 0 .5-.3.5-.5 0-.4-.23-.27-.23-.94 0-1.3 1.96-4.9 5.7-4.9 2 0 3.42 1.18 3.42 1.18s.44-.1.78-.1c3.56 0 9.88 8.22 9.88 14.48 0 16.8-16.9 37.5-24.16 37.5M26.04 3.8c.03 0 .1.02.1.1 0 .26-4.6 4.3-5.24 10.05-.34-4.5 4.7-10.15 5.14-10.15m17.43 0c.45 0 5.48 5.65 5.14 10.15-.64-5.76-5.22-9.8-5.22-10.05 0-.08.06-.1.1-.1m-.6-1.17c-.8 0-1.65 2.25-3.86 2.25-1.28 0-2-.94-2.1-1.02 0-.44.6-1.35.6-2.2 0-.2-.07-.58-.78-.58-.7 0-1.1.56-1.15.66-.07.1-.34-.1-.96-.1-.6 0-.88.2-.94.1-.06-.1-.45-.66-1.15-.66s-.8.37-.8.6c0 .83.6 1.74.6 2.18-.07.08-.8 1.02-2.08 1.02-2.2 0-3.08-2.25-3.87-2.25-2.45 0-17.3 10.25-17.3 26.46 0 19.65 18.28 39.8 25.54 39.8 7.26 0 25.55-20.15 25.55-39.8 0-16.2-14.86-26.45-17.3-26.45"/><path fill="#EEECEB" d="m13.32 24.08 1.4 3.8h.9l1.43-3.8h-.95s-.84 2.77-.9 2.77c-.03 0-.84-2.77-.84-2.77h-1.04zm4.98 2.3.48-1.27.46 1.28h-.94zm1.48 1.52h.97l-1.5-3.82h-.95l-1.5 3.8h.93l.32-.83h1.42l.3.84zM41 26.4l.5-1.3.45 1.28H41zm1.5 1.5h.97l-1.52-3.82h-.93l-1.52 3.8h.94l.32-.83h1.43l.3.84zm-21.25-3.82v3.8h3v-.8h-2.07v-3zm3.78 0v3.8h3v-.77H25.9v-.87h1.84v-.65H25.9v-.73h2.12v-.77zm27.08 0v3.8h.9v-1.65h1.82v-.65H53v-.73h2.1v-.77zm-23.04 0v3.8h.8v-2.47l1.64 2.5h.94v-3.82h-.9v2.6L30 24.07zm6.98 1.37h1c0-.8-.93-1.37-1.82-1.37-1.26 0-1.9 1.12-1.9 2.02 0 1.1.7 1.8 1.83 1.8 1.34 0 1.88-.75 1.88-1.4h-1c0 .23-.12.8-.8.8-.66 0-1.02-.6-1.02-1.2s.36-1.32 1.05-1.32c.58 0 .8.3.8.67m12.24 0h1c0-.8-.93-1.37-1.82-1.37-1.26 0-1.9 1.12-1.9 2.02 0 1.1.7 1.8 1.83 1.8 1.35 0 1.9-.75 1.9-1.4H48.3c0 .23-.12.8-.78.8-.67 0-1.03-.6-1.03-1.2s.35-1.32 1.04-1.32c.6 0 .8.3.8.67M37.95 27.9h.92v-3.82h-.92zm12.2 0h.98V27h-.98zm4.9 0H56V27h-.97z"/></g></svg>