<svg xmlns="http://www.w3.org/2000/svg" width="457.3382263183594px" height="694.0771484375px" x="0px" y="0px" style="enable-background:new 0 0 1400 980" viewBox="0 0 457.3382263183594 694.0771484375"><path fill="none" d="M0 0h457.338v694.077H0z" style="fill:#080628;fill-opacity:0;pointer-events:none"/><path d="M349.93 98.909c-4.456 0-8.912.283-13.327.85-15.717 1.904-30.867 7.333-44.519 15.232-22.4 13.003-40.63 32.204-55.091 53.47-18.067 26.696-30.584 56.874-38.686 88.025-6.116 23.779-9.722 48.246-10.937 72.794-.324 4.537-.283 9.074-.567 13.61v13.288c.365 10.491.73 21.023 1.782 31.475 1.783 18.471 4.902 36.862 9.48 54.848 7.048 27.424 17.458 54.079 32.123 78.384 9.56 15.838 20.902 30.664 34.35 43.384 10.492 9.925 22.32 18.553 35.324 24.913 14.38 7.13 30.3 11.22 46.341 11.91h7.333c16.243-.649 32.285-4.78 46.827-12.032 12.072-5.914 23.13-13.813 33.055-22.887 21.59-19.85 37.916-44.883 50.19-71.416 16.041-35.08 24.994-73.199 28.234-111.6 2.269-28.195 1.742-56.672-1.985-84.704-4.415-32.812-13.125-65.218-27.18-95.235-6.847-14.583-14.948-28.599-24.508-41.602-8.467-11.505-18.027-22.24-28.923-31.475-10.614-9.074-22.483-16.73-35.324-22.158-13.854-5.914-28.923-9.074-43.992-9.074z" class="st0" style="fill:#1a2f48;fill-opacity:1;stroke:#ececec;stroke-width:.81016737;stroke-miterlimit:10" transform="translate(-243.426 -123.45) scale(1.34375)"/><path d="M430.1 92.4c2.2-.8 4.6-.3 6.7.3 11.4 3.7 23 6.6 34 11.3 7.2 3.1 14.4 7 19.9 12.7.1-13.4.1-26.8 0-40.2-18.2-7.2-36.7-14.1-55.9-18.2-7.2-1.7-14.6-1.5-21.9-1.3-10.6.2-21.2 1.5-31.8 2.5 3.6 6.5 7.5 13.4 7.6 21.1v187c.7 8.8-4.6 16.4-8.8 23.6 18.5.1 37 0 55.5 0-4.4-7.1-7.5-15.2-7.7-23.7 0-24.6.1-49.2 0-73.8 7.8-.7 15.6-.3 23.3-.3 6 0 11.3 3.3 14.8 8V154c-5.9 2.9-12 5.9-18.7 5.7-6.5 0-13-.1-19.6 0-.3-19.7 0-39.5-.2-59.2 0-2.7-.2-6.5 2.8-8.1zM336 174.9c12.6-17.1 20.1-39 16-60.2-2-10.2-8.4-19.3-17-24.9-10.8-7.1-24.4-9.4-37-7.1-9.2 1.7-17.1 7-24.7 12.2-18.6 13.3-35.5 28.8-52.3 44.2 6.1.7 9.5 6.8 9.7 12.5.5 17.3-.2 34.7.3 52-.2 13-.3 26 0 38.9-.6 9 .4 17.9-.3 26.8-.3 8.5-4 16.5-9.9 22.6 30.7.2 61.4.3 92.1.4 7.4 0 14.4-2.8 21.1-5.7 17-7.8 32-21.8 37.3-40.1 4-14.3 3.3-30.1-2.4-43.8-5.7-13.7-18.4-24.1-32.9-27.8Zm-69.5-31.8c7.2-7.5 15.1-14.7 24.6-19.1 4.2-2 9.2-2.9 13.8-1.5 5.4 2.2 8.5 7.9 9.6 13.3 1.4 5.8-.3 12-3.4 17-4.9 8-12.3 13.9-20 19.1-7.8 5-16 9.4-24.6 12.6v-41.4zm59.7 106c-10.8 6.6-23.8 7.8-36.2 8.9-7.5.2-15 .4-22.5-.3v-33c9.7-8.8 21.8-15.3 34.6-18 8.5-1.6 18.3-1.2 25 4.9 5.7 5.1 8.3 12.7 8.9 20.1.6 7.1-3.8 13.8-9.8 17.4zM575.8 243c-9 6.6-20.5 12-31.9 9.4-8.4-1.5-15.8-7.2-19.7-14.8-5.7-10.8-6.2-23.4-5.7-35.3.7-11.3 3-23 9.8-32.3 6.5-9.2 19-14.4 29.9-10.6 5.2 1.6 9.5 5.2 13.2 9l.6-.4c4.7-8.2 8.9-16.6 13.6-24.8.5-1.1 1.6-2.6.5-3.7-6.9-9.2-17.7-15.3-29.1-17.2-10.5-2-21.5-.1-31.2 4.3-16.6 7.3-29.6 21.5-36.8 38-8.4 19.1-10 40.6-7.5 61.2 2 16.1 7.7 32.3 19 44.3 11.8 12.6 29.3 19.4 46.5 19.1 14.5 0 29.8-4.6 39.9-15.5-3.5-10.3-7.6-20.4-11.1-30.7z" class="st1" style="fill:#fefefd" transform="translate(7.046 8.915) scale(.54433)"/><path d="M472.914 209.78c2.025 5.064 4.374 10.006 6.278 15.15 12.842 33.015 19.728 68.216 21.713 103.54.688 10.856.608 21.793.445 32.65h-45.045V247.453c.082-4.942-.12-9.884.082-14.826.891-1.337 2.147-2.39 3.16-3.605a139.977 139.977 0 0 0 13.043-17.378c.446-.567.648-1.216.324-1.864z" class="st1" style="fill:#fefefd;fill-opacity:1;stroke-width:.40508369" transform="translate(-243.426 -123.45) scale(1.34375)"/><path d="M222.126 221.65c1.216-2.917 2.35-5.834 3.727-8.67 1.499 2.35 3.16 4.578 4.74 6.846.85 1.337.324 3.038.445 4.578-.04 91.184.04 182.368-.04 273.593-2.755-5.063-4.983-10.37-7.292-15.676-14.421-34.352-22.158-71.336-24.508-108.482-.161-5.387-.648-10.775-.607-16.163 0-8.79-.162-17.58.324-26.37 1.904-37.47 9.236-74.82 23.211-109.657z" class="st2" style="fill:#a21c26;fill-opacity:1;stroke-width:.40508369" transform="translate(-243.426 -123.45) scale(1.34375)"/><path d="M443.5 318.1c-5.5-5.4-13.5-8.2-21.1-6.8-6.7 1.3-12.6 5.7-16.6 11.1-6.3 8.4-9.2 18.8-9.5 29.2-.3 10.9 2.2 22.2 8.5 31.4 4.3 6.1 10.6 11.5 18.2 12.7 8.4 1.6 16.9-2.4 22.5-8.6 8.6-9.6 12-22.8 11.7-35.4-.6-12.2-4.5-25-13.7-33.6zm-9.3 54.8c-2.2 3-6 5.3-9.8 4.3-4.5-1.3-7.2-5.5-9-9.5-4-9.6-3.8-20.7.4-30.2 1.8-3.9 4.9-7.8 9.3-8.8 3.4-.7 6.7 1.5 8.8 4 4.6 5.6 5.9 13 6.3 20-.2 7-1.6 14.4-6 20.2zM523.1 335.7c-1.8-10.2-9.2-19.1-19-22.5-6.9-2.9-14.7-1.6-21.5.9-7.1 2.7-12.4 9-13.9 16.4-1.2 7.5-.9 16.1 4.2 22.1 6.1 7.5 16.4 9.6 25.6 9.7-1.4 3.3-3.6 6.5-6.9 8.1-5.9 3.1-12.8 2.2-19.1 1.4V383c8.9 3.4 19.2 3.1 27.9-.8 9.8-4.2 17.5-12.7 20.9-22.7 3-7.5 3-15.9 1.8-23.8zm-17.5 4.1c-.6 6.8-9.2 11.6-14.8 7.1-7-4.8-5.5-17 2.6-19.7 7.3-2.3 13.9 5.7 12.2 12.6zM371.3 319.3c-8.8-8.6-23.3-9.4-33.5-3-8.7 5.1-14.2 15.3-13.5 25.4-.1 9.8 4.6 20.8 14.4 24.2 7.5 2.3 15.4-.2 22.8-1.8.2 5.3-2.1 11.3-7.6 13-8.8 2.8-17.6-1.9-25.6-5.3.1 4.4-.4 8.9.2 13.2 6.7 5 15 7.8 23.4 7.5 10 .1 19.4-6 24.7-14.3 4.8-7.6 6.4-16.7 6.1-25.5.1-11.9-2.6-24.8-11.4-33.4zm-12.2 29.6c-3.2 3.4-9 4.5-12.7 1.4-7.1-5.8-6.2-19.8 3-23 4.3-1.3 9.4.3 11.5 4.4 2.8 5.3 3.2 13-1.8 17.2zM278.6 323.1v10.4c4.4.1 8.9.1 13-1.6v45c6.6 2.6 13.2 5.4 19.9 7.8v-70.4c-5.6-.2-11.2-.7-16.8-1.1-2.7 6.5-9.5 9.5-16.1 9.9z" class="st1" style="fill:#fefefd" transform="translate(7.046 8.915) scale(.54433)"/><path d="M409.923 265.196a143.46 143.46 0 0 0 36.296-23.009c.081 43.02 0 86.04.04 129.06h54.687c-.689 12.8-2.188 25.56-4.051 38.28h-50.636v85.392c.041 13.286-.081 26.573.041 39.9-10.694 13.652-23.09 26.21-37.592 35.85.041-53.714 0-107.428.041-161.142H355.44v-38.28h53.309V266.41c-.162-.689.689-.932 1.175-1.215zM271.992 257.094c13.206 7.818 27.586 13.61 42.493 17.054.041 102.85 0 205.702.041 308.552-15.96-5.995-30.22-15.879-42.574-27.545.04-99.367 0-198.694.04-298.06z" class="st2" style="fill:#a21c26;fill-opacity:1;stroke-width:.40508369" transform="translate(-243.426 -123.45) scale(1.34375)"/><path d="M383.714 274.067c5.064-1.175 10.046-2.754 15.029-4.294v89.888c-.121.446.283 1.54-.486 1.459-14.3.04-28.559 0-42.858.04v-83.204c9.52-.446 19.039-1.701 28.315-3.889zM355.399 419.695c14.42 0 28.882-.04 43.303.04.04 52.337 0 104.674.04 156.97-13.367 7.13-28.193 11.748-43.343 12.517V419.695zM456.346 419.695c12.881 0 25.803-.04 38.685 0-6.684 34.148-18.269 67.649-36.579 97.341-.85 1.378-1.782 2.755-2.511 4.213.648-1.256.324-2.714.405-4.091v-97.463z" class="st1" style="fill:#fefefd;fill-opacity:1;stroke-width:.40508369" transform="translate(-243.426 -123.45) scale(1.34375)"/><path d="M349.93 111.061c13.246 0 26.776 2.795 39.172 8.102 11.18 4.74 21.996 11.545 32.163 20.214 9.48 8.06 18.553 17.945 27.02 29.409 8.668 11.788 16.486 25.115 23.292 39.577 12.881 27.545 21.672 58.413 26.168 91.71 3.524 26.412 4.173 53.998 1.945 82.11-3.363 39.254-12.477 75.427-27.181 107.55-12.76 27.668-28.68 50.393-47.314 67.488-9.641 8.79-19.768 15.838-30.179 20.942h-.081c-12.882 6.441-27.263 10.127-41.643 10.735h-6.805c-14.219-.648-28.437-4.334-41.238-10.654h-.081c-11.262-5.509-22.158-13.205-32.326-22.846-11.788-11.14-22.644-24.872-32.285-40.833-13.287-22.036-23.617-47.314-30.746-75.102-4.334-17.054-7.453-34.878-9.195-53.026v-.08c-1.054-10.087-1.378-20.417-1.742-30.422v-12.76c.12-2.026.162-4.051.202-5.955.082-2.471.121-4.82.284-7.049v-.324c1.215-24.143 4.82-47.84 10.613-70.363 8.304-31.92 20.74-60.276 36.984-84.257 14.948-22.037 32.123-38.767 51.122-49.785 12.598-7.332 26.411-12.072 39.9-13.692h.081c3.97-.446 7.94-.689 11.87-.689m0-12.152c-4.456 0-8.912.283-13.327.85-15.718 1.905-30.868 7.333-44.52 15.232-22.4 13.003-40.629 32.204-55.09 53.47-18.067 26.696-30.584 56.875-38.686 88.025-6.117 23.779-9.722 48.246-10.937 72.794-.324 4.537-.284 9.074-.567 13.61v13.288c.364 10.491.729 21.023 1.782 31.475 1.782 18.471 4.901 36.862 9.479 54.848 7.048 27.424 17.46 54.079 32.123 78.384 9.56 15.838 20.902 30.664 34.351 43.384 10.492 9.925 22.32 18.553 35.323 24.913 14.38 7.13 30.3 11.22 46.342 11.91h7.332c16.244-.649 32.285-4.78 46.828-12.032 12.071-5.914 23.13-13.813 33.055-22.887 21.59-19.85 37.915-44.883 50.19-71.416 16.04-35.08 24.993-73.199 28.234-111.6 2.268-28.195 1.742-56.672-1.985-84.704-4.416-32.812-13.125-65.218-27.181-95.235-6.846-14.583-14.948-28.599-24.508-41.602-8.466-11.505-18.026-22.24-28.923-31.475-10.613-9.074-22.482-16.73-35.323-22.158-13.854-5.914-28.923-9.074-43.992-9.074z" class="st3" style="fill:#fefefd;fill-opacity:1;stroke-width:.40508369" transform="translate(-243.426 -123.45) scale(1.34375)"/></svg>