<svg xmlns="http://www.w3.org/2000/svg" xml:space="preserve" width="516.24823" height="588.01672" viewBox="0 0 516.24821 588.01672"><defs><clipPath id="a" clipPathUnits="userSpaceOnUse"><path d="M0 600h800V0H0Z"/></clipPath></defs><g clip-path="url(#a)" transform="matrix(1.81088 0 0 -1.81088 -466.228 837.273)"><path d="M0 0c-45.901 23.989-81.267 59.653-105.281 111.404-24.499 52.797-38.425 110.153-37.183 213.309h284.928c1.242-103.156-12.684-160.512-37.183-213.309C81.268 59.653 45.9 23.989 0 0" style="fill:#f2e01a;fill-opacity:1;fill-rule:nonzero;stroke:none" transform="translate(400 137.644)"/><path d="M0 0c-39.07 21.417-69.136 51.897-90.862 89.104 61.006 51.18 132.867 88.075 219.049 105.785C113.032 109.056 71.66 39.28 0 0" style="fill:#262b90;fill-opacity:1;fill-rule:nonzero;stroke:none" transform="translate(400 146.411)"/><path d="M0 0c-19.835 45.563-29.285 98.923-29.273 156.741h269.73c.003-14.714-.613-29.136-1.851-43.218C143.284 93.921 60.003 50.429 0 0" style="fill:#262b90;fill-opacity:1;fill-rule:nonzero;stroke:none" transform="translate(294.408 264.636)"/><path d="M507.725 430.683h5.039v22.429h-5.039z" style="fill:#262b90;fill-opacity:1;fill-rule:nonzero;stroke:none"/><path d="M0 0c-1.774-2.08-2.665-4.714-2.665-7.895v-.903c0-3.343.859-5.991 2.58-7.954 1.815-2.05 4.365-3.074 7.643-3.074 2.373 0 4.051.324 5.043.978v3.465a11.993 11.993 0 0 0-4.745-.964c-3.556 0-5.336 2.614-5.336 7.844v.315c0 2.197.41 3.997 1.229 5.403C4.756-1.061 6.278-.198 8.316-.198c1.766 0 3.198-.289 4.285-.872v3.565c-1.032.523-2.727.787-5.099.787C4.392 3.282 1.887 2.186 0 0" style="fill:#262b90;fill-opacity:1;fill-rule:nonzero;stroke:none" transform="translate(436.43 450.139)"/><path d="M0 0h5.038v9.675h6.656v3.388H5.038v6.023h8.564v3.343H0Z" style="fill:#262b90;fill-opacity:1;fill-rule:nonzero;stroke:none" transform="translate(264.843 430.683)"/><path d="m0 0 2.58 8.229L5.326 0Zm.748 13.805L-6.778-8.624h4.101l1.696 5.383h7.379l1.645-5.383h5.154L5.448 13.805Z" style="fill:#262b90;fill-opacity:1;fill-rule:nonzero;stroke:none" transform="translate(457.08 439.307)"/><path d="M0 0h6.656v3.389H0v6.022h8.563v3.343H-5.039V-9.675H9.176v3.343H0Z" style="fill:#262b90;fill-opacity:1;fill-rule:nonzero;stroke:none" transform="translate(414.968 440.357)"/><path d="M0 0c0-2.268-.178-3.967-.531-5.099-.623-1.942-1.817-2.912-3.572-2.912-1.978 0-3.228.929-3.753 2.781-.228.801-.339 2.567-.339 5.291v.548c0 2.603.132 4.363.399 5.277.552 1.922 1.786 2.881 3.693 2.881C-2.19 8.767-.952 7.813-.4 5.9c.268-.923.4-2.688.4-5.291Zm2.964 8.589c-1.599 2.227-3.91 3.344-6.935 3.344-3.091 0-5.459-1.091-7.097-3.268-1.462-1.963-2.196-4.551-2.196-7.762V-.37c0-3.141.728-5.672 2.181-7.595 1.618-2.141 3.944-3.211 6.98-3.211 3.06 0 5.397 1.075 7.005 3.227 1.442 1.922 2.165 4.47 2.165 7.65V.903c0 3.16-.703 5.723-2.103 7.686" style="fill:#262b90;fill-opacity:1;fill-rule:nonzero;stroke:none" transform="translate(530.089 441.488)"/><path d="M0 0c-1.775-2.08-2.666-4.714-2.666-7.895v-.903c0-3.343.86-5.991 2.58-7.954 1.816-2.05 4.365-3.074 7.644-3.074 2.373 0 4.051.324 5.043.978v3.465a11.998 11.998 0 0 0-4.746-.964c-3.555 0-5.335 2.614-5.335 7.844v.315c0 2.197.409 3.997 1.228 5.403C4.755-1.061 6.277-.198 8.316-.198c1.766 0 3.197-.289 4.285-.872v3.565c-1.032.523-2.727.787-5.099.787C4.392 3.282 1.887 2.186 0 0" style="fill:#262b90;fill-opacity:1;fill-rule:nonzero;stroke:none" transform="translate(490.88 450.139)"/><path d="M0 0h-5.038v-22.429H8.301v3.343H0Z" style="fill:#262b90;fill-opacity:1;fill-rule:nonzero;stroke:none" transform="translate(477.581 453.111)"/><path d="m0 0-10.658 13.271h-2.696V-9.157h3.585V4.931L1.406-9.157h2.18v22.428H0Z" style="fill:#262b90;fill-opacity:1;fill-rule:nonzero;stroke:none" transform="translate(402.286 439.84)"/><path d="M0 0c0-2.268-.178-3.967-.531-5.099-.622-1.942-1.817-2.912-3.572-2.912-1.978 0-3.228.929-3.753 2.781-.228.801-.339 2.567-.339 5.291v.548c0 2.603.132 4.363.399 5.277.551 1.922 1.786 2.881 3.693 2.881C-2.19 8.767-.952 7.813-.4 5.9c.268-.923.4-2.688.4-5.291Zm-3.972 11.933c-3.09 0-5.458-1.091-7.096-3.268-1.462-1.963-2.197-4.551-2.197-7.762V-.37c0-3.141.73-5.672 2.181-7.595 1.619-2.141 3.946-3.211 6.981-3.211 3.06 0 5.397 1.075 7.006 3.227 1.442 1.922 2.165 4.47 2.165 7.65V.903c0 3.16-.703 5.723-2.105 7.686-1.598 2.227-3.909 3.344-6.935 3.344" style="fill:#262b90;fill-opacity:1;fill-rule:nonzero;stroke:none" transform="translate(311.942 441.488)"/><path d="M0 0c-1.745.645-2.736 1.035-2.964 1.162-1.078.604-1.614 1.415-1.614 2.435 0 1.456 1.265 2.186 3.794 2.186 1.335 0 3.076-.259 5.22-.781v3.414c-1.447.563-3.278.848-5.498.848-2.166 0-4.012-.472-5.544-1.41-1.827-1.122-2.743-2.7-2.743-4.745 0-1.74.465-3.18 1.392-4.306.829-1.005 2.104-1.852 3.824-2.542 1.523-.615 2.474-1.04 2.863-1.28C-.202-5.692.329-6.515.329-7.483c0-1.193-.451-1.995-1.351-2.411-.612-.278-1.598-.415-2.959-.415-.982 0-2.049.117-3.203.355-1.314.268-2.316.614-3.009 1.04v-3.866c1.669-.664 3.94-.994 6.819-.994 5.974 0 8.964 2.324 8.964 6.97C5.59-3.622 3.728-1.355 0 0" style="fill:#262b90;fill-opacity:1;fill-rule:nonzero;stroke:none" transform="translate(328.483 444.157)"/><path d="M0 0c0-1.746-1.112-2.618-3.333-2.618h-1.365v5.931h1.643C-1.016 3.313 0 2.41 0 .608Zm.279-3.982C3.4-3.709 4.963-2.228 4.963.461v1.218c0 3.221-1.968 4.83-5.899 4.83h-8.801V-15.92h5.039v10.075h1.183c1.79 0 2.99-1.343 3.602-4.028.309-1.318.475-3.333.506-6.047H5.57c0 2.993-.258 5.331-.784 7.016C3.967-6.281 2.464-4.637.279-3.982" style="fill:#262b90;fill-opacity:1;fill-rule:nonzero;stroke:none" transform="translate(291.03 446.603)"/><path d="M338.039 430.683h5.038v22.429h-5.038z" style="fill:#262b90;fill-opacity:1;fill-rule:nonzero;stroke:none"/><path d="m0 0-10.658 13.271h-2.696V-9.157h3.586V4.931L1.407-9.157h2.18v22.428H0Z" style="fill:#262b90;fill-opacity:1;fill-rule:nonzero;stroke:none" transform="translate(361.353 439.84)"/><path d="M0 0c0-2.268-.178-3.967-.531-5.099-.622-1.942-1.817-2.912-3.572-2.912-1.978 0-3.227.929-3.753 2.781-.228.801-.339 2.567-.339 5.291v.548c0 2.603.132 4.363.4 5.277.551 1.922 1.785 2.881 3.692 2.881 1.912 0 3.152-.954 3.703-2.867.267-.923.4-2.688.4-5.291Zm-3.972 11.933c-3.09 0-5.457-1.091-7.096-3.268-1.462-1.963-2.196-4.551-2.196-7.762V-.37c0-3.141.729-5.672 2.181-7.595 1.618-2.141 3.945-3.211 6.98-3.211 3.06 0 5.398 1.075 7.006 3.227 1.442 1.922 2.165 4.47 2.165 7.65V.903c0 3.16-.703 5.723-2.104 7.686-1.599 2.227-3.911 3.344-6.936 3.344" style="fill:#262b90;fill-opacity:1;fill-rule:nonzero;stroke:none" transform="translate(381.106 441.488)"/><path d="M0 0a283.844 283.844 0 0 0-7.354 15.601C52.65 66.03 135.934 109.523 231.258 129.127a443.1 443.1 0 0 0-1.994-18.352C137.531 93.172 60.291 49.472 0 0" style="fill:#2e58a6;fill-opacity:1;fill-rule:nonzero;stroke:none" transform="translate(301.76 249.033)"/><path d="M0 0c-3.41-6.437-9.097-9.85-17.48-9.675-.439 4.864-2.025 8.654-4.239 11.851-2.227 3.215-5.081 5.814-8.041 8.31l-.313 4.543c-26.955-11.6-52.247-25.419-76.041-41.216.823-2.32 1.749-4.628 3.005-6.895a29.488 29.488 0 0 1 6.387-7.954c.126-1.138.213-2.309.17-3.602a21.356 21.356 0 0 0-.574-4.188c-.705 0-1.387.021-2.044.062h-.002c-5.763.36-9.64 2.282-12.078 5.072-1.471 1.684-2.882 3.277-4.48 4.659-1.374 1.185-2.883 2.209-4.674 2.996a507.504 507.504 0 0 1-14.453-10.727c.151-1.012.407-1.96.894-2.759a4.274 4.274 0 0 1 1.958-1.722c-2.026-1.541-3.033-2.781-3.048-4.13-.015-1.492 1.198-2.971 3.595-4.998l.085-.071.106-.027a48.782 48.782 0 0 1 6.015-1.102 63.07 63.07 0 0 1 6.201-.427 34.432 34.432 0 0 0 3.143-.47 79.174 79.174 0 0 0 3.182-.699l.007-.002.043-.005c1.304-.167 2.672-.349 4.042-.533 13.831-1.849 27.666-3.699 35.111 3.871l.041.042.033.059c1.181 2.097 1.325 3.927.876 5.602-.44 1.634-1.442 3.094-2.586 4.507-1.598 2.54-1.784 4.53-.943 6.119.855 1.614 2.771 2.876 5.349 3.912a13.1 13.1 0 0 1 1.953-5.937c1.438-2.33 3.706-4.533 6.986-6.619l.01-.007.002-.001-.001-.001c.823-.501 1.667-1.002 2.513-1.504 2.532-1.5 5.096-3.022 7.386-4.76 1.499-1.139 2.553-2.536 2.962-4.284.412-1.769.171-3.92-.924-6.556h.001c-.993-2.173-2.132-3.971-3.415-5.391-1.273-1.408-2.691-2.447-4.253-3.116l-.06-.026-.05-.04c-2.263-1.798-4.472-1.28-7.586-.549l-.315.075c-6.885 1.611-11.11 1.914-13.809 1.562-2.817-.367-4.029-1.444-4.83-2.524l-.044-.059-.021-.059c-.979-2.637-1.208-4.41-.892-5.548.271-.978.895-1.508 1.767-1.721l-.153-.169c-.922-1.055-1.531-2.321-1.765-3.585-.239-1.287-.093-2.578.497-3.658.913-1.671 2.861-2.82 6.051-2.639a11.262 11.262 0 0 1-.476-2.165l-.002-.02c-.117-1.504.367-2.497 1.289-3.114.858-.574 2.083-.785 3.535-.767 1.359-.182 3.001-.29 4.788-.364 1.779-.072 3.726-.107 5.682-.14l.062-.002.056.014 6.236 1.517.038.009.018.008c1.197.458 2.393.72 3.585.838 1.194.118 2.392.092 3.59-.022 2.132-.468 3.861-.554 5.186-.261 1.414.315 2.381 1.051 2.894 2.208l7.235 13.122.012.026a15.375 15.375 0 0 0 3.523 4.759c1.423 1.309 3.066 2.37 4.847 3.272l5.214 2.356.014.005.03.019c1.388.811 2.456 1.737 3.242 2.729 1.211 1.527 1.762 3.21 1.794 4.883.033 1.661-.451 3.306-1.307 4.771a11.029 11.029 0 0 1-2.661 3.054l-.014.011-.023.016a4.991 4.991 0 0 0-.766.62l-.002.002c-1.714 1.675-2.833 4.795-3.117 8.139-.284 3.357.278 6.917 1.932 9.451.303.464.644.893 1.023 1.281 2.335 2.39 4.388 4.975 5.836 7.984 1.408 2.923 2.246 6.238 2.222 10.154 8.001 1.557 14.457 4.5 19.012 9.135 4.643 4.724 7.302 11.188 7.607 19.715v.032l-.833 24.49a485.95 485.95 0 0 1-8.664-2.901C4.595 16.072 3.438 6.495 0 0" style="fill:#000;fill-opacity:1;fill-rule:nonzero;stroke:none" transform="translate(460.878 295.853)"/><path d="M0 0c-.32 1.921-.976 3.577-1.969 4.97.3.087.589.191.867.311 1.557.673 2.748 1.858 3.34 3.671l.194.591-.623.028c-2.593.117-4.505 1.291-5.841 3.353-1.285 1.982-2.057 4.788-2.404 8.272 1.445.032 2.799.333 3.919.927 1.208.641 2.147 1.616 2.645 2.956l.172.462-.467.154c-1.599.526-2.925 1.411-3.931 2.715-1.008 1.308-1.707 3.048-2.05 5.278.274 3.603-.779 5.208-1.831 6.812l-.178.272-.031.049-.053.046c-1.339 1.186-2.695 2.309-4.106 3.175h-.001c-1.271.781-2.594 1.359-4.001 1.601a4.559 4.559 0 0 1-.28.415v.001a4.444 4.444 0 0 1-.396.453l-.171 8.226-.022 1.036-.768-.695c-1.185-1.073-2.326-1.937-3.407-2.525-.883-.482-1.722-.777-2.508-.848l-.484 5.172-.063.679-.614-.296a19.473 19.473 0 0 0-2.481-1.017 11.231 11.231 0 0 0-2.38-.512c-1.627.273-3.057.066-4.317-.55l-.001.001c-1.202-.587-2.239-1.544-3.139-2.802-2.606-.142-5.21-.208-7.803-.165a79.495 79.495 0 0 0-8.013.526c-2.668.318-5.776-.758-7.683-3.123a7.946 7.946 0 0 1-.972-1.535v-.002a8.362 8.362 0 0 1-.542-1.487c-3.063-.058-5.995-.347-8.588-1.159-2.741-.86-5.107-2.302-6.858-4.666-.898-1.213-1.381-2.671-1.534-3.899-.403-2.205-.807-4.41-1.481-6.741-.365-1.144-.483-2.131-.212-2.869.299-.815 1.009-1.302 2.277-1.334 1.332-.168 2.653-.343 3.928-.548.45-.072 3.116-.6 3.948-.653.69-.415 1.391-.755 2.136-.777.932-.028 1.847.433 2.726 1.835 2.128 1.427 4.25 2.506 6.363 3.153.5.153 1 .281 1.5.385a11.617 11.617 0 0 0 1.797-5.221 35.268 35.268 0 0 1-3.57.397c-4.029.237-8.151-.25-12.404-1.8l-.006-.002-.033-.012h-.002a38.31 38.31 0 0 0-2.713-.925 34.03 34.03 0 0 0-2.649-.684c-4.342-.935-8.1-.815-9.783.644-1.736 1.921-3.444 2.835-4.866 2.952-.808.067-1.529-.119-2.123-.519-.587-.395-1.039-1-1.318-1.773-.539-1.494-.423-3.656.66-6.192.203-.475.454-.924.747-1.342l.001.001c1.417-2.021 3.821-3.33 6.728-3.76 2.862-.422 6.224.009 9.61 1.456a23.579 23.579 0 0 1 4.217 2.356c4.118 2.433 8.205 3.467 12.265 3.409a24.324 24.324 0 0 0 4.524-.504 29.604 29.604 0 0 0-1.061-3.029c-2.042.872-3.647 1.13-4.99 1.02-1.743-.144-3.017-.898-4.215-1.746-1.684-1.194-2.977-2.485-3.534-3.964-.575-1.525-.375-3.209.965-5.119l.13-.185.226-.015c1.677-.114 3.458-.061 5.306.105 1.029.093 2.076.219 3.133.371-1.775-1.197-3.175-2.623-4.198-4.277-.171-.277-.218-.276-.566-.343l-.053-.004c-1.887-.15-3.755-.836-5.495-1.958l-.333.155c-2.475 1.275-5.127 2.283-7.938 3.044-2.777.751-5.717 1.265-8.806 1.561-2.456 1.125-4.812 2.274-6.928 3.474-2.093 1.187-3.951 2.423-5.442 3.733-1.081 2.012-2.205 3.61-3.356 4.941-1.168 1.352-2.36 2.427-3.561 3.379l-.032.023a60.212 60.212 0 0 1-3.798 2.366 34.954 34.954 0 0 1-3.821 1.891l-.016.006-.033.01a2.782 2.782 0 0 1-.644.111c-.506.021-.926-.124-1.257-.398-.316-.262-.541-.638-.673-1.091l-.018-.073a15.503 15.503 0 0 1-3.764 2.97c-2.008 1.349-4.469 1.579-6.828.642a9.058 9.058 0 0 1-1.352-.674 10.48 10.48 0 0 1-1.296-.932v.001l-.03-.026-.002-.001a12.86 12.86 0 0 1-.981-.924c-1.692-1.779-2.441-3.711-2.35-5.7.09-1.967 1.008-3.967 2.651-5.904a18 18 0 0 1 1.081-1.162c-1.239-1.971-1.897-4.103-1.966-6.152-.07-2.05.448-4.018 1.555-5.663 1.11-1.645 2.807-2.965 5.097-3.717 2.475-.813 5.647-.96 9.516-.129 2.079.322 4.039.08 5.946-.648 1.937-.738 3.827-1.977 5.741-3.634 3.462-2.998 7.171-5.451 11.177-7.06 3.943-1.585 8.595-2.346 13.177-2.018a27.897 27.897 0 0 1-.005-3.715l-5.052-1.309a21.82 21.82 0 0 1-4.837-1.809c-1.419-.73-2.688-1.573-3.89-2.462-1.02-.635-2.037-.985-3.049-1.122-1.023-.14-2.054-.068-3.089.135l-.046.009-.056-.001c-2.15-.054-4.262.321-6.339 1.057-2.08.736-4.125 1.834-6.143 3.223-1.099 1.04-2.31 1.598-3.6 1.804-1.279.204-2.625.058-4.01-.307l-.022-.006-.028-.011c-1.944-.756-3.369-1.499-4.278-2.228-.626-.502-1.023-1.016-1.19-1.537-.179-.561-.094-1.107.252-1.636a9.106 9.106 0 0 1-.639-.049v-.001c-1.444-.17-2.485-.689-3.121-1.555l-.016-.024c-1.893-2.938-2.845-5.683-2.292-8.117.529-2.331 2.416-4.327 6.141-5.863-1.085-1.536-1.385-3.123-1.136-4.538a5.597 5.597 0 0 1 1.224-2.613 5.8 5.8 0 0 1 2.317-1.674c1.472-.58 3.217-.559 4.891.374l.044.023.034.031c1.06.905 2.3 1.739 4.25 2.288 1.973.553 4.676.821 8.647.587.978-.447 1.949-.75 3.076-.671 1.142.081 2.418.561 3.979 1.697l.004.003.001-.001c.232.169.418.297.612.431.85.586 1.831 1.259 2.737 2.317a10.46 10.46 0 0 0 2.443.953c.841.211 1.683.317 2.522.355l10.912-.462C-55.003-30.961-28.407-17.93-.104-6.87.295-4.295.333-2.003 0 0" style="fill:#000;fill-opacity:1;fill-rule:nonzero;stroke:none" transform="translate(442.36 358.14)"/><path d="M0 0a13.442 13.442 0 0 0 2.966 3.548c.408.16.817.289 1.23.306.42.017.868-.082 1.361-.38l.091-.056.104-.011c3.483-.38 6.643-.237 9.459.319 5.047.995 9.007 3.312 11.81 6.323 2.811 3.018 4.458 6.735 4.87 10.519a17.211 17.211 0 0 1-.216 5.182l-.127.645-.571-.324c-3.518-1.989-6.907-3.13-10.242-3.532-3.333-.401-6.619-.066-9.931.893-1.842.534-3.543.722-5.08.612-2.252-.161-4.161-.962-5.663-2.261-1.496-1.291-2.582-3.072-3.2-5.203-.484-1.673-.679-3.561-.557-5.594C-7.021 8.034-9.347 4.15-10.843-.445c-1.482-4.553-2.147-9.814-2.169-15.561a559.797 559.797 0 0 0 10.809 3.685C-2.588-7.662-1.963-3.381 0 0" style="fill:#000;fill-opacity:1;fill-rule:nonzero;stroke:none" transform="translate(472.954 373.85)"/><path d="M0 0a14.369 14.369 0 0 0 3.212 3.832h.002l.02.017.059.048.067.028c.514.206 1.042.377 1.619.4.563.023 1.157-.098 1.792-.462 3.344-.354 6.375-.215 9.079.318 4.835.954 8.624 3.166 11.297 6.039 2.667 2.864 4.231 6.388 4.622 9.973.155 1.42.124 2.852-.093 4.255-3.425-1.855-6.739-2.93-10.01-3.325-3.459-.416-6.869-.07-10.306.926-1.728.5-3.318.679-4.751.575-2.04-.145-3.761-.866-5.11-2.03-1.355-1.171-2.344-2.798-2.91-4.751-.471-1.627-.65-3.485-.505-5.498l.017-.235-.18-.156C-5.36 7.104-7.652 3.306-9.123-1.214c-1.422-4.369-2.073-9.419-2.12-14.935a568.043 568.043 0 0 0 8.935 3.047C-2.748-8.17-2.099-3.614 0 0" style="fill:#acbfda;fill-opacity:1;fill-rule:nonzero;stroke:none" transform="translate(472.135 374.324)"/><path d="M0 0c-3.646-6.886-9.75-10.479-18.771-10.166l-.426.015-.032.422c-.369 4.882-1.917 8.65-4.106 11.808-2.203 3.18-5.063 5.765-8.026 8.255l-.155.13-.014.2-.305 4.413C-58.139 3.692-82.854-9.81-106.14-25.203c.83-2.359 1.757-4.7 3.019-6.979a28.611 28.611 0 0 1 6.322-7.822l.14-.122.02-.181c.14-1.225.243-2.491.196-3.919a22.316 22.316 0 0 0-.545-4.145c.199.005.398.014.6.021a46.02 46.02 0 0 1 4.082.368l.022.003.122-.938-.022-.004a47.607 47.607 0 0 0-4.167-.374 35.094 35.094 0 0 0-3.716.027c-6.044.378-10.135 2.422-12.733 5.395-1.447 1.657-2.834 3.224-4.388 4.565-1.436 1.242-3.032 2.293-4.965 3.063a484.918 484.918 0 0 1-5.51-4.021 32.825 32.825 0 0 0 2.801-1.309l.001.002c1.274-.678 2.442-1.437 3.458-2.303l-.616-.72c-.954.813-2.064 1.533-3.288 2.184v.002a33.048 33.048 0 0 1-3.254 1.485c-2.1-1.559-4.19-3.135-6.265-4.726.124-1.108.346-2.135.834-2.937.538-.881 1.43-1.518 2.928-1.73.22.111.453.209.696.29.283.094.573.168.865.219v-.002c1.479.265 3.154.057 4.606-.37l-.268-.909c-1.33.392-2.853.585-4.173.349l-.002-.002a5.184 5.184 0 0 1-.727-.182 4.184 4.184 0 0 1-.659-.284l-.025-.015-.134-.073-.149.019c-.246.029-.48.069-.701.117-2.139-1.546-3.199-2.675-3.21-3.78-.012-1.134 1.06-2.396 3.176-4.196a48.294 48.294 0 0 1 5.79-1.053 61.761 61.761 0 0 1 6.13-.423l.036-.002a34.71 34.71 0 0 0 3.246-.484 76.697 76.697 0 0 0 3.216-.704c1.368-.174 2.687-.351 4.002-.527 13.575-1.815 27.151-3.629 34.274 3.559 1.01 1.821 1.133 3.399.748 4.833-.399 1.484-1.344 2.847-2.424 4.18l-.02.024-.013.022c-1.817 2.876-1.999 5.188-.993 7.086.983 1.857 3.105 3.265 5.937 4.39l.204.074c-.002.169-.001.338.003.508.102 4.503 1.336 8.529 3.211 12.133 1.449 2.789 3.284 5.324 5.275 7.635l-.193-.081c-.99 2.323-2.262 4.555-3.752 6.711-1.494 2.161-3.212 4.255-5.091 6.297l.697.642c1.902-2.068 3.648-4.196 5.173-6.401 1.457-2.109 2.71-4.288 3.704-6.551.4.453.804.896 1.213 1.329 3.211 3.403 5.218 6.529 6.37 9.556 1.146 3.015 1.449 5.944 1.254 8.962l.946.06c.202-3.148-.114-6.205-1.314-9.359-1.194-3.139-3.264-6.368-6.565-9.868-2.601-2.758-5.052-5.863-6.875-9.368-1.816-3.49-3.009-7.38-3.108-11.717-.055-2.43.506-4.734 1.856-6.923 1.361-2.208 3.529-4.306 6.677-6.31l.005-.003.003-.001c.829-.506 1.665-1.001 2.501-1.498 2.547-1.51 5.126-3.039 7.475-4.823 1.674-1.271 2.853-2.841 3.314-4.821.457-1.958.206-4.302-.971-7.135l-.008-.014c-1.034-2.268-2.228-4.151-3.582-5.649-1.352-1.494-2.859-2.605-4.524-3.329-2.605-2.036-4.989-1.476-8.34-.69l-.315.074c-6.765 1.583-10.878 1.887-13.47 1.549-2.424-.316-3.47-1.198-4.151-2.094-.886-2.406-1.108-3.965-.847-4.907.219-.793.86-1.113 1.763-1.136 1.869 1.47 4.537 2.174 7.735 1.159l-.286-.904c-3.443 1.093-6.179-.028-7.799-1.884-.81-.925-1.343-2.032-1.547-3.133-.2-1.08-.084-2.152.398-3.035.748-1.37 2.411-2.305 5.19-2.144l.408.029c.574 1.18 1.384 1.987 2.388 2.528 1.687.911 3.892.958 6.418.468l-.179-.93c-2.32.451-4.317.423-5.79-.373-1.444-.777-2.418-2.328-2.747-4.939-.085-1.11.243-1.823.871-2.243.687-.46 1.745-.625 3.032-.606h.037l.031-.004c1.334-.18 2.959-.29 4.732-.36 1.774-.072 3.682-.107 5.598-.141l6.142 1.495c1.266.483 2.536.76 3.808.884 1.267.125 2.534.099 3.798-.023l.03-.002.027-.006c2.01-.444 3.613-.533 4.809-.268 1.107.246 1.853.806 2.238 1.681l.008.018.011.019 7.244 13.14a16.303 16.303 0 0 0 3.725 5.029c1.494 1.376 3.213 2.486 5.073 3.426l.017.01 5.214 2.354c1.262.743 2.232 1.585 2.944 2.484 1.073 1.353 1.562 2.839 1.59 4.308.029 1.483-.406 2.959-1.178 4.278a10.085 10.085 0 0 1-2.421 2.781 5.981 5.981 0 0 0-.889.722c-1.879 1.836-3.102 5.183-3.402 8.74-.301 3.543.307 7.322 2.084 10.043.336.516.716.996 1.137 1.427 2.272 2.323 4.264 4.831 5.663 7.736 1.394 2.894 2.204 6.196 2.123 10.123l-.007.4.393.074c7.993 1.502 14.416 4.379 18.902 8.944 4.473 4.55 7.038 10.802 7.335 19.069l-.823 24.193a530.45 530.45 0 0 1-6.797-2.264C4.73 16.54 3.55 6.704 0 0" style="fill:#acbfda;fill-opacity:1;fill-rule:nonzero;stroke:none" transform="translate(461.716 295.411)"/><path d="M0 0c-1.17-1.488-2.484-2.71-3.889-3.627-.118-.817-.091-1.555.081-2.212.172-.652.49-1.232.951-1.738l1.402-1.322c.787-.577 1.229-1.262 1.329-2.054.096-.778-.149-1.634-.737-2.565l-.039-.061-.055-.046-4.086-3.507-.614.72 4.032 3.461c.439.713.624 1.342.557 1.883-.066.53-.391 1.006-.973 1.425l-.03.022-.018.017-1.418 1.337-.021.024A5.056 5.056 0 0 0-4.725-6.08a6.017 6.017 0 0 0-.174 1.854 12.504 12.504 0 0 0-1.476-.668c-2.36-.885-4.857-.955-7.27-.07-1.111.407-2.205 1.019-3.255 1.846l-.532.418.577.357c2.249 1.391 3.792 2.999 4.658 4.811.86 1.8 1.059 3.822.628 6.053l-.006.031a16.652 16.652 0 0 0 .258 5.585c.387 1.79 1.06 3.525 1.963 5.215l.834-.446c-.86-1.608-1.501-3.261-1.87-4.969a15.757 15.757 0 0 1-.244-5.265c.464-2.42.238-4.628-.711-6.612-.867-1.814-2.336-3.429-4.43-4.833a10.548 10.548 0 0 1 2.458-1.3c2.191-.804 4.463-.74 6.612.066 2.172.815 4.226 2.389 5.96 4.592C.564 2.25 1.689 4.274 2.543 6.602l.891-.328C2.546 3.854 1.37 1.741 0 0m-11.095-10.456c-2.015.712-3.806.969-5.37.77a6.838 6.838 0 0 1-3.984-1.917l-.656.682a7.75 7.75 0 0 0 4.521 2.173c1.715.218 3.65-.054 5.804-.815zm-4.826 55.71c-2.793 3.484-6.067 6.127-9.641 8.248 6.085-1.098 12.116-1.568 18.23-1.579-3.644-1.834-6.507-4.057-8.589-6.669M14.998-7.862c1.535 2.817 2.503 5.633 2.95 8.446.448 2.81.375 5.623-.164 8.437l.931.178c.559-2.918.633-5.841.167-8.763-.415-2.612-1.264-5.222-2.574-7.83A565.077 565.077 0 0 0 34.452.102c.467 2.703.531 5.075.192 7.115-.321 1.928-1.001 3.56-2.043 4.896a11.957 11.957 0 0 0-2.536-.128c-1.6.079-3.314.43-5.012.986-5.068 1.657-10.062 5.167-11.611 8.754-.176 1.133.301.855.871.375 1.445-3.343 6.193-6.646 11.034-8.229 1.624-.531 3.252-.865 4.762-.94 1.486-.074 2.857.105 3.992.595 1.141.494 2.05 1.312 2.595 2.522-2.599.288-4.55 1.583-5.944 3.733-1.386 2.138-2.207 5.123-2.564 8.804-1.36.078-2.774.379-4.126.881-2.734 1.015-5.235 2.867-6.572 5.388-.216.952.063 1.099.838.441 1.221-2.302 3.53-4.001 6.065-4.942 1.458-.542 2.987-.832 4.422-.84 1.415-.009 2.738.256 3.805.822.867.459 1.568 1.122 2.009 2.004-1.562.599-2.873 1.539-3.898 2.866-1.116 1.447-1.882 3.349-2.248 5.767l-.007.052.003.055c.264 3.32-.705 4.798-1.673 6.275l-.147.223c-1.28 1.131-2.576 2.201-3.924 3.029h.001c-.975.6-1.976 1.069-3.016 1.336.439-1.317.541-3.133.056-5.617-.434-.559-.745-.5-.93.181.521 2.669.327 4.459-.224 5.64l-.06.008.01.096-.009.016c-.112.221-.235.42-.366.591h-.001a3.325 3.325 0 0 1-.425.466l-.017.015-.005.004-.133.133-.005.193-.153 7.409c-.97-.815-1.912-1.486-2.82-1.981-1.184-.645-2.322-.993-3.396-.977l-.425.006-.04.424-.463 4.944a18.94 18.94 0 0 0-1.989-.776 12.11 12.11 0 0 0-2.645-.562l-.06-.006-.062.012c-1.451.254-2.709.079-3.805-.457v-.001C.642 61.16-.32 60.244-1.158 59.025l-.132-.191-.231-.013c-2.693-.15-5.393-.222-8.098-.177-2.713.045-5.417.21-8.11.53-2.375.282-5.139-.673-6.834-2.775a6.94 6.94 0 0 1-.857-1.354v.001a7.305 7.305 0 0 1-.549-1.613l-.006-.032-.08-.367-.378-.005c-3.112-.041-6.086-.309-8.688-1.125-2.559-.801-4.761-2.14-6.379-4.325-.692-.934-1.068-2.016-1.093-2.989-.014-.596.104-1.148.361-1.587h.002a2.04 2.04 0 0 1 1.153-.921h.002c.64-.21 1.497-.202 2.584.116l.72.211-.12-.739c-.261-1.624-.27-3.178.123-4.611.387-1.407 1.17-2.713 2.493-3.88.725-.461 1.446-.892 2.101-.911.623-.019 1.268.35 1.949 1.472l.056.092.083.057c2.226 1.501 4.459 2.638 6.701 3.325 2.256.691 4.515.924 6.776.611l.053-.008.052-.019c2.899-1.117 4.689-3.136 5.255-6.149.549-2.925-.082-6.786-2.004-11.665l-.018-.047-.029-.041c-1.868-2.83-3.168-2.072-4.468-1.315l-.195.113-.024.015-.028.02-2.248 1.731c-2.732 1.458-4.695 1.889-6.238 1.762h-.002c-1.519-.125-2.663-.806-3.746-1.574-1.537-1.088-2.71-2.245-3.192-3.525-.448-1.185-.294-2.517.727-4.055 1.568-.091 3.221-.036 4.932.118 1.795.161 4.443.792 6.365 1.126.638.027.889-.178.289-.892-2.716-1.337-5.508-3.436-6.832-5.58-1.325-2.144-1.963-4.705-1.914-7.682l.001-.036-.005-.033c-.346-2.586-1.187-4.318-2.389-5.427-.97-.895-2.159-1.378-3.504-1.566 1.841-1.742 3.597-2.786 5.275-3.185 1.853-.439 3.629-.085 5.331.987.974.228 1.142-.039.504-.8-1.925-1.213-3.94-1.612-6.053-1.11-2.07.491-4.222 1.853-6.458 4.163l-.74.765 1.065.038c1.554.054 2.909.453 3.939 1.404 1.038.959 1.773 2.496 2.089 4.823-.038 2.566.413 4.849 1.349 6.848-3.681-.358-7.297-2.935-9.904-6.891-2.611-3.961-4.205-9.297-3.859-15.178l4.179 1.082.009.004c3.025.718 5.757 1.164 8.124 1.273 2.399.112 4.427-.123 6.011-.769.996-.664.877-.957-.356-.879-1.456.594-3.352.808-5.614.703-2.294-.106-4.967-.545-7.946-1.252l-.001.001-10.156-2.63-.008-.002a20.894 20.894 0 0 1-4.633-1.733c-1.378-.71-2.614-1.53-3.785-2.4l-.032-.021a8.602 8.602 0 0 0-3.429-1.26c-1.123-.153-2.24-.08-3.353.135-2.251-.049-4.456.346-6.62 1.111-2.17.768-4.302 1.913-6.398 3.362l-.035.023-.023.022c-.957.914-2.006 1.402-3.119 1.58-1.128.178-2.339.044-3.6-.285-1.836-.715-3.169-1.406-3.996-2.071-.48-.386-.775-.748-.882-1.085-.09-.283-.039-.568.155-.854.157-.233.405-.471.74-.71a17.261 17.261 0 0 0 2.073-.585v-.001c1.735-.611 3.11-1.418 3.772-2.071l-.663-.674c-.578.569-1.823 1.29-3.422 1.852h-.002a15.572 15.572 0 0 1-2.03.57l-.012.001-.095.02-.08.056-.142.099c-.247.01-.482.014-.704.009a7.71 7.71 0 0 1-.767-.055h-.002c-1.166-.135-1.986-.525-2.46-1.166-1.753-2.724-2.644-5.23-2.156-7.38.485-2.134 2.359-3.978 6.142-5.417l.62-.236-.425-.51c-1.206-1.452-1.552-2.963-1.321-4.283a4.65 4.65 0 0 1 1.018-2.168 4.85 4.85 0 0 1 1.933-1.399c1.215-.479 2.658-.465 4.048.296 1.141.968 2.478 1.861 4.572 2.449 2.081.584 4.91.866 9.047.616l.09-.006.08-.037c.879-.407 1.736-.691 2.694-.623.972.068 2.087.498 3.491 1.519v-.001l.004.004c.159.116.392.276.631.44.822.567 1.771 1.221 2.612 2.221l.059.069.075.041c.914.505 1.829.852 2.742 1.081a13.61 13.61 0 0 0 2.724.381h.039l12.404-.524C-24.324-26.549-5.098-16.741 15.104-7.921z" style="fill:#acbfda;fill-opacity:1;fill-rule:nonzero;stroke:none" transform="translate(406.781 350.767)"/><path d="M0 0c-.496 2.644-2.068 4.424-4.613 5.42-1.27.17-2.542.155-3.815-.024A12.538 12.538 0 0 0-6.669-.168c2.305-.43 4.584-1.059 6.845-1.823A11.016 11.016 0 0 1 0 0" style="fill:#acbfda;fill-opacity:1;fill-rule:nonzero;stroke:none" transform="translate(393.602 382.241)"/><path d="m0 0 .036-.02.03-.023 2.252-1.733.171-.1c.907-.528 1.817-1.057 3.175.976.317.807.6 1.585.845 2.333-2.107.984-4.217 1.752-6.33 2.26A30.185 30.185 0 0 0-.944.479C-.639.332-.323.173 0 0" style="fill:#acbfda;fill-opacity:1;fill-rule:nonzero;stroke:none" transform="translate(385.999 372.043)"/><path d="m0 0 .041-.001.01-.001a116.12 116.12 0 0 0 3.97-.557 58.615 58.615 0 0 0 2.443-.443 8.585 8.585 0 0 0-1.988 3.566c-.375 1.364-.42 2.809-.244 4.306-.972-.194-1.789-.15-2.449.067A2.972 2.972 0 0 0 .105 8.279l.002.001-.076.139C-.3 6.655-.67 4.872-1.212 2.995l-.004-.012c-.305-.954-.419-1.744-.226-2.267C-1.28.276-.834.015 0 0" style="fill:#595959;fill-opacity:1;fill-rule:nonzero;stroke:none" transform="translate(363.626 385.012)"/><path d="m0 0 .288-.274-.222-.333c-1.276-1.912-1.954-3.997-2.02-5.99-.063-1.85.401-3.624 1.396-5.102.996-1.477 2.53-2.665 4.604-3.346 2.325-.764 5.33-.896 9.026-.102l.026.002c2.263.355 4.389.096 6.454-.691 2.044-.778 4.024-2.075 6.023-3.806 3.387-2.932 7.007-5.329 10.91-6.896 3.857-1.55 8.426-2.284 12.908-1.94.446 4.308 1.885 8.184 3.917 11.266 1.263 1.918 2.759 3.53 4.39 4.753-2.375 1.212-4.922 2.175-7.622 2.906-2.76.747-5.675 1.255-8.731 1.543l-.078.007-.074.034c-2.509 1.148-4.914 2.32-7.073 3.544-2.174 1.233-4.108 2.524-5.665 3.903l-.063.056-.04.075c-1.058 1.98-2.156 3.545-3.279 4.845-1.117 1.292-2.263 2.326-3.423 3.246a58.593 58.593 0 0 1-3.72 2.317 33.672 33.672 0 0 1-3.696 1.829c-.14.039-.272.061-.391.066a.873.873 0 0 1-.611-.183c-.168-.138-.292-.354-.37-.623a2.74 2.74 0 0 1-.097-.641l-.119.006c.98-1.219 1.831-2.645 2.536-4.313l-.871-.367c-.776 1.836-1.738 3.362-2.854 4.624a14.536 14.536 0 0 1-3.778 3.046l-.033.018c-1.743 1.172-3.89 1.37-5.954.55a8.134 8.134 0 0 1-1.211-.604 9.375 9.375 0 0 1-1.176-.848v-.002l-.031-.024c-.33-.281-.632-.566-.905-.853-1.503-1.579-2.17-3.276-2.091-5.005.08-1.748.92-3.555 2.429-5.333C-.904.904-.472.449 0 0" style="fill:#acbfda;fill-opacity:1;fill-rule:nonzero;stroke:none" transform="translate(312.308 368.635)"/><path d="M0 0v-.002c1.262-1.8 3.439-2.972 6.091-3.363 2.699-.399 5.882.012 9.1 1.389A22.45 22.45 0 0 1 19.267.302l.028.02c4.276 2.528 8.529 3.601 12.762 3.54 4.043-.058 8.057-1.154 12.05-3.006.539 1.809.854 3.432.953 4.878-3.743 1.286-7.532 2.201-11.402 2.429-3.904.23-7.898-.242-12.018-1.743l-.034-.012v-.001a39.609 39.609 0 0 0-2.779-.947 35.82 35.82 0 0 0-2.723-.702c-4.639-.999-8.72-.807-10.629.883l-.028.024-.011.013C3.868 7.416 2.384 8.237 1.183 8.336h-.002c-.585.048-1.101-.08-1.515-.359-.421-.285-.75-.729-.958-1.307-.465-1.286-.342-3.2.641-5.501C-.474.755-.255.363 0 0" style="fill:#acbfda;fill-opacity:1;fill-rule:nonzero;stroke:none" transform="translate(348.684 373.53)"/></g></svg>