<svg xmlns="http://www.w3.org/2000/svg" xmlns:xlink="http://www.w3.org/1999/xlink" xml:space="preserve" width="250" height="170"><defs><linearGradient id="b"><stop offset="0" style="stop-color:#c59a17;stop-opacity:1"/><stop offset="0.5" style="stop-color:#d7a819;stop-opacity:1"/><stop offset="1" style="stop-color:#dbab19;stop-opacity:1"/></linearGradient><linearGradient id="a"><stop offset="0" style="stop-color:#d7d7d7;stop-opacity:1"/><stop offset="0.40000001" style="stop-color:#fff;stop-opacity:1"/><stop offset="1" style="stop-color:#fff;stop-opacity:1"/></linearGradient><linearGradient xlink:href="#b" id="d" x1="8.7639513" x2="184.51224" y1="128.98997" y2="128.98997" gradientTransform="matrix(1.39404 0 0 -1.40795 -9.717 217.01)" gradientUnits="userSpaceOnUse"/><linearGradient xlink:href="#a" id="c" x1="65.453522" x2="123.87615" y1="73.356483" y2="73.356483" gradientTransform="matrix(1.39404 0 0 -1.40795 -9.717 217.01)" gradientUnits="userSpaceOnUse"/></defs><path d="M139.394 60.873h25.333v55.826s.994 38.193-41.89 50.801c0 0-38.723-7.857-43.066-50.07V61.147h19.723l39.9-.274" style="fill:#15366f;fill-opacity:1;fill-rule:evenodd;stroke:none"/><path d="M138.684 62.62h24.285v53.516s.954 36.612-40.158 48.7c0 0-37.12-7.532-41.284-47.998V62.883h18.909l38.248-.264" style="fill:url(#c);fill-opacity:1;fill-rule:evenodd;stroke:none"/><path d="M135.924 89.4h20.207v26.331s.795 30.466-33.414 40.523c0 0-30.888-6.268-34.352-39.94V89.438h15.733l31.826-.037" style="fill:#15366f;fill-opacity:1;fill-rule:evenodd;stroke:none"/><path d="M135.245 91.059h19.206v25.025s.754 28.953-31.757 38.512c0 0-29.355-5.958-32.647-37.958V91.093h14.951l30.247-.034" style="fill:#87d8f7;fill-opacity:1;fill-rule:evenodd;stroke:none"/><path d="M110.181 84.092c.38-.047.66-.144.842-.289.182-.144.333-.44.452-.89l1.957-7.38c.056-.21.098-.383.124-.523.031-.144.047-.27.047-.378 0-.277-.076-.451-.226-.521-.152-.076-.466-.134-.944-.177v-.425h5.066v.425c-.556.06-.93.15-1.123.273-.192.117-.353.42-.482.907l-2.073 7.854c-.02.085-.039.166-.055.241-.01.075-.015.164-.015.266 0 .182.078.312.233.393.156.075.374.112.655.112 1.096 0 2.042-.193 2.836-.578.802-.386 1.505-1.105 2.112-2.161l.382.073-.935 3.197h-8.853v-.419M130.73 84.037l7.97-9.95h-1.263c-1.031.027-1.925.292-2.68.795-.49.327-1.04.868-1.647 1.622l-.44-.064 1.183-2.931h7.612l-.043.482-7.957 9.95h1.153c.912 0 1.683-.113 2.313-.338 1.149-.412 2.093-1.199 2.826-2.36l.431.072-1.247 3.196h-8.253l.042-.474M140.502 84.092c.385-.047.673-.144.859-.289.185-.144.338-.44.46-.89l1.996-7.38c.06-.21.1-.383.127-.523a1.72 1.72 0 0 0 .049-.378c0-.277-.079-.451-.232-.521-.153-.076-.474-.134-.962-.177v-.425h4.844v.425c-.399.054-.688.15-.868.289-.174.14-.323.437-.444.89l-2.005 7.382-.127.57-.031.168a1.165 1.165 0 0 0-.008.153c0 .279.073.456.222.53.147.075.469.134.962.176v.419H140.5v-.419" style="fill:#15366f;fill-opacity:1;fill-rule:evenodd;stroke:none"/><path d="m111.46 91.036 22.73-.003v58.728-.066s-5.358 3.427-11.555 4.843c0 0-6.47-1.552-11.174-4.522v-58.98" style="fill:#fff;fill-opacity:1;fill-rule:evenodd;stroke:none"/><path d="m87.772 84.753.841-3.674.466.031c-.004.524.014.906.056 1.146.072.4.23.755.473 1.064.223.284.483.5.779.65.302.143.635.216 1 .216.65 0 1.167-.209 1.55-.625a2.35 2.35 0 0 0 .64-1.465c.049-.689-.555-1.558-1.809-2.61-1.25-1.1-1.844-2.116-1.778-3.051.06-.88.402-1.63 1.027-2.25.63-.618 1.468-.927 2.514-.927a4.697 4.697 0 0 1 1.412.223l.402.137c.088.026.18.05.272.071.094.016.18.025.252.025.191 0 .34-.04.446-.12.104-.08.199-.179.281-.297h.484l-.885 3.283-.425-.057-.018-.535c-.034-.507-.16-.943-.377-1.306-.34-.57-.877-.857-1.606-.857-.625 0-1.094.23-1.411.69-.212.303-.33.632-.354.984-.025.374.05.705.224.993.101.16.255.334.464.52l1.323 1.161c.469.41.858.88 1.17 1.409.314.522.447 1.12.4 1.793-.06.865-.453 1.646-1.177 2.346-.719.694-1.667 1.04-2.846 1.04-.297 0-.594-.029-.89-.088a4.918 4.918 0 0 1-.864-.24l-.401-.152a2.156 2.156 0 0 0-.279-.096.624.624 0 0 0-.181-.024c-.18 0-.313.046-.398.136a2.1 2.1 0 0 0-.285.456h-.492M95.637 82.688c.255-.235.545-.351.873-.353.333 0 .607.12.823.36.222.236.322.52.298.85a1.273 1.273 0 0 1-.417.864c-.248.235-.54.352-.873.352-.327 0-.601-.117-.823-.352a1.124 1.124 0 0 1-.289-.864 1.26 1.26 0 0 1 .408-.857M97.963 84.754l.84-3.675.467.032c-.005.523.013.906.055 1.146.072.4.23.755.473 1.064.223.283.483.499.78.649.301.144.634.215 1 .215.65 0 1.166-.207 1.55-.623.387-.422.601-.91.639-1.465.048-.69-.555-1.559-1.809-2.611-1.25-1.1-1.844-2.116-1.778-3.05.06-.88.404-1.63 1.027-2.25.63-.619 1.468-.927 2.514-.929.29 0 .587.03.89.09.198.037.371.082.522.135l.402.137c.088.026.18.05.274.071.092.016.177.024.252.024.19 0 .337-.04.444-.119.106-.08.199-.18.281-.297h.484l-.885 3.283-.424-.056-.02-.537c-.033-.507-.159-.942-.376-1.305-.34-.57-.877-.857-1.606-.857-.623 0-1.094.23-1.411.689-.21.304-.33.633-.353.985-.026.373.048.704.225.992.1.16.253.334.462.52l1.323 1.162c.469.41.858.88 1.172 1.41.312.522.446 1.12.399 1.792-.06.865-.452 1.646-1.178 2.346-.719.694-1.667 1.04-2.846 1.04-.296 0-.592-.029-.89-.087a5.03 5.03 0 0 1-.863-.242l-.402-.151a1.848 1.848 0 0 0-.279-.097.62.62 0 0 0-.18-.024c-.18 0-.312.045-.399.136a2.1 2.1 0 0 0-.285.457h-.49M106.35 82.688c.253-.235.545-.353.872-.353.334 0 .608.12.824.36.22.236.321.52.298.85a1.273 1.273 0 0 1-.417.864c-.248.235-.54.352-.873.352-.328 0-.601-.117-.823-.352a1.124 1.124 0 0 1-.29-.864c.024-.337.16-.622.409-.857M149.392 75.746c1.42-1.681 3.012-2.521 4.77-2.522 1.172.001 2.135.356 2.888 1.067.751.713 1.129 1.677 1.129 2.893 0 1.772-.665 3.455-1.996 5.05-1.422 1.71-3.054 2.562-4.9 2.562-1.16 0-2.106-.355-2.838-1.068-.726-.717-1.089-1.672-1.089-2.867 0-1.798.679-3.503 2.036-5.115zm.501 7.492c.26.659.732.988 1.416.988.64 0 1.224-.238 1.75-.714.524-.482 1.067-1.398 1.628-2.747.355-.852.634-1.748.835-2.69.201-.943.302-1.704.303-2.29 0-.55-.135-1.02-.406-1.413-.27-.396-.691-.593-1.264-.594-1.351 0-2.488 1.213-3.411 3.638-.7 1.841-1.05 3.375-1.05 4.601 0 .477.066.883.2 1.221M126.684 80.552l-.05-4-2.964 3.999 3.014.001zm-7.253 3.677c.314-.09.55-.19.71-.297.233-.155.509-.443.828-.867l7.382-9.669h.421l.256 9.404c.019.632.092 1.019.221 1.164.128.14.442.228.941.265l-.055.394h-4.937l.055-.394c.47-.037.809-.112 1.016-.225.212-.118.344-.358.394-.722a9.76 9.76 0 0 0 .035-.883c.003-.097.005-.495.007-1.198h-3.507l-1.186 1.671a3.463 3.463 0 0 0-.225.369 1.242 1.242 0 0 0-.125.387c-.032.224.014.369.138.433.13.064.405.12.829.168l-.055.394h-3.198l.055-.394" style="fill:#15366f;fill-opacity:1;fill-rule:evenodd;stroke:none"/><path d="m98.663 61.45-.86-.498s-1.744-.127-3.77-2.174c0 0 5.01-1.651 6.36-3.403 0 0-1.544-.488-1.833-1.268 0 0 4.819-1.456 5.3-2.43 0 0-10.123-2.054-11.862-5.853 0 0-5.494-.102-7.426-3.61-1.93-3.507-.192-.194-.192-.194s-3.566.872-5.69-2.83c0 0-3.855-.003-5.786-2.926 0 0-6.363-.882-8.485-3.708 0 0-7.713-1.175-11.283-4.977-3.57-3.801 0-.194 0-.194s-4.723-.004-8.1-3.707c0 0-7.135-.396-10.994-5.366 0 0-9.159-1.274-13.212-6.73 0 0-8.677-1.079-13.885-5.27-5.209-4.193-4.4-3.802-4.4-3.802l82.066.068s16.678-1.014 26.849 11.638c10.169 12.652 21.288 5.961 26.739 1.427C143.65 11.11 148.564 2.684 166.854 2.7l80.646.066s-5.664 6.263-19.033 9.278c0 0-5.13 5.615-13.578 6.796 0 0-2.67 3.889-12.189 5.825 0 0-2.457 3.457-8.553 4.208 0 0-2.35 3.78-8.767 3.883-6.417.102-.215.107-.215.107s-2.99 4.862-10.05 5.396c-7.058.535-.213-.001-.213-.001s-1.496 1.944-6.415 2.913c-4.92.969-.322 0-.322 0s-.853 2.7-6.414 3.236c-5.562.536-.429.108-.429.108s-.639 1.62-3.742 2.05c-3.1.43 0 0 0 0s-5.13 5.4-13.257 6.366c0 0-.457 2.389-5.055 5.735 0 0 1.213 1.782 1.311 3.632v-.069s.414-1.552-.137.931c-.552 2.484-5.391 4.653-5.391 4.653 3.008-5.15-.311-5.65-.311-5.65.74 2.98-5.466 5.334-5.466 5.334 2.947-4.033-.25-5.588-.25-5.588.924 4.037-5.896 5.149-5.896 5.149 3.623-4.467-1.048-5.79-1.048-5.79l-4.364-.003c.372 5.526-6.387 6.902-6.387 6.902 3.561-5.09-.065-5.776-.065-5.776.8 3.726-4.913 5.646-4.913 5.646 2.823-5.524-1.05-6.147-1.05-6.147 1.603 4.348-7.368 7.072-6.078 6.266s2.27-4.345 2.27-4.345c.983-1.303-2.83-2.362-2.83-2.362" style="fill:url(#d);fill-opacity:1;fill-rule:evenodd;stroke:none"/><path d="M47.142 4.513s1.353 2.44 4.929 3.905H23.559s-12.468.195-15.85-3.905h39.433M61.62 12.127s1.353 2.283 4.93 3.749H40.667s-12.468.35-15.85-3.75H61.62M73.992 18.765s1.354 1.893 4.93 3.358H53.038s-12.178.351-15.85-3.358h36.804M82.42 23.938s1.354 1.034 4.93 2.499H64.635s-12.274.33-15.85-2.5H82.42M91.506 28.72s.503.644 4.078 2.11H73.721s-12.274.721-15.85-2.11h33.635M98.774 32.722s.039.644 3.614 2.108H82.613s-12.274.722-15.85-2.108h32.01M107.588 36.724s-1.508.176 2.07 1.64h-18.54s-10.921.215-15.54-1.64h32.01M109.367 39.965s1.468-.605-1.1 1.639h-11.04s-10.922.215-15.542-1.64h27.682M107.165 43.38s1.468-.917-1.102 1.329h-2.843s-10.922.526-15.542-1.328h19.487M104.537 45.997s1.468-.918-1.1 1.328h-2.844s-2.96.527-7.58-1.328h11.524M202.558 4.513s-1.354 2.44-4.93 3.905h28.512s12.47.195 15.851-3.905h-39.433M188.078 12.127s-1.352 2.283-4.928 3.749h25.882s12.47.35 15.852-3.75h-36.806M175.707 18.765s-1.352 1.893-4.93 3.358h25.886s12.176.351 15.85-3.358h-36.806M167.279 23.938s1.025.345 1.025 2.263l16.76.002s12.274.565 15.85-2.265h-33.635M148.23 41.101s.135-.951-.942 1.224l4.038.074s10.92.526 15.541-1.328l-18.636.03M145.673 46.538s-1.979-.912.591 1.333h2.844s2.957.527 7.578-1.328l-11.013-.005" style="fill:#fff;fill-opacity:1;fill-rule:evenodd;stroke:none"/><path d="M126.294 22.751h34.453s4.98-.408 5.518 3.806c0 0 .404.951-.942 1.087-1.347.136-13.996 0-13.996 0l-1.211 1.496h9.42s1.614-.136 1.48 1.495l5.922-2.583h5.922s6.864-.544 6.056 7.204c0 0-.943-3.399-5.922-3.399h-13.728l-1.211 1.496 15.478.136s3.363.272 4.171 2.719H156.44s-1.076-1.36-3.903-.272c-2.825 1.088-.27 0-.27 0s-6.728 4.35-9.958 3.807c-3.23-.545-4.038-2.311-2.288-4.079 0 0-7.67.816-1.885-3.263 0 0-4.171-1.494 3.096-5.027h-7.402s-4.845-.41-6.864-3.263c-2.018-2.856-.672-1.36-.672-1.36" style="fill:#fff;fill-opacity:1;fill-rule:evenodd;stroke:none"/><path d="M152.898 37.944s-.36-.376-2.648 1.328h6.593s13.19 1.013 15.542-1.328h-19.487M178.972 28.463s-.325-.275 1.1 2.185h6.316s3.429-.285 5.963-2.185h-13.379M146.348 43.474s.134-.951-.943 1.224l.537.074s12.651.95 15.54-1.255l-15.134-.043M180.8 32.673l-.136 1.632s2.962-.816 2.558-1.632H180.8M55.772 7.392s-4.306-.591-5.248-2.879h37.548s11.978.432 20.995 9.81c9.017 9.38 11.035 8.292 15.208 8.7l1.885 2.991s-2.423.543-5.922-1.087H90.494s-3.902 0-4.845-1.496h31.359s-2.693-1.088-4.172-2.583H84.304s-5.921.272-6.863-2.038h32.164s-1.345-2.855-5.114-4.622H69.096s-3.364-.135-4.44-2.175h37.681s-4.306-3.669-9.016-4.62H55.772M97.896 29.956s-2.423-.544-3.363-1.496h28.261s3.096-1.766 5.115-1.086c0 0 1.884 1.222 2.691.95 0 0-3.365 3.67-11.17 3.263 0 0 .135-1.224 1.345-1.768l-22.879.137M132.216 28.596h4.44s-.134 2.583-6.46 2.311l2.02-2.311M135.176 31.723s-2.018 1.088-3.902.95c0 0-.674 1.225-3.231 2.72 0 0 4.576 1.631 7.94-2.854l-.807-.816M128.447 31.315s-3.095 1.496-5.383 1.224c0 0-1.077 2.037-2.691 3.125 0 0 5.383 1.496 9.42-3.398l-1.346-.951M134.638 35.528s-1.616.816-3.095 1.088c-1.48.272-.27.136-.27.136s-.269 1.36-1.884 2.038c0 0 3.904 2.447 7.268-1.358 0 0-1.885-.816-1.885-1.496s-.134-.408-.134-.408M126.832 36.344s-2.96.952-3.903.816c0 0-.27 1.358-2.019 1.902-1.749.544-.268 0-.268 0s5.652 2.175 8.612-2.038l-2.422-.68M128.447 39.606s-1.346 1.087-5.114 2.175c0 0 2.827 4.077 10.228-.68 0 0-3.768-.136-4.441-.951s-.673-.544-.673-.544M129.12 44.364s-1.212 1.766-2.826 2.174c-1.615.408-.404.136-.404.136s4.669 1.287 7.67-3.261c1.616-2.448-1.883.815-4.44.951" style="fill:#fff;fill-opacity:1;fill-rule:evenodd;stroke:none"/><path d="M126.562 44.499s-3.498.137-3.902-1.496c0 0-2.558 1.361-4.172 1.09-1.615-.273-.269 0-.269 0s-.404 1.359-1.885 2.173c0 0 4.846 2.447 8.882-.68 4.038-3.125 1.346-1.087 1.346-1.087M119.027 39.742s1.21.815 3.498.951c0 0-2.019 3.127-7.805 1.768-5.787-1.36-.269-.136-.269-.136s1.48-.952 1.883-1.632c0 0 1.616-.408 2.154-.68l.539-.271M119.027 36.208s.404.952 2.019.68c0 0-2.423 3.262-8.48 2.447-6.056-.816-.269-.137-.269-.137s2.962-1.494 3.634-2.582l3.096-.408" style="fill:#fff;fill-opacity:1;fill-rule:evenodd;stroke:none"/><path d="M111.086 40.285s2.556.952 2.961.68c0 0-1.211 1.224-4.307 1.632-3.095.406-.27 0-.27 0l1.616-2.312M112.97 43.14s2.153 1.359 3.23 1.088c0 0-.27 3.398-9.555 2.038-9.287-1.36-.27-.136-.27-.136s4.71-1.902 5.653-2.582c.942-.68.942-.408.942-.408M120.238 32.673s.404 2.583-5.518 3.127c-5.923.544-.27 0-.27 0l1.077-1.902h-11.844s-2.287-.545-2.69-1.225h19.245M109.201 36.48h3.365s.218.834-1.345 1.36l-2.02-1.36M101.666 54.694s4.71-2.04 9.15-5.302c0 0 6.46-4.35 8.615-.679 2.152 3.67-10.095 6.525-10.095 6.525l-7.67-.544M101.666 56.19s6.056 1.222 8.343.271c0 0-5.787 4.622-12.651 2.99-6.864-1.631 0-.272 0-.272s2.02-.951 3.5-2.175c1.48-1.222.808-.815.808-.815M100.32 61.354s4.575-2.175 2.287 1.359l-2.287-1.359M105.568 61.762s5.114-3.534 3.095.95c0 0-1.21-1.358-2.018-.814-.808.544-.27 0-.27 0l-.807-.136M111.22 61.898s4.441-2.31 3.23 1.088c0 0-.672-1.088-2.153-.816l-1.076-.272M126.024 54.558s9.018-5.029 10.363-6.66c0 0 4.307-4.486 6.999-1.496 2.691 2.991-6.19 7.205-7.806 7.748-1.615.544-9.556.408-9.556.408M125.487 55.646s5.787 1.358 9.824 0c0 0-4.172 5.708-15.209 3.397 0 0 3.23-1.36 4.442-2.582 1.212-1.223.943-.815.943-.815M123.871 61.219s4.576-2.176 2.289 1.358l-2.289-1.358M129.524 61.626s5.114-3.534 3.095.951c0 0-1.21-1.358-2.019-.815-.807.544-.27 0-.27 0l-.806-.136M134.772 61.762s5.518-2.855 3.23 1.087c0 0-.672-1.087-2.153-.816l-1.077-.27M132.715 21.785s6.229-3.535 12.152-9.516c5.92-5.98 14.13-8.338 20.725-7.636h32.839s.807 1.52-4.039 2.88h-34.856s-2.287-1.224-9.824 4.077l35.53.135s-1.481 2.463-6.865 2.735l-31.492-.015-5.787 4.213s27.186-.14 32.419-.006c-2.892 2.229-6.848 2.198-6.848 2.198h-27.994s-2.476 1.264-3.858 1.264c-1.626 0-2.102-.33-2.102-.33" style="fill:#fff;fill-opacity:1;fill-rule:evenodd;stroke:none"/><path d="M146.348 110.221c2.66 0 4.81 2.163 4.81 4.835 0 2.647-2.15 4.81-4.81 4.81-2.672 0-4.835-2.163-4.835-4.81a4.832 4.832 0 0 1 4.835-4.835zm0 .636c-2.353 0-4.071 1.833-4.071 4.199 0 2.342 1.718 4.174 4.071 4.174 2.342 0 4.046-1.832 4.046-4.174 0-2.366-1.704-4.2-4.046-4.2zm.776 3.982c.955.026 1.692.42 1.692 1.477 0 .89-.482 1.425-1.907 1.425h-2.355v-5.383h.662v2.481h1.208l1.54-2.48h.79l-1.63 2.48zm-1.908.522v1.909h1.54c.66 0 1.348-.102 1.348-.942 0-1.094-1.12-.967-1.884-.967h-1.004" style="fill:#87d8f7;fill-opacity:1;fill-rule:evenodd;stroke:none" transform="matrix(1.24417 0 0 -1.24414 -7.067 210.003)"/></svg>