<svg xmlns="http://www.w3.org/2000/svg" xml:space="preserve" width="311" height="322" x="0px" y="0px" version="1.0" viewBox="0 0 480.95 497.255"><path d="M428.179 381.559c31.922-41.259 49.227-91.618 49.227-144.646C477.406 106.278 371.122 0 240.48 0 109.833 0 3.543 106.278 3.543 236.913c0 53.028 17.305 103.388 49.228 144.646L0 416.575v80.681h480.95v-80.681l-52.771-35.016z"/><path fill="#FFED00" d="m12.691 420.132 46.292-30.907a243.073 243.073 0 0 1-3.323-4.017L4.639 419.062v6.426h92.328a241.44 241.44 0 0 1-6.74-5.356H12.691zM425.291 385.208a245.887 245.887 0 0 1-3.284 3.971l46.306 30.953h-77.587a242.917 242.917 0 0 1-6.74 5.356h92.326v-6.426c-.612-.404-21.694-14.394-51.021-33.854z"/><path fill="#E2001A" d="m60.461 390.998-40.2 26.84h67.207a241.656 241.656 0 0 1-14.521-13.361 241.954 241.954 0 0 1-12.486-13.479zM420.529 390.951a240.973 240.973 0 0 1-12.524 13.525c-4.68 4.68-9.53 9.126-14.521 13.361h67.266c-5.024-3.357-35.529-23.75-40.221-26.886z"/><path fill="#FFED00" d="M240.48 4.653c-128.082 0-232.284 104.191-232.284 232.26 0 62.061 24.164 120.401 68.04 164.273a235.158 235.158 0 0 0 28.53 24.303h271.191c58.581-42.214 96.796-111.012 96.796-188.576 0-128.069-104.197-232.26-232.273-232.26z"/><path d="M240.479 9.966c-125.152 0-226.971 101.805-226.971 226.941 0 78.494 40.049 147.804 100.78 188.582h252.377C427.393 384.71 467.44 315.401 467.44 236.907c0-125.136-101.814-226.941-226.961-226.941z"/><path fill="#009EE0" d="M240.479 11.533c-124.288 0-225.404 101.102-225.404 225.374 0 78.798 40.645 148.27 102.059 188.582h246.684c61.411-40.313 102.055-109.784 102.055-188.582.001-124.272-101.111-225.374-225.394-225.374z"/><path d="M240.48 63.749c-95.497 0-173.188 77.679-173.188 173.161 0 95.506 77.692 173.205 173.188 173.205 95.49 0 173.177-77.699 173.177-173.205 0-95.482-77.687-173.161-173.177-173.161z"/><path fill="#FFED00" d="M240.48 65.316c-94.632 0-171.621 76.976-171.621 171.593 0 94.642 76.989 171.639 171.621 171.639 94.626 0 171.61-76.997 171.61-171.639 0-94.617-76.984-171.593-171.61-171.593z"/><path d="M240.48 69.97c-92.066 0-166.967 74.89-166.967 166.942 0 92.074 74.901 166.981 166.967 166.981 92.061 0 166.956-74.907 166.956-166.981 0-92.053-74.895-166.942-166.956-166.942z"/><path fill="#FFF" d="M240.48 76.141c-88.664 0-160.796 72.122-160.796 160.771 0 88.672 72.133 160.812 160.796 160.812 88.657 0 160.786-72.14 160.786-160.812 0-88.65-72.129-160.771-160.786-160.771z"/><path fill="#FFED00" d="M476.311 430.127v62.489H4.639v-62.489h471.672z"/><path d="M11.114 435.51c-.634 0-1.147.514-1.147 1.147v49.428c0 .634.514 1.147 1.147 1.147h458.722c.634 0 1.147-.514 1.147-1.147v-49.428c0-.634-.514-1.147-1.147-1.147H11.114z"/><path fill="#FFF" d="M468.688 437.805v47.133H12.261v-47.133h456.427z"/><path d="M26.421 475.663h5.29l4.011-8.568h14.891l3.967 8.568h5.59l-14.057-28.626h-5.69m-3.078 16.747 5.923-12.613 5.833 12.613H37.345zM64.036 447.037v28.626h5.089v-12.269h8.279c6.511 0 8.034.334 8.423 4.577l.3 3.746c.145 1.699.245 3.01.978 3.945h5.979v-.779c-1.234-.487-1.623-1.556-1.767-3.354l-.388-4.68c-.301-3.065-1.034-4.621-4.313-5.356 3.378-1.21 5.189-3.41 5.189-6.521 0-3.223-1.767-5.601-4.9-6.912-2.344-.978-4.99-1.022-8.223-1.022m-9.601 3.355h8.768c5.723 0 8.667.777 8.667 4.667 0 3.855-2.789 5.066-8.667 5.066h-8.768v-9.733zM107.229 475.663h5.145v-25.126h11.957v-3.5H95.328v3.5h11.901M128.875 475.663h27.336v-3.558h-22.234v-9.588H154.1v-3.357h-20.123v-8.568h21.846v-3.555h-26.948M176.78 475.663h27.381v-3.558h-22.292v-9.588h20.18v-3.357h-20.18v-8.568h21.847v-3.555H176.78M218.706 475.663h5.145v-25.126h11.901v-3.5h-28.991v3.5h11.945M254.698 475.663h24.003v-3.602H259.9v-25.024h-5.202"/><path d="M278.556 475.663h5.335l4.021-8.568h14.891l3.966 8.568h5.58l-14.102-28.626h-5.634m-3.133 16.747 5.922-12.613 5.878 12.613h-11.8zM321.361 472.206v-9.934h9.801c5.778 0 8.566 1.411 8.566 4.822 0 3.313-2.743 5.111-7.979 5.111m-10.388-13.145v-8.757h9.399c4.901 0 7.302 1.356 7.302 4.278 0 3.111-2.545 4.479-7.733 4.479h-8.968zm-5.146 16.603h16.024c8.034 0 12.734-3.413 12.734-8.568 0-3.7-2.701-6.233-7.201-6.868 3.578-1.122 5.434-3.21 5.434-6.233 0-4.622-3.966-6.956-11.8-6.956h-15.191v28.625zM350.063 461.393c0 9.546 6.812 15.047 17.879 15.047 11.113 0 17.879-5.501 17.879-15.047 0-9.59-6.766-15.09-17.879-15.09-11.067 0-17.879 5.5-17.879 15.09m5.29 0c0-7.444 4.844-11.733 12.589-11.733 7.789 0 12.59 4.289 12.59 11.733 0 7.446-4.801 11.689-12.59 11.689-7.745.001-12.589-4.243-12.589-11.689zM392.278 447.037v28.626h5.1v-12.269h8.279c6.512 0 8.034.334 8.424 4.577l.287 3.746c.201 1.699.301 3.01 1.034 3.945h5.923v-.779c-1.223-.487-1.565-1.556-1.767-3.354l-.389-4.68c-.245-3.065-.978-4.621-4.312-5.356 3.434-1.21 5.19-3.41 5.19-6.521 0-3.223-1.712-5.601-4.89-6.912-2.356-.978-4.945-1.022-8.235-1.022m-9.598 3.355h8.767c5.734 0 8.667.777 8.667 4.667 0 3.855-2.788 5.066-8.667 5.066h-8.767v-9.733zM427.159 475.663h27.369v-3.558H432.25v-9.588h20.178v-3.357H432.25v-8.568h21.844v-3.555h-26.935M383.664 258.665l-.001-.153c-.067-4.028-2.73-7.624-7.916-10.689a1.162 1.162 0 0 0-.586-.16h-4.476c4.958-12.468 7.192-19.21 7.192-33.58 0-.625-.499-1.136-1.124-1.151-1.707-.041-3.254-.813-4.892-1.629-1.823-.909-3.707-1.849-5.958-1.849-3.404 0-7.2 1.813-11.22 3.734-8.36 3.994-17.836 8.521-28.21.005a1.151 1.151 0 0 0-1.764.383c-5.718 11.663-14.515 18.173-23.075 24.402-12.393-4.657-25.511-10.763-30.365-14.927 4.83-2.021 7.402-6.172 9.895-10.216 2.743-4.33 4.729-7.465 6.696-12.651 1.34-3.096 2.744-5.711 4.103-8.24 3.189-5.937 5.943-11.063 5.943-19.593 0-3.625 0-10.374-4.486-10.934l-.049.389-.023-.002.04-.391c-4.826-.498-8.682-.768-11.968-.666-10.176-6.349-11.628-20.318-11.628-34.54v-1.361l-1.352-.169c-2.91-.365-4.206.404-5.349 1.083-.213.126-.424.235-.636.347-2.274-10.584-3.462-20.969-3.462-30.912 0-.727.006-1.451.019-2.173l.014-.843-.701-.468c-5.862-3.906-8.856-.941-11.499 1.675-.921.911-1.872 1.853-2.979 2.579-7.288 4.776-9.711 10.759-11.85 16.038-1.281 3.162-2.507 6.169-4.651 8.771-5.065-5.037-14.954-11.132-15.406-11.41l-3.267-2.005 1.35 5.179c.471 1.768.835 3.24 1.15 4.578a239.625 239.625 0 0 1-2.416-4.685c-3.526-6.999-5.823-11.322-8.498-11.989a2.866 2.866 0 0 0-2.409.458c-2.324 1.689-10.078 8.966-15.74 14.279-2.238 2.1-4.521 4.242-5.439 5.063-3.319-.324-7.854-3.935-11.888-7.172-5.13-4.117-9.56-7.672-13.198-6.618l-1.174.34.79 15.507c-2.644 1.86-4.397 5.068-4.397 8.712 0 2.9 1.646 4.532 3.097 5.973.942.934 1.916 1.9 2.598 3.281.047.093.265.538.265.538l.964 2.096c.24.508.468.998.687 1.486-2.086-.779-4.057-1.489-6.15-1.998-1.831-.686-3.838-1.168-6.384-1.168-1.279 0-2.304.415-3.047 1.233-1.574 1.733-1.298 4.599-1.005 7.632l.209 3.114c0 3.828.124 6.937.453 9.879-1.897-.464-4.383-1.248-7.005-2.083l-1.879-.597c-5.08-1.821-9.768-3.408-12.4-2.993l-1.268.2-.034 1.283c-.567 21.374 4.571 42.918 13.746 57.632 4.505 7.229 26.288 14.509 36.268 15.337a20.402 20.402 0 0 0-.789 3.273c-.533 2.065-.743 4.079-.743 6.63 0 2.612 1.161 4.879 3.09 6.423-8.703 9.926-19.86 11.598-29.043 12.971-5.753.859-10.723 1.603-14.379 4.039a1.15 1.15 0 0 0-.283 1.649c7.235 9.654 13.74 19.711 7.06 27.259a1.152 1.152 0 0 0 .351 1.794c1.198.594 2.625 1.093 4.136 1.622 6.73 2.356 15.106 5.29 13.741 19.621a1.151 1.151 0 0 0 1.146 1.261c12.204 0 63.046-5.915 70.927-19.075 1.502-2.514 4.469-4.057 7.61-5.688a98.171 98.171 0 0 0 2.002-1.063c-.046.33-.076.522-.079.542l-.337 2.094 1.939-.857c6.938-3.069 12.812-6.786 17.63-11.116.289.775.442 1.44.442 2.001 0 1.877-1.501 2.77-3.737 4.101-1.354.806-2.89 1.719-4.269 3.026a1.158 1.158 0 0 0-.355.986c.05.366.267.684.594.857l3.293 1.754c4.427 2.319 8.352 4.408 11.556 7.926-22.519-6.16-31.022-.988-40.694 5.037-7.642 4.761-16.303 10.157-34.241 10.157-.417 0-.79.246-.993.611-.094.169-.14.359-.14.551 0 .222.062.444.18.636l2.018 3.255c1.699 2.868 3.51 5.766 6.282 7.883-6.333 2.98-8.793 5.668-11.549 8.732-1.656 1.841-3.367 3.745-6.168 6.017a1.153 1.153 0 0 0 .399 1.998c.872.258 2.358.28 4.239.31 2.169.033 7.932.121 8.065 1.411l.657 7.912c.737 10.187 1.27 17.547 8.389 28.541a1.152 1.152 0 0 0 1.764.204c3.272-3.149 14.748-9.123 19.697-10.061v.22c0 .23.069.456.199.646 3.143 4.628 6.175 7.786 9.269 9.652.353.213.793.221 1.154.021 13.055-7.25 18.813-14.438 21.641-27.796.52 1.09 1.109 2.14 1.716 3.161 1.244 2.097 2.42 4.076 2.712 6.377.055.435.352.801.767.943.414.144.874.038 1.185-.27 4.835-4.786 7.488-14.048 7.488-21.342 0-1.63-.164-3.124-.435-4.485 3.063-2.108 5.01-4.563 6.85-6.956 1.262-1.639 2.481-3.201 4.028-4.636 1.983 6.643 3.21 12.194 3.21 17.76 0 2.666-.311 5.362-.898 8.191-2.979.612-6.445.837-10.151.589a1.153 1.153 0 0 0-1.213 1.333c.978 6.011 2.896 27.447.88 31.813a1.15 1.15 0 0 0 1.348 1.593c3.48-.949 7.016-2.629 10.434-4.253 5.136-2.44 10.446-4.963 15.511-4.963a1.15 1.15 0 0 0 1.149-1.093c.195-3.825.281-7.669.281-11.502 0-13.929-1.135-27.707-2.267-39.963 1.089-1.929 1.56-4.008 1.993-6.027.46-2.147.895-4.175 2.054-5.901 4.105-6.026 8.871-4.71 16.085-2.717 11.435 3.16 27.096 7.487 50.597-14.48l1.614-1.462c3.206-2.85 6.839-6.079 6.839-10.984 0-3.41-3.487-4.032-6.288-4.533-1.896-.338-3.788-.724-4.788-1.72l2.209-1.424c8.673-5.53 23.164-14.759 23.164-24.207zm-187.058 2.834c-4.672-3.406-9.175-6.918-12.8-9.778 1.05.067 2.147.107 3.336.107h12.601l-.065.343c-.347 2.084-.882 5.257-3.072 9.328zm25.057 12.581c-1.055.389-2.531.245-4.301-.294 3.964-3.01 7.576-6.601 10.513-10.919 2.026 3.428 2.995 8.005 3.398 12.564-3.137-1.365-7.112-2.26-9.61-1.351zm55.038 9.967c.316 5.625 1.635 11.306 2.91 16.799 1.447 6.232 2.933 12.629 2.933 18.962 0 .813-.039 1.623-.091 2.434-6.417-10.688-11.103-22.555-15.624-34.076-2.233-5.688-4.543-11.56-7.03-17.212 2.695-4.813 4.539-10.104 5.485-15.879l.146-.773.788.072c5.8.594 11.422.871 16.86.84-3.965 6.051-6.501 13.743-6.501 24.572.001 1.369.041 2.789.124 4.261z"/><path fill="#009036" d="m356.01 283.023 3.25-2.096c8.276-5.271 22.102-14.077 22.102-22.258l-.001-.12c-.053-3.11-2.276-5.995-6.555-8.585h-5.813a1.149 1.149 0 0 1-1.068-1.58c5.174-12.934 7.515-19.47 7.629-33.288-1.724-.276-3.248-1.002-4.719-1.735-1.657-.826-3.222-1.607-4.931-1.607-2.883 0-6.45 1.705-10.228 3.509-8.255 3.944-18.47 8.723-29.542.491-5.672 10.853-13.816 17.261-21.905 23.18 9.158 3.317 17.554 5.691 21.414 5.691l.46 2.206c-11.838 5.166-25.315 7.942-40.229 8.329-4.281 5.932-6.997 13.489-6.997 24.564 0 1.345.04 2.74.122 4.191.305 5.428 1.601 11.01 2.854 16.407 1.479 6.365 2.995 12.896 2.995 19.467 0 2.036-.146 4.076-.483 6.116a1.15 1.15 0 0 1-2.103.436c-7.471-11.592-12.607-24.68-17.576-37.337-2.025-5.162-4.132-10.457-6.354-15.603-1.878 2.912-4.108 5.624-6.666 8.147.65 1.473.97 2.726.97 3.766 0 3.105-2.456 4.566-4.855 5.994a31.604 31.604 0 0 0-2.563 1.691l1.717.915c5.498 2.88 10.69 5.602 14.529 11.374a1.148 1.148 0 0 1-.036 1.326 1.149 1.149 0 0 1-1.26.413c-24.182-7.396-32.542-2.188-42.224 3.844-7.604 4.738-16.212 10.069-33.415 10.467l1.002 1.615c1.97 3.324 3.83 6.465 7.147 8.257.373.201.604.591.604 1.013l-.001.053c-.02.44-.291.832-.697 1.006-7.31 3.129-9.639 5.72-12.589 9-1.208 1.344-2.541 2.821-4.337 4.462.369.009.751.015 1.131.021 4.676.071 9.977.152 10.32 3.479l.663 7.98c.711 9.83 1.249 16.481 7.348 26.327 4.778-3.773 16.728-9.919 21.358-9.919.636 0 1.151.516 1.151 1.151v1.136c2.688 3.91 5.253 6.623 7.813 8.314 13.565-7.676 18.493-14.998 20.8-30.88a1.15 1.15 0 0 1 2.29.157c.021 2.69 1.348 4.926 2.753 7.293.927 1.561 1.859 3.168 2.46 4.953 3.482-4.636 5.412-12.124 5.412-18.07 0-1.741-.165-3.35-.504-4.713a1.15 1.15 0 0 1 .5-1.249c3.128-1.985 4.958-4.363 6.895-6.882 1.617-2.103 3.29-4.277 5.754-6.183a1.15 1.15 0 0 1 1.804.57c2.864 9.262 5.229 18.494 2.725 29.585-.098.43-.432.767-.86.867-2.963.694-6.456.954-10.151.813.613 4.521 1.573 14.438 1.573 22.219 0 2.896-.149 5.436-.483 7.333 2.685-.929 5.434-2.217 8.113-3.489 5.004-2.378 10.17-4.745 15.372-5.064.16-3.464.255-6.94.255-10.412 0-13.958-1.149-27.803-2.287-40.085a1.161 1.161 0 0 1 .166-.71c1.043-1.693 1.458-3.63 1.898-5.681.485-2.265.987-4.607 2.398-6.707 5.036-7.396 11.324-5.658 18.604-3.646 10.91 3.015 25.853 7.144 48.409-13.941l1.659-1.503c2.982-2.65 6.065-5.393 6.065-9.264 0-1.336-1.406-1.733-4.391-2.267-2.802-.501-5.979-1.068-7.094-3.871a1.173 1.173 0 0 1-.084-.436c.001-.373.183-.732.517-.947z"/><path fill="#009036" d="m172.639 250.236.158.021a10.74 10.74 0 0 1-3.333-.879c-9.238 10.816-21.011 12.604-30.69 14.051-4.923.736-9.179 1.438-12.348 3.122 4.27 5.723 9.537 13.17 9.537 20.284 0 2.598-.768 5.139-2.481 7.539.807.324 1.668.643 2.598.968 6.231 2.183 15.429 5.402 15.429 18.852 0 .59-.056 1.241-.093 1.872 15.669-.305 60.974-6.623 67.742-17.926 1.836-3.073 5.236-4.841 8.523-6.55 1.197-.622 2.348-1.226 3.399-1.863.219-2.189.444-5.25.444-8.636 0-.988-.029-2.007-.075-3.034-.124-.063-.24-.13-.368-.191-3.253-1.574-6.883-2.257-8.627-1.623-1.827.673-4.337.308-7.347-.832-19.232 13.126-45.231 13.58-46.624 13.592l-4.348.034 3.761-2.182c15.871-9.205 23.621-17.162 27.539-23.354-4.894-3.574-10.041-7.585-15.173-11.646l-.718-.567c-1.201-.163-2.396-.35-3.646-.548l-3.259-.504z"/><path fill="#009036" d="m266.453 252.083-1.786-.16c-1.199 0-1.37 1.046-1.654 2.779-1.003 6.121-4.072 24.429-29.783 36.624a87.22 87.22 0 0 0 .618-10.195c0-7.115-.984-15.671-4.992-21.007l-1.011-1.346-.887 1.431c-12.882 20.765-42.538 25.252-53.911 26.219 25.879-16.024 27.923-27.989 28.903-33.88l.137-.721h7.404l.287-.121c2.793-1.178 4.86-2.445 7.047-3.786 1.531-.938 3.113-1.909 5.01-2.875 5.393-2.63 10.019-5.281 14.491-7.846 9.921-5.688 18.489-10.601 31.876-13.224.22-.042.424-.098.637-.147 6.986 7.202 37.97 19.806 52.252 22.539-15.622 5.898-33.969 7.833-54.638 5.716z"/><path fill="#E2001A" d="M266.709 127.712c-.85.061-1.382.309-2.042.701-.722.428-1.619.962-3.06 1.262l-1.485.309-.334-1.48c-2.577-11.404-3.88-22.598-3.88-33.31 0-.432.007-.862.011-1.293-3.203-1.859-4.537-.682-6.922 1.679-.98.971-2.093 2.071-3.459 2.967-6.481 4.248-8.616 9.518-10.681 14.615-1.404 3.466-2.867 7.033-5.625 10.142 2.513 4.816 4.756 7.814 7.119 10.952 1.752 2.326 3.564 4.732 5.626 8.036l.041.066.034.07c.44.896 1.274 1.649 2.157 2.448.994.898 2.12 1.917 2.814 3.275 2.635 4.833 3.054 9.165 3.458 13.354.346 3.573.702 7.267 2.4 11.553l.108.274v6.034a87.1 87.1 0 0 1 1.846-1.81l2.535-2.531c8.044-8.671 12.663-12.565 19.48-13.818-9.62-8.506-10.116-23.924-10.141-33.495zM237.475 190.351l.011-.071.017-.069c.023-.095 2.187-9.293-.696-15.01-.374.113-.769.217-1.191.309l-1.79.479c-2.207.608-4.114 1.134-7.068 1.134-7.095 0-12.355-2.425-17.442-4.771-5.005-2.308-9.733-4.487-16.15-4.487-.619 0-.917.22-1.106.411-1.109 1.117-1.227 4.263-1.227 6.774a641.029 641.029 0 0 0 .009 1.986l1.167 15.093v.06c0 8.57-.37 14.739-5.283 22.077l-.926 1.497c-1.398 2.283-2.681 4.372-4.614 5.994 36.05 2.948 54.438-18.744 56.289-31.406zM222.478 163.056c1.866 1.093 3.628 2.126 5.945 2.949.708.26 1.571.375 2.49.429-.766-6.15-2.441-10.278-4.692-15.807 0 0-1.159-2.866-1.16-2.873-.643-1.426-1.512-2.419-2.432-3.47-1.139-1.302-2.317-2.648-2.994-4.702-2.179-5.778-4.008-9.198-6.643-13.816l-.777-1.023c-2.111-2.783-4.196-6.921-6.212-10.924-1.881-3.734-5.008-9.931-6.432-10.348-2.239 1.659-10.11 9.043-15.347 13.958-6.353 5.962-6.353 5.962-7.072 5.962-4.436 0-9.449-4.023-14.298-7.915-3.27-2.624-6.891-5.514-9.216-6.023l.583 11.447a9.012 9.012 0 0 1 2.262-.299c4.092 0 6.755 1.393 9.574 2.867 1.475.771 3 1.568 4.866 2.223l1.126.422c3.551 1.332 6.117 2.294 10.26 3.005 4.177.997 7.203 2.606 10.13 4.162 1.838.977 3.739 1.988 5.929 2.852l2.013.702c2.348.778 4.565 1.514 6.251 3.551 3.488 3.711 4.338 7.341 5.238 11.185.568 2.427 1.164 4.936 2.447 7.803l.106.029c3.372.909 5.753 2.305 8.055 3.654z"/><path fill="#E2001A" d="M240.51 190.902c-.93 6.126-5.299 14.916-14.724 22.256 9.818-5.648 15.219-12.602 16.551-16.606.879-2.656 2.426-5.02 3.921-7.305 1.014-1.549 1.972-3.012 2.728-4.546.378-.769.816-1.483 1.293-2.16h-.373v-8.67c-1.746-4.544-2.137-8.375-2.494-12.07-.393-4.06-.763-7.895-3.114-12.21-.456-.891-1.282-1.637-2.156-2.427-1.01-.914-2.155-1.948-2.856-3.375l.075.136c-1.99-3.19-3.761-5.541-5.473-7.813-2.572-3.415-5.006-6.664-7.805-12.185-2.82-3.206-8.73-7.346-12.459-9.813 1.146 4.504 1.604 7.046 1.604 8.579 0 .261-.016.487-.041.695 2.976 5.193 4.945 8.764 7.358 15.167.502 1.521 1.385 2.53 2.408 3.698.98 1.121 2.091 2.39 2.949 4.297l1.178 2.915c2.396 5.886 4.167 10.239 4.952 17.022 2.349.009 4.519.129 5.883 1.492.744.744 1.121 1.737 1.121 2.953 0 1.164-.498 2.135-1.461 2.912 3.317 6.639 1.108 16.33.935 17.058zM174.443 182.1c-.875-3.781-1.779-7.69-1.779-12.691l-.001-.07c-2.62-2.72-3.232-5.665-3.864-8.779l-.969-4.077-.066-.265v-6.875l.022-.129c.588-3.421 1.812-10.539 7.699-10.539 3.569 0 6.208 1.426 8.759 2.805l1.577.835 3.387 1.625c6 2.815 11.679 5.492 14.375 12.793 2.222.447 4.509.991 7.005 1.639-.807-2.227-1.288-4.251-1.72-6.1-.872-3.725-1.561-6.667-4.545-9.846-1.186-1.429-2.83-1.974-4.912-2.665l-2.157-.753c-2.369-.935-4.348-1.987-6.262-3.004-2.883-1.532-5.605-2.979-9.3-3.865-4.334-.74-7.155-1.798-10.726-3.138l-1.092-.409c-2.048-.718-3.747-1.607-5.246-2.391-2.688-1.405-4.811-2.515-8.145-2.515-3.943 0-6.592 3.787-6.592 7.323 0 1.543.749 2.358 2.184 3.782 1.069 1.061 2.281 2.263 3.223 4.168 0 0 .279.571.286.588l.934 2.03c.859 1.817 1.669 3.536 2.271 5.908 1.52 4.584 1.618 8.174 1.71 11.646.075 2.819.152 5.734.998 9.248.685 2.601.989 4.794 1.283 6.915.364 2.62.707 5.094 1.768 8 .706 1.991 1.902 3.175 3.288 4.545 1.208 1.194 2.576 2.547 3.566 4.506 1.514 2.859 2.774 5.562 3.71 8.399.839-1.899 1.029-3.834 1.029-6.647.002-4.649-.824-8.219-1.698-11.997z"/><path fill="#E2001A" d="m183.167 214.153.97-1.567c4.452-6.65 4.782-12.129 4.784-20.342l-1.166-15.087-.005-1.051c-.003-.375-.005-.759-.005-1.149 0-3.239.185-6.9 2.124-8.853.859-.865 1.999-1.323 3.296-1.323 7.095 0 12.355 2.425 17.442 4.771 5.005 2.308 9.733 4.487 16.15 4.487 2.537 0 4.174-.451 6.248-1.023 0 0 1.851-.496 1.903-.508 2.101-.456 3.041-1.121 3.041-1.577 0-.553-.163-.716-.216-.77-.595-.594-2.704-.593-4.398-.591-2.04.002-4.149.003-5.96-.663-2.576-.914-4.548-2.07-6.457-3.188-2.225-1.304-4.326-2.536-7.304-3.341-11.293-3.108-17.25-4.211-28.194-4.211-3.239 0-6.297 0-8.173 1.91-1.658 1.634-1.669 3.608-1.551 6.959l.055 2.373c0 4.648.825 8.217 1.699 11.996.875 3.781 1.779 7.69 1.779 12.691 0 4.394-.5 7.355-3.011 10.818.488 2.411.755 4.991.755 7.893l.084 2.435c.097 1.804.178 3.544-.347 5.569 3.081-1.278 4.561-3.561 6.457-6.658zM173.358 221.187c.815-2.075.732-3.674.618-5.778l-.089-2.602c0-7.644-1.994-12.944-5.224-19.044-.777-1.536-1.854-2.602-2.995-3.73-1.517-1.5-3.085-3.051-4.022-5.695-1.168-3.201-1.534-5.833-1.92-8.62-.282-2.031-.573-4.131-1.219-6.585-.929-3.86-1.011-6.941-1.09-9.919-.086-3.224-.181-6.289-1.366-10.141-2.194-.719-3.993-1.573-5.578-2.337-2.818-1.359-5.045-2.433-8.59-2.433-.562 0-.713.167-.763.222-.656.723-.403 3.346-.219 5.262l.224 3.41c0 9.521.78 14.43 3.805 23.915 1.214 4.169 2.928 6.655 4.911 9.533 1 1.452 2.034 2.953 3.081 4.777l-2.677 1.535c-.983-1.714-1.98-3.162-2.945-4.562-2.046-2.969-3.979-5.774-5.321-10.384-1.434-4.493-2.376-7.998-2.981-11.429-2.071-.307-5.069-1.353-9.192-2.837-3.752-1.351-8.253-2.965-10.836-3.267-.008.544-.021 1.088-.021 1.632 0 19.739 4.9 39.27 13.32 52.775 3.899 6.255 26.345 13.891 35.244 13.961 1.202-2.755 2.685-5.88 5.541-7.055v-.606c-.001.002.121.002.304.002z"/><path fill="#E2001A" d="m187.897 146.732-3.467-1.664-1.653-.875c-2.417-1.306-4.504-2.434-7.292-2.434-2.704 0-3.814 3.139-4.635 7.858v6.25l.973 4.078c.249 1.226.482 2.339.814 3.379.184-1.963.775-3.801 2.424-5.428 2.766-2.816 6.799-2.816 10.358-2.816 5.673 0 10.125.313 14.519.999-2.458-4.836-6.774-6.875-12.041-9.347zM280.633 163.858l-.02.034c-.017-.009-.032-.02-.049-.03-8.053.486-12.176 3.823-20.928 13.256l-2.664 2.663c-2.073 1.987-4.03 3.865-5.219 6.281-.84 1.704-1.895 3.315-2.914 4.873-1.45 2.217-2.821 4.312-3.574 6.587-3.543 10.654-25.897 32.209-69.236 26.86l.014-.114-.47-.119v.245c-2.573 0-3.819 2.426-5.425 6.127 0 0-.104.241-.119.271-1.985 4.305-2.559 6.764-2.559 10.965 0 2.859 2.29 5.088 5.637 5.428l3.259.502c3.722.589 6.662 1.054 10.774 1.054h21.683c2.446-1.057 4.374-2.219 6.386-3.452 1.582-.97 3.217-1.973 5.247-3.006 5.324-2.596 9.904-5.222 14.333-7.761 9.735-5.582 18.931-10.854 32.824-13.577 5.585-1.068 8.059-5.083 10.938-9.754 2.651-4.185 4.567-7.209 6.45-12.168 1.417-3.281 2.918-6.076 4.243-8.542 3.115-5.799 5.575-10.379 5.575-18.132 0-5.074-.6-7.722-1.78-7.871-5.177-.533-9.118-.811-12.406-.62z"/><path fill="#FFED00" d="M273.577 178.56a2.326 2.326 0 0 0 2.005 2.609l11.613 1.521a2.326 2.326 0 1 0 .603-4.613l-11.613-1.521a2.326 2.326 0 0 0-2.608 2.004zM244.586 255.959l-5.689 23.552a2.327 2.327 0 1 0 4.523 1.092l5.689-23.552a2.327 2.327 0 0 0-4.523-1.092zM275.127 172.515a2.327 2.327 0 0 0 2.192 2.454l13.911.783a2.327 2.327 0 1 0 .262-4.646l-13.911-.783a2.327 2.327 0 0 0-2.454 2.192zM240.01 214.658a2.326 2.326 0 0 0-.874 3.172l3.088 5.438a2.327 2.327 0 0 0 4.047-2.298l-3.089-5.438a2.327 2.327 0 0 0-3.172-.874zM246.865 209.166a2.326 2.326 0 0 0-.291 3.277l7.745 9.257a2.326 2.326 0 1 0 3.568-2.986l-7.745-9.257a2.326 2.326 0 0 0-3.277-.291zM253.484 204.2a2.328 2.328 0 0 0-.116 3.289l10.045 10.778a2.326 2.326 0 1 0 3.404-3.172l-10.045-10.779a2.326 2.326 0 0 0-3.288-.116zM222.601 182.294c-5.778-2.303-10.045-3.432-16.212-3.432-6.957 0-10.045 6.563-11.212 13.472v7.738c5.778-7.346 5.778-18.124 15.079-18.124 4.599 0 7.688 1.521 12.345.346"/><path d="M221.78 317.135a.391.391 0 0 0 .212.466c3.137 1.438 5.245 2.663 7.476 3.959l2.542 1.46c.022.011 1.286.578 1.286.578 2.03.88 3.948 1.71 3.948 3.687 0 4.565-5.248 6.954-10.432 6.954-8.201 0-13.123-.689-21.945-3.072a.39.39 0 0 0-.302.715c3.768 2.237 6.909 3.532 11.813 3.532l2.38-.072c2.675-.119 5.707-.255 6.988.97.454.435.675 1.022.675 1.797 0 2.171-1.488 3.572-3.063 5.057-.802.756-1.631 1.537-2.296 2.45-2.31 3.317-4.5 6.033-6.619 8.66-3.518 4.362-6.841 8.484-10.012 14.542l-.001.002-.013.021a.39.39 0 0 0 .155.523.391.391 0 0 0 .527-.138c2.2-3.621 4.4-5.537 7.184-7.962l.484-.422c3.892-3.505 6.552-6.864 9.125-10.113 2.378-3.004 4.874-6.106 8.301-9.309a14.11 14.11 0 0 1-.293 1.451c-.198.781-.403 1.588-.403 2.594 0 1.775.304 3.065.598 4.313.298 1.266.58 2.46.58 4.161l-.39 6.977c0 .167.109.305.27.358a.401.401 0 0 0 .452-.166l.547-.818c.692-1.021 1.477-2.178 1.794-3.091a.405.405 0 0 0 .021-.129v-14.312c1.111-6.525 5.051-8.876 11.522-12.438l-1.082 19.014a.392.392 0 0 0 .767.112c.929-3.123 1.175-5.883 1.413-8.553.354-3.978.661-7.413 3.135-11.039 2.424-3.539 6.175-4.337 10.147-5.182 2.807-.597 5.71-1.214 8.295-2.836a.39.39 0 0 0 .07-.608c-.22-.221-.379-.592-.548-.985-.349-.813-.783-1.823-2.029-1.823-4.544 0-7.931 1.488-11.205 2.928-3.335 1.467-6.485 2.852-10.831 2.852-4.438 0-7.57-1.722-10.885-3.544-2.899-1.594-5.898-3.242-9.93-3.797a.387.387 0 0 0-.428.276z"/><path fill="#FFED00" d="M207.864 332.754c3.706.918 6.772 1.489 9.906 1.833l-1.392.043c-3.436 0-5.977-.679-8.514-1.876zM229.862 320.882a107.51 107.51 0 0 0-4.382-2.439c2.317.755 4.334 1.827 6.283 2.897 3.406 1.872 6.623 3.641 11.263 3.641 4.511 0 7.884-1.482 11.146-2.917 3.2-1.407 6.511-2.862 10.89-2.862.694 0 .95.513 1.31 1.35.12.281.258.556.415.812-2.382 1.39-5.066 1.987-7.675 2.542-4.13.878-8.03 1.707-10.631 5.506-2.59 3.796-2.92 7.495-3.27 11.412a99.756 99.756 0 0 1-.293 2.852l.799-14.042a.392.392 0 0 0-.58-.344c-6.821 3.749-11.327 6.226-12.543 13.404l-.005 14.291c-.257.711-.853 1.626-1.438 2.494l.309-5.539c0-1.792-.305-3.088-.6-4.341-.297-1.26-.577-2.449-.577-4.134 0-.907.184-1.633.379-2.4.202-.794.41-1.615.41-2.653a.393.393 0 0 0-.654-.291c-3.896 3.503-6.56 6.867-9.137 10.122-2.553 3.223-5.193 6.557-9.031 10.014l-.479.417c-1.292 1.126-2.452 2.154-3.556 3.282 2.199-3.382 4.471-6.252 6.839-9.188 2.127-2.638 4.326-5.364 6.647-8.698.617-.847 1.419-1.603 2.195-2.334 1.627-1.533 3.309-3.118 3.309-5.627 0-.986-.308-1.781-.917-2.363-.347-.332-.797-.559-1.286-.743.597.008 1.179.021 1.811.021 5.573 0 11.215-2.657 11.215-7.737 0-2.491-2.348-3.508-4.42-4.405l-1.236-.554c.02.007-2.51-1.446-2.51-1.446z"/><path d="m356.247 229.604-.011.014.001-.001c-6.206 8.023-11.369 11.545-19.184 16.876l-1.196.817c-2.077 1.45-3.497 3.207-4.871 4.907-1.857 2.299-3.666 4.443-6.861 5.6v-8.272a.392.392 0 0 0-.775-.083c-.48 2.218-.443 4.222-.407 6.159.052 2.75.1 5.348-1.45 8.028-1.932 3.31-3.99 5.62-6.17 8.066-1.357 1.522-2.76 3.098-4.234 5.018-.979 1.242-1.607 2.737-2.216 4.184-1.109 2.641-2.068 4.921-4.82 4.921-.282 0-.512-.142-.777-.306a2.876 2.876 0 0 0-.798-.342v-13.608l-2.701-10.918a.39.39 0 0 0-.764.173c1.283 6.298 1.247 9.938 1.194 15.445l-.023 3.774c0 11.758-4.189 18.577-9.988 28.015-.015.026-.386.74-.386.74-1.304 2.488-3.089 5.896-1.051 7.146 1.804 1.302 5.144-.841 6.351-2.446 2.688-3.474 3.867-6.237 4.673-10.947 1.874-8.906 9.614-10.869 18.576-13.142l.426-.107c5.292-1.36 9.455-1.967 13.48-2.554 5.145-.75 10.003-1.458 16.725-3.625a.392.392 0 0 0-.12-.765h-15.48a.4.4 0 0 0-.137.024c-7.166 2.673-11.07 3.845-18.375 3.845-.98 0-1.461-.164-2.127-.39l-.442-.135c4.396-2.883 6.115-5.614 8.412-11.383 1.754-4.767 5.068-9.604 9.125-8.915 8.981 1.531 14.406-.752 22.277-4.693l1.714-.976c.54-.324 1.058-.616 1.582-.878 2.355-.463 4.859-.8 7.696-.8a.391.391 0 1 0 0-.784h-4.601c-1.313 0-2.362.356-3.345.835-1.887.375-3.686.822-5.439 1.277-3.977 1.03-8.088 2.096-13.262 2.096l-2.913.094c-1.479.075-2.832.105-4.467-.05 2.909-4.907 6.297-7.629 9.89-10.445 2.444-1.917 4.973-3.898 7.439-6.679 2.539-2.756 4.193-5.324 5.794-7.809 1.341-2.081 2.727-4.232 4.636-6.499l.01-.013a.39.39 0 0 0-.064-.544.395.395 0 0 0-.546.055z"/><path fill="#FFED00" d="M323.848 258.787c3.78-1.167 5.707-3.552 7.747-6.076 1.34-1.657 2.725-3.371 4.707-4.755l1.192-.814c5.605-3.824 9.856-6.751 14.106-11.033l-.05.075c-1.582 2.456-3.218 4.996-5.716 7.708-2.425 2.732-4.925 4.692-7.342 6.588-3.799 2.978-7.386 5.79-10.446 11.217a.399.399 0 0 0-.009.368.397.397 0 0 0 .301.213c2.047.26 3.605.181 5.255.096l2.873-.093c5.273 0 9.435-1.078 13.458-2.12.949-.246 1.908-.493 2.886-.728l-1.044.594c-7.724 3.869-13.046 6.111-21.792 4.619-4.529-.77-8.129 4.355-9.988 9.408-2.346 5.894-4.028 8.514-8.794 11.464a.39.39 0 0 0-.174.386.408.408 0 0 0 .284.327l1.194.362c.709.241 1.27.432 2.379.432 7.408 0 11.368-1.181 18.581-3.869h12.662c-5.319 1.522-9.575 2.19-13.968 2.831-4.047.59-8.231 1.199-13.563 2.569l-.424.108c-9.216 2.336-17.176 4.354-19.153 13.753-.793 4.639-1.893 7.215-4.526 10.619-1.175 1.561-4.011 3.195-5.293 2.271-.4-.246-.562-.668-.562-1.194 0-1.364 1.082-3.428 1.871-4.936l.375-.721c5.851-9.521 10.089-16.419 10.089-28.398l.023-3.767c.01-1.006.02-1.959.02-2.887 0-1.778-.05-3.475-.18-5.249l.876 3.522-.012 13.825c0 .217.175.392.392.392.283 0 .513.142.778.306.32.198.684.422 1.188.422 3.272 0 4.427-2.745 5.543-5.4.588-1.397 1.196-2.844 2.111-4.007 1.46-1.9 2.854-3.465 4.201-4.977 2.206-2.477 4.291-4.815 6.263-8.194 1.034-1.789 1.403-3.514 1.522-5.252.057.005.107.011.159-.005z"/><path d="M223.587 277.887c-.339-.586-.769-.921-1.292-1.022-1.245-.241-2.702.894-4.244 2.095-.922.718-1.875 1.46-2.708 1.823l-5.038 2.425c-2.896 1.361-5.397 2.537-8.913 4.55-10.975 6.079-18.151 8.031-29.529 8.031a.392.392 0 0 0-.224.712c1.134.791 2.766 1.245 4.479 1.245 4.641 0 8.19-.558 11.948-1.148 3.058-.481 6.219-.979 10.061-1.156 9.386-.703 18.952-2.226 23.892-12.214l.498-.89c.822-1.422 1.754-3.035 1.07-4.451z"/><path fill="#FFED00" d="m50.584 329.957 8.089-3.576-4.022-9.009c-.733-1.565-1.566-2.739-2.646-3.477-1.021-.738-2.344-.782-3.867-.102-1.711.783-2.544 1.956-2.5 3.521.144 1.274.589 2.851 1.377 4.605m17.682 1.767 9.746-4.358-3.967-8.966c-.733-1.608-1.522-2.783-2.356-3.465-1.512-1.274-3.378-1.376-5.634-.403-1.9.839-2.833 2.215-2.889 4.114 0 1.029.344 2.349 1.033 3.969l4.067 9.109zm-25.469-12.631c1.078-1.812 2.645-3.186 4.845-4.158 2.201-.983 4.268-1.23 6.124-.737 1.033.29 2.155.928 3.333 1.855-.145-2.146.288-4.069 1.322-5.634 1.078-1.609 2.645-2.884 4.745-3.824 2.155-.972 4.367-1.318 6.567-.972 1.423.189 2.79.638 4.011 1.331 1.423.782 2.646 1.9 3.679 3.375 1.078 1.409 2.011 3.085 2.845 4.941l7.345 16.555-36.537 16.308-7.934-17.773c-1.912-4.516-2.056-8.282-.345-11.267zM29.727 294.892l-1.867-8.127 31.981-7.399-4.456-19.294 7.011-1.614 6.368 27.424M46.917 238.231l.534-10.138-16.013 4.164m-9.357 4.163.489-9.401 40.704-12.101-.489 9.061-8.323 2.157-.79 14.738 8.079 3.186-.433 8.719-39.237-16.359zM29.826 196.458c-2.399-3.917-3.044-8.371-1.822-13.274 1.667-6.511 5-10.769 10.045-12.681 2.789-1.078 5.433-1.369 7.89-.882l-2.011 8.082c-2.012.101-3.579.391-4.756.978-2.056 1.079-3.422 3.036-4.156 5.93-.733 2.985-.1 5.578 1.856 7.88 1.967 2.303 5.101 4.019 9.457 5.097 4.356 1.073 7.834.979 10.479-.246 2.6-1.274 4.267-3.281 4.944-6.076.734-2.839.345-5.236-1.167-7.198-.789-1.079-2.111-2.152-3.979-3.18l2.012-8.037c4.022 1.766 7.056 4.409 8.967 7.986 1.911 3.526 2.345 7.54 1.223 12.044-1.423 5.583-4.313 9.551-8.668 11.854-4.412 2.302-9.746 2.643-16.013 1.123-6.767-1.708-11.566-4.844-14.301-9.4M39.372 151.602l3.622-7.4 14.791 7.205-8.034-21.11 4.756-9.697 7.645 21.942 28.692-5.142-4.701 9.647-21.157 3.426 1.955 5.387 12.001 5.881-3.567 7.393M75.864 104.146l6.657 5.779 6.467-7.395c1.122-1.325 1.812-2.594 2.055-3.868.201-1.274-.344-2.449-1.611-3.577-1.377-1.224-2.8-1.47-4.167-.782-1.178.687-2.356 1.761-3.623 3.231m5.879 16.75 8.079 7.004 6.412-7.394c1.178-1.325 1.868-2.549 2.156-3.578.545-1.912-.144-3.672-2-5.287-1.578-1.375-3.234-1.665-4.956-.883-.922.441-2 1.324-3.134 2.644l-6.557 7.494zm.678-28.403c2.055.196 4.022 1.079 5.833 2.593 1.811 1.616 2.889 3.381 3.233 5.293.145 1.029.044 2.297-.3 3.768 1.912-1.029 3.822-1.42 5.689-1.175 1.911.291 3.722 1.175 5.478 2.694 1.767 1.515 2.989 3.375 3.623 5.533.444 1.37.645 2.79.545 4.208-.145 1.621-.633 3.186-1.522 4.75-.834 1.571-1.956 3.091-3.279 4.656L95.598 131.86l-30.214-26.246 12.723-14.692c3.291-3.621 6.669-5.337 10.092-5.041zM99.61 69.768l6.812-5.091 14.791 19.634c1.667 2.207 3.134 3.627 4.411 4.213 2.156 1.224 4.601.783 7.345-1.274 2.69-2.057 3.768-4.259 3.234-6.662-.245-1.419-1.178-3.23-2.845-5.433l-14.835-19.64 6.8-5.091 14.791 19.633c2.6 3.381 4.067 6.467 4.412 9.11.633 4.997-1.767 9.552-7.301 13.716-5.578 4.163-10.623 5.287-15.223 3.28-2.501-1.079-5-3.331-7.546-6.757M155.649 43.031l3.667 10.139 8.912-3.286c1.767-.632 3.045-1.32 3.778-2.057 1.267-1.269 1.567-2.985.778-5.092-.833-2.252-2.156-3.526-3.911-3.772-1.033-.095-2.4.151-4.122.738m5.688-8.374a10.64 10.64 0 0 1 4.601 1.318c1.178.689 2.2 1.47 3.09 2.449.877.983 1.611 2.253 2.156 3.722.633 1.766.833 3.722.589 5.778-.301 2.057-1.323 3.774-3.145 5.243 1.966.095 3.577.638 4.755 1.666s2.256 2.839 3.233 5.483l.934 2.498c.632 1.76 1.122 2.89 1.466 3.426.533.933 1.267 1.47 2.2 1.615l.345.984-8.667 3.129c-.544-.732-.933-1.37-1.222-1.811-.589-.979-1.078-2.058-1.522-3.129l-1.323-3.482c-.878-2.398-1.911-3.817-3.089-4.309-1.123-.487-2.834-.341-5.134.492l-8.134 2.984 5.389 14.744-7.689 2.789-13.668-37.609 18.413-6.712c2.7-.927 4.8-1.319 6.422-1.268zM193.353 22.854l8.723-1.079 19.247 25.811-3.424-27.722 7.735-.978 4.9 39.715-8.323 1.029-19.69-26.202 3.478 28.214-7.746.927M267.027 27.409l-1.724 10.574 9.401 1.521c1.866.292 3.289.292 4.267 0 1.768-.492 2.846-1.86 3.18-4.063.398-2.404-.145-4.114-1.612-5.193-.833-.637-2.155-1.078-3.922-1.324m9.011-4.6c1.421.878 2.555 2.006 3.378 3.375.688 1.129 1.232 2.353 1.521 3.672.301 1.274.346 2.693.101 4.265-.289 1.861-1.078 3.671-2.301 5.337-1.222 1.665-3.032 2.694-5.288 3.085 1.666 1.029 2.788 2.252 3.322 3.723.588 1.469.644 3.621.2 6.365l-.445 2.643c-.289 1.811-.39 3.036-.334 3.723.045 1.079.435 1.912 1.122 2.499l-.145.978-9.11-1.419c-.1-.927-.145-1.665-.2-2.201-.044-1.13.056-2.303.2-3.477l.532-3.678c.346-2.543.156-4.259-.578-5.287-.788-.979-2.354-1.616-4.799-2.007l-8.524-1.375-2.454 15.526-8.079-1.275 6.267-39.569 19.402 3.085c2.735.492 4.846 1.18 6.212 2.012zM323.442 68.594c2.847-1.325 5.245-4.069 7.202-8.082 1.955-4.063 2.589-7.589 1.91-10.629-.632-3.086-2.456-5.338-5.433-6.808-2.991-1.419-5.879-1.515-8.723-.146-2.891 1.325-5.291 4.019-7.246 8.082-2.011 4.019-2.646 7.589-1.911 10.63.677 3.085 2.544 5.332 5.534 6.802 2.933 1.426 5.823 1.47 8.667.151m2.056 7.736c-4.11 1.519-8.711.978-13.857-1.521-5.144-2.493-8.377-5.824-9.744-9.937-1.967-5.243-1.379-11.067 1.757-17.533 3.233-6.562 7.444-10.631 12.732-12.145 4.068-1.521 8.669-.984 13.813 1.514 5.146 2.5 8.424 5.83 9.746 9.943 2.011 5.099 1.421 10.922-1.757 17.534-3.188 6.466-7.399 10.479-12.69 12.145zM379.426 68.398l6.857 5.338-35.415 23.117-6.213-4.852 14.002-39.86 7.056 5.483-11.901 29.285M409.639 109.433l-14.2-15.766-6.313 5.678 13.025 14.447-5.191 4.656L383.982 104l-7.69 6.903 14.833 16.454-5.333 4.851-20.279-22.58 29.726-26.781 19.644 21.836M424.775 132.6l-9.646 4.7 4.112 8.523c.833 1.709 1.666 2.889 2.455 3.526 1.411 1.174 3.135 1.269 5.135.241 2.211-1.028 3.333-2.492 3.389-4.308 0-1.029-.4-2.298-1.178-3.964m8.912 4.795c.1 1.622-.201 3.186-.833 4.706a12.926 12.926 0 0 1-2.111 3.331c-.88.979-2.056 1.811-3.479 2.492-1.656.833-3.567 1.225-5.678 1.18-2.056-.051-3.868-.934-5.534-2.549.145 1.962-.245 3.623-1.178 4.896-.879 1.274-2.545 2.548-5.09 3.772l-2.401 1.174c-1.665.832-2.743 1.419-3.277 1.861-.833.637-1.278 1.419-1.379 2.353l-.877.437-4.066-8.272c.688-.637 1.278-1.079 1.71-1.42a22.446 22.446 0 0 1 2.946-1.86l3.334-1.666c2.244-1.128 3.566-2.302 3.966-3.476.39-1.179 0-2.89-1.078-5.098l-3.776-7.785-14.103 6.909-3.578-7.351 35.947-17.532 8.624 17.633c1.177 2.544 1.81 4.651 1.911 6.265zM422.474 179.955c-1.712.687-2.935 1.47-3.622 2.398-1.278 1.715-1.523 4.213-.688 7.399.443 1.905 1.077 3.426 1.766 4.505 1.367 2.057 3.178 2.839 5.39 2.252 1.267-.296 2.1-1.129 2.545-2.403.39-1.319.534-3.231.489-5.774l-.1-4.314c-.101-4.259.198-7.344.889-9.155 1.122-3.041 3.623-5.046 7.444-6.025 3.467-.833 6.655-.291 9.59 1.665 2.944 1.957 5 5.388 6.223 10.284 1.033 4.063.834 7.835-.633 11.262-1.468 3.432-4.211 5.734-8.323 6.907l-1.911-7.785c2.3-.737 3.667-2.158 4.211-4.309.345-1.425.245-3.091-.2-4.946-.532-2.107-1.367-3.678-2.543-4.707-1.134-1.028-2.445-1.369-3.969-.977-1.423.34-2.3 1.224-2.646 2.599-.299.927-.387 2.739-.343 5.483l.044 7.103c0 3.085-.333 5.532-1.166 7.344-1.234 2.738-3.635 4.555-7.057 5.433-3.579.882-6.856.245-9.89-1.862-2.99-2.151-5.146-5.678-6.368-10.625-1.278-5.041-1.078-9.306.49-12.781 1.611-3.477 4.399-5.729 8.466-6.757M458.823 244.452l-1.969 28.307-6.999-.491 1.365-20.031-9.156-.638-1.221 17.538-6.956-.491 1.222-17.531-16.747-1.18.59-8.271M424.096 269.137l-1.423 8.127-7.988-1.419 1.421-8.081M444.955 302.045c1.81 4.259 1.81 8.719-.101 13.414-2.489 6.214-6.411 9.948-11.657 11.223-2.933.626-5.578.581-7.979-.246l3.135-7.746c2.012.201 3.621.101 4.844-.347 2.155-.728 3.823-2.492 4.957-5.275 1.122-2.795.877-5.489-.744-8.038-1.612-2.548-4.502-4.649-8.669-6.359-4.155-1.677-7.633-2.057-10.379-1.23-2.788.928-4.7 2.695-5.778 5.344-1.078 2.737-1.033 5.143.145 7.288.635 1.185 1.813 2.403 3.522 3.722l-3.077 7.635c-3.779-2.292-6.368-5.331-7.789-9.099-1.423-3.778-1.278-7.835.443-12.149 2.2-5.333 5.578-8.865 10.234-10.52 4.7-1.677 10.035-1.273 16.013 1.118 6.467 2.636 10.779 6.37 12.88 11.265M404.551 325.598l-4.213 7.054-6.957-4.158 4.258-7.066M91.732 399.742h5.823v-33.354h-4.067c-.533 3.867-3.622 5.979-9.056 6.079v3.958h7.301M111.324 381.812c-3.479.839-4.857 3.576-4.857 8.674 0 6.751 2.8 9.836 8.967 9.836 6.323 0 9.157-3.219 9.157-10.283 0-4.941-1.422-7.489-4.989-8.227 2.934-.917 4.355-3.175 4.355-6.998 0-5.433-2.944-8.371-8.423-8.371-5.489 0-8.423 2.895-8.423 8.227.001 3.922 1.423 6.315 4.213 7.142m4.155 2.212c2.456 0 3.044 1.901 3.044 5.824 0 4.113-.489 5.779-3.044 5.779-2.4 0-2.979-1.609-2.979-5.287 0-4.415.435-6.316 2.979-6.316zm-2.689-8.764c0-2.995.633-4.413 2.6-4.413 2.201 0 2.834 1.329 2.834 4.413 0 3.03-.679 4.405-2.745 4.405-2.056.001-2.689-1.374-2.689-4.405zM359.49 399.786h6.324c.777-10.228 3.467-19.628 7.934-27.956v-4.751h-18.324v5.434h12.446c-5.046 10.036-7.79 19.246-8.38 27.273M377.369 389.166v.829c0 7.108 2.835 10.483 8.914 10.483 6.655 0 9.455-3.911 9.455-12.34 0-7.355-2.8-10.977-8.434-10.977-1.856 0-3.224.537-4.5 1.868l.343-6.663h11.114v-5.288h-15.714l-.89 17.337h5.392c.143-1.619 1.365-2.693 3.032-2.693 2.602 0 3.623 2.202 3.623 6.807 0 4.998-.879 7.389-3.277 7.389-2.202 0-3.334-1.956-3.334-5.879v-.873"/></svg>