<svg xmlns="http://www.w3.org/2000/svg" width="567pt" height="567pt" viewBox="0 0 567 567"><path d="M283.535-.02c156.555 0 283.469 126.91 283.469 283.465C567.004 440 440.09 566.91 283.535 566.91 126.985 566.91.07 440 .07 283.445.07 126.891 126.984-.02 283.535-.02Zm0 0" style="stroke:none;fill-rule:evenodd;fill:#000200;fill-opacity:1"/><path d="M283.535 12.152c149.832 0 271.293 121.461 271.293 271.293 0 149.828-121.46 271.293-271.293 271.293-149.824 0-271.289-121.465-271.289-271.293 0-149.832 121.465-271.293 271.29-271.293Zm0 0" style="stroke:none;fill-rule:evenodd;fill:#fff;fill-opacity:1"/><path d="M283.535 23.746c143.43 0 259.7 116.27 259.7 259.7 0 143.425-116.27 259.699-259.7 259.699-143.426 0-259.695-116.274-259.695-259.7 0-143.43 116.27-259.699 259.695-259.699Zm0 0" style="stroke:none;fill-rule:evenodd;fill:#e2001d;fill-opacity:1"/><path d="M283.535 104.898c98.61 0 178.55 79.938 178.55 178.547 0 98.606-79.94 178.543-178.55 178.543-98.605 0-178.543-79.937-178.543-178.543 0-98.61 79.938-178.547 178.543-178.547Zm0 0" style="stroke:none;fill-rule:evenodd;fill:#fff;fill-opacity:1"/><path d="M167.86 388.453c6.398-8.262 12.175-17.32 17.437-26.273 7.11-12.094 13.562-24.676 19.293-37.48 8.347-18.665 16.566-37.345 23.918-56.434 6.793-17.637 12.863-35.649 18.02-53.832 2.855-10.079 5.175-20.098 9.433-29.723 5.094-11.535 12.75-21.816 23.766-28.309 7.527-4.433 14.914-6.496 23.535-7.18 19.992-1.585 39.414 7.755 51.515 23.583l1.864 2.437c7.957.992 16.332 2.867 24.02 4.23-13.24 6.665-21.638 12.106-27.138 23.06-4.18 8.323-2.464 15.726 1.399 23.792 3.648 7.637 7.09 15.38 9.336 23.563 4.582 16.687 3.414 35.644-4.653 51.105-18.968 36.383-61.046 52.809-99.27 61.375l11.028 14.742a64.096 64.096 0 0 1 15.782-1.96c34.453 0 62.57 27.175 64.085 61.253a165.735 165.735 0 0 1-14.5 5.637c.051-.906.079-1.816.079-2.734 0-27.422-22.243-49.664-49.664-49.664a49.488 49.488 0 0 0-21.016 4.656l-29.945-40.008 7.445-3.976c20.875-11.16 40.46-26.004 54.07-45.614 9.305-13.398 14.047-27.687 10.438-43.887-1.27-5.71-3.625-11.007-6.028-16.312-4.058-8.953-7.55-16.977-8.629-26.906-1.851-17.028 9.774-31.57 24.778-38.133 5.844-2.555 12.191-4.004 18.676-4.621-8.872-7.774-20.57-12.117-32.524-11.168-6.422.508-11.707 1.906-17.324 5.215-8.34 4.91-14.027 12.98-17.871 21.683-3.934 8.89-6.102 18.496-8.746 27.817-5.278 18.61-11.485 37.039-18.438 55.09-7.441 19.324-15.761 38.242-24.215 57.14-5.945 13.293-12.644 26.348-20.02 38.906-3.745 6.368-7.733 12.766-12 18.93Zm55.128 50.922v-.07c0-18.586 7.91-35.325 20.543-47.04l9.508 10.942c-9.574 9.055-15.559 21.879-15.559 36.098 0 1.699.086 3.375.254 5.027a165.803 165.803 0 0 1-14.746-4.957Zm0 0" style="stroke:none;fill-rule:evenodd;fill:#000200;fill-opacity:1"/><path d="M344.844 188.973c-7.223-.016-14.492 1.015-20.778 3.765-9.074 3.965-17.328 12.711-16.18 23.293.887 8.164 4.079 15.11 7.423 22.485 2.843 6.277 5.468 12.382 6.972 19.148 4.492 20.164-1.058 38.566-12.676 55.3-7.28 10.485-16.05 19.735-25.785 27.884 25.754-8.754 50.559-22.817 62.938-46.555 6.363-12.203 7.137-27.43 3.527-40.57-2.012-7.317-5.172-14.317-8.441-21.145-5.84-12.207-7.543-24.055-1.27-36.55a50.447 50.447 0 0 1 4.27-7.055Zm0 0" style="stroke:none;fill-rule:evenodd;fill:#e2001d;fill-opacity:1"/><path d="m219.734 50.441 10.899-2.59 10.875 45.762-10.895 2.59ZM254.379 477.184l11.094 1.503-6.328 46.61-11.098-1.504ZM356.426 52.063l-2.16 9.902-13.477-2.938-7.86 36.035-10.94-2.386 7.859-36.035-13.29-2.899 2.16-9.906ZM325.55 476.418l1.18 10.07-13.703 1.606 4.301 36.633-11.125 1.304-4.297-36.633-13.508 1.586-1.18-10.07ZM413.785 136.926l20.313 20.566 7.218-7.12-12.437-12.602 26.152-25.805-7.867-7.973ZM108.465 116.3l14.316-13.003c3.633-3.3 6.313-4.457 9.942-4.328 2.824.101 6.039 1.21 8.257 4.254 2.66 3.648 3.442 7.14 1.864 10.879 4.535-1.438 9.62-.543 12.883 2.761 3.402 3.442 4.507 7.418 4.21 10.793-.39 4.485-3.273 8.23-6.64 11.324l-13.156 12.086Zm38.5 7.747c-1.516-1.66-4.516-2.383-6.973-.145l-5.164 4.703 6.719 7.372 5.043-4.598c3.312-3.02 1.883-5.672.375-7.332Zm-12.606-12.11c-1.535-1.683-3.82-2.015-6.562.481l-4.219 3.844 5.54 6.078 4.808-4.383c2.176-1.984 1.965-4.336.433-6.02ZM160.234 75.27l16.442-8.211c2.937-1.371 6.808-2.653 10.64-1.977 3.606.633 7.77 3.328 9.73 7.95 2.153 5.093 1.919 10.62-2.304 15.265l20.121 12.27-11.836 5.91-16.879-10.95-2.628 1.313 7.746 15.508-10.02 5.004Zm27.207 3.238c-.937-1.89-3.562-3.535-6.789-1.922l-5.8 2.894 4.335 8.68 5.653-2.824c3.75-1.867 3.547-4.941 2.601-6.828ZM402.57 71.594c11.7 6.765 15.703 21.742 8.942 33.441-6.766 11.703-21.742 15.707-33.446 8.945-11.699-6.765-15.703-21.742-8.937-33.445 6.762-11.703 21.738-15.707 33.441-8.941Zm-5.125 8.863c6.352 3.676 8.317 12.172 4.38 18.98-3.934 6.81-12.278 9.348-18.634 5.676-6.351-3.672-8.312-12.172-4.378-18.98 3.933-6.805 12.277-9.348 18.632-5.676ZM285.824 55.398c-2.86-2.351-6.37-4.363-10.015-3.859-2.055.29-3.88 1.043-4.598 2.945-.656 1.727.172 3.426 1.875 4.32 1.445.762 2.98 1.137 4.586 1.43 3.558.653 6.957 1.485 10.152 3.227 1.371.75 2.649 1.648 3.68 2.777 2.48 2.719 3.488 6.395 2.883 10.946-.567 4.265-3.176 7.714-6.492 9.906-3.211 2.12-7.504 3.222-11.329 3.156-6.789-.125-12.027-3.133-16.93-7.473l6.942-8.484c3.16 2.664 6.926 5.215 11.07 5.191 1.711-.007 3.2-.355 4.387-1.296 1.094-.871 1.41-2.11 1.192-3.137-.672-3.16-4.997-3.512-7.543-3.98-2.899-.676-5.704-1.54-8.336-2.926-4.27-2.25-7.286-5.668-7.457-10.618-.301-8.68 6.054-15.144 14.425-16.312 7.032-.98 13.743 1.59 18.438 6.328ZM215.035 465.828c8.235 2.965 13.961 9.3 15.442 17.953l-10.188 2.125c-.66-4.867-3.945-8.57-8.64-10.261-6.903-2.489-14.801 1.44-17.47 8.835-2.663 7.399 1.008 15.192 7.91 17.68 5.524 1.992 11.434-.14 14.735-4.113l7.192 6.875c-6.453 7.25-15.946 10.59-25.633 7.098-4.77-1.723-8.91-4.547-11.692-8.352-4.632-6.348-5.894-15.031-3.035-22.98 4.586-12.715 18.664-19.446 31.38-14.86ZM379.309 486.313l7.953 18.12-10.254 4.5-7.89-17.98-26.9-18.277 12.048-5.285 15.203 10.543 2.57-18.344 12.027-5.277Zm0 0" style="stroke:none;fill-rule:evenodd;fill:#fff;fill-opacity:1"/><path d="M138.102 250.621h25.668v4.277h-25.668Zm65.277-1.34h-12.367l-.024-4.793 12.602-17.367h5.457v16.781h4.594v5.38h-4.594v6.226h-5.668Zm-6.293-5.379h6.293v-8.574Zm-15.262-.011c-1.855 1.605-4.262 2.164-6.777 1.824-4.719-.645-7.844-4.156-7.844-8.93 0-5.738 4.594-9.898 10.227-9.898 7.59 0 11.515 6.183 10.965 13.261-.758 9.735-6.153 14.688-15.973 15.278l-.461.027-.027-5.043.406-.035c4.637-.387 8.465-1.984 9.484-6.484Zm-4.48-3.293c2.215.066 4.496-1.45 4.496-3.813 0-2.746-1.727-4.246-4.41-4.246-2.274 0-4.285 1.582-4.285 3.957 0 2.328 1.94 4.031 4.199 4.102Zm-37.438-8.13h-1.965v-4.398h6.848v18.766h-4.883Zm12.524 4.239c-1.04-.98-1.64-2.3-1.64-3.773 0-3.649 2.839-5.493 6.273-5.493 3.433 0 6.277 1.844 6.277 5.493 0 1.472-.602 2.789-1.645 3.773 1.567 1.074 2.317 2.754 2.317 4.703 0 3.836-3.407 5.934-6.95 5.934-3.542 0-6.949-2.098-6.949-5.934 0-1.95.754-3.629 2.317-4.703Zm4.632 2.77c-1.175 0-2.285.601-2.285 1.886 0 1.176 1.215 1.887 2.286 1.887 1.07 0 2.285-.71 2.285-1.887 0-1.285-1.106-1.886-2.286-1.886Zm0-7.536c-.917 0-1.804.461-1.804 1.477 0 .992.906 1.477 1.804 1.477.903 0 1.805-.485 1.805-1.477 0-1.016-.887-1.477-1.804-1.477Zm0 0" style="stroke:none;fill-rule:evenodd;fill:#e2001d;fill-opacity:1"/></svg>