<svg xmlns="http://www.w3.org/2000/svg" width="96" height="99.91"><clipPath id="a"><path d="M0 0h612.29v858.9H0z"/></clipPath><g clip-path="url(#a)" transform="matrix(3.233 0 0 -3.233 -1748 2657)"><path fill="#2b58ae" d="M546.94 801.38a11.63 11.63 0 0 0-.04-.38v-.01c-.1-.91-.19-1.7.77-2.73.83-.9 1.96-1.56 2.72-1.81a23.5 23.5 0 0 0 5.14-2.47c1.06.68 2.9 1.72 5.22 2.42.61.19 1.85.82 2.77 1.82.9.97.79 1.74.67 2.62-.02.16-.05.32-.06.49-.01.06-.03.17-.06.3-1.81 9.55-1.61 10.91-1.54 11.35.06.42.33 1.11 1.46 3.21.05.09.08.16.1.19.15.3.42.8.52 1.1-.18.17-.62.54-1.77 1.23-.54.32-1.07.6-1.45.78-2.05-1.02-4.06-1.65-5.71-1.76h-.32c-1.68.12-3.63.73-5.68 1.76-.38-.18-.91-.45-1.45-.77-1.16-.69-1.63-1.05-1.82-1.23.11-.32.39-.87.54-1.15.02-.04.06-.11.11-.21.97-1.79 1.36-2.64 1.43-3.14.07-.44.27-1.8-1.49-11.3v-.01c-.02-.11-.04-.23-.06-.3m8.57-10.07-.64.46c-.51.37-2.38 1.65-5.19 2.6-.99.34-2.47 1.14-3.63 2.4-1.63 1.76-1.45 3.39-1.33 4.46v.01c.01.13.07.58.12.84v.01c1.55 8.35 1.53 10.18 1.48 10.56-.04.17-.26.71-1.19 2.44-.06.12-.11.2-.13.24-.62 1.2-1 2.04-.75 2.8.24.73.93 1.33 2.85 2.47.92.55 1.84.97 2.19 1.12l.47.2.48-.25c1.94-1.03 3.75-1.63 5.25-1.75h.06c1.47.11 3.34.73 5.28 1.75l.49.26.48-.21c.34-.15 1.24-.58 2.16-1.13 1.82-1.09 2.55-1.74 2.8-2.47.27-.82-.21-1.76-.72-2.74-.02-.04-.06-.12-.12-.22-.99-1.83-1.18-2.36-1.22-2.5-.05-.38-.06-2.22 1.53-10.61.05-.27.11-.73.13-.89.14-1 .37-2.68-1.23-4.41-1.15-1.24-2.71-2.11-3.74-2.43-2.59-.79-4.51-2.04-5.22-2.55z"/><path fill="none" stroke="#fff" stroke-width=".26" d="M546.94 801.38a11.63 11.63 0 0 0-.04-.38v-.01c-.1-.91-.19-1.7.77-2.73.83-.9 1.96-1.56 2.72-1.81a23.5 23.5 0 0 0 5.14-2.47c1.06.68 2.9 1.72 5.22 2.42.61.19 1.85.82 2.77 1.82.9.97.79 1.74.67 2.62-.02.16-.05.32-.06.49-.01.06-.03.17-.06.3-1.81 9.55-1.61 10.91-1.54 11.35.06.42.33 1.11 1.46 3.21.05.09.08.16.1.19.15.3.42.8.52 1.1-.18.17-.62.54-1.77 1.23-.54.32-1.07.6-1.45.78-2.05-1.02-4.06-1.65-5.71-1.76h-.32c-1.68.12-3.63.73-5.68 1.76-.38-.18-.91-.45-1.45-.77-1.16-.69-1.63-1.05-1.82-1.23.11-.32.39-.87.54-1.15.02-.04.06-.11.11-.21.97-1.79 1.36-2.64 1.43-3.14.07-.44.27-1.8-1.49-11.3v-.01c-.02-.11-.04-.23-.06-.3zm8.57-10.07-.64.46c-.51.37-2.38 1.65-5.19 2.6-.99.34-2.47 1.14-3.63 2.4-1.63 1.76-1.45 3.39-1.33 4.46v.01c.01.13.07.58.12.84v.01c1.55 8.35 1.53 10.18 1.48 10.56-.04.17-.26.71-1.19 2.44-.06.12-.11.2-.13.24-.62 1.2-1 2.04-.75 2.8.24.73.93 1.33 2.85 2.47.92.55 1.84.97 2.19 1.12l.47.2.48-.25c1.94-1.03 3.75-1.63 5.25-1.75h.06c1.47.11 3.34.73 5.28 1.75l.49.26.48-.21c.34-.15 1.24-.58 2.16-1.13 1.82-1.09 2.55-1.74 2.8-2.47.27-.82-.21-1.76-.72-2.74-.02-.04-.06-.12-.12-.22-.99-1.83-1.18-2.36-1.22-2.5-.05-.38-.06-2.22 1.53-10.61.05-.27.11-.73.13-.89.14-1 .37-2.68-1.23-4.41-1.15-1.24-2.71-2.11-3.74-2.43-2.59-.79-4.51-2.04-5.22-2.55z"/><path fill="#fff" d="M550.09 795.52c-.82.28-2.13.99-3.15 2.09-1.28 1.38-1.15 2.59-1.04 3.56.02.14.03.27.04.4.01.03.03.18.07.37 1.12 6.03 1.63 9.78 1.47 10.83-.09.57-1.28 2.71-1.42 2.98-.36.69-.8 1.55-.68 1.94.13.4.81.94 2.35 1.85.9.53 1.76.93 2.03 1.04.01 0 .01-.01.02-.01 2.07-1.09 4.02-1.74 5.65-1.85h.16c1.61.11 3.63.77 5.68 1.85.01 0 .01.01.02.01.26-.11 1.11-.52 2.01-1.06 1.47-.88 2.16-1.44 2.3-1.86.13-.38-.28-1.17-.65-1.88-.13-.25-1.35-2.45-1.43-3.02-.16-1.05.37-4.81 1.52-10.88.03-.18.06-.32.07-.35.01-.15.04-.31.06-.48.13-.95.3-2.14-.94-3.48-.99-1.07-2.37-1.84-3.22-2.1-2.68-.82-4.68-2.1-5.49-2.67 0 0-2.51 1.74-5.43 2.72"/><path fill="none" stroke="#b31d27" stroke-width=".47" d="M550.09 795.52c-.82.28-2.13.99-3.15 2.09-1.28 1.38-1.15 2.59-1.04 3.56.02.14.03.27.04.4.01.03.03.18.07.37 1.12 6.03 1.63 9.78 1.47 10.83-.09.57-1.28 2.71-1.42 2.98-.36.69-.8 1.55-.68 1.94.13.4.81.94 2.35 1.85.9.53 1.76.93 2.03 1.04.01 0 .01-.01.02-.01 2.07-1.09 4.02-1.74 5.65-1.85h.16c1.61.11 3.63.77 5.68 1.85.01 0 .01.01.02.01.26-.11 1.11-.52 2.01-1.06 1.47-.88 2.16-1.44 2.3-1.86.13-.38-.28-1.17-.65-1.88-.13-.25-1.35-2.45-1.43-3.02-.16-1.05.37-4.81 1.52-10.88.03-.18.06-.32.07-.35.01-.15.04-.31.06-.48.13-.95.3-2.14-.94-3.48-.99-1.07-2.37-1.84-3.22-2.1-2.68-.82-4.68-2.1-5.49-2.67 0 0-2.51 1.74-5.43 2.72z"/><path fill="#2b58ae" fill-rule="evenodd" d="m560.99 810.65.85 1.51c-.48.22-2.94 1.29-6.34 1.3-3.39-.01-5.86-1.07-6.33-1.3l.85-1.51-6.71-3.41-.21 2.32-2.27 1.42 2.96 1.68-1.04 1.97.07.04c2.12 1.26 4.35 2.2 6.63 2.8 1.98.52 4.01.79 6.04.79h.01v-.09.09c2.03 0 4.06-.27 6.04-.79 2.28-.6 4.51-1.54 6.63-2.8l.07-.04-1.04-1.97 2.96-1.68-2.27-1.42-.21-2.32z"/><g fill="#fff"><path d="M555.51 818.36h-.19c-1.98-.02-3.95-.29-5.89-.8-2.28-.6-4.52-1.55-6.65-2.81l-.15-.09.08-.15.96-1.81-2.76-1.57-.26-.15.25-.16 2.1-1.32.2-2.15.02-.26.24.12 6.51 3.31.17.09-.09.16-.76 1.34c.26.12.82.35 1.6.58 1.02.3 2.65.66 4.61.67 3.21-.01 5.57-.96 6.21-1.25l-.76-1.34-.09-.16.17-.09 6.51-3.31.24-.12.02.26.2 2.15 2.1 1.32.26.16-.26.15-2.76 1.57.96 1.81.08.15-.15.09c-2.13 1.26-4.37 2.21-6.65 2.81-1.93.51-3.91.78-5.88.8zm0-.18c3.73-.01 8.11-.91 12.62-3.58l-1.04-1.97 2.91-1.65-2.18-1.36-.2-2.24-6.51 3.31.85 1.51s-2.62 1.34-6.46 1.35c-3.84-.01-6.46-1.35-6.46-1.35l.85-1.51-6.51-3.31-.2 2.24-2.18 1.36 2.91 1.65-1.04 1.97c4.51 2.68 8.9 3.57 12.62 3.58z"/><g fill-rule="evenodd"><path d="m544.21 812.1-2.09-1.15 1.64-.96.18-1.76 4.62 2.31-3.22-.35z"/><path d="M548.54 811.95s-1.5-.65-2.77-1.25l3.3.34zm18.27.15 2.09-1.15-1.64-.96-.18-1.76-4.62 2.31 3.22-.35z"/><path d="M562.5 812s1.5-.65 2.77-1.25l-3.3.34z"/><path d="M565.6 811.2c-7.86 4.09-12.85 3.77-20.1.03-.61 1.16-1.05 1.96-1.69 3.09 7.33 4.17 16.23 4.24 23.4.03-.71-1.23-1.01-2.08-1.62-3.16"/></g></g><g fill="#2b58ae"><path d="m546.56 813.47.29.15a.35.35 0 0 1 .02-.03c.01-.01.01-.02.02-.03a.32.32 0 0 1 .02-.03c.01-.01.01-.02.02-.03.09-.18.1-.33.02-.43-.08-.11-.2-.2-.36-.28l-.21-.1c-.22-.11-.39-.13-.51-.06s-.24.21-.34.41a.76.76 0 0 1-.03.06l-.03.06a.38.38 0 0 1-.02.03l-.02.03c-.01.03-.03.06-.04.09-.02.03-.03.06-.04.08-.13.26-.16.46-.08.59s.24.25.47.37l.1.05c.01 0 .02.01.03.01s.02.01.03.02a.98.98 0 0 0 .22.07c.07.01.15 0 .22-.04.05-.03.09-.06.12-.1s.06-.09.09-.13c0-.01.01-.02.01-.02l.01-.02a.18.18 0 0 1 .02-.03c.01-.01.01-.02.02-.03l-.3-.14c-.01.01-.02.02-.02.03s-.01.02-.02.04v.02a.38.38 0 0 1-.09.11c-.03.03-.09.03-.18-.01a.48.48 0 0 1-.07-.03 1.37 1.37 0 0 0-.07-.03l-.05-.03a.35.35 0 0 0-.04-.03c-.02-.01-.03-.02-.05-.03a.62.62 0 0 1-.09-.07c-.03-.03-.05-.05-.06-.08s-.01-.06-.01-.09.01-.06.02-.09c0-.01.01-.02.01-.03.01-.01.01-.02.01-.03.01-.03.02-.05.03-.08.01-.02.02-.05.04-.07.03-.05.05-.1.08-.15s.05-.1.08-.15c.08-.16.15-.24.22-.25s.18.02.33.1c.09.04.16.09.21.14s.06.13 0 .23l-.01.03-.01.02c-.01.01-.01.02-.02.02a.59.59 0 0 1-.01.03zm.91 1.33.06-.95.55.22zm.08-1.21.03-.35-.32-.13-.11 1.83.45.18 1.19-1.39-.31-.13-.23.27zm1.97 1.26c.1.03.16.07.19.12s.03.12 0 .22-.07.18-.11.22-.12.05-.23.01l-.47-.14.17-.56zm-1.01.61.81.25c.19.06.34.06.45.02.11-.05.19-.17.25-.37.01-.02.01-.04.02-.06a.31.31 0 0 0 .01-.07.58.58 0 0 0 .02-.14.25.25 0 0 0-.04-.14.26.26 0 0 0-.06-.06.58.58 0 0 0-.06-.05.19.19 0 0 1-.03-.02.2.2 0 0 0-.03-.02v-.01c.1.02.18.01.24-.03s.11-.11.14-.21l.11-.36-.32-.1-.09.3-.01.04c-.03.08-.07.13-.12.15s-.12.01-.19-.01l-.45-.14.17-.55-.31-.09zm2.93-.71c.17.04.26.1.28.2.02.09.01.21-.02.36l-.02.09c-.01.05-.02.11-.04.17a.75.75 0 0 1-.05.16c-.03.1-.08.16-.15.17s-.14.02-.23 0l-.48-.1.25-1.14zm-1.09 1.25.84.18c.22.05.39.03.51-.05s.21-.22.26-.45c.01-.02.01-.05.02-.07a.82.82 0 0 1 .02-.07c.01-.02.01-.05.02-.07s.01-.05.02-.07c.05-.21.05-.4.02-.57s-.18-.28-.44-.34l-.89-.19zm2.51-1.29-.33-.05-.26 1.72.33.05zm.65 1.08.77.07.03-.27-.77-.07.07-.71-.33-.03-.16 1.73 1.14.11.03-.28-.81-.08zm1.51.1.77.02.01-.27-.77-.02.02-.72-.33-.01-.04 1.74 1.15.02.01-.28-.82-.02zm2.84-.48.32-.03v-.07a.43.43 0 0 1 0-.04v-.04c-.02-.2-.09-.33-.21-.38s-.27-.06-.45-.05l-.23.02c-.24.02-.4.1-.47.23s-.09.3-.07.53c0 .02 0 .04.01.06v.12c0 .03.01.06.01.1 0 .03.01.06.01.09.03.29.11.47.25.54s.34.09.6.07l.11-.01a.24.24 0 0 1 .03-.01h.04c.08-.01.15-.03.22-.06s.12-.08.16-.15a.37.37 0 0 0 .05-.15.43.43 0 0 0 0-.16v-.06a.32.32 0 0 1 0-.03v-.03l-.33.03v.1a.43.43 0 0 1-.01.14c-.01.04-.07.07-.15.08a.46.46 0 0 1-.07.01c-.02 0-.05.01-.07.01l-.06.01h-.1c-.04 0-.08 0-.11-.01s-.07-.02-.09-.04a.19.19 0 0 1-.05-.07.31.31 0 0 1-.03-.08c0-.01-.01-.02-.01-.04s0-.02-.01-.04c0-.03-.01-.05-.01-.08l-.01-.08c-.01-.06-.01-.11-.01-.17s-.01-.11-.01-.17c-.02-.17 0-.28.06-.33.05-.05.16-.08.33-.09.1-.01.18-.01.26.01.07.01.11.08.13.2v.06a.12.12 0 0 0 0 .03v.03zm.9-.76-.33.05.27 1.71.33-.05zm1.08-.21-.33.07.31 1.41-.49.11.06.29 1.32-.29-.06-.29-.5.11zm1.68.24-.19-.64-.32.1.19.64-.29 1.21.36-.11.19-.83.62.59.37-.11zm1.87-.34.71-.3-.11-.25-.71.3-.28-.66-.31.13.67 1.6 1.06-.45-.11-.26-.75.32zm1.88-1.29.29-.15c-.01-.01-.01-.02-.02-.04 0-.01-.01-.02-.01-.03a.5.5 0 0 1-.02-.03c0-.01-.01-.02-.01-.03-.09-.18-.21-.27-.34-.27s-.28.04-.44.12l-.21.11c-.22.11-.34.24-.35.38s.03.31.13.51l.03.06.03.06c.01.01.01.02.01.03.01.01.01.02.01.03.02.03.03.06.04.09s.03.06.04.09c.13.26.28.4.43.41s.35-.04.58-.16l.1-.05c.01-.01.02-.01.03-.02s.02-.01.03-.02a.92.92 0 0 0 .18-.13c.06-.05.09-.12.1-.2.01-.05 0-.11-.01-.16a1.04 1.04 0 0 0-.06-.15c0-.01-.01-.02-.01-.03a.15.15 0 0 0-.01-.03.37.37 0 0 1-.01-.03c0-.01-.01-.02-.01-.03l-.29.15c0 .01.01.02.01.04l.02.04v.01s0 .01.01.01c.02.04.03.09.04.13s-.03.09-.11.13a.45.45 0 0 1-.06.04c-.02.01-.04.02-.07.03l-.05.03c-.01.01-.03.01-.05.02a.51.51 0 0 1-.05.02.77.77 0 0 1-.11.03.17.17 0 0 1-.1 0 .22.22 0 0 1-.08-.05.4.4 0 0 1-.05-.07.83.83 0 0 1-.02-.03c0-.01-.01-.02-.02-.03-.01-.02-.03-.05-.04-.07s-.03-.05-.04-.07c-.03-.05-.05-.1-.07-.15-.03-.05-.05-.1-.07-.15-.08-.16-.1-.26-.07-.33.03-.06.12-.13.27-.21.09-.05.17-.07.24-.09.07-.01.14.03.19.14 0 .01.01.02.01.02 0 .01.01.02.01.03s.01.02.01.03c.01.01.01.02.01.03zm-9.72-.27c-1 0-1.97-.2-2.88-.58-.88-.37-1.67-.91-2.35-1.59a7.38 7.38 0 0 1-1.59-2.35c-.39-.91-.58-1.88-.58-2.88s.2-1.97.58-2.88c.37-.88.91-1.67 1.59-2.35s1.47-1.21 2.35-1.59c.91-.39 1.88-.58 2.88-.58s1.97.2 2.88.58c.88.37 1.67.91 2.35 1.59a7.34 7.34 0 0 1 1.59 2.35c.39.91.58 1.88.58 2.88s-.2 1.97-.58 2.88a7.35 7.35 0 0 1-1.59 2.35 7.32 7.32 0 0 1-2.35 1.59c-.91.39-1.88.58-2.88.58m0-.3c3.92 0 7.1-3.18 7.1-7.1s-3.18-7.1-7.1-7.1-7.1 3.18-7.1 7.1 3.18 7.1 7.1 7.1"/><path d="M555.56 812.3c-.93 0-1.84-.18-2.69-.54a6.88 6.88 0 0 1-2.2-1.48 6.875 6.875 0 0 1-2.02-4.89c0-.93.18-1.84.54-2.69.35-.82.85-1.56 1.48-2.2a6.88 6.88 0 0 1 2.2-1.48c.85-.36 1.76-.54 2.69-.54s1.84.18 2.69.54c.82.35 1.56.85 2.2 1.48a6.875 6.875 0 0 1 2.02 4.89c0 .93-.18 1.84-.54 2.69-.35.82-.85 1.56-1.48 2.2a6.875 6.875 0 0 1-4.89 2.02m0-.07c3.78 0 6.84-3.06 6.84-6.84 0-3.77-3.06-6.83-6.84-6.83-3.77 0-6.84 3.06-6.84 6.83 0 3.78 3.06 6.84 6.84 6.84"/></g><path fill="#e9e9e8" d="M556.59 809.93c-.84-.31-1.59-1.1-1.74-2.06-.11-.75.26-1.51.94-1.89.48-.27.91-.45 1.44-.51.68-.08 1.46-.13 2.15-.13.53 0 1.71 0 2.06.01.05 0-.04-.05-.06-.05-1.92-.36-2.21-.32-3.65-.79l.01-.02c.95-.28 3.29-2.01 3.55-2.38-1.43.85-3.89 1.94-5.61 1.48-.36-.1-.79-.34-.85-.8-.07-.53.31-1.1.6-1.5.51-.7 1.17-1.39 1.9-1.83.09-.06.19-.11.28-.16-.13-.01-.24 0-.32.03-.01 0-.01.01-.02.01-1.15.52-3.44 2.12-3.44 2.12-.14.11-.28.22-.41.33 0 .01-.01.01-.01.01-.05.04-.1.09-.15.13-.57.53-.93 1.08-1.09 1.65v.01c-.07.24-.1.48-.09.73-.37.34-.71.73-1.02 1.18-.01.02-.02.03-.03.05a.06.06 0 0 0-.01.01c-.23.38-.36.75-.39 1.1a.72.72 0 0 1-.03.13c-.04.13-.1.26-.21.39l.24-.03-.22.32.42-.07c.41.44 1.21-.08 1.56-.36l.03.17c.1.7.6 1.38 1.18 1.83.68.52 1.18.77 1.95.99.24.07.47.13.71.17.29.05.59.11.88.12.12 0 .29.01.41-.03 0 0 .14-.03.1-.04-.09-.02-.58-.16-1.04-.32"/><path fill="#2b58ae" d="M556.21 810.56c-.87-.35-1.64-1.18-1.75-2.17-.09-.78.33-1.54 1.07-1.92.51-.26.98-.44 1.54-.48.73-.06 1.55-.09 2.27-.07.56.01 1.8.05 2.17.07.05.01-.04-.05-.06-.05-2.01-.43-2.31-.39-3.82-.93l.01-.02c1.02-.26 3.55-1.97 3.84-2.34-1.55.83-4.18 1.88-5.97 1.36-.38-.11-.82-.38-.86-.85-.05-.54.37-1.12.69-1.52.56-.7 1.29-1.39 2.09-1.83.1-.06.2-.11.3-.15a.622.622 0 0 0-.34.03c-.01 0-.01.01-.02.01-1.24.5-3.72 2.08-3.72 2.08a7.41 7.41 0 0 0-.45.32h-.01c0 .01-.01.01-.01.01a4.66 4.66 0 0 0-.16.13h-.01c-.62.53-1.03 1.08-1.22 1.66v.01c-.08.24-.12.49-.13.75-.4.33-.86.94-1.06 1.21-.04.05-.51.8-.56 1.15-.01.04-.03.12-.05.16-.04.13-.19.26-.31.39l.33-.05-.35.36.45-.09c.49.34 1.37-.05 1.75-.33.01.06.02.12.02.17.08.72.58 1.44 1.18 1.92.7.56 1.21.82 2.02 1.08.24.08.49.14.74.2.3.06.62.13.93.15.12.01.3.02.43-.02 0 0 .15-.03.1-.04-.09-.02-.61-.18-1.09-.36"/><path fill="#fff" d="M550.68 806.34c-.26.33-.27.44-.4.83a2.2 2.2 0 0 0-.1.45c.05 0 .1.01.15.01h.01c.44 0 .79-.14 1.05-.41.2-.22.35-.52.43-.9zm2.03-2.09s-.12-.84 1.38-2.39c0 0-1.99 1.24-1.85 2.6 0 0 .18-.41.3-.41zm.8 5.11s-1.24-.44-1.18-2.15c0 0 .3-.25.31-.26l.23.03s-.37 1.42.64 2.37"/><path fill="#224781" d="M551.7 805.09s-.03-.21-.04-.44c0 0-1.53 1.39-1.67 2.53 0 0-.29.39-.31.4l.34-.05s-.03-1.22 1.68-2.44m9.78-2.44s-1.8 1.44-5.38 1.79c-3.31.33-.91-2.61-.91-2.61s-.99 1.12-.31 1.82 1.57 1.6 6.6-1"/><path fill="#2b58ae" d="M551.06 807.1c.03.06.03.1 0 .13-.05.06-.18.09-.4.09.18-.3.31-.37.39-.23"/><path fill="#7f171e" d="M553.6 797.12s-.12-.19-.24-.17c0 0-.01-.07.09-.04 0 0 .26.13.26.21 0 0 .02.07-.04.06z"/><path fill="#b31e25" d="M553.28 797.1v.05c0 .03 0 .08-.02.14s-.04.12-.08.18c-.02.03-.05.06-.08.08s-.07.04-.11.05c-.04.02-.08.03-.11.06-.03.02-.06.06-.07.1s0 .08.01.11a.25.25 0 0 0 .06.08c.02.02.05.04.06.05.02.02.03.03.04.05.01.01.02.03.02.04s.01.01.01.01 0-.01-.01-.01c0-.01-.01-.02-.02-.04a.22.22 0 0 0-.04-.05c-.02-.02-.04-.03-.06-.05a.21.21 0 0 1-.05-.08.2.2 0 0 1-.01-.1c.01-.04.03-.07.06-.09s.07-.04.11-.05.08-.03.11-.05c.04-.02.06-.05.09-.08a.54.54 0 0 0 .09-.19.55.55 0 0 0 .02-.15v-.06z"/><path fill="#b31e25" d="m553.28 797.17.01.01c0 .01.01.02.01.03.01.02.02.06.03.1a.31.31 0 0 1-.02.14c-.01.03-.02.05-.04.07l-.06.06a.58.58 0 0 0-.06.07c-.02.03-.03.06-.02.09 0 .03.02.06.04.07.02.02.04.03.07.03.02.01.04.01.06.01s.03.01.04.02.02.01.02.02.01.01.01.01l-.01-.01-.02-.02c-.01-.01-.03-.01-.04-.02-.02-.01-.04-.01-.06-.02a.15.15 0 0 1-.06-.03.12.12 0 0 1-.03-.07.1.1 0 0 1 .03-.08l.06-.06c.02-.02.05-.04.07-.06a.34.34 0 0 0 .05-.08.41.41 0 0 0 .03-.16c0-.02 0-.05-.01-.07s-.01-.04-.01-.05c-.01-.01-.01-.02-.01-.03s-.01-.01-.01-.01z"/><path fill="#7f171e" d="M553.06 796.3s-.04.02-.11.04l-.03.04s-.09 0-.13-.02c0 0 .27-.19.29-.31z"/><g fill="#b31e25"><path d="M553.76 795.78h-.1c-.06 0-.13.01-.19.02a.17.17 0 0 0-.06.03c-.06.04-.09.12-.1.18-.01.02-.01.05-.01.08 0 0-.01.3-.14.43l.01.03s-.07.04-.12.03c0 0 .07-.13.07-.22s-.08.07-.1.1l-.05.05v.03s-.1.04-.15.03c0 0 .04-.04.1-.13.11-.16.15-.4.1-.51 0 0-.11-.11-.18-.14s.16-.01.23.02.12-.04.21-.23.14-.35.42-.44c.06-.01-.04.06-.06.12-.03.11.05.14.09.13.05-.02.14-.16.2-.2 0 0-.16.55-.17.6"/><path d="m552.97 795.79-.04-.04s-.06-.01-.15.02c0 0 .15.04.18.07zm1.09 2.08s-.45-.11-.54-.36c0 0 0 .01-.02 0v.07c.01.02-.09-.04-.11-.16 0 0 .02-.05.04-.06 0 0-.13-.12-.17-.19 0 0-.02.02-.03.06s-.07-.07-.07-.09c0 0-.01-.02.01-.04 0 0 .01-.02.03-.07.03-.05.02.03.03.04 0 0 .09-.04.12-.03s.11.05.13.05c.01 0 .02-.04.03-.04.02 0 .05.06.05.06 0 .02.05 0 .1.03 0 0-.06-.11-.15-.16 0 0-.05.07-.06.05v-.06s0-.03-.06-.03c0 0-.05.04-.05.05s-.02-.01-.01-.04l.01-.03s-.02-.04.02-.08c0 0 .01-.04.01-.06 0 0 .02.01.03.06 0 0 .02-.06.03-.06.01-.01.03.03.03.06 0 .01.05.02.06.02.03.01.05 0 .07-.02.02-.03.02-.07-.01-.09-.02-.01-.04 0-.06.01 0 0-.05.02 0-.04.06-.07.17 0 .14.1-.02.07-.05.08-.05.08s.04.01.04.02c.01.01.07-.02.07-.01s-.02.03-.03.05c-.01.01.07-.03.07-.02.01.01-.01.04-.02.05s.42-.02.06-.67c-.2-.36-.18-.79.14-1.07.42-.37.98-.19 1.29.22.09.12.14.27.24.37.07.07.17.11.27.1.24-.03.36-.28.51-.44.19-.21.45-.39.72-.49.53-.19 1.15 0 1.29.59.07.29-.04.67-.34.79-.18.07-.4 0-.59.06-.07.02-.12.07-.13.14 0 .04 0 .08.02.11.09.14.24.26.37.32.13.07.14.07.16.11-.02.02-.12 0-.33-.13-.46-.26-.5-.63-.14-.74.15-.05.35-.01.44-.17.04-.08.05-.2-.03-.27-.43-.38-1.05.28-1.05.28s.06 0 .14-.04c.09-.03-.16.21-.35.27 0 0 .11-.02.16-.04s-.02.05-.11.11c0 0-.16.11-.33.15 0 0 .06.02.14-.01.08-.02 0 .04-.09.06-.09.03-.33.07-.38.08s.05.03.09.02 0 .02-.08.04c-.1.03-.23.02-.32-.01a.84.84 0 0 1-.49-.28c-.1-.11-.2-.22-.31-.32-.06-.06-.13-.12-.2-.17-.04-.03-.09-.07-.14-.07-.17.01-.16.17-.12.27 0 0 .24.55.24.65 0 0 .06-.05.07-.09s.01.04.01.07c0 .04-.05.15-.06.17s.06-.03.07-.05.03.02 0 .1c0 0-.08.11-.12.14 0 0 .05.01.09 0 .04 0-.02.04-.04.05s-.06.03-.12.04c0 0 .06.06.1.06.04.01-.03.03-.03.03s-.08.02-.16 0c0 0 .03.07.06.08s-.02.03-.08.01c0 0-.08-.03-.09-.03s-.02-.01-.02-.01.05.1.11.12c0 0 0 .04-.1.01l-.02-.01s.07.16.19.21c.08.04-.13.01-.16.01s-.19-.05-.28-.12c0 0 0 .04.02.06s-.04.01-.04.01l-.04-.01s.13.14.19.17c.03.02-.02.01-.02.01"/></g><path fill="#fff" d="M553.73 797.31s.01 0 .01.01c.02.01.04.03.06.04.01.01.04.04.04.05 0 .02-.04 0-.05 0a.89.89 0 0 1-.11-.04c-.01 0-.01 0-.01-.01v-.02c.01-.02.04-.04.06-.04"/><g fill="#b31e25"><path d="M556.21 795.61s-.05-.08-.14-.14c-.07-.05-.12-.13-.01-.22.14-.12.27-.16.33-.21 0 0 0-.06-.09-.06l-.21.04s-.15.06-.16.07c-.03 0-.1.04-.17 0-.04-.02-.09-.02.02-.04 0 0 .03 0 .13-.04-.15.01-.15-.03-.21-.02-.04.01-.1-.02-.1-.07 0 0 .13.01.21-.01.13-.02.14-.02.14-.02s-.18-.03-.23-.13c0 0 .15.02.35.04.2.03.5.02.59.01s-.04.16-.04.16-.09.19.01.2l.06.03s-.11.17-.47.42"/><path d="m555.85 795.07.02.06s-.18-.04-.2-.08h.22zm-.14-.09-.04.03s-.11-.03-.16-.11c0 0 .17.03.29.01zm.09-.14-.04.04s-.14-.06-.18-.13c0 0 .29.05.41.06zm.44-.26-.06.03s-.11-.07-.15-.15l.31.06zm.08-.15-.04.03s-.1-.1-.1-.18c0 0 .32.16.37.18z"/></g><g fill="#7f171e"><path d="M553.49 797.48s.06.02.08.01c0 0 .05.09.09.1s.01-.01-.01-.07c0 0-.04-.1.1.02l.1.08s.06-.03.11-.18c0 0 .07.22.45.31.02.01-.01.01-.02.02-.04.01-.08 0-.12-.01a.9.9 0 0 1-.13-.04.73.73 0 0 1-.07-.03c-.02-.01-.04-.02-.06-.02a.14.14 0 0 0-.02-.01c-.01 0-.02 0-.03-.01.01.01.01.02.02.03l.01.02c-.02.01-.1-.01-.1-.01s-.2-.08-.28-.06c0 0-.06-.06-.12-.15m-.14-.34s.05.14.16.08c0 0 .03-.02 0-.03 0 0-.1-.04-.16-.06m.42-.16c.08.05.19.03.25-.04.05-.06.06-.15.05-.23-.03-.18-.09-.34-.17-.5-.04-.08-.07-.17-.12-.24-.04-.06-.1-.13-.08-.21-.02.09-.01.18.01.28.02.09.07.18.11.27.07.15.18.32.14.49-.02.09-.1.18-.2.18"/><path d="M553.97 796.36s-.25-.7.16-1.11l.13-.19s-.54.21-.56.74c0 0 .1.43.26.56m.67-.97c0 .01-.03.1-.02.1.09.04.08.3.47.59a.784.784 0 0 0 1.21-.25s.37-.64.72-.79c.07-.03.03-.03.02-.04-.01-.02.05-.05-.05-.02-.14.04-.59.28-.82.61-.02.04-.35.63-.76.14a.04.04 0 0 1-.01-.01c-.02-.05-.22-.51-.74-.65-.02-.01-.04.01-.04.03z"/></g><g fill="#b31e25"><path d="m553.7 794.84-.05.02s-.04-.04-.05-.1c0 0 .13.05.25.06zm-.05-.17-.06.01s-.05-.07-.04-.12l.17.1zm.22-.1-.09-.04s-.03-.03-.01-.13c0 0 .19.15.37.25zm.75.26.04.03s.08-.01.11-.07c0 0-.13.02-.22-.01z"/><path d="M555.02 796.39c-.02-.02-.06-.01-.08-.04 0 0 .05.11.02.36-.01.1-.02-.08-.02-.08s-.01-.13-.12-.25-.19-.14-.23-.25c0 0-.04.02.03.12.06.08-.04.02-.08-.04s-.1-.16-.12-.32c-.03-.17-.38-.32-.27-.48.03-.04.09-.23.09-.26 0-.05-.06-.1-.09-.14-.01-.01-.05-.09-.06-.09 0 0-.33-.02-.42-.1-.04-.03 0-.03 0-.03s.2.04.24.01c.03-.02-.04-.03-.05-.03-.02-.01-.04-.01-.06-.02-.07-.03-.14-.06-.19-.1-.07-.06-.03-.06-.03-.06s.19.09.33.08c0 0-.12-.14-.12-.22 0 0 .03.01.11.09.07.08.47.21.55.23.01 0 .17.03.23.03.11 0-.07.05-.07.05s-.08.02-.14.02.04.08.07.09c0 0 .13.05.26.01.08-.03-.05.11-.11.13.02.05.05.1.06.15.02.08.03.15.09.21a.15.15 0 0 1-.12-.04c-.03.07-.02.15.03.21.04.05.09.08.14.12.07.06.14.13.2.21.09.12-.01 0-.09-.01 0 0-.03.02.09.14s.02.03-.07.02.02.05.07.1c.21.24.32.14.19.53 0 .01-.1-.15-.27-.34"/></g><path fill="#7f171e" d="M556.26 794.99s.13-.07.1-.16c0 0 .13 0 .3-.02.09 0-.07.23-.07.23s-.04.12.05.14l-.43.42s-.06-.08-.16-.14c-.12-.08-.03-.2.15-.31l.19-.11s.01-.08-.13-.05m1.2.23c.11.29.96-.11.8.84 0 0 .35-.65-.46-1.07 0 0-.19-.08-.42-.07 0 0 .04.18.08.3"/><path fill="#b31e25" d="m557.35 794.96-.04.25c-.07.04-.23-.13-.23-.13s-.01-.13-.11-.21c-.09-.08-.32-.12-.38-.12-.07 0-.09.01-.26.01-.18 0-.19-.09-.19-.09h.05c.05 0 .13 0 .21-.03s-.14-.04-.14-.04c-.13-.01-.18-.1-.18-.1 0-.04.07-.02.07-.02.05 0 .2.03.2.03s.25.07.12 0c-.14-.07-.19-.07-.17-.11.01-.03 0-.06.09-.03.05.02.17.09.17.09.54.24.73.18.85.22s-.02.24-.02.24z"/><path fill="#7f171e" d="M554.15 797.2s.03.06.13.1c0 0-.03-.12-.07-.16-.05-.03-.1-.03-.06.06m-.14.1s.04.07.14.11c0 0-.03-.13-.08-.17s-.11-.03-.06.06m.28-.18s.02.03.06.05c0 0-.01-.06-.04-.08s-.05-.02-.03.03m.1-.08s.02.03.06.05c0 0-.01-.06-.03-.07-.02-.02-.05-.01-.03.03m-1.24-1.25c.02.01.31-.42.56-.41 0 0-.12-.04-.05-.16 0 0 .07-.08.06-.09 0 0-.29-.04-.57.66"/><g fill="#b31e25"><path d="m556.29 794.74-.03.04s-.14-.06-.17-.12c0 0 .21.02.34 0zm1.37 2.34v.04c.01.02.01.04.03.06s0 0-.01 0c-.06-.01-.1-.09-.12-.14s.09.02.09.04m.09.04v.03c0 .01.01.03.02.04-.04-.01-.06-.06-.08-.09-.01-.03.06.01.06.03m-.2-.08v.04c0 .03.02.06.04.08v.01h-.01c-.08-.02-.13-.13-.15-.21-.02-.07.13.04.13.08m-.16-.11v.05c0 .04.02.09.04.12v.01h-.01c-.12-.03-.17-.21-.2-.32s.17.08.17.14"/><path d="M557.22 796.78s-.01.04-.02.06c-.01.05.01.11.02.15v.01c0 .01-.01 0-.01 0-.19-.13-.13-.27-.12-.39 0-.01.15.11.13.17"/></g><path fill="#7f181e" d="M553.57 796.85h.04c.02-.01.03-.02.03-.04.01-.05-.03-.08-.08-.07 0 0 .04-.01.05.06 0 0 0 .04-.05.06"/></g></svg>