<svg xmlns="http://www.w3.org/2000/svg" width="309.3537pt" height="448.19266pt" viewBox="0 0 309.35371 448.19268"><path d="M200.703 197.777c-.168-3.527-.64-7.714-2.785-11.504-.75-1.324-1.504-2.945-3.328-2.773-1.777.168-2.375 1.852-2.899 3.266-.523 1.43-.863 2.953-1.078 4.46-.738 5.16-.043 10.16 2.043 14.926.735 1.668 1.68 3.703 3.672 3.672 2.094-.031 2.64-2.254 3.246-3.957.844-2.37 1.14-4.851 1.13-8.09M222.066 208.352c4.032-6.993 4.551-14.38 1.75-21.95-.464-1.257-1.277-2.57-2.82-2.578-1.379-.004-2.16 1.2-2.793 2.281-2.246 3.852-2.996 8.083-3.031 13.786-.063 2.011.289 5.254 1.89 8.222 1.465 2.707 3.465 2.907 5.004.239" style="fill:#e1a82b;fill-opacity:1;fill-rule:evenodd;stroke:none" transform="matrix(1.58114 0 0 1.58114 -176.988 -246.509)"/><path d="M189.3 206.594c-1.015 1.57-3.562.492-3.417 2.562.101 1.356 1.89.297 2.82 1.137-3.226 1.234-6.203 2.73-8.851 4.86-3.692-8.798-3.23-19.524 1.136-28.512 1.782-3.668 1.606-4.176-2.011-6.317-2.532-1.5-4.41-3.46-4.29-6.664.102-2.824 1.731-4.004 4.418-3.21 1.68.491 3.137 1.312 4.364 2.652 2.402 2.636 3.66 2.687 6.672.593.234-.164.48-.316.714-.484 5.297-3.695 8.598-3.129 12.583 1.926 1.175 1.496 1.437 4.394 3.222 4.441 1.945.047 1.895-2.922 2.988-4.422 2.961-4.074 8.946-5.62 13.676-2.914 3.059 1.75 5.754 2.977 8.992.606 1.032-.75 2.422-.606 3.66-.36 1.372.266 2.684.899 3.102 2.29.379 1.261-.672 2.14-1.582 2.827-3.644 2.754-3.941 6.262-2.637 10.32 2.7 8.41 2.54 18.97-.257 24.923-2.489-1.25-5.164-1.985-7.95-2.594.157-.258.207-.453.301-.484 1.031-.286 2.711.972 3.047-.567.418-1.871-1.719-1.219-2.652-1.808-.309-.196-.645-.356-.985-.543.742-1.254 1.785-.504 2.668-.606.64-.07 1.496.063 1.621-.812.118-.844-.523-1.176-1.285-1.176-.957-.004-1.918-.246-1.804-1.34.125-1.238 1.23-.887 2.07-.809.754.07 1.672.332 1.781-.8.078-.88-.687-.989-1.387-1.11-.875-.152-1.972-.5-1.808-1.48.176-1.035 1.39-.73 2.226-.817.57-.062 1.328-.07 1.414-.734.13-.973-.761-.914-1.398-.984-.871-.09-1.977-.07-1.996-1.188-.027-1.203 1.16-.996 1.96-1.098.708-.097 1.481-.25 1.47-1.066-.016-.996-.95-.707-1.563-.762-.77-.066-1.547-.062-2.187-.636.03-.141.019-.336.113-.422.844-.793 3.058-.203 2.726-1.875-.261-1.29-2.086.011-3.152-.621-.02-1.555 3.04-1.25 2.133-3.051-.621-1.238-2.133.137-3.305-.309-.2-1.726 2.473-1.46 2.25-3.187-1.336-.906-2.5.922-3.844.226-.023-.113-.132-.3-.082-.418.442-.984 2.457-1.398 1.582-2.672-.64-.933-2.125-.214-3.226.168-6.399 2.2-8.79 7.41-9.832 13.442-1.059 6.16-1.23 12.293 2.426 17.844.484.734.12.964-.446 1.28-2.203 1.243-4.144 2.806-5.672 4.833-.496.652-.855.851-1.53.187-2.5-2.457-5.665-3.949-8.7-5.765 4.574-7.73 4.055-15.746 1.297-23.817-1.43-4.187-4.442-6.894-8.664-8.199-.969-.305-2.29-.902-2.895.125-.644 1.094.864 1.465 1.45 2.14.183.212.347.427.57.704-.801.91-1.625.305-2.344.031-.644-.246-1.45-.754-1.82-.101-.52.917.574 1.195 1.125 1.652.433.355.824.762 1.265 1.176-1.054 1.414-3.144-1.028-3.672.953-.382 1.433 1.934 1.355 2.227 2.64-1.027.778-3.023-.66-3.219.922-.152 1.29 1.836 1.324 2.957 1.926-.765.746-1.695.742-2.597.82-.563.047-1.285-.004-1.25.805.027.66.605.922 1.226.988.48.055.985.04 1.43.184.512.172 1.226.262 1.262.976.03.766-.727.82-1.22.985-.534.176-1.14.14-1.71.219-.512.066-1.02.304-.98.851.03.531.582.684 1.07.79.965.21 2.535-.376 2.683.995.149 1.414-1.394 1.211-2.386 1.407-.641.128-1.043.554-.88 1.234.177.723.837.68 1.403.684.883 0 2.18-.77 2.434.585.234 1.243-1.082 1.34-2.024 1.52-.61.113-1.144.387-1.09 1.082.063.734.75.79 1.309.875.828.133 1.66.215 2.758.348" style="fill:#f5f3f3;fill-opacity:1;fill-rule:nonzero;stroke:none" transform="matrix(1.58114 0 0 1.58114 -176.988 -246.509)"/><path d="M209.793 157.973c-30.785 0-61.566.054-92.352-.082-3.062-.012-3.554.914-3.546 3.699.097 31.36.171 62.723.011 94.082-.066 12.492.856 24.851 3.418 37.059 10.887 51.914 40.113 88.972 89.184 109.937 2.191.938 4.199.941 6.402.02 16.68-7.008 31.969-16.25 45.156-28.688 30.739-29.004 45.555-65.484 47.118-106.984 1.324-35.27.289-70.625.41-105.946.008-2.55-.61-3.168-3.164-3.156-30.88.098-61.758.059-92.637.059zm.242-1.993c31.453 0 62.91.036 94.367-.058 2.516-.008 3.196.547 3.188 3.14-.102 32.715-.227 65.426-.012 98.137.168 26.117-4.93 51.035-16.11 74.625-13.695 28.906-34.905 50.723-63.07 65.79-4.66 2.488-9.52 4.6-14.293 6.878-2.863 1.371-5.69 1.301-8.62.051-45.172-19.281-74.368-52.586-87.52-99.875-4.567-16.43-6.211-33.195-6.012-50.293.375-31.648.14-63.3.043-94.95-.008-2.679.469-3.53 3.38-3.519 31.55.121 63.105.078 94.66.074" style="fill:#3d3a3a;fill-opacity:1;fill-rule:nonzero;stroke:none" transform="matrix(1.58114 0 0 1.58114 -176.988 -246.509)"/><path d="M147.031 378.14c-1.332.942-2.652.368-2.93 1.852-.042.211.2.676.352.695 1.258.153 1.922-.566 2.578-2.546zm125.723.883c.562 1.786 1.61 2.141 2.98 1.875.485-.093.563-.457.395-.859-.652-1.492-1.977-.559-3.375-1.016zm-126.168-10.75c-.7 1.7-1.246 3.024-1.95 4.723 3.044-1.77 3.11-1.93 1.95-4.723zm1.547 5.582c-1.735 1.153-3.367 1.56-4.688 3.598 2.575-.238 4.172-.644 4.688-3.598zm123.027 1.047c.7 1.856 1.922 2.446 3.457 2.524.555.031 1.219.117 1.36-.668.136-.766-.399-.926-1.02-1.04-1.191-.218-2.367-.503-3.797-.816zM130.625 385.32c.785-1.586.855-3.148.55-4.972-3.183 2.16-3.238 2.882-.55 4.972zm157.32-4.93c-.586 1.419-.011 2.59.164 3.778.067.445.04 1.043.653 1.145.566.093.816-.415 1.062-.797 1.531-2.352-.133-3.172-1.879-4.125zm-10.172-2.163c.153.738-.085 1.925 1.332 1.968 1.204.04 1.633-.726 1.625-1.875-.008-1.183-.66-1.789-1.703-1.96-1.414-.231-1.156.882-1.254 1.867zm-136.98-8.653c.77-5.25.102-6.34-3.559-6.355 1.625 1.691 2.188 3.847 3.559 6.355zm136.242.637c-.176-1.23-.344-2.426-.523-3.629-.082-.543-.031-1.27-.805-1.238-.394.02-.855.39-1.137.726-1.328 1.586-.554 2.895 2.465 4.14zm-144.898 2.777c-3.63-1.644-5.871-.535-6.215 3.16 1.848-1.613 4.125-2.085 6.215-3.16zm149.648-10.004c-4.144.782-4.957 2.579-2.937 5.961.672-2.105 1.718-3.918 2.937-5.96zm11.828 13.559c-1.066-4.254-3.078-5.176-6.62-3.445 2.245.882 4.445 1.507 6.62 3.445zm-161.707-.723c-2.547-.148-4.23.836-5.324 2.864-.285.527-.36 1.14.242 1.527.524.336.91-.07 1.242-.406 1.243-1.258 3.008-2.024 3.84-3.985zm10.34 2.797c-.164-.965-.46-2.215-2.035-2.305-1.262-.074-1.977.817-1.969 1.961.016 1.829 1.653 1.778 2.871 2.063 1.203.277 1.106-.652 1.133-1.719zm150.645.719c-.47-2.125-2.332-2.777-4.079-3.524-.437-.19-.984-.23-1.304.239-.461.664.086 1.047.512 1.41 1.09.934 2.18 1.871 3.308 2.754.977.758 1.332.12 1.563-.88zm-20.395-11.348c-.898 2.063-.875 3.567.324 4.91 1.047 1.168 2.325 1.301 3.965.653-1.441-1.871-2.7-3.5-4.289-5.563zm-138.406 2.297c-2.313-2.687-4.492-3.316-6.074-1.988-.45.371-.942.805-.774 1.437.145.547.727.547 1.207.547 1.793.008 3.582.004 5.64.004zm150.148.13c2.598 0 4.489.054 6.371-.028.649-.028 1.77.523 1.844-.656.067-1.043-.687-1.856-1.754-1.977-2.27-.254-4.347.191-6.46 2.66zm-146.574-1.59c-1.453-5.509-3.918-6.415-7.523-3.052 2.687.356 4.824 1.872 7.523 3.051zm152.23-3.083c-1.828-1.43-3.148-2.988-5.199-2.062-2.183.984-3.16 2.89-3.355 5.722 2.57-2.027 5.129-3.226 8.555-3.66zm-153.69 12.305c.566-1.953 1.429-3.36 3.46-3.57.621-.067 1.434.187 1.504-.836.07-.98-.395-1.641-1.309-1.98-1.734-.641-3.46-.806-4.609.96-1.219 1.875-1.344 3.746.953 5.426zm148.562-3.106c.109-1.941-.938-3.007-2.66-3.613-1.442-.508-2.692-.258-3.567.985-.633.886-1.191 1.937.668 2.222 1.613.25 2.813.977 3.27 2.75.316 1.235 1.046.707 1.628.082.641-.695.618-1.574.66-2.426zm-8.778 15.942c0 .703-.011 1.281.004 1.855.02.832-.36 1.84.52 2.38.945.577 1.586-.34 2.25-.805 1.73-1.208 3.367-2.551 5.137-3.692 2.218-1.43 3.011-3.3 2.359-5.86-.258-1.015-.305-2.085-.488-3.12-.23-1.329-.63-2.141-2.192-1.094-1.945 1.297-4.191 1.945-6.508 2.07-2.03.11-2.324.856-1.765 2.715.539 1.813.87 3.738.683 5.55zm-142.12-11.242c-2.118 8.421-1.493 9.914 5.741 14.226.578.344 1.188.63 1.75.988 1.457.938 2.02.56 1.98-1.168-.085-3.64.118-7.261 1.235-10.988-3.914.168-7.316-.96-10.707-3.058zm160.94 1.882c-1.386 1.852-2.394 3.375-3.578 4.747-6.046 7.003-13.863 11.66-21.945 15.738-28.933 14.61-59.375 17.61-90.777 10.472-16.586-3.77-31.942-10.632-45.488-21.156-3.422-2.656-5.895-6.172-8.47-9.91-1.25 3.871-2.027 7.512-4.128 10.566-2.95 4.301-2.363 8.243.621 12.235 5.172 6.918 11.5 12.539 19.184 16.402 20.761 10.438 42.777 16.246 66.05 16.914 11.41.328 22.684-1.039 33.852-3.36 15.176-3.151 29.824-7.698 43.047-16.081 6.761-4.29 12.613-9.492 16.648-16.54 1.293-2.257 1.617-4.464.32-6.84-2.226-4.062-3.937-8.343-5.335-13.187zm-81.273 57.832c-24.957-.19-48.988-4.605-71.594-15.578-8.898-4.32-16.484-10.207-22.425-18.199-3.532-4.758-4.184-9.465-.848-14.648 2.75-4.282 3.863-9.184 4.453-14.188.281-2.394.461-4.8 1.227-7.097 1.859-5.575 7.793-9.395 13.8-8.915 5.797.461 10.77 4.852 11.914 10.504.63 3.11-.218 5.938-1.742 8.57-2.828 4.883-3.12 10.227-3.097 15.657.008 1.469.906 2.184 2.078 2.828 15.722 8.676 32.484 13.715 50.418 15.16 20.574 1.66 40.539-.66 59.804-8.25 4.649-1.836 9.149-4 13.567-6.336 2.02-1.07 2.953-2.617 2.926-4.875-.047-4.945-.641-9.683-3.223-14.14-3.77-6.52-1.406-14.106 5.125-17.559 6.402-3.387 14.55-.93 18.008 5.34 1.539 2.789 1.926 5.82 2.195 8.883.496 5.66 2.281 10.914 5.121 15.777 2.363 4.047 2.059 7.824-.414 11.656-5.555 8.606-13.473 14.485-22.308 19.22-14.415 7.722-30.09 11.562-46.028 14.48-6.262 1.144-12.582 1.828-18.957 1.71" style="fill:#3d3a3a;fill-opacity:1;fill-rule:nonzero;stroke:none" transform="matrix(1.58114 0 0 1.58114 -176.988 -246.509)"/><path d="M209.805 161.445c-29.72 0-59.442.028-89.164-.054-2.532-.008-3.371.492-3.36 3.242.106 30.879.145 61.758.031 92.637-.043 12.195.961 24.265 3.559 36.171 10.898 49.903 39.188 85.645 86.434 105.922 1.62.692 3.054.77 4.699.074 16.672-7.058 31.933-16.363 44.96-28.98 29.673-28.73 43.657-64.55 44.888-105.18 1.015-33.547.18-67.152.269-100.73.008-2.54-.59-3.176-3.152-3.168-29.723.101-59.442.066-89.164.066zm-.012-3.472c30.883 0 61.762.039 92.64-.059 2.551-.008 3.169.606 3.157 3.156-.113 35.32.922 70.676-.406 105.946-1.559 41.5-16.38 77.98-47.118 106.984-13.183 12.438-28.476 21.676-45.16 28.688-2.195.921-4.203.917-6.398-.02-49.07-20.965-78.301-58.023-89.184-109.938-2.562-12.207-3.48-24.562-3.422-37.058.164-31.36.09-62.723-.004-94.086-.011-2.785.477-3.707 3.543-3.695 30.785.136 61.57.082 92.352.082" style="fill:#e1a82b;fill-opacity:1;fill-rule:nonzero;stroke:none" transform="matrix(1.58114 0 0 1.58114 -176.988 -246.509)"/><path d="M281.016 413.785c-1.493-3.14-3-6.336-4.536-9.512-.367-.757-.695-1.675-1.89-.957-.922.555-1.895.942-1.195 2.38a281.586 281.586 0 0 1 4.199 9.1c.386.892.875 1.25 1.734.782.715-.39 1.66-.621 1.688-1.793zm-19.504 8.93c-1.063-3.168-2.223-6.809-3.52-10.399-.406-1.125-1.308-.285-1.972-.132-.926.214-1.204.808-.915 1.726 1.028 3.281 2.032 6.57 3.047 9.856.258.836.75 1.398 1.684 1.004.727-.31 1.812-.317 1.676-2.055zm-86.262-4.965c.328-1.043-.328-1.504-1.395-1.855-1.105-.368-1.656.027-1.906 1.039-.812 3.351-1.61 6.71-2.41 10.066-.316 1.336.602 1.645 1.59 1.883.988.238 1.61.039 1.851-1.133.68-3.281 1.477-6.543 2.27-10zm14.773 2.785c.192-.656-.257-1.238-1.5-1.402-1.21-.16-1.718.25-1.875 1.48-.418 3.239-.93 6.457-1.457 9.676-.23 1.395.418 1.89 1.68 2.074 1.285.188 1.652-.383 1.785-1.566.367-3.242.852-6.473 1.367-10.262zm-8.617-.973c.485-1.507-.383-1.867-1.414-2.097-1.242-.281-1.699.297-1.887 1.484-.375 2.371-.859 4.727-1.351 7.074-.902 4.305-.922 4.305 3.433 5.098.192.04.383.078.57.094.93.082 1.93.437 2.22-1.024.27-1.34-.696-1.52-1.497-1.605-1.738-.188-1.597-1.078-1.285-2.402.532-2.239.84-4.532 1.211-6.622zm44.989 1.817c-.145-.73-.07-1.664-1.227-1.563-1.816.16-3.625.36-5.438.555-.664.074-1.035.457-1.035 1.14.004.653-.132 1.579.797 1.56 1.848-.051 1.555 1.265 1.684 2.331.16 1.336.117 2.707.426 4.004.34 1.418-1.063 4.035 1.793 3.926 3.171-.113 1.285-2.758 1.52-4.258.37-2.406-2.161-5.36 1.417-7.16.09-.047.047-.352.063-.535zm-96.833-14.645c.094 2.399 1.254 3.961 3.125 5.028.81.46 1.723 1.074 2.536-.031.922-1.258.078-1.696-.903-2.364-2.32-1.574-.96-3.43.004-5.027.817-1.348 1.785-3.082 3.793-1.293.66.586 1.219.476 1.64-.258.427-.742.442-1.516-.226-2.113-1.683-1.516-3.605-2.442-5.726-1.031-2.543 1.691-3.766 4.28-4.242 7.09zm34.043 19.82c3.157.051 4.868-2.413 3.758-5.136-.465-1.14-1.289-2.133-1.87-3.23-.243-.461-.688-1.004-.134-1.575.543-.566 1.032-.226 1.516.094.633.418 1.348 1.125 1.844-.027.39-.907.46-1.903-.633-2.512-1.59-.879-3.234-1.414-4.856-.2-1.64 1.223-1.687 2.934-1.039 4.677.297.789.875 1.48 1.329 2.218.445.723 1.195 1.473.453 2.317-.715.804-1.399.023-1.996-.36-.606-.39-1.2-.828-1.649.051-.383.766-.762 1.633.156 2.34 1.008.781 2.133 1.281 3.121 1.344zm119.137-28.312c-1.433.528-3.039 1.531-3.48 3.66-.36 1.696.312 3.11 1.836 3.848.914.445 2.039.46 3.074.633.773.129 1.613.176 1.77 1.148.128.824-.547 1.13-1.157 1.446-.723.382-2.144.14-1.383 1.785.723 1.558 1.805 1.191 2.871.664 2.055-1.012 3.465-2.555 3.055-5.016-.383-2.328-2.129-2.957-4.25-3.062-.91-.047-2.176.015-2.484-1.016-.305-1.027.804-1.375 1.601-1.68.625-.234 1.043-.511.66-1.246-.347-.668-.582-1.496-2.113-1.164zm-72.097 29.074v2.317c0 4.824.214 5.008 5.093 4.336.192-.028.383-.028.578-.043.954-.078 1.317-.602 1.278-1.543-.043-.903-.563-1.074-1.328-1.125-.942-.067-2.22.46-2.235-1.356-.008-1.476.88-1.46 1.887-1.465.89 0 1.125-.554 1.094-1.335-.028-.77-.278-1.336-1.184-1.239-.879.09-1.781.32-1.832-1.066-.047-1.41.871-1.54 1.906-1.54.946 0 1.465-.378 1.34-1.39-.12-1.039-.879-1.05-1.695-1.117-4.813-.41-4.977-.27-4.906 4.543.011.672.004 1.348.004 2.023zm24.57 2.45c-.18.644-.45 1.558.484 1.617.95.062 2.297.355 2.625-1.078.485-2.157 1.305-2.774 2.863-.817.915 1.145 1.934.637 2.84.18 1.332-.672.211-1.523-.09-2.152-1.328-2.774-2.75-5.504-4.175-8.23-.41-.782-.543-1.923-1.977-1.606-1.324.3-1.57 1.183-1.668 2.324-.273 3.258-.597 6.512-.902 9.762zm-33.754-2.946c-.086-1.285-.04-2.363-.262-3.382-.43-2.024-1.758-3.075-3.847-3.25-2.188-.188-3.805.507-4.5 2.683-.707 2.215-1.02 4.508-.704 6.824.332 2.41 1.727 3.727 4.22 3.907 2.5.183 4.081-.848 4.612-3.309.254-1.207.344-2.457.48-3.473zm-52.504-17.672c.09-2.668-1.152-4.05-3.062-4.843-1.614-.668-3.247-.594-4.461.875-1.743 2.117-2.899 4.547-3.141 7.293-.207 2.382 1.36 3.668 3.316 4.53 1.66.735 3.246.579 4.422-.905 1.707-2.153 2.582-4.676 2.926-6.95zm100.645 14.914c.804.926 1.468 1.622 2.046 2.375.77 1.004 1.606.715 2.567.348 1.203-.465.898-1.234.652-2.105a891.382 891.382 0 0 1-2.62-9.45c-.278-1.007-.743-1.535-1.856-1.02-.758.349-1.813.392-1.454 1.685.196.707.68 1.386.149 2.3-.461-.558-.934-1.035-1.293-1.582-.711-1.086-1.652-1.226-2.758-.758-1.281.543-.8 1.536-.59 2.457.7 2.997 1.434 5.985 2.059 8.997.418 2.015 1.742 1.59 2.793.945 1.758-1.074-.195-2.602.305-4.192zm-93.852-11.046c-.055-1.098-.063-2.04-.156-2.977-.11-1.082-1.086-1.238-1.86-1.562-.738-.313-1.05.242-1.265.785-1.285 3.308-2.59 6.613-3.809 9.945-.476 1.305.668 1.602 1.516 2.008.996.473 1.379-.172 1.71-.934.333-.758.407-1.66 1.25-2.273.052 1.129.137 2.168.141 3.203.004 1.324.801 1.797 1.938 2.105 1.512.414 1.555-.824 1.844-1.62 1.03-2.891 1.937-5.821 2.945-8.723.39-1.125.113-1.75-1.004-2.243-1.203-.53-1.805-.156-2.18.965-.144.434-.144.961-1.07 1.32zm111.406-.516c-1.261-.414-1.574-1.656-2.293-2.5-.66-.781-1.351-.973-2.281-.574-1.008.43-1.11 1.105-.855 2.101.816 3.164 1.523 6.356 2.335 9.524.172.652.215 1.746 1.372 1.402.773-.23 1.789-.36 1.902-1.48.055-.551.008-1.118.008-1.73 1.07.26 1.512 1.62 2.86 1.089 1.398-.55.894-1.875 1.34-3.375.91 1.98 1.925 1.965 3.19 1.121 1.508-1.012.294-1.871-.136-2.664-1.38-2.531-2.863-5.008-4.32-7.504-.415-.71-.63-1.707-1.875-1.203-1.114.45-1.81 1.05-1.485 2.383.266 1.097.613 2.203.238 3.41zm27.653-30.977c1.398 4.844 3.109 9.125 5.336 13.192 1.296 2.375.972 4.578-.32 6.832-4.036 7.047-9.888 12.254-16.65 16.543-13.222 8.387-27.87 12.93-43.046 16.082-11.168 2.32-22.442 3.687-33.852 3.36-23.273-.669-45.289-6.473-66.05-16.915-7.684-3.863-14.012-9.484-19.184-16.402-2.984-3.988-3.57-7.934-.621-12.23 2.101-3.06 2.879-6.704 4.129-10.57 2.574 3.737 5.047 7.253 8.469 9.91 13.546 10.523 28.898 17.39 45.488 21.155 31.402 7.137 61.844 4.137 90.777-10.472 8.082-4.078 15.899-8.735 21.945-15.735 1.184-1.375 2.192-2.898 3.579-4.75" style="fill:#e1a82b;fill-opacity:1;fill-rule:nonzero;stroke:none" transform="matrix(1.58114 0 0 1.58114 -176.988 -246.509)"/><path d="M133.867 379.64c3.387 2.098 6.79 3.227 10.707 3.06-1.117 3.726-1.32 7.35-1.238 10.988.047 1.726-.516 2.101-1.977 1.167-.562-.359-1.175-.644-1.75-.988-7.234-4.312-7.859-5.804-5.742-14.226M275.988 390.883c.188-1.813-.144-3.738-.683-5.551-.563-1.863-.266-2.602 1.765-2.715 2.317-.125 4.563-.777 6.508-2.074 1.563-1.043 1.961-.23 2.192 1.098.183 1.035.23 2.105.488 3.117.652 2.558-.145 4.433-2.36 5.863-1.77 1.14-3.406 2.484-5.136 3.692-.664.468-1.305 1.386-2.25.804-.88-.539-.5-1.547-.52-2.379-.015-.578-.004-1.148-.004-1.855" style="fill:#e1a82b;fill-opacity:1;fill-rule:nonzero;stroke:none" transform="matrix(1.58114 0 0 1.58114 -176.988 -246.509)"/><path d="M284.762 374.945c-.043.848-.016 1.727-.657 2.422-.582.625-1.312 1.153-1.628-.086-.457-1.77-1.657-2.496-3.274-2.742-1.855-.289-1.297-1.34-.668-2.226.88-1.243 2.133-1.493 3.574-.985 1.72.606 2.762 1.672 2.653 3.617M136.203 378.047c-2.297-1.68-2.176-3.55-.95-5.426 1.145-1.766 2.872-1.601 4.606-.96.914.339 1.38 1 1.309 1.98-.07 1.023-.879.77-1.504.836-2.031.21-2.894 1.62-3.46 3.57" style="fill:#f0eeee;fill-opacity:1;fill-rule:nonzero;stroke:none" transform="matrix(1.58114 0 0 1.58114 -176.988 -246.509)"/><path d="M289.895 365.742c-3.426.434-5.985 1.633-8.555 3.66.195-2.832 1.172-4.738 3.355-5.722 2.051-.926 3.371.632 5.2 2.062M137.664 368.828c-2.7-1.183-4.832-2.703-7.523-3.055 3.601-3.363 6.07-2.453 7.523 3.055M284.238 370.418c2.114-2.469 4.192-2.918 6.461-2.664 1.067.121 1.824.933 1.754 1.976-.074 1.18-1.195.633-1.84.657-1.886.082-3.781.03-6.375.03M134.09 370.285c-2.059 0-3.848.004-5.637-.004-.484 0-1.066 0-1.21-.547-.165-.633.323-1.066.769-1.441 1.59-1.32 3.765-.695 6.078 1.992" style="fill:#d19e2e;fill-opacity:1;fill-rule:nonzero;stroke:none" transform="matrix(1.58114 0 0 1.58114 -176.988 -246.509)"/><path d="m272.5 367.984 4.285 5.57c-1.644.645-2.922.512-3.965-.656-1.199-1.343-1.226-2.851-.32-4.914" style="fill:#e1a82b;fill-opacity:1;fill-rule:nonzero;stroke:none" transform="matrix(1.58114 0 0 1.58114 -176.988 -246.509)"/><path d="M292.887 379.336c-.227 1-.582 1.64-1.555.879-1.133-.883-2.223-1.824-3.312-2.758-.422-.363-.977-.738-.516-1.402.324-.473.871-.43 1.308-.246 1.75.753 3.61 1.402 4.075 3.527" style="fill:#d19e2e;fill-opacity:1;fill-rule:nonzero;stroke:none" transform="matrix(1.58114 0 0 1.58114 -176.988 -246.509)"/><path d="M142.246 378.617c-.027 1.067.074 1.996-1.129 1.719-1.222-.285-2.86-.234-2.875-2.063-.008-1.144.711-2.035 1.969-1.96 1.574.09 1.871 1.34 2.035 2.304" style="fill:#e1a82b;fill-opacity:1;fill-rule:nonzero;stroke:none" transform="matrix(1.58114 0 0 1.58114 -176.988 -246.509)"/><path d="M131.906 375.82c-.836 1.961-2.601 2.73-3.84 3.985-.332.332-.718.742-1.238.41-.61-.39-.531-1.008-.246-1.531 1.094-2.028 2.773-3.012 5.324-2.864M293.61 376.543c-2.173-1.938-4.372-2.559-6.618-3.445 3.543-1.73 5.555-.809 6.617 3.445M281.781 362.984c-1.21 2.043-2.261 3.856-2.933 5.961-2.02-3.382-1.207-5.183 2.933-5.96M132.137 372.992c-2.09 1.07-4.367 1.543-6.215 3.156.34-3.695 2.586-4.8 6.215-3.156M277.035 370.21c-3.015-1.25-3.797-2.554-2.469-4.14.286-.336.747-.707 1.141-.726.77-.031.723.699.805 1.238.176 1.2.347 2.398.523 3.629M140.793 369.574c-1.371-2.511-1.934-4.668-3.559-6.355 3.66.015 4.328 1.101 3.559 6.355M277.773 378.223c.094-.98-.16-2.094 1.254-1.864 1.047.172 1.696.778 1.703 1.961.008 1.153-.421 1.91-1.625 1.88-1.418-.044-1.175-1.24-1.332-1.977M287.945 380.39c1.746.954 3.41 1.774 1.883 4.126-.25.382-.5.89-1.07.796-.606-.101-.582-.699-.649-1.144-.175-1.188-.75-2.36-.164-3.777M130.629 385.316c-2.688-2.086-2.637-2.808.547-4.964.304 1.82.234 3.378-.547 4.964M271.16 374.902c1.43.313 2.61.594 3.8.817.622.113 1.15.273 1.017 1.039-.137.785-.805.699-1.36.668-1.539-.078-2.758-.668-3.457-2.524M148.133 373.852c-.516 2.96-2.113 3.367-4.688 3.601 1.32-2.039 2.953-2.441 4.688-3.601M146.586 368.273c1.16 2.793 1.094 2.95-1.95 4.727.704-1.7 1.25-3.027 1.95-4.727M272.754 379.027c1.394.453 2.723-.48 3.371 1.016.176.398.094.758-.387.852-1.375.27-2.422-.086-2.984-1.868M147.031 378.14c-.656 1.981-1.32 2.7-2.578 2.548-.152-.02-.394-.485-.351-.696.277-1.484 1.597-.91 2.93-1.851" style="fill:#d19e2e;fill-opacity:1;fill-rule:nonzero;stroke:none" transform="matrix(1.58114 0 0 1.58114 -176.988 -246.509)"/><path d="M209.93 163.27c-29.047 0-58.09.03-87.137-.06-2.613-.007-3.379.622-3.383 3.321-.09 31.348.277 62.703-.164 94.059-.187 13.238 1.766 26.316 5.094 39.148 11.86 45.793 39.207 78.45 82.707 97.383 1.547.672 2.969 1.074 4.68.336 16.171-6.957 31.02-16.008 43.722-28.258 29.938-28.875 43.488-64.988 44.61-105.816.882-32.207.136-64.457.242-96.688.008-2.82-.75-3.5-3.524-3.492-28.949.106-57.898.067-86.847.067zm-.121-1.825c29.718 0 59.441.04 89.156-.062 2.566-.008 3.164.62 3.156 3.164-.094 33.582.75 67.183-.27 100.73-1.23 40.63-15.214 76.45-44.89 105.184-13.024 12.613-28.29 21.918-44.957 28.976-1.645.696-3.078.622-4.7-.078-47.242-20.273-75.534-56.015-86.433-105.918-2.598-11.906-3.605-23.972-3.562-36.171.113-30.875.082-61.754-.032-92.637-.008-2.75.836-3.246 3.368-3.242 29.718.086 59.441.054 89.164.054" style="fill:#3d3a3a;fill-opacity:1;fill-rule:nonzero;stroke:none" transform="matrix(1.58114 0 0 1.58114 -176.988 -246.509)"/><path d="M267.152 412.5c.38-1.207.036-2.313-.234-3.41-.328-1.332.371-1.938 1.48-2.383 1.25-.5 1.465.492 1.88 1.203 1.456 2.496 2.94 4.973 4.32 7.508.43.789 1.648 1.652.132 2.66-1.257.844-2.273.86-3.19-1.121-.442 1.5.062 2.824-1.337 3.375-1.351.535-1.785-.832-2.855-1.09 0 .613.047 1.176-.012 1.735-.117 1.117-1.125 1.246-1.902 1.476-1.157.344-1.204-.75-1.368-1.402-.82-3.168-1.523-6.36-2.34-9.524-.253-.996-.148-1.672.852-2.101.934-.403 1.625-.207 2.29.574.718.844 1.03 2.086 2.284 2.5M155.75 413.016c.93-.36.926-.887 1.07-1.32.38-1.126.98-1.497 2.18-.966 1.117.489 1.395 1.114 1.004 2.239-1.004 2.902-1.918 5.836-2.95 8.726-.28.797-.327 2.032-1.843 1.621-1.137-.308-1.93-.78-1.934-2.105 0-1.04-.09-2.07-.144-3.203-.84.617-.914 1.515-1.246 2.27-.336.769-.715 1.41-1.707.933-.856-.406-1.996-.703-1.524-2.004 1.223-3.332 2.524-6.637 3.813-9.945.21-.547.523-1.098 1.265-.785.774.324 1.75.476 1.86 1.562.097.938.101 1.883.156 2.977M249.598 424.063c-.496 1.585 1.453 3.117-.305 4.19-1.043.642-2.371 1.071-2.79-.948-.62-3.012-1.362-5.996-2.058-8.993-.21-.921-.695-1.914.59-2.46 1.106-.47 2.043-.32 2.758.761.36.551.828 1.024 1.293 1.586.531-.918.047-1.594-.152-2.308-.356-1.29.703-1.336 1.453-1.684 1.117-.512 1.582.016 1.86 1.023a865.369 865.369 0 0 0 2.616 9.446c.25.875.555 1.644-.644 2.105-.969.375-1.801.657-2.567-.34-.582-.757-1.246-1.449-2.054-2.378M145.727 408.348c-.024-.625-.067-1.164-.637-1.262-.309-.055-.805.098-.985.336-1.207 1.625-2.054 3.445-2.468 5.433-.102.48.054.958.527 1.235.535.316.934.023 1.219-.363 1.215-1.653 1.816-3.563 2.344-5.38zm3.23.8c-.34 2.274-1.219 4.797-2.926 6.95-1.176 1.488-2.765 1.644-4.422.91-1.957-.867-3.523-2.149-3.316-4.535.242-2.746 1.398-5.176 3.14-7.293 1.215-1.473 2.848-1.54 4.462-.871 1.91.785 3.152 2.168 3.062 4.84M197.992 426.418c-.39-1.16.68-3.11-.91-3.285-1.586-.168-1.348 1.906-1.387 2.965-.047 1.527-1.242 4.207.918 4.355 1.965.133.875-2.644 1.38-4.035zm3.469.406c-.137 1.012-.223 2.262-.484 3.469-.528 2.46-2.11 3.488-4.61 3.309-2.492-.18-3.887-1.497-4.215-3.907-.32-2.316-.008-4.61.7-6.824.695-2.176 2.316-2.871 4.496-2.683 2.093.18 3.418 1.226 3.851 3.246.223 1.023.172 2.101.262 3.39M235.215 429.766c.305-3.25.629-6.504.902-9.762.098-1.14.348-2.027 1.668-2.324 1.434-.317 1.567.82 1.977 1.605 1.426 2.727 2.847 5.457 4.176 8.23.3.63 1.421 1.481.09 2.15-.907.46-1.926.968-2.84-.177-1.56-1.957-2.38-1.34-2.864.817-.324 1.433-1.68 1.14-2.625 1.078-.933-.059-.664-.973-.484-1.617M210.64 427.316c0-.671.009-1.347 0-2.023-.07-4.816.094-4.953 4.91-4.547.813.074 1.571.086 1.696 1.121.121 1.016-.394 1.39-1.348 1.39-1.03 0-1.953.134-1.902 1.54.05 1.387.953 1.152 1.832 1.062.906-.09 1.152.47 1.188 1.246.027.782-.203 1.336-1.094 1.336-1.016 0-1.899-.015-1.89 1.461.01 1.817 1.292 1.286 2.234 1.352.765.055 1.285.226 1.324 1.129.039.937-.317 1.469-1.274 1.543-.191.015-.386.015-.578.039-4.879.676-5.097.492-5.097-4.336v-2.313M282.742 398.242c1.535-.332 1.766.496 2.113 1.168.383.727-.035 1.008-.66 1.242-.797.305-1.906.657-1.597 1.68.308 1.031 1.57.969 2.48 1.012 2.125.11 3.863.734 4.25 3.066.41 2.461-1 4.004-3.055 5.016-1.062.527-2.148.89-2.87-.664-.762-1.645.66-1.407 1.382-1.782.606-.316 1.285-.625 1.156-1.449-.152-.972-.996-1.023-1.765-1.148-1.04-.172-2.164-.188-3.074-.633-1.532-.738-2.2-2.152-1.844-3.848.449-2.129 2.05-3.132 3.484-3.66M163.602 426.555c-.985-.059-2.114-.563-3.118-1.344-.914-.707-.543-1.578-.152-2.336.45-.887 1.043-.445 1.645-.055.597.383 1.285 1.168 1.996.356.742-.84-.008-1.594-.453-2.317-.45-.734-1.028-1.425-1.325-2.214-.656-1.747-.61-3.454 1.035-4.68 1.625-1.211 3.266-.676 4.852.203 1.098.61 1.027 1.602.637 2.512-.496 1.148-1.215.445-1.84.027-.488-.324-.977-.66-1.524-.094-.55.57-.105 1.11.141 1.57.574 1.106 1.399 2.094 1.863 3.235 1.118 2.723-.593 5.187-3.757 5.137M129.563 406.734c.476-2.812 1.695-5.398 4.242-7.093 2.125-1.407 4.039-.48 5.73 1.035.668.601.645 1.375.223 2.11-.418.734-.985.85-1.645.26-2.008-1.788-2.972-.054-3.789 1.294-.965 1.594-2.324 3.45-.008 5.023.988.672 1.824 1.11.906 2.367-.812 1.11-1.73.489-2.53.032-1.872-1.067-3.032-2.63-3.13-5.028M226.395 421.375c-.016.188.027.496-.063.54-3.578 1.8-1.047 4.753-1.418 7.16-.23 1.5 1.652 4.14-1.52 4.257-2.855.11-1.453-2.504-1.792-3.926-.309-1.297-.266-2.672-.426-4.004-.13-1.066.164-2.382-1.684-2.332-.93.024-.793-.906-.797-1.558 0-.684.371-1.07 1.035-1.14 1.813-.196 3.625-.395 5.434-.556 1.16-.101 1.082.832 1.23 1.559M181.406 419.563c-.37 2.09-.68 4.382-1.21 6.62-.313 1.32-.454 2.215 1.284 2.403.801.086 1.762.266 1.497 1.601-.29 1.465-1.29 1.11-2.22 1.028-.187-.016-.378-.059-.57-.094-4.355-.793-4.335-.789-3.433-5.098.492-2.347.976-4.703 1.351-7.074.188-1.187.645-1.765 1.887-1.488 1.031.234 1.899.594 1.414 2.102M190.023 420.535c-.515 3.793-1 7.02-1.37 10.262-.133 1.187-.5 1.754-1.786 1.562-1.258-.18-1.906-.671-1.68-2.07.532-3.219 1.04-6.437 1.458-9.672.16-1.23.664-1.644 1.878-1.484 1.247.16 1.696.746 1.5 1.402M175.25 417.75c-.793 3.457-1.586 6.715-2.27 10-.242 1.172-.859 1.371-1.847 1.137-.992-.242-1.91-.555-1.59-1.887.797-3.36 1.594-6.715 2.41-10.066.246-1.016.797-1.407 1.902-1.04 1.067.352 1.727.817 1.395 1.856M261.512 422.715c.136 1.734-.95 1.746-1.676 2.05-.934.4-1.426-.167-1.684-1-1.015-3.285-2.02-6.578-3.047-9.855-.285-.922-.011-1.512.915-1.723.664-.152 1.566-.996 1.972.125 1.297 3.594 2.457 7.235 3.52 10.403M281.016 413.785c-.028 1.172-.973 1.402-1.688 1.793-.86.469-1.348.11-1.734-.781a281.586 281.586 0 0 0-4.2-9.102c-.699-1.437.274-1.824 1.196-2.379 1.195-.718 1.523.2 1.89.957 1.536 3.176 3.043 6.372 4.536 9.512" style="fill:#3f3a35;fill-opacity:1;fill-rule:nonzero;stroke:none" transform="matrix(1.58114 0 0 1.58114 -176.988 -246.509)"/><path d="M145.727 408.348c-.528 1.816-1.13 3.726-2.344 5.379-.285.386-.684.68-1.219.363-.473-.277-.629-.754-.527-1.235.414-1.988 1.261-3.808 2.468-5.433.18-.238.676-.39.985-.336.57.098.613.637.637 1.262M197.992 426.418c-.504 1.39.586 4.168-1.379 4.035-2.16-.148-.965-2.828-.918-4.355.04-1.059-.199-3.133 1.387-2.965 1.59.176.52 2.125.91 3.285" style="fill:#d19e2e;fill-opacity:1;fill-rule:nonzero;stroke:none" transform="matrix(1.58114 0 0 1.58114 -176.988 -246.509)"/><path d="M220.95 354.777c-3.036.684-5.887.371-8.634-1.218-1.761-1.02-3.894-1.106-5.609-.329-3.3 1.5-6.477 1.45-9.98.094.574 3.453-.36 6.266-2.254 8.856-.914 1.25-1.504 2.738-1.325 4.336.352 3.18-.441 5.988-2.757 8.484 3.238.5 5.757 1.45 6.867 4.727.566 1.664 2.21 2.808 3.933 3.152 3.278.644 5.922 2.121 7.79 5.34 1.714-3.168 4.035-4.723 7.257-5.102 1.672-.195 3.242-1.277 3.762-2.867.977-3.008 2.992-4.582 6.273-5.2-2.242-2.429-2.992-4.906-1.746-7.812.477-1.105.254-2.37-.5-3.297-2.207-2.707-3.226-5.765-3.105-9.222.086.008.172.011.254.015zm-11.907 39.055c-2.281-4.758-5.531-7.68-10.195-8.957-.77-.215-1.563-.883-2.036-1.559-2.242-3.183-5.03-5.55-8.902-6.48-1.437-.344-1.37-1.164-.523-2.082 2.375-2.57 3.23-5.617 2.953-9.059-.113-1.406.406-2.68 1.191-3.797 2.008-2.847 3.215-5.921 2.852-9.468-.18-1.805.59-2.278 2.226-1.653 3.032 1.157 6.047.946 9.036-.168 2.753-1.03 5.484-.941 8.109.348 2.566 1.258 5.14 1.336 7.855.574 2.891-.812 3.305-.418 2.891 2.434-.402 2.77-.234 5.363 1.691 7.64 1.414 1.676 1.454 3.727 1.196 5.782-.332 2.707.117 5.16 2.062 7.234 1.34 1.43.918 2.438-.953 2.781-2.855.532-4.898 2.016-6.219 4.641-.66 1.297-1.77 2.457-3.172 2.848-4.64 1.285-7.957 4.066-10.062 8.941" style="fill:#f0eeee;fill-opacity:1;fill-rule:nonzero;stroke:none" transform="matrix(1.58114 0 0 1.58114 -176.988 -246.509)"/><path d="M271.645 170.137c-6.852 0-13.704-.02-20.555.023-.754.004-1.977-.566-2.164.695-.149 1.028 1.023.899 1.699 1.153 4.492 1.738 4.96 3.078 2.508 7.347-1.625 2.832-3.563 5.493-4.688 8.598-1.984 5.496-.582 10.645 3.703 13.672 4.684 3.316 10.133 3.121 15.508-.734 2.352-1.684 4.446-2.13 6.645.175 1.277 1.344 2.863 2.305 4.703 2.676 4.953.996 9.523.082 12.926-3.781 3.664-4.152 3.312-9.024 1.379-13.856-.965-2.41-2.305-4.671-3.196-7.101-1.347-3.688-.75-4.848 2.809-6.64.695-.352 1.941-.376 1.566-1.634-.3-1.011-1.312-.57-2-.574-6.949-.031-13.894-.02-20.843-.02zm.008-1.832c6.937 0 13.875.011 20.816-.008 1.726-.004 3.383.086 3.793 2.21.394 2.016-1.04 2.684-2.578 3.204-2.598.883-3.094 2.586-2.016 4.988 1.3 2.89 2.758 5.73 3.766 8.727 1.996 5.957.508 11.785-3.547 15.05-4.55 3.664-11.445 4.457-16.484 1.063-3.348-2.254-5.75-1.957-9.07-.07-7.65 4.347-15.993 1.546-19.454-5.997-1.66-3.62-1.129-7.14.277-10.632 1.23-3.043 3.067-5.766 4.766-8.563 1.711-2.824 1.3-3.785-1.883-4.676-1.562-.441-3.086-1.015-2.867-2.996.242-2.148 1.887-2.324 3.66-2.316 6.938.035 13.88.015 20.82.015M150.078 184.86c4.785-3.657 9.371-7.137 13.926-10.665.898-.691 2.566-1.23 1.367-2.851-1.062-1.422-2.039-.262-2.922.394-2.539 1.871-5.207 1.774-7.898.48-1.555-.753-2.996-1.73-4.528-2.534-5.07-2.668-9.96-2.442-14.644.964-5.719 4.153-5.074 11 1.355 13.985 1.782.828 3.649 1.48 5.77 2.332-1.012.848-1.719 1.488-2.465 2.066-4.797 3.719-9.61 7.418-14.402 11.137-.809.625-2.07 1.266-1.246 2.496.793 1.18 1.87.441 2.757-.172 1.735-1.183 3.649-1.687 5.735-1.582 2.531.133 4.89 1.004 7.242 1.828 3.492 1.227 7.035 1.957 10.758 1.567 4.648-.48 7.941-3.121 8.789-7.063.926-4.285-.848-7.785-5.223-10.187-1.332-.735-2.719-1.367-4.37-2.196zm3.508-.575c1.785 1.625 3.762 2.344 5.09 3.922 2.847 3.402 3.664 7.191 1.945 11.305-1.855 4.449-5.707 6.02-10.152 6.496-3.918.414-7.696-.41-11.297-1.836-4.207-1.668-8.238-2.559-12.332.367-1.258.895-2.793.691-3.797-.793-1.18-1.742-.457-3.176.937-4.285 4.38-3.461 8.782-6.902 13.262-10.242 1.696-1.258 1.348-1.903-.285-2.727-5.629-2.824-7.441-5.594-6.91-10.36.453-4.097 4.754-8.16 9.871-9.433 4.754-1.183 8.953.293 12.906 2.707 3.367 2.055 6.567 3.184 10.012.125 1.355-1.207 2.719-.5 3.766.735 1.234 1.457 1 2.898-.399 4.035-3.207 2.613-6.492 5.137-9.746 7.699-.902.71-1.793 1.43-2.871 2.285" style="fill:#191917;fill-opacity:1;fill-rule:nonzero;stroke:none" transform="matrix(1.58114 0 0 1.58114 -176.988 -246.509)"/><path d="M235.46 273.148c0-1.046.028-1.625-.007-2.203-.043-.64-.387-1.129-1.035-1.175-.856-.063-1.121.52-1.211 1.28-.168 1.485.547 3.946-.66 4.247-1.828.45-2.344-2.063-3.36-3.36-.5-.648-1.035-.89-1.707-.507-.77.433-.586 1.074-.226 1.738.742 1.363 1.656 2.598 2.808 3.64 1.063.958 2.094 2.223 3.727 1.688 1.535-.508 1.047-2.098 1.336-3.246.207-.836.277-1.707.336-2.102zm-5.425-36.8c-1.89-.91-2.617-2.453-3.433-3.922-.344-.617-.797-1.149-1.59-.824-.832.336-.742 1.125-.473 1.707 1.059 2.285 2.438 4.343 4.691 5.636 1.079.618 2.227.473 2.618-.746.668-2.086 1.039-4.273.945-6.488-.023-.57-.152-1.211-.883-1.285-.898-.09-1.058.562-1.156 1.285-.203 1.48-.453 2.95-.719 4.637zm-19.695 44.047c-1.668-.895-2.453-2.442-3.387-3.872-.406-.62-1.027-.882-1.734-.449-.637.387-.535 1-.262 1.512 1.2 2.234 2.711 4.219 5.004 5.414 1.184.613 2.39.426 2.68-1.09.367-1.973.558-3.984.699-5.988.058-.781-.285-1.594-1.309-1.527-.886.058-.945.808-.965 1.5-.03 1.507.043 3.023-.726 4.5zm12.93-2.055c-1.848-1.2-2.715-2.57-3.56-3.965-.374-.625-.898-1.043-1.66-.684-.82.387-.698 1.106-.363 1.711 1.168 2.125 2.625 4.047 4.797 5.22 1.067.573 2.286.722 2.739-.9.597-2.144.71-4.34.593-6.546-.035-.61-.304-1.11-1.05-1.11-.793 0-.883.567-.946 1.164l-.55 5.11zm-9.458-39.496c-1.843-1.059-2.617-2.45-3.394-3.864-.363-.664-.844-1.468-1.785-.886-.668.41-.649 1.18-.324 1.82 1.101 2.168 2.48 4.121 4.593 5.45 1.305.816 2.395.394 2.727-.91.512-2.04.703-4.165.95-6.259.089-.746-.345-1.379-1.157-1.355-.652.012-.938.617-1.02 1.226-.199 1.485-.37 2.973-.59 4.778zm16.926 14.699c-1.695-.852-2.406-2.445-3.234-3.926-.41-.722-.973-.969-1.645-.594-.55.309-.605.961-.37 1.524 1.023 2.441 2.53 4.52 4.882 5.812 1.07.586 2.094.38 2.477-.972.578-2.02 1.023-4.075.964-6.2-.019-.699-.12-1.39-1.027-1.43-.875-.034-1.12.63-1.238 1.31-.25 1.472.168 3.062-.809 4.476zm-12.207 4.55c-1.914-1.218-2.66-2.784-3.539-4.253-.351-.582-.844-1.098-1.64-.57-.586.386-.657.976-.395 1.52 1.145 2.355 2.57 4.483 4.938 5.812 1.23.695 2.164.238 2.457-.965.503-2.04.812-4.125 1.085-6.207.086-.672-.312-1.39-1.097-1.457-.82-.067-1.09.55-1.172 1.304-.168 1.5-.39 2.996-.637 4.817zm-12.265 1.61c-1.797-1.078-2.579-2.469-3.356-3.879-.383-.687-.848-1.441-1.77-.894-.671.402-.624 1.18-.312 1.812 1.063 2.172 2.418 4.117 4.524 5.438 1.074.668 2.191.664 2.64-.535.805-2.149 1.133-4.434 1.059-6.747-.02-.609-.281-1.16-.977-1.214-.715-.051-.965.453-1.058 1.086-.22 1.496-.454 2.996-.75 4.933zm-7.239-20.488c-1.562-1.547-2.054-3.211-2.644-4.828-.246-.657-.645-1.25-1.5-.918-.66.261-.703.902-.59 1.46.539 2.598 1.703 4.895 3.715 6.65.976.847 2.101.597 2.648-.544.864-1.808 1.68-3.656 1.98-5.672.118-.785.22-1.636-.843-1.8-.871-.133-1.04.57-1.25 1.246-.418 1.355-.914 2.68-1.516 4.406zm-1.93 94.414c-2.792-1.8-3.984-4.035-3.992-6.953-.004-.746.176-1.64-.796-1.953-.84-.266-1.457.261-2.059.773-2.332 1.961-3.242 4.707-4.148 7.695-2.258-1.617-3.489-3.695-3.192-6.285.399-3.547 2.137-6.363 5.55-7.87.696-.31 1.458-.5 2.212-.65.851-.171 1.555-.523 1.344-1.488-.215-.992-1.094-.949-1.88-.78-3.8.835-6.675 2.886-8.32 6.487-.355.782-.644 1.594-.984 2.438-3.16-5.258-2.219-9.012 3.098-12.328 4.011-2.5 8.55-3.36 13.133-4.074.988-.153 2.37.418 2.886-.754.656-1.465-.879-2.196-1.62-3.075-10.18-12.144-18.243-25.496-22.75-40.769-4.255-14.402-4.2-28.633 2.476-42.445 4.07-8.438 14.265-11.84 22.39-7.352 2.766 1.531 5.606 3.008 7.473 5.754.727 1.066 1.559.969 2.305-.055a9.4 9.4 0 0 0 .336-.468c6.12-9.02 15.12-8.707 23.464-4.188 3.961 2.145 5.622 6.164 6.059 10.602.07.765.113 1.562-.008 2.312-.91 5.55-.258 10.567 3.684 15.059 1.93 2.195 1.129 5.156-.032 7.691-1.476 3.23-1.449 6.246.63 9.254 1.937 2.805 1.984 5.965.253 8.734-2.277 3.641-2.004 7.098-.789 10.97 1.774 5.636.64 10.831-3.383 15.308-4.351 4.843-9.68 5.52-15.566 3.652-8.988-2.855-16.496-7.918-21.856-15.726-6.257-9.125-10.812-19.04-12.671-30.047-.149-.899-.204-1.891-1.356-1.809-.973.07-.992.95-.965 1.781.606 17.625 16.989 40.805 33.383 47.075 4.738 1.816 9.617 2.863 14.625.914 1.2-.473 1.742-.032 2.05 1.105 1.009 3.656 1.645 7.352.743 11.11-1.36 5.671-7.207 9.144-13.617 7.773-7.938-1.7-14.375-5.817-18.711-12.871-.43-.7-.547-1.824-1.695-1.66-1.293.187-1.532 1.375-1.73 2.382-.696 3.516.402 6.668 2.23 9.586.785 1.258.847 1.743-.766 2.422-4.125 1.75-5.61 5.563-6.707 9.551-.258.926-.434 1.871-.73 3.172" style="fill:#fafafd;fill-opacity:1;fill-rule:nonzero;stroke:none" transform="matrix(1.58114 0 0 1.58114 -176.988 -246.509)"/><path d="M255.137 338.613c1.539.074 3.074.168 4.617.223.46.02 1.02.012 1.144-.582.137-.64-.332-.824-.851-.848-5.738-.281-11.531-1.05-16.93 1.785-1.613.852-3.238 1.184-4.988.54-2.606-.961-5.129-.149-7.656.374-.5.106-1.34.168-1.22.93.157.969 1.009.617 1.614.531 2.457-.34 4.817-.992 7.387-.168 3.059.977 3.617 1.391 2.793 4.676-.559 2.223-.742 4.356.066 6.508.223.602-.484 1.887.832 1.688.953-.149.782-1.333.528-1.942-1.473-3.531 1.32-6.976.129-10.496-.258-.758.628-.793 1.074-1.09 3.515-2.37 7.57-1.797 11.46-2.129zm10.914-47.285c4.445.086 7.84-1.36 11.308-2.476.606-.192 1.512-.211 1.164-1.168-.312-.852-1.101-.528-1.738-.32-1.926.613-3.816 1.355-5.777 1.812-1.328.312-3.504 1.281-3.95.293-.703-1.578-.91-3.739.153-5.555a16.12 16.12 0 0 1 1.129-1.676c.988-1.312.988-2.883 1.18-4.402.078-.621-.149-1.246-.836-1.297-.829-.059-.805.637-.793 1.227.035 1.27-.051 2.52-.907 3.554-1.547 1.868-2.312 3.946-1.906 6.414.29 1.746-.55 1.836-2.016 1.426-3.472-.973-6.289-2.812-8.359-5.773-.387-.551-.871-1.399-1.535-.969-.922.602-.094 1.379.305 1.96 3.183 4.677 7.894 6.481 12.578 6.95zm18.82-5.281c-4.71 5.137-10.422 6.832-16.594 7.32-2.976.242-5.617.906-6.695 4.016-.887 2.558.738 6.008 3.758 7.777 5.05 2.957 10.355 3.52 15.664.707 2.191-1.164 4.176-2.703 6.262-4.066 1.925 3.773 1.039 6.027-2.864 7.215-1.855.566-3.773.773-5.71.761-1.587-.011-2.368.692-2.778 2.297-1.43 5.582-3.184 6.746-8.969 6.903-4.035.109-8.039-.852-12.093-.102-7.247 1.34-12.32 7.96-11.422 15 .3 2.297 1.199 3.176 3.66 2.512 4.156-1.13 8.336-2.516 12.754-1.242 2.148.617 4.148 1.453 5.836 3.277-4.067 2.906-8.348 4.09-13.164 3-.375-.086-.73-.25-1.106-.344-2.164-.558-4.574-1.266-6.195.703-1.457 1.762-.285 3.867.422 5.742 1.625 4.305.605 6.954-3.48 8.946-.595.285-1.048.582-1.802.078-2.855-1.914-3.96-5.895-2.226-8.895.719-1.246 1.289-2.363.351-3.718-.921-1.332-2.222-.864-3.421-.723-7.93.953-8.102.941-11.618-1.36 2.086-1.347 4.188-2.667 6.25-4.05 1.934-1.293 4.028-1.172 6.137-.778 5.18.97 5.695.598 6.129-4.414.117-1.34.395-2.668.66-3.988.863-4.281-.707-6.262-5.008-6.27-.957-.007-1.91 0-3.406 0 4.192-2.456 6.438-5.808 7.094-10.195.164-1.094 1.129-1.16 1.926-1.465 4.402-1.691 8.933-1.097 13.425-.668 2.059.196 4.067.145 6.012-.406 2.445-.691 2.809-2.543.95-4.222-.926-.84-1.942-1.594-2.82-2.481-3.017-3.031-3.18-4.824-.853-8.383 1.586-2.426 1.27-3.285-1.492-3.984-.84-.215-1.695-.363-2.535-.57-4.418-1.086-5.726-2.907-5.312-7.368.472-5.09.609-5.172 5.058-2.328 2.051 1.309 3.836 2.875 4.852 5.203.398.914 1.062 2.235 2.332 1.457 1.074-.66.336-1.816-.211-2.55-1.637-2.196-.992-3.829.933-5.438 1.325-1.11 2.633-2.336 3.59-3.754 1.36-2.02 2.41-1.656 3.782-.101 2.804 3.183 2.57 6.297-.766 8.96-.856.688-2.453 1.196-1.594 2.575.696 1.113 2.028.426 3.13.054 4.183-1.421 8.429-1.906 13.167-.64" style="fill:#f0eeee;fill-opacity:1;fill-rule:nonzero;stroke:none" transform="matrix(1.58114 0 0 1.58114 -176.988 -246.509)"/><path d="M205.121 310.73c6.14 7.442 13.379 12.235 22.98 13.094-6.316 1.336-11.324 4.723-15.609 9.38-1.164 1.269-2.93 1.269-4.617 1.019-1.156-.172-1.906-.477-1.938-1.918-.043-1.899-.875-3.684-2.402-4.743-2.012-1.398-1.164-2.394.113-3.453 1.196-.992 2.508-1.75 4.172-1.703 2.266.067 2.172-1.015 1.14-2.5-1.847-2.656-3.706-5.312-3.839-9.176" style="fill:#f5f3f3;fill-opacity:1;fill-rule:nonzero;stroke:none" transform="matrix(1.58114 0 0 1.58114 -176.988 -246.509)"/><path d="M199.39 168.828c5.446-1.656 10.176-.98 14.965.223-3.378 1.148-5.855 3.238-7.585 6.566-2.168-2.457-3.989-5.043-7.38-6.789" style="fill:#f0eeee;fill-opacity:1;fill-rule:nonzero;stroke:none" transform="matrix(1.58114 0 0 1.58114 -176.988 -246.509)"/><path d="M269.637 180.227c0-1.11-.008-1.883 0-2.653.023-1.988-.078-3.992-2.2-4.937-2.027-.914-3.949-.387-5.667.941-4.93 3.805-7.766 8.785-7.97 15.035-.155 4.918 3.036 8.711 7.184 8.934 4.18.223 7.586-3.164 8.051-8.149.29-3.164.418-6.34.602-9.171zm2.34 7.472c0 1.461-.082 2.434.015 3.383.442 4.242 3.582 7.191 7.844 7.426 4.105.222 7.633-2.43 8.285-6.477 1.047-6.539-.527-12.383-4.89-17.453-1.758-2.039-3.844-2.844-6.422-2.086-2.63.77-3.907 2.735-4.145 5.336-.32 3.45-.488 6.906-.687 9.871zm-.332-17.562c6.945 0 13.894-.016 20.843.02.692.003 1.7-.438 2 .573.375 1.258-.87 1.286-1.566 1.633-3.555 1.793-4.156 2.953-2.809 6.645.89 2.426 2.23 4.691 3.192 7.097 1.937 4.832 2.289 9.7-1.375 13.86-3.403 3.86-7.97 4.777-12.926 3.777-1.84-.37-3.426-1.332-4.703-2.676-2.2-2.304-4.293-1.859-6.645-.171-5.37 3.851-10.82 4.046-15.511.73-4.282-3.027-5.684-8.176-3.696-13.672 1.121-3.105 3.059-5.766 4.684-8.598 2.453-4.27 1.984-5.609-2.508-7.343-.676-.262-1.848-.13-1.7-1.157.184-1.261 1.41-.687 2.165-.691 6.851-.047 13.703-.027 20.555-.027M144.488 171.863c-2.008.07-4.289.856-5.39 3.512-1.121 2.715.367 4.629 2.3 6.223 2.97 2.449 4.774 2.476 7.98.304 1.028-.695 2.005-1.476 3.044-2.156 1.98-1.297 1.789-2.66.297-4.219-2.082-2.175-4.57-3.425-8.23-3.664zm1.325 29.008c1.738-.074 3.19-.558 4.535-1.32 3.527-2 4.453-4.684 2.644-7.555-2.476-3.926-5.762-4.789-9.129-2.344-2.175 1.575-4.293 3.235-6.433 4.856-1.52 1.144-1.516 2.308-.063 3.515 2.5 2.082 5.586 2.364 8.446 2.848zm4.265-16.012c1.656.829 3.04 1.465 4.367 2.196 4.38 2.406 6.157 5.902 5.227 10.187-.848 3.942-4.14 6.582-8.79 7.063-3.718.39-7.26-.34-10.757-1.567-2.352-.824-4.71-1.695-7.242-1.828-2.086-.11-4 .399-5.735 1.582-.886.61-1.968 1.352-2.757.172-.825-1.23.437-1.871 1.246-2.496 4.797-3.719 9.605-7.418 14.402-11.137.746-.582 1.453-1.215 2.465-2.066-2.125-.852-3.988-1.504-5.77-2.332-6.43-2.985-7.07-9.832-1.355-13.985 4.684-3.406 9.578-3.632 14.644-.964 1.528.804 2.973 1.78 4.528 2.53 2.691 1.302 5.36 1.395 7.898-.48.883-.648 1.86-1.812 2.922-.386 1.2 1.617-.469 2.156-1.367 2.847-4.555 3.528-9.145 7.008-13.926 10.664" style="fill:#f5f3f3;fill-opacity:1;fill-rule:nonzero;stroke:none" transform="matrix(1.58114 0 0 1.58114 -176.988 -246.509)"/><path d="M286.617 188.148c.04-4.523-1.687-8.421-4.285-11.992-1.168-1.605-2.703-2.441-4.738-1.984-2.121.48-2.989 2.11-3.168 4-.356 3.726-.684 7.476-.676 11.215.016 4.422 2.754 7.32 6.5 7.36 3.672.038 6.195-2.911 6.367-7.446.016-.383 0-.766 0-1.153zm-14.64-.453c.199-2.957.37-6.422.687-9.87.242-2.598 1.512-4.56 4.14-5.333 2.587-.758 4.669.047 6.426 2.086 4.364 5.07 5.942 10.914 4.891 17.45-.652 4.05-4.18 6.702-8.285 6.476-4.262-.23-7.406-3.18-7.848-7.418-.097-.957-.011-1.93-.011-3.39M255.605 188.543c-.058 4.078 2.188 7.031 5.497 7.223 3.195.183 5.863-2.649 6.199-6.645.105-1.242.054-2.5.074-3.746.027-2.496-.094-5.008.145-7.484.132-1.418.417-2.754-1.004-3.547-1.34-.75-2.664-.188-3.746.68-4.336 3.46-7.02 7.828-7.165 13.519zm14.032-8.316c-.184 2.836-.309 6.011-.602 9.171-.469 4.985-3.87 8.375-8.05 8.149-4.145-.227-7.34-4.02-7.184-8.934.203-6.254 3.039-11.226 7.969-15.035 1.718-1.324 3.64-1.851 5.667-.945 2.122.949 2.223 2.953 2.204 4.937-.012.774-.004 1.543-.004 2.657M144.992 198.676v-.028c.672 0 1.348.04 2.016-.008 2.281-.156 4.129-.98 4.777-3.398.606-2.262-1.172-3.27-2.512-4.426-1.96-1.699-3.527-.418-5.07.809-.527.418-1.207.695-1.605 1.203-1.07 1.367-4.008 1.672-3.391 3.738.707 2.367 3.441 1.907 5.5 2.11.094.004.191 0 .285 0zm.817 2.195c-2.856-.484-5.938-.766-8.442-2.848-1.449-1.207-1.453-2.37.059-3.515 2.148-1.621 4.258-3.281 6.433-4.856 3.375-2.445 6.657-1.582 9.133 2.344 1.809 2.871.887 5.555-2.644 7.555-1.344.762-2.793 1.246-4.54 1.32M140.75 177.625c.012 1.73 2.047 3.54 4.75 3.887 1.402.183 5.867-2.38 5.86-3.61-.024-2.547-2.173-3.09-4.098-3.699-1.285-.406-2.559-.64-3.953-.293-1.844.465-2.399 1.73-2.559 3.715zm3.734-5.758c3.664.235 6.157 1.488 8.23 3.66 1.493 1.559 1.688 2.926-.292 4.223-1.04.676-2.016 1.457-3.047 2.156-3.207 2.172-5.008 2.14-7.98-.312-1.926-1.59-3.415-3.5-2.293-6.219 1.097-2.656 3.382-3.441 5.382-3.508" style="fill:#191917;fill-opacity:1;fill-rule:nonzero;stroke:none" transform="matrix(1.58114 0 0 1.58114 -176.988 -246.509)"/><path d="M286.617 188.148c0 .383.016.77 0 1.153-.172 4.535-2.695 7.484-6.367 7.445-3.746-.035-6.488-2.937-6.5-7.36-.008-3.741.32-7.488.676-11.214.183-1.89 1.047-3.524 3.164-4 2.039-.461 3.574.375 4.742 1.98 2.598 3.575 4.324 7.477 4.285 11.996M255.605 188.543c.145-5.691 2.833-10.059 7.165-13.52 1.082-.863 2.406-1.43 3.746-.68 1.421.794 1.14 2.13 1.004 3.544-.239 2.48-.114 4.988-.145 7.488-.02 1.25.031 2.504-.074 3.746-.336 3.996-3.008 6.828-6.203 6.645-3.305-.192-5.555-3.145-5.493-7.223M144.992 198.676c-.094 0-.191.004-.285 0-2.059-.203-4.793.258-5.5-2.11-.617-2.066 2.32-2.37 3.39-3.738.4-.508 1.079-.785 1.606-1.203 1.543-1.227 3.11-2.508 5.07-.809 1.34 1.157 3.118 2.164 2.512 4.426-.648 2.418-2.496 3.242-4.777 3.399-.668.047-1.344.008-2.016.008zM140.75 177.625c.16-1.984.715-3.25 2.559-3.715 1.394-.348 2.668-.113 3.953.293 1.925.61 4.074 1.152 4.097 3.7.008 1.23-4.457 3.792-5.859 3.609-2.703-.348-4.738-2.157-4.75-3.887" style="fill:#457fbd;fill-opacity:1;fill-rule:nonzero;stroke:none" transform="matrix(1.58114 0 0 1.58114 -176.988 -246.509)"/><path d="m204.621 382.438 4.125 5.78 4.129-5.78-4.129-3.301zm0 0" style="fill:#3a3a33;fill-opacity:1;fill-rule:evenodd;stroke:none" transform="matrix(1.58114 0 0 1.58114 -176.988 -246.509)"/><path d="m206.684 382.852 2.062 2.89 2.067-2.89-2.067-2.067zm0 0" style="fill:#009757;fill-opacity:1;fill-rule:evenodd;stroke:none" transform="matrix(1.58114 0 0 1.58114 -176.988 -246.509)"/><path d="m219.484 377.07 6.606-2.062-3.719-5.367-4.539 2.476zm0 0" style="fill:#3a3a33;fill-opacity:1;fill-rule:evenodd;stroke:none" transform="matrix(1.58114 0 0 1.58114 -176.988 -246.509)"/><path d="m220.309 375.418 3.714-.824-2.062-3.305-2.477 1.238zm0 0" style="fill:#009757;fill-opacity:1;fill-rule:evenodd;stroke:none" transform="matrix(1.58114 0 0 1.58114 -176.988 -246.509)"/><path d="m220.723 361.383.824-7.02-7.02 1.649.414 5.37zm0 0" style="fill:#3a3a33;fill-opacity:1;fill-rule:evenodd;stroke:none" transform="matrix(1.58114 0 0 1.58114 -176.988 -246.509)"/><path d="m219.07 359.73.825-3.718-3.715 1.242v2.476zm0 0" style="fill:#009757;fill-opacity:1;fill-rule:evenodd;stroke:none" transform="matrix(1.58114 0 0 1.58114 -176.988 -246.509)"/><path d="m203.379 355.602-6.606-1.653.414 6.606 5.368.414zm0 0" style="fill:#3a3a33;fill-opacity:1;fill-rule:evenodd;stroke:none" transform="matrix(1.58114 0 0 1.58114 -176.988 -246.509)"/><path d="m201.73 356.84-3.304-1.238v3.714l2.89.414zm0 0" style="fill:#009757;fill-opacity:1;fill-rule:evenodd;stroke:none" transform="matrix(1.58114 0 0 1.58114 -176.988 -246.509)"/><path d="m194.71 369.227-4.128 5.78 6.191 2.063 2.477-4.953zm0 0" style="fill:#3a3a33;fill-opacity:1;fill-rule:evenodd;stroke:none" transform="matrix(1.58114 0 0 1.58114 -176.988 -246.509)"/><path d="m195.121 371.29-2.476 2.89 3.714 1.238 1.243-2.89zm0 0" style="fill:#009757;fill-opacity:1;fill-rule:evenodd;stroke:none" transform="matrix(1.58114 0 0 1.58114 -176.988 -246.509)"/><path d="M208.746 381.613c-1.238 1.653-1.648 2.477-3.715 2.477-2.476 0-3.715-.824-5.781-2.063-2.063-1.652-3.3-2.48-3.715-4.957 0-2.062.414-2.89 1.652-4.129-1.652-.414-3.304-1.238-4.128-3.3-.829-2.067-.414-3.305.414-5.782.41-2.066 1.238-3.304 3.3-4.543 1.653-.824 2.477-.824 4.13-.414 0-1.238 0-2.476 1.238-3.714 2.066-2.063 3.714-2.477 6.605-2.477 2.48 0 4.543.414 6.61 2.062 1.648 1.239 2.062 2.48 1.648 4.13 1.238 0 2.48 0 3.719.827 1.648.825 2.476 2.063 3.3 4.13.829 2.062.829 3.714 0 5.78-.824 2.063-2.476 2.887-4.539 2.887 1.239 1.243 2.063 2.48 2.063 4.543-.414 2.067-1.652 3.305-3.305 4.957-2.062 1.239-3.3 2.063-5.777 2.063-1.653-.414-2.48-1.238-3.719-2.477" style="fill:#3a3a33;fill-opacity:1;fill-rule:evenodd;stroke:none" transform="matrix(1.58114 0 0 1.58114 -176.988 -246.509)"/><path d="M214.113 360.555c-.824 1.238-1.648 2.066-1.238 2.476.414.828 1.238-.41 2.066-1.648 1.653-1.653 6.192-2.067 7.844 2.89 1.652 5.368-1.652 7.844-5.367 7.016-1.652-.41-3.305-1.648-3.305-.824-.41 1.238 1.653 1.238 3.305 2.062 2.066 1.653 4.953 4.13 0 8.258-5.367 4.13-7.844.414-8.258-1.648 0-1.653.414-4.13-.414-4.13-1.238 0-.41 1.65-.824 4.13 0 2.89-2.477 5.367-7.844 1.648-4.957-3.715-2.89-7.43.41-8.258 2.067-.824 2.89-.824 2.48-1.648 0-.828-.827 0-2.89.41-4.957 1.238-7.02-1.238-5.367-7.016 1.648-5.37 5.777-4.543 7.844-2.48 1.238 1.238 2.066 2.48 2.476 2.066.824-.414-.41-1.652-1.652-3.304-2.89-3.715.828-6.192 5.367-6.192 4.543 0 9.496 2.063 5.367 6.192" style="fill:#fff;fill-opacity:1;fill-rule:evenodd;stroke:none" transform="matrix(1.58114 0 0 1.58114 -176.988 -246.509)"/><path d="M208.746 365.512c1.652 0 3.305 1.648 3.305 3.715 0 1.652-1.653 3.3-3.305 3.3-2.062 0-3.715-1.648-3.715-3.3a3.699 3.699 0 0 1 3.715-3.715" style="fill:#3a3a33;fill-opacity:1;fill-rule:evenodd;stroke:none" transform="matrix(1.58114 0 0 1.58114 -176.988 -246.509)"/><path d="M208.746 367.16c1.238 0 2.067.828 2.067 2.067 0 .824-.829 2.062-2.067 2.062-1.238 0-2.062-1.238-2.062-2.062 0-1.239.824-2.067 2.062-2.067" style="fill:#f8eba3;fill-opacity:1;fill-rule:evenodd;stroke:none" transform="matrix(1.58114 0 0 1.58114 -176.988 -246.509)"/><path d="M198.012 363.031c-.41 1.242-1.239 2.48-.825 3.719 0 .824-1.238 1.238-1.652 0-.414-.828.414-3.305 2.067-4.129.41-.414.824 0 .41.41M199.664 377.07c1.238 1.239 2.066 2.067 3.305 2.477.824 0 .824 1.238-.414 1.238-1.239 0-3.305-1.648-3.715-3.3 0-.415.824-.415.824-.415M213.703 379.96c1.238-.413 2.477-1.237 2.89-2.476.41-.414 1.65 0 1.239.825 0 1.238-2.477 2.89-4.129 2.476-.828 0-.414-.824 0-.824M220.723 367.574c-.414-1.238-.414-2.476-1.239-3.715-.828-.414 0-1.238.825-.828 1.238.828 2.062 3.305 1.238 4.957-.414.41-.824 0-.824-.414M211.227 357.254c-1.653-.414-2.891-.414-4.13 0-.827.41-1.242-.828-.413-1.242.824-.824 3.3-.824 4.953.414.414.414-.41.828-.41.828" style="fill:#3a3a33;fill-opacity:1;fill-rule:evenodd;stroke:none" transform="matrix(1.58114 0 0 1.58114 -176.988 -246.509)"/><path d="M220.39 191.93a4.593 4.593 0 0 1 0 9.184 4.593 4.593 0 0 1 0-9.184M195.66 191.93a4.593 4.593 0 0 1 0 9.184 4.593 4.593 0 0 1 0-9.184" style="fill:#191917;fill-opacity:1;fill-rule:evenodd;stroke:none" transform="matrix(1.58114 0 0 1.58114 -176.988 -246.509)"/><path d="M174.074 268.578c1.36 1.227 1.465 3.035 2.098 4.586 4.59 11.234 10.84 21.461 18.512 30.828 1.453 1.778 2.05 2.895-1.07 2.871-.75-.008-1.493.356-2.255.461-2.343.336-4.414 2.086-6.988-.676-2.066-2.23-4.996-1.277-7.422.95-.777.715-1.597 1.402-2.48 1.976-6.735 4.383-14.457.797-15.446-7.219-.195-1.605-.14-3.28.079-4.89.597-4.324 1.164-4.8 5.5-4.547 3.312.191 6.335-.43 8.89-2.625 2.88-2.477 2.735-4.273-.453-6.246-.73-.45-1.527-.805-2.523-1.324 4.957-3.844 5-8.84 3.597-14.172l-.039.027M171.324 337.031c2.352-3.336 4.735-5.746 7.758-7.5 1.027-.59 1.684-.554 2.047.84.281 1.078.988 2.043 1.648 3.348-3.87.414-7.101 2.605-11.453 3.312" style="fill:#457fbd;fill-opacity:1;fill-rule:nonzero;stroke:none" transform="matrix(1.58114 0 0 1.58114 -176.988 -246.509)"/><path d="m220.945 354.777.227-.043c-.082-.004-.164-.008-.254-.02 0-.003.027.063.027.063" style="fill:#454242;fill-opacity:1;fill-rule:nonzero;stroke:none" transform="matrix(1.58114 0 0 1.58114 -176.988 -246.509)"/><path d="M199.027 239.21c.602-1.718 1.098-3.046 1.516-4.401.207-.676.383-1.38 1.246-1.247 1.066.165.965 1.016.844 1.801-.297 2.016-1.113 3.867-1.977 5.672-.547 1.145-1.672 1.39-2.648.54-2.016-1.75-3.176-4.044-3.715-6.645-.113-.563-.07-1.2.59-1.457.851-.34 1.254.261 1.496.914.594 1.617 1.082 3.277 2.648 4.824M206.262 259.703c.3-1.937.535-3.437.758-4.933.09-.633.34-1.137 1.05-1.086.7.054.961.605.98 1.214.075 2.313-.253 4.598-1.058 6.747-.453 1.199-1.57 1.203-2.64.535-2.106-1.32-3.457-3.266-4.524-5.438-.312-.633-.36-1.41.313-1.812.922-.547 1.39.207 1.765.894.778 1.41 1.563 2.801 3.356 3.88M218.527 258.094c.246-1.82.473-3.317.641-4.817.082-.754.352-1.37 1.172-1.304.781.062 1.183.785 1.098 1.453-.278 2.086-.583 4.176-1.086 6.21-.297 1.2-1.227 1.657-2.457.97-2.368-1.329-3.801-3.461-4.942-5.817-.258-.539-.191-1.133.395-1.52.797-.523 1.293-.015 1.644.575.88 1.469 1.621 3.027 3.535 4.25M230.738 253.547c.977-1.418.559-3.012.809-4.48.117-.676.36-1.344 1.234-1.31.91.04 1.008.731 1.028 1.43.058 2.125-.383 4.18-.961 6.204-.387 1.347-1.41 1.554-2.477.968-2.351-1.293-3.86-3.375-4.883-5.808-.238-.563-.183-1.219.371-1.528.672-.375 1.235-.128 1.645.598.828 1.477 1.539 3.07 3.234 3.926M213.809 238.844c.222-1.805.394-3.293.593-4.778.078-.609.364-1.214 1.02-1.226.808-.024 1.246.61 1.156 1.355-.246 2.094-.437 4.22-.953 6.258-.328 1.305-1.418 1.727-2.723.906-2.117-1.324-3.488-3.277-4.593-5.445-.325-.64-.344-1.41.324-1.82.941-.582 1.422.222 1.785.886.773 1.415 1.55 2.81 3.39 3.864M223.27 278.336c.203-1.918.375-3.512.546-5.11.063-.59.153-1.16.95-1.16.742.004 1.015.497 1.05 1.106.118 2.21.004 4.406-.597 6.547-.45 1.625-1.672 1.476-2.739.902-2.167-1.172-3.625-3.094-4.792-5.219-.336-.605-.461-1.32.363-1.71.762-.36 1.285.058 1.66.687.844 1.394 1.71 2.758 3.559 3.957M210.336 280.395c.773-1.477.7-2.993.73-4.5.016-.688.079-1.446.97-1.5 1.015-.063 1.359.75 1.304 1.527-.145 2.008-.328 4.015-.7 5.988-.288 1.516-1.5 1.703-2.68 1.09-2.292-1.195-3.804-3.18-5.003-5.414-.273-.512-.375-1.125.258-1.512.71-.433 1.328-.172 1.738.45.934 1.43 1.715 2.976 3.383 3.87M230.035 236.348c.262-1.688.516-3.157.715-4.633.102-.727.262-1.38 1.164-1.29.727.075.852.712.879 1.286.09 2.215-.281 4.402-.95 6.488-.386 1.219-1.538 1.363-2.616.746-2.25-1.293-3.63-3.351-4.688-5.64-.27-.578-.363-1.368.469-1.703.797-.325 1.25.207 1.594.828.812 1.465 1.539 3.007 3.433 3.918M235.457 273.148c-.059.395-.125 1.266-.332 2.102-.29 1.148.2 2.738-1.336 3.246-1.637.535-2.664-.73-3.726-1.687-1.153-1.043-2.067-2.278-2.81-3.641-.358-.664-.542-1.305.224-1.738.675-.383 1.21-.14 1.71.507 1.012 1.297 1.528 3.81 3.36 3.36 1.207-.3.488-2.762.66-4.246.086-.762.355-1.344 1.207-1.281.652.046.996.535 1.035 1.175.04.578.008 1.157.008 2.203" style="fill:#191917;fill-opacity:1;fill-rule:nonzero;stroke:none" transform="matrix(1.58114 0 0 1.58114 -176.988 -246.509)"/><path d="M266.05 291.328c-4.683-.469-9.398-2.273-12.581-6.95-.395-.581-1.223-1.358-.301-1.96.664-.43 1.144.422 1.531.969 2.074 2.96 4.89 4.8 8.363 5.773 1.465.41 2.305.32 2.016-1.426-.406-2.468.36-4.543 1.906-6.414.856-1.035.938-2.28.907-3.554-.012-.586-.035-1.29.789-1.227.691.055.918.676.84 1.3-.192 1.52-.192 3.09-1.18 4.403-.406.531-.793 1.09-1.133 1.672-1.062 1.82-.855 3.977-.148 5.555.445.988 2.617.02 3.949-.29 1.96-.46 3.851-1.202 5.773-1.816.64-.203 1.426-.535 1.742.32.348.954-.558.977-1.164 1.169-3.468 1.113-6.863 2.562-11.308 2.476" style="fill:#454242;fill-opacity:1;fill-rule:nonzero;stroke:none" transform="matrix(1.58114 0 0 1.58114 -176.988 -246.509)"/><path d="M255.133 338.613c-3.89.332-7.942-.242-11.461 2.13-.445.296-1.332.331-1.074 1.089 1.195 3.52-1.602 6.965-.125 10.496.254.61.418 1.793-.528 1.942-1.316.199-.61-1.086-.836-1.688-.804-2.152-.625-4.285-.066-6.508.824-3.285.262-3.699-2.793-4.676-2.566-.824-4.93-.171-7.383.168-.605.086-1.46.438-1.617-.53-.117-.763.723-.825 1.219-.93 2.527-.524 5.05-1.336 7.656-.376 1.75.645 3.371.313 4.988-.539 5.399-2.836 11.196-2.066 16.93-1.785.52.024.984.207.852.848-.125.598-.68.601-1.145.582-1.54-.055-3.074-.145-4.617-.223" style="fill:#191917;fill-opacity:1;fill-rule:nonzero;stroke:none" transform="matrix(1.58114 0 0 1.58114 -176.988 -246.509)"/><path d="M163.543 288.316c-3.621.54-7.25-.84-10.711-2.91-1.602-.957-3.012-2.133-3.844-3.804-.46-.934-1.664-2.375-.386-3 1.535-.75 1.156 1.296 1.617 2.043 1.972 3.19 5.21 4.453 8.441 5.652 1.617.601 1.848-1.059 2.192-2.031 1.343-3.797 3.23-7.176 6.675-9.477.82-.539 1.762-1.957 2.633-.84.766.98-.828 1.512-1.508 1.977-3.257 2.238-5.03 5.41-6.343 9.023-.664 1.832-.047 1.969 1.476 1.809a15.122 15.122 0 0 1 3.442.008c.628.074 1.816-.203 1.683.984-.105.938-1.078.524-1.68.551-1.054.05-2.117.016-3.687.016" style="fill:#454242;fill-opacity:1;fill-rule:nonzero;stroke:none" transform="matrix(1.58114 0 0 1.58114 -176.988 -246.509)"/><path d="M171.637 342.754c-4.535.012-4.887.644-2.93 4.004 1.082 1.86 2.617 3.308 4.27 4.648.468.38.918.887.492 1.446-.477.617-1.008.132-1.469-.211-2.871-2.114-5.25-4.715-5.86-8.266-.48-2.816-1.812-2.508-3.57-1.586-1.547.809-2.78 2.04-3.914 3.363-.379.438-.87.903-1.453.368-.605-.56-.062-1.055.285-1.47 2.317-2.757 4.98-4.952 8.883-4.312 4.578.754 8.973.633 13.074-1.86.47-.284 1.098-.308 1.66-.444.805-.192 1.918-.801 2.227.328.402 1.468-1.047.875-1.723 1.09-3.523 1.132-6.707 3.535-9.972 2.902" style="fill:#191917;fill-opacity:1;fill-rule:nonzero;stroke:none" transform="matrix(1.58114 0 0 1.58114 -176.988 -246.509)"/><path d="M210.11 383.387c-.387-.633-.688-1.567-1.497-1.43-.465.082-1.078.945-1.11 1.492-.05.77.685 1.39 1.462 1.352.664-.035.988-.738 1.144-1.414zm9.64-25.79c.121-.929-.16-1.472-1.223-1.394-.875.059-1.402.336-1.402 1.36 0 .94.266 1.402 1.281 1.398.973 0 1.406-.402 1.344-1.363zm-25.145 14.145c-.93.32-1.367 1.274-1.285 1.973.145 1.238 1.543.867 2.364 1.125.953.3.933-.75.988-1.348.121-1.43-1.313-1.113-2.067-1.75zm7.02-12.699c-.664-1.227.773-3.414-1.805-3.61-.933-.07-1.34.196-1.48 1.212-.38 2.652 1.672 2.175 3.285 2.398zm-.926 21.309c1.313 1.324 2.934 2.574 4.738 1.968 2.145-.715 2.344-3.047 2.836-5 .23-.925-.46-2.16 1.032-2.89.515 3.09-.43 6.918 3.715 8.035 1.449.39 6.375-2.985 6.703-4.473 1.148-5.254-3.703-5.457-6.996-7.449 2.199-.64 3.625.398 5.136.66 2.442.426 4.18-.242 5.012-2.66.809-2.348.613-4.398-1.902-5.637l.062.055c.313-1.195-.512-1.805-1.36-2.152-3.066-1.25-4.765.988-6.76 3.656-.103-3.61 5.515-5.711.991-8.82-2.293-1.582-8.086-1.485-9.922.238-2.863 2.676-.39 5.094.676 7.758-2.363-1.457-4.219-4.868-7.344-2.438-2.285 1.785-3.476 4.992-2.644 7.531 1.394 4.266 5.66 2.239 9.176 2.485-7.457 4.496-7.645 4.863-4.45 8.097.075.793.532 1.114 1.301 1.036zm20.227-25.641c-.121 3.46.894 6.523 3.101 9.226.754.93.977 2.196.504 3.305-1.246 2.906-.5 5.38 1.746 7.809-3.28.617-5.297 2.191-6.273 5.199-.52 1.594-2.094 2.672-3.762 2.867-3.226.38-5.547 1.934-7.258 5.106-1.867-3.223-4.511-4.7-7.789-5.344-1.722-.344-3.37-1.488-3.937-3.152-1.106-3.278-3.625-4.223-6.863-4.727 2.316-2.496 3.109-5.3 2.753-8.488-.175-1.598.41-3.082 1.325-4.332 1.898-2.59 2.828-5.403 2.257-8.856 3.504 1.356 6.68 1.406 9.98-.097 1.712-.774 3.849-.684 5.61.332 2.743 1.59 5.598 1.906 8.63 1.214zm0 0" style="fill:#454242;fill-opacity:1;fill-rule:nonzero;stroke:none" transform="matrix(1.58114 0 0 1.58114 -176.988 -246.509)"/><path d="M206.313 357.719c1.96-.965 3.972-.293 6.253-.348-2.691-2.008-4.062-1.933-6.254.348zm5.375 22.261c3.984.48 5.386-.425 5.921-3.796-1.504 2.066-3.336 2.738-5.921 3.796zm-14.774-11.66c-.133-2.125 1.473-3.808 2.012-6.347-2.672 1.875-3.32 3.797-2.012 6.347zm15.516.852c-.114-1.934-.89-3.418-3.16-3.543-2.13-.113-3.786.496-3.98 3.016-.177 2.355 1.1 4.007 3.335 4.085 2.324.09 3.43-1.285 3.805-3.558zm-13.032 10.14c-3.195-3.23-3.003-3.601 4.446-8.093-3.512-.25-7.778 1.781-9.172-2.485-.832-2.543.36-5.746 2.648-7.53 3.121-2.43 4.977.98 7.34 2.437-1.07-2.66-3.539-5.082-.676-7.758 1.836-1.719 7.63-1.82 9.922-.242 4.524 3.113-1.094 5.218-.992 8.828 1.992-2.672 3.691-4.914 6.762-3.66.847.347 1.672.953 1.36 2.156-.43.176-1.481-.203-1.099.715.704 1.699.598 3.457.594 5.5 2.735-2.188.832-4.266.442-6.278 2.515 1.243 2.71 3.293 1.906 5.641-.836 2.418-2.574 3.086-5.016 2.66-1.511-.262-2.937-1.305-5.136-.66 3.293 1.992 8.144 2.191 6.996 7.45-.328 1.491-5.254 4.862-6.703 4.472-4.145-1.113-3.2-4.95-3.715-8.04-1.489.74-.801 1.97-1.032 2.895-.492 1.957-.687 4.29-2.84 5-1.8.602-3.421-.64-4.734-1.972.113-.118.235-.243.352-.368 1.148.399 2.246 1.2 4.23.528-2.422-1.004-4.035-2.145-5.504-3.582-.39.867-.156 1.379.145 1.886l-.524.5" style="fill:#f5f3f3;fill-opacity:1;fill-rule:nonzero;stroke:none" transform="matrix(1.58114 0 0 1.58114 -176.988 -246.509)"/><path d="M201.625 359.043c-1.613-.223-3.664.258-3.29-2.395.145-1.015.552-1.285 1.485-1.214 2.578.195 1.145 2.379 1.805 3.609M194.605 371.742c.758.633 2.188.32 2.063 1.746-.05.602-.035 1.649-.98 1.352-.825-.258-2.22.117-2.372-1.125-.082-.7.364-1.652 1.29-1.973M219.75 357.598c.063.96-.371 1.363-1.344 1.363-1.015.004-1.281-.457-1.281-1.399 0-1.023.527-1.3 1.402-1.359 1.063-.078 1.344.465 1.223 1.395M210.11 383.387c-.157.676-.481 1.379-1.145 1.414-.777.039-1.512-.582-1.461-1.352.031-.547.644-1.41 1.11-1.492.808-.137 1.109.797 1.495 1.43" style="fill:#4aa659;fill-opacity:1;fill-rule:nonzero;stroke:none" transform="matrix(1.58114 0 0 1.58114 -176.988 -246.509)"/><path d="M200.7 380.348c-.77.082-1.227-.239-1.302-1.032.176-.168.348-.336.52-.503.379.39.754.78 1.133 1.171a15.18 15.18 0 0 0-.352.364" style="fill:#f5f3f3;fill-opacity:1;fill-rule:nonzero;stroke:none" transform="matrix(1.58114 0 0 1.58114 -176.988 -246.509)"/><path d="M208.93 367.46c-1.118-.007-1.88.438-1.88 1.65.005 1.136.657 1.78 1.778 1.82 1.027.035 1.555-.586 1.672-1.578.133-1.172-.379-1.82-1.57-1.891zm3.496 1.716c-.371 2.27-1.48 3.64-3.805 3.554-2.23-.078-3.508-1.73-3.332-4.085.195-2.52 1.852-3.13 3.98-3.012 2.27.12 3.047 1.605 3.157 3.543" style="fill:#3d3d3f;fill-opacity:1;fill-rule:nonzero;stroke:none" transform="matrix(1.58114 0 0 1.58114 -176.988 -246.509)"/><path d="M220.973 362.902c.39 2.012 2.293 4.09-.442 6.278.004-2.043.11-3.801-.594-5.5-.382-.918.668-.54 1.098-.715zM196.914 368.32c-1.312-2.55-.664-4.476 2.008-6.347-.531 2.539-2.14 4.222-2.008 6.347M201.05 379.984c-.378-.39-.757-.78-1.132-1.171-.297-.508-.531-1.024-.145-1.887 1.477 1.437 3.082 2.574 5.508 3.578-1.984.676-3.082-.125-4.23-.52M211.688 379.98c2.585-1.058 4.417-1.734 5.921-3.796-.53 3.37-1.937 4.277-5.921 3.796M206.313 357.719c2.19-2.281 3.562-2.356 6.253-.348-2.28.055-4.293-.617-6.254.348" style="fill:#454242;fill-opacity:1;fill-rule:nonzero;stroke:none" transform="matrix(1.58114 0 0 1.58114 -176.988 -246.509)"/><path d="M208.926 367.46c1.199.071 1.707.72 1.57 1.892-.11.992-.64 1.613-1.668 1.582-1.117-.043-1.773-.692-1.773-1.825-.004-1.207.758-1.656 1.87-1.648" style="fill:#f0eeee;fill-opacity:1;fill-rule:nonzero;stroke:none" transform="matrix(1.58114 0 0 1.58114 -176.988 -246.509)"/><path d="M221.797 371.742c.754.633 2.183.32 2.062 1.746-.054.602-.039 1.649-.984 1.352-.82-.258-2.219.117-2.367-1.125-.086-.7.36-1.652 1.289-1.973" style="fill:#4aa659;fill-opacity:1;fill-rule:nonzero;stroke:none" transform="matrix(1.58114 0 0 1.58114 -176.988 -246.509)"/><path d="M154.406 324.629c2.703-3.883 10.125-5.14 14.446-2.54 3.406 2.048 3.836 5.528 1.359 10.923l-.082.144c-.3.625-1.05 2.067-1.023 1.965-1.63 1.953-3.34 3.25-5.442 3.574-8.133 1.266-8.254 3.352-9.734 10.309-.297 1.398.293 1.61 1.582 1.398 2.957-.484 5.492-1.695 7.554-3.87 1.52-1.602 2.434-1.302 2.723.866.582 4.32 3.266 6.782 7.176 8.188 1.398.5 2.71 1.031 3.734-.727.942-1.617.621-2.87-.636-4.12-1.723-1.708-3.688-3.094-5.672-4.454-.598-.406-1.125-.867-.844-1.637.289-.777 1.035-.828 1.719-.683 7.004 1.453 12.257-1.57 16.699-6.563-2.328-1.554-4.309-1.797-7.75-.722-2.656.824-5.238 1.894-7.91 2.644-4.938 1.489-3.239-2.46-1.117-5.246 1.84-2.012 3.117-4.566 5.566-5.785 1.871-.926 2.152-1.723 1.234-3.688-2.32-4.964-1.492-8.242 2.516-12.16.754-.738 1.402-1.582 2.125-2.36 1.379-1.472.48-1.843-.945-2.112-1.836-.348-2.801.894-3.922 1.945-4.82 4.516-11.016 5.254-15.485 1.937-7.261-5.394-6.57-14.16-3.554-20.343.632-1.297 1.808-1.5 3.207-1.219 1.89.371 3.855.61 5.746.215 2.14-.453 5.117-1.098 4.976-3.442-.117-1.882-3.12-2-5.136-2.226-.887-.098-2.188.547-2.547-.652-.446-1.485 1.113-1.504 1.965-1.958 3.914-2.062 6.093-5.421 5.754-8.917-.165-1.665-.364-3.083-2.66-1.793-1.055.59-2.372.753-3.59 1-5.387 1.097-7.227 3.43-6.989 8.996.04.832 0 1.617-.777 1.996-.848.41-1.7.23-2.34-.535-.68-.813-1.371-1.614-2.023-2.446-1.688-2.164-3.711-3.91-6.25-4.992-.637-.27-1.18-.77-1.825.371-2.226 3.942-1.457 7.567 2.442 9.856 1.398.82 2.937 1.445 4.469 1.992 1.71.601 2.37 1.832 1.812 3.367-2.066 5.633-1.117 10.973 1.234 16.242.27.606.649 1.195.036 1.848-.598.633-1.203.363-1.852.152-6.059-1.972-11.07-5.285-14.383-10.894-1.718-2.914-2.668-6.118-3.691-9.309-7.332 3.184-8.219 6.102-3.73 12.305 4.476 6.18 10.195 11.031 16.773 14.828 2.508 1.445 3.293 2.703 1.398 5.332-1.957 2.723-1.394 4.762 1.352 7.223.77-1.422 1.402-2.918 2.312-4.223zm-1.574-39.223c-1.602-.957-3.012-2.133-3.844-3.804-.46-.934-1.664-2.375-.386-3 1.53-.75 1.156 1.296 1.617 2.043 1.972 3.19 5.21 4.453 8.441 5.652 1.617.601 1.848-1.059 2.192-2.031 1.343-3.797 3.23-7.176 6.68-9.477.816-.539 1.757-1.957 2.628-.84.766.985-.828 1.512-1.508 1.977-3.257 2.238-5.03 5.41-6.343 9.023-.664 1.832-.047 1.969 1.476 1.809a15.122 15.122 0 0 1 3.442.008c.628.074 1.816-.203 1.683.984-.105.938-1.078.524-1.68.551-1.054.05-2.117.016-3.687.016-3.621.539-7.25-.84-10.711-2.91zm13.54 55.332c4.577.754 8.972.633 13.073-1.86.47-.284 1.098-.308 1.66-.444.805-.192 1.918-.801 2.227.328.402 1.468-1.047.875-1.723 1.09-3.523 1.132-6.707 3.535-9.972 2.902-4.535.012-4.887.644-2.93 4.004 1.082 1.86 2.617 3.308 4.27 4.648.468.38.918.89.492 1.446-.477.617-1.008.132-1.469-.211-2.871-2.114-5.25-4.715-5.86-8.266-.48-2.816-1.812-2.508-3.57-1.586-1.547.809-2.78 2.04-3.914 3.363-.379.438-.87.903-1.453.368-.605-.56-.062-1.055.285-1.47 2.317-2.757 4.98-4.952 8.883-4.312" style="fill:#fff;fill-opacity:1;fill-rule:evenodd;stroke:none" transform="matrix(1.58114 0 0 1.58114 -176.988 -246.509)"/><path d="M153.582 184.285c1.078-.855 1.973-1.574 2.871-2.285 3.254-2.559 6.54-5.082 9.75-7.7 1.399-1.136 1.629-2.577.395-4.034-1.047-1.23-2.41-1.942-3.77-.735-3.441 3.063-6.64 1.934-10.008-.125-3.953-2.414-8.152-3.89-12.902-2.707-5.121 1.274-9.418 5.34-9.879 9.43-.527 4.77 1.285 7.535 6.914 10.363 1.637.828 1.985 1.469.29 2.727-4.485 3.34-8.888 6.781-13.266 10.242-1.399 1.105-2.118 2.543-.938 4.285 1.004 1.484 2.543 1.691 3.8.793 4.09-2.922 8.122-2.031 12.329-.367 3.602 1.426 7.379 2.25 11.297 1.836 4.441-.473 8.297-2.047 10.152-6.492 1.719-4.118.906-7.907-1.949-11.309-1.324-1.578-3.3-2.297-5.086-3.922zm-7.285 102.707c-3.246-2.39-4.356-6.199-2.91-10 .101-.27.234-.527.336-.797 1.586-4.18 2.164-4.398 6.203-2.37 2.629 1.32 4.707 3.3 6.765 5.894.977-6.465 5.118-8.953 10.77-9.809 1.297-.195 2.59-.789 3.742-1.45 1.082-.62 1.957-.616 2.902.09l-.035.032c-.64-4.961-2.457-9.652-3.05-14.648-1.41-11.77-.239-23.098 5.246-33.727 1.117-2.152 1.28-4.043.628-6.281-2.882-9.918-2.449-19.61 2.38-28.89.703-1.356.245-1.817-.891-2.403-2.551-1.325-4.606-3.168-5.516-6.016-.875-2.75-.781-5.437 1.406-7.512 2.145-2.027 4.66-1.308 7.043-.304.793.336 1.762.652 2.227 1.289 2.375 3.254 4.469 2.344 7.379.379 11.18-7.555 22.64-5.895 33.906-.075 2.23 1.153 3.922 1.79 6.328.446 2.352-1.313 5.024-1.14 7.485.238 3.18 1.781 4.02 5.11 1.234 7.344-3.84 3.086-3.633 6.308-2.367 10.504 2.289 7.62 2.176 15.418-.02 23.097-.414 1.45-.41 2.586.625 3.711 4.305 4.676 4.946 10.336 4.012 16.242-.465 2.926.098 5.278 1.973 7.497 3.066 3.632 3.898 7.687 1.828 12.097-1.242 2.649-1.223 5.024.441 7.602 2.574 3.969 1.969 8.148-.254 12.047-1.215 2.12-1.316 4.039-.582 6.297 2.57 7.914 1.485 15.023-4.949 20.828-.477.433-1.187.777-.855 1.64.945 2.446 1.527 4.961 1.632 7.59.04.988.703 1.035 1.426.793 4.914-1.656 9.899-1.02 14.89-.543 1.321.125 2.708.262 4.313-.664-1.398-1.351-2.828-2.543-4.023-3.934-2.172-2.539-2.418-5.472-.871-8.347.89-1.653.804-2.176-1.121-2.586-6.528-1.395-8.422-4.305-7.485-10.918.188-1.32.2-2.691.078-4.024-.164-1.757.727-2.07 2.09-1.695 2.707.754 5.301 1.801 7.524 3.563.906.722 1.343.793 2.191-.23 2.027-2.438 4.367-4.614 6.43-7.016.953-1.106 1.75-1.18 2.992-.602 3.535 1.645 5.848 5.957 5.11 9.777-.141.72-.348 1.426-.563 2.305 3.73-.578 7.258-.734 10.742.242 3.137.883 3.457 1.985 1.242 4.313-4.86 5.125-11.105 7.082-17.898 7.68-2.012.18-4.114.343-4.614 2.617-.503 2.254 1.036 3.937 2.817 4.964 4.262 2.454 8.742 2.844 13.258.61a22.532 22.532 0 0 0 5.851-4.203c1.676-1.66 2.672-1.235 3.64.781 2.641 5.46.829 9.512-5.038 10.953-.563.137-1.145.383-1.696.332-3.285-.289-4.789 1.242-5.75 4.387-1.109 3.656-4.425 4.863-8.007 5.066-2.989.172-5.965.043-8.95-.324-7.253-.89-13.68 3.898-14.406 10.605-.21 1.958.149 2.868 2.524 2.239 5.054-1.34 10.207-2.336 15.218.246 1.942.996 4.512 1.816 4.543 4.355.028 2.633-2.656 3.301-4.609 4.207-4.094 1.899-8.344 2.016-12.676.766-1.047-.3-2.328-1.105-3.246.016-.863 1.054.047 2.218.418 3.257 2.125 5.989.363 9.914-5.504 12.47-1.273.55-2.11.37-3.12-.474-4.157-3.46-4.985-7.148-2.708-13.05-2.36.226-4.629.547-6.914.636-3.691.153-6.738-1.43-9.29-3.976-1.124-1.129-1.37-2.242.763-2.473 2.304-.246 4.191-1.39 5.937-2.781 2.934-2.336 6.168-3.031 9.774-2.004 2.109.602 3.296.262 3.136-2.371-.093-1.496.367-3.047.707-4.547.504-2.207-.191-3.488-2.558-3.297-8.395.676-16.492 2.278-22.492 8.906-2.504 2.77-5.403 3.434-8.856 2.72-1.777-.368-3.117-1.071-2.914-3.22.035-.378.031-.793-.086-1.148-.418-1.285-.883-2.977-2.297-3-1.297-.023-.976 1.8-1.414 2.79-.187.425-.195.937-.285 1.405-.2 1.094.266 2.586-1.031 3.09-1.399.547-2.57-.535-3.653-1.312-2.097-1.508-3.285-3.692-4.093-6.196-2.797 3.348-2.836 4.754-.243 7.48 1.188 1.247 1.407 2.184-.398 3.102-2.074 1.043-3.887 2.485-5.523 4.16-2.47 2.532-5.875 2.61-9.145 3.149.461 1.484 1.77 1.918 2.555 2.836 1.629 1.902 2.015 3.86.87 6.121-1.429 2.816-2.714 3.41-5.769 2.512-3.875-1.145-7.03-3.293-8.672-7.07-.703-1.63-1.277-1.508-2.472-.653-2.344 1.676-5.074 2.277-7.883 2.512-1.86.16-2.945-.496-2.617-2.653 1.488-9.718 2.726-12.453 12.238-13.93 2.836-.437 6.168-5.991 5.715-9.425-.34-2.54-3.164-4.125-6.84-3.836-4.543.356-6.762 2.2-8.21 6.82-.954 3.04-1.692 3.227-3.997.996-3.23-3.128-3.96-6.328-1.848-10.14.993-1.778-.035-2.156-1.105-2.805-7.184-4.363-13.34-9.828-18.016-16.86-4.07-6.116.036-14.183 7.45-14.675 1.753-.113 1.62 1.254 1.843 2.34 1.813 8.691 6.54 14.574 14.211 17.472-.484-2.992-1.492-5.777-1.43-8.73 2.977-4.902 5.57-7.738-5.222-10.46zm125.351-118.687c-6.941 0-13.878.02-20.816-.016-1.773-.008-3.426.168-3.66 2.317-.219 1.984 1.305 2.554 2.867 2.996 3.18.894 3.59 1.851 1.879 4.675-1.7 2.797-3.535 5.52-4.766 8.567-1.402 3.488-1.937 7.011-.277 10.629 3.46 7.547 11.8 10.343 19.453 6 3.324-1.887 5.723-2.188 9.07.066 5.04 3.399 11.938 2.602 16.485-1.066 4.055-3.262 5.543-9.09 3.543-15.047-1-2.992-2.465-5.836-3.766-8.727-1.078-2.398-.574-4.101 2.024-4.984 1.535-.524 2.968-1.192 2.578-3.207-.414-2.121-2.07-2.215-3.797-2.211-6.938.023-13.875.008-20.817.008zm-62.605 225.523c2.105-4.875 5.418-7.652 10.062-8.937 1.403-.387 2.508-1.551 3.168-2.848 1.325-2.621 3.368-4.11 6.22-4.637 1.866-.347 2.296-1.351.952-2.785-1.941-2.078-2.394-4.527-2.062-7.238.254-2.051.219-4.102-1.192-5.778-1.925-2.273-2.097-4.87-1.695-7.636.414-2.856 0-3.25-2.887-2.442-2.722.762-5.289.692-7.855-.57-2.625-1.285-5.36-1.379-8.11-.352-2.992 1.122-6.007 1.329-9.039.176-1.636-.625-2.402-.152-2.222 1.653.355 3.546-.848 6.613-2.852 9.464-.789 1.118-1.308 2.391-1.195 3.797.277 3.442-.578 6.489-2.957 9.063-.84.914-.91 1.734.531 2.082 3.871.93 6.656 3.293 8.899 6.48.476.672 1.265 1.344 2.035 1.551 4.664 1.281 7.918 4.207 10.199 8.957zm.883-230.558c28.949 0 57.898.039 86.847-.063 2.774-.012 3.536.668 3.528 3.488-.106 32.23.64 64.48-.246 96.688-1.121 40.828-14.668 76.941-44.61 105.82-12.699 12.246-27.55 21.297-43.722 28.258-1.711.738-3.133.336-4.68-.34-43.5-18.933-70.844-51.59-82.707-97.383-3.324-12.828-5.277-25.91-5.094-39.148.446-31.356.078-62.707.164-94.063.008-2.695.77-3.324 3.383-3.316 29.047.094 58.094.059 87.137.059" style="fill:#457fbd;fill-opacity:1;fill-rule:evenodd;stroke:none" transform="matrix(1.58114 0 0 1.58114 -176.988 -246.509)"/><path d="M171.328 337.031c4.348-.707 7.578-2.898 11.45-3.312-.66-1.305-1.364-2.27-1.65-3.348-.362-1.394-1.019-1.43-2.046-.84-3.023 1.754-5.406 4.164-7.754 7.5zm28.059-168.203c3.394 1.746 5.21 4.328 7.379 6.79 1.73-3.329 4.207-5.419 7.586-6.567-4.786-1.207-9.516-1.883-14.965-.223zm15.785 31.063c-.063 2.011.289 5.254 1.89 8.222 1.465 2.707 3.465 2.907 5.004.239 4.032-6.993 4.551-14.38 1.75-21.95-.464-1.257-1.277-2.57-2.82-2.578-1.379-.004-2.16 1.2-2.793 2.281-2.246 3.852-2.996 8.083-3.031 13.786zm-14.469-2.114c-.168-3.527-.64-7.714-2.785-11.504-.75-1.324-1.504-2.945-3.328-2.773-1.777.168-2.375 1.852-2.899 3.266-.523 1.43-.863 2.953-1.078 4.46-.738 5.16-.043 10.16 2.043 14.926.735 1.668 1.68 3.703 3.672 3.672 2.094-.031 2.64-2.254 3.246-3.957.844-2.37 1.14-4.851 1.13-8.09zm4.414 112.953c.133 3.864 1.996 6.52 3.84 9.176 1.031 1.489 1.129 2.563-1.137 2.5-1.664-.047-2.976.711-4.172 1.703-1.28 1.055-2.128 2.055-.113 3.454 1.524 1.058 2.356 2.843 2.399 4.742.035 1.437.78 1.75 1.937 1.918 1.692.246 3.453.25 4.621-1.016 4.285-4.66 9.29-8.047 15.61-9.383-9.606-.86-16.84-5.648-22.985-13.094zm-36.012 24.391c-1.628 1.953-3.34 3.25-5.44 3.574-8.134 1.266-8.255 3.352-9.735 10.309-.297 1.398.293 1.61 1.582 1.398 2.957-.484 5.492-1.695 7.554-3.87 1.52-1.602 2.434-1.302 2.723.866.582 4.32 3.266 6.782 7.176 8.188 1.398.5 2.71 1.031 3.734-.727.942-1.617.621-2.87-.637-4.12-1.722-1.708-3.687-3.094-5.671-4.454-.598-.406-1.125-.867-.844-1.637.289-.777 1.035-.828 1.719-.683 7.004 1.453 12.257-1.57 16.699-6.563-2.328-1.554-4.309-1.797-7.75-.722-2.656.824-5.238 1.894-7.91 2.644-4.938 1.489-3.239-2.46-1.117-5.246 1.84-2.012 3.117-4.566 5.566-5.785 1.871-.926 2.152-1.723 1.234-3.688-2.32-4.964-1.492-8.242 2.516-12.16.754-.738 1.402-1.582 2.125-2.36 1.379-1.472.48-1.843-.945-2.112-1.836-.348-2.801.894-3.922 1.945-4.82 4.516-11.016 5.254-15.485 1.937-7.261-5.394-6.57-14.16-3.554-20.343.632-1.297 1.808-1.5 3.207-1.219 1.89.371 3.855.61 5.746.215 2.14-.453 5.117-1.098 4.976-3.442-.117-1.882-3.12-2-5.136-2.226-.887-.098-2.188.547-2.547-.652-.446-1.485 1.113-1.504 1.965-1.958 3.914-2.062 6.093-5.421 5.754-8.917-.165-1.665-.364-3.083-2.66-1.793-1.055.59-2.372.753-3.59 1-5.387 1.097-7.227 3.43-6.989 8.996.04.832 0 1.617-.777 1.996-.848.41-1.7.23-2.34-.535-.68-.813-1.371-1.614-2.023-2.446-1.688-2.164-3.711-3.91-6.25-4.992-.637-.27-1.18-.77-1.825.371-2.226 3.942-1.457 7.567 2.442 9.856 1.398.82 2.937 1.445 4.469 1.992 1.71.601 2.37 1.832 1.812 3.367-2.066 5.633-1.117 10.973 1.234 16.242.27.606.649 1.196.036 1.848-.598.633-1.204.363-1.852.152-6.059-1.972-11.07-5.285-14.383-10.894-1.719-2.914-2.668-6.118-3.691-9.309-7.332 3.184-8.219 6.102-3.73 12.305 4.476 6.18 10.195 11.031 16.773 14.828 2.508 1.445 3.293 2.703 1.398 5.332-1.957 2.723-1.394 4.762 1.352 7.223.77-1.422 1.402-2.918 2.312-4.223 2.703-3.883 10.125-5.14 14.446-2.54 3.406 2.048 3.836 5.528 1.359 10.923l-.082.144c-.3.625-1.05 2.067-1.023 1.965zm115.766-49.074c-4.742-1.262-8.988-.785-13.168.637-1.105.379-2.433 1.062-3.133-.051-.86-1.38.739-1.89 1.598-2.57 3.34-2.665 3.566-5.786.766-8.965-1.375-1.559-2.422-1.918-3.786.101-.953 1.414-2.265 2.649-3.585 3.754-1.93 1.613-2.57 3.242-.934 5.438.547.73 1.285 1.894.21 2.546-1.273.778-1.937-.539-2.335-1.453-1.016-2.332-2.8-3.894-4.848-5.203-4.449-2.844-4.59-2.765-5.058 2.328-.414 4.461.894 6.282 5.308 7.371.84.207 1.696.352 2.54.567 2.761.7 3.074 1.558 1.488 3.984-2.329 3.559-2.164 5.352.855 8.383.879.887 1.89 1.64 2.82 2.477 1.86 1.687 1.493 3.539-.953 4.226-1.945.551-3.953.602-6.011.403-4.493-.422-9.024-1.024-13.426.667-.797.305-1.762.375-1.926 1.47-.656 4.382-2.902 7.738-7.094 10.19h3.41c4.297.016 5.868 1.993 5.008 6.274-.27 1.32-.547 2.652-.66 3.992-.437 5.004-.953 5.38-6.129 4.414-2.113-.394-4.207-.52-6.137.778-2.062 1.379-4.164 2.699-6.253 4.043 3.515 2.304 3.687 2.316 11.62 1.367 1.196-.145 2.497-.613 3.419.719.937 1.351.37 2.472-.348 3.714-1.734 3.004-.633 6.989 2.226 8.899.75.504 1.204.207 1.801-.082 4.086-1.988 5.106-4.64 3.48-8.942-.706-1.878-1.878-3.984-.425-5.746 1.625-1.96 4.031-1.257 6.2-.699.37.094.73.258 1.105.34 4.816 1.094 9.097-.09 13.164-2.996-1.692-1.828-3.692-2.66-5.836-3.277-4.418-1.274-8.598.113-12.758 1.238-2.457.668-3.36-.211-3.652-2.512-.907-7.031 4.171-13.656 11.414-14.996 4.054-.75 8.062.207 12.093.098 5.79-.153 7.547-1.317 8.973-6.899.41-1.601 1.191-2.308 2.777-2.297 1.934.012 3.852-.195 5.711-.761 3.899-1.188 4.786-3.442 2.856-7.22-2.078 1.368-4.067 2.911-6.254 4.067-5.313 2.817-10.617 2.254-15.668-.703-3.02-1.77-4.64-5.219-3.758-7.777 1.078-3.11 3.719-3.777 6.695-4.012 6.172-.492 11.883-2.187 16.598-7.324zm-95.574-79.453c-1.094-.137-1.93-.215-2.758-.344-.559-.09-1.242-.145-1.305-.875-.16-1.813 3.504-.52 3.11-2.602-.254-1.359-1.547-.59-2.434-.59-.566 0-1.226.04-1.402-.683-.156-.68.238-1.105.883-1.23.988-.204 2.53.004 2.382-1.41-.144-1.372-1.718-.79-2.683-.997-.485-.105-1.04-.258-1.07-.789-.036-.55.472-.781.98-.851.57-.075 1.176-.04 1.715-.22.488-.16 1.25-.218 1.215-.983-.032-.72-.746-.81-1.262-.973-.816-.274-2.594.07-2.652-1.172-.036-.813.683-.758 1.25-.809.898-.078 1.828-.074 2.593-.816-1.12-.61-3.109-.645-2.953-1.93.196-1.582 2.188-.144 3.215-.922-.293-1.285-2.61-1.207-2.223-2.636.528-1.985 2.618.457 3.668-.957-.441-.414-.828-.82-1.261-1.176-.551-.457-1.645-.734-1.125-1.649.375-.656 1.172-.144 1.816.098.719.274 1.543.88 2.344-.031-.223-.277-.387-.496-.567-.7-.59-.675-2.097-1.046-1.453-2.14.606-1.031 1.93-.433 2.895-.133 4.223 1.309 7.234 4.016 8.668 8.203 2.754 8.07 3.273 16.086-1.297 23.817 3.035 1.816 6.195 3.308 8.7 5.765.671.665 1.034.465 1.527-.183 1.527-2.031 3.472-3.594 5.675-4.836.567-.316.926-.547.446-1.281-3.657-5.547-3.489-11.684-2.43-17.844 1.043-6.031 3.434-11.238 9.836-13.441 1.098-.38 2.582-1.102 3.223-.168.878 1.273-1.137 1.687-1.579 2.671-.054.118.055.305.082.422 1.344.696 2.508-1.136 3.84-.226.227 1.722-2.449 1.457-2.242 3.183 1.164.442 2.676-.925 3.297.309.906 1.8-2.152 1.496-2.133 3.05 1.066.634 2.899-.667 3.152.622.332 1.668-1.878 1.086-2.722 1.875-.094.086-.082.281-.117.418.64.578 1.418.574 2.191.64.61.055 1.543-.238 1.559.762.011.813-.762.969-1.465 1.063-.805.109-1.992-.106-1.965 1.105.047 2.031 3.633.34 3.398 2.168-.086.664-.847.672-1.418.73-.832.09-2.05-.214-2.222.825-.164.976.93 1.324 1.804 1.476.704.121 1.473.23 1.387 1.11-.195 2.14-3.625-.582-3.851 1.61-.114 1.093.847 1.335 1.804 1.339.762.004 1.406.332 1.285 1.172-.125.879-.976.746-1.617.816-.883.102-1.93-.648-2.672.61.344.183.676.343.985.539.933.59 3.07-.063 2.66 1.808-.344 1.54-2.02.285-3.05.57-.099.028-.15.223-.306.485 2.79.605 5.461 1.344 7.95 2.59 2.796-5.953 2.957-16.512.257-24.922-1.3-4.059-1.007-7.563 2.637-10.32.914-.692 1.961-1.57 1.582-2.829-.414-1.386-1.726-2.023-3.101-2.293-1.235-.238-2.63-.386-3.657.364-3.238 2.37-5.933 1.144-8.996-.606-4.726-2.707-10.715-1.16-13.676 2.91-1.09 1.5-1.039 4.473-2.988 4.426-1.781-.047-2.043-2.945-3.222-4.441-3.985-5.055-7.282-5.621-12.579-1.922-3.16 2.176-4.476 3.086-7.39-.117-1.227-1.34-2.684-2.156-4.363-2.649-2.688-.797-4.317.383-4.418 3.211-.118 3.2 1.757 5.168 4.289 6.664 3.617 2.137 3.793 2.649 2.011 6.313-4.363 8.992-4.824 19.715-1.136 28.515 2.652-2.128 5.625-3.625 8.855-4.859-.934-.84-2.723.219-2.82-1.137-.149-2.07 2.402-.996 3.414-2.562zm7.797 127.039c.297-1.305.476-2.25.73-3.176 1.102-3.984 2.59-7.8 6.707-9.547 1.614-.683 1.551-1.168.77-2.422-1.832-2.922-2.93-6.074-2.23-9.59.199-1.007.437-2.199 1.726-2.386 1.148-.16 1.27.965 1.695 1.66 4.336 7.058 10.774 11.172 18.715 12.875 6.406 1.375 12.254-2.102 13.613-7.777.903-3.754.266-7.45-.734-11.11-.313-1.137-.86-1.57-2.059-1.101-5.007 1.953-9.882.898-14.625-.914-16.394-6.27-32.773-29.454-33.382-47.075-.024-.828-.004-1.71.968-1.78 1.149-.083 1.203.91 1.356 1.808 1.855 11.007 6.41 20.925 12.668 30.047 5.36 7.812 12.867 12.87 21.86 15.726 5.882 1.867 11.21 1.192 15.566-3.652 4.019-4.477 5.152-9.676 3.378-15.313-1.214-3.867-1.488-7.32.79-10.965 1.73-2.77 1.683-5.93-.254-8.738-2.079-3-2.106-6.02-.63-9.25 1.16-2.535 1.962-5.492.036-7.695-3.945-4.485-4.598-9.508-3.684-15.055.125-.754.074-1.547.004-2.308-.433-4.442-2.097-8.461-6.058-10.606-8.34-4.52-17.344-4.828-23.461 4.184-.719 1.058-1.625 2.023-2.645.523-1.867-2.738-4.707-4.219-7.472-5.75-8.118-4.492-18.317-1.086-22.391 7.348-6.676 13.82-6.73 28.043-2.477 42.453 4.512 15.273 12.57 28.621 22.754 40.766.739.878 2.278 1.605 1.625 3.078-.523 1.168-1.902.593-2.894.75-4.582.714-9.121 1.578-13.133 4.078-5.316 3.316-6.258 7.066-3.098 12.328.34-.848.633-1.66.989-2.442 1.64-3.601 4.515-5.648 8.316-6.484.789-.172 1.668-.219 1.883.781.21.961-.496 1.313-1.348 1.485-.754.152-1.516.336-2.21.644-3.415 1.508-5.153 4.328-5.552 7.871-.296 2.594.938 4.676 3.192 6.29.906-2.989 1.82-5.731 4.148-7.7.602-.504 1.219-1.035 2.059-.765.972.312.797 1.203.797 1.949.011 2.914 1.203 5.152 3.992 6.957zm-23.024-65.051c-.636-4.96-2.457-9.652-3.05-14.648-1.407-11.77-.239-23.098 5.25-33.723 1.113-2.16 1.277-4.047.625-6.285-2.883-9.918-2.45-19.613 2.378-28.895.707-1.351.247-1.812-.886-2.402-2.555-1.32-4.61-3.164-5.516-6.012-.875-2.75-.785-5.437 1.402-7.512 2.149-2.027 4.66-1.312 7.043-.304.793.336 1.762.652 2.227 1.289 2.375 3.254 4.473 2.34 7.379.379 11.183-7.559 22.64-5.895 33.906-.074 2.23 1.152 3.922 1.785 6.328.441 2.356-1.309 5.028-1.137 7.485.242 3.18 1.781 4.02 5.11 1.234 7.344-3.84 3.086-3.629 6.308-2.367 10.504 2.289 7.62 2.18 15.418-.02 23.097-.414 1.446-.41 2.586.625 3.711 4.305 4.672 4.946 10.332 4.012 16.246-.465 2.922.098 5.274 1.973 7.493 3.066 3.629 3.898 7.687 1.828 12.097-1.242 2.649-1.223 5.024.445 7.598 2.57 3.973 1.969 8.152-.262 12.05-1.21 2.122-1.312 4.04-.578 6.302 2.567 7.91 1.485 15.02-4.949 20.824-.476.433-1.187.777-.851 1.636.937 2.45 1.523 4.97 1.628 7.594.04.989.704 1.035 1.426.793 4.914-1.656 9.899-1.02 14.89-.547 1.321.13 2.708.266 4.313-.66-1.394-1.355-2.828-2.547-4.023-3.937-2.168-2.535-2.418-5.47-.871-8.344.887-1.652.808-2.176-1.121-2.586-6.528-1.395-8.422-4.305-7.48-10.918.183-1.324.198-2.695.073-4.023-.164-1.758.727-2.075 2.086-1.696 2.707.754 5.305 1.797 7.528 3.563.906.722 1.343.789 2.195-.235 2.023-2.433 4.363-4.609 6.43-7.011.949-1.11 1.75-1.184 2.988-.606 3.535 1.645 5.848 5.961 5.11 9.778-.141.718-.348 1.43-.563 2.308 3.73-.578 7.262-.734 10.742.242 3.14.883 3.461 1.98 1.246 4.313-4.867 5.12-11.113 7.078-17.902 7.68-2.012.175-4.113.34-4.617 2.617-.496 2.25 1.039 3.937 2.82 4.965 4.262 2.453 8.742 2.84 13.262.609 2.172-1.078 4.125-2.504 5.847-4.203 1.676-1.66 2.668-1.235 3.64.777 2.642 5.469.829 9.516-5.038 10.953-.563.14-1.145.387-1.695.336-3.29-.289-4.79 1.242-5.747 4.387-1.113 3.656-4.425 4.86-8.011 5.066-2.989.172-5.969.043-8.95-.324-7.253-.89-13.68 3.899-14.406 10.606-.21 1.957.149 2.867 2.524 2.238 5.058-1.34 10.207-2.336 15.218.242 1.946 1 4.512 1.82 4.54 4.36.03 2.628-2.653 3.3-4.602 4.206-4.098 1.899-8.344 2.016-12.68.766-1.047-.3-2.332-1.105-3.246.016-.863 1.05.047 2.218.418 3.254 2.125 5.988.367 9.918-5.504 12.468-1.273.555-2.105.375-3.12-.465-4.157-3.464-4.985-7.156-2.708-13.05-2.36.222-4.629.539-6.914.633-3.695.152-6.738-1.434-9.285-3.977-1.129-1.125-1.371-2.246.758-2.473 2.3-.246 4.191-1.39 5.937-2.781 2.934-2.34 6.172-3.031 9.774-2.004 2.113.602 3.3.262 3.136-2.371-.093-1.496.368-3.047.707-4.547.504-2.207-.195-3.488-2.554-3.3-8.399.675-16.496 2.28-22.492 8.91-2.508 2.77-5.403 3.43-8.86 2.714-1.777-.363-3.117-1.07-2.914-3.214.04-.383.031-.793-.086-1.149-.418-1.289-.883-2.976-2.297-3-1.297-.023-.98 1.8-1.414 2.79-.187.425-.195.933-.281 1.405-.2 1.094.262 2.586-1.031 3.09-1.403.543-2.574-.535-3.653-1.312-2.101-1.508-3.289-3.696-4.097-6.192-2.793 3.344-2.836 4.75-.242 7.477 1.187 1.246 1.406 2.18-.399 3.098-2.074 1.046-3.887 2.492-5.52 4.16-2.472 2.531-5.878 2.613-9.148 3.148.461 1.488 1.77 1.922 2.559 2.84 1.625 1.898 2.011 3.86.867 6.117-1.43 2.82-2.711 3.418-5.77 2.516-3.875-1.145-7.027-3.297-8.668-7.07-.707-1.63-1.28-1.508-2.472-.653-2.348 1.672-5.078 2.274-7.887 2.516-1.86.156-2.945-.504-2.613-2.66 1.484-9.72 2.726-12.453 12.234-13.926 2.84-.442 6.168-5.996 5.715-9.43-.34-2.539-3.168-4.125-6.84-3.832-4.543.356-6.762 2.2-8.21 6.82-.95 3.04-1.692 3.227-3.993.997-3.23-3.13-3.965-6.329-1.848-10.141.989-1.781-.039-2.156-1.109-2.809-7.18-4.359-13.34-9.824-18.016-16.855-4.07-6.117.036-14.188 7.45-14.672 1.753-.117 1.62 1.25 1.847 2.336 1.809 8.691 6.535 14.57 14.211 17.473-.492-2.993-1.496-5.778-1.433-8.73 2.562-10.415-.172-7.657-5.223-10.462-3.246-2.39-4.356-6.199-2.91-10 .101-.27.234-.531.336-.797 1.586-4.18 2.164-4.398 6.203-2.37 2.629 1.32 4.707 3.3 6.765 5.894.977-6.465 5.122-8.957 10.774-9.809 1.289-.195 2.586-.789 3.738-1.45 1.078-.62 1.953-.616 2.903.09 1.406 5.333 1.363 10.329-3.594 14.177 1 .515 1.793.87 2.52 1.32 3.187 1.976 3.34 3.77.456 6.246-2.554 2.195-5.574 2.816-8.886 2.625-4.336-.25-4.907.223-5.5 4.547-.223 1.605-.282 3.285-.078 4.89.98 8.016 8.707 11.602 15.44 7.22.888-.575 1.7-1.263 2.477-1.977 2.434-2.227 5.36-3.18 7.43-.95 2.57 2.762 4.64 1.012 6.988.68.758-.11 1.5-.473 2.254-.465 3.118.024 2.524-1.094 1.067-2.867-7.672-9.375-13.922-19.602-18.508-30.832-.633-1.547-.738-3.363-2.102-4.582" style="fill:#191917;fill-opacity:1;fill-rule:nonzero;stroke:none" transform="matrix(1.58114 0 0 1.58114 -176.988 -246.509)"/></svg>