<svg xmlns="http://www.w3.org/2000/svg" width="510.23621" height="510.23621" viewBox="0 0 510.23621 510.2362"><path d="M663.82 297.638c0 133.901-108.974 242.875-242.875 242.875S178.07 431.539 178.07 297.638 287.044 54.763 420.945 54.763 663.82 163.737 663.82 297.638zm-415.05 91.767c-.22-2.536-.33-3.86-1.433-6.066-1.103-2.316-3.31-4.743-6.398-3.199-5.625 2.758 1.765 14.67-7.83 19.413-6.288 3.088-11.14-.552-14.008-6.508-.993-1.985-1.434-4.302-1.655-6.507l4.081-1.545c.11 1.765.441 4.633 1.544 6.839 1.103 2.316 4.081 5.074 7.61 3.42 6.508-3.2-1.433-15.001 7.721-19.413 5.185-2.537 9.927.22 12.574 5.515.883 1.985 1.655 4.412 1.986 6.838zm351.408-12.794c-2.095 1.213-3.64 2.978-4.742 5.074-3.53 6.728-.993 13.676 5.514 16.985 6.839 3.64 13.898.993 16.986-4.963 1.103-2.096 1.986-5.184 1.875-7.06l4.192 1.766c-.221 2.757-1.545 5.514-2.427 7.169-4.743 9.155-13.787 12.243-22.942 7.5-8.934-4.632-11.581-14.228-7.059-23.052 1.213-2.206 2.647-4.302 4.633-5.846zm-29.118 37.942 10.037-14.118 3.309 2.316-7.28 10.368 7.721 5.515 7.059-9.816 3.309 2.316-7.06 9.927 12.134 8.603-2.758 3.86zm-11.471 19.413 6.949 15.993 9.154-9.265zm-4.743-1.434 3.42-3.53 32.978 13.126-3.64 3.64-8.162-3.42-11.25 11.36 3.53 8.163-3.42 3.53zm-27.464 45.001-20.736-9.596 4.633-2.868 15.993 7.5.44-17.537 4.744-2.757-1.103 22.831 7.169 11.582-3.97 2.537zm-34.854.551-9.486 3.86-1.544-3.75 23.163-9.485 1.544 3.75-9.375 3.86 10.809 26.362-4.302 1.875zm-20.846 2.648 4.522-1.214 9.155 31.325-4.523 1.323zm-5.625 7.39a13.429 13.429 0 0 0-6.95-.552c-7.39 1.213-11.47 7.39-10.147 14.67 1.324 7.5 7.611 11.58 14.229 10.478 2.316-.331 5.294-1.544 6.728-2.757l1.103 4.411c-2.316 1.434-5.294 2.096-7.17 2.427-10.147 1.765-18.088-3.64-19.853-13.898-1.654-9.926 4.412-17.757 14.228-19.412a19.11 19.11 0 0 1 7.5.11zm-59.23 3.419-7.721 15.662 13.015.993zm-1.986-4.522 4.854.33 11.36 33.641-5.073-.441-2.648-8.383-15.993-1.213-3.97 7.942-4.854-.331zm-36.618-6.618 17.758 4.301-.993 3.971-13.125-3.199-2.317 9.265 12.133 2.979-.993 3.97-12.022-2.868-2.537 10.368 13.236 3.199-.993 4.081-17.758-4.302zm-11.03 1.544c-1.875-1.654-2.978-2.537-5.184-3.42-2.537-.992-5.735-1.213-6.949 1.986-2.206 5.846 11.36 9.596 7.5 19.633-2.536 6.508-8.492 7.059-14.67 4.743-2.095-.883-3.97-2.206-5.735-3.75l1.986-3.86c1.323 1.213 3.53 3.088 5.735 3.97 2.537.993 6.618.882 7.942-2.647 2.647-6.839-11.14-10.037-7.5-19.523 2.095-5.404 7.5-6.618 13.015-4.412 1.985.772 4.19 1.986 6.066 3.53zm-42.795-26.361 5.514 3.198-.772 29.891.11.11 13.126-22.72 4.081 2.315-16.324 28.236-5.184-2.978.662-30.662h-.11l-13.457 23.162-4.08-2.316zm-20.405-10.589-15.552 7.942 9.926 8.493zm1.102-4.853 3.75 3.199-10.919 33.75-3.86-3.418 2.867-8.383-12.132-10.368-7.831 4.081-3.75-3.309zm-40.038-46.987 2.979 4.081-17.648 23.053.11.11 26.472-11.25 4.08 5.294-18.198 22.5h.11l27.023-10.478 2.978 3.971-32.207 11.47-3.53-4.742 18.53-22.832-.11-.11-27.133 11.471-3.75-5.074zm326.702-72.024c1.985 20.185-10.589 38.384-51.399 62.539 0 0 62.76-53.274-14.228-90.885-47.98-23.383-84.157-43.568-97.062-73.569-8.934-20.736-.331-55.59 25.81-67.391 0 0 28.787-14.119 80.848 5.184 0 0 29.008 10.147 13.346 30 0 0 4.08 6.839 8.051 15.222 3.089 6.397 2.317 9.595-4.522 5.514 0 0-75.554-66.068-95.738-27.133 0 0-7.28 13.898 2.095 30.883 7.721 10.368 13.898 13.236 26.03 20.185 18.64 9.816 31.325 16.545 54.598 29.45 0 0 48.751 23.934 52.17 60.001zm-107.32 79.525c-21.728 35.736-67.833 38.163-114.378 19.963 0 0 18.53-.44 34.854-9.485 14.449-7.942 15.882-12.353 30.11-29.89 40.7-50.076 77.76-72.577 115.482-36.51 0 0-33.971 2.979-66.068 55.922zm-53.604-28.457c-21.729 35.847-67.833 38.273-114.49 20.074 0 0 18.53-.551 34.965-9.596 14.45-7.941 15.883-12.353 30.001-29.78 40.81-50.075 77.76-72.686 115.592-36.619 0 0-33.972 2.978-66.068 55.92zm-49.524-30.883c-21.729 35.846-67.833 38.273-114.379 20.074 0 0 18.53-.552 34.965-9.596 14.338-7.942 15.772-12.353 30-29.78 40.81-50.075 77.76-72.686 115.593-36.62 0 0-33.972 2.979-66.179 55.922z" style="fill:#fff;fill-rule:evenodd" transform="translate(-165.827 -42.52)"/><path d="M420.945 42.52c-140.63 0-255.118 114.488-255.118 255.118s114.489 255.118 255.118 255.118c140.63 0 255.118-114.489 255.118-255.118 0-140.63-114.489-255.118-255.118-255.118zM581.759 321.13c1.985 20.185-10.589 38.384-51.399 62.539 0 0 62.76-53.274-14.228-90.885-47.98-23.383-84.157-43.568-97.062-73.569-8.934-20.736-.331-55.59 25.81-67.391 0 0 28.787-14.119 80.848 5.184 0 0 29.008 10.147 13.346 30 0 0 4.08 6.839 8.051 15.222 3.089 6.397 2.317 9.595-4.522 5.514 0 0-75.554-66.068-95.738-27.133 0 0-7.28 13.898 2.095 30.883 7.721 10.368 13.898 13.236 26.03 20.185 18.64 9.816 31.325 16.545 54.598 29.45 0 0 48.751 23.934 52.17 60.001zM248.77 389.405c-.221-2.536-.331-3.86-1.434-6.066-1.103-2.316-3.31-4.743-6.398-3.199-5.625 2.758 1.765 14.67-7.83 19.413-6.288 3.088-11.14-.552-14.008-6.508-.993-1.985-1.434-4.302-1.655-6.507l4.081-1.545c.11 1.765.441 4.633 1.544 6.839 1.103 2.316 4.081 5.074 7.61 3.42 6.508-3.2-1.433-15.001 7.721-19.413 5.185-2.537 9.927.22 12.574 5.515.883 1.985 1.655 4.412 1.986 6.838zm351.407-12.794c-2.095 1.213-3.64 2.978-4.742 5.074-3.53 6.728-.993 13.676 5.514 16.985 6.839 3.64 13.898.993 16.986-4.963 1.103-2.096 1.986-5.184 1.875-7.06l4.192 1.766c-.221 2.757-1.545 5.514-2.427 7.169-4.743 9.155-13.787 12.243-22.942 7.5-8.934-4.632-11.581-14.228-7.059-23.052 1.213-2.206 2.647-4.302 4.633-5.846zm-29.118 37.942 10.037-14.118 3.309 2.316-7.28 10.368 7.721 5.515 7.059-9.816 3.309 2.316-7.06 9.927 12.134 8.603-2.758 3.86zm-11.471 19.413 6.949 15.993 9.154-9.265zm-4.743-1.434 3.42-3.53 32.978 13.126-3.64 3.64-8.162-3.42-11.25 11.36 3.53 8.163-3.42 3.53zm-27.464 45.001-20.736-9.596 4.633-2.868 15.993 7.5.44-17.537 4.744-2.757-1.103 22.831 7.169 11.582-3.97 2.537zm-34.854.551-9.486 3.86-1.544-3.75 23.163-9.485 1.544 3.75-9.375 3.86 10.809 26.362-4.302 1.875zm-20.846 2.648 4.522-1.214 9.155 31.325-4.523 1.323zm-5.625 7.39a13.429 13.429 0 0 0-6.95-.552c-7.39 1.213-11.47 7.39-10.147 14.67 1.324 7.5 7.611 11.58 14.229 10.478 2.316-.331 5.294-1.544 6.728-2.757l1.103 4.411c-2.316 1.434-5.294 2.096-7.17 2.427-10.147 1.765-18.088-3.64-19.853-13.898-1.654-9.926 4.412-17.757 14.228-19.412a19.11 19.11 0 0 1 7.5.11zm-59.23 3.419-7.721 15.662 13.015.993zm-1.986-4.522 4.854.33 11.36 33.641-5.073-.441-2.648-8.383-15.993-1.213-3.97 7.942-4.854-.331zm-36.618-6.618 17.758 4.301-.993 3.971-13.125-3.199-2.317 9.265 12.133 2.979-.993 3.97-12.022-2.868-2.537 10.368 13.236 3.199-.993 4.081-17.758-4.302zm-11.03 1.544c-1.875-1.654-2.978-2.537-5.184-3.42-2.537-.992-5.735-1.213-6.949 1.986-2.206 5.846 11.36 9.596 7.5 19.633-2.536 6.508-8.492 7.059-14.67 4.743-2.095-.883-3.97-2.206-5.735-3.75l1.986-3.86c1.323 1.213 3.53 3.088 5.735 3.97 2.537.993 6.618.882 7.942-2.647 2.647-6.839-11.14-10.037-7.5-19.523 2.095-5.404 7.5-6.618 13.015-4.412 1.985.772 4.19 1.986 6.066 3.53zm-42.795-26.361 5.514 3.198-.772 29.891.11.11 13.126-22.72 4.081 2.315-16.324 28.236-5.184-2.978.662-30.662h-.11l-13.457 23.162-4.08-2.316zm-20.405-10.589-15.552 7.942 9.926 8.493zm1.102-4.853 3.75 3.199-10.919 33.75-3.86-3.418 2.867-8.383-12.132-10.368-7.831 4.081-3.75-3.309zm-40.038-46.987 2.979 4.081-17.648 23.053.11.11 26.472-11.25 4.08 5.294-18.198 22.5h.11l27.023-10.478 2.978 3.971-32.207 11.47-3.53-4.742 18.53-22.832-.11-.11-27.133 11.471-3.75-5.074zm116.254-51.84c-21.729 35.847-67.833 38.274-114.379 20.075 0 0 18.53-.552 34.965-9.596 14.338-7.942 15.772-12.353 30-29.78 40.81-50.075 77.76-72.686 115.593-36.62 0 0-33.972 2.979-66.179 55.922zm49.524 30.884c-21.729 35.847-67.833 38.273-114.49 20.074 0 0 18.53-.551 34.965-9.596 14.45-7.941 15.883-12.353 30.001-29.78 40.81-50.075 77.76-72.686 115.592-36.619 0 0-33.972 2.978-66.068 55.92zm53.604 28.457c-21.728 35.736-67.833 38.163-114.378 19.964 0 0 18.53-.442 34.854-9.486 14.449-7.941 15.882-12.353 30.11-29.89 40.7-50.076 77.76-72.576 115.482-36.51 0 0-33.971 2.979-66.068 55.922zM663.82 297.638c0 133.901-108.974 242.875-242.875 242.875S178.07 431.539 178.07 297.638 287.044 54.763 420.945 54.763 663.82 163.737 663.82 297.638z" style="fill:#14110c;fill-rule:evenodd" transform="translate(-165.827 -42.52)"/></svg>