<svg xmlns="http://www.w3.org/2000/svg" width="702.7" height="996.7" viewBox="0 0 702.7 996.7"><path fill="#FFF" d="m78 45.3 6.7 12.2 26.9 48.6-39.7 33.7-8.9 7.6 11.3 2.9 85.3 21.7a222.6 222.6 0 0 0-31.3 114.4 228 228 0 0 0 7.9 59.4l-46.4 39.9L86 389l-1.9 7.7L69 456.3a20 20 0 0 0 4 18.3c1.3 1.6 2.9 3.1 4.8 4.6a94 94 0 0 0 31.5 13.6c7.4 2.1 48 12.7 120.7 31.4a222.5 222.5 0 0 0-79.1 89.7 219 219 0 0 0-15.3 41.4l-51.2 50.2-3.6 3.6-1.8 7.5c-2.5 10.6-7.9 34.2-12.8 57-1.8 8.2-2 15-.6 20.9a25.2 25.2 0 0 0 8.2 14.2c1.8 1.7 3.9 3.1 6.3 4.4 2.1 1.1 4.3 2.1 6.9 3.1 4.6 1.7 9.7 3 14.6 4.2l.5.3L166 837a222.6 222.6 0 0 0 130.1 92.8 228.5 228.5 0 0 0 113.1.3 223.1 223.1 0 0 0 48.7-18.8l140.8 35.9 13.9 3.5-7.1-12.4-27.4-47.5 49.1-38.6 9.7-7.6-11.9-3-75.9-19.1a222.4 222.4 0 0 0 28.8-110.2c0-23.1-3.5-45.9-10.4-67.8l35.7-26.9 1.8-1.3.5-1.7 18.6-57.4v-.2c1.3-4.6 2.5-9.4 2.8-14.2.3-5.6-.7-10.4-3.1-14.6a29.7 29.7 0 0 0-10.9-10.5 72.7 72.7 0 0 0-19.1-7.3 50661 50661 0 0 0-125.4-31.2 228.3 228.3 0 0 0 69.5-64.9 222.6 222.6 0 0 0 38.7-102.9l37.2-28.9.4-1.3c.5-1.9 13.3-47.6 17.1-63.6 1.1-4.7 1.2-9.3.3-13.7-.8-4-2.5-7.9-5-11.3a36.9 36.9 0 0 0-18.2-13.2c-1.6-.5-10.4-2.9-68-17.6A223.6 223.6 0 0 0 462 89.5a224.4 224.4 0 0 0-214.5-1.6L91.4 48.7 78 45.3z"/><path fill="#FFF" d="m94.3 787.2 2.9 1.3c3.2 1.2 7.3 2.2 11.6 3.3l.6.2 63.9 16.3 11 2.8 6.3 9.5a199.2 199.2 0 0 0 68.1 62.7 195.4 195.4 0 0 0 143 18.2c14.6-3.8 28.9-9.2 42.3-16.3l10.1-5.3 97.7 24.9-12.3-21.5 31.6-24.8-66.9-16.8 19-33.8a197.5 197.5 0 0 0 25-95.7c0-20.1-3-39.9-9-58.9l-6.3-20 46.7-35.2 16-49.6 1.4-5.7c-1.9-1-5.2-2.3-10.8-3.8A39490 39490 0 0 0 461 507.8l-69.7-17.3 61.7-36.8a197.2 197.2 0 0 0 83-99.5 193 193 0 0 0 11-46.3l1.4-12.4 39.3-30.6c4.9-17.5 12-43.8 14.5-54.3l.1-.9-.2-.3c-.3-.4-.7-.8-1.3-1.2a7 7 0 0 0-1.9-1c-2.4-.7-14.4-3.9-66.1-17l-11-2.8-6.3-9.5a195.6 195.6 0 0 0-254.2-64.3l-10.1 5.4-11.1-2.8-103.3-25.9 12.4 22.3-23.4 19.8 79.3 20.1-20.2 34a195.3 195.3 0 0 0-20.2 150.9l4.9 18-57.1 49.7-13.3 52.5c3.1 1.6 8.7 3.9 18.3 6.7 4.9 1.4 29.7 8 119.9 31.2l64.8 16.7-56 36.7a201 201 0 0 0-68.8 78 193.7 193.7 0 0 0-13.3 35.9l-2.1 7.9-54.6 53.5c-2.7 11.8-7.8 33.9-12.5 55.6-.7 4-.7 6.3-.6 7.4m578.9 209.4-81.9-20.9-130.2-33.2a254.2 254.2 0 0 1-313-79.7l-53.2-13.5-.6-.2c-5.4-1.4-11.5-2.9-17.6-5.1a61.8 61.8 0 0 1-22.9-13.3A56.4 56.4 0 0 1 36.6 801a76.6 76.6 0 0 1 .6-33.6c4.9-22.6 10.2-45.7 12.9-57.5v-.2l3.8-15.9 9.8-9.5 45.6-44.6a257.6 257.6 0 0 1 58-101.2 4375 4375 0 0 1-66.1-17.3 122 122 0 0 1-41.4-18.6 50.8 50.8 0 0 1-17.5-22.4c-4-9.8-4.7-20.7-1.9-31.3l15-59.5 4.2-16.9 11-9.4 32.8-28.2a255 255 0 0 1 13.5-143.3L0 161.9l74-62.7L19.1 0l79.6 20L244 56.5A251.8 251.8 0 0 1 353.2 32a255 255 0 0 1 123.1 31.8 252.6 252.6 0 0 1 81.9 72.1c55 14 57.4 14.8 59.4 15.5a65.1 65.1 0 0 1 42.8 46.6 61.3 61.3 0 0 1-.4 26.6 2586 2586 0 0 1-17.4 64.7l-3 10.7-35.4 27.6A257.3 257.3 0 0 1 534 465.4l67 16.7c10.6 2.7 19.4 6.1 26.7 10.4a72 72 0 0 1 11.9 8.8 55.5 55.5 0 0 1 16.9 43.4 97.5 97.5 0 0 1-3.8 20.4l-.2.7-19.3 59.6-3 9.4-9.5 6.8-19.4 14.7a258.1 258.1 0 0 1-3.6 126.2c-1.9 6.8-4.2 13.5-6.7 20.1l111.7 28.1-86.2 67.5 56.7 98.4z"/><path fill="#FFF" d="M576.4 286.4a221.5 221.5 0 1 1-443 0 221.5 221.5 0 0 1 443 0"/><path fill="#FFF" d="M572.8 712.3a220.6 220.6 0 0 1-219.7 221.4 220.6 220.6 0 0 1-219.7-221.4 220.6 220.6 0 0 1 219.7-221.4 220.6 220.6 0 0 1 219.7 221.4"/><path fill="#1E3D8F" d="M147.8 343.6s10.9 32 14.6 38.5c3.6 6.5 23.2 34 23.2 34l-94.2-23.9 56.4-48.6zm416.3-75.2 44.1 11.2-44.6 34.3.5-45.5zm-33 326 68.6 18.2-46.4 35-11.5-28-10.7-25.2zm-445 117.8 51.9 13-.5-28.4 3.9-38.8-55.3 54.2zm174.8-231.5-5.8-37.8a238 238 0 0 0-8.7-16.8c-2-3.2-7.8-9.4-12-14-2.4-2.6-4.3-4.6-5.2-5.8-.6-.8-2.1-2.6-6.2-17.9-2.2-8.1-4.1-16.3-4.7-18.9-.9-3.8.2-13 1.8-25.6.7-5.5 1.4-10.6 1.4-12.6 0-2.4-2.3-6.2-4.1-9.3-2-3.4-3.7-6.3-3.7-8.8 0-3.1 2.8-5.7 6.4-9.1 1.6-1.5 3.2-3 4.4-4.5 1.4-1.7 1.5-2.5 1.5-2.6 0-1-1.2-3.1-4.7-5.8a40 40 0 0 0-10.8-5.7 53.5 53.5 0 0 1-17.8-14.1c-2.1-2.2-4.1-4.3-5.9-5.9a28.2 28.2 0 0 0-11-6.2 19 19 0 0 0-13.1.8 26.8 26.8 0 0 1-20.4 1.3l2.3-5.4s1.7.7 4.5.9c3.7.2 7.5-.5 11.3-2.1 2.8-1.2 5.7-1.9 8.7-2.1 2.7-.1 5.5.2 8.3 1 6 1.7 10.6 5 13.3 7.4 2 1.8 4 3.9 6.2 6.2 5 5.2 10.6 11 15.4 12.6a44 44 0 0 1 12.5 6.6c2 1.5 3.6 3.1 4.8 4.6 1.5 2 2.2 3.9 2.2 5.8 0 4-3.9 7.8-7.7 11.3l-3.3 3.3c-.9 1-1.2 1.5-1.3 1.7l.7 1.8 2.2 3.9c2.3 3.9 4.9 8.3 4.9 12.3 0 2.4-.6 7.2-1.4 13.4-1 8.1-2.6 20.5-1.9 23.6a755 755 0 0 0 4.6 18.5 74 74 0 0 0 5.2 16l5 5.5c4.7 5 10.4 11.2 12.7 14.9a227 227 0 0 1 9.1 17.6l.2.4 5.9 38.6-5.8 1zM407.6 91.3zm-135.8 118h-1.3c-6.6-.4-16.1-4-20-9-1.4-1.8-2.8-4.6-4.5-7.7-3.9-7.5-9.3-17.9-16.3-19-4.6-.8-8.5.3-11.8 3.3a29.4 29.4 0 0 0-7.6 12.9c-1 3.1-2.4 5.8-4.2 7.9-1.6 2-3.6 3.5-5.8 4.5a17.3 17.3 0 0 1-12.4.5c-5.7-1.7-9.8-1.8-15.5 2.7a15.1 15.1 0 0 1-12.2 2.9c-3.3-.6-5.7-1.8-5.9-1.9l2.8-5.2s1.8 1 4.3 1.3a9 9 0 0 0 7.4-1.7c3.5-2.8 6.9-4.4 10.5-4.9 3.1-.4 6.2-.1 10.3 1.1 9.6 2.9 13.6-4.5 15.2-9.1 2.3-6.8 5.4-12 9.3-15.4a19.3 19.3 0 0 1 16.7-4.7c9.9 1.7 16.1 13.5 20.6 22.1 1.5 2.8 2.9 5.5 3.9 6.8a18 18 0 0 0 6.6 4.4c3.1 1.3 6.4 2.2 9.1 2.3 2.4.2 3.6-.3 3.8-.6 3-3 6.4-6.8 7.7-8.3.7-4 3.8-21.9 7.6-40.4a596 596 0 0 1 6.8-30.1c3.5-13.4 5.6-16.8 6.9-18.3 4.4-4.8 8.9-8.2 13.4-10.1a19.8 19.8 0 0 1 17.3.4 24.3 24.3 0 0 1 7.8 5.4l.6.2c1 .2 3.4-.2 5.2-.5 3.7-.6 6.8-1.1 9.1.1l2.7 1.6c1.3.8 2.9 1.9 4.4 2.6 1.4.7 2.2.8 2.5.9.4-.5.7-1.2 1.1-2 1.7-3.5 4.3-8.7 14.1-10.5 5-.9 10.3-1.1 15.1-1.3a71.8 71.8 0 0 0 10.6-1.2 50 50 0 0 0 5.9-9.5l5.2 2.6a58 58 0 0 1-7 11.1c-2.2 2.2-6.5 2.5-14.5 2.8-4.6.2-9.7.4-14.3 1.2-6.9 1.2-8.3 4.2-9.9 7.3-.6 1.1-1.1 2.3-1.9 3.3-1 1.3-2.6 2-4.3 2a10 10 0 0 1-3.8-.9c-2.2-.9-4.5-2.4-6.3-3.6l-2-1.3h-1.9a67 67 0 0 0-3.8.5c-2.7.4-5.3.8-7.3.4a6.3 6.3 0 0 1-4.1-2.3c-.7-.8-1.9-1.9-5.7-3.8-4-2-8.1-2.1-12.4-.3a32.7 32.7 0 0 0-11.3 8.7c-.5.5-2.2 3.1-5.6 15.8-2 7.6-4.3 17.6-6.8 29.8-4.2 20.8-7.6 40.8-7.7 41l-.1.8-.5.6c-.2.2-4.6 5.3-8.6 9.2-1.7 1.8-4.1 2.6-7.2 2.6m202-46.9a108 108 0 0 1-12.7-26.1c-1-3.5-3.4-7.5-7.3-11.7-3.4-3.8-7.3-7.1-10.4-9.8l-4.3-3.8a25.3 25.3 0 0 1-5.4-12.2c-.9-4.1-1.3-7.6-1.3-7.7l5.8-.6c0 .1.3 3.3 1.2 7.1 1.4 6.1 3 8.4 3.8 9.3l3.9 3.5c6.7 5.7 16.7 14.3 19.5 24.4a105 105 0 0 0 11.9 24.4l-4.7 3.2zm-176.7 82.3-3.8 3.4c-3.3 3.4-3.6 5.2-3.4 5.6.5 1.5 2.2 2.7 4.3 3.3 2.1.6 4.2.3 5.3-.6.3-.2.9-1.8.3-5-.3-1.8-.9-3.7-1.7-5.2l-1-1.5m-.7 18.5c-1.2 0-2.5-.2-3.7-.5-4-1.1-7.1-3.6-8.3-6.9-.8-2-.5-4.3.9-6.7.9-1.6 2.2-3.3 3.9-5.1 2.8-2.9 5.8-5.1 6-5.2l1-.7 1.2.2c4.9.7 7.2 7.5 7.8 9.6.7 2.4 1 4.7.9 6.8a8.3 8.3 0 0 1-2.6 6.2c-2 1.5-4.5 2.3-7.1 2.3"/><path fill="#1E3D8F" d="M322.5 238.3a42 42 0 0 1-3.6 10.6c-.9 2-1.7 3.9-2 5-.3 1-.7 3.3-1.1 5.6-.8 4.7-1.7 10.5-3.3 14.2a24.4 24.4 0 0 1-5.7 7c-1.6 1.6-3.2 3.2-4.1 4.6-.5.8-.6 1.2-.6 1.5.4-.2 1-.6 2-1.5 1.4-1.2 2.9-2.7 4.6-4.4 4.3-4.3 8.3-8.5 12.4-8.7 3.1-.2 7 1.2 10.1 2.3 1.2.4 2.7 1 3.4 1.1.2 0 1.1 0 1.9-.4 1-.4 1.5-1.1 1.7-2.2.6-3.9-1.3-7.3-2.6-9.5l-.4-.7c-.2-.4-5-9-5.1-15.5a225.6 225.6 0 0 1 1.8-23.5c.3-2.7.6-5 .6-6.2l-.2-1.2c-1.4.5-4.2 1.8-6.8 3.3-4.2 2.4-4.8 3.7-4.8 3.7-.7 1.5-.8 4.4.4 7.1 1.3 2.9 1.5 6.6 1.5 7v.1l-.1.7m-20.7 54.6h-.6a5 5 0 0 1-3.8-2.6c-1.9-3-.8-6 .5-8 1.2-2 3.1-3.8 4.9-5.6 1.9-1.8 3.8-3.7 4.4-5.2 1.3-3 2.2-8.7 2.9-12.9.5-2.8.8-4.9 1.2-6.3.4-1.4 1.2-3.3 2.2-5.6 1.2-2.9 3-7.2 3.2-8.9v-.1c0-.9-.3-3.2-1-4.7-1.4-3.1-2.3-8.2-.3-12.2.3-.7 1.4-2.8 7.1-6.1 3-1.8 6.1-3.1 7.8-3.7 1.9-.7 3.8-.5 5.3.6 2 1.5 2.8 4.1 2.8 6.2 0 1.5-.3 3.9-.7 6.9l-.4 3c-.5 4.4-1.5 15-1.4 19.6a35.4 35.4 0 0 0 4.8 13.5 20 20 0 0 1 3.3 13.4 8.2 8.2 0 0 1-5.6 6.8c-2.1.8-4 .7-4.2.7h-.1c-1.2-.1-2.8-.7-4.8-1.4-2.5-.9-5.8-2.1-7.8-2-.2 0-1.2.2-3.3 1.9-1.7 1.4-3.5 3.2-5.3 5l-5.4 5.2c-1.5 1.1-3.5 2.5-5.7 2.5m81.5-55.2c-1.1 0-2.2-.1-3.2-.4-4.3-1.2-8.1-5.7-11.2-13.2-2.1-5.2-3.2-10-3.2-10.2l5.7-1.3s1 4.6 3 9.3c2.3 5.5 4.9 9 7.3 9.7 2.5.7 6.6-.5 11.6-3.5 4.2-2.5 7.4-5.3 7.5-5.3l3.8 4.4c-.1.1-3.6 3.1-8.2 5.9-5 3-9.4 4.6-13.1 4.6m-93.9 151.4zm23.8 62.3c-.6-1.7-2.2-6.4-3.4-8.4l-.6-1.1c-2.3-4.1-9.1-16.4-10.2-18.1-1.7-2.7-6.7-14.6-6.9-15.2a59.6 59.6 0 0 0-4.3-8.1l-.4-.6-.2-3.2c-.9-1.3-2.7-3.9-3.3-5.7-.8-2.3.5-5.4 1.4-7a15 15 0 0 1 5.1-5.6l3.7-1.7c4.8-2.1 14.8-6.4 17.8-9.2.5-.4 1.4-2.3 2-6.7.5-3.3.6-6.6.6-7.6 0-2.3-.2-8.3-.4-10.1a65.4 65.4 0 0 0-8-14.5c-2-2.4-2.2-4.5-2-5.9a5.2 5.2 0 0 1 1.5-2.9l.4-.3.5-.2c.3-.1 7.4-3.1 21.8-4.9 4.1-.5 8.1-2.7 12.2-6.8 3.8-3.7 7-8.2 9.8-12.2 1.9-2.6 3.5-4.9 5-6.6 2.9-3.2 6.6-9.3 9.9-14.7a77.5 77.5 0 0 1 8.4-12.4c2.6-2.6 6.8-2.4 12.3-2.2 6.9.3 15.6.7 23.6-4.2 11-6.6 24.2-26.6 24.4-26.8l4.9 3.2c-.6.9-14.1 21.3-26.2 28.6a46 46 0 0 1-26.9 5c-2.3-.1-4.3-.2-5.8-.1-1.6.1-2 .5-2.1.5-1.7 1.7-4.7 6.6-7.6 11.3-3.6 5.9-7.3 12-10.6 15.6-1.3 1.4-2.8 3.6-4.6 6.1-5.9 8.4-14.1 19.9-26.1 21.4a89.3 89.3 0 0 0-18.8 4l.4.6a64 64 0 0 1 5.5 8.9c2.4 4.3 3.6 7.2 3.8 8.6.3 2.1.5 8.7.5 10.9 0 1.4-.1 4.8-.7 8.4-.8 5.2-2 8.5-3.9 10.2a84.7 84.7 0 0 1-19.5 10.3l-3.4 1.5c-.5.3-1.5 1.2-2.3 2.7a7.5 7.5 0 0 0-1.1 2.9c.4 1.1 1.9 3.3 2.8 4.6l.5.7.2 3.5c.9 1.4 2.9 4.9 4.4 8.4 2.4 5.9 5.5 12.8 6.4 14.2 1.1 1.7 6.1 10.7 10.4 18.4l.6 1.1c1.6 2.9 3.6 8.7 3.8 9.4l-5.3 2zm18.9 3.3-5.9-.2c0-.1.1-2.5.7-5.5.8-4.2 2.2-7.5 4.1-9.8a67 67 0 0 1 11.2-9.6c2.1-1.5 4-3 4.9-3.8.7-.8 2.3-4.8 3.6-8 3.3-8.1 7.4-18.2 12.3-22 2.9-2.3 7.4-5.3 12.4-7a17.5 17.5 0 0 1 14.1.5c4.7 2.5 9.5 7.5 11.9 10.3 3.7 4.1 6.7 8.4 7.9 11.1 1 2.2 2.3 5.9 3.3 9.7 1.7 6.8.9 9.1.6 9.8l-1.1 2.7c-.5 1.1-1.3 3.2-1.7 4.6.9-.1 2.3-.4 4.1-1.2 3.2-1.5 6.4-4.1 8.7-7.1 2-2.7 3.2-4.9 3.6-6.9.3-1.8.1-3.4-.1-5.4l-.2-1.5c0-.1-.2-.7-1.7-2.2-1.2-1.2-2.9-2.5-4.6-3.9a80 80 0 0 1-6.1-5.3c-3.1-3.3-3.5-5.5-3.5-6.9v-1.2c0-1.6 0-3.1.2-4.6.3-2 1.1-3.6 2.5-4.6 2.2-1.8 5.5-2.1 10.6-1 10.4 2.3 22.1 7.8 25.5 11.9 1.2 1.4 2.5 3.6 4 6a66.8 66.8 0 0 0 5.1 7.2 55 55 0 0 0 7.9 3l6.4 1.9c1.2-1.3 3.4-4 6.5-8.1a112 112 0 0 0 6.7-9.3c1.2-2.7 5.4-14.4 5.9-16.7 0-.9.3-1.7.7-2.9l1.6-3.7 4-8.7 1.6-3.4c.8-1.7 3.6-5.5 8.4-11.4l5-6c2.5-2.9 2.9-3.1 3.2-3.3.9-.6 3.6-1.8 6.9-2.6a27 27 0 0 1 12.2-.5c7.5 1.8 19.2 7 19.6 7.2l-2.4 5.3c-.1-.1-11.6-5.2-18.6-6.9a25.3 25.3 0 0 0-14.4 2.2l-7.4 8.6a89 89 0 0 0-7.3 9.6l-1.6 3.5c-1.6 3.3-5.1 10.9-5.7 12.8 0 .8-.3 1.8-.8 3.6l-1.9 5.6c-1.4 4-3.1 8.4-3.7 9.8-1 2.1-6.3 9.2-8 11.3l-4.9 6.1c-2.4 2.8-3.2 3.7-4.8 3.7-.3 0-.7 0-3.4-.7l-5.2-1.5a50.2 50.2 0 0 1-9.8-3.8 30 30 0 0 1-6.8-9.1c-1.3-2.1-2.6-4.2-3.5-5.3-.8-.9-3.3-2.8-7.9-5a69.1 69.1 0 0 0-14.3-4.9c-4.5-1-5.5-.3-5.6-.2-.6.5-.5 2.8-.5 4.6v1.3c0 .2.1 1 1.9 2.9a70 70 0 0 0 5.5 4.8c4.3 3.5 8.1 6.4 8.5 10l.2 1.4c.3 2.3.6 4.6.1 7.3a30.3 30.3 0 0 1-15.7 18.2c-2 .9-3.9 1.5-5.7 1.7-2.2.2-4-.2-5.4-1.2-2.4-1.7-1.4-5-1-6.3.5-1.6 1.3-3.5 2-5.2l1-2.5s.5-1.4-.8-6.4c-.7-2.9-1.9-6.3-3-8.8-.8-1.8-3.2-5.4-6.9-9.6a41.1 41.1 0 0 0-10.4-9c-2.5-1.3-5.6-1.4-9.4-.1a38.9 38.9 0 0 0-10.6 6c-3.7 2.9-7.8 12.9-10.5 19.6a32.7 32.7 0 0 1-4.9 9.9 60.8 60.8 0 0 1-5.5 4.4c-3.6 2.7-8 6-10.2 8.6a24.3 24.3 0 0 0-3.7 12.1m134.5-168.9c-.3.4-.7 1.3-1 2.3a5.6 5.6 0 0 0 1 5c.6.9 2.1.8 3.2.6 2.1-.4 4.6-1.5 6.8-3.2 2.4-1.8 3.6-3.5 3.9-4.5.3-.9.1-2.5-2.1-4.7l-2.1-1.8-9.7 6.3zm2 13.9a8 8 0 0 1-6.7-3.1c-2.2-3-2.9-6.6-1.9-10.2.7-2.6 2.1-4.3 2.2-4.5l.3-.4 13.7-8.9 1.5.9c.1.1 2.6 1.5 4.8 3.7 4.3 4.3 4.3 8.1 3.6 10.6-1 3.4-4.2 6.2-6 7.5a23.7 23.7 0 0 1-9.3 4.3l-2.2.1m-65.2 177-3.7-4.5a256 256 0 0 0 18.7-16.3 7.7 7.7 0 0 1 4.5-4.2c2.9-.9 5.4.6 7.3 1.7l1.1.6c1.1.6 1.6.7 1.9.7.7 0 2-.5 3.3-1.1 2.3-1 5.5-4.1 7.5-6.2l2.5-2.4c2.4-2 5.7-2.8 7.3-3.2l.2-.1c.9-.2 2.1-.2 4.4-.2h4.2l6.4-2.9 6.2-2.8c1.5-.7 3.3-.7 5.9-.2a59.8 59.8 0 0 1 12.7 4.9l-2.7 5.2s-2.9-1.5-6.1-2.8c-5.6-2.2-7.3-1.9-7.4-1.9l-6.3 2.8-6.4 2.8c-1.3.6-3.1.7-6.8.6H455c-1.2.3-3.6.9-4.9 2l-2 2c-2.5 2.6-6 6.1-9.4 7.5-2.2.9-3.8 1.5-5.4 1.5-1.7.1-3.1-.4-4.8-1.3l-1.4-.8c-.7-.4-2.2-1.3-2.7-1.2-.1 0-.5.3-1 1.3-.4.7-.9 1.7-10.8 10.2-4.5 4.5-9.2 8.3-9.2 8.3"/><path fill="#1E3D8F" d="M353.2 78.1a209.7 209.7 0 0 0-81 16.3 208 208 0 0 0-91.5 75.4 208 208 0 0 0-19.2 197.3 208 208 0 0 0 75.4 91.5 208 208 0 0 0 197.3 19.2 208 208 0 0 0 91.5-75.4 208 208 0 0 0 19.2-197.3 208 208 0 0 0-75.4-91.5 208 208 0 0 0-116.3-35.5m0 426.8a224.4 224.4 0 0 1-85.2-17.1 219.3 219.3 0 0 1-116.5-286.9A219.3 219.3 0 0 1 438.4 84.4a219.3 219.3 0 0 1 116.5 286.9 219.3 219.3 0 0 1-201.7 133.6m71 138.5c-.1-.1-8.7-10.8-24.1-24.8a278 278 0 0 0-139.4-70.3 226.5 226.5 0 0 0-32.5-4.4l.4-10.6c.6 0 13.8.5 34.2 4.6 11.9 2.4 23.8 5.4 35.4 9.1a281.6 281.6 0 0 1 80.2 40.4 298.1 298.1 0 0 1 29.1 23.7c15.9 14.5 24.6 25.4 25 25.8l-8.3 6.5zm-56.9 45.7c-.1-.1-7.6-9.8-20.3-22.4a273.6 273.6 0 0 0-52.7-40.7 302.8 302.8 0 0 0-48.1-22.3 218.1 218.1 0 0 0-36.6-9.6c-19.7-3.2-30.7-1.7-30.8-1.7l-1.5-10.5c.5-.1 12.8-1.8 34.1 1.7 12.3 2 25.3 5.4 38.4 10.1a303 303 0 0 1 49.8 23.1c10.3 5.9 20.8 13 31 21.2 8.2 6.5 16.2 13.7 24 21.4 13.2 13.1 20.8 22.9 21.2 23.3l-8.5 6.4zm12.5 238c-.4-.5-10.4-11.8-23-29.2a406.9 406.9 0 0 1-20-30.5 268.2 268.2 0 0 1-18-36c-4-10-7.5-22.5-10.3-37.1a540.3 540.3 0 0 1-7.9-78.8c-4.2-4.4-18-17.9-37.1-31.4-13.4-9.5-26.8-17-39.8-22.5-16-6.7-31.4-10.2-45.8-10.3-9.7-.1-30.1 1.6-30.3 1.7l-.9-10.6c.9-.1 21.1-1.8 31.3-1.7 15.8.1 32.6 3.9 49.9 11.2a223.7 223.7 0 0 1 41.9 23.7c6.9 4.9 17.5 12.9 29 23.4 6.9 6.3 10.8 10.6 11 10.7l1.4 1.5v2.1a524.1 524.1 0 0 0 7.8 79.1c2.7 13.9 6 25.7 9.7 35.1A258.4 258.4 0 0 0 346 862a384.2 384.2 0 0 0 41.8 58.2l-8 6.9z"/><path fill="#1E3D8F" d="M251.6 906.5c-.4-.5-10.6-11.4-23.1-29.9a316.2 316.2 0 0 1-19.6-33.4 257.3 257.3 0 0 1-16.9-42.5 424 424 0 0 1-11.4-53 695.1 695.1 0 0 1-5.7-49.9c-2.3-29.7-2.2-51.5-2.2-51.8l10.7.1c0 .2-.1 21.7 2.2 51 1.3 17.2 3.2 33.7 5.6 49 3 19.1 6.7 36.5 11.1 51.6 3.9 13.4 9.3 27.1 16.1 40.6a293 293 0 0 0 41 61l-7.8 7.2zm-12.2-243.9-5.3-.3 5.3.3m77.1 264a437.9 437.9 0 0 1-53.9-78.8 280.8 280.8 0 0 1-20.1-47 297.5 297.5 0 0 1-10.1-47.4c-1.9-14-3.2-29-3.8-44.8-1.1-26.7.2-45.8.2-46.6l10.6.7c0 .2-1.2 19.5-.2 45.6.6 15.3 1.9 30 3.7 43.7a286 286 0 0 0 9.7 45.6 265.6 265.6 0 0 0 19.2 45.1 431.3 431.3 0 0 0 52.6 76.9l-7.9 7zm-9.1-208.1-3-10.2c.2-.1 15.4-4.6 34.6-12.5 11.3-4.6 21.8-9.5 31.1-14.4a187.4 187.4 0 0 0 29.4-18.7 142 142 0 0 0 34.3-40 186.9 186.9 0 0 0 17.8-42.8 208.3 208.3 0 0 0 7.6-48.2h10.7c0 .2 0 5.8-1 14.8a226 226 0 0 1-6.9 35.9 194.2 194.2 0 0 1-18.8 45.4 150.8 150.8 0 0 1-37 43.2 209.8 209.8 0 0 1-31.1 19.8 389.2 389.2 0 0 1-67.7 27.7m7.8 81.8-2.8-10.3c.2 0 17-4.7 42-17a391.8 391.8 0 0 0 93.3-63.7 215.3 215.3 0 0 0 33.4-39.4 295.6 295.6 0 0 0 22.7-40.5 300.7 300.7 0 0 0 16.9-44.3l10.3 2.8c-.2.8-5.5 20.2-17.4 45.9-7 15.1-15 29.2-23.5 42-10.8 16-22.6 30-35.2 41.4a422.6 422.6 0 0 1-96.1 65.5c-25.9 12.7-42.9 17.4-43.6 17.6m67.9 126.2-3-10.2c.1 0 6.7-2 17.5-7.2a281 281 0 0 0 44.2-26.8 595.3 595.3 0 0 0 50.4-41.5c12.4-11.5 24-23.2 34.4-34.8a264.2 264.2 0 0 0 25.7-32.6l9 5.7c-.3.5-8.6 13.6-26.8 34a509.4 509.4 0 0 1-35.1 35.6 600.4 600.4 0 0 1-51.3 42.2c-10.6 7.8-27.2 19-46.2 28-11.6 5.4-18.6 7.5-18.8 7.6m46.2-101.3h-.4l.8-10.6c-.9-.1-1.5.1-1.5.1.1 0 3-1.1 12.4-8.7a716 716 0 0 0 46.1-42.6c12.1-12 23.3-24.7 33.2-37.9a296.1 296.1 0 0 0 21.2-32.1 193.4 193.4 0 0 0 14.5-30.3l10.1 3.4c-.2.5-4.4 13-15.3 32.2a357.2 357.2 0 0 1-56.2 72.4 591.3 591.3 0 0 1-51.3 46.8c-3.8 2.9-6.9 5-9.2 6.1-1.8.8-3.2 1.2-4.4 1.2"/><path fill="#1E3D8F" d="M353.2 504.3a209.7 209.7 0 0 0-81 16.3 208 208 0 0 0-91.5 75.4 208 208 0 0 0-19.2 197.3 208 208 0 0 0 75.4 91.5A208 208 0 0 0 434.2 904a208 208 0 0 0 91.5-75.4 208 208 0 0 0 19.2-197.3 208 208 0 0 0-75.4-91.5 208 208 0 0 0-116.3-35.5m0 426.8A224.4 224.4 0 0 1 268 914a219.3 219.3 0 0 1-116.5-286.9 219.3 219.3 0 0 1 286.9-116.5 219.3 219.3 0 0 1 116.5 286.9 219.3 219.3 0 0 1-201.7 133.6M90 54.5S595 181.2 606.3 185c11.3 3.8 22.7 15.1 18.9 31.2-3.8 16.1-17 63.4-17 63.4L75.8 144.4l43.5-36.9-29.3-53z"/><path fill="#1E3D8F" d="M91.4 392.2S561.8 508.7 592 516.5c32.6 8.4 30.9 22 26.1 39.1L599.5 613S137.8 494.9 110.8 487.1c-27-7.8-39.5-16.1-36.2-29.3a7023 7023 0 0 0 16.8-65.6m-5.3 320 537.3 135.2-53.3 41.9 30 52-496.5-126.5c-19.8-5-38.1-9.3-31.6-40 6.6-30.6 14.1-62.6 14.1-62.6"/><path fill="#FFF" d="m153 112.1 2.7.7c3.4.9 5.4-.7 6.1-3.7.6-2.2 0-4.9-3.6-5.8l-2.7-.8-2.5 9.6zm-4.6 18.1 3 .8c4 1 6.1-1.2 6.8-4.1 1.1-4.2-.6-6.5-3.7-7.3l-3.2-.8-2.9 11.4zm-1-37.6 15.5 3.9c7.2 1.8 11.2 6.5 9.4 13.5-1.3 4.9-4.9 8.1-9.1 7.9v.1c3 1.3 7.4 3.8 5.2 12.5-1.3 5-5.2 11.2-17 8.2l-14.7-3.8 10.7-42.3zm31.9 8.2 10 2.5-10.8 42.4-10-2.5 10.8-42.4zm21.6 24.5 3.1.8c4 1 5.9-1.7 6.5-4.2.8-3.2.2-5.6-3.8-6.7l-3-.8-2.8 10.9zm-5.4-20.4 16.7 4.3c8.5 2.2 10.1 8.1 8.6 13.9-1.6 6.2-4.8 8.6-9.8 8.5v.1c6.1 2.5 5.5 6.6 4.1 12.3-2 8.4-1.9 9.3-.6 10.3l-.1.5-10.7-2.7c-.4-1.6-.1-4.1 1.1-8.9 1.9-7.4 1.3-9.2-1.9-10l-3.8-1-4.5 17.5-10-2.5 10.9-42.3zm32.8 8.3 14.6 3.7-1.9 29.2h.1l12.1-26.5 14.4 3.7-10.6 42.3-9.3-2.4 8.4-33h-.1l-14.9 31.4-7.7-2 1.6-34.7h-.1l-8.4 33-8.9-2.3 10.7-42.4zm45.4 11.6 10 2.5-10.8 42.4-10-2.5 10.8-42.4zm15.6 3.9 11.5 2.9 1.2 29.6h.1l7-27.5 9.3 2.4-10.8 42.4-11.3-2.9-1.3-31.4h-.1l-7.4 29.2-8.9-2.3 10.7-42.4zm49.7 26.5c.7-2.7 1.5-7.1-2.2-8.1-4.1-1-5.6 3-8.5 14.3-2.9 11.6-3.3 15.5.7 16.5 3.4.9 5.4-1.9 6.8-7.7l.3-1.4-4.7-1.2 1.7-6.6 13.9 3.6-5.8 22.7-6.8-1.7.8-4.1h-.1c-2.5 3.4-6.5 3.5-10.4 2.5-10.6-2.7-10.4-11.1-7-24.3 3.5-13.9 6.8-22.7 20.9-19.1 12.9 3.3 11.1 12.3 9.9 17.1l-9.5-2.5zm18.4-9 10 2.5-4 15.8 8 2 4-15.8 10 2.5-10.8 42.4-10-2.5 4.6-18.1-8-2-4.6 18.1-10-2.5 10.8-42.4zm46.6 20.1h-.1l-8.3 18 7.2 1.8 1.2-19.8zm-4.1-9.3 12.5 3.2-.2 45.1-10.3-2.6.5-8.5-10.1-2.6-3.5 7.7-10.3-2.6 21.4-39.7zm26.3 6.7 14.6 3.7-1.9 29.2h.1l12.1-26.5 14.4 3.7-10.8 42.4-9.3-2.4 8.4-33h-.1l-14.9 31.3-7.7-2 1.6-34.7h-.1l-8.4 33-8.9-2.3 10.9-42.4zm75.1 34.9c1.6-6.2 1.6-9.1-1.8-9.9-4-1-5.3 2.7-8.1 13.8-3.2 12.6-3.6 16 .5 17 3.7.9 5.2-3.2 6.9-9.7l9.6 2.5-.4 1.5c-2.3 9.1-6.6 15.3-19 12.2-12.8-3.3-11.3-13.1-8.1-25.8 2.8-10.9 6.1-21.6 20.3-18 8.8 2.2 12.6 7.3 10.1 17.2l-.5 1.8-9.5-2.6zm18-11.2 10 2.5-10.8 42.4-10-2.5 10.8-42.4zm20.3 13.8-8.9-2.3 2.1-8.1 27.8 7.1-2.1 8.1-8.9-2.3-8.7 34.3-10-2.5 8.7-34.3zm27.2 25.6-4.2-28.4 11 2.8.7 16.9h.1l8.9-14.5 10.7 2.7-17.3 23-4.3 16.7-10-2.5 4.4-16.7zM163.2 433.3l24.2 6.2-2 8-14.4-3.7-2.1 8.4 13.5 3.5-2 8-13.6-3.5-4.5 17.5-9.9-2.5 10.8-41.9zm32.6 46.9c4 1 5.5-2.5 8.5-14 2.9-11.6 3.3-15.4-.7-16.4-3.9-1-5.4 2.6-8.3 14.1-3 11.4-3.3 15.3.5 16.3m-1.6 6.6c-13-3.3-12.6-12.2-9.2-25.6 3.4-13.3 7.3-21.3 20.3-18 14 3.6 12.1 13.9 9.2 25.5-3 11.7-6.3 21.6-20.3 18.1m35.2 2c4 1 5.5-2.5 8.5-14 2.9-11.6 3.3-15.4-.7-16.5-3.9-1-5.4 2.6-8.3 14.1-3 11.5-3.4 15.4.5 16.4m-1.6 6.5c-13-3.3-12.6-12.2-9.2-25.5 3.4-13.3 7.3-21.3 20.3-18 14 3.6 12.1 13.9 9.2 25.5-3 11.6-6.3 21.6-20.3 18m34.7-28.2-8.8-2.2 2-8 27.5 7-2 8-8.8-2.2-8.6 33.9-9.9-2.5 8.6-34zm29.6 16.9 2.7.7c3.4.9 5.3-.7 6.1-3.7.6-2.2 0-4.8-3.6-5.7l-2.8-.7-2.4 9.4zm-4.6 17.9 3 .8c4 1 6-1.2 6.7-4.1 1-4.1-.6-6.4-3.7-7.2l-3.2-.8-2.8 11.3zm-1-37.1 15.3 3.9c7.2 1.8 11.1 6.4 9.3 13.4-1.2 4.9-4.8 8-9 7.8v.1c3 1.3 7.3 3.8 5.1 12.4-1.3 4.9-5.1 11.1-16.8 8.1l-14.6-3.8 10.7-41.9zm45.3 19.7h-.1l-8.2 17.8 7.2 1.8 1.1-19.6zm-4-9.2 12.3 3.1-.2 44.6-10.2-2.6.5-8.4-10-2.6-3.6 7.7-10.2-2.6 21.4-39.2zm25.9 6.6 9.9 2.5-8.7 33.9 14.3 3.6-2 8-24.2-6.1 10.7-41.9zm27.1 6.9 9.9 2.5-8.7 33.9 14.3 3.6-2 8-24.1-6.2 10.6-41.8zm56 29.8c1.6-6.1 1.5-9-1.7-9.8-3.9-1-5.2 2.7-8 13.6-3.2 12.4-3.6 15.8.5 16.8 3.6.9 5.1-3.1 6.8-9.6l9.5 2.4-.4 1.5c-2.3 9-6.6 15.1-18.8 12-12.6-3.2-11.2-12.9-8-25.5 2.7-10.7 6.1-21.3 20-17.8 8.7 2.2 12.5 7.2 10 17l-.4 1.8-9.5-2.4zm17.6-11.1 9.9 2.5-8.7 33.9 14.3 3.6-2 8-24.1-6.2 10.6-41.8zm46.9 41.9c-2.1 8.2-6.1 14.1-17.5 11.2-11.4-2.9-12.2-10-10.1-18.2l7.2-28.1 9.9 2.5-7.9 30.9c-.8 3.3 0 5.6 2.6 6.2 2.6.7 4.4-.9 5.3-4.2l7.9-30.9 9.9 2.5-7.3 28.1zm18.3-7.4 2.7.7c3.4.9 5.3-.7 6.1-3.7.6-2.2 0-4.8-3.6-5.7l-2.8-.7-2.4 9.4zm-4.6 17.9 3 .8c4 1 6-1.2 6.7-4.1 1-4.1-.6-6.4-3.7-7.2l-3.2-.8-2.8 11.3zm-1-37.2 15.3 3.9c7.2 1.8 11.1 6.4 9.3 13.4-1.2 4.9-4.8 8-9 7.8v.1c3 1.3 7.3 3.8 5.1 12.4-1.3 4.9-5.1 11.1-16.8 8.1l-14.6-3.7 10.7-42zM250.1 805.4l14.1 3.5-1.6 6.3-14.1-3.5 1.6-6.3zm154.2 37.9 14.1 3.5-1.6 6.3-14.1-3.5 1.6-6.3zm-115-39.3-8.1-2 1.5-6.3 1.2.3c7.6 1.9 10.3-1.6 11.4-4.2l7 1.7-10.2 42.2-10-2.5 7.2-29.2zm35.5 7.4c.7-2.9.5-5.5-2.2-6.2-2.7-.7-4.1 1.5-4.8 4.4-1 4.1-.1 5.7 2.2 6.3 2.3.6 3.8-.4 4.8-4.5m-12 16.5c-.9 3.7-.9 6.9 2.3 7.7 3.2.8 4.7-2 5.6-5.7.9-3.7.8-6.8-2.4-7.6-3.1-.8-4.6 1.8-5.5 5.6m21.4-15c-1.2 4.7-4.1 7.5-8.1 7.4v.1c4.3 1.8 6.1 6 4.7 11.7-1.8 7.1-5.7 12.5-17.2 9.7-11.5-2.8-12.6-9-10.8-16.6 1.2-4.7 4.2-8.7 9.4-8.2v-.1c-3.3-1.8-4.8-5.4-3.6-10.3 1.6-6.4 6.1-10 15.5-7.7 9.3 2.3 11.7 7.4 10.1 14m3.5-.9 2.1-8.4 26.8 6.6-1.8 7.4a78.8 78.8 0 0 0-19.7 31l-10.3-2.5c3-9.6 12.2-23.4 20.3-29.8l-17.4-4.3zm33.9 30-.4 1.5c-.7 2.8-.7 5.5 2.3 6.2 3.2.8 4.7-2.3 6.1-8.1 1.2-4.9.7-7.6-1.9-8.2-1.8-.4-3.6.1-4.5 2.4l-9.3-2.3 6.9-22.5 23.6 5.8-1.9 7.7-15.9-3.9-2.4 7.8.1.1c1.6-1.9 5.1-2.3 7.8-1.6 7.7 1.9 10 7.2 7.5 17.3-2.6 10.7-8.1 14-17.5 11.7-8.9-2.2-12.2-7.5-10.4-14.9l.4-1.5 9.5 2.5z"/></svg>