<svg xmlns="http://www.w3.org/2000/svg" xml:space="preserve" width="441.30667" height="441.30667" viewBox="0 0 441.30667 441.30667"><path d="M0 1654.92c0 913.99 740.914 1654.91 1654.93 1654.91 913.98 0 1654.86-740.92 1654.86-1654.91C3309.79 740.91 2568.91 0 1654.93 0 740.914 0 0 740.91 0 1654.92" style="fill:#fff;fill-opacity:1;fill-rule:evenodd;stroke:none" transform="matrix(.13333 0 0 -.13333 0 441.307)"/><path d="M62.887 1654.92c0 879.24 712.765 1592.01 1592.043 1592.01 879.24 0 1591.98-712.77 1591.98-1592.01 0-879.26-712.74-1592.03-1591.98-1592.03-879.278 0-1592.043 712.77-1592.043 1592.03" style="fill:#231f20;fill-opacity:1;fill-rule:evenodd;stroke:none" transform="matrix(.13333 0 0 -.13333 0 441.307)"/><path d="M749.375 2702.48c-25.344 3.71-50.707-6.06-68.715-24.17-32.281-32.45-29.168-79.09 2.453-110.56 32.18-32.01 77.485-32.95 110.289.03 17.203 17.31 26.051 42.95 23.801 67.22l63.582-63.21c-12.062-22.95-20.695-39.69-37.094-56.18-28.203-28.39-65.941-44.66-106.101-46.67-42.617-2.26-79.289 13.79-109.594 43.93-27.867 27.71-44.113 64.86-44.754 104.23-.652 40.45 15.653 81.75 44.18 110.4 16.93 17.03 36.289 28.95 58.433 38.19l63.52-63.21M966.617 2836.73l-59.722 93.52 62.988 40.22 154.727-242.31-63-40.23-63.411 99.31-90.926-58.07 63.356-99.31-62.93-40.21-154.719 242.31 62.989 40.22 59.668-93.53 90.98 58.08M1208.51 2970.36l-.75-.26.38-96.59 58.81 20.1-58.44 76.75zm-1.34-157.62-2.63-53.68-75.06-25.63 11.69 307.81 77.2 26.39 195.48-237.06-75.44-25.77-33.83 41.22-97.41-33.28M1479.89 2993.22l7.19.79c24.29 2.64 51.08 10.16 47.71 41.24-3.38 31.1-31.21 32.66-55.49 30.04l-7.19-.8 7.78-71.27zm180.56-139.92-92.47-10.06-82.15 102.31-.74-.09 11.96-109.94-74.32-8.1-31.08 285.85 111.08 12.08c56.45 6.17 102.24-16.08 108.89-77.12 4.29-39.43-13.99-75.93-53.78-87.57l102.61-107.36M1748.97 2905.96l89.42-6.08-4.29-63.16-164 11.14 19.46 286.86 74.57-5.05-15.16-223.71M1961.59 2807.48l-72.81 16.67 50.03 218.54-60.21 13.77 14.11 61.7 193.26-44.24-14.09-61.69-60.21 13.78-50.08-218.53M2156.84 2901.41c-21.17-44.83-3.54-93.21 36.84-112.24 40.31-19.04 88.89-1.91 110.05 42.92 16.89 35.86-.74 84.25-41.06 103.29-40.38 19.04-88.95 1.9-105.83-33.97zm217.39-102.18c-39.72-84.13-128.02-114.96-211.49-75.59-83.48 39.39-115.8 127.18-76.08 211.31 37.05 78.64 132.11 101.24 206.89 65.94 74.85-35.31 117.78-123.03 80.68-201.66M2510.14 2872.24l56.88-48.53-10.03-222.56.6-.5 114.14 133.7 56.81-48.52-186.66-218.67-56.83 48.52 10.24 222.86-.59.5-114.36-133.99-56.81 48.52 186.61 218.67M981.148 535.82l-.64.391-73.992-62.109 53.129-32.313 21.503 94.031zm-121.91-99.89-42.949-32.36-67.715 41.211L992.449 632.93l69.691-42.43-56.92-301.871-68.036 41.41 9.964 52.383-87.91 53.508M1126.64 244.352l-69.27 28.128 84.39 207.711-57.26 23.258 23.86 58.641 183.67-74.59-23.8-58.66-57.26 23.25-84.33-207.738M1456.2 338.879l21.17 108.91 73.34-14.258-54.89-282.23-73.34 14.281 22.51 115.648-105.94 20.622-22.51-115.661-73.34 14.27 54.89 282.211 73.35-14.281-21.18-108.899 105.94-20.613M1652.47 211.461l89.59-.621-.45-63.289-164.31 1.14 1.98 287.5 74.74-.531-1.55-224.199M1835.4 384.621l6.81-47.57 83.41 11.969 9-62.661-83.42-11.968 7.08-49.059 87.92 12.617 9.01-62.66-161.96-23.258-40.84 284.629 161.95 23.238 9.01-62.66-87.97-12.617M2137.12 225.762l-71.42-22.032-66.1 214.25-59.02-18.199-18.67 60.489 189.53 58.441 18.59-60.492-59.02-18.199 66.11-214.258M2309.21 295.762l-68.15-30.711-118.11 262.129 68.14 30.711 118.12-262.129M2448.59 598.82c-23.97 9.2-50.77 5.262-72.37-8.429-38.59-24.532-45.9-70.711-21.99-108.36 24.35-38.301 68.32-49.242 107.56-24.32 20.63 13.09 34.9 36.148 38.06 60.309l48.03-75.661c-16.84-19.711-28.9-34.16-48.51-46.617-33.83-21.472-74.19-29.031-113.81-22.113-42.03 7.191-74.32 30.98-97.21 67.031-21.02 33.141-28.73 72.988-20.64 111.52 8.26 39.609 33.29 76.269 67.44 97.949 20.27 12.871 41.82 20.223 65.41 24.34l48.03-75.649M2618.01 480.742l-8.58-6.781-54.48 69.238-18.64-14.648-6.28 7.969 46.11 36.25 6.27-7.989-18.87-14.82 54.47-69.219M2587.98 589.59l80.63-39.731-26.1 86.032 82.45-66.211-8.58-7.258-52.65 42.457-.2-.16 21.54-74.239-69.69 33.309-.21-.16 33.39-58.828-8.52-7.262-52.06 92.051" style="fill:#fff;fill-opacity:1;fill-rule:evenodd;stroke:none" transform="matrix(.13333 0 0 -.13333 0 441.307)"/><path d="M549.414 1654.92c0 610.55 494.936 1105.5 1105.516 1105.5 610.53 0 1105.47-494.95 1105.47-1105.5 0-610.57-494.94-1105.51-1105.47-1105.51-610.58 0-1105.516 494.94-1105.516 1105.51" style="fill:#fff;fill-opacity:1;fill-rule:evenodd;stroke:none" transform="matrix(.13333 0 0 -.13333 0 441.307)"/><path d="M613.918 1654.92c0 574.94 466.042 1041 1041.012 1041 574.93 0 1040.98-466.06 1040.98-1041S2229.86 613.898 1654.93 613.898c-574.97 0-1041.012 466.082-1041.012 1041.022" style="fill:#ee2c30;fill-opacity:1;fill-rule:evenodd;stroke:none" transform="matrix(.13333 0 0 -.13333 0 441.307)"/><path d="M1510.18 1370c-57.85-2.89-128.23-14.89-168.77 37.87-16.29 21.21-12.48 58.77-42.79 68-28.03 8.56-55.16-2.89-68.99-29.08-12.87-24.31-12.7-52.01-3.26-76.68 12.06-31.34 41.92-56.25 73.01-59.7 241.25-26.76 475.04 17.14 717.8-20.16 44.82-6.88 101.34-86.17 145.35-35.63 10.39 76.27-76.83 104.01-137.31 113.87-84.27 13.75-165.6-2.44-248.17 8.44-16.94 300.19-1.06 600.01-14.68 900.48-4.94 109.04-44.55 217.35-114.99 304.09-55.4-78.67-91.09-170.09-98.54-263.57-25.1-314.59 1.34-625.82-22.31-940.82-.1-1.53-9.75-6.78-16.35-7.11" style="fill:#fff;fill-opacity:1;fill-rule:evenodd;stroke:none" transform="matrix(.13333 0 0 -.13333 0 441.307)"/><path d="M1547.6 1017.87c7.57-5.06 8.52-13.58 9.07-19.159 2.25-21.641-12.02-40.629-16.35-62.91-5-25.942 4.92-47.781 14.78-70.16 7.24-16.481 19.62-28.961 33.62-40.141 35.86-28.691 81.97-35.93 125.13-18.84 42.95 17.012 66.42 55.559 77.37 99.719 7.49 30.16-12.98 53.5-16.9 81.531-.32 2.129 4.83 6.789 6 6.289 107.23-46.097 198.68-113.988 290.69-190.359 6.54-5.449 12.87-18.199 24.56-12.031 142.76 75.281 257.55 173.089 351.63 311.351 4.08 6-1.71 11.68-6.97 13.65-125.98 47.35-249.83 77.56-385.46 103.03-88.62 16.66-171.08 14.92-259.01 35.51-8.99 2.11-14.36 14.84-18.86 15.1-88.77 5.33-177.77 8.28-266.66-.98-11.7-25.1-17-52.15 1.7-79.2 5.85-8.38 1.25-21.56-3.96-32.7-6.11-13-2.53-27.57 6.7-39.47 9.61-12.32 28.14-20.31 20.27-37.09-6.48-13.73-12.55-25.96-9.33-41.23 2.42-11.64 12.87-15.84 21.98-21.91" style="fill:#fff;fill-opacity:1;fill-rule:evenodd;stroke:none" transform="matrix(.13333 0 0 -.13333 0 441.307)"/></svg>