<svg xmlns="http://www.w3.org/2000/svg" xml:space="preserve" id="Layer_1" width="163.70992" height="213.7" x="0px" y="0px" version="1.0" viewBox="0 0 163.70992 213.7"><style>.st0,.st20{fill-rule:evenodd;clip-rule:evenodd}.st20{fill:#fcfcfc}</style><g id="g274" transform="translate(-119.8 -31.8)"><path id="path4" d="M183.2 97.9c-2.6 0-5.2-2.5-10.2 1.5-2.2 1.7-1.5 7.7-2.3 10.9-.4 1.8-.9 3.4-1.1 5.4-.5 4.7.7 4.4-.7 5.5-1.3 1-2.4 1.9-3.8 2.8l-3 1.9c-1 .6-.7.8-.6.9.3 1 6.2-2.3 7-2.8.7-.4 1.3-1 2-1.4.3.3.5.8.6 1.2-.6.8-3.4 2.9-4.2 3.5l-3.4 2.4c-.5.3-.9.5-.6 1.3.8 1.2 7.4-3.3 8.4-4 .4-.3.6-.6 1.2-.8.2.6.6 1.3.9 2.1.3.7.5 1.4.7 2.2 1.2 4.1 2.8 10.2 8.9 8 3.5-1.2 1.6-2.4 1.4-3-.3-.7-.3-1.8-1.4-1.5-.7.2-.8 1.2-2.1.8-1.4-.4-1.4-2.9-1.3-4.5.1-1.9.2-3.7.2-5.7.2-.3 1.7-1.3 2-1.6.5-.4 1.6-1.5 2-1.7 3.2 6.2 2.7 11.8 2.4 18.6-10.8 5.9-17.9 16.4-19 28.7-.1 1.1-.1 2.1-.1 3.2 0 1 .2 2.5.1 3.4-1.1.5-1.6.5-2.3 1.3-1.3 1.7-.9 3.9-.1 5.7 1.8 4.1-1.7 4.3-4.4 1-1-1.2-2.3-2.9-3.1-4.3.2-.4.9-1.2 1.2-1.7 1.3-1.7 2.6-3.3 3.8-5.2 3.3-5 6.1-12.1 5.2-18.5-.7-5-3.7-7.1-4.1-7.9.3-.5 1.1-1.4 1.6-1.7.6-.5 1.3-.8 2-1.3-.7-.3-1.3-.2-2-.7-.6-.4-1-1.3-.2-1.8 1.5-.9 3.4.4 4.5.8.2-6.2-5.1-6.2-5.5-6.5-.3-.5-.2-1.1-.4-1.7-1-.1-3 .1-4.2.1-1.5 0-2.8-.1-4.2-.3-2-3.6-2.8-8.7-3.1-13.4-.3-4.6-.2-9.3-.5-13.9l-.1-1.5v-.2l-.1-.3c-1.2.7-4.2 4.3-4.7 6.4v-.1l-.1-.2c-.2-.7-.2-1.7-.5-2.4l-.1-.2c-1.9 1.7-2.8 4.9-3.2 8.3-.3-.6-.5-1.4-.9-1.9-.5.6-1.3 2.5-1.6 3.4-.4 1.4-.7 2.8-.7 4.3l-.5-.7c-.1-.2-.2-.4-.4-.6-.4.7-.8 2-.9 2.9-.5-.6-1.4-3.6-1.6-4.3-.9-3.1-1.7-6.2-2.3-9.5-.3-1.7-.4-3.6-.8-5.2-1.1 1.1-2 2.7-2.7 4.4-.9 2.2-1 3.6-1.1 6.2-.4-.5-.5-1.1-1-1.5-1.9 3.9-2.3 6.1-1.9 10.6.1.8-.5 1.1-.7 1.9-.5 1.4-.6 3.1-.3 4.6.2 1.1.5.9.1 1.9-.3.7-.5 1.3-.6 2.1-.2 1.5 0 3.2.6 4.4.4.8-.4 2.3.1 4.4.2 1.2 1.1 2.3 1 2.8-.1.4-.2.7-.2 1.1-.3 2.9 1.5 3.7 1.5 4.8.1 2.2-.2 2.9 1.5 4.9.3.4.5 2.4 1.4 3.8.5.7.7.6 1 1.7.5 2 1.4 2.2 2.2 3 .2.2.2.5.4.8.2.3.3.5.5.8.4.5.8.8 1.4 1.2.6.4 1.1.4 1.5 1 1.1 1.9 2.9 2.5 5.2 2.6-.3 1.6-7 11.7-8.3 13.6-1.5 2.2-3.1 4.3-4.6 6.4-.8 1.1-1.6 2.1-2.4 3.1-.5.7-2.1 2.4-2.5 3.1.6-.1 1.4-.4 2-.6 5.2-1.4 11-1.7 16.3-.5l.6.2c.4.8 0 3-.2 3.7-3-.4-5.2-.9-8.5-.8-3.5.1-8.3.7-9.8 4-1.2 2.5.2 4.8 1.2 7 2.9 6.3 5.6 12.8 8.6 19.2 1.4 3.1 5.1 3.7 8.2 3 .5-.1 1.4-.5 1.8-.5-.4 2.6-.9 4.3 2.3 6 1.9 1.1 4.4 1.7 6.8 2.2 13.5 2.9 35.9 4.2 49.6 4.2 14.3 0 35.5-1.3 49.6-4.2 2.3-.5 5-1.2 6.8-2.2 1-.5 1.8-1.2 2.3-2.2.7-1.4.2-2.5 0-3.9 2.4.6 4.1 1.2 6.8.4 2.4-.8 2.8-1.9 3.8-4.1l7.3-16.5c.6-1.4 2.1-4.2 2.3-5.7.6-3.9-2.8-5.6-5.7-6.3-1.3-.3-2.3-.3-3.5-.5 1.2-1.3 1.5-1.1 2.6-3 .7-1.2 1.2-2.6 1.5-4.2.4-2.5.1-5.1-.5-7.6-.1-.6-.3-1.6-.7-2.1-.5 1.2-1.7 3.1-2.5 3.8l-.2-.4c-.9-3.1-2.4-5.3-2.9-7.5-.8-3.5 0-6.7 1.8-8.8.9-1 1.7-1.7 2.6-3 .7-1.1 1.4-2.3 1.8-3.8.2-.6.2-1.8.5-2.3.6-1.1 2-1.7 2.6-5.9.1-.9.1-1.7.2-2.6.1-1.1 1.9-2.6 1.9-6.5 0-.7-.3-2.1-.2-2.5.2-2 1.6-2.8.1-7.2-.4-1.1 2-4.8-.1-9.3-.3-.6.1-1.6.2-2.3.1-.9.1-1.9.1-2.8-.1-1.3-.3-2.5-.6-3.7l-.3-1v-.1c-.4.3-.9.8-1.3 1.2-.2-1.8 0-3-.5-4.8-.3-1.1-1.2-2.9-1.8-3.5-.5.4-1.5 1.8-1.8 2.5-.3-1.9-.3-3.1-.9-4.9-.4-1.3-1.3-3.1-2.1-3.8-.2.1-.1 0-.2.2-.5.6-.8 1.3-1.1 1.9-2.6 5.4-3.5 11.4-3.6 17.4 0 .5.1 1.2-.1 1.6-.2.3-.8.7-1.1.8 0-1.2-.4-4.5-1.1-5.1-.4.2-.7.6-1.1.9-.1-2.8-.5-6-2-7.9l-.3.3c-.1.1-.1.2-.3.4-.1.3-.3.6-.5.9-.1-.2-.5-2.4-1.3-4-.5-.9-1.7-2.6-2.4-2.9l-.8 2.1c-1.1-1.7-1.4-2.4-2.8-4-.7-.9-1.8-1.7-2.8-2.3-.3-.2-.8-.4-1-.6l1.1 6.6c.3 2.4.5 4.8.6 7.2.2 4.8-.3 9.7-1.6 14-3.2.4-5.1.2-8.1 1.8-1.6.9-4.5 3.2-4.9 5 .9.1 2.8-.1 3.5.3l-2.1.9c.5.6 1.6 1.2 2.4 1.6-.5.3-2.4.4-3.1.4.3 1.1 1.3 2.5 1.9 3 .4.3.9.7 1.4 1 .6.3 1.5.4 1.8.7-2.3 2.4-3.5 4.2-3.7 7.9-.3 7.4 6.4 11.4 4.5 18.2-.7 2.6-3.3 5.8-4.8 6.8.1-2.1.5-2.8.5-5.8.2-8.9-3-17.4-8.5-24-.5-.6-1-1.1-1.5-1.6l-1.6-1.6c-.8-.8-1.7-1.5-2.6-2.2-.3-.2-.7-.4-.9-.7-.2-4.6-1-7.9 0-12.6.4-1.9.9-3.5 1.6-5.1.5-1.1 2-3.6 2.7-4.1.7.8.9 2.8.8 4.1-.2 2.6-2.5 5.8-1.2 8.3.6 1 1.8 1.9 3.4 1.1-.2-1.8-.6-2.2-.6-4.6-.1-5.3 1.6-9 .7-14.9-.4-2.9-1.5-5.8-2.9-7.8-1.6-2.3-3-3.4-5.9-4.9-.2-2.5 0-5.3 0-7.8 0-.8-.3-1.4-.5-2.1-.4-1.2-1.1-2.8-1.1-4.1 0-2.6-.3-14.6.2-15.5.6-1.2 1.5-2.3 1.5-3.8V63h-39.5v4.7c0 1.9.3 2 1.1 3.7.8 1.6.5 2 .5 4.3v11.9c0 1.9-1.2 3.8-1.6 5.6-1 1-.8 3.4-.9 4.7zm-34.5 97.8c0-2.2.3-3 .8-4.8.3.1 1.7 1.3 2.4 1.9 1.9 1.3 1.7 1.2 2.9.9 4-1 6.3.3 10.6-2.2.9-.5 2.1-1.4 2.9-.4 1.1 1.3.7 5.5 6.8 3.8.4.2.5.4.7.7 1 1.3 3.6 3.6 4.9 4.7 6.5 5.3 15.9 8.3 25 7.6 6.3-.5 12.1-2.6 16.5-5.4 3.5-2.3 4.7-3.3 7.4-6.2l2.5-3c.3-.4.9-1.3 1.2-1.6.1 2 .3 3.2 1.1 4.9.4.7.8 1.3 1.2 1.8.5.6 1 1 1.5 1.5-2.5.1-4.7.3-6.7 1.5-1.5.9-3.3 2.5-2.6 5.2.4 1.6 3.5 12.4 3.4 12.9-4.1.3-8.2.7-12.4.9-12.2.6-19.3.6-31.5 0-4-.2-8.5-.5-12.5-1 0-.5 3.1-11.8 3.4-12.6 1.3-4.9-4.2-7-8.6-7-5 0-9.1 1.2-13.4 3-.6.3-.7.4-1.4.2l-4.4-1.5c-.9-.3-.9-.1-1.4-2.4-.1-1-.3-2.2-.3-3.4z" class="st0"/><linearGradient id="SVGID_1_" x1="184.8857" x2="197.18649" y1="82.805397" y2="82.805397" gradientUnits="userSpaceOnUse"><stop id="stop6" offset="0" style="stop-color:#bd9f60"/><stop id="stop8" offset="0.47" style="stop-color:#dcbd73"/><stop id="stop10" offset="1" style="stop-color:#bd9f5e"/></linearGradient><path id="path13" d="m185.2 65.4.1-.3h1.5l.1.3v.9h.8V65.1h1.6l.1 1.2h.8l-.1-.9.1-.3h1.6l.1.3v.9l.8.1v-1.1h1.6v1h.7l.1-1.2h1.6l.1.3-.1 2.6h-11.2zm2.9 3.4h8.2c0 .9-1.1 2.4-1.4 3.3h-8.4c-.3-.9-1.4-2.6-1.5-3.3zm-1.4 18.9c-.1-.8-.1-14.3 0-14.8h8.2v14.8zm-1.5 5.8c-.1-.6 1.2-4.2 1.5-5h8.3c.3.9 1.5 4.2 1.4 4.9zm0 6.7.1-5.8h9.8c1 0 1.1-.1 1.3.2v5.6c-.1.4.1.2-.2.3h-10.9zm3.6-20.6c-.6-.1-1.2 0-1.3.7-.1.8.5.9 1.3.8 0-.1.1-.2.2-.3h1.4c0 .5.1 2.5 0 2.9-.1.5-.5.4-.3 1.1.2.8 1.4.7 1.6-.1.1-.6-.3-.7-.4-1-.1-.3 0-2.3 0-2.8 1.6-.2 1.1.3 2.4.4l.2-.2c.1-.1.1 0 .1-.2.2-.5.1-1.3-1.1-1.1-.4.5-.9.4-1.6.3 0-.7-.1-2.1 0-2.7.1-.6 1-1.1-.1-1.7-.5-.1-.9 0-1.1.5-.2.7.2.7.3 1.1.1.3 0 2.4 0 2.8-.7-.1-1.4-.1-1.6-.5Z" style="fill:url(#SVGID_1_);fill-rule:evenodd;clip-rule:evenodd"/><linearGradient id="SVGID_2_" x1="257.4913" x2="253.0072" y1="119.165" y2="134.4669" gradientUnits="userSpaceOnUse"><stop id="stop15" offset="0" style="stop-color:#dcbd73"/><stop id="stop17" offset="1" style="stop-color:#bd9f60"/></linearGradient><path id="path20" d="M255 123.4c-.2 1.6-.8 3.5-.7 5.1 1.3-1.5 1.3-5.7 1.9-6.5-.1-.8.3-2 .4-2.9.3-2.3.2-6.8 1-8.4.4.3 1 1.6 1.2 2.3.7 2.6.6 7-.2 9.2-.4 2.3-1.6 4.9-1.8 7.1l.5-.7c.8-1.4 1.5-4.1 1.9-5.7.3-1.2 1.7-5.9 2.3-6.5 1.2 1.5.6 5.9.1 7.7-.7 2.5-2.2 5.2-2.4 6.5.4-.2.5-.4.8-.9.7-.9 1.2-2 1.6-3.1.6-1.3 1.5-3.2 2.4-3.8.5.9.3 3.7 0 4.8-.4 1.4-1 2.5-1.7 3.6-1.6 2.9-2.1 4.8-2.1 8.7l-.1-.1-.2-.2c-.3-.5-.4-1-1.2-1.7l-.8-.8c-.2-.1-.3-.2-.5-.4-.1-.1-.2-.1-.3-.2-.2-.1 0 0-.2-.2 1.1-.6 2.4-2.3 2.9-3.7-1 .1-2.3.6-4.7.7.5-1 1-1.4 1.2-2.8-1.9.3-1.6.7-5.2.9.2-1.1.6-2.5.9-3.7.2-.8.4-3.4.7-3.9-.1-.9.2-3.3.2-4.5 0-1.5 0-3.1-.1-4.6-.1-2.1-.5-5.1-.8-7.2-.1-.8 0-.5 0-.8v-.1c1.7 2.3 3 3.8 3.5 7.1.4 2.8.1 7.2-.5 9.7z" style="fill:url(#SVGID_2_);fill-rule:evenodd;clip-rule:evenodd"/><linearGradient id="SVGID_3_" x1="161.0269" x2="121.6606" y1="128.7885" y2="175.6788" gradientUnits="userSpaceOnUse"><stop id="stop22" offset="0" style="stop-color:#fff"/><stop id="stop24" offset="1" style="stop-color:#b1bac5"/></linearGradient><path id="path27" d="M147.1 145.6s0 .1 0 0c.1.1.1.1.1.2.2.4.1.3.4 1.2.7 2.4 2.5 6.2 5 6.8-.5-.7-1.1-1.2-1.6-1.9-.5-.6-.9-1.3-1.3-2.1-1.9-3.6-2.3-7 0-10.4.9-1.3 2-2.4 3.5-3.3-.6-.6-2-1.6-2.1-2.7.7.2 1.5.5 2.3.7 3.1.7 5.6.3 8.6.3.1.6.5 1.7.6 1.5l.1.1c.4.3 4 .3 4.6 2.8-.5-.1-3-1-4.1.6-1.4 2.1.6 3.2.9 3.5-1.1.7-1.3 1-2.1 1.9-1.6-.4-1.6-.6-3.6-.5.2.2 1.3.7 1.7.9 1.6.9 2.9 2.1 4 3.7 1.5 2.3 2 5 1.8 8.3-.4 8.9-5.9 15.1-10.7 21.4l-.4.5c-.1.3-.2.4-.4.6l-2.7 3.7c-3.7 5.5-5.3 10.3-3.8 17.4l-3-.8c.1-.9.2-1.7.2-2.7 0-6.5-2.8-12.3-.9-17.6-3.4 2.9-.7 9.9-.4 14.3-4.5-.4-6.8-1.1-11.7-.5-1.3.1-2.4.4-3.6.6.3-.5 1-1.3 1.4-1.9 2.3-2.9 4.7-6.3 6.8-9.4.3-.4 2.2-3.6 2.6-3.9.1-.4 5.5-9.3 5.8-10.6-1.8.6-5.5.8-6.2-.8.4-.1 1-.4 1.5-.6 1.3-.5 3.4-.9 4-2.2-.7.1-1.5.5-2.2.8l-2.4.6c-1.8.2-3.6-.2-4.3-1.4 1.1-.2 2.3-.5 3.5-.8.6-.1 1.2-.2 1.8-.4.7-.1 1-.4 1.5-.6l.3-.5c-1.8.2-3.4.8-5.3.9-2 .1-3.6-.7-4.2-2 1.6-.1 4.9-.4 6.5-.7.3-.1 1.1-.3 1.3-.5.3-.2.2-.1.3-.3-3.1.2-9.5 1.5-10.4-2.7 2.5.1 7.2 1.2 9.2.2-.3-.2-1.4-.2-1.8-.3-1.7-.2-3.7-.3-5.3-.8-2.1-.6-3.7-1.9-4.1-4.2 2.1.3 7.7 3 9.7 1.8-.5-.3-3-.8-3.8-1-3-.8-7.6-2.6-7.5-6.5 3 1 5.8 4.2 9.8 3.5-.5-.3-2.8-1.1-3.7-1.4-3.1-1.3-7.4-4-6.9-8.3 2.6 1.1 5.7 5.9 10 6.1l-.5-.4c-3.3-2-7.6-4.8-9.4-8.2-.5-1-1.5-3.8-.6-4.9 1.4.8 6.6 8.7 10.1 9.1-1.3-1.5-4.2-3.5-6.6-6.5-1.8-2.3-4-5.5-3.1-9.7.3 0 .7.6.9.9.3.4.5.7.8 1.1 2.6 3.5 5.1 7.5 8.3 10.3 1.7 1.5 2.2 2 4.1 3.3 3.3 2.4 3.8 5.3 4.8 10.1.7 2.9 2.2 8.7 6.1 8.7-2.1-1.2-3.6-3.2-4.5-6-.4-1.3-.7-2.7-1.1-4.2-.3-1.5-.7-2.8-1.1-4.2-1-2.5-1.8-3.7-3.9-5.1-1.5-1-3.6-2.9-4.8-4.1-2.8-2.8-5.8-6.8-7.4-10.5-.6-1.4-1.1-3-1.3-4.7-.1-1.3 0-4.2.6-5.2.6.7 3 7.9 3.7 9.5.9 2.1 3.2 7 5.3 7.9-.5-1.4-6.4-8.4-6.8-18.5-.1-1.9.3-5.9 1.4-7.1.2.3.2.6.3 1.4l.8 4.2c1.1 5.2 2.7 10.4 4.8 15.1 1.9 4.2 3.6 7.1 6.3 10.5.5.6 1 1.1 1.5 1.8.7.8 2.1 3.6 2 4.8zm14.8-8.9c-.8-.7-3.2-.6-4.4-.6l.9 1.2c1.3 1.7 2.9.8 3.5-.6z" style="fill:url(#SVGID_3_);fill-rule:evenodd;clip-rule:evenodd"/><linearGradient id="SVGID_4_" x1="259.98251" x2="260.642" y1="128.6568" y2="170.0648" gradientUnits="userSpaceOnUse"><stop id="stop29" offset="0" style="stop-color:#dcbd73"/><stop id="stop31" offset="1" style="stop-color:#bd9f60"/></linearGradient><path id="path34" d="M261.5 149c2.9-2 2.1-6 3.2-9.8 1.4-5 5.4-8.9 8.4-17.5.8-2.4 2.4-7.6 3.7-9.3l.1.1c.4.6.5 1.4.6 2.1.3 2.4-.1 4.9-.8 7.2-1.8 5.3-4.6 10-7.4 14.6-1 1.6-3.2 5.3-3.7 7.2 4.6-5.3 13.3-23.6 14-24.1 1.2 2.6-.7 8.2-1.8 10.4-1.5 3-3 5.6-4.8 8.1-1.8 2.6-3.6 5-5.5 7.3-1.3 1.6-4.8 5.5-5.4 7.3 1-.5 1.9-1.7 2.7-2.5.9-1 1.6-1.8 2.4-2.8 1.6-1.9 3-3.8 4.5-5.8.9-1.2 7.8-11.3 8.6-12.2.6.9 0 3.8-.3 4.8-1.5 4.9-5.6 9.5-8.8 13.2-1.7 2-7 7.1-7.8 8.7 2-1.1 5.6-5 7.3-6.8l5.5-6.4c.3-.4.7-.8 1-1.2.6-.7 2.5-2.9 3.1-3.3.7 4.3-4.9 10.2-6.6 11.9-2.3 2.3-4.7 4.4-7.1 6.8-.6.6-1.7 1.7-2 2.6.7-.3 1.6-1.2 2.1-1.6 1-.8 2-1.6 3-2.6.3-.3.6-.6 1-.9l1.8-1.8c1.5-1.5 6.1-6.4 7.4-7.2.2 2-1.4 4.6-2.2 5.8-.9 1.2-1.9 2.2-2.9 3.2-1.6 1.7-3.6 3.1-5.3 4.7-1.4 1.2-3 2.4-4 4 1.2-.7 2.2-1.5 3.3-2.3 1.1-.9 2-1.6 3-2.5l3-2.7c.6-.5 2.4-2.2 3.1-2.5 0 4.2-2.8 6.5-5 8.2-2.4 1.8-5.3 3.5-7.1 5.8 1.9-.4 6.5-4.8 9.1-5.8-.3 1.6-1.4 3.5-2.2 4.4-1 1.2-2.3 2-3.5 2.9-5 3.9-4.5 5.9-5.5 7.4-.3-1.9-.4-3.9-.3-6 .1-2.4.6-4 .7-5.5-1 .8-2.5 3.1-3.2 4.5-1.4 2.6-1.6 4.8-2 5.6-.7-3-1.5-5.4-2.7-8-.8-1.7-2.6-5.5-3.9-6.8-.1 1.7.1 3.4 0 5.1-.2 4.1-1.1 8.9-2.6 12.6-.1-4.5-.7-6.6-2.5-10.1-1.5-2.8-3.4-4.9-4.8-7.7-2.3-4.5-2.4-10.5 1.9-13.7 1.5-1.1 2.4-1.3 4.6-1.6-1.5-.8-3.1-.6-4.9-.7-1.4-.1-3.4-1-3.7-1.8 1.3-.1 2.6-.1 3.7-.6 3.3-1.4 1.5-5-4.2-5.1.1-.7 1.8-1.9 2.6-2.4 1.1-.6 2.2-1.1 3.6-1.3 1.6-.3 3-.3 4.7-.3 1.7 0 2.9-.3 4.5-.5-.5 1.3-1.5 1.6-2.1 2.5 3.6 0 3.3-.3 5.3-.4-.4 1.1-1.9 2.1-3.1 2.7 1.2.8 1.9.7 3.3 2.4.8 1 1.5 2.5 1.5 4.2 0 5.1-3.1 6.7-3.7 7.9 1.8-.4 3.8-2.8 4.4-4.8 1.7-5.2-1-7.9 3.1-15.2 1-1.7 2.3-3.5 3.7-4.9l.3-.3c.2 3.9-2.1 8.3-3.3 11.4-2 4.1-.7 6.3-3.1 11.7zm-16.8-13.9c.3.8 1.3 1.9 2.6 1.4.6-.2 1.6-1.5 2-2-1.2 0-3-.1-4.1.4zm23-3.9c3.3-5.6 5.6-11.3 5.8-18 0-1.3-.1-2.4-.3-3.6-.2-.7-.7-2.5-1-3-.5.7-1.7 4.2-2 5.3-1.9 6.7-.8 10.7-1.8 16.4-.2.9-.7 2.2-.7 2.9z" style="fill:url(#SVGID_4_);fill-rule:evenodd;clip-rule:evenodd"/><linearGradient id="SVGID_5_" x1="142.2182" x2="150.5531" y1="109.5073" y2="144.35139" gradientUnits="userSpaceOnUse"><stop id="stop36" offset="0" style="stop-color:#fff"/><stop id="stop38" offset="1" style="stop-color:#b1bac5"/></linearGradient><path id="path41" d="M143.9 114.6c-.1-.6.5-3.1.8-3.6.3.5.8 3.4.6 4v.1l.2 1c0 .4.1.7.1 1.1.1.7.2 1.5.3 2.2.1 1 .6 3.7.6 4.5.1.1 1.3 4.6 1.3 4.8.3.3.7 1.4 1.2 1.9l-.3-1.5c-.4-1.5-.8-3.2-1.1-4.9-.5-2.6-.7-5.7-.6-8.4 0-.3 0-.8.2-1.1-.4-1.6 1.4-6.4 2.4-7v.6c.4.6.2 3 .2 3.9 0 2.7 0 5.2.2 7.9.1.9.4 2.9.3 3.7.1.1 1.1 4.9 1.1 5.2.4.4.6 1.6.8 2.3.3.7.6 1.4.8 2.1-1.2-.2-2.3-1-3.5-1.3.3 2.6 1.8 3.5 2.2 4.1-.6.4-.9.7-1.4 1.2-.6.6-.8.9-1.2 1.3-.4.7-.8 1.2-1.1 2.1-.2.5-.6 2-.7 2.3-.3-.9-.9-1.7-1.4-2.4-.5-.6-1.3-1.5-1.6-2.2-.5-.2-2.5-3.4-2.9-4.1-.7-1.2-1.9-3.5-2.2-5.1-.7-1.5-.5-4.2-.4-5.9.5.4 1.2 2.3 1.5 2.8.3.6 1.2 2.5 1.2 3 .7.7 2.1 5.8 4.5 7.1-.2-.9-2.8-4.6-3.4-6.9-1.3-2.1-2.8-10.6-1-12.3.8 2.9 1.4 6.4 2.3 9.1.2.7.9 2.4.9 2.9.3.3.9 1.9 1.2 2.3.4.7 1 1.6 1.5 2-.3-1.3-1.2-2.5-1.5-3.9-.4-.6-1.4-4.1-1.5-5.1-.8-2-1.3-8.7-.6-9.8z" style="fill:url(#SVGID_5_);fill-rule:evenodd;clip-rule:evenodd"/><path id="path43" d="M240.7 139c.3-.2 1.6-.6 2.1-.8.4-.2.5-.3.9-.1.5.3 1.4 1.5.4 1.7-.8.1-2.7-.3-3.4-.8z" style="fill-rule:evenodd;clip-rule:evenodd;fill:#e12528"/><linearGradient id="SVGID_6_" x1="254.3129" x2="256.90451" y1="195.284" y2="174.0916" gradientUnits="userSpaceOnUse"><stop id="stop45" offset="0" style="stop-color:#ffdc00"/><stop id="stop47" offset="1" style="stop-color:#ed9d3b"/></linearGradient><path id="path50" d="M247.3 170.3c.4.4 1 2.9 1.1 3.6.3 1 .5 5.5 0 6.3.1.6-.1 2.6-.4 3.1.1.7-.2 2-.3 2.8-.1 1.1-.2 2-.2 3-.6-.5-2.4-4.7-2.3-5.8-.2-.2-.2-.3-.2-.7 0-.2-.1-.4-.1-.7-.1-.5-.2-.9-.1-1.4-.5-.8.2-5 .4-6 .2-1.3.5-2.2.6-3.6 0-.9 0-1.7-.1-2.5-.1-.7-.3-1.4-.3-2 .5.8 1.6 2.8 1.9 3.9zm10.6 5.6c.3 1 .7 6.9.3 7.6.1.5-.1 2.3-.4 2.8.1.8-.9 3.3-1.2 4-.5 1-1.4 2.6-2.1 3.1-.8-1.3-1.1-4.6-1-6.4.1-1.2.5-4.6 1-5.5l1.1-4.7c.2-1.3.3-2.5.4-3.9.1-1.4-.1-2.6-.1-3.9.6.9 1.8 5.3 2 6.9zm10.2 2.6.1 2.7c0 1.5.1 4.3-.4 5.4-.5 3.1-3.3 7.1-5.7 8.4.3-.7 1.1-1.5 1.8-3.4.5-1.3.8-2.8.9-4.2 0-.8-.3-4.8-.2-5l-.2-1.2c-.1-1.2-.2-2.6 0-3.7.3-3.1 3.1-6.9 5.3-8-.2.6-.6 1.1-.9 1.8-.8 2.3-.7 4.9-.7 7.2z" style="fill:url(#SVGID_6_);fill-rule:evenodd;clip-rule:evenodd"/><linearGradient id="SVGID_7_" x1="203.2149" x2="203.2149" y1="168.168" y2="209.24271" gradientUnits="userSpaceOnUse"><stop id="stop52" offset="0" style="stop-color:#0084bd"/><stop id="stop54" offset="1" style="stop-color:#4a789b"/></linearGradient><path id="path57" d="M201.6 159.6c.4-.3 1.1-.9 1.5-1.1 1.7 1.1 4.4 3.2 6.2 4.5l4.7 3.5c.5.3 1.1.7 1.5 1.1l-4.7 14.7c-4.8.1-10.2 0-15.1 0-.6 0-.4-.1-.5-.4L193 175c-.4-1.3-.8-2.4-1.2-3.7-.4-1-.9-2.6-1.2-3.7zm-8.9 44.7c-1.8 0-4.1-1.2-5.6-2-3.4-1.9-5.1-3.2-7.8-5.6l-.9-.9c-.7-.7-3-3.2-3.4-4.2h13.5c.3.2.3.3.4.7.6 2.1 3.6 11.1 3.8 12zm20.8 0c.1-.8.7-2.5 1-3.3.3-1 .7-2.1 1-3.1.7-2 1.3-4.4 2.1-6.3h13.7c-.2.5-1.2 1.7-1.6 2.1l-2.8 3c-2.4 2.6-10 7.6-13.4 7.6zm13.1-40.3c.1-.6 2.7-8.6 3.1-9.8.2-.5.8-2.8 1.2-3.1.3.6 1 1.5 1.4 2.1 3.7 5.9 5.3 11.6 5.4 18.9-.6-.3-10.2-7.3-11.1-8.1zm-28-20.3c.3-.3 1.2-.2 2.2-.6 2.3-.8.7-3.6.6-5.9 3-.5 10.2.7 12.8 1.7-.2.4-2.3 1.8-2.7 2.1-1 .7-1.8 1.3-2.8 2l-5.5 4zm-29.7 28.1c-.3-4.2.4-8.3 1.8-11.9.6-1.6 1.3-3.3 2.1-4.7.5-.9 2.1-3.6 2.7-4.1.4.4 1.9 5.5 2.2 6.4.3 1.1 2 5.8 2.1 6.5l-8.1 5.9c-.7.5-2.3 1.7-2.8 1.9z" style="fill:url(#SVGID_7_);fill-rule:evenodd;clip-rule:evenodd"/><linearGradient id="SVGID_8_" x1="252.0679" x2="252.8629" y1="198.6134" y2="173.6572" gradientUnits="userSpaceOnUse"><stop id="stop59" offset="0" style="stop-color:#ffdc00"/><stop id="stop61" offset="1" style="stop-color:#ed9d3b"/></linearGradient><path id="path64" d="M263.7 183c.2 1.3.3 3.9.1 5.2-.1 1.2-.6 3.6-1.3 4.2-.1.6-.8 1.5-1.1 2-.4.6-1 1.3-1.6 1.6-.1.1 0 0-.1.2l-.9.7c-.4.3-.7.6-1.1.8-6.1 3.8-5.2 4.6-6.3 5.4-.3-.4-1-1.9-1.3-2.4-.5-.8-.9-1.5-1.4-2.3-.5-.7-1-1.5-1.5-2.2-.3-.4-1.4-1.6-1.5-2-.4-.3-.9-1.1-1.3-1.5-.4-.6-.8-1-1.1-1.6-.4-.7-1.6-2.7-1.6-3.7l-.2-.4c-.2-.7-.3-2.6-.4-3.2 0-3.1 1.2-7.3 3-9.2-.4 2.5-.7 4.1-.4 6.8.4 3.1 1 3.6 1.7 5.9.2.2 1.2 2.2 1.4 2.6.3.6 1.2 2.1 1.5 2.5 0-2.6-.3-5.6.5-8.1.2-1.8 1-3.9 1.5-5.6.6-1.7 1.2-3.5 1.6-5.3.4-1.6.7-3.1.9-4.8.2-1.8.2-3.5.3-5.3.6.6 1.3 3.3 1.5 4.4.1.9.2 1.8.2 2.8 0 .6.1 2.4-.2 2.9.3.9-.6 4.8-.8 5.9-.2.7-1 5.1-1.3 5.4.1.8-.2 1.7-.2 2.5 0 .9 0 1.7.1 2.6.2 1.9.7 2.9 1.1 4.5l.4.8c.3-.2.4-.3.6-.5l.4-.4h.1c.2-.4.5-.7.8-1.1.3-.4.5-.7.7-1.1.4-.6.8-1.8 1.2-2.3.1-.6.4-1.2.6-1.8.1-.6.3-1.2.4-1.8.2-1.2.4-2.7.4-3.9.1-2.7 0-5.4.6-7.9.5-2.1 1.5-4.4 2.6-5.9 0 3.5-.4 3 .2 7.6.5 2.2 1 4.7 1.2 7z" style="fill:url(#SVGID_8_);fill-rule:evenodd;clip-rule:evenodd"/><linearGradient id="SVGID_9_" x1="203.44749" x2="203.44749" y1="172.5148" y2="222.2464" gradientUnits="userSpaceOnUse"><stop id="stop66" offset="0" style="stop-color:#fff"/><stop id="stop68" offset="1" style="stop-color:#b9c0c9"/></linearGradient><path id="path71" d="M169.4 173.1c.3-.4 1.6-1.2 2.1-1.6.8-.5 1.4-1.1 2.2-1.6 1.6-1.3 3.7-2.7 5.5-4 .3-.2.6-.4.9-.7.5-.4.5-.4 1.1-.2 1.6.5 3.2 1 4.8 1.6 3.8 1.3 3.4.7 3.9 2.3 1 3.1 2.1 6.3 3.1 9.4.3.8.5 1.6.8 2.4.4 1.2.8 1.8.4 2.4l-2.6 3.5c-.1.2-2.2 3.4-2.6 3.6-.2.1.1 0-.2.1-.2.1 0 0-.2 0h-14.2c-1.3-1.7-2.8-5-3.6-7.4-1.8-4.4-1.5-4.8-1.4-9.8zm22.7 14.8-2.3 3c-.2.4 1 3.7 1.1 3.9.4 1.6 2.3 7.1 3 9.2.4 1.1-.1 1 2.6 1.5 2.3.4 13.8.5 15.3-.5l.3-.5c.1-.2.1-.4.2-.6l1.2-3.6c.5-1.5 1.2-3.3 1.5-4.8.3-.9 1.2-3.3 1.4-4.2.1-.5-.6-1.3-.9-1.7-.3-.4-.9-1.4-1.3-1.6-.1-.5-2.9-4-3.2-4.6h-15.8c-.2.3-.5.8-.8 1.1l-2 2.8c-.3.4-.3.3-.3.6zm25.1 2c-.3-.1-.6-.7-.8-1l-2.4-3.3c-2-2.8-2.1-2.3-1.6-3.7l4.2-13c.3-.8.1-.9.8-1.1.5-.2.9-.3 1.5-.5l5.7-1.9c.6-.2 1-.5 1.4-.2l5.5 4c.5.4 4.2 3 4.3 3.2.4.2 1.4.9 1.7 1.2.1 2.7-1 7.1-1.8 9.4-.5 1.3-3 7.1-3.7 7.4h-13.5c-.9.1-1 .3-1.3-.5zm-13.5-41.8v9.1c.1.3 9.7 7.2 11.2 8.3 2 1.4 1 1.2 4.5.1l4.9-1.6c.9-.3.9-.1 1.2-1 .7-2.2 1.4-4.4 2.2-6.5.3-.8 2.1-6.2 2.1-6.6 0-.7-3.5-3.9-4.2-4.5-.7-.6-1.6-1.3-2.5-1.9-.7-.5-.8-.3-1.7-.2-2 .2-3.9.2-6-.3-1.3-.3-1.8-.7-1.7-2.2-.6.3-9.9 7.2-10 7.3zm-27.3 1.6c.1.9 3.6 11.2 4.3 13.5.2.7.2.5.9.7l7.4 2.4c.6.2.7.3 1.2 0 3.3-2.3 7-5.2 10.4-7.6.6-.5 1.3-1 1.9-1.4v-9.2c-.1-.3-4.2-3.2-4.7-3.7-.5-.4-1.1-1-1.8-1-6.8-.1-4.1-2.5-4.6-3.6-.7-1.8-8.6 3.7-9.3 4.2l-1.5 1.2c-.9.8-2.2 2-2.9 2.8-.2.5-1 1.5-1.3 1.7z" style="fill:url(#SVGID_9_);fill-rule:evenodd;clip-rule:evenodd"/><linearGradient id="SVGID_10_" x1="184.7516" x2="153.9642" y1="184.5128" y2="185.9866" gradientUnits="userSpaceOnUse"><stop id="stop73" offset="0" style="stop-color:#c4ccd6"/><stop id="stop75" offset="1" style="stop-color:#b1bac5"/></linearGradient><path id="path78" d="M163.1 190.6c-1.1 1.1-6.3.9-8.1 1.3-1 .2-.9.3-1.7-.2-2.1-1.4-2.7-2.5-3.6-3.2.1-1.7 4-6.7 5.5-8.5l.4-.5c1 .8 2.5 3.3 3.4 4.5 1.1 1.4 2.4 2.9 5.2 2.8 2.3-.4 3.2-2.4 2.2-4.8-.4-1-.9-1.8-.9-3.1 0-1.1.7-2.3 1.7-2.2.2.6.3 1.8.5 2.5.8 3.5 2.3 7.6 4.1 10.6l2.3 3.6c-3.4 1.5-3.4-2.4-4.7-3.7-2.2-2.3-4.9.8-6.3.9z" style="fill:url(#SVGID_10_);fill-rule:evenodd;clip-rule:evenodd"/><linearGradient id="SVGID_11_" x1="253.5137" x2="256.13599" y1="198.7859" y2="186.6404" gradientUnits="userSpaceOnUse"><stop id="stop80" offset="0" style="stop-color:#ffdc00"/><stop id="stop82" offset="1" style="stop-color:#ed9d3b"/></linearGradient><path id="path85" d="m268.1 199.1-4.4.6-3.9.9c-1.1.3-2.3.7-3.5 1-1.1.4-2.2.8-3.3 1.1.4-1.1 4.6-3.9 5.3-4 .3-.4.8-.6 1.2-.8.4-.3.7-.4 1.2-.7.5-.3 1.9-1.3 2.3-1.5l1.6-1.4c.5-.5.9-1 1.4-1.5.1-.3.6-.9.9-1.2 2.5-3.8 2.5-7 2.1-11.4.6.6 1.7 3 2.1 4.1.7 1.7.9 3.1 1.1 5 1.4-.6 2.3-2.1 2.9-2.9l.4 2.3c.1 3.6-.9 6.8-3.8 9-1.1.8-2.1 1-3.6 1.4zm-27.5-11.6c.3.9.5 1.7 1 2.6.4.8 1 1.6 1.3 2.2l1.9 2.4.1.1c.6.6 2.4 3.1 2.8 3.7.6 1 2 3.2 2.4 4.4l-8.9-2.9c-.8-.2-2.4-1-2.9-1.6-.2-.2-.1-.2-.2-.3-.9-.4-2.3-2.6-2.7-4.1-.6-2-.5-3.8 0-5.8.4.7.2 1 1.1 2.1.4.5 1.2 1.1 2.1 1.2-.3-.7-.9-1.4-1-2.2-.5-.5-.7-2.5-.7-3.3 0-1.2.2-2.2.6-3.3.6-1.5 2.3-4 3.4-4.5-.1.7-.4 1.3-.6 2.1-.3 2.7-.2 4.9.3 7.2z" style="fill:url(#SVGID_11_);fill-rule:evenodd;clip-rule:evenodd"/><linearGradient id="SVGID_12_" x1="142.0715" x2="122.8484" y1="205.3775" y2="205.034" gradientUnits="userSpaceOnUse"><stop id="stop87" offset="0" style="stop-color:#d8583e"/><stop id="stop89" offset="1" style="stop-color:#b86952"/></linearGradient><path id="path92" d="M139.2 209.6c-.2.2-.6.2-.9.2-2.5.3-5 .3-7.5-.3-7.5-1.8-7.4-8.9 4.2-9l4.4.4c1.5-.4 12.4 2.8 13.9 3.6-1 1.1-12.2 5.4-14.1 5.1z" style="fill:url(#SVGID_12_);fill-rule:evenodd;clip-rule:evenodd"/><linearGradient id="SVGID_13_" x1="262.37369" x2="280.22089" y1="205.1255" y2="205.3835" gradientUnits="userSpaceOnUse"><stop id="stop94" offset="0" style="stop-color:#d8583e"/><stop id="stop96" offset="1" style="stop-color:#be674e"/></linearGradient><path id="path99" d="M262 201.8c.7-.5 4-.9 5-1 3.2-.4 7.7-.5 10.7.9 1.4.6 2.6 1.4 2.6 3.4s-1.2 2.8-2.5 3.5c-4.2 2.2-10.2 1.6-14.7.2l-.5-.3c-.8 0-4.2-1.4-5.1-1.8-.6-.2-4-1.7-4.5-2h-.1l-.2-.2c1.5-.5 8-2.8 9.3-2.7z" style="fill:url(#SVGID_13_);fill-rule:evenodd;clip-rule:evenodd"/><linearGradient id="SVGID_14_" x1="141.2809" x2="180.8685" y1="218.5966" y2="207.8688" gradientUnits="userSpaceOnUse"><stop id="stop101" offset="0" style="stop-color:#fff"/><stop id="stop103" offset="1" style="stop-color:#b6bcc6"/></linearGradient><path id="path106" d="M164.4 210.7c-.8.2-2.9-.2-3.8-.4l-1.1-.2h-.1c-.7.1-1.9-.2-2.7-.3-2.3-.2-4.8-.2-6.8.8-.5.2-.6.5-1 .7-.2.4-.5.5-.7 1.2-.1.5-.2 1.1-.3 1.6-.2 1.1-.4 2.1-.6 3.2l-1.9 9.6c-.1.6-.2 1.1-.3 1.6-.1.7 0 1.1-.6 1.4-1.7.9-4.5 1.3-6.5.6-2.1-.8-2.3-2.1-3.3-4.3-.8-1.8-1.6-3.5-2.4-5.3-1.2-2.7-3.9-8.4-4.7-10.7 2 .8 2.5 1.2 5 1.5 2 .2 4.1.1 6.1-.2 1.8-.3 3.6-.7 5.3-1.3.7-.2 4.5-1.7 4.7-1.7.1-.1-.1 0 .3-.2l4.8-2.2c.9-.4 4.6-2.2 5.3-2.2.5-.4 2.1-.8 2.7-1 .7-.2 2.3-.8 3-.6l.8-.2c2.3-.3 4.7-.4 7 .1 2 .4 4.7 1.8 4.2 4.2-.8 3.9-8.5 5-11.8 4.6h-.2c-.4-.3-.3-.3-.4-.3z" style="fill:url(#SVGID_14_);fill-rule:evenodd;clip-rule:evenodd"/><linearGradient id="SVGID_15_" x1="256.9808" x2="228.6628" y1="214.8947" y2="203.8974" gradientUnits="userSpaceOnUse"><stop id="stop108" offset="0" style="stop-color:#fff"/><stop id="stop110" offset="1" style="stop-color:#b3bac4"/></linearGradient><path id="path113" d="M235.8 201.6c1.9 0 7 .3 8.9 1.2.3.1.1 0 .3.2.9 0 9.9 3.8 10.3 4.4.3 0 4.3 1.7 5.1 2.1 3.7 1.5 8.3 2.4 12.3 2.2 2.9-.2 3.5-.6 5.7-1.5-.2 1.1-4.1 9.7-4.9 11.4-.9 1.9-1.6 3.7-2.5 5.6-.9 2.1-1.4 3.3-4.5 3.6-1.5.2-4.9-.5-5.2-1.4 0-.1-.1-.3-.1-.4l-1.5-7.8c-.5-2.2-.9-4.5-1.3-6.8-.5-2.7-.5-3.5-3.7-4.5-1.8-.3-3-.3-4.8-.2-.9.1-3.9.7-4.5.6-.3.2-.7.2-1.1.3-2.2.3-6.9.6-8.6-.1-2.6-.4-6.2-2.2-6.4-4.5-.1-1.6 1.1-2.6 2.1-3.1 1.3-.8 2.8-1.1 4.4-1.3z" style="fill:url(#SVGID_15_);fill-rule:evenodd;clip-rule:evenodd"/><linearGradient id="SVGID_16_" x1="240.4874" x2="257.92331" y1="215.0762" y2="216.9904" gradientUnits="userSpaceOnUse"><stop id="stop115" offset="0" style="stop-color:#d8583e"/><stop id="stop117" offset="1" style="stop-color:#c2674e"/></linearGradient><path id="path120" d="m244.3 212.1 3.5-.7c1.3-.2 2.7-.3 4-.3 2.1 0 6.1.8 4 3.3-1.6 1.9-9.7 3.5-13.1 3.8-1.5.3-8.4 1.1-9.9 1.1-.3-.5-2.6-9.3-2.6-9.4 1.8.6 2.3 1.6 6.2 2.2 3.7.6 7.3-.1 7.9 0z" style="fill:url(#SVGID_16_);fill-rule:evenodd;clip-rule:evenodd"/><linearGradient id="SVGID_17_" x1="169.5152" x2="149.26801" y1="214.9395" y2="215.94839" gradientUnits="userSpaceOnUse"><stop id="stop122" offset="0" style="stop-color:#d8583e"/><stop id="stop124" offset="1" style="stop-color:#b86b53"/></linearGradient><path id="path127" d="M164.9 218.6c-3.3-.4-16.2-2.2-15.3-5.6.6-2.3 6.8-1.7 8.6-1.5 1.5.2 3 .5 4.5.7 1.8.2 3.2.2 5 .2 1.4 0 3.1-.3 4.4-.7.7-.2 1.2-.4 1.8-.7.6-.3 1.2-.7 1.7-.9-.2 1.1-2.1 8.9-2.5 9.3-.3.2-3.8-.3-4.2-.3-1.3-.2-2.7-.4-4-.5z" style="fill:url(#SVGID_17_);fill-rule:evenodd;clip-rule:evenodd"/><linearGradient id="SVGID_18_" x1="141.32671" x2="269.22321" y1="229.3495" y2="228.38429" gradientUnits="userSpaceOnUse"><stop id="stop129" offset="0" style="stop-color:#b6bcc6"/><stop id="stop131" offset="0.25" style="stop-color:#fff"/><stop id="stop133" offset="0.73" style="stop-color:#fff"/><stop id="stop135" offset="1" style="stop-color:#b8bfc8"/></linearGradient><path id="path138" d="M148.2 220c-.1-.6.5-3.4.7-4.3.5.2.7.5 1.2.8.4.3 1 .4 1.3.8.5 0 1.7.6 2.4.8.5.1 2.4.5 2.6.7l8.4 1.3h.1c.6-.1 8.3.9 9.7 1.1 3.3.3 6.6.6 9.9.8 13.9.9 27.7.8 41.6-.3 4.9-.4 9.7-.9 14.6-1.6.9-.1 4.2-.7 4.8-.6l4.9-1c.2-.2 2.7-.9 3-.9l1.9-.9c.6-.3 1.4-1 1.7-1.1.3.5 1.5 7.6 1.7 8.8.1.1 1.1 5.6 1.2 6.3.5 2.7.9 4.5-1.6 5.5-.7.5-2.6 1.2-3.6 1.3l-3.8.9-8.2 1.2c-4.8.9-14.6 1.6-19.7 2-18.9 1.4-43.4.6-61.6-2.2l-5.3-.8c-1.3-.1-3.5-.6-4.7-1-.9-.2-2.5-.7-3.1-1.1-1.1-.4-2.6-1.5-2.6-2.9 0-1 .6-3.5.8-4.6.2-1 1.4-8.6 1.7-9z" style="fill:url(#SVGID_18_);fill-rule:evenodd;clip-rule:evenodd"/><path id="path140" d="M158.9 178.8c.5-.8 1.2-1.6 1.8-2.3 1.4-1.8 3-4.1 4.1-6l.3-.6c.2-.5.2-.4.5-.6v5c-1 .7-1.3.7-2 1.6-2.5 3.4.1 6.8.2 8.2-1.3-.2-2.2-1.5-2.8-2.2-.6-.8-1.8-2.4-2.1-3.1zm9.4-48.4c.6-.4 1.2-.7 1.8-1.1.5-.3 1.2-1 1.8-1.1.1.6.4 1.3.7 2 1.3 4.3 2.5 10 8.1 10 1.1 0 1.8-.2 2.7-.5-.4.4-1.7 1.2-2.3 1.6-2.8 2-5.8 4.8-7.8 7.6-1.7 2.3-2.8 3.9-4 6.5l-.3.6c-.1-2.5-.3-4-1.1-6.1-1.1-2.6-2.5-3.9-2.7-4.4.4-.3.7-.6 1.2-.9.9-.6 3.2-1.8 4.1-2.1.2-4.8-.9-8-5.8-9.3l-.1-1zm12.6.3c0 .7-.1 2 .4 2.5.6-.4.7-.8 1.6-.8 1.1-.1 1.4.3 2 .7-.1-1.8-.2-3.5-.5-5.3-.2-1-.8-3.8-1.3-4.3-2 1.7-2.1 1.1-2.1 2.6s-.1 3.1-.1 4.6zm1.9 3.1c-.7.2-.8 1.2-2.1.8-1.4-.4-1.4-2.9-1.3-4.5.1-1.9.2-3.7.2-5.7.2-.3 1.7-1.3 2-1.6.5-.4 1.6-1.5 2-1.7 3.2 6.2 2.7 11.8 2.4 18.6-10.8 5.9-17.9 16.4-19 28.7-.1 1.1-.1 2.1-.1 3.2 0 1 .2 2.5.1 3.4-1.1.5-1.6.5-2.3 1.3-1.3 1.7-.9 3.9-.1 5.7 1.8 4.1-1.7 4.3-4.4 1-1-1.2-2.3-2.9-3.1-4.3.2-.4.9-1.2 1.2-1.7 1.3-1.7 2.6-3.3 3.8-5.2 3.3-5 6.1-12.1 5.2-18.5-.7-5-3.7-7.1-4.1-7.9.3-.5 1.1-1.4 1.6-1.7.6-.5 1.3-.8 2-1.3-.7-.3-1.3-.2-2-.7-.6-.4-1-1.3-.2-1.8 1.5-.9 3.4.4 4.5.8.2-6.2-5.1-6.2-5.5-6.5-.3-.5-.2-1.1-.4-1.7-1-.1-3 .1-4.2.1-1.5 0-2.8-.1-4.2-.3-2-3.6-2.8-8.7-3.1-13.4-.3-4.6-.2-9.3-.5-13.9l-.1-1.5v-.2l-.1-.3c-1.2.7-4.2 4.3-4.7 6.4v-.1l-.1-.2c-.2-.7-.2-1.7-.5-2.4l-.1-.2c-1.9 1.7-2.8 4.9-3.2 8.3-.3-.6-.5-1.4-.9-1.9-.5.6-1.3 2.5-1.6 3.4-.4 1.4-.7 2.8-.7 4.3l-.5-.7c-.1-.2-.2-.4-.4-.6-.4.7-.8 2-.9 2.9-.5-.6-1.4-3.6-1.6-4.3-.9-3.1-1.7-6.2-2.3-9.5-.3-1.7-.4-3.6-.8-5.2-1.1 1.1-2 2.7-2.7 4.4-.9 2.2-1 3.6-1.1 6.2-.4-.5-.5-1.1-1-1.5-1.9 3.9-2.3 6.1-1.9 10.6.1.8-.5 1.1-.7 1.9-.5 1.4-.6 3.1-.3 4.6.2 1.1.5.9.1 1.9-.3.7-.5 1.3-.6 2.1-.2 1.5 0 3.2.6 4.4.4.8-.4 2.3.1 4.4.2 1.2 1.1 2.3 1 2.8-.1.4-.2.7-.2 1.1-.3 2.9 1.5 3.7 1.5 4.8.1 2.2-.2 2.9 1.5 4.9.3.4.5 2.4 1.4 3.8.5.7.7.6 1 1.7.5 2 1.4 2.2 2.2 3 .2.2.2.5.4.8.2.3.3.5.5.8.4.5.8.8 1.4 1.2.6.4 1.1.4 1.5 1 1.1 1.9 2.9 2.5 5.2 2.6-.3 1.6-7 11.7-8.3 13.6-1.5 2.2-3.1 4.3-4.6 6.4-.8 1.1-1.6 2.1-2.4 3.1-.5.7-2.1 2.4-2.5 3.1.6-.1 1.4-.4 2-.6 5.2-1.4 11-1.7 16.3-.5l.6.2c.4.8 0 3-.2 3.7-3-.4-5.2-.9-8.5-.8-3.5.1-8.3.7-9.8 4-1.2 2.5.2 4.8 1.2 7 2.9 6.3 5.6 12.8 8.6 19.2 1.4 3.1 5.1 3.7 8.2 3 .5-.1 1.4-.5 1.8-.5-.4 2.6-.9 4.3 2.3 6 1.9 1.1 4.4 1.7 6.8 2.2 13.5 2.9 35.9 4.2 49.6 4.2 14.3 0 35.5-1.3 49.6-4.2 2.3-.5 5-1.2 6.8-2.2 1-.5 1.8-1.2 2.3-2.2.7-1.4.2-2.5 0-3.9 2.4.6 4.1 1.2 6.8.4 2.4-.8 2.8-1.9 3.8-4.1l7.3-16.5c.6-1.4 2.1-4.2 2.3-5.7.6-3.9-2.8-5.6-5.7-6.3-1.3-.3-2.3-.3-3.5-.5 1.2-1.3 1.5-1.1 2.6-3 .7-1.2 1.2-2.6 1.5-4.2.4-2.5.1-5.1-.5-7.6-.1-.6-.3-1.6-.7-2.1-.5 1.2-1.7 3.1-2.5 3.8l-.2-.4c-.9-3.1-2.4-5.3-2.9-7.5-.8-3.5 0-6.7 1.8-8.8.9-1 1.7-1.7 2.6-3 .7-1.1 1.4-2.3 1.8-3.8.2-.6.2-1.8.5-2.3.6-1.1 2-1.7 2.6-5.9.1-.9.1-1.7.2-2.6.1-1.1 1.9-2.6 1.9-6.5 0-.7-.3-2.1-.2-2.5.2-2 1.6-2.8.1-7.2-.4-1.1 2-4.8-.1-9.3-.3-.6.1-1.6.2-2.3.1-.9.1-1.9.1-2.8-.1-1.3-.3-2.5-.6-3.7l-.3-1v-.1c-.4.3-.9.8-1.3 1.2-.2-1.8 0-3-.5-4.8-.3-1.1-1.2-2.9-1.8-3.5-.5.4-1.5 1.8-1.8 2.5-.3-1.9-.3-3.1-.9-4.9-.4-1.3-1.3-3.1-2.1-3.8-.2.1-.1 0-.2.2-.5.6-.8 1.3-1.1 1.9-2.6 5.4-3.5 11.4-3.6 17.4 0 .5.1 1.2-.1 1.6-.2.3-.8.7-1.1.8 0-1.2-.4-4.5-1.1-5.1-.4.2-.7.6-1.1.9-.1-2.8-.5-6-2-7.9l-.3.3c-.1.1-.1.2-.3.4-.1.3-.3.6-.5.9-.1-.2-.5-2.4-1.3-4-.5-.9-1.7-2.6-2.4-2.9l-.8 2.1c-1.1-1.7-1.4-2.4-2.8-4-.7-.9-1.8-1.7-2.8-2.3-.3-.2-.8-.4-1-.6l1.1 6.6c.3 2.4.5 4.8.6 7.2.2 4.8-.3 9.7-1.6 14-3.2.4-5.1.2-8.1 1.8-1.6.9-4.5 3.2-4.9 5 .9.1 2.8-.1 3.5.3l-2.1.9c.5.6 1.6 1.2 2.4 1.6-.5.3-2.4.4-3.1.4.3 1.1 1.3 2.5 1.9 3 .4.3.9.7 1.4 1 .6.3 1.5.4 1.8.7-2.3 2.4-3.5 4.2-3.7 7.9-.3 7.4 6.4 11.4 4.5 18.2-.7 2.6-3.3 5.8-4.8 6.8.1-2.1.5-2.8.5-5.8.2-8.9-3-17.4-8.5-24-.5-.6-1-1.1-1.5-1.6l-1.6-1.6c-.8-.8-1.7-1.5-2.6-2.2-.3-.2-.7-.4-.9-.7-.2-4.6-1-7.9 0-12.6.4-1.9.9-3.5 1.6-5.1.5-1.1 2-3.6 2.7-4.1.7.8.9 2.8.8 4.1-.2 2.6-2.5 5.8-1.2 8.3.6 1 1.8 1.9 3.4 1.1-.2-1.8-.6-2.2-.6-4.6-.1-5.3 1.6-9 .7-14.9-.4-2.9-1.5-5.8-2.9-7.8-1.6-2.3-3-3.4-5.9-4.9-.2-2.5 0-5.3 0-7.8 0-.8-.3-1.4-.5-2.1-.4-1.2-1.1-2.8-1.1-4.1 0-2.6-.3-14.6.2-15.5.6-1.2 1.5-2.3 1.5-3.8v-5.3h-39.5v4.7c0 1.9.3 2 1.1 3.7.8 1.6.5 2 .5 4.3v11.9c0 1.9-1.2 3.8-1.6 5.6-.2 1.1 0 3.4-.1 4.7-2.6 0-5.2-2.5-10.2 1.5-2.2 1.7-1.5 7.7-2.3 10.9-.4 1.8-.9 3.4-1.1 5.4-.5 4.7.7 4.4-.7 5.5-1.3 1-2.4 1.9-3.8 2.8l-3 1.9c-1 .6-.7.8-.6.9.3 1 6.2-2.3 7-2.8.7-.4 1.3-1 2-1.4.3.3.5.8.6 1.2-.6.8-3.4 2.9-4.2 3.5l-3.4 2.4c-.5.3-.9.5-.6 1.3.8 1.2 7.4-3.3 8.4-4 .4-.3.6-.6 1.2-.8.2.6.6 1.3.9 2.1.3.7.5 1.4.7 2.2 1.2 4.1 2.8 10.2 8.9 8 3.5-1.2 1.6-2.4 1.4-3-1.1-.7-1.1-1.8-2.2-1.5zm15.8 111.7h9.2c.5-.2 7-.2 8.2-.3 7.8-.4 15.8-1 23.5-1.9 4.8-.6 10-1.2 14.6-2.3 4.4-1.1 9.4-2.5 9.4-7.4 2.6.2 4.5.4 6.7-.8 2-1.1 2.4-2.2 3.5-4.5 1.6-3.7 3.2-7.3 4.9-11 .9-1.9 4.5-9.7 4.8-11.1.5-2.5-.8-4.8-2-5.8-1.6-1.4-3-1.8-5.5-2.4.2-.4.8-1.3 1.2-1.9.3-.6.7-1.4.9-2.2 1.6-5.4-.2-10.6-2-15.6-.4.4-.9 1.8-1.1 2.4l-.8 1.8c0 .1-.1.2-.2.3l-.2.2c-.7-1.3-1.2-2.5-1.7-3.8-1.1-2.6-1-6.6.8-8.8.5-.5.9-.9 1.3-1.4 1.7-2 3.3-4.4 3.7-7.2.2-1.3.3-.9.9-1.8 1.2-1.7 1.8-4.1 2-6.2.1-.8-.1-1.7.3-2.4.7-1.1 1.3-2.5 1.5-4 .1-.9.2-1.8.1-2.7 0-1.1-.3-1.5 0-2.5 1.3-4.3-.2-6.1 0-7.2.1-.6.4-1.5.5-2.2.8-4.9-.5-5.7-.7-7.1-.1-1.2.8-3.1-.1-7.5-.3-1.5-.9-2.8-1.2-4.2-.4.2-.4.4-.8.5-.2-2.7-1.7-5.7-3.5-7.5-.3.4-.5.7-.9 1.1v-.1l-.2-.5c-.6-2.3-1.7-4.2-3.2-5.9-.2-.3-.4-.5-.7-.7-.6.7-1.8 2.7-2.3 3.7-2.3 4.4-3.1 9-3.6 14l-.3-.6-.6.1c-.4-2.6-1.5-5.6-3.1-7.5l-.3.3-.2.2c-.2.2.1 0-.2.2-.4-1.3-1.2-2.4-2-3.3-.7-.8-1.8-2-2.7-2.5-.2.3-.2.3-.3.7l-.4.6c-1.4-2.4-5.7-5.4-8.2-6.2.3 2.1 1 4.6 1.4 6.9.4 2.4.7 4.8.9 7.3.2 2.6.2 5.3 0 7.9-.1 1.5-.7 5.8-1.2 6.9-5.7.5-9.4 2.3-11.9 5.7-1.9 2.7-2 2.6-.6 6.1.7 1.9 2.4 4.1 4 4.7-.1.5-.6 1.1-.9 1.5-.9 1.6-1.4 3.4-1.6 5.4-.2 2.9.4 5.4 1.5 7.6 1.6 3.2 4 6.8 3 10.6-.2.6-.4 1.1-.6 1.6-.3.5-.5 1.1-.9 1.4.1-5.9-.4-10-2.2-15.1-2-5.6-6-11.7-10.5-15.4-.5-.4-2.1-1.6-2.4-1.9-.2-.3-.4-3.1-.4-3.8-.3-2.7-.2-5.4.3-8 .4-1.8 1.4-5.1 2.4-6.2.2 3.1-2.4 5.7-1.3 9 .4 1.2 1.4 2.3 2.6 2.7 1.8.6 3-.2 4.1-.9-.1-.7-.4-1.4-.6-2.2-.5-2.6-.3-5.2.1-7.8 1.3-8 .8-15.8-5.3-21.5-3.9-3.7-3.2.4-3.2-7.7 0-2.6 0-2.1-.8-4.5-.2-.7-.5-1.4-.7-2-.4-1.1-.2-6.2-.2-7.6 0-2.4-.1-5.6 0-7.9.1-1.3 1.4-2.5 1.6-3.7.1-.8 0-7 0-7.8h-42.3c-.1 1.5 0 3.2 0 4.7 0 3.4-.2 2.8 1.3 5.7.5.9.3 1 .3 2.1 0 2.6.2 12.8-.1 14.1-1.1 4-1.6 3.3-1.5 7.9-1.2-.3-1.7-.7-3.2-.6-2.7 0-6.2 1.6-7.5 3.7-1 1.6-1.1 4-1.3 6.2-.1 2.5-.4 3.9-1 6.3-2.4 9.8 1.7 6.7-3.9 10.5-.9.6-4 2.3-4.5 2.9-.7.7-.7 2 0 2.6 1 .8 1.7.3 2.8.1-2.2 1.2-1.9 2-1.8 3.4-1.2.1-5 .2-5.8-.2-.8-.8-1.8-5.2-2.1-6.7-1.2-6.7-.6-16.5-1.5-24.3-.4.1-1.2 1-1.5 1.3-.9.9-1.9 1.6-2.7 2.6-.4.5-.7 1-1.2 1.4l-.4-1.9c-.4.3-2.3 2.4-2.7 3-.7.9-1.5 2.4-1.9 3.8-.3-.1-.1-.1-.4-.3-.4.9-1.2 2-1.7 3s-1 2.2-1.3 3.3c-.2.1-.2 0-.3 0-.2.5-.4 1.2-.8 1.5-1.7-5.8-2.7-11-3.3-16.9 0-.1 0-.4-.1-.5l-.2-.5c-.9 1.8-3.3 3-5.1 7.7-.7 1.7-.1 1.1-.9 2.2-.3.5-.8 1.5-1.1 2.1-1.7 3.4-2.4 6.7-2 10.6.1.7-1.1 2.3-1.2 5 0 1.2.2 1.9.3 2.9.1 1.2-1.5 3.1-.4 6.8.1.3.3.9.4 1.1.2 1.4-.7 2.8.4 5.6.7 1.7.4.7.3 2.5-.1 2.9 1.4 3.6 1.5 4.8.1 1.1 0 1.7.3 2.8.2.8.6 1.5 1 2.1.7.9.5 1.2.8 2.3.5 1.5 1.5 2.4 1.7 3.2.9 2.9 2 2.8 2.5 3.8.6 1.1 1.1 1.8 2.1 2.6.4.3.6.4 1 .6.5.3.4.3.7.8.7 1 2.2 2.1 3.9 2.5-.6 2-8.2 13.1-9.4 14.7-1.7 2.4-3.4 4.6-5.2 6.8-.7.8-5 5.9-5.4 6.6.8-.2 1.8-.6 2.5-.9l2.4-.9c1.7-.6 3.4-1 5.2-1.3 4.8-.8 7.4-.5 12 .2l-.1 1c-5.1-.5-11.8-1.3-16.2 1.7-1.6 1.1-3.4 3.5-2.7 6.5.4 1.6 8.2 18.8 8.7 19.8 1.8 4 2.5 6.7 6.9 7.5 1.8.3 2.6 0 4.2 0 .1 2.9 1.4 4.2 3.3 5.2 7.1 4.1 35 6 44.5 6.4 1.2-.1 7.6-.1 8.1.1z" class="st20"/><path id="path142" d="M144.4 45.9c-2-.4-3.4-1.2-6.4-.5-2.2.6-3 1.6-3.9 3.5-1.5 3.4-3 6.8-4.6 10.3-1.5 3.5-3 6.8-4.5 10.3-1.4 3.1-1.1 5.6 1.7 7.7.8.6 1.5.8 2.4 1.4-.4 1.2-2.9 6.4-3.6 8.1-.7 1.6-.1 3.4.8 4.4.9 1 2.1 1.7 3.7 2.3 6.6 2.3 14.2.7 20.6-.8l-.6-4.9c2.1.3 3.5.6 5.8.3 9.2-1 6.4-6.9 5.9-11.5.6.1 2.7.6 4.2.8 1.6.2 3.2.3 4.8.1 4.7-.4 8.7-2.6 7.4-7.4-.4-1.3-3.3-11.6-3.3-12.1 11.7-1.6 30.6-1.6 42.6-1 4.7.2 9.2.8 13.8 1 0 .6-2.7 10.1-3.3 12-.4 1.5-.4 3 .3 4.2 2 3.4 7.7 3.7 11.7 3.2 1.6-.2 2.9-.6 4.4-.9-.3 4.2-3.6 10.4 5.8 11.5 3.3.4 3.7-.2 5.8-.3l-.6 4.9c3.4.5 5 1.4 10 1.8 3.5.3 7.4.1 10.5-.9 1.7-.5 2.7-1.2 3.7-2.2 2.6-2.6.5-5.7-.8-8.6-.4-.9-1.6-3.5-1.8-4.2 1.6-.4 3.5-2.1 4.2-3.3 1.2-2.1.8-3.7-.1-5.8L272.1 49c-.9-2-1.6-3-3.8-3.6-3.1-.8-4.4 0-6.5.4.1-2 1.4-3.9-2.4-6.1-4.5-2.6-17.2-3.9-22.4-4.5-21.9-2.5-46.1-2.5-68 0-5.4.6-17.8 1.9-22.3 4.5-3.6 2.1-2.5 4.1-2.3 6.2z" class="st0"/><linearGradient id="SVGID_19_" x1="117.4511" x2="280.09329" y1="48.3022" y2="48.3022" gradientUnits="userSpaceOnUse"><stop id="stop144" offset="0" style="stop-color:#bdc4cc"/><stop id="stop146" offset="0.38" style="stop-color:#fff"/><stop id="stop148" offset="0.65" style="stop-color:#fff"/><stop id="stop150" offset="1" style="stop-color:#bbc2ca"/></linearGradient><path id="path153" d="m257.5 58.4-.5 2.9c-.1.4.2-.4-.1.2l-.1.1c-1.6-1.2-1.8-1.2-3.7-1.9l-3.1-1c-.6 0-3.4-.6-4.3-.8-3-.5-6.1-.9-9.1-1.3-21.3-2.5-42.6-2.7-64-.4-3.6.4-7.1.9-10.6 1.3-.5.1-.9.1-1.3.2-.9.1-1.8.3-2.7.4-4.6.8-5.4 1.1-9.2 3.3-.2-.4-.7-3-.6-3.5l-.1-.3c0-.1 0-.2-.1-.3-.5-2.3-2.5-13.4-2.5-14 0-1.4 1.7-2.7 2.9-2.9.6-.5 4.6-1.5 5.8-1.7 3.5-.5 7-1.2 10.6-1.6 6.7-.7 13.1-1.4 19.9-1.8 13.9-.9 28.5-.7 42.4.4 4.9.4 9.9.9 14.7 1.5.8.1 4.2.5 4.6.7l5.1.8c1.3.2 5 1.2 5.8 1.7 1.3.4 3 1.6 2.9 3.1-.1 1.2-.7 3.6-.9 5-.1 1.4-1.5 9.6-1.8 9.9z" style="fill:url(#SVGID_19_);fill-rule:evenodd;clip-rule:evenodd"/><linearGradient id="SVGID_20_" x1="173.9511" x2="149.9926" y1="62.791901" y2="65.110703" gradientUnits="userSpaceOnUse"><stop id="stop155" offset="0" style="stop-color:#d8583e"/><stop id="stop157" offset="1" style="stop-color:#b86b53"/></linearGradient><path id="path160" d="M157.3 60.2c1.9-.6 5.4-1 7.6-1.3 2.6-.4 5.5-.7 8.2-.9l2.5 9.4c-.6-.3-1.1-.7-1.8-.9-5.3-2.3-11.1-1.4-16.5-.4-2.2.4-8.4.2-7.8-2.3.5-1.7 5.5-3.2 7.8-3.6z" style="fill:url(#SVGID_20_);fill-rule:evenodd;clip-rule:evenodd"/><linearGradient id="SVGID_21_" x1="232.00481" x2="256.27081" y1="62.7868" y2="63.944698" gradientUnits="userSpaceOnUse"><stop id="stop162" offset="0" style="stop-color:#d8583e"/><stop id="stop164" offset="1" style="stop-color:#b96a52"/></linearGradient><path id="path167" d="M247.9 66c-1.6.2-7.9-2-14.1-.1-1.5.5-2.3 1-3.5 1.6l2.5-9.4c2.5-.1 14 1.6 15.9 2.2 2.3.3 7.4 1.9 7.7 3.7.3 1.5-1.9 2.1-3.3 2.3-.9 0-4.6.1-5.2-.3z" style="fill:url(#SVGID_21_);fill-rule:evenodd;clip-rule:evenodd"/><linearGradient id="SVGID_22_" x1="134.244" x2="182.7608" y1="56.912701" y2="71.222198" gradientUnits="userSpaceOnUse"><stop id="stop169" offset="0" style="stop-color:#fff"/><stop id="stop171" offset="1" style="stop-color:#b4bcc5"/></linearGradient><path id="path174" d="M149.8 67c.4.2.8.3 1.2.4 1.8.5 4.1.4 5.9.2 2.2-.3 4.4-.7 6.7-.9 1.4-.1 2.7-.1 4.1-.1 2 .1 4.1.6 5.7 1.4 1.3.7 3.2 1.9 3.2 3.6.1 4.2-8.6 4.5-9.5 4-1.5.2-7.4-1.4-7.5-1.7l-.1-.1c-.7 0-4.8-1.9-5.6-2.3l-2.7-1.2c-1.6-.8-3.3-1.5-5-2.2-4.3-1.7-9.1-2.9-13.8-2.4-1 .1-1.9.3-2.8.5-.9.3-1.5.6-2.3.9l7.1-16.1c1-2.2 1.1-3.5 3.4-4.3 1.9-.6 5-.2 6.4.7.4.3.7 2.4.8 3.1.2 1.1.4 2.1.6 3.2.4 2.2.8 4.3 1.3 6.5l.6 3.3c.5 2 .7 2.8 2.3 3.5z" style="fill:url(#SVGID_22_);fill-rule:evenodd;clip-rule:evenodd"/><linearGradient id="SVGID_23_" x1="269.53329" x2="233.8968" y1="57.668499" y2="75.385803" gradientUnits="userSpaceOnUse"><stop id="stop176" offset="0" style="stop-color:#fff"/><stop id="stop178" offset="1" style="stop-color:#b9c0c9"/></linearGradient><path id="path181" d="m257.4 69-2.4 1.2c-.8.3-1.5.7-2.3 1.1-.8.4-4.2 2-4.8 2l-.3.2c-.9.5-4.6 1.5-5.5 1.7-2.4.5-4.5.7-7 .5-1.8-.2-3.4-.7-4.5-1.5-1-.8-2-2.3-1-3.9 1.2-2 5-3.4 8.3-3.6 1.9-.1 4 0 5.9.2.9.1 1.8.3 2.7.4 1.5.2 3.4.5 4.9.5 4.4 0 4.6-1.1 5.7-1.5.4-1 .5 0 1-2.8l2.5-12.9c.2-1.1.3-2.6.9-2.9 1.7-.9 4.3-1.4 6.3-.6 2.3.8 2.4 2.2 3.4 4.3.8 1.8 1.6 3.6 2.4 5.3l4.7 10.7c-.8-.3-1.3-.7-2.3-.9-4.2-1.3-9.9-.5-13.9.9-.7.1-4.4 1.6-4.7 1.6z" style="fill:url(#SVGID_23_);fill-rule:evenodd;clip-rule:evenodd"/><linearGradient id="SVGID_24_" x1="255.29761" x2="283.06561" y1="74.0289" y2="71.804199" gradientUnits="userSpaceOnUse"><stop id="stop183" offset="0" style="stop-color:#d8583e"/><stop id="stop185" offset="1" style="stop-color:#b96a52"/></linearGradient><path id="path188" d="M260.3 77.1c-1.8-.3-3.6-.5-5.5-.5-1.8 0-3.8.1-5.4.7-2.5.8-3.3 1.8-3.9 2l.6-3.4c.7-.3 1.8-.7 2.6-1 6.8-2.6 13-6.7 20.3-7.3.8-.1 1.6-.1 2.4-.1 3.4.1 10 1.3 8.9 5.8-.9 3.8-6.5 4.8-10 4.8-3.3.1-6.7-.5-10-1z" style="fill:url(#SVGID_24_);fill-rule:evenodd;clip-rule:evenodd"/><linearGradient id="SVGID_25_" x1="152.53799" x2="125.6535" y1="73.291603" y2="73.010399" gradientUnits="userSpaceOnUse"><stop id="stop190" offset="0" style="stop-color:#d8583e"/><stop id="stop192" offset="1" style="stop-color:#b96a52"/></linearGradient><path id="path195" d="M151.3 72.3c2.8 1.4 5.6 2.5 8.6 3.7l.3 3.1c-.5-.2-1.1-.6-1.7-.9-2-.9-4.1-1.3-6.3-1.4-1.7-.1-3.3 0-5 .2-3.2.4-6.5.8-9.7 1.2-1.8.1-3.6 0-5.4-.4-8.6-1.6-9-8.9.2-10.1 3-.4 6.2-.1 9.1.7 3.4.9 6.8 2.3 9.9 3.9z" style="fill:url(#SVGID_25_);fill-rule:evenodd;clip-rule:evenodd"/><linearGradient id="SVGID_26_" x1="138.48531" x2="166.95799" y1="80.647499" y2="83.844498" gradientUnits="userSpaceOnUse"><stop id="stop197" offset="0" style="stop-color:#fff"/><stop id="stop199" offset="1" style="stop-color:#bfc6ce"/></linearGradient><path id="path202" d="M137.2 79.7c6.5-.5 11-2.1 17.7-1.3 1.6.4 2.9.8 4.1 1.6.8.6 2.4 1.8 1.8 3.6-1 2.8-7.5 3.1-8.1 2.7-.8.1-3.3-.3-3.8-.8-.6 0-3.1-1-3.9-1.3-2.4-.8-4.3-1.5-6.9-1.7-1.1-.1-2.2-.1-3.4-.1-1.1 0-2.3.2-3.3.4-1.1.2-2 .7-2.9.9l2.1-4.7c.9.1 2.1.5 3.2.6 1 .1 2.3.1 3.4.1z" style="fill:url(#SVGID_26_);fill-rule:evenodd;clip-rule:evenodd"/><linearGradient id="SVGID_27_" x1="269.50601" x2="241.3765" y1="80.151703" y2="84.6418" gradientUnits="userSpaceOnUse"><stop id="stop204" offset="0" style="stop-color:#fff"/><stop id="stop206" offset="1" style="stop-color:#bfc6ce"/></linearGradient><path id="path209" d="m257.7 85.2-3.7 1c-1.2.2-2.8.2-4 0-2.3-.2-5.3-1.5-4.9-3.9.3-1.8 3-3.4 5-3.7 1.2-.6 4.8-.5 6.4-.5l.8.2c.9-.2 5.9.7 7.1.9 2 .3 3.6.4 5.6.4 3 0 3.4-.5 5.4-.7l2 4.7c-1.5-.8-4.2-1.3-6.1-1.3-1.1 0-2.1 0-3.2.1-2.8.3-10.1 2.9-10.4 2.8z" style="fill:url(#SVGID_27_);fill-rule:evenodd;clip-rule:evenodd"/><linearGradient id="SVGID_28_" x1="257.42719" x2="282.2045" y1="88.676697" y2="88.022102" gradientUnits="userSpaceOnUse"><stop id="stop211" offset="0" style="stop-color:#d8583e"/><stop id="stop213" offset="1" style="stop-color:#be684f"/></linearGradient><path id="path216" d="M269.9 92.7c-2.4.1-4.5 0-6.7-.3-1.3-.2-5-.7-6.1-1.2l.5-4.1c1.7-.7 3.4-1.3 5.1-1.9 1.8-.6 3.7-1 5.7-1.2 2-.2 4.7.1 6.5.6 5.5 1.6 5.3 5.1.9 6.9-1.7.7-3.8 1.1-5.9 1.2z" style="fill:url(#SVGID_28_);fill-rule:evenodd;clip-rule:evenodd"/><linearGradient id="SVGID_29_" x1="142.6525" x2="121.4849" y1="88.055397" y2="89.378403" gradientUnits="userSpaceOnUse"><stop id="stop218" offset="0" style="stop-color:#d8583e"/><stop id="stop220" offset="1" style="stop-color:#bb6950"/></linearGradient><path id="path223" d="M133.7 84.1c4.9-.4 7.2.2 11.5 1.8.6.2 1.1.4 1.7.6l1.4.6c.3.2.7 3.8.6 4.2-2.7 1-11.7 2.1-14.5 1.3-3-.3-6.8-1.6-7.4-3.9-.8-3 3.9-4.3 6.7-4.6z" style="fill:url(#SVGID_29_);fill-rule:evenodd;clip-rule:evenodd"/><path id="path225" d="M144.4 45.9c-.2-2-1.3-4 2.3-6 4.6-2.6 16.9-3.9 22.3-4.5 21.9-2.5 46.1-2.5 68 0 5.2.6 18 1.9 22.4 4.5 3.8 2.2 2.5 4.1 2.4 6.1 2-.4 3.4-1.2 6.5-.4 2.2.6 3 1.6 3.8 3.6l9.1 20.5c.9 2 1.3 3.7.1 5.8-.7 1.1-2.5 2.9-4.2 3.3.1.7 1.4 3.3 1.8 4.2 1.3 2.9 3.4 6 .8 8.6-1 1-2.1 1.6-3.7 2.2-3.2 1-7 1.2-10.5.9-4.9-.4-6.5-1.3-10-1.8l.6-4.9c-2.1.1-2.6.7-5.8.3-9.4-1.1-6.1-7.3-5.8-11.5-1.4.2-2.8.7-4.4.9-4 .5-9.6.2-11.7-3.2-.7-1.2-.7-2.7-.3-4.2.6-1.9 3.3-11.4 3.3-12-4.6-.3-9.1-.8-13.8-1-12-.5-30.9-.5-42.6 1 0 .5 2.9 10.8 3.3 12.1 1.3 4.8-2.7 7-7.4 7.4-1.6.2-3.2.1-4.8-.1-1.5-.2-3.7-.8-4.2-.8.5 4.7 3.3 10.5-5.9 11.5-2.3.2-3.7 0-5.8-.3l.6 4.9c-6.4 1.5-14 3.1-20.6.8-1.6-.6-2.9-1.3-3.7-2.3-.9-1.1-1.5-2.8-.8-4.4.7-1.8 3.2-6.9 3.6-8.1-.9-.5-1.6-.7-2.4-1.4-2.8-2.1-3.1-4.6-1.7-7.7 1.6-3.5 3-6.8 4.5-10.3 1.5-3.5 3.1-6.9 4.6-10.3.8-1.9 1.7-2.9 3.9-3.5 2.8-1.2 4.2-.4 6.2.1zm63.8-14h-10.4c-.5.2-6.9.3-8.1.3-10.3.4-28.2 2-37.7 4.2-2.1.5-4.4 1.2-6.2 2.2-2.5 1.5-3 2.7-3.2 5.2-2.2-.3-4.6-.2-6.4.6-1.9.9-2.5 2-3.5 4-3 6.6-6.4 14.2-9.2 20.8-.9 2.1-1.1 3.9 0 6 .8 1.6 2.2 3 3.8 3.8l-1.9 4.4c-.6 1.4-1.6 3.1-1.5 4.9.4 7.5 12.3 7.8 17.8 7.3 4.9-.5 6.6-1.3 10.6-2.1l-.5-4.3c4.6.4 11.4-.3 12.2-5.6.3-1.8-.4-3.7-.5-5.5 3.3.4 5.5 1 8.9.3 2.9-.5 5.2-1.7 6.5-3.6 1.8-2.6.7-5.2-.1-8.1l-2.2-7.9c8.4-.9 17.7-1.2 26.3-1.2 9 0 17.6.5 26.5 1.2-.1.9-1.8 6.6-2.2 7.9-.8 2.8-1.8 5.4-.1 8 2.2 3.3 7 4.1 11.1 3.8 1.6-.1 2.9-.4 4.4-.6-.2 3.1-1.8 6.5 1.8 9.2 2.8 2.1 6 2 9.9 1.9l-.5 4.2.6.2c6.8 1.8 14.8 3.1 21.5 1.1 3.1-.9 6.1-2.8 6.3-6.3.1-1.9-.8-3.4-1.4-4.9l-1.9-4.4c.7-.7 2.5-1.2 3.8-3.7 1-2 1-4 .1-6-1.6-3.5-3.1-6.9-4.7-10.5-1.6-3.6-3.1-6.9-4.7-10.5-.9-2-1.5-3.2-3.5-4.1-2.9-1.4-4.6-.6-6.5-.7.1-4.9-5.1-6.4-9.4-7.4-8.7-2.1-28.2-3.9-37.8-4.2-.9.4-7.5.3-8 .1z" class="st20"/><path id="path227" d="M150.4 193.4c.7.3 2.7 2.1 3.6 1.9.6-.1 1.5-.4 2.3-.6 2.3-.3 4.6-.1 7.3-1 1.7-.6 3.1-1.6 3.8-1.8.4.6.6 1.5.9 2.2 2 3.4 6.1 2.1 6.5 2.2.4.2 8.1 10.6 23.7 12.5 7.4.9 14.5-.4 20.4-3.1 5.5-2.5 8.4-5 12.2-9l1.4-1.5c.2.3.5 1.4.8 1.8.3.5.8 1.3.9 1.6-.3.1-1.1.2-1.5.4-3.2.9-6.7 3.1-6.2 7.1.1.8 1.3 5 1.6 6.1.3 1 .5 2 .8 3 .3.9.6 2.1.8 3-2 .3-4.4.4-6.4.5-14.5 1.1-32.4 1-46.5-.5.1-.8.5-2 .7-2.9l2.3-8.4c1.1-4.2-2.1-6.9-5.9-7.9-5.6-1.6-12.5.2-17.7 2.4-.7.3-.7.3-1.5.1-.4-.1-3.7-1.1-3.9-1.4-.5-.9-1-5.7-.4-6.7zm-1.7 2.3c0 1.2.1 2.5.3 3.6.4 2.3.4 2.1 1.4 2.4l4.4 1.5c.7.2.8.1 1.4-.2 4.2-1.9 8.3-3 13.4-3 4.4 0 10 2.1 8.6 7-.2.8-3.4 12.1-3.4 12.6 4 .5 8.4.8 12.5 1 12.2.6 19.3.6 31.5 0 4.2-.2 8.2-.7 12.4-.9 0-.6-3-11.3-3.4-12.9-.7-2.7 1.1-4.4 2.6-5.2 2-1.1 4.2-1.3 6.7-1.5-.5-.6-1-.9-1.5-1.5-.4-.5-.8-1.1-1.2-1.8-.8-1.6-1-2.8-1.1-4.9-.3.2-.9 1.2-1.2 1.6l-2.5 3c-2.8 2.8-3.9 3.9-7.4 6.2-4.4 2.8-10.2 4.9-16.5 5.4-9.1.7-18.4-2.3-25-7.6-1.3-1-3.9-3.4-4.9-4.7-.2-.3-.3-.4-.7-.7-6.1 1.7-5.7-2.5-6.8-3.8-.8-1-2-.1-2.9.4-4.4 2.5-6.6 1.3-10.6 2.2-1.2.3-1 .4-2.9-.9-.8-.5-2.1-1.7-2.4-1.9-.4 1.6-.8 2.4-.8 4.6z" class="st20"/><path id="path229" d="M209.5 42c1.5.1 1.7 2.3-.1 2.3h-1.5V42Zm1.4 3 .4-.2c2.1-1 1.7-3.1 0-3.7-.8-.3-5.8-.4-6.8-.2v.9c.7.2 1.1-.2 1.2.7.1.9.1 5 0 5.5l-1.1.1.1 1c1.1 0 3.6.1 4.5 0 .1-1.3 0-.8-1.1-1-.2-.6-.2-1.9-.1-2.6 3.5-.7 1.7 2 2.6 3.4.4.6 1.7.8 2.5.3.7-.4.8-1.4.8-2.3l-.8.1c-.1.6.1 1.3-.6 1.3-.8-1 .3-2.8-1.6-3.3zm-16.4 4.1c.1-1.1-.1-2.8-.2-4-.1-3.2-.4-3.2 1-3.2l-.1-1-3.8.2.1.9 1.2.1c.2.7.3 3.6.3 4.6-.3-.2-1.5-2.3-1.9-2.8-.4-.7-1.4-2.3-1.8-2.8l-3.5.2c-.1 1.3 0 .8.8 1 .6.1.4.8.5 1.5 0 1.2.1 2.5.1 3.7 0 1.1-.2.9-1.1 1l.1 1 3.9-.2-.1-1-1.2-.1c-.2-.7-.3-4.4-.2-5.2l3.5 5.4c.5 1 .2.8 2.4.7zM178.1 43c.3.5.6 5.3.5 6l-1.1.2.1 1 8.1-.6-.3-3.4c-1 0-1-.2-1.1.7 0 .6-.1 1-.5 1.4-.6.6-2.2.7-3.1.6-.2-.5-.2-2.1-.2-2.7 1.2-.2 1.6.1 1.6 1.3l.9-.1-.1-.9-.2-2.9h-.9c-.3 1.1.2 1.4-1.6 1.4l-.1-2.3c4.1-.3 3.2-.1 3.9 1.8h1l-.2-3.2-7.3.6-.5.1c-.1.4-.1.6 0 1zm-16.8 5c-.3-1.7 0-3.5 1.6-3.8 3.4-.5 3.8 5.8 1.3 6.4-1.9.4-2.7-1-2.9-2.6zm2.7 3.9c2.2-.5 3.9-1.4 4.1-3.8.2-2.7-1.1-3.8-3.1-4.7-6.7-.8-7.1 5.1-4.8 7.3 1 .9 1.9 1.2 3.8 1.2zm9.7-8.5h-1.2l-.1-1 3.8-.4.1 1c-1.3.3-1.1.8-1.8 3.5-.3 1.3-.7 2.9-1 4.1l-2 .2c-.2-.6-.6-1.3-.8-1.9l-1.8-3.9c-.4-.9-.5-1.2-1.7-1.1l-.1-1c.7-.1 4-.5 4.5-.4l.1.9-1.1.2c0 .9 1.6 3.7 1.9 4.8.3-.3.3-.7.4-1.2l.3-1.2c.2-.6.7-2 .5-2.6zm53.7 2.8c0-3.9 2.9-3.9 3.8-2.7.5.6.4 1.1.6 1.9.3.1.6.1 1 .1l.2-3.4h-1l-.3.5c-1.2-.7-2.3-1.4-4.1-.7-1.2.5-2.2 1.5-2.5 2.8-1.8 6.3 7.6 7.8 7.5 2.6l-.9-.1c-.3.8-.2 1-.8 1.6-.7.8-3.5 1.2-3.5-2.6zm23.5 6.9 2.3.3.2-1-1.3-.3c0-.5.2-1.9.3-2.3l2.4-2.6c.9-.9.4-.6 1.7-.7l.1-1-3.7-.5-.1.9.9.3c-.1.6-1.5 1.8-1.8 2-1.4-2.5-1.1-2.4-.3-2.4.1 0 .5.3.4-.9l-4.4-.7-.2 1c1.3.2 1.3 1.1 2.1 2.8.2.5.7 1.2.7 1.7s-.2 1.7-.5 2.1c-.4.1-.8 0-1.3-.1l-.1 1zM155 44.7l1.3.3v-.1l.1-.3c0-.1.1-.2.1-.3l1-.2.5 3.3-1.1.2c-.4-1.3-1.1-2.4-2.8-2-2.7.7-1.6 6.1.7 6.3 1.8.2 2.2-1.1 2.3-2.7l1.2-.1c.3 2.8-1.3 3.9-3.7 4-1 0-1.6-.4-2.1-.4l-.3-.3c-3.3-2.4-2.1-7.9 2.8-7.7zm42.1-.6c.1-1.4.3-2.3 1.8-2.2l.1 5.5c-.1.9-.5.6-1.3.7v1l4.7-.1v-1l-1.2-.1c-.3-.9-.1-4.8-.2-6.1 1.3 0 1.6.5 1.8 1.5.1.9 0 .8 1.1.7v-3.2l-7.9.1v3.2zm16-2.3.1-.9 4.4.2c.4 1.8-1.1.4-.9 1.5l1.2 1.9c.4-.3 1.5-1.7 1.4-2.2l-.9-.2v-.9l3.6.2c.1 1.7-.3.5-1.2 1.4l-2.4 3.1c-.2.4-.3 1.9-.1 2.4.1.2.3.2.6.2h.7v1l-4.8-.2.1-1c.4 0 .9 0 1.2-.1.3-.2.3-1.9.3-2.2-.1-.3-1.5-2.6-1.8-3.1-.7-1.1-1-.7-1.5-1.1zm28.7 9.8 2.8.3.1-1c-.5 0-.8 0-1.1-.3-.4-.7.5-4.9.6-6 1.5 0 1.6 1.1 1.6 2.4.3.2.6.2 1 .2.1-.5.4-2.8.4-3.3-1.8-.3-6.6-1.1-7.8-1l-.4 3.2 1.1.1c.2-1.4.5-2.1 2.1-2-.1 1.2-.4 5.4-.9 6.1l-1.2-.1-.1 1zM238 50c-1.4-.1-1.3.2-1-2.6.5-3.9 0-3.5 1.7-3.5l.1-1-4.5-.4v1c1 .2 1.2-.2 1 1.1l-.5 4.1c-.1 1.3-.1.9-1.3 1l-.1.9c.6.3 3.6.5 4.5.5z" class="st0"/><path id="path231" d="M189 232.7c1.2-.1 2.8.1 2.7 1.4 0 1.5-1.6 1.4-2.9 1.2zm.1-1.1c0-.7 0-1.8.2-2.4 1.2-.1 2.4.1 2.3 1.3-.1 1.3-1.3 1.2-2.5 1.1zm3.7.2c1.2-.7 1.5-2.8-.6-3.4-.8-.2-5.3-.5-6.2-.4v.9c.6 0 .9 0 1.1.3.2.6-.1 5.5-.4 5.9h-1v1c.9.2 6 .3 6.8.1 1.9-.6 2-3.5-.2-4.1zm58.6-2.9c1.3-.1 2.8-.6 3 .9.3 1.6-1.2 1.8-2.5 1.9zm-.5-3.4c1.1-.2 2.5-.4 2.5.9.1.8-.2 1-.7 1.2-.5.2-1 .3-1.5.3zm.3-1-3.8.6c0 .4 0 .7.2 1 .9 0 1.2-.4 1.3.7.2 1.1.8 4.5.7 5.2l-1.1.2.2 1c.6 0 1.3-.3 2-.2l.2-.1c.1 0 .1-.1.3-.1l3.7-.6.4-.2c.4-.2.6-.2.9-.6.3-.4.4-1 .3-1.7-.3-1.8-1.7-1.6-2.2-1.9.8-.3 1.5-1.2 1.1-2.4-.4-1.1-1.4-1.2-2.8-1.1zm-76.8 7.2c-.7 4.1-5.3 3.1-4.4-1.4.3-1.4 1.1-2.9 2.9-2.4 1.4.3 1.8 2.1 1.5 3.8zm-3.2-5c-5.5.8-4.8 9.5 1.8 8.6 5.5-.7 4.9-9.6-1.8-8.6zm-9.3 0c3.6-1.2 3.5 5.5 1 6.3-3.6 1.2-3.5-5.4-1-6.3zm1.6 7.5c-3.4.3-6.2-1.6-5.6-5.1.3-1.6 1.1-2.6 2.2-3.1 1.7-.8 2.9-.4 4.5 0 .6.6 2.8 1.4 2.3 4.5-.3 2.1-1.4 3.2-3.4 3.7zm78.5 0c2 .2 4-.2 4.5-1.9.4-1.5-.5-4.1-.3-5.8l1-.2-.1-1-1 .1c-.7 0-2.2 0-2.7.3l.1.9h1.1c.3.6.5 2.7.6 3.6.2 1.5.4 2.5-1.1 2.7-1.7.3-1.8-.6-2-2-.5-4.5-.9-3.6.8-4.1v-.9l-4.5.5.1 1c1.6-.1 1.2-.3 1.7 3.7-.1 1.9 0 2.5 1.8 3.1zm-43.6-3.8.8 2.5h-1.7zm-.5 5.1v1h-3.7v-1c1.1-.1 1.1-.2 1.4-1.2.2-.7.5-1.3.7-2 .4-1.2 1.2-2.9 1.4-4h2.1c.5 1.4.8 2.6 1.3 4 .2.7.4 1.3.6 2 .3.9.2 1.3 1.4 1.4v1h-4.4v-1c.4 0 .8 0 1.1-.1.1-.5-.1-1.1-.3-1.5-1.9-.1-2.7-.5-2.8 1 0 .6.6.4 1.2.4zm-46.9-3.1c.9-.1 1.7.3 2.6.3l.2-1c-1.5-.3-1.3 0-.9-2.9 1.3 0 1 .7 1 1.6l.9.2.7-3.9-1-.2c-.2 1.7-1.3 1.4-1.4.9v-.2l.4-1.8c.9 0 2.5.2 2.9 1.1.2.7.1 1.1.1 1.8l.9.2c.3-.6.5-2.6.5-3.3l-2.5-.4-4.4-.8-.6-.1-.2.9 1.1.3c.2.5-.7 5.3-.9 5.9h-1.2l-.2 1c.7.1 1.6.1 2 .4zm78.4.1c-.1.8-.2 1.3-.7 1.8-.9.9-3.5 1.2-3.8-2.6-.3-4.3 3.9-4.4 4.3-1.1l1.1-.1-.2-3.4h-1l-.2.5v.1c-1-.4-1.5-.7-2.8-.5-5.1.9-4.7 9.1 1.4 8.6 2.2-.2 3-1.4 3-3.7zm-52.1-1.8.2-3.3 7.9.5-.3 3.3-1-.1c-.3-1.3.2-2.3-1.7-2.4l-.3 4.6c-.1 2 0 1.5 1.2 1.7v1l-4.7-.3v-1c1.5-.1 1.4.2 1.4-1.4l.2-4.8c-.8 0-1.3.1-1.6.6-.1.2-.2.5-.3.8l-.2.8zm53.5-3.5c.7-.2 2-.2 2.8-.3 1.4-.2 2-.6 1.8.8-.6.1-.8 0-1.2.3-.1 1.4.5 4.4.6 5.9.8 0 2-.1 2.6-.5.8-.5.4-1.4.7-2.3l.9-.1.3 3.4-7.7.8v-.9c.5-.2.7-.1 1.1-.4.1-.7-.4-5.2-.6-5.9H231Zm-15.8 8.1c-.1-1.3-.1-2.5-.2-3.8-.1-2.8-.2-2.3 1.2-2.5l-.1-.9c-.6-.2-3.6.1-4.5.1l.1 1c1 .1 1.2-.1 1.3 1l.2 4.3c0 1.1-.2 1-1.2 1v1l7.7-.4-.2-3.4-1.1.1c-.1.9-.1 1.8-.7 2.2-.4.3-1.8.4-2.5.3zm-8.2.2c2.6.2 3.3 0 3.5-2.5h1.1c0 .8.1 2.8 0 3.4l-7.7.1v-1c1.5-.1 1.2.4 1.2-3.1 0-3.4.2-3.1-1.2-3.1v-1l4.4-.1v1c-1.4 0-1.3-.2-1.2 2.4-.1 1.4-.1 2.7-.1 3.9z" class="st0"/><path id="path233" d="M202.2 134.1c-.3-1.5-.3-3.4-.1-5 1.2-.1 3.1.7 3.9 1.3 1.2.8 1.4 2 1.3 4zm-1.2 1.4h3.8c.9 0 2.9.3 3.5.3.7-2.4.4-5-1.1-6.3-1.2-1.1-3.9-2-6.2-2-.9 1.6-.3 6.1 0 8z" class="st20"/><path id="polygon235" d="M199.4 111.2h2.5v2.5h2.5v-2.5h2.4l.1-2.5h-2.5v-2.5h-2.5v2.5h-2.5z" style="fill-rule:evenodd;clip-rule:evenodd;fill:#e22528"/><path id="path237" d="M201.9 106.2h2.5v2.5h2.5v2.5h-2.5v2.5h-2.5v-2.5h-2.5v-2.5h2.5zm-3.3 5.8h2.5v2.5h4.1c.1-.7 0-1.5 0-1.9.1-.7 0-.3.2-.5h2.2V108h-2.4l-.1-2.4H201v2.4h-2.4z" style="fill-rule:evenodd;clip-rule:evenodd;fill:#010101"/><path id="path239" d="m201.4 125.9 2.6.4c.4-2.7.3-5.4.4-8.1h-2.7c0 1.3 0 2.7-.1 4 .1.6-.3 3.2-.2 3.7z" style="fill-rule:evenodd;clip-rule:evenodd;fill:#c09129"/><linearGradient id="SVGID_30_" x1="203.08009" x2="203.0802" y1="107.8542" y2="118.285" gradientUnits="userSpaceOnUse"><stop id="stop241" offset="0" style="stop-color:#fff"/><stop id="stop243" offset="1" style="stop-color:#b9c0c9"/></linearGradient><path id="path246" d="M205.4 112c-.3.2-.2-.2-.2.5 0 .4.1 1.2 0 1.9h-4.1v-2.5h-2.5v-4.1h2.4v-2.4h4.1l.1 2.4h2.4v4.1zm-12 2c0 .7-.1 2.6.1 3.1.5.2 8.3.1 9.5.1.2 0 9.4.1 9.6-.2.2-.3.1-4.5.1-5.3l.1-7.4v-1.8h-19.6c.8 3.2 3 3.9 2.6 6-.1.5-.5 1-.9 1.3l-.3.3-1.2.8h-.1c-.1 1 .1 2.3.1 3.1z" style="fill:url(#SVGID_30_);fill-rule:evenodd;clip-rule:evenodd"/><path id="path248" d="M163.5 130.3c2.1-.5 7-3.8 8.8-5.3l2.9-2.8c.5-.5 1.1-.8.8-1.7-.9-.2-.8 0-1.7.9-3.8 4.3-10.4 8.5-10.8 8.9z" class="st20"/><path id="path250" d="m191.2 137.5 1.1-.4c.4-1.6.4-4.8.1-6.4-.4-1.8-1.3-3.7-2.5-4.4.7 1.6 1.2 2.9 1.4 4.9.2 2.3-.2 4.1-.1 6.3z" class="st20"/><path id="path252" d="m213.8 134.9-.2 2.1c.4.1.7.3 1.2.3.3-2 .5-3.9-.6-5.8-.4-.6-1.5-1.9-2.2-2.1.4.4 1 1.6 1.3 2.3.2.7.6 2.3.5 3.2z" class="st20"/><path id="path254" d="M173.5 115.3c1.1-.7 1.9-.9 2-2.2-1 0-3-.2-2 2.2z" class="st20"/><linearGradient id="SVGID_31_" x1="197.3177" x2="209.61861" y1="82.824203" y2="82.824203" gradientUnits="userSpaceOnUse"><stop id="stop256" offset="0" style="stop-color:#bd9f60"/><stop id="stop258" offset="0.47" style="stop-color:#dcbd73"/><stop id="stop260" offset="1" style="stop-color:#bd9f5e"/></linearGradient><path id="path263" d="m197.6 65.4.1-.3h1.5l.1.3v.9h.8V65.1h1.6l.1 1.2h.8l-.1-.9.1-.3h1.6l.1.3v.9l.8.1v-1.1h1.6v1h.7l.1-1.2h1.6l.1.3-.1 2.6h-11.2zm3 3.4h8.2c0 .9-1.1 2.4-1.4 3.3H199c-.3-.9-1.4-2.6-1.5-3.3zm-1.4 18.9c-.1-.8-.1-14.3 0-14.8h8.2v14.8zm-1.5 5.8c-.1-.6 1.2-4.2 1.5-5h8.3c.3.9 1.5 4.2 1.4 4.9zm-.1 6.7.1-5.8h9.8c1 0 1.1-.1 1.3.2v5.6c-.1.4.1.2-.2.3h-10.9zm3.6-20.6c-.6-.1-1.2 0-1.3.7-.1.8.5.9 1.3.8 0-.1.1-.2.2-.3h1.4c0 .5.1 2.5 0 2.9-.1.5-.5.4-.3 1.1.2.8 1.4.7 1.6-.1.1-.6-.3-.7-.4-1-.1-.3 0-2.3 0-2.8 1.6-.2 1.1.3 2.4.4l.2-.2c.1-.1.1 0 .1-.2.2-.5.1-1.3-1.1-1.1-.4.5-.9.4-1.6.3 0-.7-.1-2.1 0-2.7.1-.6 1-1.1-.1-1.7-.5-.1-.9 0-1.1.5-.2.7.2.7.3 1.1.1.3 0 2.4 0 2.8-.7 0-1.3-.1-1.6-.5z" style="fill:url(#SVGID_31_);fill-rule:evenodd;clip-rule:evenodd"/><linearGradient id="SVGID_32_" x1="209.65421" x2="221.9549" y1="82.798599" y2="82.798599" gradientUnits="userSpaceOnUse"><stop id="stop265" offset="0" style="stop-color:#bd9f60"/><stop id="stop267" offset="0.47" style="stop-color:#dcbd73"/><stop id="stop269" offset="1" style="stop-color:#bd9f5e"/></linearGradient><path id="path272" d="m209.9 65.4.1-.3h1.5l.1.3v.9h.8V65.1h1.6l.1 1.2h.8l-.1-.9.1-.3h1.6l.1.3v.9l.8.1v-1.1h1.6v1h.7l.1-1.2h1.6l.1.3-.1 2.6H210Zm3 3.4h8.2c0 .9-1.1 2.4-1.4 3.3h-8.4c-.3-.9-1.4-2.6-1.5-3.3zm-1.4 18.9c-.1-.8-.1-14.3 0-14.8h8.2v14.8zm-1.5 5.8c-.1-.6 1.2-4.2 1.5-5h8.3c.3.9 1.5 4.2 1.4 4.9zm-.1 6.6.1-5.8h9.8c1 0 1.1-.1 1.3.2v5.6c-.1.4.1.2-.2.3H210Zm3.6-20.5c-.6-.1-1.2 0-1.3.7-.1.8.5.9 1.3.8 0-.1.1-.2.2-.3h1.4c0 .5.1 2.5 0 2.9-.1.5-.5.4-.3 1.1.2.8 1.4.7 1.6-.1.1-.6-.3-.7-.4-1-.1-.3 0-2.3 0-2.8 1.6-.2 1.1.3 2.4.4l.2-.2c.1-.1.1 0 .1-.2.2-.5.1-1.3-1.1-1.1-.4.5-.9.4-1.6.3 0-.7-.1-2.1 0-2.7.1-.6 1-1.1-.1-1.7-.5-.1-.9 0-1.1.5-.2.7.2.7.3 1.1.1.3 0 2.4 0 2.8-.6-.1-1.3-.1-1.6-.5z" style="fill:url(#SVGID_32_);fill-rule:evenodd;clip-rule:evenodd"/></g></svg>