<svg xmlns="http://www.w3.org/2000/svg" width="1919.8586pt" height="1287.006pt" version="1.0" viewBox="0 0 1919.8586 1287.006"><g style="fill:#fff"><path d="M354 1.7c-24.4 1.4-57.9 7.4-80.9 14.3-33.4 10.1-64.2 25.6-91.5 45.9-42.1 31.4-71.3 74.2-82.6 121.4-10.1 42.4-11.4 92.7-3 125 9.4 36.4 31 64.9 58 76.3 7.3 3 22.6 7.4 26.1 7.4 1.3 0 1.9 1.2 2.4 5.2.4 2.9 1.5 8.9 2.6 13.3 2.5 10.9 4.9 32.9 4.9 44.5-.1 11-2.5 44.7-3.5 47.1-.5 1.4-2.9 1.7-14.8 2.2-10.1.3-16.6 1.1-22.5 2.7-4.6 1.2-8.5 2-8.8 1.8-.2-.3.5-4 1.5-8.4 8.2-33.3 3.8-65.9-12.7-93.7-8.9-15-16.5-24.2-47-56.8-18.4-19.7-29.1-33.5-36.1-46.9-9.7-18.5-13.1-32.5-13.1-53.5 0-39 14.8-70.4 43.3-91.6 7.4-5.6 24.5-14.9 27.2-14.9 1.6 0 2.8-2.7 1.5-3.5-1.6-1-18.8 5.2-30.6 11-27.4 13.3-49.3 33-61.7 55.5C-4.5 237.3-4 286.3 14 324.7c9.3 19.8 20 33.5 49.6 62.8 30.4 30.2 39 40.9 45.9 57.4 5.7 13.6 7 20.8 6.9 38.1 0 14-.3 16.3-2.7 23.5-8.8 26.7-31.7 44.1-65.6 50-4.7.9-8.9 1.9-9.4 2.4-2 2 3.8 5.8 10.5 7 23.5 4.1 49.1-3.6 67.5-20.4 6.6-6 15.8-18.8 19.2-26.9l2.1-4.8 3.3 2.1c17 10.7 51.3 36.9 74.2 56.7 47.3 40.9 78.9 76.3 104.4 117.3l9.4 15.1h24.2c28 0 41.9 1.4 61.8 6.5 7.3 1.8 13.5 3.1 14 2.8 1.3-.8.7-25.5-.8-32.8-3.3-15.7-14.7-32.8-26.7-39.8-5.1-3-15.8-6.1-16.9-4.9-.9.9-3.1 22.1-2.4 23.2.3.4 3.2 1.1 6.5 1.5 7.1.8 18.2 5.9 22.6 10.3 3.8 3.7 6 8.2 6.9 14.1.7 4 .6 4.3-1.1 3.7-4.7-1.8-28.8-7.7-37.4-9.1-5.2-.9-16.9-1.8-25.9-2.1l-16.5-.5-5.3-10c-23.2-43.7-62.1-97.7-103.4-143.3L215 509.1l2-8.3c1.1-4.6 2-9.3 2-10.5 0-1.3 1.2-2.9 3.3-4.2 5.5-3.4 13.6-12.7 16.5-18.8 3.9-8.4 3.8-18.5-.2-26.5-2.9-5.8-9.2-13.1-15.8-18.4-3.6-2.9-3.7-3.1-6.8-18.8-1.7-8.7-2.9-16-2.6-16.3.3-.3 3.1-1.6 6.1-2.9 3.1-1.2 8.2-3.7 11.3-5.6 7.9-4.6 25.6-22.5 32.5-33 6.7-10 17.6-32.4 34.1-69.8 21.4-48.5 26.2-56.7 41.5-72.1 10.5-10.4 18.2-15.4 32.9-21.3 16.7-6.7 24.4-8.1 45.7-8.1 17.6 0 19.8.2 29.6 2.8 16.7 4.3 35.6 12.8 47.4 21.2 14.1 10 29.4 30.1 33.9 44.4 4 12.5 4.9 19.7 4.9 36.6 0 16.3-.8 22-5.1 36l-1.9 6-2.7-5.5c-11-21.7-29.9-41-50.1-51.2-7.6-3.9-21.5-8.5-30.7-10.3-10.8-2.1-33.3-2.1-46-.1-53.9 8.7-90.9 46.7-99.4 102.1-2.1 13.4-1.3 39.4 1.5 51.5 6.1 26.2 18.3 49.2 38.9 73.4 8.7 10.2 24.5 24.6 26.9 24.6 4.8 0 28.1-8.9 35.4-13.6 2.2-1.3 4.3-3.2 4.6-4 .3-.9-2.8-4.9-8.9-11.2-27-27.8-45.2-62-47.6-89.3-1-11.4.2-27.2 2.8-36.7 13.9-50.7 75.5-70.9 118.7-38.9 12.1 9 21.7 23.6 26.3 39.7 2.8 9.8 3.8 29 2 39.7-5.7 35.6-32.5 73.3-70.6 99.3-26.1 17.8-52.4 27.7-87.6 33.1-11.6 1.8-19 2.2-39.3 2.3-13.7.1-28.7-.3-33.3-.7-7.4-.7-8.3-.6-8 .9.7 3.4 25 10.9 43.8 13.5 12 1.7 46.3 1.7 59 .1 14.2-1.9 33.8-5.9 42.7-8.7 13-4.2 11.9-5.8 12 17.7.2 23.5 2 41.2 6.8 65.3 5.1 25.8 13.4 51.6 22.5 69.9 6.3 12.8 6.9 12.8 16.6-1.8 8.8-13.3 8.6-11 3.1-31.6-2-7.4-4.8-20-6.1-28-2.4-14.1-5.2-38.8-4.5-39.5.6-.5 12.3 18.5 23.7 38.5 12.2 21.6 45.2 81 45.2 81.5 0 .2-3.8.6-8.5 1s-8.4 1-8.3 1.4c.2.3 5 9.8 10.6 21.1 8.9 17.7 10.6 20.5 12.5 20.3 1.2 0 5.2-.4 8.8-.8l6.5-.7 8.4 17.8c16.5 35.6 39.8 92.4 57.7 140.9 19.3 52.3 47.2 140.1 55.5 174.9 2.2 9.2 3.9 14.3 5 15 1.3.8 5.9-.4 20-5.1 23-7.8 34.6-10.3 51.9-11 36-1.5 73.9 9.9 100.5 30.3 21.5 16.4 35.9 37.5 46.4 67.9 8.5 24.7 11.4 46.7 10.8 80.6-.4 22.9-.3 23.9 1.5 23.9 4.4 0 33.7-18.5 43.5-27.5l5.5-5-.6-17.5c-1.6-46-12.8-84.8-34.9-120.4-10.5-17-28.3-36.5-43.7-48.1-21.4-16.2-53.4-30.1-82.6-36-24.2-4.9-43.6-5.4-71.3-2-14.2 1.8-13.2 1.8-13.2.2 0-4.2-23.8-78.1-37.8-117.2-16.2-45.6-45-117.9-60.7-152.5-6.8-15-11.5-26.3-11.5-27.5 0-.6 6.6-4.2 14.8-8 27-12.8 48.1-26.8 71.1-47 42.6-37.6 73.2-80.8 93.4-132 15.3-38.9 26-89.5 29.8-141.4 1.7-23.2.6-67-2.1-87.1-5.1-38.2-15.4-77.5-29.4-112-1.9-4.7-3.3-8.6-3.2-8.7.1-.1 10.5 2.3 23.1 5.3 118.9 28.1 239.5 49.9 352.5 63.8 142.1 17.5 331.1 30.9 470.8 33.5 22.8.4 41.6 1.2 42.1 1.7s4.4 7 8.6 14.4c10.3 17.8 28 46.3 42.7 68.3 7.9 11.9 11.6 18.2 11.1 19.1-2.3 4-20.1 23-33.2 35.5-8.3 7.8-15.3 15.1-15.6 16.1-1.8 5.6 53.2 119.4 85.3 176.5 26.5 47.1 43.4 72.6 87.4 131.7l22.9 30.6-4.4 6.4c-30.2 43.5-48.5 86.8-55.8 132.6-5.5 34.2-2.4 98.4 7.8 163.7.6 4 .5 3.9-14.3-11.4-23-23.8-59.6-55.7-84.4-73.7-120.6-87.4-257.8-137.8-411-150.9-26-2.2-71-3.7-91.5-3-92.1 3.2-162.3 19.3-219.5 50.5-27 14.8-43.3 28.3-57.9 47.9-12.3 16.6-17.7 32.3-18.8 54.7-1.3 27.3 4.2 49.6 25.7 103.4 5.5 13.7 11.7 30.2 13.9 36.7 9.1 27.1 21.3 77 29.6 120.8 2 10.4 3.8 19.8 4.1 20.7.4 1.5 1.7 1.8 6.6 1.8 5.8 0 6.3-.2 16.1-7 13.3-9.1 21.3-15.4 23.1-18.2 1.3-2.1 1.2-3.7-.9-14.9-6.3-33.5-20.4-88.9-29.1-114.9-3.1-9.1-11.1-30.2-17.9-47-18.7-46.4-21.5-56.3-21.5-75.8.1-12.5 1.8-18 9.3-28.5 6-8.4 13.7-15.3 26.5-23.8 41.4-27.3 97.5-43.5 176.7-51.1 17.2-1.6 86-1.6 107.5 0 89.8 6.8 165.7 23.7 241 53.7 84.1 33.4 165 85.2 224.9 144 49.4 48.5 85.3 98.9 116.2 163.3 4.3 8.9 8.5 16.5 9.4 16.9 2 .7 8.4-5.4 19.3-18.2 9.6-11.4 15.2-20.1 15.2-23.5 0-1.5-.9-4.9-2-7.6-28.4-70.8-44-130.6-51.5-197.4-3.5-32.1-4.7-73.2-2.4-91 5.2-42.4 27.2-93.1 55.6-128.2l6.3-7.9v-25.7l-6.5-4.2c-4.1-2.7-7.9-6.2-10.2-9.6-2.1-2.9-7-9-10.9-13.6-3.9-4.6-14.4-18.3-23.2-30.5-56.4-77.9-78.2-115.2-126.2-214.8l-22.7-47 10-10.5c17.3-18.3 39.7-47.5 39.7-51.8 0-1-2.1-4-4.6-6.8-16-17.1-71.4-102.7-88.5-136.6-1.7-3.5-3.7-6.6-4.3-7-.6-.4-17.1-.8-36.6-.8-117.6-.1-320.6-12.8-456-28.5-136.2-15.9-291.3-43.8-414-74.6-17.3-4.3-34.4-8.8-38-10-6.5-2-6.5-2.1-12.5-11.2l-6.1-9.2-11.8-1.7c-13.9-2.1-28.3-5.8-37.8-9.8-7-3-8.4-2.8-4.7.6 7.5 6.7 28.4 34.8 38.9 52.4 54.9 91.3 72.6 210.2 46.9 313.5-12.3 49.2-28.1 85.9-51.2 118.5-33.8 47.8-76.9 82.7-125.4 101.9L559 696l-5.6-11.3c-18.3-36.4-41.3-78.4-64-116.4l-13.2-22.2 4.6-.7c63.4-8.8 115.6-32.7 154.8-70.7 40.8-39.5 67.1-93.1 75-152.7 2.2-17.2 1.5-48.4-1.6-65.9-7.3-41.3-24.5-80-51.6-115.8C613.6 82.5 550.5 39.2 474.8 15.2 438.8 3.7 397.6-.9 354 1.7Zm47.5 40.4c24.9 1.8 42.3 5 65.5 12 101 30.3 183.2 112.5 200.9 200.7 4.6 22.9 5.2 52.1 1.6 73.2-2.8 16.2-12.7 44.6-22 63-18.6 36.9-46.4 65.3-85 86.7-27.9 15.5-61.9 26.2-92.9 29.3-5.9.6-11 .9-11.2.7-.3-.2 3.7-3.7 8.8-7.8 27.2-21.6 49.3-51 59.2-78.7 3.1-8.8 6.2-23.8 7.1-34.9.7-8 .9-8.4 6.1-15.4 7.3-9.5 12.8-19.1 18.6-32.2 9.7-22 12.4-36.7 11.5-63.2-1.4-40.1-13.2-67.9-40.7-95.4-11.4-11.4-22.1-19.3-36.2-26.6-41-21.2-87.8-25.6-129.3-12-23.7 7.7-42.2 19.1-58 35.7-16.7 17.6-28.3 37.6-42.3 72.8-17.8 45-33.4 75.7-44.3 87.5-10.4 11.3-19.3 15-34.4 14.3-8-.3-10.1-.8-16.1-3.8-10.1-4.9-19.9-15-25.2-26-9.4-19.2-12.7-38.7-11.9-70 .9-37.1 7.1-66.6 19.2-91.5 18-37 48.8-66.1 94.2-88.8 44.7-22.4 103.9-33.6 156.8-29.6ZM206.2 424.9c11.6 4 19.5 10.3 23.4 18.6 3 6.4 3.3 17 .5 23-3.5 7.8-13.1 14.1-24.3 16l-3.8.6v-3.8c0-6.4.9-8.3 3.9-8.3 3.8-.1 10.7-3.5 12.4-6.2 3.9-5.9 2.8-15.3-2.3-21.2-1.6-1.8-5.6-4.7-8.8-6.4-5.3-2.8-6-3.6-6.6-6.9-.6-4.2-.8-7.3-.3-7.3.2 0 2.9.9 5.9 1.9z" style="fill:#fff" transform="translate(-.141 -.994)"/><path d="M1574.4 1006.4c-.3.8.3 2.7 1.4 4.3 1.1 1.5 2.8 4.2 3.8 5.9 1.1 1.8 6.2 9.6 11.5 17.5 13.2 19.9 21.7 34.4 31.9 54.9 14.2 28.4 28.5 63.1 38.1 92.9 4 12.2 6.1 14.1 10.5 10 9.6-8.8 35.4-41.7 35.4-45 0-2.2-10.9-29.4-18-44.9-8-17.6-19-37-23.5-41.5-8.5-8.4-52.2-37-75.6-49.4-12-6.3-14.6-7.1-15.5-4.7z" style="fill:#fff" transform="translate(-.141 -.994)"/></g></svg>