<svg xmlns="http://www.w3.org/2000/svg" width="446.33789" height="566.93408" viewBox="0 0 446.33789 566.93408"><path d="M86.901 178.911c64.212-29.92 139.011-41.158 207.758-41.43 71.636-.284 149.945 11.51 213.754 41.43 16.092 104.06 16.426 202.174 1.548 276.878-4.755 23.875-10.717 45.36-18.759 63.881-12.205 28.11-35.992 59.83-66.056 89.282-36.607 35.862-83.39 69.487-127.279 95.457-44.363-26.41-96.417-62.132-136.56-104.313-18.22-19.146-35.016-39.99-47.499-61.494-7.002-12.062-12.076-24.05-16.68-36.757-3.413-9.419-6.35-20.228-9.049-32.216-15.848-70.377-19.849-177.41-1.177-290.718Z" style="fill:#1b2e33;fill-rule:evenodd" transform="translate(-74.473 -137.475)"/><path d="M297.881 684.986c41.027-24.93 82.052-54.045 116.116-87.415 23.662-23.18 49.3-53.633 62.59-84.246 8.326-19.173 13.674-40.191 17.748-60.647 11.613-58.308 12.79-123.23 8.17-185.816-60.388-34.23-136.623-47.531-206.303-47.258-66.329.26-141.344 12.039-203.585 47.003-1.728 24.514-2.46 49.09-2.14 73.554.54 41.591 3.992 85.32 13.145 125.968 2.291 10.173 4.93 20.477 8.485 30.288 4.295 11.855 9.136 23.257 15.48 34.187 12.299 21.186 28.397 40.787 45.262 58.508 35.713 37.527 80.543 68.818 125.032 95.874z" style="fill:#f28900;fill-rule:evenodd" transform="translate(-74.473 -137.475)"/><path d="M247.55 588.205v-4.08c3.468-.673 6.54-2.39 8.137-5.587h4.6v47.916h-7.642v-38.25zM268.732 588.382c0-.38.023-.891.082-1.543.071-.652.212-1.369.425-2.151.212-.783.542-1.576.979-2.369.436-.771 1.026-1.478 1.745-2.13.72-.652 1.64-1.173 2.736-1.564 1.097-.391 2.44-.598 4.01-.609 1.533.011 2.842.218 3.95.609 1.097.39 2.017.912 2.76 1.565a8.529 8.529 0 0 1 1.78 2.13c.437.792.767 1.585.98 2.368.211.782.353 1.5.424 2.151.059.652.094 1.163.082 1.543v27.25c.012.598-.011 1.283-.07 2.054a14.118 14.118 0 0 1-.378 2.412 9.853 9.853 0 0 1-.967 2.445 8.445 8.445 0 0 1-1.745 2.216c-.731.674-1.651 1.206-2.76 1.597-1.109.402-2.464.609-4.057.62-1.592-.011-2.948-.218-4.056-.62-1.109-.39-2.029-.923-2.76-1.597a8.434 8.434 0 0 1-1.745-2.216 9.833 9.833 0 0 1-.967-2.445c-.2-.837-.33-1.64-.378-2.412a21.778 21.778 0 0 1-.07-2.054v-2.998h7.641c0 1.586.024 2.922.071 3.987.047 1.076.142 1.913.283 2.532.142.608.366 1.054.672 1.314.319.261.755.392 1.31.381.46 0 .849-.098 1.167-.304.318-.196.566-.511.743-.935.141-.424.248-.967.318-1.619.071-.663.107-1.445.107-2.358v-8.996a12.29 12.29 0 0 1-1.91.858 5.959 5.959 0 0 1-1.911.315c-1.31-.01-2.441-.195-3.385-.564-.932-.37-1.71-.87-2.335-1.478a7.756 7.756 0 0 1-1.498-2 10.781 10.781 0 0 1-.837-2.238 15.447 15.447 0 0 1-.354-2.151 19.342 19.342 0 0 1-.082-1.673zm12.312-2.086c0-.207-.071-.49-.213-.815-.141-.337-.389-.641-.731-.913-.342-.26-.802-.413-1.392-.423-.542.01-.978.163-1.332.423-.342.272-.59.576-.755.913-.165.326-.247.609-.247.815v13.886c0 .206.082.489.247.815.165.337.413.64.755.913.354.26.79.412 1.333.423.542-.01.978-.13 1.309-.347a2.13 2.13 0 0 0 .754-.783c.153-.304.248-.576.272-.825zM317.156 616.61c0 .979-.164 1.902-.377 2.782-.21.87-.516 1.68-.896 2.434a9.753 9.753 0 0 1-1.227 1.88c-.503.6-1.116 1.14-1.816 1.64a8.274 8.274 0 0 1-2.512 1.206c-.967.283-2.227.424-3.5.424-1.274 0-2.546-.141-3.537-.424a8.22 8.22 0 0 1-2.547-1.206c-.7-.5-1.297-1.043-1.78-1.64a10.434 10.434 0 0 1-1.192-1.88 11.3 11.3 0 0 1-.896-2.434c-.213-.88-.377-1.803-.377-2.782v-28.228c0-.946.164-1.858.377-2.727.211-.859.518-1.668.896-2.423.33-.658.708-1.294 1.191-1.912a8.314 8.314 0 0 1 1.781-1.674c.708-.5 1.557-.89 2.547-1.184.991-.294 2.263-.446 3.536-.446 1.274 0 2.534.152 3.501.446.967.293 1.805.684 2.512 1.184a8.944 8.944 0 0 1 1.816 1.674 10.48 10.48 0 0 1 1.227 1.912c.378.755.685 1.564.896 2.423.213.869.377 1.781.377 2.727zm-7.641-28.228c0-.652-.078-1.215-.236-1.695-.16-.486-.392-.932-.755-1.304-.168-.172-.403-.289-.672-.38-.273-.093-.706-.141-1.024-.141-.448 0-.952.102-1.26.271-.305.167-.55.387-.732.652a3.616 3.616 0 0 0-.412.837 4.051 4.051 0 0 0-.224.826 6.785 6.785 0 0 0-.06.934v28.228c0 .674.097 1.26.272 1.739.178.488.43.907.79 1.26.171.169.39.29.637.38.25.093.67.145.988.142.661-.007 1.322-.182 1.673-.51.357-.335.573-.76.732-1.25.077-.24.182-.489.223-.783a7.1 7.1 0 0 0 .06-.978zM336.35 616.024h-11.817v-6.194l11.18-31.292h7.641v31.292h3.538v6.194h-3.538v10.43h-7.004zm-5.307-6.194h5.307v-16.428h-.425l-.425 1.434z" style="fill:#1b2e33;fill-rule:evenodd" transform="translate(-74.473 -137.475)"/><path d="m372.475 155.043 9.462 1.19-7.082 56.334-9.463-1.19zM422.545 163.434l-1.81 9.364-9.689-1.873-8.965 46.383-9.364-1.81 8.966-46.383-9.861-1.906 1.81-9.364zM343.214 151.813c10.924.818 15.023 8.002 14.628 13.282l-.387 5.165-9.51-.712.272-3.626c.31-4.136-2.166-5.585-6.237-5.9-3.867-.298-6.535.982-6.798 4.49l-2.31 30.865c-.263 3.508 2.185 5.17 6.053 5.45 4.073.296 6.736-.768 7.046-4.904l.27-3.626 9.511.712-.386 5.164c-.396 5.28-5.519 11.775-16.443 10.957-12.78-.957-16-8.612-15.562-14.465l2.31-30.866c.439-5.852 4.902-12.932 17.543-11.986zM202.132 216.388c11.298-2.22 14.101-9.764 13.08-14.957l-8.651-44.027-9.358 1.84 8.354 42.513c.8 4.069-1.485 5.804-5.49 6.6-3.803.755-6.605-.196-7.284-3.648l-8.444-42.97-9.385 1.698 8.471 43.11c1.132 5.76 6.132 12.312 18.707 9.84zM131.91 174.452l9.208-2.483 6.124 22.703 11.977-3.23-6.124-22.704 9.208-2.483 14.786 54.819-9.207 2.484-6.304-23.37-11.976 3.231 6.303 23.37-9.208 2.483zM227.242 211.496l26.235-2.876-.922-8.41-16.755 1.836-5.235-47.752-9.48 1.04zM262.2 207.857l26.372-1.043-.334-8.454-16.842.666-1.897-48-9.53.376zM444.418 202.959l-6.603 23.46-9.18-2.585 6.55-23.272-3.86-34.81 9.18 2.584 1.907 24.007 14.024-19.523 9.18 2.584z" style="fill:#fff;fill-rule:evenodd" transform="translate(-74.473 -137.475)"/><path d="M174.448 361.427c-1.607-1.264-3.12-2.54-3.78-4.074-1.8-4.184-1.704-14.496.671-24.69.404-1.734.456-3.466.994-5.162.84-2.651 1.647-5.22 2.916-7.587 1.632-3.043 3.846-5.755 5.948-7.884 6.42-6.505 15.146-17.706 24.28-25.43 6.903-5.837 14.262-10.55 21.87-15.016 3.85-2.26 7.767-4.14 11.717-6.145 2.933-1.489 5.673-3.07 8.424-4.406 2.667-1.295 5.348-2.352 8.23-3.395 8.275-2.998 17.265-4.723 24.932-4.245 7.474-1.926 21.176-.415 30.5.043 9.962.49 19.047.672 33.35 4.514 12.476 2.391 25.808 8.221 33.039 11.652 2 .949 3.252 2.224 5.01 3.4 1.366.916 2.93 1.497 4.601 2.1 1.169.42 2.978-.393 4.141.087 9.233 3.813 18.425 8.105 28.646 13.648 6.671-2.886 16.037-5.815 24.342-7.985 6.667-1.741 12.087-2.733 16.431.9 3.657 3.06 5.953 5.936 6.807 10.88 2.025 11.713-1.331 27.976-1.25 34.917 3.062 4.79 9.115 14.041 12.684 23.12 1.835 4.668 1.327 7.683.884 12.698-.88 9.952-3.587 14.952-7.63 18.742-.382 3.4-1.283 7.48-2.306 9.607-1.151 2.393-3.417 5.413-5.665 7.739-.557 2.348-1.593 6.883-4.057 9.778-3.8.825-7.268 1.893-10.454 2.655-1.674 9.86-3.587 21.982-6.853 33.694a147.4 147.4 0 0 1-1.724 5.717c-.756 2.339-.724 4.65-1.56 6.924-1.638 4.463-1.095 8.994-2.808 12.643-1.713 3.648-5.494 8.12-7.253 10.38-1.278 1.933-1.719 4.099-2.787 6.41-2.19 4.736-4.793 10.095-7.02 15.35-2.418 5.706-5.457 11.318-8.429 15.836-1.558 2.368-3.135 4-5.289 5.752-2.441 1.986-5.55 4.408-8.763 7.954-4.18 4.613-6.42 11.094-8.283 12.344-2.278-.239-3.773.296-5.368 1.402-1.261-1.501-2.185-2.58-3.154-4.306-2.54 7.22-5.713 9.726-7.903 10.765-2.333 1.107-7.52-1.305-10.605-5.726-5.627-2.86-12.712-5.627-17.957-7.126-12.505-9.7-29.046-19.58-43.574-22.992-13.989 9.67-27.978 17.61-41.967 27.28-4.043 1.426-8.258 1.681-12.489 1.789-13.821.352-27.825-4.919-36.613-10.155-4.042-2.408-7.91-6.804-9.944-11.965-3.39-8.602-2.944-19.341 1.12-26.59-3.124-7.093-.343-12.676 3.897-14.269 1.66-.623 3.543-.517 5.383.17 3.764-6.072 4.519-12.893 3.15-18.68-1.457-6.162-6.165-11.556-10.96-15.529-3.915-.396-5.802 1.01-6.51 4.053-.708 3.044 1.504 7.584 3.45 13.453.814 2.457.207 2.966-.605 2.956-4.599-.054-7.978-1.976-10.656-3.712-6.543-4.24-5.687-6.786-6.86-12.544-.265-1.298-2.41-1.743-3.228-2.628-.82-.886-.929-1.773-1.893-2.622-1.624-1.23-6.371-2.507-7.882-1.388-4.749 4-9.28 12.772-12.403 17.193 2.436-8.583 6.68-14.796 9.976-19.5-.617-.926-1.88-3.21-2.497-4.135-1.677-1.98-10.786 9.126-17.148 18.455 2.836-8.53 9.593-15.285 14.34-21.022 1.023-1.236-1.655-4.465-3.02-3.621-9.55 5.9-18.536 18.735-25.869 29.315 3.157-8.416 15.924-24.11 23.822-31.305 2.469-2.249 2.107-4.864 1.567-7.107-1.031-4.284-1.17-8.972-2.862-13.878-15.106-3.776-26.098-5.53-42.334-8.337 13.7.242 29.07 1.732 41.586 3.643.31-2.061 1.565-5.09-.734-6.108-11.797-5.222-25.94-8.552-45.79-9.453 18.018-2.07 31.294 1.506 44.561 5.913 2.76.917 2.835-1.437 2.652-4.09-.106-1.554-2.024-3.999-3.525-3.983-3.355.035-10.229.793-17.767 1.19 6.192-1.293 9.313-2.463 13.41-3.259 1.215-.236 1.256-.973-.419-1.355-13.67-3.114-32.165-2.13-44.774-2.468 18.314-2.152 27.81-1.605 40.4-1.1.641.026 4.503.262.607-1.856-9.069-4.93-23.635-9.344-35.453-14.016 19.271 4.18 34.584 11.298 51.916 15.21 2.769.624 2.63-2.127 1.563-3.138-6.407-6.07-12.746-9.018-21.505-14.659 9.1.805 16.962 6.08 23.262 13.078 4.32-3.556 12.496-8.082 13.1-14.708z" style="fill:#e27005;fill-rule:evenodd" transform="translate(-74.473 -137.475)"/><path d="M219.22 366.474c-2.268 2.527-7.333 4.886-12.484 6.63l-2.908.016c-2.343 1.536-4.759 2.662-6.886 3.336l-.59-.303c.182-.661.223-1.322.125-1.983l1.858-2.908 2.71.118c-.031-2.617-.225-4.332 1.57-4.839.413-.116.67-.045 1.359-.067l.646-.91 1.777-.214-2.062 2.459c-.2 1.102-.352 2.214.22 3.292 2.252-.79 3.981-2.753 6.137-3.528 2.773-.997 5.442-1.227 8.527-1.099zm-47.397-36.645c.122-.782.266-1.559.51-2.329.84-2.65 1.647-5.22 2.916-7.586 1.632-3.043 3.846-5.755 5.948-7.884 6.42-6.505 15.146-17.706 24.28-25.43 6.903-5.837 14.262-10.55 21.87-15.016 3.85-2.26 7.767-4.14 11.717-6.145 2.933-1.489 5.673-3.07 8.424-4.406 2.667-1.295 5.348-2.352 8.23-3.395 6.082-2.203 12.55-3.72 18.595-4.178-4.851 1.402-9.728 2.986-10.386 6.086-1.777.754-3.415 3.167-3.091 3.92 2.23 2.13 11.462 3.04 19.731 2.582l.86 1.318c-4.9 1.346-10.823 2.841-15.723 3.489-3.5-1.293-4.578-3.996-10.178-3.188-22.475 4.963-36.285 12.121-42.005 16.435-2.1 1.584-4.73 3.798-6.899 6.06-2.787 2.909-4.996 5.901-6.263 7.745-.889 1.293-1.433 2.277-.51 3.967 1.529 2.798 3.901 5.6 5.433 8.4.484-.43.97-.86 1.454-1.292l3.554.162c1.185 3.554 2.618 5.61 5.419 6.58l-2.328 6.226c-1.646 4.405-6.213-2.204-8.435-5.113-2.517-3.297-9.805-6.285-14.043-5.432-8.926 1.798-13.577 8.501-19.08 18.424zm227.004 150.888-7.38 23.587 1.682 9.846 1.705 3.899 4.64 5.319 3.876-17.933v-5.977l-2.585-.485-.484-18.58zm21.207-25.688c-1.02 1.077-1.58 1.992-1.572 3.232l.075 10.662c-.954 4.046-3.038 7.19-14.885 7.205.512 5.44.372 10.459.022 15.898 1.987 5.237 3.474 9.53 3.461 14.338-.007 2.519-.484 5.047-1.182 7.583-.477 1.734-2.802 2.97-2.015 5.36 2.012-.005 4.972-1.513 5.207-4.157.56-3.021.354-6.473.775-9.619.288-2.152 1.227-4.097 2.331-5.508.162-2.154-.742-6.732.308-8.482 1.888-.74 3.636-.176 5.524.808l3.89.155c.633-3.604-1.236-7.526-.363-10.159.366-1.106 1.252-1.996 2.41-2.149 1.252-.165 2.237.121 3.09-.714 1.322-1.295 1.246-2.273 1.077-4.839-2.277-2.504-7.109-6.372-7.109-10.457v-3.502l.932-1.373c-.506-1.972-1.038-3.388-1.976-4.282zm44.957-113.971.983 9.356c.104.99.247 1.947.514 2.818 1.005 3.275 2.66 5.26 4.878 8.536.107 5.252-.35 9.874-1.131 16.177l-.991-1.087c-1.062-3.146-2.414-10.003-4.044-12.636-1.245-2.008-2.43-2.907-3.227-4.406-1.245-2.341-1.556-4.818-.885-6.698zm-18.732 41.345c1.874 1.94 2.712 3.633 4.318 5.9.963 1.36 2.326 2.73 3.275 4.042 1.932 3.723 3.14 6.719 5.476 9.956.347.481.453 2.555.729 3.087l-4.362.367c-3.608-2.181-5.507-3.513-7.012-6.506-.788-1.565-.93-3.918-1.42-5.587-.929-3.165-2.334-6.859-2.922-10.392-.162-.972.765-2.06 1.918-.867zm-10.759-21.4 3.915 10.825 10.787 7.754 7.087 8.908 3.091 11.632 2.1-2.703-6.139-17.197-13.41-10.818-7.156-8.381zm22.457-12.374c.094 2.878-.786 6.533-.934 10.023-.123 2.89.344 5.67 1.492 7.8l8.792 16.298.085 1.378-30.394-28.068c5.007.283 9.594.23 13.123-1.07 3.315-1.222 6.03-4.005 7.836-6.361zm-253.29 145.79c1.494 3.332 3.69 6.438 6.195 8.634 1.267 1.11 3.125 2.052 5.065 3.362 1.327.896 2.92 2.117 3.506 3.094-.018 3.761-2.274 6.329-1.252 8.932 1.19 3.028 4.843 5.652 4.78 8.503-.054 2.41-1.187 5.106-3.947 7.13l5.895 5.853c3.204 2.051 4.32 2.968 7.562 3.128 1.524.075 2.045.728 4.908-1.82-.613-.823-1.62-1.874-2.677-2.468l-9.409-5.286c.677-1.939 1.596-4.656 2.957-5.237 1.36-.58 4.657 2.118 5.82 1.22.594-.46.904-1.306.904-2.424-5.248-2.095-10.214-5.358-12.413-9.17-2.066-3.582.313-9.682-1.556-12.92zm6.833 42.642a63.748 63.748 0 0 1-2.176-1.238c-4.042-2.408-7.91-6.804-9.944-11.965-3.39-8.602-2.943-19.341 1.12-26.59-3.124-7.093-.343-12.676 3.898-14.268a6.562 6.562 0 0 1 2.093-.408l.05-.001h.003l.127-.002H206.895l.033.002h.018l.046.001h.006l.05.002h.008l.065.004h.03l.034.003h.016l.048.004h.003l.051.004h.01l.065.006.028.002.036.003h.015l.102.01.013.002.039.004.025.003.065.008h.013l.051.008h.001l.05.007.015.002.037.005.028.004.023.003.042.007.01.001.051.008h.004l.048.009.017.003.035.006.03.006.022.004.044.008h.008l.051.01.006.002.046.009.02.004.032.007.033.007c.454.096.91.23 1.363.4 3.764-6.072 4.519-12.894 3.15-18.681-1.458-6.162-6.166-11.555-10.96-15.529-3.915-.396-5.802 1.01-6.51 4.053-.708 3.044 1.503 7.585 3.45 13.453.814 2.457.207 2.966-.606 2.957-4.598-.054-7.977-1.977-10.656-3.713-6.543-4.24-5.686-6.786-6.86-12.544-.265-1.298-2.409-1.742-3.228-2.628-.819-.886-.928-1.773-1.893-2.621-1.623-1.231-6.37-2.508-7.88-1.388-4.75 4-9.28 12.772-12.404 17.192 2.436-8.582 6.68-14.795 9.976-19.5-.617-.926-1.88-3.21-2.498-4.135-1.677-1.98-10.785 9.126-17.147 18.455 2.835-8.529 9.593-15.285 14.34-21.021 1.023-1.237-1.655-4.465-3.02-3.622-9.55 5.9-18.536 18.736-25.869 29.315 3.157-8.416 15.923-24.109 23.822-31.305 2.468-2.248 2.107-4.864 1.567-7.107-1.032-4.284-1.171-8.971-2.863-13.877-15.105-3.777-26.097-5.53-42.333-8.338 13.7.242 29.07 1.732 41.585 3.643.31-2.061 1.565-5.09-.733-6.108-11.798-5.222-25.94-8.552-45.79-9.453 18.018-2.07 31.294 1.506 44.561 5.914 2.76.916 2.835-1.438 2.652-4.092-.107-1.552-2.024-3.998-3.525-3.982-3.355.035-10.229.794-17.767 1.19 6.192-1.292 9.313-2.463 13.41-3.259 1.214-.236 1.256-.973-.419-1.354-13.67-3.114-32.165-2.13-44.774-2.469 18.314-2.152 27.81-1.605 40.4-1.1.64.026 4.503.262.607-1.856-9.069-4.93-23.635-9.344-35.453-14.016 19.27 4.181 34.584 11.298 51.916 15.21 2.768.624 2.63-2.126 1.562-3.137-6.406-6.071-12.745-9.018-21.504-14.66 9.1.806 16.962 6.08 23.262 13.079 4.32-3.557 12.495-8.083 13.1-14.709-1.607-1.264-3.12-2.54-3.78-4.074-1.242-2.884-1.581-8.683-.893-15.347 1.397-6.657 4.047-13.38 7.222-17.88.428-.657 1.094.008 1.742-.425 1.323-.884 1.54-1.445 3.296-2.252 1.973-.907 5.53-2.02 7.778-2.194 3.42-.263 14.796 2.831 19.254 6.77 1.249 2.277 2.09 7.1 1.777 9.96-1.964 4.64-5.488 8.718-11.735 12.622 2.37.162 4.739-.204 7.108-2.628-.498 5.1-1.76 7.524-6.881 12.828 1.845-.365 4.124-1.255 5.731-2.662l2.442-3.655c.253-.864.211-2.123.238-3.233.024-.983-.001-1.78.071-2.478.122-1.163.665-2.062 2.055-3.129 3.295-2.53 7.061-5.742 10.313-8.334l3.833.625c-2.1 2.046-5.92 4.518-8.021 6.564 3.244-.508 7.679-2.88 11.629-5.185 1.049-.612 2.977-1.187 5.322-.095 2.345 1.093 5.106 3.913 7.83 4.098 3.582.243 6.02-3.295 13.98-3.518-4.491 4.592-10.553 8.152-16.485 11.125-3.81 1.909-7.995 2.024-12.163 3.355-4.724 1.509-11.013 4.672-13.872 7.243 1.703-4.108 4.519-6.35 7.218-8.838 1.79-1.65 3.175-3.402 5.384-4.68 2.351-1.359 5.57-2.505 8.68-3.424-3.782.047-7.538.919-11.254 3.047-4.778 2.737-8.933 7.554-13.552 15.37-4.86.357-11.29 2.121-11.545 7.755-2.783 2.963-6.33 4.658-2.79 9.296-1.292 1.616-2.784 3.79-4.722 5.406 5.687-.287 9.73-3.901 14.513-6.8 1.872-1.135 4.095-1.926 6.217-2.72 10.016-3.745 20.544-6.605 31.695-9.786-.536-1.02-.917-2.253-2.012-2.364-7.11-.72-18.827-.542-28.441 3.091-.093-.363-.027-1.335.37-1.657 2.673-2.17 10.596-6.9 16.166-7.813 2.8-.459 5.137-.619 7.932-.146 2.568.434 4.97 1.132 6.973 1.09 2.36-.05 3.752-1.265 5.023-2.318l.113-4.864c2.993-.516 4.363-1.34 5.941-3.62 3.233-4.67 5.364-12.122 9.674-14.906 1.05-.677 2.098-1.068 3.246-.643 1.012.376 1.968 1.545 3.209 1.514 3.167-.08 6.175-4.109 10.142-4.071 1.214.01 2.531.403 3.992 1.407.767.505.367 2.297.448 3.148.068.71.332.74.812.952 2.392 1.055 8.148 3.653 15.29 6.966 6.675-1.188 11.403-6.657 12.343-11.592.272-1.431-4.263-3.448-3.552-5.914.64-2.226 2.838-2.152 5.597-2.607-3.527-5.897-7.701-12.198-8.4-17.53 6.98.94 13.564 1.512 17.528 1.374-.111 5.422-2.246 10.908-1.868 12.551.299 1.297 1.079 4.476 2.551 7.078.483-2.149.402-3.97.846-4.68 3.623-5.79 6.723-9.184 11.19-14.427.566-.664 3.6.12 3.878.947.991 2.955 1.654 5.362 2.429 7.7.47 2.42-1.315 9.362 1.33 8.602l7.518-2.16c2.712.1 6.707-.152 9.562-.518 1.257-.161 1.532-1.385-.528-1.792-3.377-.669-7.994-.297-12.16-.634l-8.136-22.037c3.14-3.15 6.178-3.733 10.907-1.985 1.71.632 3.949 1.851 6.36 2.967.937.433 1.214.489 2.286.997 1.182.56 2.696 1.825 4.063 2.464 2.154-1.05 4.937-3.026 7.791-6.338l-2.889-2.376-5.953-.091c-1.943-.233 1.686-8.706-.742-12.897-4.597-7.935-12.852-14.311-20.384-19.587.646.164 1.303.336 1.971.515 12.477 2.391 25.809 8.221 33.04 11.652 2 .95 3.252 2.224 5.01 3.401 1.366.915 2.93 1.496 4.601 2.099 1.169.42 2.977-.393 4.141.088a293.88 293.88 0 0 1 26.366 12.422c-8.805-1.817-17.288-3.088-24.922-3.51 9.79 4.642 20.393 6.103 27.384 4.928l5.594-2.472c5.765-2.1 12.452-4.108 18.566-5.706 6.667-1.741 12.087-2.733 16.43.9 3.658 3.06 5.954 5.936 6.808 10.88 2.025 11.713-1.331 27.976-1.25 34.917 3.062 4.79 9.115 14.042 12.684 23.12 1.213 3.085 1.402 5.448 1.263 8.143a72.508 72.508 0 0 0-2.787-7.347c.239-.312.51-.663.824-1.08-.357.22-.692.444-1.006.67-1.624-3.632-3.595-7.316-5.913-11.054.512 2.237 2.455 7.687 4.02 12.697-.703.76-1.21 1.55-1.546 2.38a15.83 15.83 0 0 0-.592 1.826l-.051-.266c-1.473-7.649-6.512-17.743-8.616-22.614-5.194 7.653-10.77 14.074-17.507 16.73-1.505.594-3.652 1.205-5.332 1.195-1.15-.007-1.824-.52-2.947-.678-1.08-.151-1.857.335-2.971-.203-1.025-.495-1.348-3.135-.083-3.773l-8.358-6.977-9.33-15.6-8.694.032-6.788-4.686-3.825.389-6.3-4.847-7.028-.323-3.188 3.129c-4.47-.108-6.936.075-7.96.83l4.348.948c1.318.287-3.443 7.02-3.592 9.847l-.514 9.72.992 3.152-6.757-6.522-8.158-3.13c-1.805-1.052-3.271-2.022-5.997-2.67-1.969-.467-6.411-.238-9.886.125 7.605 3.944 12.612 4.98 18.946 8.278 4.06 2.114 8.263 5.844 12.278 7.958l-.647 4.781 5.003 2.884c2.444 3.061 3.383 4.75 5.88 7.81 2.743 3.363 7.051 8.1 9.85 11.462-.437 3.703-.227 8.537-1.309 11.11-4.038-3.258-13.853-10.88-18.865-9.355-1.905.58-2.375 2.48-2.044 4.756.2 1.365.867 2.868 1.184 4.3.374 1.683-.83 2.028-.736 3.775.094 1.748 1.167 3.453.986 4.957-.143 1.184-1.07 2.254-1.77 3.118-1.344 1.665-2.725 2.406-4.133 1.803-1.549-.664-4.213-3.443-6.068-5.678-1.854-2.235-2.903-3.929-4.015-2.426-.717.969-1.124 1.642-1.301 2.195-.551 1.722 1.231 3.5 2.538 4.312.992.616 2.123 1.18 3.008 2.118 2.625 2.783 5.253 6.665 8.3 7.837 1.69.65 4.686-1.582 6.379-3.677l2.401-23.447 17.427 11.536c-5.045 11.054-12.643 19.416-23.998 24.49-1.157.518-.602 1.453.544 2.003l12.782 6.141-.854.897-17.856 3.561 14.055 2.747c1.778 10.609 5.817 26.701 9.694 37.149l-4.297-34.403c1.15-1.225 3.474-4.106 4.894-6.794 1.42-2.689 2.09-5.628 1.296-6.064l-11.853-6.5 2.69-1.644c.335.13.596.382 1.016.308 4.413-.777 10.813-2.084 13.924-.124l-.077 1.27 8.642 7.103c.89.558 1.066 1.264.205 3.508l-9.816 25.578c6.609-5.773 11.441-10.899 17.889-17.802l-3.188-25.98-24.556 2.423 13.91-11.23c-1.837-6.987-1.573-12.049 1.76-14.296 1.806 2.866 3.164 4.235 5.424 4.505 2.561.307 5.407-.796 7.824-2.728 1.616 4.227 4.2 7.648 4.04 10.905-.161 3.258-4.686 3.932-6.14 6.866l5.332 24.88c.924-7 1.45-18.364 3.23-22.295 2.613 3.067 2.345 11.245 3.535 18.62.502 3.115 1.663 6.22 2.766 8.522-.054-3.931-.43-6.893-.646-10.34.08-1.104 1.94-2.37 2.02-3.473.08-1.104-2.1-2.693-2.02-3.797.215-1.885.27-3.285.485-5.17 1.809-.042 3.175 2.193 4.356 6.055 1.843 6.024 4.209 15.64 5.337 20.28-1.023 3.284-5.033 1.69-5.331 5.007-.315 3.503 1.939 3.77 2.746 5.655l-6.623 26.172c-1.228-.918-2.232-1.78-3.05-2.592-1.106-1.101-1.597-2.96-2.126-3.928-1.163-2.127-1.45-3.174-1.363-5.158.11-2.515.848-4.013 1.768-6.692l-.024-14.317-3.217 4.15-.713 5.92-3.8-4.634-.649-2.183-1.58.21c-1.004 8.248-3.3 13.675-3.011 24.185l-1.46 4.865-4.363-11.135-.161 6.205c-3.724 3.248-6.52 3.772-11.375 5.728-1.768 4.792-.884 8.735-2.93 14.89-1.804 5.43-5.891 9.841-5.754 17.098.17 9.085 5.203 10.674 6.305 16.687 1.102 6.013-1.501 9.19-2.93 14.935-3.148 1.629-4.37 2.71-4.502 5.2l-.786.035c-3.06-3.375-4.224-13.657-6.085-19.918l-.657-24.09-6.052-4.371c.952 11.04 2.323 22.638 4.533 33.678-4.093-7.54-9.487-19.118-12.772-28.434l2.52 24.308c4.063 6.503 6.511 8.88 11.221 13.767l-3.313 9.006c-.805 2.19-2.779 2.992-4.15 2.845-2.285-.246-4.397-3.133-7.596-6.607-4.808-5.222-10.28-11.765-12.06-13.27.203-4.739.764-9.478 1.506-14.217-2 .103-3.221-.708-3.933-2.129-1.074-2.14-1.555-5.953-1.267-9.836.394-5.324 1.482-9.93 1.242-13.949-2.067-4.373-4.706-10.135-7.888-13.667l-1.203-.046c.964 7.569 1.46 14.062.74 21.216-1.446 1.217-1.206 3.628-.15 5.91l3.52 7.602c-.694 3.94-1.43 10.082-4.005 10.788-.75.205-1.725-1.772-2.848-3.627l-.23-2.505c-1.702-2.72-3.684-3.91-6.356-5.175l.28 2.483 10.009 15.083 1.557-.009 3.787-9.725.584.612-1.047 13.251c1.914 4.376 6.103 8.751 13.618 13.127l-15.38-5.332-7.974-5.713-4.915-3.187c-.751-1.098-.942-4.435-1.47-5.748-1.291-3.083-3.607-8.31-5.94-12.231-2-3.361-5.255-6.882-8.415-9.228-2.458-1.825-4.875-2.435-6.57-4.928-4.304-6.329-1.377-9.574-3.972-13.46-1.22-1.829-4.088-3.353-6.485-4.624-1.089-.577-1.639-1.104-2.672-1.582.186.948.425 1.9.514 2.852.197 2.098.205 4.207 1.116 6.315 1.703 3.943 4.136 4.506 5.707 11.797.542 2.518.018 5.383-.22 8.054-.24 2.671-.242 5.162-.472 6.965l-1.192-.092-.406-8.87c-.993-2.544-7.017-4.12-8.008-6.66-1.274-3.268.43-6.465 1.901-10.219-.924-2.37-3.342-3.394-4.355-5.883-1.14-2.8.592-5.545-2.471-9.39-.356-.447-.268-3.438.27-6.222l-8.077 15.025-27.142 28.434-23.767-2.35-22.438-15.26.418-10.155c-1.18.277-2.244.828-3.229 1.816-.581.584-1.064 1.256-1.468 1.885-.922 1.438-1.25 3.392-1.119 5.365.23 3.447 2.705 7.268 7.79 12.964l-4.117 6.5c-.544.859-.93 1.577-.32 2.855l3.71 7.77c.454 3.332 1.473 6.08 2.435 9.403a71.18 71.18 0 0 1 1.344 5.501zm-5.249-21.675 5.493 5.397c.384.707.968 2.446 1.281 4.646.212 1.49.245 2.913.44 4.65.283 2.538.76 5.433 1.349 7.571 1.588 1.293 3.295 2.057 5.287 2.703-2.551-3.258-3.952-6.007-4.216-8.79-.159-1.67.533-3.177.381-5.312-.078-1.09-.552-2.155-.728-3.235-.477-2.931-.257-6.452-.551-9.401-.177-1.77-.65-2.795-1.143-4.874l-6.807 3.091c-.754 1.077-1.109 2.262-.786 3.554zm74.705-30.888c2.638 3.339 5.008 10.046 6.336 16.154 1.668 1.806 4.242 2.352 6.081 3.963 1.867 1.635 2.53 4.313 2.04 6.708-.537 2.617-1.972 5.412-1.393 6.919-2.316.97-3.706 1.41-5.698 3.187l.97-4.846-6.514 9.098-4.59 5.075c3.096-7.647 7.07-16.334 7.975-20.657.93-4.45-3.802-4.287-3.937-6.118.355 6.47-.924 8.948-5.375 10.685.378 8.778.617 18.978-6.493 23.932l-12.409 5.126c2.478-1.777 5.067-3.82 7.432-5.61 2.966-2.247 6.25-6.181 6.943-9.705.853-4.336-1.553-6.753-1.436-9.922.117-3.17 2.638-5.54 2.91-8.138.34-3.231-1.932-3.409-2.663-5.05-.568-1.277.39-2.469 1.354-3.418 4.574-4.497 7.12-10.759 8.467-17.383zm26.334 20.27c1.435 2.116 2.128 3.275 2.497 5.715.37 2.439.416 6.018.14 8.78l10.23 4.87c-3.745-8.522-7.937-15.8-12.867-19.366zm-80.574 10.103c4.47.646 9.22 1.712 13.69 2.358 3.015 2.37 6.17 5.158 9.186 7.528 0 1.023.28 1.627.28 2.65 4.468-2.378 4.413-5.123 6.134-7.824 1.16-1.82 4.707-2.754 6.01-4.476 1.013-1.338-.072-3.647.942-4.987 1.723-.646 3.586-1.99 5.31-4.091-.497 8.091-3.235 7.673-3.892 11.563-.58 3.432.756 7.674.175 11.107-1.723.97-3.726 2.358-5.449 3.328l1.853 4c-.994 3.65-6.373 7.365-9.953 8.754-3.392.236-5.667.192-9.06-.131 3.111-1.745 5.326-3.217 5.97-4.612.83-1.793-1.326-3.519-4.599-5.2l-6.55-11.234c.445-1.313-.267-2.068-1.48-2.564-1.516-.62-4.07-.478-5.815-.964-2.418-.673-3.203-2.828-2.752-5.205zm91.258-249.67 19.714 6.244c.87.275 2.147.727 2.494 2.927-1.315 1-3.542 2.088-5.067 3.201-1.223.894-1.994 1.755-1.476 2.975l3.635 8.563c3.001.56 6.281-.172 9.283-2.197l-3.026-2.855c-.303-.286-.12-.986.888-.786 3.517.697 7.658 2.106 12.433 3.146.314.068 1.754-.003 2.07.06-2.074-1.409-2.986-2.121-3.607-3.51-1.472-3.29-1.498-8.827-2.864-10.709-.852-1.173-1.666-2.28-3.825-3.55l-8.606.25-.161-3.598-12.798-2.226c-1.674-.276-2.281-.123-3.896.386zm100.864 71.774c-10.668-2.403-20.204-4.945-24.6-7.109l-.28 3.782c3.396 1.916 7.102 3.169 10.913 4.216 2.143.59 4.538 1.192 6.861 1.69 2.988.642 5.86 1.204 7.936 2.311.807 4.495-.044 11.08-.83 15.414l-1.1.087-9.702-8.48c-7.37.275-13.536 1.641-16.165 4.07l.053 1.52c4.9 1.049 9.273 2.085 14.98 4.685.76 1.87 1.825 3.092 3.036 4.62 2.314 2.92 5.03 5.017 7.326 8.51l-1.196 5.589c-2.538-3.942-5.496-8.163-8.454-11.825 1.732 5.387 3.759 8.663 4.788 12.964.538 2.253.672 4.29-.513 5.733-7.507-.815-5.238-12.3-11.542-19.003-1.606-1.708-3.905-3.107-6.53-3.938-4.11-3.123-7.877-7.54-12.139-13.247.856-3.857-3.23-6.51-2.374-12.141.866-5.707 6.66-11.508 8.557-16.337h1.938c7.588 3.357 22.71 6.207 27.457 12.21 1.095 1.384 1.787 2.728 1.58 4.679zm4.524.843-3.012 43.842-.488.103-.076.889c3.136 4.16 7.924 7.768 14.077 11.067l-1.454 5.896-.463 7.27c3.716 3.58 7.162 9.785 10.017 21.767l-.647-23.705 1.089.662-.053.592 4.532 1.17c-1.399-12.885-4.207-19.58-6.413-23.741l-.738.027c-2.804-4.532-6.12-8.528-9.785-12.628-.356-4.79 1.077-9.578 2.88-14.366-4.771-5.636-6.31-12.564-9.466-18.846zm-131.368-58.994L259.08 294.28c5.203-.946 9.908-1.423 13.984-.994 3.17.334 5.961 1.273 8.311 2.61l14.269.079c2.01.283 2.81 2.263 3.306 4.666.475 2.303.092 4.51.46 5.793.287.999 1.403 2.408 3.474.933l-1.125-9.93c-1.006-1.807-1.174-3.753-1.342-5.558 1.548 2.02 2.818 4.04 6.564 6.06 2.666.74 5.978 1.233 7.998-1.58l-8.875-6.057c-2.155-1.657-6.716-3.722-8.835-4.545-1.785-.694-3.95-.035-5.025-1.217-1.121-1.232-.9-2.908-.25-5.717zm-66.782 37.074c-1.107 3.581-3.224 6.381-5.605 8.36-.787.656-1.442 1.114-2.455 1.361-1.287.316-2.084-.391-1.546-2.417.584-2.2 1.549-4.064 2.902-5.921 2.107 1.402 4.382.288 6.704-1.383zm41.38-3.685c-3.687 3.235-6.554 6.547-8.732 9.997-.689 1.091-2.123 1.593-3.473 1.385-1.733-.266-3.79-1.391-4.977-.758-2.102 1.121-2.007 2.925-3.786 4.583-2.966 2.763-8.995 6.496-11.262 7.05-.202.05-.404-.203-.345-.403 2.013-6.86 6.394-11.303 8.22-13.25 1.111-1.185 2.512-2.188 4.07-2.783 2.432-.929 5.25-1.067 7.955-.901.53.032 1.999-.846 2.524-1.227 2.125-1.54 5.634-4.474 9.807-3.693zm-51.051 21.164 7.668-7.348.894-1.941c1.937-.93 3.302-2.169 3.515-2.51.553-.887.386-2.253.686-4.114l1.292-2.989 7.27-.485c2.962-1.346 5.219-2.854 9.473-4.039 1.13 3.043-.272 4.838-2.768 5.736-2.697.97-8.844 2.488-10.348 3.674-1.373 1.083-.43 4.888-.95 7.157-.57 2.492-4.122 4.727-6.635 5.324l-9.855 2.343c-.679.161-.748-.323-.242-.808zm-1.05-33.684c.18 3.187.09 5.574.387 7.365.573 3.45 2.35 6.322 3.813 7.094l4.163-7.512c1.428 1.615 3.053 4.55 3.834 8.32l.889-1.777.484-9.017c.058-1.076.566-2.158 1.616-2.858l.162-4.847c-6.429.007-10.859.694-15.348 3.232zm46.609-26.9-1.05.889c-2.474.699-5.822 1.345-8.689 1.958-2.866.614-5.816 1.68-8.624 2.25-2.031.412-4.27.469-5.952 1.022-2.167.929-3.828 1.992-5.851 4.094-1.352 1.405-2.16 3.115-2.07 5.298l.167 4.038-6.705-.162-1.05-2.1h-1.858l-.698 1.645-3.318 2.271-3.496.446-2.343 4.928 1.858 1.534 1.939 5.978-7.028 1.05-2.181-5.978c-.842-2.309-.352-4.466 1.394-6.432 1.359-1.53 3.67-2.946 5.472-4.23l1.616-4.12 7.189-2.504c1.858-1.616 3.901-3.91 6.543-5.17 2.085-.995 6.125-1.93 9.433-3.035 5.703-1.903 11.877-4.298 14.397-4.154zm30.916-6.44c1.83 1.968 2.208 4.258 2.585 5.903-2.746 3.07-5.525 4.038-9.672 4.253l-3.715 2.834-7.1 1.043c-4.793 2.478-12.054 6.854-18.544 9.502-1.137.463-2.402.428-3.533-.057-2.8 6.193-5.686 7.723-13.71 8.746-1.548-3.931-1.77-7.723-2.026-11.654 3.465-3.396 7.657-1.528 12.065-2.522 2.825-.638 4.935-1.498 7.872-3.045.4-.857 2.674-3.652 4.205-4.347 5.47-2.482 11.747-2.703 17.216-5.185 1.293-.916 2.306-1.831 3.458-2.746 4.051 1.555 7.727-.765 10.899-2.725zm3.21 44.157c-3.69-6.41-14.093-10.821-24.029-12.924l-17.5 3.964-1.468-5.33c-7.032 3.177-13.44 4.413-19.592 9.068-1.401 1.06-2.162 4.193.035 5.729 5.27-1.237 10.628-4.9 14.767-8.563l1.08.208 5.553 9.713c3.608-2.64 8.293-4.847 14.055-6.624 6.517-.054 15.09 2.229 27.098 4.76zm5.536 4.773c-12.455-1.943-16.409-2.214-22.829-1.335-3.744.513-9.531 1.928-10.123 5.785-.196 1.284 1.5 2.571 2.946 4.361 5.927-3.129 14.271-5.618 19.753-3.731 3.998 1.376 6.97 9.577 8.445 12.735.593 1.27 3.137.958 5.194-.105 2.058-1.063 3.63-2.878 3.4-3.493-2.268-6.042-3.986-9.91-6.786-14.217zm-17.721-62.365c7.751-1.162 19.708.105 28.108.518 2.161.106 4.28.198 6.422.316 8.183 1.875 16.14 4.777 20.672 5.309l3.476 2.305c-3.336.954-9.326-1.12-13.923-1.817-3.574-.542-6.908-.506-9.56-.16-5.024.657-8.313 2.498-11.841 5.811 5.068 2.798 12.066 4.661 18.924 7.013 1.778 1.83 4 4.5 4.846 6.331l-17.924-1.712-.864 1.242 20.404 7.482c1.992 3.662 4.266 8.25 3.458 11.266.754.484 3.345 2.419 2.541 4.008-.668 1.323-2.762-.091-4.154-.501-1.056-.312-2.112-.085-3.112-.544-5.25-2.41-11.725-7.652-16.99-13.26-8.076 1.125-14.179-3.622-14.172-7.129.006-3.593.03-6.27-.423-8.316-1.157-5.23-3.888-6.354-6.555-8.174a10.256 10.256 0 0 0-6.34-1.745c-3.213.19-5.854 1.885-9.045 2.263-3.922.466-8.986-.66-11.77-2.586l5.77-4.37c4.59-.526 8.248-1.908 12.052-3.55zm-84.3 97.466c-1.635 2.166-2.08 2.574-2.985 4.782-1.726 4.216-1.312 9.861-4.442 13.754 1.05-3.232 1.541-10.279 2.982-13.842.689-1.703 2.103-3.24 4.445-4.694zm277.023 3.65c.85 2.81 1.523 5.368 1.677 6.984-1.067 4.68-3.103 10.653-4.008 13.556.452-6.235.69-9.832.363-13.538.394-2.052.741-4.089 1.47-5.87.18-.439.342-.807.498-1.131zm-110.484-83.9 18.522 29.412 10.2 7.746-.183-1.973c-.162-1.742 1.718-2.157 3.04-2.01 2.064.23 4.264 2.225 7.739 2.403.892.046 3.71-.693 4.856-1.371l10.052-5.956c-7.528 2.377-14.465 2.564-20.808-.55-6.342-3.116-12.095-9.12-17.254-17.728l-4.912-2.418-2.009-3.92zm-27.037 66.011 9.16 5.093 1.223.391c8.724 9.586 17.728 20.29 26.452 29.876-6.032-.108-13.041-.216-19.073-.324-.538 8.994-.164 12.656-2.156 15.833-2.37.646-7.259 1.292-8.174 2.585.053 2.046 5.696 1.83 7.366 4.685 1.56 9.128 7.84 19.564 15.435 27.4-.909 2.153-4.628 2.21-6.921 2.578-2.386.385-1.877 1.175-.984 2.704l7.55 11.493 3.185 13.178.864 1.13.882 22.283c-1.47-4.108-2.455-9.831-3.923-13.938-2.89-8.078-5.444-16.476-8.466-24.114-1.007-2.546-2.498-4.29-3.496-6.868a469.154 469.154 0 0 1-4.266-11.407l-2.868-1.983-2.942-.355.383 2.94c.276.734.833.91 1.109 1.643 4.153 11.005 9.107 23.85 12.278 34.695-8.633-13.928-11.073-14.701-14.898-20.713-1.672-2.628-.263-5.221-1.161-8.472-2.047-1.724-2.735-3.168.226-4.89-.107-.647-.311-.734-.419-1.38-11.794-9.775-23.587-18.186-31.342-21.605l-2.55-4.167-1.07.01c-6.57 5.708-11.039 5.815-20.194 1.615-.488 5.905 4.73 7.153 11.203 9.591 1.106.417 2.75 1.096 2.528 2.517-.142.906-.777 2.005-.95 3.397-.278 2.227.625 5.206 2.137 5.988 19.892 10.294 26.178 13.524 36.134 22.45.754 1.579 1.816 3.496 1.414 4.776 2.606 5.723 5.587 10.104 8.602 17.196l-.904.587c-.48.313-7.831-7.034-11.6-9.861-3.07 4.954-2.197 9.166-2.52 13.798-.665 3.22-6.197-5.046-7.86-2.32-.783 1.284-1.28 4.581-.575 8.332 1.099 5.853 2.303 10.717 3.147 14.99-1.885 1.508-2.447 4.588-3.362 7.711-1.723-12.603-4.353-20.062-7.99-20.269-2.32-.132-4.18.093-6.55.839-.128 5.277-.117 9.996.314 15.273l-1.355-.558c-3.798-6.682-7.209-15.336-9.694-23.3-.74-8.366-1.328-15.59-2.77-21.377-1.538-6.16-3.689-10.114-7.41-12.829 2.166.42 7.039-.03 9.2 4.501 1.099 2.307 1.725 6.348 2.644 10.62 1.259 5.854 2.565 12.146 3.18 15.016 2.626 2.867 6.26 6.332 9.664 5.984 1.734-.176 4.056-1.07 5.492-3.334 1.846-2.91 2.067-6.625 3.974-8.15 1.836-1.47 4.546-.224 7.043 1.806.196-3.788-.395-14.56-1.15-18.73-1.95-3.491-5.318-8.68-6.767-9.425-1.009-.518-2.35.393-2.506 1.821-.202 1.836.907 4.533.424 6.144-.588 1.96-3.208.261-4.022 1.649-1.767 3.013-3.836 6.01-5.161 8.686-2.135-1.22-2.198-3.728-1.771-6.7.625-4.344 2.34-9.682 2.206-13.443-.134-3.798-2.84-5.883-5.527-5.465-7.349 1.143-15.93 2.426-18.84.147-1.4-1.095-.04-3.872.877-4.743 1.178-1.121 4.15.515 5.24-.697 1.616-1.239 3.316-4.518 3.554-6.462.121-.984-4.313-2.883-8.433-5.09-5.297-2.84-10.994-6.2-15.477-8.804-.108-5.062 1.182-9.705 1.074-14.767 5.77-1.425 10.77-3.007 23.53-.62 1.692-.94 2.324-1.703 4.293-1.79 2.908 1.4 5.117 2.1 8.025 3.5 2.414-1.893 6.192-5.66 6.165-8.421-.022-2.148-1.328-4.02-4.226-5.681.905-2.504 2.53-6.96 1.991-9.895-2.208 1.023-5.835 2.562-9.336 1.485-.107-.431-.215-1.141-.323-1.572 2.962-1.551 5.74-3.103 8.54-5.213-.03-.781.058-3.274.56-4.474 2.199-2.68 5.957-5.197 7.798-6.658 1.104-.877 1.29-1.706.428-1.793-4.79-.482-9.96-.42-14.592 0 6.57-3.036 13-4.792 19.57-5.545 1.62 8.245 2.732 21.265 1.11 20.893-3.946-.906-6.277-.84-8.647-1.13-1.454 3.984-1.34 7.13 1.407 11.116-2.1 7-2.725 10.543-3.048 18.513l18.557 8.724-16.435-3.361c-.108 6.893 4.343 6.022 10.051 7.099 3.608 3.877 16.393 16.611 16.444 10.235l.088-10.89c.009-1.153.424-2.165-1.528-2.818-1.738-.581-4.407-.75-7.32-2.835-1.192-.853-2.41-2.185-3.585-3.801-.915-1.257-.965-3.385-2.636-4.195.765-.435 1.866-.566 3.118-.06 1.106.446 2.332 1.484 3.55 1.926 1.702.617 4.031.938 5.317.375 3.181-1.393-8.663-16.6-10.12-19.279l4.156-1.056 13.248 9.693-6.192-9.23c-.538-2.047 2.679-3.395 17.65 1.829l1.911.031-14.984-12.663c-3.77-6.247-8.832-13.603-12.602-19.85zm-21.657 53.864c-9.495-6.891-27.988-5.757-32.788-4.191-3.21 1.047-.872 2.98.162 3.554 4.478 2.487 9.794 4.504 14.981 4.75.899.043 3.184-.824 4.902-1.712 1.718-.889 2.87-1.799 4.298-1.84 3.752-.107 4.723 1.64 6.638 1.457.817-.077 3.901-.497 1.807-2.018z" style="fill:#1b2e33;fill-rule:evenodd" transform="translate(-74.473 -137.475)"/><path d="M187.815 422.401c1.45 0 3.184 1.375 3.184 3.21 0 2.26-1.175 3.349-2.904 3.349-1.59 0-2.905-1.934-2.905-3.629s1.455-2.93 2.625-2.93zm102.446-77.95c-6.405 3.463-10.245 4.051-14.232 3.994-6.222-.089-10.811-3.93-10.054-10.221-.646-.945-1.45-1.294-2.716-1.454-1.746 2.582-5.11 10.815 2.913 15.278 1.757.977 4.204 1.243 7.2 1.825l-7.234 2.054c-8.15-1.252-11.167-1.717-18.97 3.439 2.54-.448 6.235-1.567 9.141-1.504 5.68.124 11.33 1.305 16.748 1.595 4.489.24 8.8-.221 12.885-1.143 5.168-1.167 11.934-3.722 15.466-10.881-1.832-2.73-4.243-3.069-7.056-1.63-1.985 1.016-3.888 2.703-5.589 4.125-1.727 1.445-3.591 2.916-6.419 3.644-2.343.603-3.397-.51-3.392-1.616 3.77-1.507 8.024-3.063 11.309-7.506zm-8.622-15.678c-1.44 1.467-3.078 2.733-5.595 3.554-.075 1.954-.825 3.744-.103 4.966.705 1.193 4.033 4.229 4.86 4.53 1.546.563 4.608-3.785 3.041-7.998 1.05-.458 3.408-.06 5.75-.087-1.84-2.003-4.592-4.529-7.953-4.965zm-77.671-.749c.557 1.678.48 2.05.23 3.373-.324 1.715-1.696 4.333-3.692 6.547-.82.909-2.492 1.643-3.787 2.703.177 6.292-3.167 6.392-6.925 6.698l-.147 2.777c-1.015.455-1.917 1.106-2.762 2.062-1.732 1.959-2.688 3.304-4.985 6.676l-.367-1.542c.909-1.287 1.59-2.186 2.264-3.511.524-1.03.878-2.18.902-4.113-2.132-.074-4.526-1.5-6.315-3.833-2.027-2.644-3.74-6.46-3.727-10.798.01-2.953 1.3-6.275 2.815-9.323.342-.877.311-1.529.567-2.034.256-.506.803-.871 1.18-1.172 1.352-1.075 2.855-1.848 4.641-2.212-1.265 1.265-3 2.581-3.62 4.17 2.882.996 7.453-1.698 11.58-1.756 1.574-.022 5.103 3.172 6.126 6-1.13 1.938-4.27 3.872-4.37 3.392-.174-.831-.02-1.36-.315-2.105-.887-2.237-2.546-3.886-4.62-3.636-4.762.574-5.993 6.88-4.12 10.221 1.803 3.214 7.38 4.369 10.26 3.458 1.794-.567 1.46-2.164 3.067-3.537.842-.719 1.753-1.378 2.587-1.86.998-1.096 2.922-4.076 3.533-6.645zm-23.566 3.738c-.78 3.5-.776 9.572 1.234 10.948 1.46 1 8.034.975 11.346.302-4.39-.068-7.76-.911-9.834-2.81-2.072-1.897-2.826-4.63-2.746-8.44zm114.382 106.465c1.239 6.786.323 15.294-2.746 25.526-6.053 7.378-11.233 20.16-18.92 31.182-6.17 8.85-14.736 17.539-22.923 19.451-7.959 1.86-17.044-1.047-25.742-5.142-5.237-2.466-10.38-5.32-14.406-8.46-2.51-1.958-5.444-4.51-6.719-7.634-.89-2.185-1-5.038.2-7.122 1.114-1.935 3.314-3.443 6.33-2.931-1.902 1.938-2.501 3.11-2.428 4.774.155 3.503 4 7.042 9.161 10.042 5.08 2.953 11.398 5.542 17.715 7.188 5.935 1.546 11.906 2.542 15.867 1.53-5.035-6.449-6.92-10.765-4.2-15.059 3.284 2.35 5.373 4.147 7.28 5.066 4.873 2.352 6.112.4 6.13-1.028l.064-5.038c14.092-1.172 15.595-6.886 14.981-13.248l3.384-2.17c2.535-3.675 6.701-11.08 8.423-15.055.98-2.26 1.392-4.531.816-6.803 3.34-3.985 3.748-9.468 7.733-15.069zm-76.674 11.148c7.927 2.417 16.177 4.401 22.164 4.663-3.743 5.547-4.764 11.84-4.2 16.771.035.312-.022 1.157-1.25.441-5.378-3.136-7.693-10.911-8.907-17.234-.223-1.163-3.735-1.182-5.65-1.863-1.308-.466-2.064-1.201-2.157-2.778zm-34.359 1.755c-1.043 2.087-.73 4.27 1.231 6.746 2.089 2.635 6.1 5.533 9.022 6.458.2.063.586.057.506-.14-1.163-2.843-2.676-6.34-2.96-9.854-.312-3.848-5.56-3.486-7.799-3.21zm-.118-47.153c5.36 2.208 10.894 3.016 16.684 1.778 6.378-8.6 8.925-16.84 15.345-21.614 7.75-5.763 18.496-8.555 29.018-8.047l-3.974 8.99-1.743.173c-1.958 1.114-2.946-.17-5.387-2.033-2.378-.282-4.757.134-7.135.83-10.222 6.596-19.903 16.977-24.521 24.814.679 6.218.136 11.263-1.813 15.539-2.074 4.552-5.819 8.191-11.789 10.912l.118 3.306c20.48 4.508 43.605 10.84 57.914 10.615 4.01-.064 8.136-.817 10.655-2.479 2.519-1.662 3.438-4.238 2.721-6.83l-6.903.279-.323-2.79c5.243-2.618 9.428-4.888 13.009-7.64 2.149-1.65 3.242-3.755 5.893-5.651v-2.424c-6.692-1.87-4.154-6.552-6.16-10.038 3.284.067 8.53 4.24 9.714 7.755.97-1.508 1.583-4.498 2.512-6.533.928-2.036 3.032-3.582 4.702-2.934l8.118 3.153 2.073-.32-6.624-5.418c-2.585-.7-5.47-.182-7.335-2.1-.99-1.019-1.295-3.9 1.122-3.297 1.96.49 3.186 2.317 5.986 3.825l4.428.14c-6.818-7.062-9.112-18.324-11.729-23.124-3.85-5.048-8.204-8.448-12.182-10.34h-8.24c-2.795 5.062-7.339 9.143-12.858 10.759l2.83-8.356c.317-.935-.286-1.569-1.267-1.617-13.076-.65-23.739 2.195-31.097 6.754-9.167 5.681-14.256 14.245-19.27 23.317zm91.11-20.054c1.322.014-1.56-2.563-4.524-3.775-3.18.045-5.526.092-8.489.136-1.892.028-2.212.353-3.62 1.648-2.567 2.36-5.198 4.75-8.863 6.595-.174.087.112.517.301.565 4.168 1.06 8.326-3.128 12.418-5.551 4.632-.081 8.874.338 12.776.382zm-28.991 5.272c-.729-.34-1.43-.242-2.29-.042-1.963.457-3.93 1.308-5.838 2.211-2.616 1.239-5.127 2.703-7.382 4.52v3.004c-2.06 2.262-3.61 4.395-4.81 6.44 1.401 2.236 2.576 2.903 4.083 2.284 1.32-.54 2.681-2.176 4.082-4.903 1.112-2.164 3.561-1.925 6.096-3.05l5.487-6.578c.675-1.538.623-2.51.572-3.886zm-22.655 18.498c-3.09 1.806-2.792 5.365-1.439 5.897 1.077.424 2.502-.448 2.989-1.498 1.153-2.488-.322-5.117-1.55-4.399zm-4.443 5.552c-1.262.713-1.97 1.422-2.267 2.518-.23.853-.213 2.052-.017 2.96.274 1.267 3.159-.562 3.65-1.762.48-1.17-.265-4.338-1.366-3.716zm-2.063 12.682c.864-1.61 5.36-.484 4.303 1.882-.295.66-1.976 1.133-3.163.735-1.44-.483-1.606-1.748-1.14-2.617zm31.32-12.24c.458-.856 1.935-2.74 3.8-3.117 1.457-.294 2.69.114 2.625 1.325-.131 2.436-2.533 4.123-3.772 4.29-2.408.324-3.118-1.632-2.653-2.499zm11.84-5.213c-.263-.855.485-1.769 1.42-2.313.937-.544 2.06-.72 2.552.455.277.664-.312 1.675-1.392 2.305-1.311.766-2.29.492-2.58-.447zm-4.017 17.183c-.264-.854.462-3.362 1.883-4.471.854-.667 4-.924 4.49.25.278.662.796 3.392-.767 4.265-1.324.74-5.317.895-5.606-.044zm-13.064 5.068c.221-1.661 1.481-3.5 2.427-4.024 2.146-1.191 5.409-.579 5.738.191.283.66-1.4 3.37-2.478 4.001-1.31.766-5.817.805-5.687-.168zm.184 12.763c-.17-.876.463-2.408 1.839-2.872 1.025-.345 2.2-.718 2.691.456.277.662.323 2.21-.804 2.746-.466.22-1.352.234-2.144.213-.792-.02-1.491-.074-1.582-.543zm-22.487-10.128c.637-1.133 2.928-1.419 4.452-.58 1.042.574 1.811 1.764 1.66 2.791-.216 1.48-2.892 2.044-4.463 1.532-1.943-.635-2.36-2.477-1.649-3.743zm12.059-1.645c1.164-.353 2.893-.193 4.042-.035 1.035.14 1.723 1.28 1.012 2.323-1.036 1.522-3.302 3.028-5 2.475-2.492-.81-2.29-4.084-.054-4.763zm-7.273-5.604c-.465-1.086 1.043-3.467 3.312-4.362 1.607-.634 2.788-.176 3.298.784.544 1.023.328 2.6-.94 3.4-.739.468-2.435 1.127-3.595 1.22-1.16.092-1.789-.376-2.075-1.042zm11.008-5.39c-.432-1.1-.755-3.168 1.513-4.061 1.605-.633 5.466-.66 5.759.387.948 3.393-.958 4.917-2.927 5.236-1.243.2-3.706.064-4.345-1.563zm209.01-111.05a283.956 283.956 0 0 1-6.73 5.206c-2.512 1.89-5.057 3.617-7.576 5.45-2.517 1.832-5.01 3.633-7.416 5.671.195 5.17 1.81 9.641 3.402 14.81l6.872 7.432 5.17 2.1c4.68-.494 8.948-3.3 12.566-7.306a39.446 39.446 0 0 0 5.765-8.338c4.247-8.183 5.489-20.052 5.646-29.198.151-8.82-1.712-16.163-6.046-19.871-3.123-2.672-6.395-2.89-10.248-1.654-5.133 1.647-11.416 6.124-17.201 11.446-5.874 5.404-11.243 11.943-14.392 15.986-1.297 2.586-1.797 4.925-.625 6.646.679.69 2.865.722 6.419-.463 3.608-1.777 7.282-7.658 11.374-9.274 5.709-.727 10.76-.931 13.02 1.358zm-268 90.59c-5.143-3.476-6.495-4.632-6.962-6.885-1.067-5.14 5.446-10.576 5.303-15.387-.07-2.32-2.991-1.642-3.932-.322-1.788 2.506-3.735 4.56-5.668 6.486-1.603 1.597-3.242 2.992-3.773 5.219-.485 2.034-.968 5.031-1.627 7.574-.747 2.883-1.645 5.35-1.59 8.087.061 3.09 3.185 5.613 2.718 8.271-.767 4.358-.7 6.084.374 9.663.42 1.4.971 2.885 1.418 4.199.575 1.69 1.072 3.47 1.864 5.11 1.03 2.129 2.358 3.912 3.84 6.085 1.482 2.174 3.12 4.601 5.332 7.18 1.158 1.35 5.055.854 7.011-.633 1.521-1.155 1.915-2.78 1.486-4.096-1.412-4.333-7.282-10.833-9.187-13.409-.73-.989-.134-1.694.485-1.938 1.504-.592 3.345.916 5.17-.081 1.518-.83 1.559-2.213.97-3.15-.752-1.196-2.112-1.774-3.76-1.293-1.069.312-1.876 1.67-2.638 2.561-.593.694-1.159 1.051-1.799.773-3.314-1.444-6.219-5.244-6.9-9.72-.682-4.478.088-10.258 2.414-14.573 1.38-2.56 5.412-1.201 9.45.28z" style="fill:#fff;fill-rule:evenodd" transform="translate(-74.473 -137.475)"/></svg>