<svg xmlns="http://www.w3.org/2000/svg" width="283.352186401" height="352.917693242" viewBox="0 0 501 624"><path fill="#de2c37" stroke="#de2c37" stroke-width="0.09375" d="M7.1 5.8c25-.1 50-.2 74.9 0 .3 7.7 0 15.4.2 23 9 .1 18 0 27 .1.2-7.7.1-15.4 0-23 25.5-.2 51-.5 76.5.1-.1 7.6-.2 15.2 0 22.9 9-.1 18 0 27-.1-.1-7.7-.1-15.3.1-23 25.5-.2 51.1-.1 76.6 0-.2 7.6 0 15.3-.1 23 9.5 0 18.9.1 28.4-.1-.1-7.5-.1-15.1 0-22.6 25.2-.8 50.7-.4 76-.2 0 7.7-.1 15.3.1 22.9 9.6 0 19.2.1 28.9 0-.3-7.7-.2-15.3-.1-23 24.6-.1 49.1-.1 73.7 0 .1 42.8.1 85.6-.1 128.4-8.5.2-17.4-.2-25.3 3.6-8.5 3.8-14.4 12.8-14.2 22.2.1 123.6-.1 247.3 0 370.9-3.9 1.8-7.7 4-11.9 4.9-.5.3-1.4.8-1.8 1-1.5 1.1-3.3 1.8-5.2 2-.4.3-1.3.8-1.8 1-1.5 1.1-3.3 1.9-5.2 2.1-.4.2-1.3.7-1.8.9-4.6 2.3-9.3 4.7-14.2 6-.5.3-1.4.8-1.8 1-1.5 1.1-3.3 1.8-5.2 2-.4.3-1.3.8-1.8 1-1.5 1.1-3.3 1.9-5.2 2.1-.4.2-1.3.7-1.8.9-4.5 2.4-9.3 4.6-14.2 6-.5.3-1.4.8-1.8 1-1.5 1.1-3.3 1.8-5.2 2-.4.3-1.3.7-1.8 1-16.9 7.6-33.9 15.4-51.2 22-.5.3-1.4.8-1.8 1-1.5 1.1-3.3 1.8-5.2 2-.4.3-1.3.8-1.8 1-1.5 1.1-3.3 1.9-5.2 2.1-.4.2-1.3.7-1.8.9-2.2 1.4-4.6 2.5-7.2 3-.5.3-1.4.8-1.8 1-1.6 1-3.4 1.8-5.2 2-.5.3-1.4.8-1.8 1-3.9 2-7.9 4-12.2 5.1-.4.2-1.3.7-1.8.9-2.2 1.4-4.6 2.5-7.2 3-.5.3-1.3.8-1.8 1-1.6 1-3.4 1.8-5.2 2-.5.3-1.4.8-1.8 1-3.9 2-7.8 3.9-12 5-4.9-1.4-9.5-3.8-14-6-.5-.2-1.4-.7-1.8-.9-1.9-.2-3.7-1-5.2-2.1-.5-.2-1.4-.7-1.8-1-7.2-2.4-14.3-5.7-21.2-9-.4-.2-1.3-.7-1.8-1-4.9-1.4-9.6-3.7-14.2-6-.5-.2-1.4-.7-1.8-1-1.9-.1-3.6-1-5.2-2-.4-.2-1.3-.7-1.8-1-12.6-4.8-24.9-10.5-37.2-16-.4-.3-1.3-.8-1.8-1-2.6-.5-5-1.7-7.2-3-.5-.2-1.4-.7-1.8-1-1.9-.2-3.6-1-5.2-2-.5-.2-1.3-.7-1.8-1-4.9-1.4-9.6-3.8-14.2-6-.5-.2-1.4-.7-1.8-.9-1.9-.3-3.7-1.1-5.2-2.1-.4-.2-1.3-.7-1.8-1-12.6-4.7-24.9-10.6-37.2-16-.5-.2-1.3-.7-1.8-1-4.9-1.5-9.6-3.7-14.2-6-.4-.2-1.3-.7-1.8-1-.7-.2-2.1-.7-2.8-1 .6-45.9.1-91.9.2-137.8-.1-9.8.4-19.6-.2-29.3-.3-67.2-.2-134.5-.1-201.7 1.2-10.8-5.9-20.7-15.3-25.3-.4-.2-1.4-.6-1.8-.9-7.3-1.7-14.7-1.5-22-1.6 0-42.8 0-85.6-.1-128.4m9.2 8.5c.2 36.8.2 73.7 0 110.5 8.5.9 17.4 2.1 24.4 7.5 8.2 6 15.1 15.2 15.4 25.7.1 122.3.2 244.6.2 366.8C121.2 553 186 581.4 251 609c65.7-27.6 130.9-56.7 196.6-84.4V155c2.1-18.7 21.5-30.5 39.2-30-.1-36.9 0-73.8 0-110.7-18.5.1-37 .1-55.5 0 0 7.9.1 15.8-.1 23.7-15.7 0-31.4.2-47.1-.1 0-7.9.3-15.8-.1-23.7-19.1.2-38.1.2-57.1 0-.5 7.9-.3 15.8-.2 23.7-15.5.3-31.1.2-46.7 0-.2-7.9.1-15.8-.2-23.6-19.1.1-38.3 0-57.5 0 .1 7.9.1 15.8 0 23.7-15.4.1-30.8.2-46.2-.1-.1-7.9.2-15.8-.3-23.6-19 0-38 .1-57-.1-.4 7.9-.2 15.8-.1 23.6-15.6.5-31.2.2-46.8.2-.2-7.9 0-15.8-.1-23.7-18.5.1-37 0-55.5 0Z" opacity="1.00"/><path fill="#fefefe" stroke="#fefefe" stroke-width="0.09375" d="M289.4 5.8c.4 7.6.1 15.2.2 22.9 9.2.1 18.5.2 27.7-.1.3-7.5-.5-15.1.4-22.5-.1 7.5-.1 15.1 0 22.6-9.5.2-18.9.1-28.4.1.1-7.7-.1-15.4.1-23Z" opacity="1.00"/><path fill="#fefefe" stroke="#fefefe" stroke-width="0.09375" d="M16.3 14.3c18.5 0 37 .1 55.5 0 .1 7.9-.1 15.8.1 23.7 15.6 0 31.2.3 46.8-.2-.1-7.8-.3-15.7.1-23.6 19 .2 38 .1 57 .1.5 7.8.2 15.7.3 23.6 15.4.3 30.8.2 46.2.1.1-7.9.1-15.8 0-23.7 19.2 0 38.4.1 57.5 0 .3 7.8 0 15.7.2 23.6 15.6.2 31.2.3 46.7 0-.1-7.9-.3-15.8.2-23.7 19 .2 38 .2 57.1 0 .4 7.9.1 15.8.1 23.7 15.7.3 31.4.1 47.1.1.2-7.9.1-15.8.1-23.7 18.5.1 37 .1 55.5 0 0 36.9-.1 73.8 0 110.7-17.7-.5-37.1 11.3-39.2 30v369.6C381.9 552.3 316.7 581.4 251 609c-65-27.6-129.8-56-194.7-84.2 0-122.2-.1-244.5-.2-366.8-.3-10.5-7.2-19.7-15.4-25.7-7-5.4-15.9-6.6-24.4-7.5.2-36.8.2-73.7 0-110.5m5.9 5.9c-.2 33.2-.1 66.4-.1 99.5 18.4 1.2 37.5 14.4 40.6 33.3.1 122 0 244 .1 366-.2 1.5.3 3 1.9 3.3 62.2 27 124.1 54.4 186.3 81.3 63.4-27.3 126.6-55.1 189.9-82.6.4-121 0-242 .2-363.1.7-20.7 19.6-37.2 39.8-38.3.3-33.1.2-66.2 0-99.4-14.6.2-29.1.1-43.7 0 0 7.9.4 15.7-.2 23.5-19.6-.2-39.2-.1-58.8 0-.1-7.8.2-15.6-.2-23.5-15 .1-30.1.1-45.1 0-.4 7.8-.2 15.7-.2 23.5-19.5-.1-39-.2-58.5 0-.3-7.8.1-15.6-.3-23.5-15.2.1-30.5.1-45.7 0-.2 7.9.3 15.7-.3 23.5-19.3-.1-38.5-.2-57.8 0-.6-7.8-.1-15.6-.3-23.5-15.2.1-30.4.1-45.6 0-.2 7.9.3 15.7-.3 23.5-19.2-.2-38.5-.2-57.8 0-.5-7.8-.1-15.6-.3-23.5-14.5.1-29.1.1-43.6 0Z" opacity="1.00"/><path fill="#de2c37" stroke="#de2c37" stroke-width="0.09375" d="M22.2 20.2c14.5.1 29.1.1 43.6 0 .2 7.9-.2 15.7.3 23.5 19.3-.2 38.6-.2 57.8 0 .6-7.8.1-15.6.3-23.5 15.2.1 30.4.1 45.6 0 .2 7.9-.3 15.7.3 23.5 19.3-.2 38.5-.1 57.8 0 .6-7.8.1-15.6.3-23.5 15.2.1 30.5.1 45.7 0 .4 7.9 0 15.7.3 23.5 19.5-.2 39-.1 58.5 0 0-7.8-.2-15.7.2-23.5 15 .1 30.1.1 45.1 0 .4 7.9.1 15.7.2 23.5 19.6-.1 39.2-.2 58.8 0 .6-7.8.2-15.6.2-23.5 14.6.1 29.1.2 43.7 0 .2 33.2.3 66.3 0 99.4-20.2 1.1-39.1 17.6-39.8 38.3-.2 121.1.2 242.1-.2 363.1-63.3 27.5-126.5 55.3-189.9 82.6-62.2-26.9-124.1-54.3-186.3-81.3-1.6-.3-2.1-1.8-1.9-3.3-.1-122 0-244-.1-366-3.1-18.9-22.2-32.1-40.6-33.3 0-33.1-.1-66.3.1-99.5M56.1 57c.1 19.6 0 39.2.1 58.7 130.5-.1 261 0 391.5 0-.2-19.5-.2-39 0-58.6-2.9-.1-5.8-.2-8.7-.2-127.6.1-255.3-.1-382.9.1m24.1 71.2c.1 88.7.1 177.3 0 265.9 114 .4 228 .2 342.1.1.1-88.7.2-177.4-.1-266-114 .1-228 0-342 0m-.6 273.6c0 18.1-.3 36.4.2 54.5v-.8c114.3.4 228.6 0 342.9.2 0-5.2-.1-10.5.2-15.8-.2-12.7.4-25.5-.4-38.2v.7c-114.3-.2-228.5-.3-342.7.1l-.2-.7m.6 66.2c.1 16.9.1 33.9 0 50.8 114 .2 228 0 342 .1.3-17 .2-34 0-51-114-.1-228-.2-342 .1m37.7 63.4c43.2 19 87 36.8 130.4 55.4 2.8 1.8 5.7-.2 8.3-1.2 43.1-18.2 86.6-35.6 129.5-54.2-89.4-.2-178.8-.2-268.2 0Z" opacity="1.00"/><path fill="#fefefe" stroke="#fefefe" stroke-width="0.09375" d="M56.1 57c127.6-.2 255.3 0 382.9-.1 2.9 0 5.8.1 8.7.2-.2 19.6-.2 39.1 0 58.6-130.5 0-261-.1-391.5 0-.1-19.5 0-39.1-.1-58.7m6.2 6.1c.1 15.6.1 31.2-.1 46.8 126.4.3 252.7.1 379 .1.2-15.7.2-31.4 0-47.1-123.7-.2-247.5 0-371.2-.1-2.6 0-5.2.1-7.7.3Z" opacity="1.00"/><path fill="#3a64a3" stroke="#3a64a3" stroke-width="0.09375" d="M62.3 63.1c2.5-.2 5.1-.3 7.7-.3 123.7.1 247.5-.1 371.2.1.2 15.7.2 31.4 0 47.1-126.3 0-252.6.2-379-.1.2-15.6.2-31.2.1-46.8m59.5 13.7c-3.4 2.5-3 7.8-.1 10.5 3.2 3 8 3 11.5 5.5 1.3 1 .1 3-1.3 3.2-4.2 1.2-8.3-1.1-11.9-2.9-.1 2-.1 4-.2 6 5.5 2.2 12.2 3.7 17.6.3 3.9-2 4.5-8.2 1.3-11.1-3.7-3.5-9.5-3.3-13-7.1 4.3-3.2 9.6-1 13.9.7v-5.6c-5.6-2-12.7-3.6-17.8.5m87.3 2.3c-4.9 4.4-5.3 12.8-.5 17.3 6.2 6.4 16.5 6.1 24.1 2.4V93c-5 2-11 4.3-16.1 1.4-4.2-2.1-5.4-8.4-1.7-11.5 4.7-4.3 12.1-3.1 17.2-.1.1-2.2.1-4.4-.1-6.6-7.5-2.8-16.9-3-22.9 2.9m114.3-4.6c-8 1-15.2 9.1-12.2 17.4 4.8 13.2 27.6 12.5 31.3-1.3 2.3-10.5-9.7-18.2-19.1-16.1m-243.2.4c.1 8.8.1 17.5 0 26.3 2.6.1 5.1.1 7.6 0V74.9c-2.5-.1-5-.1-7.6 0m13.7 0c-.1 8.7-.2 17.4 0 26.1h7.2c.2-3.6.2-7.1.2-10.7 4.2.1 9.3 1 12.4-2.6 4.1-3.8 1.7-11.5-3.8-12.5-5.3-.9-10.7-.3-16-.3m48.2.1c4.1 8.3 7.7 16.8 11.8 25.1.5 1.8 3.5 1.8 4.2.1 2.8-5 4.9-10.2 7.9-15 3.4 5.2 5.7 11 8.8 16.3l3.2-.4c3.7-8.8 8-17.4 11.9-26.1-2.5 0-5.2-.8-7.6.3-2.4 4.2-4 8.9-6.3 13.1-2.7-4.3-4.7-9-7-13.6-2 0-4 0-6 .1-2.2 4.5-4.3 9.2-6.9 13.5-2.4-4.3-4-8.9-6.4-13.2-2.4-.9-5.1-.3-7.6-.2m50.9-.2v26.5c2.6.1 5.2 0 7.7-.2-.1-8.7-.1-17.4 0-26.1-2.5-.2-5.1-.2-7.7-.2m44.9 0c-.1 8.8-.2 17.5 0 26.2 2.4.1 4.7.1 7 .1l.3-10.8c4.5.1 9 .1 13.5 0-.1 3.6 0 7.2.1 10.7 2.3 0 4.7 0 7-.1 0-8.7-.1-17.3 0-26-2.3-.1-4.7-.1-7-.1-.1 3.4-.1 6.8 0 10.2-4.6.4-9.2.3-13.7.1 0-3.4 0-6.9-.1-10.3h-7.1m43.3.2c0 1.6.1 3.2.1 4.8 3.3 0 6.6 0 9.9.1.2 7 .1 14 0 21 2.5.1 5 0 7.5 0-.2-7-.2-14 0-21 3.3-.1 6.7-.1 10-.2v-4.6c-9.1-.6-18.3-.4-27.5-.1m62.5-.1c3.7 9 8 17.7 12.1 26.5.8-.1 2.4-.2 3.2-.2 2.7-5.5 5.4-11 8.3-16.3 3.2 5.3 5.6 11 8.5 16.4.8 0 2.4-.1 3.2-.1 4.2-8.7 8.3-17.4 12.2-26.2-2.6 0-5.4-.9-7.7.4-2.2 4.3-3.7 8.9-6.3 13-2.5-4.2-4.2-8.8-6.6-13-2.1-1-6-1.5-7 1.3-2.1 3.9-3.6 8.1-6.3 11.7-2.1-4.5-4.1-9.1-6.3-13.6-2.4 0-4.8 0-7.3.1m50.5.1c.2 8.6.1 17.2.1 25.9 2.3 0 4.6.1 6.9.2.2-5.4.2-10.7.1-16 4.8 4.7 9.3 9.7 14 14.5 1.8 2.2 5 1.2 7.4 1.3-.2-8.7-.2-17.3 0-25.9-2.3-.1-4.6-.2-7-.2-.1 5-.1 10.1 0 15.1-4.5-4.4-8.8-8.9-13.1-13.4-2-2.7-5.6-1.5-8.4-1.5Z" opacity="1.00"/><path fill="#fefefe" stroke="#fefefe" stroke-width="0.09375" d="M121.8 76.8c5.1-4.1 12.2-2.5 17.8-.5v5.6c-4.3-1.7-9.6-3.9-13.9-.7 3.5 3.8 9.3 3.6 13 7.1 3.2 2.9 2.6 9.1-1.3 11.1-5.4 3.4-12.1 1.9-17.6-.3.1-2 .1-4 .2-6 3.6 1.8 7.7 4.1 11.9 2.9 1.4-.2 2.6-2.2 1.3-3.2-3.5-2.5-8.3-2.5-11.5-5.5-2.9-2.7-3.3-8 .1-10.5ZM209.1 79.1c6-5.9 15.4-5.7 22.9-2.9.2 2.2.2 4.4.1 6.6-5.1-3-12.5-4.2-17.2.1-3.7 3.1-2.5 9.4 1.7 11.5 5.1 2.9 11.1.6 16.1-1.4v5.8c-7.6 3.7-17.9 4-24.1-2.4-4.8-4.5-4.4-12.9.5-17.3ZM323.4 74.5c9.4-2.1 21.4 5.6 19.1 16.1-3.7 13.8-26.5 14.5-31.3 1.3-3-8.3 4.2-16.4 12.2-17.4m.9 5.9c-5.4.5-7.9 7.2-5.3 11.6 2.5 4.2 8.5 4.9 12.5 2.6 4.1-2.3 5.1-8.6 1.8-11.9-2.3-2.4-5.9-2.8-9-2.3ZM80.2 74.9c2.6-.1 5.1-.1 7.6 0v26.3c-2.5.1-5 .1-7.6 0 .1-8.8.1-17.5 0-26.3ZM93.9 74.9c5.3 0 10.7-.6 16 .3 5.5 1 7.9 8.7 3.8 12.5-3.1 3.6-8.2 2.7-12.4 2.6 0 3.6 0 7.1-.2 10.7h-7.2c-.2-8.7-.1-17.4 0-26.1m7.3 4.9c0 2 .1 4 .1 6.1 3.4 0 8-.4 7.2-5-2.4-1-4.8-1.3-7.3-1.1ZM142.1 75c2.5-.1 5.2-.7 7.6.2 2.4 4.3 4 8.9 6.4 13.2 2.6-4.3 4.7-9 6.9-13.5 2-.1 4-.1 6-.1 2.3 4.6 4.3 9.3 7 13.6 2.3-4.2 3.9-8.9 6.3-13.1 2.4-1.1 5.1-.3 7.6-.3-3.9 8.7-8.2 17.3-11.9 26.1l-3.2.4c-3.1-5.3-5.4-11.1-8.8-16.3-3 4.8-5.1 10-7.9 15-.7 1.7-3.7 1.7-4.2-.1-4.1-8.3-7.7-16.8-11.8-25.1ZM193 74.8c2.6 0 5.2 0 7.7.2-.1 8.7-.1 17.4 0 26.1-2.5.2-5.1.3-7.7.2V74.8ZM237.9 74.8h7.1c.1 3.4.1 6.9.1 10.3 4.5.2 9.1.3 13.7-.1-.1-3.4-.1-6.8 0-10.2 2.3 0 4.7 0 7 .1-.1 8.7 0 17.3 0 26-2.3.1-4.7.1-7 .1-.1-3.5-.2-7.1-.1-10.7-4.5.1-9 .1-13.5 0l-.3 10.8c-2.3 0-4.6 0-7-.1-.2-8.7-.1-17.4 0-26.2ZM281.2 75c9.2-.3 18.4-.5 27.5.1v4.6c-3.3.1-6.7.1-10 .2-.2 7-.2 14 0 21-2.5 0-5 .1-7.5 0 .1-7 .2-14 0-21-3.3-.1-6.6-.1-9.9-.1 0-1.6-.1-3.2-.1-4.8ZM343.7 74.9c2.5-.1 4.9-.1 7.3-.1 2.2 4.5 4.2 9.1 6.3 13.6 2.7-3.6 4.2-7.8 6.3-11.7 1-2.8 4.9-2.3 7-1.3 2.4 4.2 4.1 8.8 6.6 13 2.6-4.1 4.1-8.7 6.3-13 2.3-1.3 5.1-.4 7.7-.4-3.9 8.8-8 17.5-12.2 26.2-.8 0-2.4.1-3.2.1-2.9-5.4-5.3-11.1-8.5-16.4-2.9 5.3-5.6 10.8-8.3 16.3-.8 0-2.4.1-3.2.2-4.1-8.8-8.4-17.5-12.1-26.5ZM394.2 75c2.8 0 6.4-1.2 8.4 1.5 4.3 4.5 8.6 9 13.1 13.4-.1-5-.1-10.1 0-15.1 2.4 0 4.7.1 7 .2-.2 8.6-.2 17.2 0 25.9-2.4-.1-5.6.9-7.4-1.3-4.7-4.8-9.2-9.8-14-14.5.1 5.3.1 10.6-.1 16-2.3-.1-4.6-.2-6.9-.2 0-8.7.1-17.3-.1-25.9Z" opacity="1.00"/><path fill="#3a64a3" stroke="#3a64a3" stroke-width="0.09375" d="M101.2 79.8c2.5-.2 4.9.1 7.3 1.1.8 4.6-3.8 5-7.2 5 0-2.1-.1-4.1-.1-6.1ZM324.3 80.4c3.1-.5 6.7-.1 9 2.3 3.3 3.3 2.3 9.6-1.8 11.9-4 2.3-10 1.6-12.5-2.6-2.6-4.4-.1-11.1 5.3-11.6Z" opacity="1.00"/><path fill="#fefefe" stroke="#fefefe" stroke-width="0.09375" d="M80.2 128.2c114 0 228 .1 342 0 .3 88.6.2 177.3.1 266-114.1.1-228.1.3-342.1-.1.1-88.6.1-177.2 0-265.9m7.7 6.8c-.2 81 0 162-.1 243-.1 3.2 0 6.5.3 9.7 109-.1 218-.1 326.9 0 .2-2.2.4-4.5.4-6.7-.2-82 .1-164-.2-246H87.9Z" opacity="1.00"/><path fill="#3a64a3" stroke="#3a64a3" stroke-width="0.09375" d="M87.9 135h327.3c.3 82 0 164 .2 246 0 2.2-.2 4.5-.4 6.7-108.9-.1-217.9-.1-326.9 0-.3-3.2-.4-6.5-.3-9.7.1-81-.1-162 .1-243m48.7 5c-.3 3.6.1 7.8 3.6 9.7 4.1-2.3 2.8-7 1.9-10.7-1.8.4-4.1-.4-5.5 1m17.6-1.1c-.6 4-1.2 8.6 2.5 11.3 3.8-2.6 3.7-7 3.2-11.1-1.9 0-3.8-.1-5.7-.2m-35.3 4c-.3 5.5 4.4 8.4 6.2 12.9-3.7 2-7.6 4.5-11.8 5-4.1-5.6-10.9-7.5-17.4-8.7 1.8 4.8 3.3 9.7 5.7 14.3 1.5 3.5-2 6.4-2.4 9.7-2.1 12.5 1.4 24.8 2.5 37.2.9 10.8 1.5 21.8 4.8 32.2 4.4 4.8 11.4 6.9 17.8 6.7 1.1-3.6-1.2-8.6 2-11 4.7-.2 3.5 6.2 4.6 9.3 2.8-.5 5.6-2.1 6.7-4.9.8-3.3-4.2-5.8-2.1-9.1 8.6-5.8 8-18.8 17.4-23.9 1.9 6.8 4.4 13.5 7.6 19.8 4.9 11-2.6 22.3-1.1 33.6 1.4 13.4 13.2 23.1 25 27.6 2.7 9.4 9.8 16.4 14.1 25 2.6 4.8 2.3 10.7 5.8 15 3.9 5.2 9.1 9.7 10.8 16.3 4.4 11.2.2 23.4-6.2 32.9 5.3.7 10.7.6 16.1.5 3.7-.2 7.7-2 8.5-5.9.7-4 4.6-6.1 6.1-9.6.9-9.8-7.4-16.7-11.8-24.6-4.2-4.5-1-11.1-4-16-7-10 .4-22.4-2.7-33.4 12.8 4.6 27 7.7 40.5 3.7 15.7-3.8 29.8-11.9 45.1-16.9-.7-4.5-9.2-2.7-9.1-7.8 4.9.7 9.6 3 13.2 6.4 6.8 6.4 14.3 12 22.6 16.3 5 2.7 11 3.8 15.3 7.8 4.6 4 9.7 7.3 15.2 9.8 6.7 3.3 6.4 12.1 4.4 18.3-3 8.6-4.1 17.8-7.6 26.3-2.8 6.6-11 9.3-12.9 16.3 7.6 3.4 16.8 2.7 24.5.3.6-5.8 5.1-9.7 10.5-11.5.7-6.9-2.7-13.6-1.3-20.4 2.9-14.1 8.8-27.4 12.3-41.4-11-5.6-25.4-12.6-25.1-27-9-.4-19-1.3-25.9-7.8-6.6-5.5-7.2-17.2-.6-23 11.2-11.4 27.2-15.5 40.7-23.5-2.4-4.5-7.5-7.2-8.9-12.3 4.8-1.9 11.3-3.1 15.1 1.5 3.7 3.5.9 9.1-2.6 11.6-13.3 9.2-30.5 12.1-42 24-4.9 4.8-6.3 14-1 19 7.4 7.4 18.8 8.1 28.7 7.7-3-5.9-3.9-13.2.1-18.9 9.4-13.4 26.8-18.5 35.1-32.9 3.5-5 2.4-12.6-2.6-16.2-8.4-6.6-20.1-6.2-29.8-3-3.2 1.2-7 3.4-10.3 1.1-9.2-5.9-19.6-10.6-30.7-10.7-26.6-.9-50.4 14.8-77 14.1-11.1.1-24.5-2.8-30.2-13.5-3.8-6.3-11.8-9.1-14.9-15.8-4.7.2-8-4-11.6-6.4 3.3-3.8 8-6.3 8.9-11.8-1.7-.7-3.3-1.4-5-2-2.7 3.5-5.1 7.6-2.8 12.1-5.4 1.8-9.8-3.3-14.3-5.5 1.7-4.9 7.5-7 7.9-12.7-1.6-.7-3.3-1.4-4.9-2-2.4 3.2-4.4 6.8-2.6 10.8-.4 1.1-1.1 2.1-1.7 3.1-4.8-.9-9.2-2.8-13.6-4.9 1.3-4.7 6.6-7.6 5.2-13.3-6.2-2.6-9.2 6.3-5.5 10.3-.3.9-.7 1.9-1.1 2.8-4.8-1.1-11.4 0-14.3-4.8-.4.5-1.2 1.6-1.6 2.2-4.5-.4-10.5 1.8-13.8-2.2-1.9 4.3-7.8 3.2-11.6 4.4-2.4 1.2-4.9-1.6-3.7-3.9 1.7-3.1-.2-6.4-1.1-9.5-1.9.3-3.8.5-5.8.8m-28.2 16.2c.5 5 3.7 9.7 8.1 12 1.8-5.3-2.4-11.7-8.1-12m126.4 4c-2.8 2.9-6 6.5-4.3 10.9 4.4-.7 7.1-4.1 9-7.8-1.5-1-3.1-2.1-4.7-3.1M373 266.5c6.3-6.5 11.6-14.7 13.1-23.8-8.2 4.5-17.7 13.6-13.1 23.8m-269.8 6.7c-1.8 1.9-1 4.7-.3 6.9 3.4 11.5 10.4 21.6 13.5 33.3 2 7.6-4.5 15.3-.5 22.6 6.1-2.1 11.8-5.3 17.2-8.8 1-4.1 1.8-8.2 5-11.3-7.1-7.7-11-18.6-10.3-29 7.3.4 13.5 4.8 20.2 7.1 10.7 4.2 22.8 6 34 2.6-10.5-6.4-21.6-14.1-25-26.6-12.3-1.6-24.7-2.4-37-2.3-5.9.2-12.6.8-16.8 5.5m198.9 12.9c2.3 10.4 8.2 19.4 13.2 28.6 1.9 3.4 2.4 8.2-.1 11.5-5.6 7.7-12.3 14.5-17.5 22.6-4.3 6.8-13 9.5-16.8 16.9 6.5.7 13 .6 19.4.9 4.7.4 5.1-5.9 8.7-7.6 2.3-.9 4.8-1.2 7.2-1.9 1.1-15.3 12-27.2 22.8-37.1 1.5-1.5 4.5-3.3 3-5.8-2.7-4.1-4.3-8.8-5.8-13.5-9.4-4.7-18-10.9-26.3-17.3-2.8.4-5.3 1.7-7.8 2.7m-167.5 47.5c-3.3 2.4-7.7 4-8.8 8.4 4 2.3 6.3-2.2 9-4.2 4.9-4.1 11.1-5.8 16.6-8.7-6.1-2.5-11.9 1.3-16.8 4.5M125 337c2.9-1.6 5.6-3.6 7.9-5.9-2.9 1.4-6.8 2.5-7.9 5.9m30.4-5.6c-8.8 1.7-17.6 5.5-23.4 12.5 2.2 1.9 5.1 2.4 7.6.7 7.3-4 15.9-7.1 22.8-10.4-2.2-1.1-4.3-3.4-7-2.8m6.3 6.3c-8.5 2.9-17.3 5.8-24.4 11.3 2.3 3.4 6.6 3.7 10.4 3.6 3.8-1.4 5.6-7 10.3-6.2 4.2.5 7.3-2.9 11.2-3.5-.9-3.3-3.8-6.9-7.5-5.2m-41.4 8.9c5.8 10.8 17.3 17.4 28.7 20.7 3.3-4-.7-8.4-2-12.2-3.9-1-10 .3-11.6-4.4-1.5-4.3-6.3-5.7-10.4-5.9-.7-1.7-1.5-3.5-2.2-5.2-1.8 1.7-4.2 4.4-2.5 7m42.3 1.3c.7 7.8.3 15.6-.8 23.4 1.6-.2 3.2-.4 4.9-.6 2.2-7.9.9-16.1.2-24.1-1.4.5-2.8.9-4.3 1.3m7.6-1.1c-.5 6.8.5 13.5.3 20.3 3.1-6 4.1-14.6-.3-20.3m-52.8 2c-1.8 5-.1 10.2 3.7 13.7 1.3-1.9 2.2-4.2 2.6-6.5-1.4-2.9-3.8-5.3-6.3-7.2m32.4 6.2c1.2 3.5 2.6 6.7 3.8 10.1-4.1 3.4-5.8 8.5-6 13.7-2.4 1.3-6.2 1.8-6.1 5.3 3.6 0 8 1.1 11-1.6 7.5-9.4 9-22.1 7.5-33.8-4.7-1.1-7.3 3.4-10.2 6.3m-25.4 10.6c5.9 5.3 14 7.3 21.8 7.4.2-1.3.5-2.6.7-3.8-7.6-2.4-14.4-6.5-21-10.9-.7 2.4-2.2 4.8-1.5 7.3m-6.5-2.7c.3 4.1 1.9 8.7 6 10.1 4.3 1.6 8.8 2.8 12.5 5.5 3.2 2.6 7.6.3 9.5-2.7-10.5-.9-20.9-4.7-28-12.9m42.4 10.4c-1.2 2.5-2.4 5.1-3.3 7.8 3.9-1.2 7.5-3.8 9.2-7.8-2 0-4-.1-5.9 0m-32.4 3.8c1.4 4.8 7.3 5.3 11.3 6.6-2.8-3.4-7.4-4.7-11.3-6.6ZM29.2 135.8c.4.3 1.4.7 1.8.9-.4-.2-1.4-.6-1.8-.9Z" opacity="1.00"/><path fill="#fefefe" stroke="#fefefe" stroke-width="0.09375" d="M136.6 140c1.4-1.4 3.7-.6 5.5-1 .9 3.7 2.2 8.4-1.9 10.7-3.5-1.9-3.9-6.1-3.6-9.7ZM154.2 138.9c1.9.1 3.8.2 5.7.2.5 4.1.6 8.5-3.2 11.1-3.7-2.7-3.1-7.3-2.5-11.3Z" opacity="1.00"/><path fill="#fefefe" stroke="#fefefe" stroke-width="0.09375" d="M118.9 142.9c2-.3 3.9-.5 5.8-.8.9 3.1 2.8 6.4 1.1 9.5-1.2 2.3 1.3 5.1 3.7 3.9 3.8-1.2 9.7-.1 11.6-4.4 3.3 4 9.3 1.8 13.8 2.2.4-.6 1.2-1.7 1.6-2.2 2.9 4.8 9.5 3.7 14.3 4.8.4-.9.8-1.9 1.1-2.8-3.7-4-.7-12.9 5.5-10.3 1.4 5.7-3.9 8.6-5.2 13.3 4.4 2.1 8.8 4 13.6 4.9.6-1 1.3-2 1.7-3.1-1.8-4 .2-7.6 2.6-10.8 1.6.6 3.3 1.3 4.9 2-.4 5.7-6.2 7.8-7.9 12.7 4.5 2.2 8.9 7.3 14.3 5.5-2.3-4.5.1-8.6 2.8-12.1 1.7.6 3.3 1.3 5 2-.9 5.5-5.6 8-8.9 11.8 3.6 2.4 6.9 6.6 11.6 6.4 3.1 6.7 11.1 9.5 14.9 15.8 5.7 10.7 19.1 13.6 30.2 13.5 26.6.7 50.4-15 77-14.1 11.1.1 21.5 4.8 30.7 10.7 3.3 2.3 7.1.1 10.3-1.1 9.7-3.2 21.4-3.6 29.8 3 5 3.6 6.1 11.2 2.6 16.2-8.3 14.4-25.7 19.5-35.1 32.9-4 5.7-3.1 13-.1 18.9-9.9.4-21.3-.3-28.7-7.7-5.3-5-3.9-14.2 1-19 11.5-11.9 28.7-14.8 42-24 3.5-2.5 6.3-8.1 2.6-11.6-3.8-4.6-10.3-3.4-15.1-1.5 1.4 5.1 6.5 7.8 8.9 12.3-13.5 8-29.5 12.1-40.7 23.5-6.6 5.8-6 17.5.6 23 6.9 6.5 16.9 7.4 25.9 7.8-.3 14.4 14.1 21.4 25.1 27-3.5 14-9.4 27.3-12.3 41.4-1.4 6.8 2 13.5 1.3 20.4-5.4 1.8-9.9 5.7-10.5 11.5-7.7 2.4-16.9 3.1-24.5-.3 1.9-7 10.1-9.7 12.9-16.3 3.5-8.5 4.6-17.7 7.6-26.3 2-6.2 2.3-15-4.4-18.3-5.5-2.5-10.6-5.8-15.2-9.8-4.3-4-10.3-5.1-15.3-7.8-8.3-4.3-15.8-9.9-22.6-16.3-3.6-3.4-8.3-5.7-13.2-6.4-.1 5.1 8.4 3.3 9.1 7.8-15.3 5-29.4 13.1-45.1 16.9-13.5 4-27.7.9-40.5-3.7 3.1 11-4.3 23.4 2.7 33.4 3 4.9-.2 11.5 4 16 4.4 7.9 12.7 14.8 11.8 24.6-1.5 3.5-5.4 5.6-6.1 9.6-.8 3.9-4.8 5.7-8.5 5.9-5.4.1-10.8.2-16.1-.5 6.4-9.5 10.6-21.7 6.2-32.9-1.7-6.6-6.9-11.1-10.8-16.3-3.5-4.3-3.2-10.2-5.8-15-4.3-8.6-11.4-15.6-14.1-25-11.8-4.5-23.6-14.2-25-27.6-1.5-11.3 6-22.6 1.1-33.6-3.2-6.3-5.7-13-7.6-19.8-9.4 5.1-8.8 18.1-17.4 23.9-2.1 3.3 2.9 5.8 2.1 9.1-1.1 2.8-3.9 4.4-6.7 4.9-1.1-3.1.1-9.5-4.6-9.3-3.2 2.4-.9 7.4-2 11-6.4.2-13.4-1.9-17.8-6.7-3.3-10.4-3.9-21.4-4.8-32.2-1.1-12.4-4.6-24.7-2.5-37.2.4-3.3 3.9-6.2 2.4-9.7-2.4-4.6-3.9-9.5-5.7-14.3 6.5 1.2 13.3 3.1 17.4 8.7 4.2-.5 8.1-3 11.8-5-1.8-4.5-6.5-7.4-6.2-12.9m-14 48.3c-1.1 3.1.6 6.2 2 9 2-2.6 5.4-5.4 4.2-9.1-.7-2.8-5.4-2.7-6.2.1m3.1 49.5c.2 1.2.4 2.4.7 3.6 1.8 1.7 4.1 2.6 6.3 3.6-.1-3.7-3.6-6.3-7-7.2Z" opacity="1.00"/><path fill="#fefefe" stroke="#fefefe" stroke-width="0.09375" d="M90.7 159.1c5.7.3 9.9 6.7 8.1 12-4.4-2.3-7.6-7-8.1-12ZM217.1 163.1c1.6 1 3.2 2.1 4.7 3.1-1.9 3.7-4.6 7.1-9 7.8-1.7-4.4 1.5-8 4.3-10.9Z" opacity="1.00"/><path fill="#3a64a3" stroke="#3a64a3" stroke-width="0.09375" d="M104.9 191.2c.8-2.8 5.5-2.9 6.2-.1 1.2 3.7-2.2 6.5-4.2 9.1-1.4-2.8-3.1-5.9-2-9ZM108 240.7c3.4.9 6.9 3.5 7 7.2-2.2-1-4.5-1.9-6.3-3.6-.3-1.2-.5-2.4-.7-3.6Z" opacity="1.00"/><path fill="#fefefe" stroke="#fefefe" stroke-width="0.09375" d="M373 266.5c-4.6-10.2 4.9-19.3 13.1-23.8-1.5 9.1-6.8 17.3-13.1 23.8ZM103.2 273.2c4.2-4.7 10.9-5.3 16.8-5.5 12.3-.1 24.7.7 37 2.3 3.4 12.5 14.5 20.2 25 26.6-11.2 3.4-23.3 1.6-34-2.6-6.7-2.3-12.9-6.7-20.2-7.1-.7 10.4 3.2 21.3 10.3 29-3.2 3.1-4 7.2-5 11.3-5.4 3.5-11.1 6.7-17.2 8.8-4-7.3 2.5-15 .5-22.6-3.1-11.7-10.1-21.8-13.5-33.3-.7-2.2-1.5-5 .3-6.9ZM302.1 286.1c2.5-1 5-2.3 7.8-2.7 8.3 6.4 16.9 12.6 26.3 17.3 1.5 4.7 3.1 9.4 5.8 13.5 1.5 2.5-1.5 4.3-3 5.8-10.8 9.9-21.7 21.8-22.8 37.1-2.4.7-4.9 1-7.2 1.9-3.6 1.7-4 8-8.7 7.6-6.4-.3-12.9-.2-19.4-.9 3.8-7.4 12.5-10.1 16.8-16.9 5.2-8.1 11.9-14.9 17.5-22.6 2.5-3.3 2-8.1.1-11.5-5-9.2-10.9-18.2-13.2-28.6ZM134.6 333.6c4.9-3.2 10.7-7 16.8-4.5-5.5 2.9-11.7 4.6-16.6 8.7-2.7 2-5 6.5-9 4.2 1.1-4.4 5.5-6 8.8-8.4ZM125 337c1.1-3.4 5-4.5 7.9-5.9-2.3 2.3-5 4.3-7.9 5.9ZM155.4 331.4c2.7-.6 4.8 1.7 7 2.8-6.9 3.3-15.5 6.4-22.8 10.4-2.5 1.7-5.4 1.2-7.6-.7 5.8-7 14.6-10.8 23.4-12.5ZM161.7 337.7c3.7-1.7 6.6 1.9 7.5 5.2-3.9.6-7 4-11.2 3.5-4.7-.8-6.5 4.8-10.3 6.2-3.8.1-8.1-.2-10.4-3.6 7.1-5.5 15.9-8.4 24.4-11.3Z" opacity="1.00"/><path fill="#fefefe" stroke="#fefefe" stroke-width="0.09375" d="M120.3 346.6c-1.7-2.6.7-5.3 2.5-7 .7 1.7 1.5 3.5 2.2 5.2 4.1.2 8.9 1.6 10.4 5.9 1.6 4.7 7.7 3.4 11.6 4.4 1.3 3.8 5.3 8.2 2 12.2-11.4-3.3-22.9-9.9-28.7-20.7ZM162.6 347.9c1.5-.4 2.9-.8 4.3-1.3.7 8 2 16.2-.2 24.1-1.7.2-3.3.4-4.9.6 1.1-7.8 1.5-15.6.8-23.4ZM170.2 346.8c4.4 5.7 3.4 14.3.3 20.3.2-6.8-.8-13.5-.3-20.3ZM117.4 348.8c2.5 1.9 4.9 4.3 6.3 7.2-.4 2.3-1.3 4.6-2.6 6.5-3.8-3.5-5.5-8.7-3.7-13.7Z" opacity="1.00"/><path fill="#fefefe" stroke="#fefefe" stroke-width="0.09375" d="M149.8 355c2.9-2.9 5.5-7.4 10.2-6.3 1.5 11.7 0 24.4-7.5 33.8-3 2.7-7.4 1.6-11 1.6-.1-3.5 3.7-4 6.1-5.3.2-5.2 1.9-10.3 6-13.7-1.2-3.4-2.6-6.6-3.8-10.1Z" opacity="1.00"/><path fill="#fefefe" stroke="#fefefe" stroke-width="0.09375" d="M124.4 365.6c-.7-2.5.8-4.9 1.5-7.3 6.6 4.4 13.4 8.5 21 10.9-.2 1.2-.5 2.5-.7 3.8-7.8-.1-15.9-2.1-21.8-7.4Z" opacity="1.00"/><path fill="#fefefe" stroke="#fefefe" stroke-width="0.09375" d="M117.9 362.9c7.1 8.2 17.5 12 28 12.9-1.9 3-6.3 5.3-9.5 2.7-3.7-2.7-8.2-3.9-12.5-5.5-4.1-1.4-5.7-6-6-10.1Z" opacity="1.00"/><path fill="#3a64a3" stroke="#3a64a3" stroke-width="0.09375" d="M46.4 363.7c.6 9.7.1 19.5.2 29.3-.1 45.9.4 91.9-.2 137.8l.1.7c-.5-55.9-.3-111.9-.1-167.8Z" opacity="1.00"/><path fill="#fefefe" stroke="#fefefe" stroke-width="0.09375" d="M160.3 373.3c1.9-.1 3.9 0 5.9 0-1.7 4-5.3 6.6-9.2 7.8.9-2.7 2.1-5.3 3.3-7.8ZM127.9 377.1c3.9 1.9 8.5 3.2 11.3 6.6-4-1.3-9.9-1.8-11.3-6.6ZM79.6 401.8l.2.7c.2 1.5.3 3.1.6 4.6 10.1 0 20.6.2 30 4.5 5 2.3 9.7 6.3 15.6 5.7 10.3-.8 19.1-7.3 29.2-8.9 12.8-2.2 25.8.5 38 4.4 4.8 1.5 9.5 4 14.8 3.9 9.2.6 17.7-3.7 26.4-6.2 8.9-2.9 18.7-4 27.8-1.7 11.3 2.5 22 8.4 33.8 7.9 6.4.1 11.9-3.3 17.9-4.8 8.5-2.4 17.2-4.4 26.1-4.3 11.4.2 21.7 5.8 32.5 8.9 6.4 2 13.1-.3 18.8-3.3 9.5-4.9 20.3-6.1 30.9-6l.3-4.8v-.7c.8 12.7.2 25.5.4 38.2-8.2-.7-16.5.2-24.2 2.8-6.3 2.1-11.7 7.1-18.7 6.8-14.9.9-27.1-10.8-42-9.9-13.3.4-25.4 6.4-38.2 9.2-19.1 3.1-36.1-12.5-55.3-8.3-15.2 3.5-30.9 12.5-46.8 6.8-15.7-6.4-34.2-11.5-50.4-4-9.2 4.7-19.9 7-30.1 4.6-5.3-1.2-9.6-4.9-14.8-6.4-7.2-2.1-14.8-2.1-22.2-1.7-.1 5.2.5 10.5-.4 15.7v.8c-.5-18.1-.2-36.4-.2-54.5m.6 16.2v10.7c6.2-.1 12.5.2 18.6.7 9.7.8 17.3 9 27.2 8.7 10.5-.4 19.4-6.8 29.6-8.5 12.6-2.4 25.3.8 37.3 4.6 5 1.4 9.8 3.8 15 3.9 15.4.5 28.8-9.6 44.1-9 12.3 0 23.6 5.5 35.3 8.5 10.4 2.5 20.4-2 30-5.3 8.5-3 17.6-3.7 26.5-2.9 10.4 1.3 20 5.9 30.1 8.7 5.7 1.7 11.7-.7 16.8-3.4 9.6-5.3 20.8-5.9 31.5-5.9.2-3.4.2-6.7.1-10.1-8.4-.2-17.5-.8-25 3.5-5.7 3.1-11.8 5.8-18.3 6-8.6 0-16.6-3.6-24.4-6.8-12.3-4.7-25.9-2.7-38.2 1-6.8 1.8-13.1 5.7-20.3 5.4-16.1.8-30-10.2-46-9.2-11.7.6-22.1 6.7-33.5 8.8-15.4 2.2-29.3-6.3-44-8.9-13.8-1.8-26.8 4.2-39.5 8.7-7.9 1.9-16.4 0-23.5-3.8-8.9-4.9-19.4-6-29.4-5.4Z" opacity="1.00"/><path fill="#3a64a3" stroke="#3a64a3" stroke-width="0.09375" d="M79.8 402.5c114.2-.4 228.4-.3 342.7-.1l-.3 4.8c-10.6-.1-21.4 1.1-30.9 6-5.7 3-12.4 5.3-18.8 3.3-10.8-3.1-21.1-8.7-32.5-8.9-8.9-.1-17.6 1.9-26.1 4.3-6 1.5-11.5 4.9-17.9 4.8-11.8.5-22.5-5.4-33.8-7.9-9.1-2.3-18.9-1.2-27.8 1.7-8.7 2.5-17.2 6.8-26.4 6.2-5.3.1-10-2.4-14.8-3.9-12.2-3.9-25.2-6.6-38-4.4-10.1 1.6-18.9 8.1-29.2 8.9-5.9.6-10.6-3.4-15.6-5.7-9.4-4.3-19.9-4.5-30-4.5-.3-1.5-.4-3.1-.6-4.6ZM80.2 418c10-.6 20.5.5 29.4 5.4 7.1 3.8 15.6 5.7 23.5 3.8 12.7-4.5 25.7-10.5 39.5-8.7 14.7 2.6 28.6 11.1 44 8.9 11.4-2.1 21.8-8.2 33.5-8.8 16-1 29.9 10 46 9.2 7.2.3 13.5-3.6 20.3-5.4 12.3-3.7 25.9-5.7 38.2-1 7.8 3.2 15.8 6.8 24.4 6.8 6.5-.2 12.6-2.9 18.3-6 7.5-4.3 16.6-3.7 25-3.5.1 3.4.1 6.7-.1 10.1-10.7 0-21.9.6-31.5 5.9-5.1 2.7-11.1 5.1-16.8 3.4-10.1-2.8-19.7-7.4-30.1-8.7-8.9-.8-18-.1-26.5 2.9-9.6 3.3-19.6 7.8-30 5.3-11.7-3-23-8.5-35.3-8.5-15.3-.6-28.7 9.5-44.1 9-5.2-.1-10-2.5-15-3.9-12-3.8-24.7-7-37.3-4.6-10.2 1.7-19.1 8.1-29.6 8.5-9.9.3-17.5-7.9-27.2-8.7-6.1-.5-12.4-.8-18.6-.7V418Z" opacity="1.00"/><path fill="#3a64a3" stroke="#3a64a3" stroke-width="0.09375" d="M80.2 439.8c7.4-.4 15-.4 22.2 1.7 5.2 1.5 9.5 5.2 14.8 6.4 10.2 2.4 20.9.1 30.1-4.6 16.2-7.5 34.7-2.4 50.4 4 15.9 5.7 31.6-3.3 46.8-6.8 19.2-4.2 36.2 11.4 55.3 8.3 12.8-2.8 24.9-8.8 38.2-9.2 14.9-.9 27.1 10.8 42 9.9 7 .3 12.4-4.7 18.7-6.8 7.7-2.6 16-3.5 24.2-2.8-.3 5.3-.2 10.6-.2 15.8-114.3-.2-228.6.2-342.9-.2.9-5.2.3-10.5.4-15.7Z" opacity="1.00"/><path fill="#fefefe" stroke="#fefefe" stroke-width="0.09375" d="M80.2 468c114-.3 228-.2 342-.1.2 17 .3 34 0 51-114-.1-228 .1-342-.1.1-16.9.1-33.9 0-50.8m7.7 5.8c-.1 13.2-.2 26.3 0 39.4 109.1.2 218.2.2 327.3 0 .2-13.1.2-26.3 0-39.4-109.1-.2-218.2-.2-327.3 0Z" opacity="1.00"/><path fill="#3a64a3" stroke="#3a64a3" stroke-width="0.09375" d="M87.9 473.8c109.1-.2 218.2-.2 327.3 0 .2 13.1.2 26.3 0 39.4-109.1.2-218.2.2-327.3 0-.2-13.1-.1-26.2 0-39.4m15 9.3c-.2 6.7-.2 13.4 0 20.1 1.9 0 3.9 0 5.9-.1-.1-2.7 0-5.3 0-8 3.3.1 6.7 0 10-.2v-3.7c-3.4-.1-6.7-.1-10-.2 0-1.3.1-2.6.1-3.8 3.3 0 6.6 0 9.9-.2v-3.8c-5.3-.2-10.6-.1-15.9-.1m27.5.4c-5.5 1.3-9.9 7.2-7.7 12.9 3.8 8.2 15.9 9.1 22.5 3.8 3.8-2.7 4.9-8.6 1.8-12.2-3.7-5.1-10.9-6.2-16.6-4.5m29.9-.1c-5.1 1.1-9.7 6.1-8.5 11.6 3.1 11.8 24.4 11.3 26.4-1 .5-9-10.6-13-17.9-10.6m18.8-.3v3.8c2.7 0 5.4 0 8.1.1.2 5.3.2 10.7.1 16l6 .3c.2-5.4.2-10.8 0-16.1 2.8-.2 5.6-.4 8.4-.4 0-1.2.1-2.4.1-3.6-7.6-.2-15.2-.1-22.7-.1m25.9 0c-.1 6.7-.1 13.4 0 20.1 5.6-.2 11.7 1.1 17-1.2 4-2.3 2.7-8.1-1-10 2.3-2.3 2.3-6.4-1-8-4.7-1.8-10-.6-15-.9m30.2.1c-3 6.6-6.2 13.2-9.2 19.9 2.1.1 4.1.1 6.2.2.6-1.4 1.2-2.7 1.9-4h9.8c.7 1.2 1.4 2.5 2.3 3.7 2 .5 4 .1 6 .1-3.1-6.9-6.8-13.3-10.1-20-2.3 0-4.6 0-6.9.1m19.7-.2c-.2 6.8-.1 13.5 0 20.2 5.9 0 11.9.4 17.8-.3v-3.6c-4 .1-7.9.1-11.8-.1-.2-5.3-.2-10.7-.1-16.1-2 0-3.9 0-5.9-.1m20.8.1c-.2 6.7-.2 13.4 0 20.1 5.9.1 11.7.2 17.6-.1-.2-1.3-.3-2.6-.3-3.9-3.9.2-7.8.2-11.7-.1.1-5.4.1-10.7 0-16h-5.6m31.4 4c-3.9 3.7-3 10.6 1.3 13.6 5.4 3.9 12.7 3 18.7 1.2-.1-1.7.1-3.3.1-4.9-4.4 1.6-9.6 3.5-13.8.7-3-1.6-3.5-6.1-.9-8.2 3.9-3.8 10-2.2 14.4-.4 0-1.7-.1-3.3-.1-5-6.5-1.9-14.7-2.4-19.7 3m24.6-4.1c-.2 6.7-.2 13.4 0 20.2 5.9.1 11.8.2 17.7-.1-.2-1.3-.3-2.6-.3-3.8-3.8.1-7.6.1-11.4-.1-.1-5.3-.1-10.7 0-16-2-.1-4-.1-6-.2m20.4.1c.2 5.2-1 10.9 1 15.9 4.7 6.2 16.1 6.1 21.1.2 2.1-5 .9-10.8 1-16.2-2 .1-4 .1-6 .2 0 4.2.5 8.5-.2 12.7-1.4 4.7-9.4 4.5-10.6-.2-.6-4.2-.2-8.4-.4-12.6h-5.9m28 0c-.1 6.7 0 13.4 0 20.1 5.6-.2 11.6 1.1 16.9-1.2 4-2.3 2.8-8.1-1-9.9 1.7-2.1 2.9-5.5.2-7.3-4.7-3.2-10.8-1.2-16.1-1.7Z" opacity="1.00"/><path fill="#fefefe" stroke="#fefefe" stroke-width="0.09375" d="M102.9 483.1c5.3 0 10.6-.1 15.9.1v3.8c-3.3.2-6.6.2-9.9.2 0 1.2-.1 2.5-.1 3.8 3.3.1 6.6.1 10 .2v3.7c-3.3.2-6.7.3-10 .2 0 2.7-.1 5.3 0 8-2 .1-4 .1-5.9.1-.2-6.7-.2-13.4 0-20.1ZM130.4 483.5c5.7-1.7 12.9-.6 16.6 4.5 3.1 3.6 2 9.5-1.8 12.2-6.6 5.3-18.7 4.4-22.5-3.8-2.2-5.7 2.2-11.6 7.7-12.9m3 3.9c-3.6.5-6.1 4.5-4.8 7.9 2.6 5.9 13.1 5 14-1.6.5-4.8-5.1-7.4-9.2-6.3ZM160.3 483.4c7.3-2.4 18.4 1.6 17.9 10.6-2 12.3-23.3 12.8-26.4 1-1.2-5.5 3.4-10.5 8.5-11.6m2.1 4.1c-3.5.7-5.7 4.9-4.1 8.2 2.7 5.8 14 4.2 13.7-2.7 0-4.7-5.7-6.7-9.6-5.5ZM179.1 483.1c7.5 0 15.1-.1 22.7.1 0 1.2-.1 2.4-.1 3.6-2.8 0-5.6.2-8.4.4.2 5.3.2 10.7 0 16.1l-6-.3c.1-5.3.1-10.7-.1-16-2.7-.1-5.4-.1-8.1-.1v-3.8ZM205 483.1c5 .3 10.3-.9 15 .9 3.3 1.6 3.3 5.7 1 8 3.7 1.9 5 7.7 1 10-5.3 2.3-11.4 1-17 1.2-.1-6.7-.1-13.4 0-20.1m6 3.6c0 1.4 0 2.9.1 4.3 1.9-.3 6.2.5 5.7-2.7-1.3-2-3.9-1.3-5.8-1.6m0 8v4.6c2.4 0 4.7-.1 7.1-.4-.1-1.2-.1-2.4 0-3.7-2.4-.2-4.8-.4-7.1-.5ZM235.2 483.2c2.3-.1 4.6-.1 6.9-.1 3.3 6.7 7 13.1 10.1 20-2 0-4 .4-6-.1-.9-1.2-1.6-2.5-2.3-3.7h-9.8c-.7 1.3-1.3 2.6-1.9 4-2.1-.1-4.1-.1-6.2-.2 3-6.7 6.2-13.3 9.2-19.9m.8 12.4h6c-.8-2.4-1.9-4.7-3.2-6.8-1.3 2.1-2.3 4.4-2.8 6.8ZM254.9 483c2 .1 3.9.1 5.9.1-.1 5.4-.1 10.8.1 16.1 3.9.2 7.8.2 11.8.1v3.6c-5.9.7-11.9.3-17.8.3-.1-6.7-.2-13.4 0-20.2ZM275.7 483.1h5.6c.1 5.3.1 10.6 0 16 3.9.3 7.8.3 11.7.1 0 1.3.1 2.6.3 3.9-5.9.3-11.7.2-17.6.1-.2-6.7-.2-13.4 0-20.1ZM307.1 487.1c5-5.4 13.2-4.9 19.7-3 0 1.7.1 3.3.1 5-4.4-1.8-10.5-3.4-14.4.4-2.6 2.1-2.1 6.6.9 8.2 4.2 2.8 9.4.9 13.8-.7 0 1.6-.2 3.2-.1 4.9-6 1.8-13.3 2.7-18.7-1.2-4.3-3-5.2-9.9-1.3-13.6ZM331.7 483c2 .1 4 .1 6 .2-.1 5.3-.1 10.7 0 16 3.8.2 7.6.2 11.4.1 0 1.2.1 2.5.3 3.8-5.9.3-11.8.2-17.7.1-.2-6.8-.2-13.5 0-20.2ZM352.1 483.1h5.9c.2 4.2-.2 8.4.4 12.6 1.2 4.7 9.2 4.9 10.6.2.7-4.2.2-8.5.2-12.7 2-.1 4-.1 6-.2-.1 5.4 1.1 11.2-1 16.2-5 5.9-16.4 6-21.1-.2-2-5-.8-10.7-1-15.9ZM380.1 483.1c5.3.5 11.4-1.5 16.1 1.7 2.7 1.8 1.5 5.2-.2 7.3 3.8 1.8 5 7.6 1 9.9-5.3 2.3-11.3 1-16.9 1.2 0-6.7-.1-13.4 0-20.1m5.9 3.6c.1 1.4.1 2.9.1 4.3 2-.3 6.1.5 5.7-2.7-1.2-2-3.8-1.3-5.8-1.6m0 8c0 1.6 0 3.1.1 4.6 2.3 0 4.7-.1 7-.4-.1-1.2-.1-2.5 0-3.7-2.4-.2-4.7-.4-7.1-.5Z" opacity="1.00"/><path fill="#3a64a3" stroke="#3a64a3" stroke-width="0.09375" d="M133.4 487.4c4.1-1.1 9.7 1.5 9.2 6.3-.9 6.6-11.4 7.5-14 1.6-1.3-3.4 1.2-7.4 4.8-7.9ZM162.4 487.5c3.9-1.2 9.6.8 9.6 5.5.3 6.9-11 8.5-13.7 2.7-1.6-3.3.6-7.5 4.1-8.2ZM211 486.7c1.9.3 4.5-.4 5.8 1.6.5 3.2-3.8 2.4-5.7 2.7-.1-1.4-.1-2.9-.1-4.3ZM386 486.7c2 .3 4.6-.4 5.8 1.6.4 3.2-3.7 2.4-5.7 2.7 0-1.4 0-2.9-.1-4.3ZM236 495.6c.5-2.4 1.5-4.7 2.8-6.8 1.3 2.1 2.4 4.4 3.2 6.8h-6ZM211 494.7c2.3.1 4.7.3 7.1.5-.1 1.3-.1 2.5 0 3.7-2.4.3-4.7.4-7.1.4v-4.6ZM386 494.7c2.4.1 4.7.3 7.1.5-.1 1.2-.1 2.5 0 3.7-2.3.3-4.7.4-7 .4-.1-1.5-.1-3-.1-4.6ZM117.9 531.4c89.4-.2 178.8-.2 268.2 0-42.9 18.6-86.4 36-129.5 54.2-2.6 1-5.5 3-8.3 1.2-43.4-18.6-87.2-36.4-130.4-55.4ZM49.2 531.8ZM443 536.8ZM65.2 538.8c.5.3 1.3.8 1.8 1-.5-.2-1.3-.7-1.8-1ZM436 539.8c.5-.2 1.4-.7 1.8-1-.4.3-1.3.8-1.8 1ZM429 542.8c.5-.2 1.4-.7 1.8-.9-.4.2-1.3.7-1.8.9ZM413 549.8ZM406 552.8c.5-.2 1.4-.7 1.8-1-.4.3-1.3.8-1.8 1ZM399 555.8c.5-.2 1.4-.7 1.8-.9-.4.2-1.3.7-1.8.9ZM104.2 555.8ZM111.2 558.9c.4.2 1.3.7 1.8.9-.5-.2-1.4-.7-1.8-.9ZM383 562.8ZM376 565.8c.5-.3 1.4-.7 1.8-1-.4.3-1.3.7-1.8 1ZM127.2 565.8c.5.3 1.3.8 1.8 1-.5-.2-1.3-.7-1.8-1ZM134.2 568.8c.4.3 1.3.8 1.8 1-.5-.2-1.4-.7-1.8-1ZM143.2 572.8c.5.2 1.4.7 1.8 1-.4-.3-1.3-.8-1.8-1ZM323 588.8ZM182.2 589.8ZM316 591.8c.5-.2 1.4-.7 1.8-1-.4.3-1.3.8-1.8 1ZM189.2 592.8c.4.3 1.3.8 1.8 1-.5-.2-1.4-.7-1.8-1ZM309 594.8c.5-.2 1.4-.7 1.8-.9-.4.2-1.3.7-1.8.9ZM300 598.8ZM205.2 599.8ZM293 601.8ZM279 607.8c.5-.2 1.4-.7 1.8-.9-.4.2-1.3.7-1.8.9ZM228.2 609.8c.4.3 1.3.8 1.8 1-.5-.2-1.4-.7-1.8-1ZM270 611.8c.5-.2 1.3-.7 1.8-1-.5.3-1.3.8-1.8 1ZM235.2 612.9c.4.2 1.3.7 1.8.9-.5-.2-1.4-.7-1.8-.9ZM263 614.8Z" opacity="1.00"/></svg>