<svg xmlns="http://www.w3.org/2000/svg" width="163" height="200"><path fill="#fff" d="M80.79 1.96c.42.02 1.08.02 1.47 0 .39-.01.05-.03-.76-.03s-1.13.02-.71.03Z"/><path fill="#0060a9" d="M78.94 2.04c-.18.02-.82.09-1.42.14-.6.06-1.67.19-2.38.29-.7.11-2.05.34-2.99.52-.93.19-2.41.51-3.27.71-.86.21-2.38.61-3.37.89-.99.28-2.63.77-3.65 1.09-1.02.32-2.81.93-3.98 1.34-1.18.42-3.04 1.11-4.13 1.54-1.1.43-2.83 1.14-3.84 1.56-1.02.43-2.71 1.17-3.75 1.64-1.05.47-2.39 1.08-2.99 1.37-.6.29-1.6.77-2.23 1.07-.63.29-2.14 1.06-3.37 1.7-1.22.64-2.98 1.57-3.89 2.07-.91.49-2.43 1.35-3.37 1.89-.94.55-2.58 1.52-3.65 2.17a191.3 191.3 0 0 0-3.75 2.37c-.99.65-2.5 1.67-3.37 2.28-.86.6-2.03 1.44-2.6 1.86-.58.42-1.69 1.28-2.47 1.9-.78.63-1.89 1.54-2.47 2.03-.57.49-1.72 1.55-2.55 2.36-.82.81-1.83 1.85-2.24 2.32-.5.58-.92 1.2-1.31 1.94-.47.89-.64 1.36-.95 2.56-.21.8-.53 2.17-.72 3.03-.18.85-.5 2.56-.72 3.78-.21 1.23-.5 3.23-.66 4.45-.15 1.22-.36 3.16-.47 4.31-.1 1.14-.21 2.48-.24 2.98-.03.49-.1 1.75-.15 2.79-.05 1.04-.09 3.75-.09 6.01 0 2.27.04 4.97.09 6.01.05 1.04.12 2.3.15 2.79.03.5.12 1.67.19 2.61.08.93.25 2.68.38 3.88.13 1.2.37 3.05.52 4.12.16 1.06.41 2.7.57 3.64.16.94.52 2.85.8 4.26.28 1.4.73 3.47 1 4.59.26 1.12.74 2.99 1.05 4.16.32 1.18.91 3.24 1.32 4.59.41 1.36 1.05 3.34 1.43 4.41.37 1.06.93 2.62 1.24 3.45.32.83.96 2.47 1.43 3.64.47 1.18 1.21 2.92 1.64 3.89.43.96 1.11 2.45 1.52 3.31.4.86 1.25 2.56 1.87 3.78.63 1.23 1.67 3.17 2.3 4.31.64 1.15 1.73 3.02 2.42 4.17.69 1.14 1.66 2.72 2.16 3.5.5.78 1.4 2.14 2 3.03.6.88 1.63 2.35 2.28 3.26.65.91 1.72 2.36 2.37 3.22.65.86 1.94 2.5 2.87 3.64.92 1.15 2.21 2.7 2.86 3.46.65.75 1.6 1.84 2.11 2.41.51.58 1.67 1.83 2.57 2.8.9.96 2.97 3.07 4.61 4.68 1.64 1.62 3.68 3.58 4.54 4.36.86.78 2.25 2.02 3.08 2.74a201 201 0 0 0 3.47 2.94c1.07.89 2.56 2.11 3.32 2.71.75.6 2.42 1.88 3.7 2.83 1.28.96 3.13 2.33 4.13 3.03a227.245 227.245 0 0 0 8.44 5.69c.94.59 2.5 1.56 3.46 2.15 1.34.82 1.79 1.05 1.9.98.08-.06 1.38-.88 2.89-1.83 1.52-.95 4.08-2.61 5.7-3.69 1.61-1.08 3.73-2.53 4.69-3.22.97-.68 2.74-1.98 3.94-2.88 1.2-.9 2.93-2.22 3.84-2.94.92-.72 2.64-2.12 3.85-3.12 1.2-1 2.73-2.3 3.41-2.9.67-.59 1.95-1.73 2.84-2.54.89-.8 3.22-3.06 5.19-5.01 1.96-1.96 4.26-4.33 5.11-5.26.85-.94 2.3-2.58 3.22-3.65.92-1.06 2.46-2.92 3.42-4.11.96-1.2 2.28-2.91 2.95-3.79.66-.89 1.7-2.31 2.32-3.17.61-.86 1.61-2.31 2.23-3.22.61-.91 1.69-2.57 2.39-3.69.7-1.12 1.73-2.8 2.28-3.74.55-.94 1.45-2.53 2.01-3.55.56-1.01 1.71-3.23 2.56-4.92.84-1.69 2-4.12 2.57-5.4.56-1.27 1.5-3.51 2.09-4.97.59-1.45 1.43-3.67 1.88-4.92.44-1.25 1.11-3.23 1.47-4.4.37-1.17.89-2.87 1.15-3.78a149.376 149.376 0 0 0 1.99-7.67c.21-.91.55-2.51.76-3.55.21-1.04.53-2.79.71-3.88.18-1.09.46-2.9.62-4.02.15-1.12.39-3 .52-4.17s.33-3.3.43-4.73c.1-1.43.24-3.78.3-5.21.06-1.6.09-4.23.05-6.86-.03-2.34-.1-4.96-.16-5.82-.05-.86-.18-2.58-.29-3.83-.1-1.25-.32-3.28-.47-4.5-.16-1.22-.41-3.01-.57-3.98-.16-.96-.46-2.6-.67-3.64a91.74 91.74 0 0 0-.8-3.55c-.34-1.36-.51-1.84-.97-2.73-.34-.68-.77-1.35-1.16-1.8-.33-.4-1.08-1.21-1.66-1.8-.57-.59-1.64-1.61-2.37-2.26-.73-.65-1.89-1.64-2.56-2.19-.68-.56-1.69-1.35-2.23-1.77-.55-.42-1.68-1.26-2.52-1.85-.83-.6-2.18-1.54-2.99-2.08-.81-.55-2.17-1.45-3.03-2-.86-.54-2.42-1.5-3.47-2.12-1.04-.63-2.66-1.58-3.6-2.11-.94-.54-2.61-1.45-3.7-2.04-1.1-.59-3.32-1.72-4.94-2.53-1.61-.81-4.03-1.96-5.36-2.56-1.33-.6-3.18-1.42-4.12-1.82-.94-.4-2.54-1.06-3.56-1.46-1.02-.41-2.68-1.04-3.7-1.41-1.02-.36-2.77-.96-3.89-1.33-1.12-.37-2.75-.88-3.61-1.14-.86-.25-2.4-.68-3.41-.94-1.02-.26-2.69-.64-3.7-.85-1.02-.21-2.41-.47-3.09-.57-.67-.11-1.81-.27-2.51-.35-.83-.1-2.24-.17-3.99-.19-1.48-.01-2.85-.01-3.03.01Z"/><path fill="#ffe003" d="M79.93 7.53c-.26.02-1 .08-1.66.14-.65.06-1.74.18-2.42.28-.67.1-1.91.31-2.75.48-.83.16-2.2.46-3.03.66-.84.2-2.27.58-3.18.84-.91.26-2.32.68-3.13.94-.81.26-2.31.76-3.32 1.11-1.02.34-2.58.91-3.47 1.25-.88.34-2.46.97-3.51 1.4-1.04.42-2.83 1.19-3.98 1.7s-2.9 1.3-3.89 1.77c-.99.46-3 1.45-4.46 2.2-1.46.74-3.43 1.77-4.36 2.27a185.098 185.098 0 0 0-7.6 4.38c-1.14.71-2.87 1.8-3.84 2.44-.96.64-2.52 1.7-3.46 2.38-.94.67-2.24 1.63-2.9 2.13-.65.49-1.61 1.26-2.13 1.69-.52.43-1.48 1.27-2.13 1.85-.66.58-1.57 1.46-2.04 1.95s-1.1 1.16-1.4 1.5l-.54.61c-.66 2.57-1 4.04-1.18 4.93-.19.88-.46 2.35-.62 3.26-.16.91-.38 2.3-.48 3.08-.11.78-.28 2.21-.38 3.17-.1.96-.25 2.58-.33 3.6-.08 1.01-.19 2.93-.25 4.26-.07 1.5-.09 4.08-.06 6.86.03 2.44.12 5.4.2 6.58.08 1.17.19 2.62.25 3.21.05.6.18 1.88.28 2.84.11.97.28 2.42.38 3.22.11.81.35 2.38.53 3.5.18 1.12.5 2.93.71 4.03.21 1.09.57 2.84.81 3.88.23 1.04.66 2.81.94 3.93.28 1.11.8 3.01 1.14 4.21.34 1.2 1.02 3.37 1.51 4.82.48 1.46 1.28 3.7 1.76 4.97.48 1.28 1.25 3.22 1.71 4.31.45 1.09 1.09 2.58 1.42 3.31a179.913 179.913 0 0 0 3.98 8.1c.54 1.01 1.41 2.59 1.93 3.5.52.91 1.44 2.46 2.04 3.45.6.99 1.83 2.91 2.73 4.26.89 1.36 2.24 3.32 2.98 4.36.75 1.04 1.83 2.51 2.4 3.26.58.76 1.7 2.18 2.49 3.17.8.99 2.14 2.61 2.99 3.6.85.99 1.93 2.22 2.4 2.74.47.53 1.68 1.82 2.68 2.89 1 1.07 2.78 2.88 3.95 4.02 1.17 1.15 2.89 2.79 3.83 3.65.93.86 2.38 2.16 3.22 2.89.83.73 2.29 1.96 3.23 2.75.93.78 2.24 1.84 2.89 2.37a252.043 252.043 0 0 0 6.21 4.74c.79.57 2.22 1.59 3.18 2.27.97.67 2.74 1.88 3.94 2.68 1.2.8 2.89 1.9 3.75 2.44 1.44.91 1.58.97 1.8.87.13-.06 1.26-.77 2.51-1.58 1.26-.81 3.43-2.26 4.84-3.22 1.41-.97 3.38-2.35 4.37-3.07.99-.72 2.7-1.99 3.79-2.83 1.1-.83 2.83-2.19 3.84-3.02a199.506 199.506 0 0 0 7.6-6.49c.91-.83 2.53-2.36 3.6-3.41 1.07-1.04 2.78-2.74 3.8-3.78a148.432 148.432 0 0 0 5.84-6.34c.63-.73 1.65-1.94 2.28-2.7.63-.75 1.78-2.19 2.56-3.18.78-1 2.01-2.64 2.75-3.65.73-1.01 1.76-2.45 2.29-3.2.52-.76 1.52-2.27 2.23-3.36.7-1.1 1.77-2.8 2.37-3.79.59-.99 1.49-2.52 1.99-3.41.5-.88 1.42-2.59 2.05-3.78.63-1.2 1.6-3.12 2.14-4.26a266.1 266.1 0 0 0 1.53-3.31c.3-.68.92-2.13 1.38-3.22.45-1.1 1.18-2.93 1.61-4.07.43-1.15 1.1-3.02 1.49-4.17a143.49 143.49 0 0 0 2.2-7.14c.2-.76.51-1.89.67-2.51.17-.63.53-2.14.81-3.36.28-1.23.7-3.21.94-4.4.23-1.2.57-3.14.76-4.31.19-1.17.44-2.96.57-3.98.13-1.01.32-2.71.43-3.78.11-1.07.26-2.84.34-3.93.07-1.09.18-3.01.23-4.26.06-1.25.1-3.48.1-4.97 0-1.48-.04-3.65-.1-4.83-.05-1.17-.13-2.79-.19-3.59-.05-.81-.18-2.34-.28-3.41-.11-1.07-.3-2.77-.43-3.79-.13-1.01-.35-2.5-.48-3.31s-.39-2.21-.57-3.12c-.18-.91-.52-2.41-.76-3.34-.23-.92-.47-1.81-.53-1.96-.07-.15-.62-.83-1.22-1.49a44.09 44.09 0 0 0-2.47-2.45c-.75-.68-1.9-1.68-2.55-2.21-.66-.54-1.85-1.48-2.66-2.09-.81-.6-2.05-1.5-2.75-2-.71-.5-1.86-1.29-2.56-1.75-.71-.47-2.03-1.33-2.94-1.9-.92-.57-2.45-1.51-3.42-2.08-.97-.57-2.29-1.34-2.94-1.71-.65-.37-1.96-1.08-2.89-1.59-.94-.5-3.04-1.59-4.65-2.41-1.62-.82-3.88-1.91-5.03-2.44-1.15-.52-2.94-1.32-3.99-1.77-1.04-.46-2.68-1.14-3.65-1.54-.97-.39-2.65-1.04-3.75-1.44a131.468 131.468 0 0 0-8.16-2.7c-.83-.24-2.26-.63-3.18-.85-.91-.23-2.4-.57-3.32-.75-.91-.19-2.1-.4-2.65-.48-.55-.09-1.55-.21-2.23-.28-.68-.08-2.05-.15-3.04-.18-.99-.02-2.01-.03-2.28-.01Z"/><path fill="#0060a9" d="M80.22 26.65a51.635 51.635 0 0 0-4.46.47c-.84.12-2.18.35-2.99.52-.81.16-2.3.51-3.32.76s-2.7.71-3.75 1.03c-1.04.31-2.66.83-3.6 1.15-.94.32-2.39.84-3.23 1.15-.83.31-2.37.91-3.41 1.32-1.05.42-2.67 1.11-3.61 1.52-.94.42-2.86 1.32-4.27 2.01-1.41.68-3.37 1.69-4.36 2.22-.99.54-2.55 1.43-3.47 1.98-.91.55-2.28 1.4-3.03 1.89-.76.49-1.93 1.3-2.61 1.8-.68.49-1.68 1.26-2.23 1.71-.55.44-1.61 1.4-2.36 2.14-.75.73-1.6 1.64-1.9 2.03-.3.4-.64.97-.76 1.28-.12.32-.32.95-.44 1.42s-.28 1.32-.37 1.9c-.08.57-.19 1.44-.24 1.94-.05.49-.12 1.38-.16 1.98-.04.6-.07 2.99-.06 5.3.01 2.32.04 4.39.06 4.59.03.21.05.67.06 1.02v.64h111.53c.11-1.36.17-3.3.2-5.2.04-2.19.02-4.23-.05-5.54-.06-1.15-.17-2.64-.24-3.31-.08-.68-.23-1.7-.33-2.28-.1-.57-.3-1.37-.43-1.77-.13-.4-.34-.94-.47-1.18-.12-.25-.63-.92-1.12-1.49-.5-.58-1.28-1.39-1.74-1.81-.47-.42-1.17-1.03-1.56-1.36-.39-.34-1.31-1.06-2.04-1.6a72.88 72.88 0 0 0-2.94-2.05c-.89-.59-2.36-1.51-3.27-2.06-.92-.54-2.3-1.34-3.09-1.77-.78-.43-2.64-1.38-4.12-2.12-1.49-.74-3.54-1.72-4.56-2.17-1.02-.45-2.38-1.03-3.03-1.3-.66-.27-2.11-.84-3.23-1.27-1.12-.44-3.07-1.14-4.32-1.56-1.25-.43-2.91-.96-3.7-1.19-.78-.23-2.06-.59-2.84-.79-.79-.21-2.11-.53-2.95-.71-.83-.19-2.26-.46-3.17-.62-.92-.15-2.33-.35-3.13-.43-.81-.07-2.12-.16-2.9-.18-.78-.02-1.68-.02-1.99-.01Z"/><path fill="#fff" d="M81.13 30.22c-.17.48-.48 1.37-.7 1.98l-.4 1.11c-2.44-.02-3.23.03-3.8.13-.47.08-1.21.27-1.66.4-.44.14-1.17.44-1.61.66-.44.23-1.1.62-1.47.88-.36.25-.95.74-1.29 1.07-.34.33-.88.95-1.19 1.36-.3.42-.71 1.06-.9 1.42-.19.37-.48 1-.64 1.4-.16.4-.38 1.1-.49 1.54l-.19.8c-3.38 0-4.38.03-4.4.07-.02.04.75.65 1.71 1.35.96.7 1.75 1.31 1.75 1.35 0 .04-.14.4-.3.81-.16.4-.41 1.13-.54 1.63-.22.82-.24 1.06-.25 2.84 0 1.82.02 2 .26 2.88.14.52.49 1.42.77 1.99.28.57.77 1.38 1.08 1.8.31.42.92 1.09 1.36 1.5.44.41 1.22 1.03 1.74 1.37.52.34.96.62.97.63.01 0-.3.96-.69 2.13-.39 1.17-.71 2.14-.7 2.16 0 .01.04.02.09.02.05 0 .89-.58 1.85-1.28.97-.7 1.79-1.27 1.83-1.27.04 0 .28.18.54.41.26.22.82.64 1.24.91.41.28 1.1.67 1.51.86.42.2 1.03.44 1.36.55.32.11.9.26 1.28.35.37.08 1.15.17 1.73.2.58.03 1.4 0 1.85-.05.44-.06 1.15-.2 1.56-.3.42-.11 1.1-.35 1.52-.53.42-.18 1.08-.51 1.46-.73.39-.22 1.06-.69 1.5-1.04.43-.35.81-.64.84-.64.02 0 .82.56 1.78 1.25.95.68 1.78 1.27 1.85 1.3.07.03-.05-.47-.31-1.27-.23-.73-.55-1.71-.71-2.18-.27-.78-.28-.85-.13-.94.08-.05.52-.34.97-.63.45-.3 1.15-.85 1.57-1.23.41-.39 1.02-1.06 1.35-1.5.33-.44.77-1.13.97-1.52.21-.39.53-1.15.71-1.7.18-.55.38-1.36.45-1.8.07-.5.09-1.33.06-2.22-.04-.97-.12-1.67-.25-2.2-.11-.43-.35-1.17-.53-1.64-.19-.47-.34-.89-.34-.94 0-.06.77-.66 1.71-1.35.94-.69 1.69-1.29 1.66-1.33-.02-.04-1.01-.07-2.18-.07h-2.13c-.09-.4-.24-.94-.4-1.47-.16-.52-.43-1.26-.62-1.65-.18-.39-.59-1.12-.92-1.61-.33-.5-.94-1.24-1.35-1.65-.41-.41-1.05-.96-1.41-1.21-.37-.26-1.01-.64-1.42-.85-.42-.22-1.13-.51-1.57-.66-.44-.15-1.19-.34-1.66-.43-.55-.1-1.41-.16-2.41-.16l-1.56-.01c-1-3.04-1.33-3.93-1.38-3.93-.05 0-.22.4-.38.88Z"/><path fill="#0060a9" d="M81.36 30.83c-.02.09-.15.8-.29 1.56-.13.77-.23 1.55-.23 1.73 0 .18-.03.33-.05.33-.03 0-.23-.09-.45-.21-.28-.14-.62-.22-1.07-.24-.49-.03-.8.01-1.19.15-.31.12-.69.36-.97.63-.25.24-.56.65-.7.93-.14.27-.47.72-.74 1-.26.28-.88.82-1.38 1.19-.5.38-1.26.93-1.71 1.22-.44.29-1.04.63-1.33.76-.28.13-.84.31-1.23.39-.39.08-.88.25-1.09.37-.21.12-.51.37-.66.54-.15.18-.38.56-.51.85-.14.31-.24.71-.24.99-.01.26.01.58.05.71l.07.24c-.99-.19-1.87-.32-2.6-.42-.73-.09-1.35-.16-1.38-.14-.02.02 0 .09.06.15.06.07.86.51 1.77.97l1.66.86c-.48.44-.72.78-.85 1.04-.17.37-.21.64-.21 1.23 0 .57.04.86.19 1.18.11.23.44.69.74 1.02.32.35.68.9.91 1.37.2.43.56 1.38.8 2.11s.5 1.64.58 2.03c.1.48.14 1.11.12 1.94-.02 1.08 0 1.29.17 1.66.11.23.36.61.57.83.2.23.59.52.85.64.26.13.6.23.76.23.15 0 .31.02.35.05.04.02-.1.36-.32.73a43.9 43.9 0 0 0-.9 1.75c-.29.6-.47 1.09-.42 1.12.06.02.74-.57 1.52-1.33l1.43-1.37c.34.72.6 1.03.9 1.26.26.2.71.43.99.51.32.09.73.13 1.05.1.29-.02.81-.17 1.18-.34.37-.17.88-.35 1.14-.4.26-.05 1.31-.12 2.33-.15 1.43-.04 2.06-.02 2.82.1.66.1 1.18.25 1.61.45.55.27.74.31 1.4.31.57 0 .87-.05 1.19-.19.23-.11.59-.34.79-.52.2-.18.45-.5.56-.71.1-.2.2-.4.22-.42.02-.03.31.25.64.61.33.37.98 1 1.43 1.4.45.4.84.69.86.64.03-.05-.33-.85-.8-1.78-.47-.92-.85-1.7-.86-1.72 0-.03.16-.08.36-.11.19-.03.5-.12.69-.21.18-.08.51-.31.74-.51.23-.2.53-.59.67-.88.23-.49.25-.6.25-1.98.01-1.2.04-1.61.21-2.23.11-.42.4-1.33.64-2.03.24-.71.59-1.56.78-1.9.18-.34.55-.85.8-1.13.26-.29.56-.72.67-.95.16-.33.21-.6.21-1.18.01-.63-.03-.85-.24-1.28-.14-.29-.39-.64-.55-.78l-.29-.26c1.65-.8 2.44-1.21 2.82-1.42.38-.21.69-.42.69-.47 0-.06-.15-.08-.36-.05-.19.03-.93.13-1.64.23-.7.1-1.43.22-1.63.26l-.35.08c.15-.75.15-1.06.08-1.35-.05-.25-.22-.66-.36-.92a3.12 3.12 0 0 0-.72-.83c-.26-.21-.69-.43-.95-.51-.26-.07-.56-.14-.67-.14-.1 0-.42-.09-.71-.21s-.86-.42-1.28-.68c-.42-.26-1.25-.84-1.85-1.29-.6-.45-1.34-1.09-1.65-1.42-.31-.33-.66-.81-.78-1.05-.13-.25-.39-.61-.58-.79-.2-.19-.53-.43-.74-.54-.27-.14-.61-.21-1.18-.24-.7-.03-.87-.01-1.26.19-.25.12-.47.19-.5.17-.03-.03-.05-.17-.05-.31 0-.14-.08-.74-.18-1.32-.1-.59-.22-1.29-.27-1.57-.05-.27-.13-.49-.19-.49s-.13.07-.16.16Z"/><path fill="#fff" d="M78.32 34.47c-.15.06-.46.23-.69.38-.28.19-.53.5-.85 1.04-.31.53-.67.97-1.16 1.42-.39.36-1.25 1.03-1.9 1.5-.65.46-1.55 1.03-1.99 1.26-.45.23-1.13.48-1.52.57-.4.09-.91.28-1.16.44-.26.16-.58.48-.74.73-.15.25-.32.64-.37.88-.06.26-.06.57 0 .8.05.21.15.48.23.59.08.12.17.22.21.21.04 0 .26.17.48.38.32.31.58.44 1.33.66.5.16 1.22.34 1.59.4.52.09.8.09 1.32 0 .56-.1.72-.1 1 .01.18.07.43.26.55.41.14.18.21.4.21.63 0 .24-.08.45-.24.64-.14.17-.36.31-.54.34-.17.03-.44.02-.6-.02-.15-.03-.56-.32-.9-.64-.39-.36-.86-.68-1.28-.87-.36-.17-1.02-.41-1.45-.55-.7-.22-.86-.24-1.51-.17-.52.05-.83.14-1.05.29-.17.12-.43.44-.57.71-.2.39-.25.61-.25 1.15 0 .5.05.76.21 1.06.11.22.43.65.7.95.32.35.65.87.94 1.49.25.52.62 1.5.84 2.18.21.67.46 1.57.54 1.98.12.57.14 1.02.1 1.76-.05.73-.03 1.11.07 1.46.08.27.3.66.5.89.2.24.57.52.84.64.26.12.64.22.85.23.23 0 .47-.07.62-.18.13-.1.42-.27.64-.38.28-.15.55-.42.93-.94.29-.4.69-1.07.9-1.49.24-.48.41-.98.47-1.37.07-.53.13-.66.42-.92.26-.24.42-.31.72-.31.2 0 .46.04.57.09.1.06.25.23.33.38.08.16.14.4.14.55 0 .14-.09.41-.21.59-.14.21-.43.43-.79.61-.34.17-.81.52-1.18.9-.34.34-.84.95-1.12 1.35-.27.41-.5.84-.5.97s-.05.38-.13.55c-.09.22-.11.42-.04.73.04.23.2.57.35.76.15.18.5.46.78.61.44.24.61.28 1.18.28.53-.01.78-.07 1.28-.3.34-.16.87-.35 1.19-.42.4-.09 1.26-.13 2.94-.12 1.92 0 2.49.03 3.01.16.35.09.86.28 1.14.41.27.14.69.27.92.3.25.03.64-.01.95-.1.35-.1.68-.28.98-.56.26-.23.52-.57.6-.78.11-.27.13-.52.08-.86-.04-.26-.14-.64-.23-.85-.1-.21-.36-.63-.59-.94-.23-.32-.68-.84-.99-1.17-.39-.42-.74-.69-1.15-.88-.33-.15-.68-.39-.79-.53-.1-.15-.22-.39-.25-.55-.04-.19.01-.41.13-.66.14-.29.28-.41.56-.51.33-.11.41-.1.74.05.2.1.44.3.53.46.09.16.19.52.23.8.03.29.2.82.38 1.19.17.36.56 1 .86 1.42.29.41.65.85.79.98.14.12.47.32.73.44.26.13.63.23.81.23.18 0 .5-.08.71-.17.21-.1.52-.3.7-.45.18-.15.43-.49.57-.75.23-.45.25-.53.22-1.7-.02-.87.02-1.46.13-1.99.09-.42.35-1.33.57-2.04.23-.7.63-1.7.89-2.22.28-.58.63-1.12.9-1.4.24-.24.52-.62.62-.82.11-.21.22-.56.25-.79.03-.22.01-.61-.05-.87a3 3 0 0 0-.39-.88c-.17-.23-.45-.47-.69-.59-.26-.12-.61-.18-.99-.18-.39-.01-.85.08-1.33.24-.41.13-1.09.41-1.52.61-.53.25-.93.52-1.23.85-.31.31-.58.5-.83.57-.27.07-.47.07-.69 0-.17-.05-.4-.22-.5-.36-.13-.17-.19-.4-.19-.66 0-.32.06-.46.29-.69.15-.16.42-.31.59-.34.17-.03.54-.01.83.06.29.06.73.09 1 .06.26-.03.89-.17 1.39-.3.51-.13 1.18-.36 1.48-.51.3-.15.68-.42.85-.61.17-.19.35-.45.4-.58.05-.13.1-.44.09-.69 0-.25-.05-.6-.12-.78-.06-.19-.23-.5-.37-.69-.14-.19-.49-.48-.76-.63-.27-.16-.75-.32-1.07-.38-.33-.05-.93-.27-1.42-.52-.47-.24-1.39-.81-2.04-1.28-.65-.46-1.51-1.14-1.9-1.5-.44-.41-.85-.89-1.09-1.3-.21-.36-.51-.78-.66-.94-.16-.16-.46-.37-.67-.47-.28-.15-.57-.19-1.14-.19-.66 0-.82.03-1.11.23-.19.13-.46.41-.59.62-.13.21-.29.61-.35.9-.06.32-.08.95-.05 1.65.03.63.13 1.37.21 1.66.09.29.27.71.4.95.2.34.23.5.19.85-.04.31-.13.49-.35.68-.21.2-.39.26-.67.26-.31 0-.44-.06-.71-.33-.27-.26-.33-.4-.33-.71 0-.23.12-.63.33-1.06.28-.59.34-.85.43-1.82.06-.62.08-1.39.04-1.7-.03-.32-.15-.77-.25-1-.1-.24-.28-.53-.39-.65-.12-.13-.38-.31-.59-.4-.23-.11-.58-.17-.9-.17-.29 0-.65.05-.81.1Z"/><path fill="#0060a9" d="m73.86 35.87-1.52.74c-1.91 1.9-2.42 2.48-2.37 2.51.05.02.79-.28 1.64-.68l1.54-.72c1.84-1.95 2.37-2.53 2.37-2.56 0-.02-.03-.04-.07-.04-.04 0-.75.34-1.59.75Zm13.71-.59c0 .04.54.64 1.21 1.32l1.21 1.26c2.21 1.01 2.88 1.29 2.92 1.27.04-.02-.43-.57-1.04-1.22l-1.12-1.19c-2.39-1.17-3.1-1.51-3.13-1.51-.03 0-.05.03-.05.07Zm-7.78 7.49c-.34.09-.81.25-1.04.36-.24.1-.65.33-.91.51-.27.18-.63.45-.81.61-.18.16-.53.54-.79.85-.26.31-.61.87-.78 1.23-.17.37-.38.94-.47 1.28-.1.39-.16.99-.16 1.61 0 .74.05 1.19.21 1.75.12.42.36 1.03.54 1.37.18.34.58.92.9 1.28.32.36.78.8 1.02.98.24.17.74.46 1.11.63.36.18.96.39 1.32.48.38.09 1.06.16 1.57.16s1.19-.07 1.57-.16c.36-.09 1.02-.33 1.47-.55.65-.32.96-.55 1.66-1.25.7-.69.94-1.01 1.26-1.66.22-.44.47-1.08.56-1.42.1-.39.15-.98.15-1.61 0-.63-.06-1.22-.16-1.61a9.19 9.19 0 0 0-.56-1.42c-.32-.65-.55-.96-1.25-1.66s-1-.93-1.66-1.25c-.45-.21-1.09-.45-1.43-.54-.38-.09-1.01-.14-1.66-.14-.69 0-1.25.06-1.66.17Z"/><path fill="#ffe003" d="M80.69 42.96c-.26.04-.59.11-.73.14-.23.05-.26.1-.24.36.02.3.05.31.83.53.68.19.88.21 1.28.13.26-.05.72-.16 1.02-.24.51-.14.55-.17.55-.43 0-.27-.04-.29-.45-.38-.25-.04-.75-.11-1.12-.13-.36-.03-.88-.02-1.14.02Z"/><path fill="#fff" d="M78.84 43.5c-.28.14-.71.38-.95.54-.23.17-.58.45-.78.63-.2.19-.36.37-.36.41 0 .04.12.11.27.15l.26.08c-.15 1.86-.14 2.08-.03 2.13.07.04.53.24 1.02.46l.91.39 2.23-1.44-.05-2.41c-.59-.18-1.01-.3-1.31-.38-.53-.14-.54-.15-.54-.47 0-.18-.03-.33-.07-.33-.04 0-.31.11-.6.24Zm4.73.07c-.03.28-.07.31-.55.46-.29.08-.72.21-.95.28l-.43.13c-.03 1.76-.01 2.32.03 2.38.04.06.56.44 1.16.85l1.09.75 1.99-.58c.04-1.17.07-1.6.1-1.72.03-.13.17-.27.38-.36l.33-.14c-.63-.76-1.06-1.17-1.38-1.4-.31-.23-.74-.5-.95-.61-.2-.1-.47-.22-.59-.27-.19-.07-.21-.04-.23.23Z"/><path fill="#ffe003" d="M76.33 45.56c-.13.16-.38.62-.56 1.01-.18.39-.39 1.01-.46 1.37-.08.37-.12.69-.08.72.03.04.15.09.27.12.18.05.31-.06.81-.67l.6-.74c.12-1.39.13-1.84.11-1.89-.03-.05-.14-.12-.26-.16-.16-.05-.26.01-.43.24Zm10.18.36c-.25.09-.26.12-.32 1.01l-.07.92c.91 1.47 1.07 1.65 1.24 1.65.12 0 .28-.02.35-.04.09-.03.15-.17.15-.38 0-.19-.07-.66-.15-1.07-.08-.4-.3-1.06-.49-1.47-.2-.4-.38-.73-.41-.72-.02 0-.16.05-.3.1Zm-6.05 1.78c-.55.37-1.03.68-1.08.69-.04.01.05.54.21 1.16.15.63.3 1.25.33 1.4l.06.26h2.8c.63-2.17.81-2.8.79-2.8-.02-.01-.44-.29-.93-.63-.5-.35-.97-.65-1.05-.68-.08-.04-.54.21-1.13.6Z"/><path fill="#fff" d="M76.36 48.33c-.58.7-.61.72-.93.65l-.33-.06c.11 1.07.21 1.64.29 1.96.09.31.3.86.48 1.23l.33.66.51-.53c1.21.59 1.62.76 1.68.76.07 0 .23-.16.36-.35.14-.2.42-.61.64-.92l.4-.57-.67-2.65c-1.5-.69-1.99-.9-2.04-.9-.06 0-.38.32-.72.72Zm8.41.05c-.52.15-.97.3-1 .34-.04.04-.24.66-.46 1.37l-.39 1.31c1.07 1.24 1.42 1.6 1.47 1.6.06 0 .49-.16.97-.35l.88-.35c.33.32.46.42.5.42.04 0 .22-.29.4-.64.17-.35.38-.87.46-1.16.08-.28.17-.7.2-.92.05-.37.04-.4-.13-.35-.11.02-.28.06-.38.09-.16.04-.29-.11-.74-.8-.31-.48-.61-.85-.69-.85-.07.01-.56.14-1.09.29Z"/><path fill="#0060a9" d="M66.16 50.76c.02.11.14.87.26 1.68l.21 1.46c1.16 2.24 1.53 2.91 1.59 2.94.05.02.09-.07.09-.21 0-.15-.08-.91-.19-1.71l-.19-1.44c-1.25-2.28-1.66-2.94-1.72-2.94-.06 0-.09.09-.05.22Zm29.63 1.37-.81 1.49c-.3 2.27-.39 3.03-.39 3.15 0 .11.04.21.07.21.04 0 .42-.65.83-1.44l.76-1.45c.37-2.61.45-3.39.42-3.41-.04-.02-.43.63-.88 1.45Z"/><path fill="#fff" d="M79.26 52.24c-.34.47-.63.89-.62.93 0 .04.29.39.62.78.57.66.61.73.48.9-.07.11-.13.24-.13.31-.01.06.21.17.49.23.27.06.9.11 1.4.11.5 0 1.13-.05 1.4-.11l.5-.11c-.22-.37-.29-.51-.29-.55 0-.04.24-.39.52-.78.29-.39.52-.75.5-.8-.02-.05-.35-.47-.74-.92l-.7-.82-2.79-.01-.64.84Z"/><path fill="#ffe003" d="M76.51 52.72c-.18.19-.18.2.11.55.16.19.55.55.86.8.3.25.79.58 1.08.73.29.16.6.28.69.28.09.01.21-.08.26-.18.08-.16 0-.31-.5-.91-.51-.62-.7-.77-1.35-1.09-.42-.21-.81-.37-.87-.37-.05 0-.18.09-.28.19Zm8.75.18c-.82.33-.87.37-1.4 1.08-.54.7-.55.74-.42.97.14.23.15.23.5.09.2-.08.59-.29.87-.45.27-.17.75-.53 1.06-.8.31-.28.59-.6.62-.71a.416.416 0 0 0-.12-.39c-.1-.09-.19-.16-.22-.15-.03 0-.43.17-.89.36Z"/><path fill="#0060a9" d="M79.65 63.66c-.89.18-1.63.34-1.66.37-.03.03.02.07.09.09.08.02.85.16 1.71.3l1.57.25c2.65-.43 3.35-.58 3.33-.64-.01-.05-.75-.23-1.63-.4-.87-.17-1.64-.3-1.69-.3-.06.01-.83.16-1.72.33ZM25 79.34c.03.59.1 1.85.15 2.82.05.96.16 2.43.24 3.26.08.84.15 1.53.16 1.54.01.01 1.78-1.91 3.92-4.26 2.15-2.36 3.89-4.31 3.87-4.35-.02-.04-1.92-.07-4.21-.07h-4.18l.05 1.06Zm16.18 2.65-4.51 4.95c-.63.68-2.95 3.23-5.17 5.67-2.22 2.44-4.09 4.53-4.17 4.64-.11.16-.11.28-.01.71.06.29.35 1.46.63 2.61.28 1.14.74 2.89 1.02 3.88.29.99.76 2.53 1.05 3.43.29.9.57 1.65.63 1.68.05.03 2.75-2.88 6-6.46 3.26-3.58 8.03-8.83 10.61-11.67 2.58-2.83 6.3-6.92 8.27-9.08 1.96-2.16 3.55-3.96 3.53-4-.03-.04-3.3-.07-7.28-.07h-7.24l-3.36 3.71Z"/><path fill="#fff" d="m69.64 119.9-.01 41.62c3.5 3.27 4.51 4.12 5.32 4.69.66.45 1.96 1.33 2.9 1.96.94.62 2.13 1.4 2.65 1.72.83.52.98.58 1.17.49.11-.05 1.01-.62 1.99-1.25s2.65-1.75 3.72-2.48c1.64-1.13 2.25-1.63 3.96-3.21l2.02-1.87V78.28H69.64v41.62Z"/><path fill="#0060a9" d="M103.95 78.35c-.02.04 1.35 1.6 3.06 3.48 1.7 1.88 5.44 5.99 8.3 9.14 2.87 3.14 7.85 8.62 11.08 12.18 3.23 3.55 5.9 6.46 5.94 6.46.04 0 .36-.88.71-1.96.35-1.09.88-2.82 1.17-3.86.3-1.05.77-2.86 1.05-4.03.28-1.17.51-2.2.51-2.29 0-.09-2.14-2.52-4.76-5.4-2.62-2.87-6.51-7.15-8.66-9.51l-3.9-4.28c-11.2 0-14.47.03-14.5.07Zm25.71 0c-.02.04.47.62 1.1 1.3.62.68 2.36 2.58 3.85 4.23 1.5 1.65 2.76 2.97 2.8 2.93.04-.03.11-.4.16-.82.04-.41.11-1.05.14-1.42.03-.36.09-1.38.14-2.27.05-.88.12-2.15.14-2.82l.06-1.2c-6.47 0-8.36.03-8.39.07Zm-42.47 2.68c-.23.05-.72.23-1.09.4-.36.18-.89.51-1.16.74-.27.23-.71.69-.99 1.03-.31.39-.78 1.21-1.28 2.25l-.79 1.63c-.48-.09-.83-.2-1.09-.31-.26-.1-.6-.26-.76-.36l-.29-.17c-.1.54-.14.75-.14.82 0 .06.23.22.5.35.27.13.72.29 1 .35.39.1.49.16.44.27-.04.07-.4 1.05-.82 2.17-.41 1.12-.94 2.55-1.18 3.17-.24.63-.58 1.44-.76 1.8l-.31.67c-1-.25-1.63-.33-2.05-.33-.41 0-1.02.06-1.35.14-.32.07-.88.28-1.22.45-.35.16-.84.49-1.09.73-.25.23-.54.62-.65.85-.1.24-.19.57-.19.73 0 .17.05.45.12.62.07.17.25.43.41.57.15.15.55.35.89.45.34.11 1 .22 1.47.25.71.05.97.03 1.52-.14.36-.11.94-.38 1.28-.6.34-.21.84-.63 1.12-.92.27-.29.5-.56.5-.6-.01-.04.05-.08.11-.08.07 0 .35.16.64.35.29.2.93.55 1.43.8.49.25 1.16.54 1.49.65.33.1.86.23 1.19.28.32.04.87.06 1.21.04.33-.03.97-.13 1.42-.23.44-.11 1.12-.36 1.52-.56.39-.2 1-.64 1.36-.97.36-.32.85-.89 1.09-1.25.37-.57.44-.74.44-1.14 0-.37-.03-.47-.17-.49-.09-.02-.45.21-.8.51-.35.29-.92.72-1.26.94-.34.21-.84.48-1.11.59-.41.16-.71.2-1.62.2-.61 0-1.5-.06-1.97-.14-.47-.07-1.13-.22-1.47-.32-.34-.11-.99-.34-1.44-.53-.46-.18-.83-.37-.83-.41 0-.03.19-.39.41-.78.23-.39.75-1.37 1.15-2.17.41-.81.92-1.92 1.14-2.46.23-.55.52-1.36.66-1.8l.25-.81c.69-.12 1.26-.29 1.7-.44.44-.16 1.06-.42 1.38-.57.31-.16.82-.46 1.13-.67.32-.22.79-.6 1.06-.87s.64-.79.85-1.19c.35-.67.37-.75.37-1.58 0-.86 0-.87-.33-1.2-.18-.19-.55-.43-.81-.54-.28-.12-.74-.21-1.14-.23-.36-.02-.85.01-1.09.06Z"/><path fill="#fff" d="M87.15 82.43c-.16.04-.45.17-.64.29-.19.12-.47.38-.61.56-.18.23-.47.92-.83 2-.3.91-.52 1.68-.49 1.71.04.02.48-.1.98-.27.51-.17 1.2-.48 1.54-.67.34-.2.75-.52.92-.71.17-.19.4-.52.51-.74.11-.23.22-.6.24-.83.04-.32 0-.51-.15-.74a1.76 1.76 0 0 0-.41-.44c-.11-.07-.34-.15-.5-.18-.15-.02-.41-.02-.56.02Z"/><path fill="#0060a9" d="M58.52 91.22c-1.74 1.91-6.73 7.4-11.09 12.19-4.35 4.79-9.13 10.04-10.62 11.67-1.48 1.63-2.71 3.02-2.73 3.08-.02.06.7 1.56 1.59 3.33.88 1.77 2.06 4 2.61 4.97.55.96 1.04 1.78 1.07 1.82.04.04 1.46-1.46 3.15-3.32 1.7-1.86 5.99-6.57 9.54-10.48 3.55-3.9 7.21-7.93 8.13-8.94l1.68-1.85c.03-13.16 0-15.86-.07-15.89-.05-.03-1.52 1.51-3.26 3.42Zm42.62 4.5v7.97c4.21 4.62 7.92 8.69 10.95 12.02 3.03 3.33 6.86 7.54 8.5 9.35 2.28 2.51 3.01 3.26 3.09 3.17.06-.07.58-.95 1.15-1.96.58-1.02 1.5-2.72 2.05-3.79.54-1.07 1.24-2.48 1.55-3.15l.56-1.21c-.53-.54-2.13-2.3-3.9-4.25-1.77-1.95-5.14-5.66-7.49-8.24-2.35-2.58-6.97-7.66-10.27-11.29-3.3-3.63-6.04-6.6-6.1-6.6-.06 0-.09 2.72-.09 7.98Z"/><path fill="#fff" d="M75.18 96.33c-.27.09-.63.3-.79.45-.17.16-.37.4-.44.55-.07.14-.14.39-.14.56 0 .18.07.38.17.47.09.08.26.2.38.26.12.05.48.1.81.11.44 0 .71-.06 1.06-.23.27-.13.67-.44.91-.7.23-.26.49-.58.56-.72.14-.23.13-.26-.04-.39-.11-.08-.38-.2-.62-.29-.23-.08-.64-.16-.9-.19-.32-.03-.64.01-.96.12Z"/><path fill="#0060a9" d="M78.27 104.37c-.28.08-.77.27-1.07.44-.31.17-.81.57-1.12.89-.31.33-.56.65-.56.71 0 .07.11.23.25.36l.24.23c.46-.58.75-.9.93-1.07.19-.18.54-.42.79-.55.32-.16.61-.22 1.02-.22.48 0 .6.04.81.24.19.19.23.32.23.75 0 .31-.08.75-.2 1.07-.12.3-.51 1.07-.87 1.72-.37.66-1.12 1.95-1.66 2.89-.55.94-1.4 2.37-1.9 3.17-.64 1.03-1 1.74-1.22 2.37-.18.51-.34 1.2-.37 1.61-.05.53-.03.85.1 1.28.12.43.26.66.6.99.33.32.59.47 1.02.59.35.1.91.17 1.47.17.5 0 1.14-.07 1.44-.14.3-.08.79-.27 1.09-.42.3-.15.81-.48 1.12-.74.31-.26.7-.65.85-.87.16-.21.32-.39.36-.39.04 0 .1.16.14.36.03.19.22.59.41.87.18.29.51.66.71.82.21.17.63.42.94.56.53.24.65.25 1.48.21.69-.03.99-.09 1.32-.26.24-.12.55-.33.7-.46.15-.14.38-.47.52-.73.21-.4.25-.58.25-1.23-.01-.49-.06-.88-.17-1.11-.13-.28-.21-.35-.42-.35a.863.863 0 0 0-.47.14c-.2.13-.21.17-.11.49.06.2.08.51.05.69-.03.19-.18.45-.35.62-.28.26-.34.28-1.04.28-.73 0-.76-.01-1.09-.33-.2-.19-.38-.49-.44-.71-.06-.21-.07-.57-.03-.81.03-.23.17-.72.3-1.08.13-.37.64-1.52 1.12-2.56.49-1.04 1.41-2.98 2.06-4.31.66-1.32 1.54-3.07 1.96-3.88.42-.8.77-1.54.77-1.63 0-.1-.09-.18-.21-.21-.12-.02-.6-.08-1.07-.14l-.86-.1c-.36.43-.87 1.35-1.36 2.33-.49.99-1.85 3.81-3.02 6.28-1.17 2.48-2.26 4.71-2.43 4.96-.17.26-.56.71-.87 1-.31.29-.87.68-1.23.86-.56.27-.81.33-1.49.38-.81.04-.82.04-1.09-.24-.18-.18-.3-.43-.35-.71-.05-.29-.02-.65.09-1.13.1-.44.37-1.12.7-1.76.3-.57.98-1.8 1.52-2.74.54-.94 1.38-2.43 1.88-3.31.49-.89 1.11-2.04 1.36-2.56.35-.71.46-1.05.46-1.37 0-.25-.1-.63-.24-.92-.15-.32-.36-.58-.59-.74-.2-.13-.6-.32-.9-.42-.3-.11-.81-.21-1.14-.23-.33-.01-.83.03-1.12.1Zm-17.94 13.16c-.75.82-4.08 4.48-7.39 8.12-3.31 3.64-6.04 6.65-6.07 6.67-.02.03-.69.75-1.47 1.6l-1.42 1.54c.5.69 1.16 1.57 1.79 2.4.63.83 1.67 2.18 2.32 2.98.65.81 1.53 1.87 1.95 2.35.42.49.79.87.82.85.03-.01.48-.49 1-1.06.51-.57 2.98-3.27 5.47-6.01l4.53-4.98c0-12.45-.04-15.95-.08-15.95-.05 0-.7.67-1.45 1.49Zm40.81 6.49.01 7.97c3.41 3.75 5.4 5.94 6.63 7.29 1.23 1.34 2.7 2.97 3.27 3.6.58.64 1.09 1.16 1.14 1.14.06-.01.67-.7 1.37-1.53.69-.83 1.76-2.14 2.38-2.93.61-.78 1.51-1.97 2-2.65.5-.67.93-1.28.97-1.34.04-.08-1.33-1.66-3.8-4.37-2.13-2.34-6.09-6.7-8.8-9.69-2.71-3-4.99-5.45-5.05-5.46-.1 0-.12 1.65-.12 7.97Zm-10.26 1.73c-.12.14-.35.39-.51.54-.16.15-.43.31-.62.36-.18.05-.69.14-1.13.2-.55.07-1.48.08-2.85.04-1.12-.04-2.83-.09-3.8-.11-.96-.01-2.07.01-2.46.06-.39.05-1.06.19-1.47.3-.42.11-.95.34-1.19.49-.23.16-.55.5-.71.76-.24.4-.29.56-.29 1.1 0 .56.04.69.29 1.05.21.29.48.51.94.74.55.28.75.33 1.28.33.44 0 .71-.05.89-.16.22-.14.24-.19.14-.33-.07-.08-.38-.27-.69-.41-.31-.14-.64-.32-.73-.41-.1-.08-.17-.26-.17-.39s.06-.35.13-.5c.07-.14.24-.33.38-.42.14-.09.49-.23.79-.31.3-.08.96-.16 1.45-.18.5-.02 1.05-.01 1.22.02l.32.06c-.1.81-.24 1.56-.37 2.18-.13.63-.3 1.37-.38 1.66-.07.28-.24.85-.37 1.25-.19.6-.27.74-.44.78-.12.02-.51.06-.88.09s-.94.13-1.28.24c-.34.1-.83.32-1.09.5-.26.17-.57.48-.69.69-.15.28-.21.53-.21.97 0 .49.04.64.23.87.13.16.31.29.38.29.11 0 .16-.15.21-.55.05-.44.11-.6.35-.83.17-.16.5-.34.77-.41.26-.07.8-.12 1.19-.12.39.01.72.02.74.04.02.01-.13.51-.32 1.11-.2.6-.55 1.56-.8 2.13-.24.57-.63 1.36-.86 1.75-.22.39-.61.91-.84 1.15-.34.34-.58.48-1.1.64-.52.16-.77.19-1.14.14-.27-.04-.58-.16-.73-.29-.17-.14-.32-.41-.41-.74-.09-.33-.2-.54-.31-.57-.09-.03-.23.02-.3.1-.09.09-.14.31-.14.59.01.25.09.59.17.76.09.16.29.46.46.65.17.19.53.45.79.59.42.22.58.24 1.51.24.96.01 1.1-.02 1.62-.26.31-.15.8-.46 1.09-.68.29-.23.74-.68 1.01-1.01.26-.33.68-.9.91-1.26.24-.37.65-1.11.92-1.66.27-.54.64-1.46.83-2.03l.34-1.04c1.19.05 1.84.02 2.2-.05.37-.06.84-.21 1.05-.33.21-.12.56-.42.78-.66.24-.26.44-.59.51-.83a3 3 0 0 0 .06-.78c-.02-.21-.11-.5-.2-.64-.08-.15-.22-.26-.3-.26-.09 0-.16.12-.19.35-.03.2-.13.48-.22.64-.1.16-.37.38-.64.51-.32.16-.7.24-1.18.27-.39.03-.86.02-1.04-.01l-.34-.06c.26-.99.56-2.34.84-3.64.49-2.36.5-2.37.73-2.34.13.01.92-.02 1.76-.07.83-.06 1.75-.17 2.04-.26.28-.08.72-.25.97-.37.25-.13.62-.39.84-.58.21-.2.47-.52.57-.71.1-.2.19-.5.2-.68.01-.2-.03-.36-.13-.44-.13-.09-.19-.07-.38.15Zm-31.5 21.12c-1.27 1.39-2.46 2.69-2.64 2.9l-.34.38c1.99 1.89 3.19 3.01 3.94 3.71.76.7 1.41 1.24 1.45 1.2.04-.04.07-2.46.07-5.39 0-3.27-.03-5.33-.09-5.33-.05 0-1.13 1.14-2.39 2.53Zm41.76 2.8c0 2.93.03 5.35.07 5.39.04.04.41-.24.82-.61.42-.38 1.6-1.49 2.64-2.46 1.03-.98 1.87-1.82 1.85-1.87-.01-.05-1.18-1.37-2.61-2.93-1.42-1.57-2.62-2.85-2.68-2.85-.06 0-.09 1.84-.09 5.33Zm-16.98-4.66c-.39.1-1.14.4-1.66.66-.53.26-1.36.76-1.85 1.11-.5.35-1.39 1.11-1.98 1.68-.6.57-1.36 1.41-1.69 1.85-.33.44-.84 1.25-1.12 1.8-.28.54-.66 1.44-.85 1.98-.18.55-.4 1.4-.48 1.9-.08.49-.14 1.28-.14 1.75s.06 1.15.14 1.51c.08.37.3 1.01.5 1.42.23.48.57.98.94 1.37.31.34.78.76 1.03.92.26.17.8.39 1.23.5.52.14 1.05.19 1.7.19.74 0 1.09-.05 1.57-.21.34-.12.89-.41 1.23-.65.42-.3.84-.71 1.3-1.32.38-.49.81-1.14.97-1.44.16-.3.3-.64.3-.75 0-.12-.06-.27-.14-.34a.4.4 0 0 0-.32-.06c-.09.02-.35.33-.59.68-.23.35-.77.98-1.18 1.39-.57.56-.89.81-1.24.93-.26.1-.75.2-1.09.23-.34.03-.83.01-1.09-.05-.3-.07-.62-.24-.89-.47-.23-.19-.51-.54-.63-.78-.12-.23-.28-.63-.36-.9-.08-.26-.17-.77-.21-1.13-.04-.4-.02-1.01.05-1.52.06-.46.22-1.21.35-1.65.13-.44.38-1.21.57-1.71.18-.49.56-1.36.84-1.94.28-.57.75-1.42 1.06-1.89.31-.47.85-1.16 1.22-1.55.36-.38.96-.92 1.32-1.2.37-.27.98-.67 1.38-.88.39-.21 1.01-.45 1.37-.54.44-.1.8-.12 1.05-.08.2.04.5.18.64.32.15.13.34.45.42.71.1.32.13.65.09 1-.03.28-.08.66-.11.82-.04.25-.01.33.14.41.11.05.24.07.31.05.07-.03.2-.21.3-.41.1-.2.2-.64.22-1.02.03-.51 0-.77-.15-1.18-.11-.28-.34-.69-.52-.9-.17-.21-.5-.46-.73-.56-.31-.13-.71-.18-1.47-.21-.82-.03-1.19.01-1.75.16Z"/><path fill="#fff" d="M44.83 169.9c.83.83 1.54 1.52 1.57 1.52.02 0-.63-.69-1.45-1.52-.82-.83-1.52-1.51-1.56-1.51-.05 0 .6.68 1.44 1.51Z"/></svg>