<svg xmlns="http://www.w3.org/2000/svg" xml:space="preserve" width="295" height="338" viewBox="0 0 610 700"><path d="M468.396 560.003H19.602C8.795 560.003 0 551.205 0 540.396v-195.05c0-.159.007-4.043.387-10.733 1.098-19.249 5.921-69.661 27.025-121.94l.718-1.803.028-.056.02-.062c7.72-18.785 16.972-36.313 27.503-52.092l.034-.055.042-.055 1.105-1.618c1.196-1.776 2.28-3.38 3.47-5.052 7.144-10 14.883-19.967 23.003-29.636l.034-.035.028-.042.67-.78a487.955 487.955 0 0 1 26.666-29.091l.705-.719.035-.041.034-.035a498.112 498.112 0 0 1 26.735-24.847l.719-.615a492.598 492.598 0 0 1 26.057-20.935l.021-.02.898-.67.063-.05.124-.09.007-.006.29-.214a478.13 478.13 0 0 1 26.832-18.55l.574-.38.034-.022.035-.02c9.17-5.854 18.311-11.225 27.184-15.966l.49-.262c8.32-4.424 13.586-6.78 14.56-7.202l.02-.014.042-.02A19.582 19.582 0 0 1 243.999 0c2.695 0 5.314.546 7.788 1.617.663.284 5.59 2.447 14.069 6.926l.497.27c8.735 4.637 17.828 9.959 27.019 15.799l.041.02.042.028.635.415c8.873 5.66 17.863 11.86 26.728 18.419l.726.54a492.78 492.78 0 0 1 26.728 21.335l.02.02.028.021.712.622a490.934 490.934 0 0 1 26.694 24.688l.041.042.049.048.67.691a484.22 484.22 0 0 1 26.666 28.98l.698.809.034.034.028.042c8.45 10.008 16.432 20.264 23.743 30.5.78 1.092 1.513 2.177 2.225 3.221l.076.11 1.555 2.281.013.021.014.028c10.51 15.564 19.756 32.83 27.481 51.304l.733 1.734.014.042.013.041c18.879 45.913 25.05 90.665 27.046 113.252.311 3.525.56 6.884.747 9.973.428 7.14.428 11.308.428 11.48v195.043c0 10.81-8.79 19.607-19.604 19.607" style="fill:#fff;fill-opacity:1;fill-rule:nonzero;stroke:none" transform="matrix(1.25 0 0 -1.25 .002 700)"/><path d="M19.603 548.53c-4.491 0-8.14-3.642-8.14-8.135V345.347c0-.152.014-3.788.373-10.084 1.064-18.69 5.756-67.63 26.223-118.325l.725-1.825c7.436-18.095 16.315-34.93 26.432-50.08l1.132-1.66a240.725 240.725 0 0 1 3.324-4.837 470.615 470.615 0 0 1 22.437-28.911l.699-.81a471.268 471.268 0 0 1 26.078-28.452l.739-.755a485.936 485.936 0 0 1 26.106-24.272l.699-.602a484.767 484.767 0 0 1 26.092-20.921c.007-.007.221-.165.228-.172l.49-.36a464.228 464.228 0 0 1 26.23-18.143l.596-.386c8.92-5.695 17.73-10.88 26.417-15.518l.497-.268c8.52-4.527 13.57-6.732 13.778-6.822a8.143 8.143 0 0 1 3.242-.678 8.18 8.18 0 0 1 3.227.67c.2.09 4.947 2.15 13.267 6.545l.483.257c8.485 4.513 17.303 9.67 26.251 15.357l.664.428c8.658 5.53 17.441 11.584 26.106 17.991l.72.54a478.265 478.265 0 0 1 26.098 20.83l.712.616a483.178 483.178 0 0 1 26.099 24.14l.712.727a474.762 474.762 0 0 1 26.092 28.358l.719.842a464.009 464.009 0 0 1 23.169 29.761c.74 1.023 1.437 2.068 2.142 3.105l1.575 2.308c10.089 14.942 18.976 31.537 26.405 49.314l.739 1.754c18.29 44.497 24.281 87.956 26.223 109.9.325 3.657.56 6.911.725 9.655.4 6.732.408 10.623.408 10.79v195.041c0 4.493-3.648 8.135-8.14 8.135H19.604z" style="fill:#001f59;fill-opacity:1;fill-rule:nonzero;stroke:none" transform="matrix(1.25 0 0 -1.25 .002 700)"/><path d="M27.74 532.256h432.52V345.363c0-.035-.008-3.636-.374-9.829a352.395 352.395 0 0 0-.69-9.192c-1.86-21.025-7.596-62.63-25.065-105.13l-.697-1.659c-7.02-16.809-15.395-32.45-24.868-46.48l-1.577-2.315c-.629-.926-1.25-1.852-1.906-2.764-6.883-9.642-14.409-19.305-22.349-28.711l-.704-.83a460.148 460.148 0 0 0-25.2-27.383l-.699-.712a466.075 466.075 0 0 0-25.2-23.305l-.706-.608a465.522 465.522 0 0 0-25.234-20.154l-.664-.491c-8.368-6.193-16.84-12.032-25.214-17.375l-.67-.428c-8.535-5.433-16.985-10.375-25.063-14.667l-.727-.388a243.54 243.54 0 0 0-8.651-4.367 243.68 243.68 0 0 0-9.383 4.763l-.692.365c-8.092 4.327-16.536 9.295-25.16 14.797l-.4.256c-.02.014-.214.146-.242.16a451.817 451.817 0 0 0-25.153 17.403l-.725.539a466.836 466.836 0 0 0-25.222 20.23l-.684.587a468.242 468.242 0 0 0-25.208 23.438l-.69.704a459.378 459.378 0 0 0-25.215 27.508l-.684.794a454.993 454.993 0 0 0-21.628 27.867c-1.058 1.486-2.067 2.986-3.083 4.486l-1.113 1.631c-9.487 14.217-17.861 30.1-24.889 47.206l-.684 1.714c-19.562 48.464-24.048 95.29-25.07 113.17-.332 5.784-.338 9.163-.338 9.163v186.9z" style="fill:#fff200;fill-opacity:1;fill-rule:nonzero;stroke:none" transform="matrix(1.25 0 0 -1.25 .002 700)"/><path d="M468.004 540.393h-.705V325.625c.318 3.566.546 6.746.705 9.42v205.348zM440.944 540.393V216.41c.235.567.477 1.133.705 1.693v322.29h-.705zM415.294 540.393h-.705v-34.82c.235-.132.47-.27.705-.401v35.22zM414.589 167.463l.705 1.036v84.922c-.235-.353-.47-.712-.705-1.065v-84.893zM414.589 423.754c.235-.366.47-.725.705-1.105v17.624c-.235-.125-.47-.249-.705-.366v-16.153zM388.939 365.11v70.297h-.712v-71.624c.242.436.484.878.712 1.327M388.227 133.189c.242.276.477.552.712.829v90.52c-.235-.187-.47-.374-.712-.56v-90.79zM388.939 540.393h-.712v-30.321h.712v30.32zM361.872 104.596c.235.235.47.484.712.719v103.561c-.235-.096-.477-.172-.712-.27v-104.01zM362.245 473.51a13.122 13.122 0 0 0-.373-.56v-7.402c.125-.249.249-.49.373-.746v8.708zM362.245 503.174c0 .705.139 1.369.339 2.012v35.207h-.712v-41.815c.132-.2.256-.4.373-.601v5.197zM362.584 333.967v101.44h-.712V333.345c.235.208.47.415.712.622M335.517 314.498c.242.131.463.235.705.373v64.09c-.235-.09-.463-.193-.705-.276v-64.187zM335.517 426.111c.242-.09.47-.193.705-.29v28.303a46.251 46.251 0 0 1-.705 1.486V426.11zM335.517 80.26c.235.2.47.408.705.609v81.168c-.235-.366-.47-.74-.705-1.106v-80.67zM336.222 540.393h-.705v-30.32h.705v30.32zM309.867 540.393h-.705v-32.304c.222.214.463.4.705.587v31.717zM309.867 427.86v8.95c-.242.18-.483.367-.705.58v-9.55c.083 0 .16.02.242.02h.463zM309.162 59.263l.705.519v27.452c-.22-.31-.463-.615-.705-.92v-27.05zM309.162 376.895V309.3c.028-.007.056-.007.083-.014l.622-.117v67.698h-.463c-.083 0-.159.028-.242.028M283.512 540.393h-.705v-30.666c.235-.056.47-.104.705-.16v30.826zM282.808 41.128c.234.145.47.304.704.456v31.17c-.235-.034-.47-.062-.704-.096v-31.53zM283.512 313.654v63.213h-.704v-63.109c.234-.041.47-.069.704-.104M283.512 476.268a11.498 11.498 0 0 1-.704 2.163v-11.397c.297.67.532 1.39.704 2.157v7.077zM282.808 435.767v-7.907h.704v8.073l-.704-.166M256.453 25.75c.22.117.476.255.704.38v43.832l-.704-.076V25.75zM256.453 427.86h.704v9.42c-.235.09-.476.166-.704.263v-9.683zM257.157 316.917v59.95h-.704v-59.888l.704-.062M257.157 540.393h-.704v-32.45c.228.09.47.16.704.25v32.2zM230.098 427.86h.704v32.512h-.704V427.86zM230.098 26.524c.235-.125.476-.256.704-.374v43.743c-.234.02-.47.049-.704.07v-43.44zM230.802 317.041v59.826h-.704v-59.881c.228.02.463.041.704.055M230.802 540.393h-.704v-30.32h.704v30.32zM204.448 435.407h-.712v-13.27c.124.726.373 1.403.712 2.032v11.238zM204.448 540.393h-.712v-30.32h.711v30.32zM203.736 42.06c.235-.145.477-.304.712-.456v31.081l-.712.104V42.061zM203.736 313.654c.242.035.47.07.712.104v68.21l-.712.864v-69.178zM178.086 435.407h-.705v-7.56c.242-.008.477-.042.705-.07v7.63zM178.086 540.393h-.705v-30.32h.705v30.32zM177.38 466.896l.706-.885v16.063l-.705-.913v-14.265zM177.38 309.08c.236.04.47.089.706.137v70.428c-.27.36-.505.747-.705 1.162v-71.728zM177.38 60.341c.236-.18.47-.352.706-.525v26.312c-.235.297-.477.588-.705.899V60.34zM151.026 314.422c.235-.132.47-.263.712-.387v63.254c-.249.062-.47.138-.712.207v-63.074zM151.738 448.4l-.712-.925v-19.643c.242-.013.477-.041.712-.076v20.645zM151.026 81.518c.235-.207.47-.407.712-.615v79.703c-.242.36-.477.712-.712 1.079V81.518zM151.738 540.393h-.712v-40.239l.712-.92v41.159zM125.376 540.393h-.705v-30.32h.705v30.32zM125.376 332.73v102.677h-.705V333.332c.235-.208.47-.401.705-.602M124.671 106.075c.235-.235.47-.484.705-.719V208.22c-.235.097-.47.2-.705.297V106.075zM99.021 481.977c-.235.193-.456.408-.705.58v-19.663c.249.173.47.387.705.588v18.495zM98.316 364.074c.228-.436.47-.864.705-1.293v72.454c-.235-.042-.47-.063-.705-.097v-71.064zM99.021 540.393h-.705v-30.044c.235-.035.47-.056.705-.097v30.14zM98.316 134.889c.235-.284.47-.546.705-.83v89.345c-.235.18-.477.346-.705.532V134.89zM71.961 423.112c.235.36.463.725.705 1.078v14.562c-.235.111-.477.208-.705.325v-15.965zM71.961 169.584c.228-.345.47-.684.705-1.03v83.008c-.235.352-.477.698-.705 1.043v-83.02zM72.666 540.393h-.705v-33.998c.228.118.47.208.705.325v33.673zM19.604 540.393V345.35s0-3.484.352-9.621v204.663h-.352zM45.606 540.393V219.976c.235-.587.463-1.182.705-1.77v322.187h-.705zM238.61 218.47l-.04 9.268c0 .373-.021.746-.05 1.133l-3.869.367c-1.299.117-2.563.241-3.849.366-.235.02-.47.041-.704.069-3.117.29-6.24.58-9.329.885-.2-.056-.504-.443-.601-.567l-.346-.442c-1.271-1.625-2.577-3.297-4.132-4.77-3.248-3.061-7.186-4.858-11.242-5.328-.235-.028-.47-.02-.712-.035a18.635 18.635 0 0 0-11.45 2.806c-4.443 2.786-7.83 6.787-10.338 12.234-.407.884-.85 1.23-1.817 1.43-.684.139-1.361.304-2.045.45-.235.055-.47.103-.705.159-1.189.262-2.384.518-3.573.787-1.333.305-2.66.609-3.994.899-.27.062-.552.104-.843.138-.18-.38-.359-.753-.546-1.12-2.508-5.059-5.763-10.864-10.883-15.523a666.956 666.956 0 0 0-5.804-5.239l-.712-.629a585.686 585.686 0 0 0-6.53-5.743c-.78-.677-.815-.857-.657-1.597 1.624-7.623 4.043-15.032 7.187-22.172.235-.525.47-1.05.712-1.575a116.213 116.213 0 0 1 6.495-12.206c3.158-5.156 6.205-9.718 9.329-13.954 3.116-4.223 6.433-8.446 9.819-12.648l.705-.871c.967-1.19 1.907-2.392 2.888-3.574 4.118-4.941 5.853-10.09 5.307-15.73-.194-1.97-.49-3.933-.774-5.833a164.95 164.95 0 0 1-.47-3.228c-.642-4.797-1.306-9.752-.836-14.715.463-4.927 2.329-8.439 5.867-11.058 3.918-2.91 8.43-4.88 13.668-6.013.228-.048.483-.07.712-.117 1.395-.277 2.805-.54 4.311-.705 6.275-.67 12.549-1.3 18.83-1.929l2.509-.249.704-.076.132-.013c2.08-.208 4.16-.394 6.35-.595l1.265-.11c.041 5.073.048 9.468.007 13.67a18.708 18.708 0 0 0-.968-.808 35.484 35.484 0 0 0-6.785-4.126c-.235-.104-.47-.2-.705-.304-5.95-2.592-12.48-3.394-19.542-2.302-2.26.353-4.291 1.002-6.108 1.894-.25.117-.47.262-.712.387-4.47 2.447-7.498 6.545-8.817 12.199-1.258 5.404-1.085 10.699.511 15.744 1.506 4.762 4.353 8.3 8.306 10.506.242.138.463.29.712.414 1.423.712 2.992 1.258 4.685 1.631 4.906 1.079 10.026.767 15.195-.933 1.962-.643 3.87-1.472 5.77-2.412.235-.117.47-.221.705-.345a53.602 53.602 0 0 0 8.015-5.087l.007 12.648c.007 9.676.014 19.345-.014 29.021-.048 18.523-.124 37.046-.2 55.575" style="fill:#001f59;fill-opacity:1;fill-rule:nonzero;stroke:none" transform="matrix(1.25 0 0 -1.25 .002 700)"/><path d="M415.294 397.118a157.943 157.943 0 0 1-8.099 15.98c1.569-8.08 1.887-16.471.933-25.034-1.651-14.819-7.331-28.787-16.888-41.518-.732-.981-1.534-1.894-2.3-2.84-.243-.29-.47-.581-.713-.871-5.058-6.055-10.71-11.446-16.197-16.367a218.127 218.127 0 0 0-9.446-7.99c-.242-.186-.477-.38-.712-.566-6.647-5.253-13.129-9.642-19.59-13.263a111.717 111.717 0 0 0-6.06-3.159c-.235-.11-.463-.228-.705-.338-4.07-1.908-8.706-3.677-13.723-4.673-.47-.09-.94-.186-1.195-.255-.083-.27-.194-.788-.284-1.217-.988-4.713-1.623-9.634-1.934-15.046-.415-7.25.22-14.445 1.9-21.384 2.536-10.471 7.38-20.43 14.393-29.588.27-.36.567-.664.843-1.003.235-.29.47-.566.705-.843 3.359-3.953 7.049-7.07 11.291-9.372 1.438-.78 2.654-.884 4.18-.366 3.497 1.189 6.87 2.626 10.18 4.188.234.111.476.222.711.332 9.308 4.465 17.876 10.367 25.643 17.673.235.221.477.428.712.65a115.5 115.5 0 0 1 11.678 12.98c5.438 7.049 10.061 14.776 13.972 23.319.235.518.47 1.05.705 1.575a150.007 150.007 0 0 1 5.963 15.945c3.697 11.881 5.86 22.988 6.606 33.95a138.972 138.972 0 0 1-1.769 33.541c-2.162 12.295-5.804 24.183-10.8 35.56M151.026 227.44c.235.284.477.567.712.865a63.717 63.717 0 0 1 1.893 2.536c8.714 12.44 13.482 24.895 14.566 38.082.712 8.667.104 17.341-1.872 26.527-.131.587-.194.74-1.044.919-2.135.463-4.643 1.043-7.055 1.866-2.232.76-4.388 1.645-6.488 2.592-.235.103-.477.2-.712.304-7.387 3.407-13.896 7.713-19.044 11.355a185.915 185.915 0 0 0-6.606 4.928c-.235.18-.47.346-.705.526-7.518 5.888-14.836 12.53-21.822 19.822-1.34 1.396-2.591 2.84-3.828 4.285-.228.27-.484.525-.705.795-4.56 5.467-8.375 11.259-11.36 17.285-8.368 16.927-10.8 34.717-7.256 52.963-2.59-4.389-4.885-8.964-7.034-13.63-.235-.51-.477-1.022-.705-1.534-3.24-7.23-6.005-14.721-8.154-22.49-2.985-10.81-4.726-21.82-5.161-32.719-.394-9.87.373-19.995 2.3-30.106 2.495-13.118 6.13-24.812 11.015-35.567.235-.525.463-1.05.705-1.569a125.79 125.79 0 0 1 2.577-5.21c6.171-11.785 13.931-22.076 23.073-30.68.228-.222.47-.43.705-.644.912-.843 1.824-1.693 2.764-2.502 7.076-6.096 14.746-11.086 22.886-14.942.235-.11.47-.235.705-.339a97.243 97.243 0 0 1 9.626-3.884c1.547-.526 2.764-.429 4.208.325 4.374 2.294 8.264 5.543 11.816 9.842M282.808 232.5l-6.496-.899c.836-1.99 2.508-3.449 4.706-4.036.573-.152 1.175-.228 1.79-.276.234-.021.462-.042.704-.042.995-.014 2.053.097 3.22.339 4.126.87 6.917 2.965 8.541 6.4.035.076.07.159.104.242l-11.865-1.631-.704-.097zM201.145 227.482c.932-.145 1.782-.18 2.59-.152.25.007.478.055.713.076 1.727.18 3.213.74 4.491 1.81.947.796 1.562 1.563 1.9 2.406-2.045.311-4.2.629-6.391.947-.235.027-.47.062-.712.097a529.1 529.1 0 0 1-12.155 1.63c.138-.317.318-.642.532-1.008 1.907-3.263 4.865-5.163 9.032-5.806" style="fill:#001f59;fill-opacity:1;fill-rule:nonzero;stroke:none" transform="matrix(1.25 0 0 -1.25 .002 700)"/><path d="M343.035 209.36c-1.803 1.486-3.551 3.027-5.306 4.569-.498.435-1.002.87-1.507 1.306-.235.207-.47.408-.705.615-.47.408-.94.822-1.416 1.23-7.29 6.207-12.542 13.153-16.032 21.219l-2.28-.512c-1.983-.442-3.952-.87-5.922-1.3-.235-.048-.47-.103-.705-.151-.808-.18-1.623-.367-2.432-.54-.898-.186-1.292-.49-1.617-1.243-1.617-3.719-3.994-7.016-7.27-10.077-4-3.746-9.19-5.488-14.33-5.15-.236.014-.47.063-.705.09-2.66.277-5.294 1.065-7.726 2.495-3.082 1.804-5.756 4.368-7.946 7.61-.657.96-1.002 1.071-1.915.96-2.68-.317-5.39-.58-8.064-.836-.235-.02-.47-.041-.704-.069-.602-.055-1.21-.11-1.804-.166-1.686-.159-3.379-.318-5.065-.483-.38-.035-.76-.097-1.154-.16.048-16.228-.035-32.656-.117-48.56-.104-19.303-.215-39.236-.07-59.017 2.792 2.06 5.5 3.76 8.21 5.156.235.125.47.256.704.373.913.457 1.832.878 2.744 1.265 6.288 2.633 12.541 3.235 18.602 1.79 1.575-.373 2.978-.954 4.305-1.638.248-.124.47-.283.704-.421 2.688-1.549 4.872-3.698 6.399-6.566 2.937-5.523 3.649-11.77 2.184-19.104-1.14-5.709-4.084-9.91-8.583-12.42-.228-.124-.47-.241-.704-.366a20.651 20.651 0 0 0-4.755-1.686c-2.73-.615-5.666-.871-8.727-.754-4.45.16-8.506 1.016-12.169 2.516-.241.104-.47.207-.704.311-2.951 1.3-5.646 3.014-8.044 5.19.007-.269.014-.538.028-.815.02-.691.041-1.361.02-2.039a97.16 97.16 0 0 1 0-6.51c.028-.705 0-1.417-.034-2.122-.034-.823-.076-1.617.007-2.336l7.732.774c.097.014.194.02.29.034.236.021.47.049.705.07 7.512.746 15.016 1.492 22.52 2.301 1.071.117 2.108.283 3.13.47.236.048.47.097.705.152 5.349 1.099 9.992 3.262 14.09 6.58 2.619 2.122 4.14 4.575 4.782 7.74.65 3.221.76 6.691.331 10.92-.393 3.975-.98 8.308-1.782 13.257-1.1 6.718.56 12.738 4.913 17.894.718.857 1.45 1.707 2.183 2.557.38.429.753.878 1.133 1.32l.705.83a92.144 92.144 0 0 1 3.158 3.877c9.142 12.026 16.363 22.435 21.905 34.136.207.442.387.891.587 1.334.242.539.47 1.078.705 1.61 3.061 6.953 5.46 14.155 7.055 21.467.152.705.104.74-.241 1.023" style="fill:#001f59;fill-opacity:1;fill-rule:nonzero;stroke:none" transform="matrix(1.25 0 0 -1.25 .002 700)"/><path d="M256.453 98.963c.235-.16.463-.339.704-.484 3.476-2.122 7.588-3.29 12.404-3.511.366 0 .732-.014 1.099-.02.746-.028 1.437-.05 2.08.027 5.05.608 8.23 2.924 9.722 7.07.152.415.228.837.346 1.251.38 1.327.621 2.654.704 3.988v1.977c-.069 1.417-.29 2.84-.704 4.25-.063.208-.083.408-.146.616-1.16 3.538-3.475 5.792-7.075 6.897-2.771.85-5.805.913-9.274.194a25.365 25.365 0 0 1-9.156-3.864c-.241-.166-.47-.359-.704-.525-2.53-1.831-4.907-4.174-7.194-7.119-.884-1.14-.85-1.658-.29-2.62 2.01-3.476 4.512-6.15 7.484-8.127M230.802 116.698l-.062.041c-.214.152-.428.256-.642.401-4.616 3.076-9.129 4.645-13.69 4.645-1.16 0-2.32-.104-3.489-.298-4.056-.677-7.18-3.234-8.471-6.828a10.598 10.598 0 0 1-.443-1.576c-.138-.698-.186-1.39-.27-2.08-.186-1.624-.276-3.235-.151-4.72.034-.38.103-.727.152-1.086.159-1.092.387-2.101.712-3.006 1.195-3.36 3.544-5.53 7.13-6.58 1.238-.36 2.571-.519 3.98-.691.381-.049.754-.09 1.134-.139.173.09.353.146.54.16l.345.027c.331.028.65.055.974.062 4.118.07 7.926 1.307 11.547 3.719.235.159.47.304.704.47a31.527 31.527 0 0 1 4.043 3.455c.974.975 1.734 2.267 2.536 3.636.338.58.677 1.161 1.036 1.728.187.283.29.449-.193 1.106-2.53 3.38-4.892 5.778-7.422 7.554M257.157 237.262c5.376.318 10.85.836 16.384 1.555 3.151.4 6.22.864 9.266 1.348.235.034.477.062.705.103a281.163 281.163 0 0 1 25.65 5.343c.235.055.47.117.705.18 1.348.345 2.716.663 4.05 1.036.241.063.476.139.718.215a.21.21 0 0 0-.014.055c-.387 1.72-.78 3.435-1.174 5.156-.899 3.884-1.825 7.907-2.612 11.895a86.175 86.175 0 0 0-.968 6.185c-.76 6.276-.74 12.4 0 18.295.062.49.083.995.152 1.48.277 1.865.595 3.724.912 5.604l.194 1.155-1.258.235-.705.13-2.086.388c-4.119.767-8.382 1.555-12.577 2.24l-1.776.29c-3.033.497-6.122.995-9.21 1.479-.236.041-.47.076-.705.117-4.153.65-8.327 1.272-12.48 1.81a351.21 351.21 0 0 1-13.17 1.445l-.705.063c-2.564.228-5.065.421-7.463.566-6.247.36-12.487.035-18.187-.484-.242-.027-.463-.048-.705-.076a243.752 243.752 0 0 1-4.803-.49c-6.599-.747-13.412-1.673-20.847-2.834-.235-.035-.477-.069-.712-.11-6.675-1.051-13.862-2.288-21.919-3.774-1.237-.228-2.474-.49-3.731-.747-.235-.048-.463-.09-.705-.138l-.048-.007-.871-.18c0-.373 0-.725.02-1.07.16-2.558.325-5.115.491-7.673l.373-5.77c.028-.478.014-.92.035-1.397a94.542 94.542 0 0 0 0-9.178c-.29-6.145-1.14-11.95-2.716-17.493-.511-1.783-1.002-3.58-1.506-5.426l-.311-1.154c1.485-.429 3.02-.822 4.533-1.23.235-.07.47-.132.705-.194a287.885 287.885 0 0 1 25.65-5.584c.242-.035.47-.083.711-.125.74-.124 1.465-.27 2.205-.387a256.75 256.75 0 0 1 23.446-2.695c.235-.014.47-.035.704-.049 3.607-.235 7.187-.407 10.718-.463 4.865-.076 9.86.042 14.932.332.235.007.47.014.705.028" style="fill:#001f59;fill-opacity:1;fill-rule:nonzero;stroke:none" transform="matrix(1.25 0 0 -1.25 .002 700)"/><path d="M461.436 69.477c-.864 0-1.563.699-1.563 1.554v76.088a1.56 1.56 0 0 0 1.563 1.555h29.843c10.91 0 19.926-2.255 26.957-6.635.294-.19.588-.38.881-.578 1.512-1.01 2.964-2.084 4.285-3.31 7.558-7.007 11.383-16.743 11.383-28.942 0-11.629-3.765-21.26-11.193-28.639-1.382-1.373-2.903-2.574-4.475-3.697-.293-.207-.587-.424-.88-.623-6.73-4.484-15.073-6.773-24.946-6.773h-31.855zM480.99 86.53h9.977c7.178 0 12.723 2.012 16.48 5.969 3.784 3.983 5.701 9.573 5.701 16.605 0 6.791-1.9 12.304-5.64 16.399-3.706 4.06-9.198 6.115-16.332 6.115H480.99V86.531zM392.49 69.477c-.864 0-1.562.699-1.562 1.554v76.088a1.56 1.56 0 0 0 1.562 1.555h18.002c.855 0 1.555-.7 1.555-1.555v-29.322h3.61c1.304 0 2.53.398 3.74 1.133.293.181.587.37.88.595.337.26.674.519 1.002.838 1.926 1.832 4.328 6.22 7.17 13.028 2.92 7.032 5.01 11.88 6.194 14.394.25.544.803.889 1.408.889h19.754a1.553 1.553 0 0 0 1.416-2.194 1362.662 1362.662 0 0 1-3.99-8.986c-.147-.32-.278-.622-.424-.941-.156-.354-.312-.699-.467-1.053-1.494-3.43-3.024-6.929-4.578-10.549-2.756-6.428-5.622-10.816-8.705-13.305 7.238-4.302 10.908-10.592 10.908-18.73 0-6.47-2.375-12.053-7.04-16.605-4.664-4.536-10.77-6.834-18.155-6.834h-32.28zm19.557 17.054h7.549c.25 0 .44.034.681.043 7.066.242 8.051 3.835 8.051 7.006 0 2.333-.692 4.06-2.117 5.262-1.425 1.21-3.429 1.832-5.934 1.875-.095 0-.172.017-.267.017h-7.963V86.531zM340.77 68.492c-7.196 0-13.63 1.357-19.323 3.957-.293.13-.596.258-.88.397a38.927 38.927 0 0 0-10.893 7.828c-5.399 5.512-8.923 11.749-10.65 18.574a39.822 39.822 0 0 0-1.245 9.857c0 3.361.425 6.575 1.176 9.676 1.71 7.015 5.295 13.349 10.815 18.87a39.11 39.11 0 0 0 10.796 7.662c.285.146.588.268.881.398 5.71 2.592 12.145 3.94 19.323 3.94 4.534 0 8.775-.545 12.74-1.608.293-.086.587-.171.88-.258 6.582-1.918 12.352-5.315 17.223-10.187 7.99-8 12.041-17.59 12.041-28.493 0-10.764-3.99-20.31-11.867-28.406-4.854-4.976-10.685-8.44-17.396-10.375l-.881-.234c-3.956-1.046-8.197-1.598-12.74-1.598zm0 18.963c5.087 0 9.267 1.261 12.74 3.715.31.225.587.492.88.734.597.475 1.217.9 1.77 1.461 3.853 3.931 5.815 9.218 5.815 15.74 0 6.48-1.962 11.768-5.815 15.707-.553.562-1.173.985-1.77 1.47-.293.241-.57.509-.88.734-3.464 2.47-7.644 3.732-12.74 3.732-6.487 0-11.55-1.944-15.471-5.935-1.676-1.702-2.902-3.665-3.852-5.807-.345-.77-.63-1.58-.88-2.41a25.729 25.729 0 0 1-1.106-7.49c0-2.722.423-5.167 1.105-7.448.25-.846.536-1.659.881-2.445.959-2.177 2.193-4.163 3.852-5.848 3.921-3.974 8.984-5.91 15.47-5.91z" style="fill:#001f59;fill-opacity:1;fill-rule:nonzero;stroke:none" transform="matrix(1 0 0 1 .002 .004)"/><path d="M192.88 441.06h14.4c.692 0 1.244.56 1.244 1.245v23.72h24.165c.166 0 .318.035.456.09.463.187.795.629.795 1.154v11.155c0 .512-.311.947-.747 1.14a1.25 1.25 0 0 1-.504.111h-24.165v11.1h24.165c.69 0 1.25.553 1.25 1.244v11.155a1.25 1.25 0 0 1-1.25 1.244H192.88c-.159 0-.304-.034-.442-.09a1.231 1.231 0 0 1-.802-1.154v-60.87c0-.683.553-1.243 1.244-1.243M124.671 496.947l.705-.891 17.558-22.22-17.558-22.553-.705-.912-5.68-7.299a1.24 1.24 0 0 1-.138-1.313 1.241 1.241 0 0 1 1.12-.698h18.4c.395 0 .76.18.996.49l11.657 15.22.712.926 2.045 2.674 14.677-18.833c.242-.298.601-.477.988-.477h18.685a1.247 1.247 0 0 1 .974 2.025l-3.123 3.919-7.898 9.925-.705.891-12.763 16.042 12.763 16.553.705.912 7.898 10.243.65.843c.29.373.338.885.13 1.306-.137.284-.386.456-.67.574-.145.055-.283.124-.449.124h-18.298c-.386 0-.76-.18-.995-.497l-12.569-16.657-2.045 2.675-.712.92-10.013 13.076a1.25 1.25 0 0 1-.988.483H121.34c-.476 0-.912-.27-1.126-.705a1.242 1.242 0 0 1 .145-1.313l4.312-5.453z" style="fill:#001f59;fill-opacity:1;fill-rule:nonzero;stroke:none" transform="matrix(1.25 0 0 -1.25 .002 700)"/><path d="M114.387 68.492c-9.035 0-16.904 2.108-23.555 6.203-.294.182-.596.328-.88.518a39.502 39.502 0 0 0-6.661 5.46c-7.895 8.07-11.893 17.633-11.893 28.432 0 10.981 4.034 20.589 11.989 28.545 2.03 2.03 4.215 3.801 6.564 5.313.285.19.587.338.881.52 6.677 4.077 14.546 6.167 23.555 6.167 2.954 0 5.787-.24 8.508-.699.293-.043.587-.096.88-.156 8.37-1.564 15.567-5.297 21.457-11.197 5.278-5.288 8.8-11.274 10.606-17.866.371-1.339.658-2.713.883-4.113.337-2.117.552-4.285.552-6.514 0-2.22-.215-4.379-.552-6.496a38.05 38.05 0 0 0-.883-4.103c-1.788-6.514-5.251-12.485-10.434-17.807-5.847-6.004-13.103-9.797-21.629-11.369-.293-.052-.587-.095-.88-.146a52.93 52.93 0 0 0-8.508-.692zm0 18.963c3.17 0 5.985.484 8.508 1.426.31.12.578.294.88.424 2.238.967 4.25 2.28 6.004 4.06 3.853 3.931 5.813 9.218 5.813 15.74 0 6.48-1.96 11.768-5.82 15.707-1.745 1.789-3.768 3.111-5.997 4.079-.302.138-.57.31-.88.422-2.523.95-5.338 1.435-8.508 1.435-6.487 0-11.548-1.944-15.469-5.935-3.921-4-5.84-9.142-5.84-15.708 0-6.522 1.97-11.809 5.84-15.74 3.921-3.974 8.982-5.91 15.469-5.91z" style="fill:#001f59;fill-opacity:1;fill-rule:nonzero;stroke:none" transform="matrix(1 0 0 1 .002 .004)"/><path d="M305.265 383.772v6.814c0 .691-.553 1.244-1.244 1.244h-16.003v6.456h14.863c.691 0 1.25.56 1.25 1.244v6.814a1.25 1.25 0 0 1-1.25 1.251h-14.863v5.308h15.65c.685 0 1.245.56 1.245 1.245v6.814a1.25 1.25 0 0 1-1.244 1.251H277.97a1.25 1.25 0 0 1-1.243-1.25v-37.191c0-.692.56-1.251 1.243-1.251h26.051c.691 0 1.244.56 1.244 1.25M239.412 412.903h11.554v-29.131c0-.692.553-1.251 1.244-1.251h8.803c.684 0 1.244.56 1.244 1.25v29.132h11.547c.69 0 1.25.56 1.25 1.245v6.814a1.25 1.25 0 0 1-1.25 1.251h-34.392a1.25 1.25 0 0 1-1.243-1.25v-6.815c0-.685.56-1.245 1.243-1.245M226.097 422.179c-.608-.09-1.071-.588-1.071-1.217v-37.19c0-.63.463-1.127 1.07-1.217.056-.007.111-.035.173-.035h8.797c.691 0 1.25.56 1.25 1.251v37.191a1.25 1.25 0 0 1-1.25 1.251h-8.797c-.062 0-.117-.027-.172-.034M210.922 382.977c.235-.29.588-.457.96-.457h7.436c.062 0 .117.028.173.035.6.09 1.07.588 1.07 1.216v37.191c0 .63-.47 1.127-1.07 1.217-.056.007-.11.034-.173.034h-8.803a1.25 1.25 0 0 1-1.244-1.25v-19.284l-4.823 5.82-.712.85-11.125 13.415c-.235.283-.588.45-.96.45h-8.065a1.25 1.25 0 0 1-1.25-1.252v-37.19c0-.692.56-1.251 1.25-1.251h8.797c.69 0 1.25.56 1.25 1.25v20.334l10.103-12.35.712-.865 6.474-7.913zM178.438 399.854v21.108c0 .339-.138.636-.352.864a1.22 1.22 0 0 1-.705.346c-.062.013-.124.041-.187.041h-8.803c-.691 0-1.244-.56-1.244-1.25V400.22c0-2.62-.677-4.555-2.073-5.923-1.396-1.369-3.24-2.04-5.638-2.04-2.295 0-4.084.65-5.466 1.991-1.369 1.327-2.039 3.076-2.039 5.336v21.377c0 .242-.083.45-.193.643-.166.256-.408.45-.712.539-.11.028-.214.07-.339.07h-8.824c-.69 0-1.244-.56-1.244-1.252V399.8c0-5.667 1.693-10.098 5.038-13.166 1.506-1.383 3.324-2.405 5.369-3.166.242-.09.456-.214.712-.297 2.294-.746 4.892-1.126 7.801-1.126 5.964 0 10.649 1.527 13.917 4.534 1.389 1.278 2.419 2.86 3.227 4.623.256.56.504 1.127.698 1.735.283.864.546 1.742.705 2.696.228 1.32.352 2.723.352 4.222" style="fill:#001f59;fill-opacity:1;fill-rule:nonzero;stroke:none" transform="matrix(1.25 0 0 -1.25 .002 700)"/><path d="M386.756 172.234c-.104 0-.2.044-.303.06-.708.148-1.252.743-1.252 1.503v46.488c0 .76.544 1.357 1.252 1.504.104.017.2.06.303.06h18.242c5.606 0 10.417-.966 14.398-2.841.303-.147.596-.294.881-.45 1.754-.915 3.36-2.004 4.76-3.3 4.75-4.398 7.152-10.506 7.152-18.135 0-7.274-2.359-13.304-7.023-17.926-1.451-1.442-3.1-2.643-4.889-3.636-.293-.165-.578-.348-.88-.495-3.74-1.874-8.137-2.832-13.172-2.832h-19.47zm12.558 11.637h5.495c4.267 0 7.42 1.132 9.63 3.465 2.203 2.315 3.317 5.59 3.317 9.719 0 4.052-1.071 7.196-3.291 9.615-2.177 2.384-5.294 3.543-9.535 3.543h-5.616V183.87z" style="fill:#001f59;fill-opacity:1;fill-rule:nonzero;stroke:none" transform="matrix(1 0 0 1 .002 .004)"/></svg>