<svg xmlns="http://www.w3.org/2000/svg" xml:space="preserve" width="315" height="315" viewBox="0 0 700 700"><path d="M1367.722 321.63c-154.4 0-280.004 125.616-280.004 280.004 0 154.38 125.604 279.996 280.004 279.996 154.392 0 279.996-125.615 279.996-279.996 0-154.388-125.604-280.004-279.996-280.004" style="fill:#e4e1f3;fill-opacity:1;fill-rule:nonzero;stroke:none" transform="matrix(1.25 0 0 -1.25 -1359.648 1102.038)"/><path d="M1367.722 869.398c-147.655 0-267.78-120.121-267.78-267.764 0-147.65 120.125-267.78 267.78-267.78 147.647 0 267.772 120.13 267.772 267.78 0 147.643-120.125 267.764-267.772 267.764" style="fill:#fff;fill-opacity:1;fill-rule:nonzero;stroke:none" transform="matrix(1.25 0 0 -1.25 -1359.648 1102.038)"/><path d="M1367.722 860.469c-142.955 0-258.845-115.887-258.845-258.838 0-142.951 115.89-258.846 258.845-258.846 142.955 0 258.837 115.895 258.837 258.846 0 142.951-115.882 258.838-258.837 258.838" style="fill:#293f9c;fill-opacity:1;fill-rule:nonzero;stroke:none" transform="matrix(1.25 0 0 -1.25 -1359.648 1102.038)"/><path d="M1367.722 414.954c-103.103 0-186.682 83.584-186.682 186.677 0 103.093 83.578 186.67 186.682 186.67 103.096 0 186.674-83.577 186.674-186.67 0-103.093-83.578-186.677-186.674-186.677" style="fill:#fff;fill-opacity:1;fill-rule:nonzero;stroke:none" transform="matrix(1.25 0 0 -1.25 -1359.648 1102.038)"/><path d="M1495.282 746.876c-.233-.203-26.848-25.131-59.234-25.131-22.928 0-46.86 12.217-68.131 38.584-21.28-26.367-45.204-38.584-68.131-38.584-32.387 0-59.002 24.928-59.234 25.13-21.19-30.616-33.931-79.588-33.931-117.033 0-46.409 14.93-89.205 44.394-127.204 24.307-31.367 68.738-65.926 116.902-92.098 48.149 26.172 92.58 60.731 116.894 92.098 29.47 38 44.401 80.795 44.401 127.204 0 37.445-12.741 86.417-33.93 117.034" style="fill:#e4e1f3;fill-opacity:1;fill-rule:nonzero;stroke:none" transform="matrix(1.25 0 0 -1.25 -1359.648 1102.038)"/><path d="M1493.873 737.678s-64.316-57.23-125.971 13.619c-61.64-70.85-125.949-13.619-125.949-13.619-19.307-32.055-29.373-73.967-29.373-107.837 0-45.067 14.518-86.671 43.164-123.606 24.877-32.101 66.43-64.097 112.158-88.973 45.743 24.876 87.296 56.872 112.187 88.973 28.624 36.935 43.157 78.54 43.157 123.606 0 33.87-10.073 75.782-29.373 107.837" style="fill:#fcfeff;fill-opacity:1;fill-rule:nonzero;stroke:none" transform="matrix(1.25 0 0 -1.25 -1359.648 1102.038)"/><path d="M1489.51 719.961s-61.82-44.632-121.698 14.608c-59.879-59.24-121.707-14.608-121.707-14.608-14.075-27.221-21.69-57.471-21.69-90.149 0-89.947 60.733-154.164 143.397-199.11 82.656 44.946 143.404 109.163 143.404 199.11 0 32.678-7.622 62.928-21.705 90.15" style="fill:#293f9c;fill-opacity:1;fill-rule:nonzero;stroke:none" transform="matrix(1.25 0 0 -1.25 -1359.648 1102.038)"/><path d="M1484.286 662.49c.472-4.211.592-8.446.592-12.786 0-62.185-51.439-114.283-116.114-114.762-64.676.48-116.108 52.577-116.108 114.762 0 4.34.12 8.575.592 12.787-.157-1.087-2.346-16.204-2.346-31.157 0-62.867 53.92-121.41 118.131-122.565 64.211 1.155 117.6 59.698 117.6 122.565 0 14.953-2.19 30.07-2.347 31.157" style="fill:#fcfeff;fill-opacity:1;fill-rule:nonzero;stroke:none" transform="matrix(1.25 0 0 -1.25 -1359.648 1102.038)"/><path d="M1368.764 560.493c-59.782 0-109.01 44.64-115.508 102.066a114.84 114.84 0 0 1-.727-12.921c0-63.513 52.039-115.01 116.235-115.01 64.203 0 116.737 51.445 116.242 115.01 0 4.37-.248 8.686-.727 12.92-6.499-57.425-55.734-102.065-115.515-102.065" style="fill:#e4e1f3;fill-opacity:1;fill-rule:nonzero;stroke:none" transform="matrix(1.25 0 0 -1.25 -1359.648 1102.038)"/><path d="M1367.467 660.867c0 .007.01.015.01.015" style="fill:#fcfeff;fill-opacity:1;fill-rule:nonzero;stroke:none" transform="matrix(1.25 0 0 -1.25 -1359.648 1102.038)"/><path d="m1346.848 653.216-11.738 24.771 23.76-12.786 8.994 40.023 7.96-39.806 25.011 12.517-12.846-24.614 45.6-8.491-45.63-8.597 12.809-23.984-24.78 11.977-8.109-41.492-8.994 41.297-23.685-11.73 11.198 23.932-44.176 8.567 44.626 8.416z" style="fill:#fff;fill-opacity:1;fill-rule:evenodd;stroke:none" transform="matrix(1.25 0 0 -1.25 -1359.648 1102.038)"/><path d="m1367.512 644.702-8.634 20.499-23.73 12.809 32.364-33.308zM1367.654 644.71l.203 60.454 8.027-39.776-8.23-20.678zM1367.79 644.726l32.888 33.12-12.644-24.598-20.245-8.522zM1367.722 644.64l65.77.142-45.533-8.545-20.237 8.402zM1400.723 612.28l-33.054 32.333 8.275-20.356 24.779-11.977zM1367.617 644.522l-8.717-20.453 8.957-41.245-.24 61.698zM1335.215 612.334l32.35 32.295-21.145-8.371-11.205-23.924zM1302.282 644.914l44.58 8.327 20.612-8.612-65.192.285z" style="fill:#e4e1f3;fill-opacity:1;fill-rule:evenodd;stroke:none" transform="matrix(1.25 0 0 -1.25 -1359.648 1102.038)"/><path d="m1367.812 479.369-.082.007c-.075 0-.075-.007-.09-.007h.172zM1367.797 490.629l-.075.007c-.075 0-.075-.007-.09-.007h.157z" style="fill:#fcfeff;fill-opacity:1;fill-rule:nonzero;stroke:none" transform="matrix(1.25 0 0 -1.25 -1359.648 1102.038)"/><path d="M1340.86 469.148h-3.651v13.596l.225 2.136h-.075l-1.23-1.656-1.363-1.365-2.339 2.421 5.314 5.262h3.096v-20.394zM1353.496 486.444c-3.425 0-4.28-1.484-4.28-2.488 0-.937 1.11-2.571 4.227-2.571 3.148 0 4.28 1.634 4.28 2.57 0 1.005-.832 2.49-4.227 2.49m-.075-8.11c-3.298 0-4.954-1.634-4.954-3.118 0-1.132 1.356-2.998 4.976-2.998 3.605 0 4.992 1.866 4.992 2.998 0 1.484-1.686 3.118-5.014 3.118m0-9.437c-5.786 0-8.71 3.193-8.71 6.266 0 2.219 1.537 3.875 3.65 4.857v.052c-1.483.608-2.915 2.017-2.915 4.033 0 2.968 2.369 5.688 7.93 5.688 5.539 0 8.057-2.698 8.057-5.688 0-1.941-1.536-3.328-3.073-4.033v-.052c2.016-.6 3.778-2.488 3.778-4.857 0-3.073-2.923-6.266-8.717-6.266M1373.433 486.47c-3.095 0-4.782-2.038-4.812-3.8 0-1.686 1.364-3.83 4.632-3.83 3.148 0 4.79 2.144 4.812 3.875 0 1.694-1.41 3.755-4.632 3.755m-.18-17.598c-3.17 0-5.411.855-7.6 3.17l2.616 2.616c1.461-1.784 2.998-2.466 4.984-2.466 2.87 0 4.76 1.994 5.24 5.24h-.076c-1.184-1.057-3.193-1.89-5.231-1.89-5.494 0-8.335 3.373-8.26 7.15.075 3.553 2.743 7.099 8.507 7.099 5.944 0 8.942-4.325 8.837-10.343-.12-6.574-3.8-10.576-9.04-10.576M1393.797 486.444c-3.425 0-4.28-1.484-4.28-2.488 0-.937 1.11-2.571 4.228-2.571 3.148 0 4.28 1.634 4.28 2.57 0 1.005-.832 2.49-4.228 2.49m-.075-8.11c-3.298 0-4.954-1.634-4.954-3.118 0-1.132 1.357-2.998 4.984-2.998 3.598 0 4.985 1.866 4.985 2.998 0 1.484-1.687 3.118-5.015 3.118m0-9.437c-5.793 0-8.716 3.193-8.716 6.266 0 2.219 1.536 3.875 3.657 4.857v.052c-1.491.608-2.923 2.017-2.923 4.033 0 2.968 2.369 5.688 7.93 5.688 5.539 0 8.057-2.698 8.057-5.688 0-1.941-1.536-3.328-3.073-4.033v-.052c2.016-.6 3.778-2.488 3.778-4.857 0-3.073-2.923-6.266-8.71-6.266M1166.147 719.2l-6.123-10.868 1.259.352 7.015-3.957.353-1.26 6.1 10.824c2.25 3.98 1.192 6.4-1.311 7.81-2.593 1.46-5.052 1.079-7.293-2.901m16.257-9.227-6.1-10.822 1.258.352 11.498-6.476-4.917-8.724-36.231 20.424 10.583 18.782c4.969 8.814 12.914 11.408 19.937 7.45 6.798-3.837 8.987-12.082 3.972-20.986M1196.225 760.422c-5.726-6.176-4.294-12.262 1.2-17.358 5.389-4.992 11.377-5.786 17.103.39 5.757 6.213 4.445 12.051-.936 17.043-5.382 4.991-11.64 6.1-17.367-.075m24.742-23.01c-9.804-10.582-21.376-10.223-30.453-1.806-8.964 8.312-10.613 20.2-.802 30.782 9.879 10.658 21.788 9.908 30.79 1.566 9.077-8.416 10.141-20.109.465-30.542M1240.776 797.32l-9.766-6.453 1.274-.262 4.25-6.43-.262-1.275 9.301 6.138c4.28 2.833 4.37 5.966 3.178 7.765-1.559 2.354-4.287 2.953-7.975.517m35.955-15.574-9.34-6.169-11.01 5.959c-2.84 1.506-5.336 1.454-9.234-1.117l-6.386-4.22 1.207-.247 7.9-11.954-8.35-5.524-22.935 34.71 17.352 11.459c7.03 4.647 16.062 5.689 21.098-1.934 2.242-3.388 1.837-8.642-.262-11.992l.075-.082c1.522.202 3.575-.105 5.779-1.297l14.12-7.592zM1302.776 826.52l-13.918-5.307.81-.682 11.362-29.792-9.361-3.568-11.356 29.8.15 1.042-13.918-5.299-3.126 8.2 36.232 13.813 3.125-8.207zM1338.1 799.343c-7.764-1.177-15.214.3-20.993 4.205l5.726 7.825c3.838-2.744 10.096-3.928 14.818-3.216 5.996.907 7.795 2.736 7.48 4.82-.127.809-1.176 2.623-6.648 3.095-.944.067-6.94.562-7.892.674-7.585.675-15.058 2.346-16.152 9.609-1.05 6.903 4.902 13.259 16.781 15.057 7.878 1.185 14.728-.532 19.773-4.34l-5.84-7.787c-2.862 2.474-8.259 4.153-12.778 3.47-5.847-.831-8.193-2.847-7.923-4.624.24-1.574 2.279-1.993 8.65-2.593.952-.112 5.853-.57 6.85-.622 9.04-.712 14.376-4.737 15.23-10.426.982-6.498-4.137-13.19-17.081-15.147M1409.852 798.919l-9.961.944 2.084 21.983-.105.015-2.399-4.16-12.464-17.133-.15.015-9.017 19.172-1.581 4.534-.113.007-2.083-21.982-9.969.944 3.943 41.462 8.17-.772 10.95-23.272 1.236-3.785.113-.007 1.821 3.493 15.185 20.791 8.282-.787-3.942-41.462zM1449.254 820.746c-7.892 2.931-12.974-.719-15.582-7.75-2.556-6.88-.997-12.718 6.895-15.649 7.945-2.945 12.84.495 15.395 7.383 2.556 6.88 1.184 13.086-6.708 16.016m-11.805-31.658c-13.529 5.014-17.621 15.844-13.311 27.454 4.25 11.452 14.608 17.523 28.144 12.501 13.626-5.051 17.486-16.346 13.214-27.85-4.31-11.61-14.713-17.06-28.047-12.105M1508.75 771.34c-7-10.202-16.534-12.57-27.8-4.835-11.257 7.727-12.576 17.418-5.515 27.701l12.666 18.46 8.26-5.666-12.644-18.415c-4.183-6.093-3.988-10.53 2.233-14.803 6.101-4.182 10.389-2.833 14.57 3.268l12.645 18.415 8.26-5.666-12.674-18.46zM1552.41 745.64l-10.111 10.935-.33-1.004-23.407-21.653-6.806 7.353 23.415 21.653 1.027.247-10.111 10.935 6.446 5.959 26.323-28.466-6.446-5.959zM1551.473 684.697l-5.014 8.672 13.378 7.742 1.267-.337-10.576 18.273-.337-1.267-13.379-7.742-5.014 8.672 36.014 20.835 5.015-8.671-13.387-7.742-1.259.337 10.568-18.273.337 1.267 13.387 7.742 5.014-8.672-36.014-20.836zM1193.362 481.151l-10.778 18.348-.262-1.05-4.797-2.81-1.05.27 9.677-16.467-6.311-3.702-9.676 16.474-.27-1.057-10.463-6.146-4.213 7.188 29.846 17.53 14.6-24.875-6.303-3.703zM1208.765 462.914c-4.602 5.276-9.767 4.632-14.466.532-4.602-4.017-5.786-8.897-1.184-14.18 4.64-5.315 9.579-4.737 14.18-.728 4.61 4.018 6.08 9.1 1.47 14.376m-21.212-18.445c-7.892 9.046-6.573 18.587 1.185 25.355 7.66 6.678 17.643 7 25.536-2.046 7.944-9.114 6.28-18.902-1.417-25.61-7.757-6.768-17.524-6.618-25.304 2.3M1240.297 433.47c-5.584 4.241-10.501 2.562-14.278-2.407-3.696-4.864-3.868-9.893 1.716-14.128 5.614-4.264 10.336-2.705 14.038 2.159 3.695 4.864 4.108 10.133-1.476 14.375m-17.044-22.357c-9.564 7.262-10.201 16.87-3.973 25.07 6.154 8.095 15.867 10.426 25.431 3.163 9.624-7.315 9.976-17.238 3.8-25.37-6.236-8.2-15.83-10.029-25.258-2.863M1288.003 405.143l-11.085 5.523v-.876l-11.835-23.744-7.457 3.717 11.834 23.744.727.495-11.092 5.531 3.26 6.536 28.871-14.39-3.26-6.536zM1312.722 397.457l-9.623 2.706.532-.944-1.297-4.61-.944-.532 9.616-2.706c3.83-1.079 4.887.315 5.314 1.837.45 1.604 0 3.23-3.598 4.25m-2.72-12.502-10.404 2.93.57-.967-1.537-5.463-.951-.533 10.403-2.93c4.362-1.23 5.554.165 6.071 2.016.487 1.731 0 3.778-4.152 4.947m-3.898-13.993-17.68 4.976 9.375 33.308 17.314-4.872c7.975-2.248 10.898-7.952 9.407-13.258-.697-2.466-2.451-4.595-4.827-5.3 2.278-1.7 3.575-4.646 2.548-8.304-1.829-6.498-7.997-8.844-16.137-6.55M1353.81 378.062l-.786.84-2.196 5.583-.99 3.59-1.566-3.38-3.043-5.15-.96-.696 9.542-.787zm14.624-16.002-9.07.75-3.087 7.757.577.727-16.737 1.379.45-.802-4.235-7.158-9.159.757 20.012 33.076 7.03-.585 14.219-35.9zM1404.545 365.262l-27.582-2.458-3.065 34.476 8.297.742 2.353-26.434-.652-.832 19.997 1.784.652-7.278zM1441.969 374.21l-26.818-6.865-8.59 33.525 8.073 2.06 6.58-25.7-.51-.921 19.45 4.976 1.815-7.075zM1493.925 405.572c-1.2-5.314-4.782-10.178-10.11-13.071-10.929-5.936-20.208-2.713-25.147 6.37-4.91 9.047-2.511 18.955 8.26 24.809 5.748 3.118 11.122 3.508 16.354 1.394l-2.249-7.495c-3.208 1.709-7.068 1.559-10.56-.337-6.604-3.59-7.286-8.964-4.37-14.33 2.856-5.255 7.48-7.608 14.24-3.935 3.419 1.85 5.885 5.186 6.29 8.664l7.292-2.069zM1528.852 424.895l-21.616-17.313-21.638 27.011 6.506 5.217 16.594-20.716-.09-1.05 15.68 12.554 4.564-5.703zM1545.829 466.94c7.72-6.813 8.717-14.915 1.2-23.444-7.518-8.522-15.65-8.642-23.438-1.777l-13.971 12.322 5.516 6.251L1529.07 448c4.617-4.07 8.297-4.354 12.45.353 4.07 4.616 3.38 8.296-1.23 12.366l-13.941 12.292 5.509 6.243 13.971-12.314zM1563.443 492.334l-5.412-9.36 1.072.321 4.917-2.848.285-1.049 5.411 9.361c2.264 3.92 1.207 5.42-.457 6.378-1.552.9-3.658.93-5.817-2.803m-11.445 5.727-5.006-8.65 1.057.278 4.137-2.399.285-1.049 4.999 8.657c1.994 3.44.907 4.804-.457 5.598-1.447.832-3.133.825-5.015-2.435m24.045-12.96-9.204-15.904-29.95 17.321 9.001 15.575c4.145 7.172 10.396 8.589 15.17 5.83 2.219-1.28 3.845-3.507 3.943-5.98 2.21 1.784 5.389 2.316 8.679.412 5.839-3.38 6.596-9.93 2.36-17.253" style="fill:#fff;fill-opacity:1;fill-rule:nonzero;stroke:none" transform="matrix(1.25 0 0 -1.25 -1359.648 1102.038)"/></svg>