<svg xmlns="http://www.w3.org/2000/svg" xml:space="preserve" width="300" height="276.07474" viewBox="0 0 300 276.07474"><path d="m280.969 15.563-.662.192c-60.247 16.89-103.953 56.95-104.04 57.03-37.631 32.193-56.869 70.054-65.623 110.322-2.271 10.45-3.613 31.294-4.502 57.133-.89 25.84-1.268 56.516-1.369 85.942-.201 58.854.677 112.707.677 112.707l.044 2.427 349.228-.117.059-2.413s1.342-53.686 1.604-112.368c.13-29.341-.006-59.932-.721-85.707-.716-25.775-1.948-46.58-4.223-57.045-8.753-40.263-28.003-78.11-65.623-110.308-.087-.08-43.92-40.694-104.187-57.603z" style="color:#000;font-style:normal;font-variant:normal;font-weight:400;font-stretch:normal;font-size:medium;font-family:sans-serif;text-indent:0;text-decoration:none;text-decoration-line:none;text-decoration-style:solid;text-decoration-color:#000;letter-spacing:normal;word-spacing:normal;text-transform:none;writing-mode:lr-tb;direction:ltr;baseline-shift:baseline;text-anchor:start;clip-rule:nonzero;display:inline;overflow:visible;visibility:visible;opacity:1;color-interpolation:sRGB;fill:#002156;fill-opacity:1;fill-rule:nonzero;stroke:none;stroke-width:.65499997;stroke-linecap:butt;stroke-linejoin:miter;stroke-miterlimit:4;stroke-dasharray:none;stroke-dashoffset:0;stroke-opacity:1;color-rendering:auto;image-rendering:auto;shape-rendering:auto;text-rendering:auto;enable-background:accumulate" transform="matrix(.54063 0 0 -.54063 -1.377 275.072)"/><path d="M450.871 436.967s5.334-212.881-3.257-252.4c-8.59-39.517-27.371-76.488-64.282-108.072 0 0-43.23-40.011-102.365-56.603-59.128 16.577-102.231 56.05-102.231 56.05-36.911 31.577-55.684 68.548-64.275 108.065-8.59 39.526-5.094 253.087-5.094 253.087z" style="fill:#fff;fill-opacity:1;fill-rule:nonzero;stroke:none" transform="matrix(.54063 0 0 -.54063 -1.377 275.072)"/><path d="M335.474 396.231c2.26-2.621 4.09-5.68 3.91-9.04-1.1-2.81 2.32-3.661 2.69-6.102 1.762-3.179 4.58-4.829 6.772-7.51l1.77.421c5.62 3.97 11.12 9.04 16.25 13.191 1.83 4.64 5.062 10.32 10.802 11.24 3.18.61 5.56-.06 8.37-1.1 1.83-1.1 2.44-2.99 4.15-3.97 1.033-1.891 1.16-3.73 1.952-5.5.241-5.062-2.012-9.28-5.921-11.842-3.97-2.75-8.55-.67-11.843-4.64-4.158-3.36-8.98-7.82-13.19-10.992-.129-1.71 1.28-2.32 1.95-3.48 2.012-2.69 4.822-6.23 7.511-8.61 3.24-.61 7.082-2.14 8.972-5.07l.678-.181 1.952-4.4.248-4.821c10.803-.61 21.553-4.701 27.233-14.291 8.121-8.43 24.484-9.952 27.964-23.572 1.22-1.04.181-2.622 1.71-3.722.31-4.64 2.69-8.49 5.07-12.271.55-.739 1.522-1.22 1.77-2.02-11.111.671-19.36 8.732-25.952 17.162-1.71 2.99-5.371 3.171-8.12 4.64-3.3.61-6.6 1.28-9.892 1.951-.43.55-1.228.31-1.77.67l-.43-.421c1.77-2.69 5.01-4.52 7.7-6.418 5.8-1.952 12.384-6.773 14.041-12.762 2.622-3.721 2.313-8.852 5.74-12.091-.429-.542.423-1.16.671-1.71.302-1.28 1.1-2.32 1.522-3.54-2.99-.061-6.35.918-9.213 1.099-1.53 2.08-4.219 1.228-5.748 3.3-2.562 2.38-5.613 5.62-9.462 5.92-4.452 1.839-9.831 1.839-13.613 4.83-5.25 2.682-7.76 8.241-12.52 11.661-1.59.972-3.48 2.2-5.5 2.622-6.29 2.08-13.613.859-20.453.249-5.74.61-11.662.18-16.49 3.721-7.933 2.69-14.284 10.69-20.454 16.49-2.99 1.033-4.76 5.613-8.55 4.212-1.951-.73-3.42-3.18-5.07-4.211-6.102-3.12-10.441-9.16-16.483-12.52-1.22-2.622-5.07-3.24-5.68-5.922 3.119-1.898 7.21-2.26 10.75-2.63 7.45-.978 15.504-.55 23.323-.67 7.021-1.71 13.56.49 20.883-.429 4.34-2.75 10.93-.18 15.571-2.192 1.831 0 3.79-1.04 5.492 0 5.258-1.288 10.69-1.959 16.061-2.87 7.27-2.999 14.23-7.579 20.642-11.67 3.171-4.331 7.21-8.851 11.91-11.413 4.882-5.13 8.06-10.38 11.662-16.068.61-1.952 2.14-2.373 3.3-4.151.24-.603.61-1.703 1.28-2.441.972-8.792 8.181-16.913 6.84-26.374 4.151-12.031-6.599-20.092-10.32-29.923-3.48-.188-4.46-4.95-8.611-3.48-2.569-1.891-6.411 1.1-8.55-1.77-2.502 1.34-4.58.18-6.6-1.35-4.083.37-6.772 3.24-10.132 4.89-2.2.55-4.211 2.2-6.35 2.2-2.75-.37-5.982-1.349-8.611 0-4.392-.37-6.592 1.521-10.992.61-4.64-.49-9.71-.249-13.19-3.73-7.451-4.7-13.124 4.092-20.393 2.442-.852-2.193-3.42-2.072-5.311-2.622-3.24-6.23-9.952-1.28-14.472-.919-2.63 2.019-5.311 4.219-5.74 7.51-1.281 1.35-3.488 1.04-5.07 1.1l-10.75-.24c-.731-2.26.369-3.85.429-6.17.73-1.28 1.53-2.81.859-4.4-1.47-1.16-3.48.31-5.251.43-5.44 1.28-10.87 1.22-16.242 1.77-6.968-3.232-15.571-3.111-23.33-1.77-3.421-.98-7.142-.06-10.322.919-3.3-.06-7.141-.06-10.32.851-8.242-.55-14.901-.67-22.653-.851-4.46.798-9.341.67-12.762 3.97-3.42 1.22-5.37 4.942-7.691 7.02-2.14 2.442-1.899 5.982-1.349 8.551 1.1 2.38 3.24 3.782 3.3 6.592 4.52 2.14 7.691 7.45 13.01 7.692 3.413 1.1 6.531 2.998 9.891 4.4 1.281 1.89-1.348 3.178-1.777 4.82-1.093.49-2.622 0-3.722.49-2.019 1.349 2.38 7.262-2.448 3.91-7.504-5.861-14.653-11.722-22.405-18.012-2.44-3.24-7.201-4.95-10.32-7.88-5.62-4.272-10.072-10.321-16.49-13.432-1.952-1.409-4.024-2.012-6.412-1.1-3.111 2.32-5.122 5.68-7.691 8.791-.791 1.47 1.461 3.051.67 4.83 2.75 4.88 8.49 7.201 11.91 11.42-1.65 1.401-4.4.12-6.17 1.092-3.171 2.38-7.39 2.81-10.132 5.74-.919.181-1.71 1.22-2.2 1.96 2.502 4.27 7.202 6.47 10.14 10.561 2.743 1.401 2.501 4.46 5.063 6.17l4.158 6.592c6.404 6.72 15.752 10.14 22.834 16.912 2.69 2.69 5.62 3.548 8.181 6.17 4.03 1.53 8.06 5.31 13.191 3.54 2.93-.911 6.35-.61 8.791-2.87 1.59-.24 1.59-2.5 3.48-2.44.611-.49.55-1.59 1.53-1.53 3.36 3.24 2.57 7.33 3.79 11.42-.129 3.79-4.95 4.031-7.7 5.312-4.392 2.99-9.71 5.25-13.002 9.409-2.75 2.44-6.9 4.64-8.37 8.362-2.2 3.3-3.721 6.84-5.921 10.14-1.22 5.86-4.7 10.991-4.58 17.153-2.562 6.66-.86 12.882-.241 19.79.06 2.931 2.44 5.01 2.192 8.122.859 1.16 1.53 2.44 1.53 3.97 4.949 14.532 19.721 27.105 32.973 33.154 5.989 2.011 11.722 5.13 18.502 4.64 3.3.852 7.27-.73 10.75.43 6.47-.73 12.03-1.77 17.831-4.15 4.211-.86 7.511-4.34 11.172-5.99 4.52-3.48 8.31-7.933 13.432-10.991.55-5.002 5.68-7.571 6.6-12.52 1.702-1.033 1.1-3.052 2.2-4.393 2.93-5.499 4.33-11.119 5.491-17.16 1.341-1.402-.06-3.97 1.778-5.251-.128-.55-.309-1.1-.249-1.77 0 .24.06.55-.248.67h-.181c-.309-2.93.678-5.371.43-8.792.36-.738.67-.12 1.1 0 .18.06.3-.12.421-.24.188 1.4 1.77 1.4 2.448 2.192 2.863 2.75 6.223 4.889 8.973 7.51 12.279 8 21.861 17.711 33.651 25.953-.369 3.42-3.79 4.95-4.829 8.12-1.28.731-2.14 2.08-2.87 3.3l-.18-.24c-.25.61-.49.61-.92 1.1-1.763-.619-2.621 1.091-4.15 1.091-4.332 1.899-8.49 6.17-8.37 11.421-.731 4.64 3.36 8.792 7.028 11.24 4.272 2.192 10.314 1.34 14.103-2.2" style="fill:#0072ba;fill-opacity:1;fill-rule:nonzero;stroke:none" transform="matrix(.54063 0 0 -.54063 -1.377 275.072)"/><path d="M334.559 391.406c1.228-1.951 1.461-4.271.67-6.17.791-2.011 2.81-3.962 4.15-5.921 3.12-3.232 5.252-6.773 8.612-9.891 1.89-.43 2.689 1.71 4.15 2.2 6.351 4.52 12.4 9.34 18.69 14.471-.429 3.6 2.321 6.652 5.063 8.181 2.93 1.47 6.411.98 9.221-.49 2.08-2.131 4.219-4.82 3.3-7.691.55-3.119-2.072-5.13-4.151-7.21-2.32-1.77-5.01-1.22-7.7-1.34-6.53-5.19-13.303-10.683-19.353-16.062-1.1-2.071 1.77-3.66 2.63-5.491 3.11-3.73 6.162-7.45 9.22-11.172 2.991-.37 6.102-1.658 7.933-3.97 1.898-2.758 1.898-6.6.249-9.711-2.26-3.119-6.472-3.97-10.381-3.48-2.32 1.83-5.56 3.42-5.922 6.78-.979 2.011 2.562 4.572-.858 5.062-3.722 5.861-8.302 9.59-12.333 14.72-4.331-.919-6.72-5.13-10.561-7.21-9.59-8.3-20.032-14.772-29.44-23.571-5.914-4.211-11.534-9.763-18.254-13.183-3.85-4.091-8.121-6.969-12.52-10.321-2.743-.43-3.782 3.352-5.741 5.07-.791 3.412 2.81 3.962 4.64 6.343 2.02.859 3.06 3.058 5.259 3.97 1.582 3.179 5.733 2.87 7.933 5.929 2.01.73 2.87 2.93 5.07 3.292 1.71 2.14 4.512 2.99 6.162 5.318 10.268 8.362 21.99 16.182 32.303 24.604 2.448 2.991 6.418 4.58 8.558 7.27-.37 2.682-2.87 3.842-4.159 6.162-.361 1.65-2.569 1.71-2.87 3.488l-6.592 7.021c-3.11-.128-6.47 1.582-8.12 4.633-1.831 2.75-1.341 7.27.429 9.9 2.561 2.199 5.981 2.99 9.462 2.44 2.019-.67 4.09-2.26 5.25-3.97" style="fill:#fff;fill-opacity:1;fill-rule:nonzero;stroke:none" transform="matrix(.54063 0 0 -.54063 -1.377 275.072)"/><path d="M251.267 388.964c.49-1.59 2.14-.308 3.3-1.28 4.882-4.03 10.072-7.39 14.713-12.091 8.18-10.012 13.07-22.171 15.812-34.744.49-3.42 1.047-6.848.249-9.71l.43-.43c-.129-2.14-.611-5.25-.43-7.27-4.942-5.002-11.112-7.631-16.061-12.272-1.952.06-2.441 2.2-3.292 3.48-4.34 4.95-10.871 10.382-8.558 17.162 2.267.73 4.52-.49 6.787.24 2.87.611 4.513 2.871 6.163 5.07-3.97 5.5-9.402 8.49-16.242 8.98-2.14 1.04-5.68-.429-6.592 2.441-.49 1.959-2.878 2.87-4.4 3.97-2.38.362-3.85 2.75-6.591 2.193-.86 1.04-2.328 1.228-3.3 1.1-4.4 2.87-8.37 2.817-13.432 1.958-3.36.859-5.379-2.14-8.55-1.1-1.59-.678-3.059.12-3.97 1.341-3.12.49-5.01-1.4-6.592-3.54 1.401-2.2.79-5.553 2.192-7.94 0-3.42-4.211-4.151-6.162-6.592-3.548-1.04-4.46-4.34-7.7-6.11-1.589-2.26-5.31-3.05-6.17-6.162-2.191-2.38-2.802-6.532-3.962-9.47-.678-3.352.912-6.29 2.87-8.791 1.824-.791 4.272-1.1 6.163-2.2 1.22-1.642 3.36-1.1 5.07-1.522 3.85-1.838 11.36.422 11.42-5.928-1.529-3.051.972-4.761.43-7.933.851-3.111-.618-6.05-.43-9.04-3.97.49-7.02 3.24-10.561 4.882-7.27 4.218-15.15 11.119-18.442 19.3-3.548 5.13-4.95 11.052-7.029 16.732-3.721 18.133 1.04 38.224 14.291 51.234 1.65.791 2.87 2.622 3.73 3.963 5.98 4.58 11.6 9.71 18.863 11.601 1.958 1.349 4.708 1.71 7.081 2.449 3.119 1.77 7.39.79 10.75 1.95 10.2.061 19.73-2.071 28.152-5.92" style="fill:#fff;fill-opacity:1;fill-rule:nonzero;stroke:none" transform="matrix(.54063 0 0 -.54063 -1.377 275.072)"/><path d="M209.683 353.364c-.12-1.959-1.77-2.75-2.2-4.64-1.04 0-1.95-.43-2.81.67-1.83 1.16-.18 2.99-.67 4.64.37.67 1.1 1.289 1.77 1.53 1.59-.06 3.42-.49 3.91-2.2M230.383 352.507c.241-.911.49-2.019 1.281-2.44 1.04-.06 1.65.919 2.448 1.34 2.984-.55 5.311-3.42 8.543-2.681.55-.61 1.22-.49 1.59-1.289.911-1.77-2.08-4.09.859-4.391 1.71.12 3.721.911 4.64-1.1.18-1.22-.248-2.32-1.1-2.87-1.401-.731-4.218 1.28-4.4-.671.912-1.838 4.212-1.409 3.481-3.97 1.47-1.16 5.25-.12 4.64-2.81-2.018-1.341-5.25-.301-7.69 0-1.282-.55-.25-2.08-.92-2.87-1.53-.67-2.011 1.59-2.38 2.629 1.22 4.332-2.02 7.39-2.63 11.232-1.521 1.77-3.781 1.65-5.491 2.81-1.47.791-1.96 3.36-3.97 3.119-.86-.738-1.952-1.899-.912-2.878.61-.98 1.83-.422 2.682-.851 1.469-1.71 1.469-4.211 1.1-6.411-.241-.92-1.22-1.838-2.2-1.778-4.151-.06-7.812 1.349-10.381 4.648-.43 1.401-.12 2.2.249 3.54 1.95 1.342 4.52-.858 6.591.182-.12 1.28-1.529 2.132-2.44 2.87-2.2-.49-5.191-.309-7.022 1.53-.919-.19-2.32.489-2.629-.671-.06-2.02 2.87-1.289 2.441-3.48-.241-1.9 1.04-3.91 0-5.32-1.04-.24-2.622-1.031-1.77-2.38 1.469-1.22 0-2.75-.43-3.962-.79-.739-2.312-1.349-2.682-2.63.43-1.16 1.77-.61 2.441-.429 2.14.92 3.36 3.42 3.73 5.68.67.49 1.641.98 2.44.422.55-2.622 1.77-4.942 3.729-7.021 1.28-.362 3.232.92 3.044-1.1v-.663c-1.763-.678-4.332.61-5.673-1.1.06-.61.67-1.228 1.28-1.288 2.441.309 5.62.55 7.263-1.1 1.288-1.83-1.093-2.313-2.192-2.621-3.3-.12-5.56 2.44-8.37 3.721-2.87-.12-4.03-6.41-7.45-3.111.248.61.429 1.22.67 1.77-.482 1.04-1.951.49-2.622 0-2.569-2.569-6.049.43-8.791-.851.67-3.548 5.25-1.47 7.691-2.63 2.81-.24 5.311-1.468 7.45-2.87-1.34-1.65-3.849-2.26-5.92-2.87 0-.55-.92-.67-.678-1.34.858-2.02 5.62-.25 3.729-3.489-3.662.06-6.05-4.881-9.892-2.44-.429.979.12 2.5-1.28 2.87-2.81.068-5.198-2.93-7.7-1.522-.18 2.87 3.73 2.802 5.5 4.58 1.401.181 2.32 1.462 3.91 1.093.361.43.911.738.67 1.348-1.83 2.132-4.218-.361-6.35.43-2.26-1.71-4.709-2.57-6.17-5.251a6.334 6.334 0 0 0-5.921 0l-3.3 2.38c-1.89 4.573 1.1 10.072 3.97 13.862 5.921 2.99 8.731 9.401 14.901 11.902 2.99 3.609 8.852 5.44 9.71 10.51 1.16 2.011 3.481 3.171 5.492 4.21 2.63.121 5.372.061 6.78-2.199 2.14.241 2.562 3.721 5.07 2.38zM347.565 349.21c3.54-3.661 6.531-7.322 9.643-10.81-.241-1.522.437-3.232.248-5.063-5.13 3.473-8.55 8-12.09 13.432-1.221 1.53 1.039 2.562 2.199 2.441" style="fill:#fff;fill-opacity:1;fill-rule:nonzero;stroke:none" transform="matrix(.54063 0 0 -.54063 -1.377 275.072)"/><path d="M347.078 339.503c3.781-4.76 7.751-9.04 13.19-11.172 2.63-3.488 6.961-5.25 11.481-4.4 1.16.98 2.87.611 3.903 1.952 1.65.37 2.561 1.348 3.789 2.2 1.092 3.842 5.25 1.77 7.872 2.629 3.12-.859 6.17-1.778 9.229-2.63 3.05-1.65 6.222-4.15 8.18-7.02 4.393-3.18 7.203-9.281 12.943-10.14 4.46-3.232 10.63-3.85 13.862-8.792 1.28-2.14 3.3-4.03 3.729-6.591 1.521-2.87 2.32-6.11 3.292-9.221.309-1.47 1.16-2.75 1.529-4.159-1.59-.911-2.569 1.04-3.97 1.289-7.752 3.6-11.112 12.761-18.442 16.912-3.05.369-5.492 2.08-8.55 2.44-.61.671-.851 1.53-1.341 2.2-1.22-.3-2.388-1.83-3.73-.67-1.28.67-2.01 1.22-2.44 2.622.55 2.079-1.461 4.218 1.1 5.07 1.838 1.529 3.729-1.402 5.311.248-2.373 1.462-3.593 4.701-6.833 5.063-.738-.912-.798-2.441-2.2-2.682-.979.18-1.898 1.65-2.87.49.241-1.65 3.85-2.02 1.53-3.97-2.51-1.59-4.34.971-6.6 1.28-2.019 1.409-5.002 1.348-7.45 2.2-2.501-.37-5.432 1.95-6.84-.852 1.16-1.838 3.781-.919 5.499-1.777 2.99-1.281 5.981-2.562 8.61-4.822 2.313-3.24 4.822-7.21 8.363-9.22 4.158-5.003 10.99-5.44 15.812-9.711 5.198-4.95 6.788-11.843 9.65-18.012v-1.952c-2.69 1.281-6.041.852-8.37 3.051-3.902 5.553-10.071 7.142-15.812 8.121-1.89 1.22-.06 3.051-.18 4.641.858 1.34 2.629 1.22 3.91.851 1.039.12 1.529-1.092 2.689-.602l.85 1.28c-1.16 1.582-4.7.972-4.391 3.722-1.898 2.38-5.319 2.38-7.029 5.07l-.919-.86c-.113-2.01 4.89-2.191 2.02-4.391-.671-.92-1.771-.18-2.442.18-1.469 1.281-2.81 2.381-4.4 3.79-1.71-1.16-.549-2.509 0-3.79 1.771-.73 2.623-2.62 3.971-3.91-.362-1.52-1.77-1.83-3.051-1.34-3.97.972-5.62 4.829-8.37 7.27-2.011 1.77-1.71 5.122-1.092 7.443l-.678.67c-1.461-1.522-2.2-3.48-4.64-3.292-5.553 3.111-11.971 2.2-18.442 3.051-.49.61-1.59.61-1.522 1.59.301 1.1-1.348 1.1-.43 2.192-2.01 1.04 0 2.629 0 3.91.792 1.28 2.991.188 3.3 1.777-1.04.55-1.898 0-2.448 1.093 1.288 2.629 3.85-.43 5.74 1.1-.55 1.469-2.923.309-3.11 2.2.79 2.2 5.43-.852 4.64 2.629.971 1.65 3.66 1.95 3.729 4.4.971.602 3.164-.37 3.05 1.34-1.16.851-4.097.12-5.92.67-.679-.798-.37-2.32-1.778-2.448h-.61c.489 1.53-.731 2.63-1.771 3.307-1.04-.128-2.44 1.281-3.111-.437.18-.911.98-4.15-1.53-3.54-1.95-.731-2.192-3.722-4.58-3.903-.851 0-1.22.972-2.192.61-1.77-2.568 4.392-2.87.851-4.828-1.53-.731-3.54 2.508-3.721-.181l2.192-1.77c-1.77-3.232-3.722-6.592-7.021-8.37-2.132-.73-3.79 1.1-5.492 1.959-.43 2.071.43 4.889 2.2 6.41.18.61-.31.912-.67 1.281-1.598.67-.86-1.401-2.02-1.522-.309-1.529-1.71-2.2-2.629-3.3-.73-.308-1.77.43-1.95 1.342 0 2.079 1.408 4.038 3.05 5.07.73.67 1.53 1.401 1.53 2.38-1.779.67-2.931 3.541-4.83 3.3.121-1.959-.79-3.36-2.192-4.58a6.03 6.03 0 0 0-3.48-.67c-1.71.91-2.75 2.26-3.548 3.97-.302.85 1.1 1.4-.241 1.95-2.14-1.22-3.85 1.402-5.922 1.77-.919.611-1.1 1.53-1.288 2.381.859.55.06 1.77.618 2.441 6.531 5.379 13.372 10.381 19.602 16.061l6.35 4.159c2.863-.678 3.662-3.978 5.922-5.5M265.129 340.175c.919-1.281 2.388-3.18.859-4.641-.98-.309-1.47-1.83-2.63-1.71-1.22-.06-1.83.73-2.2 1.71.49 2.561-2.44 1.53-3.54 2.69-1.522 1.031-4.09.482-4.829 2.372-.482 1.658.678 2.26 1.778 2.878 4.392 1.093 6.84-2.569 10.562-3.3" style="fill:#fff;fill-opacity:1;fill-rule:nonzero;stroke:none" transform="matrix(.54063 0 0 -.54063 -1.377 275.072)"/><path d="M343.78 337.12c-.37-.369-.671-.919-1.281-.67-.37.301-.31 1.04.18 1.28.61.242.731-.429 1.1-.61M213.47 336.633c.3-.55.3-1.469-.25-1.959-1.031-1.22-2.5-1.4-3.72-2.192-4.152-4.708-9.463-7.33-14.962-9.22-1.65-1.289-3.111-4.34-5.25-3.12-.61 2.32 1.71 3.602 3.058 4.89 1.89 0 2.373 2.26 4.64 1.71 4.212 1.71 9.402 4.881 10.743 9.891z" style="fill:#0072ba;fill-opacity:1;fill-rule:nonzero;stroke:none" transform="matrix(.54063 0 0 -.54063 -1.377 275.072)"/><path d="M239.176 334.251c.06-1.65-2.019-3.119-2.44-4.64-1.16.06-3.24-.242-3.97 1.1v3.97c2.44-.25 5.74 4.391 6.41-.43M254.564 326.556c.43-3.051-2.32-4.46-3.54-6.6.18-1.823.73-4.083-.43-5.92.309-.731 1.28-.483 1.77-.242 1.349 1.891 2.63 3.18 3.48 5.251.61.37 1.16.911 2.02.678 2.38-3.42-2.449-5.44-2.63-8.558-.24-.67-.55-1.522-1.34-1.77-2.449.738-4.212-.852-5.922-2.2-.859-.422-2.26.497-3.119-.422-.3-.798.67-1.28 1.1-1.53 1.47-.24 3.48.611 3.97-1.34.12-2.38-5.612-3.059-1.95-5.5 1.4.37 2.32-.542 3.472-.85 1.657.18 2.268 3.54 3.97 1.521.61-2.011-2.983-3.172-.67-4.392 1.958.972 4.158 1.951 6.418 1.53.06-.8 1.032-1.229.67-2.2-.489-1.16-1.95-.37-2.2-1.53.43-2.5 3.172-.73 4.822-1.1 1.1.98 2.501 0 3.73 0 .73-1.28.421-3.292.421-4.64-1.032-.851-1.65-2.32-3.48-1.77-.43.55-.12 1.408-.912 1.77-2.38-.06-2.2-2.682-3.05-4.151 1.4-2.019 2.93 1.1 4.82-.241 1.341-1.04 3.722-1.16 5.251-.43 2.08 2.441 5.432-3.058 6.163 1.341-.67 1.281-3.594 1.16-2.193 3.3 2.38 1.032 3.051 5.07 6.411 3.48.912-.248 1.402-1.16 1.71-1.95-.06-2.14-4.4-2.81-2.2-5.07 1.96-.31 3.3 4.391 4.89 1.1 0-.98-.249-2.08.851-2.63 1.77.49 3.119 2.682 5.25 1.53.86 2.99 4.52 2.2 5.312 4.82 2.69-1.34 4.881 0 7.699-1.1 2.69-.24 3.54 3.3 6.35 2.012 1.77-2.132-.73-4.392 1.342-6.403-1.04-.859-2.26-1.409-1.77-3.059.858-.73 1.83-.67 2.628.181 1.281.92.181 3.18 1.763 3.548 4.4 1.281-.422-4.4 3.307-3.548.482 1.778 1.462 3.368 3.292 3.97 1.65.189 3.24.731 4.64-.422.98-.55.611-2.5 2.2-2.629 2.75.49 1.831 4.09 3.293 5.921-.12.618-.663 1.04-1.093 1.53l-2.689.248c-.67.852.301 1.582.92 2.193 1.702.429 1.16-1.77 2.62-2.012 1.402.55 2.931.06 4.152-.43 1.838-1.95.06-3.6-.61-5.68-.792-.55-1.04-1.34-.912-2.2 2.132-1.581 3.962 1.65 5.921 2.389 1.959.361 3.661 1.77 5.311-.188.73-.67.912-2.132 2.2-2.012 2.2 1.65-.791 4.452 1.77 5.311 1.891-.369 3.48-1.34 5.25 0 1.221.37.182 2.99 1.952 1.951 1.349-5.19 7.45-2.93 9.71-7.262 1.839-1.898 1.1-4.4 1.1-6.35-.421-1.22-2.629-.92-2.2-2.63.679-1.28 2.02-.361 2.878 0 .61 3.662 6.713.67 5.492 5.01-1.288 1.1-2.75 2.14-2.44 3.97.369.851 1.4.791 1.95.422.852-.73.671-2.802 2.441-2.192 1.53.43.49 3.42 2.63 2.011 1.16-.49 1.16-2.14 1.092-3.111-1.462-1.341-4.392-1.59-4.392-4.158 1.348-2.743 6.29-.603 5.492-4.822.068-2.072-.241-4.211 1.1-5.74 1.778-1.1 2.877 1.34 4.4.678.55.663 1.89.663 2.44 0 .068-.618 0-1.718-.912-2.2-.919 0-2.018.972-2.81 0-.67-.61-.738-1.53-.67-2.448 2.44-1.763 4.332 1.71 6.773 1.77 1.348 1.71 3.42 4.769 5.74 4.829 1.59-2.38-2.132-4.28-.241-6.78v-.67c-1.28-1.04-2.63 2.131-3.48-.25.3-1.89 2.2-3.66.85-5.672.618-1.04 1.779-.738 2.63-1.1 1.1-1.28.18-3.54 2.69-3.3 1.83 2.26-3.97 7.511 1.521 6.78 1.409-.979-.18-3.91 2.2-3.728.98 1.04 1.409 2.629 3.058 2.019.482-.61.663-1.341.912-2.02-.67-1.521-3.24-2.99-2.44-5.062 1.031-2.14 3.97-1.348 5.74-1.529 1.83-1.71 4.27-2.93 6.591-3.97.55-3.119-6.042-1.28-3.111-4.58 1.34-.37 3.36 1.529 3.721-.67 1.1-2.75-.49-5.56 2.2-7.941.241-.61-.301-.912-.61-1.28-3.36.24-6.411.61-9.281-.92-.181-.55-.92-.911-.61-1.702 2.2-1.47 5.01 2.742 6.772-.92 1.718-3.849-3.232-6.9-.851-10.75 1.34-.85 2.69-.12 3.729-1.34 1.582-2.87-2.878-3.24-2.448-5.922-2.57-.798-5.982.791-8.121-1.348-.43-3.111 4.279-1.83 4.828-5.002-.617-1.838-2.388-.128-3.48 0-1.22-1.289-3.119-2.87-2.878-4.648.31-2.072 4.098.49 3.059-2.193-.67-1.77-2.81 0-3.48-1.77-2.69-.43-4.95 3.36-7.7 1.341-.06-1.04.86-1.65 1.289-2.44-2.931-.242-4.641 3.351-7.88 3.291-.98 0-1.77-.73-2.2-1.522.06-1.28-.791-2.26-2.012-1.77-2.689 2.012 1.53 4.151-.18 6.84l-1.778 2.87c2.569 1.462.798 7.873 5.07 5.492.309-.73 1.288-.49 1.77-.24.98 2.81 2.99 3.841 5.25 5.74-1.468 3.36 7.33 6.41.43 7.021-.79.61-.06 1.71.241 2.38.92.49 2.509-.12 2.87 1.341 1.168 2.328-4.15 2.14-1.333 4.641.543.67 1.032 1.409.844 2.38-.422.558-1.401.618-1.951.25.06 1.28.55 2.81 1.77 3.291l1.1-1.092c1.288 1.032.309 2.93 0 4.58-.241.73-.972 1.22-1.763 1.093-1.047-.972.234-2.87-1.107-3.722-3.292.43-1.891 5.01-2.863 7.021-.557 1.1-1.409 2.38-2.38 2.87-.739.49-1.658.06-2.2-.422-.678-2.139 4.15-2.938.851-4.64-.188-1.288 1.59-2.08.67-3.48-1.83-.558-3.729-2.208-5.31 0-.739.3-.86-.498-1.1-.92 2.87-4.708-6.11-5.31-.61-9.65 2.87.49 1.65 4.272 4.15 5.74.43.55 1.28 1.04 2.2.86.73-.31.49-1.289.241-1.778-1.22-.912-2.011-2.381-1.34-3.963 1.34-1.53.3-3.79 0-5.5-1.9-1.589-2.75-3.66-2.63-6.109-1.16-2.011-3.91-2.99-4.211-5.74-.851-2.38-3.85-4.272-4.392-7.021-.37-2.562 1.951-6.163-1.1-7.692-1.65 0-3.428.67-4.158 1.951-.731 2.448 4.46 2.32 1.348 4.829-1.469.49-2.14-.73-3.111-1.28-3.24.429-6.54-2.02-8.98.85-2.63.55-4.769-3.05-6.84 0-2.449.31-5.311 2.87-7.45.671-.671-.362-.732-1.16-.671-1.522-.37-.369-.731-.858-1.341-.678-2.63 1.53-1.959 4.648-4.159 6.17-1.642-.851-3.48.799-4.821-.67-.92-.852-1.1-2.2-.67-3.3 1.642-1.71 4.64-.12 6.17-2.2 1.031-.67.73-1.65.602-2.621-1.89-1.71-4.392 1.582-5.673-1.1 0-1.59 1.522-1.899 2.622-2.441.73.06 1.28-.799 1.53-1.28-3.91-3.368-8.49.36-12.092 2.192-1.65 1.04-3.24 2.26-3.3 4.399.671 1.65 4.649 1.401 2.2 3.722-.79.798-2.44 1.958-3.729.858-2.373-5.01-3.902 3.12-6.591 0-.12-2.26 2.87-2.071 3.97-3.3.67-1.77.61-3.6.188-5.25-1.348-.67-2.08-2.682-3.729-2.622-.738 1.04-.12 3.051-1.959 3.292-3.473-.18-6.712-2.011-8.603-5.07-1.22-.421-2.079.678-2.629 1.53-.06 2.87 3.42 4.09 4.64 6.591 1.221 1.71 1.71 3.67 3.97 4.4.061 2.2-1.77 5.68 1.1 7.021 5.553 3.54 12.393 3.661 18.442 1.1l2.87.67c7.39.189 14.773-.971 21.742-2.44 1.763.06 3.352.369 4.633 1.59.67.73-.482 1.77-1.341 1.95-4.58-.24-8.181 1.891-12.091 3.3-1.65 4.271-6.471 2.561-9.221 5.07-5.002 2.132-12.03 5.002-12.332 11.661-3.119 6.042-.61 12.762.248 19.113-.429 1.1-1.777.61-2.448.43-1.1-.74-1.22-1.9-1.71-2.871 2.998-5.01-2.93-8-.919-13.372 1.16-2.87 4.09-5.868 3.119-8.791-.98-.37-1.959.542-2.87.85-1.281 1.711 1.71 4.092-.912 5.493-2.938-.12-2.388-2.81-3.059-4.822.799-1.89 3.91-3.171 2.441-5.74-.542-2.32-3.85-1.53-4.392-4.15-.55-3.602-5.01-2.2-7.081-4.4-.188-1.71 1.092-3.36-.618-4.212-1.89-.369-2.561 2.63-4.633 1.77-.987 1.1.791 2.14.851 3.3 1.71 1.65 5.13 1.341 5.312 4.212-1.891 1.71-4.091-1.59-5.93.18-1.453.678-2.5-.971-2.681-1.95-.12-2.2-1.77-3.541-3.48-4.641-2.012-.37-4.212-.49-4.83 1.77.068 2.63 2.389 4.7 4.83 5.5.919.85 1.89 2.2.85 3.291-1.34.791-2.62 2.2-4.391 1.349-3.36-1.65 2.011-4.46-1.53-5.99-.85.86-2.131.671-3.292.671-2.38-1.461-3.058-5.491-6.35-4.821-.49-.12-1.16-.73-.92-1.1 1.462-3.05 4.95 1.401 5.922-1.77-1.28-3.42-5.13-2.501-7.872-3.3-.55.92-1.778.12-2.449.67-2.32 3.3-10.38 1.1-8.12 7.27.858 1.281 2.87.86 3.728 2.63h1.093c1.047-1.77-3.594-2.69-.422-4.159 3.781-.603 3.6 6.05 7.45 3.3 2.93.73 4.332 3.48 5.492 5.92 1.53 1.96-1.89 3.542-.422 5.5.55.67 1.341 1.59.422 2.38-1.522 2.321-3.171-2.749-4.392.25 0 1.581.301 3.05-1.1 4.391-.919.61-1.529-.24-2.2-.85-1.1-2.26.37-3.18-.429-5.5-1.461.12-1.77 1.71-3.292 1.71-.799-.49-.98-1.28-.859-2.2.302-.67 1.341-1.34.67-2.2-.79-.18-1.589-1.092-2.44-.43-1.83.98-2.012 3.24-1.53 5.078.92 2.132 3.481 3.601 3.052 5.74.979 1.523 3.42.362 3.729 2.622.55.121 1.16.49 1.34 1.1-1.032 1.643-2.621-.369-4.15 0-1.71.55-3.42 1.71-3.3 3.48.37 1.41.799 2.81 2.2 3.783 1.16-.302 1.89-3.473 3.729-1.341.73-1.1 2.26-1.891 3.48-1.53 2.2 2.02-2.14 2.999-1.529 5.259 1.53.911 4.279-1.1 4.211 1.77-2.863.241-4.211 5.25-7.262 2.44-.309-1.22-.12-2.998-1.53-3.299-1.77.06-3.66.06-4.391-1.77-.189-2.26-.37-4.28-1.59-6.411-1.89.67-1.53 3.42-3.48 4.64.43.61-.12 1.59.851 1.952.859 0 1.959-.06 2.2.919.18.919-.49 2.079-1.522 1.95-2.388-1.589-5.258-.55-7.94-.85-.55-.61-1.59-1.341-.859-2.2 1.04-1.77 3.059-1.22 4.64-1.77-.91-3.232 3.18-3.42 3.73-6.17-.128-.852.301-2.682-1.1-2.863-2.501-.128-4.09 3.111-6.84 2.863-1.891 2.448-4.822.61-7.022 2.448-1.529 1.28-1.529 4.023-4.15 3.48-1.16-.429-.679-1.89-.49-2.629 1.22-1.59 4.211-1.16 4.64-3.721-.369-.67-.678-1.65-.248-2.441.738-.128 1.22-1.47 2.019-.618.911.73 1.77 2.388 3.05 1.53 1.04-1.1.49-3.232 2.45-3.541 1.091.12 1.83 1.22 3.05 1.092.241-1.71-3.548-2.682-1.53-4.573 1.59-1.59 4.4-.49 5.5-2.69.422-.978.241-2.32-.678-3.05-3.721.06-8.12 3.54-10.742-.851-.55.12-.98-.49-1.1-.92-.31-.918.361-1.65 1.1-1.958 2.2-.912 5.431 3.729 5.491 0-.421-1.47-2.071-.972-2.87-.912-.482.12-1.04.852-1.522.241-1.22-.369-1.16-1.582-1.1-2.621.671-.799 1.1-1.71 1.952-2.449l2.448.25c.482-.92-.98-1.53-.43-2.63.852-1.462 4.212-1.83 2.622-4.392-2.011-1.16-4.52 2.32-6.41-.49-3.3 2.132-3.36-6.41-5.251-.858-.31 1.469 2.011 2.689.24 3.97-2.01.919-1.95-2.14-3.54-1.77-1.22 1.22-2.32 2.628-4.15 2.199-.792-.67-1.402-1.34-1.1-2.44 1.529-3.421 8 .489 6.109-4.83-.738-1.092-1.59-.61-2.63-.422-2.32-.798-4.52-2.508-7.262-1.77-2.38.92-4.218 3.413-6.78 3.963l-.919-.852c-2.38.731-4.452 2.75-7.202 1.952-1.529-2.26-2.2-5.613-5.499-5.74-1.642.617-3.24-.121-4.882-.182.671 1.341 0 3.112-1.529 3.48-1.53.49-2.5-.67-3.3-1.521-.12-.98 1.41-1.778.25-2.63-2.08.55-4.28.061-5.922-1.1-2.26 2.02 1.763 5.312-1.77 6.352-3.3 1.28-3.79-4.89-7.029-1.71-1.71-.972-4.452-.37-5.311-2.441-.06-.61.309-1.65 1.1-2.2 2.629-.67 3.85 1.951 6.17 1.951.61-1.1-.92-2.14-1.53-2.802.92-1.41 2.69-2.26 4.4-1.59 1.59 1.65 3.48-.12 5.062-.618 4.219-1.823 7.76 2.63 11.42-.482 4.52-2.011 9.711 4.211 12.273-1.1-.06-.979.49-2.2-.603-2.81-1.1.06-2.08-.12-2.87-.67-.49-1.401.67-1.951 1.522-2.44 2.568-.49 4.76 1.95 7.02.24 1.289-.24 3.12.55 3.73-.67.301-1.04-.67-1.951-1.28-2.2-4.77-.362-9.041-.301-13.621.249-2.02 2.071-5.13-.49-7.27 1.28-2.863.249-6.162-.798-8.121 1.77-3.782 1.1-7.202-1.1-11.232-.67-.43 1.16-1.77 1.642-2.87 1.1-1.1-.67-2.2-1.409-3.73-1.1-.542 1.522-.3 3.42-2.44 3.722.12 1.04-.972 1.71-1.522 2.2-2.019.61-5.868-2.381-6.358 1.34 1.65 3.79-2.562 7.33 1.1 10.57 5.07 3.721 10.63 6.343 15.82 9.891 7.27 2.44 15.021 3.721 22.412 5.921 3.721-.18 8.482 1.65 12.09-.851.792-.068 1.771-.068 2.012.851-.12.98-1.28 2.012-.241 2.87 1.65-.3 2.93.37 4.15 1.1 3.421 1.409 8.122.55 10.563 3.3.369 1.16-1.22 1.032-1.522 1.28-3.36-1.1-6.96-1.408-10.32-1.95-.19-2.2-2.2-.43-3.3-.679-4.03 1.96-4.03 6.351-5.07 9.9-1.04.91-3.3-.129-3.541 1.762.309 1.71 2.75 2.63 2.87 4.158-.919.483-1.951.731-1.951 2.012-.37 2.448 3.85 2.14 2.622 4.829-1.04 1.522-3.782.422-3.97 2.621.188 2.93 5.25 3.85 3.54 7.27-.55.61-1.092 1.1-2.011.851-.12-.429-.49-.73-.859-1.1-2.132.61-4.693-.67-6.592 1.77-.798-.06-1.89 1.161-2.44-.18-.189-3.111 5.491-2.44 4.21-5.981-.971-.799-2.32-.739-3.11-1.96.06-.85.67-1.89 1.77-2.191 1.521.361 2.93-.37 3.292-1.778 1.1-.791-.06-2.012-.851-2.38-1.1-.242-2.441-.242-2.87-1.583 0-.798.55-1.838 1.529-1.717.369.248.85.188 1.34.188.121-.43.61-.73.43-1.28-1.16-2.442-5.861 1.28-4.159-2.87.43-.611 2.08-.74 1.289-1.771-.61-1.53-2.81.301-3.059-1.53-.361-1.04.49-1.59 1.1-2.2 1.71.061 3.97.061 5.5-1.1.979-1.152 1.4-2.568.85-3.97-.36-.55-1.46-1.77-2.2-.67l-2.191 2.02c-2.02-.8-.92-2.63 0-3.79.49-.49 1.34-1.04.67-1.71-.851-1.28-3.058-.301-4.4-.92-2.56-.24-4.391-2.99-7.261-1.95-1.96-.12-2.991 1.65-3.97 3.058.49 1.65-.61 2.99-1.952 3.54-.859.121-1.657.242-2.2 1.093-.248 1.288 1.341 2.69.671 4.151-1.348 0-1.959 1.59-1.348 2.63 2.2 2.199-1.522 4.399.678 6.598 1.28 1.831.24 4.573.85 6.592.732 1.59 3.36 2.08 2.69 4.211-3.721 3.12 2.38 5.44 2.2 8.8 2.501 1.4 5.25 2.741 8.302 2.192.859 2.81-2.75 4.828-4.159 7.27-.971 2.681 3.79 5.92.249 8.301-.791 3.119 2.63.309 3.3 2.448-2.87-.06-.61 3.172-2.2 4.151-1.401 2.622 2.569 3.292 1.1 5.99 0 1.34-1.04 2.01 0 3.291-.92 2.501-1.16 4.46-.49 6.78 1.83 2.562 4.821 3.662 7.27 4.641 1.16 1.89 3.352 3.24 5.74 3.292 1.83-.301 3.661-1.28 5.492-.911 1.34 3.48 5.981 2.01 7.27 5.74 2.81 3.3 2.26 8.61 7.02 10.562 2.683-.912.121-3.97 2.2-5.311 1.462 2.32 2.26 5.25 4.392 6.84 1.65-.06 3.85.309 4.4-1.53M224.46 320.146c.369-.98-.61-1.341-.67-2.2.361-1.16.361-2.93-.92-3.48-.919.918-2.682 0-3.48.67.55.67 1.04 1.22 1.1 2.2-.61.67-1.59 1.469-.912 2.38 1.642.189 3.601 2.63 4.882.43" style="fill:#fff;fill-opacity:1;fill-rule:nonzero;stroke:none" transform="matrix(.54063 0 0 -.54063 -1.377 275.072)"/><path d="M263.115 311.84c1.22-4.888-4.761-4.949-5.07-9.04-1.22-1.16-3.3.49-4.58-.421-.912.972-.181 3.36.188 4.821 1.71 2.26 5.063-.73 5.311 3.3.912 1.1 2.75 3.54 4.151 1.34M352.573 299.934c-.18-.43-.369-.98-.859-1.281-.971.12-2.629.361-1.95 1.951.489.61.67.61 1.287.859.852 0 1.522-.678 1.522-1.53M273.434 296.88c.248-2.441-1.22-5.07-1.1-7.511-.49-.31-.67-.31-1.281-.189 1.22 4.22-6.17 5.93-1.348 9.47 1.59.18 3.36-.12 3.729-1.77M294.318 288.271c.308-.738-.43-.859-.852-1.1-.678-.06-1.657 0-1.529.912-.06.49 0 .618.43.859.79.12 1.642-.12 1.95-.67" style="fill:#fff;fill-opacity:1;fill-rule:nonzero;stroke:none" transform="matrix(.54063 0 0 -.54063 -1.377 275.072)"/><path d="M345.793 285.46c-.06-.49-.73-.979-1.1-.49-.301-.06-.422.31-.67.49-.181.852.188 1.16.859 1.53.85 0 1.461-.799.911-1.53" style="fill:#0072ba;fill-opacity:1;fill-rule:nonzero;stroke:none" transform="matrix(.54063 0 0 -.54063 -1.377 275.072)"/><path d="M369.548 284.974c.67-.49.309-1.409.43-2.2-1.1-.06-2.2-.791-3.3-.18-.37.67-.98 1.22-1.1 1.95-.309 2.81 3.059 1.281 3.97.43" style="fill:#fff;fill-opacity:1;fill-rule:nonzero;stroke:none" transform="matrix(.54063 0 0 -.54063 -1.377 275.072)"/><path d="M322.04 275.996c-.12-.55.24-1.28-.43-1.529-1.59-.301-2.26 1.1-2.862 2.2l-.25 1.28c1.583.31 2.81-.73 3.542-1.95" style="fill:#0072ba;fill-opacity:1;fill-rule:nonzero;stroke:none" transform="matrix(.54063 0 0 -.54063 -1.377 275.072)"/><path d="M387.743 268.058a4.28 4.28 0 0 0-1.1-2.38c-.919.851-2.681.851-3.05 2.192.429 1.65-.86 3.79.24 5.5 2.08-.92 3.97-3.232 3.91-5.312M196.981 264.332c1.04-.92 1.401-2.14 1.951-3.3-.12-.972-.851-1.951-1.77-2.44-2.26-.242-3.97-1.65-6.162-2.2-1.899.429-3.541-1.153-5.259 0-1.032 1.529 2.388 2.26.249 3.789-2.63-.92-5.8 3.85-7.081-.67-.67-2.992-3.18-4.46-5.5-6.412.249-.678-.73-1.469.249-1.958h1.77c.12-2.75-2.629-4.392-3.97-6.592-3.119-1.83-1.1-6.17-3.3-8.55-2.2-.31-5.062-3.24-6.591-.912-.43 1.341-.43 3.232-1.959 3.721h-6.41c-.43-.79-.182-1.83.67-2.38 2.019-.738 4.95.851 5.25-2.2-.482-1.89-2.621-3.3-3.48-5.31-.482-.732.249-2.871-1.341-3.052-.67-.06-1.59 0-1.53.851 1.168 2.08-.18 3.3-.67 5.5-2.14 2.621-10.132.67-7.45 6.591 3.669 3.601 1.53 9.033 7.27 10.992 5.01.55 7.141 5.25 11.842 6.591 7.76 7.33 17.831 16.25 29.003 10.992 1.47-1.341 2.69-1.891 4.22-3.051M403.622 257.983c.302-1.28-.49-2.019-1.34-2.019-.679.61-1.65.86-1.96 1.77-.06 2.08 2.75 1.77 3.3.25" style="fill:#fff;fill-opacity:1;fill-rule:nonzero;stroke:none" transform="matrix(.54063 0 0 -.54063 -1.377 275.072)"/><path d="m183.548 255.11 2.44-2.62c-.919-1.35-2.81-2.02-4.64-2.02-1.04 1.04-2.622.73-3.97 1.1.73 2.26 2.32 5.07 5.07 5.74 1.71.362.43-1.59 1.1-2.2M196.493 248.942c-.738-1.89-.49-4.46-1.53-5.92.792-2.321-.55-4.882 0-6.841-1.34-3.782-5.732-4.821-8.361-7.88-5.801-4.882-11.481-10.132-17.772-13.861-1.521-1.952-3.171-3.42-5.07-4.392-.971-.12-1.77 1.4-2.621.18-.49-.421 0-1.89-.43-2.629-1.04-2.011-2.93-2.93-4.4-4.392-4.512-4.4-10.01-7.752-14.96-10.99l-1.522.24-5.07 5.5c.18 6.343 7.33 8.482 10.75 12.52 14.464 12.392 29.305 21.922 43.965 34.315 2.14 1.89 4.09 3.668 6.592 5.01zM187.272 248.7c-.73-2.079-3.91-2.87-5.25-5.01-.92-.79-2.32-1.71-3.12-2.681-2.312-1.288-4.512-3.97-7.02-5.01-.181 2.14 1.22 3.662 1.348 5.68 3.721 4.212 8.731 6.29 14.042 7.022M414.796 245.219l-.181-1.341c-.67-.98-1.47.18-2.2.24-.851.732-.369 2.02.422 2.63.859-.06 1.898-.61 1.959-1.53M149.718 230.015c-.43-3.42-2.44-6.471-4.64-8.792.858-1.469-.49-2.569-1.77-2.81-1.96.12-4.46-.308-5.251 1.71.361 3.722 5.552 5.922 3.962 9.892-2.923-2.26-2.802-7.82-7.262-7.45-.49 2.01 1.71 3.97 2.2 6.17 2.26 1.22 2.87 6.35 6.591 4.399 1.899-1.47 4.701-.558 6.17-3.12M152.527 221.71c-.37-.738-1.462-1.22-2.2-.49-.67.791-.12 1.59 0 2.449l1.348 1.092c1.281-.43 1.22-2.072.852-3.051" style="fill:#fff;fill-opacity:1;fill-rule:nonzero;stroke:none" transform="matrix(.54063 0 0 -.54063 -1.377 275.072)"/><path d="m419.01 221.465-.249-1.34c-.602-.25-1.1-.129-1.521.489l.18 1.522c.61 0 1.47.12 1.59-.67" style="fill:#ccd3dd;fill-opacity:1;fill-rule:nonzero;stroke:none" transform="matrix(.54063 0 0 -.54063 -1.377 275.072)"/><path d="M286.013 220.61c.369-1.099.369-2.628-.92-3.299-2.26-.369-4.391.912-5.92-1.34l-1.53.24c-.361.98-.422 2.87.859 3.73.49.85 1.89 1.1 2.87.67 1.462-1.891 2.93-.309 4.64 0M331.506 216.824c.55-1.1-.06-2.32-.67-3.3-.799-.67-1.349-.79-2.441-.602-1.899 1.28-2.69 3.412-2.63 5.672 2.2 2.75 3.722-1.401 5.741-1.77M294.562 206.078c.06-.791.06-1.952-.858-1.952h-.67c-.43.55-.182 1.462-.242 2.193.301.979 1.951.798 1.77-.241M305.31 204.305c-.61-3.232-4.4-3.42-6.78-4.821-1.1.24-2.32 1.04-2.621 2.2-.61 1.83 1.16 2.071 1.95 3.291 2.2 1.41 4.581-1.16 5.922 1.77 1.83.49 1.04-1.89 1.53-2.44M290.835 201.008c-1.22-.49-2.622-.12-2.622 1.341-.18 1.1 1.16.55 1.522 1.288.98-.429 1.718-1.59 1.1-2.629M232.337 201.253c.55-4.46-4.82-.61-7.02-2.44-.671 1.589.979 2.99 1.95 3.962 1.952.128 3.052-1.883 5.07-1.522M273.678 200.337c.912-1.1 2.441-3.42 4.4-2.81-.249-2.87 4.64-2.072 2.87-5.31-.859-1.04-2.32-1.342-3.548-.852-4.332 1.34-7.752.361-12.084-.43-1.958-.18-2.69 2.072-3.729 3.3.55 1.582-.979 3.782-.43 5.673 1.9.798 3.79 3.729 6.352 2.019 1.898-.98 3.789-2.509 6.17-1.59M294.134 199.054c-.37-.55-.06-1.71-1.1-1.522-.791.61-1.28 1.891-.43 2.622.791.301 1.22-.67 1.53-1.1M258.534 197.285c0-2.381-.309-4.942 1.1-6.84-.92-1.281 2.08-2.072.43-3.481-2.75.61-2.449 5.01-5.93 3.05-.67-.12-.85-.79-.911-1.28.73-.911 2.501-1.16 2.192-2.69.43-1.34-1.401-2.131-2.373-2.802-3.85-.979-6.471 1.341-9.04 3.051-1.469.55-2.69-1.408-3.729.249.55 1.092.799 2.373 0 3.473-2.5.98-5.981-.301-7.933 2.019.422 8.241 10.992 3.91 16.062 5.921 2.44 3.42 8.422 2.2 10.132-.67M311.05 199.482c-.127-2.93-2.44-5.371-4.64-7.021h-.61c-.309 2.81 2.69 5.002 4.58 7.021z" style="fill:#fff;fill-opacity:1;fill-rule:nonzero;stroke:none" transform="matrix(.54063 0 0 -.54063 -1.377 275.072)"/><path d="M350.614 327.84c-.3-.731-1.28-.43-1.77-.181-1.951 1.582-2.742 4.09-4.15 6.162l.18.43c2.08-2.08 3.91-4.393 5.74-6.412M337.674 328.756c1.4-.98 2.44-3.85 4.58-2.2.79.55.369 1.77 0 2.381-.49.43-.799.92-.678 1.59l.249.18c1.28-1.77 3.48-3.352 5.07-4.821v-1.53c-3.112-2.199-5.32-5.19-7.7-7.69-1.65.18-3.473 1.099-4.21 2.62-.182 1.229.489 2.08-.182 3.06 1.462.489 2.69-.98 3.963.67.987 1.59.128 3.171-1.092 4.64-.739.55-1.59.92-2.2 1.77-.309 1.16.309 2.14 1.28 2.63.61-.799.61-1.959.92-3.3M333.03 327.656c-.98-.791-1.462-2.75-3.052-2.87l-.49.429c.92.98 1.77 3.842 3.541 2.44M236.55 326.13c0-.858-.549-1.649-1.34-2.018l-.859.248c.249.731.12 1.891 1.1 2.2.43.06.791-.068 1.1-.43M393.911 325.03v-.919c-1.34.12-3.292 0-4.15-1.28.12-1.402-1.1-2.193-1.1-3.541-.55-.06-1.281 0-1.35.67.25 1.83-2.99 1.77-4.15 2.63 1.717.67 4.279-1.229 4.829 1.34l-.678.61c-1.341.731-3.842.181-4.151 2.012 3.97-.912 7.518 1.1 10.75-1.522M396.783 322.342c-.06-.242.188-.67-.241-.852-.37-.128-.618.181-.86.422-.55.98 1.1 1.228 1.1.43M242.902 320.632c0-.55-.181-.98-.67-1.34-.55-.25-.611.429-.86.67l.189 1.28c.542.06.971-.18 1.34-.61M395.683 319.29v-.67c-.791-.37-1.04.61-.851.918.24-.128.67.181.85-.248M400.08 317.519c-.489-1.04-1.16-.37-1.77 0-.61.67-.61 1.22-.18 2.019.73-.43 2.071-.799 1.95-2.02M408.201 314.65c-1.83.241-3.42 2.019-4.392 3.3 2.072 1.04 3.051-2.26 4.392-3.3M394.83 315.566c-.49-.06-.851.06-1.1.43l.61.67c.43-.309.55-.67.49-1.1M341.155 311.352c-.241-.43-.73-.49-1.1-.18-.249.85 1.28 1.4 1.1.18M242.902 308.97c.798-1.16-.37-2.629-1.53-2.629-.61.068-1.59.55-.911 1.289.61.911 1.16 1.65 2.44 1.34M410.644 308.055c-.55-.181-.738-1.402-1.53-.61-.18.918 1.161 2.01 1.53.61M382.493 306.1c-.92-1.34-1.462-3.66-3.722-3.05-1.53 2.01 2.072 2.56 2.373 4.15.55-.12.92-.73 1.349-1.1M423.164 303.657c.18-.67-.309-1.341-.859-1.522h-.482c.422.542-.06 2.2 1.34 1.522M384.936 301.947c-.919-.361-.55-1.65-1.589-1.59-1.53.679.188 1.839.249 2.441.55.49 1.83.129 1.34-.85M234.536 300.85c-.18-.92-.798-1.281-1.529-1.77-1.092-.25-2.38-.731-3.54-.25-.181.671-1.59 1.41-.181 2.02 1.582-.31 3.91 1.59 5.25 0M244.856 296.208c.248-1.89-1.71-2.682-3.3-1.95.61 1.091 1.341 2.5 2.87 2.802zM389.087 294.256c-.18-.43-.49-.799-.429-1.349-.73.068-1.462.618-1.77 1.349-.12 1.34 1.958 1.28 2.2 0M251.695 292.237c-.369-.73-1.16-.55-1.77-.858-.37.128-.12.557-.188.858l1.529 1.1c.49 0 .919-.73.43-1.1M404.722 290.47c-1.04 1.031-2.87.979-3.3 2.44 1.1.98 2.2-.73 3.3-1.1zM234.352 290.958c.06-.43-.06-1.16-.67-.92h-.671v1.1zM227.085 289.858c-1.28-1.53-3.42-3.42-5.492-3.112-.429.37-.188 1.032-.248 1.522 1.1 1.53 2.569 1.959 3.97 2.69.55-.49 1.28-.55 1.77-1.1M258.717 287.415c-.06-1.22-1.28-2.08-2.38-2.622-1.71-1.409-4.091-2.509-5.5-4.4l-1.34.181v.92l6.84 7.69c1.28.182 1.71-.978 2.38-1.77M248.824 287.658c.308-.73-.422-1.16-.852-1.341h-1.348c-.55.98.859 1.461 1.53 1.77.368.06.489-.309.67-.43M409.974 284.362c-.369-.188-.12-.61-.67-.49-.43-.06-.799.06-1.1.49.06.972 1.273.912 1.77 0M240.947 283.69c.18-1.1-1.04-1.402-1.77-1.522-2.442.361-5.131-2.87-6.841.18.18 3.842 5.13.791 7.021 2.622.92 0 1.16-.67 1.59-1.28M308.85 281.677c-1.522-1.71 3.18-5.07-.67-5.258-1.409 2.328-1.77 5.258-3.48 7.277l.61 1.092c1.71-.24 3.231-1.28 3.54-3.11M224.46 283.69c.49-2.02-2.75-2.441-2.87-4.393-1.22-1.469-3.112-1.898-4.822-1.348-1.22.43-.98 1.28-.678 2.2 4.098-1.1 4.4 4.821 8.37 3.54M303.11 278.378c0-.31.369-.49.248-.852-.858-.617-2.877.43-2.877-1.348.067-.791.067-1.77-.852-1.951-.85.369-1.95.971-2.2 1.77 1.16 2.561-1.28 3.97-.429 6.162 2.93-.482 2.81-4.203 6.11-3.781M415.04 278.623c-.671-.24-.43-1.28-1.342-.859-.49 1.04-1.778 2.02-1.1 3.3 1.891 1.53 3.42-.309 2.441-2.44M362.465 279.723v-1.34c-3.05 1.16-3.54-3.06-6.102-1.1-.678 1.031-1.597 2.44-.678 3.54 2.26-.37 4.83-.068 6.78-1.1M279.6 278.865c.43-.851.12-1.77-.429-2.44-.482 0-1.04-.121-1.341.421 1.032 2.019-2.38 1.838-.851 3.729 1.34.61 2.26-.851 2.621-1.71M247.055 279.05c.301-1.16-1.1-1.1-1.53-1.958-.67.188-1.89-.483-1.95.678-.25 2.011 2.81 3.05 3.48 1.28M259.39 277.95c.18-.85-.249-1.469-.859-1.95-1.34.3-1.89.971-2.87 1.95.248 2.501 3.058.98 3.729 0M229.04 277.278c.12-.61-.86-.55-1.281-.852l-.49.422c.37.31 1.22 1.59 1.77.43M287.722 273.37c.791-1.4-.43-2.508-.61-3.788-.37-.43-.791-.67-1.341-.61-1.288 2.2.43 5.62-2.63 7.02-.18.86.852.799 1.281 1.108 2.08-.128 2.75-2.207 3.3-3.73M268.853 275.568c-.121-1.65-2.682-1.22-2.2-3.3-1.341-.73-3.051.25-4.392.86-.241.79-.55 1.4 0 2.2 1.77.79 2.011-1.41 3.48-.679.302 1.349 2.38 2.63 3.112.92M244.856 273.98c.12-.61-.739-1.22-1.1-1.281.06 1.1-1.891 1.16-.859 2.38.92.302 1.65-.361 1.959-1.1M363.563 272.698c-.791-.43-2.26-.24-2.38.67-.182.671.85.43 1.1 1.1 1.099.06 1.649-.979 1.28-1.77M221.162 271.173c.181-.738-.308-1.34-.919-1.59-.361.31-1.04.31-1.1.92.31.67 1.349 1.65 2.02.67M300.484 269.83c-.85-.98-2.5-1.77-3.97-1.1-.49.24-.55.971-.18 1.34.971 1.53 4.09 1.839 4.15-.24M242.23 269.83c.06-.55 0-1.65-.67-2.2-1.59-.241-.55 1.77-1.282 2.44-.128 2.14 1.77.55 1.952-.24M375.043 270.5c-.241-1.1-1.71-1.1-2.44-2.012h-1.53c-.791.972.369 1.83 1.107 2.192.784.309 2.132.49 2.863-.18M236.977 269.583c-.301-2.93-3.54-1.59-5.31-2.38-.302.12-.302.73 0 .85 1.1 1.59 3.42.74 4.21 2.63.67 0 1.04-.37 1.1-1.1M354.77 268.73c-.302-.67-.611-.92-1.282-1.1-.61.12-1.28.361-1.34 1.1-.121 1.77 3.05 1.59 2.621 0M331.261 268.058c-.12-.369-.919-.67-1.28-.188-.49.497-.49.98 0 1.53 1.032.18 1.032-.61 1.28-1.342M309.094 267.202l-.671-1.341c-.67.18-1.288.49-1.77 1.1-.181.73.24 1.22.851 1.34.738-.18 1.1-.489 1.59-1.1M370.645 265.188c-.49-1.34-1.951-.12-2.863-.18-.798.489-2.328 1.65-1.1 2.62 1.703.121 3.051-1.039 3.963-2.44M344.27 265.858c.301-2.622-3.488-2.2-3.79-4.822.189-1.529-.55-2.689-1.521-3.729-1.22-.361-2.012.43-1.959 1.289 1.1 2.011.188 5.733 3.3 5.981.73 1.28 3.05 3.36 3.97 1.28M350.614 266.104c-.3-.309-.18-1.16-.85-.919-.55-.12-.98.249-1.1.67.06.987 1.83 1.349 1.95.25M378.343 263.477c0-.369-.06-1.28.18-1.77.55-.12.92-.73 1.341-1.1.068-.859-.67-1.83-1.521-1.1-.61 1.77-3.722 1.22-2.878 3.73.557 1.152 2.388 1.581 2.878.24M214.078 262.99c.37-.61-.49-1.1-.851-1.529-.49 0-1.04-.12-1.349.43.12.972 1.349 1.77 2.2 1.1M255.847 262.561c.18-.55.79-.61.67-1.28-1.59-.55-3.3-.31-4.821-1.341-1.28-.189-2.26.301-3.3.663-.429.429-.12 1.167-.24 1.777 1.83 1.831 4.03-.858 5.98.61zM232.763 261.035c.06-.55-.18-.98-.61-1.341-.851.06-2.011-.188-2.2.912.189 1.529 2.32 2.019 2.81.429M371.746 259.509c-1.402-.12-2.32-1.47-3.79-1.53-.79.98-2.682 2.08-1.702 3.3 1.763-1.401 5.062 1.1 5.492-1.77M263.785 260.606c-.302-.731-.912-.483-1.53-.242v.671c.558-.12 1.228.241 1.53-.43M260.916 258.593c.12-2.682 3.661-.12 4.64-2.2-.79-1.341-2.681-1.032-4.21-1.1-1.168.67-.55 2.509-1.96 2.69-.73 0-1.581-1.04-2.199 0-.173.979.188 1.589 1.1 1.71 1.1.18 2.388-.06 2.63-1.1M269.282 258.165c-.18-.92-.37-1.83-1.53-1.77-.73.06-1.521.85-1.521 1.589-.188.61.12 1.1.61 1.522 1.04 0 2.072-.302 2.44-1.341M331.078 256.394c-.309-.67-1.04-.308-1.59-.429-.429.61-.91 1.469-.429 2.2 1.349 2.32 2.998-.37 2.02-1.77M384.692 254.013c.18-.55-.49-.98-.86-1.1-2.99-.911-3.42 2.75-6.161 2.38-.49 1.221.979.679 1.28 1.342 2.14 0 4.58-.731 5.74-2.622M370.158 251.814c-.06-.55-.24-1.22-.851-1.34-.799.24-2.2.55-2.87-.19-1.47-.67-.618-3.05-2.63-2.681-.73.972-.489 3.54-.248 5.062 1.04.92 1.288 2.388 2.448 3.12 2.38-.43 2.63-2.63 4.151-3.97M391.287 255.54c.18-.739-.248-1.221-.851-1.342-.92.302-.738.852-.497 1.582zM248.397 252.912c-.851-.61-2.2-1.04-3.3-1.521-.429.12-.73.482-1.1.851 0 .851.558 1.65 1.35 1.951 1.22.12 2.56 0 3.05-1.28M241.802 250.716c-1.04-.06-2.2-.06-2.622.852-.128 2.019 4.023 1.1 2.622-.852M378.343 251.996c-1.04-2.26 1.59-3.179 2.802-4.58l2.878-1.1c1.1.55 1.22 3.661 3.292 2.2 1.469-.851 2.26-2.32 2.629-3.729-.67-1.951-1.47.799-2.63.188-.73.181-1.031 1.41-1.95 1.1-.49-1.469-1.402-3.54-3.541-2.38-2.501 1.34-4.882 2.87-7.692 3.48-.738.67-.497 2.072-.188 2.87.61 1.65 2.93 3.292 4.4 1.951M303.11 250.897c.309-1.04-.912-1.22-1.522-1.522-.859.422-1.71.851-1.778 2.011.799 1.47 2.87.98 3.3-.49M326.863 251.57c.128-.671-.12-1.16-.67-1.522-.49 0-1.04-.129-1.28.421-.129.791.12 1.59.85 1.77.55.25.731-.421 1.1-.67M391.533 250.897l-.249-.852c-1.28-.068-2.621-.068-3.54.852.369 2.018 2.937 1.04 3.789 0M294.989 250.47c.43-.301.18-.851.248-1.28-.49-.55-1.228-.92-1.77-.25v2.45c.73.12 1.341-.31 1.522-.92M234.536 248.7v-1.71c-.67-.61-1.4.06-1.958.43.369 1.16-1.462 1.89-.241 2.87.98-.068 1.77-.738 2.2-1.59M260.487 247.42c-.98-1.1-1.891.421-2.87.67-.242.49-.49 1.59.248 1.95 1.341-.489 2.501-1.34 2.622-2.62M312.822 246.99c-.67-.49-1.47-.12-2.02.43-.06.79.061 1.649.671 1.95h1.349zM166.633 248.09c-.912-.67-1.341-1.77-1.77-2.441-1.41-.249-4.03-.799-4.151 1.34.542 1.952 3.42 1.281 5.25 1.71zM395.683 243.448c.309-.738-.61-.55-.851-.851-1.71-.188-1.839 1.341-2.012 2.622.053 1.16-1.288.79-1.785 1.529.128.67.859 1.77 1.785 1.34 1.642-1.589 1.394-3.238 2.863-4.64M207.972 243.448c.31-.79-.55-.79-.911-1.1-.799-.24-1.47.67-1.53 1.341-.18 1.839 2.441 1.228 2.441-.24M363.378 242.776c-1.401-1.831-3.721-4.272-6.591-3.97-.739.858-1.41 1.65-1.1 2.87 1.461.361 3.239.979 3.721 2.87 1.1-1.032 3.488.43 3.97-1.77M404.904 241.676c.61-.61 0-2.08-1.1-1.522-1.1-.43-.851 1.04-1.77 1.1-.852-.06-2.14-.06-2.193 1.092l.663 1.959c2.08.12 2.14-2.75 4.4-2.63M377.853 242.595l.24-1.341c-1.039-.738-1.83.422-2.862.422-.369.49-.497 1.1-.43 1.778.912 1.461 2.562.173 3.052-.86M236.306 242.348v-.67c-1.53.73-4.46-1.59-5.07 1.1.738 1.83 3.119.309 4.64.43zM315.017 240.823c-.18-.55-.55-1.16-1.1-1.349-.55.31-1.16.25-1.522.927-.24.851.362.972.852 1.522.67-.12 1.83-.06 1.77-1.1M293.889 241.007c.06-.43-.06-.799-.422-1.1l-1.53.248c-.06 1.033 1.402 2.32 1.952.852M302.01 241.494c.31-1.89.55-2.682-.18-4.392-1.1-.248-2.08-1.04-2.63-2.019-.36-1.469 0-3.729-2.01-3.97-1.59-.67-1.342 1.16-1.96 1.77.49 1.04-.61 1.891.671 2.87 2.268 1.1 4.03 3.36 5.258 5.741zM241.13 235.755c.31-.61-.429-.61-.67-.851-1.951-.618-2.26 1.642-3.3 2.622l.67 1.95c2.992.49 1.161-3.11 3.3-3.72M411.315 238.38c-.911-.74.06-2.871-1.77-2.623-.61-.188-.98.302-1.34.663-.31 1.349.42 2.509 1.52 3.059 1.04.37 1.59-.55 1.59-1.1M389.942 237.71c.37-3.24-3.118-.06-3.902-2.81-.678.12-1.59-.37-2.019.421-.12 2.14 2.32 2.818 3.722 3.488.979.241 1.89-.188 2.2-1.1M365.763 237.098c.482-1.04-.61-1.462-1.281-1.59-1.47.67-2.509-.972-2.63-1.951.061-1.22.25-2.501.86-3.3-.49-.73-1.59-.49-2.2-.24-1.59 1.468-2.14 3.66-1.53 5.74.792 2.742 3.91 1.763 6.17 1.95zM292.791 235.755c.241-.851-.369-.919-.67-1.34-.67-.069-1.838.489-1.1 1.34.301.791 1.71 1.032 1.77 0M226.842 233.311c-.12-.361-.55-.12-.851-.18-.678.85-.618 1.65-.249 2.621 1.04-.361.73-1.582 1.1-2.44M235.635 233.128c.369-.79-.55-1.032-.859-1.529-1.1 0-1.461 1.47-2.192 2.2l.18 1.288c1.71.783 2.2-1.409 2.87-1.959M378.098 233.128c0-.738.18-1.59-.67-2.011-1.229.18-2.45.362-3.3 1.582-.31 1.228.73 1.348 1.34 2.2 1.341.55 1.96-1.1 2.63-1.77M322.468 233.555l-.671-1.1c-.919.12-1.409.919-.851 1.77.482.43 1.702.181 1.522-.67M314.102 231.115c-.67-2.2-4.34-.55-5.251-3.05-.249-1.53-1.1-3.18-2.622-3.73-1.228-.24-1.228 1.16-1.778 1.77 1.59 2.45 4.272 3.42 5.74 6.351 1.282.86 3.73.43 3.91-1.34M413.27 231.115c.128-.49.73-.858 1.1-1.28.3-2.388-2.381-2.14-3.722-2.87-.799-.068-1.228.85-1.1 1.521-.188 1.47-3.669 1.891-2.019 3.722 2.019-.67 3.661-1.334 5.74-1.093M374.128 229.16c.852-1.16 2.509-.37 3.3-1.53-1.59-2.99-3.85-5.74-4.829-9.032-1.401-.37-3.36.12-3.962-1.77-1.96.61-2.328-2.81-4.4-1.71.791 2.44 4.271 2.99 4.633 5.92 4.098 2.871 3.119 6.412 3.488 10.563 1.59-.121.791-1.53 1.77-2.441M294.134 229.16c-.61.12-1.47-.37-1.77.43.369.67.918 1.039 1.77.91zM253.894 228.917c-1.89-.738-.61-5.62-3.3-3.3-.67 1.1.31 2.381.43 3.541.43 1.53 2.44.791 2.87-.24M318.07 225.863c-.98-2.14 1.348-5.74-1.952-6.84-1.1-.128-2.508.06-2.629 1.348.618 2.072-2.682 1.22-2.2 3.292 2.14-.429 3.18 1.402 4.159 2.87.851-.24 2.38.55 2.622-.67M350.376 223.909c-.43-.37.06-1.1-.61-1.34-.8.3-1.71.18-2.2 1.091l.188 1.349c.972-.249 2.373-.188 2.622-1.1M249.253 222.99c.06-.791.12-1.951-.851-1.951-.98-.249-1.47.972-1.959 1.28 0 .731-.12 1.53.43 2.012 1.28.309 1.83-.422 2.38-1.341M295.66 222.99c.49-.55.06-1.28-.422-1.77-1.04-.181-2.26.79-1.53 1.77.242.919 1.892 1.04 1.952 0M384.02 221.222v-.61c-.798-.61-2.689-.06-1.958 1.1.678.429 1.717.61 1.958-.49M412.839 218.412c-.55-.06-.972.18-1.341.61.24.55 0 2.26 1.34 2.2.98-.799 0-1.891 0-2.81M311.05 219.694c-.06-2.132-2.87-1.16-4.158-1.1-.233.362-.911.55-.663 1.1 1.032 1.16 3.353.61 4.392.43zM389.516 217.738c-.06-.971-1.1-.61-1.77-.67-.55.67-.791 1.53 0 2.2 1.1.49 1.461-.92 1.77-1.53M382.064 217.314c.249-1.96-1.461-4.151-.241-6.17-.43-.972-1.409-.55-2.2-.67-1.71-.671-1.65-2.871-3.721-2.622-.437 2.802 2.44 4.821 2.621 7.691.731 1.22 1.951 2.14 3.541 1.77M410.644 212.001c-.43-.738-.79-2.08-2.019-1.951-1.77.67-.911 3.232-2.621 4.392.18 1.16-.362 1.778.429 2.629 2.682 0 3.051-3.3 4.211-5.07M339.198 210.9c-.241-.369-.731-.12-1.093-.18-1.107.73.06 1.59.67 2.2.603-.31.852-1.41.423-2.02M241.803 210.9c.06-.738.06-2.079-1.1-1.77-.979-.43-.859.738-1.34 1.1 0 1.34 1.762 1.409 2.44.67M219.146 206.505c.309-.79-.37-1.22-.859-1.77-1.092.06-2.501-.241-2.863 1.1.731 1.28 2.81 2.38 3.722.67M244 204.551c-.67-1.89-2.38-.128-3.728-.67l-.912.851c.49 1.65 2.38 1.47 3.54 1.1.25-.67.611-.73 1.1-1.28M208.584 204.551c-.49-.67-1.04-1.65-1.71-2.44-.791.602-1.53 1.521-.912 2.44.483.98 2.193.98 2.622 0M255.419 194.843c0-.55.37-.92.241-1.53-1.642-1.16-3.661 1.402-5.311-.429-.972-.301-1.951.43-2.192 1.1.12 2.38 3.111.799 4.211 2.2 1.34.37 2.38-.49 3.051-1.341" style="fill:#0072ba;fill-opacity:1;fill-rule:nonzero;stroke:none" transform="matrix(.54063 0 0 -.54063 -1.377 275.072)"/><path d="M278.745 186.721c.67.302 1.1-.43 1.28-.859.249-1.28-2.011-1.28-3.05-.911-1.402 2.32-5.68-.06-6.351 2.87 1.469 1.71 3.789-.49 5.68.241z" style="fill:#fff;fill-opacity:1;fill-rule:nonzero;stroke:none" transform="matrix(.54063 0 0 -.54063 -1.377 275.072)"/><path d="M276.973 134.105q0-11.44-8.68-17.11-8.68-5.669-23.33-5.669-1.857 0-3.211.1 0-10.937.803-26.44h-9.634q.753 14.248.753 34.318 0 17.26-.753 31.007h7.175q1.154 0 6.573.15 5.469.15 9.282.15 9.633 0 15.303-4.415 5.72-4.365 5.72-12.091zm-8.379-2.91q0 12.894-17.61 12.894-4.315 0-9.684-.752.351-8.179.351-25.488 1.756-.1 4.315-.1 22.628 0 22.628 13.446zM334.105 134.105q0-11.44-8.68-17.11-8.68-5.669-23.33-5.669-1.857 0-3.212.1 0-10.937.803-26.44h-9.633q.752 14.248.752 34.318 0 17.26-.752 31.007h7.175q1.154 0 6.572.15 5.47.15 9.282.15 9.633 0 15.303-4.415 5.72-4.365 5.72-12.091zm-8.38-2.91q0 12.894-17.61 12.894-4.315 0-9.683-.752.35-8.179.35-25.488 1.757-.1 4.316-.1 22.628 0 22.628 13.446z" style="font-variant:normal;font-weight:700;font-stretch:normal;font-size:medium;font-family:Candara;writing-mode:lr-tb;fill:#002156;fill-opacity:1;fill-rule:nonzero;stroke:none" transform="matrix(.54063 0 0 -.54063 -1.377 275.072)"/><path d="M32.853 386.229c43.947.785 71.04 21.115 71.04 21.115l.85.64-.023 1.065-1.18 53.834-3.668-5.65c-2.282-3.516-8.927-7.717-17.568-11.405-8.641-3.687-19.236-7.051-29.494-9.877-20.516-5.65-39.666-9.162-39.666-9.162l-5.74-1.05 5.115-2.811c11.347-6.23 17.063-10.128 19.843-12.367.954-.769 1.206-1.083 1.573-1.47-9.031-10.677-21.7-18.017-21.7-18.017l-5.562-3.136 6.344-.735a149.354 149.354 0 0 1 19.836-.974z" style="color:#000;font-style:normal;font-variant:normal;font-weight:400;font-stretch:normal;font-size:medium;font-family:sans-serif;text-indent:0;text-decoration:none;text-decoration-line:none;text-decoration-style:solid;text-decoration-color:#000;letter-spacing:normal;word-spacing:normal;text-transform:none;writing-mode:lr-tb;direction:ltr;baseline-shift:baseline;text-anchor:start;clip-rule:nonzero;display:inline;overflow:visible;visibility:visible;opacity:1;color-interpolation:sRGB;fill:#fff;fill-opacity:1;fill-rule:nonzero;stroke:none;stroke-width:4.15088797;stroke-linecap:butt;stroke-linejoin:miter;stroke-miterlimit:4;stroke-dasharray:none;stroke-dashoffset:0;stroke-opacity:1;color-rendering:auto;image-rendering:auto;shape-rendering:auto;text-rendering:auto;enable-background:accumulate" transform="matrix(.54063 0 0 -.54063 -1.377 275.072)"/><path d="M32.773 390.365c-4.276-.071-8.776.133-13.377.479 4.849 3.154 12.162 8.363 18.925 16.867l.535.672-.095.851s-.047.282-.09.42a2.956 2.956 0 0 1-.166.416c-.136.28-.32.572-.588.912-.534.68-1.399 1.56-2.951 2.811-2.554 2.057-7.832 5.478-15.707 10.002 5.936 1.159 18.471 3.697 34.654 8.154 10.365 2.855 21.092 6.25 30.02 10.06 6.432 2.746 11.89 5.624 15.717 8.923l.894-40.811c-1.964-1.435-26.8-19.07-67.771-19.756z" style="color:#000;font-style:normal;font-variant:normal;font-weight:400;font-stretch:normal;font-size:medium;font-family:sans-serif;text-indent:0;text-decoration:none;text-decoration-line:none;text-decoration-style:solid;text-decoration-color:#000;letter-spacing:normal;word-spacing:normal;text-transform:none;writing-mode:lr-tb;direction:ltr;baseline-shift:baseline;text-anchor:start;clip-rule:nonzero;display:inline;overflow:visible;visibility:visible;opacity:1;color-interpolation:sRGB;fill:#002156;fill-opacity:1;fill-rule:nonzero;stroke:none;stroke-width:4.15088797;stroke-linecap:butt;stroke-linejoin:miter;stroke-miterlimit:4;stroke-dasharray:none;stroke-dashoffset:0;stroke-opacity:1;color-rendering:auto;image-rendering:auto;shape-rendering:auto;text-rendering:auto;enable-background:accumulate" transform="matrix(.54063 0 0 -.54063 -1.377 275.072)"/><path d="m100.544 410.12-21.347 11.763" style="fill:none;fill-rule:evenodd;stroke:#fff;stroke-width:4;stroke-linecap:butt;stroke-linejoin:miter;stroke-miterlimit:4;stroke-dasharray:none;stroke-opacity:1" transform="matrix(.54063 0 0 -.54063 -1.377 275.072)"/><path d="M529.424 386.229c-43.947.785-71.041 21.115-71.041 21.115l-.85.64.024 1.065 1.18 53.834 3.667-5.65c2.283-3.516 8.928-7.717 17.569-11.405 8.64-3.687 19.236-7.051 29.494-9.877 20.516-5.65 39.666-9.162 39.666-9.162l5.74-1.05-5.115-2.811c-11.348-6.23-17.064-10.128-19.844-12.367-.954-.769-1.206-1.083-1.572-1.47 9.03-10.677 21.699-18.017 21.699-18.017l5.562-3.136-6.343-.735a149.354 149.354 0 0 0-19.836-.974z" style="color:#000;font-style:normal;font-variant:normal;font-weight:400;font-stretch:normal;font-size:medium;font-family:sans-serif;text-indent:0;text-decoration:none;text-decoration-line:none;text-decoration-style:solid;text-decoration-color:#000;letter-spacing:normal;word-spacing:normal;text-transform:none;writing-mode:lr-tb;direction:ltr;baseline-shift:baseline;text-anchor:start;clip-rule:nonzero;display:inline;overflow:visible;visibility:visible;opacity:1;color-interpolation:sRGB;fill:#fff;fill-opacity:1;fill-rule:nonzero;stroke:none;stroke-width:4.15088797;stroke-linecap:butt;stroke-linejoin:miter;stroke-miterlimit:4;stroke-dasharray:none;stroke-dashoffset:0;stroke-opacity:1;color-rendering:auto;image-rendering:auto;shape-rendering:auto;text-rendering:auto;enable-background:accumulate" transform="matrix(.54063 0 0 -.54063 -1.377 275.072)"/><path d="M529.504 390.365c4.275-.071 8.775.133 13.377.479-4.85 3.154-12.162 8.363-18.926 16.867l-.535.672.096.851s.047.282.09.42c.042.139.098.276.165.416.136.28.321.572.588.912.535.68 1.399 1.56 2.952 2.811 2.554 2.057 7.832 5.478 15.707 10.002-5.936 1.159-18.472 3.697-34.655 8.154-10.364 2.855-21.091 6.25-30.02 10.06-6.431 2.746-11.89 5.624-15.716 8.923l-.895-40.811c1.965-1.435 26.8-19.07 67.772-19.756z" style="color:#000;font-style:normal;font-variant:normal;font-weight:400;font-stretch:normal;font-size:medium;font-family:sans-serif;text-indent:0;text-decoration:none;text-decoration-line:none;text-decoration-style:solid;text-decoration-color:#000;letter-spacing:normal;word-spacing:normal;text-transform:none;writing-mode:lr-tb;direction:ltr;baseline-shift:baseline;text-anchor:start;clip-rule:nonzero;display:inline;overflow:visible;visibility:visible;opacity:1;color-interpolation:sRGB;fill:#002156;fill-opacity:1;fill-rule:nonzero;stroke:none;stroke-width:4.15088797;stroke-linecap:butt;stroke-linejoin:miter;stroke-miterlimit:4;stroke-dasharray:none;stroke-dashoffset:0;stroke-opacity:1;color-rendering:auto;image-rendering:auto;shape-rendering:auto;text-rendering:auto;enable-background:accumulate" transform="matrix(.54063 0 0 -.54063 -1.377 275.072)"/><path d="m461.732 410.12 19.714 11.037" style="fill:none;fill-rule:evenodd;stroke:#fff;stroke-width:4;stroke-linecap:butt;stroke-linejoin:miter;stroke-miterlimit:4;stroke-dasharray:none;stroke-opacity:1" transform="matrix(.54063 0 0 -.54063 -1.377 275.072)"/><path d="m482.354 419.252-2.772.986s-151.197 53.881-398.855-.072l-2.518-.549v61.067l1.527.418s211.937 58.164 401.15-.018l1.468-.451v-61.381z" style="color:#000;font-style:normal;font-variant:normal;font-weight:400;font-stretch:normal;font-size:medium;font-family:sans-serif;text-indent:0;text-decoration:none;text-decoration-line:none;text-decoration-style:solid;text-decoration-color:#000;letter-spacing:normal;word-spacing:normal;text-transform:none;writing-mode:lr-tb;direction:ltr;baseline-shift:baseline;text-anchor:start;clip-rule:nonzero;display:inline;overflow:visible;visibility:visible;opacity:1;color-interpolation:sRGB;fill:#fff;fill-opacity:1;fill-rule:nonzero;stroke:none;stroke-width:4.15088797;stroke-linecap:butt;stroke-linejoin:miter;stroke-miterlimit:4;stroke-dasharray:none;stroke-dashoffset:0;stroke-opacity:1;color-rendering:auto;image-rendering:auto;shape-rendering:auto;text-rendering:auto;enable-background:accumulate" transform="matrix(.54063 0 0 -.54063 -1.377 275.072)"/><path d="M82.361 424.715c234.846 50.59 381.748 4.99 395.84.308v52.516c-183.472 55.796-387.587 2.155-395.84-.057v-52.767z" style="color:#000;font-style:normal;font-variant:normal;font-weight:400;font-stretch:normal;font-size:medium;font-family:sans-serif;text-indent:0;text-decoration:none;text-decoration-line:none;text-decoration-style:solid;text-decoration-color:#000;letter-spacing:normal;word-spacing:normal;text-transform:none;writing-mode:lr-tb;direction:ltr;baseline-shift:baseline;text-anchor:start;clip-rule:nonzero;display:inline;overflow:visible;visibility:visible;opacity:1;color-interpolation:sRGB;fill:#002156;fill-opacity:1;fill-rule:nonzero;stroke:none;stroke-width:4.15088797;stroke-linecap:butt;stroke-linejoin:miter;stroke-miterlimit:4;stroke-dasharray:none;stroke-dashoffset:0;stroke-opacity:1;color-rendering:auto;image-rendering:auto;shape-rendering:auto;text-rendering:auto;enable-background:accumulate" transform="matrix(.54063 0 0 -.54063 -1.377 275.072)"/><path d="M51.475 411.414c-.157.001-.32.023-.493.07-.14.04-.305.087-.494.145-.188.057-.316.094-.383.113l-.474.131c.152.466.32 1.026.498 1.68.195.71.35 1.331.47 1.861l.766-.209c-.172-.554-.306-1-.398-1.342.036-.006.097-.02.183-.043.468-.128.834-.34 1.1-.635.265-.295.34-.66.22-1.093-.087-.318-.27-.52-.55-.612a1.402 1.402 0 0 0-.445-.066zm-.25.594c.31-.007.504.135.584.426.115.42-.158.72-.82.902-.06.016-.113.028-.159.037a21.015 21.015 0 0 0-.35-1.156 2.24 2.24 0 0 1 .397-.153c.129-.035.244-.054.348-.056zM54.71 410.6a2.573 2.573 0 0 0-.562.076c-.148.035-.31.077-.482.125-.174.047-.289.077-.344.09l-.474.113c.136.464.284 1.029.441 1.695.166.694.303 1.318.41 1.875l.762-.18a45.46 45.46 0 0 1-.363-1.417l.304-.077c.253-.06.454-.027.604.098.149.125.407.485.773 1.082l.813-.193c-.386-.575-.678-.965-.873-1.168-.197-.204-.392-.31-.588-.317l-.01-.04c.436-.294.599-.667.49-1.124-.102-.43-.402-.643-.9-.638zm-.267.59c.28.005.453.145.518.417.096.404-.147.676-.729.815-.07.017-.154.035-.255.056a16.854 16.854 0 0 0-.295-1.101c.126-.058.274-.107.445-.149a1.28 1.28 0 0 1 .316-.039z" style="fill:#fff;fill-opacity:1;fill-rule:nonzero;stroke:none" transform="matrix(3.25822 0 0 3.25822 -113.065 -1317.057)"/><path d="M46.154 89.07c-.066.259-.13.538-.192.837.313.065.644.126.992.183l-.096.462a21.958 21.958 0 0 0-.983-.23c-.057.279-.115.519-.172.72.36.075.763.146 1.21.215l-.077.488-1.794-.372c.098-.374.202-.83.314-1.366.116-.558.21-1.062.283-1.511l1.88.39-.083.49c-.45-.12-.879-.221-1.282-.305M49.407 90.68c-.148.099-.358.177-.63.233-.255.053-.424.099-.505.139a.299.299 0 0 0-.166.22c-.034.186.123.312.473.375.232.043.455.046.668.01l-.008.508a3.132 3.132 0 0 1-.744-.06c-.354-.065-.612-.187-.774-.364a.724.724 0 0 1-.174-.65.781.781 0 0 1 .317-.513c.135-.097.33-.175.581-.233.278-.062.465-.12.562-.172a.353.353 0 0 0 .198-.257c.02-.11-.018-.195-.113-.26s-.26-.12-.498-.162a2.116 2.116 0 0 0-.702 0l-.018-.515c.255-.023.524-.01.807.042.831.152 1.194.518 1.088 1.096a.83.83 0 0 1-.362.563M49.696 92.27l.058-.483c.362.08.648.138.857.17a44.607 44.607 0 0 0 .366-2.46l.624.099c-.09.475-.179.979-.263 1.514a93.25 93.25 0 0 0-.143.939c.263.042.545.075.846.099l-.06.482z" style="fill:#fff;fill-opacity:1;fill-rule:nonzero;stroke:none" transform="matrix(4.07278 0 0 -4.07278 -113.065 391.589)"/><path d="M67.545 408.238a1.903 1.903 0 0 0-.358.012 1.719 1.719 0 0 0-1.232.728c-.304.42-.42.916-.348 1.489.067.534.286.953.663 1.258a1.65 1.65 0 0 0 1.3.365 1.718 1.718 0 0 0 1.23-.727c.305-.421.422-.916.35-1.49-.066-.535-.287-.956-.662-1.26a1.636 1.636 0 0 0-.943-.375zm-.358.63a.929.929 0 0 1 .784.27c.23.218.369.523.418.913.046.371-.011.692-.17.96-.16.27-.378.42-.65.454-.292.036-.552-.055-.782-.274-.231-.217-.372-.521-.42-.91-.047-.372.01-.692.17-.96s.378-.419.65-.454z" style="fill:#fff;fill-opacity:1;fill-rule:nonzero;stroke:none" transform="matrix(3.25822 0 0 3.25822 -113.065 -1317.057)"/><path d="M58.238 91.923a26.318 26.318 0 0 0-.1 1.398l-.562-.053c.062-.425.111-.84.15-1.246.025-.265.071-.563.14-.893l-.035-.003c-.078.204-.342.58-.792 1.133-.422.519-.637.818-.645.897l-.667-.063c.06-.381.114-.845.166-1.392.053-.555.09-1.066.111-1.533l.553.053a35.85 35.85 0 0 0-.16 1.349c-.025.265-.07.56-.14.884l.036.004c.081-.222.367-.622.857-1.2.467-.548.704-.852.71-.914l.555.053c-.064.454-.123.963-.177 1.526M62.38 92.159a25.498 25.498 0 0 0-.035 1.402l-.563-.027c.041-.427.071-.844.09-1.251.012-.266.044-.566.095-.9l-.034-.001c-.068.208-.313.598-.736 1.17-.397.539-.597.848-.6.928l-.67-.031c.04-.384.073-.85.098-1.4.026-.556.04-1.068.038-1.535l.554.025a34.46 34.46 0 0 0-.094 1.356 8.06 8.06 0 0 1-.098.89l.036.002c.071-.226.337-.64.798-1.24.441-.57.662-.885.665-.947l.557.026c-.042.457-.076.968-.102 1.533" style="fill:#fff;fill-opacity:1;fill-rule:nonzero;stroke:none" transform="matrix(4.07278 0 0 -4.07278 -113.065 391.589)"/><path d="M80.523 407.318c-.52.005-.954.2-1.304.584-.349.384-.52.864-.514 1.442.006.537.178.979.516 1.324.338.345.757.514 1.254.508.52-.005.956-.2 1.304-.584.35-.384.522-.863.516-1.44-.006-.54-.179-.984-.518-1.328a1.66 1.66 0 0 0-1.254-.506zm-.068.612c.295-.004.546.117.75.36.204.24.308.558.313.952.003.374-.091.685-.28.934-.188.25-.42.376-.693.379-.294.004-.543-.116-.748-.36-.205-.242-.31-.56-.315-.95-.005-.377.088-.688.278-.936.189-.25.42-.376.695-.38zM83.012 407.389c.015.483.014 1.068.002 1.752-.015.712-.04 1.352-.075 1.92l.784.015c-.008-.494-.006-.98.004-1.465.098.001.203.001.312.004.26.005.447.087.56.244.113.16.272.575.477 1.245l.836.017c-.23-.654-.414-1.105-.553-1.351-.137-.247-.301-.397-.49-.453l.002-.043c.495-.175.747-.496.756-.963.013-.59-.413-.895-1.275-.912-.153-.004-.318-.002-.498 0H83.5l-.488-.01zm1.181.54c.482.01.72.201.713.575-.009.416-.311.617-.91.605-.071-.002-.16-.005-.262-.01.01-.468.006-.849-.01-1.14.137-.024.293-.033.47-.03z" style="fill:#fff;fill-opacity:1;fill-rule:nonzero;stroke:none" transform="matrix(3.25822 0 0 3.25822 -113.065 -1317.057)"/><path d="m69.002 93.562-.044-.486c.37.004.662 0 .873-.01a44.501 44.501 0 0 0-.15-2.482l.63-.034c.01.483.027.995.056 1.536.02.349.037.665.055.949.266-.015.548-.041.848-.08l.041.484zM73.983 91.823c.045.55.093 1.015.145 1.394l-.636.052c-.02-.465-.042-.856-.068-1.172l-1.143.092c.03.359.07.748.122 1.168l-.637.05c-.012-.4-.04-.866-.083-1.398a38.923 38.923 0 0 0-.154-1.53l.637-.051c.028.535.055.966.082 1.293l1.133-.092a39.638 39.638 0 0 0-.127-1.29l.637-.05c.015.448.046.96.092 1.534M76.208 90.475c.023.265.055.549.096.852a22.4 22.4 0 0 0 .996-.156l.063.468c-.357.03-.692.067-1.003.108.037.282.063.528.075.737.364-.05.768-.115 1.212-.198l.091.486-1.817.243a35.926 35.926 0 0 0-.389-2.912l1.904-.254.083.489c-.465.037-.902.082-1.31.137M80.556 90.899c.092.553.178 1.012.26 1.377l-.556.092c-.05-.426-.108-.841-.174-1.243a8.555 8.555 0 0 1-.095-.9l-.033.007c-.023.217-.182.649-.475 1.297-.276.61-.407.955-.394 1.033l-.662.11c-.04-.384-.105-.846-.195-1.388a31.114 31.114 0 0 0-.285-1.511l.548-.09c.066.53.13.978.191 1.345.043.263.073.559.09.89l.036-.005c.022-.236.196-.695.522-1.38.311-.648.462-1.004.452-1.064l.55-.091c.054.456.127.963.22 1.52" style="fill:#fff;fill-opacity:1;fill-rule:nonzero;stroke:none" transform="matrix(4.07278 0 0 -4.07278 -113.065 391.589)"/><path d="M101.967 409.254a35.388 35.388 0 0 1-.322 1.723 43.866 43.866 0 0 1-.428 1.873c.474.122.846.21 1.119.267.604.126 1.115.03 1.531-.29.416-.322.679-.744.787-1.266a1.743 1.743 0 0 0-.199-1.286c-.23-.393-.677-.66-1.342-.798-.047-.01-.15-.03-.308-.057a10.023 10.023 0 0 1-.354-.064l-.484-.102Zm.588.707c.14.012.251.029.33.045.424.087.712.273.867.558.156.285.199.606.125.96-.074.353-.232.632-.475.837-.24.207-.56.27-.955.186a1.798 1.798 0 0 1-.351-.111c.071-.437.153-.875.244-1.315.084-.401.156-.788.215-1.16z" style="fill:#fff;fill-opacity:1;fill-rule:nonzero;stroke:none" transform="matrix(3.25822 0 0 3.25822 -113.065 -1317.057)"/><path d="M85.61 91.217a36.088 36.088 0 0 0-.75-2.84l.601-.16c.082.366.178.755.287 1.166.276-.073.593-.164.95-.272l.12.452c-.36.079-.68.156-.962.23.08.303.143.58.19.835a26.37 26.37 0 0 0 1.224-.361l.145.473zM88.605 87.77c-.305.094-.512.265-.62.515-.11.25-.123.51-.04.78.08.266.22.469.418.61.2.142.445.169.737.08.155-.047.31-.124.463-.23l.227.475a2.087 2.087 0 0 1-.48.212c-.478.146-.9.11-1.265-.106a1.581 1.581 0 0 1-.732-.93 1.45 1.45 0 0 1 .085-1.112c.175-.351.51-.602 1.004-.752.198-.061.407-.097.626-.111l.188.486a2.18 2.18 0 0 0-.61.084" style="fill:#fff;fill-opacity:1;fill-rule:nonzero;stroke:none" transform="matrix(4.07278 0 0 -4.07278 -113.065 391.589)"/><path d="m458.736 43.148-1.203 54.897.85.64s35.387 26.555 90.877 20.141l6.344-.734-5.563-3.135s-12.668-7.342-21.7-18.02c.367-.386.62-.7 1.573-1.468 2.78-2.24 8.496-6.137 19.844-12.367l5.115-2.809-5.74-1.053s-19.15-3.511-39.666-9.162c-10.258-2.825-20.853-6.187-29.494-9.875-8.641-3.687-15.286-7.888-17.569-11.404z" style="color:#000;font-style:normal;font-variant:normal;font-weight:400;font-stretch:normal;font-size:medium;font-family:sans-serif;text-indent:0;text-decoration:none;text-decoration-line:none;text-decoration-style:solid;text-decoration-color:#000;letter-spacing:normal;word-spacing:normal;text-transform:none;writing-mode:lr-tb;direction:ltr;baseline-shift:baseline;text-anchor:start;clip-rule:nonzero;display:inline;overflow:visible;visibility:visible;opacity:1;color-interpolation:sRGB;fill:#fff;fill-opacity:1;fill-rule:nonzero;stroke:none;stroke-width:4.15088797;stroke-linecap:butt;stroke-linejoin:miter;stroke-miterlimit:4;stroke-dasharray:none;stroke-dashoffset:0;stroke-opacity:1;color-rendering:auto;image-rendering:auto;shape-rendering:auto;text-rendering:auto;enable-background:accumulate" transform="matrix(.54063 0 0 -.54063 -1.377 275.072)"/><path d="M462.627 55.1c3.826 3.299 9.285 6.175 15.717 8.92 8.928 3.81 19.655 7.205 30.02 10.06 16.18 4.457 28.715 6.997 34.652 8.156-7.874 4.524-13.152 7.943-15.705 10-1.553 1.25-2.417 2.13-2.952 2.81-.267.341-.452.633-.588.913-.067.14-.123.277-.166.416-.042.139-.09.42-.09.42l-.095.851.535.672c6.764 8.504 14.077 13.715 18.926 16.87-48.7 3.662-78.979-17.694-81.149-19.278l.895-40.81Z" style="color:#000;font-style:normal;font-variant:normal;font-weight:400;font-stretch:normal;font-size:medium;font-family:sans-serif;text-indent:0;text-decoration:none;text-decoration-line:none;text-decoration-style:solid;text-decoration-color:#000;letter-spacing:normal;word-spacing:normal;text-transform:none;writing-mode:lr-tb;direction:ltr;baseline-shift:baseline;text-anchor:start;clip-rule:nonzero;display:inline;overflow:visible;visibility:visible;opacity:1;color-interpolation:sRGB;fill:#002156;fill-opacity:1;fill-rule:nonzero;stroke:none;stroke-width:4.15088797;stroke-linecap:butt;stroke-linejoin:miter;stroke-miterlimit:4;stroke-dasharray:none;stroke-dashoffset:0;stroke-opacity:1;color-rendering:auto;image-rendering:auto;shape-rendering:auto;text-rendering:auto;enable-background:accumulate" transform="matrix(.54063 0 0 -.54063 -1.377 275.072)"/><path d="m101.264 44.064-3.668 5.65c-2.283 3.517-8.928 7.718-17.569 11.405-8.64 3.688-19.236 7.052-29.494 9.877-20.516 5.65-39.666 9.162-39.666 9.162l-5.74 1.051 5.115 2.81c11.348 6.23 17.062 10.129 19.84 12.368.954.768 1.205 1.083 1.57 1.468-9.024 10.678-21.693 18.018-21.693 18.018l-5.563 3.137 6.344.734c55.49 6.414 90.877-20.14 90.877-20.14l.85-.641-.024-1.065-1.18-53.834z" style="color:#000;font-style:normal;font-variant:normal;font-weight:400;font-stretch:normal;font-size:medium;font-family:sans-serif;text-indent:0;text-decoration:none;text-decoration-line:none;text-decoration-style:solid;text-decoration-color:#000;letter-spacing:normal;word-spacing:normal;text-transform:none;writing-mode:lr-tb;direction:ltr;baseline-shift:baseline;text-anchor:start;clip-rule:nonzero;display:inline;overflow:visible;visibility:visible;opacity:1;color-interpolation:sRGB;fill:#fff;fill-opacity:1;fill-rule:nonzero;stroke:none;stroke-width:4.15088797;stroke-linecap:butt;stroke-linejoin:miter;stroke-miterlimit:4;stroke-dasharray:none;stroke-dashoffset:0;stroke-opacity:1;color-rendering:auto;image-rendering:auto;shape-rendering:auto;text-rendering:auto;enable-background:accumulate" transform="matrix(.54063 0 0 -.54063 -1.377 275.072)"/><path d="m97.373 56.018.895 40.808c-2.17 1.584-32.449 22.94-81.149 19.278 4.85-3.155 12.161-8.364 18.92-16.868l.531-.67-.093-.85s-.046-.28-.088-.42a2.96 2.96 0 0 0-.166-.417 5.016 5.016 0 0 0-.588-.914c-.534-.681-1.396-1.56-2.947-2.81-2.553-2.058-7.831-5.479-15.706-10.003 5.936-1.159 18.472-3.697 34.655-8.154 10.364-2.855 21.091-6.25 30.02-10.06 6.431-2.745 11.89-5.621 15.716-8.92Z" style="color:#000;font-style:normal;font-variant:normal;font-weight:400;font-stretch:normal;font-size:medium;font-family:sans-serif;text-indent:0;text-decoration:none;text-decoration-line:none;text-decoration-style:solid;text-decoration-color:#000;letter-spacing:normal;word-spacing:normal;text-transform:none;writing-mode:lr-tb;direction:ltr;baseline-shift:baseline;text-anchor:start;clip-rule:nonzero;display:inline;overflow:visible;visibility:visible;opacity:1;color-interpolation:sRGB;fill:#002156;fill-opacity:1;fill-rule:nonzero;stroke:none;stroke-width:4.15088797;stroke-linecap:butt;stroke-linejoin:miter;stroke-miterlimit:4;stroke-dasharray:none;stroke-dashoffset:0;stroke-opacity:1;color-rendering:auto;image-rendering:auto;shape-rendering:auto;text-rendering:auto;enable-background:accumulate" transform="matrix(.54063 0 0 -.54063 -1.377 275.072)"/><path d="M289.186.283C224.214-1.418 150.074 4.052 79.119 25.87l-1.471.442v61.385l2.766-.986s151.199-53.88 398.857.074l2.516.544V26.267l-1.53-.426S397.47 3.119 289.186.283z" style="color:#000;font-style:normal;font-variant:normal;font-weight:400;font-stretch:normal;font-size:medium;font-family:sans-serif;text-indent:0;text-decoration:none;text-decoration-line:none;text-decoration-style:solid;text-decoration-color:#000;letter-spacing:normal;word-spacing:normal;text-transform:none;writing-mode:lr-tb;direction:ltr;baseline-shift:baseline;text-anchor:start;clip-rule:nonzero;display:inline;overflow:visible;visibility:visible;opacity:1;color-interpolation:sRGB;fill:#fff;fill-opacity:1;fill-rule:nonzero;stroke:none;stroke-width:.551;stroke-linecap:butt;stroke-linejoin:miter;stroke-miterlimit:4;stroke-dasharray:none;stroke-dashoffset:0;stroke-opacity:1;color-rendering:auto;image-rendering:auto;shape-rendering:auto;text-rendering:auto;enable-background:accumulate" transform="matrix(.54063 0 0 -.54063 -1.377 275.072)"/><path d="M288.98 4.477C394.83 7.25 474.894 28.762 477.638 29.504v52.778c-240.817-51.861-388.477-2.781-395.84-.25V29.49C151.72 8.225 224.814 2.795 288.98 4.477Z" style="color:#000;font-style:normal;font-variant:normal;font-weight:400;font-stretch:normal;font-size:medium;font-family:sans-serif;text-indent:0;text-decoration:none;text-decoration-line:none;text-decoration-style:solid;text-decoration-color:#000;letter-spacing:normal;word-spacing:normal;text-transform:none;writing-mode:lr-tb;direction:ltr;baseline-shift:baseline;text-anchor:start;clip-rule:nonzero;display:inline;overflow:visible;visibility:visible;opacity:1;color-interpolation:sRGB;fill:#002156;fill-opacity:1;fill-rule:nonzero;stroke:none;stroke-width:.551;stroke-linecap:butt;stroke-linejoin:miter;stroke-miterlimit:4;stroke-dasharray:none;stroke-dashoffset:0;stroke-opacity:1;color-rendering:auto;image-rendering:auto;shape-rendering:auto;text-rendering:auto;enable-background:accumulate" transform="matrix(.54063 0 0 -.54063 -1.377 275.072)"/><path d="m78.569 85.917 20.594 11.704M480.764 85.597l-20.595 11.704" style="fill:none;fill-rule:evenodd;stroke:#fff;stroke-width:4;stroke-linecap:butt;stroke-linejoin:miter;stroke-miterlimit:4;stroke-dasharray:none;stroke-opacity:1" transform="matrix(.54063 0 0 -.54063 -1.377 275.072)"/><path d="M47.333 32.727c.026.265.062.55.105.851.318-.046.65-.102.996-.168l.068.467a20.64 20.64 0 0 0-1.002.121c.041.281.07.526.084.735.363-.053.766-.123 1.21-.212l.095.485-1.813.264a27.744 27.744 0 0 0-.173-1.39 35.467 35.467 0 0 0-.25-1.517l1.9-.277.09.49c-.466.041-.902.091-1.31.151M50.931 33.224c-.112.14-.289.276-.532.41-.228.127-.375.221-.44.284a.294.294 0 0 0-.094.26c.023.187.211.26.563.216.235-.028.45-.092.641-.189l.144.487a3.182 3.182 0 0 1-.728.164c-.357.044-.639.005-.847-.117a.72.72 0 0 1-.36-.567.784.784 0 0 1 .15-.585c.1-.133.261-.265.485-.396.246-.142.408-.253.484-.332a.354.354 0 0 0 .113-.305c-.013-.109-.075-.18-.185-.213-.11-.034-.285-.036-.524-.007a2.119 2.119 0 0 0-.67.21l-.17-.486a2.96 2.96 0 0 1 .781-.2c.84-.103 1.295.137 1.367.721a.84.84 0 0 1-.178.645M51.58 34.675l-.066-.484c.371-.012.662-.028.873-.049-.023-.29-.05-.605-.084-.946a35.816 35.816 0 0 0-.18-1.527l.63-.06c.03.481.072.991.125 1.53.034.347.067.662.097.945.265-.026.547-.065.844-.117l.063.482z" style="fill:#fff;fill-opacity:1;fill-rule:nonzero;stroke:none" transform="matrix(4.07278 0 0 -4.07278 -113.065 391.589)"/><path d="M68.62 481.451c-.01.115-.278.718-.802 1.81-.525 1.093-.788 1.677-.795 1.75l.846.065c.01-.132.126-.476.346-1.031l1.299.1c.126.59.184.948.175 1.072l.9.068c.008-.101-.144-.723-.454-1.871-.311-1.146-.46-1.773-.453-1.88l-1.063-.083zm.388.535.045.004c-.006.08.114.615.36 1.608l-1.026-.08c.407-.948.615-1.46.62-1.532zM71.264 481.646a36.505 36.505 0 0 1-.053 1.75c-.036.713-.08 1.352-.133 1.918.449.034.78.055.99.065 1.224.062 1.853-.28 1.891-1.027.014-.28-.06-.495-.22-.645a1.19 1.19 0 0 0-.583-.297l.002-.04c.433-.115.66-.38.682-.798.027-.54-.374-.831-1.205-.873a17.792 17.792 0 0 0-.48-.017 17.634 17.634 0 0 1-.434-.014l-.457-.022zm1.2.575c.422.022.625.2.608.535-.017.349-.325.506-.918.476a3.15 3.15 0 0 1-.224-.017c.022-.461.029-.789.017-.979.153-.021.325-.024.518-.015zm-.558 1.51c.094-.005.206-.003.336.003.655.034.974.238.955.612-.01.206-.098.347-.263.422-.167.075-.424.104-.772.086a1.372 1.372 0 0 1-.285-.038c0-.33.01-.693.03-1.085z" style="fill:#fff;fill-opacity:1;fill-rule:nonzero;stroke:none" transform="matrix(3.25822 0 0 3.25822 -113.065 -1317.057)"/><path d="M60.255 31.584c.028.265.05.624.064 1.077.02.593.043 1.06.072 1.4l-.634.02c.007-.369 0-.836-.018-1.4a34.626 34.626 0 0 0-.077-1.536l1.875-.06.034.491a27.09 27.09 0 0 0-1.316.008M62.576 32.611c.007.555.023 1.022.048 1.401l-.639.01c.015-.387.018-.854.011-1.403a35.745 35.745 0 0 0-.05-1.536l.64-.009c-.015.458-.017.97-.01 1.537M64.938 32.487c-.128.124-.32.24-.579.342-.242.097-.399.173-.47.227a.295.295 0 0 0-.126.246c0 .19.177.284.532.285.236 0 .456-.036.66-.11l.082.501c-.2.05-.448.074-.742.074-.36 0-.636-.074-.827-.22a.72.72 0 0 1-.287-.608c0-.222.074-.41.22-.56.116-.12.293-.233.53-.335.262-.11.436-.2.522-.269a.357.357 0 0 0 .15-.289c0-.11-.053-.188-.158-.235-.106-.047-.278-.07-.519-.07-.217 0-.447.041-.69.125l-.11-.504c.246-.068.513-.103.8-.102.846.001 1.268.296 1.267.884a.832.832 0 0 1-.255.618M68.031 32.67a25.714 25.714 0 0 0-.006 1.402l-.639-.018c.031-.464.051-.854.06-1.172l-1.147-.03c-.009.36-.01.75-.004 1.173l-.639-.017c.031-.399.053-.866.067-1.4.014-.528.018-1.04.012-1.537l.64.018c-.03.534-.05.966-.059 1.294l1.137.03c.01-.366.014-.797.012-1.295l.64.017a32.53 32.53 0 0 0-.074 1.535M69.393 31.651c-.025.265-.045.55-.059.855.32.016.656.024 1.008.026l-.023.471a22.72 22.72 0 0 0-1.006-.073c-.013.284-.033.53-.058.738.367.018.776.025 1.228.023l.001.495-1.83-.088c.038-.385.07-.85.096-1.398.028-.57.043-1.082.045-1.536l1.918.092-.006.496a25.39 25.39 0 0 0-1.314-.1" style="fill:#fff;fill-opacity:1;fill-rule:nonzero;stroke:none" transform="matrix(4.07278 0 0 -4.07278 -113.065 391.589)"/><path d="M90.45 481.53a3.277 3.277 0 0 0-.475.003c-.05.004-.152.016-.31.033-.16.018-.28.03-.36.036l-.494.037c.06.48.118 1.061.17 1.744.053.711.09 1.348.107 1.916.49-.014.873-.03 1.15-.05.615-.047 1.078-.282 1.389-.706.311-.423.447-.901.406-1.434a1.76 1.76 0 0 0-.549-1.181c-.247-.236-.592-.368-1.035-.399zm-.548.575c.432-.032.76.066.989.297.228.23.358.526.384.887.028.359-.045.671-.22.938-.175.263-.466.411-.87.441a1.88 1.88 0 0 1-.367-.008 32.47 32.47 0 0 1-.129-1.332c-.03-.409-.07-.8-.117-1.174a2.92 2.92 0 0 1 .33-.049z" style="fill:#fff;fill-opacity:1;fill-rule:nonzero;stroke:none" transform="matrix(3.25822 0 0 3.25822 -113.065 -1317.057)"/><path d="M75.792 32.615c-.033.342-.073.822-.117 1.44l-.278-.027-.729-.684.138-.204.344.192c.038-.273.068-.53.092-.77.023-.237.046-.549.067-.937l.6.06c-.055.391-.094.701-.117.93" style="fill:#fff;fill-opacity:1;fill-rule:nonzero;stroke:none" transform="matrix(4.07278 0 0 -4.07278 -113.065 391.589)"/><path d="M96.293 480.766c-.319.036-.574.148-.766.336a.791.791 0 0 0-.244.681c.043.359.26.624.654.795l.006.045c-.238.13-.414.302-.525.514a1.061 1.061 0 0 0-.117.629c.036.31.183.55.44.718.257.168.573.23.948.186.382-.045.683-.184.903-.422.221-.236.31-.517.273-.844-.052-.455-.35-.784-.894-.988l-.006-.045a.91.91 0 0 0 .394-.412.882.882 0 0 0 .088-.502.724.724 0 0 0-.363-.553c-.215-.128-.479-.175-.791-.138zm.023.435a.488.488 0 0 1 .368.088c.1.076.158.19.175.338.034.281-.07.5-.308.658-.41-.14-.632-.348-.664-.627a.363.363 0 0 1 .1-.306.516.516 0 0 1 .33-.15zm.053 1.565c.493.155.76.41.803.773a.534.534 0 0 1-.12.424.585.585 0 0 1-.4.205.605.605 0 0 1-.466-.123.646.646 0 0 1-.229-.45.858.858 0 0 1 .086-.486.717.717 0 0 1 .326-.343zM99.533 480.4a1.491 1.491 0 0 0-.431.002c-.32.045-.573.163-.76.356a.785.785 0 0 0-.227.685c.05.358.275.618.674.78l.006.045a1.244 1.244 0 0 0-.512.525c-.1.199-.135.41-.103.633a.948.948 0 0 0 .457.707c.261.161.58.216.953.162.38-.054.677-.202.892-.443.214-.243.3-.524.254-.848-.065-.455-.37-.779-.92-.969l-.005-.045a.919.919 0 0 0 .459-.924.72.72 0 0 0-.377-.544 1.022 1.022 0 0 0-.36-.122zm-.398.436a.462.462 0 0 1 .553.412.65.65 0 0 1-.293.668c-.414-.13-.64-.333-.678-.611a.366.366 0 0 1 .092-.31.519.519 0 0 1 .326-.16zm.09 1.562c.496.143.769.395.82.756a.532.532 0 0 1-.108.426.6.6 0 0 1-.396.217.608.608 0 0 1-.469-.113.642.642 0 0 1-.24-.444.866.866 0 0 1 .072-.49.729.729 0 0 1 .32-.352zM102.336 480.764a1.602 1.602 0 0 0-.291.021c-.424.068-.725.267-.902.598-.18.331-.227.758-.145 1.275.081.504.244.853.49 1.051.247.197.575.264.985.2.423-.07.727-.253.908-.552.18-.297.227-.712.142-1.244-.078-.491-.244-.852-.494-1.082a1.026 1.026 0 0 0-.693-.267zm-.27.566c.218-.035.392.05.522.254.129.204.22.476.275.816.093.582-.045.9-.414.96a.497.497 0 0 1-.508-.196c-.123-.164-.215-.432-.275-.805-.1-.627.033-.97.4-1.029z" style="fill:#fff;fill-opacity:1;fill-rule:nonzero;stroke:none" transform="matrix(3.25822 0 0 3.25822 -113.065 -1317.057)"/></svg>