<svg xmlns="http://www.w3.org/2000/svg" xml:space="preserve" width="85.243" height="85.243" viewBox="0 0 85.243004 85.243"><path fill="#fff" d="M85.143 42.621a42.522 42.522 0 0 1-42.522 42.522A42.522 42.522 0 0 1 .1 42.621 42.522 42.522 0 0 1 42.622.1a42.522 42.522 0 0 1 42.521 42.521z"/><path fill="#1d5ba4" d="M42.621 1.65c-10.944 0-21.232 4.263-28.971 12-7.737 7.74-12 18.027-12 28.971s4.263 21.232 12 28.971c7.739 7.74 18.027 12 28.971 12s21.232-4.26 28.971-12c7.737-7.738 12-18.027 12-28.97s-4.263-21.233-12-28.972c-7.739-7.737-18.027-12-28.971-12zm0 1.729c21.639 0 39.242 17.603 39.242 39.242S64.26 81.865 42.621 81.865 3.379 64.26 3.379 42.62 20.982 3.379 42.621 3.379z"/><path fill="#1d5ba4" d="M48.202 30.279v-1.275h-4.016s1.002 1.135 1.002 3.286v11.206a8.62 8.62 0 0 1-1.377.111c-.11 0-.219-.005-.329-.007a13.9 13.9 0 0 0 .24-2.604c0-4.989-2.374-8.014-4.366-9.674a13.422 13.422 0 0 0-2.579-1.678l.003-2.947c1.103-1.078 3.32-2.675 6.825-2.675 3.352 0 6.382 1.885 7.88 4.955a14.852 14.852 0 0 0-3.283 1.302m24.028 27.64a1.513 1.513 0 0 0-.542-.106c-.22-.002-.41.048-.41.048l.135.099c.28.205 1.16 1.023.706 2.96-.3 1.27-1.934 3.632-6.031 3.643h-.002c-.255 0-.52-.012-.787-.033a10.344 10.344 0 0 1-2.394-.497 29.77 29.77 0 0 0 2.194-2.312 6.121 6.121 0 0 1-1.58-.333 28.223 28.223 0 0 1-2.071 2.077c-1.454-.66-3.063-1.638-4.614-2.637-.621-.4-1.676-1.107-2.238-1.46-1.963-1.238-3.935-2.397-6.378-3.256V52.03c3.92.918 7.686 3.65 9.452 4.917.219.156.456.334.71.523 1.661 1.238 4.751 3.455 7.846 3.455 3.995 0 4.173-2.597 4.153-2.752 0 0-.073.087-.146.16-.225.217-.804.73-2.19.682a3.208 3.208 0 0 1-.806-.132c3.175-4.782 4.88-10.39 4.88-16.262 0-16.264-13.23-29.495-29.495-29.495S13.127 26.357 13.127 42.621s13.231 29.495 29.495 29.495c6.194 0 12.096-1.896 17.044-5.415a13.644 13.644 0 0 1-1.577-.63 27.937 27.937 0 0 1-15.466 4.652c-15.495 0-28.101-12.606-28.101-28.101S27.128 14.52 42.623 14.52s28.101 12.606 28.101 28.1a27.937 27.937 0 0 1-4.84 15.747c-1.106-.512-2.504-1.365-3.979-2.27a46.12 46.12 0 0 1-.762-.483c-2.18-1.415-3.785-2.274-5.067-2.714a5.151 5.151 0 0 0-.628-.165v-.098c6.817-.12 12.199-5.295 12.199-12.264 0-7.03-5.46-11.856-12.392-11.856-.165 0-.327.003-.487.007-1.936-3.997-6.12-6.48-11.134-6.48-2.612 0-4.938.658-6.865 1.639v-1.226h-4.017s.991.906.991 3.057l-.002 3.024a13.6 13.6 0 0 0-3.148-.379c-3.19 0-6.389 1.154-8.774 3.164-1.96 1.651-4.296 4.67-4.296 9.673 0 4.962 2.41 7.976 4.433 9.63 1.652 1.353 3.719 2.328 5.85 2.802.295-.54.553-1.129.672-1.621a6.661 6.661 0 0 1-.914-.268c-1.133-.447-1.802-1.294-1.802-2.305 0-1.489 1.075-2.019 1.801-2.019 1.021 0 2.089.685 2.13 2.68.111 5.26-5.665 8.868-6.186 9.184.516.598 1.06 1.171 1.629 1.72l.481-.258c1.964-1.073 6.531-3.65 13.112-3.608 2.064.014 3.916.31 5.582.766v-2.556a27.012 27.012 0 0 0-3.906-.294c-5.517-.035-10.049 1.627-12.83 3.064l-.037-.054c.728-.658 2.161-2.203 3.139-4.108.331 0 .722-.017 1.057-.044.128-.116.258-.265.373-.418.159-.213.505-.747.63-1.46-.441.1-.895.17-1.36.204.18-.601.295-1.22.314-1.844.047-1.638-.367-3.015-1.2-3.87-.712-.735-1.705-1.122-2.87-1.122-1.522 0-3.432 1.022-3.557 3.284-.01.203.027.657.104.847l-.072.038c-2.038-2.01-3.287-4.99-3.287-8.431 0-6.26 4.237-10.98 9.855-10.98 5.66 0 9.77 4.617 9.77 10.98 0 .723-.056 1.427-.16 2.106a10.494 10.494 0 0 1-3.49-1.99v-7.524a8.202 8.202 0 0 0-3.037-2.051v19.269c0 1.95-.995 3.096-.995 3.097h4.875s-.446-.556-.695-1.662a13.452 13.452 0 0 0 2.379-1.553 11.963 11.963 0 0 0 3.265-4.185 17.46 17.46 0 0 1-3.132-.467c-.633 1.49-1.547 2.776-2.675 3.775v-5.684a16.416 16.416 0 0 0 6.866 1.477c2.153 0 3.512-.4 4.596-.787 4.393-1.564 7.692-5.711 7.692-11.02 0-.744-.062-1.462-.18-2.153-1.064-.065-2.646.155-3.339.375.09.58.137 1.184.137 1.809 0 3.872-1.722 6.955-4.31 8.58v-9.216c1.98-1.545 3.878-2.556 7.126-2.556 4.932 0 8.852 4.015 8.852 9.86 0 5.865-4 10.2-9.265 10.2-2.658 0-4.717-.716-6.713-1.917v-2.984a14.32 14.32 0 0 1-3.027.655v11.312c0 1.952-1.002 3.098-1.002 3.098h4.992s-.577-.589-.788-1.551c1.308.576 2.996 1.619 4.133 2.355.518.333.974.653 1.414.937 3.388 2.194 6.489 4.138 11.04 4.138 2.998 0 4.899-.942 6.095-1.828 1.384-1.025 2.193-2.434 2.386-3.686.383-2.471-.968-3.135-1.243-3.245M44.425 74.669c.087-.198.254-.305.499-.321a.498.498 0 0 1 .487.245c.114.178.18.417.201.716.022.326-.022.584-.132.775-.11.19-.263.292-.459.305-.157.011-.306-.059-.447-.211-.143-.151-.224-.385-.245-.7-.024-.343.008-.613.096-.809m1.284 4.275c-.13.219-.288.335-.473.347-.212.016-.39-.08-.536-.286-.145-.206-.232-.523-.261-.953-.031-.463.01-.796.124-1 .115-.204.275-.314.482-.328.211-.015.393.074.543.266.148.192.238.508.268.949.032.451-.018.786-.147 1.005m1.21-1.712a1.328 1.328 0 0 0-.666-.644 1.36 1.36 0 0 0-.398-.108l-.004-.057c.124-.035.24-.09.35-.163a1.106 1.106 0 0 0 .457-.637c.04-.139.053-.297.04-.47a1.102 1.102 0 0 0-.488-.851 1.656 1.656 0 0 0-.564-.237 2.602 2.602 0 0 0-.777-.05c-.251.018-.479.062-.684.133s-.381.17-.529.295a1.221 1.221 0 0 0-.335.444 1.21 1.21 0 0 0-.09.576c.01.146.044.282.104.406.061.125.136.233.228.325.09.091.196.169.315.229s.24.096.367.11l.004.056a1.522 1.522 0 0 0-.413.196 1.32 1.32 0 0 0-.335.327 1.5 1.5 0 0 0-.213.452 1.63 1.63 0 0 0-.055.586c.018.267.082.498.19.692.11.195.252.353.43.475s.383.205.62.248c.235.044.487.057.76.038.277-.019.533-.069.768-.15a1.517 1.517 0 0 0 .961-.921c.083-.222.116-.474.096-.757a1.393 1.393 0 0 0-.14-.543m-13.747-4.067a20.75 20.75 0 0 1-1.295.123c.036.05.08.129.131.237.05.11.094.21.129.305a4.79 4.79 0 0 0 .276-.042l.301-.058c.099-.02.192-.037.275-.052s.147-.026.188-.031l-.641 2.215c-.064.22-.132.435-.202.647s-.136.414-.2.603-.122.36-.178.513l-.13.355c.108.02.213.044.316.074l.31.09.306.089c.1.029.2.064.301.104.097-.387.182-.728.259-1.023s.156-.581.236-.86l.173-.596.14-.479c.057-.199.119-.402.185-.61s.132-.412.199-.615l.196-.586c.062-.189.122-.36.179-.514l-.132-.106c-.468.091-.91.164-1.322.217m20.186 4.377a2.7 2.7 0 0 1-.054-.262 9.897 9.897 0 0 0-.046-.262c-.374.124-.743.235-1.109.335l-1.116.302-.013-.013c.36-.51.649-.948.865-1.32.218-.37.38-.694.487-.972s.166-.517.182-.721c.015-.204 0-.393-.044-.568a1.503 1.503 0 0 0-.203-.45 1.162 1.162 0 0 0-.407-.367 1.6 1.6 0 0 0-.655-.183c-.261-.023-.575.012-.938.105-.465.12-.808.31-1.027.574-.22.265-.34.551-.362.861l.374.17c.12.057.246.122.378.195l.073-.045a2.397 2.397 0 0 1-.06-.363 1.35 1.35 0 0 1 .024-.408.922.922 0 0 1 .156-.36.577.577 0 0 1 .336-.217c.101-.025.204-.03.309-.015s.207.057.307.127c.1.071.19.173.272.306.082.134.15.31.206.525.066.26.094.528.08.808a3.393 3.393 0 0 1-.181.906 6.953 6.953 0 0 1-.47 1.069c-.204.388-.463.819-.774 1.291l.085.334c.282-.084.566-.163.851-.235l.855-.219.888-.227c.29-.074.587-.145.89-.212-.024-.072-.05-.15-.08-.232s-.057-.168-.08-.258m-13.898-2.263c-.039.325-.129.57-.273.737-.142.168-.312.239-.506.216-.157-.018-.291-.115-.402-.29s-.15-.42-.112-.733c.04-.342.122-.6.244-.778s.306-.252.55-.224a.5.5 0 0 1 .434.332c.079.195.1.442.065.74m-.244 2.63c-.052.448-.164.77-.331.96s-.344.277-.528.255c-.212-.024-.37-.152-.475-.38-.103-.23-.13-.558-.08-.985.054-.46.155-.78.305-.96s.33-.258.534-.234c.211.025.373.145.485.361.111.216.141.544.09.983m1.019-3.51c-.131-.132-.301-.243-.513-.337s-.463-.157-.755-.192c-.25-.029-.48-.028-.696.005s-.406.096-.574.191c-.168.096-.305.221-.41.376s-.172.338-.197.55c-.018.145-.008.285.029.418a1.204 1.204 0 0 0 .43.644c.106.08.22.14.342.176l-.007.056c-.15.015-.297.055-.442.118s-.273.148-.388.258-.213.245-.295.405a1.7 1.7 0 0 0-.162.567c-.03.265-.01.502.06.715.072.21.183.392.335.545s.34.272.564.358c.223.087.469.145.74.178.276.032.536.03.783-.006a1.511 1.511 0 0 0 1.115-.729c.122-.203.2-.445.233-.726.024-.205.012-.393-.037-.56s-.119-.314-.211-.44-.202-.232-.325-.315a1.412 1.412 0 0 0-.37-.179l.006-.058c.127-.01.252-.043.374-.095.12-.052.23-.122.325-.213.096-.09.176-.2.24-.329.065-.13.108-.281.128-.455.02-.168.004-.331-.048-.491a1.108 1.108 0 0 0-.274-.435"/><path fill="#1d5ba4" d="M21.992 13.736c.169.261.357.443.566.544.209.102.425.161.65.177.225.018.454.008.684-.029.23-.035.448-.06.654-.072.206-.014.395.003.566.046a.723.723 0 0 1 .426.328c.125.192.166.4.125.621s-.2.421-.474.599c-.137.09-.273.15-.408.182a1.026 1.026 0 0 1-.732-.091 1.063 1.063 0 0 1-.287-.219l-.13.085c.077.17.144.333.199.485.053.154.108.327.167.515.15.013.34-.017.569-.091.229-.072.466-.19.712-.35.275-.177.5-.374.677-.589s.3-.441.372-.68.09-.481.055-.727a1.79 1.79 0 0 0-.276-.711c-.17-.262-.36-.442-.57-.542a1.816 1.816 0 0 0-.664-.175 3.197 3.197 0 0 0-.691.03c-.231.035-.453.06-.664.074s-.404.001-.576-.04a.691.691 0 0 1-.424-.315.686.686 0 0 1-.081-.561.863.863 0 0 1 .395-.519c.406-.264.811-.246 1.212.053l.103-.068-.129-.446a4.434 4.434 0 0 1-.091-.375 1.78 1.78 0 0 0-.638.062 2.563 2.563 0 0 0-.706.332c-.205.133-.38.29-.524.476a1.764 1.764 0 0 0-.308.599c-.062.215-.075.442-.042.68s.128.475.283.712m-5.666 4.985a59.521 59.521 0 0 1 1.719 1.88c.252.29.466.536.64.739.173.204.272.325.295.364.082-.095.168-.185.258-.273l.135-.131a1.22 1.22 0 0 1 .153-.124 20.426 20.426 0 0 1-.872-.839 100.17 100.17 0 0 1-.583-.597l-.659-.683a27.654 27.654 0 0 1-.654-.699c1.826.078 3.598.198 5.314.358a3.166 3.166 0 0 1 .47-.454l-.681-.706a115.1 115.1 0 0 1-.768-.799 54.612 54.612 0 0 1-.715-.77c-.237-.262-.49-.544-.757-.842-.266-.3-.561-.638-.886-1.013-.092.125-.17.22-.237.285a2.31 2.31 0 0 1-.293.226c.046.032.127.102.242.21.116.108.25.24.404.394s.321.324.502.509c.182.184.367.372.552.564l.55.571.495.511c-.898-.05-1.777-.102-2.637-.159-.86-.055-1.733-.113-2.618-.175a2.18 2.18 0 0 1-.237.285c-.066.065-.165.14-.292.227.14.137.302.293.489.471.186.176.408.4.67.67M36.693 5.92l-.149.055a.912.912 0 0 1-.15.037.87.87 0 0 1-.156.015c-.049 0-.103 0-.158-.002-.067.327-.139.679-.221 1.059l-.248 1.152c-.086.392-.172.778-.258 1.16l-.244 1.075c-.075.333-.144.633-.21.898-.064.266-.118.474-.16.625.074-.024.145-.041.21-.053l.191-.03c.065-.012.127-.024.19-.034.06-.011.125-.016.191-.018a18.673 18.673 0 0 1 .27-1.72 24.333 24.333 0 0 1 .834-.158 24.798 24.798 0 0 1 1.035-.163c.148.257.293.514.431.772l.405.762c.11-.032.223-.057.34-.077.114-.018.229-.04.341-.06l.344-.057a4.3 4.3 0 0 1 .37-.047 18.64 18.64 0 0 1-.714-1.056 86.86 86.86 0 0 1-1.68-2.762l-.804-1.373zm-.346 1.66c.185.3.36.598.53.893.17.294.341.595.515.902l-1.473.252a33.918 33.918 0 0 1 .428-2.047zm-4.273-.484c-.225.014-.521.08-.889.203-.186.061-.374.131-.564.209s-.376.145-.557.205a5.232 5.232 0 0 1-.648.172 35.79 35.79 0 0 1 .771 2.129l.352 1.056c.142.43.263.811.363 1.149.1.336.194.668.28.996.084-.039.177-.076.28-.11.103-.034.221-.071.35-.115l.35-.115c.102-.035.2-.061.29-.08a24.114 24.114 0 0 1-.427-1.127 57.18 57.18 0 0 1-.397-1.156l.395-.133c.29-.096.547-.215.77-.357.222-.144.4-.31.535-.5s.216-.41.244-.655a1.881 1.881 0 0 0-.104-.808c-.077-.233-.182-.419-.314-.559s-.305-.25-.514-.33a1.254 1.254 0 0 0-.566-.074zm-.63.668c.115.002.22.033.323.088a.893.893 0 0 1 .285.261c.088.12.166.279.23.475.083.249.113.461.09.635a.921.921 0 0 1-.49.72c-.127.072-.256.13-.384.172a148.472 148.472 0 0 1-.707-2.186.289.289 0 0 1 .068-.03c.025-.01.05-.02.076-.028l.18-.058a.957.957 0 0 1 .33-.05zm-18.141 16.04.912.636a35.247 35.247 0 0 1 1.804 1.329c.02-.039.048-.085.081-.138.034-.053.085-.13.155-.231.072-.1.164-.232.28-.399l.463-.662c.215-.309.385-.551.511-.726.125-.175.231-.32.321-.44a.507.507 0 0 1-.115-.05c-.043-.022-.1-.06-.172-.11a1.762 1.762 0 0 1-.283-.237 14.86 14.86 0 0 1-.985 1.597 26.235 26.235 0 0 1-1.279-.867 32.969 32.969 0 0 0-.426-.303 23.38 23.38 0 0 1 1.123-1.48c-.078-.042-.139-.072-.181-.092s-.082-.042-.118-.067c-.044-.03-.085-.063-.122-.095s-.09-.083-.155-.149c-.165.264-.325.518-.48.758a40.59 40.59 0 0 1-.53.802l-.728-.514c-.24-.171-.476-.351-.709-.54a21.573 21.573 0 0 1 .474-.621l.34-.431c.116-.148.224-.284.324-.406a2.766 2.766 0 0 1-.149-.074c-.042-.024-.1-.06-.172-.11a1.558 1.558 0 0 1-.263-.224 9.972 9.972 0 0 1-.339.536 47.14 47.14 0 0 1-.605.889c-.14.2-.283.396-.43.586-.146.192-.292.385-.436.583a40.217 40.217 0 0 1 1.889 1.25m.446 6.25c.025-.058.064-.141.118-.253l.21-.437.353-.729c.163-.339.293-.604.39-.797.095-.193.178-.354.247-.484-.034-.004-.075-.015-.122-.031s-.108-.044-.187-.082a1.83 1.83 0 0 1-.316-.19c-.104.302-.215.597-.337.883-.12.286-.247.57-.382.85a20.273 20.273 0 0 1-.931-.423c-.157-.076-.314-.152-.47-.231a32.723 32.723 0 0 0-.47-.231 23.23 23.23 0 0 1 .875-1.639c-.084-.028-.148-.049-.194-.061a.755.755 0 0 1-.126-.048 1.389 1.389 0 0 1-.137-.075 3.371 3.371 0 0 1-.177-.122 46.679 46.679 0 0 1-.748 1.7c-.27-.13-.537-.262-.8-.392s-.526-.27-.787-.42c.026-.055.072-.143.139-.27.067-.125.143-.265.23-.42.087-.153.176-.313.268-.478l.255-.453a2.016 2.016 0 0 1-.346-.131 1.478 1.478 0 0 1-.295-.179c-.037.104-.12.298-.249.584-.13.285-.28.61-.456.972-.107.222-.217.438-.332.65-.114.21-.227.424-.338.643a39.908 39.908 0 0 1 2.064.934l1.001.483c.406.197.766.375 1.079.537.312.162.616.325.912.488a2.54 2.54 0 0 1 .06-.148m-5.14 7.911c-.49-.022-.92.04-1.294.186-.375.144-.69.349-.942.615a2.788 2.788 0 0 0-.582.957c-.137.37-.213.774-.232 1.209-.021.474.034.906.17 1.299a2.838 2.838 0 0 0 1.486 1.691c.348.165.723.258 1.125.276.508.022.947-.038 1.322-.186.375-.147.687-.354.936-.62.25-.263.438-.575.563-.935s.195-.739.212-1.136c.155-.288.316-.618.428-.813s.216-.409.326-.588c.087-.143.182-.304.27-.441-.1-.154-.172-.33-.254-.545-.093-.244-.182-.58-.203-.643-.026.078-.103.37-.145.493-.068.2-.139.446-.236.726-.078.223-.16.431-.256.662-.1-.331-.235-.63-.406-.894a2.952 2.952 0 0 0-.604-.68c-.23-.19-.49-.34-.773-.447a2.87 2.87 0 0 0-.91-.186zm-.23 1.332c.446.02.832.087 1.155.203.32.115.584.26.789.436.205.176.354.379.447.607.094.228.136.462.125.707-.01.23-.061.446-.153.649-.09.204-.23.38-.42.53-.188.15-.436.263-.74.343-.302.079-.67.11-1.107.09a3.87 3.87 0 0 1-.979-.162 2.605 2.605 0 0 1-.789-.383 1.775 1.775 0 0 1-.52-.584 1.424 1.424 0 0 1-.165-.756 1.6 1.6 0 0 1 .67-1.26c.202-.146.445-.256.73-.33.284-.075.603-.105.957-.09zm2.088-7.983a39.449 39.449 0 0 1-1.809-.53 36.686 36.686 0 0 1-1.124-.37 4.57 4.57 0 0 1-.026.205 1.54 1.54 0 0 1-.104.386c-.026.066-.055.135-.085.206a37.902 37.902 0 0 1 2.188.521c.369.1.72.207 1.054.318.332.114.618.251.857.414.239.163.413.355.521.577.11.221.123.49.038.805-.07.258-.158.478-.263.658-.105.18-.256.316-.452.407s-.451.131-.764.12c-.314-.011-.71-.081-1.189-.21a55.081 55.081 0 0 1-1.333-.377 18.901 18.901 0 0 1-1.4-.48c-.018.11-.037.22-.06.332a4.323 4.323 0 0 1-.173.648 17.67 17.67 0 0 1-.115.316c.134.025.334.07.597.136a48.705 48.705 0 0 1 1.447.385c.13.039.267.076.408.115.143.038.297.081.462.128.165.047.352.1.562.156.374.101.708.125 1.001.071.294-.054.553-.165.778-.336.224-.171.41-.394.56-.666s.27-.578.361-.915c.205-.763.163-1.395-.129-1.897-.29-.502-.893-.876-1.808-1.123m63.322-1.795a35.797 35.797 0 0 1-2.12.726 5.383 5.383 0 0 1 .167.404l.169.456.282.759c.13.352.232.63.304.832.073.204.133.375.178.515a.576.576 0 0 1 .107-.066 2.389 2.389 0 0 1 .382-.142c.048-.012.103-.023.162-.034a15.028 15.028 0 0 1-.75-1.718c.3-.13.617-.255.949-.379.163-.06.327-.12.492-.178.164-.058.328-.118.491-.178.215.578.408 1.165.578 1.765a4.44 4.44 0 0 0 .177-.096.731.731 0 0 1 .123-.059c.05-.019.1-.034.147-.046.05-.013.12-.026.212-.044a42.208 42.208 0 0 1-.707-1.716c.28-.104.56-.206.837-.306s.558-.192.847-.275c.021.056.054.15.099.286.044.135.091.286.142.456l.16.525.15.499a1.71 1.71 0 0 1 .334-.159c.133-.05.244-.079.333-.089-.048-.098-.13-.293-.247-.585-.116-.29-.245-.625-.385-1.002-.086-.23-.165-.46-.238-.689-.073-.229-.15-.459-.23-.69-.325.141-.652.276-.978.409-.326.13-.701.275-1.126.432l-1.041.387zm-9.803-10.24c.094.085.183.172.269.265l.127.137c.045.048.085.099.122.155a23.02 23.02 0 0 1 .856-.858c.165-.157.367-.347.607-.57l.695-.646c.12-.11.238-.22.357-.325.116-.106.235-.21.355-.313a105.934 105.934 0 0 1-.46 5.303 3.42 3.42 0 0 1 .445.48l.72-.668c.286-.268.557-.518.813-.752.255-.233.517-.467.783-.7a115.038 115.038 0 0 1 1.886-1.608 2.328 2.328 0 0 1-.28-.242 2.441 2.441 0 0 1-.221-.297 2.377 2.377 0 0 1-.214.237c-.11.114-.244.247-.401.397l-.519.493c-.187.178-.379.358-.575.54l-.58.54-.521.484a346.57 346.57 0 0 1 .434-5.247 2.127 2.127 0 0 1-.28-.243 2.205 2.205 0 0 1-.222-.296c-.14.137-.3.297-.48.48-.18.181-.407.401-.682.657-.304.283-.625.572-.964.868a71.28 71.28 0 0 1-1.701 1.441c-.206.17-.329.266-.369.288m-1.644-5.162c.29-.185.585-.368.892-.55-.085.342-.174.675-.265 1.003s-.187.66-.284 1l-1.214-.876c.293-.199.583-.392.871-.577m-3.385 1.392c.068.036.129.073.182.11.053.04.106.078.16.116.052.039.103.076.155.112.05.038.098.08.146.127a18.834 18.834 0 0 1 1.418-1.014 29.334 29.334 0 0 1 .698.485c.141.102.283.205.423.31l.416.316c-.079.286-.163.569-.25.848-.088.28-.174.553-.26.82.099.06.196.122.291.19a38.263 38.263 0 0 1 .564.408c.095.07.192.145.291.232.058-.35.143-.765.256-1.248s.238-.99.373-1.521c.134-.531.276-1.069.424-1.614l.418-1.535a3.163 3.163 0 0 1-.143-.067.84.84 0 0 1-.133-.082.864.864 0 0 1-.119-.1c-.035-.036-.072-.073-.108-.113-.28.18-.583.375-.91.582-.33.206-.662.416-1 .629s-.674.422-1.01.629c-.333.205-.644.398-.937.577a42.07 42.07 0 0 1-1.345.803m10.64 7.903c-.204.312-.334.65-.39 1.018-.055.367-.034.751.065 1.154.099.401.269.802.51 1.205.185.307.399.605.64.889.24.285.499.553.773.808.036-.035.103-.083.202-.146s.208-.129.324-.199l.231-.14.356-.208c.125-.072.244-.14.357-.2s.213-.114.301-.158c.089-.044.154-.072.197-.085-.037-.041-.085-.1-.14-.177s-.135-.202-.236-.37c-.087-.144-.151-.257-.19-.338s-.069-.149-.087-.201l-.352.25a14.652 14.652 0 0 1-1.106.689 1.675 1.675 0 0 1-.22.108.51.51 0 0 1-.134-.101 1.884 1.884 0 0 1-.158-.176 5.107 5.107 0 0 1-.294-.41 1.96 1.96 0 0 1-.286-.81 1.762 1.762 0 0 1 .088-.779c.09-.25.23-.485.42-.705.192-.221.428-.415.71-.584.368-.222.72-.363 1.054-.425.335-.062.644-.065.926-.009.282.057.532.164.75.322s.394.343.523.558c.194.323.294.634.3.937.006.301-.05.59-.17.865l.059.098c.135-.05.272-.092.41-.127s.277-.071.422-.106c-.016-.334-.066-.653-.15-.955s-.231-.632-.445-.987a4.416 4.416 0 0 0-.86-1.047 3.019 3.019 0 0 0-1.054-.62 2.697 2.697 0 0 0-1.2-.109c-.423.054-.856.215-1.3.481-.36.217-.64.48-.846.79m10.135 18.365a1.74 1.74 0 0 0-.341-.58 1.613 1.613 0 0 0-.553-.398 1.764 1.764 0 0 0-.753-.143c-.312.003-.565.065-.763.188s-.364.273-.497.455c-.135.182-.25.38-.342.593-.092.213-.188.41-.287.592s-.213.332-.343.453-.297.183-.505.185c-.228.003-.426-.072-.59-.226s-.25-.394-.253-.72c-.003-.164.018-.311.063-.442s.108-.244.19-.338a1.08 1.08 0 0 1 .617-.359l-.002-.155a5.785 5.785 0 0 1-.517-.092 12.98 12.98 0 0 1-.524-.133c-.091.12-.167.298-.227.53-.06.232-.089.495-.085.79.003.327.048.622.136.885.087.263.212.49.376.68.163.188.358.333.585.433.228.101.478.15.75.147.31-.003.564-.067.763-.192.197-.125.363-.281.501-.468.136-.187.251-.387.345-.6.092-.215.19-.413.291-.6.101-.187.215-.342.343-.466a.683.683 0 0 1 .492-.19c.196-.002.369.075.518.231s.225.36.227.612c.005.485-.225.816-.691.996l.001.122c.18.053.329.097.446.13s.24.075.365.123c.124-.159.22-.35.29-.571.067-.222.1-.479.097-.774a2.15 2.15 0 0 0-.123-.698M42.802 5.462c-.278 0-.511.008-.7.022a6.973 6.973 0 0 1-.502.021c-.135 0-.258-.003-.367-.011a7.782 7.782 0 0 1-.303-.028 37.9 37.9 0 0 1 .066 2.264l.002 1.111c0 .452-.005.854-.015 1.205a30.1 30.1 0 0 1-.049 1.036c.093-.012.194-.018.303-.018h.736c.109-.001.21.006.303.016-.023-.338-.04-.682-.051-1.033s-.018-.754-.018-1.206v-.336h.073l1.469 2.573c.125-.011.248-.016.37-.016h.372l.369-.002c.12 0 .242.007.367.018-.301-.452-.602-.908-.9-1.37-.302-.46-.582-.922-.844-1.384.407-.104.722-.28.94-.531.218-.252.326-.576.326-.975 0-.245-.049-.457-.145-.633a1.324 1.324 0 0 0-.387-.445 1.324 1.324 0 0 0-.504-.21 3.012 3.012 0 0 0-.38-.05 7.072 7.072 0 0 0-.532-.017zm-.573.467c.224 0 .416.012.576.033a.842.842 0 0 1 .393.143.654.654 0 0 1 .226.322c.05.143.075.333.075.573 0 .392-.095.685-.285.879-.192.193-.467.29-.827.29a1.034 1.034 0 0 1-.18-.015c0-.741.007-1.483.022-2.225zm36.35 29.432c.04.219.064.41.072.573a.84.84 0 0 1-.07.411.644.644 0 0 1-.277.279c-.13.075-.313.132-.55.176-.385.071-.69.031-.916-.122-.225-.153-.369-.405-.434-.76a1.342 1.342 0 0 1-.012-.084c-.003-.03-.004-.061-.005-.095.729-.134 1.46-.26 2.191-.378m-3.339 2.741c.4-.377.802-.737 1.21-1.078.175.383.407.66.693.828s.625.218 1.016.145a1.31 1.31 0 0 0 .598-.255c.156-.126.28-.28.367-.462a1.327 1.327 0 0 0 .117-.532 2.923 2.923 0 0 0-.02-.384 7.562 7.562 0 0 0-.08-.525 9.705 9.705 0 0 0-.146-.684 6.169 6.169 0 0 1-.166-.855 6.226 6.226 0 0 1-.026-.303 35.09 35.09 0 0 1-2.215.475l-1.094.202a32.784 32.784 0 0 1-2.215.341c.027.089.051.187.071.294l.066.362.067.361c.02.108.033.208.038.3.33-.08.664-.16 1.01-.235.343-.073.737-.152 1.182-.233l.33-.062.012.073-2.266 1.905c.033.121.061.242.083.364l.067.365.066.362c.023.118.04.239.052.364.39-.376.785-.754 1.183-1.133m-17.228-28.8c.2.097.37.19.505.278a.87.87 0 0 1 .293.299c.057.11.079.24.062.389a1.85 1.85 0 0 1-.18.547c-.17.354-.383.578-.64.669-.255.092-.545.06-.87-.095-.023-.013-.05-.026-.075-.041a1.211 1.211 0 0 1-.08-.052c.32-.668.65-1.333.985-1.995m-2.788 4.357c.122.058.232.112.33.16.1.046.188.095.267.145a32.76 32.76 0 0 1 .91-2.048l.145-.302.066.032.205 2.954c.118.045.232.094.343.146.11.054.222.108.335.161l.332.16c.108.052.217.11.324.173-.075-.538-.147-1.079-.219-1.623a26.276 26.276 0 0 1-.158-1.613c.412.083.772.058 1.077-.073.304-.131.544-.377.715-.736.106-.221.155-.431.145-.633a1.307 1.307 0 0 0-.157-.57 1.32 1.32 0 0 0-.361-.409c-.087-.066-.194-.134-.322-.208s-.285-.155-.472-.245c-.25-.12-.464-.215-.64-.284s-.328-.135-.46-.199a4.77 4.77 0 0 1-.327-.17 7.54 7.54 0 0 1-.26-.157c-.135.329-.272.654-.413.976a42.72 42.72 0 0 1-.508 1.094l-.481 1.002c-.196.408-.374.768-.536 1.08-.162.313-.327.617-.492.912.09.03.182.068.28.116l.332.159m-7.877-2.255.362.068c.108.02.205.044.293.073.015-.253.06-.589.134-1.006.073-.42.165-.92.275-1.504l.016.002c.194.47.382.94.565 1.41.183.47.373.934.57 1.393.118.011.237.027.352.05l.348.066.362.069c.123.022.26.055.415.095a8.71 8.71 0 0 1-.317-.655c-.13-.288-.267-.603-.416-.944-.15-.342-.297-.69-.447-1.046-.15-.355-.284-.68-.407-.975a56.28 56.28 0 0 1 2.51-1.921 9.607 9.607 0 0 1-.257-.02 2.289 2.289 0 0 1-.454-.086 4.45 4.45 0 0 1-.219-.07c-.09.088-.23.218-.423.39a74.866 74.866 0 0 1-1.392 1.192c-.256.215-.497.413-.718.591l.145-.771c.075-.39.145-.745.215-1.065.068-.32.13-.557.188-.714a4.969 4.969 0 0 1-1.025-.165 6.808 6.808 0 0 1-.29-.083 35.3 35.3 0 0 1-.358 2.236l-.208 1.092a33.037 33.037 0 0 1-.481 2.189c.094.006.194.02.301.04l.361.069"/></svg>