<svg xmlns="http://www.w3.org/2000/svg" xml:space="preserve" width="294.188770538" height="339.917801135" version="1.0" viewBox="0 0 4818.899 2834.65"><path d="m2586.462 1497.03-.129-.129-17.816-15.592-3.797-3.465c-3.602-3.601-9.137-8.002-18.664-7.693-1.57-.026-3.135.134-4.684.42 1.637-7.562 2.857-15.551 3.598-23.976.516-5.836.789-11.621.816-17.194.002-.114.01-2.22.01-2.22l-.121-4.562.014.38v-221.35h-274.773V1423l.014-.387-.121 4.567.009 2.221c.026 5.58.301 11.363.816 17.194.74 8.407 1.956 16.383 3.586 23.938a23.283 23.283 0 0 0-4.463-.382c-9.524-.309-15.056 4.093-18.657 7.693l-3.797 3.465-17.817 15.592-.129.129c-6.152 6.137-6.762 12.116-6.186 16.053 1.631 11.194 15.86 19.473 17.292 20.246l8.346-6.547c5.892-2.293 9.301.932 9.301.932.581.341 2.57 1.962 3.807 8.498l.715 3.779c-4.633 4.01-7.924 6.855-7.924 6.855l2.812 4.102c8.202 11.963 11.367 15.654 16.704 21.662 35.622 40.109 81.498 61.309 132.665 61.309h.823c51.172 0 97.047-21.199 132.667-61.311 5.336-5.996 8.502-9.686 16.707-21.66l2.811-4.102s-3.201-2.772-7.738-6.695l.746-3.939c1.236-6.536 3.225-8.157 3.803-8.498 0 0 3.412-3.225 9.303-.932l8.35 6.547c1.432-.773 15.66-9.052 17.291-20.246.574-3.937-.04-9.916-6.19-16.053z" style="fill:#fff;fill-rule:evenodd" transform="translate(-27373.904 -16084.783) scale(12.36093)"/><path d="M2565.038 1484.384s9.027 19.31-18.328 21.339l28.186 22.082s22.602-13.206 8.381-27.392l-18.239-16.029z" style="fill:#1b449c;fill-rule:evenodd" transform="translate(-27373.904 -16084.783) scale(12.36093)"/><path d="M2559.386 1496.927c4.994-5.253.205-14.104.205-14.104s-4.336-8.131-13.074-7.732c-2.139-.047-4.303.338-6.451 1.042-1.803 7.113-3.994 13.818-6.611 20.03l.016.005c-.367.917-3.439 8.407-9.588 18.642.732.636 1.869 1.619 3.287 2.849l21.182 18.29c2.619-17.949 12.686-13.563 12.686-13.563l-23.766-18.928c18.088-.69 22.114-6.531 22.114-6.531z" style="fill:#e03a3e;fill-rule:evenodd" transform="translate(-27373.904 -16084.783) scale(12.36093)"/><path d="M2251.565 1484.602s-9.031 19.31 18.324 21.339l-28.186 22.082s-22.597-13.206-8.375-27.392l18.237-16.029z" style="fill:#1b449c;fill-rule:evenodd" transform="translate(-27373.904 -16084.783) scale(12.36093)"/><path d="M2257.214 1497.144c-4.998-5.253-.201-14.104-.201-14.104s4.335-8.128 13.069-7.731c2.141-.048 4.305.337 6.454 1.042 1.803 7.109 3.994 13.819 6.612 20.03l-.016.008c.363.914 3.437 8.406 9.588 18.639-.732.64-1.87 1.618-3.291 2.849l-21.18 18.292c-2.619-17.95-12.686-13.564-12.686-13.564l23.766-18.929c-18.086-.691-22.115-6.532-22.115-6.532z" style="fill:#e03a3e;fill-rule:evenodd" transform="translate(-27373.904 -16084.783) scale(12.36093)"/><path d="M2516.651 1515.915c7.738-12.102 11.418-21.234 11.648-21.814l-.113.27c5.848-13.751 9.629-29.988 11.238-48.266.498-5.643.764-11.272.793-16.729.006-.774.01-1.507.01-2.194 0-1.589-.029-2.962-.107-4.182v-215.781h-263.636V1423c-.084 1.22-.107 2.593-.107 4.182 0 .687.004 1.421.009 2.194a201.75 201.75 0 0 0 .792 16.729c1.602 18.183 5.355 34.348 11.148 48.054.46 1.155 4.12 10.104 11.561 21.816l-36.775 31.824c8.175 11.93 11.228 15.437 16.274 21.113 34.537 38.89 78.976 59.44 128.501 59.44h.823c49.536 0 93.969-20.551 128.502-59.44 5.051-5.677 8.105-9.184 16.279-21.113l-36.84-31.884z" style="fill:#1b449c;fill-rule:evenodd" transform="translate(-27373.904 -16084.783) scale(12.36093)"/><path d="M2408.301 1219.312h-119.726v203.886s-1.932 36.103 10.966 66.441c0 0 30.669 78.26 108.346 78.26h.413c77.678 0 108.76-78.26 108.76-78.26 12.896-30.339 10.965-66.441 10.965-66.441v-203.886h-119.724z" style="fill:#fff;fill-rule:evenodd" transform="translate(-27373.904 -16084.783) scale(12.36093)"/><path d="M2386.095 1335.212h44.183v172.768h-44.183v-172.768zM2349.801 1269.908v-29.114c-5.992.316-11.523 1.721-16.906 4.149l3.463-10.793h42.872l-4.614 9.58c-3.687-1.853-7.758-2.812-12.676-2.936v29.114c0 4.599.613 8.681 2.458 12.582h-17.056c1.842-3.901 2.459-7.983 2.459-12.582zM2432.427 1269.908v-23.176c0-4.599-.615-8.685-2.455-12.582h17.053c-1.842 3.896-2.461 7.982-2.461 12.582v9.319l14.754-16.726c1.461-1.661 2.229-3.131 2.229-4.601 0-.189-.076-.385-.076-.574h19.055c-4.531 2.81-8.064 5.363-10.373 7.856l-12.676 13.727 17.207 20.303c1.615 1.915 3.846 4.024 6.684 6.453h-19.049c.074-.579.154-1.152.154-1.661 0-1.919-.852-3.455-2.385-5.3l-15.523-18.646v13.025c0 4.599.619 8.681 2.459 12.582h-17.051c1.839-3.9 2.454-7.982 2.454-12.581zM2486.054 1269.908v-23.176c0-4.599-.611-8.685-2.457-12.582h32.963l-5.453 9.451c-3.461-1.342-7.686-2.043-12.91-2.17v13.345h16.676l-6.227 8.746c-2.379-1.468-5.533-2.104-9.375-2.104h-1.074v13.855c1.611.065 3.229.129 4.766.129 6.914 0 12.68-.769 17.514-2.557l-4.605 9.645h-32.273c1.843-3.901 2.455-7.983 2.455-12.582z" style="fill:#e03a3e;fill-rule:evenodd" transform="translate(-27373.904 -16084.783) scale(12.36093)"/><path d="M2372.102 1298.155c-6.614 0-11.305 4.374-11.305 11.251 0 6.958 4.886 11.417 12.193 11.417 4.099 0 7.161-1.357 9.923-4.331l-1.083 7.348c-3.505 1.313-7.21 1.992-11.207 1.992-4.445 0-8.247-1.019-11.406-3.103-4.59-3.011-6.865-7.084-6.865-12.176 0-5.35 2.522-10.022 7.063-13.245 3.997-2.802 8.837-4.29 14.218-4.29 2.666 0 5.579.426 8.64 1.273v8.025c-3.208-2.756-6.566-4.161-10.171-4.161zM2389.052 1317.09v-15.41c0-3.06-.394-5.773-1.577-8.365h10.958c-1.182 2.592-1.58 5.306-1.58 8.365v15.41c0 3.053.398 5.772 1.58 8.362h-10.957c1.182-2.59 1.576-5.308 1.576-8.362zM2412.161 1317.09v-19.36c-3.853.215-7.409 1.144-10.867 2.761l2.227-7.176h27.55l-2.963 6.368c-2.369-1.232-4.988-1.866-8.148-1.953v19.36c0 3.053.395 5.772 1.576 8.362h-10.957c1.186-2.59 1.582-5.308 1.582-8.362zM2455.171 1325.452h-10.959c1.182-2.59 1.578-5.308 1.578-8.362v-6.667l-8.248-11.759a48.666 48.666 0 0 0-4.441-5.349h10.912c-.053.257-.053.51-.053.724 0 .806.199 1.527.543 2.039l5.582 8.276 4.645-7.683c.441-.764.688-1.569.688-2.379 0-.337-.051-.635-.096-.977h9.971a28.01 28.01 0 0 0-4.789 5.475l-6.916 10.321v7.979c-.001 3.053.397 5.772 1.583 8.362z" style="fill:#e03a3e;fill-rule:evenodd;stroke:#e03a3e;stroke-width:.65649998" transform="translate(-27373.904 -16084.783) scale(12.36093)"/><path d="M2401.527 1239.605c-7.814 0-11.43 9.052-11.43 18.548 0 9.494 3.616 18.546 11.43 18.546 7.809 0 11.427-9.052 11.427-18.546 0-9.496-3.618-18.548-11.427-18.548zm25.222 18.784c0 15.952-11.273 24.575-25.182 24.575-13.907 0-25.184-8.162-25.184-24.575 0-13.577 11.277-24.58 25.184-24.58 13.909 0 25.182 11.003 25.182 24.58z" style="fill:#e03a3e;fill-rule:evenodd" transform="translate(-27373.904 -16084.783) scale(12.36093)"/><path d="M2389.272 1543.157c0-5.53 1.237-8.29 3.907-8.29 2.626 0 3.913 2.76 3.913 8.29 0 5.471-1.383 8.238-3.913 8.238-2.806 0-3.907-2.656-3.907-8.238zm8.603-10.151c3.539-1.129 5.384-4.002 5.384-7.956 0-5.69-3.455-8.849-9.758-8.849-6.581 0-10.445 3.555-10.445 8.849 0 4.007 1.932 6.882 5.43 7.901v.394c-4.42 1.183-6.673 4.681-6.673 10.148 0 6.767 4.093 9.701 11.366 11.11 7.303 1.418 11.366-2.08 11.366-8.957 0-4.964-2.395-11.229-6.669-12.302v-.338h-.001zm-8.377-7.443c0-4.232 1.243-6.432 3.682-6.432 2.626 0 3.635 2.029 3.635 6.433 0 4.281-1.196 6.368-3.635 6.368-2.486 0-3.682-2.087-3.682-6.369z" style="fill:#1b449c;fill-rule:evenodd" transform="translate(-27373.904 -16084.783) scale(12.36093)"/><path d="M2389.272 1543.157c0-5.53 1.237-8.29 3.907-8.29 2.626 0 3.913 2.76 3.913 8.29 0 5.471-1.383 8.238-3.913 8.238-2.806 0-3.907-2.656-3.907-8.238zm8.603-10.151c3.539-1.129 5.384-4.002 5.384-7.956 0-5.69-3.455-8.849-9.758-8.849-6.581 0-10.445 3.555-10.445 8.849 0 4.007 1.932 6.882 5.43 7.901v.394c-4.42 1.183-6.673 4.681-6.673 10.148 0 6.767 4.093 9.701 11.366 11.11 7.303 1.418 11.366-2.08 11.366-8.957 0-4.964-2.395-11.229-6.669-12.302v-.338h-.001zm-8.377-7.443c0-4.232 1.243-6.432 3.682-6.432 2.626 0 3.635 2.029 3.635 6.433 0 4.281-1.196 6.368-3.635 6.368-2.486 0-3.682-2.087-3.682-6.369z" style="fill:none;stroke:#1b449c;stroke-width:.7493" transform="translate(-27373.904 -16084.783) scale(12.36093)"/><path d="M2415.692 1534.503v-.172c0-9.227 1.916-14.589 6.098-14.589 1.98 0 3.498 1.091 4.879 3.343l.277-.115c.094-1.73.324-3.517.641-5.479-1.883-.867-5.773-1.326-7.705-1.326-9.111 0-12.199 10.388-12.199 24.519 0 10.785 4.082 16.013 11.689 14.812 6.91-1.087 11.139-4.957 11.139-13.204 0-6.746-3.313-10.729-8.514-10.729-2.809-.002-5.109 1.154-6.305 2.94zm7.129 9.287c0 5.826-1.146 8.708-3.449 8.708-2.389 0-3.588-2.941-3.588-8.939 0-5.306 1.152-7.901 3.498-7.901 2.574-.001 3.539 2.594 3.539 8.132z" style="fill:#1b449c;fill-rule:evenodd" transform="translate(-27373.904 -16084.783) scale(12.36093)"/><path d="M2415.692 1534.503v-.172c0-9.227 1.916-14.589 6.098-14.589 1.98 0 3.498 1.091 4.879 3.343l.277-.115c.094-1.73.324-3.517.641-5.479-1.883-.867-5.773-1.326-7.705-1.326-9.111 0-12.199 10.388-12.199 24.519 0 10.785 4.082 16.013 11.689 14.812 6.91-1.087 11.139-4.957 11.139-13.204 0-6.746-3.313-10.729-8.514-10.729-2.809-.002-5.109 1.154-6.305 2.94zm7.129 9.287c0 5.826-1.146 8.708-3.449 8.708-2.389 0-3.588-2.941-3.588-8.939 0-5.306 1.152-7.901 3.498-7.901 2.574-.001 3.539 2.594 3.539 8.132z" style="fill:none;stroke:#1b449c;stroke-width:.75669998" transform="translate(-27373.904 -16084.783) scale(12.36093)"/><path d="M2435.157 1545.258c1.238 2.337 4.453 2.54 4.453 2.54 6.701-.276 5.922-10.833 5.922-10.833-.727-5.436-4.816-4.775-8.105-4.478-.549.048-1.346.117-1.848.206l.121-3.957c.342.01.725.024 1.105-.012 3.541-.327 5.951-1.383 6.623-4.893.408-2.127-.016-5.459-3.635-5.362-4.068.109-4.711 3.118-5.869 4.691l-.48-.261-.438-4.684c2.107-2.524 7.441-2.876 7.441-2.876 5.477-.501 9.711 2.543 10.107 6.87.293 3.166-.863 4.458-4.736 6.277l.027.306c4.551-.261 6.332 1.246 7.385 4.432 1.703 5.139 1.166 18.348-21.289 19.367 0 0 1.807-2.022 2.449-7.065l.767-.268z" style="fill:#1b449c;fill-rule:evenodd;stroke:#1b449c;stroke-width:.62739998" transform="translate(-27373.904 -16084.783) scale(12.36093)"/><path d="M2378.085 1550.617c-3.744-1.409-9.407-4.446-9.407-4.446.318-3.023.993-9.489.993-20.248 0-1.189-.095-2.021-.186-3.716-1.795.735-1.06.11-2.854 1.165l-1.977-3.022c4.785-1.603 6.78-1.796 11.476-4.317l.92.504c-.138 9.663-.058 15.062-.058 18.176 0 3.984.512 10.387.874 14.319.076.825.219 1.585.219 1.585z" style="fill:#1b449c;fill-rule:evenodd;stroke:#1b449c;stroke-width:.67549998" transform="translate(-27373.904 -16084.783) scale(12.36093)"/><path d="M2344.161 1531.273a121.366 121.366 0 0 1-10.025-9.97c-15.952-17.74-23.272-35.921-23.341-36.103l-.065-.159-.06-.135c-9.095-21.4-10.095-46.604-10.095-56.638 0-2.756.072-4.367.079-4.439l.012-.324v-130.826h43.381l.114 238.594zM2472.446 1531.273a122.268 122.268 0 0 0 10.021-9.97c15.945-17.74 23.273-35.921 23.346-36.103l.063-.159.057-.135c9.102-21.4 10.1-46.604 10.1-56.638 0-2.756-.074-4.367-.076-4.439l-.02-.324v-130.826h-43.375l-.116 238.594z" style="fill:#e03a3e;fill-rule:evenodd" transform="translate(-27373.904 -16084.783) scale(12.36093)"/><path d="M2371.569 1597.729c.444.155.864.268 1.285.373 6.466 1.679 10.456-.313 11.941-6.031 1.319-5.089-.783-7.906-6.241-9.327-2.269-.588-4.463-.9-6.491-1.431-.736-.19-1.624-.501-2.677-.904-.941 5.057-2.048 9.61-3.081 13.596-.933 3.584-2.089 8.039-3.913 13.333 1.394.237 2.532.451 3.374.669.91.236 1.97.597 3.266 1.061.569-3.348.977-5.347 1.144-5.978l1.393-5.361zm.693-2.811 1.568-6.036c.263-1.022.459-1.77.583-2.244.048-.195.206-.788.504-1.806.651.084 1.077.153 1.287.211 2.588.671 3.498 2.634 2.679 5.787-1.026 3.946-2.915 5.053-6.621 4.088zM2389.566 1600.391c.008 9.071 4.867 14.048 13.596 14.043 9.024-.012 14.198-5.532 14.188-15.088-.01-8.868-5.008-13.848-13.563-13.832-8.838.004-14.23 5.396-14.221 14.877zm6.558-.375c-.011-7.555 2.883-11.848 7.339-11.853 4.421-.002 7.324 4.2 7.332 11.839.008 7.56-2.962 11.771-7.308 11.776-4.458.001-7.357-4.161-7.363-11.762zM2433.138 1587.393c.244 2.266.572 4.197.832 5.68.105.602.203 1.17.281 1.646 1.014 5.862 1.965 11.401 3.314 16.674-1.59.146-2.744.263-3.42.382-.887.15-1.977.418-3.348.778-.463-5.043-1.141-9.599-1.857-13.775-.379-2.208-1.09-5.683-2.002-10.321a43.394 43.394 0 0 0-6.357 1.592c-.059-.773-.113-1.511-.217-2.11-.061-.36-.232-.907-.447-1.741 3.908-.508 7.129-.942 9.59-1.363 2.348-.406 5.496-1.072 9.453-1.917.076.854.135 1.423.199 1.784.104.599.264 1.317.465 2.067-2.154.041-4.32.249-6.486.624zM2456.272 1580.609c.613 2.204 1.254 4.047 1.754 5.471.205.577.387 1.117.555 1.576 1.959 5.618 3.814 10.924 6.008 15.893-1.535.411-2.654.714-3.305.94-.85.299-1.885.743-3.174 1.326-1.287-4.9-2.703-9.282-4.104-13.281-.738-2.113-2.008-5.426-3.672-9.85a43.106 43.106 0 0 0-6.012 2.619c-.184-.755-.355-1.471-.559-2.046-.119-.352-.383-.862-.729-1.65 3.771-1.146 6.879-2.101 9.23-2.92 2.25-.786 5.246-1.961 9.01-3.453.215.831.371 1.383.49 1.727.201.578.477 1.258.801 1.965a43.104 43.104 0 0 0-6.293 1.683zM2474.206 1586.516c-.449-.82-.9-1.643-1.354-2.464-.273-.501-.545-1.001-.82-1.502-1.955-3.572-3.928-7.092-6.285-10.494 3.066-1.54 5.166-2.593 6.273-3.204 1.707-.937 3.924-2.24 6.586-3.845.309.719.541 1.287.754 1.682.219.394.557.859.992 1.504a56.36 56.36 0 0 0-5.141 2.487c-.701.387-1.395.767-2.041 1.166a175.163 175.163 0 0 0 2.777 5.305l1.041 1.895a897.124 897.124 0 0 0 6.764-4.124c.314.805.596 1.392.791 1.75.176.32.531.819 1.025 1.576a135.33 135.33 0 0 0-7.111 3.474l2.129 3.899c.984 1.786 1.879 3.338 2.764 4.664a65.371 65.371 0 0 0 6.662-4.165c.307.717.576 1.269.826 1.731.178.322.551.859 1.045 1.611-3.701 1.89-6.398 3.276-8.051 4.179a72.614 72.614 0 0 0-4.713 2.822c-1.481-3.607-3.208-6.839-4.913-9.947zM2500.282 1582.992c.98-.916 1.781-1.647 2.443-2.155.621-.49 1.527-1.092 2.654-1.817-1.746-1.892-3.385-3.871-4.99-5.924l-3.277-4.21c6.418 2.536 10.867 4.596 13.396 6.134 1.008-.945 1.896-1.738 2.693-2.361.682-.53 1.787-1.292 3.23-2.257-4.109-1.449-9.051-3.381-14.84-6.045 2.533-2.391 2.643-5.781.234-8.863-3.133-4.01-6.516-4.064-10.818-.71-2.074 1.624-3.807 3.333-5.572 4.714-.654.511-1.42 1.002-2.266 1.562 3.545 3.842 6.455 7.515 8.939 10.694.273.354.576.74.877 1.127 2.131 2.726 4.631 5.993 7.297 10.111zm-4.453-15.747-3.455-4.432a75.674 75.674 0 0 1-2.748-3.696c.404-.308.654-.456.738-.523 2.619-2.041 4.668-1.884 6.773.81 2.33 2.994 1.912 5.334-1.193 7.754-.031.022-.086.067-.115.087zM2516.47 1558.491l.406-.461c3.037 1.854 5.469 1.682 7.494-.623 1.838-2.094 1.77-4.36-.098-6.003-1.801-1.59-3.576-.929-6.773.299-4.598 1.776-7.533 2.462-10.898-.494-3.916-3.446-4.244-8.252-.307-12.729 1.6-1.816 3.404-3.07 5.555-3.728a41.541 41.541 0 0 0 3.057 4.611l-.291.324c-2.898-1.203-4.967-.952-6.607.917-1.697 1.93-1.484 4.094.018 5.409 1.805 1.582 3.615.577 7.279-.814 4.268-1.586 7.055-2.407 10.602.711 4.287 3.771 4.436 8.959.1 13.895-1.625 1.841-3.443 3.176-5.254 3.94-1.524-1.913-2.969-3.661-4.283-5.254z" style="fill:#fff;fill-rule:evenodd" transform="translate(-27373.904 -16084.783) scale(12.36093)"/><path d="M2327.646 1257.78c-1.684-1.192-5.737-3.135-10.481-5.846-3.769-2.174-6.625-3.997-6.527-6.611.098-2.808 2.646-5.267 7.023-5.118 4.455.15 9.04 3.104 12.426 7.244l-.174-12.083c-3.048-.933-6.105-1.417-9.325-1.527-13.135-.444-21.251 5.034-21.564 13.648-.197 5.55 3.364 9.122 10.217 12.93 6.166 3.47 11.4 5.01 11.566 9.332h-.003c-.118 3.161-3.05 5.876-7.62 5.722-4.652-.154-9.399-3.366-12.925-8.015l.149 13.593c3.173 1.043 7.217 1.611 10.583 1.728 13.715.46 22.034-5.674 22.388-15.374-.021-3.829-1.841-6.867-5.733-9.623z" style="fill:#e03a3e;fill-rule:evenodd" transform="translate(-27373.904 -16084.783) scale(12.36093)"/><path d="M2308.061 1542.749c-1.732 1.485-3.131 2.849-4.211 3.901-.438.425-.846.819-1.196 1.165-4.263 4.148-8.293 8.071-11.87 12.161-1.025-1.222-1.769-2.108-2.249-2.603-.628-.649-1.469-1.395-2.538-2.314 3.897-3.236 7.269-6.372 10.301-9.328 1.609-1.564 4.074-4.117 7.385-7.485a44.451 44.451 0 0 0-4.91-4.349c.605-.485 1.179-.943 1.615-1.37.266-.256.621-.705 1.188-1.354 2.629 2.937 4.808 5.354 6.548 7.135 1.661 1.71 3.992 3.928 6.931 6.712-.665.544-1.099.917-1.358 1.173-.441.43-.938.96-1.446 1.559a42.104 42.104 0 0 0-4.19-5.003zM2309.294 1561.657c.358-.446.701-.854 1.008-1.229 2.564-3.114 5.484-6.725 8.543-11.013 1.043 1.069 1.829 1.876 2.385 2.33.729.595 1.668 1.213 2.832 1.96a77.54 77.54 0 0 0-4.334 4.876l-2.822 3.427c1.763 1.552 2.935 2.627 3.577 3.154 1.146.945 2.533 1.977 4.092 3.154l2.823-3.427a82.538 82.538 0 0 0 3.919-5.222c1.094 1.114 1.912 1.943 2.472 2.402.583.484 1.494 1.076 2.745 1.891-3.567 3.769-6.548 7.328-9.16 10.514-.31.372-.646.78-1.007 1.225-2.094 2.548-4.656 5.714-7.508 9.752-.982-.967-1.768-1.72-2.437-2.271-.7-.575-1.614-1.22-2.78-2.02a69.202 69.202 0 0 0 4.076-4.504l4.606-5.602a121.074 121.074 0 0 0-3.911-3.376c-.751-.621-2.004-1.6-3.761-2.933l-4.606 5.598a69.327 69.327 0 0 0-3.658 4.852c-1.013-.99-1.822-1.768-2.521-2.343-.667-.547-1.588-1.196-2.693-1.95 3.407-3.578 6.021-6.701 8.12-9.245zM2334.554 1582.474c.444-.822.894-1.643 1.339-2.469.271-.504.543-1.004.813-1.507 1.937-3.584 3.825-7.149 5.401-10.975 2.958 1.738 4.983 2.928 6.099 3.531 1.715.925 4.013 2.078 6.799 3.445-.431.643-.786 1.146-1 1.546-.213.389-.42.926-.721 1.643a57.844 57.844 0 0 0-4.887-2.966 42.043 42.043 0 0 0-2.085-1.079 170.21 170.21 0 0 0-2.945 5.215l-1.023 1.9a894.97 894.97 0 0 0 7.129 3.438c-.501.702-.846 1.259-1.036 1.619-.178.319-.402.891-.762 1.712a139.022 139.022 0 0 0-6.789-4.086l-2.108 3.909c-.973 1.791-1.791 3.386-2.418 4.854a68.061 68.061 0 0 0 7.103 3.331 21.636 21.636 0 0 0-1.002 1.633c-.175.32-.418.927-.784 1.748-3.598-2.08-6.227-3.594-7.879-4.486a76.895 76.895 0 0 0-4.923-2.434c2.222-3.195 3.996-6.404 5.679-9.522z" style="fill:#fff;fill-rule:evenodd" transform="translate(-27373.904 -16084.783) scale(12.36093)"/></svg>