<svg xmlns="http://www.w3.org/2000/svg" xmlns:xlink="http://www.w3.org/1999/xlink" xml:space="preserve" width="289.26670843" height="345.701724691" version="1.0" viewBox="0 0 586.278 700.659"><path d="M11.383 23.947 0 26.132v342.196c0 2.637.071 66.31 35.783 139.403 20.973 42.931 49.937 80.153 86.128 110.618 45 37.896 101.223 65.297 167.072 81.422l1.332.328c.07.019 2.344.56 2.344.56l3.019-.479 1.634-.408c65.866-16.125 122.072-43.526 167.071-81.422 36.175-30.474 65.174-67.687 86.129-110.618 35.623-72.934 35.783-136.784 35.766-139.466V26.132l-11.365-2.185C573.633 23.708 447.122 0 293.156 0 139.279 0 12.644 23.708 11.383 23.947" style="fill:#fff"/><path d="M573.509 31.237c-1.243-.231-126.191-23.823-280.353-23.823-154.179 0-279.145 23.592-280.388 23.823l-5.346 1.03v336.061c-.018 2.583.089 64.676 35.02 136.145 20.529 41.999 48.854 78.403 84.246 108.193 44.129 37.168 99.323 64.054 164.07 79.904l1.332.319.853.205 1.261-.205 1.35-.319c64.747-15.85 119.94-42.735 164.053-79.904 35.375-29.79 63.734-66.195 84.246-108.193 34.913-71.469 35.02-133.57 35.02-136.172V32.267" style="fill:#091453"/><path d="M450.993 602.455c-.87.728-1.775 1.438-2.663 2.167V237.937h-64.783v408.577c-17.794 8.933-36.725 16.711-56.81 23.272v-431.85h-69.56v431.042c-20.688-6.891-40.17-15.042-58.407-24.462v-406.58h-64.783v363.391a314.79 314.79 0 0 1-56.792-63.424V237.937h-56.4V43.375c25.59-4.457 138.037-22.598 272.361-22.598 134.289 0 246.771 18.149 272.344 22.598v194.562h-58.78v303.465c-15.788 22.686-34.434 43.117-55.727 61.053" style="fill:#fff"/><path d="M77.978 110.44h15.734l44.005 100.566H116.94L107.403 188h-44.29l-9.234 23.006H33.528m67.535-38.349L85.329 131.75l-16.018 40.907h31.752z" style="fill:#091453"/><path fill="#091453" d="M144.785 110.44h18.184v84.379h43.42v16.187h-61.604" style="fill:#091453"/><path d="M215.339 110.44h39.814c15.45 0 31.326 6.961 31.326 25.288 0 11.365-7.228 18.886-17.759 22.011v.284c12.84 1.421 22.092 11.366 22.092 24.294 0 21.869-19.357 28.688-38.678 28.688h-36.796m18.185-59.658h16.587c12.129 0 18.185-5.115 18.185-12.635 0-8.667-6.056-12.928-19.766-12.928h-15.006v25.563zm0 44.316h16.729c9.377 0 22.357-1.554 22.357-14.766 0-10.513-6.907-14.207-21.629-14.207h-17.457v28.973zM299.745 110.44h18.185v100.566h-18.185zM381.558 107.883c31.895-.568 54.412 20.458 54.412 52.698 0 31.396-22.518 52.414-54.412 52.982-31.45 0-53.968-21.017-53.968-52.414 0-32.24 22.517-53.266 53.968-53.266m.142 89.484c21.221 0 35.215-15.902 35.215-37.354 0-20.023-13.994-35.935-35.215-35.935-21.062 0-35.056 15.912-35.056 35.935.001 21.452 13.995 37.354 35.056 37.354z" style="fill:#091453"/><path fill="#091453" d="M446.057 110.44h24.097l49.493 74.719.285.283h-.285l.285-.283V110.44h18.184v100.566H515.03l-50.505-77.125h-.284v77.125h-18.184M35.339 56.667h7.832L50.7 85.134h.125l9.003-28.467h7.032l8.844 28.467h.107l7.884-28.467h7.264L79.274 96.18h-6.802l-9.305-30.083h-.107L53.772 96.18h-6.57M96.854 56.667h26.585v6.358h-19.445v9.714h18.433v6.357h-18.433v10.726h20.475v6.358H96.854" style="fill:#091453"/><path d="M152.581 65.147c-1.527-2.122-4.244-3.117-7.032-3.117-3.286 0-6.571 1.447-6.571 5.07 0 7.929 19.055 3.4 19.055 17.474 0 8.479-6.801 12.608-14.686 12.608-4.99 0-9.856-1.5-13.159-5.354l5.399-5.132c1.758 2.62 4.759 4.12 7.938 4.12 3.285 0 7.014-1.776 7.014-5.408 0-8.648-19.037-3.685-19.037-17.803 0-8.151 7.37-11.951 14.792-11.951 4.209 0 8.4 1.172 11.508 4.084" style="fill:#091453"/><path fill="#091453" d="M175.098 63.025h-12.306v-6.358h31.752v6.358h-12.307V96.18h-7.139" style="fill:#091453"/><path d="M219.032 56.667h15.663c6.056 0 12.289 2.735 12.289 9.936 0 4.466-2.823 7.423-6.979 8.648v.116c5.062.55 8.685 4.457 8.685 9.545 0 8.595-7.601 11.268-15.201 11.268h-14.456m7.156-23.441h6.518c4.759 0 7.139-2.007 7.139-4.963 0-3.41-2.38-5.079-7.778-5.079h-5.878v10.042h-.001zm0 17.421h6.57c3.676 0 8.791-.622 8.791-5.807 0-4.129-2.735-5.585-8.507-5.585h-6.854V90.16zM256.343 56.667h13.94c7.726 0 14.971 2.451 14.971 11.33 0 5.692-3.339 9.874-9.288 10.717l10.655 17.465h-8.612l-9.306-16.746h-5.221V96.18h-7.14m12.698-22.766c4.031 0 8.737-.337 8.737-5.479 0-4.688-4.422-5.239-8.115-5.239h-6.18v10.717h5.558v.001zM311.11 55.655c12.537-.222 21.381 8.044 21.381 20.715 0 12.333-8.844 20.591-21.381 20.813-12.36 0-21.204-8.257-21.204-20.591 0-12.67 8.844-20.937 21.204-20.937m.053 35.162c8.347 0 13.852-6.242 13.852-14.668 0-7.876-5.505-14.118-13.852-14.118-8.275 0-13.763 6.242-13.763 14.118 0 8.426 5.488 14.668 13.763 14.668z" style="fill:#091453"/><path fill="#091453" d="M339.187 56.667h10.885l10.708 27.686 10.833-27.686h10.78V96.18h-6.82V63.362h-.106l-12.2 32.818h-4.991l-12.181-32.818h-.108V96.18h-6.8M388.448 56.667h7.831l7.531 28.467h.124l9.004-28.467h7.032l8.843 28.467h.125l7.884-28.467h7.245L432.383 96.18h-6.784l-9.306-30.083h-.124l-9.306 30.083h-6.57" style="fill:#091453"/><path d="M449.52 56.667h7.139v39.512h-7.139zM492.992 65.928c-2.948-3.063-5.665-3.898-8.436-3.898-8.293 0-13.78 6.242-13.78 14.118 0 8.426 5.487 14.668 13.78 14.668 3.232 0 6.34-1.447 9.004-4.795l5.896 4.138c-3.623 4.901-9.074 7.023-14.971 7.023-12.342 0-21.203-8.257-21.203-20.591 0-12.67 8.861-20.937 21.203-20.937 5.452 0 10.104 1.731 14.065 6.26" style="fill:#091453"/><path fill="#091453" d="M505.707 56.667h7.139v15.734h18.771V56.667h7.139V96.18h-7.139V78.768h-18.771V96.18h-7.139" style="fill:#091453"/><path d="m411.925 573.784-.23-1.199c-.782-3.054-3.712-11.942-8.347-17.599 12.04-1.776 26.709-6.153 33.475-16.329l1.687-2.531-1.811-2.424c-7.548-9.927-22.855-13.887-34.878-15.459 4.475-5.994 6.322-13.417 6.57-14.473l1.297-5.967s-3.48.888-6.482.853c-.55.08-2.415.009-3.693-.098-5.47-.728-12.84-.027-14.277.115-4.849.479-9.075 1.696-12.733 3.179 1.367-4.59 2.113-9.252 2.113-12.431 0-.56-.018-1.065-.054-1.519-.337-3.773-4.244-16.187-4.954-18.38l-1.385-2.548c4.386-.036 11.063.391 19.587 2.371 1.989.604 29.195 8.95 58.55 22.882 1.101.586 31.681 16.338 54.057 3.765 0 0 2.842-2.388 3.907-5.052l-16.676-8.675s11.473 1.474 18.683-1.323c-2.807-12.146-12.147-16.551-12.147-16.551 7.477.933 12.147-1.731 12.147-1.731-.675-1.874-2.007-4.413-2.007-4.413-.462-.56-7.299-13.035-28.857-22.189.391-.648.586-1.35.71-2.104-.035.258-.089.63-.089.63.195-.533.408-1.163.408-1.98 0-3.685-4.511-13.603-37.292-28.981l-.178-.098-.195-.089c-.906-.4-21.825-9.785-37.612-13.541-9.146-7.476-77.711-61.693-163.964-79.549-3.428-4.884-13.23-18.7-18.221-24.081-1.811-2.388-18.273-23.175-43.65-22.837-.391-.009-12.146-.018-23.068 5.283-2.806.106-5.203-1.278-5.239-1.288-13.336-7.423-23.601-12.564-23.707-12.608l-.533-.284-.568-.249c-5.31-1.27-7.654 1.936-8.222 2.913-2.007 3.365-.444 6.251.124 7.343l.036.027c1.279 2.495 5.896 8.702 10.211 14.295-9.128-.702-14.1-.373-16.924.409l.036-.036c-.071.018-.124.053-.213.071a.5.5 0 0 0-.107.036c-3.072.71-4.439 2.69-4.955 3.854a6.604 6.604 0 0 0-.586 2.726c0 1.962.853 3.543 1.19 4.102l-.125-.222c.444.808 1.794 3.285 9.607 6.846 8.151 3.756 21.15 11.596 22.305 12.289 6.233 4.289 12.04 22.465 14.242 32.924l.036.231c5.345 20.893 10.566 37.124 11.863 41.546 5.238 17.554 16.657 50.931 48.356 73.893l-.392 10.185c-.124 3.063-.515 11.587-.888 14.251-.142.906-.195 2.033-.195 3.303 0 2.948.409 6.713 1.208 10.46-3.215-1.554-6.926-2.886-11.17-3.587-.284-.053-7.796-1.341-13.301-.879-1.296.026-2.859-.009-3.286-.089-2.433-.195-6.18-2.211-6.18-2.211l.675 6.917c.178 1.083 1.456 8.684 5.328 14.926-11.277.941-25.714 4.076-33.333 13.639l-1.741 2.202 1.35 2.486c5.754 10.717 19.179 15.822 30.012 18.229-4.653 5.417-7.157 12.298-7.512 13.31l-1.492 4.946s4.173.231 6.677.71c.479 0 1.421.204 2.682.461 5.31 1.403 12.928 1.438 13.248 1.438 4.866.054 9.607-.808 13.354-2.006a24.01 24.01 0 0 0-.23 3.17c0 2.69.391 5.256.71 7.361l.391 3.303c-.089 2.824-.657 11.02-1.154 13.932l.23 8.95 5.452-4.937c1.474-1.199 7.086-3.392 11.454-4.724 8.116-2.602 14.012-5.976 18.54-9.758-.816 3.925-1.385 8.107-1.385 12.76 0 2.628.142 5.372.479 8.249.461 3.117.781 6.846.781 9.43 0 1.19-.071 2.131-.231 2.664l-.905 8.941 7.423-4.227c2.664-1.785 10.122-6.704 12.537-7.903 2.788-1.376 7.264-4.724 11.152-8.764.533 3.481 1.51 7.228 3.356 11.063.125.249 3.321 7.042 6.891 11.224.746.994 1.599 2.255 1.775 2.655 1.421 2.557 2.593 5.86 2.593 5.86l4.352-4.022c.834-.746 6.57-6.207 9.589-12.973 7.264 8.586 18.221 18.487 30.669 19.162l2.717.151 1.262-2.433c2.237-4.155 3.107-8.728 3.107-13.363 0-7.494-2.326-15.094-4.919-21.363 7.228.71 14.562-1.101 15.609-1.385l7.086-1.953s1.847.364 1.474-.009c2.38 1.11 2.255 1.021 4.884 1.971 3.8 1.243 10.068 3.711 11.773 5.15l6.926 4.2.089-7.849c-.248-2.824-.87-10.407-.87-13.736v-.639c.018-.151.018-.32.018-.488 0-3.09-.977-8.222-2.858-13.266 3.711 1.252 7.955 2.202 12.75 2.415.319.018 8.507.409 14.242-.675 1.438-.204 2.061-.399 2.558-.355-.002-.003 4.188-.571 7.421-.225m-151.231-57.43c-2.983-11.028-8.524-31.566-34.274-45.195l-.106-.044-.106-.044c-3.854-1.793-8.737-4.582-9.927-5.967l-5.363-6.287c15.29 10.611 35.108 18.815 60.965 21.861 3.303.577 13.993 2.433 22.979 3.738-6.553 6.304-16.729 16.906-25.217 29.337l-1.883 2.744c-2.273.302-4.422 1.074-6.375 2.22-.232-.738-.48-1.511-.693-2.363zm26.78 16a17.426 17.426 0 0 0-3.623-9.172c1.634-1.51 9.004-8.302 16.817-15.112-2.646 7.689-5.594 15.929-7.601 20.271l-1.634 3.543a47.78 47.78 0 0 1-3.959.47zm74.816-62.492c-2.558 4.093-6.624 6.242-6.713 6.287-8.896 3.8-15.733 8.391-21.026 13.239 2.061-3.099 4.085-5.887 5.985-8.151 0 0 3.445-3.738 4.244-4.396 2.45-2.495 10.246-9.065 16.817-9.376l.373-.009.391-.071c.035-.009.781-.143 2.148-.249l-2.219 2.726z" style="fill:#fff"/><path d="M157.482 308.562c30.882 10.682 4.901-7.787 4.919-7.29 10.407 8.524-4.919 7.29-4.919 7.29" style="fill:#fff"/><path d="M157.482 308.562c30.882 10.682 4.901-7.787 4.919-7.29 10.407 8.524-4.919 7.29-4.919 7.29z" style="fill:none;stroke:#fff;stroke-width:6.63009977"/><path d="M170.517 299.07s-.444-6.57 6.819-7.272c7.263-.701 11.632 4.218 12.963 6.588 1.332 2.397 2.948 6.89 3.676 9.723 0 0 1.101 2.983-1.652 1.607-2.734-1.385-6.375-3.658-14.935-4.218-6.552-.426-6.871-6.428-6.871-6.428" style="fill:#fff"/><path d="M170.517 299.07s-.444-6.57 6.819-7.272c7.263-.701 11.632 4.218 12.963 6.588 1.332 2.397 2.948 6.89 3.676 9.723 0 0 1.101 2.983-1.652 1.607-2.734-1.385-6.375-3.658-14.935-4.218-6.552-.426-6.871-6.428-6.871-6.428z" style="fill:none;stroke:#fff;stroke-width:6.63009977"/><path d="M179.769 298.289c.071 1.385-.923 2.575-2.237 2.637-1.296.062-2.415-1.021-2.504-2.397-.053-1.394.923-2.575 2.237-2.637 1.314-.072 2.433 1.011 2.504 2.397" style="fill:#fff"/><path d="M179.769 298.289c.071 1.385-.923 2.575-2.237 2.637-1.296.062-2.415-1.021-2.504-2.397-.053-1.394.923-2.575 2.237-2.637 1.314-.072 2.433 1.011 2.504 2.397z" style="fill:none;stroke:#fff;stroke-width:6.63009977"/><path d="M356.892 409.527c33.705 5.079 22.748-10.158 22.518-10.38 17.74 4.307 19.285 11.659 19.517 11.872-21.685 8.764-42.035-1.492-42.035-1.492" style="fill:#fff"/><path d="M356.892 409.527c33.705 5.079 22.748-10.158 22.518-10.38 17.74 4.307 19.285 11.659 19.517 11.872-21.685 8.764-42.035-1.492-42.035-1.492z" style="fill:none;stroke:#fff;stroke-width:6.63009977"/><path d="M188.896 343.217c1.296 3.028 1.314 5.878.071 6.384-1.243.515-3.286-1.527-4.582-4.537-1.278-3.028-1.314-5.878-.071-6.393 1.244-.506 3.304 1.528 4.582 4.546" style="fill:#fff"/><path d="M188.896 343.217c1.296 3.028 1.314 5.878.071 6.384-1.243.515-3.286-1.527-4.582-4.537-1.278-3.028-1.314-5.878-.071-6.393 1.244-.506 3.304 1.528 4.582 4.546z" style="fill:none;stroke:#fff;stroke-width:6.63009977"/><path d="M200.351 362.405c2.237 3.135 3.037 6.349 1.794 7.192-1.226.844-4.049-1.012-6.269-4.138-2.238-3.125-3.037-6.349-1.812-7.192 1.244-.843 4.049 1.013 6.287 4.138" style="fill:#fff"/><path d="M200.351 362.405c2.237 3.135 3.037 6.349 1.794 7.192-1.226.844-4.049-1.012-6.269-4.138-2.238-3.125-3.037-6.349-1.812-7.192 1.244-.843 4.049 1.013 6.287 4.138z" style="fill:none;stroke:#fff;stroke-width:6.63009977"/><path d="M214.735 382.659c3.072 4.129 4.297 8.346 2.771 9.43-1.51 1.065-5.222-1.403-8.258-5.532-3.055-4.12-4.28-8.347-2.771-9.421 1.528-1.074 5.221 1.403 8.258 5.523" style="fill:#fff"/><path d="M214.735 382.659c3.072 4.129 4.297 8.346 2.771 9.43-1.51 1.065-5.222-1.403-8.258-5.532-3.055-4.12-4.28-8.347-2.771-9.421 1.528-1.074 5.221 1.403 8.258 5.523z" style="fill:none;stroke:#fff;stroke-width:6.63009977"/><path d="M232.228 404.156c3.054 4.12 4.297 8.329 2.77 9.403-1.509 1.074-5.221-1.385-8.257-5.514-3.055-4.129-4.298-8.355-2.771-9.421 1.527-1.075 5.22 1.394 8.258 5.532" style="fill:#fff"/><path d="M232.228 404.156c3.054 4.12 4.297 8.329 2.77 9.403-1.509 1.074-5.221-1.385-8.257-5.514-3.055-4.129-4.298-8.355-2.771-9.421 1.527-1.075 5.22 1.394 8.258 5.532z" style="fill:none;stroke:#fff;stroke-width:6.63009977"/><path d="M258.776 447.761c5.558 2.788 9.234 6.677 8.187 8.64-1.03 1.962-6.376 1.288-11.934-1.527-5.559-2.814-9.217-6.686-8.187-8.648 1.048-1.972 6.393-1.279 11.934 1.535" style="fill:#fff"/><path d="M258.776 447.761c5.558 2.788 9.234 6.677 8.187 8.64-1.03 1.962-6.376 1.288-11.934-1.527-5.559-2.814-9.217-6.686-8.187-8.648 1.048-1.972 6.393-1.279 11.934 1.535z" style="fill:none;stroke:#fff;stroke-width:6.63009977"/><path d="M255.526 422.562c4.901 3.81 7.725 8.32 6.304 10.042-1.42 1.731-6.517.036-11.4-3.782-4.901-3.81-7.725-8.311-6.305-10.042 1.403-1.723 6.518-.045 11.401 3.782" style="fill:#fff"/><path d="M255.526 422.562c4.901 3.81 7.725 8.32 6.304 10.042-1.42 1.731-6.517.036-11.4-3.782-4.901-3.81-7.725-8.311-6.305-10.042 1.403-1.723 6.518-.045 11.401 3.782z" style="fill:none;stroke:#fff;stroke-width:6.63009977"/><path d="M283.78 438.003c5.451 2.966 9.021 6.917 7.938 8.862-1.101 1.936-6.429 1.11-11.898-1.838-5.487-2.965-9.039-6.935-7.938-8.861 1.083-1.945 6.411-1.111 11.898 1.837" style="fill:#fff"/><path d="M283.78 438.003c5.451 2.966 9.021 6.917 7.938 8.862-1.101 1.936-6.429 1.11-11.898-1.838-5.487-2.965-9.039-6.935-7.938-8.861 1.083-1.945 6.411-1.111 11.898 1.837z" style="fill:none;stroke:#fff;stroke-width:6.63009977"/><defs><path id="a" d="M165.74 377.909s16.782 98.08 126.121 98.568c26.833.116 25.412-3.179 25.412-3.179l2.113-.852s15.805-5.949 16.036-6.784c.23-.826 9.979-11.108 9.979-11.108l38.074-26.656-81.209-7.645-40.951-16.391-18.859-20.537-8.382-15.166-4.476-15.787-9.909-48.792-20.031-20.041-17.066-2.974-24.347 2.309-8.293-4.742-27.117-13.328 18.185 23.29-31.291-1.723 29.71 16.942 9.003 12.227"/></defs><clipPath id="b"><use xlink:href="#a" width="586.27802" height="700.659"/></clipPath><g clip-path="url(#b)"><image width="1755" height="1677" transform="matrix(.24 0 0 .24 36.218 169.523)"/></g><path d="M157.482 308.562c30.882 10.682 4.901-7.787 4.919-7.29 10.407 8.524-4.919 7.29-4.919 7.29" style="fill:#724314"/><path d="M170.517 299.07s-.444-6.57 6.819-7.272c7.263-.701 11.632 4.218 12.963 6.588 1.332 2.397 2.948 6.89 3.676 9.723 0 0 1.101 2.983-1.652 1.607-2.734-1.385-6.375-3.658-14.935-4.218-6.552-.426-6.871-6.428-6.871-6.428" style="fill:#240b08"/><path d="M179.769 298.289c.071 1.385-.923 2.575-2.237 2.637-1.296.062-2.415-1.021-2.504-2.397-.053-1.394.923-2.575 2.237-2.637 1.314-.072 2.433 1.011 2.504 2.397" style="fill:#fff"/><path d="M182.291 362.254c1.598 3.765 1.651 7.343.089 7.974-1.563.63-4.103-1.909-5.718-5.7-1.599-3.765-1.652-7.334-.089-7.965 1.544-.639 4.101 1.909 5.718 5.691M188.896 343.217c1.296 3.028 1.314 5.878.071 6.384-1.243.515-3.286-1.527-4.582-4.537-1.278-3.028-1.314-5.878-.071-6.393 1.244-.506 3.304 1.528 4.582 4.546M200.351 362.405c2.237 3.135 3.037 6.349 1.794 7.192-1.226.844-4.049-1.012-6.269-4.138-2.238-3.125-3.037-6.349-1.812-7.192 1.244-.843 4.049 1.013 6.287 4.138M193.762 386.797c2.522 4.466 3.214 8.781 1.581 9.66-1.651.888-5.008-1.998-7.529-6.455-2.504-4.466-3.197-8.808-1.545-9.678 1.615-.888 4.989 2.015 7.493 6.473M214.735 382.659c3.072 4.129 4.297 8.346 2.771 9.43-1.51 1.065-5.222-1.403-8.258-5.532-3.055-4.12-4.28-8.347-2.771-9.421 1.528-1.074 5.221 1.403 8.258 5.523M232.228 404.156c3.054 4.12 4.297 8.329 2.77 9.403-1.509 1.074-5.221-1.385-8.257-5.514-3.055-4.129-4.298-8.355-2.771-9.421 1.527-1.075 5.22 1.394 8.258 5.532M189.039 414.917c2.877 4.813 4.156 9.306 2.859 10.042-1.279.728-4.653-2.566-7.512-7.387-2.859-4.813-4.138-9.323-2.859-10.051 1.314-.737 4.67 2.575 7.512 7.396M207.934 438.474c4.049 3.898 6.393 8.045 5.203 9.217-1.207 1.172-5.452-1.03-9.519-4.937-4.049-3.916-6.375-8.044-5.168-9.216 1.173-1.191 5.435 1.029 9.484 4.936M232.298 456.046c5.079 2.557 8.542 5.816 7.761 7.29-.781 1.483-5.505.595-10.566-1.962-5.043-2.557-8.542-5.825-7.742-7.298.763-1.467 5.504-.597 10.547 1.97M258.776 447.761c5.558 2.788 9.234 6.677 8.187 8.64-1.03 1.962-6.376 1.288-11.934-1.527-5.559-2.814-9.217-6.686-8.187-8.648 1.048-1.972 6.393-1.279 11.934 1.535M209.212 410.265c4.049 4.662 5.932 9.616 4.209 11.045-1.74 1.43-6.411-1.189-10.46-5.86-4.031-4.662-5.931-9.599-4.208-11.037 1.722-1.438 6.41 1.199 10.459 5.852M231.108 432.48c4.813 3.916 7.529 8.479 6.091 10.167-1.438 1.705-6.517-.089-11.33-4.004-4.813-3.916-7.529-8.462-6.091-10.167 1.456-1.705 6.518.097 11.33 4.004M255.526 422.562c4.901 3.81 7.725 8.32 6.304 10.042-1.42 1.731-6.517.036-11.4-3.782-4.901-3.81-7.725-8.311-6.305-10.042 1.403-1.723 6.518-.045 11.401 3.782M283.78 438.003c5.451 2.966 9.021 6.917 7.938 8.862-1.101 1.936-6.429 1.11-11.898-1.838-5.487-2.965-9.039-6.935-7.938-8.861 1.083-1.945 6.411-1.111 11.898 1.837M288.734 456.792c5.381 1.03 9.43 3.339 9.057 5.15-.391 1.82-5.043 2.451-10.424 1.403-5.381-1.039-9.412-3.348-9.039-5.15.373-1.821 5.043-2.451 10.406-1.403M262.257 465.902c5.434.737 9.643 2.744 9.394 4.457-.248 1.705-4.848 2.495-10.281 1.75-5.435-.764-9.644-2.753-9.395-4.458.248-1.723 4.847-2.504 10.282-1.749M313.276 451.819c4.795.932 8.471 2.85 8.169 4.297-.284 1.447-4.422 1.847-9.234.923-4.813-.915-8.488-2.85-8.187-4.28.267-1.455 4.422-1.863 9.252-.94M176.679 389.061c1.634 4.227 2.024 8.009.853 8.435-1.172.435-3.445-2.646-5.079-6.864-1.651-4.226-2.042-8.018-.87-8.453 1.171-.426 3.444 2.637 5.096 6.882" style="fill:#240b08"/><path d="M385.109 521.521c1.812-1.918 9.182-1.758 9.182-1.758 7.139-4.866 9.944-16.968 9.944-16.968-.977.373-5.132.026-5.132.026-5.346-.764-13.443.107-13.443.107-15.876 1.571-25.11 11.569-25.11 11.569 1.189-4.369 5.079-7.032 5.079-7.032 3.587-6.215 4.652-15.326 4.67-19.188.018-5.088-4.386-16.151-4.386-16.151-3.286 5.256-8.4 7.84-8.4 7.84-25.234 10.664-32.587 27.224-37.417 40.596-1.616 4.466-3.409 7.592-5.061 9.794a62.379 62.379 0 0 1 14.011 2.966c20.653-1.448 52.405-2.016 84.602 3.818 0 0-41.644-2.646-75.047.284a74.03 74.03 0 0 1 9.695 6.091l.267.204.231.231c2.681 2.326 6.783 4.741 8.595 6.073l8.063 4.12-7.529 4.315c-2.451 1.226-9.342 4.768-11.846 6.349-2.504 1.599-7.582 3.543-13.052 4.768 2.682 2.167 5.345 4.857 7.653 8.213.195.249 4.031 5.727 5.984 10.433 4.156 2.584 8.951 4.964 14.651 6.997 0 0 9.944 3.259 13.088 5.905 0 0-1.013-11.117-.888-14.899.142-3.818-1.918-12.893-5.932-18.904 0 0-4.049-2.433-5.541-6.73 0 0 9.892 9.465 25.856 10.167 0 0 8.134.417 13.408-.63 0 0 4.119-.568 5.132-.249 0 0-3.623-11.934-11.063-16.4 0 0-6.802.284-8.737-1.519 0 0 35.677.772 46.616-15.672h.035c-12.004-15.805-48.178-14.766-48.178-14.766" style="fill:#018b4b"/><path d="M337.126 580.302c-8.328-11.987-21.398-14.704-21.398-14.704 4.493-1.074 8.577.781 8.577.781 7.192-.044 16.143-3.143 19.428-5.239 3.232-2.069 13.23-6.846 13.23-6.846-3.836-1.021-11.26-7.281-11.26-7.281-20.6-15.228-38.819-13.372-53.044-10.983a53.892 53.892 0 0 1-5.327.63 17.428 17.428 0 0 1-4.92 9.696 17.05 17.05 0 0 1-3.231 2.513c11.01 28.787 40.951 68.858 40.951 68.858-22.092-23.379-37.542-50.186-45.959-66.825-.781.195-1.581.346-2.397.435 1.207 2.424 2.042 4.999 2.042 7.725 0 9.714-7.902 17.607-17.599 17.607-3.428 0-6.606-.995-9.306-2.69-3.463 7.982-5.398 17.714-3.995 30.047 0 0 1.491 10.024.426 13.763 0 0 9.838-6.615 13.035-8.187 3.533-1.75 10.832-7.592 14.544-13.594 0 0 .462-4.404 3.712-7.601 0 0-4.298 12.36 2.006 25.466 0 0 3.144 6.695 6.411 10.459 0 0 2.309 3.019 2.451 3.969 0 0 9.234-8.471 10.068-16.524 0 0-3.711-5.621-2.912-8.018 0 0 16.568 28.538 36.228 29.612l-.019-.044c9.128-17.021-8.808-44.201-8.808-44.201 2.521.542 5.559 5.967 5.559 5.967 7.512 3.418 19.693.018 19.693.018-.745-.604-2.237-4.094-2.237-4.094-1.651-4.642-5.949-10.715-5.949-10.715M238.62 559.063c0-2.815.905-5.47 2.22-7.991-9.021-.728-16.178-8.231-16.178-17.448 0-.693.053-1.368.124-2.033-27.419-2.877-55.726-2.584-55.726-2.584 20.227-2.752 40.081-2.628 56.702-1.474 2.486-6.712 8.95-11.507 16.498-11.507 5.576 0 10.655 2.797 13.958 7.263a18.234 18.234 0 0 1 1.599-1.803c-.444-1.216-.853-2.548-1.261-4.022-3.658-13.603-9.448-30.527-32.144-42.522 0 0-8.861-4.093-11.4-7.068 0 0-.427 11.232-.924 14.677-.532 3.836.231 13.017 3.161 19.41 0 0 3.445 2.877 4.28 7.29 0 0-7.938-10.478-22.536-12.893 0 0-7.405-1.296-12.413-.826 0 0-3.854.124-4.741-.302 0 0 1.865 12.227 8.169 17.475 0 0 6.837.24 8.382 2.255 0 0-33.386-2.993-45.426 12.146H151c9.11 17.004 42.141 18.141 42.141 18.141-1.9 1.696-8.187 1.039-8.187 1.039-7.139 4.076-11.188 15.778-11.188 15.778.941-.249 4.706.542 4.706.542 4.848 1.323 12.378 1.341 12.378 1.341 14.792.16 24.506-8.764 24.506-8.764-1.634 4.218-5.522 6.438-5.522 6.438-4.066 5.78-.391 16.293-.533 20.404-.053 1.483.143 3.437-2.415 12.662 3.055-2.486 12.893-5.505 12.893-5.505 13.035-4.164 19.961-10.38 24.524-17.199-3.481-3.215-5.683-7.815-5.683-12.92" style="fill:#018b4b"/><path d="M227.876 533.624c0 7.938 6.446 14.393 14.385 14.393l.515-.053 4.298-.506-2.326 3.001c-1.9 2.548-2.913 5.523-2.913 8.604 0 7.947 6.447 14.402 14.385 14.402s14.385-6.455 14.385-14.402c0-2.957-.906-5.816-2.646-8.267l-2.042-2.886 3.889.408c8.099.018 14.545-6.437 14.545-14.366 0-7.938-6.446-14.402-14.385-14.402-5.132 0-9.749 2.69-12.378 7.184l-1.42 2.433-1.368-2.468c-2.557-4.608-7.369-7.467-12.537-7.467-7.941-.002-14.387 6.454-14.387 14.392" style="fill:#a6181d"/><path d="M238.691 529.202c-1.758 2.433-4.174 3.658-5.381 2.752-1.208-.896-.746-3.614 1.012-6.047 1.794-2.415 4.191-3.658 5.399-2.744 1.208.906.746 3.606-1.03 6.039M266.057 529.708c-1.775 2.433-4.208 3.649-5.398 2.743-1.207-.888-.746-3.604 1.013-6.038 1.793-2.424 4.208-3.667 5.416-2.752 1.207.906.745 3.614-1.031 6.047M252.845 554.001c-1.776 2.441-4.209 3.658-5.398 2.744-1.208-.888-.746-3.605 1.012-6.038 1.776-2.424 4.191-3.658 5.399-2.752 1.206.914.762 3.622-1.013 6.046" style="fill:#fff"/><path d="M502.724 479.735s-2.415-12.271-23.316-20.12c0 0 11.188 3.454 23.583 1.572 0 0-9.75-12.564-32.214-21.355 0 0-30.936-12.093-34.381-13.505 0 0 23.654 5.878 31.042 7.29 0 0 3.765 1.101 3.605-.79 0 0 .408-7.139-34.398-24.516 0 0-22.322-10.051-37.879-13.505 0 0-73.235-61.444-164.691-79.673 0 0-13.515-19.49-19.18-25.457 0 0-15.556-21.221-39.441-20.902 0 0-11.632-.115-21.808 5.204-5.097.63-9.341-1.98-9.341-1.98-13.212-7.352-23.317-12.404-23.317-12.404-3.925-.941-2.042 2.513-2.042 2.513 2.202 4.235 17.421 23.388 17.421 23.388-23.548-2.983-27.845-1.012-27.845-1.012-2.522.471-1.101 2.752-1.101 2.752.941 1.731 7.121 4.546 7.121 4.546 8.897 4.102 23.086 12.715 23.086 12.715 10.353 7.068 16.48 36.263 16.48 36.263 5.967 23.397 12.413 40.658 12.413 40.658 1.083 1.731-.693-6.642-.693-6.642-.639-2.042-2.362-8.48-2.362-8.48-2.681-11.285-5.896-26.628-5.896-26.628-4.706-27.011-14.136-35.801-14.136-35.801-3.605-4.546-28.236-16.08-28.236-16.08 6.908-.782 33.421 3.835 33.421 3.835l-19.943-23.077 13.354 7.689c3.765 2.202 7.529 3.454 7.529 3.454s1.438 1.181 2.664 5.967c0 0 .639 4.396 7.228 4.396 0 0 5.807-.471 11.294-2.202 0 0 12.253-2.983 24.187 2.051 0 0 11.152 3.294 14.296 9.101 0 0 1.722 2.824-1.581 3.294 0 0-7.228 1.101-11.152-.941l.319.79s18.522 5.647 16.338 25.741c0 0-.781 8.64-1.101 11.623 0 0-3.623 18.682 10.193 29.994 0 0-2.824-8.009 1.882-16.799 0 0 .959 38.616 40.508 58.398 0 0 49.297 27.162 102.998 19.783 0 0-28.094 8.32-58.869 2.664 0 0-13.318-2.291-16-2.913 0 0-16.195-2.895-22.943-3.045 0 0-.48.471.94.781 0 0 21.044 7.849 44.112 13.346 0 0 16.497 4.395 20.103 5.656 0 0 6.446 1.412 4.563 5.647 0 0-11.472 22.145-68.156 22.145 0 0 12.235 2.362 23.388 3.942 0 0 7.405.995 10.211 3.276 0 0-17.74 15.077-30.917 34.38 0 0 4.706 1.403 5.807 2.833 0 0 20.404-19.001 31.717-27.481 0 0-9.11 28.582-13.656 38.474 0 0 7.21-.64 8.009-.64 0 0 22.589-45.888 35.002-56.827 0 0 10.211-10.522 20.404-10.993 0 0 10.371-2.042 27.792 2.042 0 0 28.414 8.471 59.509 23.237 0 0 29.053 15.228 49.138 3.925 0 0-29.994-15.388-35.481-18.372.001 0 17.812 8.036 40.419 6.775" style="fill:#592d09"/><path d="M236.259 353.828s7.423 6.677 12.732 1.305c.124-.177 2.682 14.1 12.396 23.974 0 0-15.77-.941-25.128-25.279M325.388 392.026c5.7 3.552 12.2 13.142 12.662 13.124-14.26.719-35.091-9.74-35.091-9.74 10.247 6.473 15.628 21.088 15.396 21.106-33.226-.808-59.544-23.628-59.544-23.628l.905-.257c22.092 12.644 36.37 12.377 36.352 11.925-5.771-13.461-15.556-24.249-15.805-24.24 32.268 12.813 43.171 5.274 43.401 5.265 2.397-6.659-2.415-14.997-2.184-15.006 5.576 9.634 38.181 20.414 38.891 20.6-17.722 4.492-35.001.63-34.983.851M356.892 409.527c33.705 5.079 22.748-10.158 22.518-10.38 17.74 4.307 19.285 11.659 19.517 11.872-21.685 8.764-42.035-1.492-42.035-1.492" style="fill:#fff"/></svg>