<svg xmlns="http://www.w3.org/2000/svg" width="102.78802mm" height="132.29167mm" viewBox="0 0 102.78802 132.29167"><defs><clipPath id="a" clipPathUnits="userSpaceOnUse"><path d="M0 0h595.276v765.354H0Z"/></clipPath><clipPath id="b" clipPathUnits="userSpaceOnUse"><path d="M0 0h595.276v765.354H0Z"/></clipPath></defs><path d="M.003 0v85.858c-.15 11.798 6.075 18.678 13.719 23.655l37.672 22.779 37.672-22.78c7.644-4.976 13.87-11.856 13.72-23.654V0Z" style="fill:#ffdc00;fill-opacity:1;stroke:none;stroke-width:.355596px;stroke-linecap:butt;stroke-linejoin:miter;stroke-opacity:1"/><g style="fill:#00a558;fill-opacity:1"><g style="fill:#00a558;fill-opacity:1"><path d="M0 0v-1.902h2.796v-1.659H0V-7.11h-2.003v8.769h5.356V0Z" style="fill:#00a558;fill-opacity:1;fill-rule:nonzero;stroke:none" transform="matrix(1.28162 0 0 -1.28162 12.404 14.135)"/></g><g clip-path="url(#a)" style="fill:#00a558;fill-opacity:1" transform="matrix(1.28162 0 0 -1.28162 -212.06 751.363)"><g style="fill:#00a558;fill-opacity:1"><path d="M0 0c0 2.69 1.73 4.467 4.313 4.467 1.292 0 2.394-.438 3.211-1.398L6.268 1.777c-.379.617-1.09 1.031-1.943 1.031-1.351 0-2.263-1.137-2.263-2.832 0-1.718.936-2.855 2.322-2.855.984 0 1.6.497 2.062 1.339l1.351-1.209c-.818-1.185-1.979-1.789-3.46-1.789C1.742-4.538 0-2.713 0 0" style="fill:#00a558;fill-opacity:1;fill-rule:nonzero;stroke:none" transform="translate(179.099 572.543)"/></g></g><g style="fill:#00a558;fill-opacity:1"><path d="M0 0h1.232l4.61-5.107L5.794 0h1.991v-8.768H6.564L1.955-3.661l.048-5.107H0Z" style="fill:#00a558;fill-opacity:1;fill-rule:nonzero;stroke:none" transform="matrix(1.28162 0 0 -1.28162 32.024 12.01)"/></g><g style="fill:#00a558;fill-opacity:1"><path d="M0 0h-3.188l-.497-1.505h-2.133l3.306 8.769h1.848l3.295-8.769H.498Zm-.557 1.659-1.031 3.116-1.042-3.116Z" style="fill:#00a558;fill-opacity:1;fill-rule:nonzero;stroke:none" transform="matrix(1.28162 0 0 -1.28162 50.521 21.319)"/></g><g style="fill:#00a558;fill-opacity:1"><path d="M0 0h1.232l4.61-5.107L5.794 0h1.991v-8.768h-1.22l-4.61 5.107.048-5.107H0Z" style="fill:#00a558;fill-opacity:1;fill-rule:nonzero;stroke:none" transform="matrix(1.28162 0 0 -1.28162 54.97 12.01)"/></g><g style="fill:#00a558;fill-opacity:1"><path d="M0 0h-2.311v-7.11h-2.002V0h-2.311v1.659H0Z" style="fill:#00a558;fill-opacity:1;fill-rule:nonzero;stroke:none" transform="matrix(1.28162 0 0 -1.28162 74.803 14.135)"/></g><g style="fill:#00a558;fill-opacity:1"><path d="M0 0v-1.659h-5.706V7.11H.006V5.451h-3.709V3.549h3.318V1.89h-3.318V0Z" style="fill:#00a558;fill-opacity:1;fill-rule:nonzero;stroke:none" transform="matrix(1.28162 0 0 -1.28162 83.483 21.121)"/></g><g clip-path="url(#b)" style="fill:#00a558;fill-opacity:1" transform="matrix(1.28162 0 0 -1.28162 -212.06 751.363)"><g style="fill:#00a558;fill-opacity:1"><path d="m0 0 .735 1.351C1.446.747 2.168.533 2.82.533c.794 0 1.256.285 1.256.83 0 .557-.545.841-1.374 1.114l-.391.13c-1.41.45-2.429 1.066-2.429 2.5 0 1.659 1.232 2.773 3.092 2.773.96 0 1.943-.32 2.797-1.007l-.865-1.399c-.593.51-1.185.747-1.861.747-.675 0-1.102-.308-1.102-.782 0-.533.546-.782 1.268-1.019l.391-.13C4.858 3.875 6.15 3.14 6.15 1.564c0-1.623-1.28-2.69-3.176-2.69C1.837-1.126.782-.723 0 0" style="fill:#00a558;fill-opacity:1;fill-rule:nonzero;stroke:none" transform="translate(231.84 569.13)"/></g><g style="fill:#00a558;fill-opacity:1"><path d="M0 0c0 1.074.556 2.071 1.471 2.635 2.16 1.333 4.47 2.783 5.995 3.821 3.252 2.214 5.244 3.841 5.244 9.169v42.484h4.935V15.625c0-7.581-3.5-10.593-7.402-13.248C7.183.294.841-3.538 0-4.046Z" style="fill:#00a558;fill-opacity:1;fill-rule:nonzero;stroke:none" transform="translate(215.427 503.853)"/></g><g style="fill:#00a558;fill-opacity:1"><path d="m0 0-27.627 31.778a.226.226 0 0 1-.396-.148V2.892c0-1.182.603-2.283 1.6-2.919l3.335-2.128v20.466c0 .25.309.365.473.177L-5.081-1.676a1.582 1.582 0 0 1 2.055-.288z" style="fill:#00a558;fill-opacity:1;fill-rule:nonzero;stroke:none" transform="translate(218.78 516.898)"/></g><g style="fill:#00a558;fill-opacity:1"><path d="M0 0h-3.42a1.512 1.512 0 0 1-1.512-1.512l-.003-19.593a.27.27 0 0 0-.473-.177L-22.825-1.25A3.645 3.645 0 0 1-25.572 0h-4.88L-.396-34.568A.226.226 0 0 1 0-34.42Z" style="fill:#00a558;fill-opacity:1;fill-rule:nonzero;stroke:none" transform="translate(220.361 561.961)"/></g><g style="fill:#00a558;fill-opacity:1"><path d="M0 0c-.07.209-.199.286-.306.313a.445.445 0 0 1-.102.013A.445.445 0 0 1-.51.313C-.617.286-.746.209-.816 0L-3.99-9.305l3.582-2.246 3.582 2.246z" style="fill:#00a558;fill-opacity:1;fill-rule:nonzero;stroke:none" transform="translate(205.96 505.324)"/></g><g style="fill:#00a558;fill-opacity:1"><path d="M0 0c1.318.336 2.708 1.156 2.779 1.2.041.023.066.07.066.121a.14.14 0 0 1-.066.121A13.4 13.4 0 0 1 .616 2.454c-.54.188-1.106.329-1.599.329-1.532 0-2.305-1.332-2.337-1.389a.153.153 0 0 1 0-.147c.019-.034.318-.549.901-.942.175-.119.376-.225.604-.305.247-.086.523-.142.831-.142.308 0 .642.056.984.142" style="fill:#00a558;fill-opacity:1;fill-rule:nonzero;stroke:none" transform="translate(209.668 505.487)"/></g><g style="fill:#00a558;fill-opacity:1"><path d="M0 0c-1.148-.383-2.218-1.015-2.283-1.053a.142.142 0 0 1-.066-.121.14.14 0 0 1 .066-.121c.073-.044 1.461-.865 2.781-1.2.34-.086.675-.142.981-.142.31 0 .586.056.833.142.277.098.516.235.716.384.508.38.77.831.789.863a.153.153 0 0 1 0 .147C3.785-1.044 3.013.288 1.479.288 1.024.288.504.167 0 0" style="fill:#00a558;fill-opacity:1;fill-rule:nonzero;stroke:none" transform="translate(200.94 507.982)"/></g><g style="fill:#00a558;fill-opacity:1"><path d="M0 0a.135.135 0 0 1 .145 0c.058.036 1.389.894 1.389 2.604 0 1.669-1.285 4.089-1.341 4.191-.048.089-.193.089-.24 0-.056-.102-1.343-2.524-1.343-4.19C-1.39.894-.058.036 0 0" style="fill:#00a558;fill-opacity:1;fill-rule:nonzero;stroke:none" transform="translate(205.48 507.819)"/></g><g style="fill:#00a558;fill-opacity:1"><path d="M0 0a3.097 3.097 0 0 1-1.471 2.635c-2.16 1.333-4.471 2.795-5.996 3.833-3.252 2.214-5.244 3.841-5.244 9.169v42.484h-4.935V15.637c0-7.581 3.5-10.593 7.402-13.248C-7.184.306-.841-3.538 0-4.046Z" style="fill:#00a558;fill-opacity:1;fill-rule:nonzero;stroke:none" transform="translate(195.692 503.842)"/></g></g></g></svg>