<svg xmlns="http://www.w3.org/2000/svg" xml:space="preserve" width="264.86493" height="252" viewBox="0 0 264.86493 252"><path d="M52.233 152.4h4.98v10.894h-4.98Z" style="opacity:1;fill:none;fill-opacity:1;fill-rule:nonzero;stroke:#ff0;stroke-width:.13743949;stroke-linecap:butt;stroke-linejoin:miter;stroke-miterlimit:4;stroke-dasharray:none;stroke-dashoffset:0;stroke-opacity:1"/><path d="m296.858 419.537-246.136.002L-25.34 185.45 173.787 40.773l199.13 144.674Z" style="opacity:1;fill:#24216a;fill-opacity:1;fill-rule:nonzero;stroke:none;stroke-width:.1239967;stroke-linecap:butt;stroke-linejoin:miter;stroke-miterlimit:4;stroke-dasharray:none;stroke-dashoffset:0;stroke-opacity:1" transform="matrix(.66004 0 0 .66004 17.726 -25.912)"/><path d="m284.516 402.523-221.43.002L-5.34 191.934 173.799 61.78l179.14 130.151Z" style="opacity:1;fill:#fff;fill-opacity:1;fill-rule:nonzero;stroke:none;stroke-width:.1239967;stroke-linecap:butt;stroke-linejoin:miter;stroke-miterlimit:4;stroke-dasharray:none;stroke-dashoffset:0;stroke-opacity:1" transform="matrix(.66004 0 0 .66004 17.726 -25.912)"/><path d="M170.98 77.5c.121 25.13-13.498 46.43-62.818 78.291-74.722 51.627-71.048 74.314-80.169 101.414L7.66 196.148Z" style="fill:#e01e13;fill-opacity:1;fill-rule:evenodd;stroke:none;stroke-width:1px;stroke-linecap:butt;stroke-linejoin:miter;stroke-opacity:1" transform="matrix(.66004 0 0 .66004 17.726 -25.912)"/><path d="M47.4 315.604c-13.613-39.053-7.836-68.224 5.302-90.715 12.266-21 30.706-36.683 51.25-50.83-13.549 16.71-22.542 30.332-28.426 41.85-15.923 31.164-13.012 50.508-7.696 66.679.885-21.65 3.9-42.796 26.642-60.148-15.747 38.606-6.326 62.13 2.288 73.55z" style="fill:#e01e13;fill-opacity:1;fill-rule:evenodd;stroke:none;stroke-width:1px;stroke-linecap:butt;stroke-linejoin:miter;stroke-opacity:1" transform="matrix(.66004 0 0 .66004 17.726 -25.912)"/><path d="m173.809 276.434-123.504 50.96 20.818 64.07h205.37l20.818-64.07z" style="opacity:1;fill:#e01e13;fill-opacity:1;fill-rule:nonzero;stroke:none;stroke-width:1;stroke-linecap:butt;stroke-linejoin:miter;stroke-miterlimit:4;stroke-dasharray:none;stroke-dashoffset:0;stroke-opacity:1" transform="matrix(.66004 0 0 .66004 17.726 -25.912)"/><path d="M164.75 224.625c-2.382 22.152 6.283 25.568 14.75 30.375.584-9.314 3.636-11.747 7.876-12.691 20.168-4.494 25.814 17.91 38.749 25.441 7.145 4.105 21.696 2.367 29.152.199 25.982-7.556 35.25-34.164 37.348-54.199 4.421-2.63 9.724-2.878 11-14-21.31-8.74-39.136-19.224-55.125-30.625 2.066-1.462 5.655-1.307 6.375-4.875.205-.588-3.874-3.873-8.399-7.863-10.245-9.035-27.517-22.776-36.226-24.762-.195-9.384-1.965-18.514-12.375-26.25.042 7.371-1.088 15.057-4 21.75l-8-.625c3.983-15.019 4.388-31.188-4.633-45.647l158.712 115.293-38.81 119.446-123.927-48.971c-11.98-5.196-25.897-17.065-12.467-41.996Z" style="fill:#24216a;fill-opacity:1;fill-rule:evenodd;stroke:none;stroke-width:.5;stroke-linecap:butt;stroke-linejoin:miter;stroke-miterlimit:4;stroke-dasharray:none;stroke-opacity:1" transform="matrix(.66004 0 0 .66004 17.726 -25.912)"/><path d="M201.375 164.625c8.524 4.477 13.294 10.659 16.375 18.625 3.34-1.196 7.173-1.448 11.5-1.625 4.397-1.375 6.035-5.422 6.375-9.75-2.48 1.354-5.355 1.52-8.5.875-7.58-7.858-16.388-9.185-25.75-8.125z" style="fill:#201e5f;fill-opacity:1;fill-rule:evenodd;stroke:none;stroke-width:.5;stroke-linecap:butt;stroke-linejoin:miter;stroke-miterlimit:4;stroke-dasharray:none;stroke-opacity:1" transform="matrix(.66004 0 0 .66004 17.726 -25.912)"/><path d="M175.038 315.43c.833-8.436 12.488-7.34 12.488-7.34l-4.395-5.441s-5.239-.709-7.573 5.257a13.1 13.1 0 0 0-.13.347c-.033.091-.106.15-.205.123-.073-.021-.125-.083-.1-.205.027-.14.05-.216.075-.315 1.458-5.916 4.557-10.377 4.557-10.377l-5.806-7.837-5.806 7.837s3.1 4.461 4.557 10.377c.025.099.049.174.076.315.024.122-.027.184-.101.205-.097.027-.172-.032-.204-.123-.05-.139-.095-.257-.13-.347-2.334-5.966-7.573-5.257-7.573-5.257l-4.396 5.44s11.655-1.095 12.488 7.34h2.178z" style="fill:#fff;fill-opacity:1;fill-rule:nonzero;stroke:none" transform="matrix(.66004 0 0 .66004 17.726 -25.912)"/><g style="fill:#fff;stroke:none"><path d="M85.125 326.625V377.002H118l-3.125-11.15h-15.5v-39.227z" style="opacity:1;fill:#fff;fill-opacity:1;fill-rule:nonzero;stroke:none;stroke-width:.50000978;stroke-linecap:butt;stroke-linejoin:miter;stroke-miterlimit:4;stroke-dasharray:none;stroke-dashoffset:0;stroke-opacity:1" transform="matrix(.66004 0 0 .66004 18.166 -25.912)"/><path d="M229.81 326.687c-4.896 0-8.84 3.628-8.84 8.133v27.806l4.84 14.313h26.504c4.897 0 8.84-3.627 8.84-8.132v-9.841h-13.463v7.476h-13.257v-29.007h13.257v7.226h13.463v-9.841c0-4.505-3.943-8.133-8.84-8.133z" style="opacity:1;fill:#fff;fill-opacity:1;fill-rule:nonzero;stroke:none;stroke-width:.623016;stroke-linecap:butt;stroke-linejoin:miter;stroke-miterlimit:4;stroke-dasharray:none;stroke-dashoffset:0;stroke-opacity:1" transform="matrix(.66004 0 0 .66004 18.166 -25.912)"/><path d="M131.81 326.687c-4.896 0-8.84 3.627-8.84 8.132v27.807l4.84 14.314h26.504c4.897 0 8.84-3.627 8.84-8.132v-33.989c0-4.505-3.943-8.132-8.84-8.132zm4.624 10.748h13.257v29.007h-13.257zM183.933 355.376l14.758 3.5v7.566h-13.258v-3.816h-13.462l4.84 14.314h26.503c4.897 0 8.84-3.627 8.84-8.132V357.5c-.236-3.964-3.354-7.365-15.463-9.75l-11.258-2.75v-7.566h13.258v4.191h13.463v-6.807c0-4.505-3.943-8.132-8.84-8.132H180.81c-4.896 0-8.84 3.627-8.84 8.132v12.932c.147 4.836 6.96 6.309 11.963 7.625z" style="opacity:1;fill:#fff;fill-opacity:1;fill-rule:nonzero;stroke:none;stroke-width:.6230278;stroke-linecap:butt;stroke-linejoin:miter;stroke-miterlimit:4;stroke-dasharray:none;stroke-dashoffset:0;stroke-opacity:1" transform="matrix(.66004 0 0 .66004 18.166 -25.912)"/></g></svg>