<svg xmlns="http://www.w3.org/2000/svg" xml:space="preserve" id="Calque_1" width="1000" height="1166.0601" x="0px" y="0px" version="1.1" viewBox="0 0 999.99996 1166.06"><style>.st1{fill:#c88c28}.st2{fill:#f40043}</style><g id="ol-logo-Calque_1-2-62beae5c989f9" style="stroke-width:1.31879997" transform="scale(.75827)"><path id="path4" d="M1301.2 19.6H17.6l-.1 1071.9c0 72.7 20.3 129.8 60.5 169.7 38.7 38.4 93.6 58.1 167.8 60.2 177.4 5 283.1 44.3 364.9 135.9l48.7 59.4 48.7-59.4c81.8-91.5 187.5-130.9 364.9-135.9 74.3-2.1 129.2-21.8 167.8-60.2 40.1-39.8 60.5-96.9 60.5-169.7z" style="fill:#fff;stroke-width:1.73923337"/><path id="path6" d="M1318.6 0H.1L0 1101.1c0 74.7 20.9 133.4 62.1 174.3 39.7 39.4 96.1 59.7 172.4 61.8 182.2 5.1 290.8 45.5 374.8 139.6l50.1 61 50.1-61c84-94 192.6-134.5 374.8-139.6 76.3-2.2 132.7-22.4 172.4-61.8 41.2-40.9 62.1-99.6 62.1-174.3zm-85 1252.1c-34.5 34.3-85.1 50.4-150.2 52.3-187.7 5.2-306 46.8-398.8 151.1l-25.1 30.6-25.1-30.6c-92.8-104.2-211.1-145.8-398.8-151.1-65.1-1.8-115.7-18-150.2-52.3-34.8-34.5-52.4-85.3-52.4-151L32.9 32.8h1252.9l.1 1068.3c.1 65.7-17.6 116.5-52.3 151" class="st1" style="fill:#c88c28;stroke-width:1.73923337"/><path id="path8" d="M440 314.4c-27.5 0-47.8 20.9-47.8 48.4s20.3 48 47.8 48c27.5 0 47-20.5 47-48s-20.1-48.4-47-48.4M692.1 139H674v45h18.1c17.2 0 26.7-10 26.7-22.2S709 139 692.1 139M914 382.9h44l-21.9-52.6ZM194.1 220.4c22.9 0 39.9-17.4 39.9-40.8s-17-41.1-39.9-41.1-40.6 17.8-40.6 41.1 17.2 40.8 40.6 40.8m684.9 0c22.9 0 39.9-17.6 39.9-40.8 0-23.2-17-41.1-39.9-41.1s-40.6 17.9-40.6 41.1c0 23.2 17.2 40.8 40.6 40.8" class="st2" style="fill:#f40043;stroke-width:1.73923337"/><path id="path10" d="M1253.3 65.3H65.4l-.1 422.5h1188zM878.9 116c37.5 0 64.7 27.1 64.7 63.6 0 21.6-9.7 40.1-25.7 51.2l23 20.9-15 17.4-31-28.1c-5.1 1.2-10.4 1.7-16 1.7-37.8 0-65.4-27.4-65.4-63.1s27.6-63.6 65.4-63.6m-113.7 1.5h24.2v123.6h-24.3zm-274.2 0h15.3l46.8 81.2 47.8-81.2H616l3.7 123.6h-23.9l-1-74.2-34.1 59.8h-15.1l-33.4-59.8-1.2 74.2h-23.7zm-106.9 0 29.5 51.5 29.5-51.5h27.4L424.7 193v48.2h-24.3V193L355 117.6h29.1zm-101.1 0h24.2v102.3H367v21.3h-84Zm-88.9-1.5c37.5 0 64.7 27.1 64.7 63.6s-27.2 63.1-64.7 63.1-65.4-27.4-65.4-63.1 27.6-63.6 65.4-63.6m42.6 319.3h-99V289.7h28.6v120.5h70.4zm67.9-56.8v56.7H276v-56.7l-53.4-88.8h34.1l34.8 60.6 34.8-60.6h32.3zM440 437.1c-44.5 0-77-32.3-77-74.3s32.5-74.9 77-74.9 76.2 31.9 76.2 74.9c0 43-32.1 74.3-76.2 74.3m235.7-.2h-16.2l-86.7-97.3v95.6h-28v-147H561l86.5 97.1v-95.6h28.2zM674 205.6v35.5h-24.2V117.6h43.6c29.9 0 50.5 17.4 50.5 44.7 0 27.3-20.9 43.2-51.5 43.4zm170 231.3h-16.2l-86.7-97.3v95.6h-28v-147h16.2l86.5 97.1v-95.6H844Zm134.8-1.6-11.6-28.1h-62.3l-11.6 28.1H863l63.8-145.5h18.8l63.3 145.5zm78.2 0h-28.6V289.7h28.6Zm17.8-247.3c0 35.7-21.6 54.7-54.3 54.7-32.7 0-54.3-19-54.3-54.7v-70.5h24.3V190c0 16.7 9.8 30.8 30.2 30.8s30.1-14.1 30.1-30.8v-72.4h24.1V188Zm63.7 249.1c-24.2 0-42.2-6.4-56.7-17.6l14.3-22.8c13.1 10.5 27.5 15.5 42.8 15.5 13 0 22.8-5.6 22.8-17.4 0-11.8-8.3-16.8-30-22.8-24.6-6.8-43.9-16.4-43.9-41.8s21.1-42.4 52.4-42.4c21.3 0 37.2 6 48.6 14.9l-13.1 21.5c-9.9-7.3-21.1-11.6-35.8-11.6-13.2 0-23.2 5-23.2 15.7s9.5 13.9 29.6 19.9c24.6 7.2 43.7 16.8 43.7 44.7 0 27.9-20.4 44.2-51.5 44.2m51.6-196h-85.3V117.6h84.7V139H1129v29h53.3v21.5H1129v30.4h61v21.2z" class="st2" style="fill:#f40043;stroke-width:1.73923337"/><path id="path12" d="M1253.4 520.3H65.4l-.1 580.8c0 114.3 57.5 166.6 170.1 170.1 196.1 6.3 330.4 50.7 424 158.3 93.5-107.6 227.9-152 424-158.3 112.6-3.6 170.1-55.8 170.1-170.1zm-810.9 653.6c-159 0-288.4-129.4-288.4-288.4 0-159 129.4-288.4 288.4-288.4 159 0 288.4 129.4 288.4 288.4 0 159-129.4 288.4-288.4 288.4m700.6-13.1H811V610.2h160.3v411.1h171.8z" style="fill:#0f23aa;stroke-width:1.73923337"/><path id="path14" d="M384.9 770.5c11.9-3.6 21.9-8.7 33.6-4.8-4.3-8.7-14.4-12.7-23.6-10.1-4.8 1.3-9.1 3.5-13 4.8-11.9 5.3-23.1 5.3-35.3 1.7 9 11.1 25.7 12.7 38.3 8.4" class="st1" style="fill:#c88c28;stroke-width:1.73923337"/><path id="path16" d="M628.5 806.3c-16.6 33.2-82.1 27.1-78.2 65l-4.8-8.7c-5.6-10.5-1.3-23.6 9.2-29.2l60.2-31.8c19.2-10.1 26.2-35.4 13.5-54.2-10.1-14.8-29.3-20-45.9-13.9 0 0-17.5 7.8-24.9-12.7-8.7 9.2-4.3 21.8 1.3 25.4-5.6.8-16.6 8.6-17 24 12.7 3.5 26.6-1.3 29.2-5.3-.8 4.8 7.4 14.8 19.3 12.7-10.1-10.5-7.4-22.3 0-25.3 6.9-2.6 15.7-.5 20.5 5.6 6.6 8.7 3.5 21-5.8 25.7l-60.2 31.8c-20.5 10.5-28.4 36.3-17.4 56.8l27.1 51.1c3 5.6 2.2 13.1-2.6 17.5-6.1 6.5-16.6 5.2-21.9-2.3-16.5-24-30.5-49.7-41.4-77.2 9.2 3.5 16.2-2.6 16.2-2.6s-10.5-7.4-4.8-22.6c3-9.2 4-17.1 2.6-24.5 2.6 2.3 6.6 4 11.4 3.6-4-18 .8-18.8 2.2-34.5.3-7.1-1.3-12.3-3.5-16.2 3.8.4 8.3 0 12.2-4-17.1-7.1-14-31-34.5-33.7 7.8-3.5 8.3-10.4 8.3-11.7-17.5 1.3-30.2-11.4-49-11.4-20.5 0-26.1 5.3-33.5 5.3-10.5 0-15.7 5.2-14.4 10.4l-17.5 4.8c-2.6 4.8 0 8.7 2.2 10.1 0 0-3 2.6-1.8 7 1.3 4.9 4.4 13.5 4.4 13.5l3.5-3.5c1.8-1.7 4.3-3 7.4-3.5l5.6-.5c7.1-.8 13.5 2.6 17.1 9.2l7.4 14.8h-37.6s2.6 8.3 3.5 10.9c1.8 4 5.3 5.8 11.9 5.8 7 0 10.9-1 10.9-1v10.1c0 5.6-4.4 13-19.6 8.7l-31.9-9.2c-18.8-4.8-28-13.5-40.7-29.2l-3.8-6.1c-3.1-4-4.4-8.7-4-13.5.4-4 .4-9.1-.5-14-1.7-11.7-10.4-15.7-12.7-16.2.5 1.3 4.4 11.9 0 21.4-3.5-10.4-10.4-18.3-26.6-19.6 0 0 11.9 10.1 12.2 23.1-14.4-9.6-31.9-3-31.9-3s27.9 5.6 27.9 27.9c0 8.3-4.3 19.3-17.4 26.7 0 0 13.9 3 23.1-2.3 2.6-1.7 6.1-1.7 8.7.5 9.1 9.2 29.2 28.9 32.2 35 6.6 13.1-2.2 23.6-2.2 23.6s14-1 18.8-9.2c.8-1.3 2.6-1.8 4-1.3l26.1 15.7-17.6 11.8c-15.7 10.4-34 15.7-52.5 15.7h-17.8c-5.6 0-11.4-1.3-16.2-4-4.8-2.2-12.2-5.3-19.6-5.3-15.7 0-20.5 7.9-20.5 7.9s15.7-.8 21.8 5.3c-9.6-1.3-27.1 3-28.9 18.8 0 0 11.4-6.6 22.3-4.9-7.8 3.6-16.5 14-6.1 30.7 0 0 1-17.5 22.8-17.5s18.8 19.2 18.8 19.2 9.6-2.2 11.7-14.4c.5-2.6 2.2-4.8 4.8-4.8h45.9c1.8 0 3 1.3 3 2.6 2.3 9.6 15 12.2 15 12.2s-6.2-11.4 3.5-15.7l33.5-14.5 15.3 20.1c-25.3 14.4-61.1 30.5-70.8 34.5-20 7.9-25.8 7.9-34.5 7.4 0 0 10.5 9.6 30.2 7.4 1.8 0 3.5-.5 5.6-1.3 1.8-.8 4 0 4.8 1.8 3.1 6.1 7.9 15.7 9.2 19.6 3.1 8.3-2.6 10.4-8.7 13.1-8.3 4-17 7.9-31 12.7-21.3-12.2-37.5-.8-37.5-.8s12.6 2.2 18.7 9.6c-12.2-1-25.3 6.1-29.7 20 3.1-1.3 16.6-6.9 28.4-5.2-3.5 3-8.3 9.6-8.3 18.3.5 4.3 1.3 6.5 1.3 6.5s10.5-16.5 29.7-16.5c8.3 0 12.2 4.3 12.2 8.7 0 3.5-2.6 7.8-2.6 7.8s25.4-2.2 17.1-24.8l46.2-16.6c2.2-.8 4.8-.5 6.1 1.3 3.1 2.6 8.7 6.1 16.6 5.3l-13.5-30.5c-3.6-7.9.8-16.6 9.9-19.3l24.1-7.8s6.5 5.2 27.5 22.6c13.9 11.4 13.9 31.5 13.9 31.5s12.2-4.8 12.2-15.8c2.3 1 4.9 1.8 7.4 2.3 12.2 3 20.6 13.5 12.2 30.5l-7.8 14.4c-3.1 5.3-6.1 6.6-10.5 6.6-4.8-.5-10.9-.8-17 0-22.6 2.2-23.1 17.5-23.1 17.5s7.4-4.4 16.5-4.4c3.6 0 7.1 1 10.1 1.8 0 0-18.8 3-18.8 19.2 0 6.6 5.3 10.1 5.3 10.1s4.8-17 24.1-17c0 0-10.5 4.8-10.5 14.8s9.2 13.1 9.2 13.1-6.1-15.2 23.1-15.2h7.9c5.2 0 9.6-3.1 11.4-7.9l5.6-15.7c3.5-9.2 9.2-9.2 12.7-8.4 5.6 1.3 5.6 9.2 5.6 9.2s9.6-14.4-1.8-27.5c-2.2-2.6-3-6.9-1.7-10.4l7.9-21.8c17.4 4.3 25.8-10.1 25.8-10.1-18.5-4-27.5-9.7-54.1-31.5-11.8-9.6-19.3-21.8-19.3-24 6.6 7 15.7 10.9 25.3 10.9 7.4 0 14.8-2.6 21.4-7.4 5.8-4.8 9.6-10.9 11.4-17.5 9.2-15.7 31-3.1 34.5-35.3-9.2 13-29.2 4.3-33.2 20.5-8.3-35.8 43.2-12.2 43.7-66.3-12.7 21.8-57.7 14.4-54.6 41.4l-.5-.4c-17.4-56.1 68.2-19.9 63.4-94m-211.8-76.1c-6.5 0-8.3-9.6 1.8-9.6 7.1 0 13.5 2.2 13.5 2.2s-9.1 7.4-15.3 7.4" class="st1" style="fill:#c88c28;stroke-width:1.73923337"/></g></svg>