<svg xmlns="http://www.w3.org/2000/svg" width="181.80766pt" height="189.5pt" style="fill-rule:evenodd" viewBox="0 0 181.80766 189.5"><path d="M489.832 537.159c59.268-72.519 81.558-157.9 81.558-245.267v-83.359C420.186 151.607 367.251 113.378 300 113.378c-67.224 0-120.142 38.229-271.39 95.155v83.359c0 130.404 49.645 256.337 197.771 341.664 22.849 13.163 58.833 29.36 73.619 41.334 14.786-11.974 50.789-28.171 73.646-41.334 45.032-25.935 80.963-55.631 109.152-88.059l7.034-8.338" style="fill:#fff;stroke:none" transform="translate(-8.478 -35.072) scale(.33127)"/><path d="M300 113.378c-67.224 0-120.142 38.229-271.39 95.155v83.359c0 130.404 49.645 256.337 197.771 341.664 22.849 13.163 58.833 29.36 73.619 41.334 14.786-11.974 50.789-28.171 73.646-41.334 45.032-25.935 80.963-55.631 109.152-88.059h-3.797c-28.081 32.02-63.755 61.415-108.335 87.119-21.438 12.347-54.461 27.372-70.666 39.045-16.205-11.673-49.192-26.698-70.665-39.045-148.082-85.345-197.744-211.278-197.744-341.7v-80.981C181.632 153.469 233.494 115.4 300 115.95c66.488.586 118.368 37.519 268.409 93.985v80.981c0 86.605-21.882 171.24-79.979 243.317l1.402 2.926c59.268-72.519 81.558-157.9 81.558-245.267v-83.359C420.186 151.607 367.251 113.378 300 113.378Z" style="fill:#1f211d;stroke:none" transform="translate(-8.478 -35.072) scale(.33127)"/><path d="M300 663.323c-12.675-11.016-30.193-18.75-53.565-30.955C92.695 551.954 39.148 420.45 39.148 297.16v-83.039C126.906 187.724 225.254 123.56 300 123.56v539.763" style="fill:#beb1aa;fill-opacity:1;stroke:none;stroke-opacity:1" transform="translate(-8.478 -35.072) scale(.33127)"/><path d="M300 663.323c12.684-11.016 30.21-18.75 53.591-30.955C507.305 551.954 560.896 420.45 560.896 297.16v-83.039C473.103 187.724 374.772 123.56 300 123.56v539.763" style="fill:#b7183f;fill-opacity:1;stroke:none;stroke-opacity:1" transform="translate(-8.478 -35.072) scale(.33127)"/><path d="m341.608 381.618-18.857-40.872c5.925-10.164 19.789-28.17 30.867-38.317 11.078-10.183 26.299-30.725 26.299-65.14 0-17.083-8.276-45.272-26.752-61.432 37.875 14.777 54.949 59.8 48.5 96.078 40.633-20.791 99.768-33.723 99.768-97.923 0-25.421-15.717-48.962-37.9-65.122 83.145 29.075 69.308 117.312 20.329 151.957 28.65 4.613 53.592 17.562 65.593 45.733-21.705-17.562-38.327-27.266-69.265-27.266-66.062 0-118.27 46.194-138.582 102.304M288.163 515.339s-.435-6.208-.674-11.299c-.231-5.109-1.392-9.012-2.759-12.241l-16.825-41.582v-18.449l-9.039-8.799v-20.79l25.864-56.341h30.54l25.864 56.341v20.79l-9.03 8.799v18.449l-16.834 41.582c-1.367 3.229-2.529 7.132-2.768 12.241-.213 5.091-.692 11.299-.692 11.299h-23.647M258.392 381.618l18.875-40.872c-5.935-10.164-19.798-28.17-30.876-38.317-11.087-10.183-26.308-30.725-26.308-65.14 0-17.083 8.302-45.272 26.778-61.432-37.892 14.777-54.966 59.8-48.5 96.078-40.677-20.791-99.785-33.723-99.785-97.923 0-25.421 15.735-48.962 37.874-65.122-83.128 29.075-69.265 117.312-20.312 151.957-28.64 4.613-53.583 17.562-65.593 45.733 21.687-17.562 38.345-27.266 69.265-27.266 66.089 0 118.261 46.194 138.582 102.304M271.227 596.623c-.276 1.206.124 2.27 1.197 2.554.727.195 1.578.142 2.51-.107l255.167-53.999-3.611 5.056-264.328 64.058c-3.974.549-8.098.958-10.52-.816-2.049-1.508-1.854-3.655-1.011-7.38l13.73-53.219c.346-1.632-1.073-2.377-3.432-1.933-4.817.958-8.702 3.423-14.13 6.51-13.899 7.929-27.922 17.261-41.094 26.982l49.192-13.908-3.814 11.602-63.384 15.824-42.743 34.29c-8.293 7.628-14.707 12.383-27.532 13.11l5.668-5.074 45.866-37.945-48.953 12.595c-2.767.355-6.741-.567-7.814-3.015l72.226-21.288c27.302-20.968 54.257-40.269 84.61-53.84 4.31-1.898 11.3-3.69 15.025-.354 2.306 2.075 1.996 5.907 1.304 8.586l-14.129 51.711" style="fill:#1f211d;stroke:none" transform="translate(-8.478 -35.072) scale(.33127)"/><path d="M427.468 534.481c-3.104 7.433-9.828 13.482-14.972 16.657.399-5.055 5.073-14.848 12.524-18.361 2.191-.851 2.954.267 2.448 1.704m-44.048 15.007c2.883-10.892 7.895-20.773 16.818-29.234 1.161-1.1 2.492-2.377 3.956-1.721 1.108.479 1.366 1.969.603 3.601-1.632 3.513-4.231 7.717-6.865 11.141-4.054 5.232-9.358 11.53-14.512 16.213m112.895-17.917c-1.144-6.776-8.736-13.162-14.679-15.628 0 0-8.116 16.32-11.478 21.536-2.945 3.849-5.339 7.716-8.993 10.271-.799.461-2.564 1.543-2.564.124.585-7.521 9.65-12.985 5.286-20.312-2.119-3.601-12.657-3.814-18.759-5.392-3.291 12.382-8.418 24.037-19.984 32.073-3.637 2.554-9.012 5.712-11.477 3.228 5.428-3.636 22.449-15.575 21.464-27.159-.363-3.796-3.264-5.659-5.304-6.351-2.652-.905-7.317-.78-11.202 1.65-10.272 6.244-17.731 18.857-16.311 32.339-3.496 2.271-16.916 10.431-20.463 1.047 11.264-9.118 26.485-24.658 31.124-41.05.727-2.43.248-6.705-2.475-8.71-6.918-5.109-15.895-.851-21.456 4.79-12.604 13.5-19.451 29.306-19.691 47.471-3.85 3.512-8.409 6.386-13.349 7.522-1.783.39-2.812-1.278-2.723-3.034.346-8.87 2.723-15.77 7.335-24.143l10.36-2.448c.922-2.023 2.218-4.772 2.812-6.67l-9.739 2.997c2.333-4.594 5.96-8.958 9.34-13.145-11.824-1.738-21.235 8.639-25.43 18.113-4.852 2.412-12.081 2.182-14.662 8.231l11.842-2.644-3.247 9.811c-3.929 5.321-15.859 17.58-18.077 17.757-1.685.177-.017-4.169.71-6.457 2.306-7.22 6.848-10.875 7.397-16.782.196-2.164-2.421-3.92-6.359-2.749-9.739 2.891-18.698 13.357-26.273 22.21l-.798.904c2.076-5.393 5.686-10.981 8.923-15.806-18.999 1.792-23.105 24.623-27.346 36.934l9.305-1.632c8.373-10.484 15.788-20.844 26.086-30.246l1.401-1.1c-1.543 2.36-4.053 7.876-5.109 10.963-1.215 3.637-3.051 10.981.134 14.05 1.233 1.188 3.539 1.561 5.357 1.047 8.152-2.307 16.09-9.757 23.052-17.776-.079 5.287 1.872 9.544 6.067 10.343 7.823 1.561 19.47-5.996 25.555-10.662 7.246 9.633 24.019.479 33.297-4.31 0 0 1.907 1.365 3.601 1.72 17.003 3.832 32.17-16.693 40.854-30.831 1.047.07 3.761.408 4.719.745.417.142.692.514.47.975-2.359 5.482-7.841 11.886-5.224 17.545 1.099 2.395 4.159 3.477 6.678 3.14 12.613-1.686 19.328-16.427 25.981-26.255 3.361 1.81 5.96 4.985 5.915 7.823-.018 3.034-.851 4.329-3.14 5.695-1.756 1.011-4.559 1.046-6.705.213-1.508 2.04-4.63 6.475-6.484 8.604 7.522-.107 15.186-1.899 20.729-7.008 3.069-2.821 4.612-7.983 3.707-13.571M140.689 503.064h4.417l-3.636 6.102 3.548 6.475h-4.417l-2.98-5.605v5.534H133.7v-12.506h3.921v5.003l3.068-5.003M186.014 503.685c0 .017-.905-.869-3.539-.869-2.803 0-5.615 1.241-5.615 4.257 0 1.401 1.056 2.448 2.067 2.927 1.127.479 3.167.993 3.149 1.544-.018.603-.878.815-1.552.815-1.029 0-2.555-.549-3.335-1.028v3.565s1.357.941 3.956.941c2.527 0 5.791-1.491 5.791-4.169 0-1.863-.647-2.395-2.359-3.247-1.073-.55-2.776-.638-2.776-1.419 0-.816.692-.887 1.756-.887.79 0 2.182.532 2.457.869v-3.299M159.653 510.39h2.076l-1.038-4.346-1.038 4.346m-.541 2.981-.568 2.253h-4.284l3.087-12.613h6.67l3.069 12.613h-4.213l-.603-2.253h-3.158M265.284 510.39h2.075l-1.055-4.346-1.02 4.346m-.506 2.981-.603 2.253h-4.266l3.069-12.613h6.669l3.069 12.613h-4.213l-.621-2.253h-3.104M204.321 510.816v4.825h4.346v-12.648h-4.346v4.683h-2.501v-4.683h-4.328v12.648h4.328v-4.825h2.501" style="fill:#1f211d;stroke:none" transform="translate(-8.478 -35.072) scale(.33127)"/><path d="M221.449 515.624v-12.613" style="fill:none;stroke:#000;stroke-width:4.30518007" transform="translate(-8.478 -35.072) scale(.33127)"/><path d="m243.251 515.641 2.324-7.504v7.504h4v-12.577h-6.067l-1.526 6.564-1.525-6.564h-6.067v12.577h3.991v-7.504l2.307 7.504h2.563" style="fill:#1f211d;stroke:none" transform="translate(-8.478 -35.072) scale(.33127)"/></svg>