<svg xmlns="http://www.w3.org/2000/svg" width="78.902611mm" height="87.3125mm" viewBox="0 0 78.902611 87.3125"><path d="M104.33 79.564c.479 0 .93 2.233 3.569 5.423 2.074 2.511 5.112 3.134 5.222 4.312.824-.2 1.749-.608 3.354-1.844 2.472-1.917 3.315-4.178 3.794-3.958.48.22.83 3.963 2.693 6.171a13.415 13.415 0 0 0 3.354 2.693c.771.479 1.437.719 1.212.992-.374.407-4.183.771-6.382 3.08-1.221 1.284-1.59 3.464-1.59 3.464.824.053 5.112.384 7.186.604 1.438.149 5.932.56 6.123.714.192.153.091.177.106 2.783 0 .03 1.36-1.207 3.832-.656 4.983 1.466 5.807 6.52 5.587 6.89-.163.273-2.142-.273-2.362.66-.144.61.747 1.385 1.246 3.628a14.924 14.924 0 0 1-.365 7.804c1.466-.325 2.63 1.529 2.2 1.735a3.948 3.948 0 0 0-2.037 2.136c-.714 1.538-.225 2.765-.934 6.3-.22 1.103-.853 3.273-2.089 4.73.551.277.9 1.322.958 2.146.053 1.317-.254 2.477-.603 2.693-.35.215-1.28-.317-2.458 1.006l-1.155 1.293c-.44.48-.11.661.13.614 3.53-.676 6.094-1.778 6.434-1.548.264.177.134.407-3.253 7.613 5.203 4.566 5.75 4.935 5.663 5.27-.043.182-.235.307-1.322.604-7.22 1.983-20.77 3.536-22.954 2.007-.551-.383-.48-.867-.805-.876-.326-.01-1.323 1.279-6.085 4.47a52.098 52.098 0 0 1-8.279 4.36 52.098 52.098 0 0 1-8.279-4.36c-4.762-3.191-5.792-4.48-6.085-4.47-.292.01-.254.479-.805.876-2.184 1.529-15.733-.024-22.954-2.007-1.087-.297-1.279-.422-1.322-.604-.067-.316.48-.685 5.663-5.27-3.387-7.187-3.517-7.436-3.253-7.613.34-.23 2.903.872 6.434 1.548.24.047.57-.12.13-.614l-1.14-1.303c-1.18-1.322-2.128-.805-2.458-1.006-.33-.201-.657-1.375-.604-2.693.034-.824.383-1.868.934-2.146-1.236-1.437-1.868-3.627-2.089-4.729-.709-3.536-.22-4.762-.934-6.3a3.948 3.948 0 0 0-2.036-2.137c-.431-.206.733-2.06 2.199-1.734a14.924 14.924 0 0 1-.364-7.805c.479-2.242 1.39-3.018 1.246-3.627-.22-.958-2.2-.388-2.362-.66-.22-.37.603-5.424 5.586-6.89 2.491-.551 3.833.685 3.833.656 0-2.606-.048-2.654.105-2.784.154-.13 4.7-.565 6.123-.714 2.09-.22 6.377-.55 7.187-.603 0 0-.37-2.18-1.59-3.464-2.2-2.31-6.009-2.674-6.383-3.08-.244-.274.441-.48 1.213-.993a13.415 13.415 0 0 0 3.353-2.692c1.888-2.2 2.219-5.903 2.693-6.157.474-.254 1.322 2.05 3.794 3.958 1.605 1.236 2.53 1.643 3.354 1.844.11-1.183 3.148-1.806 5.222-4.312 2.67-3.195 3.12-5.428 3.599-5.428z" class="cls-1" style="fill:#fff;stroke-width:.479107" transform="translate(-64.87 -79.564)"/><path d="M104.33 164.989a46.861 46.861 0 0 0 13.601-8.658 41.745 41.745 0 0 0 7.925-10.06h.158c5.002.713 7.493-2.876 8.734-4.313.628-.742 1.107-1.25 1.979-1.303.33 0 .326 0 .445-.062.12-.063.091-.69.091-.91a3.68 3.68 0 0 0-.354-1.606 1.294 1.294 0 0 0-.992-.737 11.134 11.134 0 0 0 2.731-5.84 26.72 26.72 0 0 0 .393-3.038 8.825 8.825 0 0 1 .32-2.372 4.077 4.077 0 0 1 .523-1.01c.225-.327.872-1.026.872-1.026.235-.254-.067-.48-.987-.48a3.354 3.354 0 0 0-.719.106 18.992 18.992 0 0 0 1.04-5.826 12.25 12.25 0 0 0-1.207-5.557c-.245-.48-.685-1.653-.355-2.324.556-1.136 1.763-.829 1.95-1.078.11-.153-.158-.738-.55-1.356-.533-.838-1.97-2.831-4.648-2.841-1.888 0-3.435 1.581-4.044 3.866a7.153 7.153 0 0 0-.191 1.054v-7.129l-1.078-.12c-.087 0-5.683-.622-12.567-1.087.455-3.804 2.251-6.497 5.107-7.666a16.064 16.064 0 0 1 1.155-.421c.479-.159.69-.197.665-.393 0-.106-.172-.23-.608-.513a9.458 9.458 0 0 1-1.107-.805 7.488 7.488 0 0 1-1.993-2.601 8.667 8.667 0 0 1-.704-1.946c-.082-.316-.13-.512-.254-.479-.125.034-.585.815-1.72 1.773a10.981 10.981 0 0 1-3.397 2.046h-.048l-.527.158c-.33.081-.512.13-.512.278 0 .148.081.225.22.402a6.17 6.17 0 0 1 .58.887 5.208 5.208 0 0 1 .522 2.61c-1.14-1.485-3.181-2.682-5.725-3.353.282-.21.56-.388.804-.537.815-.479 1.558-.785 1.615-.958a.182.182 0 0 0-.038-.158 1.595 1.595 0 0 0-.48-.302l-.809-.479c-3.9-2.554-5.27-5.27-5.299-5.299-.307-.565-.407-.814-.532-.824-.124-.01-.225.259-.532.824 0 .024-1.399 2.745-5.299 5.3l-.81.478a1.595 1.595 0 0 0-.478.302.182.182 0 0 0-.039.158c.058.173.8.48 1.615.958.244.149.522.326.805.537-2.544.68-4.585 1.878-5.75 3.354a5.208 5.208 0 0 1 .523-2.611 6.17 6.17 0 0 1 .58-.887c.138-.177.225-.287.22-.402-.005-.115-.182-.197-.513-.278l-.527-.158h-.048a10.981 10.981 0 0 1-3.344-2.046c-1.135-.958-1.571-1.787-1.725-1.797-.153-.01-.172.187-.254.48a8.667 8.667 0 0 1-.7 1.969 7.488 7.488 0 0 1-1.987 2.596 9.458 9.458 0 0 1-1.107.805c-.436.283-.599.408-.609.513-.024.196.197.235.666.393 0 0 .508.158 1.155.421 2.875 1.174 4.652 3.867 5.107 7.666-6.884.48-12.456 1.078-12.567 1.088l-1.078.12v7.157a7.153 7.153 0 0 0-.191-1.054c-.609-2.285-2.156-3.876-4.044-3.866-2.678 0-4.115 2.003-4.647 2.841-.393.618-.661 1.203-.551 1.356.187.249 1.394-.058 1.95 1.078.33.67-.11 1.82-.355 2.324a12.25 12.25 0 0 0-1.207 5.557 18.992 18.992 0 0 0 1.035 5.807 3.354 3.354 0 0 0-.719-.105c-.92 0-1.222.22-.987.479 0 0 .647.7.872 1.025a4.077 4.077 0 0 1 .522 1.01 8.825 8.825 0 0 1 .321 2.372 26.72 26.72 0 0 0 .393 3.038 11.134 11.134 0 0 0 2.731 5.84 1.294 1.294 0 0 0-.992.753 3.68 3.68 0 0 0-.354 1.605c0 .22 0 .838.09.91.092.072.116.043.446.062.872.053 1.351.56 1.98 1.303 1.24 1.466 3.731 5.04 8.733 4.312h.158a41.745 41.745 0 0 0 7.925 10.061 46.861 46.861 0 0 0 13.602 8.639zm-26.715-53.957v4.542a2.252 2.252 0 0 0-1.246-.79h-.038a9.472 9.472 0 0 0 1.284-3.752zm-1.773 11.949c.163-.158.426.105.546.771.058.297.25.268.48.029a4.791 4.791 0 0 0 .723-.882v3.315c-1.026-1.068-2.008-2.87-1.75-3.233zm56.487-8.203h-.039a2.252 2.252 0 0 0-1.245.79v-4.536a9.472 9.472 0 0 0 1.284 3.746zm-1.29 11.413v-3.316a4.791 4.791 0 0 0 .724.882c.254.24.446.268.48-.029.12-.666.383-.93.546-.771.287.388-.671 2.19-1.75 3.234z" class="cls-2" style="fill:#59358c;stroke-width:.479107" transform="translate(-64.87 -79.564)"/><path d="M104.33 85.577a14.79 14.79 0 0 0 4.407 4.091c-1.24.786-2.716 1.989-3.013 3.426a6.822 6.822 0 0 0-.149 1.332 2.875 2.875 0 0 0 1.035 2.429 2.544 2.544 0 0 0 2.118.426c.896-.22 1.806-1.087 2.783-2.663l.096-.173c0 .077.024.139.024.144.48 2.84 1.437 3.435 2.185 3.43.747-.005 1.279-.431 1.72-1.236a6.195 6.195 0 0 0 .656-2.875 4.968 4.968 0 0 0-.556-2.424 12.236 12.236 0 0 0 3.464-2.232 7.268 7.268 0 0 0 2.396 3.119c-2.008.761-5.189 3.684-5.701 8.796-3.747-.23-7.805-.403-11.466-.403-3.66 0-7.718.173-11.465.403-.531-5.127-3.693-8.05-5.7-8.777a7.268 7.268 0 0 0 2.395-3.12 12.236 12.236 0 0 0 3.464 2.233 4.968 4.968 0 0 0-.556 2.425 6.195 6.195 0 0 0 .656 2.874c.441.805 1.035 1.236 1.72 1.236s1.706-.589 2.185-3.43v-.144l.096.173c.958 1.576 1.887 2.443 2.783 2.664a2.544 2.544 0 0 0 2.118-.427 2.875 2.875 0 0 0 1.035-2.448 6.822 6.822 0 0 0-.149-1.332c-.297-1.437-1.772-2.64-3.013-3.426a14.79 14.79 0 0 0 4.431-4.091z" class="cls-3" style="fill:#c09949;stroke-width:.479107" transform="translate(-64.87 -79.564)"/><path d="M98.02 99.548a.388.388 0 0 0 .052.177.259.259 0 0 0 .23.1.216.216 0 0 0 .24-.225.196.196 0 0 0-.086-.167 2.027 2.027 0 0 0-.297-.087.69.69 0 0 1-.317-.124.58.58 0 0 1-.196-.48.594.594 0 0 1 .618-.632.58.58 0 0 1 .551.254.795.795 0 0 1 .1.288l-.411.071c-.03-.158-.101-.22-.25-.215a.196.196 0 0 0-.2.201.158.158 0 0 0 .09.149 1.318 1.318 0 0 0 .273.072.7.7 0 0 1 .317.124.556.556 0 0 1 .22.48.7.7 0 0 1-.13.45.656.656 0 0 1-.512.225.738.738 0 0 1-.436-.1.522.522 0 0 1-.216-.298 1.102 1.102 0 0 1-.048-.225zM99.562 98.13v1.648a3.028 3.028 0 0 0 .024.359h-.43a2.515 2.515 0 0 0 0-.355v-1.648zM100.77 99.073c.057.1.096.178.148.278a2.683 2.683 0 0 1 0-.354v-.547a2.396 2.396 0 0 0 0-.359h.422a2.832 2.832 0 0 0 0 .364l.029 1.27a3.531 3.531 0 0 0 0 .36h-.427a3.22 3.22 0 0 0-.158-.298l-.373-.647a2.261 2.261 0 0 1-.149-.287v.891a3.526 3.526 0 0 0 0 .374h-.417v-.374l-.029-1.26a2.578 2.578 0 0 0 0-.355h.427a1.653 1.653 0 0 0 .148.293zM102.605 98.685c-.039-.225-.14-.335-.307-.335-.168 0-.369.235-.369.642 0 .407.144.637.379.637a.278.278 0 0 0 .254-.153.446.446 0 0 0 .057-.211l.403.077a1.097 1.097 0 0 1-.163.45.623.623 0 0 1-.537.263.69.69 0 0 1-.57-.268 1.308 1.308 0 0 1-.225-.795 1.294 1.294 0 0 1 .235-.81.695.695 0 0 1 .55-.254.628.628 0 0 1 .57.321.925.925 0 0 1 .12.336zM104.387 100.031a1.677 1.677 0 0 0-.316 0h-.891a2.487 2.487 0 0 0 0-.359v-1.346a2.697 2.697 0 0 0 0-.355h.896a2.328 2.328 0 0 0 .287 0v.48a2.328 2.328 0 0 0-.287 0h-.48v.32h.417a1.85 1.85 0 0 0 .288 0v.48a1.624 1.624 0 0 0-.288 0h-.416v.412h.479a1.749 1.749 0 0 0 .311 0zM105.58 97.962a1.068 1.068 0 0 0 .235 0h.244a1.495 1.495 0 0 0 .235 0v1.677a2.927 2.927 0 0 0 0 .368h-.422a2.817 2.817 0 0 0 0-.368v-1.246h-.316zM107.065 99.5a.446.446 0 0 0 .048.105.22.22 0 0 0 .182.091.268.268 0 0 0 .245-.172.829.829 0 0 0 .067-.336.48.48 0 0 1-.384.177c-.345 0-.57-.263-.57-.675a.656.656 0 0 1 .642-.733.604.604 0 0 1 .556.364 1.586 1.586 0 0 1 .12.661 1.955 1.955 0 0 1-.11.685.656.656 0 0 1-.326.374.776.776 0 0 1-.259.048.58.58 0 0 1-.445-.187.786.786 0 0 1-.149-.292zm.503-.834a.273.273 0 1 0-.541 0c0 .187.105.311.263.311a.283.283 0 0 0 .278-.311zM108.555 99.586a.307.307 0 0 0 .043.11.22.22 0 0 0 .182.091.264.264 0 0 0 .25-.168.872.872 0 0 0 .071-.33.44.44 0 0 1-.388.168c-.345 0-.565-.274-.56-.686a.661.661 0 0 1 .656-.718.599.599 0 0 1 .551.373 1.528 1.528 0 0 1 .106.662 2.06 2.06 0 0 1-.12.685.647.647 0 0 1-.336.364.776.776 0 0 1-.258.048.575.575 0 0 1-.441-.201.786.786 0 0 1-.144-.293zm.518-.815a.273.273 0 1 0-.542 0c0 .187.096.312.254.317a.283.283 0 0 0 .288-.317zM109.892 100.156a2.755 2.755 0 0 0-.292 0 1.586 1.586 0 0 1 .043-.287 1.25 1.25 0 0 1 .278-.537 2.396 2.396 0 0 1 .34-.316c.168-.134.206-.197.206-.312a.196.196 0 0 0-.206-.2.201.201 0 0 0-.201.114.565.565 0 0 0-.048.206l-.412-.053a.877.877 0 0 1 .139-.43.556.556 0 0 1 .512-.236.594.594 0 0 1 .551.326.637.637 0 0 1 .067.288.608.608 0 0 1-.177.45 3.253 3.253 0 0 1-.278.254.92.92 0 0 0-.287.33h.45a1.964 1.964 0 0 0 .307 0v.48a3.052 3.052 0 0 0-.326-.03z" class="cls-2" style="fill:#59358c;stroke-width:.479107" transform="translate(-64.87 -79.564)"/><path d="M69.891 117.84a18.46 18.46 0 0 0 1.438 6.597c1.16.685 2.247 1.687 2.683 2.64a9.87 9.87 0 0 1 .613 1.763 2.146 2.146 0 0 1 2.05-.987 2.046 2.046 0 0 1 .638.197 7.07 7.07 0 0 0-.345-.441c-1.763-2.07-2.616-4.389-2.626-5.788a2.875 2.875 0 0 1 .034-.479 1.274 1.274 0 0 1 .67-1.01.886.886 0 0 1 .868.09 2.697 2.697 0 0 1 .833 1.212 5.649 5.649 0 0 0 .6-2.625 5.912 5.912 0 0 0-.087-.958 2.242 2.242 0 0 0-1.59-1.917c-.619-.187-1.438-.067-1.98 1.03v-.076c-.2-1.874 2.708-3.536 2.655-6.794a5.102 5.102 0 0 0-.158-1.184c-.441-1.648-1.51-2.673-2.875-2.745-1.202-.067-2.395.704-3.148 1.768a1.998 1.998 0 0 1 1.189 1.112 3.042 3.042 0 0 1 .22 1.159 7.019 7.019 0 0 1-.7 2.784 10.262 10.262 0 0 0-.982 4.652z" class="cls-1" style="fill:#fff;stroke-width:.479107" transform="translate(-64.87 -79.564)"/><path d="M77.212 133.785a8.552 8.552 0 0 1-.24-1.677 1.734 1.734 0 0 1 .312-1.136.858.858 0 0 1 .508-.326 1.916 1.916 0 0 0-1.25-1.164 1.13 1.13 0 0 0-1.088.575c-.79 1.107-.57 3.354.55 4.92-1.796.101-2.079-2.515-2.323-4.096a10.588 10.588 0 0 0-.78-2.99 4.504 4.504 0 0 0-2.43-2.395 11.499 11.499 0 0 1 .48 2.822 27.553 27.553 0 0 0 .354 2.76 9.745 9.745 0 0 0 2.046 4.748c.929 1.14 1.95 1.494 2.692 3.162-1.03-.585-2.357-1.543-2.827.407.6.182 1.121.786 1.625 1.39 1.14 1.34 2.467 4.268 7.277 4.134a39.766 39.766 0 0 1-2.395-5.697c-1.107-2.017-2.267-4.379-2.51-5.437zM138.768 117.84a18.46 18.46 0 0 1-1.438 6.597c-1.159.685-2.247 1.687-2.683 2.64a9.87 9.87 0 0 0-.603 1.763 2.146 2.146 0 0 0-2.05-.987 2.046 2.046 0 0 0-.638.197c.115-.158.23-.307.345-.441 1.763-2.07 2.616-4.389 2.625-5.788a2.875 2.875 0 0 0-.033-.479 1.274 1.274 0 0 0-.676-1.02.886.886 0 0 0-.867.09 2.697 2.697 0 0 0-.833 1.213 5.649 5.649 0 0 1-.6-2.626 5.912 5.912 0 0 1 .087-.958 2.242 2.242 0 0 1 1.59-1.916c.619-.187 1.438-.067 1.98 1.03v-.077c.2-1.873-2.708-3.536-2.655-6.794a5.102 5.102 0 0 1 .158-1.183c.44-1.648 1.51-2.674 2.875-2.745 1.202-.068 2.395.704 3.148 1.767a1.998 1.998 0 0 0-1.189 1.112 2.956 2.956 0 0 0-.22 1.16 7.019 7.019 0 0 0 .7 2.783 10.262 10.262 0 0 1 .977 4.662z" class="cls-1" style="fill:#fff;stroke-width:.479107" transform="translate(-64.87 -79.564)"/><path d="M131.447 133.785a8.552 8.552 0 0 0 .24-1.677 1.734 1.734 0 0 0-.312-1.136.858.858 0 0 0-.508-.326 1.916 1.916 0 0 1 1.25-1.164 1.13 1.13 0 0 1 1.088.575c.79 1.107.57 3.354-.55 4.92 1.796.101 2.079-2.515 2.323-4.096a10.588 10.588 0 0 1 .781-2.99 4.504 4.504 0 0 1 2.43-2.395 11.499 11.499 0 0 0-.456 2.822 27.553 27.553 0 0 1-.355 2.76 9.745 9.745 0 0 1-2.045 4.748c-.93 1.14-1.95 1.494-2.693 3.162 1.03-.585 2.357-1.543 2.827.407-.6.182-1.121.786-1.624 1.39-1.14 1.34-2.468 4.268-7.278 4.134a39.766 39.766 0 0 0 2.395-5.697c1.083-2.017 2.243-4.379 2.487-5.437z" class="cls-1" style="fill:#fff;stroke-width:.479107" transform="translate(-64.87 -79.564)"/><path d="M104.33 103.198c-9.286 0-20.923 1.107-24.473 1.466v21.081a37.988 37.988 0 0 0 12.38 28.747 44.078 44.078 0 0 0 12.093 8 44.078 44.078 0 0 0 12.092-7.981 38.875 38.875 0 0 0 8.51-11.38 39.196 39.196 0 0 0 3.86-17.381v-21.08c-3.54-.365-15.177-1.472-24.462-1.472z" class="cls-3" style="fill:#c09949;stroke-width:.479107" transform="translate(-64.87 -79.564)"/><path d="M125.933 106.744c-.12 0-12.285-1.222-21.603-1.232-9.32-.01-21.484 1.217-21.603 1.232l-.58.067v19.51c.335 12.36 6.339 20.83 11.316 25.76a42.027 42.027 0 0 0 10.867 7.825 42.027 42.027 0 0 0 10.866-7.824c4.978-4.93 10.98-13.415 11.316-25.762v-19.51z" class="cls-2" style="fill:#59358c;stroke-width:.479107" transform="translate(-64.87 -79.564)"/><path d="M122.181 129.794h2.75c.14-1.126.23-2.29.264-3.493V107.98c-.609-.067-1.663-.173-3.028-.302zM116.077 107.18v22.614h3.498v-22.346a248.716 248.716 0 0 0-3.498-.268zM83.8 129.851a36.412 36.412 0 0 0 2.73 10.296v-10.3zM98.322 129.822h-3.297v22.35a37.663 37.663 0 0 0 3.297 2.717zM110.079 129.794h3.416v-22.787c-1.121-.067-2.271-.13-3.416-.177zM89.137 145.13a35.262 35.262 0 0 0 3.282 4.374v-19.672h-3.282zM104.33 129.794h3.109v-23.055a114.3 114.3 0 0 0-3.11-.043zM104.33 129.813h-3.445v26.83a31.238 31.238 0 0 0 3.445 1.825z" class="cls-4" style="fill:#9d9d9c;stroke-width:.479107" transform="translate(-64.87 -79.564)"/><path d="m134.15 109.57 7 4.11-18.71 14.89.01-23.5 7.57 2.92-10.01-24.58-9.99 24.58 7.57-2.92.01 23.5-18.71-14.89 7-4.11-25.47-7.47 13.01 23.13 2.43-7.75 20.27 16.11-10.06 8.01-6.3-1.04-19.58 14.18 10.31 2.33-.04 10.57 18.22-15.88.39-6.37 8.53-6.78v11.3l-4.73 4.28-1.09 24.14 8.24-6.61 8.24 6.61-1.09-24.14-4.73-4.28v-11.3l8.53 6.78.39 6.37 18.22 15.88-.04-10.57 10.3-2.33-19.57-14.18-6.3 1.04-10.06-8.01 20.26-16.11 2.44 7.75 13-23.15z" class="cls-1" style="fill:#fff" transform="matrix(.4791 0 0 .4791 -18.033 -13.851)"/><path d="m113.782 133.746-2.831.518-5.702-4.533 10.953-8.71 1.02 3.186 4.662-8.437-9.266 2.645 2.875 1.71-10.588 8.423v-13.343l3.133 1.188-3.708-8.902-3.694 8.902 3.133-1.188v13.333l-10.588-8.422 2.874-1.71-9.27-2.64 4.661 8.427 1.026-3.186 10.952 8.71-5.701 4.532-2.827-.503-7.963 5.812 3.953.862c0 .68-.048 4.044-.048 4.044l7.464-6.449.135-2.875 5.332-4.244v7.018l-2.166 1.917-.402 9.855 3.138-2.558 3.134 2.558-.398-9.855-2.166-1.917v-7.018l5.333 4.244.134 2.875 7.464 6.449s-.043-3.354-.048-4.044l3.953-.862z" class="cls-2" style="fill:#59358c;stroke-width:.479107" transform="translate(-64.87 -79.564)"/><path d="M104.33 110.05c-.537 1.274-1.52 3.545-2.008 4.704.82-.311 1.955-.728 2.008-.747zM102.514 144.718c-.039 1.001-.077 1.916-.1 2.53l1.355-1.107v-2.52zM102.566 143.434l1.203-1.05v-1.236l-1.15.959c-.014.416-.033.867-.053 1.327zM104.89 139.37v1.477l1.184.958c-.039-.796-.063-1.38-.072-1.51zM104.89 143.458l1.308 1.068c-.024-.479-.048-.987-.067-1.461l-1.24-1.016zM104.885 146.107l1.438 1.145c0-.373-.043-.89-.067-1.475l-1.37-1.117zM119.891 117.356c-1.332.374-3.723 1.016-4.935 1.356l1.835 1.107zM92.654 136.75l1.571.288.958-.772-1.47-.297zM90.718 138.288l1.572.288.958-.772-1.471-.297zM97.282 136.036l-1.16.92v1.529l1.14-.997c-.014-.225.006-.867.02-1.452zM94.081 138.58v1.687l1.107-.958v-1.6zM92.007 140.229v1.835l1.111-.959v-1.763zM88.797 117.346c.661 1.213 1.825 3.397 2.429 4.5.268-.83.647-1.984.666-2.037zM113.816 139.52l-.072-1.596-.958-.767.038 1.5zM115.785 141.09l-.072-1.594-.958-.767.038 1.5zM112.082 135.184l1.154.92 1.495-.326-1.222-.882zM115.282 137.723l1.648-.36-1.188-.862-1.562.34zM117.352 139.37l1.792-.411c-.307-.216-.724-.522-1.198-.867l-1.725.378z" class="cls-3" style="fill:#c09949;stroke-width:.479107" transform="translate(-64.87 -79.564)"/><path d="M140.344 155.052c-.891-.771-3.224-2.918-3.962-3.598 2.458-5.318 2.745-5.75 2.592-5.845-.153-.096-.48 0-1.687.302a47.609 47.609 0 0 1-5.4 1.015 1.6 1.6 0 0 0-.08-.838c-.11-.225-.26-.556-1.864-.709-2.041-.196-4.312-.541-6.09-.647a81.41 81.41 0 0 0-12.097.091c-5.5.48-7.082.82-7.36.9-.272-.08-1.854-.416-7.354-.9a81.41 81.41 0 0 0-12.097-.09c-1.758.105-4.049.45-6.09.646-1.61.153-1.753.48-1.863.709a1.6 1.6 0 0 0-.082.838 47.432 47.432 0 0 1-5.4-1.015c-1.197-.288-1.504-.441-1.686-.302-.182.139.134.527 2.592 5.845-.738.68-3.07 2.827-3.962 3.598-.575.48-.795.556.225.824 1.208.316 2.396.566 3.589.786 3.976.757 10.76 1.662 14.071 1.317h.25c1.676-.172 1.887-.378 1.815-1.518a10.76 10.76 0 0 1 .053-1.811h1.284c5.38-.043 11.805 1.226 14.656 1.753 2.874-.527 9.28-1.796 14.66-1.753h1.28a10.272 10.272 0 0 1 .057 1.81c-.072 1.141.139 1.347 1.811 1.52h.254c3.31.344 10.09-.561 14.071-1.318a55.43 55.43 0 0 0 3.589-.786c1.02-.268.8-.326.225-.824z" class="cls-2" style="fill:#59358c;stroke-width:.479107" transform="translate(-64.87 -79.564)"/><path d="M86.828 156.264a15.47 15.47 0 0 1 .043-1.576c-2.918.125-5.27.379-6.818.59 2.238.843 5.424 1.025 6.775.986zM121.97 156.264a15.47 15.47 0 0 0-.043-1.576c2.918.125 5.27.379 6.818.59-2.233.843-5.424 1.025-6.775.986z" class="cls-4" style="fill:#9d9d9c;stroke-width:.479107" transform="translate(-64.87 -79.564)"/><path d="M72.004 147.44c.062.128 1.917 3.985 2.09 4.421-.37.312-3.431 3.052-3.431 3.052a62.284 62.284 0 0 0 7.795 1.231l-.312-.167a1.298 1.298 0 0 1-.622-.719c-1.917-.21-3.867-.565-5.136-.814 2.309-1.98 1.073-.935 2.72-2.367 0 0-1.298-2.645-1.705-3.574.805.153 2.242.426 3.79.575a14.339 14.339 0 0 0-.1-.796c-2.53-.273-5.089-.848-5.089-.848zM117.174 152.575a84.016 84.016 0 0 0-12.777 1.437 83.925 83.925 0 0 0-12.773-1.437 90.269 90.269 0 0 0-12.87.661l.034.786a88.395 88.395 0 0 1 12.816-.68 82.914 82.914 0 0 1 12.793 1.437 83.087 83.087 0 0 1 12.792-1.437 88.434 88.434 0 0 1 12.82.68l.034-.786a90.269 90.269 0 0 0-12.869-.66zM117.174 145.978a109.567 109.567 0 0 0-12.777 1.226 109.332 109.332 0 0 0-12.773-1.226 97.781 97.781 0 0 0-13.142.704l.1.762a97.527 97.527 0 0 1 13.027-.714 107.842 107.842 0 0 1 12.788 1.246 108.087 108.087 0 0 1 12.792-1.246 97.527 97.527 0 0 1 13.012.728l.101-.762a97.781 97.781 0 0 0-13.128-.718zM136.794 147.44c-.062.128-1.917 3.985-2.089 4.421.369.312 3.43 3.052 3.43 3.052a62.284 62.284 0 0 1-7.795 1.231l.312-.167a1.298 1.298 0 0 0 .623-.719c1.916-.21 3.866-.565 5.136-.814-2.31-1.98-1.074-.935-2.722-2.367 0 0 1.299-2.645 1.706-3.574-.805.153-2.242.426-3.79.575.029-.288.062-.551.096-.796 2.534-.273 5.093-.848 5.093-.848z" class="cls-3" style="fill:#c09949;stroke-width:.479107" transform="translate(-64.87 -79.564)"/><path d="M102.94 152.431a3.1 3.1 0 0 0-.512-.09l-.959-.12c-.234-.03-.32-.034-.479-.043a4.978 4.978 0 0 0 0-.609v-2.28a5.955 5.955 0 0 0 0-.614c.13.024.216.039.48.067l.991.125a2.875 2.875 0 0 0 .48.024v.78a3.406 3.406 0 0 0-.48-.085l-.81-.096v.613l.671.082a3.244 3.244 0 0 0 .48.028v.781a3.268 3.268 0 0 0-.48-.086l-.675-.081v.704l.804.096a3.148 3.148 0 0 0 .508.033zM95.356 151.622a2.937 2.937 0 0 0-.48-.063l-.924-.057h-.431a4.37 4.37 0 0 0 0-.609v-2.28a5.792 5.792 0 0 0-.029-.613c.125 0 .206.024.431.038l.959.062a2.549 2.549 0 0 0 .436 0v.781a2.396 2.396 0 0 0-.436-.053l-.767-.047v.613l.632.038a2.257 2.257 0 0 0 .441 0v.772a2.841 2.841 0 0 0-.44-.058l-.633-.038v.7l.757.047a2.611 2.611 0 0 0 .48 0zM89.2 150.697a5.75 5.75 0 0 0 .033.723h-.69a6.602 6.602 0 0 0 0-.713v-2.166a5.332 5.332 0 0 0-.029-.608h1.409a2.597 2.597 0 0 0 .541-.034v.795a3.172 3.172 0 0 0-.536-.023h-.748v.685h.604a2.764 2.764 0 0 0 .513-.034v.771a3.684 3.684 0 0 0-.518 0h-.604zM92.53 151.473a4.494 4.494 0 0 0-.178-.67c-.106-.37-.144-.48-.23-.556a.335.335 0 0 0-.264-.12h-.35v.685a5.792 5.792 0 0 0 0 .632h-.737a5.06 5.06 0 0 0 .033-.627v-2.247a4.858 4.858 0 0 0 0-.613h1.399a.848.848 0 0 1 .868.958 1.001 1.001 0 0 1-.206.68.733.733 0 0 1-.326.206c.172.067.249.168.36.48.047.133.095.277.243.732.039.12.077.225.163.446zm-.48-2.04c.201 0 .326-.145.326-.384 0-.24-.106-.36-.316-.364h-.542v.742zM81.088 150.711a.661.661 0 0 0 .096.312.407.407 0 0 0 .369.187.355.355 0 0 0 .364-.403.345.345 0 0 0-.144-.292 2.122 2.122 0 0 0-.479-.158 1.025 1.025 0 0 1-.508-.225 1.112 1.112 0 0 1-.335-.81.958.958 0 0 1 .958-1.112.891.891 0 0 1 .877.45 1.327 1.327 0 0 1 .177.504l-.651.13c-.048-.279-.163-.389-.398-.38a.326.326 0 0 0-.316.35.307.307 0 0 0 .158.269c.062.038.062.038.431.124a1.255 1.255 0 0 1 .513.22 1.097 1.097 0 0 1 .373.858 1.332 1.332 0 0 1-.182.8.958.958 0 0 1-.8.398 1.164 1.164 0 0 1-.7-.182.958.958 0 0 1-.354-.532 1.811 1.811 0 0 1-.086-.397zM84.748 151.603a4.73 4.73 0 0 0-.115-.441l-.115-.345-.924.077-.058.359a3.061 3.061 0 0 0-.048.479l-.757.062c.039-.13.058-.23.115-.522l.48-2.549a2.726 2.726 0 0 0 .067-.479l.848-.072a3.617 3.617 0 0 0 .148.441l.906 2.434c.081.215.148.383.196.479zm-.857-2.688-.201 1.27.613-.053zM87.23 149.7c.1.178.168.307.254.48 0-.192-.033-.384-.043-.618l-.033-.959a6.3 6.3 0 0 0-.053-.637l.69-.024a5.447 5.447 0 0 0-.005.657l.081 2.213a6.094 6.094 0 0 0 .053.623l-.709.038a4.432 4.432 0 0 0-.264-.517l-.642-1.145c-.09-.163-.148-.288-.249-.503 0 .187.039.416.043.618l.039.958a6.142 6.142 0 0 0 .048.647l-.69.029a5.596 5.596 0 0 0 0-.657l-.082-2.199c0-.24 0-.426-.048-.618l.7-.029a3.085 3.085 0 0 0 .25.513zM97.306 149.442c-.062-.379-.24-.566-.522-.566-.408 0-.642.398-.642 1.088 0 .69.244 1.092.656 1.092a.48.48 0 0 0 .436-.263.805.805 0 0 0 .1-.36l.69.13a1.706 1.706 0 0 1-.277.762 1.078 1.078 0 0 1-.93.455 1.203 1.203 0 0 1-.958-.48 2.233 2.233 0 0 1-.383-1.355 2.2 2.2 0 0 1 .397-1.37 1.207 1.207 0 0 1 .959-.436 1.083 1.083 0 0 1 .958.546 1.485 1.485 0 0 1 .206.57zM100.056 149.744c-.062-.379-.24-.566-.527-.566-.403 0-.637.403-.637 1.088s.244 1.092.656 1.092a.48.48 0 0 0 .436-.263.958.958 0 0 0 .1-.36l.69.13a1.763 1.763 0 0 1-.277.762 1.078 1.078 0 0 1-.93.479 1.207 1.207 0 0 1-.958-.48 2.218 2.218 0 0 1-.388-1.36 2.17 2.17 0 0 1 .402-1.37 1.207 1.207 0 0 1 .959-.436 1.083 1.083 0 0 1 .958.546 1.48 1.48 0 0 1 .206.575zM111.866 151.67a4.57 4.57 0 0 0-.158-.633c-.106-.354-.144-.445-.225-.527a.268.268 0 0 0-.25-.086l-.33.033v.686a5.644 5.644 0 0 0 .024.627l-.695.077a5.294 5.294 0 0 0 .029-.628v-2.251a5.572 5.572 0 0 0-.029-.609c.144 0 .264 0 .48-.038l.838-.091c.522-.058.829.258.829.862a1.183 1.183 0 0 1-.192.704.82.82 0 0 1-.307.245c.163.048.24.134.34.421.048.125.096.264.24.7.038.115.077.215.158.426zm-.48-1.98a.374.374 0 0 0 .307-.42c0-.235-.1-.346-.301-.326l-.508.057v.743zM115.172 149.667c.024 1.102-.48 1.859-1.26 1.916-.781.058-1.313-.646-1.342-1.753-.029-1.107.48-1.835 1.255-1.873.777-.039 1.318.613 1.347 1.71zm-.671.043c0-.68-.268-1.073-.656-1.054-.388.02-.628.446-.609 1.116.02.671.268 1.093.661 1.069.393-.024.618-.446.604-1.13zM115.977 150.213a.637.637 0 0 0 .081.312.431.431 0 0 0 .379.196.36.36 0 0 0 .397-.379.345.345 0 0 0-.134-.292 2.305 2.305 0 0 0-.479-.167 1.097 1.097 0 0 1-.517-.245 1.054 1.054 0 0 1-.312-.8.958.958 0 0 1 1.035-1.05.958.958 0 0 1 .896.48 1.375 1.375 0 0 1 .163.48l-.685.095c-.039-.273-.154-.383-.398-.383a.321.321 0 0 0-.345.325.287.287 0 0 0 .153.269c.063.038.063.038.446.139a1.36 1.36 0 0 1 .522.24 1.03 1.03 0 0 1 .35.852 1.227 1.227 0 0 1-.225.767 1.03 1.03 0 0 1-.853.354 1.212 1.212 0 0 1-.719-.206.958.958 0 0 1-.35-.532 1.945 1.945 0 0 1-.071-.388zM108.642 148.555a4.35 4.35 0 0 0-.03.628v2.257a4.791 4.791 0 0 0 .03.622l-.705.096a5.591 5.591 0 0 0 0-.627v-.82l-1.097.149v.82a5.706 5.706 0 0 0 0 .622l-.704.096a4.432 4.432 0 0 0 .029-.628v-2.261a4.393 4.393 0 0 0-.03-.623l.705-.096a6.137 6.137 0 0 0 0 .628v.7l1.097-.15v-.699a5.107 5.107 0 0 0 0-.618zM109.787 148.416a4.992 4.992 0 0 0-.03.623v2.257a5.117 5.117 0 0 0 .03.618l-.724.081a5.294 5.294 0 0 0 .029-.627v-2.252a4.901 4.901 0 0 0-.029-.618zM120.212 147.88a5.074 5.074 0 0 0-.024.608v2.219a5.64 5.64 0 0 0 .024.608h-.704a4.173 4.173 0 0 0 .028-.608v-.805h-1.101v.805a5.332 5.332 0 0 0 .028.608h-.718a5.074 5.074 0 0 0 .023-.608v-2.219a5.222 5.222 0 0 0-.023-.608h.704a5.572 5.572 0 0 0-.029.608v.69h1.102v-.69a4.096 4.096 0 0 0-.029-.608zM121.443 147.894a3.924 3.924 0 0 0-.033.614l-.024 2.213a4.475 4.475 0 0 0 0 .613h-.728a4.092 4.092 0 0 0 .033-.613l.024-2.218a4.379 4.379 0 0 0 0-.614zM123.044 151.406a4.269 4.269 0 0 0-.115-.623l-.26-1.116s-.085-.412-.095-.446c-.029-.148-.029-.148-.043-.206v.82l-.038.9a4.791 4.791 0 0 0 0 .647l-.652-.029a5.079 5.079 0 0 0 .053-.642l.09-2.16v-.652l.873.038a4.446 4.446 0 0 0 .1.59l.422 1.81.57-1.767a3.224 3.224 0 0 0 .144-.58l.877.038a5.419 5.419 0 0 0-.053.647l-.091 2.16a4.633 4.633 0 0 0 0 .643h-.652a6.056 6.056 0 0 0 .053-.642l.038-.906c0-.1.03-.412.039-.541l.023-.278c-.086.316-.124.48-.172.613l-.369 1.126a4.46 4.46 0 0 0-.168.604zM127.063 151.684c0-.201 0-.307-.038-.45l-.058-.364-.92-.072-.114.345a2.76 2.76 0 0 0-.12.44l-.757-.062a4.025 4.025 0 0 0 .201-.48l.9-2.442a3.23 3.23 0 0 0 .144-.441l.844.072a3.143 3.143 0 0 0 .072.479l.479 2.553c.043.226.081.403.115.523zm-.397-2.793-.408 1.222.609.047z" class="cls-1" style="fill:#fff;stroke-width:.479107" transform="translate(-64.87 -79.564)"/></svg>