<svg xmlns="http://www.w3.org/2000/svg" width="75.263992mm" height="93.133331mm" viewBox="0 0 284.46233 351.99999"><path d="M279.226 240.9v-70.873l-4.911-.232-2.413-.127a10.838 10.838 0 0 1-10.267-9.378l-.254-1.926-.55-3.895-3.874-.508-1.927-.254-113.653-15.263a44.666 44.666 0 0 0-7.515 0L19.954 153.601l-1.947.254-3.917.529-.508 3.916-.254 1.926a10.944 10.944 0 0 1-10.753 9.484h-7.663v71.19c0 1.1.38 10.923.38 10.923a298.645 298.645 0 0 0 34.442 138.801c25.063 46.762 61.262 80.822 104.7 98.476l.952.381 1.947.805 1.948-.805.952-.38c43.438-17.655 79.636-51.715 104.7-98.477a298.645 298.645 0 0 0 34.441-138.801v-2.562s-.148-7.26-.148-8.361z" class="cls-1" style="fill:#fff;stroke-width:2.11685" transform="translate(5.088 -138.286)"/><path d="M271.669 249.261H.458v2.562a293.565 293.565 0 0 0 33.87 136.367c24.491 45.682 59.737 78.937 102.053 96.126l.952.402.953-.402c42.337-17.189 77.604-50.444 102.117-96.126a293.565 293.565 0 0 0 33.87-136.367v-2.562z" class="cls-2" style="fill:#009fe3;stroke-width:2.11685" transform="translate(5.088 -138.286)"/><path d="M235.894 385.777c-23.73 44.284-57.811 76.566-98.56 93.416-40.75-16.934-74.831-49.132-98.561-93.416A288.04 288.04 0 0 1 5.602 254.363h263.463a288.04 288.04 0 0 1-33.171 131.414z" class="cls-3" style="fill:#14387f;stroke-width:2.11685" transform="translate(5.088 -138.286)"/><path d="m253.887 270.24-1.143-1.716-2.73-2.116-.466.275-.381 3.768.19 1.503a42.337 42.337 0 0 1-1.143 10.182 27.837 27.837 0 0 1-6.605 10.394 41.871 41.871 0 0 0-9.928 16.786c-2.667 9.25-4.043 20.809-1.08 25.783l.212.36-2.116-2.836-1.525 3.598a33.743 33.743 0 0 1-4.657 6.35 47.714 47.714 0 0 1-11.282 7.114 31.393 31.393 0 0 0-4.784 2.71 52.667 52.667 0 0 1 3.662-9.188 24.936 24.936 0 0 1 3.154-4.826 46.825 46.825 0 0 0 9.377-13.421 40.813 40.813 0 0 0 3.112-17.718c0-1.842.17-4.636.36-7.896.72-12.109 1.715-28.684-3.027-35.775l-3.196-2.498-.805 4.234a4.678 4.678 0 0 1-.317 2.434 13.442 13.442 0 0 0-.593 3.197c-.508 19.454-6.922 35.288-19.052 47.1a131.245 131.245 0 0 1-18.459 14.204c-2.582 1.757-5.25 3.577-7.959 5.525a126.122 126.122 0 0 0-20.745 18.84c1.312-4.234 6.35-18.036 17.633-22.481l8.023-3.176-8.467-1.1c-5.716-.72-8.828-.276-11.622.973a13.59 13.59 0 0 1 1.588-1.545 27.858 27.858 0 0 1 7.557-4.107l11.812-4.636-12.701.36a61.685 61.685 0 0 0-27.88 7.748 10.584 10.584 0 0 0-2.814-2.117 12.701 12.701 0 0 0-10.183-.804c-2.836 1.08-5.059 1.228-6.117.423-1.059-.804-1.122-2.71-.974-4.234a10.902 10.902 0 0 1 2.9-4.233 5.821 5.821 0 0 0 1.8-2.308 7.917 7.917 0 0 0 .169-1.312l-1.503-.212-1.884.148c-12.934 5.293-13.506 11.791-13.04 15.453a11.05 11.05 0 0 0 1.482 4.234l.19 2.858a9.526 9.526 0 0 0 13.717 9.272 12.13 12.13 0 0 0 2.583-1.482 43.247 43.247 0 0 0-1.757 12.15 127.18 127.18 0 0 0-20.64-18.691c-2.688-1.948-5.355-3.768-7.937-5.525a131.245 131.245 0 0 1-18.46-14.204c-12.15-11.812-18.585-27.646-19.051-47.1a13.442 13.442 0 0 0-.593-3.197 4.678 4.678 0 0 1-.317-2.434l-.89-4.488-3.026 2.731c-4.742 7.092-3.747 23.666-3.027 35.775.19 3.239.36 6.054.36 7.853a40.898 40.898 0 0 0 3.069 17.655 47.036 47.036 0 0 0 9.42 13.505 24.936 24.936 0 0 1 3.154 4.827 52.667 52.667 0 0 1 3.662 9.187 31.393 31.393 0 0 0-4.784-2.71 47.29 47.29 0 0 1-11.283-7.112 33.743 33.743 0 0 1-4.657-6.35l-1.503-3.62-2.117 2.857.212-.36c2.964-4.974 1.588-16.532-1.08-25.783a41.871 41.871 0 0 0-9.928-16.787 27.52 27.52 0 0 1-6.604-10.393 42.337 42.337 0 0 1-1.143-10.182l.19-1.503-.233-5.271-.783.614-2.561 2.667-1.207 1.8c-3.239 4.89-8.912 18.48-5.821 29.233 2.117 7.62 7.96 11.875 13.06 15.643 4.234 3.218 8.108 5.991 9.336 10.246l2.667 9.293 1.419 4.932v-.106a10.14 10.14 0 0 0-.805 2.71c-.593 5.398 2.117 15.919 5.589 20.872a68.16 68.16 0 0 0 3.048 4.086h-.635l-.402 2.116c-.932 4.573-1.059 16.258 4.424 23.286l.402.465a28.704 28.704 0 0 0 5.292 6.52c.233.233 5.568 5.61 11.24 10.31.974.783 1.97 1.672 3.049 2.603a92.909 92.909 0 0 0 19.052 13.527l.232.127h.276c5.122 1.27 9.208.466 11.198-2.244a6.922 6.922 0 0 0 .995-5.673 10.055 10.055 0 0 1 4.868 4l2.604 5.272 2.286 4.614 1.8-4.826c1.397-3.79-1.016-11.008-3.514-16.025a26.058 26.058 0 0 0-8.002-9.293c-.72-.571-1.418-1.122-2.117-1.693a18.438 18.438 0 0 0 5.356-.296l.952-.149 4.425-.677-3.197-3.112a24.344 24.344 0 0 1-3.81-4.678c-3.218-5.271-3.324-10.796-3.45-16.152 0-4.784-.255-9.716-2.668-14.204a44.602 44.602 0 0 1 8.171 9.526 31.753 31.753 0 0 1 4.403 15.2 27.18 27.18 0 0 0 3.387 12.573c1.059 1.715 2.752 4.403 4.234 6.499a45.148 45.148 0 0 1 1.863 2.498v.127l.211.296a75.19 75.19 0 0 1 4.594 8.214 13.548 13.548 0 0 1 .974 4.487 16.787 16.787 0 0 1-2.498 4.72l-2.286 2.901-2.117 2.794c-1.46 1.46-2.858 3.112-4.234 4.848a45.195 45.195 0 0 1-8.467 8.34l-4.827 3.408 5.991.72a26.122 26.122 0 0 0 8.7-.677 8.7 8.7 0 0 1-2.9 1.672c-2.582 1.122-3.133 2.413-3.006 3.218.127.804 1.334 1.862 2.837 2.35a12.913 12.913 0 0 0 8.467 0 21.423 21.423 0 0 1-2.752 5.715l-.868 1.1.127 2.393a9.018 9.018 0 0 1-.338 3.725l4.7-2.117a31.414 31.414 0 0 0 8.466-5.927 61.389 61.389 0 0 0 2.583 12.066l2.117 5.017 2.117-5.017a10.965 10.965 0 0 1 1.27-2.265 13.484 13.484 0 0 0 1.8-3.302v-.339c.296-1.672.486-3.344.634-5.016a32.134 32.134 0 0 0 7.176 4.784l3.874 2.265v-1.736c.297-.55-.38-2.117 0-2.794l.127-2.562-.868-1.1a15.876 15.876 0 0 1-2.286-4.933 10.902 10.902 0 0 0 9.462-1.058s2.35-1.228 2.35-2.117c0-.89-1.609-1.863-4.234-3.175h-.127a16.533 16.533 0 0 1-1.757-.805 25.042 25.042 0 0 0 8.616.678l5.99-.72-5.016-3.345a45.195 45.195 0 0 1-8.468-8.34c-1.481-1.736-2.9-3.387-4.233-4.848l-2.117-2.794s-2.286-2.9-2.117-2.815a15.919 15.919 0 0 1-2.921-5.187 13.315 13.315 0 0 1 .952-4.233 75.19 75.19 0 0 1 4.594-8.214l.17-.254v-.127a45.15 45.15 0 0 1 1.862-2.498c1.44-2.117 3.133-4.784 4.234-6.498a27.18 27.18 0 0 0 3.387-12.574 31.753 31.753 0 0 1 4.403-15.2 44.602 44.602 0 0 1 8.17-9.525c-2.412 4.487-2.56 9.42-2.666 14.204-.128 5.355-.233 10.88-3.472 16.151a23.434 23.434 0 0 1-3.79 4.679l-3.175 3.111 4.403.678.953.148a18.438 18.438 0 0 0 5.356.296 26.45 26.45 0 0 1-2.117 1.694 26.058 26.058 0 0 0-8.002 9.293c-2.498 5.017-4.911 12.235-3.514 16.024l1.8 4.827 2.286-4.615 2.603-5.271a10.055 10.055 0 0 1 4.87-4 6.922 6.922 0 0 0 .994 5.672c1.99 2.71 6.075 3.514 11.198 2.244h.275l.233-.127a92.909 92.909 0 0 0 19.052-13.526c1.08-.932 2.117-1.821 3.048-2.604 5.673-4.7 11.008-10.076 11.156-10.225a28.98 28.98 0 0 0 5.377-6.583l.402-.487c5.483-7.028 5.334-18.713 4.424-23.285l-.402-2.117h-.635a60.132 60.132 0 0 0 3.048-4.086c3.366-4.953 6.181-15.474 5.589-20.872a10.14 10.14 0 0 0-.805-2.71v.107l1.419-4.933 2.667-9.293c1.228-4.233 4.996-7.028 9.335-10.245 5.102-3.768 10.86-8.023 13.061-15.644 3.387-10.775-2.286-24.365-5.525-29.255zm-68.692 110.075a39.987 39.987 0 0 1-1.99 17.888 31.753 31.753 0 0 0-1.29-6.499 50.677 50.677 0 0 0 3.28-11.452zm32.854-5.419 1.312-1.185a16.49 16.49 0 0 1-1.46 2.244 19.623 19.623 0 0 1-6.668 5.419zm-102.244-35.034c-.317 0-1.058.127-2.329-1.27a7.642 7.642 0 0 0 1.292.318 12.997 12.997 0 0 0 3.874-.127 5.864 5.864 0 0 1-2.837 1.016zm-52.35 41.512a19.623 19.623 0 0 1-6.752-5.483 18.755 18.755 0 0 1-1.482-2.244l1.312 1.186zm26.016-1.122a50.677 50.677 0 0 0 3.218 11.388 31.753 31.753 0 0 0-1.291 6.5 39.987 39.987 0 0 1-1.927-17.888z" class="cls-1" style="fill:#fff;stroke-width:2.11685" transform="translate(5.088 -138.286)"/><path d="m229.65 336.835-.53-.72-.36.826a33.171 33.171 0 0 1-5.017 6.859 49.26 49.26 0 0 1-11.727 7.43 19.623 19.623 0 0 0-4.954 2.942 36.622 36.622 0 0 0-3.323 5.187c-.36-3.62 1.524-10.352 4.848-16.935a26.312 26.312 0 0 1 3.45-5.187 46.21 46.21 0 0 0 9.06-12.997 38.971 38.971 0 0 0 2.964-16.935c0-1.884.17-4.72.36-8.002.677-11.198 1.693-28.111-2.752-34.716l-.91.424a6.012 6.012 0 0 1-.318 3.323 10.394 10.394 0 0 0-.53 2.773c-.507 19.92-7.112 36.156-19.58 48.285a132.388 132.388 0 0 1-18.692 14.395c-2.583 1.757-5.25 3.577-7.917 5.483a120.809 120.809 0 0 0-22.968 21.57l-.38.508c0-1.29 0-2.752-.17-4.445a4.022 4.022 0 0 1 .17-.72c1.354-4.34 6.688-18.84 18.627-23.56l1.842-.72-1.947-.254c-8.34-1.08-10.585.445-14.712 3.175l-1.61 1.059a17.972 17.972 0 0 1 5.441-7.854 28.09 28.09 0 0 1 8.108-4.466l-.19-.974a59.462 59.462 0 0 0-27.837 7.96 11.58 11.58 0 0 0-12.574-3.451c-3.387 1.312-5.991 1.376-7.515.233a5.843 5.843 0 0 1-1.524-5.44c.148-1.567 2.116-3.388 3.556-4.615 1.037-.932 1.524-1.355 1.46-1.821a.572.572 0 0 0-.296-.487l-.296-.169-.275.212-.191.127c-11.96 4.91-13.061 11.07-12.701 14.31a9.462 9.462 0 0 0 7.155 8.023 15.855 15.855 0 0 0 10.16-3.006c2.54-1.461 4.933-2.858 7.558-2.498l2.73.36a23.878 23.878 0 0 0-2.942 2.497 10.31 10.31 0 0 0-7.26.593 13.569 13.569 0 0 0-4.086 3.048 7.875 7.875 0 0 1-5.123 2.816c-1.969.254-3.79-1.313-5.885-5.123l-.423-.804-.466.783V336.58a8.467 8.467 0 0 0 12.13 8.235 13.717 13.717 0 0 0 5.08-4.234 9.124 9.124 0 0 1 4.234-3.408h.148l-.762 1.037a27.921 27.921 0 0 0-3.472 5.758 38.908 38.908 0 0 0-2.117 12.913 20.385 20.385 0 0 0 0 4.551l-.38-.508a120.809 120.809 0 0 0-22.969-21.57c-2.667-1.906-5.334-3.726-7.917-5.483a132.388 132.388 0 0 1-18.691-14.395c-12.49-12.13-19.052-28.366-19.581-48.285a10.394 10.394 0 0 0-.53-2.773 6.012 6.012 0 0 1-.317-3.324l-.91-.423c-4.445 6.604-3.43 23.518-2.752 34.716.19 3.281.36 6.118.36 8.002a39.14 39.14 0 0 0 2.963 16.935 45.787 45.787 0 0 0 9.103 12.997 27.286 27.286 0 0 1 3.408 5.165c3.323 6.584 5.207 13.315 4.848 16.935a36.622 36.622 0 0 0-3.324-5.186 19.623 19.623 0 0 0-4.953-2.943 49.26 49.26 0 0 1-11.833-7.387 33.171 33.171 0 0 1-5.017-6.86l-.36-.825-.53.72a15.453 15.453 0 0 0-2.624 5.546 38.611 38.611 0 0 0 5.313 19.708 62.765 62.765 0 0 0 10.097 11.346l12.193 11.622a8.129 8.129 0 0 1-2.836-.402 23.878 23.878 0 0 1-11.749-7.896 33.002 33.002 0 0 1-4.022-7.494v-.338h-1.228l-.105.465c-.868 4.234-1.016 15.326 4.106 21.888l.403.487a27.329 27.329 0 0 0 5.143 6.35s5.483 5.526 11.114 10.162l3.07 2.646a91.935 91.935 0 0 0 18.649 13.315c4.424 1.08 7.853.508 9.42-1.609.974-1.312 1.545-3.79-.741-8.15l2.392 1.207c2.985 1.46 5.779 2.836 7.113 5.525l2.624 5.27.509 1.06.423-1.102c1.122-3.048-.995-9.737-3.43-14.67a24.788 24.788 0 0 0-7.557-8.72 17.74 17.74 0 0 1-5.334-5.801 19.39 19.39 0 0 1-.74-1.842c3.513 3.662 6.9 3.154 10.181 2.625l.974-.148 1.016-.148-.72-.72a26.249 26.249 0 0 1-4.085-5.017c-3.45-5.673-3.578-11.43-3.705-16.935 0-5.08-.233-9.864-2.836-14.183l-3.938-6.35a45.914 45.914 0 0 1 15.453 15.008 33.15 33.15 0 0 1 4.657 15.94 25.402 25.402 0 0 0 3.133 11.833c1.038 1.694 2.731 4.361 4.234 6.351a40.99 40.99 0 0 1 1.969 2.646l.19.19v.149a72.29 72.29 0 0 1 4.721 8.467 16.257 16.257 0 0 1 1.164 5.42 17.443 17.443 0 0 1-2.921 5.609l-2.244 2.879-2.138 2.858c-1.44 1.44-2.836 3.09-4.234 4.847a46.02 46.02 0 0 1-8.721 8.637l-1.143.783 1.376.149a34.59 34.59 0 0 0 13.802-2.117l2.328-.699a23.984 23.984 0 0 1-8.848 6.35c-.741.36-1.969 1.08-1.969 1.8a.74.74 0 0 0 .424.656c3.513 2.54 7.578 1.101 10.965-.296a29.805 29.805 0 0 1-4.107 9.547l-.19.254.148.275a2.688 2.688 0 0 1 0 .932 2.73 2.73 0 0 0 0 1.65l.233.445.444-.233a33.044 33.044 0 0 0 11.453-9.398 64.12 64.12 0 0 0 2.878 15.707l.487 1.46.487-1.46a11.092 11.092 0 0 1 1.482-2.646 13.654 13.654 0 0 0 1.609-2.9 61.854 61.854 0 0 0 .804-8.722 34.865 34.865 0 0 0 10.415 7.896l.445.212.232-.445a2.117 2.117 0 0 0 0-1.566 2.625 2.625 0 0 1 0-.847l.149-.275-.19-.254a29.784 29.784 0 0 1-4.51-9.865c3.43 1.418 7.557 2.942 11.135.36a.762.762 0 0 0 .423-.656c0-.72-1.249-1.44-1.968-1.8a24.11 24.11 0 0 1-8.828-6.35l2.265.677a34.59 34.59 0 0 0 13.802 2.117l1.376-.148-1.143-.783a46.74 46.74 0 0 1-8.743-8.637c-1.481-1.757-2.9-3.408-4.34-4.848l-2.243-2.857-2.265-2.9a16.66 16.66 0 0 1-2.985-5.928 15.453 15.453 0 0 1 1.143-5.08 72.29 72.29 0 0 1 4.721-8.468v-.148l.19-.19a42.412 42.412 0 0 1 1.948-2.625c1.44-2.117 3.133-4.763 4.234-6.35a25.402 25.402 0 0 0 3.133-11.834 33.15 33.15 0 0 1 4.657-15.94 45.914 45.914 0 0 1 15.453-15.008l-3.938 6.35c-2.603 4.234-2.73 9.103-2.836 14.183-.127 5.567-.254 11.325-3.705 16.935a25.635 25.635 0 0 1-4.085 5.017l-.72.72 1.016.148.974.148c3.281.53 6.668 1.037 10.182-2.625a19.39 19.39 0 0 1-.741 1.842 17.74 17.74 0 0 1-5.334 5.8 24.788 24.788 0 0 0-7.558 8.721c-2.455 4.933-4.572 11.622-3.429 14.67l.402 1.1.53-1.058 2.624-5.27c1.334-2.689 4.128-4.065 7.113-5.525l2.392-1.207c-2.286 4.36-1.715 6.837-.74 8.15 1.566 2.117 4.995 2.688 9.42 1.609h.105a91.935 91.935 0 0 0 18.713-13.315c1.08-.953 2.117-1.82 3.07-2.646 5.63-4.636 11.07-10.119 11.113-10.182a27.223 27.223 0 0 0 5.144-6.351l.38-.466c5.124-6.54 4.975-17.57 4.107-21.888l-.105-.466h-1.229v.339a33.002 33.002 0 0 1-4.021 7.494 23.815 23.815 0 0 1-11.791 7.896 7.43 7.43 0 0 1-2.794.402l12.214-11.643a62.616 62.616 0 0 0 10.076-11.516 38.611 38.611 0 0 0 5.314-19.707 15.453 15.453 0 0 0-2.752-5.293zm-135.903 69.2c-9.314-13.082-5.779-29.445-4.381-34.42l.74 1.672c0 .297.149.91.276 1.694a59.822 59.822 0 0 0 4.233 16.554 25.974 25.974 0 0 0-.868 14.5zm87.172 0a25.974 25.974 0 0 0-.868-14.5 59.822 59.822 0 0 0 4.234-16.554c.127-.783.212-1.397.275-1.694l.741-1.672c1.397 4.975 4.911 21.338-4.382 34.42z" class="cls-3" style="fill:#14387f;stroke-width:2.11685" transform="translate(5.088 -138.286)"/><path d="m252.448 271.192-.254-.402-.403.232-.486.254-.297.17v.338a41.554 41.554 0 0 1-1.206 10.881 29.34 29.34 0 0 1-6.944 11.05 40.22 40.22 0 0 0-9.568 16.13c-2.498 8.616-3.937 19.941-1.27 24.45l.614 1.016.318-1.143 2.667-9.272c1.397-4.826 5.567-7.917 9.97-11.156 5.102-3.768 10.394-7.684 12.426-14.818 2.942-10.055-2.583-23.243-5.567-27.73zM41.334 309.845a40.22 40.22 0 0 0-9.568-16.13 29.636 29.636 0 0 1-6.964-11.05 42.337 42.337 0 0 1-1.186-10.88v-.34l-.296-.169-.487-.254-.402-.232-.254.402c-2.985 4.487-8.468 17.739-5.61 27.794 2.117 7.07 7.303 10.986 12.426 14.818 4.403 3.239 8.467 6.35 9.97 11.156l2.668 9.272.317 1.143.614-1.016c2.71-4.573 1.249-15.856-1.228-24.514z" class="cls-3" style="fill:#14387f;stroke-width:2.11685" transform="translate(5.088 -138.286)"/><path d="M257.084 298.71c-1.948 6.732-7.092 10.585-12.045 14.205-4.573 3.366-8.87 6.54-10.352 11.685l-2.286 7.938c-1.44-4.234-.72-13.273 1.905-22.396a38.823 38.823 0 0 1 9.357-15.75 30.165 30.165 0 0 0 7.176-11.452 46.296 46.296 0 0 0 1.27-10.372c2.964 4.974 7.62 16.956 4.975 26.143zM39.979 324.6c-1.481-5.144-5.779-8.32-10.351-11.685-4.953-3.662-10.097-7.473-12.045-14.204-2.646-9.187 2.011-21.169 4.975-26.143a46.296 46.296 0 0 0 1.27 10.372 30.165 30.165 0 0 0 7.176 11.452 38.823 38.823 0 0 1 9.356 15.75c2.625 9.123 3.345 18.099 1.906 22.396zm92.824 6.35c-2.963-.38-5.503 1.08-8.192 2.625-2.688 1.546-5.821 3.366-9.505 2.88a8.467 8.467 0 0 1-6.35-7.135c-.36-2.773.55-7.917 10.076-12.383a9.272 9.272 0 0 0-3.43 4.869 6.647 6.647 0 0 0 1.927 6.35c1.8 1.376 4.742 1.355 8.468 0 4.233-1.63 10.16.55 11.536 3.43h-.635zm-2.603 5.187a9.886 9.886 0 0 0-4.7 3.725 12.828 12.828 0 0 1-4.678 4.022 8.108 8.108 0 0 1-7.303-.444 7.409 7.409 0 0 1-3.197-4.975c1.927 2.9 3.747 4.107 5.8 3.832a8.7 8.7 0 0 0 5.716-3.112 12.701 12.701 0 0 1 3.79-2.837 9.483 9.483 0 0 1 6.35-.656h-.106zm95.914 25.402a60.563 60.563 0 0 1-9.928 11.325l-12.701 12.172-.339.339.318.38c.614.7 1.968.742 4.36 0a24.788 24.788 0 0 0 12.3-8.234 36.452 36.452 0 0 0 3.81-6.795c.614 4.636.36 14.204-4.086 19.898l-.36.445a27.16 27.16 0 0 1-4.995 6.16s-5.483 5.504-11.05 10.119c-.995.825-2.117 1.714-3.112 2.667a91.384 91.384 0 0 1-18.438 13.124c-3.937.974-7.028.508-8.298-1.206-1.27-1.715-.72-4.679 1.588-8.468l.19-.17.19-.147-.613-.826a38.23 38.23 0 0 1-4.234 2.35c-3.133 1.545-6.096 2.985-7.578 5.99l-1.926 3.853a30.99 30.99 0 0 1 3.62-12.405 23.645 23.645 0 0 1 7.281-8.361 18.29 18.29 0 0 0 5.61-6.16 27.138 27.138 0 0 0 1.567-4.551l-.932-.403c-.19.297-.402.614-.614.89-3.493 4.466-6.604 3.958-10.224 3.408a26.778 26.778 0 0 0 3.535-4.51c3.599-5.905 3.726-11.79 3.853-17.506 0-4.932.211-9.589 2.71-13.674l4.741-7.79.699-1.144-1.292.403c-3.747 1.164-12.7 8.15-17.421 16.045a34.547 34.547 0 0 0-4.806 16.364 24.661 24.661 0 0 1-2.984 11.41c-1.038 1.693-2.71 4.233-4.128 6.35-.614.74-1.27 1.63-1.927 2.604l-.254.254-.211.17v.232a75.318 75.318 0 0 0-4.679 8.467 16.046 16.046 0 0 0-1.249 5.525v.148a17.464 17.464 0 0 0 3.197 6.35l2.265 2.9 2.265 2.901c1.418 1.418 2.837 3.07 4.234 4.805a55.821 55.821 0 0 0 7.769 8.002 38.675 38.675 0 0 1-12.003-2.265c-1.334-.402-2.71-.826-4.064-1.186l-1.673-.423 1.165 1.27a27.9 27.9 0 0 0 10.436 7.896 6.668 6.668 0 0 1 1.27.804c-2.985 2.011-6.499.826-10.415-.804l-.296-.148h-.17l-1.016-.508.296 1.08a35.86 35.86 0 0 0 4.425 10.817 3.302 3.302 0 0 0 0 1.185v.296a32.05 32.05 0 0 1-10.225-8.319l-.931-1.228v1.546a59.272 59.272 0 0 1-.847 9.907 12.13 12.13 0 0 1-1.46 2.624c-.36.53-.72 1.08-1.038 1.63a65.876 65.876 0 0 1-2.519-15.622v-1.566l-.847 1.312a31.393 31.393 0 0 1-11.198 9.886v-.402a3.704 3.704 0 0 0 .106-1.25 35.648 35.648 0 0 0 4.403-10.71l.275-1.059-.973.466H126.24c-3.937 1.63-7.43 2.815-10.414.804a5.8 5.8 0 0 1 1.249-.804 27.625 27.625 0 0 0 10.457-7.917l1.164-1.27-1.672.444c-1.376.36-2.773.762-4.234 1.186a38.675 38.675 0 0 1-12.003 2.265 55.821 55.821 0 0 0 7.77-8.002c1.481-1.736 2.9-3.387 4.233-4.805l2.286-2.9 2.244-2.88a18.776 18.776 0 0 0 3.133-6.032v-.17a17.676 17.676 0 0 0-1.291-5.884 75.318 75.318 0 0 0-4.679-8.468v-.212l-.211-.19-.254-.254a43.15 43.15 0 0 0-1.948-2.646c-1.397-2.117-3.07-4.657-4.106-6.35a24.661 24.661 0 0 1-2.985-11.41 34.547 34.547 0 0 0-4.805-16.364c-4.806-7.896-13.675-14.818-17.422-16.045l-1.291-.403.698 1.143 4.742 7.79c2.498 4.086 2.604 8.743 2.71 13.675.126 5.716.254 11.6 3.852 17.507a26.778 26.778 0 0 0 3.535 4.509c-3.62.55-6.731 1.058-10.224-3.409a13.218 13.218 0 0 1-.614-.889l-.931.403a27.138 27.138 0 0 0 1.566 4.55 18.29 18.29 0 0 0 5.61 6.16 23.645 23.645 0 0 1 7.282 8.362 30.99 30.99 0 0 1 3.62 12.405l-1.927-3.853c-1.482-3.005-4.445-4.445-7.578-5.99a38.23 38.23 0 0 1-4.234-2.35l-.614.826.191.169.19.148c2.308 3.79 2.858 6.732 1.588 8.468-1.27 1.735-4.36 2.116-8.298 1.206a91.384 91.384 0 0 1-18.437-13.124q-1.61-1.44-3.112-2.668c-5.568-4.614-10.987-10.055-11.029-10.118a26.249 26.249 0 0 1-5.017-6.16 4.064 4.064 0 0 1-.381-.466c-4.445-5.694-4.7-15.262-4.086-19.898a35.648 35.648 0 0 0 3.81 6.774 24.746 24.746 0 0 0 12.257 8.255c2.435.657 3.79.614 4.403 0l.318-.38-.339-.34-12.7-12.15a60.711 60.711 0 0 1-9.95-11.346 38.23 38.23 0 0 1-5.144-19.052 12.447 12.447 0 0 1 1.969-4.36 36.494 36.494 0 0 0 4.847 6.35 50.804 50.804 0 0 0 11.96 7.6 21.698 21.698 0 0 1 4.658 2.688 51.334 51.334 0 0 1 3.852 6.35l.53 1.016.402-1.08c1.418-3.958-1.419-12.7-4.636-19.05a29.128 29.128 0 0 0-3.578-5.399 45.555 45.555 0 0 1-8.89-12.701 38.103 38.103 0 0 1-2.9-16.617c0-1.927-.17-4.784-.36-8.087-.614-10.097-1.482-24.894 1.608-32.197a12.997 12.997 0 0 0 .381 1.567 10.013 10.013 0 0 1 .487 2.54c.508 20.173 7.219 36.664 19.899 48.963a132.472 132.472 0 0 0 18.818 14.521c2.583 1.757 5.229 3.556 7.875 5.462a119.433 119.433 0 0 1 22.777 21.38l.762.974.763 1.016 1.227 1.587-.317-1.968a23.476 23.476 0 0 1-.233-6.203 38.42 38.42 0 0 1 1.99-12.532 27.053 27.053 0 0 1 3.366-5.546l1.121-1.566.34-.424.169-.211.444-.55.233-.233a25.402 25.402 0 0 1 4.085-3.345l.636-.423.486-.297a57.79 57.79 0 0 1 24.895-7.917 24.323 24.323 0 0 0-5.716 3.472c-2.773 2.117-6.16 7.282-5.927 9.695v.804l.698-.423c.953-.593 1.8-1.164 2.54-1.651a14.987 14.987 0 0 1 12.173-3.218c-11.156 5.525-16.194 19.179-17.528 23.413a6.9 6.9 0 0 0-.212.889v.127c.127 2.392.191 4.233.191 5.948v1.503l.91-1.185.466-.593.826-1.08a119.433 119.433 0 0 1 22.777-21.38c2.646-1.905 5.292-3.704 7.875-5.461a132.472 132.472 0 0 0 18.818-14.522c12.701-12.299 19.39-28.79 19.899-48.963a10.013 10.013 0 0 1 .487-2.54 12.997 12.997 0 0 0 .38-1.566c3.091 7.303 2.118 22.1 1.61 32.197-.19 3.302-.382 6.16-.36 8.065a38.23 38.23 0 0 1-2.88 16.617 45.745 45.745 0 0 1-8.89 12.701 29.043 29.043 0 0 0-3.599 5.42c-3.217 6.35-6.054 15.093-4.636 19.051l.403 1.101.529-1.037a51.334 51.334 0 0 1 3.852-6.35 21.698 21.698 0 0 1 4.658-2.69 50.17 50.17 0 0 0 11.96-7.599 36.494 36.494 0 0 0 4.847-6.35 12.447 12.447 0 0 1 1.969 4.36 38.23 38.23 0 0 1-4.953 19.137zM91.101 373.033v-.105l-1.333-2.943-.55-1.185-.403 1.227c-.804 2.498-7.557 24.746 7.028 40.22l.783-.656a11.092 11.092 0 0 1-1.1-1.735c-2.456-4.954-1.25-12.342.148-16.088v-.212l-.106-.19a58.87 58.87 0 0 1-4.234-16.449 15.566 15.566 0 0 0-.233-1.905zm94.39-4.233-.55 1.185-1.227 2.921v.106c0 .339-.17.953-.276 1.82a58.87 58.87 0 0 1-4.233 16.449l-.106.19v.212c1.397 3.747 2.604 11.134.148 16.088a10.182 10.182 0 0 1-1.1 1.736l.782.656c14.586-15.41 7.833-37.659 7.028-40.22zm-49.809-28.366a7.176 7.176 0 0 0 6.203 0c2.413-1.228.889-4.805.889-4.805zM271.648 174.833a16.046 16.046 0 0 1-15.115-13.845l-.275-1.926-1.926-.254-113.718-15.262a39.754 39.754 0 0 0-6.35 0L20.716 158.702l-1.947.275-.254 1.927a16.11 16.11 0 0 1-15.813 13.971H.162V240.9a5.461 5.461 0 0 0 5.44 5.44h263.124a5.504 5.504 0 0 0 5.44-5.44v-65.961z" class="cls-2" style="fill:#009fe3;stroke-width:2.11685" transform="translate(5.088 -138.286)"/><path d="M268.98 240.9a.36.36 0 0 1-.338.338H5.517a.339.339 0 0 1-.233 0 .275.275 0 0 1-.106-.233v-61.219A21.296 21.296 0 0 0 23.15 163.53l4.51-.614h88.04a22.714 22.714 0 0 1 43.437 0h87.468l5.229.698a21.169 21.169 0 0 0 17.146 16.046z" class="cls-3" style="fill:#14387f;stroke-width:2.11685" transform="translate(5.088 -138.286)"/><path d="M262.926 223.541a3.154 3.154 0 0 0-.868-.804v-.635l.212-22.566a3.26 3.26 0 0 0-.995-2.328 3.09 3.09 0 0 0-2.37-.868c-2.118 0-4.362.233-6.5.233s-4.678-.127-6.562-.233a3.154 3.154 0 0 0-3.218 2.117l-.529 1.609a3.133 3.133 0 0 0 .445 2.857l-.339.572-10.753 16.469c-.212.339-.699 1.1-1.122 1.672 1.164-4.657 3.535-14.013 3.535-14.013.487-1.863.783-2.837.91-3.24v-.21a3.175 3.175 0 0 0 2.434-2.118l.53-1.63a3.175 3.175 0 0 0-3.24-4.233c-1.947.127-3.683.233-5.397.233-1.715 0-3.493-.106-5.313-.233h-.233a3.154 3.154 0 0 0-2.88 1.46l-4.974 7.77v-6.076a3.196 3.196 0 0 0-3.387-3.154h-.317c-1.82 0-3.535.211-5.44.211-1.906 0-3.536-.105-5.377-.232a3.302 3.302 0 0 0-3.345 2.116l-.53 1.61a3.133 3.133 0 0 0 .445 2.857 2.583 2.583 0 0 0 .318.36c-.106.275-.19.529-.318.825l-.38.995-6.351 16.596-.19.466h-.34v-.17l.212-22.565a3.154 3.154 0 0 0-3.365-3.196c-2.117 0-4.361.233-6.5.233-2.137 0-4.677-.127-6.54-.233a3.133 3.133 0 0 0-3.218 2.117l-.55 1.608a3.196 3.196 0 0 0 .444 2.858c-.127.19-.211.36-.36.572l-10.732 16.469c-.296.444-1.1 1.672-1.545 2.117a.953.953 0 0 0-.339 0l5.948-18.015a3.196 3.196 0 0 0 2.837-1.714l.53-1.63a3.175 3.175 0 0 0-3.24-4.234c-1.99.127-4.233.233-6.18.233-1.948 0-4.234-.106-6.182-.233a3.027 3.027 0 0 0-1.672.36 2.964 2.964 0 0 0-1.651-.36c-2.117.127-4.022.233-6.35.233-2.33 0-4.108-.106-6.013-.233a3.133 3.133 0 0 0-3.239 2.117l-.529 1.609a3.133 3.133 0 0 0 .424 2.857 3.281 3.281 0 0 0 .444.487l-1.228 3.683a12.701 12.701 0 0 0-2.307-6.35 13.146 13.146 0 0 0-11.071-4.89 23.709 23.709 0 0 0-14.564 5.694l.275-.825a3.175 3.175 0 0 0-.508-2.964 3.218 3.218 0 0 0-2.773-1.206c-1.418 0-3.027.232-4.551.232s-3.366-.105-5.123-.232a3.408 3.408 0 0 0-1.842.402 3.09 3.09 0 0 0-1.799-.402c-2.117.169-4 .232-6.35.232-2.35 0-4.107-.105-6.012-.232a3.133 3.133 0 0 0-3.24 2.116l-.528 1.61a3.133 3.133 0 0 0 .423 2.857 3.281 3.281 0 0 0 .445.487c-.318.931-.741 2.117-1.228 3.683a12.701 12.701 0 0 0-2.308-6.35 13.146 13.146 0 0 0-11.007-5.102 23.095 23.095 0 0 0-13.082 4.551 2.73 2.73 0 0 0 .529-.974l.614-1.841a3.196 3.196 0 0 0-.53-3.006 3.239 3.239 0 0 0-2.815-1.164c-1.228.127-2.836.254-4.36.254-1.525 0-3.028 0-4.573-.254a3.154 3.154 0 0 0-2.625.995 3.09 3.09 0 0 0-2.498-1.017c-2.117.149-4.233.276-6.731.276s-4.51 0-7.282-.276a3.196 3.196 0 0 0-3.24 2.117l-.592 1.82a3.133 3.133 0 0 0 .445 2.753 3.239 3.239 0 0 0 1.249 1.016c.169 2.117 1.037 13.484 1.249 16.3l-1.567 4.699a3.196 3.196 0 0 0-3.027 2.117l-.593 1.82a3.175 3.175 0 0 0 3.218 4.234c2.265-.148 4.424-.275 6.943-.275 2.52 0 4.869.127 7.092.275a3.196 3.196 0 0 0 3.238-2.117l.593-1.8a3.112 3.112 0 0 0-1.1-3.513 330.84 330.84 0 0 0 1.206-3.662l7.303-9.992a20.491 20.491 0 0 0-1.355 3.112 14.649 14.649 0 0 0 1.397 13.505 13.103 13.103 0 0 0 11.05 5.208 23.963 23.963 0 0 0 15.474-6.35l-.465 1.418a3.175 3.175 0 0 0 .508 2.963 3.218 3.218 0 0 0 2.73 1.228c1.99-.127 4.234-.254 6.182-.254 1.947 0 4.233.127 6.18.254a3.218 3.218 0 0 0 2.118-.699 3.196 3.196 0 0 0 2.116.699c1.99-.127 3.853-.254 5.652-.254 1.461 0 2.9 0 4.51.254a3.218 3.218 0 0 0 3.302-2.117l.529-1.63a3.027 3.027 0 0 0 0-1.736 10.373 10.373 0 0 0 .656 1.016 13.103 13.103 0 0 0 11.05 5.208 23.963 23.963 0 0 0 15.474-6.35l-.465 1.418a3.175 3.175 0 0 0 .508 2.963 3.218 3.218 0 0 0 2.73 1.228c1.99-.127 4.234-.254 6.182-.254 1.947 0 4.233.127 6.18.254a3.239 3.239 0 0 0 1.673-.36 3.154 3.154 0 0 0 1.651.36c2.117-.127 4.022-.254 6.35-.254 2.33 0 4.107.127 6.013.254a3.218 3.218 0 0 0 1.778-.423 3.048 3.048 0 0 0 1.778.423c1.524-.127 2.942-.254 4.234-.254a42.168 42.168 0 0 1 4.233.233h.17a3.154 3.154 0 0 0 3.302-2.117l.529-1.63a3.09 3.09 0 0 0-.445-2.858l-.127-.148c.19-.339.403-.677.614-1.016h3.324a3.175 3.175 0 0 0-2.117 2.117l-.53 1.609a3.218 3.218 0 0 0 3.218 4.233c2.117-.127 4.234-.254 6.35-.254 2.541 0 4.764.127 6.711.254a3.345 3.345 0 0 0 1.313-.211 2.879 2.879 0 0 0 1.397.19c1.27 0 2.71-.233 3.98-.233s2.857.127 4.233.233a3.175 3.175 0 0 0 2.9-1.376 3.154 3.154 0 0 0 2.625 1.397h5.186a3.218 3.218 0 0 0 2.52-1.27 3.196 3.196 0 0 0 2.709 1.25h.233c2.117-.128 4.128-.234 6.096-.234 1.97 0 3.874.127 5.885.233a3.027 3.027 0 0 0 1.376-.212 3.281 3.281 0 0 0 1.44.233c1.503-.127 2.942-.254 4.233-.254a42.337 42.337 0 0 1 4.234.233h.55a3.175 3.175 0 0 0 3.303-2.117l.529-1.63a3.196 3.196 0 0 0-.445-2.857.974.974 0 0 0-.148-.149l.614-1.016h3.345a3.133 3.133 0 0 0-2.117 2.117l-.53 1.609a3.175 3.175 0 0 0 3.197 4.234c2.223-.127 4.234-.254 6.35-.254 2.54 0 4.763.127 6.732.254a3.196 3.196 0 0 0 3.218-2.117l.529-1.63a3.133 3.133 0 0 0-.402-3.197zm-151.334-3.916a17.506 17.506 0 0 1 .995-8.467c.784-2.371 2.117-4.107 3.07-4.234a14.818 14.818 0 0 1-.805 7.875c-.698 2.096-1.841 4.636-3.26 4.826zm-60.69 0a17.506 17.506 0 0 1 .995-8.467c.784-2.371 2.117-4.107 3.07-4.234a14.818 14.818 0 0 1-.805 7.854c-.698 2.117-1.841 4.657-3.26 4.847z" class="cls-2" style="fill:#009fe3;stroke-width:2.11685" transform="translate(5.088 -138.286)"/><path d="M14.366 196.382c2.116.127 4.784.275 7.493.275 2.71 0 4.827-.148 6.943-.275l-.592 1.8c-1.08 0-1.63.275-1.884 1.037a12.553 12.553 0 0 0-.17 3.366l.254 8.234 5.377-7.853a13.738 13.738 0 0 0 1.969-3.366c.38-1.143 0-1.418-1.059-1.418l.593-1.8c1.503.127 3.07.275 4.89.275 1.82 0 3.281-.148 4.678-.275l-.614 1.842c-.698 0-1.481.148-2.794 1.905l-12.7 17.464-1.8 5.652c-.572 1.757.402 2.117 1.566 2.117l-.592 1.8a102.113 102.113 0 0 0-7.304-.276c-2.794 0-4.89.127-7.133.275l.592-1.8a2.879 2.879 0 0 0 3.027-2.116l1.8-5.42-1.313-17.294c-.148-2.117-.38-2.265-1.82-2.265zM57.824 198.838c8.045 0 12.194 6.35 9.378 14.818a21.55 21.55 0 0 1-19.22 14.098c-7.77 0-12.173-6.224-9.442-14.522a21.994 21.994 0 0 1 19.284-14.394zm-7.091 24.005c3.662 0 5.462-4.086 6.35-7.07 1.228-3.705 2.71-12.088-2.116-12.088-3.303 0-5.314 3.747-6.203 6.35-1.143 3.832-2.9 12.808 1.969 12.808zM75.966 202.923c.53-1.63-.508-1.799-1.397-1.799l.55-1.609c1.884.127 4.043.254 6.224.254 2.18 0 4.466 0 6.562-.254l-.55 1.609a2.329 2.329 0 0 0-2.562 1.8l-3.471 10.478c8.255-8.743 9.737-10.14 10.033-11.03.297-.888-.317-1.248-1.037-1.248l.53-1.609c1.82.127 3.598.254 5.46.254 1.864 0 3.24-.127 4.806-.254l-.53 1.609a4.234 4.234 0 0 0-2.878 1.63l-7.875 7.917c.783 4 1.334 8.044 1.778 12.214.191 1.884.614 2.52 2.117 2.52l-.529 1.63c-1.545-.128-3.154-.255-4.784-.255s-3.874.127-5.864.254a87.765 87.765 0 0 0-1.397-13.378l-3.28 9.97c-.53 1.609.422 1.778 1.396 1.778l-.529 1.63c-1.99-.127-3.959-.254-6.35-.254-2.393 0-4.404.127-6.351.254l.53-1.63a2.413 2.413 0 0 0 2.582-1.778zM118.515 198.838c8.044 0 12.193 6.35 9.377 14.818a21.55 21.55 0 0 1-19.22 14.098c-7.77 0-12.173-6.224-9.442-14.522a21.994 21.994 0 0 1 19.285-14.394Zm-7.092 24.005c3.662 0 5.462-4.086 6.457-7.07 1.227-3.705 2.71-12.088-2.117-12.088-3.303 0-5.314 3.747-6.203 6.35-1.249 3.832-3.006 12.808 1.863 12.808zM127.236 225.362a2.413 2.413 0 0 0 2.583-1.778l6.837-20.703c.53-1.63-.508-1.8-1.397-1.8l.55-1.608c1.884.127 4.043.254 6.224.254 2.18 0 4.488-.127 6.562-.254l-.55 1.609a2.329 2.329 0 0 0-2.562 1.799l-2.37 7.155h6.88l2.37-7.155c.53-1.63-.423-1.8-1.397-1.8l.53-1.608c1.989.127 3.958.254 6.35.254 2.392 0 4.403-.127 6.35-.254l-.529 1.609a2.392 2.392 0 0 0-2.583 1.799l-6.837 20.703c-.53 1.609.487 1.778 1.376 1.778l-.53 1.63c-1.904-.127-4.042-.254-6.223-.254-2.18 0-4.488.127-6.562.254l.55-1.63a2.329 2.329 0 0 0 2.562-1.778l2.794-8.468h-6.837l-2.795 8.468c-.529 1.609.424 1.778 1.397 1.778l-.529 1.63c-1.99-.127-3.958-.254-6.35-.254-2.392 0-4.403.127-6.35.254zM158.798 225.362c1.334 0 1.884-.55 3.874-3.62l10.733-16.49a15.178 15.178 0 0 0 1.65-3.006c.233-.699-.296-1.164-1.396-1.164l.529-1.61c2.117.128 4.487.255 6.753.255 2.265 0 4.466-.127 6.689-.254l-.212 22.523c0 2.117 0 3.366 1.482 3.366l-.55 1.63c-2.117-.127-4.361-.254-6.901-.254s-4.382.127-6.52.254l.529-1.63c.698 0 2.117-.212 2.307-1.1a17.591 17.591 0 0 0 .445-5.124h-8.827a33.277 33.277 0 0 0-2.88 5.08c-.36 1.06.678 1.144 1.588 1.144l-.529 1.63c-1.44-.127-2.815-.254-4.763-.254-1.46 0-3.006.127-4.53.254zm19.623-10.31.403-10.732-6.753 10.733zM191.123 225.362c.804 0 2.116 0 2.984-2.52l6.35-16.595c.382-.995.784-2.011 1.123-2.985.55-1.672-.254-2.117-1.143-2.117l.529-1.609c1.905.127 3.768.254 5.694.254 1.927 0 3.98-.127 5.949-.254v16.702l10.584-16.702c1.947.127 3.81.254 5.758.254 1.947 0 3.725-.127 5.61-.254l-.53 1.61c-.931 0-1.757 0-2.519 2.349-.212.635-.53 1.736-.974 3.45l-4.233 16.575c-.508 1.905.338 1.905 1.44 1.905l-.53 1.63c-2.117-.127-4.086-.254-6.203-.254-2.116 0-4.233.127-6.498.254l.529-1.63a2.625 2.625 0 0 0 2.985-2.116c.444-1.376.825-2.985 1.143-4.234l3.07-10.648-12.427 18.67h-5.186l-.635-18.755-4.234 11.474c-.38 1.058-.804 2.117-1.164 3.133-.804 2.476.19 2.519 1.397 2.519l-.53 1.63c-1.46-.127-2.963-.254-4.444-.254-1.482 0-2.837.127-4.234.254zM230.284 225.362c1.355 0 1.884-.55 3.874-3.62l10.754-16.49a17.845 17.845 0 0 0 1.65-3.006c.213-.699-.317-1.164-1.396-1.164l.529-1.61c2.117.128 4.488.255 6.753.255 2.265 0 4.445-.127 6.668-.254l-.212 22.523c0 2.117 0 3.366 1.482 3.366l-.53 1.63c-2.116-.127-4.36-.254-6.921-.254-2.562 0-4.361.127-6.5.254l.53-1.63c.677 0 2.011-.212 2.307-1.1a18.036 18.036 0 0 0 .424-5.124h-8.827a34.102 34.102 0 0 0-2.9 5.08c-.34 1.06.677 1.144 1.608 1.144l-.529 1.63c-1.46-.127-2.837-.254-4.784-.254-1.44 0-2.985.127-4.53.254zm19.645-10.31.38-10.732-6.752 10.733z" class="cls-1" style="fill:#fff;stroke-width:2.11685" transform="translate(5.088 -138.286)"/><path d="m151.41 191.492-7.493-12.7 6.54-11.982.445-.826a9.018 9.018 0 0 0 .593-2.117 8.298 8.298 0 0 0-1.757-6.477 8.15 8.15 0 0 0-5.123-2.921h-.74l-3.79-.276-7.81-.55a9.505 9.505 0 0 0-9.294 8.213 10.986 10.986 0 0 0 .614 3.959l.148.38 7.07 11.94-7.049 12.955-.614 1.122 1.25-.233 6.71-1.27 4.91 1.545.488.149.233-.445 1.08-1.969 1.164 1.969.275.445.465-.17 4.954-1.905 5.906 2.117 1.609.593zm-26.714-26.249a10.267 10.267 0 0 1-.487-3.217 8.256 8.256 0 0 1 8.15-7.113 6.9 6.9 0 0 1 4.784 2.477 9.547 9.547 0 0 0-2.562 5.228 7.113 7.113 0 0 0 .149 3.155l.127.423h.169l1.249 2.117-4.657 8.467zm13.124-6.774a7.303 7.303 0 0 1 .783 4.467 7.472 7.472 0 0 1-.74 2.392v.19l-.847 1.567-1.059-1.778a6.35 6.35 0 0 1 0-2.435 8.15 8.15 0 0 1 1.863-4.403zM136 190.9l-4.594-1.524h-.296l-5.589 1.038 13.103-24.048a2.964 2.964 0 0 0 .212-.338 9.568 9.568 0 0 0 .953-3.006 8.467 8.467 0 0 0-1.757-6.5 8.848 8.848 0 0 0-1.61-1.48l7.24.528a6.9 6.9 0 0 1 4.996 2.562 7.07 7.07 0 0 1 1.503 5.546 7.197 7.197 0 0 1-.825 2.604l-.191.38zm8.975-1.841h-.423l-4.678 1.8-1.292-2.118 4.657-8.467 6.35 10.584z" class="cls-3" style="fill:#14387f;stroke-width:2.11685" transform="translate(5.088 -138.286)"/><path d="m136.233 168.313-1.25-2.117h-.148l-.127-.423a7.113 7.113 0 0 1-.148-3.155 9.547 9.547 0 0 1 2.583-5.207 6.9 6.9 0 0 0-4.763-2.519 8.256 8.256 0 0 0-8.15 7.113 10.267 10.267 0 0 0 .487 3.217l6.88 11.622z" class="cls-2" style="fill:#009fe3;stroke-width:2.11685" transform="translate(5.088 -138.286)"/><path d="m123.5 60.85.1-.04.1.04 2.13.79-2.95-4.99-2.2 4.03.6 1.02z" class="cls-2" style="fill:#009fe3" transform="translate(-111.79 -78.038) scale(2.11685)"/><path d="M148.68 158.215a6.9 6.9 0 0 0-4.996-2.561l-7.24-.53a8.848 8.848 0 0 1 1.61 1.483 8.467 8.467 0 0 1 1.756 6.498 9.568 9.568 0 0 1-.952 3.006 2.964 2.964 0 0 1-.212.339l-13.103 24.047 5.588-1.037h.296l4.594 1.44 13.167-24.154.19-.38a7.197 7.197 0 0 0 .826-2.604 7.07 7.07 0 0 0-1.524-5.547zm-11.749 23.159a1.99 1.99 0 1 1 1.99-1.99 1.99 1.99 0 0 1-1.99 1.99z" class="cls-2" style="fill:#009fe3;stroke-width:2.11685" transform="translate(5.088 -138.286)"/><path d="M136.931 181.374a1.99 1.99 0 1 0-1.99-1.99 1.99 1.99 0 0 0 1.99 1.99z" class="cls-1" style="fill:#fff;stroke-width:2.11685" transform="translate(5.088 -138.286)"/><path d="M137.355 315.138a42.337 42.337 0 1 0-29.996-12.426 42.231 42.231 0 0 0 29.996 12.426z" class="cls-3" style="fill:#14387f;stroke-width:2.11685" transform="translate(5.088 -138.286)"/><path d="M99.76 272.695a37.574 37.574 0 1 1 11.007 26.608 37.341 37.341 0 0 1-11.008-26.608Z" class="cls-4" style="fill:#f07e26;stroke-width:2.11685" transform="translate(5.088 -138.286)"/><path d="m128.38 261.878-1.144 3.916h9.907l-1.969 6.625h-9.885l-3.303 11.03h-12.362l5.8-20.45h6.562l.466-1.778h-6.35a6.118 6.118 0 0 1-4.806-2.498 10.097 10.097 0 0 1-1.672-3.725h30.186v6.816zM159.624 272.038a12.384 12.384 0 0 1 7.07 1.525v-7.325a23.666 23.666 0 0 0-8.637-1.058 41.66 41.66 0 0 0-4.55.423h-15.158a9.97 9.97 0 0 0 1.63 3.641 6.202 6.202 0 0 0 4.806 2.52h2.117l-.636 1.904h-6.752a14.818 14.818 0 0 0-2.117 4.679 16.935 16.935 0 0 0-.614 4.233c0 7.261 5.588 10.944 12.701 11.664a26.376 26.376 0 0 0 9.907-.974l5.292-7.684a15.686 15.686 0 0 1-10.288 1.292 5.504 5.504 0 0 1-4.847-5.525 7.642 7.642 0 0 1 .275-1.863 10.013 10.013 0 0 1 9.8-7.452z" class="cls-3" style="fill:#14387f;stroke-width:2.11685" transform="translate(5.088 -138.286)"/></svg>